<?xml version="1.0" encoding="utf-8"?>
<!-- Generator: Adobe Illustrator 16.0.0, SVG Export Plug-In . SVG Version: 6.00 Build 0)  -->
<!DOCTYPE svg PUBLIC "-//W3C//DTD SVG 1.1//EN" "http://www.w3.org/Graphics/SVG/1.1/DTD/svg11.dtd">
<svg version="1.1" id="Layer_1" xmlns="http://www.w3.org/2000/svg" xmlns:xlink="http://www.w3.org/1999/xlink" x="0px" y="0px"
	 width="58px" height="42.996px" viewBox="0 0 58 42.996" enable-background="new 0 0 58 42.996" xml:space="preserve">
<path d="M339.133,94.399l-1.803,15.077l-0.268,2.237h2.254h6.896l-14.693,18.759l1.789-14.52l0.277-2.245h-2.262h-6.957
	L339.133,94.399 M341.987,87.375l-21.667,28.333h11.004l-2.671,21.667l21.667-27.661h-11.004L341.987,87.375L341.987,87.375z"/>
<path d="M-73.902-367.861c6.79,0,12.749,4.814,14.171,11.448l0.318,1.483l1.514,0.094c4.203,0.262,7.496,3.763,7.496,7.971
	c0,4.396-3.565,7.977-7.957,8c-0.046-0.003-0.091-0.006-0.137-0.007l-2.043-0.036v0.043h-28.337l-0.578-0.003
	c-5.485-0.027-9.948-4.513-9.948-9.998c0-5.514,4.485-10,9.999-10c0.175,0,0.347,0.014,0.519,0.025l0.149,0.011l1.316,0.087
	l0.598-1.176C-84.329-364.818-79.379-367.861-73.902-367.861 M-73.902-369.861c-6.423,0-11.977,3.678-14.702,9.035
	c-0.266-0.018-0.53-0.04-0.8-0.04c-6.627,0-11.999,5.372-11.999,12c0,6.607,5.34,11.965,11.938,11.998v0.003h30.925v-0.007
	c0.046,0.001,0.091,0.007,0.137,0.007c5.521,0,10-4.477,10-10c0-5.311-4.145-9.642-9.372-9.967
	C-59.371-364.277-65.982-369.861-73.902-369.861L-73.902-369.861z"/>
<g>
	<path d="M49.049-349.45c-1.444-6.742-7.433-11.8-14.605-11.8c-2.185,0-4.258,0.47-6.127,1.313
		c-1.666-3.202-5.006-5.394-8.865-5.394c-5.522,0-10,4.477-10,9.999c0,2.46,0.898,4.702,2.373,6.442
		c-1.428,1.84-2.287,4.144-2.287,6.653c0,5.983,4.836,10.836,10.813,10.865v0.003h28.007v-0.006
		c0.042,0.001,0.082,0.006,0.124,0.006c5.001,0,9.057-4.054,9.057-9.057C57.537-345.233,53.783-349.155,49.049-349.45z
		 M19.451-363.33c3.092,0,5.76,1.773,7.092,4.345c-2.299,1.44-4.178,3.488-5.414,5.918c-0.241-0.016-0.48-0.036-0.725-0.036
		c-2.766,0-5.281,1.041-7.2,2.743c-1.092-1.366-1.753-3.09-1.753-4.971C11.451-359.741,15.04-363.33,19.451-363.33z M48.521-333.367
		c-0.038-0.003-0.077-0.004-0.117-0.005l-2.047-0.042v0.047H20.953l-0.594-0.003c-4.864-0.023-8.822-4.001-8.822-8.865
		c0-4.89,3.978-8.868,8.867-8.868c0.15,0,0.299,0.012,0.447,0.021L21-351.071l1.314,0.085l0.598-1.174
		c2.224-4.373,6.643-7.09,11.531-7.09c6.062,0,11.381,4.298,12.65,10.219l0.317,1.482l1.514,0.095
		c3.708,0.231,6.612,3.319,6.612,7.03C55.537-336.546,52.394-333.39,48.521-333.367z"/>
	<rect x="18.457" y="-375.36" width="2" height="7.973"/>
	<rect x="-0.516" y="-356.374" width="7.973" height="2"/>
	<rect x="4.21" y="-367.593" transform="matrix(0.7071 0.7071 -0.7071 0.7071 -256.8193 -113.1689)" width="7.974" height="2"/>
	<rect x="29.719" y="-370.575" transform="matrix(0.7071 0.7071 -0.7071 0.7071 -250.2202 -129.0928)" width="2" height="7.972"/>
</g>
<path d="M144.792-353.478c-1.444-6.742-7.433-11.8-14.605-11.8c-1.799,0-3.521,0.32-5.118,0.904
	c-0.949-5.108-5.404-8.98-10.788-8.98c-0.413,0-0.819,0.027-1.222,0.071c0.744,1.112,1.179,2.448,1.179,3.886c0,3.865-3.134,7-7,7
	c-1.438,0-2.773-0.435-3.886-1.179c-0.044,0.401-0.071,0.809-0.071,1.222c0,3.712,1.845,6.987,4.661,8.979
	c-1.653,1.907-2.661,4.389-2.661,7.111c0,5.983,4.836,10.836,10.813,10.865v0.003H144.1v-0.006c0.042,0.001,0.082,0.006,0.124,0.006
	c5.001,0,9.057-4.054,9.057-9.057C153.28-349.261,149.526-353.183,144.792-353.478z M105.457-360.573
	c0.582,0.117,1.178,0.177,1.78,0.177c4.963,0,9-4.037,9-9c0-0.603-0.06-1.198-0.177-1.78c3.733,0.753,6.629,3.824,7.134,7.64
	c-2.713,1.444-4.928,3.699-6.322,6.442c-0.241-0.016-0.48-0.036-0.725-0.036c-2.537,0-4.865,0.876-6.715,2.334
	C107.421-356.091,105.946-358.15,105.457-360.573z M144.264-337.395c-0.038-0.003-0.077-0.004-0.117-0.005l-2.047-0.042v0.047
	h-25.403l-0.594-0.003c-4.864-0.023-8.822-4.001-8.822-8.865c0-4.89,3.978-8.868,8.867-8.868c0.15,0,0.299,0.012,0.447,0.021
	l0.148,0.011l1.314,0.085l0.598-1.174c2.224-4.373,6.643-7.09,11.531-7.09c6.062,0,11.381,4.298,12.65,10.219l0.317,1.482
	l1.514,0.095c3.708,0.231,6.612,3.319,6.612,7.03C151.28-340.573,148.137-337.417,144.264-337.395z"/>
<g>
	<rect x="229.438" y="-344.854" width="2" height="7"/>
	<rect x="237.438" y="-348.854" width="2" height="7"/>
	<rect x="221.438" y="-348.854" width="2" height="7"/>
	<rect x="229.438" y="-334.854" width="2" height="7"/>
	<rect x="237.438" y="-338.854" width="2" height="7"/>
	<rect x="221.438" y="-338.854" width="2" height="7"/>
	<path d="M248.065-361.843c-1.596-7.445-8.207-13.029-16.127-13.029c-6.423,0-11.977,3.678-14.702,9.035
		c-0.266-0.018-0.53-0.04-0.8-0.04c-6.627,0-11.999,5.372-11.999,12c0,6.607,5.34,11.965,11.938,11.998v0.003h2.062v-2h-1.604
		l-0.447-0.003c-5.485-0.027-9.948-4.513-9.948-9.998c0-5.514,4.485-10,9.999-10c0.175,0,0.347,0.014,0.52,0.025l0.148,0.01
		l1.316,0.088l0.598-1.176c2.492-4.899,7.443-7.942,12.92-7.942c6.79,0,12.75,4.814,14.172,11.448l0.317,1.482l1.514,0.095
		c4.203,0.262,7.496,3.763,7.496,7.971c0,4.397-3.565,7.977-7.957,8c-0.05-0.003-0.093-0.005-0.137-0.007l-2.043,0.007h-2.863v2
		h4.863v-0.007c0.046,0.001,0.091,0.007,0.137,0.007c5.521,0,10-4.477,10-10C257.438-357.187,253.293-361.518,248.065-361.843z"/>
</g>
<g>
	<path d="M45.639-272.485c-1.596-7.445-8.207-13.029-16.127-13.029c-6.423,0-11.977,3.678-14.702,9.035
		c-0.266-0.018-0.53-0.04-0.8-0.04c-6.627,0-11.999,5.372-11.999,12c0,6.607,5.34,11.965,11.938,11.998v0.003h2.062v-2h-1.604
		l-0.447-0.003c-5.485-0.027-9.948-4.513-9.948-9.998c0-5.514,4.485-10,9.999-10c0.175,0,0.347,0.014,0.52,0.025l0.148,0.01
		l1.316,0.088l0.598-1.176c2.492-4.899,7.443-7.942,12.92-7.942c6.79,0,12.75,4.814,14.172,11.448l0.317,1.482l1.514,0.095
		c4.203,0.262,7.496,3.763,7.496,7.971c0,4.397-3.565,7.977-7.957,8c-0.05-0.003-0.093-0.005-0.137-0.007l-2.043,0.007h-2.863v2
		h4.863v-0.007c0.046,0.001,0.091,0.007,0.137,0.007c5.521,0,10-4.477,10-10C55.011-267.829,50.866-272.16,45.639-272.485z"/>
	<polygon points="27.011,-245.49 27.011,-243.55 27.011,-237.49 29.011,-237.49 29.011,-243.55 29.011,-245.49 29.011,-257.49 
		27.011,-257.49 	"/>
	<polygon points="35.011,-249.49 35.011,-247.737 35.011,-241.49 37.011,-241.49 37.011,-247.737 37.011,-249.49 37.011,-261.49 
		35.011,-261.49 	"/>
	<polygon points="19.011,-249.49 19.011,-247.425 19.011,-241.49 21.011,-241.49 21.011,-247.425 21.011,-249.49 21.011,-261.49 
		19.011,-261.49 	"/>
</g>
<g>
	<polygon points="341.288,-248.579 334.405,-258.409 332.768,-257.262 339.65,-247.432 340.763,-245.843 344.238,-240.879 
		345.877,-242.025 342.401,-246.99 	"/>
	<polygon points="349.29,-248.581 342.405,-258.409 340.768,-257.261 347.653,-247.433 348.658,-245.997 352.242,-240.882 
		353.881,-242.028 350.297,-247.145 	"/>
	<polygon points="333.288,-248.579 326.405,-258.409 324.768,-257.261 331.65,-247.432 332.835,-245.739 336.239,-240.878 
		337.877,-242.025 334.474,-246.887 	"/>
	<path d="M352.396-272.219c-1.596-7.445-8.207-13.029-16.127-13.029c-6.423,0-11.977,3.678-14.702,9.035
		c-0.266-0.018-0.53-0.04-0.8-0.04c-6.627,0-11.999,5.372-11.999,12c0,6.607,5.34,11.965,11.938,11.998v0.003h2.062v-2h-1.604
		l-0.447-0.003c-5.485-0.027-9.948-4.513-9.948-9.998c0-5.514,4.485-10,9.999-10c0.175,0,0.347,0.014,0.52,0.025l0.148,0.01
		l1.316,0.088l0.598-1.176c2.492-4.899,7.443-7.942,12.92-7.942c6.79,0,12.75,4.814,14.172,11.448l0.317,1.482l1.514,0.095
		c4.203,0.262,7.496,3.763,7.496,7.971c0,4.397-3.565,7.977-7.957,8c-0.05-0.003-0.093-0.005-0.137-0.007l-1.043,0.007h0.137v2
		h0.863v-0.007c0.046,0.001,0.091,0.007,0.137,0.007c5.521,0,10-4.477,10-10C361.768-267.563,357.623-271.894,352.396-272.219z"/>
</g>
<g>
	<rect x="324.094" y="-381.301" width="2" height="7.973"/>
	<rect x="305.094" y="-362.387" width="7.973" height="2"/>
	<rect x="309.767" y="-373.653" transform="matrix(0.7071 0.7071 -0.7071 0.7071 -171.6093 -331.0052)" width="7.974" height="2"/>
	<rect x="335.276" y="-376.635" transform="matrix(0.7071 0.7071 -0.7071 0.7071 -165.0101 -346.9291)" width="2" height="7.972"/>
	<rect x="338.094" y="-340.428" width="2" height="7"/>
	<rect x="346.094" y="-344.428" width="2" height="7"/>
	<rect x="330.094" y="-344.428" width="2" height="7"/>
	<rect x="338.094" y="-330.428" width="2" height="7"/>
	<rect x="346.094" y="-334.428" width="2" height="7"/>
	<rect x="330.094" y="-334.428" width="2" height="7"/>
	<path d="M354.605-355.511c-1.444-6.742-7.433-11.8-14.605-11.8c-2.185,0-4.258,0.47-6.126,1.313
		c-1.667-3.202-5.007-5.394-8.866-5.394c-5.522,0-10,4.477-10,9.999c0,2.46,0.899,4.702,2.373,6.442
		c-1.429,1.84-2.287,4.144-2.287,6.653c0,5.983,4.836,10.836,10.813,10.865v0.003h1.188v-2h-0.721l-0.457-0.003
		c-4.864-0.023-8.822-4.001-8.822-8.865c0-4.89,3.978-8.868,8.867-8.868c0.15,0,0.299,0.012,0.447,0.022l0.148,0.01l1.314,0.085
		l0.597-1.175c2.225-4.372,6.644-7.089,11.532-7.089c6.062,0,11.382,4.298,12.649,10.219l0.318,1.483l1.514,0.094
		c3.708,0.23,6.612,3.319,6.612,7.03c0,3.878-3.144,7.035-7.017,7.057c-0.042-0.003-0.079-0.005-0.117-0.005l-2.047,0.005h-0.819v2
		h2.819v-0.006c0.042,0.001,0.082,0.006,0.124,0.006c5.001,0,9.057-4.054,9.057-9.057
		C363.094-351.294,359.34-355.216,354.605-355.511z M326.686-359.128c-0.241-0.016-0.48-0.036-0.725-0.036
		c-2.766,0-5.282,1.041-7.2,2.743c-1.092-1.366-1.753-3.09-1.753-4.971c0-4.41,3.589-7.999,8-7.999c3.091,0,5.76,1.773,7.091,4.345
		C329.801-363.605,327.921-361.558,326.686-359.128z"/>
</g>
<g>
	<rect x="438.511" y="-341.875" width="2" height="7"/>
	<rect x="446.511" y="-345.875" width="2" height="7"/>
	<rect x="430.511" y="-345.875" width="2" height="7"/>
	<rect x="438.511" y="-331.875" width="2" height="7"/>
	<rect x="446.511" y="-335.875" width="2" height="7"/>
	<rect x="430.511" y="-335.875" width="2" height="7"/>
	<path d="M455.022-356.958c-1.444-6.742-7.433-11.8-14.605-11.8c-1.799,0-3.522,0.32-5.118,0.904
		c-0.949-5.108-5.404-8.98-10.788-8.98c-0.413,0-0.819,0.027-1.222,0.071c0.744,1.112,1.179,2.448,1.179,3.886c0,3.865-3.134,7-7,7
		c-1.438,0-2.773-0.435-3.886-1.179c-0.044,0.401-0.071,0.809-0.071,1.222c0,3.712,1.845,6.987,4.661,8.979
		c-1.653,1.907-2.661,4.389-2.661,7.111c0,5.983,4.836,10.836,10.813,10.865v0.003h1.188v-2h-0.721l-0.457-0.003
		c-4.864-0.023-8.822-4.001-8.822-8.865c0-4.89,3.978-8.868,8.867-8.868c0.15,0,0.299,0.012,0.447,0.022l0.148,0.01l1.314,0.085
		l0.597-1.175c2.225-4.372,6.644-7.089,11.532-7.089c6.062,0,11.382,4.298,12.649,10.219l0.318,1.483l1.514,0.094
		c3.708,0.23,6.612,3.319,6.612,7.03c0,3.878-3.144,7.035-7.017,7.057c-0.042-0.003-0.079-0.005-0.117-0.005l-2.047,0.005h-0.819v2
		h2.819v-0.006c0.042,0.001,0.082,0.006,0.124,0.006c5.001,0,9.057-4.054,9.057-9.057
		C463.511-352.741,459.757-356.663,455.022-356.958z M427.103-360.575c-0.241-0.016-0.48-0.036-0.725-0.036
		c-2.537,0-4.865,0.876-6.715,2.334c-2.012-1.294-3.487-3.354-3.976-5.776c0.582,0.117,1.178,0.177,1.78,0.177c4.963,0,9-4.037,9-9
		c0-0.603-0.06-1.198-0.177-1.78c3.733,0.753,6.629,3.824,7.133,7.64C430.713-365.573,428.498-363.318,427.103-360.575z"/>
</g>
<g>
	<polygon points="131.28,-241.052 131.28,-239.111 131.28,-233.052 133.28,-233.052 133.28,-239.111 133.28,-241.052 
		133.28,-253.052 131.28,-253.052 	"/>
	<polygon points="139.28,-245.052 139.28,-243.299 139.28,-237.052 141.28,-237.052 141.28,-243.299 141.28,-245.052 
		141.28,-257.052 139.28,-257.052 	"/>
	<polygon points="123.28,-245.052 123.28,-242.986 123.28,-237.052 125.28,-237.052 125.28,-242.986 125.28,-245.052 
		125.28,-257.052 123.28,-257.052 	"/>
	<rect x="117.28" y="-291.954" width="2" height="7.973"/>
	<rect x="98.28" y="-273.04" width="7.973" height="2"/>
	<rect x="102.953" y="-284.307" transform="matrix(0.7071 0.7071 -0.7071 0.7071 -169.0059 -158.5969)" width="7.974" height="2"/>
	<rect x="128.462" y="-287.288" transform="matrix(0.7071 0.7071 -0.7071 0.7071 -162.4068 -174.5208)" width="2" height="7.972"/>
	<path d="M147.792-266.164c-1.444-6.742-7.433-11.8-14.605-11.8c-2.185,0-4.258,0.47-6.127,1.313
		c-1.666-3.202-5.006-5.394-8.865-5.394c-5.522,0-10,4.477-10,9.999c0,2.46,0.898,4.702,2.373,6.442
		c-1.428,1.84-2.287,4.144-2.287,6.653c0,5.983,4.836,10.836,10.813,10.865v0.003h1.188v-2h-0.721l-0.457-0.003
		c-4.864-0.023-8.822-4.001-8.822-8.865c0-4.89,3.978-8.868,8.867-8.868c0.15,0,0.299,0.012,0.447,0.022l0.148,0.01l1.314,0.085
		l0.597-1.175c2.225-4.372,6.644-7.089,11.532-7.089c6.062,0,11.382,4.298,12.649,10.219l0.318,1.483l1.514,0.094
		c3.708,0.23,6.612,3.319,6.612,7.03c0,3.878-3.144,7.035-7.017,7.057c-0.042-0.003-0.079-0.005-0.117-0.005l-2.047,0.005h-0.819v2
		h2.819v-0.006c0.042,0.001,0.082,0.006,0.124,0.006c5.001,0,9.057-4.054,9.057-9.057
		C156.28-261.947,152.526-265.869,147.792-266.164z M119.872-269.781c-0.241-0.016-0.48-0.036-0.725-0.036
		c-2.766,0-5.281,1.042-7.2,2.743c-1.092-1.367-1.753-3.09-1.753-4.971c0-4.41,3.589-7.999,8-7.999c3.092,0,5.76,1.773,7.092,4.345
		C122.987-274.26,121.108-272.211,119.872-269.781z"/>
</g>
<g>
	<polygon points="231.678,-243.568 231.678,-241.628 231.678,-235.568 233.678,-235.568 233.678,-241.628 233.678,-243.568 
		233.678,-255.568 231.678,-255.568 	"/>
	<polygon points="239.678,-247.568 239.678,-245.815 239.678,-239.568 241.678,-239.568 241.678,-245.815 241.678,-247.568 
		241.678,-259.568 239.678,-259.568 	"/>
	<polygon points="223.678,-247.568 223.678,-245.503 223.678,-239.568 225.678,-239.568 225.678,-245.503 225.678,-247.568 
		225.678,-259.568 223.678,-259.568 	"/>
	<path d="M248.189-268.681c-1.444-6.742-7.433-11.8-14.605-11.8c-1.799,0-3.521,0.32-5.118,0.904
		c-0.949-5.108-5.404-8.98-10.788-8.98c-0.413,0-0.819,0.027-1.222,0.071c0.744,1.112,1.179,2.448,1.179,3.886c0,3.865-3.134,7-7,7
		c-1.438,0-2.773-0.435-3.886-1.179c-0.044,0.401-0.071,0.809-0.071,1.222c0,3.712,1.845,6.987,4.661,8.979
		c-1.653,1.907-2.661,4.389-2.661,7.111c0,5.983,4.836,10.836,10.813,10.865v0.003h1.188v-2h-0.721l-0.457-0.003
		c-4.864-0.023-8.822-4.001-8.822-8.865c0-4.89,3.978-8.868,8.867-8.868c0.15,0,0.299,0.012,0.447,0.022l0.148,0.01l1.314,0.085
		l0.597-1.175c2.225-4.372,6.644-7.089,11.532-7.089c6.062,0,11.382,4.298,12.649,10.219l0.318,1.483l1.514,0.094
		c3.708,0.23,6.612,3.319,6.612,7.03c0,3.878-3.144,7.035-7.017,7.057c-0.042-0.003-0.079-0.005-0.117-0.005l-2.047,0.005h-0.819v2
		h2.819v-0.006c0.042,0.001,0.082,0.006,0.124,0.006c5.001,0,9.057-4.054,9.057-9.057
		C256.678-264.464,252.924-268.386,248.189-268.681z M220.27-272.298c-0.241-0.016-0.48-0.036-0.725-0.036
		c-2.537,0-4.865,0.876-6.715,2.334c-2.012-1.294-3.486-3.354-3.976-5.776c0.582,0.117,1.178,0.177,1.78,0.177c4.963,0,9-4.037,9-9
		c0-0.603-0.06-1.198-0.177-1.78c3.733,0.753,6.629,3.824,7.134,7.641C223.879-277.296,221.664-275.04,220.27-272.298z"/>
</g>
<g>
	<polygon points="448.713,-242.624 441.83,-252.454 440.192,-251.307 447.075,-241.477 448.188,-239.888 451.663,-234.924 
		453.302,-236.07 449.826,-241.035 	"/>
	<polygon points="456.715,-242.626 449.83,-252.454 448.192,-251.306 455.078,-241.478 456.083,-240.042 459.667,-234.927 
		461.306,-236.073 457.722,-241.189 	"/>
	<polygon points="440.713,-242.624 433.83,-252.454 432.192,-251.306 439.075,-241.477 440.26,-239.784 443.664,-234.923 
		445.302,-236.07 441.898,-240.932 	"/>
	<rect x="428.192" y="-290.173" width="2" height="7.973"/>
	<rect x="409.192" y="-271.259" width="7.973" height="2"/>
	<rect x="413.865" y="-282.525" transform="matrix(0.7071 0.7071 -0.7071 0.7071 -76.6823 -377.9232)" width="7.974" height="2"/>
	<rect x="439.374" y="-285.507" transform="matrix(0.7071 0.7071 -0.7071 0.7071 -70.0832 -393.8472)" width="2" height="7.972"/>
	<path d="M458.704-264.383c-1.444-6.742-7.433-11.8-14.605-11.8c-2.185,0-4.258,0.47-6.126,1.313
		c-1.667-3.202-5.007-5.394-8.866-5.394c-5.522,0-10,4.477-10,9.999c0,2.46,0.899,4.702,2.373,6.442
		c-1.429,1.84-2.287,4.144-2.287,6.653c0,5.983,4.836,10.836,10.813,10.865v0.003h1.188v-2h-0.721l-0.457-0.003
		c-4.864-0.023-8.822-4.001-8.822-8.865c0-4.89,3.978-8.868,8.867-8.868c0.15,0,0.299,0.012,0.447,0.022l0.148,0.01l1.314,0.085
		l0.597-1.175c2.225-4.372,6.644-7.089,11.532-7.089c6.062,0,11.382,4.298,12.649,10.219l0.318,1.483l1.514,0.094
		c3.708,0.23,6.612,3.319,6.612,7.03c0,3.878-3.144,7.035-7.017,7.057c-0.042-0.003-0.079-0.005-0.117-0.005l-0.047,0.005h-0.819v2
		h0.819v-0.006c0.042,0.001,0.082,0.006,0.124,0.006c5.001,0,9.057-4.054,9.057-9.057
		C467.192-260.166,463.438-264.088,458.704-264.383z M430.784-268c-0.241-0.016-0.48-0.036-0.725-0.036
		c-2.766,0-5.282,1.042-7.2,2.743c-1.092-1.367-1.753-3.09-1.753-4.971c0-4.41,3.589-7.999,8-7.999c3.091,0,5.76,1.773,7.091,4.345
		C433.899-272.479,432.02-270.43,430.784-268z"/>
</g>
<g>
	<polygon points="-274.718,-146.139 -281.601,-155.969 -283.238,-154.821 -276.355,-144.991 -275.243,-143.402 -271.768,-138.438 
		-270.129,-139.585 -273.604,-144.55 	"/>
	<polygon points="-266.716,-146.141 -273.601,-155.969 -275.238,-154.82 -268.353,-144.992 -267.348,-143.557 -263.764,-138.441 
		-262.125,-139.588 -265.709,-144.704 	"/>
	<polygon points="-282.718,-146.139 -289.601,-155.969 -291.238,-154.82 -284.355,-144.991 -283.171,-143.299 -279.767,-138.438 
		-278.129,-139.585 -281.532,-144.446 	"/>
	<path d="M-264.727-167.897c-1.444-6.742-7.433-11.8-14.605-11.8c-1.799,0-3.522,0.32-5.118,0.904
		c-0.949-5.108-5.404-8.98-10.788-8.98c-0.413,0-0.819,0.027-1.222,0.071c0.744,1.112,1.179,2.448,1.179,3.886c0,3.865-3.134,7-7,7
		c-1.438,0-2.773-0.435-3.886-1.179c-0.044,0.401-0.071,0.809-0.071,1.222c0,3.712,1.845,6.987,4.661,8.979
		c-1.653,1.907-2.661,4.389-2.661,7.111c0,5.983,4.836,10.836,10.813,10.865v0.003h1.188v-2h-0.721l-0.457-0.003
		c-4.864-0.023-8.822-4.001-8.822-8.865c0-4.89,3.978-8.868,8.867-8.868c0.15,0,0.299,0.012,0.447,0.022l0.148,0.01l1.314,0.085
		l0.597-1.175c2.225-4.372,6.644-7.089,11.532-7.089c6.062,0,11.382,4.298,12.649,10.219l0.318,1.483l1.514,0.094
		c3.708,0.23,6.612,3.319,6.612,7.03c0,3.878-3.144,7.035-7.017,7.057c-0.042-0.003-0.079-0.005-0.117-0.005l-0.047,0.005h-0.819v2
		h0.819v-0.006c0.042,0.001,0.082,0.006,0.124,0.006c5.001,0,9.057-4.054,9.057-9.057
		C-256.238-163.681-259.992-167.603-264.727-167.897z M-292.646-171.515c-0.241-0.016-0.48-0.036-0.725-0.036
		c-2.537,0-4.865,0.876-6.715,2.334c-2.012-1.294-3.487-3.354-3.976-5.776c0.582,0.117,1.178,0.177,1.78,0.177c4.963,0,9-4.037,9-9
		c0-0.603-0.06-1.198-0.177-1.78c3.733,0.753,6.629,3.824,7.133,7.641C-289.036-176.513-291.251-174.257-292.646-171.515z"/>
</g>
<g>
	<rect x="-282.238" y="-249.985" width="2" height="4"/>
	<rect x="-274.238" y="-254.007" width="2" height="4.021"/>
	<rect x="-290.238" y="-254.007" width="2" height="4.021"/>
	<path d="M-263.61-269.974c-1.596-7.445-8.207-13.029-16.127-13.029c-6.423,0-11.977,3.678-14.702,9.035
		c-0.266-0.018-0.53-0.04-0.8-0.04c-6.627,0-11.999,5.372-11.999,12c0,6.607,5.34,11.965,11.938,11.998v0.003h2.062v-2h-1.604
		l-0.447-0.003c-5.485-0.027-9.948-4.513-9.948-9.998c0-5.514,4.485-10,9.999-10c0.175,0,0.347,0.014,0.52,0.025l0.148,0.01
		l1.316,0.088l0.598-1.176c2.492-4.899,7.443-7.942,12.92-7.942c6.79,0,12.75,4.814,14.172,11.448l0.317,1.482l1.514,0.095
		c4.203,0.262,7.496,3.763,7.496,7.971c0,4.397-3.565,7.977-7.957,8c-0.05-0.003-0.093-0.005-0.137-0.007l-2.043,0.007h-2.863v2
		h4.863v-0.007c0.046,0.001,0.091,0.007,0.137,0.007c5.521,0,10-4.477,10-10C-254.238-265.317-258.383-269.648-263.61-269.974z"/>
	<circle cx="-273.238" cy="-244.965" r="1.5"/>
	<circle cx="-281.238" cy="-240.996" r="1.5"/>
	<circle cx="-289.238" cy="-245.007" r="1.5"/>
</g>
<g>
	<rect x="-189.317" y="-289.439" width="2" height="7.973"/>
	<rect x="-208.317" y="-270.525" width="7.973" height="2"/>
	<rect x="-203.644" y="-281.792" transform="matrix(0.7071 0.7071 -0.7071 0.7071 -257.0282 58.9369)" width="7.974" height="2"/>
	<rect x="-178.136" y="-284.774" transform="matrix(0.7071 0.7071 -0.7071 0.7071 -250.429 43.0129)" width="2" height="7.972"/>
	<path d="M-158.806-263.649c-1.444-6.742-7.433-11.8-14.605-11.8c-2.185,0-4.258,0.47-6.126,1.313
		c-1.667-3.202-5.007-5.394-8.866-5.394c-5.522,0-10,4.477-10,9.999c0,2.46,0.899,4.702,2.373,6.442
		c-1.429,1.84-2.287,4.144-2.287,6.653c0,5.983,4.836,10.836,10.813,10.865v0.003h1.188v-2h-0.721l-0.457-0.003
		c-4.864-0.023-8.822-4.001-8.822-8.865c0-4.89,3.978-8.868,8.867-8.868c0.15,0,0.299,0.012,0.447,0.022l0.148,0.01l1.314,0.085
		l0.597-1.175c2.225-4.372,6.644-7.089,11.532-7.089c6.062,0,11.382,4.298,12.649,10.219l0.318,1.483l1.514,0.094
		c3.708,0.23,6.612,3.319,6.612,7.03c0,3.878-3.144,7.035-7.017,7.057c-0.042-0.003-0.079-0.005-0.117-0.005l-2.047,0.005h-0.819v2
		h2.819v-0.006c0.042,0.001,0.082,0.006,0.124,0.006c5.001,0,9.057-4.054,9.057-9.057
		C-150.317-259.433-154.071-263.354-158.806-263.649z M-186.726-267.267c-0.241-0.016-0.48-0.036-0.725-0.036
		c-2.766,0-5.282,1.042-7.2,2.743c-1.092-1.367-1.753-3.09-1.753-4.971c0-4.41,3.589-7.999,8-7.999c3.091,0,5.76,1.773,7.091,4.345
		C-183.61-271.745-185.49-269.696-186.726-267.267z"/>
	<rect x="-175.317" y="-245.551" width="2" height="4"/>
	<rect x="-167.317" y="-249.572" width="2" height="4.021"/>
	<rect x="-183.317" y="-249.572" width="2" height="4.021"/>
	<circle cx="-166.317" cy="-240.53" r="1.5"/>
	<circle cx="-174.317" cy="-236.562" r="1.5"/>
	<circle cx="-182.317" cy="-240.572" r="1.5"/>
</g>
<g>
	<path d="M-57.88-264.606c-1.444-6.742-7.433-11.8-14.605-11.8c-1.799,0-3.522,0.32-5.118,0.904
		c-0.949-5.108-5.404-8.98-10.788-8.98c-0.413,0-0.819,0.027-1.222,0.071c0.744,1.112,1.179,2.448,1.179,3.886c0,3.865-3.134,7-7,7
		c-1.438,0-2.773-0.435-3.886-1.179c-0.044,0.401-0.071,0.809-0.071,1.222c0,3.712,1.845,6.987,4.661,8.979
		c-1.653,1.907-2.661,4.389-2.661,7.111c0,5.983,4.836,10.836,10.813,10.865v0.003h1.188v-2h-0.721l-0.457-0.003
		c-4.864-0.023-8.822-4.001-8.822-8.865c0-4.89,3.978-8.868,8.867-8.868c0.15,0,0.299,0.012,0.447,0.022l0.148,0.01l1.314,0.085
		l0.597-1.175c2.225-4.372,6.644-7.089,11.532-7.089c6.062,0,11.382,4.298,12.649,10.219l0.318,1.483l1.514,0.094
		c3.708,0.23,6.612,3.319,6.612,7.03c0,3.878-3.144,7.035-7.017,7.057c-0.042-0.003-0.079-0.005-0.117-0.005l-2.047,0.005h-0.819v2
		h2.819v-0.006c0.042,0.001,0.082,0.006,0.124,0.006c5.001,0,9.057-4.054,9.057-9.057C-49.392-260.39-53.146-264.312-57.88-264.606z
		 M-85.8-268.224c-0.241-0.016-0.48-0.036-0.725-0.036c-2.537,0-4.865,0.876-6.715,2.334c-2.012-1.294-3.487-3.354-3.976-5.776
		c0.582,0.117,1.178,0.177,1.78,0.177c4.963,0,9-4.037,9-9c0-0.603-0.06-1.198-0.177-1.78c3.733,0.753,6.629,3.824,7.133,7.641
		C-82.189-273.222-84.404-270.966-85.8-268.224z"/>
	<rect x="-74.392" y="-246.508" width="2" height="4"/>
	<rect x="-66.392" y="-250.529" width="2" height="4.021"/>
	<rect x="-82.392" y="-250.529" width="2" height="4.021"/>
	<circle cx="-65.392" cy="-241.487" r="1.5"/>
	<circle cx="-73.392" cy="-237.519" r="1.5"/>
	<circle cx="-81.392" cy="-241.529" r="1.5"/>
</g>
<g>
	<path d="M-161.189-171.576c-1.596-7.445-8.207-13.029-16.127-13.029c-6.423,0-11.977,3.678-14.702,9.035
		c-0.266-0.018-0.53-0.04-0.8-0.04c-6.627,0-11.999,5.372-11.999,12c0,6.607,5.34,11.965,11.938,11.998v0.003h6.062v-2h-5.604
		l-0.447-0.003c-5.485-0.027-9.948-4.513-9.948-9.998c0-5.514,4.485-10,9.999-10c0.175,0,0.347,0.014,0.52,0.025l0.148,0.01
		l1.316,0.088l0.598-1.176c2.492-4.899,7.443-7.942,12.92-7.942c6.79,0,12.75,4.814,14.172,11.448l0.317,1.482l1.514,0.095
		c4.203,0.262,7.496,3.763,7.496,7.971c0,4.397-3.565,7.977-7.957,8c-0.05-0.003-0.093-0.005-0.137-0.007l-5.043,0.007h0.137v2
		h4.863v-0.007c0.046,0.001,0.091,0.007,0.137,0.007c5.521,0,10-4.477,10-10C-151.817-166.92-155.962-171.251-161.189-171.576z"/>
	<polygon points="-176.976,-151.605 -175.206,-151.605 -174.775,-151.605 -172.766,-151.605 -179.18,-160.767 -180.817,-159.619 
		-176.606,-153.605 -178.377,-153.605 -180.817,-153.605 -179.546,-151.789 -178.434,-150.2 -172.456,-141.605 -170.817,-142.752 
		-176.795,-151.348 	"/>
</g>
<g>
	<rect x="-85.392" y="-190.706" width="2" height="7.973"/>
	<rect x="-104.392" y="-171.792" width="7.973" height="2"/>
	<rect x="-99.719" y="-183.058" transform="matrix(0.7071 0.7071 -0.7071 0.7071 -156.774 14.3686)" width="7.974" height="2"/>
	<rect x="-74.21" y="-186.04" transform="matrix(0.7071 0.7071 -0.7071 0.7071 -150.1748 -1.5553)" width="2" height="7.972"/>
	<path d="M-54.88-164.916c-1.444-6.742-7.433-11.8-14.605-11.8c-2.185,0-4.258,0.47-6.127,1.313
		c-1.666-3.202-5.006-5.394-8.865-5.394c-5.522,0-10,4.477-10,9.999c0,2.46,0.898,4.702,2.373,6.442
		c-1.428,1.84-2.287,4.144-2.287,6.653c0,5.983,4.836,10.836,10.813,10.865v0.003h4.188v-2h-3.721l-0.457-0.003
		c-4.864-0.023-8.822-4.001-8.822-8.865c0-4.89,3.978-8.868,8.867-8.868c0.15,0,0.299,0.012,0.447,0.022l0.148,0.01l1.314,0.085
		l0.597-1.175c2.225-4.372,6.644-7.089,11.532-7.089c6.062,0,11.382,4.298,12.649,10.219l0.318,1.483l1.514,0.094
		c3.708,0.23,6.612,3.319,6.612,7.03c0,3.878-3.144,7.035-7.017,7.057c-0.042-0.003-0.079-0.005-0.117-0.005l-2.047,0.005h-3.819v2
		h5.819v-0.006c0.042,0.001,0.082,0.006,0.124,0.006c5.001,0,9.057-4.054,9.057-9.057C-46.392-160.699-50.146-164.621-54.88-164.916
		z M-82.8-168.533c-0.241-0.016-0.48-0.036-0.725-0.036c-2.766,0-5.281,1.041-7.2,2.743c-1.092-1.366-1.753-3.09-1.753-4.971
		c0-4.41,3.589-7.999,8-7.999c3.092,0,5.76,1.773,7.092,4.345C-79.685-173.011-81.563-170.963-82.8-168.533z"/>
	<polygon points="-70.55,-146.826 -68.78,-146.826 -68.35,-146.826 -66.34,-146.826 -72.754,-155.987 -74.392,-154.84 
		-70.181,-148.826 -71.951,-148.826 -74.392,-148.826 -73.12,-147.01 -72.008,-145.421 -66.03,-136.826 -64.392,-137.973 
		-70.369,-146.568 	"/>
</g>
<g>
	<path d="M44.705-167.212c-1.444-6.742-7.433-11.8-14.605-11.8c-1.799,0-3.521,0.32-5.118,0.904
		c-0.949-5.108-5.404-8.98-10.788-8.98c-0.413,0-0.819,0.027-1.222,0.071c0.744,1.112,1.179,2.448,1.179,3.886c0,3.865-3.134,7-7,7
		c-1.438,0-2.773-0.435-3.886-1.179c-0.044,0.401-0.071,0.809-0.071,1.222c0,3.712,1.845,6.987,4.661,8.979
		c-1.653,1.907-2.661,4.389-2.661,7.111c0,5.983,4.836,10.836,10.813,10.865v0.003h4.188v-2h-3.721l-0.457-0.003
		c-4.864-0.023-8.822-4.001-8.822-8.865c0-4.89,3.978-8.868,8.867-8.868c0.15,0,0.299,0.012,0.447,0.022l0.148,0.01l1.314,0.085
		l0.597-1.175c2.225-4.372,6.644-7.089,11.532-7.089c6.062,0,11.382,4.298,12.649,10.219l0.318,1.483l1.514,0.094
		c3.708,0.23,6.612,3.319,6.612,7.03c0,3.878-3.144,7.035-7.017,7.057c-0.042-0.003-0.079-0.005-0.117-0.005l-2.047,0.005h-3.819v2
		h5.819v-0.006c0.042,0.001,0.082,0.006,0.124,0.006c5.001,0,9.057-4.054,9.057-9.057C53.193-162.995,49.439-166.917,44.705-167.212
		z M16.785-170.829c-0.241-0.016-0.48-0.036-0.725-0.036c-2.537,0-4.865,0.876-6.715,2.334c-2.012-1.294-3.486-3.354-3.976-5.776
		c0.582,0.117,1.178,0.177,1.78,0.177c4.963,0,9-4.037,9-9c0-0.603-0.06-1.198-0.177-1.78c3.733,0.753,6.629,3.824,7.134,7.64
		C20.395-175.827,18.18-173.572,16.785-170.829z"/>
	<polygon points="29.035,-149.122 30.805,-149.122 31.235,-149.122 33.245,-149.122 26.831,-158.283 25.193,-157.136 
		29.404,-151.122 27.634,-151.122 25.193,-151.122 26.465,-149.306 27.577,-147.717 33.555,-139.122 35.193,-140.269 
		29.216,-148.864 	"/>
</g>
<g>
	<path d="M145.59-171.076c-1.596-7.445-8.207-13.029-16.127-13.029c-6.423,0-11.977,3.678-14.702,9.035
		c-0.266-0.018-0.53-0.04-0.8-0.04c-6.627,0-11.999,5.372-11.999,12c0,6.607,5.34,11.965,11.938,11.998v0.003h1.062v-2h-0.604
		l-0.447-0.003c-5.485-0.027-9.948-4.513-9.948-9.998c0-5.514,4.485-10,9.999-10c0.175,0,0.347,0.014,0.52,0.025l0.148,0.01
		l1.316,0.088l0.598-1.176c2.492-4.899,7.443-7.942,12.92-7.942c6.79,0,12.75,4.814,14.172,11.448l0.317,1.482l1.514,0.095
		c4.203,0.262,7.496,3.763,7.496,7.971c0,4.397-3.565,7.977-7.957,8c-0.05-0.003-0.093-0.005-0.137-0.007l-0.906,0.007v2h0.863
		v-0.007c0.046,0.001,0.091,0.007,0.137,0.007c5.521,0,10-4.477,10-10C154.962-166.42,150.817-170.751,145.59-171.076z"/>
	
		<rect x="114.396" y="-153.111" transform="matrix(-0.5736 -0.8191 0.8191 -0.5736 313.4135 -141.0859)" width="11.183" height="1.999"/>
	
		<rect x="132.371" y="-153.111" transform="matrix(-0.5736 -0.8191 0.8191 -0.5736 341.699 -126.3627)" width="11.183" height="1.999"/>
	<polygon points="130.804,-148.105 132.573,-148.105 133.004,-148.105 135.014,-148.105 128.6,-157.267 126.962,-156.119 
		131.173,-150.105 129.402,-150.105 126.962,-150.105 128.233,-148.289 129.346,-146.7 133.962,-140.105 135.601,-141.252 
		130.984,-147.848 	"/>
</g>
<g>
	<rect x="220.438" y="-190.543" width="2" height="7.973"/>
	<rect x="201.438" y="-171.629" width="7.973" height="2"/>
	<rect x="206.111" y="-182.895" transform="matrix(0.7071 0.7071 -0.7071 0.7071 -67.0834 -201.8374)" width="7.974" height="2"/>
	<rect x="231.619" y="-185.877" transform="matrix(0.7071 0.7071 -0.7071 0.7071 -60.4842 -217.7614)" width="2" height="7.972"/>
	<path d="M250.949-164.753c-1.444-6.742-7.433-11.8-14.605-11.8c-2.185,0-4.258,0.47-6.126,1.313
		c-1.667-3.202-5.007-5.394-8.866-5.394c-5.522,0-10,4.477-10,9.999c0,2.46,0.899,4.702,2.373,6.442
		c-1.429,1.84-2.287,4.144-2.287,6.653c0,5.983,4.836,10.836,10.813,10.865v0.003h0.188v-2l-0.178-0.003
		c-4.864-0.023-8.822-4.001-8.822-8.865c0-4.89,3.978-8.868,8.867-8.868c0.15,0,0.299,0.012,0.447,0.022l0.148,0.01l1.314,0.085
		l0.597-1.175c2.225-4.372,6.644-7.089,11.532-7.089c6.062,0,11.382,4.298,12.649,10.219l0.318,1.483l1.514,0.094
		c3.708,0.23,6.612,3.319,6.612,7.03c0,3.878-3.144,7.035-7.017,7.057c-0.042-0.003-0.079-0.005-0.117-0.005l-0.866,0.005v2h0.819
		v-0.006c0.042,0.001,0.082,0.006,0.124,0.006c5.001,0,9.057-4.054,9.057-9.057C259.438-160.536,255.684-164.458,250.949-164.753z
		 M223.029-168.37c-0.241-0.016-0.48-0.036-0.725-0.036c-2.766,0-5.282,1.042-7.2,2.743c-1.092-1.367-1.753-3.09-1.753-4.971
		c0-4.41,3.589-7.999,8-7.999c3.091,0,5.76,1.773,7.091,4.345C226.145-172.849,224.265-170.8,223.029-168.37z"/>
	
		<rect x="220.859" y="-148.673" transform="matrix(-0.5736 -0.8191 0.8191 -0.5736 477.312 -46.8967)" width="11.183" height="1.999"/>
	
		<rect x="238.834" y="-148.673" transform="matrix(-0.5736 -0.8191 0.8191 -0.5736 505.5975 -32.1735)" width="11.183" height="1.999"/>
	<polygon points="237.267,-143.667 239.036,-143.667 239.467,-143.667 241.477,-143.667 235.063,-152.828 233.425,-151.681 
		237.636,-145.667 235.865,-145.667 233.425,-145.667 234.696,-143.851 235.809,-142.262 240.425,-135.667 242.063,-136.813 
		237.447,-143.409 	"/>
</g>
<g>
	<path d="M352.787-167.711c-1.444-6.742-7.433-11.8-14.605-11.8c-1.799,0-3.522,0.32-5.118,0.904
		c-0.949-5.108-5.404-8.98-10.788-8.98c-0.413,0-0.819,0.027-1.222,0.071c0.744,1.112,1.179,2.448,1.179,3.886c0,3.865-3.134,7-7,7
		c-1.438,0-2.773-0.435-3.886-1.179c-0.044,0.401-0.071,0.809-0.071,1.222c0,3.712,1.845,6.987,4.661,8.979
		c-1.653,1.907-2.661,4.389-2.661,7.111c0,5.983,4.836,10.836,10.813,10.865v0.003h0.188v-2l-0.178-0.003
		c-4.864-0.023-8.822-4.001-8.822-8.865c0-4.89,3.978-8.868,8.867-8.868c0.15,0,0.299,0.012,0.447,0.022l0.148,0.01l1.314,0.085
		l0.597-1.175c2.225-4.372,6.644-7.089,11.532-7.089c6.062,0,11.382,4.298,12.649,10.219l0.318,1.483l1.514,0.094
		c3.708,0.23,6.612,3.319,6.612,7.03c0,3.878-3.144,7.035-7.017,7.057c-0.042-0.003-0.079-0.005-0.117-0.005l-0.866,0.005v2h0.819
		v-0.006c0.042,0.001,0.082,0.006,0.124,0.006c5.001,0,9.057-4.054,9.057-9.057C361.275-163.494,357.521-167.416,352.787-167.711z
		 M324.867-171.328c-0.241-0.016-0.48-0.036-0.725-0.036c-2.537,0-4.865,0.876-6.715,2.334c-2.012-1.294-3.487-3.354-3.976-5.776
		c0.582,0.117,1.178,0.177,1.78,0.177c4.963,0,9-4.037,9-9c0-0.603-0.06-1.198-0.177-1.78c3.733,0.753,6.629,3.824,7.133,7.641
		C328.478-176.326,326.263-174.07,324.867-171.328z"/>
	
		<rect x="322.696" y="-151.631" transform="matrix(-0.5736 -0.8191 0.8191 -0.5736 639.9894 31.864)" width="11.183" height="1.999"/>
	
		<rect x="340.671" y="-151.631" transform="matrix(-0.5736 -0.8191 0.8191 -0.5736 668.2749 46.5872)" width="11.183" height="1.999"/>
	<polygon points="339.104,-146.625 340.873,-146.625 341.304,-146.625 343.313,-146.625 336.899,-155.786 335.262,-154.639 
		339.473,-148.625 337.702,-148.625 335.262,-148.625 336.533,-146.809 337.646,-145.22 342.262,-138.625 343.9,-139.771 
		339.284,-146.367 	"/>
</g>
<g>
	<g>
		<path d="M-57.775-81.256c-1.596-7.445-8.207-13.029-16.127-13.029c-6.423,0-11.977,3.678-14.702,9.035
			c-0.266-0.018-0.53-0.04-0.8-0.04c-6.627,0-11.999,5.372-11.999,12c0,6.607,5.34,11.965,11.938,11.998v0.003h2.062v-2h-1.604
			l-0.447-0.003c-5.485-0.027-9.948-4.513-9.948-9.998c0-5.514,4.485-10,9.999-10c0.175,0,0.347,0.014,0.52,0.025l0.148,0.01
			l1.316,0.088l0.598-1.176c2.492-4.899,7.443-7.942,12.92-7.942c6.79,0,12.75,4.814,14.172,11.448l0.317,1.482l1.514,0.095
			c4.203,0.262,7.496,3.763,7.496,7.971c0,4.397-3.565,7.977-7.957,8c-0.05-0.003-0.093-0.005-0.137-0.007l-2.043,0.007h-2.863v2
			h4.863v-0.007c0.046,0.001,0.091,0.007,0.137,0.007c5.521,0,10-4.477,10-10C-48.403-76.6-52.548-80.931-57.775-81.256z"/>
	</g>
	<g>
		<circle cx="-82.903" cy="-67.713" r="1.5"/>
	</g>
	<g>
		<circle cx="-78.903" cy="-61.789" r="1.5"/>
	</g>
	<g>
		<circle cx="-70.903" cy="-61.789" r="1.5"/>
	</g>
	<g>
		<circle cx="-74.903" cy="-67.713" r="1.5"/>
	</g>
	<g>
		<circle cx="-66.903" cy="-67.713" r="1.5"/>
	</g>
	<g>
		<circle cx="-82.903" cy="-55.768" r="1.5"/>
	</g>
	<g>
		<circle cx="-74.903" cy="-55.768" r="1.5"/>
	</g>
	<g>
		<circle cx="-66.903" cy="-55.768" r="1.5"/>
	</g>
</g>
<g>
	<g>
		<rect x="18.011" y="-96.733" width="2" height="7.973"/>
	</g>
	<g>
		<rect x="-0.989" y="-77.819" width="7.973" height="2"/>
	</g>
	<g>
		<rect x="3.684" y="-89.086" transform="matrix(0.7071 0.7071 -0.7071 0.7071 -60.0394 -31.2239)" width="7.974" height="2"/>
	</g>
	<g>
		<rect x="29.192" y="-92.068" transform="matrix(0.7071 0.7071 -0.7071 0.7071 -53.4403 -47.1479)" width="2" height="7.972"/>
	</g>
	<g>
		<path d="M48.522-70.943c-1.444-6.742-7.433-11.8-14.605-11.8c-2.185,0-4.258,0.47-6.127,1.313
			c-1.666-3.202-5.006-5.394-8.865-5.394c-5.522,0-10,4.477-10,9.999c0,2.46,0.898,4.702,2.373,6.442
			c-1.428,1.84-2.287,4.144-2.287,6.653c0,5.983,4.836,10.836,10.813,10.865v0.003h1.188v-2H20.29l-0.457-0.003
			c-4.864-0.023-8.822-4.001-8.822-8.865c0-4.89,3.978-8.868,8.867-8.868c0.15,0,0.299,0.012,0.447,0.022l0.148,0.01l1.314,0.085
			l0.597-1.175c2.225-4.372,6.644-7.089,11.532-7.089c6.062,0,11.382,4.298,12.649,10.219l0.318,1.483l1.514,0.094
			c3.708,0.23,6.612,3.319,6.612,7.03c0,3.878-3.144,7.035-7.017,7.057c-0.042-0.003-0.079-0.005-0.117-0.005L45.83-54.86h-1.819v2
			h3.819v-0.006c0.042,0.001,0.082,0.006,0.124,0.006c5.001,0,9.057-4.054,9.057-9.057C57.011-66.727,53.257-70.648,48.522-70.943z
			 M20.603-74.561c-0.241-0.016-0.48-0.036-0.725-0.036c-2.766,0-5.281,1.042-7.2,2.743c-1.092-1.367-1.753-3.09-1.753-4.971
			c0-4.41,3.589-7.999,8-7.999c3.092,0,5.76,1.773,7.092,4.345C23.718-79.039,21.839-76.99,20.603-74.561z"/>
	</g>
	<g>
		<circle cx="24.5" cy="-59.35" r="1.5"/>
	</g>
	<g>
		<circle cx="28.5" cy="-53.35" r="1.5"/>
	</g>
	<g>
		<circle cx="36.5" cy="-53.35" r="1.5"/>
	</g>
	<g>
		<circle cx="32.5" cy="-59.35" r="1.5"/>
	</g>
	<g>
		<circle cx="40.5" cy="-59.35" r="1.5"/>
	</g>
	<g>
		<circle cx="24.5" cy="-47.328" r="1.5"/>
	</g>
	<g>
		<circle cx="32.5" cy="-47.328" r="1.5"/>
	</g>
	<g>
		<circle cx="40.5" cy="-47.328" r="1.5"/>
	</g>
</g>
<g>
	<g>
		<path d="M144.474-74.899c-1.444-6.742-7.433-11.8-14.605-11.8c-1.799,0-3.521,0.32-5.118,0.904
			c-0.949-5.108-5.404-8.98-10.788-8.98c-0.413,0-0.819,0.027-1.222,0.071c0.744,1.112,1.179,2.448,1.179,3.886c0,3.865-3.134,7-7,7
			c-1.438,0-2.773-0.435-3.886-1.179c-0.044,0.401-0.071,0.809-0.071,1.222c0,3.712,1.845,6.987,4.661,8.979
			c-1.653,1.907-2.661,4.389-2.661,7.111c0,5.983,4.836,10.836,10.813,10.865v0.003h1.188v-2h-0.721l-0.457-0.003
			c-4.864-0.023-8.822-4.001-8.822-8.865c0-4.89,3.978-8.868,8.867-8.868c0.15,0,0.299,0.012,0.447,0.022l0.148,0.01l1.314,0.085
			l0.597-1.175c2.225-4.372,6.644-7.089,11.532-7.089c6.062,0,11.382,4.298,12.649,10.219l0.318,1.483l1.514,0.094
			c3.708,0.23,6.612,3.319,6.612,7.03c0,3.878-3.144,7.035-7.017,7.057c-0.042-0.003-0.079-0.005-0.117-0.005l-2.047,0.005h-1.819v2
			h3.819v-0.006c0.042,0.001,0.082,0.006,0.124,0.006c5.001,0,9.057-4.054,9.057-9.057
			C152.962-70.683,149.208-74.604,144.474-74.899z M116.554-78.517c-0.241-0.016-0.48-0.036-0.725-0.036
			c-2.537,0-4.865,0.876-6.715,2.334c-2.012-1.294-3.486-3.354-3.976-5.776c0.582,0.117,1.178,0.177,1.78,0.177c4.963,0,9-4.037,9-9
			c0-0.603-0.06-1.198-0.177-1.78c3.733,0.753,6.629,3.824,7.134,7.64C120.163-83.515,117.948-81.26,116.554-78.517z"/>
	</g>
	<g>
		<circle cx="120.462" cy="-63.307" r="1.5"/>
	</g>
	<g>
		<circle cx="124.462" cy="-57.307" r="1.5"/>
	</g>
	<g>
		<circle cx="132.462" cy="-57.307" r="1.5"/>
	</g>
	<g>
		<circle cx="128.462" cy="-63.307" r="1.5"/>
	</g>
	<g>
		<circle cx="136.462" cy="-63.307" r="1.5"/>
	</g>
	<g>
		<circle cx="120.462" cy="-51.285" r="1.5"/>
	</g>
	<g>
		<circle cx="128.462" cy="-51.285" r="1.5"/>
	</g>
	<g>
		<circle cx="136.462" cy="-51.285" r="1.5"/>
	</g>
</g>
<g>
	<path d="M455.639-173.785c-1.596-7.445-8.207-13.029-16.127-13.029c-6.423,0-11.977,3.678-14.702,9.035
		c-0.266-0.018-0.53-0.04-0.8-0.04c-6.627,0-11.999,5.372-11.999,12c0,6.607,5.34,11.965,11.938,11.998v0.003h2.062v-2h-1.604
		l-0.447-0.003c-5.485-0.027-9.948-4.513-9.948-9.998c0-5.514,4.485-10,9.999-10c0.175,0,0.347,0.014,0.52,0.025l0.148,0.01
		l1.316,0.088l0.598-1.176c2.492-4.899,7.443-7.942,12.92-7.942c6.79,0,12.75,4.814,14.172,11.448l0.317,1.482l1.514,0.095
		c4.203,0.262,7.496,3.763,7.496,7.971c0,4.397-3.565,7.977-7.957,8c-0.05-0.003-0.093-0.005-0.137-0.007l-2.043,0.007h-2.863v2
		h4.863v-0.007c0.046,0.001,0.091,0.007,0.137,0.007c5.521,0,10-4.477,10-10C465.011-169.129,460.866-173.46,455.639-173.785z"/>
	<circle cx="430.011" cy="-146.314" r="1.5"/>
	<circle cx="438.011" cy="-140.314" r="1.5"/>
	<circle cx="446.011" cy="-144.314" r="1.5"/>
	<rect x="429.011" y="-162.79" width="2" height="11.976"/>
	<polygon points="439.011,-144.85 439.011,-146.79 439.011,-158.79 437.011,-158.79 437.011,-146.79 437.011,-144.85 
		437.011,-144.814 439.011,-144.814 	"/>
	<polygon points="447.011,-149.037 447.011,-150.79 447.011,-162.79 445.011,-162.79 445.011,-150.79 445.011,-149.037 
		445.011,-148.814 447.011,-148.814 	"/>
</g>
<g>
	<rect x="-292.738" y="-102.172" width="2" height="7.973"/>
	<rect x="-311.738" y="-83.258" width="7.973" height="2"/>
	<rect x="-307.065" y="-94.524" transform="matrix(0.7071 0.7071 -0.7071 0.7071 -154.9013 186.9159)" width="7.974" height="2"/>
	<rect x="-281.557" y="-97.506" transform="matrix(0.7071 0.7071 -0.7071 0.7071 -148.3021 170.992)" width="2" height="7.972"/>
	<path d="M-262.227-76.382c-1.444-6.742-7.433-11.8-14.605-11.8c-2.185,0-4.258,0.47-6.126,1.313
		c-1.667-3.202-5.007-5.394-8.866-5.394c-5.522,0-10,4.477-10,9.999c0,2.46,0.899,4.702,2.373,6.442
		c-1.429,1.84-2.287,4.144-2.287,6.653c0,5.983,4.836,10.836,10.813,10.865v0.003h1.188v-2h-0.721l-0.457-0.003
		c-4.864-0.023-8.822-4.001-8.822-8.865c0-4.89,3.978-8.868,8.867-8.868c0.15,0,0.299,0.012,0.447,0.022l0.148,0.01l1.314,0.085
		l0.597-1.175c2.225-4.372,6.644-7.089,11.532-7.089c6.062,0,11.382,4.298,12.649,10.219l0.318,1.483l1.514,0.094
		c3.708,0.23,6.612,3.319,6.612,7.03c0,3.878-3.144,7.035-7.017,7.057c-0.042-0.003-0.079-0.005-0.117-0.005l-2.047,0.005h-0.819v2
		h2.819v-0.006c0.042,0.001,0.082,0.006,0.124,0.006c5.001,0,9.057-4.054,9.057-9.057
		C-253.738-72.165-257.492-76.087-262.227-76.382z M-290.146-79.999c-0.241-0.016-0.48-0.036-0.725-0.036
		c-2.766,0-5.282,1.041-7.2,2.743c-1.092-1.366-1.753-3.09-1.753-4.971c0-4.41,3.589-7.999,8-7.999c3.091,0,5.76,1.773,7.091,4.345
		C-287.031-84.477-288.911-82.429-290.146-79.999z"/>
	<circle cx="-285.748" cy="-49.812" r="1.5"/>
	<circle cx="-277.748" cy="-43.812" r="1.5"/>
	<circle cx="-269.748" cy="-47.812" r="1.5"/>
	<rect x="-286.748" y="-66.287" width="2" height="11.976"/>
	<polygon points="-276.748,-48.347 -276.748,-50.287 -276.748,-62.287 -278.748,-62.287 -278.748,-50.287 -278.748,-48.347 
		-278.748,-48.312 -276.748,-48.312 	"/>
	<polygon points="-268.748,-52.534 -268.748,-54.287 -268.748,-66.287 -270.748,-66.287 -270.748,-54.287 -270.748,-52.534 
		-270.748,-52.312 -268.748,-52.312 	"/>
</g>
<g>
	<path d="M-161.624-79.38c-1.444-6.742-7.433-11.8-14.605-11.8c-1.799,0-3.522,0.32-5.118,0.904
		c-0.949-5.108-5.404-8.98-10.788-8.98c-0.413,0-0.819,0.027-1.222,0.071c0.744,1.112,1.179,2.448,1.179,3.886c0,3.865-3.134,7-7,7
		c-1.438,0-2.773-0.435-3.886-1.179c-0.044,0.401-0.071,0.809-0.071,1.222c0,3.712,1.845,6.987,4.661,8.979
		c-1.653,1.907-2.661,4.389-2.661,7.111c0,5.983,4.836,10.836,10.813,10.865v0.003h1.188v-2h-0.721l-0.457-0.003
		c-4.864-0.023-8.822-4.001-8.822-8.865c0-4.89,3.978-8.868,8.867-8.868c0.15,0,0.299,0.012,0.447,0.022l0.148,0.01l1.314,0.085
		l0.597-1.175c2.225-4.372,6.644-7.089,11.532-7.089c6.062,0,11.382,4.298,12.649,10.219l0.318,1.483l1.514,0.094
		c3.708,0.23,6.612,3.319,6.612,7.03c0,3.878-3.144,7.035-7.017,7.057c-0.042-0.003-0.079-0.005-0.117-0.005l-2.047,0.005h-0.819v2
		h2.819v-0.006c0.042,0.001,0.082,0.006,0.124,0.006c5.001,0,9.057-4.054,9.057-9.057C-153.136-75.163-156.89-79.085-161.624-79.38z
		 M-189.544-82.997c-0.241-0.016-0.48-0.036-0.725-0.036c-2.537,0-4.865,0.876-6.715,2.334c-2.012-1.294-3.487-3.354-3.976-5.776
		c0.582,0.117,1.178,0.177,1.78,0.177c4.963,0,9-4.037,9-9c0-0.603-0.06-1.198-0.177-1.78c3.733,0.753,6.629,3.824,7.133,7.64
		C-185.934-87.995-188.148-85.74-189.544-82.997z"/>
	<circle cx="-185.136" cy="-52.806" r="1.5"/>
	<circle cx="-177.136" cy="-46.806" r="1.5"/>
	<circle cx="-169.136" cy="-50.806" r="1.5"/>
	<rect x="-186.136" y="-69.281" width="2" height="11.976"/>
	<polygon points="-176.136,-51.341 -176.136,-53.281 -176.136,-65.281 -178.136,-65.281 -178.136,-53.281 -178.136,-51.341 
		-178.136,-51.306 -176.136,-51.306 	"/>
	<polygon points="-168.136,-55.528 -168.136,-57.281 -168.136,-69.281 -170.136,-69.281 -170.136,-57.281 -170.136,-55.528 
		-170.136,-55.306 -168.136,-55.306 	"/>
</g>
<g>
	<rect x="-309.738" y="25.061" width="56" height="2"/>
	<rect x="-305.738" y="31.061" width="50" height="2"/>
	<rect x="-299.738" y="37.061" width="36" height="2"/>
	<rect x="-307.738" y="19.061" width="52" height="2"/>
	<path d="M-295.864,11.056c0.175,0,0.347,0.014,0.519,0.025l0.149,0.01l1.316,0.088l0.598-1.176
		c2.493-4.899,7.443-7.942,12.92-7.942c6.79,0,12.75,4.814,14.171,11.448l0.318,1.482l1.514,0.095
		c1.207,0.075,2.335,0.425,3.336,0.975h3.286c-1.678-1.703-3.957-2.813-6.498-2.971c-1.596-7.445-8.207-13.029-16.127-13.029
		c-6.423,0-11.977,3.678-14.702,9.035c-0.266-0.018-0.53-0.04-0.8-0.04c-4.843,0-9.004,2.874-10.9,7.005h2.251
		C-302.782,13.074-299.558,11.056-295.864,11.056z"/>
</g>
<g>
	<rect x="-188.636" y="-2.454" width="2" height="7.973"/>
	<rect x="-207.636" y="16.46" width="7.973" height="2"/>
	<rect x="-202.963" y="5.193" transform="matrix(0.7071 0.7071 -0.7071 0.7071 -53.8992 142.511)" width="7.974" height="2"/>
	<rect x="-177.454" y="2.212" transform="matrix(0.7071 0.7071 -0.7071 0.7071 -47.3001 126.587)" width="2" height="7.972"/>
	<rect x="-198.636" y="31.42" width="50" height="2"/>
	<rect x="-194.636" y="37.42" width="44" height="2"/>
	<rect x="-188.636" y="42.42" width="30" height="2"/>
	<rect x="-196.636" y="25.42" width="46" height="2"/>
	<path d="M-195.728,23.42h0.771h1.927h1.012c1.472-1.087,3.283-1.737,5.249-1.737c0.15,0,0.299,0.012,0.447,0.022l0.148,0.01
		l1.314,0.085l0.597-1.175c2.225-4.372,6.644-7.089,11.532-7.089c5.945,0,11.168,4.139,12.563,9.884h2.043v-0.084
		c-1.444-6.742-7.433-11.8-14.605-11.8c-2.185,0-4.258,0.47-6.126,1.313c-1.667-3.202-5.007-5.394-8.866-5.394
		c-5.522,0-10,4.477-10,9.999C-197.722,19.696-196.974,21.755-195.728,23.42z M-187.722,9.456c3.091,0,5.76,1.773,7.091,4.345
		c-2.298,1.44-4.178,3.488-5.413,5.918c-0.241-0.016-0.48-0.036-0.725-0.036c-2.764,0-5.274,1.045-7.189,2.745
		c-1.097-1.366-1.764-3.089-1.764-4.973C-195.722,13.045-192.133,9.456-187.722,9.456z"/>
</g>
<g>
	<rect x="-99.892" y="27.982" width="50" height="2"/>
	<rect x="-95.892" y="33.982" width="44" height="2"/>
	<rect x="-89.892" y="38.982" width="30" height="2"/>
	<rect x="-97.892" y="21.982" width="46" height="2"/>
	<path d="M-96.249,19.982h0.037h1.884h1.055c1.472-1.087,3.283-1.737,5.249-1.737c0.15,0,0.299,0.012,0.447,0.022l0.148,0.01
		l1.314,0.085l0.597-1.175c2.225-4.372,6.644-7.089,11.532-7.089c5.945,0,11.168,4.139,12.563,9.884h2.043v-0.084
		c-1.444-6.742-7.433-11.8-14.605-11.8c-1.799,0-3.521,0.32-5.117,0.903c-0.945-5.111-5.402-8.987-10.789-8.987
		c-0.413,0-0.819,0.027-1.222,0.071c0.744,1.112,1.179,2.448,1.179,3.886c0,3.865-3.134,7-7,7c-1.438,0-2.773-0.435-3.886-1.179
		c-0.044,0.401-0.071,0.809-0.071,1.222C-100.892,14.719-99.056,17.989-96.249,19.982z M-96.935,12.972c4.963,0,9-4.037,9-9
		c0-0.603-0.06-1.198-0.177-1.78c3.735,0.753,6.633,3.828,7.134,7.647c-2.712,1.443-4.927,3.699-6.322,6.442
		c-0.241-0.016-0.48-0.036-0.725-0.036c-2.534,0-4.855,0.879-6.701,2.335c-2.02-1.293-3.5-3.356-3.989-5.785
		C-98.133,12.912-97.537,12.972-96.935,12.972z"/>
</g>
<g>
	<path d="M32,30.996H12.526l-0.578-0.003C6.463,30.966,2,26.48,2,20.995c0-5.514,4.485-10,9.999-10c0.175,0,0.347,0.014,0.519,0.025
		l0.149,0.01l1.316,0.088l0.598-1.176C17.074,5.043,22.024,2,27.501,2c6.79,0,12.75,4.814,14.171,11.448l0.318,1.482l1.514,0.095
		c1.822,0.113,3.463,0.845,4.746,1.971h2.732c-1.707-2.262-4.348-3.78-7.354-3.967C42.032,5.584,35.421,0,27.501,0
		c-6.423,0-11.977,3.678-14.702,9.035c-0.266-0.018-0.53-0.04-0.8-0.04C5.372,8.995,0,14.367,0,20.995
		c0,6.607,5.34,11.965,11.938,11.998v0.003H32c2.205,0,4,1.794,4,4s-1.795,4-4,4v2c3.314,0,6-2.686,6-6
		C38,33.683,35.314,30.996,32,30.996z"/>
	<path d="M36,26.996H20.012v2H36c3.314,0,6-2.687,6-6c0-3.314-2.686-6-6-6v2c2.205,0,4,1.794,4,4S38.205,26.996,36,26.996z"/>
	<path d="M49,20.996c1.654,0,3,1.346,3,3s-1.346,3-3,3c-0.043,0-0.083-0.011-0.126-0.013h-4.862
		c0.003,0.005,0.009,0.008,0.012,0.013H44v2h5.5v-0.051c2.523-0.254,4.5-2.358,4.5-4.949c0-2.762-2.238-5-5-5V20.996z"/>
	<path d="M53,30.996H40v2h9.022c-0.004,0.005-0.008,0.008-0.011,0.013h3.862c0.043-0.002,0.083-0.013,0.126-0.013
		c1.654,0,3,1.346,3,3s-1.346,3-3,3v2c2.762,0,5-2.238,5-5S55.762,30.996,53,30.996z"/>
	<rect x="14" y="26.996" width="4" height="2"/>
</g>
<path d="M-175.562-368.107c6.95,1.305,12.226,7.419,12.226,14.742c0,8.272-6.729,15.002-15,15.002
	c-6.79,0-12.531-4.49-14.366-10.728c1.398,0.461,2.867,0.698,4.366,0.698c7.72,0,14-6.281,14-14.001
	C-174.336-364.378-174.76-366.322-175.562-368.107 M-178.336-370.364c-0.338,0-0.668,0.031-1,0.051c1.861,2.113,3,4.881,3,7.92
	c0,6.627-5.372,12.001-12,12.001c-2.599,0-4.998-0.835-6.963-2.239c0.387,9.047,7.821,16.269,16.963,16.269
	c9.39,0,17-7.612,17-17.002S-168.946-370.364-178.336-370.364L-178.336-370.364z"/>
<g>
	<path d="M-281.731-365.369c-7.18,0-13,5.819-13,12.999c0,7.181,5.82,13.002,13,13.002s13-5.821,13-13.002
		C-268.731-359.55-274.552-365.369-281.731-365.369z M-281.731-341.368c-6.065,0-11-4.936-11-11.002c0-6.064,4.935-10.999,11-10.999
		s11,4.935,11,10.999C-270.731-346.304-275.666-341.368-281.731-341.368z"/>
	<rect x="-282.738" y="-378.363" width="2" height="10"/>
	<rect x="-282.738" y="-336.363" width="2" height="10"/>
	<rect x="-307.731" y="-353.363" width="9.993" height="2"/>
	<rect x="-265.738" y="-353.363" width="10.007" height="2"/>
	<rect x="-268.038" y="-372.277" transform="matrix(0.7071 0.7071 -0.7071 0.7071 -337.7734 81.3116)" width="2" height="10.409"/>
	
		<rect x="-297.447" y="-342.868" transform="matrix(-0.7071 -0.7071 0.7071 -0.7071 -267.3029 -786.0477)" width="2" height="10.41"/>
	<rect x="-301.647" y="-368.068" transform="matrix(0.7071 0.7071 -0.7071 0.7071 -346.3823 102.1051)" width="10.409" height="2"/>
	
		<rect x="-272.239" y="-338.659" transform="matrix(-0.7072 -0.7071 0.7071 -0.7072 -217.1234 -765.2444)" width="10.41" height="2"/>
</g>
<g>
	<rect x="116.435" y="-7.502" width="2" height="7.973"/>
	<rect x="97.462" y="11.484" width="7.973" height="2"/>
	<rect x="102.188" y="0.266" transform="matrix(0.7071 0.7071 -0.7071 0.7071 31.9928 -74.7062)" width="7.974" height="2"/>
	<rect x="127.696" y="-2.716" transform="matrix(0.7071 0.7071 -0.7071 0.7071 38.592 -90.6302)" width="2" height="7.972"/>
	<path d="M131.462,34.498l0.005-0.007h-12.536l-0.594-0.003c-4.864-0.024-8.822-4.001-8.822-8.865c0-4.89,3.978-8.868,8.867-8.868
		c0.15,0,0.299,0.012,0.447,0.021l0.148,0.011l1.314,0.085l0.597-1.174c2.225-4.373,6.644-7.09,11.532-7.09
		c5.916,0,11.114,4.099,12.54,9.8h2.065c-1.444-6.742-7.433-11.8-14.605-11.8c-2.185,0-4.258,0.47-6.126,1.313
		c-1.667-3.202-5.007-5.394-8.866-5.394c-5.522,0-10,4.477-10,9.999c0,2.46,0.899,4.702,2.373,6.442
		c-1.429,1.84-2.287,4.144-2.287,6.653c0,5.983,4.836,10.836,10.813,10.865v0.003h13.135v0.007c2.205,0,4,1.794,4,4s-1.795,4-4,4v2
		c3.314,0,6-2.686,6-6C137.462,37.185,134.776,34.498,131.462,34.498z M117.429,4.528c3.091,0,5.76,1.773,7.091,4.345
		c-2.298,1.439-4.178,3.488-5.413,5.918c-0.241-0.016-0.48-0.036-0.725-0.036c-2.766,0-5.282,1.042-7.2,2.743
		c-1.092-1.367-1.753-3.09-1.753-4.971C109.429,8.117,113.018,4.528,117.429,4.528z"/>
	<path d="M135.462,30.498h-9.988v2h9.988c3.314,0,6-2.687,6-6c0-3.314-2.686-6-6-6v2c2.205,0,4,1.794,4,4
		S137.667,30.498,135.462,30.498z"/>
	<path d="M143.485,30.498h-0.023v2h5.5v-0.051c2.523-0.254,4.5-2.358,4.5-4.949c0-2.762-2.238-5-5-5v2c1.654,0,3,1.346,3,3
		s-1.346,3-3,3c-0.043,0-0.083-0.011-0.126-0.013h-4.862C143.477,30.49,143.482,30.494,143.485,30.498z"/>
	<path d="M152.462,34.498h-13v2h9.022c-0.004,0.004-0.008,0.008-0.011,0.013h3.862c0.043-0.002,0.083-0.013,0.126-0.013
		c1.654,0,3,1.346,3,3s-1.346,3-3,3v2c2.762,0,5-2.238,5-5S155.224,34.498,152.462,34.498z"/>
	<rect x="119.462" y="30.498" width="4" height="2"/>
</g>
<g>
	<path d="M231.424,32.492l0.005-0.007h-12.536l-0.594-0.003c-4.864-0.024-8.822-4.001-8.822-8.865c0-4.89,3.978-8.868,8.867-8.868
		c0.15,0,0.299,0.012,0.447,0.021l0.148,0.011l1.314,0.085l0.597-1.174c2.225-4.373,6.644-7.09,11.532-7.09
		c5.916,0,11.114,4.099,12.54,9.8h2.065c-1.444-6.742-7.433-11.8-14.605-11.8c-1.806,0-3.536,0.322-5.138,0.91
		c-0.938-5.123-5.4-9.01-10.794-9.01c-0.413,0-0.819,0.027-1.222,0.071c0.744,1.112,1.179,2.448,1.179,3.886c0,3.865-3.134,7-7,7
		c-1.438,0-2.773-0.435-3.886-1.179c-0.044,0.401-0.071,0.809-0.071,1.222c0,3.725,1.858,7.009,4.69,8.998
		c-1.655,1.907-2.665,4.392-2.665,7.116c0,5.983,4.836,10.836,10.813,10.865v0.003h13.135v0.007c2.205,0,4,1.794,4,4s-1.795,4-4,4v2
		c3.314,0,6-2.686,6-6C237.424,35.179,234.738,32.492,231.424,32.492z M207.628,9.283c0.582,0.117,1.178,0.177,1.78,0.177
		c4.963,0,9-4.037,9-9c0-0.603-0.06-1.198-0.177-1.78c3.744,0.755,6.646,3.842,7.138,7.674c-2.702,1.444-4.909,3.696-6.301,6.432
		c-0.241-0.016-0.48-0.036-0.725-0.036c-2.535,0-4.861,0.875-6.71,2.33C209.605,13.787,208.119,11.719,207.628,9.283z"/>
	<path d="M235.424,28.492h-9.988v2h9.988c3.314,0,6-2.687,6-6c0-3.314-2.686-6-6-6v2c2.205,0,4,1.794,4,4
		S237.629,28.492,235.424,28.492z"/>
	<path d="M243.447,28.492h-0.023v2h5.5v-0.051c2.523-0.254,4.5-2.358,4.5-4.949c0-2.762-2.238-5-5-5v2c1.654,0,3,1.346,3,3
		s-1.346,3-3,3c-0.043,0-0.083-0.011-0.126-0.013h-4.862C243.438,28.484,243.444,28.488,243.447,28.492z"/>
	<path d="M252.424,32.492h-13v2h9.022c-0.004,0.004-0.008,0.008-0.011,0.013h3.862c0.043-0.002,0.083-0.013,0.126-0.013
		c1.654,0,3,1.346,3,3s-1.346,3-3,3v2c2.762,0,5-2.238,5-5S255.186,32.492,252.424,32.492z"/>
	<rect x="219.424" y="28.492" width="4" height="2"/>
</g>
<g>
	<rect x="332.316" y="-4.939" width="2" height="10"/>
	<rect x="307.323" y="20.061" width="9.993" height="2"/>
	<rect x="347.016" y="1.147" transform="matrix(0.7071 0.7071 -0.7071 0.7071 106.4225 -244.2244)" width="2" height="10.409"/>
	<rect x="313.407" y="5.356" transform="matrix(0.7071 0.7071 -0.7071 0.7071 97.8136 -223.431)" width="10.409" height="2"/>
	<path d="M337.316,35.061h-24v2h24c2.205,0,4,1.794,4,4s-1.795,4-4,4v2c3.314,0,6-2.686,6-6
		C343.316,37.747,340.631,35.061,337.316,35.061z"/>
	<path d="M349.34,31.061h-0.023v2h5.5V33.01c2.523-0.254,4.5-2.358,4.5-4.949c0-2.762-2.238-5-5-5v2c1.654,0,3,1.346,3,3
		s-1.346,3-3,3c-0.043,0-0.083-0.011-0.126-0.013h-4.862C349.331,31.053,349.337,31.057,349.34,31.061z"/>
	<path d="M358.316,35.061h-13v2h9.022c-0.004,0.004-0.008,0.008-0.011,0.013h3.862c0.043-0.002,0.083-0.013,0.126-0.013
		c1.654,0,3,1.346,3,3s-1.346,3-3,3v2c2.762,0,5-2.238,5-5S361.078,35.061,358.316,35.061z"/>
	<path d="M325.025,31.061h-11.709v2h12.012h0.822h15.166c3.314,0,6-2.687,6-6c0-3.314-2.686-6-6-6v2c2.205,0,4,1.794,4,4
		s-1.795,4-4,4h-12.538c-3.802-1.734-6.455-5.563-6.455-10.007c0-6.064,4.935-10.999,11-10.999c5.384,0,9.868,3.891,10.81,9.006
		h2.021c-0.961-6.23-6.331-11.006-12.831-11.006c-7.18,0-13,5.819-13,12.999C320.323,25.079,322.153,28.676,325.025,31.061z"/>
</g>
<g>
	<path d="M437.543,28.504h-24v2h24c2.205,0,4,1.794,4,4s-1.795,4-4,4v2c3.314,0,6-2.686,6-6
		C443.543,31.19,440.857,28.504,437.543,28.504z"/>
	<path d="M455.043,26.504v-0.051c2.523-0.254,4.5-2.358,4.5-4.949c0-2.762-2.238-5-5-5v2c1.654,0,3,1.346,3,3s-1.346,3-3,3
		c-0.043,0-0.083-0.011-0.126-0.013h-4.862c0.004,0.005,0.009,0.009,0.012,0.013h-0.023v2H455.043z"/>
	<path d="M458.543,28.504h-13v2h9.022c-0.003,0.004-0.007,0.008-0.011,0.013h3.862c0.043-0.002,0.083-0.013,0.126-0.013
		c1.654,0,3,1.346,3,3s-1.346,3-3,3v2c2.762,0,5-2.238,5-5S461.305,28.504,458.543,28.504z"/>
	<path d="M426.377,26.504h15.166c3.314,0,6-2.687,6-6c0-3.314-2.686-6-6-6v2c2.205,0,4,1.794,4,4s-1.795,4-4,4h-12.586
		c-2.596-1.188-4.658-3.339-5.69-6.034c0.849,0.204,1.724,0.309,2.612,0.309c6.168,0,11.187-5.019,11.187-11.188
		c0-1.276-0.22-2.532-0.64-3.717c4.046,1.102,7.168,4.459,7.937,8.63h2.018c-0.964-6.237-6.338-11.016-12.846-11.016
		c-0.259,0-0.511,0.024-0.766,0.039c1.425,1.618,2.297,3.737,2.297,6.063c0,5.072-4.112,9.188-9.187,9.188
		c-1.988,0-3.826-0.641-5.33-1.715c0.162,3.801,1.962,7.165,4.699,9.44h-11.705v2h12.012H426.377z"/>
</g>
<g>
	<path d="M-282.238,113.697h-20c-1.103,0-2-0.897-2-2s0.897-2,2-2h3.445h0.555v-2h-4c-2.209,0-4,1.791-4,4s1.791,4,4,4h20
		c2.205,0,4,1.794,4,4s-1.795,4-4,4v2c3.314,0,6-2.686,6-6C-276.238,116.384-278.924,113.697-282.238,113.697z"/>
	<path d="M-280.238,97.697v2c2.205,0,4,1.794,4,4s-1.795,4-4,4h-15.988v2h15.988c3.314,0,6-2.687,6-6
		C-274.238,100.383-276.924,97.697-280.238,97.697z"/>
	<path d="M-274.238,109.697v2h5.5v-0.051c2.523-0.254,4.5-2.358,4.5-4.949c0-2.762-2.238-5-5-5v2c1.654,0,3,1.346,3,3s-1.346,3-3,3
		c-0.043,0-0.083-0.011-0.126-0.013h-4.862c0.003,0.005,0.009,0.009,0.012,0.013H-274.238z"/>
	<path d="M-263.238,113.697h-11v2h7.022c-0.004,0.004-0.008,0.008-0.011,0.013h3.862c0.043-0.002,0.083-0.013,0.126-0.013
		c1.654,0,3,1.346,3,3s-1.346,3-3,3v2c2.762,0,5-2.238,5-5S-260.477,113.697-263.238,113.697z"/>
</g>
<path d="M254.054,100.044v-0.038h-38.376c-1.103,0-2-0.897-2-2s0.897-2,2-2h33c2.762,0,5-2.238,5-5s-2.238-5-5-5h-37.875v0.008
	c-0.042-0.001-0.083-0.008-0.125-0.008c-2.762,0-5,2.238-5,5s2.238,5,5,5v-2c-1.654,0-3-1.346-3-3s1.346-3,3-3h0.125h3.853h34.022
	c1.654,0,3,1.346,3,3s-1.346,3-3,3h-33c-2.209,0-4,1.791-4,4s1.791,4,4,4h38c1.103,0,2,0.897,2,2s-0.897,2-2,2h-32
	c-2.209,0-4,1.791-4,4s1.791,4,4,4h22c1.103,0,2,0.897,2,2s-0.897,2-2,2h-24.01v0.001c-2.204,0.006-3.99,1.793-3.99,3.999
	s1.786,3.993,3.99,3.999v0.001h12.01c1.103,0,2,0.897,2,2s-0.897,2-2,2h-2c-2.209,0-4,1.791-4,4s1.791,4,4,4v-2
	c-1.103,0-2-0.897-2-2s0.897-2,2-2h2c2.209,0,4-1.791,4-4s-1.791-4-4-4h-12c-1.103,0-2-0.897-2-2s0.897-2,2-2h24
	c2.209,0,4-1.791,4-4c0-2.152-1.704-3.895-3.834-3.983v-0.017h-22.166c-1.103,0-2-0.897-2-2s0.897-2,2-2h32c2.209,0,4-1.791,4-4
	C257.678,101.926,256.084,100.236,254.054,100.044z"/>
<path d="M439.469,90.722v-2.024h-2v2.024c-13.01,0.513-23.462,10.965-23.975,23.976h1.674c1.14-1.222,2.748-2,4.551-2
	c2.26,0,4.233,1.203,5.331,3h1.838c1.098-1.797,3.071-3,5.331-3c2.204,0,4.137,1.144,5.25,2.866v15.134c0,2.21,1.791,4,4,4
	s4-1.79,4-4h-2c0,1.103-0.897,2-2,2s-2-0.897-2-2v-15.134c1.113-1.723,3.046-2.866,5.25-2.866c2.26,0,4.233,1.203,5.331,3h1.838
	c1.098-1.797,3.071-3,5.331-3c1.803,0,3.411,0.778,4.551,2h1.674C462.931,101.687,452.479,91.234,439.469,90.722z M457.219,110.697
	c-2.496,0-4.736,1.114-6.25,2.87c-1.514-1.756-3.754-2.87-6.25-2.87s-4.736,1.114-6.25,2.87c-1.514-1.756-3.754-2.87-6.25-2.87
	s-4.736,1.114-6.25,2.87c-1.514-1.756-3.755-2.87-6.25-2.87c-1.402,0-2.731,0.351-3.897,0.975
	c1.909-10.769,11.339-18.975,22.647-18.975s20.738,8.206,22.647,18.975C459.95,111.048,458.621,110.697,457.219,110.697z"/>
<g>
	<path d="M34.174,215.01v-17.105c0-2.762-2.238-5-5-5s-5,2.238-5,5v17.105c-1.236,1.263-2,2.988-2,4.895c0,3.866,3.134,7,7,7
		s7-3.134,7-7C36.174,217.998,35.41,216.272,34.174,215.01z M29.174,224.904c-2.757,0-5-2.243-5-5c0-1.313,0.508-2.554,1.429-3.495
		l0.571-0.583v-0.816v-17.105c0-1.654,1.346-3,3-3s3,1.346,3,3v17.105v0.816l0.571,0.583c0.921,0.941,1.429,2.183,1.429,3.495
		C34.174,222.661,31.931,224.904,29.174,224.904z"/>
	<path d="M30.174,217.08v-15.176h-2v15.176c-1.167,0.413-2.008,1.516-2.008,2.824c0,1.662,1.347,3.008,3.008,3.008
		c1.662,0,3.008-1.346,3.008-3.008C32.182,218.596,31.342,217.493,30.174,217.08z M29.174,220.912c-0.556,0-1.008-0.452-1.008-1.008
		s0.452-1.008,1.008-1.008s1.008,0.452,1.008,1.008S29.729,220.912,29.174,220.912z"/>
</g>
<g>
	<path d="M133.962,215.01v-17.105c0-2.762-2.238-5-5-5s-5,2.238-5,5v17.105c-1.236,1.263-2,2.988-2,4.895c0,3.866,3.134,7,7,7
		s7-3.134,7-7C135.962,217.998,135.198,216.272,133.962,215.01z M128.962,224.904c-2.757,0-5-2.243-5-5
		c0-1.313,0.508-2.554,1.429-3.495l0.571-0.583v-0.816v-17.105c0-1.654,1.346-3,3-3s3,1.346,3,3v17.105v0.816l0.571,0.583
		c0.921,0.941,1.429,2.183,1.429,3.495C133.962,222.661,131.719,224.904,128.962,224.904z"/>
	<path d="M129.962,217.08v-20.176h-2v20.176c-1.167,0.413-2.008,1.516-2.008,2.824c0,1.662,1.347,3.008,3.008,3.008
		c1.662,0,3.008-1.346,3.008-3.008C131.97,218.596,131.13,217.493,129.962,217.08z M128.962,220.912
		c-0.556,0-1.008-0.452-1.008-1.008s0.452-1.008,1.008-1.008s1.008,0.452,1.008,1.008S129.518,220.912,128.962,220.912z"/>
</g>
<g>
	<path d="M-68.936,215.01v-17.105c0-2.762-2.238-5-5-5s-5,2.238-5,5v17.105c-1.236,1.263-2,2.988-2,4.895c0,3.866,3.134,7,7,7
		s7-3.134,7-7C-66.936,217.998-67.699,216.272-68.936,215.01z M-73.936,224.904c-2.757,0-5-2.243-5-5
		c0-1.313,0.508-2.554,1.429-3.495l0.571-0.583v-0.816v-17.105c0-1.654,1.346-3,3-3s3,1.346,3,3v17.105v0.816l0.571,0.583
		c0.921,0.941,1.429,2.183,1.429,3.495C-68.936,222.661-71.179,224.904-73.936,224.904z"/>
	<path d="M-72.936,217.08v-10.176h-2v10.176c-1.167,0.413-2.008,1.516-2.008,2.824c0,1.662,1.347,3.008,3.008,3.008
		c1.662,0,3.008-1.346,3.008-3.008C-70.928,218.596-71.768,217.493-72.936,217.08z M-73.936,220.912
		c-0.556,0-1.008-0.452-1.008-1.008s0.452-1.008,1.008-1.008s1.008,0.452,1.008,1.008S-73.38,220.912-73.936,220.912z"/>
</g>
<g>
	<path d="M-172.581,215.01v-17.105c0-2.762-2.238-5-5-5s-5,2.238-5,5v17.105c-1.236,1.263-2,2.988-2,4.895c0,3.866,3.134,7,7,7
		s7-3.134,7-7C-170.581,217.998-171.345,216.272-172.581,215.01z M-177.581,224.904c-2.757,0-5-2.243-5-5
		c0-1.313,0.508-2.554,1.429-3.495l0.571-0.583v-0.816v-17.105c0-1.654,1.346-3,3-3s3,1.346,3,3v17.105v0.816l0.571,0.583
		c0.921,0.941,1.429,2.183,1.429,3.495C-172.581,222.661-174.824,224.904-177.581,224.904z"/>
	<path d="M-176.581,217.08v-5.176h-2v5.176c-1.167,0.413-2.008,1.516-2.008,2.824c0,1.662,1.347,3.008,3.008,3.008
		c1.662,0,3.008-1.346,3.008-3.008C-174.573,218.596-175.413,217.493-176.581,217.08z M-177.581,220.912
		c-0.556,0-1.008-0.452-1.008-1.008s0.452-1.008,1.008-1.008s1.008,0.452,1.008,1.008S-177.025,220.912-177.581,220.912z"/>
</g>
<g>
	<path d="M-277.238,215.01v-17.105c0-2.762-2.238-5-5-5s-5,2.238-5,5v17.105c-1.236,1.263-2,2.988-2,4.895c0,3.866,3.134,7,7,7
		s7-3.134,7-7C-275.238,217.998-276.002,216.272-277.238,215.01z M-282.238,224.904c-2.757,0-5-2.243-5-5
		c0-1.313,0.508-2.554,1.429-3.495l0.571-0.583v-0.816v-17.105c0-1.654,1.346-3,3-3s3,1.346,3,3v17.105v0.816l0.571,0.583
		c0.921,0.941,1.429,2.183,1.429,3.495C-277.238,222.661-279.481,224.904-282.238,224.904z"/>
	<path d="M-282.238,216.896c-1.661,0-3.008,1.347-3.008,3.008c0,1.662,1.347,3.008,3.008,3.008c1.662,0,3.008-1.346,3.008-3.008
		C-279.23,218.243-280.576,216.896-282.238,216.896z M-282.238,220.912c-0.556,0-1.008-0.452-1.008-1.008s0.452-1.008,1.008-1.008
		s1.008,0.452,1.008,1.008S-281.683,220.912-282.238,220.912z"/>
</g>
<g>
	<path d="M222.687,195.217c-2.209,0-4,1.791-4,4c0,2.21,1.791,4,4,4c2.211,0,4-1.79,4-4
		C226.687,197.008,224.897,195.217,222.687,195.217z M222.687,201.217c-1.103,0-2-0.897-2-2s0.897-2,2-2s2,0.897,2,2
		S223.789,201.217,222.687,201.217z"/>
	<path d="M236.687,223.217c-4.41,0-7.999-3.589-7.999-7.999v-4.002c0-4.41,3.589-7.999,7.999-7.999c2.715,0,5.115,1.362,6.563,3.437
		l1.43-1.43c-1.824-2.429-4.72-4.007-7.992-4.007c-5.522,0-9.999,4.478-9.999,9.999v4.002c0,5.521,4.477,9.999,9.999,9.999
		c3.272,0,6.168-1.579,7.992-4.008l-1.43-1.43C241.803,221.854,239.402,223.217,236.687,223.217z"/>
</g>
<g>
	<path d="M327.383,195.096c-2.209,0-4,1.791-4,4c0,2.21,1.791,4,4,4c2.211,0,4-1.79,4-4
		C331.383,196.887,329.594,195.096,327.383,195.096z M327.383,201.096c-1.103,0-2-0.897-2-2s0.897-2,2-2s2,0.897,2,2
		S328.485,201.096,327.383,201.096z"/>
	<polygon points="347.258,203.217 347.258,201.217 335.258,201.217 333.258,201.217 333.258,225.217 335.258,225.217 
		335.258,213.217 343.258,213.217 343.258,211.217 335.258,211.217 335.258,203.217 	"/>
</g>
<g>
	<path d="M438.469,198.908c-7.179,0-13,5.82-13,13s5.821,13,13,13s13-5.82,13-13S445.647,198.908,438.469,198.908z M438.469,222.908
		c-6.065,0-11-4.935-11-11s4.935-11,11-11s11,4.935,11,11S444.534,222.908,438.469,222.908z"/>
	<path d="M434.202,216.15l6.363-2.121l2.121-6.364l-6.363,2.122L434.202,216.15z M437.904,211.368l1.62-0.54l-0.54,1.62l-1.62,0.54
		L437.904,211.368z"/>
</g>
<g>
	<path d="M-282.238,289.426c-7.179,0-13,5.82-13,13s5.821,13,13,13s13-5.82,13-13S-275.06,289.426-282.238,289.426z
		 M-282.238,313.426c-6.065,0-11-4.934-11-11c0-6.064,4.935-11,11-11s11,4.936,11,11
		C-271.238,308.492-276.173,313.426-282.238,313.426z"/>
	<path d="M-279.677,300.848l-2.586-4.422l-2.529,4.33h0.007c-0.299,0.467-0.478,1.018-0.478,1.613c0,1.656,1.343,3,3,3s3-1.344,3-3
		c0-0.559-0.162-1.074-0.428-1.521H-279.677z M-282.263,303.369c-0.552,0-1-0.449-1-1c0-0.188,0.055-0.367,0.162-0.535l0.864-1.355
		l0.826,1.391c0.098,0.164,0.147,0.332,0.147,0.5C-281.263,302.92-281.711,303.369-282.263,303.369z"/>
</g>
<g>
	<path d="M-177.454,289.426c-7.18,0-13,5.82-13,13s5.82,13,13,13s13-5.82,13-13S-170.274,289.426-177.454,289.426z
		 M-177.454,313.426c-6.065,0-11-4.934-11-11c0-6.064,4.935-11,11-11s11,4.936,11,11
		C-166.454,308.492-171.389,313.426-177.454,313.426z"/>
	<path d="M-175.865,299.846c-0.467-0.299-1.018-0.477-1.613-0.477c-1.658,0-3,1.342-3,3c0,1.656,1.342,3,3,3
		c0.557,0,1.072-0.162,1.52-0.428v0.014l4.422-2.586l-4.328-2.529V299.846z M-176.98,303.221c-0.164,0.098-0.332,0.148-0.498,0.148
		c-0.552,0-1-0.449-1-1c0-0.553,0.448-1,1-1c0.188,0,0.368,0.053,0.535,0.16l1.355,0.865L-176.98,303.221z"/>
</g>
<g>
	<path d="M-74.403,289.426c-7.18,0-13,5.82-13,13s5.82,13,13,13s13-5.82,13-13S-67.224,289.426-74.403,289.426z M-74.403,313.426
		c-6.065,0-11-4.934-11-11c0-6.064,4.935-11,11-11s11,4.936,11,11C-63.403,308.492-68.338,313.426-74.403,313.426z"/>
	<path d="M-74.403,299.369c-1.656,0-3,1.342-3,3c0,0.557,0.162,1.072,0.428,1.52h-0.014l2.586,4.422l2.529-4.328h-0.006
		c0.299-0.467,0.477-1.018,0.477-1.613C-71.403,300.711-72.745,299.369-74.403,299.369z M-73.564,302.904l-0.865,1.355l-0.826-1.393
		c-0.098-0.164-0.147-0.332-0.147-0.498c0-0.553,0.448-1,1-1s1,0.447,1,1C-73.403,302.557-73.457,302.736-73.564,302.904z"/>
</g>
<g>
	<path d="M29.011,289.426c-7.179,0-13,5.82-13,13s5.821,13,13,13s13-5.82,13-13S36.189,289.426,29.011,289.426z M29.011,313.426
		c-6.065,0-11-4.934-11-11c0-6.064,4.935-11,11-11s11,4.936,11,11C40.011,308.492,35.076,313.426,29.011,313.426z"/>
	<path d="M28.97,299.369c-0.557,0-1.072,0.162-1.52,0.428v-0.014l-4.422,2.586l4.328,2.529v-0.006
		c0.467,0.299,1.018,0.477,1.613,0.477c1.658,0,3-1.342,3-3C31.97,300.713,30.628,299.369,28.97,299.369z M28.97,303.369
		c-0.188,0-0.368-0.055-0.535-0.162l-1.355-0.865l1.393-0.826c0.164-0.098,0.332-0.146,0.498-0.146c0.552,0,1,0.447,1,1
		C29.97,302.92,29.521,303.369,28.97,303.369z"/>
</g>
<g>
	<rect x="-179.141" y="92.697" width="2" height="10"/>
	<rect x="-164.441" y="98.783" transform="matrix(0.7071 0.7071 -0.7071 0.7071 25.6597 146.0275)" width="2" height="10.409"/>
	<rect x="-198.05" y="102.993" transform="matrix(0.7071 0.7071 -0.7071 0.7071 17.0509 166.8209)" width="10.409" height="2"/>
	<polygon points="-184.809,121.951 -183.395,123.365 -179.141,119.111 -179.141,128.697 -177.141,128.697 -177.141,119.111 
		-172.888,123.365 -171.474,121.951 -178.141,115.283 	"/>
	<path d="M-165.134,118.696c0-0.002,0-0.004,0-0.006c0-7.18-5.82-12.999-13-12.999s-13,5.819-13,12.999c0,0.002,0,0.004,0,0.006h-13
		v2h18v-2h-3c0-0.002,0-0.004,0-0.006c0-6.064,4.935-10.999,11-10.999s11,4.935,11,10.999c0,0.002,0,0.004,0,0.006h-3v2h17.995v-2
		H-165.134z"/>
</g>
<g>
	<rect x="-75.396" y="91.51" width="2" height="10"/>
	<rect x="-60.696" y="97.596" transform="matrix(0.7071 0.7071 -0.7071 0.7071 55.2063 72.3208)" width="2" height="10.409"/>
	<rect x="-94.305" y="101.805" transform="matrix(0.7071 0.7071 -0.7071 0.7071 46.5974 93.1142)" width="10.409" height="2"/>
	<polygon points="-73.396,126.057 -73.396,115.51 -75.396,115.51 -75.396,126.057 -79.649,121.803 -81.063,123.217 -74.396,129.885 
		-67.729,123.217 -69.143,121.803 	"/>
	<path d="M-61.389,117.509c0-0.002,0-0.004,0-0.006c0-7.18-5.82-12.999-13-12.999s-13,5.819-13,12.999c0,0.002,0,0.004,0,0.006h-13
		v2h22v-2h-7c0-0.002,0-0.004,0-0.006c0-6.064,4.935-10.999,11-10.999s11,4.935,11,10.999c0,0.002,0,0.004,0,0.006h-7v2h21.995v-2
		H-61.389z"/>
</g>
<g>
	<polygon points="128.962,125.522 128.962,111.14 126.962,111.14 126.962,125.522 122.708,121.269 121.294,122.683 127.962,129.351 
		134.629,122.683 133.215,121.269 	"/>
	<path d="M144.59,106.169c-1.596-7.445-8.207-13.029-16.127-13.029c-6.423,0-11.977,3.678-14.702,9.035
		c-0.266-0.018-0.53-0.04-0.8-0.04c-6.627,0-11.999,5.372-11.999,12c0,6.607,5.34,11.965,11.938,11.998v0.003h6.062v-2h-5.604
		l-0.447-0.003c-5.485-0.027-9.948-4.513-9.948-9.998c0-5.514,4.485-10,9.999-10c0.175,0,0.347,0.014,0.52,0.025l0.148,0.01
		l1.316,0.088l0.598-1.176c2.492-4.899,7.443-7.942,12.92-7.942c6.79,0,12.75,4.814,14.172,11.448l0.317,1.482l1.514,0.095
		c4.203,0.262,7.496,3.763,7.496,7.971c0,4.397-3.565,7.977-7.957,8c-0.05-0.003-0.093-0.005-0.137-0.007l-2.043,0.007h-4.863v2
		h6.863v-0.007c0.046,0.001,0.091,0.007,0.137,0.007c5.521,0,10-4.477,10-10C153.962,110.825,149.817,106.494,144.59,106.169z"/>
</g>
<g>
	<polygon points="34.946,122.327 36.36,120.913 29.693,114.245 23.025,120.913 24.439,122.327 28.693,118.073 28.693,130.659 
		30.693,130.659 30.693,118.073 	"/>
	<path d="M46.321,107.765c-1.596-7.445-8.207-13.029-16.127-13.029c-6.423,0-11.977,3.678-14.702,9.035
		c-0.266-0.018-0.53-0.04-0.8-0.04c-6.627,0-11.999,5.372-11.999,12c0,6.607,5.34,11.965,11.938,11.998v0.003h10.062v-2h-9.604
		l-0.447-0.003c-5.485-0.027-9.948-4.513-9.948-9.998c0-5.514,4.485-10,9.999-10c0.175,0,0.347,0.014,0.52,0.025l0.148,0.01
		l1.316,0.088l0.598-1.176c2.492-4.899,7.443-7.942,12.92-7.942c6.79,0,12.75,4.814,14.172,11.448l0.317,1.482l1.514,0.095
		c4.203,0.262,7.496,3.763,7.496,7.971c0,4.397-3.565,7.977-7.957,8c-0.05-0.003-0.093-0.005-0.137-0.007l-2.043,0.007h-8.863v2
		h10.863v-0.007c0.046,0.001,0.091,0.007,0.137,0.007c5.521,0,10-4.477,10-10C55.693,112.421,51.549,108.09,46.321,107.765z"/>
</g>
<g>
	<path d="M248.811-81.751c-1.596-7.445-8.207-13.029-16.127-13.029c-6.423,0-11.977,3.678-14.702,9.035
		c-0.266-0.018-0.53-0.04-0.8-0.04c-6.627,0-11.999,5.372-11.999,12c0,6.607,5.34,11.965,11.938,11.998v0.003h2.062v-2h-1.604
		l-0.447-0.003c-5.485-0.027-9.948-4.513-9.948-9.998c0-5.514,4.485-10,9.999-10c0.175,0,0.347,0.014,0.52,0.025l0.148,0.01
		l1.316,0.088l0.598-1.176c2.492-4.899,7.443-7.942,12.92-7.942c6.79,0,12.75,4.814,14.172,11.448l0.317,1.482l1.514,0.095
		c4.203,0.262,7.496,3.763,7.496,7.971c0,4.397-3.565,7.977-7.957,8c-0.05-0.003-0.093-0.005-0.137-0.007l-2.043,0.007h-0.863v2
		h2.863v-0.007c0.046,0.001,0.091,0.007,0.137,0.007c5.521,0,10-4.477,10-10C258.183-77.095,254.038-81.426,248.811-81.751z"/>
	<polygon points="227.183,-62.763 227.183,-65.393 229.355,-64.17 230.041,-65.391 227.571,-66.78 230.041,-68.17 229.355,-69.391 
		227.183,-68.168 227.183,-70.763 225.183,-70.763 225.183,-68.124 222.932,-69.391 222.246,-68.17 224.716,-66.78 222.246,-65.391 
		222.932,-64.17 225.183,-65.437 225.183,-62.763 	"/>
	<polygon points="232.345,-58.408 230.172,-57.186 230.172,-59.78 228.172,-59.78 228.172,-57.142 225.921,-58.408 225.235,-57.188 
		227.705,-55.798 225.235,-54.408 225.921,-53.188 228.172,-54.454 228.172,-51.78 230.172,-51.78 230.172,-54.41 232.345,-53.188 
		233.03,-54.408 230.561,-55.798 233.03,-57.188 	"/>
	<polygon points="241.36,-65.391 239.188,-64.168 239.188,-66.763 237.188,-66.763 237.188,-64.124 234.937,-65.391 234.251,-64.17 
		236.721,-62.78 234.251,-61.391 234.937,-60.17 237.188,-61.437 237.188,-58.763 239.188,-58.763 239.188,-61.393 241.36,-60.17 
		242.046,-61.391 239.576,-62.78 242.046,-64.17 	"/>
</g>
<g>
	<rect x="324.322" y="-99.803" width="2" height="7.973"/>
	<rect x="305.322" y="-80.889" width="7.973" height="2"/>
	<rect x="309.995" y="-92.155" transform="matrix(0.7071 0.7071 -0.7071 0.7071 27.5068 -248.7178)" width="7.974" height="2"/>
	<rect x="335.504" y="-95.137" transform="matrix(0.7071 0.7071 -0.7071 0.7071 34.106 -264.6418)" width="2" height="7.972"/>
	<path d="M354.834-74.013c-1.444-6.742-7.433-11.8-14.605-11.8c-2.185,0-4.258,0.471-6.127,1.314
		c-1.666-3.203-5.006-5.395-8.865-5.395c-5.522,0-10,4.477-10,9.999c0,2.46,0.899,4.702,2.373,6.442
		c-1.428,1.84-2.287,4.144-2.287,6.653c0,5.983,4.836,10.836,10.813,10.865v0.003h1.188v-2h-0.721l-0.457-0.003
		c-4.864-0.023-8.822-4.001-8.822-8.865c0-4.89,3.978-8.868,8.867-8.868c0.15,0,0.299,0.012,0.447,0.022l0.148,0.01l1.314,0.085
		l0.597-1.175c2.225-4.372,6.644-7.089,11.532-7.089c6.062,0,11.382,4.298,12.649,10.219l0.318,1.483l1.514,0.094
		c3.708,0.23,6.612,3.319,6.612,7.03c0,3.878-3.144,7.035-7.017,7.057c-0.042-0.003-0.079-0.005-0.117-0.005l-1.866,0.005v2h1.819
		v-0.006c0.042,0.001,0.082,0.006,0.124,0.006c5.001,0,9.057-4.054,9.057-9.057C363.322-69.796,359.568-73.718,354.834-74.013z
		 M326.914-77.63c-0.241-0.016-0.48-0.036-0.725-0.036c-2.766,0-5.282,1.041-7.2,2.742c-1.092-1.365-1.753-3.089-1.753-4.97
		c0-4.41,3.589-7.999,8-7.999c3.092,0,5.76,1.773,7.091,4.346C330.029-82.107,328.15-80.06,326.914-77.63z"/>
	<polygon points="334.314,-56.91 334.314,-59.54 336.487,-58.317 337.173,-59.538 334.703,-60.928 337.173,-62.317 336.487,-63.538 
		334.314,-62.315 334.314,-64.91 332.314,-64.91 332.314,-62.271 330.063,-63.538 329.378,-62.317 331.848,-60.928 329.378,-59.538 
		330.063,-58.317 332.314,-59.584 332.314,-56.91 	"/>
	<polygon points="339.477,-52.556 337.304,-51.333 337.304,-53.928 335.304,-53.928 335.304,-51.289 333.053,-52.556 
		332.367,-51.335 334.837,-49.945 332.367,-48.556 333.053,-47.335 335.304,-48.602 335.304,-45.928 337.304,-45.928 
		337.304,-48.558 339.477,-47.335 340.162,-48.556 337.692,-49.945 340.162,-51.335 	"/>
	<polygon points="348.492,-59.538 346.319,-58.315 346.319,-60.91 344.319,-60.91 344.319,-58.271 342.068,-59.538 341.383,-58.317 
		343.853,-56.928 341.383,-55.538 342.068,-54.317 344.319,-55.584 344.319,-52.91 346.319,-52.91 346.319,-55.54 348.492,-54.317 
		349.178,-55.538 346.708,-56.928 349.178,-58.317 	"/>
</g>
<g>
	<path d="M455.022-77.016c-1.444-6.742-7.433-11.8-14.605-11.8c-1.799,0-3.522,0.32-5.118,0.904
		c-0.949-5.108-5.404-8.98-10.788-8.98c-0.413,0-0.819,0.027-1.222,0.071c0.744,1.112,1.179,2.448,1.179,3.886c0,3.865-3.134,7-7,7
		c-1.438,0-2.773-0.435-3.886-1.179c-0.044,0.401-0.071,0.809-0.071,1.222c0,3.713,1.845,6.987,4.661,8.979
		c-1.653,1.907-2.661,4.389-2.661,7.111c0,5.983,4.836,10.836,10.813,10.865v0.003h1.188v-2h-0.721l-0.457-0.003
		c-4.864-0.023-8.822-4.001-8.822-8.865c0-4.89,3.978-8.868,8.867-8.868c0.15,0,0.299,0.012,0.447,0.022l0.148,0.01l1.314,0.085
		l0.597-1.175c2.225-4.372,6.644-7.089,11.532-7.089c6.062,0,11.382,4.298,12.649,10.219l0.318,1.483l1.514,0.094
		c3.708,0.23,6.612,3.319,6.612,7.03c0,3.878-3.144,7.035-7.017,7.057c-0.042-0.003-0.079-0.005-0.117-0.005l-1.866,0.005v2h1.819
		v-0.006c0.042,0.001,0.082,0.006,0.124,0.006c5.001,0,9.057-4.054,9.057-9.057C463.511-72.799,459.757-76.721,455.022-77.016z
		 M427.103-80.633c-0.241-0.016-0.48-0.036-0.725-0.036c-2.537,0-4.865,0.877-6.715,2.334c-2.012-1.294-3.486-3.354-3.976-5.776
		c0.582,0.117,1.178,0.177,1.78,0.177c4.963,0,9-4.037,9-9c0-0.603-0.06-1.198-0.177-1.78c3.733,0.753,6.629,3.824,7.134,7.64
		C430.712-85.631,428.497-83.376,427.103-80.633z"/>
	<polygon points="434.548,-59.913 434.548,-62.543 436.721,-61.32 437.406,-62.541 434.937,-63.931 437.406,-65.32 436.721,-66.541 
		434.548,-65.318 434.548,-67.913 432.548,-67.913 432.548,-65.274 430.297,-66.541 429.611,-65.32 432.081,-63.931 
		429.611,-62.541 430.297,-61.32 432.548,-62.587 432.548,-59.913 	"/>
	<polygon points="439.71,-55.559 437.537,-54.336 437.537,-56.931 435.537,-56.931 435.537,-54.292 433.286,-55.559 
		432.601,-54.338 435.07,-52.948 432.601,-51.559 433.286,-50.338 435.537,-51.604 435.537,-48.931 437.537,-48.931 
		437.537,-51.561 439.71,-50.338 440.396,-51.559 437.926,-52.948 440.396,-54.338 	"/>
	<polygon points="448.726,-62.541 446.553,-61.318 446.553,-63.913 444.553,-63.913 444.553,-61.274 442.302,-62.541 
		441.616,-61.32 444.086,-59.931 441.616,-58.541 442.302,-57.32 444.553,-58.587 444.553,-55.913 446.553,-55.913 446.553,-58.543 
		448.726,-57.32 449.411,-58.541 446.941,-59.931 449.411,-61.32 	"/>
</g>
<rect x="-161.336" y="-644.766" fill="none" width="472.974" height="180.918"/>
<text transform="matrix(1 0 0 1 18.3013 -573.3667)"><tspan x="0" y="0" font-family="'HelveticaNeueLTStd-Th'" font-size="100" letter-spacing="2">60</tspan><tspan x="-99.268" y="60" font-family="'HelveticaNeueLTStd-Lt'" font-size="48" letter-spacing="1">Weather Icons</tspan><tspan x="-3.726" y="104" font-family="'HelveticaNeueLTStd-Lt'" font-size="24">IOS 7 Style</tspan></text>
</svg>
