<?xml version="1.0" encoding="utf-8"?>
<!-- Generator: Adobe Illustrator 16.0.0, SVG Export Plug-In . SVG Version: 6.00 Build 0)  -->
<!DOCTYPE svg PUBLIC "-//W3C//DTD SVG 1.1//EN" "http://www.w3.org/Graphics/SVG/1.1/DTD/svg11.dtd">
<svg version="1.1" id="Layer_1" xmlns="http://www.w3.org/2000/svg" xmlns:xlink="http://www.w3.org/1999/xlink" x="0px" y="0px"
	 width="58.053px" height="43.993px" viewBox="0 0 58.053 43.993" enable-background="new 0 0 58.053 43.993" xml:space="preserve">
<path d="M339.648,469.76l-1.803,15.077l-0.268,2.237h2.254h6.896l-14.693,18.759l1.789-14.52l0.277-2.245h-2.262h-6.957
	L339.648,469.76 M342.503,462.735l-21.667,28.333h11.004l-2.671,21.667l21.667-27.661h-11.004L342.503,462.735L342.503,462.735z"/>
<path d="M-73.387,7.499c6.79,0,12.749,4.814,14.171,11.448l0.318,1.483l1.514,0.094c4.203,0.262,7.496,3.763,7.496,7.971
	c0,4.396-3.565,7.977-7.957,8c-0.046-0.003-0.091-0.006-0.137-0.007l-2.043-0.036v0.043h-28.337l-0.578-0.003
	c-5.485-0.027-9.948-4.513-9.948-9.998c0-5.514,4.485-10,9.999-10c0.175,0,0.347,0.014,0.519,0.025l0.149,0.011l1.316,0.087
	l0.598-1.176C-83.813,10.542-78.863,7.499-73.387,7.499 M-73.387,5.499c-6.423,0-11.977,3.678-14.702,9.035
	c-0.266-0.018-0.53-0.04-0.8-0.04c-6.627,0-11.999,5.372-11.999,12c0,6.607,5.34,11.965,11.938,11.998v0.003h30.925v-0.007
	c0.046,0.001,0.091,0.007,0.137,0.007c5.521,0,10-4.477,10-10c0-5.311-4.145-9.642-9.372-9.967
	C-58.855,11.083-65.467,5.499-73.387,5.499L-73.387,5.499z"/>
<g>
	<path d="M49.564,25.91c-1.444-6.742-7.433-11.8-14.605-11.8c-2.185,0-4.258,0.47-6.127,1.313c-1.666-3.202-5.006-5.394-8.865-5.394
		c-5.522,0-10,4.477-10,9.999c0,2.46,0.898,4.702,2.373,6.442c-1.428,1.84-2.287,4.144-2.287,6.653
		c0,5.983,4.836,10.836,10.813,10.865v0.003h28.007v-0.006c0.042,0.001,0.082,0.006,0.124,0.006c5.001,0,9.057-4.054,9.057-9.057
		C58.053,30.127,54.299,26.205,49.564,25.91z M19.967,12.03c3.092,0,5.76,1.773,7.092,4.345c-2.299,1.44-4.178,3.488-5.414,5.918
		c-0.241-0.016-0.48-0.036-0.725-0.036c-2.766,0-5.281,1.041-7.2,2.743c-1.092-1.366-1.753-3.09-1.753-4.971
		C11.967,15.619,15.556,12.03,19.967,12.03z M49.036,41.993c-0.038-0.003-0.077-0.004-0.117-0.005l-2.047-0.042v0.047H21.469
		l-0.594-0.003c-4.864-0.023-8.822-4.001-8.822-8.865c0-4.89,3.978-8.868,8.867-8.868c0.15,0,0.299,0.012,0.447,0.021l0.148,0.011
		l1.314,0.085l0.598-1.174c2.224-4.373,6.643-7.09,11.531-7.09c6.062,0,11.381,4.298,12.65,10.219l0.317,1.482l1.514,0.095
		c3.708,0.231,6.612,3.319,6.612,7.03C56.053,38.814,52.909,41.971,49.036,41.993z"/>
	<rect x="18.973" width="2" height="7.973"/>
	<rect y="18.986" width="7.973" height="2"/>
	<rect x="4.726" y="7.768" transform="matrix(0.7071 0.7071 -0.7071 0.7071 8.7516 -3.593)" width="7.974" height="2"/>
	<rect x="30.234" y="4.786" transform="matrix(0.7071 0.7071 -0.7071 0.7071 15.3507 -19.5169)" width="2" height="7.972"/>
</g>
<path d="M145.308,21.883c-1.444-6.742-7.433-11.8-14.605-11.8c-1.799,0-3.521,0.32-5.118,0.904c-0.949-5.108-5.404-8.98-10.788-8.98
	c-0.413,0-0.819,0.027-1.222,0.071c0.744,1.112,1.179,2.448,1.179,3.886c0,3.865-3.134,7-7,7c-1.438,0-2.773-0.435-3.886-1.179
	c-0.044,0.401-0.071,0.809-0.071,1.222c0,3.712,1.845,6.987,4.661,8.979c-1.653,1.907-2.661,4.389-2.661,7.111
	c0,5.983,4.836,10.836,10.813,10.865v0.003h28.007V39.96c0.042,0.001,0.082,0.006,0.124,0.006c5.001,0,9.057-4.054,9.057-9.057
	C153.796,26.1,150.042,22.178,145.308,21.883z M105.973,14.787c0.582,0.117,1.178,0.177,1.78,0.177c4.963,0,9-4.037,9-9
	c0-0.603-0.06-1.198-0.177-1.78c3.733,0.753,6.629,3.824,7.134,7.64c-2.713,1.444-4.928,3.699-6.322,6.442
	c-0.241-0.016-0.48-0.036-0.725-0.036c-2.537,0-4.865,0.876-6.715,2.334C107.937,19.27,106.462,17.21,105.973,14.787z
	 M144.779,37.966c-0.038-0.003-0.077-0.004-0.117-0.005l-2.047-0.042v0.047h-25.403l-0.594-0.003
	c-4.864-0.023-8.822-4.001-8.822-8.865c0-4.89,3.978-8.868,8.867-8.868c0.15,0,0.299,0.012,0.447,0.021l0.148,0.011l1.314,0.085
	l0.598-1.174c2.224-4.373,6.643-7.09,11.531-7.09c6.062,0,11.381,4.298,12.65,10.219l0.317,1.482l1.514,0.095
	c3.708,0.231,6.612,3.319,6.612,7.03C151.796,34.787,148.652,37.943,144.779,37.966z"/>
<g>
	<rect x="229.953" y="30.506" width="2" height="7"/>
	<rect x="237.953" y="26.506" width="2" height="7"/>
	<rect x="221.953" y="26.506" width="2" height="7"/>
	<rect x="229.953" y="40.506" width="2" height="7"/>
	<rect x="237.953" y="36.506" width="2" height="7"/>
	<rect x="221.953" y="36.506" width="2" height="7"/>
	<path d="M248.581,13.518c-1.596-7.445-8.207-13.029-16.127-13.029c-6.423,0-11.977,3.678-14.702,9.035
		c-0.266-0.018-0.53-0.04-0.8-0.04c-6.627,0-11.999,5.372-11.999,12c0,6.607,5.34,11.965,11.938,11.998v0.003h2.062v-2h-1.604
		l-0.447-0.003c-5.485-0.027-9.948-4.513-9.948-9.998c0-5.514,4.485-10,9.999-10c0.175,0,0.347,0.014,0.52,0.025l0.148,0.01
		l1.316,0.088l0.598-1.176c2.492-4.899,7.443-7.942,12.92-7.942c6.79,0,12.75,4.814,14.172,11.448l0.317,1.482l1.514,0.095
		c4.203,0.262,7.496,3.763,7.496,7.971c0,4.397-3.565,7.977-7.957,8c-0.05-0.003-0.093-0.005-0.137-0.007l-2.043,0.007h-2.863v2
		h4.863v-0.007c0.046,0.001,0.091,0.007,0.137,0.007c5.521,0,10-4.477,10-10C257.953,18.174,253.809,13.843,248.581,13.518z"/>
</g>
<g>
	<path d="M46.154,102.875c-1.596-7.445-8.207-13.029-16.127-13.029c-6.423,0-11.977,3.678-14.702,9.035
		c-0.266-0.018-0.53-0.04-0.8-0.04c-6.627,0-11.999,5.372-11.999,12c0,6.607,5.34,11.965,11.938,11.998v0.003h2.062v-2h-1.604
		l-0.447-0.003c-5.485-0.027-9.948-4.513-9.948-9.998c0-5.514,4.485-10,9.999-10c0.175,0,0.347,0.014,0.52,0.025l0.148,0.01
		l1.316,0.088l0.598-1.176c2.492-4.899,7.443-7.942,12.92-7.942c6.79,0,12.75,4.814,14.172,11.448l0.317,1.482l1.514,0.095
		c4.203,0.262,7.496,3.763,7.496,7.971c0,4.397-3.565,7.977-7.957,8c-0.05-0.003-0.093-0.005-0.137-0.007l-2.043,0.007h-2.863v2
		h4.863v-0.007c0.046,0.001,0.091,0.007,0.137,0.007c5.521,0,10-4.477,10-10C55.526,107.531,51.382,103.2,46.154,102.875z"/>
	<polygon points="27.526,129.87 27.526,131.811 27.526,137.87 29.526,137.87 29.526,131.811 29.526,129.87 29.526,117.87 
		27.526,117.87 	"/>
	<polygon points="35.526,125.87 35.526,127.623 35.526,133.87 37.526,133.87 37.526,127.623 37.526,125.87 37.526,113.87 
		35.526,113.87 	"/>
	<polygon points="19.526,125.87 19.526,127.936 19.526,133.87 21.526,133.87 21.526,127.936 21.526,125.87 21.526,113.87 
		19.526,113.87 	"/>
</g>
<g>
	<polygon points="341.804,126.781 334.921,116.951 333.283,118.099 340.166,127.929 341.278,129.518 344.754,134.481 
		346.393,133.335 342.917,128.37 	"/>
	<polygon points="349.806,126.779 342.921,116.951 341.283,118.1 348.169,127.928 349.174,129.363 352.758,134.479 354.396,133.332 
		350.813,128.216 	"/>
	<polygon points="333.804,126.781 326.921,116.951 325.283,118.1 332.166,127.929 333.351,129.621 336.755,134.482 338.393,133.335 
		334.989,128.474 	"/>
	<path d="M352.911,103.142c-1.596-7.445-8.207-13.029-16.127-13.029c-6.423,0-11.977,3.678-14.702,9.035
		c-0.266-0.018-0.53-0.04-0.8-0.04c-6.627,0-11.999,5.372-11.999,12c0,6.607,5.34,11.965,11.938,11.998v0.003h2.062v-2h-1.604
		l-0.447-0.003c-5.485-0.027-9.948-4.513-9.948-9.998c0-5.514,4.485-10,9.999-10c0.175,0,0.347,0.014,0.52,0.025l0.148,0.01
		l1.316,0.088l0.598-1.176c2.492-4.899,7.443-7.942,12.92-7.942c6.79,0,12.75,4.814,14.172,11.448l0.317,1.482l1.514,0.095
		c4.203,0.262,7.496,3.763,7.496,7.971c0,4.397-3.565,7.977-7.957,8c-0.05-0.003-0.093-0.005-0.137-0.007l-1.043,0.007h0.137v2
		h0.863v-0.007c0.046,0.001,0.091,0.007,0.137,0.007c5.521,0,10-4.477,10-10C362.283,107.798,358.139,103.467,352.911,103.142z"/>
</g>
<g>
	<rect x="324.609" y="-5.94" width="2" height="7.973"/>
	<rect x="305.609" y="12.974" width="7.973" height="2"/>
	<rect x="310.282" y="1.707" transform="matrix(0.7071 0.7071 -0.7071 0.7071 93.9616 -221.4292)" width="7.974" height="2"/>
	<rect x="335.791" y="-1.275" transform="matrix(0.7071 0.7071 -0.7071 0.7071 100.5607 -237.3532)" width="2" height="7.972"/>
	<rect x="338.609" y="34.933" width="2" height="7"/>
	<rect x="346.609" y="30.933" width="2" height="7"/>
	<rect x="330.609" y="30.933" width="2" height="7"/>
	<rect x="338.609" y="44.933" width="2" height="7"/>
	<rect x="346.609" y="40.933" width="2" height="7"/>
	<rect x="330.609" y="40.933" width="2" height="7"/>
	<path d="M355.121,19.85c-1.444-6.742-7.433-11.8-14.605-11.8c-2.185,0-4.258,0.47-6.126,1.313
		c-1.667-3.202-5.007-5.394-8.866-5.394c-5.522,0-10,4.477-10,9.999c0,2.46,0.899,4.702,2.373,6.442
		c-1.429,1.84-2.287,4.144-2.287,6.653c0,5.983,4.836,10.836,10.813,10.865v0.003h1.188v-2h-0.721l-0.457-0.003
		c-4.864-0.023-8.822-4.001-8.822-8.865c0-4.89,3.978-8.868,8.867-8.868c0.15,0,0.299,0.012,0.447,0.022l0.148,0.01l1.314,0.085
		l0.597-1.175c2.225-4.372,6.644-7.089,11.532-7.089c6.062,0,11.382,4.298,12.649,10.219l0.318,1.483l1.514,0.094
		c3.708,0.23,6.612,3.319,6.612,7.03c0,3.878-3.144,7.035-7.017,7.057c-0.042-0.003-0.079-0.005-0.117-0.005l-2.047,0.005h-0.819v2
		h2.819v-0.006c0.042,0.001,0.082,0.006,0.124,0.006c5.001,0,9.057-4.054,9.057-9.057C363.609,24.066,359.855,20.145,355.121,19.85z
		 M327.201,16.232c-0.241-0.016-0.48-0.036-0.725-0.036c-2.766,0-5.282,1.041-7.2,2.743c-1.092-1.366-1.753-3.09-1.753-4.971
		c0-4.41,3.589-7.999,8-7.999c3.091,0,5.76,1.773,7.091,4.345C330.316,11.755,328.437,13.803,327.201,16.232z"/>
</g>
<g>
	<rect x="439.026" y="33.485" width="2" height="7"/>
	<rect x="447.026" y="29.485" width="2" height="7"/>
	<rect x="431.026" y="29.485" width="2" height="7"/>
	<rect x="439.026" y="43.485" width="2" height="7"/>
	<rect x="447.026" y="39.485" width="2" height="7"/>
	<rect x="431.026" y="39.485" width="2" height="7"/>
	<path d="M455.538,18.402c-1.444-6.742-7.433-11.8-14.605-11.8c-1.799,0-3.522,0.32-5.118,0.904
		c-0.949-5.108-5.404-8.98-10.788-8.98c-0.413,0-0.819,0.027-1.222,0.071c0.744,1.112,1.179,2.448,1.179,3.886c0,3.865-3.134,7-7,7
		c-1.438,0-2.773-0.435-3.886-1.179c-0.044,0.401-0.071,0.809-0.071,1.222c0,3.712,1.845,6.987,4.661,8.979
		c-1.653,1.907-2.661,4.389-2.661,7.111c0,5.983,4.836,10.836,10.813,10.865v0.003h1.188v-2h-0.721l-0.457-0.003
		c-4.864-0.023-8.822-4.001-8.822-8.865c0-4.89,3.978-8.868,8.867-8.868c0.15,0,0.299,0.012,0.447,0.022l0.148,0.01l1.314,0.085
		l0.597-1.175c2.225-4.372,6.644-7.089,11.532-7.089c6.062,0,11.382,4.298,12.649,10.219l0.318,1.483l1.514,0.094
		c3.708,0.23,6.612,3.319,6.612,7.03c0,3.878-3.144,7.035-7.017,7.057c-0.042-0.003-0.079-0.005-0.117-0.005l-2.047,0.005h-0.819v2
		h2.819v-0.006c0.042,0.001,0.082,0.006,0.124,0.006c5.001,0,9.057-4.054,9.057-9.057C464.026,22.619,460.272,18.697,455.538,18.402
		z M427.618,14.785c-0.241-0.016-0.48-0.036-0.725-0.036c-2.537,0-4.865,0.876-6.715,2.334c-2.012-1.294-3.487-3.354-3.976-5.776
		c0.582,0.117,1.178,0.177,1.78,0.177c4.963,0,9-4.037,9-9c0-0.603-0.06-1.198-0.177-1.78c3.733,0.753,6.629,3.824,7.133,7.64
		C431.229,9.787,429.014,12.042,427.618,14.785z"/>
</g>
<g>
	<polygon points="131.796,134.309 131.796,136.249 131.796,142.309 133.796,142.309 133.796,136.249 133.796,134.309 
		133.796,122.309 131.796,122.309 	"/>
	<polygon points="139.796,130.309 139.796,132.062 139.796,138.309 141.796,138.309 141.796,132.062 141.796,130.309 
		141.796,118.309 139.796,118.309 	"/>
	<polygon points="123.796,130.309 123.796,132.374 123.796,138.309 125.796,138.309 125.796,132.374 125.796,130.309 
		125.796,118.309 123.796,118.309 	"/>
	<rect x="117.796" y="83.406" width="2" height="7.973"/>
	<rect x="98.796" y="102.32" width="7.973" height="2"/>
	<rect x="103.469" y="91.054" transform="matrix(0.7071 0.7071 -0.7071 0.7071 96.565 -49.021)" width="7.974" height="2"/>
	<rect x="128.978" y="88.072" transform="matrix(0.7071 0.7071 -0.7071 0.7071 103.1641 -64.9449)" width="2" height="7.972"/>
	<path d="M148.308,109.196c-1.444-6.742-7.433-11.8-14.605-11.8c-2.185,0-4.258,0.47-6.127,1.313
		c-1.666-3.202-5.006-5.394-8.865-5.394c-5.522,0-10,4.477-10,9.999c0,2.46,0.898,4.702,2.373,6.442
		c-1.428,1.84-2.287,4.144-2.287,6.653c0,5.983,4.836,10.836,10.813,10.865v0.003h1.188v-2h-0.721l-0.457-0.003
		c-4.864-0.023-8.822-4.001-8.822-8.865c0-4.89,3.978-8.868,8.867-8.868c0.15,0,0.299,0.012,0.447,0.022l0.148,0.01l1.314,0.085
		l0.597-1.175c2.225-4.372,6.644-7.089,11.532-7.089c6.062,0,11.382,4.298,12.649,10.219l0.318,1.483l1.514,0.094
		c3.708,0.23,6.612,3.319,6.612,7.03c0,3.878-3.144,7.035-7.017,7.057c-0.042-0.003-0.079-0.005-0.117-0.005l-2.047,0.005h-0.819v2
		h2.819v-0.006c0.042,0.001,0.082,0.006,0.124,0.006c5.001,0,9.057-4.054,9.057-9.057
		C156.796,113.413,153.042,109.491,148.308,109.196z M120.388,105.579c-0.241-0.016-0.48-0.036-0.725-0.036
		c-2.766,0-5.281,1.042-7.2,2.743c-1.092-1.367-1.753-3.09-1.753-4.971c0-4.41,3.589-7.999,8-7.999c3.092,0,5.76,1.773,7.092,4.345
		C123.503,101.101,121.624,103.149,120.388,105.579z"/>
</g>
<g>
	<polygon points="232.193,131.792 232.193,133.732 232.193,139.792 234.193,139.792 234.193,133.732 234.193,131.792 
		234.193,119.792 232.193,119.792 	"/>
	<polygon points="240.193,127.792 240.193,129.545 240.193,135.792 242.193,135.792 242.193,129.545 242.193,127.792 
		242.193,115.792 240.193,115.792 	"/>
	<polygon points="224.193,127.792 224.193,129.857 224.193,135.792 226.193,135.792 226.193,129.857 226.193,127.792 
		226.193,115.792 224.193,115.792 	"/>
	<path d="M248.705,106.68c-1.444-6.742-7.433-11.8-14.605-11.8c-1.799,0-3.521,0.32-5.118,0.904
		c-0.949-5.108-5.404-8.98-10.788-8.98c-0.413,0-0.819,0.027-1.222,0.071c0.744,1.112,1.179,2.448,1.179,3.886c0,3.865-3.134,7-7,7
		c-1.438,0-2.773-0.435-3.886-1.179c-0.044,0.401-0.071,0.809-0.071,1.222c0,3.712,1.845,6.987,4.661,8.979
		c-1.653,1.907-2.661,4.389-2.661,7.111c0,5.983,4.836,10.836,10.813,10.865v0.003h1.188v-2h-0.721l-0.457-0.003
		c-4.864-0.023-8.822-4.001-8.822-8.865c0-4.89,3.978-8.868,8.867-8.868c0.15,0,0.299,0.012,0.447,0.022l0.148,0.01l1.314,0.085
		l0.597-1.175c2.225-4.372,6.644-7.089,11.532-7.089c6.062,0,11.382,4.298,12.649,10.219l0.318,1.483l1.514,0.094
		c3.708,0.23,6.612,3.319,6.612,7.03c0,3.878-3.144,7.035-7.017,7.057c-0.042-0.003-0.079-0.005-0.117-0.005l-2.047,0.005h-0.819v2
		h2.819v-0.006c0.042,0.001,0.082,0.006,0.124,0.006c5.001,0,9.057-4.054,9.057-9.057
		C257.193,110.896,253.439,106.975,248.705,106.68z M220.785,103.063c-0.241-0.016-0.48-0.036-0.725-0.036
		c-2.537,0-4.865,0.876-6.715,2.334c-2.012-1.294-3.486-3.354-3.976-5.776c0.582,0.117,1.178,0.177,1.78,0.177c4.963,0,9-4.037,9-9
		c0-0.603-0.06-1.198-0.177-1.78c3.733,0.753,6.629,3.824,7.134,7.641C224.395,98.064,222.18,100.32,220.785,103.063z"/>
</g>
<g>
	<polygon points="449.229,132.736 442.346,122.906 440.708,124.054 447.591,133.884 448.703,135.473 452.179,140.437 
		453.817,139.29 450.342,134.325 	"/>
	<polygon points="457.23,132.734 450.346,122.906 448.708,124.055 455.594,133.883 456.599,135.318 460.183,140.434 
		461.821,139.287 458.237,134.171 	"/>
	<polygon points="441.229,132.736 434.346,122.906 432.708,124.055 439.591,133.884 440.775,135.576 444.18,140.438 445.817,139.29 
		442.414,134.429 	"/>
	<rect x="428.708" y="85.188" width="2" height="7.973"/>
	<rect x="409.708" y="104.102" width="7.973" height="2"/>
	<rect x="414.381" y="92.835" transform="matrix(0.7071 0.7071 -0.7071 0.7071 188.8885 -268.3474)" width="7.974" height="2"/>
	<rect x="439.89" y="89.853" transform="matrix(0.7071 0.7071 -0.7071 0.7071 195.4877 -284.2713)" width="2" height="7.972"/>
	<path d="M459.22,110.978c-1.444-6.742-7.433-11.8-14.605-11.8c-2.185,0-4.258,0.47-6.126,1.313
		c-1.667-3.202-5.007-5.394-8.866-5.394c-5.522,0-10,4.477-10,9.999c0,2.46,0.899,4.702,2.373,6.442
		c-1.429,1.84-2.287,4.144-2.287,6.653c0,5.983,4.836,10.836,10.813,10.865v0.003h1.188v-2h-0.721l-0.457-0.003
		c-4.864-0.023-8.822-4.001-8.822-8.865c0-4.89,3.978-8.868,8.867-8.868c0.15,0,0.299,0.012,0.447,0.022l0.148,0.01l1.314,0.085
		l0.597-1.175c2.225-4.372,6.644-7.089,11.532-7.089c6.062,0,11.382,4.298,12.649,10.219l0.318,1.483l1.514,0.094
		c3.708,0.23,6.612,3.319,6.612,7.03c0,3.878-3.144,7.035-7.017,7.057c-0.042-0.003-0.079-0.005-0.117-0.005l-0.047,0.005h-0.819v2
		h0.819v-0.006c0.042,0.001,0.082,0.006,0.124,0.006c5.001,0,9.057-4.054,9.057-9.057
		C467.708,115.194,463.954,111.272,459.22,110.978z M431.3,107.36c-0.241-0.016-0.48-0.036-0.725-0.036
		c-2.766,0-5.282,1.042-7.2,2.743c-1.092-1.367-1.753-3.09-1.753-4.971c0-4.41,3.589-7.999,8-7.999c3.091,0,5.76,1.773,7.091,4.345
		C434.415,102.882,432.535,104.931,431.3,107.36z"/>
</g>
<g>
	<polygon points="-274.202,229.222 -281.085,219.392 -282.723,220.539 -275.84,230.369 -274.728,231.958 -271.252,236.922 
		-269.613,235.775 -273.089,230.811 	"/>
	<polygon points="-266.2,229.22 -273.085,219.392 -274.723,220.54 -267.837,230.368 -266.832,231.804 -263.248,236.919 
		-261.609,235.772 -265.193,230.656 	"/>
	<polygon points="-282.202,229.222 -289.085,219.392 -290.723,220.54 -283.84,230.369 -282.655,232.062 -279.251,236.923 
		-277.613,235.775 -281.017,230.914 	"/>
	<path d="M-264.211,207.463c-1.444-6.742-7.433-11.8-14.605-11.8c-1.799,0-3.522,0.32-5.118,0.904
		c-0.949-5.108-5.404-8.98-10.788-8.98c-0.413,0-0.819,0.027-1.222,0.071c0.744,1.112,1.179,2.448,1.179,3.886c0,3.865-3.134,7-7,7
		c-1.438,0-2.773-0.435-3.886-1.179c-0.044,0.401-0.071,0.809-0.071,1.222c0,3.712,1.845,6.987,4.661,8.979
		c-1.653,1.907-2.661,4.389-2.661,7.111c0,5.983,4.836,10.836,10.813,10.865v0.003h1.188v-2h-0.721l-0.457-0.003
		c-4.864-0.023-8.822-4.001-8.822-8.865c0-4.89,3.978-8.868,8.867-8.868c0.15,0,0.299,0.012,0.447,0.022l0.148,0.01l1.314,0.085
		l0.597-1.175c2.225-4.372,6.644-7.089,11.532-7.089c6.062,0,11.382,4.298,12.649,10.219l0.318,1.483l1.514,0.094
		c3.708,0.23,6.612,3.319,6.612,7.03c0,3.878-3.144,7.035-7.017,7.057c-0.042-0.003-0.079-0.005-0.117-0.005l-0.047,0.005h-0.819v2
		h0.819v-0.006c0.042,0.001,0.082,0.006,0.124,0.006c5.001,0,9.057-4.054,9.057-9.057
		C-255.723,211.68-259.477,207.758-264.211,207.463z M-292.131,203.846c-0.241-0.016-0.48-0.036-0.725-0.036
		c-2.537,0-4.865,0.876-6.715,2.334c-2.012-1.294-3.487-3.354-3.976-5.776c0.582,0.117,1.178,0.177,1.78,0.177c4.963,0,9-4.037,9-9
		c0-0.603-0.06-1.198-0.177-1.78c3.733,0.753,6.629,3.824,7.133,7.641C-288.521,198.848-290.735,201.104-292.131,203.846z"/>
</g>
<g>
	<rect x="-281.723" y="125.375" width="2" height="4"/>
	<rect x="-273.723" y="121.354" width="2" height="4.021"/>
	<rect x="-289.723" y="121.354" width="2" height="4.021"/>
	<path d="M-263.095,105.387c-1.596-7.445-8.207-13.029-16.127-13.029c-6.423,0-11.977,3.678-14.702,9.035
		c-0.266-0.018-0.53-0.04-0.8-0.04c-6.627,0-11.999,5.372-11.999,12c0,6.607,5.34,11.965,11.938,11.998v0.003h2.062v-2h-1.604
		l-0.447-0.003c-5.485-0.027-9.948-4.513-9.948-9.998c0-5.514,4.485-10,9.999-10c0.175,0,0.347,0.014,0.52,0.025l0.148,0.01
		l1.316,0.088l0.598-1.176c2.492-4.899,7.443-7.942,12.92-7.942c6.79,0,12.75,4.814,14.172,11.448l0.317,1.482l1.514,0.095
		c4.203,0.262,7.496,3.763,7.496,7.971c0,4.397-3.565,7.977-7.957,8c-0.05-0.003-0.093-0.005-0.137-0.007l-2.043,0.007h-2.863v2
		h4.863v-0.007c0.046,0.001,0.091,0.007,0.137,0.007c5.521,0,10-4.477,10-10C-253.723,110.043-257.867,105.712-263.095,105.387z"/>
	<circle cx="-272.723" cy="130.396" r="1.5"/>
	<circle cx="-280.723" cy="134.364" r="1.5"/>
	<circle cx="-288.723" cy="130.354" r="1.5"/>
</g>
<g>
	<rect x="-188.802" y="85.921" width="2" height="7.973"/>
	<rect x="-207.802" y="104.835" width="7.973" height="2"/>
	<rect x="-203.129" y="93.568" transform="matrix(0.7071 0.7071 -0.7071 0.7071 8.5427 168.5128)" width="7.974" height="2"/>
	<rect x="-177.62" y="90.587" transform="matrix(0.7071 0.7071 -0.7071 0.7071 15.1418 152.5889)" width="2" height="7.972"/>
	<path d="M-158.29,111.711c-1.444-6.742-7.433-11.8-14.605-11.8c-2.185,0-4.258,0.47-6.126,1.313
		c-1.667-3.202-5.007-5.394-8.866-5.394c-5.522,0-10,4.477-10,9.999c0,2.46,0.899,4.702,2.373,6.442
		c-1.429,1.84-2.287,4.144-2.287,6.653c0,5.983,4.836,10.836,10.813,10.865v0.003h1.188v-2h-0.721l-0.457-0.003
		c-4.864-0.023-8.822-4.001-8.822-8.865c0-4.89,3.978-8.868,8.867-8.868c0.15,0,0.299,0.012,0.447,0.022l0.148,0.01l1.314,0.085
		l0.597-1.175c2.225-4.372,6.644-7.089,11.532-7.089c6.062,0,11.382,4.298,12.649,10.219l0.318,1.483l1.514,0.094
		c3.708,0.23,6.612,3.319,6.612,7.03c0,3.878-3.144,7.035-7.017,7.057c-0.042-0.003-0.079-0.005-0.117-0.005l-2.047,0.005h-0.819v2
		h2.819v-0.006c0.042,0.001,0.082,0.006,0.124,0.006c5.001,0,9.057-4.054,9.057-9.057
		C-149.802,115.928-153.556,112.006-158.29,111.711z M-186.21,108.094c-0.241-0.016-0.48-0.036-0.725-0.036
		c-2.766,0-5.282,1.042-7.2,2.743c-1.092-1.367-1.753-3.09-1.753-4.971c0-4.41,3.589-7.999,8-7.999c3.091,0,5.76,1.773,7.091,4.345
		C-183.095,103.615-184.975,105.664-186.21,108.094z"/>
	<rect x="-174.802" y="129.81" width="2" height="4"/>
	<rect x="-166.802" y="125.788" width="2" height="4.021"/>
	<rect x="-182.802" y="125.788" width="2" height="4.021"/>
	<circle cx="-165.802" cy="134.83" r="1.5"/>
	<circle cx="-173.802" cy="138.799" r="1.5"/>
	<circle cx="-181.802" cy="134.788" r="1.5"/>
</g>
<g>
	<path d="M-57.364,110.754c-1.444-6.742-7.433-11.8-14.605-11.8c-1.799,0-3.522,0.32-5.118,0.904
		c-0.949-5.108-5.404-8.98-10.788-8.98c-0.413,0-0.819,0.027-1.222,0.071c0.744,1.112,1.179,2.448,1.179,3.886c0,3.865-3.134,7-7,7
		c-1.438,0-2.773-0.435-3.886-1.179c-0.044,0.401-0.071,0.809-0.071,1.222c0,3.712,1.845,6.987,4.661,8.979
		c-1.653,1.907-2.661,4.389-2.661,7.111c0,5.983,4.836,10.836,10.813,10.865v0.003h1.188v-2h-0.721l-0.457-0.003
		c-4.864-0.023-8.822-4.001-8.822-8.865c0-4.89,3.978-8.868,8.867-8.868c0.15,0,0.299,0.012,0.447,0.022l0.148,0.01l1.314,0.085
		l0.597-1.175c2.225-4.372,6.644-7.089,11.532-7.089c6.062,0,11.382,4.298,12.649,10.219l0.318,1.483l1.514,0.094
		c3.708,0.23,6.612,3.319,6.612,7.03c0,3.878-3.144,7.035-7.017,7.057c-0.042-0.003-0.079-0.005-0.117-0.005l-2.047,0.005h-0.819v2
		h2.819v-0.006c0.042,0.001,0.082,0.006,0.124,0.006c5.001,0,9.057-4.054,9.057-9.057C-48.876,114.971-52.63,111.049-57.364,110.754
		z M-85.284,107.137c-0.241-0.016-0.48-0.036-0.725-0.036c-2.537,0-4.865,0.876-6.715,2.334c-2.012-1.294-3.487-3.354-3.976-5.776
		c0.582,0.117,1.178,0.177,1.78,0.177c4.963,0,9-4.037,9-9c0-0.603-0.06-1.198-0.177-1.78c3.733,0.753,6.629,3.824,7.133,7.641
		C-81.674,102.139-83.889,104.395-85.284,107.137z"/>
	<rect x="-73.876" y="128.853" width="2" height="4"/>
	<rect x="-65.876" y="124.831" width="2" height="4.021"/>
	<rect x="-81.876" y="124.831" width="2" height="4.021"/>
	<circle cx="-64.876" cy="133.873" r="1.5"/>
	<circle cx="-72.876" cy="137.842" r="1.5"/>
	<circle cx="-80.876" cy="133.831" r="1.5"/>
</g>
<g>
	<path d="M-160.674,203.784c-1.596-7.445-8.207-13.029-16.127-13.029c-6.423,0-11.977,3.678-14.702,9.035
		c-0.266-0.018-0.53-0.04-0.8-0.04c-6.627,0-11.999,5.372-11.999,12c0,6.607,5.34,11.965,11.938,11.998v0.003h6.062v-2h-5.604
		l-0.447-0.003c-5.485-0.027-9.948-4.513-9.948-9.998c0-5.514,4.485-10,9.999-10c0.175,0,0.347,0.014,0.52,0.025l0.148,0.01
		l1.316,0.088l0.598-1.176c2.492-4.899,7.443-7.942,12.92-7.942c6.79,0,12.75,4.814,14.172,11.448l0.317,1.482l1.514,0.095
		c4.203,0.262,7.496,3.763,7.496,7.971c0,4.397-3.565,7.977-7.957,8c-0.05-0.003-0.093-0.005-0.137-0.007l-5.043,0.007h0.137v2
		h4.863v-0.007c0.046,0.001,0.091,0.007,0.137,0.007c5.521,0,10-4.477,10-10C-151.302,208.44-155.446,204.109-160.674,203.784z"/>
	<polygon points="-176.46,223.755 -174.69,223.755 -174.26,223.755 -172.25,223.755 -178.664,214.594 -180.302,215.741 
		-176.091,221.755 -177.861,221.755 -180.302,221.755 -179.03,223.571 -177.918,225.16 -171.94,233.755 -170.302,232.608 
		-176.279,224.013 	"/>
</g>
<g>
	<rect x="-84.876" y="184.654" width="2" height="7.973"/>
	<rect x="-103.876" y="203.568" width="7.973" height="2"/>
	<rect x="-99.203" y="192.302" transform="matrix(0.7071 0.7071 -0.7071 0.7071 108.7969 123.9445)" width="7.974" height="2"/>
	<rect x="-73.694" y="189.32" transform="matrix(0.7071 0.7071 -0.7071 0.7071 115.3961 108.0206)" width="2" height="7.972"/>
	<path d="M-54.364,210.444c-1.444-6.742-7.433-11.8-14.605-11.8c-2.185,0-4.258,0.47-6.127,1.313
		c-1.666-3.202-5.006-5.394-8.865-5.394c-5.522,0-10,4.477-10,9.999c0,2.46,0.898,4.702,2.373,6.442
		c-1.428,1.84-2.287,4.144-2.287,6.653c0,5.983,4.836,10.836,10.813,10.865v0.003h4.188v-2h-3.721l-0.457-0.003
		c-4.864-0.023-8.822-4.001-8.822-8.865c0-4.89,3.978-8.868,8.867-8.868c0.15,0,0.299,0.012,0.447,0.022l0.148,0.01l1.314,0.085
		l0.597-1.175c2.225-4.372,6.644-7.089,11.532-7.089c6.062,0,11.382,4.298,12.649,10.219l0.318,1.483l1.514,0.094
		c3.708,0.23,6.612,3.319,6.612,7.03c0,3.878-3.144,7.035-7.017,7.057c-0.042-0.003-0.079-0.005-0.117-0.005l-2.047,0.005h-3.819v2
		h5.819v-0.006c0.042,0.001,0.082,0.006,0.124,0.006c5.001,0,9.057-4.054,9.057-9.057C-45.876,214.661-49.63,210.739-54.364,210.444
		z M-82.284,206.827c-0.241-0.016-0.48-0.036-0.725-0.036c-2.766,0-5.281,1.041-7.2,2.743c-1.092-1.366-1.753-3.09-1.753-4.971
		c0-4.41,3.589-7.999,8-7.999c3.092,0,5.76,1.773,7.092,4.345C-79.169,202.35-81.048,204.397-82.284,206.827z"/>
	<polygon points="-70.034,228.534 -68.265,228.534 -67.834,228.534 -65.824,228.534 -72.238,219.373 -73.876,220.521 
		-69.665,226.534 -71.436,226.534 -73.876,226.534 -72.604,228.351 -71.492,229.939 -65.515,238.534 -63.876,237.388 
		-69.854,228.792 	"/>
</g>
<g>
	<path d="M45.221,208.148c-1.444-6.742-7.433-11.8-14.605-11.8c-1.799,0-3.521,0.32-5.118,0.904
		c-0.949-5.108-5.404-8.98-10.788-8.98c-0.413,0-0.819,0.027-1.222,0.071c0.744,1.112,1.179,2.448,1.179,3.886c0,3.865-3.134,7-7,7
		c-1.438,0-2.773-0.435-3.886-1.179c-0.044,0.401-0.071,0.809-0.071,1.222c0,3.712,1.845,6.987,4.661,8.979
		c-1.653,1.907-2.661,4.389-2.661,7.111c0,5.983,4.836,10.836,10.813,10.865v0.003h4.188v-2h-3.721l-0.457-0.003
		c-4.864-0.023-8.822-4.001-8.822-8.865c0-4.89,3.978-8.868,8.867-8.868c0.15,0,0.299,0.012,0.447,0.022l0.148,0.01l1.314,0.085
		l0.597-1.175c2.225-4.372,6.644-7.089,11.532-7.089c6.062,0,11.382,4.298,12.649,10.219l0.318,1.483l1.514,0.094
		c3.708,0.23,6.612,3.319,6.612,7.03c0,3.878-3.144,7.035-7.017,7.057c-0.042-0.003-0.079-0.005-0.117-0.005l-2.047,0.005h-3.819v2
		h5.819v-0.006c0.042,0.001,0.082,0.006,0.124,0.006c5.001,0,9.057-4.054,9.057-9.057C53.709,212.365,49.955,208.443,45.221,208.148
		z M17.301,204.531c-0.241-0.016-0.48-0.036-0.725-0.036c-2.537,0-4.865,0.876-6.715,2.334c-2.012-1.294-3.486-3.354-3.976-5.776
		c0.582,0.117,1.178,0.177,1.78,0.177c4.963,0,9-4.037,9-9c0-0.603-0.06-1.198-0.177-1.78c3.733,0.753,6.629,3.824,7.134,7.64
		C20.91,199.533,18.695,201.788,17.301,204.531z"/>
	<polygon points="29.551,226.238 31.32,226.238 31.751,226.238 33.761,226.238 27.347,217.077 25.709,218.225 29.92,224.238 
		28.149,224.238 25.709,224.238 26.98,226.055 28.093,227.644 34.07,236.238 35.709,235.092 29.731,226.496 	"/>
</g>
<g>
	<path d="M146.105,204.284c-1.596-7.445-8.207-13.029-16.127-13.029c-6.423,0-11.977,3.678-14.702,9.035
		c-0.266-0.018-0.53-0.04-0.8-0.04c-6.627,0-11.999,5.372-11.999,12c0,6.607,5.34,11.965,11.938,11.998v0.003h1.062v-2h-0.604
		l-0.447-0.003c-5.485-0.027-9.948-4.513-9.948-9.998c0-5.514,4.485-10,9.999-10c0.175,0,0.347,0.014,0.52,0.025l0.148,0.01
		l1.316,0.088l0.598-1.176c2.492-4.899,7.443-7.942,12.92-7.942c6.79,0,12.75,4.814,14.172,11.448l0.317,1.482l1.514,0.095
		c4.203,0.262,7.496,3.763,7.496,7.971c0,4.397-3.565,7.977-7.957,8c-0.05-0.003-0.093-0.005-0.137-0.007l-0.906,0.007v2h0.863
		v-0.007c0.046,0.001,0.091,0.007,0.137,0.007c5.521,0,10-4.477,10-10C155.478,208.94,151.333,204.609,146.105,204.284z"/>
	
		<rect x="114.912" y="222.249" transform="matrix(-0.5736 -0.8191 0.8191 -0.5736 6.7639 450.0178)" width="11.183" height="1.999"/>
	
		<rect x="132.886" y="222.249" transform="matrix(-0.5736 -0.8191 0.8191 -0.5736 35.0495 464.741)" width="11.183" height="1.999"/>
	<polygon points="131.319,227.255 133.089,227.255 133.52,227.255 135.529,227.255 129.115,218.094 127.478,219.241 
		131.688,225.255 129.918,225.255 127.478,225.255 128.749,227.071 129.861,228.66 134.478,235.255 136.116,234.108 131.5,227.513 	
		"/>
</g>
<g>
	<rect x="220.953" y="184.817" width="2" height="7.973"/>
	<rect x="201.953" y="203.731" width="7.973" height="2"/>
	<rect x="206.626" y="192.465" transform="matrix(0.7071 0.7071 -0.7071 0.7071 198.4875 -92.2615)" width="7.974" height="2"/>
	<rect x="232.135" y="189.483" transform="matrix(0.7071 0.7071 -0.7071 0.7071 205.0867 -108.1855)" width="2" height="7.972"/>
	<path d="M251.465,210.607c-1.444-6.742-7.433-11.8-14.605-11.8c-2.185,0-4.258,0.47-6.126,1.313
		c-1.667-3.202-5.007-5.394-8.866-5.394c-5.522,0-10,4.477-10,9.999c0,2.46,0.899,4.702,2.373,6.442
		c-1.429,1.84-2.287,4.144-2.287,6.653c0,5.983,4.836,10.836,10.813,10.865v0.003h0.188v-2l-0.178-0.003
		c-4.864-0.023-8.822-4.001-8.822-8.865c0-4.89,3.978-8.868,8.867-8.868c0.15,0,0.299,0.012,0.447,0.022l0.148,0.01l1.314,0.085
		l0.597-1.175c2.225-4.372,6.644-7.089,11.532-7.089c6.062,0,11.382,4.298,12.649,10.219l0.318,1.483l1.514,0.094
		c3.708,0.23,6.612,3.319,6.612,7.03c0,3.878-3.144,7.035-7.017,7.057c-0.042-0.003-0.079-0.005-0.117-0.005l-0.866,0.005v2h0.819
		v-0.006c0.042,0.001,0.082,0.006,0.124,0.006c5.001,0,9.057-4.054,9.057-9.057C259.953,214.824,256.199,210.902,251.465,210.607z
		 M223.545,206.99c-0.241-0.016-0.48-0.036-0.725-0.036c-2.766,0-5.282,1.042-7.2,2.743c-1.092-1.367-1.753-3.09-1.753-4.971
		c0-4.41,3.589-7.999,8-7.999c3.091,0,5.76,1.773,7.091,4.345C226.66,202.512,224.78,204.561,223.545,206.99z"/>
	
		<rect x="221.375" y="226.688" transform="matrix(-0.5736 -0.8191 0.8191 -0.5736 170.6624 544.2071)" width="11.183" height="1.999"/>
	
		<rect x="239.349" y="226.688" transform="matrix(-0.5736 -0.8191 0.8191 -0.5736 198.948 558.9302)" width="11.183" height="1.999"/>
	<polygon points="237.782,231.693 239.552,231.693 239.982,231.693 241.992,231.693 235.578,222.532 233.94,223.68 238.151,229.693 
		236.381,229.693 233.94,229.693 235.212,231.51 236.324,233.099 240.94,239.693 242.579,238.547 237.963,231.951 	"/>
</g>
<g>
	<path d="M353.303,207.649c-1.444-6.742-7.433-11.8-14.605-11.8c-1.799,0-3.522,0.32-5.118,0.904
		c-0.949-5.108-5.404-8.98-10.788-8.98c-0.413,0-0.819,0.027-1.222,0.071c0.744,1.112,1.179,2.448,1.179,3.886c0,3.865-3.134,7-7,7
		c-1.438,0-2.773-0.435-3.886-1.179c-0.044,0.401-0.071,0.809-0.071,1.222c0,3.712,1.845,6.987,4.661,8.979
		c-1.653,1.907-2.661,4.389-2.661,7.111c0,5.983,4.836,10.836,10.813,10.865v0.003h0.188v-2l-0.178-0.003
		c-4.864-0.023-8.822-4.001-8.822-8.865c0-4.89,3.978-8.868,8.867-8.868c0.15,0,0.299,0.012,0.447,0.022l0.148,0.01l1.314,0.085
		l0.597-1.175c2.225-4.372,6.644-7.089,11.532-7.089c6.062,0,11.382,4.298,12.649,10.219l0.318,1.483l1.514,0.094
		c3.708,0.23,6.612,3.319,6.612,7.03c0,3.878-3.144,7.035-7.017,7.057c-0.042-0.003-0.079-0.005-0.117-0.005l-0.866,0.005v2h0.819
		v-0.006c0.042,0.001,0.082,0.006,0.124,0.006c5.001,0,9.057-4.054,9.057-9.057C361.791,211.866,358.037,207.944,353.303,207.649z
		 M325.383,204.032c-0.241-0.016-0.48-0.036-0.725-0.036c-2.537,0-4.865,0.876-6.715,2.334c-2.012-1.294-3.487-3.354-3.976-5.776
		c0.582,0.117,1.178,0.177,1.78,0.177c4.963,0,9-4.037,9-9c0-0.603-0.06-1.198-0.177-1.78c3.733,0.753,6.629,3.824,7.133,7.641
		C328.993,199.034,326.778,201.29,325.383,204.032z"/>
	
		<rect x="323.212" y="223.73" transform="matrix(-0.5736 -0.8191 0.8191 -0.5736 333.3398 622.9678)" width="11.183" height="1.999"/>
	
		<rect x="341.186" y="223.73" transform="matrix(-0.5736 -0.8191 0.8191 -0.5736 361.6254 637.6909)" width="11.183" height="1.999"/>
	<polygon points="339.619,228.735 341.389,228.735 341.819,228.735 343.829,228.735 337.415,219.574 335.777,220.722 
		339.988,226.735 338.218,226.735 335.777,226.735 337.049,228.552 338.161,230.141 342.777,236.735 344.416,235.589 339.8,228.993 
			"/>
</g>
<g>
	<g>
		<path d="M-57.26,294.104c-1.596-7.445-8.207-13.029-16.127-13.029c-6.423,0-11.977,3.678-14.702,9.035
			c-0.266-0.018-0.53-0.04-0.8-0.04c-6.627,0-11.999,5.372-11.999,12c0,6.607,5.34,11.965,11.938,11.998v0.003h2.062v-2h-1.604
			l-0.447-0.003c-5.485-0.027-9.948-4.513-9.948-9.998c0-5.514,4.485-10,9.999-10c0.175,0,0.347,0.014,0.52,0.025l0.148,0.01
			l1.316,0.088l0.598-1.176c2.492-4.899,7.443-7.942,12.92-7.942c6.79,0,12.75,4.814,14.172,11.448l0.317,1.482l1.514,0.095
			c4.203,0.262,7.496,3.763,7.496,7.971c0,4.397-3.565,7.977-7.957,8c-0.05-0.003-0.093-0.005-0.137-0.007l-2.043,0.007h-2.863v2
			h4.863v-0.007c0.046,0.001,0.091,0.007,0.137,0.007c5.521,0,10-4.477,10-10C-47.888,298.761-52.032,294.43-57.26,294.104z"/>
	</g>
	<g>
		<circle cx="-82.388" cy="307.647" r="1.5"/>
	</g>
	<g>
		<circle cx="-78.388" cy="313.571" r="1.5"/>
	</g>
	<g>
		<circle cx="-70.388" cy="313.571" r="1.5"/>
	</g>
	<g>
		<circle cx="-74.388" cy="307.647" r="1.5"/>
	</g>
	<g>
		<circle cx="-66.388" cy="307.647" r="1.5"/>
	</g>
	<g>
		<circle cx="-82.388" cy="319.593" r="1.5"/>
	</g>
	<g>
		<circle cx="-74.388" cy="319.593" r="1.5"/>
	</g>
	<g>
		<circle cx="-66.388" cy="319.593" r="1.5"/>
	</g>
</g>
<g>
	<g>
		<rect x="18.526" y="278.627" width="2" height="7.973"/>
	</g>
	<g>
		<rect x="-0.474" y="297.541" width="7.973" height="2"/>
	</g>
	<g>
		<rect x="4.199" y="286.275" transform="matrix(0.7071 0.7071 -0.7071 0.7071 205.5315 78.352)" width="7.974" height="2"/>
	</g>
	<g>
		<rect x="29.708" y="283.293" transform="matrix(0.7071 0.7071 -0.7071 0.7071 212.1306 62.428)" width="2" height="7.972"/>
	</g>
	<g>
		<path d="M49.038,304.417c-1.444-6.742-7.433-11.8-14.605-11.8c-2.185,0-4.258,0.47-6.127,1.313
			c-1.666-3.202-5.006-5.394-8.865-5.394c-5.522,0-10,4.477-10,9.999c0,2.46,0.898,4.702,2.373,6.442
			c-1.428,1.84-2.287,4.144-2.287,6.653c0,5.983,4.836,10.836,10.813,10.865v0.003h1.188v-2h-0.721l-0.457-0.003
			c-4.864-0.023-8.822-4.001-8.822-8.865c0-4.89,3.978-8.868,8.867-8.868c0.15,0,0.299,0.012,0.447,0.022l0.148,0.01l1.314,0.085
			l0.597-1.175c2.225-4.372,6.644-7.089,11.532-7.089c6.062,0,11.382,4.298,12.649,10.219l0.318,1.483l1.514,0.094
			c3.708,0.23,6.612,3.319,6.612,7.03c0,3.878-3.144,7.035-7.017,7.057c-0.042-0.003-0.079-0.005-0.117-0.005l-2.047,0.005h-1.819v2
			h3.819v-0.006c0.042,0.001,0.082,0.006,0.124,0.006c5.001,0,9.057-4.054,9.057-9.057
			C57.526,308.634,53.772,304.712,49.038,304.417z M21.118,300.8c-0.241-0.016-0.48-0.036-0.725-0.036
			c-2.766,0-5.281,1.042-7.2,2.743c-1.092-1.367-1.753-3.09-1.753-4.971c0-4.41,3.589-7.999,8-7.999c3.092,0,5.76,1.773,7.092,4.345
			C24.233,296.321,22.354,298.37,21.118,300.8z"/>
	</g>
	<g>
		<circle cx="25.016" cy="316.011" r="1.5"/>
	</g>
	<g>
		<circle cx="29.016" cy="322.011" r="1.5"/>
	</g>
	<g>
		<circle cx="37.016" cy="322.011" r="1.5"/>
	</g>
	<g>
		<circle cx="33.016" cy="316.011" r="1.5"/>
	</g>
	<g>
		<circle cx="41.016" cy="316.011" r="1.5"/>
	</g>
	<g>
		<circle cx="25.016" cy="328.032" r="1.5"/>
	</g>
	<g>
		<circle cx="33.016" cy="328.032" r="1.5"/>
	</g>
	<g>
		<circle cx="41.016" cy="328.032" r="1.5"/>
	</g>
</g>
<g>
	<g>
		<path d="M144.989,300.461c-1.444-6.742-7.433-11.8-14.605-11.8c-1.799,0-3.521,0.32-5.118,0.904
			c-0.949-5.108-5.404-8.98-10.788-8.98c-0.413,0-0.819,0.027-1.222,0.071c0.744,1.112,1.179,2.448,1.179,3.886c0,3.865-3.134,7-7,7
			c-1.438,0-2.773-0.435-3.886-1.179c-0.044,0.401-0.071,0.809-0.071,1.222c0,3.712,1.845,6.987,4.661,8.979
			c-1.653,1.907-2.661,4.389-2.661,7.111c0,5.983,4.836,10.836,10.813,10.865v0.003h1.188v-2h-0.721l-0.457-0.003
			c-4.864-0.023-8.822-4.001-8.822-8.865c0-4.89,3.978-8.868,8.867-8.868c0.15,0,0.299,0.012,0.447,0.022l0.148,0.01l1.314,0.085
			l0.597-1.175c2.225-4.372,6.644-7.089,11.532-7.089c6.062,0,11.382,4.298,12.649,10.219l0.318,1.483l1.514,0.094
			c3.708,0.23,6.612,3.319,6.612,7.03c0,3.878-3.144,7.035-7.017,7.057c-0.042-0.003-0.079-0.005-0.117-0.005l-2.047,0.005h-1.819v2
			h3.819v-0.006c0.042,0.001,0.082,0.006,0.124,0.006c5.001,0,9.057-4.054,9.057-9.057
			C153.478,304.678,149.724,300.756,144.989,300.461z M117.069,296.844c-0.241-0.016-0.48-0.036-0.725-0.036
			c-2.537,0-4.865,0.876-6.715,2.334c-2.012-1.294-3.486-3.354-3.976-5.776c0.582,0.117,1.178,0.177,1.78,0.177c4.963,0,9-4.037,9-9
			c0-0.603-0.06-1.198-0.177-1.78c3.733,0.753,6.629,3.824,7.134,7.64C120.679,291.846,118.464,294.101,117.069,296.844z"/>
	</g>
	<g>
		<circle cx="120.978" cy="312.054" r="1.5"/>
	</g>
	<g>
		<circle cx="124.978" cy="318.054" r="1.5"/>
	</g>
	<g>
		<circle cx="132.978" cy="318.054" r="1.5"/>
	</g>
	<g>
		<circle cx="128.978" cy="312.054" r="1.5"/>
	</g>
	<g>
		<circle cx="136.978" cy="312.054" r="1.5"/>
	</g>
	<g>
		<circle cx="120.978" cy="324.075" r="1.5"/>
	</g>
	<g>
		<circle cx="128.978" cy="324.075" r="1.5"/>
	</g>
	<g>
		<circle cx="136.978" cy="324.075" r="1.5"/>
	</g>
</g>
<g>
	<path d="M456.154,201.575c-1.596-7.445-8.207-13.029-16.127-13.029c-6.423,0-11.977,3.678-14.702,9.035
		c-0.266-0.018-0.53-0.04-0.8-0.04c-6.627,0-11.999,5.372-11.999,12c0,6.607,5.34,11.965,11.938,11.998v0.003h2.062v-2h-1.604
		l-0.447-0.003c-5.485-0.027-9.948-4.513-9.948-9.998c0-5.514,4.485-10,9.999-10c0.175,0,0.347,0.014,0.52,0.025l0.148,0.01
		l1.316,0.088l0.598-1.176c2.492-4.899,7.443-7.942,12.92-7.942c6.79,0,12.75,4.814,14.172,11.448l0.317,1.482l1.514,0.095
		c4.203,0.262,7.496,3.763,7.496,7.971c0,4.397-3.565,7.977-7.957,8c-0.05-0.003-0.093-0.005-0.137-0.007l-2.043,0.007h-2.863v2
		h4.863v-0.007c0.046,0.001,0.091,0.007,0.137,0.007c5.521,0,10-4.477,10-10C465.526,206.231,461.382,201.9,456.154,201.575z"/>
	<circle cx="430.526" cy="229.046" r="1.5"/>
	<circle cx="438.526" cy="235.046" r="1.5"/>
	<circle cx="446.526" cy="231.046" r="1.5"/>
	<rect x="429.526" y="212.57" width="2" height="11.976"/>
	<polygon points="439.526,230.511 439.526,228.57 439.526,216.57 437.526,216.57 437.526,228.57 437.526,230.511 437.526,230.546 
		439.526,230.546 	"/>
	<polygon points="447.526,226.323 447.526,224.57 447.526,212.57 445.526,212.57 445.526,224.57 445.526,226.323 445.526,226.546 
		447.526,226.546 	"/>
</g>
<g>
	<rect x="-292.223" y="273.188" width="2" height="7.973"/>
	<rect x="-311.223" y="292.103" width="7.973" height="2"/>
	<rect x="-306.55" y="280.836" transform="matrix(0.7071 0.7071 -0.7071 0.7071 110.6696 296.4918)" width="7.974" height="2"/>
	<rect x="-281.041" y="277.854" transform="matrix(0.7071 0.7071 -0.7071 0.7071 117.2687 280.5679)" width="2" height="7.972"/>
	<path d="M-261.711,298.979c-1.444-6.742-7.433-11.8-14.605-11.8c-2.185,0-4.258,0.47-6.126,1.313
		c-1.667-3.202-5.007-5.394-8.866-5.394c-5.522,0-10,4.477-10,9.999c0,2.46,0.899,4.702,2.373,6.442
		c-1.429,1.84-2.287,4.144-2.287,6.653c0,5.983,4.836,10.836,10.813,10.865v0.003h1.188v-2h-0.721l-0.457-0.003
		c-4.864-0.023-8.822-4.001-8.822-8.865c0-4.89,3.978-8.868,8.867-8.868c0.15,0,0.299,0.012,0.447,0.022l0.148,0.01l1.314,0.085
		l0.597-1.175c2.225-4.372,6.644-7.089,11.532-7.089c6.062,0,11.382,4.298,12.649,10.219l0.318,1.483l1.514,0.094
		c3.708,0.23,6.612,3.319,6.612,7.03c0,3.878-3.144,7.035-7.017,7.057c-0.042-0.003-0.079-0.005-0.117-0.005l-2.047,0.005h-0.819v2
		h2.819v-0.006c0.042,0.001,0.082,0.006,0.124,0.006c5.001,0,9.057-4.054,9.057-9.057
		C-253.223,303.195-256.977,299.273-261.711,298.979z M-289.631,295.361c-0.241-0.016-0.48-0.036-0.725-0.036
		c-2.766,0-5.282,1.041-7.2,2.743c-1.092-1.366-1.753-3.09-1.753-4.971c0-4.41,3.589-7.999,8-7.999c3.091,0,5.76,1.773,7.091,4.345
		C-286.516,290.884-288.396,292.932-289.631,295.361z"/>
	<circle cx="-285.232" cy="325.549" r="1.5"/>
	<circle cx="-277.232" cy="331.549" r="1.5"/>
	<circle cx="-269.232" cy="327.549" r="1.5"/>
	<rect x="-286.232" y="309.073" width="2" height="11.976"/>
	<polygon points="-276.232,327.014 -276.232,325.073 -276.232,313.073 -278.232,313.073 -278.232,325.073 -278.232,327.014 
		-278.232,327.049 -276.232,327.049 	"/>
	<polygon points="-268.232,322.826 -268.232,321.073 -268.232,309.073 -270.232,309.073 -270.232,321.073 -270.232,322.826 
		-270.232,323.049 -268.232,323.049 	"/>
</g>
<g>
	<path d="M-161.108,295.98c-1.444-6.742-7.433-11.8-14.605-11.8c-1.799,0-3.522,0.32-5.118,0.904
		c-0.949-5.108-5.404-8.98-10.788-8.98c-0.413,0-0.819,0.027-1.222,0.071c0.744,1.112,1.179,2.448,1.179,3.886c0,3.865-3.134,7-7,7
		c-1.438,0-2.773-0.435-3.886-1.179c-0.044,0.401-0.071,0.809-0.071,1.222c0,3.712,1.845,6.987,4.661,8.979
		c-1.653,1.907-2.661,4.389-2.661,7.111c0,5.983,4.836,10.836,10.813,10.865v0.003h1.188v-2h-0.721l-0.457-0.003
		c-4.864-0.023-8.822-4.001-8.822-8.865c0-4.89,3.978-8.868,8.867-8.868c0.15,0,0.299,0.012,0.447,0.022l0.148,0.01l1.314,0.085
		l0.597-1.175c2.225-4.372,6.644-7.089,11.532-7.089c6.062,0,11.382,4.298,12.649,10.219l0.318,1.483l1.514,0.094
		c3.708,0.23,6.612,3.319,6.612,7.03c0,3.878-3.144,7.035-7.017,7.057c-0.042-0.003-0.079-0.005-0.117-0.005l-2.047,0.005h-0.819v2
		h2.819v-0.006c0.042,0.001,0.082,0.006,0.124,0.006c5.001,0,9.057-4.054,9.057-9.057
		C-152.62,300.197-156.374,296.275-161.108,295.98z M-189.028,292.363c-0.241-0.016-0.48-0.036-0.725-0.036
		c-2.537,0-4.865,0.876-6.715,2.334c-2.012-1.294-3.487-3.354-3.976-5.776c0.582,0.117,1.178,0.177,1.78,0.177c4.963,0,9-4.037,9-9
		c0-0.603-0.06-1.198-0.177-1.78c3.733,0.753,6.629,3.824,7.133,7.64C-185.418,287.365-187.633,289.62-189.028,292.363z"/>
	<circle cx="-184.62" cy="322.555" r="1.5"/>
	<circle cx="-176.62" cy="328.555" r="1.5"/>
	<circle cx="-168.62" cy="324.555" r="1.5"/>
	<rect x="-185.62" y="306.079" width="2" height="11.976"/>
	<polygon points="-175.62,324.02 -175.62,322.079 -175.62,310.079 -177.62,310.079 -177.62,322.079 -177.62,324.02 -177.62,324.055 
		-175.62,324.055 	"/>
	<polygon points="-167.62,319.832 -167.62,318.079 -167.62,306.079 -169.62,306.079 -169.62,318.079 -169.62,319.832 
		-169.62,320.055 -167.62,320.055 	"/>
</g>
<g>
	<rect x="-309.223" y="400.421" width="56" height="2"/>
	<rect x="-305.223" y="406.421" width="50" height="2"/>
	<rect x="-299.223" y="412.421" width="36" height="2"/>
	<rect x="-307.223" y="394.421" width="52" height="2"/>
	<path d="M-295.349,386.416c0.175,0,0.347,0.014,0.519,0.025l0.149,0.01l1.316,0.088l0.598-1.176
		c2.493-4.899,7.443-7.942,12.92-7.942c6.79,0,12.75,4.814,14.171,11.448l0.318,1.482l1.514,0.095
		c1.207,0.075,2.335,0.425,3.336,0.975h3.286c-1.678-1.703-3.957-2.813-6.498-2.971c-1.596-7.445-8.207-13.029-16.127-13.029
		c-6.423,0-11.977,3.678-14.702,9.035c-0.266-0.018-0.53-0.04-0.8-0.04c-4.843,0-9.004,2.874-10.9,7.005h2.251
		C-302.267,388.435-299.042,386.416-295.349,386.416z"/>
</g>
<g>
	<rect x="-188.12" y="372.906" width="2" height="7.973"/>
	<rect x="-207.12" y="391.82" width="7.973" height="2"/>
	<rect x="-202.447" y="380.554" transform="matrix(0.7071 0.7071 -0.7071 0.7071 211.6716 252.0869)" width="7.974" height="2"/>
	<rect x="-176.938" y="377.572" transform="matrix(0.7071 0.7071 -0.7071 0.7071 218.2708 236.1629)" width="2" height="7.972"/>
	<rect x="-198.12" y="406.78" width="50" height="2"/>
	<rect x="-194.12" y="412.78" width="44" height="2"/>
	<rect x="-188.12" y="417.78" width="30" height="2"/>
	<rect x="-196.12" y="400.78" width="46" height="2"/>
	<path d="M-195.212,398.78h0.771h1.927h1.012c1.472-1.087,3.283-1.737,5.249-1.737c0.15,0,0.299,0.012,0.447,0.022l0.148,0.01
		l1.314,0.085l0.597-1.175c2.225-4.372,6.644-7.089,11.532-7.089c5.945,0,11.168,4.139,12.563,9.884h2.043v-0.084
		c-1.444-6.742-7.433-11.8-14.605-11.8c-2.185,0-4.258,0.47-6.126,1.313c-1.667-3.202-5.007-5.394-8.866-5.394
		c-5.522,0-10,4.477-10,9.999C-197.206,395.057-196.458,397.115-195.212,398.78z M-187.206,384.816c3.091,0,5.76,1.773,7.091,4.345
		c-2.298,1.44-4.178,3.488-5.413,5.918c-0.241-0.016-0.48-0.036-0.725-0.036c-2.764,0-5.274,1.045-7.189,2.745
		c-1.097-1.366-1.764-3.089-1.764-4.973C-195.206,388.405-191.617,384.816-187.206,384.816z"/>
</g>
<g>
	<rect x="-99.376" y="403.343" width="50" height="2"/>
	<rect x="-95.376" y="409.343" width="44" height="2"/>
	<rect x="-89.376" y="414.343" width="30" height="2"/>
	<rect x="-97.376" y="397.343" width="46" height="2"/>
	<path d="M-95.733,395.343h0.037h1.884h1.055c1.472-1.087,3.283-1.737,5.249-1.737c0.15,0,0.299,0.012,0.447,0.022l0.148,0.01
		l1.314,0.085l0.597-1.175c2.225-4.372,6.644-7.089,11.532-7.089c5.945,0,11.168,4.139,12.563,9.884h2.043v-0.084
		c-1.444-6.742-7.433-11.8-14.605-11.8c-1.799,0-3.521,0.32-5.117,0.903c-0.945-5.111-5.402-8.987-10.789-8.987
		c-0.413,0-0.819,0.027-1.222,0.071c0.744,1.112,1.179,2.448,1.179,3.886c0,3.865-3.134,7-7,7c-1.438,0-2.773-0.435-3.886-1.179
		c-0.044,0.401-0.071,0.809-0.071,1.222C-100.376,390.079-98.54,393.35-95.733,395.343z M-96.419,388.332c4.963,0,9-4.037,9-9
		c0-0.603-0.06-1.198-0.177-1.78c3.735,0.753,6.633,3.828,7.134,7.647c-2.712,1.443-4.927,3.699-6.322,6.442
		c-0.241-0.016-0.48-0.036-0.725-0.036c-2.534,0-4.855,0.879-6.701,2.335c-2.02-1.293-3.5-3.356-3.989-5.785
		C-97.617,388.272-97.021,388.332-96.419,388.332z"/>
</g>
<g>
	<path d="M32.516,406.356H13.042l-0.578-0.003c-5.485-0.027-9.948-4.513-9.948-9.998c0-5.514,4.485-10,9.999-10
		c0.175,0,0.347,0.014,0.519,0.025l0.149,0.01l1.316,0.088l0.598-1.176c2.493-4.899,7.443-7.942,12.92-7.942
		c6.79,0,12.75,4.814,14.171,11.448l0.318,1.482l1.514,0.095c1.822,0.113,3.463,0.845,4.746,1.971h2.732
		c-1.707-2.262-4.348-3.78-7.354-3.967c-1.596-7.445-8.207-13.029-16.127-13.029c-6.423,0-11.977,3.678-14.702,9.035
		c-0.266-0.018-0.53-0.04-0.8-0.04c-6.627,0-11.999,5.372-11.999,12c0,6.607,5.34,11.965,11.938,11.998v0.003h20.062
		c2.205,0,4,1.794,4,4s-1.795,4-4,4v2c3.314,0,6-2.686,6-6C38.516,409.043,35.83,406.356,32.516,406.356z"/>
	<path d="M36.516,402.356H20.527v2h15.988c3.314,0,6-2.687,6-6c0-3.314-2.686-6-6-6v2c2.205,0,4,1.794,4,4
		S38.721,402.356,36.516,402.356z"/>
	<path d="M49.516,396.356c1.654,0,3,1.346,3,3s-1.346,3-3,3c-0.043,0-0.083-0.011-0.126-0.013h-4.862
		c0.003,0.005,0.009,0.008,0.012,0.013h-0.023v2h5.5v-0.051c2.523-0.254,4.5-2.358,4.5-4.949c0-2.762-2.238-5-5-5V396.356z"/>
	<path d="M53.516,406.356h-13v2h9.022c-0.004,0.005-0.008,0.008-0.011,0.013h3.862c0.043-0.002,0.083-0.013,0.126-0.013
		c1.654,0,3,1.346,3,3s-1.346,3-3,3v2c2.762,0,5-2.238,5-5S56.277,406.356,53.516,406.356z"/>
	<rect x="14.516" y="402.356" width="4" height="2"/>
</g>
<path d="M-175.046,7.253c6.95,1.305,12.226,7.419,12.226,14.742c0,8.272-6.729,15.002-15,15.002c-6.79,0-12.531-4.49-14.366-10.728
	c1.398,0.461,2.867,0.698,4.366,0.698c7.72,0,14-6.281,14-14.001C-173.82,10.982-174.244,9.038-175.046,7.253 M-177.82,4.996
	c-0.338,0-0.668,0.031-1,0.051c1.861,2.113,3,4.881,3,7.92c0,6.627-5.372,12.001-12,12.001c-2.599,0-4.998-0.835-6.963-2.239
	c0.387,9.047,7.821,16.269,16.963,16.269c9.39,0,17-7.612,17-17.002S-168.431,4.996-177.82,4.996L-177.82,4.996z"/>
<g>
	<path d="M-281.216,9.991c-7.18,0-13,5.819-13,12.999c0,7.181,5.82,13.002,13,13.002s13-5.821,13-13.002
		C-268.216,15.811-274.036,9.991-281.216,9.991z M-281.216,33.992c-6.065,0-11-4.936-11-11.002c0-6.064,4.935-10.999,11-10.999
		s11,4.935,11,10.999C-270.216,29.057-275.15,33.992-281.216,33.992z"/>
	<rect x="-282.223" y="-3.003" width="2" height="10"/>
	<rect x="-282.223" y="38.997" width="2" height="10"/>
	<rect x="-307.216" y="21.997" width="9.993" height="2"/>
	<rect x="-265.223" y="21.997" width="10.007" height="2"/>
	<rect x="-267.523" y="3.083" transform="matrix(0.7071 0.7071 -0.7071 0.7071 -72.2026 190.8876)" width="2" height="10.409"/>
	<rect x="-296.932" y="32.492" transform="matrix(-0.7071 -0.7071 0.7071 -0.7071 -531.8425 -144.9028)" width="2" height="10.41"/>
	<rect x="-301.132" y="7.293" transform="matrix(0.7071 0.7071 -0.7071 0.7071 -80.8114 211.681)" width="10.409" height="2"/>
	<rect x="-271.723" y="36.702" transform="matrix(-0.7072 -0.7071 0.7071 -0.7072 -481.6454 -124.0821)" width="10.41" height="2"/>
</g>
<g>
	<rect x="116.95" y="367.858" width="2" height="7.973"/>
	<rect x="97.978" y="386.845" width="7.973" height="2"/>
	<rect x="102.703" y="375.626" transform="matrix(0.7071 0.7071 -0.7071 0.7071 297.5637 34.8697)" width="7.974" height="2"/>
	<rect x="128.212" y="372.644" transform="matrix(0.7071 0.7071 -0.7071 0.7071 304.1628 18.9457)" width="2" height="7.972"/>
	<path d="M131.978,409.858l0.005-0.007h-12.536l-0.594-0.003c-4.864-0.024-8.822-4.001-8.822-8.865c0-4.89,3.978-8.868,8.867-8.868
		c0.15,0,0.299,0.012,0.447,0.021l0.148,0.011l1.314,0.085l0.597-1.174c2.225-4.373,6.644-7.09,11.532-7.09
		c5.916,0,11.114,4.099,12.54,9.8h2.065c-1.444-6.742-7.433-11.8-14.605-11.8c-2.185,0-4.258,0.47-6.126,1.313
		c-1.667-3.202-5.007-5.394-8.866-5.394c-5.522,0-10,4.477-10,9.999c0,2.46,0.899,4.702,2.373,6.442
		c-1.429,1.84-2.287,4.144-2.287,6.653c0,5.983,4.836,10.836,10.813,10.865v0.003h13.135v0.007c2.205,0,4,1.794,4,4s-1.795,4-4,4v2
		c3.314,0,6-2.686,6-6C137.978,412.545,135.292,409.858,131.978,409.858z M117.944,379.889c3.091,0,5.76,1.773,7.091,4.345
		c-2.298,1.439-4.178,3.488-5.413,5.918c-0.241-0.016-0.48-0.036-0.725-0.036c-2.766,0-5.282,1.042-7.2,2.743
		c-1.092-1.367-1.753-3.09-1.753-4.971C109.944,383.478,113.533,379.889,117.944,379.889z"/>
	<path d="M135.978,405.858h-9.988v2h9.988c3.314,0,6-2.687,6-6c0-3.314-2.686-6-6-6v2c2.205,0,4,1.794,4,4
		S138.183,405.858,135.978,405.858z"/>
	<path d="M144.001,405.858h-0.023v2h5.5v-0.051c2.523-0.254,4.5-2.358,4.5-4.949c0-2.762-2.238-5-5-5v2c1.654,0,3,1.346,3,3
		s-1.346,3-3,3c-0.043,0-0.083-0.011-0.126-0.013h-4.862C143.992,405.851,143.998,405.854,144.001,405.858z"/>
	<path d="M152.978,409.858h-13v2H149c-0.004,0.004-0.008,0.008-0.011,0.013h3.862c0.043-0.002,0.083-0.013,0.126-0.013
		c1.654,0,3,1.346,3,3s-1.346,3-3,3v2c2.762,0,5-2.238,5-5S155.739,409.858,152.978,409.858z"/>
	<rect x="119.978" y="405.858" width="4" height="2"/>
</g>
<g>
	<path d="M231.939,407.853l0.005-0.007h-12.536l-0.594-0.003c-4.864-0.024-8.822-4.001-8.822-8.865c0-4.89,3.978-8.868,8.867-8.868
		c0.15,0,0.299,0.012,0.447,0.021l0.148,0.011l1.314,0.085l0.597-1.174c2.225-4.373,6.644-7.09,11.532-7.09
		c5.916,0,11.114,4.099,12.54,9.8h2.065c-1.444-6.742-7.433-11.8-14.605-11.8c-1.806,0-3.536,0.322-5.138,0.91
		c-0.938-5.123-5.4-9.01-10.794-9.01c-0.413,0-0.819,0.027-1.222,0.071c0.744,1.112,1.179,2.448,1.179,3.886c0,3.865-3.134,7-7,7
		c-1.438,0-2.773-0.435-3.886-1.179c-0.044,0.401-0.071,0.809-0.071,1.222c0,3.725,1.858,7.009,4.69,8.998
		c-1.655,1.907-2.665,4.392-2.665,7.116c0,5.983,4.836,10.836,10.813,10.865v0.003h13.135v0.007c2.205,0,4,1.794,4,4s-1.795,4-4,4v2
		c3.314,0,6-2.686,6-6C237.939,410.539,235.254,407.853,231.939,407.853z M208.144,384.644c0.582,0.117,1.178,0.177,1.78,0.177
		c4.963,0,9-4.037,9-9c0-0.603-0.06-1.198-0.177-1.78c3.744,0.755,6.646,3.842,7.138,7.674c-2.702,1.444-4.909,3.696-6.301,6.432
		c-0.241-0.016-0.48-0.036-0.725-0.036c-2.535,0-4.861,0.875-6.71,2.33C210.121,389.147,208.635,387.079,208.144,384.644z"/>
	<path d="M235.939,403.853h-9.988v2h9.988c3.314,0,6-2.687,6-6c0-3.314-2.686-6-6-6v2c2.205,0,4,1.794,4,4
		S238.145,403.853,235.939,403.853z"/>
	<path d="M243.963,403.853h-0.023v2h5.5v-0.051c2.523-0.254,4.5-2.358,4.5-4.949c0-2.762-2.238-5-5-5v2c1.654,0,3,1.346,3,3
		s-1.346,3-3,3c-0.043,0-0.083-0.011-0.126-0.013h-4.862C243.954,403.845,243.96,403.849,243.963,403.853z"/>
	<path d="M252.939,407.853h-13v2h9.022c-0.004,0.004-0.008,0.008-0.011,0.013h3.862c0.043-0.002,0.083-0.013,0.126-0.013
		c1.654,0,3,1.346,3,3s-1.346,3-3,3v2c2.762,0,5-2.238,5-5S255.701,407.853,252.939,407.853z"/>
	<rect x="219.939" y="403.853" width="4" height="2"/>
</g>
<g>
	<rect x="332.832" y="370.421" width="2" height="10"/>
	<rect x="307.839" y="395.421" width="9.993" height="2"/>
	<rect x="347.532" y="376.507" transform="matrix(0.7071 0.7071 -0.7071 0.7071 371.9933 -134.6484)" width="2" height="10.409"/>
	<rect x="313.923" y="380.716" transform="matrix(0.7071 0.7071 -0.7071 0.7071 363.3845 -113.855)" width="10.409" height="2"/>
	<path d="M337.832,410.421h-24v2h24c2.205,0,4,1.794,4,4s-1.795,4-4,4v2c3.314,0,6-2.686,6-6
		C343.832,413.107,341.146,410.421,337.832,410.421z"/>
	<path d="M349.855,406.421h-0.023v2h5.5v-0.051c2.523-0.254,4.5-2.358,4.5-4.949c0-2.762-2.238-5-5-5v2c1.654,0,3,1.346,3,3
		s-1.346,3-3,3c-0.043,0-0.083-0.011-0.126-0.013h-4.862C349.847,406.413,349.853,406.417,349.855,406.421z"/>
	<path d="M358.832,410.421h-13v2h9.022c-0.004,0.004-0.008,0.008-0.011,0.013h3.862c0.043-0.002,0.083-0.013,0.126-0.013
		c1.654,0,3,1.346,3,3s-1.346,3-3,3v2c2.762,0,5-2.238,5-5S361.594,410.421,358.832,410.421z"/>
	<path d="M325.541,406.421h-11.709v2h12.012h0.822h15.166c3.314,0,6-2.687,6-6c0-3.314-2.686-6-6-6v2c2.205,0,4,1.794,4,4
		s-1.795,4-4,4h-12.538c-3.802-1.734-6.455-5.563-6.455-10.007c0-6.064,4.935-10.999,11-10.999c5.384,0,9.868,3.891,10.81,9.006
		h2.021c-0.961-6.23-6.331-11.006-12.831-11.006c-7.18,0-13,5.819-13,12.999C320.839,400.439,322.669,404.036,325.541,406.421z"/>
</g>
<g>
	<path d="M438.059,403.864h-24v2h24c2.205,0,4,1.794,4,4s-1.795,4-4,4v2c3.314,0,6-2.686,6-6
		C444.059,406.551,441.373,403.864,438.059,403.864z"/>
	<path d="M455.559,401.864v-0.051c2.523-0.254,4.5-2.358,4.5-4.949c0-2.762-2.238-5-5-5v2c1.654,0,3,1.346,3,3s-1.346,3-3,3
		c-0.043,0-0.083-0.011-0.126-0.013h-4.862c0.004,0.005,0.009,0.009,0.012,0.013h-0.023v2H455.559z"/>
	<path d="M459.059,403.864h-13v2h9.022c-0.003,0.004-0.007,0.008-0.011,0.013h3.862c0.043-0.002,0.083-0.013,0.126-0.013
		c1.654,0,3,1.346,3,3s-1.346,3-3,3v2c2.762,0,5-2.238,5-5S461.82,403.864,459.059,403.864z"/>
	<path d="M426.893,401.864h15.166c3.314,0,6-2.687,6-6c0-3.314-2.686-6-6-6v2c2.205,0,4,1.794,4,4s-1.795,4-4,4h-12.586
		c-2.596-1.188-4.658-3.339-5.69-6.034c0.849,0.204,1.724,0.309,2.612,0.309c6.168,0,11.187-5.019,11.187-11.188
		c0-1.276-0.22-2.532-0.64-3.717c4.046,1.102,7.168,4.459,7.937,8.63h2.018c-0.964-6.237-6.338-11.016-12.846-11.016
		c-0.259,0-0.511,0.024-0.766,0.039c1.425,1.618,2.297,3.737,2.297,6.063c0,5.072-4.112,9.188-9.187,9.188
		c-1.988,0-3.826-0.641-5.33-1.715c0.162,3.801,1.962,7.165,4.699,9.44h-11.705v2h12.012H426.893z"/>
</g>
<g>
	<path d="M-281.723,489.058h-20c-1.103,0-2-0.897-2-2s0.897-2,2-2h3.445h0.555v-2h-4c-2.209,0-4,1.791-4,4s1.791,4,4,4h20
		c2.205,0,4,1.794,4,4s-1.795,4-4,4v2c3.314,0,6-2.686,6-6C-275.723,491.744-278.408,489.058-281.723,489.058z"/>
	<path d="M-279.723,473.058v2c2.205,0,4,1.794,4,4s-1.795,4-4,4h-15.988v2h15.988c3.314,0,6-2.687,6-6
		C-273.723,475.743-276.408,473.058-279.723,473.058z"/>
	<path d="M-273.723,485.058v2h5.5v-0.051c2.523-0.254,4.5-2.358,4.5-4.949c0-2.762-2.238-5-5-5v2c1.654,0,3,1.346,3,3s-1.346,3-3,3
		c-0.043,0-0.083-0.011-0.126-0.013h-4.862c0.003,0.005,0.009,0.009,0.012,0.013H-273.723z"/>
	<path d="M-262.723,489.058h-11v2h7.022c-0.004,0.004-0.008,0.008-0.011,0.013h3.862c0.043-0.002,0.083-0.013,0.126-0.013
		c1.654,0,3,1.346,3,3s-1.346,3-3,3v2c2.762,0,5-2.238,5-5S-259.961,489.058-262.723,489.058z"/>
</g>
<path d="M254.569,475.404v-0.038h-38.376c-1.103,0-2-0.897-2-2s0.897-2,2-2h33c2.762,0,5-2.238,5-5s-2.238-5-5-5h-37.875v0.008
	c-0.042-0.001-0.083-0.008-0.125-0.008c-2.762,0-5,2.238-5,5s2.238,5,5,5v-2c-1.654,0-3-1.346-3-3s1.346-3,3-3h0.125h3.853h34.022
	c1.654,0,3,1.346,3,3s-1.346,3-3,3h-33c-2.209,0-4,1.791-4,4s1.791,4,4,4h38c1.103,0,2,0.897,2,2s-0.897,2-2,2h-32
	c-2.209,0-4,1.791-4,4s1.791,4,4,4h22c1.103,0,2,0.897,2,2s-0.897,2-2,2h-24.01v0.001c-2.204,0.006-3.99,1.793-3.99,3.999
	s1.786,3.993,3.99,3.999v0.001h12.01c1.103,0,2,0.897,2,2s-0.897,2-2,2h-2c-2.209,0-4,1.791-4,4s1.791,4,4,4v-2
	c-1.103,0-2-0.897-2-2s0.897-2,2-2h2c2.209,0,4-1.791,4-4s-1.791-4-4-4h-12c-1.103,0-2-0.897-2-2s0.897-2,2-2h24
	c2.209,0,4-1.791,4-4c0-2.152-1.704-3.895-3.834-3.983v-0.017h-22.166c-1.103,0-2-0.897-2-2s0.897-2,2-2h32c2.209,0,4-1.791,4-4
	C258.193,477.286,256.6,475.597,254.569,475.404z"/>
<path d="M439.984,466.082v-2.024h-2v2.024c-13.01,0.513-23.462,10.965-23.975,23.976h1.674c1.14-1.222,2.748-2,4.551-2
	c2.26,0,4.233,1.203,5.331,3h1.838c1.098-1.797,3.071-3,5.331-3c2.204,0,4.137,1.144,5.25,2.866v15.134c0,2.21,1.791,4,4,4
	s4-1.79,4-4h-2c0,1.103-0.897,2-2,2s-2-0.897-2-2v-15.134c1.113-1.723,3.046-2.866,5.25-2.866c2.26,0,4.233,1.203,5.331,3h1.838
	c1.098-1.797,3.071-3,5.331-3c1.803,0,3.411,0.778,4.551,2h1.674C463.446,477.047,452.994,466.595,439.984,466.082z
	 M457.734,486.058c-2.496,0-4.736,1.114-6.25,2.87c-1.514-1.756-3.754-2.87-6.25-2.87s-4.736,1.114-6.25,2.87
	c-1.514-1.756-3.754-2.87-6.25-2.87s-4.736,1.114-6.25,2.87c-1.514-1.756-3.755-2.87-6.25-2.87c-1.402,0-2.731,0.351-3.897,0.975
	c1.909-10.769,11.339-18.975,22.647-18.975s20.738,8.206,22.647,18.975C460.466,486.408,459.137,486.058,457.734,486.058z"/>
<g>
	<path d="M34.689,590.37v-17.105c0-2.762-2.238-5-5-5s-5,2.238-5,5v17.105c-1.236,1.263-2,2.988-2,4.895c0,3.866,3.134,7,7,7
		s7-3.134,7-7C36.689,593.358,35.926,591.633,34.689,590.37z M29.689,600.265c-2.757,0-5-2.243-5-5c0-1.313,0.508-2.554,1.429-3.495
		l0.571-0.583v-0.816v-17.105c0-1.654,1.346-3,3-3s3,1.346,3,3v17.105v0.816l0.571,0.583c0.921,0.941,1.429,2.183,1.429,3.495
		C34.689,598.021,32.446,600.265,29.689,600.265z"/>
	<path d="M30.689,592.44v-15.176h-2v15.176c-1.167,0.413-2.008,1.516-2.008,2.824c0,1.662,1.347,3.008,3.008,3.008
		c1.662,0,3.008-1.346,3.008-3.008C32.697,593.956,31.857,592.854,30.689,592.44z M29.689,596.272c-0.556,0-1.008-0.452-1.008-1.008
		s0.452-1.008,1.008-1.008s1.008,0.452,1.008,1.008S30.245,596.272,29.689,596.272z"/>
</g>
<g>
	<path d="M134.478,590.37v-17.105c0-2.762-2.238-5-5-5s-5,2.238-5,5v17.105c-1.236,1.263-2,2.988-2,4.895c0,3.866,3.134,7,7,7
		s7-3.134,7-7C136.478,593.358,135.714,591.633,134.478,590.37z M129.478,600.265c-2.757,0-5-2.243-5-5
		c0-1.313,0.508-2.554,1.429-3.495l0.571-0.583v-0.816v-17.105c0-1.654,1.346-3,3-3s3,1.346,3,3v17.105v0.816l0.571,0.583
		c0.921,0.941,1.429,2.183,1.429,3.495C134.478,598.021,132.234,600.265,129.478,600.265z"/>
	<path d="M130.478,592.44v-20.176h-2v20.176c-1.167,0.413-2.008,1.516-2.008,2.824c0,1.662,1.347,3.008,3.008,3.008
		c1.662,0,3.008-1.346,3.008-3.008C132.485,593.956,131.646,592.854,130.478,592.44z M129.478,596.272
		c-0.556,0-1.008-0.452-1.008-1.008s0.452-1.008,1.008-1.008s1.008,0.452,1.008,1.008S130.033,596.272,129.478,596.272z"/>
</g>
<g>
	<path d="M-68.42,590.37v-17.105c0-2.762-2.238-5-5-5s-5,2.238-5,5v17.105c-1.236,1.263-2,2.988-2,4.895c0,3.866,3.134,7,7,7
		s7-3.134,7-7C-66.42,593.358-67.184,591.633-68.42,590.37z M-73.42,600.265c-2.757,0-5-2.243-5-5c0-1.313,0.508-2.554,1.429-3.495
		l0.571-0.583v-0.816v-17.105c0-1.654,1.346-3,3-3s3,1.346,3,3v17.105v0.816l0.571,0.583c0.921,0.941,1.429,2.183,1.429,3.495
		C-68.42,598.021-70.663,600.265-73.42,600.265z"/>
	<path d="M-72.42,592.44v-10.176h-2v10.176c-1.167,0.413-2.008,1.516-2.008,2.824c0,1.662,1.347,3.008,3.008,3.008
		c1.662,0,3.008-1.346,3.008-3.008C-70.412,593.956-71.252,592.854-72.42,592.44z M-73.42,596.272c-0.556,0-1.008-0.452-1.008-1.008
		s0.452-1.008,1.008-1.008s1.008,0.452,1.008,1.008S-72.864,596.272-73.42,596.272z"/>
</g>
<g>
	<path d="M-172.065,590.37v-17.105c0-2.762-2.238-5-5-5s-5,2.238-5,5v17.105c-1.236,1.263-2,2.988-2,4.895c0,3.866,3.134,7,7,7
		s7-3.134,7-7C-170.065,593.358-170.829,591.633-172.065,590.37z M-177.065,600.265c-2.757,0-5-2.243-5-5
		c0-1.313,0.508-2.554,1.429-3.495l0.571-0.583v-0.816v-17.105c0-1.654,1.346-3,3-3s3,1.346,3,3v17.105v0.816l0.571,0.583
		c0.921,0.941,1.429,2.183,1.429,3.495C-172.065,598.021-174.309,600.265-177.065,600.265z"/>
	<path d="M-176.065,592.44v-5.176h-2v5.176c-1.167,0.413-2.008,1.516-2.008,2.824c0,1.662,1.347,3.008,3.008,3.008
		c1.662,0,3.008-1.346,3.008-3.008C-174.058,593.956-174.897,592.854-176.065,592.44z M-177.065,596.272
		c-0.556,0-1.008-0.452-1.008-1.008s0.452-1.008,1.008-1.008s1.008,0.452,1.008,1.008S-176.51,596.272-177.065,596.272z"/>
</g>
<g>
	<path d="M-276.723,590.37v-17.105c0-2.762-2.238-5-5-5s-5,2.238-5,5v17.105c-1.236,1.263-2,2.988-2,4.895c0,3.866,3.134,7,7,7
		s7-3.134,7-7C-274.723,593.358-275.486,591.633-276.723,590.37z M-281.723,600.265c-2.757,0-5-2.243-5-5
		c0-1.313,0.508-2.554,1.429-3.495l0.571-0.583v-0.816v-17.105c0-1.654,1.346-3,3-3s3,1.346,3,3v17.105v0.816l0.571,0.583
		c0.921,0.941,1.429,2.183,1.429,3.495C-276.723,598.021-278.966,600.265-281.723,600.265z"/>
	<path d="M-281.723,592.257c-1.661,0-3.008,1.347-3.008,3.008c0,1.662,1.347,3.008,3.008,3.008c1.662,0,3.008-1.346,3.008-3.008
		C-278.715,593.604-280.061,592.257-281.723,592.257z M-281.723,596.272c-0.556,0-1.008-0.452-1.008-1.008s0.452-1.008,1.008-1.008
		s1.008,0.452,1.008,1.008S-281.167,596.272-281.723,596.272z"/>
</g>
<g>
	<path d="M223.202,570.577c-2.209,0-4,1.791-4,4c0,2.21,1.791,4,4,4c2.211,0,4-1.79,4-4
		C227.202,572.368,225.413,570.577,223.202,570.577z M223.202,576.577c-1.103,0-2-0.897-2-2s0.897-2,2-2s2,0.897,2,2
		S224.305,576.577,223.202,576.577z"/>
	<path d="M237.202,598.577c-4.41,0-7.999-3.589-7.999-7.999v-4.002c0-4.41,3.589-7.999,7.999-7.999c2.715,0,5.115,1.362,6.563,3.437
		l1.43-1.43c-1.824-2.429-4.72-4.007-7.992-4.007c-5.522,0-9.999,4.478-9.999,9.999v4.002c0,5.521,4.477,9.999,9.999,9.999
		c3.272,0,6.168-1.579,7.992-4.008l-1.43-1.43C242.318,597.214,239.918,598.577,237.202,598.577z"/>
</g>
<g>
	<path d="M327.898,570.456c-2.209,0-4,1.791-4,4c0,2.21,1.791,4,4,4c2.211,0,4-1.79,4-4
		C331.898,572.247,330.109,570.456,327.898,570.456z M327.898,576.456c-1.103,0-2-0.897-2-2s0.897-2,2-2s2,0.897,2,2
		S329.001,576.456,327.898,576.456z"/>
	<polygon points="347.773,578.577 347.773,576.577 335.773,576.577 333.773,576.577 333.773,600.577 335.773,600.577 
		335.773,588.577 343.773,588.577 343.773,586.577 335.773,586.577 335.773,578.577 	"/>
</g>
<g>
	<path d="M438.984,574.269c-7.179,0-13,5.82-13,13s5.821,13,13,13s13-5.82,13-13S446.163,574.269,438.984,574.269z M438.984,598.269
		c-6.065,0-11-4.935-11-11s4.935-11,11-11s11,4.935,11,11S445.05,598.269,438.984,598.269z"/>
	<path d="M434.718,591.511l6.363-2.121l2.121-6.364l-6.363,2.122L434.718,591.511z M438.42,586.729l1.62-0.54l-0.54,1.62l-1.62,0.54
		L438.42,586.729z"/>
</g>
<g>
	<path d="M-281.723,664.786c-7.179,0-13,5.82-13,13s5.821,13,13,13s13-5.82,13-13S-274.544,664.786-281.723,664.786z
		 M-281.723,688.786c-6.065,0-11-4.934-11-11c0-6.064,4.935-11,11-11s11,4.936,11,11
		C-270.723,683.853-275.657,688.786-281.723,688.786z"/>
	<path d="M-279.161,676.208l-2.586-4.422l-2.529,4.33h0.007c-0.299,0.467-0.478,1.018-0.478,1.613c0,1.656,1.343,3,3,3s3-1.344,3-3
		c0-0.559-0.162-1.074-0.428-1.521H-279.161z M-281.747,678.729c-0.552,0-1-0.449-1-1c0-0.188,0.055-0.367,0.162-0.535l0.864-1.355
		l0.826,1.391c0.098,0.164,0.147,0.332,0.147,0.5C-280.747,678.28-281.195,678.729-281.747,678.729z"/>
</g>
<g>
	<path d="M-176.938,664.786c-7.18,0-13,5.82-13,13s5.82,13,13,13s13-5.82,13-13S-169.759,664.786-176.938,664.786z
		 M-176.938,688.786c-6.065,0-11-4.934-11-11c0-6.064,4.935-11,11-11s11,4.936,11,11
		C-165.938,683.853-170.873,688.786-176.938,688.786z"/>
	<path d="M-175.35,675.206c-0.467-0.299-1.018-0.477-1.613-0.477c-1.658,0-3,1.342-3,3c0,1.656,1.342,3,3,3
		c0.557,0,1.072-0.162,1.52-0.428v0.014l4.422-2.586l-4.328-2.529V675.206z M-176.465,678.581c-0.164,0.098-0.332,0.148-0.498,0.148
		c-0.552,0-1-0.449-1-1c0-0.553,0.448-1,1-1c0.188,0,0.368,0.053,0.535,0.16l1.355,0.865L-176.465,678.581z"/>
</g>
<g>
	<path d="M-73.888,664.786c-7.18,0-13,5.82-13,13s5.82,13,13,13s13-5.82,13-13S-66.708,664.786-73.888,664.786z M-73.888,688.786
		c-6.065,0-11-4.934-11-11c0-6.064,4.935-11,11-11s11,4.936,11,11C-62.888,683.853-67.822,688.786-73.888,688.786z"/>
	<path d="M-73.888,674.729c-1.656,0-3,1.342-3,3c0,0.557,0.162,1.072,0.428,1.52h-0.014l2.586,4.422l2.529-4.328h-0.006
		c0.299-0.467,0.477-1.018,0.477-1.613C-70.888,676.071-72.229,674.729-73.888,674.729z M-73.049,678.265l-0.865,1.355l-0.826-1.393
		c-0.098-0.164-0.147-0.332-0.147-0.498c0-0.553,0.448-1,1-1s1,0.447,1,1C-72.888,677.917-72.941,678.097-73.049,678.265z"/>
</g>
<g>
	<path d="M29.526,664.786c-7.179,0-13,5.82-13,13s5.821,13,13,13s13-5.82,13-13S36.705,664.786,29.526,664.786z M29.526,688.786
		c-6.065,0-11-4.934-11-11c0-6.064,4.935-11,11-11s11,4.936,11,11C40.526,683.853,35.592,688.786,29.526,688.786z"/>
	<path d="M29.485,674.729c-0.557,0-1.072,0.162-1.52,0.428v-0.014l-4.422,2.586l4.328,2.529v-0.006
		c0.467,0.299,1.018,0.477,1.613,0.477c1.658,0,3-1.342,3-3C32.485,676.073,31.144,674.729,29.485,674.729z M29.485,678.729
		c-0.188,0-0.368-0.055-0.535-0.162l-1.355-0.865l1.393-0.826c0.164-0.098,0.332-0.146,0.498-0.146c0.552,0,1,0.447,1,1
		C30.485,678.28,30.037,678.729,29.485,678.729z"/>
</g>
<g>
	<rect x="-178.625" y="468.058" width="2" height="10"/>
	<rect x="-163.925" y="474.144" transform="matrix(0.7071 0.7071 -0.7071 0.7071 291.2306 255.6034)" width="2" height="10.409"/>
	<rect x="-197.534" y="478.353" transform="matrix(0.7071 0.7071 -0.7071 0.7071 282.6217 276.3968)" width="10.409" height="2"/>
	<polygon points="-184.293,497.312 -182.879,498.726 -178.625,494.472 -178.625,504.058 -176.625,504.058 -176.625,494.472 
		-172.372,498.726 -170.958,497.312 -177.625,490.644 	"/>
	<path d="M-164.618,494.057c0-0.002,0-0.004,0-0.006c0-7.18-5.82-12.999-13-12.999s-13,5.819-13,12.999c0,0.002,0,0.004,0,0.006h-13
		v2h18v-2h-3c0-0.002,0-0.004,0-0.006c0-6.064,4.935-10.999,11-10.999s11,4.935,11,10.999c0,0.002,0,0.004,0,0.006h-3v2h17.995v-2
		H-164.618z"/>
</g>
<g>
	<rect x="-74.88" y="466.87" width="2" height="10"/>
	<rect x="-60.18" y="472.956" transform="matrix(0.7071 0.7071 -0.7071 0.7071 320.7772 181.8967)" width="2" height="10.409"/>
	<rect x="-93.789" y="477.166" transform="matrix(0.7071 0.7071 -0.7071 0.7071 312.1683 202.6901)" width="10.409" height="2"/>
	<polygon points="-72.88,501.417 -72.88,490.87 -74.88,490.87 -74.88,501.417 -79.134,497.163 -80.548,498.577 -73.88,505.245 
		-67.213,498.577 -68.627,497.163 	"/>
	<path d="M-60.873,492.869c0-0.002,0-0.004,0-0.006c0-7.18-5.82-12.999-13-12.999s-13,5.819-13,12.999c0,0.002,0,0.004,0,0.006h-13
		v2h22v-2h-7c0-0.002,0-0.004,0-0.006c0-6.064,4.935-10.999,11-10.999s11,4.935,11,10.999c0,0.002,0,0.004,0,0.006h-7v2h21.995v-2
		H-60.873z"/>
</g>
<g>
	<polygon points="129.478,500.883 129.478,486.5 127.478,486.5 127.478,500.883 123.224,496.629 121.81,498.043 128.478,504.711 
		135.145,498.043 133.73,496.629 	"/>
	<path d="M145.105,481.529c-1.596-7.445-8.207-13.029-16.127-13.029c-6.423,0-11.977,3.678-14.702,9.035
		c-0.266-0.018-0.53-0.04-0.8-0.04c-6.627,0-11.999,5.372-11.999,12c0,6.607,5.34,11.965,11.938,11.998v0.003h6.062v-2h-5.604
		l-0.447-0.003c-5.485-0.027-9.948-4.513-9.948-9.998c0-5.514,4.485-10,9.999-10c0.175,0,0.347,0.014,0.52,0.025l0.148,0.01
		l1.316,0.088l0.598-1.176c2.492-4.899,7.443-7.942,12.92-7.942c6.79,0,12.75,4.814,14.172,11.448l0.317,1.482l1.514,0.095
		c4.203,0.262,7.496,3.763,7.496,7.971c0,4.397-3.565,7.977-7.957,8c-0.05-0.003-0.093-0.005-0.137-0.007l-2.043,0.007h-4.863v2
		h6.863v-0.007c0.046,0.001,0.091,0.007,0.137,0.007c5.521,0,10-4.477,10-10C154.478,486.186,150.333,481.854,145.105,481.529z"/>
</g>
<g>
	<polygon points="35.462,497.688 36.876,496.273 30.209,489.605 23.541,496.273 24.955,497.688 29.209,493.434 29.209,506.02 
		31.209,506.02 31.209,493.434 	"/>
	<path d="M46.837,483.125c-1.596-7.445-8.207-13.029-16.127-13.029c-6.423,0-11.977,3.678-14.702,9.035
		c-0.266-0.018-0.53-0.04-0.8-0.04c-6.627,0-11.999,5.372-11.999,12c0,6.607,5.34,11.965,11.938,11.998v0.003h10.062v-2h-9.604
		l-0.447-0.003c-5.485-0.027-9.948-4.513-9.948-9.998c0-5.514,4.485-10,9.999-10c0.175,0,0.347,0.014,0.52,0.025l0.148,0.01
		l1.316,0.088l0.598-1.176c2.492-4.899,7.443-7.942,12.92-7.942c6.79,0,12.75,4.814,14.172,11.448l0.317,1.482l1.514,0.095
		c4.203,0.262,7.496,3.763,7.496,7.971c0,4.397-3.565,7.977-7.957,8c-0.05-0.003-0.093-0.005-0.137-0.007l-2.043,0.007h-8.863v2
		h10.863v-0.007c0.046,0.001,0.091,0.007,0.137,0.007c5.521,0,10-4.477,10-10C56.209,487.781,52.064,483.45,46.837,483.125z"/>
</g>
<g>
	<path d="M249.326,293.609c-1.596-7.445-8.207-13.029-16.127-13.029c-6.423,0-11.977,3.678-14.702,9.035
		c-0.266-0.018-0.53-0.04-0.8-0.04c-6.627,0-11.999,5.372-11.999,12c0,6.607,5.34,11.965,11.938,11.998v0.003h2.062v-2h-1.604
		l-0.447-0.003c-5.485-0.027-9.948-4.513-9.948-9.998c0-5.514,4.485-10,9.999-10c0.175,0,0.347,0.014,0.52,0.025l0.148,0.01
		l1.316,0.088l0.598-1.176c2.492-4.899,7.443-7.942,12.92-7.942c6.79,0,12.75,4.814,14.172,11.448l0.317,1.482l1.514,0.095
		c4.203,0.262,7.496,3.763,7.496,7.971c0,4.397-3.565,7.977-7.957,8c-0.05-0.003-0.093-0.005-0.137-0.007l-2.043,0.007h-0.863v2
		h2.863v-0.007c0.046,0.001,0.091,0.007,0.137,0.007c5.521,0,10-4.477,10-10C258.698,298.266,254.554,293.935,249.326,293.609z"/>
	<polygon points="227.698,312.598 227.698,309.968 229.871,311.19 230.557,309.97 228.087,308.58 230.557,307.19 229.871,305.97 
		227.698,307.192 227.698,304.598 225.698,304.598 225.698,307.236 223.447,305.97 222.762,307.19 225.231,308.58 222.762,309.97 
		223.447,311.19 225.698,309.924 225.698,312.598 	"/>
	<polygon points="232.86,316.952 230.688,318.175 230.688,315.58 228.688,315.58 228.688,318.219 226.437,316.952 225.751,318.173 
		228.221,319.563 225.751,320.952 226.437,322.173 228.688,320.906 228.688,323.58 230.688,323.58 230.688,320.95 232.86,322.173 
		233.546,320.952 231.076,319.563 233.546,318.173 	"/>
	<polygon points="241.876,309.97 239.703,311.192 239.703,308.598 237.703,308.598 237.703,311.236 235.452,309.97 234.767,311.19 
		237.236,312.58 234.767,313.97 235.452,315.19 237.703,313.924 237.703,316.598 239.703,316.598 239.703,313.968 241.876,315.19 
		242.562,313.97 240.092,312.58 242.562,311.19 	"/>
</g>
<g>
	<rect x="324.838" y="275.558" width="2" height="7.973"/>
	<rect x="305.838" y="294.472" width="7.973" height="2"/>
	<rect x="310.511" y="283.205" transform="matrix(0.7071 0.7071 -0.7071 0.7071 293.0777 -139.142)" width="7.974" height="2"/>
	<rect x="336.02" y="280.223" transform="matrix(0.7071 0.7071 -0.7071 0.7071 299.6768 -155.0659)" width="2" height="7.972"/>
	<path d="M355.35,301.348c-1.444-6.742-7.433-11.8-14.605-11.8c-2.185,0-4.258,0.471-6.127,1.314
		c-1.666-3.203-5.006-5.395-8.865-5.395c-5.522,0-10,4.477-10,9.999c0,2.46,0.899,4.702,2.373,6.442
		c-1.428,1.84-2.287,4.144-2.287,6.653c0,5.983,4.836,10.836,10.813,10.865v0.003h1.188v-2h-0.721l-0.457-0.003
		c-4.864-0.023-8.822-4.001-8.822-8.865c0-4.89,3.978-8.868,8.867-8.868c0.15,0,0.299,0.012,0.447,0.022l0.148,0.01l1.314,0.085
		l0.597-1.175c2.225-4.372,6.644-7.089,11.532-7.089c6.062,0,11.382,4.298,12.649,10.219l0.318,1.483l1.514,0.094
		c3.708,0.23,6.612,3.319,6.612,7.03c0,3.878-3.144,7.035-7.017,7.057c-0.042-0.003-0.079-0.005-0.117-0.005l-1.866,0.005v2h1.819
		v-0.006c0.042,0.001,0.082,0.006,0.124,0.006c5.001,0,9.057-4.054,9.057-9.057C363.838,305.564,360.084,301.643,355.35,301.348z
		 M327.43,297.73c-0.241-0.016-0.48-0.036-0.725-0.036c-2.766,0-5.282,1.041-7.2,2.742c-1.092-1.365-1.753-3.089-1.753-4.97
		c0-4.41,3.589-7.999,8-7.999c3.092,0,5.76,1.773,7.091,4.346C330.545,293.253,328.666,295.301,327.43,297.73z"/>
	<polygon points="334.83,318.45 334.83,315.82 337.003,317.043 337.688,315.822 335.219,314.433 337.688,313.043 337.003,311.822 
		334.83,313.045 334.83,310.45 332.83,310.45 332.83,313.089 330.579,311.822 329.894,313.043 332.363,314.433 329.894,315.822 
		330.579,317.043 332.83,315.776 332.83,318.45 	"/>
	<polygon points="339.992,322.805 337.819,324.027 337.819,321.433 335.819,321.433 335.819,324.071 333.568,322.805 
		332.883,324.025 335.353,325.415 332.883,326.805 333.568,328.025 335.819,326.759 335.819,329.433 337.819,329.433 
		337.819,326.803 339.992,328.025 340.678,326.805 338.208,325.415 340.678,324.025 	"/>
	<polygon points="349.008,315.822 346.835,317.045 346.835,314.45 344.835,314.45 344.835,317.089 342.584,315.822 341.898,317.043 
		344.368,318.433 341.898,319.822 342.584,321.043 344.835,319.776 344.835,322.45 346.835,322.45 346.835,319.82 349.008,321.043 
		349.693,319.822 347.224,318.433 349.693,317.043 	"/>
</g>
<g>
	<path d="M455.538,298.345c-1.444-6.742-7.433-11.8-14.605-11.8c-1.799,0-3.522,0.32-5.118,0.904
		c-0.949-5.108-5.404-8.98-10.788-8.98c-0.413,0-0.819,0.027-1.222,0.071c0.744,1.112,1.179,2.448,1.179,3.886c0,3.865-3.134,7-7,7
		c-1.438,0-2.773-0.435-3.886-1.179c-0.044,0.401-0.071,0.809-0.071,1.222c0,3.713,1.845,6.987,4.661,8.979
		c-1.653,1.907-2.661,4.389-2.661,7.111c0,5.983,4.836,10.836,10.813,10.865v0.003h1.188v-2h-0.721l-0.457-0.003
		c-4.864-0.023-8.822-4.001-8.822-8.865c0-4.89,3.978-8.868,8.867-8.868c0.15,0,0.299,0.012,0.447,0.022l0.148,0.01l1.314,0.085
		l0.597-1.175c2.225-4.372,6.644-7.089,11.532-7.089c6.062,0,11.382,4.298,12.649,10.219l0.318,1.483l1.514,0.094
		c3.708,0.23,6.612,3.319,6.612,7.03c0,3.878-3.144,7.035-7.017,7.057c-0.042-0.003-0.079-0.005-0.117-0.005l-1.866,0.005v2h1.819
		v-0.006c0.042,0.001,0.082,0.006,0.124,0.006c5.001,0,9.057-4.054,9.057-9.057C464.026,302.562,460.272,298.64,455.538,298.345z
		 M427.618,294.728c-0.241-0.016-0.48-0.036-0.725-0.036c-2.537,0-4.865,0.877-6.715,2.334c-2.012-1.294-3.486-3.354-3.976-5.776
		c0.582,0.117,1.178,0.177,1.78,0.177c4.963,0,9-4.037,9-9c0-0.603-0.06-1.198-0.177-1.78c3.733,0.753,6.629,3.824,7.134,7.64
		C431.228,289.729,429.013,291.984,427.618,294.728z"/>
	<polygon points="435.063,315.447 435.063,312.817 437.236,314.04 437.922,312.819 435.452,311.43 437.922,310.04 437.236,308.819 
		435.063,310.042 435.063,307.447 433.063,307.447 433.063,310.086 430.813,308.819 430.127,310.04 432.597,311.43 430.127,312.819 
		430.813,314.04 433.063,312.773 433.063,315.447 	"/>
	<polygon points="440.226,319.802 438.053,321.024 438.053,318.43 436.053,318.43 436.053,321.068 433.802,319.802 433.116,321.022 
		435.586,322.412 433.116,323.802 433.802,325.022 436.053,323.756 436.053,326.43 438.053,326.43 438.053,323.8 440.226,325.022 
		440.911,323.802 438.441,322.412 440.911,321.022 	"/>
	<polygon points="449.241,312.819 447.068,314.042 447.068,311.447 445.068,311.447 445.068,314.086 442.817,312.819 
		442.132,314.04 444.602,315.43 442.132,316.819 442.817,318.04 445.068,316.773 445.068,319.447 447.068,319.447 447.068,316.817 
		449.241,318.04 449.927,316.819 447.457,315.43 449.927,314.04 	"/>
</g>
<rect x="-160.82" y="-269.405" fill="none" width="472.974" height="180.918"/>
<text transform="matrix(1 0 0 1 18.8169 -198.0063)"><tspan x="0" y="0" font-family="'HelveticaNeueLTStd-Th'" font-size="100" letter-spacing="2">60</tspan><tspan x="-99.268" y="60" font-family="'HelveticaNeueLTStd-Lt'" font-size="48" letter-spacing="1">Weather Icons</tspan><tspan x="-3.726" y="104" font-family="'HelveticaNeueLTStd-Lt'" font-size="24">IOS 7 Style</tspan></text>
</svg>
