<?xml version="1.0" encoding="utf-8"?>
<!-- Generator: Adobe Illustrator 16.0.0, SVG Export Plug-In . SVG Version: 6.00 Build 0)  -->
<!DOCTYPE svg PUBLIC "-//W3C//DTD SVG 1.1//EN" "http://www.w3.org/Graphics/SVG/1.1/DTD/svg11.dtd">
<svg version="1.1" id="Layer_1" xmlns="http://www.w3.org/2000/svg" xmlns:xlink="http://www.w3.org/1999/xlink" x="0px" y="0px"
	 width="50px" height="37.959px" viewBox="0 0 50 37.959" enable-background="new 0 0 50 37.959" xml:space="preserve">
<path d="M235.853,467.753l-1.803,15.077l-0.268,2.237h2.254h6.896l-14.693,18.759l1.789-14.52l0.277-2.245h-2.262h-6.957
	L235.853,467.753 M238.707,460.729l-21.667,28.333h11.004l-2.671,21.667l21.667-27.661h-11.004L238.707,460.729L238.707,460.729z"/>
<path d="M-177.183,5.492c6.79,0,12.749,4.814,14.171,11.448l0.318,1.483l1.514,0.094c4.203,0.262,7.496,3.763,7.496,7.971
	c0,4.396-3.565,7.977-7.957,8c-0.046-0.003-0.091-0.006-0.137-0.007l-2.043-0.036v0.043h-28.337l-0.578-0.003
	c-5.485-0.027-9.948-4.513-9.948-9.998c0-5.514,4.485-10,9.999-10c0.175,0,0.347,0.014,0.519,0.025l0.149,0.011l1.316,0.087
	l0.598-1.176C-187.609,8.535-182.659,5.492-177.183,5.492 M-177.183,3.492c-6.423,0-11.977,3.678-14.702,9.035
	c-0.266-0.018-0.53-0.04-0.8-0.04c-6.627,0-11.999,5.372-11.999,12c0,6.607,5.34,11.965,11.938,11.998v0.003h30.925v-0.007
	c0.046,0.001,0.091,0.007,0.137,0.007c5.521,0,10-4.477,10-10c0-5.311-4.145-9.642-9.372-9.967
	C-162.651,9.076-169.263,3.492-177.183,3.492L-177.183,3.492z"/>
<g>
	<path d="M-54.231,23.903c-1.444-6.742-7.433-11.8-14.605-11.8c-2.185,0-4.258,0.47-6.127,1.313
		c-1.666-3.202-5.006-5.394-8.865-5.394c-5.522,0-10,4.477-10,9.999c0,2.46,0.898,4.702,2.373,6.442
		c-1.428,1.84-2.287,4.144-2.287,6.653c0,5.983,4.836,10.836,10.813,10.865v0.003h28.007V41.98c0.042,0.001,0.082,0.006,0.124,0.006
		c5.001,0,9.057-4.054,9.057-9.057C-45.743,28.12-49.497,24.198-54.231,23.903z M-83.829,10.023c3.092,0,5.76,1.773,7.092,4.345
		c-2.299,1.44-4.178,3.488-5.414,5.918c-0.241-0.016-0.48-0.036-0.725-0.036c-2.766,0-5.281,1.041-7.2,2.743
		c-1.092-1.366-1.753-3.09-1.753-4.971C-91.829,13.612-88.24,10.023-83.829,10.023z M-54.76,39.986
		c-0.038-0.003-0.077-0.004-0.117-0.005l-2.047-0.042v0.047h-25.403l-0.594-0.003c-4.864-0.023-8.822-4.001-8.822-8.865
		c0-4.89,3.978-8.868,8.867-8.868c0.15,0,0.299,0.012,0.447,0.021l0.148,0.011l1.314,0.085l0.598-1.174
		c2.224-4.373,6.643-7.09,11.531-7.09c6.062,0,11.381,4.298,12.65,10.219l0.317,1.482l1.514,0.095
		c3.708,0.231,6.612,3.319,6.612,7.03C-47.743,36.808-50.887,39.964-54.76,39.986z"/>
	<rect x="-84.823" y="-2.007" width="2" height="7.973"/>
	<rect x="-103.796" y="16.979" width="7.973" height="2"/>
	<rect x="-99.07" y="5.761" transform="matrix(0.7071 0.7071 -0.7071 0.7071 -23.0686 69.214)" width="7.974" height="2"/>
	<rect x="-73.561" y="2.779" transform="matrix(0.7071 0.7071 -0.7071 0.7071 -16.4695 53.2901)" width="2" height="7.972"/>
</g>
<path d="M41.512,19.876c-1.444-6.742-7.433-11.8-14.605-11.8c-1.799,0-3.521,0.32-5.118,0.904C20.839,3.872,16.384,0,11,0
	c-0.413,0-0.819,0.027-1.222,0.071c0.744,1.112,1.179,2.448,1.179,3.886c0,3.865-3.134,7-7,7c-1.438,0-2.773-0.435-3.886-1.179
	C0.027,10.18,0,10.587,0,11c0,3.712,1.845,6.987,4.661,8.979C3.008,21.887,2,24.368,2,27.091c0,5.983,4.836,10.836,10.813,10.865
	v0.003h28.007v-0.006c0.042,0.001,0.082,0.006,0.124,0.006c5.001,0,9.057-4.054,9.057-9.057C50,24.093,46.246,20.171,41.512,19.876z
	 M2.177,12.78c0.582,0.117,1.178,0.177,1.78,0.177c4.963,0,9-4.037,9-9c0-0.603-0.06-1.198-0.177-1.78
	c3.733,0.753,6.629,3.824,7.134,7.64c-2.713,1.444-4.928,3.699-6.322,6.442c-0.241-0.016-0.48-0.036-0.725-0.036
	c-2.537,0-4.865,0.876-6.715,2.334C4.141,17.263,2.666,15.203,2.177,12.78z M40.983,35.959c-0.038-0.003-0.077-0.004-0.117-0.005
	l-2.047-0.042v0.047H13.416l-0.594-0.003C7.958,35.933,4,31.955,4,27.091c0-4.89,3.978-8.868,8.867-8.868
	c0.15,0,0.299,0.012,0.447,0.021l0.148,0.011l1.314,0.085l0.598-1.174c2.224-4.373,6.643-7.09,11.531-7.09
	c6.062,0,11.381,4.298,12.65,10.219l0.317,1.482l1.514,0.095C45.096,22.104,48,25.191,48,28.902
	C48,32.78,44.856,35.937,40.983,35.959z"/>
<g>
	<rect x="126.157" y="28.499" width="2" height="7"/>
	<rect x="134.157" y="24.499" width="2" height="7"/>
	<rect x="118.157" y="24.499" width="2" height="7"/>
	<rect x="126.157" y="38.499" width="2" height="7"/>
	<rect x="134.157" y="34.499" width="2" height="7"/>
	<rect x="118.157" y="34.499" width="2" height="7"/>
	<path d="M144.785,11.511c-1.596-7.445-8.207-13.029-16.127-13.029c-6.423,0-11.977,3.678-14.702,9.035
		c-0.266-0.018-0.53-0.04-0.8-0.04c-6.627,0-11.999,5.372-11.999,12c0,6.607,5.34,11.965,11.938,11.998v0.003h2.062v-2h-1.604
		l-0.447-0.003c-5.485-0.027-9.948-4.513-9.948-9.998c0-5.514,4.485-10,9.999-10c0.175,0,0.347,0.014,0.52,0.025l0.148,0.01
		l1.316,0.088l0.598-1.176c2.492-4.899,7.443-7.942,12.92-7.942c6.79,0,12.75,4.814,14.172,11.448l0.317,1.482l1.514,0.095
		c4.203,0.262,7.496,3.763,7.496,7.971c0,4.397-3.565,7.977-7.957,8c-0.05-0.003-0.093-0.005-0.137-0.007l-2.043,0.007h-2.863v2
		h4.863v-0.007c0.046,0.001,0.091,0.007,0.137,0.007c5.521,0,10-4.477,10-10C154.157,16.167,150.013,11.836,144.785,11.511z"/>
</g>
<g>
	<path d="M-57.642,100.868c-1.596-7.445-8.207-13.029-16.127-13.029c-6.423,0-11.977,3.678-14.702,9.035
		c-0.266-0.018-0.53-0.04-0.8-0.04c-6.627,0-11.999,5.372-11.999,12c0,6.607,5.34,11.965,11.938,11.998v0.003h2.062v-2h-1.604
		l-0.447-0.003c-5.485-0.027-9.948-4.513-9.948-9.998c0-5.514,4.485-10,9.999-10c0.175,0,0.347,0.014,0.52,0.025l0.148,0.01
		l1.316,0.088l0.598-1.176c2.492-4.899,7.443-7.942,12.92-7.942c6.79,0,12.75,4.814,14.172,11.448l0.317,1.482l1.514,0.095
		c4.203,0.262,7.496,3.763,7.496,7.971c0,4.397-3.565,7.977-7.957,8c-0.05-0.003-0.093-0.005-0.137-0.007l-2.043,0.007h-2.863v2
		h4.863v-0.007c0.046,0.001,0.091,0.007,0.137,0.007c5.521,0,10-4.477,10-10C-48.27,105.524-52.414,101.193-57.642,100.868z"/>
	<polygon points="-76.27,127.863 -76.27,129.804 -76.27,135.863 -74.27,135.863 -74.27,129.804 -74.27,127.863 -74.27,115.863 
		-76.27,115.863 	"/>
	<polygon points="-68.27,123.863 -68.27,125.616 -68.27,131.863 -66.27,131.863 -66.27,125.616 -66.27,123.863 -66.27,111.863 
		-68.27,111.863 	"/>
	<polygon points="-84.27,123.863 -84.27,125.929 -84.27,131.863 -82.27,131.863 -82.27,125.929 -82.27,123.863 -82.27,111.863 
		-84.27,111.863 	"/>
</g>
<g>
	<polygon points="238.008,124.774 231.125,114.944 229.487,116.092 236.37,125.922 237.482,127.511 240.958,132.475 
		242.597,131.328 239.121,126.363 	"/>
	<polygon points="246.01,124.772 239.125,114.944 237.487,116.093 244.373,125.921 245.378,127.356 248.962,132.472 
		250.601,131.325 247.017,126.209 	"/>
	<polygon points="230.008,124.774 223.125,114.944 221.487,116.093 228.37,125.922 229.555,127.614 232.959,132.476 
		234.597,131.328 231.193,126.467 	"/>
	<path d="M249.115,101.135c-1.596-7.445-8.207-13.029-16.127-13.029c-6.423,0-11.977,3.678-14.702,9.035
		c-0.266-0.018-0.53-0.04-0.8-0.04c-6.627,0-11.999,5.372-11.999,12c0,6.607,5.34,11.965,11.938,11.998v0.003h2.062v-2h-1.604
		l-0.447-0.003c-5.485-0.027-9.948-4.513-9.948-9.998c0-5.514,4.485-10,9.999-10c0.175,0,0.347,0.014,0.52,0.025l0.148,0.01
		l1.316,0.088l0.598-1.176c2.492-4.899,7.443-7.942,12.92-7.942c6.79,0,12.75,4.814,14.172,11.448l0.317,1.482l1.514,0.095
		c4.203,0.262,7.496,3.763,7.496,7.971c0,4.397-3.565,7.977-7.957,8c-0.05-0.003-0.093-0.005-0.137-0.007l-1.043,0.007h0.137v2
		h0.863v-0.007c0.046,0.001,0.091,0.007,0.137,0.007c5.521,0,10-4.477,10-10C258.487,105.791,254.343,101.46,249.115,101.135z"/>
</g>
<g>
	<rect x="220.813" y="-7.947" width="2" height="7.973"/>
	<rect x="201.813" y="10.967" width="7.973" height="2"/>
	<rect x="206.486" y="-0.3" transform="matrix(0.7071 0.7071 -0.7071 0.7071 62.1414 -148.6223)" width="7.974" height="2"/>
	<rect x="231.995" y="-3.282" transform="matrix(0.7071 0.7071 -0.7071 0.7071 68.7406 -164.5462)" width="2" height="7.972"/>
	<rect x="234.813" y="32.926" width="2" height="7"/>
	<rect x="242.813" y="28.926" width="2" height="7"/>
	<rect x="226.813" y="28.926" width="2" height="7"/>
	<rect x="234.813" y="42.926" width="2" height="7"/>
	<rect x="242.813" y="38.926" width="2" height="7"/>
	<rect x="226.813" y="38.926" width="2" height="7"/>
	<path d="M251.325,17.843c-1.444-6.742-7.433-11.8-14.605-11.8c-2.185,0-4.258,0.47-6.126,1.313
		c-1.667-3.202-5.007-5.394-8.866-5.394c-5.522,0-10,4.477-10,9.999c0,2.46,0.899,4.702,2.373,6.442
		c-1.429,1.84-2.287,4.144-2.287,6.653c0,5.983,4.836,10.836,10.813,10.865v0.003h1.188v-2h-0.721l-0.457-0.003
		c-4.864-0.023-8.822-4.001-8.822-8.865c0-4.89,3.978-8.868,8.867-8.868c0.15,0,0.299,0.012,0.447,0.022l0.148,0.01l1.314,0.085
		l0.597-1.175c2.225-4.372,6.644-7.089,11.532-7.089c6.062,0,11.382,4.298,12.649,10.219l0.318,1.483l1.514,0.094
		c3.708,0.23,6.612,3.319,6.612,7.03c0,3.878-3.144,7.035-7.017,7.057c-0.042-0.003-0.079-0.005-0.117-0.005l-2.047,0.005h-0.819v2
		h2.819V35.92c0.042,0.001,0.082,0.006,0.124,0.006c5.001,0,9.057-4.054,9.057-9.057C259.813,22.06,256.06,18.138,251.325,17.843z
		 M223.405,14.226c-0.241-0.016-0.48-0.036-0.725-0.036c-2.766,0-5.282,1.041-7.2,2.743c-1.092-1.366-1.753-3.09-1.753-4.971
		c0-4.41,3.589-7.999,8-7.999c3.091,0,5.76,1.773,7.091,4.345C226.521,9.748,224.641,11.796,223.405,14.226z"/>
</g>
<g>
	<rect x="335.23" y="31.479" width="2" height="7"/>
	<rect x="343.23" y="27.479" width="2" height="7"/>
	<rect x="327.23" y="27.479" width="2" height="7"/>
	<rect x="335.23" y="41.479" width="2" height="7"/>
	<rect x="343.23" y="37.479" width="2" height="7"/>
	<rect x="327.23" y="37.479" width="2" height="7"/>
	<path d="M351.742,16.396c-1.444-6.742-7.433-11.8-14.605-11.8c-1.799,0-3.522,0.32-5.118,0.904
		c-0.949-5.108-5.404-8.98-10.788-8.98c-0.413,0-0.819,0.027-1.222,0.071c0.744,1.112,1.179,2.448,1.179,3.886c0,3.865-3.134,7-7,7
		c-1.438,0-2.773-0.435-3.886-1.179c-0.044,0.401-0.071,0.809-0.071,1.222c0,3.712,1.845,6.987,4.661,8.979
		c-1.653,1.907-2.661,4.389-2.661,7.111c0,5.983,4.836,10.836,10.813,10.865v0.003h1.188v-2h-0.721l-0.457-0.003
		c-4.864-0.023-8.822-4.001-8.822-8.865c0-4.89,3.978-8.868,8.867-8.868c0.15,0,0.299,0.012,0.447,0.022l0.148,0.01l1.314,0.085
		l0.597-1.175c2.225-4.372,6.644-7.089,11.532-7.089c6.062,0,11.382,4.298,12.649,10.219l0.318,1.483l1.514,0.094
		c3.708,0.23,6.612,3.319,6.612,7.03c0,3.878-3.144,7.035-7.017,7.057c-0.042-0.003-0.079-0.005-0.117-0.005l-2.047,0.005h-0.819v2
		h2.819v-0.006c0.042,0.001,0.082,0.006,0.124,0.006c5.001,0,9.057-4.054,9.057-9.057C360.23,20.612,356.477,16.69,351.742,16.396z
		 M323.822,12.778c-0.241-0.016-0.48-0.036-0.725-0.036c-2.537,0-4.865,0.876-6.715,2.334c-2.012-1.294-3.487-3.354-3.976-5.776
		c0.582,0.117,1.178,0.177,1.78,0.177c4.963,0,9-4.037,9-9c0-0.603-0.06-1.198-0.177-1.78c3.733,0.753,6.629,3.824,7.133,7.64
		C327.433,7.78,325.218,10.035,323.822,12.778z"/>
</g>
<g>
	<polygon points="28,132.302 28,134.242 28,140.302 30,140.302 30,134.242 30,132.302 30,120.302 28,120.302 	"/>
	<polygon points="36,128.302 36,130.055 36,136.302 38,136.302 38,130.055 38,128.302 38,116.302 36,116.302 	"/>
	<polygon points="20,128.302 20,130.367 20,136.302 22,136.302 22,130.367 22,128.302 22,116.302 20,116.302 	"/>
	<rect x="14" y="81.399" width="2" height="7.973"/>
	<rect x="-5" y="100.313" width="7.973" height="2"/>
	<rect x="-0.327" y="89.047" transform="matrix(0.7071 0.7071 -0.7071 0.7071 64.7448 23.786)" width="7.974" height="2"/>
	<rect x="25.182" y="86.065" transform="matrix(0.7071 0.7071 -0.7071 0.7071 71.3439 7.862)" width="2" height="7.972"/>
	<path d="M44.512,107.189c-1.444-6.742-7.433-11.8-14.605-11.8c-2.185,0-4.258,0.47-6.127,1.313
		c-1.666-3.202-5.006-5.394-8.865-5.394c-5.522,0-10,4.477-10,9.999c0,2.46,0.898,4.702,2.373,6.442
		C5.859,109.591,5,111.895,5,114.404c0,5.983,4.836,10.836,10.813,10.865v0.003H17v-2h-0.721l-0.457-0.003
		C10.958,123.246,7,119.269,7,114.404c0-4.89,3.978-8.868,8.867-8.868c0.15,0,0.299,0.012,0.447,0.022l0.148,0.01l1.314,0.085
		l0.597-1.175c2.225-4.372,6.644-7.089,11.532-7.089c6.062,0,11.382,4.298,12.649,10.219l0.318,1.483l1.514,0.094
		c3.708,0.23,6.612,3.319,6.612,7.03c0,3.878-3.144,7.035-7.017,7.057c-0.042-0.003-0.079-0.005-0.117-0.005l-2.047,0.005H41v2
		h2.819v-0.006c0.042,0.001,0.082,0.006,0.124,0.006c5.001,0,9.057-4.054,9.057-9.057C53,111.406,49.246,107.484,44.512,107.189z
		 M16.592,103.572c-0.241-0.016-0.48-0.036-0.725-0.036c-2.766,0-5.281,1.042-7.2,2.743c-1.092-1.367-1.753-3.09-1.753-4.971
		c0-4.41,3.589-7.999,8-7.999c3.092,0,5.76,1.773,7.092,4.345C19.707,99.094,17.828,101.143,16.592,103.572z"/>
</g>
<g>
	<polygon points="128.397,129.785 128.397,131.726 128.397,137.785 130.397,137.785 130.397,131.726 130.397,129.785 
		130.397,117.785 128.397,117.785 	"/>
	<polygon points="136.397,125.785 136.397,127.538 136.397,133.785 138.397,133.785 138.397,127.538 138.397,125.785 
		138.397,113.785 136.397,113.785 	"/>
	<polygon points="120.397,125.785 120.397,127.851 120.397,133.785 122.397,133.785 122.397,127.851 122.397,125.785 
		122.397,113.785 120.397,113.785 	"/>
	<path d="M144.909,104.673c-1.444-6.742-7.433-11.8-14.605-11.8c-1.799,0-3.521,0.32-5.118,0.904
		c-0.949-5.108-5.404-8.98-10.788-8.98c-0.413,0-0.819,0.027-1.222,0.071c0.744,1.112,1.179,2.448,1.179,3.886c0,3.865-3.134,7-7,7
		c-1.438,0-2.773-0.435-3.886-1.179c-0.044,0.401-0.071,0.809-0.071,1.222c0,3.712,1.845,6.987,4.661,8.979
		c-1.653,1.907-2.661,4.389-2.661,7.111c0,5.983,4.836,10.836,10.813,10.865v0.003h1.188v-2h-0.721l-0.457-0.003
		c-4.864-0.023-8.822-4.001-8.822-8.865c0-4.89,3.978-8.868,8.867-8.868c0.15,0,0.299,0.012,0.447,0.022l0.148,0.01l1.314,0.085
		l0.597-1.175c2.225-4.372,6.644-7.089,11.532-7.089c6.062,0,11.382,4.298,12.649,10.219l0.318,1.483l1.514,0.094
		c3.708,0.23,6.612,3.319,6.612,7.03c0,3.878-3.144,7.035-7.017,7.057c-0.042-0.003-0.079-0.005-0.117-0.005l-2.047,0.005h-0.819v2
		h2.819v-0.006c0.042,0.001,0.082,0.006,0.124,0.006c5.001,0,9.057-4.054,9.057-9.057
		C153.397,108.89,149.644,104.968,144.909,104.673z M116.989,101.056c-0.241-0.016-0.48-0.036-0.725-0.036
		c-2.537,0-4.865,0.876-6.715,2.334c-2.012-1.294-3.486-3.354-3.976-5.776c0.582,0.117,1.178,0.177,1.78,0.177c4.963,0,9-4.037,9-9
		c0-0.603-0.06-1.198-0.177-1.78c3.733,0.753,6.629,3.824,7.134,7.641C120.599,96.058,118.384,98.313,116.989,101.056z"/>
</g>
<g>
	<polygon points="345.433,130.729 338.55,120.899 336.912,122.047 343.795,131.877 344.907,133.466 348.383,138.43 350.021,137.283 
		346.546,132.318 	"/>
	<polygon points="353.435,130.728 346.55,120.899 344.912,122.048 351.798,131.876 352.803,133.312 356.387,138.427 358.025,137.28 
		354.441,132.164 	"/>
	<polygon points="337.433,130.729 330.55,120.899 328.912,122.048 335.795,131.877 336.979,133.569 340.384,138.431 
		342.021,137.283 338.618,132.422 	"/>
	<rect x="324.912" y="83.181" width="2" height="7.973"/>
	<rect x="305.912" y="102.095" width="7.973" height="2"/>
	<rect x="310.585" y="90.828" transform="matrix(0.7071 0.7071 -0.7071 0.7071 157.0684 -195.5403)" width="7.974" height="2"/>
	<rect x="336.094" y="87.846" transform="matrix(0.7071 0.7071 -0.7071 0.7071 163.6675 -211.4643)" width="2" height="7.972"/>
	<path d="M355.424,108.971c-1.444-6.742-7.433-11.8-14.605-11.8c-2.185,0-4.258,0.47-6.126,1.313
		c-1.667-3.202-5.007-5.394-8.866-5.394c-5.522,0-10,4.477-10,9.999c0,2.46,0.899,4.702,2.373,6.442
		c-1.429,1.84-2.287,4.144-2.287,6.653c0,5.983,4.836,10.836,10.813,10.865v0.003h1.188v-2h-0.721l-0.457-0.003
		c-4.864-0.023-8.822-4.001-8.822-8.865c0-4.89,3.978-8.868,8.867-8.868c0.15,0,0.299,0.012,0.447,0.022l0.148,0.01l1.314,0.085
		l0.597-1.175c2.225-4.372,6.644-7.089,11.532-7.089c6.062,0,11.382,4.298,12.649,10.219l0.318,1.483l1.514,0.094
		c3.708,0.23,6.612,3.319,6.612,7.03c0,3.878-3.144,7.035-7.017,7.057c-0.042-0.003-0.079-0.005-0.117-0.005l-0.047,0.005h-0.819v2
		h0.819v-0.006c0.042,0.001,0.082,0.006,0.124,0.006c5.001,0,9.057-4.054,9.057-9.057
		C363.912,113.188,360.158,109.266,355.424,108.971z M327.504,105.354c-0.241-0.016-0.48-0.036-0.725-0.036
		c-2.766,0-5.282,1.042-7.2,2.743c-1.092-1.367-1.753-3.09-1.753-4.971c0-4.41,3.589-7.999,8-7.999c3.091,0,5.76,1.773,7.091,4.345
		C330.619,100.875,328.739,102.924,327.504,105.354z"/>
</g>
<g>
	<polygon points="-377.998,227.215 -384.881,217.385 -386.519,218.532 -379.636,228.362 -378.523,229.951 -375.048,234.915 
		-373.409,233.769 -376.885,228.804 	"/>
	<polygon points="-369.996,227.213 -376.881,217.385 -378.519,218.533 -371.633,228.361 -370.628,229.797 -367.044,234.912 
		-365.405,233.766 -368.989,228.649 	"/>
	<polygon points="-385.998,227.215 -392.881,217.385 -394.519,218.533 -387.636,228.362 -386.451,230.055 -383.047,234.916 
		-381.409,233.769 -384.813,228.907 	"/>
	<path d="M-368.007,205.456c-1.444-6.742-7.433-11.8-14.605-11.8c-1.799,0-3.522,0.32-5.118,0.904
		c-0.949-5.108-5.404-8.98-10.788-8.98c-0.413,0-0.819,0.027-1.222,0.071c0.744,1.112,1.179,2.448,1.179,3.886c0,3.865-3.134,7-7,7
		c-1.438,0-2.773-0.435-3.886-1.179c-0.044,0.401-0.071,0.809-0.071,1.222c0,3.712,1.845,6.987,4.661,8.979
		c-1.653,1.907-2.661,4.389-2.661,7.111c0,5.983,4.836,10.836,10.813,10.865v0.003h1.188v-2h-0.721l-0.457-0.003
		c-4.864-0.023-8.822-4.001-8.822-8.865c0-4.89,3.978-8.868,8.867-8.868c0.15,0,0.299,0.012,0.447,0.022l0.148,0.01l1.314,0.085
		l0.597-1.175c2.225-4.372,6.644-7.089,11.532-7.089c6.062,0,11.382,4.298,12.649,10.219l0.318,1.483l1.514,0.094
		c3.708,0.23,6.612,3.319,6.612,7.03c0,3.878-3.144,7.035-7.017,7.057c-0.042-0.003-0.079-0.005-0.117-0.005l-0.047,0.005h-0.819v2
		h0.819v-0.006c0.042,0.001,0.082,0.006,0.124,0.006c5.001,0,9.057-4.054,9.057-9.057
		C-359.519,209.673-363.272,205.751-368.007,205.456z M-395.927,201.839c-0.241-0.016-0.48-0.036-0.725-0.036
		c-2.537,0-4.865,0.876-6.715,2.334c-2.012-1.294-3.487-3.354-3.976-5.776c0.582,0.117,1.178,0.177,1.78,0.177c4.963,0,9-4.037,9-9
		c0-0.603-0.06-1.198-0.177-1.78c3.733,0.753,6.629,3.824,7.133,7.641C-392.316,196.841-394.531,199.097-395.927,201.839z"/>
</g>
<g>
	<rect x="-385.519" y="123.368" width="2" height="4"/>
	<rect x="-377.519" y="119.347" width="2" height="4.021"/>
	<rect x="-393.519" y="119.347" width="2" height="4.021"/>
	<path d="M-366.891,103.38c-1.596-7.445-8.207-13.029-16.127-13.029c-6.423,0-11.977,3.678-14.702,9.035
		c-0.266-0.018-0.53-0.04-0.8-0.04c-6.627,0-11.999,5.372-11.999,12c0,6.607,5.34,11.965,11.938,11.998v0.003h2.062v-2h-1.604
		l-0.447-0.003c-5.485-0.027-9.948-4.513-9.948-9.998c0-5.514,4.485-10,9.999-10c0.175,0,0.347,0.014,0.52,0.025l0.148,0.01
		l1.316,0.088l0.598-1.176c2.492-4.899,7.443-7.942,12.92-7.942c6.79,0,12.75,4.814,14.172,11.448l0.317,1.482l1.514,0.095
		c4.203,0.262,7.496,3.763,7.496,7.971c0,4.397-3.565,7.977-7.957,8c-0.05-0.003-0.093-0.005-0.137-0.007l-2.043,0.007h-2.863v2
		h4.863v-0.007c0.046,0.001,0.091,0.007,0.137,0.007c5.521,0,10-4.477,10-10C-357.519,108.036-361.663,103.705-366.891,103.38z"/>
	<circle cx="-376.519" cy="128.389" r="1.5"/>
	<circle cx="-384.519" cy="132.357" r="1.5"/>
	<circle cx="-392.519" cy="128.347" r="1.5"/>
</g>
<g>
	<rect x="-292.598" y="83.914" width="2" height="7.973"/>
	<rect x="-311.598" y="102.828" width="7.973" height="2"/>
	<rect x="-306.925" y="91.562" transform="matrix(0.7071 0.7071 -0.7071 0.7071 -23.2775 241.3198)" width="7.974" height="2"/>
	<rect x="-281.416" y="88.58" transform="matrix(0.7071 0.7071 -0.7071 0.7071 -16.6783 225.3958)" width="2" height="7.972"/>
	<path d="M-262.086,109.704c-1.444-6.742-7.433-11.8-14.605-11.8c-2.185,0-4.258,0.47-6.126,1.313
		c-1.667-3.202-5.007-5.394-8.866-5.394c-5.522,0-10,4.477-10,9.999c0,2.46,0.899,4.702,2.373,6.442
		c-1.429,1.84-2.287,4.144-2.287,6.653c0,5.983,4.836,10.836,10.813,10.865v0.003h1.188v-2h-0.721l-0.457-0.003
		c-4.864-0.023-8.822-4.001-8.822-8.865c0-4.89,3.978-8.868,8.867-8.868c0.15,0,0.299,0.012,0.447,0.022l0.148,0.01l1.314,0.085
		l0.597-1.175c2.225-4.372,6.644-7.089,11.532-7.089c6.062,0,11.382,4.298,12.649,10.219l0.318,1.483l1.514,0.094
		c3.708,0.23,6.612,3.319,6.612,7.03c0,3.878-3.144,7.035-7.017,7.057c-0.042-0.003-0.079-0.005-0.117-0.005l-2.047,0.005h-0.819v2
		h2.819v-0.006c0.042,0.001,0.082,0.006,0.124,0.006c5.001,0,9.057-4.054,9.057-9.057
		C-253.598,113.921-257.352,109.999-262.086,109.704z M-290.006,106.087c-0.241-0.016-0.48-0.036-0.725-0.036
		c-2.766,0-5.282,1.042-7.2,2.743c-1.092-1.367-1.753-3.09-1.753-4.971c0-4.41,3.589-7.999,8-7.999c3.091,0,5.76,1.773,7.091,4.345
		C-286.891,101.608-288.771,103.657-290.006,106.087z"/>
	<rect x="-278.598" y="127.803" width="2" height="4"/>
	<rect x="-270.598" y="123.781" width="2" height="4.021"/>
	<rect x="-286.598" y="123.781" width="2" height="4.021"/>
	<circle cx="-269.598" cy="132.823" r="1.5"/>
	<circle cx="-277.598" cy="136.792" r="1.5"/>
	<circle cx="-285.598" cy="132.781" r="1.5"/>
</g>
<g>
	<path d="M-161.16,108.747c-1.444-6.742-7.433-11.8-14.605-11.8c-1.799,0-3.522,0.32-5.118,0.904
		c-0.949-5.108-5.404-8.98-10.788-8.98c-0.413,0-0.819,0.027-1.222,0.071c0.744,1.112,1.179,2.448,1.179,3.886c0,3.865-3.134,7-7,7
		c-1.438,0-2.773-0.435-3.886-1.179c-0.044,0.401-0.071,0.809-0.071,1.222c0,3.712,1.845,6.987,4.661,8.979
		c-1.653,1.907-2.661,4.389-2.661,7.111c0,5.983,4.836,10.836,10.813,10.865v0.003h1.188v-2h-0.721l-0.457-0.003
		c-4.864-0.023-8.822-4.001-8.822-8.865c0-4.89,3.978-8.868,8.867-8.868c0.15,0,0.299,0.012,0.447,0.022l0.148,0.01l1.314,0.085
		l0.597-1.175c2.225-4.372,6.644-7.089,11.532-7.089c6.062,0,11.382,4.298,12.649,10.219l0.318,1.483l1.514,0.094
		c3.708,0.23,6.612,3.319,6.612,7.03c0,3.878-3.144,7.035-7.017,7.057c-0.042-0.003-0.079-0.005-0.117-0.005l-2.047,0.005h-0.819v2
		h2.819v-0.006c0.042,0.001,0.082,0.006,0.124,0.006c5.001,0,9.057-4.054,9.057-9.057
		C-152.672,112.964-156.426,109.042-161.16,108.747z M-189.08,105.13c-0.241-0.016-0.48-0.036-0.725-0.036
		c-2.537,0-4.865,0.876-6.715,2.334c-2.012-1.294-3.487-3.354-3.976-5.776c0.582,0.117,1.178,0.177,1.78,0.177c4.963,0,9-4.037,9-9
		c0-0.603-0.06-1.198-0.177-1.78c3.733,0.753,6.629,3.824,7.133,7.641C-185.47,100.132-187.685,102.388-189.08,105.13z"/>
	<rect x="-177.672" y="126.846" width="2" height="4"/>
	<rect x="-169.672" y="122.824" width="2" height="4.021"/>
	<rect x="-185.672" y="122.824" width="2" height="4.021"/>
	<circle cx="-168.672" cy="131.866" r="1.5"/>
	<circle cx="-176.672" cy="135.835" r="1.5"/>
	<circle cx="-184.672" cy="131.824" r="1.5"/>
</g>
<g>
	<path d="M-264.47,201.777c-1.596-7.445-8.207-13.029-16.127-13.029c-6.423,0-11.977,3.678-14.702,9.035
		c-0.266-0.018-0.53-0.04-0.8-0.04c-6.627,0-11.999,5.372-11.999,12c0,6.607,5.34,11.965,11.938,11.998v0.003h6.062v-2h-5.604
		l-0.447-0.003c-5.485-0.027-9.948-4.513-9.948-9.998c0-5.514,4.485-10,9.999-10c0.175,0,0.347,0.014,0.52,0.025l0.148,0.01
		l1.316,0.088l0.598-1.176c2.492-4.899,7.443-7.942,12.92-7.942c6.79,0,12.75,4.814,14.172,11.448l0.317,1.482l1.514,0.095
		c4.203,0.262,7.496,3.763,7.496,7.971c0,4.397-3.565,7.977-7.957,8c-0.05-0.003-0.093-0.005-0.137-0.007l-5.043,0.007h0.137v2
		h4.863v-0.007c0.046,0.001,0.091,0.007,0.137,0.007c5.521,0,10-4.477,10-10C-255.098,206.434-259.242,202.103-264.47,201.777z"/>
	<polygon points="-280.256,221.748 -278.486,221.748 -278.056,221.748 -276.046,221.748 -282.46,212.587 -284.098,213.734 
		-279.887,219.748 -281.657,219.748 -284.098,219.748 -282.826,221.564 -281.714,223.153 -275.736,231.748 -274.098,230.602 
		-280.075,222.006 	"/>
</g>
<g>
	<rect x="-188.672" y="182.647" width="2" height="7.973"/>
	<rect x="-207.672" y="201.562" width="7.973" height="2"/>
	<rect x="-202.999" y="190.295" transform="matrix(0.7071 0.7071 -0.7071 0.7071 76.9767 196.7515)" width="7.974" height="2"/>
	<rect x="-177.49" y="187.313" transform="matrix(0.7071 0.7071 -0.7071 0.7071 83.5759 180.8276)" width="2" height="7.972"/>
	<path d="M-158.16,208.438c-1.444-6.742-7.433-11.8-14.605-11.8c-2.185,0-4.258,0.47-6.127,1.313
		c-1.666-3.202-5.006-5.394-8.865-5.394c-5.522,0-10,4.477-10,9.999c0,2.46,0.898,4.702,2.373,6.442
		c-1.428,1.84-2.287,4.144-2.287,6.653c0,5.983,4.836,10.836,10.813,10.865v0.003h4.188v-2h-3.721l-0.457-0.003
		c-4.864-0.023-8.822-4.001-8.822-8.865c0-4.89,3.978-8.868,8.867-8.868c0.15,0,0.299,0.012,0.447,0.022l0.148,0.01l1.314,0.085
		l0.597-1.175c2.225-4.372,6.644-7.089,11.532-7.089c6.062,0,11.382,4.298,12.649,10.219l0.318,1.483l1.514,0.094
		c3.708,0.23,6.612,3.319,6.612,7.03c0,3.878-3.144,7.035-7.017,7.057c-0.042-0.003-0.079-0.005-0.117-0.005l-2.047,0.005h-3.819v2
		h5.819v-0.006c0.042,0.001,0.082,0.006,0.124,0.006c5.001,0,9.057-4.054,9.057-9.057
		C-149.672,212.654-153.426,208.732-158.16,208.438z M-186.08,204.82c-0.241-0.016-0.48-0.036-0.725-0.036
		c-2.766,0-5.281,1.041-7.2,2.743c-1.092-1.366-1.753-3.09-1.753-4.971c0-4.41,3.589-7.999,8-7.999c3.092,0,5.76,1.773,7.092,4.345
		C-182.965,200.343-184.844,202.391-186.08,204.82z"/>
	<polygon points="-173.83,226.527 -172.061,226.527 -171.63,226.527 -169.62,226.527 -176.034,217.366 -177.672,218.514 
		-173.461,224.527 -175.231,224.527 -177.672,224.527 -176.4,226.344 -175.288,227.933 -169.311,236.527 -167.672,235.381 
		-173.649,226.785 	"/>
</g>
<g>
	<path d="M-58.575,206.142c-1.444-6.742-7.433-11.8-14.605-11.8c-1.799,0-3.521,0.32-5.118,0.904
		c-0.949-5.108-5.404-8.98-10.788-8.98c-0.413,0-0.819,0.027-1.222,0.071c0.744,1.112,1.179,2.448,1.179,3.886c0,3.865-3.134,7-7,7
		c-1.438,0-2.773-0.435-3.886-1.179c-0.044,0.401-0.071,0.809-0.071,1.222c0,3.712,1.845,6.987,4.661,8.979
		c-1.653,1.907-2.661,4.389-2.661,7.111c0,5.983,4.836,10.836,10.813,10.865v0.003h4.188v-2h-3.721l-0.457-0.003
		c-4.864-0.023-8.822-4.001-8.822-8.865c0-4.89,3.978-8.868,8.867-8.868c0.15,0,0.299,0.012,0.447,0.022l0.148,0.01l1.314,0.085
		l0.597-1.175c2.225-4.372,6.644-7.089,11.532-7.089c6.062,0,11.382,4.298,12.649,10.219l0.318,1.483l1.514,0.094
		c3.708,0.23,6.612,3.319,6.612,7.03c0,3.878-3.144,7.035-7.017,7.057c-0.042-0.003-0.079-0.005-0.117-0.005l-2.047,0.005h-3.819v2
		h5.819v-0.006c0.042,0.001,0.082,0.006,0.124,0.006c5.001,0,9.057-4.054,9.057-9.057
		C-50.087,210.358-53.841,206.437-58.575,206.142z M-86.495,202.524c-0.241-0.016-0.48-0.036-0.725-0.036
		c-2.537,0-4.865,0.876-6.715,2.334c-2.012-1.294-3.486-3.354-3.976-5.776c0.582,0.117,1.178,0.177,1.78,0.177c4.963,0,9-4.037,9-9
		c0-0.603-0.06-1.198-0.177-1.78c3.733,0.753,6.629,3.824,7.134,7.64C-82.886,197.526-85.101,199.781-86.495,202.524z"/>
	<polygon points="-74.245,224.231 -72.476,224.231 -72.045,224.231 -70.035,224.231 -76.449,215.07 -78.087,216.218 
		-73.876,222.231 -75.646,222.231 -78.087,222.231 -76.815,224.048 -75.703,225.637 -69.726,234.231 -68.087,233.085 
		-74.064,224.489 	"/>
</g>
<g>
	<path d="M42.31,202.277c-1.596-7.445-8.207-13.029-16.127-13.029c-6.423,0-11.977,3.678-14.702,9.035
		c-0.266-0.018-0.53-0.04-0.8-0.04c-6.627,0-11.999,5.372-11.999,12c0,6.607,5.34,11.965,11.938,11.998v0.003h1.062v-2h-0.604
		l-0.447-0.003c-5.485-0.027-9.948-4.513-9.948-9.998c0-5.514,4.485-10,9.999-10c0.175,0,0.347,0.014,0.52,0.025l0.148,0.01
		l1.316,0.088l0.598-1.176c2.492-4.899,7.443-7.942,12.92-7.942c6.79,0,12.75,4.814,14.172,11.448l0.317,1.482l1.514,0.095
		c4.203,0.262,7.496,3.763,7.496,7.971c0,4.397-3.565,7.977-7.957,8c-0.05-0.003-0.093-0.005-0.137-0.007l-0.906,0.007v2h0.863
		v-0.007c0.046,0.001,0.091,0.007,0.137,0.007c5.521,0,10-4.477,10-10C51.682,206.934,47.537,202.603,42.31,202.277z"/>
	
		<rect x="11.116" y="220.242" transform="matrix(-0.5736 -0.8191 0.8191 -0.5736 -154.9294 361.8397)" width="11.183" height="1.999"/>
	
		<rect x="29.091" y="220.242" transform="matrix(-0.5736 -0.8191 0.8191 -0.5736 -126.6439 376.5628)" width="11.183" height="1.999"/>
	<polygon points="27.523,225.248 29.293,225.248 29.724,225.248 31.733,225.248 25.319,216.087 23.682,217.234 27.893,223.248 
		26.122,223.248 23.682,223.248 24.953,225.064 26.065,226.653 30.682,233.248 32.32,232.102 27.704,225.506 	"/>
</g>
<g>
	<rect x="117.157" y="182.811" width="2" height="7.973"/>
	<rect x="98.157" y="201.725" width="7.973" height="2"/>
	<rect x="102.83" y="190.458" transform="matrix(0.7071 0.7071 -0.7071 0.7071 166.6673 -19.4545)" width="7.974" height="2"/>
	<rect x="128.339" y="187.476" transform="matrix(0.7071 0.7071 -0.7071 0.7071 173.2665 -35.3785)" width="2" height="7.972"/>
	<path d="M147.669,208.601c-1.444-6.742-7.433-11.8-14.605-11.8c-2.185,0-4.258,0.47-6.126,1.313
		c-1.667-3.202-5.007-5.394-8.866-5.394c-5.522,0-10,4.477-10,9.999c0,2.46,0.899,4.702,2.373,6.442
		c-1.429,1.84-2.287,4.144-2.287,6.653c0,5.983,4.836,10.836,10.813,10.865v0.003h0.188v-2l-0.178-0.003
		c-4.864-0.023-8.822-4.001-8.822-8.865c0-4.89,3.978-8.868,8.867-8.868c0.15,0,0.299,0.012,0.447,0.022l0.148,0.01l1.314,0.085
		l0.597-1.175c2.225-4.372,6.644-7.089,11.532-7.089c6.062,0,11.382,4.298,12.649,10.219l0.318,1.483l1.514,0.094
		c3.708,0.23,6.612,3.319,6.612,7.03c0,3.878-3.144,7.035-7.017,7.057c-0.042-0.003-0.079-0.005-0.117-0.005l-0.866,0.005v2h0.819
		v-0.006c0.042,0.001,0.082,0.006,0.124,0.006c5.001,0,9.057-4.054,9.057-9.057C156.157,212.817,152.403,208.896,147.669,208.601z
		 M119.749,204.983c-0.241-0.016-0.48-0.036-0.725-0.036c-2.766,0-5.282,1.042-7.2,2.743c-1.092-1.367-1.753-3.09-1.753-4.971
		c0-4.41,3.589-7.999,8-7.999c3.091,0,5.76,1.773,7.091,4.345C122.864,200.505,120.984,202.554,119.749,204.983z"/>
	<rect x="117.579" y="224.681" transform="matrix(-0.5736 -0.8191 0.8191 -0.5736 8.969 456.0289)" width="11.183" height="1.999"/>
	
		<rect x="135.553" y="224.681" transform="matrix(-0.5736 -0.8191 0.8191 -0.5736 37.2546 470.7521)" width="11.183" height="1.999"/>
	<polygon points="133.986,229.687 135.756,229.687 136.187,229.687 138.196,229.687 131.782,220.525 130.145,221.673 
		134.355,227.687 132.585,227.687 130.145,227.687 131.416,229.503 132.528,231.092 137.145,237.687 138.783,236.54 
		134.167,229.944 	"/>
</g>
<g>
	<path d="M249.507,205.643c-1.444-6.742-7.433-11.8-14.605-11.8c-1.799,0-3.522,0.32-5.118,0.904
		c-0.949-5.108-5.404-8.98-10.788-8.98c-0.413,0-0.819,0.027-1.222,0.071c0.744,1.112,1.179,2.448,1.179,3.886c0,3.865-3.134,7-7,7
		c-1.438,0-2.773-0.435-3.886-1.179c-0.044,0.401-0.071,0.809-0.071,1.222c0,3.712,1.845,6.987,4.661,8.979
		c-1.653,1.907-2.661,4.389-2.661,7.111c0,5.983,4.836,10.836,10.813,10.865v0.003h0.188v-2l-0.178-0.003
		c-4.864-0.023-8.822-4.001-8.822-8.865c0-4.89,3.978-8.868,8.867-8.868c0.15,0,0.299,0.012,0.447,0.022l0.148,0.01l1.314,0.085
		l0.597-1.175c2.225-4.372,6.644-7.089,11.532-7.089c6.062,0,11.382,4.298,12.649,10.219l0.318,1.483l1.514,0.094
		c3.708,0.23,6.612,3.319,6.612,7.03c0,3.878-3.144,7.035-7.017,7.057c-0.042-0.003-0.079-0.005-0.117-0.005l-0.866,0.005v2h0.819
		v-0.006c0.042,0.001,0.082,0.006,0.124,0.006c5.001,0,9.057-4.054,9.057-9.057C257.995,209.859,254.241,205.938,249.507,205.643z
		 M221.587,202.025c-0.241-0.016-0.48-0.036-0.725-0.036c-2.537,0-4.865,0.876-6.715,2.334c-2.012-1.294-3.487-3.354-3.976-5.776
		c0.582,0.117,1.178,0.177,1.78,0.177c4.963,0,9-4.037,9-9c0-0.603-0.06-1.198-0.177-1.78c3.733,0.753,6.629,3.824,7.133,7.641
		C225.197,197.027,222.982,199.283,221.587,202.025z"/>
	
		<rect x="219.416" y="221.723" transform="matrix(-0.5736 -0.8191 0.8191 -0.5736 171.6464 534.7896)" width="11.183" height="1.999"/>
	
		<rect x="237.39" y="221.723" transform="matrix(-0.5736 -0.8191 0.8191 -0.5736 199.932 549.5128)" width="11.183" height="1.999"/>
	<polygon points="235.823,226.729 237.593,226.729 238.023,226.729 240.033,226.729 233.619,217.567 231.981,218.715 
		236.192,224.729 234.422,224.729 231.981,224.729 233.253,226.545 234.365,228.134 238.981,234.729 240.62,233.582 
		236.004,226.986 	"/>
</g>
<g>
	<g>
		<path d="M-161.056,292.098c-1.596-7.445-8.207-13.029-16.127-13.029c-6.423,0-11.977,3.678-14.702,9.035
			c-0.266-0.018-0.53-0.04-0.8-0.04c-6.627,0-11.999,5.372-11.999,12c0,6.607,5.34,11.965,11.938,11.998v0.003h2.062v-2h-1.604
			l-0.447-0.003c-5.485-0.027-9.948-4.513-9.948-9.998c0-5.514,4.485-10,9.999-10c0.175,0,0.347,0.014,0.52,0.025l0.148,0.01
			l1.316,0.088l0.598-1.176c2.492-4.899,7.443-7.942,12.92-7.942c6.79,0,12.75,4.814,14.172,11.448l0.317,1.482l1.514,0.095
			c4.203,0.262,7.496,3.763,7.496,7.971c0,4.397-3.565,7.977-7.957,8c-0.05-0.003-0.093-0.005-0.137-0.007l-2.043,0.007h-2.863v2
			h4.863v-0.007c0.046,0.001,0.091,0.007,0.137,0.007c5.521,0,10-4.477,10-10C-151.684,296.754-155.828,292.423-161.056,292.098z"/>
	</g>
	<g>
		<circle cx="-186.184" cy="305.641" r="1.5"/>
	</g>
	<g>
		<circle cx="-182.184" cy="311.564" r="1.5"/>
	</g>
	<g>
		<circle cx="-174.184" cy="311.564" r="1.5"/>
	</g>
	<g>
		<circle cx="-178.184" cy="305.641" r="1.5"/>
	</g>
	<g>
		<circle cx="-170.184" cy="305.641" r="1.5"/>
	</g>
	<g>
		<circle cx="-186.184" cy="317.586" r="1.5"/>
	</g>
	<g>
		<circle cx="-178.184" cy="317.586" r="1.5"/>
	</g>
	<g>
		<circle cx="-170.184" cy="317.586" r="1.5"/>
	</g>
</g>
<g>
	<g>
		<rect x="-85.27" y="276.62" width="2" height="7.973"/>
	</g>
	<g>
		<rect x="-104.27" y="295.534" width="7.973" height="2"/>
	</g>
	<g>
		<rect x="-99.597" y="284.268" transform="matrix(0.7071 0.7071 -0.7071 0.7071 173.7113 151.159)" width="7.974" height="2"/>
	</g>
	<g>
		<rect x="-74.088" y="281.286" transform="matrix(0.7071 0.7071 -0.7071 0.7071 180.3104 135.235)" width="2" height="7.972"/>
	</g>
	<g>
		<path d="M-54.758,302.41c-1.444-6.742-7.433-11.8-14.605-11.8c-2.185,0-4.258,0.47-6.127,1.313
			c-1.666-3.202-5.006-5.394-8.865-5.394c-5.522,0-10,4.477-10,9.999c0,2.46,0.898,4.702,2.373,6.442
			c-1.428,1.84-2.287,4.144-2.287,6.653c0,5.983,4.836,10.836,10.813,10.865v0.003h1.188v-2h-0.721l-0.457-0.003
			c-4.864-0.023-8.822-4.001-8.822-8.865c0-4.89,3.978-8.868,8.867-8.868c0.15,0,0.299,0.012,0.447,0.022l0.148,0.01l1.314,0.085
			l0.597-1.175c2.225-4.372,6.644-7.089,11.532-7.089c6.062,0,11.382,4.298,12.649,10.219l0.318,1.483l1.514,0.094
			c3.708,0.23,6.612,3.319,6.612,7.03c0,3.878-3.144,7.035-7.017,7.057c-0.042-0.003-0.079-0.005-0.117-0.005l-2.047,0.005h-1.819v2
			h3.819v-0.006c0.042,0.001,0.082,0.006,0.124,0.006c5.001,0,9.057-4.054,9.057-9.057C-46.27,306.627-50.023,302.705-54.758,302.41
			z M-82.678,298.793c-0.241-0.016-0.48-0.036-0.725-0.036c-2.766,0-5.281,1.042-7.2,2.743c-1.092-1.367-1.753-3.09-1.753-4.971
			c0-4.41,3.589-7.999,8-7.999c3.092,0,5.76,1.773,7.092,4.345C-79.563,294.314-81.441,296.363-82.678,298.793z"/>
	</g>
	<g>
		<circle cx="-78.78" cy="314.004" r="1.5"/>
	</g>
	<g>
		<circle cx="-74.78" cy="320.004" r="1.5"/>
	</g>
	<g>
		<circle cx="-66.78" cy="320.004" r="1.5"/>
	</g>
	<g>
		<circle cx="-70.78" cy="314.004" r="1.5"/>
	</g>
	<g>
		<circle cx="-62.78" cy="314.004" r="1.5"/>
	</g>
	<g>
		<circle cx="-78.78" cy="326.025" r="1.5"/>
	</g>
	<g>
		<circle cx="-70.78" cy="326.025" r="1.5"/>
	</g>
	<g>
		<circle cx="-62.78" cy="326.025" r="1.5"/>
	</g>
</g>
<g>
	<g>
		<path d="M41.193,298.454c-1.444-6.742-7.433-11.8-14.605-11.8c-1.799,0-3.521,0.32-5.118,0.904
			c-0.949-5.108-5.404-8.98-10.788-8.98c-0.413,0-0.819,0.027-1.222,0.071c0.744,1.112,1.179,2.448,1.179,3.886c0,3.865-3.134,7-7,7
			c-1.438,0-2.773-0.435-3.886-1.179c-0.044,0.401-0.071,0.809-0.071,1.222c0,3.712,1.845,6.987,4.661,8.979
			c-1.653,1.907-2.661,4.389-2.661,7.111c0,5.983,4.836,10.836,10.813,10.865v0.003h1.188v-2h-0.721l-0.457-0.003
			c-4.864-0.023-8.822-4.001-8.822-8.865c0-4.89,3.978-8.868,8.867-8.868c0.15,0,0.299,0.012,0.447,0.022l0.148,0.01l1.314,0.085
			l0.597-1.175c2.225-4.372,6.644-7.089,11.532-7.089c6.062,0,11.382,4.298,12.649,10.219l0.318,1.483l1.514,0.094
			c3.708,0.23,6.612,3.319,6.612,7.03c0,3.878-3.144,7.035-7.017,7.057c-0.042-0.003-0.079-0.005-0.117-0.005l-2.047,0.005h-1.819v2
			h3.819v-0.006c0.042,0.001,0.082,0.006,0.124,0.006c5.001,0,9.057-4.054,9.057-9.057
			C49.682,302.671,45.928,298.749,41.193,298.454z M13.273,294.837c-0.241-0.016-0.48-0.036-0.725-0.036
			c-2.537,0-4.865,0.876-6.715,2.334c-2.012-1.294-3.486-3.354-3.976-5.776c0.582,0.117,1.178,0.177,1.78,0.177c4.963,0,9-4.037,9-9
			c0-0.603-0.06-1.198-0.177-1.78c3.733,0.753,6.629,3.824,7.134,7.64C16.883,289.839,14.668,292.094,13.273,294.837z"/>
	</g>
	<g>
		<circle cx="17.182" cy="310.047" r="1.5"/>
	</g>
	<g>
		<circle cx="21.182" cy="316.047" r="1.5"/>
	</g>
	<g>
		<circle cx="29.182" cy="316.047" r="1.5"/>
	</g>
	<g>
		<circle cx="25.182" cy="310.047" r="1.5"/>
	</g>
	<g>
		<circle cx="33.182" cy="310.047" r="1.5"/>
	</g>
	<g>
		<circle cx="17.182" cy="322.068" r="1.5"/>
	</g>
	<g>
		<circle cx="25.182" cy="322.068" r="1.5"/>
	</g>
	<g>
		<circle cx="33.182" cy="322.068" r="1.5"/>
	</g>
</g>
<g>
	<path d="M352.358,199.568c-1.596-7.445-8.207-13.029-16.127-13.029c-6.423,0-11.977,3.678-14.702,9.035
		c-0.266-0.018-0.53-0.04-0.8-0.04c-6.627,0-11.999,5.372-11.999,12c0,6.607,5.34,11.965,11.938,11.998v0.003h2.062v-2h-1.604
		l-0.447-0.003c-5.485-0.027-9.948-4.513-9.948-9.998c0-5.514,4.485-10,9.999-10c0.175,0,0.347,0.014,0.52,0.025l0.148,0.01
		l1.316,0.088l0.598-1.176c2.492-4.899,7.443-7.942,12.92-7.942c6.79,0,12.75,4.814,14.172,11.448l0.317,1.482l1.514,0.095
		c4.203,0.262,7.496,3.763,7.496,7.971c0,4.397-3.565,7.977-7.957,8c-0.05-0.003-0.093-0.005-0.137-0.007l-2.043,0.007h-2.863v2
		h4.863v-0.007c0.046,0.001,0.091,0.007,0.137,0.007c5.521,0,10-4.477,10-10C361.73,204.225,357.586,199.894,352.358,199.568z"/>
	<circle cx="326.73" cy="227.039" r="1.5"/>
	<circle cx="334.73" cy="233.039" r="1.5"/>
	<circle cx="342.73" cy="229.039" r="1.5"/>
	<rect x="325.73" y="210.563" width="2" height="11.976"/>
	<polygon points="335.73,228.504 335.73,226.563 335.73,214.563 333.73,214.563 333.73,226.563 333.73,228.504 333.73,228.539 
		335.73,228.539 	"/>
	<polygon points="343.73,224.316 343.73,222.563 343.73,210.563 341.73,210.563 341.73,222.563 341.73,224.316 341.73,224.539 
		343.73,224.539 	"/>
</g>
<g>
	<rect x="-396.019" y="271.182" width="2" height="7.973"/>
	<rect x="-415.019" y="290.096" width="7.973" height="2"/>
	<rect x="-410.346" y="278.829" transform="matrix(0.7071 0.7071 -0.7071 0.7071 78.8494 369.2988)" width="7.974" height="2"/>
	<rect x="-384.837" y="275.847" transform="matrix(0.7071 0.7071 -0.7071 0.7071 85.4485 353.3749)" width="2" height="7.972"/>
	<path d="M-365.507,296.972c-1.444-6.742-7.433-11.8-14.605-11.8c-2.185,0-4.258,0.47-6.126,1.313
		c-1.667-3.202-5.007-5.394-8.866-5.394c-5.522,0-10,4.477-10,9.999c0,2.46,0.899,4.702,2.373,6.442
		c-1.429,1.84-2.287,4.144-2.287,6.653c0,5.983,4.836,10.836,10.813,10.865v0.003h1.188v-2h-0.721l-0.457-0.003
		c-4.864-0.023-8.822-4.001-8.822-8.865c0-4.89,3.978-8.868,8.867-8.868c0.15,0,0.299,0.012,0.447,0.022l0.148,0.01l1.314,0.085
		l0.597-1.175c2.225-4.372,6.644-7.089,11.532-7.089c6.062,0,11.382,4.298,12.649,10.219l0.318,1.483l1.514,0.094
		c3.708,0.23,6.612,3.319,6.612,7.03c0,3.878-3.144,7.035-7.017,7.057c-0.042-0.003-0.079-0.005-0.117-0.005l-2.047,0.005h-0.819v2
		h2.819v-0.006c0.042,0.001,0.082,0.006,0.124,0.006c5.001,0,9.057-4.054,9.057-9.057
		C-357.019,301.188-360.772,297.267-365.507,296.972z M-393.427,293.354c-0.241-0.016-0.48-0.036-0.725-0.036
		c-2.766,0-5.282,1.041-7.2,2.743c-1.092-1.366-1.753-3.09-1.753-4.971c0-4.41,3.589-7.999,8-7.999c3.091,0,5.76,1.773,7.091,4.345
		C-390.312,288.877-392.191,290.925-393.427,293.354z"/>
	<circle cx="-389.028" cy="323.542" r="1.5"/>
	<circle cx="-381.028" cy="329.542" r="1.5"/>
	<circle cx="-373.028" cy="325.542" r="1.5"/>
	<rect x="-390.028" y="307.066" width="2" height="11.976"/>
	<polygon points="-380.028,325.007 -380.028,323.066 -380.028,311.066 -382.028,311.066 -382.028,323.066 -382.028,325.007 
		-382.028,325.042 -380.028,325.042 	"/>
	<polygon points="-372.028,320.819 -372.028,319.066 -372.028,307.066 -374.028,307.066 -374.028,319.066 -374.028,320.819 
		-374.028,321.042 -372.028,321.042 	"/>
</g>
<g>
	<path d="M-264.904,293.974c-1.444-6.742-7.433-11.8-14.605-11.8c-1.799,0-3.522,0.32-5.118,0.904
		c-0.949-5.108-5.404-8.98-10.788-8.98c-0.413,0-0.819,0.027-1.222,0.071c0.744,1.112,1.179,2.448,1.179,3.886c0,3.865-3.134,7-7,7
		c-1.438,0-2.773-0.435-3.886-1.179c-0.044,0.401-0.071,0.809-0.071,1.222c0,3.712,1.845,6.987,4.661,8.979
		c-1.653,1.907-2.661,4.389-2.661,7.111c0,5.983,4.836,10.836,10.813,10.865v0.003h1.188v-2h-0.721l-0.457-0.003
		c-4.864-0.023-8.822-4.001-8.822-8.865c0-4.89,3.978-8.868,8.867-8.868c0.15,0,0.299,0.012,0.447,0.022l0.148,0.01l1.314,0.085
		l0.597-1.175c2.225-4.372,6.644-7.089,11.532-7.089c6.062,0,11.382,4.298,12.649,10.219l0.318,1.483l1.514,0.094
		c3.708,0.23,6.612,3.319,6.612,7.03c0,3.878-3.144,7.035-7.017,7.057c-0.042-0.003-0.079-0.005-0.117-0.005l-2.047,0.005h-0.819v2
		h2.819v-0.006c0.042,0.001,0.082,0.006,0.124,0.006c5.001,0,9.057-4.054,9.057-9.057
		C-256.416,298.19-260.17,294.269-264.904,293.974z M-292.824,290.356c-0.241-0.016-0.48-0.036-0.725-0.036
		c-2.537,0-4.865,0.876-6.715,2.334c-2.012-1.294-3.487-3.354-3.976-5.776c0.582,0.117,1.178,0.177,1.78,0.177c4.963,0,9-4.037,9-9
		c0-0.603-0.06-1.198-0.177-1.78c3.733,0.753,6.629,3.824,7.133,7.64C-289.214,285.358-291.429,287.613-292.824,290.356z"/>
	<circle cx="-288.416" cy="320.548" r="1.5"/>
	<circle cx="-280.416" cy="326.548" r="1.5"/>
	<circle cx="-272.416" cy="322.548" r="1.5"/>
	<rect x="-289.416" y="304.072" width="2" height="11.976"/>
	<polygon points="-279.416,322.013 -279.416,320.072 -279.416,308.072 -281.416,308.072 -281.416,320.072 -281.416,322.013 
		-281.416,322.048 -279.416,322.048 	"/>
	<polygon points="-271.416,317.825 -271.416,316.072 -271.416,304.072 -273.416,304.072 -273.416,316.072 -273.416,317.825 
		-273.416,318.048 -271.416,318.048 	"/>
</g>
<g>
	<rect x="-413.019" y="398.414" width="56" height="2"/>
	<rect x="-409.019" y="404.414" width="50" height="2"/>
	<rect x="-403.019" y="410.414" width="36" height="2"/>
	<rect x="-411.019" y="392.414" width="52" height="2"/>
	<path d="M-399.145,384.409c0.175,0,0.347,0.014,0.519,0.025l0.149,0.01l1.316,0.088l0.598-1.176
		c2.493-4.899,7.443-7.942,12.92-7.942c6.79,0,12.75,4.814,14.171,11.448l0.318,1.482l1.514,0.095
		c1.207,0.075,2.335,0.425,3.336,0.975h3.286c-1.678-1.703-3.957-2.813-6.498-2.971c-1.596-7.445-8.207-13.029-16.127-13.029
		c-6.423,0-11.977,3.678-14.702,9.035c-0.266-0.018-0.53-0.04-0.8-0.04c-4.843,0-9.004,2.874-10.9,7.005h2.251
		C-406.063,386.428-402.838,384.409-399.145,384.409z"/>
</g>
<g>
	<rect x="-291.916" y="370.899" width="2" height="7.973"/>
	<rect x="-310.916" y="389.813" width="7.973" height="2"/>
	<rect x="-306.243" y="378.547" transform="matrix(0.7071 0.7071 -0.7071 0.7071 179.8514 324.8939)" width="7.974" height="2"/>
	<rect x="-280.734" y="375.565" transform="matrix(0.7071 0.7071 -0.7071 0.7071 186.4506 308.9699)" width="2" height="7.972"/>
	<rect x="-301.916" y="404.773" width="50" height="2"/>
	<rect x="-297.916" y="410.773" width="44" height="2"/>
	<rect x="-291.916" y="415.773" width="30" height="2"/>
	<rect x="-299.916" y="398.773" width="46" height="2"/>
	<path d="M-299.008,396.773h0.771h1.927h1.012c1.472-1.087,3.283-1.737,5.249-1.737c0.15,0,0.299,0.012,0.447,0.022l0.148,0.01
		l1.314,0.085l0.597-1.175c2.225-4.372,6.644-7.089,11.532-7.089c5.945,0,11.168,4.139,12.563,9.884h2.043v-0.084
		c-1.444-6.742-7.433-11.8-14.605-11.8c-2.185,0-4.258,0.47-6.126,1.313c-1.667-3.202-5.007-5.394-8.866-5.394
		c-5.522,0-10,4.477-10,9.999C-301.002,393.05-300.254,395.108-299.008,396.773z M-291.002,382.81c3.091,0,5.76,1.773,7.091,4.345
		c-2.298,1.44-4.178,3.488-5.413,5.918c-0.241-0.016-0.48-0.036-0.725-0.036c-2.764,0-5.274,1.045-7.189,2.745
		c-1.097-1.366-1.764-3.089-1.764-4.973C-299.002,386.398-295.413,382.81-291.002,382.81z"/>
</g>
<g>
	<rect x="-203.172" y="401.336" width="50" height="2"/>
	<rect x="-199.172" y="407.336" width="44" height="2"/>
	<rect x="-193.172" y="412.336" width="30" height="2"/>
	<rect x="-201.172" y="395.336" width="46" height="2"/>
	<path d="M-199.529,393.336h0.037h1.884h1.055c1.472-1.087,3.283-1.737,5.249-1.737c0.15,0,0.299,0.012,0.447,0.022l0.148,0.01
		l1.314,0.085l0.597-1.175c2.225-4.372,6.644-7.089,11.532-7.089c5.945,0,11.168,4.139,12.563,9.884h2.043v-0.084
		c-1.444-6.742-7.433-11.8-14.605-11.8c-1.799,0-3.521,0.32-5.117,0.903c-0.945-5.111-5.402-8.987-10.789-8.987
		c-0.413,0-0.819,0.027-1.222,0.071c0.744,1.112,1.179,2.448,1.179,3.886c0,3.865-3.134,7-7,7c-1.438,0-2.773-0.435-3.886-1.179
		c-0.044,0.401-0.071,0.809-0.071,1.222C-204.172,388.072-202.336,391.343-199.529,393.336z M-200.215,386.325c4.963,0,9-4.037,9-9
		c0-0.603-0.06-1.198-0.177-1.78c3.735,0.753,6.633,3.828,7.134,7.647c-2.712,1.443-4.927,3.699-6.322,6.442
		c-0.241-0.016-0.48-0.036-0.725-0.036c-2.534,0-4.855,0.879-6.701,2.335c-2.02-1.293-3.5-3.356-3.989-5.785
		C-201.413,386.266-200.817,386.325-200.215,386.325z"/>
</g>
<g>
	<path d="M-71.28,404.35h-19.474l-0.578-0.003c-5.485-0.027-9.948-4.513-9.948-9.998c0-5.514,4.485-10,9.999-10
		c0.175,0,0.347,0.014,0.519,0.025l0.149,0.01l1.316,0.088l0.598-1.176c2.493-4.899,7.443-7.942,12.92-7.942
		c6.79,0,12.75,4.814,14.171,11.448l0.318,1.482l1.514,0.095c1.822,0.113,3.463,0.845,4.746,1.971h2.732
		c-1.707-2.262-4.348-3.78-7.354-3.967c-1.596-7.445-8.207-13.029-16.127-13.029c-6.423,0-11.977,3.678-14.702,9.035
		c-0.266-0.018-0.53-0.04-0.8-0.04c-6.627,0-11.999,5.372-11.999,12c0,6.607,5.34,11.965,11.938,11.998v0.003h20.062
		c2.205,0,4,1.794,4,4s-1.795,4-4,4v2c3.314,0,6-2.686,6-6C-65.28,407.036-67.966,404.35-71.28,404.35z"/>
	<path d="M-67.28,400.35h-15.988v2h15.988c3.314,0,6-2.687,6-6c0-3.314-2.686-6-6-6v2c2.205,0,4,1.794,4,4
		S-65.075,400.35-67.28,400.35z"/>
	<path d="M-54.28,394.35c1.654,0,3,1.346,3,3s-1.346,3-3,3c-0.043,0-0.083-0.011-0.126-0.013h-4.862
		c0.003,0.005,0.009,0.008,0.012,0.013h-0.023v2h5.5v-0.051c2.523-0.254,4.5-2.358,4.5-4.949c0-2.762-2.238-5-5-5V394.35z"/>
	<path d="M-50.28,404.35h-13v2h9.022c-0.004,0.005-0.008,0.008-0.011,0.013h3.862c0.043-0.002,0.083-0.013,0.126-0.013
		c1.654,0,3,1.346,3,3s-1.346,3-3,3v2c2.762,0,5-2.238,5-5S-47.519,404.35-50.28,404.35z"/>
	<rect x="-89.28" y="400.35" width="4" height="2"/>
</g>
<path d="M-278.842,5.246c6.95,1.305,12.226,7.419,12.226,14.742c0,8.272-6.729,15.002-15,15.002c-6.79,0-12.531-4.49-14.366-10.728
	c1.398,0.461,2.867,0.698,4.366,0.698c7.72,0,14-6.281,14-14.001C-277.616,8.976-278.04,7.031-278.842,5.246 M-281.616,2.989
	c-0.338,0-0.668,0.031-1,0.051c1.861,2.113,3,4.881,3,7.92c0,6.627-5.372,12.001-12,12.001c-2.599,0-4.998-0.835-6.963-2.239
	c0.387,9.047,7.821,16.269,16.963,16.269c9.39,0,17-7.612,17-17.002S-272.227,2.989-281.616,2.989L-281.616,2.989z"/>
<g>
	<path d="M-385.012,7.984c-7.18,0-13,5.819-13,12.999c0,7.181,5.82,13.002,13,13.002s13-5.821,13-13.002
		C-372.012,13.804-377.832,7.984-385.012,7.984z M-385.012,31.985c-6.065,0-11-4.936-11-11.002c0-6.064,4.935-10.999,11-10.999
		s11,4.935,11,10.999C-374.012,27.05-378.946,31.985-385.012,31.985z"/>
	<rect x="-386.019" y="-5.01" width="2" height="10"/>
	<rect x="-386.019" y="36.99" width="2" height="10"/>
	<rect x="-411.012" y="19.99" width="9.993" height="2"/>
	<rect x="-369.019" y="19.99" width="10.007" height="2"/>
	<rect x="-371.319" y="1.076" transform="matrix(0.7071 0.7071 -0.7071 0.7071 -104.0227 263.6945)" width="2" height="10.409"/>
	<rect x="-400.727" y="30.485" transform="matrix(-0.7071 -0.7071 0.7071 -0.7071 -707.6142 -221.7235)" width="2" height="10.41"/>
	<rect x="-404.928" y="5.286" transform="matrix(0.7071 0.7071 -0.7071 0.7071 -112.6316 284.488)" width="10.409" height="2"/>
	<rect x="-375.519" y="34.695" transform="matrix(-0.7072 -0.7071 0.7071 -0.7072 -657.4221 -200.8979)" width="10.41" height="2"/>
</g>
<g>
	<rect x="13.154" y="365.852" width="2" height="7.973"/>
	<rect x="-5.818" y="384.838" width="7.973" height="2"/>
	<rect x="-1.093" y="373.619" transform="matrix(0.7071 0.7071 -0.7071 0.7071 265.7435 107.6767)" width="7.974" height="2"/>
	<rect x="24.416" y="370.637" transform="matrix(0.7071 0.7071 -0.7071 0.7071 272.3427 91.7527)" width="2" height="7.972"/>
	<path d="M28.182,407.852l0.005-0.007H15.65l-0.594-0.003c-4.864-0.024-8.822-4.001-8.822-8.865c0-4.89,3.978-8.868,8.867-8.868
		c0.15,0,0.299,0.012,0.447,0.021l0.148,0.011l1.314,0.085l0.597-1.174c2.225-4.373,6.644-7.09,11.532-7.09
		c5.916,0,11.114,4.099,12.54,9.8h2.065c-1.444-6.742-7.433-11.8-14.605-11.8c-2.185,0-4.258,0.47-6.126,1.313
		c-1.667-3.202-5.007-5.394-8.866-5.394c-5.522,0-10,4.477-10,9.999c0,2.46,0.899,4.702,2.373,6.442
		c-1.429,1.84-2.287,4.144-2.287,6.653c0,5.983,4.836,10.836,10.813,10.865v0.003h13.135v0.007c2.205,0,4,1.794,4,4s-1.795,4-4,4v2
		c3.314,0,6-2.686,6-6C34.182,410.538,31.496,407.852,28.182,407.852z M14.148,377.882c3.091,0,5.76,1.773,7.091,4.345
		c-2.298,1.439-4.178,3.488-5.413,5.918c-0.241-0.016-0.48-0.036-0.725-0.036c-2.766,0-5.282,1.042-7.2,2.743
		c-1.092-1.367-1.753-3.09-1.753-4.971C6.148,381.471,9.737,377.882,14.148,377.882z"/>
	<path d="M32.182,403.852h-9.988v2h9.988c3.314,0,6-2.687,6-6c0-3.314-2.686-6-6-6v2c2.205,0,4,1.794,4,4
		S34.387,403.852,32.182,403.852z"/>
	<path d="M40.205,403.852h-0.023v2h5.5v-0.051c2.523-0.254,4.5-2.358,4.5-4.949c0-2.762-2.238-5-5-5v2c1.654,0,3,1.346,3,3
		s-1.346,3-3,3c-0.043,0-0.083-0.011-0.126-0.013h-4.862C40.196,403.844,40.202,403.848,40.205,403.852z"/>
	<path d="M49.182,407.852h-13v2h9.022c-0.004,0.004-0.008,0.008-0.011,0.013h3.862c0.043-0.002,0.083-0.013,0.126-0.013
		c1.654,0,3,1.346,3,3s-1.346,3-3,3v2c2.762,0,5-2.238,5-5S51.943,407.852,49.182,407.852z"/>
	<rect x="16.182" y="403.852" width="4" height="2"/>
</g>
<g>
	<path d="M128.144,405.846l0.005-0.007h-12.536l-0.594-0.003c-4.864-0.024-8.822-4.001-8.822-8.865c0-4.89,3.978-8.868,8.867-8.868
		c0.15,0,0.299,0.012,0.447,0.021l0.148,0.011l1.314,0.085l0.597-1.174c2.225-4.373,6.644-7.09,11.532-7.09
		c5.916,0,11.114,4.099,12.54,9.8h2.065c-1.444-6.742-7.433-11.8-14.605-11.8c-1.806,0-3.536,0.322-5.138,0.91
		c-0.938-5.123-5.4-9.01-10.794-9.01c-0.413,0-0.819,0.027-1.222,0.071c0.744,1.112,1.179,2.448,1.179,3.886c0,3.865-3.134,7-7,7
		c-1.438,0-2.773-0.435-3.886-1.179c-0.044,0.401-0.071,0.809-0.071,1.222c0,3.725,1.858,7.009,4.69,8.998
		c-1.655,1.907-2.665,4.392-2.665,7.116c0,5.983,4.836,10.836,10.813,10.865v0.003h13.135v0.007c2.205,0,4,1.794,4,4s-1.795,4-4,4v2
		c3.314,0,6-2.686,6-6C134.144,408.532,131.458,405.846,128.144,405.846z M104.348,382.637c0.582,0.117,1.178,0.177,1.78,0.177
		c4.963,0,9-4.037,9-9c0-0.603-0.06-1.198-0.177-1.78c3.744,0.755,6.646,3.842,7.138,7.674c-2.702,1.444-4.909,3.696-6.301,6.432
		c-0.241-0.016-0.48-0.036-0.725-0.036c-2.535,0-4.861,0.875-6.71,2.33C106.325,387.141,104.839,385.072,104.348,382.637z"/>
	<path d="M132.144,401.846h-9.988v2h9.988c3.314,0,6-2.687,6-6c0-3.314-2.686-6-6-6v2c2.205,0,4,1.794,4,4
		S134.349,401.846,132.144,401.846z"/>
	<path d="M140.167,401.846h-0.023v2h5.5v-0.051c2.523-0.254,4.5-2.358,4.5-4.949c0-2.762-2.238-5-5-5v2c1.654,0,3,1.346,3,3
		s-1.346,3-3,3c-0.043,0-0.083-0.011-0.126-0.013h-4.862C140.158,401.838,140.164,401.842,140.167,401.846z"/>
	<path d="M149.144,405.846h-13v2h9.022c-0.004,0.004-0.008,0.008-0.011,0.013h3.862c0.043-0.002,0.083-0.013,0.126-0.013
		c1.654,0,3,1.346,3,3s-1.346,3-3,3v2c2.762,0,5-2.238,5-5S151.905,405.846,149.144,405.846z"/>
	<rect x="116.144" y="401.846" width="4" height="2"/>
</g>
<g>
	<rect x="229.036" y="368.414" width="2" height="10"/>
	<rect x="204.043" y="393.414" width="9.993" height="2"/>
	<rect x="243.736" y="374.5" transform="matrix(0.7071 0.7071 -0.7071 0.7071 340.1732 -61.8415)" width="2" height="10.409"/>
	<rect x="210.127" y="378.71" transform="matrix(0.7071 0.7071 -0.7071 0.7071 331.5643 -41.0481)" width="10.409" height="2"/>
	<path d="M234.036,408.414h-24v2h24c2.205,0,4,1.794,4,4s-1.795,4-4,4v2c3.314,0,6-2.686,6-6
		C240.036,411.101,237.351,408.414,234.036,408.414z"/>
	<path d="M246.06,404.414h-0.023v2h5.5v-0.051c2.523-0.254,4.5-2.358,4.5-4.949c0-2.762-2.238-5-5-5v2c1.654,0,3,1.346,3,3
		s-1.346,3-3,3c-0.043,0-0.083-0.011-0.126-0.013h-4.862C246.051,404.406,246.057,404.41,246.06,404.414z"/>
	<path d="M255.036,408.414h-13v2h9.022c-0.004,0.004-0.008,0.008-0.011,0.013h3.862c0.043-0.002,0.083-0.013,0.126-0.013
		c1.654,0,3,1.346,3,3s-1.346,3-3,3v2c2.762,0,5-2.238,5-5S257.798,408.414,255.036,408.414z"/>
	<path d="M221.745,404.414h-11.709v2h12.012h0.822h15.166c3.314,0,6-2.687,6-6c0-3.314-2.686-6-6-6v2c2.205,0,4,1.794,4,4
		s-1.795,4-4,4h-12.538c-3.802-1.734-6.455-5.563-6.455-10.007c0-6.064,4.935-10.999,11-10.999c5.384,0,9.868,3.891,10.81,9.006
		h2.021c-0.961-6.23-6.331-11.006-12.831-11.006c-7.18,0-13,5.819-13,12.999C217.043,398.433,218.873,402.029,221.745,404.414z"/>
</g>
<g>
	<path d="M334.263,401.857h-24v2h24c2.205,0,4,1.794,4,4s-1.795,4-4,4v2c3.314,0,6-2.686,6-6
		C340.263,404.544,337.577,401.857,334.263,401.857z"/>
	<path d="M351.763,399.857v-0.051c2.523-0.254,4.5-2.358,4.5-4.949c0-2.762-2.238-5-5-5v2c1.654,0,3,1.346,3,3s-1.346,3-3,3
		c-0.043,0-0.083-0.011-0.126-0.013h-4.862c0.004,0.005,0.009,0.009,0.012,0.013h-0.023v2H351.763z"/>
	<path d="M355.263,401.857h-13v2h9.022c-0.003,0.004-0.007,0.008-0.011,0.013h3.862c0.043-0.002,0.083-0.013,0.126-0.013
		c1.654,0,3,1.346,3,3s-1.346,3-3,3v2c2.762,0,5-2.238,5-5S358.024,401.857,355.263,401.857z"/>
	<path d="M323.097,399.857h15.166c3.314,0,6-2.687,6-6c0-3.314-2.686-6-6-6v2c2.205,0,4,1.794,4,4s-1.795,4-4,4h-12.586
		c-2.596-1.188-4.658-3.339-5.69-6.034c0.849,0.204,1.724,0.309,2.612,0.309c6.168,0,11.187-5.019,11.187-11.188
		c0-1.276-0.22-2.532-0.64-3.717c4.046,1.102,7.168,4.459,7.937,8.63h2.018c-0.964-6.237-6.338-11.016-12.846-11.016
		c-0.259,0-0.511,0.024-0.766,0.039c1.425,1.618,2.297,3.737,2.297,6.063c0,5.072-4.112,9.188-9.187,9.188
		c-1.988,0-3.826-0.641-5.33-1.715c0.162,3.801,1.962,7.165,4.699,9.44h-11.705v2h12.012H323.097z"/>
</g>
<g>
	<path d="M-385.519,487.051h-20c-1.103,0-2-0.897-2-2s0.897-2,2-2h3.445h0.555v-2h-4c-2.209,0-4,1.791-4,4s1.791,4,4,4h20
		c2.205,0,4,1.794,4,4s-1.795,4-4,4v2c3.314,0,6-2.686,6-6C-379.519,489.737-382.204,487.051-385.519,487.051z"/>
	<path d="M-383.519,471.051v2c2.205,0,4,1.794,4,4s-1.795,4-4,4h-15.988v2h15.988c3.314,0,6-2.687,6-6
		C-377.519,473.736-380.204,471.051-383.519,471.051z"/>
	<path d="M-377.519,483.051v2h5.5V485c2.523-0.254,4.5-2.358,4.5-4.949c0-2.762-2.238-5-5-5v2c1.654,0,3,1.346,3,3s-1.346,3-3,3
		c-0.043,0-0.083-0.011-0.126-0.013h-4.862c0.003,0.005,0.009,0.009,0.012,0.013H-377.519z"/>
	<path d="M-366.519,487.051h-11v2h7.022c-0.004,0.004-0.008,0.008-0.011,0.013h3.862c0.043-0.002,0.083-0.013,0.126-0.013
		c1.654,0,3,1.346,3,3s-1.346,3-3,3v2c2.762,0,5-2.238,5-5S-363.757,487.051-366.519,487.051z"/>
</g>
<path d="M150.773,473.397v-0.038h-38.376c-1.103,0-2-0.897-2-2s0.897-2,2-2h33c2.762,0,5-2.238,5-5s-2.238-5-5-5h-37.875v0.008
	c-0.042-0.001-0.083-0.008-0.125-0.008c-2.762,0-5,2.238-5,5s2.238,5,5,5v-2c-1.654,0-3-1.346-3-3s1.346-3,3-3h0.125h3.853h34.022
	c1.654,0,3,1.346,3,3s-1.346,3-3,3h-33c-2.209,0-4,1.791-4,4s1.791,4,4,4h38c1.103,0,2,0.897,2,2s-0.897,2-2,2h-32
	c-2.209,0-4,1.791-4,4s1.791,4,4,4h22c1.103,0,2,0.897,2,2s-0.897,2-2,2h-24.01v0.001c-2.204,0.006-3.99,1.793-3.99,3.999
	s1.786,3.993,3.99,3.999v0.001h12.01c1.103,0,2,0.897,2,2s-0.897,2-2,2h-2c-2.209,0-4,1.791-4,4s1.791,4,4,4v-2
	c-1.103,0-2-0.897-2-2s0.897-2,2-2h2c2.209,0,4-1.791,4-4s-1.791-4-4-4h-12c-1.103,0-2-0.897-2-2s0.897-2,2-2h24
	c2.209,0,4-1.791,4-4c0-2.152-1.704-3.895-3.834-3.983v-0.017h-22.166c-1.103,0-2-0.897-2-2s0.897-2,2-2h32c2.209,0,4-1.791,4-4
	C154.397,475.279,152.804,473.59,150.773,473.397z"/>
<path d="M336.188,464.075v-2.024h-2v2.024c-13.01,0.513-23.462,10.965-23.975,23.976h1.674c1.14-1.222,2.748-2,4.551-2
	c2.26,0,4.233,1.203,5.331,3h1.838c1.098-1.797,3.071-3,5.331-3c2.204,0,4.137,1.144,5.25,2.866v15.134c0,2.21,1.791,4,4,4
	s4-1.79,4-4h-2c0,1.103-0.897,2-2,2s-2-0.897-2-2v-15.134c1.113-1.723,3.046-2.866,5.25-2.866c2.26,0,4.233,1.203,5.331,3h1.838
	c1.098-1.797,3.071-3,5.331-3c1.803,0,3.411,0.778,4.551,2h1.674C359.65,475.04,349.198,464.588,336.188,464.075z M353.938,484.051
	c-2.496,0-4.736,1.114-6.25,2.87c-1.514-1.756-3.754-2.87-6.25-2.87s-4.736,1.114-6.25,2.87c-1.514-1.756-3.754-2.87-6.25-2.87
	s-4.736,1.114-6.25,2.87c-1.514-1.756-3.755-2.87-6.25-2.87c-1.402,0-2.731,0.351-3.897,0.975
	c1.909-10.769,11.339-18.975,22.647-18.975s20.738,8.206,22.647,18.975C356.67,484.401,355.341,484.051,353.938,484.051z"/>
<g>
	<path d="M-69.106,588.363v-17.105c0-2.762-2.238-5-5-5s-5,2.238-5,5v17.105c-1.236,1.263-2,2.988-2,4.895c0,3.866,3.134,7,7,7
		s7-3.134,7-7C-67.106,591.352-67.87,589.626-69.106,588.363z M-74.106,598.258c-2.757,0-5-2.243-5-5
		c0-1.313,0.508-2.554,1.429-3.495l0.571-0.583v-0.816v-17.105c0-1.654,1.346-3,3-3s3,1.346,3,3v17.105v0.816l0.571,0.583
		c0.921,0.941,1.429,2.183,1.429,3.495C-69.106,596.015-71.35,598.258-74.106,598.258z"/>
	<path d="M-73.106,590.434v-15.176h-2v15.176c-1.167,0.413-2.008,1.516-2.008,2.824c0,1.662,1.347,3.008,3.008,3.008
		c1.662,0,3.008-1.346,3.008-3.008C-71.099,591.949-71.938,590.847-73.106,590.434z M-74.106,594.266
		c-0.556,0-1.008-0.452-1.008-1.008s0.452-1.008,1.008-1.008s1.008,0.452,1.008,1.008S-73.551,594.266-74.106,594.266z"/>
</g>
<g>
	<path d="M30.682,588.363v-17.105c0-2.762-2.238-5-5-5s-5,2.238-5,5v17.105c-1.236,1.263-2,2.988-2,4.895c0,3.866,3.134,7,7,7
		s7-3.134,7-7C32.682,591.352,31.918,589.626,30.682,588.363z M25.682,598.258c-2.757,0-5-2.243-5-5
		c0-1.313,0.508-2.554,1.429-3.495l0.571-0.583v-0.816v-17.105c0-1.654,1.346-3,3-3s3,1.346,3,3v17.105v0.816l0.571,0.583
		c0.921,0.941,1.429,2.183,1.429,3.495C30.682,596.015,28.438,598.258,25.682,598.258z"/>
	<path d="M26.682,590.434v-20.176h-2v20.176c-1.167,0.413-2.008,1.516-2.008,2.824c0,1.662,1.347,3.008,3.008,3.008
		c1.662,0,3.008-1.346,3.008-3.008C28.689,591.949,27.85,590.847,26.682,590.434z M25.682,594.266c-0.556,0-1.008-0.452-1.008-1.008
		s0.452-1.008,1.008-1.008s1.008,0.452,1.008,1.008S26.237,594.266,25.682,594.266z"/>
</g>
<g>
	<path d="M-172.216,588.363v-17.105c0-2.762-2.238-5-5-5s-5,2.238-5,5v17.105c-1.236,1.263-2,2.988-2,4.895c0,3.866,3.134,7,7,7
		s7-3.134,7-7C-170.216,591.352-170.979,589.626-172.216,588.363z M-177.216,598.258c-2.757,0-5-2.243-5-5
		c0-1.313,0.508-2.554,1.429-3.495l0.571-0.583v-0.816v-17.105c0-1.654,1.346-3,3-3s3,1.346,3,3v17.105v0.816l0.571,0.583
		c0.921,0.941,1.429,2.183,1.429,3.495C-172.216,596.015-174.459,598.258-177.216,598.258z"/>
	<path d="M-176.216,590.434v-10.176h-2v10.176c-1.167,0.413-2.008,1.516-2.008,2.824c0,1.662,1.347,3.008,3.008,3.008
		c1.662,0,3.008-1.346,3.008-3.008C-174.208,591.949-175.048,590.847-176.216,590.434z M-177.216,594.266
		c-0.556,0-1.008-0.452-1.008-1.008s0.452-1.008,1.008-1.008s1.008,0.452,1.008,1.008S-176.66,594.266-177.216,594.266z"/>
</g>
<g>
	<path d="M-275.861,588.363v-17.105c0-2.762-2.238-5-5-5s-5,2.238-5,5v17.105c-1.236,1.263-2,2.988-2,4.895c0,3.866,3.134,7,7,7
		s7-3.134,7-7C-273.861,591.352-274.625,589.626-275.861,588.363z M-280.861,598.258c-2.757,0-5-2.243-5-5
		c0-1.313,0.508-2.554,1.429-3.495l0.571-0.583v-0.816v-17.105c0-1.654,1.346-3,3-3s3,1.346,3,3v17.105v0.816l0.571,0.583
		c0.921,0.941,1.429,2.183,1.429,3.495C-275.861,596.015-278.104,598.258-280.861,598.258z"/>
	<path d="M-279.861,590.434v-5.176h-2v5.176c-1.167,0.413-2.008,1.516-2.008,2.824c0,1.662,1.347,3.008,3.008,3.008
		c1.662,0,3.008-1.346,3.008-3.008C-277.854,591.949-278.693,590.847-279.861,590.434z M-280.861,594.266
		c-0.556,0-1.008-0.452-1.008-1.008s0.452-1.008,1.008-1.008s1.008,0.452,1.008,1.008S-280.306,594.266-280.861,594.266z"/>
</g>
<g>
	<path d="M-380.519,588.363v-17.105c0-2.762-2.238-5-5-5s-5,2.238-5,5v17.105c-1.236,1.263-2,2.988-2,4.895c0,3.866,3.134,7,7,7
		s7-3.134,7-7C-378.519,591.352-379.282,589.626-380.519,588.363z M-385.519,598.258c-2.757,0-5-2.243-5-5
		c0-1.313,0.508-2.554,1.429-3.495l0.571-0.583v-0.816v-17.105c0-1.654,1.346-3,3-3s3,1.346,3,3v17.105v0.816l0.571,0.583
		c0.921,0.941,1.429,2.183,1.429,3.495C-380.519,596.015-382.762,598.258-385.519,598.258z"/>
	<path d="M-385.519,590.25c-1.661,0-3.008,1.347-3.008,3.008c0,1.662,1.347,3.008,3.008,3.008c1.662,0,3.008-1.346,3.008-3.008
		C-382.511,591.597-383.856,590.25-385.519,590.25z M-385.519,594.266c-0.556,0-1.008-0.452-1.008-1.008s0.452-1.008,1.008-1.008
		s1.008,0.452,1.008,1.008S-384.963,594.266-385.519,594.266z"/>
</g>
<g>
	<path d="M119.406,568.57c-2.209,0-4,1.791-4,4c0,2.21,1.791,4,4,4c2.211,0,4-1.79,4-4
		C123.406,570.361,121.617,568.57,119.406,568.57z M119.406,574.57c-1.103,0-2-0.897-2-2s0.897-2,2-2s2,0.897,2,2
		S120.509,574.57,119.406,574.57z"/>
	<path d="M133.406,596.57c-4.41,0-7.999-3.589-7.999-7.999v-4.002c0-4.41,3.589-7.999,7.999-7.999c2.715,0,5.115,1.362,6.563,3.437
		l1.43-1.43c-1.824-2.429-4.72-4.007-7.992-4.007c-5.522,0-9.999,4.478-9.999,9.999v4.002c0,5.521,4.477,9.999,9.999,9.999
		c3.272,0,6.168-1.579,7.992-4.008l-1.43-1.43C138.522,595.207,136.122,596.57,133.406,596.57z"/>
</g>
<g>
	<path d="M224.103,568.449c-2.209,0-4,1.791-4,4c0,2.21,1.791,4,4,4c2.211,0,4-1.79,4-4
		C228.103,570.24,226.313,568.449,224.103,568.449z M224.103,574.449c-1.103,0-2-0.897-2-2s0.897-2,2-2s2,0.897,2,2
		S225.205,574.449,224.103,574.449z"/>
	<polygon points="243.978,576.57 243.978,574.57 231.978,574.57 229.978,574.57 229.978,598.57 231.978,598.57 231.978,586.57 
		239.978,586.57 239.978,584.57 231.978,584.57 231.978,576.57 	"/>
</g>
<g>
	<path d="M335.188,572.262c-7.179,0-13,5.82-13,13s5.821,13,13,13s13-5.82,13-13S342.367,572.262,335.188,572.262z M335.188,596.262
		c-6.065,0-11-4.935-11-11s4.935-11,11-11s11,4.935,11,11S341.254,596.262,335.188,596.262z"/>
	<path d="M330.922,589.504l6.363-2.121l2.121-6.364l-6.363,2.122L330.922,589.504z M334.624,584.722l1.62-0.54l-0.54,1.62
		l-1.62,0.54L334.624,584.722z"/>
</g>
<g>
	<path d="M-385.519,662.779c-7.179,0-13,5.82-13,13s5.821,13,13,13s13-5.82,13-13S-378.34,662.779-385.519,662.779z
		 M-385.519,686.779c-6.065,0-11-4.934-11-11c0-6.064,4.935-11,11-11s11,4.936,11,11
		C-374.519,681.846-379.453,686.779-385.519,686.779z"/>
	<path d="M-382.957,674.201l-2.586-4.422l-2.529,4.33h0.007c-0.299,0.467-0.478,1.018-0.478,1.613c0,1.656,1.343,3,3,3s3-1.344,3-3
		c0-0.559-0.162-1.074-0.428-1.521H-382.957z M-385.543,676.723c-0.552,0-1-0.449-1-1c0-0.188,0.055-0.367,0.162-0.535l0.864-1.355
		l0.826,1.391c0.098,0.164,0.147,0.332,0.147,0.5C-384.543,676.273-384.991,676.723-385.543,676.723z"/>
</g>
<g>
	<path d="M-280.734,662.779c-7.18,0-13,5.82-13,13s5.82,13,13,13s13-5.82,13-13S-273.555,662.779-280.734,662.779z
		 M-280.734,686.779c-6.065,0-11-4.934-11-11c0-6.064,4.935-11,11-11s11,4.936,11,11
		C-269.734,681.846-274.669,686.779-280.734,686.779z"/>
	<path d="M-279.146,673.199c-0.467-0.299-1.018-0.477-1.613-0.477c-1.658,0-3,1.342-3,3c0,1.656,1.342,3,3,3
		c0.557,0,1.072-0.162,1.52-0.428v0.014l4.422-2.586l-4.328-2.529V673.199z M-280.261,676.574c-0.164,0.098-0.332,0.148-0.498,0.148
		c-0.552,0-1-0.449-1-1c0-0.553,0.448-1,1-1c0.188,0,0.368,0.053,0.535,0.16l1.355,0.865L-280.261,676.574z"/>
</g>
<g>
	<path d="M-177.684,662.779c-7.18,0-13,5.82-13,13s5.82,13,13,13s13-5.82,13-13S-170.504,662.779-177.684,662.779z
		 M-177.684,686.779c-6.065,0-11-4.934-11-11c0-6.064,4.935-11,11-11s11,4.936,11,11
		C-166.684,681.846-171.618,686.779-177.684,686.779z"/>
	<path d="M-177.684,672.723c-1.656,0-3,1.342-3,3c0,0.557,0.162,1.072,0.428,1.52h-0.014l2.586,4.422l2.529-4.328h-0.006
		c0.299-0.467,0.477-1.018,0.477-1.613C-174.684,674.064-176.025,672.723-177.684,672.723z M-176.845,676.258l-0.865,1.355
		l-0.826-1.393c-0.098-0.164-0.147-0.332-0.147-0.498c0-0.553,0.448-1,1-1s1,0.447,1,1
		C-176.684,675.91-176.737,676.09-176.845,676.258z"/>
</g>
<g>
	<path d="M-74.27,662.779c-7.179,0-13,5.82-13,13s5.821,13,13,13s13-5.82,13-13S-67.091,662.779-74.27,662.779z M-74.27,686.779
		c-6.065,0-11-4.934-11-11c0-6.064,4.935-11,11-11s11,4.936,11,11C-63.27,681.846-68.204,686.779-74.27,686.779z"/>
	<path d="M-74.311,672.723c-0.557,0-1.072,0.162-1.52,0.428v-0.014l-4.422,2.586l4.328,2.529v-0.006
		c0.467,0.299,1.018,0.477,1.613,0.477c1.658,0,3-1.342,3-3C-71.311,674.066-72.652,672.723-74.311,672.723z M-74.311,676.723
		c-0.188,0-0.368-0.055-0.535-0.162l-1.355-0.865l1.393-0.826c0.164-0.098,0.332-0.146,0.498-0.146c0.552,0,1,0.447,1,1
		C-73.311,676.273-73.759,676.723-74.311,676.723z"/>
</g>
<g>
	<rect x="-282.421" y="466.051" width="2" height="10"/>
	<rect x="-267.721" y="472.137" transform="matrix(0.7071 0.7071 -0.7071 0.7071 259.4105 328.4104)" width="2" height="10.409"/>
	<rect x="-301.33" y="476.346" transform="matrix(0.7071 0.7071 -0.7071 0.7071 250.8016 349.2038)" width="10.409" height="2"/>
	<polygon points="-288.089,495.305 -286.675,496.719 -282.421,492.465 -282.421,502.051 -280.421,502.051 -280.421,492.465 
		-276.168,496.719 -274.754,495.305 -281.421,488.637 	"/>
	<path d="M-268.414,492.05c0-0.002,0-0.004,0-0.006c0-7.18-5.82-12.999-13-12.999s-13,5.819-13,12.999c0,0.002,0,0.004,0,0.006h-13
		v2h18v-2h-3c0-0.002,0-0.004,0-0.006c0-6.064,4.935-10.999,11-10.999s11,4.935,11,10.999c0,0.002,0,0.004,0,0.006h-3v2h17.995v-2
		H-268.414z"/>
</g>
<g>
	<rect x="-178.676" y="464.863" width="2" height="10"/>
	<rect x="-163.976" y="470.949" transform="matrix(0.7071 0.7071 -0.7071 0.7071 288.957 254.7037)" width="2" height="10.409"/>
	<rect x="-197.585" y="475.159" transform="matrix(0.7071 0.7071 -0.7071 0.7071 280.3481 275.4971)" width="10.409" height="2"/>
	<polygon points="-176.676,499.41 -176.676,488.863 -178.676,488.863 -178.676,499.41 -182.93,495.156 -184.344,496.57 
		-177.676,503.238 -171.009,496.57 -172.423,495.156 	"/>
	<path d="M-164.669,490.862c0-0.002,0-0.004,0-0.006c0-7.18-5.82-12.999-13-12.999s-13,5.819-13,12.999c0,0.002,0,0.004,0,0.006h-13
		v2h22v-2h-7c0-0.002,0-0.004,0-0.006c0-6.064,4.935-10.999,11-10.999s11,4.935,11,10.999c0,0.002,0,0.004,0,0.006h-7v2h21.995v-2
		H-164.669z"/>
</g>
<g>
	<polygon points="25.682,498.876 25.682,484.493 23.682,484.493 23.682,498.876 19.428,494.622 18.014,496.036 24.682,502.704 
		31.349,496.036 29.935,494.622 	"/>
	<path d="M41.31,479.522c-1.596-7.445-8.207-13.029-16.127-13.029c-6.423,0-11.977,3.678-14.702,9.035
		c-0.266-0.018-0.53-0.04-0.8-0.04c-6.627,0-11.999,5.372-11.999,12c0,6.607,5.34,11.965,11.938,11.998v0.003h6.062v-2h-5.604
		l-0.447-0.003c-5.485-0.027-9.948-4.513-9.948-9.998c0-5.514,4.485-10,9.999-10c0.175,0,0.347,0.014,0.52,0.025l0.148,0.01
		l1.316,0.088l0.598-1.176c2.492-4.899,7.443-7.942,12.92-7.942c6.79,0,12.75,4.814,14.172,11.448l0.317,1.482l1.514,0.095
		c4.203,0.262,7.496,3.763,7.496,7.971c0,4.397-3.565,7.977-7.957,8c-0.05-0.003-0.093-0.005-0.137-0.007l-2.043,0.007h-4.863v2
		h6.863v-0.007c0.046,0.001,0.091,0.007,0.137,0.007c5.521,0,10-4.477,10-10C50.682,484.179,46.537,479.848,41.31,479.522z"/>
</g>
<g>
	<polygon points="-68.334,495.681 -66.92,494.267 -73.587,487.599 -80.255,494.267 -78.841,495.681 -74.587,491.427 
		-74.587,504.013 -72.587,504.013 -72.587,491.427 	"/>
	<path d="M-56.959,481.118c-1.596-7.445-8.207-13.029-16.127-13.029c-6.423,0-11.977,3.678-14.702,9.035
		c-0.266-0.018-0.53-0.04-0.8-0.04c-6.627,0-11.999,5.372-11.999,12c0,6.607,5.34,11.965,11.938,11.998v0.003h10.062v-2h-9.604
		l-0.447-0.003c-5.485-0.027-9.948-4.513-9.948-9.998c0-5.514,4.485-10,9.999-10c0.175,0,0.347,0.014,0.52,0.025l0.148,0.01
		l1.316,0.088l0.598-1.176c2.492-4.899,7.443-7.942,12.92-7.942c6.79,0,12.75,4.814,14.172,11.448l0.317,1.482l1.514,0.095
		c4.203,0.262,7.496,3.763,7.496,7.971c0,4.397-3.565,7.977-7.957,8c-0.05-0.003-0.093-0.005-0.137-0.007l-2.043,0.007h-8.863v2
		h10.863v-0.007c0.046,0.001,0.091,0.007,0.137,0.007c5.521,0,10-4.477,10-10C-47.587,485.774-51.731,481.443-56.959,481.118z"/>
</g>
<g>
	<path d="M145.53,291.603c-1.596-7.445-8.207-13.029-16.127-13.029c-6.423,0-11.977,3.678-14.702,9.035
		c-0.266-0.018-0.53-0.04-0.8-0.04c-6.627,0-11.999,5.372-11.999,12c0,6.607,5.34,11.965,11.938,11.998v0.003h2.062v-2h-1.604
		l-0.447-0.003c-5.485-0.027-9.948-4.513-9.948-9.998c0-5.514,4.485-10,9.999-10c0.175,0,0.347,0.014,0.52,0.025l0.148,0.01
		l1.316,0.088l0.598-1.176c2.492-4.899,7.443-7.942,12.92-7.942c6.79,0,12.75,4.814,14.172,11.448l0.317,1.482l1.514,0.095
		c4.203,0.262,7.496,3.763,7.496,7.971c0,4.397-3.565,7.977-7.957,8c-0.05-0.003-0.093-0.005-0.137-0.007l-2.043,0.007h-0.863v2
		h2.863v-0.007c0.046,0.001,0.091,0.007,0.137,0.007c5.521,0,10-4.477,10-10C154.902,296.259,150.758,291.928,145.53,291.603z"/>
	<polygon points="123.902,310.591 123.902,307.961 126.075,309.184 126.761,307.963 124.291,306.573 126.761,305.184 
		126.075,303.963 123.902,305.186 123.902,302.591 121.902,302.591 121.902,305.229 119.651,303.963 118.966,305.184 
		121.436,306.573 118.966,307.963 119.651,309.184 121.902,307.917 121.902,310.591 	"/>
	<polygon points="129.064,314.945 126.892,316.168 126.892,313.573 124.892,313.573 124.892,316.212 122.641,314.945 
		121.955,316.166 124.425,317.556 121.955,318.945 122.641,320.166 124.892,318.899 124.892,321.573 126.892,321.573 
		126.892,318.943 129.064,320.166 129.75,318.945 127.28,317.556 129.75,316.166 	"/>
	<polygon points="138.08,307.963 135.907,309.186 135.907,306.591 133.907,306.591 133.907,309.229 131.656,307.963 
		130.971,309.184 133.44,310.573 130.971,311.963 131.656,313.184 133.907,311.917 133.907,314.591 135.907,314.591 
		135.907,311.961 138.08,313.184 138.766,311.963 136.296,310.573 138.766,309.184 	"/>
</g>
<g>
	<rect x="221.042" y="273.551" width="2" height="7.973"/>
	<rect x="202.042" y="292.465" width="7.973" height="2"/>
	<rect x="206.715" y="281.198" transform="matrix(0.7071 0.7071 -0.7071 0.7071 261.2575 -66.335)" width="7.974" height="2"/>
	<rect x="232.224" y="278.216" transform="matrix(0.7071 0.7071 -0.7071 0.7071 267.8567 -82.2589)" width="2" height="7.972"/>
	<path d="M251.554,299.341c-1.444-6.742-7.433-11.8-14.605-11.8c-2.185,0-4.258,0.471-6.127,1.314
		c-1.666-3.203-5.006-5.395-8.865-5.395c-5.522,0-10,4.477-10,9.999c0,2.46,0.899,4.702,2.373,6.442
		c-1.428,1.84-2.287,4.144-2.287,6.653c0,5.983,4.836,10.836,10.813,10.865v0.003h1.188v-2h-0.721l-0.457-0.003
		c-4.864-0.023-8.822-4.001-8.822-8.865c0-4.89,3.978-8.868,8.867-8.868c0.15,0,0.299,0.012,0.447,0.022l0.148,0.01l1.314,0.085
		l0.597-1.175c2.225-4.372,6.644-7.089,11.532-7.089c6.062,0,11.382,4.298,12.649,10.219l0.318,1.483l1.514,0.094
		c3.708,0.23,6.612,3.319,6.612,7.03c0,3.878-3.144,7.035-7.017,7.057c-0.042-0.003-0.079-0.005-0.117-0.005l-1.866,0.005v2h1.819
		v-0.006c0.042,0.001,0.082,0.006,0.124,0.006c5.001,0,9.057-4.054,9.057-9.057C260.042,303.558,256.288,299.636,251.554,299.341z
		 M223.634,295.724c-0.241-0.016-0.48-0.036-0.725-0.036c-2.766,0-5.282,1.041-7.2,2.742c-1.092-1.365-1.753-3.089-1.753-4.97
		c0-4.41,3.589-7.999,8-7.999c3.092,0,5.76,1.773,7.091,4.346C226.749,291.246,224.87,293.294,223.634,295.724z"/>
	<polygon points="231.034,316.443 231.034,313.813 233.207,315.036 233.893,313.815 231.423,312.426 233.893,311.036 
		233.207,309.815 231.034,311.038 231.034,308.443 229.034,308.443 229.034,311.082 226.783,309.815 226.098,311.036 
		228.567,312.426 226.098,313.815 226.783,315.036 229.034,313.77 229.034,316.443 	"/>
	<polygon points="236.196,320.798 234.023,322.021 234.023,319.426 232.023,319.426 232.023,322.064 229.772,320.798 
		229.087,322.019 231.557,323.408 229.087,324.798 229.772,326.019 232.023,324.752 232.023,327.426 234.023,327.426 
		234.023,324.796 236.196,326.019 236.882,324.798 234.412,323.408 236.882,322.019 	"/>
	<polygon points="245.212,313.815 243.039,315.038 243.039,312.443 241.039,312.443 241.039,315.082 238.788,313.815 
		238.103,315.036 240.572,316.426 238.103,317.815 238.788,319.036 241.039,317.77 241.039,320.443 243.039,320.443 
		243.039,317.813 245.212,319.036 245.897,317.815 243.428,316.426 245.897,315.036 	"/>
</g>
<g>
	<path d="M351.742,296.338c-1.444-6.742-7.433-11.8-14.605-11.8c-1.799,0-3.522,0.32-5.118,0.904
		c-0.949-5.108-5.404-8.98-10.788-8.98c-0.413,0-0.819,0.027-1.222,0.071c0.744,1.112,1.179,2.448,1.179,3.886c0,3.865-3.134,7-7,7
		c-1.438,0-2.773-0.435-3.886-1.179c-0.044,0.401-0.071,0.809-0.071,1.222c0,3.713,1.845,6.987,4.661,8.979
		c-1.653,1.907-2.661,4.389-2.661,7.111c0,5.983,4.836,10.836,10.813,10.865v0.003h1.188v-2h-0.721l-0.457-0.003
		c-4.864-0.023-8.822-4.001-8.822-8.865c0-4.89,3.978-8.868,8.867-8.868c0.15,0,0.299,0.012,0.447,0.022l0.148,0.01l1.314,0.085
		l0.597-1.175c2.225-4.372,6.644-7.089,11.532-7.089c6.062,0,11.382,4.298,12.649,10.219l0.318,1.483l1.514,0.094
		c3.708,0.23,6.612,3.319,6.612,7.03c0,3.878-3.144,7.035-7.017,7.057c-0.042-0.003-0.079-0.005-0.117-0.005l-1.866,0.005v2h1.819
		v-0.006c0.042,0.001,0.082,0.006,0.124,0.006c5.001,0,9.057-4.054,9.057-9.057C360.23,300.555,356.477,296.633,351.742,296.338z
		 M323.822,292.721c-0.241-0.016-0.48-0.036-0.725-0.036c-2.537,0-4.865,0.877-6.715,2.334c-2.012-1.294-3.486-3.354-3.976-5.776
		c0.582,0.117,1.178,0.177,1.78,0.177c4.963,0,9-4.037,9-9c0-0.603-0.06-1.198-0.177-1.78c3.733,0.753,6.629,3.824,7.134,7.64
		C327.432,287.723,325.217,289.978,323.822,292.721z"/>
	<polygon points="331.268,313.44 331.268,310.811 333.44,312.033 334.126,310.813 331.656,309.423 334.126,308.033 333.44,306.813 
		331.268,308.035 331.268,305.44 329.268,305.44 329.268,308.079 327.017,306.813 326.331,308.033 328.801,309.423 326.331,310.813 
		327.017,312.033 329.268,310.767 329.268,313.44 	"/>
	<polygon points="336.43,317.795 334.257,319.018 334.257,316.423 332.257,316.423 332.257,319.062 330.006,317.795 329.32,319.016 
		331.79,320.405 329.32,321.795 330.006,323.016 332.257,321.749 332.257,324.423 334.257,324.423 334.257,321.793 336.43,323.016 
		337.115,321.795 334.646,320.405 337.115,319.016 	"/>
	<polygon points="345.445,310.813 343.272,312.035 343.272,309.44 341.272,309.44 341.272,312.079 339.021,310.813 338.336,312.033 
		340.806,313.423 338.336,314.813 339.021,316.033 341.272,314.767 341.272,317.44 343.272,317.44 343.272,314.811 345.445,316.033 
		346.131,314.813 343.661,313.423 346.131,312.033 	"/>
</g>
<rect x="-264.616" y="-271.412" fill="none" width="472.974" height="180.918"/>
<text transform="matrix(1 0 0 1 -84.979 -200.0132)"><tspan x="0" y="0" font-family="'HelveticaNeueLTStd-Th'" font-size="100" letter-spacing="2">60</tspan><tspan x="-99.268" y="60" font-family="'HelveticaNeueLTStd-Lt'" font-size="48" letter-spacing="1">Weather Icons</tspan><tspan x="-3.726" y="104" font-family="'HelveticaNeueLTStd-Lt'" font-size="24">IOS 7 Style</tspan></text>
</svg>
