<?xml version="1.0" encoding="utf-8"?>
<!-- Generator: Adobe Illustrator 16.0.0, SVG Export Plug-In . SVG Version: 6.00 Build 0)  -->
<!DOCTYPE svg PUBLIC "-//W3C//DTD SVG 1.1//EN" "http://www.w3.org/Graphics/SVG/1.1/DTD/svg11.dtd">
<svg version="1.1" id="Layer_1" xmlns="http://www.w3.org/2000/svg" xmlns:xlink="http://www.w3.org/1999/xlink" x="0px" y="0px"
	 width="53px" height="32.996px" viewBox="0 0 53 32.996" enable-background="new 0 0 53 32.996" xml:space="preserve">
<path d="M440.536,464.261l-1.803,15.077l-0.268,2.237h2.254h6.896l-14.693,18.759l1.789-14.52l0.277-2.245h-2.262h-6.957
	L440.536,464.261 M443.391,457.236l-21.667,28.333h11.004l-2.671,21.667l21.667-27.661H440.72L443.391,457.236L443.391,457.236z"/>
<path d="M27.501,2c6.79,0,12.749,4.814,14.171,11.448l0.318,1.483l1.514,0.094C47.707,15.287,51,18.788,51,22.996
	c0,4.396-3.565,7.977-7.957,8c-0.046-0.003-0.091-0.006-0.137-0.007l-2.043-0.036v0.043H12.526l-0.578-0.003
	C6.463,30.966,2,26.48,2,20.995c0-5.514,4.485-10,9.999-10c0.175,0,0.347,0.014,0.519,0.025l0.149,0.011l1.316,0.087l0.598-1.176
	C17.074,5.043,22.024,2,27.501,2 M27.501,0c-6.423,0-11.977,3.678-14.702,9.035c-0.266-0.018-0.53-0.04-0.8-0.04
	C5.372,8.995,0,14.367,0,20.995c0,6.607,5.34,11.965,11.938,11.998v0.003h30.925v-0.007c0.046,0.001,0.091,0.007,0.137,0.007
	c5.521,0,10-4.477,10-10c0-5.311-4.145-9.642-9.372-9.967C42.032,5.584,35.421,0,27.501,0L27.501,0z"/>
<g>
	<path d="M150.452,20.411c-1.444-6.742-7.433-11.8-14.605-11.8c-2.185,0-4.258,0.47-6.127,1.313
		c-1.666-3.202-5.006-5.394-8.865-5.394c-5.522,0-10,4.477-10,9.999c0,2.46,0.898,4.702,2.373,6.442
		c-1.428,1.84-2.287,4.144-2.287,6.653c0,5.983,4.836,10.836,10.813,10.865v0.003h28.007v-0.006
		c0.042,0.001,0.082,0.006,0.124,0.006c5.001,0,9.057-4.054,9.057-9.057C158.94,24.628,155.187,20.706,150.452,20.411z
		 M120.854,6.531c3.092,0,5.76,1.773,7.092,4.345c-2.299,1.44-4.178,3.488-5.414,5.918c-0.241-0.016-0.48-0.036-0.725-0.036
		c-2.766,0-5.281,1.041-7.2,2.743c-1.092-1.366-1.753-3.09-1.753-4.971C112.854,10.12,116.443,6.531,120.854,6.531z M149.924,36.494
		c-0.038-0.003-0.077-0.004-0.117-0.005l-2.047-0.042v0.047h-25.403l-0.594-0.003c-4.864-0.023-8.822-4.001-8.822-8.865
		c0-4.89,3.978-8.868,8.867-8.868c0.15,0,0.299,0.012,0.447,0.021l0.148,0.011l1.314,0.085l0.598-1.174
		c2.224-4.373,6.643-7.09,11.531-7.09c6.062,0,11.381,4.298,12.65,10.219l0.317,1.482l1.514,0.095
		c3.708,0.231,6.612,3.319,6.612,7.03C156.94,33.315,153.797,36.472,149.924,36.494z"/>
	<rect x="119.86" y="-5.499" width="2" height="7.973"/>
	<rect x="100.888" y="13.487" width="7.973" height="2"/>
	<rect x="105.613" y="2.269" transform="matrix(0.7071 0.7071 -0.7071 0.7071 34.4125 -76.542)" width="7.974" height="2"/>
	<rect x="131.122" y="-0.713" transform="matrix(0.7071 0.7071 -0.7071 0.7071 41.0116 -92.4659)" width="2" height="7.972"/>
</g>
<path d="M246.195,16.384c-1.444-6.742-7.433-11.8-14.605-11.8c-1.799,0-3.521,0.32-5.118,0.904c-0.949-5.108-5.404-8.98-10.788-8.98
	c-0.413,0-0.819,0.027-1.222,0.071c0.744,1.112,1.179,2.448,1.179,3.886c0,3.865-3.134,7-7,7c-1.438,0-2.773-0.435-3.886-1.179
	c-0.044,0.401-0.071,0.809-0.071,1.222c0,3.712,1.845,6.987,4.661,8.979c-1.653,1.907-2.661,4.389-2.661,7.111
	c0,5.983,4.836,10.836,10.813,10.865v0.003h28.007v-0.006c0.042,0.001,0.082,0.006,0.124,0.006c5.001,0,9.057-4.054,9.057-9.057
	C254.684,20.601,250.93,16.679,246.195,16.384z M206.86,9.288c0.582,0.117,1.178,0.177,1.78,0.177c4.963,0,9-4.037,9-9
	c0-0.603-0.06-1.198-0.177-1.78c3.733,0.753,6.629,3.824,7.134,7.64c-2.713,1.444-4.928,3.699-6.322,6.442
	c-0.241-0.016-0.48-0.036-0.725-0.036c-2.537,0-4.865,0.876-6.715,2.334C208.824,13.771,207.35,11.711,206.86,9.288z
	 M245.667,32.467c-0.038-0.003-0.077-0.004-0.117-0.005l-2.047-0.042v0.047H218.1l-0.594-0.003
	c-4.864-0.023-8.822-4.001-8.822-8.865c0-4.89,3.978-8.868,8.867-8.868c0.15,0,0.299,0.012,0.447,0.021l0.148,0.011l1.314,0.085
	l0.598-1.174c2.224-4.373,6.643-7.09,11.531-7.09c6.062,0,11.381,4.298,12.65,10.219l0.317,1.482l1.514,0.095
	c3.708,0.231,6.612,3.319,6.612,7.03C252.684,29.288,249.54,32.444,245.667,32.467z"/>
<g>
	<rect x="330.841" y="25.007" width="2" height="7"/>
	<rect x="338.841" y="21.007" width="2" height="7"/>
	<rect x="322.841" y="21.007" width="2" height="7"/>
	<rect x="330.841" y="35.007" width="2" height="7"/>
	<rect x="338.841" y="31.007" width="2" height="7"/>
	<rect x="322.841" y="31.007" width="2" height="7"/>
	<path d="M349.469,8.019c-1.596-7.445-8.207-13.029-16.127-13.029c-6.423,0-11.977,3.678-14.702,9.035
		c-0.266-0.018-0.53-0.04-0.8-0.04c-6.627,0-11.999,5.372-11.999,12c0,6.607,5.34,11.965,11.938,11.998v0.003h2.062v-2h-1.604
		l-0.447-0.003c-5.485-0.027-9.948-4.513-9.948-9.998c0-5.514,4.485-10,9.999-10c0.175,0,0.347,0.014,0.52,0.025l0.148,0.01
		l1.316,0.088l0.598-1.176c2.492-4.899,7.443-7.942,12.92-7.942c6.79,0,12.75,4.814,14.172,11.448l0.317,1.482l1.514,0.095
		c4.203,0.262,7.496,3.763,7.496,7.971c0,4.397-3.565,7.977-7.957,8c-0.05-0.003-0.093-0.005-0.137-0.007l-2.043,0.007h-2.863v2
		h4.863v-0.007c0.046,0.001,0.091,0.007,0.137,0.007c5.521,0,10-4.477,10-10C358.841,12.675,354.696,8.344,349.469,8.019z"/>
</g>
<g>
	<path d="M147.042,97.376c-1.596-7.445-8.207-13.029-16.127-13.029c-6.423,0-11.977,3.678-14.702,9.035
		c-0.266-0.018-0.53-0.04-0.8-0.04c-6.627,0-11.999,5.372-11.999,12c0,6.607,5.34,11.965,11.938,11.998v0.003h2.062v-2h-1.604
		l-0.447-0.003c-5.485-0.027-9.948-4.513-9.948-9.998c0-5.514,4.485-10,9.999-10c0.175,0,0.347,0.014,0.52,0.025l0.148,0.01
		l1.316,0.088l0.598-1.176c2.492-4.899,7.443-7.942,12.92-7.942c6.79,0,12.75,4.814,14.172,11.448l0.317,1.482l1.514,0.095
		c4.203,0.262,7.496,3.763,7.496,7.971c0,4.397-3.565,7.977-7.957,8c-0.05-0.003-0.093-0.005-0.137-0.007l-2.043,0.007h-2.863v2
		h4.863v-0.007c0.046,0.001,0.091,0.007,0.137,0.007c5.521,0,10-4.477,10-10C156.414,102.032,152.27,97.701,147.042,97.376z"/>
	<polygon points="128.414,124.371 128.414,126.312 128.414,132.371 130.414,132.371 130.414,126.312 130.414,124.371 
		130.414,112.371 128.414,112.371 	"/>
	<polygon points="136.414,120.371 136.414,122.124 136.414,128.371 138.414,128.371 138.414,122.124 138.414,120.371 
		138.414,108.371 136.414,108.371 	"/>
	<polygon points="120.414,120.371 120.414,122.437 120.414,128.371 122.414,128.371 122.414,122.437 122.414,120.371 
		122.414,108.371 120.414,108.371 	"/>
</g>
<g>
	<polygon points="442.691,121.282 435.809,111.452 434.171,112.6 441.054,122.43 442.166,124.019 445.642,128.982 447.28,127.836 
		443.805,122.871 	"/>
	<polygon points="450.693,121.28 443.809,111.452 442.171,112.601 449.057,122.429 450.062,123.864 453.646,128.979 
		455.284,127.833 451.7,122.717 	"/>
	<polygon points="434.691,121.282 427.809,111.452 426.171,112.601 433.054,122.43 434.238,124.122 437.643,128.983 439.28,127.836 
		435.877,122.975 	"/>
	<path d="M453.799,97.643c-1.596-7.445-8.207-13.029-16.127-13.029c-6.423,0-11.977,3.678-14.702,9.035
		c-0.266-0.018-0.53-0.04-0.8-0.04c-6.627,0-11.999,5.372-11.999,12c0,6.607,5.34,11.965,11.938,11.998v0.003h2.062v-2h-1.604
		l-0.447-0.003c-5.485-0.027-9.948-4.513-9.948-9.998c0-5.514,4.485-10,9.999-10c0.175,0,0.347,0.014,0.52,0.025l0.148,0.01
		l1.316,0.088l0.598-1.176c2.492-4.899,7.443-7.942,12.92-7.942c6.79,0,12.75,4.814,14.172,11.448l0.317,1.482l1.514,0.095
		c4.203,0.262,7.496,3.763,7.496,7.971c0,4.397-3.565,7.977-7.957,8c-0.05-0.003-0.093-0.005-0.137-0.007l-1.043,0.007h0.137v2
		h0.863v-0.007c0.046,0.001,0.091,0.007,0.137,0.007c5.521,0,10-4.477,10-10C463.171,102.299,459.026,97.968,453.799,97.643z"/>
</g>
<g>
	<rect x="425.497" y="-11.439" width="2" height="7.973"/>
	<rect x="406.497" y="7.475" width="7.973" height="2"/>
	<rect x="411.17" y="-3.792" transform="matrix(0.7071 0.7071 -0.7071 0.7071 119.6225 -294.3782)" width="7.974" height="2"/>
	<rect x="436.679" y="-6.774" transform="matrix(0.7071 0.7071 -0.7071 0.7071 126.2217 -310.3022)" width="2" height="7.972"/>
	<rect x="439.497" y="29.434" width="2" height="7"/>
	<rect x="447.497" y="25.434" width="2" height="7"/>
	<rect x="431.497" y="25.434" width="2" height="7"/>
	<rect x="439.497" y="39.434" width="2" height="7"/>
	<rect x="447.497" y="35.434" width="2" height="7"/>
	<rect x="431.497" y="35.434" width="2" height="7"/>
	<path d="M456.009,14.351c-1.444-6.742-7.433-11.8-14.605-11.8c-2.185,0-4.258,0.47-6.126,1.313
		c-1.667-3.202-5.007-5.394-8.866-5.394c-5.522,0-10,4.477-10,9.999c0,2.46,0.899,4.702,2.373,6.442
		c-1.429,1.84-2.287,4.144-2.287,6.653c0,5.983,4.836,10.836,10.813,10.865v0.003h1.188v-2h-0.721l-0.457-0.003
		c-4.864-0.023-8.822-4.001-8.822-8.865c0-4.89,3.978-8.868,8.867-8.868c0.15,0,0.299,0.012,0.447,0.022l0.148,0.01l1.314,0.085
		l0.597-1.175c2.225-4.372,6.644-7.089,11.532-7.089c6.062,0,11.382,4.298,12.649,10.219l0.318,1.483l1.514,0.094
		c3.708,0.23,6.612,3.319,6.612,7.03c0,3.878-3.144,7.035-7.017,7.057c-0.042-0.003-0.079-0.005-0.117-0.005l-2.047,0.005h-0.819v2
		h2.819v-0.006c0.042,0.001,0.082,0.006,0.124,0.006c5.001,0,9.057-4.054,9.057-9.057C464.497,18.567,460.743,14.646,456.009,14.351
		z M428.089,10.733c-0.241-0.016-0.48-0.036-0.725-0.036c-2.766,0-5.282,1.041-7.2,2.743c-1.092-1.366-1.753-3.09-1.753-4.971
		c0-4.41,3.589-7.999,8-7.999c3.091,0,5.76,1.773,7.091,4.345C431.204,6.256,429.324,8.304,428.089,10.733z"/>
</g>
<g>
	<rect x="539.914" y="27.986" width="2" height="7"/>
	<rect x="547.914" y="23.986" width="2" height="7"/>
	<rect x="531.914" y="23.986" width="2" height="7"/>
	<rect x="539.914" y="37.986" width="2" height="7"/>
	<rect x="547.914" y="33.986" width="2" height="7"/>
	<rect x="531.914" y="33.986" width="2" height="7"/>
	<path d="M556.426,12.903c-1.444-6.742-7.433-11.8-14.605-11.8c-1.799,0-3.522,0.32-5.118,0.904
		c-0.949-5.108-5.404-8.98-10.788-8.98c-0.413,0-0.819,0.027-1.222,0.071c0.744,1.112,1.179,2.448,1.179,3.886c0,3.865-3.134,7-7,7
		c-1.438,0-2.773-0.435-3.886-1.179c-0.044,0.401-0.071,0.809-0.071,1.222c0,3.712,1.845,6.987,4.661,8.979
		c-1.653,1.907-2.661,4.389-2.661,7.111c0,5.983,4.836,10.836,10.813,10.865v0.003h1.188v-2h-0.721l-0.457-0.003
		c-4.864-0.023-8.822-4.001-8.822-8.865c0-4.89,3.978-8.868,8.867-8.868c0.15,0,0.299,0.012,0.447,0.022l0.148,0.01l1.314,0.085
		l0.597-1.175c2.225-4.372,6.644-7.089,11.532-7.089c6.062,0,11.382,4.298,12.649,10.219l0.318,1.483l1.514,0.094
		c3.708,0.23,6.612,3.319,6.612,7.03c0,3.878-3.144,7.035-7.017,7.057c-0.042-0.003-0.079-0.005-0.117-0.005l-2.047,0.005h-0.819v2
		h2.819V30.98c0.042,0.001,0.082,0.006,0.124,0.006c5.001,0,9.057-4.054,9.057-9.057C564.914,17.12,561.16,13.198,556.426,12.903z
		 M528.506,9.286c-0.241-0.016-0.48-0.036-0.725-0.036c-2.537,0-4.865,0.876-6.715,2.334c-2.012-1.294-3.487-3.354-3.976-5.776
		c0.582,0.117,1.178,0.177,1.78,0.177c4.963,0,9-4.037,9-9c0-0.603-0.06-1.198-0.177-1.78c3.733,0.753,6.629,3.824,7.133,7.64
		C532.116,4.288,529.901,6.543,528.506,9.286z"/>
</g>
<g>
	<polygon points="232.684,128.81 232.684,130.75 232.684,136.81 234.684,136.81 234.684,130.75 234.684,128.81 234.684,116.81 
		232.684,116.81 	"/>
	<polygon points="240.684,124.81 240.684,126.563 240.684,132.81 242.684,132.81 242.684,126.563 242.684,124.81 242.684,112.81 
		240.684,112.81 	"/>
	<polygon points="224.684,124.81 224.684,126.875 224.684,132.81 226.684,132.81 226.684,126.875 226.684,124.81 226.684,112.81 
		224.684,112.81 	"/>
	<rect x="218.684" y="77.907" width="2" height="7.973"/>
	<rect x="199.684" y="96.821" width="7.973" height="2"/>
	<rect x="204.357" y="85.555" transform="matrix(0.7071 0.7071 -0.7071 0.7071 122.2259 -121.97)" width="7.974" height="2"/>
	<rect x="229.865" y="82.573" transform="matrix(0.7071 0.7071 -0.7071 0.7071 128.825 -137.894)" width="2" height="7.972"/>
	<path d="M249.195,103.697c-1.444-6.742-7.433-11.8-14.605-11.8c-2.185,0-4.258,0.47-6.127,1.313
		c-1.666-3.202-5.006-5.394-8.865-5.394c-5.522,0-10,4.477-10,9.999c0,2.46,0.898,4.702,2.373,6.442
		c-1.428,1.84-2.287,4.144-2.287,6.653c0,5.983,4.836,10.836,10.813,10.865v0.003h1.188v-2h-0.721l-0.457-0.003
		c-4.864-0.023-8.822-4.001-8.822-8.865c0-4.89,3.978-8.868,8.867-8.868c0.15,0,0.299,0.012,0.447,0.022l0.148,0.01l1.314,0.085
		l0.597-1.175c2.225-4.372,6.644-7.089,11.532-7.089c6.062,0,11.382,4.298,12.649,10.219l0.318,1.483l1.514,0.094
		c3.708,0.23,6.612,3.319,6.612,7.03c0,3.878-3.144,7.035-7.017,7.057c-0.042-0.003-0.079-0.005-0.117-0.005l-2.047,0.005h-0.819v2
		h2.819v-0.006c0.042,0.001,0.082,0.006,0.124,0.006c5.001,0,9.057-4.054,9.057-9.057
		C257.684,107.914,253.93,103.992,249.195,103.697z M221.275,100.08c-0.241-0.016-0.48-0.036-0.725-0.036
		c-2.766,0-5.281,1.042-7.2,2.743c-1.092-1.367-1.753-3.09-1.753-4.971c0-4.41,3.589-7.999,8-7.999c3.092,0,5.76,1.773,7.092,4.345
		C224.391,95.602,222.512,97.65,221.275,100.08z"/>
</g>
<g>
	<polygon points="333.081,126.293 333.081,128.233 333.081,134.293 335.081,134.293 335.081,128.233 335.081,126.293 
		335.081,114.293 333.081,114.293 	"/>
	<polygon points="341.081,122.293 341.081,124.046 341.081,130.293 343.081,130.293 343.081,124.046 343.081,122.293 
		343.081,110.293 341.081,110.293 	"/>
	<polygon points="325.081,122.293 325.081,124.358 325.081,130.293 327.081,130.293 327.081,124.358 327.081,122.293 
		327.081,110.293 325.081,110.293 	"/>
	<path d="M349.593,101.181c-1.444-6.742-7.433-11.8-14.605-11.8c-1.799,0-3.521,0.32-5.118,0.904
		c-0.949-5.108-5.404-8.98-10.788-8.98c-0.413,0-0.819,0.027-1.222,0.071c0.744,1.112,1.179,2.448,1.179,3.886c0,3.865-3.134,7-7,7
		c-1.438,0-2.773-0.435-3.886-1.179c-0.044,0.401-0.071,0.809-0.071,1.222c0,3.712,1.845,6.987,4.661,8.979
		c-1.653,1.907-2.661,4.389-2.661,7.111c0,5.983,4.836,10.836,10.813,10.865v0.003h1.188v-2h-0.721l-0.457-0.003
		c-4.864-0.023-8.822-4.001-8.822-8.865c0-4.89,3.978-8.868,8.867-8.868c0.15,0,0.299,0.012,0.447,0.022l0.148,0.01l1.314,0.085
		l0.597-1.175c2.225-4.372,6.644-7.089,11.532-7.089c6.062,0,11.382,4.298,12.649,10.219l0.318,1.483l1.514,0.094
		c3.708,0.23,6.612,3.319,6.612,7.03c0,3.878-3.144,7.035-7.017,7.057c-0.042-0.003-0.079-0.005-0.117-0.005l-2.047,0.005h-0.819v2
		h2.819v-0.006c0.042,0.001,0.082,0.006,0.124,0.006c5.001,0,9.057-4.054,9.057-9.057
		C358.081,105.397,354.327,101.476,349.593,101.181z M321.673,97.563c-0.241-0.016-0.48-0.036-0.725-0.036
		c-2.537,0-4.865,0.876-6.715,2.334c-2.012-1.294-3.486-3.354-3.976-5.776c0.582,0.117,1.178,0.177,1.78,0.177c4.963,0,9-4.037,9-9
		c0-0.603-0.06-1.198-0.177-1.78c3.733,0.753,6.629,3.824,7.134,7.641C325.282,92.565,323.067,94.821,321.673,97.563z"/>
</g>
<g>
	<polygon points="550.116,127.237 543.233,117.407 541.596,118.555 548.479,128.385 549.591,129.974 553.066,134.938 
		554.705,133.791 551.229,128.826 	"/>
	<polygon points="558.118,127.235 551.233,117.407 549.596,118.556 556.481,128.384 557.486,129.819 561.07,134.935 
		562.709,133.788 559.125,128.672 	"/>
	<polygon points="542.116,127.237 535.233,117.407 533.596,118.556 540.479,128.385 541.663,130.077 545.067,134.938 
		546.705,133.791 543.302,128.93 	"/>
	<rect x="529.596" y="79.688" width="2" height="7.973"/>
	<rect x="510.596" y="98.603" width="7.973" height="2"/>
	<rect x="515.269" y="87.336" transform="matrix(0.7071 0.7071 -0.7071 0.7071 214.5495 -341.2964)" width="7.974" height="2"/>
	<rect x="540.777" y="84.354" transform="matrix(0.7071 0.7071 -0.7071 0.7071 221.1486 -357.2203)" width="2" height="7.972"/>
	<path d="M560.107,105.479c-1.444-6.742-7.433-11.8-14.605-11.8c-2.185,0-4.258,0.47-6.126,1.313
		c-1.667-3.202-5.007-5.394-8.866-5.394c-5.522,0-10,4.477-10,9.999c0,2.46,0.899,4.702,2.373,6.442
		c-1.429,1.84-2.287,4.144-2.287,6.653c0,5.983,4.836,10.836,10.813,10.865v0.003h1.188v-2h-0.721l-0.457-0.003
		c-4.864-0.023-8.822-4.001-8.822-8.865c0-4.89,3.978-8.868,8.867-8.868c0.15,0,0.299,0.012,0.447,0.022l0.148,0.01l1.314,0.085
		l0.597-1.175c2.225-4.372,6.644-7.089,11.532-7.089c6.062,0,11.382,4.298,12.649,10.219l0.318,1.483l1.514,0.094
		c3.708,0.23,6.612,3.319,6.612,7.03c0,3.878-3.144,7.035-7.017,7.057c-0.042-0.003-0.079-0.005-0.117-0.005l-0.047,0.005h-0.819v2
		h0.819v-0.006c0.042,0.001,0.082,0.006,0.124,0.006c5.001,0,9.057-4.054,9.057-9.057
		C568.596,109.695,564.842,105.773,560.107,105.479z M532.188,101.861c-0.241-0.016-0.48-0.036-0.725-0.036
		c-2.766,0-5.282,1.042-7.2,2.743c-1.092-1.367-1.753-3.09-1.753-4.971c0-4.41,3.589-7.999,8-7.999c3.091,0,5.76,1.773,7.091,4.345
		C535.303,97.383,533.423,99.432,532.188,101.861z"/>
</g>
<g>
	<polygon points="-173.314,223.723 -180.197,213.893 -181.835,215.04 -174.952,224.87 -173.84,226.459 -170.364,231.423 
		-168.726,230.276 -172.201,225.312 	"/>
	<polygon points="-165.313,223.721 -172.197,213.893 -173.835,215.041 -166.949,224.869 -165.944,226.305 -162.36,231.42 
		-160.722,230.273 -164.306,225.157 	"/>
	<polygon points="-181.314,223.723 -188.197,213.893 -189.835,215.041 -182.952,224.87 -181.768,226.563 -178.363,231.424 
		-176.726,230.276 -180.129,225.415 	"/>
	<path d="M-163.323,201.964c-1.444-6.742-7.433-11.8-14.605-11.8c-1.799,0-3.522,0.32-5.118,0.904
		c-0.949-5.108-5.404-8.98-10.788-8.98c-0.413,0-0.819,0.027-1.222,0.071c0.744,1.112,1.179,2.448,1.179,3.886c0,3.865-3.134,7-7,7
		c-1.438,0-2.773-0.435-3.886-1.179c-0.044,0.401-0.071,0.809-0.071,1.222c0,3.712,1.845,6.987,4.661,8.979
		c-1.653,1.907-2.661,4.389-2.661,7.111c0,5.983,4.836,10.836,10.813,10.865v0.003h1.188v-2h-0.721l-0.457-0.003
		c-4.864-0.023-8.822-4.001-8.822-8.865c0-4.89,3.978-8.868,8.867-8.868c0.15,0,0.299,0.012,0.447,0.022l0.148,0.01l1.314,0.085
		l0.597-1.175c2.225-4.372,6.644-7.089,11.532-7.089c6.062,0,11.382,4.298,12.649,10.219l0.318,1.483l1.514,0.094
		c3.708,0.23,6.612,3.319,6.612,7.03c0,3.878-3.144,7.035-7.017,7.057c-0.042-0.003-0.079-0.005-0.117-0.005l-0.047,0.005h-0.819v2
		h0.819v-0.006c0.042,0.001,0.082,0.006,0.124,0.006c5.001,0,9.057-4.054,9.057-9.057
		C-154.835,206.181-158.589,202.259-163.323,201.964z M-191.243,198.347c-0.241-0.016-0.48-0.036-0.725-0.036
		c-2.537,0-4.865,0.876-6.715,2.334c-2.012-1.294-3.487-3.354-3.976-5.776c0.582,0.117,1.178,0.177,1.78,0.177c4.963,0,9-4.037,9-9
		c0-0.603-0.06-1.198-0.177-1.78c3.733,0.753,6.629,3.824,7.133,7.641C-187.633,193.349-189.848,195.604-191.243,198.347z"/>
</g>
<g>
	<rect x="-180.835" y="119.876" width="2" height="4"/>
	<rect x="-172.835" y="115.854" width="2" height="4.021"/>
	<rect x="-188.835" y="115.854" width="2" height="4.021"/>
	<path d="M-162.207,99.888c-1.596-7.445-8.207-13.029-16.127-13.029c-6.423,0-11.977,3.678-14.702,9.035
		c-0.266-0.018-0.53-0.04-0.8-0.04c-6.627,0-11.999,5.372-11.999,12c0,6.607,5.34,11.965,11.938,11.998v0.003h2.062v-2h-1.604
		l-0.447-0.003c-5.485-0.027-9.948-4.513-9.948-9.998c0-5.514,4.485-10,9.999-10c0.175,0,0.347,0.014,0.52,0.025l0.148,0.01
		l1.316,0.088l0.598-1.176c2.492-4.899,7.443-7.942,12.92-7.942c6.79,0,12.75,4.814,14.172,11.448l0.317,1.482l1.514,0.095
		c4.203,0.262,7.496,3.763,7.496,7.971c0,4.397-3.565,7.977-7.957,8c-0.05-0.003-0.093-0.005-0.137-0.007l-2.043,0.007h-2.863v2
		h4.863v-0.007c0.046,0.001,0.091,0.007,0.137,0.007c5.521,0,10-4.477,10-10C-152.835,104.544-156.979,100.213-162.207,99.888z"/>
	<circle cx="-171.835" cy="124.896" r="1.5"/>
	<circle cx="-179.835" cy="128.865" r="1.5"/>
	<circle cx="-187.835" cy="124.854" r="1.5"/>
</g>
<g>
	<rect x="-87.914" y="80.422" width="2" height="7.973"/>
	<rect x="-106.914" y="99.336" width="7.973" height="2"/>
	<rect x="-102.241" y="88.069" transform="matrix(0.7071 0.7071 -0.7071 0.7071 34.2036 95.5638)" width="7.974" height="2"/>
	<rect x="-76.732" y="85.087" transform="matrix(0.7071 0.7071 -0.7071 0.7071 40.8028 79.6399)" width="2" height="7.972"/>
	<path d="M-57.402,106.212c-1.444-6.742-7.433-11.8-14.605-11.8c-2.185,0-4.258,0.47-6.126,1.313
		c-1.667-3.202-5.007-5.394-8.866-5.394c-5.522,0-10,4.477-10,9.999c0,2.46,0.899,4.702,2.373,6.442
		c-1.429,1.84-2.287,4.144-2.287,6.653c0,5.983,4.836,10.836,10.813,10.865v0.003h1.188v-2h-0.721l-0.457-0.003
		c-4.864-0.023-8.822-4.001-8.822-8.865c0-4.89,3.978-8.868,8.867-8.868c0.15,0,0.299,0.012,0.447,0.022l0.148,0.01l1.314,0.085
		l0.597-1.175c2.225-4.372,6.644-7.089,11.532-7.089c6.062,0,11.382,4.298,12.649,10.219l0.318,1.483l1.514,0.094
		c3.708,0.23,6.612,3.319,6.612,7.03c0,3.878-3.144,7.035-7.017,7.057c-0.042-0.003-0.079-0.005-0.117-0.005l-2.047,0.005h-0.819v2
		h2.819v-0.006c0.042,0.001,0.082,0.006,0.124,0.006c5.001,0,9.057-4.054,9.057-9.057
		C-48.914,110.429-52.668,106.507-57.402,106.212z M-85.322,102.595c-0.241-0.016-0.48-0.036-0.725-0.036
		c-2.766,0-5.282,1.042-7.2,2.743c-1.092-1.367-1.753-3.09-1.753-4.971c0-4.41,3.589-7.999,8-7.999c3.091,0,5.76,1.773,7.091,4.345
		C-82.207,98.116-84.087,100.165-85.322,102.595z"/>
	<rect x="-73.914" y="124.311" width="2" height="4"/>
	<rect x="-65.914" y="120.289" width="2" height="4.021"/>
	<rect x="-81.914" y="120.289" width="2" height="4.021"/>
	<circle cx="-64.914" cy="129.331" r="1.5"/>
	<circle cx="-72.914" cy="133.3" r="1.5"/>
	<circle cx="-80.914" cy="129.289" r="1.5"/>
</g>
<g>
	<path d="M43.523,105.255c-1.444-6.742-7.433-11.8-14.605-11.8c-1.799,0-3.522,0.32-5.118,0.904
		c-0.949-5.108-5.404-8.98-10.788-8.98c-0.413,0-0.819,0.027-1.222,0.071c0.744,1.112,1.179,2.448,1.179,3.886c0,3.865-3.134,7-7,7
		c-1.438,0-2.773-0.435-3.886-1.179c-0.044,0.401-0.071,0.809-0.071,1.222c0,3.712,1.845,6.987,4.661,8.979
		c-1.653,1.907-2.661,4.389-2.661,7.111c0,5.983,4.836,10.836,10.813,10.865v0.003h1.188v-2h-0.721l-0.457-0.003
		c-4.864-0.023-8.822-4.001-8.822-8.865c0-4.89,3.978-8.868,8.867-8.868c0.15,0,0.299,0.012,0.447,0.022l0.148,0.01l1.314,0.085
		l0.597-1.175c2.225-4.372,6.644-7.089,11.532-7.089c6.062,0,11.382,4.298,12.649,10.219l0.318,1.483l1.514,0.094
		c3.708,0.23,6.612,3.319,6.612,7.03c0,3.878-3.144,7.035-7.017,7.057c-0.042-0.003-0.079-0.005-0.117-0.005l-2.047,0.005h-0.819v2
		h2.819v-0.006c0.042,0.001,0.082,0.006,0.124,0.006c5.001,0,9.057-4.054,9.057-9.057C52.012,109.472,48.258,105.55,43.523,105.255z
		 M15.604,101.638c-0.241-0.016-0.48-0.036-0.725-0.036c-2.537,0-4.865,0.876-6.715,2.334c-2.012-1.294-3.487-3.354-3.976-5.776
		c0.582,0.117,1.178,0.177,1.78,0.177c4.963,0,9-4.037,9-9c0-0.603-0.06-1.198-0.177-1.78c3.733,0.753,6.629,3.824,7.133,7.641
		C19.214,96.64,16.999,98.896,15.604,101.638z"/>
	<rect x="27.012" y="123.354" width="2" height="4"/>
	<rect x="35.012" y="119.332" width="2" height="4.021"/>
	<rect x="19.012" y="119.332" width="2" height="4.021"/>
	<circle cx="36.012" cy="128.374" r="1.5"/>
	<circle cx="28.012" cy="132.343" r="1.5"/>
	<circle cx="20.012" cy="128.332" r="1.5"/>
</g>
<g>
	<path d="M-59.786,198.285c-1.596-7.445-8.207-13.029-16.127-13.029c-6.423,0-11.977,3.678-14.702,9.035
		c-0.266-0.018-0.53-0.04-0.8-0.04c-6.627,0-11.999,5.372-11.999,12c0,6.607,5.34,11.965,11.938,11.998v0.003h6.062v-2h-5.604
		l-0.447-0.003c-5.485-0.027-9.948-4.513-9.948-9.998c0-5.514,4.485-10,9.999-10c0.175,0,0.347,0.014,0.52,0.025l0.148,0.01
		l1.316,0.088l0.598-1.176c2.492-4.899,7.443-7.942,12.92-7.942c6.79,0,12.75,4.814,14.172,11.448l0.317,1.482l1.514,0.095
		c4.203,0.262,7.496,3.763,7.496,7.971c0,4.397-3.565,7.977-7.957,8c-0.05-0.003-0.093-0.005-0.137-0.007l-5.043,0.007h0.137v2
		h4.863v-0.007c0.046,0.001,0.091,0.007,0.137,0.007c5.521,0,10-4.477,10-10C-50.414,202.941-54.559,198.61-59.786,198.285z"/>
	<polygon points="-75.572,218.256 -73.803,218.256 -73.372,218.256 -71.362,218.256 -77.776,209.095 -79.414,210.242 
		-75.203,216.256 -76.974,216.256 -79.414,216.256 -78.143,218.072 -77.03,219.661 -71.053,228.256 -69.414,227.109 
		-75.392,218.514 	"/>
</g>
<g>
	<rect x="16.012" y="179.155" width="2" height="7.973"/>
	<rect x="-2.988" y="198.069" width="7.973" height="2"/>
	<rect x="1.685" y="186.803" transform="matrix(0.7071 0.7071 -0.7071 0.7071 134.4578 50.9955)" width="7.974" height="2"/>
	<rect x="27.193" y="183.821" transform="matrix(0.7071 0.7071 -0.7071 0.7071 141.057 35.0716)" width="2" height="7.972"/>
	<path d="M46.523,204.945c-1.444-6.742-7.433-11.8-14.605-11.8c-2.185,0-4.258,0.47-6.127,1.313
		c-1.666-3.202-5.006-5.394-8.865-5.394c-5.522,0-10,4.477-10,9.999c0,2.46,0.898,4.702,2.373,6.442
		c-1.428,1.84-2.287,4.144-2.287,6.653c0,5.983,4.836,10.836,10.813,10.865v0.003h4.188v-2h-3.721l-0.457-0.003
		c-4.864-0.023-8.822-4.001-8.822-8.865c0-4.89,3.978-8.868,8.867-8.868c0.15,0,0.299,0.012,0.447,0.022l0.148,0.01l1.314,0.085
		l0.597-1.175c2.225-4.372,6.644-7.089,11.532-7.089c6.062,0,11.382,4.298,12.649,10.219l0.318,1.483l1.514,0.094
		c3.708,0.23,6.612,3.319,6.612,7.03c0,3.878-3.144,7.035-7.017,7.057c-0.042-0.003-0.079-0.005-0.117-0.005l-2.047,0.005h-3.819v2
		h5.819v-0.006c0.042,0.001,0.082,0.006,0.124,0.006c5.001,0,9.057-4.054,9.057-9.057C55.012,209.162,51.258,205.24,46.523,204.945z
		 M18.604,201.328c-0.241-0.016-0.48-0.036-0.725-0.036c-2.766,0-5.281,1.041-7.2,2.743c-1.092-1.366-1.753-3.09-1.753-4.971
		c0-4.41,3.589-7.999,8-7.999c3.092,0,5.76,1.773,7.092,4.345C21.719,196.851,19.84,198.898,18.604,201.328z"/>
	<polygon points="30.854,223.035 32.623,223.035 33.054,223.035 35.063,223.035 28.649,213.874 27.012,215.021 31.223,221.035 
		29.452,221.035 27.012,221.035 28.283,222.852 29.396,224.44 35.373,233.035 37.012,231.889 31.034,223.293 	"/>
</g>
<g>
	<path d="M146.108,202.649c-1.444-6.742-7.433-11.8-14.605-11.8c-1.799,0-3.521,0.32-5.118,0.904
		c-0.949-5.108-5.404-8.98-10.788-8.98c-0.413,0-0.819,0.027-1.222,0.071c0.744,1.112,1.179,2.448,1.179,3.886c0,3.865-3.134,7-7,7
		c-1.438,0-2.773-0.435-3.886-1.179c-0.044,0.401-0.071,0.809-0.071,1.222c0,3.712,1.845,6.987,4.661,8.979
		c-1.653,1.907-2.661,4.389-2.661,7.111c0,5.983,4.836,10.836,10.813,10.865v0.003h4.188v-2h-3.721l-0.457-0.003
		c-4.864-0.023-8.822-4.001-8.822-8.865c0-4.89,3.978-8.868,8.867-8.868c0.15,0,0.299,0.012,0.447,0.022l0.148,0.01l1.314,0.085
		l0.597-1.175c2.225-4.372,6.644-7.089,11.532-7.089c6.062,0,11.382,4.298,12.649,10.219l0.318,1.483l1.514,0.094
		c3.708,0.23,6.612,3.319,6.612,7.03c0,3.878-3.144,7.035-7.017,7.057c-0.042-0.003-0.079-0.005-0.117-0.005l-2.047,0.005h-3.819v2
		h5.819v-0.006c0.042,0.001,0.082,0.006,0.124,0.006c5.001,0,9.057-4.054,9.057-9.057
		C154.597,206.866,150.843,202.944,146.108,202.649z M118.188,199.032c-0.241-0.016-0.48-0.036-0.725-0.036
		c-2.537,0-4.865,0.876-6.715,2.334c-2.012-1.294-3.486-3.354-3.976-5.776c0.582,0.117,1.178,0.177,1.78,0.177c4.963,0,9-4.037,9-9
		c0-0.603-0.06-1.198-0.177-1.78c3.733,0.753,6.629,3.824,7.134,7.64C121.798,194.034,119.583,196.289,118.188,199.032z"/>
	<polygon points="130.438,220.739 132.208,220.739 132.639,220.739 134.648,220.739 128.234,211.578 126.597,212.726 
		130.808,218.739 129.037,218.739 126.597,218.739 127.868,220.556 128.98,222.145 134.958,230.739 136.597,229.593 
		130.619,220.997 	"/>
</g>
<g>
	<path d="M246.993,198.785c-1.596-7.445-8.207-13.029-16.127-13.029c-6.423,0-11.977,3.678-14.702,9.035
		c-0.266-0.018-0.53-0.04-0.8-0.04c-6.627,0-11.999,5.372-11.999,12c0,6.607,5.34,11.965,11.938,11.998v0.003h1.062v-2h-0.604
		l-0.447-0.003c-5.485-0.027-9.948-4.513-9.948-9.998c0-5.514,4.485-10,9.999-10c0.175,0,0.347,0.014,0.52,0.025l0.148,0.01
		l1.316,0.088l0.598-1.176c2.492-4.899,7.443-7.942,12.92-7.942c6.79,0,12.75,4.814,14.172,11.448l0.317,1.482l1.514,0.095
		c4.203,0.262,7.496,3.763,7.496,7.971c0,4.397-3.565,7.977-7.957,8c-0.05-0.003-0.093-0.005-0.137-0.007l-0.906,0.007v2h0.863
		v-0.007c0.046,0.001,0.091,0.007,0.137,0.007c5.521,0,10-4.477,10-10C256.365,203.441,252.221,199.11,246.993,198.785z"/>
	<rect x="215.8" y="216.75" transform="matrix(-0.5736 -0.8191 0.8191 -0.5736 170.029 524.0023)" width="11.183" height="1.999"/>
	
		<rect x="233.774" y="216.75" transform="matrix(-0.5736 -0.8191 0.8191 -0.5736 198.3145 538.7255)" width="11.183" height="1.999"/>
	<polygon points="232.207,221.756 233.977,221.756 234.407,221.756 236.417,221.756 230.003,212.595 228.365,213.742 
		232.576,219.756 230.806,219.756 228.365,219.756 229.637,221.572 230.749,223.161 235.365,229.756 237.004,228.609 
		232.388,222.014 	"/>
</g>
<g>
	<rect x="321.841" y="179.318" width="2" height="7.973"/>
	<rect x="302.841" y="198.232" width="7.973" height="2"/>
	<rect x="307.514" y="186.966" transform="matrix(0.7071 0.7071 -0.7071 0.7071 224.1484 -165.2105)" width="7.974" height="2"/>
	<rect x="333.023" y="183.984" transform="matrix(0.7071 0.7071 -0.7071 0.7071 230.7476 -181.1345)" width="2" height="7.972"/>
	<path d="M352.353,205.108c-1.444-6.742-7.433-11.8-14.605-11.8c-2.185,0-4.258,0.47-6.126,1.313
		c-1.667-3.202-5.007-5.394-8.866-5.394c-5.522,0-10,4.477-10,9.999c0,2.46,0.899,4.702,2.373,6.442
		c-1.429,1.84-2.287,4.144-2.287,6.653c0,5.983,4.836,10.836,10.813,10.865v0.003h0.188v-2l-0.178-0.003
		c-4.864-0.023-8.822-4.001-8.822-8.865c0-4.89,3.978-8.868,8.867-8.868c0.15,0,0.299,0.012,0.447,0.022l0.148,0.01l1.314,0.085
		l0.597-1.175c2.225-4.372,6.644-7.089,11.532-7.089c6.062,0,11.382,4.298,12.649,10.219l0.318,1.483l1.514,0.094
		c3.708,0.23,6.612,3.319,6.612,7.03c0,3.878-3.144,7.035-7.017,7.057c-0.042-0.003-0.079-0.005-0.117-0.005l-0.866,0.005v2h0.819
		v-0.006c0.042,0.001,0.082,0.006,0.124,0.006c5.001,0,9.057-4.054,9.057-9.057C360.841,209.325,357.087,205.403,352.353,205.108z
		 M324.433,201.491c-0.241-0.016-0.48-0.036-0.725-0.036c-2.766,0-5.282,1.042-7.2,2.743c-1.092-1.367-1.753-3.09-1.753-4.971
		c0-4.41,3.589-7.999,8-7.999c3.091,0,5.76,1.773,7.091,4.345C327.548,197.013,325.668,199.062,324.433,201.491z"/>
	
		<rect x="322.262" y="221.189" transform="matrix(-0.5736 -0.8191 0.8191 -0.5736 333.9274 618.1916)" width="11.183" height="1.999"/>
	
		<rect x="340.237" y="221.189" transform="matrix(-0.5736 -0.8191 0.8191 -0.5736 362.213 632.9147)" width="11.183" height="1.999"/>
	<polygon points="338.67,226.194 340.439,226.194 340.87,226.194 342.88,226.194 336.466,217.033 334.828,218.181 339.039,224.194 
		337.269,224.194 334.828,224.194 336.1,226.011 337.212,227.6 341.828,234.194 343.467,233.048 338.851,226.452 	"/>
</g>
<g>
	<path d="M454.19,202.15c-1.444-6.742-7.433-11.8-14.605-11.8c-1.799,0-3.522,0.32-5.118,0.904c-0.949-5.108-5.404-8.98-10.788-8.98
		c-0.413,0-0.819,0.027-1.222,0.071c0.744,1.112,1.179,2.448,1.179,3.886c0,3.865-3.134,7-7,7c-1.438,0-2.773-0.435-3.886-1.179
		c-0.044,0.401-0.071,0.809-0.071,1.222c0,3.712,1.845,6.987,4.661,8.979c-1.653,1.907-2.661,4.389-2.661,7.111
		c0,5.983,4.836,10.836,10.813,10.865v0.003h0.188v-2l-0.178-0.003c-4.864-0.023-8.822-4.001-8.822-8.865
		c0-4.89,3.978-8.868,8.867-8.868c0.15,0,0.299,0.012,0.447,0.022l0.148,0.01l1.314,0.085l0.597-1.175
		c2.225-4.372,6.644-7.089,11.532-7.089c6.062,0,11.382,4.298,12.649,10.219l0.318,1.483l1.514,0.094
		c3.708,0.23,6.612,3.319,6.612,7.03c0,3.878-3.144,7.035-7.017,7.057c-0.042-0.003-0.079-0.005-0.117-0.005l-0.866,0.005v2h0.819
		v-0.006c0.042,0.001,0.082,0.006,0.124,0.006c5.001,0,9.057-4.054,9.057-9.057C462.679,206.367,458.925,202.445,454.19,202.15z
		 M426.271,198.533c-0.241-0.016-0.48-0.036-0.725-0.036c-2.537,0-4.865,0.876-6.715,2.334c-2.012-1.294-3.487-3.354-3.976-5.776
		c0.582,0.117,1.178,0.177,1.78,0.177c4.963,0,9-4.037,9-9c0-0.603-0.06-1.198-0.177-1.78c3.733,0.753,6.629,3.824,7.133,7.641
		C429.881,193.535,427.666,195.791,426.271,198.533z"/>
	
		<rect x="424.099" y="218.231" transform="matrix(-0.5736 -0.8191 0.8191 -0.5736 496.6049 696.9523)" width="11.183" height="1.999"/>
	
		<rect x="442.074" y="218.231" transform="matrix(-0.5736 -0.8191 0.8191 -0.5736 524.8904 711.6754)" width="11.183" height="1.999"/>
	<polygon points="440.507,223.236 442.276,223.236 442.707,223.236 444.717,223.236 438.303,214.075 436.665,215.223 
		440.876,221.236 439.105,221.236 436.665,221.236 437.937,223.053 439.049,224.642 443.665,231.236 445.304,230.09 
		440.688,223.494 	"/>
</g>
<g>
	<g>
		<path d="M43.628,288.605c-1.596-7.445-8.207-13.029-16.127-13.029c-6.423,0-11.977,3.678-14.702,9.035
			c-0.266-0.018-0.53-0.04-0.8-0.04c-6.627,0-11.999,5.372-11.999,12c0,6.607,5.34,11.965,11.938,11.998v0.003H14v-2h-1.604
			l-0.447-0.003C6.463,306.542,2,302.057,2,296.571c0-5.514,4.485-10,9.999-10c0.175,0,0.347,0.014,0.52,0.025l0.148,0.01
			l1.316,0.088l0.598-1.176c2.492-4.899,7.443-7.942,12.92-7.942c6.79,0,12.75,4.814,14.172,11.448l0.317,1.482l1.514,0.095
			c4.203,0.262,7.496,3.763,7.496,7.971c0,4.397-3.565,7.977-7.957,8c-0.05-0.003-0.093-0.005-0.137-0.007l-2.043,0.007H38v2h4.863
			v-0.007c0.046,0.001,0.091,0.007,0.137,0.007c5.521,0,10-4.477,10-10C53,293.262,48.855,288.931,43.628,288.605z"/>
	</g>
	<g>
		<circle cx="18.5" cy="302.148" r="1.5"/>
	</g>
	<g>
		<circle cx="22.5" cy="308.072" r="1.5"/>
	</g>
	<g>
		<circle cx="30.5" cy="308.072" r="1.5"/>
	</g>
	<g>
		<circle cx="26.5" cy="302.148" r="1.5"/>
	</g>
	<g>
		<circle cx="34.5" cy="302.148" r="1.5"/>
	</g>
	<g>
		<circle cx="18.5" cy="314.094" r="1.5"/>
	</g>
	<g>
		<circle cx="26.5" cy="314.094" r="1.5"/>
	</g>
	<g>
		<circle cx="34.5" cy="314.094" r="1.5"/>
	</g>
</g>
<g>
	<g>
		<rect x="119.414" y="273.128" width="2" height="7.973"/>
	</g>
	<g>
		<rect x="100.414" y="292.042" width="7.973" height="2"/>
	</g>
	<g>
		<rect x="105.087" y="280.776" transform="matrix(0.7071 0.7071 -0.7071 0.7071 231.1924 5.403)" width="7.974" height="2"/>
	</g>
	<g>
		<rect x="130.596" y="277.794" transform="matrix(0.7071 0.7071 -0.7071 0.7071 237.7915 -10.521)" width="2" height="7.972"/>
	</g>
	<g>
		<path d="M149.926,298.918c-1.444-6.742-7.433-11.8-14.605-11.8c-2.185,0-4.258,0.47-6.127,1.313
			c-1.666-3.202-5.006-5.394-8.865-5.394c-5.522,0-10,4.477-10,9.999c0,2.46,0.898,4.702,2.373,6.442
			c-1.428,1.84-2.287,4.144-2.287,6.653c0,5.983,4.836,10.836,10.813,10.865v0.003h1.188v-2h-0.721l-0.457-0.003
			c-4.864-0.023-8.822-4.001-8.822-8.865c0-4.89,3.978-8.868,8.867-8.868c0.15,0,0.299,0.012,0.447,0.022l0.148,0.01l1.314,0.085
			l0.597-1.175c2.225-4.372,6.644-7.089,11.532-7.089c6.062,0,11.382,4.298,12.649,10.219l0.318,1.483l1.514,0.094
			c3.708,0.23,6.612,3.319,6.612,7.03c0,3.878-3.144,7.035-7.017,7.057c-0.042-0.003-0.079-0.005-0.117-0.005l-2.047,0.005h-1.819v2
			h3.819v-0.006c0.042,0.001,0.082,0.006,0.124,0.006c5.001,0,9.057-4.054,9.057-9.057
			C158.414,303.135,154.66,299.213,149.926,298.918z M122.006,295.301c-0.241-0.016-0.48-0.036-0.725-0.036
			c-2.766,0-5.281,1.042-7.2,2.743c-1.092-1.367-1.753-3.09-1.753-4.971c0-4.41,3.589-7.999,8-7.999c3.092,0,5.76,1.773,7.092,4.345
			C125.121,290.822,123.242,292.871,122.006,295.301z"/>
	</g>
	<g>
		<circle cx="125.903" cy="310.512" r="1.5"/>
	</g>
	<g>
		<circle cx="129.903" cy="316.512" r="1.5"/>
	</g>
	<g>
		<circle cx="137.903" cy="316.512" r="1.5"/>
	</g>
	<g>
		<circle cx="133.903" cy="310.512" r="1.5"/>
	</g>
	<g>
		<circle cx="141.903" cy="310.512" r="1.5"/>
	</g>
	<g>
		<circle cx="125.903" cy="322.533" r="1.5"/>
	</g>
	<g>
		<circle cx="133.903" cy="322.533" r="1.5"/>
	</g>
	<g>
		<circle cx="141.903" cy="322.533" r="1.5"/>
	</g>
</g>
<g>
	<g>
		<path d="M245.877,294.962c-1.444-6.742-7.433-11.8-14.605-11.8c-1.799,0-3.521,0.32-5.118,0.904
			c-0.949-5.108-5.404-8.98-10.788-8.98c-0.413,0-0.819,0.027-1.222,0.071c0.744,1.112,1.179,2.448,1.179,3.886c0,3.865-3.134,7-7,7
			c-1.438,0-2.773-0.435-3.886-1.179c-0.044,0.401-0.071,0.809-0.071,1.222c0,3.712,1.845,6.987,4.661,8.979
			c-1.653,1.907-2.661,4.389-2.661,7.111c0,5.983,4.836,10.836,10.813,10.865v0.003h1.188v-2h-0.721l-0.457-0.003
			c-4.864-0.023-8.822-4.001-8.822-8.865c0-4.89,3.978-8.868,8.867-8.868c0.15,0,0.299,0.012,0.447,0.022l0.148,0.01l1.314,0.085
			l0.597-1.175c2.225-4.372,6.644-7.089,11.532-7.089c6.062,0,11.382,4.298,12.649,10.219l0.318,1.483l1.514,0.094
			c3.708,0.23,6.612,3.319,6.612,7.03c0,3.878-3.144,7.035-7.017,7.057c-0.042-0.003-0.079-0.005-0.117-0.005l-2.047,0.005h-1.819v2
			h3.819v-0.006c0.042,0.001,0.082,0.006,0.124,0.006c5.001,0,9.057-4.054,9.057-9.057
			C254.365,299.179,250.611,295.257,245.877,294.962z M217.957,291.345c-0.241-0.016-0.48-0.036-0.725-0.036
			c-2.537,0-4.865,0.876-6.715,2.334c-2.012-1.294-3.486-3.354-3.976-5.776c0.582,0.117,1.178,0.177,1.78,0.177c4.963,0,9-4.037,9-9
			c0-0.603-0.06-1.198-0.177-1.78c3.733,0.753,6.629,3.824,7.134,7.64C221.566,286.347,219.352,288.602,217.957,291.345z"/>
	</g>
	<g>
		<circle cx="221.865" cy="306.555" r="1.5"/>
	</g>
	<g>
		<circle cx="225.865" cy="312.555" r="1.5"/>
	</g>
	<g>
		<circle cx="233.865" cy="312.555" r="1.5"/>
	</g>
	<g>
		<circle cx="229.865" cy="306.555" r="1.5"/>
	</g>
	<g>
		<circle cx="237.865" cy="306.555" r="1.5"/>
	</g>
	<g>
		<circle cx="221.865" cy="318.576" r="1.5"/>
	</g>
	<g>
		<circle cx="229.865" cy="318.576" r="1.5"/>
	</g>
	<g>
		<circle cx="237.865" cy="318.576" r="1.5"/>
	</g>
</g>
<g>
	<path d="M557.042,196.076c-1.596-7.445-8.207-13.029-16.127-13.029c-6.423,0-11.977,3.678-14.702,9.035
		c-0.266-0.018-0.53-0.04-0.8-0.04c-6.627,0-11.999,5.372-11.999,12c0,6.607,5.34,11.965,11.938,11.998v0.003h2.062v-2h-1.604
		l-0.447-0.003c-5.485-0.027-9.948-4.513-9.948-9.998c0-5.514,4.485-10,9.999-10c0.175,0,0.347,0.014,0.52,0.025l0.148,0.01
		l1.316,0.088l0.598-1.176c2.492-4.899,7.443-7.942,12.92-7.942c6.79,0,12.75,4.814,14.172,11.448l0.317,1.482l1.514,0.095
		c4.203,0.262,7.496,3.763,7.496,7.971c0,4.397-3.565,7.977-7.957,8c-0.05-0.003-0.093-0.005-0.137-0.007l-2.043,0.007h-2.863v2
		h4.863v-0.007c0.046,0.001,0.091,0.007,0.137,0.007c5.521,0,10-4.477,10-10C566.414,200.732,562.27,196.401,557.042,196.076z"/>
	<circle cx="531.414" cy="223.547" r="1.5"/>
	<circle cx="539.414" cy="229.547" r="1.5"/>
	<circle cx="547.414" cy="225.547" r="1.5"/>
	<rect x="530.414" y="207.071" width="2" height="11.976"/>
	<polygon points="540.414,225.012 540.414,223.071 540.414,211.071 538.414,211.071 538.414,223.071 538.414,225.012 
		538.414,225.047 540.414,225.047 	"/>
	<polygon points="548.414,220.824 548.414,219.071 548.414,207.071 546.414,207.071 546.414,219.071 546.414,220.824 
		546.414,221.047 548.414,221.047 	"/>
</g>
<g>
	<rect x="-191.335" y="267.689" width="2" height="7.973"/>
	<rect x="-210.335" y="286.604" width="7.973" height="2"/>
	<rect x="-205.662" y="275.337" transform="matrix(0.7071 0.7071 -0.7071 0.7071 136.3305 223.5428)" width="7.974" height="2"/>
	<rect x="-180.153" y="272.355" transform="matrix(0.7071 0.7071 -0.7071 0.7071 142.9297 207.6189)" width="2" height="7.972"/>
	<path d="M-160.823,293.479c-1.444-6.742-7.433-11.8-14.605-11.8c-2.185,0-4.258,0.47-6.126,1.313
		c-1.667-3.202-5.007-5.394-8.866-5.394c-5.522,0-10,4.477-10,9.999c0,2.46,0.899,4.702,2.373,6.442
		c-1.429,1.84-2.287,4.144-2.287,6.653c0,5.983,4.836,10.836,10.813,10.865v0.003h1.188v-2h-0.721l-0.457-0.003
		c-4.864-0.023-8.822-4.001-8.822-8.865c0-4.89,3.978-8.868,8.867-8.868c0.15,0,0.299,0.012,0.447,0.022l0.148,0.01l1.314,0.085
		l0.597-1.175c2.225-4.372,6.644-7.089,11.532-7.089c6.062,0,11.382,4.298,12.649,10.219l0.318,1.483l1.514,0.094
		c3.708,0.23,6.612,3.319,6.612,7.03c0,3.878-3.144,7.035-7.017,7.057c-0.042-0.003-0.079-0.005-0.117-0.005l-2.047,0.005h-0.819v2
		h2.819v-0.006c0.042,0.001,0.082,0.006,0.124,0.006c5.001,0,9.057-4.054,9.057-9.057
		C-152.335,297.696-156.089,293.774-160.823,293.479z M-188.743,289.862c-0.241-0.016-0.48-0.036-0.725-0.036
		c-2.766,0-5.282,1.041-7.2,2.743c-1.092-1.366-1.753-3.09-1.753-4.971c0-4.41,3.589-7.999,8-7.999c3.091,0,5.76,1.773,7.091,4.345
		C-185.628,285.385-187.508,287.433-188.743,289.862z"/>
	<circle cx="-184.345" cy="320.05" r="1.5"/>
	<circle cx="-176.345" cy="326.05" r="1.5"/>
	<circle cx="-168.345" cy="322.05" r="1.5"/>
	<rect x="-185.345" y="303.574" width="2" height="11.976"/>
	<polygon points="-175.345,321.515 -175.345,319.574 -175.345,307.574 -177.345,307.574 -177.345,319.574 -177.345,321.515 
		-177.345,321.55 -175.345,321.55 	"/>
	<polygon points="-167.345,317.327 -167.345,315.574 -167.345,303.574 -169.345,303.574 -169.345,315.574 -169.345,317.327 
		-169.345,317.55 -167.345,317.55 	"/>
</g>
<g>
	<path d="M-60.221,290.481c-1.444-6.742-7.433-11.8-14.605-11.8c-1.799,0-3.522,0.32-5.118,0.904
		c-0.949-5.108-5.404-8.98-10.788-8.98c-0.413,0-0.819,0.027-1.222,0.071c0.744,1.112,1.179,2.448,1.179,3.886c0,3.865-3.134,7-7,7
		c-1.438,0-2.773-0.435-3.886-1.179c-0.044,0.401-0.071,0.809-0.071,1.222c0,3.712,1.845,6.987,4.661,8.979
		c-1.653,1.907-2.661,4.389-2.661,7.111c0,5.983,4.836,10.836,10.813,10.865v0.003h1.188v-2h-0.721l-0.457-0.003
		c-4.864-0.023-8.822-4.001-8.822-8.865c0-4.89,3.978-8.868,8.867-8.868c0.15,0,0.299,0.012,0.447,0.022l0.148,0.01l1.314,0.085
		l0.597-1.175c2.225-4.372,6.644-7.089,11.532-7.089c6.062,0,11.382,4.298,12.649,10.219l0.318,1.483l1.514,0.094
		c3.708,0.23,6.612,3.319,6.612,7.03c0,3.878-3.144,7.035-7.017,7.057c-0.042-0.003-0.079-0.005-0.117-0.005l-2.047,0.005h-0.819v2
		h2.819v-0.006c0.042,0.001,0.082,0.006,0.124,0.006c5.001,0,9.057-4.054,9.057-9.057
		C-51.732,294.698-55.486,290.776-60.221,290.481z M-88.141,286.864c-0.241-0.016-0.48-0.036-0.725-0.036
		c-2.537,0-4.865,0.876-6.715,2.334c-2.012-1.294-3.487-3.354-3.976-5.776c0.582,0.117,1.178,0.177,1.78,0.177c4.963,0,9-4.037,9-9
		c0-0.603-0.06-1.198-0.177-1.78c3.733,0.753,6.629,3.824,7.133,7.64C-84.53,281.866-86.745,284.121-88.141,286.864z"/>
	<circle cx="-83.732" cy="317.056" r="1.5"/>
	<circle cx="-75.732" cy="323.056" r="1.5"/>
	<circle cx="-67.732" cy="319.056" r="1.5"/>
	<rect x="-84.732" y="300.58" width="2" height="11.976"/>
	<polygon points="-74.732,318.521 -74.732,316.58 -74.732,304.58 -76.732,304.58 -76.732,316.58 -76.732,318.521 -76.732,318.556 
		-74.732,318.556 	"/>
	<polygon points="-66.732,314.333 -66.732,312.58 -66.732,300.58 -68.732,300.58 -68.732,312.58 -68.732,314.333 -68.732,314.556 
		-66.732,314.556 	"/>
</g>
<g>
	<rect x="-208.335" y="394.922" width="56" height="2"/>
	<rect x="-204.335" y="400.922" width="50" height="2"/>
	<rect x="-198.335" y="406.922" width="36" height="2"/>
	<rect x="-206.335" y="388.922" width="52" height="2"/>
	<path d="M-194.461,380.917c0.175,0,0.347,0.014,0.519,0.025l0.149,0.01l1.316,0.088l0.598-1.176
		c2.493-4.899,7.443-7.942,12.92-7.942c6.79,0,12.75,4.814,14.171,11.448l0.318,1.482l1.514,0.095
		c1.207,0.075,2.335,0.425,3.336,0.975h3.286c-1.678-1.703-3.957-2.813-6.498-2.971c-1.596-7.445-8.207-13.029-16.127-13.029
		c-6.423,0-11.977,3.678-14.702,9.035c-0.266-0.018-0.53-0.04-0.8-0.04c-4.843,0-9.004,2.874-10.9,7.005h2.251
		C-201.379,382.936-198.154,380.917-194.461,380.917z"/>
</g>
<g>
	<rect x="-87.232" y="367.407" width="2" height="7.973"/>
	<rect x="-106.232" y="386.321" width="7.973" height="2"/>
	<rect x="-101.559" y="375.055" transform="matrix(0.7071 0.7071 -0.7071 0.7071 237.3326 179.1379)" width="7.974" height="2"/>
	<rect x="-76.051" y="372.073" transform="matrix(0.7071 0.7071 -0.7071 0.7071 243.9317 163.2139)" width="2" height="7.972"/>
	<rect x="-97.232" y="401.281" width="50" height="2"/>
	<rect x="-93.232" y="407.281" width="44" height="2"/>
	<rect x="-87.232" y="412.281" width="30" height="2"/>
	<rect x="-95.232" y="395.281" width="46" height="2"/>
	<path d="M-94.324,393.281h0.771h1.927h1.012c1.472-1.087,3.283-1.737,5.249-1.737c0.15,0,0.299,0.012,0.447,0.022l0.148,0.01
		l1.314,0.085l0.597-1.175c2.225-4.372,6.644-7.089,11.532-7.089c5.945,0,11.168,4.139,12.563,9.884h2.043v-0.084
		c-1.444-6.742-7.433-11.8-14.605-11.8c-2.185,0-4.258,0.47-6.126,1.313c-1.667-3.202-5.007-5.394-8.866-5.394
		c-5.522,0-10,4.477-10,9.999C-96.318,389.558-95.57,391.616-94.324,393.281z M-86.318,379.317c3.091,0,5.76,1.773,7.091,4.345
		c-2.298,1.44-4.178,3.488-5.413,5.918c-0.241-0.016-0.48-0.036-0.725-0.036c-2.764,0-5.274,1.045-7.189,2.745
		c-1.097-1.366-1.764-3.089-1.764-4.973C-94.318,382.906-90.729,379.317-86.318,379.317z"/>
</g>
<g>
	<rect x="1.512" y="397.844" width="50" height="2"/>
	<rect x="5.512" y="403.844" width="44" height="2"/>
	<rect x="11.512" y="408.844" width="30" height="2"/>
	<rect x="3.512" y="391.844" width="46" height="2"/>
	<path d="M5.154,389.844h0.037h1.884H8.13c1.472-1.087,3.283-1.737,5.249-1.737c0.15,0,0.299,0.012,0.447,0.022l0.148,0.01
		l1.314,0.085l0.597-1.175c2.225-4.372,6.644-7.089,11.532-7.089c5.945,0,11.168,4.139,12.563,9.884h2.043v-0.084
		c-1.444-6.742-7.433-11.8-14.605-11.8c-1.799,0-3.521,0.32-5.117,0.903c-0.945-5.111-5.402-8.987-10.789-8.987
		c-0.413,0-0.819,0.027-1.222,0.071c0.744,1.112,1.179,2.448,1.179,3.886c0,3.865-3.134,7-7,7c-1.438,0-2.773-0.435-3.886-1.179
		c-0.044,0.401-0.071,0.809-0.071,1.222C0.512,384.58,2.348,387.851,5.154,389.844z M4.469,382.833c4.963,0,9-4.037,9-9
		c0-0.603-0.06-1.198-0.177-1.78c3.735,0.753,6.633,3.828,7.134,7.647c-2.712,1.443-4.927,3.699-6.322,6.442
		c-0.241-0.016-0.48-0.036-0.725-0.036c-2.534,0-4.855,0.879-6.701,2.335c-2.02-1.293-3.5-3.356-3.989-5.785
		C3.271,382.773,3.866,382.833,4.469,382.833z"/>
</g>
<g>
	<path d="M133.403,400.857H113.93l-0.578-0.003c-5.485-0.027-9.948-4.513-9.948-9.998c0-5.514,4.485-10,9.999-10
		c0.175,0,0.347,0.014,0.519,0.025l0.149,0.01l1.316,0.088l0.598-1.176c2.493-4.899,7.443-7.942,12.92-7.942
		c6.79,0,12.75,4.814,14.171,11.448l0.318,1.482l1.514,0.095c1.822,0.113,3.463,0.845,4.746,1.971h2.732
		c-1.707-2.262-4.348-3.78-7.354-3.967c-1.596-7.445-8.207-13.029-16.127-13.029c-6.423,0-11.977,3.678-14.702,9.035
		c-0.266-0.018-0.53-0.04-0.8-0.04c-6.627,0-11.999,5.372-11.999,12c0,6.607,5.34,11.965,11.938,11.998v0.003h20.062
		c2.205,0,4,1.794,4,4s-1.795,4-4,4v2c3.314,0,6-2.686,6-6C139.403,403.544,136.718,400.857,133.403,400.857z"/>
	<path d="M137.403,396.857h-15.988v2h15.988c3.314,0,6-2.687,6-6c0-3.314-2.686-6-6-6v2c2.205,0,4,1.794,4,4
		S139.608,396.857,137.403,396.857z"/>
	<path d="M150.403,390.857c1.654,0,3,1.346,3,3s-1.346,3-3,3c-0.043,0-0.083-0.011-0.126-0.013h-4.862
		c0.003,0.005,0.009,0.008,0.012,0.013h-0.023v2h5.5v-0.051c2.523-0.254,4.5-2.358,4.5-4.949c0-2.762-2.238-5-5-5V390.857z"/>
	<path d="M154.403,400.857h-13v2h9.022c-0.004,0.005-0.008,0.008-0.011,0.013h3.862c0.043-0.002,0.083-0.013,0.126-0.013
		c1.654,0,3,1.346,3,3s-1.346,3-3,3v2c2.762,0,5-2.238,5-5S157.165,400.857,154.403,400.857z"/>
	<rect x="115.403" y="396.857" width="4" height="2"/>
</g>
<path d="M-74.158,1.754c6.95,1.305,12.226,7.419,12.226,14.742c0,8.272-6.729,15.002-15,15.002c-6.79,0-12.531-4.49-14.366-10.728
	c1.398,0.461,2.867,0.698,4.366,0.698c7.72,0,14-6.281,14-14.001C-72.933,5.483-73.356,3.539-74.158,1.754 M-76.933-0.503
	c-0.338,0-0.668,0.031-1,0.051c1.861,2.113,3,4.881,3,7.92c0,6.627-5.372,12.001-12,12.001c-2.599,0-4.998-0.835-6.963-2.239
	c0.387,9.047,7.821,16.269,16.963,16.269c9.39,0,17-7.612,17-17.002S-67.543-0.503-76.933-0.503L-76.933-0.503z"/>
<g>
	<path d="M-180.328,4.492c-7.18,0-13,5.819-13,12.999c0,7.181,5.82,13.002,13,13.002s13-5.821,13-13.002
		C-167.328,10.312-173.148,4.492-180.328,4.492z M-180.328,28.493c-6.065,0-11-4.936-11-11.002c0-6.064,4.935-10.999,11-10.999
		s11,4.935,11,10.999C-169.328,23.558-174.263,28.493-180.328,28.493z"/>
	<rect x="-181.335" y="-8.502" width="2" height="10"/>
	<rect x="-181.335" y="33.498" width="2" height="10"/>
	<rect x="-206.328" y="16.498" width="9.993" height="2"/>
	<rect x="-164.335" y="16.498" width="10.007" height="2"/>
	<rect x="-166.635" y="-2.416" transform="matrix(0.7071 0.7071 -0.7071 0.7071 -46.5416 117.9386)" width="2" height="10.409"/>
	<rect x="-196.044" y="26.993" transform="matrix(-0.7071 -0.7071 0.7071 -0.7071 -355.7281 -82.9519)" width="2" height="10.41"/>
	<rect x="-200.244" y="1.794" transform="matrix(0.7071 0.7071 -0.7071 0.7071 -55.1505 138.732)" width="10.409" height="2"/>
	<rect x="-170.836" y="31.203" transform="matrix(-0.7072 -0.7071 0.7071 -0.7072 -305.5265 -62.1361)" width="10.41" height="2"/>
</g>
<g>
	<rect x="217.838" y="362.359" width="2" height="7.973"/>
	<rect x="198.865" y="381.346" width="7.973" height="2"/>
	<rect x="203.591" y="370.127" transform="matrix(0.7071 0.7071 -0.7071 0.7071 323.2246 -38.0793)" width="7.974" height="2"/>
	<rect x="229.1" y="367.145" transform="matrix(0.7071 0.7071 -0.7071 0.7071 329.8238 -54.0033)" width="2" height="7.972"/>
	<path d="M232.865,404.359l0.005-0.007h-12.536l-0.594-0.003c-4.864-0.024-8.822-4.001-8.822-8.865c0-4.89,3.978-8.868,8.867-8.868
		c0.15,0,0.299,0.012,0.447,0.021l0.148,0.011l1.314,0.085l0.597-1.174c2.225-4.373,6.644-7.09,11.532-7.09
		c5.916,0,11.114,4.099,12.54,9.8h2.065c-1.444-6.742-7.433-11.8-14.605-11.8c-2.185,0-4.258,0.47-6.126,1.313
		c-1.667-3.202-5.007-5.394-8.866-5.394c-5.522,0-10,4.477-10,9.999c0,2.46,0.899,4.702,2.373,6.442
		c-1.429,1.84-2.287,4.144-2.287,6.653c0,5.983,4.836,10.836,10.813,10.865v0.003h13.135v0.007c2.205,0,4,1.794,4,4s-1.795,4-4,4v2
		c3.314,0,6-2.686,6-6C238.865,407.046,236.18,404.359,232.865,404.359z M218.832,374.39c3.091,0,5.76,1.773,7.091,4.345
		c-2.298,1.439-4.178,3.488-5.413,5.918c-0.241-0.016-0.48-0.036-0.725-0.036c-2.766,0-5.282,1.042-7.2,2.743
		c-1.092-1.367-1.753-3.09-1.753-4.971C210.832,377.979,214.421,374.39,218.832,374.39z"/>
	<path d="M236.865,400.359h-9.988v2h9.988c3.314,0,6-2.687,6-6c0-3.314-2.686-6-6-6v2c2.205,0,4,1.794,4,4
		S239.07,400.359,236.865,400.359z"/>
	<path d="M244.889,400.359h-0.023v2h5.5v-0.051c2.523-0.254,4.5-2.358,4.5-4.949c0-2.762-2.238-5-5-5v2c1.654,0,3,1.346,3,3
		s-1.346,3-3,3c-0.043,0-0.083-0.011-0.126-0.013h-4.862C244.88,400.352,244.886,400.355,244.889,400.359z"/>
	<path d="M253.865,404.359h-13v2h9.022c-0.004,0.004-0.008,0.008-0.011,0.013h3.862c0.043-0.002,0.083-0.013,0.126-0.013
		c1.654,0,3,1.346,3,3s-1.346,3-3,3v2c2.762,0,5-2.238,5-5S256.627,404.359,253.865,404.359z"/>
	<rect x="220.865" y="400.359" width="4" height="2"/>
</g>
<g>
	<path d="M332.827,402.354l0.005-0.007h-12.536l-0.594-0.003c-4.864-0.024-8.822-4.001-8.822-8.865c0-4.89,3.978-8.868,8.867-8.868
		c0.15,0,0.299,0.012,0.447,0.021l0.148,0.011l1.314,0.085l0.597-1.174c2.225-4.373,6.644-7.09,11.532-7.09
		c5.916,0,11.114,4.099,12.54,9.8h2.065c-1.444-6.742-7.433-11.8-14.605-11.8c-1.806,0-3.536,0.322-5.138,0.91
		c-0.938-5.123-5.4-9.01-10.794-9.01c-0.413,0-0.819,0.027-1.222,0.071c0.744,1.112,1.179,2.448,1.179,3.886c0,3.865-3.134,7-7,7
		c-1.438,0-2.773-0.435-3.886-1.179c-0.044,0.401-0.071,0.809-0.071,1.222c0,3.725,1.858,7.009,4.69,8.998
		c-1.655,1.907-2.665,4.392-2.665,7.116c0,5.983,4.836,10.836,10.813,10.865v0.003h13.135v0.007c2.205,0,4,1.794,4,4s-1.795,4-4,4v2
		c3.314,0,6-2.686,6-6C338.827,405.04,336.142,402.354,332.827,402.354z M309.031,379.145c0.582,0.117,1.178,0.177,1.78,0.177
		c4.963,0,9-4.037,9-9c0-0.603-0.06-1.198-0.177-1.78c3.744,0.755,6.646,3.842,7.138,7.674c-2.702,1.444-4.909,3.696-6.301,6.432
		c-0.241-0.016-0.48-0.036-0.725-0.036c-2.535,0-4.861,0.875-6.71,2.33C311.009,383.648,309.522,381.58,309.031,379.145z"/>
	<path d="M336.827,398.354h-9.988v2h9.988c3.314,0,6-2.687,6-6c0-3.314-2.686-6-6-6v2c2.205,0,4,1.794,4,4
		S339.032,398.354,336.827,398.354z"/>
	<path d="M344.851,398.354h-0.023v2h5.5v-0.051c2.523-0.254,4.5-2.358,4.5-4.949c0-2.762-2.238-5-5-5v2c1.654,0,3,1.346,3,3
		s-1.346,3-3,3c-0.043,0-0.083-0.011-0.126-0.013h-4.862C344.842,398.346,344.848,398.35,344.851,398.354z"/>
	<path d="M353.827,402.354h-13v2h9.022c-0.004,0.004-0.008,0.008-0.011,0.013h3.862c0.043-0.002,0.083-0.013,0.126-0.013
		c1.654,0,3,1.346,3,3s-1.346,3-3,3v2c2.762,0,5-2.238,5-5S356.589,402.354,353.827,402.354z"/>
	<rect x="320.827" y="398.354" width="4" height="2"/>
</g>
<g>
	<rect x="433.72" y="364.922" width="2" height="10"/>
	<rect x="408.727" y="389.922" width="9.993" height="2"/>
	<rect x="448.42" y="371.008" transform="matrix(0.7071 0.7071 -0.7071 0.7071 397.6542 -207.5975)" width="2" height="10.409"/>
	<rect x="414.811" y="375.217" transform="matrix(0.7071 0.7071 -0.7071 0.7071 389.0454 -186.8041)" width="10.409" height="2"/>
	<path d="M438.72,404.922h-24v2h24c2.205,0,4,1.794,4,4s-1.795,4-4,4v2c3.314,0,6-2.686,6-6
		C444.72,407.608,442.034,404.922,438.72,404.922z"/>
	<path d="M450.743,400.922h-0.023v2h5.5v-0.051c2.523-0.254,4.5-2.358,4.5-4.949c0-2.762-2.238-5-5-5v2c1.654,0,3,1.346,3,3
		s-1.346,3-3,3c-0.043,0-0.083-0.011-0.126-0.013h-4.862C450.734,400.914,450.74,400.918,450.743,400.922z"/>
	<path d="M459.72,404.922h-13v2h9.022c-0.004,0.004-0.008,0.008-0.011,0.013h3.862c0.043-0.002,0.083-0.013,0.126-0.013
		c1.654,0,3,1.346,3,3s-1.346,3-3,3v2c2.762,0,5-2.238,5-5S462.481,404.922,459.72,404.922z"/>
	<path d="M426.429,400.922H414.72v2h12.012h0.822h15.166c3.314,0,6-2.687,6-6c0-3.314-2.686-6-6-6v2c2.205,0,4,1.794,4,4
		s-1.795,4-4,4h-12.538c-3.802-1.734-6.455-5.563-6.455-10.007c0-6.064,4.935-10.999,11-10.999c5.384,0,9.868,3.891,10.81,9.006
		h2.021c-0.961-6.23-6.331-11.006-12.831-11.006c-7.18,0-13,5.819-13,12.999C421.727,394.94,423.557,398.537,426.429,400.922z"/>
</g>
<g>
	<path d="M538.946,398.365h-24v2h24c2.205,0,4,1.794,4,4s-1.795,4-4,4v2c3.314,0,6-2.686,6-6
		C544.946,401.052,542.261,398.365,538.946,398.365z"/>
	<path d="M556.446,396.365v-0.051c2.523-0.254,4.5-2.358,4.5-4.949c0-2.762-2.238-5-5-5v2c1.654,0,3,1.346,3,3s-1.346,3-3,3
		c-0.043,0-0.083-0.011-0.126-0.013h-4.862c0.004,0.005,0.009,0.009,0.012,0.013h-0.023v2H556.446z"/>
	<path d="M559.946,398.365h-13v2h9.022c-0.003,0.004-0.007,0.008-0.011,0.013h3.862c0.043-0.002,0.083-0.013,0.126-0.013
		c1.654,0,3,1.346,3,3s-1.346,3-3,3v2c2.762,0,5-2.238,5-5S562.708,398.365,559.946,398.365z"/>
	<path d="M527.78,396.365h15.166c3.314,0,6-2.687,6-6c0-3.314-2.686-6-6-6v2c2.205,0,4,1.794,4,4s-1.795,4-4,4H530.36
		c-2.596-1.188-4.658-3.339-5.69-6.034c0.849,0.204,1.724,0.309,2.612,0.309c6.168,0,11.187-5.019,11.187-11.188
		c0-1.276-0.22-2.532-0.64-3.717c4.046,1.102,7.168,4.459,7.937,8.63h2.018c-0.964-6.237-6.338-11.016-12.846-11.016
		c-0.259,0-0.511,0.024-0.766,0.039c1.425,1.618,2.297,3.737,2.297,6.063c0,5.072-4.112,9.188-9.187,9.188
		c-1.988,0-3.826-0.641-5.33-1.715c0.162,3.801,1.962,7.165,4.699,9.44h-11.705v2h12.012H527.78z"/>
</g>
<g>
	<path d="M-180.835,483.559h-20c-1.103,0-2-0.897-2-2s0.897-2,2-2h3.445h0.555v-2h-4c-2.209,0-4,1.791-4,4s1.791,4,4,4h20
		c2.205,0,4,1.794,4,4s-1.795,4-4,4v2c3.314,0,6-2.686,6-6C-174.835,486.245-177.521,483.559-180.835,483.559z"/>
	<path d="M-178.835,467.559v2c2.205,0,4,1.794,4,4s-1.795,4-4,4h-15.988v2h15.988c3.314,0,6-2.687,6-6
		C-172.835,470.244-175.521,467.559-178.835,467.559z"/>
	<path d="M-172.835,479.559v2h5.5v-0.051c2.523-0.254,4.5-2.358,4.5-4.949c0-2.762-2.238-5-5-5v2c1.654,0,3,1.346,3,3s-1.346,3-3,3
		c-0.043,0-0.083-0.011-0.126-0.013h-4.862c0.003,0.005,0.009,0.009,0.012,0.013H-172.835z"/>
	<path d="M-161.835,483.559h-11v2h7.022c-0.004,0.004-0.008,0.008-0.011,0.013h3.862c0.043-0.002,0.083-0.013,0.126-0.013
		c1.654,0,3,1.346,3,3s-1.346,3-3,3v2c2.762,0,5-2.238,5-5S-159.073,483.559-161.835,483.559z"/>
</g>
<path d="M355.457,469.905v-0.038h-38.376c-1.103,0-2-0.897-2-2s0.897-2,2-2h33c2.762,0,5-2.238,5-5s-2.238-5-5-5h-37.875v0.008
	c-0.042-0.001-0.083-0.008-0.125-0.008c-2.762,0-5,2.238-5,5s2.238,5,5,5v-2c-1.654,0-3-1.346-3-3s1.346-3,3-3h0.125h3.853h34.022
	c1.654,0,3,1.346,3,3s-1.346,3-3,3h-33c-2.209,0-4,1.791-4,4s1.791,4,4,4h38c1.103,0,2,0.897,2,2s-0.897,2-2,2h-32
	c-2.209,0-4,1.791-4,4s1.791,4,4,4h22c1.103,0,2,0.897,2,2s-0.897,2-2,2h-24.01v0.001c-2.204,0.006-3.99,1.793-3.99,3.999
	s1.786,3.993,3.99,3.999v0.001h12.01c1.103,0,2,0.897,2,2s-0.897,2-2,2h-2c-2.209,0-4,1.791-4,4s1.791,4,4,4v-2
	c-1.103,0-2-0.897-2-2s0.897-2,2-2h2c2.209,0,4-1.791,4-4s-1.791-4-4-4h-12c-1.103,0-2-0.897-2-2s0.897-2,2-2h24
	c2.209,0,4-1.791,4-4c0-2.152-1.704-3.895-3.834-3.983v-0.017h-22.166c-1.103,0-2-0.897-2-2s0.897-2,2-2h32c2.209,0,4-1.791,4-4
	C359.081,471.787,357.487,470.098,355.457,469.905z"/>
<path d="M540.872,460.583v-2.024h-2v2.024c-13.01,0.513-23.462,10.965-23.975,23.976h1.674c1.14-1.222,2.748-2,4.551-2
	c2.26,0,4.233,1.203,5.331,3h1.838c1.098-1.797,3.071-3,5.331-3c2.204,0,4.137,1.144,5.25,2.866v15.134c0,2.21,1.791,4,4,4
	s4-1.79,4-4h-2c0,1.103-0.897,2-2,2s-2-0.897-2-2v-15.134c1.113-1.723,3.046-2.866,5.25-2.866c2.26,0,4.233,1.203,5.331,3h1.838
	c1.098-1.797,3.071-3,5.331-3c1.803,0,3.411,0.778,4.551,2h1.674C564.334,471.548,553.882,461.096,540.872,460.583z
	 M558.622,480.559c-2.496,0-4.736,1.114-6.25,2.87c-1.514-1.756-3.754-2.87-6.25-2.87s-4.736,1.114-6.25,2.87
	c-1.514-1.756-3.754-2.87-6.25-2.87s-4.736,1.114-6.25,2.87c-1.514-1.756-3.755-2.87-6.25-2.87c-1.402,0-2.731,0.351-3.897,0.975
	c1.909-10.769,11.339-18.975,22.647-18.975s20.738,8.206,22.647,18.975C561.354,480.909,560.024,480.559,558.622,480.559z"/>
<g>
	<path d="M135.577,584.871v-17.105c0-2.762-2.238-5-5-5s-5,2.238-5,5v17.105c-1.236,1.263-2,2.988-2,4.895c0,3.866,3.134,7,7,7
		s7-3.134,7-7C137.577,587.859,136.813,586.134,135.577,584.871z M130.577,594.766c-2.757,0-5-2.243-5-5
		c0-1.313,0.508-2.554,1.429-3.495l0.571-0.583v-0.816v-17.105c0-1.654,1.346-3,3-3s3,1.346,3,3v17.105v0.816l0.571,0.583
		c0.921,0.941,1.429,2.183,1.429,3.495C135.577,592.522,133.334,594.766,130.577,594.766z"/>
	<path d="M131.577,586.941v-15.176h-2v15.176c-1.167,0.413-2.008,1.516-2.008,2.824c0,1.662,1.347,3.008,3.008,3.008
		c1.662,0,3.008-1.346,3.008-3.008C133.585,588.457,132.745,587.354,131.577,586.941z M130.577,590.773
		c-0.556,0-1.008-0.452-1.008-1.008s0.452-1.008,1.008-1.008s1.008,0.452,1.008,1.008S131.133,590.773,130.577,590.773z"/>
</g>
<g>
	<path d="M235.365,584.871v-17.105c0-2.762-2.238-5-5-5s-5,2.238-5,5v17.105c-1.236,1.263-2,2.988-2,4.895c0,3.866,3.134,7,7,7
		s7-3.134,7-7C237.365,587.859,236.602,586.134,235.365,584.871z M230.365,594.766c-2.757,0-5-2.243-5-5
		c0-1.313,0.508-2.554,1.429-3.495l0.571-0.583v-0.816v-17.105c0-1.654,1.346-3,3-3s3,1.346,3,3v17.105v0.816l0.571,0.583
		c0.921,0.941,1.429,2.183,1.429,3.495C235.365,592.522,233.122,594.766,230.365,594.766z"/>
	<path d="M231.365,586.941v-20.176h-2v20.176c-1.167,0.413-2.008,1.516-2.008,2.824c0,1.662,1.347,3.008,3.008,3.008
		c1.662,0,3.008-1.346,3.008-3.008C233.373,588.457,232.533,587.354,231.365,586.941z M230.365,590.773
		c-0.556,0-1.008-0.452-1.008-1.008s0.452-1.008,1.008-1.008s1.008,0.452,1.008,1.008S230.921,590.773,230.365,590.773z"/>
</g>
<g>
	<path d="M32.468,584.871v-17.105c0-2.762-2.238-5-5-5s-5,2.238-5,5v17.105c-1.236,1.263-2,2.988-2,4.895c0,3.866,3.134,7,7,7
		s7-3.134,7-7C34.468,587.859,33.704,586.134,32.468,584.871z M27.468,594.766c-2.757,0-5-2.243-5-5
		c0-1.313,0.508-2.554,1.429-3.495l0.571-0.583v-0.816v-17.105c0-1.654,1.346-3,3-3s3,1.346,3,3v17.105v0.816l0.571,0.583
		c0.921,0.941,1.429,2.183,1.429,3.495C32.468,592.522,30.225,594.766,27.468,594.766z"/>
	<path d="M28.468,586.941v-10.176h-2v10.176c-1.167,0.413-2.008,1.516-2.008,2.824c0,1.662,1.347,3.008,3.008,3.008
		c1.662,0,3.008-1.346,3.008-3.008C30.476,588.457,29.636,587.354,28.468,586.941z M27.468,590.773
		c-0.556,0-1.008-0.452-1.008-1.008s0.452-1.008,1.008-1.008s1.008,0.452,1.008,1.008S28.023,590.773,27.468,590.773z"/>
</g>
<g>
	<path d="M-71.178,584.871v-17.105c0-2.762-2.238-5-5-5s-5,2.238-5,5v17.105c-1.236,1.263-2,2.988-2,4.895c0,3.866,3.134,7,7,7
		s7-3.134,7-7C-69.178,587.859-69.941,586.134-71.178,584.871z M-76.178,594.766c-2.757,0-5-2.243-5-5
		c0-1.313,0.508-2.554,1.429-3.495l0.571-0.583v-0.816v-17.105c0-1.654,1.346-3,3-3s3,1.346,3,3v17.105v0.816l0.571,0.583
		c0.921,0.941,1.429,2.183,1.429,3.495C-71.178,592.522-73.421,594.766-76.178,594.766z"/>
	<path d="M-75.178,586.941v-5.176h-2v5.176c-1.167,0.413-2.008,1.516-2.008,2.824c0,1.662,1.347,3.008,3.008,3.008
		c1.662,0,3.008-1.346,3.008-3.008C-73.17,588.457-74.01,587.354-75.178,586.941z M-76.178,590.773
		c-0.556,0-1.008-0.452-1.008-1.008s0.452-1.008,1.008-1.008s1.008,0.452,1.008,1.008S-75.622,590.773-76.178,590.773z"/>
</g>
<g>
	<path d="M-175.835,584.871v-17.105c0-2.762-2.238-5-5-5s-5,2.238-5,5v17.105c-1.236,1.263-2,2.988-2,4.895c0,3.866,3.134,7,7,7
		s7-3.134,7-7C-173.835,587.859-174.599,586.134-175.835,584.871z M-180.835,594.766c-2.757,0-5-2.243-5-5
		c0-1.313,0.508-2.554,1.429-3.495l0.571-0.583v-0.816v-17.105c0-1.654,1.346-3,3-3s3,1.346,3,3v17.105v0.816l0.571,0.583
		c0.921,0.941,1.429,2.183,1.429,3.495C-175.835,592.522-178.078,594.766-180.835,594.766z"/>
	<path d="M-180.835,586.758c-1.661,0-3.008,1.347-3.008,3.008c0,1.662,1.347,3.008,3.008,3.008c1.662,0,3.008-1.346,3.008-3.008
		C-177.827,588.104-179.173,586.758-180.835,586.758z M-180.835,590.773c-0.556,0-1.008-0.452-1.008-1.008s0.452-1.008,1.008-1.008
		s1.008,0.452,1.008,1.008S-180.279,590.773-180.835,590.773z"/>
</g>
<g>
	<path d="M324.09,565.078c-2.209,0-4,1.791-4,4c0,2.21,1.791,4,4,4c2.211,0,4-1.79,4-4
		C328.09,566.869,326.301,565.078,324.09,565.078z M324.09,571.078c-1.103,0-2-0.897-2-2s0.897-2,2-2s2,0.897,2,2
		S325.192,571.078,324.09,571.078z"/>
	<path d="M338.09,593.078c-4.41,0-7.999-3.589-7.999-7.999v-4.002c0-4.41,3.589-7.999,7.999-7.999c2.715,0,5.115,1.362,6.563,3.437
		l1.43-1.43c-1.824-2.429-4.72-4.007-7.992-4.007c-5.522,0-9.999,4.478-9.999,9.999v4.002c0,5.521,4.477,9.999,9.999,9.999
		c3.272,0,6.168-1.579,7.992-4.008l-1.43-1.43C343.206,591.715,340.806,593.078,338.09,593.078z"/>
</g>
<g>
	<path d="M428.786,564.957c-2.209,0-4,1.791-4,4c0,2.21,1.791,4,4,4c2.211,0,4-1.79,4-4
		C432.786,566.748,430.997,564.957,428.786,564.957z M428.786,570.957c-1.103,0-2-0.897-2-2s0.897-2,2-2s2,0.897,2,2
		S429.889,570.957,428.786,570.957z"/>
	<polygon points="448.661,573.078 448.661,571.078 436.661,571.078 434.661,571.078 434.661,595.078 436.661,595.078 
		436.661,583.078 444.661,583.078 444.661,581.078 436.661,581.078 436.661,573.078 	"/>
</g>
<g>
	<path d="M539.872,568.77c-7.179,0-13,5.82-13,13s5.821,13,13,13s13-5.82,13-13S547.051,568.77,539.872,568.77z M539.872,592.77
		c-6.065,0-11-4.935-11-11s4.935-11,11-11s11,4.935,11,11S545.938,592.77,539.872,592.77z"/>
	<path d="M535.605,586.012l6.363-2.121l2.121-6.364l-6.363,2.122L535.605,586.012z M539.308,581.229l1.62-0.54l-0.54,1.62
		l-1.62,0.54L539.308,581.229z"/>
</g>
<g>
	<path d="M-180.835,659.287c-7.179,0-13,5.82-13,13s5.821,13,13,13s13-5.82,13-13S-173.656,659.287-180.835,659.287z
		 M-180.835,683.287c-6.065,0-11-4.934-11-11c0-6.064,4.935-11,11-11s11,4.936,11,11
		C-169.835,678.354-174.77,683.287-180.835,683.287z"/>
	<path d="M-178.273,670.709l-2.586-4.422l-2.529,4.33h0.007c-0.299,0.467-0.478,1.018-0.478,1.613c0,1.656,1.343,3,3,3s3-1.344,3-3
		c0-0.559-0.162-1.074-0.428-1.521H-178.273z M-180.859,673.23c-0.552,0-1-0.449-1-1c0-0.188,0.055-0.367,0.162-0.535l0.864-1.355
		l0.826,1.391c0.098,0.164,0.147,0.332,0.147,0.5C-179.859,672.781-180.308,673.23-180.859,673.23z"/>
</g>
<g>
	<path d="M-76.051,659.287c-7.18,0-13,5.82-13,13s5.82,13,13,13s13-5.82,13-13S-68.871,659.287-76.051,659.287z M-76.051,683.287
		c-6.065,0-11-4.934-11-11c0-6.064,4.935-11,11-11s11,4.936,11,11C-65.051,678.354-69.985,683.287-76.051,683.287z"/>
	<path d="M-74.462,669.707c-0.467-0.299-1.018-0.477-1.613-0.477c-1.658,0-3,1.342-3,3c0,1.656,1.342,3,3,3
		c0.557,0,1.072-0.162,1.52-0.428v0.014l4.422-2.586l-4.328-2.529V669.707z M-75.577,673.082c-0.164,0.098-0.332,0.148-0.498,0.148
		c-0.552,0-1-0.449-1-1c0-0.553,0.448-1,1-1c0.188,0,0.368,0.053,0.535,0.16l1.355,0.865L-75.577,673.082z"/>
</g>
<g>
	<path d="M27,659.287c-7.18,0-13,5.82-13,13s5.82,13,13,13s13-5.82,13-13S34.18,659.287,27,659.287z M27,683.287
		c-6.065,0-11-4.934-11-11c0-6.064,4.935-11,11-11s11,4.936,11,11C38,678.354,33.065,683.287,27,683.287z"/>
	<path d="M27,669.23c-1.656,0-3,1.342-3,3c0,0.557,0.162,1.072,0.428,1.52h-0.014L27,678.172l2.529-4.328h-0.006
		c0.299-0.467,0.477-1.018,0.477-1.613C30,670.572,28.658,669.23,27,669.23z M27.839,672.766l-0.865,1.355l-0.826-1.393
		C26.05,672.564,26,672.396,26,672.23c0-0.553,0.448-1,1-1s1,0.447,1,1C28,672.418,27.946,672.598,27.839,672.766z"/>
</g>
<g>
	<path d="M130.414,659.287c-7.179,0-13,5.82-13,13s5.821,13,13,13s13-5.82,13-13S137.593,659.287,130.414,659.287z M130.414,683.287
		c-6.065,0-11-4.934-11-11c0-6.064,4.935-11,11-11s11,4.936,11,11C141.414,678.354,136.479,683.287,130.414,683.287z"/>
	<path d="M130.373,669.23c-0.557,0-1.072,0.162-1.52,0.428v-0.014l-4.422,2.586l4.328,2.529v-0.006
		c0.467,0.299,1.018,0.477,1.613,0.477c1.658,0,3-1.342,3-3C133.373,670.574,132.031,669.23,130.373,669.23z M130.373,673.23
		c-0.188,0-0.368-0.055-0.535-0.162l-1.355-0.865l1.393-0.826c0.164-0.098,0.332-0.146,0.498-0.146c0.552,0,1,0.447,1,1
		C131.373,672.781,130.925,673.23,130.373,673.23z"/>
</g>
<g>
	<rect x="-77.737" y="462.559" width="2" height="10"/>
	<rect x="-63.037" y="468.645" transform="matrix(0.7071 0.7071 -0.7071 0.7071 316.8915 182.6544)" width="2" height="10.409"/>
	<rect x="-96.646" y="472.854" transform="matrix(0.7071 0.7071 -0.7071 0.7071 308.2827 203.4478)" width="10.409" height="2"/>
	<polygon points="-83.405,491.813 -81.991,493.227 -77.737,488.973 -77.737,498.559 -75.737,498.559 -75.737,488.973 
		-71.484,493.227 -70.07,491.813 -76.737,485.145 	"/>
	<path d="M-63.73,488.558c0-0.002,0-0.004,0-0.006c0-7.18-5.82-12.999-13-12.999s-13,5.819-13,12.999c0,0.002,0,0.004,0,0.006h-13v2
		h18v-2h-3c0-0.002,0-0.004,0-0.006c0-6.064,4.935-10.999,11-10.999s11,4.935,11,10.999c0,0.002,0,0.004,0,0.006h-3v2h17.995v-2
		H-63.73z"/>
</g>
<g>
	<rect x="26.008" y="461.371" width="2" height="10"/>
	<rect x="40.708" y="467.457" transform="matrix(0.7071 0.7071 -0.7071 0.7071 346.4381 108.9477)" width="2" height="10.409"/>
	<rect x="7.099" y="471.667" transform="matrix(0.7071 0.7071 -0.7071 0.7071 337.8292 129.7411)" width="10.409" height="2"/>
	<polygon points="28.008,495.918 28.008,485.371 26.008,485.371 26.008,495.918 21.754,491.664 20.34,493.078 27.008,499.746 
		33.675,493.078 32.261,491.664 	"/>
	<path d="M40.015,487.37c0-0.002,0-0.004,0-0.006c0-7.18-5.82-12.999-13-12.999s-13,5.819-13,12.999c0,0.002,0,0.004,0,0.006h-13v2
		h22v-2h-7c0-0.002,0-0.004,0-0.006c0-6.064,4.935-10.999,11-10.999s11,4.935,11,10.999c0,0.002,0,0.004,0,0.006h-7v2H53.01v-2
		H40.015z"/>
</g>
<g>
	<polygon points="230.365,495.384 230.365,481.001 228.365,481.001 228.365,495.384 224.111,491.13 222.697,492.544 
		229.365,499.212 236.032,492.544 234.618,491.13 	"/>
	<path d="M245.993,476.03c-1.596-7.445-8.207-13.029-16.127-13.029c-6.423,0-11.977,3.678-14.702,9.035
		c-0.266-0.018-0.53-0.04-0.8-0.04c-6.627,0-11.999,5.372-11.999,12c0,6.607,5.34,11.965,11.938,11.998v0.003h6.062v-2h-5.604
		l-0.447-0.003c-5.485-0.027-9.948-4.513-9.948-9.998c0-5.514,4.485-10,9.999-10c0.175,0,0.347,0.014,0.52,0.025l0.148,0.01
		l1.316,0.088l0.598-1.176c2.492-4.899,7.443-7.942,12.92-7.942c6.79,0,12.75,4.814,14.172,11.448l0.317,1.482l1.514,0.095
		c4.203,0.262,7.496,3.763,7.496,7.971c0,4.397-3.565,7.977-7.957,8c-0.05-0.003-0.093-0.005-0.137-0.007l-2.043,0.007h-4.863v2
		h6.863v-0.007c0.046,0.001,0.091,0.007,0.137,0.007c5.521,0,10-4.477,10-10C255.365,480.687,251.221,476.355,245.993,476.03z"/>
</g>
<g>
	<polygon points="136.35,492.188 137.764,490.774 131.097,484.106 124.429,490.774 125.843,492.188 130.097,487.935 
		130.097,500.521 132.097,500.521 132.097,487.935 	"/>
	<path d="M147.725,477.626c-1.596-7.445-8.207-13.029-16.127-13.029c-6.423,0-11.977,3.678-14.702,9.035
		c-0.266-0.018-0.53-0.04-0.8-0.04c-6.627,0-11.999,5.372-11.999,12c0,6.607,5.34,11.965,11.938,11.998v0.003h10.062v-2h-9.604
		l-0.447-0.003c-5.485-0.027-9.948-4.513-9.948-9.998c0-5.514,4.485-10,9.999-10c0.175,0,0.347,0.014,0.52,0.025l0.148,0.01
		l1.316,0.088l0.598-1.176c2.492-4.899,7.443-7.942,12.92-7.942c6.79,0,12.75,4.814,14.172,11.448l0.317,1.482l1.514,0.095
		c4.203,0.262,7.496,3.763,7.496,7.971c0,4.397-3.565,7.977-7.957,8c-0.05-0.003-0.093-0.005-0.137-0.007l-2.043,0.007h-8.863v2
		h10.863v-0.007c0.046,0.001,0.091,0.007,0.137,0.007c5.521,0,10-4.477,10-10C157.097,482.282,152.952,477.951,147.725,477.626z"/>
</g>
<g>
	<path d="M350.214,288.11c-1.596-7.445-8.207-13.029-16.127-13.029c-6.423,0-11.977,3.678-14.702,9.035
		c-0.266-0.018-0.53-0.04-0.8-0.04c-6.627,0-11.999,5.372-11.999,12c0,6.607,5.34,11.965,11.938,11.998v0.003h2.062v-2h-1.604
		l-0.447-0.003c-5.485-0.027-9.948-4.513-9.948-9.998c0-5.514,4.485-10,9.999-10c0.175,0,0.347,0.014,0.52,0.025l0.148,0.01
		l1.316,0.088l0.598-1.176c2.492-4.899,7.443-7.942,12.92-7.942c6.79,0,12.75,4.814,14.172,11.448l0.317,1.482l1.514,0.095
		c4.203,0.262,7.496,3.763,7.496,7.971c0,4.397-3.565,7.977-7.957,8c-0.05-0.003-0.093-0.005-0.137-0.007l-2.043,0.007h-0.863v2
		h2.863v-0.007c0.046,0.001,0.091,0.007,0.137,0.007c5.521,0,10-4.477,10-10C359.586,292.767,355.441,288.436,350.214,288.11z"/>
	<polygon points="328.586,307.099 328.586,304.469 330.759,305.691 331.444,304.471 328.975,303.081 331.444,301.691 
		330.759,300.471 328.586,301.693 328.586,299.099 326.586,299.099 326.586,301.737 324.335,300.471 323.649,301.691 
		326.119,303.081 323.649,304.471 324.335,305.691 326.586,304.425 326.586,307.099 	"/>
	<polygon points="333.748,311.453 331.575,312.676 331.575,310.081 329.575,310.081 329.575,312.72 327.324,311.453 
		326.639,312.674 329.108,314.063 326.639,315.453 327.324,316.674 329.575,315.407 329.575,318.081 331.575,318.081 
		331.575,315.451 333.748,316.674 334.434,315.453 331.964,314.063 334.434,312.674 	"/>
	<polygon points="342.764,304.471 340.591,305.693 340.591,303.099 338.591,303.099 338.591,305.737 336.34,304.471 
		335.654,305.691 338.124,307.081 335.654,308.471 336.34,309.691 338.591,308.425 338.591,311.099 340.591,311.099 
		340.591,308.469 342.764,309.691 343.449,308.471 340.979,307.081 343.449,305.691 	"/>
</g>
<g>
	<rect x="425.726" y="270.059" width="2" height="7.973"/>
	<rect x="406.726" y="288.973" width="7.973" height="2"/>
	<rect x="411.399" y="277.706" transform="matrix(0.7071 0.7071 -0.7071 0.7071 318.7386 -212.0909)" width="7.974" height="2"/>
	<rect x="436.907" y="274.724" transform="matrix(0.7071 0.7071 -0.7071 0.7071 325.3378 -228.0149)" width="2" height="7.972"/>
	<path d="M456.237,295.849c-1.444-6.742-7.433-11.8-14.605-11.8c-2.185,0-4.258,0.471-6.127,1.314
		c-1.666-3.203-5.006-5.395-8.865-5.395c-5.522,0-10,4.477-10,9.999c0,2.46,0.899,4.702,2.373,6.442
		c-1.428,1.84-2.287,4.144-2.287,6.653c0,5.983,4.836,10.836,10.813,10.865v0.003h1.188v-2h-0.721l-0.457-0.003
		c-4.864-0.023-8.822-4.001-8.822-8.865c0-4.89,3.978-8.868,8.867-8.868c0.15,0,0.299,0.012,0.447,0.022l0.148,0.01l1.314,0.085
		l0.597-1.175c2.225-4.372,6.644-7.089,11.532-7.089c6.062,0,11.382,4.298,12.649,10.219l0.318,1.483l1.514,0.094
		c3.708,0.23,6.612,3.319,6.612,7.03c0,3.878-3.144,7.035-7.017,7.057c-0.042-0.003-0.079-0.005-0.117-0.005l-1.866,0.005v2h1.819
		v-0.006c0.042,0.001,0.082,0.006,0.124,0.006c5.001,0,9.057-4.054,9.057-9.057C464.726,300.065,460.972,296.144,456.237,295.849z
		 M428.317,292.231c-0.241-0.016-0.48-0.036-0.725-0.036c-2.766,0-5.282,1.041-7.2,2.742c-1.092-1.365-1.753-3.089-1.753-4.97
		c0-4.41,3.589-7.999,8-7.999c3.092,0,5.76,1.773,7.091,4.346C431.433,287.754,429.554,289.802,428.317,292.231z"/>
	<polygon points="435.718,312.951 435.718,310.321 437.891,311.544 438.576,310.323 436.106,308.934 438.576,307.544 
		437.891,306.323 435.718,307.546 435.718,304.951 433.718,304.951 433.718,307.59 431.467,306.323 430.781,307.544 
		433.251,308.934 430.781,310.323 431.467,311.544 433.718,310.277 433.718,312.951 	"/>
	<polygon points="440.88,317.306 438.707,318.528 438.707,315.934 436.707,315.934 436.707,318.572 434.456,317.306 
		433.771,318.526 436.24,319.916 433.771,321.306 434.456,322.526 436.707,321.26 436.707,323.934 438.707,323.934 438.707,321.304 
		440.88,322.526 441.565,321.306 439.096,319.916 441.565,318.526 	"/>
	<polygon points="449.896,310.323 447.723,311.546 447.723,308.951 445.723,308.951 445.723,311.59 443.472,310.323 
		442.786,311.544 445.256,312.934 442.786,314.323 443.472,315.544 445.723,314.277 445.723,316.951 447.723,316.951 
		447.723,314.321 449.896,315.544 450.581,314.323 448.111,312.934 450.581,311.544 	"/>
</g>
<g>
	<path d="M556.426,292.846c-1.444-6.742-7.433-11.8-14.605-11.8c-1.799,0-3.522,0.32-5.118,0.904
		c-0.949-5.108-5.404-8.98-10.788-8.98c-0.413,0-0.819,0.027-1.222,0.071c0.744,1.112,1.179,2.448,1.179,3.886c0,3.865-3.134,7-7,7
		c-1.438,0-2.773-0.435-3.886-1.179c-0.044,0.401-0.071,0.809-0.071,1.222c0,3.713,1.845,6.987,4.661,8.979
		c-1.653,1.907-2.661,4.389-2.661,7.111c0,5.983,4.836,10.836,10.813,10.865v0.003h1.188v-2h-0.721l-0.457-0.003
		c-4.864-0.023-8.822-4.001-8.822-8.865c0-4.89,3.978-8.868,8.867-8.868c0.15,0,0.299,0.012,0.447,0.022l0.148,0.01l1.314,0.085
		l0.597-1.175c2.225-4.372,6.644-7.089,11.532-7.089c6.062,0,11.382,4.298,12.649,10.219l0.318,1.483l1.514,0.094
		c3.708,0.23,6.612,3.319,6.612,7.03c0,3.878-3.144,7.035-7.017,7.057c-0.042-0.003-0.079-0.005-0.117-0.005l-1.866,0.005v2h1.819
		v-0.006c0.042,0.001,0.082,0.006,0.124,0.006c5.001,0,9.057-4.054,9.057-9.057C564.914,297.063,561.16,293.141,556.426,292.846z
		 M528.506,289.229c-0.241-0.016-0.48-0.036-0.725-0.036c-2.537,0-4.865,0.877-6.715,2.334c-2.012-1.294-3.486-3.354-3.976-5.776
		c0.582,0.117,1.178,0.177,1.78,0.177c4.963,0,9-4.037,9-9c0-0.603-0.06-1.198-0.177-1.78c3.733,0.753,6.629,3.824,7.134,7.64
		C532.115,284.23,529.9,286.485,528.506,289.229z"/>
	<polygon points="535.951,309.948 535.951,307.318 538.124,308.541 538.81,307.32 536.34,305.931 538.81,304.541 538.124,303.32 
		535.951,304.543 535.951,301.948 533.951,301.948 533.951,304.587 531.7,303.32 531.015,304.541 533.484,305.931 531.015,307.32 
		531.7,308.541 533.951,307.274 533.951,309.948 	"/>
	<polygon points="541.113,314.303 538.94,315.525 538.94,312.931 536.94,312.931 536.94,315.569 534.689,314.303 534.004,315.523 
		536.474,316.913 534.004,318.303 534.689,319.523 536.94,318.257 536.94,320.931 538.94,320.931 538.94,318.301 541.113,319.523 
		541.799,318.303 539.329,316.913 541.799,315.523 	"/>
	<polygon points="550.129,307.32 547.956,308.543 547.956,305.948 545.956,305.948 545.956,308.587 543.705,307.32 543.02,308.541 
		545.489,309.931 543.02,311.32 543.705,312.541 545.956,311.274 545.956,313.948 547.956,313.948 547.956,311.318 550.129,312.541 
		550.814,311.32 548.345,309.931 550.814,308.541 	"/>
</g>
<rect x="-59.933" y="-274.904" fill="none" width="472.974" height="180.918"/>
<text transform="matrix(1 0 0 1 119.7046 -203.5054)"><tspan x="0" y="0" font-family="'HelveticaNeueLTStd-Th'" font-size="100" letter-spacing="2">60</tspan><tspan x="-99.268" y="60" font-family="'HelveticaNeueLTStd-Lt'" font-size="48" letter-spacing="1">Weather Icons</tspan><tspan x="-3.726" y="104" font-family="'HelveticaNeueLTStd-Lt'" font-size="24">IOS 7 Style</tspan></text>
</svg>
