<?xml version="1.0" encoding="utf-8"?>
<!-- Generator: Adobe Illustrator 16.0.0, SVG Export Plug-In . SVG Version: 6.00 Build 0)  -->
<!DOCTYPE svg PUBLIC "-//W3C//DTD SVG 1.1//EN" "http://www.w3.org/Graphics/SVG/1.1/DTD/svg11.dtd">
<svg version="1.1" id="Layer_1" xmlns="http://www.w3.org/2000/svg" xmlns:xlink="http://www.w3.org/1999/xlink" x="0px" y="0px"
	 width="51.973px" height="47.989px" viewBox="0 0 51.973 47.989" enable-background="new 0 0 51.973 47.989" xml:space="preserve">
<path d="M133.682,97.896l-1.803,15.077l-0.268,2.237h2.254h6.896l-14.693,18.759l1.789-14.52l0.277-2.245h-2.262h-6.957
	L133.682,97.896 M136.536,90.872l-21.667,28.333h11.004l-2.671,21.667l21.667-27.661h-11.004L136.536,90.872L136.536,90.872z"/>
<path d="M-279.354-364.364c6.79,0,12.749,4.814,14.171,11.448l0.318,1.483l1.514,0.094c4.203,0.262,7.496,3.763,7.496,7.971
	c0,4.396-3.565,7.977-7.957,8c-0.046-0.003-0.091-0.006-0.137-0.007l-2.043-0.036v0.043h-28.337l-0.578-0.003
	c-5.485-0.027-9.948-4.513-9.948-9.998c0-5.514,4.485-10,9.999-10c0.175,0,0.347,0.014,0.519,0.025l0.149,0.011l1.316,0.087
	l0.598-1.176C-289.78-361.321-284.83-364.364-279.354-364.364 M-279.354-366.364c-6.423,0-11.977,3.678-14.702,9.035
	c-0.266-0.018-0.53-0.04-0.8-0.04c-6.627,0-11.999,5.372-11.999,12c0,6.607,5.34,11.965,11.938,11.998v0.003h30.925v-0.007
	c0.046,0.001,0.091,0.007,0.137,0.007c5.521,0,10-4.477,10-10c0-5.311-4.145-9.642-9.372-9.967
	C-264.822-360.78-271.434-366.364-279.354-366.364L-279.354-366.364z"/>
<g>
	<path d="M-156.402-345.953c-1.444-6.742-7.433-11.8-14.605-11.8c-2.185,0-4.258,0.47-6.127,1.313
		c-1.666-3.202-5.006-5.394-8.865-5.394c-5.522,0-10,4.477-10,9.999c0,2.46,0.898,4.702,2.373,6.442
		c-1.428,1.84-2.287,4.144-2.287,6.653c0,5.983,4.836,10.836,10.813,10.865v0.003h28.007v-0.006
		c0.042,0.001,0.082,0.006,0.124,0.006c5.001,0,9.057-4.054,9.057-9.057C-147.914-341.736-151.668-345.658-156.402-345.953z
		 M-186-359.833c3.092,0,5.76,1.773,7.092,4.345c-2.299,1.44-4.178,3.488-5.414,5.918c-0.241-0.016-0.48-0.036-0.725-0.036
		c-2.766,0-5.281,1.041-7.2,2.743c-1.092-1.366-1.753-3.09-1.753-4.971C-194-356.244-190.411-359.833-186-359.833z M-156.931-329.87
		c-0.038-0.003-0.077-0.004-0.117-0.005l-2.047-0.042v0.047h-25.403l-0.594-0.003c-4.864-0.023-8.822-4.001-8.822-8.865
		c0-4.89,3.978-8.868,8.867-8.868c0.15,0,0.299,0.012,0.447,0.021l0.148,0.011l1.314,0.085l0.598-1.174
		c2.224-4.373,6.643-7.09,11.531-7.09c6.062,0,11.381,4.298,12.65,10.219l0.317,1.482l1.514,0.095
		c3.708,0.231,6.612,3.319,6.612,7.03C-149.914-333.049-153.058-329.893-156.931-329.87z"/>
	<rect x="-186.994" y="-371.863" width="2" height="7.973"/>
	<rect x="-205.967" y="-352.877" width="7.973" height="2"/>
	<rect x="-201.241" y="-364.096" transform="matrix(0.7071 0.7071 -0.7071 0.7071 -314.5218 33.1313)" width="7.974" height="2"/>
	<rect x="-175.732" y="-367.078" transform="matrix(0.7071 0.7071 -0.7071 0.7071 -307.9226 17.2073)" width="2" height="7.972"/>
</g>
<path d="M-60.659-349.98c-1.444-6.742-7.433-11.8-14.605-11.8c-1.799,0-3.521,0.32-5.118,0.904c-0.949-5.108-5.404-8.98-10.788-8.98
	c-0.413,0-0.819,0.027-1.222,0.071c0.744,1.112,1.179,2.448,1.179,3.886c0,3.865-3.134,7-7,7c-1.438,0-2.773-0.435-3.886-1.179
	c-0.044,0.401-0.071,0.809-0.071,1.222c0,3.712,1.845,6.987,4.661,8.979c-1.653,1.907-2.661,4.389-2.661,7.111
	c0,5.983,4.836,10.836,10.813,10.865v0.003h28.007v-0.006c0.042,0.001,0.082,0.006,0.124,0.006c5.001,0,9.057-4.054,9.057-9.057
	C-52.171-345.764-55.925-349.686-60.659-349.98z M-99.994-357.076c0.582,0.117,1.178,0.177,1.78,0.177c4.963,0,9-4.037,9-9
	c0-0.603-0.06-1.198-0.177-1.78c3.733,0.753,6.629,3.824,7.134,7.64c-2.713,1.444-4.928,3.699-6.322,6.442
	c-0.241-0.016-0.48-0.036-0.725-0.036c-2.537,0-4.865,0.876-6.715,2.334C-98.03-352.594-99.505-354.653-99.994-357.076z
	 M-61.188-333.897c-0.038-0.003-0.077-0.004-0.117-0.005l-2.047-0.042v0.047h-25.403l-0.594-0.003
	c-4.864-0.023-8.822-4.001-8.822-8.865c0-4.89,3.978-8.868,8.867-8.868c0.15,0,0.299,0.012,0.447,0.021l0.148,0.011l1.314,0.085
	l0.598-1.174c2.224-4.373,6.643-7.09,11.531-7.09c6.062,0,11.381,4.298,12.65,10.219l0.317,1.482l1.514,0.095
	c3.708,0.231,6.612,3.319,6.612,7.03C-54.171-337.076-57.314-333.92-61.188-333.897z"/>
<g>
	<rect x="23.986" y="-341.357" width="2" height="7"/>
	<rect x="31.986" y="-345.357" width="2" height="7"/>
	<rect x="15.986" y="-345.357" width="2" height="7"/>
	<rect x="23.986" y="-331.357" width="2" height="7"/>
	<rect x="31.986" y="-335.357" width="2" height="7"/>
	<rect x="15.986" y="-335.357" width="2" height="7"/>
	<path d="M42.614-358.346c-1.596-7.445-8.207-13.029-16.127-13.029c-6.423,0-11.977,3.678-14.702,9.035
		c-0.266-0.018-0.53-0.04-0.8-0.04c-6.627,0-11.999,5.372-11.999,12c0,6.607,5.34,11.965,11.938,11.998v0.003h2.062v-2h-1.604
		l-0.447-0.003c-5.485-0.027-9.948-4.513-9.948-9.998c0-5.514,4.485-10,9.999-10c0.175,0,0.347,0.014,0.52,0.025l0.148,0.01
		l1.316,0.088l0.598-1.176c2.492-4.899,7.443-7.942,12.92-7.942c6.79,0,12.75,4.814,14.172,11.448l0.317,1.482l1.514,0.095
		c4.203,0.262,7.496,3.763,7.496,7.971c0,4.397-3.565,7.977-7.957,8c-0.05-0.003-0.093-0.005-0.137-0.007l-2.043,0.007h-2.863v2
		h4.863v-0.007c0.046,0.001,0.091,0.007,0.137,0.007c5.521,0,10-4.477,10-10C51.986-353.689,47.842-358.021,42.614-358.346z"/>
</g>
<g>
	<path d="M-159.813-268.988c-1.596-7.445-8.207-13.029-16.127-13.029c-6.423,0-11.977,3.678-14.702,9.035
		c-0.266-0.018-0.53-0.04-0.8-0.04c-6.627,0-11.999,5.372-11.999,12c0,6.607,5.34,11.965,11.938,11.998v0.003h2.062v-2h-1.604
		l-0.447-0.003c-5.485-0.027-9.948-4.513-9.948-9.998c0-5.514,4.485-10,9.999-10c0.175,0,0.347,0.014,0.52,0.025l0.148,0.01
		l1.316,0.088l0.598-1.176c2.492-4.899,7.443-7.942,12.92-7.942c6.79,0,12.75,4.814,14.172,11.448l0.317,1.482l1.514,0.095
		c4.203,0.262,7.496,3.763,7.496,7.971c0,4.397-3.565,7.977-7.957,8c-0.05-0.003-0.093-0.005-0.137-0.007l-2.043,0.007h-2.863v2
		h4.863v-0.007c0.046,0.001,0.091,0.007,0.137,0.007c5.521,0,10-4.477,10-10C-150.44-264.332-154.585-268.663-159.813-268.988z"/>
	<polygon points="-178.44,-241.993 -178.44,-240.053 -178.44,-233.993 -176.44,-233.993 -176.44,-240.053 -176.44,-241.993 
		-176.44,-253.993 -178.44,-253.993 	"/>
	<polygon points="-170.44,-245.993 -170.44,-244.24 -170.44,-237.993 -168.44,-237.993 -168.44,-244.24 -168.44,-245.993 
		-168.44,-257.993 -170.44,-257.993 	"/>
	<polygon points="-186.44,-245.993 -186.44,-243.928 -186.44,-237.993 -184.44,-237.993 -184.44,-243.928 -184.44,-245.993 
		-184.44,-257.993 -186.44,-257.993 	"/>
</g>
<g>
	<polygon points="135.837,-245.082 128.954,-254.912 127.316,-253.765 134.199,-243.935 135.312,-242.346 138.787,-237.382 
		140.426,-238.528 136.95,-243.493 	"/>
	<polygon points="143.839,-245.084 136.954,-254.912 135.316,-253.764 142.202,-243.936 143.207,-242.5 146.791,-237.385 
		148.43,-238.531 144.846,-243.647 	"/>
	<polygon points="127.837,-245.082 120.954,-254.912 119.316,-253.764 126.199,-243.935 127.384,-242.242 130.788,-237.381 
		132.426,-238.528 129.022,-243.39 	"/>
	<path d="M146.944-268.722c-1.596-7.445-8.207-13.029-16.127-13.029c-6.423,0-11.977,3.678-14.702,9.035
		c-0.266-0.018-0.53-0.04-0.8-0.04c-6.627,0-11.999,5.372-11.999,12c0,6.607,5.34,11.965,11.938,11.998v0.003h2.062v-2h-1.604
		l-0.447-0.003c-5.485-0.027-9.948-4.513-9.948-9.998c0-5.514,4.485-10,9.999-10c0.175,0,0.347,0.014,0.52,0.025l0.148,0.01
		l1.316,0.088l0.598-1.176c2.492-4.899,7.443-7.942,12.92-7.942c6.79,0,12.75,4.814,14.172,11.448l0.317,1.482l1.514,0.095
		c4.203,0.262,7.496,3.763,7.496,7.971c0,4.397-3.565,7.977-7.957,8c-0.05-0.003-0.093-0.005-0.137-0.007l-1.043,0.007h0.137v2
		h0.863v-0.007c0.046,0.001,0.091,0.007,0.137,0.007c5.521,0,10-4.477,10-10C156.316-264.065,152.172-268.396,146.944-268.722z"/>
</g>
<g>
	<rect x="118.643" y="-377.804" width="2" height="7.973"/>
	<rect x="99.643" y="-358.89" width="7.973" height="2"/>
	<rect x="104.316" y="-370.156" transform="matrix(0.7071 0.7071 -0.7071 0.7071 -229.3118 -184.705)" width="7.974" height="2"/>
	<rect x="129.824" y="-373.138" transform="matrix(0.7071 0.7071 -0.7071 0.7071 -222.7126 -200.6289)" width="2" height="7.972"/>
	<rect x="132.643" y="-336.931" width="2" height="7"/>
	<rect x="140.643" y="-340.931" width="2" height="7"/>
	<rect x="124.643" y="-340.931" width="2" height="7"/>
	<rect x="132.643" y="-326.931" width="2" height="7"/>
	<rect x="140.643" y="-330.931" width="2" height="7"/>
	<rect x="124.643" y="-330.931" width="2" height="7"/>
	<path d="M149.154-352.014c-1.444-6.742-7.433-11.8-14.605-11.8c-2.185,0-4.258,0.47-6.126,1.313
		c-1.667-3.202-5.007-5.394-8.866-5.394c-5.522,0-10,4.477-10,9.999c0,2.46,0.899,4.702,2.373,6.442
		c-1.429,1.84-2.287,4.144-2.287,6.653c0,5.983,4.836,10.836,10.813,10.865v0.003h1.188v-2h-0.721l-0.457-0.003
		c-4.864-0.023-8.822-4.001-8.822-8.865c0-4.89,3.978-8.868,8.867-8.868c0.15,0,0.299,0.012,0.447,0.022l0.148,0.01l1.314,0.085
		l0.597-1.175c2.225-4.372,6.644-7.089,11.532-7.089c6.062,0,11.382,4.298,12.649,10.219l0.318,1.483l1.514,0.094
		c3.708,0.23,6.612,3.319,6.612,7.03c0,3.878-3.144,7.035-7.017,7.057c-0.042-0.003-0.079-0.005-0.117-0.005l-2.047,0.005h-0.819v2
		h2.819v-0.006c0.042,0.001,0.082,0.006,0.124,0.006c5.001,0,9.057-4.054,9.057-9.057
		C157.643-347.797,153.889-351.719,149.154-352.014z M121.234-355.631c-0.241-0.016-0.48-0.036-0.725-0.036
		c-2.766,0-5.282,1.041-7.2,2.743c-1.092-1.366-1.753-3.09-1.753-4.971c0-4.41,3.589-7.999,8-7.999c3.091,0,5.76,1.773,7.091,4.345
		C124.35-360.108,122.47-358.061,121.234-355.631z"/>
</g>
<g>
	<rect x="233.06" y="-338.378" width="2" height="7"/>
	<rect x="241.06" y="-342.378" width="2" height="7"/>
	<rect x="225.06" y="-342.378" width="2" height="7"/>
	<rect x="233.06" y="-328.378" width="2" height="7"/>
	<rect x="241.06" y="-332.378" width="2" height="7"/>
	<rect x="225.06" y="-332.378" width="2" height="7"/>
	<path d="M249.571-353.461c-1.444-6.742-7.433-11.8-14.605-11.8c-1.799,0-3.522,0.32-5.118,0.904
		c-0.949-5.108-5.404-8.98-10.788-8.98c-0.413,0-0.819,0.027-1.222,0.071c0.744,1.112,1.179,2.448,1.179,3.886c0,3.865-3.134,7-7,7
		c-1.438,0-2.773-0.435-3.886-1.179c-0.044,0.401-0.071,0.809-0.071,1.222c0,3.712,1.845,6.987,4.661,8.979
		c-1.653,1.907-2.661,4.389-2.661,7.111c0,5.983,4.836,10.836,10.813,10.865v0.003h1.188v-2h-0.721l-0.457-0.003
		c-4.864-0.023-8.822-4.001-8.822-8.865c0-4.89,3.978-8.868,8.867-8.868c0.15,0,0.299,0.012,0.447,0.022l0.148,0.01l1.314,0.085
		l0.597-1.175c2.225-4.372,6.644-7.089,11.532-7.089c6.062,0,11.382,4.298,12.649,10.219l0.318,1.483l1.514,0.094
		c3.708,0.23,6.612,3.319,6.612,7.03c0,3.878-3.144,7.035-7.017,7.057c-0.042-0.003-0.079-0.005-0.117-0.005l-2.047,0.005h-0.819v2
		h2.819v-0.006c0.042,0.001,0.082,0.006,0.124,0.006c5.001,0,9.057-4.054,9.057-9.057
		C258.06-349.244,254.306-353.166,249.571-353.461z M221.651-357.078c-0.241-0.016-0.48-0.036-0.725-0.036
		c-2.537,0-4.865,0.876-6.715,2.334c-2.012-1.294-3.487-3.354-3.976-5.776c0.582,0.117,1.178,0.177,1.78,0.177c4.963,0,9-4.037,9-9
		c0-0.603-0.06-1.198-0.177-1.78c3.733,0.753,6.629,3.824,7.133,7.64C225.262-362.076,223.047-359.821,221.651-357.078z"/>
</g>
<g>
	<polygon points="-74.171,-237.555 -74.171,-235.614 -74.171,-229.555 -72.171,-229.555 -72.171,-235.614 -72.171,-237.555 
		-72.171,-249.555 -74.171,-249.555 	"/>
	<polygon points="-66.171,-241.555 -66.171,-239.802 -66.171,-233.555 -64.171,-233.555 -64.171,-239.802 -64.171,-241.555 
		-64.171,-253.555 -66.171,-253.555 	"/>
	<polygon points="-82.171,-241.555 -82.171,-239.489 -82.171,-233.555 -80.171,-233.555 -80.171,-239.489 -80.171,-241.555 
		-80.171,-253.555 -82.171,-253.555 	"/>
	<rect x="-88.171" y="-288.457" width="2" height="7.973"/>
	<rect x="-107.171" y="-269.543" width="7.973" height="2"/>
	<rect x="-102.498" y="-280.809" transform="matrix(0.7071 0.7071 -0.7071 0.7071 -226.7084 -12.2967)" width="7.974" height="2"/>
	<rect x="-76.989" y="-283.791" transform="matrix(0.7071 0.7071 -0.7071 0.7071 -220.1092 -28.2207)" width="2" height="7.972"/>
	<path d="M-57.659-262.667c-1.444-6.742-7.433-11.8-14.605-11.8c-2.185,0-4.258,0.47-6.127,1.313
		c-1.666-3.202-5.006-5.394-8.865-5.394c-5.522,0-10,4.477-10,9.999c0,2.46,0.898,4.702,2.373,6.442
		c-1.428,1.84-2.287,4.144-2.287,6.653c0,5.983,4.836,10.836,10.813,10.865v0.003h1.188v-2h-0.721l-0.457-0.003
		c-4.864-0.023-8.822-4.001-8.822-8.865c0-4.89,3.978-8.868,8.867-8.868c0.15,0,0.299,0.012,0.447,0.022l0.148,0.01l1.314,0.085
		l0.597-1.175c2.225-4.372,6.644-7.089,11.532-7.089c6.062,0,11.382,4.298,12.649,10.219l0.318,1.483l1.514,0.094
		c3.708,0.23,6.612,3.319,6.612,7.03c0,3.878-3.144,7.035-7.017,7.057c-0.042-0.003-0.079-0.005-0.117-0.005l-2.047,0.005h-0.819v2
		h2.819v-0.006c0.042,0.001,0.082,0.006,0.124,0.006c5.001,0,9.057-4.054,9.057-9.057C-49.171-258.45-52.925-262.372-57.659-262.667
		z M-85.579-266.284c-0.241-0.016-0.48-0.036-0.725-0.036c-2.766,0-5.281,1.042-7.2,2.743c-1.092-1.367-1.753-3.09-1.753-4.971
		c0-4.41,3.589-7.999,8-7.999c3.092,0,5.76,1.773,7.092,4.345C-82.464-270.763-84.343-268.714-85.579-266.284z"/>
</g>
<g>
	<polygon points="26.227,-240.071 26.227,-238.131 26.227,-232.071 28.227,-232.071 28.227,-238.131 28.227,-240.071 
		28.227,-252.071 26.227,-252.071 	"/>
	<polygon points="34.227,-244.071 34.227,-242.318 34.227,-236.071 36.227,-236.071 36.227,-242.318 36.227,-244.071 
		36.227,-256.071 34.227,-256.071 	"/>
	<polygon points="18.227,-244.071 18.227,-242.006 18.227,-236.071 20.227,-236.071 20.227,-242.006 20.227,-244.071 
		20.227,-256.071 18.227,-256.071 	"/>
	<path d="M42.738-265.184c-1.444-6.742-7.433-11.8-14.605-11.8c-1.799,0-3.521,0.32-5.118,0.904
		c-0.949-5.108-5.404-8.98-10.788-8.98c-0.413,0-0.819,0.027-1.222,0.071c0.744,1.112,1.179,2.448,1.179,3.886c0,3.865-3.134,7-7,7
		c-1.438,0-2.773-0.435-3.886-1.179c-0.044,0.401-0.071,0.809-0.071,1.222c0,3.712,1.845,6.987,4.661,8.979
		c-1.653,1.907-2.661,4.389-2.661,7.111c0,5.983,4.836,10.836,10.813,10.865v0.003h1.188v-2h-0.721l-0.457-0.003
		c-4.864-0.023-8.822-4.001-8.822-8.865c0-4.89,3.978-8.868,8.867-8.868c0.15,0,0.299,0.012,0.447,0.022l0.148,0.01l1.314,0.085
		l0.597-1.175c2.225-4.372,6.644-7.089,11.532-7.089c6.062,0,11.382,4.298,12.649,10.219l0.318,1.483l1.514,0.094
		c3.708,0.23,6.612,3.319,6.612,7.03c0,3.878-3.144,7.035-7.017,7.057c-0.042-0.003-0.079-0.005-0.117-0.005l-2.047,0.005h-0.819v2
		h2.819v-0.006c0.042,0.001,0.082,0.006,0.124,0.006c5.001,0,9.057-4.054,9.057-9.057C51.227-260.967,47.473-264.889,42.738-265.184
		z M14.818-268.801c-0.241-0.016-0.48-0.036-0.725-0.036c-2.537,0-4.865,0.876-6.715,2.334c-2.012-1.294-3.486-3.354-3.976-5.776
		c0.582,0.117,1.178,0.177,1.78,0.177c4.963,0,9-4.037,9-9c0-0.603-0.06-1.198-0.177-1.78c3.733,0.753,6.629,3.824,7.134,7.641
		C18.428-273.799,16.213-271.543,14.818-268.801z"/>
</g>
<g>
	<polygon points="243.262,-239.127 236.379,-248.957 234.741,-247.81 241.624,-237.979 242.736,-236.391 246.212,-231.427 
		247.851,-232.573 244.375,-237.538 	"/>
	<polygon points="251.264,-239.129 244.379,-248.957 242.741,-247.809 249.627,-237.98 250.632,-236.545 254.216,-231.43 
		255.854,-232.576 252.271,-237.692 	"/>
	<polygon points="235.262,-239.127 228.379,-248.957 226.741,-247.809 233.624,-237.979 234.809,-236.287 238.213,-231.426 
		239.851,-232.573 236.447,-237.435 	"/>
	<rect x="222.741" y="-286.676" width="2" height="7.973"/>
	<rect x="203.741" y="-267.762" width="7.973" height="2"/>
	<rect x="208.414" y="-279.028" transform="matrix(0.7071 0.7071 -0.7071 0.7071 -134.3848 -231.6231)" width="7.974" height="2"/>
	<rect x="233.923" y="-282.01" transform="matrix(0.7071 0.7071 -0.7071 0.7071 -127.7856 -247.547)" width="2" height="7.972"/>
	<path d="M253.253-260.886c-1.444-6.742-7.433-11.8-14.605-11.8c-2.185,0-4.258,0.47-6.126,1.313
		c-1.667-3.202-5.007-5.394-8.866-5.394c-5.522,0-10,4.477-10,9.999c0,2.46,0.899,4.702,2.373,6.442
		c-1.429,1.84-2.287,4.144-2.287,6.653c0,5.983,4.836,10.836,10.813,10.865v0.003h1.188v-2h-0.721l-0.457-0.003
		c-4.864-0.023-8.822-4.001-8.822-8.865c0-4.89,3.978-8.868,8.867-8.868c0.15,0,0.299,0.012,0.447,0.022l0.148,0.01l1.314,0.085
		l0.597-1.175c2.225-4.372,6.644-7.089,11.532-7.089c6.062,0,11.382,4.298,12.649,10.219l0.318,1.483l1.514,0.094
		c3.708,0.23,6.612,3.319,6.612,7.03c0,3.878-3.144,7.035-7.017,7.057c-0.042-0.003-0.079-0.005-0.117-0.005l-0.047,0.005h-0.819v2
		h0.819v-0.006c0.042,0.001,0.082,0.006,0.124,0.006c5.001,0,9.057-4.054,9.057-9.057
		C261.741-256.669,257.987-260.591,253.253-260.886z M225.333-264.503c-0.241-0.016-0.48-0.036-0.725-0.036
		c-2.766,0-5.282,1.042-7.2,2.743c-1.092-1.367-1.753-3.09-1.753-4.971c0-4.41,3.589-7.999,8-7.999c3.091,0,5.76,1.773,7.091,4.345
		C228.448-268.981,226.568-266.933,225.333-264.503z"/>
</g>
<g>
	<polygon points="-480.169,-142.642 -487.052,-152.472 -488.689,-151.324 -481.807,-141.494 -480.694,-139.905 -477.219,-134.941 
		-475.58,-136.088 -479.056,-141.053 	"/>
	<polygon points="-472.167,-142.644 -479.052,-152.472 -480.689,-151.323 -473.804,-141.495 -472.799,-140.06 -469.215,-134.944 
		-467.576,-136.091 -471.16,-141.207 	"/>
	<polygon points="-488.169,-142.642 -495.052,-152.472 -496.689,-151.323 -489.807,-141.494 -488.622,-139.802 -485.218,-134.94 
		-483.58,-136.088 -486.983,-140.949 	"/>
	<path d="M-470.178-164.4c-1.444-6.742-7.433-11.8-14.605-11.8c-1.799,0-3.522,0.32-5.118,0.904
		c-0.949-5.108-5.404-8.98-10.788-8.98c-0.413,0-0.819,0.027-1.222,0.071c0.744,1.112,1.179,2.448,1.179,3.886c0,3.865-3.134,7-7,7
		c-1.438,0-2.773-0.435-3.886-1.179c-0.044,0.401-0.071,0.809-0.071,1.222c0,3.712,1.845,6.987,4.661,8.979
		c-1.653,1.907-2.661,4.389-2.661,7.111c0,5.983,4.836,10.836,10.813,10.865v0.003h1.188v-2h-0.721l-0.457-0.003
		c-4.864-0.023-8.822-4.001-8.822-8.865c0-4.89,3.978-8.868,8.867-8.868c0.15,0,0.299,0.012,0.447,0.022l0.148,0.01l1.314,0.085
		l0.597-1.175c2.225-4.372,6.644-7.089,11.532-7.089c6.062,0,11.382,4.298,12.649,10.219l0.318,1.483l1.514,0.094
		c3.708,0.23,6.612,3.319,6.612,7.03c0,3.878-3.144,7.035-7.017,7.057c-0.042-0.003-0.079-0.005-0.117-0.005l-0.047,0.005h-0.819v2
		h0.819v-0.006c0.042,0.001,0.082,0.006,0.124,0.006c5.001,0,9.057-4.054,9.057-9.057
		C-461.689-160.184-465.443-164.105-470.178-164.4z M-498.098-168.018c-0.241-0.016-0.48-0.036-0.725-0.036
		c-2.537,0-4.865,0.876-6.715,2.334c-2.012-1.294-3.487-3.354-3.976-5.776c0.582,0.117,1.178,0.177,1.78,0.177c4.963,0,9-4.037,9-9
		c0-0.603-0.06-1.198-0.177-1.78c3.733,0.753,6.629,3.824,7.133,7.641C-494.487-173.016-496.702-170.76-498.098-168.018z"/>
</g>
<g>
	<rect x="-487.689" y="-246.488" width="2" height="4"/>
	<rect x="-479.689" y="-250.51" width="2" height="4.021"/>
	<rect x="-495.689" y="-250.51" width="2" height="4.021"/>
	<path d="M-469.062-266.477c-1.596-7.445-8.207-13.029-16.127-13.029c-6.423,0-11.977,3.678-14.702,9.035
		c-0.266-0.018-0.53-0.04-0.8-0.04c-6.627,0-11.999,5.372-11.999,12c0,6.607,5.34,11.965,11.938,11.998v0.003h2.062v-2h-1.604
		l-0.447-0.003c-5.485-0.027-9.948-4.513-9.948-9.998c0-5.514,4.485-10,9.999-10c0.175,0,0.347,0.014,0.52,0.025l0.148,0.01
		l1.316,0.088l0.598-1.176c2.492-4.899,7.443-7.942,12.92-7.942c6.79,0,12.75,4.814,14.172,11.448l0.317,1.482l1.514,0.095
		c4.203,0.262,7.496,3.763,7.496,7.971c0,4.397-3.565,7.977-7.957,8c-0.05-0.003-0.093-0.005-0.137-0.007l-2.043,0.007h-2.863v2
		h4.863v-0.007c0.046,0.001,0.091,0.007,0.137,0.007c5.521,0,10-4.477,10-10C-459.689-261.82-463.834-266.151-469.062-266.477z"/>
	<circle cx="-478.689" cy="-241.468" r="1.5"/>
	<circle cx="-486.689" cy="-237.499" r="1.5"/>
	<circle cx="-494.689" cy="-241.51" r="1.5"/>
</g>
<g>
	<rect x="-394.769" y="-285.942" width="2" height="7.973"/>
	<rect x="-413.769" y="-267.028" width="7.973" height="2"/>
	<rect x="-409.096" y="-278.295" transform="matrix(0.7071 0.7071 -0.7071 0.7071 -314.7306 205.2371)" width="7.974" height="2"/>
	<rect x="-383.587" y="-281.277" transform="matrix(0.7071 0.7071 -0.7071 0.7071 -308.1315 189.3131)" width="2" height="7.972"/>
	<path d="M-364.257-260.152c-1.444-6.742-7.433-11.8-14.605-11.8c-2.185,0-4.258,0.47-6.126,1.313
		c-1.667-3.202-5.007-5.394-8.866-5.394c-5.522,0-10,4.477-10,9.999c0,2.46,0.899,4.702,2.373,6.442
		c-1.429,1.84-2.287,4.144-2.287,6.653c0,5.983,4.836,10.836,10.813,10.865v0.003h1.188v-2h-0.721l-0.457-0.003
		c-4.864-0.023-8.822-4.001-8.822-8.865c0-4.89,3.978-8.868,8.867-8.868c0.15,0,0.299,0.012,0.447,0.022l0.148,0.01l1.314,0.085
		l0.597-1.175c2.225-4.372,6.644-7.089,11.532-7.089c6.062,0,11.382,4.298,12.649,10.219l0.318,1.483l1.514,0.094
		c3.708,0.23,6.612,3.319,6.612,7.03c0,3.878-3.144,7.035-7.017,7.057c-0.042-0.003-0.079-0.005-0.117-0.005l-2.047,0.005h-0.819v2
		h2.819v-0.006c0.042,0.001,0.082,0.006,0.124,0.006c5.001,0,9.057-4.054,9.057-9.057
		C-355.769-255.936-359.522-259.857-364.257-260.152z M-392.177-263.77c-0.241-0.016-0.48-0.036-0.725-0.036
		c-2.766,0-5.282,1.042-7.2,2.743c-1.092-1.367-1.753-3.09-1.753-4.971c0-4.41,3.589-7.999,8-7.999c3.091,0,5.76,1.773,7.091,4.345
		C-389.062-268.248-390.941-266.199-392.177-263.77z"/>
	<rect x="-380.769" y="-242.054" width="2" height="4"/>
	<rect x="-372.769" y="-246.075" width="2" height="4.021"/>
	<rect x="-388.769" y="-246.075" width="2" height="4.021"/>
	<circle cx="-371.769" cy="-237.033" r="1.5"/>
	<circle cx="-379.769" cy="-233.064" r="1.5"/>
	<circle cx="-387.769" cy="-237.075" r="1.5"/>
</g>
<g>
	<path d="M-263.331-261.109c-1.444-6.742-7.433-11.8-14.605-11.8c-1.799,0-3.522,0.32-5.118,0.904
		c-0.949-5.108-5.404-8.98-10.788-8.98c-0.413,0-0.819,0.027-1.222,0.071c0.744,1.112,1.179,2.448,1.179,3.886c0,3.865-3.134,7-7,7
		c-1.438,0-2.773-0.435-3.886-1.179c-0.044,0.401-0.071,0.809-0.071,1.222c0,3.712,1.845,6.987,4.661,8.979
		c-1.653,1.907-2.661,4.389-2.661,7.111c0,5.983,4.836,10.836,10.813,10.865v0.003h1.188v-2h-0.721l-0.457-0.003
		c-4.864-0.023-8.822-4.001-8.822-8.865c0-4.89,3.978-8.868,8.867-8.868c0.15,0,0.299,0.012,0.447,0.022l0.148,0.01l1.314,0.085
		l0.597-1.175c2.225-4.372,6.644-7.089,11.532-7.089c6.062,0,11.382,4.298,12.649,10.219l0.318,1.483l1.514,0.094
		c3.708,0.23,6.612,3.319,6.612,7.03c0,3.878-3.144,7.035-7.017,7.057c-0.042-0.003-0.079-0.005-0.117-0.005l-2.047,0.005h-0.819v2
		h2.819v-0.006c0.042,0.001,0.082,0.006,0.124,0.006c5.001,0,9.057-4.054,9.057-9.057
		C-254.843-256.893-258.597-260.814-263.331-261.109z M-291.251-264.727c-0.241-0.016-0.48-0.036-0.725-0.036
		c-2.537,0-4.865,0.876-6.715,2.334c-2.012-1.294-3.487-3.354-3.976-5.776c0.582,0.117,1.178,0.177,1.78,0.177c4.963,0,9-4.037,9-9
		c0-0.603-0.06-1.198-0.177-1.78c3.733,0.753,6.629,3.824,7.133,7.641C-287.641-269.725-289.855-267.469-291.251-264.727z"/>
	<rect x="-279.843" y="-243.011" width="2" height="4"/>
	<rect x="-271.843" y="-247.032" width="2" height="4.021"/>
	<rect x="-287.843" y="-247.032" width="2" height="4.021"/>
	<circle cx="-270.843" cy="-237.99" r="1.5"/>
	<circle cx="-278.843" cy="-234.021" r="1.5"/>
	<circle cx="-286.843" cy="-238.032" r="1.5"/>
</g>
<g>
	<path d="M-366.641-168.079c-1.596-7.445-8.207-13.029-16.127-13.029c-6.423,0-11.977,3.678-14.702,9.035
		c-0.266-0.018-0.53-0.04-0.8-0.04c-6.627,0-11.999,5.372-11.999,12c0,6.607,5.34,11.965,11.938,11.998v0.003h6.062v-2h-5.604
		l-0.447-0.003c-5.485-0.027-9.948-4.513-9.948-9.998c0-5.514,4.485-10,9.999-10c0.175,0,0.347,0.014,0.52,0.025l0.148,0.01
		l1.316,0.088l0.598-1.176c2.492-4.899,7.443-7.942,12.92-7.942c6.79,0,12.75,4.814,14.172,11.448l0.317,1.482l1.514,0.095
		c4.203,0.262,7.496,3.763,7.496,7.971c0,4.397-3.565,7.977-7.957,8c-0.05-0.003-0.093-0.005-0.137-0.007l-5.043,0.007h0.137v2
		h4.863v-0.007c0.046,0.001,0.091,0.007,0.137,0.007c5.521,0,10-4.477,10-10C-357.269-163.423-361.413-167.754-366.641-168.079z"/>
	<polygon points="-382.427,-148.108 -380.657,-148.108 -380.227,-148.108 -378.217,-148.108 -384.631,-157.27 -386.269,-156.122 
		-382.058,-150.108 -383.828,-150.108 -386.269,-150.108 -384.997,-148.292 -383.885,-146.703 -377.907,-138.108 -376.269,-139.255 
		-382.246,-147.851 	"/>
</g>
<g>
	<rect x="-290.843" y="-187.209" width="2" height="7.973"/>
	<rect x="-309.843" y="-168.295" width="7.973" height="2"/>
	<rect x="-305.17" y="-179.561" transform="matrix(0.7071 0.7071 -0.7071 0.7071 -214.4764 160.6688)" width="7.974" height="2"/>
	<rect x="-279.661" y="-182.543" transform="matrix(0.7071 0.7071 -0.7071 0.7071 -207.8773 144.7448)" width="2" height="7.972"/>
	<path d="M-260.331-161.419c-1.444-6.742-7.433-11.8-14.605-11.8c-2.185,0-4.258,0.47-6.127,1.313
		c-1.666-3.202-5.006-5.394-8.865-5.394c-5.522,0-10,4.477-10,9.999c0,2.46,0.898,4.702,2.373,6.442
		c-1.428,1.84-2.287,4.144-2.287,6.653c0,5.983,4.836,10.836,10.813,10.865v0.003h4.188v-2h-3.721l-0.457-0.003
		c-4.864-0.023-8.822-4.001-8.822-8.865c0-4.89,3.978-8.868,8.867-8.868c0.15,0,0.299,0.012,0.447,0.022l0.148,0.01l1.314,0.085
		l0.597-1.175c2.225-4.372,6.644-7.089,11.532-7.089c6.062,0,11.382,4.298,12.649,10.219l0.318,1.483l1.514,0.094
		c3.708,0.23,6.612,3.319,6.612,7.03c0,3.878-3.144,7.035-7.017,7.057c-0.042-0.003-0.079-0.005-0.117-0.005l-2.047,0.005h-3.819v2
		h5.819v-0.006c0.042,0.001,0.082,0.006,0.124,0.006c5.001,0,9.057-4.054,9.057-9.057
		C-251.843-157.202-255.597-161.124-260.331-161.419z M-288.251-165.036c-0.241-0.016-0.48-0.036-0.725-0.036
		c-2.766,0-5.281,1.041-7.2,2.743c-1.092-1.366-1.753-3.09-1.753-4.971c0-4.41,3.589-7.999,8-7.999c3.092,0,5.76,1.773,7.092,4.345
		C-285.136-169.514-287.015-167.466-288.251-165.036z"/>
	<polygon points="-276.001,-143.329 -274.231,-143.329 -273.801,-143.329 -271.791,-143.329 -278.205,-152.49 -279.843,-151.343 
		-275.632,-145.329 -277.402,-145.329 -279.843,-145.329 -278.571,-143.513 -277.459,-141.924 -271.481,-133.329 -269.843,-134.476 
		-275.82,-143.071 	"/>
</g>
<g>
	<path d="M-160.746-163.715c-1.444-6.742-7.433-11.8-14.605-11.8c-1.799,0-3.521,0.32-5.118,0.904
		c-0.949-5.108-5.404-8.98-10.788-8.98c-0.413,0-0.819,0.027-1.222,0.071c0.744,1.112,1.179,2.448,1.179,3.886c0,3.865-3.134,7-7,7
		c-1.438,0-2.773-0.435-3.886-1.179c-0.044,0.401-0.071,0.809-0.071,1.222c0,3.712,1.845,6.987,4.661,8.979
		c-1.653,1.907-2.661,4.389-2.661,7.111c0,5.983,4.836,10.836,10.813,10.865v0.003h4.188v-2h-3.721l-0.457-0.003
		c-4.864-0.023-8.822-4.001-8.822-8.865c0-4.89,3.978-8.868,8.867-8.868c0.15,0,0.299,0.012,0.447,0.022l0.148,0.01l1.314,0.085
		l0.597-1.175c2.225-4.372,6.644-7.089,11.532-7.089c6.062,0,11.382,4.298,12.649,10.219l0.318,1.483l1.514,0.094
		c3.708,0.23,6.612,3.319,6.612,7.03c0,3.878-3.144,7.035-7.017,7.057c-0.042-0.003-0.079-0.005-0.117-0.005l-2.047,0.005h-3.819v2
		h5.819v-0.006c0.042,0.001,0.082,0.006,0.124,0.006c5.001,0,9.057-4.054,9.057-9.057
		C-152.258-159.498-156.012-163.42-160.746-163.715z M-188.666-167.332c-0.241-0.016-0.48-0.036-0.725-0.036
		c-2.537,0-4.865,0.876-6.715,2.334c-2.012-1.294-3.486-3.354-3.976-5.776c0.582,0.117,1.178,0.177,1.78,0.177c4.963,0,9-4.037,9-9
		c0-0.603-0.06-1.198-0.177-1.78c3.733,0.753,6.629,3.824,7.134,7.64C-185.057-172.33-187.271-170.075-188.666-167.332z"/>
	<polygon points="-176.416,-145.625 -174.646,-145.625 -174.216,-145.625 -172.206,-145.625 -178.62,-154.786 -180.258,-153.639 
		-176.047,-147.625 -177.817,-147.625 -180.258,-147.625 -178.986,-145.809 -177.874,-144.22 -171.896,-135.625 -170.258,-136.771 
		-176.235,-145.367 	"/>
</g>
<g>
	<path d="M-59.861-167.579c-1.596-7.445-8.207-13.029-16.127-13.029c-6.423,0-11.977,3.678-14.702,9.035
		c-0.266-0.018-0.53-0.04-0.8-0.04c-6.627,0-11.999,5.372-11.999,12c0,6.607,5.34,11.965,11.938,11.998v0.003h1.062v-2h-0.604
		l-0.447-0.003c-5.485-0.027-9.948-4.513-9.948-9.998c0-5.514,4.485-10,9.999-10c0.175,0,0.347,0.014,0.52,0.025l0.148,0.01
		l1.316,0.088l0.598-1.176c2.492-4.899,7.443-7.942,12.92-7.942c6.79,0,12.75,4.814,14.172,11.448l0.317,1.482l1.514,0.095
		c4.203,0.262,7.496,3.763,7.496,7.971c0,4.397-3.565,7.977-7.957,8c-0.05-0.003-0.093-0.005-0.137-0.007l-0.906,0.007v2h0.863
		v-0.007c0.046,0.001,0.091,0.007,0.137,0.007c5.521,0,10-4.477,10-10C-50.489-162.923-54.634-167.254-59.861-167.579z"/>
	
		<rect x="-91.055" y="-149.614" transform="matrix(-0.5736 -0.8191 0.8191 -0.5736 -12.7568 -303.8697)" width="11.183" height="1.999"/>
	
		<rect x="-73.08" y="-149.614" transform="matrix(-0.5736 -0.8191 0.8191 -0.5736 15.5287 -289.1465)" width="11.183" height="1.999"/>
	<polygon points="-74.647,-144.608 -72.878,-144.608 -72.447,-144.608 -70.438,-144.608 -76.852,-153.77 -78.489,-152.622 
		-74.278,-146.608 -76.049,-146.608 -78.489,-146.608 -77.218,-144.792 -76.105,-143.203 -71.489,-136.608 -69.851,-137.755 
		-74.467,-144.351 	"/>
</g>
<g>
	<rect x="14.986" y="-187.046" width="2" height="7.973"/>
	<rect x="-4.014" y="-168.132" width="7.973" height="2"/>
	<rect x="0.659" y="-179.398" transform="matrix(0.7071 0.7071 -0.7071 0.7071 -124.7858 -55.5373)" width="7.974" height="2"/>
	<rect x="26.168" y="-182.38" transform="matrix(0.7071 0.7071 -0.7071 0.7071 -118.1867 -71.4612)" width="2" height="7.972"/>
	<path d="M45.498-161.256c-1.444-6.742-7.433-11.8-14.605-11.8c-2.185,0-4.258,0.47-6.126,1.313
		c-1.667-3.202-5.007-5.394-8.866-5.394c-5.522,0-10,4.477-10,9.999c0,2.46,0.899,4.702,2.373,6.442
		c-1.429,1.84-2.287,4.144-2.287,6.653c0,5.983,4.836,10.836,10.813,10.865v0.003h0.188v-2l-0.178-0.003
		c-4.864-0.023-8.822-4.001-8.822-8.865c0-4.89,3.978-8.868,8.867-8.868c0.15,0,0.299,0.012,0.447,0.022l0.148,0.01l1.314,0.085
		l0.597-1.175c2.225-4.372,6.644-7.089,11.532-7.089c6.062,0,11.382,4.298,12.649,10.219l0.318,1.483l1.514,0.094
		c3.708,0.23,6.612,3.319,6.612,7.03c0,3.878-3.144,7.035-7.017,7.057c-0.042-0.003-0.079-0.005-0.117-0.005l-0.866,0.005v2h0.819
		v-0.006c0.042,0.001,0.082,0.006,0.124,0.006c5.001,0,9.057-4.054,9.057-9.057C53.986-157.039,50.232-160.961,45.498-161.256z
		 M17.578-164.873c-0.241-0.016-0.48-0.036-0.725-0.036c-2.766,0-5.282,1.042-7.2,2.743c-1.092-1.367-1.753-3.09-1.753-4.971
		c0-4.41,3.589-7.999,8-7.999c3.091,0,5.76,1.773,7.091,4.345C20.693-169.352,18.813-167.303,17.578-164.873z"/>
	
		<rect x="15.408" y="-145.176" transform="matrix(-0.5736 -0.8191 0.8191 -0.5736 151.1417 -209.6804)" width="11.183" height="1.999"/>
	
		<rect x="33.383" y="-145.176" transform="matrix(-0.5736 -0.8191 0.8191 -0.5736 179.4272 -194.9572)" width="11.183" height="1.999"/>
	<polygon points="31.815,-140.17 33.585,-140.17 34.016,-140.17 36.025,-140.17 29.611,-149.331 27.974,-148.184 32.185,-142.17 
		30.414,-142.17 27.974,-142.17 29.245,-140.354 30.357,-138.765 34.974,-132.17 36.612,-133.316 31.996,-139.912 	"/>
</g>
<g>
	<path d="M147.336-164.214c-1.444-6.742-7.433-11.8-14.605-11.8c-1.799,0-3.522,0.32-5.118,0.904
		c-0.949-5.108-5.404-8.98-10.788-8.98c-0.413,0-0.819,0.027-1.222,0.071c0.744,1.112,1.179,2.448,1.179,3.886c0,3.865-3.134,7-7,7
		c-1.438,0-2.773-0.435-3.886-1.179c-0.044,0.401-0.071,0.809-0.071,1.222c0,3.712,1.845,6.987,4.661,8.979
		c-1.653,1.907-2.661,4.389-2.661,7.111c0,5.983,4.836,10.836,10.813,10.865v0.003h0.188v-2l-0.178-0.003
		c-4.864-0.023-8.822-4.001-8.822-8.865c0-4.89,3.978-8.868,8.867-8.868c0.15,0,0.299,0.012,0.447,0.022l0.148,0.01l1.314,0.085
		l0.597-1.175c2.225-4.372,6.644-7.089,11.532-7.089c6.062,0,11.382,4.298,12.649,10.219l0.318,1.483l1.514,0.094
		c3.708,0.23,6.612,3.319,6.612,7.03c0,3.878-3.144,7.035-7.017,7.057c-0.042-0.003-0.079-0.005-0.117-0.005l-0.866,0.005v2h0.819
		v-0.006c0.042,0.001,0.082,0.006,0.124,0.006c5.001,0,9.057-4.054,9.057-9.057C155.824-159.997,152.07-163.919,147.336-164.214z
		 M119.416-167.831c-0.241-0.016-0.48-0.036-0.725-0.036c-2.537,0-4.865,0.876-6.715,2.334c-2.012-1.294-3.487-3.354-3.976-5.776
		c0.582,0.117,1.178,0.177,1.78,0.177c4.963,0,9-4.037,9-9c0-0.603-0.06-1.198-0.177-1.78c3.733,0.753,6.629,3.824,7.133,7.641
		C123.026-172.829,120.812-170.573,119.416-167.831z"/>
	
		<rect x="117.245" y="-148.134" transform="matrix(-0.5736 -0.8191 0.8191 -0.5736 313.8191 -130.9197)" width="11.183" height="1.999"/>
	
		<rect x="135.219" y="-148.134" transform="matrix(-0.5736 -0.8191 0.8191 -0.5736 342.1046 -116.1966)" width="11.183" height="1.999"/>
	<polygon points="133.652,-143.128 135.422,-143.128 135.853,-143.128 137.862,-143.128 131.448,-152.289 129.811,-151.142 
		134.021,-145.128 132.251,-145.128 129.811,-145.128 131.082,-143.312 132.194,-141.723 136.811,-135.128 138.449,-136.274 
		133.833,-142.87 	"/>
</g>
<g>
	<g>
		<path d="M-263.227-77.759c-1.596-7.445-8.207-13.029-16.127-13.029c-6.423,0-11.977,3.678-14.702,9.035
			c-0.266-0.018-0.53-0.04-0.8-0.04c-6.627,0-11.999,5.372-11.999,12c0,6.607,5.34,11.965,11.938,11.998v0.003h2.062v-2h-1.604
			l-0.447-0.003c-5.485-0.027-9.948-4.513-9.948-9.998c0-5.514,4.485-10,9.999-10c0.175,0,0.347,0.014,0.52,0.025l0.148,0.01
			l1.316,0.088l0.598-1.176c2.492-4.899,7.443-7.942,12.92-7.942c6.79,0,12.75,4.814,14.172,11.448l0.317,1.482l1.514,0.095
			c4.203,0.262,7.496,3.763,7.496,7.971c0,4.397-3.565,7.977-7.957,8c-0.05-0.003-0.093-0.005-0.137-0.007l-2.043,0.007h-2.863v2
			h4.863v-0.007c0.046,0.001,0.091,0.007,0.137,0.007c5.521,0,10-4.477,10-10C-253.854-73.103-257.999-77.434-263.227-77.759z"/>
	</g>
	<g>
		<circle cx="-288.354" cy="-64.216" r="1.5"/>
	</g>
	<g>
		<circle cx="-284.354" cy="-58.292" r="1.5"/>
	</g>
	<g>
		<circle cx="-276.354" cy="-58.292" r="1.5"/>
	</g>
	<g>
		<circle cx="-280.354" cy="-64.216" r="1.5"/>
	</g>
	<g>
		<circle cx="-272.354" cy="-64.216" r="1.5"/>
	</g>
	<g>
		<circle cx="-288.354" cy="-52.271" r="1.5"/>
	</g>
	<g>
		<circle cx="-280.354" cy="-52.271" r="1.5"/>
	</g>
	<g>
		<circle cx="-272.354" cy="-52.271" r="1.5"/>
	</g>
</g>
<g>
	<g>
		<rect x="-187.44" y="-93.236" width="2" height="7.973"/>
	</g>
	<g>
		<rect x="-206.44" y="-74.322" width="7.973" height="2"/>
	</g>
	<g>
		<rect x="-201.767" y="-85.589" transform="matrix(0.7071 0.7071 -0.7071 0.7071 -117.7419 115.0763)" width="7.974" height="2"/>
	</g>
	<g>
		<rect x="-176.259" y="-88.571" transform="matrix(0.7071 0.7071 -0.7071 0.7071 -111.1427 99.1523)" width="2" height="7.972"/>
	</g>
	<g>
		<path d="M-156.929-67.446c-1.444-6.742-7.433-11.8-14.605-11.8c-2.185,0-4.258,0.47-6.127,1.313
			c-1.666-3.202-5.006-5.394-8.865-5.394c-5.522,0-10,4.477-10,9.999c0,2.46,0.898,4.702,2.373,6.442
			c-1.428,1.84-2.287,4.144-2.287,6.653c0,5.983,4.836,10.836,10.813,10.865v0.003h1.188v-2h-0.721l-0.457-0.003
			c-4.864-0.023-8.822-4.001-8.822-8.865c0-4.89,3.978-8.868,8.867-8.868c0.15,0,0.299,0.012,0.447,0.022l0.148,0.01l1.314,0.085
			l0.597-1.175c2.225-4.372,6.644-7.089,11.532-7.089c6.062,0,11.382,4.298,12.649,10.219l0.318,1.483l1.514,0.094
			c3.708,0.23,6.612,3.319,6.612,7.03c0,3.878-3.144,7.035-7.017,7.057c-0.042-0.003-0.079-0.005-0.117-0.005l-2.047,0.005h-1.819v2
			h3.819v-0.006c0.042,0.001,0.082,0.006,0.124,0.006c5.001,0,9.057-4.054,9.057-9.057
			C-148.44-63.229-152.194-67.151-156.929-67.446z M-184.849-71.063c-0.241-0.016-0.48-0.036-0.725-0.036
			c-2.766,0-5.281,1.042-7.2,2.743c-1.092-1.367-1.753-3.09-1.753-4.971c0-4.41,3.589-7.999,8-7.999c3.092,0,5.76,1.773,7.092,4.345
			C-181.733-75.542-183.612-73.493-184.849-71.063z"/>
	</g>
	<g>
		<circle cx="-180.951" cy="-55.853" r="1.5"/>
	</g>
	<g>
		<circle cx="-176.951" cy="-49.853" r="1.5"/>
	</g>
	<g>
		<circle cx="-168.951" cy="-49.853" r="1.5"/>
	</g>
	<g>
		<circle cx="-172.951" cy="-55.853" r="1.5"/>
	</g>
	<g>
		<circle cx="-164.951" cy="-55.853" r="1.5"/>
	</g>
	<g>
		<circle cx="-180.951" cy="-43.831" r="1.5"/>
	</g>
	<g>
		<circle cx="-172.951" cy="-43.831" r="1.5"/>
	</g>
	<g>
		<circle cx="-164.951" cy="-43.831" r="1.5"/>
	</g>
</g>
<g>
	<g>
		<path d="M-60.978-71.402c-1.444-6.742-7.433-11.8-14.605-11.8c-1.799,0-3.521,0.32-5.118,0.904
			c-0.949-5.108-5.404-8.98-10.788-8.98c-0.413,0-0.819,0.027-1.222,0.071c0.744,1.112,1.179,2.448,1.179,3.886c0,3.865-3.134,7-7,7
			c-1.438,0-2.773-0.435-3.886-1.179c-0.044,0.401-0.071,0.809-0.071,1.222c0,3.712,1.845,6.987,4.661,8.979
			c-1.653,1.907-2.661,4.389-2.661,7.111c0,5.983,4.836,10.836,10.813,10.865v0.003h1.188v-2h-0.721l-0.457-0.003
			c-4.864-0.023-8.822-4.001-8.822-8.865c0-4.89,3.978-8.868,8.867-8.868c0.15,0,0.299,0.012,0.447,0.022l0.148,0.01l1.314,0.085
			l0.597-1.175c2.225-4.372,6.644-7.089,11.532-7.089c6.062,0,11.382,4.298,12.649,10.219l0.318,1.483l1.514,0.094
			c3.708,0.23,6.612,3.319,6.612,7.03c0,3.878-3.144,7.035-7.017,7.057c-0.042-0.003-0.079-0.005-0.117-0.005l-2.047,0.005h-1.819v2
			h3.819v-0.006c0.042,0.001,0.082,0.006,0.124,0.006c5.001,0,9.057-4.054,9.057-9.057C-52.489-67.186-56.243-71.107-60.978-71.402z
			 M-88.897-75.02c-0.241-0.016-0.48-0.036-0.725-0.036c-2.537,0-4.865,0.876-6.715,2.334c-2.012-1.294-3.486-3.354-3.976-5.776
			c0.582,0.117,1.178,0.177,1.78,0.177c4.963,0,9-4.037,9-9c0-0.603-0.06-1.198-0.177-1.78c3.733,0.753,6.629,3.824,7.134,7.64
			C-85.288-80.018-87.503-77.763-88.897-75.02z"/>
	</g>
	<g>
		<circle cx="-84.989" cy="-59.81" r="1.5"/>
	</g>
	<g>
		<circle cx="-80.989" cy="-53.81" r="1.5"/>
	</g>
	<g>
		<circle cx="-72.989" cy="-53.81" r="1.5"/>
	</g>
	<g>
		<circle cx="-76.989" cy="-59.81" r="1.5"/>
	</g>
	<g>
		<circle cx="-68.989" cy="-59.81" r="1.5"/>
	</g>
	<g>
		<circle cx="-84.989" cy="-47.788" r="1.5"/>
	</g>
	<g>
		<circle cx="-76.989" cy="-47.788" r="1.5"/>
	</g>
	<g>
		<circle cx="-68.989" cy="-47.788" r="1.5"/>
	</g>
</g>
<g>
	<path d="M250.188-170.288c-1.596-7.445-8.207-13.029-16.127-13.029c-6.423,0-11.977,3.678-14.702,9.035
		c-0.266-0.018-0.53-0.04-0.8-0.04c-6.627,0-11.999,5.372-11.999,12c0,6.607,5.34,11.965,11.938,11.998v0.003h2.062v-2h-1.604
		l-0.447-0.003c-5.485-0.027-9.948-4.513-9.948-9.998c0-5.514,4.485-10,9.999-10c0.175,0,0.347,0.014,0.52,0.025l0.148,0.01
		l1.316,0.088l0.598-1.176c2.492-4.899,7.443-7.942,12.92-7.942c6.79,0,12.75,4.814,14.172,11.448l0.317,1.482l1.514,0.095
		c4.203,0.262,7.496,3.763,7.496,7.971c0,4.397-3.565,7.977-7.957,8c-0.05-0.003-0.093-0.005-0.137-0.007l-2.043,0.007h-2.863v2
		h4.863v-0.007c0.046,0.001,0.091,0.007,0.137,0.007c5.521,0,10-4.477,10-10C259.56-165.632,255.415-169.963,250.188-170.288z"/>
	<circle cx="224.56" cy="-142.817" r="1.5"/>
	<circle cx="232.56" cy="-136.817" r="1.5"/>
	<circle cx="240.56" cy="-140.817" r="1.5"/>
	<rect x="223.56" y="-159.293" width="2" height="11.976"/>
	<polygon points="233.56,-141.353 233.56,-143.293 233.56,-155.293 231.56,-155.293 231.56,-143.293 231.56,-141.353 
		231.56,-141.317 233.56,-141.317 	"/>
	<polygon points="241.56,-145.54 241.56,-147.293 241.56,-159.293 239.56,-159.293 239.56,-147.293 239.56,-145.54 239.56,-145.317 
		241.56,-145.317 	"/>
</g>
<g>
	<rect x="-498.189" y="-98.675" width="2" height="7.973"/>
	<rect x="-517.189" y="-79.761" width="7.973" height="2"/>
	<rect x="-512.516" y="-91.027" transform="matrix(0.7071 0.7071 -0.7071 0.7071 -212.6037 333.2161)" width="7.974" height="2"/>
	<rect x="-487.008" y="-94.009" transform="matrix(0.7071 0.7071 -0.7071 0.7071 -206.0046 317.2922)" width="2" height="7.972"/>
	<path d="M-467.678-72.885c-1.444-6.742-7.433-11.8-14.605-11.8c-2.185,0-4.258,0.47-6.126,1.313
		c-1.667-3.202-5.007-5.394-8.866-5.394c-5.522,0-10,4.477-10,9.999c0,2.46,0.899,4.702,2.373,6.442
		c-1.429,1.84-2.287,4.144-2.287,6.653c0,5.983,4.836,10.836,10.813,10.865v0.003h1.188v-2h-0.721l-0.457-0.003
		c-4.864-0.023-8.822-4.001-8.822-8.865c0-4.89,3.978-8.868,8.867-8.868c0.15,0,0.299,0.012,0.447,0.022l0.148,0.01l1.314,0.085
		l0.597-1.175c2.225-4.372,6.644-7.089,11.532-7.089c6.062,0,11.382,4.298,12.649,10.219l0.318,1.483l1.514,0.094
		c3.708,0.23,6.612,3.319,6.612,7.03c0,3.878-3.144,7.035-7.017,7.057c-0.042-0.003-0.079-0.005-0.117-0.005l-2.047,0.005h-0.819v2
		h2.819v-0.006c0.042,0.001,0.082,0.006,0.124,0.006c5.001,0,9.057-4.054,9.057-9.057C-459.189-68.668-462.943-72.59-467.678-72.885
		z M-495.598-76.502c-0.241-0.016-0.48-0.036-0.725-0.036c-2.766,0-5.282,1.041-7.2,2.743c-1.092-1.366-1.753-3.09-1.753-4.971
		c0-4.41,3.589-7.999,8-7.999c3.091,0,5.76,1.773,7.091,4.345C-492.482-80.979-494.362-78.932-495.598-76.502z"/>
	<circle cx="-491.199" cy="-46.314" r="1.5"/>
	<circle cx="-483.199" cy="-40.314" r="1.5"/>
	<circle cx="-475.199" cy="-44.314" r="1.5"/>
	<rect x="-492.199" y="-62.79" width="2" height="11.976"/>
	<polygon points="-482.199,-44.85 -482.199,-46.79 -482.199,-58.79 -484.199,-58.79 -484.199,-46.79 -484.199,-44.85 
		-484.199,-44.814 -482.199,-44.814 	"/>
	<polygon points="-474.199,-49.037 -474.199,-50.79 -474.199,-62.79 -476.199,-62.79 -476.199,-50.79 -476.199,-49.037 
		-476.199,-48.814 -474.199,-48.814 	"/>
</g>
<g>
	<path d="M-367.075-75.883c-1.444-6.742-7.433-11.8-14.605-11.8c-1.799,0-3.522,0.32-5.118,0.904
		c-0.949-5.108-5.404-8.98-10.788-8.98c-0.413,0-0.819,0.027-1.222,0.071c0.744,1.112,1.179,2.448,1.179,3.886c0,3.865-3.134,7-7,7
		c-1.438,0-2.773-0.435-3.886-1.179c-0.044,0.401-0.071,0.809-0.071,1.222c0,3.712,1.845,6.987,4.661,8.979
		c-1.653,1.907-2.661,4.389-2.661,7.111c0,5.983,4.836,10.836,10.813,10.865v0.003h1.188v-2h-0.721l-0.457-0.003
		c-4.864-0.023-8.822-4.001-8.822-8.865c0-4.89,3.978-8.868,8.867-8.868c0.15,0,0.299,0.012,0.447,0.022l0.148,0.01l1.314,0.085
		l0.597-1.175c2.225-4.372,6.644-7.089,11.532-7.089c6.062,0,11.382,4.298,12.649,10.219l0.318,1.483l1.514,0.094
		c3.708,0.23,6.612,3.319,6.612,7.03c0,3.878-3.144,7.035-7.017,7.057c-0.042-0.003-0.079-0.005-0.117-0.005l-2.047,0.005h-0.819v2
		h2.819v-0.006c0.042,0.001,0.082,0.006,0.124,0.006c5.001,0,9.057-4.054,9.057-9.057
		C-358.587-71.666-362.341-75.588-367.075-75.883z M-394.995-79.5c-0.241-0.016-0.48-0.036-0.725-0.036
		c-2.537,0-4.865,0.876-6.715,2.334c-2.012-1.294-3.487-3.354-3.976-5.776c0.582,0.117,1.178,0.177,1.78,0.177c4.963,0,9-4.037,9-9
		c0-0.603-0.06-1.198-0.177-1.78c3.733,0.753,6.629,3.824,7.133,7.64C-391.385-84.498-393.6-82.243-394.995-79.5z"/>
	<circle cx="-390.587" cy="-49.309" r="1.5"/>
	<circle cx="-382.587" cy="-43.309" r="1.5"/>
	<circle cx="-374.587" cy="-47.309" r="1.5"/>
	<rect x="-391.587" y="-65.784" width="2" height="11.976"/>
	<polygon points="-381.587,-47.844 -381.587,-49.784 -381.587,-61.784 -383.587,-61.784 -383.587,-49.784 -383.587,-47.844 
		-383.587,-47.809 -381.587,-47.809 	"/>
	<polygon points="-373.587,-52.031 -373.587,-53.784 -373.587,-65.784 -375.587,-65.784 -375.587,-53.784 -375.587,-52.031 
		-375.587,-51.809 -373.587,-51.809 	"/>
</g>
<g>
	<rect x="-515.189" y="28.558" width="56" height="2"/>
	<rect x="-511.189" y="34.558" width="50" height="2"/>
	<rect x="-505.189" y="40.558" width="36" height="2"/>
	<rect x="-513.189" y="22.558" width="52" height="2"/>
	<path d="M-501.315,14.553c0.175,0,0.347,0.014,0.519,0.025l0.149,0.01l1.316,0.088l0.598-1.176
		c2.493-4.899,7.443-7.942,12.92-7.942c6.79,0,12.75,4.814,14.171,11.448l0.318,1.482l1.514,0.095
		c1.207,0.075,2.335,0.425,3.336,0.975h3.286c-1.678-1.703-3.957-2.813-6.498-2.971c-1.596-7.445-8.207-13.029-16.127-13.029
		c-6.423,0-11.977,3.678-14.702,9.035c-0.266-0.018-0.53-0.04-0.8-0.04c-4.843,0-9.004,2.874-10.9,7.005h2.251
		C-508.233,16.571-505.009,14.553-501.315,14.553z"/>
</g>
<g>
	<rect x="-394.087" y="1.043" width="2" height="7.973"/>
	<rect x="-413.087" y="19.957" width="7.973" height="2"/>
	<rect x="-408.414" y="8.691" transform="matrix(0.7071 0.7071 -0.7071 0.7071 -111.6017 288.8112)" width="7.974" height="2"/>
	<rect x="-382.905" y="5.709" transform="matrix(0.7071 0.7071 -0.7071 0.7071 -105.0026 272.8872)" width="2" height="7.972"/>
	<rect x="-404.087" y="34.917" width="50" height="2"/>
	<rect x="-400.087" y="40.917" width="44" height="2"/>
	<rect x="-394.087" y="45.917" width="30" height="2"/>
	<rect x="-402.087" y="28.917" width="46" height="2"/>
	<path d="M-401.179,26.917h0.771h1.927h1.012c1.472-1.087,3.283-1.737,5.249-1.737c0.15,0,0.299,0.012,0.447,0.022l0.148,0.01
		l1.314,0.085l0.597-1.175c2.225-4.372,6.644-7.089,11.532-7.089c5.945,0,11.168,4.139,12.563,9.884h2.043v-0.084
		c-1.444-6.742-7.433-11.8-14.605-11.8c-2.185,0-4.258,0.47-6.126,1.313c-1.667-3.202-5.007-5.394-8.866-5.394
		c-5.522,0-10,4.477-10,9.999C-403.173,23.193-402.425,25.252-401.179,26.917z M-393.173,12.953c3.091,0,5.76,1.773,7.091,4.345
		c-2.298,1.44-4.178,3.488-5.413,5.918c-0.241-0.016-0.48-0.036-0.725-0.036c-2.764,0-5.274,1.045-7.189,2.745
		c-1.097-1.366-1.764-3.089-1.764-4.973C-401.173,16.542-397.584,12.953-393.173,12.953z"/>
</g>
<g>
	<rect x="-305.343" y="31.479" width="50" height="2"/>
	<rect x="-301.343" y="37.479" width="44" height="2"/>
	<rect x="-295.343" y="42.479" width="30" height="2"/>
	<rect x="-303.343" y="25.479" width="46" height="2"/>
	<path d="M-301.7,23.479h0.037h1.884h1.055c1.472-1.087,3.283-1.737,5.249-1.737c0.15,0,0.299,0.012,0.447,0.022l0.148,0.01
		l1.314,0.085l0.597-1.175c2.225-4.372,6.644-7.089,11.532-7.089c5.945,0,11.168,4.139,12.563,9.884h2.043v-0.084
		c-1.444-6.742-7.433-11.8-14.605-11.8c-1.799,0-3.521,0.32-5.117,0.903c-0.945-5.111-5.402-8.987-10.789-8.987
		c-0.413,0-0.819,0.027-1.222,0.071c0.744,1.112,1.179,2.448,1.179,3.886c0,3.865-3.134,7-7,7c-1.438,0-2.773-0.435-3.886-1.179
		c-0.044,0.401-0.071,0.809-0.071,1.222C-306.343,18.216-304.507,21.486-301.7,23.479z M-302.386,16.469c4.963,0,9-4.037,9-9
		c0-0.603-0.06-1.198-0.177-1.78c3.735,0.753,6.633,3.828,7.134,7.647c-2.712,1.443-4.927,3.699-6.322,6.442
		c-0.241-0.016-0.48-0.036-0.725-0.036c-2.534,0-4.855,0.879-6.701,2.335c-2.02-1.293-3.5-3.356-3.989-5.785
		C-303.584,16.409-302.988,16.469-302.386,16.469z"/>
</g>
<g>
	<path d="M-173.451,34.493h-19.474l-0.578-0.003c-5.485-0.027-9.948-4.513-9.948-9.998c0-5.514,4.485-10,9.999-10
		c0.175,0,0.347,0.014,0.519,0.025l0.149,0.01l1.316,0.088l0.598-1.176c2.493-4.899,7.443-7.942,12.92-7.942
		c6.79,0,12.75,4.814,14.171,11.448l0.318,1.482l1.514,0.095c1.822,0.113,3.463,0.845,4.746,1.971h2.732
		c-1.707-2.262-4.348-3.78-7.354-3.967c-1.596-7.445-8.207-13.029-16.127-13.029c-6.423,0-11.977,3.678-14.702,9.035
		c-0.266-0.018-0.53-0.04-0.8-0.04c-6.627,0-11.999,5.372-11.999,12c0,6.607,5.34,11.965,11.938,11.998v0.003h20.062
		c2.205,0,4,1.794,4,4s-1.795,4-4,4v2c3.314,0,6-2.686,6-6C-167.451,37.18-170.137,34.493-173.451,34.493z"/>
	<path d="M-169.451,30.493h-15.988v2h15.988c3.314,0,6-2.687,6-6c0-3.314-2.686-6-6-6v2c2.205,0,4,1.794,4,4
		S-167.246,30.493-169.451,30.493z"/>
	<path d="M-156.451,24.493c1.654,0,3,1.346,3,3s-1.346,3-3,3c-0.043,0-0.083-0.011-0.126-0.013h-4.862
		c0.003,0.005,0.009,0.008,0.012,0.013h-0.023v2h5.5v-0.051c2.523-0.254,4.5-2.358,4.5-4.949c0-2.762-2.238-5-5-5V24.493z"/>
	<path d="M-152.451,34.493h-13v2h9.022c-0.004,0.005-0.008,0.008-0.011,0.013h3.862c0.043-0.002,0.083-0.013,0.126-0.013
		c1.654,0,3,1.346,3,3s-1.346,3-3,3v2c2.762,0,5-2.238,5-5S-149.689,34.493-152.451,34.493z"/>
	<rect x="-191.451" y="30.493" width="4" height="2"/>
</g>
<path d="M-381.013-364.61c6.95,1.305,12.226,7.419,12.226,14.742c0,8.272-6.729,15.002-15,15.002c-6.79,0-12.531-4.49-14.366-10.728
	c1.398,0.461,2.867,0.698,4.366,0.698c7.72,0,14-6.281,14-14.001C-379.787-360.881-380.211-362.825-381.013-364.61
	 M-383.787-366.867c-0.338,0-0.668,0.031-1,0.051c1.861,2.113,3,4.881,3,7.92c0,6.627-5.372,12.001-12,12.001
	c-2.599,0-4.998-0.835-6.963-2.239c0.387,9.047,7.821,16.269,16.963,16.269c9.39,0,17-7.612,17-17.002
	S-374.397-366.867-383.787-366.867L-383.787-366.867z"/>
<g>
	<path d="M-487.183-361.872c-7.18,0-13,5.819-13,12.999c0,7.181,5.82,13.002,13,13.002s13-5.821,13-13.002
		C-474.183-356.053-480.003-361.872-487.183-361.872z M-487.183-337.871c-6.065,0-11-4.936-11-11.002
		c0-6.064,4.935-10.999,11-10.999s11,4.935,11,10.999C-476.183-342.807-481.117-337.871-487.183-337.871z"/>
	<rect x="-488.189" y="-374.866" width="2" height="10"/>
	<rect x="-488.189" y="-332.866" width="2" height="10"/>
	<rect x="-513.183" y="-349.866" width="9.993" height="2"/>
	<rect x="-471.189" y="-349.866" width="10.007" height="2"/>
	<rect x="-473.49" y="-368.78" transform="matrix(0.7071 0.7071 -0.7071 0.7071 -395.4759 227.6118)" width="2" height="10.409"/>
	
		<rect x="-502.898" y="-339.371" transform="matrix(-0.7071 -0.7071 0.7071 -0.7071 -620.5028 -925.3537)" width="2" height="10.41"/>
	<rect x="-507.099" y="-364.571" transform="matrix(0.7071 0.7071 -0.7071 0.7071 -404.0847 248.4053)" width="10.409" height="2"/>
	
		<rect x="-477.69" y="-335.161" transform="matrix(-0.7072 -0.7071 0.7071 -0.7072 -570.3328 -904.5407)" width="10.41" height="2"/>
</g>
<g>
	<rect x="-89.017" y="-4.005" width="2" height="7.973"/>
	<rect x="-107.989" y="14.981" width="7.973" height="2"/>
	<rect x="-103.264" y="3.763" transform="matrix(0.7071 0.7071 -0.7071 0.7071 -25.7096 71.5939)" width="7.974" height="2"/>
	<rect x="-77.755" y="0.781" transform="matrix(0.7071 0.7071 -0.7071 0.7071 -19.1105 55.67)" width="2" height="7.972"/>
	<path d="M-73.989,37.995l0.005-0.007h-12.536l-0.594-0.003c-4.864-0.024-8.822-4.001-8.822-8.865c0-4.89,3.978-8.868,8.867-8.868
		c0.15,0,0.299,0.012,0.447,0.021l0.148,0.011l1.314,0.085l0.597-1.174c2.225-4.373,6.644-7.09,11.532-7.09
		c5.916,0,11.114,4.099,12.54,9.8h2.065c-1.444-6.742-7.433-11.8-14.605-11.8c-2.185,0-4.258,0.47-6.126,1.313
		c-1.667-3.202-5.007-5.394-8.866-5.394c-5.522,0-10,4.477-10,9.999c0,2.46,0.899,4.702,2.373,6.442
		c-1.429,1.84-2.287,4.144-2.287,6.653c0,5.983,4.836,10.836,10.813,10.865v0.003h13.135v0.007c2.205,0,4,1.794,4,4s-1.795,4-4,4v2
		c3.314,0,6-2.686,6-6C-67.989,40.682-70.675,37.995-73.989,37.995z M-88.022,8.025c3.091,0,5.76,1.773,7.091,4.345
		c-2.298,1.439-4.178,3.488-5.413,5.918c-0.241-0.016-0.48-0.036-0.725-0.036c-2.766,0-5.282,1.042-7.2,2.743
		c-1.092-1.367-1.753-3.09-1.753-4.971C-96.022,11.614-92.434,8.025-88.022,8.025z"/>
	<path d="M-69.989,33.995h-9.988v2h9.988c3.314,0,6-2.687,6-6c0-3.314-2.686-6-6-6v2c2.205,0,4,1.794,4,4
		S-67.784,33.995-69.989,33.995z"/>
	<path d="M-61.966,33.995h-0.023v2h5.5v-0.051c2.523-0.254,4.5-2.358,4.5-4.949c0-2.762-2.238-5-5-5v2c1.654,0,3,1.346,3,3
		s-1.346,3-3,3c-0.043,0-0.083-0.011-0.126-0.013h-4.862C-61.975,33.987-61.969,33.991-61.966,33.995z"/>
	<path d="M-52.989,37.995h-13v2h9.022c-0.004,0.004-0.008,0.008-0.011,0.013h3.862c0.043-0.002,0.083-0.013,0.126-0.013
		c1.654,0,3,1.346,3,3s-1.346,3-3,3v2c2.762,0,5-2.238,5-5S-50.228,37.995-52.989,37.995z"/>
	<rect x="-85.989" y="33.995" width="4" height="2"/>
</g>
<g>
	<path d="M25.973,35.989l0.005-0.007H13.441l-0.594-0.003c-4.864-0.024-8.822-4.001-8.822-8.865c0-4.89,3.978-8.868,8.867-8.868
		c0.15,0,0.299,0.012,0.447,0.021l0.148,0.011l1.314,0.085l0.597-1.174c2.225-4.373,6.644-7.09,11.532-7.09
		c5.916,0,11.114,4.099,12.54,9.8h2.065c-1.444-6.742-7.433-11.8-14.605-11.8c-1.806,0-3.536,0.322-5.138,0.91
		C20.856,3.887,16.394,0,11,0c-0.413,0-0.819,0.027-1.222,0.071c0.744,1.112,1.179,2.448,1.179,3.886c0,3.865-3.134,7-7,7
		c-1.438,0-2.773-0.435-3.886-1.179C0.027,10.18,0,10.587,0,11c0,3.725,1.858,7.009,4.69,8.998
		c-1.655,1.907-2.665,4.392-2.665,7.116c0,5.983,4.836,10.836,10.813,10.865v0.003h13.135v0.007c2.205,0,4,1.794,4,4s-1.795,4-4,4v2
		c3.314,0,6-2.686,6-6C31.973,38.676,29.287,35.989,25.973,35.989z M2.177,12.78c0.582,0.117,1.178,0.177,1.78,0.177
		c4.963,0,9-4.037,9-9c0-0.603-0.06-1.198-0.177-1.78c3.744,0.755,6.646,3.842,7.138,7.674c-2.702,1.444-4.909,3.696-6.301,6.432
		c-0.241-0.016-0.48-0.036-0.725-0.036c-2.535,0-4.861,0.875-6.71,2.33C4.154,17.284,2.668,15.216,2.177,12.78z"/>
	<path d="M29.973,31.989h-9.988v2h9.988c3.314,0,6-2.687,6-6c0-3.314-2.686-6-6-6v2c2.205,0,4,1.794,4,4
		S32.178,31.989,29.973,31.989z"/>
	<path d="M37.996,31.989h-0.023v2h5.5v-0.051c2.523-0.254,4.5-2.358,4.5-4.949c0-2.762-2.238-5-5-5v2c1.654,0,3,1.346,3,3
		s-1.346,3-3,3c-0.043,0-0.083-0.011-0.126-0.013h-4.862C37.987,31.981,37.993,31.985,37.996,31.989z"/>
	<path d="M46.973,35.989h-13v2h9.022c-0.004,0.004-0.008,0.008-0.011,0.013h3.862c0.043-0.002,0.083-0.013,0.126-0.013
		c1.654,0,3,1.346,3,3s-1.346,3-3,3v2c2.762,0,5-2.238,5-5S49.734,35.989,46.973,35.989z"/>
	<rect x="13.973" y="31.989" width="4" height="2"/>
</g>
<g>
	<rect x="126.865" y="-1.442" width="2" height="10"/>
	<rect x="101.872" y="23.558" width="9.993" height="2"/>
	<rect x="141.565" y="4.644" transform="matrix(0.7071 0.7071 -0.7071 0.7071 48.72 -97.9242)" width="2" height="10.409"/>
	<rect x="107.956" y="8.853" transform="matrix(0.7071 0.7071 -0.7071 0.7071 40.1111 -77.1308)" width="10.409" height="2"/>
	<path d="M131.865,38.558h-24v2h24c2.205,0,4,1.794,4,4s-1.795,4-4,4v2c3.314,0,6-2.686,6-6
		C137.865,41.244,135.18,38.558,131.865,38.558z"/>
	<path d="M143.889,34.558h-0.023v2h5.5v-0.051c2.523-0.254,4.5-2.358,4.5-4.949c0-2.762-2.238-5-5-5v2c1.654,0,3,1.346,3,3
		s-1.346,3-3,3c-0.043,0-0.083-0.011-0.126-0.013h-4.862C143.88,34.55,143.886,34.554,143.889,34.558z"/>
	<path d="M152.865,38.558h-13v2h9.022c-0.004,0.004-0.008,0.008-0.011,0.013h3.862c0.043-0.002,0.083-0.013,0.126-0.013
		c1.654,0,3,1.346,3,3s-1.346,3-3,3v2c2.762,0,5-2.238,5-5S155.627,38.558,152.865,38.558z"/>
	<path d="M119.574,34.558h-11.709v2h12.012h0.822h15.166c3.314,0,6-2.687,6-6c0-3.314-2.686-6-6-6v2c2.205,0,4,1.794,4,4
		s-1.795,4-4,4h-12.538c-3.802-1.734-6.455-5.563-6.455-10.007c0-6.064,4.935-10.999,11-10.999c5.384,0,9.868,3.891,10.81,9.006
		h2.021c-0.961-6.23-6.331-11.006-12.831-11.006c-7.18,0-13,5.819-13,12.999C114.872,28.576,116.702,32.173,119.574,34.558z"/>
</g>
<g>
	<path d="M232.092,32.001h-24v2h24c2.205,0,4,1.794,4,4s-1.795,4-4,4v2c3.314,0,6-2.686,6-6
		C238.092,34.688,235.406,32.001,232.092,32.001z"/>
	<path d="M249.592,30.001V29.95c2.523-0.254,4.5-2.358,4.5-4.949c0-2.762-2.238-5-5-5v2c1.654,0,3,1.346,3,3s-1.346,3-3,3
		c-0.043,0-0.083-0.011-0.126-0.013h-4.862c0.004,0.005,0.009,0.009,0.012,0.013h-0.023v2H249.592z"/>
	<path d="M253.092,32.001h-13v2h9.022c-0.003,0.004-0.007,0.008-0.011,0.013h3.862c0.043-0.002,0.083-0.013,0.126-0.013
		c1.654,0,3,1.346,3,3s-1.346,3-3,3v2c2.762,0,5-2.238,5-5S255.854,32.001,253.092,32.001z"/>
	<path d="M220.926,30.001h15.166c3.314,0,6-2.687,6-6c0-3.314-2.686-6-6-6v2c2.205,0,4,1.794,4,4s-1.795,4-4,4h-12.586
		c-2.596-1.188-4.658-3.339-5.69-6.034c0.849,0.204,1.724,0.309,2.612,0.309c6.168,0,11.187-5.019,11.187-11.188
		c0-1.276-0.22-2.532-0.64-3.717c4.046,1.102,7.168,4.459,7.937,8.63h2.018c-0.964-6.237-6.338-11.016-12.846-11.016
		c-0.259,0-0.511,0.024-0.766,0.039c1.425,1.618,2.297,3.737,2.297,6.063c0,5.072-4.112,9.188-9.187,9.188
		c-1.988,0-3.826-0.641-5.33-1.715c0.162,3.801,1.962,7.165,4.699,9.44h-11.705v2h12.012H220.926z"/>
</g>
<g>
	<path d="M-487.689,117.194h-20c-1.103,0-2-0.897-2-2s0.897-2,2-2h3.445h0.555v-2h-4c-2.209,0-4,1.791-4,4s1.791,4,4,4h20
		c2.205,0,4,1.794,4,4s-1.795,4-4,4v2c3.314,0,6-2.686,6-6C-481.689,119.881-484.375,117.194-487.689,117.194z"/>
	<path d="M-485.689,101.194v2c2.205,0,4,1.794,4,4s-1.795,4-4,4h-15.988v2h15.988c3.314,0,6-2.687,6-6
		C-479.689,103.88-482.375,101.194-485.689,101.194z"/>
	<path d="M-479.689,113.194v2h5.5v-0.051c2.523-0.254,4.5-2.358,4.5-4.949c0-2.762-2.238-5-5-5v2c1.654,0,3,1.346,3,3s-1.346,3-3,3
		c-0.043,0-0.083-0.011-0.126-0.013h-4.862c0.003,0.005,0.009,0.009,0.012,0.013H-479.689z"/>
	<path d="M-468.689,117.194h-11v2h7.022c-0.004,0.004-0.008,0.008-0.011,0.013h3.862c0.043-0.002,0.083-0.013,0.126-0.013
		c1.654,0,3,1.346,3,3s-1.346,3-3,3v2c2.762,0,5-2.238,5-5S-465.928,117.194-468.689,117.194z"/>
</g>
<path d="M48.603,103.541v-0.038H10.227c-1.103,0-2-0.897-2-2s0.897-2,2-2h33c2.762,0,5-2.238,5-5s-2.238-5-5-5H5.352v0.008
	c-0.042-0.001-0.083-0.008-0.125-0.008c-2.762,0-5,2.238-5,5s2.238,5,5,5v-2c-1.654,0-3-1.346-3-3s1.346-3,3-3h0.125h3.853h34.022
	c1.654,0,3,1.346,3,3s-1.346,3-3,3h-33c-2.209,0-4,1.791-4,4s1.791,4,4,4h38c1.103,0,2,0.897,2,2s-0.897,2-2,2h-32
	c-2.209,0-4,1.791-4,4s1.791,4,4,4h22c1.103,0,2,0.897,2,2s-0.897,2-2,2h-24.01v0.001c-2.204,0.006-3.99,1.793-3.99,3.999
	s1.786,3.993,3.99,3.999v0.001h12.01c1.103,0,2,0.897,2,2s-0.897,2-2,2h-2c-2.209,0-4,1.791-4,4s1.791,4,4,4v-2
	c-1.103,0-2-0.897-2-2s0.897-2,2-2h2c2.209,0,4-1.791,4-4s-1.791-4-4-4h-12c-1.103,0-2-0.897-2-2s0.897-2,2-2h24
	c2.209,0,4-1.791,4-4c0-2.152-1.704-3.895-3.834-3.983v-0.017H16.227c-1.103,0-2-0.897-2-2s0.897-2,2-2h32c2.209,0,4-1.791,4-4
	C52.227,105.423,50.633,103.733,48.603,103.541z"/>
<path d="M234.018,94.219v-2.024h-2v2.024c-13.01,0.513-23.462,10.965-23.975,23.976h1.674c1.14-1.222,2.748-2,4.551-2
	c2.26,0,4.233,1.203,5.331,3h1.838c1.098-1.797,3.071-3,5.331-3c2.204,0,4.137,1.144,5.25,2.866v15.134c0,2.21,1.791,4,4,4
	s4-1.79,4-4h-2c0,1.103-0.897,2-2,2s-2-0.897-2-2v-15.134c1.113-1.723,3.046-2.866,5.25-2.866c2.26,0,4.233,1.203,5.331,3h1.838
	c1.098-1.797,3.071-3,5.331-3c1.803,0,3.411,0.778,4.551,2h1.674C257.479,105.184,247.027,94.731,234.018,94.219z M251.768,114.194
	c-2.496,0-4.736,1.114-6.25,2.87c-1.514-1.756-3.754-2.87-6.25-2.87s-4.736,1.114-6.25,2.87c-1.514-1.756-3.754-2.87-6.25-2.87
	s-4.736,1.114-6.25,2.87c-1.514-1.756-3.755-2.87-6.25-2.87c-1.402,0-2.731,0.351-3.897,0.975
	c1.909-10.769,11.339-18.975,22.647-18.975s20.738,8.206,22.647,18.975C254.499,114.545,253.17,114.194,251.768,114.194z"/>
<g>
	<path d="M-171.277,218.507v-17.105c0-2.762-2.238-5-5-5s-5,2.238-5,5v17.105c-1.236,1.263-2,2.988-2,4.895c0,3.866,3.134,7,7,7
		s7-3.134,7-7C-169.277,221.495-170.041,219.77-171.277,218.507z M-176.277,228.401c-2.757,0-5-2.243-5-5
		c0-1.313,0.508-2.554,1.429-3.495l0.571-0.583v-0.816v-17.105c0-1.654,1.346-3,3-3s3,1.346,3,3v17.105v0.816l0.571,0.583
		c0.921,0.941,1.429,2.183,1.429,3.495C-171.277,226.158-173.521,228.401-176.277,228.401z"/>
	<path d="M-175.277,220.577v-15.176h-2v15.176c-1.167,0.413-2.008,1.516-2.008,2.824c0,1.662,1.347,3.008,3.008,3.008
		c1.662,0,3.008-1.346,3.008-3.008C-173.27,222.093-174.109,220.99-175.277,220.577z M-176.277,224.409
		c-0.556,0-1.008-0.452-1.008-1.008s0.452-1.008,1.008-1.008s1.008,0.452,1.008,1.008S-175.722,224.409-176.277,224.409z"/>
</g>
<g>
	<path d="M-71.489,218.507v-17.105c0-2.762-2.238-5-5-5s-5,2.238-5,5v17.105c-1.236,1.263-2,2.988-2,4.895c0,3.866,3.134,7,7,7
		s7-3.134,7-7C-69.489,221.495-70.253,219.77-71.489,218.507z M-76.489,228.401c-2.757,0-5-2.243-5-5
		c0-1.313,0.508-2.554,1.429-3.495l0.571-0.583v-0.816v-17.105c0-1.654,1.346-3,3-3s3,1.346,3,3v17.105v0.816l0.571,0.583
		c0.921,0.941,1.429,2.183,1.429,3.495C-71.489,226.158-73.732,228.401-76.489,228.401z"/>
	<path d="M-75.489,220.577v-20.176h-2v20.176c-1.167,0.413-2.008,1.516-2.008,2.824c0,1.662,1.347,3.008,3.008,3.008
		c1.662,0,3.008-1.346,3.008-3.008C-73.481,222.093-74.321,220.99-75.489,220.577z M-76.489,224.409
		c-0.556,0-1.008-0.452-1.008-1.008s0.452-1.008,1.008-1.008s1.008,0.452,1.008,1.008S-75.934,224.409-76.489,224.409z"/>
</g>
<g>
	<path d="M-274.387,218.507v-17.105c0-2.762-2.238-5-5-5s-5,2.238-5,5v17.105c-1.236,1.263-2,2.988-2,4.895c0,3.866,3.134,7,7,7
		s7-3.134,7-7C-272.387,221.495-273.15,219.77-274.387,218.507z M-279.387,228.401c-2.757,0-5-2.243-5-5
		c0-1.313,0.508-2.554,1.429-3.495l0.571-0.583v-0.816v-17.105c0-1.654,1.346-3,3-3s3,1.346,3,3v17.105v0.816l0.571,0.583
		c0.921,0.941,1.429,2.183,1.429,3.495C-274.387,226.158-276.63,228.401-279.387,228.401z"/>
	<path d="M-278.387,220.577v-10.176h-2v10.176c-1.167,0.413-2.008,1.516-2.008,2.824c0,1.662,1.347,3.008,3.008,3.008
		c1.662,0,3.008-1.346,3.008-3.008C-276.379,222.093-277.219,220.99-278.387,220.577z M-279.387,224.409
		c-0.556,0-1.008-0.452-1.008-1.008s0.452-1.008,1.008-1.008s1.008,0.452,1.008,1.008S-278.831,224.409-279.387,224.409z"/>
</g>
<g>
	<path d="M-378.032,218.507v-17.105c0-2.762-2.238-5-5-5s-5,2.238-5,5v17.105c-1.236,1.263-2,2.988-2,4.895c0,3.866,3.134,7,7,7
		s7-3.134,7-7C-376.032,221.495-376.796,219.77-378.032,218.507z M-383.032,228.401c-2.757,0-5-2.243-5-5
		c0-1.313,0.508-2.554,1.429-3.495l0.571-0.583v-0.816v-17.105c0-1.654,1.346-3,3-3s3,1.346,3,3v17.105v0.816l0.571,0.583
		c0.921,0.941,1.429,2.183,1.429,3.495C-378.032,226.158-380.275,228.401-383.032,228.401z"/>
	<path d="M-382.032,220.577v-5.176h-2v5.176c-1.167,0.413-2.008,1.516-2.008,2.824c0,1.662,1.347,3.008,3.008,3.008
		c1.662,0,3.008-1.346,3.008-3.008C-380.024,222.093-380.864,220.99-382.032,220.577z M-383.032,224.409
		c-0.556,0-1.008-0.452-1.008-1.008s0.452-1.008,1.008-1.008s1.008,0.452,1.008,1.008S-382.477,224.409-383.032,224.409z"/>
</g>
<g>
	<path d="M-482.689,218.507v-17.105c0-2.762-2.238-5-5-5s-5,2.238-5,5v17.105c-1.236,1.263-2,2.988-2,4.895c0,3.866,3.134,7,7,7
		s7-3.134,7-7C-480.689,221.495-481.453,219.77-482.689,218.507z M-487.689,228.401c-2.757,0-5-2.243-5-5
		c0-1.313,0.508-2.554,1.429-3.495l0.571-0.583v-0.816v-17.105c0-1.654,1.346-3,3-3s3,1.346,3,3v17.105v0.816l0.571,0.583
		c0.921,0.941,1.429,2.183,1.429,3.495C-482.689,226.158-484.933,228.401-487.689,228.401z"/>
	<path d="M-487.689,220.394c-1.661,0-3.008,1.347-3.008,3.008c0,1.662,1.347,3.008,3.008,3.008c1.662,0,3.008-1.346,3.008-3.008
		C-484.682,221.74-486.027,220.394-487.689,220.394z M-487.689,224.409c-0.556,0-1.008-0.452-1.008-1.008s0.452-1.008,1.008-1.008
		s1.008,0.452,1.008,1.008S-487.134,224.409-487.689,224.409z"/>
</g>
<g>
	<path d="M17.235,198.714c-2.209,0-4,1.791-4,4c0,2.21,1.791,4,4,4c2.211,0,4-1.79,4-4
		C21.235,200.505,19.446,198.714,17.235,198.714z M17.235,204.714c-1.103,0-2-0.897-2-2s0.897-2,2-2s2,0.897,2,2
		S18.338,204.714,17.235,204.714z"/>
	<path d="M31.235,226.714c-4.41,0-7.999-3.589-7.999-7.999v-4.002c0-4.41,3.589-7.999,7.999-7.999c2.715,0,5.115,1.362,6.563,3.437
		l1.43-1.43c-1.824-2.429-4.72-4.007-7.992-4.007c-5.522,0-9.999,4.478-9.999,9.999v4.002c0,5.521,4.477,9.999,9.999,9.999
		c3.272,0,6.168-1.579,7.992-4.008l-1.43-1.43C36.352,225.351,33.951,226.714,31.235,226.714z"/>
</g>
<g>
	<path d="M121.932,198.593c-2.209,0-4,1.791-4,4c0,2.21,1.791,4,4,4c2.211,0,4-1.79,4-4
		C125.932,200.384,124.143,198.593,121.932,198.593z M121.932,204.593c-1.103,0-2-0.897-2-2s0.897-2,2-2s2,0.897,2,2
		S123.034,204.593,121.932,204.593z"/>
	<polygon points="141.807,206.714 141.807,204.714 129.807,204.714 127.807,204.714 127.807,228.714 129.807,228.714 
		129.807,216.714 137.807,216.714 137.807,214.714 129.807,214.714 129.807,206.714 	"/>
</g>
<g>
	<path d="M233.018,202.405c-7.179,0-13,5.82-13,13s5.821,13,13,13s13-5.82,13-13S240.196,202.405,233.018,202.405z M233.018,226.405
		c-6.065,0-11-4.935-11-11s4.935-11,11-11s11,4.935,11,11S239.083,226.405,233.018,226.405z"/>
	<path d="M228.751,219.647l6.363-2.121l2.121-6.364l-6.363,2.122L228.751,219.647z M232.453,214.865l1.62-0.54l-0.54,1.62
		l-1.62,0.54L232.453,214.865z"/>
</g>
<g>
	<path d="M-487.689,292.923c-7.179,0-13,5.82-13,13s5.821,13,13,13s13-5.82,13-13S-480.511,292.923-487.689,292.923z
		 M-487.689,316.923c-6.065,0-11-4.934-11-11c0-6.064,4.935-11,11-11s11,4.936,11,11
		C-476.689,311.989-481.624,316.923-487.689,316.923z"/>
	<path d="M-485.128,304.345l-2.586-4.422l-2.529,4.33h0.007c-0.299,0.467-0.478,1.018-0.478,1.613c0,1.656,1.343,3,3,3s3-1.344,3-3
		c0-0.559-0.162-1.074-0.428-1.521H-485.128z M-487.714,306.866c-0.552,0-1-0.449-1-1c0-0.188,0.055-0.367,0.162-0.535l0.864-1.355
		l0.826,1.391c0.098,0.164,0.147,0.332,0.147,0.5C-486.714,306.417-487.162,306.866-487.714,306.866z"/>
</g>
<g>
	<path d="M-382.905,292.923c-7.18,0-13,5.82-13,13s5.82,13,13,13s13-5.82,13-13S-375.726,292.923-382.905,292.923z
		 M-382.905,316.923c-6.065,0-11-4.934-11-11c0-6.064,4.935-11,11-11s11,4.936,11,11
		C-371.905,311.989-376.84,316.923-382.905,316.923z"/>
	<path d="M-381.316,303.343c-0.467-0.299-1.018-0.477-1.613-0.477c-1.658,0-3,1.342-3,3c0,1.656,1.342,3,3,3
		c0.557,0,1.072-0.162,1.52-0.428v0.014l4.422-2.586l-4.328-2.529V303.343z M-382.432,306.718c-0.164,0.098-0.332,0.148-0.498,0.148
		c-0.552,0-1-0.449-1-1c0-0.553,0.448-1,1-1c0.188,0,0.368,0.053,0.535,0.16l1.355,0.865L-382.432,306.718z"/>
</g>
<g>
	<path d="M-279.854,292.923c-7.18,0-13,5.82-13,13s5.82,13,13,13s13-5.82,13-13S-272.675,292.923-279.854,292.923z
		 M-279.854,316.923c-6.065,0-11-4.934-11-11c0-6.064,4.935-11,11-11s11,4.936,11,11
		C-268.854,311.989-273.789,316.923-279.854,316.923z"/>
	<path d="M-279.854,302.866c-1.656,0-3,1.342-3,3c0,0.557,0.162,1.072,0.428,1.52h-0.014l2.586,4.422l2.529-4.328h-0.006
		c0.299-0.467,0.477-1.018,0.477-1.613C-276.854,304.208-278.196,302.866-279.854,302.866z M-279.016,306.401l-0.865,1.355
		l-0.826-1.393c-0.098-0.164-0.147-0.332-0.147-0.498c0-0.553,0.448-1,1-1s1,0.447,1,1
		C-278.854,306.054-278.908,306.233-279.016,306.401z"/>
</g>
<g>
	<path d="M-176.44,292.923c-7.179,0-13,5.82-13,13s5.821,13,13,13s13-5.82,13-13S-169.262,292.923-176.44,292.923z M-176.44,316.923
		c-6.065,0-11-4.934-11-11c0-6.064,4.935-11,11-11s11,4.936,11,11C-165.44,311.989-170.375,316.923-176.44,316.923z"/>
	<path d="M-176.481,302.866c-0.557,0-1.072,0.162-1.52,0.428v-0.014l-4.422,2.586l4.328,2.529v-0.006
		c0.467,0.299,1.018,0.477,1.613,0.477c1.658,0,3-1.342,3-3C-173.481,304.21-174.823,302.866-176.481,302.866z M-176.481,306.866
		c-0.188,0-0.368-0.055-0.535-0.162l-1.355-0.865l1.393-0.826c0.164-0.098,0.332-0.146,0.498-0.146c0.552,0,1,0.447,1,1
		C-175.481,306.417-175.93,306.866-176.481,306.866z"/>
</g>
<g>
	<rect x="-384.592" y="96.194" width="2" height="10"/>
	<rect x="-369.892" y="102.28" transform="matrix(0.7071 0.7071 -0.7071 0.7071 -32.0427 292.3277)" width="2" height="10.409"/>
	<rect x="-403.501" y="106.49" transform="matrix(0.7071 0.7071 -0.7071 0.7071 -40.6516 313.1211)" width="10.409" height="2"/>
	<polygon points="-390.26,125.448 -388.846,126.862 -384.592,122.608 -384.592,132.194 -382.592,132.194 -382.592,122.608 
		-378.339,126.862 -376.925,125.448 -383.592,118.78 	"/>
	<path d="M-370.585,122.193c0-0.002,0-0.004,0-0.006c0-7.18-5.82-12.999-13-12.999s-13,5.819-13,12.999c0,0.002,0,0.004,0,0.006h-13
		v2h18v-2h-3c0-0.002,0-0.004,0-0.006c0-6.064,4.935-10.999,11-10.999s11,4.935,11,10.999c0,0.002,0,0.004,0,0.006h-3v2h17.995v-2
		H-370.585z"/>
</g>
<g>
	<rect x="-280.847" y="95.007" width="2" height="10"/>
	<rect x="-266.147" y="101.093" transform="matrix(0.7071 0.7071 -0.7071 0.7071 -2.4962 218.621)" width="2" height="10.409"/>
	<rect x="-299.756" y="105.302" transform="matrix(0.7071 0.7071 -0.7071 0.7071 -11.105 239.4144)" width="10.409" height="2"/>
	<polygon points="-278.847,129.554 -278.847,119.007 -280.847,119.007 -280.847,129.554 -285.101,125.3 -286.515,126.714 
		-279.847,133.382 -273.18,126.714 -274.594,125.3 	"/>
	<path d="M-266.84,121.006c0-0.002,0-0.004,0-0.006c0-7.18-5.82-12.999-13-12.999s-13,5.819-13,12.999c0,0.002,0,0.004,0,0.006h-13
		v2h22v-2h-7c0-0.002,0-0.004,0-0.006c0-6.064,4.935-10.999,11-10.999s11,4.935,11,10.999c0,0.002,0,0.004,0,0.006h-7v2h21.995v-2
		H-266.84z"/>
</g>
<g>
	<polygon points="-76.489,129.02 -76.489,114.637 -78.489,114.637 -78.489,129.02 -82.743,124.766 -84.157,126.18 -77.489,132.848 
		-70.822,126.18 -72.236,124.766 	"/>
	<path d="M-60.861,109.666c-1.596-7.445-8.207-13.029-16.127-13.029c-6.423,0-11.977,3.678-14.702,9.035
		c-0.266-0.018-0.53-0.04-0.8-0.04c-6.627,0-11.999,5.372-11.999,12c0,6.607,5.34,11.965,11.938,11.998v0.003h6.062v-2h-5.604
		l-0.447-0.003c-5.485-0.027-9.948-4.513-9.948-9.998c0-5.514,4.485-10,9.999-10c0.175,0,0.347,0.014,0.52,0.025l0.148,0.01
		l1.316,0.088l0.598-1.176c2.492-4.899,7.443-7.942,12.92-7.942c6.79,0,12.75,4.814,14.172,11.448l0.317,1.482l1.514,0.095
		c4.203,0.262,7.496,3.763,7.496,7.971c0,4.397-3.565,7.977-7.957,8c-0.05-0.003-0.093-0.005-0.137-0.007l-2.043,0.007h-4.863v2
		h6.863v-0.007c0.046,0.001,0.091,0.007,0.137,0.007c5.521,0,10-4.477,10-10C-51.489,114.322-55.634,109.991-60.861,109.666z"/>
</g>
<g>
	<polygon points="-170.505,125.824 -169.091,124.41 -175.758,117.742 -182.426,124.41 -181.012,125.824 -176.758,121.57 
		-176.758,134.156 -174.758,134.156 -174.758,121.57 	"/>
	<path d="M-159.13,111.262c-1.596-7.445-8.207-13.029-16.127-13.029c-6.423,0-11.977,3.678-14.702,9.035
		c-0.266-0.018-0.53-0.04-0.8-0.04c-6.627,0-11.999,5.372-11.999,12c0,6.607,5.34,11.965,11.938,11.998v0.003h10.062v-2h-9.604
		l-0.447-0.003c-5.485-0.027-9.948-4.513-9.948-9.998c0-5.514,4.485-10,9.999-10c0.175,0,0.347,0.014,0.52,0.025l0.148,0.01
		l1.316,0.088l0.598-1.176c2.492-4.899,7.443-7.942,12.92-7.942c6.79,0,12.75,4.814,14.172,11.448l0.317,1.482l1.514,0.095
		c4.203,0.262,7.496,3.763,7.496,7.971c0,4.397-3.565,7.977-7.957,8c-0.05-0.003-0.093-0.005-0.137-0.007l-2.043,0.007h-8.863v2
		h10.863v-0.007c0.046,0.001,0.091,0.007,0.137,0.007c5.521,0,10-4.477,10-10C-149.758,115.918-153.902,111.587-159.13,111.262z"/>
</g>
<g>
	<path d="M43.359-78.254c-1.596-7.445-8.207-13.029-16.127-13.029c-6.423,0-11.977,3.678-14.702,9.035
		c-0.266-0.018-0.53-0.04-0.8-0.04c-6.627,0-11.999,5.372-11.999,12c0,6.607,5.34,11.965,11.938,11.998v0.003h2.062v-2h-1.604
		L11.68-60.29c-5.485-0.027-9.948-4.513-9.948-9.998c0-5.514,4.485-10,9.999-10c0.175,0,0.347,0.014,0.52,0.025l0.148,0.01
		l1.316,0.088l0.598-1.176c2.492-4.899,7.443-7.942,12.92-7.942c6.79,0,12.75,4.814,14.172,11.448l0.317,1.482l1.514,0.095
		c4.203,0.262,7.496,3.763,7.496,7.971c0,4.397-3.565,7.977-7.957,8c-0.05-0.003-0.093-0.005-0.137-0.007l-2.043,0.007h-0.863v2
		h2.863v-0.007c0.046,0.001,0.091,0.007,0.137,0.007c5.521,0,10-4.477,10-10C52.731-73.598,48.587-77.929,43.359-78.254z"/>
	<polygon points="21.731,-59.266 21.731,-61.896 23.904,-60.673 24.59,-61.894 22.12,-63.283 24.59,-64.673 23.904,-65.894 
		21.731,-64.671 21.731,-67.266 19.731,-67.266 19.731,-64.627 17.48,-65.894 16.795,-64.673 19.265,-63.283 16.795,-61.894 
		17.48,-60.673 19.731,-61.939 19.731,-59.266 	"/>
	<polygon points="26.894,-54.911 24.721,-53.688 24.721,-56.283 22.721,-56.283 22.721,-53.645 20.47,-54.911 19.784,-53.69 
		22.254,-52.301 19.784,-50.911 20.47,-49.69 22.721,-50.957 22.721,-48.283 24.721,-48.283 24.721,-50.913 26.894,-49.69 
		27.579,-50.911 25.109,-52.301 27.579,-53.69 	"/>
	<polygon points="35.909,-61.894 33.736,-60.671 33.736,-63.266 31.736,-63.266 31.736,-60.627 29.485,-61.894 28.8,-60.673 
		31.27,-59.283 28.8,-57.894 29.485,-56.673 31.736,-57.939 31.736,-55.266 33.736,-55.266 33.736,-57.896 35.909,-56.673 
		36.595,-57.894 34.125,-59.283 36.595,-60.673 	"/>
</g>
<g>
	<rect x="118.871" y="-96.306" width="2" height="7.973"/>
	<rect x="99.871" y="-77.392" width="7.973" height="2"/>
	<rect x="104.544" y="-88.658" transform="matrix(0.7071 0.7071 -0.7071 0.7071 -30.1956 -102.4177)" width="7.974" height="2"/>
	<rect x="130.053" y="-91.64" transform="matrix(0.7071 0.7071 -0.7071 0.7071 -23.5965 -118.3416)" width="2" height="7.972"/>
	<path d="M149.383-70.516c-1.444-6.742-7.433-11.8-14.605-11.8c-2.185,0-4.258,0.471-6.127,1.314
		c-1.666-3.203-5.006-5.395-8.865-5.395c-5.522,0-10,4.477-10,9.999c0,2.46,0.899,4.702,2.373,6.442
		c-1.428,1.84-2.287,4.144-2.287,6.653c0,5.983,4.836,10.836,10.813,10.865v0.003h1.188v-2h-0.721l-0.457-0.003
		c-4.864-0.023-8.822-4.001-8.822-8.865c0-4.89,3.978-8.868,8.867-8.868c0.15,0,0.299,0.012,0.447,0.022l0.148,0.01l1.314,0.085
		l0.597-1.175c2.225-4.372,6.644-7.089,11.532-7.089c6.062,0,11.382,4.298,12.649,10.219l0.318,1.483l1.514,0.094
		c3.708,0.23,6.612,3.319,6.612,7.03c0,3.878-3.144,7.035-7.017,7.057c-0.042-0.003-0.079-0.005-0.117-0.005l-1.866,0.005v2h1.819
		v-0.006c0.042,0.001,0.082,0.006,0.124,0.006c5.001,0,9.057-4.054,9.057-9.057C157.871-66.299,154.117-70.221,149.383-70.516z
		 M121.463-74.133c-0.241-0.016-0.48-0.036-0.725-0.036c-2.766,0-5.282,1.041-7.2,2.742c-1.092-1.365-1.753-3.089-1.753-4.97
		c0-4.41,3.589-7.999,8-7.999c3.092,0,5.76,1.773,7.091,4.346C124.578-78.61,122.699-76.563,121.463-74.133z"/>
	<polygon points="128.863,-53.413 128.863,-56.043 131.036,-54.82 131.722,-56.041 129.252,-57.431 131.722,-58.82 131.036,-60.041 
		128.863,-58.818 128.863,-61.413 126.863,-61.413 126.863,-58.774 124.612,-60.041 123.927,-58.82 126.396,-57.431 
		123.927,-56.041 124.612,-54.82 126.863,-56.087 126.863,-53.413 	"/>
	<polygon points="134.025,-49.059 131.853,-47.836 131.853,-50.431 129.853,-50.431 129.853,-47.792 127.602,-49.059 
		126.916,-47.838 129.386,-46.448 126.916,-45.059 127.602,-43.838 129.853,-45.104 129.853,-42.431 131.853,-42.431 
		131.853,-45.061 134.025,-43.838 134.711,-45.059 132.241,-46.448 134.711,-47.838 	"/>
	<polygon points="143.041,-56.041 140.868,-54.818 140.868,-57.413 138.868,-57.413 138.868,-54.774 136.617,-56.041 
		135.932,-54.82 138.401,-53.431 135.932,-52.041 136.617,-50.82 138.868,-52.087 138.868,-49.413 140.868,-49.413 140.868,-52.043 
		143.041,-50.82 143.727,-52.041 141.257,-53.431 143.727,-54.82 	"/>
</g>
<g>
	<path d="M249.571-73.519c-1.444-6.742-7.433-11.8-14.605-11.8c-1.799,0-3.522,0.32-5.118,0.904
		c-0.949-5.108-5.404-8.98-10.788-8.98c-0.413,0-0.819,0.027-1.222,0.071c0.744,1.112,1.179,2.448,1.179,3.886c0,3.865-3.134,7-7,7
		c-1.438,0-2.773-0.435-3.886-1.179c-0.044,0.401-0.071,0.809-0.071,1.222c0,3.713,1.845,6.987,4.661,8.979
		c-1.653,1.907-2.661,4.389-2.661,7.111c0,5.983,4.836,10.836,10.813,10.865v0.003h1.188v-2h-0.721l-0.457-0.003
		c-4.864-0.023-8.822-4.001-8.822-8.865c0-4.89,3.978-8.868,8.867-8.868c0.15,0,0.299,0.012,0.447,0.022l0.148,0.01l1.314,0.085
		l0.597-1.175c2.225-4.372,6.644-7.089,11.532-7.089c6.062,0,11.382,4.298,12.649,10.219l0.318,1.483l1.514,0.094
		c3.708,0.23,6.612,3.319,6.612,7.03c0,3.878-3.144,7.035-7.017,7.057c-0.042-0.003-0.079-0.005-0.117-0.005l-1.866,0.005v2h1.819
		v-0.006c0.042,0.001,0.082,0.006,0.124,0.006c5.001,0,9.057-4.054,9.057-9.057C258.06-69.302,254.306-73.224,249.571-73.519z
		 M221.651-77.136c-0.241-0.016-0.48-0.036-0.725-0.036c-2.537,0-4.865,0.877-6.715,2.334c-2.012-1.294-3.486-3.354-3.976-5.776
		c0.582,0.117,1.178,0.177,1.78,0.177c4.963,0,9-4.037,9-9c0-0.603-0.06-1.198-0.177-1.78c3.733,0.753,6.629,3.824,7.134,7.64
		C225.261-82.134,223.046-79.879,221.651-77.136z"/>
	<polygon points="229.097,-56.416 229.097,-59.046 231.27,-57.823 231.955,-59.044 229.485,-60.434 231.955,-61.823 231.27,-63.044 
		229.097,-61.821 229.097,-64.416 227.097,-64.416 227.097,-61.777 224.846,-63.044 224.16,-61.823 226.63,-60.434 224.16,-59.044 
		224.846,-57.823 227.097,-59.09 227.097,-56.416 	"/>
	<polygon points="234.259,-52.062 232.086,-50.839 232.086,-53.434 230.086,-53.434 230.086,-50.795 227.835,-52.062 
		227.149,-50.841 229.619,-49.451 227.149,-48.062 227.835,-46.841 230.086,-48.107 230.086,-45.434 232.086,-45.434 
		232.086,-48.063 234.259,-46.841 234.944,-48.062 232.475,-49.451 234.944,-50.841 	"/>
	<polygon points="243.274,-59.044 241.102,-57.821 241.102,-60.416 239.102,-60.416 239.102,-57.777 236.851,-59.044 
		236.165,-57.823 238.635,-56.434 236.165,-55.044 236.851,-53.823 239.102,-55.09 239.102,-52.416 241.102,-52.416 
		241.102,-55.046 243.274,-53.823 243.96,-55.044 241.49,-56.434 243.96,-57.823 	"/>
</g>
<rect x="-366.787" y="-641.269" fill="none" width="472.974" height="180.918"/>
<text transform="matrix(1 0 0 1 -187.1499 -569.8696)"><tspan x="0" y="0" font-family="'HelveticaNeueLTStd-Th'" font-size="100" letter-spacing="2">60</tspan><tspan x="-99.268" y="60" font-family="'HelveticaNeueLTStd-Lt'" font-size="48" letter-spacing="1">Weather Icons</tspan><tspan x="-3.726" y="104" font-family="'HelveticaNeueLTStd-Lt'" font-size="24">IOS 7 Style</tspan></text>
</svg>
