<?xml version="1.0" encoding="utf-8"?>
<!-- Generator: Adobe Illustrator 16.0.0, SVG Export Plug-In . SVG Version: 6.00 Build 0)  -->
<!DOCTYPE svg PUBLIC "-//W3C//DTD SVG 1.1//EN" "http://www.w3.org/Graphics/SVG/1.1/DTD/svg11.dtd">
<svg version="1.1" id="Layer_1" xmlns="http://www.w3.org/2000/svg" xmlns:xlink="http://www.w3.org/1999/xlink" x="0px" y="0px"
	 width="26px" height="26px" viewBox="0 0 26 26" enable-background="new 0 0 26 26" xml:space="preserve">
<path d="M634.371-195.026l-1.803,15.077l-0.268,2.237h2.254h6.896l-14.693,18.759l1.789-14.52l0.277-2.245h-2.262h-6.957
	L634.371-195.026 M637.226-202.051l-21.667,28.333h11.004l-2.671,21.667l21.667-27.661h-11.004L637.226-202.051L637.226-202.051z"/>
<path d="M221.336-657.287c6.79,0,12.749,4.814,14.171,11.448l0.318,1.483l1.514,0.094c4.203,0.262,7.496,3.763,7.496,7.971
	c0,4.396-3.565,7.977-7.957,8c-0.046-0.003-0.091-0.006-0.137-0.007l-2.043-0.036v0.043h-28.337l-0.578-0.003
	c-5.485-0.027-9.948-4.513-9.948-9.998c0-5.514,4.485-10,9.999-10c0.175,0,0.347,0.014,0.519,0.025l0.149,0.011l1.316,0.087
	l0.598-1.176C210.909-654.244,215.859-657.287,221.336-657.287 M221.336-659.287c-6.423,0-11.977,3.678-14.702,9.035
	c-0.266-0.018-0.53-0.04-0.8-0.04c-6.627,0-11.999,5.372-11.999,12c0,6.607,5.34,11.965,11.938,11.998v0.003h30.925v-0.007
	c0.046,0.001,0.091,0.007,0.137,0.007c5.521,0,10-4.477,10-10c0-5.311-4.145-9.642-9.372-9.967
	C235.867-653.703,229.256-659.287,221.336-659.287L221.336-659.287z"/>
<g>
	<path d="M344.287-638.876c-1.444-6.742-7.433-11.8-14.605-11.8c-2.185,0-4.258,0.47-6.127,1.313
		c-1.666-3.202-5.006-5.394-8.865-5.394c-5.522,0-10,4.477-10,9.999c0,2.46,0.898,4.702,2.373,6.442
		c-1.428,1.84-2.287,4.144-2.287,6.653c0,5.983,4.836,10.836,10.813,10.865v0.003h28.007v-0.006
		c0.042,0.001,0.082,0.006,0.124,0.006c5.001,0,9.057-4.054,9.057-9.057C352.775-634.659,349.021-638.581,344.287-638.876z
		 M314.689-652.756c3.092,0,5.76,1.773,7.092,4.345c-2.299,1.44-4.178,3.488-5.414,5.918c-0.241-0.016-0.48-0.036-0.725-0.036
		c-2.766,0-5.281,1.041-7.2,2.743c-1.092-1.366-1.753-3.09-1.753-4.971C306.689-649.167,310.278-652.756,314.689-652.756z
		 M343.759-622.793c-0.038-0.003-0.077-0.004-0.117-0.005l-2.047-0.042v0.047h-25.403l-0.594-0.003
		c-4.864-0.023-8.822-4.001-8.822-8.865c0-4.89,3.978-8.868,8.867-8.868c0.15,0,0.299,0.012,0.447,0.021l0.148,0.011l1.314,0.085
		l0.598-1.174c2.224-4.373,6.643-7.09,11.531-7.09c6.062,0,11.381,4.298,12.65,10.219l0.317,1.482l1.514,0.095
		c3.708,0.231,6.612,3.319,6.612,7.03C350.775-625.972,347.632-622.815,343.759-622.793z"/>
	<rect x="313.695" y="-664.786" width="2" height="7.973"/>
	<rect x="294.723" y="-645.8" width="7.973" height="2"/>
	<rect x="299.448" y="-657.018" transform="matrix(0.7071 0.7071 -0.7071 0.7071 -375.0009 -406.7047)" width="7.974" height="2"/>
	<rect x="324.957" y="-660" transform="matrix(0.7071 0.7071 -0.7071 0.7071 -368.4018 -422.6287)" width="2" height="7.972"/>
</g>
<path d="M440.03-642.903c-1.444-6.742-7.433-11.8-14.605-11.8c-1.799,0-3.521,0.32-5.118,0.904c-0.949-5.108-5.404-8.98-10.788-8.98
	c-0.413,0-0.819,0.027-1.222,0.071c0.744,1.112,1.179,2.448,1.179,3.886c0,3.865-3.134,7-7,7c-1.438,0-2.773-0.435-3.886-1.179
	c-0.044,0.401-0.071,0.809-0.071,1.222c0,3.712,1.845,6.987,4.661,8.979c-1.653,1.907-2.661,4.389-2.661,7.111
	c0,5.983,4.836,10.836,10.813,10.865v0.003h28.007v-0.006c0.042,0.001,0.082,0.006,0.124,0.006c5.001,0,9.057-4.054,9.057-9.057
	C448.519-638.687,444.765-642.608,440.03-642.903z M400.695-649.999c0.582,0.117,1.178,0.177,1.78,0.177c4.963,0,9-4.037,9-9
	c0-0.603-0.06-1.198-0.177-1.78c3.733,0.753,6.629,3.824,7.134,7.64c-2.713,1.444-4.928,3.699-6.322,6.442
	c-0.241-0.016-0.48-0.036-0.725-0.036c-2.537,0-4.865,0.876-6.715,2.334C402.659-645.517,401.185-647.576,400.695-649.999z
	 M439.502-626.82c-0.038-0.003-0.077-0.004-0.117-0.005l-2.047-0.042v0.047h-25.403l-0.594-0.003
	c-4.864-0.023-8.822-4.001-8.822-8.865c0-4.89,3.978-8.868,8.867-8.868c0.15,0,0.299,0.012,0.447,0.021l0.148,0.011l1.314,0.085
	l0.598-1.174c2.224-4.373,6.643-7.09,11.531-7.09c6.062,0,11.381,4.298,12.65,10.219l0.317,1.482l1.514,0.095
	c3.708,0.231,6.612,3.319,6.612,7.03C446.519-629.999,443.375-626.843,439.502-626.82z"/>
<g>
	<rect x="524.676" y="-634.28" width="2" height="7"/>
	<rect x="532.676" y="-638.28" width="2" height="7"/>
	<rect x="516.676" y="-638.28" width="2" height="7"/>
	<rect x="524.676" y="-624.28" width="2" height="7"/>
	<rect x="532.676" y="-628.28" width="2" height="7"/>
	<rect x="516.676" y="-628.28" width="2" height="7"/>
	<path d="M543.304-651.269c-1.596-7.445-8.207-13.029-16.127-13.029c-6.423,0-11.977,3.678-14.702,9.035
		c-0.266-0.018-0.53-0.04-0.8-0.04c-6.627,0-11.999,5.372-11.999,12c0,6.607,5.34,11.965,11.938,11.998v0.003h2.062v-2h-1.604
		l-0.447-0.003c-5.485-0.027-9.948-4.513-9.948-9.998c0-5.514,4.485-10,9.999-10c0.175,0,0.347,0.014,0.52,0.025l0.148,0.01
		l1.316,0.088l0.598-1.176c2.492-4.899,7.443-7.942,12.92-7.942c6.79,0,12.75,4.814,14.172,11.448l0.317,1.482l1.514,0.095
		c4.203,0.262,7.496,3.763,7.496,7.971c0,4.397-3.565,7.977-7.957,8c-0.05-0.003-0.093-0.005-0.137-0.007l-2.043,0.007h-2.863v2
		h4.863v-0.007c0.046,0.001,0.091,0.007,0.137,0.007c5.521,0,10-4.477,10-10C552.676-646.612,548.531-650.943,543.304-651.269z"/>
</g>
<g>
	<path d="M340.877-561.911c-1.596-7.445-8.207-13.029-16.127-13.029c-6.423,0-11.977,3.678-14.702,9.035
		c-0.266-0.018-0.53-0.04-0.8-0.04c-6.627,0-11.999,5.372-11.999,12c0,6.607,5.34,11.965,11.938,11.998v0.003h2.062v-2h-1.604
		l-0.447-0.003c-5.485-0.027-9.948-4.513-9.948-9.998c0-5.514,4.485-10,9.999-10c0.175,0,0.347,0.014,0.52,0.025l0.148,0.01
		l1.316,0.088l0.598-1.176c2.492-4.899,7.443-7.942,12.92-7.942c6.79,0,12.75,4.814,14.172,11.448l0.317,1.482l1.514,0.095
		c4.203,0.262,7.496,3.763,7.496,7.971c0,4.397-3.565,7.977-7.957,8c-0.05-0.003-0.093-0.005-0.137-0.007l-2.043,0.007h-2.863v2
		h4.863v-0.007c0.046,0.001,0.091,0.007,0.137,0.007c5.521,0,10-4.477,10-10C350.249-557.255,346.104-561.586,340.877-561.911z"/>
	<polygon points="322.249,-534.916 322.249,-532.976 322.249,-526.916 324.249,-526.916 324.249,-532.976 324.249,-534.916 
		324.249,-546.916 322.249,-546.916 	"/>
	<polygon points="330.249,-538.916 330.249,-537.163 330.249,-530.916 332.249,-530.916 332.249,-537.163 332.249,-538.916 
		332.249,-550.916 330.249,-550.916 	"/>
	<polygon points="314.249,-538.916 314.249,-536.851 314.249,-530.916 316.249,-530.916 316.249,-536.851 316.249,-538.916 
		316.249,-550.916 314.249,-550.916 	"/>
</g>
<g>
	<polygon points="636.526,-538.005 629.644,-547.835 628.006,-546.688 634.889,-536.857 636.001,-535.269 639.477,-530.305 
		641.115,-531.451 637.64,-536.416 	"/>
	<polygon points="644.528,-538.007 637.644,-547.835 636.006,-546.687 642.892,-536.858 643.896,-535.423 647.48,-530.308 
		649.119,-531.454 645.535,-536.57 	"/>
	<polygon points="628.526,-538.005 621.644,-547.835 620.006,-546.687 626.889,-536.857 628.073,-535.165 631.478,-530.304 
		633.115,-531.451 629.712,-536.313 	"/>
	<path d="M647.634-561.645c-1.596-7.445-8.207-13.029-16.127-13.029c-6.423,0-11.977,3.678-14.702,9.035
		c-0.266-0.018-0.53-0.04-0.8-0.04c-6.627,0-11.999,5.372-11.999,12c0,6.607,5.34,11.965,11.938,11.998v0.003h2.062v-2h-1.604
		l-0.447-0.003c-5.485-0.027-9.948-4.513-9.948-9.998c0-5.514,4.485-10,9.999-10c0.175,0,0.347,0.014,0.52,0.025l0.148,0.01
		l1.316,0.088l0.598-1.176c2.492-4.899,7.443-7.942,12.92-7.942c6.79,0,12.75,4.814,14.172,11.448l0.317,1.482l1.514,0.095
		c4.203,0.262,7.496,3.763,7.496,7.971c0,4.397-3.565,7.977-7.957,8c-0.05-0.003-0.093-0.005-0.137-0.007l-1.043,0.007h0.137v2
		h0.863v-0.007c0.046,0.001,0.091,0.007,0.137,0.007c5.521,0,10-4.477,10-10C657.006-556.988,652.861-561.319,647.634-561.645z"/>
</g>
<g>
	<rect x="619.332" y="-670.727" width="2" height="7.973"/>
	<rect x="600.332" y="-651.813" width="7.973" height="2"/>
	<rect x="605.005" y="-663.079" transform="matrix(0.7071 0.7071 -0.7071 0.7071 -289.7909 -624.541)" width="7.974" height="2"/>
	<rect x="630.514" y="-666.061" transform="matrix(0.7071 0.7071 -0.7071 0.7071 -283.1918 -640.4649)" width="2" height="7.972"/>
	<rect x="633.332" y="-629.854" width="2" height="7"/>
	<rect x="641.332" y="-633.854" width="2" height="7"/>
	<rect x="625.332" y="-633.854" width="2" height="7"/>
	<rect x="633.332" y="-619.854" width="2" height="7"/>
	<rect x="641.332" y="-623.854" width="2" height="7"/>
	<rect x="625.332" y="-623.854" width="2" height="7"/>
	<path d="M649.844-644.937c-1.444-6.742-7.433-11.8-14.605-11.8c-2.185,0-4.258,0.47-6.126,1.313
		c-1.667-3.202-5.007-5.394-8.866-5.394c-5.522,0-10,4.477-10,9.999c0,2.46,0.899,4.702,2.373,6.442
		c-1.429,1.84-2.287,4.144-2.287,6.653c0,5.983,4.836,10.836,10.813,10.865v0.003h1.188v-2h-0.721l-0.457-0.003
		c-4.864-0.023-8.822-4.001-8.822-8.865c0-4.89,3.978-8.868,8.867-8.868c0.15,0,0.299,0.012,0.447,0.022l0.148,0.01l1.314,0.085
		l0.597-1.175c2.225-4.372,6.644-7.089,11.532-7.089c6.062,0,11.382,4.298,12.649,10.219l0.318,1.483l1.514,0.094
		c3.708,0.23,6.612,3.319,6.612,7.03c0,3.878-3.144,7.035-7.017,7.057c-0.042-0.003-0.079-0.005-0.117-0.005l-2.047,0.005h-0.819v2
		h2.819v-0.006c0.042,0.001,0.082,0.006,0.124,0.006c5.001,0,9.057-4.054,9.057-9.057
		C658.332-640.72,654.578-644.642,649.844-644.937z M621.924-648.554c-0.241-0.016-0.48-0.036-0.725-0.036
		c-2.766,0-5.282,1.041-7.2,2.743c-1.092-1.366-1.753-3.09-1.753-4.971c0-4.41,3.589-7.999,8-7.999c3.091,0,5.76,1.773,7.091,4.345
		C625.039-653.031,623.159-650.983,621.924-648.554z"/>
</g>
<g>
	<rect x="733.749" y="-631.301" width="2" height="7"/>
	<rect x="741.749" y="-635.301" width="2" height="7"/>
	<rect x="725.749" y="-635.301" width="2" height="7"/>
	<rect x="733.749" y="-621.301" width="2" height="7"/>
	<rect x="741.749" y="-625.301" width="2" height="7"/>
	<rect x="725.749" y="-625.301" width="2" height="7"/>
	<path d="M750.261-646.384c-1.444-6.742-7.433-11.8-14.605-11.8c-1.799,0-3.522,0.32-5.118,0.904
		c-0.949-5.108-5.404-8.98-10.788-8.98c-0.413,0-0.819,0.027-1.222,0.071c0.744,1.112,1.179,2.448,1.179,3.886c0,3.865-3.134,7-7,7
		c-1.438,0-2.773-0.435-3.886-1.179c-0.044,0.401-0.071,0.809-0.071,1.222c0,3.712,1.845,6.987,4.661,8.979
		c-1.653,1.907-2.661,4.389-2.661,7.111c0,5.983,4.836,10.836,10.813,10.865v0.003h1.188v-2h-0.721l-0.457-0.003
		c-4.864-0.023-8.822-4.001-8.822-8.865c0-4.89,3.978-8.868,8.867-8.868c0.15,0,0.299,0.012,0.447,0.022l0.148,0.01l1.314,0.085
		l0.597-1.175c2.225-4.372,6.644-7.089,11.532-7.089c6.062,0,11.382,4.298,12.649,10.219l0.318,1.483l1.514,0.094
		c3.708,0.23,6.612,3.319,6.612,7.03c0,3.878-3.144,7.035-7.017,7.057c-0.042-0.003-0.079-0.005-0.117-0.005l-2.047,0.005h-0.819v2
		h2.819v-0.006c0.042,0.001,0.082,0.006,0.124,0.006c5.001,0,9.057-4.054,9.057-9.057
		C758.749-642.167,754.995-646.089,750.261-646.384z M722.341-650.001c-0.241-0.016-0.48-0.036-0.725-0.036
		c-2.537,0-4.865,0.876-6.715,2.334c-2.012-1.294-3.487-3.354-3.976-5.776c0.582,0.117,1.178,0.177,1.78,0.177c4.963,0,9-4.037,9-9
		c0-0.603-0.06-1.198-0.177-1.78c3.733,0.753,6.629,3.824,7.133,7.64C725.951-654.999,723.736-652.744,722.341-650.001z"/>
</g>
<g>
	<polygon points="426.519,-530.478 426.519,-528.537 426.519,-522.478 428.519,-522.478 428.519,-528.537 428.519,-530.478 
		428.519,-542.478 426.519,-542.478 	"/>
	<polygon points="434.519,-534.478 434.519,-532.725 434.519,-526.478 436.519,-526.478 436.519,-532.725 436.519,-534.478 
		436.519,-546.478 434.519,-546.478 	"/>
	<polygon points="418.519,-534.478 418.519,-532.412 418.519,-526.478 420.519,-526.478 420.519,-532.412 420.519,-534.478 
		420.519,-546.478 418.519,-546.478 	"/>
	<rect x="412.519" y="-581.38" width="2" height="7.973"/>
	<rect x="393.519" y="-562.466" width="7.973" height="2"/>
	<rect x="398.192" y="-573.732" transform="matrix(0.7071 0.7071 -0.7071 0.7071 -287.1876 -452.1328)" width="7.974" height="2"/>
	<rect x="423.7" y="-576.714" transform="matrix(0.7071 0.7071 -0.7071 0.7071 -280.5884 -468.0567)" width="2" height="7.972"/>
	<path d="M443.03-555.59c-1.444-6.742-7.433-11.8-14.605-11.8c-2.185,0-4.258,0.47-6.127,1.313
		c-1.666-3.202-5.006-5.394-8.865-5.394c-5.522,0-10,4.477-10,9.999c0,2.46,0.898,4.702,2.373,6.442
		c-1.428,1.84-2.287,4.144-2.287,6.653c0,5.983,4.836,10.836,10.813,10.865v0.003h1.188v-2h-0.721l-0.457-0.003
		c-4.864-0.023-8.822-4.001-8.822-8.865c0-4.89,3.978-8.868,8.867-8.868c0.15,0,0.299,0.012,0.447,0.022l0.148,0.01l1.314,0.085
		l0.597-1.175c2.225-4.372,6.644-7.089,11.532-7.089c6.062,0,11.382,4.298,12.649,10.219l0.318,1.483l1.514,0.094
		c3.708,0.23,6.612,3.319,6.612,7.03c0,3.878-3.144,7.035-7.017,7.057c-0.042-0.003-0.079-0.005-0.117-0.005l-2.047,0.005h-0.819v2
		h2.819v-0.006c0.042,0.001,0.082,0.006,0.124,0.006c5.001,0,9.057-4.054,9.057-9.057
		C451.519-551.373,447.765-555.295,443.03-555.59z M415.11-559.207c-0.241-0.016-0.48-0.036-0.725-0.036
		c-2.766,0-5.281,1.042-7.2,2.743c-1.092-1.367-1.753-3.09-1.753-4.971c0-4.41,3.589-7.999,8-7.999c3.092,0,5.76,1.773,7.092,4.345
		C418.226-563.686,416.347-561.637,415.11-559.207z"/>
</g>
<g>
	<polygon points="526.916,-532.994 526.916,-531.054 526.916,-524.994 528.916,-524.994 528.916,-531.054 528.916,-532.994 
		528.916,-544.994 526.916,-544.994 	"/>
	<polygon points="534.916,-536.994 534.916,-535.241 534.916,-528.994 536.916,-528.994 536.916,-535.241 536.916,-536.994 
		536.916,-548.994 534.916,-548.994 	"/>
	<polygon points="518.916,-536.994 518.916,-534.929 518.916,-528.994 520.916,-528.994 520.916,-534.929 520.916,-536.994 
		520.916,-548.994 518.916,-548.994 	"/>
	<path d="M543.428-558.106c-1.444-6.742-7.433-11.8-14.605-11.8c-1.799,0-3.521,0.32-5.118,0.904
		c-0.949-5.108-5.404-8.98-10.788-8.98c-0.413,0-0.819,0.027-1.222,0.071c0.744,1.112,1.179,2.448,1.179,3.886c0,3.865-3.134,7-7,7
		c-1.438,0-2.773-0.435-3.886-1.179c-0.044,0.401-0.071,0.809-0.071,1.222c0,3.712,1.845,6.987,4.661,8.979
		c-1.653,1.907-2.661,4.389-2.661,7.111c0,5.983,4.836,10.836,10.813,10.865v0.003h1.188v-2h-0.721l-0.457-0.003
		c-4.864-0.023-8.822-4.001-8.822-8.865c0-4.89,3.978-8.868,8.867-8.868c0.15,0,0.299,0.012,0.447,0.022l0.148,0.01l1.314,0.085
		l0.597-1.175c2.225-4.372,6.644-7.089,11.532-7.089c6.062,0,11.382,4.298,12.649,10.219l0.318,1.483l1.514,0.094
		c3.708,0.23,6.612,3.319,6.612,7.03c0,3.878-3.144,7.035-7.017,7.057c-0.042-0.003-0.079-0.005-0.117-0.005l-2.047,0.005h-0.819v2
		h2.819v-0.006c0.042,0.001,0.082,0.006,0.124,0.006c5.001,0,9.057-4.054,9.057-9.057
		C551.916-553.89,548.162-557.812,543.428-558.106z M515.508-561.724c-0.241-0.016-0.48-0.036-0.725-0.036
		c-2.537,0-4.865,0.876-6.715,2.334c-2.012-1.294-3.486-3.354-3.976-5.776c0.582,0.117,1.178,0.177,1.78,0.177c4.963,0,9-4.037,9-9
		c0-0.603-0.06-1.198-0.177-1.78c3.733,0.753,6.629,3.824,7.134,7.641C519.117-566.722,516.902-564.466,515.508-561.724z"/>
</g>
<g>
	<polygon points="743.951,-532.05 737.068,-541.88 735.431,-540.732 742.313,-530.902 743.426,-529.313 746.901,-524.35 
		748.54,-525.496 745.064,-530.461 	"/>
	<polygon points="751.953,-532.052 745.068,-541.88 743.431,-540.731 750.316,-530.903 751.321,-529.468 754.905,-524.353 
		756.544,-525.499 752.96,-530.615 	"/>
	<polygon points="735.951,-532.05 729.068,-541.88 727.431,-540.731 734.313,-530.902 735.498,-529.21 738.902,-524.349 
		740.54,-525.496 737.137,-530.357 	"/>
	<rect x="723.431" y="-579.599" width="2" height="7.973"/>
	<rect x="704.431" y="-560.685" width="7.973" height="2"/>
	<rect x="709.104" y="-571.951" transform="matrix(0.7071 0.7071 -0.7071 0.7071 -194.864 -671.4591)" width="7.974" height="2"/>
	<rect x="734.612" y="-574.933" transform="matrix(0.7071 0.7071 -0.7071 0.7071 -188.2648 -687.3831)" width="2" height="7.972"/>
	<path d="M753.942-553.809c-1.444-6.742-7.433-11.8-14.605-11.8c-2.185,0-4.258,0.47-6.126,1.313
		c-1.667-3.202-5.007-5.394-8.866-5.394c-5.522,0-10,4.477-10,9.999c0,2.46,0.899,4.702,2.373,6.442
		c-1.429,1.84-2.287,4.144-2.287,6.653c0,5.983,4.836,10.836,10.813,10.865v0.003h1.188v-2h-0.721l-0.457-0.003
		c-4.864-0.023-8.822-4.001-8.822-8.865c0-4.89,3.978-8.868,8.867-8.868c0.15,0,0.299,0.012,0.447,0.022l0.148,0.01l1.314,0.085
		l0.597-1.175c2.225-4.372,6.644-7.089,11.532-7.089c6.062,0,11.382,4.298,12.649,10.219l0.318,1.483l1.514,0.094
		c3.708,0.23,6.612,3.319,6.612,7.03c0,3.878-3.144,7.035-7.017,7.057c-0.042-0.003-0.079-0.005-0.117-0.005l-0.047,0.005h-0.819v2
		h0.819v-0.006c0.042,0.001,0.082,0.006,0.124,0.006c5.001,0,9.057-4.054,9.057-9.057
		C762.431-549.592,758.677-553.514,753.942-553.809z M726.022-557.426c-0.241-0.016-0.48-0.036-0.725-0.036
		c-2.766,0-5.282,1.042-7.2,2.743c-1.092-1.367-1.753-3.09-1.753-4.971c0-4.41,3.589-7.999,8-7.999c3.091,0,5.76,1.773,7.091,4.345
		C729.138-561.904,727.258-559.855,726.022-557.426z"/>
</g>
<g>
	<polygon points="20.521,-435.564 13.638,-445.395 12,-444.247 18.883,-434.417 19.995,-432.828 23.471,-427.864 25.109,-429.011 
		21.634,-433.976 	"/>
	<polygon points="28.522,-435.566 21.638,-445.395 20,-444.246 26.886,-434.418 27.891,-432.982 31.475,-427.867 33.113,-429.014 
		29.529,-434.13 	"/>
	<polygon points="12.521,-435.564 5.638,-445.395 4,-444.246 10.883,-434.417 12.067,-432.725 15.472,-427.863 17.109,-429.011 
		13.706,-433.872 	"/>
	<path d="M30.512-457.323c-1.444-6.742-7.433-11.8-14.605-11.8c-1.799,0-3.522,0.32-5.118,0.904
		c-0.949-5.108-5.404-8.98-10.788-8.98c-0.413,0-0.819,0.027-1.222,0.071c0.744,1.112,1.179,2.448,1.179,3.886c0,3.865-3.134,7-7,7
		c-1.438,0-2.773-0.435-3.886-1.179c-0.044,0.401-0.071,0.809-0.071,1.222c0,3.712,1.845,6.987,4.661,8.979
		C-7.992-455.313-9-452.831-9-450.108c0,5.983,4.836,10.836,10.813,10.865v0.003H3v-2H2.279l-0.457-0.003
		C-3.042-441.267-7-445.244-7-450.108c0-4.89,3.978-8.868,8.867-8.868c0.15,0,0.299,0.012,0.447,0.022l0.148,0.01l1.314,0.085
		l0.597-1.175c2.225-4.372,6.644-7.089,11.532-7.089c6.062,0,11.382,4.298,12.649,10.219l0.318,1.483l1.514,0.094
		c3.708,0.23,6.612,3.319,6.612,7.03c0,3.878-3.144,7.035-7.017,7.057c-0.042-0.003-0.079-0.005-0.117-0.005l-0.047,0.005H29v2
		h0.819v-0.006c0.042,0.001,0.082,0.006,0.124,0.006c5.001,0,9.057-4.054,9.057-9.057C39-453.106,35.246-457.028,30.512-457.323z
		 M2.592-460.94c-0.241-0.016-0.48-0.036-0.725-0.036c-2.537,0-4.865,0.876-6.715,2.334c-2.012-1.294-3.487-3.354-3.976-5.776
		c0.582,0.117,1.178,0.177,1.78,0.177c4.963,0,9-4.037,9-9c0-0.603-0.06-1.198-0.177-1.78c3.733,0.753,6.629,3.824,7.133,7.641
		C6.202-465.938,3.987-463.683,2.592-460.94z"/>
</g>
<g>
	<rect x="13" y="-539.411" width="2" height="4"/>
	<rect x="21" y="-543.433" width="2" height="4.021"/>
	<rect x="5" y="-543.433" width="2" height="4.021"/>
	<path d="M31.628-559.399c-1.596-7.445-8.207-13.029-16.127-13.029c-6.423,0-11.977,3.678-14.702,9.035
		c-0.266-0.018-0.53-0.04-0.8-0.04c-6.627,0-11.999,5.372-11.999,12c0,6.607,5.34,11.965,11.938,11.998v0.003H2v-2H0.396
		l-0.447-0.003c-5.485-0.027-9.948-4.513-9.948-9.998c0-5.514,4.485-10,9.999-10c0.175,0,0.347,0.014,0.52,0.025l0.148,0.01
		l1.316,0.088l0.598-1.176c2.492-4.899,7.443-7.942,12.92-7.942c6.79,0,12.75,4.814,14.172,11.448l0.317,1.482l1.514,0.095
		c4.203,0.262,7.496,3.763,7.496,7.971c0,4.397-3.565,7.977-7.957,8c-0.05-0.003-0.093-0.005-0.137-0.007l-2.043,0.007H26v2h4.863
		v-0.007c0.046,0.001,0.091,0.007,0.137,0.007c5.521,0,10-4.477,10-10C41-554.743,36.855-559.074,31.628-559.399z"/>
	<circle cx="22" cy="-534.391" r="1.5"/>
	<circle cx="14" cy="-530.422" r="1.5"/>
	<circle cx="6" cy="-534.433" r="1.5"/>
</g>
<g>
	<rect x="105.921" y="-578.865" width="2" height="7.973"/>
	<rect x="86.921" y="-559.951" width="7.973" height="2"/>
	<rect x="91.594" y="-571.218" transform="matrix(0.7071 0.7071 -0.7071 0.7071 -375.2098 -234.5989)" width="7.974" height="2"/>
	<rect x="117.103" y="-574.2" transform="matrix(0.7071 0.7071 -0.7071 0.7071 -368.6107 -250.5229)" width="2" height="7.972"/>
	<path d="M136.433-553.075c-1.444-6.742-7.433-11.8-14.605-11.8c-2.185,0-4.258,0.47-6.126,1.313
		c-1.667-3.202-5.007-5.394-8.866-5.394c-5.522,0-10,4.477-10,9.999c0,2.46,0.899,4.702,2.373,6.442
		c-1.429,1.84-2.287,4.144-2.287,6.653c0,5.983,4.836,10.836,10.813,10.865v0.003h1.188v-2H108.2l-0.457-0.003
		c-4.864-0.023-8.822-4.001-8.822-8.865c0-4.89,3.978-8.868,8.867-8.868c0.15,0,0.299,0.012,0.447,0.022l0.148,0.01l1.314,0.085
		l0.597-1.175c2.225-4.372,6.644-7.089,11.532-7.089c6.062,0,11.382,4.298,12.649,10.219l0.318,1.483l1.514,0.094
		c3.708,0.23,6.612,3.319,6.612,7.03c0,3.878-3.144,7.035-7.017,7.057c-0.042-0.003-0.079-0.005-0.117-0.005l-2.047,0.005h-0.819v2
		h2.819v-0.006c0.042,0.001,0.082,0.006,0.124,0.006c5.001,0,9.057-4.054,9.057-9.057
		C144.921-548.858,141.167-552.78,136.433-553.075z M108.513-556.692c-0.241-0.016-0.48-0.036-0.725-0.036
		c-2.766,0-5.282,1.042-7.2,2.743c-1.092-1.367-1.753-3.09-1.753-4.971c0-4.41,3.589-7.999,8-7.999c3.091,0,5.76,1.773,7.091,4.345
		C111.628-561.171,109.748-559.122,108.513-556.692z"/>
	<rect x="119.921" y="-534.977" width="2" height="4"/>
	<rect x="127.921" y="-538.998" width="2" height="4.021"/>
	<rect x="111.921" y="-538.998" width="2" height="4.021"/>
	<circle cx="128.921" cy="-529.956" r="1.5"/>
	<circle cx="120.921" cy="-525.987" r="1.5"/>
	<circle cx="112.921" cy="-529.998" r="1.5"/>
</g>
<g>
	<path d="M237.358-554.032c-1.444-6.742-7.433-11.8-14.605-11.8c-1.799,0-3.522,0.32-5.118,0.904
		c-0.949-5.108-5.404-8.98-10.788-8.98c-0.413,0-0.819,0.027-1.222,0.071c0.744,1.112,1.179,2.448,1.179,3.886c0,3.865-3.134,7-7,7
		c-1.438,0-2.773-0.435-3.886-1.179c-0.044,0.401-0.071,0.809-0.071,1.222c0,3.712,1.845,6.987,4.661,8.979
		c-1.653,1.907-2.661,4.389-2.661,7.111c0,5.983,4.836,10.836,10.813,10.865v0.003h1.188v-2h-0.721l-0.457-0.003
		c-4.864-0.023-8.822-4.001-8.822-8.865c0-4.89,3.978-8.868,8.867-8.868c0.15,0,0.299,0.012,0.447,0.022l0.148,0.01l1.314,0.085
		l0.597-1.175c2.225-4.372,6.644-7.089,11.532-7.089c6.062,0,11.382,4.298,12.649,10.219l0.318,1.483l1.514,0.094
		c3.708,0.23,6.612,3.319,6.612,7.03c0,3.878-3.144,7.035-7.017,7.057c-0.042-0.003-0.079-0.005-0.117-0.005l-2.047,0.005h-0.819v2
		h2.819v-0.006c0.042,0.001,0.082,0.006,0.124,0.006c5.001,0,9.057-4.054,9.057-9.057
		C245.847-549.815,242.093-553.737,237.358-554.032z M209.438-557.649c-0.241-0.016-0.48-0.036-0.725-0.036
		c-2.537,0-4.865,0.876-6.715,2.334c-2.012-1.294-3.487-3.354-3.976-5.776c0.582,0.117,1.178,0.177,1.78,0.177c4.963,0,9-4.037,9-9
		c0-0.603-0.06-1.198-0.177-1.78c3.733,0.753,6.629,3.824,7.133,7.641C213.049-562.647,210.834-560.392,209.438-557.649z"/>
	<rect x="220.847" y="-535.934" width="2" height="4"/>
	<rect x="228.847" y="-539.955" width="2" height="4.021"/>
	<rect x="212.847" y="-539.955" width="2" height="4.021"/>
	<circle cx="229.847" cy="-530.913" r="1.5"/>
	<circle cx="221.847" cy="-526.944" r="1.5"/>
	<circle cx="213.847" cy="-530.955" r="1.5"/>
</g>
<g>
	<path d="M134.049-461.002c-1.596-7.445-8.207-13.029-16.127-13.029c-6.423,0-11.977,3.678-14.702,9.035
		c-0.266-0.018-0.53-0.04-0.8-0.04c-6.627,0-11.999,5.372-11.999,12c0,6.607,5.34,11.965,11.938,11.998v0.003h6.062v-2h-5.604
		l-0.447-0.003c-5.485-0.027-9.948-4.513-9.948-9.998c0-5.514,4.485-10,9.999-10c0.175,0,0.347,0.014,0.52,0.025l0.148,0.01
		l1.316,0.088l0.598-1.176c2.492-4.899,7.443-7.942,12.92-7.942c6.79,0,12.75,4.814,14.172,11.448l0.317,1.482l1.514,0.095
		c4.203,0.262,7.496,3.763,7.496,7.971c0,4.397-3.565,7.977-7.957,8c-0.05-0.003-0.093-0.005-0.137-0.007l-5.043,0.007h0.137v2
		h4.863v-0.007c0.046,0.001,0.091,0.007,0.137,0.007c5.521,0,10-4.477,10-10C143.421-456.346,139.276-460.677,134.049-461.002z"/>
	<polygon points="118.263,-441.031 120.032,-441.031 120.463,-441.031 122.473,-441.031 116.059,-450.192 114.421,-449.045 
		118.632,-443.031 116.861,-443.031 114.421,-443.031 115.692,-441.215 116.805,-439.626 122.782,-431.031 124.421,-432.178 
		118.443,-440.773 	"/>
</g>
<g>
	<rect x="209.847" y="-480.132" width="2" height="7.973"/>
	<rect x="190.847" y="-461.218" width="7.973" height="2"/>
	<rect x="195.52" y="-472.484" transform="matrix(0.7071 0.7071 -0.7071 0.7071 -274.9556 -279.1672)" width="7.974" height="2"/>
	<rect x="221.028" y="-475.466" transform="matrix(0.7071 0.7071 -0.7071 0.7071 -268.3564 -295.0912)" width="2" height="7.972"/>
	<path d="M240.358-454.342c-1.444-6.742-7.433-11.8-14.605-11.8c-2.185,0-4.258,0.47-6.127,1.313
		c-1.666-3.202-5.006-5.394-8.865-5.394c-5.522,0-10,4.477-10,9.999c0,2.46,0.898,4.702,2.373,6.442
		c-1.428,1.84-2.287,4.144-2.287,6.653c0,5.983,4.836,10.836,10.813,10.865v0.003h4.188v-2h-3.721l-0.457-0.003
		c-4.864-0.023-8.822-4.001-8.822-8.865c0-4.89,3.978-8.868,8.867-8.868c0.15,0,0.299,0.012,0.447,0.022l0.148,0.01l1.314,0.085
		l0.597-1.175c2.225-4.372,6.644-7.089,11.532-7.089c6.062,0,11.382,4.298,12.649,10.219l0.318,1.483l1.514,0.094
		c3.708,0.23,6.612,3.319,6.612,7.03c0,3.878-3.144,7.035-7.017,7.057c-0.042-0.003-0.079-0.005-0.117-0.005l-2.047,0.005h-3.819v2
		h5.819v-0.006c0.042,0.001,0.082,0.006,0.124,0.006c5.001,0,9.057-4.054,9.057-9.057
		C248.847-450.125,245.093-454.047,240.358-454.342z M212.438-457.959c-0.241-0.016-0.48-0.036-0.725-0.036
		c-2.766,0-5.281,1.041-7.2,2.743c-1.092-1.366-1.753-3.09-1.753-4.971c0-4.41,3.589-7.999,8-7.999c3.092,0,5.76,1.773,7.092,4.345
		C215.554-462.437,213.675-460.389,212.438-457.959z"/>
	<polygon points="224.688,-436.252 226.458,-436.252 226.889,-436.252 228.898,-436.252 222.484,-445.413 220.847,-444.266 
		225.058,-438.252 223.287,-438.252 220.847,-438.252 222.118,-436.436 223.23,-434.847 229.208,-426.252 230.847,-427.398 
		224.869,-435.994 	"/>
</g>
<g>
	<path d="M339.943-456.638c-1.444-6.742-7.433-11.8-14.605-11.8c-1.799,0-3.521,0.32-5.118,0.904
		c-0.949-5.108-5.404-8.98-10.788-8.98c-0.413,0-0.819,0.027-1.222,0.071c0.744,1.112,1.179,2.448,1.179,3.886c0,3.865-3.134,7-7,7
		c-1.438,0-2.773-0.435-3.886-1.179c-0.044,0.401-0.071,0.809-0.071,1.222c0,3.712,1.845,6.987,4.661,8.979
		c-1.653,1.907-2.661,4.389-2.661,7.111c0,5.983,4.836,10.836,10.813,10.865v0.003h4.188v-2h-3.721l-0.457-0.003
		c-4.864-0.023-8.822-4.001-8.822-8.865c0-4.89,3.978-8.868,8.867-8.868c0.15,0,0.299,0.012,0.447,0.022l0.148,0.01l1.314,0.085
		l0.597-1.175c2.225-4.372,6.644-7.089,11.532-7.089c6.062,0,11.382,4.298,12.649,10.219l0.318,1.483l1.514,0.094
		c3.708,0.23,6.612,3.319,6.612,7.03c0,3.878-3.144,7.035-7.017,7.057c-0.042-0.003-0.079-0.005-0.117-0.005l-2.047,0.005h-3.819v2
		h5.819v-0.006c0.042,0.001,0.082,0.006,0.124,0.006c5.001,0,9.057-4.054,9.057-9.057
		C348.432-452.421,344.678-456.343,339.943-456.638z M312.023-460.255c-0.241-0.016-0.48-0.036-0.725-0.036
		c-2.537,0-4.865,0.876-6.715,2.334c-2.012-1.294-3.486-3.354-3.976-5.776c0.582,0.117,1.178,0.177,1.78,0.177c4.963,0,9-4.037,9-9
		c0-0.603-0.06-1.198-0.177-1.78c3.733,0.753,6.629,3.824,7.134,7.64C315.633-465.253,313.418-462.998,312.023-460.255z"/>
	<polygon points="324.273,-438.548 326.043,-438.548 326.474,-438.548 328.483,-438.548 322.069,-447.709 320.432,-446.562 
		324.643,-440.548 322.872,-440.548 320.432,-440.548 321.703,-438.731 322.815,-437.143 328.793,-428.548 330.432,-429.694 
		324.454,-438.29 	"/>
</g>
<g>
	<path d="M440.828-460.502c-1.596-7.445-8.207-13.029-16.127-13.029c-6.423,0-11.977,3.678-14.702,9.035
		c-0.266-0.018-0.53-0.04-0.8-0.04c-6.627,0-11.999,5.372-11.999,12c0,6.607,5.34,11.965,11.938,11.998v0.003h1.062v-2h-0.604
		l-0.447-0.003c-5.485-0.027-9.948-4.513-9.948-9.998c0-5.514,4.485-10,9.999-10c0.175,0,0.347,0.014,0.52,0.025l0.148,0.01
		l1.316,0.088l0.598-1.176c2.492-4.899,7.443-7.942,12.92-7.942c6.79,0,12.75,4.814,14.172,11.448l0.317,1.482l1.514,0.095
		c4.203,0.262,7.496,3.763,7.496,7.971c0,4.397-3.565,7.977-7.957,8c-0.05-0.003-0.093-0.005-0.137-0.007l-0.906,0.007v2h0.863
		v-0.007c0.046,0.001,0.091,0.007,0.137,0.007c5.521,0,10-4.477,10-10C450.2-455.846,446.056-460.177,440.828-460.502z"/>
	
		<rect x="409.635" y="-442.537" transform="matrix(-0.5736 -0.8191 0.8191 -0.5736 1015.0829 -354.7051)" width="11.183" height="1.999"/>
	
		<rect x="427.609" y="-442.537" transform="matrix(-0.5736 -0.8191 0.8191 -0.5736 1043.3684 -339.982)" width="11.183" height="1.999"/>
	<polygon points="426.042,-437.531 427.812,-437.531 428.242,-437.531 430.252,-437.531 423.838,-446.692 422.2,-445.545 
		426.411,-439.531 424.641,-439.531 422.2,-439.531 423.472,-437.715 424.584,-436.126 429.2,-429.531 430.839,-430.678 
		426.223,-437.273 	"/>
</g>
<g>
	<rect x="515.676" y="-479.969" width="2" height="7.973"/>
	<rect x="496.676" y="-461.055" width="7.973" height="2"/>
	<rect x="501.349" y="-472.321" transform="matrix(0.7071 0.7071 -0.7071 0.7071 -185.265 -495.3733)" width="7.974" height="2"/>
	<rect x="526.858" y="-475.303" transform="matrix(0.7071 0.7071 -0.7071 0.7071 -178.6658 -511.2972)" width="2" height="7.972"/>
	<path d="M546.188-454.179c-1.444-6.742-7.433-11.8-14.605-11.8c-2.185,0-4.258,0.47-6.126,1.313
		c-1.667-3.202-5.007-5.394-8.866-5.394c-5.522,0-10,4.477-10,9.999c0,2.46,0.899,4.702,2.373,6.442
		c-1.429,1.84-2.287,4.144-2.287,6.653c0,5.983,4.836,10.836,10.813,10.865v0.003h0.188v-2l-0.178-0.003
		c-4.864-0.023-8.822-4.001-8.822-8.865c0-4.89,3.978-8.868,8.867-8.868c0.15,0,0.299,0.012,0.447,0.022l0.148,0.01l1.314,0.085
		l0.597-1.175c2.225-4.372,6.644-7.089,11.532-7.089c6.062,0,11.382,4.298,12.649,10.219l0.318,1.483l1.514,0.094
		c3.708,0.23,6.612,3.319,6.612,7.03c0,3.878-3.144,7.035-7.017,7.057c-0.042-0.003-0.079-0.005-0.117-0.005l-0.866,0.005v2h0.819
		v-0.006c0.042,0.001,0.082,0.006,0.124,0.006c5.001,0,9.057-4.054,9.057-9.057C554.676-449.962,550.922-453.884,546.188-454.179z
		 M518.268-457.796c-0.241-0.016-0.48-0.036-0.725-0.036c-2.766,0-5.282,1.042-7.2,2.743c-1.092-1.367-1.753-3.09-1.753-4.971
		c0-4.41,3.589-7.999,8-7.999c3.091,0,5.76,1.773,7.091,4.345C521.383-462.274,519.503-460.226,518.268-457.796z"/>
	
		<rect x="516.097" y="-438.099" transform="matrix(-0.5736 -0.8191 0.8191 -0.5736 1178.9814 -260.5159)" width="11.183" height="1.999"/>
	
		<rect x="534.072" y="-438.099" transform="matrix(-0.5736 -0.8191 0.8191 -0.5736 1207.267 -245.7927)" width="11.183" height="1.999"/>
	<polygon points="532.505,-433.093 534.274,-433.093 534.705,-433.093 536.715,-433.093 530.301,-442.254 528.663,-441.106 
		532.874,-435.093 531.104,-435.093 528.663,-435.093 529.935,-433.276 531.047,-431.688 535.663,-425.093 537.302,-426.239 
		532.686,-432.835 	"/>
</g>
<g>
	<path d="M648.025-457.137c-1.444-6.742-7.433-11.8-14.605-11.8c-1.799,0-3.522,0.32-5.118,0.904
		c-0.949-5.108-5.404-8.98-10.788-8.98c-0.413,0-0.819,0.027-1.222,0.071c0.744,1.112,1.179,2.448,1.179,3.886c0,3.865-3.134,7-7,7
		c-1.438,0-2.773-0.435-3.886-1.179c-0.044,0.401-0.071,0.809-0.071,1.222c0,3.712,1.845,6.987,4.661,8.979
		c-1.653,1.907-2.661,4.389-2.661,7.111c0,5.983,4.836,10.836,10.813,10.865v0.003h0.188v-2l-0.178-0.003
		c-4.864-0.023-8.822-4.001-8.822-8.865c0-4.89,3.978-8.868,8.867-8.868c0.15,0,0.299,0.012,0.447,0.022l0.148,0.01l1.314,0.085
		l0.597-1.175c2.225-4.372,6.644-7.089,11.532-7.089c6.062,0,11.382,4.298,12.649,10.219l0.318,1.483l1.514,0.094
		c3.708,0.23,6.612,3.319,6.612,7.03c0,3.878-3.144,7.035-7.017,7.057c-0.042-0.003-0.079-0.005-0.117-0.005l-0.866,0.005v2h0.819
		v-0.006c0.042,0.001,0.082,0.006,0.124,0.006c5.001,0,9.057-4.054,9.057-9.057C656.514-452.92,652.76-456.842,648.025-457.137z
		 M620.105-460.754c-0.241-0.016-0.48-0.036-0.725-0.036c-2.537,0-4.865,0.876-6.715,2.334c-2.012-1.294-3.487-3.354-3.976-5.776
		c0.582,0.117,1.178,0.177,1.78,0.177c4.963,0,9-4.037,9-9c0-0.603-0.06-1.198-0.177-1.78c3.733,0.753,6.629,3.824,7.133,7.641
		C623.716-465.752,621.501-463.496,620.105-460.754z"/>
	
		<rect x="617.934" y="-441.057" transform="matrix(-0.5736 -0.8191 0.8191 -0.5736 1341.6588 -181.7552)" width="11.183" height="1.999"/>
	
		<rect x="635.909" y="-441.057" transform="matrix(-0.5736 -0.8191 0.8191 -0.5736 1369.9443 -167.032)" width="11.183" height="1.999"/>
	<polygon points="634.342,-436.051 636.111,-436.051 636.542,-436.051 638.552,-436.051 632.138,-445.212 630.5,-444.064 
		634.711,-438.051 632.94,-438.051 630.5,-438.051 631.771,-436.234 632.884,-434.646 637.5,-428.051 639.139,-429.197 
		634.522,-435.793 	"/>
</g>
<g>
	<g>
		<path d="M237.463-370.682c-1.596-7.445-8.207-13.029-16.127-13.029c-6.423,0-11.977,3.678-14.702,9.035
			c-0.266-0.018-0.53-0.04-0.8-0.04c-6.627,0-11.999,5.372-11.999,12c0,6.607,5.34,11.965,11.938,11.998v0.003h2.062v-2h-1.604
			l-0.447-0.003c-5.485-0.027-9.948-4.513-9.948-9.998c0-5.514,4.485-10,9.999-10c0.175,0,0.347,0.014,0.52,0.025l0.148,0.01
			l1.316,0.088l0.598-1.176c2.492-4.899,7.443-7.942,12.92-7.942c6.79,0,12.75,4.814,14.172,11.448l0.317,1.482l1.514,0.095
			c4.203,0.262,7.496,3.763,7.496,7.971c0,4.397-3.565,7.977-7.957,8c-0.05-0.003-0.093-0.005-0.137-0.007l-2.043,0.007h-2.863v2
			h4.863v-0.007c0.046,0.001,0.091,0.007,0.137,0.007c5.521,0,10-4.477,10-10C246.835-366.025,242.69-370.356,237.463-370.682z"/>
	</g>
	<g>
		<circle cx="212.335" cy="-357.139" r="1.5"/>
	</g>
	<g>
		<circle cx="216.335" cy="-351.215" r="1.5"/>
	</g>
	<g>
		<circle cx="224.335" cy="-351.215" r="1.5"/>
	</g>
	<g>
		<circle cx="220.335" cy="-357.139" r="1.5"/>
	</g>
	<g>
		<circle cx="228.335" cy="-357.139" r="1.5"/>
	</g>
	<g>
		<circle cx="212.335" cy="-345.193" r="1.5"/>
	</g>
	<g>
		<circle cx="220.335" cy="-345.193" r="1.5"/>
	</g>
	<g>
		<circle cx="228.335" cy="-345.193" r="1.5"/>
	</g>
</g>
<g>
	<g>
		<rect x="313.249" y="-386.159" width="2" height="7.973"/>
	</g>
	<g>
		<rect x="294.249" y="-367.245" width="7.973" height="2"/>
	</g>
	<g>
		<rect x="298.922" y="-378.512" transform="matrix(0.7071 0.7071 -0.7071 0.7071 -178.2211 -324.7598)" width="7.974" height="2"/>
	</g>
	<g>
		<rect x="324.431" y="-381.494" transform="matrix(0.7071 0.7071 -0.7071 0.7071 -171.6219 -340.6837)" width="2" height="7.972"/>
	</g>
	<g>
		<path d="M343.761-360.369c-1.444-6.742-7.433-11.8-14.605-11.8c-2.185,0-4.258,0.47-6.127,1.313
			c-1.666-3.202-5.006-5.394-8.865-5.394c-5.522,0-10,4.477-10,9.999c0,2.46,0.898,4.702,2.373,6.442
			c-1.428,1.84-2.287,4.144-2.287,6.653c0,5.983,4.836,10.836,10.813,10.865v0.003h1.188v-2h-0.721l-0.457-0.003
			c-4.864-0.023-8.822-4.001-8.822-8.865c0-4.89,3.978-8.868,8.867-8.868c0.15,0,0.299,0.012,0.447,0.022l0.148,0.01l1.314,0.085
			l0.597-1.175c2.225-4.372,6.644-7.089,11.532-7.089c6.062,0,11.382,4.298,12.649,10.219l0.318,1.483l1.514,0.094
			c3.708,0.23,6.612,3.319,6.612,7.03c0,3.878-3.144,7.035-7.017,7.057c-0.042-0.003-0.079-0.005-0.117-0.005l-2.047,0.005h-1.819v2
			h3.819v-0.006c0.042,0.001,0.082,0.006,0.124,0.006c5.001,0,9.057-4.054,9.057-9.057
			C352.249-356.152,348.495-360.074,343.761-360.369z M315.841-363.986c-0.241-0.016-0.48-0.036-0.725-0.036
			c-2.766,0-5.281,1.042-7.2,2.743c-1.092-1.367-1.753-3.09-1.753-4.971c0-4.41,3.589-7.999,8-7.999c3.092,0,5.76,1.773,7.092,4.345
			C318.956-368.465,317.077-366.416,315.841-363.986z"/>
	</g>
	<g>
		<circle cx="319.738" cy="-348.775" r="1.5"/>
	</g>
	<g>
		<circle cx="323.738" cy="-342.775" r="1.5"/>
	</g>
	<g>
		<circle cx="331.738" cy="-342.775" r="1.5"/>
	</g>
	<g>
		<circle cx="327.738" cy="-348.775" r="1.5"/>
	</g>
	<g>
		<circle cx="335.738" cy="-348.775" r="1.5"/>
	</g>
	<g>
		<circle cx="319.738" cy="-336.754" r="1.5"/>
	</g>
	<g>
		<circle cx="327.738" cy="-336.754" r="1.5"/>
	</g>
	<g>
		<circle cx="335.738" cy="-336.754" r="1.5"/>
	</g>
</g>
<g>
	<g>
		<path d="M439.712-364.325c-1.444-6.742-7.433-11.8-14.605-11.8c-1.799,0-3.521,0.32-5.118,0.904
			c-0.949-5.108-5.404-8.98-10.788-8.98c-0.413,0-0.819,0.027-1.222,0.071c0.744,1.112,1.179,2.448,1.179,3.886c0,3.865-3.134,7-7,7
			c-1.438,0-2.773-0.435-3.886-1.179c-0.044,0.401-0.071,0.809-0.071,1.222c0,3.712,1.845,6.987,4.661,8.979
			c-1.653,1.907-2.661,4.389-2.661,7.111c0,5.983,4.836,10.836,10.813,10.865v0.003h1.188v-2h-0.721l-0.457-0.003
			c-4.864-0.023-8.822-4.001-8.822-8.865c0-4.89,3.978-8.868,8.867-8.868c0.15,0,0.299,0.012,0.447,0.022l0.148,0.01l1.314,0.085
			l0.597-1.175c2.225-4.372,6.644-7.089,11.532-7.089c6.062,0,11.382,4.298,12.649,10.219l0.318,1.483l1.514,0.094
			c3.708,0.23,6.612,3.319,6.612,7.03c0,3.878-3.144,7.035-7.017,7.057c-0.042-0.003-0.079-0.005-0.117-0.005l-2.047,0.005H435.2v2
			h3.819v-0.006c0.042,0.001,0.082,0.006,0.124,0.006c5.001,0,9.057-4.054,9.057-9.057
			C448.2-360.108,444.446-364.03,439.712-364.325z M411.792-367.942c-0.241-0.016-0.48-0.036-0.725-0.036
			c-2.537,0-4.865,0.876-6.715,2.334c-2.012-1.294-3.486-3.354-3.976-5.776c0.582,0.117,1.178,0.177,1.78,0.177c4.963,0,9-4.037,9-9
			c0-0.603-0.06-1.198-0.177-1.78c3.733,0.753,6.629,3.824,7.134,7.64C415.401-372.94,413.187-370.686,411.792-367.942z"/>
	</g>
	<g>
		<circle cx="415.7" cy="-352.732" r="1.5"/>
	</g>
	<g>
		<circle cx="419.7" cy="-346.732" r="1.5"/>
	</g>
	<g>
		<circle cx="427.7" cy="-346.732" r="1.5"/>
	</g>
	<g>
		<circle cx="423.7" cy="-352.732" r="1.5"/>
	</g>
	<g>
		<circle cx="431.7" cy="-352.732" r="1.5"/>
	</g>
	<g>
		<circle cx="415.7" cy="-340.711" r="1.5"/>
	</g>
	<g>
		<circle cx="423.7" cy="-340.711" r="1.5"/>
	</g>
	<g>
		<circle cx="431.7" cy="-340.711" r="1.5"/>
	</g>
</g>
<g>
	<path d="M750.877-463.211c-1.596-7.445-8.207-13.029-16.127-13.029c-6.423,0-11.977,3.678-14.702,9.035
		c-0.266-0.018-0.53-0.04-0.8-0.04c-6.627,0-11.999,5.372-11.999,12c0,6.607,5.34,11.965,11.938,11.998v0.003h2.062v-2h-1.604
		l-0.447-0.003c-5.485-0.027-9.948-4.513-9.948-9.998c0-5.514,4.485-10,9.999-10c0.175,0,0.347,0.014,0.52,0.025l0.148,0.01
		l1.316,0.088l0.598-1.176c2.492-4.899,7.443-7.942,12.92-7.942c6.79,0,12.75,4.814,14.172,11.448l0.317,1.482l1.514,0.095
		c4.203,0.262,7.496,3.763,7.496,7.971c0,4.397-3.565,7.977-7.957,8c-0.05-0.003-0.093-0.005-0.137-0.007l-2.043,0.007h-2.863v2
		h4.863v-0.007c0.046,0.001,0.091,0.007,0.137,0.007c5.521,0,10-4.477,10-10C760.249-458.555,756.104-462.886,750.877-463.211z"/>
	<circle cx="725.249" cy="-435.74" r="1.5"/>
	<circle cx="733.249" cy="-429.74" r="1.5"/>
	<circle cx="741.249" cy="-433.74" r="1.5"/>
	<rect x="724.249" y="-452.216" width="2" height="11.976"/>
	<polygon points="734.249,-434.275 734.249,-436.216 734.249,-448.216 732.249,-448.216 732.249,-436.216 732.249,-434.275 
		732.249,-434.24 734.249,-434.24 	"/>
	<polygon points="742.249,-438.463 742.249,-440.216 742.249,-452.216 740.249,-452.216 740.249,-440.216 740.249,-438.463 
		740.249,-438.24 742.249,-438.24 	"/>
</g>
<g>
	<rect x="2.5" y="-391.598" width="2" height="7.973"/>
	<rect x="-16.5" y="-372.684" width="7.973" height="2"/>
	<rect x="-11.827" y="-383.95" transform="matrix(0.7071 0.7071 -0.7071 0.7071 -273.0829 -106.6199)" width="7.974" height="2"/>
	<rect x="13.682" y="-386.932" transform="matrix(0.7071 0.7071 -0.7071 0.7071 -266.4838 -122.5439)" width="2" height="7.972"/>
	<path d="M33.012-365.808c-1.444-6.742-7.433-11.8-14.605-11.8c-2.185,0-4.258,0.47-6.126,1.313
		c-1.667-3.202-5.007-5.394-8.866-5.394c-5.522,0-10,4.477-10,9.999c0,2.46,0.899,4.702,2.373,6.442
		c-1.429,1.84-2.287,4.144-2.287,6.653c0,5.983,4.836,10.836,10.813,10.865v0.003H5.5v-2H4.779l-0.457-0.003
		c-4.864-0.023-8.822-4.001-8.822-8.865c0-4.89,3.978-8.868,8.867-8.868c0.15,0,0.299,0.012,0.447,0.022l0.148,0.01l1.314,0.085
		l0.597-1.175c2.225-4.372,6.644-7.089,11.532-7.089c6.062,0,11.382,4.298,12.649,10.219l0.318,1.483l1.514,0.094
		c3.708,0.23,6.612,3.319,6.612,7.03c0,3.878-3.144,7.035-7.017,7.057c-0.042-0.003-0.079-0.005-0.117-0.005l-2.047,0.005H29.5v2
		h2.819v-0.006c0.042,0.001,0.082,0.006,0.124,0.006c5.001,0,9.057-4.054,9.057-9.057C41.5-361.591,37.746-365.513,33.012-365.808z
		 M5.092-369.425c-0.241-0.016-0.48-0.036-0.725-0.036c-2.766,0-5.282,1.041-7.2,2.743c-1.092-1.366-1.753-3.09-1.753-4.971
		c0-4.41,3.589-7.999,8-7.999c3.091,0,5.76,1.773,7.091,4.345C8.207-373.902,6.327-371.854,5.092-369.425z"/>
	<circle cx="9.49" cy="-339.237" r="1.5"/>
	<circle cx="17.49" cy="-333.237" r="1.5"/>
	<circle cx="25.49" cy="-337.237" r="1.5"/>
	<rect x="8.49" y="-355.713" width="2" height="11.976"/>
	<polygon points="18.49,-337.772 18.49,-339.713 18.49,-351.713 16.49,-351.713 16.49,-339.713 16.49,-337.772 16.49,-337.737 
		18.49,-337.737 	"/>
	<polygon points="26.49,-341.96 26.49,-343.713 26.49,-355.713 24.49,-355.713 24.49,-343.713 24.49,-341.96 24.49,-341.737 
		26.49,-341.737 	"/>
</g>
<g>
	<path d="M133.614-368.806c-1.444-6.742-7.433-11.8-14.605-11.8c-1.799,0-3.522,0.32-5.118,0.904
		c-0.949-5.108-5.404-8.98-10.788-8.98c-0.413,0-0.819,0.027-1.222,0.071c0.744,1.112,1.179,2.448,1.179,3.886c0,3.865-3.134,7-7,7
		c-1.438,0-2.773-0.435-3.886-1.179c-0.044,0.401-0.071,0.809-0.071,1.222c0,3.712,1.845,6.987,4.661,8.979
		c-1.653,1.907-2.661,4.389-2.661,7.111c0,5.983,4.836,10.836,10.813,10.865v0.003h1.188v-2h-0.721l-0.457-0.003
		c-4.864-0.023-8.822-4.001-8.822-8.865c0-4.89,3.978-8.868,8.867-8.868c0.15,0,0.299,0.012,0.447,0.022l0.148,0.01l1.314,0.085
		l0.597-1.175c2.225-4.372,6.644-7.089,11.532-7.089c6.062,0,11.382,4.298,12.649,10.219l0.318,1.483l1.514,0.094
		c3.708,0.23,6.612,3.319,6.612,7.03c0,3.878-3.144,7.035-7.017,7.057c-0.042-0.003-0.079-0.005-0.117-0.005l-2.047,0.005h-0.819v2
		h2.819v-0.006c0.042,0.001,0.082,0.006,0.124,0.006c5.001,0,9.057-4.054,9.057-9.057
		C142.103-364.589,138.349-368.511,133.614-368.806z M105.694-372.423c-0.241-0.016-0.48-0.036-0.725-0.036
		c-2.537,0-4.865,0.876-6.715,2.334c-2.012-1.294-3.487-3.354-3.976-5.776c0.582,0.117,1.178,0.177,1.78,0.177c4.963,0,9-4.037,9-9
		c0-0.603-0.06-1.198-0.177-1.78c3.733,0.753,6.629,3.824,7.133,7.64C109.305-377.421,107.09-375.166,105.694-372.423z"/>
	<circle cx="110.103" cy="-342.231" r="1.5"/>
	<circle cx="118.103" cy="-336.231" r="1.5"/>
	<circle cx="126.103" cy="-340.231" r="1.5"/>
	<rect x="109.103" y="-358.707" width="2" height="11.976"/>
	<polygon points="119.103,-340.767 119.103,-342.707 119.103,-354.707 117.103,-354.707 117.103,-342.707 117.103,-340.767 
		117.103,-340.731 119.103,-340.731 	"/>
	<polygon points="127.103,-344.954 127.103,-346.707 127.103,-358.707 125.103,-358.707 125.103,-346.707 125.103,-344.954 
		125.103,-344.731 127.103,-344.731 	"/>
</g>
<g>
	<rect x="-14.5" y="-264.365" width="56" height="2"/>
	<rect x="-10.5" y="-258.365" width="50" height="2"/>
	<rect x="-4.5" y="-252.365" width="36" height="2"/>
	<rect x="-12.5" y="-270.365" width="52" height="2"/>
	<path d="M-0.626-278.37c0.175,0,0.347,0.014,0.519,0.025l0.149,0.01l1.316,0.088l0.598-1.176c2.493-4.899,7.443-7.942,12.92-7.942
		c6.79,0,12.75,4.814,14.171,11.448l0.318,1.482l1.514,0.095c1.207,0.075,2.335,0.425,3.336,0.975h3.286
		c-1.678-1.703-3.957-2.813-6.498-2.971c-1.596-7.445-8.207-13.029-16.127-13.029c-6.423,0-11.977,3.678-14.702,9.035
		c-0.266-0.018-0.53-0.04-0.8-0.04c-4.843,0-9.004,2.874-10.9,7.005h2.251C-7.544-276.352-4.319-278.37-0.626-278.37z"/>
</g>
<g>
	<rect x="106.603" y="-291.88" width="2" height="7.973"/>
	<rect x="87.603" y="-272.966" width="7.973" height="2"/>
	<rect x="92.276" y="-284.232" transform="matrix(0.7071 0.7071 -0.7071 0.7071 -172.0809 -151.0249)" width="7.974" height="2"/>
	<rect x="117.784" y="-287.214" transform="matrix(0.7071 0.7071 -0.7071 0.7071 -165.4817 -166.9488)" width="2" height="7.972"/>
	<rect x="96.603" y="-258.006" width="50" height="2"/>
	<rect x="100.603" y="-252.006" width="44" height="2"/>
	<rect x="106.603" y="-247.006" width="30" height="2"/>
	<rect x="98.603" y="-264.006" width="46" height="2"/>
	<path d="M99.511-266.006h0.771h1.927h1.012c1.472-1.087,3.283-1.737,5.249-1.737c0.15,0,0.299,0.012,0.447,0.022l0.148,0.01
		l1.314,0.085l0.597-1.175c2.225-4.372,6.644-7.089,11.532-7.089c5.945,0,11.168,4.139,12.563,9.884h2.043v-0.084
		c-1.444-6.742-7.433-11.8-14.605-11.8c-2.185,0-4.258,0.47-6.126,1.313c-1.667-3.202-5.007-5.394-8.866-5.394
		c-5.522,0-10,4.477-10,9.999C97.517-269.729,98.265-267.671,99.511-266.006z M107.517-279.97c3.091,0,5.76,1.773,7.091,4.345
		c-2.298,1.44-4.178,3.488-5.413,5.918c-0.241-0.016-0.48-0.036-0.725-0.036c-2.764,0-5.274,1.045-7.189,2.745
		c-1.097-1.366-1.764-3.089-1.764-4.973C99.517-276.381,103.105-279.97,107.517-279.97z"/>
</g>
<g>
	<rect x="195.347" y="-261.443" width="50" height="2"/>
	<rect x="199.347" y="-255.443" width="44" height="2"/>
	<rect x="205.347" y="-250.443" width="30" height="2"/>
	<rect x="197.347" y="-267.443" width="46" height="2"/>
	<path d="M198.989-269.443h0.037h1.884h1.055c1.472-1.087,3.283-1.737,5.249-1.737c0.15,0,0.299,0.012,0.447,0.022l0.148,0.01
		l1.314,0.085l0.597-1.175c2.225-4.372,6.644-7.089,11.532-7.089c5.945,0,11.168,4.139,12.563,9.884h2.043v-0.084
		c-1.444-6.742-7.433-11.8-14.605-11.8c-1.799,0-3.521,0.32-5.117,0.903c-0.945-5.111-5.402-8.987-10.789-8.987
		c-0.413,0-0.819,0.027-1.222,0.071c0.744,1.112,1.179,2.448,1.179,3.886c0,3.865-3.134,7-7,7c-1.438,0-2.773-0.435-3.886-1.179
		c-0.044,0.401-0.071,0.809-0.071,1.222C194.347-274.707,196.183-271.437,198.989-269.443z M198.304-276.454c4.963,0,9-4.037,9-9
		c0-0.603-0.06-1.198-0.177-1.78c3.735,0.753,6.633,3.828,7.134,7.647c-2.712,1.443-4.927,3.699-6.322,6.442
		c-0.241-0.016-0.48-0.036-0.725-0.036c-2.534,0-4.855,0.879-6.701,2.335c-2.02-1.293-3.5-3.356-3.989-5.785
		C197.105-276.514,197.701-276.454,198.304-276.454z"/>
</g>
<g>
	<path d="M327.238-258.43h-19.474l-0.578-0.003c-5.485-0.027-9.948-4.513-9.948-9.998c0-5.514,4.485-10,9.999-10
		c0.175,0,0.347,0.014,0.519,0.025l0.149,0.01l1.316,0.088l0.598-1.176c2.493-4.899,7.443-7.942,12.92-7.942
		c6.79,0,12.75,4.814,14.171,11.448l0.318,1.482l1.514,0.095c1.822,0.113,3.463,0.845,4.746,1.971h2.732
		c-1.707-2.262-4.348-3.78-7.354-3.967c-1.596-7.445-8.207-13.029-16.127-13.029c-6.423,0-11.977,3.678-14.702,9.035
		c-0.266-0.018-0.53-0.04-0.8-0.04c-6.627,0-11.999,5.372-11.999,12c0,6.607,5.34,11.965,11.938,11.998v0.003h20.062
		c2.205,0,4,1.794,4,4s-1.795,4-4,4v2c3.314,0,6-2.686,6-6C333.238-255.743,330.553-258.43,327.238-258.43z"/>
	<path d="M331.238-262.43H315.25v2h15.988c3.314,0,6-2.687,6-6c0-3.314-2.686-6-6-6v2c2.205,0,4,1.794,4,4
		S333.443-262.43,331.238-262.43z"/>
	<path d="M344.238-268.43c1.654,0,3,1.346,3,3s-1.346,3-3,3c-0.043,0-0.083-0.011-0.126-0.013h-4.862
		c0.003,0.005,0.009,0.008,0.012,0.013h-0.023v2h5.5v-0.051c2.523-0.254,4.5-2.358,4.5-4.949c0-2.762-2.238-5-5-5V-268.43z"/>
	<path d="M348.238-258.43h-13v2h9.022c-0.004,0.005-0.008,0.008-0.011,0.013h3.862c0.043-0.002,0.083-0.013,0.126-0.013
		c1.654,0,3,1.346,3,3s-1.346,3-3,3v2c2.762,0,5-2.238,5-5S351-258.43,348.238-258.43z"/>
	<rect x="309.238" y="-262.43" width="4" height="2"/>
</g>
<path d="M119.677-657.533c6.95,1.305,12.226,7.419,12.226,14.742c0,8.272-6.729,15.002-15,15.002c-6.79,0-12.531-4.49-14.366-10.728
	c1.398,0.461,2.867,0.698,4.366,0.698c7.72,0,14-6.281,14-14.001C120.902-653.804,120.479-655.748,119.677-657.533 M116.902-659.79
	c-0.338,0-0.668,0.031-1,0.051c1.861,2.113,3,4.881,3,7.92c0,6.627-5.372,12.001-12,12.001c-2.599,0-4.998-0.835-6.963-2.239
	c0.387,9.047,7.821,16.269,16.963,16.269c9.39,0,17-7.612,17-17.002S126.292-659.79,116.902-659.79L116.902-659.79z"/>
<g>
	<path d="M13.507-654.795c-7.18,0-13,5.819-13,12.999c0,7.181,5.82,13.002,13,13.002s13-5.821,13-13.002
		C26.507-648.976,20.687-654.795,13.507-654.795z M13.507-630.794c-6.065,0-11-4.936-11-11.002c0-6.064,4.935-10.999,11-10.999
		s11,4.935,11,10.999C24.507-635.729,19.572-630.794,13.507-630.794z"/>
	<rect x="12.5" y="-667.789" width="2" height="10"/>
	<rect x="12.5" y="-625.789" width="2" height="10"/>
	<rect x="-12.493" y="-642.789" width="9.993" height="2"/>
	<rect x="29.5" y="-642.789" width="10.007" height="2"/>
	<rect x="27.2" y="-661.703" transform="matrix(0.7071 0.7071 -0.7071 0.7071 -455.9551 -212.2242)" width="2" height="10.409"/>
	<rect x="-2.209" y="-632.294" transform="matrix(-0.7071 -0.7071 0.7071 -0.7071 441.3553 -1071.3634)" width="2" height="10.41"/>
	<rect x="-6.409" y="-657.494" transform="matrix(0.7071 0.7071 -0.7071 0.7071 -464.5639 -191.4308)" width="10.409" height="2"/>
	<rect x="22.999" y="-628.084" transform="matrix(-0.7072 -0.7071 0.7071 -0.7072 491.535 -1050.5876)" width="10.41" height="2"/>
</g>
<g>
	<rect x="411.673" y="-296.928" width="2" height="7.973"/>
	<rect x="392.7" y="-277.941" width="7.973" height="2"/>
	<rect x="397.426" y="-289.16" transform="matrix(0.7071 0.7071 -0.7071 0.7071 -86.1888 -368.2421)" width="7.974" height="2"/>
	<rect x="422.935" y="-292.142" transform="matrix(0.7071 0.7071 -0.7071 0.7071 -79.5897 -384.166)" width="2" height="7.972"/>
	<path d="M426.7-254.928l0.005-0.007h-12.536l-0.594-0.003c-4.864-0.024-8.822-4.001-8.822-8.865c0-4.89,3.978-8.868,8.867-8.868
		c0.15,0,0.299,0.012,0.447,0.021l0.148,0.011l1.314,0.085l0.597-1.174c2.225-4.373,6.644-7.09,11.532-7.09
		c5.916,0,11.114,4.099,12.54,9.8h2.065c-1.444-6.742-7.433-11.8-14.605-11.8c-2.185,0-4.258,0.47-6.126,1.313
		c-1.667-3.202-5.007-5.394-8.866-5.394c-5.522,0-10,4.477-10,9.999c0,2.46,0.899,4.702,2.373,6.442
		c-1.429,1.84-2.287,4.144-2.287,6.653c0,5.983,4.836,10.836,10.813,10.865v0.003H426.7v0.007c2.205,0,4,1.794,4,4s-1.795,4-4,4v2
		c3.314,0,6-2.686,6-6C432.7-252.241,430.015-254.928,426.7-254.928z M412.667-284.897c3.091,0,5.76,1.773,7.091,4.345
		c-2.298,1.439-4.178,3.488-5.413,5.918c-0.241-0.016-0.48-0.036-0.725-0.036c-2.766,0-5.282,1.042-7.2,2.743
		c-1.092-1.367-1.753-3.09-1.753-4.971C404.667-281.309,408.256-284.897,412.667-284.897z"/>
	<path d="M430.7-258.928h-9.988v2h9.988c3.314,0,6-2.687,6-6c0-3.314-2.686-6-6-6v2c2.205,0,4,1.794,4,4
		S432.905-258.928,430.7-258.928z"/>
	<path d="M438.724-258.928H438.7v2h5.5v-0.051c2.523-0.254,4.5-2.358,4.5-4.949c0-2.762-2.238-5-5-5v2c1.654,0,3,1.346,3,3
		s-1.346,3-3,3c-0.043,0-0.083-0.011-0.126-0.013h-4.862C438.715-258.936,438.721-258.932,438.724-258.928z"/>
	<path d="M447.7-254.928h-13v2h9.022c-0.004,0.004-0.008,0.008-0.011,0.013h3.862c0.043-0.002,0.083-0.013,0.126-0.013
		c1.654,0,3,1.346,3,3s-1.346,3-3,3v2c2.762,0,5-2.238,5-5S450.462-254.928,447.7-254.928z"/>
	<rect x="414.7" y="-258.928" width="4" height="2"/>
</g>
<g>
	<path d="M526.662-256.934l0.005-0.007h-12.536l-0.594-0.003c-4.864-0.024-8.822-4.001-8.822-8.865c0-4.89,3.978-8.868,8.867-8.868
		c0.15,0,0.299,0.012,0.447,0.021l0.148,0.011l1.314,0.085l0.597-1.174c2.225-4.373,6.644-7.09,11.532-7.09
		c5.916,0,11.114,4.099,12.54,9.8h2.065c-1.444-6.742-7.433-11.8-14.605-11.8c-1.806,0-3.536,0.322-5.138,0.91
		c-0.938-5.123-5.4-9.01-10.794-9.01c-0.413,0-0.819,0.027-1.222,0.071c0.744,1.112,1.179,2.448,1.179,3.886c0,3.865-3.134,7-7,7
		c-1.438,0-2.773-0.435-3.886-1.179c-0.044,0.401-0.071,0.809-0.071,1.222c0,3.725,1.858,7.009,4.69,8.998
		c-1.655,1.907-2.665,4.392-2.665,7.116c0,5.983,4.836,10.836,10.813,10.865v0.003h13.135v0.007c2.205,0,4,1.794,4,4s-1.795,4-4,4v2
		c3.314,0,6-2.686,6-6C532.662-254.247,529.977-256.934,526.662-256.934z M502.866-280.143c0.582,0.117,1.178,0.177,1.78,0.177
		c4.963,0,9-4.037,9-9c0-0.603-0.06-1.198-0.177-1.78c3.744,0.755,6.646,3.842,7.138,7.674c-2.702,1.444-4.909,3.696-6.301,6.432
		c-0.241-0.016-0.48-0.036-0.725-0.036c-2.535,0-4.861,0.875-6.71,2.33C504.844-275.639,503.357-277.707,502.866-280.143z"/>
	<path d="M530.662-260.934h-9.988v2h9.988c3.314,0,6-2.687,6-6c0-3.314-2.686-6-6-6v2c2.205,0,4,1.794,4,4
		S532.867-260.934,530.662-260.934z"/>
	<path d="M538.686-260.934h-0.023v2h5.5v-0.051c2.523-0.254,4.5-2.358,4.5-4.949c0-2.762-2.238-5-5-5v2c1.654,0,3,1.346,3,3
		s-1.346,3-3,3c-0.043,0-0.083-0.011-0.126-0.013h-4.862C538.677-260.941,538.683-260.938,538.686-260.934z"/>
	<path d="M547.662-256.934h-13v2h9.022c-0.004,0.004-0.008,0.008-0.011,0.013h3.862c0.043-0.002,0.083-0.013,0.126-0.013
		c1.654,0,3,1.346,3,3s-1.346,3-3,3v2c2.762,0,5-2.238,5-5S550.424-256.934,547.662-256.934z"/>
	<rect x="514.662" y="-260.934" width="4" height="2"/>
</g>
<g>
	<rect x="627.555" y="-294.365" width="2" height="10"/>
	<rect x="602.562" y="-269.365" width="9.993" height="2"/>
	<rect x="642.255" y="-288.279" transform="matrix(0.7071 0.7071 -0.7071 0.7071 -11.7592 -537.7602)" width="2" height="10.409"/>
	<rect x="608.646" y="-284.07" transform="matrix(0.7071 0.7071 -0.7071 0.7071 -20.368 -516.9668)" width="10.409" height="2"/>
	<path d="M632.555-254.365h-24v2h24c2.205,0,4,1.794,4,4s-1.795,4-4,4v2c3.314,0,6-2.686,6-6
		C638.555-251.679,635.869-254.365,632.555-254.365z"/>
	<path d="M644.578-258.365h-0.023v2h5.5v-0.051c2.523-0.254,4.5-2.358,4.5-4.949c0-2.762-2.238-5-5-5v2c1.654,0,3,1.346,3,3
		s-1.346,3-3,3c-0.043,0-0.083-0.011-0.126-0.013h-4.862C644.569-258.373,644.575-258.369,644.578-258.365z"/>
	<path d="M653.555-254.365h-13v2h9.022c-0.004,0.004-0.008,0.008-0.011,0.013h3.862c0.043-0.002,0.083-0.013,0.126-0.013
		c1.654,0,3,1.346,3,3s-1.346,3-3,3v2c2.762,0,5-2.238,5-5S656.316-254.365,653.555-254.365z"/>
	<path d="M620.264-258.365h-11.709v2h12.012h0.822h15.166c3.314,0,6-2.687,6-6c0-3.314-2.686-6-6-6v2c2.205,0,4,1.794,4,4
		s-1.795,4-4,4h-12.538c-3.802-1.734-6.455-5.563-6.455-10.007c0-6.064,4.935-10.999,11-10.999c5.384,0,9.868,3.891,10.81,9.006
		h2.021c-0.961-6.23-6.331-11.006-12.831-11.006c-7.18,0-13,5.819-13,12.999C615.562-264.347,617.392-260.75,620.264-258.365z"/>
</g>
<g>
	<path d="M732.781-260.922h-24v2h24c2.205,0,4,1.794,4,4s-1.795,4-4,4v2c3.314,0,6-2.686,6-6
		C738.781-258.235,736.096-260.922,732.781-260.922z"/>
	<path d="M750.281-262.922v-0.051c2.523-0.254,4.5-2.358,4.5-4.949c0-2.762-2.238-5-5-5v2c1.654,0,3,1.346,3,3s-1.346,3-3,3
		c-0.043,0-0.083-0.011-0.126-0.013h-4.862c0.004,0.005,0.009,0.009,0.012,0.013h-0.023v2H750.281z"/>
	<path d="M753.781-260.922h-13v2h9.022c-0.003,0.004-0.007,0.008-0.011,0.013h3.862c0.043-0.002,0.083-0.013,0.126-0.013
		c1.654,0,3,1.346,3,3s-1.346,3-3,3v2c2.762,0,5-2.238,5-5S756.543-260.922,753.781-260.922z"/>
	<path d="M721.615-262.922h15.166c3.314,0,6-2.687,6-6c0-3.314-2.686-6-6-6v2c2.205,0,4,1.794,4,4s-1.795,4-4,4h-12.586
		c-2.596-1.188-4.658-3.339-5.69-6.034c0.849,0.204,1.724,0.309,2.612,0.309c6.168,0,11.187-5.019,11.187-11.188
		c0-1.276-0.22-2.532-0.64-3.717c4.046,1.102,7.168,4.459,7.937,8.63h2.018c-0.964-6.237-6.338-11.016-12.846-11.016
		c-0.259,0-0.511,0.024-0.766,0.039c1.425,1.618,2.297,3.737,2.297,6.063c0,5.072-4.112,9.188-9.187,9.188
		c-1.988,0-3.826-0.641-5.33-1.715c0.162,3.801,1.962,7.165,4.699,9.44h-11.705v2h12.012H721.615z"/>
</g>
<g>
	<path d="M13-175.729H-7c-1.103,0-2-0.897-2-2s0.897-2,2-2h3.445H-3v-2h-4c-2.209,0-4,1.791-4,4s1.791,4,4,4h20c2.205,0,4,1.794,4,4
		s-1.795,4-4,4v2c3.314,0,6-2.686,6-6C19-173.042,16.314-175.729,13-175.729z"/>
	<path d="M15-191.729v2c2.205,0,4,1.794,4,4s-1.795,4-4,4H-0.988v2H15c3.314,0,6-2.687,6-6C21-189.043,18.314-191.729,15-191.729z"
		/>
	<path d="M21-179.729v2h5.5v-0.051c2.523-0.254,4.5-2.358,4.5-4.949c0-2.762-2.238-5-5-5v2c1.654,0,3,1.346,3,3s-1.346,3-3,3
		c-0.043,0-0.083-0.011-0.126-0.013h-4.862c0.003,0.005,0.009,0.009,0.012,0.013H21z"/>
	<path d="M32-175.729H21v2h7.022c-0.004,0.004-0.008,0.008-0.011,0.013h3.862c0.043-0.002,0.083-0.013,0.126-0.013
		c1.654,0,3,1.346,3,3s-1.346,3-3,3v2c2.762,0,5-2.238,5-5S34.762-175.729,32-175.729z"/>
</g>
<path d="M549.292-189.382v-0.038h-38.376c-1.103,0-2-0.897-2-2s0.897-2,2-2h33c2.762,0,5-2.238,5-5s-2.238-5-5-5h-37.875v0.008
	c-0.042-0.001-0.083-0.008-0.125-0.008c-2.762,0-5,2.238-5,5s2.238,5,5,5v-2c-1.654,0-3-1.346-3-3s1.346-3,3-3h0.125h3.853h34.022
	c1.654,0,3,1.346,3,3s-1.346,3-3,3h-33c-2.209,0-4,1.791-4,4s1.791,4,4,4h38c1.103,0,2,0.897,2,2s-0.897,2-2,2h-32
	c-2.209,0-4,1.791-4,4s1.791,4,4,4h22c1.103,0,2,0.897,2,2s-0.897,2-2,2h-24.01v0.001c-2.204,0.006-3.99,1.793-3.99,3.999
	s1.786,3.993,3.99,3.999v0.001h12.01c1.103,0,2,0.897,2,2s-0.897,2-2,2h-2c-2.209,0-4,1.791-4,4s1.791,4,4,4v-2
	c-1.103,0-2-0.897-2-2s0.897-2,2-2h2c2.209,0,4-1.791,4-4s-1.791-4-4-4h-12c-1.103,0-2-0.897-2-2s0.897-2,2-2h24
	c2.209,0,4-1.791,4-4c0-2.152-1.704-3.895-3.834-3.983v-0.017h-22.166c-1.103,0-2-0.897-2-2s0.897-2,2-2h32c2.209,0,4-1.791,4-4
	C552.916-187.5,551.322-189.189,549.292-189.382z"/>
<path d="M734.707-198.704v-2.024h-2v2.024c-13.01,0.513-23.462,10.965-23.975,23.976h1.674c1.14-1.222,2.748-2,4.551-2
	c2.26,0,4.233,1.203,5.331,3h1.838c1.098-1.797,3.071-3,5.331-3c2.204,0,4.137,1.144,5.25,2.866v15.134c0,2.21,1.791,4,4,4
	s4-1.79,4-4h-2c0,1.103-0.897,2-2,2s-2-0.897-2-2v-15.134c1.113-1.723,3.046-2.866,5.25-2.866c2.26,0,4.233,1.203,5.331,3h1.838
	c1.098-1.797,3.071-3,5.331-3c1.803,0,3.411,0.778,4.551,2h1.674C758.169-187.739,747.717-198.191,734.707-198.704z
	 M752.457-178.729c-2.496,0-4.736,1.114-6.25,2.87c-1.514-1.756-3.754-2.87-6.25-2.87s-4.736,1.114-6.25,2.87
	c-1.514-1.756-3.754-2.87-6.25-2.87s-4.736,1.114-6.25,2.87c-1.514-1.756-3.755-2.87-6.25-2.87c-1.402,0-2.731,0.351-3.897,0.975
	c1.909-10.769,11.339-18.975,22.647-18.975s20.738,8.206,22.647,18.975C755.188-178.378,753.859-178.729,752.457-178.729z"/>
<g>
	<path d="M329.412-74.416v-17.105c0-2.762-2.238-5-5-5s-5,2.238-5,5v17.105c-1.236,1.263-2,2.988-2,4.895c0,3.866,3.134,7,7,7
		s7-3.134,7-7C331.412-71.428,330.648-73.153,329.412-74.416z M324.412-64.521c-2.757,0-5-2.243-5-5
		c0-1.313,0.508-2.554,1.429-3.495l0.571-0.583v-0.816v-17.105c0-1.654,1.346-3,3-3s3,1.346,3,3v17.105v0.816l0.571,0.583
		c0.921,0.941,1.429,2.183,1.429,3.495C329.412-66.765,327.169-64.521,324.412-64.521z"/>
	<path d="M325.412-72.346v-15.176h-2v15.176c-1.167,0.413-2.008,1.516-2.008,2.824c0,1.662,1.347,3.008,3.008,3.008
		c1.662,0,3.008-1.346,3.008-3.008C327.42-70.83,326.58-71.933,325.412-72.346z M324.412-68.514c-0.556,0-1.008-0.452-1.008-1.008
		s0.452-1.008,1.008-1.008s1.008,0.452,1.008,1.008S324.968-68.514,324.412-68.514z"/>
</g>
<g>
	<path d="M429.2-74.416v-17.105c0-2.762-2.238-5-5-5s-5,2.238-5,5v17.105c-1.236,1.263-2,2.988-2,4.895c0,3.866,3.134,7,7,7
		s7-3.134,7-7C431.2-71.428,430.437-73.153,429.2-74.416z M424.2-64.521c-2.757,0-5-2.243-5-5c0-1.313,0.508-2.554,1.429-3.495
		L421.2-73.6v-0.816v-17.105c0-1.654,1.346-3,3-3s3,1.346,3,3v17.105v0.816l0.571,0.583c0.921,0.941,1.429,2.183,1.429,3.495
		C429.2-66.765,426.957-64.521,424.2-64.521z"/>
	<path d="M425.2-72.346v-20.176h-2v20.176c-1.167,0.413-2.008,1.516-2.008,2.824c0,1.662,1.347,3.008,3.008,3.008
		c1.662,0,3.008-1.346,3.008-3.008C427.208-70.83,426.368-71.933,425.2-72.346z M424.2-68.514c-0.556,0-1.008-0.452-1.008-1.008
		s0.452-1.008,1.008-1.008s1.008,0.452,1.008,1.008S424.756-68.514,424.2-68.514z"/>
</g>
<g>
	<path d="M226.303-74.416v-17.105c0-2.762-2.238-5-5-5s-5,2.238-5,5v17.105c-1.236,1.263-2,2.988-2,4.895c0,3.866,3.134,7,7,7
		s7-3.134,7-7C228.303-71.428,227.539-73.153,226.303-74.416z M221.303-64.521c-2.757,0-5-2.243-5-5
		c0-1.313,0.508-2.554,1.429-3.495l0.571-0.583v-0.816v-17.105c0-1.654,1.346-3,3-3s3,1.346,3,3v17.105v0.816l0.571,0.583
		c0.921,0.941,1.429,2.183,1.429,3.495C226.303-66.765,224.06-64.521,221.303-64.521z"/>
	<path d="M222.303-72.346v-10.176h-2v10.176c-1.167,0.413-2.008,1.516-2.008,2.824c0,1.662,1.347,3.008,3.008,3.008
		c1.662,0,3.008-1.346,3.008-3.008C224.311-70.83,223.471-71.933,222.303-72.346z M221.303-68.514c-0.556,0-1.008-0.452-1.008-1.008
		s0.452-1.008,1.008-1.008s1.008,0.452,1.008,1.008S221.858-68.514,221.303-68.514z"/>
</g>
<g>
	<path d="M122.657-74.416v-17.105c0-2.762-2.238-5-5-5s-5,2.238-5,5v17.105c-1.236,1.263-2,2.988-2,4.895c0,3.866,3.134,7,7,7
		s7-3.134,7-7C124.657-71.428,123.894-73.153,122.657-74.416z M117.657-64.521c-2.757,0-5-2.243-5-5
		c0-1.313,0.508-2.554,1.429-3.495l0.571-0.583v-0.816v-17.105c0-1.654,1.346-3,3-3s3,1.346,3,3v17.105v0.816l0.571,0.583
		c0.921,0.941,1.429,2.183,1.429,3.495C122.657-66.765,120.414-64.521,117.657-64.521z"/>
	<path d="M118.657-72.346v-5.176h-2v5.176c-1.167,0.413-2.008,1.516-2.008,2.824c0,1.662,1.347,3.008,3.008,3.008
		c1.662,0,3.008-1.346,3.008-3.008C120.665-70.83,119.825-71.933,118.657-72.346z M117.657-68.514c-0.556,0-1.008-0.452-1.008-1.008
		s0.452-1.008,1.008-1.008s1.008,0.452,1.008,1.008S118.213-68.514,117.657-68.514z"/>
</g>
<g>
	<path d="M18-74.416v-17.105c0-2.762-2.238-5-5-5s-5,2.238-5,5v17.105c-1.236,1.263-2,2.988-2,4.895c0,3.866,3.134,7,7,7
		s7-3.134,7-7C20-71.428,19.236-73.153,18-74.416z M13-64.521c-2.757,0-5-2.243-5-5c0-1.313,0.508-2.554,1.429-3.495L10-73.6v-0.816
		v-17.105c0-1.654,1.346-3,3-3s3,1.346,3,3v17.105v0.816l0.571,0.583C17.492-72.075,18-70.834,18-69.521
		C18-66.765,15.757-64.521,13-64.521z"/>
	<path d="M13-72.529c-1.661,0-3.008,1.347-3.008,3.008c0,1.662,1.347,3.008,3.008,3.008c1.662,0,3.008-1.346,3.008-3.008
		C16.008-71.183,14.662-72.529,13-72.529z M13-68.514c-0.556,0-1.008-0.452-1.008-1.008s0.452-1.008,1.008-1.008
		s1.008,0.452,1.008,1.008S13.556-68.514,13-68.514z"/>
</g>
<g>
	<path d="M517.925-94.209c-2.209,0-4,1.791-4,4c0,2.21,1.791,4,4,4c2.211,0,4-1.79,4-4
		C521.925-92.418,520.136-94.209,517.925-94.209z M517.925-88.209c-1.103,0-2-0.897-2-2s0.897-2,2-2s2,0.897,2,2
		S519.027-88.209,517.925-88.209z"/>
	<path d="M531.925-66.209c-4.41,0-7.999-3.589-7.999-7.999v-4.002c0-4.41,3.589-7.999,7.999-7.999c2.715,0,5.115,1.362,6.563,3.437
		l1.43-1.43c-1.824-2.429-4.72-4.007-7.992-4.007c-5.522,0-9.999,4.478-9.999,9.999v4.002c0,5.521,4.477,9.999,9.999,9.999
		c3.272,0,6.168-1.579,7.992-4.008l-1.43-1.43C537.041-67.572,534.641-66.209,531.925-66.209z"/>
</g>
<g>
	<path d="M622.621-94.33c-2.209,0-4,1.791-4,4c0,2.21,1.791,4,4,4c2.211,0,4-1.79,4-4C626.621-92.539,624.832-94.33,622.621-94.33z
		 M622.621-88.33c-1.103,0-2-0.897-2-2s0.897-2,2-2s2,0.897,2,2S623.724-88.33,622.621-88.33z"/>
	<polygon points="642.496,-86.209 642.496,-88.209 630.496,-88.209 628.496,-88.209 628.496,-64.209 630.496,-64.209 
		630.496,-76.209 638.496,-76.209 638.496,-78.209 630.496,-78.209 630.496,-86.209 	"/>
</g>
<g>
	<path d="M733.707-90.518c-7.179,0-13,5.82-13,13s5.821,13,13,13s13-5.82,13-13S740.886-90.518,733.707-90.518z M733.707-66.518
		c-6.065,0-11-4.935-11-11s4.935-11,11-11s11,4.935,11,11S739.772-66.518,733.707-66.518z"/>
	<path d="M729.44-73.275l6.363-2.121l2.121-6.364l-6.363,2.122L729.44-73.275z M733.143-78.058l1.62-0.54l-0.54,1.62l-1.62,0.54
		L733.143-78.058z"/>
</g>
<g>
	<path d="M13,0C5.821,0,0,5.82,0,13s5.821,13,13,13s13-5.82,13-13S20.179,0,13,0z M13,24C6.935,24,2,19.066,2,13
		C2,6.936,6.935,2,13,2s11,4.936,11,11C24,19.066,19.065,24,13,24z"/>
	<path d="M15.562,11.422L12.976,7l-2.529,4.33h0.007c-0.299,0.467-0.478,1.018-0.478,1.613c0,1.656,1.343,3,3,3s3-1.344,3-3
		c0-0.559-0.162-1.074-0.428-1.521H15.562z M12.976,13.943c-0.552,0-1-0.449-1-1c0-0.188,0.055-0.367,0.162-0.535l0.864-1.355
		l0.826,1.391c0.098,0.164,0.147,0.332,0.147,0.5C13.976,13.494,13.527,13.943,12.976,13.943z"/>
</g>
<g>
	<path d="M117.784,0c-7.18,0-13,5.82-13,13s5.82,13,13,13s13-5.82,13-13S124.964,0,117.784,0z M117.784,24c-6.065,0-11-4.934-11-11
		c0-6.064,4.935-11,11-11s11,4.936,11,11C128.784,19.066,123.85,24,117.784,24z"/>
	<path d="M119.373,10.42c-0.467-0.299-1.018-0.477-1.613-0.477c-1.658,0-3,1.342-3,3c0,1.656,1.342,3,3,3
		c0.557,0,1.072-0.162,1.52-0.428v0.014l4.422-2.586l-4.328-2.529V10.42z M118.258,13.795c-0.164,0.098-0.332,0.148-0.498,0.148
		c-0.552,0-1-0.449-1-1c0-0.553,0.448-1,1-1c0.188,0,0.368,0.053,0.535,0.16l1.355,0.865L118.258,13.795z"/>
</g>
<g>
	<path d="M220.835,0c-7.18,0-13,5.82-13,13s5.82,13,13,13s13-5.82,13-13S228.015,0,220.835,0z M220.835,24c-6.065,0-11-4.934-11-11
		c0-6.064,4.935-11,11-11s11,4.936,11,11C231.835,19.066,226.9,24,220.835,24z"/>
	<path d="M220.835,9.943c-1.656,0-3,1.342-3,3c0,0.557,0.162,1.072,0.428,1.52h-0.014l2.586,4.422l2.529-4.328h-0.006
		c0.299-0.467,0.477-1.018,0.477-1.613C223.835,11.285,222.493,9.943,220.835,9.943z M221.674,13.479l-0.865,1.355l-0.826-1.393
		c-0.098-0.164-0.147-0.332-0.147-0.498c0-0.553,0.448-1,1-1s1,0.447,1,1C221.835,13.131,221.781,13.311,221.674,13.479z"/>
</g>
<g>
	<path d="M324.249,0c-7.179,0-13,5.82-13,13s5.821,13,13,13s13-5.82,13-13S331.428,0,324.249,0z M324.249,24
		c-6.065,0-11-4.934-11-11c0-6.064,4.935-11,11-11s11,4.936,11,11C335.249,19.066,330.314,24,324.249,24z"/>
	<path d="M324.208,9.943c-0.557,0-1.072,0.162-1.52,0.428v-0.014l-4.422,2.586l4.328,2.529v-0.006
		c0.467,0.299,1.018,0.477,1.613,0.477c1.658,0,3-1.342,3-3C327.208,11.287,325.866,9.943,324.208,9.943z M324.208,13.943
		c-0.188,0-0.368-0.055-0.535-0.162l-1.355-0.865l1.393-0.826c0.164-0.098,0.332-0.146,0.498-0.146c0.552,0,1,0.447,1,1
		C325.208,13.494,324.76,13.943,324.208,13.943z"/>
</g>
<g>
	<rect x="116.098" y="-196.729" width="2" height="10"/>
	<rect x="130.797" y="-190.643" transform="matrix(0.7071 0.7071 -0.7071 0.7071 -92.5219 -147.5083)" width="2" height="10.409"/>
	<rect x="97.189" y="-186.433" transform="matrix(0.7071 0.7071 -0.7071 0.7071 -101.1308 -126.7149)" width="10.409" height="2"/>
	<polygon points="110.43,-167.475 111.844,-166.061 116.098,-170.314 116.098,-160.729 118.098,-160.729 118.098,-170.314 
		122.351,-166.061 123.765,-167.475 117.098,-174.143 	"/>
	<path d="M130.104-170.729c0-0.002,0-0.004,0-0.006c0-7.18-5.82-12.999-13-12.999s-13,5.819-13,12.999c0,0.002,0,0.004,0,0.006h-13
		v2h18v-2h-3c0-0.002,0-0.004,0-0.006c0-6.064,4.935-10.999,11-10.999s11,4.935,11,10.999c0,0.002,0,0.004,0,0.006h-3v2H143.1v-2
		H130.104z"/>
</g>
<g>
	<rect x="219.843" y="-197.916" width="2" height="10"/>
	<rect x="234.543" y="-191.83" transform="matrix(0.7071 0.7071 -0.7071 0.7071 -62.9753 -221.215)" width="2" height="10.409"/>
	<rect x="200.934" y="-187.62" transform="matrix(0.7071 0.7071 -0.7071 0.7071 -71.5842 -200.4216)" width="10.409" height="2"/>
	<polygon points="221.843,-163.369 221.843,-173.916 219.843,-173.916 219.843,-163.369 215.589,-167.623 214.175,-166.209 
		220.843,-159.541 227.51,-166.209 226.096,-167.623 	"/>
	<path d="M233.85-171.917c0-0.002,0-0.004,0-0.006c0-7.18-5.82-12.999-13-12.999s-13,5.819-13,12.999c0,0.002,0,0.004,0,0.006h-13v2
		h22v-2h-7c0-0.002,0-0.004,0-0.006c0-6.064,4.935-10.999,11-10.999s11,4.935,11,10.999c0,0.002,0,0.004,0,0.006h-7v2h21.995v-2
		H233.85z"/>
</g>
<g>
	<polygon points="424.2,-163.903 424.2,-178.286 422.2,-178.286 422.2,-163.903 417.946,-168.157 416.532,-166.743 423.2,-160.075 
		429.867,-166.743 428.453,-168.157 	"/>
	<path d="M439.828-183.257c-1.596-7.445-8.207-13.029-16.127-13.029c-6.423,0-11.977,3.678-14.702,9.035
		c-0.266-0.018-0.53-0.04-0.8-0.04c-6.627,0-11.999,5.372-11.999,12c0,6.607,5.34,11.965,11.938,11.998v0.003h6.062v-2h-5.604
		l-0.447-0.003c-5.485-0.027-9.948-4.513-9.948-9.998c0-5.514,4.485-10,9.999-10c0.175,0,0.347,0.014,0.52,0.025l0.148,0.01
		l1.316,0.088l0.598-1.176c2.492-4.899,7.443-7.942,12.92-7.942c6.79,0,12.75,4.814,14.172,11.448l0.317,1.482l1.514,0.095
		c4.203,0.262,7.496,3.763,7.496,7.971c0,4.397-3.565,7.977-7.957,8c-0.05-0.003-0.093-0.005-0.137-0.007l-2.043,0.007H432.2v2
		h6.863v-0.007c0.046,0.001,0.091,0.007,0.137,0.007c5.521,0,10-4.477,10-10C449.2-178.601,445.056-182.932,439.828-183.257z"/>
</g>
<g>
	<polygon points="330.185,-167.099 331.599,-168.513 324.932,-175.181 318.264,-168.513 319.678,-167.099 323.932,-171.353 
		323.932,-158.767 325.932,-158.767 325.932,-171.353 	"/>
	<path d="M341.56-181.661c-1.596-7.445-8.207-13.029-16.127-13.029c-6.423,0-11.977,3.678-14.702,9.035
		c-0.266-0.018-0.53-0.04-0.8-0.04c-6.627,0-11.999,5.372-11.999,12c0,6.607,5.34,11.965,11.938,11.998v0.003h10.062v-2h-9.604
		l-0.447-0.003c-5.485-0.027-9.948-4.513-9.948-9.998c0-5.514,4.485-10,9.999-10c0.175,0,0.347,0.014,0.52,0.025l0.148,0.01
		l1.316,0.088l0.598-1.176c2.492-4.899,7.443-7.942,12.92-7.942c6.79,0,12.75,4.814,14.172,11.448l0.317,1.482l1.514,0.095
		c4.203,0.262,7.496,3.763,7.496,7.971c0,4.397-3.565,7.977-7.957,8c-0.05-0.003-0.093-0.005-0.137-0.007l-2.043,0.007h-8.863v2
		h10.863v-0.007c0.046,0.001,0.091,0.007,0.137,0.007c5.521,0,10-4.477,10-10C350.932-177.005,346.787-181.336,341.56-181.661z"/>
</g>
<g>
	<path d="M544.049-371.177c-1.596-7.445-8.207-13.029-16.127-13.029c-6.423,0-11.977,3.678-14.702,9.035
		c-0.266-0.018-0.53-0.04-0.8-0.04c-6.627,0-11.999,5.372-11.999,12c0,6.607,5.34,11.965,11.938,11.998v0.003h2.062v-2h-1.604
		l-0.447-0.003c-5.485-0.027-9.948-4.513-9.948-9.998c0-5.514,4.485-10,9.999-10c0.175,0,0.347,0.014,0.52,0.025l0.148,0.01
		l1.316,0.088l0.598-1.176c2.492-4.899,7.443-7.942,12.92-7.942c6.79,0,12.75,4.814,14.172,11.448l0.317,1.482l1.514,0.095
		c4.203,0.262,7.496,3.763,7.496,7.971c0,4.397-3.565,7.977-7.957,8c-0.05-0.003-0.093-0.005-0.137-0.007l-2.043,0.007h-0.863v2
		h2.863v-0.007c0.046,0.001,0.091,0.007,0.137,0.007c5.521,0,10-4.477,10-10C553.421-366.521,549.276-370.852,544.049-371.177z"/>
	<polygon points="522.421,-352.188 522.421,-354.818 524.594,-353.596 525.279,-354.816 522.81,-356.206 525.279,-357.596 
		524.594,-358.816 522.421,-357.594 522.421,-360.188 520.421,-360.188 520.421,-357.55 518.17,-358.816 517.484,-357.596 
		519.954,-356.206 517.484,-354.816 518.17,-353.596 520.421,-354.862 520.421,-352.188 	"/>
	<polygon points="527.583,-347.834 525.41,-346.611 525.41,-349.206 523.41,-349.206 523.41,-346.567 521.159,-347.834 
		520.474,-346.613 522.943,-345.224 520.474,-343.834 521.159,-342.613 523.41,-343.88 523.41,-341.206 525.41,-341.206 
		525.41,-343.836 527.583,-342.613 528.269,-343.834 525.799,-345.224 528.269,-346.613 	"/>
	<polygon points="536.599,-354.816 534.426,-353.594 534.426,-356.188 532.426,-356.188 532.426,-353.55 530.175,-354.816 
		529.489,-353.596 531.959,-352.206 529.489,-350.816 530.175,-349.596 532.426,-350.862 532.426,-348.188 534.426,-348.188 
		534.426,-350.818 536.599,-349.596 537.284,-350.816 534.814,-352.206 537.284,-353.596 	"/>
</g>
<g>
	<rect x="619.561" y="-389.229" width="2" height="7.973"/>
	<rect x="600.561" y="-370.314" width="7.973" height="2"/>
	<rect x="605.234" y="-381.581" transform="matrix(0.7071 0.7071 -0.7071 0.7071 -90.6748 -542.2537)" width="7.974" height="2"/>
	<rect x="630.742" y="-384.563" transform="matrix(0.7071 0.7071 -0.7071 0.7071 -84.0757 -558.1776)" width="2" height="7.972"/>
	<path d="M650.072-363.438c-1.444-6.742-7.433-11.8-14.605-11.8c-2.185,0-4.258,0.471-6.127,1.314
		c-1.666-3.203-5.006-5.395-8.865-5.395c-5.522,0-10,4.477-10,9.999c0,2.46,0.899,4.702,2.373,6.442
		c-1.428,1.84-2.287,4.144-2.287,6.653c0,5.983,4.836,10.836,10.813,10.865v0.003h1.188v-2h-0.721l-0.457-0.003
		c-4.864-0.023-8.822-4.001-8.822-8.865c0-4.89,3.978-8.868,8.867-8.868c0.15,0,0.299,0.012,0.447,0.022l0.148,0.01l1.314,0.085
		l0.597-1.175c2.225-4.372,6.644-7.089,11.532-7.089c6.062,0,11.382,4.298,12.649,10.219l0.318,1.483l1.514,0.094
		c3.708,0.23,6.612,3.319,6.612,7.03c0,3.878-3.144,7.035-7.017,7.057c-0.042-0.003-0.079-0.005-0.117-0.005l-1.866,0.005v2h1.819
		v-0.006c0.042,0.001,0.082,0.006,0.124,0.006c5.001,0,9.057-4.054,9.057-9.057C658.561-359.222,654.807-363.144,650.072-363.438z
		 M622.152-367.056c-0.241-0.016-0.48-0.036-0.725-0.036c-2.766,0-5.282,1.041-7.2,2.742c-1.092-1.365-1.753-3.089-1.753-4.97
		c0-4.41,3.589-7.999,8-7.999c3.092,0,5.76,1.773,7.091,4.346C625.268-371.533,623.389-369.485,622.152-367.056z"/>
	<polygon points="629.553,-346.336 629.553,-348.966 631.726,-347.743 632.411,-348.964 629.941,-350.354 632.411,-351.743 
		631.726,-352.964 629.553,-351.741 629.553,-354.336 627.553,-354.336 627.553,-351.697 625.302,-352.964 624.616,-351.743 
		627.086,-350.354 624.616,-348.964 625.302,-347.743 627.553,-349.01 627.553,-346.336 	"/>
	<polygon points="634.715,-341.981 632.542,-340.759 632.542,-343.354 630.542,-343.354 630.542,-340.715 628.291,-341.981 
		627.605,-340.761 630.075,-339.371 627.605,-337.981 628.291,-336.761 630.542,-338.027 630.542,-335.354 632.542,-335.354 
		632.542,-337.983 634.715,-336.761 635.4,-337.981 632.931,-339.371 635.4,-340.761 	"/>
	<polygon points="643.73,-348.964 641.558,-347.741 641.558,-350.336 639.558,-350.336 639.558,-347.697 637.307,-348.964 
		636.621,-347.743 639.091,-346.354 636.621,-344.964 637.307,-343.743 639.558,-345.01 639.558,-342.336 641.558,-342.336 
		641.558,-344.966 643.73,-343.743 644.416,-344.964 641.946,-346.354 644.416,-347.743 	"/>
</g>
<g>
	<path d="M750.261-366.441c-1.444-6.742-7.433-11.8-14.605-11.8c-1.799,0-3.522,0.32-5.118,0.904
		c-0.949-5.108-5.404-8.98-10.788-8.98c-0.413,0-0.819,0.027-1.222,0.071c0.744,1.112,1.179,2.448,1.179,3.886c0,3.865-3.134,7-7,7
		c-1.438,0-2.773-0.435-3.886-1.179c-0.044,0.401-0.071,0.809-0.071,1.222c0,3.713,1.845,6.987,4.661,8.979
		c-1.653,1.907-2.661,4.389-2.661,7.111c0,5.983,4.836,10.836,10.813,10.865v0.003h1.188v-2h-0.721l-0.457-0.003
		c-4.864-0.023-8.822-4.001-8.822-8.865c0-4.89,3.978-8.868,8.867-8.868c0.15,0,0.299,0.012,0.447,0.022l0.148,0.01l1.314,0.085
		l0.597-1.175c2.225-4.372,6.644-7.089,11.532-7.089c6.062,0,11.382,4.298,12.649,10.219l0.318,1.483l1.514,0.094
		c3.708,0.23,6.612,3.319,6.612,7.03c0,3.878-3.144,7.035-7.017,7.057c-0.042-0.003-0.079-0.005-0.117-0.005l-1.866,0.005v2h1.819
		v-0.006c0.042,0.001,0.082,0.006,0.124,0.006c5.001,0,9.057-4.054,9.057-9.057C758.749-362.225,754.995-366.146,750.261-366.441z
		 M722.341-370.059c-0.241-0.016-0.48-0.036-0.725-0.036c-2.537,0-4.865,0.877-6.715,2.334c-2.012-1.294-3.486-3.354-3.976-5.776
		c0.582,0.117,1.178,0.177,1.78,0.177c4.963,0,9-4.037,9-9c0-0.603-0.06-1.198-0.177-1.78c3.733,0.753,6.629,3.824,7.134,7.64
		C725.95-375.057,723.735-372.802,722.341-370.059z"/>
	<polygon points="729.786,-349.339 729.786,-351.969 731.959,-350.746 732.645,-351.967 730.175,-353.356 732.645,-354.746 
		731.959,-355.967 729.786,-354.744 729.786,-357.339 727.786,-357.339 727.786,-354.7 725.535,-355.967 724.85,-354.746 
		727.319,-353.356 724.85,-351.967 725.535,-350.746 727.786,-352.013 727.786,-349.339 	"/>
	<polygon points="734.948,-344.984 732.775,-343.762 732.775,-346.356 730.775,-346.356 730.775,-343.718 728.524,-344.984 
		727.839,-343.764 730.309,-342.374 727.839,-340.984 728.524,-339.764 730.775,-341.03 730.775,-338.356 732.775,-338.356 
		732.775,-340.986 734.948,-339.764 735.634,-340.984 733.164,-342.374 735.634,-343.764 	"/>
	<polygon points="743.964,-351.967 741.791,-350.744 741.791,-353.339 739.791,-353.339 739.791,-350.7 737.54,-351.967 
		736.854,-350.746 739.324,-349.356 736.854,-347.967 737.54,-346.746 739.791,-348.013 739.791,-345.339 741.791,-345.339 
		741.791,-347.969 743.964,-346.746 744.649,-347.967 742.18,-349.356 744.649,-350.746 	"/>
</g>
<rect x="133.902" y="-934.191" fill="none" width="472.974" height="180.918"/>
<text transform="matrix(1 0 0 1 313.5396 -862.7925)"><tspan x="0" y="0" font-family="'HelveticaNeueLTStd-Th'" font-size="100" letter-spacing="2">60</tspan><tspan x="-99.268" y="60" font-family="'HelveticaNeueLTStd-Lt'" font-size="48" letter-spacing="1">Weather Icons</tspan><tspan x="-3.726" y="104" font-family="'HelveticaNeueLTStd-Lt'" font-size="24">IOS 7 Style</tspan></text>
</svg>
