<?xml version="1.0" encoding="utf-8"?>
<!-- Generator: Adobe Illustrator 16.0.0, SVG Export Plug-In . SVG Version: 6.00 Build 0)  -->
<!DOCTYPE svg PUBLIC "-//W3C//DTD SVG 1.1//EN" "http://www.w3.org/Graphics/SVG/1.1/DTD/svg11.dtd">
<svg version="1.1" id="Layer_1" xmlns="http://www.w3.org/2000/svg" xmlns:xlink="http://www.w3.org/1999/xlink" x="0px" y="0px"
	 width="26px" height="26px" viewBox="0 0 26 26" enable-background="new 0 0 26 26" xml:space="preserve">
<path d="M426.536-195.026l-1.803,15.077l-0.268,2.237h2.254h6.896l-14.693,18.759l1.789-14.52l0.277-2.245h-2.262h-6.957
	L426.536-195.026 M429.391-202.051l-21.667,28.333h11.004l-2.671,21.667l21.667-27.661H426.72L429.391-202.051L429.391-202.051z"/>
<path d="M13.501-657.287c6.79,0,12.749,4.814,14.171,11.448l0.318,1.483l1.514,0.094C33.707-644,37-640.499,37-636.291
	c0,4.396-3.565,7.977-7.957,8c-0.046-0.003-0.091-0.006-0.137-0.007l-2.043-0.036v0.043H-1.474l-0.578-0.003
	c-5.485-0.027-9.948-4.513-9.948-9.998c0-5.514,4.485-10,9.999-10c0.175,0,0.347,0.014,0.519,0.025l0.149,0.011l1.316,0.087
	l0.598-1.176C3.074-654.244,8.024-657.287,13.501-657.287 M13.501-659.287c-6.423,0-11.977,3.678-14.702,9.035
	c-0.266-0.018-0.53-0.04-0.8-0.04c-6.627,0-11.999,5.372-11.999,12c0,6.607,5.34,11.965,11.938,11.998v0.003h30.925v-0.007
	c0.046,0.001,0.091,0.007,0.137,0.007c5.521,0,10-4.477,10-10c0-5.311-4.145-9.642-9.372-9.967
	C28.032-653.703,21.421-659.287,13.501-659.287L13.501-659.287z"/>
<g>
	<path d="M136.452-638.876c-1.444-6.742-7.433-11.8-14.605-11.8c-2.185,0-4.258,0.47-6.127,1.313
		c-1.666-3.202-5.006-5.394-8.865-5.394c-5.522,0-10,4.477-10,9.999c0,2.46,0.898,4.702,2.373,6.442
		c-1.428,1.84-2.287,4.144-2.287,6.653c0,5.983,4.836,10.836,10.813,10.865v0.003h28.007v-0.006
		c0.042,0.001,0.082,0.006,0.124,0.006c5.001,0,9.057-4.054,9.057-9.057C144.94-634.659,141.187-638.581,136.452-638.876z
		 M106.854-652.756c3.092,0,5.76,1.773,7.092,4.345c-2.299,1.44-4.178,3.488-5.414,5.918c-0.241-0.016-0.48-0.036-0.725-0.036
		c-2.766,0-5.281,1.041-7.2,2.743c-1.092-1.366-1.753-3.09-1.753-4.971C98.854-649.167,102.443-652.756,106.854-652.756z
		 M135.924-622.793c-0.038-0.003-0.077-0.004-0.117-0.005l-2.047-0.042v0.047h-25.403l-0.594-0.003
		c-4.864-0.023-8.822-4.001-8.822-8.865c0-4.89,3.978-8.868,8.867-8.868c0.15,0,0.299,0.012,0.447,0.021l0.148,0.011l1.314,0.085
		l0.598-1.174c2.224-4.373,6.643-7.09,11.531-7.09c6.062,0,11.381,4.298,12.65,10.219l0.317,1.482l1.514,0.095
		c3.708,0.231,6.612,3.319,6.612,7.03C142.94-625.972,139.797-622.815,135.924-622.793z"/>
	<rect x="105.86" y="-664.786" width="2" height="7.973"/>
	<rect x="86.888" y="-645.8" width="7.973" height="2"/>
	<rect x="91.613" y="-657.018" transform="matrix(0.7071 0.7071 -0.7071 0.7071 -435.8744 -259.7432)" width="7.974" height="2"/>
	<rect x="117.122" y="-660" transform="matrix(0.7071 0.7071 -0.7071 0.7071 -429.2753 -275.6672)" width="2" height="7.972"/>
</g>
<path d="M232.195-642.903c-1.444-6.742-7.433-11.8-14.605-11.8c-1.799,0-3.521,0.32-5.118,0.904
	c-0.949-5.108-5.404-8.98-10.788-8.98c-0.413,0-0.819,0.027-1.222,0.071c0.744,1.112,1.179,2.448,1.179,3.886c0,3.865-3.134,7-7,7
	c-1.438,0-2.773-0.435-3.886-1.179c-0.044,0.401-0.071,0.809-0.071,1.222c0,3.712,1.845,6.987,4.661,8.979
	c-1.653,1.907-2.661,4.389-2.661,7.111c0,5.983,4.836,10.836,10.813,10.865v0.003h28.007v-0.006
	c0.042,0.001,0.082,0.006,0.124,0.006c5.001,0,9.057-4.054,9.057-9.057C240.684-638.687,236.93-642.608,232.195-642.903z
	 M192.86-649.999c0.582,0.117,1.178,0.177,1.78,0.177c4.963,0,9-4.037,9-9c0-0.603-0.06-1.198-0.177-1.78
	c3.733,0.753,6.629,3.824,7.134,7.64c-2.713,1.444-4.928,3.699-6.322,6.442c-0.241-0.016-0.48-0.036-0.725-0.036
	c-2.537,0-4.865,0.876-6.715,2.334C194.824-645.517,193.35-647.576,192.86-649.999z M231.667-626.82
	c-0.038-0.003-0.077-0.004-0.117-0.005l-2.047-0.042v0.047H204.1l-0.594-0.003c-4.864-0.023-8.822-4.001-8.822-8.865
	c0-4.89,3.978-8.868,8.867-8.868c0.15,0,0.299,0.012,0.447,0.021l0.148,0.011l1.314,0.085l0.598-1.174
	c2.224-4.373,6.643-7.09,11.531-7.09c6.062,0,11.381,4.298,12.65,10.219l0.317,1.482l1.514,0.095
	c3.708,0.231,6.612,3.319,6.612,7.03C238.684-629.999,235.54-626.843,231.667-626.82z"/>
<g>
	<rect x="316.841" y="-634.28" width="2" height="7"/>
	<rect x="324.841" y="-638.28" width="2" height="7"/>
	<rect x="308.841" y="-638.28" width="2" height="7"/>
	<rect x="316.841" y="-624.28" width="2" height="7"/>
	<rect x="324.841" y="-628.28" width="2" height="7"/>
	<rect x="308.841" y="-628.28" width="2" height="7"/>
	<path d="M335.469-651.269c-1.596-7.445-8.207-13.029-16.127-13.029c-6.423,0-11.977,3.678-14.702,9.035
		c-0.266-0.018-0.53-0.04-0.8-0.04c-6.627,0-11.999,5.372-11.999,12c0,6.607,5.34,11.965,11.938,11.998v0.003h2.062v-2h-1.604
		l-0.447-0.003c-5.485-0.027-9.948-4.513-9.948-9.998c0-5.514,4.485-10,9.999-10c0.175,0,0.347,0.014,0.52,0.025l0.148,0.01
		l1.316,0.088l0.598-1.176c2.492-4.899,7.443-7.942,12.92-7.942c6.79,0,12.75,4.814,14.172,11.448l0.317,1.482l1.514,0.095
		c4.203,0.262,7.496,3.763,7.496,7.971c0,4.397-3.565,7.977-7.957,8c-0.05-0.003-0.093-0.005-0.137-0.007l-2.043,0.007h-2.863v2
		h4.863v-0.007c0.046,0.001,0.091,0.007,0.137,0.007c5.521,0,10-4.477,10-10C344.841-646.612,340.696-650.943,335.469-651.269z"/>
</g>
<g>
	<path d="M133.042-561.911c-1.596-7.445-8.207-13.029-16.127-13.029c-6.423,0-11.977,3.678-14.702,9.035
		c-0.266-0.018-0.53-0.04-0.8-0.04c-6.627,0-11.999,5.372-11.999,12c0,6.607,5.34,11.965,11.938,11.998v0.003h2.062v-2h-1.604
		l-0.447-0.003c-5.485-0.027-9.948-4.513-9.948-9.998c0-5.514,4.485-10,9.999-10c0.175,0,0.347,0.014,0.52,0.025l0.148,0.01
		l1.316,0.088l0.598-1.176c2.492-4.899,7.443-7.942,12.92-7.942c6.79,0,12.75,4.814,14.172,11.448l0.317,1.482l1.514,0.095
		c4.203,0.262,7.496,3.763,7.496,7.971c0,4.397-3.565,7.977-7.957,8c-0.05-0.003-0.093-0.005-0.137-0.007l-2.043,0.007h-2.863v2
		h4.863v-0.007c0.046,0.001,0.091,0.007,0.137,0.007c5.521,0,10-4.477,10-10C142.414-557.255,138.27-561.586,133.042-561.911z"/>
	<polygon points="114.414,-534.916 114.414,-532.976 114.414,-526.916 116.414,-526.916 116.414,-532.976 116.414,-534.916 
		116.414,-546.916 114.414,-546.916 	"/>
	<polygon points="122.414,-538.916 122.414,-537.163 122.414,-530.916 124.414,-530.916 124.414,-537.163 124.414,-538.916 
		124.414,-550.916 122.414,-550.916 	"/>
	<polygon points="106.414,-538.916 106.414,-536.851 106.414,-530.916 108.414,-530.916 108.414,-536.851 108.414,-538.916 
		108.414,-550.916 106.414,-550.916 	"/>
</g>
<g>
	<polygon points="428.691,-538.005 421.809,-547.835 420.171,-546.688 427.054,-536.857 428.166,-535.269 431.642,-530.305 
		433.28,-531.451 429.805,-536.416 	"/>
	<polygon points="436.693,-538.007 429.809,-547.835 428.171,-546.687 435.057,-536.858 436.062,-535.423 439.646,-530.308 
		441.284,-531.454 437.7,-536.57 	"/>
	<polygon points="420.691,-538.005 413.809,-547.835 412.171,-546.687 419.054,-536.857 420.238,-535.165 423.643,-530.304 
		425.28,-531.451 421.877,-536.313 	"/>
	<path d="M439.799-561.645c-1.596-7.445-8.207-13.029-16.127-13.029c-6.423,0-11.977,3.678-14.702,9.035
		c-0.266-0.018-0.53-0.04-0.8-0.04c-6.627,0-11.999,5.372-11.999,12c0,6.607,5.34,11.965,11.938,11.998v0.003h2.062v-2h-1.604
		l-0.447-0.003c-5.485-0.027-9.948-4.513-9.948-9.998c0-5.514,4.485-10,9.999-10c0.175,0,0.347,0.014,0.52,0.025l0.148,0.01
		l1.316,0.088l0.598-1.176c2.492-4.899,7.443-7.942,12.92-7.942c6.79,0,12.75,4.814,14.172,11.448l0.317,1.482l1.514,0.095
		c4.203,0.262,7.496,3.763,7.496,7.971c0,4.397-3.565,7.977-7.957,8c-0.05-0.003-0.093-0.005-0.137-0.007l-1.043,0.007h0.137v2
		h0.863v-0.007c0.046,0.001,0.091,0.007,0.137,0.007c5.521,0,10-4.477,10-10C449.171-556.988,445.026-561.319,439.799-561.645z"/>
</g>
<g>
	<rect x="411.497" y="-670.727" width="2" height="7.973"/>
	<rect x="392.497" y="-651.813" width="7.973" height="2"/>
	<rect x="397.17" y="-663.079" transform="matrix(0.7071 0.7071 -0.7071 0.7071 -350.6644 -477.5795)" width="7.974" height="2"/>
	<rect x="422.679" y="-666.061" transform="matrix(0.7071 0.7071 -0.7071 0.7071 -344.0652 -493.5034)" width="2" height="7.972"/>
	<rect x="425.497" y="-629.854" width="2" height="7"/>
	<rect x="433.497" y="-633.854" width="2" height="7"/>
	<rect x="417.497" y="-633.854" width="2" height="7"/>
	<rect x="425.497" y="-619.854" width="2" height="7"/>
	<rect x="433.497" y="-623.854" width="2" height="7"/>
	<rect x="417.497" y="-623.854" width="2" height="7"/>
	<path d="M442.009-644.937c-1.444-6.742-7.433-11.8-14.605-11.8c-2.185,0-4.258,0.47-6.126,1.313
		c-1.667-3.202-5.007-5.394-8.866-5.394c-5.522,0-10,4.477-10,9.999c0,2.46,0.899,4.702,2.373,6.442
		c-1.429,1.84-2.287,4.144-2.287,6.653c0,5.983,4.836,10.836,10.813,10.865v0.003h1.188v-2h-0.721l-0.457-0.003
		c-4.864-0.023-8.822-4.001-8.822-8.865c0-4.89,3.978-8.868,8.867-8.868c0.15,0,0.299,0.012,0.447,0.022l0.148,0.01l1.314,0.085
		l0.597-1.175c2.225-4.372,6.644-7.089,11.532-7.089c6.062,0,11.382,4.298,12.649,10.219l0.318,1.483l1.514,0.094
		c3.708,0.23,6.612,3.319,6.612,7.03c0,3.878-3.144,7.035-7.017,7.057c-0.042-0.003-0.079-0.005-0.117-0.005l-2.047,0.005h-0.819v2
		h2.819v-0.006c0.042,0.001,0.082,0.006,0.124,0.006c5.001,0,9.057-4.054,9.057-9.057
		C450.497-640.72,446.743-644.642,442.009-644.937z M414.089-648.554c-0.241-0.016-0.48-0.036-0.725-0.036
		c-2.766,0-5.282,1.041-7.2,2.743c-1.092-1.366-1.753-3.09-1.753-4.971c0-4.41,3.589-7.999,8-7.999c3.091,0,5.76,1.773,7.091,4.345
		C417.204-653.031,415.324-650.983,414.089-648.554z"/>
</g>
<g>
	<rect x="525.914" y="-631.301" width="2" height="7"/>
	<rect x="533.914" y="-635.301" width="2" height="7"/>
	<rect x="517.914" y="-635.301" width="2" height="7"/>
	<rect x="525.914" y="-621.301" width="2" height="7"/>
	<rect x="533.914" y="-625.301" width="2" height="7"/>
	<rect x="517.914" y="-625.301" width="2" height="7"/>
	<path d="M542.426-646.384c-1.444-6.742-7.433-11.8-14.605-11.8c-1.799,0-3.522,0.32-5.118,0.904
		c-0.949-5.108-5.404-8.98-10.788-8.98c-0.413,0-0.819,0.027-1.222,0.071c0.744,1.112,1.179,2.448,1.179,3.886c0,3.865-3.134,7-7,7
		c-1.438,0-2.773-0.435-3.886-1.179c-0.044,0.401-0.071,0.809-0.071,1.222c0,3.712,1.845,6.987,4.661,8.979
		c-1.653,1.907-2.661,4.389-2.661,7.111c0,5.983,4.836,10.836,10.813,10.865v0.003h1.188v-2h-0.721l-0.457-0.003
		c-4.864-0.023-8.822-4.001-8.822-8.865c0-4.89,3.978-8.868,8.867-8.868c0.15,0,0.299,0.012,0.447,0.022l0.148,0.01l1.314,0.085
		l0.597-1.175c2.225-4.372,6.644-7.089,11.532-7.089c6.062,0,11.382,4.298,12.649,10.219l0.318,1.483l1.514,0.094
		c3.708,0.23,6.612,3.319,6.612,7.03c0,3.878-3.144,7.035-7.017,7.057c-0.042-0.003-0.079-0.005-0.117-0.005l-2.047,0.005h-0.819v2
		h2.819v-0.006c0.042,0.001,0.082,0.006,0.124,0.006c5.001,0,9.057-4.054,9.057-9.057
		C550.914-642.167,547.16-646.089,542.426-646.384z M514.506-650.001c-0.241-0.016-0.48-0.036-0.725-0.036
		c-2.537,0-4.865,0.876-6.715,2.334c-2.012-1.294-3.487-3.354-3.976-5.776c0.582,0.117,1.178,0.177,1.78,0.177c4.963,0,9-4.037,9-9
		c0-0.603-0.06-1.198-0.177-1.78c3.733,0.753,6.629,3.824,7.133,7.64C518.116-654.999,515.901-652.744,514.506-650.001z"/>
</g>
<g>
	<polygon points="218.684,-530.478 218.684,-528.537 218.684,-522.478 220.684,-522.478 220.684,-528.537 220.684,-530.478 
		220.684,-542.478 218.684,-542.478 	"/>
	<polygon points="226.684,-534.478 226.684,-532.725 226.684,-526.478 228.684,-526.478 228.684,-532.725 228.684,-534.478 
		228.684,-546.478 226.684,-546.478 	"/>
	<polygon points="210.684,-534.478 210.684,-532.412 210.684,-526.478 212.684,-526.478 212.684,-532.412 212.684,-534.478 
		212.684,-546.478 210.684,-546.478 	"/>
	<rect x="204.684" y="-581.38" width="2" height="7.973"/>
	<rect x="185.684" y="-562.466" width="7.973" height="2"/>
	<rect x="190.357" y="-573.732" transform="matrix(0.7071 0.7071 -0.7071 0.7071 -348.061 -305.1712)" width="7.974" height="2"/>
	<rect x="215.865" y="-576.714" transform="matrix(0.7071 0.7071 -0.7071 0.7071 -341.4619 -321.0952)" width="2" height="7.972"/>
	<path d="M235.195-555.59c-1.444-6.742-7.433-11.8-14.605-11.8c-2.185,0-4.258,0.47-6.127,1.313
		c-1.666-3.202-5.006-5.394-8.865-5.394c-5.522,0-10,4.477-10,9.999c0,2.46,0.898,4.702,2.373,6.442
		c-1.428,1.84-2.287,4.144-2.287,6.653c0,5.983,4.836,10.836,10.813,10.865v0.003h1.188v-2h-0.721l-0.457-0.003
		c-4.864-0.023-8.822-4.001-8.822-8.865c0-4.89,3.978-8.868,8.867-8.868c0.15,0,0.299,0.012,0.447,0.022l0.148,0.01l1.314,0.085
		l0.597-1.175c2.225-4.372,6.644-7.089,11.532-7.089c6.062,0,11.382,4.298,12.649,10.219l0.318,1.483l1.514,0.094
		c3.708,0.23,6.612,3.319,6.612,7.03c0,3.878-3.144,7.035-7.017,7.057c-0.042-0.003-0.079-0.005-0.117-0.005l-2.047,0.005h-0.819v2
		h2.819v-0.006c0.042,0.001,0.082,0.006,0.124,0.006c5.001,0,9.057-4.054,9.057-9.057
		C243.684-551.373,239.93-555.295,235.195-555.59z M207.275-559.207c-0.241-0.016-0.48-0.036-0.725-0.036
		c-2.766,0-5.281,1.042-7.2,2.743c-1.092-1.367-1.753-3.09-1.753-4.971c0-4.41,3.589-7.999,8-7.999c3.092,0,5.76,1.773,7.092,4.345
		C210.391-563.686,208.512-561.637,207.275-559.207z"/>
</g>
<g>
	<polygon points="319.081,-532.994 319.081,-531.054 319.081,-524.994 321.081,-524.994 321.081,-531.054 321.081,-532.994 
		321.081,-544.994 319.081,-544.994 	"/>
	<polygon points="327.081,-536.994 327.081,-535.241 327.081,-528.994 329.081,-528.994 329.081,-535.241 329.081,-536.994 
		329.081,-548.994 327.081,-548.994 	"/>
	<polygon points="311.081,-536.994 311.081,-534.929 311.081,-528.994 313.081,-528.994 313.081,-534.929 313.081,-536.994 
		313.081,-548.994 311.081,-548.994 	"/>
	<path d="M335.593-558.106c-1.444-6.742-7.433-11.8-14.605-11.8c-1.799,0-3.521,0.32-5.118,0.904
		c-0.949-5.108-5.404-8.98-10.788-8.98c-0.413,0-0.819,0.027-1.222,0.071c0.744,1.112,1.179,2.448,1.179,3.886c0,3.865-3.134,7-7,7
		c-1.438,0-2.773-0.435-3.886-1.179c-0.044,0.401-0.071,0.809-0.071,1.222c0,3.712,1.845,6.987,4.661,8.979
		c-1.653,1.907-2.661,4.389-2.661,7.111c0,5.983,4.836,10.836,10.813,10.865v0.003h1.188v-2h-0.721l-0.457-0.003
		c-4.864-0.023-8.822-4.001-8.822-8.865c0-4.89,3.978-8.868,8.867-8.868c0.15,0,0.299,0.012,0.447,0.022l0.148,0.01l1.314,0.085
		l0.597-1.175c2.225-4.372,6.644-7.089,11.532-7.089c6.062,0,11.382,4.298,12.649,10.219l0.318,1.483l1.514,0.094
		c3.708,0.23,6.612,3.319,6.612,7.03c0,3.878-3.144,7.035-7.017,7.057c-0.042-0.003-0.079-0.005-0.117-0.005l-2.047,0.005h-0.819v2
		h2.819v-0.006c0.042,0.001,0.082,0.006,0.124,0.006c5.001,0,9.057-4.054,9.057-9.057
		C344.081-553.89,340.327-557.812,335.593-558.106z M307.673-561.724c-0.241-0.016-0.48-0.036-0.725-0.036
		c-2.537,0-4.865,0.876-6.715,2.334c-2.012-1.294-3.486-3.354-3.976-5.776c0.582,0.117,1.178,0.177,1.78,0.177c4.963,0,9-4.037,9-9
		c0-0.603-0.06-1.198-0.177-1.78c3.733,0.753,6.629,3.824,7.134,7.641C311.282-566.722,309.067-564.466,307.673-561.724z"/>
</g>
<g>
	<polygon points="536.116,-532.05 529.233,-541.88 527.596,-540.732 534.479,-530.902 535.591,-529.313 539.066,-524.35 
		540.705,-525.496 537.229,-530.461 	"/>
	<polygon points="544.118,-532.052 537.233,-541.88 535.596,-540.731 542.481,-530.903 543.486,-529.468 547.07,-524.353 
		548.709,-525.499 545.125,-530.615 	"/>
	<polygon points="528.116,-532.05 521.233,-541.88 519.596,-540.731 526.479,-530.902 527.663,-529.21 531.067,-524.349 
		532.705,-525.496 529.302,-530.357 	"/>
	<rect x="515.596" y="-579.599" width="2" height="7.973"/>
	<rect x="496.596" y="-560.685" width="7.973" height="2"/>
	<rect x="501.269" y="-571.951" transform="matrix(0.7071 0.7071 -0.7071 0.7071 -255.7374 -524.4976)" width="7.974" height="2"/>
	<rect x="526.777" y="-574.933" transform="matrix(0.7071 0.7071 -0.7071 0.7071 -249.1383 -540.4215)" width="2" height="7.972"/>
	<path d="M546.107-553.809c-1.444-6.742-7.433-11.8-14.605-11.8c-2.185,0-4.258,0.47-6.126,1.313
		c-1.667-3.202-5.007-5.394-8.866-5.394c-5.522,0-10,4.477-10,9.999c0,2.46,0.899,4.702,2.373,6.442
		c-1.429,1.84-2.287,4.144-2.287,6.653c0,5.983,4.836,10.836,10.813,10.865v0.003h1.188v-2h-0.721l-0.457-0.003
		c-4.864-0.023-8.822-4.001-8.822-8.865c0-4.89,3.978-8.868,8.867-8.868c0.15,0,0.299,0.012,0.447,0.022l0.148,0.01l1.314,0.085
		l0.597-1.175c2.225-4.372,6.644-7.089,11.532-7.089c6.062,0,11.382,4.298,12.649,10.219l0.318,1.483l1.514,0.094
		c3.708,0.23,6.612,3.319,6.612,7.03c0,3.878-3.144,7.035-7.017,7.057c-0.042-0.003-0.079-0.005-0.117-0.005l-0.047,0.005h-0.819v2
		h0.819v-0.006c0.042,0.001,0.082,0.006,0.124,0.006c5.001,0,9.057-4.054,9.057-9.057
		C554.596-549.592,550.842-553.514,546.107-553.809z M518.188-557.426c-0.241-0.016-0.48-0.036-0.725-0.036
		c-2.766,0-5.282,1.042-7.2,2.743c-1.092-1.367-1.753-3.09-1.753-4.971c0-4.41,3.589-7.999,8-7.999c3.091,0,5.76,1.773,7.091,4.345
		C521.303-561.904,519.423-559.855,518.188-557.426z"/>
</g>
<g>
	<polygon points="-187.314,-435.564 -194.197,-445.395 -195.835,-444.247 -188.952,-434.417 -187.84,-432.828 -184.364,-427.864 
		-182.726,-429.011 -186.201,-433.976 	"/>
	<polygon points="-179.313,-435.566 -186.197,-445.395 -187.835,-444.246 -180.949,-434.418 -179.944,-432.982 -176.36,-427.867 
		-174.722,-429.014 -178.306,-434.13 	"/>
	<polygon points="-195.314,-435.564 -202.197,-445.395 -203.835,-444.246 -196.952,-434.417 -195.768,-432.725 -192.363,-427.863 
		-190.726,-429.011 -194.129,-433.872 	"/>
	<path d="M-177.323-457.323c-1.444-6.742-7.433-11.8-14.605-11.8c-1.799,0-3.522,0.32-5.118,0.904
		c-0.949-5.108-5.404-8.98-10.788-8.98c-0.413,0-0.819,0.027-1.222,0.071c0.744,1.112,1.179,2.448,1.179,3.886c0,3.865-3.134,7-7,7
		c-1.438,0-2.773-0.435-3.886-1.179c-0.044,0.401-0.071,0.809-0.071,1.222c0,3.712,1.845,6.987,4.661,8.979
		c-1.653,1.907-2.661,4.389-2.661,7.111c0,5.983,4.836,10.836,10.813,10.865v0.003h1.188v-2h-0.721l-0.457-0.003
		c-4.864-0.023-8.822-4.001-8.822-8.865c0-4.89,3.978-8.868,8.867-8.868c0.15,0,0.299,0.012,0.447,0.022l0.148,0.01l1.314,0.085
		l0.597-1.175c2.225-4.372,6.644-7.089,11.532-7.089c6.062,0,11.382,4.298,12.649,10.219l0.318,1.483l1.514,0.094
		c3.708,0.23,6.612,3.319,6.612,7.03c0,3.878-3.144,7.035-7.017,7.057c-0.042-0.003-0.079-0.005-0.117-0.005l-0.047,0.005h-0.819v2
		h0.819v-0.006c0.042,0.001,0.082,0.006,0.124,0.006c5.001,0,9.057-4.054,9.057-9.057
		C-168.835-453.106-172.589-457.028-177.323-457.323z M-205.243-460.94c-0.241-0.016-0.48-0.036-0.725-0.036
		c-2.537,0-4.865,0.876-6.715,2.334c-2.012-1.294-3.487-3.354-3.976-5.776c0.582,0.117,1.178,0.177,1.78,0.177c4.963,0,9-4.037,9-9
		c0-0.603-0.06-1.198-0.177-1.78c3.733,0.753,6.629,3.824,7.133,7.641C-201.633-465.938-203.848-463.683-205.243-460.94z"/>
</g>
<g>
	<rect x="-194.835" y="-539.411" width="2" height="4"/>
	<rect x="-186.835" y="-543.433" width="2" height="4.021"/>
	<rect x="-202.835" y="-543.433" width="2" height="4.021"/>
	<path d="M-176.207-559.399c-1.596-7.445-8.207-13.029-16.127-13.029c-6.423,0-11.977,3.678-14.702,9.035
		c-0.266-0.018-0.53-0.04-0.8-0.04c-6.627,0-11.999,5.372-11.999,12c0,6.607,5.34,11.965,11.938,11.998v0.003h2.062v-2h-1.604
		l-0.447-0.003c-5.485-0.027-9.948-4.513-9.948-9.998c0-5.514,4.485-10,9.999-10c0.175,0,0.347,0.014,0.52,0.025l0.148,0.01
		l1.316,0.088l0.598-1.176c2.492-4.899,7.443-7.942,12.92-7.942c6.79,0,12.75,4.814,14.172,11.448l0.317,1.482l1.514,0.095
		c4.203,0.262,7.496,3.763,7.496,7.971c0,4.397-3.565,7.977-7.957,8c-0.05-0.003-0.093-0.005-0.137-0.007l-2.043,0.007h-2.863v2
		h4.863v-0.007c0.046,0.001,0.091,0.007,0.137,0.007c5.521,0,10-4.477,10-10C-166.835-554.743-170.979-559.074-176.207-559.399z"/>
	<circle cx="-185.835" cy="-534.391" r="1.5"/>
	<circle cx="-193.835" cy="-530.422" r="1.5"/>
	<circle cx="-201.835" cy="-534.433" r="1.5"/>
</g>
<g>
	<rect x="-101.914" y="-578.865" width="2" height="7.973"/>
	<rect x="-120.914" y="-559.951" width="7.973" height="2"/>
	<rect x="-116.241" y="-571.218" transform="matrix(0.7071 0.7071 -0.7071 0.7071 -436.0833 -87.6375)" width="7.974" height="2"/>
	<rect x="-90.732" y="-574.2" transform="matrix(0.7071 0.7071 -0.7071 0.7071 -429.4841 -103.5614)" width="2" height="7.972"/>
	<path d="M-71.402-553.075c-1.444-6.742-7.433-11.8-14.605-11.8c-2.185,0-4.258,0.47-6.126,1.313
		c-1.667-3.202-5.007-5.394-8.866-5.394c-5.522,0-10,4.477-10,9.999c0,2.46,0.899,4.702,2.373,6.442
		c-1.429,1.84-2.287,4.144-2.287,6.653c0,5.983,4.836,10.836,10.813,10.865v0.003h1.188v-2h-0.721l-0.457-0.003
		c-4.864-0.023-8.822-4.001-8.822-8.865c0-4.89,3.978-8.868,8.867-8.868c0.15,0,0.299,0.012,0.447,0.022l0.148,0.01l1.314,0.085
		l0.597-1.175c2.225-4.372,6.644-7.089,11.532-7.089c6.062,0,11.382,4.298,12.649,10.219l0.318,1.483l1.514,0.094
		c3.708,0.23,6.612,3.319,6.612,7.03c0,3.878-3.144,7.035-7.017,7.057c-0.042-0.003-0.079-0.005-0.117-0.005l-2.047,0.005h-0.819v2
		h2.819v-0.006c0.042,0.001,0.082,0.006,0.124,0.006c5.001,0,9.057-4.054,9.057-9.057C-62.914-548.858-66.668-552.78-71.402-553.075
		z M-99.322-556.692c-0.241-0.016-0.48-0.036-0.725-0.036c-2.766,0-5.282,1.042-7.2,2.743c-1.092-1.367-1.753-3.09-1.753-4.971
		c0-4.41,3.589-7.999,8-7.999c3.091,0,5.76,1.773,7.091,4.345C-96.207-561.171-98.087-559.122-99.322-556.692z"/>
	<rect x="-87.914" y="-534.977" width="2" height="4"/>
	<rect x="-79.914" y="-538.998" width="2" height="4.021"/>
	<rect x="-95.914" y="-538.998" width="2" height="4.021"/>
	<circle cx="-78.914" cy="-529.956" r="1.5"/>
	<circle cx="-86.914" cy="-525.987" r="1.5"/>
	<circle cx="-94.914" cy="-529.998" r="1.5"/>
</g>
<g>
	<path d="M29.523-554.032c-1.444-6.742-7.433-11.8-14.605-11.8c-1.799,0-3.522,0.32-5.118,0.904
		c-0.949-5.108-5.404-8.98-10.788-8.98c-0.413,0-0.819,0.027-1.222,0.071c0.744,1.112,1.179,2.448,1.179,3.886c0,3.865-3.134,7-7,7
		c-1.438,0-2.773-0.435-3.886-1.179c-0.044,0.401-0.071,0.809-0.071,1.222c0,3.712,1.845,6.987,4.661,8.979
		c-1.653,1.907-2.661,4.389-2.661,7.111c0,5.983,4.836,10.836,10.813,10.865v0.003h1.188v-2H1.291l-0.457-0.003
		c-4.864-0.023-8.822-4.001-8.822-8.865c0-4.89,3.978-8.868,8.867-8.868c0.15,0,0.299,0.012,0.447,0.022l0.148,0.01l1.314,0.085
		l0.597-1.175c2.225-4.372,6.644-7.089,11.532-7.089c6.062,0,11.382,4.298,12.649,10.219l0.318,1.483l1.514,0.094
		c3.708,0.23,6.612,3.319,6.612,7.03c0,3.878-3.144,7.035-7.017,7.057c-0.042-0.003-0.079-0.005-0.117-0.005l-2.047,0.005h-0.819v2
		h2.819v-0.006c0.042,0.001,0.082,0.006,0.124,0.006c5.001,0,9.057-4.054,9.057-9.057C38.012-549.815,34.258-553.737,29.523-554.032
		z M1.604-557.649c-0.241-0.016-0.48-0.036-0.725-0.036c-2.537,0-4.865,0.876-6.715,2.334c-2.012-1.294-3.487-3.354-3.976-5.776
		c0.582,0.117,1.178,0.177,1.78,0.177c4.963,0,9-4.037,9-9c0-0.603-0.06-1.198-0.177-1.78c3.733,0.753,6.629,3.824,7.133,7.641
		C5.214-562.647,2.999-560.392,1.604-557.649z"/>
	<rect x="13.012" y="-535.934" width="2" height="4"/>
	<rect x="21.012" y="-539.955" width="2" height="4.021"/>
	<rect x="5.012" y="-539.955" width="2" height="4.021"/>
	<circle cx="22.012" cy="-530.913" r="1.5"/>
	<circle cx="14.012" cy="-526.944" r="1.5"/>
	<circle cx="6.012" cy="-530.955" r="1.5"/>
</g>
<g>
	<path d="M-73.786-461.002c-1.596-7.445-8.207-13.029-16.127-13.029c-6.423,0-11.977,3.678-14.702,9.035
		c-0.266-0.018-0.53-0.04-0.8-0.04c-6.627,0-11.999,5.372-11.999,12c0,6.607,5.34,11.965,11.938,11.998v0.003h6.062v-2h-5.604
		l-0.447-0.003c-5.485-0.027-9.948-4.513-9.948-9.998c0-5.514,4.485-10,9.999-10c0.175,0,0.347,0.014,0.52,0.025l0.148,0.01
		l1.316,0.088l0.598-1.176c2.492-4.899,7.443-7.942,12.92-7.942c6.79,0,12.75,4.814,14.172,11.448l0.317,1.482l1.514,0.095
		c4.203,0.262,7.496,3.763,7.496,7.971c0,4.397-3.565,7.977-7.957,8c-0.05-0.003-0.093-0.005-0.137-0.007l-5.043,0.007h0.137v2
		h4.863v-0.007c0.046,0.001,0.091,0.007,0.137,0.007c5.521,0,10-4.477,10-10C-64.414-456.346-68.559-460.677-73.786-461.002z"/>
	<polygon points="-89.572,-441.031 -87.803,-441.031 -87.372,-441.031 -85.362,-441.031 -91.776,-450.192 -93.414,-449.045 
		-89.203,-443.031 -90.974,-443.031 -93.414,-443.031 -92.143,-441.215 -91.03,-439.626 -85.053,-431.031 -83.414,-432.178 
		-89.392,-440.773 	"/>
</g>
<g>
	<rect x="2.012" y="-480.132" width="2" height="7.973"/>
	<rect x="-16.988" y="-461.218" width="7.973" height="2"/>
	<rect x="-12.315" y="-472.484" transform="matrix(0.7071 0.7071 -0.7071 0.7071 -335.829 -132.2057)" width="7.974" height="2"/>
	<rect x="13.193" y="-475.466" transform="matrix(0.7071 0.7071 -0.7071 0.7071 -329.2299 -148.1297)" width="2" height="7.972"/>
	<path d="M32.523-454.342c-1.444-6.742-7.433-11.8-14.605-11.8c-2.185,0-4.258,0.47-6.127,1.313
		c-1.666-3.202-5.006-5.394-8.865-5.394c-5.522,0-10,4.477-10,9.999c0,2.46,0.898,4.702,2.373,6.442
		c-1.428,1.84-2.287,4.144-2.287,6.653c0,5.983,4.836,10.836,10.813,10.865v0.003h4.188v-2H4.291l-0.457-0.003
		c-4.864-0.023-8.822-4.001-8.822-8.865c0-4.89,3.978-8.868,8.867-8.868c0.15,0,0.299,0.012,0.447,0.022l0.148,0.01l1.314,0.085
		l0.597-1.175c2.225-4.372,6.644-7.089,11.532-7.089c6.062,0,11.382,4.298,12.649,10.219l0.318,1.483l1.514,0.094
		c3.708,0.23,6.612,3.319,6.612,7.03c0,3.878-3.144,7.035-7.017,7.057c-0.042-0.003-0.079-0.005-0.117-0.005l-2.047,0.005h-3.819v2
		h5.819v-0.006c0.042,0.001,0.082,0.006,0.124,0.006c5.001,0,9.057-4.054,9.057-9.057C41.012-450.125,37.258-454.047,32.523-454.342
		z M4.604-457.959c-0.241-0.016-0.48-0.036-0.725-0.036c-2.766,0-5.281,1.041-7.2,2.743c-1.092-1.366-1.753-3.09-1.753-4.971
		c0-4.41,3.589-7.999,8-7.999c3.092,0,5.76,1.773,7.092,4.345C7.719-462.437,5.84-460.389,4.604-457.959z"/>
	<polygon points="16.854,-436.252 18.623,-436.252 19.054,-436.252 21.063,-436.252 14.649,-445.413 13.012,-444.266 
		17.223,-438.252 15.452,-438.252 13.012,-438.252 14.283,-436.436 15.396,-434.847 21.373,-426.252 23.012,-427.398 
		17.034,-435.994 	"/>
</g>
<g>
	<path d="M132.108-456.638c-1.444-6.742-7.433-11.8-14.605-11.8c-1.799,0-3.521,0.32-5.118,0.904
		c-0.949-5.108-5.404-8.98-10.788-8.98c-0.413,0-0.819,0.027-1.222,0.071c0.744,1.112,1.179,2.448,1.179,3.886c0,3.865-3.134,7-7,7
		c-1.438,0-2.773-0.435-3.886-1.179c-0.044,0.401-0.071,0.809-0.071,1.222c0,3.712,1.845,6.987,4.661,8.979
		c-1.653,1.907-2.661,4.389-2.661,7.111c0,5.983,4.836,10.836,10.813,10.865v0.003h4.188v-2h-3.721l-0.457-0.003
		c-4.864-0.023-8.822-4.001-8.822-8.865c0-4.89,3.978-8.868,8.867-8.868c0.15,0,0.299,0.012,0.447,0.022l0.148,0.01l1.314,0.085
		l0.597-1.175c2.225-4.372,6.644-7.089,11.532-7.089c6.062,0,11.382,4.298,12.649,10.219l0.318,1.483l1.514,0.094
		c3.708,0.23,6.612,3.319,6.612,7.03c0,3.878-3.144,7.035-7.017,7.057c-0.042-0.003-0.079-0.005-0.117-0.005l-2.047,0.005h-3.819v2
		h5.819v-0.006c0.042,0.001,0.082,0.006,0.124,0.006c5.001,0,9.057-4.054,9.057-9.057
		C140.597-452.421,136.843-456.343,132.108-456.638z M104.188-460.255c-0.241-0.016-0.48-0.036-0.725-0.036
		c-2.537,0-4.865,0.876-6.715,2.334c-2.012-1.294-3.486-3.354-3.976-5.776c0.582,0.117,1.178,0.177,1.78,0.177c4.963,0,9-4.037,9-9
		c0-0.603-0.06-1.198-0.177-1.78c3.733,0.753,6.629,3.824,7.134,7.64C107.798-465.253,105.583-462.998,104.188-460.255z"/>
	<polygon points="116.438,-438.548 118.208,-438.548 118.639,-438.548 120.648,-438.548 114.234,-447.709 112.597,-446.562 
		116.808,-440.548 115.037,-440.548 112.597,-440.548 113.868,-438.731 114.98,-437.143 120.958,-428.548 122.597,-429.694 
		116.619,-438.29 	"/>
</g>
<g>
	<path d="M232.993-460.502c-1.596-7.445-8.207-13.029-16.127-13.029c-6.423,0-11.977,3.678-14.702,9.035
		c-0.266-0.018-0.53-0.04-0.8-0.04c-6.627,0-11.999,5.372-11.999,12c0,6.607,5.34,11.965,11.938,11.998v0.003h1.062v-2h-0.604
		l-0.447-0.003c-5.485-0.027-9.948-4.513-9.948-9.998c0-5.514,4.485-10,9.999-10c0.175,0,0.347,0.014,0.52,0.025l0.148,0.01
		l1.316,0.088l0.598-1.176c2.492-4.899,7.443-7.942,12.92-7.942c6.79,0,12.75,4.814,14.172,11.448l0.317,1.482l1.514,0.095
		c4.203,0.262,7.496,3.763,7.496,7.971c0,4.397-3.565,7.977-7.957,8c-0.05-0.003-0.093-0.005-0.137-0.007l-0.906,0.007v2h0.863
		v-0.007c0.046,0.001,0.091,0.007,0.137,0.007c5.521,0,10-4.477,10-10C242.365-455.846,238.221-460.177,232.993-460.502z"/>
	
		<rect x="201.8" y="-442.537" transform="matrix(-0.5736 -0.8191 0.8191 -0.5736 688.0259 -524.9446)" width="11.183" height="1.999"/>
	
		<rect x="219.774" y="-442.537" transform="matrix(-0.5736 -0.8191 0.8191 -0.5736 716.3114 -510.2214)" width="11.183" height="1.999"/>
	<polygon points="218.207,-437.531 219.977,-437.531 220.407,-437.531 222.417,-437.531 216.003,-446.692 214.365,-445.545 
		218.576,-439.531 216.806,-439.531 214.365,-439.531 215.637,-437.715 216.749,-436.126 221.365,-429.531 223.004,-430.678 
		218.388,-437.273 	"/>
</g>
<g>
	<rect x="307.841" y="-479.969" width="2" height="7.973"/>
	<rect x="288.841" y="-461.055" width="7.973" height="2"/>
	<rect x="293.514" y="-472.321" transform="matrix(0.7071 0.7071 -0.7071 0.7071 -246.1384 -348.4118)" width="7.974" height="2"/>
	<rect x="319.023" y="-475.303" transform="matrix(0.7071 0.7071 -0.7071 0.7071 -239.5393 -364.3358)" width="2" height="7.972"/>
	<path d="M338.353-454.179c-1.444-6.742-7.433-11.8-14.605-11.8c-2.185,0-4.258,0.47-6.126,1.313
		c-1.667-3.202-5.007-5.394-8.866-5.394c-5.522,0-10,4.477-10,9.999c0,2.46,0.899,4.702,2.373,6.442
		c-1.429,1.84-2.287,4.144-2.287,6.653c0,5.983,4.836,10.836,10.813,10.865v0.003h0.188v-2l-0.178-0.003
		c-4.864-0.023-8.822-4.001-8.822-8.865c0-4.89,3.978-8.868,8.867-8.868c0.15,0,0.299,0.012,0.447,0.022l0.148,0.01l1.314,0.085
		l0.597-1.175c2.225-4.372,6.644-7.089,11.532-7.089c6.062,0,11.382,4.298,12.649,10.219l0.318,1.483l1.514,0.094
		c3.708,0.23,6.612,3.319,6.612,7.03c0,3.878-3.144,7.035-7.017,7.057c-0.042-0.003-0.079-0.005-0.117-0.005l-0.866,0.005v2h0.819
		v-0.006c0.042,0.001,0.082,0.006,0.124,0.006c5.001,0,9.057-4.054,9.057-9.057C346.841-449.962,343.087-453.884,338.353-454.179z
		 M310.433-457.796c-0.241-0.016-0.48-0.036-0.725-0.036c-2.766,0-5.282,1.042-7.2,2.743c-1.092-1.367-1.753-3.09-1.753-4.971
		c0-4.41,3.589-7.999,8-7.999c3.091,0,5.76,1.773,7.091,4.345C313.548-462.274,311.668-460.226,310.433-457.796z"/>
	
		<rect x="308.262" y="-438.099" transform="matrix(-0.5736 -0.8191 0.8191 -0.5736 851.9244 -430.7553)" width="11.183" height="1.999"/>
	
		<rect x="326.237" y="-438.099" transform="matrix(-0.5736 -0.8191 0.8191 -0.5736 880.2099 -416.0321)" width="11.183" height="1.999"/>
	<polygon points="324.67,-433.093 326.439,-433.093 326.87,-433.093 328.88,-433.093 322.466,-442.254 320.828,-441.106 
		325.039,-435.093 323.269,-435.093 320.828,-435.093 322.1,-433.276 323.212,-431.688 327.828,-425.093 329.467,-426.239 
		324.851,-432.835 	"/>
</g>
<g>
	<path d="M440.19-457.137c-1.444-6.742-7.433-11.8-14.605-11.8c-1.799,0-3.522,0.32-5.118,0.904
		c-0.949-5.108-5.404-8.98-10.788-8.98c-0.413,0-0.819,0.027-1.222,0.071c0.744,1.112,1.179,2.448,1.179,3.886c0,3.865-3.134,7-7,7
		c-1.438,0-2.773-0.435-3.886-1.179c-0.044,0.401-0.071,0.809-0.071,1.222c0,3.712,1.845,6.987,4.661,8.979
		c-1.653,1.907-2.661,4.389-2.661,7.111c0,5.983,4.836,10.836,10.813,10.865v0.003h0.188v-2l-0.178-0.003
		c-4.864-0.023-8.822-4.001-8.822-8.865c0-4.89,3.978-8.868,8.867-8.868c0.15,0,0.299,0.012,0.447,0.022l0.148,0.01l1.314,0.085
		l0.597-1.175c2.225-4.372,6.644-7.089,11.532-7.089c6.062,0,11.382,4.298,12.649,10.219l0.318,1.483l1.514,0.094
		c3.708,0.23,6.612,3.319,6.612,7.03c0,3.878-3.144,7.035-7.017,7.057c-0.042-0.003-0.079-0.005-0.117-0.005l-0.866,0.005v2h0.819
		v-0.006c0.042,0.001,0.082,0.006,0.124,0.006c5.001,0,9.057-4.054,9.057-9.057C448.679-452.92,444.925-456.842,440.19-457.137z
		 M412.271-460.754c-0.241-0.016-0.48-0.036-0.725-0.036c-2.537,0-4.865,0.876-6.715,2.334c-2.012-1.294-3.487-3.354-3.976-5.776
		c0.582,0.117,1.178,0.177,1.78,0.177c4.963,0,9-4.037,9-9c0-0.603-0.06-1.198-0.177-1.78c3.733,0.753,6.629,3.824,7.133,7.641
		C415.881-465.752,413.666-463.496,412.271-460.754z"/>
	
		<rect x="410.099" y="-441.057" transform="matrix(-0.5736 -0.8191 0.8191 -0.5736 1014.6017 -351.9946)" width="11.183" height="1.999"/>
	
		<rect x="428.074" y="-441.057" transform="matrix(-0.5736 -0.8191 0.8191 -0.5736 1042.8873 -337.2715)" width="11.183" height="1.999"/>
	<polygon points="426.507,-436.051 428.276,-436.051 428.707,-436.051 430.717,-436.051 424.303,-445.212 422.665,-444.064 
		426.876,-438.051 425.105,-438.051 422.665,-438.051 423.937,-436.234 425.049,-434.646 429.665,-428.051 431.304,-429.197 
		426.688,-435.793 	"/>
</g>
<g>
	<g>
		<path d="M29.628-370.682c-1.596-7.445-8.207-13.029-16.127-13.029c-6.423,0-11.977,3.678-14.702,9.035
			c-0.266-0.018-0.53-0.04-0.8-0.04c-6.627,0-11.999,5.372-11.999,12c0,6.607,5.34,11.965,11.938,11.998v0.003H0v-2h-1.604
			l-0.447-0.003C-7.537-352.745-12-357.23-12-362.716c0-5.514,4.485-10,9.999-10c0.175,0,0.347,0.014,0.52,0.025l0.148,0.01
			l1.316,0.088l0.598-1.176c2.492-4.899,7.443-7.942,12.92-7.942c6.79,0,12.75,4.814,14.172,11.448l0.317,1.482l1.514,0.095
			c4.203,0.262,7.496,3.763,7.496,7.971c0,4.397-3.565,7.977-7.957,8c-0.05-0.003-0.093-0.005-0.137-0.007l-2.043,0.007H24v2h4.863
			v-0.007c0.046,0.001,0.091,0.007,0.137,0.007c5.521,0,10-4.477,10-10C39-366.025,34.855-370.356,29.628-370.682z"/>
	</g>
	<g>
		<circle cx="4.5" cy="-357.139" r="1.5"/>
	</g>
	<g>
		<circle cx="8.5" cy="-351.215" r="1.5"/>
	</g>
	<g>
		<circle cx="16.5" cy="-351.215" r="1.5"/>
	</g>
	<g>
		<circle cx="12.5" cy="-357.139" r="1.5"/>
	</g>
	<g>
		<circle cx="20.5" cy="-357.139" r="1.5"/>
	</g>
	<g>
		<circle cx="4.5" cy="-345.193" r="1.5"/>
	</g>
	<g>
		<circle cx="12.5" cy="-345.193" r="1.5"/>
	</g>
	<g>
		<circle cx="20.5" cy="-345.193" r="1.5"/>
	</g>
</g>
<g>
	<g>
		<rect x="105.414" y="-386.159" width="2" height="7.973"/>
	</g>
	<g>
		<rect x="86.414" y="-367.245" width="7.973" height="2"/>
	</g>
	<g>
		<rect x="91.087" y="-378.512" transform="matrix(0.7071 0.7071 -0.7071 0.7071 -239.0945 -177.7982)" width="7.974" height="2"/>
	</g>
	<g>
		<rect x="116.596" y="-381.494" transform="matrix(0.7071 0.7071 -0.7071 0.7071 -232.4953 -193.7222)" width="2" height="7.972"/>
	</g>
	<g>
		<path d="M135.926-360.369c-1.444-6.742-7.433-11.8-14.605-11.8c-2.185,0-4.258,0.47-6.127,1.313
			c-1.666-3.202-5.006-5.394-8.865-5.394c-5.522,0-10,4.477-10,9.999c0,2.46,0.898,4.702,2.373,6.442
			c-1.428,1.84-2.287,4.144-2.287,6.653c0,5.983,4.836,10.836,10.813,10.865v0.003h1.188v-2h-0.721l-0.457-0.003
			c-4.864-0.023-8.822-4.001-8.822-8.865c0-4.89,3.978-8.868,8.867-8.868c0.15,0,0.299,0.012,0.447,0.022l0.148,0.01l1.314,0.085
			l0.597-1.175c2.225-4.372,6.644-7.089,11.532-7.089c6.062,0,11.382,4.298,12.649,10.219l0.318,1.483l1.514,0.094
			c3.708,0.23,6.612,3.319,6.612,7.03c0,3.878-3.144,7.035-7.017,7.057c-0.042-0.003-0.079-0.005-0.117-0.005l-2.047,0.005h-1.819v2
			h3.819v-0.006c0.042,0.001,0.082,0.006,0.124,0.006c5.001,0,9.057-4.054,9.057-9.057
			C144.414-356.152,140.66-360.074,135.926-360.369z M108.006-363.986c-0.241-0.016-0.48-0.036-0.725-0.036
			c-2.766,0-5.281,1.042-7.2,2.743c-1.092-1.367-1.753-3.09-1.753-4.971c0-4.41,3.589-7.999,8-7.999c3.092,0,5.76,1.773,7.092,4.345
			C111.121-368.465,109.242-366.416,108.006-363.986z"/>
	</g>
	<g>
		<circle cx="111.903" cy="-348.775" r="1.5"/>
	</g>
	<g>
		<circle cx="115.903" cy="-342.775" r="1.5"/>
	</g>
	<g>
		<circle cx="123.903" cy="-342.775" r="1.5"/>
	</g>
	<g>
		<circle cx="119.903" cy="-348.775" r="1.5"/>
	</g>
	<g>
		<circle cx="127.903" cy="-348.775" r="1.5"/>
	</g>
	<g>
		<circle cx="111.903" cy="-336.754" r="1.5"/>
	</g>
	<g>
		<circle cx="119.903" cy="-336.754" r="1.5"/>
	</g>
	<g>
		<circle cx="127.903" cy="-336.754" r="1.5"/>
	</g>
</g>
<g>
	<g>
		<path d="M231.877-364.325c-1.444-6.742-7.433-11.8-14.605-11.8c-1.799,0-3.521,0.32-5.118,0.904
			c-0.949-5.108-5.404-8.98-10.788-8.98c-0.413,0-0.819,0.027-1.222,0.071c0.744,1.112,1.179,2.448,1.179,3.886c0,3.865-3.134,7-7,7
			c-1.438,0-2.773-0.435-3.886-1.179c-0.044,0.401-0.071,0.809-0.071,1.222c0,3.712,1.845,6.987,4.661,8.979
			c-1.653,1.907-2.661,4.389-2.661,7.111c0,5.983,4.836,10.836,10.813,10.865v0.003h1.188v-2h-0.721l-0.457-0.003
			c-4.864-0.023-8.822-4.001-8.822-8.865c0-4.89,3.978-8.868,8.867-8.868c0.15,0,0.299,0.012,0.447,0.022l0.148,0.01l1.314,0.085
			l0.597-1.175c2.225-4.372,6.644-7.089,11.532-7.089c6.062,0,11.382,4.298,12.649,10.219l0.318,1.483l1.514,0.094
			c3.708,0.23,6.612,3.319,6.612,7.03c0,3.878-3.144,7.035-7.017,7.057c-0.042-0.003-0.079-0.005-0.117-0.005l-2.047,0.005h-1.819v2
			h3.819v-0.006c0.042,0.001,0.082,0.006,0.124,0.006c5.001,0,9.057-4.054,9.057-9.057
			C240.365-360.108,236.611-364.03,231.877-364.325z M203.957-367.942c-0.241-0.016-0.48-0.036-0.725-0.036
			c-2.537,0-4.865,0.876-6.715,2.334c-2.012-1.294-3.486-3.354-3.976-5.776c0.582,0.117,1.178,0.177,1.78,0.177c4.963,0,9-4.037,9-9
			c0-0.603-0.06-1.198-0.177-1.78c3.733,0.753,6.629,3.824,7.134,7.64C207.566-372.94,205.352-370.686,203.957-367.942z"/>
	</g>
	<g>
		<circle cx="207.865" cy="-352.732" r="1.5"/>
	</g>
	<g>
		<circle cx="211.865" cy="-346.732" r="1.5"/>
	</g>
	<g>
		<circle cx="219.865" cy="-346.732" r="1.5"/>
	</g>
	<g>
		<circle cx="215.865" cy="-352.732" r="1.5"/>
	</g>
	<g>
		<circle cx="223.865" cy="-352.732" r="1.5"/>
	</g>
	<g>
		<circle cx="207.865" cy="-340.711" r="1.5"/>
	</g>
	<g>
		<circle cx="215.865" cy="-340.711" r="1.5"/>
	</g>
	<g>
		<circle cx="223.865" cy="-340.711" r="1.5"/>
	</g>
</g>
<g>
	<path d="M543.042-463.211c-1.596-7.445-8.207-13.029-16.127-13.029c-6.423,0-11.977,3.678-14.702,9.035
		c-0.266-0.018-0.53-0.04-0.8-0.04c-6.627,0-11.999,5.372-11.999,12c0,6.607,5.34,11.965,11.938,11.998v0.003h2.062v-2h-1.604
		l-0.447-0.003c-5.485-0.027-9.948-4.513-9.948-9.998c0-5.514,4.485-10,9.999-10c0.175,0,0.347,0.014,0.52,0.025l0.148,0.01
		l1.316,0.088l0.598-1.176c2.492-4.899,7.443-7.942,12.92-7.942c6.79,0,12.75,4.814,14.172,11.448l0.317,1.482l1.514,0.095
		c4.203,0.262,7.496,3.763,7.496,7.971c0,4.397-3.565,7.977-7.957,8c-0.05-0.003-0.093-0.005-0.137-0.007l-2.043,0.007h-2.863v2
		h4.863v-0.007c0.046,0.001,0.091,0.007,0.137,0.007c5.521,0,10-4.477,10-10C552.414-458.555,548.27-462.886,543.042-463.211z"/>
	<circle cx="517.414" cy="-435.74" r="1.5"/>
	<circle cx="525.414" cy="-429.74" r="1.5"/>
	<circle cx="533.414" cy="-433.74" r="1.5"/>
	<rect x="516.414" y="-452.216" width="2" height="11.976"/>
	<polygon points="526.414,-434.275 526.414,-436.216 526.414,-448.216 524.414,-448.216 524.414,-436.216 524.414,-434.275 
		524.414,-434.24 526.414,-434.24 	"/>
	<polygon points="534.414,-438.463 534.414,-440.216 534.414,-452.216 532.414,-452.216 532.414,-440.216 532.414,-438.463 
		532.414,-438.24 534.414,-438.24 	"/>
</g>
<g>
	<rect x="-205.335" y="-391.598" width="2" height="7.973"/>
	<rect x="-224.335" y="-372.684" width="7.973" height="2"/>
	<rect x="-219.662" y="-383.95" transform="matrix(0.7071 0.7071 -0.7071 0.7071 -333.9564 40.3416)" width="7.974" height="2"/>
	<rect x="-194.153" y="-386.932" transform="matrix(0.7071 0.7071 -0.7071 0.7071 -327.3572 24.4176)" width="2" height="7.972"/>
	<path d="M-174.823-365.808c-1.444-6.742-7.433-11.8-14.605-11.8c-2.185,0-4.258,0.47-6.126,1.313
		c-1.667-3.202-5.007-5.394-8.866-5.394c-5.522,0-10,4.477-10,9.999c0,2.46,0.899,4.702,2.373,6.442
		c-1.429,1.84-2.287,4.144-2.287,6.653c0,5.983,4.836,10.836,10.813,10.865v0.003h1.188v-2h-0.721l-0.457-0.003
		c-4.864-0.023-8.822-4.001-8.822-8.865c0-4.89,3.978-8.868,8.867-8.868c0.15,0,0.299,0.012,0.447,0.022l0.148,0.01l1.314,0.085
		l0.597-1.175c2.225-4.372,6.644-7.089,11.532-7.089c6.062,0,11.382,4.298,12.649,10.219l0.318,1.483l1.514,0.094
		c3.708,0.23,6.612,3.319,6.612,7.03c0,3.878-3.144,7.035-7.017,7.057c-0.042-0.003-0.079-0.005-0.117-0.005l-2.047,0.005h-0.819v2
		h2.819v-0.006c0.042,0.001,0.082,0.006,0.124,0.006c5.001,0,9.057-4.054,9.057-9.057
		C-166.335-361.591-170.089-365.513-174.823-365.808z M-202.743-369.425c-0.241-0.016-0.48-0.036-0.725-0.036
		c-2.766,0-5.282,1.041-7.2,2.743c-1.092-1.366-1.753-3.09-1.753-4.971c0-4.41,3.589-7.999,8-7.999c3.091,0,5.76,1.773,7.091,4.345
		C-199.628-373.902-201.508-371.854-202.743-369.425z"/>
	<circle cx="-198.345" cy="-339.237" r="1.5"/>
	<circle cx="-190.345" cy="-333.237" r="1.5"/>
	<circle cx="-182.345" cy="-337.237" r="1.5"/>
	<rect x="-199.345" y="-355.713" width="2" height="11.976"/>
	<polygon points="-189.345,-337.772 -189.345,-339.713 -189.345,-351.713 -191.345,-351.713 -191.345,-339.713 -191.345,-337.772 
		-191.345,-337.737 -189.345,-337.737 	"/>
	<polygon points="-181.345,-341.96 -181.345,-343.713 -181.345,-355.713 -183.345,-355.713 -183.345,-343.713 -183.345,-341.96 
		-183.345,-341.737 -181.345,-341.737 	"/>
</g>
<g>
	<path d="M-74.221-368.806c-1.444-6.742-7.433-11.8-14.605-11.8c-1.799,0-3.522,0.32-5.118,0.904
		c-0.949-5.108-5.404-8.98-10.788-8.98c-0.413,0-0.819,0.027-1.222,0.071c0.744,1.112,1.179,2.448,1.179,3.886c0,3.865-3.134,7-7,7
		c-1.438,0-2.773-0.435-3.886-1.179c-0.044,0.401-0.071,0.809-0.071,1.222c0,3.712,1.845,6.987,4.661,8.979
		c-1.653,1.907-2.661,4.389-2.661,7.111c0,5.983,4.836,10.836,10.813,10.865v0.003h1.188v-2h-0.721l-0.457-0.003
		c-4.864-0.023-8.822-4.001-8.822-8.865c0-4.89,3.978-8.868,8.867-8.868c0.15,0,0.299,0.012,0.447,0.022l0.148,0.01l1.314,0.085
		l0.597-1.175c2.225-4.372,6.644-7.089,11.532-7.089c6.062,0,11.382,4.298,12.649,10.219l0.318,1.483l1.514,0.094
		c3.708,0.23,6.612,3.319,6.612,7.03c0,3.878-3.144,7.035-7.017,7.057c-0.042-0.003-0.079-0.005-0.117-0.005l-2.047,0.005h-0.819v2
		h2.819v-0.006c0.042,0.001,0.082,0.006,0.124,0.006c5.001,0,9.057-4.054,9.057-9.057
		C-65.732-364.589-69.486-368.511-74.221-368.806z M-102.141-372.423c-0.241-0.016-0.48-0.036-0.725-0.036
		c-2.537,0-4.865,0.876-6.715,2.334c-2.012-1.294-3.487-3.354-3.976-5.776c0.582,0.117,1.178,0.177,1.78,0.177c4.963,0,9-4.037,9-9
		c0-0.603-0.06-1.198-0.177-1.78c3.733,0.753,6.629,3.824,7.133,7.64C-98.53-377.421-100.745-375.166-102.141-372.423z"/>
	<circle cx="-97.732" cy="-342.231" r="1.5"/>
	<circle cx="-89.732" cy="-336.231" r="1.5"/>
	<circle cx="-81.732" cy="-340.231" r="1.5"/>
	<rect x="-98.732" y="-358.707" width="2" height="11.976"/>
	<polygon points="-88.732,-340.767 -88.732,-342.707 -88.732,-354.707 -90.732,-354.707 -90.732,-342.707 -90.732,-340.767 
		-90.732,-340.731 -88.732,-340.731 	"/>
	<polygon points="-80.732,-344.954 -80.732,-346.707 -80.732,-358.707 -82.732,-358.707 -82.732,-346.707 -82.732,-344.954 
		-82.732,-344.731 -80.732,-344.731 	"/>
</g>
<g>
	<rect x="-222.335" y="-264.365" width="56" height="2"/>
	<rect x="-218.335" y="-258.365" width="50" height="2"/>
	<rect x="-212.335" y="-252.365" width="36" height="2"/>
	<rect x="-220.335" y="-270.365" width="52" height="2"/>
	<path d="M-208.461-278.37c0.175,0,0.347,0.014,0.519,0.025l0.149,0.01l1.316,0.088l0.598-1.176
		c2.493-4.899,7.443-7.942,12.92-7.942c6.79,0,12.75,4.814,14.171,11.448l0.318,1.482l1.514,0.095
		c1.207,0.075,2.335,0.425,3.336,0.975h3.286c-1.678-1.703-3.957-2.813-6.498-2.971c-1.596-7.445-8.207-13.029-16.127-13.029
		c-6.423,0-11.977,3.678-14.702,9.035c-0.266-0.018-0.53-0.04-0.8-0.04c-4.843,0-9.004,2.874-10.9,7.005h2.251
		C-215.379-276.352-212.154-278.37-208.461-278.37z"/>
</g>
<g>
	<rect x="-101.232" y="-291.88" width="2" height="7.973"/>
	<rect x="-120.232" y="-272.966" width="7.973" height="2"/>
	<rect x="-115.559" y="-284.232" transform="matrix(0.7071 0.7071 -0.7071 0.7071 -232.9543 -4.0634)" width="7.974" height="2"/>
	<rect x="-90.051" y="-287.214" transform="matrix(0.7071 0.7071 -0.7071 0.7071 -226.3552 -19.9873)" width="2" height="7.972"/>
	<rect x="-111.232" y="-258.006" width="50" height="2"/>
	<rect x="-107.232" y="-252.006" width="44" height="2"/>
	<rect x="-101.232" y="-247.006" width="30" height="2"/>
	<rect x="-109.232" y="-264.006" width="46" height="2"/>
	<path d="M-108.324-266.006h0.771h1.927h1.012c1.472-1.087,3.283-1.737,5.249-1.737c0.15,0,0.299,0.012,0.447,0.022l0.148,0.01
		l1.314,0.085l0.597-1.175c2.225-4.372,6.644-7.089,11.532-7.089c5.945,0,11.168,4.139,12.563,9.884h2.043v-0.084
		c-1.444-6.742-7.433-11.8-14.605-11.8c-2.185,0-4.258,0.47-6.126,1.313c-1.667-3.202-5.007-5.394-8.866-5.394
		c-5.522,0-10,4.477-10,9.999C-110.318-269.729-109.57-267.671-108.324-266.006z M-100.318-279.97c3.091,0,5.76,1.773,7.091,4.345
		c-2.298,1.44-4.178,3.488-5.413,5.918c-0.241-0.016-0.48-0.036-0.725-0.036c-2.764,0-5.274,1.045-7.189,2.745
		c-1.097-1.366-1.764-3.089-1.764-4.973C-108.318-276.381-104.729-279.97-100.318-279.97z"/>
</g>
<g>
	<rect x="-12.488" y="-261.443" width="50" height="2"/>
	<rect x="-8.488" y="-255.443" width="44" height="2"/>
	<rect x="-2.488" y="-250.443" width="30" height="2"/>
	<rect x="-10.488" y="-267.443" width="46" height="2"/>
	<path d="M-8.846-269.443h0.037h1.884h1.055c1.472-1.087,3.283-1.737,5.249-1.737c0.15,0,0.299,0.012,0.447,0.022l0.148,0.01
		l1.314,0.085l0.597-1.175c2.225-4.372,6.644-7.089,11.532-7.089c5.945,0,11.168,4.139,12.563,9.884h2.043v-0.084
		c-1.444-6.742-7.433-11.8-14.605-11.8c-1.799,0-3.521,0.32-5.117,0.903c-0.945-5.111-5.402-8.987-10.789-8.987
		c-0.413,0-0.819,0.027-1.222,0.071c0.744,1.112,1.179,2.448,1.179,3.886c0,3.865-3.134,7-7,7c-1.438,0-2.773-0.435-3.886-1.179
		c-0.044,0.401-0.071,0.809-0.071,1.222C-13.488-274.707-11.652-271.437-8.846-269.443z M-9.531-276.454c4.963,0,9-4.037,9-9
		c0-0.603-0.06-1.198-0.177-1.78c3.735,0.753,6.633,3.828,7.134,7.647c-2.712,1.443-4.927,3.699-6.322,6.442
		c-0.241-0.016-0.48-0.036-0.725-0.036c-2.534,0-4.855,0.879-6.701,2.335c-2.02-1.293-3.5-3.356-3.989-5.785
		C-10.729-276.514-10.134-276.454-9.531-276.454z"/>
</g>
<g>
	<path d="M119.403-258.43H99.93l-0.578-0.003c-5.485-0.027-9.948-4.513-9.948-9.998c0-5.514,4.485-10,9.999-10
		c0.175,0,0.347,0.014,0.519,0.025l0.149,0.01l1.316,0.088l0.598-1.176c2.493-4.899,7.443-7.942,12.92-7.942
		c6.79,0,12.75,4.814,14.171,11.448l0.318,1.482l1.514,0.095c1.822,0.113,3.463,0.845,4.746,1.971h2.732
		c-1.707-2.262-4.348-3.78-7.354-3.967c-1.596-7.445-8.207-13.029-16.127-13.029c-6.423,0-11.977,3.678-14.702,9.035
		c-0.266-0.018-0.53-0.04-0.8-0.04c-6.627,0-11.999,5.372-11.999,12c0,6.607,5.34,11.965,11.938,11.998v0.003h20.062
		c2.205,0,4,1.794,4,4s-1.795,4-4,4v2c3.314,0,6-2.686,6-6C125.403-255.743,122.718-258.43,119.403-258.43z"/>
	<path d="M123.403-262.43h-15.988v2h15.988c3.314,0,6-2.687,6-6c0-3.314-2.686-6-6-6v2c2.205,0,4,1.794,4,4
		S125.608-262.43,123.403-262.43z"/>
	<path d="M136.403-268.43c1.654,0,3,1.346,3,3s-1.346,3-3,3c-0.043,0-0.083-0.011-0.126-0.013h-4.862
		c0.003,0.005,0.009,0.008,0.012,0.013h-0.023v2h5.5v-0.051c2.523-0.254,4.5-2.358,4.5-4.949c0-2.762-2.238-5-5-5V-268.43z"/>
	<path d="M140.403-258.43h-13v2h9.022c-0.004,0.005-0.008,0.008-0.011,0.013h3.862c0.043-0.002,0.083-0.013,0.126-0.013
		c1.654,0,3,1.346,3,3s-1.346,3-3,3v2c2.762,0,5-2.238,5-5S143.165-258.43,140.403-258.43z"/>
	<rect x="101.403" y="-262.43" width="4" height="2"/>
</g>
<path d="M-88.158-657.533c6.95,1.305,12.226,7.419,12.226,14.742c0,8.272-6.729,15.002-15,15.002c-6.79,0-12.531-4.49-14.366-10.728
	c1.398,0.461,2.867,0.698,4.366,0.698c7.72,0,14-6.281,14-14.001C-86.933-653.804-87.356-655.748-88.158-657.533 M-90.933-659.79
	c-0.338,0-0.668,0.031-1,0.051c1.861,2.113,3,4.881,3,7.92c0,6.627-5.372,12.001-12,12.001c-2.599,0-4.998-0.835-6.963-2.239
	c0.387,9.047,7.821,16.269,16.963,16.269c9.39,0,17-7.612,17-17.002S-81.543-659.79-90.933-659.79L-90.933-659.79z"/>
<g>
	<path d="M-194.328-654.795c-7.18,0-13,5.819-13,12.999c0,7.181,5.82,13.002,13,13.002s13-5.821,13-13.002
		C-181.328-648.976-187.148-654.795-194.328-654.795z M-194.328-630.794c-6.065,0-11-4.936-11-11.002
		c0-6.064,4.935-10.999,11-10.999s11,4.935,11,10.999C-183.328-635.729-188.263-630.794-194.328-630.794z"/>
	<rect x="-195.335" y="-667.789" width="2" height="10"/>
	<rect x="-195.335" y="-625.789" width="2" height="10"/>
	<rect x="-220.328" y="-642.789" width="9.993" height="2"/>
	<rect x="-178.335" y="-642.789" width="10.007" height="2"/>
	<rect x="-180.635" y="-661.703" transform="matrix(0.7071 0.7071 -0.7071 0.7071 -516.8285 -65.2627)" width="2" height="10.409"/>
	<rect x="-210.044" y="-632.294" transform="matrix(-0.7071 -0.7071 0.7071 -0.7071 86.5588 -1218.325)" width="2" height="10.41"/>
	<rect x="-214.244" y="-657.494" transform="matrix(0.7071 0.7071 -0.7071 0.7071 -525.4374 -44.4692)" width="10.409" height="2"/>
	
		<rect x="-184.836" y="-628.084" transform="matrix(-0.7072 -0.7071 0.7071 -0.7072 136.7288 -1197.5393)" width="10.41" height="2"/>
</g>
<g>
	<rect x="203.838" y="-296.928" width="2" height="7.973"/>
	<rect x="184.865" y="-277.941" width="7.973" height="2"/>
	<rect x="189.591" y="-289.16" transform="matrix(0.7071 0.7071 -0.7071 0.7071 -147.0623 -221.2806)" width="7.974" height="2"/>
	<rect x="215.1" y="-292.142" transform="matrix(0.7071 0.7071 -0.7071 0.7071 -140.4631 -237.2045)" width="2" height="7.972"/>
	<path d="M218.865-254.928l0.005-0.007h-12.536l-0.594-0.003c-4.864-0.024-8.822-4.001-8.822-8.865c0-4.89,3.978-8.868,8.867-8.868
		c0.15,0,0.299,0.012,0.447,0.021l0.148,0.011l1.314,0.085l0.597-1.174c2.225-4.373,6.644-7.09,11.532-7.09
		c5.916,0,11.114,4.099,12.54,9.8h2.065c-1.444-6.742-7.433-11.8-14.605-11.8c-2.185,0-4.258,0.47-6.126,1.313
		c-1.667-3.202-5.007-5.394-8.866-5.394c-5.522,0-10,4.477-10,9.999c0,2.46,0.899,4.702,2.373,6.442
		c-1.429,1.84-2.287,4.144-2.287,6.653c0,5.983,4.836,10.836,10.813,10.865v0.003h13.135v0.007c2.205,0,4,1.794,4,4s-1.795,4-4,4v2
		c3.314,0,6-2.686,6-6C224.865-252.241,222.18-254.928,218.865-254.928z M204.832-284.897c3.091,0,5.76,1.773,7.091,4.345
		c-2.298,1.439-4.178,3.488-5.413,5.918c-0.241-0.016-0.48-0.036-0.725-0.036c-2.766,0-5.282,1.042-7.2,2.743
		c-1.092-1.367-1.753-3.09-1.753-4.971C196.832-281.309,200.421-284.897,204.832-284.897z"/>
	<path d="M222.865-258.928h-9.988v2h9.988c3.314,0,6-2.687,6-6c0-3.314-2.686-6-6-6v2c2.205,0,4,1.794,4,4
		S225.07-258.928,222.865-258.928z"/>
	<path d="M230.889-258.928h-0.023v2h5.5v-0.051c2.523-0.254,4.5-2.358,4.5-4.949c0-2.762-2.238-5-5-5v2c1.654,0,3,1.346,3,3
		s-1.346,3-3,3c-0.043,0-0.083-0.011-0.126-0.013h-4.862C230.88-258.936,230.886-258.932,230.889-258.928z"/>
	<path d="M239.865-254.928h-13v2h9.022c-0.004,0.004-0.008,0.008-0.011,0.013h3.862c0.043-0.002,0.083-0.013,0.126-0.013
		c1.654,0,3,1.346,3,3s-1.346,3-3,3v2c2.762,0,5-2.238,5-5S242.627-254.928,239.865-254.928z"/>
	<rect x="206.865" y="-258.928" width="4" height="2"/>
</g>
<g>
	<path d="M318.827-256.934l0.005-0.007h-12.536l-0.594-0.003c-4.864-0.024-8.822-4.001-8.822-8.865c0-4.89,3.978-8.868,8.867-8.868
		c0.15,0,0.299,0.012,0.447,0.021l0.148,0.011l1.314,0.085l0.597-1.174c2.225-4.373,6.644-7.09,11.532-7.09
		c5.916,0,11.114,4.099,12.54,9.8h2.065c-1.444-6.742-7.433-11.8-14.605-11.8c-1.806,0-3.536,0.322-5.138,0.91
		c-0.938-5.123-5.4-9.01-10.794-9.01c-0.413,0-0.819,0.027-1.222,0.071c0.744,1.112,1.179,2.448,1.179,3.886c0,3.865-3.134,7-7,7
		c-1.438,0-2.773-0.435-3.886-1.179c-0.044,0.401-0.071,0.809-0.071,1.222c0,3.725,1.858,7.009,4.69,8.998
		c-1.655,1.907-2.665,4.392-2.665,7.116c0,5.983,4.836,10.836,10.813,10.865v0.003h13.135v0.007c2.205,0,4,1.794,4,4s-1.795,4-4,4v2
		c3.314,0,6-2.686,6-6C324.827-254.247,322.142-256.934,318.827-256.934z M295.031-280.143c0.582,0.117,1.178,0.177,1.78,0.177
		c4.963,0,9-4.037,9-9c0-0.603-0.06-1.198-0.177-1.78c3.744,0.755,6.646,3.842,7.138,7.674c-2.702,1.444-4.909,3.696-6.301,6.432
		c-0.241-0.016-0.48-0.036-0.725-0.036c-2.535,0-4.861,0.875-6.71,2.33C297.009-275.639,295.522-277.707,295.031-280.143z"/>
	<path d="M322.827-260.934h-9.988v2h9.988c3.314,0,6-2.687,6-6c0-3.314-2.686-6-6-6v2c2.205,0,4,1.794,4,4
		S325.032-260.934,322.827-260.934z"/>
	<path d="M330.851-260.934h-0.023v2h5.5v-0.051c2.523-0.254,4.5-2.358,4.5-4.949c0-2.762-2.238-5-5-5v2c1.654,0,3,1.346,3,3
		s-1.346,3-3,3c-0.043,0-0.083-0.011-0.126-0.013h-4.862C330.842-260.941,330.848-260.938,330.851-260.934z"/>
	<path d="M339.827-256.934h-13v2h9.022c-0.004,0.004-0.008,0.008-0.011,0.013h3.862c0.043-0.002,0.083-0.013,0.126-0.013
		c1.654,0,3,1.346,3,3s-1.346,3-3,3v2c2.762,0,5-2.238,5-5S342.589-256.934,339.827-256.934z"/>
	<rect x="306.827" y="-260.934" width="4" height="2"/>
</g>
<g>
	<rect x="419.72" y="-294.365" width="2" height="10"/>
	<rect x="394.727" y="-269.365" width="9.993" height="2"/>
	<rect x="434.42" y="-288.279" transform="matrix(0.7071 0.7071 -0.7071 0.7071 -72.6326 -390.7987)" width="2" height="10.409"/>
	<rect x="400.811" y="-284.07" transform="matrix(0.7071 0.7071 -0.7071 0.7071 -81.2415 -370.0053)" width="10.409" height="2"/>
	<path d="M424.72-254.365h-24v2h24c2.205,0,4,1.794,4,4s-1.795,4-4,4v2c3.314,0,6-2.686,6-6
		C430.72-251.679,428.034-254.365,424.72-254.365z"/>
	<path d="M436.743-258.365h-0.023v2h5.5v-0.051c2.523-0.254,4.5-2.358,4.5-4.949c0-2.762-2.238-5-5-5v2c1.654,0,3,1.346,3,3
		s-1.346,3-3,3c-0.043,0-0.083-0.011-0.126-0.013h-4.862C436.734-258.373,436.74-258.369,436.743-258.365z"/>
	<path d="M445.72-254.365h-13v2h9.022c-0.004,0.004-0.008,0.008-0.011,0.013h3.862c0.043-0.002,0.083-0.013,0.126-0.013
		c1.654,0,3,1.346,3,3s-1.346,3-3,3v2c2.762,0,5-2.238,5-5S448.481-254.365,445.72-254.365z"/>
	<path d="M412.429-258.365H400.72v2h12.012h0.822h15.166c3.314,0,6-2.687,6-6c0-3.314-2.686-6-6-6v2c2.205,0,4,1.794,4,4
		s-1.795,4-4,4h-12.538c-3.802-1.734-6.455-5.563-6.455-10.007c0-6.064,4.935-10.999,11-10.999c5.384,0,9.868,3.891,10.81,9.006
		h2.021c-0.961-6.23-6.331-11.006-12.831-11.006c-7.18,0-13,5.819-13,12.999C407.727-264.347,409.557-260.75,412.429-258.365z"/>
</g>
<g>
	<path d="M524.946-260.922h-24v2h24c2.205,0,4,1.794,4,4s-1.795,4-4,4v2c3.314,0,6-2.686,6-6
		C530.946-258.235,528.261-260.922,524.946-260.922z"/>
	<path d="M542.446-262.922v-0.051c2.523-0.254,4.5-2.358,4.5-4.949c0-2.762-2.238-5-5-5v2c1.654,0,3,1.346,3,3s-1.346,3-3,3
		c-0.043,0-0.083-0.011-0.126-0.013h-4.862c0.004,0.005,0.009,0.009,0.012,0.013h-0.023v2H542.446z"/>
	<path d="M545.946-260.922h-13v2h9.022c-0.003,0.004-0.007,0.008-0.011,0.013h3.862c0.043-0.002,0.083-0.013,0.126-0.013
		c1.654,0,3,1.346,3,3s-1.346,3-3,3v2c2.762,0,5-2.238,5-5S548.708-260.922,545.946-260.922z"/>
	<path d="M513.78-262.922h15.166c3.314,0,6-2.687,6-6c0-3.314-2.686-6-6-6v2c2.205,0,4,1.794,4,4s-1.795,4-4,4H516.36
		c-2.596-1.188-4.658-3.339-5.69-6.034c0.849,0.204,1.724,0.309,2.612,0.309c6.168,0,11.187-5.019,11.187-11.188
		c0-1.276-0.22-2.532-0.64-3.717c4.046,1.102,7.168,4.459,7.937,8.63h2.018c-0.964-6.237-6.338-11.016-12.846-11.016
		c-0.259,0-0.511,0.024-0.766,0.039c1.425,1.618,2.297,3.737,2.297,6.063c0,5.072-4.112,9.188-9.187,9.188
		c-1.988,0-3.826-0.641-5.33-1.715c0.162,3.801,1.962,7.165,4.699,9.44h-11.705v2h12.012H513.78z"/>
</g>
<g>
	<path d="M-194.835-175.729h-20c-1.103,0-2-0.897-2-2s0.897-2,2-2h3.445h0.555v-2h-4c-2.209,0-4,1.791-4,4s1.791,4,4,4h20
		c2.205,0,4,1.794,4,4s-1.795,4-4,4v2c3.314,0,6-2.686,6-6C-188.835-173.042-191.521-175.729-194.835-175.729z"/>
	<path d="M-192.835-191.729v2c2.205,0,4,1.794,4,4s-1.795,4-4,4h-15.988v2h15.988c3.314,0,6-2.687,6-6
		C-186.835-189.043-189.521-191.729-192.835-191.729z"/>
	<path d="M-186.835-179.729v2h5.5v-0.051c2.523-0.254,4.5-2.358,4.5-4.949c0-2.762-2.238-5-5-5v2c1.654,0,3,1.346,3,3s-1.346,3-3,3
		c-0.043,0-0.083-0.011-0.126-0.013h-4.862c0.003,0.005,0.009,0.009,0.012,0.013H-186.835z"/>
	<path d="M-175.835-175.729h-11v2h7.022c-0.004,0.004-0.008,0.008-0.011,0.013h3.862c0.043-0.002,0.083-0.013,0.126-0.013
		c1.654,0,3,1.346,3,3s-1.346,3-3,3v2c2.762,0,5-2.238,5-5S-173.073-175.729-175.835-175.729z"/>
</g>
<path d="M341.457-189.382v-0.038h-38.376c-1.103,0-2-0.897-2-2s0.897-2,2-2h33c2.762,0,5-2.238,5-5s-2.238-5-5-5h-37.875v0.008
	c-0.042-0.001-0.083-0.008-0.125-0.008c-2.762,0-5,2.238-5,5s2.238,5,5,5v-2c-1.654,0-3-1.346-3-3s1.346-3,3-3h0.125h3.853h34.022
	c1.654,0,3,1.346,3,3s-1.346,3-3,3h-33c-2.209,0-4,1.791-4,4s1.791,4,4,4h38c1.103,0,2,0.897,2,2s-0.897,2-2,2h-32
	c-2.209,0-4,1.791-4,4s1.791,4,4,4h22c1.103,0,2,0.897,2,2s-0.897,2-2,2h-24.01v0.001c-2.204,0.006-3.99,1.793-3.99,3.999
	s1.786,3.993,3.99,3.999v0.001h12.01c1.103,0,2,0.897,2,2s-0.897,2-2,2h-2c-2.209,0-4,1.791-4,4s1.791,4,4,4v-2
	c-1.103,0-2-0.897-2-2s0.897-2,2-2h2c2.209,0,4-1.791,4-4s-1.791-4-4-4h-12c-1.103,0-2-0.897-2-2s0.897-2,2-2h24
	c2.209,0,4-1.791,4-4c0-2.152-1.704-3.895-3.834-3.983v-0.017h-22.166c-1.103,0-2-0.897-2-2s0.897-2,2-2h32c2.209,0,4-1.791,4-4
	C345.081-187.5,343.487-189.189,341.457-189.382z"/>
<path d="M526.872-198.704v-2.024h-2v2.024c-13.01,0.513-23.462,10.965-23.975,23.976h1.674c1.14-1.222,2.748-2,4.551-2
	c2.26,0,4.233,1.203,5.331,3h1.838c1.098-1.797,3.071-3,5.331-3c2.204,0,4.137,1.144,5.25,2.866v15.134c0,2.21,1.791,4,4,4
	s4-1.79,4-4h-2c0,1.103-0.897,2-2,2s-2-0.897-2-2v-15.134c1.113-1.723,3.046-2.866,5.25-2.866c2.26,0,4.233,1.203,5.331,3h1.838
	c1.098-1.797,3.071-3,5.331-3c1.803,0,3.411,0.778,4.551,2h1.674C550.334-187.739,539.882-198.191,526.872-198.704z
	 M544.622-178.729c-2.496,0-4.736,1.114-6.25,2.87c-1.514-1.756-3.754-2.87-6.25-2.87s-4.736,1.114-6.25,2.87
	c-1.514-1.756-3.754-2.87-6.25-2.87s-4.736,1.114-6.25,2.87c-1.514-1.756-3.755-2.87-6.25-2.87c-1.402,0-2.731,0.351-3.897,0.975
	c1.909-10.769,11.339-18.975,22.647-18.975s20.738,8.206,22.647,18.975C547.354-178.378,546.024-178.729,544.622-178.729z"/>
<g>
	<path d="M121.577-74.416v-17.105c0-2.762-2.238-5-5-5s-5,2.238-5,5v17.105c-1.236,1.263-2,2.988-2,4.895c0,3.866,3.134,7,7,7
		s7-3.134,7-7C123.577-71.428,122.813-73.153,121.577-74.416z M116.577-64.521c-2.757,0-5-2.243-5-5
		c0-1.313,0.508-2.554,1.429-3.495l0.571-0.583v-0.816v-17.105c0-1.654,1.346-3,3-3s3,1.346,3,3v17.105v0.816l0.571,0.583
		c0.921,0.941,1.429,2.183,1.429,3.495C121.577-66.765,119.334-64.521,116.577-64.521z"/>
	<path d="M117.577-72.346v-15.176h-2v15.176c-1.167,0.413-2.008,1.516-2.008,2.824c0,1.662,1.347,3.008,3.008,3.008
		c1.662,0,3.008-1.346,3.008-3.008C119.585-70.83,118.745-71.933,117.577-72.346z M116.577-68.514c-0.556,0-1.008-0.452-1.008-1.008
		s0.452-1.008,1.008-1.008s1.008,0.452,1.008,1.008S117.133-68.514,116.577-68.514z"/>
</g>
<g>
	<path d="M221.365-74.416v-17.105c0-2.762-2.238-5-5-5s-5,2.238-5,5v17.105c-1.236,1.263-2,2.988-2,4.895c0,3.866,3.134,7,7,7
		s7-3.134,7-7C223.365-71.428,222.602-73.153,221.365-74.416z M216.365-64.521c-2.757,0-5-2.243-5-5
		c0-1.313,0.508-2.554,1.429-3.495l0.571-0.583v-0.816v-17.105c0-1.654,1.346-3,3-3s3,1.346,3,3v17.105v0.816l0.571,0.583
		c0.921,0.941,1.429,2.183,1.429,3.495C221.365-66.765,219.122-64.521,216.365-64.521z"/>
	<path d="M217.365-72.346v-20.176h-2v20.176c-1.167,0.413-2.008,1.516-2.008,2.824c0,1.662,1.347,3.008,3.008,3.008
		c1.662,0,3.008-1.346,3.008-3.008C219.373-70.83,218.533-71.933,217.365-72.346z M216.365-68.514c-0.556,0-1.008-0.452-1.008-1.008
		s0.452-1.008,1.008-1.008s1.008,0.452,1.008,1.008S216.921-68.514,216.365-68.514z"/>
</g>
<g>
	<path d="M18.468-74.416v-17.105c0-2.762-2.238-5-5-5s-5,2.238-5,5v17.105c-1.236,1.263-2,2.988-2,4.895c0,3.866,3.134,7,7,7
		s7-3.134,7-7C20.468-71.428,19.704-73.153,18.468-74.416z M13.468-64.521c-2.757,0-5-2.243-5-5c0-1.313,0.508-2.554,1.429-3.495
		l0.571-0.583v-0.816v-17.105c0-1.654,1.346-3,3-3s3,1.346,3,3v17.105v0.816l0.571,0.583c0.921,0.941,1.429,2.183,1.429,3.495
		C18.468-66.765,16.225-64.521,13.468-64.521z"/>
	<path d="M14.468-72.346v-10.176h-2v10.176c-1.167,0.413-2.008,1.516-2.008,2.824c0,1.662,1.347,3.008,3.008,3.008
		c1.662,0,3.008-1.346,3.008-3.008C16.476-70.83,15.636-71.933,14.468-72.346z M13.468-68.514c-0.556,0-1.008-0.452-1.008-1.008
		s0.452-1.008,1.008-1.008s1.008,0.452,1.008,1.008S14.023-68.514,13.468-68.514z"/>
</g>
<g>
	<path d="M-85.178-74.416v-17.105c0-2.762-2.238-5-5-5s-5,2.238-5,5v17.105c-1.236,1.263-2,2.988-2,4.895c0,3.866,3.134,7,7,7
		s7-3.134,7-7C-83.178-71.428-83.941-73.153-85.178-74.416z M-90.178-64.521c-2.757,0-5-2.243-5-5c0-1.313,0.508-2.554,1.429-3.495
		l0.571-0.583v-0.816v-17.105c0-1.654,1.346-3,3-3s3,1.346,3,3v17.105v0.816l0.571,0.583c0.921,0.941,1.429,2.183,1.429,3.495
		C-85.178-66.765-87.421-64.521-90.178-64.521z"/>
	<path d="M-89.178-72.346v-5.176h-2v5.176c-1.167,0.413-2.008,1.516-2.008,2.824c0,1.662,1.347,3.008,3.008,3.008
		c1.662,0,3.008-1.346,3.008-3.008C-87.17-70.83-88.01-71.933-89.178-72.346z M-90.178-68.514c-0.556,0-1.008-0.452-1.008-1.008
		s0.452-1.008,1.008-1.008s1.008,0.452,1.008,1.008S-89.622-68.514-90.178-68.514z"/>
</g>
<g>
	<path d="M-189.835-74.416v-17.105c0-2.762-2.238-5-5-5s-5,2.238-5,5v17.105c-1.236,1.263-2,2.988-2,4.895c0,3.866,3.134,7,7,7
		s7-3.134,7-7C-187.835-71.428-188.599-73.153-189.835-74.416z M-194.835-64.521c-2.757,0-5-2.243-5-5
		c0-1.313,0.508-2.554,1.429-3.495l0.571-0.583v-0.816v-17.105c0-1.654,1.346-3,3-3s3,1.346,3,3v17.105v0.816l0.571,0.583
		c0.921,0.941,1.429,2.183,1.429,3.495C-189.835-66.765-192.078-64.521-194.835-64.521z"/>
	<path d="M-194.835-72.529c-1.661,0-3.008,1.347-3.008,3.008c0,1.662,1.347,3.008,3.008,3.008c1.662,0,3.008-1.346,3.008-3.008
		C-191.827-71.183-193.173-72.529-194.835-72.529z M-194.835-68.514c-0.556,0-1.008-0.452-1.008-1.008s0.452-1.008,1.008-1.008
		s1.008,0.452,1.008,1.008S-194.279-68.514-194.835-68.514z"/>
</g>
<g>
	<path d="M310.09-94.209c-2.209,0-4,1.791-4,4c0,2.21,1.791,4,4,4c2.211,0,4-1.79,4-4C314.09-92.418,312.301-94.209,310.09-94.209z
		 M310.09-88.209c-1.103,0-2-0.897-2-2s0.897-2,2-2s2,0.897,2,2S311.192-88.209,310.09-88.209z"/>
	<path d="M324.09-66.209c-4.41,0-7.999-3.589-7.999-7.999v-4.002c0-4.41,3.589-7.999,7.999-7.999c2.715,0,5.115,1.362,6.563,3.437
		l1.43-1.43c-1.824-2.429-4.72-4.007-7.992-4.007c-5.522,0-9.999,4.478-9.999,9.999v4.002c0,5.521,4.477,9.999,9.999,9.999
		c3.272,0,6.168-1.579,7.992-4.008l-1.43-1.43C329.206-67.572,326.806-66.209,324.09-66.209z"/>
</g>
<g>
	<path d="M414.786-94.33c-2.209,0-4,1.791-4,4c0,2.21,1.791,4,4,4c2.211,0,4-1.79,4-4C418.786-92.539,416.997-94.33,414.786-94.33z
		 M414.786-88.33c-1.103,0-2-0.897-2-2s0.897-2,2-2s2,0.897,2,2S415.889-88.33,414.786-88.33z"/>
	<polygon points="434.661,-86.209 434.661,-88.209 422.661,-88.209 420.661,-88.209 420.661,-64.209 422.661,-64.209 
		422.661,-76.209 430.661,-76.209 430.661,-78.209 422.661,-78.209 422.661,-86.209 	"/>
</g>
<g>
	<path d="M525.872-90.518c-7.179,0-13,5.82-13,13s5.821,13,13,13s13-5.82,13-13S533.051-90.518,525.872-90.518z M525.872-66.518
		c-6.065,0-11-4.935-11-11s4.935-11,11-11s11,4.935,11,11S531.938-66.518,525.872-66.518z"/>
	<path d="M521.605-73.275l6.363-2.121l2.121-6.364l-6.363,2.122L521.605-73.275z M525.308-78.058l1.62-0.54l-0.54,1.62l-1.62,0.54
		L525.308-78.058z"/>
</g>
<g>
	<path d="M-194.835,0c-7.179,0-13,5.82-13,13s5.821,13,13,13s13-5.82,13-13S-187.656,0-194.835,0z M-194.835,24
		c-6.065,0-11-4.934-11-11c0-6.064,4.935-11,11-11s11,4.936,11,11C-183.835,19.066-188.77,24-194.835,24z"/>
	<path d="M-192.273,11.422L-194.859,7l-2.529,4.33h0.007c-0.299,0.467-0.478,1.018-0.478,1.613c0,1.656,1.343,3,3,3s3-1.344,3-3
		c0-0.559-0.162-1.074-0.428-1.521H-192.273z M-194.859,13.943c-0.552,0-1-0.449-1-1c0-0.188,0.055-0.367,0.162-0.535l0.864-1.355
		l0.826,1.391c0.098,0.164,0.147,0.332,0.147,0.5C-193.859,13.494-194.308,13.943-194.859,13.943z"/>
</g>
<g>
	<path d="M-90.051,0c-7.18,0-13,5.82-13,13s5.82,13,13,13s13-5.82,13-13S-82.871,0-90.051,0z M-90.051,24c-6.065,0-11-4.934-11-11
		c0-6.064,4.935-11,11-11s11,4.936,11,11C-79.051,19.066-83.985,24-90.051,24z"/>
	<path d="M-88.462,10.42c-0.467-0.299-1.018-0.477-1.613-0.477c-1.658,0-3,1.342-3,3c0,1.656,1.342,3,3,3
		c0.557,0,1.072-0.162,1.52-0.428v0.014l4.422-2.586l-4.328-2.529V10.42z M-89.577,13.795c-0.164,0.098-0.332,0.148-0.498,0.148
		c-0.552,0-1-0.449-1-1c0-0.553,0.448-1,1-1c0.188,0,0.368,0.053,0.535,0.16l1.355,0.865L-89.577,13.795z"/>
</g>
<g>
	<path d="M13,0C5.82,0,0,5.82,0,13s5.82,13,13,13s13-5.82,13-13S20.18,0,13,0z M13,24C6.935,24,2,19.066,2,13C2,6.936,6.935,2,13,2
		s11,4.936,11,11C24,19.066,19.065,24,13,24z"/>
	<path d="M13,9.943c-1.656,0-3,1.342-3,3c0,0.557,0.162,1.072,0.428,1.52h-0.014L13,18.885l2.529-4.328h-0.006
		C15.822,14.09,16,13.539,16,12.943C16,11.285,14.658,9.943,13,9.943z M13.839,13.479l-0.865,1.355l-0.826-1.393
		C12.05,13.277,12,13.109,12,12.943c0-0.553,0.448-1,1-1s1,0.447,1,1C14,13.131,13.946,13.311,13.839,13.479z"/>
</g>
<g>
	<path d="M116.414,0c-7.179,0-13,5.82-13,13s5.821,13,13,13s13-5.82,13-13S123.593,0,116.414,0z M116.414,24
		c-6.065,0-11-4.934-11-11c0-6.064,4.935-11,11-11s11,4.936,11,11C127.414,19.066,122.479,24,116.414,24z"/>
	<path d="M116.373,9.943c-0.557,0-1.072,0.162-1.52,0.428v-0.014l-4.422,2.586l4.328,2.529v-0.006
		c0.467,0.299,1.018,0.477,1.613,0.477c1.658,0,3-1.342,3-3C119.373,11.287,118.031,9.943,116.373,9.943z M116.373,13.943
		c-0.188,0-0.368-0.055-0.535-0.162l-1.355-0.865l1.393-0.826c0.164-0.098,0.332-0.146,0.498-0.146c0.552,0,1,0.447,1,1
		C117.373,13.494,116.925,13.943,116.373,13.943z"/>
</g>
<g>
	<rect x="-91.737" y="-196.729" width="2" height="10"/>
	<rect x="-77.037" y="-190.643" transform="matrix(0.7071 0.7071 -0.7071 0.7071 -153.3954 -0.5468)" width="2" height="10.409"/>
	<rect x="-110.646" y="-186.433" transform="matrix(0.7071 0.7071 -0.7071 0.7071 -162.0042 20.2466)" width="10.409" height="2"/>
	<polygon points="-97.405,-167.475 -95.991,-166.061 -91.737,-170.314 -91.737,-160.729 -89.737,-160.729 -89.737,-170.314 
		-85.484,-166.061 -84.07,-167.475 -90.737,-174.143 	"/>
	<path d="M-77.73-170.729c0-0.002,0-0.004,0-0.006c0-7.18-5.82-12.999-13-12.999s-13,5.819-13,12.999c0,0.002,0,0.004,0,0.006h-13v2
		h18v-2h-3c0-0.002,0-0.004,0-0.006c0-6.064,4.935-10.999,11-10.999s11,4.935,11,10.999c0,0.002,0,0.004,0,0.006h-3v2h17.995v-2
		H-77.73z"/>
</g>
<g>
	<rect x="12.008" y="-197.916" width="2" height="10"/>
	<rect x="26.708" y="-191.83" transform="matrix(0.7071 0.7071 -0.7071 0.7071 -123.8488 -74.2535)" width="2" height="10.409"/>
	<rect x="-6.901" y="-187.62" transform="matrix(0.7071 0.7071 -0.7071 0.7071 -132.4577 -53.4601)" width="10.409" height="2"/>
	<polygon points="14.008,-163.369 14.008,-173.916 12.008,-173.916 12.008,-163.369 7.754,-167.623 6.34,-166.209 13.008,-159.541 
		19.675,-166.209 18.261,-167.623 	"/>
	<path d="M26.015-171.917c0-0.002,0-0.004,0-0.006c0-7.18-5.82-12.999-13-12.999s-13,5.819-13,12.999c0,0.002,0,0.004,0,0.006h-13v2
		h22v-2h-7c0-0.002,0-0.004,0-0.006c0-6.064,4.935-10.999,11-10.999s11,4.935,11,10.999c0,0.002,0,0.004,0,0.006h-7v2H39.01v-2
		H26.015z"/>
</g>
<g>
	<polygon points="216.365,-163.903 216.365,-178.286 214.365,-178.286 214.365,-163.903 210.111,-168.157 208.697,-166.743 
		215.365,-160.075 222.032,-166.743 220.618,-168.157 	"/>
	<path d="M231.993-183.257c-1.596-7.445-8.207-13.029-16.127-13.029c-6.423,0-11.977,3.678-14.702,9.035
		c-0.266-0.018-0.53-0.04-0.8-0.04c-6.627,0-11.999,5.372-11.999,12c0,6.607,5.34,11.965,11.938,11.998v0.003h6.062v-2h-5.604
		l-0.447-0.003c-5.485-0.027-9.948-4.513-9.948-9.998c0-5.514,4.485-10,9.999-10c0.175,0,0.347,0.014,0.52,0.025l0.148,0.01
		l1.316,0.088l0.598-1.176c2.492-4.899,7.443-7.942,12.92-7.942c6.79,0,12.75,4.814,14.172,11.448l0.317,1.482l1.514,0.095
		c4.203,0.262,7.496,3.763,7.496,7.971c0,4.397-3.565,7.977-7.957,8c-0.05-0.003-0.093-0.005-0.137-0.007l-2.043,0.007h-4.863v2
		h6.863v-0.007c0.046,0.001,0.091,0.007,0.137,0.007c5.521,0,10-4.477,10-10C241.365-178.601,237.221-182.932,231.993-183.257z"/>
</g>
<g>
	<polygon points="122.35,-167.099 123.764,-168.513 117.097,-175.181 110.429,-168.513 111.843,-167.099 116.097,-171.353 
		116.097,-158.767 118.097,-158.767 118.097,-171.353 	"/>
	<path d="M133.725-181.661c-1.596-7.445-8.207-13.029-16.127-13.029c-6.423,0-11.977,3.678-14.702,9.035
		c-0.266-0.018-0.53-0.04-0.8-0.04c-6.627,0-11.999,5.372-11.999,12c0,6.607,5.34,11.965,11.938,11.998v0.003h10.062v-2h-9.604
		l-0.447-0.003c-5.485-0.027-9.948-4.513-9.948-9.998c0-5.514,4.485-10,9.999-10c0.175,0,0.347,0.014,0.52,0.025l0.148,0.01
		l1.316,0.088l0.598-1.176c2.492-4.899,7.443-7.942,12.92-7.942c6.79,0,12.75,4.814,14.172,11.448l0.317,1.482l1.514,0.095
		c4.203,0.262,7.496,3.763,7.496,7.971c0,4.397-3.565,7.977-7.957,8c-0.05-0.003-0.093-0.005-0.137-0.007l-2.043,0.007h-8.863v2
		h10.863v-0.007c0.046,0.001,0.091,0.007,0.137,0.007c5.521,0,10-4.477,10-10C143.097-177.005,138.952-181.336,133.725-181.661z"/>
</g>
<g>
	<path d="M336.214-371.177c-1.596-7.445-8.207-13.029-16.127-13.029c-6.423,0-11.977,3.678-14.702,9.035
		c-0.266-0.018-0.53-0.04-0.8-0.04c-6.627,0-11.999,5.372-11.999,12c0,6.607,5.34,11.965,11.938,11.998v0.003h2.062v-2h-1.604
		l-0.447-0.003c-5.485-0.027-9.948-4.513-9.948-9.998c0-5.514,4.485-10,9.999-10c0.175,0,0.347,0.014,0.52,0.025l0.148,0.01
		l1.316,0.088l0.598-1.176c2.492-4.899,7.443-7.942,12.92-7.942c6.79,0,12.75,4.814,14.172,11.448l0.317,1.482l1.514,0.095
		c4.203,0.262,7.496,3.763,7.496,7.971c0,4.397-3.565,7.977-7.957,8c-0.05-0.003-0.093-0.005-0.137-0.007l-2.043,0.007h-0.863v2
		h2.863v-0.007c0.046,0.001,0.091,0.007,0.137,0.007c5.521,0,10-4.477,10-10C345.586-366.521,341.441-370.852,336.214-371.177z"/>
	<polygon points="314.586,-352.188 314.586,-354.818 316.759,-353.596 317.444,-354.816 314.975,-356.206 317.444,-357.596 
		316.759,-358.816 314.586,-357.594 314.586,-360.188 312.586,-360.188 312.586,-357.55 310.335,-358.816 309.649,-357.596 
		312.119,-356.206 309.649,-354.816 310.335,-353.596 312.586,-354.862 312.586,-352.188 	"/>
	<polygon points="319.748,-347.834 317.575,-346.611 317.575,-349.206 315.575,-349.206 315.575,-346.567 313.324,-347.834 
		312.639,-346.613 315.108,-345.224 312.639,-343.834 313.324,-342.613 315.575,-343.88 315.575,-341.206 317.575,-341.206 
		317.575,-343.836 319.748,-342.613 320.434,-343.834 317.964,-345.224 320.434,-346.613 	"/>
	<polygon points="328.764,-354.816 326.591,-353.594 326.591,-356.188 324.591,-356.188 324.591,-353.55 322.34,-354.816 
		321.654,-353.596 324.124,-352.206 321.654,-350.816 322.34,-349.596 324.591,-350.862 324.591,-348.188 326.591,-348.188 
		326.591,-350.818 328.764,-349.596 329.449,-350.816 326.979,-352.206 329.449,-353.596 	"/>
</g>
<g>
	<rect x="411.726" y="-389.229" width="2" height="7.973"/>
	<rect x="392.726" y="-370.314" width="7.973" height="2"/>
	<rect x="397.399" y="-381.581" transform="matrix(0.7071 0.7071 -0.7071 0.7071 -151.5483 -395.2922)" width="7.974" height="2"/>
	<rect x="422.907" y="-384.563" transform="matrix(0.7071 0.7071 -0.7071 0.7071 -144.9491 -411.2162)" width="2" height="7.972"/>
	<path d="M442.237-363.438c-1.444-6.742-7.433-11.8-14.605-11.8c-2.185,0-4.258,0.471-6.127,1.314
		c-1.666-3.203-5.006-5.395-8.865-5.395c-5.522,0-10,4.477-10,9.999c0,2.46,0.899,4.702,2.373,6.442
		c-1.428,1.84-2.287,4.144-2.287,6.653c0,5.983,4.836,10.836,10.813,10.865v0.003h1.188v-2h-0.721l-0.457-0.003
		c-4.864-0.023-8.822-4.001-8.822-8.865c0-4.89,3.978-8.868,8.867-8.868c0.15,0,0.299,0.012,0.447,0.022l0.148,0.01l1.314,0.085
		l0.597-1.175c2.225-4.372,6.644-7.089,11.532-7.089c6.062,0,11.382,4.298,12.649,10.219l0.318,1.483l1.514,0.094
		c3.708,0.23,6.612,3.319,6.612,7.03c0,3.878-3.144,7.035-7.017,7.057c-0.042-0.003-0.079-0.005-0.117-0.005l-1.866,0.005v2h1.819
		v-0.006c0.042,0.001,0.082,0.006,0.124,0.006c5.001,0,9.057-4.054,9.057-9.057C450.726-359.222,446.972-363.144,442.237-363.438z
		 M414.317-367.056c-0.241-0.016-0.48-0.036-0.725-0.036c-2.766,0-5.282,1.041-7.2,2.742c-1.092-1.365-1.753-3.089-1.753-4.97
		c0-4.41,3.589-7.999,8-7.999c3.092,0,5.76,1.773,7.091,4.346C417.433-371.533,415.554-369.485,414.317-367.056z"/>
	<polygon points="421.718,-346.336 421.718,-348.966 423.891,-347.743 424.576,-348.964 422.106,-350.354 424.576,-351.743 
		423.891,-352.964 421.718,-351.741 421.718,-354.336 419.718,-354.336 419.718,-351.697 417.467,-352.964 416.781,-351.743 
		419.251,-350.354 416.781,-348.964 417.467,-347.743 419.718,-349.01 419.718,-346.336 	"/>
	<polygon points="426.88,-341.981 424.707,-340.759 424.707,-343.354 422.707,-343.354 422.707,-340.715 420.456,-341.981 
		419.771,-340.761 422.24,-339.371 419.771,-337.981 420.456,-336.761 422.707,-338.027 422.707,-335.354 424.707,-335.354 
		424.707,-337.983 426.88,-336.761 427.565,-337.981 425.096,-339.371 427.565,-340.761 	"/>
	<polygon points="435.896,-348.964 433.723,-347.741 433.723,-350.336 431.723,-350.336 431.723,-347.697 429.472,-348.964 
		428.786,-347.743 431.256,-346.354 428.786,-344.964 429.472,-343.743 431.723,-345.01 431.723,-342.336 433.723,-342.336 
		433.723,-344.966 435.896,-343.743 436.581,-344.964 434.111,-346.354 436.581,-347.743 	"/>
</g>
<g>
	<path d="M542.426-366.441c-1.444-6.742-7.433-11.8-14.605-11.8c-1.799,0-3.522,0.32-5.118,0.904
		c-0.949-5.108-5.404-8.98-10.788-8.98c-0.413,0-0.819,0.027-1.222,0.071c0.744,1.112,1.179,2.448,1.179,3.886c0,3.865-3.134,7-7,7
		c-1.438,0-2.773-0.435-3.886-1.179c-0.044,0.401-0.071,0.809-0.071,1.222c0,3.713,1.845,6.987,4.661,8.979
		c-1.653,1.907-2.661,4.389-2.661,7.111c0,5.983,4.836,10.836,10.813,10.865v0.003h1.188v-2h-0.721l-0.457-0.003
		c-4.864-0.023-8.822-4.001-8.822-8.865c0-4.89,3.978-8.868,8.867-8.868c0.15,0,0.299,0.012,0.447,0.022l0.148,0.01l1.314,0.085
		l0.597-1.175c2.225-4.372,6.644-7.089,11.532-7.089c6.062,0,11.382,4.298,12.649,10.219l0.318,1.483l1.514,0.094
		c3.708,0.23,6.612,3.319,6.612,7.03c0,3.878-3.144,7.035-7.017,7.057c-0.042-0.003-0.079-0.005-0.117-0.005l-1.866,0.005v2h1.819
		v-0.006c0.042,0.001,0.082,0.006,0.124,0.006c5.001,0,9.057-4.054,9.057-9.057C550.914-362.225,547.16-366.146,542.426-366.441z
		 M514.506-370.059c-0.241-0.016-0.48-0.036-0.725-0.036c-2.537,0-4.865,0.877-6.715,2.334c-2.012-1.294-3.486-3.354-3.976-5.776
		c0.582,0.117,1.178,0.177,1.78,0.177c4.963,0,9-4.037,9-9c0-0.603-0.06-1.198-0.177-1.78c3.733,0.753,6.629,3.824,7.134,7.64
		C518.115-375.057,515.9-372.802,514.506-370.059z"/>
	<polygon points="521.951,-349.339 521.951,-351.969 524.124,-350.746 524.81,-351.967 522.34,-353.356 524.81,-354.746 
		524.124,-355.967 521.951,-354.744 521.951,-357.339 519.951,-357.339 519.951,-354.7 517.7,-355.967 517.015,-354.746 
		519.484,-353.356 517.015,-351.967 517.7,-350.746 519.951,-352.013 519.951,-349.339 	"/>
	<polygon points="527.113,-344.984 524.94,-343.762 524.94,-346.356 522.94,-346.356 522.94,-343.718 520.689,-344.984 
		520.004,-343.764 522.474,-342.374 520.004,-340.984 520.689,-339.764 522.94,-341.03 522.94,-338.356 524.94,-338.356 
		524.94,-340.986 527.113,-339.764 527.799,-340.984 525.329,-342.374 527.799,-343.764 	"/>
	<polygon points="536.129,-351.967 533.956,-350.744 533.956,-353.339 531.956,-353.339 531.956,-350.7 529.705,-351.967 
		529.02,-350.746 531.489,-349.356 529.02,-347.967 529.705,-346.746 531.956,-348.013 531.956,-345.339 533.956,-345.339 
		533.956,-347.969 536.129,-346.746 536.814,-347.967 534.345,-349.356 536.814,-350.746 	"/>
</g>
<rect x="-73.933" y="-934.191" fill="none" width="472.974" height="180.918"/>
<text transform="matrix(1 0 0 1 105.7046 -862.7925)"><tspan x="0" y="0" font-family="'HelveticaNeueLTStd-Th'" font-size="100" letter-spacing="2">60</tspan><tspan x="-99.268" y="60" font-family="'HelveticaNeueLTStd-Lt'" font-size="48" letter-spacing="1">Weather Icons</tspan><tspan x="-3.726" y="104" font-family="'HelveticaNeueLTStd-Lt'" font-size="24">IOS 7 Style</tspan></text>
</svg>
