<?xml version="1.0" encoding="utf-8"?>
<!-- Generator: Adobe Illustrator 16.0.0, SVG Export Plug-In . SVG Version: 6.00 Build 0)  -->
<!DOCTYPE svg PUBLIC "-//W3C//DTD SVG 1.1//EN" "http://www.w3.org/Graphics/SVG/1.1/DTD/svg11.dtd">
<svg version="1.1" id="Layer_1" xmlns="http://www.w3.org/2000/svg" xmlns:xlink="http://www.w3.org/1999/xlink" x="0px" y="0px"
	 width="26px" height="26px" viewBox="0 0 26 26" enable-background="new 0 0 26 26" xml:space="preserve">
<path d="M323.122-195.026l-1.803,15.077l-0.268,2.237h2.254h6.896l-14.693,18.759l1.789-14.52l0.277-2.245h-2.262h-6.957
	L323.122-195.026 M325.977-202.051l-21.667,28.333h11.004l-2.671,21.667l21.667-27.661h-11.004L325.977-202.051L325.977-202.051z"/>
<path d="M-89.913-657.287c6.79,0,12.749,4.814,14.171,11.448l0.318,1.483l1.514,0.094c4.203,0.262,7.496,3.763,7.496,7.971
	c0,4.396-3.565,7.977-7.957,8c-0.046-0.003-0.091-0.006-0.137-0.007l-2.043-0.036v0.043h-28.337l-0.578-0.003
	c-5.485-0.027-9.948-4.513-9.948-9.998c0-5.514,4.485-10,9.999-10c0.175,0,0.347,0.014,0.519,0.025l0.149,0.011l1.316,0.087
	l0.598-1.176C-100.34-654.244-95.39-657.287-89.913-657.287 M-89.913-659.287c-6.423,0-11.977,3.678-14.702,9.035
	c-0.266-0.018-0.53-0.04-0.8-0.04c-6.627,0-11.999,5.372-11.999,12c0,6.607,5.34,11.965,11.938,11.998v0.003h30.925v-0.007
	c0.046,0.001,0.091,0.007,0.137,0.007c5.521,0,10-4.477,10-10c0-5.311-4.145-9.642-9.372-9.967
	C-75.382-653.703-81.993-659.287-89.913-659.287L-89.913-659.287z"/>
<g>
	<path d="M33.038-638.876c-1.444-6.742-7.433-11.8-14.605-11.8c-2.185,0-4.258,0.47-6.127,1.313
		c-1.666-3.202-5.006-5.394-8.865-5.394c-5.522,0-10,4.477-10,9.999c0,2.46,0.898,4.702,2.373,6.442
		c-1.428,1.84-2.287,4.144-2.287,6.653c0,5.983,4.836,10.836,10.813,10.865v0.003h28.007v-0.006
		c0.042,0.001,0.082,0.006,0.124,0.006c5.001,0,9.057-4.054,9.057-9.057C41.526-634.659,37.772-638.581,33.038-638.876z
		 M3.44-652.756c3.092,0,5.76,1.773,7.092,4.345c-2.299,1.44-4.178,3.488-5.414,5.918c-0.241-0.016-0.48-0.036-0.725-0.036
		c-2.766,0-5.281,1.041-7.2,2.743c-1.092-1.366-1.753-3.09-1.753-4.971C-4.56-649.167-0.971-652.756,3.44-652.756z M32.51-622.793
		c-0.038-0.003-0.077-0.004-0.117-0.005l-2.047-0.042v0.047H4.942l-0.594-0.003c-4.864-0.023-8.822-4.001-8.822-8.865
		c0-4.89,3.978-8.868,8.867-8.868c0.15,0,0.299,0.012,0.447,0.021l0.148,0.011l1.314,0.085l0.598-1.174
		c2.224-4.373,6.643-7.09,11.531-7.09c6.062,0,11.381,4.298,12.65,10.219l0.317,1.482l1.514,0.095
		c3.708,0.231,6.612,3.319,6.612,7.03C39.526-625.972,36.383-622.815,32.51-622.793z"/>
	<rect x="2.446" y="-664.786" width="2" height="7.973"/>
	<rect x="-16.526" y="-645.8" width="7.973" height="2"/>
	<rect x="-11.801" y="-657.018" transform="matrix(0.7071 0.7071 -0.7071 0.7071 -466.1637 -186.6184)" width="7.974" height="2"/>
	<rect x="13.708" y="-660" transform="matrix(0.7071 0.7071 -0.7071 0.7071 -459.5645 -202.5424)" width="2" height="7.972"/>
</g>
<path d="M128.781-642.903c-1.444-6.742-7.433-11.8-14.605-11.8c-1.799,0-3.521,0.32-5.118,0.904
	c-0.949-5.108-5.404-8.98-10.788-8.98c-0.413,0-0.819,0.027-1.222,0.071c0.744,1.112,1.179,2.448,1.179,3.886c0,3.865-3.134,7-7,7
	c-1.438,0-2.773-0.435-3.886-1.179c-0.044,0.401-0.071,0.809-0.071,1.222c0,3.712,1.845,6.987,4.661,8.979
	c-1.653,1.907-2.661,4.389-2.661,7.111c0,5.983,4.836,10.836,10.813,10.865v0.003h28.007v-0.006
	c0.042,0.001,0.082,0.006,0.124,0.006c5.001,0,9.057-4.054,9.057-9.057C137.27-638.687,133.516-642.608,128.781-642.903z
	 M89.446-649.999c0.582,0.117,1.178,0.177,1.78,0.177c4.963,0,9-4.037,9-9c0-0.603-0.06-1.198-0.177-1.78
	c3.733,0.753,6.629,3.824,7.134,7.64c-2.713,1.444-4.928,3.699-6.322,6.442c-0.241-0.016-0.48-0.036-0.725-0.036
	c-2.537,0-4.865,0.876-6.715,2.334C91.41-645.517,89.936-647.576,89.446-649.999z M128.253-626.82
	c-0.038-0.003-0.077-0.004-0.117-0.005l-2.047-0.042v0.047h-25.403l-0.594-0.003c-4.864-0.023-8.822-4.001-8.822-8.865
	c0-4.89,3.978-8.868,8.867-8.868c0.15,0,0.299,0.012,0.447,0.021l0.148,0.011l1.314,0.085l0.598-1.174
	c2.224-4.373,6.643-7.09,11.531-7.09c6.062,0,11.381,4.298,12.65,10.219l0.317,1.482l1.514,0.095
	c3.708,0.231,6.612,3.319,6.612,7.03C135.27-629.999,132.126-626.843,128.253-626.82z"/>
<g>
	<rect x="213.427" y="-634.28" width="2" height="7"/>
	<rect x="221.427" y="-638.28" width="2" height="7"/>
	<rect x="205.427" y="-638.28" width="2" height="7"/>
	<rect x="213.427" y="-624.28" width="2" height="7"/>
	<rect x="221.427" y="-628.28" width="2" height="7"/>
	<rect x="205.427" y="-628.28" width="2" height="7"/>
	<path d="M232.055-651.269c-1.596-7.445-8.207-13.029-16.127-13.029c-6.423,0-11.977,3.678-14.702,9.035
		c-0.266-0.018-0.53-0.04-0.8-0.04c-6.627,0-11.999,5.372-11.999,12c0,6.607,5.34,11.965,11.938,11.998v0.003h2.062v-2h-1.604
		l-0.447-0.003c-5.485-0.027-9.948-4.513-9.948-9.998c0-5.514,4.485-10,9.999-10c0.175,0,0.347,0.014,0.52,0.025l0.148,0.01
		l1.316,0.088l0.598-1.176c2.492-4.899,7.443-7.942,12.92-7.942c6.79,0,12.75,4.814,14.172,11.448l0.317,1.482l1.514,0.095
		c4.203,0.262,7.496,3.763,7.496,7.971c0,4.397-3.565,7.977-7.957,8c-0.05-0.003-0.093-0.005-0.137-0.007l-2.043,0.007h-2.863v2
		h4.863v-0.007c0.046,0.001,0.091,0.007,0.137,0.007c5.521,0,10-4.477,10-10C241.427-646.612,237.282-650.943,232.055-651.269z"/>
</g>
<g>
	<path d="M29.628-561.911c-1.596-7.445-8.207-13.029-16.127-13.029c-6.423,0-11.977,3.678-14.702,9.035
		c-0.266-0.018-0.53-0.04-0.8-0.04c-6.627,0-11.999,5.372-11.999,12c0,6.607,5.34,11.965,11.938,11.998v0.003H0v-2h-1.604
		l-0.447-0.003C-7.537-543.975-12-548.46-12-553.945c0-5.514,4.485-10,9.999-10c0.175,0,0.347,0.014,0.52,0.025l0.148,0.01
		l1.316,0.088l0.598-1.176c2.492-4.899,7.443-7.942,12.92-7.942c6.79,0,12.75,4.814,14.172,11.448l0.317,1.482l1.514,0.095
		c4.203,0.262,7.496,3.763,7.496,7.971c0,4.397-3.565,7.977-7.957,8c-0.05-0.003-0.093-0.005-0.137-0.007l-2.043,0.007H24v2h4.863
		v-0.007c0.046,0.001,0.091,0.007,0.137,0.007c5.521,0,10-4.477,10-10C39-557.255,34.855-561.586,29.628-561.911z"/>
	<polygon points="11,-534.916 11,-532.976 11,-526.916 13,-526.916 13,-532.976 13,-534.916 13,-546.916 11,-546.916 	"/>
	<polygon points="19,-538.916 19,-537.163 19,-530.916 21,-530.916 21,-537.163 21,-538.916 21,-550.916 19,-550.916 	"/>
	<polygon points="3,-538.916 3,-536.851 3,-530.916 5,-530.916 5,-536.851 5,-538.916 5,-550.916 3,-550.916 	"/>
</g>
<g>
	<polygon points="325.277,-538.005 318.395,-547.835 316.757,-546.688 323.64,-536.857 324.752,-535.269 328.228,-530.305 
		329.866,-531.451 326.391,-536.416 	"/>
	<polygon points="333.279,-538.007 326.395,-547.835 324.757,-546.687 331.643,-536.858 332.647,-535.423 336.231,-530.308 
		337.87,-531.454 334.286,-536.57 	"/>
	<polygon points="317.277,-538.005 310.395,-547.835 308.757,-546.687 315.64,-536.857 316.824,-535.165 320.229,-530.304 
		321.866,-531.451 318.463,-536.313 	"/>
	<path d="M336.385-561.645c-1.596-7.445-8.207-13.029-16.127-13.029c-6.423,0-11.977,3.678-14.702,9.035
		c-0.266-0.018-0.53-0.04-0.8-0.04c-6.627,0-11.999,5.372-11.999,12c0,6.607,5.34,11.965,11.938,11.998v0.003h2.062v-2h-1.604
		l-0.447-0.003c-5.485-0.027-9.948-4.513-9.948-9.998c0-5.514,4.485-10,9.999-10c0.175,0,0.347,0.014,0.52,0.025l0.148,0.01
		l1.316,0.088l0.598-1.176c2.492-4.899,7.443-7.942,12.92-7.942c6.79,0,12.75,4.814,14.172,11.448l0.317,1.482l1.514,0.095
		c4.203,0.262,7.496,3.763,7.496,7.971c0,4.397-3.565,7.977-7.957,8c-0.05-0.003-0.093-0.005-0.137-0.007l-1.043,0.007h0.137v2
		h0.863v-0.007c0.046,0.001,0.091,0.007,0.137,0.007c5.521,0,10-4.477,10-10C345.757-556.988,341.612-561.319,336.385-561.645z"/>
</g>
<g>
	<rect x="308.083" y="-670.727" width="2" height="7.973"/>
	<rect x="289.083" y="-651.813" width="7.973" height="2"/>
	<rect x="293.756" y="-663.079" transform="matrix(0.7071 0.7071 -0.7071 0.7071 -380.9537 -404.4547)" width="7.974" height="2"/>
	<rect x="319.265" y="-666.061" transform="matrix(0.7071 0.7071 -0.7071 0.7071 -374.3545 -420.3786)" width="2" height="7.972"/>
	<rect x="322.083" y="-629.854" width="2" height="7"/>
	<rect x="330.083" y="-633.854" width="2" height="7"/>
	<rect x="314.083" y="-633.854" width="2" height="7"/>
	<rect x="322.083" y="-619.854" width="2" height="7"/>
	<rect x="330.083" y="-623.854" width="2" height="7"/>
	<rect x="314.083" y="-623.854" width="2" height="7"/>
	<path d="M338.595-644.937c-1.444-6.742-7.433-11.8-14.605-11.8c-2.185,0-4.258,0.47-6.126,1.313
		c-1.667-3.202-5.007-5.394-8.866-5.394c-5.522,0-10,4.477-10,9.999c0,2.46,0.899,4.702,2.373,6.442
		c-1.429,1.84-2.287,4.144-2.287,6.653c0,5.983,4.836,10.836,10.813,10.865v0.003h1.188v-2h-0.721l-0.457-0.003
		c-4.864-0.023-8.822-4.001-8.822-8.865c0-4.89,3.978-8.868,8.867-8.868c0.15,0,0.299,0.012,0.447,0.022l0.148,0.01l1.314,0.085
		l0.597-1.175c2.225-4.372,6.644-7.089,11.532-7.089c6.062,0,11.382,4.298,12.649,10.219l0.318,1.483l1.514,0.094
		c3.708,0.23,6.612,3.319,6.612,7.03c0,3.878-3.144,7.035-7.017,7.057c-0.042-0.003-0.079-0.005-0.117-0.005l-2.047,0.005h-0.819v2
		h2.819v-0.006c0.042,0.001,0.082,0.006,0.124,0.006c5.001,0,9.057-4.054,9.057-9.057
		C347.083-640.72,343.329-644.642,338.595-644.937z M310.675-648.554c-0.241-0.016-0.48-0.036-0.725-0.036
		c-2.766,0-5.282,1.041-7.2,2.743c-1.092-1.366-1.753-3.09-1.753-4.971c0-4.41,3.589-7.999,8-7.999c3.091,0,5.76,1.773,7.091,4.345
		C313.79-653.031,311.91-650.983,310.675-648.554z"/>
</g>
<g>
	<rect x="422.5" y="-631.301" width="2" height="7"/>
	<rect x="430.5" y="-635.301" width="2" height="7"/>
	<rect x="414.5" y="-635.301" width="2" height="7"/>
	<rect x="422.5" y="-621.301" width="2" height="7"/>
	<rect x="430.5" y="-625.301" width="2" height="7"/>
	<rect x="414.5" y="-625.301" width="2" height="7"/>
	<path d="M439.012-646.384c-1.444-6.742-7.433-11.8-14.605-11.8c-1.799,0-3.522,0.32-5.118,0.904
		c-0.949-5.108-5.404-8.98-10.788-8.98c-0.413,0-0.819,0.027-1.222,0.071c0.744,1.112,1.179,2.448,1.179,3.886c0,3.865-3.134,7-7,7
		c-1.438,0-2.773-0.435-3.886-1.179c-0.044,0.401-0.071,0.809-0.071,1.222c0,3.712,1.845,6.987,4.661,8.979
		c-1.653,1.907-2.661,4.389-2.661,7.111c0,5.983,4.836,10.836,10.813,10.865v0.003h1.188v-2h-0.721l-0.457-0.003
		c-4.864-0.023-8.822-4.001-8.822-8.865c0-4.89,3.978-8.868,8.867-8.868c0.15,0,0.299,0.012,0.447,0.022l0.148,0.01l1.314,0.085
		l0.597-1.175c2.225-4.372,6.644-7.089,11.532-7.089c6.062,0,11.382,4.298,12.649,10.219l0.318,1.483l1.514,0.094
		c3.708,0.23,6.612,3.319,6.612,7.03c0,3.878-3.144,7.035-7.017,7.057c-0.042-0.003-0.079-0.005-0.117-0.005l-2.047,0.005H435.5v2
		h2.819v-0.006c0.042,0.001,0.082,0.006,0.124,0.006c5.001,0,9.057-4.054,9.057-9.057
		C447.5-642.167,443.746-646.089,439.012-646.384z M411.092-650.001c-0.241-0.016-0.48-0.036-0.725-0.036
		c-2.537,0-4.865,0.876-6.715,2.334c-2.012-1.294-3.487-3.354-3.976-5.776c0.582,0.117,1.178,0.177,1.78,0.177c4.963,0,9-4.037,9-9
		c0-0.603-0.06-1.198-0.177-1.78c3.733,0.753,6.629,3.824,7.133,7.64C414.702-654.999,412.487-652.744,411.092-650.001z"/>
</g>
<g>
	<polygon points="115.27,-530.478 115.27,-528.537 115.27,-522.478 117.27,-522.478 117.27,-528.537 117.27,-530.478 
		117.27,-542.478 115.27,-542.478 	"/>
	<polygon points="123.27,-534.478 123.27,-532.725 123.27,-526.478 125.27,-526.478 125.27,-532.725 125.27,-534.478 
		125.27,-546.478 123.27,-546.478 	"/>
	<polygon points="107.27,-534.478 107.27,-532.412 107.27,-526.478 109.27,-526.478 109.27,-532.412 109.27,-534.478 
		109.27,-546.478 107.27,-546.478 	"/>
	<rect x="101.27" y="-581.38" width="2" height="7.973"/>
	<rect x="82.27" y="-562.466" width="7.973" height="2"/>
	<rect x="86.943" y="-573.732" transform="matrix(0.7071 0.7071 -0.7071 0.7071 -378.3503 -232.0464)" width="7.974" height="2"/>
	<rect x="112.451" y="-576.714" transform="matrix(0.7071 0.7071 -0.7071 0.7071 -371.7512 -247.9704)" width="2" height="7.972"/>
	<path d="M131.781-555.59c-1.444-6.742-7.433-11.8-14.605-11.8c-2.185,0-4.258,0.47-6.127,1.313
		c-1.666-3.202-5.006-5.394-8.865-5.394c-5.522,0-10,4.477-10,9.999c0,2.46,0.898,4.702,2.373,6.442
		c-1.428,1.84-2.287,4.144-2.287,6.653c0,5.983,4.836,10.836,10.813,10.865v0.003h1.188v-2h-0.721l-0.457-0.003
		c-4.864-0.023-8.822-4.001-8.822-8.865c0-4.89,3.978-8.868,8.867-8.868c0.15,0,0.299,0.012,0.447,0.022l0.148,0.01l1.314,0.085
		l0.597-1.175c2.225-4.372,6.644-7.089,11.532-7.089c6.062,0,11.382,4.298,12.649,10.219l0.318,1.483l1.514,0.094
		c3.708,0.23,6.612,3.319,6.612,7.03c0,3.878-3.144,7.035-7.017,7.057c-0.042-0.003-0.079-0.005-0.117-0.005l-2.047,0.005h-0.819v2
		h2.819v-0.006c0.042,0.001,0.082,0.006,0.124,0.006c5.001,0,9.057-4.054,9.057-9.057
		C140.27-551.373,136.516-555.295,131.781-555.59z M103.861-559.207c-0.241-0.016-0.48-0.036-0.725-0.036
		c-2.766,0-5.281,1.042-7.2,2.743c-1.092-1.367-1.753-3.09-1.753-4.971c0-4.41,3.589-7.999,8-7.999c3.092,0,5.76,1.773,7.092,4.345
		C106.977-563.686,105.098-561.637,103.861-559.207z"/>
</g>
<g>
	<polygon points="215.667,-532.994 215.667,-531.054 215.667,-524.994 217.667,-524.994 217.667,-531.054 217.667,-532.994 
		217.667,-544.994 215.667,-544.994 	"/>
	<polygon points="223.667,-536.994 223.667,-535.241 223.667,-528.994 225.667,-528.994 225.667,-535.241 225.667,-536.994 
		225.667,-548.994 223.667,-548.994 	"/>
	<polygon points="207.667,-536.994 207.667,-534.929 207.667,-528.994 209.667,-528.994 209.667,-534.929 209.667,-536.994 
		209.667,-548.994 207.667,-548.994 	"/>
	<path d="M232.179-558.106c-1.444-6.742-7.433-11.8-14.605-11.8c-1.799,0-3.521,0.32-5.118,0.904
		c-0.949-5.108-5.404-8.98-10.788-8.98c-0.413,0-0.819,0.027-1.222,0.071c0.744,1.112,1.179,2.448,1.179,3.886c0,3.865-3.134,7-7,7
		c-1.438,0-2.773-0.435-3.886-1.179c-0.044,0.401-0.071,0.809-0.071,1.222c0,3.712,1.845,6.987,4.661,8.979
		c-1.653,1.907-2.661,4.389-2.661,7.111c0,5.983,4.836,10.836,10.813,10.865v0.003h1.188v-2h-0.721l-0.457-0.003
		c-4.864-0.023-8.822-4.001-8.822-8.865c0-4.89,3.978-8.868,8.867-8.868c0.15,0,0.299,0.012,0.447,0.022l0.148,0.01l1.314,0.085
		l0.597-1.175c2.225-4.372,6.644-7.089,11.532-7.089c6.062,0,11.382,4.298,12.649,10.219l0.318,1.483l1.514,0.094
		c3.708,0.23,6.612,3.319,6.612,7.03c0,3.878-3.144,7.035-7.017,7.057c-0.042-0.003-0.079-0.005-0.117-0.005l-2.047,0.005h-0.819v2
		h2.819v-0.006c0.042,0.001,0.082,0.006,0.124,0.006c5.001,0,9.057-4.054,9.057-9.057
		C240.667-553.89,236.913-557.812,232.179-558.106z M204.259-561.724c-0.241-0.016-0.48-0.036-0.725-0.036
		c-2.537,0-4.865,0.876-6.715,2.334c-2.012-1.294-3.486-3.354-3.976-5.776c0.582,0.117,1.178,0.177,1.78,0.177c4.963,0,9-4.037,9-9
		c0-0.603-0.06-1.198-0.177-1.78c3.733,0.753,6.629,3.824,7.134,7.641C207.868-566.722,205.653-564.466,204.259-561.724z"/>
</g>
<g>
	<polygon points="432.702,-532.05 425.819,-541.88 424.182,-540.732 431.064,-530.902 432.177,-529.313 435.652,-524.35 
		437.291,-525.496 433.815,-530.461 	"/>
	<polygon points="440.704,-532.052 433.819,-541.88 432.182,-540.731 439.067,-530.903 440.072,-529.468 443.656,-524.353 
		445.295,-525.499 441.711,-530.615 	"/>
	<polygon points="424.702,-532.05 417.819,-541.88 416.182,-540.731 423.064,-530.902 424.249,-529.21 427.653,-524.349 
		429.291,-525.496 425.888,-530.357 	"/>
	<rect x="412.182" y="-579.599" width="2" height="7.973"/>
	<rect x="393.182" y="-560.685" width="7.973" height="2"/>
	<rect x="397.855" y="-571.951" transform="matrix(0.7071 0.7071 -0.7071 0.7071 -286.0267 -451.3728)" width="7.974" height="2"/>
	<rect x="423.363" y="-574.933" transform="matrix(0.7071 0.7071 -0.7071 0.7071 -279.4276 -467.2968)" width="2" height="7.972"/>
	<path d="M442.693-553.809c-1.444-6.742-7.433-11.8-14.605-11.8c-2.185,0-4.258,0.47-6.126,1.313
		c-1.667-3.202-5.007-5.394-8.866-5.394c-5.522,0-10,4.477-10,9.999c0,2.46,0.899,4.702,2.373,6.442
		c-1.429,1.84-2.287,4.144-2.287,6.653c0,5.983,4.836,10.836,10.813,10.865v0.003h1.188v-2h-0.721l-0.457-0.003
		c-4.864-0.023-8.822-4.001-8.822-8.865c0-4.89,3.978-8.868,8.867-8.868c0.15,0,0.299,0.012,0.447,0.022l0.148,0.01l1.314,0.085
		l0.597-1.175c2.225-4.372,6.644-7.089,11.532-7.089c6.062,0,11.382,4.298,12.649,10.219l0.318,1.483l1.514,0.094
		c3.708,0.23,6.612,3.319,6.612,7.03c0,3.878-3.144,7.035-7.017,7.057c-0.042-0.003-0.079-0.005-0.117-0.005l-0.047,0.005h-0.819v2
		h0.819v-0.006c0.042,0.001,0.082,0.006,0.124,0.006c5.001,0,9.057-4.054,9.057-9.057
		C451.182-549.592,447.428-553.514,442.693-553.809z M414.773-557.426c-0.241-0.016-0.48-0.036-0.725-0.036
		c-2.766,0-5.282,1.042-7.2,2.743c-1.092-1.367-1.753-3.09-1.753-4.971c0-4.41,3.589-7.999,8-7.999c3.091,0,5.76,1.773,7.091,4.345
		C417.889-561.904,416.009-559.855,414.773-557.426z"/>
</g>
<g>
	<polygon points="-290.729,-435.564 -297.611,-445.395 -299.249,-444.247 -292.366,-434.417 -291.254,-432.828 -287.778,-427.864 
		-286.14,-429.011 -289.615,-433.976 	"/>
	<polygon points="-282.727,-435.566 -289.611,-445.395 -291.249,-444.246 -284.363,-434.418 -283.358,-432.982 -279.774,-427.867 
		-278.136,-429.014 -281.72,-434.13 	"/>
	<polygon points="-298.729,-435.564 -305.611,-445.395 -307.249,-444.246 -300.366,-434.417 -299.182,-432.725 -295.777,-427.863 
		-294.14,-429.011 -297.543,-433.872 	"/>
	<path d="M-280.737-457.323c-1.444-6.742-7.433-11.8-14.605-11.8c-1.799,0-3.522,0.32-5.118,0.904
		c-0.949-5.108-5.404-8.98-10.788-8.98c-0.413,0-0.819,0.027-1.222,0.071c0.744,1.112,1.179,2.448,1.179,3.886c0,3.865-3.134,7-7,7
		c-1.438,0-2.773-0.435-3.886-1.179c-0.044,0.401-0.071,0.809-0.071,1.222c0,3.712,1.845,6.987,4.661,8.979
		c-1.653,1.907-2.661,4.389-2.661,7.111c0,5.983,4.836,10.836,10.813,10.865v0.003h1.188v-2h-0.721l-0.457-0.003
		c-4.864-0.023-8.822-4.001-8.822-8.865c0-4.89,3.978-8.868,8.867-8.868c0.15,0,0.299,0.012,0.447,0.022l0.148,0.01l1.314,0.085
		l0.597-1.175c2.225-4.372,6.644-7.089,11.532-7.089c6.062,0,11.382,4.298,12.649,10.219l0.318,1.483l1.514,0.094
		c3.708,0.23,6.612,3.319,6.612,7.03c0,3.878-3.144,7.035-7.017,7.057c-0.042-0.003-0.079-0.005-0.117-0.005l-0.047,0.005h-0.819v2
		h0.819v-0.006c0.042,0.001,0.082,0.006,0.124,0.006c5.001,0,9.057-4.054,9.057-9.057
		C-272.249-453.106-276.003-457.028-280.737-457.323z M-308.657-460.94c-0.241-0.016-0.48-0.036-0.725-0.036
		c-2.537,0-4.865,0.876-6.715,2.334c-2.012-1.294-3.487-3.354-3.976-5.776c0.582,0.117,1.178,0.177,1.78,0.177c4.963,0,9-4.037,9-9
		c0-0.603-0.06-1.198-0.177-1.78c3.733,0.753,6.629,3.824,7.133,7.641C-305.047-465.938-307.262-463.683-308.657-460.94z"/>
</g>
<g>
	<rect x="-298.249" y="-539.411" width="2" height="4"/>
	<rect x="-290.249" y="-543.433" width="2" height="4.021"/>
	<rect x="-306.249" y="-543.433" width="2" height="4.021"/>
	<path d="M-279.621-559.399c-1.596-7.445-8.207-13.029-16.127-13.029c-6.423,0-11.977,3.678-14.702,9.035
		c-0.266-0.018-0.53-0.04-0.8-0.04c-6.627,0-11.999,5.372-11.999,12c0,6.607,5.34,11.965,11.938,11.998v0.003h2.062v-2h-1.604
		l-0.447-0.003c-5.485-0.027-9.948-4.513-9.948-9.998c0-5.514,4.485-10,9.999-10c0.175,0,0.347,0.014,0.52,0.025l0.148,0.01
		l1.316,0.088l0.598-1.176c2.492-4.899,7.443-7.942,12.92-7.942c6.79,0,12.75,4.814,14.172,11.448l0.317,1.482l1.514,0.095
		c4.203,0.262,7.496,3.763,7.496,7.971c0,4.397-3.565,7.977-7.957,8c-0.05-0.003-0.093-0.005-0.137-0.007l-2.043,0.007h-2.863v2
		h4.863v-0.007c0.046,0.001,0.091,0.007,0.137,0.007c5.521,0,10-4.477,10-10C-270.249-554.743-274.394-559.074-279.621-559.399z"/>
	<circle cx="-289.249" cy="-534.391" r="1.5"/>
	<circle cx="-297.249" cy="-530.422" r="1.5"/>
	<circle cx="-305.249" cy="-534.433" r="1.5"/>
</g>
<g>
	<rect x="-205.328" y="-578.865" width="2" height="7.973"/>
	<rect x="-224.328" y="-559.951" width="7.973" height="2"/>
	<rect x="-219.655" y="-571.218" transform="matrix(0.7071 0.7071 -0.7071 0.7071 -466.3725 -14.5127)" width="7.974" height="2"/>
	<rect x="-194.146" y="-574.2" transform="matrix(0.7071 0.7071 -0.7071 0.7071 -459.7734 -30.4366)" width="2" height="7.972"/>
	<path d="M-174.816-553.075c-1.444-6.742-7.433-11.8-14.605-11.8c-2.185,0-4.258,0.47-6.126,1.313
		c-1.667-3.202-5.007-5.394-8.866-5.394c-5.522,0-10,4.477-10,9.999c0,2.46,0.899,4.702,2.373,6.442
		c-1.429,1.84-2.287,4.144-2.287,6.653c0,5.983,4.836,10.836,10.813,10.865v0.003h1.188v-2h-0.721l-0.457-0.003
		c-4.864-0.023-8.822-4.001-8.822-8.865c0-4.89,3.978-8.868,8.867-8.868c0.15,0,0.299,0.012,0.447,0.022l0.148,0.01l1.314,0.085
		l0.597-1.175c2.225-4.372,6.644-7.089,11.532-7.089c6.062,0,11.382,4.298,12.649,10.219l0.318,1.483l1.514,0.094
		c3.708,0.23,6.612,3.319,6.612,7.03c0,3.878-3.144,7.035-7.017,7.057c-0.042-0.003-0.079-0.005-0.117-0.005l-2.047,0.005h-0.819v2
		h2.819v-0.006c0.042,0.001,0.082,0.006,0.124,0.006c5.001,0,9.057-4.054,9.057-9.057
		C-166.328-548.858-170.082-552.78-174.816-553.075z M-202.736-556.692c-0.241-0.016-0.48-0.036-0.725-0.036
		c-2.766,0-5.282,1.042-7.2,2.743c-1.092-1.367-1.753-3.09-1.753-4.971c0-4.41,3.589-7.999,8-7.999c3.091,0,5.76,1.773,7.091,4.345
		C-199.621-561.171-201.501-559.122-202.736-556.692z"/>
	<rect x="-191.328" y="-534.977" width="2" height="4"/>
	<rect x="-183.328" y="-538.998" width="2" height="4.021"/>
	<rect x="-199.328" y="-538.998" width="2" height="4.021"/>
	<circle cx="-182.328" cy="-529.956" r="1.5"/>
	<circle cx="-190.328" cy="-525.987" r="1.5"/>
	<circle cx="-198.328" cy="-529.998" r="1.5"/>
</g>
<g>
	<path d="M-73.891-554.032c-1.444-6.742-7.433-11.8-14.605-11.8c-1.799,0-3.522,0.32-5.118,0.904
		c-0.949-5.108-5.404-8.98-10.788-8.98c-0.413,0-0.819,0.027-1.222,0.071c0.744,1.112,1.179,2.448,1.179,3.886c0,3.865-3.134,7-7,7
		c-1.438,0-2.773-0.435-3.886-1.179c-0.044,0.401-0.071,0.809-0.071,1.222c0,3.712,1.845,6.987,4.661,8.979
		c-1.653,1.907-2.661,4.389-2.661,7.111c0,5.983,4.836,10.836,10.813,10.865v0.003h1.188v-2h-0.721l-0.457-0.003
		c-4.864-0.023-8.822-4.001-8.822-8.865c0-4.89,3.978-8.868,8.867-8.868c0.15,0,0.299,0.012,0.447,0.022l0.148,0.01l1.314,0.085
		l0.597-1.175c2.225-4.372,6.644-7.089,11.532-7.089c6.062,0,11.382,4.298,12.649,10.219l0.318,1.483l1.514,0.094
		c3.708,0.23,6.612,3.319,6.612,7.03c0,3.878-3.144,7.035-7.017,7.057c-0.042-0.003-0.079-0.005-0.117-0.005l-2.047,0.005h-0.819v2
		h2.819v-0.006c0.042,0.001,0.082,0.006,0.124,0.006c5.001,0,9.057-4.054,9.057-9.057
		C-65.402-549.815-69.156-553.737-73.891-554.032z M-101.811-557.649c-0.241-0.016-0.48-0.036-0.725-0.036
		c-2.537,0-4.865,0.876-6.715,2.334c-2.012-1.294-3.487-3.354-3.976-5.776c0.582,0.117,1.178,0.177,1.78,0.177c4.963,0,9-4.037,9-9
		c0-0.603-0.06-1.198-0.177-1.78c3.733,0.753,6.629,3.824,7.133,7.641C-98.2-562.647-100.415-560.392-101.811-557.649z"/>
	<rect x="-90.402" y="-535.934" width="2" height="4"/>
	<rect x="-82.402" y="-539.955" width="2" height="4.021"/>
	<rect x="-98.402" y="-539.955" width="2" height="4.021"/>
	<circle cx="-81.402" cy="-530.913" r="1.5"/>
	<circle cx="-89.402" cy="-526.944" r="1.5"/>
	<circle cx="-97.402" cy="-530.955" r="1.5"/>
</g>
<g>
	<path d="M-177.2-461.002c-1.596-7.445-8.207-13.029-16.127-13.029c-6.423,0-11.977,3.678-14.702,9.035
		c-0.266-0.018-0.53-0.04-0.8-0.04c-6.627,0-11.999,5.372-11.999,12c0,6.607,5.34,11.965,11.938,11.998v0.003h6.062v-2h-5.604
		l-0.447-0.003c-5.485-0.027-9.948-4.513-9.948-9.998c0-5.514,4.485-10,9.999-10c0.175,0,0.347,0.014,0.52,0.025l0.148,0.01
		l1.316,0.088l0.598-1.176c2.492-4.899,7.443-7.942,12.92-7.942c6.79,0,12.75,4.814,14.172,11.448l0.317,1.482l1.514,0.095
		c4.203,0.262,7.496,3.763,7.496,7.971c0,4.397-3.565,7.977-7.957,8c-0.05-0.003-0.093-0.005-0.137-0.007l-5.043,0.007h0.137v2
		h4.863v-0.007c0.046,0.001,0.091,0.007,0.137,0.007c5.521,0,10-4.477,10-10C-167.828-456.346-171.973-460.677-177.2-461.002z"/>
	<polygon points="-192.986,-441.031 -191.217,-441.031 -190.786,-441.031 -188.776,-441.031 -195.19,-450.192 -196.828,-449.045 
		-192.617,-443.031 -194.388,-443.031 -196.828,-443.031 -195.557,-441.215 -194.444,-439.626 -188.467,-431.031 -186.828,-432.178 
		-192.806,-440.773 	"/>
</g>
<g>
	<rect x="-101.402" y="-480.132" width="2" height="7.973"/>
	<rect x="-120.402" y="-461.218" width="7.973" height="2"/>
	<rect x="-115.729" y="-472.484" transform="matrix(0.7071 0.7071 -0.7071 0.7071 -366.1183 -59.0809)" width="7.974" height="2"/>
	<rect x="-90.221" y="-475.466" transform="matrix(0.7071 0.7071 -0.7071 0.7071 -359.5192 -75.0049)" width="2" height="7.972"/>
	<path d="M-70.891-454.342c-1.444-6.742-7.433-11.8-14.605-11.8c-2.185,0-4.258,0.47-6.127,1.313
		c-1.666-3.202-5.006-5.394-8.865-5.394c-5.522,0-10,4.477-10,9.999c0,2.46,0.898,4.702,2.373,6.442
		c-1.428,1.84-2.287,4.144-2.287,6.653c0,5.983,4.836,10.836,10.813,10.865v0.003h4.188v-2h-3.721l-0.457-0.003
		c-4.864-0.023-8.822-4.001-8.822-8.865c0-4.89,3.978-8.868,8.867-8.868c0.15,0,0.299,0.012,0.447,0.022l0.148,0.01l1.314,0.085
		l0.597-1.175c2.225-4.372,6.644-7.089,11.532-7.089c6.062,0,11.382,4.298,12.649,10.219l0.318,1.483l1.514,0.094
		c3.708,0.23,6.612,3.319,6.612,7.03c0,3.878-3.144,7.035-7.017,7.057c-0.042-0.003-0.079-0.005-0.117-0.005l-2.047,0.005h-3.819v2
		h5.819v-0.006c0.042,0.001,0.082,0.006,0.124,0.006c5.001,0,9.057-4.054,9.057-9.057
		C-62.402-450.125-66.156-454.047-70.891-454.342z M-98.811-457.959c-0.241-0.016-0.48-0.036-0.725-0.036
		c-2.766,0-5.281,1.041-7.2,2.743c-1.092-1.366-1.753-3.09-1.753-4.971c0-4.41,3.589-7.999,8-7.999c3.092,0,5.76,1.773,7.092,4.345
		C-95.695-462.437-97.574-460.389-98.811-457.959z"/>
	<polygon points="-86.561,-436.252 -84.791,-436.252 -84.36,-436.252 -82.351,-436.252 -88.765,-445.413 -90.402,-444.266 
		-86.191,-438.252 -87.962,-438.252 -90.402,-438.252 -89.131,-436.436 -88.019,-434.847 -82.041,-426.252 -80.402,-427.398 
		-86.38,-435.994 	"/>
</g>
<g>
	<path d="M28.694-456.638c-1.444-6.742-7.433-11.8-14.605-11.8c-1.799,0-3.521,0.32-5.118,0.904
		c-0.949-5.108-5.404-8.98-10.788-8.98c-0.413,0-0.819,0.027-1.222,0.071c0.744,1.112,1.179,2.448,1.179,3.886c0,3.865-3.134,7-7,7
		c-1.438,0-2.773-0.435-3.886-1.179c-0.044,0.401-0.071,0.809-0.071,1.222c0,3.712,1.845,6.987,4.661,8.979
		c-1.653,1.907-2.661,4.389-2.661,7.111c0,5.983,4.836,10.836,10.813,10.865v0.003h4.188v-2H0.462l-0.457-0.003
		c-4.864-0.023-8.822-4.001-8.822-8.865c0-4.89,3.978-8.868,8.867-8.868c0.15,0,0.299,0.012,0.447,0.022l0.148,0.01l1.314,0.085
		l0.597-1.175c2.225-4.372,6.644-7.089,11.532-7.089c6.062,0,11.382,4.298,12.649,10.219l0.318,1.483l1.514,0.094
		c3.708,0.23,6.612,3.319,6.612,7.03c0,3.878-3.144,7.035-7.017,7.057c-0.042-0.003-0.079-0.005-0.117-0.005l-2.047,0.005h-3.819v2
		h5.819v-0.006c0.042,0.001,0.082,0.006,0.124,0.006c5.001,0,9.057-4.054,9.057-9.057C37.183-452.421,33.429-456.343,28.694-456.638
		z M0.774-460.255c-0.241-0.016-0.48-0.036-0.725-0.036c-2.537,0-4.865,0.876-6.715,2.334c-2.012-1.294-3.486-3.354-3.976-5.776
		c0.582,0.117,1.178,0.177,1.78,0.177c4.963,0,9-4.037,9-9c0-0.603-0.06-1.198-0.177-1.78c3.733,0.753,6.629,3.824,7.134,7.64
		C4.384-465.253,2.169-462.998,0.774-460.255z"/>
	<polygon points="13.024,-438.548 14.794,-438.548 15.225,-438.548 17.234,-438.548 10.82,-447.709 9.183,-446.562 13.394,-440.548 
		11.623,-440.548 9.183,-440.548 10.454,-438.731 11.566,-437.143 17.544,-428.548 19.183,-429.694 13.205,-438.29 	"/>
</g>
<g>
	<path d="M129.579-460.502c-1.596-7.445-8.207-13.029-16.127-13.029c-6.423,0-11.977,3.678-14.702,9.035
		c-0.266-0.018-0.53-0.04-0.8-0.04c-6.627,0-11.999,5.372-11.999,12c0,6.607,5.34,11.965,11.938,11.998v0.003h1.062v-2h-0.604
		l-0.447-0.003c-5.485-0.027-9.948-4.513-9.948-9.998c0-5.514,4.485-10,9.999-10c0.175,0,0.347,0.014,0.52,0.025l0.148,0.01
		l1.316,0.088l0.598-1.176c2.492-4.899,7.443-7.942,12.92-7.942c6.79,0,12.75,4.814,14.172,11.448l0.317,1.482l1.514,0.095
		c4.203,0.262,7.496,3.763,7.496,7.971c0,4.397-3.565,7.977-7.957,8c-0.05-0.003-0.093-0.005-0.137-0.007l-0.906,0.007v2h0.863
		v-0.007c0.046,0.001,0.091,0.007,0.137,0.007c5.521,0,10-4.477,10-10C138.951-455.846,134.807-460.177,129.579-460.502z"/>
	
		<rect x="98.386" y="-442.537" transform="matrix(-0.5736 -0.8191 0.8191 -0.5736 525.2896 -609.6519)" width="11.183" height="1.999"/>
	
		<rect x="116.36" y="-442.537" transform="matrix(-0.5736 -0.8191 0.8191 -0.5736 553.5751 -594.9288)" width="11.183" height="1.999"/>
	<polygon points="114.793,-437.531 116.563,-437.531 116.993,-437.531 119.003,-437.531 112.589,-446.692 110.951,-445.545 
		115.162,-439.531 113.392,-439.531 110.951,-439.531 112.223,-437.715 113.335,-436.126 117.951,-429.531 119.59,-430.678 
		114.974,-437.273 	"/>
</g>
<g>
	<rect x="204.427" y="-479.969" width="2" height="7.973"/>
	<rect x="185.427" y="-461.055" width="7.973" height="2"/>
	<rect x="190.1" y="-472.321" transform="matrix(0.7071 0.7071 -0.7071 0.7071 -276.4277 -275.287)" width="7.974" height="2"/>
	<rect x="215.609" y="-475.303" transform="matrix(0.7071 0.7071 -0.7071 0.7071 -269.8286 -291.2109)" width="2" height="7.972"/>
	<path d="M234.938-454.179c-1.444-6.742-7.433-11.8-14.605-11.8c-2.185,0-4.258,0.47-6.126,1.313
		c-1.667-3.202-5.007-5.394-8.866-5.394c-5.522,0-10,4.477-10,9.999c0,2.46,0.899,4.702,2.373,6.442
		c-1.429,1.84-2.287,4.144-2.287,6.653c0,5.983,4.836,10.836,10.813,10.865v0.003h0.188v-2l-0.178-0.003
		c-4.864-0.023-8.822-4.001-8.822-8.865c0-4.89,3.978-8.868,8.867-8.868c0.15,0,0.299,0.012,0.447,0.022l0.148,0.01l1.314,0.085
		l0.597-1.175c2.225-4.372,6.644-7.089,11.532-7.089c6.062,0,11.382,4.298,12.649,10.219l0.318,1.483l1.514,0.094
		c3.708,0.23,6.612,3.319,6.612,7.03c0,3.878-3.144,7.035-7.017,7.057c-0.042-0.003-0.079-0.005-0.117-0.005l-0.866,0.005v2h0.819
		v-0.006c0.042,0.001,0.082,0.006,0.124,0.006c5.001,0,9.057-4.054,9.057-9.057C243.427-449.962,239.673-453.884,234.938-454.179z
		 M207.019-457.796c-0.241-0.016-0.48-0.036-0.725-0.036c-2.766,0-5.282,1.042-7.2,2.743c-1.092-1.367-1.753-3.09-1.753-4.971
		c0-4.41,3.589-7.999,8-7.999c3.091,0,5.76,1.773,7.091,4.345C210.134-462.274,208.254-460.226,207.019-457.796z"/>
	
		<rect x="204.848" y="-438.099" transform="matrix(-0.5736 -0.8191 0.8191 -0.5736 689.1881 -515.4626)" width="11.183" height="1.999"/>
	
		<rect x="222.823" y="-438.099" transform="matrix(-0.5736 -0.8191 0.8191 -0.5736 717.4736 -500.7395)" width="11.183" height="1.999"/>
	<polygon points="221.256,-433.093 223.025,-433.093 223.456,-433.093 225.466,-433.093 219.052,-442.254 217.414,-441.106 
		221.625,-435.093 219.854,-435.093 217.414,-435.093 218.686,-433.276 219.798,-431.688 224.414,-425.093 226.053,-426.239 
		221.437,-432.835 	"/>
</g>
<g>
	<path d="M336.776-457.137c-1.444-6.742-7.433-11.8-14.605-11.8c-1.799,0-3.522,0.32-5.118,0.904
		c-0.949-5.108-5.404-8.98-10.788-8.98c-0.413,0-0.819,0.027-1.222,0.071c0.744,1.112,1.179,2.448,1.179,3.886c0,3.865-3.134,7-7,7
		c-1.438,0-2.773-0.435-3.886-1.179c-0.044,0.401-0.071,0.809-0.071,1.222c0,3.712,1.845,6.987,4.661,8.979
		c-1.653,1.907-2.661,4.389-2.661,7.111c0,5.983,4.836,10.836,10.813,10.865v0.003h0.188v-2l-0.178-0.003
		c-4.864-0.023-8.822-4.001-8.822-8.865c0-4.89,3.978-8.868,8.867-8.868c0.15,0,0.299,0.012,0.447,0.022l0.148,0.01l1.314,0.085
		l0.597-1.175c2.225-4.372,6.644-7.089,11.532-7.089c6.062,0,11.382,4.298,12.649,10.219l0.318,1.483l1.514,0.094
		c3.708,0.23,6.612,3.319,6.612,7.03c0,3.878-3.144,7.035-7.017,7.057c-0.042-0.003-0.079-0.005-0.117-0.005l-0.866,0.005v2h0.819
		v-0.006c0.042,0.001,0.082,0.006,0.124,0.006c5.001,0,9.057-4.054,9.057-9.057C345.265-452.92,341.511-456.842,336.776-457.137z
		 M308.856-460.754c-0.241-0.016-0.48-0.036-0.725-0.036c-2.537,0-4.865,0.876-6.715,2.334c-2.012-1.294-3.487-3.354-3.976-5.776
		c0.582,0.117,1.178,0.177,1.78,0.177c4.963,0,9-4.037,9-9c0-0.603-0.06-1.198-0.177-1.78c3.733,0.753,6.629,3.824,7.133,7.641
		C312.467-465.752,310.252-463.496,308.856-460.754z"/>
	
		<rect x="306.685" y="-441.057" transform="matrix(-0.5736 -0.8191 0.8191 -0.5736 851.8654 -436.702)" width="11.183" height="1.999"/>
	
		<rect x="324.66" y="-441.057" transform="matrix(-0.5736 -0.8191 0.8191 -0.5736 880.151 -421.9788)" width="11.183" height="1.999"/>
	<polygon points="323.093,-436.051 324.862,-436.051 325.293,-436.051 327.303,-436.051 320.889,-445.212 319.251,-444.064 
		323.462,-438.051 321.691,-438.051 319.251,-438.051 320.522,-436.234 321.635,-434.646 326.251,-428.051 327.89,-429.197 
		323.273,-435.793 	"/>
</g>
<g>
	<g>
		<path d="M-73.786-370.682c-1.596-7.445-8.207-13.029-16.127-13.029c-6.423,0-11.977,3.678-14.702,9.035
			c-0.266-0.018-0.53-0.04-0.8-0.04c-6.627,0-11.999,5.372-11.999,12c0,6.607,5.34,11.965,11.938,11.998v0.003h2.062v-2h-1.604
			l-0.447-0.003c-5.485-0.027-9.948-4.513-9.948-9.998c0-5.514,4.485-10,9.999-10c0.175,0,0.347,0.014,0.52,0.025l0.148,0.01
			l1.316,0.088l0.598-1.176c2.492-4.899,7.443-7.942,12.92-7.942c6.79,0,12.75,4.814,14.172,11.448l0.317,1.482l1.514,0.095
			c4.203,0.262,7.496,3.763,7.496,7.971c0,4.397-3.565,7.977-7.957,8c-0.05-0.003-0.093-0.005-0.137-0.007l-2.043,0.007h-2.863v2
			h4.863v-0.007c0.046,0.001,0.091,0.007,0.137,0.007c5.521,0,10-4.477,10-10C-64.414-366.025-68.559-370.356-73.786-370.682z"/>
	</g>
	<g>
		<circle cx="-98.914" cy="-357.139" r="1.5"/>
	</g>
	<g>
		<circle cx="-94.914" cy="-351.215" r="1.5"/>
	</g>
	<g>
		<circle cx="-86.914" cy="-351.215" r="1.5"/>
	</g>
	<g>
		<circle cx="-90.914" cy="-357.139" r="1.5"/>
	</g>
	<g>
		<circle cx="-82.914" cy="-357.139" r="1.5"/>
	</g>
	<g>
		<circle cx="-98.914" cy="-345.193" r="1.5"/>
	</g>
	<g>
		<circle cx="-90.914" cy="-345.193" r="1.5"/>
	</g>
	<g>
		<circle cx="-82.914" cy="-345.193" r="1.5"/>
	</g>
</g>
<g>
	<g>
		<rect x="2" y="-386.159" width="2" height="7.973"/>
	</g>
	<g>
		<rect x="-17" y="-367.245" width="7.973" height="2"/>
	</g>
	<g>
		<rect x="-12.327" y="-378.512" transform="matrix(0.7071 0.7071 -0.7071 0.7071 -269.3838 -104.6735)" width="7.974" height="2"/>
	</g>
	<g>
		<rect x="13.182" y="-381.494" transform="matrix(0.7071 0.7071 -0.7071 0.7071 -262.7846 -120.5974)" width="2" height="7.972"/>
	</g>
	<g>
		<path d="M32.512-360.369c-1.444-6.742-7.433-11.8-14.605-11.8c-2.185,0-4.258,0.47-6.127,1.313
			c-1.666-3.202-5.006-5.394-8.865-5.394c-5.522,0-10,4.477-10,9.999c0,2.46,0.898,4.702,2.373,6.442
			C-6.141-357.968-7-355.664-7-353.154c0,5.983,4.836,10.836,10.813,10.865v0.003H5v-2H4.279l-0.457-0.003
			C-1.042-344.313-5-348.29-5-353.154c0-4.89,3.978-8.868,8.867-8.868c0.15,0,0.299,0.012,0.447,0.022l0.148,0.01l1.314,0.085
			l0.597-1.175c2.225-4.372,6.644-7.089,11.532-7.089c6.062,0,11.382,4.298,12.649,10.219l0.318,1.483l1.514,0.094
			c3.708,0.23,6.612,3.319,6.612,7.03c0,3.878-3.144,7.035-7.017,7.057c-0.042-0.003-0.079-0.005-0.117-0.005l-2.047,0.005H28v2
			h3.819v-0.006c0.042,0.001,0.082,0.006,0.124,0.006c5.001,0,9.057-4.054,9.057-9.057C41-356.152,37.246-360.074,32.512-360.369z
			 M4.592-363.986c-0.241-0.016-0.48-0.036-0.725-0.036c-2.766,0-5.281,1.042-7.2,2.743c-1.092-1.367-1.753-3.09-1.753-4.971
			c0-4.41,3.589-7.999,8-7.999c3.092,0,5.76,1.773,7.092,4.345C7.707-368.465,5.828-366.416,4.592-363.986z"/>
	</g>
	<g>
		<circle cx="8.489" cy="-348.775" r="1.5"/>
	</g>
	<g>
		<circle cx="12.489" cy="-342.775" r="1.5"/>
	</g>
	<g>
		<circle cx="20.489" cy="-342.775" r="1.5"/>
	</g>
	<g>
		<circle cx="16.489" cy="-348.775" r="1.5"/>
	</g>
	<g>
		<circle cx="24.489" cy="-348.775" r="1.5"/>
	</g>
	<g>
		<circle cx="8.489" cy="-336.754" r="1.5"/>
	</g>
	<g>
		<circle cx="16.489" cy="-336.754" r="1.5"/>
	</g>
	<g>
		<circle cx="24.489" cy="-336.754" r="1.5"/>
	</g>
</g>
<g>
	<g>
		<path d="M128.463-364.325c-1.444-6.742-7.433-11.8-14.605-11.8c-1.799,0-3.521,0.32-5.118,0.904
			c-0.949-5.108-5.404-8.98-10.788-8.98c-0.413,0-0.819,0.027-1.222,0.071c0.744,1.112,1.179,2.448,1.179,3.886c0,3.865-3.134,7-7,7
			c-1.438,0-2.773-0.435-3.886-1.179c-0.044,0.401-0.071,0.809-0.071,1.222c0,3.712,1.845,6.987,4.661,8.979
			c-1.653,1.907-2.661,4.389-2.661,7.111c0,5.983,4.836,10.836,10.813,10.865v0.003h1.188v-2h-0.721l-0.457-0.003
			c-4.864-0.023-8.822-4.001-8.822-8.865c0-4.89,3.978-8.868,8.867-8.868c0.15,0,0.299,0.012,0.447,0.022l0.148,0.01l1.314,0.085
			l0.597-1.175c2.225-4.372,6.644-7.089,11.532-7.089c6.062,0,11.382,4.298,12.649,10.219l0.318,1.483l1.514,0.094
			c3.708,0.23,6.612,3.319,6.612,7.03c0,3.878-3.144,7.035-7.017,7.057c-0.042-0.003-0.079-0.005-0.117-0.005l-2.047,0.005h-1.819v2
			h3.819v-0.006c0.042,0.001,0.082,0.006,0.124,0.006c5.001,0,9.057-4.054,9.057-9.057
			C136.951-360.108,133.197-364.03,128.463-364.325z M100.543-367.942c-0.241-0.016-0.48-0.036-0.725-0.036
			c-2.537,0-4.865,0.876-6.715,2.334c-2.012-1.294-3.486-3.354-3.976-5.776c0.582,0.117,1.178,0.177,1.78,0.177c4.963,0,9-4.037,9-9
			c0-0.603-0.06-1.198-0.177-1.78c3.733,0.753,6.629,3.824,7.134,7.64C104.152-372.94,101.938-370.686,100.543-367.942z"/>
	</g>
	<g>
		<circle cx="104.451" cy="-352.732" r="1.5"/>
	</g>
	<g>
		<circle cx="108.451" cy="-346.732" r="1.5"/>
	</g>
	<g>
		<circle cx="116.451" cy="-346.732" r="1.5"/>
	</g>
	<g>
		<circle cx="112.451" cy="-352.732" r="1.5"/>
	</g>
	<g>
		<circle cx="120.451" cy="-352.732" r="1.5"/>
	</g>
	<g>
		<circle cx="104.451" cy="-340.711" r="1.5"/>
	</g>
	<g>
		<circle cx="112.451" cy="-340.711" r="1.5"/>
	</g>
	<g>
		<circle cx="120.451" cy="-340.711" r="1.5"/>
	</g>
</g>
<g>
	<path d="M439.628-463.211c-1.596-7.445-8.207-13.029-16.127-13.029c-6.423,0-11.977,3.678-14.702,9.035
		c-0.266-0.018-0.53-0.04-0.8-0.04c-6.627,0-11.999,5.372-11.999,12c0,6.607,5.34,11.965,11.938,11.998v0.003H410v-2h-1.604
		l-0.447-0.003c-5.485-0.027-9.948-4.513-9.948-9.998c0-5.514,4.485-10,9.999-10c0.175,0,0.347,0.014,0.52,0.025l0.148,0.01
		l1.316,0.088l0.598-1.176c2.492-4.899,7.443-7.942,12.92-7.942c6.79,0,12.75,4.814,14.172,11.448l0.317,1.482l1.514,0.095
		c4.203,0.262,7.496,3.763,7.496,7.971c0,4.397-3.565,7.977-7.957,8c-0.05-0.003-0.093-0.005-0.137-0.007l-2.043,0.007H434v2h4.863
		v-0.007c0.046,0.001,0.091,0.007,0.137,0.007c5.521,0,10-4.477,10-10C449-458.555,444.855-462.886,439.628-463.211z"/>
	<circle cx="414" cy="-435.74" r="1.5"/>
	<circle cx="422" cy="-429.74" r="1.5"/>
	<circle cx="430" cy="-433.74" r="1.5"/>
	<rect x="413" y="-452.216" width="2" height="11.976"/>
	<polygon points="423,-434.275 423,-436.216 423,-448.216 421,-448.216 421,-436.216 421,-434.275 421,-434.24 423,-434.24 	"/>
	<polygon points="431,-438.463 431,-440.216 431,-452.216 429,-452.216 429,-440.216 429,-438.463 429,-438.24 431,-438.24 	"/>
</g>
<g>
	<rect x="-308.749" y="-391.598" width="2" height="7.973"/>
	<rect x="-327.749" y="-372.684" width="7.973" height="2"/>
	<rect x="-323.076" y="-383.95" transform="matrix(0.7071 0.7071 -0.7071 0.7071 -364.2457 113.4664)" width="7.974" height="2"/>
	<rect x="-297.567" y="-386.932" transform="matrix(0.7071 0.7071 -0.7071 0.7071 -357.6465 97.5424)" width="2" height="7.972"/>
	<path d="M-278.237-365.808c-1.444-6.742-7.433-11.8-14.605-11.8c-2.185,0-4.258,0.47-6.126,1.313
		c-1.667-3.202-5.007-5.394-8.866-5.394c-5.522,0-10,4.477-10,9.999c0,2.46,0.899,4.702,2.373,6.442
		c-1.429,1.84-2.287,4.144-2.287,6.653c0,5.983,4.836,10.836,10.813,10.865v0.003h1.188v-2h-0.721l-0.457-0.003
		c-4.864-0.023-8.822-4.001-8.822-8.865c0-4.89,3.978-8.868,8.867-8.868c0.15,0,0.299,0.012,0.447,0.022l0.148,0.01l1.314,0.085
		l0.597-1.175c2.225-4.372,6.644-7.089,11.532-7.089c6.062,0,11.382,4.298,12.649,10.219l0.318,1.483l1.514,0.094
		c3.708,0.23,6.612,3.319,6.612,7.03c0,3.878-3.144,7.035-7.017,7.057c-0.042-0.003-0.079-0.005-0.117-0.005l-2.047,0.005h-0.819v2
		h2.819v-0.006c0.042,0.001,0.082,0.006,0.124,0.006c5.001,0,9.057-4.054,9.057-9.057
		C-269.749-361.591-273.503-365.513-278.237-365.808z M-306.157-369.425c-0.241-0.016-0.48-0.036-0.725-0.036
		c-2.766,0-5.282,1.041-7.2,2.743c-1.092-1.366-1.753-3.09-1.753-4.971c0-4.41,3.589-7.999,8-7.999c3.091,0,5.76,1.773,7.091,4.345
		C-303.042-373.902-304.922-371.854-306.157-369.425z"/>
	<circle cx="-301.759" cy="-339.237" r="1.5"/>
	<circle cx="-293.759" cy="-333.237" r="1.5"/>
	<circle cx="-285.759" cy="-337.237" r="1.5"/>
	<rect x="-302.759" y="-355.713" width="2" height="11.976"/>
	<polygon points="-292.759,-337.772 -292.759,-339.713 -292.759,-351.713 -294.759,-351.713 -294.759,-339.713 -294.759,-337.772 
		-294.759,-337.737 -292.759,-337.737 	"/>
	<polygon points="-284.759,-341.96 -284.759,-343.713 -284.759,-355.713 -286.759,-355.713 -286.759,-343.713 -286.759,-341.96 
		-286.759,-341.737 -284.759,-341.737 	"/>
</g>
<g>
	<path d="M-177.635-368.806c-1.444-6.742-7.433-11.8-14.605-11.8c-1.799,0-3.522,0.32-5.118,0.904
		c-0.949-5.108-5.404-8.98-10.788-8.98c-0.413,0-0.819,0.027-1.222,0.071c0.744,1.112,1.179,2.448,1.179,3.886c0,3.865-3.134,7-7,7
		c-1.438,0-2.773-0.435-3.886-1.179c-0.044,0.401-0.071,0.809-0.071,1.222c0,3.712,1.845,6.987,4.661,8.979
		c-1.653,1.907-2.661,4.389-2.661,7.111c0,5.983,4.836,10.836,10.813,10.865v0.003h1.188v-2h-0.721l-0.457-0.003
		c-4.864-0.023-8.822-4.001-8.822-8.865c0-4.89,3.978-8.868,8.867-8.868c0.15,0,0.299,0.012,0.447,0.022l0.148,0.01l1.314,0.085
		l0.597-1.175c2.225-4.372,6.644-7.089,11.532-7.089c6.062,0,11.382,4.298,12.649,10.219l0.318,1.483l1.514,0.094
		c3.708,0.23,6.612,3.319,6.612,7.03c0,3.878-3.144,7.035-7.017,7.057c-0.042-0.003-0.079-0.005-0.117-0.005l-2.047,0.005h-0.819v2
		h2.819v-0.006c0.042,0.001,0.082,0.006,0.124,0.006c5.001,0,9.057-4.054,9.057-9.057
		C-169.146-364.589-172.9-368.511-177.635-368.806z M-205.555-372.423c-0.241-0.016-0.48-0.036-0.725-0.036
		c-2.537,0-4.865,0.876-6.715,2.334c-2.012-1.294-3.487-3.354-3.976-5.776c0.582,0.117,1.178,0.177,1.78,0.177c4.963,0,9-4.037,9-9
		c0-0.603-0.06-1.198-0.177-1.78c3.733,0.753,6.629,3.824,7.133,7.64C-201.944-377.421-204.159-375.166-205.555-372.423z"/>
	<circle cx="-201.146" cy="-342.231" r="1.5"/>
	<circle cx="-193.146" cy="-336.231" r="1.5"/>
	<circle cx="-185.146" cy="-340.231" r="1.5"/>
	<rect x="-202.146" y="-358.707" width="2" height="11.976"/>
	<polygon points="-192.146,-340.767 -192.146,-342.707 -192.146,-354.707 -194.146,-354.707 -194.146,-342.707 -194.146,-340.767 
		-194.146,-340.731 -192.146,-340.731 	"/>
	<polygon points="-184.146,-344.954 -184.146,-346.707 -184.146,-358.707 -186.146,-358.707 -186.146,-346.707 -186.146,-344.954 
		-186.146,-344.731 -184.146,-344.731 	"/>
</g>
<g>
	<rect x="-325.749" y="-264.365" width="56" height="2"/>
	<rect x="-321.749" y="-258.365" width="50" height="2"/>
	<rect x="-315.749" y="-252.365" width="36" height="2"/>
	<rect x="-323.749" y="-270.365" width="52" height="2"/>
	<path d="M-311.875-278.37c0.175,0,0.347,0.014,0.519,0.025l0.149,0.01l1.316,0.088l0.598-1.176
		c2.493-4.899,7.443-7.942,12.92-7.942c6.79,0,12.75,4.814,14.171,11.448l0.318,1.482l1.514,0.095
		c1.207,0.075,2.335,0.425,3.336,0.975h3.286c-1.678-1.703-3.957-2.813-6.498-2.971c-1.596-7.445-8.207-13.029-16.127-13.029
		c-6.423,0-11.977,3.678-14.702,9.035c-0.266-0.018-0.53-0.04-0.8-0.04c-4.843,0-9.004,2.874-10.9,7.005h2.251
		C-318.793-276.352-315.568-278.37-311.875-278.37z"/>
</g>
<g>
	<rect x="-204.646" y="-291.88" width="2" height="7.973"/>
	<rect x="-223.646" y="-272.966" width="7.973" height="2"/>
	<rect x="-218.973" y="-284.232" transform="matrix(0.7071 0.7071 -0.7071 0.7071 -263.2436 69.0614)" width="7.974" height="2"/>
	<rect x="-193.465" y="-287.214" transform="matrix(0.7071 0.7071 -0.7071 0.7071 -256.6444 53.1375)" width="2" height="7.972"/>
	<rect x="-214.646" y="-258.006" width="50" height="2"/>
	<rect x="-210.646" y="-252.006" width="44" height="2"/>
	<rect x="-204.646" y="-247.006" width="30" height="2"/>
	<rect x="-212.646" y="-264.006" width="46" height="2"/>
	<path d="M-211.738-266.006h0.771h1.927h1.012c1.472-1.087,3.283-1.737,5.249-1.737c0.15,0,0.299,0.012,0.447,0.022l0.148,0.01
		l1.314,0.085l0.597-1.175c2.225-4.372,6.644-7.089,11.532-7.089c5.945,0,11.168,4.139,12.563,9.884h2.043v-0.084
		c-1.444-6.742-7.433-11.8-14.605-11.8c-2.185,0-4.258,0.47-6.126,1.313c-1.667-3.202-5.007-5.394-8.866-5.394
		c-5.522,0-10,4.477-10,9.999C-213.732-269.729-212.984-267.671-211.738-266.006z M-203.732-279.97c3.091,0,5.76,1.773,7.091,4.345
		c-2.298,1.44-4.178,3.488-5.413,5.918c-0.241-0.016-0.48-0.036-0.725-0.036c-2.764,0-5.274,1.045-7.189,2.745
		c-1.097-1.366-1.764-3.089-1.764-4.973C-211.732-276.381-208.144-279.97-203.732-279.97z"/>
</g>
<g>
	<rect x="-115.902" y="-261.443" width="50" height="2"/>
	<rect x="-111.902" y="-255.443" width="44" height="2"/>
	<rect x="-105.902" y="-250.443" width="30" height="2"/>
	<rect x="-113.902" y="-267.443" width="46" height="2"/>
	<path d="M-112.26-269.443h0.037h1.884h1.055c1.472-1.087,3.283-1.737,5.249-1.737c0.15,0,0.299,0.012,0.447,0.022l0.148,0.01
		l1.314,0.085l0.597-1.175c2.225-4.372,6.644-7.089,11.532-7.089c5.945,0,11.168,4.139,12.563,9.884h2.043v-0.084
		c-1.444-6.742-7.433-11.8-14.605-11.8c-1.799,0-3.521,0.32-5.117,0.903c-0.945-5.111-5.402-8.987-10.789-8.987
		c-0.413,0-0.819,0.027-1.222,0.071c0.744,1.112,1.179,2.448,1.179,3.886c0,3.865-3.134,7-7,7c-1.438,0-2.773-0.435-3.886-1.179
		c-0.044,0.401-0.071,0.809-0.071,1.222C-116.902-274.707-115.066-271.437-112.26-269.443z M-112.945-276.454c4.963,0,9-4.037,9-9
		c0-0.603-0.06-1.198-0.177-1.78c3.735,0.753,6.633,3.828,7.134,7.647c-2.712,1.443-4.927,3.699-6.322,6.442
		c-0.241-0.016-0.48-0.036-0.725-0.036c-2.534,0-4.855,0.879-6.701,2.335c-2.02-1.293-3.5-3.356-3.989-5.785
		C-114.144-276.514-113.548-276.454-112.945-276.454z"/>
</g>
<g>
	<path d="M15.989-258.43H-3.484l-0.578-0.003c-5.485-0.027-9.948-4.513-9.948-9.998c0-5.514,4.485-10,9.999-10
		c0.175,0,0.347,0.014,0.519,0.025l0.149,0.01l1.316,0.088l0.598-1.176c2.493-4.899,7.443-7.942,12.92-7.942
		c6.79,0,12.75,4.814,14.171,11.448l0.318,1.482l1.514,0.095c1.822,0.113,3.463,0.845,4.746,1.971h2.732
		c-1.707-2.262-4.348-3.78-7.354-3.967c-1.596-7.445-8.207-13.029-16.127-13.029c-6.423,0-11.977,3.678-14.702,9.035
		c-0.266-0.018-0.53-0.04-0.8-0.04c-6.627,0-11.999,5.372-11.999,12c0,6.607,5.34,11.965,11.938,11.998v0.003h20.062
		c2.205,0,4,1.794,4,4s-1.795,4-4,4v2c3.314,0,6-2.686,6-6C21.989-255.743,19.304-258.43,15.989-258.43z"/>
	<path d="M19.989-262.43H4.001v2h15.988c3.314,0,6-2.687,6-6c0-3.314-2.686-6-6-6v2c2.205,0,4,1.794,4,4
		S22.194-262.43,19.989-262.43z"/>
	<path d="M32.989-268.43c1.654,0,3,1.346,3,3s-1.346,3-3,3c-0.043,0-0.083-0.011-0.126-0.013h-4.862
		c0.003,0.005,0.009,0.008,0.012,0.013h-0.023v2h5.5v-0.051c2.523-0.254,4.5-2.358,4.5-4.949c0-2.762-2.238-5-5-5V-268.43z"/>
	<path d="M36.989-258.43h-13v2h9.022c-0.004,0.005-0.008,0.008-0.011,0.013h3.862c0.043-0.002,0.083-0.013,0.126-0.013
		c1.654,0,3,1.346,3,3s-1.346,3-3,3v2c2.762,0,5-2.238,5-5S39.751-258.43,36.989-258.43z"/>
	<rect x="-2.011" y="-262.43" width="4" height="2"/>
</g>
<path d="M-191.572-657.533c6.95,1.305,12.226,7.419,12.226,14.742c0,8.272-6.729,15.002-15,15.002
	c-6.79,0-12.531-4.49-14.366-10.728c1.398,0.461,2.867,0.698,4.366,0.698c7.72,0,14-6.281,14-14.001
	C-190.347-653.804-190.771-655.748-191.572-657.533 M-194.347-659.79c-0.338,0-0.668,0.031-1,0.051c1.861,2.113,3,4.881,3,7.92
	c0,6.627-5.372,12.001-12,12.001c-2.599,0-4.998-0.835-6.963-2.239c0.387,9.047,7.821,16.269,16.963,16.269
	c9.39,0,17-7.612,17-17.002S-184.957-659.79-194.347-659.79L-194.347-659.79z"/>
<g>
	<path d="M-297.742-654.795c-7.18,0-13,5.819-13,12.999c0,7.181,5.82,13.002,13,13.002s13-5.821,13-13.002
		C-284.742-648.976-290.563-654.795-297.742-654.795z M-297.742-630.794c-6.065,0-11-4.936-11-11.002
		c0-6.064,4.935-10.999,11-10.999s11,4.935,11,10.999C-286.742-635.729-291.677-630.794-297.742-630.794z"/>
	<rect x="-298.749" y="-667.789" width="2" height="10"/>
	<rect x="-298.749" y="-625.789" width="2" height="10"/>
	<rect x="-323.742" y="-642.789" width="9.993" height="2"/>
	<rect x="-281.749" y="-642.789" width="10.007" height="2"/>
	<rect x="-284.049" y="-661.703" transform="matrix(0.7071 0.7071 -0.7071 0.7071 -547.1178 7.8621)" width="2" height="10.409"/>
	
		<rect x="-313.458" y="-632.294" transform="matrix(-0.7071 -0.7071 0.7071 -0.7071 -89.9801 -1291.4497)" width="2" height="10.41"/>
	<rect x="-317.658" y="-657.494" transform="matrix(0.7071 0.7071 -0.7071 0.7071 -555.7267 28.6555)" width="10.409" height="2"/>
	
		<rect x="-288.25" y="-628.084" transform="matrix(-0.7072 -0.7071 0.7071 -0.7072 -39.8149 -1270.6593)" width="10.41" height="2"/>
</g>
<g>
	<rect x="100.424" y="-296.928" width="2" height="7.973"/>
	<rect x="81.451" y="-277.941" width="7.973" height="2"/>
	<rect x="86.177" y="-289.16" transform="matrix(0.7071 0.7071 -0.7071 0.7071 -177.3516 -148.1558)" width="7.974" height="2"/>
	<rect x="111.686" y="-292.142" transform="matrix(0.7071 0.7071 -0.7071 0.7071 -170.7524 -164.0797)" width="2" height="7.972"/>
	<path d="M115.451-254.928l0.005-0.007H102.92l-0.594-0.003c-4.864-0.024-8.822-4.001-8.822-8.865c0-4.89,3.978-8.868,8.867-8.868
		c0.15,0,0.299,0.012,0.447,0.021l0.148,0.011l1.314,0.085l0.597-1.174c2.225-4.373,6.644-7.09,11.532-7.09
		c5.916,0,11.114,4.099,12.54,9.8h2.065c-1.444-6.742-7.433-11.8-14.605-11.8c-2.185,0-4.258,0.47-6.126,1.313
		c-1.667-3.202-5.007-5.394-8.866-5.394c-5.522,0-10,4.477-10,9.999c0,2.46,0.899,4.702,2.373,6.442
		c-1.429,1.84-2.287,4.144-2.287,6.653c0,5.983,4.836,10.836,10.813,10.865v0.003h13.135v0.007c2.205,0,4,1.794,4,4s-1.795,4-4,4v2
		c3.314,0,6-2.686,6-6C121.451-252.241,118.766-254.928,115.451-254.928z M101.418-284.897c3.091,0,5.76,1.773,7.091,4.345
		c-2.298,1.439-4.178,3.488-5.413,5.918c-0.241-0.016-0.48-0.036-0.725-0.036c-2.766,0-5.282,1.042-7.2,2.743
		c-1.092-1.367-1.753-3.09-1.753-4.971C93.418-281.309,97.007-284.897,101.418-284.897z"/>
	<path d="M119.451-258.928h-9.988v2h9.988c3.314,0,6-2.687,6-6c0-3.314-2.686-6-6-6v2c2.205,0,4,1.794,4,4
		S121.656-258.928,119.451-258.928z"/>
	<path d="M127.475-258.928h-0.023v2h5.5v-0.051c2.523-0.254,4.5-2.358,4.5-4.949c0-2.762-2.238-5-5-5v2c1.654,0,3,1.346,3,3
		s-1.346,3-3,3c-0.043,0-0.083-0.011-0.126-0.013h-4.862C127.466-258.936,127.472-258.932,127.475-258.928z"/>
	<path d="M136.451-254.928h-13v2h9.022c-0.004,0.004-0.008,0.008-0.011,0.013h3.862c0.043-0.002,0.083-0.013,0.126-0.013
		c1.654,0,3,1.346,3,3s-1.346,3-3,3v2c2.762,0,5-2.238,5-5S139.213-254.928,136.451-254.928z"/>
	<rect x="103.451" y="-258.928" width="4" height="2"/>
</g>
<g>
	<path d="M215.413-256.934l0.005-0.007h-12.536l-0.594-0.003c-4.864-0.024-8.822-4.001-8.822-8.865c0-4.89,3.978-8.868,8.867-8.868
		c0.15,0,0.299,0.012,0.447,0.021l0.148,0.011l1.314,0.085l0.597-1.174c2.225-4.373,6.644-7.09,11.532-7.09
		c5.916,0,11.114,4.099,12.54,9.8h2.065c-1.444-6.742-7.433-11.8-14.605-11.8c-1.806,0-3.536,0.322-5.138,0.91
		c-0.938-5.123-5.4-9.01-10.794-9.01c-0.413,0-0.819,0.027-1.222,0.071c0.744,1.112,1.179,2.448,1.179,3.886c0,3.865-3.134,7-7,7
		c-1.438,0-2.773-0.435-3.886-1.179c-0.044,0.401-0.071,0.809-0.071,1.222c0,3.725,1.858,7.009,4.69,8.998
		c-1.655,1.907-2.665,4.392-2.665,7.116c0,5.983,4.836,10.836,10.813,10.865v0.003h13.135v0.007c2.205,0,4,1.794,4,4s-1.795,4-4,4v2
		c3.314,0,6-2.686,6-6C221.413-254.247,218.728-256.934,215.413-256.934z M191.617-280.143c0.582,0.117,1.178,0.177,1.78,0.177
		c4.963,0,9-4.037,9-9c0-0.603-0.06-1.198-0.177-1.78c3.744,0.755,6.646,3.842,7.138,7.674c-2.702,1.444-4.909,3.696-6.301,6.432
		c-0.241-0.016-0.48-0.036-0.725-0.036c-2.535,0-4.861,0.875-6.71,2.33C193.595-275.639,192.108-277.707,191.617-280.143z"/>
	<path d="M219.413-260.934h-9.988v2h9.988c3.314,0,6-2.687,6-6c0-3.314-2.686-6-6-6v2c2.205,0,4,1.794,4,4
		S221.618-260.934,219.413-260.934z"/>
	<path d="M227.437-260.934h-0.023v2h5.5v-0.051c2.523-0.254,4.5-2.358,4.5-4.949c0-2.762-2.238-5-5-5v2c1.654,0,3,1.346,3,3
		s-1.346,3-3,3c-0.043,0-0.083-0.011-0.126-0.013h-4.862C227.428-260.941,227.434-260.938,227.437-260.934z"/>
	<path d="M236.413-256.934h-13v2h9.022c-0.004,0.004-0.008,0.008-0.011,0.013h3.862c0.043-0.002,0.083-0.013,0.126-0.013
		c1.654,0,3,1.346,3,3s-1.346,3-3,3v2c2.762,0,5-2.238,5-5S239.175-256.934,236.413-256.934z"/>
	<rect x="203.413" y="-260.934" width="4" height="2"/>
</g>
<g>
	<rect x="316.306" y="-294.365" width="2" height="10"/>
	<rect x="291.313" y="-269.365" width="9.993" height="2"/>
	<rect x="331.005" y="-288.279" transform="matrix(0.7071 0.7071 -0.7071 0.7071 -102.9219 -317.6739)" width="2" height="10.409"/>
	<rect x="297.397" y="-284.07" transform="matrix(0.7071 0.7071 -0.7071 0.7071 -111.5308 -296.8805)" width="10.409" height="2"/>
	<path d="M321.306-254.365h-24v2h24c2.205,0,4,1.794,4,4s-1.795,4-4,4v2c3.314,0,6-2.686,6-6
		C327.306-251.679,324.62-254.365,321.306-254.365z"/>
	<path d="M333.329-258.365h-0.023v2h5.5v-0.051c2.523-0.254,4.5-2.358,4.5-4.949c0-2.762-2.238-5-5-5v2c1.654,0,3,1.346,3,3
		s-1.346,3-3,3c-0.043,0-0.083-0.011-0.126-0.013h-4.862C333.32-258.373,333.326-258.369,333.329-258.365z"/>
	<path d="M342.306-254.365h-13v2h9.022c-0.004,0.004-0.008,0.008-0.011,0.013h3.862c0.043-0.002,0.083-0.013,0.126-0.013
		c1.654,0,3,1.346,3,3s-1.346,3-3,3v2c2.762,0,5-2.238,5-5S345.067-254.365,342.306-254.365z"/>
	<path d="M309.015-258.365h-11.709v2h12.012h0.822h15.166c3.314,0,6-2.687,6-6c0-3.314-2.686-6-6-6v2c2.205,0,4,1.794,4,4
		s-1.795,4-4,4h-12.538c-3.802-1.734-6.455-5.563-6.455-10.007c0-6.064,4.935-10.999,11-10.999c5.384,0,9.868,3.891,10.81,9.006
		h2.021c-0.961-6.23-6.331-11.006-12.831-11.006c-7.18,0-13,5.819-13,12.999C304.313-264.347,306.143-260.75,309.015-258.365z"/>
</g>
<g>
	<path d="M421.532-260.922h-24v2h24c2.205,0,4,1.794,4,4s-1.795,4-4,4v2c3.314,0,6-2.686,6-6
		C427.532-258.235,424.847-260.922,421.532-260.922z"/>
	<path d="M439.032-262.922v-0.051c2.523-0.254,4.5-2.358,4.5-4.949c0-2.762-2.238-5-5-5v2c1.654,0,3,1.346,3,3s-1.346,3-3,3
		c-0.043,0-0.083-0.011-0.126-0.013h-4.862c0.004,0.005,0.009,0.009,0.012,0.013h-0.023v2H439.032z"/>
	<path d="M442.532-260.922h-13v2h9.022c-0.003,0.004-0.007,0.008-0.011,0.013h3.862c0.043-0.002,0.083-0.013,0.126-0.013
		c1.654,0,3,1.346,3,3s-1.346,3-3,3v2c2.762,0,5-2.238,5-5S445.294-260.922,442.532-260.922z"/>
	<path d="M410.366-262.922h15.166c3.314,0,6-2.687,6-6c0-3.314-2.686-6-6-6v2c2.205,0,4,1.794,4,4s-1.795,4-4,4h-12.586
		c-2.596-1.188-4.658-3.339-5.69-6.034c0.849,0.204,1.724,0.309,2.612,0.309c6.168,0,11.187-5.019,11.187-11.188
		c0-1.276-0.22-2.532-0.64-3.717c4.046,1.102,7.168,4.459,7.937,8.63h2.018c-0.964-6.237-6.338-11.016-12.846-11.016
		c-0.259,0-0.511,0.024-0.766,0.039c1.425,1.618,2.297,3.737,2.297,6.063c0,5.072-4.112,9.188-9.187,9.188
		c-1.988,0-3.826-0.641-5.33-1.715c0.162,3.801,1.962,7.165,4.699,9.44h-11.705v2h12.012H410.366z"/>
</g>
<g>
	<path d="M-298.249-175.729h-20c-1.103,0-2-0.897-2-2s0.897-2,2-2h3.445h0.555v-2h-4c-2.209,0-4,1.791-4,4s1.791,4,4,4h20
		c2.205,0,4,1.794,4,4s-1.795,4-4,4v2c3.314,0,6-2.686,6-6C-292.249-173.042-294.935-175.729-298.249-175.729z"/>
	<path d="M-296.249-191.729v2c2.205,0,4,1.794,4,4s-1.795,4-4,4h-15.988v2h15.988c3.314,0,6-2.687,6-6
		C-290.249-189.043-292.935-191.729-296.249-191.729z"/>
	<path d="M-290.249-179.729v2h5.5v-0.051c2.523-0.254,4.5-2.358,4.5-4.949c0-2.762-2.238-5-5-5v2c1.654,0,3,1.346,3,3s-1.346,3-3,3
		c-0.043,0-0.083-0.011-0.126-0.013h-4.862c0.003,0.005,0.009,0.009,0.012,0.013H-290.249z"/>
	<path d="M-279.249-175.729h-11v2h7.022c-0.004,0.004-0.008,0.008-0.011,0.013h3.862c0.043-0.002,0.083-0.013,0.126-0.013
		c1.654,0,3,1.346,3,3s-1.346,3-3,3v2c2.762,0,5-2.238,5-5S-276.487-175.729-279.249-175.729z"/>
</g>
<path d="M238.043-189.382v-0.038h-38.376c-1.103,0-2-0.897-2-2s0.897-2,2-2h33c2.762,0,5-2.238,5-5s-2.238-5-5-5h-37.875v0.008
	c-0.042-0.001-0.083-0.008-0.125-0.008c-2.762,0-5,2.238-5,5s2.238,5,5,5v-2c-1.654,0-3-1.346-3-3s1.346-3,3-3h0.125h3.853h34.022
	c1.654,0,3,1.346,3,3s-1.346,3-3,3h-33c-2.209,0-4,1.791-4,4s1.791,4,4,4h38c1.103,0,2,0.897,2,2s-0.897,2-2,2h-32
	c-2.209,0-4,1.791-4,4s1.791,4,4,4h22c1.103,0,2,0.897,2,2s-0.897,2-2,2h-24.01v0.001c-2.204,0.006-3.99,1.793-3.99,3.999
	s1.786,3.993,3.99,3.999v0.001h12.01c1.103,0,2,0.897,2,2s-0.897,2-2,2h-2c-2.209,0-4,1.791-4,4s1.791,4,4,4v-2
	c-1.103,0-2-0.897-2-2s0.897-2,2-2h2c2.209,0,4-1.791,4-4s-1.791-4-4-4h-12c-1.103,0-2-0.897-2-2s0.897-2,2-2h24
	c2.209,0,4-1.791,4-4c0-2.152-1.704-3.895-3.834-3.983v-0.017h-22.166c-1.103,0-2-0.897-2-2s0.897-2,2-2h32c2.209,0,4-1.791,4-4
	C241.667-187.5,240.073-189.189,238.043-189.382z"/>
<path d="M423.458-198.704v-2.024h-2v2.024c-13.01,0.513-23.462,10.965-23.975,23.976h1.674c1.14-1.222,2.748-2,4.551-2
	c2.26,0,4.233,1.203,5.331,3h1.838c1.098-1.797,3.071-3,5.331-3c2.204,0,4.137,1.144,5.25,2.866v15.134c0,2.21,1.791,4,4,4
	s4-1.79,4-4h-2c0,1.103-0.897,2-2,2s-2-0.897-2-2v-15.134c1.113-1.723,3.046-2.866,5.25-2.866c2.26,0,4.233,1.203,5.331,3h1.838
	c1.098-1.797,3.071-3,5.331-3c1.803,0,3.411,0.778,4.551,2h1.674C446.92-187.739,436.468-198.191,423.458-198.704z M441.208-178.729
	c-2.496,0-4.736,1.114-6.25,2.87c-1.514-1.756-3.754-2.87-6.25-2.87s-4.736,1.114-6.25,2.87c-1.514-1.756-3.754-2.87-6.25-2.87
	s-4.736,1.114-6.25,2.87c-1.514-1.756-3.755-2.87-6.25-2.87c-1.402,0-2.731,0.351-3.897,0.975
	c1.909-10.769,11.339-18.975,22.647-18.975s20.738,8.206,22.647,18.975C443.939-178.378,442.61-178.729,441.208-178.729z"/>
<g>
	<path d="M18.163-74.416v-17.105c0-2.762-2.238-5-5-5s-5,2.238-5,5v17.105c-1.236,1.263-2,2.988-2,4.895c0,3.866,3.134,7,7,7
		s7-3.134,7-7C20.163-71.428,19.399-73.153,18.163-74.416z M13.163-64.521c-2.757,0-5-2.243-5-5c0-1.313,0.508-2.554,1.429-3.495
		l0.571-0.583v-0.816v-17.105c0-1.654,1.346-3,3-3s3,1.346,3,3v17.105v0.816l0.571,0.583c0.921,0.941,1.429,2.183,1.429,3.495
		C18.163-66.765,15.92-64.521,13.163-64.521z"/>
	<path d="M14.163-72.346v-15.176h-2v15.176c-1.167,0.413-2.008,1.516-2.008,2.824c0,1.662,1.347,3.008,3.008,3.008
		c1.662,0,3.008-1.346,3.008-3.008C16.171-70.83,15.331-71.933,14.163-72.346z M13.163-68.514c-0.556,0-1.008-0.452-1.008-1.008
		s0.452-1.008,1.008-1.008s1.008,0.452,1.008,1.008S13.719-68.514,13.163-68.514z"/>
</g>
<g>
	<path d="M117.951-74.416v-17.105c0-2.762-2.238-5-5-5s-5,2.238-5,5v17.105c-1.236,1.263-2,2.988-2,4.895c0,3.866,3.134,7,7,7
		s7-3.134,7-7C119.951-71.428,119.188-73.153,117.951-74.416z M112.951-64.521c-2.757,0-5-2.243-5-5
		c0-1.313,0.508-2.554,1.429-3.495l0.571-0.583v-0.816v-17.105c0-1.654,1.346-3,3-3s3,1.346,3,3v17.105v0.816l0.571,0.583
		c0.921,0.941,1.429,2.183,1.429,3.495C117.951-66.765,115.708-64.521,112.951-64.521z"/>
	<path d="M113.951-72.346v-20.176h-2v20.176c-1.167,0.413-2.008,1.516-2.008,2.824c0,1.662,1.347,3.008,3.008,3.008
		c1.662,0,3.008-1.346,3.008-3.008C115.959-70.83,115.119-71.933,113.951-72.346z M112.951-68.514c-0.556,0-1.008-0.452-1.008-1.008
		s0.452-1.008,1.008-1.008s1.008,0.452,1.008,1.008S113.507-68.514,112.951-68.514z"/>
</g>
<g>
	<path d="M-84.946-74.416v-17.105c0-2.762-2.238-5-5-5s-5,2.238-5,5v17.105c-1.236,1.263-2,2.988-2,4.895c0,3.866,3.134,7,7,7
		s7-3.134,7-7C-82.946-71.428-83.71-73.153-84.946-74.416z M-89.946-64.521c-2.757,0-5-2.243-5-5c0-1.313,0.508-2.554,1.429-3.495
		l0.571-0.583v-0.816v-17.105c0-1.654,1.346-3,3-3s3,1.346,3,3v17.105v0.816l0.571,0.583c0.921,0.941,1.429,2.183,1.429,3.495
		C-84.946-66.765-87.189-64.521-89.946-64.521z"/>
	<path d="M-88.946-72.346v-10.176h-2v10.176c-1.167,0.413-2.008,1.516-2.008,2.824c0,1.662,1.347,3.008,3.008,3.008
		c1.662,0,3.008-1.346,3.008-3.008C-86.938-70.83-87.778-71.933-88.946-72.346z M-89.946-68.514c-0.556,0-1.008-0.452-1.008-1.008
		s0.452-1.008,1.008-1.008s1.008,0.452,1.008,1.008S-89.391-68.514-89.946-68.514z"/>
</g>
<g>
	<path d="M-188.592-74.416v-17.105c0-2.762-2.238-5-5-5s-5,2.238-5,5v17.105c-1.236,1.263-2,2.988-2,4.895c0,3.866,3.134,7,7,7
		s7-3.134,7-7C-186.592-71.428-187.355-73.153-188.592-74.416z M-193.592-64.521c-2.757,0-5-2.243-5-5
		c0-1.313,0.508-2.554,1.429-3.495l0.571-0.583v-0.816v-17.105c0-1.654,1.346-3,3-3s3,1.346,3,3v17.105v0.816l0.571,0.583
		c0.921,0.941,1.429,2.183,1.429,3.495C-188.592-66.765-190.835-64.521-193.592-64.521z"/>
	<path d="M-192.592-72.346v-5.176h-2v5.176c-1.167,0.413-2.008,1.516-2.008,2.824c0,1.662,1.347,3.008,3.008,3.008
		c1.662,0,3.008-1.346,3.008-3.008C-190.584-70.83-191.424-71.933-192.592-72.346z M-193.592-68.514
		c-0.556,0-1.008-0.452-1.008-1.008s0.452-1.008,1.008-1.008s1.008,0.452,1.008,1.008S-193.036-68.514-193.592-68.514z"/>
</g>
<g>
	<path d="M-293.249-74.416v-17.105c0-2.762-2.238-5-5-5s-5,2.238-5,5v17.105c-1.236,1.263-2,2.988-2,4.895c0,3.866,3.134,7,7,7
		s7-3.134,7-7C-291.249-71.428-292.013-73.153-293.249-74.416z M-298.249-64.521c-2.757,0-5-2.243-5-5
		c0-1.313,0.508-2.554,1.429-3.495l0.571-0.583v-0.816v-17.105c0-1.654,1.346-3,3-3s3,1.346,3,3v17.105v0.816l0.571,0.583
		c0.921,0.941,1.429,2.183,1.429,3.495C-293.249-66.765-295.492-64.521-298.249-64.521z"/>
	<path d="M-298.249-72.529c-1.661,0-3.008,1.347-3.008,3.008c0,1.662,1.347,3.008,3.008,3.008c1.662,0,3.008-1.346,3.008-3.008
		C-295.241-71.183-296.587-72.529-298.249-72.529z M-298.249-68.514c-0.556,0-1.008-0.452-1.008-1.008s0.452-1.008,1.008-1.008
		s1.008,0.452,1.008,1.008S-297.693-68.514-298.249-68.514z"/>
</g>
<g>
	<path d="M206.676-94.209c-2.209,0-4,1.791-4,4c0,2.21,1.791,4,4,4c2.211,0,4-1.79,4-4
		C210.676-92.418,208.887-94.209,206.676-94.209z M206.676-88.209c-1.103,0-2-0.897-2-2s0.897-2,2-2s2,0.897,2,2
		S207.778-88.209,206.676-88.209z"/>
	<path d="M220.676-66.209c-4.41,0-7.999-3.589-7.999-7.999v-4.002c0-4.41,3.589-7.999,7.999-7.999c2.715,0,5.115,1.362,6.563,3.437
		l1.43-1.43c-1.824-2.429-4.72-4.007-7.992-4.007c-5.522,0-9.999,4.478-9.999,9.999v4.002c0,5.521,4.477,9.999,9.999,9.999
		c3.272,0,6.168-1.579,7.992-4.008l-1.43-1.43C225.792-67.572,223.392-66.209,220.676-66.209z"/>
</g>
<g>
	<path d="M311.372-94.33c-2.209,0-4,1.791-4,4c0,2.21,1.791,4,4,4c2.211,0,4-1.79,4-4C315.372-92.539,313.583-94.33,311.372-94.33z
		 M311.372-88.33c-1.103,0-2-0.897-2-2s0.897-2,2-2s2,0.897,2,2S312.475-88.33,311.372-88.33z"/>
	<polygon points="331.247,-86.209 331.247,-88.209 319.247,-88.209 317.247,-88.209 317.247,-64.209 319.247,-64.209 
		319.247,-76.209 327.247,-76.209 327.247,-78.209 319.247,-78.209 319.247,-86.209 	"/>
</g>
<g>
	<path d="M422.458-90.518c-7.179,0-13,5.82-13,13s5.821,13,13,13s13-5.82,13-13S429.637-90.518,422.458-90.518z M422.458-66.518
		c-6.065,0-11-4.935-11-11s4.935-11,11-11s11,4.935,11,11S428.523-66.518,422.458-66.518z"/>
	<path d="M418.191-73.275l6.363-2.121l2.121-6.364l-6.363,2.122L418.191-73.275z M421.894-78.058l1.62-0.54l-0.54,1.62l-1.62,0.54
		L421.894-78.058z"/>
</g>
<g>
	<path d="M-298.249,0c-7.179,0-13,5.82-13,13s5.821,13,13,13s13-5.82,13-13S-291.07,0-298.249,0z M-298.249,24
		c-6.065,0-11-4.934-11-11c0-6.064,4.935-11,11-11s11,4.936,11,11C-287.249,19.066-292.184,24-298.249,24z"/>
	<path d="M-295.688,11.422L-298.273,7l-2.529,4.33h0.007c-0.299,0.467-0.478,1.018-0.478,1.613c0,1.656,1.343,3,3,3s3-1.344,3-3
		c0-0.559-0.162-1.074-0.428-1.521H-295.688z M-298.273,13.943c-0.552,0-1-0.449-1-1c0-0.188,0.055-0.367,0.162-0.535l0.864-1.355
		l0.826,1.391c0.098,0.164,0.147,0.332,0.147,0.5C-297.273,13.494-297.722,13.943-298.273,13.943z"/>
</g>
<g>
	<path d="M-193.465,0c-7.18,0-13,5.82-13,13s5.82,13,13,13s13-5.82,13-13S-186.285,0-193.465,0z M-193.465,24
		c-6.065,0-11-4.934-11-11c0-6.064,4.935-11,11-11s11,4.936,11,11C-182.465,19.066-187.399,24-193.465,24z"/>
	<path d="M-191.876,10.42c-0.467-0.299-1.018-0.477-1.613-0.477c-1.658,0-3,1.342-3,3c0,1.656,1.342,3,3,3
		c0.557,0,1.072-0.162,1.52-0.428v0.014l4.422-2.586l-4.328-2.529V10.42z M-192.991,13.795c-0.164,0.098-0.332,0.148-0.498,0.148
		c-0.552,0-1-0.449-1-1c0-0.553,0.448-1,1-1c0.188,0,0.368,0.053,0.535,0.16l1.355,0.865L-192.991,13.795z"/>
</g>
<g>
	<path d="M-90.414,0c-7.18,0-13,5.82-13,13s5.82,13,13,13s13-5.82,13-13S-83.234,0-90.414,0z M-90.414,24c-6.065,0-11-4.934-11-11
		c0-6.064,4.935-11,11-11s11,4.936,11,11C-79.414,19.066-84.349,24-90.414,24z"/>
	<path d="M-90.414,9.943c-1.656,0-3,1.342-3,3c0,0.557,0.162,1.072,0.428,1.52H-93l2.586,4.422l2.529-4.328h-0.006
		c0.299-0.467,0.477-1.018,0.477-1.613C-87.414,11.285-88.756,9.943-90.414,9.943z M-89.575,13.479l-0.865,1.355l-0.826-1.393
		c-0.098-0.164-0.147-0.332-0.147-0.498c0-0.553,0.448-1,1-1s1,0.447,1,1C-89.414,13.131-89.468,13.311-89.575,13.479z"/>
</g>
<g>
	<path d="M13,0C5.821,0,0,5.82,0,13s5.821,13,13,13s13-5.82,13-13S20.179,0,13,0z M13,24C6.935,24,2,19.066,2,13
		C2,6.936,6.935,2,13,2s11,4.936,11,11C24,19.066,19.065,24,13,24z"/>
	<path d="M12.959,9.943c-0.557,0-1.072,0.162-1.52,0.428v-0.014l-4.422,2.586l4.328,2.529v-0.006
		c0.467,0.299,1.018,0.477,1.613,0.477c1.658,0,3-1.342,3-3C15.959,11.287,14.617,9.943,12.959,9.943z M12.959,13.943
		c-0.188,0-0.368-0.055-0.535-0.162l-1.355-0.865l1.393-0.826c0.164-0.098,0.332-0.146,0.498-0.146c0.552,0,1,0.447,1,1
		C13.959,13.494,13.511,13.943,12.959,13.943z"/>
</g>
<g>
	<rect x="-195.151" y="-196.729" width="2" height="10"/>
	<rect x="-180.452" y="-190.643" transform="matrix(0.7071 0.7071 -0.7071 0.7071 -183.6846 72.5779)" width="2" height="10.409"/>
	<rect x="-214.061" y="-186.433" transform="matrix(0.7071 0.7071 -0.7071 0.7071 -192.2935 93.3713)" width="10.409" height="2"/>
	<polygon points="-200.819,-167.475 -199.405,-166.061 -195.151,-170.314 -195.151,-160.729 -193.151,-160.729 -193.151,-170.314 
		-188.898,-166.061 -187.484,-167.475 -194.151,-174.143 	"/>
	<path d="M-181.145-170.729c0-0.002,0-0.004,0-0.006c0-7.18-5.82-12.999-13-12.999s-13,5.819-13,12.999c0,0.002,0,0.004,0,0.006h-13
		v2h18v-2h-3c0-0.002,0-0.004,0-0.006c0-6.064,4.935-10.999,11-10.999s11,4.935,11,10.999c0,0.002,0,0.004,0,0.006h-3v2h17.995v-2
		H-181.145z"/>
</g>
<g>
	<rect x="-91.406" y="-197.916" width="2" height="10"/>
	<rect x="-76.706" y="-191.83" transform="matrix(0.7071 0.7071 -0.7071 0.7071 -154.1381 -1.1287)" width="2" height="10.409"/>
	<rect x="-110.315" y="-187.62" transform="matrix(0.7071 0.7071 -0.7071 0.7071 -162.7469 19.6647)" width="10.409" height="2"/>
	<polygon points="-89.406,-163.369 -89.406,-173.916 -91.406,-173.916 -91.406,-163.369 -95.66,-167.623 -97.074,-166.209 
		-90.406,-159.541 -83.739,-166.209 -85.153,-167.623 	"/>
	<path d="M-77.399-171.917c0-0.002,0-0.004,0-0.006c0-7.18-5.82-12.999-13-12.999s-13,5.819-13,12.999c0,0.002,0,0.004,0,0.006h-13
		v2h22v-2h-7c0-0.002,0-0.004,0-0.006c0-6.064,4.935-10.999,11-10.999s11,4.935,11,10.999c0,0.002,0,0.004,0,0.006h-7v2h21.995v-2
		H-77.399z"/>
</g>
<g>
	<polygon points="112.951,-163.903 112.951,-178.286 110.951,-178.286 110.951,-163.903 106.697,-168.157 105.283,-166.743 
		111.951,-160.075 118.618,-166.743 117.204,-168.157 	"/>
	<path d="M128.579-183.257c-1.596-7.445-8.207-13.029-16.127-13.029c-6.423,0-11.977,3.678-14.702,9.035
		c-0.266-0.018-0.53-0.04-0.8-0.04c-6.627,0-11.999,5.372-11.999,12c0,6.607,5.34,11.965,11.938,11.998v0.003h6.062v-2h-5.604
		l-0.447-0.003c-5.485-0.027-9.948-4.513-9.948-9.998c0-5.514,4.485-10,9.999-10c0.175,0,0.347,0.014,0.52,0.025l0.148,0.01
		l1.316,0.088l0.598-1.176c2.492-4.899,7.443-7.942,12.92-7.942c6.79,0,12.75,4.814,14.172,11.448l0.317,1.482l1.514,0.095
		c4.203,0.262,7.496,3.763,7.496,7.971c0,4.397-3.565,7.977-7.957,8c-0.05-0.003-0.093-0.005-0.137-0.007l-2.043,0.007h-4.863v2
		h6.863v-0.007c0.046,0.001,0.091,0.007,0.137,0.007c5.521,0,10-4.477,10-10C137.951-178.601,133.807-182.932,128.579-183.257z"/>
</g>
<g>
	<polygon points="18.936,-167.099 20.35,-168.513 13.683,-175.181 7.015,-168.513 8.429,-167.099 12.683,-171.353 12.683,-158.767 
		14.683,-158.767 14.683,-171.353 	"/>
	<path d="M30.311-181.661c-1.596-7.445-8.207-13.029-16.127-13.029c-6.423,0-11.977,3.678-14.702,9.035
		c-0.266-0.018-0.53-0.04-0.8-0.04c-6.627,0-11.999,5.372-11.999,12c0,6.607,5.34,11.965,11.938,11.998v0.003H8.683v-2h-9.604
		l-0.447-0.003c-5.485-0.027-9.948-4.513-9.948-9.998c0-5.514,4.485-10,9.999-10c0.175,0,0.347,0.014,0.52,0.025l0.148,0.01
		l1.316,0.088l0.598-1.176c2.492-4.899,7.443-7.942,12.92-7.942c6.79,0,12.75,4.814,14.172,11.448l0.317,1.482l1.514,0.095
		c4.203,0.262,7.496,3.763,7.496,7.971c0,4.397-3.565,7.977-7.957,8c-0.05-0.003-0.093-0.005-0.137-0.007l-2.043,0.007h-8.863v2
		h10.863v-0.007c0.046,0.001,0.091,0.007,0.137,0.007c5.521,0,10-4.477,10-10C39.683-177.005,35.538-181.336,30.311-181.661z"/>
</g>
<g>
	<path d="M232.8-371.177c-1.596-7.445-8.207-13.029-16.127-13.029c-6.423,0-11.977,3.678-14.702,9.035
		c-0.266-0.018-0.53-0.04-0.8-0.04c-6.627,0-11.999,5.372-11.999,12c0,6.607,5.34,11.965,11.938,11.998v0.003h2.062v-2h-1.604
		l-0.447-0.003c-5.485-0.027-9.948-4.513-9.948-9.998c0-5.514,4.485-10,9.999-10c0.175,0,0.347,0.014,0.52,0.025l0.148,0.01
		l1.316,0.088l0.598-1.176c2.492-4.899,7.443-7.942,12.92-7.942c6.79,0,12.75,4.814,14.172,11.448l0.317,1.482l1.514,0.095
		c4.203,0.262,7.496,3.763,7.496,7.971c0,4.397-3.565,7.977-7.957,8c-0.05-0.003-0.093-0.005-0.137-0.007l-2.043,0.007h-0.863v2
		h2.863v-0.007c0.046,0.001,0.091,0.007,0.137,0.007c5.521,0,10-4.477,10-10C242.172-366.521,238.027-370.852,232.8-371.177z"/>
	<polygon points="211.172,-352.188 211.172,-354.818 213.345,-353.596 214.03,-354.816 211.561,-356.206 214.03,-357.596 
		213.345,-358.816 211.172,-357.594 211.172,-360.188 209.172,-360.188 209.172,-357.55 206.921,-358.816 206.235,-357.596 
		208.705,-356.206 206.235,-354.816 206.921,-353.596 209.172,-354.862 209.172,-352.188 	"/>
	<polygon points="216.334,-347.834 214.161,-346.611 214.161,-349.206 212.161,-349.206 212.161,-346.567 209.91,-347.834 
		209.225,-346.613 211.694,-345.224 209.225,-343.834 209.91,-342.613 212.161,-343.88 212.161,-341.206 214.161,-341.206 
		214.161,-343.836 216.334,-342.613 217.02,-343.834 214.55,-345.224 217.02,-346.613 	"/>
	<polygon points="225.35,-354.816 223.177,-353.594 223.177,-356.188 221.177,-356.188 221.177,-353.55 218.926,-354.816 
		218.24,-353.596 220.71,-352.206 218.24,-350.816 218.926,-349.596 221.177,-350.862 221.177,-348.188 223.177,-348.188 
		223.177,-350.818 225.35,-349.596 226.035,-350.816 223.565,-352.206 226.035,-353.596 	"/>
</g>
<g>
	<rect x="308.312" y="-389.229" width="2" height="7.973"/>
	<rect x="289.312" y="-370.314" width="7.973" height="2"/>
	<rect x="293.985" y="-381.581" transform="matrix(0.7071 0.7071 -0.7071 0.7071 -181.8376 -322.1674)" width="7.974" height="2"/>
	<rect x="319.493" y="-384.563" transform="matrix(0.7071 0.7071 -0.7071 0.7071 -175.2384 -338.0914)" width="2" height="7.972"/>
	<path d="M338.823-363.438c-1.444-6.742-7.433-11.8-14.605-11.8c-2.185,0-4.258,0.471-6.127,1.314
		c-1.666-3.203-5.006-5.395-8.865-5.395c-5.522,0-10,4.477-10,9.999c0,2.46,0.899,4.702,2.373,6.442
		c-1.428,1.84-2.287,4.144-2.287,6.653c0,5.983,4.836,10.836,10.813,10.865v0.003h1.188v-2h-0.721l-0.457-0.003
		c-4.864-0.023-8.822-4.001-8.822-8.865c0-4.89,3.978-8.868,8.867-8.868c0.15,0,0.299,0.012,0.447,0.022l0.148,0.01l1.314,0.085
		l0.597-1.175c2.225-4.372,6.644-7.089,11.532-7.089c6.062,0,11.382,4.298,12.649,10.219l0.318,1.483l1.514,0.094
		c3.708,0.23,6.612,3.319,6.612,7.03c0,3.878-3.144,7.035-7.017,7.057c-0.042-0.003-0.079-0.005-0.117-0.005l-1.866,0.005v2h1.819
		v-0.006c0.042,0.001,0.082,0.006,0.124,0.006c5.001,0,9.057-4.054,9.057-9.057C347.312-359.222,343.558-363.144,338.823-363.438z
		 M310.903-367.056c-0.241-0.016-0.48-0.036-0.725-0.036c-2.766,0-5.282,1.041-7.2,2.742c-1.092-1.365-1.753-3.089-1.753-4.97
		c0-4.41,3.589-7.999,8-7.999c3.092,0,5.76,1.773,7.091,4.346C314.019-371.533,312.14-369.485,310.903-367.056z"/>
	<polygon points="318.304,-346.336 318.304,-348.966 320.477,-347.743 321.162,-348.964 318.692,-350.354 321.162,-351.743 
		320.477,-352.964 318.304,-351.741 318.304,-354.336 316.304,-354.336 316.304,-351.697 314.053,-352.964 313.367,-351.743 
		315.837,-350.354 313.367,-348.964 314.053,-347.743 316.304,-349.01 316.304,-346.336 	"/>
	<polygon points="323.466,-341.981 321.293,-340.759 321.293,-343.354 319.293,-343.354 319.293,-340.715 317.042,-341.981 
		316.356,-340.761 318.826,-339.371 316.356,-337.981 317.042,-336.761 319.293,-338.027 319.293,-335.354 321.293,-335.354 
		321.293,-337.983 323.466,-336.761 324.151,-337.981 321.682,-339.371 324.151,-340.761 	"/>
	<polygon points="332.481,-348.964 330.309,-347.741 330.309,-350.336 328.309,-350.336 328.309,-347.697 326.058,-348.964 
		325.372,-347.743 327.842,-346.354 325.372,-344.964 326.058,-343.743 328.309,-345.01 328.309,-342.336 330.309,-342.336 
		330.309,-344.966 332.481,-343.743 333.167,-344.964 330.697,-346.354 333.167,-347.743 	"/>
</g>
<g>
	<path d="M439.012-366.441c-1.444-6.742-7.433-11.8-14.605-11.8c-1.799,0-3.522,0.32-5.118,0.904
		c-0.949-5.108-5.404-8.98-10.788-8.98c-0.413,0-0.819,0.027-1.222,0.071c0.744,1.112,1.179,2.448,1.179,3.886c0,3.865-3.134,7-7,7
		c-1.438,0-2.773-0.435-3.886-1.179c-0.044,0.401-0.071,0.809-0.071,1.222c0,3.713,1.845,6.987,4.661,8.979
		c-1.653,1.907-2.661,4.389-2.661,7.111c0,5.983,4.836,10.836,10.813,10.865v0.003h1.188v-2h-0.721l-0.457-0.003
		c-4.864-0.023-8.822-4.001-8.822-8.865c0-4.89,3.978-8.868,8.867-8.868c0.15,0,0.299,0.012,0.447,0.022l0.148,0.01l1.314,0.085
		l0.597-1.175c2.225-4.372,6.644-7.089,11.532-7.089c6.062,0,11.382,4.298,12.649,10.219l0.318,1.483l1.514,0.094
		c3.708,0.23,6.612,3.319,6.612,7.03c0,3.878-3.144,7.035-7.017,7.057c-0.042-0.003-0.079-0.005-0.117-0.005l-1.866,0.005v2h1.819
		v-0.006c0.042,0.001,0.082,0.006,0.124,0.006c5.001,0,9.057-4.054,9.057-9.057C447.5-362.225,443.746-366.146,439.012-366.441z
		 M411.092-370.059c-0.241-0.016-0.48-0.036-0.725-0.036c-2.537,0-4.865,0.877-6.715,2.334c-2.012-1.294-3.486-3.354-3.976-5.776
		c0.582,0.117,1.178,0.177,1.78,0.177c4.963,0,9-4.037,9-9c0-0.603-0.06-1.198-0.177-1.78c3.733,0.753,6.629,3.824,7.134,7.64
		C414.701-375.057,412.486-372.802,411.092-370.059z"/>
	<polygon points="418.537,-349.339 418.537,-351.969 420.71,-350.746 421.396,-351.967 418.926,-353.356 421.396,-354.746 
		420.71,-355.967 418.537,-354.744 418.537,-357.339 416.537,-357.339 416.537,-354.7 414.286,-355.967 413.601,-354.746 
		416.07,-353.356 413.601,-351.967 414.286,-350.746 416.537,-352.013 416.537,-349.339 	"/>
	<polygon points="423.699,-344.984 421.526,-343.762 421.526,-346.356 419.526,-346.356 419.526,-343.718 417.275,-344.984 
		416.59,-343.764 419.06,-342.374 416.59,-340.984 417.275,-339.764 419.526,-341.03 419.526,-338.356 421.526,-338.356 
		421.526,-340.986 423.699,-339.764 424.385,-340.984 421.915,-342.374 424.385,-343.764 	"/>
	<polygon points="432.715,-351.967 430.542,-350.744 430.542,-353.339 428.542,-353.339 428.542,-350.7 426.291,-351.967 
		425.605,-350.746 428.075,-349.356 425.605,-347.967 426.291,-346.746 428.542,-348.013 428.542,-345.339 430.542,-345.339 
		430.542,-347.969 432.715,-346.746 433.4,-347.967 430.931,-349.356 433.4,-350.746 	"/>
</g>
<rect x="-177.347" y="-934.191" fill="none" width="472.974" height="180.918"/>
<text transform="matrix(1 0 0 1 2.2905 -862.7925)"><tspan x="0" y="0" font-family="'HelveticaNeueLTStd-Th'" font-size="100" letter-spacing="2">60</tspan><tspan x="-99.268" y="60" font-family="'HelveticaNeueLTStd-Lt'" font-size="48" letter-spacing="1">Weather Icons</tspan><tspan x="-3.726" y="104" font-family="'HelveticaNeueLTStd-Lt'" font-size="24">IOS 7 Style</tspan></text>
</svg>
