<?xml version="1.0" encoding="utf-8"?>
<!-- Generator: Adobe Illustrator 16.0.0, SVG Export Plug-In . SVG Version: 6.00 Build 0)  -->
<!DOCTYPE svg PUBLIC "-//W3C//DTD SVG 1.1//EN" "http://www.w3.org/Graphics/SVG/1.1/DTD/svg11.dtd">
<svg version="1.1" id="Layer_1" xmlns="http://www.w3.org/2000/svg" xmlns:xlink="http://www.w3.org/1999/xlink" x="0px" y="0px"
	 width="26px" height="26px" viewBox="0 0 26 26" enable-background="new 0 0 26 26" xml:space="preserve">
<path d="M529.587-195.026l-1.803,15.077l-0.268,2.237h2.254h6.896l-14.693,18.759l1.789-14.52l0.277-2.245h-2.262h-6.957
	L529.587-195.026 M532.441-202.051l-21.667,28.333h11.004l-2.671,21.667l21.667-27.661h-11.004L532.441-202.051L532.441-202.051z"/>
<path d="M116.552-657.287c6.79,0,12.749,4.814,14.171,11.448l0.318,1.483l1.514,0.094c4.203,0.262,7.496,3.763,7.496,7.971
	c0,4.396-3.565,7.977-7.957,8c-0.046-0.003-0.091-0.006-0.137-0.007l-2.043-0.036v0.043h-28.337l-0.578-0.003
	c-5.485-0.027-9.948-4.513-9.948-9.998c0-5.514,4.485-10,9.999-10c0.175,0,0.347,0.014,0.519,0.025l0.149,0.011l1.316,0.087
	l0.598-1.176C106.125-654.244,111.075-657.287,116.552-657.287 M116.552-659.287c-6.423,0-11.977,3.678-14.702,9.035
	c-0.266-0.018-0.53-0.04-0.8-0.04c-6.627,0-11.999,5.372-11.999,12c0,6.607,5.34,11.965,11.938,11.998v0.003h30.925v-0.007
	c0.046,0.001,0.091,0.007,0.137,0.007c5.521,0,10-4.477,10-10c0-5.311-4.145-9.642-9.372-9.967
	C131.083-653.703,124.472-659.287,116.552-659.287L116.552-659.287z"/>
<g>
	<path d="M239.503-638.876c-1.444-6.742-7.433-11.8-14.605-11.8c-2.185,0-4.258,0.47-6.127,1.313
		c-1.666-3.202-5.006-5.394-8.865-5.394c-5.522,0-10,4.477-10,9.999c0,2.46,0.898,4.702,2.373,6.442
		c-1.428,1.84-2.287,4.144-2.287,6.653c0,5.983,4.836,10.836,10.813,10.865v0.003h28.007v-0.006
		c0.042,0.001,0.082,0.006,0.124,0.006c5.001,0,9.057-4.054,9.057-9.057C247.991-634.659,244.237-638.581,239.503-638.876z
		 M209.905-652.756c3.092,0,5.76,1.773,7.092,4.345c-2.299,1.44-4.178,3.488-5.414,5.918c-0.241-0.016-0.48-0.036-0.725-0.036
		c-2.766,0-5.281,1.041-7.2,2.743c-1.092-1.366-1.753-3.09-1.753-4.971C201.905-649.167,205.494-652.756,209.905-652.756z
		 M238.975-622.793c-0.038-0.003-0.077-0.004-0.117-0.005l-2.047-0.042v0.047h-25.403l-0.594-0.003
		c-4.864-0.023-8.822-4.001-8.822-8.865c0-4.89,3.978-8.868,8.867-8.868c0.15,0,0.299,0.012,0.447,0.021l0.148,0.011l1.314,0.085
		l0.598-1.174c2.224-4.373,6.643-7.09,11.531-7.09c6.062,0,11.381,4.298,12.65,10.219l0.317,1.482l1.514,0.095
		c3.708,0.231,6.612,3.319,6.612,7.03C245.991-625.972,242.848-622.815,238.975-622.793z"/>
	<rect x="208.911" y="-664.786" width="2" height="7.973"/>
	<rect x="189.938" y="-645.8" width="7.973" height="2"/>
	<rect x="194.664" y="-657.018" transform="matrix(0.7071 0.7071 -0.7071 0.7071 -405.6915 -332.6111)" width="7.974" height="2"/>
	<rect x="220.173" y="-660" transform="matrix(0.7071 0.7071 -0.7071 0.7071 -399.0924 -348.5351)" width="2" height="7.972"/>
</g>
<path d="M335.246-642.903c-1.444-6.742-7.433-11.8-14.605-11.8c-1.799,0-3.521,0.32-5.118,0.904
	c-0.949-5.108-5.404-8.98-10.788-8.98c-0.413,0-0.819,0.027-1.222,0.071c0.744,1.112,1.179,2.448,1.179,3.886c0,3.865-3.134,7-7,7
	c-1.438,0-2.773-0.435-3.886-1.179c-0.044,0.401-0.071,0.809-0.071,1.222c0,3.712,1.845,6.987,4.661,8.979
	c-1.653,1.907-2.661,4.389-2.661,7.111c0,5.983,4.836,10.836,10.813,10.865v0.003h28.007v-0.006
	c0.042,0.001,0.082,0.006,0.124,0.006c5.001,0,9.057-4.054,9.057-9.057C343.734-638.687,339.98-642.608,335.246-642.903z
	 M295.911-649.999c0.582,0.117,1.178,0.177,1.78,0.177c4.963,0,9-4.037,9-9c0-0.603-0.06-1.198-0.177-1.78
	c3.733,0.753,6.629,3.824,7.134,7.64c-2.713,1.444-4.928,3.699-6.322,6.442c-0.241-0.016-0.48-0.036-0.725-0.036
	c-2.537,0-4.865,0.876-6.715,2.334C297.875-645.517,296.4-647.576,295.911-649.999z M334.718-626.82
	c-0.038-0.003-0.077-0.004-0.117-0.005l-2.047-0.042v0.047H307.15l-0.594-0.003c-4.864-0.023-8.822-4.001-8.822-8.865
	c0-4.89,3.978-8.868,8.867-8.868c0.15,0,0.299,0.012,0.447,0.021l0.148,0.011l1.314,0.085l0.598-1.174
	c2.224-4.373,6.643-7.09,11.531-7.09c6.062,0,11.381,4.298,12.65,10.219l0.317,1.482l1.514,0.095
	c3.708,0.231,6.612,3.319,6.612,7.03C341.734-629.999,338.591-626.843,334.718-626.82z"/>
<g>
	<rect x="419.892" y="-634.28" width="2" height="7"/>
	<rect x="427.892" y="-638.28" width="2" height="7"/>
	<rect x="411.892" y="-638.28" width="2" height="7"/>
	<rect x="419.892" y="-624.28" width="2" height="7"/>
	<rect x="427.892" y="-628.28" width="2" height="7"/>
	<rect x="411.892" y="-628.28" width="2" height="7"/>
	<path d="M438.52-651.269c-1.596-7.445-8.207-13.029-16.127-13.029c-6.423,0-11.977,3.678-14.702,9.035
		c-0.266-0.018-0.53-0.04-0.8-0.04c-6.627,0-11.999,5.372-11.999,12c0,6.607,5.34,11.965,11.938,11.998v0.003h2.062v-2h-1.604
		l-0.447-0.003c-5.485-0.027-9.948-4.513-9.948-9.998c0-5.514,4.485-10,9.999-10c0.175,0,0.347,0.014,0.52,0.025l0.148,0.01
		l1.316,0.088l0.598-1.176c2.492-4.899,7.443-7.942,12.92-7.942c6.79,0,12.75,4.814,14.172,11.448l0.317,1.482l1.514,0.095
		c4.203,0.262,7.496,3.763,7.496,7.971c0,4.397-3.565,7.977-7.957,8c-0.05-0.003-0.093-0.005-0.137-0.007l-2.043,0.007h-2.863v2
		h4.863v-0.007c0.046,0.001,0.091,0.007,0.137,0.007c5.521,0,10-4.477,10-10C447.892-646.612,443.747-650.943,438.52-651.269z"/>
</g>
<g>
	<path d="M236.093-561.911c-1.596-7.445-8.207-13.029-16.127-13.029c-6.423,0-11.977,3.678-14.702,9.035
		c-0.266-0.018-0.53-0.04-0.8-0.04c-6.627,0-11.999,5.372-11.999,12c0,6.607,5.34,11.965,11.938,11.998v0.003h2.062v-2h-1.604
		l-0.447-0.003c-5.485-0.027-9.948-4.513-9.948-9.998c0-5.514,4.485-10,9.999-10c0.175,0,0.347,0.014,0.52,0.025l0.148,0.01
		l1.316,0.088l0.598-1.176c2.492-4.899,7.443-7.942,12.92-7.942c6.79,0,12.75,4.814,14.172,11.448l0.317,1.482l1.514,0.095
		c4.203,0.262,7.496,3.763,7.496,7.971c0,4.397-3.565,7.977-7.957,8c-0.05-0.003-0.093-0.005-0.137-0.007l-2.043,0.007h-2.863v2
		h4.863v-0.007c0.046,0.001,0.091,0.007,0.137,0.007c5.521,0,10-4.477,10-10C245.465-557.255,241.32-561.586,236.093-561.911z"/>
	<polygon points="217.465,-534.916 217.465,-532.976 217.465,-526.916 219.465,-526.916 219.465,-532.976 219.465,-534.916 
		219.465,-546.916 217.465,-546.916 	"/>
	<polygon points="225.465,-538.916 225.465,-537.163 225.465,-530.916 227.465,-530.916 227.465,-537.163 227.465,-538.916 
		227.465,-550.916 225.465,-550.916 	"/>
	<polygon points="209.465,-538.916 209.465,-536.851 209.465,-530.916 211.465,-530.916 211.465,-536.851 211.465,-538.916 
		211.465,-550.916 209.465,-550.916 	"/>
</g>
<g>
	<polygon points="531.742,-538.005 524.859,-547.835 523.222,-546.688 530.104,-536.857 531.217,-535.269 534.692,-530.305 
		536.331,-531.451 532.855,-536.416 	"/>
	<polygon points="539.744,-538.007 532.859,-547.835 531.222,-546.687 538.107,-536.858 539.112,-535.423 542.696,-530.308 
		544.335,-531.454 540.751,-536.57 	"/>
	<polygon points="523.742,-538.005 516.859,-547.835 515.222,-546.687 522.104,-536.857 523.289,-535.165 526.693,-530.304 
		528.331,-531.451 524.928,-536.313 	"/>
	<path d="M542.85-561.645c-1.596-7.445-8.207-13.029-16.127-13.029c-6.423,0-11.977,3.678-14.702,9.035
		c-0.266-0.018-0.53-0.04-0.8-0.04c-6.627,0-11.999,5.372-11.999,12c0,6.607,5.34,11.965,11.938,11.998v0.003h2.062v-2h-1.604
		l-0.447-0.003c-5.485-0.027-9.948-4.513-9.948-9.998c0-5.514,4.485-10,9.999-10c0.175,0,0.347,0.014,0.52,0.025l0.148,0.01
		l1.316,0.088l0.598-1.176c2.492-4.899,7.443-7.942,12.92-7.942c6.79,0,12.75,4.814,14.172,11.448l0.317,1.482l1.514,0.095
		c4.203,0.262,7.496,3.763,7.496,7.971c0,4.397-3.565,7.977-7.957,8c-0.05-0.003-0.093-0.005-0.137-0.007l-1.043,0.007h0.137v2
		h0.863v-0.007c0.046,0.001,0.091,0.007,0.137,0.007c5.521,0,10-4.477,10-10C552.222-556.988,548.077-561.319,542.85-561.645z"/>
</g>
<g>
	<rect x="514.548" y="-670.727" width="2" height="7.973"/>
	<rect x="495.548" y="-651.813" width="7.973" height="2"/>
	<rect x="500.221" y="-663.079" transform="matrix(0.7071 0.7071 -0.7071 0.7071 -320.4815 -550.4474)" width="7.974" height="2"/>
	<rect x="525.73" y="-666.061" transform="matrix(0.7071 0.7071 -0.7071 0.7071 -313.8823 -566.3713)" width="2" height="7.972"/>
	<rect x="528.548" y="-629.854" width="2" height="7"/>
	<rect x="536.548" y="-633.854" width="2" height="7"/>
	<rect x="520.548" y="-633.854" width="2" height="7"/>
	<rect x="528.548" y="-619.854" width="2" height="7"/>
	<rect x="536.548" y="-623.854" width="2" height="7"/>
	<rect x="520.548" y="-623.854" width="2" height="7"/>
	<path d="M545.06-644.937c-1.444-6.742-7.433-11.8-14.605-11.8c-2.185,0-4.258,0.47-6.126,1.313
		c-1.667-3.202-5.007-5.394-8.866-5.394c-5.522,0-10,4.477-10,9.999c0,2.46,0.899,4.702,2.373,6.442
		c-1.429,1.84-2.287,4.144-2.287,6.653c0,5.983,4.836,10.836,10.813,10.865v0.003h1.188v-2h-0.721l-0.457-0.003
		c-4.864-0.023-8.822-4.001-8.822-8.865c0-4.89,3.978-8.868,8.867-8.868c0.15,0,0.299,0.012,0.447,0.022l0.148,0.01l1.314,0.085
		l0.597-1.175c2.225-4.372,6.644-7.089,11.532-7.089c6.062,0,11.382,4.298,12.649,10.219l0.318,1.483l1.514,0.094
		c3.708,0.23,6.612,3.319,6.612,7.03c0,3.878-3.144,7.035-7.017,7.057c-0.042-0.003-0.079-0.005-0.117-0.005l-2.047,0.005h-0.819v2
		h2.819v-0.006c0.042,0.001,0.082,0.006,0.124,0.006c5.001,0,9.057-4.054,9.057-9.057
		C553.548-640.72,549.794-644.642,545.06-644.937z M517.14-648.554c-0.241-0.016-0.48-0.036-0.725-0.036
		c-2.766,0-5.282,1.041-7.2,2.743c-1.092-1.366-1.753-3.09-1.753-4.971c0-4.41,3.589-7.999,8-7.999c3.091,0,5.76,1.773,7.091,4.345
		C520.255-653.031,518.375-650.983,517.14-648.554z"/>
</g>
<g>
	<rect x="628.965" y="-631.301" width="2" height="7"/>
	<rect x="636.965" y="-635.301" width="2" height="7"/>
	<rect x="620.965" y="-635.301" width="2" height="7"/>
	<rect x="628.965" y="-621.301" width="2" height="7"/>
	<rect x="636.965" y="-625.301" width="2" height="7"/>
	<rect x="620.965" y="-625.301" width="2" height="7"/>
	<path d="M645.477-646.384c-1.444-6.742-7.433-11.8-14.605-11.8c-1.799,0-3.522,0.32-5.118,0.904
		c-0.949-5.108-5.404-8.98-10.788-8.98c-0.413,0-0.819,0.027-1.222,0.071c0.744,1.112,1.179,2.448,1.179,3.886c0,3.865-3.134,7-7,7
		c-1.438,0-2.773-0.435-3.886-1.179c-0.044,0.401-0.071,0.809-0.071,1.222c0,3.712,1.845,6.987,4.661,8.979
		c-1.653,1.907-2.661,4.389-2.661,7.111c0,5.983,4.836,10.836,10.813,10.865v0.003h1.188v-2h-0.721l-0.457-0.003
		c-4.864-0.023-8.822-4.001-8.822-8.865c0-4.89,3.978-8.868,8.867-8.868c0.15,0,0.299,0.012,0.447,0.022l0.148,0.01l1.314,0.085
		l0.597-1.175c2.225-4.372,6.644-7.089,11.532-7.089c6.062,0,11.382,4.298,12.649,10.219l0.318,1.483l1.514,0.094
		c3.708,0.23,6.612,3.319,6.612,7.03c0,3.878-3.144,7.035-7.017,7.057c-0.042-0.003-0.079-0.005-0.117-0.005l-2.047,0.005h-0.819v2
		h2.819v-0.006c0.042,0.001,0.082,0.006,0.124,0.006c5.001,0,9.057-4.054,9.057-9.057
		C653.965-642.167,650.211-646.089,645.477-646.384z M617.557-650.001c-0.241-0.016-0.48-0.036-0.725-0.036
		c-2.537,0-4.865,0.876-6.715,2.334c-2.012-1.294-3.487-3.354-3.976-5.776c0.582,0.117,1.178,0.177,1.78,0.177c4.963,0,9-4.037,9-9
		c0-0.603-0.06-1.198-0.177-1.78c3.733,0.753,6.629,3.824,7.133,7.64C621.167-654.999,618.952-652.744,617.557-650.001z"/>
</g>
<g>
	<polygon points="321.734,-530.478 321.734,-528.537 321.734,-522.478 323.734,-522.478 323.734,-528.537 323.734,-530.478 
		323.734,-542.478 321.734,-542.478 	"/>
	<polygon points="329.734,-534.478 329.734,-532.725 329.734,-526.478 331.734,-526.478 331.734,-532.725 331.734,-534.478 
		331.734,-546.478 329.734,-546.478 	"/>
	<polygon points="313.734,-534.478 313.734,-532.412 313.734,-526.478 315.734,-526.478 315.734,-532.412 315.734,-534.478 
		315.734,-546.478 313.734,-546.478 	"/>
	<rect x="307.734" y="-581.38" width="2" height="7.973"/>
	<rect x="288.734" y="-562.466" width="7.973" height="2"/>
	<rect x="293.407" y="-573.732" transform="matrix(0.7071 0.7071 -0.7071 0.7071 -317.8781 -378.0391)" width="7.974" height="2"/>
	<rect x="318.916" y="-576.714" transform="matrix(0.7071 0.7071 -0.7071 0.7071 -311.279 -393.9631)" width="2" height="7.972"/>
	<path d="M338.246-555.59c-1.444-6.742-7.433-11.8-14.605-11.8c-2.185,0-4.258,0.47-6.127,1.313
		c-1.666-3.202-5.006-5.394-8.865-5.394c-5.522,0-10,4.477-10,9.999c0,2.46,0.898,4.702,2.373,6.442
		c-1.428,1.84-2.287,4.144-2.287,6.653c0,5.983,4.836,10.836,10.813,10.865v0.003h1.188v-2h-0.721l-0.457-0.003
		c-4.864-0.023-8.822-4.001-8.822-8.865c0-4.89,3.978-8.868,8.867-8.868c0.15,0,0.299,0.012,0.447,0.022l0.148,0.01l1.314,0.085
		l0.597-1.175c2.225-4.372,6.644-7.089,11.532-7.089c6.062,0,11.382,4.298,12.649,10.219l0.318,1.483l1.514,0.094
		c3.708,0.23,6.612,3.319,6.612,7.03c0,3.878-3.144,7.035-7.017,7.057c-0.042-0.003-0.079-0.005-0.117-0.005l-2.047,0.005h-0.819v2
		h2.819v-0.006c0.042,0.001,0.082,0.006,0.124,0.006c5.001,0,9.057-4.054,9.057-9.057
		C346.734-551.373,342.98-555.295,338.246-555.59z M310.326-559.207c-0.241-0.016-0.48-0.036-0.725-0.036
		c-2.766,0-5.281,1.042-7.2,2.743c-1.092-1.367-1.753-3.09-1.753-4.971c0-4.41,3.589-7.999,8-7.999c3.092,0,5.76,1.773,7.092,4.345
		C313.441-563.686,311.563-561.637,310.326-559.207z"/>
</g>
<g>
	<polygon points="422.132,-532.994 422.132,-531.054 422.132,-524.994 424.132,-524.994 424.132,-531.054 424.132,-532.994 
		424.132,-544.994 422.132,-544.994 	"/>
	<polygon points="430.132,-536.994 430.132,-535.241 430.132,-528.994 432.132,-528.994 432.132,-535.241 432.132,-536.994 
		432.132,-548.994 430.132,-548.994 	"/>
	<polygon points="414.132,-536.994 414.132,-534.929 414.132,-528.994 416.132,-528.994 416.132,-534.929 416.132,-536.994 
		416.132,-548.994 414.132,-548.994 	"/>
	<path d="M438.644-558.106c-1.444-6.742-7.433-11.8-14.605-11.8c-1.799,0-3.521,0.32-5.118,0.904
		c-0.949-5.108-5.404-8.98-10.788-8.98c-0.413,0-0.819,0.027-1.222,0.071c0.744,1.112,1.179,2.448,1.179,3.886c0,3.865-3.134,7-7,7
		c-1.438,0-2.773-0.435-3.886-1.179c-0.044,0.401-0.071,0.809-0.071,1.222c0,3.712,1.845,6.987,4.661,8.979
		c-1.653,1.907-2.661,4.389-2.661,7.111c0,5.983,4.836,10.836,10.813,10.865v0.003h1.188v-2h-0.721l-0.457-0.003
		c-4.864-0.023-8.822-4.001-8.822-8.865c0-4.89,3.978-8.868,8.867-8.868c0.15,0,0.299,0.012,0.447,0.022l0.148,0.01l1.314,0.085
		l0.597-1.175c2.225-4.372,6.644-7.089,11.532-7.089c6.062,0,11.382,4.298,12.649,10.219l0.318,1.483l1.514,0.094
		c3.708,0.23,6.612,3.319,6.612,7.03c0,3.878-3.144,7.035-7.017,7.057c-0.042-0.003-0.079-0.005-0.117-0.005l-2.047,0.005h-0.819v2
		h2.819v-0.006c0.042,0.001,0.082,0.006,0.124,0.006c5.001,0,9.057-4.054,9.057-9.057
		C447.132-553.89,443.378-557.812,438.644-558.106z M410.724-561.724c-0.241-0.016-0.48-0.036-0.725-0.036
		c-2.537,0-4.865,0.876-6.715,2.334c-2.012-1.294-3.486-3.354-3.976-5.776c0.582,0.117,1.178,0.177,1.78,0.177c4.963,0,9-4.037,9-9
		c0-0.603-0.06-1.198-0.177-1.78c3.733,0.753,6.629,3.824,7.134,7.641C414.333-566.722,412.118-564.466,410.724-561.724z"/>
</g>
<g>
	<polygon points="639.167,-532.05 632.284,-541.88 630.646,-540.732 637.529,-530.902 638.642,-529.313 642.117,-524.35 
		643.756,-525.496 640.28,-530.461 	"/>
	<polygon points="647.169,-532.052 640.284,-541.88 638.646,-540.731 645.532,-530.903 646.537,-529.468 650.121,-524.353 
		651.76,-525.499 648.176,-530.615 	"/>
	<polygon points="631.167,-532.05 624.284,-541.88 622.646,-540.731 629.529,-530.902 630.714,-529.21 634.118,-524.349 
		635.756,-525.496 632.353,-530.357 	"/>
	<rect x="618.646" y="-579.599" width="2" height="7.973"/>
	<rect x="599.646" y="-560.685" width="7.973" height="2"/>
	<rect x="604.32" y="-571.951" transform="matrix(0.7071 0.7071 -0.7071 0.7071 -225.5546 -597.3655)" width="7.974" height="2"/>
	<rect x="629.828" y="-574.933" transform="matrix(0.7071 0.7071 -0.7071 0.7071 -218.9554 -613.2894)" width="2" height="7.972"/>
	<path d="M649.158-553.809c-1.444-6.742-7.433-11.8-14.605-11.8c-2.185,0-4.258,0.47-6.126,1.313
		c-1.667-3.202-5.007-5.394-8.866-5.394c-5.522,0-10,4.477-10,9.999c0,2.46,0.899,4.702,2.373,6.442
		c-1.429,1.84-2.287,4.144-2.287,6.653c0,5.983,4.836,10.836,10.813,10.865v0.003h1.188v-2h-0.721l-0.457-0.003
		c-4.864-0.023-8.822-4.001-8.822-8.865c0-4.89,3.978-8.868,8.867-8.868c0.15,0,0.299,0.012,0.447,0.022l0.148,0.01l1.314,0.085
		l0.597-1.175c2.225-4.372,6.644-7.089,11.532-7.089c6.062,0,11.382,4.298,12.649,10.219l0.318,1.483l1.514,0.094
		c3.708,0.23,6.612,3.319,6.612,7.03c0,3.878-3.144,7.035-7.017,7.057c-0.042-0.003-0.079-0.005-0.117-0.005l-0.047,0.005h-0.819v2
		h0.819v-0.006c0.042,0.001,0.082,0.006,0.124,0.006c5.001,0,9.057-4.054,9.057-9.057
		C657.646-549.592,653.893-553.514,649.158-553.809z M621.238-557.426c-0.241-0.016-0.48-0.036-0.725-0.036
		c-2.766,0-5.282,1.042-7.2,2.743c-1.092-1.367-1.753-3.09-1.753-4.971c0-4.41,3.589-7.999,8-7.999c3.091,0,5.76,1.773,7.091,4.345
		C624.354-561.904,622.474-559.855,621.238-557.426z"/>
</g>
<g>
	<polygon points="-84.264,-435.564 -91.146,-445.395 -92.784,-444.247 -85.901,-434.417 -84.789,-432.828 -81.313,-427.864 
		-79.675,-429.011 -83.15,-433.976 	"/>
	<polygon points="-76.262,-435.566 -83.146,-445.395 -84.784,-444.246 -77.898,-434.418 -76.894,-432.982 -73.31,-427.867 
		-71.671,-429.014 -75.255,-434.13 	"/>
	<polygon points="-92.264,-435.564 -99.146,-445.395 -100.784,-444.246 -93.901,-434.417 -92.717,-432.725 -89.313,-427.863 
		-87.675,-429.011 -91.078,-433.872 	"/>
	<path d="M-74.272-457.323c-1.444-6.742-7.433-11.8-14.605-11.8c-1.799,0-3.522,0.32-5.118,0.904
		c-0.949-5.108-5.404-8.98-10.788-8.98c-0.413,0-0.819,0.027-1.222,0.071c0.744,1.112,1.179,2.448,1.179,3.886c0,3.865-3.134,7-7,7
		c-1.438,0-2.773-0.435-3.886-1.179c-0.044,0.401-0.071,0.809-0.071,1.222c0,3.712,1.845,6.987,4.661,8.979
		c-1.653,1.907-2.661,4.389-2.661,7.111c0,5.983,4.836,10.836,10.813,10.865v0.003h1.188v-2h-0.721l-0.457-0.003
		c-4.864-0.023-8.822-4.001-8.822-8.865c0-4.89,3.978-8.868,8.867-8.868c0.15,0,0.299,0.012,0.447,0.022l0.148,0.01l1.314,0.085
		l0.597-1.175c2.225-4.372,6.644-7.089,11.532-7.089c6.062,0,11.382,4.298,12.649,10.219l0.318,1.483l1.514,0.094
		c3.708,0.23,6.612,3.319,6.612,7.03c0,3.878-3.144,7.035-7.017,7.057c-0.042-0.003-0.079-0.005-0.117-0.005l-0.047,0.005h-0.819v2
		h0.819v-0.006c0.042,0.001,0.082,0.006,0.124,0.006c5.001,0,9.057-4.054,9.057-9.057
		C-65.784-453.106-69.538-457.028-74.272-457.323z M-102.192-460.94c-0.241-0.016-0.48-0.036-0.725-0.036
		c-2.537,0-4.865,0.876-6.715,2.334c-2.012-1.294-3.487-3.354-3.976-5.776c0.582,0.117,1.178,0.177,1.78,0.177c4.963,0,9-4.037,9-9
		c0-0.603-0.06-1.198-0.177-1.78c3.733,0.753,6.629,3.824,7.133,7.641C-98.582-465.938-100.797-463.683-102.192-460.94z"/>
</g>
<g>
	<rect x="-91.784" y="-539.411" width="2" height="4"/>
	<rect x="-83.784" y="-543.433" width="2" height="4.021"/>
	<rect x="-99.784" y="-543.433" width="2" height="4.021"/>
	<path d="M-73.156-559.399c-1.596-7.445-8.207-13.029-16.127-13.029c-6.423,0-11.977,3.678-14.702,9.035
		c-0.266-0.018-0.53-0.04-0.8-0.04c-6.627,0-11.999,5.372-11.999,12c0,6.607,5.34,11.965,11.938,11.998v0.003h2.062v-2h-1.604
		l-0.447-0.003c-5.485-0.027-9.948-4.513-9.948-9.998c0-5.514,4.485-10,9.999-10c0.175,0,0.347,0.014,0.52,0.025l0.148,0.01
		l1.316,0.088l0.598-1.176c2.492-4.899,7.443-7.942,12.92-7.942c6.79,0,12.75,4.814,14.172,11.448l0.317,1.482l1.514,0.095
		c4.203,0.262,7.496,3.763,7.496,7.971c0,4.397-3.565,7.977-7.957,8c-0.05-0.003-0.093-0.005-0.137-0.007l-2.043,0.007h-2.863v2
		h4.863v-0.007c0.046,0.001,0.091,0.007,0.137,0.007c5.521,0,10-4.477,10-10C-63.784-554.743-67.929-559.074-73.156-559.399z"/>
	<circle cx="-82.784" cy="-534.391" r="1.5"/>
	<circle cx="-90.784" cy="-530.422" r="1.5"/>
	<circle cx="-98.784" cy="-534.433" r="1.5"/>
</g>
<g>
	<rect x="1.137" y="-578.865" width="2" height="7.973"/>
	<rect x="-17.863" y="-559.951" width="7.973" height="2"/>
	<rect x="-13.19" y="-571.218" transform="matrix(0.7071 0.7071 -0.7071 0.7071 -405.9004 -160.5053)" width="7.974" height="2"/>
	<rect x="12.318" y="-574.2" transform="matrix(0.7071 0.7071 -0.7071 0.7071 -399.3012 -176.4293)" width="2" height="7.972"/>
	<path d="M31.648-553.075c-1.444-6.742-7.433-11.8-14.605-11.8c-2.185,0-4.258,0.47-6.126,1.313
		c-1.667-3.202-5.007-5.394-8.866-5.394c-5.522,0-10,4.477-10,9.999c0,2.46,0.899,4.702,2.373,6.442
		c-1.429,1.84-2.287,4.144-2.287,6.653c0,5.983,4.836,10.836,10.813,10.865v0.003h1.188v-2H3.416l-0.457-0.003
		c-4.864-0.023-8.822-4.001-8.822-8.865c0-4.89,3.978-8.868,8.867-8.868c0.15,0,0.299,0.012,0.447,0.022l0.148,0.01l1.314,0.085
		l0.597-1.175c2.225-4.372,6.644-7.089,11.532-7.089c6.062,0,11.382,4.298,12.649,10.219l0.318,1.483l1.514,0.094
		c3.708,0.23,6.612,3.319,6.612,7.03c0,3.878-3.144,7.035-7.017,7.057c-0.042-0.003-0.079-0.005-0.117-0.005l-2.047,0.005h-0.819v2
		h2.819v-0.006c0.042,0.001,0.082,0.006,0.124,0.006c5.001,0,9.057-4.054,9.057-9.057C40.137-548.858,36.383-552.78,31.648-553.075z
		 M3.729-556.692c-0.241-0.016-0.48-0.036-0.725-0.036c-2.766,0-5.282,1.042-7.2,2.743c-1.092-1.367-1.753-3.09-1.753-4.971
		c0-4.41,3.589-7.999,8-7.999c3.091,0,5.76,1.773,7.091,4.345C6.844-561.171,4.964-559.122,3.729-556.692z"/>
	<rect x="15.137" y="-534.977" width="2" height="4"/>
	<rect x="23.137" y="-538.998" width="2" height="4.021"/>
	<rect x="7.137" y="-538.998" width="2" height="4.021"/>
	<circle cx="24.137" cy="-529.956" r="1.5"/>
	<circle cx="16.137" cy="-525.987" r="1.5"/>
	<circle cx="8.137" cy="-529.998" r="1.5"/>
</g>
<g>
	<path d="M132.574-554.032c-1.444-6.742-7.433-11.8-14.605-11.8c-1.799,0-3.522,0.32-5.118,0.904
		c-0.949-5.108-5.404-8.98-10.788-8.98c-0.413,0-0.819,0.027-1.222,0.071c0.744,1.112,1.179,2.448,1.179,3.886c0,3.865-3.134,7-7,7
		c-1.438,0-2.773-0.435-3.886-1.179c-0.044,0.401-0.071,0.809-0.071,1.222c0,3.712,1.845,6.987,4.661,8.979
		c-1.653,1.907-2.661,4.389-2.661,7.111c0,5.983,4.836,10.836,10.813,10.865v0.003h1.188v-2h-0.721l-0.457-0.003
		c-4.864-0.023-8.822-4.001-8.822-8.865c0-4.89,3.978-8.868,8.867-8.868c0.15,0,0.299,0.012,0.447,0.022l0.148,0.01l1.314,0.085
		l0.597-1.175c2.225-4.372,6.644-7.089,11.532-7.089c6.062,0,11.382,4.298,12.649,10.219l0.318,1.483l1.514,0.094
		c3.708,0.23,6.612,3.319,6.612,7.03c0,3.878-3.144,7.035-7.017,7.057c-0.042-0.003-0.079-0.005-0.117-0.005l-2.047,0.005h-0.819v2
		h2.819v-0.006c0.042,0.001,0.082,0.006,0.124,0.006c5.001,0,9.057-4.054,9.057-9.057
		C141.063-549.815,137.309-553.737,132.574-554.032z M104.654-557.649c-0.241-0.016-0.48-0.036-0.725-0.036
		c-2.537,0-4.865,0.876-6.715,2.334c-2.012-1.294-3.487-3.354-3.976-5.776c0.582,0.117,1.178,0.177,1.78,0.177c4.963,0,9-4.037,9-9
		c0-0.603-0.06-1.198-0.177-1.78c3.733,0.753,6.629,3.824,7.133,7.641C108.265-562.647,106.05-560.392,104.654-557.649z"/>
	<rect x="116.063" y="-535.934" width="2" height="4"/>
	<rect x="124.063" y="-539.955" width="2" height="4.021"/>
	<rect x="108.063" y="-539.955" width="2" height="4.021"/>
	<circle cx="125.063" cy="-530.913" r="1.5"/>
	<circle cx="117.063" cy="-526.944" r="1.5"/>
	<circle cx="109.063" cy="-530.955" r="1.5"/>
</g>
<g>
	<path d="M29.265-461.002c-1.596-7.445-8.207-13.029-16.127-13.029c-6.423,0-11.977,3.678-14.702,9.035
		c-0.266-0.018-0.53-0.04-0.8-0.04c-6.627,0-11.999,5.372-11.999,12c0,6.607,5.34,11.965,11.938,11.998v0.003h6.062v-2h-5.604
		l-0.447-0.003c-5.485-0.027-9.948-4.513-9.948-9.998c0-5.514,4.485-10,9.999-10c0.175,0,0.347,0.014,0.52,0.025l0.148,0.01
		l1.316,0.088l0.598-1.176c2.492-4.899,7.443-7.942,12.92-7.942c6.79,0,12.75,4.814,14.172,11.448l0.317,1.482l1.514,0.095
		c4.203,0.262,7.496,3.763,7.496,7.971c0,4.397-3.565,7.977-7.957,8c-0.05-0.003-0.093-0.005-0.137-0.007l-5.043,0.007h0.137v2H28.5
		v-0.007c0.046,0.001,0.091,0.007,0.137,0.007c5.521,0,10-4.477,10-10C38.637-456.346,34.492-460.677,29.265-461.002z"/>
	<polygon points="13.479,-441.031 15.248,-441.031 15.679,-441.031 17.688,-441.031 11.274,-450.192 9.637,-449.045 
		13.848,-443.031 12.077,-443.031 9.637,-443.031 10.908,-441.215 12.021,-439.626 17.998,-431.031 19.637,-432.178 
		13.659,-440.773 	"/>
</g>
<g>
	<rect x="105.063" y="-480.132" width="2" height="7.973"/>
	<rect x="86.063" y="-461.218" width="7.973" height="2"/>
	<rect x="90.736" y="-472.484" transform="matrix(0.7071 0.7071 -0.7071 0.7071 -305.6462 -205.0736)" width="7.974" height="2"/>
	<rect x="116.244" y="-475.466" transform="matrix(0.7071 0.7071 -0.7071 0.7071 -299.047 -220.9976)" width="2" height="7.972"/>
	<path d="M135.574-454.342c-1.444-6.742-7.433-11.8-14.605-11.8c-2.185,0-4.258,0.47-6.127,1.313
		c-1.666-3.202-5.006-5.394-8.865-5.394c-5.522,0-10,4.477-10,9.999c0,2.46,0.898,4.702,2.373,6.442
		c-1.428,1.84-2.287,4.144-2.287,6.653c0,5.983,4.836,10.836,10.813,10.865v0.003h4.188v-2h-3.721l-0.457-0.003
		c-4.864-0.023-8.822-4.001-8.822-8.865c0-4.89,3.978-8.868,8.867-8.868c0.15,0,0.299,0.012,0.447,0.022l0.148,0.01l1.314,0.085
		l0.597-1.175c2.225-4.372,6.644-7.089,11.532-7.089c6.062,0,11.382,4.298,12.649,10.219l0.318,1.483l1.514,0.094
		c3.708,0.23,6.612,3.319,6.612,7.03c0,3.878-3.144,7.035-7.017,7.057c-0.042-0.003-0.079-0.005-0.117-0.005l-2.047,0.005h-3.819v2
		h5.819v-0.006c0.042,0.001,0.082,0.006,0.124,0.006c5.001,0,9.057-4.054,9.057-9.057
		C144.063-450.125,140.309-454.047,135.574-454.342z M107.654-457.959c-0.241-0.016-0.48-0.036-0.725-0.036
		c-2.766,0-5.281,1.041-7.2,2.743c-1.092-1.366-1.753-3.09-1.753-4.971c0-4.41,3.589-7.999,8-7.999c3.092,0,5.76,1.773,7.092,4.345
		C110.77-462.437,108.891-460.389,107.654-457.959z"/>
	<polygon points="119.904,-436.252 121.674,-436.252 122.104,-436.252 124.114,-436.252 117.7,-445.413 116.063,-444.266 
		120.273,-438.252 118.503,-438.252 116.063,-438.252 117.334,-436.436 118.446,-434.847 124.424,-426.252 126.063,-427.398 
		120.085,-435.994 	"/>
</g>
<g>
	<path d="M235.159-456.638c-1.444-6.742-7.433-11.8-14.605-11.8c-1.799,0-3.521,0.32-5.118,0.904
		c-0.949-5.108-5.404-8.98-10.788-8.98c-0.413,0-0.819,0.027-1.222,0.071c0.744,1.112,1.179,2.448,1.179,3.886c0,3.865-3.134,7-7,7
		c-1.438,0-2.773-0.435-3.886-1.179c-0.044,0.401-0.071,0.809-0.071,1.222c0,3.712,1.845,6.987,4.661,8.979
		c-1.653,1.907-2.661,4.389-2.661,7.111c0,5.983,4.836,10.836,10.813,10.865v0.003h4.188v-2h-3.721l-0.457-0.003
		c-4.864-0.023-8.822-4.001-8.822-8.865c0-4.89,3.978-8.868,8.867-8.868c0.15,0,0.299,0.012,0.447,0.022l0.148,0.01l1.314,0.085
		l0.597-1.175c2.225-4.372,6.644-7.089,11.532-7.089c6.062,0,11.382,4.298,12.649,10.219l0.318,1.483l1.514,0.094
		c3.708,0.23,6.612,3.319,6.612,7.03c0,3.878-3.144,7.035-7.017,7.057c-0.042-0.003-0.079-0.005-0.117-0.005l-2.047,0.005h-3.819v2
		h5.819v-0.006c0.042,0.001,0.082,0.006,0.124,0.006c5.001,0,9.057-4.054,9.057-9.057
		C243.647-452.421,239.894-456.343,235.159-456.638z M207.239-460.255c-0.241-0.016-0.48-0.036-0.725-0.036
		c-2.537,0-4.865,0.876-6.715,2.334c-2.012-1.294-3.486-3.354-3.976-5.776c0.582,0.117,1.178,0.177,1.78,0.177c4.963,0,9-4.037,9-9
		c0-0.603-0.06-1.198-0.177-1.78c3.733,0.753,6.629,3.824,7.134,7.64C210.849-465.253,208.634-462.998,207.239-460.255z"/>
	<polygon points="219.489,-438.548 221.259,-438.548 221.689,-438.548 223.699,-438.548 217.285,-447.709 215.647,-446.562 
		219.858,-440.548 218.088,-440.548 215.647,-440.548 216.919,-438.731 218.031,-437.143 224.009,-428.548 225.647,-429.694 
		219.67,-438.29 	"/>
</g>
<g>
	<path d="M336.044-460.502c-1.596-7.445-8.207-13.029-16.127-13.029c-6.423,0-11.977,3.678-14.702,9.035
		c-0.266-0.018-0.53-0.04-0.8-0.04c-6.627,0-11.999,5.372-11.999,12c0,6.607,5.34,11.965,11.938,11.998v0.003h1.062v-2h-0.604
		l-0.447-0.003c-5.485-0.027-9.948-4.513-9.948-9.998c0-5.514,4.485-10,9.999-10c0.175,0,0.347,0.014,0.52,0.025l0.148,0.01
		l1.316,0.088l0.598-1.176c2.492-4.899,7.443-7.942,12.92-7.942c6.79,0,12.75,4.814,14.172,11.448l0.317,1.482l1.514,0.095
		c4.203,0.262,7.496,3.763,7.496,7.971c0,4.397-3.565,7.977-7.957,8c-0.05-0.003-0.093-0.005-0.137-0.007l-0.906,0.007v2h0.863
		v-0.007c0.046,0.001,0.091,0.007,0.137,0.007c5.521,0,10-4.477,10-10C345.416-455.846,341.271-460.177,336.044-460.502z"/>
	
		<rect x="304.85" y="-442.537" transform="matrix(-0.5736 -0.8191 0.8191 -0.5736 850.1906 -440.5347)" width="11.183" height="1.999"/>
	
		<rect x="322.825" y="-442.537" transform="matrix(-0.5736 -0.8191 0.8191 -0.5736 878.4761 -425.8116)" width="11.183" height="1.999"/>
	<polygon points="321.258,-437.531 323.027,-437.531 323.458,-437.531 325.468,-437.531 319.054,-446.692 317.416,-445.545 
		321.627,-439.531 319.856,-439.531 317.416,-439.531 318.688,-437.715 319.8,-436.126 324.416,-429.531 326.055,-430.678 
		321.438,-437.273 	"/>
</g>
<g>
	<rect x="410.892" y="-479.969" width="2" height="7.973"/>
	<rect x="391.892" y="-461.055" width="7.973" height="2"/>
	<rect x="396.565" y="-472.321" transform="matrix(0.7071 0.7071 -0.7071 0.7071 -215.9556 -421.2797)" width="7.974" height="2"/>
	<rect x="422.073" y="-475.303" transform="matrix(0.7071 0.7071 -0.7071 0.7071 -209.3564 -437.2036)" width="2" height="7.972"/>
	<path d="M441.403-454.179c-1.444-6.742-7.433-11.8-14.605-11.8c-2.185,0-4.258,0.47-6.126,1.313
		c-1.667-3.202-5.007-5.394-8.866-5.394c-5.522,0-10,4.477-10,9.999c0,2.46,0.899,4.702,2.373,6.442
		c-1.429,1.84-2.287,4.144-2.287,6.653c0,5.983,4.836,10.836,10.813,10.865v0.003h0.188v-2l-0.178-0.003
		c-4.864-0.023-8.822-4.001-8.822-8.865c0-4.89,3.978-8.868,8.867-8.868c0.15,0,0.299,0.012,0.447,0.022l0.148,0.01l1.314,0.085
		l0.597-1.175c2.225-4.372,6.644-7.089,11.532-7.089c6.062,0,11.382,4.298,12.649,10.219l0.318,1.483l1.514,0.094
		c3.708,0.23,6.612,3.319,6.612,7.03c0,3.878-3.144,7.035-7.017,7.057c-0.042-0.003-0.079-0.005-0.117-0.005l-0.866,0.005v2h0.819
		v-0.006c0.042,0.001,0.082,0.006,0.124,0.006c5.001,0,9.057-4.054,9.057-9.057C449.892-449.962,446.138-453.884,441.403-454.179z
		 M413.483-457.796c-0.241-0.016-0.48-0.036-0.725-0.036c-2.766,0-5.282,1.042-7.2,2.743c-1.092-1.367-1.753-3.09-1.753-4.971
		c0-4.41,3.589-7.999,8-7.999c3.091,0,5.76,1.773,7.091,4.345C416.599-462.274,414.719-460.226,413.483-457.796z"/>
	
		<rect x="411.313" y="-438.099" transform="matrix(-0.5736 -0.8191 0.8191 -0.5736 1014.0891 -346.3455)" width="11.183" height="1.999"/>
	
		<rect x="429.288" y="-438.099" transform="matrix(-0.5736 -0.8191 0.8191 -0.5736 1042.3745 -331.6223)" width="11.183" height="1.999"/>
	<polygon points="427.721,-433.093 429.49,-433.093 429.921,-433.093 431.931,-433.093 425.517,-442.254 423.879,-441.106 
		428.09,-435.093 426.319,-435.093 423.879,-435.093 425.15,-433.276 426.263,-431.688 430.879,-425.093 432.518,-426.239 
		427.901,-432.835 	"/>
</g>
<g>
	<path d="M543.241-457.137c-1.444-6.742-7.433-11.8-14.605-11.8c-1.799,0-3.522,0.32-5.118,0.904
		c-0.949-5.108-5.404-8.98-10.788-8.98c-0.413,0-0.819,0.027-1.222,0.071c0.744,1.112,1.179,2.448,1.179,3.886c0,3.865-3.134,7-7,7
		c-1.438,0-2.773-0.435-3.886-1.179c-0.044,0.401-0.071,0.809-0.071,1.222c0,3.712,1.845,6.987,4.661,8.979
		c-1.653,1.907-2.661,4.389-2.661,7.111c0,5.983,4.836,10.836,10.813,10.865v0.003h0.188v-2l-0.178-0.003
		c-4.864-0.023-8.822-4.001-8.822-8.865c0-4.89,3.978-8.868,8.867-8.868c0.15,0,0.299,0.012,0.447,0.022l0.148,0.01l1.314,0.085
		l0.597-1.175c2.225-4.372,6.644-7.089,11.532-7.089c6.062,0,11.382,4.298,12.649,10.219l0.318,1.483l1.514,0.094
		c3.708,0.23,6.612,3.319,6.612,7.03c0,3.878-3.144,7.035-7.017,7.057c-0.042-0.003-0.079-0.005-0.117-0.005l-0.866,0.005v2h0.819
		v-0.006c0.042,0.001,0.082,0.006,0.124,0.006c5.001,0,9.057-4.054,9.057-9.057C551.729-452.92,547.976-456.842,543.241-457.137z
		 M515.321-460.754c-0.241-0.016-0.48-0.036-0.725-0.036c-2.537,0-4.865,0.876-6.715,2.334c-2.012-1.294-3.487-3.354-3.976-5.776
		c0.582,0.117,1.178,0.177,1.78,0.177c4.963,0,9-4.037,9-9c0-0.603-0.06-1.198-0.177-1.78c3.733,0.753,6.629,3.824,7.133,7.641
		C518.932-465.752,516.717-463.496,515.321-460.754z"/>
	
		<rect x="513.15" y="-441.057" transform="matrix(-0.5736 -0.8191 0.8191 -0.5736 1176.7664 -267.5848)" width="11.183" height="1.999"/>
	
		<rect x="531.125" y="-441.057" transform="matrix(-0.5736 -0.8191 0.8191 -0.5736 1205.052 -252.8617)" width="11.183" height="1.999"/>
	<polygon points="529.558,-436.051 531.327,-436.051 531.758,-436.051 533.768,-436.051 527.354,-445.212 525.716,-444.064 
		529.927,-438.051 528.156,-438.051 525.716,-438.051 526.987,-436.234 528.1,-434.646 532.716,-428.051 534.354,-429.197 
		529.738,-435.793 	"/>
</g>
<g>
	<g>
		<path d="M132.679-370.682c-1.596-7.445-8.207-13.029-16.127-13.029c-6.423,0-11.977,3.678-14.702,9.035
			c-0.266-0.018-0.53-0.04-0.8-0.04c-6.627,0-11.999,5.372-11.999,12c0,6.607,5.34,11.965,11.938,11.998v0.003h2.062v-2h-1.604
			l-0.447-0.003c-5.485-0.027-9.948-4.513-9.948-9.998c0-5.514,4.485-10,9.999-10c0.175,0,0.347,0.014,0.52,0.025l0.148,0.01
			l1.316,0.088l0.598-1.176c2.492-4.899,7.443-7.942,12.92-7.942c6.79,0,12.75,4.814,14.172,11.448l0.317,1.482l1.514,0.095
			c4.203,0.262,7.496,3.763,7.496,7.971c0,4.397-3.565,7.977-7.957,8c-0.05-0.003-0.093-0.005-0.137-0.007l-2.043,0.007h-2.863v2
			h4.863v-0.007c0.046,0.001,0.091,0.007,0.137,0.007c5.521,0,10-4.477,10-10C142.051-366.025,137.906-370.356,132.679-370.682z"/>
	</g>
	<g>
		<circle cx="107.551" cy="-357.139" r="1.5"/>
	</g>
	<g>
		<circle cx="111.551" cy="-351.215" r="1.5"/>
	</g>
	<g>
		<circle cx="119.551" cy="-351.215" r="1.5"/>
	</g>
	<g>
		<circle cx="115.551" cy="-357.139" r="1.5"/>
	</g>
	<g>
		<circle cx="123.551" cy="-357.139" r="1.5"/>
	</g>
	<g>
		<circle cx="107.551" cy="-345.193" r="1.5"/>
	</g>
	<g>
		<circle cx="115.551" cy="-345.193" r="1.5"/>
	</g>
	<g>
		<circle cx="123.551" cy="-345.193" r="1.5"/>
	</g>
</g>
<g>
	<g>
		<rect x="208.465" y="-386.159" width="2" height="7.973"/>
	</g>
	<g>
		<rect x="189.465" y="-367.245" width="7.973" height="2"/>
	</g>
	<g>
		<rect x="194.138" y="-378.512" transform="matrix(0.7071 0.7071 -0.7071 0.7071 -208.9116 -250.6662)" width="7.974" height="2"/>
	</g>
	<g>
		<rect x="219.647" y="-381.494" transform="matrix(0.7071 0.7071 -0.7071 0.7071 -202.3125 -266.5901)" width="2" height="7.972"/>
	</g>
	<g>
		<path d="M238.977-360.369c-1.444-6.742-7.433-11.8-14.605-11.8c-2.185,0-4.258,0.47-6.127,1.313
			c-1.666-3.202-5.006-5.394-8.865-5.394c-5.522,0-10,4.477-10,9.999c0,2.46,0.898,4.702,2.373,6.442
			c-1.428,1.84-2.287,4.144-2.287,6.653c0,5.983,4.836,10.836,10.813,10.865v0.003h1.188v-2h-0.721l-0.457-0.003
			c-4.864-0.023-8.822-4.001-8.822-8.865c0-4.89,3.978-8.868,8.867-8.868c0.15,0,0.299,0.012,0.447,0.022l0.148,0.01l1.314,0.085
			l0.597-1.175c2.225-4.372,6.644-7.089,11.532-7.089c6.062,0,11.382,4.298,12.649,10.219l0.318,1.483l1.514,0.094
			c3.708,0.23,6.612,3.319,6.612,7.03c0,3.878-3.144,7.035-7.017,7.057c-0.042-0.003-0.079-0.005-0.117-0.005l-2.047,0.005h-1.819v2
			h3.819v-0.006c0.042,0.001,0.082,0.006,0.124,0.006c5.001,0,9.057-4.054,9.057-9.057
			C247.465-356.152,243.711-360.074,238.977-360.369z M211.057-363.986c-0.241-0.016-0.48-0.036-0.725-0.036
			c-2.766,0-5.281,1.042-7.2,2.743c-1.092-1.367-1.753-3.09-1.753-4.971c0-4.41,3.589-7.999,8-7.999c3.092,0,5.76,1.773,7.092,4.345
			C214.172-368.465,212.293-366.416,211.057-363.986z"/>
	</g>
	<g>
		<circle cx="214.954" cy="-348.775" r="1.5"/>
	</g>
	<g>
		<circle cx="218.954" cy="-342.775" r="1.5"/>
	</g>
	<g>
		<circle cx="226.954" cy="-342.775" r="1.5"/>
	</g>
	<g>
		<circle cx="222.954" cy="-348.775" r="1.5"/>
	</g>
	<g>
		<circle cx="230.954" cy="-348.775" r="1.5"/>
	</g>
	<g>
		<circle cx="214.954" cy="-336.754" r="1.5"/>
	</g>
	<g>
		<circle cx="222.954" cy="-336.754" r="1.5"/>
	</g>
	<g>
		<circle cx="230.954" cy="-336.754" r="1.5"/>
	</g>
</g>
<g>
	<g>
		<path d="M334.928-364.325c-1.444-6.742-7.433-11.8-14.605-11.8c-1.799,0-3.521,0.32-5.118,0.904
			c-0.949-5.108-5.404-8.98-10.788-8.98c-0.413,0-0.819,0.027-1.222,0.071c0.744,1.112,1.179,2.448,1.179,3.886c0,3.865-3.134,7-7,7
			c-1.438,0-2.773-0.435-3.886-1.179c-0.044,0.401-0.071,0.809-0.071,1.222c0,3.712,1.845,6.987,4.661,8.979
			c-1.653,1.907-2.661,4.389-2.661,7.111c0,5.983,4.836,10.836,10.813,10.865v0.003h1.188v-2h-0.721l-0.457-0.003
			c-4.864-0.023-8.822-4.001-8.822-8.865c0-4.89,3.978-8.868,8.867-8.868c0.15,0,0.299,0.012,0.447,0.022l0.148,0.01l1.314,0.085
			l0.597-1.175c2.225-4.372,6.644-7.089,11.532-7.089c6.062,0,11.382,4.298,12.649,10.219l0.318,1.483l1.514,0.094
			c3.708,0.23,6.612,3.319,6.612,7.03c0,3.878-3.144,7.035-7.017,7.057c-0.042-0.003-0.079-0.005-0.117-0.005l-2.047,0.005h-1.819v2
			h3.819v-0.006c0.042,0.001,0.082,0.006,0.124,0.006c5.001,0,9.057-4.054,9.057-9.057
			C343.416-360.108,339.662-364.03,334.928-364.325z M307.008-367.942c-0.241-0.016-0.48-0.036-0.725-0.036
			c-2.537,0-4.865,0.876-6.715,2.334c-2.012-1.294-3.486-3.354-3.976-5.776c0.582,0.117,1.178,0.177,1.78,0.177c4.963,0,9-4.037,9-9
			c0-0.603-0.06-1.198-0.177-1.78c3.733,0.753,6.629,3.824,7.134,7.64C310.617-372.94,308.402-370.686,307.008-367.942z"/>
	</g>
	<g>
		<circle cx="310.916" cy="-352.732" r="1.5"/>
	</g>
	<g>
		<circle cx="314.916" cy="-346.732" r="1.5"/>
	</g>
	<g>
		<circle cx="322.916" cy="-346.732" r="1.5"/>
	</g>
	<g>
		<circle cx="318.916" cy="-352.732" r="1.5"/>
	</g>
	<g>
		<circle cx="326.916" cy="-352.732" r="1.5"/>
	</g>
	<g>
		<circle cx="310.916" cy="-340.711" r="1.5"/>
	</g>
	<g>
		<circle cx="318.916" cy="-340.711" r="1.5"/>
	</g>
	<g>
		<circle cx="326.916" cy="-340.711" r="1.5"/>
	</g>
</g>
<g>
	<path d="M646.093-463.211c-1.596-7.445-8.207-13.029-16.127-13.029c-6.423,0-11.977,3.678-14.702,9.035
		c-0.266-0.018-0.53-0.04-0.8-0.04c-6.627,0-11.999,5.372-11.999,12c0,6.607,5.34,11.965,11.938,11.998v0.003h2.062v-2h-1.604
		l-0.447-0.003c-5.485-0.027-9.948-4.513-9.948-9.998c0-5.514,4.485-10,9.999-10c0.175,0,0.347,0.014,0.52,0.025l0.148,0.01
		l1.316,0.088l0.598-1.176c2.492-4.899,7.443-7.942,12.92-7.942c6.79,0,12.75,4.814,14.172,11.448l0.317,1.482l1.514,0.095
		c4.203,0.262,7.496,3.763,7.496,7.971c0,4.397-3.565,7.977-7.957,8c-0.05-0.003-0.093-0.005-0.137-0.007l-2.043,0.007h-2.863v2
		h4.863v-0.007c0.046,0.001,0.091,0.007,0.137,0.007c5.521,0,10-4.477,10-10C655.465-458.555,651.32-462.886,646.093-463.211z"/>
	<circle cx="620.465" cy="-435.74" r="1.5"/>
	<circle cx="628.465" cy="-429.74" r="1.5"/>
	<circle cx="636.465" cy="-433.74" r="1.5"/>
	<rect x="619.465" y="-452.216" width="2" height="11.976"/>
	<polygon points="629.465,-434.275 629.465,-436.216 629.465,-448.216 627.465,-448.216 627.465,-436.216 627.465,-434.275 
		627.465,-434.24 629.465,-434.24 	"/>
	<polygon points="637.465,-438.463 637.465,-440.216 637.465,-452.216 635.465,-452.216 635.465,-440.216 635.465,-438.463 
		635.465,-438.24 637.465,-438.24 	"/>
</g>
<g>
	<rect x="-102.284" y="-391.598" width="2" height="7.973"/>
	<rect x="-121.284" y="-372.684" width="7.973" height="2"/>
	<rect x="-116.611" y="-383.95" transform="matrix(0.7071 0.7071 -0.7071 0.7071 -303.7735 -32.5263)" width="7.974" height="2"/>
	<rect x="-91.102" y="-386.932" transform="matrix(0.7071 0.7071 -0.7071 0.7071 -297.1743 -48.4503)" width="2" height="7.972"/>
	<path d="M-71.772-365.808c-1.444-6.742-7.433-11.8-14.605-11.8c-2.185,0-4.258,0.47-6.126,1.313
		c-1.667-3.202-5.007-5.394-8.866-5.394c-5.522,0-10,4.477-10,9.999c0,2.46,0.899,4.702,2.373,6.442
		c-1.429,1.84-2.287,4.144-2.287,6.653c0,5.983,4.836,10.836,10.813,10.865v0.003h1.188v-2h-0.721l-0.457-0.003
		c-4.864-0.023-8.822-4.001-8.822-8.865c0-4.89,3.978-8.868,8.867-8.868c0.15,0,0.299,0.012,0.447,0.022l0.148,0.01l1.314,0.085
		l0.597-1.175c2.225-4.372,6.644-7.089,11.532-7.089c6.062,0,11.382,4.298,12.649,10.219l0.318,1.483l1.514,0.094
		c3.708,0.23,6.612,3.319,6.612,7.03c0,3.878-3.144,7.035-7.017,7.057c-0.042-0.003-0.079-0.005-0.117-0.005l-2.047,0.005h-0.819v2
		h2.819v-0.006c0.042,0.001,0.082,0.006,0.124,0.006c5.001,0,9.057-4.054,9.057-9.057
		C-63.284-361.591-67.038-365.513-71.772-365.808z M-99.692-369.425c-0.241-0.016-0.48-0.036-0.725-0.036
		c-2.766,0-5.282,1.041-7.2,2.743c-1.092-1.366-1.753-3.09-1.753-4.971c0-4.41,3.589-7.999,8-7.999c3.091,0,5.76,1.773,7.091,4.345
		C-96.577-373.902-98.457-371.854-99.692-369.425z"/>
	<circle cx="-95.294" cy="-339.237" r="1.5"/>
	<circle cx="-87.294" cy="-333.237" r="1.5"/>
	<circle cx="-79.294" cy="-337.237" r="1.5"/>
	<rect x="-96.294" y="-355.713" width="2" height="11.976"/>
	<polygon points="-86.294,-337.772 -86.294,-339.713 -86.294,-351.713 -88.294,-351.713 -88.294,-339.713 -88.294,-337.772 
		-88.294,-337.737 -86.294,-337.737 	"/>
	<polygon points="-78.294,-341.96 -78.294,-343.713 -78.294,-355.713 -80.294,-355.713 -80.294,-343.713 -80.294,-341.96 
		-80.294,-341.737 -78.294,-341.737 	"/>
</g>
<g>
	<path d="M28.83-368.806c-1.444-6.742-7.433-11.8-14.605-11.8c-1.799,0-3.522,0.32-5.118,0.904c-0.949-5.108-5.404-8.98-10.788-8.98
		c-0.413,0-0.819,0.027-1.222,0.071c0.744,1.112,1.179,2.448,1.179,3.886c0,3.865-3.134,7-7,7c-1.438,0-2.773-0.435-3.886-1.179
		c-0.044,0.401-0.071,0.809-0.071,1.222c0,3.712,1.845,6.987,4.661,8.979c-1.653,1.907-2.661,4.389-2.661,7.111
		c0,5.983,4.836,10.836,10.813,10.865v0.003h1.188v-2H0.598l-0.457-0.003c-4.864-0.023-8.822-4.001-8.822-8.865
		c0-4.89,3.978-8.868,8.867-8.868c0.15,0,0.299,0.012,0.447,0.022l0.148,0.01l1.314,0.085l0.597-1.175
		c2.225-4.372,6.644-7.089,11.532-7.089c6.062,0,11.382,4.298,12.649,10.219l0.318,1.483l1.514,0.094
		c3.708,0.23,6.612,3.319,6.612,7.03c0,3.878-3.144,7.035-7.017,7.057c-0.042-0.003-0.079-0.005-0.117-0.005l-2.047,0.005h-0.819v2
		h2.819v-0.006c0.042,0.001,0.082,0.006,0.124,0.006c5.001,0,9.057-4.054,9.057-9.057C37.318-364.589,33.564-368.511,28.83-368.806z
		 M0.91-372.423c-0.241-0.016-0.48-0.036-0.725-0.036c-2.537,0-4.865,0.876-6.715,2.334c-2.012-1.294-3.487-3.354-3.976-5.776
		c0.582,0.117,1.178,0.177,1.78,0.177c4.963,0,9-4.037,9-9c0-0.603-0.06-1.198-0.177-1.78c3.733,0.753,6.629,3.824,7.133,7.64
		C4.521-377.421,2.306-375.166,0.91-372.423z"/>
	<circle cx="5.318" cy="-342.231" r="1.5"/>
	<circle cx="13.318" cy="-336.231" r="1.5"/>
	<circle cx="21.318" cy="-340.231" r="1.5"/>
	<rect x="4.318" y="-358.707" width="2" height="11.976"/>
	<polygon points="14.318,-340.767 14.318,-342.707 14.318,-354.707 12.318,-354.707 12.318,-342.707 12.318,-340.767 
		12.318,-340.731 14.318,-340.731 	"/>
	<polygon points="22.318,-344.954 22.318,-346.707 22.318,-358.707 20.318,-358.707 20.318,-346.707 20.318,-344.954 
		20.318,-344.731 22.318,-344.731 	"/>
</g>
<g>
	<rect x="-119.284" y="-264.365" width="56" height="2"/>
	<rect x="-115.284" y="-258.365" width="50" height="2"/>
	<rect x="-109.284" y="-252.365" width="36" height="2"/>
	<rect x="-117.284" y="-270.365" width="52" height="2"/>
	<path d="M-105.41-278.37c0.175,0,0.347,0.014,0.519,0.025l0.149,0.01l1.316,0.088l0.598-1.176c2.493-4.899,7.443-7.942,12.92-7.942
		c6.79,0,12.75,4.814,14.171,11.448l0.318,1.482l1.514,0.095c1.207,0.075,2.335,0.425,3.336,0.975h3.286
		c-1.678-1.703-3.957-2.813-6.498-2.971c-1.596-7.445-8.207-13.029-16.127-13.029c-6.423,0-11.977,3.678-14.702,9.035
		c-0.266-0.018-0.53-0.04-0.8-0.04c-4.843,0-9.004,2.874-10.9,7.005h2.251C-112.328-276.352-109.104-278.37-105.41-278.37z"/>
</g>
<g>
	<rect x="1.818" y="-291.88" width="2" height="7.973"/>
	<rect x="-17.182" y="-272.966" width="7.973" height="2"/>
	<rect x="-12.509" y="-284.232" transform="matrix(0.7071 0.7071 -0.7071 0.7071 -202.7714 -76.9313)" width="7.974" height="2"/>
	<rect x="13" y="-287.214" transform="matrix(0.7071 0.7071 -0.7071 0.7071 -196.1723 -92.8552)" width="2" height="7.972"/>
	<rect x="-8.182" y="-258.006" width="50" height="2"/>
	<rect x="-4.182" y="-252.006" width="44" height="2"/>
	<rect x="1.818" y="-247.006" width="30" height="2"/>
	<rect x="-6.182" y="-264.006" width="46" height="2"/>
	<path d="M-5.273-266.006h0.771h1.927h1.012c1.472-1.087,3.283-1.737,5.249-1.737c0.15,0,0.299,0.012,0.447,0.022l0.148,0.01
		l1.314,0.085l0.597-1.175c2.225-4.372,6.644-7.089,11.532-7.089c5.945,0,11.168,4.139,12.563,9.884h2.043v-0.084
		c-1.444-6.742-7.433-11.8-14.605-11.8c-2.185,0-4.258,0.47-6.126,1.313c-1.667-3.202-5.007-5.394-8.866-5.394
		c-5.522,0-10,4.477-10,9.999C-7.268-269.729-6.52-267.671-5.273-266.006z M2.732-279.97c3.091,0,5.76,1.773,7.091,4.345
		c-2.298,1.44-4.178,3.488-5.413,5.918c-0.241-0.016-0.48-0.036-0.725-0.036c-2.764,0-5.274,1.045-7.189,2.745
		c-1.097-1.366-1.764-3.089-1.764-4.973C-5.268-276.381-1.679-279.97,2.732-279.97z"/>
</g>
<g>
	<rect x="90.563" y="-261.443" width="50" height="2"/>
	<rect x="94.563" y="-255.443" width="44" height="2"/>
	<rect x="100.563" y="-250.443" width="30" height="2"/>
	<rect x="92.563" y="-267.443" width="46" height="2"/>
	<path d="M94.205-269.443h0.037h1.884h1.055c1.472-1.087,3.283-1.737,5.249-1.737c0.15,0,0.299,0.012,0.447,0.022l0.148,0.01
		l1.314,0.085l0.597-1.175c2.225-4.372,6.644-7.089,11.532-7.089c5.945,0,11.168,4.139,12.563,9.884h2.043v-0.084
		c-1.444-6.742-7.433-11.8-14.605-11.8c-1.799,0-3.521,0.32-5.117,0.903c-0.945-5.111-5.402-8.987-10.789-8.987
		c-0.413,0-0.819,0.027-1.222,0.071c0.744,1.112,1.179,2.448,1.179,3.886c0,3.865-3.134,7-7,7c-1.438,0-2.773-0.435-3.886-1.179
		c-0.044,0.401-0.071,0.809-0.071,1.222C89.563-274.707,91.398-271.437,94.205-269.443z M93.52-276.454c4.963,0,9-4.037,9-9
		c0-0.603-0.06-1.198-0.177-1.78c3.735,0.753,6.633,3.828,7.134,7.647c-2.712,1.443-4.927,3.699-6.322,6.442
		c-0.241-0.016-0.48-0.036-0.725-0.036c-2.534,0-4.855,0.879-6.701,2.335c-2.02-1.293-3.5-3.356-3.989-5.785
		C92.321-276.514,92.917-276.454,93.52-276.454z"/>
</g>
<g>
	<path d="M222.454-258.43H202.98l-0.578-0.003c-5.485-0.027-9.948-4.513-9.948-9.998c0-5.514,4.485-10,9.999-10
		c0.175,0,0.347,0.014,0.519,0.025l0.149,0.01l1.316,0.088l0.598-1.176c2.493-4.899,7.443-7.942,12.92-7.942
		c6.79,0,12.75,4.814,14.171,11.448l0.318,1.482l1.514,0.095c1.822,0.113,3.463,0.845,4.746,1.971h2.732
		c-1.707-2.262-4.348-3.78-7.354-3.967c-1.596-7.445-8.207-13.029-16.127-13.029c-6.423,0-11.977,3.678-14.702,9.035
		c-0.266-0.018-0.53-0.04-0.8-0.04c-6.627,0-11.999,5.372-11.999,12c0,6.607,5.34,11.965,11.938,11.998v0.003h20.062
		c2.205,0,4,1.794,4,4s-1.795,4-4,4v2c3.314,0,6-2.686,6-6C228.454-255.743,225.769-258.43,222.454-258.43z"/>
	<path d="M226.454-262.43h-15.988v2h15.988c3.314,0,6-2.687,6-6c0-3.314-2.686-6-6-6v2c2.205,0,4,1.794,4,4
		S228.659-262.43,226.454-262.43z"/>
	<path d="M239.454-268.43c1.654,0,3,1.346,3,3s-1.346,3-3,3c-0.043,0-0.083-0.011-0.126-0.013h-4.862
		c0.003,0.005,0.009,0.008,0.012,0.013h-0.023v2h5.5v-0.051c2.523-0.254,4.5-2.358,4.5-4.949c0-2.762-2.238-5-5-5V-268.43z"/>
	<path d="M243.454-258.43h-13v2h9.022c-0.004,0.005-0.008,0.008-0.011,0.013h3.862c0.043-0.002,0.083-0.013,0.126-0.013
		c1.654,0,3,1.346,3,3s-1.346,3-3,3v2c2.762,0,5-2.238,5-5S246.216-258.43,243.454-258.43z"/>
	<rect x="204.454" y="-262.43" width="4" height="2"/>
</g>
<path d="M14.893-657.533c6.95,1.305,12.226,7.419,12.226,14.742c0,8.272-6.729,15.002-15,15.002c-6.79,0-12.531-4.49-14.366-10.728
	c1.398,0.461,2.867,0.698,4.366,0.698c7.72,0,14-6.281,14-14.001C16.118-653.804,15.694-655.748,14.893-657.533 M12.118-659.79
	c-0.338,0-0.668,0.031-1,0.051c1.861,2.113,3,4.881,3,7.92c0,6.627-5.372,12.001-12,12.001c-2.599,0-4.998-0.835-6.963-2.239
	c0.387,9.047,7.821,16.269,16.963,16.269c9.39,0,17-7.612,17-17.002S21.508-659.79,12.118-659.79L12.118-659.79z"/>
<g>
	<path d="M-91.277-654.795c-7.18,0-13,5.819-13,12.999c0,7.181,5.82,13.002,13,13.002s13-5.821,13-13.002
		C-78.277-648.976-84.098-654.795-91.277-654.795z M-91.277-630.794c-6.065,0-11-4.936-11-11.002c0-6.064,4.935-10.999,11-10.999
		s11,4.935,11,10.999C-80.277-635.729-85.212-630.794-91.277-630.794z"/>
	<rect x="-92.284" y="-667.789" width="2" height="10"/>
	<rect x="-92.284" y="-625.789" width="2" height="10"/>
	<rect x="-117.277" y="-642.789" width="9.993" height="2"/>
	<rect x="-75.284" y="-642.789" width="10.007" height="2"/>
	<rect x="-77.584" y="-661.703" transform="matrix(0.7071 0.7071 -0.7071 0.7071 -486.6456 -138.1306)" width="2" height="10.409"/>
	
		<rect x="-106.993" y="-632.294" transform="matrix(-0.7071 -0.7071 0.7071 -0.7071 262.4775 -1145.457)" width="2" height="10.41"/>
	
		<rect x="-111.193" y="-657.494" transform="matrix(0.7071 0.7071 -0.7071 0.7071 -495.2545 -117.3372)" width="10.409" height="2"/>
	
		<rect x="-81.785" y="-628.084" transform="matrix(-0.7072 -0.7071 0.7071 -0.7072 312.6523 -1124.6763)" width="10.41" height="2"/>
</g>
<g>
	<rect x="306.889" y="-296.928" width="2" height="7.973"/>
	<rect x="287.916" y="-277.941" width="7.973" height="2"/>
	<rect x="292.642" y="-289.16" transform="matrix(0.7071 0.7071 -0.7071 0.7071 -116.8794 -294.1485)" width="7.974" height="2"/>
	<rect x="318.151" y="-292.142" transform="matrix(0.7071 0.7071 -0.7071 0.7071 -110.2802 -310.0724)" width="2" height="7.972"/>
	<path d="M321.916-254.928l0.005-0.007h-12.536l-0.594-0.003c-4.864-0.024-8.822-4.001-8.822-8.865c0-4.89,3.978-8.868,8.867-8.868
		c0.15,0,0.299,0.012,0.447,0.021l0.148,0.011l1.314,0.085l0.597-1.174c2.225-4.373,6.644-7.09,11.532-7.09
		c5.916,0,11.114,4.099,12.54,9.8h2.065c-1.444-6.742-7.433-11.8-14.605-11.8c-2.185,0-4.258,0.47-6.126,1.313
		c-1.667-3.202-5.007-5.394-8.866-5.394c-5.522,0-10,4.477-10,9.999c0,2.46,0.899,4.702,2.373,6.442
		c-1.429,1.84-2.287,4.144-2.287,6.653c0,5.983,4.836,10.836,10.813,10.865v0.003h13.135v0.007c2.205,0,4,1.794,4,4s-1.795,4-4,4v2
		c3.314,0,6-2.686,6-6C327.916-252.241,325.23-254.928,321.916-254.928z M307.883-284.897c3.091,0,5.76,1.773,7.091,4.345
		c-2.298,1.439-4.178,3.488-5.413,5.918c-0.241-0.016-0.48-0.036-0.725-0.036c-2.766,0-5.282,1.042-7.2,2.743
		c-1.092-1.367-1.753-3.09-1.753-4.971C299.883-281.309,303.472-284.897,307.883-284.897z"/>
	<path d="M325.916-258.928h-9.988v2h9.988c3.314,0,6-2.687,6-6c0-3.314-2.686-6-6-6v2c2.205,0,4,1.794,4,4
		S328.121-258.928,325.916-258.928z"/>
	<path d="M333.939-258.928h-0.023v2h5.5v-0.051c2.523-0.254,4.5-2.358,4.5-4.949c0-2.762-2.238-5-5-5v2c1.654,0,3,1.346,3,3
		s-1.346,3-3,3c-0.043,0-0.083-0.011-0.126-0.013h-4.862C333.931-258.936,333.937-258.932,333.939-258.928z"/>
	<path d="M342.916-254.928h-13v2h9.022c-0.004,0.004-0.008,0.008-0.011,0.013h3.862c0.043-0.002,0.083-0.013,0.126-0.013
		c1.654,0,3,1.346,3,3s-1.346,3-3,3v2c2.762,0,5-2.238,5-5S345.678-254.928,342.916-254.928z"/>
	<rect x="309.916" y="-258.928" width="4" height="2"/>
</g>
<g>
	<path d="M421.878-256.934l0.005-0.007h-12.536l-0.594-0.003c-4.864-0.024-8.822-4.001-8.822-8.865c0-4.89,3.978-8.868,8.867-8.868
		c0.15,0,0.299,0.012,0.447,0.021l0.148,0.011l1.314,0.085l0.597-1.174c2.225-4.373,6.644-7.09,11.532-7.09
		c5.916,0,11.114,4.099,12.54,9.8h2.065c-1.444-6.742-7.433-11.8-14.605-11.8c-1.806,0-3.536,0.322-5.138,0.91
		c-0.938-5.123-5.4-9.01-10.794-9.01c-0.413,0-0.819,0.027-1.222,0.071c0.744,1.112,1.179,2.448,1.179,3.886c0,3.865-3.134,7-7,7
		c-1.438,0-2.773-0.435-3.886-1.179c-0.044,0.401-0.071,0.809-0.071,1.222c0,3.725,1.858,7.009,4.69,8.998
		c-1.655,1.907-2.665,4.392-2.665,7.116c0,5.983,4.836,10.836,10.813,10.865v0.003h13.135v0.007c2.205,0,4,1.794,4,4s-1.795,4-4,4v2
		c3.314,0,6-2.686,6-6C427.878-254.247,425.192-256.934,421.878-256.934z M398.082-280.143c0.582,0.117,1.178,0.177,1.78,0.177
		c4.963,0,9-4.037,9-9c0-0.603-0.06-1.198-0.177-1.78c3.744,0.755,6.646,3.842,7.138,7.674c-2.702,1.444-4.909,3.696-6.301,6.432
		c-0.241-0.016-0.48-0.036-0.725-0.036c-2.535,0-4.861,0.875-6.71,2.33C400.06-275.639,398.573-277.707,398.082-280.143z"/>
	<path d="M425.878-260.934h-9.988v2h9.988c3.314,0,6-2.687,6-6c0-3.314-2.686-6-6-6v2c2.205,0,4,1.794,4,4
		S428.083-260.934,425.878-260.934z"/>
	<path d="M433.901-260.934h-0.023v2h5.5v-0.051c2.523-0.254,4.5-2.358,4.5-4.949c0-2.762-2.238-5-5-5v2c1.654,0,3,1.346,3,3
		s-1.346,3-3,3c-0.043,0-0.083-0.011-0.126-0.013h-4.862C433.893-260.941,433.898-260.938,433.901-260.934z"/>
	<path d="M442.878-256.934h-13v2h9.022c-0.004,0.004-0.008,0.008-0.011,0.013h3.862c0.043-0.002,0.083-0.013,0.126-0.013
		c1.654,0,3,1.346,3,3s-1.346,3-3,3v2c2.762,0,5-2.238,5-5S445.64-256.934,442.878-256.934z"/>
	<rect x="409.878" y="-260.934" width="4" height="2"/>
</g>
<g>
	<rect x="522.771" y="-294.365" width="2" height="10"/>
	<rect x="497.777" y="-269.365" width="9.993" height="2"/>
	<rect x="537.47" y="-288.279" transform="matrix(0.7071 0.7071 -0.7071 0.7071 -42.4498 -463.6666)" width="2" height="10.409"/>
	<rect x="503.861" y="-284.07" transform="matrix(0.7071 0.7071 -0.7071 0.7071 -51.0586 -442.8732)" width="10.409" height="2"/>
	<path d="M527.771-254.365h-24v2h24c2.205,0,4,1.794,4,4s-1.795,4-4,4v2c3.314,0,6-2.686,6-6
		C533.771-251.679,531.085-254.365,527.771-254.365z"/>
	<path d="M539.794-258.365h-0.023v2h5.5v-0.051c2.523-0.254,4.5-2.358,4.5-4.949c0-2.762-2.238-5-5-5v2c1.654,0,3,1.346,3,3
		s-1.346,3-3,3c-0.043,0-0.083-0.011-0.126-0.013h-4.862C539.785-258.373,539.791-258.369,539.794-258.365z"/>
	<path d="M548.771-254.365h-13v2h9.022c-0.004,0.004-0.008,0.008-0.011,0.013h3.862c0.043-0.002,0.083-0.013,0.126-0.013
		c1.654,0,3,1.346,3,3s-1.346,3-3,3v2c2.762,0,5-2.238,5-5S551.532-254.365,548.771-254.365z"/>
	<path d="M515.479-258.365h-11.709v2h12.012h0.822h15.166c3.314,0,6-2.687,6-6c0-3.314-2.686-6-6-6v2c2.205,0,4,1.794,4,4
		s-1.795,4-4,4h-12.538c-3.802-1.734-6.455-5.563-6.455-10.007c0-6.064,4.935-10.999,11-10.999c5.384,0,9.868,3.891,10.81,9.006
		h2.021c-0.961-6.23-6.331-11.006-12.831-11.006c-7.18,0-13,5.819-13,12.999C510.777-264.347,512.607-260.75,515.479-258.365z"/>
</g>
<g>
	<path d="M627.997-260.922h-24v2h24c2.205,0,4,1.794,4,4s-1.795,4-4,4v2c3.314,0,6-2.686,6-6
		C633.997-258.235,631.312-260.922,627.997-260.922z"/>
	<path d="M645.497-262.922v-0.051c2.523-0.254,4.5-2.358,4.5-4.949c0-2.762-2.238-5-5-5v2c1.654,0,3,1.346,3,3s-1.346,3-3,3
		c-0.043,0-0.083-0.011-0.126-0.013h-4.862c0.004,0.005,0.009,0.009,0.012,0.013h-0.023v2H645.497z"/>
	<path d="M648.997-260.922h-13v2h9.022c-0.003,0.004-0.007,0.008-0.011,0.013h3.862c0.043-0.002,0.083-0.013,0.126-0.013
		c1.654,0,3,1.346,3,3s-1.346,3-3,3v2c2.762,0,5-2.238,5-5S651.759-260.922,648.997-260.922z"/>
	<path d="M616.831-262.922h15.166c3.314,0,6-2.687,6-6c0-3.314-2.686-6-6-6v2c2.205,0,4,1.794,4,4s-1.795,4-4,4h-12.586
		c-2.596-1.188-4.658-3.339-5.69-6.034c0.849,0.204,1.724,0.309,2.612,0.309c6.168,0,11.187-5.019,11.187-11.188
		c0-1.276-0.22-2.532-0.64-3.717c4.046,1.102,7.168,4.459,7.937,8.63h2.018c-0.964-6.237-6.338-11.016-12.846-11.016
		c-0.259,0-0.511,0.024-0.766,0.039c1.425,1.618,2.297,3.737,2.297,6.063c0,5.072-4.112,9.188-9.187,9.188
		c-1.988,0-3.826-0.641-5.33-1.715c0.162,3.801,1.962,7.165,4.699,9.44h-11.705v2h12.012H616.831z"/>
</g>
<g>
	<path d="M-91.784-175.729h-20c-1.103,0-2-0.897-2-2s0.897-2,2-2h3.445h0.555v-2h-4c-2.209,0-4,1.791-4,4s1.791,4,4,4h20
		c2.205,0,4,1.794,4,4s-1.795,4-4,4v2c3.314,0,6-2.686,6-6C-85.784-173.042-88.47-175.729-91.784-175.729z"/>
	<path d="M-89.784-191.729v2c2.205,0,4,1.794,4,4s-1.795,4-4,4h-15.988v2h15.988c3.314,0,6-2.687,6-6
		C-83.784-189.043-86.47-191.729-89.784-191.729z"/>
	<path d="M-83.784-179.729v2h5.5v-0.051c2.523-0.254,4.5-2.358,4.5-4.949c0-2.762-2.238-5-5-5v2c1.654,0,3,1.346,3,3s-1.346,3-3,3
		c-0.043,0-0.083-0.011-0.126-0.013h-4.862c0.003,0.005,0.009,0.009,0.012,0.013H-83.784z"/>
	<path d="M-72.784-175.729h-11v2h7.022c-0.004,0.004-0.008,0.008-0.011,0.013h3.862c0.043-0.002,0.083-0.013,0.126-0.013
		c1.654,0,3,1.346,3,3s-1.346,3-3,3v2c2.762,0,5-2.238,5-5S-70.022-175.729-72.784-175.729z"/>
</g>
<path d="M444.508-189.382v-0.038h-38.376c-1.103,0-2-0.897-2-2s0.897-2,2-2h33c2.762,0,5-2.238,5-5s-2.238-5-5-5h-37.875v0.008
	c-0.042-0.001-0.083-0.008-0.125-0.008c-2.762,0-5,2.238-5,5s2.238,5,5,5v-2c-1.654,0-3-1.346-3-3s1.346-3,3-3h0.125h3.853h34.022
	c1.654,0,3,1.346,3,3s-1.346,3-3,3h-33c-2.209,0-4,1.791-4,4s1.791,4,4,4h38c1.103,0,2,0.897,2,2s-0.897,2-2,2h-32
	c-2.209,0-4,1.791-4,4s1.791,4,4,4h22c1.103,0,2,0.897,2,2s-0.897,2-2,2h-24.01v0.001c-2.204,0.006-3.99,1.793-3.99,3.999
	s1.786,3.993,3.99,3.999v0.001h12.01c1.103,0,2,0.897,2,2s-0.897,2-2,2h-2c-2.209,0-4,1.791-4,4s1.791,4,4,4v-2
	c-1.103,0-2-0.897-2-2s0.897-2,2-2h2c2.209,0,4-1.791,4-4s-1.791-4-4-4h-12c-1.103,0-2-0.897-2-2s0.897-2,2-2h24
	c2.209,0,4-1.791,4-4c0-2.152-1.704-3.895-3.834-3.983v-0.017h-22.166c-1.103,0-2-0.897-2-2s0.897-2,2-2h32c2.209,0,4-1.791,4-4
	C448.132-187.5,446.538-189.189,444.508-189.382z"/>
<path d="M629.923-198.704v-2.024h-2v2.024c-13.01,0.513-23.462,10.965-23.975,23.976h1.674c1.14-1.222,2.748-2,4.551-2
	c2.26,0,4.233,1.203,5.331,3h1.838c1.098-1.797,3.071-3,5.331-3c2.204,0,4.137,1.144,5.25,2.866v15.134c0,2.21,1.791,4,4,4
	s4-1.79,4-4h-2c0,1.103-0.897,2-2,2s-2-0.897-2-2v-15.134c1.113-1.723,3.046-2.866,5.25-2.866c2.26,0,4.233,1.203,5.331,3h1.838
	c1.098-1.797,3.071-3,5.331-3c1.803,0,3.411,0.778,4.551,2h1.674C653.385-187.739,642.933-198.191,629.923-198.704z
	 M647.673-178.729c-2.496,0-4.736,1.114-6.25,2.87c-1.514-1.756-3.754-2.87-6.25-2.87s-4.736,1.114-6.25,2.87
	c-1.514-1.756-3.754-2.87-6.25-2.87s-4.736,1.114-6.25,2.87c-1.514-1.756-3.755-2.87-6.25-2.87c-1.402,0-2.731,0.351-3.897,0.975
	c1.909-10.769,11.339-18.975,22.647-18.975s20.738,8.206,22.647,18.975C650.404-178.378,649.075-178.729,647.673-178.729z"/>
<g>
	<path d="M224.628-74.416v-17.105c0-2.762-2.238-5-5-5s-5,2.238-5,5v17.105c-1.236,1.263-2,2.988-2,4.895c0,3.866,3.134,7,7,7
		s7-3.134,7-7C226.628-71.428,225.864-73.153,224.628-74.416z M219.628-64.521c-2.757,0-5-2.243-5-5
		c0-1.313,0.508-2.554,1.429-3.495l0.571-0.583v-0.816v-17.105c0-1.654,1.346-3,3-3s3,1.346,3,3v17.105v0.816l0.571,0.583
		c0.921,0.941,1.429,2.183,1.429,3.495C224.628-66.765,222.385-64.521,219.628-64.521z"/>
	<path d="M220.628-72.346v-15.176h-2v15.176c-1.167,0.413-2.008,1.516-2.008,2.824c0,1.662,1.347,3.008,3.008,3.008
		c1.662,0,3.008-1.346,3.008-3.008C222.636-70.83,221.796-71.933,220.628-72.346z M219.628-68.514c-0.556,0-1.008-0.452-1.008-1.008
		s0.452-1.008,1.008-1.008s1.008,0.452,1.008,1.008S220.184-68.514,219.628-68.514z"/>
</g>
<g>
	<path d="M324.416-74.416v-17.105c0-2.762-2.238-5-5-5s-5,2.238-5,5v17.105c-1.236,1.263-2,2.988-2,4.895c0,3.866,3.134,7,7,7
		s7-3.134,7-7C326.416-71.428,325.652-73.153,324.416-74.416z M319.416-64.521c-2.757,0-5-2.243-5-5
		c0-1.313,0.508-2.554,1.429-3.495l0.571-0.583v-0.816v-17.105c0-1.654,1.346-3,3-3s3,1.346,3,3v17.105v0.816l0.571,0.583
		c0.921,0.941,1.429,2.183,1.429,3.495C324.416-66.765,322.173-64.521,319.416-64.521z"/>
	<path d="M320.416-72.346v-20.176h-2v20.176c-1.167,0.413-2.008,1.516-2.008,2.824c0,1.662,1.347,3.008,3.008,3.008
		c1.662,0,3.008-1.346,3.008-3.008C322.424-70.83,321.584-71.933,320.416-72.346z M319.416-68.514c-0.556,0-1.008-0.452-1.008-1.008
		s0.452-1.008,1.008-1.008s1.008,0.452,1.008,1.008S319.972-68.514,319.416-68.514z"/>
</g>
<g>
	<path d="M121.519-74.416v-17.105c0-2.762-2.238-5-5-5s-5,2.238-5,5v17.105c-1.236,1.263-2,2.988-2,4.895c0,3.866,3.134,7,7,7
		s7-3.134,7-7C123.519-71.428,122.755-73.153,121.519-74.416z M116.519-64.521c-2.757,0-5-2.243-5-5
		c0-1.313,0.508-2.554,1.429-3.495l0.571-0.583v-0.816v-17.105c0-1.654,1.346-3,3-3s3,1.346,3,3v17.105v0.816l0.571,0.583
		c0.921,0.941,1.429,2.183,1.429,3.495C121.519-66.765,119.275-64.521,116.519-64.521z"/>
	<path d="M117.519-72.346v-10.176h-2v10.176c-1.167,0.413-2.008,1.516-2.008,2.824c0,1.662,1.347,3.008,3.008,3.008
		c1.662,0,3.008-1.346,3.008-3.008C119.526-70.83,118.687-71.933,117.519-72.346z M116.519-68.514c-0.556,0-1.008-0.452-1.008-1.008
		s0.452-1.008,1.008-1.008s1.008,0.452,1.008,1.008S117.074-68.514,116.519-68.514z"/>
</g>
<g>
	<path d="M17.873-74.416v-17.105c0-2.762-2.238-5-5-5s-5,2.238-5,5v17.105c-1.236,1.263-2,2.988-2,4.895c0,3.866,3.134,7,7,7
		s7-3.134,7-7C19.873-71.428,19.109-73.153,17.873-74.416z M12.873-64.521c-2.757,0-5-2.243-5-5c0-1.313,0.508-2.554,1.429-3.495
		L9.873-73.6v-0.816v-17.105c0-1.654,1.346-3,3-3s3,1.346,3,3v17.105v0.816l0.571,0.583c0.921,0.941,1.429,2.183,1.429,3.495
		C17.873-66.765,15.63-64.521,12.873-64.521z"/>
	<path d="M13.873-72.346v-5.176h-2v5.176c-1.167,0.413-2.008,1.516-2.008,2.824c0,1.662,1.347,3.008,3.008,3.008
		c1.662,0,3.008-1.346,3.008-3.008C15.881-70.83,15.041-71.933,13.873-72.346z M12.873-68.514c-0.556,0-1.008-0.452-1.008-1.008
		s0.452-1.008,1.008-1.008s1.008,0.452,1.008,1.008S13.429-68.514,12.873-68.514z"/>
</g>
<g>
	<path d="M-86.784-74.416v-17.105c0-2.762-2.238-5-5-5s-5,2.238-5,5v17.105c-1.236,1.263-2,2.988-2,4.895c0,3.866,3.134,7,7,7
		s7-3.134,7-7C-84.784-71.428-85.548-73.153-86.784-74.416z M-91.784-64.521c-2.757,0-5-2.243-5-5c0-1.313,0.508-2.554,1.429-3.495
		l0.571-0.583v-0.816v-17.105c0-1.654,1.346-3,3-3s3,1.346,3,3v17.105v0.816l0.571,0.583c0.921,0.941,1.429,2.183,1.429,3.495
		C-86.784-66.765-89.027-64.521-91.784-64.521z"/>
	<path d="M-91.784-72.529c-1.661,0-3.008,1.347-3.008,3.008c0,1.662,1.347,3.008,3.008,3.008c1.662,0,3.008-1.346,3.008-3.008
		C-88.776-71.183-90.122-72.529-91.784-72.529z M-91.784-68.514c-0.556,0-1.008-0.452-1.008-1.008s0.452-1.008,1.008-1.008
		s1.008,0.452,1.008,1.008S-91.229-68.514-91.784-68.514z"/>
</g>
<g>
	<path d="M413.141-94.209c-2.209,0-4,1.791-4,4c0,2.21,1.791,4,4,4c2.211,0,4-1.79,4-4
		C417.141-92.418,415.352-94.209,413.141-94.209z M413.141-88.209c-1.103,0-2-0.897-2-2s0.897-2,2-2s2,0.897,2,2
		S414.243-88.209,413.141-88.209z"/>
	<path d="M427.141-66.209c-4.41,0-7.999-3.589-7.999-7.999v-4.002c0-4.41,3.589-7.999,7.999-7.999c2.715,0,5.115,1.362,6.563,3.437
		l1.43-1.43c-1.824-2.429-4.72-4.007-7.992-4.007c-5.522,0-9.999,4.478-9.999,9.999v4.002c0,5.521,4.477,9.999,9.999,9.999
		c3.272,0,6.168-1.579,7.992-4.008l-1.43-1.43C432.257-67.572,429.856-66.209,427.141-66.209z"/>
</g>
<g>
	<path d="M517.837-94.33c-2.209,0-4,1.791-4,4c0,2.21,1.791,4,4,4c2.211,0,4-1.79,4-4C521.837-92.539,520.048-94.33,517.837-94.33z
		 M517.837-88.33c-1.103,0-2-0.897-2-2s0.897-2,2-2s2,0.897,2,2S518.939-88.33,517.837-88.33z"/>
	<polygon points="537.712,-86.209 537.712,-88.209 525.712,-88.209 523.712,-88.209 523.712,-64.209 525.712,-64.209 
		525.712,-76.209 533.712,-76.209 533.712,-78.209 525.712,-78.209 525.712,-86.209 	"/>
</g>
<g>
	<path d="M628.923-90.518c-7.179,0-13,5.82-13,13s5.821,13,13,13s13-5.82,13-13S636.102-90.518,628.923-90.518z M628.923-66.518
		c-6.065,0-11-4.935-11-11s4.935-11,11-11s11,4.935,11,11S634.988-66.518,628.923-66.518z"/>
	<path d="M624.656-73.275l6.363-2.121l2.121-6.364l-6.363,2.122L624.656-73.275z M628.358-78.058l1.62-0.54l-0.54,1.62l-1.62,0.54
		L628.358-78.058z"/>
</g>
<g>
	<path d="M-91.784,0c-7.179,0-13,5.82-13,13s5.821,13,13,13s13-5.82,13-13S-84.605,0-91.784,0z M-91.784,24c-6.065,0-11-4.934-11-11
		c0-6.064,4.935-11,11-11s11,4.936,11,11C-80.784,19.066-85.719,24-91.784,24z"/>
	<path d="M-89.223,11.422L-91.809,7l-2.529,4.33h0.007c-0.299,0.467-0.478,1.018-0.478,1.613c0,1.656,1.343,3,3,3s3-1.344,3-3
		c0-0.559-0.162-1.074-0.428-1.521H-89.223z M-91.809,13.943c-0.552,0-1-0.449-1-1c0-0.188,0.055-0.367,0.162-0.535l0.864-1.355
		l0.826,1.391c0.098,0.164,0.147,0.332,0.147,0.5C-90.809,13.494-91.257,13.943-91.809,13.943z"/>
</g>
<g>
	<path d="M13,0C5.82,0,0,5.82,0,13s5.82,13,13,13s13-5.82,13-13S20.18,0,13,0z M13,24C6.935,24,2,19.066,2,13C2,6.936,6.935,2,13,2
		s11,4.936,11,11C24,19.066,19.065,24,13,24z"/>
	<path d="M14.589,10.42c-0.467-0.299-1.018-0.477-1.613-0.477c-1.658,0-3,1.342-3,3c0,1.656,1.342,3,3,3
		c0.557,0,1.072-0.162,1.52-0.428v0.014l4.422-2.586l-4.328-2.529V10.42z M13.474,13.795c-0.164,0.098-0.332,0.148-0.498,0.148
		c-0.552,0-1-0.449-1-1c0-0.553,0.448-1,1-1c0.188,0,0.368,0.053,0.535,0.16l1.355,0.865L13.474,13.795z"/>
</g>
<g>
	<path d="M116.051,0c-7.18,0-13,5.82-13,13s5.82,13,13,13s13-5.82,13-13S123.23,0,116.051,0z M116.051,24c-6.065,0-11-4.934-11-11
		c0-6.064,4.935-11,11-11s11,4.936,11,11C127.051,19.066,122.116,24,116.051,24z"/>
	<path d="M116.051,9.943c-1.656,0-3,1.342-3,3c0,0.557,0.162,1.072,0.428,1.52h-0.014l2.586,4.422l2.529-4.328h-0.006
		c0.299-0.467,0.477-1.018,0.477-1.613C119.051,11.285,117.709,9.943,116.051,9.943z M116.89,13.479l-0.865,1.355l-0.826-1.393
		c-0.098-0.164-0.147-0.332-0.147-0.498c0-0.553,0.448-1,1-1s1,0.447,1,1C117.051,13.131,116.997,13.311,116.89,13.479z"/>
</g>
<g>
	<path d="M219.465,0c-7.179,0-13,5.82-13,13s5.821,13,13,13s13-5.82,13-13S226.644,0,219.465,0z M219.465,24
		c-6.065,0-11-4.934-11-11c0-6.064,4.935-11,11-11s11,4.936,11,11C230.465,19.066,225.53,24,219.465,24z"/>
	<path d="M219.424,9.943c-0.557,0-1.072,0.162-1.52,0.428v-0.014l-4.422,2.586l4.328,2.529v-0.006
		c0.467,0.299,1.018,0.477,1.613,0.477c1.658,0,3-1.342,3-3C222.424,11.287,221.082,9.943,219.424,9.943z M219.424,13.943
		c-0.188,0-0.368-0.055-0.535-0.162l-1.355-0.865l1.393-0.826c0.164-0.098,0.332-0.146,0.498-0.146c0.552,0,1,0.447,1,1
		C220.424,13.494,219.976,13.943,219.424,13.943z"/>
</g>
<g>
	<rect x="11.313" y="-196.729" width="2" height="10"/>
	<rect x="26.013" y="-190.643" transform="matrix(0.7071 0.7071 -0.7071 0.7071 -123.2125 -73.4147)" width="2" height="10.409"/>
	<rect x="-7.596" y="-186.433" transform="matrix(0.7071 0.7071 -0.7071 0.7071 -131.8214 -52.6213)" width="10.409" height="2"/>
	<polygon points="5.646,-167.475 7.06,-166.061 11.313,-170.314 11.313,-160.729 13.313,-160.729 13.313,-170.314 17.566,-166.061 
		18.98,-167.475 12.313,-174.143 	"/>
	<path d="M25.32-170.729c0-0.002,0-0.004,0-0.006c0-7.18-5.82-12.999-13-12.999s-13,5.819-13,12.999c0,0.002,0,0.004,0,0.006h-13v2
		h18v-2h-3c0-0.002,0-0.004,0-0.006c0-6.064,4.935-10.999,11-10.999s11,4.935,11,10.999c0,0.002,0,0.004,0,0.006h-3v2h17.995v-2
		H25.32z"/>
</g>
<g>
	<rect x="115.059" y="-197.916" width="2" height="10"/>
	<rect x="129.758" y="-191.83" transform="matrix(0.7071 0.7071 -0.7071 0.7071 -93.6659 -147.1214)" width="2" height="10.409"/>
	<rect x="96.149" y="-187.62" transform="matrix(0.7071 0.7071 -0.7071 0.7071 -102.2748 -126.328)" width="10.409" height="2"/>
	<polygon points="117.059,-163.369 117.059,-173.916 115.059,-173.916 115.059,-163.369 110.805,-167.623 109.391,-166.209 
		116.059,-159.541 122.726,-166.209 121.312,-167.623 	"/>
	<path d="M129.065-171.917c0-0.002,0-0.004,0-0.006c0-7.18-5.82-12.999-13-12.999s-13,5.819-13,12.999c0,0.002,0,0.004,0,0.006h-13
		v2h22v-2h-7c0-0.002,0-0.004,0-0.006c0-6.064,4.935-10.999,11-10.999s11,4.935,11,10.999c0,0.002,0,0.004,0,0.006h-7v2h21.995v-2
		H129.065z"/>
</g>
<g>
	<polygon points="319.416,-163.903 319.416,-178.286 317.416,-178.286 317.416,-163.903 313.162,-168.157 311.748,-166.743 
		318.416,-160.075 325.083,-166.743 323.669,-168.157 	"/>
	<path d="M335.044-183.257c-1.596-7.445-8.207-13.029-16.127-13.029c-6.423,0-11.977,3.678-14.702,9.035
		c-0.266-0.018-0.53-0.04-0.8-0.04c-6.627,0-11.999,5.372-11.999,12c0,6.607,5.34,11.965,11.938,11.998v0.003h6.062v-2h-5.604
		l-0.447-0.003c-5.485-0.027-9.948-4.513-9.948-9.998c0-5.514,4.485-10,9.999-10c0.175,0,0.347,0.014,0.52,0.025l0.148,0.01
		l1.316,0.088l0.598-1.176c2.492-4.899,7.443-7.942,12.92-7.942c6.79,0,12.75,4.814,14.172,11.448l0.317,1.482l1.514,0.095
		c4.203,0.262,7.496,3.763,7.496,7.971c0,4.397-3.565,7.977-7.957,8c-0.05-0.003-0.093-0.005-0.137-0.007l-2.043,0.007h-4.863v2
		h6.863v-0.007c0.046,0.001,0.091,0.007,0.137,0.007c5.521,0,10-4.477,10-10C344.416-178.601,340.271-182.932,335.044-183.257z"/>
</g>
<g>
	<polygon points="225.4,-167.099 226.814,-168.513 220.147,-175.181 213.479,-168.513 214.894,-167.099 219.147,-171.353 
		219.147,-158.767 221.147,-158.767 221.147,-171.353 	"/>
	<path d="M236.775-181.661c-1.596-7.445-8.207-13.029-16.127-13.029c-6.423,0-11.977,3.678-14.702,9.035
		c-0.266-0.018-0.53-0.04-0.8-0.04c-6.627,0-11.999,5.372-11.999,12c0,6.607,5.34,11.965,11.938,11.998v0.003h10.062v-2h-9.604
		l-0.447-0.003c-5.485-0.027-9.948-4.513-9.948-9.998c0-5.514,4.485-10,9.999-10c0.175,0,0.347,0.014,0.52,0.025l0.148,0.01
		l1.316,0.088l0.598-1.176c2.492-4.899,7.443-7.942,12.92-7.942c6.79,0,12.75,4.814,14.172,11.448l0.317,1.482l1.514,0.095
		c4.203,0.262,7.496,3.763,7.496,7.971c0,4.397-3.565,7.977-7.957,8c-0.05-0.003-0.093-0.005-0.137-0.007l-2.043,0.007h-8.863v2
		h10.863v-0.007c0.046,0.001,0.091,0.007,0.137,0.007c5.521,0,10-4.477,10-10C246.147-177.005,242.003-181.336,236.775-181.661z"/>
</g>
<g>
	<path d="M439.265-371.177c-1.596-7.445-8.207-13.029-16.127-13.029c-6.423,0-11.977,3.678-14.702,9.035
		c-0.266-0.018-0.53-0.04-0.8-0.04c-6.627,0-11.999,5.372-11.999,12c0,6.607,5.34,11.965,11.938,11.998v0.003h2.062v-2h-1.604
		l-0.447-0.003c-5.485-0.027-9.948-4.513-9.948-9.998c0-5.514,4.485-10,9.999-10c0.175,0,0.347,0.014,0.52,0.025l0.148,0.01
		l1.316,0.088l0.598-1.176c2.492-4.899,7.443-7.942,12.92-7.942c6.79,0,12.75,4.814,14.172,11.448l0.317,1.482l1.514,0.095
		c4.203,0.262,7.496,3.763,7.496,7.971c0,4.397-3.565,7.977-7.957,8c-0.05-0.003-0.093-0.005-0.137-0.007l-2.043,0.007h-0.863v2
		h2.863v-0.007c0.046,0.001,0.091,0.007,0.137,0.007c5.521,0,10-4.477,10-10C448.637-366.521,444.492-370.852,439.265-371.177z"/>
	<polygon points="417.637,-352.188 417.637,-354.818 419.81,-353.596 420.495,-354.816 418.025,-356.206 420.495,-357.596 
		419.81,-358.816 417.637,-357.594 417.637,-360.188 415.637,-360.188 415.637,-357.55 413.386,-358.816 412.7,-357.596 
		415.17,-356.206 412.7,-354.816 413.386,-353.596 415.637,-354.862 415.637,-352.188 	"/>
	<polygon points="422.799,-347.834 420.626,-346.611 420.626,-349.206 418.626,-349.206 418.626,-346.567 416.375,-347.834 
		415.689,-346.613 418.159,-345.224 415.689,-343.834 416.375,-342.613 418.626,-343.88 418.626,-341.206 420.626,-341.206 
		420.626,-343.836 422.799,-342.613 423.484,-343.834 421.015,-345.224 423.484,-346.613 	"/>
	<polygon points="431.814,-354.816 429.642,-353.594 429.642,-356.188 427.642,-356.188 427.642,-353.55 425.391,-354.816 
		424.705,-353.596 427.175,-352.206 424.705,-350.816 425.391,-349.596 427.642,-350.862 427.642,-348.188 429.642,-348.188 
		429.642,-350.818 431.814,-349.596 432.5,-350.816 430.03,-352.206 432.5,-353.596 	"/>
</g>
<g>
	<rect x="514.776" y="-389.229" width="2" height="7.973"/>
	<rect x="495.776" y="-370.314" width="7.973" height="2"/>
	<rect x="500.449" y="-381.581" transform="matrix(0.7071 0.7071 -0.7071 0.7071 -121.3654 -468.1601)" width="7.974" height="2"/>
	<rect x="525.958" y="-384.563" transform="matrix(0.7071 0.7071 -0.7071 0.7071 -114.7662 -484.084)" width="2" height="7.972"/>
	<path d="M545.288-363.438c-1.444-6.742-7.433-11.8-14.605-11.8c-2.185,0-4.258,0.471-6.127,1.314
		c-1.666-3.203-5.006-5.395-8.865-5.395c-5.522,0-10,4.477-10,9.999c0,2.46,0.899,4.702,2.373,6.442
		c-1.428,1.84-2.287,4.144-2.287,6.653c0,5.983,4.836,10.836,10.813,10.865v0.003h1.188v-2h-0.721l-0.457-0.003
		c-4.864-0.023-8.822-4.001-8.822-8.865c0-4.89,3.978-8.868,8.867-8.868c0.15,0,0.299,0.012,0.447,0.022l0.148,0.01l1.314,0.085
		l0.597-1.175c2.225-4.372,6.644-7.089,11.532-7.089c6.062,0,11.382,4.298,12.649,10.219l0.318,1.483l1.514,0.094
		c3.708,0.23,6.612,3.319,6.612,7.03c0,3.878-3.144,7.035-7.017,7.057c-0.042-0.003-0.079-0.005-0.117-0.005l-1.866,0.005v2h1.819
		v-0.006c0.042,0.001,0.082,0.006,0.124,0.006c5.001,0,9.057-4.054,9.057-9.057C553.776-359.222,550.022-363.144,545.288-363.438z
		 M517.368-367.056c-0.241-0.016-0.48-0.036-0.725-0.036c-2.766,0-5.282,1.041-7.2,2.742c-1.092-1.365-1.753-3.089-1.753-4.97
		c0-4.41,3.589-7.999,8-7.999c3.092,0,5.76,1.773,7.091,4.346C520.483-371.533,518.604-369.485,517.368-367.056z"/>
	<polygon points="524.769,-346.336 524.769,-348.966 526.941,-347.743 527.627,-348.964 525.157,-350.354 527.627,-351.743 
		526.941,-352.964 524.769,-351.741 524.769,-354.336 522.769,-354.336 522.769,-351.697 520.518,-352.964 519.832,-351.743 
		522.302,-350.354 519.832,-348.964 520.518,-347.743 522.769,-349.01 522.769,-346.336 	"/>
	<polygon points="529.931,-341.981 527.758,-340.759 527.758,-343.354 525.758,-343.354 525.758,-340.715 523.507,-341.981 
		522.821,-340.761 525.291,-339.371 522.821,-337.981 523.507,-336.761 525.758,-338.027 525.758,-335.354 527.758,-335.354 
		527.758,-337.983 529.931,-336.761 530.616,-337.981 528.146,-339.371 530.616,-340.761 	"/>
	<polygon points="538.946,-348.964 536.773,-347.741 536.773,-350.336 534.773,-350.336 534.773,-347.697 532.522,-348.964 
		531.837,-347.743 534.307,-346.354 531.837,-344.964 532.522,-343.743 534.773,-345.01 534.773,-342.336 536.773,-342.336 
		536.773,-344.966 538.946,-343.743 539.632,-344.964 537.162,-346.354 539.632,-347.743 	"/>
</g>
<g>
	<path d="M645.477-366.441c-1.444-6.742-7.433-11.8-14.605-11.8c-1.799,0-3.522,0.32-5.118,0.904
		c-0.949-5.108-5.404-8.98-10.788-8.98c-0.413,0-0.819,0.027-1.222,0.071c0.744,1.112,1.179,2.448,1.179,3.886c0,3.865-3.134,7-7,7
		c-1.438,0-2.773-0.435-3.886-1.179c-0.044,0.401-0.071,0.809-0.071,1.222c0,3.713,1.845,6.987,4.661,8.979
		c-1.653,1.907-2.661,4.389-2.661,7.111c0,5.983,4.836,10.836,10.813,10.865v0.003h1.188v-2h-0.721l-0.457-0.003
		c-4.864-0.023-8.822-4.001-8.822-8.865c0-4.89,3.978-8.868,8.867-8.868c0.15,0,0.299,0.012,0.447,0.022l0.148,0.01l1.314,0.085
		l0.597-1.175c2.225-4.372,6.644-7.089,11.532-7.089c6.062,0,11.382,4.298,12.649,10.219l0.318,1.483l1.514,0.094
		c3.708,0.23,6.612,3.319,6.612,7.03c0,3.878-3.144,7.035-7.017,7.057c-0.042-0.003-0.079-0.005-0.117-0.005l-1.866,0.005v2h1.819
		v-0.006c0.042,0.001,0.082,0.006,0.124,0.006c5.001,0,9.057-4.054,9.057-9.057C653.965-362.225,650.211-366.146,645.477-366.441z
		 M617.557-370.059c-0.241-0.016-0.48-0.036-0.725-0.036c-2.537,0-4.865,0.877-6.715,2.334c-2.012-1.294-3.486-3.354-3.976-5.776
		c0.582,0.117,1.178,0.177,1.78,0.177c4.963,0,9-4.037,9-9c0-0.603-0.06-1.198-0.177-1.78c3.733,0.753,6.629,3.824,7.134,7.64
		C621.166-375.057,618.951-372.802,617.557-370.059z"/>
	<polygon points="625.002,-349.339 625.002,-351.969 627.175,-350.746 627.86,-351.967 625.391,-353.356 627.86,-354.746 
		627.175,-355.967 625.002,-354.744 625.002,-357.339 623.002,-357.339 623.002,-354.7 620.751,-355.967 620.065,-354.746 
		622.535,-353.356 620.065,-351.967 620.751,-350.746 623.002,-352.013 623.002,-349.339 	"/>
	<polygon points="630.164,-344.984 627.991,-343.762 627.991,-346.356 625.991,-346.356 625.991,-343.718 623.74,-344.984 
		623.055,-343.764 625.524,-342.374 623.055,-340.984 623.74,-339.764 625.991,-341.03 625.991,-338.356 627.991,-338.356 
		627.991,-340.986 630.164,-339.764 630.85,-340.984 628.38,-342.374 630.85,-343.764 	"/>
	<polygon points="639.18,-351.967 637.007,-350.744 637.007,-353.339 635.007,-353.339 635.007,-350.7 632.756,-351.967 
		632.07,-350.746 634.54,-349.356 632.07,-347.967 632.756,-346.746 635.007,-348.013 635.007,-345.339 637.007,-345.339 
		637.007,-347.969 639.18,-346.746 639.865,-347.967 637.396,-349.356 639.865,-350.746 	"/>
</g>
<rect x="29.118" y="-934.191" fill="none" width="472.974" height="180.918"/>
<text transform="matrix(1 0 0 1 208.7554 -862.7925)"><tspan x="0" y="0" font-family="'HelveticaNeueLTStd-Th'" font-size="100" letter-spacing="2">60</tspan><tspan x="-99.268" y="60" font-family="'HelveticaNeueLTStd-Lt'" font-size="48" letter-spacing="1">Weather Icons</tspan><tspan x="-3.726" y="104" font-family="'HelveticaNeueLTStd-Lt'" font-size="24">IOS 7 Style</tspan></text>
</svg>
