<?xml version="1.0" encoding="utf-8"?>
<!-- Generator: Adobe Illustrator 16.0.0, SVG Export Plug-In . SVG Version: 6.00 Build 0)  -->
<!DOCTYPE svg PUBLIC "-//W3C//DTD SVG 1.1//EN" "http://www.w3.org/Graphics/SVG/1.1/DTD/svg11.dtd">
<svg version="1.1" id="Layer_1" xmlns="http://www.w3.org/2000/svg" xmlns:xlink="http://www.w3.org/1999/xlink" x="0px" y="0px"
	 width="26px" height="26px" viewBox="0 0 26 26" enable-background="new 0 0 26 26" xml:space="preserve">
<path d="M-86.336-104.509l-1.803,15.077l-0.268,2.237h2.254h6.896l-14.693,18.759l1.789-14.52l0.277-2.245h-2.262h-6.957
	L-86.336-104.509 M-83.481-111.533L-105.148-83.2h11.004l-2.671,21.667l21.667-27.661h-11.004L-83.481-111.533L-83.481-111.533z"/>
<path d="M-499.371-566.77c6.79,0,12.749,4.814,14.171,11.448l0.318,1.483l1.514,0.094c4.203,0.262,7.496,3.763,7.496,7.971
	c0,4.396-3.565,7.977-7.957,8c-0.046-0.003-0.091-0.006-0.137-0.007l-2.043-0.036v0.043h-28.337l-0.578-0.003
	c-5.485-0.027-9.948-4.513-9.948-9.998c0-5.514,4.485-10,9.999-10c0.175,0,0.347,0.014,0.519,0.025l0.149,0.011l1.316,0.087
	l0.598-1.176C-509.798-563.727-504.848-566.77-499.371-566.77 M-499.371-568.77c-6.423,0-11.977,3.678-14.702,9.035
	c-0.266-0.018-0.53-0.04-0.8-0.04c-6.627,0-11.999,5.372-11.999,12c0,6.607,5.34,11.965,11.938,11.998v0.003h30.925v-0.007
	c0.046,0.001,0.091,0.007,0.137,0.007c5.521,0,10-4.477,10-10c0-5.311-4.145-9.642-9.372-9.967
	C-484.84-563.186-491.451-568.77-499.371-568.77L-499.371-568.77z"/>
<g>
	<path d="M-376.42-548.358c-1.444-6.742-7.433-11.8-14.605-11.8c-2.185,0-4.258,0.47-6.127,1.313
		c-1.666-3.202-5.006-5.394-8.865-5.394c-5.522,0-10,4.477-10,9.999c0,2.46,0.898,4.702,2.373,6.442
		c-1.428,1.84-2.287,4.144-2.287,6.653c0,5.983,4.836,10.836,10.813,10.865v0.003h28.007v-0.006
		c0.042,0.001,0.082,0.006,0.124,0.006c5.001,0,9.057-4.054,9.057-9.057C-367.932-544.142-371.686-548.063-376.42-548.358z
		 M-406.018-562.238c3.092,0,5.76,1.773,7.092,4.345c-2.299,1.44-4.178,3.488-5.414,5.918c-0.241-0.016-0.48-0.036-0.725-0.036
		c-2.766,0-5.281,1.041-7.2,2.743c-1.092-1.366-1.753-3.09-1.753-4.971C-414.018-558.649-410.429-562.238-406.018-562.238z
		 M-376.948-532.275c-0.038-0.003-0.077-0.004-0.117-0.005l-2.047-0.042v0.047h-25.403l-0.594-0.003
		c-4.864-0.023-8.822-4.001-8.822-8.865c0-4.89,3.978-8.868,8.867-8.868c0.15,0,0.299,0.012,0.447,0.021l0.148,0.011l1.314,0.085
		l0.598-1.174c2.224-4.373,6.643-7.09,11.531-7.09c6.062,0,11.381,4.298,12.65,10.219l0.317,1.482l1.514,0.095
		c3.708,0.231,6.612,3.319,6.612,7.03C-369.932-535.454-373.075-532.298-376.948-532.275z"/>
	<rect x="-407.012" y="-574.269" width="2" height="7.973"/>
	<rect x="-425.984" y="-555.282" width="7.973" height="2"/>
	<rect x="-421.259" y="-566.501" transform="matrix(0.7071 0.7071 -0.7071 0.7071 -522.0856 129.4241)" width="7.974" height="2"/>
	<rect x="-395.75" y="-569.483" transform="matrix(0.7071 0.7071 -0.7071 0.7071 -515.4865 113.5001)" width="2" height="7.972"/>
</g>
<path d="M-280.677-552.386c-1.444-6.742-7.433-11.8-14.605-11.8c-1.799,0-3.521,0.32-5.118,0.904
	c-0.949-5.108-5.404-8.98-10.788-8.98c-0.413,0-0.819,0.027-1.222,0.071c0.744,1.112,1.179,2.448,1.179,3.886c0,3.865-3.134,7-7,7
	c-1.438,0-2.773-0.435-3.886-1.179c-0.044,0.401-0.071,0.809-0.071,1.222c0,3.712,1.845,6.987,4.661,8.979
	c-1.653,1.907-2.661,4.389-2.661,7.111c0,5.983,4.836,10.836,10.813,10.865v0.003h28.007v-0.006
	c0.042,0.001,0.082,0.006,0.124,0.006c5.001,0,9.057-4.054,9.057-9.057C-272.188-548.169-275.942-552.091-280.677-552.386z
	 M-320.012-559.481c0.582,0.117,1.178,0.177,1.78,0.177c4.963,0,9-4.037,9-9c0-0.603-0.06-1.198-0.177-1.78
	c3.733,0.753,6.629,3.824,7.134,7.64c-2.713,1.444-4.928,3.699-6.322,6.442c-0.241-0.016-0.48-0.036-0.725-0.036
	c-2.537,0-4.865,0.876-6.715,2.334C-318.048-554.999-319.522-557.059-320.012-559.481z M-281.205-536.303
	c-0.038-0.003-0.077-0.004-0.117-0.005l-2.047-0.042v0.047h-25.403l-0.594-0.003c-4.864-0.023-8.822-4.001-8.822-8.865
	c0-4.89,3.978-8.868,8.867-8.868c0.15,0,0.299,0.012,0.447,0.021l0.148,0.011l1.314,0.085l0.598-1.174
	c2.224-4.373,6.643-7.09,11.531-7.09c6.062,0,11.381,4.298,12.65,10.219l0.317,1.482l1.514,0.095
	c3.708,0.231,6.612,3.319,6.612,7.03C-274.188-539.481-277.332-536.325-281.205-536.303z"/>
<g>
	<rect x="-196.031" y="-543.763" width="2" height="7"/>
	<rect x="-188.031" y="-547.763" width="2" height="7"/>
	<rect x="-204.031" y="-547.763" width="2" height="7"/>
	<rect x="-196.031" y="-533.763" width="2" height="7"/>
	<rect x="-188.031" y="-537.763" width="2" height="7"/>
	<rect x="-204.031" y="-537.763" width="2" height="7"/>
	<path d="M-177.403-560.751c-1.596-7.445-8.207-13.029-16.127-13.029c-6.423,0-11.977,3.678-14.702,9.035
		c-0.266-0.018-0.53-0.04-0.8-0.04c-6.627,0-11.999,5.372-11.999,12c0,6.607,5.34,11.965,11.938,11.998v0.003h2.062v-2h-1.604
		l-0.447-0.003c-5.485-0.027-9.948-4.513-9.948-9.998c0-5.514,4.485-10,9.999-10c0.175,0,0.347,0.014,0.52,0.025l0.148,0.01
		l1.316,0.088l0.598-1.176c2.492-4.899,7.443-7.942,12.92-7.942c6.79,0,12.75,4.814,14.172,11.448l0.317,1.482l1.514,0.095
		c4.203,0.262,7.496,3.763,7.496,7.971c0,4.397-3.565,7.977-7.957,8c-0.05-0.003-0.093-0.005-0.137-0.007l-2.043,0.007h-2.863v2
		h4.863v-0.007c0.046,0.001,0.091,0.007,0.137,0.007c5.521,0,10-4.477,10-10C-168.031-556.095-172.176-560.426-177.403-560.751z"/>
</g>
<g>
	<path d="M-379.83-471.394c-1.596-7.445-8.207-13.029-16.127-13.029c-6.423,0-11.977,3.678-14.702,9.035
		c-0.266-0.018-0.53-0.04-0.8-0.04c-6.627,0-11.999,5.372-11.999,12c0,6.607,5.34,11.965,11.938,11.998v0.003h2.062v-2h-1.604
		l-0.447-0.003c-5.485-0.027-9.948-4.513-9.948-9.998c0-5.514,4.485-10,9.999-10c0.175,0,0.347,0.014,0.52,0.025l0.148,0.01
		l1.316,0.088l0.598-1.176c2.492-4.899,7.443-7.942,12.92-7.942c6.79,0,12.75,4.814,14.172,11.448l0.317,1.482l1.514,0.095
		c4.203,0.262,7.496,3.763,7.496,7.971c0,4.397-3.565,7.977-7.957,8c-0.05-0.003-0.093-0.005-0.137-0.007l-2.043,0.007h-2.863v2
		h4.863v-0.007c0.046,0.001,0.091,0.007,0.137,0.007c5.521,0,10-4.477,10-10C-370.458-466.737-374.603-471.068-379.83-471.394z"/>
	<polygon points="-398.458,-444.398 -398.458,-442.458 -398.458,-436.398 -396.458,-436.398 -396.458,-442.458 -396.458,-444.398 
		-396.458,-456.398 -398.458,-456.398 	"/>
	<polygon points="-390.458,-448.398 -390.458,-446.646 -390.458,-440.398 -388.458,-440.398 -388.458,-446.646 -388.458,-448.398 
		-388.458,-460.398 -390.458,-460.398 	"/>
	<polygon points="-406.458,-448.398 -406.458,-446.333 -406.458,-440.398 -404.458,-440.398 -404.458,-446.333 -404.458,-448.398 
		-404.458,-460.398 -406.458,-460.398 	"/>
</g>
<g>
	<polygon points="-84.181,-447.487 -91.063,-457.317 -92.701,-456.17 -85.818,-446.34 -84.706,-444.751 -81.23,-439.787 
		-79.592,-440.934 -83.067,-445.898 	"/>
	<polygon points="-76.179,-447.489 -83.063,-457.317 -84.701,-456.169 -77.815,-446.341 -76.811,-444.905 -73.227,-439.79 
		-71.588,-440.937 -75.172,-446.053 	"/>
	<polygon points="-92.181,-447.487 -99.063,-457.317 -100.701,-456.169 -93.818,-446.34 -92.634,-444.647 -89.229,-439.786 
		-87.592,-440.934 -90.995,-445.795 	"/>
	<path d="M-73.073-471.127c-1.596-7.445-8.207-13.029-16.127-13.029c-6.423,0-11.977,3.678-14.702,9.035
		c-0.266-0.018-0.53-0.04-0.8-0.04c-6.627,0-11.999,5.372-11.999,12c0,6.607,5.34,11.965,11.938,11.998v0.003h2.062v-2h-1.604
		l-0.447-0.003c-5.485-0.027-9.948-4.513-9.948-9.998c0-5.514,4.485-10,9.999-10c0.175,0,0.347,0.014,0.52,0.025l0.148,0.01
		l1.316,0.088l0.598-1.176c2.492-4.899,7.443-7.942,12.92-7.942c6.79,0,12.75,4.814,14.172,11.448l0.317,1.482l1.514,0.095
		c4.203,0.262,7.496,3.763,7.496,7.971c0,4.397-3.565,7.977-7.957,8c-0.05-0.003-0.093-0.005-0.137-0.007l-1.043,0.007h0.137v2
		h0.863v-0.007c0.046,0.001,0.091,0.007,0.137,0.007c5.521,0,10-4.477,10-10C-63.701-466.471-67.846-470.802-73.073-471.127z"/>
</g>
<g>
	<rect x="-101.375" y="-580.209" width="2" height="7.973"/>
	<rect x="-120.375" y="-561.295" width="7.973" height="2"/>
	<rect x="-115.702" y="-572.561" transform="matrix(0.7071 0.7071 -0.7071 0.7071 -436.8755 -88.4122)" width="7.974" height="2"/>
	<rect x="-90.193" y="-575.543" transform="matrix(0.7071 0.7071 -0.7071 0.7071 -430.2764 -104.3361)" width="2" height="7.972"/>
	<rect x="-87.375" y="-539.336" width="2" height="7"/>
	<rect x="-79.375" y="-543.336" width="2" height="7"/>
	<rect x="-95.375" y="-543.336" width="2" height="7"/>
	<rect x="-87.375" y="-529.336" width="2" height="7"/>
	<rect x="-79.375" y="-533.336" width="2" height="7"/>
	<rect x="-95.375" y="-533.336" width="2" height="7"/>
	<path d="M-70.863-554.419c-1.444-6.742-7.433-11.8-14.605-11.8c-2.185,0-4.258,0.47-6.126,1.313
		c-1.667-3.202-5.007-5.394-8.866-5.394c-5.522,0-10,4.477-10,9.999c0,2.46,0.899,4.702,2.373,6.442
		c-1.429,1.84-2.287,4.144-2.287,6.653c0,5.983,4.836,10.836,10.813,10.865v0.003h1.188v-2h-0.721l-0.457-0.003
		c-4.864-0.023-8.822-4.001-8.822-8.865c0-4.89,3.978-8.868,8.867-8.868c0.15,0,0.299,0.012,0.447,0.022l0.148,0.01l1.314,0.085
		l0.597-1.175c2.225-4.372,6.644-7.089,11.532-7.089c6.062,0,11.382,4.298,12.649,10.219l0.318,1.483l1.514,0.094
		c3.708,0.23,6.612,3.319,6.612,7.03c0,3.878-3.144,7.035-7.017,7.057c-0.042-0.003-0.079-0.005-0.117-0.005l-2.047,0.005h-0.819v2
		h2.819v-0.006c0.042,0.001,0.082,0.006,0.124,0.006c5.001,0,9.057-4.054,9.057-9.057
		C-62.375-550.202-66.129-554.124-70.863-554.419z M-98.783-558.036c-0.241-0.016-0.48-0.036-0.725-0.036
		c-2.766,0-5.282,1.041-7.2,2.743c-1.092-1.366-1.753-3.09-1.753-4.971c0-4.41,3.589-7.999,8-7.999c3.091,0,5.76,1.773,7.091,4.345
		C-95.668-562.514-97.548-560.466-98.783-558.036z"/>
</g>
<g>
	<rect x="13.042" y="-540.783" width="2" height="7"/>
	<rect x="21.042" y="-544.783" width="2" height="7"/>
	<rect x="5.042" y="-544.783" width="2" height="7"/>
	<rect x="13.042" y="-530.783" width="2" height="7"/>
	<rect x="21.042" y="-534.783" width="2" height="7"/>
	<rect x="5.042" y="-534.783" width="2" height="7"/>
	<path d="M29.554-555.866c-1.444-6.742-7.433-11.8-14.605-11.8c-1.799,0-3.522,0.32-5.118,0.904
		c-0.949-5.108-5.404-8.98-10.788-8.98c-0.413,0-0.819,0.027-1.222,0.071c0.744,1.112,1.179,2.448,1.179,3.886c0,3.865-3.134,7-7,7
		c-1.438,0-2.773-0.435-3.886-1.179c-0.044,0.401-0.071,0.809-0.071,1.222c0,3.712,1.845,6.987,4.661,8.979
		c-1.653,1.907-2.661,4.389-2.661,7.111c0,5.983,4.836,10.836,10.813,10.865v0.003h1.188v-2H1.321l-0.457-0.003
		c-4.864-0.023-8.822-4.001-8.822-8.865c0-4.89,3.978-8.868,8.867-8.868c0.15,0,0.299,0.012,0.447,0.022l0.148,0.01l1.314,0.085
		l0.597-1.175c2.225-4.372,6.644-7.089,11.532-7.089c6.062,0,11.382,4.298,12.649,10.219l0.318,1.483l1.514,0.094
		c3.708,0.23,6.612,3.319,6.612,7.03c0,3.878-3.144,7.035-7.017,7.057c-0.042-0.003-0.079-0.005-0.117-0.005l-2.047,0.005h-0.819v2
		h2.819v-0.006c0.042,0.001,0.082,0.006,0.124,0.006c5.001,0,9.057-4.054,9.057-9.057C38.042-551.649,34.288-555.571,29.554-555.866
		z M1.634-559.483c-0.241-0.016-0.48-0.036-0.725-0.036c-2.537,0-4.865,0.876-6.715,2.334c-2.012-1.294-3.487-3.354-3.976-5.776
		c0.582,0.117,1.178,0.177,1.78,0.177c4.963,0,9-4.037,9-9c0-0.603-0.06-1.198-0.177-1.78c3.733,0.753,6.629,3.824,7.133,7.64
		C5.244-564.481,3.029-562.227,1.634-559.483z"/>
</g>
<g>
	<polygon points="-294.188,-439.96 -294.188,-438.02 -294.188,-431.96 -292.188,-431.96 -292.188,-438.02 -292.188,-439.96 
		-292.188,-451.96 -294.188,-451.96 	"/>
	<polygon points="-286.188,-443.96 -286.188,-442.207 -286.188,-435.96 -284.188,-435.96 -284.188,-442.207 -284.188,-443.96 
		-284.188,-455.96 -286.188,-455.96 	"/>
	<polygon points="-302.188,-443.96 -302.188,-441.895 -302.188,-435.96 -300.188,-435.96 -300.188,-441.895 -300.188,-443.96 
		-300.188,-455.96 -302.188,-455.96 	"/>
	<rect x="-308.188" y="-490.862" width="2" height="7.973"/>
	<rect x="-327.188" y="-471.948" width="7.973" height="2"/>
	<rect x="-322.515" y="-483.215" transform="matrix(0.7071 0.7071 -0.7071 0.7071 -434.2722 83.9961)" width="7.974" height="2"/>
	<rect x="-297.007" y="-486.197" transform="matrix(0.7071 0.7071 -0.7071 0.7071 -427.673 68.0721)" width="2" height="7.972"/>
	<path d="M-277.677-465.072c-1.444-6.742-7.433-11.8-14.605-11.8c-2.185,0-4.258,0.47-6.127,1.313
		c-1.666-3.202-5.006-5.394-8.865-5.394c-5.522,0-10,4.477-10,9.999c0,2.46,0.898,4.702,2.373,6.442
		c-1.428,1.84-2.287,4.144-2.287,6.653c0,5.983,4.836,10.836,10.813,10.865v0.003h1.188v-2h-0.721l-0.457-0.003
		c-4.864-0.023-8.822-4.001-8.822-8.865c0-4.89,3.978-8.868,8.867-8.868c0.15,0,0.299,0.012,0.447,0.022l0.148,0.01l1.314,0.085
		l0.597-1.175c2.225-4.372,6.644-7.089,11.532-7.089c6.062,0,11.382,4.298,12.649,10.219l0.318,1.483l1.514,0.094
		c3.708,0.23,6.612,3.319,6.612,7.03c0,3.878-3.144,7.035-7.017,7.057c-0.042-0.003-0.079-0.005-0.117-0.005l-2.047,0.005h-0.819v2
		h2.819v-0.006c0.042,0.001,0.082,0.006,0.124,0.006c5.001,0,9.057-4.054,9.057-9.057
		C-269.188-460.855-272.942-464.777-277.677-465.072z M-305.597-468.689c-0.241-0.016-0.48-0.036-0.725-0.036
		c-2.766,0-5.281,1.042-7.2,2.743c-1.092-1.367-1.753-3.09-1.753-4.971c0-4.41,3.589-7.999,8-7.999c3.092,0,5.76,1.773,7.092,4.345
		C-302.481-473.168-304.36-471.119-305.597-468.689z"/>
</g>
<g>
	<polygon points="-193.791,-442.477 -193.791,-440.536 -193.791,-434.477 -191.791,-434.477 -191.791,-440.536 -191.791,-442.477 
		-191.791,-454.477 -193.791,-454.477 	"/>
	<polygon points="-185.791,-446.477 -185.791,-444.724 -185.791,-438.477 -183.791,-438.477 -183.791,-444.724 -183.791,-446.477 
		-183.791,-458.477 -185.791,-458.477 	"/>
	<polygon points="-201.791,-446.477 -201.791,-444.411 -201.791,-438.477 -199.791,-438.477 -199.791,-444.411 -199.791,-446.477 
		-199.791,-458.477 -201.791,-458.477 	"/>
	<path d="M-177.279-467.589c-1.444-6.742-7.433-11.8-14.605-11.8c-1.799,0-3.521,0.32-5.118,0.904
		c-0.949-5.108-5.404-8.98-10.788-8.98c-0.413,0-0.819,0.027-1.222,0.071c0.744,1.112,1.179,2.448,1.179,3.886c0,3.865-3.134,7-7,7
		c-1.438,0-2.773-0.435-3.886-1.179c-0.044,0.401-0.071,0.809-0.071,1.222c0,3.712,1.845,6.987,4.661,8.979
		c-1.653,1.907-2.661,4.389-2.661,7.111c0,5.983,4.836,10.836,10.813,10.865v0.003h1.188v-2h-0.721l-0.457-0.003
		c-4.864-0.023-8.822-4.001-8.822-8.865c0-4.89,3.978-8.868,8.867-8.868c0.15,0,0.299,0.012,0.447,0.022l0.148,0.01l1.314,0.085
		l0.597-1.175c2.225-4.372,6.644-7.089,11.532-7.089c6.062,0,11.382,4.298,12.649,10.219l0.318,1.483l1.514,0.094
		c3.708,0.23,6.612,3.319,6.612,7.03c0,3.878-3.144,7.035-7.017,7.057c-0.042-0.003-0.079-0.005-0.117-0.005l-2.047,0.005h-0.819v2
		h2.819v-0.006c0.042,0.001,0.082,0.006,0.124,0.006c5.001,0,9.057-4.054,9.057-9.057
		C-168.791-463.372-172.545-467.294-177.279-467.589z M-205.199-471.206c-0.241-0.016-0.48-0.036-0.725-0.036
		c-2.537,0-4.865,0.876-6.715,2.334c-2.012-1.294-3.486-3.354-3.976-5.776c0.582,0.117,1.178,0.177,1.78,0.177c4.963,0,9-4.037,9-9
		c0-0.603-0.06-1.198-0.177-1.78c3.733,0.753,6.629,3.824,7.134,7.641C-201.59-476.204-203.805-473.948-205.199-471.206z"/>
</g>
<g>
	<polygon points="23.244,-441.532 16.361,-451.362 14.724,-450.215 21.606,-440.385 22.719,-438.796 26.194,-433.832 
		27.833,-434.979 24.357,-439.943 	"/>
	<polygon points="31.246,-441.534 24.361,-451.362 22.724,-450.214 29.609,-440.386 30.614,-438.95 34.198,-433.835 
		35.837,-434.981 32.253,-440.098 	"/>
	<polygon points="15.244,-441.532 8.361,-451.362 6.724,-450.214 13.606,-440.385 14.791,-438.692 18.195,-433.831 19.833,-434.979 
		16.43,-439.84 	"/>
	<rect x="2.724" y="-489.081" width="2" height="7.973"/>
	<rect x="-16.276" y="-470.167" width="7.973" height="2"/>
	<rect x="-11.603" y="-481.433" transform="matrix(0.7071 0.7071 -0.7071 0.7071 -341.9486 -135.3303)" width="7.974" height="2"/>
	<rect x="13.905" y="-484.415" transform="matrix(0.7071 0.7071 -0.7071 0.7071 -335.3494 -151.2542)" width="2" height="7.972"/>
	<path d="M33.235-463.291c-1.444-6.742-7.433-11.8-14.605-11.8c-2.185,0-4.258,0.47-6.126,1.313
		c-1.667-3.202-5.007-5.394-8.866-5.394c-5.522,0-10,4.477-10,9.999c0,2.46,0.899,4.702,2.373,6.442
		c-1.429,1.84-2.287,4.144-2.287,6.653c0,5.983,4.836,10.836,10.813,10.865v0.003h1.188v-2H5.003l-0.457-0.003
		c-4.864-0.023-8.822-4.001-8.822-8.865c0-4.89,3.978-8.868,8.867-8.868c0.15,0,0.299,0.012,0.447,0.022l0.148,0.01l1.314,0.085
		l0.597-1.175c2.225-4.372,6.644-7.089,11.532-7.089c6.062,0,11.382,4.298,12.649,10.219l0.318,1.483l1.514,0.094
		c3.708,0.23,6.612,3.319,6.612,7.03c0,3.878-3.144,7.035-7.017,7.057c-0.042-0.003-0.079-0.005-0.117-0.005l-0.047,0.005h-0.819v2
		h0.819v-0.006c0.042,0.001,0.082,0.006,0.124,0.006c5.001,0,9.057-4.054,9.057-9.057C41.724-459.074,37.97-462.996,33.235-463.291z
		 M5.315-466.908c-0.241-0.016-0.48-0.036-0.725-0.036c-2.766,0-5.282,1.042-7.2,2.743c-1.092-1.367-1.753-3.09-1.753-4.971
		c0-4.41,3.589-7.999,8-7.999c3.091,0,5.76,1.773,7.091,4.345C8.431-471.387,6.551-469.338,5.315-466.908z"/>
</g>
<g>
	<polygon points="-700.187,-345.047 -707.069,-354.877 -708.707,-353.729 -701.824,-343.899 -700.712,-342.311 -697.236,-337.347 
		-695.598,-338.493 -699.073,-343.458 	"/>
	<polygon points="-692.185,-345.049 -699.069,-354.877 -700.707,-353.729 -693.821,-343.9 -692.816,-342.465 -689.232,-337.35 
		-687.594,-338.496 -691.178,-343.612 	"/>
	<polygon points="-708.187,-345.047 -715.069,-354.877 -716.707,-353.729 -709.824,-343.899 -708.64,-342.207 -705.235,-337.346 
		-703.598,-338.493 -707.001,-343.354 	"/>
	<path d="M-690.195-366.806c-1.444-6.742-7.433-11.8-14.605-11.8c-1.799,0-3.522,0.32-5.118,0.904
		c-0.949-5.108-5.404-8.98-10.788-8.98c-0.413,0-0.819,0.027-1.222,0.071c0.744,1.112,1.179,2.448,1.179,3.886c0,3.865-3.134,7-7,7
		c-1.438,0-2.773-0.435-3.886-1.179c-0.044,0.401-0.071,0.809-0.071,1.222c0,3.712,1.845,6.987,4.661,8.979
		c-1.653,1.907-2.661,4.389-2.661,7.111c0,5.983,4.836,10.836,10.813,10.865v0.003h1.188v-2h-0.721l-0.457-0.003
		c-4.864-0.023-8.822-4.001-8.822-8.865c0-4.89,3.978-8.868,8.867-8.868c0.15,0,0.299,0.012,0.447,0.022l0.148,0.01l1.314,0.085
		l0.597-1.175c2.225-4.372,6.644-7.089,11.532-7.089c6.062,0,11.382,4.298,12.649,10.219l0.318,1.483l1.514,0.094
		c3.708,0.23,6.612,3.319,6.612,7.03c0,3.878-3.144,7.035-7.017,7.057c-0.042-0.003-0.079-0.005-0.117-0.005l-0.047,0.005h-0.819v2
		h0.819v-0.006c0.042,0.001,0.082,0.006,0.124,0.006c5.001,0,9.057-4.054,9.057-9.057
		C-681.707-362.589-685.461-366.511-690.195-366.806z M-718.115-370.423c-0.241-0.016-0.48-0.036-0.725-0.036
		c-2.537,0-4.865,0.876-6.715,2.334c-2.012-1.294-3.487-3.354-3.976-5.776c0.582,0.117,1.178,0.177,1.78,0.177c4.963,0,9-4.037,9-9
		c0-0.603-0.06-1.198-0.177-1.78c3.733,0.753,6.629,3.824,7.133,7.641C-714.505-375.421-716.72-373.165-718.115-370.423z"/>
</g>
<g>
	<rect x="-707.707" y="-448.894" width="2" height="4"/>
	<rect x="-699.707" y="-452.915" width="2" height="4.021"/>
	<rect x="-715.707" y="-452.915" width="2" height="4.021"/>
	<path d="M-689.079-468.882c-1.596-7.445-8.207-13.029-16.127-13.029c-6.423,0-11.977,3.678-14.702,9.035
		c-0.266-0.018-0.53-0.04-0.8-0.04c-6.627,0-11.999,5.372-11.999,12c0,6.607,5.34,11.965,11.938,11.998v0.003h2.062v-2h-1.604
		l-0.447-0.003c-5.485-0.027-9.948-4.513-9.948-9.998c0-5.514,4.485-10,9.999-10c0.175,0,0.347,0.014,0.52,0.025l0.148,0.01
		l1.316,0.088l0.598-1.176c2.492-4.899,7.443-7.942,12.92-7.942c6.79,0,12.75,4.814,14.172,11.448l0.317,1.482l1.514,0.095
		c4.203,0.262,7.496,3.763,7.496,7.971c0,4.397-3.565,7.977-7.957,8c-0.05-0.003-0.093-0.005-0.137-0.007l-2.043,0.007h-2.863v2
		h4.863v-0.007c0.046,0.001,0.091,0.007,0.137,0.007c5.521,0,10-4.477,10-10C-679.707-464.226-683.852-468.557-689.079-468.882z"/>
	<circle cx="-698.707" cy="-443.873" r="1.5"/>
	<circle cx="-706.707" cy="-439.904" r="1.5"/>
	<circle cx="-714.707" cy="-443.915" r="1.5"/>
</g>
<g>
	<rect x="-614.786" y="-488.348" width="2" height="7.973"/>
	<rect x="-633.786" y="-469.434" width="7.973" height="2"/>
	<rect x="-629.113" y="-480.7" transform="matrix(0.7071 0.7071 -0.7071 0.7071 -522.2944 301.5299)" width="7.974" height="2"/>
	<rect x="-603.604" y="-483.682" transform="matrix(0.7071 0.7071 -0.7071 0.7071 -515.6953 285.606)" width="2" height="7.972"/>
	<path d="M-584.274-462.558c-1.444-6.742-7.433-11.8-14.605-11.8c-2.185,0-4.258,0.47-6.126,1.313
		c-1.667-3.202-5.007-5.394-8.866-5.394c-5.522,0-10,4.477-10,9.999c0,2.46,0.899,4.702,2.373,6.442
		c-1.429,1.84-2.287,4.144-2.287,6.653c0,5.983,4.836,10.836,10.813,10.865v0.003h1.188v-2h-0.721l-0.457-0.003
		c-4.864-0.023-8.822-4.001-8.822-8.865c0-4.89,3.978-8.868,8.867-8.868c0.15,0,0.299,0.012,0.447,0.022l0.148,0.01l1.314,0.085
		l0.597-1.175c2.225-4.372,6.644-7.089,11.532-7.089c6.062,0,11.382,4.298,12.649,10.219l0.318,1.483l1.514,0.094
		c3.708,0.23,6.612,3.319,6.612,7.03c0,3.878-3.144,7.035-7.017,7.057c-0.042-0.003-0.079-0.005-0.117-0.005l-2.047,0.005h-0.819v2
		h2.819v-0.006c0.042,0.001,0.082,0.006,0.124,0.006c5.001,0,9.057-4.054,9.057-9.057
		C-575.786-458.341-579.54-462.263-584.274-462.558z M-612.194-466.175c-0.241-0.016-0.48-0.036-0.725-0.036
		c-2.766,0-5.282,1.042-7.2,2.743c-1.092-1.367-1.753-3.09-1.753-4.971c0-4.41,3.589-7.999,8-7.999c3.091,0,5.76,1.773,7.091,4.345
		C-609.079-470.653-610.959-468.604-612.194-466.175z"/>
	<rect x="-600.786" y="-444.459" width="2" height="4"/>
	<rect x="-592.786" y="-448.48" width="2" height="4.021"/>
	<rect x="-608.786" y="-448.48" width="2" height="4.021"/>
	<circle cx="-591.786" cy="-439.438" r="1.5"/>
	<circle cx="-599.786" cy="-435.47" r="1.5"/>
	<circle cx="-607.786" cy="-439.48" r="1.5"/>
</g>
<g>
	<path d="M-483.349-463.515c-1.444-6.742-7.433-11.8-14.605-11.8c-1.799,0-3.522,0.32-5.118,0.904
		c-0.949-5.108-5.404-8.98-10.788-8.98c-0.413,0-0.819,0.027-1.222,0.071c0.744,1.112,1.179,2.448,1.179,3.886c0,3.865-3.134,7-7,7
		c-1.438,0-2.773-0.435-3.886-1.179c-0.044,0.401-0.071,0.809-0.071,1.222c0,3.712,1.845,6.987,4.661,8.979
		c-1.653,1.907-2.661,4.389-2.661,7.111c0,5.983,4.836,10.836,10.813,10.865v0.003h1.188v-2h-0.721l-0.457-0.003
		c-4.864-0.023-8.822-4.001-8.822-8.865c0-4.89,3.978-8.868,8.867-8.868c0.15,0,0.299,0.012,0.447,0.022l0.148,0.01l1.314,0.085
		l0.597-1.175c2.225-4.372,6.644-7.089,11.532-7.089c6.062,0,11.382,4.298,12.649,10.219l0.318,1.483l1.514,0.094
		c3.708,0.23,6.612,3.319,6.612,7.03c0,3.878-3.144,7.035-7.017,7.057c-0.042-0.003-0.079-0.005-0.117-0.005l-2.047,0.005h-0.819v2
		h2.819v-0.006c0.042,0.001,0.082,0.006,0.124,0.006c5.001,0,9.057-4.054,9.057-9.057
		C-474.86-459.298-478.614-463.22-483.349-463.515z M-511.269-467.132c-0.241-0.016-0.48-0.036-0.725-0.036
		c-2.537,0-4.865,0.876-6.715,2.334c-2.012-1.294-3.487-3.354-3.976-5.776c0.582,0.117,1.178,0.177,1.78,0.177c4.963,0,9-4.037,9-9
		c0-0.603-0.06-1.198-0.177-1.78c3.733,0.753,6.629,3.824,7.133,7.641C-507.658-472.13-509.873-469.874-511.269-467.132z"/>
	<rect x="-499.86" y="-445.416" width="2" height="4"/>
	<rect x="-491.86" y="-449.438" width="2" height="4.021"/>
	<rect x="-507.86" y="-449.438" width="2" height="4.021"/>
	<circle cx="-490.86" cy="-440.396" r="1.5"/>
	<circle cx="-498.86" cy="-436.427" r="1.5"/>
	<circle cx="-506.86" cy="-440.438" r="1.5"/>
</g>
<g>
	<path d="M-586.658-370.484c-1.596-7.445-8.207-13.029-16.127-13.029c-6.423,0-11.977,3.678-14.702,9.035
		c-0.266-0.018-0.53-0.04-0.8-0.04c-6.627,0-11.999,5.372-11.999,12c0,6.607,5.34,11.965,11.938,11.998v0.003h6.062v-2h-5.604
		l-0.447-0.003c-5.485-0.027-9.948-4.513-9.948-9.998c0-5.514,4.485-10,9.999-10c0.175,0,0.347,0.014,0.52,0.025l0.148,0.01
		l1.316,0.088l0.598-1.176c2.492-4.899,7.443-7.942,12.92-7.942c6.79,0,12.75,4.814,14.172,11.448l0.317,1.482l1.514,0.095
		c4.203,0.262,7.496,3.763,7.496,7.971c0,4.397-3.565,7.977-7.957,8c-0.05-0.003-0.093-0.005-0.137-0.007l-5.043,0.007h0.137v2
		h4.863v-0.007c0.046,0.001,0.091,0.007,0.137,0.007c5.521,0,10-4.477,10-10C-577.286-365.828-581.431-370.159-586.658-370.484z"/>
	<polygon points="-602.444,-350.514 -600.675,-350.514 -600.244,-350.514 -598.234,-350.514 -604.648,-359.675 -606.286,-358.527 
		-602.075,-352.514 -603.846,-352.514 -606.286,-352.514 -605.015,-350.697 -603.902,-349.108 -597.925,-340.514 -596.286,-341.66 
		-602.264,-350.256 	"/>
</g>
<g>
	<rect x="-510.86" y="-389.614" width="2" height="7.973"/>
	<rect x="-529.86" y="-370.7" width="7.973" height="2"/>
	<rect x="-525.187" y="-381.967" transform="matrix(0.7071 0.7071 -0.7071 0.7071 -422.0402 256.9615)" width="7.974" height="2"/>
	<rect x="-499.679" y="-384.949" transform="matrix(0.7071 0.7071 -0.7071 0.7071 -415.4411 241.0376)" width="2" height="7.972"/>
	<path d="M-480.349-363.824c-1.444-6.742-7.433-11.8-14.605-11.8c-2.185,0-4.258,0.47-6.127,1.313
		c-1.666-3.202-5.006-5.394-8.865-5.394c-5.522,0-10,4.477-10,9.999c0,2.46,0.898,4.702,2.373,6.442
		c-1.428,1.84-2.287,4.144-2.287,6.653c0,5.983,4.836,10.836,10.813,10.865v0.003h4.188v-2h-3.721l-0.457-0.003
		c-4.864-0.023-8.822-4.001-8.822-8.865c0-4.89,3.978-8.868,8.867-8.868c0.15,0,0.299,0.012,0.447,0.022l0.148,0.01l1.314,0.085
		l0.597-1.175c2.225-4.372,6.644-7.089,11.532-7.089c6.062,0,11.382,4.298,12.649,10.219l0.318,1.483l1.514,0.094
		c3.708,0.23,6.612,3.319,6.612,7.03c0,3.878-3.144,7.035-7.017,7.057c-0.042-0.003-0.079-0.005-0.117-0.005l-2.047,0.005h-3.819v2
		h5.819v-0.006c0.042,0.001,0.082,0.006,0.124,0.006c5.001,0,9.057-4.054,9.057-9.057
		C-471.86-359.607-475.614-363.529-480.349-363.824z M-508.269-367.441c-0.241-0.016-0.48-0.036-0.725-0.036
		c-2.766,0-5.281,1.041-7.2,2.743c-1.092-1.366-1.753-3.09-1.753-4.971c0-4.41,3.589-7.999,8-7.999c3.092,0,5.76,1.773,7.092,4.345
		C-505.153-371.919-507.032-369.871-508.269-367.441z"/>
	<polygon points="-496.019,-345.734 -494.249,-345.734 -493.818,-345.734 -491.809,-345.734 -498.223,-354.896 -499.86,-353.748 
		-495.649,-347.734 -497.42,-347.734 -499.86,-347.734 -498.589,-345.918 -497.477,-344.329 -491.499,-335.734 -489.86,-336.881 
		-495.838,-345.477 	"/>
</g>
<g>
	<path d="M-380.764-366.12c-1.444-6.742-7.433-11.8-14.605-11.8c-1.799,0-3.521,0.32-5.118,0.904
		c-0.949-5.108-5.404-8.98-10.788-8.98c-0.413,0-0.819,0.027-1.222,0.071c0.744,1.112,1.179,2.448,1.179,3.886c0,3.865-3.134,7-7,7
		c-1.438,0-2.773-0.435-3.886-1.179c-0.044,0.401-0.071,0.809-0.071,1.222c0,3.712,1.845,6.987,4.661,8.979
		c-1.653,1.907-2.661,4.389-2.661,7.111c0,5.983,4.836,10.836,10.813,10.865v0.003h4.188v-2h-3.721l-0.457-0.003
		c-4.864-0.023-8.822-4.001-8.822-8.865c0-4.89,3.978-8.868,8.867-8.868c0.15,0,0.299,0.012,0.447,0.022l0.148,0.01l1.314,0.085
		l0.597-1.175c2.225-4.372,6.644-7.089,11.532-7.089c6.062,0,11.382,4.298,12.649,10.219l0.318,1.483l1.514,0.094
		c3.708,0.23,6.612,3.319,6.612,7.03c0,3.878-3.144,7.035-7.017,7.057c-0.042-0.003-0.079-0.005-0.117-0.005l-2.047,0.005h-3.819v2
		h5.819v-0.006c0.042,0.001,0.082,0.006,0.124,0.006c5.001,0,9.057-4.054,9.057-9.057
		C-372.275-361.903-376.029-365.825-380.764-366.12z M-408.684-369.737c-0.241-0.016-0.48-0.036-0.725-0.036
		c-2.537,0-4.865,0.876-6.715,2.334c-2.012-1.294-3.486-3.354-3.976-5.776c0.582,0.117,1.178,0.177,1.78,0.177c4.963,0,9-4.037,9-9
		c0-0.603-0.06-1.198-0.177-1.78c3.733,0.753,6.629,3.824,7.134,7.64C-405.074-374.735-407.289-372.48-408.684-369.737z"/>
	<polygon points="-396.434,-348.03 -394.664,-348.03 -394.233,-348.03 -392.224,-348.03 -398.638,-357.191 -400.275,-356.044 
		-396.064,-350.03 -397.835,-350.03 -400.275,-350.03 -399.004,-348.214 -397.892,-346.625 -391.914,-338.03 -390.275,-339.177 
		-396.253,-347.772 	"/>
</g>
<g>
	<path d="M-279.879-369.984c-1.596-7.445-8.207-13.029-16.127-13.029c-6.423,0-11.977,3.678-14.702,9.035
		c-0.266-0.018-0.53-0.04-0.8-0.04c-6.627,0-11.999,5.372-11.999,12c0,6.607,5.34,11.965,11.938,11.998v0.003h1.062v-2h-0.604
		l-0.447-0.003c-5.485-0.027-9.948-4.513-9.948-9.998c0-5.514,4.485-10,9.999-10c0.175,0,0.347,0.014,0.52,0.025l0.148,0.01
		l1.316,0.088l0.598-1.176c2.492-4.899,7.443-7.942,12.92-7.942c6.79,0,12.75,4.814,14.172,11.448l0.317,1.482l1.514,0.095
		c4.203,0.262,7.496,3.763,7.496,7.971c0,4.397-3.565,7.977-7.957,8c-0.05-0.003-0.093-0.005-0.137-0.007l-0.906,0.007v2h0.863
		v-0.007c0.046,0.001,0.091,0.007,0.137,0.007c5.521,0,10-4.477,10-10C-270.507-365.328-274.651-369.659-279.879-369.984z"/>
	
		<rect x="-311.073" y="-352.019" transform="matrix(-0.5736 -0.8191 0.8191 -0.5736 -193.1929 -802.6006)" width="11.183" height="1.999"/>
	
		<rect x="-293.098" y="-352.019" transform="matrix(-0.5736 -0.8191 0.8191 -0.5736 -164.9074 -787.8775)" width="11.183" height="1.999"/>
	<polygon points="-294.665,-347.014 -292.896,-347.014 -292.465,-347.014 -290.455,-347.014 -296.869,-356.175 -298.507,-355.027 
		-294.296,-349.014 -296.066,-349.014 -298.507,-349.014 -297.235,-347.197 -296.123,-345.608 -291.507,-339.014 -289.868,-340.16 
		-294.484,-346.756 	"/>
</g>
<g>
	<rect x="-205.031" y="-389.451" width="2" height="7.973"/>
	<rect x="-224.031" y="-370.537" width="7.973" height="2"/>
	<rect x="-219.358" y="-381.804" transform="matrix(0.7071 0.7071 -0.7071 0.7071 -332.3496 40.7556)" width="7.974" height="2"/>
	<rect x="-193.85" y="-384.786" transform="matrix(0.7071 0.7071 -0.7071 0.7071 -325.7505 24.8316)" width="2" height="7.972"/>
	<path d="M-174.52-363.661c-1.444-6.742-7.433-11.8-14.605-11.8c-2.185,0-4.258,0.47-6.126,1.313
		c-1.667-3.202-5.007-5.394-8.866-5.394c-5.522,0-10,4.477-10,9.999c0,2.46,0.899,4.702,2.373,6.442
		c-1.429,1.84-2.287,4.144-2.287,6.653c0,5.983,4.836,10.836,10.813,10.865v0.003h0.188v-2l-0.178-0.003
		c-4.864-0.023-8.822-4.001-8.822-8.865c0-4.89,3.978-8.868,8.867-8.868c0.15,0,0.299,0.012,0.447,0.022l0.148,0.01l1.314,0.085
		l0.597-1.175c2.225-4.372,6.644-7.089,11.532-7.089c6.062,0,11.382,4.298,12.649,10.219l0.318,1.483l1.514,0.094
		c3.708,0.23,6.612,3.319,6.612,7.03c0,3.878-3.144,7.035-7.017,7.057c-0.042-0.003-0.079-0.005-0.117-0.005l-0.866,0.005v2h0.819
		v-0.006c0.042,0.001,0.082,0.006,0.124,0.006c5.001,0,9.057-4.054,9.057-9.057C-166.031-359.444-169.785-363.366-174.52-363.661z
		 M-202.439-367.278c-0.241-0.016-0.48-0.036-0.725-0.036c-2.766,0-5.282,1.042-7.2,2.743c-1.092-1.367-1.753-3.09-1.753-4.971
		c0-4.41,3.589-7.999,8-7.999c3.091,0,5.76,1.773,7.091,4.345C-199.324-371.757-201.204-369.708-202.439-367.278z"/>
	
		<rect x="-204.61" y="-347.581" transform="matrix(-0.5736 -0.8191 0.8191 -0.5736 -29.2944 -708.4114)" width="11.183" height="1.999"/>
	
		<rect x="-186.635" y="-347.581" transform="matrix(-0.5736 -0.8191 0.8191 -0.5736 -1.0089 -693.6882)" width="11.183" height="1.999"/>
	<polygon points="-188.202,-342.575 -186.433,-342.575 -186.002,-342.575 -183.992,-342.575 -190.406,-351.736 -192.044,-350.589 
		-187.833,-344.575 -189.604,-344.575 -192.044,-344.575 -190.772,-342.759 -189.66,-341.17 -185.044,-334.575 -183.405,-335.722 
		-188.021,-342.317 	"/>
</g>
<g>
	<path d="M-72.682-366.619c-1.444-6.742-7.433-11.8-14.605-11.8c-1.799,0-3.522,0.32-5.118,0.904
		c-0.949-5.108-5.404-8.98-10.788-8.98c-0.413,0-0.819,0.027-1.222,0.071c0.744,1.112,1.179,2.448,1.179,3.886c0,3.865-3.134,7-7,7
		c-1.438,0-2.773-0.435-3.886-1.179c-0.044,0.401-0.071,0.809-0.071,1.222c0,3.712,1.845,6.987,4.661,8.979
		c-1.653,1.907-2.661,4.389-2.661,7.111c0,5.983,4.836,10.836,10.813,10.865v0.003h0.188v-2l-0.178-0.003
		c-4.864-0.023-8.822-4.001-8.822-8.865c0-4.89,3.978-8.868,8.867-8.868c0.15,0,0.299,0.012,0.447,0.022l0.148,0.01l1.314,0.085
		l0.597-1.175c2.225-4.372,6.644-7.089,11.532-7.089c6.062,0,11.382,4.298,12.649,10.219l0.318,1.483l1.514,0.094
		c3.708,0.23,6.612,3.319,6.612,7.03c0,3.878-3.144,7.035-7.017,7.057c-0.042-0.003-0.079-0.005-0.117-0.005l-0.866,0.005v2h0.819
		v-0.006c0.042,0.001,0.082,0.006,0.124,0.006c5.001,0,9.057-4.054,9.057-9.057C-64.193-362.402-67.947-366.324-72.682-366.619z
		 M-100.602-370.236c-0.241-0.016-0.48-0.036-0.725-0.036c-2.537,0-4.865,0.876-6.715,2.334c-2.012-1.294-3.487-3.354-3.976-5.776
		c0.582,0.117,1.178,0.177,1.78,0.177c4.963,0,9-4.037,9-9c0-0.603-0.06-1.198-0.177-1.78c3.733,0.753,6.629,3.824,7.133,7.641
		C-96.991-375.234-99.206-372.979-100.602-370.236z"/>
	
		<rect x="-102.773" y="-350.539" transform="matrix(-0.5736 -0.8191 0.8191 -0.5736 133.3829 -629.6508)" width="11.183" height="1.999"/>
	
		<rect x="-84.798" y="-350.539" transform="matrix(-0.5736 -0.8191 0.8191 -0.5736 161.6685 -614.9276)" width="11.183" height="1.999"/>
	<polygon points="-86.365,-345.533 -84.596,-345.533 -84.165,-345.533 -82.155,-345.533 -88.569,-354.694 -90.207,-353.547 
		-85.996,-347.533 -87.767,-347.533 -90.207,-347.533 -88.936,-345.717 -87.823,-344.128 -83.207,-337.533 -81.568,-338.68 
		-86.185,-345.275 	"/>
</g>
<g>
	<g>
		<path d="M-483.244-280.164c-1.596-7.445-8.207-13.029-16.127-13.029c-6.423,0-11.977,3.678-14.702,9.035
			c-0.266-0.018-0.53-0.04-0.8-0.04c-6.627,0-11.999,5.372-11.999,12c0,6.607,5.34,11.965,11.938,11.998v0.003h2.062v-2h-1.604
			l-0.447-0.003c-5.485-0.027-9.948-4.513-9.948-9.998c0-5.514,4.485-10,9.999-10c0.175,0,0.347,0.014,0.52,0.025l0.148,0.01
			l1.316,0.088l0.598-1.176c2.492-4.899,7.443-7.942,12.92-7.942c6.79,0,12.75,4.814,14.172,11.448l0.317,1.482l1.514,0.095
			c4.203,0.262,7.496,3.763,7.496,7.971c0,4.397-3.565,7.977-7.957,8c-0.05-0.003-0.093-0.005-0.137-0.007l-2.043,0.007h-2.863v2
			h4.863v-0.007c0.046,0.001,0.091,0.007,0.137,0.007c5.521,0,10-4.477,10-10C-473.872-275.508-478.017-279.839-483.244-280.164z"/>
	</g>
	<g>
		<circle cx="-508.372" cy="-266.621" r="1.5"/>
	</g>
	<g>
		<circle cx="-504.372" cy="-260.697" r="1.5"/>
	</g>
	<g>
		<circle cx="-496.372" cy="-260.697" r="1.5"/>
	</g>
	<g>
		<circle cx="-500.372" cy="-266.621" r="1.5"/>
	</g>
	<g>
		<circle cx="-492.372" cy="-266.621" r="1.5"/>
	</g>
	<g>
		<circle cx="-508.372" cy="-254.676" r="1.5"/>
	</g>
	<g>
		<circle cx="-500.372" cy="-254.676" r="1.5"/>
	</g>
	<g>
		<circle cx="-492.372" cy="-254.676" r="1.5"/>
	</g>
</g>
<g>
	<g>
		<rect x="-407.458" y="-295.642" width="2" height="7.973"/>
	</g>
	<g>
		<rect x="-426.458" y="-276.728" width="7.973" height="2"/>
	</g>
	<g>
		<rect x="-421.785" y="-287.994" transform="matrix(0.7071 0.7071 -0.7071 0.7071 -325.3057 211.3691)" width="7.974" height="2"/>
	</g>
	<g>
		<rect x="-396.276" y="-290.976" transform="matrix(0.7071 0.7071 -0.7071 0.7071 -318.7065 195.4451)" width="2" height="7.972"/>
	</g>
	<g>
		<path d="M-376.946-269.852c-1.444-6.742-7.433-11.8-14.605-11.8c-2.185,0-4.258,0.47-6.127,1.313
			c-1.666-3.202-5.006-5.394-8.865-5.394c-5.522,0-10,4.477-10,9.999c0,2.46,0.898,4.702,2.373,6.442
			c-1.428,1.84-2.287,4.144-2.287,6.653c0,5.983,4.836,10.836,10.813,10.865v0.003h1.188v-2h-0.721l-0.457-0.003
			c-4.864-0.023-8.822-4.001-8.822-8.865c0-4.89,3.978-8.868,8.867-8.868c0.15,0,0.299,0.012,0.447,0.022l0.148,0.01l1.314,0.085
			l0.597-1.175c2.225-4.372,6.644-7.089,11.532-7.089c6.062,0,11.382,4.298,12.649,10.219l0.318,1.483l1.514,0.094
			c3.708,0.23,6.612,3.319,6.612,7.03c0,3.878-3.144,7.035-7.017,7.057c-0.042-0.003-0.079-0.005-0.117-0.005l-2.047,0.005h-1.819v2
			h3.819v-0.006c0.042,0.001,0.082,0.006,0.124,0.006c5.001,0,9.057-4.054,9.057-9.057
			C-368.458-265.635-372.212-269.557-376.946-269.852z M-404.866-273.469c-0.241-0.016-0.48-0.036-0.725-0.036
			c-2.766,0-5.281,1.042-7.2,2.743c-1.092-1.367-1.753-3.09-1.753-4.971c0-4.41,3.589-7.999,8-7.999c3.092,0,5.76,1.773,7.092,4.345
			C-401.751-277.947-403.63-275.898-404.866-273.469z"/>
	</g>
	<g>
		<circle cx="-400.969" cy="-258.258" r="1.5"/>
	</g>
	<g>
		<circle cx="-396.969" cy="-252.258" r="1.5"/>
	</g>
	<g>
		<circle cx="-388.969" cy="-252.258" r="1.5"/>
	</g>
	<g>
		<circle cx="-392.969" cy="-258.258" r="1.5"/>
	</g>
	<g>
		<circle cx="-384.969" cy="-258.258" r="1.5"/>
	</g>
	<g>
		<circle cx="-400.969" cy="-246.236" r="1.5"/>
	</g>
	<g>
		<circle cx="-392.969" cy="-246.236" r="1.5"/>
	</g>
	<g>
		<circle cx="-384.969" cy="-246.236" r="1.5"/>
	</g>
</g>
<g>
	<g>
		<path d="M-280.995-273.808c-1.444-6.742-7.433-11.8-14.605-11.8c-1.799,0-3.521,0.32-5.118,0.904
			c-0.949-5.108-5.404-8.98-10.788-8.98c-0.413,0-0.819,0.027-1.222,0.071c0.744,1.112,1.179,2.448,1.179,3.886c0,3.865-3.134,7-7,7
			c-1.438,0-2.773-0.435-3.886-1.179c-0.044,0.401-0.071,0.809-0.071,1.222c0,3.712,1.845,6.987,4.661,8.979
			c-1.653,1.907-2.661,4.389-2.661,7.111c0,5.983,4.836,10.836,10.813,10.865v0.003h1.188v-2h-0.721l-0.457-0.003
			c-4.864-0.023-8.822-4.001-8.822-8.865c0-4.89,3.978-8.868,8.867-8.868c0.15,0,0.299,0.012,0.447,0.022l0.148,0.01l1.314,0.085
			l0.597-1.175c2.225-4.372,6.644-7.089,11.532-7.089c6.062,0,11.382,4.298,12.649,10.219l0.318,1.483l1.514,0.094
			c3.708,0.23,6.612,3.319,6.612,7.03c0,3.878-3.144,7.035-7.017,7.057c-0.042-0.003-0.079-0.005-0.117-0.005l-2.047,0.005h-1.819v2
			h3.819v-0.006c0.042,0.001,0.082,0.006,0.124,0.006c5.001,0,9.057-4.054,9.057-9.057
			C-272.507-269.591-276.261-273.513-280.995-273.808z M-308.915-277.425c-0.241-0.016-0.48-0.036-0.725-0.036
			c-2.537,0-4.865,0.876-6.715,2.334c-2.012-1.294-3.486-3.354-3.976-5.776c0.582,0.117,1.178,0.177,1.78,0.177c4.963,0,9-4.037,9-9
			c0-0.603-0.06-1.198-0.177-1.78c3.733,0.753,6.629,3.824,7.134,7.64C-305.306-282.423-307.521-280.168-308.915-277.425z"/>
	</g>
	<g>
		<circle cx="-305.007" cy="-262.215" r="1.5"/>
	</g>
	<g>
		<circle cx="-301.007" cy="-256.215" r="1.5"/>
	</g>
	<g>
		<circle cx="-293.007" cy="-256.215" r="1.5"/>
	</g>
	<g>
		<circle cx="-297.007" cy="-262.215" r="1.5"/>
	</g>
	<g>
		<circle cx="-289.007" cy="-262.215" r="1.5"/>
	</g>
	<g>
		<circle cx="-305.007" cy="-250.193" r="1.5"/>
	</g>
	<g>
		<circle cx="-297.007" cy="-250.193" r="1.5"/>
	</g>
	<g>
		<circle cx="-289.007" cy="-250.193" r="1.5"/>
	</g>
</g>
<g>
	<path d="M30.17-372.693c-1.596-7.445-8.207-13.029-16.127-13.029c-6.423,0-11.977,3.678-14.702,9.035
		c-0.266-0.018-0.53-0.04-0.8-0.04c-6.627,0-11.999,5.372-11.999,12c0,6.607,5.34,11.965,11.938,11.998v0.003h2.062v-2h-1.604
		l-0.447-0.003c-5.485-0.027-9.948-4.513-9.948-9.998c0-5.514,4.485-10,9.999-10c0.175,0,0.347,0.014,0.52,0.025l0.148,0.01
		l1.316,0.088l0.598-1.176c2.492-4.899,7.443-7.942,12.92-7.942c6.79,0,12.75,4.814,14.172,11.448l0.317,1.482l1.514,0.095
		c4.203,0.262,7.496,3.763,7.496,7.971c0,4.397-3.565,7.977-7.957,8c-0.05-0.003-0.093-0.005-0.137-0.007l-2.043,0.007h-2.863v2
		h4.863v-0.007c0.046,0.001,0.091,0.007,0.137,0.007c5.521,0,10-4.477,10-10C39.542-368.037,35.397-372.368,30.17-372.693z"/>
	<circle cx="4.542" cy="-345.223" r="1.5"/>
	<circle cx="12.542" cy="-339.223" r="1.5"/>
	<circle cx="20.542" cy="-343.223" r="1.5"/>
	<rect x="3.542" y="-361.698" width="2" height="11.976"/>
	<polygon points="13.542,-343.758 13.542,-345.698 13.542,-357.698 11.542,-357.698 11.542,-345.698 11.542,-343.758 
		11.542,-343.723 13.542,-343.723 	"/>
	<polygon points="21.542,-347.945 21.542,-349.698 21.542,-361.698 19.542,-361.698 19.542,-349.698 19.542,-347.945 
		19.542,-347.723 21.542,-347.723 	"/>
</g>
<g>
	<rect x="-718.207" y="-301.08" width="2" height="7.973"/>
	<rect x="-737.207" y="-282.166" width="7.973" height="2"/>
	<rect x="-732.534" y="-293.432" transform="matrix(0.7071 0.7071 -0.7071 0.7071 -420.1675 429.5089)" width="7.974" height="2"/>
	<rect x="-707.025" y="-296.414" transform="matrix(0.7071 0.7071 -0.7071 0.7071 -413.5684 413.585)" width="2" height="7.972"/>
	<path d="M-687.695-275.29c-1.444-6.742-7.433-11.8-14.605-11.8c-2.185,0-4.258,0.47-6.126,1.313
		c-1.667-3.202-5.007-5.394-8.866-5.394c-5.522,0-10,4.477-10,9.999c0,2.46,0.899,4.702,2.373,6.442
		c-1.429,1.84-2.287,4.144-2.287,6.653c0,5.983,4.836,10.836,10.813,10.865v0.003h1.188v-2h-0.721l-0.457-0.003
		c-4.864-0.023-8.822-4.001-8.822-8.865c0-4.89,3.978-8.868,8.867-8.868c0.15,0,0.299,0.012,0.447,0.022l0.148,0.01l1.314,0.085
		l0.597-1.175c2.225-4.372,6.644-7.089,11.532-7.089c6.062,0,11.382,4.298,12.649,10.219l0.318,1.483l1.514,0.094
		c3.708,0.23,6.612,3.319,6.612,7.03c0,3.878-3.144,7.035-7.017,7.057c-0.042-0.003-0.079-0.005-0.117-0.005l-2.047,0.005h-0.819v2
		h2.819v-0.006c0.042,0.001,0.082,0.006,0.124,0.006c5.001,0,9.057-4.054,9.057-9.057
		C-679.207-271.073-682.961-274.995-687.695-275.29z M-715.615-278.907c-0.241-0.016-0.48-0.036-0.725-0.036
		c-2.766,0-5.282,1.041-7.2,2.743c-1.092-1.366-1.753-3.09-1.753-4.971c0-4.41,3.589-7.999,8-7.999c3.091,0,5.76,1.773,7.091,4.345
		C-712.5-283.385-714.38-281.337-715.615-278.907z"/>
	<circle cx="-711.217" cy="-248.72" r="1.5"/>
	<circle cx="-703.217" cy="-242.72" r="1.5"/>
	<circle cx="-695.217" cy="-246.72" r="1.5"/>
	<rect x="-712.217" y="-265.195" width="2" height="11.976"/>
	<polygon points="-702.217,-247.255 -702.217,-249.195 -702.217,-261.195 -704.217,-261.195 -704.217,-249.195 -704.217,-247.255 
		-704.217,-247.22 -702.217,-247.22 	"/>
	<polygon points="-694.217,-251.442 -694.217,-253.195 -694.217,-265.195 -696.217,-265.195 -696.217,-253.195 -696.217,-251.442 
		-696.217,-251.22 -694.217,-251.22 	"/>
</g>
<g>
	<path d="M-587.093-278.288c-1.444-6.742-7.433-11.8-14.605-11.8c-1.799,0-3.522,0.32-5.118,0.904
		c-0.949-5.108-5.404-8.98-10.788-8.98c-0.413,0-0.819,0.027-1.222,0.071c0.744,1.112,1.179,2.448,1.179,3.886c0,3.865-3.134,7-7,7
		c-1.438,0-2.773-0.435-3.886-1.179c-0.044,0.401-0.071,0.809-0.071,1.222c0,3.712,1.845,6.987,4.661,8.979
		c-1.653,1.907-2.661,4.389-2.661,7.111c0,5.983,4.836,10.836,10.813,10.865v0.003h1.188v-2h-0.721l-0.457-0.003
		c-4.864-0.023-8.822-4.001-8.822-8.865c0-4.89,3.978-8.868,8.867-8.868c0.15,0,0.299,0.012,0.447,0.022l0.148,0.01l1.314,0.085
		l0.597-1.175c2.225-4.372,6.644-7.089,11.532-7.089c6.062,0,11.382,4.298,12.649,10.219l0.318,1.483l1.514,0.094
		c3.708,0.23,6.612,3.319,6.612,7.03c0,3.878-3.144,7.035-7.017,7.057c-0.042-0.003-0.079-0.005-0.117-0.005l-2.047,0.005h-0.819v2
		h2.819v-0.006c0.042,0.001,0.082,0.006,0.124,0.006c5.001,0,9.057-4.054,9.057-9.057
		C-578.604-274.071-582.358-277.993-587.093-278.288z M-615.013-281.905c-0.241-0.016-0.48-0.036-0.725-0.036
		c-2.537,0-4.865,0.876-6.715,2.334c-2.012-1.294-3.487-3.354-3.976-5.776c0.582,0.117,1.178,0.177,1.78,0.177c4.963,0,9-4.037,9-9
		c0-0.603-0.06-1.198-0.177-1.78c3.733,0.753,6.629,3.824,7.133,7.64C-611.402-286.903-613.617-284.648-615.013-281.905z"/>
	<circle cx="-610.604" cy="-251.714" r="1.5"/>
	<circle cx="-602.604" cy="-245.714" r="1.5"/>
	<circle cx="-594.604" cy="-249.714" r="1.5"/>
	<rect x="-611.604" y="-268.189" width="2" height="11.976"/>
	<polygon points="-601.604,-250.249 -601.604,-252.189 -601.604,-264.189 -603.604,-264.189 -603.604,-252.189 -603.604,-250.249 
		-603.604,-250.214 -601.604,-250.214 	"/>
	<polygon points="-593.604,-254.437 -593.604,-256.189 -593.604,-268.189 -595.604,-268.189 -595.604,-256.189 -595.604,-254.437 
		-595.604,-254.214 -593.604,-254.214 	"/>
</g>
<g>
	<rect x="-735.207" y="-173.848" width="56" height="2"/>
	<rect x="-731.207" y="-167.848" width="50" height="2"/>
	<rect x="-725.207" y="-161.848" width="36" height="2"/>
	<rect x="-733.207" y="-179.848" width="52" height="2"/>
	<path d="M-721.333-187.853c0.175,0,0.347,0.014,0.519,0.025l0.149,0.01l1.316,0.088l0.598-1.176
		c2.493-4.899,7.443-7.942,12.92-7.942c6.79,0,12.75,4.814,14.171,11.448l0.318,1.482l1.514,0.095
		c1.207,0.075,2.335,0.425,3.336,0.975h3.286c-1.678-1.703-3.957-2.813-6.498-2.971c-1.596-7.445-8.207-13.029-16.127-13.029
		c-6.423,0-11.977,3.678-14.702,9.035c-0.266-0.018-0.53-0.04-0.8-0.04c-4.843,0-9.004,2.874-10.9,7.005h2.251
		C-728.251-185.834-725.026-187.853-721.333-187.853z"/>
</g>
<g>
	<rect x="-614.104" y="-201.362" width="2" height="7.973"/>
	<rect x="-633.104" y="-182.448" width="7.973" height="2"/>
	<rect x="-628.431" y="-193.715" transform="matrix(0.7071 0.7071 -0.7071 0.7071 -319.1655 385.1039)" width="7.974" height="2"/>
	<rect x="-602.923" y="-196.697" transform="matrix(0.7071 0.7071 -0.7071 0.7071 -312.5663 369.18)" width="2" height="7.972"/>
	<rect x="-624.104" y="-167.488" width="50" height="2"/>
	<rect x="-620.104" y="-161.488" width="44" height="2"/>
	<rect x="-614.104" y="-156.488" width="30" height="2"/>
	<rect x="-622.104" y="-173.488" width="46" height="2"/>
	<path d="M-621.196-175.488h0.771h1.927h1.012c1.472-1.087,3.283-1.737,5.249-1.737c0.15,0,0.299,0.012,0.447,0.022l0.148,0.01
		l1.314,0.085l0.597-1.175c2.225-4.372,6.644-7.089,11.532-7.089c5.945,0,11.168,4.139,12.563,9.884h2.043v-0.084
		c-1.444-6.742-7.433-11.8-14.605-11.8c-2.185,0-4.258,0.47-6.126,1.313c-1.667-3.202-5.007-5.394-8.866-5.394
		c-5.522,0-10,4.477-10,9.999C-623.19-179.212-622.442-177.153-621.196-175.488z M-613.19-189.452c3.091,0,5.76,1.773,7.091,4.345
		c-2.298,1.44-4.178,3.488-5.413,5.918c-0.241-0.016-0.48-0.036-0.725-0.036c-2.764,0-5.274,1.045-7.189,2.745
		c-1.097-1.366-1.764-3.089-1.764-4.973C-621.19-185.863-617.602-189.452-613.19-189.452z"/>
</g>
<g>
	<rect x="-525.36" y="-170.926" width="50" height="2"/>
	<rect x="-521.36" y="-164.926" width="44" height="2"/>
	<rect x="-515.36" y="-159.926" width="30" height="2"/>
	<rect x="-523.36" y="-176.926" width="46" height="2"/>
	<path d="M-521.718-178.926h0.037h1.884h1.055c1.472-1.087,3.283-1.737,5.249-1.737c0.15,0,0.299,0.012,0.447,0.022l0.148,0.01
		l1.314,0.085l0.597-1.175c2.225-4.372,6.644-7.089,11.532-7.089c5.945,0,11.168,4.139,12.563,9.884h2.043v-0.084
		c-1.444-6.742-7.433-11.8-14.605-11.8c-1.799,0-3.521,0.32-5.117,0.903c-0.945-5.111-5.402-8.987-10.789-8.987
		c-0.413,0-0.819,0.027-1.222,0.071c0.744,1.112,1.179,2.448,1.179,3.886c0,3.865-3.134,7-7,7c-1.438,0-2.773-0.435-3.886-1.179
		c-0.044,0.401-0.071,0.809-0.071,1.222C-526.36-184.189-524.524-180.919-521.718-178.926z M-522.403-185.937c4.963,0,9-4.037,9-9
		c0-0.603-0.06-1.198-0.177-1.78c3.735,0.753,6.633,3.828,7.134,7.647c-2.712,1.443-4.927,3.699-6.322,6.442
		c-0.241-0.016-0.48-0.036-0.725-0.036c-2.534,0-4.855,0.879-6.701,2.335c-2.02-1.293-3.5-3.356-3.989-5.785
		C-523.602-185.996-523.006-185.937-522.403-185.937z"/>
</g>
<g>
	<path d="M-393.469-167.912h-19.474l-0.578-0.003c-5.485-0.027-9.948-4.513-9.948-9.998c0-5.514,4.485-10,9.999-10
		c0.175,0,0.347,0.014,0.519,0.025l0.149,0.01l1.316,0.088l0.598-1.176c2.493-4.899,7.443-7.942,12.92-7.942
		c6.79,0,12.75,4.814,14.171,11.448l0.318,1.482l1.514,0.095c1.822,0.113,3.463,0.845,4.746,1.971h2.732
		c-1.707-2.262-4.348-3.78-7.354-3.967c-1.596-7.445-8.207-13.029-16.127-13.029c-6.423,0-11.977,3.678-14.702,9.035
		c-0.266-0.018-0.53-0.04-0.8-0.04c-6.627,0-11.999,5.372-11.999,12c0,6.607,5.34,11.965,11.938,11.998v0.003h20.062
		c2.205,0,4,1.794,4,4s-1.795,4-4,4v2c3.314,0,6-2.686,6-6C-387.469-165.226-390.154-167.912-393.469-167.912z"/>
	<path d="M-389.469-171.912h-15.988v2h15.988c3.314,0,6-2.687,6-6c0-3.314-2.686-6-6-6v2c2.205,0,4,1.794,4,4
		S-387.264-171.912-389.469-171.912z"/>
	<path d="M-376.469-177.912c1.654,0,3,1.346,3,3s-1.346,3-3,3c-0.043,0-0.083-0.011-0.126-0.013h-4.862
		c0.003,0.005,0.009,0.008,0.012,0.013h-0.023v2h5.5v-0.051c2.523-0.254,4.5-2.358,4.5-4.949c0-2.762-2.238-5-5-5V-177.912z"/>
	<path d="M-372.469-167.912h-13v2h9.022c-0.004,0.005-0.008,0.008-0.011,0.013h3.862c0.043-0.002,0.083-0.013,0.126-0.013
		c1.654,0,3,1.346,3,3s-1.346,3-3,3v2c2.762,0,5-2.238,5-5S-369.707-167.912-372.469-167.912z"/>
	<rect x="-411.469" y="-171.912" width="4" height="2"/>
</g>
<path d="M-601.03-567.016c6.95,1.305,12.226,7.419,12.226,14.742c0,8.272-6.729,15.002-15,15.002c-6.79,0-12.531-4.49-14.366-10.728
	c1.398,0.461,2.867,0.698,4.366,0.698c7.72,0,14-6.281,14-14.001C-599.805-563.286-600.229-565.23-601.03-567.016 M-603.805-569.272
	c-0.338,0-0.668,0.031-1,0.051c1.861,2.113,3,4.881,3,7.92c0,6.627-5.372,12.001-12,12.001c-2.599,0-4.998-0.835-6.963-2.239
	c0.387,9.047,7.821,16.269,16.963,16.269c9.39,0,17-7.612,17-17.002S-594.415-569.272-603.805-569.272L-603.805-569.272z"/>
<g>
	<path d="M-707.2-564.277c-7.18,0-13,5.819-13,12.999c0,7.181,5.82,13.002,13,13.002s13-5.821,13-13.002
		C-694.2-558.458-700.021-564.277-707.2-564.277z M-707.2-540.276c-6.065,0-11-4.936-11-11.002c0-6.064,4.935-10.999,11-10.999
		s11,4.935,11,10.999C-696.2-545.212-701.135-540.276-707.2-540.276z"/>
	<rect x="-708.207" y="-577.271" width="2" height="10"/>
	<rect x="-708.207" y="-535.271" width="2" height="10"/>
	<rect x="-733.2" y="-552.271" width="9.993" height="2"/>
	<rect x="-691.207" y="-552.271" width="10.007" height="2"/>
	<rect x="-693.507" y="-571.185" transform="matrix(0.7071 0.7071 -0.7071 0.7071 -603.0397 323.9046)" width="2" height="10.409"/>
	
		<rect x="-722.916" y="-541.777" transform="matrix(-0.7071 -0.7071 0.7071 -0.7071 -852.9742 -1426.457)" width="2" height="10.41"/>
	<rect x="-727.116" y="-566.976" transform="matrix(0.7071 0.7071 -0.7071 0.7071 -611.6486 344.698)" width="10.409" height="2"/>
	
		<rect x="-697.708" y="-537.567" transform="matrix(-0.7072 -0.7071 0.7071 -0.7072 -802.824 -1405.6432)" width="10.41" height="2"/>
</g>
<g>
	<rect x="-309.034" y="-206.41" width="2" height="7.973"/>
	<rect x="-328.007" y="-187.424" width="7.973" height="2"/>
	<rect x="-323.281" y="-198.642" transform="matrix(0.7071 0.7071 -0.7071 0.7071 -233.2734 167.8867)" width="7.974" height="2"/>
	<rect x="-297.772" y="-201.624" transform="matrix(0.7071 0.7071 -0.7071 0.7071 -226.6743 151.9628)" width="2" height="7.972"/>
	<path d="M-294.007-164.41l0.005-0.007h-12.536l-0.594-0.003c-4.864-0.024-8.822-4.001-8.822-8.865c0-4.89,3.978-8.868,8.867-8.868
		c0.15,0,0.299,0.012,0.447,0.021l0.148,0.011l1.314,0.085l0.597-1.174c2.225-4.373,6.644-7.09,11.532-7.09
		c5.916,0,11.114,4.099,12.54,9.8h2.065c-1.444-6.742-7.433-11.8-14.605-11.8c-2.185,0-4.258,0.47-6.126,1.313
		c-1.667-3.202-5.007-5.394-8.866-5.394c-5.522,0-10,4.477-10,9.999c0,2.46,0.899,4.702,2.373,6.442
		c-1.429,1.84-2.287,4.144-2.287,6.653c0,5.983,4.836,10.836,10.813,10.865v0.003h13.135v0.007c2.205,0,4,1.794,4,4s-1.795,4-4,4v2
		c3.314,0,6-2.686,6-6C-288.007-161.724-290.692-164.41-294.007-164.41z M-308.04-194.38c3.091,0,5.76,1.773,7.091,4.345
		c-2.298,1.439-4.178,3.488-5.413,5.918c-0.241-0.016-0.48-0.036-0.725-0.036c-2.766,0-5.282,1.042-7.2,2.743
		c-1.092-1.367-1.753-3.09-1.753-4.971C-316.04-190.791-312.451-194.38-308.04-194.38z"/>
	<path d="M-290.007-168.41h-9.988v2h9.988c3.314,0,6-2.687,6-6c0-3.314-2.686-6-6-6v2c2.205,0,4,1.794,4,4
		S-287.802-168.41-290.007-168.41z"/>
	<path d="M-281.983-168.41h-0.023v2h5.5v-0.051c2.523-0.254,4.5-2.358,4.5-4.949c0-2.762-2.238-5-5-5v2c1.654,0,3,1.346,3,3
		s-1.346,3-3,3c-0.043,0-0.083-0.011-0.126-0.013h-4.862C-281.992-168.418-281.986-168.414-281.983-168.41z"/>
	<path d="M-273.007-164.41h-13v2h9.022c-0.004,0.004-0.008,0.008-0.011,0.013h3.862c0.043-0.002,0.083-0.013,0.126-0.013
		c1.654,0,3,1.346,3,3s-1.346,3-3,3v2c2.762,0,5-2.238,5-5S-270.245-164.41-273.007-164.41z"/>
	<rect x="-306.007" y="-168.41" width="4" height="2"/>
</g>
<g>
	<path d="M-194.045-166.416l0.005-0.007h-12.536l-0.594-0.003c-4.864-0.024-8.822-4.001-8.822-8.865c0-4.89,3.978-8.868,8.867-8.868
		c0.15,0,0.299,0.012,0.447,0.021l0.148,0.011l1.314,0.085l0.597-1.174c2.225-4.373,6.644-7.09,11.532-7.09
		c5.916,0,11.114,4.099,12.54,9.8h2.065c-1.444-6.742-7.433-11.8-14.605-11.8c-1.806,0-3.536,0.322-5.138,0.91
		c-0.938-5.123-5.4-9.01-10.794-9.01c-0.413,0-0.819,0.027-1.222,0.071c0.744,1.112,1.179,2.448,1.179,3.886c0,3.865-3.134,7-7,7
		c-1.438,0-2.773-0.435-3.886-1.179c-0.044,0.401-0.071,0.809-0.071,1.222c0,3.725,1.858,7.009,4.69,8.998
		c-1.655,1.907-2.665,4.392-2.665,7.116c0,5.983,4.836,10.836,10.813,10.865v0.003h13.135v0.007c2.205,0,4,1.794,4,4s-1.795,4-4,4v2
		c3.314,0,6-2.686,6-6C-188.045-163.729-190.73-166.416-194.045-166.416z M-217.841-189.625c0.582,0.117,1.178,0.177,1.78,0.177
		c4.963,0,9-4.037,9-9c0-0.603-0.06-1.198-0.177-1.78c3.744,0.755,6.646,3.842,7.138,7.674c-2.702,1.444-4.909,3.696-6.301,6.432
		c-0.241-0.016-0.48-0.036-0.725-0.036c-2.535,0-4.861,0.875-6.71,2.33C-215.863-185.121-217.35-187.189-217.841-189.625z"/>
	<path d="M-190.045-170.416h-9.988v2h9.988c3.314,0,6-2.687,6-6c0-3.314-2.686-6-6-6v2c2.205,0,4,1.794,4,4
		S-187.84-170.416-190.045-170.416z"/>
	<path d="M-182.021-170.416h-0.023v2h5.5v-0.051c2.523-0.254,4.5-2.358,4.5-4.949c0-2.762-2.238-5-5-5v2c1.654,0,3,1.346,3,3
		s-1.346,3-3,3c-0.043,0-0.083-0.011-0.126-0.013h-4.862C-182.03-170.424-182.024-170.42-182.021-170.416z"/>
	<path d="M-173.045-166.416h-13v2h9.022c-0.004,0.004-0.008,0.008-0.011,0.013h3.862c0.043-0.002,0.083-0.013,0.126-0.013
		c1.654,0,3,1.346,3,3s-1.346,3-3,3v2c2.762,0,5-2.238,5-5S-170.283-166.416-173.045-166.416z"/>
	<rect x="-206.045" y="-170.416" width="4" height="2"/>
</g>
<g>
	<rect x="-93.152" y="-203.848" width="2" height="10"/>
	<rect x="-118.146" y="-178.848" width="9.993" height="2"/>
	<rect x="-78.453" y="-197.762" transform="matrix(0.7071 0.7071 -0.7071 0.7071 -158.8438 -1.6314)" width="2" height="10.409"/>
	<rect x="-112.061" y="-193.552" transform="matrix(0.7071 0.7071 -0.7071 0.7071 -167.4527 19.162)" width="10.409" height="2"/>
	<path d="M-88.152-163.848h-24v2h24c2.205,0,4,1.794,4,4s-1.795,4-4,4v2c3.314,0,6-2.686,6-6
		C-82.152-161.161-84.838-163.848-88.152-163.848z"/>
	<path d="M-76.129-167.848h-0.023v2h5.5v-0.051c2.523-0.254,4.5-2.358,4.5-4.949c0-2.762-2.238-5-5-5v2c1.654,0,3,1.346,3,3
		s-1.346,3-3,3c-0.043,0-0.083-0.011-0.126-0.013h-4.862C-76.138-167.855-76.132-167.852-76.129-167.848z"/>
	<path d="M-67.152-163.848h-13v2h9.022c-0.004,0.004-0.008,0.008-0.011,0.013h3.862c0.043-0.002,0.083-0.013,0.126-0.013
		c1.654,0,3,1.346,3,3s-1.346,3-3,3v2c2.762,0,5-2.238,5-5S-64.391-163.848-67.152-163.848z"/>
	<path d="M-100.443-167.848h-11.709v2h12.012h0.822h15.166c3.314,0,6-2.687,6-6c0-3.314-2.686-6-6-6v2c2.205,0,4,1.794,4,4
		s-1.795,4-4,4H-96.69c-3.802-1.734-6.455-5.563-6.455-10.007c0-6.064,4.935-10.999,11-10.999c5.384,0,9.868,3.891,10.81,9.006
		h2.021c-0.961-6.23-6.331-11.006-12.831-11.006c-7.18,0-13,5.819-13,12.999C-105.146-173.829-103.315-170.232-100.443-167.848z"/>
</g>
<g>
	<path d="M12.074-170.404h-24v2h24c2.205,0,4,1.794,4,4s-1.795,4-4,4v2c3.314,0,6-2.686,6-6
		C18.074-167.718,15.389-170.404,12.074-170.404z"/>
	<path d="M29.574-172.404v-0.051c2.523-0.254,4.5-2.358,4.5-4.949c0-2.762-2.238-5-5-5v2c1.654,0,3,1.346,3,3s-1.346,3-3,3
		c-0.043,0-0.083-0.011-0.126-0.013h-4.862c0.004,0.005,0.009,0.009,0.012,0.013h-0.023v2H29.574z"/>
	<path d="M33.074-170.404h-13v2h9.022c-0.003,0.004-0.007,0.008-0.011,0.013h3.862c0.043-0.002,0.083-0.013,0.126-0.013
		c1.654,0,3,1.346,3,3s-1.346,3-3,3v2c2.762,0,5-2.238,5-5S35.836-170.404,33.074-170.404z"/>
	<path d="M0.908-172.404h15.166c3.314,0,6-2.687,6-6c0-3.314-2.686-6-6-6v2c2.205,0,4,1.794,4,4s-1.795,4-4,4H3.488
		c-2.596-1.188-4.658-3.339-5.69-6.034c0.849,0.204,1.724,0.309,2.612,0.309c6.168,0,11.187-5.019,11.187-11.188
		c0-1.276-0.22-2.532-0.64-3.717c4.046,1.102,7.168,4.459,7.937,8.63h2.018c-0.964-6.237-6.338-11.016-12.846-11.016
		c-0.259,0-0.511,0.024-0.766,0.039c1.425,1.618,2.297,3.737,2.297,6.063c0,5.072-4.112,9.188-9.187,9.188
		c-1.988,0-3.826-0.641-5.33-1.715c0.162,3.801,1.962,7.165,4.699,9.44h-11.705v2H0.086H0.908z"/>
</g>
<g>
	<path d="M-707.707-85.211h-20c-1.103,0-2-0.897-2-2s0.897-2,2-2h3.445h0.555v-2h-4c-2.209,0-4,1.791-4,4s1.791,4,4,4h20
		c2.205,0,4,1.794,4,4s-1.795,4-4,4v2c3.314,0,6-2.686,6-6C-701.707-82.524-704.393-85.211-707.707-85.211z"/>
	<path d="M-705.707-101.211v2c2.205,0,4,1.794,4,4s-1.795,4-4,4h-15.988v2h15.988c3.314,0,6-2.687,6-6
		C-699.707-98.525-702.393-101.211-705.707-101.211z"/>
	<path d="M-699.707-89.211v2h5.5v-0.051c2.523-0.254,4.5-2.358,4.5-4.949c0-2.762-2.238-5-5-5v2c1.654,0,3,1.346,3,3s-1.346,3-3,3
		c-0.043,0-0.083-0.011-0.126-0.013h-4.862c0.003,0.005,0.009,0.009,0.012,0.013H-699.707z"/>
	<path d="M-688.707-85.211h-11v2h7.022c-0.004,0.004-0.008,0.008-0.011,0.013h3.862c0.043-0.002,0.083-0.013,0.126-0.013
		c1.654,0,3,1.346,3,3s-1.346,3-3,3v2c2.762,0,5-2.238,5-5S-685.945-85.211-688.707-85.211z"/>
</g>
<path d="M-171.415-98.864v-0.038h-38.376c-1.103,0-2-0.897-2-2s0.897-2,2-2h33c2.762,0,5-2.238,5-5s-2.238-5-5-5h-37.875v0.008
	c-0.042-0.001-0.083-0.008-0.125-0.008c-2.762,0-5,2.238-5,5s2.238,5,5,5v-2c-1.654,0-3-1.346-3-3s1.346-3,3-3h0.125h3.853h34.022
	c1.654,0,3,1.346,3,3s-1.346,3-3,3h-33c-2.209,0-4,1.791-4,4s1.791,4,4,4h38c1.103,0,2,0.897,2,2s-0.897,2-2,2h-32
	c-2.209,0-4,1.791-4,4s1.791,4,4,4h22c1.103,0,2,0.897,2,2s-0.897,2-2,2h-24.01v0.001c-2.204,0.006-3.99,1.793-3.99,3.999
	s1.786,3.993,3.99,3.999v0.001h12.01c1.103,0,2,0.897,2,2s-0.897,2-2,2h-2c-2.209,0-4,1.791-4,4s1.791,4,4,4v-2
	c-1.103,0-2-0.897-2-2s0.897-2,2-2h2c2.209,0,4-1.791,4-4s-1.791-4-4-4h-12c-1.103,0-2-0.897-2-2s0.897-2,2-2h24
	c2.209,0,4-1.791,4-4c0-2.152-1.704-3.895-3.834-3.983v-0.017h-22.166c-1.103,0-2-0.897-2-2s0.897-2,2-2h32c2.209,0,4-1.791,4-4
	C-167.791-96.982-169.385-98.672-171.415-98.864z"/>
<path d="M14-108.187v-2.024h-2v2.024c-13.01,0.513-23.462,10.965-23.975,23.976h1.674c1.14-1.222,2.748-2,4.551-2
	c2.26,0,4.233,1.203,5.331,3h1.838c1.098-1.797,3.071-3,5.331-3c2.204,0,4.137,1.144,5.25,2.866v15.134c0,2.21,1.791,4,4,4
	s4-1.79,4-4h-2c0,1.103-0.897,2-2,2s-2-0.897-2-2v-15.134c1.113-1.723,3.046-2.866,5.25-2.866c2.26,0,4.233,1.203,5.331,3h1.838
	c1.098-1.797,3.071-3,5.331-3c1.803,0,3.411,0.778,4.551,2h1.674C37.462-97.222,27.01-107.674,14-108.187z M31.75-88.211
	c-2.496,0-4.736,1.114-6.25,2.87c-1.514-1.756-3.754-2.87-6.25-2.87s-4.736,1.114-6.25,2.87c-1.514-1.756-3.754-2.87-6.25-2.87
	s-4.736,1.114-6.25,2.87c-1.514-1.756-3.755-2.87-6.25-2.87c-1.402,0-2.731,0.351-3.897,0.975
	C-7.738-98.005,1.691-106.211,13-106.211s20.738,8.206,22.647,18.975C34.481-87.86,33.152-88.211,31.75-88.211z"/>
<g>
	<path d="M-391.295,16.102V-1.004c0-2.762-2.238-5-5-5s-5,2.238-5,5v17.105c-1.236,1.263-2,2.988-2,4.895c0,3.866,3.134,7,7,7
		s7-3.134,7-7C-389.295,19.09-390.059,17.364-391.295,16.102z M-396.295,25.996c-2.757,0-5-2.243-5-5
		c0-1.313,0.508-2.554,1.429-3.495l0.571-0.583v-0.816V-1.004c0-1.654,1.346-3,3-3s3,1.346,3,3v17.105v0.816l0.571,0.583
		c0.921,0.941,1.429,2.183,1.429,3.495C-391.295,23.753-393.538,25.996-396.295,25.996z"/>
	<path d="M-395.295,18.172V2.996h-2v15.176c-1.167,0.413-2.008,1.516-2.008,2.824c0,1.662,1.347,3.008,3.008,3.008
		c1.662,0,3.008-1.346,3.008-3.008C-393.287,19.688-394.127,18.585-395.295,18.172z M-396.295,22.004
		c-0.556,0-1.008-0.452-1.008-1.008s0.452-1.008,1.008-1.008s1.008,0.452,1.008,1.008S-395.739,22.004-396.295,22.004z"/>
</g>
<g>
	<path d="M-291.507,16.102V-1.004c0-2.762-2.238-5-5-5s-5,2.238-5,5v17.105c-1.236,1.263-2,2.988-2,4.895c0,3.866,3.134,7,7,7
		s7-3.134,7-7C-289.507,19.09-290.271,17.364-291.507,16.102z M-296.507,25.996c-2.757,0-5-2.243-5-5
		c0-1.313,0.508-2.554,1.429-3.495l0.571-0.583v-0.816V-1.004c0-1.654,1.346-3,3-3s3,1.346,3,3v17.105v0.816l0.571,0.583
		c0.921,0.941,1.429,2.183,1.429,3.495C-291.507,23.753-293.75,25.996-296.507,25.996z"/>
	<path d="M-295.507,18.172V-2.004h-2v20.176c-1.167,0.413-2.008,1.516-2.008,2.824c0,1.662,1.347,3.008,3.008,3.008
		c1.662,0,3.008-1.346,3.008-3.008C-293.499,19.688-294.339,18.585-295.507,18.172z M-296.507,22.004
		c-0.556,0-1.008-0.452-1.008-1.008s0.452-1.008,1.008-1.008s1.008,0.452,1.008,1.008S-295.951,22.004-296.507,22.004z"/>
</g>
<g>
	<path d="M-494.404,16.102V-1.004c0-2.762-2.238-5-5-5s-5,2.238-5,5v17.105c-1.236,1.263-2,2.988-2,4.895c0,3.866,3.134,7,7,7
		s7-3.134,7-7C-492.404,19.09-493.168,17.364-494.404,16.102z M-499.404,25.996c-2.757,0-5-2.243-5-5
		c0-1.313,0.508-2.554,1.429-3.495l0.571-0.583v-0.816V-1.004c0-1.654,1.346-3,3-3s3,1.346,3,3v17.105v0.816l0.571,0.583
		c0.921,0.941,1.429,2.183,1.429,3.495C-494.404,23.753-496.647,25.996-499.404,25.996z"/>
	<path d="M-498.404,18.172V7.996h-2v10.176c-1.167,0.413-2.008,1.516-2.008,2.824c0,1.662,1.347,3.008,3.008,3.008
		c1.662,0,3.008-1.346,3.008-3.008C-496.396,19.688-497.236,18.585-498.404,18.172z M-499.404,22.004
		c-0.556,0-1.008-0.452-1.008-1.008s0.452-1.008,1.008-1.008s1.008,0.452,1.008,1.008S-498.849,22.004-499.404,22.004z"/>
</g>
<g>
	<path d="M-598.05,16.102V-1.004c0-2.762-2.238-5-5-5s-5,2.238-5,5v17.105c-1.236,1.263-2,2.988-2,4.895c0,3.866,3.134,7,7,7
		s7-3.134,7-7C-596.05,19.09-596.813,17.364-598.05,16.102z M-603.05,25.996c-2.757,0-5-2.243-5-5c0-1.313,0.508-2.554,1.429-3.495
		l0.571-0.583v-0.816V-1.004c0-1.654,1.346-3,3-3s3,1.346,3,3v17.105v0.816l0.571,0.583c0.921,0.941,1.429,2.183,1.429,3.495
		C-598.05,23.753-600.293,25.996-603.05,25.996z"/>
	<path d="M-602.05,18.172v-5.176h-2v5.176c-1.167,0.413-2.008,1.516-2.008,2.824c0,1.662,1.347,3.008,3.008,3.008
		c1.662,0,3.008-1.346,3.008-3.008C-600.042,19.688-600.882,18.585-602.05,18.172z M-603.05,22.004
		c-0.556,0-1.008-0.452-1.008-1.008s0.452-1.008,1.008-1.008s1.008,0.452,1.008,1.008S-602.494,22.004-603.05,22.004z"/>
</g>
<g>
	<path d="M-702.707,16.102V-1.004c0-2.762-2.238-5-5-5s-5,2.238-5,5v17.105c-1.236,1.263-2,2.988-2,4.895c0,3.866,3.134,7,7,7
		s7-3.134,7-7C-700.707,19.09-701.471,17.364-702.707,16.102z M-707.707,25.996c-2.757,0-5-2.243-5-5
		c0-1.313,0.508-2.554,1.429-3.495l0.571-0.583v-0.816V-1.004c0-1.654,1.346-3,3-3s3,1.346,3,3v17.105v0.816l0.571,0.583
		c0.921,0.941,1.429,2.183,1.429,3.495C-702.707,23.753-704.95,25.996-707.707,25.996z"/>
	<path d="M-707.707,17.988c-1.661,0-3.008,1.347-3.008,3.008c0,1.662,1.347,3.008,3.008,3.008c1.662,0,3.008-1.346,3.008-3.008
		C-704.699,19.335-706.045,17.988-707.707,17.988z M-707.707,22.004c-0.556,0-1.008-0.452-1.008-1.008s0.452-1.008,1.008-1.008
		s1.008,0.452,1.008,1.008S-707.151,22.004-707.707,22.004z"/>
</g>
<g>
	<path d="M-202.782-3.691c-2.209,0-4,1.791-4,4c0,2.21,1.791,4,4,4c2.211,0,4-1.79,4-4C-198.782-1.9-200.571-3.691-202.782-3.691z
		 M-202.782,2.309c-1.103,0-2-0.897-2-2s0.897-2,2-2s2,0.897,2,2S-201.68,2.309-202.782,2.309z"/>
	<path d="M-188.782,24.309c-4.41,0-7.999-3.589-7.999-7.999v-4.002c0-4.41,3.589-7.999,7.999-7.999c2.715,0,5.115,1.362,6.563,3.437
		l1.43-1.43c-1.824-2.429-4.72-4.007-7.992-4.007c-5.522,0-9.999,4.478-9.999,9.999v4.002c0,5.521,4.477,9.999,9.999,9.999
		c3.272,0,6.168-1.579,7.992-4.008l-1.43-1.43C-183.666,22.945-186.066,24.309-188.782,24.309z"/>
</g>
<g>
	<path d="M-98.086-3.813c-2.209,0-4,1.791-4,4c0,2.21,1.791,4,4,4c2.211,0,4-1.79,4-4C-94.086-2.021-95.875-3.813-98.086-3.813z
		 M-98.086,2.188c-1.103,0-2-0.897-2-2s0.897-2,2-2s2,0.897,2,2S-96.983,2.188-98.086,2.188z"/>
	<polygon points="-78.211,4.309 -78.211,2.309 -90.211,2.309 -92.211,2.309 -92.211,26.309 -90.211,26.309 -90.211,14.309 
		-82.211,14.309 -82.211,12.309 -90.211,12.309 -90.211,4.309 	"/>
</g>
<g>
	<path d="M13,0C5.821,0,0,5.82,0,13s5.821,13,13,13s13-5.82,13-13S20.179,0,13,0z M13,24C6.935,24,2,19.065,2,13S6.935,2,13,2
		s11,4.935,11,11S19.065,24,13,24z"/>
	<path d="M8.733,17.242l6.363-2.121l2.121-6.364l-6.363,2.122L8.733,17.242z M12.436,12.46l1.62-0.54l-0.54,1.62l-1.62,0.54
		L12.436,12.46z"/>
</g>
<g>
	<path d="M-707.707,90.518c-7.179,0-13,5.82-13,13s5.821,13,13,13s13-5.82,13-13S-700.528,90.518-707.707,90.518z M-707.707,114.518
		c-6.065,0-11-4.934-11-11c0-6.064,4.935-11,11-11s11,4.936,11,11C-696.707,109.584-701.642,114.518-707.707,114.518z"/>
	<path d="M-705.146,101.939l-2.586-4.422l-2.529,4.33h0.007c-0.299,0.467-0.478,1.018-0.478,1.613c0,1.656,1.343,3,3,3s3-1.344,3-3
		c0-0.559-0.162-1.074-0.428-1.521H-705.146z M-707.731,104.461c-0.552,0-1-0.449-1-1c0-0.188,0.055-0.367,0.162-0.535l0.864-1.355
		l0.826,1.391c0.098,0.164,0.147,0.332,0.147,0.5C-706.731,104.012-707.18,104.461-707.731,104.461z"/>
</g>
<g>
	<path d="M-602.923,90.518c-7.18,0-13,5.82-13,13s5.82,13,13,13s13-5.82,13-13S-595.743,90.518-602.923,90.518z M-602.923,114.518
		c-6.065,0-11-4.934-11-11c0-6.064,4.935-11,11-11s11,4.936,11,11C-591.923,109.584-596.857,114.518-602.923,114.518z"/>
	<path d="M-601.334,100.938c-0.467-0.299-1.018-0.477-1.613-0.477c-1.658,0-3,1.342-3,3c0,1.656,1.342,3,3,3
		c0.557,0,1.072-0.162,1.52-0.428v0.014l4.422-2.586l-4.328-2.529V100.938z M-602.449,104.313c-0.164,0.098-0.332,0.148-0.498,0.148
		c-0.552,0-1-0.449-1-1c0-0.553,0.448-1,1-1c0.188,0,0.368,0.053,0.535,0.16l1.355,0.865L-602.449,104.313z"/>
</g>
<g>
	<path d="M-499.872,90.518c-7.18,0-13,5.82-13,13s5.82,13,13,13s13-5.82,13-13S-492.692,90.518-499.872,90.518z M-499.872,114.518
		c-6.065,0-11-4.934-11-11c0-6.064,4.935-11,11-11s11,4.936,11,11C-488.872,109.584-493.807,114.518-499.872,114.518z"/>
	<path d="M-499.872,100.461c-1.656,0-3,1.342-3,3c0,0.557,0.162,1.072,0.428,1.52h-0.014l2.586,4.422l2.529-4.328h-0.006
		c0.299-0.467,0.477-1.018,0.477-1.613C-496.872,101.803-498.214,100.461-499.872,100.461z M-499.033,103.996l-0.865,1.355
		l-0.826-1.393c-0.098-0.164-0.147-0.332-0.147-0.498c0-0.553,0.448-1,1-1s1,0.447,1,1
		C-498.872,103.648-498.926,103.828-499.033,103.996z"/>
</g>
<g>
	<path d="M-396.458,90.518c-7.179,0-13,5.82-13,13s5.821,13,13,13s13-5.82,13-13S-389.279,90.518-396.458,90.518z M-396.458,114.518
		c-6.065,0-11-4.934-11-11c0-6.064,4.935-11,11-11s11,4.936,11,11C-385.458,109.584-390.393,114.518-396.458,114.518z"/>
	<path d="M-396.499,100.461c-0.557,0-1.072,0.162-1.52,0.428v-0.014l-4.422,2.586l4.328,2.529v-0.006
		c0.467,0.299,1.018,0.477,1.613,0.477c1.658,0,3-1.342,3-3C-393.499,101.805-394.841,100.461-396.499,100.461z M-396.499,104.461
		c-0.188,0-0.368-0.055-0.535-0.162l-1.355-0.865l1.393-0.826c0.164-0.098,0.332-0.146,0.498-0.146c0.552,0,1,0.447,1,1
		C-395.499,104.012-395.947,104.461-396.499,104.461z"/>
</g>
<g>
	<rect x="-604.609" y="-106.211" width="2" height="10"/>
	<rect x="-589.91" y="-100.125" transform="matrix(0.7071 0.7071 -0.7071 0.7071 -239.6065 388.6205)" width="2" height="10.409"/>
	<rect x="-623.518" y="-95.915" transform="matrix(0.7071 0.7071 -0.7071 0.7071 -248.2154 409.4139)" width="10.409" height="2"/>
	<polygon points="-610.277,-76.957 -608.863,-75.543 -604.609,-79.797 -604.609,-70.211 -602.609,-70.211 -602.609,-79.797 
		-598.356,-75.543 -596.942,-76.957 -603.609,-83.625 	"/>
	<path d="M-590.603-80.212c0-0.002,0-0.004,0-0.006c0-7.18-5.82-12.999-13-12.999s-13,5.819-13,12.999c0,0.002,0,0.004,0,0.006h-13
		v2h18v-2h-3c0-0.002,0-0.004,0-0.006c0-6.064,4.935-10.999,11-10.999s11,4.935,11,10.999c0,0.002,0,0.004,0,0.006h-3v2h17.995v-2
		H-590.603z"/>
</g>
<g>
	<rect x="-500.864" y="-107.398" width="2" height="10"/>
	<rect x="-486.164" y="-101.312" transform="matrix(0.7071 0.7071 -0.7071 0.7071 -210.06 314.9138)" width="2" height="10.409"/>
	<rect x="-519.773" y="-97.103" transform="matrix(0.7071 0.7071 -0.7071 0.7071 -218.6689 335.7072)" width="10.409" height="2"/>
	<polygon points="-498.864,-72.852 -498.864,-83.398 -500.864,-83.398 -500.864,-72.852 -505.118,-77.105 -506.532,-75.691 
		-499.864,-69.023 -493.197,-75.691 -494.611,-77.105 	"/>
	<path d="M-486.857-81.399c0-0.002,0-0.004,0-0.006c0-7.18-5.82-12.999-13-12.999s-13,5.819-13,12.999c0,0.002,0,0.004,0,0.006h-13
		v2h22v-2h-7c0-0.002,0-0.004,0-0.006c0-6.064,4.935-10.999,11-10.999s11,4.935,11,10.999c0,0.002,0,0.004,0,0.006h-7v2h21.995v-2
		H-486.857z"/>
</g>
<g>
	<polygon points="-296.507,-73.386 -296.507,-87.769 -298.507,-87.769 -298.507,-73.386 -302.761,-77.64 -304.175,-76.226 
		-297.507,-69.558 -290.84,-76.226 -292.254,-77.64 	"/>
	<path d="M-280.879-92.739c-1.596-7.445-8.207-13.029-16.127-13.029c-6.423,0-11.977,3.678-14.702,9.035
		c-0.266-0.018-0.53-0.04-0.8-0.04c-6.627,0-11.999,5.372-11.999,12c0,6.607,5.34,11.965,11.938,11.998v0.003h6.062v-2h-5.604
		l-0.447-0.003c-5.485-0.027-9.948-4.513-9.948-9.998c0-5.514,4.485-10,9.999-10c0.175,0,0.347,0.014,0.52,0.025l0.148,0.01
		l1.316,0.088l0.598-1.176c2.492-4.899,7.443-7.942,12.92-7.942c6.79,0,12.75,4.814,14.172,11.448l0.317,1.482l1.514,0.095
		c4.203,0.262,7.496,3.763,7.496,7.971c0,4.397-3.565,7.977-7.957,8c-0.05-0.003-0.093-0.005-0.137-0.007l-2.043,0.007h-4.863v2
		h6.863v-0.007c0.046,0.001,0.091,0.007,0.137,0.007c5.521,0,10-4.477,10-10C-271.507-88.083-275.651-92.414-280.879-92.739z"/>
</g>
<g>
	<polygon points="-390.522,-76.581 -389.108,-77.995 -395.775,-84.663 -402.443,-77.995 -401.029,-76.581 -396.775,-80.835 
		-396.775,-68.249 -394.775,-68.249 -394.775,-80.835 	"/>
	<path d="M-379.147-91.144c-1.596-7.445-8.207-13.029-16.127-13.029c-6.423,0-11.977,3.678-14.702,9.035
		c-0.266-0.018-0.53-0.04-0.8-0.04c-6.627,0-11.999,5.372-11.999,12c0,6.607,5.34,11.965,11.938,11.998v0.003h10.062v-2h-9.604
		l-0.447-0.003c-5.485-0.027-9.948-4.513-9.948-9.998c0-5.514,4.485-10,9.999-10c0.175,0,0.347,0.014,0.52,0.025l0.148,0.01
		l1.316,0.088l0.598-1.176c2.492-4.899,7.443-7.942,12.92-7.942c6.79,0,12.75,4.814,14.172,11.448l0.317,1.482l1.514,0.095
		c4.203,0.262,7.496,3.763,7.496,7.971c0,4.397-3.565,7.977-7.957,8c-0.05-0.003-0.093-0.005-0.137-0.007l-2.043,0.007h-8.863v2
		h10.863v-0.007c0.046,0.001,0.091,0.007,0.137,0.007c5.521,0,10-4.477,10-10C-369.775-86.487-373.92-90.818-379.147-91.144z"/>
</g>
<g>
	<path d="M-176.658-280.659c-1.596-7.445-8.207-13.029-16.127-13.029c-6.423,0-11.977,3.678-14.702,9.035
		c-0.266-0.018-0.53-0.04-0.8-0.04c-6.627,0-11.999,5.372-11.999,12c0,6.607,5.34,11.965,11.938,11.998v0.003h2.062v-2h-1.604
		l-0.447-0.003c-5.485-0.027-9.948-4.513-9.948-9.998c0-5.514,4.485-10,9.999-10c0.175,0,0.347,0.014,0.52,0.025l0.148,0.01
		l1.316,0.088l0.598-1.176c2.492-4.899,7.443-7.942,12.92-7.942c6.79,0,12.75,4.814,14.172,11.448l0.317,1.482l1.514,0.095
		c4.203,0.262,7.496,3.763,7.496,7.971c0,4.397-3.565,7.977-7.957,8c-0.05-0.003-0.093-0.005-0.137-0.007l-2.043,0.007h-0.863v2
		h2.863v-0.007c0.046,0.001,0.091,0.007,0.137,0.007c5.521,0,10-4.477,10-10C-167.286-276.003-171.431-280.334-176.658-280.659z"/>
	<polygon points="-198.286,-261.671 -198.286,-264.301 -196.113,-263.078 -195.428,-264.299 -197.897,-265.688 -195.428,-267.078 
		-196.113,-268.299 -198.286,-267.076 -198.286,-269.671 -200.286,-269.671 -200.286,-267.032 -202.537,-268.299 -203.223,-267.078 
		-200.753,-265.688 -203.223,-264.299 -202.537,-263.078 -200.286,-264.345 -200.286,-261.671 	"/>
	<polygon points="-193.124,-257.316 -195.297,-256.094 -195.297,-258.688 -197.297,-258.688 -197.297,-256.05 -199.548,-257.316 
		-200.233,-256.096 -197.764,-254.706 -200.233,-253.316 -199.548,-252.096 -197.297,-253.362 -197.297,-250.688 -195.297,-250.688 
		-195.297,-253.318 -193.124,-252.096 -192.438,-253.316 -194.908,-254.706 -192.438,-256.096 	"/>
	<polygon points="-184.108,-264.299 -186.281,-263.076 -186.281,-265.671 -188.281,-265.671 -188.281,-263.032 -190.532,-264.299 
		-191.218,-263.078 -188.748,-261.688 -191.218,-260.299 -190.532,-259.078 -188.281,-260.345 -188.281,-257.671 -186.281,-257.671 
		-186.281,-260.301 -184.108,-259.078 -183.423,-260.299 -185.893,-261.688 -183.423,-263.078 	"/>
</g>
<g>
	<rect x="-101.146" y="-298.711" width="2" height="7.973"/>
	<rect x="-120.146" y="-279.797" width="7.973" height="2"/>
	<rect x="-115.473" y="-291.063" transform="matrix(0.7071 0.7071 -0.7071 0.7071 -237.7594 -6.1249)" width="7.974" height="2"/>
	<rect x="-89.965" y="-294.045" transform="matrix(0.7071 0.7071 -0.7071 0.7071 -231.1603 -22.0488)" width="2" height="7.972"/>
	<path d="M-70.635-272.921c-1.444-6.742-7.433-11.8-14.605-11.8c-2.185,0-4.258,0.471-6.127,1.314
		c-1.666-3.203-5.006-5.395-8.865-5.395c-5.522,0-10,4.477-10,9.999c0,2.46,0.899,4.702,2.373,6.442
		c-1.428,1.84-2.287,4.144-2.287,6.653c0,5.983,4.836,10.836,10.813,10.865v0.003h1.188v-2h-0.721l-0.457-0.003
		c-4.864-0.023-8.822-4.001-8.822-8.865c0-4.89,3.978-8.868,8.867-8.868c0.15,0,0.299,0.012,0.447,0.022l0.148,0.01l1.314,0.085
		l0.597-1.175c2.225-4.372,6.644-7.089,11.532-7.089c6.062,0,11.382,4.298,12.649,10.219l0.318,1.483l1.514,0.094
		c3.708,0.23,6.612,3.319,6.612,7.03c0,3.878-3.144,7.035-7.017,7.057c-0.042-0.003-0.079-0.005-0.117-0.005l-1.866,0.005v2h1.819
		v-0.006c0.042,0.001,0.082,0.006,0.124,0.006c5.001,0,9.057-4.054,9.057-9.057C-62.146-268.704-65.9-272.626-70.635-272.921z
		 M-98.555-276.538c-0.241-0.016-0.48-0.036-0.725-0.036c-2.766,0-5.282,1.041-7.2,2.742c-1.092-1.365-1.753-3.089-1.753-4.97
		c0-4.41,3.589-7.999,8-7.999c3.092,0,5.76,1.773,7.091,4.346C-95.439-281.016-97.318-278.968-98.555-276.538z"/>
	<polygon points="-91.154,-255.818 -91.154,-258.448 -88.981,-257.226 -88.296,-258.446 -90.766,-259.836 -88.296,-261.226 
		-88.981,-262.446 -91.154,-261.224 -91.154,-263.818 -93.154,-263.818 -93.154,-261.18 -95.405,-262.446 -96.091,-261.226 
		-93.621,-259.836 -96.091,-258.446 -95.405,-257.226 -93.154,-258.492 -93.154,-255.818 	"/>
	<polygon points="-85.992,-251.464 -88.165,-250.241 -88.165,-252.836 -90.165,-252.836 -90.165,-250.197 -92.416,-251.464 
		-93.102,-250.243 -90.632,-248.854 -93.102,-247.464 -92.416,-246.243 -90.165,-247.51 -90.165,-244.836 -88.165,-244.836 
		-88.165,-247.466 -85.992,-246.243 -85.307,-247.464 -87.776,-248.854 -85.307,-250.243 	"/>
	<polygon points="-76.977,-258.446 -79.149,-257.224 -79.149,-259.818 -81.149,-259.818 -81.149,-257.18 -83.4,-258.446 
		-84.086,-257.226 -81.616,-255.836 -84.086,-254.446 -83.4,-253.226 -81.149,-254.492 -81.149,-251.818 -79.149,-251.818 
		-79.149,-254.448 -76.977,-253.226 -76.291,-254.446 -78.761,-255.836 -76.291,-257.226 	"/>
</g>
<g>
	<path d="M29.554-275.924c-1.444-6.742-7.433-11.8-14.605-11.8c-1.799,0-3.522,0.32-5.118,0.904
		c-0.949-5.108-5.404-8.98-10.788-8.98c-0.413,0-0.819,0.027-1.222,0.071c0.744,1.112,1.179,2.448,1.179,3.886c0,3.865-3.134,7-7,7
		c-1.438,0-2.773-0.435-3.886-1.179c-0.044,0.401-0.071,0.809-0.071,1.222c0,3.713,1.845,6.987,4.661,8.979
		c-1.653,1.907-2.661,4.389-2.661,7.111c0,5.983,4.836,10.836,10.813,10.865v0.003h1.188v-2H1.321l-0.457-0.003
		c-4.864-0.023-8.822-4.001-8.822-8.865c0-4.89,3.978-8.868,8.867-8.868c0.15,0,0.299,0.012,0.447,0.022l0.148,0.01l1.314,0.085
		l0.597-1.175c2.225-4.372,6.644-7.089,11.532-7.089c6.062,0,11.382,4.298,12.649,10.219l0.318,1.483l1.514,0.094
		c3.708,0.23,6.612,3.319,6.612,7.03c0,3.878-3.144,7.035-7.017,7.057c-0.042-0.003-0.079-0.005-0.117-0.005l-1.866,0.005v2h1.819
		v-0.006c0.042,0.001,0.082,0.006,0.124,0.006c5.001,0,9.057-4.054,9.057-9.057C38.042-271.707,34.288-275.629,29.554-275.924z
		 M1.634-279.541c-0.241-0.016-0.48-0.036-0.725-0.036c-2.537,0-4.865,0.877-6.715,2.334c-2.012-1.294-3.486-3.354-3.976-5.776
		c0.582,0.117,1.178,0.177,1.78,0.177c4.963,0,9-4.037,9-9c0-0.603-0.06-1.198-0.177-1.78c3.733,0.753,6.629,3.824,7.134,7.64
		C5.243-284.539,3.028-282.284,1.634-279.541z"/>
	<polygon points="9.079,-258.821 9.079,-261.451 11.252,-260.229 11.938,-261.449 9.468,-262.839 11.938,-264.229 11.252,-265.449 
		9.079,-264.227 9.079,-266.821 7.079,-266.821 7.079,-264.183 4.828,-265.449 4.143,-264.229 6.612,-262.839 4.143,-261.449 
		4.828,-260.229 7.079,-261.495 7.079,-258.821 	"/>
	<polygon points="14.241,-254.467 12.068,-253.244 12.068,-255.839 10.068,-255.839 10.068,-253.2 7.817,-254.467 7.132,-253.246 
		9.602,-251.856 7.132,-250.467 7.817,-249.246 10.068,-250.513 10.068,-247.839 12.068,-247.839 12.068,-250.469 14.241,-249.246 
		14.927,-250.467 12.457,-251.856 14.927,-253.246 	"/>
	<polygon points="23.257,-261.449 21.084,-260.227 21.084,-262.821 19.084,-262.821 19.084,-260.183 16.833,-261.449 
		16.147,-260.229 18.617,-258.839 16.147,-257.449 16.833,-256.229 19.084,-257.495 19.084,-254.821 21.084,-254.821 
		21.084,-257.451 23.257,-256.229 23.942,-257.449 21.473,-258.839 23.942,-260.229 	"/>
</g>
<rect x="-586.805" y="-843.674" fill="none" width="472.974" height="180.918"/>
<text transform="matrix(1 0 0 1 -407.1675 -772.2749)"><tspan x="0" y="0" font-family="'HelveticaNeueLTStd-Th'" font-size="100" letter-spacing="2">60</tspan><tspan x="-99.268" y="60" font-family="'HelveticaNeueLTStd-Lt'" font-size="48" letter-spacing="1">Weather Icons</tspan><tspan x="-3.726" y="104" font-family="'HelveticaNeueLTStd-Lt'" font-size="24">IOS 7 Style</tspan></text>
</svg>
