<?xml version="1.0" encoding="utf-8"?>
<!-- Generator: Adobe Illustrator 16.0.0, SVG Export Plug-In . SVG Version: 6.00 Build 0)  -->
<!DOCTYPE svg PUBLIC "-//W3C//DTD SVG 1.1//EN" "http://www.w3.org/Graphics/SVG/1.1/DTD/svg11.dtd">
<svg version="1.1" id="Layer_1" xmlns="http://www.w3.org/2000/svg" xmlns:xlink="http://www.w3.org/1999/xlink" x="0px" y="0px"
	 width="25.992px" height="30px" viewBox="0 0 25.992 30" enable-background="new 0 0 25.992 30" xml:space="preserve">
<path d="M120.446-100.817l-1.803,15.077l-0.268,2.237h2.254h6.896l-14.693,18.759l1.789-14.52l0.277-2.245h-2.262h-6.957
	L120.446-100.817 M123.301-107.842l-21.667,28.333h11.004l-2.671,21.667l21.667-27.661H120.63L123.301-107.842L123.301-107.842z"/>
<path d="M-292.589-563.078c6.79,0,12.749,4.814,14.171,11.448l0.318,1.483l1.514,0.094c4.203,0.262,7.496,3.763,7.496,7.971
	c0,4.396-3.565,7.977-7.957,8c-0.046-0.003-0.091-0.006-0.137-0.007l-2.043-0.036v0.043h-28.337l-0.578-0.003
	c-5.485-0.027-9.948-4.513-9.948-9.998c0-5.514,4.485-10,9.999-10c0.175,0,0.347,0.014,0.519,0.025l0.149,0.011l1.316,0.087
	l0.598-1.176C-303.016-560.035-298.065-563.078-292.589-563.078 M-292.589-565.078c-6.423,0-11.977,3.678-14.702,9.035
	c-0.266-0.018-0.53-0.04-0.8-0.04c-6.627,0-11.999,5.372-11.999,12c0,6.607,5.34,11.965,11.938,11.998v0.003h30.925v-0.007
	c0.046,0.001,0.091,0.007,0.137,0.007c5.521,0,10-4.477,10-10c0-5.311-4.145-9.642-9.372-9.967
	C-278.058-559.494-284.669-565.078-292.589-565.078L-292.589-565.078z"/>
<g>
	<path d="M-169.638-544.667c-1.444-6.742-7.433-11.8-14.605-11.8c-2.185,0-4.258,0.47-6.127,1.313
		c-1.666-3.202-5.006-5.394-8.865-5.394c-5.522,0-10,4.477-10,9.999c0,2.46,0.898,4.702,2.373,6.442
		c-1.428,1.84-2.287,4.144-2.287,6.653c0,5.983,4.836,10.836,10.813,10.865v0.003h28.007v-0.006
		c0.042,0.001,0.082,0.006,0.124,0.006c5.001,0,9.057-4.054,9.057-9.057C-161.149-540.45-164.903-544.372-169.638-544.667z
		 M-199.235-558.547c3.092,0,5.76,1.773,7.092,4.345c-2.299,1.44-4.178,3.488-5.414,5.918c-0.241-0.016-0.48-0.036-0.725-0.036
		c-2.766,0-5.281,1.041-7.2,2.743c-1.092-1.366-1.753-3.09-1.753-4.971C-207.235-554.958-203.646-558.547-199.235-558.547z
		 M-170.166-528.584c-0.038-0.003-0.077-0.004-0.117-0.005l-2.047-0.042v0.047h-25.403l-0.594-0.003
		c-4.864-0.023-8.822-4.001-8.822-8.865c0-4.89,3.978-8.868,8.867-8.868c0.15,0,0.299,0.012,0.447,0.021l0.148,0.011l1.314,0.085
		l0.598-1.174c2.224-4.373,6.643-7.09,11.531-7.09c6.062,0,11.381,4.298,12.65,10.219l0.317,1.482l1.514,0.095
		c3.708,0.231,6.612,3.319,6.612,7.03C-163.149-531.763-166.293-528.606-170.166-528.584z"/>
	<rect x="-200.229" y="-570.577" width="2" height="7.973"/>
	<rect x="-219.202" y="-551.591" width="7.973" height="2"/>
	<rect x="-214.476" y="-562.809" transform="matrix(0.7071 0.7071 -0.7071 0.7071 -458.9102 -15.7119)" width="7.974" height="2"/>
	<rect x="-188.968" y="-565.791" transform="matrix(0.7071 0.7071 -0.7071 0.7071 -452.3111 -31.6358)" width="2" height="7.972"/>
</g>
<path d="M-73.895-548.694c-1.444-6.742-7.433-11.8-14.605-11.8c-1.799,0-3.521,0.32-5.118,0.904
	c-0.949-5.108-5.404-8.98-10.788-8.98c-0.413,0-0.819,0.027-1.222,0.071c0.744,1.112,1.179,2.448,1.179,3.886c0,3.865-3.134,7-7,7
	c-1.438,0-2.773-0.435-3.886-1.179c-0.044,0.401-0.071,0.809-0.071,1.222c0,3.712,1.845,6.987,4.661,8.979
	c-1.653,1.907-2.661,4.389-2.661,7.111c0,5.983,4.836,10.836,10.813,10.865v0.003h28.007v-0.006
	c0.042,0.001,0.082,0.006,0.124,0.006c5.001,0,9.057-4.054,9.057-9.057C-65.406-544.478-69.16-548.399-73.895-548.694z
	 M-113.229-555.79c0.582,0.117,1.178,0.177,1.78,0.177c4.963,0,9-4.037,9-9c0-0.603-0.06-1.198-0.177-1.78
	c3.733,0.753,6.629,3.824,7.134,7.64c-2.713,1.444-4.928,3.699-6.322,6.442c-0.241-0.016-0.48-0.036-0.725-0.036
	c-2.537,0-4.865,0.876-6.715,2.334C-111.266-551.308-112.74-553.367-113.229-555.79z M-74.423-532.611
	c-0.038-0.003-0.077-0.004-0.117-0.005l-2.047-0.042v0.047h-25.403l-0.594-0.003c-4.864-0.023-8.822-4.001-8.822-8.865
	c0-4.89,3.978-8.868,8.867-8.868c0.15,0,0.299,0.012,0.447,0.021l0.148,0.011l1.314,0.085l0.598-1.174
	c2.224-4.373,6.643-7.09,11.531-7.09c6.062,0,11.381,4.298,12.65,10.219l0.317,1.482l1.514,0.095
	c3.708,0.231,6.612,3.319,6.612,7.03C-67.406-535.79-70.55-532.634-74.423-532.611z"/>
<g>
	<rect x="10.751" y="-540.071" width="2" height="7"/>
	<rect x="18.751" y="-544.071" width="2" height="7"/>
	<rect x="2.751" y="-544.071" width="2" height="7"/>
	<rect x="10.751" y="-530.071" width="2" height="7"/>
	<rect x="18.751" y="-534.071" width="2" height="7"/>
	<rect x="2.751" y="-534.071" width="2" height="7"/>
	<path d="M29.379-557.06c-1.596-7.445-8.207-13.029-16.127-13.029c-6.423,0-11.977,3.678-14.702,9.035
		c-0.266-0.018-0.53-0.04-0.8-0.04c-6.627,0-11.999,5.372-11.999,12c0,6.607,5.34,11.965,11.938,11.998v0.003h2.062v-2h-1.604
		l-0.447-0.003c-5.485-0.027-9.948-4.513-9.948-9.998c0-5.514,4.485-10,9.999-10c0.175,0,0.347,0.014,0.52,0.025l0.148,0.01
		l1.316,0.088l0.598-1.176c2.492-4.899,7.443-7.942,12.92-7.942c6.79,0,12.75,4.814,14.172,11.448l0.317,1.482l1.514,0.095
		c4.203,0.262,7.496,3.763,7.496,7.971c0,4.397-3.565,7.977-7.957,8c-0.05-0.003-0.093-0.005-0.137-0.007l-2.043,0.007h-2.863v2
		h4.863v-0.007c0.046,0.001,0.091,0.007,0.137,0.007c5.521,0,10-4.477,10-10C38.751-552.403,34.606-556.734,29.379-557.06z"/>
</g>
<g>
	<path d="M-173.048-467.702c-1.596-7.445-8.207-13.029-16.127-13.029c-6.423,0-11.977,3.678-14.702,9.035
		c-0.266-0.018-0.53-0.04-0.8-0.04c-6.627,0-11.999,5.372-11.999,12c0,6.607,5.34,11.965,11.938,11.998v0.003h2.062v-2h-1.604
		l-0.447-0.003c-5.485-0.027-9.948-4.513-9.948-9.998c0-5.514,4.485-10,9.999-10c0.175,0,0.347,0.014,0.52,0.025l0.148,0.01
		l1.316,0.088l0.598-1.176c2.492-4.899,7.443-7.942,12.92-7.942c6.79,0,12.75,4.814,14.172,11.448l0.317,1.482l1.514,0.095
		c4.203,0.262,7.496,3.763,7.496,7.971c0,4.397-3.565,7.977-7.957,8c-0.05-0.003-0.093-0.005-0.137-0.007l-2.043,0.007h-2.863v2
		h4.863v-0.007c0.046,0.001,0.091,0.007,0.137,0.007c5.521,0,10-4.477,10-10C-163.676-463.046-167.82-467.377-173.048-467.702z"/>
	<polygon points="-191.676,-440.707 -191.676,-438.767 -191.676,-432.707 -189.676,-432.707 -189.676,-438.767 -189.676,-440.707 
		-189.676,-452.707 -191.676,-452.707 	"/>
	<polygon points="-183.676,-444.707 -183.676,-442.954 -183.676,-436.707 -181.676,-436.707 -181.676,-442.954 -181.676,-444.707 
		-181.676,-456.707 -183.676,-456.707 	"/>
	<polygon points="-199.676,-444.707 -199.676,-442.642 -199.676,-436.707 -197.676,-436.707 -197.676,-442.642 -197.676,-444.707 
		-197.676,-456.707 -199.676,-456.707 	"/>
</g>
<g>
	<polygon points="122.602,-443.796 115.719,-453.626 114.081,-452.479 120.964,-442.648 122.076,-441.06 125.552,-436.096 
		127.19,-437.242 123.715,-442.207 	"/>
	<polygon points="130.604,-443.798 123.719,-453.626 122.081,-452.478 128.967,-442.649 129.972,-441.214 133.556,-436.099 
		135.194,-437.245 131.61,-442.361 	"/>
	<polygon points="114.602,-443.796 107.719,-453.626 106.081,-452.478 112.964,-442.648 114.148,-440.956 117.553,-436.095 
		119.19,-437.242 115.787,-442.104 	"/>
	<path d="M133.709-467.436c-1.596-7.445-8.207-13.029-16.127-13.029c-6.423,0-11.977,3.678-14.702,9.035
		c-0.266-0.018-0.53-0.04-0.8-0.04c-6.627,0-11.999,5.372-11.999,12c0,6.607,5.34,11.965,11.938,11.998v0.003h2.062v-2h-1.604
		l-0.447-0.003c-5.485-0.027-9.948-4.513-9.948-9.998c0-5.514,4.485-10,9.999-10c0.175,0,0.347,0.014,0.52,0.025l0.148,0.01
		l1.316,0.088l0.598-1.176c2.492-4.899,7.443-7.942,12.92-7.942c6.79,0,12.75,4.814,14.172,11.448l0.317,1.482l1.514,0.095
		c4.203,0.262,7.496,3.763,7.496,7.971c0,4.397-3.565,7.977-7.957,8c-0.05-0.003-0.093-0.005-0.137-0.007l-1.043,0.007h0.137v2
		h0.863v-0.007c0.046,0.001,0.091,0.007,0.137,0.007c5.521,0,10-4.477,10-10C143.081-462.779,138.937-467.11,133.709-467.436z"/>
</g>
<g>
	<rect x="105.407" y="-576.518" width="2" height="7.973"/>
	<rect x="86.407" y="-557.604" width="7.973" height="2"/>
	<rect x="91.08" y="-568.87" transform="matrix(0.7071 0.7071 -0.7071 0.7071 -373.7002 -233.5481)" width="7.974" height="2"/>
	<rect x="116.589" y="-571.852" transform="matrix(0.7071 0.7071 -0.7071 0.7071 -367.1011 -249.472)" width="2" height="7.972"/>
	<rect x="119.407" y="-535.645" width="2" height="7"/>
	<rect x="127.407" y="-539.645" width="2" height="7"/>
	<rect x="111.407" y="-539.645" width="2" height="7"/>
	<rect x="119.407" y="-525.645" width="2" height="7"/>
	<rect x="127.407" y="-529.645" width="2" height="7"/>
	<rect x="111.407" y="-529.645" width="2" height="7"/>
	<path d="M135.919-550.728c-1.444-6.742-7.433-11.8-14.605-11.8c-2.185,0-4.258,0.47-6.126,1.313
		c-1.667-3.202-5.007-5.394-8.866-5.394c-5.522,0-10,4.477-10,9.999c0,2.46,0.899,4.702,2.373,6.442
		c-1.429,1.84-2.287,4.144-2.287,6.653c0,5.983,4.836,10.836,10.813,10.865v0.003h1.188v-2h-0.721l-0.457-0.003
		c-4.864-0.023-8.822-4.001-8.822-8.865c0-4.89,3.978-8.868,8.867-8.868c0.15,0,0.299,0.012,0.447,0.022l0.148,0.01l1.314,0.085
		l0.597-1.175c2.225-4.372,6.644-7.089,11.532-7.089c6.062,0,11.382,4.298,12.649,10.219l0.318,1.483l1.514,0.094
		c3.708,0.23,6.612,3.319,6.612,7.03c0,3.878-3.144,7.035-7.017,7.057c-0.042-0.003-0.079-0.005-0.117-0.005l-2.047,0.005h-0.819v2
		h2.819v-0.006c0.042,0.001,0.082,0.006,0.124,0.006c5.001,0,9.057-4.054,9.057-9.057
		C144.407-546.511,140.653-550.433,135.919-550.728z M107.999-554.345c-0.241-0.016-0.48-0.036-0.725-0.036
		c-2.766,0-5.282,1.041-7.2,2.743c-1.092-1.366-1.753-3.09-1.753-4.971c0-4.41,3.589-7.999,8-7.999c3.091,0,5.76,1.773,7.091,4.345
		C111.114-558.822,109.234-556.774,107.999-554.345z"/>
</g>
<g>
	<rect x="219.824" y="-537.092" width="2" height="7"/>
	<rect x="227.824" y="-541.092" width="2" height="7"/>
	<rect x="211.824" y="-541.092" width="2" height="7"/>
	<rect x="219.824" y="-527.092" width="2" height="7"/>
	<rect x="227.824" y="-531.092" width="2" height="7"/>
	<rect x="211.824" y="-531.092" width="2" height="7"/>
	<path d="M236.336-552.175c-1.444-6.742-7.433-11.8-14.605-11.8c-1.799,0-3.522,0.32-5.118,0.904
		c-0.949-5.108-5.404-8.98-10.788-8.98c-0.413,0-0.819,0.027-1.222,0.071c0.744,1.112,1.179,2.448,1.179,3.886c0,3.865-3.134,7-7,7
		c-1.438,0-2.773-0.435-3.886-1.179c-0.044,0.401-0.071,0.809-0.071,1.222c0,3.712,1.845,6.987,4.661,8.979
		c-1.653,1.907-2.661,4.389-2.661,7.111c0,5.983,4.836,10.836,10.813,10.865v0.003h1.188v-2h-0.721l-0.457-0.003
		c-4.864-0.023-8.822-4.001-8.822-8.865c0-4.89,3.978-8.868,8.867-8.868c0.15,0,0.299,0.012,0.447,0.022l0.148,0.01l1.314,0.085
		l0.597-1.175c2.225-4.372,6.644-7.089,11.532-7.089c6.062,0,11.382,4.298,12.649,10.219l0.318,1.483l1.514,0.094
		c3.708,0.23,6.612,3.319,6.612,7.03c0,3.878-3.144,7.035-7.017,7.057c-0.042-0.003-0.079-0.005-0.117-0.005l-2.047,0.005h-0.819v2
		h2.819v-0.006c0.042,0.001,0.082,0.006,0.124,0.006c5.001,0,9.057-4.054,9.057-9.057
		C244.824-547.958,241.07-551.88,236.336-552.175z M208.416-555.792c-0.241-0.016-0.48-0.036-0.725-0.036
		c-2.537,0-4.865,0.876-6.715,2.334c-2.012-1.294-3.487-3.354-3.976-5.776c0.582,0.117,1.178,0.177,1.78,0.177c4.963,0,9-4.037,9-9
		c0-0.603-0.06-1.198-0.177-1.78c3.733,0.753,6.629,3.824,7.133,7.64C212.026-560.79,209.812-558.535,208.416-555.792z"/>
</g>
<g>
	<polygon points="-87.406,-436.269 -87.406,-434.328 -87.406,-428.269 -85.406,-428.269 -85.406,-434.328 -85.406,-436.269 
		-85.406,-448.269 -87.406,-448.269 	"/>
	<polygon points="-79.406,-440.269 -79.406,-438.516 -79.406,-432.269 -77.406,-432.269 -77.406,-438.516 -77.406,-440.269 
		-77.406,-452.269 -79.406,-452.269 	"/>
	<polygon points="-95.406,-440.269 -95.406,-438.203 -95.406,-432.269 -93.406,-432.269 -93.406,-438.203 -93.406,-440.269 
		-93.406,-452.269 -95.406,-452.269 	"/>
	<rect x="-101.406" y="-487.171" width="2" height="7.973"/>
	<rect x="-120.406" y="-468.257" width="7.973" height="2"/>
	<rect x="-115.733" y="-479.523" transform="matrix(0.7071 0.7071 -0.7071 0.7071 -371.0968 -61.1399)" width="7.974" height="2"/>
	<rect x="-90.225" y="-482.505" transform="matrix(0.7071 0.7071 -0.7071 0.7071 -364.4977 -77.0638)" width="2" height="7.972"/>
	<path d="M-70.895-461.381c-1.444-6.742-7.433-11.8-14.605-11.8c-2.185,0-4.258,0.47-6.127,1.313
		c-1.666-3.202-5.006-5.394-8.865-5.394c-5.522,0-10,4.477-10,9.999c0,2.46,0.898,4.702,2.373,6.442
		c-1.428,1.84-2.287,4.144-2.287,6.653c0,5.983,4.836,10.836,10.813,10.865v0.003h1.188v-2h-0.721l-0.457-0.003
		c-4.864-0.023-8.822-4.001-8.822-8.865c0-4.89,3.978-8.868,8.867-8.868c0.15,0,0.299,0.012,0.447,0.022l0.148,0.01l1.314,0.085
		l0.597-1.175c2.225-4.372,6.644-7.089,11.532-7.089c6.062,0,11.382,4.298,12.649,10.219l0.318,1.483l1.514,0.094
		c3.708,0.23,6.612,3.319,6.612,7.03c0,3.878-3.144,7.035-7.017,7.057c-0.042-0.003-0.079-0.005-0.117-0.005l-2.047,0.005h-0.819v2
		h2.819v-0.006c0.042,0.001,0.082,0.006,0.124,0.006c5.001,0,9.057-4.054,9.057-9.057C-62.406-457.164-66.16-461.086-70.895-461.381
		z M-98.814-464.998c-0.241-0.016-0.48-0.036-0.725-0.036c-2.766,0-5.281,1.042-7.2,2.743c-1.092-1.367-1.753-3.09-1.753-4.971
		c0-4.41,3.589-7.999,8-7.999c3.092,0,5.76,1.773,7.092,4.345C-95.699-469.477-97.578-467.428-98.814-464.998z"/>
</g>
<g>
	<polygon points="12.991,-438.785 12.991,-436.845 12.991,-430.785 14.991,-430.785 14.991,-436.845 14.991,-438.785 
		14.991,-450.785 12.991,-450.785 	"/>
	<polygon points="20.991,-442.785 20.991,-441.032 20.991,-434.785 22.991,-434.785 22.991,-441.032 22.991,-442.785 
		22.991,-454.785 20.991,-454.785 	"/>
	<polygon points="4.991,-442.785 4.991,-440.72 4.991,-434.785 6.991,-434.785 6.991,-440.72 6.991,-442.785 6.991,-454.785 
		4.991,-454.785 	"/>
	<path d="M29.503-463.897c-1.444-6.742-7.433-11.8-14.605-11.8c-1.799,0-3.521,0.32-5.118,0.904
		c-0.949-5.108-5.404-8.98-10.788-8.98c-0.413,0-0.819,0.027-1.222,0.071c0.744,1.112,1.179,2.448,1.179,3.886c0,3.865-3.134,7-7,7
		c-1.438,0-2.773-0.435-3.886-1.179c-0.044,0.401-0.071,0.809-0.071,1.222c0,3.712,1.845,6.987,4.661,8.979
		c-1.653,1.907-2.661,4.389-2.661,7.111c0,5.983,4.836,10.836,10.813,10.865v0.003h1.188v-2H1.271l-0.457-0.003
		c-4.864-0.023-8.822-4.001-8.822-8.865c0-4.89,3.978-8.868,8.867-8.868c0.15,0,0.299,0.012,0.447,0.022l0.148,0.01l1.314,0.085
		l0.597-1.175c2.225-4.372,6.644-7.089,11.532-7.089c6.062,0,11.382,4.298,12.649,10.219l0.318,1.483l1.514,0.094
		c3.708,0.23,6.612,3.319,6.612,7.03c0,3.878-3.144,7.035-7.017,7.057c-0.042-0.003-0.079-0.005-0.117-0.005l-2.047,0.005h-0.819v2
		h2.819v-0.006c0.042,0.001,0.082,0.006,0.124,0.006c5.001,0,9.057-4.054,9.057-9.057C37.991-459.681,34.237-463.603,29.503-463.897
		z M1.583-467.515c-0.241-0.016-0.48-0.036-0.725-0.036c-2.537,0-4.865,0.876-6.715,2.334c-2.012-1.294-3.486-3.354-3.976-5.776
		c0.582,0.117,1.178,0.177,1.78,0.177c4.963,0,9-4.037,9-9c0-0.603-0.06-1.198-0.177-1.78c3.733,0.753,6.629,3.824,7.134,7.641
		C5.192-472.513,2.978-470.257,1.583-467.515z"/>
</g>
<g>
	<polygon points="230.026,-437.841 223.144,-447.671 221.506,-446.523 228.389,-436.693 229.501,-435.104 232.977,-430.141 
		234.615,-431.287 231.14,-436.252 	"/>
	<polygon points="238.028,-437.843 231.144,-447.671 229.506,-446.522 236.392,-436.694 237.396,-435.259 240.98,-430.144 
		242.619,-431.29 239.035,-436.406 	"/>
	<polygon points="222.026,-437.841 215.144,-447.671 213.506,-446.522 220.389,-436.693 221.573,-435.001 224.978,-430.14 
		226.615,-431.287 223.212,-436.148 	"/>
	<rect x="209.506" y="-485.39" width="2" height="7.973"/>
	<rect x="190.506" y="-466.476" width="7.973" height="2"/>
	<rect x="195.179" y="-477.742" transform="matrix(0.7071 0.7071 -0.7071 0.7071 -278.7733 -280.4662)" width="7.974" height="2"/>
	<rect x="220.688" y="-480.724" transform="matrix(0.7071 0.7071 -0.7071 0.7071 -272.1741 -296.3901)" width="2" height="7.972"/>
	<path d="M240.018-459.6c-1.444-6.742-7.433-11.8-14.605-11.8c-2.185,0-4.258,0.47-6.126,1.313
		c-1.667-3.202-5.007-5.394-8.866-5.394c-5.522,0-10,4.477-10,9.999c0,2.46,0.899,4.702,2.373,6.442
		c-1.429,1.84-2.287,4.144-2.287,6.653c0,5.983,4.836,10.836,10.813,10.865v0.003h1.188v-2h-0.721l-0.457-0.003
		c-4.864-0.023-8.822-4.001-8.822-8.865c0-4.89,3.978-8.868,8.867-8.868c0.15,0,0.299,0.012,0.447,0.022l0.148,0.01l1.314,0.085
		l0.597-1.175c2.225-4.372,6.644-7.089,11.532-7.089c6.062,0,11.382,4.298,12.649,10.219l0.318,1.483l1.514,0.094
		c3.708,0.23,6.612,3.319,6.612,7.03c0,3.878-3.144,7.035-7.017,7.057c-0.042-0.003-0.079-0.005-0.117-0.005l-0.047,0.005h-0.819v2
		h0.819v-0.006c0.042,0.001,0.082,0.006,0.124,0.006c5.001,0,9.057-4.054,9.057-9.057
		C248.506-455.383,244.752-459.305,240.018-459.6z M212.098-463.217c-0.241-0.016-0.48-0.036-0.725-0.036
		c-2.766,0-5.282,1.042-7.2,2.743c-1.092-1.367-1.753-3.09-1.753-4.971c0-4.41,3.589-7.999,8-7.999c3.091,0,5.76,1.773,7.091,4.345
		C215.213-467.695,213.333-465.646,212.098-463.217z"/>
</g>
<g>
	<polygon points="-493.404,-341.355 -500.287,-351.186 -501.925,-350.038 -495.042,-340.208 -493.93,-338.619 -490.454,-333.655 
		-488.815,-334.802 -492.291,-339.767 	"/>
	<polygon points="-485.402,-341.357 -492.287,-351.186 -493.925,-350.037 -487.039,-340.209 -486.034,-338.773 -482.45,-333.658 
		-480.812,-334.805 -484.396,-339.921 	"/>
	<polygon points="-501.404,-341.355 -508.287,-351.186 -509.925,-350.037 -503.042,-340.208 -501.857,-338.516 -498.453,-333.654 
		-496.815,-334.802 -500.219,-339.663 	"/>
	<path d="M-483.413-363.114c-1.444-6.742-7.433-11.8-14.605-11.8c-1.799,0-3.522,0.32-5.118,0.904
		c-0.949-5.108-5.404-8.98-10.788-8.98c-0.413,0-0.819,0.027-1.222,0.071c0.744,1.112,1.179,2.448,1.179,3.886c0,3.865-3.134,7-7,7
		c-1.438,0-2.773-0.435-3.886-1.179c-0.044,0.401-0.071,0.809-0.071,1.222c0,3.712,1.845,6.987,4.661,8.979
		c-1.653,1.907-2.661,4.389-2.661,7.111c0,5.983,4.836,10.836,10.813,10.865v0.003h1.188v-2h-0.721l-0.457-0.003
		c-4.864-0.023-8.822-4.001-8.822-8.865c0-4.89,3.978-8.868,8.867-8.868c0.15,0,0.299,0.012,0.447,0.022l0.148,0.01l1.314,0.085
		l0.597-1.175c2.225-4.372,6.644-7.089,11.532-7.089c6.062,0,11.382,4.298,12.649,10.219l0.318,1.483l1.514,0.094
		c3.708,0.23,6.612,3.319,6.612,7.03c0,3.878-3.144,7.035-7.017,7.057c-0.042-0.003-0.079-0.005-0.117-0.005l-0.047,0.005h-0.819v2
		h0.819v-0.006c0.042,0.001,0.082,0.006,0.124,0.006c5.001,0,9.057-4.054,9.057-9.057
		C-474.925-358.897-478.679-362.819-483.413-363.114z M-511.333-366.731c-0.241-0.016-0.48-0.036-0.725-0.036
		c-2.537,0-4.865,0.876-6.715,2.334c-2.012-1.294-3.487-3.354-3.976-5.776c0.582,0.117,1.178,0.177,1.78,0.177c4.963,0,9-4.037,9-9
		c0-0.603-0.06-1.198-0.177-1.78c3.733,0.753,6.629,3.824,7.133,7.641C-507.723-371.729-509.938-369.474-511.333-366.731z"/>
</g>
<g>
	<rect x="-500.925" y="-445.202" width="2" height="4"/>
	<rect x="-492.925" y="-449.224" width="2" height="4.021"/>
	<rect x="-508.925" y="-449.224" width="2" height="4.021"/>
	<path d="M-482.297-465.19c-1.596-7.445-8.207-13.029-16.127-13.029c-6.423,0-11.977,3.678-14.702,9.035
		c-0.266-0.018-0.53-0.04-0.8-0.04c-6.627,0-11.999,5.372-11.999,12c0,6.607,5.34,11.965,11.938,11.998v0.003h2.062v-2h-1.604
		l-0.447-0.003c-5.485-0.027-9.948-4.513-9.948-9.998c0-5.514,4.485-10,9.999-10c0.175,0,0.347,0.014,0.52,0.025l0.148,0.01
		l1.316,0.088l0.598-1.176c2.492-4.899,7.443-7.942,12.92-7.942c6.79,0,12.75,4.814,14.172,11.448l0.317,1.482l1.514,0.095
		c4.203,0.262,7.496,3.763,7.496,7.971c0,4.397-3.565,7.977-7.957,8c-0.05-0.003-0.093-0.005-0.137-0.007l-2.043,0.007h-2.863v2
		h4.863v-0.007c0.046,0.001,0.091,0.007,0.137,0.007c5.521,0,10-4.477,10-10C-472.925-460.534-477.069-464.865-482.297-465.19z"/>
	<circle cx="-491.925" cy="-440.182" r="1.5"/>
	<circle cx="-499.925" cy="-436.213" r="1.5"/>
	<circle cx="-507.925" cy="-440.224" r="1.5"/>
</g>
<g>
	<rect x="-408.004" y="-484.656" width="2" height="7.973"/>
	<rect x="-427.004" y="-465.742" width="7.973" height="2"/>
	<rect x="-422.331" y="-477.009" transform="matrix(0.7071 0.7071 -0.7071 0.7071 -459.1191 156.3939)" width="7.974" height="2"/>
	<rect x="-396.822" y="-479.991" transform="matrix(0.7071 0.7071 -0.7071 0.7071 -452.5199 140.47)" width="2" height="7.972"/>
	<path d="M-377.492-458.866c-1.444-6.742-7.433-11.8-14.605-11.8c-2.185,0-4.258,0.47-6.126,1.313
		c-1.667-3.202-5.007-5.394-8.866-5.394c-5.522,0-10,4.477-10,9.999c0,2.46,0.899,4.702,2.373,6.442
		c-1.429,1.84-2.287,4.144-2.287,6.653c0,5.983,4.836,10.836,10.813,10.865v0.003h1.188v-2h-0.721l-0.457-0.003
		c-4.864-0.023-8.822-4.001-8.822-8.865c0-4.89,3.978-8.868,8.867-8.868c0.15,0,0.299,0.012,0.447,0.022l0.148,0.01l1.314,0.085
		l0.597-1.175c2.225-4.372,6.644-7.089,11.532-7.089c6.062,0,11.382,4.298,12.649,10.219l0.318,1.483l1.514,0.094
		c3.708,0.23,6.612,3.319,6.612,7.03c0,3.878-3.144,7.035-7.017,7.057c-0.042-0.003-0.079-0.005-0.117-0.005l-2.047,0.005h-0.819v2
		h2.819v-0.006c0.042,0.001,0.082,0.006,0.124,0.006c5.001,0,9.057-4.054,9.057-9.057
		C-369.004-454.649-372.758-458.571-377.492-458.866z M-405.412-462.483c-0.241-0.016-0.48-0.036-0.725-0.036
		c-2.766,0-5.282,1.042-7.2,2.743c-1.092-1.367-1.753-3.09-1.753-4.971c0-4.41,3.589-7.999,8-7.999c3.091,0,5.76,1.773,7.091,4.345
		C-402.297-466.962-404.177-464.913-405.412-462.483z"/>
	<rect x="-394.004" y="-440.768" width="2" height="4"/>
	<rect x="-386.004" y="-444.789" width="2" height="4.021"/>
	<rect x="-402.004" y="-444.789" width="2" height="4.021"/>
	<circle cx="-385.004" cy="-435.747" r="1.5"/>
	<circle cx="-393.004" cy="-431.778" r="1.5"/>
	<circle cx="-401.004" cy="-435.789" r="1.5"/>
</g>
<g>
	<path d="M-276.566-459.823c-1.444-6.742-7.433-11.8-14.605-11.8c-1.799,0-3.522,0.32-5.118,0.904
		c-0.949-5.108-5.404-8.98-10.788-8.98c-0.413,0-0.819,0.027-1.222,0.071c0.744,1.112,1.179,2.448,1.179,3.886c0,3.865-3.134,7-7,7
		c-1.438,0-2.773-0.435-3.886-1.179c-0.044,0.401-0.071,0.809-0.071,1.222c0,3.712,1.845,6.987,4.661,8.979
		c-1.653,1.907-2.661,4.389-2.661,7.111c0,5.983,4.836,10.836,10.813,10.865v0.003h1.188v-2h-0.721l-0.457-0.003
		c-4.864-0.023-8.822-4.001-8.822-8.865c0-4.89,3.978-8.868,8.867-8.868c0.15,0,0.299,0.012,0.447,0.022l0.148,0.01l1.314,0.085
		l0.597-1.175c2.225-4.372,6.644-7.089,11.532-7.089c6.062,0,11.382,4.298,12.649,10.219l0.318,1.483l1.514,0.094
		c3.708,0.23,6.612,3.319,6.612,7.03c0,3.878-3.144,7.035-7.017,7.057c-0.042-0.003-0.079-0.005-0.117-0.005l-2.047,0.005h-0.819v2
		h2.819v-0.006c0.042,0.001,0.082,0.006,0.124,0.006c5.001,0,9.057-4.054,9.057-9.057
		C-268.078-455.606-271.832-459.528-276.566-459.823z M-304.486-463.44c-0.241-0.016-0.48-0.036-0.725-0.036
		c-2.537,0-4.865,0.876-6.715,2.334c-2.012-1.294-3.487-3.354-3.976-5.776c0.582,0.117,1.178,0.177,1.78,0.177c4.963,0,9-4.037,9-9
		c0-0.603-0.06-1.198-0.177-1.78c3.733,0.753,6.629,3.824,7.133,7.641C-300.876-468.438-303.091-466.183-304.486-463.44z"/>
	<rect x="-293.078" y="-441.725" width="2" height="4"/>
	<rect x="-285.078" y="-445.746" width="2" height="4.021"/>
	<rect x="-301.078" y="-445.746" width="2" height="4.021"/>
	<circle cx="-284.078" cy="-436.704" r="1.5"/>
	<circle cx="-292.078" cy="-432.735" r="1.5"/>
	<circle cx="-300.078" cy="-436.746" r="1.5"/>
</g>
<g>
	<path d="M-379.876-366.793c-1.596-7.445-8.207-13.029-16.127-13.029c-6.423,0-11.977,3.678-14.702,9.035
		c-0.266-0.018-0.53-0.04-0.8-0.04c-6.627,0-11.999,5.372-11.999,12c0,6.607,5.34,11.965,11.938,11.998v0.003h6.062v-2h-5.604
		l-0.447-0.003c-5.485-0.027-9.948-4.513-9.948-9.998c0-5.514,4.485-10,9.999-10c0.175,0,0.347,0.014,0.52,0.025l0.148,0.01
		l1.316,0.088l0.598-1.176c2.492-4.899,7.443-7.942,12.92-7.942c6.79,0,12.75,4.814,14.172,11.448l0.317,1.482l1.514,0.095
		c4.203,0.262,7.496,3.763,7.496,7.971c0,4.397-3.565,7.977-7.957,8c-0.05-0.003-0.093-0.005-0.137-0.007l-5.043,0.007h0.137v2
		h4.863v-0.007c0.046,0.001,0.091,0.007,0.137,0.007c5.521,0,10-4.477,10-10C-370.504-362.137-374.648-366.468-379.876-366.793z"/>
	<polygon points="-395.662,-346.822 -393.893,-346.822 -393.462,-346.822 -391.452,-346.822 -397.866,-355.983 -399.504,-354.836 
		-395.293,-348.822 -397.063,-348.822 -399.504,-348.822 -398.232,-347.006 -397.12,-345.417 -391.143,-336.822 -389.504,-337.969 
		-395.481,-346.564 	"/>
</g>
<g>
	<rect x="-304.078" y="-385.923" width="2" height="7.973"/>
	<rect x="-323.078" y="-367.009" width="7.973" height="2"/>
	<rect x="-318.405" y="-378.275" transform="matrix(0.7071 0.7071 -0.7071 0.7071 -358.8649 111.8257)" width="7.974" height="2"/>
	<rect x="-292.896" y="-381.257" transform="matrix(0.7071 0.7071 -0.7071 0.7071 -352.2657 95.9017)" width="2" height="7.972"/>
	<path d="M-273.566-360.133c-1.444-6.742-7.433-11.8-14.605-11.8c-2.185,0-4.258,0.47-6.127,1.313
		c-1.666-3.202-5.006-5.394-8.865-5.394c-5.522,0-10,4.477-10,9.999c0,2.46,0.898,4.702,2.373,6.442
		c-1.428,1.84-2.287,4.144-2.287,6.653c0,5.983,4.836,10.836,10.813,10.865v0.003h4.188v-2h-3.721l-0.457-0.003
		c-4.864-0.023-8.822-4.001-8.822-8.865c0-4.89,3.978-8.868,8.867-8.868c0.15,0,0.299,0.012,0.447,0.022l0.148,0.01l1.314,0.085
		l0.597-1.175c2.225-4.372,6.644-7.089,11.532-7.089c6.062,0,11.382,4.298,12.649,10.219l0.318,1.483l1.514,0.094
		c3.708,0.23,6.612,3.319,6.612,7.03c0,3.878-3.144,7.035-7.017,7.057c-0.042-0.003-0.079-0.005-0.117-0.005l-2.047,0.005h-3.819v2
		h5.819v-0.006c0.042,0.001,0.082,0.006,0.124,0.006c5.001,0,9.057-4.054,9.057-9.057
		C-265.078-355.916-268.832-359.838-273.566-360.133z M-301.486-363.75c-0.241-0.016-0.48-0.036-0.725-0.036
		c-2.766,0-5.281,1.041-7.2,2.743c-1.092-1.366-1.753-3.09-1.753-4.971c0-4.41,3.589-7.999,8-7.999c3.092,0,5.76,1.773,7.092,4.345
		C-298.371-368.228-300.25-366.18-301.486-363.75z"/>
	<polygon points="-289.236,-342.043 -287.467,-342.043 -287.036,-342.043 -285.026,-342.043 -291.44,-351.204 -293.078,-350.057 
		-288.867,-344.043 -290.638,-344.043 -293.078,-344.043 -291.807,-342.227 -290.694,-340.638 -284.717,-332.043 -283.078,-333.189 
		-289.056,-341.785 	"/>
</g>
<g>
	<path d="M-173.981-362.429c-1.444-6.742-7.433-11.8-14.605-11.8c-1.799,0-3.521,0.32-5.118,0.904
		c-0.949-5.108-5.404-8.98-10.788-8.98c-0.413,0-0.819,0.027-1.222,0.071c0.744,1.112,1.179,2.448,1.179,3.886c0,3.865-3.134,7-7,7
		c-1.438,0-2.773-0.435-3.886-1.179c-0.044,0.401-0.071,0.809-0.071,1.222c0,3.712,1.845,6.987,4.661,8.979
		c-1.653,1.907-2.661,4.389-2.661,7.111c0,5.983,4.836,10.836,10.813,10.865v0.003h4.188v-2h-3.721l-0.457-0.003
		c-4.864-0.023-8.822-4.001-8.822-8.865c0-4.89,3.978-8.868,8.867-8.868c0.15,0,0.299,0.012,0.447,0.022l0.148,0.01l1.314,0.085
		l0.597-1.175c2.225-4.372,6.644-7.089,11.532-7.089c6.062,0,11.382,4.298,12.649,10.219l0.318,1.483l1.514,0.094
		c3.708,0.23,6.612,3.319,6.612,7.03c0,3.878-3.144,7.035-7.017,7.057c-0.042-0.003-0.079-0.005-0.117-0.005l-2.047,0.005h-3.819v2
		h5.819v-0.006c0.042,0.001,0.082,0.006,0.124,0.006c5.001,0,9.057-4.054,9.057-9.057
		C-165.493-358.212-169.247-362.134-173.981-362.429z M-201.901-366.046c-0.241-0.016-0.48-0.036-0.725-0.036
		c-2.537,0-4.865,0.876-6.715,2.334c-2.012-1.294-3.486-3.354-3.976-5.776c0.582,0.117,1.178,0.177,1.78,0.177c4.963,0,9-4.037,9-9
		c0-0.603-0.06-1.198-0.177-1.78c3.733,0.753,6.629,3.824,7.134,7.64C-198.292-371.044-200.507-368.789-201.901-366.046z"/>
	<polygon points="-189.651,-344.339 -187.882,-344.339 -187.451,-344.339 -185.441,-344.339 -191.855,-353.5 -193.493,-352.353 
		-189.282,-346.339 -191.053,-346.339 -193.493,-346.339 -192.222,-344.522 -191.109,-342.934 -185.132,-334.339 -183.493,-335.485 
		-189.471,-344.081 	"/>
</g>
<g>
	<path d="M-73.097-366.293c-1.596-7.445-8.207-13.029-16.127-13.029c-6.423,0-11.977,3.678-14.702,9.035
		c-0.266-0.018-0.53-0.04-0.8-0.04c-6.627,0-11.999,5.372-11.999,12c0,6.607,5.34,11.965,11.938,11.998v0.003h1.062v-2h-0.604
		l-0.447-0.003c-5.485-0.027-9.948-4.513-9.948-9.998c0-5.514,4.485-10,9.999-10c0.175,0,0.347,0.014,0.52,0.025l0.148,0.01
		l1.316,0.088l0.598-1.176c2.492-4.899,7.443-7.942,12.92-7.942c6.79,0,12.75,4.814,14.172,11.448l0.317,1.482l1.514,0.095
		c4.203,0.262,7.496,3.763,7.496,7.971c0,4.397-3.565,7.977-7.957,8c-0.05-0.003-0.093-0.005-0.137-0.007l-0.906,0.007v2h0.863
		v-0.007c0.046,0.001,0.091,0.007,0.137,0.007c5.521,0,10-4.477,10-10C-63.725-361.637-67.869-365.968-73.097-366.293z"/>
	
		<rect x="-104.29" y="-348.328" transform="matrix(-0.5736 -0.8191 0.8191 -0.5736 129.1838 -627.4146)" width="11.183" height="1.999"/>
	
		<rect x="-86.316" y="-348.328" transform="matrix(-0.5736 -0.8191 0.8191 -0.5736 157.4693 -612.6914)" width="11.183" height="1.999"/>
	<polygon points="-87.883,-343.322 -86.113,-343.322 -85.683,-343.322 -83.673,-343.322 -90.087,-352.483 -91.725,-351.336 
		-87.514,-345.322 -89.284,-345.322 -91.725,-345.322 -90.453,-343.506 -89.341,-341.917 -84.725,-335.322 -83.086,-336.469 
		-87.702,-343.064 	"/>
</g>
<g>
	<rect x="1.751" y="-385.76" width="2" height="7.973"/>
	<rect x="-17.249" y="-366.846" width="7.973" height="2"/>
	<rect x="-12.576" y="-378.112" transform="matrix(0.7071 0.7071 -0.7071 0.7071 -269.1743 -104.3804)" width="7.974" height="2"/>
	<rect x="12.933" y="-381.094" transform="matrix(0.7071 0.7071 -0.7071 0.7071 -262.5751 -120.3043)" width="2" height="7.972"/>
	<path d="M32.263-359.97c-1.444-6.742-7.433-11.8-14.605-11.8c-2.185,0-4.258,0.47-6.126,1.313
		c-1.667-3.202-5.007-5.394-8.866-5.394c-5.522,0-10,4.477-10,9.999c0,2.46,0.899,4.702,2.373,6.442
		c-1.429,1.84-2.287,4.144-2.287,6.653c0,5.983,4.836,10.836,10.813,10.865v0.003h0.188v-2l-0.178-0.003
		c-4.864-0.023-8.822-4.001-8.822-8.865c0-4.89,3.978-8.868,8.867-8.868c0.15,0,0.299,0.012,0.447,0.022l0.148,0.01l1.314,0.085
		l0.597-1.175c2.225-4.372,6.644-7.089,11.532-7.089c6.062,0,11.382,4.298,12.649,10.219l0.318,1.483l1.514,0.094
		c3.708,0.23,6.612,3.319,6.612,7.03c0,3.878-3.144,7.035-7.017,7.057c-0.042-0.003-0.079-0.005-0.117-0.005l-0.866,0.005v2h0.819
		v-0.006c0.042,0.001,0.082,0.006,0.124,0.006c5.001,0,9.057-4.054,9.057-9.057C40.751-355.753,36.997-359.675,32.263-359.97z
		 M4.343-363.587c-0.241-0.016-0.48-0.036-0.725-0.036c-2.766,0-5.282,1.042-7.2,2.743c-1.092-1.367-1.753-3.09-1.753-4.971
		c0-4.41,3.589-7.999,8-7.999c3.091,0,5.76,1.773,7.091,4.345C7.458-368.065,5.578-366.017,4.343-363.587z"/>
	
		<rect x="2.173" y="-343.89" transform="matrix(-0.5736 -0.8191 0.8191 -0.5736 293.0823 -533.2253)" width="11.183" height="1.999"/>
	
		<rect x="20.147" y="-343.89" transform="matrix(-0.5736 -0.8191 0.8191 -0.5736 321.3678 -518.5022)" width="11.183" height="1.999"/>
	<polygon points="18.58,-338.884 20.35,-338.884 20.78,-338.884 22.79,-338.884 16.376,-348.045 14.738,-346.897 18.949,-340.884 
		17.179,-340.884 14.738,-340.884 16.01,-339.067 17.122,-337.479 21.738,-330.884 23.377,-332.03 18.761,-338.626 	"/>
</g>
<g>
	<path d="M134.101-362.928c-1.444-6.742-7.433-11.8-14.605-11.8c-1.799,0-3.522,0.32-5.118,0.904
		c-0.949-5.108-5.404-8.98-10.788-8.98c-0.413,0-0.819,0.027-1.222,0.071c0.744,1.112,1.179,2.448,1.179,3.886c0,3.865-3.134,7-7,7
		c-1.438,0-2.773-0.435-3.886-1.179c-0.044,0.401-0.071,0.809-0.071,1.222c0,3.712,1.845,6.987,4.661,8.979
		c-1.653,1.907-2.661,4.389-2.661,7.111c0,5.983,4.836,10.836,10.813,10.865v0.003h0.188v-2l-0.178-0.003
		c-4.864-0.023-8.822-4.001-8.822-8.865c0-4.89,3.978-8.868,8.867-8.868c0.15,0,0.299,0.012,0.447,0.022l0.148,0.01l1.314,0.085
		l0.597-1.175c2.225-4.372,6.644-7.089,11.532-7.089c6.062,0,11.382,4.298,12.649,10.219l0.318,1.483l1.514,0.094
		c3.708,0.23,6.612,3.319,6.612,7.03c0,3.878-3.144,7.035-7.017,7.057c-0.042-0.003-0.079-0.005-0.117-0.005l-0.866,0.005v2h0.819
		v-0.006c0.042,0.001,0.082,0.006,0.124,0.006c5.001,0,9.057-4.054,9.057-9.057C142.589-358.711,138.835-362.633,134.101-362.928z
		 M106.181-366.545c-0.241-0.016-0.48-0.036-0.725-0.036c-2.537,0-4.865,0.876-6.715,2.334c-2.012-1.294-3.487-3.354-3.976-5.776
		c0.582,0.117,1.178,0.177,1.78,0.177c4.963,0,9-4.037,9-9c0-0.603-0.06-1.198-0.177-1.78c3.733,0.753,6.629,3.824,7.133,7.641
		C109.791-371.543,107.576-369.287,106.181-366.545z"/>
	
		<rect x="104.01" y="-346.848" transform="matrix(-0.5736 -0.8191 0.8191 -0.5736 455.7597 -454.4647)" width="11.183" height="1.999"/>
	
		<rect x="121.984" y="-346.848" transform="matrix(-0.5736 -0.8191 0.8191 -0.5736 484.0452 -439.7415)" width="11.183" height="1.999"/>
	<polygon points="120.417,-341.842 122.187,-341.842 122.617,-341.842 124.627,-341.842 118.213,-351.003 116.575,-349.855 
		120.786,-343.842 119.016,-343.842 116.575,-343.842 117.847,-342.025 118.959,-340.437 123.575,-333.842 125.214,-334.988 
		120.598,-341.584 	"/>
</g>
<g>
	<g>
		<path d="M-276.462-276.473c-1.596-7.445-8.207-13.029-16.127-13.029c-6.423,0-11.977,3.678-14.702,9.035
			c-0.266-0.018-0.53-0.04-0.8-0.04c-6.627,0-11.999,5.372-11.999,12c0,6.607,5.34,11.965,11.938,11.998v0.003h2.062v-2h-1.604
			l-0.447-0.003c-5.485-0.027-9.948-4.513-9.948-9.998c0-5.514,4.485-10,9.999-10c0.175,0,0.347,0.014,0.52,0.025l0.148,0.01
			l1.316,0.088l0.598-1.176c2.492-4.899,7.443-7.942,12.92-7.942c6.79,0,12.75,4.814,14.172,11.448l0.317,1.482l1.514,0.095
			c4.203,0.262,7.496,3.763,7.496,7.971c0,4.397-3.565,7.977-7.957,8c-0.05-0.003-0.093-0.005-0.137-0.007l-2.043,0.007h-2.863v2
			h4.863v-0.007c0.046,0.001,0.091,0.007,0.137,0.007c5.521,0,10-4.477,10-10C-267.09-271.816-271.234-276.147-276.462-276.473z"/>
	</g>
	<g>
		<circle cx="-301.59" cy="-262.93" r="1.5"/>
	</g>
	<g>
		<circle cx="-297.59" cy="-257.006" r="1.5"/>
	</g>
	<g>
		<circle cx="-289.59" cy="-257.006" r="1.5"/>
	</g>
	<g>
		<circle cx="-293.59" cy="-262.93" r="1.5"/>
	</g>
	<g>
		<circle cx="-285.59" cy="-262.93" r="1.5"/>
	</g>
	<g>
		<circle cx="-301.59" cy="-250.984" r="1.5"/>
	</g>
	<g>
		<circle cx="-293.59" cy="-250.984" r="1.5"/>
	</g>
	<g>
		<circle cx="-285.59" cy="-250.984" r="1.5"/>
	</g>
</g>
<g>
	<g>
		<rect x="-200.676" y="-291.95" width="2" height="7.973"/>
	</g>
	<g>
		<rect x="-219.676" y="-273.036" width="7.973" height="2"/>
	</g>
	<g>
		<rect x="-215.003" y="-284.303" transform="matrix(0.7071 0.7071 -0.7071 0.7071 -262.1303 66.2331)" width="7.974" height="2"/>
	</g>
	<g>
		<rect x="-189.494" y="-287.285" transform="matrix(0.7071 0.7071 -0.7071 0.7071 -255.5312 50.3092)" width="2" height="7.972"/>
	</g>
	<g>
		<path d="M-170.164-266.16c-1.444-6.742-7.433-11.8-14.605-11.8c-2.185,0-4.258,0.47-6.127,1.313
			c-1.666-3.202-5.006-5.394-8.865-5.394c-5.522,0-10,4.477-10,9.999c0,2.46,0.898,4.702,2.373,6.442
			c-1.428,1.84-2.287,4.144-2.287,6.653c0,5.983,4.836,10.836,10.813,10.865v0.003h1.188v-2h-0.721l-0.457-0.003
			c-4.864-0.023-8.822-4.001-8.822-8.865c0-4.89,3.978-8.868,8.867-8.868c0.15,0,0.299,0.012,0.447,0.022l0.148,0.01l1.314,0.085
			l0.597-1.175c2.225-4.372,6.644-7.089,11.532-7.089c6.062,0,11.382,4.298,12.649,10.219l0.318,1.483l1.514,0.094
			c3.708,0.23,6.612,3.319,6.612,7.03c0,3.878-3.144,7.035-7.017,7.057c-0.042-0.003-0.079-0.005-0.117-0.005l-2.047,0.005h-1.819v2
			h3.819v-0.006c0.042,0.001,0.082,0.006,0.124,0.006c5.001,0,9.057-4.054,9.057-9.057
			C-161.676-261.943-165.43-265.865-170.164-266.16z M-198.084-269.777c-0.241-0.016-0.48-0.036-0.725-0.036
			c-2.766,0-5.281,1.042-7.2,2.743c-1.092-1.367-1.753-3.09-1.753-4.971c0-4.41,3.589-7.999,8-7.999c3.092,0,5.76,1.773,7.092,4.345
			C-194.969-274.256-196.848-272.207-198.084-269.777z"/>
	</g>
	<g>
		<circle cx="-194.187" cy="-254.566" r="1.5"/>
	</g>
	<g>
		<circle cx="-190.187" cy="-248.566" r="1.5"/>
	</g>
	<g>
		<circle cx="-182.187" cy="-248.566" r="1.5"/>
	</g>
	<g>
		<circle cx="-186.187" cy="-254.566" r="1.5"/>
	</g>
	<g>
		<circle cx="-178.187" cy="-254.566" r="1.5"/>
	</g>
	<g>
		<circle cx="-194.187" cy="-242.545" r="1.5"/>
	</g>
	<g>
		<circle cx="-186.187" cy="-242.545" r="1.5"/>
	</g>
	<g>
		<circle cx="-178.187" cy="-242.545" r="1.5"/>
	</g>
</g>
<g>
	<g>
		<path d="M-74.213-270.116c-1.444-6.742-7.433-11.8-14.605-11.8c-1.799,0-3.521,0.32-5.118,0.904
			c-0.949-5.108-5.404-8.98-10.788-8.98c-0.413,0-0.819,0.027-1.222,0.071c0.744,1.112,1.179,2.448,1.179,3.886c0,3.865-3.134,7-7,7
			c-1.438,0-2.773-0.435-3.886-1.179c-0.044,0.401-0.071,0.809-0.071,1.222c0,3.712,1.845,6.987,4.661,8.979
			c-1.653,1.907-2.661,4.389-2.661,7.111c0,5.983,4.836,10.836,10.813,10.865v0.003h1.188v-2h-0.721l-0.457-0.003
			c-4.864-0.023-8.822-4.001-8.822-8.865c0-4.89,3.978-8.868,8.867-8.868c0.15,0,0.299,0.012,0.447,0.022l0.148,0.01l1.314,0.085
			l0.597-1.175c2.225-4.372,6.644-7.089,11.532-7.089c6.062,0,11.382,4.298,12.649,10.219l0.318,1.483l1.514,0.094
			c3.708,0.23,6.612,3.319,6.612,7.03c0,3.878-3.144,7.035-7.017,7.057c-0.042-0.003-0.079-0.005-0.117-0.005l-2.047,0.005h-1.819v2
			h3.819v-0.006c0.042,0.001,0.082,0.006,0.124,0.006c5.001,0,9.057-4.054,9.057-9.057
			C-65.725-265.899-69.479-269.821-74.213-270.116z M-102.133-273.733c-0.241-0.016-0.48-0.036-0.725-0.036
			c-2.537,0-4.865,0.876-6.715,2.334c-2.012-1.294-3.486-3.354-3.976-5.776c0.582,0.117,1.178,0.177,1.78,0.177c4.963,0,9-4.037,9-9
			c0-0.603-0.06-1.198-0.177-1.78c3.733,0.753,6.629,3.824,7.134,7.64C-98.523-278.731-100.738-276.477-102.133-273.733z"/>
	</g>
	<g>
		<circle cx="-98.225" cy="-258.523" r="1.5"/>
	</g>
	<g>
		<circle cx="-94.225" cy="-252.523" r="1.5"/>
	</g>
	<g>
		<circle cx="-86.225" cy="-252.523" r="1.5"/>
	</g>
	<g>
		<circle cx="-90.225" cy="-258.523" r="1.5"/>
	</g>
	<g>
		<circle cx="-82.225" cy="-258.523" r="1.5"/>
	</g>
	<g>
		<circle cx="-98.225" cy="-246.502" r="1.5"/>
	</g>
	<g>
		<circle cx="-90.225" cy="-246.502" r="1.5"/>
	</g>
	<g>
		<circle cx="-82.225" cy="-246.502" r="1.5"/>
	</g>
</g>
<g>
	<path d="M236.952-369.002c-1.596-7.445-8.207-13.029-16.127-13.029c-6.423,0-11.977,3.678-14.702,9.035
		c-0.266-0.018-0.53-0.04-0.8-0.04c-6.627,0-11.999,5.372-11.999,12c0,6.607,5.34,11.965,11.938,11.998v0.003h2.062v-2h-1.604
		l-0.447-0.003c-5.485-0.027-9.948-4.513-9.948-9.998c0-5.514,4.485-10,9.999-10c0.175,0,0.347,0.014,0.52,0.025l0.148,0.01
		l1.316,0.088l0.598-1.176c2.492-4.899,7.443-7.942,12.92-7.942c6.79,0,12.75,4.814,14.172,11.448l0.317,1.482l1.514,0.095
		c4.203,0.262,7.496,3.763,7.496,7.971c0,4.397-3.565,7.977-7.957,8c-0.05-0.003-0.093-0.005-0.137-0.007l-2.043,0.007h-2.863v2
		h4.863v-0.007c0.046,0.001,0.091,0.007,0.137,0.007c5.521,0,10-4.477,10-10C246.324-364.346,242.18-368.677,236.952-369.002z"/>
	<circle cx="211.324" cy="-341.531" r="1.5"/>
	<circle cx="219.324" cy="-335.531" r="1.5"/>
	<circle cx="227.324" cy="-339.531" r="1.5"/>
	<rect x="210.324" y="-358.007" width="2" height="11.976"/>
	<polygon points="220.324,-340.066 220.324,-342.007 220.324,-354.007 218.324,-354.007 218.324,-342.007 218.324,-340.066 
		218.324,-340.031 220.324,-340.031 	"/>
	<polygon points="228.324,-344.254 228.324,-346.007 228.324,-358.007 226.324,-358.007 226.324,-346.007 226.324,-344.254 
		226.324,-344.031 228.324,-344.031 	"/>
</g>
<g>
	<rect x="-511.425" y="-297.389" width="2" height="7.973"/>
	<rect x="-530.425" y="-278.475" width="7.973" height="2"/>
	<rect x="-525.752" y="-289.741" transform="matrix(0.7071 0.7071 -0.7071 0.7071 -356.9922 284.373)" width="7.974" height="2"/>
	<rect x="-500.243" y="-292.723" transform="matrix(0.7071 0.7071 -0.7071 0.7071 -350.3931 268.449)" width="2" height="7.972"/>
	<path d="M-480.913-271.599c-1.444-6.742-7.433-11.8-14.605-11.8c-2.185,0-4.258,0.47-6.126,1.313
		c-1.667-3.202-5.007-5.394-8.866-5.394c-5.522,0-10,4.477-10,9.999c0,2.46,0.899,4.702,2.373,6.442
		c-1.429,1.84-2.287,4.144-2.287,6.653c0,5.983,4.836,10.836,10.813,10.865v0.003h1.188v-2h-0.721l-0.457-0.003
		c-4.864-0.023-8.822-4.001-8.822-8.865c0-4.89,3.978-8.868,8.867-8.868c0.15,0,0.299,0.012,0.447,0.022l0.148,0.01l1.314,0.085
		l0.597-1.175c2.225-4.372,6.644-7.089,11.532-7.089c6.062,0,11.382,4.298,12.649,10.219l0.318,1.483l1.514,0.094
		c3.708,0.23,6.612,3.319,6.612,7.03c0,3.878-3.144,7.035-7.017,7.057c-0.042-0.003-0.079-0.005-0.117-0.005l-2.047,0.005h-0.819v2
		h2.819v-0.006c0.042,0.001,0.082,0.006,0.124,0.006c5.001,0,9.057-4.054,9.057-9.057
		C-472.425-267.382-476.179-271.304-480.913-271.599z M-508.833-275.216c-0.241-0.016-0.48-0.036-0.725-0.036
		c-2.766,0-5.282,1.041-7.2,2.743c-1.092-1.366-1.753-3.09-1.753-4.971c0-4.41,3.589-7.999,8-7.999c3.091,0,5.76,1.773,7.091,4.345
		C-505.718-279.693-507.598-277.646-508.833-275.216z"/>
	<circle cx="-504.435" cy="-245.028" r="1.5"/>
	<circle cx="-496.435" cy="-239.028" r="1.5"/>
	<circle cx="-488.435" cy="-243.028" r="1.5"/>
	<rect x="-505.435" y="-261.504" width="2" height="11.976"/>
	<polygon points="-495.435,-243.563 -495.435,-245.504 -495.435,-257.504 -497.435,-257.504 -497.435,-245.504 -497.435,-243.563 
		-497.435,-243.528 -495.435,-243.528 	"/>
	<polygon points="-487.435,-247.751 -487.435,-249.504 -487.435,-261.504 -489.435,-261.504 -489.435,-249.504 -489.435,-247.751 
		-489.435,-247.528 -487.435,-247.528 	"/>
</g>
<g>
	<path d="M-380.311-274.597c-1.444-6.742-7.433-11.8-14.605-11.8c-1.799,0-3.522,0.32-5.118,0.904
		c-0.949-5.108-5.404-8.98-10.788-8.98c-0.413,0-0.819,0.027-1.222,0.071c0.744,1.112,1.179,2.448,1.179,3.886c0,3.865-3.134,7-7,7
		c-1.438,0-2.773-0.435-3.886-1.179c-0.044,0.401-0.071,0.809-0.071,1.222c0,3.712,1.845,6.987,4.661,8.979
		c-1.653,1.907-2.661,4.389-2.661,7.111c0,5.983,4.836,10.836,10.813,10.865v0.003h1.188v-2h-0.721l-0.457-0.003
		c-4.864-0.023-8.822-4.001-8.822-8.865c0-4.89,3.978-8.868,8.867-8.868c0.15,0,0.299,0.012,0.447,0.022l0.148,0.01l1.314,0.085
		l0.597-1.175c2.225-4.372,6.644-7.089,11.532-7.089c6.062,0,11.382,4.298,12.649,10.219l0.318,1.483l1.514,0.094
		c3.708,0.23,6.612,3.319,6.612,7.03c0,3.878-3.144,7.035-7.017,7.057c-0.042-0.003-0.079-0.005-0.117-0.005l-2.047,0.005h-0.819v2
		h2.819v-0.006c0.042,0.001,0.082,0.006,0.124,0.006c5.001,0,9.057-4.054,9.057-9.057
		C-371.822-270.38-375.576-274.302-380.311-274.597z M-408.23-278.214c-0.241-0.016-0.48-0.036-0.725-0.036
		c-2.537,0-4.865,0.876-6.715,2.334c-2.012-1.294-3.487-3.354-3.976-5.776c0.582,0.117,1.178,0.177,1.78,0.177c4.963,0,9-4.037,9-9
		c0-0.603-0.06-1.198-0.177-1.78c3.733,0.753,6.629,3.824,7.133,7.64C-404.62-283.212-406.835-280.957-408.23-278.214z"/>
	<circle cx="-403.822" cy="-248.022" r="1.5"/>
	<circle cx="-395.822" cy="-242.022" r="1.5"/>
	<circle cx="-387.822" cy="-246.022" r="1.5"/>
	<rect x="-404.822" y="-264.498" width="2" height="11.976"/>
	<polygon points="-394.822,-246.558 -394.822,-248.498 -394.822,-260.498 -396.822,-260.498 -396.822,-248.498 -396.822,-246.558 
		-396.822,-246.522 -394.822,-246.522 	"/>
	<polygon points="-386.822,-250.745 -386.822,-252.498 -386.822,-264.498 -388.822,-264.498 -388.822,-252.498 -388.822,-250.745 
		-388.822,-250.522 -386.822,-250.522 	"/>
</g>
<g>
	<rect x="-528.425" y="-170.156" width="56" height="2"/>
	<rect x="-524.425" y="-164.156" width="50" height="2"/>
	<rect x="-518.425" y="-158.156" width="36" height="2"/>
	<rect x="-526.425" y="-176.156" width="52" height="2"/>
	<path d="M-514.551-184.161c0.175,0,0.347,0.014,0.519,0.025l0.149,0.01l1.316,0.088l0.598-1.176
		c2.493-4.899,7.443-7.942,12.92-7.942c6.79,0,12.75,4.814,14.171,11.448l0.318,1.482l1.514,0.095
		c1.207,0.075,2.335,0.425,3.336,0.975h3.286c-1.678-1.703-3.957-2.813-6.498-2.971c-1.596-7.445-8.207-13.029-16.127-13.029
		c-6.423,0-11.977,3.678-14.702,9.035c-0.266-0.018-0.53-0.04-0.8-0.04c-4.843,0-9.004,2.874-10.9,7.005h2.251
		C-521.469-182.143-518.244-184.161-514.551-184.161z"/>
</g>
<g>
	<rect x="-407.322" y="-197.671" width="2" height="7.973"/>
	<rect x="-426.322" y="-178.757" width="7.973" height="2"/>
	<rect x="-421.649" y="-190.023" transform="matrix(0.7071 0.7071 -0.7071 0.7071 -255.9902 239.968)" width="7.974" height="2"/>
	<rect x="-396.141" y="-193.005" transform="matrix(0.7071 0.7071 -0.7071 0.7071 -249.391 224.0441)" width="2" height="7.972"/>
	<rect x="-417.322" y="-163.797" width="50" height="2"/>
	<rect x="-413.322" y="-157.797" width="44" height="2"/>
	<rect x="-407.322" y="-152.797" width="30" height="2"/>
	<rect x="-415.322" y="-169.797" width="46" height="2"/>
	<path d="M-414.414-171.797h0.771h1.927h1.012c1.472-1.087,3.283-1.737,5.249-1.737c0.15,0,0.299,0.012,0.447,0.022l0.148,0.01
		l1.314,0.085l0.597-1.175c2.225-4.372,6.644-7.089,11.532-7.089c5.945,0,11.168,4.139,12.563,9.884h2.043v-0.084
		c-1.444-6.742-7.433-11.8-14.605-11.8c-2.185,0-4.258,0.47-6.126,1.313c-1.667-3.202-5.007-5.394-8.866-5.394
		c-5.522,0-10,4.477-10,9.999C-416.408-175.521-415.66-173.462-414.414-171.797z M-406.408-185.761c3.091,0,5.76,1.773,7.091,4.345
		c-2.298,1.44-4.178,3.488-5.413,5.918c-0.241-0.016-0.48-0.036-0.725-0.036c-2.764,0-5.274,1.045-7.189,2.745
		c-1.097-1.366-1.764-3.089-1.764-4.973C-414.408-182.172-410.819-185.761-406.408-185.761z"/>
</g>
<g>
	<rect x="-318.578" y="-167.234" width="50" height="2"/>
	<rect x="-314.578" y="-161.234" width="44" height="2"/>
	<rect x="-308.578" y="-156.234" width="30" height="2"/>
	<rect x="-316.578" y="-173.234" width="46" height="2"/>
	<path d="M-314.936-175.234h0.037h1.884h1.055c1.472-1.087,3.283-1.737,5.249-1.737c0.15,0,0.299,0.012,0.447,0.022l0.148,0.01
		l1.314,0.085l0.597-1.175c2.225-4.372,6.644-7.089,11.532-7.089c5.945,0,11.168,4.139,12.563,9.884h2.043v-0.084
		c-1.444-6.742-7.433-11.8-14.605-11.8c-1.799,0-3.521,0.32-5.117,0.903c-0.945-5.111-5.402-8.987-10.789-8.987
		c-0.413,0-0.819,0.027-1.222,0.071c0.744,1.112,1.179,2.448,1.179,3.886c0,3.865-3.134,7-7,7c-1.438,0-2.773-0.435-3.886-1.179
		c-0.044,0.401-0.071,0.809-0.071,1.222C-319.578-180.498-317.742-177.228-314.936-175.234z M-315.621-182.245c4.963,0,9-4.037,9-9
		c0-0.603-0.06-1.198-0.177-1.78c3.735,0.753,6.633,3.828,7.134,7.647c-2.712,1.443-4.927,3.699-6.322,6.442
		c-0.241-0.016-0.48-0.036-0.725-0.036c-2.534,0-4.855,0.879-6.701,2.335c-2.02-1.293-3.5-3.356-3.989-5.785
		C-316.819-182.305-316.224-182.245-315.621-182.245z"/>
</g>
<g>
	<path d="M-186.687-164.221h-19.474l-0.578-0.003c-5.485-0.027-9.948-4.513-9.948-9.998c0-5.514,4.485-10,9.999-10
		c0.175,0,0.347,0.014,0.519,0.025l0.149,0.01l1.316,0.088l0.598-1.176c2.493-4.899,7.443-7.942,12.92-7.942
		c6.79,0,12.75,4.814,14.171,11.448l0.318,1.482l1.514,0.095c1.822,0.113,3.463,0.845,4.746,1.971h2.732
		c-1.707-2.262-4.348-3.78-7.354-3.967c-1.596-7.445-8.207-13.029-16.127-13.029c-6.423,0-11.977,3.678-14.702,9.035
		c-0.266-0.018-0.53-0.04-0.8-0.04c-6.627,0-11.999,5.372-11.999,12c0,6.607,5.34,11.965,11.938,11.998v0.003h20.062
		c2.205,0,4,1.794,4,4s-1.795,4-4,4v2c3.314,0,6-2.686,6-6C-180.687-161.534-183.372-164.221-186.687-164.221z"/>
	<path d="M-182.687-168.221h-15.988v2h15.988c3.314,0,6-2.687,6-6c0-3.314-2.686-6-6-6v2c2.205,0,4,1.794,4,4
		S-180.481-168.221-182.687-168.221z"/>
	<path d="M-169.687-174.221c1.654,0,3,1.346,3,3s-1.346,3-3,3c-0.043,0-0.083-0.011-0.126-0.013h-4.862
		c0.003,0.005,0.009,0.008,0.012,0.013h-0.023v2h5.5v-0.051c2.523-0.254,4.5-2.358,4.5-4.949c0-2.762-2.238-5-5-5V-174.221z"/>
	<path d="M-165.687-164.221h-13v2h9.022c-0.004,0.005-0.008,0.008-0.011,0.013h3.862c0.043-0.002,0.083-0.013,0.126-0.013
		c1.654,0,3,1.346,3,3s-1.346,3-3,3v2c2.762,0,5-2.238,5-5S-162.925-164.221-165.687-164.221z"/>
	<rect x="-204.687" y="-168.221" width="4" height="2"/>
</g>
<path d="M-394.248-563.324c6.95,1.305,12.226,7.419,12.226,14.742c0,8.272-6.729,15.002-15,15.002
	c-6.79,0-12.531-4.49-14.366-10.728c1.398,0.461,2.867,0.698,4.366,0.698c7.72,0,14-6.281,14-14.001
	C-393.022-559.595-393.446-561.539-394.248-563.324 M-397.022-565.581c-0.338,0-0.668,0.031-1,0.051c1.861,2.113,3,4.881,3,7.92
	c0,6.627-5.372,12.001-12,12.001c-2.599,0-4.998-0.835-6.963-2.239c0.387,9.047,7.821,16.269,16.963,16.269
	c9.39,0,17-7.612,17-17.002S-387.633-565.581-397.022-565.581L-397.022-565.581z"/>
<g>
	<path d="M-500.418-560.586c-7.18,0-13,5.819-13,12.999c0,7.181,5.82,13.002,13,13.002s13-5.821,13-13.002
		C-487.418-554.767-493.238-560.586-500.418-560.586z M-500.418-536.585c-6.065,0-11-4.936-11-11.002
		c0-6.064,4.935-10.999,11-10.999s11,4.935,11,10.999C-489.418-541.521-494.353-536.585-500.418-536.585z"/>
	<rect x="-501.425" y="-573.58" width="2" height="10"/>
	<rect x="-501.425" y="-531.58" width="2" height="10"/>
	<rect x="-526.418" y="-548.58" width="9.993" height="2"/>
	<rect x="-484.425" y="-548.58" width="10.007" height="2"/>
	<rect x="-486.725" y="-567.494" transform="matrix(0.7071 0.7071 -0.7071 0.7071 -539.8644 178.7687)" width="2" height="10.409"/>
	
		<rect x="-516.134" y="-538.085" transform="matrix(-0.7071 -0.7071 0.7071 -0.7071 -502.5851 -1273.9382)" width="2" height="10.41"/>
	<rect x="-520.334" y="-563.285" transform="matrix(0.7071 0.7071 -0.7071 0.7071 -548.4732 199.5621)" width="10.409" height="2"/>
	
		<rect x="-490.926" y="-533.875" transform="matrix(-0.7072 -0.7071 0.7071 -0.7072 -452.425 -1253.134)" width="10.41" height="2"/>
</g>
<g>
	<rect x="-102.252" y="-202.719" width="2" height="7.973"/>
	<rect x="-121.225" y="-183.732" width="7.973" height="2"/>
	<rect x="-116.499" y="-194.951" transform="matrix(0.7071 0.7071 -0.7071 0.7071 -170.0981 22.7508)" width="7.974" height="2"/>
	<rect x="-90.99" y="-197.933" transform="matrix(0.7071 0.7071 -0.7071 0.7071 -163.4989 6.8269)" width="2" height="7.972"/>
	<path d="M-87.225-160.719l0.005-0.007h-12.536l-0.594-0.003c-4.864-0.024-8.822-4.001-8.822-8.865c0-4.89,3.978-8.868,8.867-8.868
		c0.15,0,0.299,0.012,0.447,0.021l0.148,0.011l1.314,0.085l0.597-1.174c2.225-4.373,6.644-7.09,11.532-7.09
		c5.916,0,11.114,4.099,12.54,9.8h2.065c-1.444-6.742-7.433-11.8-14.605-11.8c-2.185,0-4.258,0.47-6.126,1.313
		c-1.667-3.202-5.007-5.394-8.866-5.394c-5.522,0-10,4.477-10,9.999c0,2.46,0.899,4.702,2.373,6.442
		c-1.429,1.84-2.287,4.144-2.287,6.653c0,5.983,4.836,10.836,10.813,10.865v0.003h13.135v0.007c2.205,0,4,1.794,4,4s-1.795,4-4,4v2
		c3.314,0,6-2.686,6-6C-81.225-158.032-83.91-160.719-87.225-160.719z M-101.258-190.688c3.091,0,5.76,1.773,7.091,4.345
		c-2.298,1.439-4.178,3.488-5.413,5.918c-0.241-0.016-0.48-0.036-0.725-0.036c-2.766,0-5.282,1.042-7.2,2.743
		c-1.092-1.367-1.753-3.09-1.753-4.971C-109.258-187.1-105.669-190.688-101.258-190.688z"/>
	<path d="M-83.225-164.719h-9.988v2h9.988c3.314,0,6-2.687,6-6c0-3.314-2.686-6-6-6v2c2.205,0,4,1.794,4,4
		S-81.02-164.719-83.225-164.719z"/>
	<path d="M-75.201-164.719h-0.023v2h5.5v-0.051c2.523-0.254,4.5-2.358,4.5-4.949c0-2.762-2.238-5-5-5v2c1.654,0,3,1.346,3,3
		s-1.346,3-3,3c-0.043,0-0.083-0.011-0.126-0.013h-4.862C-75.21-164.727-75.204-164.723-75.201-164.719z"/>
	<path d="M-66.225-160.719h-13v2h9.022c-0.004,0.004-0.008,0.008-0.011,0.013h3.862c0.043-0.002,0.083-0.013,0.126-0.013
		c1.654,0,3,1.346,3,3s-1.346,3-3,3v2c2.762,0,5-2.238,5-5S-63.463-160.719-66.225-160.719z"/>
	<rect x="-99.225" y="-164.719" width="4" height="2"/>
</g>
<g>
	<path d="M12.737-162.725l0.005-0.007H0.206l-0.594-0.003c-4.864-0.024-8.822-4.001-8.822-8.865c0-4.89,3.978-8.868,8.867-8.868
		c0.15,0,0.299,0.012,0.447,0.021l0.148,0.011l1.314,0.085l0.597-1.174c2.225-4.373,6.644-7.09,11.532-7.09
		c5.916,0,11.114,4.099,12.54,9.8h2.065c-1.444-6.742-7.433-11.8-14.605-11.8c-1.806,0-3.536,0.322-5.138,0.91
		c-0.938-5.123-5.4-9.01-10.794-9.01c-0.413,0-0.819,0.027-1.222,0.071c0.744,1.112,1.179,2.448,1.179,3.886c0,3.865-3.134,7-7,7
		c-1.438,0-2.773-0.435-3.886-1.179c-0.044,0.401-0.071,0.809-0.071,1.222c0,3.725,1.858,7.009,4.69,8.998
		c-1.655,1.907-2.665,4.392-2.665,7.116c0,5.983,4.836,10.836,10.813,10.865v0.003h13.135v0.007c2.205,0,4,1.794,4,4s-1.795,4-4,4v2
		c3.314,0,6-2.686,6-6C18.737-160.038,16.052-162.725,12.737-162.725z M-11.059-185.934c0.582,0.117,1.178,0.177,1.78,0.177
		c4.963,0,9-4.037,9-9c0-0.603-0.06-1.198-0.177-1.78c3.744,0.755,6.646,3.842,7.138,7.674c-2.702,1.444-4.909,3.696-6.301,6.432
		c-0.241-0.016-0.48-0.036-0.725-0.036c-2.535,0-4.861,0.875-6.71,2.33C-9.081-181.43-10.567-183.498-11.059-185.934z"/>
	<path d="M16.737-166.725H6.749v2h9.988c3.314,0,6-2.687,6-6c0-3.314-2.686-6-6-6v2c2.205,0,4,1.794,4,4
		S18.942-166.725,16.737-166.725z"/>
	<path d="M24.761-166.725h-0.023v2h5.5v-0.051c2.523-0.254,4.5-2.358,4.5-4.949c0-2.762-2.238-5-5-5v2c1.654,0,3,1.346,3,3
		s-1.346,3-3,3c-0.043,0-0.083-0.011-0.126-0.013h-4.862C24.752-166.732,24.758-166.729,24.761-166.725z"/>
	<path d="M33.737-162.725h-13v2h9.022c-0.004,0.004-0.008,0.008-0.011,0.013h3.862c0.043-0.002,0.083-0.013,0.126-0.013
		c1.654,0,3,1.346,3,3s-1.346,3-3,3v2c2.762,0,5-2.238,5-5S36.499-162.725,33.737-162.725z"/>
	<rect x="0.737" y="-166.725" width="4" height="2"/>
</g>
<g>
	<rect x="113.63" y="-200.156" width="2" height="10"/>
	<rect x="88.637" y="-175.156" width="9.993" height="2"/>
	<rect x="128.33" y="-194.07" transform="matrix(0.7071 0.7071 -0.7071 0.7071 -95.6685 -146.7673)" width="2" height="10.409"/>
	<rect x="94.721" y="-189.861" transform="matrix(0.7071 0.7071 -0.7071 0.7071 -104.2773 -125.9739)" width="10.409" height="2"/>
	<path d="M118.63-160.156h-24v2h24c2.205,0,4,1.794,4,4s-1.795,4-4,4v2c3.314,0,6-2.686,6-6
		C124.63-157.47,121.944-160.156,118.63-160.156z"/>
	<path d="M130.653-164.156h-0.023v2h5.5v-0.051c2.523-0.254,4.5-2.358,4.5-4.949c0-2.762-2.238-5-5-5v2c1.654,0,3,1.346,3,3
		s-1.346,3-3,3c-0.043,0-0.083-0.011-0.126-0.013h-4.862C130.645-164.164,130.65-164.16,130.653-164.156z"/>
	<path d="M139.63-160.156h-13v2h9.022c-0.004,0.004-0.008,0.008-0.011,0.013h3.862c0.043-0.002,0.083-0.013,0.126-0.013
		c1.654,0,3,1.346,3,3s-1.346,3-3,3v2c2.762,0,5-2.238,5-5S142.392-160.156,139.63-160.156z"/>
	<path d="M106.339-164.156H94.63v2h12.012h0.822h15.166c3.314,0,6-2.687,6-6c0-3.314-2.686-6-6-6v2c2.205,0,4,1.794,4,4
		s-1.795,4-4,4h-12.538c-3.802-1.734-6.455-5.563-6.455-10.007c0-6.064,4.935-10.999,11-10.999c5.384,0,9.868,3.891,10.81,9.006
		h2.021c-0.961-6.23-6.331-11.006-12.831-11.006c-7.18,0-13,5.819-13,12.999C101.637-170.138,103.467-166.541,106.339-164.156z"/>
</g>
<g>
	<path d="M218.856-166.713h-24v2h24c2.205,0,4,1.794,4,4s-1.795,4-4,4v2c3.314,0,6-2.686,6-6
		C224.856-164.026,222.171-166.713,218.856-166.713z"/>
	<path d="M236.356-168.713v-0.051c2.523-0.254,4.5-2.358,4.5-4.949c0-2.762-2.238-5-5-5v2c1.654,0,3,1.346,3,3s-1.346,3-3,3
		c-0.043,0-0.083-0.011-0.126-0.013h-4.862c0.004,0.005,0.009,0.009,0.012,0.013h-0.023v2H236.356z"/>
	<path d="M239.856-166.713h-13v2h9.022c-0.003,0.004-0.007,0.008-0.011,0.013h3.862c0.043-0.002,0.083-0.013,0.126-0.013
		c1.654,0,3,1.346,3,3s-1.346,3-3,3v2c2.762,0,5-2.238,5-5S242.618-166.713,239.856-166.713z"/>
	<path d="M207.69-168.713h15.166c3.314,0,6-2.687,6-6c0-3.314-2.686-6-6-6v2c2.205,0,4,1.794,4,4s-1.795,4-4,4h-12.586
		c-2.596-1.188-4.658-3.339-5.69-6.034c0.849,0.204,1.724,0.309,2.612,0.309c6.168,0,11.187-5.019,11.187-11.188
		c0-1.276-0.22-2.532-0.64-3.717c4.046,1.102,7.168,4.459,7.937,8.63h2.018c-0.964-6.237-6.338-11.016-12.846-11.016
		c-0.259,0-0.511,0.024-0.766,0.039c1.425,1.618,2.297,3.737,2.297,6.063c0,5.072-4.112,9.188-9.187,9.188
		c-1.988,0-3.826-0.641-5.33-1.715c0.162,3.801,1.962,7.165,4.699,9.44h-11.705v2h12.012H207.69z"/>
</g>
<g>
	<path d="M-500.925-81.52h-20c-1.103,0-2-0.897-2-2s0.897-2,2-2h3.445h0.555v-2h-4c-2.209,0-4,1.791-4,4s1.791,4,4,4h20
		c2.205,0,4,1.794,4,4s-1.795,4-4,4v2c3.314,0,6-2.686,6-6C-494.925-78.833-497.61-81.52-500.925-81.52z"/>
	<path d="M-498.925-97.52v2c2.205,0,4,1.794,4,4s-1.795,4-4,4h-15.988v2h15.988c3.314,0,6-2.687,6-6
		C-492.925-94.834-495.61-97.52-498.925-97.52z"/>
	<path d="M-492.925-85.52v2h5.5v-0.051c2.523-0.254,4.5-2.358,4.5-4.949c0-2.762-2.238-5-5-5v2c1.654,0,3,1.346,3,3s-1.346,3-3,3
		c-0.043,0-0.083-0.011-0.126-0.013h-4.862c0.003,0.005,0.009,0.009,0.012,0.013H-492.925z"/>
	<path d="M-481.925-81.52h-11v2h7.022c-0.004,0.004-0.008,0.008-0.011,0.013h3.862c0.043-0.002,0.083-0.013,0.126-0.013
		c1.654,0,3,1.346,3,3s-1.346,3-3,3v2c2.762,0,5-2.238,5-5S-479.163-81.52-481.925-81.52z"/>
</g>
<path d="M35.367-95.173v-0.038H-3.009c-1.103,0-2-0.897-2-2s0.897-2,2-2h33c2.762,0,5-2.238,5-5s-2.238-5-5-5H-7.884v0.008
	c-0.042-0.001-0.083-0.008-0.125-0.008c-2.762,0-5,2.238-5,5s2.238,5,5,5v-2c-1.654,0-3-1.346-3-3s1.346-3,3-3h0.125h3.853h34.022
	c1.654,0,3,1.346,3,3s-1.346,3-3,3h-33c-2.209,0-4,1.791-4,4s1.791,4,4,4h38c1.103,0,2,0.897,2,2s-0.897,2-2,2h-32
	c-2.209,0-4,1.791-4,4s1.791,4,4,4h22c1.103,0,2,0.897,2,2s-0.897,2-2,2H0.981v0.001c-2.204,0.006-3.99,1.793-3.99,3.999
	s1.786,3.993,3.99,3.999v0.001h12.01c1.103,0,2,0.897,2,2s-0.897,2-2,2h-2c-2.209,0-4,1.791-4,4s1.791,4,4,4v-2
	c-1.103,0-2-0.897-2-2s0.897-2,2-2h2c2.209,0,4-1.791,4-4s-1.791-4-4-4h-12c-1.103,0-2-0.897-2-2s0.897-2,2-2h24
	c2.209,0,4-1.791,4-4c0-2.152-1.704-3.895-3.834-3.983v-0.017H2.991c-1.103,0-2-0.897-2-2s0.897-2,2-2h32c2.209,0,4-1.791,4-4
	C38.991-93.291,37.397-94.98,35.367-95.173z"/>
<path d="M220.782-104.495v-2.024h-2v2.024c-13.01,0.513-23.462,10.965-23.975,23.976h1.674c1.14-1.222,2.748-2,4.551-2
	c2.26,0,4.233,1.203,5.331,3h1.838c1.098-1.797,3.071-3,5.331-3c2.204,0,4.137,1.144,5.25,2.866v15.134c0,2.21,1.791,4,4,4
	s4-1.79,4-4h-2c0,1.103-0.897,2-2,2s-2-0.897-2-2v-15.134c1.113-1.723,3.046-2.866,5.25-2.866c2.26,0,4.233,1.203,5.331,3h1.838
	c1.098-1.797,3.071-3,5.331-3c1.803,0,3.411,0.778,4.551,2h1.674C244.244-93.53,233.792-103.982,220.782-104.495z M238.532-84.52
	c-2.496,0-4.736,1.114-6.25,2.87c-1.514-1.756-3.754-2.87-6.25-2.87s-4.736,1.114-6.25,2.87c-1.514-1.756-3.754-2.87-6.25-2.87
	s-4.736,1.114-6.25,2.87c-1.514-1.756-3.755-2.87-6.25-2.87c-1.402,0-2.731,0.351-3.897,0.975
	c1.909-10.769,11.339-18.975,22.647-18.975s20.738,8.206,22.647,18.975C241.264-84.169,239.935-84.52,238.532-84.52z"/>
<g>
	<path d="M-184.513,19.793V2.688c0-2.762-2.238-5-5-5s-5,2.238-5,5v17.105c-1.236,1.263-2,2.988-2,4.895c0,3.866,3.134,7,7,7
		s7-3.134,7-7C-182.513,22.781-183.276,21.056-184.513,19.793z M-189.513,29.688c-2.757,0-5-2.243-5-5
		c0-1.313,0.508-2.554,1.429-3.495l0.571-0.583v-0.816V2.688c0-1.654,1.346-3,3-3s3,1.346,3,3v17.105v0.816l0.571,0.583
		c0.921,0.941,1.429,2.183,1.429,3.495C-184.513,27.444-186.756,29.688-189.513,29.688z"/>
	<path d="M-188.513,21.863V6.688h-2v15.176c-1.167,0.413-2.008,1.516-2.008,2.824c0,1.662,1.347,3.008,3.008,3.008
		c1.662,0,3.008-1.346,3.008-3.008C-186.505,23.379-187.345,22.276-188.513,21.863z M-189.513,25.695
		c-0.556,0-1.008-0.452-1.008-1.008s0.452-1.008,1.008-1.008s1.008,0.452,1.008,1.008S-188.957,25.695-189.513,25.695z"/>
</g>
<g>
	<path d="M-84.725,19.793V2.688c0-2.762-2.238-5-5-5s-5,2.238-5,5v17.105c-1.236,1.263-2,2.988-2,4.895c0,3.866,3.134,7,7,7
		s7-3.134,7-7C-82.725,22.781-83.488,21.056-84.725,19.793z M-89.725,29.688c-2.757,0-5-2.243-5-5c0-1.313,0.508-2.554,1.429-3.495
		l0.571-0.583v-0.816V2.688c0-1.654,1.346-3,3-3s3,1.346,3,3v17.105v0.816l0.571,0.583c0.921,0.941,1.429,2.183,1.429,3.495
		C-84.725,27.444-86.968,29.688-89.725,29.688z"/>
	<path d="M-88.725,21.863V1.688h-2v20.176c-1.167,0.413-2.008,1.516-2.008,2.824c0,1.662,1.347,3.008,3.008,3.008
		c1.662,0,3.008-1.346,3.008-3.008C-86.717,23.379-87.557,22.276-88.725,21.863z M-89.725,25.695c-0.556,0-1.008-0.452-1.008-1.008
		s0.452-1.008,1.008-1.008s1.008,0.452,1.008,1.008S-89.169,25.695-89.725,25.695z"/>
</g>
<g>
	<path d="M-287.622,19.793V2.688c0-2.762-2.238-5-5-5s-5,2.238-5,5v17.105c-1.236,1.263-2,2.988-2,4.895c0,3.866,3.134,7,7,7
		s7-3.134,7-7C-285.622,22.781-286.386,21.056-287.622,19.793z M-292.622,29.688c-2.757,0-5-2.243-5-5
		c0-1.313,0.508-2.554,1.429-3.495l0.571-0.583v-0.816V2.688c0-1.654,1.346-3,3-3s3,1.346,3,3v17.105v0.816l0.571,0.583
		c0.921,0.941,1.429,2.183,1.429,3.495C-287.622,27.444-289.865,29.688-292.622,29.688z"/>
	<path d="M-291.622,21.863V11.688h-2v10.176c-1.167,0.413-2.008,1.516-2.008,2.824c0,1.662,1.347,3.008,3.008,3.008
		c1.662,0,3.008-1.346,3.008-3.008C-289.614,23.379-290.454,22.276-291.622,21.863z M-292.622,25.695
		c-0.556,0-1.008-0.452-1.008-1.008s0.452-1.008,1.008-1.008s1.008,0.452,1.008,1.008S-292.066,25.695-292.622,25.695z"/>
</g>
<g>
	<path d="M-391.268,19.793V2.688c0-2.762-2.238-5-5-5s-5,2.238-5,5v17.105c-1.236,1.263-2,2.988-2,4.895c0,3.866,3.134,7,7,7
		s7-3.134,7-7C-389.268,22.781-390.031,21.056-391.268,19.793z M-396.268,29.688c-2.757,0-5-2.243-5-5
		c0-1.313,0.508-2.554,1.429-3.495l0.571-0.583v-0.816V2.688c0-1.654,1.346-3,3-3s3,1.346,3,3v17.105v0.816l0.571,0.583
		c0.921,0.941,1.429,2.183,1.429,3.495C-391.268,27.444-393.511,29.688-396.268,29.688z"/>
	<path d="M-395.268,21.863v-5.176h-2v5.176c-1.167,0.413-2.008,1.516-2.008,2.824c0,1.662,1.347,3.008,3.008,3.008
		c1.662,0,3.008-1.346,3.008-3.008C-393.26,23.379-394.1,22.276-395.268,21.863z M-396.268,25.695c-0.556,0-1.008-0.452-1.008-1.008
		s0.452-1.008,1.008-1.008s1.008,0.452,1.008,1.008S-395.712,25.695-396.268,25.695z"/>
</g>
<g>
	<path d="M-495.925,19.793V2.688c0-2.762-2.238-5-5-5s-5,2.238-5,5v17.105c-1.236,1.263-2,2.988-2,4.895c0,3.866,3.134,7,7,7
		s7-3.134,7-7C-493.925,22.781-494.688,21.056-495.925,19.793z M-500.925,29.688c-2.757,0-5-2.243-5-5
		c0-1.313,0.508-2.554,1.429-3.495l0.571-0.583v-0.816V2.688c0-1.654,1.346-3,3-3s3,1.346,3,3v17.105v0.816l0.571,0.583
		c0.921,0.941,1.429,2.183,1.429,3.495C-495.925,27.444-498.168,29.688-500.925,29.688z"/>
	<path d="M-500.925,21.68c-1.661,0-3.008,1.347-3.008,3.008c0,1.662,1.347,3.008,3.008,3.008c1.662,0,3.008-1.346,3.008-3.008
		C-497.917,23.026-499.263,21.68-500.925,21.68z M-500.925,25.695c-0.556,0-1.008-0.452-1.008-1.008s0.452-1.008,1.008-1.008
		s1.008,0.452,1.008,1.008S-500.369,25.695-500.925,25.695z"/>
</g>
<g>
	<path d="M4,0C1.791,0,0,1.791,0,4c0,2.21,1.791,4,4,4c2.211,0,4-1.79,4-4C8,1.791,6.211,0,4,0z M4,6C2.897,6,2,5.103,2,4
		s0.897-2,2-2s2,0.897,2,2S5.103,6,4,6z"/>
	<path d="M18,28c-4.41,0-7.999-3.589-7.999-7.999v-4.002C10.001,11.589,13.59,8,18,8c2.715,0,5.115,1.362,6.563,3.437l1.43-1.43
		C24.168,7.578,21.272,6,18,6c-5.522,0-9.999,4.478-9.999,9.999v4.002C8.001,25.522,12.478,30,18,30
		c3.272,0,6.168-1.579,7.992-4.008l-1.43-1.43C23.116,26.637,20.716,28,18,28z"/>
</g>
<g>
	<path d="M108.696-0.121c-2.209,0-4,1.791-4,4c0,2.21,1.791,4,4,4c2.211,0,4-1.79,4-4C112.696,1.67,110.907-0.121,108.696-0.121z
		 M108.696,5.879c-1.103,0-2-0.897-2-2s0.897-2,2-2s2,0.897,2,2S109.799,5.879,108.696,5.879z"/>
	<polygon points="128.571,8 128.571,6 116.571,6 114.571,6 114.571,30 116.571,30 116.571,18 124.571,18 124.571,16 116.571,16 
		116.571,8 	"/>
</g>
<g>
	<path d="M219.782,3.691c-7.179,0-13,5.82-13,13s5.821,13,13,13s13-5.82,13-13S226.961,3.691,219.782,3.691z M219.782,27.691
		c-6.065,0-11-4.935-11-11s4.935-11,11-11s11,4.935,11,11S225.848,27.691,219.782,27.691z"/>
	<path d="M215.516,20.934l6.363-2.121L224,12.448l-6.363,2.122L215.516,20.934z M219.218,16.151l1.62-0.54l-0.54,1.62l-1.62,0.54
		L219.218,16.151z"/>
</g>
<g>
	<path d="M-500.925,94.209c-7.179,0-13,5.82-13,13s5.821,13,13,13s13-5.82,13-13S-493.746,94.209-500.925,94.209z M-500.925,118.209
		c-6.065,0-11-4.934-11-11c0-6.064,4.935-11,11-11s11,4.936,11,11C-489.925,113.275-494.859,118.209-500.925,118.209z"/>
	<path d="M-498.363,105.631l-2.586-4.422l-2.529,4.33h0.007c-0.299,0.467-0.478,1.018-0.478,1.613c0,1.656,1.343,3,3,3s3-1.344,3-3
		c0-0.559-0.162-1.074-0.428-1.521H-498.363z M-500.949,108.152c-0.552,0-1-0.449-1-1c0-0.188,0.055-0.367,0.162-0.535l0.864-1.355
		l0.826,1.391c0.098,0.164,0.147,0.332,0.147,0.5C-499.949,107.703-500.397,108.152-500.949,108.152z"/>
</g>
<g>
	<path d="M-396.141,94.209c-7.18,0-13,5.82-13,13s5.82,13,13,13s13-5.82,13-13S-388.961,94.209-396.141,94.209z M-396.141,118.209
		c-6.065,0-11-4.934-11-11c0-6.064,4.935-11,11-11s11,4.936,11,11C-385.141,113.275-390.075,118.209-396.141,118.209z"/>
	<path d="M-394.552,104.629c-0.467-0.299-1.018-0.477-1.613-0.477c-1.658,0-3,1.342-3,3c0,1.656,1.342,3,3,3
		c0.557,0,1.072-0.162,1.52-0.428v0.014l4.422-2.586l-4.328-2.529V104.629z M-395.667,108.004c-0.164,0.098-0.332,0.148-0.498,0.148
		c-0.552,0-1-0.449-1-1c0-0.553,0.448-1,1-1c0.188,0,0.368,0.053,0.535,0.16l1.355,0.865L-395.667,108.004z"/>
</g>
<g>
	<path d="M-293.09,94.209c-7.18,0-13,5.82-13,13s5.82,13,13,13s13-5.82,13-13S-285.91,94.209-293.09,94.209z M-293.09,118.209
		c-6.065,0-11-4.934-11-11c0-6.064,4.935-11,11-11s11,4.936,11,11C-282.09,113.275-287.024,118.209-293.09,118.209z"/>
	<path d="M-293.09,104.152c-1.656,0-3,1.342-3,3c0,0.557,0.162,1.072,0.428,1.52h-0.014l2.586,4.422l2.529-4.328h-0.006
		c0.299-0.467,0.477-1.018,0.477-1.613C-290.09,105.494-291.432,104.152-293.09,104.152z M-292.251,107.688l-0.865,1.355
		l-0.826-1.393c-0.098-0.164-0.147-0.332-0.147-0.498c0-0.553,0.448-1,1-1s1,0.447,1,1
		C-292.09,107.34-292.144,107.52-292.251,107.688z"/>
</g>
<g>
	<path d="M-189.676,94.209c-7.179,0-13,5.82-13,13s5.821,13,13,13s13-5.82,13-13S-182.497,94.209-189.676,94.209z M-189.676,118.209
		c-6.065,0-11-4.934-11-11c0-6.064,4.935-11,11-11s11,4.936,11,11C-178.676,113.275-183.61,118.209-189.676,118.209z"/>
	<path d="M-189.717,104.152c-0.557,0-1.072,0.162-1.52,0.428v-0.014l-4.422,2.586l4.328,2.529v-0.006
		c0.467,0.299,1.018,0.477,1.613,0.477c1.658,0,3-1.342,3-3C-186.717,105.496-188.059,104.152-189.717,104.152z M-189.717,108.152
		c-0.188,0-0.368-0.055-0.535-0.162l-1.355-0.865l1.393-0.826c0.164-0.098,0.332-0.146,0.498-0.146c0.552,0,1,0.447,1,1
		C-188.717,107.703-189.165,108.152-189.717,108.152z"/>
</g>
<g>
	<rect x="-397.827" y="-102.52" width="2" height="10"/>
	<rect x="-383.127" y="-96.434" transform="matrix(0.7071 0.7071 -0.7071 0.7071 -176.4312 243.4845)" width="2" height="10.409"/>
	<rect x="-416.736" y="-92.224" transform="matrix(0.7071 0.7071 -0.7071 0.7071 -185.04 264.278)" width="10.409" height="2"/>
	<polygon points="-403.495,-73.266 -402.081,-71.852 -397.827,-76.105 -397.827,-66.52 -395.827,-66.52 -395.827,-76.105 
		-391.574,-71.852 -390.16,-73.266 -396.827,-79.934 	"/>
	<path d="M-383.82-76.521c0-0.002,0-0.004,0-0.006c0-7.18-5.82-12.999-13-12.999s-13,5.819-13,12.999c0,0.002,0,0.004,0,0.006h-13v2
		h18v-2h-3c0-0.002,0-0.004,0-0.006c0-6.064,4.935-10.999,11-10.999s11,4.935,11,10.999c0,0.002,0,0.004,0,0.006h-3v2h17.995v-2
		H-383.82z"/>
</g>
<g>
	<rect x="-294.082" y="-103.707" width="2" height="10"/>
	<rect x="-279.382" y="-97.621" transform="matrix(0.7071 0.7071 -0.7071 0.7071 -146.8846 169.7779)" width="2" height="10.409"/>
	<rect x="-312.991" y="-93.412" transform="matrix(0.7071 0.7071 -0.7071 0.7071 -155.4935 190.5713)" width="10.409" height="2"/>
	<polygon points="-292.082,-69.16 -292.082,-79.707 -294.082,-79.707 -294.082,-69.16 -298.336,-73.414 -299.75,-72 
		-293.082,-65.332 -286.415,-72 -287.829,-73.414 	"/>
	<path d="M-280.075-77.708c0-0.002,0-0.004,0-0.006c0-7.18-5.82-12.999-13-12.999s-13,5.819-13,12.999c0,0.002,0,0.004,0,0.006h-13
		v2h22v-2h-7c0-0.002,0-0.004,0-0.006c0-6.064,4.935-10.999,11-10.999s11,4.935,11,10.999c0,0.002,0,0.004,0,0.006h-7v2h21.995v-2
		H-280.075z"/>
</g>
<g>
	<polygon points="-89.725,-69.694 -89.725,-84.077 -91.725,-84.077 -91.725,-69.694 -95.979,-73.948 -97.393,-72.534 
		-90.725,-65.866 -84.058,-72.534 -85.472,-73.948 	"/>
	<path d="M-74.097-89.048c-1.596-7.445-8.207-13.029-16.127-13.029c-6.423,0-11.977,3.678-14.702,9.035
		c-0.266-0.018-0.53-0.04-0.8-0.04c-6.627,0-11.999,5.372-11.999,12c0,6.607,5.34,11.965,11.938,11.998v0.003h6.062v-2h-5.604
		l-0.447-0.003c-5.485-0.027-9.948-4.513-9.948-9.998c0-5.514,4.485-10,9.999-10c0.175,0,0.347,0.014,0.52,0.025l0.148,0.01
		l1.316,0.088l0.598-1.176c2.492-4.899,7.443-7.942,12.92-7.942c6.79,0,12.75,4.814,14.172,11.448l0.317,1.482l1.514,0.095
		c4.203,0.262,7.496,3.763,7.496,7.971c0,4.397-3.565,7.977-7.957,8c-0.05-0.003-0.093-0.005-0.137-0.007l-2.043,0.007h-4.863v2
		h6.863v-0.007c0.046,0.001,0.091,0.007,0.137,0.007c5.521,0,10-4.477,10-10C-64.725-84.392-68.869-88.723-74.097-89.048z"/>
</g>
<g>
	<polygon points="-183.74,-72.89 -182.326,-74.304 -188.993,-80.972 -195.661,-74.304 -194.247,-72.89 -189.993,-77.144 
		-189.993,-64.558 -187.993,-64.558 -187.993,-77.144 	"/>
	<path d="M-172.365-87.452c-1.596-7.445-8.207-13.029-16.127-13.029c-6.423,0-11.977,3.678-14.702,9.035
		c-0.266-0.018-0.53-0.04-0.8-0.04c-6.627,0-11.999,5.372-11.999,12c0,6.607,5.34,11.965,11.938,11.998v0.003h10.062v-2h-9.604
		l-0.447-0.003c-5.485-0.027-9.948-4.513-9.948-9.998c0-5.514,4.485-10,9.999-10c0.175,0,0.347,0.014,0.52,0.025l0.148,0.01
		l1.316,0.088l0.598-1.176c2.492-4.899,7.443-7.942,12.92-7.942c6.79,0,12.75,4.814,14.172,11.448l0.317,1.482l1.514,0.095
		c4.203,0.262,7.496,3.763,7.496,7.971c0,4.397-3.565,7.977-7.957,8c-0.05-0.003-0.093-0.005-0.137-0.007l-2.043,0.007h-8.863v2
		h10.863v-0.007c0.046,0.001,0.091,0.007,0.137,0.007c5.521,0,10-4.477,10-10C-162.993-82.796-167.138-87.127-172.365-87.452z"/>
</g>
<g>
	<path d="M30.124-276.968c-1.596-7.445-8.207-13.029-16.127-13.029c-6.423,0-11.977,3.678-14.702,9.035
		c-0.266-0.018-0.53-0.04-0.8-0.04c-6.627,0-11.999,5.372-11.999,12c0,6.607,5.34,11.965,11.938,11.998v0.003h2.062v-2h-1.604
		l-0.447-0.003c-5.485-0.027-9.948-4.513-9.948-9.998c0-5.514,4.485-10,9.999-10c0.175,0,0.347,0.014,0.52,0.025l0.148,0.01
		l1.316,0.088l0.598-1.176c2.492-4.899,7.443-7.942,12.92-7.942c6.79,0,12.75,4.814,14.172,11.448l0.317,1.482L30-274.972
		c4.203,0.262,7.496,3.763,7.496,7.971c0,4.397-3.565,7.977-7.957,8c-0.05-0.003-0.093-0.005-0.137-0.007l-2.043,0.007h-0.863v2
		h2.863v-0.007c0.046,0.001,0.091,0.007,0.137,0.007c5.521,0,10-4.477,10-10C39.496-272.312,35.352-276.643,30.124-276.968z"/>
	<polygon points="8.496,-257.979 8.496,-260.609 10.669,-259.387 11.354,-260.607 8.885,-261.997 11.354,-263.387 10.669,-264.607 
		8.496,-263.385 8.496,-265.979 6.496,-265.979 6.496,-263.341 4.245,-264.607 3.56,-263.387 6.029,-261.997 3.56,-260.607 
		4.245,-259.387 6.496,-260.653 6.496,-257.979 	"/>
	<polygon points="13.658,-253.625 11.485,-252.402 11.485,-254.997 9.485,-254.997 9.485,-252.358 7.234,-253.625 6.549,-252.404 
		9.019,-251.015 6.549,-249.625 7.234,-248.404 9.485,-249.671 9.485,-246.997 11.485,-246.997 11.485,-249.627 13.658,-248.404 
		14.344,-249.625 11.874,-251.015 14.344,-252.404 	"/>
	<polygon points="22.674,-260.607 20.501,-259.385 20.501,-261.979 18.501,-261.979 18.501,-259.341 16.25,-260.607 
		15.564,-259.387 18.034,-257.997 15.564,-256.607 16.25,-255.387 18.501,-256.653 18.501,-253.979 20.501,-253.979 
		20.501,-256.609 22.674,-255.387 23.359,-256.607 20.89,-257.997 23.359,-259.387 	"/>
</g>
<g>
	<rect x="105.636" y="-295.02" width="2" height="7.973"/>
	<rect x="86.636" y="-276.105" width="7.973" height="2"/>
	<rect x="91.309" y="-287.372" transform="matrix(0.7071 0.7071 -0.7071 0.7071 -174.5841 -151.2608)" width="7.974" height="2"/>
	<rect x="116.817" y="-290.354" transform="matrix(0.7071 0.7071 -0.7071 0.7071 -167.985 -167.1848)" width="2" height="7.972"/>
	<path d="M136.147-269.229c-1.444-6.742-7.433-11.8-14.605-11.8c-2.185,0-4.258,0.471-6.127,1.314
		c-1.666-3.203-5.006-5.395-8.865-5.395c-5.522,0-10,4.477-10,9.999c0,2.46,0.899,4.702,2.373,6.442
		c-1.428,1.84-2.287,4.144-2.287,6.653c0,5.983,4.836,10.836,10.813,10.865v0.003h1.188v-2h-0.721l-0.457-0.003
		c-4.864-0.023-8.822-4.001-8.822-8.865c0-4.89,3.978-8.868,8.867-8.868c0.15,0,0.299,0.012,0.447,0.022l0.148,0.01l1.314,0.085
		l0.597-1.175c2.225-4.372,6.644-7.089,11.532-7.089c6.062,0,11.382,4.298,12.649,10.219l0.318,1.483l1.514,0.094
		c3.708,0.23,6.612,3.319,6.612,7.03c0,3.878-3.144,7.035-7.017,7.057c-0.042-0.003-0.079-0.005-0.117-0.005l-1.866,0.005v2h1.819
		v-0.006c0.042,0.001,0.082,0.006,0.124,0.006c5.001,0,9.057-4.054,9.057-9.057C144.636-265.013,140.882-268.935,136.147-269.229z
		 M108.228-272.847c-0.241-0.016-0.48-0.036-0.725-0.036c-2.766,0-5.282,1.041-7.2,2.742c-1.092-1.365-1.753-3.089-1.753-4.97
		c0-4.41,3.589-7.999,8-7.999c3.092,0,5.76,1.773,7.091,4.346C111.343-277.324,109.464-275.276,108.228-272.847z"/>
	<polygon points="115.628,-252.127 115.628,-254.757 117.801,-253.534 118.486,-254.755 116.017,-256.145 118.486,-257.534 
		117.801,-258.755 115.628,-257.532 115.628,-260.127 113.628,-260.127 113.628,-257.488 111.377,-258.755 110.691,-257.534 
		113.161,-256.145 110.691,-254.755 111.377,-253.534 113.628,-254.801 113.628,-252.127 	"/>
	<polygon points="120.79,-247.772 118.617,-246.55 118.617,-249.145 116.617,-249.145 116.617,-246.506 114.366,-247.772 
		113.681,-246.552 116.15,-245.162 113.681,-243.772 114.366,-242.552 116.617,-243.818 116.617,-241.145 118.617,-241.145 
		118.617,-243.774 120.79,-242.552 121.476,-243.772 119.006,-245.162 121.476,-246.552 	"/>
	<polygon points="129.806,-254.755 127.633,-253.532 127.633,-256.127 125.633,-256.127 125.633,-253.488 123.382,-254.755 
		122.696,-253.534 125.166,-252.145 122.696,-250.755 123.382,-249.534 125.633,-250.801 125.633,-248.127 127.633,-248.127 
		127.633,-250.757 129.806,-249.534 130.491,-250.755 128.021,-252.145 130.491,-253.534 	"/>
</g>
<g>
	<path d="M236.336-272.232c-1.444-6.742-7.433-11.8-14.605-11.8c-1.799,0-3.522,0.32-5.118,0.904
		c-0.949-5.108-5.404-8.98-10.788-8.98c-0.413,0-0.819,0.027-1.222,0.071c0.744,1.112,1.179,2.448,1.179,3.886c0,3.865-3.134,7-7,7
		c-1.438,0-2.773-0.435-3.886-1.179c-0.044,0.401-0.071,0.809-0.071,1.222c0,3.713,1.845,6.987,4.661,8.979
		c-1.653,1.907-2.661,4.389-2.661,7.111c0,5.983,4.836,10.836,10.813,10.865v0.003h1.188v-2h-0.721l-0.457-0.003
		c-4.864-0.023-8.822-4.001-8.822-8.865c0-4.89,3.978-8.868,8.867-8.868c0.15,0,0.299,0.012,0.447,0.022l0.148,0.01l1.314,0.085
		l0.597-1.175c2.225-4.372,6.644-7.089,11.532-7.089c6.062,0,11.382,4.298,12.649,10.219l0.318,1.483l1.514,0.094
		c3.708,0.23,6.612,3.319,6.612,7.03c0,3.878-3.144,7.035-7.017,7.057c-0.042-0.003-0.079-0.005-0.117-0.005l-1.866,0.005v2h1.819
		v-0.006c0.042,0.001,0.082,0.006,0.124,0.006c5.001,0,9.057-4.054,9.057-9.057C244.824-268.016,241.07-271.938,236.336-272.232z
		 M208.416-275.85c-0.241-0.016-0.48-0.036-0.725-0.036c-2.537,0-4.865,0.877-6.715,2.334c-2.012-1.294-3.486-3.354-3.976-5.776
		c0.582,0.117,1.178,0.177,1.78,0.177c4.963,0,9-4.037,9-9c0-0.603-0.06-1.198-0.177-1.78c3.733,0.753,6.629,3.824,7.134,7.64
		C212.025-280.848,209.811-278.593,208.416-275.85z"/>
	<polygon points="215.861,-255.13 215.861,-257.76 218.034,-256.537 218.72,-257.758 216.25,-259.147 218.72,-260.537 
		218.034,-261.758 215.861,-260.535 215.861,-263.13 213.861,-263.13 213.861,-260.491 211.61,-261.758 210.925,-260.537 
		213.395,-259.147 210.925,-257.758 211.61,-256.537 213.861,-257.804 213.861,-255.13 	"/>
	<polygon points="221.023,-250.775 218.851,-249.553 218.851,-252.147 216.851,-252.147 216.851,-249.509 214.6,-250.775 
		213.914,-249.555 216.384,-248.165 213.914,-246.775 214.6,-245.555 216.851,-246.821 216.851,-244.147 218.851,-244.147 
		218.851,-246.777 221.023,-245.555 221.709,-246.775 219.239,-248.165 221.709,-249.555 	"/>
	<polygon points="230.039,-257.758 227.866,-256.535 227.866,-259.13 225.866,-259.13 225.866,-256.491 223.615,-257.758 
		222.93,-256.537 225.399,-255.147 222.93,-253.758 223.615,-252.537 225.866,-253.804 225.866,-251.13 227.866,-251.13 
		227.866,-253.76 230.039,-252.537 230.725,-253.758 228.255,-255.147 230.725,-256.537 	"/>
</g>
<rect x="-380.022" y="-839.982" fill="none" width="472.974" height="180.918"/>
<text transform="matrix(1 0 0 1 -200.3853 -768.5835)"><tspan x="0" y="0" font-family="'HelveticaNeueLTStd-Th'" font-size="100" letter-spacing="2">60</tspan><tspan x="-99.268" y="60" font-family="'HelveticaNeueLTStd-Lt'" font-size="48" letter-spacing="1">Weather Icons</tspan><tspan x="-3.726" y="104" font-family="'HelveticaNeueLTStd-Lt'" font-size="24">IOS 7 Style</tspan></text>
</svg>
