<?xml version="1.0" encoding="utf-8"?>
<!-- Generator: Adobe Illustrator 16.0.0, SVG Export Plug-In . SVG Version: 6.00 Build 0)  -->
<!DOCTYPE svg PUBLIC "-//W3C//DTD SVG 1.1//EN" "http://www.w3.org/Graphics/SVG/1.1/DTD/svg11.dtd">
<svg version="1.1" id="Layer_1" xmlns="http://www.w3.org/2000/svg" xmlns:xlink="http://www.w3.org/1999/xlink" x="0px" y="0px"
	 width="23.875px" height="30.121px" viewBox="0 0 23.875 30.121" enable-background="new 0 0 23.875 30.121" xml:space="preserve">
<path d="M15.75-100.696l-1.803,15.077l-0.268,2.237h2.254h6.896L8.137-64.623l1.789-14.52l0.277-2.245H7.941H0.984L15.75-100.696
	 M18.604-107.721L-3.063-79.388H7.941L5.271-57.721l21.667-27.661H15.934L18.604-107.721L18.604-107.721z"/>
<path d="M-397.285-562.957c6.79,0,12.749,4.814,14.171,11.448l0.318,1.483l1.514,0.094c4.203,0.262,7.496,3.763,7.496,7.971
	c0,4.396-3.565,7.977-7.957,8c-0.046-0.003-0.091-0.006-0.137-0.007l-2.043-0.036v0.043h-28.337l-0.578-0.003
	c-5.485-0.027-9.948-4.513-9.948-9.998c0-5.514,4.485-10,9.999-10c0.175,0,0.347,0.014,0.519,0.025l0.149,0.011l1.316,0.087
	l0.598-1.176C-407.712-559.914-402.762-562.957-397.285-562.957 M-397.285-564.957c-6.423,0-11.977,3.678-14.702,9.035
	c-0.266-0.018-0.53-0.04-0.8-0.04c-6.627,0-11.999,5.372-11.999,12c0,6.607,5.34,11.965,11.938,11.998v0.003h30.925v-0.007
	c0.046,0.001,0.091,0.007,0.137,0.007c5.521,0,10-4.477,10-10c0-5.311-4.145-9.642-9.372-9.967
	C-382.754-559.373-389.365-564.957-397.285-564.957L-397.285-564.957z"/>
<g>
	<path d="M-274.334-544.546c-1.444-6.742-7.433-11.8-14.605-11.8c-2.185,0-4.258,0.47-6.127,1.313
		c-1.666-3.202-5.006-5.394-8.865-5.394c-5.522,0-10,4.477-10,9.999c0,2.46,0.898,4.702,2.373,6.442
		c-1.428,1.84-2.287,4.144-2.287,6.653c0,5.983,4.836,10.836,10.813,10.865v0.003h28.007v-0.006
		c0.042,0.001,0.082,0.006,0.124,0.006c5.001,0,9.057-4.054,9.057-9.057C-265.846-540.329-269.6-544.251-274.334-544.546z
		 M-303.932-558.426c3.092,0,5.76,1.773,7.092,4.345c-2.299,1.44-4.178,3.488-5.414,5.918c-0.241-0.016-0.48-0.036-0.725-0.036
		c-2.766,0-5.281,1.041-7.2,2.743c-1.092-1.366-1.753-3.09-1.753-4.971C-311.932-554.837-308.343-558.426-303.932-558.426z
		 M-274.862-528.463c-0.038-0.003-0.077-0.004-0.117-0.005l-2.047-0.042v0.047h-25.403l-0.594-0.003
		c-4.864-0.023-8.822-4.001-8.822-8.865c0-4.89,3.978-8.868,8.867-8.868c0.15,0,0.299,0.012,0.447,0.021l0.148,0.011l1.314,0.085
		l0.598-1.174c2.224-4.373,6.643-7.09,11.531-7.09c6.062,0,11.381,4.298,12.65,10.219l0.317,1.482l1.514,0.095
		c3.708,0.231,6.612,3.319,6.612,7.03C-267.846-531.642-270.989-528.485-274.862-528.463z"/>
	<rect x="-304.926" y="-570.456" width="2" height="7.973"/>
	<rect x="-323.898" y="-551.47" width="7.973" height="2"/>
	<rect x="-319.173" y="-562.688" transform="matrix(0.7071 0.7071 -0.7071 0.7071 -489.4894 58.3551)" width="7.974" height="2"/>
	<rect x="-293.664" y="-565.67" transform="matrix(0.7071 0.7071 -0.7071 0.7071 -482.8903 42.4312)" width="2" height="7.972"/>
</g>
<path d="M-178.591-548.573c-1.444-6.742-7.433-11.8-14.605-11.8c-1.799,0-3.521,0.32-5.118,0.904
	c-0.949-5.108-5.404-8.98-10.788-8.98c-0.413,0-0.819,0.027-1.222,0.071c0.744,1.112,1.179,2.448,1.179,3.886c0,3.865-3.134,7-7,7
	c-1.438,0-2.773-0.435-3.886-1.179c-0.044,0.401-0.071,0.809-0.071,1.222c0,3.712,1.845,6.987,4.661,8.979
	c-1.653,1.907-2.661,4.389-2.661,7.111c0,5.983,4.836,10.836,10.813,10.865v0.003h28.007v-0.006
	c0.042,0.001,0.082,0.006,0.124,0.006c5.001,0,9.057-4.054,9.057-9.057C-170.103-544.356-173.856-548.278-178.591-548.573z
	 M-217.926-555.669c0.582,0.117,1.178,0.177,1.78,0.177c4.963,0,9-4.037,9-9c0-0.603-0.06-1.198-0.177-1.78
	c3.733,0.753,6.629,3.824,7.134,7.64c-2.713,1.444-4.928,3.699-6.322,6.442c-0.241-0.016-0.48-0.036-0.725-0.036
	c-2.537,0-4.865,0.876-6.715,2.334C-215.962-551.187-217.437-553.246-217.926-555.669z M-179.119-532.49
	c-0.038-0.003-0.077-0.004-0.117-0.005l-2.047-0.042v0.047h-25.403l-0.594-0.003c-4.864-0.023-8.822-4.001-8.822-8.865
	c0-4.89,3.978-8.868,8.867-8.868c0.15,0,0.299,0.012,0.447,0.021l0.148,0.011l1.314,0.085l0.598-1.174
	c2.224-4.373,6.643-7.09,11.531-7.09c6.062,0,11.381,4.298,12.65,10.219l0.317,1.482l1.514,0.095
	c3.708,0.231,6.612,3.319,6.612,7.03C-172.103-535.669-175.246-532.513-179.119-532.49z"/>
<g>
	<rect x="-93.945" y="-539.95" width="2" height="7"/>
	<rect x="-85.945" y="-543.95" width="2" height="7"/>
	<rect x="-101.945" y="-543.95" width="2" height="7"/>
	<rect x="-93.945" y="-529.95" width="2" height="7"/>
	<rect x="-85.945" y="-533.95" width="2" height="7"/>
	<rect x="-101.945" y="-533.95" width="2" height="7"/>
	<path d="M-75.317-556.938c-1.596-7.445-8.207-13.029-16.127-13.029c-6.423,0-11.977,3.678-14.702,9.035
		c-0.266-0.018-0.53-0.04-0.8-0.04c-6.627,0-11.999,5.372-11.999,12c0,6.607,5.34,11.965,11.938,11.998v0.003h2.062v-2h-1.604
		l-0.447-0.003c-5.485-0.027-9.948-4.513-9.948-9.998c0-5.514,4.485-10,9.999-10c0.175,0,0.347,0.014,0.52,0.025l0.148,0.01
		l1.316,0.088l0.598-1.176c2.492-4.899,7.443-7.942,12.92-7.942c6.79,0,12.75,4.814,14.172,11.448l0.317,1.482l1.514,0.095
		c4.203,0.262,7.496,3.763,7.496,7.971c0,4.397-3.565,7.977-7.957,8c-0.05-0.003-0.093-0.005-0.137-0.007l-2.043,0.007h-2.863v2
		h4.863v-0.007c0.046,0.001,0.091,0.007,0.137,0.007c5.521,0,10-4.477,10-10C-65.945-552.282-70.09-556.613-75.317-556.938z"/>
</g>
<g>
	<path d="M-277.744-467.581c-1.596-7.445-8.207-13.029-16.127-13.029c-6.423,0-11.977,3.678-14.702,9.035
		c-0.266-0.018-0.53-0.04-0.8-0.04c-6.627,0-11.999,5.372-11.999,12c0,6.607,5.34,11.965,11.938,11.998v0.003h2.062v-2h-1.604
		l-0.447-0.003c-5.485-0.027-9.948-4.513-9.948-9.998c0-5.514,4.485-10,9.999-10c0.175,0,0.347,0.014,0.52,0.025l0.148,0.01
		l1.316,0.088l0.598-1.176c2.492-4.899,7.443-7.942,12.92-7.942c6.79,0,12.75,4.814,14.172,11.448l0.317,1.482l1.514,0.095
		c4.203,0.262,7.496,3.763,7.496,7.971c0,4.397-3.565,7.977-7.957,8c-0.05-0.003-0.093-0.005-0.137-0.007l-2.043,0.007h-2.863v2
		h4.863v-0.007c0.046,0.001,0.091,0.007,0.137,0.007c5.521,0,10-4.477,10-10C-268.372-462.925-272.517-467.256-277.744-467.581z"/>
	<polygon points="-296.372,-440.586 -296.372,-438.646 -296.372,-432.586 -294.372,-432.586 -294.372,-438.646 -294.372,-440.586 
		-294.372,-452.586 -296.372,-452.586 	"/>
	<polygon points="-288.372,-444.586 -288.372,-442.833 -288.372,-436.586 -286.372,-436.586 -286.372,-442.833 -286.372,-444.586 
		-286.372,-456.586 -288.372,-456.586 	"/>
	<polygon points="-304.372,-444.586 -304.372,-442.521 -304.372,-436.586 -302.372,-436.586 -302.372,-442.521 -302.372,-444.586 
		-302.372,-456.586 -304.372,-456.586 	"/>
</g>
<g>
	<polygon points="17.905,-443.675 11.022,-453.505 9.385,-452.357 16.268,-442.527 17.38,-440.938 20.855,-435.975 22.494,-437.121 
		19.019,-442.086 	"/>
	<polygon points="25.907,-443.677 19.022,-453.505 17.385,-452.356 24.271,-442.528 25.275,-441.093 28.859,-435.978 
		30.498,-437.124 26.914,-442.24 	"/>
	<polygon points="9.905,-443.675 3.022,-453.505 1.385,-452.356 8.268,-442.527 9.452,-440.835 12.856,-435.974 14.494,-437.121 
		11.091,-441.982 	"/>
	<path d="M29.013-467.314c-1.596-7.445-8.207-13.029-16.127-13.029c-6.423,0-11.977,3.678-14.702,9.035
		c-0.266-0.018-0.53-0.04-0.8-0.04c-6.627,0-11.999,5.372-11.999,12c0,6.607,5.34,11.965,11.938,11.998v0.003h2.062v-2H-2.22
		l-0.447-0.003c-5.485-0.027-9.948-4.513-9.948-9.998c0-5.514,4.485-10,9.999-10c0.175,0,0.347,0.014,0.52,0.025l0.148,0.01
		l1.316,0.088l0.598-1.176c2.492-4.899,7.443-7.942,12.92-7.942c6.79,0,12.75,4.814,14.172,11.448l0.317,1.482l1.514,0.095
		c4.203,0.262,7.496,3.763,7.496,7.971c0,4.397-3.565,7.977-7.957,8c-0.05-0.003-0.093-0.005-0.137-0.007l-1.043,0.007h0.137v2
		h0.863v-0.007c0.046,0.001,0.091,0.007,0.137,0.007c5.521,0,10-4.477,10-10C38.385-462.658,34.24-466.989,29.013-467.314z"/>
</g>
<g>
	<rect x="0.711" y="-576.396" width="2" height="7.973"/>
	<rect x="-18.289" y="-557.482" width="7.973" height="2"/>
	<rect x="-13.616" y="-568.749" transform="matrix(0.7071 0.7071 -0.7071 0.7071 -404.2794 -159.4812)" width="7.974" height="2"/>
	<rect x="11.893" y="-571.731" transform="matrix(0.7071 0.7071 -0.7071 0.7071 -397.6803 -175.4051)" width="2" height="7.972"/>
	<rect x="14.711" y="-535.523" width="2" height="7"/>
	<rect x="22.711" y="-539.523" width="2" height="7"/>
	<rect x="6.711" y="-539.523" width="2" height="7"/>
	<rect x="14.711" y="-525.523" width="2" height="7"/>
	<rect x="22.711" y="-529.523" width="2" height="7"/>
	<rect x="6.711" y="-529.523" width="2" height="7"/>
	<path d="M31.223-550.606c-1.444-6.742-7.433-11.8-14.605-11.8c-2.185,0-4.258,0.47-6.126,1.313
		c-1.667-3.202-5.007-5.394-8.866-5.394c-5.522,0-10,4.477-10,9.999c0,2.46,0.899,4.702,2.373,6.442
		c-1.429,1.84-2.287,4.144-2.287,6.653c0,5.983,4.836,10.836,10.813,10.865v0.003h1.188v-2H2.99l-0.457-0.003
		c-4.864-0.023-8.822-4.001-8.822-8.865c0-4.89,3.978-8.868,8.867-8.868c0.15,0,0.299,0.012,0.447,0.022l0.148,0.01l1.314,0.085
		l0.597-1.175c2.225-4.372,6.644-7.089,11.532-7.089c6.062,0,11.382,4.298,12.649,10.219l0.318,1.483l1.514,0.094
		c3.708,0.23,6.612,3.319,6.612,7.03c0,3.878-3.144,7.035-7.017,7.057c-0.042-0.003-0.079-0.005-0.117-0.005l-2.047,0.005h-0.819v2
		h2.819v-0.006c0.042,0.001,0.082,0.006,0.124,0.006c5.001,0,9.057-4.054,9.057-9.057C39.711-546.39,35.957-550.312,31.223-550.606z
		 M3.303-554.224c-0.241-0.016-0.48-0.036-0.725-0.036c-2.766,0-5.282,1.041-7.2,2.743c-1.092-1.366-1.753-3.09-1.753-4.971
		c0-4.41,3.589-7.999,8-7.999c3.091,0,5.76,1.773,7.091,4.345C6.418-558.701,4.538-556.653,3.303-554.224z"/>
</g>
<g>
	<rect x="115.128" y="-536.971" width="2" height="7"/>
	<rect x="123.128" y="-540.971" width="2" height="7"/>
	<rect x="107.128" y="-540.971" width="2" height="7"/>
	<rect x="115.128" y="-526.971" width="2" height="7"/>
	<rect x="123.128" y="-530.971" width="2" height="7"/>
	<rect x="107.128" y="-530.971" width="2" height="7"/>
	<path d="M131.64-552.054c-1.444-6.742-7.433-11.8-14.605-11.8c-1.799,0-3.522,0.32-5.118,0.904
		c-0.949-5.108-5.404-8.98-10.788-8.98c-0.413,0-0.819,0.027-1.222,0.071c0.744,1.112,1.179,2.448,1.179,3.886c0,3.865-3.134,7-7,7
		c-1.438,0-2.773-0.435-3.886-1.179c-0.044,0.401-0.071,0.809-0.071,1.222c0,3.712,1.845,6.987,4.661,8.979
		c-1.653,1.907-2.661,4.389-2.661,7.111c0,5.983,4.836,10.836,10.813,10.865v0.003h1.188v-2h-0.721l-0.457-0.003
		c-4.864-0.023-8.822-4.001-8.822-8.865c0-4.89,3.978-8.868,8.867-8.868c0.15,0,0.299,0.012,0.447,0.022l0.148,0.01l1.314,0.085
		l0.597-1.175c2.225-4.372,6.644-7.089,11.532-7.089c6.062,0,11.382,4.298,12.649,10.219l0.318,1.483l1.514,0.094
		c3.708,0.23,6.612,3.319,6.612,7.03c0,3.878-3.144,7.035-7.017,7.057c-0.042-0.003-0.079-0.005-0.117-0.005l-2.047,0.005h-0.819v2
		h2.819v-0.006c0.042,0.001,0.082,0.006,0.124,0.006c5.001,0,9.057-4.054,9.057-9.057
		C140.128-547.837,136.374-551.759,131.64-552.054z M103.72-555.671c-0.241-0.016-0.48-0.036-0.725-0.036
		c-2.537,0-4.865,0.876-6.715,2.334c-2.012-1.294-3.487-3.354-3.976-5.776c0.582,0.117,1.178,0.177,1.78,0.177c4.963,0,9-4.037,9-9
		c0-0.603-0.06-1.198-0.177-1.78c3.733,0.753,6.629,3.824,7.133,7.64C107.33-560.669,105.115-558.414,103.72-555.671z"/>
</g>
<g>
	<polygon points="-192.103,-436.147 -192.103,-434.207 -192.103,-428.147 -190.103,-428.147 -190.103,-434.207 -190.103,-436.147 
		-190.103,-448.147 -192.103,-448.147 	"/>
	<polygon points="-184.103,-440.147 -184.103,-438.395 -184.103,-432.147 -182.103,-432.147 -182.103,-438.395 -182.103,-440.147 
		-182.103,-452.147 -184.103,-452.147 	"/>
	<polygon points="-200.103,-440.147 -200.103,-438.082 -200.103,-432.147 -198.103,-432.147 -198.103,-438.082 -198.103,-440.147 
		-198.103,-452.147 -200.103,-452.147 	"/>
	<rect x="-206.103" y="-487.05" width="2" height="7.973"/>
	<rect x="-225.103" y="-468.136" width="7.973" height="2"/>
	<rect x="-220.43" y="-479.402" transform="matrix(0.7071 0.7071 -0.7071 0.7071 -401.676 12.9271)" width="7.974" height="2"/>
	<rect x="-194.921" y="-482.384" transform="matrix(0.7071 0.7071 -0.7071 0.7071 -395.0769 -2.9969)" width="2" height="7.972"/>
	<path d="M-175.591-461.26c-1.444-6.742-7.433-11.8-14.605-11.8c-2.185,0-4.258,0.47-6.127,1.313
		c-1.666-3.202-5.006-5.394-8.865-5.394c-5.522,0-10,4.477-10,9.999c0,2.46,0.898,4.702,2.373,6.442
		c-1.428,1.84-2.287,4.144-2.287,6.653c0,5.983,4.836,10.836,10.813,10.865v0.003h1.188v-2h-0.721l-0.457-0.003
		c-4.864-0.023-8.822-4.001-8.822-8.865c0-4.89,3.978-8.868,8.867-8.868c0.15,0,0.299,0.012,0.447,0.022l0.148,0.01l1.314,0.085
		l0.597-1.175c2.225-4.372,6.644-7.089,11.532-7.089c6.062,0,11.382,4.298,12.649,10.219l0.318,1.483l1.514,0.094
		c3.708,0.23,6.612,3.319,6.612,7.03c0,3.878-3.144,7.035-7.017,7.057c-0.042-0.003-0.079-0.005-0.117-0.005l-2.047,0.005h-0.819v2
		h2.819v-0.006c0.042,0.001,0.082,0.006,0.124,0.006c5.001,0,9.057-4.054,9.057-9.057
		C-167.103-457.043-170.856-460.965-175.591-461.26z M-203.511-464.877c-0.241-0.016-0.48-0.036-0.725-0.036
		c-2.766,0-5.281,1.042-7.2,2.743c-1.092-1.367-1.753-3.09-1.753-4.971c0-4.41,3.589-7.999,8-7.999c3.092,0,5.76,1.773,7.092,4.345
		C-200.396-469.355-202.274-467.307-203.511-464.877z"/>
</g>
<g>
	<polygon points="-91.705,-438.664 -91.705,-436.724 -91.705,-430.664 -89.705,-430.664 -89.705,-436.724 -89.705,-438.664 
		-89.705,-450.664 -91.705,-450.664 	"/>
	<polygon points="-83.705,-442.664 -83.705,-440.911 -83.705,-434.664 -81.705,-434.664 -81.705,-440.911 -81.705,-442.664 
		-81.705,-454.664 -83.705,-454.664 	"/>
	<polygon points="-99.705,-442.664 -99.705,-440.599 -99.705,-434.664 -97.705,-434.664 -97.705,-440.599 -97.705,-442.664 
		-97.705,-454.664 -99.705,-454.664 	"/>
	<path d="M-75.193-463.776c-1.444-6.742-7.433-11.8-14.605-11.8c-1.799,0-3.521,0.32-5.118,0.904
		c-0.949-5.108-5.404-8.98-10.788-8.98c-0.413,0-0.819,0.027-1.222,0.071c0.744,1.112,1.179,2.448,1.179,3.886c0,3.865-3.134,7-7,7
		c-1.438,0-2.773-0.435-3.886-1.179c-0.044,0.401-0.071,0.809-0.071,1.222c0,3.712,1.845,6.987,4.661,8.979
		c-1.653,1.907-2.661,4.389-2.661,7.111c0,5.983,4.836,10.836,10.813,10.865v0.003h1.188v-2h-0.721l-0.457-0.003
		c-4.864-0.023-8.822-4.001-8.822-8.865c0-4.89,3.978-8.868,8.867-8.868c0.15,0,0.299,0.012,0.447,0.022l0.148,0.01l1.314,0.085
		l0.597-1.175c2.225-4.372,6.644-7.089,11.532-7.089c6.062,0,11.382,4.298,12.649,10.219l0.318,1.483l1.514,0.094
		c3.708,0.23,6.612,3.319,6.612,7.03c0,3.878-3.144,7.035-7.017,7.057c-0.042-0.003-0.079-0.005-0.117-0.005l-2.047,0.005h-0.819v2
		h2.819v-0.006c0.042,0.001,0.082,0.006,0.124,0.006c5.001,0,9.057-4.054,9.057-9.057C-66.705-459.56-70.459-463.481-75.193-463.776
		z M-103.113-467.394c-0.241-0.016-0.48-0.036-0.725-0.036c-2.537,0-4.865,0.876-6.715,2.334c-2.012-1.294-3.486-3.354-3.976-5.776
		c0.582,0.117,1.178,0.177,1.78,0.177c4.963,0,9-4.037,9-9c0-0.603-0.06-1.198-0.177-1.78c3.733,0.753,6.629,3.824,7.134,7.641
		C-99.504-472.392-101.719-470.136-103.113-467.394z"/>
</g>
<g>
	<polygon points="125.33,-437.72 118.447,-447.55 116.81,-446.402 123.692,-436.572 124.805,-434.983 128.28,-430.02 
		129.919,-431.166 126.443,-436.131 	"/>
	<polygon points="133.332,-437.722 126.447,-447.55 124.81,-446.401 131.695,-436.573 132.7,-435.138 136.284,-430.022 
		137.923,-431.169 134.339,-436.285 	"/>
	<polygon points="117.33,-437.72 110.447,-447.55 108.81,-446.401 115.692,-436.572 116.877,-434.88 120.281,-430.019 
		121.919,-431.166 118.516,-436.027 	"/>
	<rect x="104.81" y="-485.269" width="2" height="7.973"/>
	<rect x="85.81" y="-466.354" width="7.973" height="2"/>
	<rect x="90.483" y="-477.621" transform="matrix(0.7071 0.7071 -0.7071 0.7071 -309.3525 -206.3993)" width="7.974" height="2"/>
	<rect x="115.991" y="-480.603" transform="matrix(0.7071 0.7071 -0.7071 0.7071 -302.7533 -222.3232)" width="2" height="7.972"/>
	<path d="M135.321-459.479c-1.444-6.742-7.433-11.8-14.605-11.8c-2.185,0-4.258,0.47-6.126,1.313
		c-1.667-3.202-5.007-5.394-8.866-5.394c-5.522,0-10,4.477-10,9.999c0,2.46,0.899,4.702,2.373,6.442
		c-1.429,1.84-2.287,4.144-2.287,6.653c0,5.983,4.836,10.836,10.813,10.865v0.003h1.188v-2h-0.721l-0.457-0.003
		c-4.864-0.023-8.822-4.001-8.822-8.865c0-4.89,3.978-8.868,8.867-8.868c0.15,0,0.299,0.012,0.447,0.022l0.148,0.01l1.314,0.085
		l0.597-1.175c2.225-4.372,6.644-7.089,11.532-7.089c6.062,0,11.382,4.298,12.649,10.219l0.318,1.483l1.514,0.094
		c3.708,0.23,6.612,3.319,6.612,7.03c0,3.878-3.144,7.035-7.017,7.057c-0.042-0.003-0.079-0.005-0.117-0.005l-0.047,0.005h-0.819v2
		h0.819v-0.006c0.042,0.001,0.082,0.006,0.124,0.006c5.001,0,9.057-4.054,9.057-9.057
		C143.81-455.262,140.056-459.184,135.321-459.479z M107.401-463.096c-0.241-0.016-0.48-0.036-0.725-0.036
		c-2.766,0-5.282,1.042-7.2,2.743c-1.092-1.367-1.753-3.09-1.753-4.971c0-4.41,3.589-7.999,8-7.999c3.091,0,5.76,1.773,7.091,4.345
		C110.517-467.574,108.637-465.525,107.401-463.096z"/>
</g>
<g>
	<polygon points="-598.101,-341.234 -604.983,-351.064 -606.621,-349.917 -599.738,-340.087 -598.626,-338.498 -595.15,-333.534 
		-593.512,-334.681 -596.987,-339.646 	"/>
	<polygon points="-590.099,-341.236 -596.983,-351.064 -598.621,-349.916 -591.735,-340.088 -590.73,-338.652 -587.146,-333.537 
		-585.508,-334.684 -589.092,-339.8 	"/>
	<polygon points="-606.101,-341.234 -612.983,-351.064 -614.621,-349.916 -607.738,-340.087 -606.554,-338.395 -603.149,-333.533 
		-601.512,-334.681 -604.915,-339.542 	"/>
	<path d="M-588.109-362.993c-1.444-6.742-7.433-11.8-14.605-11.8c-1.799,0-3.522,0.32-5.118,0.904
		c-0.949-5.108-5.404-8.98-10.788-8.98c-0.413,0-0.819,0.027-1.222,0.071c0.744,1.112,1.179,2.448,1.179,3.886c0,3.865-3.134,7-7,7
		c-1.438,0-2.773-0.435-3.886-1.179c-0.044,0.401-0.071,0.809-0.071,1.222c0,3.712,1.845,6.987,4.661,8.979
		c-1.653,1.907-2.661,4.389-2.661,7.111c0,5.983,4.836,10.836,10.813,10.865v0.003h1.188v-2h-0.721l-0.457-0.003
		c-4.864-0.023-8.822-4.001-8.822-8.865c0-4.89,3.978-8.868,8.867-8.868c0.15,0,0.299,0.012,0.447,0.022l0.148,0.01l1.314,0.085
		l0.597-1.175c2.225-4.372,6.644-7.089,11.532-7.089c6.062,0,11.382,4.298,12.649,10.219l0.318,1.483l1.514,0.094
		c3.708,0.23,6.612,3.319,6.612,7.03c0,3.878-3.144,7.035-7.017,7.057c-0.042-0.003-0.079-0.005-0.117-0.005l-0.047,0.005h-0.819v2
		h0.819v-0.006c0.042,0.001,0.082,0.006,0.124,0.006c5.001,0,9.057-4.054,9.057-9.057
		C-579.621-358.776-583.375-362.698-588.109-362.993z M-616.029-366.61c-0.241-0.016-0.48-0.036-0.725-0.036
		c-2.537,0-4.865,0.876-6.715,2.334c-2.012-1.294-3.487-3.354-3.976-5.776c0.582,0.117,1.178,0.177,1.78,0.177c4.963,0,9-4.037,9-9
		c0-0.603-0.06-1.198-0.177-1.78c3.733,0.753,6.629,3.824,7.133,7.641C-612.419-371.608-614.634-369.353-616.029-366.61z"/>
</g>
<g>
	<rect x="-605.621" y="-445.081" width="2" height="4"/>
	<rect x="-597.621" y="-449.103" width="2" height="4.021"/>
	<rect x="-613.621" y="-449.103" width="2" height="4.021"/>
	<path d="M-586.993-465.069c-1.596-7.445-8.207-13.029-16.127-13.029c-6.423,0-11.977,3.678-14.702,9.035
		c-0.266-0.018-0.53-0.04-0.8-0.04c-6.627,0-11.999,5.372-11.999,12c0,6.607,5.34,11.965,11.938,11.998v0.003h2.062v-2h-1.604
		l-0.447-0.003c-5.485-0.027-9.948-4.513-9.948-9.998c0-5.514,4.485-10,9.999-10c0.175,0,0.347,0.014,0.52,0.025l0.148,0.01
		l1.316,0.088l0.598-1.176c2.492-4.899,7.443-7.942,12.92-7.942c6.79,0,12.75,4.814,14.172,11.448l0.317,1.482l1.514,0.095
		c4.203,0.262,7.496,3.763,7.496,7.971c0,4.397-3.565,7.977-7.957,8c-0.05-0.003-0.093-0.005-0.137-0.007l-2.043,0.007h-2.863v2
		h4.863v-0.007c0.046,0.001,0.091,0.007,0.137,0.007c5.521,0,10-4.477,10-10C-577.621-460.413-581.766-464.744-586.993-465.069z"/>
	<circle cx="-596.621" cy="-440.061" r="1.5"/>
	<circle cx="-604.621" cy="-436.092" r="1.5"/>
	<circle cx="-612.621" cy="-440.103" r="1.5"/>
</g>
<g>
	<rect x="-512.7" y="-484.535" width="2" height="7.973"/>
	<rect x="-531.7" y="-465.621" width="7.973" height="2"/>
	<rect x="-527.027" y="-476.888" transform="matrix(0.7071 0.7071 -0.7071 0.7071 -489.6983 230.4609)" width="7.974" height="2"/>
	<rect x="-501.518" y="-479.87" transform="matrix(0.7071 0.7071 -0.7071 0.7071 -483.0992 214.5369)" width="2" height="7.972"/>
	<path d="M-482.188-458.745c-1.444-6.742-7.433-11.8-14.605-11.8c-2.185,0-4.258,0.47-6.126,1.313
		c-1.667-3.202-5.007-5.394-8.866-5.394c-5.522,0-10,4.477-10,9.999c0,2.46,0.899,4.702,2.373,6.442
		c-1.429,1.84-2.287,4.144-2.287,6.653c0,5.983,4.836,10.836,10.813,10.865v0.003h1.188v-2h-0.721l-0.457-0.003
		c-4.864-0.023-8.822-4.001-8.822-8.865c0-4.89,3.978-8.868,8.867-8.868c0.15,0,0.299,0.012,0.447,0.022l0.148,0.01l1.314,0.085
		l0.597-1.175c2.225-4.372,6.644-7.089,11.532-7.089c6.062,0,11.382,4.298,12.649,10.219l0.318,1.483l1.514,0.094
		c3.708,0.23,6.612,3.319,6.612,7.03c0,3.878-3.144,7.035-7.017,7.057c-0.042-0.003-0.079-0.005-0.117-0.005l-2.047,0.005h-0.819v2
		h2.819v-0.006c0.042,0.001,0.082,0.006,0.124,0.006c5.001,0,9.057-4.054,9.057-9.057
		C-473.7-454.528-477.454-458.45-482.188-458.745z M-510.108-462.362c-0.241-0.016-0.48-0.036-0.725-0.036
		c-2.766,0-5.282,1.042-7.2,2.743c-1.092-1.367-1.753-3.09-1.753-4.971c0-4.41,3.589-7.999,8-7.999c3.091,0,5.76,1.773,7.091,4.345
		C-506.993-466.841-508.873-464.792-510.108-462.362z"/>
	<rect x="-498.7" y="-440.646" width="2" height="4"/>
	<rect x="-490.7" y="-444.668" width="2" height="4.021"/>
	<rect x="-506.7" y="-444.668" width="2" height="4.021"/>
	<circle cx="-489.7" cy="-435.626" r="1.5"/>
	<circle cx="-497.7" cy="-431.657" r="1.5"/>
	<circle cx="-505.7" cy="-435.668" r="1.5"/>
</g>
<g>
	<path d="M-381.263-459.702c-1.444-6.742-7.433-11.8-14.605-11.8c-1.799,0-3.522,0.32-5.118,0.904
		c-0.949-5.108-5.404-8.98-10.788-8.98c-0.413,0-0.819,0.027-1.222,0.071c0.744,1.112,1.179,2.448,1.179,3.886c0,3.865-3.134,7-7,7
		c-1.438,0-2.773-0.435-3.886-1.179c-0.044,0.401-0.071,0.809-0.071,1.222c0,3.712,1.845,6.987,4.661,8.979
		c-1.653,1.907-2.661,4.389-2.661,7.111c0,5.983,4.836,10.836,10.813,10.865v0.003h1.188v-2h-0.721l-0.457-0.003
		c-4.864-0.023-8.822-4.001-8.822-8.865c0-4.89,3.978-8.868,8.867-8.868c0.15,0,0.299,0.012,0.447,0.022l0.148,0.01l1.314,0.085
		l0.597-1.175c2.225-4.372,6.644-7.089,11.532-7.089c6.062,0,11.382,4.298,12.649,10.219l0.318,1.483l1.514,0.094
		c3.708,0.23,6.612,3.319,6.612,7.03c0,3.878-3.144,7.035-7.017,7.057c-0.042-0.003-0.079-0.005-0.117-0.005l-2.047,0.005h-0.819v2
		h2.819v-0.006c0.042,0.001,0.082,0.006,0.124,0.006c5.001,0,9.057-4.054,9.057-9.057
		C-372.774-455.485-376.528-459.407-381.263-459.702z M-409.183-463.319c-0.241-0.016-0.48-0.036-0.725-0.036
		c-2.537,0-4.865,0.876-6.715,2.334c-2.012-1.294-3.487-3.354-3.976-5.776c0.582,0.117,1.178,0.177,1.78,0.177c4.963,0,9-4.037,9-9
		c0-0.603-0.06-1.198-0.177-1.78c3.733,0.753,6.629,3.824,7.133,7.641C-405.572-468.317-407.787-466.062-409.183-463.319z"/>
	<rect x="-397.774" y="-441.604" width="2" height="4"/>
	<rect x="-389.774" y="-445.625" width="2" height="4.021"/>
	<rect x="-405.774" y="-445.625" width="2" height="4.021"/>
	<circle cx="-388.774" cy="-436.583" r="1.5"/>
	<circle cx="-396.774" cy="-432.614" r="1.5"/>
	<circle cx="-404.774" cy="-436.625" r="1.5"/>
</g>
<g>
	<path d="M-484.572-366.672c-1.596-7.445-8.207-13.029-16.127-13.029c-6.423,0-11.977,3.678-14.702,9.035
		c-0.266-0.018-0.53-0.04-0.8-0.04c-6.627,0-11.999,5.372-11.999,12c0,6.607,5.34,11.965,11.938,11.998v0.003h6.062v-2h-5.604
		l-0.447-0.003c-5.485-0.027-9.948-4.513-9.948-9.998c0-5.514,4.485-10,9.999-10c0.175,0,0.347,0.014,0.52,0.025l0.148,0.01
		l1.316,0.088l0.598-1.176c2.492-4.899,7.443-7.942,12.92-7.942c6.79,0,12.75,4.814,14.172,11.448l0.317,1.482l1.514,0.095
		c4.203,0.262,7.496,3.763,7.496,7.971c0,4.397-3.565,7.977-7.957,8c-0.05-0.003-0.093-0.005-0.137-0.007l-5.043,0.007h0.137v2
		h4.863v-0.007c0.046,0.001,0.091,0.007,0.137,0.007c5.521,0,10-4.477,10-10C-475.2-362.016-479.345-366.347-484.572-366.672z"/>
	<polygon points="-500.358,-346.701 -498.589,-346.701 -498.158,-346.701 -496.148,-346.701 -502.563,-355.862 -504.2,-354.715 
		-499.989,-348.701 -501.76,-348.701 -504.2,-348.701 -502.929,-346.885 -501.816,-345.296 -495.839,-336.701 -494.2,-337.848 
		-500.178,-346.443 	"/>
</g>
<g>
	<rect x="-408.774" y="-385.802" width="2" height="7.973"/>
	<rect x="-427.774" y="-366.888" width="7.973" height="2"/>
	<rect x="-423.101" y="-378.154" transform="matrix(0.7071 0.7071 -0.7071 0.7071 -389.4441 185.8926)" width="7.974" height="2"/>
	<rect x="-397.593" y="-381.136" transform="matrix(0.7071 0.7071 -0.7071 0.7071 -382.8449 169.9686)" width="2" height="7.972"/>
	<path d="M-378.263-360.012c-1.444-6.742-7.433-11.8-14.605-11.8c-2.185,0-4.258,0.47-6.127,1.313
		c-1.666-3.202-5.006-5.394-8.865-5.394c-5.522,0-10,4.477-10,9.999c0,2.46,0.898,4.702,2.373,6.442
		c-1.428,1.84-2.287,4.144-2.287,6.653c0,5.983,4.836,10.836,10.813,10.865v0.003h4.188v-2h-3.721l-0.457-0.003
		c-4.864-0.023-8.822-4.001-8.822-8.865c0-4.89,3.978-8.868,8.867-8.868c0.15,0,0.299,0.012,0.447,0.022l0.148,0.01l1.314,0.085
		l0.597-1.175c2.225-4.372,6.644-7.089,11.532-7.089c6.062,0,11.382,4.298,12.649,10.219l0.318,1.483l1.514,0.094
		c3.708,0.23,6.612,3.319,6.612,7.03c0,3.878-3.144,7.035-7.017,7.057c-0.042-0.003-0.079-0.005-0.117-0.005l-2.047,0.005h-3.819v2
		h5.819v-0.006c0.042,0.001,0.082,0.006,0.124,0.006c5.001,0,9.057-4.054,9.057-9.057
		C-369.774-355.795-373.528-359.717-378.263-360.012z M-406.183-363.629c-0.241-0.016-0.48-0.036-0.725-0.036
		c-2.766,0-5.281,1.041-7.2,2.743c-1.092-1.366-1.753-3.09-1.753-4.971c0-4.41,3.589-7.999,8-7.999c3.092,0,5.76,1.773,7.092,4.345
		C-403.067-368.106-404.946-366.059-406.183-363.629z"/>
	<polygon points="-393.933,-341.922 -392.163,-341.922 -391.732,-341.922 -389.723,-341.922 -396.137,-351.083 -397.774,-349.936 
		-393.563,-343.922 -395.334,-343.922 -397.774,-343.922 -396.503,-342.105 -395.391,-340.517 -389.413,-331.922 -387.774,-333.068 
		-393.752,-341.664 	"/>
</g>
<g>
	<path d="M-278.678-362.308c-1.444-6.742-7.433-11.8-14.605-11.8c-1.799,0-3.521,0.32-5.118,0.904
		c-0.949-5.108-5.404-8.98-10.788-8.98c-0.413,0-0.819,0.027-1.222,0.071c0.744,1.112,1.179,2.448,1.179,3.886c0,3.865-3.134,7-7,7
		c-1.438,0-2.773-0.435-3.886-1.179c-0.044,0.401-0.071,0.809-0.071,1.222c0,3.712,1.845,6.987,4.661,8.979
		c-1.653,1.907-2.661,4.389-2.661,7.111c0,5.983,4.836,10.836,10.813,10.865v0.003h4.188v-2h-3.721l-0.457-0.003
		c-4.864-0.023-8.822-4.001-8.822-8.865c0-4.89,3.978-8.868,8.867-8.868c0.15,0,0.299,0.012,0.447,0.022l0.148,0.01l1.314,0.085
		l0.597-1.175c2.225-4.372,6.644-7.089,11.532-7.089c6.062,0,11.382,4.298,12.649,10.219l0.318,1.483l1.514,0.094
		c3.708,0.23,6.612,3.319,6.612,7.03c0,3.878-3.144,7.035-7.017,7.057c-0.042-0.003-0.079-0.005-0.117-0.005l-2.047,0.005h-3.819v2
		h5.819v-0.006c0.042,0.001,0.082,0.006,0.124,0.006c5.001,0,9.057-4.054,9.057-9.057
		C-270.189-358.091-273.943-362.013-278.678-362.308z M-306.598-365.925c-0.241-0.016-0.48-0.036-0.725-0.036
		c-2.537,0-4.865,0.876-6.715,2.334c-2.012-1.294-3.486-3.354-3.976-5.776c0.582,0.117,1.178,0.177,1.78,0.177c4.963,0,9-4.037,9-9
		c0-0.603-0.06-1.198-0.177-1.78c3.733,0.753,6.629,3.824,7.134,7.64C-302.988-370.923-305.203-368.668-306.598-365.925z"/>
	<polygon points="-294.348,-344.218 -292.578,-344.218 -292.147,-344.218 -290.138,-344.218 -296.552,-353.379 -298.189,-352.231 
		-293.979,-346.218 -295.749,-346.218 -298.189,-346.218 -296.918,-344.401 -295.806,-342.813 -289.828,-334.218 -288.189,-335.364 
		-294.167,-343.96 	"/>
</g>
<g>
	<path d="M-177.793-366.172c-1.596-7.445-8.207-13.029-16.127-13.029c-6.423,0-11.977,3.678-14.702,9.035
		c-0.266-0.018-0.53-0.04-0.8-0.04c-6.627,0-11.999,5.372-11.999,12c0,6.607,5.34,11.965,11.938,11.998v0.003h1.062v-2h-0.604
		l-0.447-0.003c-5.485-0.027-9.948-4.513-9.948-9.998c0-5.514,4.485-10,9.999-10c0.175,0,0.347,0.014,0.52,0.025l0.148,0.01
		l1.316,0.088l0.598-1.176c2.492-4.899,7.443-7.942,12.92-7.942c6.79,0,12.75,4.814,14.172,11.448l0.317,1.482l1.514,0.095
		c4.203,0.262,7.496,3.763,7.496,7.971c0,4.397-3.565,7.977-7.957,8c-0.05-0.003-0.093-0.005-0.137-0.007l-0.906,0.007v2h0.863
		v-0.007c0.046,0.001,0.091,0.007,0.137,0.007c5.521,0,10-4.477,10-10C-168.421-361.516-172.565-365.847-177.793-366.172z"/>
	
		<rect x="-208.987" y="-348.207" transform="matrix(-0.5736 -0.8191 0.8191 -0.5736 -35.6694 -712.9817)" width="11.183" height="1.999"/>
	
		<rect x="-191.012" y="-348.207" transform="matrix(-0.5736 -0.8191 0.8191 -0.5736 -7.3839 -698.2585)" width="11.183" height="1.999"/>
	<polygon points="-192.579,-343.201 -190.81,-343.201 -190.379,-343.201 -188.369,-343.201 -194.783,-352.362 -196.421,-351.215 
		-192.21,-345.201 -193.98,-345.201 -196.421,-345.201 -195.149,-343.385 -194.037,-341.796 -189.421,-335.201 -187.782,-336.348 
		-192.398,-342.943 	"/>
</g>
<g>
	<rect x="-102.945" y="-385.639" width="2" height="7.973"/>
	<rect x="-121.945" y="-366.725" width="7.973" height="2"/>
	<rect x="-117.272" y="-377.991" transform="matrix(0.7071 0.7071 -0.7071 0.7071 -299.7535 -30.3135)" width="7.974" height="2"/>
	<rect x="-91.764" y="-380.973" transform="matrix(0.7071 0.7071 -0.7071 0.7071 -293.1544 -46.2374)" width="2" height="7.972"/>
	<path d="M-72.434-359.849c-1.444-6.742-7.433-11.8-14.605-11.8c-2.185,0-4.258,0.47-6.126,1.313
		c-1.667-3.202-5.007-5.394-8.866-5.394c-5.522,0-10,4.477-10,9.999c0,2.46,0.899,4.702,2.373,6.442
		c-1.429,1.84-2.287,4.144-2.287,6.653c0,5.983,4.836,10.836,10.813,10.865v0.003h0.188v-2l-0.178-0.003
		c-4.864-0.023-8.822-4.001-8.822-8.865c0-4.89,3.978-8.868,8.867-8.868c0.15,0,0.299,0.012,0.447,0.022l0.148,0.01l1.314,0.085
		l0.597-1.175c2.225-4.372,6.644-7.089,11.532-7.089c6.062,0,11.382,4.298,12.649,10.219l0.318,1.483l1.514,0.094
		c3.708,0.23,6.612,3.319,6.612,7.03c0,3.878-3.144,7.035-7.017,7.057c-0.042-0.003-0.079-0.005-0.117-0.005l-0.866,0.005v2h0.819
		v-0.006c0.042,0.001,0.082,0.006,0.124,0.006c5.001,0,9.057-4.054,9.057-9.057C-63.945-355.632-67.699-359.554-72.434-359.849z
		 M-100.354-363.466c-0.241-0.016-0.48-0.036-0.725-0.036c-2.766,0-5.282,1.042-7.2,2.743c-1.092-1.367-1.753-3.09-1.753-4.971
		c0-4.41,3.589-7.999,8-7.999c3.091,0,5.76,1.773,7.091,4.345C-97.238-367.944-99.118-365.896-100.354-363.466z"/>
	
		<rect x="-102.524" y="-343.768" transform="matrix(-0.5736 -0.8191 0.8191 -0.5736 128.229 -618.7924)" width="11.183" height="1.999"/>
	
		<rect x="-84.549" y="-343.768" transform="matrix(-0.5736 -0.8191 0.8191 -0.5736 156.5146 -604.0692)" width="11.183" height="1.999"/>
	<polygon points="-86.116,-338.763 -84.347,-338.763 -83.916,-338.763 -81.906,-338.763 -88.32,-347.924 -89.958,-346.776 
		-85.747,-340.763 -87.518,-340.763 -89.958,-340.763 -88.687,-338.946 -87.574,-337.357 -82.958,-330.763 -81.319,-331.909 
		-85.936,-338.505 	"/>
</g>
<g>
	<path d="M29.404-362.807c-1.444-6.742-7.433-11.8-14.605-11.8c-1.799,0-3.522,0.32-5.118,0.904
		c-0.949-5.108-5.404-8.98-10.788-8.98c-0.413,0-0.819,0.027-1.222,0.071c0.744,1.112,1.179,2.448,1.179,3.886c0,3.865-3.134,7-7,7
		c-1.438,0-2.773-0.435-3.886-1.179c-0.044,0.401-0.071,0.809-0.071,1.222c0,3.712,1.845,6.987,4.661,8.979
		c-1.653,1.907-2.661,4.389-2.661,7.111c0,5.983,4.836,10.836,10.813,10.865v0.003h0.188v-2l-0.178-0.003
		c-4.864-0.023-8.822-4.001-8.822-8.865c0-4.89,3.978-8.868,8.867-8.868c0.15,0,0.299,0.012,0.447,0.022l0.148,0.01l1.314,0.085
		l0.597-1.175c2.225-4.372,6.644-7.089,11.532-7.089c6.062,0,11.382,4.298,12.649,10.219l0.318,1.483l1.514,0.094
		c3.708,0.23,6.612,3.319,6.612,7.03c0,3.878-3.144,7.035-7.017,7.057c-0.042-0.003-0.079-0.005-0.117-0.005l-0.866,0.005v2h0.819
		v-0.006c0.042,0.001,0.082,0.006,0.124,0.006c5.001,0,9.057-4.054,9.057-9.057C37.893-358.59,34.139-362.512,29.404-362.807z
		 M1.484-366.424c-0.241-0.016-0.48-0.036-0.725-0.036c-2.537,0-4.865,0.876-6.715,2.334c-2.012-1.294-3.487-3.354-3.976-5.776
		c0.582,0.117,1.178,0.177,1.78,0.177c4.963,0,9-4.037,9-9c0-0.603-0.06-1.198-0.177-1.78c3.733,0.753,6.629,3.824,7.133,7.641
		C5.095-371.422,2.88-369.166,1.484-366.424z"/>
	
		<rect x="-0.687" y="-346.727" transform="matrix(-0.5736 -0.8191 0.8191 -0.5736 290.9064 -540.0317)" width="11.183" height="1.999"/>
	
		<rect x="17.288" y="-346.727" transform="matrix(-0.5736 -0.8191 0.8191 -0.5736 319.1919 -525.3086)" width="11.183" height="1.999"/>
	<polygon points="15.721,-341.721 17.49,-341.721 17.921,-341.721 19.931,-341.721 13.517,-350.882 11.879,-349.734 16.09,-343.721 
		14.319,-343.721 11.879,-343.721 13.15,-341.904 14.263,-340.315 18.879,-333.721 20.518,-334.867 15.901,-341.463 	"/>
</g>
<g>
	<g>
		<path d="M-381.158-276.352c-1.596-7.445-8.207-13.029-16.127-13.029c-6.423,0-11.977,3.678-14.702,9.035
			c-0.266-0.018-0.53-0.04-0.8-0.04c-6.627,0-11.999,5.372-11.999,12c0,6.607,5.34,11.965,11.938,11.998v0.003h2.062v-2h-1.604
			l-0.447-0.003c-5.485-0.027-9.948-4.513-9.948-9.998c0-5.514,4.485-10,9.999-10c0.175,0,0.347,0.014,0.52,0.025l0.148,0.01
			l1.316,0.088l0.598-1.176c2.492-4.899,7.443-7.942,12.92-7.942c6.79,0,12.75,4.814,14.172,11.448l0.317,1.482l1.514,0.095
			c4.203,0.262,7.496,3.763,7.496,7.971c0,4.397-3.565,7.977-7.957,8c-0.05-0.003-0.093-0.005-0.137-0.007l-2.043,0.007h-2.863v2
			h4.863v-0.007c0.046,0.001,0.091,0.007,0.137,0.007c5.521,0,10-4.477,10-10C-371.786-271.695-375.931-276.026-381.158-276.352z"/>
	</g>
	<g>
		<circle cx="-406.286" cy="-262.809" r="1.5"/>
	</g>
	<g>
		<circle cx="-402.286" cy="-256.885" r="1.5"/>
	</g>
	<g>
		<circle cx="-394.286" cy="-256.885" r="1.5"/>
	</g>
	<g>
		<circle cx="-398.286" cy="-262.809" r="1.5"/>
	</g>
	<g>
		<circle cx="-390.286" cy="-262.809" r="1.5"/>
	</g>
	<g>
		<circle cx="-406.286" cy="-250.863" r="1.5"/>
	</g>
	<g>
		<circle cx="-398.286" cy="-250.863" r="1.5"/>
	</g>
	<g>
		<circle cx="-390.286" cy="-250.863" r="1.5"/>
	</g>
</g>
<g>
	<g>
		<rect x="-305.372" y="-291.829" width="2" height="7.973"/>
	</g>
	<g>
		<rect x="-324.372" y="-272.915" width="7.973" height="2"/>
	</g>
	<g>
		<rect x="-319.699" y="-284.182" transform="matrix(0.7071 0.7071 -0.7071 0.7071 -292.7095 140.3)" width="7.974" height="2"/>
	</g>
	<g>
		<rect x="-294.19" y="-287.163" transform="matrix(0.7071 0.7071 -0.7071 0.7071 -286.1104 124.3761)" width="2" height="7.972"/>
	</g>
	<g>
		<path d="M-274.86-266.039c-1.444-6.742-7.433-11.8-14.605-11.8c-2.185,0-4.258,0.47-6.127,1.313
			c-1.666-3.202-5.006-5.394-8.865-5.394c-5.522,0-10,4.477-10,9.999c0,2.46,0.898,4.702,2.373,6.442
			c-1.428,1.84-2.287,4.144-2.287,6.653c0,5.983,4.836,10.836,10.813,10.865v0.003h1.188v-2h-0.721l-0.457-0.003
			c-4.864-0.023-8.822-4.001-8.822-8.865c0-4.89,3.978-8.868,8.867-8.868c0.15,0,0.299,0.012,0.447,0.022l0.148,0.01l1.314,0.085
			l0.597-1.175c2.225-4.372,6.644-7.089,11.532-7.089c6.062,0,11.382,4.298,12.649,10.219l0.318,1.483l1.514,0.094
			c3.708,0.23,6.612,3.319,6.612,7.03c0,3.878-3.144,7.035-7.017,7.057c-0.042-0.003-0.079-0.005-0.117-0.005l-2.047,0.005h-1.819v2
			h3.819v-0.006c0.042,0.001,0.082,0.006,0.124,0.006c5.001,0,9.057-4.054,9.057-9.057
			C-266.372-261.822-270.126-265.744-274.86-266.039z M-302.78-269.656c-0.241-0.016-0.48-0.036-0.725-0.036
			c-2.766,0-5.281,1.042-7.2,2.743c-1.092-1.367-1.753-3.09-1.753-4.971c0-4.41,3.589-7.999,8-7.999c3.092,0,5.76,1.773,7.092,4.345
			C-299.665-274.135-301.544-272.086-302.78-269.656z"/>
	</g>
	<g>
		<circle cx="-298.883" cy="-254.445" r="1.5"/>
	</g>
	<g>
		<circle cx="-294.883" cy="-248.445" r="1.5"/>
	</g>
	<g>
		<circle cx="-286.883" cy="-248.445" r="1.5"/>
	</g>
	<g>
		<circle cx="-290.883" cy="-254.445" r="1.5"/>
	</g>
	<g>
		<circle cx="-282.883" cy="-254.445" r="1.5"/>
	</g>
	<g>
		<circle cx="-298.883" cy="-242.424" r="1.5"/>
	</g>
	<g>
		<circle cx="-290.883" cy="-242.424" r="1.5"/>
	</g>
	<g>
		<circle cx="-282.883" cy="-242.424" r="1.5"/>
	</g>
</g>
<g>
	<g>
		<path d="M-178.909-269.995c-1.444-6.742-7.433-11.8-14.605-11.8c-1.799,0-3.521,0.32-5.118,0.904
			c-0.949-5.108-5.404-8.98-10.788-8.98c-0.413,0-0.819,0.027-1.222,0.071c0.744,1.112,1.179,2.448,1.179,3.886c0,3.865-3.134,7-7,7
			c-1.438,0-2.773-0.435-3.886-1.179c-0.044,0.401-0.071,0.809-0.071,1.222c0,3.712,1.845,6.987,4.661,8.979
			c-1.653,1.907-2.661,4.389-2.661,7.111c0,5.983,4.836,10.836,10.813,10.865v0.003h1.188v-2h-0.721l-0.457-0.003
			c-4.864-0.023-8.822-4.001-8.822-8.865c0-4.89,3.978-8.868,8.867-8.868c0.15,0,0.299,0.012,0.447,0.022l0.148,0.01l1.314,0.085
			l0.597-1.175c2.225-4.372,6.644-7.089,11.532-7.089c6.062,0,11.382,4.298,12.649,10.219l0.318,1.483l1.514,0.094
			c3.708,0.23,6.612,3.319,6.612,7.03c0,3.878-3.144,7.035-7.017,7.057c-0.042-0.003-0.079-0.005-0.117-0.005l-2.047,0.005h-1.819v2
			h3.819v-0.006c0.042,0.001,0.082,0.006,0.124,0.006c5.001,0,9.057-4.054,9.057-9.057
			C-170.421-265.778-174.175-269.7-178.909-269.995z M-206.829-273.612c-0.241-0.016-0.48-0.036-0.725-0.036
			c-2.537,0-4.865,0.876-6.715,2.334c-2.012-1.294-3.486-3.354-3.976-5.776c0.582,0.117,1.178,0.177,1.78,0.177c4.963,0,9-4.037,9-9
			c0-0.603-0.06-1.198-0.177-1.78c3.733,0.753,6.629,3.824,7.134,7.64C-203.22-278.61-205.435-276.355-206.829-273.612z"/>
	</g>
	<g>
		<circle cx="-202.921" cy="-258.402" r="1.5"/>
	</g>
	<g>
		<circle cx="-198.921" cy="-252.402" r="1.5"/>
	</g>
	<g>
		<circle cx="-190.921" cy="-252.402" r="1.5"/>
	</g>
	<g>
		<circle cx="-194.921" cy="-258.402" r="1.5"/>
	</g>
	<g>
		<circle cx="-186.921" cy="-258.402" r="1.5"/>
	</g>
	<g>
		<circle cx="-202.921" cy="-246.381" r="1.5"/>
	</g>
	<g>
		<circle cx="-194.921" cy="-246.381" r="1.5"/>
	</g>
	<g>
		<circle cx="-186.921" cy="-246.381" r="1.5"/>
	</g>
</g>
<g>
	<path d="M132.256-368.881c-1.596-7.445-8.207-13.029-16.127-13.029c-6.423,0-11.977,3.678-14.702,9.035
		c-0.266-0.018-0.53-0.04-0.8-0.04c-6.627,0-11.999,5.372-11.999,12c0,6.607,5.34,11.965,11.938,11.998v0.003h2.062v-2h-1.604
		l-0.447-0.003c-5.485-0.027-9.948-4.513-9.948-9.998c0-5.514,4.485-10,9.999-10c0.175,0,0.347,0.014,0.52,0.025l0.148,0.01
		l1.316,0.088l0.598-1.176c2.492-4.899,7.443-7.942,12.92-7.942c6.79,0,12.75,4.814,14.172,11.448l0.317,1.482l1.514,0.095
		c4.203,0.262,7.496,3.763,7.496,7.971c0,4.397-3.565,7.977-7.957,8c-0.05-0.003-0.093-0.005-0.137-0.007l-2.043,0.007h-2.863v2
		h4.863v-0.007c0.046,0.001,0.091,0.007,0.137,0.007c5.521,0,10-4.477,10-10C141.628-364.225,137.483-368.556,132.256-368.881z"/>
	<circle cx="106.628" cy="-341.41" r="1.5"/>
	<circle cx="114.628" cy="-335.41" r="1.5"/>
	<circle cx="122.628" cy="-339.41" r="1.5"/>
	<rect x="105.628" y="-357.886" width="2" height="11.976"/>
	<polygon points="115.628,-339.945 115.628,-341.886 115.628,-353.886 113.628,-353.886 113.628,-341.886 113.628,-339.945 
		113.628,-339.91 115.628,-339.91 	"/>
	<polygon points="123.628,-344.133 123.628,-345.886 123.628,-357.886 121.628,-357.886 121.628,-345.886 121.628,-344.133 
		121.628,-343.91 123.628,-343.91 	"/>
</g>
<g>
	<rect x="-616.121" y="-297.268" width="2" height="7.973"/>
	<rect x="-635.121" y="-278.354" width="7.973" height="2"/>
	<rect x="-630.448" y="-289.62" transform="matrix(0.7071 0.7071 -0.7071 0.7071 -387.5714 358.4399)" width="7.974" height="2"/>
	<rect x="-604.939" y="-292.602" transform="matrix(0.7071 0.7071 -0.7071 0.7071 -380.9722 342.5159)" width="2" height="7.972"/>
	<path d="M-585.609-271.478c-1.444-6.742-7.433-11.8-14.605-11.8c-2.185,0-4.258,0.47-6.126,1.313
		c-1.667-3.202-5.007-5.394-8.866-5.394c-5.522,0-10,4.477-10,9.999c0,2.46,0.899,4.702,2.373,6.442
		c-1.429,1.84-2.287,4.144-2.287,6.653c0,5.983,4.836,10.836,10.813,10.865v0.003h1.188v-2h-0.721l-0.457-0.003
		c-4.864-0.023-8.822-4.001-8.822-8.865c0-4.89,3.978-8.868,8.867-8.868c0.15,0,0.299,0.012,0.447,0.022l0.148,0.01l1.314,0.085
		l0.597-1.175c2.225-4.372,6.644-7.089,11.532-7.089c6.062,0,11.382,4.298,12.649,10.219l0.318,1.483l1.514,0.094
		c3.708,0.23,6.612,3.319,6.612,7.03c0,3.878-3.144,7.035-7.017,7.057c-0.042-0.003-0.079-0.005-0.117-0.005l-2.047,0.005h-0.819v2
		h2.819v-0.006c0.042,0.001,0.082,0.006,0.124,0.006c5.001,0,9.057-4.054,9.057-9.057
		C-577.121-267.261-580.875-271.183-585.609-271.478z M-613.529-275.095c-0.241-0.016-0.48-0.036-0.725-0.036
		c-2.766,0-5.282,1.041-7.2,2.743c-1.092-1.366-1.753-3.09-1.753-4.971c0-4.41,3.589-7.999,8-7.999c3.091,0,5.76,1.773,7.091,4.345
		C-610.414-279.572-612.294-277.524-613.529-275.095z"/>
	<circle cx="-609.131" cy="-244.907" r="1.5"/>
	<circle cx="-601.131" cy="-238.907" r="1.5"/>
	<circle cx="-593.131" cy="-242.907" r="1.5"/>
	<rect x="-610.131" y="-261.383" width="2" height="11.976"/>
	<polygon points="-600.131,-243.442 -600.131,-245.383 -600.131,-257.383 -602.131,-257.383 -602.131,-245.383 -602.131,-243.442 
		-602.131,-243.407 -600.131,-243.407 	"/>
	<polygon points="-592.131,-247.63 -592.131,-249.383 -592.131,-261.383 -594.131,-261.383 -594.131,-249.383 -594.131,-247.63 
		-594.131,-247.407 -592.131,-247.407 	"/>
</g>
<g>
	<path d="M-485.007-274.476c-1.444-6.742-7.433-11.8-14.605-11.8c-1.799,0-3.522,0.32-5.118,0.904
		c-0.949-5.108-5.404-8.98-10.788-8.98c-0.413,0-0.819,0.027-1.222,0.071c0.744,1.112,1.179,2.448,1.179,3.886c0,3.865-3.134,7-7,7
		c-1.438,0-2.773-0.435-3.886-1.179c-0.044,0.401-0.071,0.809-0.071,1.222c0,3.712,1.845,6.987,4.661,8.979
		c-1.653,1.907-2.661,4.389-2.661,7.111c0,5.983,4.836,10.836,10.813,10.865v0.003h1.188v-2h-0.721l-0.457-0.003
		c-4.864-0.023-8.822-4.001-8.822-8.865c0-4.89,3.978-8.868,8.867-8.868c0.15,0,0.299,0.012,0.447,0.022l0.148,0.01l1.314,0.085
		l0.597-1.175c2.225-4.372,6.644-7.089,11.532-7.089c6.062,0,11.382,4.298,12.649,10.219l0.318,1.483l1.514,0.094
		c3.708,0.23,6.612,3.319,6.612,7.03c0,3.878-3.144,7.035-7.017,7.057c-0.042-0.003-0.079-0.005-0.117-0.005l-2.047,0.005h-0.819v2
		h2.819v-0.006c0.042,0.001,0.082,0.006,0.124,0.006c5.001,0,9.057-4.054,9.057-9.057
		C-476.519-270.259-480.272-274.181-485.007-274.476z M-512.927-278.093c-0.241-0.016-0.48-0.036-0.725-0.036
		c-2.537,0-4.865,0.876-6.715,2.334c-2.012-1.294-3.487-3.354-3.976-5.776c0.582,0.117,1.178,0.177,1.78,0.177c4.963,0,9-4.037,9-9
		c0-0.603-0.06-1.198-0.177-1.78c3.733,0.753,6.629,3.824,7.133,7.64C-509.316-283.091-511.531-280.836-512.927-278.093z"/>
	<circle cx="-508.519" cy="-247.901" r="1.5"/>
	<circle cx="-500.519" cy="-241.901" r="1.5"/>
	<circle cx="-492.519" cy="-245.901" r="1.5"/>
	<rect x="-509.519" y="-264.377" width="2" height="11.976"/>
	<polygon points="-499.519,-246.437 -499.519,-248.377 -499.519,-260.377 -501.519,-260.377 -501.519,-248.377 -501.519,-246.437 
		-501.519,-246.401 -499.519,-246.401 	"/>
	<polygon points="-491.519,-250.624 -491.519,-252.377 -491.519,-264.377 -493.519,-264.377 -493.519,-252.377 -493.519,-250.624 
		-493.519,-250.401 -491.519,-250.401 	"/>
</g>
<g>
	<rect x="-633.121" y="-170.035" width="56" height="2"/>
	<rect x="-629.121" y="-164.035" width="50" height="2"/>
	<rect x="-623.121" y="-158.035" width="36" height="2"/>
	<rect x="-631.121" y="-176.035" width="52" height="2"/>
	<path d="M-619.247-184.04c0.175,0,0.347,0.014,0.519,0.025l0.149,0.01l1.316,0.088l0.598-1.176
		c2.493-4.899,7.443-7.942,12.92-7.942c6.79,0,12.75,4.814,14.171,11.448l0.318,1.482l1.514,0.095
		c1.207,0.075,2.335,0.425,3.336,0.975h3.286c-1.678-1.703-3.957-2.813-6.498-2.971c-1.596-7.445-8.207-13.029-16.127-13.029
		c-6.423,0-11.977,3.678-14.702,9.035c-0.266-0.018-0.53-0.04-0.8-0.04c-4.843,0-9.004,2.874-10.9,7.005h2.251
		C-626.165-182.021-622.94-184.04-619.247-184.04z"/>
</g>
<g>
	<rect x="-512.019" y="-197.55" width="2" height="7.973"/>
	<rect x="-531.019" y="-178.636" width="7.973" height="2"/>
	<rect x="-526.346" y="-189.902" transform="matrix(0.7071 0.7071 -0.7071 0.7071 -286.5694 314.0349)" width="7.974" height="2"/>
	<rect x="-500.837" y="-192.884" transform="matrix(0.7071 0.7071 -0.7071 0.7071 -279.9702 298.111)" width="2" height="7.972"/>
	<rect x="-522.019" y="-163.676" width="50" height="2"/>
	<rect x="-518.019" y="-157.676" width="44" height="2"/>
	<rect x="-512.019" y="-152.676" width="30" height="2"/>
	<rect x="-520.019" y="-169.676" width="46" height="2"/>
	<path d="M-519.11-171.676h0.771h1.927h1.012c1.472-1.087,3.283-1.737,5.249-1.737c0.15,0,0.299,0.012,0.447,0.022l0.148,0.01
		l1.314,0.085l0.597-1.175c2.225-4.372,6.644-7.089,11.532-7.089c5.945,0,11.168,4.139,12.563,9.884h2.043v-0.084
		c-1.444-6.742-7.433-11.8-14.605-11.8c-2.185,0-4.258,0.47-6.126,1.313c-1.667-3.202-5.007-5.394-8.866-5.394
		c-5.522,0-10,4.477-10,9.999C-521.104-175.399-520.356-173.341-519.11-171.676z M-511.104-185.64c3.091,0,5.76,1.773,7.091,4.345
		c-2.298,1.44-4.178,3.488-5.413,5.918c-0.241-0.016-0.48-0.036-0.725-0.036c-2.764,0-5.274,1.045-7.189,2.745
		c-1.097-1.366-1.764-3.089-1.764-4.973C-519.104-182.051-515.516-185.64-511.104-185.64z"/>
</g>
<g>
	<rect x="-423.274" y="-167.113" width="50" height="2"/>
	<rect x="-419.274" y="-161.113" width="44" height="2"/>
	<rect x="-413.274" y="-156.113" width="30" height="2"/>
	<rect x="-421.274" y="-173.113" width="46" height="2"/>
	<path d="M-419.632-175.113h0.037h1.884h1.055c1.472-1.087,3.283-1.737,5.249-1.737c0.15,0,0.299,0.012,0.447,0.022l0.148,0.01
		l1.314,0.085l0.597-1.175c2.225-4.372,6.644-7.089,11.532-7.089c5.945,0,11.168,4.139,12.563,9.884h2.043v-0.084
		c-1.444-6.742-7.433-11.8-14.605-11.8c-1.799,0-3.521,0.32-5.117,0.903c-0.945-5.111-5.402-8.987-10.789-8.987
		c-0.413,0-0.819,0.027-1.222,0.071c0.744,1.112,1.179,2.448,1.179,3.886c0,3.865-3.134,7-7,7c-1.438,0-2.773-0.435-3.886-1.179
		c-0.044,0.401-0.071,0.809-0.071,1.222C-424.274-180.377-422.438-177.106-419.632-175.113z M-420.317-182.124c4.963,0,9-4.037,9-9
		c0-0.603-0.06-1.198-0.177-1.78c3.735,0.753,6.633,3.828,7.134,7.647c-2.712,1.443-4.927,3.699-6.322,6.442
		c-0.241-0.016-0.48-0.036-0.725-0.036c-2.534,0-4.855,0.879-6.701,2.335c-2.02-1.293-3.5-3.356-3.989-5.785
		C-421.516-182.184-420.92-182.124-420.317-182.124z"/>
</g>
<g>
	<path d="M-291.383-164.1h-19.474l-0.578-0.003c-5.485-0.027-9.948-4.513-9.948-9.998c0-5.514,4.485-10,9.999-10
		c0.175,0,0.347,0.014,0.519,0.025l0.149,0.01l1.316,0.088l0.598-1.176c2.493-4.899,7.443-7.942,12.92-7.942
		c6.79,0,12.75,4.814,14.171,11.448l0.318,1.482l1.514,0.095c1.822,0.113,3.463,0.845,4.746,1.971h2.732
		c-1.707-2.262-4.348-3.78-7.354-3.967c-1.596-7.445-8.207-13.029-16.127-13.029c-6.423,0-11.977,3.678-14.702,9.035
		c-0.266-0.018-0.53-0.04-0.8-0.04c-6.627,0-11.999,5.372-11.999,12c0,6.607,5.34,11.965,11.938,11.998v0.003h20.062
		c2.205,0,4,1.794,4,4s-1.795,4-4,4v2c3.314,0,6-2.686,6-6C-285.383-161.413-288.068-164.1-291.383-164.1z"/>
	<path d="M-287.383-168.1h-15.988v2h15.988c3.314,0,6-2.687,6-6c0-3.314-2.686-6-6-6v2c2.205,0,4,1.794,4,4
		S-285.178-168.1-287.383-168.1z"/>
	<path d="M-274.383-174.1c1.654,0,3,1.346,3,3s-1.346,3-3,3c-0.043,0-0.083-0.011-0.126-0.013h-4.862
		c0.003,0.005,0.009,0.008,0.012,0.013h-0.023v2h5.5v-0.051c2.523-0.254,4.5-2.358,4.5-4.949c0-2.762-2.238-5-5-5V-174.1z"/>
	<path d="M-270.383-164.1h-13v2h9.022c-0.004,0.005-0.008,0.008-0.011,0.013h3.862c0.043-0.002,0.083-0.013,0.126-0.013
		c1.654,0,3,1.346,3,3s-1.346,3-3,3v2c2.762,0,5-2.238,5-5S-267.621-164.1-270.383-164.1z"/>
	<rect x="-309.383" y="-168.1" width="4" height="2"/>
</g>
<path d="M-498.944-563.203c6.95,1.305,12.226,7.419,12.226,14.742c0,8.272-6.729,15.002-15,15.002
	c-6.79,0-12.531-4.49-14.366-10.728c1.398,0.461,2.867,0.698,4.366,0.698c7.72,0,14-6.281,14-14.001
	C-497.719-559.474-498.143-561.418-498.944-563.203 M-501.719-565.46c-0.338,0-0.668,0.031-1,0.051c1.861,2.113,3,4.881,3,7.92
	c0,6.627-5.372,12.001-12,12.001c-2.599,0-4.998-0.835-6.963-2.239c0.387,9.047,7.821,16.269,16.963,16.269
	c9.39,0,17-7.612,17-17.002S-492.329-565.46-501.719-565.46L-501.719-565.46z"/>
<g>
	<path d="M-605.114-560.465c-7.18,0-13,5.819-13,12.999c0,7.181,5.82,13.002,13,13.002s13-5.821,13-13.002
		C-592.114-554.646-597.935-560.465-605.114-560.465z M-605.114-536.464c-6.065,0-11-4.936-11-11.002
		c0-6.064,4.935-10.999,11-10.999s11,4.935,11,10.999C-594.114-541.399-599.049-536.464-605.114-536.464z"/>
	<rect x="-606.121" y="-573.459" width="2" height="10"/>
	<rect x="-606.121" y="-531.459" width="2" height="10"/>
	<rect x="-631.114" y="-548.459" width="9.993" height="2"/>
	<rect x="-589.121" y="-548.459" width="10.007" height="2"/>
	<rect x="-591.421" y="-567.373" transform="matrix(0.7071 0.7071 -0.7071 0.7071 -570.4435 252.8356)" width="2" height="10.409"/>
	
		<rect x="-620.83" y="-537.964" transform="matrix(-0.7071 -0.7071 0.7071 -0.7071 -681.3984 -1347.7629)" width="2" height="10.41"/>
	<rect x="-625.03" y="-563.163" transform="matrix(0.7071 0.7071 -0.7071 0.7071 -579.0524 273.629)" width="10.409" height="2"/>
	
		<rect x="-595.622" y="-533.754" transform="matrix(-0.7072 -0.7071 0.7071 -0.7072 -631.2433 -1326.9539)" width="10.41" height="2"/>
</g>
<g>
	<rect x="-206.948" y="-202.598" width="2" height="7.973"/>
	<rect x="-225.921" y="-183.611" width="7.973" height="2"/>
	<rect x="-221.195" y="-194.83" transform="matrix(0.7071 0.7071 -0.7071 0.7071 -200.6773 96.8177)" width="7.974" height="2"/>
	<rect x="-195.686" y="-197.812" transform="matrix(0.7071 0.7071 -0.7071 0.7071 -194.0782 80.8938)" width="2" height="7.972"/>
	<path d="M-191.921-160.598l0.005-0.007h-12.536l-0.594-0.003c-4.864-0.024-8.822-4.001-8.822-8.865c0-4.89,3.978-8.868,8.867-8.868
		c0.15,0,0.299,0.012,0.447,0.021l0.148,0.011l1.314,0.085l0.597-1.174c2.225-4.373,6.644-7.09,11.532-7.09
		c5.916,0,11.114,4.099,12.54,9.8h2.065c-1.444-6.742-7.433-11.8-14.605-11.8c-2.185,0-4.258,0.47-6.126,1.313
		c-1.667-3.202-5.007-5.394-8.866-5.394c-5.522,0-10,4.477-10,9.999c0,2.46,0.899,4.702,2.373,6.442
		c-1.429,1.84-2.287,4.144-2.287,6.653c0,5.983,4.836,10.836,10.813,10.865v0.003h13.135v0.007c2.205,0,4,1.794,4,4s-1.795,4-4,4v2
		c3.314,0,6-2.686,6-6C-185.921-157.911-188.606-160.598-191.921-160.598z M-205.954-190.567c3.091,0,5.76,1.773,7.091,4.345
		c-2.298,1.439-4.178,3.488-5.413,5.918c-0.241-0.016-0.48-0.036-0.725-0.036c-2.766,0-5.282,1.042-7.2,2.743
		c-1.092-1.367-1.753-3.09-1.753-4.971C-213.954-186.979-210.365-190.567-205.954-190.567z"/>
	<path d="M-187.921-164.598h-9.988v2h9.988c3.314,0,6-2.687,6-6c0-3.314-2.686-6-6-6v2c2.205,0,4,1.794,4,4
		S-185.716-164.598-187.921-164.598z"/>
	<path d="M-179.897-164.598h-0.023v2h5.5v-0.051c2.523-0.254,4.5-2.358,4.5-4.949c0-2.762-2.238-5-5-5v2c1.654,0,3,1.346,3,3
		s-1.346,3-3,3c-0.043,0-0.083-0.011-0.126-0.013h-4.862C-179.906-164.605-179.9-164.602-179.897-164.598z"/>
	<path d="M-170.921-160.598h-13v2h9.022c-0.004,0.004-0.008,0.008-0.011,0.013h3.862c0.043-0.002,0.083-0.013,0.126-0.013
		c1.654,0,3,1.346,3,3s-1.346,3-3,3v2c2.762,0,5-2.238,5-5S-168.159-160.598-170.921-160.598z"/>
	<rect x="-203.921" y="-164.598" width="4" height="2"/>
</g>
<g>
	<path d="M-91.959-162.604l0.005-0.007h-12.536l-0.594-0.003c-4.864-0.024-8.822-4.001-8.822-8.865c0-4.89,3.978-8.868,8.867-8.868
		c0.15,0,0.299,0.012,0.447,0.021l0.148,0.011l1.314,0.085l0.597-1.174c2.225-4.373,6.644-7.09,11.532-7.09
		c5.916,0,11.114,4.099,12.54,9.8h2.065c-1.444-6.742-7.433-11.8-14.605-11.8c-1.806,0-3.536,0.322-5.138,0.91
		c-0.938-5.123-5.4-9.01-10.794-9.01c-0.413,0-0.819,0.027-1.222,0.071c0.744,1.112,1.179,2.448,1.179,3.886c0,3.865-3.134,7-7,7
		c-1.438,0-2.773-0.435-3.886-1.179c-0.044,0.401-0.071,0.809-0.071,1.222c0,3.725,1.858,7.009,4.69,8.998
		c-1.655,1.907-2.665,4.392-2.665,7.116c0,5.983,4.836,10.836,10.813,10.865v0.003h13.135v0.007c2.205,0,4,1.794,4,4s-1.795,4-4,4v2
		c3.314,0,6-2.686,6-6C-85.959-159.917-88.645-162.604-91.959-162.604z M-115.755-185.813c0.582,0.117,1.178,0.177,1.78,0.177
		c4.963,0,9-4.037,9-9c0-0.603-0.06-1.198-0.177-1.78c3.744,0.755,6.646,3.842,7.138,7.674c-2.702,1.444-4.909,3.696-6.301,6.432
		c-0.241-0.016-0.48-0.036-0.725-0.036c-2.535,0-4.861,0.875-6.71,2.33C-113.777-181.309-115.264-183.377-115.755-185.813z"/>
	<path d="M-87.959-166.604h-9.988v2h9.988c3.314,0,6-2.687,6-6c0-3.314-2.686-6-6-6v2c2.205,0,4,1.794,4,4
		S-85.754-166.604-87.959-166.604z"/>
	<path d="M-79.936-166.604h-0.023v2h5.5v-0.051c2.523-0.254,4.5-2.358,4.5-4.949c0-2.762-2.238-5-5-5v2c1.654,0,3,1.346,3,3
		s-1.346,3-3,3c-0.043,0-0.083-0.011-0.126-0.013h-4.862C-79.944-166.611-79.938-166.607-79.936-166.604z"/>
	<path d="M-70.959-162.604h-13v2h9.022c-0.004,0.004-0.008,0.008-0.011,0.013h3.862c0.043-0.002,0.083-0.013,0.126-0.013
		c1.654,0,3,1.346,3,3s-1.346,3-3,3v2c2.762,0,5-2.238,5-5S-68.197-162.604-70.959-162.604z"/>
	<rect x="-103.959" y="-166.604" width="4" height="2"/>
</g>
<g>
	<rect x="8.934" y="-200.035" width="2" height="10"/>
	<rect x="-16.06" y="-175.035" width="9.993" height="2"/>
	<rect x="23.633" y="-193.949" transform="matrix(0.7071 0.7071 -0.7071 0.7071 -126.2477 -72.7004)" width="2" height="10.409"/>
	<rect x="-9.976" y="-189.74" transform="matrix(0.7071 0.7071 -0.7071 0.7071 -134.8566 -51.907)" width="10.409" height="2"/>
	<path d="M13.934-160.035h-24v2h24c2.205,0,4,1.794,4,4s-1.795,4-4,4v2c3.314,0,6-2.686,6-6
		C19.934-157.349,17.248-160.035,13.934-160.035z"/>
	<path d="M25.957-164.035h-0.023v2h5.5v-0.051c2.523-0.254,4.5-2.358,4.5-4.949c0-2.762-2.238-5-5-5v2c1.654,0,3,1.346,3,3
		s-1.346,3-3,3c-0.043,0-0.083-0.011-0.126-0.013h-4.862C25.948-164.043,25.954-164.039,25.957-164.035z"/>
	<path d="M34.934-160.035h-13v2h9.022c-0.004,0.004-0.008,0.008-0.011,0.013h3.862c0.043-0.002,0.083-0.013,0.126-0.013
		c1.654,0,3,1.346,3,3s-1.346,3-3,3v2c2.762,0,5-2.238,5-5S37.695-160.035,34.934-160.035z"/>
	<path d="M1.643-164.035h-11.709v2H1.945h0.822h15.166c3.314,0,6-2.687,6-6c0-3.314-2.686-6-6-6v2c2.205,0,4,1.794,4,4s-1.795,4-4,4
		H5.396c-3.802-1.734-6.455-5.563-6.455-10.007c0-6.064,4.935-10.999,11-10.999c5.384,0,9.868,3.891,10.81,9.006h2.021
		c-0.961-6.23-6.331-11.006-12.831-11.006c-7.18,0-13,5.819-13,12.999C-3.06-170.017-1.229-166.42,1.643-164.035z"/>
</g>
<g>
	<path d="M114.16-166.592h-24v2h24c2.205,0,4,1.794,4,4s-1.795,4-4,4v2c3.314,0,6-2.686,6-6
		C120.16-163.905,117.475-166.592,114.16-166.592z"/>
	<path d="M131.66-168.592v-0.051c2.523-0.254,4.5-2.358,4.5-4.949c0-2.762-2.238-5-5-5v2c1.654,0,3,1.346,3,3s-1.346,3-3,3
		c-0.043,0-0.083-0.011-0.126-0.013h-4.862c0.004,0.005,0.009,0.009,0.012,0.013h-0.023v2H131.66z"/>
	<path d="M135.16-166.592h-13v2h9.022c-0.003,0.004-0.007,0.008-0.011,0.013h3.862c0.043-0.002,0.083-0.013,0.126-0.013
		c1.654,0,3,1.346,3,3s-1.346,3-3,3v2c2.762,0,5-2.238,5-5S137.922-166.592,135.16-166.592z"/>
	<path d="M102.994-168.592h15.166c3.314,0,6-2.687,6-6c0-3.314-2.686-6-6-6v2c2.205,0,4,1.794,4,4s-1.795,4-4,4h-12.586
		c-2.596-1.188-4.658-3.339-5.69-6.034c0.849,0.204,1.724,0.309,2.612,0.309c6.168,0,11.187-5.019,11.187-11.188
		c0-1.276-0.22-2.532-0.64-3.717c4.046,1.102,7.168,4.459,7.937,8.63h2.018c-0.964-6.237-6.338-11.016-12.846-11.016
		c-0.259,0-0.511,0.024-0.766,0.039c1.425,1.618,2.297,3.737,2.297,6.063c0,5.072-4.112,9.188-9.187,9.188
		c-1.988,0-3.826-0.641-5.33-1.715c0.162,3.801,1.962,7.165,4.699,9.44H90.16v2h12.012H102.994z"/>
</g>
<g>
	<path d="M-605.621-81.398h-20c-1.103,0-2-0.897-2-2s0.897-2,2-2h3.445h0.555v-2h-4c-2.209,0-4,1.791-4,4s1.791,4,4,4h20
		c2.205,0,4,1.794,4,4s-1.795,4-4,4v2c3.314,0,6-2.686,6-6C-599.621-78.712-602.307-81.398-605.621-81.398z"/>
	<path d="M-603.621-97.398v2c2.205,0,4,1.794,4,4s-1.795,4-4,4h-15.988v2h15.988c3.314,0,6-2.687,6-6
		C-597.621-94.713-600.307-97.398-603.621-97.398z"/>
	<path d="M-597.621-85.398v2h5.5v-0.051c2.523-0.254,4.5-2.358,4.5-4.949c0-2.762-2.238-5-5-5v2c1.654,0,3,1.346,3,3s-1.346,3-3,3
		c-0.043,0-0.083-0.011-0.126-0.013h-4.862c0.003,0.005,0.009,0.009,0.012,0.013H-597.621z"/>
	<path d="M-586.621-81.398h-11v2h7.022c-0.004,0.004-0.008,0.008-0.011,0.013h3.862c0.043-0.002,0.083-0.013,0.126-0.013
		c1.654,0,3,1.346,3,3s-1.346,3-3,3v2c2.762,0,5-2.238,5-5S-583.859-81.398-586.621-81.398z"/>
</g>
<path d="M-69.329-95.052v-0.038h-38.376c-1.103,0-2-0.897-2-2s0.897-2,2-2h33c2.762,0,5-2.238,5-5s-2.238-5-5-5h-37.875v0.008
	c-0.042-0.001-0.083-0.008-0.125-0.008c-2.762,0-5,2.238-5,5s2.238,5,5,5v-2c-1.654,0-3-1.346-3-3s1.346-3,3-3h0.125h3.853h34.022
	c1.654,0,3,1.346,3,3s-1.346,3-3,3h-33c-2.209,0-4,1.791-4,4s1.791,4,4,4h38c1.103,0,2,0.897,2,2s-0.897,2-2,2h-32
	c-2.209,0-4,1.791-4,4s1.791,4,4,4h22c1.103,0,2,0.897,2,2s-0.897,2-2,2h-24.01v0.001c-2.204,0.006-3.99,1.793-3.99,3.999
	s1.786,3.993,3.99,3.999v0.001h12.01c1.103,0,2,0.897,2,2s-0.897,2-2,2h-2c-2.209,0-4,1.791-4,4s1.791,4,4,4v-2
	c-1.103,0-2-0.897-2-2s0.897-2,2-2h2c2.209,0,4-1.791,4-4s-1.791-4-4-4h-12c-1.103,0-2-0.897-2-2s0.897-2,2-2h24
	c2.209,0,4-1.791,4-4c0-2.152-1.704-3.895-3.834-3.983v-0.017h-22.166c-1.103,0-2-0.897-2-2s0.897-2,2-2h32c2.209,0,4-1.791,4-4
	C-65.705-93.17-67.299-94.859-69.329-95.052z"/>
<path d="M116.086-104.374v-2.024h-2v2.024c-13.01,0.513-23.462,10.965-23.975,23.976h1.674c1.14-1.222,2.748-2,4.551-2
	c2.26,0,4.233,1.203,5.331,3h1.838c1.098-1.797,3.071-3,5.331-3c2.204,0,4.137,1.144,5.25,2.866v15.134c0,2.21,1.791,4,4,4
	s4-1.79,4-4h-2c0,1.103-0.897,2-2,2s-2-0.897-2-2v-15.134c1.113-1.723,3.046-2.866,5.25-2.866c2.26,0,4.233,1.203,5.331,3h1.838
	c1.098-1.797,3.071-3,5.331-3c1.803,0,3.411,0.778,4.551,2h1.674C139.548-93.409,129.096-103.861,116.086-104.374z M133.836-84.398
	c-2.496,0-4.736,1.114-6.25,2.87c-1.514-1.756-3.754-2.87-6.25-2.87s-4.736,1.114-6.25,2.87c-1.514-1.756-3.754-2.87-6.25-2.87
	s-4.736,1.114-6.25,2.87c-1.514-1.756-3.755-2.87-6.25-2.87c-1.402,0-2.731,0.351-3.897,0.975
	c1.909-10.769,11.339-18.975,22.647-18.975s20.738,8.206,22.647,18.975C136.567-84.048,135.238-84.398,133.836-84.398z"/>
<g>
	<path d="M-289.209,19.914V2.809c0-2.762-2.238-5-5-5s-5,2.238-5,5v17.105c-1.236,1.263-2,2.988-2,4.895c0,3.866,3.134,7,7,7
		s7-3.134,7-7C-287.209,22.902-287.973,21.177-289.209,19.914z M-294.209,29.809c-2.757,0-5-2.243-5-5
		c0-1.313,0.508-2.554,1.429-3.495l0.571-0.583v-0.816V2.809c0-1.654,1.346-3,3-3s3,1.346,3,3v17.105v0.816l0.571,0.583
		c0.921,0.941,1.429,2.183,1.429,3.495C-289.209,27.565-291.452,29.809-294.209,29.809z"/>
	<path d="M-293.209,21.984V6.809h-2v15.176c-1.167,0.413-2.008,1.516-2.008,2.824c0,1.662,1.347,3.008,3.008,3.008
		c1.662,0,3.008-1.346,3.008-3.008C-291.201,23.5-292.041,22.397-293.209,21.984z M-294.209,25.816
		c-0.556,0-1.008-0.452-1.008-1.008s0.452-1.008,1.008-1.008s1.008,0.452,1.008,1.008S-293.653,25.816-294.209,25.816z"/>
</g>
<g>
	<path d="M-189.421,19.914V2.809c0-2.762-2.238-5-5-5s-5,2.238-5,5v17.105c-1.236,1.263-2,2.988-2,4.895c0,3.866,3.134,7,7,7
		s7-3.134,7-7C-187.421,22.902-188.185,21.177-189.421,19.914z M-194.421,29.809c-2.757,0-5-2.243-5-5
		c0-1.313,0.508-2.554,1.429-3.495l0.571-0.583v-0.816V2.809c0-1.654,1.346-3,3-3s3,1.346,3,3v17.105v0.816l0.571,0.583
		c0.921,0.941,1.429,2.183,1.429,3.495C-189.421,27.565-191.664,29.809-194.421,29.809z"/>
	<path d="M-193.421,21.984V1.809h-2v20.176c-1.167,0.413-2.008,1.516-2.008,2.824c0,1.662,1.347,3.008,3.008,3.008
		c1.662,0,3.008-1.346,3.008-3.008C-191.413,23.5-192.253,22.397-193.421,21.984z M-194.421,25.816
		c-0.556,0-1.008-0.452-1.008-1.008s0.452-1.008,1.008-1.008s1.008,0.452,1.008,1.008S-193.865,25.816-194.421,25.816z"/>
</g>
<g>
	<path d="M-392.318,19.914V2.809c0-2.762-2.238-5-5-5s-5,2.238-5,5v17.105c-1.236,1.263-2,2.988-2,4.895c0,3.866,3.134,7,7,7
		s7-3.134,7-7C-390.318,22.902-391.082,21.177-392.318,19.914z M-397.318,29.809c-2.757,0-5-2.243-5-5
		c0-1.313,0.508-2.554,1.429-3.495l0.571-0.583v-0.816V2.809c0-1.654,1.346-3,3-3s3,1.346,3,3v17.105v0.816l0.571,0.583
		c0.921,0.941,1.429,2.183,1.429,3.495C-392.318,27.565-394.562,29.809-397.318,29.809z"/>
	<path d="M-396.318,21.984V11.809h-2v10.176c-1.167,0.413-2.008,1.516-2.008,2.824c0,1.662,1.347,3.008,3.008,3.008
		c1.662,0,3.008-1.346,3.008-3.008C-394.311,23.5-395.15,22.397-396.318,21.984z M-397.318,25.816c-0.556,0-1.008-0.452-1.008-1.008
		s0.452-1.008,1.008-1.008s1.008,0.452,1.008,1.008S-396.763,25.816-397.318,25.816z"/>
</g>
<g>
	<path d="M-495.964,19.914V2.809c0-2.762-2.238-5-5-5s-5,2.238-5,5v17.105c-1.236,1.263-2,2.988-2,4.895c0,3.866,3.134,7,7,7
		s7-3.134,7-7C-493.964,22.902-494.728,21.177-495.964,19.914z M-500.964,29.809c-2.757,0-5-2.243-5-5
		c0-1.313,0.508-2.554,1.429-3.495l0.571-0.583v-0.816V2.809c0-1.654,1.346-3,3-3s3,1.346,3,3v17.105v0.816l0.571,0.583
		c0.921,0.941,1.429,2.183,1.429,3.495C-495.964,27.565-498.207,29.809-500.964,29.809z"/>
	<path d="M-499.964,21.984v-5.176h-2v5.176c-1.167,0.413-2.008,1.516-2.008,2.824c0,1.662,1.347,3.008,3.008,3.008
		c1.662,0,3.008-1.346,3.008-3.008C-497.956,23.5-498.796,22.397-499.964,21.984z M-500.964,25.816
		c-0.556,0-1.008-0.452-1.008-1.008s0.452-1.008,1.008-1.008s1.008,0.452,1.008,1.008S-500.408,25.816-500.964,25.816z"/>
</g>
<g>
	<path d="M-600.621,19.914V2.809c0-2.762-2.238-5-5-5s-5,2.238-5,5v17.105c-1.236,1.263-2,2.988-2,4.895c0,3.866,3.134,7,7,7
		s7-3.134,7-7C-598.621,22.902-599.385,21.177-600.621,19.914z M-605.621,29.809c-2.757,0-5-2.243-5-5
		c0-1.313,0.508-2.554,1.429-3.495l0.571-0.583v-0.816V2.809c0-1.654,1.346-3,3-3s3,1.346,3,3v17.105v0.816l0.571,0.583
		c0.921,0.941,1.429,2.183,1.429,3.495C-600.621,27.565-602.864,29.809-605.621,29.809z"/>
	<path d="M-605.621,21.801c-1.661,0-3.008,1.347-3.008,3.008c0,1.662,1.347,3.008,3.008,3.008c1.662,0,3.008-1.346,3.008-3.008
		C-602.613,23.147-603.959,21.801-605.621,21.801z M-605.621,25.816c-0.556,0-1.008-0.452-1.008-1.008s0.452-1.008,1.008-1.008
		s1.008,0.452,1.008,1.008S-605.065,25.816-605.621,25.816z"/>
</g>
<g>
	<path d="M-100.696,0.121c-2.209,0-4,1.791-4,4c0,2.21,1.791,4,4,4c2.211,0,4-1.79,4-4C-96.696,1.912-98.485,0.121-100.696,0.121z
		 M-100.696,6.121c-1.103,0-2-0.897-2-2s0.897-2,2-2s2,0.897,2,2S-99.594,6.121-100.696,6.121z"/>
	<path d="M-86.696,28.121c-4.41,0-7.999-3.589-7.999-7.999V16.12c0-4.41,3.589-7.999,7.999-7.999c2.715,0,5.115,1.362,6.563,3.437
		l1.43-1.43c-1.824-2.429-4.72-4.007-7.992-4.007c-5.522,0-9.999,4.478-9.999,9.999v4.002c0,5.521,4.477,9.999,9.999,9.999
		c3.272,0,6.168-1.579,7.992-4.008l-1.43-1.43C-81.58,26.758-83.98,28.121-86.696,28.121z"/>
</g>
<g>
	<path d="M4,0C1.791,0,0,1.791,0,4c0,2.21,1.791,4,4,4c2.211,0,4-1.79,4-4C8,1.791,6.211,0,4,0z M4,6C2.897,6,2,5.103,2,4
		s0.897-2,2-2s2,0.897,2,2S5.103,6,4,6z"/>
	<polygon points="23.875,8.121 23.875,6.121 11.875,6.121 9.875,6.121 9.875,30.121 11.875,30.121 11.875,18.121 19.875,18.121 
		19.875,16.121 11.875,16.121 11.875,8.121 	"/>
</g>
<g>
	<path d="M115.086,3.813c-7.179,0-13,5.82-13,13s5.821,13,13,13s13-5.82,13-13S122.265,3.813,115.086,3.813z M115.086,27.813
		c-6.065,0-11-4.935-11-11s4.935-11,11-11s11,4.935,11,11S121.151,27.813,115.086,27.813z"/>
	<path d="M110.819,21.055l6.363-2.121l2.121-6.364l-6.363,2.122L110.819,21.055z M114.521,16.272l1.62-0.54l-0.54,1.62l-1.62,0.54
		L114.521,16.272z"/>
</g>
<g>
	<path d="M-605.621,94.33c-7.179,0-13,5.82-13,13s5.821,13,13,13s13-5.82,13-13S-598.442,94.33-605.621,94.33z M-605.621,118.33
		c-6.065,0-11-4.934-11-11c0-6.064,4.935-11,11-11s11,4.936,11,11C-594.621,113.396-599.556,118.33-605.621,118.33z"/>
	<path d="M-603.06,105.752l-2.586-4.422l-2.529,4.33h0.007c-0.299,0.467-0.478,1.018-0.478,1.613c0,1.656,1.343,3,3,3s3-1.344,3-3
		c0-0.559-0.162-1.074-0.428-1.521H-603.06z M-605.646,108.273c-0.552,0-1-0.449-1-1c0-0.188,0.055-0.367,0.162-0.535l0.864-1.355
		l0.826,1.391c0.098,0.164,0.147,0.332,0.147,0.5C-604.646,107.824-605.094,108.273-605.646,108.273z"/>
</g>
<g>
	<path d="M-500.837,94.33c-7.18,0-13,5.82-13,13s5.82,13,13,13s13-5.82,13-13S-493.657,94.33-500.837,94.33z M-500.837,118.33
		c-6.065,0-11-4.934-11-11c0-6.064,4.935-11,11-11s11,4.936,11,11C-489.837,113.396-494.771,118.33-500.837,118.33z"/>
	<path d="M-499.248,104.75c-0.467-0.299-1.018-0.477-1.613-0.477c-1.658,0-3,1.342-3,3c0,1.656,1.342,3,3,3
		c0.557,0,1.072-0.162,1.52-0.428v0.014l4.422-2.586l-4.328-2.529V104.75z M-500.363,108.125c-0.164,0.098-0.332,0.148-0.498,0.148
		c-0.552,0-1-0.449-1-1c0-0.553,0.448-1,1-1c0.188,0,0.368,0.053,0.535,0.16l1.355,0.865L-500.363,108.125z"/>
</g>
<g>
	<path d="M-397.786,94.33c-7.18,0-13,5.82-13,13s5.82,13,13,13s13-5.82,13-13S-390.606,94.33-397.786,94.33z M-397.786,118.33
		c-6.065,0-11-4.934-11-11c0-6.064,4.935-11,11-11s11,4.936,11,11C-386.786,113.396-391.721,118.33-397.786,118.33z"/>
	<path d="M-397.786,104.273c-1.656,0-3,1.342-3,3c0,0.557,0.162,1.072,0.428,1.52h-0.014l2.586,4.422l2.529-4.328h-0.006
		c0.299-0.467,0.477-1.018,0.477-1.613C-394.786,105.615-396.128,104.273-397.786,104.273z M-396.947,107.809l-0.865,1.355
		l-0.826-1.393c-0.098-0.164-0.147-0.332-0.147-0.498c0-0.553,0.448-1,1-1s1,0.447,1,1
		C-396.786,107.461-396.84,107.641-396.947,107.809z"/>
</g>
<g>
	<path d="M-294.372,94.33c-7.179,0-13,5.82-13,13s5.821,13,13,13s13-5.82,13-13S-287.193,94.33-294.372,94.33z M-294.372,118.33
		c-6.065,0-11-4.934-11-11c0-6.064,4.935-11,11-11s11,4.936,11,11C-283.372,113.396-288.307,118.33-294.372,118.33z"/>
	<path d="M-294.413,104.273c-0.557,0-1.072,0.162-1.52,0.428v-0.014l-4.422,2.586l4.328,2.529v-0.006
		c0.467,0.299,1.018,0.477,1.613,0.477c1.658,0,3-1.342,3-3C-291.413,105.617-292.755,104.273-294.413,104.273z M-294.413,108.273
		c-0.188,0-0.368-0.055-0.535-0.162l-1.355-0.865l1.393-0.826c0.164-0.098,0.332-0.146,0.498-0.146c0.552,0,1,0.447,1,1
		C-293.413,107.824-293.861,108.273-294.413,108.273z"/>
</g>
<g>
	<rect x="-502.523" y="-102.398" width="2" height="10"/>
	<rect x="-487.824" y="-96.312" transform="matrix(0.7071 0.7071 -0.7071 0.7071 -207.0104 317.5515)" width="2" height="10.409"/>
	<rect x="-521.433" y="-92.103" transform="matrix(0.7071 0.7071 -0.7071 0.7071 -215.6193 338.3448)" width="10.409" height="2"/>
	<polygon points="-508.191,-73.145 -506.777,-71.73 -502.523,-75.984 -502.523,-66.398 -500.523,-66.398 -500.523,-75.984 
		-496.271,-71.73 -494.856,-73.145 -501.523,-79.813 	"/>
	<path d="M-488.517-76.399c0-0.002,0-0.004,0-0.006c0-7.18-5.82-12.999-13-12.999s-13,5.819-13,12.999c0,0.002,0,0.004,0,0.006h-13
		v2h18v-2h-3c0-0.002,0-0.004,0-0.006c0-6.064,4.935-10.999,11-10.999s11,4.935,11,10.999c0,0.002,0,0.004,0,0.006h-3v2h17.995v-2
		H-488.517z"/>
</g>
<g>
	<rect x="-398.778" y="-103.586" width="2" height="10"/>
	<rect x="-384.078" y="-97.5" transform="matrix(0.7071 0.7071 -0.7071 0.7071 -177.4639 243.8448)" width="2" height="10.409"/>
	<rect x="-417.687" y="-93.29" transform="matrix(0.7071 0.7071 -0.7071 0.7071 -186.0727 264.6382)" width="10.409" height="2"/>
	<polygon points="-396.778,-69.039 -396.778,-79.586 -398.778,-79.586 -398.778,-69.039 -403.032,-73.293 -404.446,-71.879 
		-397.778,-65.211 -391.111,-71.879 -392.525,-73.293 	"/>
	<path d="M-384.771-77.587c0-0.002,0-0.004,0-0.006c0-7.18-5.82-12.999-13-12.999s-13,5.819-13,12.999c0,0.002,0,0.004,0,0.006h-13
		v2h22v-2h-7c0-0.002,0-0.004,0-0.006c0-6.064,4.935-10.999,11-10.999s11,4.935,11,10.999c0,0.002,0,0.004,0,0.006h-7v2h21.995v-2
		H-384.771z"/>
</g>
<g>
	<polygon points="-194.421,-69.573 -194.421,-83.956 -196.421,-83.956 -196.421,-69.573 -200.675,-73.827 -202.089,-72.413 
		-195.421,-65.745 -188.754,-72.413 -190.168,-73.827 	"/>
	<path d="M-178.793-88.927c-1.596-7.445-8.207-13.029-16.127-13.029c-6.423,0-11.977,3.678-14.702,9.035
		c-0.266-0.018-0.53-0.04-0.8-0.04c-6.627,0-11.999,5.372-11.999,12c0,6.607,5.34,11.965,11.938,11.998v0.003h6.062v-2h-5.604
		l-0.447-0.003c-5.485-0.027-9.948-4.513-9.948-9.998c0-5.514,4.485-10,9.999-10c0.175,0,0.347,0.014,0.52,0.025l0.148,0.01
		l1.316,0.088l0.598-1.176c2.492-4.899,7.443-7.942,12.92-7.942c6.79,0,12.75,4.814,14.172,11.448l0.317,1.482l1.514,0.095
		c4.203,0.262,7.496,3.763,7.496,7.971c0,4.397-3.565,7.977-7.957,8c-0.05-0.003-0.093-0.005-0.137-0.007l-2.043,0.007h-4.863v2
		h6.863v-0.007c0.046,0.001,0.091,0.007,0.137,0.007c5.521,0,10-4.477,10-10C-169.421-84.271-173.565-88.602-178.793-88.927z"/>
</g>
<g>
	<polygon points="-288.437,-72.769 -287.022,-74.183 -293.689,-80.851 -300.357,-74.183 -298.943,-72.769 -294.689,-77.022 
		-294.689,-64.437 -292.689,-64.437 -292.689,-77.022 	"/>
	<path d="M-277.062-87.331c-1.596-7.445-8.207-13.029-16.127-13.029c-6.423,0-11.977,3.678-14.702,9.035
		c-0.266-0.018-0.53-0.04-0.8-0.04c-6.627,0-11.999,5.372-11.999,12c0,6.607,5.34,11.965,11.938,11.998v0.003h10.062v-2h-9.604
		l-0.447-0.003c-5.485-0.027-9.948-4.513-9.948-9.998c0-5.514,4.485-10,9.999-10c0.175,0,0.347,0.014,0.52,0.025l0.148,0.01
		l1.316,0.088l0.598-1.176c2.492-4.899,7.443-7.942,12.92-7.942c6.79,0,12.75,4.814,14.172,11.448l0.317,1.482l1.514,0.095
		c4.203,0.262,7.496,3.763,7.496,7.971c0,4.397-3.565,7.977-7.957,8c-0.05-0.003-0.093-0.005-0.137-0.007l-2.043,0.007h-8.863v2
		h10.863v-0.007c0.046,0.001,0.091,0.007,0.137,0.007c5.521,0,10-4.477,10-10C-267.689-82.675-271.834-87.006-277.062-87.331z"/>
</g>
<g>
	<path d="M-74.572-276.847c-1.596-7.445-8.207-13.029-16.127-13.029c-6.423,0-11.977,3.678-14.702,9.035
		c-0.266-0.018-0.53-0.04-0.8-0.04c-6.627,0-11.999,5.372-11.999,12c0,6.607,5.34,11.965,11.938,11.998v0.003h2.062v-2h-1.604
		l-0.447-0.003c-5.485-0.027-9.948-4.513-9.948-9.998c0-5.514,4.485-10,9.999-10c0.175,0,0.347,0.014,0.52,0.025l0.148,0.01
		l1.316,0.088l0.598-1.176c2.492-4.899,7.443-7.942,12.92-7.942c6.79,0,12.75,4.814,14.172,11.448l0.317,1.482l1.514,0.095
		c4.203,0.262,7.496,3.763,7.496,7.971c0,4.397-3.565,7.977-7.957,8c-0.05-0.003-0.093-0.005-0.137-0.007l-2.043,0.007H-78.2v2
		h2.863v-0.007c0.046,0.001,0.091,0.007,0.137,0.007c5.521,0,10-4.477,10-10C-65.2-272.19-69.345-276.521-74.572-276.847z"/>
	<polygon points="-96.2,-257.858 -96.2,-260.488 -94.027,-259.266 -93.342,-260.486 -95.812,-261.876 -93.342,-263.266 
		-94.027,-264.486 -96.2,-263.264 -96.2,-265.858 -98.2,-265.858 -98.2,-263.22 -100.451,-264.486 -101.137,-263.266 
		-98.667,-261.876 -101.137,-260.486 -100.451,-259.266 -98.2,-260.532 -98.2,-257.858 	"/>
	<polygon points="-91.038,-253.504 -93.211,-252.281 -93.211,-254.876 -95.211,-254.876 -95.211,-252.237 -97.462,-253.504 
		-98.147,-252.283 -95.678,-250.894 -98.147,-249.504 -97.462,-248.283 -95.211,-249.55 -95.211,-246.876 -93.211,-246.876 
		-93.211,-249.506 -91.038,-248.283 -90.353,-249.504 -92.822,-250.894 -90.353,-252.283 	"/>
	<polygon points="-82.022,-260.486 -84.195,-259.264 -84.195,-261.858 -86.195,-261.858 -86.195,-259.22 -88.446,-260.486 
		-89.132,-259.266 -86.662,-257.876 -89.132,-256.486 -88.446,-255.266 -86.195,-256.532 -86.195,-253.858 -84.195,-253.858 
		-84.195,-256.488 -82.022,-255.266 -81.337,-256.486 -83.807,-257.876 -81.337,-259.266 	"/>
</g>
<g>
	<rect x="0.939" y="-294.898" width="2" height="7.973"/>
	<rect x="-18.061" y="-275.984" width="7.973" height="2"/>
	<rect x="-13.388" y="-287.251" transform="matrix(0.7071 0.7071 -0.7071 0.7071 -205.1633 -77.1939)" width="7.974" height="2"/>
	<rect x="12.121" y="-290.233" transform="matrix(0.7071 0.7071 -0.7071 0.7071 -198.5642 -93.1178)" width="2" height="7.972"/>
	<path d="M31.451-269.108c-1.444-6.742-7.433-11.8-14.605-11.8c-2.185,0-4.258,0.471-6.127,1.314
		c-1.666-3.203-5.006-5.395-8.865-5.395c-5.522,0-10,4.477-10,9.999c0,2.46,0.899,4.702,2.373,6.442
		c-1.428,1.84-2.287,4.144-2.287,6.653c0,5.983,4.836,10.836,10.813,10.865v0.003h1.188v-2H3.219l-0.457-0.003
		c-4.864-0.023-8.822-4.001-8.822-8.865c0-4.89,3.978-8.868,8.867-8.868c0.15,0,0.299,0.012,0.447,0.022l0.148,0.01l1.314,0.085
		l0.597-1.175c2.225-4.372,6.644-7.089,11.532-7.089c6.062,0,11.382,4.298,12.649,10.219l0.318,1.483l1.514,0.094
		c3.708,0.23,6.612,3.319,6.612,7.03c0,3.878-3.144,7.035-7.017,7.057c-0.042-0.003-0.079-0.005-0.117-0.005l-1.866,0.005v2h1.819
		v-0.006c0.042,0.001,0.082,0.006,0.124,0.006c5.001,0,9.057-4.054,9.057-9.057C39.939-264.892,36.186-268.813,31.451-269.108z
		 M3.531-272.726c-0.241-0.016-0.48-0.036-0.725-0.036c-2.766,0-5.282,1.041-7.2,2.742c-1.092-1.365-1.753-3.089-1.753-4.97
		c0-4.41,3.589-7.999,8-7.999c3.092,0,5.76,1.773,7.091,4.346C6.646-277.203,4.768-275.155,3.531-272.726z"/>
	<polygon points="10.932,-252.006 10.932,-254.636 13.104,-253.413 13.79,-254.634 11.32,-256.023 13.79,-257.413 13.104,-258.634 
		10.932,-257.411 10.932,-260.006 8.932,-260.006 8.932,-257.367 6.681,-258.634 5.995,-257.413 8.465,-256.023 5.995,-254.634 
		6.681,-253.413 8.932,-254.68 8.932,-252.006 	"/>
	<polygon points="16.094,-247.651 13.921,-246.429 13.921,-249.023 11.921,-249.023 11.921,-246.385 9.67,-247.651 8.984,-246.431 
		11.454,-245.041 8.984,-243.651 9.67,-242.431 11.921,-243.697 11.921,-241.023 13.921,-241.023 13.921,-243.653 16.094,-242.431 
		16.779,-243.651 14.31,-245.041 16.779,-246.431 	"/>
	<polygon points="25.109,-254.634 22.937,-253.411 22.937,-256.006 20.937,-256.006 20.937,-253.367 18.686,-254.634 18,-253.413 
		20.47,-252.023 18,-250.634 18.686,-249.413 20.937,-250.68 20.937,-248.006 22.937,-248.006 22.937,-250.636 25.109,-249.413 
		25.795,-250.634 23.325,-252.023 25.795,-253.413 	"/>
</g>
<g>
	<path d="M131.64-272.111c-1.444-6.742-7.433-11.8-14.605-11.8c-1.799,0-3.522,0.32-5.118,0.904
		c-0.949-5.108-5.404-8.98-10.788-8.98c-0.413,0-0.819,0.027-1.222,0.071c0.744,1.112,1.179,2.448,1.179,3.886c0,3.865-3.134,7-7,7
		c-1.438,0-2.773-0.435-3.886-1.179c-0.044,0.401-0.071,0.809-0.071,1.222c0,3.713,1.845,6.987,4.661,8.979
		c-1.653,1.907-2.661,4.389-2.661,7.111c0,5.983,4.836,10.836,10.813,10.865v0.003h1.188v-2h-0.721l-0.457-0.003
		c-4.864-0.023-8.822-4.001-8.822-8.865c0-4.89,3.978-8.868,8.867-8.868c0.15,0,0.299,0.012,0.447,0.022l0.148,0.01l1.314,0.085
		l0.597-1.175c2.225-4.372,6.644-7.089,11.532-7.089c6.062,0,11.382,4.298,12.649,10.219l0.318,1.483l1.514,0.094
		c3.708,0.23,6.612,3.319,6.612,7.03c0,3.878-3.144,7.035-7.017,7.057c-0.042-0.003-0.079-0.005-0.117-0.005l-1.866,0.005v2h1.819
		v-0.006c0.042,0.001,0.082,0.006,0.124,0.006c5.001,0,9.057-4.054,9.057-9.057C140.128-267.895,136.374-271.816,131.64-272.111z
		 M103.72-275.729c-0.241-0.016-0.48-0.036-0.725-0.036c-2.537,0-4.865,0.877-6.715,2.334c-2.012-1.294-3.486-3.354-3.976-5.776
		c0.582,0.117,1.178,0.177,1.78,0.177c4.963,0,9-4.037,9-9c0-0.603-0.06-1.198-0.177-1.78c3.733,0.753,6.629,3.824,7.134,7.64
		C107.329-280.727,105.114-278.472,103.72-275.729z"/>
	<polygon points="111.165,-255.009 111.165,-257.639 113.338,-256.416 114.023,-257.637 111.554,-259.026 114.023,-260.416 
		113.338,-261.637 111.165,-260.414 111.165,-263.009 109.165,-263.009 109.165,-260.37 106.914,-261.637 106.229,-260.416 
		108.698,-259.026 106.229,-257.637 106.914,-256.416 109.165,-257.683 109.165,-255.009 	"/>
	<polygon points="116.327,-250.654 114.154,-249.432 114.154,-252.026 112.154,-252.026 112.154,-249.388 109.903,-250.654 
		109.218,-249.434 111.688,-248.044 109.218,-246.654 109.903,-245.434 112.154,-246.7 112.154,-244.026 114.154,-244.026 
		114.154,-246.656 116.327,-245.434 117.013,-246.654 114.543,-248.044 117.013,-249.434 	"/>
	<polygon points="125.343,-257.637 123.17,-256.414 123.17,-259.009 121.17,-259.009 121.17,-256.37 118.919,-257.637 
		118.233,-256.416 120.703,-255.026 118.233,-253.637 118.919,-252.416 121.17,-253.683 121.17,-251.009 123.17,-251.009 
		123.17,-253.639 125.343,-252.416 126.028,-253.637 123.559,-255.026 126.028,-256.416 	"/>
</g>
<rect x="-484.719" y="-839.861" fill="none" width="472.974" height="180.918"/>
<text transform="matrix(1 0 0 1 -305.0815 -768.4624)"><tspan x="0" y="0" font-family="'HelveticaNeueLTStd-Th'" font-size="100" letter-spacing="2">60</tspan><tspan x="-99.268" y="60" font-family="'HelveticaNeueLTStd-Lt'" font-size="48" letter-spacing="1">Weather Icons</tspan><tspan x="-3.726" y="104" font-family="'HelveticaNeueLTStd-Lt'" font-size="24">IOS 7 Style</tspan></text>
</svg>
