<?xml version="1.0" encoding="utf-8"?>
<!-- Generator: Adobe Illustrator 16.0.0, SVG Export Plug-In . SVG Version: 6.00 Build 0)  -->
<!DOCTYPE svg PUBLIC "-//W3C//DTD SVG 1.1//EN" "http://www.w3.org/Graphics/SVG/1.1/DTD/svg11.dtd">
<svg version="1.1" id="Layer_1" xmlns="http://www.w3.org/2000/svg" xmlns:xlink="http://www.w3.org/1999/xlink" x="0px" y="0px"
	 width="53px" height="36.211px" viewBox="0 0 53 36.211" enable-background="new 0 0 53 36.211" xml:space="preserve">
<path d="M238.171,1.26l-1.803,15.077l-0.268,2.237h2.254h6.896l-14.693,18.759l1.789-14.52l0.277-2.245h-2.262h-6.957L238.171,1.26
	 M241.025-5.765l-21.667,28.333h11.004l-2.671,21.667l21.667-27.661h-11.004L241.025-5.765L241.025-5.765z"/>
<path d="M-174.864-461.001c6.79,0,12.749,4.814,14.171,11.448l0.318,1.483l1.514,0.094c4.203,0.262,7.496,3.763,7.496,7.971
	c0,4.396-3.565,7.977-7.957,8c-0.046-0.003-0.091-0.006-0.137-0.007l-2.043-0.036v0.043h-28.337l-0.578-0.003
	c-5.485-0.027-9.948-4.513-9.948-9.998c0-5.514,4.485-10,9.999-10c0.175,0,0.347,0.014,0.519,0.025l0.149,0.011l1.316,0.087
	l0.598-1.176C-185.291-457.958-180.341-461.001-174.864-461.001 M-174.864-463.001c-6.423,0-11.977,3.678-14.702,9.035
	c-0.266-0.018-0.53-0.04-0.8-0.04c-6.627,0-11.999,5.372-11.999,12c0,6.607,5.34,11.965,11.938,11.998v0.003h30.925v-0.007
	c0.046,0.001,0.091,0.007,0.137,0.007c5.521,0,10-4.477,10-10c0-5.311-4.145-9.642-9.372-9.967
	C-160.333-457.417-166.944-463.001-174.864-463.001L-174.864-463.001z"/>
<g>
	<path d="M-51.913-442.59c-1.444-6.742-7.433-11.8-14.605-11.8c-2.185,0-4.258,0.47-6.127,1.313
		c-1.666-3.202-5.006-5.394-8.865-5.394c-5.522,0-10,4.477-10,9.999c0,2.46,0.898,4.702,2.373,6.442
		c-1.428,1.84-2.287,4.144-2.287,6.653c0,5.983,4.836,10.836,10.813,10.865v0.003h28.007v-0.006
		c0.042,0.001,0.082,0.006,0.124,0.006c5.001,0,9.057-4.054,9.057-9.057C-43.425-438.373-47.179-442.295-51.913-442.59z
		 M-81.511-456.47c3.092,0,5.76,1.773,7.092,4.345c-2.299,1.44-4.178,3.488-5.414,5.918c-0.241-0.016-0.48-0.036-0.725-0.036
		c-2.766,0-5.281,1.041-7.2,2.743c-1.092-1.366-1.753-3.09-1.753-4.971C-89.511-452.881-85.922-456.47-81.511-456.47z
		 M-52.441-426.507c-0.038-0.003-0.077-0.004-0.117-0.005l-2.047-0.042v0.047h-25.403l-0.594-0.003
		c-4.864-0.023-8.822-4.001-8.822-8.865c0-4.89,3.978-8.868,8.867-8.868c0.15,0,0.299,0.012,0.447,0.021l0.148,0.011l1.314,0.085
		l0.598-1.174c2.224-4.373,6.643-7.09,11.531-7.09c6.062,0,11.381,4.298,12.65,10.219l0.317,1.482l1.514,0.095
		c3.708,0.231,6.612,3.319,6.612,7.03C-45.425-429.686-48.568-426.529-52.441-426.507z"/>
	<rect x="-82.505" y="-468.5" width="2" height="7.973"/>
	<rect x="-101.478" y="-449.514" width="7.973" height="2"/>
	<rect x="-96.752" y="-460.732" transform="matrix(0.7071 0.7071 -0.7071 0.7071 -352.25 -69.058)" width="7.974" height="2"/>
	<rect x="-71.243" y="-463.714" transform="matrix(0.7071 0.7071 -0.7071 0.7071 -345.6509 -84.9819)" width="2" height="7.972"/>
</g>
<path d="M43.83-446.617c-1.444-6.742-7.433-11.8-14.605-11.8c-1.799,0-3.521,0.32-5.118,0.904c-0.949-5.108-5.404-8.98-10.788-8.98
	c-0.413,0-0.819,0.027-1.222,0.071c0.744,1.112,1.179,2.448,1.179,3.886c0,3.865-3.134,7-7,7c-1.438,0-2.773-0.435-3.886-1.179
	c-0.044,0.401-0.071,0.809-0.071,1.222c0,3.712,1.845,6.987,4.661,8.979c-1.653,1.907-2.661,4.389-2.661,7.111
	c0,5.983,4.836,10.836,10.813,10.865v0.003h28.007v-0.006c0.042,0.001,0.082,0.006,0.124,0.006c5.001,0,9.057-4.054,9.057-9.057
	C52.318-442.4,48.564-446.322,43.83-446.617z M4.495-453.713c0.582,0.117,1.178,0.177,1.78,0.177c4.963,0,9-4.037,9-9
	c0-0.603-0.06-1.198-0.177-1.78c3.733,0.753,6.629,3.824,7.134,7.64c-2.713,1.444-4.928,3.699-6.322,6.442
	c-0.241-0.016-0.48-0.036-0.725-0.036c-2.537,0-4.865,0.876-6.715,2.334C6.459-449.23,4.984-451.29,4.495-453.713z M43.302-430.534
	c-0.038-0.003-0.077-0.004-0.117-0.005l-2.047-0.042v0.047H15.734l-0.594-0.003c-4.864-0.023-8.822-4.001-8.822-8.865
	c0-4.89,3.978-8.868,8.867-8.868c0.15,0,0.299,0.012,0.447,0.021l0.148,0.011l1.314,0.085l0.598-1.174
	c2.224-4.373,6.643-7.09,11.531-7.09c6.062,0,11.381,4.298,12.65,10.219l0.317,1.482l1.514,0.095
	c3.708,0.231,6.612,3.319,6.612,7.03C50.318-433.713,47.175-430.557,43.302-430.534z"/>
<g>
	<rect x="128.476" y="-437.994" width="2" height="7"/>
	<rect x="136.476" y="-441.994" width="2" height="7"/>
	<rect x="120.476" y="-441.994" width="2" height="7"/>
	<rect x="128.476" y="-427.994" width="2" height="7"/>
	<rect x="136.476" y="-431.994" width="2" height="7"/>
	<rect x="120.476" y="-431.994" width="2" height="7"/>
	<path d="M147.104-454.982c-1.596-7.445-8.207-13.029-16.127-13.029c-6.423,0-11.977,3.678-14.702,9.035
		c-0.266-0.018-0.53-0.04-0.8-0.04c-6.627,0-11.999,5.372-11.999,12c0,6.607,5.34,11.965,11.938,11.998v0.003h2.062v-2h-1.604
		l-0.447-0.003c-5.485-0.027-9.948-4.513-9.948-9.998c0-5.514,4.485-10,9.999-10c0.175,0,0.347,0.014,0.52,0.025l0.148,0.01
		l1.316,0.088l0.598-1.176c2.492-4.899,7.443-7.942,12.92-7.942c6.79,0,12.75,4.814,14.172,11.448l0.317,1.482l1.514,0.095
		c4.203,0.262,7.496,3.763,7.496,7.971c0,4.397-3.565,7.977-7.957,8c-0.05-0.003-0.093-0.005-0.137-0.007l-2.043,0.007h-2.863v2
		h4.863v-0.007c0.046,0.001,0.091,0.007,0.137,0.007c5.521,0,10-4.477,10-10C156.476-450.326,152.331-454.657,147.104-454.982z"/>
</g>
<g>
	<path d="M-55.323-365.625c-1.596-7.445-8.207-13.029-16.127-13.029c-6.423,0-11.977,3.678-14.702,9.035
		c-0.266-0.018-0.53-0.04-0.8-0.04c-6.627,0-11.999,5.372-11.999,12c0,6.607,5.34,11.965,11.938,11.998v0.003h2.062v-2h-1.604
		l-0.447-0.003c-5.485-0.027-9.948-4.513-9.948-9.998c0-5.514,4.485-10,9.999-10c0.175,0,0.347,0.014,0.52,0.025l0.148,0.01
		l1.316,0.088l0.598-1.176c2.492-4.899,7.443-7.942,12.92-7.942c6.79,0,12.75,4.814,14.172,11.448l0.317,1.482l1.514,0.095
		c4.203,0.262,7.496,3.763,7.496,7.971c0,4.397-3.565,7.977-7.957,8c-0.05-0.003-0.093-0.005-0.137-0.007l-2.043,0.007h-2.863v2
		h4.863v-0.007c0.046,0.001,0.091,0.007,0.137,0.007c5.521,0,10-4.477,10-10C-45.951-360.969-50.096-365.3-55.323-365.625z"/>
	<polygon points="-73.951,-338.63 -73.951,-336.689 -73.951,-330.63 -71.951,-330.63 -71.951,-336.689 -71.951,-338.63 
		-71.951,-350.63 -73.951,-350.63 	"/>
	<polygon points="-65.951,-342.63 -65.951,-340.877 -65.951,-334.63 -63.951,-334.63 -63.951,-340.877 -63.951,-342.63 
		-63.951,-354.63 -65.951,-354.63 	"/>
	<polygon points="-81.951,-342.63 -81.951,-340.564 -81.951,-334.63 -79.951,-334.63 -79.951,-340.564 -79.951,-342.63 
		-79.951,-354.63 -81.951,-354.63 	"/>
</g>
<g>
	<polygon points="240.326,-341.719 233.443,-351.549 231.806,-350.401 238.688,-340.571 239.801,-338.982 243.276,-334.019 
		244.915,-335.165 241.439,-340.13 	"/>
	<polygon points="248.328,-341.721 241.443,-351.549 239.806,-350.4 246.691,-340.572 247.696,-339.137 251.28,-334.021 
		252.919,-335.168 249.335,-340.284 	"/>
	<polygon points="232.326,-341.719 225.443,-351.549 223.806,-350.4 230.688,-340.571 231.873,-338.879 235.277,-334.018 
		236.915,-335.165 233.512,-340.026 	"/>
	<path d="M251.434-365.358c-1.596-7.445-8.207-13.029-16.127-13.029c-6.423,0-11.977,3.678-14.702,9.035
		c-0.266-0.018-0.53-0.04-0.8-0.04c-6.627,0-11.999,5.372-11.999,12c0,6.607,5.34,11.965,11.938,11.998v0.003h2.062v-2h-1.604
		l-0.447-0.003c-5.485-0.027-9.948-4.513-9.948-9.998c0-5.514,4.485-10,9.999-10c0.175,0,0.347,0.014,0.52,0.025l0.148,0.01
		l1.316,0.088l0.598-1.176c2.492-4.899,7.443-7.942,12.92-7.942c6.79,0,12.75,4.814,14.172,11.448l0.317,1.482l1.514,0.095
		c4.203,0.262,7.496,3.763,7.496,7.971c0,4.397-3.565,7.977-7.957,8c-0.05-0.003-0.093-0.005-0.137-0.007l-1.043,0.007h0.137v2
		h0.863v-0.007c0.046,0.001,0.091,0.007,0.137,0.007c5.521,0,10-4.477,10-10C260.806-360.702,256.661-365.033,251.434-365.358z"/>
</g>
<g>
	<rect x="223.132" y="-474.44" width="2" height="7.973"/>
	<rect x="204.132" y="-455.526" width="7.973" height="2"/>
	<rect x="208.805" y="-466.793" transform="matrix(0.7071 0.7071 -0.7071 0.7071 -267.04 -286.8943)" width="7.974" height="2"/>
	<rect x="234.314" y="-469.775" transform="matrix(0.7071 0.7071 -0.7071 0.7071 -260.4409 -302.8182)" width="2" height="7.972"/>
	<rect x="237.132" y="-433.567" width="2" height="7"/>
	<rect x="245.132" y="-437.567" width="2" height="7"/>
	<rect x="229.132" y="-437.567" width="2" height="7"/>
	<rect x="237.132" y="-423.567" width="2" height="7"/>
	<rect x="245.132" y="-427.567" width="2" height="7"/>
	<rect x="229.132" y="-427.567" width="2" height="7"/>
	<path d="M253.644-448.65c-1.444-6.742-7.433-11.8-14.605-11.8c-2.185,0-4.258,0.47-6.126,1.313
		c-1.667-3.202-5.007-5.394-8.866-5.394c-5.522,0-10,4.477-10,9.999c0,2.46,0.899,4.702,2.373,6.442
		c-1.429,1.84-2.287,4.144-2.287,6.653c0,5.983,4.836,10.836,10.813,10.865v0.003h1.188v-2h-0.721l-0.457-0.003
		c-4.864-0.023-8.822-4.001-8.822-8.865c0-4.89,3.978-8.868,8.867-8.868c0.15,0,0.299,0.012,0.447,0.022l0.148,0.01l1.314,0.085
		l0.597-1.175c2.225-4.372,6.644-7.089,11.532-7.089c6.062,0,11.382,4.298,12.649,10.219l0.318,1.483l1.514,0.094
		c3.708,0.23,6.612,3.319,6.612,7.03c0,3.878-3.144,7.035-7.017,7.057c-0.042-0.003-0.079-0.005-0.117-0.005l-2.047,0.005h-0.819v2
		h2.819v-0.006c0.042,0.001,0.082,0.006,0.124,0.006c5.001,0,9.057-4.054,9.057-9.057
		C262.132-444.434,258.378-448.355,253.644-448.65z M225.724-452.268c-0.241-0.016-0.48-0.036-0.725-0.036
		c-2.766,0-5.282,1.041-7.2,2.743c-1.092-1.366-1.753-3.09-1.753-4.971c0-4.41,3.589-7.999,8-7.999c3.091,0,5.76,1.773,7.091,4.345
		C228.839-456.745,226.959-454.697,225.724-452.268z"/>
</g>
<g>
	<rect x="337.549" y="-435.015" width="2" height="7"/>
	<rect x="345.549" y="-439.015" width="2" height="7"/>
	<rect x="329.549" y="-439.015" width="2" height="7"/>
	<rect x="337.549" y="-425.015" width="2" height="7"/>
	<rect x="345.549" y="-429.015" width="2" height="7"/>
	<rect x="329.549" y="-429.015" width="2" height="7"/>
	<path d="M354.061-450.098c-1.444-6.742-7.433-11.8-14.605-11.8c-1.799,0-3.522,0.32-5.118,0.904
		c-0.949-5.108-5.404-8.98-10.788-8.98c-0.413,0-0.819,0.027-1.222,0.071c0.744,1.112,1.179,2.448,1.179,3.886c0,3.865-3.134,7-7,7
		c-1.438,0-2.773-0.435-3.886-1.179c-0.044,0.401-0.071,0.809-0.071,1.222c0,3.712,1.845,6.987,4.661,8.979
		c-1.653,1.907-2.661,4.389-2.661,7.111c0,5.983,4.836,10.836,10.813,10.865v0.003h1.188v-2h-0.721l-0.457-0.003
		c-4.864-0.023-8.822-4.001-8.822-8.865c0-4.89,3.978-8.868,8.867-8.868c0.15,0,0.299,0.012,0.447,0.022l0.148,0.01l1.314,0.085
		l0.597-1.175c2.225-4.372,6.644-7.089,11.532-7.089c6.062,0,11.382,4.298,12.649,10.219l0.318,1.483l1.514,0.094
		c3.708,0.23,6.612,3.319,6.612,7.03c0,3.878-3.144,7.035-7.017,7.057c-0.042-0.003-0.079-0.005-0.117-0.005l-2.047,0.005h-0.819v2
		h2.819v-0.006c0.042,0.001,0.082,0.006,0.124,0.006c5.001,0,9.057-4.054,9.057-9.057
		C362.549-445.881,358.795-449.803,354.061-450.098z M326.141-453.715c-0.241-0.016-0.48-0.036-0.725-0.036
		c-2.537,0-4.865,0.876-6.715,2.334c-2.012-1.294-3.487-3.354-3.976-5.776c0.582,0.117,1.178,0.177,1.78,0.177c4.963,0,9-4.037,9-9
		c0-0.603-0.06-1.198-0.177-1.78c3.733,0.753,6.629,3.824,7.133,7.64C329.751-458.713,327.536-456.458,326.141-453.715z"/>
</g>
<g>
	<polygon points="30.318,-334.191 30.318,-332.251 30.318,-326.191 32.318,-326.191 32.318,-332.251 32.318,-334.191 
		32.318,-346.191 30.318,-346.191 	"/>
	<polygon points="38.318,-338.191 38.318,-336.438 38.318,-330.191 40.318,-330.191 40.318,-336.438 40.318,-338.191 
		40.318,-350.191 38.318,-350.191 	"/>
	<polygon points="22.318,-338.191 22.318,-336.126 22.318,-330.191 24.318,-330.191 24.318,-336.126 24.318,-338.191 
		24.318,-350.191 22.318,-350.191 	"/>
	<rect x="16.318" y="-385.094" width="2" height="7.973"/>
	<rect x="-2.682" y="-366.18" width="7.973" height="2"/>
	<rect x="1.991" y="-377.446" transform="matrix(0.7071 0.7071 -0.7071 0.7071 -264.4366 -114.486)" width="7.974" height="2"/>
	<rect x="27.5" y="-380.428" transform="matrix(0.7071 0.7071 -0.7071 0.7071 -257.8375 -130.41)" width="2" height="7.972"/>
	<path d="M46.83-359.304c-1.444-6.742-7.433-11.8-14.605-11.8c-2.185,0-4.258,0.47-6.127,1.313
		c-1.666-3.202-5.006-5.394-8.865-5.394c-5.522,0-10,4.477-10,9.999c0,2.46,0.898,4.702,2.373,6.442
		c-1.428,1.84-2.287,4.144-2.287,6.653c0,5.983,4.836,10.836,10.813,10.865v0.003h1.188v-2h-0.721l-0.457-0.003
		c-4.864-0.023-8.822-4.001-8.822-8.865c0-4.89,3.978-8.868,8.867-8.868c0.15,0,0.299,0.012,0.447,0.022l0.148,0.01l1.314,0.085
		l0.597-1.175c2.225-4.372,6.644-7.089,11.532-7.089c6.062,0,11.382,4.298,12.649,10.219l0.318,1.483l1.514,0.094
		c3.708,0.23,6.612,3.319,6.612,7.03c0,3.878-3.144,7.035-7.017,7.057c-0.042-0.003-0.079-0.005-0.117-0.005l-2.047,0.005h-0.819v2
		h2.819v-0.006c0.042,0.001,0.082,0.006,0.124,0.006c5.001,0,9.057-4.054,9.057-9.057C55.318-355.087,51.564-359.009,46.83-359.304z
		 M18.91-362.921c-0.241-0.016-0.48-0.036-0.725-0.036c-2.766,0-5.281,1.042-7.2,2.743c-1.092-1.367-1.753-3.09-1.753-4.971
		c0-4.41,3.589-7.999,8-7.999c3.092,0,5.76,1.773,7.092,4.345C22.025-367.399,20.146-365.351,18.91-362.921z"/>
</g>
<g>
	<polygon points="130.716,-336.708 130.716,-334.768 130.716,-328.708 132.716,-328.708 132.716,-334.768 132.716,-336.708 
		132.716,-348.708 130.716,-348.708 	"/>
	<polygon points="138.716,-340.708 138.716,-338.955 138.716,-332.708 140.716,-332.708 140.716,-338.955 140.716,-340.708 
		140.716,-352.708 138.716,-352.708 	"/>
	<polygon points="122.716,-340.708 122.716,-338.643 122.716,-332.708 124.716,-332.708 124.716,-338.643 124.716,-340.708 
		124.716,-352.708 122.716,-352.708 	"/>
	<path d="M147.228-361.82c-1.444-6.742-7.433-11.8-14.605-11.8c-1.799,0-3.521,0.32-5.118,0.904
		c-0.949-5.108-5.404-8.98-10.788-8.98c-0.413,0-0.819,0.027-1.222,0.071c0.744,1.112,1.179,2.448,1.179,3.886c0,3.865-3.134,7-7,7
		c-1.438,0-2.773-0.435-3.886-1.179c-0.044,0.401-0.071,0.809-0.071,1.222c0,3.712,1.845,6.987,4.661,8.979
		c-1.653,1.907-2.661,4.389-2.661,7.111c0,5.983,4.836,10.836,10.813,10.865v0.003h1.188v-2h-0.721l-0.457-0.003
		c-4.864-0.023-8.822-4.001-8.822-8.865c0-4.89,3.978-8.868,8.867-8.868c0.15,0,0.299,0.012,0.447,0.022l0.148,0.01l1.314,0.085
		l0.597-1.175c2.225-4.372,6.644-7.089,11.532-7.089c6.062,0,11.382,4.298,12.649,10.219l0.318,1.483l1.514,0.094
		c3.708,0.23,6.612,3.319,6.612,7.03c0,3.878-3.144,7.035-7.017,7.057c-0.042-0.003-0.079-0.005-0.117-0.005l-2.047,0.005h-0.819v2
		h2.819v-0.006c0.042,0.001,0.082,0.006,0.124,0.006c5.001,0,9.057-4.054,9.057-9.057
		C155.716-357.604,151.962-361.525,147.228-361.82z M119.308-365.438c-0.241-0.016-0.48-0.036-0.725-0.036
		c-2.537,0-4.865,0.876-6.715,2.334c-2.012-1.294-3.486-3.354-3.976-5.776c0.582,0.117,1.178,0.177,1.78,0.177c4.963,0,9-4.037,9-9
		c0-0.603-0.06-1.198-0.177-1.78c3.733,0.753,6.629,3.824,7.134,7.641C122.917-370.436,120.702-368.18,119.308-365.438z"/>
</g>
<g>
	<polygon points="347.751,-335.764 340.868,-345.594 339.23,-344.446 346.113,-334.616 347.226,-333.027 350.701,-328.063 
		352.34,-329.21 348.864,-334.175 	"/>
	<polygon points="355.753,-335.766 348.868,-345.594 347.23,-344.445 354.116,-334.617 355.121,-333.182 358.705,-328.066 
		360.344,-329.213 356.76,-334.329 	"/>
	<polygon points="339.751,-335.764 332.868,-345.594 331.23,-344.445 338.113,-334.616 339.298,-332.924 342.702,-328.063 
		344.34,-329.21 340.937,-334.071 	"/>
	<rect x="327.23" y="-383.313" width="2" height="7.973"/>
	<rect x="308.23" y="-364.398" width="7.973" height="2"/>
	<rect x="312.903" y="-375.665" transform="matrix(0.7071 0.7071 -0.7071 0.7071 -172.1131 -333.8123)" width="7.974" height="2"/>
	<rect x="338.412" y="-378.647" transform="matrix(0.7071 0.7071 -0.7071 0.7071 -165.5139 -349.7363)" width="2" height="7.972"/>
	<path d="M357.742-357.522c-1.444-6.742-7.433-11.8-14.605-11.8c-2.185,0-4.258,0.47-6.126,1.313
		c-1.667-3.202-5.007-5.394-8.866-5.394c-5.522,0-10,4.477-10,9.999c0,2.46,0.899,4.702,2.373,6.442
		c-1.429,1.84-2.287,4.144-2.287,6.653c0,5.983,4.836,10.836,10.813,10.865v0.003h1.188v-2h-0.721l-0.457-0.003
		c-4.864-0.023-8.822-4.001-8.822-8.865c0-4.89,3.978-8.868,8.867-8.868c0.15,0,0.299,0.012,0.447,0.022l0.148,0.01l1.314,0.085
		l0.597-1.175c2.225-4.372,6.644-7.089,11.532-7.089c6.062,0,11.382,4.298,12.649,10.219l0.318,1.483l1.514,0.094
		c3.708,0.23,6.612,3.319,6.612,7.03c0,3.878-3.144,7.035-7.017,7.057c-0.042-0.003-0.079-0.005-0.117-0.005l-0.047,0.005h-0.819v2
		h0.819v-0.006c0.042,0.001,0.082,0.006,0.124,0.006c5.001,0,9.057-4.054,9.057-9.057
		C366.23-353.306,362.477-357.228,357.742-357.522z M329.822-361.14c-0.241-0.016-0.48-0.036-0.725-0.036
		c-2.766,0-5.282,1.042-7.2,2.743c-1.092-1.367-1.753-3.09-1.753-4.971c0-4.41,3.589-7.999,8-7.999c3.091,0,5.76,1.773,7.091,4.345
		C332.938-365.618,331.058-363.569,329.822-361.14z"/>
</g>
<g>
	<polygon points="-375.68,-239.278 -382.563,-249.108 -384.2,-247.961 -377.317,-238.131 -376.205,-236.542 -372.729,-231.578 
		-371.091,-232.725 -374.566,-237.689 	"/>
	<polygon points="-367.678,-239.28 -374.563,-249.108 -376.2,-247.96 -369.314,-238.132 -368.31,-236.696 -364.726,-231.581 
		-363.087,-232.728 -366.671,-237.844 	"/>
	<polygon points="-383.68,-239.278 -390.563,-249.108 -392.2,-247.96 -385.317,-238.131 -384.133,-236.438 -380.729,-231.577 
		-379.091,-232.725 -382.494,-237.586 	"/>
	<path d="M-365.688-261.037c-1.444-6.742-7.433-11.8-14.605-11.8c-1.799,0-3.522,0.32-5.118,0.904
		c-0.949-5.108-5.404-8.98-10.788-8.98c-0.413,0-0.819,0.027-1.222,0.071c0.744,1.112,1.179,2.448,1.179,3.886c0,3.865-3.134,7-7,7
		c-1.438,0-2.773-0.435-3.886-1.179c-0.044,0.401-0.071,0.809-0.071,1.222c0,3.712,1.845,6.987,4.661,8.979
		c-1.653,1.907-2.661,4.389-2.661,7.111c0,5.983,4.836,10.836,10.813,10.865v0.003h1.188v-2h-0.721l-0.457-0.003
		c-4.864-0.023-8.822-4.001-8.822-8.865c0-4.89,3.978-8.868,8.867-8.868c0.15,0,0.299,0.012,0.447,0.022l0.148,0.01l1.314,0.085
		l0.597-1.175c2.225-4.372,6.644-7.089,11.532-7.089c6.062,0,11.382,4.298,12.649,10.219l0.318,1.483l1.514,0.094
		c3.708,0.23,6.612,3.319,6.612,7.03c0,3.878-3.144,7.035-7.017,7.057c-0.042-0.003-0.079-0.005-0.117-0.005l-0.047,0.005h-0.819v2
		h0.819v-0.006c0.042,0.001,0.082,0.006,0.124,0.006c5.001,0,9.057-4.054,9.057-9.057
		C-357.2-256.82-360.954-260.742-365.688-261.037z M-393.608-264.654c-0.241-0.016-0.48-0.036-0.725-0.036
		c-2.537,0-4.865,0.876-6.715,2.334c-2.012-1.294-3.487-3.354-3.976-5.776c0.582,0.117,1.178,0.177,1.78,0.177c4.963,0,9-4.037,9-9
		c0-0.603-0.06-1.198-0.177-1.78c3.733,0.753,6.629,3.824,7.133,7.641C-389.998-269.652-392.213-267.396-393.608-264.654z"/>
</g>
<g>
	<rect x="-383.2" y="-343.125" width="2" height="4"/>
	<rect x="-375.2" y="-347.146" width="2" height="4.021"/>
	<rect x="-391.2" y="-347.146" width="2" height="4.021"/>
	<path d="M-364.572-363.113c-1.596-7.445-8.207-13.029-16.127-13.029c-6.423,0-11.977,3.678-14.702,9.035
		c-0.266-0.018-0.53-0.04-0.8-0.04c-6.627,0-11.999,5.372-11.999,12c0,6.607,5.34,11.965,11.938,11.998v0.003h2.062v-2h-1.604
		l-0.447-0.003c-5.485-0.027-9.948-4.513-9.948-9.998c0-5.514,4.485-10,9.999-10c0.175,0,0.347,0.014,0.52,0.025l0.148,0.01
		l1.316,0.088l0.598-1.176c2.492-4.899,7.443-7.942,12.92-7.942c6.79,0,12.75,4.814,14.172,11.448l0.317,1.482l1.514,0.095
		c4.203,0.262,7.496,3.763,7.496,7.971c0,4.397-3.565,7.977-7.957,8c-0.05-0.003-0.093-0.005-0.137-0.007l-2.043,0.007h-2.863v2
		h4.863v-0.007c0.046,0.001,0.091,0.007,0.137,0.007c5.521,0,10-4.477,10-10C-355.2-358.457-359.345-362.788-364.572-363.113z"/>
	<circle cx="-374.2" cy="-338.104" r="1.5"/>
	<circle cx="-382.2" cy="-334.136" r="1.5"/>
	<circle cx="-390.2" cy="-338.146" r="1.5"/>
</g>
<g>
	<rect x="-290.279" y="-382.579" width="2" height="7.973"/>
	<rect x="-309.279" y="-363.665" width="7.973" height="2"/>
	<rect x="-304.606" y="-374.932" transform="matrix(0.7071 0.7071 -0.7071 0.7071 -352.4589 103.0478)" width="7.974" height="2"/>
	<rect x="-279.098" y="-377.913" transform="matrix(0.7071 0.7071 -0.7071 0.7071 -345.8597 87.1238)" width="2" height="7.972"/>
	<path d="M-259.768-356.789c-1.444-6.742-7.433-11.8-14.605-11.8c-2.185,0-4.258,0.47-6.126,1.313
		c-1.667-3.202-5.007-5.394-8.866-5.394c-5.522,0-10,4.477-10,9.999c0,2.46,0.899,4.702,2.373,6.442
		c-1.429,1.84-2.287,4.144-2.287,6.653c0,5.983,4.836,10.836,10.813,10.865v0.003h1.188v-2H-288l-0.457-0.003
		c-4.864-0.023-8.822-4.001-8.822-8.865c0-4.89,3.978-8.868,8.867-8.868c0.15,0,0.299,0.012,0.447,0.022l0.148,0.01l1.314,0.085
		l0.597-1.175c2.225-4.372,6.644-7.089,11.532-7.089c6.062,0,11.382,4.298,12.649,10.219l0.318,1.483l1.514,0.094
		c3.708,0.23,6.612,3.319,6.612,7.03c0,3.878-3.144,7.035-7.017,7.057c-0.042-0.003-0.079-0.005-0.117-0.005l-2.047,0.005h-0.819v2
		h2.819v-0.006c0.042,0.001,0.082,0.006,0.124,0.006c5.001,0,9.057-4.054,9.057-9.057
		C-251.279-352.572-255.033-356.494-259.768-356.789z M-287.688-360.406c-0.241-0.016-0.48-0.036-0.725-0.036
		c-2.766,0-5.282,1.042-7.2,2.743c-1.092-1.367-1.753-3.09-1.753-4.971c0-4.41,3.589-7.999,8-7.999c3.091,0,5.76,1.773,7.091,4.345
		C-284.572-364.885-286.452-362.836-287.688-360.406z"/>
	<rect x="-276.279" y="-338.69" width="2" height="4"/>
	<rect x="-268.279" y="-342.712" width="2" height="4.021"/>
	<rect x="-284.279" y="-342.712" width="2" height="4.021"/>
	<circle cx="-267.279" cy="-333.67" r="1.5"/>
	<circle cx="-275.279" cy="-329.701" r="1.5"/>
	<circle cx="-283.279" cy="-333.712" r="1.5"/>
</g>
<g>
	<path d="M-158.842-357.746c-1.444-6.742-7.433-11.8-14.605-11.8c-1.799,0-3.522,0.32-5.118,0.904
		c-0.949-5.108-5.404-8.98-10.788-8.98c-0.413,0-0.819,0.027-1.222,0.071c0.744,1.112,1.179,2.448,1.179,3.886c0,3.865-3.134,7-7,7
		c-1.438,0-2.773-0.435-3.886-1.179c-0.044,0.401-0.071,0.809-0.071,1.222c0,3.712,1.845,6.987,4.661,8.979
		c-1.653,1.907-2.661,4.389-2.661,7.111c0,5.983,4.836,10.836,10.813,10.865v0.003h1.188v-2h-0.721l-0.457-0.003
		c-4.864-0.023-8.822-4.001-8.822-8.865c0-4.89,3.978-8.868,8.867-8.868c0.15,0,0.299,0.012,0.447,0.022l0.148,0.01l1.314,0.085
		l0.597-1.175c2.225-4.372,6.644-7.089,11.532-7.089c6.062,0,11.382,4.298,12.649,10.219l0.318,1.483l1.514,0.094
		c3.708,0.23,6.612,3.319,6.612,7.03c0,3.878-3.144,7.035-7.017,7.057c-0.042-0.003-0.079-0.005-0.117-0.005l-2.047,0.005h-0.819v2
		h2.819v-0.006c0.042,0.001,0.082,0.006,0.124,0.006c5.001,0,9.057-4.054,9.057-9.057
		C-150.354-353.529-154.107-357.451-158.842-357.746z M-186.762-361.363c-0.241-0.016-0.48-0.036-0.725-0.036
		c-2.537,0-4.865,0.876-6.715,2.334c-2.012-1.294-3.487-3.354-3.976-5.776c0.582,0.117,1.178,0.177,1.78,0.177c4.963,0,9-4.037,9-9
		c0-0.603-0.06-1.198-0.177-1.78c3.733,0.753,6.629,3.824,7.133,7.641C-183.151-366.361-185.366-364.105-186.762-361.363z"/>
	<rect x="-175.354" y="-339.647" width="2" height="4"/>
	<rect x="-167.354" y="-343.669" width="2" height="4.021"/>
	<rect x="-183.354" y="-343.669" width="2" height="4.021"/>
	<circle cx="-166.354" cy="-334.627" r="1.5"/>
	<circle cx="-174.354" cy="-330.658" r="1.5"/>
	<circle cx="-182.354" cy="-334.669" r="1.5"/>
</g>
<g>
	<path d="M-262.151-264.716c-1.596-7.445-8.207-13.029-16.127-13.029c-6.423,0-11.977,3.678-14.702,9.035
		c-0.266-0.018-0.53-0.04-0.8-0.04c-6.627,0-11.999,5.372-11.999,12c0,6.607,5.34,11.965,11.938,11.998v0.003h6.062v-2h-5.604
		l-0.447-0.003c-5.485-0.027-9.948-4.513-9.948-9.998c0-5.514,4.485-10,9.999-10c0.175,0,0.347,0.014,0.52,0.025l0.148,0.01
		l1.316,0.088l0.598-1.176c2.492-4.899,7.443-7.942,12.92-7.942c6.79,0,12.75,4.814,14.172,11.448l0.317,1.482l1.514,0.095
		c4.203,0.262,7.496,3.763,7.496,7.971c0,4.397-3.565,7.977-7.957,8c-0.05-0.003-0.093-0.005-0.137-0.007l-5.043,0.007h0.137v2
		h4.863v-0.007c0.046,0.001,0.091,0.007,0.137,0.007c5.521,0,10-4.477,10-10C-252.779-260.06-256.924-264.391-262.151-264.716z"/>
	<polygon points="-277.938,-244.745 -276.168,-244.745 -275.737,-244.745 -273.728,-244.745 -280.142,-253.906 -281.779,-252.759 
		-277.568,-246.745 -279.339,-246.745 -281.779,-246.745 -280.508,-244.929 -279.396,-243.34 -273.418,-234.745 -271.779,-235.892 
		-277.757,-244.487 	"/>
</g>
<g>
	<rect x="-186.354" y="-283.846" width="2" height="7.973"/>
	<rect x="-205.354" y="-264.932" width="7.973" height="2"/>
	<rect x="-200.68" y="-276.198" transform="matrix(0.7071 0.7071 -0.7071 0.7071 -252.2047 58.4795)" width="7.974" height="2"/>
	<rect x="-175.172" y="-279.18" transform="matrix(0.7071 0.7071 -0.7071 0.7071 -245.6055 42.5555)" width="2" height="7.972"/>
	<path d="M-155.842-258.056c-1.444-6.742-7.433-11.8-14.605-11.8c-2.185,0-4.258,0.47-6.127,1.313
		c-1.666-3.202-5.006-5.394-8.865-5.394c-5.522,0-10,4.477-10,9.999c0,2.46,0.898,4.702,2.373,6.442
		c-1.428,1.84-2.287,4.144-2.287,6.653c0,5.983,4.836,10.836,10.813,10.865v0.003h4.188v-2h-3.721l-0.457-0.003
		c-4.864-0.023-8.822-4.001-8.822-8.865c0-4.89,3.978-8.868,8.867-8.868c0.15,0,0.299,0.012,0.447,0.022l0.148,0.01l1.314,0.085
		l0.597-1.175c2.225-4.372,6.644-7.089,11.532-7.089c6.062,0,11.382,4.298,12.649,10.219l0.318,1.483l1.514,0.094
		c3.708,0.23,6.612,3.319,6.612,7.03c0,3.878-3.144,7.035-7.017,7.057c-0.042-0.003-0.079-0.005-0.117-0.005l-2.047,0.005h-3.819v2
		h5.819v-0.006c0.042,0.001,0.082,0.006,0.124,0.006c5.001,0,9.057-4.054,9.057-9.057
		C-147.354-253.839-151.107-257.761-155.842-258.056z M-183.762-261.673c-0.241-0.016-0.48-0.036-0.725-0.036
		c-2.766,0-5.281,1.041-7.2,2.743c-1.092-1.366-1.753-3.09-1.753-4.971c0-4.41,3.589-7.999,8-7.999c3.092,0,5.76,1.773,7.092,4.345
		C-180.646-266.15-182.525-264.103-183.762-261.673z"/>
	<polygon points="-171.512,-239.966 -169.742,-239.966 -169.312,-239.966 -167.302,-239.966 -173.716,-249.127 -175.354,-247.979 
		-171.143,-241.966 -172.913,-241.966 -175.354,-241.966 -174.082,-240.149 -172.97,-238.561 -166.992,-229.966 -165.354,-231.112 
		-171.331,-239.708 	"/>
</g>
<g>
	<path d="M-56.257-260.352c-1.444-6.742-7.433-11.8-14.605-11.8c-1.799,0-3.521,0.32-5.118,0.904
		c-0.949-5.108-5.404-8.98-10.788-8.98c-0.413,0-0.819,0.027-1.222,0.071c0.744,1.112,1.179,2.448,1.179,3.886c0,3.865-3.134,7-7,7
		c-1.438,0-2.773-0.435-3.886-1.179c-0.044,0.401-0.071,0.809-0.071,1.222c0,3.712,1.845,6.987,4.661,8.979
		c-1.653,1.907-2.661,4.389-2.661,7.111c0,5.983,4.836,10.836,10.813,10.865v0.003h4.188v-2h-3.721l-0.457-0.003
		c-4.864-0.023-8.822-4.001-8.822-8.865c0-4.89,3.978-8.868,8.867-8.868c0.15,0,0.299,0.012,0.447,0.022l0.148,0.01l1.314,0.085
		l0.597-1.175c2.225-4.372,6.644-7.089,11.532-7.089c6.062,0,11.382,4.298,12.649,10.219l0.318,1.483l1.514,0.094
		c3.708,0.23,6.612,3.319,6.612,7.03c0,3.878-3.144,7.035-7.017,7.057c-0.042-0.003-0.079-0.005-0.117-0.005l-2.047,0.005h-3.819v2
		h5.819v-0.006c0.042,0.001,0.082,0.006,0.124,0.006c5.001,0,9.057-4.054,9.057-9.057
		C-47.769-256.135-51.522-260.057-56.257-260.352z M-84.177-263.969c-0.241-0.016-0.48-0.036-0.725-0.036
		c-2.537,0-4.865,0.876-6.715,2.334c-2.012-1.294-3.486-3.354-3.976-5.776c0.582,0.117,1.178,0.177,1.78,0.177c4.963,0,9-4.037,9-9
		c0-0.603-0.06-1.198-0.177-1.78c3.733,0.753,6.629,3.824,7.134,7.64C-80.567-268.967-82.782-266.712-84.177-263.969z"/>
	<polygon points="-71.927,-242.262 -70.157,-242.262 -69.727,-242.262 -67.717,-242.262 -74.131,-251.423 -75.769,-250.275 
		-71.558,-244.262 -73.328,-244.262 -75.769,-244.262 -74.497,-242.445 -73.385,-240.856 -67.407,-232.262 -65.769,-233.408 
		-71.746,-242.004 	"/>
</g>
<g>
	<path d="M44.628-264.216c-1.596-7.445-8.207-13.029-16.127-13.029c-6.423,0-11.977,3.678-14.702,9.035
		c-0.266-0.018-0.53-0.04-0.8-0.04c-6.627,0-11.999,5.372-11.999,12c0,6.607,5.34,11.965,11.938,11.998v0.003H14v-2h-0.604
		l-0.447-0.003C7.463-246.279,3-250.765,3-256.25c0-5.514,4.485-10,9.999-10c0.175,0,0.347,0.014,0.52,0.025l0.148,0.01l1.316,0.088
		l0.598-1.176c2.492-4.899,7.443-7.942,12.92-7.942c6.79,0,12.75,4.814,14.172,11.448l0.317,1.482l1.514,0.095
		c4.203,0.262,7.496,3.763,7.496,7.971c0,4.397-3.565,7.977-7.957,8c-0.05-0.003-0.093-0.005-0.137-0.007L43-246.249v2h0.863v-0.007
		c0.046,0.001,0.091,0.007,0.137,0.007c5.521,0,10-4.477,10-10C54-259.56,49.855-263.891,44.628-264.216z"/>
	
		<rect x="13.434" y="-246.251" transform="matrix(-0.5736 -0.8191 0.8191 -0.5736 230.8275 -370.3528)" width="11.183" height="1.999"/>
	
		<rect x="31.409" y="-246.251" transform="matrix(-0.5736 -0.8191 0.8191 -0.5736 259.113 -355.6296)" width="11.183" height="1.999"/>
	<polygon points="29.842,-241.245 31.611,-241.245 32.042,-241.245 34.052,-241.245 27.638,-250.406 26,-249.259 30.211,-243.245 
		28.44,-243.245 26,-243.245 27.271,-241.429 28.384,-239.84 33,-233.245 34.639,-234.392 30.022,-240.987 	"/>
</g>
<g>
	<rect x="119.476" y="-283.683" width="2" height="7.973"/>
	<rect x="100.476" y="-264.769" width="7.973" height="2"/>
	<rect x="105.149" y="-276.035" transform="matrix(0.7071 0.7071 -0.7071 0.7071 -162.5141 -157.7266)" width="7.974" height="2"/>
	<rect x="130.657" y="-279.017" transform="matrix(0.7071 0.7071 -0.7071 0.7071 -155.9149 -173.6505)" width="2" height="7.972"/>
	<path d="M149.987-257.893c-1.444-6.742-7.433-11.8-14.605-11.8c-2.185,0-4.258,0.47-6.126,1.313
		c-1.667-3.202-5.007-5.394-8.866-5.394c-5.522,0-10,4.477-10,9.999c0,2.46,0.899,4.702,2.373,6.442
		c-1.429,1.84-2.287,4.144-2.287,6.653c0,5.983,4.836,10.836,10.813,10.865v0.003h0.188v-2l-0.178-0.003
		c-4.864-0.023-8.822-4.001-8.822-8.865c0-4.89,3.978-8.868,8.867-8.868c0.15,0,0.299,0.012,0.447,0.022l0.148,0.01l1.314,0.085
		l0.597-1.175c2.225-4.372,6.644-7.089,11.532-7.089c6.062,0,11.382,4.298,12.649,10.219l0.318,1.483l1.514,0.094
		c3.708,0.23,6.612,3.319,6.612,7.03c0,3.878-3.144,7.035-7.017,7.057c-0.042-0.003-0.079-0.005-0.117-0.005l-0.866,0.005v2h0.819
		v-0.006c0.042,0.001,0.082,0.006,0.124,0.006c5.001,0,9.057-4.054,9.057-9.057C158.476-253.676,154.722-257.598,149.987-257.893z
		 M122.067-261.51c-0.241-0.016-0.48-0.036-0.725-0.036c-2.766,0-5.282,1.042-7.2,2.743c-1.092-1.367-1.753-3.09-1.753-4.971
		c0-4.41,3.589-7.999,8-7.999c3.091,0,5.76,1.773,7.091,4.345C125.183-265.988,123.303-263.939,122.067-261.51z"/>
	
		<rect x="119.897" y="-241.812" transform="matrix(-0.5736 -0.8191 0.8191 -0.5736 394.726 -276.1636)" width="11.183" height="1.999"/>
	
		<rect x="137.872" y="-241.812" transform="matrix(-0.5736 -0.8191 0.8191 -0.5736 423.0115 -261.4404)" width="11.183" height="1.999"/>
	<polygon points="136.305,-236.807 138.074,-236.807 138.505,-236.807 140.515,-236.807 134.101,-245.968 132.463,-244.82 
		136.674,-238.807 134.903,-238.807 132.463,-238.807 133.734,-236.99 134.847,-235.401 139.463,-228.807 141.102,-229.953 
		136.485,-236.549 	"/>
</g>
<g>
	<path d="M251.825-260.851c-1.444-6.742-7.433-11.8-14.605-11.8c-1.799,0-3.522,0.32-5.118,0.904
		c-0.949-5.108-5.404-8.98-10.788-8.98c-0.413,0-0.819,0.027-1.222,0.071c0.744,1.112,1.179,2.448,1.179,3.886c0,3.865-3.134,7-7,7
		c-1.438,0-2.773-0.435-3.886-1.179c-0.044,0.401-0.071,0.809-0.071,1.222c0,3.712,1.845,6.987,4.661,8.979
		c-1.653,1.907-2.661,4.389-2.661,7.111c0,5.983,4.836,10.836,10.813,10.865v0.003h0.188v-2l-0.178-0.003
		c-4.864-0.023-8.822-4.001-8.822-8.865c0-4.89,3.978-8.868,8.867-8.868c0.15,0,0.299,0.012,0.447,0.022l0.148,0.01l1.314,0.085
		l0.597-1.175c2.225-4.372,6.644-7.089,11.532-7.089c6.062,0,11.382,4.298,12.649,10.219l0.318,1.483l1.514,0.094
		c3.708,0.23,6.612,3.319,6.612,7.03c0,3.878-3.144,7.035-7.017,7.057c-0.042-0.003-0.079-0.005-0.117-0.005l-0.866,0.005v2h0.819
		v-0.006c0.042,0.001,0.082,0.006,0.124,0.006c5.001,0,9.057-4.054,9.057-9.057C260.313-256.634,256.56-260.556,251.825-260.851z
		 M223.905-264.468c-0.241-0.016-0.48-0.036-0.725-0.036c-2.537,0-4.865,0.876-6.715,2.334c-2.012-1.294-3.487-3.354-3.976-5.776
		c0.582,0.117,1.178,0.177,1.78,0.177c4.963,0,9-4.037,9-9c0-0.603-0.06-1.198-0.177-1.78c3.733,0.753,6.629,3.824,7.133,7.641
		C227.516-269.466,225.301-267.21,223.905-264.468z"/>
	
		<rect x="221.734" y="-244.77" transform="matrix(-0.5736 -0.8191 0.8191 -0.5736 557.4033 -197.4029)" width="11.183" height="1.999"/>
	
		<rect x="239.709" y="-244.77" transform="matrix(-0.5736 -0.8191 0.8191 -0.5736 585.6888 -182.6797)" width="11.183" height="1.999"/>
	<polygon points="238.142,-239.765 239.911,-239.765 240.342,-239.765 242.352,-239.765 235.938,-248.926 234.3,-247.778 
		238.511,-241.765 236.74,-241.765 234.3,-241.765 235.571,-239.948 236.684,-238.359 241.3,-231.765 242.938,-232.911 
		238.322,-239.507 	"/>
</g>
<g>
	<g>
		<path d="M-158.737-174.396c-1.596-7.445-8.207-13.029-16.127-13.029c-6.423,0-11.977,3.678-14.702,9.035
			c-0.266-0.018-0.53-0.04-0.8-0.04c-6.627,0-11.999,5.372-11.999,12c0,6.607,5.34,11.965,11.938,11.998v0.003h2.062v-2h-1.604
			l-0.447-0.003c-5.485-0.027-9.948-4.513-9.948-9.998c0-5.514,4.485-10,9.999-10c0.175,0,0.347,0.014,0.52,0.025l0.148,0.01
			l1.316,0.088l0.598-1.176c2.492-4.899,7.443-7.942,12.92-7.942c6.79,0,12.75,4.814,14.172,11.448l0.317,1.482l1.514,0.095
			c4.203,0.262,7.496,3.763,7.496,7.971c0,4.397-3.565,7.977-7.957,8c-0.05-0.003-0.093-0.005-0.137-0.007l-2.043,0.007h-2.863v2
			h4.863v-0.007c0.046,0.001,0.091,0.007,0.137,0.007c5.521,0,10-4.477,10-10C-149.365-169.739-153.51-174.07-158.737-174.396z"/>
	</g>
	<g>
		<circle cx="-183.865" cy="-160.853" r="1.5"/>
	</g>
	<g>
		<circle cx="-179.865" cy="-154.929" r="1.5"/>
	</g>
	<g>
		<circle cx="-171.865" cy="-154.929" r="1.5"/>
	</g>
	<g>
		<circle cx="-175.865" cy="-160.853" r="1.5"/>
	</g>
	<g>
		<circle cx="-167.865" cy="-160.853" r="1.5"/>
	</g>
	<g>
		<circle cx="-183.865" cy="-148.907" r="1.5"/>
	</g>
	<g>
		<circle cx="-175.865" cy="-148.907" r="1.5"/>
	</g>
	<g>
		<circle cx="-167.865" cy="-148.907" r="1.5"/>
	</g>
</g>
<g>
	<g>
		<rect x="-82.951" y="-189.873" width="2" height="7.973"/>
	</g>
	<g>
		<rect x="-101.951" y="-170.959" width="7.973" height="2"/>
	</g>
	<g>
		<rect x="-97.278" y="-182.225" transform="matrix(0.7071 0.7071 -0.7071 0.7071 -155.4702 12.887)" width="7.974" height="2"/>
	</g>
	<g>
		<rect x="-71.769" y="-185.207" transform="matrix(0.7071 0.7071 -0.7071 0.7071 -148.871 -3.037)" width="2" height="7.972"/>
	</g>
	<g>
		<path d="M-52.439-164.083c-1.444-6.742-7.433-11.8-14.605-11.8c-2.185,0-4.258,0.47-6.127,1.313
			c-1.666-3.202-5.006-5.394-8.865-5.394c-5.522,0-10,4.477-10,9.999c0,2.46,0.898,4.702,2.373,6.442
			c-1.428,1.84-2.287,4.144-2.287,6.653c0,5.983,4.836,10.836,10.813,10.865V-146h1.188v-2h-0.721l-0.457-0.003
			c-4.864-0.023-8.822-4.001-8.822-8.865c0-4.89,3.978-8.868,8.867-8.868c0.15,0,0.299,0.012,0.447,0.022l0.148,0.01l1.314,0.085
			l0.597-1.175c2.225-4.372,6.644-7.089,11.532-7.089c6.062,0,11.382,4.298,12.649,10.219l0.318,1.483l1.514,0.094
			c3.708,0.23,6.612,3.319,6.612,7.03c0,3.878-3.144,7.035-7.017,7.057c-0.042-0.003-0.079-0.005-0.117-0.005L-55.132-148h-1.819v2
			h3.819v-0.006c0.042,0.001,0.082,0.006,0.124,0.006c5.001,0,9.057-4.054,9.057-9.057
			C-43.951-159.866-47.705-163.788-52.439-164.083z M-80.359-167.7c-0.241-0.016-0.48-0.036-0.725-0.036
			c-2.766,0-5.281,1.042-7.2,2.743c-1.092-1.367-1.753-3.09-1.753-4.971c0-4.41,3.589-7.999,8-7.999c3.092,0,5.76,1.773,7.092,4.345
			C-77.244-172.179-79.123-170.13-80.359-167.7z"/>
	</g>
	<g>
		<circle cx="-76.462" cy="-152.489" r="1.5"/>
	</g>
	<g>
		<circle cx="-72.462" cy="-146.489" r="1.5"/>
	</g>
	<g>
		<circle cx="-64.462" cy="-146.489" r="1.5"/>
	</g>
	<g>
		<circle cx="-68.462" cy="-152.489" r="1.5"/>
	</g>
	<g>
		<circle cx="-60.462" cy="-152.489" r="1.5"/>
	</g>
	<g>
		<circle cx="-76.462" cy="-140.468" r="1.5"/>
	</g>
	<g>
		<circle cx="-68.462" cy="-140.468" r="1.5"/>
	</g>
	<g>
		<circle cx="-60.462" cy="-140.468" r="1.5"/>
	</g>
</g>
<g>
	<g>
		<path d="M43.512-168.039c-1.444-6.742-7.433-11.8-14.605-11.8c-1.799,0-3.521,0.32-5.118,0.904
			c-0.949-5.108-5.404-8.98-10.788-8.98c-0.413,0-0.819,0.027-1.222,0.071c0.744,1.112,1.179,2.448,1.179,3.886c0,3.865-3.134,7-7,7
			c-1.438,0-2.773-0.435-3.886-1.179C2.027-177.735,2-177.328,2-176.915c0,3.712,1.845,6.987,4.661,8.979
			C5.008-166.028,4-163.547,4-160.824c0,5.983,4.836,10.836,10.813,10.865v0.003H16v-2h-0.721l-0.457-0.003
			C9.958-151.982,6-155.96,6-160.824c0-4.89,3.978-8.868,8.867-8.868c0.15,0,0.299,0.012,0.447,0.022l0.148,0.01l1.314,0.085
			l0.597-1.175c2.225-4.372,6.644-7.089,11.532-7.089c6.062,0,11.382,4.298,12.649,10.219l0.318,1.483l1.514,0.094
			c3.708,0.23,6.612,3.319,6.612,7.03c0,3.878-3.144,7.035-7.017,7.057c-0.042-0.003-0.079-0.005-0.117-0.005l-2.047,0.005H39v2
			h3.819v-0.006c0.042,0.001,0.082,0.006,0.124,0.006c5.001,0,9.057-4.054,9.057-9.057C52-163.822,48.246-167.744,43.512-168.039z
			 M15.592-171.656c-0.241-0.016-0.48-0.036-0.725-0.036c-2.537,0-4.865,0.876-6.715,2.334c-2.012-1.294-3.486-3.354-3.976-5.776
			c0.582,0.117,1.178,0.177,1.78,0.177c4.963,0,9-4.037,9-9c0-0.603-0.06-1.198-0.177-1.78c3.733,0.753,6.629,3.824,7.134,7.64
			C19.201-176.654,16.986-174.399,15.592-171.656z"/>
	</g>
	<g>
		<circle cx="19.5" cy="-156.446" r="1.5"/>
	</g>
	<g>
		<circle cx="23.5" cy="-150.446" r="1.5"/>
	</g>
	<g>
		<circle cx="31.5" cy="-150.446" r="1.5"/>
	</g>
	<g>
		<circle cx="27.5" cy="-156.446" r="1.5"/>
	</g>
	<g>
		<circle cx="35.5" cy="-156.446" r="1.5"/>
	</g>
	<g>
		<circle cx="19.5" cy="-144.425" r="1.5"/>
	</g>
	<g>
		<circle cx="27.5" cy="-144.425" r="1.5"/>
	</g>
	<g>
		<circle cx="35.5" cy="-144.425" r="1.5"/>
	</g>
</g>
<g>
	<path d="M354.677-266.925c-1.596-7.445-8.207-13.029-16.127-13.029c-6.423,0-11.977,3.678-14.702,9.035
		c-0.266-0.018-0.53-0.04-0.8-0.04c-6.627,0-11.999,5.372-11.999,12c0,6.607,5.34,11.965,11.938,11.998v0.003h2.062v-2h-1.604
		l-0.447-0.003c-5.485-0.027-9.948-4.513-9.948-9.998c0-5.514,4.485-10,9.999-10c0.175,0,0.347,0.014,0.52,0.025l0.148,0.01
		l1.316,0.088l0.598-1.176c2.492-4.899,7.443-7.942,12.92-7.942c6.79,0,12.75,4.814,14.172,11.448l0.317,1.482l1.514,0.095
		c4.203,0.262,7.496,3.763,7.496,7.971c0,4.397-3.565,7.977-7.957,8c-0.05-0.003-0.093-0.005-0.137-0.007l-2.043,0.007h-2.863v2
		h4.863v-0.007c0.046,0.001,0.091,0.007,0.137,0.007c5.521,0,10-4.477,10-10C364.049-262.269,359.904-266.6,354.677-266.925z"/>
	<circle cx="329.049" cy="-239.454" r="1.5"/>
	<circle cx="337.049" cy="-233.454" r="1.5"/>
	<circle cx="345.049" cy="-237.454" r="1.5"/>
	<rect x="328.049" y="-255.93" width="2" height="11.976"/>
	<polygon points="338.049,-237.989 338.049,-239.93 338.049,-251.93 336.049,-251.93 336.049,-239.93 336.049,-237.989 
		336.049,-237.954 338.049,-237.954 	"/>
	<polygon points="346.049,-242.177 346.049,-243.93 346.049,-255.93 344.049,-255.93 344.049,-243.93 344.049,-242.177 
		344.049,-241.954 346.049,-241.954 	"/>
</g>
<g>
	<rect x="-393.7" y="-195.312" width="2" height="7.973"/>
	<rect x="-412.7" y="-176.397" width="7.973" height="2"/>
	<rect x="-408.027" y="-187.664" transform="matrix(0.7071 0.7071 -0.7071 0.7071 -250.332 231.0268)" width="7.974" height="2"/>
	<rect x="-382.518" y="-190.646" transform="matrix(0.7071 0.7071 -0.7071 0.7071 -243.7329 215.1028)" width="2" height="7.972"/>
	<path d="M-363.188-169.521c-1.444-6.742-7.433-11.8-14.605-11.8c-2.185,0-4.258,0.47-6.126,1.313
		c-1.667-3.202-5.007-5.394-8.866-5.394c-5.522,0-10,4.477-10,9.999c0,2.46,0.899,4.702,2.373,6.442
		c-1.429,1.84-2.287,4.144-2.287,6.653c0,5.983,4.836,10.836,10.813,10.865v0.003h1.188v-2h-0.721l-0.457-0.003
		c-4.864-0.023-8.822-4.001-8.822-8.865c0-4.89,3.978-8.868,8.867-8.868c0.15,0,0.299,0.012,0.447,0.022l0.148,0.01l1.314,0.085
		l0.597-1.175c2.225-4.372,6.644-7.089,11.532-7.089c6.062,0,11.382,4.298,12.649,10.219l0.318,1.483l1.514,0.094
		c3.708,0.23,6.612,3.319,6.612,7.03c0,3.878-3.144,7.035-7.017,7.057c-0.042-0.003-0.079-0.005-0.117-0.005l-2.047,0.005h-0.819v2
		h2.819v-0.006c0.042,0.001,0.082,0.006,0.124,0.006c5.001,0,9.057-4.054,9.057-9.057
		C-354.7-165.305-358.454-169.227-363.188-169.521z M-391.108-173.139c-0.241-0.016-0.48-0.036-0.725-0.036
		c-2.766,0-5.282,1.041-7.2,2.743c-1.092-1.366-1.753-3.09-1.753-4.971c0-4.41,3.589-7.999,8-7.999c3.091,0,5.76,1.773,7.091,4.345
		C-387.993-177.616-389.873-175.568-391.108-173.139z"/>
	<circle cx="-386.71" cy="-142.951" r="1.5"/>
	<circle cx="-378.71" cy="-136.951" r="1.5"/>
	<circle cx="-370.71" cy="-140.951" r="1.5"/>
	<rect x="-387.71" y="-159.427" width="2" height="11.976"/>
	<polygon points="-377.71,-141.486 -377.71,-143.427 -377.71,-155.427 -379.71,-155.427 -379.71,-143.427 -379.71,-141.486 
		-379.71,-141.451 -377.71,-141.451 	"/>
	<polygon points="-369.71,-145.674 -369.71,-147.427 -369.71,-159.427 -371.71,-159.427 -371.71,-147.427 -371.71,-145.674 
		-371.71,-145.451 -369.71,-145.451 	"/>
</g>
<g>
	<path d="M-262.586-172.52c-1.444-6.742-7.433-11.8-14.605-11.8c-1.799,0-3.522,0.32-5.118,0.904
		c-0.949-5.108-5.404-8.98-10.788-8.98c-0.413,0-0.819,0.027-1.222,0.071c0.744,1.112,1.179,2.448,1.179,3.886c0,3.865-3.134,7-7,7
		c-1.438,0-2.773-0.435-3.886-1.179c-0.044,0.401-0.071,0.809-0.071,1.222c0,3.712,1.845,6.987,4.661,8.979
		c-1.653,1.907-2.661,4.389-2.661,7.111c0,5.983,4.836,10.836,10.813,10.865v0.003h1.188v-2h-0.721l-0.457-0.003
		c-4.864-0.023-8.822-4.001-8.822-8.865c0-4.89,3.978-8.868,8.867-8.868c0.15,0,0.299,0.012,0.447,0.022l0.148,0.01l1.314,0.085
		l0.597-1.175c2.225-4.372,6.644-7.089,11.532-7.089c6.062,0,11.382,4.298,12.649,10.219l0.318,1.483l1.514,0.094
		c3.708,0.23,6.612,3.319,6.612,7.03c0,3.878-3.144,7.035-7.017,7.057c-0.042-0.003-0.079-0.005-0.117-0.005l-2.047,0.005h-0.819v2
		h2.819v-0.006c0.042,0.001,0.082,0.006,0.124,0.006c5.001,0,9.057-4.054,9.057-9.057
		C-254.098-168.303-257.852-172.225-262.586-172.52z M-290.506-176.137c-0.241-0.016-0.48-0.036-0.725-0.036
		c-2.537,0-4.865,0.876-6.715,2.334c-2.012-1.294-3.487-3.354-3.976-5.776c0.582,0.117,1.178,0.177,1.78,0.177c4.963,0,9-4.037,9-9
		c0-0.603-0.06-1.198-0.177-1.78c3.733,0.753,6.629,3.824,7.133,7.64C-286.896-181.135-289.11-178.88-290.506-176.137z"/>
	<circle cx="-286.098" cy="-145.945" r="1.5"/>
	<circle cx="-278.098" cy="-139.945" r="1.5"/>
	<circle cx="-270.098" cy="-143.945" r="1.5"/>
	<rect x="-287.098" y="-162.421" width="2" height="11.976"/>
	<polygon points="-277.098,-144.48 -277.098,-146.421 -277.098,-158.421 -279.098,-158.421 -279.098,-146.421 -279.098,-144.48 
		-279.098,-144.445 -277.098,-144.445 	"/>
	<polygon points="-269.098,-148.668 -269.098,-150.421 -269.098,-162.421 -271.098,-162.421 -271.098,-150.421 -271.098,-148.668 
		-271.098,-148.445 -269.098,-148.445 	"/>
</g>
<g>
	<rect x="-410.7" y="-68.079" width="56" height="2"/>
	<rect x="-406.7" y="-62.079" width="50" height="2"/>
	<rect x="-400.7" y="-56.079" width="36" height="2"/>
	<rect x="-408.7" y="-74.079" width="52" height="2"/>
	<path d="M-396.826-82.084c0.175,0,0.347,0.014,0.519,0.025l0.149,0.01l1.316,0.088l0.598-1.176
		c2.493-4.899,7.443-7.942,12.92-7.942c6.79,0,12.75,4.814,14.171,11.448l0.318,1.482l1.514,0.095
		c1.207,0.075,2.335,0.425,3.336,0.975h3.286c-1.678-1.703-3.957-2.813-6.498-2.971c-1.596-7.445-8.207-13.029-16.127-13.029
		c-6.423,0-11.977,3.678-14.702,9.035c-0.266-0.018-0.53-0.04-0.8-0.04c-4.843,0-9.004,2.874-10.9,7.005h2.251
		C-403.744-80.065-400.52-82.084-396.826-82.084z"/>
</g>
<g>
	<rect x="-289.598" y="-95.594" width="2" height="7.973"/>
	<rect x="-308.598" y="-76.68" width="7.973" height="2"/>
	<rect x="-303.925" y="-87.946" transform="matrix(0.7071 0.7071 -0.7071 0.7071 -149.33 186.6219)" width="7.974" height="2"/>
	<rect x="-278.416" y="-90.928" transform="matrix(0.7071 0.7071 -0.7071 0.7071 -142.7308 170.6979)" width="2" height="7.972"/>
	<rect x="-299.598" y="-61.72" width="50" height="2"/>
	<rect x="-295.598" y="-55.72" width="44" height="2"/>
	<rect x="-289.598" y="-50.72" width="30" height="2"/>
	<rect x="-297.598" y="-67.72" width="46" height="2"/>
	<path d="M-296.689-69.72h0.771h1.927h1.012c1.472-1.087,3.283-1.737,5.249-1.737c0.15,0,0.299,0.012,0.447,0.022l0.148,0.01
		l1.314,0.085l0.597-1.175c2.225-4.372,6.644-7.089,11.532-7.089c5.945,0,11.168,4.139,12.563,9.884h2.043v-0.084
		c-1.444-6.742-7.433-11.8-14.605-11.8c-2.185,0-4.258,0.47-6.126,1.313c-1.667-3.202-5.007-5.394-8.866-5.394
		c-5.522,0-10,4.477-10,9.999C-298.684-73.443-297.936-71.385-296.689-69.72z M-288.684-83.684c3.091,0,5.76,1.773,7.091,4.345
		c-2.298,1.44-4.178,3.488-5.413,5.918c-0.241-0.016-0.48-0.036-0.725-0.036c-2.764,0-5.274,1.045-7.189,2.745
		c-1.097-1.366-1.764-3.089-1.764-4.973C-296.684-80.095-293.095-83.684-288.684-83.684z"/>
</g>
<g>
	<rect x="-200.854" y="-65.157" width="50" height="2"/>
	<rect x="-196.854" y="-59.157" width="44" height="2"/>
	<rect x="-190.854" y="-54.157" width="30" height="2"/>
	<rect x="-198.854" y="-71.157" width="46" height="2"/>
	<path d="M-197.211-73.157h0.037h1.884h1.055c1.472-1.087,3.283-1.737,5.249-1.737c0.15,0,0.299,0.012,0.447,0.022l0.148,0.01
		l1.314,0.085l0.597-1.175c2.225-4.372,6.644-7.089,11.532-7.089c5.945,0,11.168,4.139,12.563,9.884h2.043v-0.084
		c-1.444-6.742-7.433-11.8-14.605-11.8c-1.799,0-3.521,0.32-5.117,0.903c-0.945-5.111-5.402-8.987-10.789-8.987
		c-0.413,0-0.819,0.027-1.222,0.071c0.744,1.112,1.179,2.448,1.179,3.886c0,3.865-3.134,7-7,7c-1.438,0-2.773-0.435-3.886-1.179
		c-0.044,0.401-0.071,0.809-0.071,1.222C-201.854-78.421-200.018-75.15-197.211-73.157z M-197.896-80.168c4.963,0,9-4.037,9-9
		c0-0.603-0.06-1.198-0.177-1.78c3.735,0.753,6.633,3.828,7.134,7.647c-2.712,1.443-4.927,3.699-6.322,6.442
		c-0.241-0.016-0.48-0.036-0.725-0.036c-2.534,0-4.855,0.879-6.701,2.335c-2.02-1.293-3.5-3.356-3.989-5.785
		C-199.095-80.228-198.499-80.168-197.896-80.168z"/>
</g>
<g>
	<path d="M-68.962-62.144h-19.474l-0.578-0.003c-5.485-0.027-9.948-4.513-9.948-9.998c0-5.514,4.485-10,9.999-10
		c0.175,0,0.347,0.014,0.519,0.025l0.149,0.01l1.316,0.088l0.598-1.176c2.493-4.899,7.443-7.942,12.92-7.942
		c6.79,0,12.75,4.814,14.171,11.448l0.318,1.482l1.514,0.095c1.822,0.113,3.463,0.845,4.746,1.971h2.732
		c-1.707-2.262-4.348-3.78-7.354-3.967c-1.596-7.445-8.207-13.029-16.127-13.029c-6.423,0-11.977,3.678-14.702,9.035
		c-0.266-0.018-0.53-0.04-0.8-0.04c-6.627,0-11.999,5.372-11.999,12c0,6.607,5.34,11.965,11.938,11.998v0.003h20.062
		c2.205,0,4,1.794,4,4s-1.795,4-4,4v2c3.314,0,6-2.686,6-6C-62.962-59.457-65.647-62.144-68.962-62.144z"/>
	<path d="M-64.962-66.144H-80.95v2h15.988c3.314,0,6-2.687,6-6c0-3.314-2.686-6-6-6v2c2.205,0,4,1.794,4,4
		S-62.757-66.144-64.962-66.144z"/>
	<path d="M-51.962-72.144c1.654,0,3,1.346,3,3s-1.346,3-3,3c-0.043,0-0.083-0.011-0.126-0.013h-4.862
		c0.003,0.005,0.009,0.008,0.012,0.013h-0.023v2h5.5v-0.051c2.523-0.254,4.5-2.358,4.5-4.949c0-2.762-2.238-5-5-5V-72.144z"/>
	<path d="M-47.962-62.144h-13v2h9.022c-0.004,0.005-0.008,0.008-0.011,0.013h3.862c0.043-0.002,0.083-0.013,0.126-0.013
		c1.654,0,3,1.346,3,3s-1.346,3-3,3v2c2.762,0,5-2.238,5-5S-45.2-62.144-47.962-62.144z"/>
	<rect x="-86.962" y="-66.144" width="4" height="2"/>
</g>
<path d="M-276.523-461.247c6.95,1.305,12.226,7.419,12.226,14.742c0,8.272-6.729,15.002-15,15.002
	c-6.79,0-12.531-4.49-14.366-10.728c1.398,0.461,2.867,0.698,4.366,0.698c7.72,0,14-6.281,14-14.001
	C-275.298-457.518-275.722-459.462-276.523-461.247 M-279.298-463.504c-0.338,0-0.668,0.031-1,0.051c1.861,2.113,3,4.881,3,7.92
	c0,6.627-5.372,12.001-12,12.001c-2.599,0-4.998-0.835-6.963-2.239c0.387,9.047,7.821,16.269,16.963,16.269
	c9.39,0,17-7.612,17-17.002S-269.908-463.504-279.298-463.504L-279.298-463.504z"/>
<g>
	<path d="M-382.693-458.509c-7.18,0-13,5.819-13,12.999c0,7.181,5.82,13.002,13,13.002s13-5.821,13-13.002
		C-369.693-452.689-375.514-458.509-382.693-458.509z M-382.693-434.508c-6.065,0-11-4.936-11-11.002
		c0-6.064,4.935-10.999,11-10.999s11,4.935,11,10.999C-371.693-439.443-376.628-434.508-382.693-434.508z"/>
	<rect x="-383.7" y="-471.503" width="2" height="10"/>
	<rect x="-383.7" y="-429.503" width="2" height="10"/>
	<rect x="-408.693" y="-446.503" width="9.993" height="2"/>
	<rect x="-366.7" y="-446.503" width="10.007" height="2"/>
	<rect x="-369" y="-465.417" transform="matrix(0.7071 0.7071 -0.7071 0.7071 -433.2042 125.4225)" width="2" height="10.409"/>
	
		<rect x="-398.409" y="-436.008" transform="matrix(-0.7071 -0.7071 0.7071 -0.7071 -373.796 -1016.4378)" width="2" height="10.41"/>
	<rect x="-402.609" y="-461.207" transform="matrix(0.7071 0.7071 -0.7071 0.7071 -441.813 146.2159)" width="10.409" height="2"/>
	
		<rect x="-373.201" y="-431.798" transform="matrix(-0.7072 -0.7071 0.7071 -0.7072 -323.6256 -995.6343)" width="10.41" height="2"/>
</g>
<g>
	<rect x="15.473" y="-100.642" width="2" height="7.973"/>
	<rect x="-3.5" y="-81.655" width="7.973" height="2"/>
	<rect x="1.226" y="-92.874" transform="matrix(0.7071 0.7071 -0.7071 0.7071 -63.4379 -30.5953)" width="7.974" height="2"/>
	<rect x="26.734" y="-95.856" transform="matrix(0.7071 0.7071 -0.7071 0.7071 -56.8388 -46.5193)" width="2" height="7.972"/>
	<path d="M30.5-58.642l0.005-0.007H17.969l-0.594-0.003c-4.864-0.024-8.822-4.001-8.822-8.865c0-4.89,3.978-8.868,8.867-8.868
		c0.15,0,0.299,0.012,0.447,0.021l0.148,0.011l1.314,0.085l0.597-1.174c2.225-4.373,6.644-7.09,11.532-7.09
		c5.916,0,11.114,4.099,12.54,9.8h2.065c-1.444-6.742-7.433-11.8-14.605-11.8c-2.185,0-4.258,0.47-6.126,1.313
		c-1.667-3.202-5.007-5.394-8.866-5.394c-5.522,0-10,4.477-10,9.999c0,2.46,0.899,4.702,2.373,6.442
		c-1.429,1.84-2.287,4.144-2.287,6.653c0,5.983,4.836,10.836,10.813,10.865v0.003H30.5v0.007c2.205,0,4,1.794,4,4s-1.795,4-4,4v2
		c3.314,0,6-2.686,6-6C36.5-55.955,33.814-58.642,30.5-58.642z M16.467-88.611c3.091,0,5.76,1.773,7.091,4.345
		c-2.298,1.439-4.178,3.488-5.413,5.918c-0.241-0.016-0.48-0.036-0.725-0.036c-2.766,0-5.282,1.042-7.2,2.743
		c-1.092-1.367-1.753-3.09-1.753-4.971C8.467-85.022,12.056-88.611,16.467-88.611z"/>
	<path d="M34.5-62.642h-9.988v2H34.5c3.314,0,6-2.687,6-6c0-3.314-2.686-6-6-6v2c2.205,0,4,1.794,4,4S36.705-62.642,34.5-62.642z"/>
	<path d="M42.523-62.642H42.5v2H48v-0.051c2.523-0.254,4.5-2.358,4.5-4.949c0-2.762-2.238-5-5-5v2c1.654,0,3,1.346,3,3s-1.346,3-3,3
		c-0.043,0-0.083-0.011-0.126-0.013h-4.862C42.515-62.649,42.521-62.646,42.523-62.642z"/>
	<path d="M51.5-58.642h-13v2h9.022c-0.004,0.004-0.008,0.008-0.011,0.013h3.862c0.043-0.002,0.083-0.013,0.126-0.013
		c1.654,0,3,1.346,3,3s-1.346,3-3,3v2c2.762,0,5-2.238,5-5S54.262-58.642,51.5-58.642z"/>
	<rect x="18.5" y="-62.642" width="4" height="2"/>
</g>
<g>
	<path d="M130.462-60.647l0.005-0.007h-12.536l-0.594-0.003c-4.864-0.024-8.822-4.001-8.822-8.865c0-4.89,3.978-8.868,8.867-8.868
		c0.15,0,0.299,0.012,0.447,0.021l0.148,0.011l1.314,0.085l0.597-1.174c2.225-4.373,6.644-7.09,11.532-7.09
		c5.916,0,11.114,4.099,12.54,9.8h2.065c-1.444-6.742-7.433-11.8-14.605-11.8c-1.806,0-3.536,0.322-5.138,0.91
		c-0.938-5.123-5.4-9.01-10.794-9.01c-0.413,0-0.819,0.027-1.222,0.071c0.744,1.112,1.179,2.448,1.179,3.886c0,3.865-3.134,7-7,7
		c-1.438,0-2.773-0.435-3.886-1.179c-0.044,0.401-0.071,0.809-0.071,1.222c0,3.725,1.858,7.009,4.69,8.998
		c-1.655,1.907-2.665,4.392-2.665,7.116c0,5.983,4.836,10.836,10.813,10.865v0.003h13.135v0.007c2.205,0,4,1.794,4,4s-1.795,4-4,4v2
		c3.314,0,6-2.686,6-6C136.462-57.961,133.776-60.647,130.462-60.647z M106.666-83.856c0.582,0.117,1.178,0.177,1.78,0.177
		c4.963,0,9-4.037,9-9c0-0.603-0.06-1.198-0.177-1.78c3.744,0.755,6.646,3.842,7.138,7.674c-2.702,1.444-4.909,3.696-6.301,6.432
		c-0.241-0.016-0.48-0.036-0.725-0.036c-2.535,0-4.861,0.875-6.71,2.33C108.644-79.353,107.157-81.421,106.666-83.856z"/>
	<path d="M134.462-64.647h-9.988v2h9.988c3.314,0,6-2.687,6-6c0-3.314-2.686-6-6-6v2c2.205,0,4,1.794,4,4
		S136.667-64.647,134.462-64.647z"/>
	<path d="M142.485-64.647h-0.023v2h5.5v-0.051c2.523-0.254,4.5-2.358,4.5-4.949c0-2.762-2.238-5-5-5v2c1.654,0,3,1.346,3,3
		s-1.346,3-3,3c-0.043,0-0.083-0.011-0.126-0.013h-4.862C142.477-64.655,142.482-64.651,142.485-64.647z"/>
	<path d="M151.462-60.647h-13v2h9.022c-0.004,0.004-0.008,0.008-0.011,0.013h3.862c0.043-0.002,0.083-0.013,0.126-0.013
		c1.654,0,3,1.346,3,3s-1.346,3-3,3v2c2.762,0,5-2.238,5-5S154.224-60.647,151.462-60.647z"/>
	<rect x="118.462" y="-64.647" width="4" height="2"/>
</g>
<g>
	<rect x="231.354" y="-98.079" width="2" height="10"/>
	<rect x="206.361" y="-73.079" width="9.993" height="2"/>
	<rect x="246.054" y="-91.993" transform="matrix(0.7071 0.7071 -0.7071 0.7071 10.9917 -200.1135)" width="2" height="10.409"/>
	<rect x="212.445" y="-87.784" transform="matrix(0.7071 0.7071 -0.7071 0.7071 2.3828 -179.3201)" width="10.409" height="2"/>
	<path d="M236.354-58.079h-24v2h24c2.205,0,4,1.794,4,4s-1.795,4-4,4v2c3.314,0,6-2.686,6-6
		C242.354-55.393,239.669-58.079,236.354-58.079z"/>
	<path d="M248.378-62.079h-0.023v2h5.5v-0.051c2.523-0.254,4.5-2.358,4.5-4.949c0-2.762-2.238-5-5-5v2c1.654,0,3,1.346,3,3
		s-1.346,3-3,3c-0.043,0-0.083-0.011-0.126-0.013h-4.862C248.369-62.087,248.375-62.083,248.378-62.079z"/>
	<path d="M257.354-58.079h-13v2h9.022c-0.004,0.004-0.008,0.008-0.011,0.013h3.862c0.043-0.002,0.083-0.013,0.126-0.013
		c1.654,0,3,1.346,3,3s-1.346,3-3,3v2c2.762,0,5-2.238,5-5S260.116-58.079,257.354-58.079z"/>
	<path d="M224.063-62.079h-11.709v2h12.012h0.822h15.166c3.314,0,6-2.687,6-6c0-3.314-2.686-6-6-6v2c2.205,0,4,1.794,4,4
		s-1.795,4-4,4h-12.538c-3.802-1.734-6.455-5.563-6.455-10.007c0-6.064,4.935-10.999,11-10.999c5.384,0,9.868,3.891,10.81,9.006
		h2.021c-0.961-6.23-6.331-11.006-12.831-11.006c-7.18,0-13,5.819-13,12.999C219.361-68.061,221.191-64.464,224.063-62.079z"/>
</g>
<g>
	<path d="M336.581-64.636h-24v2h24c2.205,0,4,1.794,4,4s-1.795,4-4,4v2c3.314,0,6-2.686,6-6
		C342.581-61.949,339.896-64.636,336.581-64.636z"/>
	<path d="M354.081-66.636v-0.051c2.523-0.254,4.5-2.358,4.5-4.949c0-2.762-2.238-5-5-5v2c1.654,0,3,1.346,3,3s-1.346,3-3,3
		c-0.043,0-0.083-0.011-0.126-0.013h-4.862c0.004,0.005,0.009,0.009,0.012,0.013h-0.023v2H354.081z"/>
	<path d="M357.581-64.636h-13v2h9.022c-0.003,0.004-0.007,0.008-0.011,0.013h3.862c0.043-0.002,0.083-0.013,0.126-0.013
		c1.654,0,3,1.346,3,3s-1.346,3-3,3v2c2.762,0,5-2.238,5-5S360.343-64.636,357.581-64.636z"/>
	<path d="M325.415-66.636h15.166c3.314,0,6-2.687,6-6c0-3.314-2.686-6-6-6v2c2.205,0,4,1.794,4,4s-1.795,4-4,4h-12.586
		c-2.596-1.188-4.658-3.339-5.69-6.034c0.849,0.204,1.724,0.309,2.612,0.309c6.168,0,11.187-5.019,11.187-11.188
		c0-1.276-0.22-2.532-0.64-3.717c4.046,1.102,7.168,4.459,7.937,8.63h2.018c-0.964-6.237-6.338-11.016-12.846-11.016
		c-0.259,0-0.511,0.024-0.766,0.039c1.425,1.618,2.297,3.737,2.297,6.063c0,5.072-4.112,9.188-9.187,9.188
		c-1.988,0-3.826-0.641-5.33-1.715c0.162,3.801,1.962,7.165,4.699,9.44h-11.705v2h12.012H325.415z"/>
</g>
<g>
	<path d="M-383.2,20.558h-20c-1.103,0-2-0.897-2-2s0.897-2,2-2h3.445h0.555v-2h-4c-2.209,0-4,1.791-4,4s1.791,4,4,4h20
		c2.205,0,4,1.794,4,4s-1.795,4-4,4v2c3.314,0,6-2.686,6-6C-377.2,23.244-379.886,20.558-383.2,20.558z"/>
	<path d="M-381.2,4.558v2c2.205,0,4,1.794,4,4s-1.795,4-4,4h-15.988v2h15.988c3.314,0,6-2.687,6-6
		C-375.2,7.243-377.886,4.558-381.2,4.558z"/>
	<path d="M-375.2,16.558v2h5.5v-0.051c2.523-0.254,4.5-2.358,4.5-4.949c0-2.762-2.238-5-5-5v2c1.654,0,3,1.346,3,3s-1.346,3-3,3
		c-0.043,0-0.083-0.011-0.126-0.013h-4.862c0.003,0.005,0.009,0.009,0.012,0.013H-375.2z"/>
	<path d="M-364.2,20.558h-11v2h7.022c-0.004,0.004-0.008,0.008-0.011,0.013h3.862c0.043-0.002,0.083-0.013,0.126-0.013
		c1.654,0,3,1.346,3,3s-1.346,3-3,3v2c2.762,0,5-2.238,5-5S-361.438,20.558-364.2,20.558z"/>
</g>
<path d="M153.092,6.904V6.866h-38.376c-1.103,0-2-0.897-2-2s0.897-2,2-2h33c2.762,0,5-2.238,5-5s-2.238-5-5-5h-37.875v0.008
	c-0.042-0.001-0.083-0.008-0.125-0.008c-2.762,0-5,2.238-5,5s2.238,5,5,5v-2c-1.654,0-3-1.346-3-3s1.346-3,3-3h0.125h3.853h34.022
	c1.654,0,3,1.346,3,3s-1.346,3-3,3h-33c-2.209,0-4,1.791-4,4s1.791,4,4,4h38c1.103,0,2,0.897,2,2s-0.897,2-2,2h-32
	c-2.209,0-4,1.791-4,4s1.791,4,4,4h22c1.103,0,2,0.897,2,2s-0.897,2-2,2h-24.01v0.001c-2.204,0.006-3.99,1.793-3.99,3.999
	s1.786,3.993,3.99,3.999v0.001h12.01c1.103,0,2,0.897,2,2s-0.897,2-2,2h-2c-2.209,0-4,1.791-4,4s1.791,4,4,4v-2
	c-1.103,0-2-0.897-2-2s0.897-2,2-2h2c2.209,0,4-1.791,4-4s-1.791-4-4-4h-12c-1.103,0-2-0.897-2-2s0.897-2,2-2h24
	c2.209,0,4-1.791,4-4c0-2.152-1.704-3.895-3.834-3.983v-0.017h-22.166c-1.103,0-2-0.897-2-2s0.897-2,2-2h32c2.209,0,4-1.791,4-4
	C156.716,8.786,155.122,7.097,153.092,6.904z"/>
<path d="M338.507-2.418v-2.024h-2v2.024c-13.01,0.513-23.462,10.965-23.975,23.976h1.674c1.14-1.222,2.748-2,4.551-2
	c2.26,0,4.233,1.203,5.331,3h1.838c1.098-1.797,3.071-3,5.331-3c2.204,0,4.137,1.144,5.25,2.866v15.134c0,2.21,1.791,4,4,4
	s4-1.79,4-4h-2c0,1.103-0.897,2-2,2s-2-0.897-2-2V22.424c1.113-1.723,3.046-2.866,5.25-2.866c2.26,0,4.233,1.203,5.331,3h1.838
	c1.098-1.797,3.071-3,5.331-3c1.803,0,3.411,0.778,4.551,2h1.674C361.969,8.547,351.517-1.905,338.507-2.418z M356.257,17.558
	c-2.496,0-4.736,1.114-6.25,2.87c-1.514-1.756-3.754-2.87-6.25-2.87s-4.736,1.114-6.25,2.87c-1.514-1.756-3.754-2.87-6.25-2.87
	s-4.736,1.114-6.25,2.87c-1.514-1.756-3.755-2.87-6.25-2.87c-1.402,0-2.731,0.351-3.897,0.975
	c1.909-10.769,11.339-18.975,22.647-18.975s20.738,8.206,22.647,18.975C358.988,17.908,357.659,17.558,356.257,17.558z"/>
<g>
	<path d="M-66.788,121.87v-17.105c0-2.762-2.238-5-5-5s-5,2.238-5,5v17.105c-1.236,1.263-2,2.988-2,4.895c0,3.866,3.134,7,7,7
		s7-3.134,7-7C-64.788,124.858-65.552,123.133-66.788,121.87z M-71.788,131.765c-2.757,0-5-2.243-5-5
		c0-1.313,0.508-2.554,1.429-3.495l0.571-0.583v-0.816v-17.105c0-1.654,1.346-3,3-3s3,1.346,3,3v17.105v0.816l0.571,0.583
		c0.921,0.941,1.429,2.183,1.429,3.495C-66.788,129.521-69.031,131.765-71.788,131.765z"/>
	<path d="M-70.788,123.94v-15.176h-2v15.176c-1.167,0.413-2.008,1.516-2.008,2.824c0,1.662,1.347,3.008,3.008,3.008
		c1.662,0,3.008-1.346,3.008-3.008C-68.78,125.456-69.62,124.354-70.788,123.94z M-71.788,127.772c-0.556,0-1.008-0.452-1.008-1.008
		s0.452-1.008,1.008-1.008s1.008,0.452,1.008,1.008S-71.232,127.772-71.788,127.772z"/>
</g>
<g>
	<path d="M33,121.87v-17.105c0-2.762-2.238-5-5-5s-5,2.238-5,5v17.105c-1.236,1.263-2,2.988-2,4.895c0,3.866,3.134,7,7,7
		s7-3.134,7-7C35,124.858,34.236,123.133,33,121.87z M28,131.765c-2.757,0-5-2.243-5-5c0-1.313,0.508-2.554,1.429-3.495L25,122.687
		v-0.816v-17.105c0-1.654,1.346-3,3-3s3,1.346,3,3v17.105v0.816l0.571,0.583c0.921,0.941,1.429,2.183,1.429,3.495
		C33,129.521,30.757,131.765,28,131.765z"/>
	<path d="M29,123.94v-20.176h-2v20.176c-1.167,0.413-2.008,1.516-2.008,2.824c0,1.662,1.347,3.008,3.008,3.008
		c1.662,0,3.008-1.346,3.008-3.008C31.008,125.456,30.168,124.354,29,123.94z M28,127.772c-0.556,0-1.008-0.452-1.008-1.008
		s0.452-1.008,1.008-1.008s1.008,0.452,1.008,1.008S28.556,127.772,28,127.772z"/>
</g>
<g>
	<path d="M-169.897,121.87v-17.105c0-2.762-2.238-5-5-5s-5,2.238-5,5v17.105c-1.236,1.263-2,2.988-2,4.895c0,3.866,3.134,7,7,7
		s7-3.134,7-7C-167.897,124.858-168.661,123.133-169.897,121.87z M-174.897,131.765c-2.757,0-5-2.243-5-5
		c0-1.313,0.508-2.554,1.429-3.495l0.571-0.583v-0.816v-17.105c0-1.654,1.346-3,3-3s3,1.346,3,3v17.105v0.816l0.571,0.583
		c0.921,0.941,1.429,2.183,1.429,3.495C-169.897,129.521-172.141,131.765-174.897,131.765z"/>
	<path d="M-173.897,123.94v-10.176h-2v10.176c-1.167,0.413-2.008,1.516-2.008,2.824c0,1.662,1.347,3.008,3.008,3.008
		c1.662,0,3.008-1.346,3.008-3.008C-171.89,125.456-172.729,124.354-173.897,123.94z M-174.897,127.772
		c-0.556,0-1.008-0.452-1.008-1.008s0.452-1.008,1.008-1.008s1.008,0.452,1.008,1.008S-174.342,127.772-174.897,127.772z"/>
</g>
<g>
	<path d="M-273.543,121.87v-17.105c0-2.762-2.238-5-5-5s-5,2.238-5,5v17.105c-1.236,1.263-2,2.988-2,4.895c0,3.866,3.134,7,7,7
		s7-3.134,7-7C-271.543,124.858-272.307,123.133-273.543,121.87z M-278.543,131.765c-2.757,0-5-2.243-5-5
		c0-1.313,0.508-2.554,1.429-3.495l0.571-0.583v-0.816v-17.105c0-1.654,1.346-3,3-3s3,1.346,3,3v17.105v0.816l0.571,0.583
		c0.921,0.941,1.429,2.183,1.429,3.495C-273.543,129.521-275.786,131.765-278.543,131.765z"/>
	<path d="M-277.543,123.94v-5.176h-2v5.176c-1.167,0.413-2.008,1.516-2.008,2.824c0,1.662,1.347,3.008,3.008,3.008
		c1.662,0,3.008-1.346,3.008-3.008C-275.535,125.456-276.375,124.354-277.543,123.94z M-278.543,127.772
		c-0.556,0-1.008-0.452-1.008-1.008s0.452-1.008,1.008-1.008s1.008,0.452,1.008,1.008S-277.987,127.772-278.543,127.772z"/>
</g>
<g>
	<path d="M-378.2,121.87v-17.105c0-2.762-2.238-5-5-5s-5,2.238-5,5v17.105c-1.236,1.263-2,2.988-2,4.895c0,3.866,3.134,7,7,7
		s7-3.134,7-7C-376.2,124.858-376.964,123.133-378.2,121.87z M-383.2,131.765c-2.757,0-5-2.243-5-5c0-1.313,0.508-2.554,1.429-3.495
		l0.571-0.583v-0.816v-17.105c0-1.654,1.346-3,3-3s3,1.346,3,3v17.105v0.816l0.571,0.583c0.921,0.941,1.429,2.183,1.429,3.495
		C-378.2,129.521-380.443,131.765-383.2,131.765z"/>
	<path d="M-383.2,123.757c-1.661,0-3.008,1.347-3.008,3.008c0,1.662,1.347,3.008,3.008,3.008c1.662,0,3.008-1.346,3.008-3.008
		C-380.192,125.104-381.538,123.757-383.2,123.757z M-383.2,127.772c-0.556,0-1.008-0.452-1.008-1.008s0.452-1.008,1.008-1.008
		s1.008,0.452,1.008,1.008S-382.645,127.772-383.2,127.772z"/>
</g>
<g>
	<path d="M121.725,102.077c-2.209,0-4,1.791-4,4c0,2.21,1.791,4,4,4c2.211,0,4-1.79,4-4
		C125.725,103.868,123.936,102.077,121.725,102.077z M121.725,108.077c-1.103,0-2-0.897-2-2s0.897-2,2-2s2,0.897,2,2
		S122.827,108.077,121.725,108.077z"/>
	<path d="M135.725,130.077c-4.41,0-7.999-3.589-7.999-7.999v-4.002c0-4.41,3.589-7.999,7.999-7.999c2.715,0,5.115,1.362,6.563,3.437
		l1.43-1.43c-1.824-2.429-4.72-4.007-7.992-4.007c-5.522,0-9.999,4.478-9.999,9.999v4.002c0,5.521,4.477,9.999,9.999,9.999
		c3.272,0,6.168-1.579,7.992-4.008l-1.43-1.43C140.841,128.714,138.44,130.077,135.725,130.077z"/>
</g>
<g>
	<path d="M226.421,101.956c-2.209,0-4,1.791-4,4c0,2.21,1.791,4,4,4c2.211,0,4-1.79,4-4
		C230.421,103.747,228.632,101.956,226.421,101.956z M226.421,107.956c-1.103,0-2-0.897-2-2s0.897-2,2-2s2,0.897,2,2
		S227.523,107.956,226.421,107.956z"/>
	<polygon points="246.296,110.077 246.296,108.077 234.296,108.077 232.296,108.077 232.296,132.077 234.296,132.077 
		234.296,120.077 242.296,120.077 242.296,118.077 234.296,118.077 234.296,110.077 	"/>
</g>
<g>
	<path d="M337.507,105.769c-7.179,0-13,5.82-13,13s5.821,13,13,13s13-5.82,13-13S344.686,105.769,337.507,105.769z M337.507,129.769
		c-6.065,0-11-4.935-11-11s4.935-11,11-11s11,4.935,11,11S343.572,129.769,337.507,129.769z"/>
	<path d="M333.24,123.011l6.363-2.121l2.121-6.364l-6.363,2.122L333.24,123.011z M336.942,118.229l1.62-0.54l-0.54,1.62l-1.62,0.54
		L336.942,118.229z"/>
</g>
<g>
	<path d="M-383.2,196.286c-7.179,0-13,5.82-13,13s5.821,13,13,13s13-5.82,13-13S-376.021,196.286-383.2,196.286z M-383.2,220.286
		c-6.065,0-11-4.934-11-11c0-6.064,4.935-11,11-11s11,4.936,11,11C-372.2,215.353-377.135,220.286-383.2,220.286z"/>
	<path d="M-380.639,207.708l-2.586-4.422l-2.529,4.33h0.007c-0.299,0.467-0.478,1.018-0.478,1.613c0,1.656,1.343,3,3,3s3-1.344,3-3
		c0-0.559-0.162-1.074-0.428-1.521H-380.639z M-383.225,210.229c-0.552,0-1-0.449-1-1c0-0.188,0.055-0.367,0.162-0.535l0.864-1.355
		l0.826,1.391c0.098,0.164,0.147,0.332,0.147,0.5C-382.225,209.78-382.673,210.229-383.225,210.229z"/>
</g>
<g>
	<path d="M-278.416,196.286c-7.18,0-13,5.82-13,13s5.82,13,13,13s13-5.82,13-13S-271.236,196.286-278.416,196.286z
		 M-278.416,220.286c-6.065,0-11-4.934-11-11c0-6.064,4.935-11,11-11s11,4.936,11,11
		C-267.416,215.353-272.351,220.286-278.416,220.286z"/>
	<path d="M-276.827,206.706c-0.467-0.299-1.018-0.477-1.613-0.477c-1.658,0-3,1.342-3,3c0,1.656,1.342,3,3,3
		c0.557,0,1.072-0.162,1.52-0.428v0.014l4.422-2.586l-4.328-2.529V206.706z M-277.942,210.081c-0.164,0.098-0.332,0.148-0.498,0.148
		c-0.552,0-1-0.449-1-1c0-0.553,0.448-1,1-1c0.188,0,0.368,0.053,0.535,0.16l1.355,0.865L-277.942,210.081z"/>
</g>
<g>
	<path d="M-175.365,196.286c-7.18,0-13,5.82-13,13s5.82,13,13,13s13-5.82,13-13S-168.186,196.286-175.365,196.286z
		 M-175.365,220.286c-6.065,0-11-4.934-11-11c0-6.064,4.935-11,11-11s11,4.936,11,11
		C-164.365,215.353-169.3,220.286-175.365,220.286z"/>
	<path d="M-175.365,206.229c-1.656,0-3,1.342-3,3c0,0.557,0.162,1.072,0.428,1.52h-0.014l2.586,4.422l2.529-4.328h-0.006
		c0.299-0.467,0.477-1.018,0.477-1.613C-172.365,207.571-173.707,206.229-175.365,206.229z M-174.526,209.765l-0.865,1.355
		l-0.826-1.393c-0.098-0.164-0.147-0.332-0.147-0.498c0-0.553,0.448-1,1-1s1,0.447,1,1
		C-174.365,209.417-174.419,209.597-174.526,209.765z"/>
</g>
<g>
	<path d="M-71.951,196.286c-7.179,0-13,5.82-13,13s5.821,13,13,13s13-5.82,13-13S-64.772,196.286-71.951,196.286z M-71.951,220.286
		c-6.065,0-11-4.934-11-11c0-6.064,4.935-11,11-11s11,4.936,11,11C-60.951,215.353-65.886,220.286-71.951,220.286z"/>
	<path d="M-71.992,206.229c-0.557,0-1.072,0.162-1.52,0.428v-0.014l-4.422,2.586l4.328,2.529v-0.006
		c0.467,0.299,1.018,0.477,1.613,0.477c1.658,0,3-1.342,3-3C-68.992,207.573-70.334,206.229-71.992,206.229z M-71.992,210.229
		c-0.188,0-0.368-0.055-0.535-0.162l-1.355-0.865l1.393-0.826c0.164-0.098,0.332-0.146,0.498-0.146c0.552,0,1,0.447,1,1
		C-70.992,209.78-71.44,210.229-71.992,210.229z"/>
</g>
<g>
	<rect x="-280.103" y="-0.442" width="2" height="10"/>
	<rect x="-265.403" y="5.644" transform="matrix(0.7071 0.7071 -0.7071 0.7071 -69.771 190.1384)" width="2" height="10.409"/>
	<rect x="-299.012" y="9.853" transform="matrix(0.7071 0.7071 -0.7071 0.7071 -78.3799 210.9318)" width="10.409" height="2"/>
	<polygon points="-285.771,28.812 -284.356,30.226 -280.103,25.972 -280.103,35.558 -278.103,35.558 -278.103,25.972 
		-273.85,30.226 -272.436,28.812 -279.103,22.144 	"/>
	<path d="M-266.096,25.557c0-0.002,0-0.004,0-0.006c0-7.18-5.82-12.999-13-12.999s-13,5.819-13,12.999c0,0.002,0,0.004,0,0.006h-13
		v2h18v-2h-3c0-0.002,0-0.004,0-0.006c0-6.064,4.935-10.999,11-10.999s11,4.935,11,10.999c0,0.002,0,0.004,0,0.006h-3v2h17.995v-2
		H-266.096z"/>
</g>
<g>
	<rect x="-176.357" y="-1.63" width="2" height="10"/>
	<rect x="-161.658" y="4.456" transform="matrix(0.7071 0.7071 -0.7071 0.7071 -40.2244 116.4317)" width="2" height="10.409"/>
	<rect x="-195.267" y="8.666" transform="matrix(0.7071 0.7071 -0.7071 0.7071 -48.8333 137.2251)" width="10.409" height="2"/>
	<polygon points="-174.357,32.917 -174.357,22.37 -176.357,22.37 -176.357,32.917 -180.611,28.663 -182.025,30.077 -175.357,36.745 
		-168.69,30.077 -170.104,28.663 	"/>
	<path d="M-162.351,24.369c0-0.002,0-0.004,0-0.006c0-7.18-5.82-12.999-13-12.999s-13,5.819-13,12.999c0,0.002,0,0.004,0,0.006h-13
		v2h22v-2h-7c0-0.002,0-0.004,0-0.006c0-6.064,4.935-10.999,11-10.999s11,4.935,11,10.999c0,0.002,0,0.004,0,0.006h-7v2h21.995v-2
		H-162.351z"/>
</g>
<g>
	<polygon points="28,32.383 28,18 26,18 26,32.383 21.746,28.129 20.332,29.543 27,36.211 33.667,29.543 32.253,28.129 	"/>
	<path d="M43.628,13.029C42.032,5.584,35.421,0,27.501,0c-6.423,0-11.977,3.678-14.702,9.035c-0.266-0.018-0.53-0.04-0.8-0.04
		C5.372,8.995,0,14.367,0,20.995c0,6.607,5.34,11.965,11.938,11.998v0.003H18v-2h-5.604l-0.447-0.003C6.463,30.966,2,26.48,2,20.995
		c0-5.514,4.485-10,9.999-10c0.175,0,0.347,0.014,0.52,0.025l0.148,0.01l1.316,0.088l0.598-1.176C17.073,5.043,22.024,2,27.501,2
		c6.79,0,12.75,4.814,14.172,11.448l0.317,1.482l1.514,0.095C47.707,15.287,51,18.788,51,22.996c0,4.397-3.565,7.977-7.957,8
		c-0.05-0.003-0.093-0.005-0.137-0.007l-2.043,0.007H36v2h6.863v-0.007c0.046,0.001,0.091,0.007,0.137,0.007c5.521,0,10-4.477,10-10
		C53,17.686,48.855,13.354,43.628,13.029z"/>
</g>
<g>
	<polygon points="-66.016,29.188 -64.602,27.773 -71.269,21.105 -77.937,27.773 -76.522,29.188 -72.269,24.934 -72.269,37.52 
		-70.269,37.52 -70.269,24.934 	"/>
	<path d="M-54.641,14.625C-56.236,7.18-62.848,1.596-70.768,1.596c-6.423,0-11.977,3.678-14.702,9.035
		c-0.266-0.018-0.53-0.04-0.8-0.04c-6.627,0-11.999,5.372-11.999,12c0,6.607,5.34,11.965,11.938,11.998v0.003h10.062v-2h-9.604
		l-0.447-0.003c-5.485-0.027-9.948-4.513-9.948-9.998c0-5.514,4.485-10,9.999-10c0.175,0,0.347,0.014,0.52,0.025l0.148,0.01
		l1.316,0.088l0.598-1.176c2.492-4.899,7.443-7.942,12.92-7.942c6.79,0,12.75,4.814,14.172,11.448l0.317,1.482l1.514,0.095
		c4.203,0.262,7.496,3.763,7.496,7.971c0,4.397-3.565,7.977-7.957,8c-0.05-0.003-0.093-0.005-0.137-0.007l-2.043,0.007h-8.863v2
		h10.863v-0.007c0.046,0.001,0.091,0.007,0.137,0.007c5.521,0,10-4.477,10-10C-45.269,19.281-49.413,14.95-54.641,14.625z"/>
</g>
<g>
	<path d="M147.849-174.891c-1.596-7.445-8.207-13.029-16.127-13.029c-6.423,0-11.977,3.678-14.702,9.035
		c-0.266-0.018-0.53-0.04-0.8-0.04c-6.627,0-11.999,5.372-11.999,12c0,6.607,5.34,11.965,11.938,11.998v0.003h2.062v-2h-1.604
		l-0.447-0.003c-5.485-0.027-9.948-4.513-9.948-9.998c0-5.514,4.485-10,9.999-10c0.175,0,0.347,0.014,0.52,0.025l0.148,0.01
		l1.316,0.088l0.598-1.176c2.492-4.899,7.443-7.942,12.92-7.942c6.79,0,12.75,4.814,14.172,11.448l0.317,1.482l1.514,0.095
		c4.203,0.262,7.496,3.763,7.496,7.971c0,4.397-3.565,7.977-7.957,8c-0.05-0.003-0.093-0.005-0.137-0.007l-2.043,0.007h-0.863v2
		h2.863v-0.007c0.046,0.001,0.091,0.007,0.137,0.007c5.521,0,10-4.477,10-10C157.221-170.234,153.076-174.565,147.849-174.891z"/>
	<polygon points="126.221,-155.902 126.221,-158.532 128.394,-157.31 129.079,-158.53 126.609,-159.92 129.079,-161.31 
		128.394,-162.53 126.221,-161.308 126.221,-163.902 124.221,-163.902 124.221,-161.264 121.97,-162.53 121.284,-161.31 
		123.754,-159.92 121.284,-158.53 121.97,-157.31 124.221,-158.576 124.221,-155.902 	"/>
	<polygon points="131.383,-151.548 129.21,-150.325 129.21,-152.92 127.21,-152.92 127.21,-150.281 124.959,-151.548 
		124.273,-150.327 126.743,-148.938 124.273,-147.548 124.959,-146.327 127.21,-147.594 127.21,-144.92 129.21,-144.92 
		129.21,-147.55 131.383,-146.327 132.068,-147.548 129.599,-148.938 132.068,-150.327 	"/>
	<polygon points="140.398,-158.53 138.226,-157.308 138.226,-159.902 136.226,-159.902 136.226,-157.264 133.975,-158.53 
		133.289,-157.31 135.759,-155.92 133.289,-154.53 133.975,-153.31 136.226,-154.576 136.226,-151.902 138.226,-151.902 
		138.226,-154.532 140.398,-153.31 141.084,-154.53 138.614,-155.92 141.084,-157.31 	"/>
</g>
<g>
	<rect x="223.36" y="-192.942" width="2" height="7.973"/>
	<rect x="204.36" y="-174.028" width="7.973" height="2"/>
	<rect x="209.033" y="-185.295" transform="matrix(0.7071 0.7071 -0.7071 0.7071 -67.924 -204.607)" width="7.974" height="2"/>
	<rect x="234.542" y="-188.277" transform="matrix(0.7071 0.7071 -0.7071 0.7071 -61.3248 -220.5309)" width="2" height="7.972"/>
	<path d="M253.872-167.152c-1.444-6.742-7.433-11.8-14.605-11.8c-2.185,0-4.258,0.471-6.127,1.314
		c-1.666-3.203-5.006-5.395-8.865-5.395c-5.522,0-10,4.477-10,9.999c0,2.46,0.899,4.702,2.373,6.442
		c-1.428,1.84-2.287,4.144-2.287,6.653c0,5.983,4.836,10.836,10.813,10.865v0.003h1.188v-2h-0.721l-0.457-0.003
		c-4.864-0.023-8.822-4.001-8.822-8.865c0-4.89,3.978-8.868,8.867-8.868c0.15,0,0.299,0.012,0.447,0.022l0.148,0.01l1.314,0.085
		l0.597-1.175c2.225-4.372,6.644-7.089,11.532-7.089c6.062,0,11.382,4.298,12.649,10.219l0.318,1.483l1.514,0.094
		c3.708,0.23,6.612,3.319,6.612,7.03c0,3.878-3.144,7.035-7.017,7.057c-0.042-0.003-0.079-0.005-0.117-0.005l-1.866,0.005v2h1.819
		v-0.006c0.042,0.001,0.082,0.006,0.124,0.006c5.001,0,9.057-4.054,9.057-9.057C262.36-162.936,258.606-166.857,253.872-167.152z
		 M225.952-170.77c-0.241-0.016-0.48-0.036-0.725-0.036c-2.766,0-5.282,1.041-7.2,2.742c-1.092-1.365-1.753-3.089-1.753-4.97
		c0-4.41,3.589-7.999,8-7.999c3.092,0,5.76,1.773,7.091,4.346C229.067-175.247,227.188-173.199,225.952-170.77z"/>
	<polygon points="233.353,-150.05 233.353,-152.68 235.525,-151.457 236.211,-152.678 233.741,-154.067 236.211,-155.457 
		235.525,-156.678 233.353,-155.455 233.353,-158.05 231.353,-158.05 231.353,-155.411 229.102,-156.678 228.416,-155.457 
		230.886,-154.067 228.416,-152.678 229.102,-151.457 231.353,-152.724 231.353,-150.05 	"/>
	<polygon points="238.515,-145.695 236.342,-144.473 236.342,-147.067 234.342,-147.067 234.342,-144.429 232.091,-145.695 
		231.405,-144.475 233.875,-143.085 231.405,-141.695 232.091,-140.475 234.342,-141.741 234.342,-139.067 236.342,-139.067 
		236.342,-141.697 238.515,-140.475 239.2,-141.695 236.73,-143.085 239.2,-144.475 	"/>
	<polygon points="247.53,-152.678 245.357,-151.455 245.357,-154.05 243.357,-154.05 243.357,-151.411 241.106,-152.678 
		240.421,-151.457 242.891,-150.067 240.421,-148.678 241.106,-147.457 243.357,-148.724 243.357,-146.05 245.357,-146.05 
		245.357,-148.68 247.53,-147.457 248.216,-148.678 245.746,-150.067 248.216,-151.457 	"/>
</g>
<g>
	<path d="M354.061-170.155c-1.444-6.742-7.433-11.8-14.605-11.8c-1.799,0-3.522,0.32-5.118,0.904
		c-0.949-5.108-5.404-8.98-10.788-8.98c-0.413,0-0.819,0.027-1.222,0.071c0.744,1.112,1.179,2.448,1.179,3.886c0,3.865-3.134,7-7,7
		c-1.438,0-2.773-0.435-3.886-1.179c-0.044,0.401-0.071,0.809-0.071,1.222c0,3.713,1.845,6.987,4.661,8.979
		c-1.653,1.907-2.661,4.389-2.661,7.111c0,5.983,4.836,10.836,10.813,10.865v0.003h1.188v-2h-0.721l-0.457-0.003
		c-4.864-0.023-8.822-4.001-8.822-8.865c0-4.89,3.978-8.868,8.867-8.868c0.15,0,0.299,0.012,0.447,0.022l0.148,0.01l1.314,0.085
		l0.597-1.175c2.225-4.372,6.644-7.089,11.532-7.089c6.062,0,11.382,4.298,12.649,10.219l0.318,1.483l1.514,0.094
		c3.708,0.23,6.612,3.319,6.612,7.03c0,3.878-3.144,7.035-7.017,7.057c-0.042-0.003-0.079-0.005-0.117-0.005l-1.866,0.005v2h1.819
		v-0.006c0.042,0.001,0.082,0.006,0.124,0.006c5.001,0,9.057-4.054,9.057-9.057C362.549-165.938,358.795-169.86,354.061-170.155z
		 M326.141-173.772c-0.241-0.016-0.48-0.036-0.725-0.036c-2.537,0-4.865,0.877-6.715,2.334c-2.012-1.294-3.486-3.354-3.976-5.776
		c0.582,0.117,1.178,0.177,1.78,0.177c4.963,0,9-4.037,9-9c0-0.603-0.06-1.198-0.177-1.78c3.733,0.753,6.629,3.824,7.134,7.64
		C329.75-178.771,327.535-176.516,326.141-173.772z"/>
	<polygon points="333.586,-153.053 333.586,-155.683 335.759,-154.46 336.444,-155.681 333.975,-157.07 336.444,-158.46 
		335.759,-159.681 333.586,-158.458 333.586,-161.053 331.586,-161.053 331.586,-158.414 329.335,-159.681 328.649,-158.46 
		331.119,-157.07 328.649,-155.681 329.335,-154.46 331.586,-155.727 331.586,-153.053 	"/>
	<polygon points="338.748,-148.698 336.575,-147.476 336.575,-150.07 334.575,-150.07 334.575,-147.432 332.324,-148.698 
		331.639,-147.478 334.108,-146.088 331.639,-144.698 332.324,-143.478 334.575,-144.744 334.575,-142.07 336.575,-142.07 
		336.575,-144.7 338.748,-143.478 339.434,-144.698 336.964,-146.088 339.434,-147.478 	"/>
	<polygon points="347.764,-155.681 345.591,-154.458 345.591,-157.053 343.591,-157.053 343.591,-154.414 341.34,-155.681 
		340.654,-154.46 343.124,-153.07 340.654,-151.681 341.34,-150.46 343.591,-151.727 343.591,-149.053 345.591,-149.053 
		345.591,-151.683 347.764,-150.46 348.449,-151.681 345.979,-153.07 348.449,-154.46 	"/>
</g>
<rect x="-262.298" y="-737.905" fill="none" width="472.974" height="180.918"/>
<text transform="matrix(1 0 0 1 -82.6606 -666.5063)"><tspan x="0" y="0" font-family="'HelveticaNeueLTStd-Th'" font-size="100" letter-spacing="2">60</tspan><tspan x="-99.268" y="60" font-family="'HelveticaNeueLTStd-Lt'" font-size="48" letter-spacing="1">Weather Icons</tspan><tspan x="-3.726" y="104" font-family="'HelveticaNeueLTStd-Lt'" font-size="24">IOS 7 Style</tspan></text>
</svg>
