<?xml version="1.0" encoding="utf-8"?>
<!-- Generator: Adobe Illustrator 16.0.0, SVG Export Plug-In . SVG Version: 6.00 Build 0)  -->
<!DOCTYPE svg PUBLIC "-//W3C//DTD SVG 1.1//EN" "http://www.w3.org/Graphics/SVG/1.1/DTD/svg11.dtd">
<svg version="1.1" id="Layer_1" xmlns="http://www.w3.org/2000/svg" xmlns:xlink="http://www.w3.org/1999/xlink" x="0px" y="0px"
	 width="58px" height="54.378px" viewBox="0 0 58 54.378" enable-background="new 0 0 58 54.378" xml:space="preserve">
<path d="M547.45,383.839l-1.803,15.077l-0.268,2.237h2.254h6.896l-14.693,18.759l1.789-14.52l0.277-2.245h-2.262h-6.957
	L547.45,383.839 M550.305,376.814l-21.667,28.333h11.004l-2.671,21.667l21.667-27.661h-11.004L550.305,376.814L550.305,376.814z"/>
<path d="M134.415-78.422c6.79,0,12.749,4.814,14.171,11.448l0.318,1.483l1.514,0.094c4.203,0.262,7.496,3.763,7.496,7.971
	c0,4.396-3.565,7.977-7.957,8c-0.046-0.003-0.091-0.006-0.137-0.007l-2.043-0.036v0.043H119.44l-0.578-0.003
	c-5.485-0.027-9.948-4.513-9.948-9.998c0-5.514,4.485-10,9.999-10c0.175,0,0.347,0.014,0.519,0.025l0.149,0.011l1.316,0.087
	l0.598-1.176C123.988-75.379,128.938-78.422,134.415-78.422 M134.415-80.422c-6.423,0-11.977,3.678-14.702,9.035
	c-0.266-0.018-0.53-0.04-0.8-0.04c-6.627,0-11.999,5.372-11.999,12c0,6.607,5.34,11.965,11.938,11.998v0.003h30.925v-0.007
	c0.046,0.001,0.091,0.007,0.137,0.007c5.521,0,10-4.477,10-10c0-5.311-4.145-9.642-9.372-9.967
	C148.946-74.838,142.335-80.422,134.415-80.422L134.415-80.422z"/>
<g>
	<path d="M257.366-60.011c-1.444-6.742-7.433-11.8-14.605-11.8c-2.185,0-4.258,0.47-6.127,1.313
		c-1.666-3.202-5.006-5.394-8.865-5.394c-5.522,0-10,4.477-10,9.999c0,2.46,0.898,4.702,2.373,6.442
		c-1.428,1.84-2.287,4.144-2.287,6.653c0,5.983,4.836,10.836,10.813,10.865v0.003h28.007v-0.006
		c0.042,0.001,0.082,0.006,0.124,0.006c5.001,0,9.057-4.054,9.057-9.057C265.854-55.794,262.101-59.716,257.366-60.011z
		 M227.769-73.891c3.092,0,5.76,1.773,7.092,4.345c-2.299,1.44-4.178,3.488-5.414,5.918c-0.241-0.016-0.48-0.036-0.725-0.036
		c-2.766,0-5.281,1.041-7.2,2.743c-1.092-1.366-1.753-3.09-1.753-4.971C219.769-70.302,223.357-73.891,227.769-73.891z
		 M256.838-43.928c-0.038-0.003-0.077-0.004-0.117-0.005l-2.047-0.042v0.047h-25.403l-0.594-0.003
		c-4.864-0.023-8.822-4.001-8.822-8.865c0-4.89,3.978-8.868,8.867-8.868c0.15,0,0.299,0.012,0.447,0.021l0.148,0.011l1.314,0.085
		l0.598-1.174c2.224-4.373,6.643-7.09,11.531-7.09c6.062,0,11.381,4.298,12.65,10.219l0.317,1.482l1.514,0.095
		c3.708,0.231,6.612,3.319,6.612,7.03C263.854-47.106,260.711-43.95,256.838-43.928z"/>
	<rect x="226.774" y="-85.921" width="2" height="7.973"/>
	<rect x="207.802" y="-66.935" width="7.973" height="2"/>
	<rect x="212.528" y="-78.153" transform="matrix(0.7071 0.7071 -0.7071 0.7071 8.86 -175.6967)" width="7.974" height="2"/>
	<rect x="238.036" y="-81.135" transform="matrix(0.7071 0.7071 -0.7071 0.7071 15.4592 -191.6206)" width="2" height="7.972"/>
</g>
<path d="M353.109-64.038c-1.444-6.742-7.433-11.8-14.605-11.8c-1.799,0-3.521,0.32-5.118,0.904c-0.949-5.108-5.404-8.98-10.788-8.98
	c-0.413,0-0.819,0.027-1.222,0.071c0.744,1.112,1.179,2.448,1.179,3.886c0,3.865-3.134,7-7,7c-1.438,0-2.773-0.435-3.886-1.179
	c-0.044,0.401-0.071,0.809-0.071,1.222c0,3.712,1.845,6.987,4.661,8.979c-1.653,1.907-2.661,4.389-2.661,7.111
	c0,5.983,4.836,10.836,10.813,10.865v0.003h28.007v-0.006c0.042,0.001,0.082,0.006,0.124,0.006c5.001,0,9.057-4.054,9.057-9.057
	C361.598-59.821,357.844-63.743,353.109-64.038z M313.774-71.134c0.582,0.117,1.178,0.177,1.78,0.177c4.963,0,9-4.037,9-9
	c0-0.603-0.06-1.198-0.177-1.78c3.733,0.753,6.629,3.824,7.134,7.64c-2.713,1.444-4.928,3.699-6.322,6.442
	c-0.241-0.016-0.48-0.036-0.725-0.036c-2.537,0-4.865,0.876-6.715,2.334C315.738-66.651,314.264-68.711,313.774-71.134z
	 M352.581-47.955c-0.038-0.003-0.077-0.004-0.117-0.005l-2.047-0.042v0.047h-25.403l-0.594-0.003
	c-4.864-0.023-8.822-4.001-8.822-8.865c0-4.89,3.978-8.868,8.867-8.868c0.15,0,0.299,0.012,0.447,0.021l0.148,0.011l1.314,0.085
	l0.598-1.174c2.224-4.373,6.643-7.09,11.531-7.09c6.062,0,11.381,4.298,12.65,10.219l0.317,1.482l1.514,0.095
	c3.708,0.231,6.612,3.319,6.612,7.03C359.598-51.134,356.454-47.978,352.581-47.955z"/>
<g>
	<rect x="437.755" y="-55.415" width="2" height="7"/>
	<rect x="445.755" y="-59.415" width="2" height="7"/>
	<rect x="429.755" y="-59.415" width="2" height="7"/>
	<rect x="437.755" y="-45.415" width="2" height="7"/>
	<rect x="445.755" y="-49.415" width="2" height="7"/>
	<rect x="429.755" y="-49.415" width="2" height="7"/>
	<path d="M456.383-72.403c-1.596-7.445-8.207-13.029-16.127-13.029c-6.423,0-11.977,3.678-14.702,9.035
		c-0.266-0.018-0.53-0.04-0.8-0.04c-6.627,0-11.999,5.372-11.999,12c0,6.607,5.34,11.965,11.938,11.998v0.003h2.062v-2h-1.604
		l-0.447-0.003c-5.485-0.027-9.948-4.513-9.948-9.998c0-5.514,4.485-10,9.999-10c0.175,0,0.347,0.014,0.52,0.025l0.148,0.01
		l1.316,0.088l0.598-1.176c2.492-4.899,7.443-7.942,12.92-7.942c6.79,0,12.75,4.814,14.172,11.448l0.317,1.482l1.514,0.095
		c4.203,0.262,7.496,3.763,7.496,7.971c0,4.397-3.565,7.977-7.957,8c-0.05-0.003-0.093-0.005-0.137-0.007l-2.043,0.007h-2.863v2
		h4.863v-0.007c0.046,0.001,0.091,0.007,0.137,0.007c5.521,0,10-4.477,10-10C465.755-67.747,461.61-72.078,456.383-72.403z"/>
</g>
<g>
	<path d="M253.956,16.954c-1.596-7.445-8.207-13.029-16.127-13.029c-6.423,0-11.977,3.678-14.702,9.035
		c-0.266-0.018-0.53-0.04-0.8-0.04c-6.627,0-11.999,5.372-11.999,12c0,6.607,5.34,11.965,11.938,11.998v0.003h2.062v-2h-1.604
		l-0.447-0.003c-5.485-0.027-9.948-4.513-9.948-9.998c0-5.514,4.485-10,9.999-10c0.175,0,0.347,0.014,0.52,0.025l0.148,0.01
		l1.316,0.088l0.598-1.176c2.492-4.899,7.443-7.942,12.92-7.942c6.79,0,12.75,4.814,14.172,11.448l0.317,1.482l1.514,0.095
		c4.203,0.262,7.496,3.763,7.496,7.971c0,4.397-3.565,7.977-7.957,8c-0.05-0.003-0.093-0.005-0.137-0.007l-2.043,0.007h-2.863v2
		h4.863v-0.007c0.046,0.001,0.091,0.007,0.137,0.007c5.521,0,10-4.477,10-10C263.328,21.61,259.184,17.279,253.956,16.954z"/>
	<polygon points="235.328,43.949 235.328,45.89 235.328,51.949 237.328,51.949 237.328,45.89 237.328,43.949 237.328,31.949 
		235.328,31.949 	"/>
	<polygon points="243.328,39.949 243.328,41.702 243.328,47.949 245.328,47.949 245.328,41.702 245.328,39.949 245.328,27.949 
		243.328,27.949 	"/>
	<polygon points="227.328,39.949 227.328,42.015 227.328,47.949 229.328,47.949 229.328,42.015 229.328,39.949 229.328,27.949 
		227.328,27.949 	"/>
</g>
<g>
	<polygon points="549.605,40.86 542.723,31.03 541.085,32.178 547.968,42.008 549.08,43.597 552.556,48.561 554.194,47.414 
		550.719,42.449 	"/>
	<polygon points="557.607,40.858 550.723,31.03 549.085,32.179 555.971,42.007 556.976,43.442 560.56,48.558 562.198,47.411 
		558.614,42.295 	"/>
	<polygon points="541.605,40.86 534.723,31.03 533.085,32.179 539.968,42.008 541.152,43.7 544.557,48.562 546.194,47.414 
		542.791,42.553 	"/>
	<path d="M560.713,17.221c-1.596-7.445-8.207-13.029-16.127-13.029c-6.423,0-11.977,3.678-14.702,9.035
		c-0.266-0.018-0.53-0.04-0.8-0.04c-6.627,0-11.999,5.372-11.999,12c0,6.607,5.34,11.965,11.938,11.998v0.003h2.062v-2h-1.604
		l-0.447-0.003c-5.485-0.027-9.948-4.513-9.948-9.998c0-5.514,4.485-10,9.999-10c0.175,0,0.347,0.014,0.52,0.025l0.148,0.01
		l1.316,0.088l0.598-1.176c2.492-4.899,7.443-7.942,12.92-7.942c6.79,0,12.75,4.814,14.172,11.448l0.317,1.482l1.514,0.095
		c4.203,0.262,7.496,3.763,7.496,7.971c0,4.397-3.565,7.977-7.957,8c-0.05-0.003-0.093-0.005-0.137-0.007l-1.043,0.007h0.137v2
		h0.863v-0.007c0.046,0.001,0.091,0.007,0.137,0.007c5.521,0,10-4.477,10-10C570.085,21.877,565.94,17.546,560.713,17.221z"/>
</g>
<g>
	<rect x="532.411" y="-91.861" width="2" height="7.973"/>
	<rect x="513.411" y="-72.947" width="7.973" height="2"/>
	<rect x="518.084" y="-84.214" transform="matrix(0.7071 0.7071 -0.7071 0.7071 94.07 -393.5329)" width="7.974" height="2"/>
	<rect x="543.593" y="-87.196" transform="matrix(0.7071 0.7071 -0.7071 0.7071 100.6692 -409.4569)" width="2" height="7.972"/>
	<rect x="546.411" y="-50.988" width="2" height="7"/>
	<rect x="554.411" y="-54.988" width="2" height="7"/>
	<rect x="538.411" y="-54.988" width="2" height="7"/>
	<rect x="546.411" y="-40.988" width="2" height="7"/>
	<rect x="554.411" y="-44.988" width="2" height="7"/>
	<rect x="538.411" y="-44.988" width="2" height="7"/>
	<path d="M562.923-66.071c-1.444-6.742-7.433-11.8-14.605-11.8c-2.185,0-4.258,0.47-6.126,1.313
		c-1.667-3.202-5.007-5.394-8.866-5.394c-5.522,0-10,4.477-10,9.999c0,2.46,0.899,4.702,2.373,6.442
		c-1.429,1.84-2.287,4.144-2.287,6.653c0,5.983,4.836,10.836,10.813,10.865v0.003h1.188v-2h-0.721l-0.457-0.003
		c-4.864-0.023-8.822-4.001-8.822-8.865c0-4.89,3.978-8.868,8.867-8.868c0.15,0,0.299,0.012,0.447,0.022l0.148,0.01l1.314,0.085
		l0.597-1.175c2.225-4.372,6.644-7.089,11.532-7.089c6.062,0,11.382,4.298,12.649,10.219l0.318,1.483l1.514,0.094
		c3.708,0.23,6.612,3.319,6.612,7.03c0,3.878-3.144,7.035-7.017,7.057c-0.042-0.003-0.079-0.005-0.117-0.005l-2.047,0.005h-0.819v2
		h2.819v-0.006c0.042,0.001,0.082,0.006,0.124,0.006c5.001,0,9.057-4.054,9.057-9.057C571.411-61.854,567.657-65.776,562.923-66.071
		z M535.003-69.688c-0.241-0.016-0.48-0.036-0.725-0.036c-2.766,0-5.282,1.041-7.2,2.743c-1.092-1.366-1.753-3.09-1.753-4.971
		c0-4.41,3.589-7.999,8-7.999c3.091,0,5.76,1.773,7.091,4.345C538.118-74.166,536.238-72.118,535.003-69.688z"/>
</g>
<g>
	<rect x="646.828" y="-52.436" width="2" height="7"/>
	<rect x="654.828" y="-56.436" width="2" height="7"/>
	<rect x="638.828" y="-56.436" width="2" height="7"/>
	<rect x="646.828" y="-42.436" width="2" height="7"/>
	<rect x="654.828" y="-46.436" width="2" height="7"/>
	<rect x="638.828" y="-46.436" width="2" height="7"/>
	<path d="M663.34-67.519c-1.444-6.742-7.433-11.8-14.605-11.8c-1.799,0-3.522,0.32-5.118,0.904c-0.949-5.108-5.404-8.98-10.788-8.98
		c-0.413,0-0.819,0.027-1.222,0.071c0.744,1.112,1.179,2.448,1.179,3.886c0,3.865-3.134,7-7,7c-1.438,0-2.773-0.435-3.886-1.179
		c-0.044,0.401-0.071,0.809-0.071,1.222c0,3.712,1.845,6.987,4.661,8.979c-1.653,1.907-2.661,4.389-2.661,7.111
		c0,5.983,4.836,10.836,10.813,10.865v0.003h1.188v-2h-0.721l-0.457-0.003c-4.864-0.023-8.822-4.001-8.822-8.865
		c0-4.89,3.978-8.868,8.867-8.868c0.15,0,0.299,0.012,0.447,0.022l0.148,0.01l1.314,0.085l0.597-1.175
		c2.225-4.372,6.644-7.089,11.532-7.089c6.062,0,11.382,4.298,12.649,10.219l0.318,1.483l1.514,0.094
		c3.708,0.23,6.612,3.319,6.612,7.03c0,3.878-3.144,7.035-7.017,7.057c-0.042-0.003-0.079-0.005-0.117-0.005l-2.047,0.005h-0.819v2
		h2.819v-0.006c0.042,0.001,0.082,0.006,0.124,0.006c5.001,0,9.057-4.054,9.057-9.057C671.828-63.302,668.074-67.224,663.34-67.519z
		 M635.42-71.136c-0.241-0.016-0.48-0.036-0.725-0.036c-2.537,0-4.865,0.876-6.715,2.334c-2.012-1.294-3.487-3.354-3.976-5.776
		c0.582,0.117,1.178,0.177,1.78,0.177c4.963,0,9-4.037,9-9c0-0.603-0.06-1.198-0.177-1.78c3.733,0.753,6.629,3.824,7.133,7.64
		C639.03-76.134,636.815-73.879,635.42-71.136z"/>
</g>
<g>
	<polygon points="339.598,48.388 339.598,50.328 339.598,56.388 341.598,56.388 341.598,50.328 341.598,48.388 341.598,36.388 
		339.598,36.388 	"/>
	<polygon points="347.598,44.388 347.598,46.141 347.598,52.388 349.598,52.388 349.598,46.141 349.598,44.388 349.598,32.388 
		347.598,32.388 	"/>
	<polygon points="331.598,44.388 331.598,46.453 331.598,52.388 333.598,52.388 333.598,46.453 333.598,44.388 333.598,32.388 
		331.598,32.388 	"/>
	<rect x="325.598" y="-2.515" width="2" height="7.973"/>
	<rect x="306.598" y="16.399" width="7.973" height="2"/>
	<rect x="311.271" y="5.133" transform="matrix(0.7071 0.7071 -0.7071 0.7071 96.6734 -221.1247)" width="7.974" height="2"/>
	<rect x="336.779" y="2.151" transform="matrix(0.7071 0.7071 -0.7071 0.7071 103.2726 -237.0486)" width="2" height="7.972"/>
	<path d="M356.109,23.275c-1.444-6.742-7.433-11.8-14.605-11.8c-2.185,0-4.258,0.47-6.127,1.313
		c-1.666-3.202-5.006-5.394-8.865-5.394c-5.522,0-10,4.477-10,9.999c0,2.46,0.898,4.702,2.373,6.442
		c-1.428,1.84-2.287,4.144-2.287,6.653c0,5.983,4.836,10.836,10.813,10.865v0.003h1.188v-2h-0.721l-0.457-0.003
		c-4.864-0.023-8.822-4.001-8.822-8.865c0-4.89,3.978-8.868,8.867-8.868c0.15,0,0.299,0.012,0.447,0.022l0.148,0.01l1.314,0.085
		l0.597-1.175c2.225-4.372,6.644-7.089,11.532-7.089c6.062,0,11.382,4.298,12.649,10.219l0.318,1.483l1.514,0.094
		c3.708,0.23,6.612,3.319,6.612,7.03c0,3.878-3.144,7.035-7.017,7.057c-0.042-0.003-0.079-0.005-0.117-0.005l-2.047,0.005h-0.819v2
		h2.819v-0.006c0.042,0.001,0.082,0.006,0.124,0.006c5.001,0,9.057-4.054,9.057-9.057C364.598,27.492,360.844,23.57,356.109,23.275z
		 M328.189,19.658c-0.241-0.016-0.48-0.036-0.725-0.036c-2.766,0-5.281,1.042-7.2,2.743c-1.092-1.367-1.753-3.09-1.753-4.971
		c0-4.41,3.589-7.999,8-7.999c3.092,0,5.76,1.773,7.092,4.345C331.305,15.18,329.426,17.229,328.189,19.658z"/>
</g>
<g>
	<polygon points="439.995,45.871 439.995,47.812 439.995,53.871 441.995,53.871 441.995,47.812 441.995,45.871 441.995,33.871 
		439.995,33.871 	"/>
	<polygon points="447.995,41.871 447.995,43.624 447.995,49.871 449.995,49.871 449.995,43.624 449.995,41.871 449.995,29.871 
		447.995,29.871 	"/>
	<polygon points="431.995,41.871 431.995,43.937 431.995,49.871 433.995,49.871 433.995,43.937 433.995,41.871 433.995,29.871 
		431.995,29.871 	"/>
	<path d="M456.507,20.759c-1.444-6.742-7.433-11.8-14.605-11.8c-1.799,0-3.521,0.32-5.118,0.904
		c-0.949-5.108-5.404-8.98-10.788-8.98c-0.413,0-0.819,0.027-1.222,0.071c0.744,1.112,1.179,2.448,1.179,3.886c0,3.865-3.134,7-7,7
		c-1.438,0-2.773-0.435-3.886-1.179c-0.044,0.401-0.071,0.809-0.071,1.222c0,3.712,1.845,6.987,4.661,8.979
		c-1.653,1.907-2.661,4.389-2.661,7.111c0,5.983,4.836,10.836,10.813,10.865v0.003h1.188v-2h-0.721l-0.457-0.003
		c-4.864-0.023-8.822-4.001-8.822-8.865c0-4.89,3.978-8.868,8.867-8.868c0.15,0,0.299,0.012,0.447,0.022l0.148,0.01l1.314,0.085
		l0.597-1.175c2.225-4.372,6.644-7.089,11.532-7.089c6.062,0,11.382,4.298,12.649,10.219l0.318,1.483l1.514,0.094
		c3.708,0.23,6.612,3.319,6.612,7.03c0,3.878-3.144,7.035-7.017,7.057c-0.042-0.003-0.079-0.005-0.117-0.005l-2.047,0.005h-0.819v2
		h2.819v-0.006c0.042,0.001,0.082,0.006,0.124,0.006c5.001,0,9.057-4.054,9.057-9.057C464.995,24.976,461.241,21.054,456.507,20.759
		z M428.587,17.142c-0.241-0.016-0.48-0.036-0.725-0.036c-2.537,0-4.865,0.876-6.715,2.334c-2.012-1.294-3.486-3.354-3.976-5.776
		c0.582,0.117,1.178,0.177,1.78,0.177c4.963,0,9-4.037,9-9c0-0.603-0.06-1.198-0.177-1.78c3.733,0.753,6.629,3.824,7.134,7.641
		C432.196,12.144,429.981,14.399,428.587,17.142z"/>
</g>
<g>
	<polygon points="657.03,46.815 650.147,36.985 648.51,38.133 655.393,47.963 656.505,49.552 659.98,54.516 661.619,53.369 
		658.144,48.404 	"/>
	<polygon points="665.032,46.813 658.147,36.985 656.51,38.134 663.396,47.962 664.4,49.397 667.984,54.513 669.623,53.366 
		666.039,48.25 	"/>
	<polygon points="649.03,46.815 642.147,36.985 640.51,38.134 647.393,47.963 648.577,49.655 651.981,54.517 653.619,53.369 
		650.216,48.508 	"/>
	<rect x="636.51" y="-0.733" width="2" height="7.973"/>
	<rect x="617.51" y="18.181" width="7.973" height="2"/>
	<rect x="622.183" y="6.914" transform="matrix(0.7071 0.7071 -0.7071 0.7071 188.997 -440.451)" width="7.974" height="2"/>
	<rect x="647.692" y="3.932" transform="matrix(0.7071 0.7071 -0.7071 0.7071 195.5962 -456.375)" width="2" height="7.972"/>
	<path d="M667.021,25.057c-1.444-6.742-7.433-11.8-14.605-11.8c-2.185,0-4.258,0.47-6.126,1.313
		c-1.667-3.202-5.007-5.394-8.866-5.394c-5.522,0-10,4.477-10,9.999c0,2.46,0.899,4.702,2.373,6.442
		c-1.429,1.84-2.287,4.144-2.287,6.653c0,5.983,4.836,10.836,10.813,10.865v0.003h1.188v-2h-0.721l-0.457-0.003
		c-4.864-0.023-8.822-4.001-8.822-8.865c0-4.89,3.978-8.868,8.867-8.868c0.15,0,0.299,0.012,0.447,0.022l0.148,0.01l1.314,0.085
		l0.597-1.175c2.225-4.372,6.644-7.089,11.532-7.089c6.062,0,11.382,4.298,12.649,10.219l0.318,1.483l1.514,0.094
		c3.708,0.23,6.612,3.319,6.612,7.03c0,3.878-3.144,7.035-7.017,7.057c-0.042-0.003-0.079-0.005-0.117-0.005l-0.047,0.005h-0.819v2
		h0.819v-0.006c0.042,0.001,0.082,0.006,0.124,0.006c5.001,0,9.057-4.054,9.057-9.057C675.51,29.273,671.756,25.352,667.021,25.057z
		 M639.102,21.439c-0.241-0.016-0.48-0.036-0.725-0.036c-2.766,0-5.282,1.042-7.2,2.743c-1.092-1.367-1.753-3.09-1.753-4.971
		c0-4.41,3.589-7.999,8-7.999c3.091,0,5.76,1.773,7.091,4.345C642.217,16.961,640.337,19.01,639.102,21.439z"/>
</g>
<g>
	<polygon points="-66.4,143.301 -73.283,133.471 -74.921,134.618 -68.038,144.448 -66.926,146.037 -63.45,151.001 -61.812,149.854 
		-65.287,144.89 	"/>
	<polygon points="-58.398,143.299 -65.283,133.471 -66.921,134.619 -60.035,144.447 -59.03,145.883 -55.446,150.998 
		-53.808,149.852 -57.392,144.735 	"/>
	<polygon points="-74.4,143.301 -81.283,133.471 -82.921,134.619 -76.038,144.448 -74.854,146.141 -71.449,151.002 -69.812,149.854 
		-73.215,144.993 	"/>
	<path d="M-56.409,121.542c-1.444-6.742-7.433-11.8-14.605-11.8c-1.799,0-3.522,0.32-5.118,0.904
		c-0.949-5.108-5.404-8.98-10.788-8.98c-0.413,0-0.819,0.027-1.222,0.071c0.744,1.112,1.179,2.448,1.179,3.886c0,3.865-3.134,7-7,7
		c-1.438,0-2.773-0.435-3.886-1.179c-0.044,0.401-0.071,0.809-0.071,1.222c0,3.712,1.845,6.987,4.661,8.979
		c-1.653,1.907-2.661,4.389-2.661,7.111c0,5.983,4.836,10.836,10.813,10.865v0.003h1.188v-2h-0.721l-0.457-0.003
		c-4.864-0.023-8.822-4.001-8.822-8.865c0-4.89,3.978-8.868,8.867-8.868c0.15,0,0.299,0.012,0.447,0.022l0.148,0.01l1.314,0.085
		l0.597-1.175c2.225-4.372,6.644-7.089,11.532-7.089c6.062,0,11.382,4.298,12.649,10.219l0.318,1.483l1.514,0.094
		c3.708,0.23,6.612,3.319,6.612,7.03c0,3.878-3.144,7.035-7.017,7.057c-0.042-0.003-0.079-0.005-0.117-0.005l-0.047,0.005h-0.819v2
		h0.819v-0.006c0.042,0.001,0.082,0.006,0.124,0.006c5.001,0,9.057-4.054,9.057-9.057
		C-47.921,125.759-51.675,121.837-56.409,121.542z M-84.329,117.925c-0.241-0.016-0.48-0.036-0.725-0.036
		c-2.537,0-4.865,0.876-6.715,2.334c-2.012-1.294-3.487-3.354-3.976-5.776c0.582,0.117,1.178,0.177,1.78,0.177c4.963,0,9-4.037,9-9
		c0-0.603-0.06-1.198-0.177-1.78c3.733,0.753,6.629,3.824,7.133,7.641C-80.719,112.927-82.934,115.183-84.329,117.925z"/>
</g>
<g>
	<rect x="-73.921" y="39.454" width="2" height="4"/>
	<rect x="-65.921" y="35.433" width="2" height="4.021"/>
	<rect x="-81.921" y="35.433" width="2" height="4.021"/>
	<path d="M-55.293,19.466C-56.889,12.021-63.5,6.437-71.42,6.437c-6.423,0-11.977,3.678-14.702,9.035
		c-0.266-0.018-0.53-0.04-0.8-0.04c-6.627,0-11.999,5.372-11.999,12c0,6.607,5.34,11.965,11.938,11.998v0.003h2.062v-2h-1.604
		l-0.447-0.003c-5.485-0.027-9.948-4.513-9.948-9.998c0-5.514,4.485-10,9.999-10c0.175,0,0.347,0.014,0.52,0.025l0.148,0.01
		l1.316,0.088l0.598-1.176c2.492-4.899,7.443-7.942,12.92-7.942c6.79,0,12.75,4.814,14.172,11.448l0.317,1.482l1.514,0.095
		c4.203,0.262,7.496,3.763,7.496,7.971c0,4.397-3.565,7.977-7.957,8c-0.05-0.003-0.093-0.005-0.137-0.007l-2.043,0.007h-2.863v2
		h4.863v-0.007c0.046,0.001,0.091,0.007,0.137,0.007c5.521,0,10-4.477,10-10C-45.921,24.122-50.065,19.791-55.293,19.466z"/>
	<circle cx="-64.921" cy="44.475" r="1.5"/>
	<circle cx="-72.921" cy="48.443" r="1.5"/>
	<circle cx="-80.921" cy="44.433" r="1.5"/>
</g>
<g>
	<rect x="19" width="2" height="7.973"/>
	<rect y="18.914" width="7.973" height="2"/>
	<rect x="4.673" y="7.648" transform="matrix(0.7071 0.7071 -0.7071 0.7071 8.6512 -3.5909)" width="7.974" height="2"/>
	<rect x="30.182" y="4.666" transform="matrix(0.7071 0.7071 -0.7071 0.7071 15.2503 -19.5148)" width="2" height="7.972"/>
	<path d="M49.512,25.79c-1.444-6.742-7.433-11.8-14.605-11.8c-2.185,0-4.258,0.47-6.126,1.313c-1.667-3.202-5.007-5.394-8.866-5.394
		c-5.522,0-10,4.477-10,9.999c0,2.46,0.899,4.702,2.373,6.442C10.858,28.191,10,30.495,10,33.005
		c0,5.983,4.836,10.836,10.813,10.865v0.003H22v-2h-0.721l-0.457-0.003C15.958,41.847,12,37.869,12,33.005
		c0-4.89,3.978-8.868,8.867-8.868c0.15,0,0.299,0.012,0.447,0.022l0.148,0.01l1.314,0.085l0.597-1.175
		c2.225-4.372,6.644-7.089,11.532-7.089c6.062,0,11.382,4.298,12.649,10.219l0.318,1.483l1.514,0.094
		c3.708,0.23,6.612,3.319,6.612,7.03c0,3.878-3.144,7.035-7.017,7.057c-0.042-0.003-0.079-0.005-0.117-0.005l-2.047,0.005H46v2
		h2.819v-0.006c0.042,0.001,0.082,0.006,0.124,0.006c5.001,0,9.057-4.054,9.057-9.057C58,30.007,54.246,26.085,49.512,25.79z
		 M21.592,22.173c-0.241-0.016-0.48-0.036-0.725-0.036c-2.766,0-5.282,1.042-7.2,2.743c-1.092-1.367-1.753-3.09-1.753-4.971
		c0-4.41,3.589-7.999,8-7.999c3.091,0,5.76,1.773,7.091,4.345C24.707,17.694,22.827,19.743,21.592,22.173z"/>
	<rect x="33" y="43.889" width="2" height="4"/>
	<rect x="41" y="39.867" width="2" height="4.021"/>
	<rect x="25" y="39.867" width="2" height="4.021"/>
	<circle cx="42" cy="48.909" r="1.5"/>
	<circle cx="34" cy="52.878" r="1.5"/>
	<circle cx="26" cy="48.867" r="1.5"/>
</g>
<g>
	<path d="M150.438,24.833c-1.444-6.742-7.433-11.8-14.605-11.8c-1.799,0-3.522,0.32-5.118,0.904
		c-0.949-5.108-5.404-8.98-10.788-8.98c-0.413,0-0.819,0.027-1.222,0.071c0.744,1.112,1.179,2.448,1.179,3.886c0,3.865-3.134,7-7,7
		c-1.438,0-2.773-0.435-3.886-1.179c-0.044,0.401-0.071,0.809-0.071,1.222c0,3.712,1.845,6.987,4.661,8.979
		c-1.653,1.907-2.661,4.389-2.661,7.111c0,5.983,4.836,10.836,10.813,10.865v0.003h1.188v-2h-0.721l-0.457-0.003
		c-4.864-0.023-8.822-4.001-8.822-8.865c0-4.89,3.978-8.868,8.867-8.868c0.15,0,0.299,0.012,0.447,0.022l0.148,0.01l1.314,0.085
		l0.597-1.175c2.225-4.372,6.644-7.089,11.532-7.089c6.062,0,11.382,4.298,12.649,10.219l0.318,1.483l1.514,0.094
		c3.708,0.23,6.612,3.319,6.612,7.03c0,3.878-3.144,7.035-7.017,7.057c-0.042-0.003-0.079-0.005-0.117-0.005l-2.047,0.005h-0.819v2
		h2.819V42.91c0.042,0.001,0.082,0.006,0.124,0.006c5.001,0,9.057-4.054,9.057-9.057C158.926,29.05,155.172,25.128,150.438,24.833z
		 M122.518,21.216c-0.241-0.016-0.48-0.036-0.725-0.036c-2.537,0-4.865,0.876-6.715,2.334c-2.012-1.294-3.487-3.354-3.976-5.776
		c0.582,0.117,1.178,0.177,1.78,0.177c4.963,0,9-4.037,9-9c0-0.603-0.06-1.198-0.177-1.78c3.733,0.753,6.629,3.824,7.133,7.641
		C126.128,16.218,123.913,18.474,122.518,21.216z"/>
	<rect x="133.926" y="42.932" width="2" height="4"/>
	<rect x="141.926" y="38.91" width="2" height="4.021"/>
	<rect x="125.926" y="38.91" width="2" height="4.021"/>
	<circle cx="142.926" cy="47.952" r="1.5"/>
	<circle cx="134.926" cy="51.921" r="1.5"/>
	<circle cx="126.926" cy="47.91" r="1.5"/>
</g>
<g>
	<path d="M47.128,117.863c-1.596-7.445-8.207-13.029-16.127-13.029c-6.423,0-11.977,3.678-14.702,9.035
		c-0.266-0.018-0.53-0.04-0.8-0.04c-6.627,0-11.999,5.372-11.999,12c0,6.607,5.34,11.965,11.938,11.998v0.003H21.5v-2h-5.604
		l-0.447-0.003C9.963,135.8,5.5,131.314,5.5,125.829c0-5.514,4.485-10,9.999-10c0.175,0,0.347,0.014,0.52,0.025l0.148,0.01
		l1.316,0.088l0.598-1.176c2.492-4.899,7.443-7.942,12.92-7.942c6.79,0,12.75,4.814,14.172,11.448l0.317,1.482l1.514,0.095
		c4.203,0.262,7.496,3.763,7.496,7.971c0,4.397-3.565,7.977-7.957,8c-0.05-0.003-0.093-0.005-0.137-0.007l-5.043,0.007H41.5v2h4.863
		v-0.007c0.046,0.001,0.091,0.007,0.137,0.007c5.521,0,10-4.477,10-10C56.5,122.52,52.355,118.188,47.128,117.863z"/>
	<polygon points="31.342,137.834 33.111,137.834 33.542,137.834 35.552,137.834 29.138,128.673 27.5,129.82 31.711,135.834 
		29.94,135.834 27.5,135.834 28.771,137.65 29.884,139.239 35.861,147.834 37.5,146.688 31.522,138.092 	"/>
</g>
<g>
	<rect x="122.926" y="98.733" width="2" height="7.973"/>
	<rect x="103.926" y="117.647" width="7.973" height="2"/>
	<rect x="108.599" y="106.381" transform="matrix(0.7071 0.7071 -0.7071 0.7071 108.9054 -48.1591)" width="7.974" height="2"/>
	<rect x="134.108" y="103.399" transform="matrix(0.7071 0.7071 -0.7071 0.7071 115.5045 -64.0831)" width="2" height="7.972"/>
	<path d="M153.438,124.523c-1.444-6.742-7.433-11.8-14.605-11.8c-2.185,0-4.258,0.47-6.127,1.313
		c-1.666-3.202-5.006-5.394-8.865-5.394c-5.522,0-10,4.477-10,9.999c0,2.46,0.898,4.702,2.373,6.442
		c-1.428,1.84-2.287,4.144-2.287,6.653c0,5.983,4.836,10.836,10.813,10.865v0.003h4.188v-2h-3.721l-0.457-0.003
		c-4.864-0.023-8.822-4.001-8.822-8.865c0-4.89,3.978-8.868,8.867-8.868c0.15,0,0.299,0.012,0.447,0.022l0.148,0.01l1.314,0.085
		l0.597-1.175c2.225-4.372,6.644-7.089,11.532-7.089c6.062,0,11.382,4.298,12.649,10.219l0.318,1.483l1.514,0.094
		c3.708,0.23,6.612,3.319,6.612,7.03c0,3.878-3.144,7.035-7.017,7.057c-0.042-0.003-0.079-0.005-0.117-0.005l-2.047,0.005h-3.819v2
		h5.819v-0.006c0.042,0.001,0.082,0.006,0.124,0.006c5.001,0,9.057-4.054,9.057-9.057
		C161.926,128.74,158.172,124.818,153.438,124.523z M125.518,120.906c-0.241-0.016-0.48-0.036-0.725-0.036
		c-2.766,0-5.281,1.041-7.2,2.743c-1.092-1.366-1.753-3.09-1.753-4.971c0-4.41,3.589-7.999,8-7.999c3.092,0,5.76,1.773,7.092,4.345
		C128.633,116.429,126.754,118.477,125.518,120.906z"/>
	<polygon points="137.768,142.613 139.537,142.613 139.968,142.613 141.978,142.613 135.563,133.452 133.926,134.6 138.137,140.613 
		136.366,140.613 133.926,140.613 135.197,142.43 136.31,144.019 142.287,152.613 143.926,151.467 137.948,142.871 	"/>
</g>
<g>
	<path d="M253.022,122.228c-1.444-6.742-7.433-11.8-14.605-11.8c-1.799,0-3.521,0.32-5.118,0.904
		c-0.949-5.108-5.404-8.98-10.788-8.98c-0.413,0-0.819,0.027-1.222,0.071c0.744,1.112,1.179,2.448,1.179,3.886c0,3.865-3.134,7-7,7
		c-1.438,0-2.773-0.435-3.886-1.179c-0.044,0.401-0.071,0.809-0.071,1.222c0,3.712,1.845,6.987,4.661,8.979
		c-1.653,1.907-2.661,4.389-2.661,7.111c0,5.983,4.836,10.836,10.813,10.865v0.003h4.188v-2h-3.721l-0.457-0.003
		c-4.864-0.023-8.822-4.001-8.822-8.865c0-4.89,3.978-8.868,8.867-8.868c0.15,0,0.299,0.012,0.447,0.022l0.148,0.01l1.314,0.085
		l0.597-1.175c2.225-4.372,6.644-7.089,11.532-7.089c6.062,0,11.382,4.298,12.649,10.219l0.318,1.483l1.514,0.094
		c3.708,0.23,6.612,3.319,6.612,7.03c0,3.878-3.144,7.035-7.017,7.057c-0.042-0.003-0.079-0.005-0.117-0.005l-2.047,0.005h-3.819v2
		h5.819v-0.006c0.042,0.001,0.082,0.006,0.124,0.006c5.001,0,9.057-4.054,9.057-9.057
		C261.511,126.444,257.757,122.522,253.022,122.228z M225.103,118.61c-0.241-0.016-0.48-0.036-0.725-0.036
		c-2.537,0-4.865,0.876-6.715,2.334c-2.012-1.294-3.486-3.354-3.976-5.776c0.582,0.117,1.178,0.177,1.78,0.177c4.963,0,9-4.037,9-9
		c0-0.603-0.06-1.198-0.177-1.78c3.733,0.753,6.629,3.824,7.134,7.64C228.712,113.612,226.497,115.867,225.103,118.61z"/>
	<polygon points="237.353,140.317 239.122,140.317 239.553,140.317 241.563,140.317 235.148,131.156 233.511,132.304 
		237.722,138.317 235.951,138.317 233.511,138.317 234.782,140.134 235.895,141.723 241.872,150.317 243.511,149.171 
		237.533,140.575 	"/>
</g>
<g>
	<path d="M353.907,118.363c-1.596-7.445-8.207-13.029-16.127-13.029c-6.423,0-11.977,3.678-14.702,9.035
		c-0.266-0.018-0.53-0.04-0.8-0.04c-6.627,0-11.999,5.372-11.999,12c0,6.607,5.34,11.965,11.938,11.998v0.003h1.062v-2h-0.604
		l-0.447-0.003c-5.485-0.027-9.948-4.513-9.948-9.998c0-5.514,4.485-10,9.999-10c0.175,0,0.347,0.014,0.52,0.025l0.148,0.01
		l1.316,0.088l0.598-1.176c2.492-4.899,7.443-7.942,12.92-7.942c6.79,0,12.75,4.814,14.172,11.448l0.317,1.482l1.514,0.095
		c4.203,0.262,7.496,3.763,7.496,7.971c0,4.397-3.565,7.977-7.957,8c-0.05-0.003-0.093-0.005-0.137-0.007l-0.906,0.007v2h0.863
		v-0.007c0.046,0.001,0.091,0.007,0.137,0.007c5.521,0,10-4.477,10-10C363.279,123.02,359.135,118.688,353.907,118.363z"/>
	
		<rect x="322.714" y="136.328" transform="matrix(-0.5736 -0.8191 0.8191 -0.5736 404.1473 485.0217)" width="11.183" height="1.999"/>
	
		<rect x="340.688" y="136.328" transform="matrix(-0.5736 -0.8191 0.8191 -0.5736 432.4328 499.7448)" width="11.183" height="1.999"/>
	<polygon points="339.121,141.334 340.891,141.334 341.321,141.334 343.331,141.334 336.917,132.173 335.279,133.32 339.49,139.334 
		337.72,139.334 335.279,139.334 336.551,141.15 337.663,142.739 342.279,149.334 343.918,148.188 339.302,141.592 	"/>
</g>
<g>
	<rect x="428.755" y="98.896" width="2" height="7.973"/>
	<rect x="409.755" y="117.811" width="7.973" height="2"/>
	<rect x="414.428" y="106.544" transform="matrix(0.7071 0.7071 -0.7071 0.7071 198.596 -264.3652)" width="7.974" height="2"/>
	<rect x="439.937" y="103.562" transform="matrix(0.7071 0.7071 -0.7071 0.7071 205.1951 -280.2892)" width="2" height="7.972"/>
	<path d="M459.267,124.687c-1.444-6.742-7.433-11.8-14.605-11.8c-2.185,0-4.258,0.47-6.126,1.313
		c-1.667-3.202-5.007-5.394-8.866-5.394c-5.522,0-10,4.477-10,9.999c0,2.46,0.899,4.702,2.373,6.442
		c-1.429,1.84-2.287,4.144-2.287,6.653c0,5.983,4.836,10.836,10.813,10.865v0.003h0.188v-2l-0.178-0.003
		c-4.864-0.023-8.822-4.001-8.822-8.865c0-4.89,3.978-8.868,8.867-8.868c0.15,0,0.299,0.012,0.447,0.022l0.148,0.01l1.314,0.085
		l0.597-1.175c2.225-4.372,6.644-7.089,11.532-7.089c6.062,0,11.382,4.298,12.649,10.219l0.318,1.483l1.514,0.094
		c3.708,0.23,6.612,3.319,6.612,7.03c0,3.878-3.144,7.035-7.017,7.057c-0.042-0.003-0.079-0.005-0.117-0.005l-0.866,0.005v2h0.819
		v-0.006c0.042,0.001,0.082,0.006,0.124,0.006c5.001,0,9.057-4.054,9.057-9.057C467.755,128.903,464.001,124.981,459.267,124.687z
		 M431.347,121.069c-0.241-0.016-0.48-0.036-0.725-0.036c-2.766,0-5.282,1.042-7.2,2.743c-1.092-1.367-1.753-3.09-1.753-4.971
		c0-4.41,3.589-7.999,8-7.999c3.091,0,5.76,1.773,7.091,4.345C434.462,116.591,432.582,118.64,431.347,121.069z"/>
	
		<rect x="429.177" y="140.767" transform="matrix(-0.5736 -0.8191 0.8191 -0.5736 568.0458 579.2109)" width="11.183" height="1.999"/>
	
		<rect x="447.151" y="140.767" transform="matrix(-0.5736 -0.8191 0.8191 -0.5736 596.3313 593.9341)" width="11.183" height="1.999"/>
	<polygon points="445.584,145.772 447.354,145.772 447.784,145.772 449.794,145.772 443.38,136.611 441.742,137.759 
		445.953,143.772 444.183,143.772 441.742,143.772 443.014,145.589 444.126,147.178 448.742,153.772 450.381,152.626 
		445.765,146.03 	"/>
</g>
<g>
	<path d="M561.104,121.729c-1.444-6.742-7.433-11.8-14.605-11.8c-1.799,0-3.522,0.32-5.118,0.904
		c-0.949-5.108-5.404-8.98-10.788-8.98c-0.413,0-0.819,0.027-1.222,0.071c0.744,1.112,1.179,2.448,1.179,3.886c0,3.865-3.134,7-7,7
		c-1.438,0-2.773-0.435-3.886-1.179c-0.044,0.401-0.071,0.809-0.071,1.222c0,3.712,1.845,6.987,4.661,8.979
		c-1.653,1.907-2.661,4.389-2.661,7.111c0,5.983,4.836,10.836,10.813,10.865v0.003h0.188v-2l-0.178-0.003
		c-4.864-0.023-8.822-4.001-8.822-8.865c0-4.89,3.978-8.868,8.867-8.868c0.15,0,0.299,0.012,0.447,0.022l0.148,0.01l1.314,0.085
		l0.597-1.175c2.225-4.372,6.644-7.089,11.532-7.089c6.062,0,11.382,4.298,12.649,10.219l0.318,1.483l1.514,0.094
		c3.708,0.23,6.612,3.319,6.612,7.03c0,3.878-3.144,7.035-7.017,7.057c-0.042-0.003-0.079-0.005-0.117-0.005l-0.866,0.005v2h0.819
		v-0.006c0.042,0.001,0.082,0.006,0.124,0.006c5.001,0,9.057-4.054,9.057-9.057C569.593,125.945,565.839,122.023,561.104,121.729z
		 M533.185,118.111c-0.241-0.016-0.48-0.036-0.725-0.036c-2.537,0-4.865,0.876-6.715,2.334c-2.012-1.294-3.487-3.354-3.976-5.776
		c0.582,0.117,1.178,0.177,1.78,0.177c4.963,0,9-4.037,9-9c0-0.603-0.06-1.198-0.177-1.78c3.733,0.753,6.629,3.824,7.133,7.641
		C536.795,113.113,534.58,115.369,533.185,118.111z"/>
	
		<rect x="531.013" y="137.809" transform="matrix(-0.5736 -0.8191 0.8191 -0.5736 730.7231 657.9716)" width="11.183" height="1.999"/>
	
		<rect x="548.988" y="137.809" transform="matrix(-0.5736 -0.8191 0.8191 -0.5736 759.0087 672.6948)" width="11.183" height="1.999"/>
	<polygon points="547.421,142.814 549.19,142.814 549.621,142.814 551.631,142.814 545.217,133.653 543.579,134.801 547.79,140.814 
		546.02,140.814 543.579,140.814 544.851,142.631 545.963,144.22 550.579,150.814 552.218,149.668 547.602,143.072 	"/>
</g>
<g>
	<g>
		<path d="M150.542,208.184c-1.596-7.445-8.207-13.029-16.127-13.029c-6.423,0-11.977,3.678-14.702,9.035
			c-0.266-0.018-0.53-0.04-0.8-0.04c-6.627,0-11.999,5.372-11.999,12c0,6.607,5.34,11.965,11.938,11.998v0.003h2.062v-2h-1.604
			l-0.447-0.003c-5.485-0.027-9.948-4.513-9.948-9.998c0-5.514,4.485-10,9.999-10c0.175,0,0.347,0.014,0.52,0.025l0.148,0.01
			l1.316,0.088l0.598-1.176c2.492-4.899,7.443-7.942,12.92-7.942c6.79,0,12.75,4.814,14.172,11.448l0.317,1.482l1.514,0.095
			c4.203,0.262,7.496,3.763,7.496,7.971c0,4.397-3.565,7.977-7.957,8c-0.05-0.003-0.093-0.005-0.137-0.007l-2.043,0.007h-2.863v2
			h4.863v-0.007c0.046,0.001,0.091,0.007,0.137,0.007c5.521,0,10-4.477,10-10C159.914,212.84,155.77,208.509,150.542,208.184z"/>
	</g>
	<g>
		<circle cx="125.414" cy="221.727" r="1.5"/>
	</g>
	<g>
		<circle cx="129.414" cy="227.65" r="1.5"/>
	</g>
	<g>
		<circle cx="137.414" cy="227.65" r="1.5"/>
	</g>
	<g>
		<circle cx="133.414" cy="221.727" r="1.5"/>
	</g>
	<g>
		<circle cx="141.414" cy="221.727" r="1.5"/>
	</g>
	<g>
		<circle cx="125.414" cy="233.672" r="1.5"/>
	</g>
	<g>
		<circle cx="133.414" cy="233.672" r="1.5"/>
	</g>
	<g>
		<circle cx="141.414" cy="233.672" r="1.5"/>
	</g>
</g>
<g>
	<g>
		<rect x="226.328" y="192.706" width="2" height="7.973"/>
	</g>
	<g>
		<rect x="207.328" y="211.62" width="7.973" height="2"/>
	</g>
	<g>
		<rect x="212.001" y="200.354" transform="matrix(0.7071 0.7071 -0.7071 0.7071 205.6399 -93.7517)" width="7.974" height="2"/>
	</g>
	<g>
		<rect x="237.51" y="197.372" transform="matrix(0.7071 0.7071 -0.7071 0.7071 212.2391 -109.6757)" width="2" height="7.972"/>
	</g>
	<g>
		<path d="M256.84,218.496c-1.444-6.742-7.433-11.8-14.605-11.8c-2.185,0-4.258,0.47-6.127,1.313
			c-1.666-3.202-5.006-5.394-8.865-5.394c-5.522,0-10,4.477-10,9.999c0,2.46,0.898,4.702,2.373,6.442
			c-1.428,1.84-2.287,4.144-2.287,6.653c0,5.983,4.836,10.836,10.813,10.865v0.003h1.188v-2h-0.721l-0.457-0.003
			c-4.864-0.023-8.822-4.001-8.822-8.865c0-4.89,3.978-8.868,8.867-8.868c0.15,0,0.299,0.012,0.447,0.022l0.148,0.01l1.314,0.085
			l0.597-1.175c2.225-4.372,6.644-7.089,11.532-7.089c6.062,0,11.382,4.298,12.649,10.219l0.318,1.483l1.514,0.094
			c3.708,0.23,6.612,3.319,6.612,7.03c0,3.878-3.144,7.035-7.017,7.057c-0.042-0.003-0.079-0.005-0.117-0.005l-2.047,0.005h-1.819v2
			h3.819v-0.006c0.042,0.001,0.082,0.006,0.124,0.006c5.001,0,9.057-4.054,9.057-9.057
			C265.328,222.713,261.574,218.791,256.84,218.496z M228.92,214.879c-0.241-0.016-0.48-0.036-0.725-0.036
			c-2.766,0-5.281,1.042-7.2,2.743c-1.092-1.367-1.753-3.09-1.753-4.971c0-4.41,3.589-7.999,8-7.999c3.092,0,5.76,1.773,7.092,4.345
			C232.035,210.4,230.156,212.449,228.92,214.879z"/>
	</g>
	<g>
		<circle cx="232.817" cy="230.09" r="1.5"/>
	</g>
	<g>
		<circle cx="236.817" cy="236.09" r="1.5"/>
	</g>
	<g>
		<circle cx="244.817" cy="236.09" r="1.5"/>
	</g>
	<g>
		<circle cx="240.817" cy="230.09" r="1.5"/>
	</g>
	<g>
		<circle cx="248.817" cy="230.09" r="1.5"/>
	</g>
	<g>
		<circle cx="232.817" cy="242.111" r="1.5"/>
	</g>
	<g>
		<circle cx="240.817" cy="242.111" r="1.5"/>
	</g>
	<g>
		<circle cx="248.817" cy="242.111" r="1.5"/>
	</g>
</g>
<g>
	<g>
		<path d="M352.791,214.54c-1.444-6.742-7.433-11.8-14.605-11.8c-1.799,0-3.521,0.32-5.118,0.904
			c-0.949-5.108-5.404-8.98-10.788-8.98c-0.413,0-0.819,0.027-1.222,0.071c0.744,1.112,1.179,2.448,1.179,3.886c0,3.865-3.134,7-7,7
			c-1.438,0-2.773-0.435-3.886-1.179c-0.044,0.401-0.071,0.809-0.071,1.222c0,3.712,1.845,6.987,4.661,8.979
			c-1.653,1.907-2.661,4.389-2.661,7.111c0,5.983,4.836,10.836,10.813,10.865v0.003h1.188v-2h-0.721l-0.457-0.003
			c-4.864-0.023-8.822-4.001-8.822-8.865c0-4.89,3.978-8.868,8.867-8.868c0.15,0,0.299,0.012,0.447,0.022l0.148,0.01l1.314,0.085
			l0.597-1.175c2.225-4.372,6.644-7.089,11.532-7.089c6.062,0,11.382,4.298,12.649,10.219l0.318,1.483l1.514,0.094
			c3.708,0.23,6.612,3.319,6.612,7.03c0,3.878-3.144,7.035-7.017,7.057c-0.042-0.003-0.079-0.005-0.117-0.005l-2.047,0.005h-1.819v2
			h3.819v-0.006c0.042,0.001,0.082,0.006,0.124,0.006c5.001,0,9.057-4.054,9.057-9.057
			C361.279,218.757,357.525,214.835,352.791,214.54z M324.871,210.923c-0.241-0.016-0.48-0.036-0.725-0.036
			c-2.537,0-4.865,0.876-6.715,2.334c-2.012-1.294-3.486-3.354-3.976-5.776c0.582,0.117,1.178,0.177,1.78,0.177c4.963,0,9-4.037,9-9
			c0-0.603-0.06-1.198-0.177-1.78c3.733,0.753,6.629,3.824,7.134,7.64C328.48,205.925,326.266,208.18,324.871,210.923z"/>
	</g>
	<g>
		<circle cx="328.779" cy="226.133" r="1.5"/>
	</g>
	<g>
		<circle cx="332.779" cy="232.133" r="1.5"/>
	</g>
	<g>
		<circle cx="340.779" cy="232.133" r="1.5"/>
	</g>
	<g>
		<circle cx="336.779" cy="226.133" r="1.5"/>
	</g>
	<g>
		<circle cx="344.779" cy="226.133" r="1.5"/>
	</g>
	<g>
		<circle cx="328.779" cy="238.154" r="1.5"/>
	</g>
	<g>
		<circle cx="336.779" cy="238.154" r="1.5"/>
	</g>
	<g>
		<circle cx="344.779" cy="238.154" r="1.5"/>
	</g>
</g>
<g>
	<path d="M663.956,115.654c-1.596-7.445-8.207-13.029-16.127-13.029c-6.423,0-11.977,3.678-14.702,9.035
		c-0.266-0.018-0.53-0.04-0.8-0.04c-6.627,0-11.999,5.372-11.999,12c0,6.607,5.34,11.965,11.938,11.998v0.003h2.062v-2h-1.604
		l-0.447-0.003c-5.485-0.027-9.948-4.513-9.948-9.998c0-5.514,4.485-10,9.999-10c0.175,0,0.347,0.014,0.52,0.025l0.148,0.01
		l1.316,0.088l0.598-1.176c2.492-4.899,7.443-7.942,12.92-7.942c6.79,0,12.75,4.814,14.172,11.448l0.317,1.482l1.514,0.095
		c4.203,0.262,7.496,3.763,7.496,7.971c0,4.397-3.565,7.977-7.957,8c-0.05-0.003-0.093-0.005-0.137-0.007l-2.043,0.007h-2.863v2
		h4.863v-0.007c0.046,0.001,0.091,0.007,0.137,0.007c5.521,0,10-4.477,10-10C673.328,120.311,669.184,115.979,663.956,115.654z"/>
	<circle cx="638.328" cy="143.125" r="1.5"/>
	<circle cx="646.328" cy="149.125" r="1.5"/>
	<circle cx="654.328" cy="145.125" r="1.5"/>
	<rect x="637.328" y="126.649" width="2" height="11.976"/>
	<polygon points="647.328,144.59 647.328,142.649 647.328,130.649 645.328,130.649 645.328,142.649 645.328,144.59 645.328,144.625 
		647.328,144.625 	"/>
	<polygon points="655.328,140.402 655.328,138.649 655.328,126.649 653.328,126.649 653.328,138.649 653.328,140.402 
		653.328,140.625 655.328,140.625 	"/>
</g>
<g>
	<rect x="-84.421" y="187.268" width="2" height="7.973"/>
	<rect x="-103.421" y="206.182" width="7.973" height="2"/>
	<rect x="-98.748" y="194.915" transform="matrix(0.7071 0.7071 -0.7071 0.7071 110.7781 124.3881)" width="7.974" height="2"/>
	<rect x="-73.239" y="191.933" transform="matrix(0.7071 0.7071 -0.7071 0.7071 117.3772 108.4642)" width="2" height="7.972"/>
	<path d="M-53.909,213.058c-1.444-6.742-7.433-11.8-14.605-11.8c-2.185,0-4.258,0.47-6.126,1.313
		c-1.667-3.202-5.007-5.394-8.866-5.394c-5.522,0-10,4.477-10,9.999c0,2.46,0.899,4.702,2.373,6.442
		c-1.429,1.84-2.287,4.144-2.287,6.653c0,5.983,4.836,10.836,10.813,10.865v0.003h1.188v-2h-0.721l-0.457-0.003
		c-4.864-0.023-8.822-4.001-8.822-8.865c0-4.89,3.978-8.868,8.867-8.868c0.15,0,0.299,0.012,0.447,0.022l0.148,0.01l1.314,0.085
		l0.597-1.175c2.225-4.372,6.644-7.089,11.532-7.089c6.062,0,11.382,4.298,12.649,10.219l0.318,1.483l1.514,0.094
		c3.708,0.23,6.612,3.319,6.612,7.03c0,3.878-3.144,7.035-7.017,7.057c-0.042-0.003-0.079-0.005-0.117-0.005l-2.047,0.005h-0.819v2
		h2.819v-0.006c0.042,0.001,0.082,0.006,0.124,0.006c5.001,0,9.057-4.054,9.057-9.057
		C-45.421,217.274-49.175,213.353-53.909,213.058z M-81.829,209.44c-0.241-0.016-0.48-0.036-0.725-0.036
		c-2.766,0-5.282,1.041-7.2,2.743c-1.092-1.366-1.753-3.09-1.753-4.971c0-4.41,3.589-7.999,8-7.999c3.091,0,5.76,1.773,7.091,4.345
		C-78.714,204.963-80.594,207.011-81.829,209.44z"/>
	<circle cx="-77.431" cy="239.628" r="1.5"/>
	<circle cx="-69.431" cy="245.628" r="1.5"/>
	<circle cx="-61.431" cy="241.628" r="1.5"/>
	<rect x="-78.431" y="223.152" width="2" height="11.976"/>
	<polygon points="-68.431,241.093 -68.431,239.152 -68.431,227.152 -70.431,227.152 -70.431,239.152 -70.431,241.093 
		-70.431,241.128 -68.431,241.128 	"/>
	<polygon points="-60.431,236.905 -60.431,235.152 -60.431,223.152 -62.431,223.152 -62.431,235.152 -62.431,236.905 
		-62.431,237.128 -60.431,237.128 	"/>
</g>
<g>
	<path d="M46.693,210.06c-1.444-6.742-7.433-11.8-14.605-11.8c-1.799,0-3.522,0.32-5.118,0.904c-0.949-5.108-5.404-8.98-10.788-8.98
		c-0.413,0-0.819,0.027-1.222,0.071c0.744,1.112,1.179,2.448,1.179,3.886c0,3.865-3.134,7-7,7c-1.438,0-2.773-0.435-3.886-1.179
		c-0.044,0.401-0.071,0.809-0.071,1.222c0,3.712,1.845,6.987,4.661,8.979c-1.653,1.907-2.661,4.389-2.661,7.111
		c0,5.983,4.836,10.836,10.813,10.865v0.003h1.188v-2h-0.721l-0.457-0.003c-4.864-0.023-8.822-4.001-8.822-8.865
		c0-4.89,3.978-8.868,8.867-8.868c0.15,0,0.299,0.012,0.447,0.022l0.148,0.01l1.314,0.085l0.597-1.175
		c2.225-4.372,6.644-7.089,11.532-7.089c6.062,0,11.382,4.298,12.649,10.219l0.318,1.483l1.514,0.094
		c3.708,0.23,6.612,3.319,6.612,7.03c0,3.878-3.144,7.035-7.017,7.057c-0.042-0.003-0.079-0.005-0.117-0.005l-2.047,0.005h-0.819v2
		h2.819v-0.006c0.042,0.001,0.082,0.006,0.124,0.006c5.001,0,9.057-4.054,9.057-9.057C55.182,214.276,51.428,210.354,46.693,210.06z
		 M18.773,206.442c-0.241-0.016-0.48-0.036-0.725-0.036c-2.537,0-4.865,0.876-6.715,2.334c-2.012-1.294-3.487-3.354-3.976-5.776
		c0.582,0.117,1.178,0.177,1.78,0.177c4.963,0,9-4.037,9-9c0-0.603-0.06-1.198-0.177-1.78c3.733,0.753,6.629,3.824,7.133,7.64
		C22.384,201.444,20.169,203.699,18.773,206.442z"/>
	<circle cx="23.182" cy="236.634" r="1.5"/>
	<circle cx="31.182" cy="242.634" r="1.5"/>
	<circle cx="39.182" cy="238.634" r="1.5"/>
	<rect x="22.182" y="220.158" width="2" height="11.976"/>
	<polygon points="32.182,238.099 32.182,236.158 32.182,224.158 30.182,224.158 30.182,236.158 30.182,238.099 30.182,238.134 
		32.182,238.134 	"/>
	<polygon points="40.182,233.911 40.182,232.158 40.182,220.158 38.182,220.158 38.182,232.158 38.182,233.911 38.182,234.134 
		40.182,234.134 	"/>
</g>
<g>
	<rect x="-101.421" y="314.5" width="56" height="2"/>
	<rect x="-97.421" y="320.5" width="50" height="2"/>
	<rect x="-91.421" y="326.5" width="36" height="2"/>
	<rect x="-99.421" y="308.5" width="52" height="2"/>
	<path d="M-87.547,300.495c0.175,0,0.347,0.014,0.519,0.025l0.149,0.01l1.316,0.088l0.598-1.176
		c2.493-4.899,7.443-7.942,12.92-7.942c6.79,0,12.75,4.814,14.171,11.448l0.318,1.482l1.514,0.095
		c1.207,0.075,2.335,0.425,3.336,0.975h3.286c-1.678-1.703-3.957-2.813-6.498-2.971c-1.596-7.445-8.207-13.029-16.127-13.029
		c-6.423,0-11.977,3.678-14.702,9.035c-0.266-0.018-0.53-0.04-0.8-0.04c-4.843,0-9.004,2.874-10.9,7.005h2.251
		C-94.465,302.514-91.24,300.495-87.547,300.495z"/>
</g>
<g>
	<rect x="19.682" y="286.985" width="2" height="7.973"/>
	<rect x="0.682" y="305.899" width="7.973" height="2"/>
	<rect x="5.355" y="294.633" transform="matrix(0.7071 0.7071 -0.7071 0.7071 211.7801 79.9832)" width="7.974" height="2"/>
	<rect x="30.863" y="291.651" transform="matrix(0.7071 0.7071 -0.7071 0.7071 218.3793 64.0592)" width="2" height="7.972"/>
	<rect x="9.682" y="320.859" width="50" height="2"/>
	<rect x="13.682" y="326.859" width="44" height="2"/>
	<rect x="19.682" y="331.859" width="30" height="2"/>
	<rect x="11.682" y="314.859" width="46" height="2"/>
	<path d="M12.59,312.859h0.771h1.927H16.3c1.472-1.087,3.283-1.737,5.249-1.737c0.15,0,0.299,0.012,0.447,0.022l0.148,0.01
		l1.314,0.085l0.597-1.175c2.225-4.372,6.644-7.089,11.532-7.089c5.945,0,11.168,4.139,12.563,9.884h2.043v-0.084
		c-1.444-6.742-7.433-11.8-14.605-11.8c-2.185,0-4.258,0.47-6.126,1.313c-1.667-3.202-5.007-5.394-8.866-5.394
		c-5.522,0-10,4.477-10,9.999C10.596,309.136,11.344,311.194,12.59,312.859z M20.596,298.896c3.091,0,5.76,1.773,7.091,4.345
		c-2.298,1.44-4.178,3.488-5.413,5.918c-0.241-0.016-0.48-0.036-0.725-0.036c-2.764,0-5.274,1.045-7.189,2.745
		c-1.097-1.366-1.764-3.089-1.764-4.973C12.596,302.484,16.185,298.896,20.596,298.896z"/>
</g>
<g>
	<rect x="108.426" y="317.422" width="50" height="2"/>
	<rect x="112.426" y="323.422" width="44" height="2"/>
	<rect x="118.426" y="328.422" width="30" height="2"/>
	<rect x="110.426" y="311.422" width="46" height="2"/>
	<path d="M112.068,309.422h0.037h1.884h1.055c1.472-1.087,3.283-1.737,5.249-1.737c0.15,0,0.299,0.012,0.447,0.022l0.148,0.01
		l1.314,0.085l0.597-1.175c2.225-4.372,6.644-7.089,11.532-7.089c5.945,0,11.168,4.139,12.563,9.884h2.043v-0.084
		c-1.444-6.742-7.433-11.8-14.605-11.8c-1.799,0-3.521,0.32-5.117,0.903c-0.945-5.111-5.402-8.987-10.789-8.987
		c-0.413,0-0.819,0.027-1.222,0.071c0.744,1.112,1.179,2.448,1.179,3.886c0,3.865-3.134,7-7,7c-1.438,0-2.773-0.435-3.886-1.179
		c-0.044,0.401-0.071,0.809-0.071,1.222C107.426,304.158,109.262,307.429,112.068,309.422z M111.383,302.411c4.963,0,9-4.037,9-9
		c0-0.603-0.06-1.198-0.177-1.78c3.735,0.753,6.633,3.828,7.134,7.647c-2.712,1.443-4.927,3.699-6.322,6.442
		c-0.241-0.016-0.48-0.036-0.725-0.036c-2.534,0-4.855,0.879-6.701,2.335c-2.02-1.293-3.5-3.356-3.989-5.785
		C110.185,302.352,110.78,302.411,111.383,302.411z"/>
</g>
<g>
	<path d="M240.317,320.436h-19.474l-0.578-0.003c-5.485-0.027-9.948-4.513-9.948-9.998c0-5.514,4.485-10,9.999-10
		c0.175,0,0.347,0.014,0.519,0.025l0.149,0.01l1.316,0.088l0.598-1.176c2.493-4.899,7.443-7.942,12.92-7.942
		c6.79,0,12.75,4.814,14.171,11.448l0.318,1.482l1.514,0.095c1.822,0.113,3.463,0.845,4.746,1.971h2.732
		c-1.707-2.262-4.348-3.78-7.354-3.967c-1.596-7.445-8.207-13.029-16.127-13.029c-6.423,0-11.977,3.678-14.702,9.035
		c-0.266-0.018-0.53-0.04-0.8-0.04c-6.627,0-11.999,5.372-11.999,12c0,6.607,5.34,11.965,11.938,11.998v0.003h20.062
		c2.205,0,4,1.794,4,4s-1.795,4-4,4v2c3.314,0,6-2.686,6-6C246.317,323.122,243.632,320.436,240.317,320.436z"/>
	<path d="M244.317,316.436h-15.988v2h15.988c3.314,0,6-2.687,6-6c0-3.314-2.686-6-6-6v2c2.205,0,4,1.794,4,4
		S246.522,316.436,244.317,316.436z"/>
	<path d="M257.317,310.436c1.654,0,3,1.346,3,3s-1.346,3-3,3c-0.043,0-0.083-0.011-0.126-0.013h-4.862
		c0.003,0.005,0.009,0.008,0.012,0.013h-0.023v2h5.5v-0.051c2.523-0.254,4.5-2.358,4.5-4.949c0-2.762-2.238-5-5-5V310.436z"/>
	<path d="M261.317,320.436h-13v2h9.022c-0.004,0.005-0.008,0.008-0.011,0.013h3.862c0.043-0.002,0.083-0.013,0.126-0.013
		c1.654,0,3,1.346,3,3s-1.346,3-3,3v2c2.762,0,5-2.238,5-5S264.079,320.436,261.317,320.436z"/>
	<rect x="222.317" y="316.436" width="4" height="2"/>
</g>
<path d="M32.756-78.668c6.95,1.305,12.226,7.419,12.226,14.742c0,8.272-6.729,15.002-15,15.002c-6.79,0-12.531-4.49-14.366-10.728
	c1.398,0.461,2.867,0.698,4.366,0.698c7.72,0,14-6.281,14-14.001C33.981-74.938,33.558-76.883,32.756-78.668 M29.981-80.925
	c-0.338,0-0.668,0.031-1,0.051c1.861,2.113,3,4.881,3,7.92c0,6.627-5.372,12.001-12,12.001c-2.599,0-4.998-0.835-6.963-2.239
	c0.387,9.047,7.821,16.269,16.963,16.269c9.39,0,17-7.612,17-17.002S39.371-80.925,29.981-80.925L29.981-80.925z"/>
<g>
	<path d="M-73.414-75.93c-7.18,0-13,5.819-13,12.999c0,7.181,5.82,13.002,13,13.002s13-5.821,13-13.002
		C-60.414-70.11-66.234-75.93-73.414-75.93z M-73.414-51.929c-6.065,0-11-4.936-11-11.002c0-6.064,4.935-10.999,11-10.999
		s11,4.935,11,10.999C-62.414-56.864-67.349-51.929-73.414-51.929z"/>
	<rect x="-74.421" y="-88.924" width="2" height="10"/>
	<rect x="-74.421" y="-46.924" width="2" height="10"/>
	<rect x="-99.414" y="-63.924" width="9.993" height="2"/>
	<rect x="-57.421" y="-63.924" width="10.007" height="2"/>
	<rect x="-59.721" y="-82.838" transform="matrix(0.7071 0.7071 -0.7071 0.7071 -72.0941 18.7839)" width="2" height="10.409"/>
	<rect x="-89.13" y="-53.429" transform="matrix(-0.7071 -0.7071 0.7071 -0.7071 -116.3475 -144.641)" width="2" height="10.41"/>
	<rect x="-93.33" y="-78.628" transform="matrix(0.7071 0.7071 -0.7071 0.7071 -80.7029 39.5773)" width="10.409" height="2"/>
	<rect x="-63.922" y="-49.219" transform="matrix(-0.7072 -0.7071 0.7071 -0.7072 -66.1447 -123.8339)" width="10.41" height="2"/>
</g>
<g>
	<rect x="324.752" y="281.938" width="2" height="7.973"/>
	<rect x="305.779" y="300.924" width="7.973" height="2"/>
	<rect x="310.505" y="289.705" transform="matrix(0.7071 0.7071 -0.7071 0.7071 297.6722 -137.234)" width="7.974" height="2"/>
	<rect x="336.014" y="286.723" transform="matrix(0.7071 0.7071 -0.7071 0.7071 304.2713 -153.158)" width="2" height="7.972"/>
	<path d="M339.779,323.938l0.005-0.007h-12.536l-0.594-0.003c-4.864-0.024-8.822-4.001-8.822-8.865c0-4.89,3.978-8.868,8.867-8.868
		c0.15,0,0.299,0.012,0.447,0.021l0.148,0.011l1.314,0.085l0.597-1.174c2.225-4.373,6.644-7.09,11.532-7.09
		c5.916,0,11.114,4.099,12.54,9.8h2.065c-1.444-6.742-7.433-11.8-14.605-11.8c-2.185,0-4.258,0.47-6.126,1.313
		c-1.667-3.202-5.007-5.394-8.866-5.394c-5.522,0-10,4.477-10,9.999c0,2.46,0.899,4.702,2.373,6.442
		c-1.429,1.84-2.287,4.144-2.287,6.653c0,5.983,4.836,10.836,10.813,10.865v0.003h13.135v0.007c2.205,0,4,1.794,4,4s-1.795,4-4,4v2
		c3.314,0,6-2.686,6-6C345.779,326.624,343.094,323.938,339.779,323.938z M325.746,293.968c3.091,0,5.76,1.773,7.091,4.345
		c-2.298,1.439-4.178,3.488-5.413,5.918c-0.241-0.016-0.48-0.036-0.725-0.036c-2.766,0-5.282,1.042-7.2,2.743
		c-1.092-1.367-1.753-3.09-1.753-4.971C317.746,297.557,321.335,293.968,325.746,293.968z"/>
	<path d="M343.779,319.938h-9.988v2h9.988c3.314,0,6-2.687,6-6c0-3.314-2.686-6-6-6v2c2.205,0,4,1.794,4,4
		S345.984,319.938,343.779,319.938z"/>
	<path d="M351.803,319.938h-0.023v2h5.5v-0.051c2.523-0.254,4.5-2.358,4.5-4.949c0-2.762-2.238-5-5-5v2c1.654,0,3,1.346,3,3
		s-1.346,3-3,3c-0.043,0-0.083-0.011-0.126-0.013h-4.862C351.794,319.93,351.8,319.934,351.803,319.938z"/>
	<path d="M360.779,323.938h-13v2h9.022c-0.004,0.004-0.008,0.008-0.011,0.013h3.862c0.043-0.002,0.083-0.013,0.126-0.013
		c1.654,0,3,1.346,3,3s-1.346,3-3,3v2c2.762,0,5-2.238,5-5S363.541,323.938,360.779,323.938z"/>
	<rect x="327.779" y="319.938" width="4" height="2"/>
</g>
<g>
	<path d="M439.741,321.932l0.005-0.007H427.21l-0.594-0.003c-4.864-0.024-8.822-4.001-8.822-8.865c0-4.89,3.978-8.868,8.867-8.868
		c0.15,0,0.299,0.012,0.447,0.021l0.148,0.011l1.314,0.085l0.597-1.174c2.225-4.373,6.644-7.09,11.532-7.09
		c5.916,0,11.114,4.099,12.54,9.8h2.065c-1.444-6.742-7.433-11.8-14.605-11.8c-1.806,0-3.536,0.322-5.138,0.91
		c-0.938-5.123-5.4-9.01-10.794-9.01c-0.413,0-0.819,0.027-1.222,0.071c0.744,1.112,1.179,2.448,1.179,3.886c0,3.865-3.134,7-7,7
		c-1.438,0-2.773-0.435-3.886-1.179c-0.044,0.401-0.071,0.809-0.071,1.222c0,3.725,1.858,7.009,4.69,8.998
		c-1.655,1.907-2.665,4.392-2.665,7.116c0,5.983,4.836,10.836,10.813,10.865v0.003h13.135v0.007c2.205,0,4,1.794,4,4s-1.795,4-4,4v2
		c3.314,0,6-2.686,6-6C445.741,324.618,443.056,321.932,439.741,321.932z M415.945,298.723c0.582,0.117,1.178,0.177,1.78,0.177
		c4.963,0,9-4.037,9-9c0-0.603-0.06-1.198-0.177-1.78c3.744,0.755,6.646,3.842,7.138,7.674c-2.702,1.444-4.909,3.696-6.301,6.432
		c-0.241-0.016-0.48-0.036-0.725-0.036c-2.535,0-4.861,0.875-6.71,2.33C417.923,303.227,416.437,301.158,415.945,298.723z"/>
	<path d="M443.741,317.932h-9.988v2h9.988c3.314,0,6-2.687,6-6c0-3.314-2.686-6-6-6v2c2.205,0,4,1.794,4,4
		S445.946,317.932,443.741,317.932z"/>
	<path d="M451.765,317.932h-0.023v2h5.5v-0.051c2.523-0.254,4.5-2.358,4.5-4.949c0-2.762-2.238-5-5-5v2c1.654,0,3,1.346,3,3
		s-1.346,3-3,3c-0.043,0-0.083-0.011-0.126-0.013h-4.862C451.756,317.924,451.762,317.928,451.765,317.932z"/>
	<path d="M460.741,321.932h-13v2h9.022c-0.004,0.004-0.008,0.008-0.011,0.013h3.862c0.043-0.002,0.083-0.013,0.126-0.013
		c1.654,0,3,1.346,3,3s-1.346,3-3,3v2c2.762,0,5-2.238,5-5S463.503,321.932,460.741,321.932z"/>
	<rect x="427.741" y="317.932" width="4" height="2"/>
</g>
<g>
	<rect x="540.634" y="284.5" width="2" height="10"/>
	<rect x="515.641" y="309.5" width="9.993" height="2"/>
	<rect x="555.334" y="290.586" transform="matrix(0.7071 0.7071 -0.7071 0.7071 372.1018 -306.7521)" width="2" height="10.409"/>
	<rect x="521.725" y="294.796" transform="matrix(0.7071 0.7071 -0.7071 0.7071 363.4929 -285.9587)" width="10.409" height="2"/>
	<path d="M545.634,324.5h-24v2h24c2.205,0,4,1.794,4,4s-1.795,4-4,4v2c3.314,0,6-2.686,6-6
		C551.634,327.187,548.948,324.5,545.634,324.5z"/>
	<path d="M557.657,320.5h-0.023v2h5.5v-0.051c2.523-0.254,4.5-2.358,4.5-4.949c0-2.762-2.238-5-5-5v2c1.654,0,3,1.346,3,3
		s-1.346,3-3,3c-0.043,0-0.083-0.011-0.126-0.013h-4.862C557.648,320.492,557.654,320.496,557.657,320.5z"/>
	<path d="M566.634,324.5h-13v2h9.022c-0.004,0.004-0.008,0.008-0.011,0.013h3.862c0.043-0.002,0.083-0.013,0.126-0.013
		c1.654,0,3,1.346,3,3s-1.346,3-3,3v2c2.762,0,5-2.238,5-5S569.396,324.5,566.634,324.5z"/>
	<path d="M533.343,320.5h-11.709v2h12.012h0.822h15.166c3.314,0,6-2.687,6-6c0-3.314-2.686-6-6-6v2c2.205,0,4,1.794,4,4
		s-1.795,4-4,4h-12.538c-3.802-1.734-6.455-5.563-6.455-10.007c0-6.064,4.935-10.999,11-10.999c5.384,0,9.868,3.891,10.81,9.006
		h2.021c-0.961-6.23-6.331-11.006-12.831-11.006c-7.18,0-13,5.819-13,12.999C528.641,314.519,530.471,318.115,533.343,320.5z"/>
</g>
<g>
	<path d="M645.86,317.943h-24v2h24c2.205,0,4,1.794,4,4s-1.795,4-4,4v2c3.314,0,6-2.686,6-6
		C651.86,320.63,649.175,317.943,645.86,317.943z"/>
	<path d="M663.36,315.943v-0.051c2.523-0.254,4.5-2.358,4.5-4.949c0-2.762-2.238-5-5-5v2c1.654,0,3,1.346,3,3s-1.346,3-3,3
		c-0.043,0-0.083-0.011-0.126-0.013h-4.862c0.004,0.005,0.009,0.009,0.012,0.013h-0.023v2H663.36z"/>
	<path d="M666.86,317.943h-13v2h9.022c-0.003,0.004-0.007,0.008-0.011,0.013h3.862c0.043-0.002,0.083-0.013,0.126-0.013
		c1.654,0,3,1.346,3,3s-1.346,3-3,3v2c2.762,0,5-2.238,5-5S669.622,317.943,666.86,317.943z"/>
	<path d="M634.694,315.943h15.166c3.314,0,6-2.687,6-6c0-3.314-2.686-6-6-6v2c2.205,0,4,1.794,4,4s-1.795,4-4,4h-12.586
		c-2.596-1.188-4.658-3.339-5.69-6.034c0.849,0.204,1.724,0.309,2.612,0.309c6.168,0,11.187-5.019,11.187-11.188
		c0-1.276-0.22-2.532-0.64-3.717c4.046,1.102,7.168,4.459,7.937,8.63h2.018c-0.964-6.237-6.338-11.016-12.846-11.016
		c-0.259,0-0.511,0.024-0.766,0.039c1.425,1.618,2.297,3.737,2.297,6.063c0,5.072-4.112,9.188-9.187,9.188
		c-1.988,0-3.826-0.641-5.33-1.715c0.162,3.801,1.962,7.165,4.699,9.44H621.86v2h12.012H634.694z"/>
</g>
<g>
	<path d="M-73.921,403.137h-20c-1.103,0-2-0.897-2-2s0.897-2,2-2h3.445h0.555v-2h-4c-2.209,0-4,1.791-4,4s1.791,4,4,4h20
		c2.205,0,4,1.794,4,4s-1.795,4-4,4v2c3.314,0,6-2.686,6-6C-67.921,405.823-70.606,403.137-73.921,403.137z"/>
	<path d="M-71.921,387.137v2c2.205,0,4,1.794,4,4s-1.795,4-4,4h-15.988v2h15.988c3.314,0,6-2.687,6-6
		C-65.921,389.822-68.606,387.137-71.921,387.137z"/>
	<path d="M-65.921,399.137v2h5.5v-0.051c2.523-0.254,4.5-2.358,4.5-4.949c0-2.762-2.238-5-5-5v2c1.654,0,3,1.346,3,3s-1.346,3-3,3
		c-0.043,0-0.083-0.011-0.126-0.013h-4.862c0.003,0.005,0.009,0.009,0.012,0.013H-65.921z"/>
	<path d="M-54.921,403.137h-11v2h7.022c-0.004,0.004-0.008,0.008-0.011,0.013h3.862c0.043-0.002,0.083-0.013,0.126-0.013
		c1.654,0,3,1.346,3,3s-1.346,3-3,3v2c2.762,0,5-2.238,5-5S-52.159,403.137-54.921,403.137z"/>
</g>
<path d="M462.371,389.483v-0.038h-38.376c-1.103,0-2-0.897-2-2s0.897-2,2-2h33c2.762,0,5-2.238,5-5s-2.238-5-5-5H419.12v0.008
	c-0.042-0.001-0.083-0.008-0.125-0.008c-2.762,0-5,2.238-5,5s2.238,5,5,5v-2c-1.654,0-3-1.346-3-3s1.346-3,3-3h0.125h3.853h34.022
	c1.654,0,3,1.346,3,3s-1.346,3-3,3h-33c-2.209,0-4,1.791-4,4s1.791,4,4,4h38c1.103,0,2,0.897,2,2s-0.897,2-2,2h-32
	c-2.209,0-4,1.791-4,4s1.791,4,4,4h22c1.103,0,2,0.897,2,2s-0.897,2-2,2h-24.01v0.001c-2.204,0.006-3.99,1.793-3.99,3.999
	s1.786,3.993,3.99,3.999v0.001h12.01c1.103,0,2,0.897,2,2s-0.897,2-2,2h-2c-2.209,0-4,1.791-4,4s1.791,4,4,4v-2
	c-1.103,0-2-0.897-2-2s0.897-2,2-2h2c2.209,0,4-1.791,4-4s-1.791-4-4-4h-12c-1.103,0-2-0.897-2-2s0.897-2,2-2h24
	c2.209,0,4-1.791,4-4c0-2.152-1.704-3.895-3.834-3.983v-0.017h-22.166c-1.103,0-2-0.897-2-2s0.897-2,2-2h32c2.209,0,4-1.791,4-4
	C465.995,391.365,464.401,389.676,462.371,389.483z"/>
<path d="M647.786,380.161v-2.024h-2v2.024c-13.01,0.513-23.462,10.965-23.975,23.976h1.674c1.14-1.222,2.748-2,4.551-2
	c2.26,0,4.233,1.203,5.331,3h1.838c1.098-1.797,3.071-3,5.331-3c2.204,0,4.137,1.144,5.25,2.866v15.134c0,2.21,1.791,4,4,4
	s4-1.79,4-4h-2c0,1.103-0.897,2-2,2s-2-0.897-2-2v-15.134c1.113-1.723,3.046-2.866,5.25-2.866c2.26,0,4.233,1.203,5.331,3h1.838
	c1.098-1.797,3.071-3,5.331-3c1.803,0,3.411,0.778,4.551,2h1.674C671.248,391.126,660.796,380.674,647.786,380.161z
	 M665.536,400.137c-2.496,0-4.736,1.114-6.25,2.87c-1.514-1.756-3.754-2.87-6.25-2.87s-4.736,1.114-6.25,2.87
	c-1.514-1.756-3.754-2.87-6.25-2.87s-4.736,1.114-6.25,2.87c-1.514-1.756-3.755-2.87-6.25-2.87c-1.402,0-2.731,0.351-3.897,0.975
	c1.909-10.769,11.339-18.975,22.647-18.975s20.738,8.206,22.647,18.975C668.268,400.487,666.938,400.137,665.536,400.137z"/>
<g>
	<path d="M242.491,504.449v-17.105c0-2.762-2.238-5-5-5s-5,2.238-5,5v17.105c-1.236,1.263-2,2.988-2,4.895c0,3.866,3.134,7,7,7
		s7-3.134,7-7C244.491,507.438,243.728,505.712,242.491,504.449z M237.491,514.344c-2.757,0-5-2.243-5-5
		c0-1.313,0.508-2.554,1.429-3.495l0.571-0.583v-0.816v-17.105c0-1.654,1.346-3,3-3s3,1.346,3,3v17.105v0.816l0.571,0.583
		c0.921,0.941,1.429,2.183,1.429,3.495C242.491,512.101,240.248,514.344,237.491,514.344z"/>
	<path d="M238.491,506.52v-15.176h-2v15.176c-1.167,0.413-2.008,1.516-2.008,2.824c0,1.662,1.347,3.008,3.008,3.008
		c1.662,0,3.008-1.346,3.008-3.008C240.499,508.035,239.659,506.933,238.491,506.52z M237.491,510.352
		c-0.556,0-1.008-0.452-1.008-1.008s0.452-1.008,1.008-1.008s1.008,0.452,1.008,1.008S238.047,510.352,237.491,510.352z"/>
</g>
<g>
	<path d="M342.279,504.449v-17.105c0-2.762-2.238-5-5-5s-5,2.238-5,5v17.105c-1.236,1.263-2,2.988-2,4.895c0,3.866,3.134,7,7,7
		s7-3.134,7-7C344.279,507.438,343.516,505.712,342.279,504.449z M337.279,514.344c-2.757,0-5-2.243-5-5
		c0-1.313,0.508-2.554,1.429-3.495l0.571-0.583v-0.816v-17.105c0-1.654,1.346-3,3-3s3,1.346,3,3v17.105v0.816l0.571,0.583
		c0.921,0.941,1.429,2.183,1.429,3.495C342.279,512.101,340.036,514.344,337.279,514.344z"/>
	<path d="M338.279,506.52v-20.176h-2v20.176c-1.167,0.413-2.008,1.516-2.008,2.824c0,1.662,1.347,3.008,3.008,3.008
		c1.662,0,3.008-1.346,3.008-3.008C340.287,508.035,339.447,506.933,338.279,506.52z M337.279,510.352
		c-0.556,0-1.008-0.452-1.008-1.008s0.452-1.008,1.008-1.008s1.008,0.452,1.008,1.008S337.835,510.352,337.279,510.352z"/>
</g>
<g>
	<path d="M139.382,504.449v-17.105c0-2.762-2.238-5-5-5s-5,2.238-5,5v17.105c-1.236,1.263-2,2.988-2,4.895c0,3.866,3.134,7,7,7
		s7-3.134,7-7C141.382,507.438,140.618,505.712,139.382,504.449z M134.382,514.344c-2.757,0-5-2.243-5-5
		c0-1.313,0.508-2.554,1.429-3.495l0.571-0.583v-0.816v-17.105c0-1.654,1.346-3,3-3s3,1.346,3,3v17.105v0.816l0.571,0.583
		c0.921,0.941,1.429,2.183,1.429,3.495C139.382,512.101,137.139,514.344,134.382,514.344z"/>
	<path d="M135.382,506.52v-10.176h-2v10.176c-1.167,0.413-2.008,1.516-2.008,2.824c0,1.662,1.347,3.008,3.008,3.008
		c1.662,0,3.008-1.346,3.008-3.008C137.39,508.035,136.55,506.933,135.382,506.52z M134.382,510.352
		c-0.556,0-1.008-0.452-1.008-1.008s0.452-1.008,1.008-1.008s1.008,0.452,1.008,1.008S134.938,510.352,134.382,510.352z"/>
</g>
<g>
	<path d="M35.736,504.449v-17.105c0-2.762-2.238-5-5-5s-5,2.238-5,5v17.105c-1.236,1.263-2,2.988-2,4.895c0,3.866,3.134,7,7,7
		s7-3.134,7-7C37.736,507.438,36.973,505.712,35.736,504.449z M30.736,514.344c-2.757,0-5-2.243-5-5
		c0-1.313,0.508-2.554,1.429-3.495l0.571-0.583v-0.816v-17.105c0-1.654,1.346-3,3-3s3,1.346,3,3v17.105v0.816l0.571,0.583
		c0.921,0.941,1.429,2.183,1.429,3.495C35.736,512.101,33.493,514.344,30.736,514.344z"/>
	<path d="M31.736,506.52v-5.176h-2v5.176c-1.167,0.413-2.008,1.516-2.008,2.824c0,1.662,1.347,3.008,3.008,3.008
		c1.662,0,3.008-1.346,3.008-3.008C33.744,508.035,32.904,506.933,31.736,506.52z M30.736,510.352c-0.556,0-1.008-0.452-1.008-1.008
		s0.452-1.008,1.008-1.008s1.008,0.452,1.008,1.008S31.292,510.352,30.736,510.352z"/>
</g>
<g>
	<path d="M-68.921,504.449v-17.105c0-2.762-2.238-5-5-5s-5,2.238-5,5v17.105c-1.236,1.263-2,2.988-2,4.895c0,3.866,3.134,7,7,7
		s7-3.134,7-7C-66.921,507.438-67.685,505.712-68.921,504.449z M-73.921,514.344c-2.757,0-5-2.243-5-5
		c0-1.313,0.508-2.554,1.429-3.495l0.571-0.583v-0.816v-17.105c0-1.654,1.346-3,3-3s3,1.346,3,3v17.105v0.816l0.571,0.583
		c0.921,0.941,1.429,2.183,1.429,3.495C-68.921,512.101-71.164,514.344-73.921,514.344z"/>
	<path d="M-73.921,506.336c-1.661,0-3.008,1.347-3.008,3.008c0,1.662,1.347,3.008,3.008,3.008c1.662,0,3.008-1.346,3.008-3.008
		C-70.913,507.683-72.259,506.336-73.921,506.336z M-73.921,510.352c-0.556,0-1.008-0.452-1.008-1.008s0.452-1.008,1.008-1.008
		s1.008,0.452,1.008,1.008S-73.365,510.352-73.921,510.352z"/>
</g>
<g>
	<path d="M431.004,484.656c-2.209,0-4,1.791-4,4c0,2.21,1.791,4,4,4c2.211,0,4-1.79,4-4
		C435.004,486.447,433.215,484.656,431.004,484.656z M431.004,490.656c-1.103,0-2-0.897-2-2s0.897-2,2-2s2,0.897,2,2
		S432.106,490.656,431.004,490.656z"/>
	<path d="M445.004,512.656c-4.41,0-7.999-3.589-7.999-7.999v-4.002c0-4.41,3.589-7.999,7.999-7.999c2.715,0,5.115,1.362,6.563,3.437
		l1.43-1.43c-1.824-2.429-4.72-4.007-7.992-4.007c-5.522,0-9.999,4.478-9.999,9.999v4.002c0,5.521,4.477,9.999,9.999,9.999
		c3.272,0,6.168-1.579,7.992-4.008l-1.43-1.43C450.12,511.293,447.72,512.656,445.004,512.656z"/>
</g>
<g>
	<path d="M535.7,484.535c-2.209,0-4,1.791-4,4c0,2.21,1.791,4,4,4c2.211,0,4-1.79,4-4C539.7,486.326,537.911,484.535,535.7,484.535z
		 M535.7,490.535c-1.103,0-2-0.897-2-2s0.897-2,2-2s2,0.897,2,2S536.803,490.535,535.7,490.535z"/>
	<polygon points="555.575,492.656 555.575,490.656 543.575,490.656 541.575,490.656 541.575,514.656 543.575,514.656 
		543.575,502.656 551.575,502.656 551.575,500.656 543.575,500.656 543.575,492.656 	"/>
</g>
<g>
	<path d="M646.786,488.348c-7.179,0-13,5.82-13,13s5.821,13,13,13s13-5.82,13-13S653.965,488.348,646.786,488.348z M646.786,512.348
		c-6.065,0-11-4.935-11-11s4.935-11,11-11s11,4.935,11,11S652.852,512.348,646.786,512.348z"/>
	<path d="M642.52,505.59l6.363-2.121l2.121-6.364l-6.363,2.122L642.52,505.59z M646.222,500.808l1.62-0.54l-0.54,1.62l-1.62,0.54
		L646.222,500.808z"/>
</g>
<g>
	<path d="M-73.921,578.865c-7.179,0-13,5.82-13,13s5.821,13,13,13s13-5.82,13-13S-66.742,578.865-73.921,578.865z M-73.921,602.865
		c-6.065,0-11-4.934-11-11c0-6.064,4.935-11,11-11s11,4.936,11,11C-62.921,597.932-67.855,602.865-73.921,602.865z"/>
	<path d="M-71.359,590.287l-2.586-4.422l-2.529,4.33h0.007c-0.299,0.467-0.478,1.018-0.478,1.613c0,1.656,1.343,3,3,3s3-1.344,3-3
		c0-0.559-0.162-1.074-0.428-1.521H-71.359z M-73.945,592.809c-0.552,0-1-0.449-1-1c0-0.188,0.055-0.367,0.162-0.535l0.864-1.355
		l0.826,1.391c0.098,0.164,0.147,0.332,0.147,0.5C-72.945,592.359-73.394,592.809-73.945,592.809z"/>
</g>
<g>
	<path d="M30.863,578.865c-7.18,0-13,5.82-13,13s5.82,13,13,13s13-5.82,13-13S38.043,578.865,30.863,578.865z M30.863,602.865
		c-6.065,0-11-4.934-11-11c0-6.064,4.935-11,11-11s11,4.936,11,11C41.863,597.932,36.929,602.865,30.863,602.865z"/>
	<path d="M32.452,589.285c-0.467-0.299-1.018-0.477-1.613-0.477c-1.658,0-3,1.342-3,3c0,1.656,1.342,3,3,3
		c0.557,0,1.072-0.162,1.52-0.428v0.014l4.422-2.586l-4.328-2.529V589.285z M31.337,592.66c-0.164,0.098-0.332,0.148-0.498,0.148
		c-0.552,0-1-0.449-1-1c0-0.553,0.448-1,1-1c0.188,0,0.368,0.053,0.535,0.16l1.355,0.865L31.337,592.66z"/>
</g>
<g>
	<path d="M133.914,578.865c-7.18,0-13,5.82-13,13s5.82,13,13,13s13-5.82,13-13S141.094,578.865,133.914,578.865z M133.914,602.865
		c-6.065,0-11-4.934-11-11c0-6.064,4.935-11,11-11s11,4.936,11,11C144.914,597.932,139.979,602.865,133.914,602.865z"/>
	<path d="M133.914,588.809c-1.656,0-3,1.342-3,3c0,0.557,0.162,1.072,0.428,1.52h-0.014l2.586,4.422l2.529-4.328h-0.006
		c0.299-0.467,0.477-1.018,0.477-1.613C136.914,590.15,135.572,588.809,133.914,588.809z M134.753,592.344l-0.865,1.355
		l-0.826-1.393c-0.098-0.164-0.147-0.332-0.147-0.498c0-0.553,0.448-1,1-1s1,0.447,1,1
		C134.914,591.996,134.86,592.176,134.753,592.344z"/>
</g>
<g>
	<path d="M237.328,578.865c-7.179,0-13,5.82-13,13s5.821,13,13,13s13-5.82,13-13S244.507,578.865,237.328,578.865z M237.328,602.865
		c-6.065,0-11-4.934-11-11c0-6.064,4.935-11,11-11s11,4.936,11,11C248.328,597.932,243.394,602.865,237.328,602.865z"/>
	<path d="M237.287,588.809c-0.557,0-1.072,0.162-1.52,0.428v-0.014l-4.422,2.586l4.328,2.529v-0.006
		c0.467,0.299,1.018,0.477,1.613,0.477c1.658,0,3-1.342,3-3C240.287,590.152,238.945,588.809,237.287,588.809z M237.287,592.809
		c-0.188,0-0.368-0.055-0.535-0.162l-1.355-0.865l1.393-0.826c0.164-0.098,0.332-0.146,0.498-0.146c0.552,0,1,0.447,1,1
		C238.287,592.359,237.839,592.809,237.287,592.809z"/>
</g>
<g>
	<rect x="29.177" y="382.137" width="2" height="10"/>
	<rect x="43.877" y="388.223" transform="matrix(0.7071 0.7071 -0.7071 0.7071 291.3391 83.4997)" width="2" height="10.409"/>
	<rect x="10.268" y="392.432" transform="matrix(0.7071 0.7071 -0.7071 0.7071 282.7302 104.2932)" width="10.409" height="2"/>
	<polygon points="23.509,411.391 24.923,412.805 29.177,408.551 29.177,418.137 31.177,418.137 31.177,408.551 35.43,412.805 
		36.844,411.391 30.177,404.723 	"/>
	<path d="M43.184,408.136c0-0.002,0-0.004,0-0.006c0-7.18-5.82-12.999-13-12.999s-13,5.819-13,12.999c0,0.002,0,0.004,0,0.006h-13v2
		h18v-2h-3c0-0.002,0-0.004,0-0.006c0-6.064,4.935-10.999,11-10.999s11,4.935,11,10.999c0,0.002,0,0.004,0,0.006h-3v2h17.995v-2
		H43.184z"/>
</g>
<g>
	<rect x="132.922" y="380.949" width="2" height="10"/>
	<rect x="147.622" y="387.035" transform="matrix(0.7071 0.7071 -0.7071 0.7071 320.8856 9.793)" width="2" height="10.409"/>
	<rect x="114.013" y="391.245" transform="matrix(0.7071 0.7071 -0.7071 0.7071 312.2768 30.5865)" width="10.409" height="2"/>
	<polygon points="134.922,415.496 134.922,404.949 132.922,404.949 132.922,415.496 128.668,411.242 127.254,412.656 
		133.922,419.324 140.589,412.656 139.175,411.242 	"/>
	<path d="M146.929,406.948c0-0.002,0-0.004,0-0.006c0-7.18-5.82-12.999-13-12.999s-13,5.819-13,12.999c0,0.002,0,0.004,0,0.006h-13
		v2h22v-2h-7c0-0.002,0-0.004,0-0.006c0-6.064,4.935-10.999,11-10.999s11,4.935,11,10.999c0,0.002,0,0.004,0,0.006h-7v2h21.995v-2
		H146.929z"/>
</g>
<g>
	<polygon points="337.279,414.962 337.279,400.579 335.279,400.579 335.279,414.962 331.025,410.708 329.611,412.122 
		336.279,418.79 342.946,412.122 341.532,410.708 	"/>
	<path d="M352.907,395.608c-1.596-7.445-8.207-13.029-16.127-13.029c-6.423,0-11.977,3.678-14.702,9.035
		c-0.266-0.018-0.53-0.04-0.8-0.04c-6.627,0-11.999,5.372-11.999,12c0,6.607,5.34,11.965,11.938,11.998v0.003h6.062v-2h-5.604
		l-0.447-0.003c-5.485-0.027-9.948-4.513-9.948-9.998c0-5.514,4.485-10,9.999-10c0.175,0,0.347,0.014,0.52,0.025l0.148,0.01
		l1.316,0.088l0.598-1.176c2.492-4.899,7.443-7.942,12.92-7.942c6.79,0,12.75,4.814,14.172,11.448l0.317,1.482l1.514,0.095
		c4.203,0.262,7.496,3.763,7.496,7.971c0,4.397-3.565,7.977-7.957,8c-0.05-0.003-0.093-0.005-0.137-0.007l-2.043,0.007h-4.863v2
		h6.863v-0.007c0.046,0.001,0.091,0.007,0.137,0.007c5.521,0,10-4.477,10-10C362.279,400.265,358.135,395.934,352.907,395.608z"/>
</g>
<g>
	<polygon points="243.264,411.767 244.678,410.353 238.011,403.685 231.343,410.353 232.757,411.767 237.011,407.513 
		237.011,420.099 239.011,420.099 239.011,407.513 	"/>
	<path d="M254.639,397.204c-1.596-7.445-8.207-13.029-16.127-13.029c-6.423,0-11.977,3.678-14.702,9.035
		c-0.266-0.018-0.53-0.04-0.8-0.04c-6.627,0-11.999,5.372-11.999,12c0,6.607,5.34,11.965,11.938,11.998v0.003h10.062v-2h-9.604
		l-0.447-0.003c-5.485-0.027-9.948-4.513-9.948-9.998c0-5.514,4.485-10,9.999-10c0.175,0,0.347,0.014,0.52,0.025l0.148,0.01
		l1.316,0.088l0.598-1.176c2.492-4.899,7.443-7.942,12.92-7.942c6.79,0,12.75,4.814,14.172,11.448l0.317,1.482l1.514,0.095
		c4.203,0.262,7.496,3.763,7.496,7.971c0,4.397-3.565,7.977-7.957,8c-0.05-0.003-0.093-0.005-0.137-0.007l-2.043,0.007h-8.863v2
		h10.863v-0.007c0.046,0.001,0.091,0.007,0.137,0.007c5.521,0,10-4.477,10-10C264.011,401.86,259.866,397.529,254.639,397.204z"/>
</g>
<g>
	<path d="M457.128,207.688c-1.596-7.445-8.207-13.029-16.127-13.029c-6.423,0-11.977,3.678-14.702,9.035
		c-0.266-0.018-0.53-0.04-0.8-0.04c-6.627,0-11.999,5.372-11.999,12c0,6.607,5.34,11.965,11.938,11.998v0.003h2.062v-2h-1.604
		l-0.447-0.003c-5.485-0.027-9.948-4.513-9.948-9.998c0-5.514,4.485-10,9.999-10c0.175,0,0.347,0.014,0.52,0.025l0.148,0.01
		l1.316,0.088l0.598-1.176c2.492-4.899,7.443-7.942,12.92-7.942c6.79,0,12.75,4.814,14.172,11.448l0.317,1.482l1.514,0.095
		c4.203,0.262,7.496,3.763,7.496,7.971c0,4.397-3.565,7.977-7.957,8c-0.05-0.003-0.093-0.005-0.137-0.007l-2.043,0.007H453.5v2
		h2.863v-0.007c0.046,0.001,0.091,0.007,0.137,0.007c5.521,0,10-4.477,10-10C466.5,212.345,462.355,208.014,457.128,207.688z"/>
	<polygon points="435.5,226.677 435.5,224.047 437.673,225.27 438.358,224.049 435.889,222.659 438.358,221.27 437.673,220.049 
		435.5,221.271 435.5,218.677 433.5,218.677 433.5,221.315 431.249,220.049 430.563,221.27 433.033,222.659 430.563,224.049 
		431.249,225.27 433.5,224.003 433.5,226.677 	"/>
	<polygon points="440.662,231.031 438.489,232.254 438.489,229.659 436.489,229.659 436.489,232.298 434.238,231.031 
		433.553,232.252 436.022,233.642 433.553,235.031 434.238,236.252 436.489,234.985 436.489,237.659 438.489,237.659 
		438.489,235.029 440.662,236.252 441.348,235.031 438.878,233.642 441.348,232.252 	"/>
	<polygon points="449.678,224.049 447.505,225.271 447.505,222.677 445.505,222.677 445.505,225.315 443.254,224.049 
		442.568,225.27 445.038,226.659 442.568,228.049 443.254,229.27 445.505,228.003 445.505,230.677 447.505,230.677 447.505,228.047 
		449.678,229.27 450.363,228.049 447.894,226.659 450.363,225.27 	"/>
</g>
<g>
	<rect x="532.64" y="189.637" width="2" height="7.973"/>
	<rect x="513.64" y="208.551" width="7.973" height="2"/>
	<rect x="518.313" y="197.284" transform="matrix(0.7071 0.7071 -0.7071 0.7071 293.1862 -311.2456)" width="7.974" height="2"/>
	<rect x="543.821" y="194.302" transform="matrix(0.7071 0.7071 -0.7071 0.7071 299.7853 -327.1696)" width="2" height="7.972"/>
	<path d="M563.151,215.427c-1.444-6.742-7.433-11.8-14.605-11.8c-2.185,0-4.258,0.471-6.127,1.314
		c-1.666-3.203-5.006-5.395-8.865-5.395c-5.522,0-10,4.477-10,9.999c0,2.46,0.899,4.702,2.373,6.442
		c-1.428,1.84-2.287,4.144-2.287,6.653c0,5.983,4.836,10.836,10.813,10.865v0.003h1.188v-2h-0.721l-0.457-0.003
		c-4.864-0.023-8.822-4.001-8.822-8.865c0-4.89,3.978-8.868,8.867-8.868c0.15,0,0.299,0.012,0.447,0.022l0.148,0.01l1.314,0.085
		l0.597-1.175c2.225-4.372,6.644-7.089,11.532-7.089c6.062,0,11.382,4.298,12.649,10.219l0.318,1.483l1.514,0.094
		c3.708,0.23,6.612,3.319,6.612,7.03c0,3.878-3.144,7.035-7.017,7.057c-0.042-0.003-0.079-0.005-0.117-0.005l-1.866,0.005v2h1.819
		v-0.006c0.042,0.001,0.082,0.006,0.124,0.006c5.001,0,9.057-4.054,9.057-9.057C571.64,219.644,567.886,215.722,563.151,215.427z
		 M535.231,211.81c-0.241-0.016-0.48-0.036-0.725-0.036c-2.766,0-5.282,1.041-7.2,2.742c-1.092-1.365-1.753-3.089-1.753-4.97
		c0-4.41,3.589-7.999,8-7.999c3.092,0,5.76,1.773,7.091,4.346C538.347,207.332,536.468,209.38,535.231,211.81z"/>
	<polygon points="542.632,232.529 542.632,229.899 544.805,231.122 545.49,229.901 543.021,228.512 545.49,227.122 544.805,225.901 
		542.632,227.124 542.632,224.529 540.632,224.529 540.632,227.168 538.381,225.901 537.695,227.122 540.165,228.512 
		537.695,229.901 538.381,231.122 540.632,229.855 540.632,232.529 	"/>
	<polygon points="547.794,236.884 545.621,238.106 545.621,235.512 543.621,235.512 543.621,238.15 541.37,236.884 540.685,238.104 
		543.154,239.494 540.685,240.884 541.37,242.104 543.621,240.838 543.621,243.512 545.621,243.512 545.621,240.882 
		547.794,242.104 548.479,240.884 546.01,239.494 548.479,238.104 	"/>
	<polygon points="556.81,229.901 554.637,231.124 554.637,228.529 552.637,228.529 552.637,231.168 550.386,229.901 549.7,231.122 
		552.17,232.512 549.7,233.901 550.386,235.122 552.637,233.855 552.637,236.529 554.637,236.529 554.637,233.899 556.81,235.122 
		557.495,233.901 555.025,232.512 557.495,231.122 	"/>
</g>
<g>
	<path d="M663.34,212.424c-1.444-6.742-7.433-11.8-14.605-11.8c-1.799,0-3.522,0.32-5.118,0.904
		c-0.949-5.108-5.404-8.98-10.788-8.98c-0.413,0-0.819,0.027-1.222,0.071c0.744,1.112,1.179,2.448,1.179,3.886c0,3.865-3.134,7-7,7
		c-1.438,0-2.773-0.435-3.886-1.179c-0.044,0.401-0.071,0.809-0.071,1.222c0,3.713,1.845,6.987,4.661,8.979
		c-1.653,1.907-2.661,4.389-2.661,7.111c0,5.983,4.836,10.836,10.813,10.865v0.003h1.188v-2h-0.721l-0.457-0.003
		c-4.864-0.023-8.822-4.001-8.822-8.865c0-4.89,3.978-8.868,8.867-8.868c0.15,0,0.299,0.012,0.447,0.022l0.148,0.01l1.314,0.085
		l0.597-1.175c2.225-4.372,6.644-7.089,11.532-7.089c6.062,0,11.382,4.298,12.649,10.219l0.318,1.483l1.514,0.094
		c3.708,0.23,6.612,3.319,6.612,7.03c0,3.878-3.144,7.035-7.017,7.057c-0.042-0.003-0.079-0.005-0.117-0.005l-1.866,0.005v2h1.819
		v-0.006c0.042,0.001,0.082,0.006,0.124,0.006c5.001,0,9.057-4.054,9.057-9.057C671.828,216.641,668.074,212.719,663.34,212.424z
		 M635.42,208.807c-0.241-0.016-0.48-0.036-0.725-0.036c-2.537,0-4.865,0.877-6.715,2.334c-2.012-1.294-3.486-3.354-3.976-5.776
		c0.582,0.117,1.178,0.177,1.78,0.177c4.963,0,9-4.037,9-9c0-0.603-0.06-1.198-0.177-1.78c3.733,0.753,6.629,3.824,7.134,7.64
		C639.029,203.809,636.814,206.063,635.42,208.807z"/>
	<polygon points="642.865,229.526 642.865,226.896 645.038,228.119 645.724,226.898 643.254,225.509 645.724,224.119 
		645.038,222.898 642.865,224.121 642.865,221.526 640.865,221.526 640.865,224.165 638.614,222.898 637.929,224.119 
		640.398,225.509 637.929,226.898 638.614,228.119 640.865,226.853 640.865,229.526 	"/>
	<polygon points="648.027,233.881 645.854,235.104 645.854,232.509 643.854,232.509 643.854,235.147 641.604,233.881 
		640.918,235.102 643.388,236.491 640.918,237.881 641.604,239.102 643.854,237.835 643.854,240.509 645.854,240.509 
		645.854,237.879 648.027,239.102 648.713,237.881 646.243,236.491 648.713,235.102 	"/>
	<polygon points="657.043,226.898 654.87,228.121 654.87,225.526 652.87,225.526 652.87,228.165 650.619,226.898 649.934,228.119 
		652.403,229.509 649.934,230.898 650.619,232.119 652.87,230.853 652.87,233.526 654.87,233.526 654.87,230.896 657.043,232.119 
		657.729,230.898 655.259,229.509 657.729,228.119 	"/>
</g>
<rect x="46.981" y="-355.326" fill="none" width="472.974" height="180.918"/>
<text transform="matrix(1 0 0 1 226.6187 -283.9272)"><tspan x="0" y="0" font-family="'HelveticaNeueLTStd-Th'" font-size="100" letter-spacing="2">60</tspan><tspan x="-99.268" y="60" font-family="'HelveticaNeueLTStd-Lt'" font-size="48" letter-spacing="1">Weather Icons</tspan><tspan x="-3.726" y="104" font-family="'HelveticaNeueLTStd-Lt'" font-size="24">IOS 7 Style</tspan></text>
</svg>
