<?xml version="1.0" encoding="utf-8"?>
<!-- Generator: Adobe Illustrator 16.0.0, SVG Export Plug-In . SVG Version: 6.00 Build 0)  -->
<!DOCTYPE svg PUBLIC "-//W3C//DTD SVG 1.1//EN" "http://www.w3.org/Graphics/SVG/1.1/DTD/svg11.dtd">
<svg version="1.1" id="Layer_1" xmlns="http://www.w3.org/2000/svg" xmlns:xlink="http://www.w3.org/1999/xlink" x="0px" y="0px"
	 width="50px" height="51.959px" viewBox="0 0 50 51.959" enable-background="new 0 0 50 51.959" xml:space="preserve">
<path d="M-74.378,471.233l-1.803,15.077l-0.268,2.237h2.254h6.896l-14.693,18.759l1.789-14.52l0.277-2.245h-2.262h-6.957
	L-74.378,471.233 M-71.523,464.209l-21.667,28.333h11.004l-2.671,21.667l21.667-27.661h-11.004L-71.523,464.209L-71.523,464.209z"/>
<path d="M-487.413,8.973c6.79,0,12.749,4.814,14.171,11.448l0.318,1.483l1.514,0.094c4.203,0.262,7.496,3.763,7.496,7.971
	c0,4.396-3.565,7.977-7.957,8c-0.046-0.003-0.091-0.006-0.137-0.007l-2.043-0.036v0.043h-28.337l-0.578-0.003
	c-5.485-0.027-9.948-4.513-9.948-9.998c0-5.514,4.485-10,9.999-10c0.175,0,0.347,0.014,0.519,0.025l0.149,0.011l1.316,0.087
	l0.598-1.176C-497.84,12.016-492.89,8.973-487.413,8.973 M-487.413,6.973c-6.423,0-11.977,3.678-14.702,9.035
	c-0.266-0.018-0.53-0.04-0.8-0.04c-6.627,0-11.999,5.372-11.999,12c0,6.607,5.34,11.965,11.938,11.998v0.003h30.925v-0.007
	c0.046,0.001,0.091,0.007,0.137,0.007c5.521,0,10-4.477,10-10c0-5.311-4.145-9.642-9.372-9.967
	C-472.882,12.557-479.493,6.973-487.413,6.973L-487.413,6.973z"/>
<g>
	<path d="M-364.462,27.384c-1.444-6.742-7.433-11.8-14.605-11.8c-2.185,0-4.258,0.47-6.127,1.313
		c-1.666-3.202-5.006-5.394-8.865-5.394c-5.522,0-10,4.477-10,9.999c0,2.46,0.898,4.702,2.373,6.442
		c-1.428,1.84-2.287,4.144-2.287,6.653c0,5.983,4.836,10.836,10.813,10.865v0.003h28.007v-0.006
		c0.042,0.001,0.082,0.006,0.124,0.006c5.001,0,9.057-4.054,9.057-9.057C-355.974,31.601-359.728,27.679-364.462,27.384z
		 M-394.06,13.504c3.092,0,5.76,1.773,7.092,4.345c-2.299,1.44-4.178,3.488-5.414,5.918c-0.241-0.016-0.48-0.036-0.725-0.036
		c-2.766,0-5.281,1.041-7.2,2.743c-1.092-1.366-1.753-3.09-1.753-4.971C-402.06,17.093-398.471,13.504-394.06,13.504z
		 M-364.99,43.467c-0.038-0.003-0.077-0.004-0.117-0.005l-2.047-0.042v0.047h-25.403l-0.594-0.003
		c-4.864-0.023-8.822-4.001-8.822-8.865c0-4.89,3.978-8.868,8.867-8.868c0.15,0,0.299,0.012,0.447,0.021l0.148,0.011l1.314,0.085
		l0.598-1.174c2.224-4.373,6.643-7.09,11.531-7.09c6.062,0,11.381,4.298,12.65,10.219l0.317,1.482l1.514,0.095
		c3.708,0.231,6.612,3.319,6.612,7.03C-357.974,40.288-361.117,43.444-364.99,43.467z"/>
	<rect x="-395.054" y="1.474" width="2" height="7.973"/>
	<rect x="-414.026" y="20.46" width="7.973" height="2"/>
	<rect x="-409.301" y="9.241" transform="matrix(0.7071 0.7071 -0.7071 0.7071 -111.4719 289.5995)" width="7.974" height="2"/>
	<rect x="-383.792" y="6.259" transform="matrix(0.7071 0.7071 -0.7071 0.7071 -104.8728 273.6755)" width="2" height="7.972"/>
</g>
<path d="M-268.719,23.356c-1.444-6.742-7.433-11.8-14.605-11.8c-1.799,0-3.521,0.32-5.118,0.904
	c-0.949-5.108-5.404-8.98-10.788-8.98c-0.413,0-0.819,0.027-1.222,0.071c0.744,1.112,1.179,2.448,1.179,3.886c0,3.865-3.134,7-7,7
	c-1.438,0-2.773-0.435-3.886-1.179c-0.044,0.401-0.071,0.809-0.071,1.222c0,3.712,1.845,6.987,4.661,8.979
	c-1.653,1.907-2.661,4.389-2.661,7.111c0,5.983,4.836,10.836,10.813,10.865v0.003h28.007v-0.006
	c0.042,0.001,0.082,0.006,0.124,0.006c5.001,0,9.057-4.054,9.057-9.057C-260.23,27.573-263.984,23.651-268.719,23.356z
	 M-308.054,16.261c0.582,0.117,1.178,0.177,1.78,0.177c4.963,0,9-4.037,9-9c0-0.603-0.06-1.198-0.177-1.78
	c3.733,0.753,6.629,3.824,7.134,7.64c-2.713,1.444-4.928,3.699-6.322,6.442c-0.241-0.016-0.48-0.036-0.725-0.036
	c-2.537,0-4.865,0.876-6.715,2.334C-306.09,20.743-307.564,18.684-308.054,16.261z M-269.247,39.439
	c-0.038-0.003-0.077-0.004-0.117-0.005l-2.047-0.042v0.047h-25.403l-0.594-0.003c-4.864-0.023-8.822-4.001-8.822-8.865
	c0-4.89,3.978-8.868,8.867-8.868c0.15,0,0.299,0.012,0.447,0.021l0.148,0.011l1.314,0.085l0.598-1.174
	c2.224-4.373,6.643-7.09,11.531-7.09c6.062,0,11.381,4.298,12.65,10.219l0.317,1.482l1.514,0.095
	c3.708,0.231,6.612,3.319,6.612,7.03C-262.23,36.261-265.374,39.417-269.247,39.439z"/>
<g>
	<rect x="-184.073" y="31.979" width="2" height="7"/>
	<rect x="-176.073" y="27.979" width="2" height="7"/>
	<rect x="-192.073" y="27.979" width="2" height="7"/>
	<rect x="-184.073" y="41.979" width="2" height="7"/>
	<rect x="-176.073" y="37.979" width="2" height="7"/>
	<rect x="-192.073" y="37.979" width="2" height="7"/>
	<path d="M-165.445,14.991c-1.596-7.445-8.207-13.029-16.127-13.029c-6.423,0-11.977,3.678-14.702,9.035
		c-0.266-0.018-0.53-0.04-0.8-0.04c-6.627,0-11.999,5.372-11.999,12c0,6.607,5.34,11.965,11.938,11.998v0.003h2.062v-2h-1.604
		l-0.447-0.003c-5.485-0.027-9.948-4.513-9.948-9.998c0-5.514,4.485-10,9.999-10c0.175,0,0.347,0.014,0.52,0.025l0.148,0.01
		l1.316,0.088l0.598-1.176c2.492-4.899,7.443-7.942,12.92-7.942c6.79,0,12.75,4.814,14.172,11.448l0.317,1.482l1.514,0.095
		c4.203,0.262,7.496,3.763,7.496,7.971c0,4.397-3.565,7.977-7.957,8c-0.05-0.003-0.093-0.005-0.137-0.007l-2.043,0.007h-2.863v2
		h4.863v-0.007c0.046,0.001,0.091,0.007,0.137,0.007c5.521,0,10-4.477,10-10C-156.073,19.647-160.218,15.316-165.445,14.991z"/>
</g>
<g>
	<path d="M-367.872,104.349c-1.596-7.445-8.207-13.029-16.127-13.029c-6.423,0-11.977,3.678-14.702,9.035
		c-0.266-0.018-0.53-0.04-0.8-0.04c-6.627,0-11.999,5.372-11.999,12c0,6.607,5.34,11.965,11.938,11.998v0.003h2.062v-2h-1.604
		l-0.447-0.003c-5.485-0.027-9.948-4.513-9.948-9.998c0-5.514,4.485-10,9.999-10c0.175,0,0.347,0.014,0.52,0.025l0.148,0.01
		l1.316,0.088l0.598-1.176c2.492-4.899,7.443-7.942,12.92-7.942c6.79,0,12.75,4.814,14.172,11.448l0.317,1.482l1.514,0.095
		c4.203,0.262,7.496,3.763,7.496,7.971c0,4.397-3.565,7.977-7.957,8c-0.05-0.003-0.093-0.005-0.137-0.007l-2.043,0.007h-2.863v2
		h4.863v-0.007c0.046,0.001,0.091,0.007,0.137,0.007c5.521,0,10-4.477,10-10C-358.5,109.005-362.645,104.674-367.872,104.349z"/>
	<polygon points="-386.5,131.344 -386.5,133.284 -386.5,139.344 -384.5,139.344 -384.5,133.284 -384.5,131.344 -384.5,119.344 
		-386.5,119.344 	"/>
	<polygon points="-378.5,127.344 -378.5,129.097 -378.5,135.344 -376.5,135.344 -376.5,129.097 -376.5,127.344 -376.5,115.344 
		-378.5,115.344 	"/>
	<polygon points="-394.5,127.344 -394.5,129.409 -394.5,135.344 -392.5,135.344 -392.5,129.409 -392.5,127.344 -392.5,115.344 
		-394.5,115.344 	"/>
</g>
<g>
	<polygon points="-72.223,128.255 -79.105,118.425 -80.743,119.572 -73.86,129.402 -72.748,130.991 -69.272,135.955 
		-67.634,134.809 -71.109,129.844 	"/>
	<polygon points="-64.221,128.253 -71.105,118.425 -72.743,119.573 -65.857,129.401 -64.853,130.837 -61.269,135.952 
		-59.63,134.806 -63.214,129.689 	"/>
	<polygon points="-80.223,128.255 -87.105,118.425 -88.743,119.573 -81.86,129.402 -80.676,131.095 -77.271,135.956 
		-75.634,134.809 -79.037,129.947 	"/>
	<path d="M-61.115,104.615c-1.596-7.445-8.207-13.029-16.127-13.029c-6.423,0-11.977,3.678-14.702,9.035
		c-0.266-0.018-0.53-0.04-0.8-0.04c-6.627,0-11.999,5.372-11.999,12c0,6.607,5.34,11.965,11.938,11.998v0.003h2.062v-2h-1.604
		l-0.447-0.003c-5.485-0.027-9.948-4.513-9.948-9.998c0-5.514,4.485-10,9.999-10c0.175,0,0.347,0.014,0.52,0.025l0.148,0.01
		l1.316,0.088l0.598-1.176c2.492-4.899,7.443-7.942,12.92-7.942c6.79,0,12.75,4.814,14.172,11.448l0.317,1.482l1.514,0.095
		c4.203,0.262,7.496,3.763,7.496,7.971c0,4.397-3.565,7.977-7.957,8c-0.05-0.003-0.093-0.005-0.137-0.007l-1.043,0.007h0.137v2
		h0.863v-0.007c0.046,0.001,0.091,0.007,0.137,0.007c5.521,0,10-4.477,10-10C-51.743,109.271-55.888,104.94-61.115,104.615z"/>
</g>
<g>
	<rect x="-89.417" y="-4.467" width="2" height="7.973"/>
	<rect x="-108.417" y="14.447" width="7.973" height="2"/>
	<rect x="-103.744" y="3.181" transform="matrix(0.7071 0.7071 -0.7071 0.7071 -26.2619 71.7632)" width="7.974" height="2"/>
	<rect x="-78.235" y="0.199" transform="matrix(0.7071 0.7071 -0.7071 0.7071 -19.6628 55.8393)" width="2" height="7.972"/>
	<rect x="-75.417" y="36.406" width="2" height="7"/>
	<rect x="-67.417" y="32.406" width="2" height="7"/>
	<rect x="-83.417" y="32.406" width="2" height="7"/>
	<rect x="-75.417" y="46.406" width="2" height="7"/>
	<rect x="-67.417" y="42.406" width="2" height="7"/>
	<rect x="-83.417" y="42.406" width="2" height="7"/>
	<path d="M-58.905,21.323c-1.444-6.742-7.433-11.8-14.605-11.8c-2.185,0-4.258,0.47-6.126,1.313
		c-1.667-3.202-5.007-5.394-8.866-5.394c-5.522,0-10,4.477-10,9.999c0,2.46,0.899,4.702,2.373,6.442
		c-1.429,1.84-2.287,4.144-2.287,6.653c0,5.983,4.836,10.836,10.813,10.865v0.003h1.188v-2h-0.721l-0.457-0.003
		c-4.864-0.023-8.822-4.001-8.822-8.865c0-4.89,3.978-8.868,8.867-8.868c0.15,0,0.299,0.012,0.447,0.022l0.148,0.01l1.314,0.085
		l0.597-1.175c2.225-4.372,6.644-7.089,11.532-7.089c6.062,0,11.382,4.298,12.649,10.219l0.318,1.483l1.514,0.094
		c3.708,0.23,6.612,3.319,6.612,7.03c0,3.878-3.144,7.035-7.017,7.057c-0.042-0.003-0.079-0.005-0.117-0.005l-2.047,0.005h-0.819v2
		h2.819V39.4c0.042,0.001,0.082,0.006,0.124,0.006c5.001,0,9.057-4.054,9.057-9.057C-50.417,25.54-54.171,21.618-58.905,21.323z
		 M-86.825,17.706c-0.241-0.016-0.48-0.036-0.725-0.036c-2.766,0-5.282,1.041-7.2,2.743c-1.092-1.366-1.753-3.09-1.753-4.971
		c0-4.41,3.589-7.999,8-7.999c3.091,0,5.76,1.773,7.091,4.345C-83.71,13.229-85.59,15.276-86.825,17.706z"/>
</g>
<g>
	<rect x="25" y="34.959" width="2" height="7"/>
	<rect x="33" y="30.959" width="2" height="7"/>
	<rect x="17" y="30.959" width="2" height="7"/>
	<rect x="25" y="44.959" width="2" height="7"/>
	<rect x="33" y="40.959" width="2" height="7"/>
	<rect x="17" y="40.959" width="2" height="7"/>
	<path d="M41.512,19.876c-1.444-6.742-7.433-11.8-14.605-11.8c-1.799,0-3.522,0.32-5.118,0.904C20.839,3.872,16.384,0,11,0
		c-0.413,0-0.819,0.027-1.222,0.071c0.744,1.112,1.179,2.448,1.179,3.886c0,3.865-3.134,7-7,7c-1.438,0-2.773-0.435-3.886-1.179
		C0.027,10.18,0,10.587,0,11c0,3.712,1.845,6.987,4.661,8.979C3.008,21.887,2,24.368,2,27.091c0,5.983,4.836,10.836,10.813,10.865
		v0.003H14v-2h-0.721l-0.457-0.003C7.958,35.933,4,31.955,4,27.091c0-4.89,3.978-8.868,8.867-8.868c0.15,0,0.299,0.012,0.447,0.022
		l0.148,0.01l1.314,0.085l0.597-1.175c2.225-4.372,6.644-7.089,11.532-7.089c6.062,0,11.382,4.298,12.649,10.219l0.318,1.483
		l1.514,0.094c3.708,0.23,6.612,3.319,6.612,7.03c0,3.878-3.144,7.035-7.017,7.057c-0.042-0.003-0.079-0.005-0.117-0.005
		l-2.047,0.005H38v2h2.819v-0.006c0.042,0.001,0.082,0.006,0.124,0.006c5.001,0,9.057-4.054,9.057-9.057
		C50,24.093,46.246,20.171,41.512,19.876z M13.592,16.259c-0.241-0.016-0.48-0.036-0.725-0.036c-2.537,0-4.865,0.876-6.715,2.334
		c-2.012-1.294-3.487-3.354-3.976-5.776c0.582,0.117,1.178,0.177,1.78,0.177c4.963,0,9-4.037,9-9c0-0.603-0.06-1.198-0.177-1.78
		c3.733,0.753,6.629,3.824,7.133,7.64C17.202,11.261,14.987,13.516,13.592,16.259z"/>
</g>
<g>
	<polygon points="-282.23,135.782 -282.23,137.723 -282.23,143.782 -280.23,143.782 -280.23,137.723 -280.23,135.782 
		-280.23,123.782 -282.23,123.782 	"/>
	<polygon points="-274.23,131.782 -274.23,133.535 -274.23,139.782 -272.23,139.782 -272.23,133.535 -272.23,131.782 
		-272.23,119.782 -274.23,119.782 	"/>
	<polygon points="-290.23,131.782 -290.23,133.848 -290.23,139.782 -288.23,139.782 -288.23,133.848 -288.23,131.782 
		-288.23,119.782 -290.23,119.782 	"/>
	<rect x="-296.23" y="84.88" width="2" height="7.973"/>
	<rect x="-315.23" y="103.794" width="7.973" height="2"/>
	<rect x="-310.557" y="92.527" transform="matrix(0.7071 0.7071 -0.7071 0.7071 -23.6586 244.1715)" width="7.974" height="2"/>
	<rect x="-285.049" y="89.545" transform="matrix(0.7071 0.7071 -0.7071 0.7071 -17.0594 228.2475)" width="2" height="7.972"/>
	<path d="M-265.719,110.67c-1.444-6.742-7.433-11.8-14.605-11.8c-2.185,0-4.258,0.47-6.127,1.313
		c-1.666-3.202-5.006-5.394-8.865-5.394c-5.522,0-10,4.477-10,9.999c0,2.46,0.898,4.702,2.373,6.442
		c-1.428,1.84-2.287,4.144-2.287,6.653c0,5.983,4.836,10.836,10.813,10.865v0.003h1.188v-2h-0.721l-0.457-0.003
		c-4.864-0.023-8.822-4.001-8.822-8.865c0-4.89,3.978-8.868,8.867-8.868c0.15,0,0.299,0.012,0.447,0.022l0.148,0.01l1.314,0.085
		l0.597-1.175c2.225-4.372,6.644-7.089,11.532-7.089c6.062,0,11.382,4.298,12.649,10.219l0.318,1.483l1.514,0.094
		c3.708,0.23,6.612,3.319,6.612,7.03c0,3.878-3.144,7.035-7.017,7.057c-0.042-0.003-0.079-0.005-0.117-0.005l-2.047,0.005h-0.819v2
		h2.819v-0.006c0.042,0.001,0.082,0.006,0.124,0.006c5.001,0,9.057-4.054,9.057-9.057
		C-257.23,114.887-260.984,110.965-265.719,110.67z M-293.639,107.053c-0.241-0.016-0.48-0.036-0.725-0.036
		c-2.766,0-5.281,1.042-7.2,2.743c-1.092-1.367-1.753-3.09-1.753-4.971c0-4.41,3.589-7.999,8-7.999c3.092,0,5.76,1.773,7.092,4.345
		C-290.523,102.574-292.402,104.623-293.639,107.053z"/>
</g>
<g>
	<polygon points="-181.833,133.266 -181.833,135.206 -181.833,141.266 -179.833,141.266 -179.833,135.206 -179.833,133.266 
		-179.833,121.266 -181.833,121.266 	"/>
	<polygon points="-173.833,129.266 -173.833,131.019 -173.833,137.266 -171.833,137.266 -171.833,131.019 -171.833,129.266 
		-171.833,117.266 -173.833,117.266 	"/>
	<polygon points="-189.833,129.266 -189.833,131.331 -189.833,137.266 -187.833,137.266 -187.833,131.331 -187.833,129.266 
		-187.833,117.266 -189.833,117.266 	"/>
	<path d="M-165.321,108.153c-1.444-6.742-7.433-11.8-14.605-11.8c-1.799,0-3.521,0.32-5.118,0.904
		c-0.949-5.108-5.404-8.98-10.788-8.98c-0.413,0-0.819,0.027-1.222,0.071c0.744,1.112,1.179,2.448,1.179,3.886c0,3.865-3.134,7-7,7
		c-1.438,0-2.773-0.435-3.886-1.179c-0.044,0.401-0.071,0.809-0.071,1.222c0,3.712,1.845,6.987,4.661,8.979
		c-1.653,1.907-2.661,4.389-2.661,7.111c0,5.983,4.836,10.836,10.813,10.865v0.003h1.188v-2h-0.721l-0.457-0.003
		c-4.864-0.023-8.822-4.001-8.822-8.865c0-4.89,3.978-8.868,8.867-8.868c0.15,0,0.299,0.012,0.447,0.022l0.148,0.01l1.314,0.085
		l0.597-1.175c2.225-4.372,6.644-7.089,11.532-7.089c6.062,0,11.382,4.298,12.649,10.219l0.318,1.483l1.514,0.094
		c3.708,0.23,6.612,3.319,6.612,7.03c0,3.878-3.144,7.035-7.017,7.057c-0.042-0.003-0.079-0.005-0.117-0.005l-2.047,0.005h-0.819v2
		h2.819v-0.006c0.042,0.001,0.082,0.006,0.124,0.006c5.001,0,9.057-4.054,9.057-9.057
		C-156.833,112.37-160.587,108.448-165.321,108.153z M-193.241,104.536c-0.241-0.016-0.48-0.036-0.725-0.036
		c-2.537,0-4.865,0.876-6.715,2.334c-2.012-1.294-3.486-3.354-3.976-5.776c0.582,0.117,1.178,0.177,1.78,0.177c4.963,0,9-4.037,9-9
		c0-0.603-0.06-1.198-0.177-1.78c3.733,0.753,6.629,3.824,7.134,7.641C-189.632,99.538-191.847,101.794-193.241,104.536z"/>
</g>
<g>
	<polygon points="35.202,134.21 28.319,124.38 26.682,125.527 33.564,135.357 34.677,136.946 38.152,141.91 39.791,140.764 
		36.315,135.799 	"/>
	<polygon points="43.204,134.208 36.319,124.38 34.682,125.528 41.567,135.356 42.572,136.792 46.156,141.907 47.795,140.761 
		44.211,135.645 	"/>
	<polygon points="27.202,134.21 20.319,124.38 18.682,125.528 25.564,135.357 26.749,137.05 30.153,141.911 31.791,140.764 
		28.388,135.902 	"/>
	<rect x="14.682" y="86.661" width="2" height="7.973"/>
	<rect x="-4.318" y="105.575" width="7.973" height="2"/>
	<rect x="0.355" y="94.309" transform="matrix(0.7071 0.7071 -0.7071 0.7071 68.665 24.8451)" width="7.974" height="2"/>
	<rect x="25.863" y="91.327" transform="matrix(0.7071 0.7071 -0.7071 0.7071 75.2642 8.9212)" width="2" height="7.972"/>
	<path d="M45.193,112.451c-1.444-6.742-7.433-11.8-14.605-11.8c-2.185,0-4.258,0.47-6.126,1.313
		c-1.667-3.202-5.007-5.394-8.866-5.394c-5.522,0-10,4.477-10,9.999c0,2.46,0.899,4.702,2.373,6.442
		c-1.429,1.84-2.287,4.144-2.287,6.653c0,5.983,4.836,10.836,10.813,10.865v0.003h1.188v-2h-0.721l-0.457-0.003
		c-4.864-0.023-8.822-4.001-8.822-8.865c0-4.89,3.978-8.868,8.867-8.868c0.15,0,0.299,0.012,0.447,0.022l0.148,0.01l1.314,0.085
		l0.597-1.175c2.225-4.372,6.644-7.089,11.532-7.089c6.062,0,11.382,4.298,12.649,10.219l0.318,1.483l1.514,0.094
		c3.708,0.23,6.612,3.319,6.612,7.03c0,3.878-3.144,7.035-7.017,7.057c-0.042-0.003-0.079-0.005-0.117-0.005l-0.047,0.005h-0.819v2
		h0.819v-0.006c0.042,0.001,0.082,0.006,0.124,0.006c5.001,0,9.057-4.054,9.057-9.057C53.682,116.668,49.928,112.746,45.193,112.451
		z M17.273,108.834c-0.241-0.016-0.48-0.036-0.725-0.036c-2.766,0-5.282,1.042-7.2,2.743c-1.092-1.367-1.753-3.09-1.753-4.971
		c0-4.41,3.589-7.999,8-7.999c3.091,0,5.76,1.773,7.091,4.345C20.389,104.355,18.509,106.404,17.273,108.834z"/>
</g>
<g>
	<polygon points="-688.229,230.695 -695.111,220.865 -696.749,222.013 -689.866,231.843 -688.754,233.432 -685.278,238.396 
		-683.64,237.249 -687.115,232.284 	"/>
	<polygon points="-680.227,230.693 -687.111,220.865 -688.749,222.014 -681.863,231.842 -680.858,233.277 -677.274,238.393 
		-675.636,237.246 -679.22,232.13 	"/>
	<polygon points="-696.229,230.695 -703.111,220.865 -704.749,222.014 -697.866,231.843 -696.682,233.535 -693.277,238.396 
		-691.64,237.249 -695.043,232.388 	"/>
	<path d="M-678.237,208.937c-1.444-6.742-7.433-11.8-14.605-11.8c-1.799,0-3.522,0.32-5.118,0.904
		c-0.949-5.108-5.404-8.98-10.788-8.98c-0.413,0-0.819,0.027-1.222,0.071c0.744,1.112,1.179,2.448,1.179,3.886c0,3.865-3.134,7-7,7
		c-1.438,0-2.773-0.435-3.886-1.179c-0.044,0.401-0.071,0.809-0.071,1.222c0,3.712,1.845,6.987,4.661,8.979
		c-1.653,1.907-2.661,4.389-2.661,7.111c0,5.983,4.836,10.836,10.813,10.865v0.003h1.188v-2h-0.721l-0.457-0.003
		c-4.864-0.023-8.822-4.001-8.822-8.865c0-4.89,3.978-8.868,8.867-8.868c0.15,0,0.299,0.012,0.447,0.022l0.148,0.01l1.314,0.085
		l0.597-1.175c2.225-4.372,6.644-7.089,11.532-7.089c6.062,0,11.382,4.298,12.649,10.219l0.318,1.483l1.514,0.094
		c3.708,0.23,6.612,3.319,6.612,7.03c0,3.878-3.144,7.035-7.017,7.057c-0.042-0.003-0.079-0.005-0.117-0.005l-0.047,0.005h-0.819v2
		h0.819v-0.006c0.042,0.001,0.082,0.006,0.124,0.006c5.001,0,9.057-4.054,9.057-9.057
		C-669.749,213.153-673.503,209.231-678.237,208.937z M-706.157,205.319c-0.241-0.016-0.48-0.036-0.725-0.036
		c-2.537,0-4.865,0.876-6.715,2.334c-2.012-1.294-3.487-3.354-3.976-5.776c0.582,0.117,1.178,0.177,1.78,0.177c4.963,0,9-4.037,9-9
		c0-0.603-0.06-1.198-0.177-1.78c3.733,0.753,6.629,3.824,7.133,7.641C-702.547,200.321-704.762,202.577-706.157,205.319z"/>
</g>
<g>
	<rect x="-695.749" y="126.849" width="2" height="4"/>
	<rect x="-687.749" y="122.827" width="2" height="4.021"/>
	<rect x="-703.749" y="122.827" width="2" height="4.021"/>
	<path d="M-677.121,106.86c-1.596-7.445-8.207-13.029-16.127-13.029c-6.423,0-11.977,3.678-14.702,9.035
		c-0.266-0.018-0.53-0.04-0.8-0.04c-6.627,0-11.999,5.372-11.999,12c0,6.607,5.34,11.965,11.938,11.998v0.003h2.062v-2h-1.604
		l-0.447-0.003c-5.485-0.027-9.948-4.513-9.948-9.998c0-5.514,4.485-10,9.999-10c0.175,0,0.347,0.014,0.52,0.025l0.148,0.01
		l1.316,0.088l0.598-1.176c2.492-4.899,7.443-7.942,12.92-7.942c6.79,0,12.75,4.814,14.172,11.448l0.317,1.482l1.514,0.095
		c4.203,0.262,7.496,3.763,7.496,7.971c0,4.397-3.565,7.977-7.957,8c-0.05-0.003-0.093-0.005-0.137-0.007l-2.043,0.007h-2.863v2
		h4.863v-0.007c0.046,0.001,0.091,0.007,0.137,0.007c5.521,0,10-4.477,10-10C-667.749,111.517-671.894,107.186-677.121,106.86z"/>
	<circle cx="-686.749" cy="131.869" r="1.5"/>
	<circle cx="-694.749" cy="135.838" r="1.5"/>
	<circle cx="-702.749" cy="131.827" r="1.5"/>
</g>
<g>
	<rect x="-602.828" y="87.395" width="2" height="7.973"/>
	<rect x="-621.828" y="106.309" width="7.973" height="2"/>
	<rect x="-617.155" y="95.042" transform="matrix(0.7071 0.7071 -0.7071 0.7071 -111.6808 461.7053)" width="7.974" height="2"/>
	<rect x="-591.646" y="92.06" transform="matrix(0.7071 0.7071 -0.7071 0.7071 -105.0817 445.7813)" width="2" height="7.972"/>
	<path d="M-572.316,113.185c-1.444-6.742-7.433-11.8-14.605-11.8c-2.185,0-4.258,0.47-6.126,1.313
		c-1.667-3.202-5.007-5.394-8.866-5.394c-5.522,0-10,4.477-10,9.999c0,2.46,0.899,4.702,2.373,6.442
		c-1.429,1.84-2.287,4.144-2.287,6.653c0,5.983,4.836,10.836,10.813,10.865v0.003h1.188v-2h-0.721l-0.457-0.003
		c-4.864-0.023-8.822-4.001-8.822-8.865c0-4.89,3.978-8.868,8.867-8.868c0.15,0,0.299,0.012,0.447,0.022l0.148,0.01l1.314,0.085
		l0.597-1.175c2.225-4.372,6.644-7.089,11.532-7.089c6.062,0,11.382,4.298,12.649,10.219l0.318,1.483l1.514,0.094
		c3.708,0.23,6.612,3.319,6.612,7.03c0,3.878-3.144,7.035-7.017,7.057c-0.042-0.003-0.079-0.005-0.117-0.005l-2.047,0.005h-0.819v2
		h2.819v-0.006c0.042,0.001,0.082,0.006,0.124,0.006c5.001,0,9.057-4.054,9.057-9.057
		C-563.828,117.401-567.582,113.479-572.316,113.185z M-600.236,109.567c-0.241-0.016-0.48-0.036-0.725-0.036
		c-2.766,0-5.282,1.042-7.2,2.743c-1.092-1.367-1.753-3.09-1.753-4.971c0-4.41,3.589-7.999,8-7.999c3.091,0,5.76,1.773,7.091,4.345
		C-597.121,105.089-599.001,107.138-600.236,109.567z"/>
	<rect x="-588.828" y="131.283" width="2" height="4"/>
	<rect x="-580.828" y="127.262" width="2" height="4.021"/>
	<rect x="-596.828" y="127.262" width="2" height="4.021"/>
	<circle cx="-579.828" cy="136.304" r="1.5"/>
	<circle cx="-587.828" cy="140.272" r="1.5"/>
	<circle cx="-595.828" cy="136.262" r="1.5"/>
</g>
<g>
	<path d="M-471.391,112.228c-1.444-6.742-7.433-11.8-14.605-11.8c-1.799,0-3.522,0.32-5.118,0.904
		c-0.949-5.108-5.404-8.98-10.788-8.98c-0.413,0-0.819,0.027-1.222,0.071c0.744,1.112,1.179,2.448,1.179,3.886c0,3.865-3.134,7-7,7
		c-1.438,0-2.773-0.435-3.886-1.179c-0.044,0.401-0.071,0.809-0.071,1.222c0,3.712,1.845,6.987,4.661,8.979
		c-1.653,1.907-2.661,4.389-2.661,7.111c0,5.983,4.836,10.836,10.813,10.865v0.003h1.188v-2h-0.721l-0.457-0.003
		c-4.864-0.023-8.822-4.001-8.822-8.865c0-4.89,3.978-8.868,8.867-8.868c0.15,0,0.299,0.012,0.447,0.022l0.148,0.01l1.314,0.085
		l0.597-1.175c2.225-4.372,6.644-7.089,11.532-7.089c6.062,0,11.382,4.298,12.649,10.219l0.318,1.483l1.514,0.094
		c3.708,0.23,6.612,3.319,6.612,7.03c0,3.878-3.144,7.035-7.017,7.057c-0.042-0.003-0.079-0.005-0.117-0.005l-2.047,0.005h-0.819v2
		h2.819v-0.006c0.042,0.001,0.082,0.006,0.124,0.006c5.001,0,9.057-4.054,9.057-9.057
		C-462.902,116.444-466.656,112.522-471.391,112.228z M-499.311,108.61c-0.241-0.016-0.48-0.036-0.725-0.036
		c-2.537,0-4.865,0.876-6.715,2.334c-2.012-1.294-3.487-3.354-3.976-5.776c0.582,0.117,1.178,0.177,1.78,0.177c4.963,0,9-4.037,9-9
		c0-0.603-0.06-1.198-0.177-1.78c3.733,0.753,6.629,3.824,7.133,7.641C-495.7,103.612-497.915,105.868-499.311,108.61z"/>
	<rect x="-487.902" y="130.326" width="2" height="4"/>
	<rect x="-479.902" y="126.305" width="2" height="4.021"/>
	<rect x="-495.902" y="126.305" width="2" height="4.021"/>
	<circle cx="-478.902" cy="135.347" r="1.5"/>
	<circle cx="-486.902" cy="139.315" r="1.5"/>
	<circle cx="-494.902" cy="135.305" r="1.5"/>
</g>
<g>
	<path d="M-574.7,205.258c-1.596-7.445-8.207-13.029-16.127-13.029c-6.423,0-11.977,3.678-14.702,9.035
		c-0.266-0.018-0.53-0.04-0.8-0.04c-6.627,0-11.999,5.372-11.999,12c0,6.607,5.34,11.965,11.938,11.998v0.003h6.062v-2h-5.604
		l-0.447-0.003c-5.485-0.027-9.948-4.513-9.948-9.998c0-5.514,4.485-10,9.999-10c0.175,0,0.347,0.014,0.52,0.025l0.148,0.01
		l1.316,0.088l0.598-1.176c2.492-4.899,7.443-7.942,12.92-7.942c6.79,0,12.75,4.814,14.172,11.448l0.317,1.482l1.514,0.095
		c4.203,0.262,7.496,3.763,7.496,7.971c0,4.397-3.565,7.977-7.957,8c-0.05-0.003-0.093-0.005-0.137-0.007l-5.043,0.007h0.137v2
		h4.863v-0.007c0.046,0.001,0.091,0.007,0.137,0.007c5.521,0,10-4.477,10-10C-565.328,209.914-569.473,205.583-574.7,205.258z"/>
	<polygon points="-590.486,225.229 -588.717,225.229 -588.286,225.229 -586.276,225.229 -592.69,216.067 -594.328,217.215 
		-590.117,223.229 -591.888,223.229 -594.328,223.229 -593.057,225.045 -591.944,226.634 -585.967,235.229 -584.328,234.082 
		-590.306,225.486 	"/>
</g>
<g>
	<rect x="-498.902" y="186.128" width="2" height="7.973"/>
	<rect x="-517.902" y="205.042" width="7.973" height="2"/>
	<rect x="-513.229" y="193.775" transform="matrix(0.7071 0.7071 -0.7071 0.7071 -11.4266 417.137)" width="7.974" height="2"/>
	<rect x="-487.721" y="190.794" transform="matrix(0.7071 0.7071 -0.7071 0.7071 -4.8274 401.213)" width="2" height="7.972"/>
	<path d="M-468.391,211.918c-1.444-6.742-7.433-11.8-14.605-11.8c-2.185,0-4.258,0.47-6.127,1.313
		c-1.666-3.202-5.006-5.394-8.865-5.394c-5.522,0-10,4.477-10,9.999c0,2.46,0.898,4.702,2.373,6.442
		c-1.428,1.84-2.287,4.144-2.287,6.653c0,5.983,4.836,10.836,10.813,10.865v0.003h4.188v-2h-3.721l-0.457-0.003
		c-4.864-0.023-8.822-4.001-8.822-8.865c0-4.89,3.978-8.868,8.867-8.868c0.15,0,0.299,0.012,0.447,0.022l0.148,0.01l1.314,0.085
		l0.597-1.175c2.225-4.372,6.644-7.089,11.532-7.089c6.062,0,11.382,4.298,12.649,10.219l0.318,1.483l1.514,0.094
		c3.708,0.23,6.612,3.319,6.612,7.03c0,3.878-3.144,7.035-7.017,7.057c-0.042-0.003-0.079-0.005-0.117-0.005l-2.047,0.005h-3.819v2
		h5.819v-0.006c0.042,0.001,0.082,0.006,0.124,0.006c5.001,0,9.057-4.054,9.057-9.057
		C-459.902,216.135-463.656,212.213-468.391,211.918z M-496.311,208.301c-0.241-0.016-0.48-0.036-0.725-0.036
		c-2.766,0-5.281,1.041-7.2,2.743c-1.092-1.366-1.753-3.09-1.753-4.971c0-4.41,3.589-7.999,8-7.999c3.092,0,5.76,1.773,7.092,4.345
		C-493.195,203.823-495.074,205.871-496.311,208.301z"/>
	<polygon points="-484.061,230.008 -482.291,230.008 -481.86,230.008 -479.851,230.008 -486.265,220.847 -487.902,221.994 
		-483.691,228.008 -485.462,228.008 -487.902,228.008 -486.631,229.824 -485.519,231.413 -479.541,240.008 -477.902,238.861 
		-483.88,230.266 	"/>
</g>
<g>
	<path d="M-368.806,209.622c-1.444-6.742-7.433-11.8-14.605-11.8c-1.799,0-3.521,0.32-5.118,0.904
		c-0.949-5.108-5.404-8.98-10.788-8.98c-0.413,0-0.819,0.027-1.222,0.071c0.744,1.112,1.179,2.448,1.179,3.886c0,3.865-3.134,7-7,7
		c-1.438,0-2.773-0.435-3.886-1.179c-0.044,0.401-0.071,0.809-0.071,1.222c0,3.712,1.845,6.987,4.661,8.979
		c-1.653,1.907-2.661,4.389-2.661,7.111c0,5.983,4.836,10.836,10.813,10.865v0.003h4.188v-2h-3.721l-0.457-0.003
		c-4.864-0.023-8.822-4.001-8.822-8.865c0-4.89,3.978-8.868,8.867-8.868c0.15,0,0.299,0.012,0.447,0.022l0.148,0.01l1.314,0.085
		l0.597-1.175c2.225-4.372,6.644-7.089,11.532-7.089c6.062,0,11.382,4.298,12.649,10.219l0.318,1.483l1.514,0.094
		c3.708,0.23,6.612,3.319,6.612,7.03c0,3.878-3.144,7.035-7.017,7.057c-0.042-0.003-0.079-0.005-0.117-0.005l-2.047,0.005h-3.819v2
		h5.819v-0.006c0.042,0.001,0.082,0.006,0.124,0.006c5.001,0,9.057-4.054,9.057-9.057
		C-360.317,213.839-364.071,209.917-368.806,209.622z M-396.726,206.005c-0.241-0.016-0.48-0.036-0.725-0.036
		c-2.537,0-4.865,0.876-6.715,2.334c-2.012-1.294-3.486-3.354-3.976-5.776c0.582,0.117,1.178,0.177,1.78,0.177c4.963,0,9-4.037,9-9
		c0-0.603-0.06-1.198-0.177-1.78c3.733,0.753,6.629,3.824,7.134,7.64C-393.116,201.007-395.331,203.262-396.726,206.005z"/>
	<polygon points="-384.476,227.712 -382.706,227.712 -382.275,227.712 -380.266,227.712 -386.68,218.551 -388.317,219.698 
		-384.106,225.712 -385.877,225.712 -388.317,225.712 -387.046,227.528 -385.934,229.117 -379.956,237.712 -378.317,236.565 
		-384.295,227.97 	"/>
</g>
<g>
	<path d="M-267.921,205.758c-1.596-7.445-8.207-13.029-16.127-13.029c-6.423,0-11.977,3.678-14.702,9.035
		c-0.266-0.018-0.53-0.04-0.8-0.04c-6.627,0-11.999,5.372-11.999,12c0,6.607,5.34,11.965,11.938,11.998v0.003h1.062v-2h-0.604
		l-0.447-0.003c-5.485-0.027-9.948-4.513-9.948-9.998c0-5.514,4.485-10,9.999-10c0.175,0,0.347,0.014,0.52,0.025l0.148,0.01
		l1.316,0.088l0.598-1.176c2.492-4.899,7.443-7.942,12.92-7.942c6.79,0,12.75,4.814,14.172,11.448l0.317,1.482l1.514,0.095
		c4.203,0.262,7.496,3.763,7.496,7.971c0,4.397-3.565,7.977-7.957,8c-0.05-0.003-0.093-0.005-0.137-0.007l-0.906,0.007v2h0.863
		v-0.007c0.046,0.001,0.091,0.007,0.137,0.007c5.521,0,10-4.477,10-10C-258.549,210.414-262.693,206.083-267.921,205.758z"/>
	
		<rect x="-299.115" y="223.723" transform="matrix(-0.5736 -0.8191 0.8191 -0.5736 -645.9708 113.2042)" width="11.183" height="1.999"/>
	
		<rect x="-281.14" y="223.723" transform="matrix(-0.5736 -0.8191 0.8191 -0.5736 -617.6853 127.9273)" width="11.183" height="1.999"/>
	<polygon points="-282.707,228.729 -280.938,228.729 -280.507,228.729 -278.497,228.729 -284.911,219.567 -286.549,220.715 
		-282.338,226.729 -284.108,226.729 -286.549,226.729 -285.277,228.545 -284.165,230.134 -279.549,236.729 -277.91,235.582 
		-282.526,228.986 	"/>
</g>
<g>
	<rect x="-193.073" y="186.291" width="2" height="7.973"/>
	<rect x="-212.073" y="205.205" width="7.973" height="2"/>
	<rect x="-207.4" y="193.939" transform="matrix(0.7071 0.7071 -0.7071 0.7071 78.264 200.9309)" width="7.974" height="2"/>
	<rect x="-181.891" y="190.957" transform="matrix(0.7071 0.7071 -0.7071 0.7071 84.8632 185.007)" width="2" height="7.972"/>
	<path d="M-162.562,212.081c-1.444-6.742-7.433-11.8-14.605-11.8c-2.185,0-4.258,0.47-6.126,1.313
		c-1.667-3.202-5.007-5.394-8.866-5.394c-5.522,0-10,4.477-10,9.999c0,2.46,0.899,4.702,2.373,6.442
		c-1.429,1.84-2.287,4.144-2.287,6.653c0,5.983,4.836,10.836,10.813,10.865v0.003h0.188v-2l-0.178-0.003
		c-4.864-0.023-8.822-4.001-8.822-8.865c0-4.89,3.978-8.868,8.867-8.868c0.15,0,0.299,0.012,0.447,0.022l0.148,0.01l1.314,0.085
		l0.597-1.175c2.225-4.372,6.644-7.089,11.532-7.089c6.062,0,11.382,4.298,12.649,10.219l0.318,1.483l1.514,0.094
		c3.708,0.23,6.612,3.319,6.612,7.03c0,3.878-3.144,7.035-7.017,7.057c-0.042-0.003-0.079-0.005-0.117-0.005l-0.866,0.005v2h0.819
		v-0.006c0.042,0.001,0.082,0.006,0.124,0.006c5.001,0,9.057-4.054,9.057-9.057C-154.073,216.298-157.827,212.376-162.562,212.081z
		 M-190.481,208.464c-0.241-0.016-0.48-0.036-0.725-0.036c-2.766,0-5.282,1.042-7.2,2.743c-1.092-1.367-1.753-3.09-1.753-4.971
		c0-4.41,3.589-7.999,8-7.999c3.091,0,5.76,1.773,7.091,4.345C-187.366,203.985-189.246,206.034-190.481,208.464z"/>
	
		<rect x="-192.652" y="228.161" transform="matrix(-0.5736 -0.8191 0.8191 -0.5736 -482.0724 207.3934)" width="11.183" height="1.999"/>
	
		<rect x="-174.677" y="228.161" transform="matrix(-0.5736 -0.8191 0.8191 -0.5736 -453.7868 222.1166)" width="11.183" height="1.999"/>
	<polygon points="-176.244,233.167 -174.475,233.167 -174.044,233.167 -172.034,233.167 -178.448,224.006 -180.086,225.153 
		-175.875,231.167 -177.646,231.167 -180.086,231.167 -178.814,232.983 -177.702,234.572 -173.086,241.167 -171.447,240.021 
		-176.063,233.425 	"/>
</g>
<g>
	<path d="M-60.724,209.123c-1.444-6.742-7.433-11.8-14.605-11.8c-1.799,0-3.522,0.32-5.118,0.904
		c-0.949-5.108-5.404-8.98-10.788-8.98c-0.413,0-0.819,0.027-1.222,0.071c0.744,1.112,1.179,2.448,1.179,3.886c0,3.865-3.134,7-7,7
		c-1.438,0-2.773-0.435-3.886-1.179c-0.044,0.401-0.071,0.809-0.071,1.222c0,3.712,1.845,6.987,4.661,8.979
		c-1.653,1.907-2.661,4.389-2.661,7.111c0,5.983,4.836,10.836,10.813,10.865v0.003h0.188v-2l-0.178-0.003
		c-4.864-0.023-8.822-4.001-8.822-8.865c0-4.89,3.978-8.868,8.867-8.868c0.15,0,0.299,0.012,0.447,0.022l0.148,0.01l1.314,0.085
		l0.597-1.175c2.225-4.372,6.644-7.089,11.532-7.089c6.062,0,11.382,4.298,12.649,10.219l0.318,1.483l1.514,0.094
		c3.708,0.23,6.612,3.319,6.612,7.03c0,3.878-3.144,7.035-7.017,7.057c-0.042-0.003-0.079-0.005-0.117-0.005l-0.866,0.005v2h0.819
		V227.2c0.042,0.001,0.082,0.006,0.124,0.006c5.001,0,9.057-4.054,9.057-9.057C-52.235,213.34-55.989,209.418-60.724,209.123z
		 M-88.644,205.506c-0.241-0.016-0.48-0.036-0.725-0.036c-2.537,0-4.865,0.876-6.715,2.334c-2.012-1.294-3.487-3.354-3.976-5.776
		c0.582,0.117,1.178,0.177,1.78,0.177c4.963,0,9-4.037,9-9c0-0.603-0.06-1.198-0.177-1.78c3.733,0.753,6.629,3.824,7.133,7.641
		C-85.033,200.508-87.248,202.764-88.644,205.506z"/>
	
		<rect x="-90.815" y="225.203" transform="matrix(-0.5736 -0.8191 0.8191 -0.5736 -319.395 286.1541)" width="11.183" height="1.999"/>
	
		<rect x="-72.84" y="225.203" transform="matrix(-0.5736 -0.8191 0.8191 -0.5736 -291.1094 300.8773)" width="11.183" height="1.999"/>
	<polygon points="-74.407,230.209 -72.638,230.209 -72.207,230.209 -70.197,230.209 -76.611,221.048 -78.249,222.195 
		-74.038,228.209 -75.809,228.209 -78.249,228.209 -76.978,230.025 -75.865,231.614 -71.249,238.209 -69.61,237.063 
		-74.227,230.467 	"/>
</g>
<g>
	<g>
		<path d="M-471.286,295.578c-1.596-7.445-8.207-13.029-16.127-13.029c-6.423,0-11.977,3.678-14.702,9.035
			c-0.266-0.018-0.53-0.04-0.8-0.04c-6.627,0-11.999,5.372-11.999,12c0,6.607,5.34,11.965,11.938,11.998v0.003h2.062v-2h-1.604
			l-0.447-0.003c-5.485-0.027-9.948-4.513-9.948-9.998c0-5.514,4.485-10,9.999-10c0.175,0,0.347,0.014,0.52,0.025l0.148,0.01
			l1.316,0.088l0.598-1.176c2.492-4.899,7.443-7.942,12.92-7.942c6.79,0,12.75,4.814,14.172,11.448l0.317,1.482l1.514,0.095
			c4.203,0.262,7.496,3.763,7.496,7.971c0,4.397-3.565,7.977-7.957,8c-0.05-0.003-0.093-0.005-0.137-0.007l-2.043,0.007h-2.863v2
			h4.863v-0.007c0.046,0.001,0.091,0.007,0.137,0.007c5.521,0,10-4.477,10-10C-461.914,300.234-466.059,295.903-471.286,295.578z"/>
	</g>
	<g>
		<circle cx="-496.414" cy="309.121" r="1.5"/>
	</g>
	<g>
		<circle cx="-492.414" cy="315.045" r="1.5"/>
	</g>
	<g>
		<circle cx="-484.414" cy="315.045" r="1.5"/>
	</g>
	<g>
		<circle cx="-488.414" cy="309.121" r="1.5"/>
	</g>
	<g>
		<circle cx="-480.414" cy="309.121" r="1.5"/>
	</g>
	<g>
		<circle cx="-496.414" cy="321.066" r="1.5"/>
	</g>
	<g>
		<circle cx="-488.414" cy="321.066" r="1.5"/>
	</g>
	<g>
		<circle cx="-480.414" cy="321.066" r="1.5"/>
	</g>
</g>
<g>
	<g>
		<rect x="-395.5" y="280.101" width="2" height="7.973"/>
	</g>
	<g>
		<rect x="-414.5" y="299.015" width="7.973" height="2"/>
	</g>
	<g>
		<rect x="-409.827" y="287.748" transform="matrix(0.7071 0.7071 -0.7071 0.7071 85.308 371.5444)" width="7.974" height="2"/>
	</g>
	<g>
		<rect x="-384.318" y="284.766" transform="matrix(0.7071 0.7071 -0.7071 0.7071 91.9071 355.6205)" width="2" height="7.972"/>
	</g>
	<g>
		<path d="M-364.988,305.891c-1.444-6.742-7.433-11.8-14.605-11.8c-2.185,0-4.258,0.47-6.127,1.313
			c-1.666-3.202-5.006-5.394-8.865-5.394c-5.522,0-10,4.477-10,9.999c0,2.46,0.898,4.702,2.373,6.442
			c-1.428,1.84-2.287,4.144-2.287,6.653c0,5.983,4.836,10.836,10.813,10.865v0.003h1.188v-2h-0.721l-0.457-0.003
			c-4.864-0.023-8.822-4.001-8.822-8.865c0-4.89,3.978-8.868,8.867-8.868c0.15,0,0.299,0.012,0.447,0.022l0.148,0.01l1.314,0.085
			l0.597-1.175c2.225-4.372,6.644-7.089,11.532-7.089c6.062,0,11.382,4.298,12.649,10.219l0.318,1.483l1.514,0.094
			c3.708,0.23,6.612,3.319,6.612,7.03c0,3.878-3.144,7.035-7.017,7.057c-0.042-0.003-0.079-0.005-0.117-0.005l-2.047,0.005h-1.819v2
			h3.819v-0.006c0.042,0.001,0.082,0.006,0.124,0.006c5.001,0,9.057-4.054,9.057-9.057
			C-356.5,310.107-360.254,306.186-364.988,305.891z M-392.908,302.273c-0.241-0.016-0.48-0.036-0.725-0.036
			c-2.766,0-5.281,1.042-7.2,2.743c-1.092-1.367-1.753-3.09-1.753-4.971c0-4.41,3.589-7.999,8-7.999c3.092,0,5.76,1.773,7.092,4.345
			C-389.793,297.795-391.672,299.844-392.908,302.273z"/>
	</g>
	<g>
		<circle cx="-389.011" cy="317.484" r="1.5"/>
	</g>
	<g>
		<circle cx="-385.011" cy="323.484" r="1.5"/>
	</g>
	<g>
		<circle cx="-377.011" cy="323.484" r="1.5"/>
	</g>
	<g>
		<circle cx="-381.011" cy="317.484" r="1.5"/>
	</g>
	<g>
		<circle cx="-373.011" cy="317.484" r="1.5"/>
	</g>
	<g>
		<circle cx="-389.011" cy="329.506" r="1.5"/>
	</g>
	<g>
		<circle cx="-381.011" cy="329.506" r="1.5"/>
	</g>
	<g>
		<circle cx="-373.011" cy="329.506" r="1.5"/>
	</g>
</g>
<g>
	<g>
		<path d="M-269.037,301.935c-1.444-6.742-7.433-11.8-14.605-11.8c-1.799,0-3.521,0.32-5.118,0.904
			c-0.949-5.108-5.404-8.98-10.788-8.98c-0.413,0-0.819,0.027-1.222,0.071c0.744,1.112,1.179,2.448,1.179,3.886c0,3.865-3.134,7-7,7
			c-1.438,0-2.773-0.435-3.886-1.179c-0.044,0.401-0.071,0.809-0.071,1.222c0,3.712,1.845,6.987,4.661,8.979
			c-1.653,1.907-2.661,4.389-2.661,7.111c0,5.983,4.836,10.836,10.813,10.865v0.003h1.188v-2h-0.721l-0.457-0.003
			c-4.864-0.023-8.822-4.001-8.822-8.865c0-4.89,3.978-8.868,8.867-8.868c0.15,0,0.299,0.012,0.447,0.022l0.148,0.01l1.314,0.085
			l0.597-1.175c2.225-4.372,6.644-7.089,11.532-7.089c6.062,0,11.382,4.298,12.649,10.219l0.318,1.483l1.514,0.094
			c3.708,0.23,6.612,3.319,6.612,7.03c0,3.878-3.144,7.035-7.017,7.057c-0.042-0.003-0.079-0.005-0.117-0.005l-2.047,0.005h-1.819v2
			h3.819v-0.006c0.042,0.001,0.082,0.006,0.124,0.006c5.001,0,9.057-4.054,9.057-9.057
			C-260.549,306.151-264.303,302.229-269.037,301.935z M-296.957,298.317c-0.241-0.016-0.48-0.036-0.725-0.036
			c-2.537,0-4.865,0.876-6.715,2.334c-2.012-1.294-3.486-3.354-3.976-5.776c0.582,0.117,1.178,0.177,1.78,0.177c4.963,0,9-4.037,9-9
			c0-0.603-0.06-1.198-0.177-1.78c3.733,0.753,6.629,3.824,7.134,7.64C-293.348,293.319-295.563,295.574-296.957,298.317z"/>
	</g>
	<g>
		<circle cx="-293.049" cy="313.527" r="1.5"/>
	</g>
	<g>
		<circle cx="-289.049" cy="319.527" r="1.5"/>
	</g>
	<g>
		<circle cx="-281.049" cy="319.527" r="1.5"/>
	</g>
	<g>
		<circle cx="-285.049" cy="313.527" r="1.5"/>
	</g>
	<g>
		<circle cx="-277.049" cy="313.527" r="1.5"/>
	</g>
	<g>
		<circle cx="-293.049" cy="325.549" r="1.5"/>
	</g>
	<g>
		<circle cx="-285.049" cy="325.549" r="1.5"/>
	</g>
	<g>
		<circle cx="-277.049" cy="325.549" r="1.5"/>
	</g>
</g>
<g>
	<path d="M42.128,203.049c-1.596-7.445-8.207-13.029-16.127-13.029c-6.423,0-11.977,3.678-14.702,9.035
		c-0.266-0.018-0.53-0.04-0.8-0.04c-6.627,0-11.999,5.372-11.999,12c0,6.607,5.34,11.965,11.938,11.998v0.003H12.5v-2h-1.604
		l-0.447-0.003C4.963,220.985,0.5,216.5,0.5,211.015c0-5.514,4.485-10,9.999-10c0.175,0,0.347,0.014,0.52,0.025l0.148,0.01
		l1.316,0.088l0.598-1.176c2.492-4.899,7.443-7.942,12.92-7.942c6.79,0,12.75,4.814,14.172,11.448l0.317,1.482l1.514,0.095
		c4.203,0.262,7.496,3.763,7.496,7.971c0,4.397-3.565,7.977-7.957,8c-0.05-0.003-0.093-0.005-0.137-0.007l-2.043,0.007H36.5v2h4.863
		v-0.007c0.046,0.001,0.091,0.007,0.137,0.007c5.521,0,10-4.477,10-10C51.5,207.705,47.355,203.374,42.128,203.049z"/>
	<circle cx="16.5" cy="230.52" r="1.5"/>
	<circle cx="24.5" cy="236.52" r="1.5"/>
	<circle cx="32.5" cy="232.52" r="1.5"/>
	<rect x="15.5" y="214.044" width="2" height="11.976"/>
	<polygon points="25.5,231.984 25.5,230.044 25.5,218.044 23.5,218.044 23.5,230.044 23.5,231.984 23.5,232.02 25.5,232.02 	"/>
	<polygon points="33.5,227.797 33.5,226.044 33.5,214.044 31.5,214.044 31.5,226.044 31.5,227.797 31.5,228.02 33.5,228.02 	"/>
</g>
<g>
	<rect x="-706.249" y="274.662" width="2" height="7.973"/>
	<rect x="-725.249" y="293.576" width="7.973" height="2"/>
	<rect x="-720.576" y="282.31" transform="matrix(0.7071 0.7071 -0.7071 0.7071 -9.554 589.6843)" width="7.974" height="2"/>
	<rect x="-695.067" y="279.328" transform="matrix(0.7071 0.7071 -0.7071 0.7071 -2.9548 573.7604)" width="2" height="7.972"/>
	<path d="M-675.737,300.452c-1.444-6.742-7.433-11.8-14.605-11.8c-2.185,0-4.258,0.47-6.126,1.313
		c-1.667-3.202-5.007-5.394-8.866-5.394c-5.522,0-10,4.477-10,9.999c0,2.46,0.899,4.702,2.373,6.442
		c-1.429,1.84-2.287,4.144-2.287,6.653c0,5.983,4.836,10.836,10.813,10.865v0.003h1.188v-2h-0.721l-0.457-0.003
		c-4.864-0.023-8.822-4.001-8.822-8.865c0-4.89,3.978-8.868,8.867-8.868c0.15,0,0.299,0.012,0.447,0.022l0.148,0.01l1.314,0.085
		l0.597-1.175c2.225-4.372,6.644-7.089,11.532-7.089c6.062,0,11.382,4.298,12.649,10.219l0.318,1.483l1.514,0.094
		c3.708,0.23,6.612,3.319,6.612,7.03c0,3.878-3.144,7.035-7.017,7.057c-0.042-0.003-0.079-0.005-0.117-0.005l-2.047,0.005h-0.819v2
		h2.819v-0.006c0.042,0.001,0.082,0.006,0.124,0.006c5.001,0,9.057-4.054,9.057-9.057
		C-667.249,304.669-671.003,300.747-675.737,300.452z M-703.657,296.835c-0.241-0.016-0.48-0.036-0.725-0.036
		c-2.766,0-5.282,1.041-7.2,2.743c-1.092-1.366-1.753-3.09-1.753-4.971c0-4.41,3.589-7.999,8-7.999c3.091,0,5.76,1.773,7.091,4.345
		C-700.542,292.357-702.422,294.405-703.657,296.835z"/>
	<circle cx="-699.259" cy="327.022" r="1.5"/>
	<circle cx="-691.259" cy="333.022" r="1.5"/>
	<circle cx="-683.259" cy="329.022" r="1.5"/>
	<rect x="-700.259" y="310.547" width="2" height="11.976"/>
	<polygon points="-690.259,328.487 -690.259,326.547 -690.259,314.547 -692.259,314.547 -692.259,326.547 -692.259,328.487 
		-692.259,328.522 -690.259,328.522 	"/>
	<polygon points="-682.259,324.3 -682.259,322.547 -682.259,310.547 -684.259,310.547 -684.259,322.547 -684.259,324.3 
		-684.259,324.522 -682.259,324.522 	"/>
</g>
<g>
	<path d="M-575.135,297.454c-1.444-6.742-7.433-11.8-14.605-11.8c-1.799,0-3.522,0.32-5.118,0.904
		c-0.949-5.108-5.404-8.98-10.788-8.98c-0.413,0-0.819,0.027-1.222,0.071c0.744,1.112,1.179,2.448,1.179,3.886c0,3.865-3.134,7-7,7
		c-1.438,0-2.773-0.435-3.886-1.179c-0.044,0.401-0.071,0.809-0.071,1.222c0,3.712,1.845,6.987,4.661,8.979
		c-1.653,1.907-2.661,4.389-2.661,7.111c0,5.983,4.836,10.836,10.813,10.865v0.003h1.188v-2h-0.721l-0.457-0.003
		c-4.864-0.023-8.822-4.001-8.822-8.865c0-4.89,3.978-8.868,8.867-8.868c0.15,0,0.299,0.012,0.447,0.022l0.148,0.01l1.314,0.085
		l0.597-1.175c2.225-4.372,6.644-7.089,11.532-7.089c6.062,0,11.382,4.298,12.649,10.219l0.318,1.483l1.514,0.094
		c3.708,0.23,6.612,3.319,6.612,7.03c0,3.878-3.144,7.035-7.017,7.057c-0.042-0.003-0.079-0.005-0.117-0.005l-2.047,0.005h-0.819v2
		h2.819v-0.006c0.042,0.001,0.082,0.006,0.124,0.006c5.001,0,9.057-4.054,9.057-9.057
		C-566.646,301.671-570.4,297.749-575.135,297.454z M-603.055,293.837c-0.241-0.016-0.48-0.036-0.725-0.036
		c-2.537,0-4.865,0.876-6.715,2.334c-2.012-1.294-3.487-3.354-3.976-5.776c0.582,0.117,1.178,0.177,1.78,0.177c4.963,0,9-4.037,9-9
		c0-0.603-0.06-1.198-0.177-1.78c3.733,0.753,6.629,3.824,7.133,7.64C-599.444,288.839-601.659,291.094-603.055,293.837z"/>
	<circle cx="-598.646" cy="324.028" r="1.5"/>
	<circle cx="-590.646" cy="330.028" r="1.5"/>
	<circle cx="-582.646" cy="326.028" r="1.5"/>
	<rect x="-599.646" y="307.553" width="2" height="11.976"/>
	<polygon points="-589.646,325.493 -589.646,323.553 -589.646,311.553 -591.646,311.553 -591.646,323.553 -591.646,325.493 
		-591.646,325.528 -589.646,325.528 	"/>
	<polygon points="-581.646,321.306 -581.646,319.553 -581.646,307.553 -583.646,307.553 -583.646,319.553 -583.646,321.306 
		-583.646,321.528 -581.646,321.528 	"/>
</g>
<g>
	<rect x="-723.249" y="401.895" width="56" height="2"/>
	<rect x="-719.249" y="407.895" width="50" height="2"/>
	<rect x="-713.249" y="413.895" width="36" height="2"/>
	<rect x="-721.249" y="395.895" width="52" height="2"/>
	<path d="M-709.375,387.89c0.175,0,0.347,0.014,0.519,0.025l0.149,0.01l1.316,0.088l0.598-1.176
		c2.493-4.899,7.443-7.942,12.92-7.942c6.79,0,12.75,4.814,14.171,11.448l0.318,1.482l1.514,0.095
		c1.207,0.075,2.335,0.425,3.336,0.975h3.286c-1.678-1.703-3.957-2.813-6.498-2.971c-1.596-7.445-8.207-13.029-16.127-13.029
		c-6.423,0-11.977,3.678-14.702,9.035c-0.266-0.018-0.53-0.04-0.8-0.04c-4.843,0-9.004,2.874-10.9,7.005h2.251
		C-716.293,389.908-713.068,387.89-709.375,387.89z"/>
</g>
<g>
	<rect x="-602.146" y="374.38" width="2" height="7.973"/>
	<rect x="-621.146" y="393.294" width="7.973" height="2"/>
	<rect x="-616.473" y="382.027" transform="matrix(0.7071 0.7071 -0.7071 0.7071 91.4481 545.2794)" width="7.974" height="2"/>
	<rect x="-590.965" y="379.046" transform="matrix(0.7071 0.7071 -0.7071 0.7071 98.0472 529.3553)" width="2" height="7.972"/>
	<rect x="-612.146" y="408.254" width="50" height="2"/>
	<rect x="-608.146" y="414.254" width="44" height="2"/>
	<rect x="-602.146" y="419.254" width="30" height="2"/>
	<rect x="-610.146" y="402.254" width="46" height="2"/>
	<path d="M-609.238,400.254h0.771h1.927h1.012c1.472-1.087,3.283-1.737,5.249-1.737c0.15,0,0.299,0.012,0.447,0.022l0.148,0.01
		l1.314,0.085l0.597-1.175c2.225-4.372,6.644-7.089,11.532-7.089c5.945,0,11.168,4.139,12.563,9.884h2.043v-0.084
		c-1.444-6.742-7.433-11.8-14.605-11.8c-2.185,0-4.258,0.47-6.126,1.313c-1.667-3.202-5.007-5.394-8.866-5.394
		c-5.522,0-10,4.477-10,9.999C-611.232,396.53-610.484,398.589-609.238,400.254z M-601.232,386.29c3.091,0,5.76,1.773,7.091,4.345
		c-2.298,1.44-4.178,3.488-5.413,5.918c-0.241-0.016-0.48-0.036-0.725-0.036c-2.764,0-5.274,1.045-7.189,2.745
		c-1.097-1.366-1.764-3.089-1.764-4.973C-609.232,389.879-605.644,386.29-601.232,386.29z"/>
</g>
<g>
	<rect x="-513.402" y="404.816" width="50" height="2"/>
	<rect x="-509.402" y="410.816" width="44" height="2"/>
	<rect x="-503.402" y="415.816" width="30" height="2"/>
	<rect x="-511.402" y="398.816" width="46" height="2"/>
	<path d="M-509.76,396.816h0.037h1.884h1.055c1.472-1.087,3.283-1.737,5.249-1.737c0.15,0,0.299,0.012,0.447,0.022l0.148,0.01
		l1.314,0.085l0.597-1.175c2.225-4.372,6.644-7.089,11.532-7.089c5.945,0,11.168,4.139,12.563,9.884h2.043v-0.084
		c-1.444-6.742-7.433-11.8-14.605-11.8c-1.799,0-3.521,0.32-5.117,0.903c-0.945-5.111-5.402-8.987-10.789-8.987
		c-0.413,0-0.819,0.027-1.222,0.071c0.744,1.112,1.179,2.448,1.179,3.886c0,3.865-3.134,7-7,7c-1.438,0-2.773-0.435-3.886-1.179
		c-0.044,0.401-0.071,0.809-0.071,1.222C-514.402,391.553-512.566,394.823-509.76,396.816z M-510.445,389.806c4.963,0,9-4.037,9-9
		c0-0.603-0.06-1.198-0.177-1.78c3.735,0.753,6.633,3.828,7.134,7.647c-2.712,1.443-4.927,3.699-6.322,6.442
		c-0.241-0.016-0.48-0.036-0.725-0.036c-2.534,0-4.855,0.879-6.701,2.335c-2.02-1.293-3.5-3.356-3.989-5.785
		C-511.644,389.746-511.048,389.806-510.445,389.806z"/>
</g>
<g>
	<path d="M-381.511,407.83h-19.474l-0.578-0.003c-5.485-0.027-9.948-4.513-9.948-9.998c0-5.514,4.485-10,9.999-10
		c0.175,0,0.347,0.014,0.519,0.025l0.149,0.01l1.316,0.088l0.598-1.176c2.493-4.899,7.443-7.942,12.92-7.942
		c6.79,0,12.75,4.814,14.171,11.448l0.318,1.482l1.514,0.095c1.822,0.113,3.463,0.845,4.746,1.971h2.732
		c-1.707-2.262-4.348-3.78-7.354-3.967c-1.596-7.445-8.207-13.029-16.127-13.029c-6.423,0-11.977,3.678-14.702,9.035
		c-0.266-0.018-0.53-0.04-0.8-0.04c-6.627,0-11.999,5.372-11.999,12c0,6.607,5.34,11.965,11.938,11.998v0.003h20.062
		c2.205,0,4,1.794,4,4s-1.795,4-4,4v2c3.314,0,6-2.686,6-6C-375.511,410.517-378.196,407.83-381.511,407.83z"/>
	<path d="M-377.511,403.83h-15.988v2h15.988c3.314,0,6-2.687,6-6c0-3.314-2.686-6-6-6v2c2.205,0,4,1.794,4,4
		S-375.306,403.83-377.511,403.83z"/>
	<path d="M-364.511,397.83c1.654,0,3,1.346,3,3s-1.346,3-3,3c-0.043,0-0.083-0.011-0.126-0.013h-4.862
		c0.003,0.005,0.009,0.008,0.012,0.013h-0.023v2h5.5v-0.051c2.523-0.254,4.5-2.358,4.5-4.949c0-2.762-2.238-5-5-5V397.83z"/>
	<path d="M-360.511,407.83h-13v2h9.022c-0.004,0.005-0.008,0.008-0.011,0.013h3.862c0.043-0.002,0.083-0.013,0.126-0.013
		c1.654,0,3,1.346,3,3s-1.346,3-3,3v2c2.762,0,5-2.238,5-5S-357.749,407.83-360.511,407.83z"/>
	<rect x="-399.511" y="403.83" width="4" height="2"/>
</g>
<path d="M-589.072,8.727c6.95,1.305,12.226,7.419,12.226,14.742c0,8.272-6.729,15.002-15,15.002c-6.79,0-12.531-4.49-14.366-10.728
	c1.398,0.461,2.867,0.698,4.366,0.698c7.72,0,14-6.281,14-14.001C-587.847,12.456-588.271,10.512-589.072,8.727 M-591.847,6.47
	c-0.338,0-0.668,0.031-1,0.051c1.861,2.113,3,4.881,3,7.92c0,6.627-5.372,12.001-12,12.001c-2.599,0-4.998-0.835-6.963-2.239
	c0.387,9.047,7.821,16.269,16.963,16.269c9.39,0,17-7.612,17-17.002S-582.457,6.47-591.847,6.47L-591.847,6.47z"/>
<g>
	<path d="M-695.242,11.465c-7.18,0-13,5.819-13,12.999c0,7.181,5.82,13.002,13,13.002s13-5.821,13-13.002
		C-682.242,17.284-688.063,11.465-695.242,11.465z M-695.242,35.466c-6.065,0-11-4.936-11-11.002c0-6.064,4.935-10.999,11-10.999
		s11,4.935,11,10.999C-684.242,30.53-689.177,35.466-695.242,35.466z"/>
	<rect x="-696.249" y="-1.529" width="2" height="10"/>
	<rect x="-696.249" y="40.471" width="2" height="10"/>
	<rect x="-721.242" y="23.471" width="9.993" height="2"/>
	<rect x="-679.249" y="23.471" width="10.007" height="2"/>
	<rect x="-681.549" y="4.557" transform="matrix(0.7071 0.7071 -0.7071 0.7071 -192.4261 484.08)" width="2" height="10.409"/>
	<rect x="-710.958" y="33.966" transform="matrix(-0.7071 -0.7071 0.7071 -0.7071 -1239.6718 -435.148)" width="2" height="10.41"/>
	<rect x="-715.158" y="8.766" transform="matrix(0.7071 0.7071 -0.7071 0.7071 -201.0349 504.8734)" width="10.409" height="2"/>
	<rect x="-685.75" y="38.175" transform="matrix(-0.7072 -0.7071 0.7071 -0.7072 -1189.494 -414.3078)" width="10.41" height="2"/>
</g>
<g>
	<rect x="-297.076" y="369.332" width="2" height="7.973"/>
	<rect x="-316.049" y="388.318" width="7.973" height="2"/>
	<rect x="-311.323" y="377.1" transform="matrix(0.7071 0.7071 -0.7071 0.7071 177.3401 328.0621)" width="7.974" height="2"/>
	<rect x="-285.814" y="374.118" transform="matrix(0.7071 0.7071 -0.7071 0.7071 183.9393 312.1382)" width="2" height="7.972"/>
	<path d="M-282.049,411.332l0.005-0.007h-12.536l-0.594-0.003c-4.864-0.024-8.822-4.001-8.822-8.865c0-4.89,3.978-8.868,8.867-8.868
		c0.15,0,0.299,0.012,0.447,0.021l0.148,0.011l1.314,0.085l0.597-1.174c2.225-4.373,6.644-7.09,11.532-7.09
		c5.916,0,11.114,4.099,12.54,9.8h2.065c-1.444-6.742-7.433-11.8-14.605-11.8c-2.185,0-4.258,0.47-6.126,1.313
		c-1.667-3.202-5.007-5.394-8.866-5.394c-5.522,0-10,4.477-10,9.999c0,2.46,0.899,4.702,2.373,6.442
		c-1.429,1.84-2.287,4.144-2.287,6.653c0,5.983,4.836,10.836,10.813,10.865v0.003h13.135v0.007c2.205,0,4,1.794,4,4s-1.795,4-4,4v2
		c3.314,0,6-2.686,6-6C-276.049,414.019-278.734,411.332-282.049,411.332z M-296.082,381.362c3.091,0,5.76,1.773,7.091,4.345
		c-2.298,1.439-4.178,3.488-5.413,5.918c-0.241-0.016-0.48-0.036-0.725-0.036c-2.766,0-5.282,1.042-7.2,2.743
		c-1.092-1.367-1.753-3.09-1.753-4.971C-304.082,384.951-300.493,381.362-296.082,381.362z"/>
	<path d="M-278.049,407.332h-9.988v2h9.988c3.314,0,6-2.687,6-6c0-3.314-2.686-6-6-6v2c2.205,0,4,1.794,4,4
		S-275.844,407.332-278.049,407.332z"/>
	<path d="M-270.025,407.332h-0.023v2h5.5v-0.051c2.523-0.254,4.5-2.358,4.5-4.949c0-2.762-2.238-5-5-5v2c1.654,0,3,1.346,3,3
		s-1.346,3-3,3c-0.043,0-0.083-0.011-0.126-0.013h-4.862C-270.034,407.324-270.028,407.328-270.025,407.332z"/>
	<path d="M-261.049,411.332h-13v2h9.022c-0.004,0.004-0.008,0.008-0.011,0.013h3.862c0.043-0.002,0.083-0.013,0.126-0.013
		c1.654,0,3,1.346,3,3s-1.346,3-3,3v2c2.762,0,5-2.238,5-5S-258.287,411.332-261.049,411.332z"/>
	<rect x="-294.049" y="407.332" width="4" height="2"/>
</g>
<g>
	<path d="M-182.087,409.326l0.005-0.007h-12.536l-0.594-0.003c-4.864-0.024-8.822-4.001-8.822-8.865c0-4.89,3.978-8.868,8.867-8.868
		c0.15,0,0.299,0.012,0.447,0.021l0.148,0.011l1.314,0.085l0.597-1.174c2.225-4.373,6.644-7.09,11.532-7.09
		c5.916,0,11.114,4.099,12.54,9.8h2.065c-1.444-6.742-7.433-11.8-14.605-11.8c-1.806,0-3.536,0.322-5.138,0.91
		c-0.938-5.123-5.4-9.01-10.794-9.01c-0.413,0-0.819,0.027-1.222,0.071c0.744,1.112,1.179,2.448,1.179,3.886c0,3.865-3.134,7-7,7
		c-1.438,0-2.773-0.435-3.886-1.179c-0.044,0.401-0.071,0.809-0.071,1.222c0,3.725,1.858,7.009,4.69,8.998
		c-1.655,1.907-2.665,4.392-2.665,7.116c0,5.983,4.836,10.836,10.813,10.865v0.003h13.135v0.007c2.205,0,4,1.794,4,4s-1.795,4-4,4v2
		c3.314,0,6-2.686,6-6C-176.087,412.013-178.772,409.326-182.087,409.326z M-205.883,386.117c0.582,0.117,1.178,0.177,1.78,0.177
		c4.963,0,9-4.037,9-9c0-0.603-0.06-1.198-0.177-1.78c3.744,0.755,6.646,3.842,7.138,7.674c-2.702,1.444-4.909,3.696-6.301,6.432
		c-0.241-0.016-0.48-0.036-0.725-0.036c-2.535,0-4.861,0.875-6.71,2.33C-203.905,390.621-205.392,388.553-205.883,386.117z"/>
	<path d="M-178.087,405.326h-9.988v2h9.988c3.314,0,6-2.687,6-6c0-3.314-2.686-6-6-6v2c2.205,0,4,1.794,4,4
		S-175.882,405.326-178.087,405.326z"/>
	<path d="M-170.063,405.326h-0.023v2h5.5v-0.051c2.523-0.254,4.5-2.358,4.5-4.949c0-2.762-2.238-5-5-5v2c1.654,0,3,1.346,3,3
		s-1.346,3-3,3c-0.043,0-0.083-0.011-0.126-0.013h-4.862C-170.072,405.318-170.066,405.322-170.063,405.326z"/>
	<path d="M-161.087,409.326h-13v2h9.022c-0.004,0.004-0.008,0.008-0.011,0.013h3.862c0.043-0.002,0.083-0.013,0.126-0.013
		c1.654,0,3,1.346,3,3s-1.346,3-3,3v2c2.762,0,5-2.238,5-5S-158.325,409.326-161.087,409.326z"/>
	<rect x="-194.087" y="405.326" width="4" height="2"/>
</g>
<g>
	<rect x="-81.194" y="371.895" width="2" height="10"/>
	<rect x="-106.188" y="396.895" width="9.993" height="2"/>
	<rect x="-66.495" y="377.98" transform="matrix(0.7071 0.7071 -0.7071 0.7071 251.7698 158.544)" width="2" height="10.409"/>
	<rect x="-100.103" y="382.19" transform="matrix(0.7071 0.7071 -0.7071 0.7071 243.1609 179.3374)" width="10.409" height="2"/>
	<path d="M-76.194,411.895h-24v2h24c2.205,0,4,1.794,4,4s-1.795,4-4,4v2c3.314,0,6-2.686,6-6
		C-70.194,414.581-72.88,411.895-76.194,411.895z"/>
	<path d="M-64.171,407.895h-0.023v2h5.5v-0.051c2.523-0.254,4.5-2.358,4.5-4.949c0-2.762-2.238-5-5-5v2c1.654,0,3,1.346,3,3
		s-1.346,3-3,3c-0.043,0-0.083-0.011-0.126-0.013h-4.862C-64.18,407.887-64.174,407.891-64.171,407.895z"/>
	<path d="M-55.194,411.895h-13v2h9.022c-0.004,0.004-0.008,0.008-0.011,0.013h3.862c0.043-0.002,0.083-0.013,0.126-0.013
		c1.654,0,3,1.346,3,3s-1.346,3-3,3v2c2.762,0,5-2.238,5-5S-52.433,411.895-55.194,411.895z"/>
	<path d="M-88.485,407.895h-11.709v2h12.012h0.822h15.166c3.314,0,6-2.687,6-6c0-3.314-2.686-6-6-6v2c2.205,0,4,1.794,4,4
		s-1.795,4-4,4h-12.538c-3.802-1.734-6.455-5.563-6.455-10.007c0-6.064,4.935-10.999,11-10.999c5.384,0,9.868,3.891,10.81,9.006
		h2.021c-0.961-6.23-6.331-11.006-12.831-11.006c-7.18,0-13,5.819-13,12.999C-93.188,401.913-91.357,405.51-88.485,407.895z"/>
</g>
<g>
	<path d="M24.032,405.338h-24v2h24c2.205,0,4,1.794,4,4s-1.795,4-4,4v2c3.314,0,6-2.686,6-6
		C30.032,408.024,27.347,405.338,24.032,405.338z"/>
	<path d="M41.532,403.338v-0.051c2.523-0.254,4.5-2.358,4.5-4.949c0-2.762-2.238-5-5-5v2c1.654,0,3,1.346,3,3s-1.346,3-3,3
		c-0.043,0-0.083-0.011-0.126-0.013h-4.862c0.004,0.005,0.009,0.009,0.012,0.013h-0.023v2H41.532z"/>
	<path d="M45.032,405.338h-13v2h9.022c-0.003,0.004-0.007,0.008-0.011,0.013h3.862c0.043-0.002,0.083-0.013,0.126-0.013
		c1.654,0,3,1.346,3,3s-1.346,3-3,3v2c2.762,0,5-2.238,5-5S47.794,405.338,45.032,405.338z"/>
	<path d="M12.866,403.338h15.166c3.314,0,6-2.687,6-6c0-3.314-2.686-6-6-6v2c2.205,0,4,1.794,4,4s-1.795,4-4,4H15.446
		c-2.596-1.188-4.658-3.339-5.69-6.034c0.849,0.204,1.724,0.309,2.612,0.309c6.168,0,11.187-5.019,11.187-11.188
		c0-1.276-0.22-2.532-0.64-3.717c4.046,1.102,7.168,4.459,7.937,8.63h2.018c-0.964-6.237-6.338-11.016-12.846-11.016
		c-0.259,0-0.511,0.024-0.766,0.039c1.425,1.618,2.297,3.737,2.297,6.063c0,5.072-4.112,9.188-9.187,9.188
		c-1.988,0-3.826-0.641-5.33-1.715c0.162,3.801,1.962,7.165,4.699,9.44H0.032v2h12.012H12.866z"/>
</g>
<g>
	<path d="M-695.749,490.531h-20c-1.103,0-2-0.897-2-2s0.897-2,2-2h3.445h0.555v-2h-4c-2.209,0-4,1.791-4,4s1.791,4,4,4h20
		c2.205,0,4,1.794,4,4s-1.795,4-4,4v2c3.314,0,6-2.686,6-6C-689.749,493.218-692.435,490.531-695.749,490.531z"/>
	<path d="M-693.749,474.531v2c2.205,0,4,1.794,4,4s-1.795,4-4,4h-15.988v2h15.988c3.314,0,6-2.687,6-6
		C-687.749,477.217-690.435,474.531-693.749,474.531z"/>
	<path d="M-687.749,486.531v2h5.5v-0.051c2.523-0.254,4.5-2.358,4.5-4.949c0-2.762-2.238-5-5-5v2c1.654,0,3,1.346,3,3s-1.346,3-3,3
		c-0.043,0-0.083-0.011-0.126-0.013h-4.862c0.003,0.005,0.009,0.009,0.012,0.013H-687.749z"/>
	<path d="M-676.749,490.531h-11v2h7.022c-0.004,0.004-0.008,0.008-0.011,0.013h3.862c0.043-0.002,0.083-0.013,0.126-0.013
		c1.654,0,3,1.346,3,3s-1.346,3-3,3v2c2.762,0,5-2.238,5-5S-673.987,490.531-676.749,490.531z"/>
</g>
<path d="M-159.457,476.878v-0.038h-38.376c-1.103,0-2-0.897-2-2s0.897-2,2-2h33c2.762,0,5-2.238,5-5s-2.238-5-5-5h-37.875v0.008
	c-0.042-0.001-0.083-0.008-0.125-0.008c-2.762,0-5,2.238-5,5s2.238,5,5,5v-2c-1.654,0-3-1.346-3-3s1.346-3,3-3h0.125h3.853h34.022
	c1.654,0,3,1.346,3,3s-1.346,3-3,3h-33c-2.209,0-4,1.791-4,4s1.791,4,4,4h38c1.103,0,2,0.897,2,2s-0.897,2-2,2h-32
	c-2.209,0-4,1.791-4,4s1.791,4,4,4h22c1.103,0,2,0.897,2,2s-0.897,2-2,2h-24.01v0.001c-2.204,0.006-3.99,1.793-3.99,3.999
	s1.786,3.993,3.99,3.999v0.001h12.01c1.103,0,2,0.897,2,2s-0.897,2-2,2h-2c-2.209,0-4,1.791-4,4s1.791,4,4,4v-2
	c-1.103,0-2-0.897-2-2s0.897-2,2-2h2c2.209,0,4-1.791,4-4s-1.791-4-4-4h-12c-1.103,0-2-0.897-2-2s0.897-2,2-2h24
	c2.209,0,4-1.791,4-4c0-2.152-1.704-3.895-3.834-3.983v-0.017h-22.166c-1.103,0-2-0.897-2-2s0.897-2,2-2h32c2.209,0,4-1.791,4-4
	C-155.833,478.76-157.427,477.07-159.457,476.878z"/>
<path d="M25.958,467.556v-2.024h-2v2.024c-13.01,0.513-23.462,10.965-23.975,23.976h1.674c1.14-1.222,2.748-2,4.551-2
	c2.26,0,4.233,1.203,5.331,3h1.838c1.098-1.797,3.071-3,5.331-3c2.204,0,4.137,1.144,5.25,2.866v15.134c0,2.21,1.791,4,4,4
	s4-1.79,4-4h-2c0,1.103-0.897,2-2,2s-2-0.897-2-2v-15.134c1.113-1.723,3.046-2.866,5.25-2.866c2.26,0,4.233,1.203,5.331,3h1.838
	c1.098-1.797,3.071-3,5.331-3c1.803,0,3.411,0.778,4.551,2h1.674C49.42,478.521,38.968,468.068,25.958,467.556z M43.708,487.531
	c-2.496,0-4.736,1.114-6.25,2.87c-1.514-1.756-3.754-2.87-6.25-2.87s-4.736,1.114-6.25,2.87c-1.514-1.756-3.754-2.87-6.25-2.87
	s-4.736,1.114-6.25,2.87c-1.514-1.756-3.755-2.87-6.25-2.87c-1.402,0-2.731,0.351-3.897,0.975
	c1.909-10.769,11.339-18.975,22.647-18.975s20.738,8.206,22.647,18.975C46.439,487.882,45.11,487.531,43.708,487.531z"/>
<g>
	<path d="M-379.337,591.844v-17.105c0-2.762-2.238-5-5-5s-5,2.238-5,5v17.105c-1.236,1.263-2,2.988-2,4.895c0,3.866,3.134,7,7,7
		s7-3.134,7-7C-377.337,594.832-378.101,593.106-379.337,591.844z M-384.337,601.738c-2.757,0-5-2.243-5-5
		c0-1.313,0.508-2.554,1.429-3.495l0.571-0.583v-0.816v-17.105c0-1.654,1.346-3,3-3s3,1.346,3,3v17.105v0.816l0.571,0.583
		c0.921,0.941,1.429,2.183,1.429,3.495C-379.337,599.495-381.58,601.738-384.337,601.738z"/>
	<path d="M-383.337,593.914v-15.176h-2v15.176c-1.167,0.413-2.008,1.516-2.008,2.824c0,1.662,1.347,3.008,3.008,3.008
		c1.662,0,3.008-1.346,3.008-3.008C-381.329,595.43-382.169,594.327-383.337,593.914z M-384.337,597.746
		c-0.556,0-1.008-0.452-1.008-1.008s0.452-1.008,1.008-1.008s1.008,0.452,1.008,1.008S-383.781,597.746-384.337,597.746z"/>
</g>
<g>
	<path d="M-279.549,591.844v-17.105c0-2.762-2.238-5-5-5s-5,2.238-5,5v17.105c-1.236,1.263-2,2.988-2,4.895c0,3.866,3.134,7,7,7
		s7-3.134,7-7C-277.549,594.832-278.313,593.106-279.549,591.844z M-284.549,601.738c-2.757,0-5-2.243-5-5
		c0-1.313,0.508-2.554,1.429-3.495l0.571-0.583v-0.816v-17.105c0-1.654,1.346-3,3-3s3,1.346,3,3v17.105v0.816l0.571,0.583
		c0.921,0.941,1.429,2.183,1.429,3.495C-279.549,599.495-281.792,601.738-284.549,601.738z"/>
	<path d="M-283.549,593.914v-20.176h-2v20.176c-1.167,0.413-2.008,1.516-2.008,2.824c0,1.662,1.347,3.008,3.008,3.008
		c1.662,0,3.008-1.346,3.008-3.008C-281.541,595.43-282.381,594.327-283.549,593.914z M-284.549,597.746
		c-0.556,0-1.008-0.452-1.008-1.008s0.452-1.008,1.008-1.008s1.008,0.452,1.008,1.008S-283.993,597.746-284.549,597.746z"/>
</g>
<g>
	<path d="M-482.446,591.844v-17.105c0-2.762-2.238-5-5-5s-5,2.238-5,5v17.105c-1.236,1.263-2,2.988-2,4.895c0,3.866,3.134,7,7,7
		s7-3.134,7-7C-480.446,594.832-481.21,593.106-482.446,591.844z M-487.446,601.738c-2.757,0-5-2.243-5-5
		c0-1.313,0.508-2.554,1.429-3.495l0.571-0.583v-0.816v-17.105c0-1.654,1.346-3,3-3s3,1.346,3,3v17.105v0.816l0.571,0.583
		c0.921,0.941,1.429,2.183,1.429,3.495C-482.446,599.495-484.689,601.738-487.446,601.738z"/>
	<path d="M-486.446,593.914v-10.176h-2v10.176c-1.167,0.413-2.008,1.516-2.008,2.824c0,1.662,1.347,3.008,3.008,3.008
		c1.662,0,3.008-1.346,3.008-3.008C-484.438,595.43-485.278,594.327-486.446,593.914z M-487.446,597.746
		c-0.556,0-1.008-0.452-1.008-1.008s0.452-1.008,1.008-1.008s1.008,0.452,1.008,1.008S-486.891,597.746-487.446,597.746z"/>
</g>
<g>
	<path d="M-586.092,591.844v-17.105c0-2.762-2.238-5-5-5s-5,2.238-5,5v17.105c-1.236,1.263-2,2.988-2,4.895c0,3.866,3.134,7,7,7
		s7-3.134,7-7C-584.092,594.832-584.855,593.106-586.092,591.844z M-591.092,601.738c-2.757,0-5-2.243-5-5
		c0-1.313,0.508-2.554,1.429-3.495l0.571-0.583v-0.816v-17.105c0-1.654,1.346-3,3-3s3,1.346,3,3v17.105v0.816l0.571,0.583
		c0.921,0.941,1.429,2.183,1.429,3.495C-586.092,599.495-588.335,601.738-591.092,601.738z"/>
	<path d="M-590.092,593.914v-5.176h-2v5.176c-1.167,0.413-2.008,1.516-2.008,2.824c0,1.662,1.347,3.008,3.008,3.008
		c1.662,0,3.008-1.346,3.008-3.008C-588.084,595.43-588.924,594.327-590.092,593.914z M-591.092,597.746
		c-0.556,0-1.008-0.452-1.008-1.008s0.452-1.008,1.008-1.008s1.008,0.452,1.008,1.008S-590.536,597.746-591.092,597.746z"/>
</g>
<g>
	<path d="M-690.749,591.844v-17.105c0-2.762-2.238-5-5-5s-5,2.238-5,5v17.105c-1.236,1.263-2,2.988-2,4.895c0,3.866,3.134,7,7,7
		s7-3.134,7-7C-688.749,594.832-689.513,593.106-690.749,591.844z M-695.749,601.738c-2.757,0-5-2.243-5-5
		c0-1.313,0.508-2.554,1.429-3.495l0.571-0.583v-0.816v-17.105c0-1.654,1.346-3,3-3s3,1.346,3,3v17.105v0.816l0.571,0.583
		c0.921,0.941,1.429,2.183,1.429,3.495C-690.749,599.495-692.992,601.738-695.749,601.738z"/>
	<path d="M-695.749,593.73c-1.661,0-3.008,1.347-3.008,3.008c0,1.662,1.347,3.008,3.008,3.008c1.662,0,3.008-1.346,3.008-3.008
		C-692.741,595.077-694.087,593.73-695.749,593.73z M-695.749,597.746c-0.556,0-1.008-0.452-1.008-1.008s0.452-1.008,1.008-1.008
		s1.008,0.452,1.008,1.008S-695.193,597.746-695.749,597.746z"/>
</g>
<g>
	<path d="M-190.824,572.051c-2.209,0-4,1.791-4,4c0,2.21,1.791,4,4,4c2.211,0,4-1.79,4-4
		C-186.824,573.842-188.613,572.051-190.824,572.051z M-190.824,578.051c-1.103,0-2-0.897-2-2s0.897-2,2-2s2,0.897,2,2
		S-189.722,578.051-190.824,578.051z"/>
	<path d="M-176.824,600.051c-4.41,0-7.999-3.589-7.999-7.999v-4.002c0-4.41,3.589-7.999,7.999-7.999
		c2.715,0,5.115,1.362,6.563,3.437l1.43-1.43c-1.824-2.429-4.72-4.007-7.992-4.007c-5.522,0-9.999,4.478-9.999,9.999v4.002
		c0,5.521,4.477,9.999,9.999,9.999c3.272,0,6.168-1.579,7.992-4.008l-1.43-1.43C-171.708,598.688-174.108,600.051-176.824,600.051z"
		/>
</g>
<g>
	<path d="M-86.128,571.93c-2.209,0-4,1.791-4,4c0,2.21,1.791,4,4,4c2.211,0,4-1.79,4-4C-82.128,573.721-83.917,571.93-86.128,571.93
		z M-86.128,577.93c-1.103,0-2-0.897-2-2s0.897-2,2-2s2,0.897,2,2S-85.025,577.93-86.128,577.93z"/>
	<polygon points="-66.253,580.051 -66.253,578.051 -78.253,578.051 -80.253,578.051 -80.253,602.051 -78.253,602.051 
		-78.253,590.051 -70.253,590.051 -70.253,588.051 -78.253,588.051 -78.253,580.051 	"/>
</g>
<g>
	<path d="M24.958,575.742c-7.179,0-13,5.82-13,13s5.821,13,13,13s13-5.82,13-13S32.137,575.742,24.958,575.742z M24.958,599.742
		c-6.065,0-11-4.935-11-11s4.935-11,11-11s11,4.935,11,11S31.023,599.742,24.958,599.742z"/>
	<path d="M20.691,592.984l6.363-2.121l2.121-6.364l-6.363,2.122L20.691,592.984z M24.394,588.202l1.62-0.54l-0.54,1.62l-1.62,0.54
		L24.394,588.202z"/>
</g>
<g>
	<path d="M-695.749,666.26c-7.179,0-13,5.82-13,13s5.821,13,13,13s13-5.82,13-13S-688.57,666.26-695.749,666.26z M-695.749,690.26
		c-6.065,0-11-4.934-11-11c0-6.064,4.935-11,11-11s11,4.936,11,11C-684.749,685.326-689.684,690.26-695.749,690.26z"/>
	<path d="M-693.188,677.682l-2.586-4.422l-2.529,4.33h0.007c-0.299,0.467-0.478,1.018-0.478,1.613c0,1.656,1.343,3,3,3s3-1.344,3-3
		c0-0.559-0.162-1.074-0.428-1.521H-693.188z M-695.773,680.203c-0.552,0-1-0.449-1-1c0-0.188,0.055-0.367,0.162-0.535l0.864-1.355
		l0.826,1.391c0.098,0.164,0.147,0.332,0.147,0.5C-694.773,679.754-695.222,680.203-695.773,680.203z"/>
</g>
<g>
	<path d="M-590.965,666.26c-7.18,0-13,5.82-13,13s5.82,13,13,13s13-5.82,13-13S-583.785,666.26-590.965,666.26z M-590.965,690.26
		c-6.065,0-11-4.934-11-11c0-6.064,4.935-11,11-11s11,4.936,11,11C-579.965,685.326-584.899,690.26-590.965,690.26z"/>
	<path d="M-589.376,676.68c-0.467-0.299-1.018-0.477-1.613-0.477c-1.658,0-3,1.342-3,3c0,1.656,1.342,3,3,3
		c0.557,0,1.072-0.162,1.52-0.428v0.014l4.422-2.586l-4.328-2.529V676.68z M-590.491,680.055c-0.164,0.098-0.332,0.148-0.498,0.148
		c-0.552,0-1-0.449-1-1c0-0.553,0.448-1,1-1c0.188,0,0.368,0.053,0.535,0.16l1.355,0.865L-590.491,680.055z"/>
</g>
<g>
	<path d="M-487.914,666.26c-7.18,0-13,5.82-13,13s5.82,13,13,13s13-5.82,13-13S-480.734,666.26-487.914,666.26z M-487.914,690.26
		c-6.065,0-11-4.934-11-11c0-6.064,4.935-11,11-11s11,4.936,11,11C-476.914,685.326-481.849,690.26-487.914,690.26z"/>
	<path d="M-487.914,676.203c-1.656,0-3,1.342-3,3c0,0.557,0.162,1.072,0.428,1.52h-0.014l2.586,4.422l2.529-4.328h-0.006
		c0.299-0.467,0.477-1.018,0.477-1.613C-484.914,677.545-486.256,676.203-487.914,676.203z M-487.075,679.738l-0.865,1.355
		l-0.826-1.393c-0.098-0.164-0.147-0.332-0.147-0.498c0-0.553,0.448-1,1-1s1,0.447,1,1
		C-486.914,679.391-486.968,679.57-487.075,679.738z"/>
</g>
<g>
	<path d="M-384.5,666.26c-7.179,0-13,5.82-13,13s5.821,13,13,13s13-5.82,13-13S-377.321,666.26-384.5,666.26z M-384.5,690.26
		c-6.065,0-11-4.934-11-11c0-6.064,4.935-11,11-11s11,4.936,11,11C-373.5,685.326-378.435,690.26-384.5,690.26z"/>
	<path d="M-384.541,676.203c-0.557,0-1.072,0.162-1.52,0.428v-0.014l-4.422,2.586l4.328,2.529v-0.006
		c0.467,0.299,1.018,0.477,1.613,0.477c1.658,0,3-1.342,3-3C-381.541,677.547-382.883,676.203-384.541,676.203z M-384.541,680.203
		c-0.188,0-0.368-0.055-0.535-0.162l-1.355-0.865l1.393-0.826c0.164-0.098,0.332-0.146,0.498-0.146c0.552,0,1,0.447,1,1
		C-383.541,679.754-383.989,680.203-384.541,680.203z"/>
</g>
<g>
	<rect x="-592.651" y="469.531" width="2" height="10"/>
	<rect x="-577.952" y="475.617" transform="matrix(0.7071 0.7071 -0.7071 0.7071 171.0071 548.7959)" width="2" height="10.409"/>
	<rect x="-611.56" y="479.827" transform="matrix(0.7071 0.7071 -0.7071 0.7071 162.3982 569.5892)" width="10.409" height="2"/>
	<polygon points="-598.319,498.785 -596.905,500.199 -592.651,495.945 -592.651,505.531 -590.651,505.531 -590.651,495.945 
		-586.398,500.199 -584.984,498.785 -591.651,492.117 	"/>
	<path d="M-578.645,495.53c0-0.002,0-0.004,0-0.006c0-7.18-5.82-12.999-13-12.999s-13,5.819-13,12.999c0,0.002,0,0.004,0,0.006h-13
		v2h18v-2h-3c0-0.002,0-0.004,0-0.006c0-6.064,4.935-10.999,11-10.999s11,4.935,11,10.999c0,0.002,0,0.004,0,0.006h-3v2h17.995v-2
		H-578.645z"/>
</g>
<g>
	<rect x="-488.906" y="468.344" width="2" height="10"/>
	<rect x="-474.206" y="474.43" transform="matrix(0.7071 0.7071 -0.7071 0.7071 200.5536 475.0892)" width="2" height="10.409"/>
	<rect x="-507.815" y="478.639" transform="matrix(0.7071 0.7071 -0.7071 0.7071 191.9448 495.8826)" width="10.409" height="2"/>
	<polygon points="-486.906,502.891 -486.906,492.344 -488.906,492.344 -488.906,502.891 -493.16,498.637 -494.574,500.051 
		-487.906,506.719 -481.239,500.051 -482.653,498.637 	"/>
	<path d="M-474.899,494.343c0-0.002,0-0.004,0-0.006c0-7.18-5.82-12.999-13-12.999s-13,5.819-13,12.999c0,0.002,0,0.004,0,0.006h-13
		v2h22v-2h-7c0-0.002,0-0.004,0-0.006c0-6.064,4.935-10.999,11-10.999s11,4.935,11,10.999c0,0.002,0,0.004,0,0.006h-7v2h21.995v-2
		H-474.899z"/>
</g>
<g>
	<polygon points="-284.549,502.356 -284.549,487.974 -286.549,487.974 -286.549,502.356 -290.803,498.103 -292.217,499.517 
		-285.549,506.185 -278.882,499.517 -280.296,498.103 	"/>
	<path d="M-268.921,483.003c-1.596-7.445-8.207-13.029-16.127-13.029c-6.423,0-11.977,3.678-14.702,9.035
		c-0.266-0.018-0.53-0.04-0.8-0.04c-6.627,0-11.999,5.372-11.999,12c0,6.607,5.34,11.965,11.938,11.998v0.003h6.062v-2h-5.604
		l-0.447-0.003c-5.485-0.027-9.948-4.513-9.948-9.998c0-5.514,4.485-10,9.999-10c0.175,0,0.347,0.014,0.52,0.025l0.148,0.01
		l1.316,0.088l0.598-1.176c2.492-4.899,7.443-7.942,12.92-7.942c6.79,0,12.75,4.814,14.172,11.448l0.317,1.482l1.514,0.095
		c4.203,0.262,7.496,3.763,7.496,7.971c0,4.397-3.565,7.977-7.957,8c-0.05-0.003-0.093-0.005-0.137-0.007l-2.043,0.007h-4.863v2
		h6.863v-0.007c0.046,0.001,0.091,0.007,0.137,0.007c5.521,0,10-4.477,10-10C-259.549,487.659-263.693,483.328-268.921,483.003z"/>
</g>
<g>
	<polygon points="-378.564,499.161 -377.15,497.747 -383.817,491.079 -390.485,497.747 -389.071,499.161 -384.817,494.907 
		-384.817,507.493 -382.817,507.493 -382.817,494.907 	"/>
	<path d="M-367.189,484.599c-1.596-7.445-8.207-13.029-16.127-13.029c-6.423,0-11.977,3.678-14.702,9.035
		c-0.266-0.018-0.53-0.04-0.8-0.04c-6.627,0-11.999,5.372-11.999,12c0,6.607,5.34,11.965,11.938,11.998v0.003h10.062v-2h-9.604
		l-0.447-0.003c-5.485-0.027-9.948-4.513-9.948-9.998c0-5.514,4.485-10,9.999-10c0.175,0,0.347,0.014,0.52,0.025l0.148,0.01
		l1.316,0.088l0.598-1.176c2.492-4.899,7.443-7.942,12.92-7.942c6.79,0,12.75,4.814,14.172,11.448l0.317,1.482l1.514,0.095
		c4.203,0.262,7.496,3.763,7.496,7.971c0,4.397-3.565,7.977-7.957,8c-0.05-0.003-0.093-0.005-0.137-0.007l-2.043,0.007h-8.863v2
		h10.863v-0.007c0.046,0.001,0.091,0.007,0.137,0.007c5.521,0,10-4.477,10-10C-357.817,489.255-361.962,484.924-367.189,484.599z"/>
</g>
<g>
	<path d="M-164.7,295.083c-1.596-7.445-8.207-13.029-16.127-13.029c-6.423,0-11.977,3.678-14.702,9.035
		c-0.266-0.018-0.53-0.04-0.8-0.04c-6.627,0-11.999,5.372-11.999,12c0,6.607,5.34,11.965,11.938,11.998v0.003h2.062v-2h-1.604
		l-0.447-0.003c-5.485-0.027-9.948-4.513-9.948-9.998c0-5.514,4.485-10,9.999-10c0.175,0,0.347,0.014,0.52,0.025l0.148,0.01
		l1.316,0.088l0.598-1.176c2.492-4.899,7.443-7.942,12.92-7.942c6.79,0,12.75,4.814,14.172,11.448l0.317,1.482l1.514,0.095
		c4.203,0.262,7.496,3.763,7.496,7.971c0,4.397-3.565,7.977-7.957,8c-0.05-0.003-0.093-0.005-0.137-0.007l-2.043,0.007h-0.863v2
		h2.863v-0.007c0.046,0.001,0.091,0.007,0.137,0.007c5.521,0,10-4.477,10-10C-155.328,299.739-159.473,295.408-164.7,295.083z"/>
	<polygon points="-186.328,314.071 -186.328,311.441 -184.155,312.664 -183.47,311.443 -185.939,310.054 -183.47,308.664 
		-184.155,307.443 -186.328,308.666 -186.328,306.071 -188.328,306.071 -188.328,308.71 -190.579,307.443 -191.265,308.664 
		-188.795,310.054 -191.265,311.443 -190.579,312.664 -188.328,311.397 -188.328,314.071 	"/>
	<polygon points="-181.166,318.426 -183.339,319.648 -183.339,317.054 -185.339,317.054 -185.339,319.692 -187.59,318.426 
		-188.275,319.646 -185.806,321.036 -188.275,322.426 -187.59,323.646 -185.339,322.38 -185.339,325.054 -183.339,325.054 
		-183.339,322.424 -181.166,323.646 -180.48,322.426 -182.95,321.036 -180.48,319.646 	"/>
	<polygon points="-172.15,311.443 -174.323,312.666 -174.323,310.071 -176.323,310.071 -176.323,312.71 -178.574,311.443 
		-179.26,312.664 -176.79,314.054 -179.26,315.443 -178.574,316.664 -176.323,315.397 -176.323,318.071 -174.323,318.071 
		-174.323,315.441 -172.15,316.664 -171.465,315.443 -173.935,314.054 -171.465,312.664 	"/>
</g>
<g>
	<rect x="-89.188" y="277.031" width="2" height="7.973"/>
	<rect x="-108.188" y="295.945" width="7.973" height="2"/>
	<rect x="-103.515" y="284.679" transform="matrix(0.7071 0.7071 -0.7071 0.7071 172.8542 154.0505)" width="7.974" height="2"/>
	<rect x="-78.007" y="281.697" transform="matrix(0.7071 0.7071 -0.7071 0.7071 179.4533 138.1266)" width="2" height="7.972"/>
	<path d="M-58.677,302.821c-1.444-6.742-7.433-11.8-14.605-11.8c-2.185,0-4.258,0.471-6.127,1.314
		c-1.666-3.203-5.006-5.395-8.865-5.395c-5.522,0-10,4.477-10,9.999c0,2.46,0.899,4.702,2.373,6.442
		c-1.428,1.84-2.287,4.144-2.287,6.653c0,5.983,4.836,10.836,10.813,10.865v0.003h1.188v-2h-0.721l-0.457-0.003
		c-4.864-0.023-8.822-4.001-8.822-8.865c0-4.89,3.978-8.868,8.867-8.868c0.15,0,0.299,0.012,0.447,0.022l0.148,0.01l1.314,0.085
		l0.597-1.175c2.225-4.372,6.644-7.089,11.532-7.089c6.062,0,11.382,4.298,12.649,10.219l0.318,1.483l1.514,0.094
		c3.708,0.23,6.612,3.319,6.612,7.03c0,3.878-3.144,7.035-7.017,7.057c-0.042-0.003-0.079-0.005-0.117-0.005l-1.866,0.005v2h1.819
		v-0.006c0.042,0.001,0.082,0.006,0.124,0.006c5.001,0,9.057-4.054,9.057-9.057C-50.188,307.038-53.942,303.116-58.677,302.821z
		 M-86.597,299.204c-0.241-0.016-0.48-0.036-0.725-0.036c-2.766,0-5.282,1.041-7.2,2.742c-1.092-1.365-1.753-3.089-1.753-4.97
		c0-4.41,3.589-7.999,8-7.999c3.092,0,5.76,1.773,7.091,4.346C-83.481,294.727-85.36,296.774-86.597,299.204z"/>
	<polygon points="-79.196,319.924 -79.196,317.294 -77.023,318.517 -76.338,317.296 -78.808,315.906 -76.338,314.517 
		-77.023,313.296 -79.196,314.519 -79.196,311.924 -81.196,311.924 -81.196,314.563 -83.447,313.296 -84.133,314.517 
		-81.663,315.906 -84.133,317.296 -83.447,318.517 -81.196,317.25 -81.196,319.924 	"/>
	<polygon points="-74.034,324.278 -76.207,325.501 -76.207,322.906 -78.207,322.906 -78.207,325.545 -80.458,324.278 
		-81.144,325.499 -78.674,326.889 -81.144,328.278 -80.458,329.499 -78.207,328.232 -78.207,330.906 -76.207,330.906 
		-76.207,328.276 -74.034,329.499 -73.349,328.278 -75.818,326.889 -73.349,325.499 	"/>
	<polygon points="-65.019,317.296 -67.191,318.519 -67.191,315.924 -69.191,315.924 -69.191,318.563 -71.442,317.296 
		-72.128,318.517 -69.658,319.906 -72.128,321.296 -71.442,322.517 -69.191,321.25 -69.191,323.924 -67.191,323.924 
		-67.191,321.294 -65.019,322.517 -64.333,321.296 -66.803,319.906 -64.333,318.517 	"/>
</g>
<g>
	<path d="M41.512,299.818c-1.444-6.742-7.433-11.8-14.605-11.8c-1.799,0-3.522,0.32-5.118,0.904
		c-0.949-5.108-5.404-8.98-10.788-8.98c-0.413,0-0.819,0.027-1.222,0.071c0.744,1.112,1.179,2.448,1.179,3.886c0,3.865-3.134,7-7,7
		c-1.438,0-2.773-0.435-3.886-1.179C0.027,290.122,0,290.529,0,290.942c0,3.713,1.845,6.987,4.661,8.979
		C3.008,301.829,2,304.311,2,307.033c0,5.983,4.836,10.836,10.813,10.865v0.003H14v-2h-0.721l-0.457-0.003
		C7.958,315.875,4,311.897,4,307.033c0-4.89,3.978-8.868,8.867-8.868c0.15,0,0.299,0.012,0.447,0.022l0.148,0.01l1.314,0.085
		l0.597-1.175c2.225-4.372,6.644-7.089,11.532-7.089c6.062,0,11.382,4.298,12.649,10.219l0.318,1.483l1.514,0.094
		c3.708,0.23,6.612,3.319,6.612,7.03c0,3.878-3.144,7.035-7.017,7.057c-0.042-0.003-0.079-0.005-0.117-0.005L39,315.901v2h1.819
		v-0.006c0.042,0.001,0.082,0.006,0.124,0.006c5.001,0,9.057-4.054,9.057-9.057C50,304.035,46.246,300.113,41.512,299.818z
		 M13.592,296.201c-0.241-0.016-0.48-0.036-0.725-0.036c-2.537,0-4.865,0.877-6.715,2.334c-2.012-1.294-3.486-3.354-3.976-5.776
		c0.582,0.117,1.178,0.177,1.78,0.177c4.963,0,9-4.037,9-9c0-0.603-0.06-1.198-0.177-1.78c3.733,0.753,6.629,3.824,7.134,7.64
		C17.201,291.203,14.986,293.458,13.592,296.201z"/>
	<polygon points="21.037,316.921 21.037,314.291 23.21,315.514 23.896,314.293 21.426,312.903 23.896,311.514 23.21,310.293 
		21.037,311.516 21.037,308.921 19.037,308.921 19.037,311.56 16.786,310.293 16.101,311.514 18.57,312.903 16.101,314.293 
		16.786,315.514 19.037,314.247 19.037,316.921 	"/>
	<polygon points="26.199,321.275 24.026,322.498 24.026,319.903 22.026,319.903 22.026,322.542 19.775,321.275 19.09,322.496 
		21.56,323.886 19.09,325.275 19.775,326.496 22.026,325.229 22.026,327.903 24.026,327.903 24.026,325.273 26.199,326.496 
		26.885,325.275 24.415,323.886 26.885,322.496 	"/>
	<polygon points="35.215,314.293 33.042,315.516 33.042,312.921 31.042,312.921 31.042,315.56 28.791,314.293 28.105,315.514 
		30.575,316.903 28.105,318.293 28.791,319.514 31.042,318.247 31.042,320.921 33.042,320.921 33.042,318.291 35.215,319.514 
		35.9,318.293 33.431,316.903 35.9,315.514 	"/>
</g>
<rect x="-574.847" y="-267.932" fill="none" width="472.974" height="180.918"/>
<text transform="matrix(1 0 0 1 -395.2095 -196.5327)"><tspan x="0" y="0" font-family="'HelveticaNeueLTStd-Th'" font-size="100" letter-spacing="2">60</tspan><tspan x="-99.268" y="60" font-family="'HelveticaNeueLTStd-Lt'" font-size="48" letter-spacing="1">Weather Icons</tspan><tspan x="-3.726" y="104" font-family="'HelveticaNeueLTStd-Lt'" font-size="24">IOS 7 Style</tspan></text>
</svg>
