<?xml version="1.0" encoding="utf-8"?>
<!-- Generator: Adobe Illustrator 16.0.0, SVG Export Plug-In . SVG Version: 6.00 Build 0)  -->
<!DOCTYPE svg PUBLIC "-//W3C//DTD SVG 1.1//EN" "http://www.w3.org/Graphics/SVG/1.1/DTD/svg11.dtd">
<svg version="1.1" id="Layer_1" xmlns="http://www.w3.org/2000/svg" xmlns:xlink="http://www.w3.org/1999/xlink" x="0px" y="0px"
	 width="53px" height="47.018px" viewBox="0 0 53 47.018" enable-background="new 0 0 53 47.018" xml:space="preserve">
<path d="M134.695,469.271l-1.803,15.077l-0.268,2.237h2.254h6.896l-14.693,18.759l1.789-14.52l0.277-2.245h-2.262h-6.957
	L134.695,469.271 M137.55,462.247l-21.667,28.333h11.004l-2.671,21.667l21.667-27.661h-11.004L137.55,462.247L137.55,462.247z"/>
<path d="M-278.34,7.011c6.79,0,12.749,4.814,14.171,11.448l0.318,1.483l1.514,0.094c4.203,0.262,7.496,3.763,7.496,7.971
	c0,4.396-3.565,7.977-7.957,8c-0.046-0.003-0.091-0.006-0.137-0.007l-2.043-0.036v0.043h-28.337l-0.578-0.003
	c-5.485-0.027-9.948-4.513-9.948-9.998c0-5.514,4.485-10,9.999-10c0.175,0,0.347,0.014,0.519,0.025l0.149,0.011l1.316,0.087
	l0.598-1.176C-288.767,10.054-283.816,7.011-278.34,7.011 M-278.34,5.011c-6.423,0-11.977,3.678-14.702,9.035
	c-0.266-0.018-0.53-0.04-0.8-0.04c-6.627,0-11.999,5.372-11.999,12c0,6.607,5.34,11.965,11.938,11.998v0.003h30.925V38
	c0.046,0.001,0.091,0.007,0.137,0.007c5.521,0,10-4.477,10-10c0-5.311-4.145-9.642-9.372-9.967
	C-263.809,10.595-270.42,5.011-278.34,5.011L-278.34,5.011z"/>
<g>
	<path d="M-155.389,25.422c-1.444-6.742-7.433-11.8-14.605-11.8c-2.185,0-4.258,0.47-6.127,1.313
		c-1.666-3.202-5.006-5.394-8.865-5.394c-5.522,0-10,4.477-10,9.999c0,2.46,0.898,4.702,2.373,6.442
		c-1.428,1.84-2.287,4.144-2.287,6.653c0,5.983,4.836,10.836,10.813,10.865v0.003h28.007v-0.006
		c0.042,0.001,0.082,0.006,0.124,0.006c5.001,0,9.057-4.054,9.057-9.057C-146.9,29.639-150.654,25.717-155.389,25.422z
		 M-184.986,11.542c3.092,0,5.76,1.773,7.092,4.345c-2.299,1.44-4.178,3.488-5.414,5.918c-0.241-0.016-0.48-0.036-0.725-0.036
		c-2.766,0-5.281,1.041-7.2,2.743c-1.092-1.366-1.753-3.09-1.753-4.971C-192.986,15.131-189.397,11.542-184.986,11.542z
		 M-155.917,41.505c-0.038-0.003-0.077-0.004-0.117-0.005l-2.047-0.042v0.047h-25.403l-0.594-0.003
		c-4.864-0.023-8.822-4.001-8.822-8.865c0-4.89,3.978-8.868,8.867-8.868c0.15,0,0.299,0.012,0.447,0.021l0.148,0.011l1.314,0.085
		l0.598-1.174c2.224-4.373,6.643-7.09,11.531-7.09c6.062,0,11.381,4.298,12.65,10.219l0.317,1.482l1.514,0.095
		c3.708,0.231,6.612,3.319,6.612,7.03C-148.9,38.326-152.044,41.482-155.917,41.505z"/>
	<rect x="-185.98" y="-0.488" width="2" height="7.973"/>
	<rect x="-204.953" y="18.498" width="7.973" height="2"/>
	<rect x="-200.227" y="7.279" transform="matrix(0.7071 0.7071 -0.7071 0.7071 -51.6231 141.1878)" width="7.974" height="2"/>
	<rect x="-174.719" y="4.297" transform="matrix(0.7071 0.7071 -0.7071 0.7071 -45.0239 125.2638)" width="2" height="7.972"/>
</g>
<path d="M-59.646,21.395c-1.444-6.742-7.433-11.8-14.605-11.8c-1.799,0-3.521,0.32-5.118,0.904c-0.949-5.108-5.404-8.98-10.788-8.98
	c-0.413,0-0.819,0.027-1.222,0.071c0.744,1.112,1.179,2.448,1.179,3.886c0,3.865-3.134,7-7,7c-1.438,0-2.773-0.435-3.886-1.179
	c-0.044,0.401-0.071,0.809-0.071,1.222c0,3.712,1.845,6.987,4.661,8.979c-1.653,1.907-2.661,4.389-2.661,7.111
	c0,5.983,4.836,10.836,10.813,10.865v0.003h28.007v-0.006c0.042,0.001,0.082,0.006,0.124,0.006c5.001,0,9.057-4.054,9.057-9.057
	C-51.157,25.611-54.911,21.689-59.646,21.395z M-98.98,14.299c0.582,0.117,1.178,0.177,1.78,0.177c4.963,0,9-4.037,9-9
	c0-0.603-0.06-1.198-0.177-1.78c3.733,0.753,6.629,3.824,7.134,7.64c-2.713,1.444-4.928,3.699-6.322,6.442
	c-0.241-0.016-0.48-0.036-0.725-0.036c-2.537,0-4.865,0.876-6.715,2.334C-97.017,18.781-98.491,16.722-98.98,14.299z
	 M-60.174,37.478c-0.038-0.003-0.077-0.004-0.117-0.005l-2.047-0.042v0.047h-25.403l-0.594-0.003
	c-4.864-0.023-8.822-4.001-8.822-8.865c0-4.89,3.978-8.868,8.867-8.868c0.15,0,0.299,0.012,0.447,0.021l0.148,0.011l1.314,0.085
	l0.598-1.174c2.224-4.373,6.643-7.09,11.531-7.09c6.062,0,11.381,4.298,12.65,10.219l0.317,1.482l1.514,0.095
	c3.708,0.231,6.612,3.319,6.612,7.03C-53.157,34.299-56.301,37.455-60.174,37.478z"/>
<g>
	<rect x="25" y="30.018" width="2" height="7"/>
	<rect x="33" y="26.018" width="2" height="7"/>
	<rect x="17" y="26.018" width="2" height="7"/>
	<rect x="25" y="40.018" width="2" height="7"/>
	<rect x="33" y="36.018" width="2" height="7"/>
	<rect x="17" y="36.018" width="2" height="7"/>
	<path d="M43.628,13.029C42.032,5.584,35.421,0,27.501,0c-6.423,0-11.977,3.678-14.702,9.035c-0.266-0.018-0.53-0.04-0.8-0.04
		C5.372,8.995,0,14.367,0,20.995c0,6.607,5.34,11.965,11.938,11.998v0.003H14v-2h-1.604l-0.447-0.003C6.463,30.966,2,26.48,2,20.995
		c0-5.514,4.485-10,9.999-10c0.175,0,0.347,0.014,0.52,0.025l0.148,0.01l1.316,0.088l0.598-1.176C17.073,5.043,22.024,2,27.501,2
		c6.79,0,12.75,4.814,14.172,11.448l0.317,1.482l1.514,0.095C47.707,15.287,51,18.788,51,22.996c0,4.397-3.565,7.977-7.957,8
		c-0.05-0.003-0.093-0.005-0.137-0.007l-2.043,0.007H38v2h4.863v-0.007c0.046,0.001,0.091,0.007,0.137,0.007c5.521,0,10-4.477,10-10
		C53,17.686,48.855,13.354,43.628,13.029z"/>
</g>
<g>
	<path d="M-158.799,102.387c-1.596-7.445-8.207-13.029-16.127-13.029c-6.423,0-11.977,3.678-14.702,9.035
		c-0.266-0.018-0.53-0.04-0.8-0.04c-6.627,0-11.999,5.372-11.999,12c0,6.607,5.34,11.965,11.938,11.998v0.003h2.062v-2h-1.604
		l-0.447-0.003c-5.485-0.027-9.948-4.513-9.948-9.998c0-5.514,4.485-10,9.999-10c0.175,0,0.347,0.014,0.52,0.025l0.148,0.01
		l1.316,0.088l0.598-1.176c2.492-4.899,7.443-7.942,12.92-7.942c6.79,0,12.75,4.814,14.172,11.448l0.317,1.482l1.514,0.095
		c4.203,0.262,7.496,3.763,7.496,7.971c0,4.397-3.565,7.977-7.957,8c-0.05-0.003-0.093-0.005-0.137-0.007l-2.043,0.007h-2.863v2
		h4.863v-0.007c0.046,0.001,0.091,0.007,0.137,0.007c5.521,0,10-4.477,10-10C-149.427,107.043-153.571,102.712-158.799,102.387z"/>
	<polygon points="-177.427,129.382 -177.427,131.322 -177.427,137.382 -175.427,137.382 -175.427,131.322 -175.427,129.382 
		-175.427,117.382 -177.427,117.382 	"/>
	<polygon points="-169.427,125.382 -169.427,127.135 -169.427,133.382 -167.427,133.382 -167.427,127.135 -167.427,125.382 
		-167.427,113.382 -169.427,113.382 	"/>
	<polygon points="-185.427,125.382 -185.427,127.447 -185.427,133.382 -183.427,133.382 -183.427,127.447 -183.427,125.382 
		-183.427,113.382 -185.427,113.382 	"/>
</g>
<g>
	<polygon points="136.851,126.293 129.968,116.463 128.33,117.61 135.213,127.44 136.325,129.029 139.801,133.993 141.439,132.847 
		137.964,127.882 	"/>
	<polygon points="144.853,126.291 137.968,116.463 136.33,117.611 143.216,127.439 144.221,128.875 147.805,133.99 149.443,132.844 
		145.859,127.728 	"/>
	<polygon points="128.851,126.293 121.968,116.463 120.33,117.611 127.213,127.44 128.397,129.133 131.802,133.994 133.439,132.847 
		130.036,127.985 	"/>
	<path d="M147.958,102.653c-1.596-7.445-8.207-13.029-16.127-13.029c-6.423,0-11.977,3.678-14.702,9.035
		c-0.266-0.018-0.53-0.04-0.8-0.04c-6.627,0-11.999,5.372-11.999,12c0,6.607,5.34,11.965,11.938,11.998v0.003h2.062v-2h-1.604
		l-0.447-0.003c-5.485-0.027-9.948-4.513-9.948-9.998c0-5.514,4.485-10,9.999-10c0.175,0,0.347,0.014,0.52,0.025l0.148,0.01
		l1.316,0.088l0.598-1.176c2.492-4.899,7.443-7.942,12.92-7.942c6.79,0,12.75,4.814,14.172,11.448l0.317,1.482l1.514,0.095
		c4.203,0.262,7.496,3.763,7.496,7.971c0,4.397-3.565,7.977-7.957,8c-0.05-0.003-0.093-0.005-0.137-0.007l-1.043,0.007h0.137v2
		h0.863v-0.007c0.046,0.001,0.091,0.007,0.137,0.007c5.521,0,10-4.477,10-10C157.33,107.31,153.186,102.979,147.958,102.653z"/>
</g>
<g>
	<rect x="119.656" y="-6.429" width="2" height="7.973"/>
	<rect x="100.656" y="12.485" width="7.973" height="2"/>
	<rect x="105.329" y="1.219" transform="matrix(0.7071 0.7071 -0.7071 0.7071 33.5869 -76.6485)" width="7.974" height="2"/>
	<rect x="130.838" y="-1.763" transform="matrix(0.7071 0.7071 -0.7071 0.7071 40.1861 -92.5725)" width="2" height="7.972"/>
	<rect x="133.656" y="34.444" width="2" height="7"/>
	<rect x="141.656" y="30.444" width="2" height="7"/>
	<rect x="125.656" y="30.444" width="2" height="7"/>
	<rect x="133.656" y="44.444" width="2" height="7"/>
	<rect x="141.656" y="40.444" width="2" height="7"/>
	<rect x="125.656" y="40.444" width="2" height="7"/>
	<path d="M150.168,19.361c-1.444-6.742-7.433-11.8-14.605-11.8c-2.185,0-4.258,0.47-6.126,1.313
		c-1.667-3.202-5.007-5.394-8.866-5.394c-5.522,0-10,4.477-10,9.999c0,2.46,0.899,4.702,2.373,6.442
		c-1.429,1.84-2.287,4.144-2.287,6.653c0,5.983,4.836,10.836,10.813,10.865v0.003h1.188v-2h-0.721l-0.457-0.003
		c-4.864-0.023-8.822-4.001-8.822-8.865c0-4.89,3.978-8.868,8.867-8.868c0.15,0,0.299,0.012,0.447,0.022l0.148,0.01l1.314,0.085
		l0.597-1.175c2.225-4.372,6.644-7.089,11.532-7.089c6.062,0,11.382,4.298,12.649,10.219l0.318,1.483l1.514,0.094
		c3.708,0.23,6.612,3.319,6.612,7.03c0,3.878-3.144,7.035-7.017,7.057c-0.042-0.003-0.079-0.005-0.117-0.005l-2.047,0.005h-0.819v2
		h2.819v-0.006c0.042,0.001,0.082,0.006,0.124,0.006c5.001,0,9.057-4.054,9.057-9.057C158.656,23.578,154.902,19.656,150.168,19.361
		z M122.248,15.744c-0.241-0.016-0.48-0.036-0.725-0.036c-2.766,0-5.282,1.041-7.2,2.743c-1.092-1.366-1.753-3.09-1.753-4.971
		c0-4.41,3.589-7.999,8-7.999c3.091,0,5.76,1.773,7.091,4.345C125.363,11.267,123.483,13.314,122.248,15.744z"/>
</g>
<g>
	<rect x="234.073" y="32.997" width="2" height="7"/>
	<rect x="242.073" y="28.997" width="2" height="7"/>
	<rect x="226.073" y="28.997" width="2" height="7"/>
	<rect x="234.073" y="42.997" width="2" height="7"/>
	<rect x="242.073" y="38.997" width="2" height="7"/>
	<rect x="226.073" y="38.997" width="2" height="7"/>
	<path d="M250.585,17.914c-1.444-6.742-7.433-11.8-14.605-11.8c-1.799,0-3.522,0.32-5.118,0.904
		c-0.949-5.108-5.404-8.98-10.788-8.98c-0.413,0-0.819,0.027-1.222,0.071c0.744,1.112,1.179,2.448,1.179,3.886c0,3.865-3.134,7-7,7
		c-1.438,0-2.773-0.435-3.886-1.179c-0.044,0.401-0.071,0.809-0.071,1.222c0,3.712,1.845,6.987,4.661,8.979
		c-1.653,1.907-2.661,4.389-2.661,7.111c0,5.983,4.836,10.836,10.813,10.865v0.003h1.188v-2h-0.721l-0.457-0.003
		c-4.864-0.023-8.822-4.001-8.822-8.865c0-4.89,3.978-8.868,8.867-8.868c0.15,0,0.299,0.012,0.447,0.022l0.148,0.01l1.314,0.085
		l0.597-1.175c2.225-4.372,6.644-7.089,11.532-7.089c6.062,0,11.382,4.298,12.649,10.219l0.318,1.483l1.514,0.094
		c3.708,0.23,6.612,3.319,6.612,7.03c0,3.878-3.144,7.035-7.017,7.057c-0.042-0.003-0.079-0.005-0.117-0.005l-2.047,0.005h-0.819v2
		h2.819v-0.006c0.042,0.001,0.082,0.006,0.124,0.006c5.001,0,9.057-4.054,9.057-9.057C259.073,22.131,255.319,18.209,250.585,17.914
		z M222.665,14.297c-0.241-0.016-0.48-0.036-0.725-0.036c-2.537,0-4.865,0.876-6.715,2.334c-2.012-1.294-3.487-3.354-3.976-5.776
		c0.582,0.117,1.178,0.177,1.78,0.177c4.963,0,9-4.037,9-9c0-0.603-0.06-1.198-0.177-1.78c3.733,0.753,6.629,3.824,7.133,7.64
		C226.275,9.299,224.061,11.554,222.665,14.297z"/>
</g>
<g>
	<polygon points="-73.157,133.82 -73.157,135.761 -73.157,141.82 -71.157,141.82 -71.157,135.761 -71.157,133.82 -71.157,121.82 
		-73.157,121.82 	"/>
	<polygon points="-65.157,129.82 -65.157,131.573 -65.157,137.82 -63.157,137.82 -63.157,131.573 -63.157,129.82 -63.157,117.82 
		-65.157,117.82 	"/>
	<polygon points="-81.157,129.82 -81.157,131.886 -81.157,137.82 -79.157,137.82 -79.157,131.886 -79.157,129.82 -79.157,117.82 
		-81.157,117.82 	"/>
	<rect x="-87.157" y="82.918" width="2" height="7.973"/>
	<rect x="-106.157" y="101.832" width="7.973" height="2"/>
	<rect x="-101.484" y="90.566" transform="matrix(0.7071 0.7071 -0.7071 0.7071 36.1903 95.7597)" width="7.974" height="2"/>
	<rect x="-75.975" y="87.584" transform="matrix(0.7071 0.7071 -0.7071 0.7071 42.7895 79.8358)" width="2" height="7.972"/>
	<path d="M-56.646,108.708c-1.444-6.742-7.433-11.8-14.605-11.8c-2.185,0-4.258,0.47-6.127,1.313
		c-1.666-3.202-5.006-5.394-8.865-5.394c-5.522,0-10,4.477-10,9.999c0,2.46,0.898,4.702,2.373,6.442
		c-1.428,1.84-2.287,4.144-2.287,6.653c0,5.983,4.836,10.836,10.813,10.865v0.003h1.188v-2h-0.721l-0.457-0.003
		c-4.864-0.023-8.822-4.001-8.822-8.865c0-4.89,3.978-8.868,8.867-8.868c0.15,0,0.299,0.012,0.447,0.022l0.148,0.01l1.314,0.085
		l0.597-1.175c2.225-4.372,6.644-7.089,11.532-7.089c6.062,0,11.382,4.298,12.649,10.219l0.318,1.483l1.514,0.094
		c3.708,0.23,6.612,3.319,6.612,7.03c0,3.878-3.144,7.035-7.017,7.057c-0.042-0.003-0.079-0.005-0.117-0.005l-2.047,0.005h-0.819v2
		h2.819v-0.006c0.042,0.001,0.082,0.006,0.124,0.006c5.001,0,9.057-4.054,9.057-9.057
		C-48.157,112.925-51.911,109.003-56.646,108.708z M-84.565,105.091c-0.241-0.016-0.48-0.036-0.725-0.036
		c-2.766,0-5.281,1.042-7.2,2.743c-1.092-1.367-1.753-3.09-1.753-4.971c0-4.41,3.589-7.999,8-7.999c3.092,0,5.76,1.773,7.092,4.345
		C-81.45,100.612-83.329,102.661-84.565,105.091z"/>
</g>
<g>
	<polygon points="27.24,131.304 27.24,133.244 27.24,139.304 29.24,139.304 29.24,133.244 29.24,131.304 29.24,119.304 
		27.24,119.304 	"/>
	<polygon points="35.24,127.304 35.24,129.057 35.24,135.304 37.24,135.304 37.24,129.057 37.24,127.304 37.24,115.304 
		35.24,115.304 	"/>
	<polygon points="19.24,127.304 19.24,129.369 19.24,135.304 21.24,135.304 21.24,129.369 21.24,127.304 21.24,115.304 
		19.24,115.304 	"/>
	<path d="M43.752,106.191c-1.444-6.742-7.433-11.8-14.605-11.8c-1.799,0-3.521,0.32-5.118,0.904
		c-0.949-5.108-5.404-8.98-10.788-8.98c-0.413,0-0.819,0.027-1.222,0.071c0.744,1.112,1.179,2.448,1.179,3.886c0,3.865-3.134,7-7,7
		c-1.438,0-2.773-0.435-3.886-1.179c-0.044,0.401-0.071,0.809-0.071,1.222c0,3.712,1.845,6.987,4.661,8.979
		c-1.653,1.907-2.661,4.389-2.661,7.111c0,5.983,4.836,10.836,10.813,10.865v0.003h1.188v-2H15.52l-0.457-0.003
		c-4.864-0.023-8.822-4.001-8.822-8.865c0-4.89,3.978-8.868,8.867-8.868c0.15,0,0.299,0.012,0.447,0.022l0.148,0.01l1.314,0.085
		l0.597-1.175c2.225-4.372,6.644-7.089,11.532-7.089c6.062,0,11.382,4.298,12.649,10.219l0.318,1.483l1.514,0.094
		c3.708,0.23,6.612,3.319,6.612,7.03c0,3.878-3.144,7.035-7.017,7.057c-0.042-0.003-0.079-0.005-0.117-0.005l-2.047,0.005H40.24v2
		h2.819v-0.006c0.042,0.001,0.082,0.006,0.124,0.006c5.001,0,9.057-4.054,9.057-9.057C52.24,110.408,48.486,106.486,43.752,106.191z
		 M15.832,102.574c-0.241-0.016-0.48-0.036-0.725-0.036c-2.537,0-4.865,0.876-6.715,2.334c-2.012-1.294-3.486-3.354-3.976-5.776
		c0.582,0.117,1.178,0.177,1.78,0.177c4.963,0,9-4.037,9-9c0-0.603-0.06-1.198-0.177-1.78c3.733,0.753,6.629,3.824,7.134,7.641
		C19.441,97.576,17.227,99.832,15.832,102.574z"/>
</g>
<g>
	<polygon points="244.275,132.248 237.393,122.418 235.755,123.565 242.638,133.396 243.75,134.984 247.226,139.948 
		248.864,138.802 245.389,133.837 	"/>
	<polygon points="252.277,132.246 245.393,122.418 243.755,123.566 250.641,133.395 251.646,134.83 255.229,139.945 
		256.868,138.799 253.284,133.683 	"/>
	<polygon points="236.275,132.248 229.393,122.418 227.755,123.566 234.638,133.396 235.822,135.088 239.227,139.949 
		240.864,138.802 237.461,133.94 	"/>
	<rect x="223.755" y="84.699" width="2" height="7.973"/>
	<rect x="204.755" y="103.613" width="7.973" height="2"/>
	<rect x="209.428" y="92.347" transform="matrix(0.7071 0.7071 -0.7071 0.7071 128.5139 -123.5666)" width="7.974" height="2"/>
	<rect x="234.937" y="89.365" transform="matrix(0.7071 0.7071 -0.7071 0.7071 135.1131 -139.4906)" width="2" height="7.972"/>
	<path d="M254.267,110.489c-1.444-6.742-7.433-11.8-14.605-11.8c-2.185,0-4.258,0.47-6.126,1.313
		c-1.667-3.202-5.007-5.394-8.866-5.394c-5.522,0-10,4.477-10,9.999c0,2.46,0.899,4.702,2.373,6.442
		c-1.429,1.84-2.287,4.144-2.287,6.653c0,5.983,4.836,10.836,10.813,10.865v0.003h1.188v-2h-0.721l-0.457-0.003
		c-4.864-0.023-8.822-4.001-8.822-8.865c0-4.89,3.978-8.868,8.867-8.868c0.15,0,0.299,0.012,0.447,0.022l0.148,0.01l1.314,0.085
		l0.597-1.175c2.225-4.372,6.644-7.089,11.532-7.089c6.062,0,11.382,4.298,12.649,10.219l0.318,1.483l1.514,0.094
		c3.708,0.23,6.612,3.319,6.612,7.03c0,3.878-3.144,7.035-7.017,7.057c-0.042-0.003-0.079-0.005-0.117-0.005l-0.047,0.005h-0.819v2
		h0.819v-0.006c0.042,0.001,0.082,0.006,0.124,0.006c5.001,0,9.057-4.054,9.057-9.057
		C262.755,114.706,259.001,110.784,254.267,110.489z M226.347,106.872c-0.241-0.016-0.48-0.036-0.725-0.036
		c-2.766,0-5.282,1.042-7.2,2.743c-1.092-1.367-1.753-3.09-1.753-4.971c0-4.41,3.589-7.999,8-7.999c3.091,0,5.76,1.773,7.091,4.345
		C229.462,102.394,227.582,104.442,226.347,106.872z"/>
</g>
<g>
	<polygon points="-479.155,228.733 -486.038,218.903 -487.676,220.051 -480.793,229.881 -479.681,231.47 -476.205,236.434 
		-474.566,235.287 -478.042,230.322 	"/>
	<polygon points="-471.153,228.731 -478.038,218.903 -479.676,220.052 -472.79,229.88 -471.785,231.315 -468.201,236.431 
		-466.563,235.284 -470.146,230.168 	"/>
	<polygon points="-487.155,228.733 -494.038,218.903 -495.676,220.052 -488.793,229.881 -487.608,231.573 -484.204,236.435 
		-482.566,235.287 -485.97,230.426 	"/>
	<path d="M-469.164,206.975c-1.444-6.742-7.433-11.8-14.605-11.8c-1.799,0-3.522,0.32-5.118,0.904
		c-0.949-5.108-5.404-8.98-10.788-8.98c-0.413,0-0.819,0.027-1.222,0.071c0.744,1.112,1.179,2.448,1.179,3.886c0,3.865-3.134,7-7,7
		c-1.438,0-2.773-0.435-3.886-1.179c-0.044,0.401-0.071,0.809-0.071,1.222c0,3.712,1.845,6.987,4.661,8.979
		c-1.653,1.907-2.661,4.389-2.661,7.111c0,5.983,4.836,10.836,10.813,10.865v0.003h1.188v-2h-0.721l-0.457-0.003
		c-4.864-0.023-8.822-4.001-8.822-8.865c0-4.89,3.978-8.868,8.867-8.868c0.15,0,0.299,0.012,0.447,0.022l0.148,0.01l1.314,0.085
		l0.597-1.175c2.225-4.372,6.644-7.089,11.532-7.089c6.062,0,11.382,4.298,12.649,10.219l0.318,1.483l1.514,0.094
		c3.708,0.23,6.612,3.319,6.612,7.03c0,3.878-3.144,7.035-7.017,7.057c-0.042-0.003-0.079-0.005-0.117-0.005l-0.047,0.005h-0.819v2
		h0.819v-0.006c0.042,0.001,0.082,0.006,0.124,0.006c5.001,0,9.057-4.054,9.057-9.057
		C-460.676,211.191-464.43,207.27-469.164,206.975z M-497.084,203.357c-0.241-0.016-0.48-0.036-0.725-0.036
		c-2.537,0-4.865,0.876-6.715,2.334c-2.012-1.294-3.487-3.354-3.976-5.776c0.582,0.117,1.178,0.177,1.78,0.177c4.963,0,9-4.037,9-9
		c0-0.603-0.06-1.198-0.177-1.78c3.733,0.753,6.629,3.824,7.133,7.641C-493.474,198.359-495.688,200.615-497.084,203.357z"/>
</g>
<g>
	<rect x="-486.676" y="124.887" width="2" height="4"/>
	<rect x="-478.676" y="120.865" width="2" height="4.021"/>
	<rect x="-494.676" y="120.865" width="2" height="4.021"/>
	<path d="M-468.048,104.898c-1.596-7.445-8.207-13.029-16.127-13.029c-6.423,0-11.977,3.678-14.702,9.035
		c-0.266-0.018-0.53-0.04-0.8-0.04c-6.627,0-11.999,5.372-11.999,12c0,6.607,5.34,11.965,11.938,11.998v0.003h2.062v-2h-1.604
		l-0.447-0.003c-5.485-0.027-9.948-4.513-9.948-9.998c0-5.514,4.485-10,9.999-10c0.175,0,0.347,0.014,0.52,0.025l0.148,0.01
		l1.316,0.088l0.598-1.176c2.492-4.899,7.443-7.942,12.92-7.942c6.79,0,12.75,4.814,14.172,11.448l0.317,1.482l1.514,0.095
		c4.203,0.262,7.496,3.763,7.496,7.971c0,4.397-3.565,7.977-7.957,8c-0.05-0.003-0.093-0.005-0.137-0.007l-2.043,0.007h-2.863v2
		h4.863v-0.007c0.046,0.001,0.091,0.007,0.137,0.007c5.521,0,10-4.477,10-10C-458.676,109.555-462.82,105.224-468.048,104.898z"/>
	<circle cx="-477.676" cy="129.907" r="1.5"/>
	<circle cx="-485.676" cy="133.876" r="1.5"/>
	<circle cx="-493.676" cy="129.865" r="1.5"/>
</g>
<g>
	<rect x="-393.755" y="85.433" width="2" height="7.973"/>
	<rect x="-412.755" y="104.347" width="7.973" height="2"/>
	<rect x="-408.082" y="93.08" transform="matrix(0.7071 0.7071 -0.7071 0.7071 -51.8319 313.2935)" width="7.974" height="2"/>
	<rect x="-382.573" y="90.098" transform="matrix(0.7071 0.7071 -0.7071 0.7071 -45.2328 297.3696)" width="2" height="7.972"/>
	<path d="M-363.243,111.223c-1.444-6.742-7.433-11.8-14.605-11.8c-2.185,0-4.258,0.47-6.126,1.313
		c-1.667-3.202-5.007-5.394-8.866-5.394c-5.522,0-10,4.477-10,9.999c0,2.46,0.899,4.702,2.373,6.442
		c-1.429,1.84-2.287,4.144-2.287,6.653c0,5.983,4.836,10.836,10.813,10.865v0.003h1.188v-2h-0.721l-0.457-0.003
		c-4.864-0.023-8.822-4.001-8.822-8.865c0-4.89,3.978-8.868,8.867-8.868c0.15,0,0.299,0.012,0.447,0.022l0.148,0.01l1.314,0.085
		l0.597-1.175c2.225-4.372,6.644-7.089,11.532-7.089c6.062,0,11.382,4.298,12.649,10.219l0.318,1.483l1.514,0.094
		c3.708,0.23,6.612,3.319,6.612,7.03c0,3.878-3.144,7.035-7.017,7.057c-0.042-0.003-0.079-0.005-0.117-0.005l-2.047,0.005h-0.819v2
		h2.819V129.3c0.042,0.001,0.082,0.006,0.124,0.006c5.001,0,9.057-4.054,9.057-9.057
		C-354.755,115.439-358.509,111.518-363.243,111.223z M-391.163,107.605c-0.241-0.016-0.48-0.036-0.725-0.036
		c-2.766,0-5.282,1.042-7.2,2.743c-1.092-1.367-1.753-3.09-1.753-4.971c0-4.41,3.589-7.999,8-7.999c3.091,0,5.76,1.773,7.091,4.345
		C-388.048,103.127-389.928,105.176-391.163,107.605z"/>
	<rect x="-379.755" y="129.321" width="2" height="4"/>
	<rect x="-371.755" y="125.3" width="2" height="4.021"/>
	<rect x="-387.755" y="125.3" width="2" height="4.021"/>
	<circle cx="-370.755" cy="134.342" r="1.5"/>
	<circle cx="-378.755" cy="138.311" r="1.5"/>
	<circle cx="-386.755" cy="134.3" r="1.5"/>
</g>
<g>
	<path d="M-262.317,110.266c-1.444-6.742-7.433-11.8-14.605-11.8c-1.799,0-3.522,0.32-5.118,0.904
		c-0.949-5.108-5.404-8.98-10.788-8.98c-0.413,0-0.819,0.027-1.222,0.071c0.744,1.112,1.179,2.448,1.179,3.886c0,3.865-3.134,7-7,7
		c-1.438,0-2.773-0.435-3.886-1.179c-0.044,0.401-0.071,0.809-0.071,1.222c0,3.712,1.845,6.987,4.661,8.979
		c-1.653,1.907-2.661,4.389-2.661,7.111c0,5.983,4.836,10.836,10.813,10.865v0.003h1.188v-2h-0.721l-0.457-0.003
		c-4.864-0.023-8.822-4.001-8.822-8.865c0-4.89,3.978-8.868,8.867-8.868c0.15,0,0.299,0.012,0.447,0.022l0.148,0.01l1.314,0.085
		l0.597-1.175c2.225-4.372,6.644-7.089,11.532-7.089c6.062,0,11.382,4.298,12.649,10.219l0.318,1.483l1.514,0.094
		c3.708,0.23,6.612,3.319,6.612,7.03c0,3.878-3.144,7.035-7.017,7.057c-0.042-0.003-0.079-0.005-0.117-0.005l-2.047,0.005h-0.819v2
		h2.819v-0.006c0.042,0.001,0.082,0.006,0.124,0.006c5.001,0,9.057-4.054,9.057-9.057
		C-253.829,114.482-257.583,110.561-262.317,110.266z M-290.237,106.648c-0.241-0.016-0.48-0.036-0.725-0.036
		c-2.537,0-4.865,0.876-6.715,2.334c-2.012-1.294-3.487-3.354-3.976-5.776c0.582,0.117,1.178,0.177,1.78,0.177c4.963,0,9-4.037,9-9
		c0-0.603-0.06-1.198-0.177-1.78c3.733,0.753,6.629,3.824,7.133,7.641C-286.627,101.65-288.842,103.906-290.237,106.648z"/>
	<rect x="-278.829" y="128.364" width="2" height="4"/>
	<rect x="-270.829" y="124.343" width="2" height="4.021"/>
	<rect x="-286.829" y="124.343" width="2" height="4.021"/>
	<circle cx="-269.829" cy="133.385" r="1.5"/>
	<circle cx="-277.829" cy="137.354" r="1.5"/>
	<circle cx="-285.829" cy="133.343" r="1.5"/>
</g>
<g>
	<path d="M-365.627,203.296c-1.596-7.445-8.207-13.029-16.127-13.029c-6.423,0-11.977,3.678-14.702,9.035
		c-0.266-0.018-0.53-0.04-0.8-0.04c-6.627,0-11.999,5.372-11.999,12c0,6.607,5.34,11.965,11.938,11.998v0.003h6.062v-2h-5.604
		l-0.447-0.003c-5.485-0.027-9.948-4.513-9.948-9.998c0-5.514,4.485-10,9.999-10c0.175,0,0.347,0.014,0.52,0.025l0.148,0.01
		l1.316,0.088l0.598-1.176c2.492-4.899,7.443-7.942,12.92-7.942c6.79,0,12.75,4.814,14.172,11.448l0.317,1.482l1.514,0.095
		c4.203,0.262,7.496,3.763,7.496,7.971c0,4.397-3.565,7.977-7.957,8c-0.05-0.003-0.093-0.005-0.137-0.007l-5.043,0.007h0.137v2
		h4.863v-0.007c0.046,0.001,0.091,0.007,0.137,0.007c5.521,0,10-4.477,10-10C-356.255,207.952-360.399,203.621-365.627,203.296z"/>
	<polygon points="-381.413,223.267 -379.644,223.267 -379.213,223.267 -377.203,223.267 -383.617,214.105 -385.255,215.253 
		-381.044,221.267 -382.814,221.267 -385.255,221.267 -383.983,223.083 -382.871,224.672 -376.894,233.267 -375.255,232.12 
		-381.232,223.524 	"/>
</g>
<g>
	<rect x="-289.829" y="184.166" width="2" height="7.973"/>
	<rect x="-308.829" y="203.08" width="7.973" height="2"/>
	<rect x="-304.156" y="191.814" transform="matrix(0.7071 0.7071 -0.7071 0.7071 48.4223 268.7253)" width="7.974" height="2"/>
	<rect x="-278.647" y="188.832" transform="matrix(0.7071 0.7071 -0.7071 0.7071 55.0214 252.8013)" width="2" height="7.972"/>
	<path d="M-259.317,209.956c-1.444-6.742-7.433-11.8-14.605-11.8c-2.185,0-4.258,0.47-6.127,1.313
		c-1.666-3.202-5.006-5.394-8.865-5.394c-5.522,0-10,4.477-10,9.999c0,2.46,0.898,4.702,2.373,6.442
		c-1.428,1.84-2.287,4.144-2.287,6.653c0,5.983,4.836,10.836,10.813,10.865v0.003h4.188v-2h-3.721l-0.457-0.003
		c-4.864-0.023-8.822-4.001-8.822-8.865c0-4.89,3.978-8.868,8.867-8.868c0.15,0,0.299,0.012,0.447,0.022l0.148,0.01l1.314,0.085
		l0.597-1.175c2.225-4.372,6.644-7.089,11.532-7.089c6.062,0,11.382,4.298,12.649,10.219l0.318,1.483l1.514,0.094
		c3.708,0.23,6.612,3.319,6.612,7.03c0,3.878-3.144,7.035-7.017,7.057c-0.042-0.003-0.079-0.005-0.117-0.005l-2.047,0.005h-3.819v2
		h5.819v-0.006c0.042,0.001,0.082,0.006,0.124,0.006c5.001,0,9.057-4.054,9.057-9.057
		C-250.829,214.173-254.583,210.251-259.317,209.956z M-287.237,206.339c-0.241-0.016-0.48-0.036-0.725-0.036
		c-2.766,0-5.281,1.041-7.2,2.743c-1.092-1.366-1.753-3.09-1.753-4.971c0-4.41,3.589-7.999,8-7.999c3.092,0,5.76,1.773,7.092,4.345
		C-284.122,201.861-286.001,203.909-287.237,206.339z"/>
	<polygon points="-274.987,228.046 -273.218,228.046 -272.787,228.046 -270.777,228.046 -277.191,218.885 -278.829,220.032 
		-274.618,226.046 -276.389,226.046 -278.829,226.046 -277.558,227.862 -276.445,229.451 -270.468,238.046 -268.829,236.899 
		-274.807,228.304 	"/>
</g>
<g>
	<path d="M-159.732,207.66c-1.444-6.742-7.433-11.8-14.605-11.8c-1.799,0-3.521,0.32-5.118,0.904
		c-0.949-5.108-5.404-8.98-10.788-8.98c-0.413,0-0.819,0.027-1.222,0.071c0.744,1.112,1.179,2.448,1.179,3.886c0,3.865-3.134,7-7,7
		c-1.438,0-2.773-0.435-3.886-1.179c-0.044,0.401-0.071,0.809-0.071,1.222c0,3.712,1.845,6.987,4.661,8.979
		c-1.653,1.907-2.661,4.389-2.661,7.111c0,5.983,4.836,10.836,10.813,10.865v0.003h4.188v-2h-3.721l-0.457-0.003
		c-4.864-0.023-8.822-4.001-8.822-8.865c0-4.89,3.978-8.868,8.867-8.868c0.15,0,0.299,0.012,0.447,0.022l0.148,0.01l1.314,0.085
		l0.597-1.175c2.225-4.372,6.644-7.089,11.532-7.089c6.062,0,11.382,4.298,12.649,10.219l0.318,1.483l1.514,0.094
		c3.708,0.23,6.612,3.319,6.612,7.03c0,3.878-3.144,7.035-7.017,7.057c-0.042-0.003-0.079-0.005-0.117-0.005l-2.047,0.005h-3.819v2
		h5.819v-0.006c0.042,0.001,0.082,0.006,0.124,0.006c5.001,0,9.057-4.054,9.057-9.057
		C-151.244,211.877-154.998,207.955-159.732,207.66z M-187.652,204.043c-0.241-0.016-0.48-0.036-0.725-0.036
		c-2.537,0-4.865,0.876-6.715,2.334c-2.012-1.294-3.486-3.354-3.976-5.776c0.582,0.117,1.178,0.177,1.78,0.177c4.963,0,9-4.037,9-9
		c0-0.603-0.06-1.198-0.177-1.78c3.733,0.753,6.629,3.824,7.134,7.64C-184.043,199.045-186.258,201.3-187.652,204.043z"/>
	<polygon points="-175.402,225.75 -173.633,225.75 -173.202,225.75 -171.192,225.75 -177.606,216.589 -179.244,217.736 
		-175.033,223.75 -176.804,223.75 -179.244,223.75 -177.973,225.566 -176.86,227.155 -170.883,235.75 -169.244,234.604 
		-175.222,226.008 	"/>
</g>
<g>
	<path d="M-58.848,203.796c-1.596-7.445-8.207-13.029-16.127-13.029c-6.423,0-11.977,3.678-14.702,9.035
		c-0.266-0.018-0.53-0.04-0.8-0.04c-6.627,0-11.999,5.372-11.999,12c0,6.607,5.34,11.965,11.938,11.998v0.003h1.062v-2h-0.604
		l-0.447-0.003c-5.485-0.027-9.948-4.513-9.948-9.998c0-5.514,4.485-10,9.999-10c0.175,0,0.347,0.014,0.52,0.025l0.148,0.01
		l1.316,0.088l0.598-1.176c2.492-4.899,7.443-7.942,12.92-7.942c6.79,0,12.75,4.814,14.172,11.448l0.317,1.482l1.514,0.095
		c4.203,0.262,7.496,3.763,7.496,7.971c0,4.397-3.565,7.977-7.957,8c-0.05-0.003-0.093-0.005-0.137-0.007l-0.906,0.007v2h0.863
		v-0.007c0.046,0.001,0.091,0.007,0.137,0.007c5.521,0,10-4.477,10-10C-49.476,208.452-53.62,204.121-58.848,203.796z"/>
	
		<rect x="-90.041" y="221.761" transform="matrix(-0.5736 -0.8191 0.8191 -0.5736 -315.3582 281.3705)" width="11.183" height="1.999"/>
	
		<rect x="-72.067" y="221.761" transform="matrix(-0.5736 -0.8191 0.8191 -0.5736 -287.0726 296.0937)" width="11.183" height="1.999"/>
	<polygon points="-73.634,226.767 -71.864,226.767 -71.434,226.767 -69.424,226.767 -75.838,217.605 -77.476,218.753 
		-73.265,224.767 -75.035,224.767 -77.476,224.767 -76.204,226.583 -75.092,228.172 -70.476,234.767 -68.837,233.62 
		-73.453,227.024 	"/>
</g>
<g>
	<rect x="16" y="184.329" width="2" height="7.973"/>
	<rect x="-3" y="203.243" width="7.973" height="2"/>
	<rect x="1.673" y="191.977" transform="matrix(0.7071 0.7071 -0.7071 0.7071 138.1129 52.5192)" width="7.974" height="2"/>
	<rect x="27.182" y="188.995" transform="matrix(0.7071 0.7071 -0.7071 0.7071 144.712 36.5952)" width="2" height="7.972"/>
	<path d="M46.512,210.119c-1.444-6.742-7.433-11.8-14.605-11.8c-2.185,0-4.258,0.47-6.126,1.313
		c-1.667-3.202-5.007-5.394-8.866-5.394c-5.522,0-10,4.477-10,9.999c0,2.46,0.899,4.702,2.373,6.442
		C7.858,212.521,7,214.824,7,217.334c0,5.983,4.836,10.836,10.813,10.865v0.003H18v-2l-0.178-0.003
		C12.958,226.176,9,222.198,9,217.334c0-4.89,3.978-8.868,8.867-8.868c0.15,0,0.299,0.012,0.447,0.022l0.148,0.01l1.314,0.085
		l0.597-1.175c2.225-4.372,6.644-7.089,11.532-7.089c6.062,0,11.382,4.298,12.649,10.219l0.318,1.483l1.514,0.094
		c3.708,0.23,6.612,3.319,6.612,7.03c0,3.878-3.144,7.035-7.017,7.057c-0.042-0.003-0.079-0.005-0.117-0.005L45,226.202v2h0.819
		v-0.006c0.042,0.001,0.082,0.006,0.124,0.006c5.001,0,9.057-4.054,9.057-9.057C55,214.336,51.246,210.414,46.512,210.119z
		 M18.592,206.502c-0.241-0.016-0.48-0.036-0.725-0.036c-2.766,0-5.282,1.042-7.2,2.743c-1.092-1.367-1.753-3.09-1.753-4.971
		c0-4.41,3.589-7.999,8-7.999c3.091,0,5.76,1.773,7.091,4.345C21.707,202.023,19.827,204.072,18.592,206.502z"/>
	
		<rect x="16.422" y="226.199" transform="matrix(-0.5736 -0.8191 0.8191 -0.5736 -151.4597 375.5598)" width="11.183" height="1.999"/>
	
		<rect x="34.396" y="226.199" transform="matrix(-0.5736 -0.8191 0.8191 -0.5736 -123.1742 390.283)" width="11.183" height="1.999"/>
	<polygon points="32.829,231.205 34.599,231.205 35.029,231.205 37.039,231.205 30.625,222.044 28.987,223.191 33.198,229.205 
		31.428,229.205 28.987,229.205 30.259,231.021 31.371,232.61 35.987,239.205 37.626,238.059 33.01,231.463 	"/>
</g>
<g>
	<path d="M148.35,207.161c-1.444-6.742-7.433-11.8-14.605-11.8c-1.799,0-3.522,0.32-5.118,0.904
		c-0.949-5.108-5.404-8.98-10.788-8.98c-0.413,0-0.819,0.027-1.222,0.071c0.744,1.112,1.179,2.448,1.179,3.886c0,3.865-3.134,7-7,7
		c-1.438,0-2.773-0.435-3.886-1.179c-0.044,0.401-0.071,0.809-0.071,1.222c0,3.712,1.845,6.987,4.661,8.979
		c-1.653,1.907-2.661,4.389-2.661,7.111c0,5.983,4.836,10.836,10.813,10.865v0.003h0.188v-2l-0.178-0.003
		c-4.864-0.023-8.822-4.001-8.822-8.865c0-4.89,3.978-8.868,8.867-8.868c0.15,0,0.299,0.012,0.447,0.022l0.148,0.01l1.314,0.085
		l0.597-1.175c2.225-4.372,6.644-7.089,11.532-7.089c6.062,0,11.382,4.298,12.649,10.219l0.318,1.483l1.514,0.094
		c3.708,0.23,6.612,3.319,6.612,7.03c0,3.878-3.144,7.035-7.017,7.057c-0.042-0.003-0.079-0.005-0.117-0.005l-0.866,0.005v2h0.819
		v-0.006c0.042,0.001,0.082,0.006,0.124,0.006c5.001,0,9.057-4.054,9.057-9.057C156.838,211.378,153.084,207.456,148.35,207.161z
		 M120.43,203.544c-0.241-0.016-0.48-0.036-0.725-0.036c-2.537,0-4.865,0.876-6.715,2.334c-2.012-1.294-3.487-3.354-3.976-5.776
		c0.582,0.117,1.178,0.177,1.78,0.177c4.963,0,9-4.037,9-9c0-0.603-0.06-1.198-0.177-1.78c3.733,0.753,6.629,3.824,7.133,7.641
		C124.04,198.546,121.825,200.802,120.43,203.544z"/>
	
		<rect x="118.259" y="223.241" transform="matrix(-0.5736 -0.8191 0.8191 -0.5736 11.2177 454.3205)" width="11.183" height="1.999"/>
	
		<rect x="136.233" y="223.241" transform="matrix(-0.5736 -0.8191 0.8191 -0.5736 39.5032 469.0436)" width="11.183" height="1.999"/>
	<polygon points="134.666,228.247 136.436,228.247 136.866,228.247 138.876,228.247 132.462,219.086 130.824,220.233 
		135.035,226.247 133.265,226.247 130.824,226.247 132.096,228.063 133.208,229.652 137.824,236.247 139.463,235.101 
		134.847,228.505 	"/>
</g>
<g>
	<g>
		<path d="M-262.213,293.616c-1.596-7.445-8.207-13.029-16.127-13.029c-6.423,0-11.977,3.678-14.702,9.035
			c-0.266-0.018-0.53-0.04-0.8-0.04c-6.627,0-11.999,5.372-11.999,12c0,6.607,5.34,11.965,11.938,11.998v0.003h2.062v-2h-1.604
			l-0.447-0.003c-5.485-0.027-9.948-4.513-9.948-9.998c0-5.514,4.485-10,9.999-10c0.175,0,0.347,0.014,0.52,0.025l0.148,0.01
			l1.316,0.088l0.598-1.176c2.492-4.899,7.443-7.942,12.92-7.942c6.79,0,12.75,4.814,14.172,11.448l0.317,1.482l1.514,0.095
			c4.203,0.262,7.496,3.763,7.496,7.971c0,4.397-3.565,7.977-7.957,8c-0.05-0.003-0.093-0.005-0.137-0.007l-2.043,0.007h-2.863v2
			h4.863v-0.007c0.046,0.001,0.091,0.007,0.137,0.007c5.521,0,10-4.477,10-10C-252.841,298.272-256.985,293.941-262.213,293.616z"/>
	</g>
	<g>
		<circle cx="-287.341" cy="307.159" r="1.5"/>
	</g>
	<g>
		<circle cx="-283.341" cy="313.083" r="1.5"/>
	</g>
	<g>
		<circle cx="-275.341" cy="313.083" r="1.5"/>
	</g>
	<g>
		<circle cx="-279.341" cy="307.159" r="1.5"/>
	</g>
	<g>
		<circle cx="-271.341" cy="307.159" r="1.5"/>
	</g>
	<g>
		<circle cx="-287.341" cy="319.104" r="1.5"/>
	</g>
	<g>
		<circle cx="-279.341" cy="319.104" r="1.5"/>
	</g>
	<g>
		<circle cx="-271.341" cy="319.104" r="1.5"/>
	</g>
</g>
<g>
	<g>
		<rect x="-186.427" y="278.139" width="2" height="7.973"/>
	</g>
	<g>
		<rect x="-205.427" y="297.053" width="7.973" height="2"/>
	</g>
	<g>
		<rect x="-200.754" y="285.786" transform="matrix(0.7071 0.7071 -0.7071 0.7071 145.1568 223.1327)" width="7.974" height="2"/>
	</g>
	<g>
		<rect x="-175.245" y="282.804" transform="matrix(0.7071 0.7071 -0.7071 0.7071 151.756 207.2088)" width="2" height="7.972"/>
	</g>
	<g>
		<path d="M-155.915,303.929c-1.444-6.742-7.433-11.8-14.605-11.8c-2.185,0-4.258,0.47-6.127,1.313
			c-1.666-3.202-5.006-5.394-8.865-5.394c-5.522,0-10,4.477-10,9.999c0,2.46,0.898,4.702,2.373,6.442
			c-1.428,1.84-2.287,4.144-2.287,6.653c0,5.983,4.836,10.836,10.813,10.865v0.003h1.188v-2h-0.721l-0.457-0.003
			c-4.864-0.023-8.822-4.001-8.822-8.865c0-4.89,3.978-8.868,8.867-8.868c0.15,0,0.299,0.012,0.447,0.022l0.148,0.01l1.314,0.085
			l0.597-1.175c2.225-4.372,6.644-7.089,11.532-7.089c6.062,0,11.382,4.298,12.649,10.219l0.318,1.483l1.514,0.094
			c3.708,0.23,6.612,3.319,6.612,7.03c0,3.878-3.144,7.035-7.017,7.057c-0.042-0.003-0.079-0.005-0.117-0.005l-2.047,0.005h-1.819v2
			h3.819v-0.006c0.042,0.001,0.082,0.006,0.124,0.006c5.001,0,9.057-4.054,9.057-9.057
			C-147.427,308.146-151.181,304.224-155.915,303.929z M-183.835,300.312c-0.241-0.016-0.48-0.036-0.725-0.036
			c-2.766,0-5.281,1.042-7.2,2.743c-1.092-1.367-1.753-3.09-1.753-4.971c0-4.41,3.589-7.999,8-7.999c3.092,0,5.76,1.773,7.092,4.345
			C-180.72,295.833-182.599,297.882-183.835,300.312z"/>
	</g>
	<g>
		<circle cx="-179.938" cy="315.522" r="1.5"/>
	</g>
	<g>
		<circle cx="-175.938" cy="321.522" r="1.5"/>
	</g>
	<g>
		<circle cx="-167.938" cy="321.522" r="1.5"/>
	</g>
	<g>
		<circle cx="-171.938" cy="315.522" r="1.5"/>
	</g>
	<g>
		<circle cx="-163.938" cy="315.522" r="1.5"/>
	</g>
	<g>
		<circle cx="-179.938" cy="327.544" r="1.5"/>
	</g>
	<g>
		<circle cx="-171.938" cy="327.544" r="1.5"/>
	</g>
	<g>
		<circle cx="-163.938" cy="327.544" r="1.5"/>
	</g>
</g>
<g>
	<g>
		<path d="M-59.964,299.973c-1.444-6.742-7.433-11.8-14.605-11.8c-1.799,0-3.521,0.32-5.118,0.904
			c-0.949-5.108-5.404-8.98-10.788-8.98c-0.413,0-0.819,0.027-1.222,0.071c0.744,1.112,1.179,2.448,1.179,3.886c0,3.865-3.134,7-7,7
			c-1.438,0-2.773-0.435-3.886-1.179c-0.044,0.401-0.071,0.809-0.071,1.222c0,3.712,1.845,6.987,4.661,8.979
			c-1.653,1.907-2.661,4.389-2.661,7.111c0,5.983,4.836,10.836,10.813,10.865v0.003h1.188v-2h-0.721l-0.457-0.003
			c-4.864-0.023-8.822-4.001-8.822-8.865c0-4.89,3.978-8.868,8.867-8.868c0.15,0,0.299,0.012,0.447,0.022l0.148,0.01l1.314,0.085
			l0.597-1.175c2.225-4.372,6.644-7.089,11.532-7.089c6.062,0,11.382,4.298,12.649,10.219l0.318,1.483l1.514,0.094
			c3.708,0.23,6.612,3.319,6.612,7.03c0,3.878-3.144,7.035-7.017,7.057c-0.042-0.003-0.079-0.005-0.117-0.005l-2.047,0.005h-1.819v2
			h3.819v-0.006c0.042,0.001,0.082,0.006,0.124,0.006c5.001,0,9.057-4.054,9.057-9.057
			C-51.476,304.189-55.229,300.268-59.964,299.973z M-87.884,296.355c-0.241-0.016-0.48-0.036-0.725-0.036
			c-2.537,0-4.865,0.876-6.715,2.334c-2.012-1.294-3.486-3.354-3.976-5.776c0.582,0.117,1.178,0.177,1.78,0.177c4.963,0,9-4.037,9-9
			c0-0.603-0.06-1.198-0.177-1.78c3.733,0.753,6.629,3.824,7.134,7.64C-84.274,291.357-86.489,293.612-87.884,296.355z"/>
	</g>
	<g>
		<circle cx="-83.976" cy="311.565" r="1.5"/>
	</g>
	<g>
		<circle cx="-79.976" cy="317.565" r="1.5"/>
	</g>
	<g>
		<circle cx="-71.976" cy="317.565" r="1.5"/>
	</g>
	<g>
		<circle cx="-75.976" cy="311.565" r="1.5"/>
	</g>
	<g>
		<circle cx="-67.976" cy="311.565" r="1.5"/>
	</g>
	<g>
		<circle cx="-83.976" cy="323.587" r="1.5"/>
	</g>
	<g>
		<circle cx="-75.976" cy="323.587" r="1.5"/>
	</g>
	<g>
		<circle cx="-67.976" cy="323.587" r="1.5"/>
	</g>
</g>
<g>
	<path d="M251.201,201.087c-1.596-7.445-8.207-13.029-16.127-13.029c-6.423,0-11.977,3.678-14.702,9.035
		c-0.266-0.018-0.53-0.04-0.8-0.04c-6.627,0-11.999,5.372-11.999,12c0,6.607,5.34,11.965,11.938,11.998v0.003h2.062v-2h-1.604
		l-0.447-0.003c-5.485-0.027-9.948-4.513-9.948-9.998c0-5.514,4.485-10,9.999-10c0.175,0,0.347,0.014,0.52,0.025l0.148,0.01
		l1.316,0.088l0.598-1.176c2.492-4.899,7.443-7.942,12.92-7.942c6.79,0,12.75,4.814,14.172,11.448l0.317,1.482l1.514,0.095
		c4.203,0.262,7.496,3.763,7.496,7.971c0,4.397-3.565,7.977-7.957,8c-0.05-0.003-0.093-0.005-0.137-0.007l-2.043,0.007h-2.863v2
		h4.863v-0.007c0.046,0.001,0.091,0.007,0.137,0.007c5.521,0,10-4.477,10-10C260.573,205.743,256.429,201.412,251.201,201.087z"/>
	<circle cx="225.573" cy="228.558" r="1.5"/>
	<circle cx="233.573" cy="234.558" r="1.5"/>
	<circle cx="241.573" cy="230.558" r="1.5"/>
	<rect x="224.573" y="212.082" width="2" height="11.976"/>
	<polygon points="234.573,230.022 234.573,228.082 234.573,216.082 232.573,216.082 232.573,228.082 232.573,230.022 
		232.573,230.058 234.573,230.058 	"/>
	<polygon points="242.573,225.835 242.573,224.082 242.573,212.082 240.573,212.082 240.573,224.082 240.573,225.835 
		240.573,226.058 242.573,226.058 	"/>
</g>
<g>
	<rect x="-497.176" y="272.7" width="2" height="7.973"/>
	<rect x="-516.176" y="291.614" width="7.973" height="2"/>
	<rect x="-511.503" y="280.348" transform="matrix(0.7071 0.7071 -0.7071 0.7071 50.2949 441.2726)" width="7.974" height="2"/>
	<rect x="-485.994" y="277.366" transform="matrix(0.7071 0.7071 -0.7071 0.7071 56.894 425.3486)" width="2" height="7.972"/>
	<path d="M-466.664,298.49c-1.444-6.742-7.433-11.8-14.605-11.8c-2.185,0-4.258,0.47-6.126,1.313
		c-1.667-3.202-5.007-5.394-8.866-5.394c-5.522,0-10,4.477-10,9.999c0,2.46,0.899,4.702,2.373,6.442
		c-1.429,1.84-2.287,4.144-2.287,6.653c0,5.983,4.836,10.836,10.813,10.865v0.003h1.188v-2h-0.721l-0.457-0.003
		c-4.864-0.023-8.822-4.001-8.822-8.865c0-4.89,3.978-8.868,8.867-8.868c0.15,0,0.299,0.012,0.447,0.022l0.148,0.01l1.314,0.085
		l0.597-1.175c2.225-4.372,6.644-7.089,11.532-7.089c6.062,0,11.382,4.298,12.649,10.219l0.318,1.483l1.514,0.094
		c3.708,0.23,6.612,3.319,6.612,7.03c0,3.878-3.144,7.035-7.017,7.057c-0.042-0.003-0.079-0.005-0.117-0.005l-2.047,0.005h-0.819v2
		h2.819v-0.006c0.042,0.001,0.082,0.006,0.124,0.006c5.001,0,9.057-4.054,9.057-9.057
		C-458.176,302.707-461.93,298.785-466.664,298.49z M-494.584,294.873c-0.241-0.016-0.48-0.036-0.725-0.036
		c-2.766,0-5.282,1.041-7.2,2.743c-1.092-1.366-1.753-3.09-1.753-4.971c0-4.41,3.589-7.999,8-7.999c3.091,0,5.76,1.773,7.091,4.345
		C-491.469,290.396-493.349,292.443-494.584,294.873z"/>
	<circle cx="-490.186" cy="325.061" r="1.5"/>
	<circle cx="-482.186" cy="331.061" r="1.5"/>
	<circle cx="-474.186" cy="327.061" r="1.5"/>
	<rect x="-491.186" y="308.585" width="2" height="11.976"/>
	<polygon points="-481.186,326.525 -481.186,324.585 -481.186,312.585 -483.186,312.585 -483.186,324.585 -483.186,326.525 
		-483.186,326.561 -481.186,326.561 	"/>
	<polygon points="-473.186,322.338 -473.186,320.585 -473.186,308.585 -475.186,308.585 -475.186,320.585 -475.186,322.338 
		-475.186,322.561 -473.186,322.561 	"/>
</g>
<g>
	<path d="M-366.062,295.492c-1.444-6.742-7.433-11.8-14.605-11.8c-1.799,0-3.522,0.32-5.118,0.904
		c-0.949-5.108-5.404-8.98-10.788-8.98c-0.413,0-0.819,0.027-1.222,0.071c0.744,1.112,1.179,2.448,1.179,3.886c0,3.865-3.134,7-7,7
		c-1.438,0-2.773-0.435-3.886-1.179c-0.044,0.401-0.071,0.809-0.071,1.222c0,3.712,1.845,6.987,4.661,8.979
		c-1.653,1.907-2.661,4.389-2.661,7.111c0,5.983,4.836,10.836,10.813,10.865v0.003h1.188v-2h-0.721l-0.457-0.003
		c-4.864-0.023-8.822-4.001-8.822-8.865c0-4.89,3.978-8.868,8.867-8.868c0.15,0,0.299,0.012,0.447,0.022l0.148,0.01l1.314,0.085
		l0.597-1.175c2.225-4.372,6.644-7.089,11.532-7.089c6.062,0,11.382,4.298,12.649,10.219l0.318,1.483l1.514,0.094
		c3.708,0.23,6.612,3.319,6.612,7.03c0,3.878-3.144,7.035-7.017,7.057c-0.042-0.003-0.079-0.005-0.117-0.005l-2.047,0.005h-0.819v2
		h2.819v-0.006c0.042,0.001,0.082,0.006,0.124,0.006c5.001,0,9.057-4.054,9.057-9.057
		C-357.573,299.709-361.327,295.787-366.062,295.492z M-393.981,291.875c-0.241-0.016-0.48-0.036-0.725-0.036
		c-2.537,0-4.865,0.876-6.715,2.334c-2.012-1.294-3.487-3.354-3.976-5.776c0.582,0.117,1.178,0.177,1.78,0.177c4.963,0,9-4.037,9-9
		c0-0.603-0.06-1.198-0.177-1.78c3.733,0.753,6.629,3.824,7.133,7.64C-390.371,286.877-392.586,289.132-393.981,291.875z"/>
	<circle cx="-389.573" cy="322.066" r="1.5"/>
	<circle cx="-381.573" cy="328.066" r="1.5"/>
	<circle cx="-373.573" cy="324.066" r="1.5"/>
	<rect x="-390.573" y="305.591" width="2" height="11.976"/>
	<polygon points="-380.573,323.531 -380.573,321.591 -380.573,309.591 -382.573,309.591 -382.573,321.591 -382.573,323.531 
		-382.573,323.566 -380.573,323.566 	"/>
	<polygon points="-372.573,319.344 -372.573,317.591 -372.573,305.591 -374.573,305.591 -374.573,317.591 -374.573,319.344 
		-374.573,319.566 -372.573,319.566 	"/>
</g>
<g>
	<rect x="-514.176" y="399.933" width="56" height="2"/>
	<rect x="-510.176" y="405.933" width="50" height="2"/>
	<rect x="-504.176" y="411.933" width="36" height="2"/>
	<rect x="-512.176" y="393.933" width="52" height="2"/>
	<path d="M-500.302,385.928c0.175,0,0.347,0.014,0.519,0.025l0.149,0.01l1.316,0.088l0.598-1.176
		c2.493-4.899,7.443-7.942,12.92-7.942c6.79,0,12.75,4.814,14.171,11.448l0.318,1.482l1.514,0.095
		c1.207,0.075,2.335,0.425,3.336,0.975h3.286c-1.678-1.703-3.957-2.813-6.498-2.971c-1.596-7.445-8.207-13.029-16.127-13.029
		c-6.423,0-11.977,3.678-14.702,9.035c-0.266-0.018-0.53-0.04-0.8-0.04c-4.843,0-9.004,2.874-10.9,7.005h2.251
		C-507.22,387.946-503.995,385.928-500.302,385.928z"/>
</g>
<g>
	<rect x="-393.073" y="372.418" width="2" height="7.973"/>
	<rect x="-412.073" y="391.332" width="7.973" height="2"/>
	<rect x="-407.4" y="380.066" transform="matrix(0.7071 0.7071 -0.7071 0.7071 151.297 396.8676)" width="7.974" height="2"/>
	<rect x="-381.891" y="377.084" transform="matrix(0.7071 0.7071 -0.7071 0.7071 157.8961 380.9437)" width="2" height="7.972"/>
	<rect x="-403.073" y="406.292" width="50" height="2"/>
	<rect x="-399.073" y="412.292" width="44" height="2"/>
	<rect x="-393.073" y="417.292" width="30" height="2"/>
	<rect x="-401.073" y="400.292" width="46" height="2"/>
	<path d="M-400.165,398.292h0.771h1.927h1.012c1.472-1.087,3.283-1.737,5.249-1.737c0.15,0,0.299,0.012,0.447,0.022l0.148,0.01
		l1.314,0.085l0.597-1.175c2.225-4.372,6.644-7.089,11.532-7.089c5.945,0,11.168,4.139,12.563,9.884h2.043v-0.084
		c-1.444-6.742-7.433-11.8-14.605-11.8c-2.185,0-4.258,0.47-6.126,1.313c-1.667-3.202-5.007-5.394-8.866-5.394
		c-5.522,0-10,4.477-10,9.999C-402.159,394.568-401.411,396.627-400.165,398.292z M-392.159,384.328c3.091,0,5.76,1.773,7.091,4.345
		c-2.298,1.44-4.178,3.488-5.413,5.918c-0.241-0.016-0.48-0.036-0.725-0.036c-2.764,0-5.274,1.045-7.189,2.745
		c-1.097-1.366-1.764-3.089-1.764-4.973C-400.159,387.917-396.57,384.328-392.159,384.328z"/>
</g>
<g>
	<rect x="-304.329" y="402.854" width="50" height="2"/>
	<rect x="-300.329" y="408.854" width="44" height="2"/>
	<rect x="-294.329" y="413.854" width="30" height="2"/>
	<rect x="-302.329" y="396.854" width="46" height="2"/>
	<path d="M-300.687,394.854h0.037h1.884h1.055c1.472-1.087,3.283-1.737,5.249-1.737c0.15,0,0.299,0.012,0.447,0.022l0.148,0.01
		l1.314,0.085l0.597-1.175c2.225-4.372,6.644-7.089,11.532-7.089c5.945,0,11.168,4.139,12.563,9.884h2.043v-0.084
		c-1.444-6.742-7.433-11.8-14.605-11.8c-1.799,0-3.521,0.32-5.117,0.903c-0.945-5.111-5.402-8.987-10.789-8.987
		c-0.413,0-0.819,0.027-1.222,0.071c0.744,1.112,1.179,2.448,1.179,3.886c0,3.865-3.134,7-7,7c-1.438,0-2.773-0.435-3.886-1.179
		c-0.044,0.401-0.071,0.809-0.071,1.222C-305.329,389.591-303.493,392.861-300.687,394.854z M-301.372,387.844c4.963,0,9-4.037,9-9
		c0-0.603-0.06-1.198-0.177-1.78c3.735,0.753,6.633,3.828,7.134,7.647c-2.712,1.443-4.927,3.699-6.322,6.442
		c-0.241-0.016-0.48-0.036-0.725-0.036c-2.534,0-4.855,0.879-6.701,2.335c-2.02-1.293-3.5-3.356-3.989-5.785
		C-302.57,387.784-301.975,387.844-301.372,387.844z"/>
</g>
<g>
	<path d="M-172.438,405.868h-19.474l-0.578-0.003c-5.485-0.027-9.948-4.513-9.948-9.998c0-5.514,4.485-10,9.999-10
		c0.175,0,0.347,0.014,0.519,0.025l0.149,0.01l1.316,0.088l0.598-1.176c2.493-4.899,7.443-7.942,12.92-7.942
		c6.79,0,12.75,4.814,14.171,11.448l0.318,1.482l1.514,0.095c1.822,0.113,3.463,0.845,4.746,1.971h2.732
		c-1.707-2.262-4.348-3.78-7.354-3.967c-1.596-7.445-8.207-13.029-16.127-13.029c-6.423,0-11.977,3.678-14.702,9.035
		c-0.266-0.018-0.53-0.04-0.8-0.04c-6.627,0-11.999,5.372-11.999,12c0,6.607,5.34,11.965,11.938,11.998v0.003h20.062
		c2.205,0,4,1.794,4,4s-1.795,4-4,4v2c3.314,0,6-2.686,6-6C-166.438,408.555-169.123,405.868-172.438,405.868z"/>
	<path d="M-168.438,401.868h-15.988v2h15.988c3.314,0,6-2.687,6-6c0-3.314-2.686-6-6-6v2c2.205,0,4,1.794,4,4
		S-166.232,401.868-168.438,401.868z"/>
	<path d="M-155.438,395.868c1.654,0,3,1.346,3,3s-1.346,3-3,3c-0.043,0-0.083-0.011-0.126-0.013h-4.862
		c0.003,0.005,0.009,0.008,0.012,0.013h-0.023v2h5.5v-0.051c2.523-0.254,4.5-2.358,4.5-4.949c0-2.762-2.238-5-5-5V395.868z"/>
	<path d="M-151.438,405.868h-13v2h9.022c-0.004,0.005-0.008,0.008-0.011,0.013h3.862c0.043-0.002,0.083-0.013,0.126-0.013
		c1.654,0,3,1.346,3,3s-1.346,3-3,3v2c2.762,0,5-2.238,5-5S-148.676,405.868-151.438,405.868z"/>
	<rect x="-190.438" y="401.868" width="4" height="2"/>
</g>
<path d="M-379.999,6.765c6.95,1.305,12.226,7.419,12.226,14.742c0,8.272-6.729,15.002-15,15.002c-6.79,0-12.531-4.49-14.366-10.728
	c1.398,0.461,2.867,0.698,4.366,0.698c7.72,0,14-6.281,14-14.001C-378.773,10.494-379.197,8.55-379.999,6.765 M-382.773,4.508
	c-0.338,0-0.668,0.031-1,0.051c1.861,2.113,3,4.881,3,7.92c0,6.627-5.372,12.001-12,12.001c-2.599,0-4.998-0.835-6.963-2.239
	c0.387,9.047,7.821,16.269,16.963,16.269c9.39,0,17-7.612,17-17.002S-373.384,4.508-382.773,4.508L-382.773,4.508z"/>
<g>
	<path d="M-486.169,9.503c-7.18,0-13,5.819-13,12.999c0,7.181,5.82,13.002,13,13.002s13-5.821,13-13.002
		C-473.169,15.322-478.989,9.503-486.169,9.503z M-486.169,33.504c-6.065,0-11-4.936-11-11.002c0-6.064,4.935-10.999,11-10.999
		s11,4.935,11,10.999C-475.169,28.568-480.104,33.504-486.169,33.504z"/>
	<rect x="-487.176" y="-3.491" width="2" height="10"/>
	<rect x="-487.176" y="38.509" width="2" height="10"/>
	<rect x="-512.169" y="21.509" width="9.993" height="2"/>
	<rect x="-470.176" y="21.509" width="10.007" height="2"/>
	<rect x="-472.476" y="2.595" transform="matrix(0.7071 0.7071 -0.7071 0.7071 -132.5772 335.6683)" width="2" height="10.409"/>
	<rect x="-501.885" y="32.004" transform="matrix(-0.7071 -0.7071 0.7071 -0.7071 -881.3741 -290.6602)" width="2" height="10.41"/>
	<rect x="-506.085" y="6.804" transform="matrix(0.7071 0.7071 -0.7071 0.7071 -141.1861 356.4617)" width="10.409" height="2"/>
	<rect x="-476.677" y="36.213" transform="matrix(-0.7072 -0.7071 0.7071 -0.7072 -831.1867 -269.8298)" width="10.41" height="2"/>
</g>
<g>
	<rect x="-88.003" y="367.37" width="2" height="7.973"/>
	<rect x="-106.976" y="386.356" width="7.973" height="2"/>
	<rect x="-102.25" y="375.138" transform="matrix(0.7071 0.7071 -0.7071 0.7071 237.189 179.6504)" width="7.974" height="2"/>
	<rect x="-76.741" y="372.156" transform="matrix(0.7071 0.7071 -0.7071 0.7071 243.7882 163.7265)" width="2" height="7.972"/>
	<path d="M-72.976,409.37l0.005-0.007h-12.536l-0.594-0.003c-4.864-0.024-8.822-4.001-8.822-8.865c0-4.89,3.978-8.868,8.867-8.868
		c0.15,0,0.299,0.012,0.447,0.021l0.148,0.011l1.314,0.085l0.597-1.174c2.225-4.373,6.644-7.09,11.532-7.09
		c5.916,0,11.114,4.099,12.54,9.8h2.065c-1.444-6.742-7.433-11.8-14.605-11.8c-2.185,0-4.258,0.47-6.126,1.313
		c-1.667-3.202-5.007-5.394-8.866-5.394c-5.522,0-10,4.477-10,9.999c0,2.46,0.899,4.702,2.373,6.442
		c-1.429,1.84-2.287,4.144-2.287,6.653c0,5.983,4.836,10.836,10.813,10.865v0.003h13.135v0.007c2.205,0,4,1.794,4,4s-1.795,4-4,4v2
		c3.314,0,6-2.686,6-6C-66.976,412.057-69.661,409.37-72.976,409.37z M-87.009,379.4c3.091,0,5.76,1.773,7.091,4.345
		c-2.298,1.439-4.178,3.488-5.413,5.918c-0.241-0.016-0.48-0.036-0.725-0.036c-2.766,0-5.282,1.042-7.2,2.743
		c-1.092-1.367-1.753-3.09-1.753-4.971C-95.009,382.989-91.42,379.4-87.009,379.4z"/>
	<path d="M-68.976,405.37h-9.988v2h9.988c3.314,0,6-2.687,6-6c0-3.314-2.686-6-6-6v2c2.205,0,4,1.794,4,4
		S-66.771,405.37-68.976,405.37z"/>
	<path d="M-60.952,405.37h-0.023v2h5.5v-0.051c2.523-0.254,4.5-2.358,4.5-4.949c0-2.762-2.238-5-5-5v2c1.654,0,3,1.346,3,3
		s-1.346,3-3,3c-0.043,0-0.083-0.011-0.126-0.013h-4.862C-60.961,405.362-60.955,405.366-60.952,405.37z"/>
	<path d="M-51.976,409.37h-13v2h9.022c-0.004,0.004-0.008,0.008-0.011,0.013h3.862c0.043-0.002,0.083-0.013,0.126-0.013
		c1.654,0,3,1.346,3,3s-1.346,3-3,3v2c2.762,0,5-2.238,5-5S-49.214,409.37-51.976,409.37z"/>
	<rect x="-84.976" y="405.37" width="4" height="2"/>
</g>
<g>
	<path d="M26.986,407.364l0.005-0.007H14.455l-0.594-0.003c-4.864-0.024-8.822-4.001-8.822-8.865c0-4.89,3.978-8.868,8.867-8.868
		c0.15,0,0.299,0.012,0.447,0.021l0.148,0.011l1.314,0.085l0.597-1.174c2.225-4.373,6.644-7.09,11.532-7.09
		c5.916,0,11.114,4.099,12.54,9.8h2.065c-1.444-6.742-7.433-11.8-14.605-11.8c-1.806,0-3.536,0.322-5.138,0.91
		c-0.938-5.123-5.4-9.01-10.794-9.01c-0.413,0-0.819,0.027-1.222,0.071c0.744,1.112,1.179,2.448,1.179,3.886c0,3.865-3.134,7-7,7
		c-1.438,0-2.773-0.435-3.886-1.179c-0.044,0.401-0.071,0.809-0.071,1.222c0,3.725,1.858,7.009,4.69,8.998
		c-1.655,1.907-2.665,4.392-2.665,7.116c0,5.983,4.836,10.836,10.813,10.865v0.003h13.135v0.007c2.205,0,4,1.794,4,4s-1.795,4-4,4v2
		c3.314,0,6-2.686,6-6C32.986,410.051,30.301,407.364,26.986,407.364z M3.19,384.155c0.582,0.117,1.178,0.177,1.78,0.177
		c4.963,0,9-4.037,9-9c0-0.603-0.06-1.198-0.177-1.78c3.744,0.755,6.646,3.842,7.138,7.674c-2.702,1.444-4.909,3.696-6.301,6.432
		c-0.241-0.016-0.48-0.036-0.725-0.036c-2.535,0-4.861,0.875-6.71,2.33C5.168,388.659,3.682,386.591,3.19,384.155z"/>
	<path d="M30.986,403.364h-9.988v2h9.988c3.314,0,6-2.687,6-6c0-3.314-2.686-6-6-6v2c2.205,0,4,1.794,4,4
		S33.191,403.364,30.986,403.364z"/>
	<path d="M39.01,403.364h-0.023v2h5.5v-0.051c2.523-0.254,4.5-2.358,4.5-4.949c0-2.762-2.238-5-5-5v2c1.654,0,3,1.346,3,3
		s-1.346,3-3,3c-0.043,0-0.083-0.011-0.126-0.013h-4.862C39.001,403.356,39.007,403.36,39.01,403.364z"/>
	<path d="M47.986,407.364h-13v2h9.022c-0.004,0.004-0.008,0.008-0.011,0.013h3.862c0.043-0.002,0.083-0.013,0.126-0.013
		c1.654,0,3,1.346,3,3s-1.346,3-3,3v2c2.762,0,5-2.238,5-5S50.748,407.364,47.986,407.364z"/>
	<rect x="14.986" y="403.364" width="4" height="2"/>
</g>
<g>
	<rect x="127.879" y="369.933" width="2" height="10"/>
	<rect x="102.886" y="394.933" width="9.993" height="2"/>
	<rect x="142.579" y="376.019" transform="matrix(0.7071 0.7071 -0.7071 0.7071 311.6187 10.1323)" width="2" height="10.409"/>
	<rect x="108.97" y="380.228" transform="matrix(0.7071 0.7071 -0.7071 0.7071 303.0098 30.9257)" width="10.409" height="2"/>
	<path d="M132.879,409.933h-24v2h24c2.205,0,4,1.794,4,4s-1.795,4-4,4v2c3.314,0,6-2.686,6-6
		C138.879,412.619,136.193,409.933,132.879,409.933z"/>
	<path d="M144.902,405.933h-0.023v2h5.5v-0.051c2.523-0.254,4.5-2.358,4.5-4.949c0-2.762-2.238-5-5-5v2c1.654,0,3,1.346,3,3
		s-1.346,3-3,3c-0.043,0-0.083-0.011-0.126-0.013h-4.862C144.894,405.925,144.899,405.929,144.902,405.933z"/>
	<path d="M153.879,409.933h-13v2h9.022c-0.004,0.004-0.008,0.008-0.011,0.013h3.862c0.043-0.002,0.083-0.013,0.126-0.013
		c1.654,0,3,1.346,3,3s-1.346,3-3,3v2c2.762,0,5-2.238,5-5S156.641,409.933,153.879,409.933z"/>
	<path d="M120.588,405.933h-11.709v2h12.012h0.822h15.166c3.314,0,6-2.687,6-6c0-3.314-2.686-6-6-6v2c2.205,0,4,1.794,4,4
		s-1.795,4-4,4h-12.538c-3.802-1.734-6.455-5.563-6.455-10.007c0-6.064,4.935-10.999,11-10.999c5.384,0,9.868,3.891,10.81,9.006
		h2.021c-0.961-6.23-6.331-11.006-12.831-11.006c-7.18,0-13,5.819-13,12.999C115.886,399.951,117.716,403.548,120.588,405.933z"/>
</g>
<g>
	<path d="M233.105,403.376h-24v2h24c2.205,0,4,1.794,4,4s-1.795,4-4,4v2c3.314,0,6-2.686,6-6
		C239.105,406.063,236.42,403.376,233.105,403.376z"/>
	<path d="M250.605,401.376v-0.051c2.523-0.254,4.5-2.358,4.5-4.949c0-2.762-2.238-5-5-5v2c1.654,0,3,1.346,3,3s-1.346,3-3,3
		c-0.043,0-0.083-0.011-0.126-0.013h-4.862c0.004,0.005,0.009,0.009,0.012,0.013h-0.023v2H250.605z"/>
	<path d="M254.105,403.376h-13v2h9.022c-0.003,0.004-0.007,0.008-0.011,0.013h3.862c0.043-0.002,0.083-0.013,0.126-0.013
		c1.654,0,3,1.346,3,3s-1.346,3-3,3v2c2.762,0,5-2.238,5-5S256.867,403.376,254.105,403.376z"/>
	<path d="M221.939,401.376h15.166c3.314,0,6-2.687,6-6c0-3.314-2.686-6-6-6v2c2.205,0,4,1.794,4,4s-1.795,4-4,4H224.52
		c-2.596-1.188-4.658-3.339-5.69-6.034c0.849,0.204,1.724,0.309,2.612,0.309c6.168,0,11.187-5.019,11.187-11.188
		c0-1.276-0.22-2.532-0.64-3.717c4.046,1.102,7.168,4.459,7.937,8.63h2.018c-0.964-6.237-6.338-11.016-12.846-11.016
		c-0.259,0-0.511,0.024-0.766,0.039c1.425,1.618,2.297,3.737,2.297,6.063c0,5.072-4.112,9.188-9.187,9.188
		c-1.988,0-3.826-0.641-5.33-1.715c0.162,3.801,1.962,7.165,4.699,9.44h-11.705v2h12.012H221.939z"/>
</g>
<g>
	<path d="M-486.676,488.569h-20c-1.103,0-2-0.897-2-2s0.897-2,2-2h3.445h0.555v-2h-4c-2.209,0-4,1.791-4,4s1.791,4,4,4h20
		c2.205,0,4,1.794,4,4s-1.795,4-4,4v2c3.314,0,6-2.686,6-6C-480.676,491.256-483.361,488.569-486.676,488.569z"/>
	<path d="M-484.676,472.569v2c2.205,0,4,1.794,4,4s-1.795,4-4,4h-15.988v2h15.988c3.314,0,6-2.687,6-6
		C-478.676,475.255-481.361,472.569-484.676,472.569z"/>
	<path d="M-478.676,484.569v2h5.5v-0.051c2.523-0.254,4.5-2.358,4.5-4.949c0-2.762-2.238-5-5-5v2c1.654,0,3,1.346,3,3s-1.346,3-3,3
		c-0.043,0-0.083-0.011-0.126-0.013h-4.862c0.003,0.005,0.009,0.009,0.012,0.013H-478.676z"/>
	<path d="M-467.676,488.569h-11v2h7.022c-0.004,0.004-0.008,0.008-0.011,0.013h3.862c0.043-0.002,0.083-0.013,0.126-0.013
		c1.654,0,3,1.346,3,3s-1.346,3-3,3v2c2.762,0,5-2.238,5-5S-464.914,488.569-467.676,488.569z"/>
</g>
<path d="M49.616,474.916v-0.038H11.24c-1.103,0-2-0.897-2-2s0.897-2,2-2h33c2.762,0,5-2.238,5-5s-2.238-5-5-5H6.365v0.008
	c-0.042-0.001-0.083-0.008-0.125-0.008c-2.762,0-5,2.238-5,5s2.238,5,5,5v-2c-1.654,0-3-1.346-3-3s1.346-3,3-3h0.125h3.853H44.24
	c1.654,0,3,1.346,3,3s-1.346,3-3,3h-33c-2.209,0-4,1.791-4,4s1.791,4,4,4h38c1.103,0,2,0.897,2,2s-0.897,2-2,2h-32
	c-2.209,0-4,1.791-4,4s1.791,4,4,4h22c1.103,0,2,0.897,2,2s-0.897,2-2,2H15.23v0.001c-2.204,0.006-3.99,1.793-3.99,3.999
	s1.786,3.993,3.99,3.999v0.001h12.01c1.103,0,2,0.897,2,2s-0.897,2-2,2h-2c-2.209,0-4,1.791-4,4s1.791,4,4,4v-2
	c-1.103,0-2-0.897-2-2s0.897-2,2-2h2c2.209,0,4-1.791,4-4s-1.791-4-4-4h-12c-1.103,0-2-0.897-2-2s0.897-2,2-2h24
	c2.209,0,4-1.791,4-4c0-2.152-1.704-3.895-3.834-3.983v-0.017H17.24c-1.103,0-2-0.897-2-2s0.897-2,2-2h32c2.209,0,4-1.791,4-4
	C53.24,476.798,51.646,475.108,49.616,474.916z"/>
<path d="M235.031,465.594v-2.024h-2v2.024c-13.01,0.513-23.462,10.965-23.975,23.976h1.674c1.14-1.222,2.748-2,4.551-2
	c2.26,0,4.233,1.203,5.331,3h1.838c1.098-1.797,3.071-3,5.331-3c2.204,0,4.137,1.144,5.25,2.866v15.134c0,2.21,1.791,4,4,4
	s4-1.79,4-4h-2c0,1.103-0.897,2-2,2s-2-0.897-2-2v-15.134c1.113-1.723,3.046-2.866,5.25-2.866c2.26,0,4.233,1.203,5.331,3h1.838
	c1.098-1.797,3.071-3,5.331-3c1.803,0,3.411,0.778,4.551,2h1.674C258.493,476.559,248.041,466.106,235.031,465.594z
	 M252.781,485.569c-2.496,0-4.736,1.114-6.25,2.87c-1.514-1.756-3.754-2.87-6.25-2.87s-4.736,1.114-6.25,2.87
	c-1.514-1.756-3.754-2.87-6.25-2.87s-4.736,1.114-6.25,2.87c-1.514-1.756-3.755-2.87-6.25-2.87c-1.402,0-2.731,0.351-3.897,0.975
	c1.909-10.769,11.339-18.975,22.647-18.975s20.738,8.206,22.647,18.975C255.513,485.92,254.184,485.569,252.781,485.569z"/>
<g>
	<path d="M-170.264,589.882v-17.105c0-2.762-2.238-5-5-5s-5,2.238-5,5v17.105c-1.236,1.263-2,2.988-2,4.895c0,3.866,3.134,7,7,7
		s7-3.134,7-7C-168.264,592.87-169.027,591.145-170.264,589.882z M-175.264,599.776c-2.757,0-5-2.243-5-5
		c0-1.313,0.508-2.554,1.429-3.495l0.571-0.583v-0.816v-17.105c0-1.654,1.346-3,3-3s3,1.346,3,3v17.105v0.816l0.571,0.583
		c0.921,0.941,1.429,2.183,1.429,3.495C-170.264,597.533-172.507,599.776-175.264,599.776z"/>
	<path d="M-174.264,591.952v-15.176h-2v15.176c-1.167,0.413-2.008,1.516-2.008,2.824c0,1.662,1.347,3.008,3.008,3.008
		c1.662,0,3.008-1.346,3.008-3.008C-172.256,593.468-173.096,592.365-174.264,591.952z M-175.264,595.784
		c-0.556,0-1.008-0.452-1.008-1.008s0.452-1.008,1.008-1.008s1.008,0.452,1.008,1.008S-174.708,595.784-175.264,595.784z"/>
</g>
<g>
	<path d="M-70.476,589.882v-17.105c0-2.762-2.238-5-5-5s-5,2.238-5,5v17.105c-1.236,1.263-2,2.988-2,4.895c0,3.866,3.134,7,7,7
		s7-3.134,7-7C-68.476,592.87-69.239,591.145-70.476,589.882z M-75.476,599.776c-2.757,0-5-2.243-5-5
		c0-1.313,0.508-2.554,1.429-3.495l0.571-0.583v-0.816v-17.105c0-1.654,1.346-3,3-3s3,1.346,3,3v17.105v0.816l0.571,0.583
		c0.921,0.941,1.429,2.183,1.429,3.495C-70.476,597.533-72.719,599.776-75.476,599.776z"/>
	<path d="M-74.476,591.952v-20.176h-2v20.176c-1.167,0.413-2.008,1.516-2.008,2.824c0,1.662,1.347,3.008,3.008,3.008
		c1.662,0,3.008-1.346,3.008-3.008C-72.468,593.468-73.308,592.365-74.476,591.952z M-75.476,595.784
		c-0.556,0-1.008-0.452-1.008-1.008s0.452-1.008,1.008-1.008s1.008,0.452,1.008,1.008S-74.92,595.784-75.476,595.784z"/>
</g>
<g>
	<path d="M-273.373,589.882v-17.105c0-2.762-2.238-5-5-5s-5,2.238-5,5v17.105c-1.236,1.263-2,2.988-2,4.895c0,3.866,3.134,7,7,7
		s7-3.134,7-7C-271.373,592.87-272.137,591.145-273.373,589.882z M-278.373,599.776c-2.757,0-5-2.243-5-5
		c0-1.313,0.508-2.554,1.429-3.495l0.571-0.583v-0.816v-17.105c0-1.654,1.346-3,3-3s3,1.346,3,3v17.105v0.816l0.571,0.583
		c0.921,0.941,1.429,2.183,1.429,3.495C-273.373,597.533-275.616,599.776-278.373,599.776z"/>
	<path d="M-277.373,591.952v-10.176h-2v10.176c-1.167,0.413-2.008,1.516-2.008,2.824c0,1.662,1.347,3.008,3.008,3.008
		c1.662,0,3.008-1.346,3.008-3.008C-275.365,593.468-276.205,592.365-277.373,591.952z M-278.373,595.784
		c-0.556,0-1.008-0.452-1.008-1.008s0.452-1.008,1.008-1.008s1.008,0.452,1.008,1.008S-277.817,595.784-278.373,595.784z"/>
</g>
<g>
	<path d="M-377.019,589.882v-17.105c0-2.762-2.238-5-5-5s-5,2.238-5,5v17.105c-1.236,1.263-2,2.988-2,4.895c0,3.866,3.134,7,7,7
		s7-3.134,7-7C-375.019,592.87-375.782,591.145-377.019,589.882z M-382.019,599.776c-2.757,0-5-2.243-5-5
		c0-1.313,0.508-2.554,1.429-3.495l0.571-0.583v-0.816v-17.105c0-1.654,1.346-3,3-3s3,1.346,3,3v17.105v0.816l0.571,0.583
		c0.921,0.941,1.429,2.183,1.429,3.495C-377.019,597.533-379.262,599.776-382.019,599.776z"/>
	<path d="M-381.019,591.952v-5.176h-2v5.176c-1.167,0.413-2.008,1.516-2.008,2.824c0,1.662,1.347,3.008,3.008,3.008
		c1.662,0,3.008-1.346,3.008-3.008C-379.011,593.468-379.851,592.365-381.019,591.952z M-382.019,595.784
		c-0.556,0-1.008-0.452-1.008-1.008s0.452-1.008,1.008-1.008s1.008,0.452,1.008,1.008S-381.463,595.784-382.019,595.784z"/>
</g>
<g>
	<path d="M-481.676,589.882v-17.105c0-2.762-2.238-5-5-5s-5,2.238-5,5v17.105c-1.236,1.263-2,2.988-2,4.895c0,3.866,3.134,7,7,7
		s7-3.134,7-7C-479.676,592.87-480.439,591.145-481.676,589.882z M-486.676,599.776c-2.757,0-5-2.243-5-5
		c0-1.313,0.508-2.554,1.429-3.495l0.571-0.583v-0.816v-17.105c0-1.654,1.346-3,3-3s3,1.346,3,3v17.105v0.816l0.571,0.583
		c0.921,0.941,1.429,2.183,1.429,3.495C-481.676,597.533-483.919,599.776-486.676,599.776z"/>
	<path d="M-486.676,591.769c-1.661,0-3.008,1.347-3.008,3.008c0,1.662,1.347,3.008,3.008,3.008c1.662,0,3.008-1.346,3.008-3.008
		C-483.668,593.115-485.014,591.769-486.676,591.769z M-486.676,595.784c-0.556,0-1.008-0.452-1.008-1.008s0.452-1.008,1.008-1.008
		s1.008,0.452,1.008,1.008S-486.12,595.784-486.676,595.784z"/>
</g>
<g>
	<path d="M18.249,570.089c-2.209,0-4,1.791-4,4c0,2.21,1.791,4,4,4c2.211,0,4-1.79,4-4C22.249,571.88,20.46,570.089,18.249,570.089z
		 M18.249,576.089c-1.103,0-2-0.897-2-2s0.897-2,2-2s2,0.897,2,2S19.352,576.089,18.249,576.089z"/>
	<path d="M32.249,598.089c-4.41,0-7.999-3.589-7.999-7.999v-4.002c0-4.41,3.589-7.999,7.999-7.999c2.715,0,5.115,1.362,6.563,3.437
		l1.43-1.43c-1.824-2.429-4.72-4.007-7.992-4.007c-5.522,0-9.999,4.478-9.999,9.999v4.002c0,5.521,4.477,9.999,9.999,9.999
		c3.272,0,6.168-1.579,7.992-4.008l-1.43-1.43C37.365,596.726,34.965,598.089,32.249,598.089z"/>
</g>
<g>
	<path d="M122.945,569.968c-2.209,0-4,1.791-4,4c0,2.21,1.791,4,4,4c2.211,0,4-1.79,4-4
		C126.945,571.759,125.156,569.968,122.945,569.968z M122.945,575.968c-1.103,0-2-0.897-2-2s0.897-2,2-2s2,0.897,2,2
		S124.048,575.968,122.945,575.968z"/>
	<polygon points="142.82,578.089 142.82,576.089 130.82,576.089 128.82,576.089 128.82,600.089 130.82,600.089 130.82,588.089 
		138.82,588.089 138.82,586.089 130.82,586.089 130.82,578.089 	"/>
</g>
<g>
	<path d="M234.031,573.78c-7.179,0-13,5.82-13,13s5.821,13,13,13s13-5.82,13-13S241.21,573.78,234.031,573.78z M234.031,597.78
		c-6.065,0-11-4.935-11-11s4.935-11,11-11s11,4.935,11,11S240.097,597.78,234.031,597.78z"/>
	<path d="M229.765,591.022l6.363-2.121l2.121-6.364l-6.363,2.122L229.765,591.022z M233.467,586.24l1.62-0.54l-0.54,1.62l-1.62,0.54
		L233.467,586.24z"/>
</g>
<g>
	<path d="M-486.676,664.298c-7.179,0-13,5.82-13,13s5.821,13,13,13s13-5.82,13-13S-479.497,664.298-486.676,664.298z
		 M-486.676,688.298c-6.065,0-11-4.934-11-11c0-6.064,4.935-11,11-11s11,4.936,11,11
		C-475.676,683.364-480.61,688.298-486.676,688.298z"/>
	<path d="M-484.114,675.72l-2.586-4.422l-2.529,4.33h0.007c-0.299,0.467-0.478,1.018-0.478,1.613c0,1.656,1.343,3,3,3s3-1.344,3-3
		c0-0.559-0.162-1.074-0.428-1.521H-484.114z M-486.7,678.241c-0.552,0-1-0.449-1-1c0-0.188,0.055-0.367,0.162-0.535l0.864-1.355
		l0.826,1.391c0.098,0.164,0.147,0.332,0.147,0.5C-485.7,677.792-486.148,678.241-486.7,678.241z"/>
</g>
<g>
	<path d="M-381.892,664.298c-7.18,0-13,5.82-13,13s5.82,13,13,13s13-5.82,13-13S-374.712,664.298-381.892,664.298z
		 M-381.892,688.298c-6.065,0-11-4.934-11-11c0-6.064,4.935-11,11-11s11,4.936,11,11
		C-370.892,683.364-375.826,688.298-381.892,688.298z"/>
	<path d="M-380.303,674.718c-0.467-0.299-1.018-0.477-1.613-0.477c-1.658,0-3,1.342-3,3c0,1.656,1.342,3,3,3
		c0.557,0,1.072-0.162,1.52-0.428v0.014l4.422-2.586l-4.328-2.529V674.718z M-381.418,678.093c-0.164,0.098-0.332,0.148-0.498,0.148
		c-0.552,0-1-0.449-1-1c0-0.553,0.448-1,1-1c0.188,0,0.368,0.053,0.535,0.16l1.355,0.865L-381.418,678.093z"/>
</g>
<g>
	<path d="M-278.841,664.298c-7.18,0-13,5.82-13,13s5.82,13,13,13s13-5.82,13-13S-271.661,664.298-278.841,664.298z
		 M-278.841,688.298c-6.065,0-11-4.934-11-11c0-6.064,4.935-11,11-11s11,4.936,11,11
		C-267.841,683.364-272.775,688.298-278.841,688.298z"/>
	<path d="M-278.841,674.241c-1.656,0-3,1.342-3,3c0,0.557,0.162,1.072,0.428,1.52h-0.014l2.586,4.422l2.529-4.328h-0.006
		c0.299-0.467,0.477-1.018,0.477-1.613C-275.841,675.583-277.183,674.241-278.841,674.241z M-278.002,677.776l-0.865,1.355
		l-0.826-1.393c-0.098-0.164-0.147-0.332-0.147-0.498c0-0.553,0.448-1,1-1s1,0.447,1,1
		C-277.841,677.429-277.895,677.608-278.002,677.776z"/>
</g>
<g>
	<path d="M-175.427,664.298c-7.179,0-13,5.82-13,13s5.821,13,13,13s13-5.82,13-13S-168.248,664.298-175.427,664.298z
		 M-175.427,688.298c-6.065,0-11-4.934-11-11c0-6.064,4.935-11,11-11s11,4.936,11,11
		C-164.427,683.364-169.361,688.298-175.427,688.298z"/>
	<path d="M-175.468,674.241c-0.557,0-1.072,0.162-1.52,0.428v-0.014l-4.422,2.586l4.328,2.529v-0.006
		c0.467,0.299,1.018,0.477,1.613,0.477c1.658,0,3-1.342,3-3C-172.468,675.585-173.81,674.241-175.468,674.241z M-175.468,678.241
		c-0.188,0-0.368-0.055-0.535-0.162l-1.355-0.865l1.393-0.826c0.164-0.098,0.332-0.146,0.498-0.146c0.552,0,1,0.447,1,1
		C-174.468,677.792-174.916,678.241-175.468,678.241z"/>
</g>
<g>
	<rect x="-383.578" y="467.569" width="2" height="10"/>
	<rect x="-368.878" y="473.655" transform="matrix(0.7071 0.7071 -0.7071 0.7071 230.856 400.3842)" width="2" height="10.409"/>
	<rect x="-402.487" y="477.865" transform="matrix(0.7071 0.7071 -0.7071 0.7071 222.2471 421.1776)" width="10.409" height="2"/>
	<polygon points="-389.246,496.823 -387.832,498.237 -383.578,493.983 -383.578,503.569 -381.578,503.569 -381.578,493.983 
		-377.325,498.237 -375.911,496.823 -382.578,490.155 	"/>
	<path d="M-369.571,493.568c0-0.002,0-0.004,0-0.006c0-7.18-5.82-12.999-13-12.999s-13,5.819-13,12.999c0,0.002,0,0.004,0,0.006h-13
		v2h18v-2h-3c0-0.002,0-0.004,0-0.006c0-6.064,4.935-10.999,11-10.999s11,4.935,11,10.999c0,0.002,0,0.004,0,0.006h-3v2h17.995v-2
		H-369.571z"/>
</g>
<g>
	<rect x="-279.833" y="466.382" width="2" height="10"/>
	<rect x="-265.133" y="472.468" transform="matrix(0.7071 0.7071 -0.7071 0.7071 260.4025 326.6775)" width="2" height="10.409"/>
	<rect x="-298.742" y="476.677" transform="matrix(0.7071 0.7071 -0.7071 0.7071 251.7936 347.4708)" width="10.409" height="2"/>
	<polygon points="-277.833,500.929 -277.833,490.382 -279.833,490.382 -279.833,500.929 -284.087,496.675 -285.501,498.089 
		-278.833,504.757 -272.166,498.089 -273.58,496.675 	"/>
	<path d="M-265.826,492.381c0-0.002,0-0.004,0-0.006c0-7.18-5.82-12.999-13-12.999s-13,5.819-13,12.999c0,0.002,0,0.004,0,0.006h-13
		v2h22v-2h-7c0-0.002,0-0.004,0-0.006c0-6.064,4.935-10.999,11-10.999s11,4.935,11,10.999c0,0.002,0,0.004,0,0.006h-7v2h21.995v-2
		H-265.826z"/>
</g>
<g>
	<polygon points="-75.476,500.395 -75.476,486.012 -77.476,486.012 -77.476,500.395 -81.729,496.141 -83.144,497.555 
		-76.476,504.223 -69.809,497.555 -71.223,496.141 	"/>
	<path d="M-59.848,481.041c-1.596-7.445-8.207-13.029-16.127-13.029c-6.423,0-11.977,3.678-14.702,9.035
		c-0.266-0.018-0.53-0.04-0.8-0.04c-6.627,0-11.999,5.372-11.999,12c0,6.607,5.34,11.965,11.938,11.998v0.003h6.062v-2h-5.604
		l-0.447-0.003c-5.485-0.027-9.948-4.513-9.948-9.998c0-5.514,4.485-10,9.999-10c0.175,0,0.347,0.014,0.52,0.025l0.148,0.01
		l1.316,0.088l0.598-1.176c2.492-4.899,7.443-7.942,12.92-7.942c6.79,0,12.75,4.814,14.172,11.448l0.317,1.482l1.514,0.095
		c4.203,0.262,7.496,3.763,7.496,7.971c0,4.397-3.565,7.977-7.957,8c-0.05-0.003-0.093-0.005-0.137-0.007l-2.043,0.007h-4.863v2
		h6.863v-0.007c0.046,0.001,0.091,0.007,0.137,0.007c5.521,0,10-4.477,10-10C-50.476,485.697-54.62,481.366-59.848,481.041z"/>
</g>
<g>
	<polygon points="-169.491,497.199 -168.077,495.785 -174.744,489.117 -181.412,495.785 -179.998,497.199 -175.744,492.945 
		-175.744,505.531 -173.744,505.531 -173.744,492.945 	"/>
	<path d="M-158.116,482.637c-1.596-7.445-8.207-13.029-16.127-13.029c-6.423,0-11.977,3.678-14.702,9.035
		c-0.266-0.018-0.53-0.04-0.8-0.04c-6.627,0-11.999,5.372-11.999,12c0,6.607,5.34,11.965,11.938,11.998v0.003h10.062v-2h-9.604
		l-0.447-0.003c-5.485-0.027-9.948-4.513-9.948-9.998c0-5.514,4.485-10,9.999-10c0.175,0,0.347,0.014,0.52,0.025l0.148,0.01
		l1.316,0.088l0.598-1.176c2.492-4.899,7.443-7.942,12.92-7.942c6.79,0,12.75,4.814,14.172,11.448l0.317,1.482l1.514,0.095
		c4.203,0.262,7.496,3.763,7.496,7.971c0,4.397-3.565,7.977-7.957,8c-0.05-0.003-0.093-0.005-0.137-0.007l-2.043,0.007h-8.863v2
		h10.863v-0.007c0.046,0.001,0.091,0.007,0.137,0.007c5.521,0,10-4.477,10-10C-148.744,487.293-152.889,482.962-158.116,482.637z"/>
</g>
<g>
	<path d="M44.373,293.121c-1.596-7.445-8.207-13.029-16.127-13.029c-6.423,0-11.977,3.678-14.702,9.035
		c-0.266-0.018-0.53-0.04-0.8-0.04c-6.627,0-11.999,5.372-11.999,12c0,6.607,5.34,11.965,11.938,11.998v0.003h2.062v-2h-1.604
		l-0.447-0.003c-5.485-0.027-9.948-4.513-9.948-9.998c0-5.514,4.485-10,9.999-10c0.175,0,0.347,0.014,0.52,0.025l0.148,0.01
		l1.316,0.088l0.598-1.176c2.492-4.899,7.443-7.942,12.92-7.942c6.79,0,12.75,4.814,14.172,11.448l0.317,1.482l1.514,0.095
		c4.203,0.262,7.496,3.763,7.496,7.971c0,4.397-3.565,7.977-7.957,8c-0.05-0.003-0.093-0.005-0.137-0.007l-2.043,0.007h-0.863v2
		h2.863v-0.007c0.046,0.001,0.091,0.007,0.137,0.007c5.521,0,10-4.477,10-10C53.745,297.777,49.601,293.446,44.373,293.121z"/>
	<polygon points="22.745,312.109 22.745,309.479 24.918,310.702 25.604,309.481 23.134,308.092 25.604,306.702 24.918,305.481 
		22.745,306.704 22.745,304.109 20.745,304.109 20.745,306.748 18.494,305.481 17.809,306.702 20.278,308.092 17.809,309.481 
		18.494,310.702 20.745,309.436 20.745,312.109 	"/>
	<polygon points="27.907,316.464 25.734,317.687 25.734,315.092 23.734,315.092 23.734,317.73 21.483,316.464 20.798,317.685 
		23.268,319.074 20.798,320.464 21.483,321.685 23.734,320.418 23.734,323.092 25.734,323.092 25.734,320.462 27.907,321.685 
		28.593,320.464 26.123,319.074 28.593,317.685 	"/>
	<polygon points="36.923,309.481 34.75,310.704 34.75,308.109 32.75,308.109 32.75,310.748 30.499,309.481 29.813,310.702 
		32.283,312.092 29.813,313.481 30.499,314.702 32.75,313.436 32.75,316.109 34.75,316.109 34.75,313.479 36.923,314.702 
		37.608,313.481 35.139,312.092 37.608,310.702 	"/>
</g>
<g>
	<rect x="119.885" y="275.069" width="2" height="7.973"/>
	<rect x="100.885" y="293.983" width="7.973" height="2"/>
	<rect x="105.558" y="282.717" transform="matrix(0.7071 0.7071 -0.7071 0.7071 232.703 5.6388)" width="7.974" height="2"/>
	<rect x="131.067" y="279.735" transform="matrix(0.7071 0.7071 -0.7071 0.7071 239.3022 -10.2852)" width="2" height="7.972"/>
	<path d="M150.396,300.859c-1.444-6.742-7.433-11.8-14.605-11.8c-2.185,0-4.258,0.471-6.127,1.314
		c-1.666-3.203-5.006-5.395-8.865-5.395c-5.522,0-10,4.477-10,9.999c0,2.46,0.899,4.702,2.373,6.442
		c-1.428,1.84-2.287,4.144-2.287,6.653c0,5.983,4.836,10.836,10.813,10.865v0.003h1.188v-2h-0.721l-0.457-0.003
		c-4.864-0.023-8.822-4.001-8.822-8.865c0-4.89,3.978-8.868,8.867-8.868c0.15,0,0.299,0.012,0.447,0.022l0.148,0.01l1.314,0.085
		l0.597-1.175c2.225-4.372,6.644-7.089,11.532-7.089c6.062,0,11.382,4.298,12.649,10.219l0.318,1.483l1.514,0.094
		c3.708,0.23,6.612,3.319,6.612,7.03c0,3.878-3.144,7.035-7.017,7.057c-0.042-0.003-0.079-0.005-0.117-0.005l-1.866,0.005v2h1.819
		v-0.006c0.042,0.001,0.082,0.006,0.124,0.006c5.001,0,9.057-4.054,9.057-9.057C158.885,305.076,155.131,301.154,150.396,300.859z
		 M122.477,297.242c-0.241-0.016-0.48-0.036-0.725-0.036c-2.766,0-5.282,1.041-7.2,2.742c-1.092-1.365-1.753-3.089-1.753-4.97
		c0-4.41,3.589-7.999,8-7.999c3.092,0,5.76,1.773,7.091,4.346C125.592,292.765,123.713,294.813,122.477,297.242z"/>
	<polygon points="129.877,317.962 129.877,315.332 132.05,316.555 132.735,315.334 130.266,313.944 132.735,312.555 132.05,311.334 
		129.877,312.557 129.877,309.962 127.877,309.962 127.877,312.601 125.626,311.334 124.94,312.555 127.41,313.944 124.94,315.334 
		125.626,316.555 127.877,315.288 127.877,317.962 	"/>
	<polygon points="135.039,322.316 132.866,323.539 132.866,320.944 130.866,320.944 130.866,323.583 128.615,322.316 
		127.93,323.537 130.399,324.927 127.93,326.316 128.615,327.537 130.866,326.271 130.866,328.944 132.866,328.944 132.866,326.314 
		135.039,327.537 135.725,326.316 133.255,324.927 135.725,323.537 	"/>
	<polygon points="144.055,315.334 141.882,316.557 141.882,313.962 139.882,313.962 139.882,316.601 137.631,315.334 
		136.945,316.555 139.415,317.944 136.945,319.334 137.631,320.555 139.882,319.288 139.882,321.962 141.882,321.962 
		141.882,319.332 144.055,320.555 144.74,319.334 142.271,317.944 144.74,316.555 	"/>
</g>
<g>
	<path d="M250.585,297.856c-1.444-6.742-7.433-11.8-14.605-11.8c-1.799,0-3.522,0.32-5.118,0.904
		c-0.949-5.108-5.404-8.98-10.788-8.98c-0.413,0-0.819,0.027-1.222,0.071c0.744,1.112,1.179,2.448,1.179,3.886c0,3.865-3.134,7-7,7
		c-1.438,0-2.773-0.435-3.886-1.179c-0.044,0.401-0.071,0.809-0.071,1.222c0,3.713,1.845,6.987,4.661,8.979
		c-1.653,1.907-2.661,4.389-2.661,7.111c0,5.983,4.836,10.836,10.813,10.865v0.003h1.188v-2h-0.721l-0.457-0.003
		c-4.864-0.023-8.822-4.001-8.822-8.865c0-4.89,3.978-8.868,8.867-8.868c0.15,0,0.299,0.012,0.447,0.022l0.148,0.01l1.314,0.085
		l0.597-1.175c2.225-4.372,6.644-7.089,11.532-7.089c6.062,0,11.382,4.298,12.649,10.219l0.318,1.483l1.514,0.094
		c3.708,0.23,6.612,3.319,6.612,7.03c0,3.878-3.144,7.035-7.017,7.057c-0.042-0.003-0.079-0.005-0.117-0.005l-1.866,0.005v2h1.819
		v-0.006c0.042,0.001,0.082,0.006,0.124,0.006c5.001,0,9.057-4.054,9.057-9.057C259.073,302.073,255.319,298.151,250.585,297.856z
		 M222.665,294.239c-0.241-0.016-0.48-0.036-0.725-0.036c-2.537,0-4.865,0.877-6.715,2.334c-2.012-1.294-3.486-3.354-3.976-5.776
		c0.582,0.117,1.178,0.177,1.78,0.177c4.963,0,9-4.037,9-9c0-0.603-0.06-1.198-0.177-1.78c3.733,0.753,6.629,3.824,7.134,7.64
		C226.274,289.241,224.06,291.496,222.665,294.239z"/>
	<polygon points="230.11,314.959 230.11,312.329 232.283,313.552 232.969,312.331 230.499,310.941 232.969,309.552 232.283,308.331 
		230.11,309.554 230.11,306.959 228.11,306.959 228.11,309.598 225.859,308.331 225.174,309.552 227.644,310.941 225.174,312.331 
		225.859,313.552 228.11,312.285 228.11,314.959 	"/>
	<polygon points="235.272,319.313 233.1,320.536 233.1,317.941 231.1,317.941 231.1,320.58 228.849,319.313 228.163,320.534 
		230.633,321.924 228.163,323.313 228.849,324.534 231.1,323.268 231.1,325.941 233.1,325.941 233.1,323.312 235.272,324.534 
		235.958,323.313 233.488,321.924 235.958,320.534 	"/>
	<polygon points="244.288,312.331 242.115,313.554 242.115,310.959 240.115,310.959 240.115,313.598 237.864,312.331 
		237.179,313.552 239.648,314.941 237.179,316.331 237.864,317.552 240.115,316.285 240.115,318.959 242.115,318.959 
		242.115,316.329 244.288,317.552 244.974,316.331 242.504,314.941 244.974,313.552 	"/>
</g>
<rect x="-365.773" y="-269.894" fill="none" width="472.974" height="180.918"/>
<text transform="matrix(1 0 0 1 -186.1362 -198.4946)"><tspan x="0" y="0" font-family="'HelveticaNeueLTStd-Th'" font-size="100" letter-spacing="2">60</tspan><tspan x="-99.268" y="60" font-family="'HelveticaNeueLTStd-Lt'" font-size="48" letter-spacing="1">Weather Icons</tspan><tspan x="-3.726" y="104" font-family="'HelveticaNeueLTStd-Lt'" font-size="24">IOS 7 Style</tspan></text>
</svg>
