<?xml version="1.0" encoding="utf-8"?>
<!-- Generator: Adobe Illustrator 16.0.0, SVG Export Plug-In . SVG Version: 6.00 Build 0)  -->
<!DOCTYPE svg PUBLIC "-//W3C//DTD SVG 1.1//EN" "http://www.w3.org/Graphics/SVG/1.1/DTD/svg11.dtd">
<svg version="1.1" id="Layer_1" xmlns="http://www.w3.org/2000/svg" xmlns:xlink="http://www.w3.org/1999/xlink" x="0px" y="0px"
	 width="58px" height="57.873px" viewBox="0 0 58 57.873" enable-background="new 0 0 58 57.873" xml:space="preserve">
<path d="M34.039,475.7l-1.803,15.077l-0.268,2.237h2.254h6.896l-14.693,18.759l1.789-14.52l0.277-2.245H26.23h-6.957L34.039,475.7
	 M36.894,468.676l-21.667,28.333H26.23l-2.671,21.667l21.667-27.661H34.223L36.894,468.676L36.894,468.676z"/>
<path d="M-378.996,13.439c6.79,0,12.749,4.814,14.171,11.448l0.318,1.483l1.514,0.094c4.203,0.262,7.496,3.763,7.496,7.971
	c0,4.396-3.565,7.977-7.957,8c-0.046-0.003-0.091-0.006-0.137-0.007l-2.043-0.036v0.043h-28.337l-0.578-0.003
	c-5.485-0.027-9.948-4.513-9.948-9.998c0-5.514,4.485-10,9.999-10c0.175,0,0.347,0.014,0.519,0.025l0.149,0.011l1.316,0.087
	l0.598-1.176C-389.423,16.482-384.473,13.439-378.996,13.439 M-378.996,11.439c-6.423,0-11.977,3.678-14.702,9.035
	c-0.266-0.018-0.53-0.04-0.8-0.04c-6.627,0-11.999,5.372-11.999,12c0,6.607,5.34,11.965,11.938,11.998v0.003h30.925v-0.007
	c0.046,0.001,0.091,0.007,0.137,0.007c5.521,0,10-4.477,10-10c0-5.311-4.145-9.642-9.372-9.967
	C-364.465,17.023-371.076,11.439-378.996,11.439L-378.996,11.439z"/>
<g>
	<path d="M-256.045,31.851c-1.444-6.742-7.433-11.8-14.605-11.8c-2.185,0-4.258,0.47-6.127,1.313
		c-1.666-3.202-5.006-5.394-8.865-5.394c-5.522,0-10,4.477-10,9.999c0,2.46,0.898,4.702,2.373,6.442
		c-1.428,1.84-2.287,4.144-2.287,6.653c0,5.983,4.836,10.836,10.813,10.865v0.003h28.007v-0.006
		c0.042,0.001,0.082,0.006,0.124,0.006c5.001,0,9.057-4.054,9.057-9.057C-247.557,36.067-251.311,32.146-256.045,31.851z
		 M-285.643,17.971c3.092,0,5.76,1.773,7.092,4.345c-2.299,1.44-4.178,3.488-5.414,5.918c-0.241-0.016-0.48-0.036-0.725-0.036
		c-2.766,0-5.281,1.041-7.2,2.743c-1.092-1.366-1.753-3.09-1.753-4.971C-293.643,21.56-290.054,17.971-285.643,17.971z
		 M-256.573,47.934c-0.038-0.003-0.077-0.004-0.117-0.005l-2.047-0.042v0.047h-25.403l-0.594-0.003
		c-4.864-0.023-8.822-4.001-8.822-8.865c0-4.89,3.978-8.868,8.867-8.868c0.15,0,0.299,0.012,0.447,0.021l0.148,0.011l1.314,0.085
		l0.598-1.174c2.224-4.373,6.643-7.09,11.531-7.09c6.062,0,11.381,4.298,12.65,10.219l0.317,1.482l1.514,0.095
		c3.708,0.231,6.612,3.319,6.612,7.03C-249.557,44.755-252.7,47.911-256.573,47.934z"/>
	<rect x="-286.637" y="5.94" width="2" height="7.973"/>
	<rect x="-305.609" y="24.927" width="7.973" height="2"/>
	<rect x="-300.884" y="13.708" transform="matrix(0.7071 0.7071 -0.7071 0.7071 -76.5588 214.2454)" width="7.974" height="2"/>
	<rect x="-275.375" y="10.726" transform="matrix(0.7071 0.7071 -0.7071 0.7071 -69.9597 198.3214)" width="2" height="7.972"/>
</g>
<path d="M-160.302,27.823c-1.444-6.742-7.433-11.8-14.605-11.8c-1.799,0-3.521,0.32-5.118,0.904
	c-0.949-5.108-5.404-8.98-10.788-8.98c-0.413,0-0.819,0.027-1.222,0.071c0.744,1.112,1.179,2.448,1.179,3.886c0,3.865-3.134,7-7,7
	c-1.438,0-2.773-0.435-3.886-1.179c-0.044,0.401-0.071,0.809-0.071,1.222c0,3.712,1.845,6.987,4.661,8.979
	c-1.653,1.907-2.661,4.389-2.661,7.111c0,5.983,4.836,10.836,10.813,10.865v0.003h28.007V45.9c0.042,0.001,0.082,0.006,0.124,0.006
	c5.001,0,9.057-4.054,9.057-9.057C-151.813,32.04-155.567,28.118-160.302,27.823z M-199.637,20.728
	c0.582,0.117,1.178,0.177,1.78,0.177c4.963,0,9-4.037,9-9c0-0.603-0.06-1.198-0.177-1.78c3.733,0.753,6.629,3.824,7.134,7.64
	c-2.713,1.444-4.928,3.699-6.322,6.442c-0.241-0.016-0.48-0.036-0.725-0.036c-2.537,0-4.865,0.876-6.715,2.334
	C-197.673,25.21-199.147,23.15-199.637,20.728z M-160.83,43.906c-0.038-0.003-0.077-0.004-0.117-0.005l-2.047-0.042v0.047h-25.403
	l-0.594-0.003c-4.864-0.023-8.822-4.001-8.822-8.865c0-4.89,3.978-8.868,8.867-8.868c0.15,0,0.299,0.012,0.447,0.021l0.148,0.011
	l1.314,0.085l0.598-1.174c2.224-4.373,6.643-7.09,11.531-7.09c6.062,0,11.381,4.298,12.65,10.219l0.317,1.482l1.514,0.095
	c3.708,0.231,6.612,3.319,6.612,7.03C-153.813,40.728-156.957,43.884-160.83,43.906z"/>
<g>
	<rect x="-75.656" y="36.446" width="2" height="7"/>
	<rect x="-67.656" y="32.446" width="2" height="7"/>
	<rect x="-83.656" y="32.446" width="2" height="7"/>
	<rect x="-75.656" y="46.446" width="2" height="7"/>
	<rect x="-67.656" y="42.446" width="2" height="7"/>
	<rect x="-83.656" y="42.446" width="2" height="7"/>
	<path d="M-57.028,19.458c-1.596-7.445-8.207-13.029-16.127-13.029c-6.423,0-11.977,3.678-14.702,9.035
		c-0.266-0.018-0.53-0.04-0.8-0.04c-6.627,0-11.999,5.372-11.999,12c0,6.607,5.34,11.965,11.938,11.998v0.003h2.062v-2h-1.604
		l-0.447-0.003c-5.485-0.027-9.948-4.513-9.948-9.998c0-5.514,4.485-10,9.999-10c0.175,0,0.347,0.014,0.52,0.025l0.148,0.01
		l1.316,0.088l0.598-1.176c2.492-4.899,7.443-7.942,12.92-7.942c6.79,0,12.75,4.814,14.172,11.448l0.317,1.482l1.514,0.095
		c4.203,0.262,7.496,3.763,7.496,7.971c0,4.397-3.565,7.977-7.957,8c-0.05-0.003-0.093-0.005-0.137-0.007l-2.043,0.007h-2.863v2
		h4.863v-0.007c0.046,0.001,0.091,0.007,0.137,0.007c5.521,0,10-4.477,10-10C-47.656,24.114-51.801,19.783-57.028,19.458z"/>
</g>
<g>
	<path d="M-259.455,108.815c-1.596-7.445-8.207-13.029-16.127-13.029c-6.423,0-11.977,3.678-14.702,9.035
		c-0.266-0.018-0.53-0.04-0.8-0.04c-6.627,0-11.999,5.372-11.999,12c0,6.607,5.34,11.965,11.938,11.998v0.003h2.062v-2h-1.604
		l-0.447-0.003c-5.485-0.027-9.948-4.513-9.948-9.998c0-5.514,4.485-10,9.999-10c0.175,0,0.347,0.014,0.52,0.025l0.148,0.01
		l1.316,0.088l0.598-1.176c2.492-4.899,7.443-7.942,12.92-7.942c6.79,0,12.75,4.814,14.172,11.448l0.317,1.482l1.514,0.095
		c4.203,0.262,7.496,3.763,7.496,7.971c0,4.397-3.565,7.977-7.957,8c-0.05-0.003-0.093-0.005-0.137-0.007l-2.043,0.007h-2.863v2
		h4.863v-0.007c0.046,0.001,0.091,0.007,0.137,0.007c5.521,0,10-4.477,10-10C-250.083,113.472-254.228,109.141-259.455,108.815z"/>
	<polygon points="-278.083,135.811 -278.083,137.751 -278.083,143.811 -276.083,143.811 -276.083,137.751 -276.083,135.811 
		-276.083,123.811 -278.083,123.811 	"/>
	<polygon points="-270.083,131.811 -270.083,133.563 -270.083,139.811 -268.083,139.811 -268.083,133.563 -268.083,131.811 
		-268.083,119.811 -270.083,119.811 	"/>
	<polygon points="-286.083,131.811 -286.083,133.876 -286.083,139.811 -284.083,139.811 -284.083,133.876 -284.083,131.811 
		-284.083,119.811 -286.083,119.811 	"/>
</g>
<g>
	<polygon points="36.194,132.722 29.312,122.892 27.674,124.039 34.557,133.869 35.669,135.458 39.145,140.422 40.783,139.275 
		37.308,134.311 	"/>
	<polygon points="44.196,132.72 37.312,122.892 35.674,124.04 42.56,133.868 43.564,135.304 47.148,140.419 48.787,139.272 
		45.203,134.156 	"/>
	<polygon points="28.194,132.722 21.312,122.892 19.674,124.04 26.557,133.869 27.741,135.562 31.146,140.423 32.783,139.275 
		29.38,134.414 	"/>
	<path d="M47.302,109.082c-1.596-7.445-8.207-13.029-16.127-13.029c-6.423,0-11.977,3.678-14.702,9.035
		c-0.266-0.018-0.53-0.04-0.8-0.04c-6.627,0-11.999,5.372-11.999,12c0,6.607,5.34,11.965,11.938,11.998v0.003h2.062v-2h-1.604
		l-0.447-0.003c-5.485-0.027-9.948-4.513-9.948-9.998c0-5.514,4.485-10,9.999-10c0.175,0,0.347,0.014,0.52,0.025l0.148,0.01
		l1.316,0.088l0.598-1.176c2.492-4.899,7.443-7.942,12.92-7.942c6.79,0,12.75,4.814,14.172,11.448l0.317,1.482l1.514,0.095
		c4.203,0.262,7.496,3.763,7.496,7.971c0,4.397-3.565,7.977-7.957,8c-0.05-0.003-0.093-0.005-0.137-0.007l-1.043,0.007h0.137v2
		h0.863v-0.007c0.046,0.001,0.091,0.007,0.137,0.007c5.521,0,10-4.477,10-10C56.674,113.738,52.529,109.407,47.302,109.082z"/>
</g>
<g>
	<rect x="19" width="2" height="7.973"/>
	<rect y="18.914" width="7.973" height="2"/>
	<rect x="4.673" y="7.648" transform="matrix(0.7071 0.7071 -0.7071 0.7071 8.6512 -3.5909)" width="7.974" height="2"/>
	<rect x="30.182" y="4.666" transform="matrix(0.7071 0.7071 -0.7071 0.7071 15.2503 -19.5148)" width="2" height="7.972"/>
	<rect x="33" y="40.873" width="2" height="7"/>
	<rect x="41" y="36.873" width="2" height="7"/>
	<rect x="25" y="36.873" width="2" height="7"/>
	<rect x="33" y="50.873" width="2" height="7"/>
	<rect x="41" y="46.873" width="2" height="7"/>
	<rect x="25" y="46.873" width="2" height="7"/>
	<path d="M49.512,25.79c-1.444-6.742-7.433-11.8-14.605-11.8c-2.185,0-4.258,0.47-6.126,1.313c-1.667-3.202-5.007-5.394-8.866-5.394
		c-5.522,0-10,4.477-10,9.999c0,2.46,0.899,4.702,2.373,6.442C10.858,28.191,10,30.495,10,33.005
		c0,5.983,4.836,10.836,10.813,10.865v0.003H22v-2h-0.721l-0.457-0.003C15.958,41.847,12,37.869,12,33.005
		c0-4.89,3.978-8.868,8.867-8.868c0.15,0,0.299,0.012,0.447,0.022l0.148,0.01l1.314,0.085l0.597-1.175
		c2.225-4.372,6.644-7.089,11.532-7.089c6.062,0,11.382,4.298,12.649,10.219l0.318,1.483l1.514,0.094
		c3.708,0.23,6.612,3.319,6.612,7.03c0,3.878-3.144,7.035-7.017,7.057c-0.042-0.003-0.079-0.005-0.117-0.005l-2.047,0.005H46v2
		h2.819v-0.006c0.042,0.001,0.082,0.006,0.124,0.006c5.001,0,9.057-4.054,9.057-9.057C58,30.007,54.246,26.085,49.512,25.79z
		 M21.592,22.173c-0.241-0.016-0.48-0.036-0.725-0.036c-2.766,0-5.282,1.041-7.2,2.743c-1.092-1.366-1.753-3.09-1.753-4.971
		c0-4.41,3.589-7.999,8-7.999c3.091,0,5.76,1.773,7.091,4.345C24.707,17.695,22.827,19.743,21.592,22.173z"/>
</g>
<g>
	<rect x="133.417" y="39.426" width="2" height="7"/>
	<rect x="141.417" y="35.426" width="2" height="7"/>
	<rect x="125.417" y="35.426" width="2" height="7"/>
	<rect x="133.417" y="49.426" width="2" height="7"/>
	<rect x="141.417" y="45.426" width="2" height="7"/>
	<rect x="125.417" y="45.426" width="2" height="7"/>
	<path d="M149.929,24.343c-1.444-6.742-7.433-11.8-14.605-11.8c-1.799,0-3.522,0.32-5.118,0.904
		c-0.949-5.108-5.404-8.98-10.788-8.98c-0.413,0-0.819,0.027-1.222,0.071c0.744,1.112,1.179,2.448,1.179,3.886c0,3.865-3.134,7-7,7
		c-1.438,0-2.773-0.435-3.886-1.179c-0.044,0.401-0.071,0.809-0.071,1.222c0,3.712,1.845,6.987,4.661,8.979
		c-1.653,1.907-2.661,4.389-2.661,7.111c0,5.983,4.836,10.836,10.813,10.865v0.003h1.188v-2h-0.721l-0.457-0.003
		c-4.864-0.023-8.822-4.001-8.822-8.865c0-4.89,3.978-8.868,8.867-8.868c0.15,0,0.299,0.012,0.447,0.022l0.148,0.01l1.314,0.085
		l0.597-1.175c2.225-4.372,6.644-7.089,11.532-7.089c6.062,0,11.382,4.298,12.649,10.219l0.318,1.483l1.514,0.094
		c3.708,0.23,6.612,3.319,6.612,7.03c0,3.878-3.144,7.035-7.017,7.057c-0.042-0.003-0.079-0.005-0.117-0.005l-2.047,0.005h-0.819v2
		h2.819V42.42c0.042,0.001,0.082,0.006,0.124,0.006c5.001,0,9.057-4.054,9.057-9.057C158.417,28.56,154.663,24.638,149.929,24.343z
		 M122.009,20.726c-0.241-0.016-0.48-0.036-0.725-0.036c-2.537,0-4.865,0.876-6.715,2.334c-2.012-1.294-3.487-3.354-3.976-5.776
		c0.582,0.117,1.178,0.177,1.78,0.177c4.963,0,9-4.037,9-9c0-0.603-0.06-1.198-0.177-1.78c3.733,0.753,6.629,3.824,7.133,7.64
		C125.619,15.728,123.404,17.982,122.009,20.726z"/>
</g>
<g>
	<polygon points="-173.813,140.249 -173.813,142.189 -173.813,148.249 -171.813,148.249 -171.813,142.189 -171.813,140.249 
		-171.813,128.249 -173.813,128.249 	"/>
	<polygon points="-165.813,136.249 -165.813,138.002 -165.813,144.249 -163.813,144.249 -163.813,138.002 -163.813,136.249 
		-163.813,124.249 -165.813,124.249 	"/>
	<polygon points="-181.813,136.249 -181.813,138.314 -181.813,144.249 -179.813,144.249 -179.813,138.314 -179.813,136.249 
		-179.813,124.249 -181.813,124.249 	"/>
	<rect x="-187.813" y="89.347" width="2" height="7.973"/>
	<rect x="-206.813" y="108.261" width="7.973" height="2"/>
	<rect x="-202.14" y="96.994" transform="matrix(0.7071 0.7071 -0.7071 0.7071 11.2545 168.8174)" width="7.974" height="2"/>
	<rect x="-176.632" y="94.012" transform="matrix(0.7071 0.7071 -0.7071 0.7071 17.8537 152.8934)" width="2" height="7.972"/>
	<path d="M-157.302,115.137c-1.444-6.742-7.433-11.8-14.605-11.8c-2.185,0-4.258,0.47-6.127,1.313
		c-1.666-3.202-5.006-5.394-8.865-5.394c-5.522,0-10,4.477-10,9.999c0,2.46,0.898,4.702,2.373,6.442
		c-1.428,1.84-2.287,4.144-2.287,6.653c0,5.983,4.836,10.836,10.813,10.865v0.003h1.188v-2h-0.721l-0.457-0.003
		c-4.864-0.023-8.822-4.001-8.822-8.865c0-4.89,3.978-8.868,8.867-8.868c0.15,0,0.299,0.012,0.447,0.022l0.148,0.01l1.314,0.085
		l0.597-1.175c2.225-4.372,6.644-7.089,11.532-7.089c6.062,0,11.382,4.298,12.649,10.219l0.318,1.483l1.514,0.094
		c3.708,0.23,6.612,3.319,6.612,7.03c0,3.878-3.144,7.035-7.017,7.057c-0.042-0.003-0.079-0.005-0.117-0.005l-2.047,0.005h-0.819v2
		h2.819v-0.006c0.042,0.001,0.082,0.006,0.124,0.006c5.001,0,9.057-4.054,9.057-9.057
		C-148.813,119.354-152.567,115.432-157.302,115.137z M-185.222,111.52c-0.241-0.016-0.48-0.036-0.725-0.036
		c-2.766,0-5.281,1.042-7.2,2.743c-1.092-1.367-1.753-3.09-1.753-4.971c0-4.41,3.589-7.999,8-7.999c3.092,0,5.76,1.773,7.092,4.345
		C-182.106,107.041-183.985,109.09-185.222,111.52z"/>
</g>
<g>
	<polygon points="-73.416,137.732 -73.416,139.673 -73.416,145.732 -71.416,145.732 -71.416,139.673 -71.416,137.732 
		-71.416,125.732 -73.416,125.732 	"/>
	<polygon points="-65.416,133.732 -65.416,135.485 -65.416,141.732 -63.416,141.732 -63.416,135.485 -63.416,133.732 
		-63.416,121.732 -65.416,121.732 	"/>
	<polygon points="-81.416,133.732 -81.416,135.798 -81.416,141.732 -79.416,141.732 -79.416,135.798 -79.416,133.732 
		-79.416,121.732 -81.416,121.732 	"/>
	<path d="M-56.904,112.62c-1.444-6.742-7.433-11.8-14.605-11.8c-1.799,0-3.521,0.32-5.118,0.904
		c-0.949-5.108-5.404-8.98-10.788-8.98c-0.413,0-0.819,0.027-1.222,0.071c0.744,1.112,1.179,2.448,1.179,3.886c0,3.865-3.134,7-7,7
		c-1.438,0-2.773-0.435-3.886-1.179c-0.044,0.401-0.071,0.809-0.071,1.222c0,3.712,1.845,6.987,4.661,8.979
		c-1.653,1.907-2.661,4.389-2.661,7.111c0,5.983,4.836,10.836,10.813,10.865v0.003h1.188v-2h-0.721l-0.457-0.003
		c-4.864-0.023-8.822-4.001-8.822-8.865c0-4.89,3.978-8.868,8.867-8.868c0.15,0,0.299,0.012,0.447,0.022l0.148,0.01l1.314,0.085
		l0.597-1.175c2.225-4.372,6.644-7.089,11.532-7.089c6.062,0,11.382,4.298,12.649,10.219l0.318,1.483l1.514,0.094
		c3.708,0.23,6.612,3.319,6.612,7.03c0,3.878-3.144,7.035-7.017,7.057c-0.042-0.003-0.079-0.005-0.117-0.005l-2.047,0.005h-0.819v2
		h2.819v-0.006c0.042,0.001,0.082,0.006,0.124,0.006c5.001,0,9.057-4.054,9.057-9.057C-48.416,116.837-52.17,112.915-56.904,112.62z
		 M-84.824,109.003c-0.241-0.016-0.48-0.036-0.725-0.036c-2.537,0-4.865,0.876-6.715,2.334c-2.012-1.294-3.486-3.354-3.976-5.776
		c0.582,0.117,1.178,0.177,1.78,0.177c4.963,0,9-4.037,9-9c0-0.603-0.06-1.198-0.177-1.78c3.733,0.753,6.629,3.824,7.134,7.641
		C-81.215,104.005-83.43,106.261-84.824,109.003z"/>
</g>
<g>
	<polygon points="143.619,138.677 136.736,128.847 135.099,129.994 141.981,139.824 143.094,141.413 146.569,146.377 
		148.208,145.23 144.732,140.266 	"/>
	<polygon points="151.621,138.675 144.736,128.847 143.099,129.995 149.984,139.823 150.989,141.259 154.573,146.374 
		156.212,145.228 152.628,140.111 	"/>
	<polygon points="135.619,138.677 128.736,128.847 127.099,129.995 133.981,139.824 135.166,141.517 138.57,146.378 140.208,145.23 
		136.805,140.369 	"/>
	<rect x="123.099" y="91.128" width="2" height="7.973"/>
	<rect x="104.099" y="110.042" width="7.973" height="2"/>
	<rect x="108.772" y="98.775" transform="matrix(0.7071 0.7071 -0.7071 0.7071 103.5781 -50.509)" width="7.974" height="2"/>
	<rect x="134.28" y="95.794" transform="matrix(0.7071 0.7071 -0.7071 0.7071 110.1773 -66.4329)" width="2" height="7.972"/>
	<path d="M153.61,116.918c-1.444-6.742-7.433-11.8-14.605-11.8c-2.185,0-4.258,0.47-6.126,1.313
		c-1.667-3.202-5.007-5.394-8.866-5.394c-5.522,0-10,4.477-10,9.999c0,2.46,0.899,4.702,2.373,6.442
		c-1.429,1.84-2.287,4.144-2.287,6.653c0,5.983,4.836,10.836,10.813,10.865v0.003h1.188v-2h-0.721l-0.457-0.003
		c-4.864-0.023-8.822-4.001-8.822-8.865c0-4.89,3.978-8.868,8.867-8.868c0.15,0,0.299,0.012,0.447,0.022l0.148,0.01l1.314,0.085
		l0.597-1.175c2.225-4.372,6.644-7.089,11.532-7.089c6.062,0,11.382,4.298,12.649,10.219l0.318,1.483l1.514,0.094
		c3.708,0.23,6.612,3.319,6.612,7.03c0,3.878-3.144,7.035-7.017,7.057c-0.042-0.003-0.079-0.005-0.117-0.005l-0.047,0.005h-0.819v2
		h0.819v-0.006c0.042,0.001,0.082,0.006,0.124,0.006c5.001,0,9.057-4.054,9.057-9.057
		C162.099,121.135,158.345,117.213,153.61,116.918z M125.69,113.301c-0.241-0.016-0.48-0.036-0.725-0.036
		c-2.766,0-5.282,1.042-7.2,2.743c-1.092-1.367-1.753-3.09-1.753-4.971c0-4.41,3.589-7.999,8-7.999c3.091,0,5.76,1.773,7.091,4.345
		C128.806,108.822,126.926,110.871,125.69,113.301z"/>
</g>
<g>
	<polygon points="-579.812,235.162 -586.694,225.332 -588.332,226.479 -581.449,236.31 -580.337,237.898 -576.861,242.862 
		-575.223,241.716 -578.698,236.751 	"/>
	<polygon points="-571.81,235.16 -578.694,225.332 -580.332,226.48 -573.446,236.309 -572.441,237.744 -568.857,242.859 
		-567.219,241.713 -570.803,236.597 	"/>
	<polygon points="-587.812,235.162 -594.694,225.332 -596.332,226.48 -589.449,236.31 -588.265,238.002 -584.86,242.863 
		-583.223,241.716 -586.626,236.854 	"/>
	<path d="M-569.82,213.403c-1.444-6.742-7.433-11.8-14.605-11.8c-1.799,0-3.522,0.32-5.118,0.904
		c-0.949-5.108-5.404-8.98-10.788-8.98c-0.413,0-0.819,0.027-1.222,0.071c0.744,1.112,1.179,2.448,1.179,3.886c0,3.865-3.134,7-7,7
		c-1.438,0-2.773-0.435-3.886-1.179c-0.044,0.401-0.071,0.809-0.071,1.222c0,3.712,1.845,6.987,4.661,8.979
		c-1.653,1.907-2.661,4.389-2.661,7.111c0,5.983,4.836,10.836,10.813,10.865v0.003h1.188v-2h-0.721l-0.457-0.003
		c-4.864-0.023-8.822-4.001-8.822-8.865c0-4.89,3.978-8.868,8.867-8.868c0.15,0,0.299,0.012,0.447,0.022l0.148,0.01l1.314,0.085
		l0.597-1.175c2.225-4.372,6.644-7.089,11.532-7.089c6.062,0,11.382,4.298,12.649,10.219l0.318,1.483l1.514,0.094
		c3.708,0.23,6.612,3.319,6.612,7.03c0,3.878-3.144,7.035-7.017,7.057c-0.042-0.003-0.079-0.005-0.117-0.005l-0.047,0.005h-0.819v2
		h0.819v-0.006c0.042,0.001,0.082,0.006,0.124,0.006c5.001,0,9.057-4.054,9.057-9.057
		C-561.332,217.62-565.086,213.698-569.82,213.403z M-597.74,209.786c-0.241-0.016-0.48-0.036-0.725-0.036
		c-2.537,0-4.865,0.876-6.715,2.334c-2.012-1.294-3.487-3.354-3.976-5.776c0.582,0.117,1.178,0.177,1.78,0.177c4.963,0,9-4.037,9-9
		c0-0.603-0.06-1.198-0.177-1.78c3.733,0.753,6.629,3.824,7.133,7.641C-594.13,204.788-596.345,207.044-597.74,209.786z"/>
</g>
<g>
	<rect x="-587.332" y="131.315" width="2" height="4"/>
	<rect x="-579.332" y="127.294" width="2" height="4.021"/>
	<rect x="-595.332" y="127.294" width="2" height="4.021"/>
	<path d="M-568.704,111.327c-1.596-7.445-8.207-13.029-16.127-13.029c-6.423,0-11.977,3.678-14.702,9.035
		c-0.266-0.018-0.53-0.04-0.8-0.04c-6.627,0-11.999,5.372-11.999,12c0,6.607,5.34,11.965,11.938,11.998v0.003h2.062v-2h-1.604
		l-0.447-0.003c-5.485-0.027-9.948-4.513-9.948-9.998c0-5.514,4.485-10,9.999-10c0.175,0,0.347,0.014,0.52,0.025l0.148,0.01
		l1.316,0.088l0.598-1.176c2.492-4.899,7.443-7.942,12.92-7.942c6.79,0,12.75,4.814,14.172,11.448l0.317,1.482l1.514,0.095
		c4.203,0.262,7.496,3.763,7.496,7.971c0,4.397-3.565,7.977-7.957,8c-0.05-0.003-0.093-0.005-0.137-0.007l-2.043,0.007h-2.863v2
		h4.863v-0.007c0.046,0.001,0.091,0.007,0.137,0.007c5.521,0,10-4.477,10-10C-559.332,115.983-563.477,111.652-568.704,111.327z"/>
	<circle cx="-578.332" cy="136.336" r="1.5"/>
	<circle cx="-586.332" cy="140.305" r="1.5"/>
	<circle cx="-594.332" cy="136.294" r="1.5"/>
</g>
<g>
	<rect x="-494.411" y="91.861" width="2" height="7.973"/>
	<rect x="-513.411" y="110.775" width="7.973" height="2"/>
	<rect x="-508.738" y="99.509" transform="matrix(0.7071 0.7071 -0.7071 0.7071 -76.7677 386.3512)" width="7.974" height="2"/>
	<rect x="-483.229" y="96.527" transform="matrix(0.7071 0.7071 -0.7071 0.7071 -70.1685 370.4272)" width="2" height="7.972"/>
	<path d="M-463.899,117.651c-1.444-6.742-7.433-11.8-14.605-11.8c-2.185,0-4.258,0.47-6.126,1.313
		c-1.667-3.202-5.007-5.394-8.866-5.394c-5.522,0-10,4.477-10,9.999c0,2.46,0.899,4.702,2.373,6.442
		c-1.429,1.84-2.287,4.144-2.287,6.653c0,5.983,4.836,10.836,10.813,10.865v0.003h1.188v-2h-0.721l-0.457-0.003
		c-4.864-0.023-8.822-4.001-8.822-8.865c0-4.89,3.978-8.868,8.867-8.868c0.15,0,0.299,0.012,0.447,0.022l0.148,0.01l1.314,0.085
		l0.597-1.175c2.225-4.372,6.644-7.089,11.532-7.089c6.062,0,11.382,4.298,12.649,10.219l0.318,1.483l1.514,0.094
		c3.708,0.23,6.612,3.319,6.612,7.03c0,3.878-3.144,7.035-7.017,7.057c-0.042-0.003-0.079-0.005-0.117-0.005l-2.047,0.005h-0.819v2
		h2.819v-0.006c0.042,0.001,0.082,0.006,0.124,0.006c5.001,0,9.057-4.054,9.057-9.057
		C-455.411,121.868-459.165,117.946-463.899,117.651z M-491.819,114.034c-0.241-0.016-0.48-0.036-0.725-0.036
		c-2.766,0-5.282,1.042-7.2,2.743c-1.092-1.367-1.753-3.09-1.753-4.971c0-4.41,3.589-7.999,8-7.999c3.091,0,5.76,1.773,7.091,4.345
		C-488.704,109.556-490.584,111.604-491.819,114.034z"/>
	<rect x="-480.411" y="135.75" width="2" height="4"/>
	<rect x="-472.411" y="131.729" width="2" height="4.021"/>
	<rect x="-488.411" y="131.729" width="2" height="4.021"/>
	<circle cx="-471.411" cy="140.771" r="1.5"/>
	<circle cx="-479.411" cy="144.739" r="1.5"/>
	<circle cx="-487.411" cy="140.729" r="1.5"/>
</g>
<g>
	<path d="M-362.974,116.694c-1.444-6.742-7.433-11.8-14.605-11.8c-1.799,0-3.522,0.32-5.118,0.904
		c-0.949-5.108-5.404-8.98-10.788-8.98c-0.413,0-0.819,0.027-1.222,0.071c0.744,1.112,1.179,2.448,1.179,3.886c0,3.865-3.134,7-7,7
		c-1.438,0-2.773-0.435-3.886-1.179c-0.044,0.401-0.071,0.809-0.071,1.222c0,3.712,1.845,6.987,4.661,8.979
		c-1.653,1.907-2.661,4.389-2.661,7.111c0,5.983,4.836,10.836,10.813,10.865v0.003h1.188v-2h-0.721l-0.457-0.003
		c-4.864-0.023-8.822-4.001-8.822-8.865c0-4.89,3.978-8.868,8.867-8.868c0.15,0,0.299,0.012,0.447,0.022l0.148,0.01l1.314,0.085
		l0.597-1.175c2.225-4.372,6.644-7.089,11.532-7.089c6.062,0,11.382,4.298,12.649,10.219l0.318,1.483l1.514,0.094
		c3.708,0.23,6.612,3.319,6.612,7.03c0,3.878-3.144,7.035-7.017,7.057c-0.042-0.003-0.079-0.005-0.117-0.005l-2.047,0.005h-0.819v2
		h2.819v-0.006c0.042,0.001,0.082,0.006,0.124,0.006c5.001,0,9.057-4.054,9.057-9.057
		C-354.485,120.911-358.239,116.989-362.974,116.694z M-390.894,113.077c-0.241-0.016-0.48-0.036-0.725-0.036
		c-2.537,0-4.865,0.876-6.715,2.334c-2.012-1.294-3.487-3.354-3.976-5.776c0.582,0.117,1.178,0.177,1.78,0.177c4.963,0,9-4.037,9-9
		c0-0.603-0.06-1.198-0.177-1.78c3.733,0.753,6.629,3.824,7.133,7.641C-387.283,108.079-389.498,110.335-390.894,113.077z"/>
	<rect x="-379.485" y="134.793" width="2" height="4"/>
	<rect x="-371.485" y="130.771" width="2" height="4.021"/>
	<rect x="-387.485" y="130.771" width="2" height="4.021"/>
	<circle cx="-370.485" cy="139.813" r="1.5"/>
	<circle cx="-378.485" cy="143.782" r="1.5"/>
	<circle cx="-386.485" cy="139.771" r="1.5"/>
</g>
<g>
	<path d="M-466.283,209.725c-1.596-7.445-8.207-13.029-16.127-13.029c-6.423,0-11.977,3.678-14.702,9.035
		c-0.266-0.018-0.53-0.04-0.8-0.04c-6.627,0-11.999,5.372-11.999,12c0,6.607,5.34,11.965,11.938,11.998v0.003h6.062v-2h-5.604
		l-0.447-0.003c-5.485-0.027-9.948-4.513-9.948-9.998c0-5.514,4.485-10,9.999-10c0.175,0,0.347,0.014,0.52,0.025l0.148,0.01
		l1.316,0.088l0.598-1.176c2.492-4.899,7.443-7.942,12.92-7.942c6.79,0,12.75,4.814,14.172,11.448l0.317,1.482l1.514,0.095
		c4.203,0.262,7.496,3.763,7.496,7.971c0,4.397-3.565,7.977-7.957,8c-0.05-0.003-0.093-0.005-0.137-0.007l-5.043,0.007h0.137v2
		h4.863v-0.007c0.046,0.001,0.091,0.007,0.137,0.007c5.521,0,10-4.477,10-10C-456.911,214.381-461.056,210.05-466.283,209.725z"/>
	<polygon points="-482.069,229.695 -480.3,229.695 -479.869,229.695 -477.859,229.695 -484.273,220.534 -485.911,221.682 
		-481.7,227.695 -483.471,227.695 -485.911,227.695 -484.64,229.512 -483.527,231.101 -477.55,239.695 -475.911,238.549 
		-481.889,229.953 	"/>
</g>
<g>
	<rect x="-390.485" y="190.595" width="2" height="7.973"/>
	<rect x="-409.485" y="209.509" width="7.973" height="2"/>
	<rect x="-404.812" y="198.242" transform="matrix(0.7071 0.7071 -0.7071 0.7071 23.4865 341.7829)" width="7.974" height="2"/>
	<rect x="-379.304" y="195.26" transform="matrix(0.7071 0.7071 -0.7071 0.7071 30.0857 325.8589)" width="2" height="7.972"/>
	<path d="M-359.974,216.385c-1.444-6.742-7.433-11.8-14.605-11.8c-2.185,0-4.258,0.47-6.127,1.313
		c-1.666-3.202-5.006-5.394-8.865-5.394c-5.522,0-10,4.477-10,9.999c0,2.46,0.898,4.702,2.373,6.442
		c-1.428,1.84-2.287,4.144-2.287,6.653c0,5.983,4.836,10.836,10.813,10.865v0.003h4.188v-2h-3.721l-0.457-0.003
		c-4.864-0.023-8.822-4.001-8.822-8.865c0-4.89,3.978-8.868,8.867-8.868c0.15,0,0.299,0.012,0.447,0.022l0.148,0.01l1.314,0.085
		l0.597-1.175c2.225-4.372,6.644-7.089,11.532-7.089c6.062,0,11.382,4.298,12.649,10.219l0.318,1.483l1.514,0.094
		c3.708,0.23,6.612,3.319,6.612,7.03c0,3.878-3.144,7.035-7.017,7.057c-0.042-0.003-0.079-0.005-0.117-0.005l-2.047,0.005h-3.819v2
		h5.819v-0.006c0.042,0.001,0.082,0.006,0.124,0.006c5.001,0,9.057-4.054,9.057-9.057
		C-351.485,220.602-355.239,216.68-359.974,216.385z M-387.894,212.768c-0.241-0.016-0.48-0.036-0.725-0.036
		c-2.766,0-5.281,1.041-7.2,2.743c-1.092-1.366-1.753-3.09-1.753-4.971c0-4.41,3.589-7.999,8-7.999c3.092,0,5.76,1.773,7.092,4.345
		C-384.778,208.29-386.657,210.338-387.894,212.768z"/>
	<polygon points="-375.644,234.475 -373.874,234.475 -373.443,234.475 -371.434,234.475 -377.848,225.313 -379.485,226.461 
		-375.274,232.475 -377.045,232.475 -379.485,232.475 -378.214,234.291 -377.102,235.88 -371.124,244.475 -369.485,243.328 
		-375.463,234.732 	"/>
</g>
<g>
	<path d="M-260.389,214.089c-1.444-6.742-7.433-11.8-14.605-11.8c-1.799,0-3.521,0.32-5.118,0.904
		c-0.949-5.108-5.404-8.98-10.788-8.98c-0.413,0-0.819,0.027-1.222,0.071c0.744,1.112,1.179,2.448,1.179,3.886c0,3.865-3.134,7-7,7
		c-1.438,0-2.773-0.435-3.886-1.179c-0.044,0.401-0.071,0.809-0.071,1.222c0,3.712,1.845,6.987,4.661,8.979
		c-1.653,1.907-2.661,4.389-2.661,7.111c0,5.983,4.836,10.836,10.813,10.865v0.003h4.188v-2h-3.721l-0.457-0.003
		c-4.864-0.023-8.822-4.001-8.822-8.865c0-4.89,3.978-8.868,8.867-8.868c0.15,0,0.299,0.012,0.447,0.022l0.148,0.01l1.314,0.085
		l0.597-1.175c2.225-4.372,6.644-7.089,11.532-7.089c6.062,0,11.382,4.298,12.649,10.219l0.318,1.483l1.514,0.094
		c3.708,0.23,6.612,3.319,6.612,7.03c0,3.878-3.144,7.035-7.017,7.057c-0.042-0.003-0.079-0.005-0.117-0.005l-2.047,0.005h-3.819v2
		h5.819v-0.006c0.042,0.001,0.082,0.006,0.124,0.006c5.001,0,9.057-4.054,9.057-9.057
		C-251.9,218.306-255.654,214.384-260.389,214.089z M-288.309,210.472c-0.241-0.016-0.48-0.036-0.725-0.036
		c-2.537,0-4.865,0.876-6.715,2.334c-2.012-1.294-3.486-3.354-3.976-5.776c0.582,0.117,1.178,0.177,1.78,0.177c4.963,0,9-4.037,9-9
		c0-0.603-0.06-1.198-0.177-1.78c3.733,0.753,6.629,3.824,7.134,7.64C-284.699,205.474-286.914,207.729-288.309,210.472z"/>
	<polygon points="-276.059,232.179 -274.289,232.179 -273.858,232.179 -271.849,232.179 -278.263,223.018 -279.9,224.165 
		-275.689,230.179 -277.46,230.179 -279.9,230.179 -278.629,231.995 -277.517,233.584 -271.539,242.179 -269.9,241.032 
		-275.878,232.437 	"/>
</g>
<g>
	<path d="M-159.504,210.225c-1.596-7.445-8.207-13.029-16.127-13.029c-6.423,0-11.977,3.678-14.702,9.035
		c-0.266-0.018-0.53-0.04-0.8-0.04c-6.627,0-11.999,5.372-11.999,12c0,6.607,5.34,11.965,11.938,11.998v0.003h1.062v-2h-0.604
		l-0.447-0.003c-5.485-0.027-9.948-4.513-9.948-9.998c0-5.514,4.485-10,9.999-10c0.175,0,0.347,0.014,0.52,0.025l0.148,0.01
		l1.316,0.088l0.598-1.176c2.492-4.899,7.443-7.942,12.92-7.942c6.79,0,12.75,4.814,14.172,11.448l0.317,1.482l1.514,0.095
		c4.203,0.262,7.496,3.763,7.496,7.971c0,4.397-3.565,7.977-7.957,8c-0.05-0.003-0.093-0.005-0.137-0.007l-0.906,0.007v2h0.863
		v-0.007c0.046,0.001,0.091,0.007,0.137,0.007c5.521,0,10-4.477,10-10C-150.132,214.881-154.276,210.55-159.504,210.225z"/>
	
		<rect x="-190.697" y="228.19" transform="matrix(-0.5736 -0.8191 0.8191 -0.5736 -479.0205 209.0386)" width="11.183" height="1.999"/>
	
		<rect x="-172.723" y="228.19" transform="matrix(-0.5736 -0.8191 0.8191 -0.5736 -450.735 223.7617)" width="11.183" height="1.999"/>
	<polygon points="-174.29,233.195 -172.521,233.195 -172.09,233.195 -170.08,233.195 -176.494,224.034 -178.132,225.182 
		-173.921,231.195 -175.691,231.195 -178.132,231.195 -176.86,233.012 -175.748,234.601 -171.132,241.195 -169.493,240.049 
		-174.109,233.453 	"/>
</g>
<g>
	<rect x="-84.656" y="190.758" width="2" height="7.973"/>
	<rect x="-103.656" y="209.672" width="7.973" height="2"/>
	<rect x="-98.983" y="198.405" transform="matrix(0.7071 0.7071 -0.7071 0.7071 113.1771 125.5768)" width="7.974" height="2"/>
	<rect x="-73.475" y="195.423" transform="matrix(0.7071 0.7071 -0.7071 0.7071 119.7763 109.6529)" width="2" height="7.972"/>
	<path d="M-54.145,216.548c-1.444-6.742-7.433-11.8-14.605-11.8c-2.185,0-4.258,0.47-6.126,1.313
		c-1.667-3.202-5.007-5.394-8.866-5.394c-5.522,0-10,4.477-10,9.999c0,2.46,0.899,4.702,2.373,6.442
		c-1.429,1.84-2.287,4.144-2.287,6.653c0,5.983,4.836,10.836,10.813,10.865v0.003h0.188v-2l-0.178-0.003
		c-4.864-0.023-8.822-4.001-8.822-8.865c0-4.89,3.978-8.868,8.867-8.868c0.15,0,0.299,0.012,0.447,0.022l0.148,0.01l1.314,0.085
		l0.597-1.175c2.225-4.372,6.644-7.089,11.532-7.089c6.062,0,11.382,4.298,12.649,10.219l0.318,1.483l1.514,0.094
		c3.708,0.23,6.612,3.319,6.612,7.03c0,3.878-3.144,7.035-7.017,7.057c-0.042-0.003-0.079-0.005-0.117-0.005l-0.866,0.005v2h0.819
		v-0.006c0.042,0.001,0.082,0.006,0.124,0.006c5.001,0,9.057-4.054,9.057-9.057C-45.656,220.765-49.41,216.843-54.145,216.548z
		 M-82.064,212.931c-0.241-0.016-0.48-0.036-0.725-0.036c-2.766,0-5.282,1.042-7.2,2.743c-1.092-1.367-1.753-3.09-1.753-4.971
		c0-4.41,3.589-7.999,8-7.999c3.091,0,5.76,1.773,7.091,4.345C-78.949,208.452-80.829,210.501-82.064,212.931z"/>
	
		<rect x="-84.235" y="232.628" transform="matrix(-0.5736 -0.8191 0.8191 -0.5736 -315.122 303.2278)" width="11.183" height="1.999"/>
	
		<rect x="-66.26" y="232.628" transform="matrix(-0.5736 -0.8191 0.8191 -0.5736 -286.8365 317.951)" width="11.183" height="1.999"/>
	<polygon points="-67.827,237.634 -66.058,237.634 -65.627,237.634 -63.617,237.634 -70.031,228.473 -71.669,229.62 
		-67.458,235.634 -69.229,235.634 -71.669,235.634 -70.397,237.45 -69.285,239.039 -64.669,245.634 -63.03,244.487 -67.646,237.892 
			"/>
</g>
<g>
	<path d="M47.693,213.59c-1.444-6.742-7.433-11.8-14.605-11.8c-1.799,0-3.522,0.32-5.118,0.904c-0.949-5.108-5.404-8.98-10.788-8.98
		c-0.413,0-0.819,0.027-1.222,0.071c0.744,1.112,1.179,2.448,1.179,3.886c0,3.865-3.134,7-7,7c-1.438,0-2.773-0.435-3.886-1.179
		c-0.044,0.401-0.071,0.809-0.071,1.222c0,3.712,1.845,6.987,4.661,8.979c-1.653,1.907-2.661,4.389-2.661,7.111
		c0,5.983,4.836,10.836,10.813,10.865v0.003h0.188v-2l-0.178-0.003c-4.864-0.023-8.822-4.001-8.822-8.865
		c0-4.89,3.978-8.868,8.867-8.868c0.15,0,0.299,0.012,0.447,0.022l0.148,0.01l1.314,0.085l0.597-1.175
		c2.225-4.372,6.644-7.089,11.532-7.089c6.062,0,11.382,4.298,12.649,10.219l0.318,1.483l1.514,0.094
		c3.708,0.23,6.612,3.319,6.612,7.03c0,3.878-3.144,7.035-7.017,7.057c-0.042-0.003-0.079-0.005-0.117-0.005l-0.866,0.005v2h0.819
		v-0.006c0.042,0.001,0.082,0.006,0.124,0.006c5.001,0,9.057-4.054,9.057-9.057C56.182,217.807,52.428,213.885,47.693,213.59z
		 M19.773,209.973c-0.241-0.016-0.48-0.036-0.725-0.036c-2.537,0-4.865,0.876-6.715,2.334c-2.012-1.294-3.487-3.354-3.976-5.776
		c0.582,0.117,1.178,0.177,1.78,0.177c4.963,0,9-4.037,9-9c0-0.603-0.06-1.198-0.177-1.78c3.733,0.753,6.629,3.824,7.133,7.641
		C23.384,204.975,21.169,207.23,19.773,209.973z"/>
	
		<rect x="17.602" y="229.67" transform="matrix(-0.5736 -0.8191 0.8191 -0.5736 -152.4446 381.9885)" width="11.183" height="1.999"/>
	
		<rect x="35.577" y="229.67" transform="matrix(-0.5736 -0.8191 0.8191 -0.5736 -124.1591 396.7117)" width="11.183" height="1.999"/>
	<polygon points="34.01,234.676 35.779,234.676 36.21,234.676 38.22,234.676 31.806,225.515 30.168,226.662 34.379,232.676 
		32.608,232.676 30.168,232.676 31.439,234.492 32.552,236.081 37.168,242.676 38.807,241.529 34.19,234.934 	"/>
</g>
<g>
	<g>
		<path d="M-362.869,300.045c-1.596-7.445-8.207-13.029-16.127-13.029c-6.423,0-11.977,3.678-14.702,9.035
			c-0.266-0.018-0.53-0.04-0.8-0.04c-6.627,0-11.999,5.372-11.999,12c0,6.607,5.34,11.965,11.938,11.998v0.003h2.062v-2h-1.604
			l-0.447-0.003c-5.485-0.027-9.948-4.513-9.948-9.998c0-5.514,4.485-10,9.999-10c0.175,0,0.347,0.014,0.52,0.025l0.148,0.01
			l1.316,0.088l0.598-1.176c2.492-4.899,7.443-7.942,12.92-7.942c6.79,0,12.75,4.814,14.172,11.448l0.317,1.482l1.514,0.095
			c4.203,0.262,7.496,3.763,7.496,7.971c0,4.397-3.565,7.977-7.957,8c-0.05-0.003-0.093-0.005-0.137-0.007l-2.043,0.007h-2.863v2
			h4.863v-0.007c0.046,0.001,0.091,0.007,0.137,0.007c5.521,0,10-4.477,10-10C-353.497,304.701-357.642,300.37-362.869,300.045z"/>
	</g>
	<g>
		<circle cx="-387.997" cy="313.588" r="1.5"/>
	</g>
	<g>
		<circle cx="-383.997" cy="319.512" r="1.5"/>
	</g>
	<g>
		<circle cx="-375.997" cy="319.512" r="1.5"/>
	</g>
	<g>
		<circle cx="-379.997" cy="313.588" r="1.5"/>
	</g>
	<g>
		<circle cx="-371.997" cy="313.588" r="1.5"/>
	</g>
	<g>
		<circle cx="-387.997" cy="325.533" r="1.5"/>
	</g>
	<g>
		<circle cx="-379.997" cy="325.533" r="1.5"/>
	</g>
	<g>
		<circle cx="-371.997" cy="325.533" r="1.5"/>
	</g>
</g>
<g>
	<g>
		<rect x="-287.083" y="284.567" width="2" height="7.973"/>
	</g>
	<g>
		<rect x="-306.083" y="303.481" width="7.973" height="2"/>
	</g>
	<g>
		<rect x="-301.41" y="292.215" transform="matrix(0.7071 0.7071 -0.7071 0.7071 120.2211 296.1904)" width="7.974" height="2"/>
	</g>
	<g>
		<rect x="-275.901" y="289.233" transform="matrix(0.7071 0.7071 -0.7071 0.7071 126.8202 280.2664)" width="2" height="7.972"/>
	</g>
	<g>
		<path d="M-256.571,310.357c-1.444-6.742-7.433-11.8-14.605-11.8c-2.185,0-4.258,0.47-6.127,1.313
			c-1.666-3.202-5.006-5.394-8.865-5.394c-5.522,0-10,4.477-10,9.999c0,2.46,0.898,4.702,2.373,6.442
			c-1.428,1.84-2.287,4.144-2.287,6.653c0,5.983,4.836,10.836,10.813,10.865v0.003h1.188v-2h-0.721l-0.457-0.003
			c-4.864-0.023-8.822-4.001-8.822-8.865c0-4.89,3.978-8.868,8.867-8.868c0.15,0,0.299,0.012,0.447,0.022l0.148,0.01l1.314,0.085
			l0.597-1.175c2.225-4.372,6.644-7.089,11.532-7.089c6.062,0,11.382,4.298,12.649,10.219l0.318,1.483l1.514,0.094
			c3.708,0.23,6.612,3.319,6.612,7.03c0,3.878-3.144,7.035-7.017,7.057c-0.042-0.003-0.079-0.005-0.117-0.005l-2.047,0.005h-1.819v2
			h3.819v-0.006c0.042,0.001,0.082,0.006,0.124,0.006c5.001,0,9.057-4.054,9.057-9.057
			C-248.083,314.574-251.837,310.652-256.571,310.357z M-284.491,306.74c-0.241-0.016-0.48-0.036-0.725-0.036
			c-2.766,0-5.281,1.042-7.2,2.743c-1.092-1.367-1.753-3.09-1.753-4.971c0-4.41,3.589-7.999,8-7.999c3.092,0,5.76,1.773,7.092,4.345
			C-281.376,302.262-283.255,304.311-284.491,306.74z"/>
	</g>
	<g>
		<circle cx="-280.594" cy="321.951" r="1.5"/>
	</g>
	<g>
		<circle cx="-276.594" cy="327.951" r="1.5"/>
	</g>
	<g>
		<circle cx="-268.594" cy="327.951" r="1.5"/>
	</g>
	<g>
		<circle cx="-272.594" cy="321.951" r="1.5"/>
	</g>
	<g>
		<circle cx="-264.594" cy="321.951" r="1.5"/>
	</g>
	<g>
		<circle cx="-280.594" cy="333.973" r="1.5"/>
	</g>
	<g>
		<circle cx="-272.594" cy="333.973" r="1.5"/>
	</g>
	<g>
		<circle cx="-264.594" cy="333.973" r="1.5"/>
	</g>
</g>
<g>
	<g>
		<path d="M-160.62,306.401c-1.444-6.742-7.433-11.8-14.605-11.8c-1.799,0-3.521,0.32-5.118,0.904
			c-0.949-5.108-5.404-8.98-10.788-8.98c-0.413,0-0.819,0.027-1.222,0.071c0.744,1.112,1.179,2.448,1.179,3.886c0,3.865-3.134,7-7,7
			c-1.438,0-2.773-0.435-3.886-1.179c-0.044,0.401-0.071,0.809-0.071,1.222c0,3.712,1.845,6.987,4.661,8.979
			c-1.653,1.907-2.661,4.389-2.661,7.111c0,5.983,4.836,10.836,10.813,10.865v0.003h1.188v-2h-0.721l-0.457-0.003
			c-4.864-0.023-8.822-4.001-8.822-8.865c0-4.89,3.978-8.868,8.867-8.868c0.15,0,0.299,0.012,0.447,0.022l0.148,0.01l1.314,0.085
			l0.597-1.175c2.225-4.372,6.644-7.089,11.532-7.089c6.062,0,11.382,4.298,12.649,10.219l0.318,1.483l1.514,0.094
			c3.708,0.23,6.612,3.319,6.612,7.03c0,3.878-3.144,7.035-7.017,7.057c-0.042-0.003-0.079-0.005-0.117-0.005l-2.047,0.005h-1.819v2
			h3.819v-0.006c0.042,0.001,0.082,0.006,0.124,0.006c5.001,0,9.057-4.054,9.057-9.057
			C-152.132,310.618-155.886,306.696-160.62,306.401z M-188.54,302.784c-0.241-0.016-0.48-0.036-0.725-0.036
			c-2.537,0-4.865,0.876-6.715,2.334c-2.012-1.294-3.486-3.354-3.976-5.776c0.582,0.117,1.178,0.177,1.78,0.177c4.963,0,9-4.037,9-9
			c0-0.603-0.06-1.198-0.177-1.78c3.733,0.753,6.629,3.824,7.134,7.64C-184.931,297.786-187.146,300.041-188.54,302.784z"/>
	</g>
	<g>
		<circle cx="-184.632" cy="317.994" r="1.5"/>
	</g>
	<g>
		<circle cx="-180.632" cy="323.994" r="1.5"/>
	</g>
	<g>
		<circle cx="-172.632" cy="323.994" r="1.5"/>
	</g>
	<g>
		<circle cx="-176.632" cy="317.994" r="1.5"/>
	</g>
	<g>
		<circle cx="-168.632" cy="317.994" r="1.5"/>
	</g>
	<g>
		<circle cx="-184.632" cy="330.016" r="1.5"/>
	</g>
	<g>
		<circle cx="-176.632" cy="330.016" r="1.5"/>
	</g>
	<g>
		<circle cx="-168.632" cy="330.016" r="1.5"/>
	</g>
</g>
<g>
	<path d="M150.545,207.516c-1.596-7.445-8.207-13.029-16.127-13.029c-6.423,0-11.977,3.678-14.702,9.035
		c-0.266-0.018-0.53-0.04-0.8-0.04c-6.627,0-11.999,5.372-11.999,12c0,6.607,5.34,11.965,11.938,11.998v0.003h2.062v-2h-1.604
		l-0.447-0.003c-5.485-0.027-9.948-4.513-9.948-9.998c0-5.514,4.485-10,9.999-10c0.175,0,0.347,0.014,0.52,0.025l0.148,0.01
		l1.316,0.088l0.598-1.176c2.492-4.899,7.443-7.942,12.92-7.942c6.79,0,12.75,4.814,14.172,11.448l0.317,1.482l1.514,0.095
		c4.203,0.262,7.496,3.763,7.496,7.971c0,4.397-3.565,7.977-7.957,8c-0.05-0.003-0.093-0.005-0.137-0.007l-2.043,0.007h-2.863v2
		h4.863v-0.007c0.046,0.001,0.091,0.007,0.137,0.007c5.521,0,10-4.477,10-10C159.917,212.172,155.772,207.841,150.545,207.516z"/>
	<circle cx="124.917" cy="234.986" r="1.5"/>
	<circle cx="132.917" cy="240.986" r="1.5"/>
	<circle cx="140.917" cy="236.986" r="1.5"/>
	<rect x="123.917" y="218.511" width="2" height="11.976"/>
	<polygon points="133.917,236.451 133.917,234.511 133.917,222.511 131.917,222.511 131.917,234.511 131.917,236.451 
		131.917,236.486 133.917,236.486 	"/>
	<polygon points="141.917,232.264 141.917,230.511 141.917,218.511 139.917,218.511 139.917,230.511 139.917,232.264 
		139.917,232.486 141.917,232.486 	"/>
</g>
<g>
	<rect x="-597.832" y="279.129" width="2" height="7.973"/>
	<rect x="-616.832" y="298.043" width="7.973" height="2"/>
	<rect x="-612.159" y="286.776" transform="matrix(0.7071 0.7071 -0.7071 0.7071 25.3592 514.3302)" width="7.974" height="2"/>
	<rect x="-586.65" y="283.795" transform="matrix(0.7071 0.7071 -0.7071 0.7071 31.9584 498.4063)" width="2" height="7.972"/>
	<path d="M-567.32,304.919c-1.444-6.742-7.433-11.8-14.605-11.8c-2.185,0-4.258,0.47-6.126,1.313
		c-1.667-3.202-5.007-5.394-8.866-5.394c-5.522,0-10,4.477-10,9.999c0,2.46,0.899,4.702,2.373,6.442
		c-1.429,1.84-2.287,4.144-2.287,6.653c0,5.983,4.836,10.836,10.813,10.865v0.003h1.188v-2h-0.721l-0.457-0.003
		c-4.864-0.023-8.822-4.001-8.822-8.865c0-4.89,3.978-8.868,8.867-8.868c0.15,0,0.299,0.012,0.447,0.022l0.148,0.01l1.314,0.085
		l0.597-1.175c2.225-4.372,6.644-7.089,11.532-7.089c6.062,0,11.382,4.298,12.649,10.219l0.318,1.483l1.514,0.094
		c3.708,0.23,6.612,3.319,6.612,7.03c0,3.878-3.144,7.035-7.017,7.057c-0.042-0.003-0.079-0.005-0.117-0.005l-2.047,0.005h-0.819v2
		h2.819v-0.006c0.042,0.001,0.082,0.006,0.124,0.006c5.001,0,9.057-4.054,9.057-9.057
		C-558.832,309.136-562.586,305.214-567.32,304.919z M-595.24,301.302c-0.241-0.016-0.48-0.036-0.725-0.036
		c-2.766,0-5.282,1.041-7.2,2.743c-1.092-1.366-1.753-3.09-1.753-4.971c0-4.41,3.589-7.999,8-7.999c3.091,0,5.76,1.773,7.091,4.345
		C-592.125,296.824-594.005,298.872-595.24,301.302z"/>
	<circle cx="-590.842" cy="331.489" r="1.5"/>
	<circle cx="-582.842" cy="337.489" r="1.5"/>
	<circle cx="-574.842" cy="333.489" r="1.5"/>
	<rect x="-591.842" y="315.014" width="2" height="11.976"/>
	<polygon points="-581.842,332.954 -581.842,331.014 -581.842,319.014 -583.842,319.014 -583.842,331.014 -583.842,332.954 
		-583.842,332.989 -581.842,332.989 	"/>
	<polygon points="-573.842,328.767 -573.842,327.014 -573.842,315.014 -575.842,315.014 -575.842,327.014 -575.842,328.767 
		-575.842,328.989 -573.842,328.989 	"/>
</g>
<g>
	<path d="M-466.718,301.921c-1.444-6.742-7.433-11.8-14.605-11.8c-1.799,0-3.522,0.32-5.118,0.904
		c-0.949-5.108-5.404-8.98-10.788-8.98c-0.413,0-0.819,0.027-1.222,0.071c0.744,1.112,1.179,2.448,1.179,3.886c0,3.865-3.134,7-7,7
		c-1.438,0-2.773-0.435-3.886-1.179c-0.044,0.401-0.071,0.809-0.071,1.222c0,3.712,1.845,6.987,4.661,8.979
		c-1.653,1.907-2.661,4.389-2.661,7.111c0,5.983,4.836,10.836,10.813,10.865v0.003h1.188v-2h-0.721l-0.457-0.003
		c-4.864-0.023-8.822-4.001-8.822-8.865c0-4.89,3.978-8.868,8.867-8.868c0.15,0,0.299,0.012,0.447,0.022l0.148,0.01l1.314,0.085
		l0.597-1.175c2.225-4.372,6.644-7.089,11.532-7.089c6.062,0,11.382,4.298,12.649,10.219l0.318,1.483l1.514,0.094
		c3.708,0.23,6.612,3.319,6.612,7.03c0,3.878-3.144,7.035-7.017,7.057c-0.042-0.003-0.079-0.005-0.117-0.005l-2.047,0.005h-0.819v2
		h2.819v-0.006c0.042,0.001,0.082,0.006,0.124,0.006c5.001,0,9.057-4.054,9.057-9.057
		C-458.229,306.138-461.983,302.216-466.718,301.921z M-494.638,298.304c-0.241-0.016-0.48-0.036-0.725-0.036
		c-2.537,0-4.865,0.876-6.715,2.334c-2.012-1.294-3.487-3.354-3.976-5.776c0.582,0.117,1.178,0.177,1.78,0.177c4.963,0,9-4.037,9-9
		c0-0.603-0.06-1.198-0.177-1.78c3.733,0.753,6.629,3.824,7.133,7.64C-491.027,293.306-493.242,295.561-494.638,298.304z"/>
	<circle cx="-490.229" cy="328.495" r="1.5"/>
	<circle cx="-482.229" cy="334.495" r="1.5"/>
	<circle cx="-474.229" cy="330.495" r="1.5"/>
	<rect x="-491.229" y="312.02" width="2" height="11.976"/>
	<polygon points="-481.229,329.96 -481.229,328.02 -481.229,316.02 -483.229,316.02 -483.229,328.02 -483.229,329.96 
		-483.229,329.995 -481.229,329.995 	"/>
	<polygon points="-473.229,325.772 -473.229,324.02 -473.229,312.02 -475.229,312.02 -475.229,324.02 -475.229,325.772 
		-475.229,325.995 -473.229,325.995 	"/>
</g>
<g>
	<rect x="-614.832" y="406.361" width="56" height="2"/>
	<rect x="-610.832" y="412.361" width="50" height="2"/>
	<rect x="-604.832" y="418.361" width="36" height="2"/>
	<rect x="-612.832" y="400.361" width="52" height="2"/>
	<path d="M-600.958,392.356c0.175,0,0.347,0.014,0.519,0.025l0.149,0.01l1.316,0.088l0.598-1.176
		c2.493-4.899,7.443-7.942,12.92-7.942c6.79,0,12.75,4.814,14.171,11.448l0.318,1.482l1.514,0.095
		c1.207,0.075,2.335,0.425,3.336,0.975h3.286c-1.678-1.703-3.957-2.813-6.498-2.971c-1.596-7.445-8.207-13.029-16.127-13.029
		c-6.423,0-11.977,3.678-14.702,9.035c-0.266-0.018-0.53-0.04-0.8-0.04c-4.843,0-9.004,2.874-10.9,7.005h2.251
		C-607.876,394.375-604.651,392.356-600.958,392.356z"/>
</g>
<g>
	<rect x="-493.729" y="378.847" width="2" height="7.973"/>
	<rect x="-512.729" y="397.761" width="7.973" height="2"/>
	<rect x="-508.056" y="386.494" transform="matrix(0.7071 0.7071 -0.7071 0.7071 126.3612 469.9253)" width="7.974" height="2"/>
	<rect x="-482.548" y="383.512" transform="matrix(0.7071 0.7071 -0.7071 0.7071 132.9604 454.0013)" width="2" height="7.972"/>
	<rect x="-503.729" y="412.721" width="50" height="2"/>
	<rect x="-499.729" y="418.721" width="44" height="2"/>
	<rect x="-493.729" y="423.721" width="30" height="2"/>
	<rect x="-501.729" y="406.721" width="46" height="2"/>
	<path d="M-500.821,404.721h0.771h1.927h1.012c1.472-1.087,3.283-1.737,5.249-1.737c0.15,0,0.299,0.012,0.447,0.022l0.148,0.01
		l1.314,0.085l0.597-1.175c2.225-4.372,6.644-7.089,11.532-7.089c5.945,0,11.168,4.139,12.563,9.884h2.043v-0.084
		c-1.444-6.742-7.433-11.8-14.605-11.8c-2.185,0-4.258,0.47-6.126,1.313c-1.667-3.202-5.007-5.394-8.866-5.394
		c-5.522,0-10,4.477-10,9.999C-502.815,400.997-502.067,403.056-500.821,404.721z M-492.815,390.757c3.091,0,5.76,1.773,7.091,4.345
		c-2.298,1.44-4.178,3.488-5.413,5.918c-0.241-0.016-0.48-0.036-0.725-0.036c-2.764,0-5.274,1.045-7.189,2.745
		c-1.097-1.366-1.764-3.089-1.764-4.973C-500.815,394.346-497.227,390.757-492.815,390.757z"/>
</g>
<g>
	<rect x="-404.985" y="409.283" width="50" height="2"/>
	<rect x="-400.985" y="415.283" width="44" height="2"/>
	<rect x="-394.985" y="420.283" width="30" height="2"/>
	<rect x="-402.985" y="403.283" width="46" height="2"/>
	<path d="M-401.343,401.283h0.037h1.884h1.055c1.472-1.087,3.283-1.737,5.249-1.737c0.15,0,0.299,0.012,0.447,0.022l0.148,0.01
		l1.314,0.085l0.597-1.175c2.225-4.372,6.644-7.089,11.532-7.089c5.945,0,11.168,4.139,12.563,9.884h2.043v-0.084
		c-1.444-6.742-7.433-11.8-14.605-11.8c-1.799,0-3.521,0.32-5.117,0.903c-0.945-5.111-5.402-8.987-10.789-8.987
		c-0.413,0-0.819,0.027-1.222,0.071c0.744,1.112,1.179,2.448,1.179,3.886c0,3.865-3.134,7-7,7c-1.438,0-2.773-0.435-3.886-1.179
		c-0.044,0.401-0.071,0.809-0.071,1.222C-405.985,396.02-404.149,399.29-401.343,401.283z M-402.028,394.272c4.963,0,9-4.037,9-9
		c0-0.603-0.06-1.198-0.177-1.78c3.735,0.753,6.633,3.828,7.134,7.647c-2.712,1.443-4.927,3.699-6.322,6.442
		c-0.241-0.016-0.48-0.036-0.725-0.036c-2.534,0-4.855,0.879-6.701,2.335c-2.02-1.293-3.5-3.356-3.989-5.785
		C-403.227,394.213-402.631,394.272-402.028,394.272z"/>
</g>
<g>
	<path d="M-273.094,412.297h-19.474l-0.578-0.003c-5.485-0.027-9.948-4.513-9.948-9.998c0-5.514,4.485-10,9.999-10
		c0.175,0,0.347,0.014,0.519,0.025l0.149,0.01l1.316,0.088l0.598-1.176c2.493-4.899,7.443-7.942,12.92-7.942
		c6.79,0,12.75,4.814,14.171,11.448l0.318,1.482l1.514,0.095c1.822,0.113,3.463,0.845,4.746,1.971h2.732
		c-1.707-2.262-4.348-3.78-7.354-3.967c-1.596-7.445-8.207-13.029-16.127-13.029c-6.423,0-11.977,3.678-14.702,9.035
		c-0.266-0.018-0.53-0.04-0.8-0.04c-6.627,0-11.999,5.372-11.999,12c0,6.607,5.34,11.965,11.938,11.998v0.003h20.062
		c2.205,0,4,1.794,4,4s-1.795,4-4,4v2c3.314,0,6-2.686,6-6C-267.094,414.983-269.779,412.297-273.094,412.297z"/>
	<path d="M-269.094,408.297h-15.988v2h15.988c3.314,0,6-2.687,6-6c0-3.314-2.686-6-6-6v2c2.205,0,4,1.794,4,4
		S-266.889,408.297-269.094,408.297z"/>
	<path d="M-256.094,402.297c1.654,0,3,1.346,3,3s-1.346,3-3,3c-0.043,0-0.083-0.011-0.126-0.013h-4.862
		c0.003,0.005,0.009,0.008,0.012,0.013h-0.023v2h5.5v-0.051c2.523-0.254,4.5-2.358,4.5-4.949c0-2.762-2.238-5-5-5V402.297z"/>
	<path d="M-252.094,412.297h-13v2h9.022c-0.004,0.005-0.008,0.008-0.011,0.013h3.862c0.043-0.002,0.083-0.013,0.126-0.013
		c1.654,0,3,1.346,3,3s-1.346,3-3,3v2c2.762,0,5-2.238,5-5S-249.332,412.297-252.094,412.297z"/>
	<rect x="-291.094" y="408.297" width="4" height="2"/>
</g>
<path d="M-480.655,13.193c6.95,1.305,12.226,7.419,12.226,14.742c0,8.272-6.729,15.002-15,15.002c-6.79,0-12.531-4.49-14.366-10.728
	c1.398,0.461,2.867,0.698,4.366,0.698c7.72,0,14-6.281,14-14.001C-479.43,16.923-479.854,14.979-480.655,13.193 M-483.43,10.937
	c-0.338,0-0.668,0.031-1,0.051c1.861,2.113,3,4.881,3,7.92c0,6.627-5.372,12.001-12,12.001c-2.599,0-4.998-0.835-6.963-2.239
	c0.387,9.047,7.821,16.269,16.963,16.269c9.39,0,17-7.612,17-17.002S-474.04,10.937-483.43,10.937L-483.43,10.937z"/>
<g>
	<path d="M-586.825,15.932c-7.18,0-13,5.819-13,12.999c0,7.181,5.82,13.002,13,13.002s13-5.821,13-13.002
		C-573.825,21.751-579.646,15.932-586.825,15.932z M-586.825,39.933c-6.065,0-11-4.936-11-11.002c0-6.064,4.935-10.999,11-10.999
		s11,4.935,11,10.999C-575.825,34.997-580.76,39.933-586.825,39.933z"/>
	<rect x="-587.832" y="2.938" width="2" height="10"/>
	<rect x="-587.832" y="44.938" width="2" height="10"/>
	<rect x="-612.825" y="27.938" width="9.993" height="2"/>
	<rect x="-570.832" y="27.938" width="10.007" height="2"/>
	<rect x="-573.132" y="9.023" transform="matrix(0.7071 0.7071 -0.7071 0.7071 -157.513 408.7259)" width="2" height="10.409"/>
	<rect x="-602.541" y="38.432" transform="matrix(-0.7071 -0.7071 0.7071 -0.7071 -1057.751 -350.8604)" width="2" height="10.41"/>
	<rect x="-606.741" y="13.233" transform="matrix(0.7071 0.7071 -0.7071 0.7071 -166.1218 429.5193)" width="10.409" height="2"/>
	<rect x="-577.333" y="42.642" transform="matrix(-0.7072 -0.7071 0.7071 -0.7072 -1007.5679 -330.025)" width="10.41" height="2"/>
</g>
<g>
	<rect x="-188.659" y="373.799" width="2" height="7.973"/>
	<rect x="-207.632" y="392.785" width="7.973" height="2"/>
	<rect x="-202.906" y="381.567" transform="matrix(0.7071 0.7071 -0.7071 0.7071 212.2533 252.7081)" width="7.974" height="2"/>
	<rect x="-177.397" y="378.585" transform="matrix(0.7071 0.7071 -0.7071 0.7071 218.8524 236.7841)" width="2" height="7.972"/>
	<path d="M-173.632,415.799l0.005-0.007h-12.536l-0.594-0.003c-4.864-0.024-8.822-4.001-8.822-8.865c0-4.89,3.978-8.868,8.867-8.868
		c0.15,0,0.299,0.012,0.447,0.021l0.148,0.011l1.314,0.085l0.597-1.174c2.225-4.373,6.644-7.09,11.532-7.09
		c5.916,0,11.114,4.099,12.54,9.8h2.065c-1.444-6.742-7.433-11.8-14.605-11.8c-2.185,0-4.258,0.47-6.126,1.313
		c-1.667-3.202-5.007-5.394-8.866-5.394c-5.522,0-10,4.477-10,9.999c0,2.46,0.899,4.702,2.373,6.442
		c-1.429,1.84-2.287,4.144-2.287,6.653c0,5.983,4.836,10.836,10.813,10.865v0.003h13.135v0.007c2.205,0,4,1.794,4,4s-1.795,4-4,4v2
		c3.314,0,6-2.686,6-6C-167.632,418.485-170.317,415.799-173.632,415.799z M-187.665,385.829c3.091,0,5.76,1.773,7.091,4.345
		c-2.298,1.439-4.178,3.488-5.413,5.918c-0.241-0.016-0.48-0.036-0.725-0.036c-2.766,0-5.282,1.042-7.2,2.743
		c-1.092-1.367-1.753-3.09-1.753-4.971C-195.665,389.418-192.076,385.829-187.665,385.829z"/>
	<path d="M-169.632,411.799h-9.988v2h9.988c3.314,0,6-2.687,6-6c0-3.314-2.686-6-6-6v2c2.205,0,4,1.794,4,4
		S-167.427,411.799-169.632,411.799z"/>
	<path d="M-161.608,411.799h-0.023v2h5.5v-0.051c2.523-0.254,4.5-2.358,4.5-4.949c0-2.762-2.238-5-5-5v2c1.654,0,3,1.346,3,3
		s-1.346,3-3,3c-0.043,0-0.083-0.011-0.126-0.013h-4.862C-161.617,411.791-161.611,411.795-161.608,411.799z"/>
	<path d="M-152.632,415.799h-13v2h9.022c-0.004,0.004-0.008,0.008-0.011,0.013h3.862c0.043-0.002,0.083-0.013,0.126-0.013
		c1.654,0,3,1.346,3,3s-1.346,3-3,3v2c2.762,0,5-2.238,5-5S-149.87,415.799-152.632,415.799z"/>
	<rect x="-185.632" y="411.799" width="4" height="2"/>
</g>
<g>
	<path d="M-73.67,413.793l0.005-0.007h-12.536l-0.594-0.003c-4.864-0.024-8.822-4.001-8.822-8.865c0-4.89,3.978-8.868,8.867-8.868
		c0.15,0,0.299,0.012,0.447,0.021l0.148,0.011l1.314,0.085l0.597-1.174c2.225-4.373,6.644-7.09,11.532-7.09
		c5.916,0,11.114,4.099,12.54,9.8h2.065c-1.444-6.742-7.433-11.8-14.605-11.8c-1.806,0-3.536,0.322-5.138,0.91
		c-0.938-5.123-5.4-9.01-10.794-9.01c-0.413,0-0.819,0.027-1.222,0.071c0.744,1.112,1.179,2.448,1.179,3.886c0,3.865-3.134,7-7,7
		c-1.438,0-2.773-0.435-3.886-1.179c-0.044,0.401-0.071,0.809-0.071,1.222c0,3.725,1.858,7.009,4.69,8.998
		c-1.655,1.907-2.665,4.392-2.665,7.116c0,5.983,4.836,10.836,10.813,10.865v0.003h13.135v0.007c2.205,0,4,1.794,4,4s-1.795,4-4,4v2
		c3.314,0,6-2.686,6-6C-67.67,416.479-70.355,413.793-73.67,413.793z M-97.466,390.584c0.582,0.117,1.178,0.177,1.78,0.177
		c4.963,0,9-4.037,9-9c0-0.603-0.06-1.198-0.177-1.78c3.744,0.755,6.646,3.842,7.138,7.674c-2.702,1.444-4.909,3.696-6.301,6.432
		c-0.241-0.016-0.48-0.036-0.725-0.036c-2.535,0-4.861,0.875-6.71,2.33C-95.488,395.088-96.975,393.02-97.466,390.584z"/>
	<path d="M-69.67,409.793h-9.988v2h9.988c3.314,0,6-2.687,6-6c0-3.314-2.686-6-6-6v2c2.205,0,4,1.794,4,4
		S-67.465,409.793-69.67,409.793z"/>
	<path d="M-61.646,409.793h-0.023v2h5.5v-0.051c2.523-0.254,4.5-2.358,4.5-4.949c0-2.762-2.238-5-5-5v2c1.654,0,3,1.346,3,3
		s-1.346,3-3,3c-0.043,0-0.083-0.011-0.126-0.013h-4.862C-61.655,409.785-61.649,409.789-61.646,409.793z"/>
	<path d="M-52.67,413.793h-13v2h9.022c-0.004,0.004-0.008,0.008-0.011,0.013h3.862c0.043-0.002,0.083-0.013,0.126-0.013
		c1.654,0,3,1.346,3,3s-1.346,3-3,3v2c2.762,0,5-2.238,5-5S-49.908,413.793-52.67,413.793z"/>
	<rect x="-85.67" y="409.793" width="4" height="2"/>
</g>
<g>
	<rect x="27.223" y="376.361" width="2" height="10"/>
	<rect x="2.229" y="401.361" width="9.993" height="2"/>
	<rect x="41.922" y="382.447" transform="matrix(0.7071 0.7071 -0.7071 0.7071 286.6829 83.1899)" width="2" height="10.409"/>
	<rect x="8.314" y="386.657" transform="matrix(0.7071 0.7071 -0.7071 0.7071 278.0741 103.9833)" width="10.409" height="2"/>
	<path d="M32.223,416.361h-24v2h24c2.205,0,4,1.794,4,4s-1.795,4-4,4v2c3.314,0,6-2.686,6-6
		C38.223,419.048,35.537,416.361,32.223,416.361z"/>
	<path d="M44.246,412.361h-0.023v2h5.5v-0.051c2.523-0.254,4.5-2.358,4.5-4.949c0-2.762-2.238-5-5-5v2c1.654,0,3,1.346,3,3
		s-1.346,3-3,3c-0.043,0-0.083-0.011-0.126-0.013h-4.862C44.237,412.354,44.243,412.357,44.246,412.361z"/>
	<path d="M53.223,416.361h-13v2h9.022c-0.004,0.004-0.008,0.008-0.011,0.013h3.862c0.043-0.002,0.083-0.013,0.126-0.013
		c1.654,0,3,1.346,3,3s-1.346,3-3,3v2c2.762,0,5-2.238,5-5S55.984,416.361,53.223,416.361z"/>
	<path d="M19.932,412.361H8.223v2h12.012h0.822h15.166c3.314,0,6-2.687,6-6c0-3.314-2.686-6-6-6v2c2.205,0,4,1.794,4,4s-1.795,4-4,4
		H23.685c-3.802-1.734-6.455-5.563-6.455-10.007c0-6.064,4.935-10.999,11-10.999c5.384,0,9.868,3.891,10.81,9.006h2.021
		c-0.961-6.23-6.331-11.006-12.831-11.006c-7.18,0-13,5.819-13,12.999C15.229,406.38,17.06,409.977,19.932,412.361z"/>
</g>
<g>
	<path d="M132.449,409.805h-24v2h24c2.205,0,4,1.794,4,4s-1.795,4-4,4v2c3.314,0,6-2.686,6-6
		C138.449,412.491,135.764,409.805,132.449,409.805z"/>
	<path d="M149.949,407.805v-0.051c2.523-0.254,4.5-2.358,4.5-4.949c0-2.762-2.238-5-5-5v2c1.654,0,3,1.346,3,3s-1.346,3-3,3
		c-0.043,0-0.083-0.011-0.126-0.013h-4.862c0.004,0.005,0.009,0.009,0.012,0.013h-0.023v2H149.949z"/>
	<path d="M153.449,409.805h-13v2h9.022c-0.003,0.004-0.007,0.008-0.011,0.013h3.862c0.043-0.002,0.083-0.013,0.126-0.013
		c1.654,0,3,1.346,3,3s-1.346,3-3,3v2c2.762,0,5-2.238,5-5S156.211,409.805,153.449,409.805z"/>
	<path d="M121.283,407.805h15.166c3.314,0,6-2.687,6-6c0-3.314-2.686-6-6-6v2c2.205,0,4,1.794,4,4s-1.795,4-4,4h-12.586
		c-2.596-1.188-4.658-3.339-5.69-6.034c0.849,0.204,1.724,0.309,2.612,0.309c6.168,0,11.187-5.019,11.187-11.188
		c0-1.276-0.22-2.532-0.64-3.717c4.046,1.102,7.168,4.459,7.937,8.63h2.018c-0.964-6.237-6.338-11.016-12.846-11.016
		c-0.259,0-0.511,0.024-0.766,0.039c1.425,1.618,2.297,3.737,2.297,6.063c0,5.072-4.112,9.188-9.187,9.188
		c-1.988,0-3.826-0.641-5.33-1.715c0.162,3.801,1.962,7.165,4.699,9.44h-11.705v2h12.012H121.283z"/>
</g>
<g>
	<path d="M-587.332,494.998h-20c-1.103,0-2-0.897-2-2s0.897-2,2-2h3.445h0.555v-2h-4c-2.209,0-4,1.791-4,4s1.791,4,4,4h20
		c2.205,0,4,1.794,4,4s-1.795,4-4,4v2c3.314,0,6-2.686,6-6C-581.332,497.685-584.018,494.998-587.332,494.998z"/>
	<path d="M-585.332,478.998v2c2.205,0,4,1.794,4,4s-1.795,4-4,4h-15.988v2h15.988c3.314,0,6-2.687,6-6
		C-579.332,481.684-582.018,478.998-585.332,478.998z"/>
	<path d="M-579.332,490.998v2h5.5v-0.051c2.523-0.254,4.5-2.358,4.5-4.949c0-2.762-2.238-5-5-5v2c1.654,0,3,1.346,3,3s-1.346,3-3,3
		c-0.043,0-0.083-0.011-0.126-0.013h-4.862c0.003,0.005,0.009,0.009,0.012,0.013H-579.332z"/>
	<path d="M-568.332,494.998h-11v2h7.022c-0.004,0.004-0.008,0.008-0.011,0.013h3.862c0.043-0.002,0.083-0.013,0.126-0.013
		c1.654,0,3,1.346,3,3s-1.346,3-3,3v2c2.762,0,5-2.238,5-5S-565.57,494.998-568.332,494.998z"/>
</g>
<path d="M-51.04,481.345v-0.038h-38.376c-1.103,0-2-0.897-2-2s0.897-2,2-2h33c2.762,0,5-2.238,5-5s-2.238-5-5-5h-37.875v0.008
	c-0.042-0.001-0.083-0.008-0.125-0.008c-2.762,0-5,2.238-5,5s2.238,5,5,5v-2c-1.654,0-3-1.346-3-3s1.346-3,3-3h0.125h3.853h34.022
	c1.654,0,3,1.346,3,3s-1.346,3-3,3h-33c-2.209,0-4,1.791-4,4s1.791,4,4,4h38c1.103,0,2,0.897,2,2s-0.897,2-2,2h-32
	c-2.209,0-4,1.791-4,4s1.791,4,4,4h22c1.103,0,2,0.897,2,2s-0.897,2-2,2h-24.01v0.001c-2.204,0.006-3.99,1.793-3.99,3.999
	s1.786,3.993,3.99,3.999v0.001h12.01c1.103,0,2,0.897,2,2s-0.897,2-2,2h-2c-2.209,0-4,1.791-4,4s1.791,4,4,4v-2
	c-1.103,0-2-0.897-2-2s0.897-2,2-2h2c2.209,0,4-1.791,4-4s-1.791-4-4-4h-12c-1.103,0-2-0.897-2-2s0.897-2,2-2h24
	c2.209,0,4-1.791,4-4c0-2.152-1.704-3.895-3.834-3.983v-0.017h-22.166c-1.103,0-2-0.897-2-2s0.897-2,2-2h32c2.209,0,4-1.791,4-4
	C-47.416,483.227-49.01,481.537-51.04,481.345z"/>
<path d="M134.375,472.022v-2.024h-2v2.024c-13.01,0.513-23.462,10.965-23.975,23.976h1.674c1.14-1.222,2.748-2,4.551-2
	c2.26,0,4.233,1.203,5.331,3h1.838c1.098-1.797,3.071-3,5.331-3c2.204,0,4.137,1.144,5.25,2.866v15.134c0,2.21,1.791,4,4,4
	s4-1.79,4-4h-2c0,1.103-0.897,2-2,2s-2-0.897-2-2v-15.134c1.113-1.723,3.046-2.866,5.25-2.866c2.26,0,4.233,1.203,5.331,3h1.838
	c1.098-1.797,3.071-3,5.331-3c1.803,0,3.411,0.778,4.551,2h1.674C157.837,482.987,147.385,472.535,134.375,472.022z
	 M152.125,491.998c-2.496,0-4.736,1.114-6.25,2.87c-1.514-1.756-3.754-2.87-6.25-2.87s-4.736,1.114-6.25,2.87
	c-1.514-1.756-3.754-2.87-6.25-2.87s-4.736,1.114-6.25,2.87c-1.514-1.756-3.755-2.87-6.25-2.87c-1.402,0-2.731,0.351-3.897,0.975
	c1.909-10.769,11.339-18.975,22.647-18.975s20.738,8.206,22.647,18.975C154.856,492.349,153.527,491.998,152.125,491.998z"/>
<g>
	<path d="M-270.92,596.311v-17.105c0-2.762-2.238-5-5-5s-5,2.238-5,5v17.105c-1.236,1.263-2,2.988-2,4.895c0,3.866,3.134,7,7,7
		s7-3.134,7-7C-268.92,599.299-269.684,597.573-270.92,596.311z M-275.92,606.205c-2.757,0-5-2.243-5-5
		c0-1.313,0.508-2.554,1.429-3.495l0.571-0.583v-0.816v-17.105c0-1.654,1.346-3,3-3s3,1.346,3,3v17.105v0.816l0.571,0.583
		c0.921,0.941,1.429,2.183,1.429,3.495C-270.92,603.962-273.163,606.205-275.92,606.205z"/>
	<path d="M-274.92,598.381v-15.176h-2v15.176c-1.167,0.413-2.008,1.516-2.008,2.824c0,1.662,1.347,3.008,3.008,3.008
		c1.662,0,3.008-1.346,3.008-3.008C-272.912,599.896-273.752,598.794-274.92,598.381z M-275.92,602.213
		c-0.556,0-1.008-0.452-1.008-1.008s0.452-1.008,1.008-1.008s1.008,0.452,1.008,1.008S-275.364,602.213-275.92,602.213z"/>
</g>
<g>
	<path d="M-171.132,596.311v-17.105c0-2.762-2.238-5-5-5s-5,2.238-5,5v17.105c-1.236,1.263-2,2.988-2,4.895c0,3.866,3.134,7,7,7
		s7-3.134,7-7C-169.132,599.299-169.896,597.573-171.132,596.311z M-176.132,606.205c-2.757,0-5-2.243-5-5
		c0-1.313,0.508-2.554,1.429-3.495l0.571-0.583v-0.816v-17.105c0-1.654,1.346-3,3-3s3,1.346,3,3v17.105v0.816l0.571,0.583
		c0.921,0.941,1.429,2.183,1.429,3.495C-171.132,603.962-173.375,606.205-176.132,606.205z"/>
	<path d="M-175.132,598.381v-20.176h-2v20.176c-1.167,0.413-2.008,1.516-2.008,2.824c0,1.662,1.347,3.008,3.008,3.008
		c1.662,0,3.008-1.346,3.008-3.008C-173.124,599.896-173.964,598.794-175.132,598.381z M-176.132,602.213
		c-0.556,0-1.008-0.452-1.008-1.008s0.452-1.008,1.008-1.008s1.008,0.452,1.008,1.008S-175.576,602.213-176.132,602.213z"/>
</g>
<g>
	<path d="M-374.029,596.311v-17.105c0-2.762-2.238-5-5-5s-5,2.238-5,5v17.105c-1.236,1.263-2,2.988-2,4.895c0,3.866,3.134,7,7,7
		s7-3.134,7-7C-372.029,599.299-372.793,597.573-374.029,596.311z M-379.029,606.205c-2.757,0-5-2.243-5-5
		c0-1.313,0.508-2.554,1.429-3.495l0.571-0.583v-0.816v-17.105c0-1.654,1.346-3,3-3s3,1.346,3,3v17.105v0.816l0.571,0.583
		c0.921,0.941,1.429,2.183,1.429,3.495C-374.029,603.962-376.272,606.205-379.029,606.205z"/>
	<path d="M-378.029,598.381v-10.176h-2v10.176c-1.167,0.413-2.008,1.516-2.008,2.824c0,1.662,1.347,3.008,3.008,3.008
		c1.662,0,3.008-1.346,3.008-3.008C-376.021,599.896-376.861,598.794-378.029,598.381z M-379.029,602.213
		c-0.556,0-1.008-0.452-1.008-1.008s0.452-1.008,1.008-1.008s1.008,0.452,1.008,1.008S-378.474,602.213-379.029,602.213z"/>
</g>
<g>
	<path d="M-477.675,596.311v-17.105c0-2.762-2.238-5-5-5s-5,2.238-5,5v17.105c-1.236,1.263-2,2.988-2,4.895c0,3.866,3.134,7,7,7
		s7-3.134,7-7C-475.675,599.299-476.438,597.573-477.675,596.311z M-482.675,606.205c-2.757,0-5-2.243-5-5
		c0-1.313,0.508-2.554,1.429-3.495l0.571-0.583v-0.816v-17.105c0-1.654,1.346-3,3-3s3,1.346,3,3v17.105v0.816l0.571,0.583
		c0.921,0.941,1.429,2.183,1.429,3.495C-477.675,603.962-479.918,606.205-482.675,606.205z"/>
	<path d="M-481.675,598.381v-5.176h-2v5.176c-1.167,0.413-2.008,1.516-2.008,2.824c0,1.662,1.347,3.008,3.008,3.008
		c1.662,0,3.008-1.346,3.008-3.008C-479.667,599.896-480.507,598.794-481.675,598.381z M-482.675,602.213
		c-0.556,0-1.008-0.452-1.008-1.008s0.452-1.008,1.008-1.008s1.008,0.452,1.008,1.008S-482.119,602.213-482.675,602.213z"/>
</g>
<g>
	<path d="M-582.332,596.311v-17.105c0-2.762-2.238-5-5-5s-5,2.238-5,5v17.105c-1.236,1.263-2,2.988-2,4.895c0,3.866,3.134,7,7,7
		s7-3.134,7-7C-580.332,599.299-581.096,597.573-582.332,596.311z M-587.332,606.205c-2.757,0-5-2.243-5-5
		c0-1.313,0.508-2.554,1.429-3.495l0.571-0.583v-0.816v-17.105c0-1.654,1.346-3,3-3s3,1.346,3,3v17.105v0.816l0.571,0.583
		c0.921,0.941,1.429,2.183,1.429,3.495C-582.332,603.962-584.575,606.205-587.332,606.205z"/>
	<path d="M-587.332,598.197c-1.661,0-3.008,1.347-3.008,3.008c0,1.662,1.347,3.008,3.008,3.008c1.662,0,3.008-1.346,3.008-3.008
		C-584.324,599.544-585.67,598.197-587.332,598.197z M-587.332,602.213c-0.556,0-1.008-0.452-1.008-1.008s0.452-1.008,1.008-1.008
		s1.008,0.452,1.008,1.008S-586.776,602.213-587.332,602.213z"/>
</g>
<g>
	<path d="M-82.407,576.518c-2.209,0-4,1.791-4,4c0,2.21,1.791,4,4,4c2.211,0,4-1.79,4-4
		C-78.407,578.309-80.196,576.518-82.407,576.518z M-82.407,582.518c-1.103,0-2-0.897-2-2s0.897-2,2-2s2,0.897,2,2
		S-81.305,582.518-82.407,582.518z"/>
	<path d="M-68.407,604.518c-4.41,0-7.999-3.589-7.999-7.999v-4.002c0-4.41,3.589-7.999,7.999-7.999c2.715,0,5.115,1.362,6.563,3.437
		l1.43-1.43c-1.824-2.429-4.72-4.007-7.992-4.007c-5.522,0-9.999,4.478-9.999,9.999v4.002c0,5.521,4.477,9.999,9.999,9.999
		c3.272,0,6.168-1.579,7.992-4.008l-1.43-1.43C-63.291,603.154-65.691,604.518-68.407,604.518z"/>
</g>
<g>
	<path d="M22.289,576.396c-2.209,0-4,1.791-4,4c0,2.21,1.791,4,4,4c2.211,0,4-1.79,4-4C26.289,578.188,24.5,576.396,22.289,576.396z
		 M22.289,582.396c-1.103,0-2-0.897-2-2s0.897-2,2-2s2,0.897,2,2S23.392,582.396,22.289,582.396z"/>
	<polygon points="42.164,584.518 42.164,582.518 30.164,582.518 28.164,582.518 28.164,606.518 30.164,606.518 30.164,594.518 
		38.164,594.518 38.164,592.518 30.164,592.518 30.164,584.518 	"/>
</g>
<g>
	<path d="M133.375,580.209c-7.179,0-13,5.82-13,13s5.821,13,13,13s13-5.82,13-13S140.554,580.209,133.375,580.209z M133.375,604.209
		c-6.065,0-11-4.935-11-11s4.935-11,11-11s11,4.935,11,11S139.44,604.209,133.375,604.209z"/>
	<path d="M129.108,597.451l6.363-2.121l2.121-6.364l-6.363,2.122L129.108,597.451z M132.811,592.669l1.62-0.54l-0.54,1.62
		l-1.62,0.54L132.811,592.669z"/>
</g>
<g>
	<path d="M-587.332,670.727c-7.179,0-13,5.82-13,13s5.821,13,13,13s13-5.82,13-13S-580.153,670.727-587.332,670.727z
		 M-587.332,694.727c-6.065,0-11-4.934-11-11c0-6.064,4.935-11,11-11s11,4.936,11,11
		C-576.332,689.793-581.267,694.727-587.332,694.727z"/>
	<path d="M-584.771,682.148l-2.586-4.422l-2.529,4.33h0.007c-0.299,0.467-0.478,1.018-0.478,1.613c0,1.656,1.343,3,3,3s3-1.344,3-3
		c0-0.559-0.162-1.074-0.428-1.521H-584.771z M-587.356,684.67c-0.552,0-1-0.449-1-1c0-0.188,0.055-0.367,0.162-0.535l0.864-1.355
		l0.826,1.391c0.098,0.164,0.147,0.332,0.147,0.5C-586.356,684.221-586.805,684.67-587.356,684.67z"/>
</g>
<g>
	<path d="M-482.548,670.727c-7.18,0-13,5.82-13,13s5.82,13,13,13s13-5.82,13-13S-475.368,670.727-482.548,670.727z
		 M-482.548,694.727c-6.065,0-11-4.934-11-11c0-6.064,4.935-11,11-11s11,4.936,11,11
		C-471.548,689.793-476.482,694.727-482.548,694.727z"/>
	<path d="M-480.959,681.146c-0.467-0.299-1.018-0.477-1.613-0.477c-1.658,0-3,1.342-3,3c0,1.656,1.342,3,3,3
		c0.557,0,1.072-0.162,1.52-0.428v0.014l4.422-2.586l-4.328-2.529V681.146z M-482.074,684.521c-0.164,0.098-0.332,0.148-0.498,0.148
		c-0.552,0-1-0.449-1-1c0-0.553,0.448-1,1-1c0.188,0,0.368,0.053,0.535,0.16l1.355,0.865L-482.074,684.521z"/>
</g>
<g>
	<path d="M-379.497,670.727c-7.18,0-13,5.82-13,13s5.82,13,13,13s13-5.82,13-13S-372.317,670.727-379.497,670.727z
		 M-379.497,694.727c-6.065,0-11-4.934-11-11c0-6.064,4.935-11,11-11s11,4.936,11,11
		C-368.497,689.793-373.432,694.727-379.497,694.727z"/>
	<path d="M-379.497,680.67c-1.656,0-3,1.342-3,3c0,0.557,0.162,1.072,0.428,1.52h-0.014l2.586,4.422l2.529-4.328h-0.006
		c0.299-0.467,0.477-1.018,0.477-1.613C-376.497,682.012-377.839,680.67-379.497,680.67z M-378.658,684.205l-0.865,1.355
		l-0.826-1.393c-0.098-0.164-0.147-0.332-0.147-0.498c0-0.553,0.448-1,1-1s1,0.447,1,1
		C-378.497,683.857-378.551,684.037-378.658,684.205z"/>
</g>
<g>
	<path d="M-276.083,670.727c-7.179,0-13,5.82-13,13s5.821,13,13,13s13-5.82,13-13S-268.904,670.727-276.083,670.727z
		 M-276.083,694.727c-6.065,0-11-4.934-11-11c0-6.064,4.935-11,11-11s11,4.936,11,11
		C-265.083,689.793-270.018,694.727-276.083,694.727z"/>
	<path d="M-276.124,680.67c-0.557,0-1.072,0.162-1.52,0.428v-0.014l-4.422,2.586l4.328,2.529v-0.006
		c0.467,0.299,1.018,0.477,1.613,0.477c1.658,0,3-1.342,3-3C-273.124,682.014-274.466,680.67-276.124,680.67z M-276.124,684.67
		c-0.188,0-0.368-0.055-0.535-0.162l-1.355-0.865l1.393-0.826c0.164-0.098,0.332-0.146,0.498-0.146c0.552,0,1,0.447,1,1
		C-275.124,684.221-275.572,684.67-276.124,684.67z"/>
</g>
<g>
	<rect x="-484.234" y="473.998" width="2" height="10"/>
	<rect x="-469.535" y="480.084" transform="matrix(0.7071 0.7071 -0.7071 0.7071 205.9202 473.4418)" width="2" height="10.409"/>
	<rect x="-503.144" y="484.294" transform="matrix(0.7071 0.7071 -0.7071 0.7071 197.3113 494.2352)" width="10.409" height="2"/>
	<polygon points="-489.902,503.252 -488.488,504.666 -484.234,500.412 -484.234,509.998 -482.234,509.998 -482.234,500.412 
		-477.981,504.666 -476.567,503.252 -483.234,496.584 	"/>
	<path d="M-470.228,499.997c0-0.002,0-0.004,0-0.006c0-7.18-5.82-12.999-13-12.999s-13,5.819-13,12.999c0,0.002,0,0.004,0,0.006h-13
		v2h18v-2h-3c0-0.002,0-0.004,0-0.006c0-6.064,4.935-10.999,11-10.999s11,4.935,11,10.999c0,0.002,0,0.004,0,0.006h-3v2h17.995v-2
		H-470.228z"/>
</g>
<g>
	<rect x="-380.489" y="472.811" width="2" height="10"/>
	<rect x="-365.789" y="478.897" transform="matrix(0.7071 0.7071 -0.7071 0.7071 235.4668 399.7351)" width="2" height="10.409"/>
	<rect x="-399.398" y="483.106" transform="matrix(0.7071 0.7071 -0.7071 0.7071 226.8579 420.5285)" width="10.409" height="2"/>
	<polygon points="-378.489,507.357 -378.489,496.811 -380.489,496.811 -380.489,507.357 -384.743,503.104 -386.157,504.518 
		-379.489,511.186 -372.822,504.518 -374.236,503.104 	"/>
	<path d="M-366.482,498.81c0-0.002,0-0.004,0-0.006c0-7.18-5.82-12.999-13-12.999s-13,5.819-13,12.999c0,0.002,0,0.004,0,0.006h-13
		v2h22v-2h-7c0-0.002,0-0.004,0-0.006c0-6.064,4.935-10.999,11-10.999s11,4.935,11,10.999c0,0.002,0,0.004,0,0.006h-7v2h21.995v-2
		H-366.482z"/>
</g>
<g>
	<polygon points="-176.132,506.823 -176.132,492.44 -178.132,492.44 -178.132,506.823 -182.386,502.569 -183.8,503.983 
		-177.132,510.651 -170.465,503.983 -171.879,502.569 	"/>
	<path d="M-160.504,487.47c-1.596-7.445-8.207-13.029-16.127-13.029c-6.423,0-11.977,3.678-14.702,9.035
		c-0.266-0.018-0.53-0.04-0.8-0.04c-6.627,0-11.999,5.372-11.999,12c0,6.607,5.34,11.965,11.938,11.998v0.003h6.062v-2h-5.604
		l-0.447-0.003c-5.485-0.027-9.948-4.513-9.948-9.998c0-5.514,4.485-10,9.999-10c0.175,0,0.347,0.014,0.52,0.025l0.148,0.01
		l1.316,0.088l0.598-1.176c2.492-4.899,7.443-7.942,12.92-7.942c6.79,0,12.75,4.814,14.172,11.448l0.317,1.482l1.514,0.095
		c4.203,0.262,7.496,3.763,7.496,7.971c0,4.397-3.565,7.977-7.957,8c-0.05-0.003-0.093-0.005-0.137-0.007l-2.043,0.007h-4.863v2
		h6.863v-0.007c0.046,0.001,0.091,0.007,0.137,0.007c5.521,0,10-4.477,10-10C-151.132,492.126-155.276,487.795-160.504,487.47z"/>
</g>
<g>
	<polygon points="-270.147,503.628 -268.733,502.214 -275.4,495.546 -282.068,502.214 -280.654,503.628 -276.4,499.374 
		-276.4,511.96 -274.4,511.96 -274.4,499.374 	"/>
	<path d="M-258.772,489.065c-1.596-7.445-8.207-13.029-16.127-13.029c-6.423,0-11.977,3.678-14.702,9.035
		c-0.266-0.018-0.53-0.04-0.8-0.04c-6.627,0-11.999,5.372-11.999,12c0,6.607,5.34,11.965,11.938,11.998v0.003h10.062v-2h-9.604
		l-0.447-0.003c-5.485-0.027-9.948-4.513-9.948-9.998c0-5.514,4.485-10,9.999-10c0.175,0,0.347,0.014,0.52,0.025l0.148,0.01
		l1.316,0.088l0.598-1.176c2.492-4.899,7.443-7.942,12.92-7.942c6.79,0,12.75,4.814,14.172,11.448l0.317,1.482l1.514,0.095
		c4.203,0.262,7.496,3.763,7.496,7.971c0,4.397-3.565,7.977-7.957,8c-0.05-0.003-0.093-0.005-0.137-0.007l-2.043,0.007h-8.863v2
		h10.863v-0.007c0.046,0.001,0.091,0.007,0.137,0.007c5.521,0,10-4.477,10-10C-249.4,493.722-253.545,489.391-258.772,489.065z"/>
</g>
<g>
	<path d="M-56.283,299.55c-1.596-7.445-8.207-13.029-16.127-13.029c-6.423,0-11.977,3.678-14.702,9.035
		c-0.266-0.018-0.53-0.04-0.8-0.04c-6.627,0-11.999,5.372-11.999,12c0,6.607,5.34,11.965,11.938,11.998v0.003h2.062v-2h-1.604
		l-0.447-0.003c-5.485-0.027-9.948-4.513-9.948-9.998c0-5.514,4.485-10,9.999-10c0.175,0,0.347,0.014,0.52,0.025l0.148,0.01
		l1.316,0.088l0.598-1.176c2.492-4.899,7.443-7.942,12.92-7.942c6.79,0,12.75,4.814,14.172,11.448l0.317,1.482l1.514,0.095
		c4.203,0.262,7.496,3.763,7.496,7.971c0,4.397-3.565,7.977-7.957,8c-0.05-0.003-0.093-0.005-0.137-0.007l-2.043,0.007h-0.863v2
		h2.863v-0.007c0.046,0.001,0.091,0.007,0.137,0.007c5.521,0,10-4.477,10-10C-46.911,304.206-51.056,299.875-56.283,299.55z"/>
	<polygon points="-77.911,318.538 -77.911,315.908 -75.738,317.131 -75.053,315.91 -77.522,314.521 -75.053,313.131 -75.738,311.91 
		-77.911,313.133 -77.911,310.538 -79.911,310.538 -79.911,313.177 -82.162,311.91 -82.848,313.131 -80.378,314.521 -82.848,315.91 
		-82.162,317.131 -79.911,315.864 -79.911,318.538 	"/>
	<polygon points="-72.749,322.893 -74.922,324.115 -74.922,321.521 -76.922,321.521 -76.922,324.159 -79.173,322.893 
		-79.858,324.113 -77.389,325.503 -79.858,326.893 -79.173,328.113 -76.922,326.847 -76.922,329.521 -74.922,329.521 
		-74.922,326.891 -72.749,328.113 -72.063,326.893 -74.533,325.503 -72.063,324.113 	"/>
	<polygon points="-63.733,315.91 -65.906,317.133 -65.906,314.538 -67.906,314.538 -67.906,317.177 -70.157,315.91 -70.843,317.131 
		-68.373,318.521 -70.843,319.91 -70.157,321.131 -67.906,319.864 -67.906,322.538 -65.906,322.538 -65.906,319.908 
		-63.733,321.131 -63.048,319.91 -65.518,318.521 -63.048,317.131 	"/>
</g>
<g>
	<rect x="19.229" y="281.498" width="2" height="7.973"/>
	<rect x="0.229" y="300.412" width="7.973" height="2"/>
	<rect x="4.902" y="289.146" transform="matrix(0.7071 0.7071 -0.7071 0.7071 207.7673 78.6964)" width="7.974" height="2"/>
	<rect x="30.41" y="286.164" transform="matrix(0.7071 0.7071 -0.7071 0.7071 214.3664 62.7725)" width="2" height="7.972"/>
	<path d="M49.74,307.288c-1.444-6.742-7.433-11.8-14.605-11.8c-2.185,0-4.258,0.471-6.127,1.314
		c-1.666-3.203-5.006-5.395-8.865-5.395c-5.522,0-10,4.477-10,9.999c0,2.46,0.899,4.702,2.373,6.442
		c-1.428,1.84-2.287,4.144-2.287,6.653c0,5.983,4.836,10.836,10.813,10.865v0.003h1.188v-2h-0.721l-0.457-0.003
		c-4.864-0.023-8.822-4.001-8.822-8.865c0-4.89,3.978-8.868,8.867-8.868c0.15,0,0.299,0.012,0.447,0.022l0.148,0.01l1.314,0.085
		l0.597-1.175c2.225-4.372,6.644-7.089,11.532-7.089c6.062,0,11.382,4.298,12.649,10.219l0.318,1.483l1.514,0.094
		c3.708,0.23,6.612,3.319,6.612,7.03c0,3.878-3.144,7.035-7.017,7.057c-0.042-0.003-0.079-0.005-0.117-0.005l-1.866,0.005v2h1.819
		v-0.006c0.042,0.001,0.082,0.006,0.124,0.006c5.001,0,9.057-4.054,9.057-9.057C58.229,311.505,54.475,307.583,49.74,307.288z
		 M21.82,303.671c-0.241-0.016-0.48-0.036-0.725-0.036c-2.766,0-5.282,1.041-7.2,2.742c-1.092-1.365-1.753-3.089-1.753-4.97
		c0-4.41,3.589-7.999,8-7.999c3.092,0,5.76,1.773,7.091,4.346C24.936,299.193,23.057,301.241,21.82,303.671z"/>
	<polygon points="29.221,324.391 29.221,321.761 31.394,322.983 32.079,321.763 29.609,320.373 32.079,318.983 31.394,317.763 
		29.221,318.985 29.221,316.391 27.221,316.391 27.221,319.029 24.97,317.763 24.284,318.983 26.754,320.373 24.284,321.763 
		24.97,322.983 27.221,321.717 27.221,324.391 	"/>
	<polygon points="34.383,328.745 32.21,329.968 32.21,327.373 30.21,327.373 30.21,330.012 27.959,328.745 27.273,329.966 
		29.743,331.355 27.273,332.745 27.959,333.966 30.21,332.699 30.21,335.373 32.21,335.373 32.21,332.743 34.383,333.966 
		35.068,332.745 32.599,331.355 35.068,329.966 	"/>
	<polygon points="43.398,321.763 41.226,322.985 41.226,320.391 39.226,320.391 39.226,323.029 36.975,321.763 36.289,322.983 
		38.759,324.373 36.289,325.763 36.975,326.983 39.226,325.717 39.226,328.391 41.226,328.391 41.226,325.761 43.398,326.983 
		44.084,325.763 41.614,324.373 44.084,322.983 	"/>
</g>
<g>
	<path d="M149.929,304.285c-1.444-6.742-7.433-11.8-14.605-11.8c-1.799,0-3.522,0.32-5.118,0.904
		c-0.949-5.108-5.404-8.98-10.788-8.98c-0.413,0-0.819,0.027-1.222,0.071c0.744,1.112,1.179,2.448,1.179,3.886c0,3.865-3.134,7-7,7
		c-1.438,0-2.773-0.435-3.886-1.179c-0.044,0.401-0.071,0.809-0.071,1.222c0,3.713,1.845,6.987,4.661,8.979
		c-1.653,1.907-2.661,4.389-2.661,7.111c0,5.983,4.836,10.836,10.813,10.865v0.003h1.188v-2h-0.721l-0.457-0.003
		c-4.864-0.023-8.822-4.001-8.822-8.865c0-4.89,3.978-8.868,8.867-8.868c0.15,0,0.299,0.012,0.447,0.022l0.148,0.01l1.314,0.085
		l0.597-1.175c2.225-4.372,6.644-7.089,11.532-7.089c6.062,0,11.382,4.298,12.649,10.219l0.318,1.483l1.514,0.094
		c3.708,0.23,6.612,3.319,6.612,7.03c0,3.878-3.144,7.035-7.017,7.057c-0.042-0.003-0.079-0.005-0.117-0.005l-1.866,0.005v2h1.819
		v-0.006c0.042,0.001,0.082,0.006,0.124,0.006c5.001,0,9.057-4.054,9.057-9.057C158.417,308.502,154.663,304.58,149.929,304.285z
		 M122.009,300.668c-0.241-0.016-0.48-0.036-0.725-0.036c-2.537,0-4.865,0.877-6.715,2.334c-2.012-1.294-3.486-3.354-3.976-5.776
		c0.582,0.117,1.178,0.177,1.78,0.177c4.963,0,9-4.037,9-9c0-0.603-0.06-1.198-0.177-1.78c3.733,0.753,6.629,3.824,7.134,7.64
		C125.618,295.67,123.403,297.925,122.009,300.668z"/>
	<polygon points="129.454,321.388 129.454,318.758 131.627,319.98 132.313,318.76 129.843,317.37 132.313,315.98 131.627,314.76 
		129.454,315.982 129.454,313.388 127.454,313.388 127.454,316.026 125.203,314.76 124.518,315.98 126.987,317.37 124.518,318.76 
		125.203,319.98 127.454,318.714 127.454,321.388 	"/>
	<polygon points="134.616,325.742 132.443,326.965 132.443,324.37 130.443,324.37 130.443,327.009 128.192,325.742 127.507,326.963 
		129.977,328.353 127.507,329.742 128.192,330.963 130.443,329.696 130.443,332.37 132.443,332.37 132.443,329.74 134.616,330.963 
		135.302,329.742 132.832,328.353 135.302,326.963 	"/>
	<polygon points="143.632,318.76 141.459,319.982 141.459,317.388 139.459,317.388 139.459,320.026 137.208,318.76 136.522,319.98 
		138.992,321.37 136.522,322.76 137.208,323.98 139.459,322.714 139.459,325.388 141.459,325.388 141.459,322.758 143.632,323.98 
		144.317,322.76 141.848,321.37 144.317,319.98 	"/>
</g>
<rect x="-466.43" y="-263.465" fill="none" width="472.974" height="180.918"/>
<text transform="matrix(1 0 0 1 -286.7925 -192.0659)"><tspan x="0" y="0" font-family="'HelveticaNeueLTStd-Th'" font-size="100" letter-spacing="2">60</tspan><tspan x="-99.268" y="60" font-family="'HelveticaNeueLTStd-Lt'" font-size="48" letter-spacing="1">Weather Icons</tspan><tspan x="-3.726" y="104" font-family="'HelveticaNeueLTStd-Lt'" font-size="24">IOS 7 Style</tspan></text>
</svg>
