<?xml version="1.0" encoding="utf-8"?>
<!-- Generator: Adobe Illustrator 16.0.0, SVG Export Plug-In . SVG Version: 6.00 Build 0)  -->
<!DOCTYPE svg PUBLIC "-//W3C//DTD SVG 1.1//EN" "http://www.w3.org/Graphics/SVG/1.1/DTD/svg11.dtd">
<svg version="1.1" id="Layer_1" xmlns="http://www.w3.org/2000/svg" xmlns:xlink="http://www.w3.org/1999/xlink" x="0px" y="0px"
	 width="50px" height="48.464px" viewBox="0 0 50 48.464" enable-background="new 0 0 50 48.464" xml:space="preserve">
<path d="M438.524,378.882l-1.803,15.077l-0.268,2.237h2.254h6.896l-14.693,18.759l1.789-14.52l0.277-2.245h-2.262h-6.957
	L438.524,378.882 M441.379,371.857l-21.667,28.333h11.004l-2.671,21.667l21.667-27.661h-11.004L441.379,371.857L441.379,371.857z"/>
<path d="M25.489-83.379c6.79,0,12.749,4.814,14.171,11.448l0.318,1.483l1.514,0.094c4.203,0.262,7.496,3.763,7.496,7.971
	c0,4.396-3.565,7.977-7.957,8c-0.046-0.003-0.091-0.006-0.137-0.007l-2.043-0.036v0.043H10.515l-0.578-0.003
	c-5.485-0.027-9.948-4.513-9.948-9.998c0-5.514,4.485-10,9.999-10c0.175,0,0.347,0.014,0.519,0.025l0.149,0.011l1.316,0.087
	l0.598-1.176C15.063-80.336,20.013-83.379,25.489-83.379 M25.489-85.379c-6.423,0-11.977,3.678-14.702,9.035
	c-0.266-0.018-0.53-0.04-0.8-0.04c-6.627,0-11.999,5.372-11.999,12c0,6.607,5.34,11.965,11.938,11.998v0.003h30.925v-0.007
	c0.046,0.001,0.091,0.007,0.137,0.007c5.521,0,10-4.477,10-10c0-5.311-4.145-9.642-9.372-9.967
	C40.021-79.795,33.409-85.379,25.489-85.379L25.489-85.379z"/>
<g>
	<path d="M148.44-64.968c-1.444-6.742-7.433-11.8-14.605-11.8c-2.185,0-4.258,0.47-6.127,1.313
		c-1.666-3.202-5.006-5.394-8.865-5.394c-5.522,0-10,4.477-10,9.999c0,2.46,0.898,4.702,2.373,6.442
		c-1.428,1.84-2.287,4.144-2.287,6.653c0,5.983,4.836,10.836,10.813,10.865v0.003h28.007v-0.006
		c0.042,0.001,0.082,0.006,0.124,0.006c5.001,0,9.057-4.054,9.057-9.057C156.929-60.751,153.175-64.673,148.44-64.968z
		 M118.843-78.848c3.092,0,5.76,1.773,7.092,4.345c-2.299,1.44-4.178,3.488-5.414,5.918c-0.241-0.016-0.48-0.036-0.725-0.036
		c-2.766,0-5.281,1.041-7.2,2.743c-1.092-1.366-1.753-3.09-1.753-4.971C110.843-75.259,114.432-78.848,118.843-78.848z
		 M147.912-48.885c-0.038-0.003-0.077-0.004-0.117-0.005l-2.047-0.042v0.047h-25.403l-0.594-0.003
		c-4.864-0.023-8.822-4.001-8.822-8.865c0-4.89,3.978-8.868,8.867-8.868c0.15,0,0.299,0.012,0.447,0.021l0.148,0.011l1.314,0.085
		l0.598-1.174c2.224-4.373,6.643-7.09,11.531-7.09c6.062,0,11.381,4.298,12.65,10.219l0.317,1.482l1.514,0.095
		c3.708,0.231,6.612,3.319,6.612,7.03C154.929-52.063,151.785-48.907,147.912-48.885z"/>
	<rect x="117.849" y="-90.878" width="2" height="7.973"/>
	<rect x="98.876" y="-71.892" width="7.973" height="2"/>
	<rect x="103.602" y="-83.11" transform="matrix(0.7071 0.7071 -0.7071 0.7071 -26.5487 -100.1264)" width="7.974" height="2"/>
	<rect x="129.11" y="-86.092" transform="matrix(0.7071 0.7071 -0.7071 0.7071 -19.9496 -116.0503)" width="2" height="7.972"/>
</g>
<path d="M244.184-68.995c-1.444-6.742-7.433-11.8-14.605-11.8c-1.799,0-3.521,0.32-5.118,0.904c-0.949-5.108-5.404-8.98-10.788-8.98
	c-0.413,0-0.819,0.027-1.222,0.071c0.744,1.112,1.179,2.448,1.179,3.886c0,3.865-3.134,7-7,7c-1.438,0-2.773-0.435-3.886-1.179
	c-0.044,0.401-0.071,0.809-0.071,1.222c0,3.712,1.845,6.987,4.661,8.979c-1.653,1.907-2.661,4.389-2.661,7.111
	c0,5.983,4.836,10.836,10.813,10.865v0.003h28.007v-0.006c0.042,0.001,0.082,0.006,0.124,0.006c5.001,0,9.057-4.054,9.057-9.057
	C252.672-64.778,248.918-68.7,244.184-68.995z M204.849-76.091c0.582,0.117,1.178,0.177,1.78,0.177c4.963,0,9-4.037,9-9
	c0-0.603-0.06-1.198-0.177-1.78c3.733,0.753,6.629,3.824,7.134,7.64c-2.713,1.444-4.928,3.699-6.322,6.442
	c-0.241-0.016-0.48-0.036-0.725-0.036c-2.537,0-4.865,0.876-6.715,2.334C206.813-71.608,205.338-73.668,204.849-76.091z
	 M243.655-52.912c-0.038-0.003-0.077-0.004-0.117-0.005l-2.047-0.042v0.047h-25.403l-0.594-0.003
	c-4.864-0.023-8.822-4.001-8.822-8.865c0-4.89,3.978-8.868,8.867-8.868c0.15,0,0.299,0.012,0.447,0.021l0.148,0.011l1.314,0.085
	l0.598-1.174c2.224-4.373,6.643-7.09,11.531-7.09c6.062,0,11.381,4.298,12.65,10.219l0.317,1.482l1.514,0.095
	c3.708,0.231,6.612,3.319,6.612,7.03C250.672-56.091,247.528-52.935,243.655-52.912z"/>
<g>
	<rect x="328.829" y="-60.372" width="2" height="7"/>
	<rect x="336.829" y="-64.372" width="2" height="7"/>
	<rect x="320.829" y="-64.372" width="2" height="7"/>
	<rect x="328.829" y="-50.372" width="2" height="7"/>
	<rect x="336.829" y="-54.372" width="2" height="7"/>
	<rect x="320.829" y="-54.372" width="2" height="7"/>
	<path d="M347.457-77.36c-1.596-7.445-8.207-13.029-16.127-13.029c-6.423,0-11.977,3.678-14.702,9.035
		c-0.266-0.018-0.53-0.04-0.8-0.04c-6.627,0-11.999,5.372-11.999,12c0,6.607,5.34,11.965,11.938,11.998v0.003h2.062v-2h-1.604
		l-0.447-0.003c-5.485-0.027-9.948-4.513-9.948-9.998c0-5.514,4.485-10,9.999-10c0.175,0,0.347,0.014,0.52,0.025l0.148,0.01
		l1.316,0.088l0.598-1.176c2.492-4.899,7.443-7.942,12.92-7.942c6.79,0,12.75,4.814,14.172,11.448l0.317,1.482l1.514,0.095
		c4.203,0.262,7.496,3.763,7.496,7.971c0,4.397-3.565,7.977-7.957,8c-0.05-0.003-0.093-0.005-0.137-0.007l-2.043,0.007h-2.863v2
		h4.863V-57.4c0.046,0.001,0.091,0.007,0.137,0.007c5.521,0,10-4.477,10-10C356.829-72.704,352.685-77.035,347.457-77.36z"/>
</g>
<g>
	<path d="M145.03,11.997c-1.596-7.445-8.207-13.029-16.127-13.029c-6.423,0-11.977,3.678-14.702,9.035
		c-0.266-0.018-0.53-0.04-0.8-0.04c-6.627,0-11.999,5.372-11.999,12c0,6.607,5.34,11.965,11.938,11.998v0.003h2.062v-2h-1.604
		l-0.447-0.003c-5.485-0.027-9.948-4.513-9.948-9.998c0-5.514,4.485-10,9.999-10c0.175,0,0.347,0.014,0.52,0.025l0.148,0.01
		l1.316,0.088l0.598-1.176c2.492-4.899,7.443-7.942,12.92-7.942c6.79,0,12.75,4.814,14.172,11.448l0.317,1.482l1.514,0.095
		c4.203,0.262,7.496,3.763,7.496,7.971c0,4.397-3.565,7.977-7.957,8c-0.05-0.003-0.093-0.005-0.137-0.007l-2.043,0.007h-2.863v2
		h4.863v-0.007c0.046,0.001,0.091,0.007,0.137,0.007c5.521,0,10-4.477,10-10C154.402,16.653,150.258,12.322,145.03,11.997z"/>
	<polygon points="126.402,38.992 126.402,40.933 126.402,46.992 128.402,46.992 128.402,40.933 128.402,38.992 128.402,26.992 
		126.402,26.992 	"/>
	<polygon points="134.402,34.992 134.402,36.745 134.402,42.992 136.402,42.992 136.402,36.745 136.402,34.992 136.402,22.992 
		134.402,22.992 	"/>
	<polygon points="118.402,34.992 118.402,37.058 118.402,42.992 120.402,42.992 120.402,37.058 120.402,34.992 120.402,22.992 
		118.402,22.992 	"/>
</g>
<g>
	<polygon points="440.68,35.903 433.797,26.073 432.159,27.221 439.042,37.051 440.154,38.64 443.63,43.604 445.269,42.457 
		441.793,37.492 	"/>
	<polygon points="448.682,35.901 441.797,26.073 440.159,27.222 447.045,37.05 448.05,38.485 451.634,43.601 453.272,42.454 
		449.688,37.338 	"/>
	<polygon points="432.68,35.903 425.797,26.073 424.159,27.222 431.042,37.051 432.227,38.743 435.631,43.604 437.269,42.457 
		433.865,37.596 	"/>
	<path d="M451.787,12.264c-1.596-7.445-8.207-13.029-16.127-13.029c-6.423,0-11.977,3.678-14.702,9.035
		c-0.266-0.018-0.53-0.04-0.8-0.04c-6.627,0-11.999,5.372-11.999,12c0,6.607,5.34,11.965,11.938,11.998v0.003h2.062v-2h-1.604
		l-0.447-0.003c-5.485-0.027-9.948-4.513-9.948-9.998c0-5.514,4.485-10,9.999-10c0.175,0,0.347,0.014,0.52,0.025l0.148,0.01
		l1.316,0.088l0.598-1.176c2.492-4.899,7.443-7.942,12.92-7.942c6.79,0,12.75,4.814,14.172,11.448l0.317,1.482l1.514,0.095
		c4.203,0.262,7.496,3.763,7.496,7.971c0,4.397-3.565,7.977-7.957,8c-0.05-0.003-0.093-0.005-0.137-0.007l-1.043,0.007h0.137v2
		h0.863v-0.007c0.046,0.001,0.091,0.007,0.137,0.007c5.521,0,10-4.477,10-10C461.159,16.92,457.015,12.589,451.787,12.264z"/>
</g>
<g>
	<rect x="423.485" y="-96.818" width="2" height="7.973"/>
	<rect x="404.485" y="-77.904" width="7.973" height="2"/>
	<rect x="409.158" y="-89.171" transform="matrix(0.7071 0.7071 -0.7071 0.7071 58.6613 -317.9626)" width="7.974" height="2"/>
	<rect x="434.667" y="-92.153" transform="matrix(0.7071 0.7071 -0.7071 0.7071 65.2604 -333.8866)" width="2" height="7.972"/>
	<rect x="437.485" y="-55.945" width="2" height="7"/>
	<rect x="445.485" y="-59.945" width="2" height="7"/>
	<rect x="429.485" y="-59.945" width="2" height="7"/>
	<rect x="437.485" y="-45.945" width="2" height="7"/>
	<rect x="445.485" y="-49.945" width="2" height="7"/>
	<rect x="429.485" y="-49.945" width="2" height="7"/>
	<path d="M453.997-71.028c-1.444-6.742-7.433-11.8-14.605-11.8c-2.185,0-4.258,0.47-6.126,1.313
		c-1.667-3.202-5.007-5.394-8.866-5.394c-5.522,0-10,4.477-10,9.999c0,2.46,0.899,4.702,2.373,6.442
		c-1.429,1.84-2.287,4.144-2.287,6.653c0,5.983,4.836,10.836,10.813,10.865v0.003h1.188v-2h-0.721l-0.457-0.003
		c-4.864-0.023-8.822-4.001-8.822-8.865c0-4.89,3.978-8.868,8.867-8.868c0.15,0,0.299,0.012,0.447,0.022l0.148,0.01l1.314,0.085
		l0.597-1.175c2.225-4.372,6.644-7.089,11.532-7.089c6.062,0,11.382,4.298,12.649,10.219l0.318,1.483l1.514,0.094
		c3.708,0.23,6.612,3.319,6.612,7.03c0,3.878-3.144,7.035-7.017,7.057c-0.042-0.003-0.079-0.005-0.117-0.005l-2.047,0.005h-0.819v2
		h2.819v-0.006c0.042,0.001,0.082,0.006,0.124,0.006c5.001,0,9.057-4.054,9.057-9.057C462.485-66.812,458.731-70.733,453.997-71.028
		z M426.077-74.646c-0.241-0.016-0.48-0.036-0.725-0.036c-2.766,0-5.282,1.041-7.2,2.743c-1.092-1.366-1.753-3.09-1.753-4.971
		c0-4.41,3.589-7.999,8-7.999c3.091,0,5.76,1.773,7.091,4.345C429.192-79.123,427.313-77.075,426.077-74.646z"/>
</g>
<g>
	<rect x="537.902" y="-57.393" width="2" height="7"/>
	<rect x="545.902" y="-61.393" width="2" height="7"/>
	<rect x="529.902" y="-61.393" width="2" height="7"/>
	<rect x="537.902" y="-47.393" width="2" height="7"/>
	<rect x="545.902" y="-51.393" width="2" height="7"/>
	<rect x="529.902" y="-51.393" width="2" height="7"/>
	<path d="M554.414-72.476c-1.444-6.742-7.433-11.8-14.605-11.8c-1.799,0-3.522,0.32-5.118,0.904
		c-0.949-5.108-5.404-8.98-10.788-8.98c-0.413,0-0.819,0.027-1.222,0.071c0.744,1.112,1.179,2.448,1.179,3.886c0,3.865-3.134,7-7,7
		c-1.438,0-2.773-0.435-3.886-1.179c-0.044,0.401-0.071,0.809-0.071,1.222c0,3.712,1.845,6.987,4.661,8.979
		c-1.653,1.907-2.661,4.389-2.661,7.111c0,5.983,4.836,10.836,10.813,10.865v0.003h1.188v-2h-0.721l-0.457-0.003
		c-4.864-0.023-8.822-4.001-8.822-8.865c0-4.89,3.978-8.868,8.867-8.868c0.15,0,0.299,0.012,0.447,0.022l0.148,0.01l1.314,0.085
		l0.597-1.175c2.225-4.372,6.644-7.089,11.532-7.089c6.062,0,11.382,4.298,12.649,10.219l0.318,1.483l1.514,0.094
		c3.708,0.23,6.612,3.319,6.612,7.03c0,3.878-3.144,7.035-7.017,7.057c-0.042-0.003-0.079-0.005-0.117-0.005l-2.047,0.005h-0.819v2
		h2.819v-0.006c0.042,0.001,0.082,0.006,0.124,0.006c5.001,0,9.057-4.054,9.057-9.057C562.902-68.259,559.148-72.181,554.414-72.476
		z M526.494-76.093c-0.241-0.016-0.48-0.036-0.725-0.036c-2.537,0-4.865,0.876-6.715,2.334c-2.012-1.294-3.487-3.354-3.976-5.776
		c0.582,0.117,1.178,0.177,1.78,0.177c4.963,0,9-4.037,9-9c0-0.603-0.06-1.198-0.177-1.78c3.733,0.753,6.629,3.824,7.133,7.64
		C530.104-81.091,527.89-78.836,526.494-76.093z"/>
</g>
<g>
	<polygon points="230.672,43.431 230.672,45.371 230.672,51.431 232.672,51.431 232.672,45.371 232.672,43.431 232.672,31.431 
		230.672,31.431 	"/>
	<polygon points="238.672,39.431 238.672,41.184 238.672,47.431 240.672,47.431 240.672,41.184 240.672,39.431 240.672,27.431 
		238.672,27.431 	"/>
	<polygon points="222.672,39.431 222.672,41.496 222.672,47.431 224.672,47.431 224.672,41.496 224.672,39.431 224.672,27.431 
		222.672,27.431 	"/>
	<rect x="216.672" y="-7.472" width="2" height="7.973"/>
	<rect x="197.672" y="11.442" width="7.973" height="2"/>
	<rect x="202.345" y="0.176" transform="matrix(0.7071 0.7071 -0.7071 0.7071 61.2647 -145.5544)" width="7.974" height="2"/>
	<rect x="227.854" y="-2.806" transform="matrix(0.7071 0.7071 -0.7071 0.7071 67.8638 -161.4783)" width="2" height="7.972"/>
	<path d="M247.184,18.318c-1.444-6.742-7.433-11.8-14.605-11.8c-2.185,0-4.258,0.47-6.127,1.313
		c-1.666-3.202-5.006-5.394-8.865-5.394c-5.522,0-10,4.477-10,9.999c0,2.46,0.898,4.702,2.373,6.442
		c-1.428,1.84-2.287,4.144-2.287,6.653c0,5.983,4.836,10.836,10.813,10.865v0.003h1.188v-2h-0.721l-0.457-0.003
		c-4.864-0.023-8.822-4.001-8.822-8.865c0-4.89,3.978-8.868,8.867-8.868c0.15,0,0.299,0.012,0.447,0.022l0.148,0.01l1.314,0.085
		l0.597-1.175c2.225-4.372,6.644-7.089,11.532-7.089c6.062,0,11.382,4.298,12.649,10.219l0.318,1.483l1.514,0.094
		c3.708,0.23,6.612,3.319,6.612,7.03c0,3.878-3.144,7.035-7.017,7.057c-0.042-0.003-0.079-0.005-0.117-0.005l-2.047,0.005h-0.819v2
		h2.819v-0.006c0.042,0.001,0.082,0.006,0.124,0.006c5.001,0,9.057-4.054,9.057-9.057C255.672,22.535,251.918,18.613,247.184,18.318
		z M219.264,14.701c-0.241-0.016-0.48-0.036-0.725-0.036c-2.766,0-5.281,1.042-7.2,2.743c-1.092-1.367-1.753-3.09-1.753-4.971
		c0-4.41,3.589-7.999,8-7.999c3.092,0,5.76,1.773,7.092,4.345C222.379,10.223,220.5,12.271,219.264,14.701z"/>
</g>
<g>
	<polygon points="331.069,40.914 331.069,42.854 331.069,48.914 333.069,48.914 333.069,42.854 333.069,40.914 333.069,28.914 
		331.069,28.914 	"/>
	<polygon points="339.069,36.914 339.069,38.667 339.069,44.914 341.069,44.914 341.069,38.667 341.069,36.914 341.069,24.914 
		339.069,24.914 	"/>
	<polygon points="323.069,36.914 323.069,38.979 323.069,44.914 325.069,44.914 325.069,38.979 325.069,36.914 325.069,24.914 
		323.069,24.914 	"/>
	<path d="M347.581,15.802c-1.444-6.742-7.433-11.8-14.605-11.8c-1.799,0-3.521,0.32-5.118,0.904
		c-0.949-5.108-5.404-8.98-10.788-8.98c-0.413,0-0.819,0.027-1.222,0.071c0.744,1.112,1.179,2.448,1.179,3.886c0,3.865-3.134,7-7,7
		c-1.438,0-2.773-0.435-3.886-1.179c-0.044,0.401-0.071,0.809-0.071,1.222c0,3.712,1.845,6.987,4.661,8.979
		c-1.653,1.907-2.661,4.389-2.661,7.111c0,5.983,4.836,10.836,10.813,10.865v0.003h1.188v-2h-0.721l-0.457-0.003
		c-4.864-0.023-8.822-4.001-8.822-8.865c0-4.89,3.978-8.868,8.867-8.868c0.15,0,0.299,0.012,0.447,0.022l0.148,0.01l1.314,0.085
		l0.597-1.175c2.225-4.372,6.644-7.089,11.532-7.089c6.062,0,11.382,4.298,12.649,10.219l0.318,1.483l1.514,0.094
		c3.708,0.23,6.612,3.319,6.612,7.03c0,3.878-3.144,7.035-7.017,7.057c-0.042-0.003-0.079-0.005-0.117-0.005l-2.047,0.005h-0.819v2
		h2.819v-0.006c0.042,0.001,0.082,0.006,0.124,0.006c5.001,0,9.057-4.054,9.057-9.057C356.069,20.019,352.315,16.097,347.581,15.802
		z M319.661,12.185c-0.241-0.016-0.48-0.036-0.725-0.036c-2.537,0-4.865,0.876-6.715,2.334c-2.012-1.294-3.486-3.354-3.976-5.776
		c0.582,0.117,1.178,0.177,1.78,0.177c4.963,0,9-4.037,9-9c0-0.603-0.06-1.198-0.177-1.78c3.733,0.753,6.629,3.824,7.134,7.641
		C323.271,7.187,321.056,9.442,319.661,12.185z"/>
</g>
<g>
	<polygon points="548.104,41.858 541.222,32.028 539.584,33.176 546.467,43.006 547.579,44.595 551.055,49.559 552.693,48.412 
		549.218,43.447 	"/>
	<polygon points="556.106,41.856 549.222,32.028 547.584,33.177 554.47,43.005 555.475,44.44 559.059,49.556 560.697,48.409 
		557.113,43.293 	"/>
	<polygon points="540.104,41.858 533.222,32.028 531.584,33.177 538.467,43.006 539.651,44.698 543.056,49.56 544.693,48.412 
		541.29,43.551 	"/>
	<rect x="527.584" y="-5.69" width="2" height="7.973"/>
	<rect x="508.584" y="13.224" width="7.973" height="2"/>
	<rect x="513.257" y="1.957" transform="matrix(0.7071 0.7071 -0.7071 0.7071 153.5883 -364.8807)" width="7.974" height="2"/>
	<rect x="538.766" y="-1.025" transform="matrix(0.7071 0.7071 -0.7071 0.7071 160.1874 -380.8047)" width="2" height="7.972"/>
	<path d="M558.096,20.1c-1.444-6.742-7.433-11.8-14.605-11.8c-2.185,0-4.258,0.47-6.126,1.313c-1.667-3.202-5.007-5.394-8.866-5.394
		c-5.522,0-10,4.477-10,9.999c0,2.46,0.899,4.702,2.373,6.442c-1.429,1.84-2.287,4.144-2.287,6.653
		c0,5.983,4.836,10.836,10.813,10.865v0.003h1.188v-2h-0.721l-0.457-0.003c-4.864-0.023-8.822-4.001-8.822-8.865
		c0-4.89,3.978-8.868,8.867-8.868c0.15,0,0.299,0.012,0.447,0.022l0.148,0.01l1.314,0.085l0.597-1.175
		c2.225-4.372,6.644-7.089,11.532-7.089c6.062,0,11.382,4.298,12.649,10.219l0.318,1.483l1.514,0.094
		c3.708,0.23,6.612,3.319,6.612,7.03c0,3.878-3.144,7.035-7.017,7.057c-0.042-0.003-0.079-0.005-0.117-0.005l-0.047,0.005h-0.819v2
		h0.819v-0.006c0.042,0.001,0.082,0.006,0.124,0.006c5.001,0,9.057-4.054,9.057-9.057C566.584,24.316,562.83,20.395,558.096,20.1z
		 M530.176,16.482c-0.241-0.016-0.48-0.036-0.725-0.036c-2.766,0-5.282,1.042-7.2,2.743c-1.092-1.367-1.753-3.09-1.753-4.971
		c0-4.41,3.589-7.999,8-7.999c3.091,0,5.76,1.773,7.091,4.345C533.291,12.004,531.411,14.053,530.176,16.482z"/>
</g>
<g>
	<polygon points="-175.326,138.344 -182.209,128.514 -183.847,129.661 -176.964,139.491 -175.852,141.08 -172.376,146.044 
		-170.737,144.897 -174.213,139.933 	"/>
	<polygon points="-167.324,138.342 -174.209,128.514 -175.847,129.662 -168.961,139.49 -167.956,140.926 -164.372,146.041 
		-162.733,144.895 -166.317,139.778 	"/>
	<polygon points="-183.326,138.344 -190.209,128.514 -191.847,129.662 -184.964,139.491 -183.779,141.184 -180.375,146.045 
		-178.737,144.897 -182.141,140.036 	"/>
	<path d="M-165.335,116.585c-1.444-6.742-7.433-11.8-14.605-11.8c-1.799,0-3.522,0.32-5.118,0.904
		c-0.949-5.108-5.404-8.98-10.788-8.98c-0.413,0-0.819,0.027-1.222,0.071c0.744,1.112,1.179,2.448,1.179,3.886c0,3.865-3.134,7-7,7
		c-1.438,0-2.773-0.435-3.886-1.179c-0.044,0.401-0.071,0.809-0.071,1.222c0,3.712,1.845,6.987,4.661,8.979
		c-1.653,1.907-2.661,4.389-2.661,7.111c0,5.983,4.836,10.836,10.813,10.865v0.003h1.188v-2h-0.721l-0.457-0.003
		c-4.864-0.023-8.822-4.001-8.822-8.865c0-4.89,3.978-8.868,8.867-8.868c0.15,0,0.299,0.012,0.447,0.022l0.148,0.01l1.314,0.085
		l0.597-1.175c2.225-4.372,6.644-7.089,11.532-7.089c6.062,0,11.382,4.298,12.649,10.219l0.318,1.483l1.514,0.094
		c3.708,0.23,6.612,3.319,6.612,7.03c0,3.878-3.144,7.035-7.017,7.057c-0.042-0.003-0.079-0.005-0.117-0.005l-0.047,0.005h-0.819v2
		h0.819v-0.006c0.042,0.001,0.082,0.006,0.124,0.006c5.001,0,9.057-4.054,9.057-9.057
		C-156.847,120.802-160.601,116.88-165.335,116.585z M-193.255,112.968c-0.241-0.016-0.48-0.036-0.725-0.036
		c-2.537,0-4.865,0.876-6.715,2.334c-2.012-1.294-3.487-3.354-3.976-5.776c0.582,0.117,1.178,0.177,1.78,0.177c4.963,0,9-4.037,9-9
		c0-0.603-0.06-1.198-0.177-1.78c3.733,0.753,6.629,3.824,7.133,7.641C-189.645,107.97-191.859,110.226-193.255,112.968z"/>
</g>
<g>
	<rect x="-182.847" y="34.497" width="2" height="4"/>
	<rect x="-174.847" y="30.476" width="2" height="4.021"/>
	<rect x="-190.847" y="30.476" width="2" height="4.021"/>
	<path d="M-164.219,14.509c-1.596-7.445-8.207-13.029-16.127-13.029c-6.423,0-11.977,3.678-14.702,9.035
		c-0.266-0.018-0.53-0.04-0.8-0.04c-6.627,0-11.999,5.372-11.999,12c0,6.607,5.34,11.965,11.938,11.998v0.003h2.062v-2h-1.604
		l-0.447-0.003c-5.485-0.027-9.948-4.513-9.948-9.998c0-5.514,4.485-10,9.999-10c0.175,0,0.347,0.014,0.52,0.025l0.148,0.01
		l1.316,0.088l0.598-1.176c2.492-4.899,7.443-7.942,12.92-7.942c6.79,0,12.75,4.814,14.172,11.448l0.317,1.482l1.514,0.095
		c4.203,0.262,7.496,3.763,7.496,7.971c0,4.397-3.565,7.977-7.957,8c-0.05-0.003-0.093-0.005-0.137-0.007l-2.043,0.007h-2.863v2
		h4.863v-0.007c0.046,0.001,0.091,0.007,0.137,0.007c5.521,0,10-4.477,10-10C-154.847,19.165-158.991,14.834-164.219,14.509z"/>
	<circle cx="-173.847" cy="39.518" r="1.5"/>
	<circle cx="-181.847" cy="43.486" r="1.5"/>
	<circle cx="-189.847" cy="39.476" r="1.5"/>
</g>
<g>
	<rect x="-89.926" y="-4.957" width="2" height="7.973"/>
	<rect x="-108.926" y="13.957" width="7.973" height="2"/>
	<rect x="-104.253" y="2.691" transform="matrix(0.7071 0.7071 -0.7071 0.7071 -26.7576 71.9794)" width="7.974" height="2"/>
	<rect x="-78.744" y="-0.291" transform="matrix(0.7071 0.7071 -0.7071 0.7071 -20.1584 56.0555)" width="2" height="7.972"/>
	<path d="M-59.414,20.833c-1.444-6.742-7.433-11.8-14.605-11.8c-2.185,0-4.258,0.47-6.126,1.313
		c-1.667-3.202-5.007-5.394-8.866-5.394c-5.522,0-10,4.477-10,9.999c0,2.46,0.899,4.702,2.373,6.442
		c-1.429,1.84-2.287,4.144-2.287,6.653c0,5.983,4.836,10.836,10.813,10.865v0.003h1.188v-2h-0.721l-0.457-0.003
		c-4.864-0.023-8.822-4.001-8.822-8.865c0-4.89,3.978-8.868,8.867-8.868c0.15,0,0.299,0.012,0.447,0.022l0.148,0.01l1.314,0.085
		l0.597-1.175c2.225-4.372,6.644-7.089,11.532-7.089c6.062,0,11.382,4.298,12.649,10.219l0.318,1.483l1.514,0.094
		c3.708,0.23,6.612,3.319,6.612,7.03c0,3.878-3.144,7.035-7.017,7.057c-0.042-0.003-0.079-0.005-0.117-0.005l-2.047,0.005h-0.819v2
		h2.819V38.91c0.042,0.001,0.082,0.006,0.124,0.006c5.001,0,9.057-4.054,9.057-9.057C-50.926,25.05-54.68,21.128-59.414,20.833z
		 M-87.334,17.216c-0.241-0.016-0.48-0.036-0.725-0.036c-2.766,0-5.282,1.042-7.2,2.743c-1.092-1.367-1.753-3.09-1.753-4.971
		c0-4.41,3.589-7.999,8-7.999c3.091,0,5.76,1.773,7.091,4.345C-84.219,12.737-86.099,14.786-87.334,17.216z"/>
	<rect x="-75.926" y="38.932" width="2" height="4"/>
	<rect x="-67.926" y="34.91" width="2" height="4.021"/>
	<rect x="-83.926" y="34.91" width="2" height="4.021"/>
	<circle cx="-66.926" cy="43.952" r="1.5"/>
	<circle cx="-74.926" cy="47.921" r="1.5"/>
	<circle cx="-82.926" cy="43.91" r="1.5"/>
</g>
<g>
	<path d="M41.512,19.876c-1.444-6.742-7.433-11.8-14.605-11.8c-1.799,0-3.522,0.32-5.118,0.904C20.839,3.872,16.384,0,11,0
		c-0.413,0-0.819,0.027-1.222,0.071c0.744,1.112,1.179,2.448,1.179,3.886c0,3.865-3.134,7-7,7c-1.438,0-2.773-0.435-3.886-1.179
		C0.027,10.18,0,10.587,0,11c0,3.712,1.845,6.987,4.661,8.979C3.008,21.887,2,24.368,2,27.091c0,5.983,4.836,10.836,10.813,10.865
		v0.003H14v-2h-0.721l-0.457-0.003C7.958,35.933,4,31.955,4,27.091c0-4.89,3.978-8.868,8.867-8.868c0.15,0,0.299,0.012,0.447,0.022
		l0.148,0.01l1.314,0.085l0.597-1.175c2.225-4.372,6.644-7.089,11.532-7.089c6.062,0,11.382,4.298,12.649,10.219l0.318,1.483
		l1.514,0.094c3.708,0.23,6.612,3.319,6.612,7.03c0,3.878-3.144,7.035-7.017,7.057c-0.042-0.003-0.079-0.005-0.117-0.005
		l-2.047,0.005H38v2h2.819v-0.006c0.042,0.001,0.082,0.006,0.124,0.006c5.001,0,9.057-4.054,9.057-9.057
		C50,24.093,46.246,20.171,41.512,19.876z M13.592,16.259c-0.241-0.016-0.48-0.036-0.725-0.036c-2.537,0-4.865,0.876-6.715,2.334
		c-2.012-1.294-3.487-3.354-3.976-5.776c0.582,0.117,1.178,0.177,1.78,0.177c4.963,0,9-4.037,9-9c0-0.603-0.06-1.198-0.177-1.78
		c3.733,0.753,6.629,3.824,7.133,7.641C17.202,11.261,14.987,13.517,13.592,16.259z"/>
	<rect x="25" y="37.975" width="2" height="4"/>
	<rect x="33" y="33.953" width="2" height="4.021"/>
	<rect x="17" y="33.953" width="2" height="4.021"/>
	<circle cx="34" cy="42.995" r="1.5"/>
	<circle cx="26" cy="46.964" r="1.5"/>
	<circle cx="18" cy="42.953" r="1.5"/>
</g>
<g>
	<path d="M-61.798,112.906c-1.596-7.445-8.207-13.029-16.127-13.029c-6.423,0-11.977,3.678-14.702,9.035
		c-0.266-0.018-0.53-0.04-0.8-0.04c-6.627,0-11.999,5.372-11.999,12c0,6.607,5.34,11.965,11.938,11.998v0.003h6.062v-2h-5.604
		l-0.447-0.003c-5.485-0.027-9.948-4.513-9.948-9.998c0-5.514,4.485-10,9.999-10c0.175,0,0.347,0.014,0.52,0.025l0.148,0.01
		l1.316,0.088l0.598-1.176c2.492-4.899,7.443-7.942,12.92-7.942c6.79,0,12.75,4.814,14.172,11.448l0.317,1.482l1.514,0.095
		c4.203,0.262,7.496,3.763,7.496,7.971c0,4.397-3.565,7.977-7.957,8c-0.05-0.003-0.093-0.005-0.137-0.007l-5.043,0.007h0.137v2
		h4.863v-0.007c0.046,0.001,0.091,0.007,0.137,0.007c5.521,0,10-4.477,10-10C-52.426,117.563-56.57,113.231-61.798,112.906z"/>
	<polygon points="-77.584,132.877 -75.814,132.877 -75.384,132.877 -73.374,132.877 -79.788,123.716 -81.426,124.863 
		-77.215,130.877 -78.985,130.877 -81.426,130.877 -80.154,132.693 -79.042,134.282 -73.064,142.877 -71.426,141.73 
		-77.403,133.135 	"/>
</g>
<g>
	<rect x="14" y="93.776" width="2" height="7.973"/>
	<rect x="-5" y="112.69" width="7.973" height="2"/>
	<rect x="-0.327" y="101.424" transform="matrix(0.7071 0.7071 -0.7071 0.7071 73.4966 27.4111)" width="7.974" height="2"/>
	<rect x="25.182" y="98.442" transform="matrix(0.7071 0.7071 -0.7071 0.7071 80.0958 11.4872)" width="2" height="7.972"/>
	<path d="M44.512,119.566c-1.444-6.742-7.433-11.8-14.605-11.8c-2.185,0-4.258,0.47-6.127,1.313
		c-1.666-3.202-5.006-5.394-8.865-5.394c-5.522,0-10,4.477-10,9.999c0,2.46,0.898,4.702,2.373,6.442
		C5.859,121.968,5,124.271,5,126.781c0,5.983,4.836,10.836,10.813,10.865v0.003H20v-2h-3.721l-0.457-0.003
		C10.958,135.623,7,131.646,7,126.781c0-4.89,3.978-8.868,8.867-8.868c0.15,0,0.299,0.012,0.447,0.022l0.148,0.01l1.314,0.085
		l0.597-1.175c2.225-4.372,6.644-7.089,11.532-7.089c6.062,0,11.382,4.298,12.649,10.219l0.318,1.483l1.514,0.094
		c3.708,0.23,6.612,3.319,6.612,7.03c0,3.878-3.144,7.035-7.017,7.057c-0.042-0.003-0.079-0.005-0.117-0.005l-2.047,0.005H38v2
		h5.819v-0.006c0.042,0.001,0.082,0.006,0.124,0.006c5.001,0,9.057-4.054,9.057-9.057C53,123.783,49.246,119.861,44.512,119.566z
		 M16.592,115.949c-0.241-0.016-0.48-0.036-0.725-0.036c-2.766,0-5.281,1.041-7.2,2.743c-1.092-1.366-1.753-3.09-1.753-4.971
		c0-4.41,3.589-7.999,8-7.999c3.092,0,5.76,1.773,7.092,4.345C19.707,111.472,17.828,113.52,16.592,115.949z"/>
	<polygon points="28.842,137.656 30.611,137.656 31.042,137.656 33.052,137.656 26.638,128.495 25,129.643 29.211,135.656 
		27.44,135.656 25,135.656 26.271,137.473 27.384,139.062 33.361,147.656 35,146.51 29.022,137.914 	"/>
</g>
<g>
	<path d="M144.097,117.271c-1.444-6.742-7.433-11.8-14.605-11.8c-1.799,0-3.521,0.32-5.118,0.904
		c-0.949-5.108-5.404-8.98-10.788-8.98c-0.413,0-0.819,0.027-1.222,0.071c0.744,1.112,1.179,2.448,1.179,3.886c0,3.865-3.134,7-7,7
		c-1.438,0-2.773-0.435-3.886-1.179c-0.044,0.401-0.071,0.809-0.071,1.222c0,3.712,1.845,6.987,4.661,8.979
		c-1.653,1.907-2.661,4.389-2.661,7.111c0,5.983,4.836,10.836,10.813,10.865v0.003h4.188v-2h-3.721l-0.457-0.003
		c-4.864-0.023-8.822-4.001-8.822-8.865c0-4.89,3.978-8.868,8.867-8.868c0.15,0,0.299,0.012,0.447,0.022l0.148,0.01l1.314,0.085
		l0.597-1.175c2.225-4.372,6.644-7.089,11.532-7.089c6.062,0,11.382,4.298,12.649,10.219l0.318,1.483l1.514,0.094
		c3.708,0.23,6.612,3.319,6.612,7.03c0,3.878-3.144,7.035-7.017,7.057c-0.042-0.003-0.079-0.005-0.117-0.005l-2.047,0.005h-3.819v2
		h5.819v-0.006c0.042,0.001,0.082,0.006,0.124,0.006c5.001,0,9.057-4.054,9.057-9.057
		C152.585,121.487,148.831,117.565,144.097,117.271z M116.177,113.653c-0.241-0.016-0.48-0.036-0.725-0.036
		c-2.537,0-4.865,0.876-6.715,2.334c-2.012-1.294-3.486-3.354-3.976-5.776c0.582,0.117,1.178,0.177,1.78,0.177c4.963,0,9-4.037,9-9
		c0-0.603-0.06-1.198-0.177-1.78c3.733,0.753,6.629,3.824,7.134,7.64C119.786,108.655,117.571,110.91,116.177,113.653z"/>
	<polygon points="128.427,135.36 130.196,135.36 130.627,135.36 132.637,135.36 126.223,126.199 124.585,127.347 128.796,133.36 
		127.025,133.36 124.585,133.36 125.856,135.177 126.969,136.766 132.946,145.36 134.585,144.214 128.607,135.618 	"/>
</g>
<g>
	<path d="M244.981,113.406c-1.596-7.445-8.207-13.029-16.127-13.029c-6.423,0-11.977,3.678-14.702,9.035
		c-0.266-0.018-0.53-0.04-0.8-0.04c-6.627,0-11.999,5.372-11.999,12c0,6.607,5.34,11.965,11.938,11.998v0.003h1.062v-2h-0.604
		l-0.447-0.003c-5.485-0.027-9.948-4.513-9.948-9.998c0-5.514,4.485-10,9.999-10c0.175,0,0.347,0.014,0.52,0.025l0.148,0.01
		l1.316,0.088l0.598-1.176c2.492-4.899,7.443-7.942,12.92-7.942c6.79,0,12.75,4.814,14.172,11.448l0.317,1.482l1.514,0.095
		c4.203,0.262,7.496,3.763,7.496,7.971c0,4.397-3.565,7.977-7.957,8c-0.05-0.003-0.093-0.005-0.137-0.007l-0.906,0.007v2h0.863
		v-0.007c0.046,0.001,0.091,0.007,0.137,0.007c5.521,0,10-4.477,10-10C254.354,118.063,250.209,113.731,244.981,113.406z"/>
	
		<rect x="213.788" y="131.371" transform="matrix(-0.5736 -0.8191 0.8191 -0.5736 236.7979 387.999)" width="11.183" height="1.999"/>
	
		<rect x="231.762" y="131.371" transform="matrix(-0.5736 -0.8191 0.8191 -0.5736 265.0834 402.7222)" width="11.183" height="1.999"/>
	<polygon points="230.195,136.377 231.965,136.377 232.396,136.377 234.405,136.377 227.991,127.216 226.354,128.363 
		230.564,134.377 228.794,134.377 226.354,134.377 227.625,136.193 228.737,137.782 233.354,144.377 234.992,143.23 
		230.376,136.635 	"/>
</g>
<g>
	<rect x="319.829" y="93.939" width="2" height="7.973"/>
	<rect x="300.829" y="112.854" width="7.973" height="2"/>
	<rect x="305.502" y="101.587" transform="matrix(0.7071 0.7071 -0.7071 0.7071 163.1872 -188.7949)" width="7.974" height="2"/>
	<rect x="331.011" y="98.605" transform="matrix(0.7071 0.7071 -0.7071 0.7071 169.7864 -204.7189)" width="2" height="7.972"/>
	<path d="M350.341,119.729c-1.444-6.742-7.433-11.8-14.605-11.8c-2.185,0-4.258,0.47-6.126,1.313
		c-1.667-3.202-5.007-5.394-8.866-5.394c-5.522,0-10,4.477-10,9.999c0,2.46,0.899,4.702,2.373,6.442
		c-1.429,1.84-2.287,4.144-2.287,6.653c0,5.983,4.836,10.836,10.813,10.865v0.003h0.188v-2l-0.178-0.003
		c-4.864-0.023-8.822-4.001-8.822-8.865c0-4.89,3.978-8.868,8.867-8.868c0.15,0,0.299,0.012,0.447,0.022l0.148,0.01l1.314,0.085
		l0.597-1.175c2.225-4.372,6.644-7.089,11.532-7.089c6.062,0,11.382,4.298,12.649,10.219l0.318,1.483l1.514,0.094
		c3.708,0.23,6.612,3.319,6.612,7.03c0,3.878-3.144,7.035-7.017,7.057c-0.042-0.003-0.079-0.005-0.117-0.005l-0.866,0.005v2h0.819
		v-0.006c0.042,0.001,0.082,0.006,0.124,0.006c5.001,0,9.057-4.054,9.057-9.057C358.829,123.946,355.075,120.024,350.341,119.729z
		 M322.421,116.112c-0.241-0.016-0.48-0.036-0.725-0.036c-2.766,0-5.282,1.042-7.2,2.743c-1.092-1.367-1.753-3.09-1.753-4.971
		c0-4.41,3.589-7.999,8-7.999c3.091,0,5.76,1.773,7.091,4.345C325.536,111.634,323.656,113.683,322.421,116.112z"/>
	
		<rect x="320.251" y="135.81" transform="matrix(-0.5736 -0.8191 0.8191 -0.5736 400.6964 482.1883)" width="11.183" height="1.999"/>
	
		<rect x="338.225" y="135.81" transform="matrix(-0.5736 -0.8191 0.8191 -0.5736 428.9819 496.9114)" width="11.183" height="1.999"/>
	<polygon points="336.658,140.815 338.428,140.815 338.858,140.815 340.868,140.815 334.454,131.654 332.816,132.802 
		337.027,138.815 335.257,138.815 332.816,138.815 334.088,140.632 335.2,142.221 339.816,148.815 341.455,147.669 336.839,141.073 
			"/>
</g>
<g>
	<path d="M452.179,116.771c-1.444-6.742-7.433-11.8-14.605-11.8c-1.799,0-3.522,0.32-5.118,0.904
		c-0.949-5.108-5.404-8.98-10.788-8.98c-0.413,0-0.819,0.027-1.222,0.071c0.744,1.112,1.179,2.448,1.179,3.886c0,3.865-3.134,7-7,7
		c-1.438,0-2.773-0.435-3.886-1.179c-0.044,0.401-0.071,0.809-0.071,1.222c0,3.712,1.845,6.987,4.661,8.979
		c-1.653,1.907-2.661,4.389-2.661,7.111c0,5.983,4.836,10.836,10.813,10.865v0.003h0.188v-2l-0.178-0.003
		c-4.864-0.023-8.822-4.001-8.822-8.865c0-4.89,3.978-8.868,8.867-8.868c0.15,0,0.299,0.012,0.447,0.022l0.148,0.01l1.314,0.085
		l0.597-1.175c2.225-4.372,6.644-7.089,11.532-7.089c6.062,0,11.382,4.298,12.649,10.219l0.318,1.483l1.514,0.094
		c3.708,0.23,6.612,3.319,6.612,7.03c0,3.878-3.144,7.035-7.017,7.057c-0.042-0.003-0.079-0.005-0.117-0.005l-0.866,0.005v2h0.819
		v-0.006c0.042,0.001,0.082,0.006,0.124,0.006c5.001,0,9.057-4.054,9.057-9.057C460.667,120.988,456.913,117.066,452.179,116.771z
		 M424.259,113.154c-0.241-0.016-0.48-0.036-0.725-0.036c-2.537,0-4.865,0.876-6.715,2.334c-2.012-1.294-3.487-3.354-3.976-5.776
		c0.582,0.117,1.178,0.177,1.78,0.177c4.963,0,9-4.037,9-9c0-0.603-0.06-1.198-0.177-1.78c3.733,0.753,6.629,3.824,7.133,7.641
		C427.869,108.156,425.654,110.412,424.259,113.154z"/>
	
		<rect x="422.088" y="132.852" transform="matrix(-0.5736 -0.8191 0.8191 -0.5736 563.3738 560.949)" width="11.183" height="1.999"/>
	
		<rect x="440.062" y="132.852" transform="matrix(-0.5736 -0.8191 0.8191 -0.5736 591.6593 575.6721)" width="11.183" height="1.999"/>
	<polygon points="438.495,137.857 440.265,137.857 440.695,137.857 442.705,137.857 436.291,128.696 434.653,129.844 
		438.864,135.857 437.094,135.857 434.653,135.857 435.925,137.674 437.037,139.263 441.653,145.857 443.292,144.711 
		438.676,138.115 	"/>
</g>
<g>
	<g>
		<path d="M41.616,203.227c-1.596-7.445-8.207-13.029-16.127-13.029c-6.423,0-11.977,3.678-14.702,9.035
			c-0.266-0.018-0.53-0.04-0.8-0.04c-6.627,0-11.999,5.372-11.999,12c0,6.607,5.34,11.965,11.938,11.998v0.003h2.062v-2h-1.604
			l-0.447-0.003c-5.485-0.027-9.948-4.513-9.948-9.998c0-5.514,4.485-10,9.999-10c0.175,0,0.347,0.014,0.52,0.025l0.148,0.01
			l1.316,0.088l0.598-1.176c2.492-4.899,7.443-7.942,12.92-7.942c6.79,0,12.75,4.814,14.172,11.448l0.317,1.482l1.514,0.095
			c4.203,0.262,7.496,3.763,7.496,7.971c0,4.397-3.565,7.977-7.957,8c-0.05-0.003-0.093-0.005-0.137-0.007l-2.043,0.007h-2.863v2
			h4.863v-0.007c0.046,0.001,0.091,0.007,0.137,0.007c5.521,0,10-4.477,10-10C50.988,207.883,46.844,203.552,41.616,203.227z"/>
	</g>
	<g>
		<circle cx="16.488" cy="216.77" r="1.5"/>
	</g>
	<g>
		<circle cx="20.488" cy="222.693" r="1.5"/>
	</g>
	<g>
		<circle cx="28.488" cy="222.693" r="1.5"/>
	</g>
	<g>
		<circle cx="24.488" cy="216.77" r="1.5"/>
	</g>
	<g>
		<circle cx="32.488" cy="216.77" r="1.5"/>
	</g>
	<g>
		<circle cx="16.488" cy="228.715" r="1.5"/>
	</g>
	<g>
		<circle cx="24.488" cy="228.715" r="1.5"/>
	</g>
	<g>
		<circle cx="32.488" cy="228.715" r="1.5"/>
	</g>
</g>
<g>
	<g>
		<rect x="117.402" y="187.749" width="2" height="7.973"/>
	</g>
	<g>
		<rect x="98.402" y="206.663" width="7.973" height="2"/>
	</g>
	<g>
		<rect x="103.075" y="195.397" transform="matrix(0.7071 0.7071 -0.7071 0.7071 170.2312 -18.1814)" width="7.974" height="2"/>
	</g>
	<g>
		<rect x="128.584" y="192.415" transform="matrix(0.7071 0.7071 -0.7071 0.7071 176.8303 -34.1054)" width="2" height="7.972"/>
	</g>
	<g>
		<path d="M147.914,213.539c-1.444-6.742-7.433-11.8-14.605-11.8c-2.185,0-4.258,0.47-6.127,1.313
			c-1.666-3.202-5.006-5.394-8.865-5.394c-5.522,0-10,4.477-10,9.999c0,2.46,0.898,4.702,2.373,6.442
			c-1.428,1.84-2.287,4.144-2.287,6.653c0,5.983,4.836,10.836,10.813,10.865v0.003h1.188v-2h-0.721l-0.457-0.003
			c-4.864-0.023-8.822-4.001-8.822-8.865c0-4.89,3.978-8.868,8.867-8.868c0.15,0,0.299,0.012,0.447,0.022l0.148,0.01l1.314,0.085
			l0.597-1.175c2.225-4.372,6.644-7.089,11.532-7.089c6.062,0,11.382,4.298,12.649,10.219l0.318,1.483l1.514,0.094
			c3.708,0.23,6.612,3.319,6.612,7.03c0,3.878-3.144,7.035-7.017,7.057c-0.042-0.003-0.079-0.005-0.117-0.005l-2.047,0.005h-1.819v2
			h3.819v-0.006c0.042,0.001,0.082,0.006,0.124,0.006c5.001,0,9.057-4.054,9.057-9.057
			C156.402,217.756,152.648,213.834,147.914,213.539z M119.994,209.922c-0.241-0.016-0.48-0.036-0.725-0.036
			c-2.766,0-5.281,1.042-7.2,2.743c-1.092-1.367-1.753-3.09-1.753-4.971c0-4.41,3.589-7.999,8-7.999c3.092,0,5.76,1.773,7.092,4.345
			C123.109,205.443,121.23,207.492,119.994,209.922z"/>
	</g>
	<g>
		<circle cx="123.892" cy="225.133" r="1.5"/>
	</g>
	<g>
		<circle cx="127.892" cy="231.133" r="1.5"/>
	</g>
	<g>
		<circle cx="135.892" cy="231.133" r="1.5"/>
	</g>
	<g>
		<circle cx="131.892" cy="225.133" r="1.5"/>
	</g>
	<g>
		<circle cx="139.892" cy="225.133" r="1.5"/>
	</g>
	<g>
		<circle cx="123.892" cy="237.154" r="1.5"/>
	</g>
	<g>
		<circle cx="131.892" cy="237.154" r="1.5"/>
	</g>
	<g>
		<circle cx="139.892" cy="237.154" r="1.5"/>
	</g>
</g>
<g>
	<g>
		<path d="M243.865,209.583c-1.444-6.742-7.433-11.8-14.605-11.8c-1.799,0-3.521,0.32-5.118,0.904
			c-0.949-5.108-5.404-8.98-10.788-8.98c-0.413,0-0.819,0.027-1.222,0.071c0.744,1.112,1.179,2.448,1.179,3.886c0,3.865-3.134,7-7,7
			c-1.438,0-2.773-0.435-3.886-1.179c-0.044,0.401-0.071,0.809-0.071,1.222c0,3.712,1.845,6.987,4.661,8.979
			c-1.653,1.907-2.661,4.389-2.661,7.111c0,5.983,4.836,10.836,10.813,10.865v0.003h1.188v-2h-0.721l-0.457-0.003
			c-4.864-0.023-8.822-4.001-8.822-8.865c0-4.89,3.978-8.868,8.867-8.868c0.15,0,0.299,0.012,0.447,0.022l0.148,0.01l1.314,0.085
			l0.597-1.175c2.225-4.372,6.644-7.089,11.532-7.089c6.062,0,11.382,4.298,12.649,10.219l0.318,1.483l1.514,0.094
			c3.708,0.23,6.612,3.319,6.612,7.03c0,3.878-3.144,7.035-7.017,7.057c-0.042-0.003-0.079-0.005-0.117-0.005l-2.047,0.005h-1.819v2
			h3.819v-0.006c0.042,0.001,0.082,0.006,0.124,0.006c5.001,0,9.057-4.054,9.057-9.057C252.354,213.8,248.6,209.878,243.865,209.583
			z M215.945,205.966c-0.241-0.016-0.48-0.036-0.725-0.036c-2.537,0-4.865,0.876-6.715,2.334c-2.012-1.294-3.486-3.354-3.976-5.776
			c0.582,0.117,1.178,0.177,1.78,0.177c4.963,0,9-4.037,9-9c0-0.603-0.06-1.198-0.177-1.78c3.733,0.753,6.629,3.824,7.134,7.64
			C219.555,200.968,217.34,203.223,215.945,205.966z"/>
	</g>
	<g>
		<circle cx="219.854" cy="221.176" r="1.5"/>
	</g>
	<g>
		<circle cx="223.854" cy="227.176" r="1.5"/>
	</g>
	<g>
		<circle cx="231.854" cy="227.176" r="1.5"/>
	</g>
	<g>
		<circle cx="227.854" cy="221.176" r="1.5"/>
	</g>
	<g>
		<circle cx="235.854" cy="221.176" r="1.5"/>
	</g>
	<g>
		<circle cx="219.854" cy="233.197" r="1.5"/>
	</g>
	<g>
		<circle cx="227.854" cy="233.197" r="1.5"/>
	</g>
	<g>
		<circle cx="235.854" cy="233.197" r="1.5"/>
	</g>
</g>
<g>
	<path d="M555.03,110.697c-1.596-7.445-8.207-13.029-16.127-13.029c-6.423,0-11.977,3.678-14.702,9.035
		c-0.266-0.018-0.53-0.04-0.8-0.04c-6.627,0-11.999,5.372-11.999,12c0,6.607,5.34,11.965,11.938,11.998v0.003h2.062v-2h-1.604
		l-0.447-0.003c-5.485-0.027-9.948-4.513-9.948-9.998c0-5.514,4.485-10,9.999-10c0.175,0,0.347,0.014,0.52,0.025l0.148,0.01
		l1.316,0.088l0.598-1.176c2.492-4.899,7.443-7.942,12.92-7.942c6.79,0,12.75,4.814,14.172,11.448l0.317,1.482l1.514,0.095
		c4.203,0.262,7.496,3.763,7.496,7.971c0,4.397-3.565,7.977-7.957,8c-0.05-0.003-0.093-0.005-0.137-0.007l-2.043,0.007h-2.863v2
		h4.863v-0.007c0.046,0.001,0.091,0.007,0.137,0.007c5.521,0,10-4.477,10-10C564.402,115.354,560.258,111.022,555.03,110.697z"/>
	<circle cx="529.402" cy="138.168" r="1.5"/>
	<circle cx="537.402" cy="144.168" r="1.5"/>
	<circle cx="545.402" cy="140.168" r="1.5"/>
	<rect x="528.402" y="121.692" width="2" height="11.976"/>
	<polygon points="538.402,139.633 538.402,137.692 538.402,125.692 536.402,125.692 536.402,137.692 536.402,139.633 
		536.402,139.668 538.402,139.668 	"/>
	<polygon points="546.402,135.445 546.402,133.692 546.402,121.692 544.402,121.692 544.402,133.692 544.402,135.445 
		544.402,135.668 546.402,135.668 	"/>
</g>
<g>
	<rect x="-193.347" y="182.311" width="2" height="7.973"/>
	<rect x="-212.347" y="201.225" width="7.973" height="2"/>
	<rect x="-207.674" y="189.958" transform="matrix(0.7071 0.7071 -0.7071 0.7071 75.3693 199.9584)" width="7.974" height="2"/>
	<rect x="-182.165" y="186.976" transform="matrix(0.7071 0.7071 -0.7071 0.7071 81.9684 184.0345)" width="2" height="7.972"/>
	<path d="M-162.835,208.101c-1.444-6.742-7.433-11.8-14.605-11.8c-2.185,0-4.258,0.47-6.126,1.313
		c-1.667-3.202-5.007-5.394-8.866-5.394c-5.522,0-10,4.477-10,9.999c0,2.46,0.899,4.702,2.373,6.442
		c-1.429,1.84-2.287,4.144-2.287,6.653c0,5.983,4.836,10.836,10.813,10.865v0.003h1.188v-2h-0.721l-0.457-0.003
		c-4.864-0.023-8.822-4.001-8.822-8.865c0-4.89,3.978-8.868,8.867-8.868c0.15,0,0.299,0.012,0.447,0.022l0.148,0.01l1.314,0.085
		l0.597-1.175c2.225-4.372,6.644-7.089,11.532-7.089c6.062,0,11.382,4.298,12.649,10.219l0.318,1.483l1.514,0.094
		c3.708,0.23,6.612,3.319,6.612,7.03c0,3.878-3.144,7.035-7.017,7.057c-0.042-0.003-0.079-0.005-0.117-0.005l-2.047,0.005h-0.819v2
		h2.819v-0.006c0.042,0.001,0.082,0.006,0.124,0.006c5.001,0,9.057-4.054,9.057-9.057
		C-154.347,212.317-158.101,208.396-162.835,208.101z M-190.755,204.483c-0.241-0.016-0.48-0.036-0.725-0.036
		c-2.766,0-5.282,1.041-7.2,2.743c-1.092-1.366-1.753-3.09-1.753-4.971c0-4.41,3.589-7.999,8-7.999c3.091,0,5.76,1.773,7.091,4.345
		C-187.64,200.006-189.52,202.054-190.755,204.483z"/>
	<circle cx="-186.356" cy="234.671" r="1.5"/>
	<circle cx="-178.356" cy="240.671" r="1.5"/>
	<circle cx="-170.356" cy="236.671" r="1.5"/>
	<rect x="-187.356" y="218.195" width="2" height="11.976"/>
	<polygon points="-177.356,236.136 -177.356,234.195 -177.356,222.195 -179.356,222.195 -179.356,234.195 -179.356,236.136 
		-179.356,236.171 -177.356,236.171 	"/>
	<polygon points="-169.356,231.948 -169.356,230.195 -169.356,218.195 -171.356,218.195 -171.356,230.195 -171.356,231.948 
		-171.356,232.171 -169.356,232.171 	"/>
</g>
<g>
	<path d="M-62.232,205.103c-1.444-6.742-7.433-11.8-14.605-11.8c-1.799,0-3.522,0.32-5.118,0.904
		c-0.949-5.108-5.404-8.98-10.788-8.98c-0.413,0-0.819,0.027-1.222,0.071c0.744,1.112,1.179,2.448,1.179,3.886c0,3.865-3.134,7-7,7
		c-1.438,0-2.773-0.435-3.886-1.179c-0.044,0.401-0.071,0.809-0.071,1.222c0,3.712,1.845,6.987,4.661,8.979
		c-1.653,1.907-2.661,4.389-2.661,7.111c0,5.983,4.836,10.836,10.813,10.865v0.003h1.188v-2h-0.721l-0.457-0.003
		c-4.864-0.023-8.822-4.001-8.822-8.865c0-4.89,3.978-8.868,8.867-8.868c0.15,0,0.299,0.012,0.447,0.022l0.148,0.01l1.314,0.085
		l0.597-1.175c2.225-4.372,6.644-7.089,11.532-7.089c6.062,0,11.382,4.298,12.649,10.219l0.318,1.483l1.514,0.094
		c3.708,0.23,6.612,3.319,6.612,7.03c0,3.878-3.144,7.035-7.017,7.057c-0.042-0.003-0.079-0.005-0.117-0.005l-2.047,0.005h-0.819v2
		h2.819v-0.006c0.042,0.001,0.082,0.006,0.124,0.006c5.001,0,9.057-4.054,9.057-9.057
		C-53.744,209.319-57.498,205.397-62.232,205.103z M-90.152,201.485c-0.241-0.016-0.48-0.036-0.725-0.036
		c-2.537,0-4.865,0.876-6.715,2.334c-2.012-1.294-3.487-3.354-3.976-5.776c0.582,0.117,1.178,0.177,1.78,0.177c4.963,0,9-4.037,9-9
		c0-0.603-0.06-1.198-0.177-1.78c3.733,0.753,6.629,3.824,7.133,7.64C-86.542,196.487-88.757,198.742-90.152,201.485z"/>
	<circle cx="-85.744" cy="231.677" r="1.5"/>
	<circle cx="-77.744" cy="237.677" r="1.5"/>
	<circle cx="-69.744" cy="233.677" r="1.5"/>
	<rect x="-86.744" y="215.201" width="2" height="11.976"/>
	<polygon points="-76.744,233.142 -76.744,231.201 -76.744,219.201 -78.744,219.201 -78.744,231.201 -78.744,233.142 
		-78.744,233.177 -76.744,233.177 	"/>
	<polygon points="-68.744,228.954 -68.744,227.201 -68.744,215.201 -70.744,215.201 -70.744,227.201 -70.744,228.954 
		-70.744,229.177 -68.744,229.177 	"/>
</g>
<g>
	<rect x="-210.347" y="309.543" width="56" height="2"/>
	<rect x="-206.347" y="315.543" width="50" height="2"/>
	<rect x="-200.347" y="321.543" width="36" height="2"/>
	<rect x="-208.347" y="303.543" width="52" height="2"/>
	<path d="M-196.473,295.538c0.175,0,0.347,0.014,0.519,0.025l0.149,0.01l1.316,0.088l0.598-1.176
		c2.493-4.899,7.443-7.942,12.92-7.942c6.79,0,12.75,4.814,14.171,11.448l0.318,1.482l1.514,0.095
		c1.207,0.075,2.335,0.425,3.336,0.975h3.286c-1.678-1.703-3.957-2.813-6.498-2.971c-1.596-7.445-8.207-13.029-16.127-13.029
		c-6.423,0-11.977,3.678-14.702,9.035c-0.266-0.018-0.53-0.04-0.8-0.04c-4.843,0-9.004,2.874-10.9,7.005h2.251
		C-203.391,297.557-200.166,295.538-196.473,295.538z"/>
</g>
<g>
	<rect x="-89.244" y="282.028" width="2" height="7.973"/>
	<rect x="-108.244" y="300.942" width="7.973" height="2"/>
	<rect x="-103.571" y="289.676" transform="matrix(0.7071 0.7071 -0.7071 0.7071 176.3713 155.5535)" width="7.974" height="2"/>
	<rect x="-78.062" y="286.694" transform="matrix(0.7071 0.7071 -0.7071 0.7071 182.9705 139.6295)" width="2" height="7.972"/>
	<rect x="-99.244" y="315.902" width="50" height="2"/>
	<rect x="-95.244" y="321.902" width="44" height="2"/>
	<rect x="-89.244" y="326.902" width="30" height="2"/>
	<rect x="-97.244" y="309.902" width="46" height="2"/>
	<path d="M-96.336,307.902h0.771h1.927h1.012c1.472-1.087,3.283-1.737,5.249-1.737c0.15,0,0.299,0.012,0.447,0.022l0.148,0.01
		l1.314,0.085l0.597-1.175c2.225-4.372,6.644-7.089,11.532-7.089c5.945,0,11.168,4.139,12.563,9.884h2.043v-0.084
		c-1.444-6.742-7.433-11.8-14.605-11.8c-2.185,0-4.258,0.47-6.126,1.313c-1.667-3.202-5.007-5.394-8.866-5.394
		c-5.522,0-10,4.477-10,9.999C-98.33,304.179-97.582,306.237-96.336,307.902z M-88.33,293.938c3.091,0,5.76,1.773,7.091,4.345
		c-2.298,1.44-4.178,3.488-5.413,5.918c-0.241-0.016-0.48-0.036-0.725-0.036c-2.764,0-5.274,1.045-7.189,2.745
		c-1.097-1.366-1.764-3.089-1.764-4.973C-96.33,297.527-92.741,293.938-88.33,293.938z"/>
</g>
<g>
	<rect x="-0.5" y="312.465" width="50" height="2"/>
	<rect x="3.5" y="318.465" width="44" height="2"/>
	<rect x="9.5" y="323.465" width="30" height="2"/>
	<rect x="1.5" y="306.465" width="46" height="2"/>
	<path d="M3.143,304.465H3.18h1.884h1.055c1.472-1.087,3.283-1.737,5.249-1.737c0.15,0,0.299,0.012,0.447,0.022l0.148,0.01
		l1.314,0.085l0.597-1.175c2.225-4.372,6.644-7.089,11.532-7.089c5.945,0,11.168,4.139,12.563,9.884h2.043v-0.084
		c-1.444-6.742-7.433-11.8-14.605-11.8c-1.799,0-3.521,0.32-5.117,0.903c-0.945-5.111-5.402-8.987-10.789-8.987
		c-0.413,0-0.819,0.027-1.222,0.071c0.744,1.112,1.179,2.448,1.179,3.886c0,3.865-3.134,7-7,7c-1.438,0-2.773-0.435-3.886-1.179
		c-0.044,0.401-0.071,0.809-0.071,1.222C-1.5,299.201,0.336,302.472,3.143,304.465z M2.457,297.454c4.963,0,9-4.037,9-9
		c0-0.603-0.06-1.198-0.177-1.78c3.735,0.753,6.633,3.828,7.134,7.647c-2.712,1.443-4.927,3.699-6.322,6.442
		c-0.241-0.016-0.48-0.036-0.725-0.036c-2.534,0-4.855,0.879-6.701,2.335c-2.02-1.293-3.5-3.356-3.989-5.785
		C1.259,297.395,1.854,297.454,2.457,297.454z"/>
</g>
<g>
	<path d="M131.392,315.479h-19.474l-0.578-0.003c-5.485-0.027-9.948-4.513-9.948-9.998c0-5.514,4.485-10,9.999-10
		c0.175,0,0.347,0.014,0.519,0.025l0.149,0.01l1.316,0.088l0.598-1.176c2.493-4.899,7.443-7.942,12.92-7.942
		c6.79,0,12.75,4.814,14.171,11.448l0.318,1.482l1.514,0.095c1.822,0.113,3.463,0.845,4.746,1.971h2.732
		c-1.707-2.262-4.348-3.78-7.354-3.967c-1.596-7.445-8.207-13.029-16.127-13.029c-6.423,0-11.977,3.678-14.702,9.035
		c-0.266-0.018-0.53-0.04-0.8-0.04c-6.627,0-11.999,5.372-11.999,12c0,6.607,5.34,11.965,11.938,11.998v0.003h20.062
		c2.205,0,4,1.794,4,4s-1.795,4-4,4v2c3.314,0,6-2.686,6-6C137.392,318.165,134.706,315.479,131.392,315.479z"/>
	<path d="M135.392,311.479h-15.988v2h15.988c3.314,0,6-2.687,6-6c0-3.314-2.686-6-6-6v2c2.205,0,4,1.794,4,4
		S137.597,311.479,135.392,311.479z"/>
	<path d="M148.392,305.479c1.654,0,3,1.346,3,3s-1.346,3-3,3c-0.043,0-0.083-0.011-0.126-0.013h-4.862
		c0.003,0.005,0.009,0.008,0.012,0.013h-0.023v2h5.5v-0.051c2.523-0.254,4.5-2.358,4.5-4.949c0-2.762-2.238-5-5-5V305.479z"/>
	<path d="M152.392,315.479h-13v2h9.022c-0.004,0.005-0.008,0.008-0.011,0.013h3.862c0.043-0.002,0.083-0.013,0.126-0.013
		c1.654,0,3,1.346,3,3s-1.346,3-3,3v2c2.762,0,5-2.238,5-5S155.153,315.479,152.392,315.479z"/>
	<rect x="113.392" y="311.479" width="4" height="2"/>
</g>
<path d="M-76.17-83.625c6.95,1.305,12.226,7.419,12.226,14.742c0,8.272-6.729,15.002-15,15.002c-6.79,0-12.531-4.49-14.366-10.728
	c1.398,0.461,2.867,0.698,4.366,0.698c7.72,0,14-6.281,14-14.001C-74.944-79.896-75.368-81.84-76.17-83.625 M-78.944-85.882
	c-0.338,0-0.668,0.031-1,0.051c1.861,2.113,3,4.881,3,7.92c0,6.627-5.372,12.001-12,12.001c-2.599,0-4.998-0.835-6.963-2.239
	c0.387,9.047,7.821,16.269,16.963,16.269c9.39,0,17-7.612,17-17.002S-69.555-85.882-78.944-85.882L-78.944-85.882z"/>
<g>
	<path d="M-182.34-80.887c-7.18,0-13,5.819-13,12.999c0,7.181,5.82,13.002,13,13.002s13-5.821,13-13.002
		C-169.34-75.067-175.16-80.887-182.34-80.887z M-182.34-56.886c-6.065,0-11-4.936-11-11.002c0-6.064,4.935-10.999,11-10.999
		s11,4.935,11,10.999C-171.34-61.821-176.274-56.886-182.34-56.886z"/>
	<rect x="-183.347" y="-93.881" width="2" height="10"/>
	<rect x="-183.347" y="-51.881" width="2" height="10"/>
	<rect x="-208.34" y="-68.881" width="9.993" height="2"/>
	<rect x="-166.347" y="-68.881" width="10.007" height="2"/>
	<rect x="-168.647" y="-87.795" transform="matrix(0.7071 0.7071 -0.7071 0.7071 -107.5028 94.3542)" width="2" height="10.409"/>
	
		<rect x="-198.056" y="-58.386" transform="matrix(-0.7071 -0.7071 0.7071 -0.7071 -298.7903 -230.1253)" width="2" height="10.41"/>
	<rect x="-202.256" y="-83.585" transform="matrix(0.7071 0.7071 -0.7071 0.7071 -116.1117 115.1476)" width="10.409" height="2"/>
	
		<rect x="-172.847" y="-54.176" transform="matrix(-0.7072 -0.7071 0.7071 -0.7072 -248.5928 -209.3134)" width="10.41" height="2"/>
</g>
<g>
	<rect x="215.826" y="276.98" width="2" height="7.973"/>
	<rect x="196.854" y="295.967" width="7.973" height="2"/>
	<rect x="201.579" y="284.748" transform="matrix(0.7071 0.7071 -0.7071 0.7071 262.2634 -61.6637)" width="7.974" height="2"/>
	<rect x="227.088" y="281.766" transform="matrix(0.7071 0.7071 -0.7071 0.7071 268.8625 -77.5877)" width="2" height="7.972"/>
	<path d="M230.854,318.98l0.005-0.007h-12.536l-0.594-0.003c-4.864-0.024-8.822-4.001-8.822-8.865c0-4.89,3.978-8.868,8.867-8.868
		c0.15,0,0.299,0.012,0.447,0.021l0.148,0.011l1.314,0.085l0.597-1.174c2.225-4.373,6.644-7.09,11.532-7.09
		c5.916,0,11.114,4.099,12.54,9.8h2.065c-1.444-6.742-7.433-11.8-14.605-11.8c-2.185,0-4.258,0.47-6.126,1.313
		c-1.667-3.202-5.007-5.394-8.866-5.394c-5.522,0-10,4.477-10,9.999c0,2.46,0.899,4.702,2.373,6.442
		c-1.429,1.84-2.287,4.144-2.287,6.653c0,5.983,4.836,10.836,10.813,10.865v0.003h13.135v0.007c2.205,0,4,1.794,4,4s-1.795,4-4,4v2
		c3.314,0,6-2.686,6-6C236.854,321.667,234.168,318.98,230.854,318.98z M216.82,289.011c3.091,0,5.76,1.773,7.091,4.345
		c-2.298,1.439-4.178,3.488-5.413,5.918c-0.241-0.016-0.48-0.036-0.725-0.036c-2.766,0-5.282,1.042-7.2,2.743
		c-1.092-1.367-1.753-3.09-1.753-4.971C208.82,292.6,212.409,289.011,216.82,289.011z"/>
	<path d="M234.854,314.98h-9.988v2h9.988c3.314,0,6-2.687,6-6c0-3.314-2.686-6-6-6v2c2.205,0,4,1.794,4,4
		S237.059,314.98,234.854,314.98z"/>
	<path d="M242.877,314.98h-0.023v2h5.5v-0.051c2.523-0.254,4.5-2.358,4.5-4.949c0-2.762-2.238-5-5-5v2c1.654,0,3,1.346,3,3
		s-1.346,3-3,3c-0.043,0-0.083-0.011-0.126-0.013h-4.862C242.868,314.973,242.874,314.977,242.877,314.98z"/>
	<path d="M251.854,318.98h-13v2h9.022c-0.004,0.004-0.008,0.008-0.011,0.013h3.862c0.043-0.002,0.083-0.013,0.126-0.013
		c1.654,0,3,1.346,3,3s-1.346,3-3,3v2c2.762,0,5-2.238,5-5S254.615,318.98,251.854,318.98z"/>
	<rect x="218.854" y="314.98" width="4" height="2"/>
</g>
<g>
	<path d="M330.815,316.975l0.005-0.007h-12.536l-0.594-0.003c-4.864-0.024-8.822-4.001-8.822-8.865c0-4.89,3.978-8.868,8.867-8.868
		c0.15,0,0.299,0.012,0.447,0.021l0.148,0.011l1.314,0.085l0.597-1.174c2.225-4.373,6.644-7.09,11.532-7.09
		c5.916,0,11.114,4.099,12.54,9.8h2.065c-1.444-6.742-7.433-11.8-14.605-11.8c-1.806,0-3.536,0.322-5.138,0.91
		c-0.938-5.123-5.4-9.01-10.794-9.01c-0.413,0-0.819,0.027-1.222,0.071c0.744,1.112,1.179,2.448,1.179,3.886c0,3.865-3.134,7-7,7
		c-1.438,0-2.773-0.435-3.886-1.179c-0.044,0.401-0.071,0.809-0.071,1.222c0,3.725,1.858,7.009,4.69,8.998
		c-1.655,1.907-2.665,4.392-2.665,7.116c0,5.983,4.836,10.836,10.813,10.865v0.003h13.135v0.007c2.205,0,4,1.794,4,4s-1.795,4-4,4v2
		c3.314,0,6-2.686,6-6C336.815,319.661,334.13,316.975,330.815,316.975z M307.02,293.766c0.582,0.117,1.178,0.177,1.78,0.177
		c4.963,0,9-4.037,9-9c0-0.603-0.06-1.198-0.177-1.78c3.744,0.755,6.646,3.842,7.138,7.674c-2.702,1.444-4.909,3.696-6.301,6.432
		c-0.241-0.016-0.48-0.036-0.725-0.036c-2.535,0-4.861,0.875-6.71,2.33C308.997,298.27,307.511,296.201,307.02,293.766z"/>
	<path d="M334.815,312.975h-9.988v2h9.988c3.314,0,6-2.687,6-6c0-3.314-2.686-6-6-6v2c2.205,0,4,1.794,4,4
		S337.021,312.975,334.815,312.975z"/>
	<path d="M342.839,312.975h-0.023v2h5.5v-0.051c2.523-0.254,4.5-2.358,4.5-4.949c0-2.762-2.238-5-5-5v2c1.654,0,3,1.346,3,3
		s-1.346,3-3,3c-0.043,0-0.083-0.011-0.126-0.013h-4.862C342.83,312.967,342.836,312.971,342.839,312.975z"/>
	<path d="M351.815,316.975h-13v2h9.022c-0.004,0.004-0.008,0.008-0.011,0.013h3.862c0.043-0.002,0.083-0.013,0.126-0.013
		c1.654,0,3,1.346,3,3s-1.346,3-3,3v2c2.762,0,5-2.238,5-5S354.577,316.975,351.815,316.975z"/>
	<rect x="318.815" y="312.975" width="4" height="2"/>
</g>
<g>
	<rect x="431.708" y="279.543" width="2" height="10"/>
	<rect x="406.715" y="304.543" width="9.993" height="2"/>
	<rect x="446.408" y="285.629" transform="matrix(0.7071 0.7071 -0.7071 0.7071 336.693 -231.1819)" width="2" height="10.409"/>
	<rect x="412.799" y="289.839" transform="matrix(0.7071 0.7071 -0.7071 0.7071 328.0842 -210.3885)" width="10.409" height="2"/>
	<path d="M436.708,319.543h-24v2h24c2.205,0,4,1.794,4,4s-1.795,4-4,4v2c3.314,0,6-2.686,6-6
		C442.708,322.229,440.022,319.543,436.708,319.543z"/>
	<path d="M448.731,315.543h-0.023v2h5.5v-0.051c2.523-0.254,4.5-2.358,4.5-4.949c0-2.762-2.238-5-5-5v2c1.654,0,3,1.346,3,3
		s-1.346,3-3,3c-0.043,0-0.083-0.011-0.126-0.013h-4.862C448.723,315.535,448.729,315.539,448.731,315.543z"/>
	<path d="M457.708,319.543h-13v2h9.022c-0.004,0.004-0.008,0.008-0.011,0.013h3.862c0.043-0.002,0.083-0.013,0.126-0.013
		c1.654,0,3,1.346,3,3s-1.346,3-3,3v2c2.762,0,5-2.238,5-5S460.47,319.543,457.708,319.543z"/>
	<path d="M424.417,315.543h-11.709v2h12.012h0.822h15.166c3.314,0,6-2.687,6-6c0-3.314-2.686-6-6-6v2c2.205,0,4,1.794,4,4
		s-1.795,4-4,4H428.17c-3.802-1.734-6.455-5.563-6.455-10.007c0-6.064,4.935-10.999,11-10.999c5.384,0,9.868,3.891,10.81,9.006
		h2.021c-0.961-6.23-6.331-11.006-12.831-11.006c-7.18,0-13,5.819-13,12.999C419.715,309.562,421.545,313.158,424.417,315.543z"/>
</g>
<g>
	<path d="M536.935,312.986h-24v2h24c2.205,0,4,1.794,4,4s-1.795,4-4,4v2c3.314,0,6-2.686,6-6
		C542.935,315.673,540.249,312.986,536.935,312.986z"/>
	<path d="M554.435,310.986v-0.051c2.523-0.254,4.5-2.358,4.5-4.949c0-2.762-2.238-5-5-5v2c1.654,0,3,1.346,3,3s-1.346,3-3,3
		c-0.043,0-0.083-0.011-0.126-0.013h-4.862c0.004,0.005,0.009,0.009,0.012,0.013h-0.023v2H554.435z"/>
	<path d="M557.935,312.986h-13v2h9.022c-0.003,0.004-0.007,0.008-0.011,0.013h3.862c0.043-0.002,0.083-0.013,0.126-0.013
		c1.654,0,3,1.346,3,3s-1.346,3-3,3v2c2.762,0,5-2.238,5-5S560.696,312.986,557.935,312.986z"/>
	<path d="M525.769,310.986h15.166c3.314,0,6-2.687,6-6c0-3.314-2.686-6-6-6v2c2.205,0,4,1.794,4,4s-1.795,4-4,4h-12.586
		c-2.596-1.188-4.658-3.339-5.69-6.034c0.849,0.204,1.724,0.309,2.612,0.309c6.168,0,11.187-5.019,11.187-11.188
		c0-1.276-0.22-2.532-0.64-3.717c4.046,1.102,7.168,4.459,7.937,8.63h2.018c-0.964-6.237-6.338-11.016-12.846-11.016
		c-0.259,0-0.511,0.024-0.766,0.039c1.425,1.618,2.297,3.737,2.297,6.063c0,5.072-4.112,9.188-9.187,9.188
		c-1.988,0-3.826-0.641-5.33-1.715c0.162,3.801,1.962,7.165,4.699,9.44h-11.705v2h12.012H525.769z"/>
</g>
<g>
	<path d="M-182.847,398.18h-20c-1.103,0-2-0.897-2-2s0.897-2,2-2h3.445h0.555v-2h-4c-2.209,0-4,1.791-4,4s1.791,4,4,4h20
		c2.205,0,4,1.794,4,4s-1.795,4-4,4v2c3.314,0,6-2.686,6-6C-176.847,400.866-179.532,398.18-182.847,398.18z"/>
	<path d="M-180.847,382.18v2c2.205,0,4,1.794,4,4s-1.795,4-4,4h-15.988v2h15.988c3.314,0,6-2.687,6-6
		C-174.847,384.865-177.532,382.18-180.847,382.18z"/>
	<path d="M-174.847,394.18v2h5.5v-0.051c2.523-0.254,4.5-2.358,4.5-4.949c0-2.762-2.238-5-5-5v2c1.654,0,3,1.346,3,3s-1.346,3-3,3
		c-0.043,0-0.083-0.011-0.126-0.013h-4.862c0.003,0.005,0.009,0.009,0.012,0.013H-174.847z"/>
	<path d="M-163.847,398.18h-11v2h7.022c-0.004,0.004-0.008,0.008-0.011,0.013h3.862c0.043-0.002,0.083-0.013,0.126-0.013
		c1.654,0,3,1.346,3,3s-1.346,3-3,3v2c2.762,0,5-2.238,5-5S-161.085,398.18-163.847,398.18z"/>
</g>
<path d="M353.445,384.526v-0.038h-38.376c-1.103,0-2-0.897-2-2s0.897-2,2-2h33c2.762,0,5-2.238,5-5s-2.238-5-5-5h-37.875v0.008
	c-0.042-0.001-0.083-0.008-0.125-0.008c-2.762,0-5,2.238-5,5s2.238,5,5,5v-2c-1.654,0-3-1.346-3-3s1.346-3,3-3h0.125h3.853h34.022
	c1.654,0,3,1.346,3,3s-1.346,3-3,3h-33c-2.209,0-4,1.791-4,4s1.791,4,4,4h38c1.103,0,2,0.897,2,2s-0.897,2-2,2h-32
	c-2.209,0-4,1.791-4,4s1.791,4,4,4h22c1.103,0,2,0.897,2,2s-0.897,2-2,2h-24.01v0.001c-2.204,0.006-3.99,1.793-3.99,3.999
	s1.786,3.993,3.99,3.999v0.001h12.01c1.103,0,2,0.897,2,2s-0.897,2-2,2h-2c-2.209,0-4,1.791-4,4s1.791,4,4,4v-2
	c-1.103,0-2-0.897-2-2s0.897-2,2-2h2c2.209,0,4-1.791,4-4s-1.791-4-4-4h-12c-1.103,0-2-0.897-2-2s0.897-2,2-2h24
	c2.209,0,4-1.791,4-4c0-2.152-1.704-3.895-3.834-3.983v-0.017h-22.166c-1.103,0-2-0.897-2-2s0.897-2,2-2h32c2.209,0,4-1.791,4-4
	C357.069,386.408,355.476,384.719,353.445,384.526z"/>
<path d="M538.86,375.204v-2.024h-2v2.024c-13.01,0.513-23.462,10.965-23.975,23.976h1.674c1.14-1.222,2.748-2,4.551-2
	c2.26,0,4.233,1.203,5.331,3h1.838c1.098-1.797,3.071-3,5.331-3c2.204,0,4.137,1.144,5.25,2.866v15.134c0,2.21,1.791,4,4,4
	s4-1.79,4-4h-2c0,1.103-0.897,2-2,2s-2-0.897-2-2v-15.134c1.113-1.723,3.046-2.866,5.25-2.866c2.26,0,4.233,1.203,5.331,3h1.838
	c1.098-1.797,3.071-3,5.331-3c1.803,0,3.411,0.778,4.551,2h1.674C562.322,386.169,551.87,375.717,538.86,375.204z M556.61,395.18
	c-2.496,0-4.736,1.114-6.25,2.87c-1.514-1.756-3.754-2.87-6.25-2.87s-4.736,1.114-6.25,2.87c-1.514-1.756-3.754-2.87-6.25-2.87
	s-4.736,1.114-6.25,2.87c-1.514-1.756-3.755-2.87-6.25-2.87c-1.402,0-2.731,0.351-3.897,0.975
	c1.909-10.769,11.339-18.975,22.647-18.975s20.738,8.206,22.647,18.975C559.342,395.53,558.013,395.18,556.61,395.18z"/>
<g>
	<path d="M133.565,499.492v-17.105c0-2.762-2.238-5-5-5s-5,2.238-5,5v17.105c-1.236,1.263-2,2.988-2,4.895c0,3.866,3.134,7,7,7
		s7-3.134,7-7C135.565,502.48,134.802,500.755,133.565,499.492z M128.565,509.387c-2.757,0-5-2.243-5-5
		c0-1.313,0.508-2.554,1.429-3.495l0.571-0.583v-0.816v-17.105c0-1.654,1.346-3,3-3s3,1.346,3,3v17.105v0.816l0.571,0.583
		c0.921,0.941,1.429,2.183,1.429,3.495C133.565,507.144,131.322,509.387,128.565,509.387z"/>
	<path d="M129.565,501.563v-15.176h-2v15.176c-1.167,0.413-2.008,1.516-2.008,2.824c0,1.662,1.347,3.008,3.008,3.008
		c1.662,0,3.008-1.346,3.008-3.008C131.573,503.078,130.733,501.976,129.565,501.563z M128.565,505.395
		c-0.556,0-1.008-0.452-1.008-1.008s0.452-1.008,1.008-1.008s1.008,0.452,1.008,1.008S129.121,505.395,128.565,505.395z"/>
</g>
<g>
	<path d="M233.354,499.492v-17.105c0-2.762-2.238-5-5-5s-5,2.238-5,5v17.105c-1.236,1.263-2,2.988-2,4.895c0,3.866,3.134,7,7,7
		s7-3.134,7-7C235.354,502.48,234.59,500.755,233.354,499.492z M228.354,509.387c-2.757,0-5-2.243-5-5
		c0-1.313,0.508-2.554,1.429-3.495l0.571-0.583v-0.816v-17.105c0-1.654,1.346-3,3-3s3,1.346,3,3v17.105v0.816l0.571,0.583
		c0.921,0.941,1.429,2.183,1.429,3.495C233.354,507.144,231.11,509.387,228.354,509.387z"/>
	<path d="M229.354,501.563v-20.176h-2v20.176c-1.167,0.413-2.008,1.516-2.008,2.824c0,1.662,1.347,3.008,3.008,3.008
		c1.662,0,3.008-1.346,3.008-3.008C231.361,503.078,230.521,501.976,229.354,501.563z M228.354,505.395
		c-0.556,0-1.008-0.452-1.008-1.008s0.452-1.008,1.008-1.008s1.008,0.452,1.008,1.008S228.909,505.395,228.354,505.395z"/>
</g>
<g>
	<path d="M30.456,499.492v-17.105c0-2.762-2.238-5-5-5s-5,2.238-5,5v17.105c-1.236,1.263-2,2.988-2,4.895c0,3.866,3.134,7,7,7
		s7-3.134,7-7C32.456,502.48,31.692,500.755,30.456,499.492z M25.456,509.387c-2.757,0-5-2.243-5-5c0-1.313,0.508-2.554,1.429-3.495
		l0.571-0.583v-0.816v-17.105c0-1.654,1.346-3,3-3s3,1.346,3,3v17.105v0.816l0.571,0.583c0.921,0.941,1.429,2.183,1.429,3.495
		C30.456,507.144,28.213,509.387,25.456,509.387z"/>
	<path d="M26.456,501.563v-10.176h-2v10.176c-1.167,0.413-2.008,1.516-2.008,2.824c0,1.662,1.347,3.008,3.008,3.008
		c1.662,0,3.008-1.346,3.008-3.008C28.464,503.078,27.624,501.976,26.456,501.563z M25.456,505.395
		c-0.556,0-1.008-0.452-1.008-1.008s0.452-1.008,1.008-1.008s1.008,0.452,1.008,1.008S26.012,505.395,25.456,505.395z"/>
</g>
<g>
	<path d="M-73.189,499.492v-17.105c0-2.762-2.238-5-5-5s-5,2.238-5,5v17.105c-1.236,1.263-2,2.988-2,4.895c0,3.866,3.134,7,7,7
		s7-3.134,7-7C-71.189,502.48-71.953,500.755-73.189,499.492z M-78.189,509.387c-2.757,0-5-2.243-5-5
		c0-1.313,0.508-2.554,1.429-3.495l0.571-0.583v-0.816v-17.105c0-1.654,1.346-3,3-3s3,1.346,3,3v17.105v0.816l0.571,0.583
		c0.921,0.941,1.429,2.183,1.429,3.495C-73.189,507.144-75.433,509.387-78.189,509.387z"/>
	<path d="M-77.189,501.563v-5.176h-2v5.176c-1.167,0.413-2.008,1.516-2.008,2.824c0,1.662,1.347,3.008,3.008,3.008
		c1.662,0,3.008-1.346,3.008-3.008C-75.182,503.078-76.021,501.976-77.189,501.563z M-78.189,505.395
		c-0.556,0-1.008-0.452-1.008-1.008s0.452-1.008,1.008-1.008s1.008,0.452,1.008,1.008S-77.634,505.395-78.189,505.395z"/>
</g>
<g>
	<path d="M-177.847,499.492v-17.105c0-2.762-2.238-5-5-5s-5,2.238-5,5v17.105c-1.236,1.263-2,2.988-2,4.895c0,3.866,3.134,7,7,7
		s7-3.134,7-7C-175.847,502.48-176.61,500.755-177.847,499.492z M-182.847,509.387c-2.757,0-5-2.243-5-5
		c0-1.313,0.508-2.554,1.429-3.495l0.571-0.583v-0.816v-17.105c0-1.654,1.346-3,3-3s3,1.346,3,3v17.105v0.816l0.571,0.583
		c0.921,0.941,1.429,2.183,1.429,3.495C-177.847,507.144-180.09,509.387-182.847,509.387z"/>
	<path d="M-182.847,501.379c-1.661,0-3.008,1.347-3.008,3.008c0,1.662,1.347,3.008,3.008,3.008c1.662,0,3.008-1.346,3.008-3.008
		C-179.839,502.726-181.185,501.379-182.847,501.379z M-182.847,505.395c-0.556,0-1.008-0.452-1.008-1.008s0.452-1.008,1.008-1.008
		s1.008,0.452,1.008,1.008S-182.291,505.395-182.847,505.395z"/>
</g>
<g>
	<path d="M322.078,479.699c-2.209,0-4,1.791-4,4c0,2.21,1.791,4,4,4c2.211,0,4-1.79,4-4
		C326.078,481.49,324.289,479.699,322.078,479.699z M322.078,485.699c-1.103,0-2-0.897-2-2s0.897-2,2-2s2,0.897,2,2
		S323.181,485.699,322.078,485.699z"/>
	<path d="M336.078,507.699c-4.41,0-7.999-3.589-7.999-7.999v-4.002c0-4.41,3.589-7.999,7.999-7.999c2.715,0,5.115,1.362,6.563,3.437
		l1.43-1.43c-1.824-2.429-4.72-4.007-7.992-4.007c-5.522,0-9.999,4.478-9.999,9.999v4.002c0,5.521,4.477,9.999,9.999,9.999
		c3.272,0,6.168-1.579,7.992-4.008l-1.43-1.43C341.194,506.336,338.794,507.699,336.078,507.699z"/>
</g>
<g>
	<path d="M426.774,479.578c-2.209,0-4,1.791-4,4c0,2.21,1.791,4,4,4c2.211,0,4-1.79,4-4
		C430.774,481.369,428.985,479.578,426.774,479.578z M426.774,485.578c-1.103,0-2-0.897-2-2s0.897-2,2-2s2,0.897,2,2
		S427.877,485.578,426.774,485.578z"/>
	<polygon points="446.649,487.699 446.649,485.699 434.649,485.699 432.649,485.699 432.649,509.699 434.649,509.699 
		434.649,497.699 442.649,497.699 442.649,495.699 434.649,495.699 434.649,487.699 	"/>
</g>
<g>
	<path d="M537.86,483.391c-7.179,0-13,5.82-13,13s5.821,13,13,13s13-5.82,13-13S545.039,483.391,537.86,483.391z M537.86,507.391
		c-6.065,0-11-4.935-11-11s4.935-11,11-11s11,4.935,11,11S543.926,507.391,537.86,507.391z"/>
	<path d="M533.594,500.633l6.363-2.121l2.121-6.364l-6.363,2.122L533.594,500.633z M537.296,495.851l1.62-0.54l-0.54,1.62
		l-1.62,0.54L537.296,495.851z"/>
</g>
<g>
	<path d="M-182.847,573.908c-7.179,0-13,5.82-13,13s5.821,13,13,13s13-5.82,13-13S-175.668,573.908-182.847,573.908z
		 M-182.847,597.908c-6.065,0-11-4.934-11-11c0-6.064,4.935-11,11-11s11,4.936,11,11
		C-171.847,592.975-176.781,597.908-182.847,597.908z"/>
	<path d="M-180.285,585.33l-2.586-4.422l-2.529,4.33h0.007c-0.299,0.467-0.478,1.018-0.478,1.613c0,1.656,1.343,3,3,3s3-1.344,3-3
		c0-0.559-0.162-1.074-0.428-1.521H-180.285z M-182.871,587.852c-0.552,0-1-0.449-1-1c0-0.188,0.055-0.367,0.162-0.535l0.864-1.355
		l0.826,1.391c0.098,0.164,0.147,0.332,0.147,0.5C-181.871,587.402-182.319,587.852-182.871,587.852z"/>
</g>
<g>
	<path d="M-78.063,573.908c-7.18,0-13,5.82-13,13s5.82,13,13,13s13-5.82,13-13S-70.883,573.908-78.063,573.908z M-78.063,597.908
		c-6.065,0-11-4.934-11-11c0-6.064,4.935-11,11-11s11,4.936,11,11C-67.063,592.975-71.997,597.908-78.063,597.908z"/>
	<path d="M-76.474,584.328c-0.467-0.299-1.018-0.477-1.613-0.477c-1.658,0-3,1.342-3,3c0,1.656,1.342,3,3,3
		c0.557,0,1.072-0.162,1.52-0.428v0.014l4.422-2.586l-4.328-2.529V584.328z M-77.589,587.703c-0.164,0.098-0.332,0.148-0.498,0.148
		c-0.552,0-1-0.449-1-1c0-0.553,0.448-1,1-1c0.188,0,0.368,0.053,0.535,0.16l1.355,0.865L-77.589,587.703z"/>
</g>
<g>
	<path d="M24.988,573.908c-7.18,0-13,5.82-13,13s5.82,13,13,13s13-5.82,13-13S32.168,573.908,24.988,573.908z M24.988,597.908
		c-6.065,0-11-4.934-11-11c0-6.064,4.935-11,11-11s11,4.936,11,11C35.988,592.975,31.054,597.908,24.988,597.908z"/>
	<path d="M24.988,583.852c-1.656,0-3,1.342-3,3c0,0.557,0.162,1.072,0.428,1.52h-0.014l2.586,4.422l2.529-4.328h-0.006
		c0.299-0.467,0.477-1.018,0.477-1.613C27.988,585.193,26.646,583.852,24.988,583.852z M25.827,587.387l-0.865,1.355l-0.826-1.393
		c-0.098-0.164-0.147-0.332-0.147-0.498c0-0.553,0.448-1,1-1s1,0.447,1,1C25.988,587.039,25.935,587.219,25.827,587.387z"/>
</g>
<g>
	<path d="M128.402,573.908c-7.179,0-13,5.82-13,13s5.821,13,13,13s13-5.82,13-13S135.581,573.908,128.402,573.908z M128.402,597.908
		c-6.065,0-11-4.934-11-11c0-6.064,4.935-11,11-11s11,4.936,11,11C139.402,592.975,134.468,597.908,128.402,597.908z"/>
	<path d="M128.361,583.852c-0.557,0-1.072,0.162-1.52,0.428v-0.014l-4.422,2.586l4.328,2.529v-0.006
		c0.467,0.299,1.018,0.477,1.613,0.477c1.658,0,3-1.342,3-3C131.361,585.195,130.02,583.852,128.361,583.852z M128.361,587.852
		c-0.188,0-0.368-0.055-0.535-0.162l-1.355-0.865l1.393-0.826c0.164-0.098,0.332-0.146,0.498-0.146c0.552,0,1,0.447,1,1
		C129.361,587.402,128.913,587.852,128.361,587.852z"/>
</g>
<g>
	<rect x="-79.749" y="377.18" width="2" height="10"/>
	<rect x="-65.049" y="383.266" transform="matrix(0.7071 0.7071 -0.7071 0.7071 255.9303 159.07)" width="2" height="10.409"/>
	<rect x="-98.658" y="387.475" transform="matrix(0.7071 0.7071 -0.7071 0.7071 247.3214 179.8634)" width="10.409" height="2"/>
	<polygon points="-85.417,406.434 -84.003,407.848 -79.749,403.594 -79.749,413.18 -77.749,413.18 -77.749,403.594 -73.496,407.848 
		-72.082,406.434 -78.749,399.766 	"/>
	<path d="M-65.742,403.179c0-0.002,0-0.004,0-0.006c0-7.18-5.82-12.999-13-12.999s-13,5.819-13,12.999c0,0.002,0,0.004,0,0.006h-13
		v2h18v-2h-3c0-0.002,0-0.004,0-0.006c0-6.064,4.935-10.999,11-10.999s11,4.935,11,10.999c0,0.002,0,0.004,0,0.006h-3v2h17.995v-2
		H-65.742z"/>
</g>
<g>
	<rect x="23.996" y="375.992" width="2" height="10"/>
	<rect x="38.696" y="382.078" transform="matrix(0.7071 0.7071 -0.7071 0.7071 285.4769 85.3633)" width="2" height="10.409"/>
	<rect x="5.087" y="386.288" transform="matrix(0.7071 0.7071 -0.7071 0.7071 276.868 106.1567)" width="10.409" height="2"/>
	<polygon points="25.996,410.539 25.996,399.992 23.996,399.992 23.996,410.539 19.742,406.285 18.328,407.699 24.996,414.367 
		31.663,407.699 30.249,406.285 	"/>
	<path d="M38.003,401.991c0-0.002,0-0.004,0-0.006c0-7.18-5.82-12.999-13-12.999s-13,5.819-13,12.999c0,0.002,0,0.004,0,0.006h-13v2
		h22v-2h-7c0-0.002,0-0.004,0-0.006c0-6.064,4.935-10.999,11-10.999s11,4.935,11,10.999c0,0.002,0,0.004,0,0.006h-7v2h21.995v-2
		H38.003z"/>
</g>
<g>
	<polygon points="228.354,410.005 228.354,395.622 226.354,395.622 226.354,410.005 222.1,405.751 220.686,407.165 227.354,413.833 
		234.021,407.165 232.606,405.751 	"/>
	<path d="M243.981,390.651c-1.596-7.445-8.207-13.029-16.127-13.029c-6.423,0-11.977,3.678-14.702,9.035
		c-0.266-0.018-0.53-0.04-0.8-0.04c-6.627,0-11.999,5.372-11.999,12c0,6.607,5.34,11.965,11.938,11.998v0.003h6.062v-2h-5.604
		l-0.447-0.003c-5.485-0.027-9.948-4.513-9.948-9.998c0-5.514,4.485-10,9.999-10c0.175,0,0.347,0.014,0.52,0.025l0.148,0.01
		l1.316,0.088l0.598-1.176c2.492-4.899,7.443-7.942,12.92-7.942c6.79,0,12.75,4.814,14.172,11.448l0.317,1.482l1.514,0.095
		c4.203,0.262,7.496,3.763,7.496,7.971c0,4.397-3.565,7.977-7.957,8c-0.05-0.003-0.093-0.005-0.137-0.007l-2.043,0.007h-4.863v2
		h6.863v-0.007c0.046,0.001,0.091,0.007,0.137,0.007c5.521,0,10-4.477,10-10C253.354,395.308,249.209,390.977,243.981,390.651z"/>
</g>
<g>
	<polygon points="134.338,406.81 135.752,405.396 129.085,398.728 122.417,405.396 123.831,406.81 128.085,402.556 128.085,415.142 
		130.085,415.142 130.085,402.556 	"/>
	<path d="M145.713,392.247c-1.596-7.445-8.207-13.029-16.127-13.029c-6.423,0-11.977,3.678-14.702,9.035
		c-0.266-0.018-0.53-0.04-0.8-0.04c-6.627,0-11.999,5.372-11.999,12c0,6.607,5.34,11.965,11.938,11.998v0.003h10.062v-2h-9.604
		l-0.447-0.003c-5.485-0.027-9.948-4.513-9.948-9.998c0-5.514,4.485-10,9.999-10c0.175,0,0.347,0.014,0.52,0.025l0.148,0.01
		l1.316,0.088l0.598-1.176c2.492-4.899,7.443-7.942,12.92-7.942c6.79,0,12.75,4.814,14.172,11.448l0.317,1.482l1.514,0.095
		c4.203,0.262,7.496,3.763,7.496,7.971c0,4.397-3.565,7.977-7.957,8c-0.05-0.003-0.093-0.005-0.137-0.007l-2.043,0.007h-8.863v2
		h10.863v-0.007c0.046,0.001,0.091,0.007,0.137,0.007c5.521,0,10-4.477,10-10C155.085,396.903,150.94,392.572,145.713,392.247z"/>
</g>
<g>
	<path d="M348.202,202.731c-1.596-7.445-8.207-13.029-16.127-13.029c-6.423,0-11.977,3.678-14.702,9.035
		c-0.266-0.018-0.53-0.04-0.8-0.04c-6.627,0-11.999,5.372-11.999,12c0,6.607,5.34,11.965,11.938,11.998v0.003h2.062v-2h-1.604
		l-0.447-0.003c-5.485-0.027-9.948-4.513-9.948-9.998c0-5.514,4.485-10,9.999-10c0.175,0,0.347,0.014,0.52,0.025l0.148,0.01
		l1.316,0.088l0.598-1.176c2.492-4.899,7.443-7.942,12.92-7.942c6.79,0,12.75,4.814,14.172,11.448l0.317,1.482l1.514,0.095
		c4.203,0.262,7.496,3.763,7.496,7.971c0,4.397-3.565,7.977-7.957,8c-0.05-0.003-0.093-0.005-0.137-0.007l-2.043,0.007h-0.863v2
		h2.863v-0.007c0.046,0.001,0.091,0.007,0.137,0.007c5.521,0,10-4.477,10-10C357.574,207.388,353.43,203.057,348.202,202.731z"/>
	<polygon points="326.574,221.72 326.574,219.09 328.747,220.313 329.433,219.092 326.963,217.702 329.433,216.313 328.747,215.092 
		326.574,216.314 326.574,213.72 324.574,213.72 324.574,216.358 322.323,215.092 321.638,216.313 324.107,217.702 321.638,219.092 
		322.323,220.313 324.574,219.046 324.574,221.72 	"/>
	<polygon points="331.736,226.074 329.563,227.297 329.563,224.702 327.563,224.702 327.563,227.341 325.313,226.074 
		324.627,227.295 327.097,228.685 324.627,230.074 325.313,231.295 327.563,230.028 327.563,232.702 329.563,232.702 
		329.563,230.072 331.736,231.295 332.422,230.074 329.952,228.685 332.422,227.295 	"/>
	<polygon points="340.752,219.092 338.579,220.314 338.579,217.72 336.579,217.72 336.579,220.358 334.328,219.092 333.643,220.313 
		336.112,221.702 333.643,223.092 334.328,224.313 336.579,223.046 336.579,225.72 338.579,225.72 338.579,223.09 340.752,224.313 
		341.438,223.092 338.968,221.702 341.438,220.313 	"/>
</g>
<g>
	<rect x="423.714" y="184.68" width="2" height="7.973"/>
	<rect x="404.714" y="203.594" width="7.973" height="2"/>
	<rect x="409.387" y="192.327" transform="matrix(0.7071 0.7071 -0.7071 0.7071 257.7774 -235.6754)" width="7.974" height="2"/>
	<rect x="434.896" y="189.345" transform="matrix(0.7071 0.7071 -0.7071 0.7071 264.3765 -251.5993)" width="2" height="7.972"/>
	<path d="M454.226,210.47c-1.444-6.742-7.433-11.8-14.605-11.8c-2.185,0-4.258,0.471-6.127,1.314
		c-1.666-3.203-5.006-5.395-8.865-5.395c-5.522,0-10,4.477-10,9.999c0,2.46,0.899,4.702,2.373,6.442
		c-1.428,1.84-2.287,4.144-2.287,6.653c0,5.983,4.836,10.836,10.813,10.865v0.003h1.188v-2h-0.721l-0.457-0.003
		c-4.864-0.023-8.822-4.001-8.822-8.865c0-4.89,3.978-8.868,8.867-8.868c0.15,0,0.299,0.012,0.447,0.022l0.148,0.01l1.314,0.085
		l0.597-1.175c2.225-4.372,6.644-7.089,11.532-7.089c6.062,0,11.382,4.298,12.649,10.219l0.318,1.483l1.514,0.094
		c3.708,0.23,6.612,3.319,6.612,7.03c0,3.878-3.144,7.035-7.017,7.057c-0.042-0.003-0.079-0.005-0.117-0.005l-1.866,0.005v2h1.819
		v-0.006c0.042,0.001,0.082,0.006,0.124,0.006c5.001,0,9.057-4.054,9.057-9.057C462.714,214.687,458.96,210.765,454.226,210.47z
		 M426.306,206.853c-0.241-0.016-0.48-0.036-0.725-0.036c-2.766,0-5.282,1.041-7.2,2.742c-1.092-1.365-1.753-3.089-1.753-4.97
		c0-4.41,3.589-7.999,8-7.999c3.092,0,5.76,1.773,7.091,4.346C429.421,202.375,427.542,204.423,426.306,206.853z"/>
	<polygon points="433.706,227.572 433.706,224.942 435.879,226.165 436.564,224.944 434.095,223.555 436.564,222.165 
		435.879,220.944 433.706,222.167 433.706,219.572 431.706,219.572 431.706,222.211 429.455,220.944 428.77,222.165 
		431.239,223.555 428.77,224.944 429.455,226.165 431.706,224.898 431.706,227.572 	"/>
	<polygon points="438.868,231.927 436.695,233.149 436.695,230.555 434.695,230.555 434.695,233.193 432.444,231.927 
		431.759,233.147 434.229,234.537 431.759,235.927 432.444,237.147 434.695,235.881 434.695,238.555 436.695,238.555 
		436.695,235.925 438.868,237.147 439.554,235.927 437.084,234.537 439.554,233.147 	"/>
	<polygon points="447.884,224.944 445.711,226.167 445.711,223.572 443.711,223.572 443.711,226.211 441.46,224.944 
		440.774,226.165 443.244,227.555 440.774,228.944 441.46,230.165 443.711,228.898 443.711,231.572 445.711,231.572 
		445.711,228.942 447.884,230.165 448.569,228.944 446.1,227.555 448.569,226.165 	"/>
</g>
<g>
	<path d="M554.414,207.467c-1.444-6.742-7.433-11.8-14.605-11.8c-1.799,0-3.522,0.32-5.118,0.904
		c-0.949-5.108-5.404-8.98-10.788-8.98c-0.413,0-0.819,0.027-1.222,0.071c0.744,1.112,1.179,2.448,1.179,3.886c0,3.865-3.134,7-7,7
		c-1.438,0-2.773-0.435-3.886-1.179c-0.044,0.401-0.071,0.809-0.071,1.222c0,3.713,1.845,6.987,4.661,8.979
		c-1.653,1.907-2.661,4.389-2.661,7.111c0,5.983,4.836,10.836,10.813,10.865v0.003h1.188v-2h-0.721l-0.457-0.003
		c-4.864-0.023-8.822-4.001-8.822-8.865c0-4.89,3.978-8.868,8.867-8.868c0.15,0,0.299,0.012,0.447,0.022l0.148,0.01l1.314,0.085
		l0.597-1.175c2.225-4.372,6.644-7.089,11.532-7.089c6.062,0,11.382,4.298,12.649,10.219l0.318,1.483l1.514,0.094
		c3.708,0.23,6.612,3.319,6.612,7.03c0,3.878-3.144,7.035-7.017,7.057c-0.042-0.003-0.079-0.005-0.117-0.005l-1.866,0.005v2h1.819
		v-0.006c0.042,0.001,0.082,0.006,0.124,0.006c5.001,0,9.057-4.054,9.057-9.057C562.902,211.684,559.148,207.762,554.414,207.467z
		 M526.494,203.85c-0.241-0.016-0.48-0.036-0.725-0.036c-2.537,0-4.865,0.877-6.715,2.334c-2.012-1.294-3.486-3.354-3.976-5.776
		c0.582,0.117,1.178,0.177,1.78,0.177c4.963,0,9-4.037,9-9c0-0.603-0.06-1.198-0.177-1.78c3.733,0.753,6.629,3.824,7.134,7.64
		C530.104,198.852,527.889,201.106,526.494,203.85z"/>
	<polygon points="533.939,224.569 533.939,221.939 536.112,223.162 536.798,221.941 534.328,220.552 536.798,219.162 
		536.112,217.941 533.939,219.164 533.939,216.569 531.939,216.569 531.939,219.208 529.688,217.941 529.003,219.162 
		531.473,220.552 529.003,221.941 529.688,223.162 531.939,221.896 531.939,224.569 	"/>
	<polygon points="539.102,228.924 536.929,230.146 536.929,227.552 534.929,227.552 534.929,230.19 532.678,228.924 
		531.992,230.145 534.462,231.534 531.992,232.924 532.678,234.145 534.929,232.878 534.929,235.552 536.929,235.552 
		536.929,232.922 539.102,234.145 539.787,232.924 537.317,231.534 539.787,230.145 	"/>
	<polygon points="548.117,221.941 545.944,223.164 545.944,220.569 543.944,220.569 543.944,223.208 541.693,221.941 
		541.008,223.162 543.478,224.552 541.008,225.941 541.693,227.162 543.944,225.896 543.944,228.569 545.944,228.569 
		545.944,225.939 548.117,227.162 548.803,225.941 546.333,224.552 548.803,223.162 	"/>
</g>
<rect x="-61.944" y="-360.283" fill="none" width="472.974" height="180.918"/>
<text transform="matrix(1 0 0 1 117.6929 -288.8843)"><tspan x="0" y="0" font-family="'HelveticaNeueLTStd-Th'" font-size="100" letter-spacing="2">60</tspan><tspan x="-99.268" y="60" font-family="'HelveticaNeueLTStd-Lt'" font-size="48" letter-spacing="1">Weather Icons</tspan><tspan x="-3.726" y="104" font-family="'HelveticaNeueLTStd-Lt'" font-size="24">IOS 7 Style</tspan></text>
</svg>
