<?xml version="1.0" encoding="utf-8"?>
<!-- Generator: Adobe Illustrator 16.0.0, SVG Export Plug-In . SVG Version: 6.00 Build 0)  -->
<!DOCTYPE svg PUBLIC "-//W3C//DTD SVG 1.1//EN" "http://www.w3.org/Graphics/SVG/1.1/DTD/svg11.dtd">
<svg version="1.1" id="Layer_1" xmlns="http://www.w3.org/2000/svg" xmlns:xlink="http://www.w3.org/1999/xlink" x="0px" y="0px"
	 width="59px" height="46.874px" viewBox="0 0 59 46.874" enable-background="new 0 0 59 46.874" xml:space="preserve">
<path d="M546.769,96.854l-1.803,15.077l-0.268,2.237h2.254h6.896l-14.693,18.759l1.789-14.52l0.277-2.245h-2.262h-6.957
	L546.769,96.854 M549.623,89.829l-21.667,28.333h11.004l-2.671,21.667l21.667-27.661h-11.004L549.623,89.829L549.623,89.829z"/>
<path d="M133.733-365.407c6.79,0,12.749,4.814,14.171,11.448l0.318,1.483l1.514,0.094c4.203,0.262,7.496,3.763,7.496,7.971
	c0,4.396-3.565,7.977-7.957,8c-0.046-0.003-0.091-0.006-0.137-0.007l-2.043-0.036v0.043h-28.337l-0.578-0.003
	c-5.485-0.027-9.948-4.513-9.948-9.998c0-5.514,4.485-10,9.999-10c0.175,0,0.347,0.014,0.519,0.025l0.149,0.011l1.316,0.087
	l0.598-1.176C123.307-362.364,128.257-365.407,133.733-365.407 M133.733-367.407c-6.423,0-11.977,3.678-14.702,9.035
	c-0.266-0.018-0.53-0.04-0.8-0.04c-6.627,0-11.999,5.372-11.999,12c0,6.607,5.34,11.965,11.938,11.998v0.003h30.925v-0.007
	c0.046,0.001,0.091,0.007,0.137,0.007c5.521,0,10-4.477,10-10c0-5.311-4.145-9.642-9.372-9.967
	C148.265-361.823,141.653-367.407,133.733-367.407L133.733-367.407z"/>
<g>
	<path d="M256.685-346.996c-1.444-6.742-7.433-11.8-14.605-11.8c-2.185,0-4.258,0.47-6.127,1.313
		c-1.666-3.202-5.006-5.394-8.865-5.394c-5.522,0-10,4.477-10,9.999c0,2.46,0.898,4.702,2.373,6.442
		c-1.428,1.84-2.287,4.144-2.287,6.653c0,5.983,4.836,10.836,10.813,10.865v0.003h28.007v-0.006
		c0.042,0.001,0.082,0.006,0.124,0.006c5.001,0,9.057-4.054,9.057-9.057C265.173-342.779,261.419-346.701,256.685-346.996z
		 M227.087-360.876c3.092,0,5.76,1.773,7.092,4.345c-2.299,1.44-4.178,3.488-5.414,5.918c-0.241-0.016-0.48-0.036-0.725-0.036
		c-2.766,0-5.281,1.041-7.2,2.743c-1.092-1.366-1.753-3.09-1.753-4.971C219.087-357.287,222.676-360.876,227.087-360.876z
		 M256.156-330.913c-0.038-0.003-0.077-0.004-0.117-0.005l-2.047-0.042v0.047h-25.403l-0.594-0.003
		c-4.864-0.023-8.822-4.001-8.822-8.865c0-4.89,3.978-8.868,8.867-8.868c0.15,0,0.299,0.012,0.447,0.021l0.148,0.011l1.314,0.085
		l0.598-1.174c2.224-4.373,6.643-7.09,11.531-7.09c6.062,0,11.381,4.298,12.65,10.219l0.317,1.482l1.514,0.095
		c3.708,0.231,6.612,3.319,6.612,7.03C263.173-334.092,260.029-330.936,256.156-330.913z"/>
	<rect x="226.093" y="-372.906" width="2" height="7.973"/>
	<rect x="207.12" y="-353.92" width="7.973" height="2"/>
	<rect x="211.846" y="-365.139" transform="matrix(0.7071 0.7071 -0.7071 0.7071 -194.2689 -259.2707)" width="7.974" height="2"/>
	<rect x="237.355" y="-368.121" transform="matrix(0.7071 0.7071 -0.7071 0.7071 -187.6697 -275.1947)" width="2" height="7.972"/>
</g>
<path d="M352.428-351.023c-1.444-6.742-7.433-11.8-14.605-11.8c-1.799,0-3.521,0.32-5.118,0.904
	c-0.949-5.108-5.404-8.98-10.788-8.98c-0.413,0-0.819,0.027-1.222,0.071c0.744,1.112,1.179,2.448,1.179,3.886c0,3.865-3.134,7-7,7
	c-1.438,0-2.773-0.435-3.886-1.179c-0.044,0.401-0.071,0.809-0.071,1.222c0,3.712,1.845,6.987,4.661,8.979
	c-1.653,1.907-2.661,4.389-2.661,7.111c0,5.983,4.836,10.836,10.813,10.865v0.003h28.007v-0.006
	c0.042,0.001,0.082,0.006,0.124,0.006c5.001,0,9.057-4.054,9.057-9.057C360.916-346.807,357.162-350.729,352.428-351.023z
	 M313.093-358.119c0.582,0.117,1.178,0.177,1.78,0.177c4.963,0,9-4.037,9-9c0-0.603-0.06-1.198-0.177-1.78
	c3.733,0.753,6.629,3.824,7.134,7.64c-2.713,1.444-4.928,3.699-6.322,6.442c-0.241-0.016-0.48-0.036-0.725-0.036
	c-2.537,0-4.865,0.876-6.715,2.334C315.057-353.637,313.582-355.696,313.093-358.119z M351.899-334.94
	c-0.038-0.003-0.077-0.004-0.117-0.005l-2.047-0.042v0.047h-25.403l-0.594-0.003c-4.864-0.023-8.822-4.001-8.822-8.865
	c0-4.89,3.978-8.868,8.867-8.868c0.15,0,0.299,0.012,0.447,0.021l0.148,0.011l1.314,0.085l0.598-1.174
	c2.224-4.373,6.643-7.09,11.531-7.09c6.062,0,11.381,4.298,12.65,10.219l0.317,1.482l1.514,0.095
	c3.708,0.231,6.612,3.319,6.612,7.03C358.916-338.119,355.772-334.963,351.899-334.94z"/>
<g>
	<rect x="437.073" y="-342.4" width="2" height="7"/>
	<rect x="445.073" y="-346.4" width="2" height="7"/>
	<rect x="429.073" y="-346.4" width="2" height="7"/>
	<rect x="437.073" y="-332.4" width="2" height="7"/>
	<rect x="445.073" y="-336.4" width="2" height="7"/>
	<rect x="429.073" y="-336.4" width="2" height="7"/>
	<path d="M455.701-359.389c-1.596-7.445-8.207-13.029-16.127-13.029c-6.423,0-11.977,3.678-14.702,9.035
		c-0.266-0.018-0.53-0.04-0.8-0.04c-6.627,0-11.999,5.372-11.999,12c0,6.607,5.34,11.965,11.938,11.998v0.003h2.062v-2h-1.604
		l-0.447-0.003c-5.485-0.027-9.948-4.513-9.948-9.998c0-5.514,4.485-10,9.999-10c0.175,0,0.347,0.014,0.52,0.025l0.148,0.01
		l1.316,0.088l0.598-1.176c2.492-4.899,7.443-7.942,12.92-7.942c6.79,0,12.75,4.814,14.172,11.448l0.317,1.482l1.514,0.095
		c4.203,0.262,7.496,3.763,7.496,7.971c0,4.397-3.565,7.977-7.957,8c-0.05-0.003-0.093-0.005-0.137-0.007l-2.043,0.007h-2.863v2
		h4.863v-0.007c0.046,0.001,0.091,0.007,0.137,0.007c5.521,0,10-4.477,10-10C465.073-354.732,460.929-359.063,455.701-359.389z"/>
</g>
<g>
	<path d="M253.274-270.031c-1.596-7.445-8.207-13.029-16.127-13.029c-6.423,0-11.977,3.678-14.702,9.035
		c-0.266-0.018-0.53-0.04-0.8-0.04c-6.627,0-11.999,5.372-11.999,12c0,6.607,5.34,11.965,11.938,11.998v0.003h2.062v-2h-1.604
		l-0.447-0.003c-5.485-0.027-9.948-4.513-9.948-9.998c0-5.514,4.485-10,9.999-10c0.175,0,0.347,0.014,0.52,0.025l0.148,0.01
		l1.316,0.088l0.598-1.176c2.492-4.899,7.443-7.942,12.92-7.942c6.79,0,12.75,4.814,14.172,11.448l0.317,1.482l1.514,0.095
		c4.203,0.262,7.496,3.763,7.496,7.971c0,4.397-3.565,7.977-7.957,8c-0.05-0.003-0.093-0.005-0.137-0.007l-2.043,0.007h-2.863v2
		h4.863v-0.007c0.046,0.001,0.091,0.007,0.137,0.007c5.521,0,10-4.477,10-10C262.646-265.375,258.502-269.706,253.274-270.031z"/>
	<polygon points="234.646,-243.036 234.646,-241.096 234.646,-235.036 236.646,-235.036 236.646,-241.096 236.646,-243.036 
		236.646,-255.036 234.646,-255.036 	"/>
	<polygon points="242.646,-247.036 242.646,-245.283 242.646,-239.036 244.646,-239.036 244.646,-245.283 244.646,-247.036 
		244.646,-259.036 242.646,-259.036 	"/>
	<polygon points="226.646,-247.036 226.646,-244.971 226.646,-239.036 228.646,-239.036 228.646,-244.971 228.646,-247.036 
		228.646,-259.036 226.646,-259.036 	"/>
</g>
<g>
	<polygon points="548.924,-246.125 542.041,-255.955 540.403,-254.808 547.286,-244.978 548.398,-243.389 551.874,-238.425 
		553.513,-239.571 550.037,-244.536 	"/>
	<polygon points="556.926,-246.127 550.041,-255.955 548.403,-254.807 555.289,-244.979 556.294,-243.543 559.878,-238.428 
		561.517,-239.574 557.933,-244.69 	"/>
	<polygon points="540.924,-246.125 534.041,-255.955 532.403,-254.807 539.286,-244.978 540.471,-243.285 543.875,-238.424 
		545.513,-239.571 542.109,-244.433 	"/>
	<path d="M560.031-269.765c-1.596-7.445-8.207-13.029-16.127-13.029c-6.423,0-11.977,3.678-14.702,9.035
		c-0.266-0.018-0.53-0.04-0.8-0.04c-6.627,0-11.999,5.372-11.999,12c0,6.607,5.34,11.965,11.938,11.998v0.003h2.062v-2h-1.604
		l-0.447-0.003c-5.485-0.027-9.948-4.513-9.948-9.998c0-5.514,4.485-10,9.999-10c0.175,0,0.347,0.014,0.52,0.025l0.148,0.01
		l1.316,0.088l0.598-1.176c2.492-4.899,7.443-7.942,12.92-7.942c6.79,0,12.75,4.814,14.172,11.448l0.317,1.482l1.514,0.095
		c4.203,0.262,7.496,3.763,7.496,7.971c0,4.397-3.565,7.977-7.957,8c-0.05-0.003-0.093-0.005-0.137-0.007l-1.043,0.007h0.137v2
		h0.863v-0.007c0.046,0.001,0.091,0.007,0.137,0.007c5.521,0,10-4.477,10-10C569.403-265.108,565.259-269.439,560.031-269.765z"/>
</g>
<g>
	<rect x="531.729" y="-378.847" width="2" height="7.973"/>
	<rect x="512.729" y="-359.933" width="7.973" height="2"/>
	<rect x="517.403" y="-371.199" transform="matrix(0.7071 0.7071 -0.7071 0.7071 -109.0589 -477.107)" width="7.974" height="2"/>
	<rect x="542.911" y="-374.181" transform="matrix(0.7071 0.7071 -0.7071 0.7071 -102.4597 -493.0309)" width="2" height="7.972"/>
	<rect x="545.729" y="-337.974" width="2" height="7"/>
	<rect x="553.729" y="-341.974" width="2" height="7"/>
	<rect x="537.729" y="-341.974" width="2" height="7"/>
	<rect x="545.729" y="-327.974" width="2" height="7"/>
	<rect x="553.729" y="-331.974" width="2" height="7"/>
	<rect x="537.729" y="-331.974" width="2" height="7"/>
	<path d="M562.241-353.057c-1.444-6.742-7.433-11.8-14.605-11.8c-2.185,0-4.258,0.47-6.126,1.313
		c-1.667-3.202-5.007-5.394-8.866-5.394c-5.522,0-10,4.477-10,9.999c0,2.46,0.899,4.702,2.373,6.442
		c-1.429,1.84-2.287,4.144-2.287,6.653c0,5.983,4.836,10.836,10.813,10.865v0.003h1.188v-2h-0.721l-0.457-0.003
		c-4.864-0.023-8.822-4.001-8.822-8.865c0-4.89,3.978-8.868,8.867-8.868c0.15,0,0.299,0.012,0.447,0.022l0.148,0.01l1.314,0.085
		l0.597-1.175c2.225-4.372,6.644-7.089,11.532-7.089c6.062,0,11.382,4.298,12.649,10.219l0.318,1.483l1.514,0.094
		c3.708,0.23,6.612,3.319,6.612,7.03c0,3.878-3.144,7.035-7.017,7.057c-0.042-0.003-0.079-0.005-0.117-0.005l-2.047,0.005h-0.819v2
		h2.819v-0.006c0.042,0.001,0.082,0.006,0.124,0.006c5.001,0,9.057-4.054,9.057-9.057
		C570.729-348.84,566.976-352.762,562.241-353.057z M534.321-356.674c-0.241-0.016-0.48-0.036-0.725-0.036
		c-2.766,0-5.282,1.041-7.2,2.743c-1.092-1.366-1.753-3.09-1.753-4.971c0-4.41,3.589-7.999,8-7.999c3.091,0,5.76,1.773,7.091,4.345
		C537.437-361.151,535.557-359.104,534.321-356.674z"/>
</g>
<g>
	<rect x="646.146" y="-339.421" width="2" height="7"/>
	<rect x="654.146" y="-343.421" width="2" height="7"/>
	<rect x="638.146" y="-343.421" width="2" height="7"/>
	<rect x="646.146" y="-329.421" width="2" height="7"/>
	<rect x="654.146" y="-333.421" width="2" height="7"/>
	<rect x="638.146" y="-333.421" width="2" height="7"/>
	<path d="M662.658-354.504c-1.444-6.742-7.433-11.8-14.605-11.8c-1.799,0-3.522,0.32-5.118,0.904
		c-0.949-5.108-5.404-8.98-10.788-8.98c-0.413,0-0.819,0.027-1.222,0.071c0.744,1.112,1.179,2.448,1.179,3.886c0,3.865-3.134,7-7,7
		c-1.438,0-2.773-0.435-3.886-1.179c-0.044,0.401-0.071,0.809-0.071,1.222c0,3.712,1.845,6.987,4.661,8.979
		c-1.653,1.907-2.661,4.389-2.661,7.111c0,5.983,4.836,10.836,10.813,10.865v0.003h1.188v-2h-0.721l-0.457-0.003
		c-4.864-0.023-8.822-4.001-8.822-8.865c0-4.89,3.978-8.868,8.867-8.868c0.15,0,0.299,0.012,0.447,0.022l0.148,0.01l1.314,0.085
		l0.597-1.175c2.225-4.372,6.644-7.089,11.532-7.089c6.062,0,11.382,4.298,12.649,10.219l0.318,1.483l1.514,0.094
		c3.708,0.23,6.612,3.319,6.612,7.03c0,3.878-3.144,7.035-7.017,7.057c-0.042-0.003-0.079-0.005-0.117-0.005l-2.047,0.005h-0.819v2
		h2.819v-0.006c0.042,0.001,0.082,0.006,0.124,0.006c5.001,0,9.057-4.054,9.057-9.057
		C671.146-350.287,667.393-354.209,662.658-354.504z M634.738-358.121c-0.241-0.016-0.48-0.036-0.725-0.036
		c-2.537,0-4.865,0.876-6.715,2.334c-2.012-1.294-3.487-3.354-3.976-5.776c0.582,0.117,1.178,0.177,1.78,0.177c4.963,0,9-4.037,9-9
		c0-0.603-0.06-1.198-0.177-1.78c3.733,0.753,6.629,3.824,7.133,7.64C638.349-363.119,636.134-360.864,634.738-358.121z"/>
</g>
<g>
	<polygon points="338.916,-238.598 338.916,-236.657 338.916,-230.598 340.916,-230.598 340.916,-236.657 340.916,-238.598 
		340.916,-250.598 338.916,-250.598 	"/>
	<polygon points="346.916,-242.598 346.916,-240.845 346.916,-234.598 348.916,-234.598 348.916,-240.845 348.916,-242.598 
		348.916,-254.598 346.916,-254.598 	"/>
	<polygon points="330.916,-242.598 330.916,-240.532 330.916,-234.598 332.916,-234.598 332.916,-240.532 332.916,-242.598 
		332.916,-254.598 330.916,-254.598 	"/>
	<rect x="324.916" y="-289.5" width="2" height="7.973"/>
	<rect x="305.916" y="-270.586" width="7.973" height="2"/>
	<rect x="310.589" y="-281.852" transform="matrix(0.7071 0.7071 -0.7071 0.7071 -106.4555 -304.6987)" width="7.974" height="2"/>
	<rect x="336.098" y="-284.834" transform="matrix(0.7071 0.7071 -0.7071 0.7071 -99.8563 -320.6227)" width="2" height="7.972"/>
	<path d="M355.428-263.71c-1.444-6.742-7.433-11.8-14.605-11.8c-2.185,0-4.258,0.47-6.127,1.313
		c-1.666-3.202-5.006-5.394-8.865-5.394c-5.522,0-10,4.477-10,9.999c0,2.46,0.898,4.702,2.373,6.442
		c-1.428,1.84-2.287,4.144-2.287,6.653c0,5.983,4.836,10.836,10.813,10.865v0.003h1.188v-2h-0.721l-0.457-0.003
		c-4.864-0.023-8.822-4.001-8.822-8.865c0-4.89,3.978-8.868,8.867-8.868c0.15,0,0.299,0.012,0.447,0.022l0.148,0.01l1.314,0.085
		l0.597-1.175c2.225-4.372,6.644-7.089,11.532-7.089c6.062,0,11.382,4.298,12.649,10.219l0.318,1.483l1.514,0.094
		c3.708,0.23,6.612,3.319,6.612,7.03c0,3.878-3.144,7.035-7.017,7.057c-0.042-0.003-0.079-0.005-0.117-0.005l-2.047,0.005h-0.819v2
		h2.819v-0.006c0.042,0.001,0.082,0.006,0.124,0.006c5.001,0,9.057-4.054,9.057-9.057
		C363.916-259.493,360.162-263.415,355.428-263.71z M327.508-267.327c-0.241-0.016-0.48-0.036-0.725-0.036
		c-2.766,0-5.281,1.042-7.2,2.743c-1.092-1.367-1.753-3.09-1.753-4.971c0-4.41,3.589-7.999,8-7.999c3.092,0,5.76,1.773,7.092,4.345
		C330.623-271.806,328.744-269.757,327.508-267.327z"/>
</g>
<g>
	<polygon points="439.313,-241.114 439.313,-239.174 439.313,-233.114 441.313,-233.114 441.313,-239.174 441.313,-241.114 
		441.313,-253.114 439.313,-253.114 	"/>
	<polygon points="447.313,-245.114 447.313,-243.361 447.313,-237.114 449.313,-237.114 449.313,-243.361 449.313,-245.114 
		449.313,-257.114 447.313,-257.114 	"/>
	<polygon points="431.313,-245.114 431.313,-243.049 431.313,-237.114 433.313,-237.114 433.313,-243.049 433.313,-245.114 
		433.313,-257.114 431.313,-257.114 	"/>
	<path d="M455.825-266.227c-1.444-6.742-7.433-11.8-14.605-11.8c-1.799,0-3.521,0.32-5.118,0.904
		c-0.949-5.108-5.404-8.98-10.788-8.98c-0.413,0-0.819,0.027-1.222,0.071c0.744,1.112,1.179,2.448,1.179,3.886c0,3.865-3.134,7-7,7
		c-1.438,0-2.773-0.435-3.886-1.179c-0.044,0.401-0.071,0.809-0.071,1.222c0,3.712,1.845,6.987,4.661,8.979
		c-1.653,1.907-2.661,4.389-2.661,7.111c0,5.983,4.836,10.836,10.813,10.865v0.003h1.188v-2h-0.721l-0.457-0.003
		c-4.864-0.023-8.822-4.001-8.822-8.865c0-4.89,3.978-8.868,8.867-8.868c0.15,0,0.299,0.012,0.447,0.022l0.148,0.01l1.314,0.085
		l0.597-1.175c2.225-4.372,6.644-7.089,11.532-7.089c6.062,0,11.382,4.298,12.649,10.219l0.318,1.483l1.514,0.094
		c3.708,0.23,6.612,3.319,6.612,7.03c0,3.878-3.144,7.035-7.017,7.057c-0.042-0.003-0.079-0.005-0.117-0.005l-2.047,0.005h-0.819v2
		h2.819v-0.006c0.042,0.001,0.082,0.006,0.124,0.006c5.001,0,9.057-4.054,9.057-9.057
		C464.313-262.01,460.56-265.932,455.825-266.227z M427.905-269.844c-0.241-0.016-0.48-0.036-0.725-0.036
		c-2.537,0-4.865,0.876-6.715,2.334c-2.012-1.294-3.486-3.354-3.976-5.776c0.582,0.117,1.178,0.177,1.78,0.177c4.963,0,9-4.037,9-9
		c0-0.603-0.06-1.198-0.177-1.78c3.733,0.753,6.629,3.824,7.134,7.641C431.515-274.842,429.3-272.586,427.905-269.844z"/>
</g>
<g>
	<polygon points="656.349,-240.17 649.466,-250 647.828,-248.853 654.711,-239.022 655.823,-237.434 659.299,-232.47 
		660.938,-233.616 657.462,-238.581 	"/>
	<polygon points="664.351,-240.172 657.466,-250 655.828,-248.852 662.714,-239.023 663.719,-237.588 667.303,-232.473 
		668.941,-233.619 665.357,-238.735 	"/>
	<polygon points="648.349,-240.17 641.466,-250 639.828,-248.852 646.711,-239.022 647.896,-237.33 651.3,-232.469 
		652.938,-233.616 649.534,-238.478 	"/>
	<rect x="635.828" y="-287.719" width="2" height="7.973"/>
	<rect x="616.828" y="-268.805" width="7.973" height="2"/>
	<rect x="621.501" y="-280.071" transform="matrix(0.7071 0.7071 -0.7071 0.7071 -14.1319 -524.0251)" width="7.974" height="2"/>
	<rect x="647.01" y="-283.053" transform="matrix(0.7071 0.7071 -0.7071 0.7071 -7.5328 -539.949)" width="2" height="7.972"/>
	<path d="M666.34-261.929c-1.444-6.742-7.433-11.8-14.605-11.8c-2.185,0-4.258,0.47-6.126,1.313
		c-1.667-3.202-5.007-5.394-8.866-5.394c-5.522,0-10,4.477-10,9.999c0,2.46,0.899,4.702,2.373,6.442
		c-1.429,1.84-2.287,4.144-2.287,6.653c0,5.983,4.836,10.836,10.813,10.865v0.003h1.188v-2h-0.721l-0.457-0.003
		c-4.864-0.023-8.822-4.001-8.822-8.865c0-4.89,3.978-8.868,8.867-8.868c0.15,0,0.299,0.012,0.447,0.022l0.148,0.01l1.314,0.085
		l0.597-1.175c2.225-4.372,6.644-7.089,11.532-7.089c6.062,0,11.382,4.298,12.649,10.219l0.318,1.483l1.514,0.094
		c3.708,0.23,6.612,3.319,6.612,7.03c0,3.878-3.144,7.035-7.017,7.057c-0.042-0.003-0.079-0.005-0.117-0.005l-0.047,0.005h-0.819v2
		h0.819v-0.006c0.042,0.001,0.082,0.006,0.124,0.006c5.001,0,9.057-4.054,9.057-9.057
		C674.828-257.712,671.074-261.634,666.34-261.929z M638.42-265.546c-0.241-0.016-0.48-0.036-0.725-0.036
		c-2.766,0-5.282,1.042-7.2,2.743c-1.092-1.367-1.753-3.09-1.753-4.971c0-4.41,3.589-7.999,8-7.999c3.091,0,5.76,1.773,7.091,4.345
		C641.535-270.024,639.655-267.976,638.42-265.546z"/>
</g>
<g>
	<polygon points="-67.082,-143.685 -73.965,-153.515 -75.603,-152.367 -68.72,-142.537 -67.607,-140.948 -64.132,-135.984 
		-62.493,-137.131 -65.969,-142.096 	"/>
	<polygon points="-59.08,-143.687 -65.965,-153.515 -67.603,-152.366 -60.717,-142.538 -59.712,-141.103 -56.128,-135.987 
		-54.489,-137.134 -58.073,-142.25 	"/>
	<polygon points="-75.082,-143.685 -81.965,-153.515 -83.603,-152.366 -76.72,-142.537 -75.535,-140.845 -72.131,-135.983 
		-70.493,-137.131 -73.896,-141.992 	"/>
	<path d="M-57.091-165.443c-1.444-6.742-7.433-11.8-14.605-11.8c-1.799,0-3.522,0.32-5.118,0.904
		c-0.949-5.108-5.404-8.98-10.788-8.98c-0.413,0-0.819,0.027-1.222,0.071c0.744,1.112,1.179,2.448,1.179,3.886c0,3.865-3.134,7-7,7
		c-1.438,0-2.773-0.435-3.886-1.179c-0.044,0.401-0.071,0.809-0.071,1.222c0,3.712,1.845,6.987,4.661,8.979
		c-1.653,1.907-2.661,4.389-2.661,7.111c0,5.983,4.836,10.836,10.813,10.865v0.003h1.188v-2h-0.721l-0.457-0.003
		c-4.864-0.023-8.822-4.001-8.822-8.865c0-4.89,3.978-8.868,8.867-8.868c0.15,0,0.299,0.012,0.447,0.022l0.148,0.01l1.314,0.085
		l0.597-1.175c2.225-4.372,6.644-7.089,11.532-7.089c6.062,0,11.382,4.298,12.649,10.219l0.318,1.483l1.514,0.094
		c3.708,0.23,6.612,3.319,6.612,7.03c0,3.878-3.144,7.035-7.017,7.057c-0.042-0.003-0.079-0.005-0.117-0.005l-0.047,0.005h-0.819v2
		h0.819v-0.006c0.042,0.001,0.082,0.006,0.124,0.006c5.001,0,9.057-4.054,9.057-9.057
		C-48.603-161.227-52.356-165.148-57.091-165.443z M-85.011-169.061c-0.241-0.016-0.48-0.036-0.725-0.036
		c-2.537,0-4.865,0.876-6.715,2.334c-2.012-1.294-3.487-3.354-3.976-5.776c0.582,0.117,1.178,0.177,1.78,0.177c4.963,0,9-4.037,9-9
		c0-0.603-0.06-1.198-0.177-1.78c3.733,0.753,6.629,3.824,7.133,7.641C-81.4-174.059-83.615-171.803-85.011-169.061z"/>
</g>
<g>
	<rect x="-74.603" y="-247.531" width="2" height="4"/>
	<rect x="-66.603" y="-251.553" width="2" height="4.021"/>
	<rect x="-82.603" y="-251.553" width="2" height="4.021"/>
	<path d="M-55.975-267.52c-1.596-7.445-8.207-13.029-16.127-13.029c-6.423,0-11.977,3.678-14.702,9.035
		c-0.266-0.018-0.53-0.04-0.8-0.04c-6.627,0-11.999,5.372-11.999,12c0,6.607,5.34,11.965,11.938,11.998v0.003h2.062v-2h-1.604
		l-0.447-0.003c-5.485-0.027-9.948-4.513-9.948-9.998c0-5.514,4.485-10,9.999-10c0.175,0,0.347,0.014,0.52,0.025l0.148,0.01
		l1.316,0.088l0.598-1.176c2.492-4.899,7.443-7.942,12.92-7.942c6.79,0,12.75,4.814,14.172,11.448l0.317,1.482l1.514,0.095
		c4.203,0.262,7.496,3.763,7.496,7.971c0,4.397-3.565,7.977-7.957,8c-0.05-0.003-0.093-0.005-0.137-0.007l-2.043,0.007h-2.863v2
		h4.863v-0.007c0.046,0.001,0.091,0.007,0.137,0.007c5.521,0,10-4.477,10-10C-46.603-262.863-50.747-267.194-55.975-267.52z"/>
	<circle cx="-65.603" cy="-242.511" r="1.5"/>
	<circle cx="-73.603" cy="-238.542" r="1.5"/>
	<circle cx="-81.603" cy="-242.553" r="1.5"/>
</g>
<g>
	<rect x="18.318" y="-286.985" width="2" height="7.973"/>
	<rect x="-0.682" y="-268.071" width="7.973" height="2"/>
	<rect x="3.991" y="-279.338" transform="matrix(0.7071 0.7071 -0.7071 0.7071 -194.4778 -87.1649)" width="7.974" height="2"/>
	<rect x="29.5" y="-282.32" transform="matrix(0.7071 0.7071 -0.7071 0.7071 -187.8786 -103.0889)" width="2" height="7.972"/>
	<path d="M48.83-261.195c-1.444-6.742-7.433-11.8-14.605-11.8c-2.185,0-4.258,0.47-6.126,1.313
		c-1.667-3.202-5.007-5.394-8.866-5.394c-5.522,0-10,4.477-10,9.999c0,2.46,0.899,4.702,2.373,6.442
		c-1.429,1.84-2.287,4.144-2.287,6.653c0,5.983,4.836,10.836,10.813,10.865v0.003h1.188v-2h-0.721l-0.457-0.003
		c-4.864-0.023-8.822-4.001-8.822-8.865c0-4.89,3.978-8.868,8.867-8.868c0.15,0,0.299,0.012,0.447,0.022l0.148,0.01l1.314,0.085
		l0.597-1.175c2.225-4.372,6.644-7.089,11.532-7.089c6.062,0,11.382,4.298,12.649,10.219l0.318,1.483l1.514,0.094
		c3.708,0.23,6.612,3.319,6.612,7.03c0,3.878-3.144,7.035-7.017,7.057c-0.042-0.003-0.079-0.005-0.117-0.005l-2.047,0.005h-0.819v2
		h2.819v-0.006c0.042,0.001,0.082,0.006,0.124,0.006c5.001,0,9.057-4.054,9.057-9.057C57.318-256.979,53.564-260.9,48.83-261.195z
		 M20.91-264.813c-0.241-0.016-0.48-0.036-0.725-0.036c-2.766,0-5.282,1.042-7.2,2.743c-1.092-1.367-1.753-3.09-1.753-4.971
		c0-4.41,3.589-7.999,8-7.999c3.091,0,5.76,1.773,7.091,4.345C24.025-269.291,22.146-267.242,20.91-264.813z"/>
	<rect x="32.318" y="-243.097" width="2" height="4"/>
	<rect x="40.318" y="-247.118" width="2" height="4.021"/>
	<rect x="24.318" y="-247.118" width="2" height="4.021"/>
	<circle cx="41.318" cy="-238.076" r="1.5"/>
	<circle cx="33.318" cy="-234.107" r="1.5"/>
	<circle cx="25.318" cy="-238.118" r="1.5"/>
</g>
<g>
	<path d="M149.756-262.152c-1.444-6.742-7.433-11.8-14.605-11.8c-1.799,0-3.522,0.32-5.118,0.904
		c-0.949-5.108-5.404-8.98-10.788-8.98c-0.413,0-0.819,0.027-1.222,0.071c0.744,1.112,1.179,2.448,1.179,3.886c0,3.865-3.134,7-7,7
		c-1.438,0-2.773-0.435-3.886-1.179c-0.044,0.401-0.071,0.809-0.071,1.222c0,3.712,1.845,6.987,4.661,8.979
		c-1.653,1.907-2.661,4.389-2.661,7.111c0,5.983,4.836,10.836,10.813,10.865v0.003h1.188v-2h-0.721l-0.457-0.003
		c-4.864-0.023-8.822-4.001-8.822-8.865c0-4.89,3.978-8.868,8.867-8.868c0.15,0,0.299,0.012,0.447,0.022l0.148,0.01l1.314,0.085
		l0.597-1.175c2.225-4.372,6.644-7.089,11.532-7.089c6.062,0,11.382,4.298,12.649,10.219l0.318,1.483l1.514,0.094
		c3.708,0.23,6.612,3.319,6.612,7.03c0,3.878-3.144,7.035-7.017,7.057c-0.042-0.003-0.079-0.005-0.117-0.005l-2.047,0.005h-0.819v2
		h2.819v-0.006c0.042,0.001,0.082,0.006,0.124,0.006c5.001,0,9.057-4.054,9.057-9.057
		C158.244-257.936,154.49-261.857,149.756-262.152z M121.836-265.77c-0.241-0.016-0.48-0.036-0.725-0.036
		c-2.537,0-4.865,0.876-6.715,2.334c-2.012-1.294-3.487-3.354-3.976-5.776c0.582,0.117,1.178,0.177,1.78,0.177c4.963,0,9-4.037,9-9
		c0-0.603-0.06-1.198-0.177-1.78c3.733,0.753,6.629,3.824,7.133,7.641C125.446-270.768,123.231-268.512,121.836-265.77z"/>
	<rect x="133.244" y="-244.054" width="2" height="4"/>
	<rect x="141.244" y="-248.075" width="2" height="4.021"/>
	<rect x="125.244" y="-248.075" width="2" height="4.021"/>
	<circle cx="142.244" cy="-239.033" r="1.5"/>
	<circle cx="134.244" cy="-235.064" r="1.5"/>
	<circle cx="126.244" cy="-239.075" r="1.5"/>
</g>
<g>
	<path d="M46.446-169.122c-1.596-7.445-8.207-13.029-16.127-13.029c-6.423,0-11.977,3.678-14.702,9.035
		c-0.266-0.018-0.53-0.04-0.8-0.04c-6.627,0-11.999,5.372-11.999,12c0,6.607,5.34,11.965,11.938,11.998v0.003h6.062v-2h-5.604
		l-0.447-0.003c-5.485-0.027-9.948-4.513-9.948-9.998c0-5.514,4.485-10,9.999-10c0.175,0,0.347,0.014,0.52,0.025l0.148,0.01
		l1.316,0.088l0.598-1.176c2.492-4.899,7.443-7.942,12.92-7.942c6.79,0,12.75,4.814,14.172,11.448l0.317,1.482l1.514,0.095
		c4.203,0.262,7.496,3.763,7.496,7.971c0,4.397-3.565,7.977-7.957,8c-0.05-0.003-0.093-0.005-0.137-0.007l-5.043,0.007h0.137v2
		h4.863v-0.007c0.046,0.001,0.091,0.007,0.137,0.007c5.521,0,10-4.477,10-10C55.818-164.466,51.674-168.797,46.446-169.122z"/>
	<polygon points="30.66,-149.151 32.43,-149.151 32.86,-149.151 34.87,-149.151 28.456,-158.313 26.818,-157.165 31.029,-151.151 
		29.259,-151.151 26.818,-151.151 28.09,-149.335 29.202,-147.746 35.18,-139.151 36.818,-140.298 30.841,-148.894 	"/>
</g>
<g>
	<rect x="122.244" y="-188.252" width="2" height="7.973"/>
	<rect x="103.244" y="-169.338" width="7.973" height="2"/>
	<rect x="107.917" y="-180.604" transform="matrix(0.7071 0.7071 -0.7071 0.7071 -94.2235 -131.7332)" width="7.974" height="2"/>
	<rect x="133.426" y="-183.586" transform="matrix(0.7071 0.7071 -0.7071 0.7071 -87.6244 -147.6572)" width="2" height="7.972"/>
	<path d="M152.756-162.462c-1.444-6.742-7.433-11.8-14.605-11.8c-2.185,0-4.258,0.47-6.127,1.313
		c-1.666-3.202-5.006-5.394-8.865-5.394c-5.522,0-10,4.477-10,9.999c0,2.46,0.898,4.702,2.373,6.442
		c-1.428,1.84-2.287,4.144-2.287,6.653c0,5.983,4.836,10.836,10.813,10.865v0.003h4.188v-2h-3.721l-0.457-0.003
		c-4.864-0.023-8.822-4.001-8.822-8.865c0-4.89,3.978-8.868,8.867-8.868c0.15,0,0.299,0.012,0.447,0.022l0.148,0.01l1.314,0.085
		l0.597-1.175c2.225-4.372,6.644-7.089,11.532-7.089c6.062,0,11.382,4.298,12.649,10.219l0.318,1.483l1.514,0.094
		c3.708,0.23,6.612,3.319,6.612,7.03c0,3.878-3.144,7.035-7.017,7.057c-0.042-0.003-0.079-0.005-0.117-0.005l-2.047,0.005h-3.819v2
		h5.819v-0.006c0.042,0.001,0.082,0.006,0.124,0.006c5.001,0,9.057-4.054,9.057-9.057
		C161.244-158.245,157.49-162.167,152.756-162.462z M124.836-166.079c-0.241-0.016-0.48-0.036-0.725-0.036
		c-2.766,0-5.281,1.041-7.2,2.743c-1.092-1.366-1.753-3.09-1.753-4.971c0-4.41,3.589-7.999,8-7.999c3.092,0,5.76,1.773,7.092,4.345
		C127.951-170.557,126.072-168.509,124.836-166.079z"/>
	<polygon points="137.086,-144.372 138.855,-144.372 139.286,-144.372 141.296,-144.372 134.882,-153.533 133.244,-152.386 
		137.455,-146.372 135.685,-146.372 133.244,-146.372 134.516,-144.556 135.628,-142.967 141.605,-134.372 143.244,-135.519 
		137.267,-144.114 	"/>
</g>
<g>
	<path d="M252.341-164.758c-1.444-6.742-7.433-11.8-14.605-11.8c-1.799,0-3.521,0.32-5.118,0.904
		c-0.949-5.108-5.404-8.98-10.788-8.98c-0.413,0-0.819,0.027-1.222,0.071c0.744,1.112,1.179,2.448,1.179,3.886c0,3.865-3.134,7-7,7
		c-1.438,0-2.773-0.435-3.886-1.179c-0.044,0.401-0.071,0.809-0.071,1.222c0,3.712,1.845,6.987,4.661,8.979
		c-1.653,1.907-2.661,4.389-2.661,7.111c0,5.983,4.836,10.836,10.813,10.865v0.003h4.188v-2h-3.721l-0.457-0.003
		c-4.864-0.023-8.822-4.001-8.822-8.865c0-4.89,3.978-8.868,8.867-8.868c0.15,0,0.299,0.012,0.447,0.022l0.148,0.01l1.314,0.085
		l0.597-1.175c2.225-4.372,6.644-7.089,11.532-7.089c6.062,0,11.382,4.298,12.649,10.219l0.318,1.483l1.514,0.094
		c3.708,0.23,6.612,3.319,6.612,7.03c0,3.878-3.144,7.035-7.017,7.057c-0.042-0.003-0.079-0.005-0.117-0.005l-2.047,0.005h-3.819v2
		h5.819v-0.006c0.042,0.001,0.082,0.006,0.124,0.006c5.001,0,9.057-4.054,9.057-9.057
		C260.829-160.541,257.075-164.463,252.341-164.758z M224.421-168.375c-0.241-0.016-0.48-0.036-0.725-0.036
		c-2.537,0-4.865,0.876-6.715,2.334c-2.012-1.294-3.486-3.354-3.976-5.776c0.582,0.117,1.178,0.177,1.78,0.177c4.963,0,9-4.037,9-9
		c0-0.603-0.06-1.198-0.177-1.78c3.733,0.753,6.629,3.824,7.134,7.64C228.03-173.373,225.815-171.118,224.421-168.375z"/>
	<polygon points="236.671,-146.668 238.44,-146.668 238.871,-146.668 240.881,-146.668 234.467,-155.829 232.829,-154.682 
		237.04,-148.668 235.27,-148.668 232.829,-148.668 234.101,-146.852 235.213,-145.263 241.19,-136.668 242.829,-137.814 
		236.852,-146.41 	"/>
</g>
<g>
	<path d="M353.226-168.622c-1.596-7.445-8.207-13.029-16.127-13.029c-6.423,0-11.977,3.678-14.702,9.035
		c-0.266-0.018-0.53-0.04-0.8-0.04c-6.627,0-11.999,5.372-11.999,12c0,6.607,5.34,11.965,11.938,11.998v0.003h1.062v-2h-0.604
		l-0.447-0.003c-5.485-0.027-9.948-4.513-9.948-9.998c0-5.514,4.485-10,9.999-10c0.175,0,0.347,0.014,0.52,0.025l0.148,0.01
		l1.316,0.088l0.598-1.176c2.492-4.899,7.443-7.942,12.92-7.942c6.79,0,12.75,4.814,14.172,11.448l0.317,1.482l1.514,0.095
		c4.203,0.262,7.496,3.763,7.496,7.971c0,4.397-3.565,7.977-7.957,8c-0.05-0.003-0.093-0.005-0.137-0.007l-0.906,0.007v2h0.863
		v-0.007c0.046,0.001,0.091,0.007,0.137,0.007c5.521,0,10-4.477,10-10C362.598-163.966,358.453-168.297,353.226-168.622z"/>
	
		<rect x="322.032" y="-150.657" transform="matrix(-0.5736 -0.8191 0.8191 -0.5736 638.1469 32.8522)" width="11.183" height="1.999"/>
	
		<rect x="340.007" y="-150.657" transform="matrix(-0.5736 -0.8191 0.8191 -0.5736 666.4324 47.5754)" width="11.183" height="1.999"/>
	<polygon points="338.439,-145.651 340.209,-145.651 340.64,-145.651 342.649,-145.651 336.235,-154.813 334.598,-153.665 
		338.809,-147.651 337.038,-147.651 334.598,-147.651 335.869,-145.835 336.981,-144.246 341.598,-137.651 343.236,-138.798 
		338.62,-145.394 	"/>
</g>
<g>
	<rect x="428.073" y="-188.089" width="2" height="7.973"/>
	<rect x="409.073" y="-169.175" width="7.973" height="2"/>
	<rect x="413.746" y="-180.441" transform="matrix(0.7071 0.7071 -0.7071 0.7071 -4.533 -347.9393)" width="7.974" height="2"/>
	<rect x="439.255" y="-183.423" transform="matrix(0.7071 0.7071 -0.7071 0.7071 2.0662 -363.8633)" width="2" height="7.972"/>
	<path d="M458.585-162.299c-1.444-6.742-7.433-11.8-14.605-11.8c-2.185,0-4.258,0.47-6.126,1.313
		c-1.667-3.202-5.007-5.394-8.866-5.394c-5.522,0-10,4.477-10,9.999c0,2.46,0.899,4.702,2.373,6.442
		c-1.429,1.84-2.287,4.144-2.287,6.653c0,5.983,4.836,10.836,10.813,10.865v0.003h0.188v-2l-0.178-0.003
		c-4.864-0.023-8.822-4.001-8.822-8.865c0-4.89,3.978-8.868,8.867-8.868c0.15,0,0.299,0.012,0.447,0.022l0.148,0.01l1.314,0.085
		l0.597-1.175c2.225-4.372,6.644-7.089,11.532-7.089c6.062,0,11.382,4.298,12.649,10.219l0.318,1.483l1.514,0.094
		c3.708,0.23,6.612,3.319,6.612,7.03c0,3.878-3.144,7.035-7.017,7.057c-0.042-0.003-0.079-0.005-0.117-0.005l-0.866,0.005v2h0.819
		v-0.006c0.042,0.001,0.082,0.006,0.124,0.006c5.001,0,9.057-4.054,9.057-9.057C467.073-158.082,463.319-162.004,458.585-162.299z
		 M430.665-165.916c-0.241-0.016-0.48-0.036-0.725-0.036c-2.766,0-5.282,1.042-7.2,2.743c-1.092-1.367-1.753-3.09-1.753-4.971
		c0-4.41,3.589-7.999,8-7.999c3.091,0,5.76,1.773,7.091,4.345C433.78-170.395,431.9-168.346,430.665-165.916z"/>
	
		<rect x="428.495" y="-146.219" transform="matrix(-0.5736 -0.8191 0.8191 -0.5736 802.0453 127.0414)" width="11.183" height="1.999"/>
	
		<rect x="446.469" y="-146.219" transform="matrix(-0.5736 -0.8191 0.8191 -0.5736 830.3309 141.7646)" width="11.183" height="1.999"/>
	<polygon points="444.902,-141.213 446.672,-141.213 447.103,-141.213 449.112,-141.213 442.698,-150.374 441.061,-149.227 
		445.271,-143.213 443.501,-143.213 441.061,-143.213 442.332,-141.396 443.444,-139.808 448.061,-133.213 449.699,-134.359 
		445.083,-140.955 	"/>
</g>
<g>
	<path d="M560.423-165.257c-1.444-6.742-7.433-11.8-14.605-11.8c-1.799,0-3.522,0.32-5.118,0.904
		c-0.949-5.108-5.404-8.98-10.788-8.98c-0.413,0-0.819,0.027-1.222,0.071c0.744,1.112,1.179,2.448,1.179,3.886c0,3.865-3.134,7-7,7
		c-1.438,0-2.773-0.435-3.886-1.179c-0.044,0.401-0.071,0.809-0.071,1.222c0,3.712,1.845,6.987,4.661,8.979
		c-1.653,1.907-2.661,4.389-2.661,7.111c0,5.983,4.836,10.836,10.813,10.865v0.003h0.188v-2l-0.178-0.003
		c-4.864-0.023-8.822-4.001-8.822-8.865c0-4.89,3.978-8.868,8.867-8.868c0.15,0,0.299,0.012,0.447,0.022l0.148,0.01l1.314,0.085
		l0.597-1.175c2.225-4.372,6.644-7.089,11.532-7.089c6.062,0,11.382,4.298,12.649,10.219l0.318,1.483l1.514,0.094
		c3.708,0.23,6.612,3.319,6.612,7.03c0,3.878-3.144,7.035-7.017,7.057c-0.042-0.003-0.079-0.005-0.117-0.005l-0.866,0.005v2h0.819
		v-0.006c0.042,0.001,0.082,0.006,0.124,0.006c5.001,0,9.057-4.054,9.057-9.057C568.911-161.04,565.157-164.962,560.423-165.257z
		 M532.503-168.874c-0.241-0.016-0.48-0.036-0.725-0.036c-2.537,0-4.865,0.876-6.715,2.334c-2.012-1.294-3.487-3.354-3.976-5.776
		c0.582,0.117,1.178,0.177,1.78,0.177c4.963,0,9-4.037,9-9c0-0.603-0.06-1.198-0.177-1.78c3.733,0.753,6.629,3.824,7.133,7.641
		C536.113-173.872,533.898-171.616,532.503-168.874z"/>
	
		<rect x="530.332" y="-149.177" transform="matrix(-0.5736 -0.8191 0.8191 -0.5736 964.7227 205.8022)" width="11.183" height="1.999"/>
	
		<rect x="548.306" y="-149.177" transform="matrix(-0.5736 -0.8191 0.8191 -0.5736 993.0083 220.5253)" width="11.183" height="1.999"/>
	<polygon points="546.739,-144.171 548.509,-144.171 548.939,-144.171 550.949,-144.171 544.535,-153.332 542.897,-152.185 
		547.108,-146.171 545.338,-146.171 542.897,-146.171 544.169,-144.354 545.281,-142.766 549.897,-136.171 551.536,-137.317 
		546.92,-143.913 	"/>
</g>
<g>
	<g>
		<path d="M149.86-78.802c-1.596-7.445-8.207-13.029-16.127-13.029c-6.423,0-11.977,3.678-14.702,9.035
			c-0.266-0.018-0.53-0.04-0.8-0.04c-6.627,0-11.999,5.372-11.999,12c0,6.607,5.34,11.965,11.938,11.998v0.003h2.062v-2h-1.604
			l-0.447-0.003c-5.485-0.027-9.948-4.513-9.948-9.998c0-5.514,4.485-10,9.999-10c0.175,0,0.347,0.014,0.52,0.025l0.148,0.01
			l1.316,0.088l0.598-1.176c2.492-4.899,7.443-7.942,12.92-7.942c6.79,0,12.75,4.814,14.172,11.448l0.317,1.482l1.514,0.095
			c4.203,0.262,7.496,3.763,7.496,7.971c0,4.397-3.565,7.977-7.957,8c-0.05-0.003-0.093-0.005-0.137-0.007l-2.043,0.007h-2.863v2
			h4.863v-0.007c0.046,0.001,0.091,0.007,0.137,0.007c5.521,0,10-4.477,10-10C159.232-74.146,155.088-78.477,149.86-78.802z"/>
	</g>
	<g>
		<circle cx="124.732" cy="-65.259" r="1.5"/>
	</g>
	<g>
		<circle cx="128.732" cy="-59.335" r="1.5"/>
	</g>
	<g>
		<circle cx="136.732" cy="-59.335" r="1.5"/>
	</g>
	<g>
		<circle cx="132.732" cy="-65.259" r="1.5"/>
	</g>
	<g>
		<circle cx="140.732" cy="-65.259" r="1.5"/>
	</g>
	<g>
		<circle cx="124.732" cy="-53.313" r="1.5"/>
	</g>
	<g>
		<circle cx="132.732" cy="-53.313" r="1.5"/>
	</g>
	<g>
		<circle cx="140.732" cy="-53.313" r="1.5"/>
	</g>
</g>
<g>
	<g>
		<rect x="225.646" y="-94.279" width="2" height="7.973"/>
	</g>
	<g>
		<rect x="206.646" y="-75.365" width="7.973" height="2"/>
	</g>
	<g>
		<rect x="211.32" y="-86.632" transform="matrix(0.7071 0.7071 -0.7071 0.7071 2.511 -177.3258)" width="7.974" height="2"/>
	</g>
	<g>
		<rect x="236.828" y="-89.614" transform="matrix(0.7071 0.7071 -0.7071 0.7071 9.1102 -193.2497)" width="2" height="7.972"/>
	</g>
	<g>
		<path d="M256.158-68.489c-1.444-6.742-7.433-11.8-14.605-11.8c-2.185,0-4.258,0.47-6.127,1.313
			c-1.666-3.202-5.006-5.394-8.865-5.394c-5.522,0-10,4.477-10,9.999c0,2.46,0.898,4.702,2.373,6.442
			c-1.428,1.84-2.287,4.144-2.287,6.653c0,5.983,4.836,10.836,10.813,10.865v0.003h1.188v-2h-0.721l-0.457-0.003
			c-4.864-0.023-8.822-4.001-8.822-8.865c0-4.89,3.978-8.868,8.867-8.868c0.15,0,0.299,0.012,0.447,0.022l0.148,0.01l1.314,0.085
			l0.597-1.175c2.225-4.372,6.644-7.089,11.532-7.089c6.062,0,11.382,4.298,12.649,10.219l0.318,1.483l1.514,0.094
			c3.708,0.23,6.612,3.319,6.612,7.03c0,3.878-3.144,7.035-7.017,7.057c-0.042-0.003-0.079-0.005-0.117-0.005l-2.047,0.005h-1.819v2
			h3.819v-0.006c0.042,0.001,0.082,0.006,0.124,0.006c5.001,0,9.057-4.054,9.057-9.057
			C264.646-64.272,260.893-68.194,256.158-68.489z M228.238-72.106c-0.241-0.016-0.48-0.036-0.725-0.036
			c-2.766,0-5.281,1.042-7.2,2.743c-1.092-1.367-1.753-3.09-1.753-4.971c0-4.41,3.589-7.999,8-7.999c3.092,0,5.76,1.773,7.092,4.345
			C231.354-76.585,229.475-74.536,228.238-72.106z"/>
	</g>
	<g>
		<circle cx="232.136" cy="-56.896" r="1.5"/>
	</g>
	<g>
		<circle cx="236.136" cy="-50.896" r="1.5"/>
	</g>
	<g>
		<circle cx="244.136" cy="-50.896" r="1.5"/>
	</g>
	<g>
		<circle cx="240.136" cy="-56.896" r="1.5"/>
	</g>
	<g>
		<circle cx="248.136" cy="-56.896" r="1.5"/>
	</g>
	<g>
		<circle cx="232.136" cy="-44.874" r="1.5"/>
	</g>
	<g>
		<circle cx="240.136" cy="-44.874" r="1.5"/>
	</g>
	<g>
		<circle cx="248.136" cy="-44.874" r="1.5"/>
	</g>
</g>
<g>
	<g>
		<path d="M352.109-72.445c-1.444-6.742-7.433-11.8-14.605-11.8c-1.799,0-3.521,0.32-5.118,0.904
			c-0.949-5.108-5.404-8.98-10.788-8.98c-0.413,0-0.819,0.027-1.222,0.071c0.744,1.112,1.179,2.448,1.179,3.886c0,3.865-3.134,7-7,7
			c-1.438,0-2.773-0.435-3.886-1.179c-0.044,0.401-0.071,0.809-0.071,1.222c0,3.712,1.845,6.987,4.661,8.979
			c-1.653,1.907-2.661,4.389-2.661,7.111c0,5.983,4.836,10.836,10.813,10.865v0.003h1.188v-2h-0.721l-0.457-0.003
			c-4.864-0.023-8.822-4.001-8.822-8.865c0-4.89,3.978-8.868,8.867-8.868c0.15,0,0.299,0.012,0.447,0.022l0.148,0.01l1.314,0.085
			l0.597-1.175c2.225-4.372,6.644-7.089,11.532-7.089c6.062,0,11.382,4.298,12.649,10.219l0.318,1.483l1.514,0.094
			c3.708,0.23,6.612,3.319,6.612,7.03c0,3.878-3.144,7.035-7.017,7.057c-0.042-0.003-0.079-0.005-0.117-0.005l-2.047,0.005h-1.819v2
			h3.819v-0.006c0.042,0.001,0.082,0.006,0.124,0.006c5.001,0,9.057-4.054,9.057-9.057C360.598-68.229,356.844-72.15,352.109-72.445
			z M324.189-76.063c-0.241-0.016-0.48-0.036-0.725-0.036c-2.537,0-4.865,0.876-6.715,2.334c-2.012-1.294-3.486-3.354-3.976-5.776
			c0.582,0.117,1.178,0.177,1.78,0.177c4.963,0,9-4.037,9-9c0-0.603-0.06-1.198-0.177-1.78c3.733,0.753,6.629,3.824,7.134,7.64
			C327.799-81.061,325.584-78.806,324.189-76.063z"/>
	</g>
	<g>
		<circle cx="328.098" cy="-60.853" r="1.5"/>
	</g>
	<g>
		<circle cx="332.098" cy="-54.853" r="1.5"/>
	</g>
	<g>
		<circle cx="340.098" cy="-54.853" r="1.5"/>
	</g>
	<g>
		<circle cx="336.098" cy="-60.853" r="1.5"/>
	</g>
	<g>
		<circle cx="344.098" cy="-60.853" r="1.5"/>
	</g>
	<g>
		<circle cx="328.098" cy="-48.831" r="1.5"/>
	</g>
	<g>
		<circle cx="336.098" cy="-48.831" r="1.5"/>
	</g>
	<g>
		<circle cx="344.098" cy="-48.831" r="1.5"/>
	</g>
</g>
<g>
	<path d="M663.274-171.331c-1.596-7.445-8.207-13.029-16.127-13.029c-6.423,0-11.977,3.678-14.702,9.035
		c-0.266-0.018-0.53-0.04-0.8-0.04c-6.627,0-11.999,5.372-11.999,12c0,6.607,5.34,11.965,11.938,11.998v0.003h2.062v-2h-1.604
		l-0.447-0.003c-5.485-0.027-9.948-4.513-9.948-9.998c0-5.514,4.485-10,9.999-10c0.175,0,0.347,0.014,0.52,0.025l0.148,0.01
		l1.316,0.088l0.598-1.176c2.492-4.899,7.443-7.942,12.92-7.942c6.79,0,12.75,4.814,14.172,11.448l0.317,1.482l1.514,0.095
		c4.203,0.262,7.496,3.763,7.496,7.971c0,4.397-3.565,7.977-7.957,8c-0.05-0.003-0.093-0.005-0.137-0.007l-2.043,0.007h-2.863v2
		h4.863v-0.007c0.046,0.001,0.091,0.007,0.137,0.007c5.521,0,10-4.477,10-10C672.646-166.675,668.502-171.006,663.274-171.331z"/>
	<circle cx="637.646" cy="-143.86" r="1.5"/>
	<circle cx="645.646" cy="-137.86" r="1.5"/>
	<circle cx="653.646" cy="-141.86" r="1.5"/>
	<rect x="636.646" y="-160.336" width="2" height="11.976"/>
	<polygon points="646.646,-142.396 646.646,-144.336 646.646,-156.336 644.646,-156.336 644.646,-144.336 644.646,-142.396 
		644.646,-142.36 646.646,-142.36 	"/>
	<polygon points="654.646,-146.583 654.646,-148.336 654.646,-160.336 652.646,-160.336 652.646,-148.336 652.646,-146.583 
		652.646,-146.36 654.646,-146.36 	"/>
</g>
<g>
	<rect x="-85.103" y="-99.718" width="2" height="7.973"/>
	<rect x="-104.103" y="-80.804" width="7.973" height="2"/>
	<rect x="-99.43" y="-92.07" transform="matrix(0.7071 0.7071 -0.7071 0.7071 -92.3509 40.8141)" width="7.974" height="2"/>
	<rect x="-73.921" y="-95.052" transform="matrix(0.7071 0.7071 -0.7071 0.7071 -85.7517 24.8901)" width="2" height="7.972"/>
	<path d="M-54.591-73.928c-1.444-6.742-7.433-11.8-14.605-11.8c-2.185,0-4.258,0.47-6.126,1.313
		c-1.667-3.202-5.007-5.394-8.866-5.394c-5.522,0-10,4.477-10,9.999c0,2.46,0.899,4.702,2.373,6.442
		c-1.429,1.84-2.287,4.144-2.287,6.653c0,5.983,4.836,10.836,10.813,10.865v0.003h1.188v-2h-0.721l-0.457-0.003
		c-4.864-0.023-8.822-4.001-8.822-8.865c0-4.89,3.978-8.868,8.867-8.868c0.15,0,0.299,0.012,0.447,0.022l0.148,0.01l1.314,0.085
		l0.597-1.175c2.225-4.372,6.644-7.089,11.532-7.089c6.062,0,11.382,4.298,12.649,10.219l0.318,1.483l1.514,0.094
		c3.708,0.23,6.612,3.319,6.612,7.03c0,3.878-3.144,7.035-7.017,7.057c-0.042-0.003-0.079-0.005-0.117-0.005l-2.047,0.005h-0.819v2
		h2.819v-0.006c0.042,0.001,0.082,0.006,0.124,0.006c5.001,0,9.057-4.054,9.057-9.057C-46.103-69.711-49.856-73.633-54.591-73.928z
		 M-82.511-77.545c-0.241-0.016-0.48-0.036-0.725-0.036c-2.766,0-5.282,1.041-7.2,2.743c-1.092-1.366-1.753-3.09-1.753-4.971
		c0-4.41,3.589-7.999,8-7.999c3.091,0,5.76,1.773,7.091,4.345C-79.396-82.022-81.275-79.975-82.511-77.545z"/>
	<circle cx="-78.112" cy="-47.357" r="1.5"/>
	<circle cx="-70.112" cy="-41.357" r="1.5"/>
	<circle cx="-62.112" cy="-45.357" r="1.5"/>
	<rect x="-79.112" y="-63.833" width="2" height="11.976"/>
	<polygon points="-69.112,-45.893 -69.112,-47.833 -69.112,-59.833 -71.112,-59.833 -71.112,-47.833 -71.112,-45.893 
		-71.112,-45.857 -69.112,-45.857 	"/>
	<polygon points="-61.112,-50.08 -61.112,-51.833 -61.112,-63.833 -63.112,-63.833 -63.112,-51.833 -63.112,-50.08 -63.112,-49.857 
		-61.112,-49.857 	"/>
</g>
<g>
	<path d="M46.012-76.926c-1.444-6.742-7.433-11.8-14.605-11.8c-1.799,0-3.522,0.32-5.118,0.904c-0.949-5.108-5.404-8.98-10.788-8.98
		c-0.413,0-0.819,0.027-1.222,0.071c0.744,1.112,1.179,2.448,1.179,3.886c0,3.865-3.134,7-7,7c-1.438,0-2.773-0.435-3.886-1.179
		C4.527-86.622,4.5-86.215,4.5-85.802c0,3.712,1.845,6.987,4.661,8.979C7.508-74.915,6.5-72.434,6.5-69.711
		c0,5.983,4.836,10.836,10.813,10.865v0.003H18.5v-2h-0.721l-0.457-0.003C12.458-60.869,8.5-64.847,8.5-69.711
		c0-4.89,3.978-8.868,8.867-8.868c0.15,0,0.299,0.012,0.447,0.022l0.148,0.01l1.314,0.085l0.597-1.175
		c2.225-4.372,6.644-7.089,11.532-7.089c6.062,0,11.382,4.298,12.649,10.219l0.318,1.483l1.514,0.094
		c3.708,0.23,6.612,3.319,6.612,7.03c0,3.878-3.144,7.035-7.017,7.057c-0.042-0.003-0.079-0.005-0.117-0.005l-2.047,0.005H42.5v2
		h2.819v-0.006c0.042,0.001,0.082,0.006,0.124,0.006c5.001,0,9.057-4.054,9.057-9.057C54.5-72.709,50.746-76.631,46.012-76.926z
		 M18.092-80.543c-0.241-0.016-0.48-0.036-0.725-0.036c-2.537,0-4.865,0.876-6.715,2.334c-2.012-1.294-3.487-3.354-3.976-5.776
		c0.582,0.117,1.178,0.177,1.78,0.177c4.963,0,9-4.037,9-9c0-0.603-0.06-1.198-0.177-1.78c3.733,0.753,6.629,3.824,7.133,7.64
		C21.702-85.541,19.487-83.286,18.092-80.543z"/>
	<circle cx="22.5" cy="-50.352" r="1.5"/>
	<circle cx="30.5" cy="-44.352" r="1.5"/>
	<circle cx="38.5" cy="-48.352" r="1.5"/>
	<rect x="21.5" y="-66.827" width="2" height="11.976"/>
	<polygon points="31.5,-48.887 31.5,-50.827 31.5,-62.827 29.5,-62.827 29.5,-50.827 29.5,-48.887 29.5,-48.852 31.5,-48.852 	"/>
	<polygon points="39.5,-53.074 39.5,-54.827 39.5,-66.827 37.5,-66.827 37.5,-54.827 37.5,-53.074 37.5,-52.852 39.5,-52.852 	"/>
</g>
<g>
	<rect x="-102.103" y="27.515" width="56" height="2"/>
	<rect x="-98.103" y="33.515" width="50" height="2"/>
	<rect x="-92.103" y="39.515" width="36" height="2"/>
	<rect x="-100.103" y="21.515" width="52" height="2"/>
	<path d="M-88.229,13.51c0.175,0,0.347,0.014,0.519,0.025l0.149,0.01l1.316,0.088l0.598-1.176c2.493-4.899,7.443-7.942,12.92-7.942
		c6.79,0,12.75,4.814,14.171,11.448l0.318,1.482l1.514,0.095c1.207,0.075,2.335,0.425,3.336,0.975h3.286
		c-1.678-1.703-3.957-2.813-6.498-2.971c-1.596-7.445-8.207-13.029-16.127-13.029c-6.423,0-11.977,3.678-14.702,9.035
		c-0.266-0.018-0.53-0.04-0.8-0.04c-4.843,0-9.004,2.874-10.9,7.005h2.251C-95.146,15.528-91.922,13.51-88.229,13.51z"/>
</g>
<g>
	<rect x="19" width="2" height="7.973"/>
	<rect y="18.914" width="7.973" height="2"/>
	<rect x="4.673" y="7.648" transform="matrix(0.7071 0.7071 -0.7071 0.7071 8.6512 -3.5909)" width="7.974" height="2"/>
	<rect x="30.182" y="4.666" transform="matrix(0.7071 0.7071 -0.7071 0.7071 15.2503 -19.5148)" width="2" height="7.972"/>
	<rect x="9" y="33.874" width="50" height="2"/>
	<rect x="13" y="39.874" width="44" height="2"/>
	<rect x="19" y="44.874" width="30" height="2"/>
	<rect x="11" y="27.874" width="46" height="2"/>
	<path d="M11.908,25.874h0.771h1.927h1.012c1.472-1.087,3.283-1.737,5.249-1.737c0.15,0,0.299,0.012,0.447,0.022l0.148,0.01
		l1.314,0.085l0.597-1.175c2.225-4.372,6.644-7.089,11.532-7.089c5.945,0,11.168,4.139,12.563,9.884h2.043V25.79
		c-1.444-6.742-7.433-11.8-14.605-11.8c-2.185,0-4.258,0.47-6.126,1.313c-1.667-3.202-5.007-5.394-8.866-5.394
		c-5.522,0-10,4.477-10,9.999C9.914,22.15,10.662,24.209,11.908,25.874z M19.914,11.91c3.091,0,5.76,1.773,7.091,4.345
		c-2.298,1.44-4.178,3.488-5.413,5.918c-0.241-0.016-0.48-0.036-0.725-0.036c-2.764,0-5.274,1.045-7.189,2.745
		c-1.097-1.366-1.764-3.089-1.764-4.973C11.914,15.499,15.503,11.91,19.914,11.91z"/>
</g>
<g>
	<rect x="107.744" y="30.437" width="50" height="2"/>
	<rect x="111.744" y="36.437" width="44" height="2"/>
	<rect x="117.744" y="41.437" width="30" height="2"/>
	<rect x="109.744" y="24.437" width="46" height="2"/>
	<path d="M111.387,22.437h0.037h1.884h1.055c1.472-1.087,3.283-1.737,5.249-1.737c0.15,0,0.299,0.012,0.447,0.022l0.148,0.01
		l1.314,0.085l0.597-1.175c2.225-4.372,6.644-7.089,11.532-7.089c5.945,0,11.168,4.139,12.563,9.884h2.043v-0.084
		c-1.444-6.742-7.433-11.8-14.605-11.8c-1.799,0-3.521,0.32-5.117,0.903c-0.945-5.111-5.402-8.987-10.789-8.987
		c-0.413,0-0.819,0.027-1.222,0.071c0.744,1.112,1.179,2.448,1.179,3.886c0,3.865-3.134,7-7,7c-1.438,0-2.773-0.435-3.886-1.179
		c-0.044,0.401-0.071,0.809-0.071,1.222C106.744,17.173,108.58,20.443,111.387,22.437z M110.701,15.426c4.963,0,9-4.037,9-9
		c0-0.603-0.06-1.198-0.177-1.78c3.735,0.753,6.633,3.828,7.134,7.647c-2.712,1.443-4.927,3.699-6.322,6.442
		c-0.241-0.016-0.48-0.036-0.725-0.036c-2.534,0-4.855,0.879-6.701,2.335c-2.02-1.293-3.5-3.356-3.989-5.785
		C109.503,15.366,110.099,15.426,110.701,15.426z"/>
</g>
<g>
	<path d="M239.636,33.45h-19.474l-0.578-0.003c-5.485-0.027-9.948-4.513-9.948-9.998c0-5.514,4.485-10,9.999-10
		c0.175,0,0.347,0.014,0.519,0.025l0.149,0.01l1.316,0.088l0.598-1.176c2.493-4.899,7.443-7.942,12.92-7.942
		c6.79,0,12.75,4.814,14.171,11.448l0.318,1.482l1.514,0.095c1.822,0.113,3.463,0.845,4.746,1.971h2.732
		c-1.707-2.262-4.348-3.78-7.354-3.967c-1.596-7.445-8.207-13.029-16.127-13.029c-6.423,0-11.977,3.678-14.702,9.035
		c-0.266-0.018-0.53-0.04-0.8-0.04c-6.627,0-11.999,5.372-11.999,12c0,6.607,5.34,11.965,11.938,11.998v0.003h20.062
		c2.205,0,4,1.794,4,4s-1.795,4-4,4v2c3.314,0,6-2.686,6-6C245.636,36.137,242.95,33.45,239.636,33.45z"/>
	<path d="M243.636,29.45h-15.988v2h15.988c3.314,0,6-2.687,6-6c0-3.314-2.686-6-6-6v2c2.205,0,4,1.794,4,4
		S245.841,29.45,243.636,29.45z"/>
	<path d="M256.636,23.45c1.654,0,3,1.346,3,3s-1.346,3-3,3c-0.043,0-0.083-0.011-0.126-0.013h-4.862
		c0.003,0.005,0.009,0.008,0.012,0.013h-0.023v2h5.5v-0.051c2.523-0.254,4.5-2.358,4.5-4.949c0-2.762-2.238-5-5-5V23.45z"/>
	<path d="M260.636,33.45h-13v2h9.022c-0.004,0.005-0.008,0.008-0.011,0.013h3.862c0.043-0.002,0.083-0.013,0.126-0.013
		c1.654,0,3,1.346,3,3s-1.346,3-3,3v2c2.762,0,5-2.238,5-5S263.397,33.45,260.636,33.45z"/>
	<rect x="221.636" y="29.45" width="4" height="2"/>
</g>
<path d="M32.074-365.653c6.95,1.305,12.226,7.419,12.226,14.742c0,8.272-6.729,15.002-15,15.002c-6.79,0-12.531-4.49-14.366-10.728
	c1.398,0.461,2.867,0.698,4.366,0.698c7.72,0,14-6.281,14-14.001C33.3-361.924,32.876-363.868,32.074-365.653 M29.3-367.91
	c-0.338,0-0.668,0.031-1,0.051c1.861,2.113,3,4.881,3,7.92c0,6.627-5.372,12.001-12,12.001c-2.599,0-4.998-0.835-6.963-2.239
	c0.387,9.047,7.821,16.269,16.963,16.269c9.39,0,17-7.612,17-17.002S38.689-367.91,29.3-367.91L29.3-367.91z"/>
<g>
	<path d="M-74.096-362.915c-7.18,0-13,5.819-13,12.999c0,7.181,5.82,13.002,13,13.002s13-5.821,13-13.002
		C-61.096-357.096-66.916-362.915-74.096-362.915z M-74.096-338.914c-6.065,0-11-4.936-11-11.002c0-6.064,4.935-10.999,11-10.999
		s11,4.935,11,10.999C-63.096-343.85-68.03-338.914-74.096-338.914z"/>
	<rect x="-75.103" y="-375.909" width="2" height="10"/>
	<rect x="-75.103" y="-333.909" width="2" height="10"/>
	<rect x="-100.096" y="-350.909" width="9.993" height="2"/>
	<rect x="-58.103" y="-350.909" width="10.007" height="2"/>
	<rect x="-60.403" y="-369.823" transform="matrix(0.7071 0.7071 -0.7071 0.7071 -275.223 -64.7902)" width="2" height="10.409"/>
	<rect x="-89.811" y="-340.414" transform="matrix(-0.7071 -0.7071 0.7071 -0.7071 85.4181 -635.0376)" width="2" height="10.41"/>
	<rect x="-94.012" y="-365.614" transform="matrix(0.7071 0.7071 -0.7071 0.7071 -283.8318 -43.9968)" width="10.409" height="2"/>
	<rect x="-64.603" y="-336.204" transform="matrix(-0.7072 -0.7071 0.7071 -0.7072 135.6075 -614.244)" width="10.41" height="2"/>
</g>
<g>
	<rect x="324.07" y="-5.048" width="2" height="7.973"/>
	<rect x="305.098" y="13.938" width="7.973" height="2"/>
	<rect x="309.823" y="2.72" transform="matrix(0.7071 0.7071 -0.7071 0.7071 94.5432 -220.8081)" width="7.974" height="2"/>
	<rect x="335.332" y="-0.262" transform="matrix(0.7071 0.7071 -0.7071 0.7071 101.1424 -236.732)" width="2" height="7.972"/>
	<path d="M339.098,36.952l0.005-0.007h-12.536l-0.594-0.003c-4.864-0.024-8.822-4.001-8.822-8.865c0-4.89,3.978-8.868,8.867-8.868
		c0.15,0,0.299,0.012,0.447,0.021l0.148,0.011l1.314,0.085l0.597-1.174c2.225-4.373,6.644-7.09,11.532-7.09
		c5.916,0,11.114,4.099,12.54,9.8h2.065c-1.444-6.742-7.433-11.8-14.605-11.8c-2.185,0-4.258,0.47-6.126,1.313
		c-1.667-3.202-5.007-5.394-8.866-5.394c-5.522,0-10,4.477-10,9.999c0,2.46,0.899,4.702,2.373,6.442
		c-1.429,1.84-2.287,4.144-2.287,6.653c0,5.983,4.836,10.836,10.813,10.865v0.003h13.135v0.007c2.205,0,4,1.794,4,4s-1.795,4-4,4v2
		c3.314,0,6-2.686,6-6C345.098,39.639,342.412,36.952,339.098,36.952z M325.064,6.982c3.091,0,5.76,1.773,7.091,4.345
		c-2.298,1.439-4.178,3.488-5.413,5.918c-0.241-0.016-0.48-0.036-0.725-0.036c-2.766,0-5.282,1.042-7.2,2.743
		c-1.092-1.367-1.753-3.09-1.753-4.971C317.064,10.571,320.653,6.982,325.064,6.982z"/>
	<path d="M343.098,32.952h-9.988v2h9.988c3.314,0,6-2.687,6-6c0-3.314-2.686-6-6-6v2c2.205,0,4,1.794,4,4
		S345.303,32.952,343.098,32.952z"/>
	<path d="M351.121,32.952h-0.023v2h5.5v-0.051c2.523-0.254,4.5-2.358,4.5-4.949c0-2.762-2.238-5-5-5v2c1.654,0,3,1.346,3,3
		s-1.346,3-3,3c-0.043,0-0.083-0.011-0.126-0.013h-4.862C351.112,32.944,351.118,32.948,351.121,32.952z"/>
	<path d="M360.098,36.952h-13v2h9.022c-0.004,0.004-0.008,0.008-0.011,0.013h3.862c0.043-0.002,0.083-0.013,0.126-0.013
		c1.654,0,3,1.346,3,3s-1.346,3-3,3v2c2.762,0,5-2.238,5-5S362.859,36.952,360.098,36.952z"/>
	<rect x="327.098" y="32.952" width="4" height="2"/>
</g>
<g>
	<path d="M439.06,34.946l0.005-0.007h-12.536l-0.594-0.003c-4.864-0.024-8.822-4.001-8.822-8.865c0-4.89,3.978-8.868,8.867-8.868
		c0.15,0,0.299,0.012,0.447,0.021l0.148,0.011l1.314,0.085l0.597-1.174c2.225-4.373,6.644-7.09,11.532-7.09
		c5.916,0,11.114,4.099,12.54,9.8h2.065c-1.444-6.742-7.433-11.8-14.605-11.8c-1.806,0-3.536,0.322-5.138,0.91
		c-0.938-5.123-5.4-9.01-10.794-9.01c-0.413,0-0.819,0.027-1.222,0.071c0.744,1.112,1.179,2.448,1.179,3.886c0,3.865-3.134,7-7,7
		c-1.438,0-2.773-0.435-3.886-1.179c-0.044,0.401-0.071,0.809-0.071,1.222c0,3.725,1.858,7.009,4.69,8.998
		c-1.655,1.907-2.665,4.392-2.665,7.116c0,5.983,4.836,10.836,10.813,10.865v0.003h13.135v0.007c2.205,0,4,1.794,4,4s-1.795,4-4,4v2
		c3.314,0,6-2.686,6-6C445.06,37.633,442.374,34.946,439.06,34.946z M415.264,11.737c0.582,0.117,1.178,0.177,1.78,0.177
		c4.963,0,9-4.037,9-9c0-0.603-0.06-1.198-0.177-1.78c3.744,0.755,6.646,3.842,7.138,7.674c-2.702,1.444-4.909,3.696-6.301,6.432
		c-0.241-0.016-0.48-0.036-0.725-0.036c-2.535,0-4.861,0.875-6.71,2.33C417.241,16.241,415.755,14.173,415.264,11.737z"/>
	<path d="M443.06,30.946h-9.988v2h9.988c3.314,0,6-2.687,6-6c0-3.314-2.686-6-6-6v2c2.205,0,4,1.794,4,4
		S445.265,30.946,443.06,30.946z"/>
	<path d="M451.083,30.946h-0.023v2h5.5v-0.051c2.523-0.254,4.5-2.358,4.5-4.949c0-2.762-2.238-5-5-5v2c1.654,0,3,1.346,3,3
		s-1.346,3-3,3c-0.043,0-0.083-0.011-0.126-0.013h-4.862C451.074,30.938,451.08,30.942,451.083,30.946z"/>
	<path d="M460.06,34.946h-13v2h9.022c-0.004,0.004-0.008,0.008-0.011,0.013h3.862c0.043-0.002,0.083-0.013,0.126-0.013
		c1.654,0,3,1.346,3,3s-1.346,3-3,3v2c2.762,0,5-2.238,5-5S462.821,34.946,460.06,34.946z"/>
	<rect x="427.06" y="30.946" width="4" height="2"/>
</g>
<g>
	<rect x="539.952" y="-2.485" width="2" height="10"/>
	<rect x="514.959" y="22.515" width="9.993" height="2"/>
	<rect x="554.652" y="3.601" transform="matrix(0.7071 0.7071 -0.7071 0.7071 168.9729 -390.3262)" width="2" height="10.409"/>
	<rect x="521.043" y="7.81" transform="matrix(0.7071 0.7071 -0.7071 0.7071 160.364 -369.5328)" width="10.409" height="2"/>
	<path d="M544.952,37.515h-24v2h24c2.205,0,4,1.794,4,4s-1.795,4-4,4v2c3.314,0,6-2.686,6-6
		C550.952,40.201,548.267,37.515,544.952,37.515z"/>
	<path d="M556.976,33.515h-0.023v2h5.5v-0.051c2.523-0.254,4.5-2.358,4.5-4.949c0-2.762-2.238-5-5-5v2c1.654,0,3,1.346,3,3
		s-1.346,3-3,3c-0.043,0-0.083-0.011-0.126-0.013h-4.862C556.967,33.507,556.973,33.511,556.976,33.515z"/>
	<path d="M565.952,37.515h-13v2h9.022c-0.004,0.004-0.008,0.008-0.011,0.013h3.862c0.043-0.002,0.083-0.013,0.126-0.013
		c1.654,0,3,1.346,3,3s-1.346,3-3,3v2c2.762,0,5-2.238,5-5S568.714,37.515,565.952,37.515z"/>
	<path d="M532.661,33.515h-11.709v2h12.012h0.822h15.166c3.314,0,6-2.687,6-6c0-3.314-2.686-6-6-6v2c2.205,0,4,1.794,4,4
		s-1.795,4-4,4h-12.538c-3.802-1.734-6.455-5.563-6.455-10.007c0-6.064,4.935-10.999,11-10.999c5.384,0,9.868,3.891,10.81,9.006
		h2.021c-0.961-6.23-6.331-11.006-12.831-11.006c-7.18,0-13,5.819-13,12.999C527.959,27.533,529.789,31.13,532.661,33.515z"/>
</g>
<g>
	<path d="M645.179,30.958h-24v2h24c2.205,0,4,1.794,4,4s-1.795,4-4,4v2c3.314,0,6-2.686,6-6
		C651.179,33.645,648.493,30.958,645.179,30.958z"/>
	<path d="M662.679,28.958v-0.051c2.523-0.254,4.5-2.358,4.5-4.949c0-2.762-2.238-5-5-5v2c1.654,0,3,1.346,3,3s-1.346,3-3,3
		c-0.043,0-0.083-0.011-0.126-0.013h-4.862c0.004,0.005,0.009,0.009,0.012,0.013h-0.023v2H662.679z"/>
	<path d="M666.179,30.958h-13v2h9.022c-0.003,0.004-0.007,0.008-0.011,0.013h3.862c0.043-0.002,0.083-0.013,0.126-0.013
		c1.654,0,3,1.346,3,3s-1.346,3-3,3v2c2.762,0,5-2.238,5-5S668.94,30.958,666.179,30.958z"/>
	<path d="M634.013,28.958h15.166c3.314,0,6-2.687,6-6c0-3.314-2.686-6-6-6v2c2.205,0,4,1.794,4,4s-1.795,4-4,4h-12.586
		c-2.596-1.188-4.658-3.339-5.69-6.034c0.849,0.204,1.724,0.309,2.612,0.309c6.168,0,11.187-5.019,11.187-11.188
		c0-1.276-0.22-2.532-0.64-3.717c4.046,1.102,7.168,4.459,7.937,8.63h2.018c-0.964-6.237-6.338-11.016-12.846-11.016
		c-0.259,0-0.511,0.024-0.766,0.039c1.425,1.618,2.297,3.737,2.297,6.063c0,5.072-4.112,9.188-9.187,9.188
		c-1.988,0-3.826-0.641-5.33-1.715c0.162,3.801,1.962,7.165,4.699,9.44h-11.705v2h12.012H634.013z"/>
</g>
<g>
	<path d="M-74.603,116.151h-20c-1.103,0-2-0.897-2-2s0.897-2,2-2h3.445h0.555v-2h-4c-2.209,0-4,1.791-4,4s1.791,4,4,4h20
		c2.205,0,4,1.794,4,4s-1.795,4-4,4v2c3.314,0,6-2.686,6-6C-68.603,118.838-71.288,116.151-74.603,116.151z"/>
	<path d="M-72.603,100.151v2c2.205,0,4,1.794,4,4s-1.795,4-4,4h-15.988v2h15.988c3.314,0,6-2.687,6-6
		C-66.603,102.837-69.288,100.151-72.603,100.151z"/>
	<path d="M-66.603,112.151v2h5.5v-0.051c2.523-0.254,4.5-2.358,4.5-4.949c0-2.762-2.238-5-5-5v2c1.654,0,3,1.346,3,3s-1.346,3-3,3
		c-0.043,0-0.083-0.011-0.126-0.013h-4.862c0.003,0.005,0.009,0.009,0.012,0.013H-66.603z"/>
	<path d="M-55.603,116.151h-11v2h7.022c-0.004,0.004-0.008,0.008-0.011,0.013h3.862c0.043-0.002,0.083-0.013,0.126-0.013
		c1.654,0,3,1.346,3,3s-1.346,3-3,3v2c2.762,0,5-2.238,5-5S-52.841,116.151-55.603,116.151z"/>
</g>
<path d="M461.689,102.498v-0.038h-38.376c-1.103,0-2-0.897-2-2s0.897-2,2-2h33c2.762,0,5-2.238,5-5s-2.238-5-5-5h-37.875v0.008
	c-0.042-0.001-0.083-0.008-0.125-0.008c-2.762,0-5,2.238-5,5s2.238,5,5,5v-2c-1.654,0-3-1.346-3-3s1.346-3,3-3h0.125h3.853h34.022
	c1.654,0,3,1.346,3,3s-1.346,3-3,3h-33c-2.209,0-4,1.791-4,4s1.791,4,4,4h38c1.103,0,2,0.897,2,2s-0.897,2-2,2h-32
	c-2.209,0-4,1.791-4,4s1.791,4,4,4h22c1.103,0,2,0.897,2,2s-0.897,2-2,2h-24.01v0.001c-2.204,0.006-3.99,1.793-3.99,3.999
	s1.786,3.993,3.99,3.999v0.001h12.01c1.103,0,2,0.897,2,2s-0.897,2-2,2h-2c-2.209,0-4,1.791-4,4s1.791,4,4,4v-2
	c-1.103,0-2-0.897-2-2s0.897-2,2-2h2c2.209,0,4-1.791,4-4s-1.791-4-4-4h-12c-1.103,0-2-0.897-2-2s0.897-2,2-2h24
	c2.209,0,4-1.791,4-4c0-2.152-1.704-3.895-3.834-3.983v-0.017h-22.166c-1.103,0-2-0.897-2-2s0.897-2,2-2h32c2.209,0,4-1.791,4-4
	C465.313,104.38,463.72,102.69,461.689,102.498z"/>
<path d="M647.104,93.176v-2.024h-2v2.024c-13.01,0.513-23.462,10.965-23.975,23.976h1.674c1.14-1.222,2.748-2,4.551-2
	c2.26,0,4.233,1.203,5.331,3h1.838c1.098-1.797,3.071-3,5.331-3c2.204,0,4.137,1.144,5.25,2.866v15.134c0,2.21,1.791,4,4,4
	s4-1.79,4-4h-2c0,1.103-0.897,2-2,2s-2-0.897-2-2v-15.134c1.113-1.723,3.046-2.866,5.25-2.866c2.26,0,4.233,1.203,5.331,3h1.838
	c1.098-1.797,3.071-3,5.331-3c1.803,0,3.411,0.778,4.551,2h1.674C670.566,104.141,660.114,93.688,647.104,93.176z M664.854,113.151
	c-2.496,0-4.736,1.114-6.25,2.87c-1.514-1.756-3.754-2.87-6.25-2.87s-4.736,1.114-6.25,2.87c-1.514-1.756-3.754-2.87-6.25-2.87
	s-4.736,1.114-6.25,2.87c-1.514-1.756-3.755-2.87-6.25-2.87c-1.402,0-2.731,0.351-3.897,0.975
	c1.909-10.769,11.339-18.975,22.647-18.975s20.738,8.206,22.647,18.975C667.586,113.502,666.257,113.151,664.854,113.151z"/>
<g>
	<path d="M241.81,217.464v-17.105c0-2.762-2.238-5-5-5s-5,2.238-5,5v17.105c-1.236,1.263-2,2.988-2,4.895c0,3.866,3.134,7,7,7
		s7-3.134,7-7C243.81,220.452,243.046,218.727,241.81,217.464z M236.81,227.358c-2.757,0-5-2.243-5-5
		c0-1.313,0.508-2.554,1.429-3.495l0.571-0.583v-0.816v-17.105c0-1.654,1.346-3,3-3s3,1.346,3,3v17.105v0.816l0.571,0.583
		c0.921,0.941,1.429,2.183,1.429,3.495C241.81,225.115,239.566,227.358,236.81,227.358z"/>
	<path d="M237.81,219.534v-15.176h-2v15.176c-1.167,0.413-2.008,1.516-2.008,2.824c0,1.662,1.347,3.008,3.008,3.008
		c1.662,0,3.008-1.346,3.008-3.008C239.817,221.05,238.978,219.947,237.81,219.534z M236.81,223.366
		c-0.556,0-1.008-0.452-1.008-1.008s0.452-1.008,1.008-1.008s1.008,0.452,1.008,1.008S237.365,223.366,236.81,223.366z"/>
</g>
<g>
	<path d="M341.598,217.464v-17.105c0-2.762-2.238-5-5-5s-5,2.238-5,5v17.105c-1.236,1.263-2,2.988-2,4.895c0,3.866,3.134,7,7,7
		s7-3.134,7-7C343.598,220.452,342.834,218.727,341.598,217.464z M336.598,227.358c-2.757,0-5-2.243-5-5
		c0-1.313,0.508-2.554,1.429-3.495l0.571-0.583v-0.816v-17.105c0-1.654,1.346-3,3-3s3,1.346,3,3v17.105v0.816l0.571,0.583
		c0.921,0.941,1.429,2.183,1.429,3.495C341.598,225.115,339.354,227.358,336.598,227.358z"/>
	<path d="M337.598,219.534v-20.176h-2v20.176c-1.167,0.413-2.008,1.516-2.008,2.824c0,1.662,1.347,3.008,3.008,3.008
		c1.662,0,3.008-1.346,3.008-3.008C339.605,221.05,338.766,219.947,337.598,219.534z M336.598,223.366
		c-0.556,0-1.008-0.452-1.008-1.008s0.452-1.008,1.008-1.008s1.008,0.452,1.008,1.008S337.153,223.366,336.598,223.366z"/>
</g>
<g>
	<path d="M138.7,217.464v-17.105c0-2.762-2.238-5-5-5s-5,2.238-5,5v17.105c-1.236,1.263-2,2.988-2,4.895c0,3.866,3.134,7,7,7
		s7-3.134,7-7C140.7,220.452,139.937,218.727,138.7,217.464z M133.7,227.358c-2.757,0-5-2.243-5-5c0-1.313,0.508-2.554,1.429-3.495
		l0.571-0.583v-0.816v-17.105c0-1.654,1.346-3,3-3s3,1.346,3,3v17.105v0.816l0.571,0.583c0.921,0.941,1.429,2.183,1.429,3.495
		C138.7,225.115,136.457,227.358,133.7,227.358z"/>
	<path d="M134.7,219.534v-10.176h-2v10.176c-1.167,0.413-2.008,1.516-2.008,2.824c0,1.662,1.347,3.008,3.008,3.008
		c1.662,0,3.008-1.346,3.008-3.008C136.708,221.05,135.868,219.947,134.7,219.534z M133.7,223.366c-0.556,0-1.008-0.452-1.008-1.008
		s0.452-1.008,1.008-1.008s1.008,0.452,1.008,1.008S134.256,223.366,133.7,223.366z"/>
</g>
<g>
	<path d="M35.055,217.464v-17.105c0-2.762-2.238-5-5-5s-5,2.238-5,5v17.105c-1.236,1.263-2,2.988-2,4.895c0,3.866,3.134,7,7,7
		s7-3.134,7-7C37.055,220.452,36.291,218.727,35.055,217.464z M30.055,227.358c-2.757,0-5-2.243-5-5
		c0-1.313,0.508-2.554,1.429-3.495l0.571-0.583v-0.816v-17.105c0-1.654,1.346-3,3-3s3,1.346,3,3v17.105v0.816l0.571,0.583
		c0.921,0.941,1.429,2.183,1.429,3.495C35.055,225.115,32.812,227.358,30.055,227.358z"/>
	<path d="M31.055,219.534v-5.176h-2v5.176c-1.167,0.413-2.008,1.516-2.008,2.824c0,1.662,1.347,3.008,3.008,3.008
		c1.662,0,3.008-1.346,3.008-3.008C33.063,221.05,32.223,219.947,31.055,219.534z M30.055,223.366c-0.556,0-1.008-0.452-1.008-1.008
		s0.452-1.008,1.008-1.008s1.008,0.452,1.008,1.008S30.61,223.366,30.055,223.366z"/>
</g>
<g>
	<path d="M-69.603,217.464v-17.105c0-2.762-2.238-5-5-5s-5,2.238-5,5v17.105c-1.236,1.263-2,2.988-2,4.895c0,3.866,3.134,7,7,7
		s7-3.134,7-7C-67.603,220.452-68.366,218.727-69.603,217.464z M-74.603,227.358c-2.757,0-5-2.243-5-5
		c0-1.313,0.508-2.554,1.429-3.495l0.571-0.583v-0.816v-17.105c0-1.654,1.346-3,3-3s3,1.346,3,3v17.105v0.816l0.571,0.583
		c0.921,0.941,1.429,2.183,1.429,3.495C-69.603,225.115-71.846,227.358-74.603,227.358z"/>
	<path d="M-74.603,219.351c-1.661,0-3.008,1.347-3.008,3.008c0,1.662,1.347,3.008,3.008,3.008c1.662,0,3.008-1.346,3.008-3.008
		C-71.595,220.697-72.94,219.351-74.603,219.351z M-74.603,223.366c-0.556,0-1.008-0.452-1.008-1.008s0.452-1.008,1.008-1.008
		s1.008,0.452,1.008,1.008S-74.047,223.366-74.603,223.366z"/>
</g>
<g>
	<path d="M430.322,197.671c-2.209,0-4,1.791-4,4c0,2.21,1.791,4,4,4c2.211,0,4-1.79,4-4
		C434.322,199.462,432.533,197.671,430.322,197.671z M430.322,203.671c-1.103,0-2-0.897-2-2s0.897-2,2-2s2,0.897,2,2
		S431.425,203.671,430.322,203.671z"/>
	<path d="M444.322,225.671c-4.41,0-7.999-3.589-7.999-7.999v-4.002c0-4.41,3.589-7.999,7.999-7.999c2.715,0,5.115,1.362,6.563,3.437
		l1.43-1.43c-1.824-2.429-4.72-4.007-7.992-4.007c-5.522,0-9.999,4.478-9.999,9.999v4.002c0,5.521,4.477,9.999,9.999,9.999
		c3.272,0,6.168-1.579,7.992-4.008l-1.43-1.43C449.438,224.308,447.038,225.671,444.322,225.671z"/>
</g>
<g>
	<path d="M535.019,197.55c-2.209,0-4,1.791-4,4c0,2.21,1.791,4,4,4c2.211,0,4-1.79,4-4
		C539.019,199.341,537.229,197.55,535.019,197.55z M535.019,203.55c-1.103,0-2-0.897-2-2s0.897-2,2-2s2,0.897,2,2
		S536.121,203.55,535.019,203.55z"/>
	<polygon points="554.894,205.671 554.894,203.671 542.894,203.671 540.894,203.671 540.894,227.671 542.894,227.671 
		542.894,215.671 550.894,215.671 550.894,213.671 542.894,213.671 542.894,205.671 	"/>
</g>
<g>
	<path d="M646.104,201.362c-7.179,0-13,5.82-13,13s5.821,13,13,13s13-5.82,13-13S653.283,201.362,646.104,201.362z M646.104,225.362
		c-6.065,0-11-4.935-11-11s4.935-11,11-11s11,4.935,11,11S652.17,225.362,646.104,225.362z"/>
	<path d="M641.838,218.604l6.363-2.121l2.121-6.364l-6.363,2.122L641.838,218.604z M645.54,213.822l1.62-0.54l-0.54,1.62l-1.62,0.54
		L645.54,213.822z"/>
</g>
<g>
	<path d="M-74.603,291.88c-7.179,0-13,5.82-13,13s5.821,13,13,13s13-5.82,13-13S-67.424,291.88-74.603,291.88z M-74.603,315.88
		c-6.065,0-11-4.934-11-11c0-6.064,4.935-11,11-11s11,4.936,11,11C-63.603,310.946-68.537,315.88-74.603,315.88z"/>
	<path d="M-72.041,303.302l-2.586-4.422l-2.529,4.33h0.007c-0.299,0.467-0.478,1.018-0.478,1.613c0,1.656,1.343,3,3,3s3-1.344,3-3
		c0-0.559-0.162-1.074-0.428-1.521H-72.041z M-74.627,305.823c-0.552,0-1-0.449-1-1c0-0.188,0.055-0.367,0.162-0.535l0.864-1.355
		l0.826,1.391c0.098,0.164,0.147,0.332,0.147,0.5C-73.627,305.374-74.075,305.823-74.627,305.823z"/>
</g>
<g>
	<path d="M30.182,291.88c-7.18,0-13,5.82-13,13s5.82,13,13,13s13-5.82,13-13S37.361,291.88,30.182,291.88z M30.182,315.88
		c-6.065,0-11-4.934-11-11c0-6.064,4.935-11,11-11s11,4.936,11,11C41.182,310.946,36.247,315.88,30.182,315.88z"/>
	<path d="M31.771,302.3c-0.467-0.299-1.018-0.477-1.613-0.477c-1.658,0-3,1.342-3,3c0,1.656,1.342,3,3,3
		c0.557,0,1.072-0.162,1.52-0.428v0.014l4.422-2.586l-4.328-2.529V302.3z M30.655,305.675c-0.164,0.098-0.332,0.148-0.498,0.148
		c-0.552,0-1-0.449-1-1c0-0.553,0.448-1,1-1c0.188,0,0.368,0.053,0.535,0.16l1.355,0.865L30.655,305.675z"/>
</g>
<g>
	<path d="M133.232,291.88c-7.18,0-13,5.82-13,13s5.82,13,13,13s13-5.82,13-13S140.412,291.88,133.232,291.88z M133.232,315.88
		c-6.065,0-11-4.934-11-11c0-6.064,4.935-11,11-11s11,4.936,11,11C144.232,310.946,139.298,315.88,133.232,315.88z"/>
	<path d="M133.232,301.823c-1.656,0-3,1.342-3,3c0,0.557,0.162,1.072,0.428,1.52h-0.014l2.586,4.422l2.529-4.328h-0.006
		c0.299-0.467,0.477-1.018,0.477-1.613C136.232,303.165,134.891,301.823,133.232,301.823z M134.071,305.358l-0.865,1.355
		l-0.826-1.393c-0.098-0.164-0.147-0.332-0.147-0.498c0-0.553,0.448-1,1-1s1,0.447,1,1
		C134.232,305.011,134.179,305.19,134.071,305.358z"/>
</g>
<g>
	<path d="M236.646,291.88c-7.179,0-13,5.82-13,13s5.821,13,13,13s13-5.82,13-13S243.825,291.88,236.646,291.88z M236.646,315.88
		c-6.065,0-11-4.934-11-11c0-6.064,4.935-11,11-11s11,4.936,11,11C247.646,310.946,242.712,315.88,236.646,315.88z"/>
	<path d="M236.605,301.823c-0.557,0-1.072,0.162-1.52,0.428v-0.014l-4.422,2.586l4.328,2.529v-0.006
		c0.467,0.299,1.018,0.477,1.613,0.477c1.658,0,3-1.342,3-3C239.605,303.167,238.264,301.823,236.605,301.823z M236.605,305.823
		c-0.188,0-0.368-0.055-0.535-0.162l-1.355-0.865l1.393-0.826c0.164-0.098,0.332-0.146,0.498-0.146c0.552,0,1,0.447,1,1
		C237.605,305.374,237.157,305.823,236.605,305.823z"/>
</g>
<g>
	<rect x="28.495" y="95.151" width="2" height="10"/>
	<rect x="43.195" y="101.237" transform="matrix(0.7071 0.7071 -0.7071 0.7071 88.2102 -0.0743)" width="2" height="10.409"/>
	<rect x="9.586" y="105.447" transform="matrix(0.7071 0.7071 -0.7071 0.7071 79.6013 20.7191)" width="10.409" height="2"/>
	<polygon points="22.827,124.405 24.241,125.819 28.495,121.565 28.495,131.151 30.495,131.151 30.495,121.565 34.748,125.819 
		36.162,124.405 29.495,117.737 	"/>
	<path d="M42.502,121.15c0-0.002,0-0.004,0-0.006c0-7.18-5.82-12.999-13-12.999s-13,5.819-13,12.999c0,0.002,0,0.004,0,0.006h-13v2
		h18v-2h-3c0-0.002,0-0.004,0-0.006c0-6.064,4.935-10.999,11-10.999s11,4.935,11,10.999c0,0.002,0,0.004,0,0.006h-3v2h17.995v-2
		H42.502z"/>
</g>
<g>
	<rect x="132.24" y="93.964" width="2" height="10"/>
	<rect x="146.94" y="100.05" transform="matrix(0.7071 0.7071 -0.7071 0.7071 117.7567 -73.781)" width="2" height="10.409"/>
	<rect x="113.331" y="104.259" transform="matrix(0.7071 0.7071 -0.7071 0.7071 109.1478 -52.9876)" width="10.409" height="2"/>
	<polygon points="134.24,128.511 134.24,117.964 132.24,117.964 132.24,128.511 127.986,124.257 126.572,125.671 133.24,132.339 
		139.907,125.671 138.493,124.257 	"/>
	<path d="M146.247,119.963c0-0.002,0-0.004,0-0.006c0-7.18-5.82-12.999-13-12.999s-13,5.819-13,12.999c0,0.002,0,0.004,0,0.006h-13
		v2h22v-2h-7c0-0.002,0-0.004,0-0.006c0-6.064,4.935-10.999,11-10.999s11,4.935,11,10.999c0,0.002,0,0.004,0,0.006h-7v2h21.995v-2
		H146.247z"/>
</g>
<g>
	<polygon points="336.598,127.977 336.598,113.594 334.598,113.594 334.598,127.977 330.344,123.723 328.93,125.137 
		335.598,131.805 342.265,125.137 340.851,123.723 	"/>
	<path d="M352.226,108.623c-1.596-7.445-8.207-13.029-16.127-13.029c-6.423,0-11.977,3.678-14.702,9.035
		c-0.266-0.018-0.53-0.04-0.8-0.04c-6.627,0-11.999,5.372-11.999,12c0,6.607,5.34,11.965,11.938,11.998v0.003h6.062v-2h-5.604
		l-0.447-0.003c-5.485-0.027-9.948-4.513-9.948-9.998c0-5.514,4.485-10,9.999-10c0.175,0,0.347,0.014,0.52,0.025l0.148,0.01
		l1.316,0.088l0.598-1.176c2.492-4.899,7.443-7.942,12.92-7.942c6.79,0,12.75,4.814,14.172,11.448l0.317,1.482l1.514,0.095
		c4.203,0.262,7.496,3.763,7.496,7.971c0,4.397-3.565,7.977-7.957,8c-0.05-0.003-0.093-0.005-0.137-0.007l-2.043,0.007h-4.863v2
		h6.863v-0.007c0.046,0.001,0.091,0.007,0.137,0.007c5.521,0,10-4.477,10-10C361.598,113.279,357.453,108.948,352.226,108.623z"/>
</g>
<g>
	<polygon points="242.582,124.781 243.996,123.367 237.329,116.699 230.661,123.367 232.075,124.781 236.329,120.527 
		236.329,133.113 238.329,133.113 238.329,120.527 	"/>
	<path d="M253.957,110.219c-1.596-7.445-8.207-13.029-16.127-13.029c-6.423,0-11.977,3.678-14.702,9.035
		c-0.266-0.018-0.53-0.04-0.8-0.04c-6.627,0-11.999,5.372-11.999,12c0,6.607,5.34,11.965,11.938,11.998v0.003h10.062v-2h-9.604
		l-0.447-0.003c-5.485-0.027-9.948-4.513-9.948-9.998c0-5.514,4.485-10,9.999-10c0.175,0,0.347,0.014,0.52,0.025l0.148,0.01
		l1.316,0.088l0.598-1.176c2.492-4.899,7.443-7.942,12.92-7.942c6.79,0,12.75,4.814,14.172,11.448l0.317,1.482l1.514,0.095
		c4.203,0.262,7.496,3.763,7.496,7.971c0,4.397-3.565,7.977-7.957,8c-0.05-0.003-0.093-0.005-0.137-0.007l-2.043,0.007h-8.863v2
		h10.863v-0.007c0.046,0.001,0.091,0.007,0.137,0.007c5.521,0,10-4.477,10-10C263.329,114.875,259.185,110.544,253.957,110.219z"/>
</g>
<g>
	<path d="M456.446-79.297c-1.596-7.445-8.207-13.029-16.127-13.029c-6.423,0-11.977,3.678-14.702,9.035
		c-0.266-0.018-0.53-0.04-0.8-0.04c-6.627,0-11.999,5.372-11.999,12c0,6.607,5.34,11.965,11.938,11.998v0.003h2.062v-2h-1.604
		l-0.447-0.003c-5.485-0.027-9.948-4.513-9.948-9.998c0-5.514,4.485-10,9.999-10c0.175,0,0.347,0.014,0.52,0.025l0.148,0.01
		l1.316,0.088l0.598-1.176c2.492-4.899,7.443-7.942,12.92-7.942c6.79,0,12.75,4.814,14.172,11.448l0.317,1.482l1.514,0.095
		c4.203,0.262,7.496,3.763,7.496,7.971c0,4.397-3.565,7.977-7.957,8c-0.05-0.003-0.093-0.005-0.137-0.007l-2.043,0.007h-0.863v2
		h2.863v-0.007c0.046,0.001,0.091,0.007,0.137,0.007c5.521,0,10-4.477,10-10C465.818-74.641,461.674-78.972,456.446-79.297z"/>
	<polygon points="434.818,-60.309 434.818,-62.938 436.991,-61.716 437.677,-62.937 435.207,-64.326 437.677,-65.716 
		436.991,-66.937 434.818,-65.714 434.818,-68.309 432.818,-68.309 432.818,-65.67 430.567,-66.937 429.882,-65.716 
		432.352,-64.326 429.882,-62.937 430.567,-61.716 432.818,-62.982 432.818,-60.309 	"/>
	<polygon points="439.98,-55.954 437.808,-54.731 437.808,-57.326 435.808,-57.326 435.808,-54.688 433.557,-55.954 
		432.871,-54.733 435.341,-53.344 432.871,-51.954 433.557,-50.733 435.808,-52 435.808,-49.326 437.808,-49.326 437.808,-51.956 
		439.98,-50.733 440.666,-51.954 438.196,-53.344 440.666,-54.733 	"/>
	<polygon points="448.996,-62.937 446.823,-61.714 446.823,-64.309 444.823,-64.309 444.823,-61.67 442.572,-62.937 
		441.887,-61.716 444.356,-60.326 441.887,-58.937 442.572,-57.716 444.823,-58.982 444.823,-56.309 446.823,-56.309 
		446.823,-58.938 448.996,-57.716 449.682,-58.937 447.212,-60.326 449.682,-61.716 	"/>
</g>
<g>
	<rect x="531.958" y="-97.349" width="2" height="7.973"/>
	<rect x="512.958" y="-78.435" width="7.973" height="2"/>
	<rect x="517.631" y="-89.701" transform="matrix(0.7071 0.7071 -0.7071 0.7071 90.0573 -394.8197)" width="7.974" height="2"/>
	<rect x="543.14" y="-92.683" transform="matrix(0.7071 0.7071 -0.7071 0.7071 96.6564 -410.7437)" width="2" height="7.972"/>
	<path d="M562.47-71.559c-1.444-6.742-7.433-11.8-14.605-11.8c-2.185,0-4.258,0.471-6.127,1.314
		c-1.666-3.203-5.006-5.395-8.865-5.395c-5.522,0-10,4.477-10,9.999c0,2.46,0.899,4.702,2.373,6.442
		c-1.428,1.84-2.287,4.144-2.287,6.653c0,5.983,4.836,10.836,10.813,10.865v0.003h1.188v-2h-0.721l-0.457-0.003
		c-4.864-0.023-8.822-4.001-8.822-8.865c0-4.89,3.978-8.868,8.867-8.868c0.15,0,0.299,0.012,0.447,0.022l0.148,0.01l1.314,0.085
		l0.597-1.175c2.225-4.372,6.644-7.089,11.532-7.089c6.062,0,11.382,4.298,12.649,10.219l0.318,1.483l1.514,0.094
		c3.708,0.23,6.612,3.319,6.612,7.03c0,3.878-3.144,7.035-7.017,7.057c-0.042-0.003-0.079-0.005-0.117-0.005l-1.866,0.005v2h1.819
		v-0.006c0.042,0.001,0.082,0.006,0.124,0.006c5.001,0,9.057-4.054,9.057-9.057C570.958-67.342,567.204-71.264,562.47-71.559z
		 M534.55-75.176c-0.241-0.016-0.48-0.036-0.725-0.036c-2.766,0-5.282,1.041-7.2,2.742c-1.092-1.365-1.753-3.089-1.753-4.97
		c0-4.41,3.589-7.999,8-7.999c3.092,0,5.76,1.773,7.091,4.346C537.665-79.653,535.786-77.605,534.55-75.176z"/>
	<polygon points="541.95,-54.456 541.95,-57.086 544.123,-55.863 544.809,-57.084 542.339,-58.474 544.809,-59.863 544.123,-61.084 
		541.95,-59.861 541.95,-62.456 539.95,-62.456 539.95,-59.817 537.699,-61.084 537.014,-59.863 539.483,-58.474 537.014,-57.084 
		537.699,-55.863 539.95,-57.13 539.95,-54.456 	"/>
	<polygon points="547.112,-50.102 544.939,-48.879 544.939,-51.474 542.939,-51.474 542.939,-48.835 540.688,-50.102 
		540.003,-48.881 542.473,-47.491 540.003,-46.102 540.688,-44.881 542.939,-46.147 542.939,-43.474 544.939,-43.474 
		544.939,-46.104 547.112,-44.881 547.798,-46.102 545.328,-47.491 547.798,-48.881 	"/>
	<polygon points="556.128,-57.084 553.955,-55.861 553.955,-58.456 551.955,-58.456 551.955,-55.817 549.704,-57.084 
		549.019,-55.863 551.488,-54.474 549.019,-53.084 549.704,-51.863 551.955,-53.13 551.955,-50.456 553.955,-50.456 
		553.955,-53.086 556.128,-51.863 556.813,-53.084 554.344,-54.474 556.813,-55.863 	"/>
</g>
<g>
	<path d="M662.658-74.562c-1.444-6.742-7.433-11.8-14.605-11.8c-1.799,0-3.522,0.32-5.118,0.904
		c-0.949-5.108-5.404-8.98-10.788-8.98c-0.413,0-0.819,0.027-1.222,0.071c0.744,1.112,1.179,2.448,1.179,3.886c0,3.865-3.134,7-7,7
		c-1.438,0-2.773-0.435-3.886-1.179c-0.044,0.401-0.071,0.809-0.071,1.222c0,3.713,1.845,6.987,4.661,8.979
		c-1.653,1.907-2.661,4.389-2.661,7.111c0,5.983,4.836,10.836,10.813,10.865v0.003h1.188v-2h-0.721l-0.457-0.003
		c-4.864-0.023-8.822-4.001-8.822-8.865c0-4.89,3.978-8.868,8.867-8.868c0.15,0,0.299,0.012,0.447,0.022l0.148,0.01l1.314,0.085
		l0.597-1.175c2.225-4.372,6.644-7.089,11.532-7.089c6.062,0,11.382,4.298,12.649,10.219l0.318,1.483l1.514,0.094
		c3.708,0.23,6.612,3.319,6.612,7.03c0,3.878-3.144,7.035-7.017,7.057c-0.042-0.003-0.079-0.005-0.117-0.005l-1.866,0.005v2h1.819
		v-0.006c0.042,0.001,0.082,0.006,0.124,0.006c5.001,0,9.057-4.054,9.057-9.057C671.146-70.345,667.393-74.267,662.658-74.562z
		 M634.738-78.179c-0.241-0.016-0.48-0.036-0.725-0.036c-2.537,0-4.865,0.877-6.715,2.334c-2.012-1.294-3.486-3.354-3.976-5.776
		c0.582,0.117,1.178,0.177,1.78,0.177c4.963,0,9-4.037,9-9c0-0.603-0.06-1.198-0.177-1.78c3.733,0.753,6.629,3.824,7.134,7.64
		C638.348-83.177,636.133-80.922,634.738-78.179z"/>
	<polygon points="642.184,-57.459 642.184,-60.089 644.356,-58.866 645.042,-60.087 642.572,-61.477 645.042,-62.866 
		644.356,-64.087 642.184,-62.864 642.184,-65.459 640.184,-65.459 640.184,-62.82 637.933,-64.087 637.247,-62.866 
		639.717,-61.477 637.247,-60.087 637.933,-58.866 640.184,-60.133 640.184,-57.459 	"/>
	<polygon points="647.346,-53.104 645.173,-51.882 645.173,-54.477 643.173,-54.477 643.173,-51.838 640.922,-53.104 
		640.236,-51.884 642.706,-50.494 640.236,-49.104 640.922,-47.884 643.173,-49.15 643.173,-46.477 645.173,-46.477 
		645.173,-49.106 647.346,-47.884 648.031,-49.104 645.562,-50.494 648.031,-51.884 	"/>
	<polygon points="656.361,-60.087 654.188,-58.864 654.188,-61.459 652.188,-61.459 652.188,-58.82 649.938,-60.087 
		649.252,-58.866 651.722,-57.477 649.252,-56.087 649.938,-54.866 652.188,-56.133 652.188,-53.459 654.188,-53.459 
		654.188,-56.089 656.361,-54.866 657.047,-56.087 654.577,-57.477 657.047,-58.866 	"/>
</g>
<rect x="46.3" y="-642.312" fill="none" width="472.974" height="180.918"/>
<text transform="matrix(1 0 0 1 225.937 -570.9126)"><tspan x="0" y="0" font-family="'HelveticaNeueLTStd-Th'" font-size="100" letter-spacing="2">60</tspan><tspan x="-99.268" y="60" font-family="'HelveticaNeueLTStd-Lt'" font-size="48" letter-spacing="1">Weather Icons</tspan><tspan x="-3.726" y="104" font-family="'HelveticaNeueLTStd-Lt'" font-size="24">IOS 7 Style</tspan></text>
</svg>
