<?xml version="1.0" encoding="utf-8"?>
<!-- Generator: Adobe Illustrator 16.0.0, SVG Export Plug-In . SVG Version: 6.00 Build 0)  -->
<!DOCTYPE svg PUBLIC "-//W3C//DTD SVG 1.1//EN" "http://www.w3.org/Graphics/SVG/1.1/DTD/svg11.dtd">
<svg version="1.1" id="Layer_1" xmlns="http://www.w3.org/2000/svg" xmlns:xlink="http://www.w3.org/1999/xlink" x="0px" y="0px"
	 width="51px" height="40.968px" viewBox="0 0 51 40.968" enable-background="new 0 0 51 40.968" xml:space="preserve">
<path d="M440.024,94.385l-1.803,15.077l-0.268,2.237h2.254h6.896l-14.693,18.759l1.789-14.52l0.277-2.245h-2.262h-6.957
	L440.024,94.385 M442.879,87.36l-21.667,28.333h11.004l-2.671,21.667l21.667-27.661h-11.004L442.879,87.36L442.879,87.36z"/>
<path d="M26.989-367.876c6.79,0,12.749,4.814,14.171,11.448l0.318,1.483l1.514,0.094c4.203,0.262,7.496,3.763,7.496,7.971
	c0,4.396-3.565,7.977-7.957,8c-0.046-0.003-0.091-0.006-0.137-0.007l-2.043-0.036v0.043H12.015l-0.578-0.003
	c-5.485-0.027-9.948-4.513-9.948-9.998c0-5.514,4.485-10,9.999-10c0.175,0,0.347,0.014,0.519,0.025l0.149,0.011l1.316,0.087
	l0.598-1.176C16.563-364.833,21.513-367.876,26.989-367.876 M26.989-369.876c-6.423,0-11.977,3.678-14.702,9.035
	c-0.266-0.018-0.53-0.04-0.8-0.04c-6.627,0-11.999,5.372-11.999,12c0,6.607,5.34,11.965,11.938,11.998v0.003h30.925v-0.007
	c0.046,0.001,0.091,0.007,0.137,0.007c5.521,0,10-4.477,10-10c0-5.311-4.145-9.642-9.372-9.967
	C41.521-364.292,34.909-369.876,26.989-369.876L26.989-369.876z"/>
<g>
	<path d="M149.94-349.465c-1.444-6.742-7.433-11.8-14.605-11.8c-2.185,0-4.258,0.47-6.127,1.313
		c-1.666-3.202-5.006-5.394-8.865-5.394c-5.522,0-10,4.477-10,9.999c0,2.46,0.898,4.702,2.373,6.442
		c-1.428,1.84-2.287,4.144-2.287,6.653c0,5.983,4.836,10.836,10.813,10.865v0.003h28.007v-0.006
		c0.042,0.001,0.082,0.006,0.124,0.006c5.001,0,9.057-4.054,9.057-9.057C158.429-345.248,154.675-349.17,149.94-349.465z
		 M120.343-363.345c3.092,0,5.76,1.773,7.092,4.345c-2.299,1.44-4.178,3.488-5.414,5.918c-0.241-0.016-0.48-0.036-0.725-0.036
		c-2.766,0-5.281,1.041-7.2,2.743c-1.092-1.366-1.753-3.09-1.753-4.971C112.343-359.756,115.932-363.345,120.343-363.345z
		 M149.412-333.382c-0.038-0.003-0.077-0.004-0.117-0.005l-2.047-0.042v0.047h-25.403l-0.594-0.003
		c-4.864-0.023-8.822-4.001-8.822-8.865c0-4.89,3.978-8.868,8.867-8.868c0.15,0,0.299,0.012,0.447,0.021l0.148,0.011l1.314,0.085
		l0.598-1.174c2.224-4.373,6.643-7.09,11.531-7.09c6.062,0,11.381,4.298,12.65,10.219l0.317,1.482l1.514,0.095
		c3.708,0.231,6.612,3.319,6.612,7.03C156.429-336.561,153.285-333.404,149.412-333.382z"/>
	<rect x="119.349" y="-375.375" width="2" height="7.973"/>
	<rect x="100.376" y="-356.389" width="7.973" height="2"/>
	<rect x="105.102" y="-367.607" transform="matrix(0.7071 0.7071 -0.7071 0.7071 -227.2792 -184.5143)" width="7.974" height="2"/>
	<rect x="130.61" y="-370.589" transform="matrix(0.7071 0.7071 -0.7071 0.7071 -220.68 -200.4383)" width="2" height="7.972"/>
</g>
<path d="M245.684-353.492c-1.444-6.742-7.433-11.8-14.605-11.8c-1.799,0-3.521,0.32-5.118,0.904
	c-0.949-5.108-5.404-8.98-10.788-8.98c-0.413,0-0.819,0.027-1.222,0.071c0.744,1.112,1.179,2.448,1.179,3.886c0,3.865-3.134,7-7,7
	c-1.438,0-2.773-0.435-3.886-1.179c-0.044,0.401-0.071,0.809-0.071,1.222c0,3.712,1.845,6.987,4.661,8.979
	c-1.653,1.907-2.661,4.389-2.661,7.111c0,5.983,4.836,10.836,10.813,10.865v0.003h28.007v-0.006
	c0.042,0.001,0.082,0.006,0.124,0.006c5.001,0,9.057-4.054,9.057-9.057C254.172-349.275,250.418-353.197,245.684-353.492z
	 M206.349-360.588c0.582,0.117,1.178,0.177,1.78,0.177c4.963,0,9-4.037,9-9c0-0.603-0.06-1.198-0.177-1.78
	c3.733,0.753,6.629,3.824,7.134,7.64c-2.713,1.444-4.928,3.699-6.322,6.442c-0.241-0.016-0.48-0.036-0.725-0.036
	c-2.537,0-4.865,0.876-6.715,2.334C208.313-356.105,206.838-358.165,206.349-360.588z M245.155-337.409
	c-0.038-0.003-0.077-0.004-0.117-0.005l-2.047-0.042v0.047h-25.403l-0.594-0.003c-4.864-0.023-8.822-4.001-8.822-8.865
	c0-4.89,3.978-8.868,8.867-8.868c0.15,0,0.299,0.012,0.447,0.021l0.148,0.011l1.314,0.085l0.598-1.174
	c2.224-4.373,6.643-7.09,11.531-7.09c6.062,0,11.381,4.298,12.65,10.219l0.317,1.482l1.514,0.095
	c3.708,0.231,6.612,3.319,6.612,7.03C252.172-340.588,249.028-337.432,245.155-337.409z"/>
<g>
	<rect x="330.329" y="-344.869" width="2" height="7"/>
	<rect x="338.329" y="-348.869" width="2" height="7"/>
	<rect x="322.329" y="-348.869" width="2" height="7"/>
	<rect x="330.329" y="-334.869" width="2" height="7"/>
	<rect x="338.329" y="-338.869" width="2" height="7"/>
	<rect x="322.329" y="-338.869" width="2" height="7"/>
	<path d="M348.957-361.857c-1.596-7.445-8.207-13.029-16.127-13.029c-6.423,0-11.977,3.678-14.702,9.035
		c-0.266-0.018-0.53-0.04-0.8-0.04c-6.627,0-11.999,5.372-11.999,12c0,6.607,5.34,11.965,11.938,11.998v0.003h2.062v-2h-1.604
		l-0.447-0.003c-5.485-0.027-9.948-4.513-9.948-9.998c0-5.514,4.485-10,9.999-10c0.175,0,0.347,0.014,0.52,0.025l0.148,0.01
		l1.316,0.088l0.598-1.176c2.492-4.899,7.443-7.942,12.92-7.942c6.79,0,12.75,4.814,14.172,11.448l0.317,1.482l1.514,0.095
		c4.203,0.262,7.496,3.763,7.496,7.971c0,4.397-3.565,7.977-7.957,8c-0.05-0.003-0.093-0.005-0.137-0.007l-2.043,0.007h-2.863v2
		h4.863v-0.007c0.046,0.001,0.091,0.007,0.137,0.007c5.521,0,10-4.477,10-10C358.329-357.201,354.185-361.532,348.957-361.857z"/>
</g>
<g>
	<path d="M146.53-272.5c-1.596-7.445-8.207-13.029-16.127-13.029c-6.423,0-11.977,3.678-14.702,9.035
		c-0.266-0.018-0.53-0.04-0.8-0.04c-6.627,0-11.999,5.372-11.999,12c0,6.607,5.34,11.965,11.938,11.998v0.003h2.062v-2h-1.604
		l-0.447-0.003c-5.485-0.027-9.948-4.513-9.948-9.998c0-5.514,4.485-10,9.999-10c0.175,0,0.347,0.014,0.52,0.025l0.148,0.01
		l1.316,0.088l0.598-1.176c2.492-4.899,7.443-7.942,12.92-7.942c6.79,0,12.75,4.814,14.172,11.448l0.317,1.482l1.514,0.095
		c4.203,0.262,7.496,3.763,7.496,7.971c0,4.397-3.565,7.977-7.957,8c-0.05-0.003-0.093-0.005-0.137-0.007l-2.043,0.007h-2.863v2
		h4.863v-0.007c0.046,0.001,0.091,0.007,0.137,0.007c5.521,0,10-4.477,10-10C155.902-267.844,151.758-272.175,146.53-272.5z"/>
	<polygon points="127.902,-245.505 127.902,-243.564 127.902,-237.505 129.902,-237.505 129.902,-243.564 129.902,-245.505 
		129.902,-257.505 127.902,-257.505 	"/>
	<polygon points="135.902,-249.505 135.902,-247.752 135.902,-241.505 137.902,-241.505 137.902,-247.752 137.902,-249.505 
		137.902,-261.505 135.902,-261.505 	"/>
	<polygon points="119.902,-249.505 119.902,-247.439 119.902,-241.505 121.902,-241.505 121.902,-247.439 121.902,-249.505 
		121.902,-261.505 119.902,-261.505 	"/>
</g>
<g>
	<polygon points="442.18,-248.594 435.297,-258.424 433.659,-257.276 440.542,-247.446 441.654,-245.857 445.13,-240.894 
		446.769,-242.04 443.293,-247.005 	"/>
	<polygon points="450.182,-248.596 443.297,-258.424 441.659,-257.275 448.545,-247.447 449.55,-246.012 453.134,-240.896 
		454.772,-242.043 451.188,-247.159 	"/>
	<polygon points="434.18,-248.594 427.297,-258.424 425.659,-257.275 432.542,-247.446 433.727,-245.754 437.131,-240.893 
		438.769,-242.04 435.365,-246.901 	"/>
	<path d="M453.287-272.233c-1.596-7.445-8.207-13.029-16.127-13.029c-6.423,0-11.977,3.678-14.702,9.035
		c-0.266-0.018-0.53-0.04-0.8-0.04c-6.627,0-11.999,5.372-11.999,12c0,6.607,5.34,11.965,11.938,11.998v0.003h2.062v-2h-1.604
		l-0.447-0.003c-5.485-0.027-9.948-4.513-9.948-9.998c0-5.514,4.485-10,9.999-10c0.175,0,0.347,0.014,0.52,0.025l0.148,0.01
		l1.316,0.088l0.598-1.176c2.492-4.899,7.443-7.942,12.92-7.942c6.79,0,12.75,4.814,14.172,11.448l0.317,1.482l1.514,0.095
		c4.203,0.262,7.496,3.763,7.496,7.971c0,4.397-3.565,7.977-7.957,8c-0.05-0.003-0.093-0.005-0.137-0.007l-1.043,0.007h0.137v2
		h0.863v-0.007c0.046,0.001,0.091,0.007,0.137,0.007c5.521,0,10-4.477,10-10C462.659-267.577,458.515-271.908,453.287-272.233z"/>
</g>
<g>
	<rect x="424.985" y="-381.315" width="2" height="7.973"/>
	<rect x="405.985" y="-362.401" width="7.973" height="2"/>
	<rect x="410.658" y="-373.668" transform="matrix(0.7071 0.7071 -0.7071 0.7071 -142.0692 -402.3506)" width="7.974" height="2"/>
	<rect x="436.167" y="-376.65" transform="matrix(0.7071 0.7071 -0.7071 0.7071 -135.47 -418.2745)" width="2" height="7.972"/>
	<rect x="438.985" y="-340.442" width="2" height="7"/>
	<rect x="446.985" y="-344.442" width="2" height="7"/>
	<rect x="430.985" y="-344.442" width="2" height="7"/>
	<rect x="438.985" y="-330.442" width="2" height="7"/>
	<rect x="446.985" y="-334.442" width="2" height="7"/>
	<rect x="430.985" y="-334.442" width="2" height="7"/>
	<path d="M455.497-355.525c-1.444-6.742-7.433-11.8-14.605-11.8c-2.185,0-4.258,0.47-6.126,1.313
		c-1.667-3.202-5.007-5.394-8.866-5.394c-5.522,0-10,4.477-10,9.999c0,2.46,0.899,4.702,2.373,6.442
		c-1.429,1.84-2.287,4.144-2.287,6.653c0,5.983,4.836,10.836,10.813,10.865v0.003h1.188v-2h-0.721l-0.457-0.003
		c-4.864-0.023-8.822-4.001-8.822-8.865c0-4.89,3.978-8.868,8.867-8.868c0.15,0,0.299,0.012,0.447,0.022l0.148,0.01l1.314,0.085
		l0.597-1.175c2.225-4.372,6.644-7.089,11.532-7.089c6.062,0,11.382,4.298,12.649,10.219l0.318,1.483l1.514,0.094
		c3.708,0.23,6.612,3.319,6.612,7.03c0,3.878-3.144,7.035-7.017,7.057c-0.042-0.003-0.079-0.005-0.117-0.005l-2.047,0.005h-0.819v2
		h2.819v-0.006c0.042,0.001,0.082,0.006,0.124,0.006c5.001,0,9.057-4.054,9.057-9.057
		C463.985-351.309,460.231-355.23,455.497-355.525z M427.577-359.143c-0.241-0.016-0.48-0.036-0.725-0.036
		c-2.766,0-5.282,1.041-7.2,2.743c-1.092-1.366-1.753-3.09-1.753-4.971c0-4.41,3.589-7.999,8-7.999c3.091,0,5.76,1.773,7.091,4.345
		C430.692-363.62,428.813-361.572,427.577-359.143z"/>
</g>
<g>
	<rect x="539.402" y="-341.89" width="2" height="7"/>
	<rect x="547.402" y="-345.89" width="2" height="7"/>
	<rect x="531.402" y="-345.89" width="2" height="7"/>
	<rect x="539.402" y="-331.89" width="2" height="7"/>
	<rect x="547.402" y="-335.89" width="2" height="7"/>
	<rect x="531.402" y="-335.89" width="2" height="7"/>
	<path d="M555.914-356.973c-1.444-6.742-7.433-11.8-14.605-11.8c-1.799,0-3.522,0.32-5.118,0.904
		c-0.949-5.108-5.404-8.98-10.788-8.98c-0.413,0-0.819,0.027-1.222,0.071c0.744,1.112,1.179,2.448,1.179,3.886c0,3.865-3.134,7-7,7
		c-1.438,0-2.773-0.435-3.886-1.179c-0.044,0.401-0.071,0.809-0.071,1.222c0,3.712,1.845,6.987,4.661,8.979
		c-1.653,1.907-2.661,4.389-2.661,7.111c0,5.983,4.836,10.836,10.813,10.865v0.003h1.188v-2h-0.721l-0.457-0.003
		c-4.864-0.023-8.822-4.001-8.822-8.865c0-4.89,3.978-8.868,8.867-8.868c0.15,0,0.299,0.012,0.447,0.022l0.148,0.01l1.314,0.085
		l0.597-1.175c2.225-4.372,6.644-7.089,11.532-7.089c6.062,0,11.382,4.298,12.649,10.219l0.318,1.483l1.514,0.094
		c3.708,0.23,6.612,3.319,6.612,7.03c0,3.878-3.144,7.035-7.017,7.057c-0.042-0.003-0.079-0.005-0.117-0.005l-2.047,0.005h-0.819v2
		h2.819v-0.006c0.042,0.001,0.082,0.006,0.124,0.006c5.001,0,9.057-4.054,9.057-9.057
		C564.402-352.756,560.648-356.678,555.914-356.973z M527.994-360.59c-0.241-0.016-0.48-0.036-0.725-0.036
		c-2.537,0-4.865,0.876-6.715,2.334c-2.012-1.294-3.487-3.354-3.976-5.776c0.582,0.117,1.178,0.177,1.78,0.177c4.963,0,9-4.037,9-9
		c0-0.603-0.06-1.198-0.177-1.78c3.733,0.753,6.629,3.824,7.133,7.64C531.604-365.588,529.39-363.333,527.994-360.59z"/>
</g>
<g>
	<polygon points="232.172,-241.066 232.172,-239.126 232.172,-233.066 234.172,-233.066 234.172,-239.126 234.172,-241.066 
		234.172,-253.066 232.172,-253.066 	"/>
	<polygon points="240.172,-245.066 240.172,-243.313 240.172,-237.066 242.172,-237.066 242.172,-243.313 242.172,-245.066 
		242.172,-257.066 240.172,-257.066 	"/>
	<polygon points="224.172,-245.066 224.172,-243.001 224.172,-237.066 226.172,-237.066 226.172,-243.001 226.172,-245.066 
		226.172,-257.066 224.172,-257.066 	"/>
	<rect x="218.172" y="-291.969" width="2" height="7.973"/>
	<rect x="199.172" y="-273.055" width="7.973" height="2"/>
	<rect x="203.845" y="-284.321" transform="matrix(0.7071 0.7071 -0.7071 0.7071 -139.4658 -229.9423)" width="7.974" height="2"/>
	<rect x="229.354" y="-287.303" transform="matrix(0.7071 0.7071 -0.7071 0.7071 -132.8666 -245.8663)" width="2" height="7.972"/>
	<path d="M248.684-266.179c-1.444-6.742-7.433-11.8-14.605-11.8c-2.185,0-4.258,0.47-6.127,1.313
		c-1.666-3.202-5.006-5.394-8.865-5.394c-5.522,0-10,4.477-10,9.999c0,2.46,0.898,4.702,2.373,6.442
		c-1.428,1.84-2.287,4.144-2.287,6.653c0,5.983,4.836,10.836,10.813,10.865v0.003h1.188v-2h-0.721l-0.457-0.003
		c-4.864-0.023-8.822-4.001-8.822-8.865c0-4.89,3.978-8.868,8.867-8.868c0.15,0,0.299,0.012,0.447,0.022l0.148,0.01l1.314,0.085
		l0.597-1.175c2.225-4.372,6.644-7.089,11.532-7.089c6.062,0,11.382,4.298,12.649,10.219l0.318,1.483l1.514,0.094
		c3.708,0.23,6.612,3.319,6.612,7.03c0,3.878-3.144,7.035-7.017,7.057c-0.042-0.003-0.079-0.005-0.117-0.005l-2.047,0.005h-0.819v2
		h2.819v-0.006c0.042,0.001,0.082,0.006,0.124,0.006c5.001,0,9.057-4.054,9.057-9.057
		C257.172-261.962,253.418-265.884,248.684-266.179z M220.764-269.796c-0.241-0.016-0.48-0.036-0.725-0.036
		c-2.766,0-5.281,1.042-7.2,2.743c-1.092-1.367-1.753-3.09-1.753-4.971c0-4.41,3.589-7.999,8-7.999c3.092,0,5.76,1.773,7.092,4.345
		C223.879-274.274,222-272.226,220.764-269.796z"/>
</g>
<g>
	<polygon points="332.569,-243.583 332.569,-241.643 332.569,-235.583 334.569,-235.583 334.569,-241.643 334.569,-243.583 
		334.569,-255.583 332.569,-255.583 	"/>
	<polygon points="340.569,-247.583 340.569,-245.83 340.569,-239.583 342.569,-239.583 342.569,-245.83 342.569,-247.583 
		342.569,-259.583 340.569,-259.583 	"/>
	<polygon points="324.569,-247.583 324.569,-245.518 324.569,-239.583 326.569,-239.583 326.569,-245.518 326.569,-247.583 
		326.569,-259.583 324.569,-259.583 	"/>
	<path d="M349.081-268.695c-1.444-6.742-7.433-11.8-14.605-11.8c-1.799,0-3.521,0.32-5.118,0.904
		c-0.949-5.108-5.404-8.98-10.788-8.98c-0.413,0-0.819,0.027-1.222,0.071c0.744,1.112,1.179,2.448,1.179,3.886c0,3.865-3.134,7-7,7
		c-1.438,0-2.773-0.435-3.886-1.179c-0.044,0.401-0.071,0.809-0.071,1.222c0,3.712,1.845,6.987,4.661,8.979
		c-1.653,1.907-2.661,4.389-2.661,7.111c0,5.983,4.836,10.836,10.813,10.865v0.003h1.188v-2h-0.721l-0.457-0.003
		c-4.864-0.023-8.822-4.001-8.822-8.865c0-4.89,3.978-8.868,8.867-8.868c0.15,0,0.299,0.012,0.447,0.022l0.148,0.01l1.314,0.085
		l0.597-1.175c2.225-4.372,6.644-7.089,11.532-7.089c6.062,0,11.382,4.298,12.649,10.219l0.318,1.483l1.514,0.094
		c3.708,0.23,6.612,3.319,6.612,7.03c0,3.878-3.144,7.035-7.017,7.057c-0.042-0.003-0.079-0.005-0.117-0.005l-2.047,0.005h-0.819v2
		h2.819v-0.006c0.042,0.001,0.082,0.006,0.124,0.006c5.001,0,9.057-4.054,9.057-9.057
		C357.569-264.479,353.815-268.4,349.081-268.695z M321.161-272.313c-0.241-0.016-0.48-0.036-0.725-0.036
		c-2.537,0-4.865,0.876-6.715,2.334c-2.012-1.294-3.486-3.354-3.976-5.776c0.582,0.117,1.178,0.177,1.78,0.177c4.963,0,9-4.037,9-9
		c0-0.603-0.06-1.198-0.177-1.78c3.733,0.753,6.629,3.824,7.134,7.641C324.771-277.311,322.556-275.055,321.161-272.313z"/>
</g>
<g>
	<polygon points="549.604,-242.639 542.722,-252.469 541.084,-251.321 547.967,-241.491 549.079,-239.902 552.555,-234.938 
		554.193,-236.085 550.718,-241.05 	"/>
	<polygon points="557.606,-242.641 550.722,-252.469 549.084,-251.32 555.97,-241.492 556.975,-240.057 560.559,-234.941 
		562.197,-236.088 558.613,-241.204 	"/>
	<polygon points="541.604,-242.639 534.722,-252.469 533.084,-251.32 539.967,-241.491 541.151,-239.799 544.556,-234.938 
		546.193,-236.085 542.79,-240.946 	"/>
	<rect x="529.084" y="-290.188" width="2" height="7.973"/>
	<rect x="510.084" y="-271.273" width="7.973" height="2"/>
	<rect x="514.757" y="-282.54" transform="matrix(0.7071 0.7071 -0.7071 0.7071 -47.1422 -449.2687)" width="7.974" height="2"/>
	<rect x="540.266" y="-285.522" transform="matrix(0.7071 0.7071 -0.7071 0.7071 -40.5431 -465.1926)" width="2" height="7.972"/>
	<path d="M559.596-264.397c-1.444-6.742-7.433-11.8-14.605-11.8c-2.185,0-4.258,0.47-6.126,1.313
		c-1.667-3.202-5.007-5.394-8.866-5.394c-5.522,0-10,4.477-10,9.999c0,2.46,0.899,4.702,2.373,6.442
		c-1.429,1.84-2.287,4.144-2.287,6.653c0,5.983,4.836,10.836,10.813,10.865v0.003h1.188v-2h-0.721l-0.457-0.003
		c-4.864-0.023-8.822-4.001-8.822-8.865c0-4.89,3.978-8.868,8.867-8.868c0.15,0,0.299,0.012,0.447,0.022l0.148,0.01l1.314,0.085
		l0.597-1.175c2.225-4.372,6.644-7.089,11.532-7.089c6.062,0,11.382,4.298,12.649,10.219l0.318,1.483l1.514,0.094
		c3.708,0.23,6.612,3.319,6.612,7.03c0,3.878-3.144,7.035-7.017,7.057c-0.042-0.003-0.079-0.005-0.117-0.005l-0.047,0.005h-0.819v2
		h0.819v-0.006c0.042,0.001,0.082,0.006,0.124,0.006c5.001,0,9.057-4.054,9.057-9.057
		C568.084-260.181,564.33-264.103,559.596-264.397z M531.676-268.015c-0.241-0.016-0.48-0.036-0.725-0.036
		c-2.766,0-5.282,1.042-7.2,2.743c-1.092-1.367-1.753-3.09-1.753-4.971c0-4.41,3.589-7.999,8-7.999c3.091,0,5.76,1.773,7.091,4.345
		C534.791-272.493,532.911-270.444,531.676-268.015z"/>
</g>
<g>
	<polygon points="-173.826,-146.153 -180.709,-155.983 -182.347,-154.836 -175.464,-145.006 -174.352,-143.417 -170.876,-138.453 
		-169.237,-139.6 -172.713,-144.564 	"/>
	<polygon points="-165.824,-146.155 -172.709,-155.983 -174.347,-154.835 -167.461,-145.007 -166.456,-143.571 -162.872,-138.456 
		-161.233,-139.603 -164.817,-144.719 	"/>
	<polygon points="-181.826,-146.153 -188.709,-155.983 -190.347,-154.835 -183.464,-145.006 -182.279,-143.313 -178.875,-138.452 
		-177.237,-139.6 -180.641,-144.461 	"/>
	<path d="M-163.835-167.912c-1.444-6.742-7.433-11.8-14.605-11.8c-1.799,0-3.522,0.32-5.118,0.904
		c-0.949-5.108-5.404-8.98-10.788-8.98c-0.413,0-0.819,0.027-1.222,0.071c0.744,1.112,1.179,2.448,1.179,3.886c0,3.865-3.134,7-7,7
		c-1.438,0-2.773-0.435-3.886-1.179c-0.044,0.401-0.071,0.809-0.071,1.222c0,3.712,1.845,6.987,4.661,8.979
		c-1.653,1.907-2.661,4.389-2.661,7.111c0,5.983,4.836,10.836,10.813,10.865v0.003h1.188v-2h-0.721l-0.457-0.003
		c-4.864-0.023-8.822-4.001-8.822-8.865c0-4.89,3.978-8.868,8.867-8.868c0.15,0,0.299,0.012,0.447,0.022l0.148,0.01l1.314,0.085
		l0.597-1.175c2.225-4.372,6.644-7.089,11.532-7.089c6.062,0,11.382,4.298,12.649,10.219l0.318,1.483l1.514,0.094
		c3.708,0.23,6.612,3.319,6.612,7.03c0,3.878-3.144,7.035-7.017,7.057c-0.042-0.003-0.079-0.005-0.117-0.005l-0.047,0.005h-0.819v2
		h0.819v-0.006c0.042,0.001,0.082,0.006,0.124,0.006c5.001,0,9.057-4.054,9.057-9.057
		C-155.347-163.695-159.101-167.617-163.835-167.912z M-191.755-171.529c-0.241-0.016-0.48-0.036-0.725-0.036
		c-2.537,0-4.865,0.876-6.715,2.334c-2.012-1.294-3.487-3.354-3.976-5.776c0.582,0.117,1.178,0.177,1.78,0.177c4.963,0,9-4.037,9-9
		c0-0.603-0.06-1.198-0.177-1.78c3.733,0.753,6.629,3.824,7.133,7.641C-188.145-176.527-190.359-174.271-191.755-171.529z"/>
</g>
<g>
	<rect x="-181.347" y="-250" width="2" height="4"/>
	<rect x="-173.347" y="-254.021" width="2" height="4.021"/>
	<rect x="-189.347" y="-254.021" width="2" height="4.021"/>
	<path d="M-162.719-269.988c-1.596-7.445-8.207-13.029-16.127-13.029c-6.423,0-11.977,3.678-14.702,9.035
		c-0.266-0.018-0.53-0.04-0.8-0.04c-6.627,0-11.999,5.372-11.999,12c0,6.607,5.34,11.965,11.938,11.998v0.003h2.062v-2h-1.604
		l-0.447-0.003c-5.485-0.027-9.948-4.513-9.948-9.998c0-5.514,4.485-10,9.999-10c0.175,0,0.347,0.014,0.52,0.025l0.148,0.01
		l1.316,0.088l0.598-1.176c2.492-4.899,7.443-7.942,12.92-7.942c6.79,0,12.75,4.814,14.172,11.448l0.317,1.482l1.514,0.095
		c4.203,0.262,7.496,3.763,7.496,7.971c0,4.397-3.565,7.977-7.957,8c-0.05-0.003-0.093-0.005-0.137-0.007l-2.043,0.007h-2.863v2
		h4.863v-0.007c0.046,0.001,0.091,0.007,0.137,0.007c5.521,0,10-4.477,10-10C-153.347-265.332-157.491-269.663-162.719-269.988z"/>
	<circle cx="-172.347" cy="-244.979" r="1.5"/>
	<circle cx="-180.347" cy="-241.011" r="1.5"/>
	<circle cx="-188.347" cy="-245.021" r="1.5"/>
</g>
<g>
	<rect x="-88.426" y="-289.454" width="2" height="7.973"/>
	<rect x="-107.426" y="-270.54" width="7.973" height="2"/>
	<rect x="-102.753" y="-281.807" transform="matrix(0.7071 0.7071 -0.7071 0.7071 -227.4881 -12.4085)" width="7.974" height="2"/>
	<rect x="-77.244" y="-284.788" transform="matrix(0.7071 0.7071 -0.7071 0.7071 -220.8889 -28.3325)" width="2" height="7.972"/>
	<path d="M-57.914-263.664c-1.444-6.742-7.433-11.8-14.605-11.8c-2.185,0-4.258,0.47-6.126,1.313
		c-1.667-3.202-5.007-5.394-8.866-5.394c-5.522,0-10,4.477-10,9.999c0,2.46,0.899,4.702,2.373,6.442
		c-1.429,1.84-2.287,4.144-2.287,6.653c0,5.983,4.836,10.836,10.813,10.865v0.003h1.188v-2h-0.721l-0.457-0.003
		c-4.864-0.023-8.822-4.001-8.822-8.865c0-4.89,3.978-8.868,8.867-8.868c0.15,0,0.299,0.012,0.447,0.022l0.148,0.01l1.314,0.085
		l0.597-1.175c2.225-4.372,6.644-7.089,11.532-7.089c6.062,0,11.382,4.298,12.649,10.219l0.318,1.483l1.514,0.094
		c3.708,0.23,6.612,3.319,6.612,7.03c0,3.878-3.144,7.035-7.017,7.057c-0.042-0.003-0.079-0.005-0.117-0.005l-2.047,0.005h-0.819v2
		h2.819v-0.006c0.042,0.001,0.082,0.006,0.124,0.006c5.001,0,9.057-4.054,9.057-9.057C-49.426-259.447-53.18-263.369-57.914-263.664
		z M-85.834-267.281c-0.241-0.016-0.48-0.036-0.725-0.036c-2.766,0-5.282,1.042-7.2,2.743c-1.092-1.367-1.753-3.09-1.753-4.971
		c0-4.41,3.589-7.999,8-7.999c3.091,0,5.76,1.773,7.091,4.345C-82.719-271.76-84.599-269.711-85.834-267.281z"/>
	<rect x="-74.426" y="-245.565" width="2" height="4"/>
	<rect x="-66.426" y="-249.587" width="2" height="4.021"/>
	<rect x="-82.426" y="-249.587" width="2" height="4.021"/>
	<circle cx="-65.426" cy="-240.545" r="1.5"/>
	<circle cx="-73.426" cy="-236.576" r="1.5"/>
	<circle cx="-81.426" cy="-240.587" r="1.5"/>
</g>
<g>
	<path d="M43.012-264.621c-1.444-6.742-7.433-11.8-14.605-11.8c-1.799,0-3.522,0.32-5.118,0.904
		c-0.949-5.108-5.404-8.98-10.788-8.98c-0.413,0-0.819,0.027-1.222,0.071c0.744,1.112,1.179,2.448,1.179,3.886c0,3.865-3.134,7-7,7
		c-1.438,0-2.773-0.435-3.886-1.179c-0.044,0.401-0.071,0.809-0.071,1.222c0,3.712,1.845,6.987,4.661,8.979
		c-1.653,1.907-2.661,4.389-2.661,7.111c0,5.983,4.836,10.836,10.813,10.865v0.003H15.5v-2h-0.721l-0.457-0.003
		c-4.864-0.023-8.822-4.001-8.822-8.865c0-4.89,3.978-8.868,8.867-8.868c0.15,0,0.299,0.012,0.447,0.022l0.148,0.01l1.314,0.085
		l0.597-1.175c2.225-4.372,6.644-7.089,11.532-7.089c6.062,0,11.382,4.298,12.649,10.219l0.318,1.483l1.514,0.094
		c3.708,0.23,6.612,3.319,6.612,7.03c0,3.878-3.144,7.035-7.017,7.057c-0.042-0.003-0.079-0.005-0.117-0.005l-2.047,0.005H39.5v2
		h2.819v-0.006c0.042,0.001,0.082,0.006,0.124,0.006c5.001,0,9.057-4.054,9.057-9.057C51.5-260.404,47.746-264.326,43.012-264.621z
		 M15.092-268.238c-0.241-0.016-0.48-0.036-0.725-0.036c-2.537,0-4.865,0.876-6.715,2.334c-2.012-1.294-3.487-3.354-3.976-5.776
		c0.582,0.117,1.178,0.177,1.78,0.177c4.963,0,9-4.037,9-9c0-0.603-0.06-1.198-0.177-1.78c3.733,0.753,6.629,3.824,7.133,7.641
		C18.702-273.236,16.487-270.98,15.092-268.238z"/>
	<rect x="26.5" y="-246.522" width="2" height="4"/>
	<rect x="34.5" y="-250.544" width="2" height="4.021"/>
	<rect x="18.5" y="-250.544" width="2" height="4.021"/>
	<circle cx="35.5" cy="-241.502" r="1.5"/>
	<circle cx="27.5" cy="-237.533" r="1.5"/>
	<circle cx="19.5" cy="-241.544" r="1.5"/>
</g>
<g>
	<path d="M-60.298-171.591c-1.596-7.445-8.207-13.029-16.127-13.029c-6.423,0-11.977,3.678-14.702,9.035
		c-0.266-0.018-0.53-0.04-0.8-0.04c-6.627,0-11.999,5.372-11.999,12c0,6.607,5.34,11.965,11.938,11.998v0.003h6.062v-2h-5.604
		l-0.447-0.003c-5.485-0.027-9.948-4.513-9.948-9.998c0-5.514,4.485-10,9.999-10c0.175,0,0.347,0.014,0.52,0.025l0.148,0.01
		l1.316,0.088l0.598-1.176c2.492-4.899,7.443-7.942,12.92-7.942c6.79,0,12.75,4.814,14.172,11.448l0.317,1.482l1.514,0.095
		c4.203,0.262,7.496,3.763,7.496,7.971c0,4.397-3.565,7.977-7.957,8c-0.05-0.003-0.093-0.005-0.137-0.007l-5.043,0.007h0.137v2
		h4.863v-0.007c0.046,0.001,0.091,0.007,0.137,0.007c5.521,0,10-4.477,10-10C-50.926-166.935-55.07-171.266-60.298-171.591z"/>
	<polygon points="-76.084,-151.62 -74.314,-151.62 -73.884,-151.62 -71.874,-151.62 -78.288,-160.781 -79.926,-159.634 
		-75.715,-153.62 -77.485,-153.62 -79.926,-153.62 -78.654,-151.804 -77.542,-150.215 -71.564,-141.62 -69.926,-142.767 
		-75.903,-151.362 	"/>
</g>
<g>
	<rect x="15.5" y="-190.721" width="2" height="7.973"/>
	<rect x="-3.5" y="-171.807" width="7.973" height="2"/>
	<rect x="1.173" y="-183.073" transform="matrix(0.7071 0.7071 -0.7071 0.7071 -127.2339 -56.9768)" width="7.974" height="2"/>
	<rect x="26.682" y="-186.055" transform="matrix(0.7071 0.7071 -0.7071 0.7071 -120.6347 -72.9007)" width="2" height="7.972"/>
	<path d="M46.012-164.931c-1.444-6.742-7.433-11.8-14.605-11.8c-2.185,0-4.258,0.47-6.127,1.313
		c-1.666-3.202-5.006-5.394-8.865-5.394c-5.522,0-10,4.477-10,9.999c0,2.46,0.898,4.702,2.373,6.442
		c-1.428,1.84-2.287,4.144-2.287,6.653c0,5.983,4.836,10.836,10.813,10.865v0.003H21.5v-2h-3.721l-0.457-0.003
		c-4.864-0.023-8.822-4.001-8.822-8.865c0-4.89,3.978-8.868,8.867-8.868c0.15,0,0.299,0.012,0.447,0.022l0.148,0.01l1.314,0.085
		l0.597-1.175c2.225-4.372,6.644-7.089,11.532-7.089c6.062,0,11.382,4.298,12.649,10.219l0.318,1.483l1.514,0.094
		c3.708,0.23,6.612,3.319,6.612,7.03c0,3.878-3.144,7.035-7.017,7.057c-0.042-0.003-0.079-0.005-0.117-0.005l-2.047,0.005H39.5v2
		h5.819v-0.006c0.042,0.001,0.082,0.006,0.124,0.006c5.001,0,9.057-4.054,9.057-9.057C54.5-160.714,50.746-164.636,46.012-164.931z
		 M18.092-168.548c-0.241-0.016-0.48-0.036-0.725-0.036c-2.766,0-5.281,1.041-7.2,2.743c-1.092-1.366-1.753-3.09-1.753-4.971
		c0-4.41,3.589-7.999,8-7.999c3.092,0,5.76,1.773,7.092,4.345C21.207-173.025,19.328-170.978,18.092-168.548z"/>
	<polygon points="30.342,-146.841 32.111,-146.841 32.542,-146.841 34.552,-146.841 28.138,-156.002 26.5,-154.854 30.711,-148.841 
		28.94,-148.841 26.5,-148.841 27.771,-147.024 28.884,-145.436 34.861,-136.841 36.5,-137.987 30.522,-146.583 	"/>
</g>
<g>
	<path d="M145.597-167.227c-1.444-6.742-7.433-11.8-14.605-11.8c-1.799,0-3.521,0.32-5.118,0.904
		c-0.949-5.108-5.404-8.98-10.788-8.98c-0.413,0-0.819,0.027-1.222,0.071c0.744,1.112,1.179,2.448,1.179,3.886c0,3.865-3.134,7-7,7
		c-1.438,0-2.773-0.435-3.886-1.179c-0.044,0.401-0.071,0.809-0.071,1.222c0,3.712,1.845,6.987,4.661,8.979
		c-1.653,1.907-2.661,4.389-2.661,7.111c0,5.983,4.836,10.836,10.813,10.865v0.003h4.188v-2h-3.721l-0.457-0.003
		c-4.864-0.023-8.822-4.001-8.822-8.865c0-4.89,3.978-8.868,8.867-8.868c0.15,0,0.299,0.012,0.447,0.022l0.148,0.01l1.314,0.085
		l0.597-1.175c2.225-4.372,6.644-7.089,11.532-7.089c6.062,0,11.382,4.298,12.649,10.219l0.318,1.483l1.514,0.094
		c3.708,0.23,6.612,3.319,6.612,7.03c0,3.878-3.144,7.035-7.017,7.057c-0.042-0.003-0.079-0.005-0.117-0.005l-2.047,0.005h-3.819v2
		h5.819v-0.006c0.042,0.001,0.082,0.006,0.124,0.006c5.001,0,9.057-4.054,9.057-9.057
		C154.085-163.01,150.331-166.932,145.597-167.227z M117.677-170.844c-0.241-0.016-0.48-0.036-0.725-0.036
		c-2.537,0-4.865,0.876-6.715,2.334c-2.012-1.294-3.486-3.354-3.976-5.776c0.582,0.117,1.178,0.177,1.78,0.177c4.963,0,9-4.037,9-9
		c0-0.603-0.06-1.198-0.177-1.78c3.733,0.753,6.629,3.824,7.134,7.64C121.286-175.842,119.071-173.587,117.677-170.844z"/>
	<polygon points="129.927,-149.137 131.696,-149.137 132.127,-149.137 134.137,-149.137 127.723,-158.298 126.085,-157.15 
		130.296,-151.137 128.525,-151.137 126.085,-151.137 127.356,-149.32 128.469,-147.731 134.446,-139.137 136.085,-140.283 
		130.107,-148.879 	"/>
</g>
<g>
	<path d="M246.481-171.091c-1.596-7.445-8.207-13.029-16.127-13.029c-6.423,0-11.977,3.678-14.702,9.035
		c-0.266-0.018-0.53-0.04-0.8-0.04c-6.627,0-11.999,5.372-11.999,12c0,6.607,5.34,11.965,11.938,11.998v0.003h1.062v-2h-0.604
		l-0.447-0.003c-5.485-0.027-9.948-4.513-9.948-9.998c0-5.514,4.485-10,9.999-10c0.175,0,0.347,0.014,0.52,0.025l0.148,0.01
		l1.316,0.088l0.598-1.176c2.492-4.899,7.443-7.942,12.92-7.942c6.79,0,12.75,4.814,14.172,11.448l0.317,1.482l1.514,0.095
		c4.203,0.262,7.496,3.763,7.496,7.971c0,4.397-3.565,7.977-7.957,8c-0.05-0.003-0.093-0.005-0.137-0.007l-0.906,0.007v2h0.863
		v-0.007c0.046,0.001,0.091,0.007,0.137,0.007c5.521,0,10-4.477,10-10C255.854-166.435,251.709-170.766,246.481-171.091z"/>
	
		<rect x="215.288" y="-153.126" transform="matrix(-0.5736 -0.8191 0.8191 -0.5736 472.1924 -58.4678)" width="11.183" height="1.999"/>
	
		<rect x="233.262" y="-153.126" transform="matrix(-0.5736 -0.8191 0.8191 -0.5736 500.4779 -43.7446)" width="11.183" height="1.999"/>
	<polygon points="231.695,-148.12 233.465,-148.12 233.896,-148.12 235.905,-148.12 229.491,-157.281 227.854,-156.134 
		232.064,-150.12 230.294,-150.12 227.854,-150.12 229.125,-148.304 230.237,-146.715 234.854,-140.12 236.492,-141.267 
		231.876,-147.862 	"/>
</g>
<g>
	<rect x="321.329" y="-190.558" width="2" height="7.973"/>
	<rect x="302.329" y="-171.644" width="7.973" height="2"/>
	<rect x="307.002" y="-182.91" transform="matrix(0.7071 0.7071 -0.7071 0.7071 -37.5432 -273.1829)" width="7.974" height="2"/>
	<rect x="332.511" y="-185.892" transform="matrix(0.7071 0.7071 -0.7071 0.7071 -30.9441 -289.1068)" width="2" height="7.972"/>
	<path d="M351.841-164.768c-1.444-6.742-7.433-11.8-14.605-11.8c-2.185,0-4.258,0.47-6.126,1.313
		c-1.667-3.202-5.007-5.394-8.866-5.394c-5.522,0-10,4.477-10,9.999c0,2.46,0.899,4.702,2.373,6.442
		c-1.429,1.84-2.287,4.144-2.287,6.653c0,5.983,4.836,10.836,10.813,10.865v0.003h0.188v-2l-0.178-0.003
		c-4.864-0.023-8.822-4.001-8.822-8.865c0-4.89,3.978-8.868,8.867-8.868c0.15,0,0.299,0.012,0.447,0.022l0.148,0.01l1.314,0.085
		l0.597-1.175c2.225-4.372,6.644-7.089,11.532-7.089c6.062,0,11.382,4.298,12.649,10.219l0.318,1.483l1.514,0.094
		c3.708,0.23,6.612,3.319,6.612,7.03c0,3.878-3.144,7.035-7.017,7.057c-0.042-0.003-0.079-0.005-0.117-0.005l-0.866,0.005v2h0.819
		v-0.006c0.042,0.001,0.082,0.006,0.124,0.006c5.001,0,9.057-4.054,9.057-9.057C360.329-160.551,356.575-164.473,351.841-164.768z
		 M323.921-168.385c-0.241-0.016-0.48-0.036-0.725-0.036c-2.766,0-5.282,1.042-7.2,2.743c-1.092-1.367-1.753-3.09-1.753-4.971
		c0-4.41,3.589-7.999,8-7.999c3.091,0,5.76,1.773,7.091,4.345C327.036-172.863,325.156-170.814,323.921-168.385z"/>
	
		<rect x="321.751" y="-148.687" transform="matrix(-0.5736 -0.8191 0.8191 -0.5736 636.0908 35.7215)" width="11.183" height="1.999"/>
	
		<rect x="339.725" y="-148.687" transform="matrix(-0.5736 -0.8191 0.8191 -0.5736 664.3763 50.4446)" width="11.183" height="1.999"/>
	<polygon points="338.158,-143.682 339.928,-143.682 340.358,-143.682 342.368,-143.682 335.954,-152.843 334.316,-151.695 
		338.527,-145.682 336.757,-145.682 334.316,-145.682 335.588,-143.865 336.7,-142.276 341.316,-135.682 342.955,-136.828 
		338.339,-143.424 	"/>
</g>
<g>
	<path d="M453.679-167.726c-1.444-6.742-7.433-11.8-14.605-11.8c-1.799,0-3.522,0.32-5.118,0.904
		c-0.949-5.108-5.404-8.98-10.788-8.98c-0.413,0-0.819,0.027-1.222,0.071c0.744,1.112,1.179,2.448,1.179,3.886c0,3.865-3.134,7-7,7
		c-1.438,0-2.773-0.435-3.886-1.179c-0.044,0.401-0.071,0.809-0.071,1.222c0,3.712,1.845,6.987,4.661,8.979
		c-1.653,1.907-2.661,4.389-2.661,7.111c0,5.983,4.836,10.836,10.813,10.865v0.003h0.188v-2l-0.178-0.003
		c-4.864-0.023-8.822-4.001-8.822-8.865c0-4.89,3.978-8.868,8.867-8.868c0.15,0,0.299,0.012,0.447,0.022l0.148,0.01l1.314,0.085
		l0.597-1.175c2.225-4.372,6.644-7.089,11.532-7.089c6.062,0,11.382,4.298,12.649,10.219l0.318,1.483l1.514,0.094
		c3.708,0.23,6.612,3.319,6.612,7.03c0,3.878-3.144,7.035-7.017,7.057c-0.042-0.003-0.079-0.005-0.117-0.005l-0.866,0.005v2h0.819
		v-0.006c0.042,0.001,0.082,0.006,0.124,0.006c5.001,0,9.057-4.054,9.057-9.057C462.167-163.509,458.413-167.431,453.679-167.726z
		 M425.759-171.343c-0.241-0.016-0.48-0.036-0.725-0.036c-2.537,0-4.865,0.876-6.715,2.334c-2.012-1.294-3.487-3.354-3.976-5.776
		c0.582,0.117,1.178,0.177,1.78,0.177c4.963,0,9-4.037,9-9c0-0.603-0.06-1.198-0.177-1.78c3.733,0.753,6.629,3.824,7.133,7.641
		C429.369-176.341,427.154-174.085,425.759-171.343z"/>
	
		<rect x="423.588" y="-151.645" transform="matrix(-0.5736 -0.8191 0.8191 -0.5736 798.7682 114.4822)" width="11.183" height="1.999"/>
	
		<rect x="441.562" y="-151.645" transform="matrix(-0.5736 -0.8191 0.8191 -0.5736 827.0538 129.2053)" width="11.183" height="1.999"/>
	<polygon points="439.995,-146.64 441.765,-146.64 442.195,-146.64 444.205,-146.64 437.791,-155.801 436.153,-154.653 
		440.364,-148.64 438.594,-148.64 436.153,-148.64 437.425,-146.823 438.537,-145.234 443.153,-138.64 444.792,-139.786 
		440.176,-146.382 	"/>
</g>
<g>
	<g>
		<path d="M43.116-81.271C41.521-88.716,34.909-94.3,26.989-94.3c-6.423,0-11.977,3.678-14.702,9.035
			c-0.266-0.018-0.53-0.04-0.8-0.04c-6.627,0-11.999,5.372-11.999,12c0,6.607,5.34,11.965,11.938,11.998v0.003h2.062v-2h-1.604
			l-0.447-0.003c-5.485-0.027-9.948-4.513-9.948-9.998c0-5.514,4.485-10,9.999-10c0.175,0,0.347,0.014,0.52,0.025l0.148,0.01
			l1.316,0.088l0.598-1.176c2.492-4.899,7.443-7.942,12.92-7.942c6.79,0,12.75,4.814,14.172,11.448l0.317,1.482l1.514,0.095
			c4.203,0.262,7.496,3.763,7.496,7.971c0,4.397-3.565,7.977-7.957,8c-0.05-0.003-0.093-0.005-0.137-0.007l-2.043,0.007h-2.863v2
			h4.863v-0.007c0.046,0.001,0.091,0.007,0.137,0.007c5.521,0,10-4.477,10-10C52.488-76.614,48.344-80.945,43.116-81.271z"/>
	</g>
	<g>
		<circle cx="17.988" cy="-67.728" r="1.5"/>
	</g>
	<g>
		<circle cx="21.988" cy="-61.804" r="1.5"/>
	</g>
	<g>
		<circle cx="29.988" cy="-61.804" r="1.5"/>
	</g>
	<g>
		<circle cx="25.988" cy="-67.728" r="1.5"/>
	</g>
	<g>
		<circle cx="33.988" cy="-67.728" r="1.5"/>
	</g>
	<g>
		<circle cx="17.988" cy="-55.782" r="1.5"/>
	</g>
	<g>
		<circle cx="25.988" cy="-55.782" r="1.5"/>
	</g>
	<g>
		<circle cx="33.988" cy="-55.782" r="1.5"/>
	</g>
</g>
<g>
	<g>
		<rect x="118.902" y="-96.748" width="2" height="7.973"/>
	</g>
	<g>
		<rect x="99.902" y="-77.834" width="7.973" height="2"/>
	</g>
	<g>
		<rect x="104.575" y="-89.1" transform="matrix(0.7071 0.7071 -0.7071 0.7071 -30.4993 -102.5694)" width="7.974" height="2"/>
	</g>
	<g>
		<rect x="130.084" y="-92.082" transform="matrix(0.7071 0.7071 -0.7071 0.7071 -23.9001 -118.4933)" width="2" height="7.972"/>
	</g>
	<g>
		<path d="M149.414-70.958c-1.444-6.742-7.433-11.8-14.605-11.8c-2.185,0-4.258,0.47-6.127,1.313
			c-1.666-3.202-5.006-5.394-8.865-5.394c-5.522,0-10,4.477-10,9.999c0,2.46,0.898,4.702,2.373,6.442
			c-1.428,1.84-2.287,4.144-2.287,6.653c0,5.983,4.836,10.836,10.813,10.865v0.003h1.188v-2h-0.721l-0.457-0.003
			c-4.864-0.023-8.822-4.001-8.822-8.865c0-4.89,3.978-8.868,8.867-8.868c0.15,0,0.299,0.012,0.447,0.022l0.148,0.01l1.314,0.085
			l0.597-1.175c2.225-4.372,6.644-7.089,11.532-7.089c6.062,0,11.382,4.298,12.649,10.219l0.318,1.483l1.514,0.094
			c3.708,0.23,6.612,3.319,6.612,7.03c0,3.878-3.144,7.035-7.017,7.057c-0.042-0.003-0.079-0.005-0.117-0.005l-2.047,0.005h-1.819v2
			h3.819v-0.006c0.042,0.001,0.082,0.006,0.124,0.006c5.001,0,9.057-4.054,9.057-9.057
			C157.902-66.741,154.148-70.663,149.414-70.958z M121.494-74.575c-0.241-0.016-0.48-0.036-0.725-0.036
			c-2.766,0-5.281,1.042-7.2,2.743c-1.092-1.367-1.753-3.09-1.753-4.971c0-4.41,3.589-7.999,8-7.999c3.092,0,5.76,1.773,7.092,4.345
			C124.609-79.054,122.73-77.005,121.494-74.575z"/>
	</g>
	<g>
		<circle cx="125.392" cy="-59.364" r="1.5"/>
	</g>
	<g>
		<circle cx="129.392" cy="-53.364" r="1.5"/>
	</g>
	<g>
		<circle cx="137.392" cy="-53.364" r="1.5"/>
	</g>
	<g>
		<circle cx="133.392" cy="-59.364" r="1.5"/>
	</g>
	<g>
		<circle cx="141.392" cy="-59.364" r="1.5"/>
	</g>
	<g>
		<circle cx="125.392" cy="-47.343" r="1.5"/>
	</g>
	<g>
		<circle cx="133.392" cy="-47.343" r="1.5"/>
	</g>
	<g>
		<circle cx="141.392" cy="-47.343" r="1.5"/>
	</g>
</g>
<g>
	<g>
		<path d="M245.365-74.914c-1.444-6.742-7.433-11.8-14.605-11.8c-1.799,0-3.521,0.32-5.118,0.904
			c-0.949-5.108-5.404-8.98-10.788-8.98c-0.413,0-0.819,0.027-1.222,0.071c0.744,1.112,1.179,2.448,1.179,3.886c0,3.865-3.134,7-7,7
			c-1.438,0-2.773-0.435-3.886-1.179c-0.044,0.401-0.071,0.809-0.071,1.222c0,3.712,1.845,6.987,4.661,8.979
			c-1.653,1.907-2.661,4.389-2.661,7.111c0,5.983,4.836,10.836,10.813,10.865v0.003h1.188v-2h-0.721l-0.457-0.003
			c-4.864-0.023-8.822-4.001-8.822-8.865c0-4.89,3.978-8.868,8.867-8.868c0.15,0,0.299,0.012,0.447,0.022l0.148,0.01l1.314,0.085
			l0.597-1.175c2.225-4.372,6.644-7.089,11.532-7.089c6.062,0,11.382,4.298,12.649,10.219l0.318,1.483l1.514,0.094
			c3.708,0.23,6.612,3.319,6.612,7.03c0,3.878-3.144,7.035-7.017,7.057c-0.042-0.003-0.079-0.005-0.117-0.005l-2.047,0.005h-1.819v2
			h3.819v-0.006c0.042,0.001,0.082,0.006,0.124,0.006c5.001,0,9.057-4.054,9.057-9.057C253.854-70.697,250.1-74.619,245.365-74.914z
			 M217.445-78.531c-0.241-0.016-0.48-0.036-0.725-0.036c-2.537,0-4.865,0.876-6.715,2.334c-2.012-1.294-3.486-3.354-3.976-5.776
			c0.582,0.117,1.178,0.177,1.78,0.177c4.963,0,9-4.037,9-9c0-0.603-0.06-1.198-0.177-1.78c3.733,0.753,6.629,3.824,7.134,7.64
			C221.055-83.529,218.84-81.274,217.445-78.531z"/>
	</g>
	<g>
		<circle cx="221.354" cy="-63.321" r="1.5"/>
	</g>
	<g>
		<circle cx="225.354" cy="-57.321" r="1.5"/>
	</g>
	<g>
		<circle cx="233.354" cy="-57.321" r="1.5"/>
	</g>
	<g>
		<circle cx="229.354" cy="-63.321" r="1.5"/>
	</g>
	<g>
		<circle cx="237.354" cy="-63.321" r="1.5"/>
	</g>
	<g>
		<circle cx="221.354" cy="-51.3" r="1.5"/>
	</g>
	<g>
		<circle cx="229.354" cy="-51.3" r="1.5"/>
	</g>
	<g>
		<circle cx="237.354" cy="-51.3" r="1.5"/>
	</g>
</g>
<g>
	<path d="M556.53-173.8c-1.596-7.445-8.207-13.029-16.127-13.029c-6.423,0-11.977,3.678-14.702,9.035
		c-0.266-0.018-0.53-0.04-0.8-0.04c-6.627,0-11.999,5.372-11.999,12c0,6.607,5.34,11.965,11.938,11.998v0.003h2.062v-2h-1.604
		l-0.447-0.003c-5.485-0.027-9.948-4.513-9.948-9.998c0-5.514,4.485-10,9.999-10c0.175,0,0.347,0.014,0.52,0.025l0.148,0.01
		l1.316,0.088l0.598-1.176c2.492-4.899,7.443-7.942,12.92-7.942c6.79,0,12.75,4.814,14.172,11.448l0.317,1.482l1.514,0.095
		c4.203,0.262,7.496,3.763,7.496,7.971c0,4.397-3.565,7.977-7.957,8c-0.05-0.003-0.093-0.005-0.137-0.007l-2.043,0.007h-2.863v2
		h4.863v-0.007c0.046,0.001,0.091,0.007,0.137,0.007c5.521,0,10-4.477,10-10C565.902-169.144,561.758-173.475,556.53-173.8z"/>
	<circle cx="530.902" cy="-146.329" r="1.5"/>
	<circle cx="538.902" cy="-140.329" r="1.5"/>
	<circle cx="546.902" cy="-144.329" r="1.5"/>
	<rect x="529.902" y="-162.805" width="2" height="11.976"/>
	<polygon points="539.902,-144.864 539.902,-146.805 539.902,-158.805 537.902,-158.805 537.902,-146.805 537.902,-144.864 
		537.902,-144.829 539.902,-144.829 	"/>
	<polygon points="547.902,-149.052 547.902,-150.805 547.902,-162.805 545.902,-162.805 545.902,-150.805 545.902,-149.052 
		545.902,-148.829 547.902,-148.829 	"/>
</g>
<g>
	<rect x="-191.847" y="-102.187" width="2" height="7.973"/>
	<rect x="-210.847" y="-83.272" width="7.973" height="2"/>
	<rect x="-206.174" y="-94.539" transform="matrix(0.7071 0.7071 -0.7071 0.7071 -125.3612 115.5705)" width="7.974" height="2"/>
	<rect x="-180.665" y="-97.521" transform="matrix(0.7071 0.7071 -0.7071 0.7071 -118.762 99.6465)" width="2" height="7.972"/>
	<path d="M-161.335-76.396c-1.444-6.742-7.433-11.8-14.605-11.8c-2.185,0-4.258,0.47-6.126,1.313
		c-1.667-3.202-5.007-5.394-8.866-5.394c-5.522,0-10,4.477-10,9.999c0,2.46,0.899,4.702,2.373,6.442
		c-1.429,1.84-2.287,4.144-2.287,6.653c0,5.983,4.836,10.836,10.813,10.865v0.003h1.188v-2h-0.721l-0.457-0.003
		c-4.864-0.023-8.822-4.001-8.822-8.865c0-4.89,3.978-8.868,8.867-8.868c0.15,0,0.299,0.012,0.447,0.022l0.148,0.01l1.314,0.085
		l0.597-1.175c2.225-4.372,6.644-7.089,11.532-7.089c6.062,0,11.382,4.298,12.649,10.219l0.318,1.483l1.514,0.094
		c3.708,0.23,6.612,3.319,6.612,7.03c0,3.878-3.144,7.035-7.017,7.057c-0.042-0.003-0.079-0.005-0.117-0.005l-2.047,0.005h-0.819v2
		h2.819v-0.006c0.042,0.001,0.082,0.006,0.124,0.006c5.001,0,9.057-4.054,9.057-9.057C-152.847-72.18-156.601-76.102-161.335-76.396
		z M-189.255-80.014c-0.241-0.016-0.48-0.036-0.725-0.036c-2.766,0-5.282,1.041-7.2,2.743c-1.092-1.366-1.753-3.09-1.753-4.971
		c0-4.41,3.589-7.999,8-7.999c3.091,0,5.76,1.773,7.091,4.345C-186.14-84.491-188.02-82.443-189.255-80.014z"/>
	<circle cx="-184.856" cy="-49.826" r="1.5"/>
	<circle cx="-176.856" cy="-43.826" r="1.5"/>
	<circle cx="-168.856" cy="-47.826" r="1.5"/>
	<rect x="-185.856" y="-66.302" width="2" height="11.976"/>
	<polygon points="-175.856,-48.361 -175.856,-50.302 -175.856,-62.302 -177.856,-62.302 -177.856,-50.302 -177.856,-48.361 
		-177.856,-48.326 -175.856,-48.326 	"/>
	<polygon points="-167.856,-52.549 -167.856,-54.302 -167.856,-66.302 -169.856,-66.302 -169.856,-54.302 -169.856,-52.549 
		-169.856,-52.326 -167.856,-52.326 	"/>
</g>
<g>
	<path d="M-60.732-79.395c-1.444-6.742-7.433-11.8-14.605-11.8c-1.799,0-3.522,0.32-5.118,0.904
		c-0.949-5.108-5.404-8.98-10.788-8.98c-0.413,0-0.819,0.027-1.222,0.071c0.744,1.112,1.179,2.448,1.179,3.886c0,3.865-3.134,7-7,7
		c-1.438,0-2.773-0.435-3.886-1.179c-0.044,0.401-0.071,0.809-0.071,1.222c0,3.712,1.845,6.987,4.661,8.979
		c-1.653,1.907-2.661,4.389-2.661,7.111c0,5.983,4.836,10.836,10.813,10.865v0.003h1.188v-2h-0.721l-0.457-0.003
		c-4.864-0.023-8.822-4.001-8.822-8.865c0-4.89,3.978-8.868,8.867-8.868c0.15,0,0.299,0.012,0.447,0.022l0.148,0.01l1.314,0.085
		l0.597-1.175c2.225-4.372,6.644-7.089,11.532-7.089c6.062,0,11.382,4.298,12.649,10.219l0.318,1.483l1.514,0.094
		c3.708,0.23,6.612,3.319,6.612,7.03c0,3.878-3.144,7.035-7.017,7.057c-0.042-0.003-0.079-0.005-0.117-0.005l-2.047,0.005h-0.819v2
		h2.819v-0.006c0.042,0.001,0.082,0.006,0.124,0.006c5.001,0,9.057-4.054,9.057-9.057C-52.244-75.178-55.998-79.1-60.732-79.395z
		 M-88.652-83.012c-0.241-0.016-0.48-0.036-0.725-0.036c-2.537,0-4.865,0.876-6.715,2.334c-2.012-1.294-3.487-3.354-3.976-5.776
		c0.582,0.117,1.178,0.177,1.78,0.177c4.963,0,9-4.037,9-9c0-0.603-0.06-1.198-0.177-1.78c3.733,0.753,6.629,3.824,7.133,7.64
		C-85.042-88.01-87.257-85.755-88.652-83.012z"/>
	<circle cx="-84.244" cy="-52.82" r="1.5"/>
	<circle cx="-76.244" cy="-46.82" r="1.5"/>
	<circle cx="-68.244" cy="-50.82" r="1.5"/>
	<rect x="-85.244" y="-69.296" width="2" height="11.976"/>
	<polygon points="-75.244,-51.355 -75.244,-53.296 -75.244,-65.296 -77.244,-65.296 -77.244,-53.296 -77.244,-51.355 
		-77.244,-51.32 -75.244,-51.32 	"/>
	<polygon points="-67.244,-55.543 -67.244,-57.296 -67.244,-69.296 -69.244,-69.296 -69.244,-57.296 -69.244,-55.543 
		-69.244,-55.32 -67.244,-55.32 	"/>
</g>
<g>
	<rect x="-208.847" y="25.046" width="56" height="2"/>
	<rect x="-204.847" y="31.046" width="50" height="2"/>
	<rect x="-198.847" y="37.046" width="36" height="2"/>
	<rect x="-206.847" y="19.046" width="52" height="2"/>
	<path d="M-194.973,11.041c0.175,0,0.347,0.014,0.519,0.025l0.149,0.01l1.316,0.088l0.598-1.176
		c2.493-4.899,7.443-7.942,12.92-7.942c6.79,0,12.75,4.814,14.171,11.448l0.318,1.482l1.514,0.095
		c1.207,0.075,2.335,0.425,3.336,0.975h3.286c-1.678-1.703-3.957-2.813-6.498-2.971c-1.596-7.445-8.207-13.029-16.127-13.029
		c-6.423,0-11.977,3.678-14.702,9.035c-0.266-0.018-0.53-0.04-0.8-0.04c-4.843,0-9.004,2.874-10.9,7.005h2.251
		C-201.891,13.06-198.666,11.041-194.973,11.041z"/>
</g>
<g>
	<rect x="-87.744" y="-2.469" width="2" height="7.973"/>
	<rect x="-106.744" y="16.445" width="7.973" height="2"/>
	<rect x="-102.071" y="5.179" transform="matrix(0.7071 0.7071 -0.7071 0.7071 -24.3591 71.1656)" width="7.974" height="2"/>
	<rect x="-76.562" y="2.197" transform="matrix(0.7071 0.7071 -0.7071 0.7071 -17.76 55.2416)" width="2" height="7.972"/>
	<rect x="-97.744" y="31.405" width="50" height="2"/>
	<rect x="-93.744" y="37.405" width="44" height="2"/>
	<rect x="-87.744" y="42.405" width="30" height="2"/>
	<rect x="-95.744" y="25.405" width="46" height="2"/>
	<path d="M-94.836,23.405h0.771h1.927h1.012c1.472-1.087,3.283-1.737,5.249-1.737c0.15,0,0.299,0.012,0.447,0.022l0.148,0.01
		l1.314,0.085l0.597-1.175c2.225-4.372,6.644-7.089,11.532-7.089c5.945,0,11.168,4.139,12.563,9.884h2.043v-0.084
		c-1.444-6.742-7.433-11.8-14.605-11.8c-2.185,0-4.258,0.47-6.126,1.313c-1.667-3.202-5.007-5.394-8.866-5.394
		c-5.522,0-10,4.477-10,9.999C-96.83,19.682-96.082,21.74-94.836,23.405z M-86.83,9.441c3.091,0,5.76,1.773,7.091,4.345
		c-2.298,1.44-4.178,3.488-5.413,5.918c-0.241-0.016-0.48-0.036-0.725-0.036c-2.764,0-5.274,1.045-7.189,2.745
		c-1.097-1.366-1.764-3.089-1.764-4.973C-94.83,13.03-91.241,9.441-86.83,9.441z"/>
</g>
<g>
	<rect x="1" y="27.968" width="50" height="2"/>
	<rect x="5" y="33.968" width="44" height="2"/>
	<rect x="11" y="38.968" width="30" height="2"/>
	<rect x="3" y="21.968" width="46" height="2"/>
	<path d="M4.643,19.968H4.68h1.884h1.055c1.472-1.087,3.283-1.737,5.249-1.737c0.15,0,0.299,0.012,0.447,0.022l0.148,0.01
		l1.314,0.085l0.597-1.175c2.225-4.372,6.644-7.089,11.532-7.089c5.945,0,11.168,4.139,12.563,9.884h2.043v-0.084
		c-1.444-6.742-7.433-11.8-14.605-11.8c-1.799,0-3.521,0.32-5.117,0.903C20.844,3.876,16.387,0,11,0
		c-0.413,0-0.819,0.027-1.222,0.071c0.744,1.112,1.179,2.448,1.179,3.886c0,3.865-3.134,7-7,7c-1.438,0-2.773-0.435-3.886-1.179
		C0.027,10.18,0,10.587,0,11C0,14.704,1.836,17.975,4.643,19.968z M3.957,12.957c4.963,0,9-4.037,9-9c0-0.603-0.06-1.198-0.177-1.78
		c3.735,0.753,6.633,3.828,7.134,7.647c-2.712,1.443-4.927,3.699-6.322,6.442c-0.241-0.016-0.48-0.036-0.725-0.036
		c-2.534,0-4.855,0.879-6.701,2.335c-2.02-1.293-3.5-3.356-3.989-5.785C2.759,12.897,3.354,12.957,3.957,12.957z"/>
</g>
<g>
	<path d="M132.892,30.981h-19.474l-0.578-0.003c-5.485-0.027-9.948-4.513-9.948-9.998c0-5.514,4.485-10,9.999-10
		c0.175,0,0.347,0.014,0.519,0.025l0.149,0.01l1.316,0.088l0.598-1.176c2.493-4.899,7.443-7.942,12.92-7.942
		c6.79,0,12.75,4.814,14.171,11.448l0.318,1.482l1.514,0.095c1.822,0.113,3.463,0.845,4.746,1.971h2.732
		c-1.707-2.262-4.348-3.78-7.354-3.967c-1.596-7.445-8.207-13.029-16.127-13.029c-6.423,0-11.977,3.678-14.702,9.035
		c-0.266-0.018-0.53-0.04-0.8-0.04c-6.627,0-11.999,5.372-11.999,12c0,6.607,5.34,11.965,11.938,11.998v0.003h20.062
		c2.205,0,4,1.794,4,4s-1.795,4-4,4v2c3.314,0,6-2.686,6-6C138.892,33.668,136.206,30.981,132.892,30.981z"/>
	<path d="M136.892,26.981h-15.988v2h15.988c3.314,0,6-2.687,6-6c0-3.314-2.686-6-6-6v2c2.205,0,4,1.794,4,4
		S139.097,26.981,136.892,26.981z"/>
	<path d="M149.892,20.981c1.654,0,3,1.346,3,3s-1.346,3-3,3c-0.043,0-0.083-0.011-0.126-0.013h-4.862
		c0.003,0.005,0.009,0.008,0.012,0.013h-0.023v2h5.5v-0.051c2.523-0.254,4.5-2.358,4.5-4.949c0-2.762-2.238-5-5-5V20.981z"/>
	<path d="M153.892,30.981h-13v2h9.022c-0.004,0.005-0.008,0.008-0.011,0.013h3.862c0.043-0.002,0.083-0.013,0.126-0.013
		c1.654,0,3,1.346,3,3s-1.346,3-3,3v2c2.762,0,5-2.238,5-5S156.653,30.981,153.892,30.981z"/>
	<rect x="114.892" y="26.981" width="4" height="2"/>
</g>
<path d="M-74.67-368.122c6.95,1.305,12.226,7.419,12.226,14.742c0,8.272-6.729,15.002-15,15.002c-6.79,0-12.531-4.49-14.366-10.728
	c1.398,0.461,2.867,0.698,4.366,0.698c7.72,0,14-6.281,14-14.001C-73.444-364.393-73.868-366.337-74.67-368.122 M-77.444-370.379
	c-0.338,0-0.668,0.031-1,0.051c1.861,2.113,3,4.881,3,7.92c0,6.627-5.372,12.001-12,12.001c-2.599,0-4.998-0.835-6.963-2.239
	c0.387,9.047,7.821,16.269,16.963,16.269c9.39,0,17-7.612,17-17.002S-68.055-370.379-77.444-370.379L-77.444-370.379z"/>
<g>
	<path d="M-180.84-365.384c-7.18,0-13,5.819-13,12.999c0,7.181,5.82,13.002,13,13.002s13-5.821,13-13.002
		C-167.84-359.564-173.66-365.384-180.84-365.384z M-180.84-341.383c-6.065,0-11-4.936-11-11.002c0-6.064,4.935-10.999,11-10.999
		s11,4.935,11,10.999C-169.84-346.318-174.774-341.383-180.84-341.383z"/>
	<rect x="-181.847" y="-378.378" width="2" height="10"/>
	<rect x="-181.847" y="-336.378" width="2" height="10"/>
	<rect x="-206.84" y="-353.378" width="9.993" height="2"/>
	<rect x="-164.847" y="-353.378" width="10.007" height="2"/>
	<rect x="-167.147" y="-372.292" transform="matrix(0.7071 0.7071 -0.7071 0.7071 -308.2333 9.9662)" width="2" height="10.409"/>
	
		<rect x="-196.556" y="-342.883" transform="matrix(-0.7071 -0.7071 0.7071 -0.7071 -95.0598 -714.7315)" width="2" height="10.41"/>
	<rect x="-200.756" y="-368.082" transform="matrix(0.7071 0.7071 -0.7071 0.7071 -316.8422 30.7596)" width="10.409" height="2"/>
	<rect x="-171.347" y="-338.673" transform="matrix(-0.7072 -0.7071 0.7071 -0.7072 -44.8756 -693.933)" width="10.41" height="2"/>
</g>
<g>
	<rect x="217.326" y="-7.517" width="2" height="7.973"/>
	<rect x="198.354" y="11.47" width="7.973" height="2"/>
	<rect x="203.079" y="0.251" transform="matrix(0.7071 0.7071 -0.7071 0.7071 61.5329 -146.0517)" width="7.974" height="2"/>
	<rect x="228.588" y="-2.731" transform="matrix(0.7071 0.7071 -0.7071 0.7071 68.1321 -161.9756)" width="2" height="7.972"/>
	<path d="M232.354,34.483l0.005-0.007h-12.536l-0.594-0.003c-4.864-0.024-8.822-4.001-8.822-8.865c0-4.89,3.978-8.868,8.867-8.868
		c0.15,0,0.299,0.012,0.447,0.021l0.148,0.011l1.314,0.085l0.597-1.174c2.225-4.373,6.644-7.09,11.532-7.09
		c5.916,0,11.114,4.099,12.54,9.8h2.065c-1.444-6.742-7.433-11.8-14.605-11.8c-2.185,0-4.258,0.47-6.126,1.313
		c-1.667-3.202-5.007-5.394-8.866-5.394c-5.522,0-10,4.477-10,9.999c0,2.46,0.899,4.702,2.373,6.442
		c-1.429,1.84-2.287,4.144-2.287,6.653c0,5.983,4.836,10.836,10.813,10.865v0.003h13.135v0.007c2.205,0,4,1.794,4,4s-1.795,4-4,4v2
		c3.314,0,6-2.686,6-6C238.354,37.17,235.668,34.483,232.354,34.483z M218.32,4.514c3.091,0,5.76,1.773,7.091,4.345
		c-2.298,1.439-4.178,3.488-5.413,5.918c-0.241-0.016-0.48-0.036-0.725-0.036c-2.766,0-5.282,1.042-7.2,2.743
		c-1.092-1.367-1.753-3.09-1.753-4.971C210.32,8.103,213.909,4.514,218.32,4.514z"/>
	<path d="M236.354,30.483h-9.988v2h9.988c3.314,0,6-2.687,6-6c0-3.314-2.686-6-6-6v2c2.205,0,4,1.794,4,4
		S238.559,30.483,236.354,30.483z"/>
	<path d="M244.377,30.483h-0.023v2h5.5v-0.051c2.523-0.254,4.5-2.358,4.5-4.949c0-2.762-2.238-5-5-5v2c1.654,0,3,1.346,3,3
		s-1.346,3-3,3c-0.043,0-0.083-0.011-0.126-0.013h-4.862C244.368,30.476,244.374,30.479,244.377,30.483z"/>
	<path d="M253.354,34.483h-13v2h9.022c-0.004,0.004-0.008,0.008-0.011,0.013h3.862c0.043-0.002,0.083-0.013,0.126-0.013
		c1.654,0,3,1.346,3,3s-1.346,3-3,3v2c2.762,0,5-2.238,5-5S256.115,34.483,253.354,34.483z"/>
	<rect x="220.354" y="30.483" width="4" height="2"/>
</g>
<g>
	<path d="M332.315,32.478l0.005-0.007h-12.536l-0.594-0.003c-4.864-0.024-8.822-4.001-8.822-8.865c0-4.89,3.978-8.868,8.867-8.868
		c0.15,0,0.299,0.012,0.447,0.021l0.148,0.011l1.314,0.085l0.597-1.174c2.225-4.373,6.644-7.09,11.532-7.09
		c5.916,0,11.114,4.099,12.54,9.8h2.065c-1.444-6.742-7.433-11.8-14.605-11.8c-1.806,0-3.536,0.322-5.138,0.91
		c-0.938-5.123-5.4-9.01-10.794-9.01c-0.413,0-0.819,0.027-1.222,0.071c0.744,1.112,1.179,2.448,1.179,3.886c0,3.865-3.134,7-7,7
		c-1.438,0-2.773-0.435-3.886-1.179c-0.044,0.401-0.071,0.809-0.071,1.222c0,3.725,1.858,7.009,4.69,8.998
		c-1.655,1.907-2.665,4.392-2.665,7.116c0,5.983,4.836,10.836,10.813,10.865v0.003h13.135v0.007c2.205,0,4,1.794,4,4s-1.795,4-4,4v2
		c3.314,0,6-2.686,6-6C338.315,35.164,335.63,32.478,332.315,32.478z M308.52,9.269c0.582,0.117,1.178,0.177,1.78,0.177
		c4.963,0,9-4.037,9-9c0-0.603-0.06-1.198-0.177-1.78c3.744,0.755,6.646,3.842,7.138,7.674c-2.702,1.444-4.909,3.696-6.301,6.432
		c-0.241-0.016-0.48-0.036-0.725-0.036c-2.535,0-4.861,0.875-6.71,2.33C310.497,13.772,309.011,11.704,308.52,9.269z"/>
	<path d="M336.315,28.478h-9.988v2h9.988c3.314,0,6-2.687,6-6c0-3.314-2.686-6-6-6v2c2.205,0,4,1.794,4,4
		S338.521,28.478,336.315,28.478z"/>
	<path d="M344.339,28.478h-0.023v2h5.5v-0.051c2.523-0.254,4.5-2.358,4.5-4.949c0-2.762-2.238-5-5-5v2c1.654,0,3,1.346,3,3
		s-1.346,3-3,3c-0.043,0-0.083-0.011-0.126-0.013h-4.862C344.33,28.47,344.336,28.474,344.339,28.478z"/>
	<path d="M353.315,32.478h-13v2h9.022c-0.004,0.004-0.008,0.008-0.011,0.013h3.862c0.043-0.002,0.083-0.013,0.126-0.013
		c1.654,0,3,1.346,3,3s-1.346,3-3,3v2c2.762,0,5-2.238,5-5S356.077,32.478,353.315,32.478z"/>
	<rect x="320.315" y="28.478" width="4" height="2"/>
</g>
<g>
	<rect x="433.208" y="-4.954" width="2" height="10"/>
	<rect x="408.215" y="20.046" width="9.993" height="2"/>
	<rect x="447.908" y="1.132" transform="matrix(0.7071 0.7071 -0.7071 0.7071 135.9626 -315.5698)" width="2" height="10.409"/>
	<rect x="414.299" y="5.341" transform="matrix(0.7071 0.7071 -0.7071 0.7071 127.3537 -294.7764)" width="10.409" height="2"/>
	<path d="M438.208,35.046h-24v2h24c2.205,0,4,1.794,4,4s-1.795,4-4,4v2c3.314,0,6-2.686,6-6
		C444.208,37.732,441.522,35.046,438.208,35.046z"/>
	<path d="M450.231,31.046h-0.023v2h5.5v-0.051c2.523-0.254,4.5-2.358,4.5-4.949c0-2.762-2.238-5-5-5v2c1.654,0,3,1.346,3,3
		s-1.346,3-3,3c-0.043,0-0.083-0.011-0.126-0.013h-4.862C450.223,31.038,450.229,31.042,450.231,31.046z"/>
	<path d="M459.208,35.046h-13v2h9.022c-0.004,0.004-0.008,0.008-0.011,0.013h3.862c0.043-0.002,0.083-0.013,0.126-0.013
		c1.654,0,3,1.346,3,3s-1.346,3-3,3v2c2.762,0,5-2.238,5-5S461.97,35.046,459.208,35.046z"/>
	<path d="M425.917,31.046h-11.709v2h12.012h0.822h15.166c3.314,0,6-2.687,6-6c0-3.314-2.686-6-6-6v2c2.205,0,4,1.794,4,4
		s-1.795,4-4,4H429.67c-3.802-1.734-6.455-5.563-6.455-10.007c0-6.064,4.935-10.999,11-10.999c5.384,0,9.868,3.891,10.81,9.006
		h2.021c-0.961-6.23-6.331-11.006-12.831-11.006c-7.18,0-13,5.819-13,12.999C421.215,25.064,423.045,28.661,425.917,31.046z"/>
</g>
<g>
	<path d="M538.435,28.489h-24v2h24c2.205,0,4,1.794,4,4s-1.795,4-4,4v2c3.314,0,6-2.686,6-6
		C544.435,31.176,541.749,28.489,538.435,28.489z"/>
	<path d="M555.935,26.489v-0.051c2.523-0.254,4.5-2.358,4.5-4.949c0-2.762-2.238-5-5-5v2c1.654,0,3,1.346,3,3s-1.346,3-3,3
		c-0.043,0-0.083-0.011-0.126-0.013h-4.862c0.004,0.005,0.009,0.009,0.012,0.013h-0.023v2H555.935z"/>
	<path d="M559.435,28.489h-13v2h9.022c-0.003,0.004-0.007,0.008-0.011,0.013h3.862c0.043-0.002,0.083-0.013,0.126-0.013
		c1.654,0,3,1.346,3,3s-1.346,3-3,3v2c2.762,0,5-2.238,5-5S562.196,28.489,559.435,28.489z"/>
	<path d="M527.269,26.489h15.166c3.314,0,6-2.687,6-6c0-3.314-2.686-6-6-6v2c2.205,0,4,1.794,4,4s-1.795,4-4,4h-12.586
		c-2.596-1.188-4.658-3.339-5.69-6.034c0.849,0.204,1.724,0.309,2.612,0.309c6.168,0,11.187-5.019,11.187-11.188
		c0-1.276-0.22-2.532-0.64-3.717c4.046,1.102,7.168,4.459,7.937,8.63h2.018c-0.964-6.237-6.338-11.016-12.846-11.016
		c-0.259,0-0.511,0.024-0.766,0.039c1.425,1.618,2.297,3.737,2.297,6.063c0,5.072-4.112,9.188-9.187,9.188
		c-1.988,0-3.826-0.641-5.33-1.715c0.162,3.801,1.962,7.165,4.699,9.44h-11.705v2h12.012H527.269z"/>
</g>
<g>
	<path d="M-181.347,113.683h-20c-1.103,0-2-0.897-2-2s0.897-2,2-2h3.445h0.555v-2h-4c-2.209,0-4,1.791-4,4s1.791,4,4,4h20
		c2.205,0,4,1.794,4,4s-1.795,4-4,4v2c3.314,0,6-2.686,6-6C-175.347,116.369-178.032,113.683-181.347,113.683z"/>
	<path d="M-179.347,97.683v2c2.205,0,4,1.794,4,4s-1.795,4-4,4h-15.988v2h15.988c3.314,0,6-2.687,6-6
		C-173.347,100.368-176.032,97.683-179.347,97.683z"/>
	<path d="M-173.347,109.683v2h5.5v-0.051c2.523-0.254,4.5-2.358,4.5-4.949c0-2.762-2.238-5-5-5v2c1.654,0,3,1.346,3,3s-1.346,3-3,3
		c-0.043,0-0.083-0.011-0.126-0.013h-4.862c0.003,0.005,0.009,0.009,0.012,0.013H-173.347z"/>
	<path d="M-162.347,113.683h-11v2h7.022c-0.004,0.004-0.008,0.008-0.011,0.013h3.862c0.043-0.002,0.083-0.013,0.126-0.013
		c1.654,0,3,1.346,3,3s-1.346,3-3,3v2c2.762,0,5-2.238,5-5S-159.585,113.683-162.347,113.683z"/>
</g>
<path d="M354.945,100.029v-0.038h-38.376c-1.103,0-2-0.897-2-2s0.897-2,2-2h33c2.762,0,5-2.238,5-5s-2.238-5-5-5h-37.875v0.008
	c-0.042-0.001-0.083-0.008-0.125-0.008c-2.762,0-5,2.238-5,5s2.238,5,5,5v-2c-1.654,0-3-1.346-3-3s1.346-3,3-3h0.125h3.853h34.022
	c1.654,0,3,1.346,3,3s-1.346,3-3,3h-33c-2.209,0-4,1.791-4,4s1.791,4,4,4h38c1.103,0,2,0.897,2,2s-0.897,2-2,2h-32
	c-2.209,0-4,1.791-4,4s1.791,4,4,4h22c1.103,0,2,0.897,2,2s-0.897,2-2,2h-24.01v0.001c-2.204,0.006-3.99,1.793-3.99,3.999
	s1.786,3.993,3.99,3.999v0.001h12.01c1.103,0,2,0.897,2,2s-0.897,2-2,2h-2c-2.209,0-4,1.791-4,4s1.791,4,4,4v-2
	c-1.103,0-2-0.897-2-2s0.897-2,2-2h2c2.209,0,4-1.791,4-4s-1.791-4-4-4h-12c-1.103,0-2-0.897-2-2s0.897-2,2-2h24
	c2.209,0,4-1.791,4-4c0-2.152-1.704-3.895-3.834-3.983v-0.017h-22.166c-1.103,0-2-0.897-2-2s0.897-2,2-2h32c2.209,0,4-1.791,4-4
	C358.569,101.911,356.976,100.222,354.945,100.029z"/>
<path d="M540.36,90.707v-2.024h-2v2.024c-13.01,0.513-23.462,10.965-23.975,23.976h1.674c1.14-1.222,2.748-2,4.551-2
	c2.26,0,4.233,1.203,5.331,3h1.838c1.098-1.797,3.071-3,5.331-3c2.204,0,4.137,1.144,5.25,2.866v15.134c0,2.21,1.791,4,4,4
	s4-1.79,4-4h-2c0,1.103-0.897,2-2,2s-2-0.897-2-2v-15.134c1.113-1.723,3.046-2.866,5.25-2.866c2.26,0,4.233,1.203,5.331,3h1.838
	c1.098-1.797,3.071-3,5.331-3c1.803,0,3.411,0.778,4.551,2h1.674C563.822,101.672,553.37,91.22,540.36,90.707z M558.11,110.683
	c-2.496,0-4.736,1.114-6.25,2.87c-1.514-1.756-3.754-2.87-6.25-2.87s-4.736,1.114-6.25,2.87c-1.514-1.756-3.754-2.87-6.25-2.87
	s-4.736,1.114-6.25,2.87c-1.514-1.756-3.755-2.87-6.25-2.87c-1.402,0-2.731,0.351-3.897,0.975
	c1.909-10.769,11.339-18.975,22.647-18.975s20.738,8.206,22.647,18.975C560.842,111.033,559.513,110.683,558.11,110.683z"/>
<g>
	<path d="M135.065,214.995V197.89c0-2.762-2.238-5-5-5s-5,2.238-5,5v17.105c-1.236,1.263-2,2.988-2,4.895c0,3.866,3.134,7,7,7
		s7-3.134,7-7C137.065,217.983,136.302,216.258,135.065,214.995z M130.065,224.89c-2.757,0-5-2.243-5-5
		c0-1.313,0.508-2.554,1.429-3.495l0.571-0.583v-0.816V197.89c0-1.654,1.346-3,3-3s3,1.346,3,3v17.105v0.816l0.571,0.583
		c0.921,0.941,1.429,2.183,1.429,3.495C135.065,222.646,132.822,224.89,130.065,224.89z"/>
	<path d="M131.065,217.065V201.89h-2v15.176c-1.167,0.413-2.008,1.516-2.008,2.824c0,1.662,1.347,3.008,3.008,3.008
		c1.662,0,3.008-1.346,3.008-3.008C133.073,218.581,132.233,217.479,131.065,217.065z M130.065,220.897
		c-0.556,0-1.008-0.452-1.008-1.008s0.452-1.008,1.008-1.008s1.008,0.452,1.008,1.008S130.621,220.897,130.065,220.897z"/>
</g>
<g>
	<path d="M234.854,214.995V197.89c0-2.762-2.238-5-5-5s-5,2.238-5,5v17.105c-1.236,1.263-2,2.988-2,4.895c0,3.866,3.134,7,7,7
		s7-3.134,7-7C236.854,217.983,236.09,216.258,234.854,214.995z M229.854,224.89c-2.757,0-5-2.243-5-5
		c0-1.313,0.508-2.554,1.429-3.495l0.571-0.583v-0.816V197.89c0-1.654,1.346-3,3-3s3,1.346,3,3v17.105v0.816l0.571,0.583
		c0.921,0.941,1.429,2.183,1.429,3.495C234.854,222.646,232.61,224.89,229.854,224.89z"/>
	<path d="M230.854,217.065V196.89h-2v20.176c-1.167,0.413-2.008,1.516-2.008,2.824c0,1.662,1.347,3.008,3.008,3.008
		c1.662,0,3.008-1.346,3.008-3.008C232.861,218.581,232.021,217.479,230.854,217.065z M229.854,220.897
		c-0.556,0-1.008-0.452-1.008-1.008s0.452-1.008,1.008-1.008s1.008,0.452,1.008,1.008S230.409,220.897,229.854,220.897z"/>
</g>
<g>
	<path d="M31.956,214.995V197.89c0-2.762-2.238-5-5-5s-5,2.238-5,5v17.105c-1.236,1.263-2,2.988-2,4.895c0,3.866,3.134,7,7,7
		s7-3.134,7-7C33.956,217.983,33.192,216.258,31.956,214.995z M26.956,224.89c-2.757,0-5-2.243-5-5c0-1.313,0.508-2.554,1.429-3.495
		l0.571-0.583v-0.816V197.89c0-1.654,1.346-3,3-3s3,1.346,3,3v17.105v0.816l0.571,0.583c0.921,0.941,1.429,2.183,1.429,3.495
		C31.956,222.646,29.713,224.89,26.956,224.89z"/>
	<path d="M27.956,217.065V206.89h-2v10.176c-1.167,0.413-2.008,1.516-2.008,2.824c0,1.662,1.347,3.008,3.008,3.008
		c1.662,0,3.008-1.346,3.008-3.008C29.964,218.581,29.124,217.479,27.956,217.065z M26.956,220.897
		c-0.556,0-1.008-0.452-1.008-1.008s0.452-1.008,1.008-1.008s1.008,0.452,1.008,1.008S27.512,220.897,26.956,220.897z"/>
</g>
<g>
	<path d="M-71.689,214.995V197.89c0-2.762-2.238-5-5-5s-5,2.238-5,5v17.105c-1.236,1.263-2,2.988-2,4.895c0,3.866,3.134,7,7,7
		s7-3.134,7-7C-69.689,217.983-70.453,216.258-71.689,214.995z M-76.689,224.89c-2.757,0-5-2.243-5-5
		c0-1.313,0.508-2.554,1.429-3.495l0.571-0.583v-0.816V197.89c0-1.654,1.346-3,3-3s3,1.346,3,3v17.105v0.816l0.571,0.583
		c0.921,0.941,1.429,2.183,1.429,3.495C-71.689,222.646-73.933,224.89-76.689,224.89z"/>
	<path d="M-75.689,217.065v-5.176h-2v5.176c-1.167,0.413-2.008,1.516-2.008,2.824c0,1.662,1.347,3.008,3.008,3.008
		c1.662,0,3.008-1.346,3.008-3.008C-73.682,218.581-74.521,217.479-75.689,217.065z M-76.689,220.897
		c-0.556,0-1.008-0.452-1.008-1.008s0.452-1.008,1.008-1.008s1.008,0.452,1.008,1.008S-76.134,220.897-76.689,220.897z"/>
</g>
<g>
	<path d="M-176.347,214.995V197.89c0-2.762-2.238-5-5-5s-5,2.238-5,5v17.105c-1.236,1.263-2,2.988-2,4.895c0,3.866,3.134,7,7,7
		s7-3.134,7-7C-174.347,217.983-175.11,216.258-176.347,214.995z M-181.347,224.89c-2.757,0-5-2.243-5-5
		c0-1.313,0.508-2.554,1.429-3.495l0.571-0.583v-0.816V197.89c0-1.654,1.346-3,3-3s3,1.346,3,3v17.105v0.816l0.571,0.583
		c0.921,0.941,1.429,2.183,1.429,3.495C-176.347,222.646-178.59,224.89-181.347,224.89z"/>
	<path d="M-181.347,216.882c-1.661,0-3.008,1.347-3.008,3.008c0,1.662,1.347,3.008,3.008,3.008c1.662,0,3.008-1.346,3.008-3.008
		C-178.339,218.229-179.685,216.882-181.347,216.882z M-181.347,220.897c-0.556,0-1.008-0.452-1.008-1.008s0.452-1.008,1.008-1.008
		s1.008,0.452,1.008,1.008S-180.791,220.897-181.347,220.897z"/>
</g>
<g>
	<path d="M323.578,195.202c-2.209,0-4,1.791-4,4c0,2.21,1.791,4,4,4c2.211,0,4-1.79,4-4
		C327.578,196.993,325.789,195.202,323.578,195.202z M323.578,201.202c-1.103,0-2-0.897-2-2s0.897-2,2-2s2,0.897,2,2
		S324.681,201.202,323.578,201.202z"/>
	<path d="M337.578,223.202c-4.41,0-7.999-3.589-7.999-7.999v-4.002c0-4.41,3.589-7.999,7.999-7.999c2.715,0,5.115,1.362,6.563,3.437
		l1.43-1.43c-1.824-2.429-4.72-4.007-7.992-4.007c-5.522,0-9.999,4.478-9.999,9.999v4.002c0,5.521,4.477,9.999,9.999,9.999
		c3.272,0,6.168-1.579,7.992-4.008l-1.43-1.43C342.694,221.839,340.294,223.202,337.578,223.202z"/>
</g>
<g>
	<path d="M428.274,195.081c-2.209,0-4,1.791-4,4c0,2.21,1.791,4,4,4c2.211,0,4-1.79,4-4
		C432.274,196.872,430.485,195.081,428.274,195.081z M428.274,201.081c-1.103,0-2-0.897-2-2s0.897-2,2-2s2,0.897,2,2
		S429.377,201.081,428.274,201.081z"/>
	<polygon points="448.149,203.202 448.149,201.202 436.149,201.202 434.149,201.202 434.149,225.202 436.149,225.202 
		436.149,213.202 444.149,213.202 444.149,211.202 436.149,211.202 436.149,203.202 	"/>
</g>
<g>
	<path d="M539.36,198.894c-7.179,0-13,5.82-13,13s5.821,13,13,13s13-5.82,13-13S546.539,198.894,539.36,198.894z M539.36,222.894
		c-6.065,0-11-4.935-11-11s4.935-11,11-11s11,4.935,11,11S545.426,222.894,539.36,222.894z"/>
	<path d="M535.094,216.136l6.363-2.121l2.121-6.364l-6.363,2.122L535.094,216.136z M538.796,211.354l1.62-0.54l-0.54,1.62
		l-1.62,0.54L538.796,211.354z"/>
</g>
<g>
	<path d="M-181.347,289.411c-7.179,0-13,5.82-13,13s5.821,13,13,13s13-5.82,13-13S-174.168,289.411-181.347,289.411z
		 M-181.347,313.411c-6.065,0-11-4.934-11-11c0-6.064,4.935-11,11-11s11,4.936,11,11
		C-170.347,308.478-175.281,313.411-181.347,313.411z"/>
	<path d="M-178.785,300.833l-2.586-4.422l-2.529,4.33h0.007c-0.299,0.467-0.478,1.018-0.478,1.613c0,1.656,1.343,3,3,3s3-1.344,3-3
		c0-0.559-0.162-1.074-0.428-1.521H-178.785z M-181.371,303.354c-0.552,0-1-0.449-1-1c0-0.188,0.055-0.367,0.162-0.535l0.864-1.355
		l0.826,1.391c0.098,0.164,0.147,0.332,0.147,0.5C-180.371,302.905-180.819,303.354-181.371,303.354z"/>
</g>
<g>
	<path d="M-76.563,289.411c-7.18,0-13,5.82-13,13s5.82,13,13,13s13-5.82,13-13S-69.383,289.411-76.563,289.411z M-76.563,313.411
		c-6.065,0-11-4.934-11-11c0-6.064,4.935-11,11-11s11,4.936,11,11C-65.563,308.478-70.497,313.411-76.563,313.411z"/>
	<path d="M-74.974,299.831c-0.467-0.299-1.018-0.477-1.613-0.477c-1.658,0-3,1.342-3,3c0,1.656,1.342,3,3,3
		c0.557,0,1.072-0.162,1.52-0.428v0.014l4.422-2.586l-4.328-2.529V299.831z M-76.089,303.206c-0.164,0.098-0.332,0.148-0.498,0.148
		c-0.552,0-1-0.449-1-1c0-0.553,0.448-1,1-1c0.188,0,0.368,0.053,0.535,0.16l1.355,0.865L-76.089,303.206z"/>
</g>
<g>
	<path d="M26.488,289.411c-7.18,0-13,5.82-13,13s5.82,13,13,13s13-5.82,13-13S33.668,289.411,26.488,289.411z M26.488,313.411
		c-6.065,0-11-4.934-11-11c0-6.064,4.935-11,11-11s11,4.936,11,11C37.488,308.478,32.554,313.411,26.488,313.411z"/>
	<path d="M26.488,299.354c-1.656,0-3,1.342-3,3c0,0.557,0.162,1.072,0.428,1.52h-0.014l2.586,4.422l2.529-4.328h-0.006
		c0.299-0.467,0.477-1.018,0.477-1.613C29.488,300.696,28.146,299.354,26.488,299.354z M27.327,302.89l-0.865,1.355l-0.826-1.393
		c-0.098-0.164-0.147-0.332-0.147-0.498c0-0.553,0.448-1,1-1s1,0.447,1,1C27.488,302.542,27.435,302.722,27.327,302.89z"/>
</g>
<g>
	<path d="M129.902,289.411c-7.179,0-13,5.82-13,13s5.821,13,13,13s13-5.82,13-13S137.081,289.411,129.902,289.411z M129.902,313.411
		c-6.065,0-11-4.934-11-11c0-6.064,4.935-11,11-11s11,4.936,11,11C140.902,308.478,135.968,313.411,129.902,313.411z"/>
	<path d="M129.861,299.354c-0.557,0-1.072,0.162-1.52,0.428v-0.014l-4.422,2.586l4.328,2.529v-0.006
		c0.467,0.299,1.018,0.477,1.613,0.477c1.658,0,3-1.342,3-3C132.861,300.698,131.52,299.354,129.861,299.354z M129.861,303.354
		c-0.188,0-0.368-0.055-0.535-0.162l-1.355-0.865l1.393-0.826c0.164-0.098,0.332-0.146,0.498-0.146c0.552,0,1,0.447,1,1
		C130.861,302.905,130.413,303.354,129.861,303.354z"/>
</g>
<g>
	<rect x="-78.249" y="92.683" width="2" height="10"/>
	<rect x="-63.549" y="98.769" transform="matrix(0.7071 0.7071 -0.7071 0.7071 55.1998 74.6821)" width="2" height="10.409"/>
	<rect x="-97.158" y="102.978" transform="matrix(0.7071 0.7071 -0.7071 0.7071 46.591 95.4755)" width="10.409" height="2"/>
	<polygon points="-83.917,121.937 -82.503,123.351 -78.249,119.097 -78.249,128.683 -76.249,128.683 -76.249,119.097 
		-71.996,123.351 -70.582,121.937 -77.249,115.269 	"/>
	<path d="M-64.242,118.682c0-0.002,0-0.004,0-0.006c0-7.18-5.82-12.999-13-12.999s-13,5.819-13,12.999c0,0.002,0,0.004,0,0.006h-13
		v2h18v-2h-3c0-0.002,0-0.004,0-0.006c0-6.064,4.935-10.999,11-10.999s11,4.935,11,10.999c0,0.002,0,0.004,0,0.006h-3v2h17.995v-2
		H-64.242z"/>
</g>
<g>
	<rect x="25.496" y="91.495" width="2" height="10"/>
	<rect x="40.196" y="97.581" transform="matrix(0.7071 0.7071 -0.7071 0.7071 84.7464 0.9754)" width="2" height="10.409"/>
	<rect x="6.587" y="101.791" transform="matrix(0.7071 0.7071 -0.7071 0.7071 76.1375 21.7688)" width="10.409" height="2"/>
	<polygon points="27.496,126.042 27.496,115.495 25.496,115.495 25.496,126.042 21.242,121.788 19.828,123.202 26.496,129.87 
		33.163,123.202 31.749,121.788 	"/>
	<path d="M39.503,117.494c0-0.002,0-0.004,0-0.006c0-7.18-5.82-12.999-13-12.999s-13,5.819-13,12.999c0,0.002,0,0.004,0,0.006h-13v2
		h22v-2h-7c0-0.002,0-0.004,0-0.006c0-6.064,4.935-10.999,11-10.999s11,4.935,11,10.999c0,0.002,0,0.004,0,0.006h-7v2h21.995v-2
		H39.503z"/>
</g>
<g>
	<polygon points="229.854,125.508 229.854,111.125 227.854,111.125 227.854,125.508 223.6,121.254 222.186,122.668 228.854,129.336 
		235.521,122.668 234.106,121.254 	"/>
	<path d="M245.481,106.154c-1.596-7.445-8.207-13.029-16.127-13.029c-6.423,0-11.977,3.678-14.702,9.035
		c-0.266-0.018-0.53-0.04-0.8-0.04c-6.627,0-11.999,5.372-11.999,12c0,6.607,5.34,11.965,11.938,11.998v0.003h6.062v-2h-5.604
		l-0.447-0.003c-5.485-0.027-9.948-4.513-9.948-9.998c0-5.514,4.485-10,9.999-10c0.175,0,0.347,0.014,0.52,0.025l0.148,0.01
		l1.316,0.088l0.598-1.176c2.492-4.899,7.443-7.942,12.92-7.942c6.79,0,12.75,4.814,14.172,11.448l0.317,1.482l1.514,0.095
		c4.203,0.262,7.496,3.763,7.496,7.971c0,4.397-3.565,7.977-7.957,8c-0.05-0.003-0.093-0.005-0.137-0.007l-2.043,0.007h-4.863v2
		h6.863v-0.007c0.046,0.001,0.091,0.007,0.137,0.007c5.521,0,10-4.477,10-10C254.854,110.811,250.709,106.479,245.481,106.154z"/>
</g>
<g>
	<polygon points="135.838,122.313 137.252,120.898 130.585,114.23 123.917,120.898 125.331,122.313 129.585,118.059 
		129.585,130.645 131.585,130.645 131.585,118.059 	"/>
	<path d="M147.213,107.75c-1.596-7.445-8.207-13.029-16.127-13.029c-6.423,0-11.977,3.678-14.702,9.035
		c-0.266-0.018-0.53-0.04-0.8-0.04c-6.627,0-11.999,5.372-11.999,12c0,6.607,5.34,11.965,11.938,11.998v0.003h10.062v-2h-9.604
		l-0.447-0.003c-5.485-0.027-9.948-4.513-9.948-9.998c0-5.514,4.485-10,9.999-10c0.175,0,0.347,0.014,0.52,0.025l0.148,0.01
		l1.316,0.088l0.598-1.176c2.492-4.899,7.443-7.942,12.92-7.942c6.79,0,12.75,4.814,14.172,11.448l0.317,1.482l1.514,0.095
		c4.203,0.262,7.496,3.763,7.496,7.971c0,4.397-3.565,7.977-7.957,8c-0.05-0.003-0.093-0.005-0.137-0.007l-2.043,0.007h-8.863v2
		h10.863v-0.007c0.046,0.001,0.091,0.007,0.137,0.007c5.521,0,10-4.477,10-10C156.585,112.406,152.44,108.075,147.213,107.75z"/>
</g>
<g>
	<path d="M349.702-81.766c-1.596-7.445-8.207-13.029-16.127-13.029c-6.423,0-11.977,3.678-14.702,9.035
		c-0.266-0.018-0.53-0.04-0.8-0.04c-6.627,0-11.999,5.372-11.999,12c0,6.607,5.34,11.965,11.938,11.998v0.003h2.062v-2h-1.604
		l-0.447-0.003c-5.485-0.027-9.948-4.513-9.948-9.998c0-5.514,4.485-10,9.999-10c0.175,0,0.347,0.014,0.52,0.025l0.148,0.01
		l1.316,0.088l0.598-1.176c2.492-4.899,7.443-7.942,12.92-7.942c6.79,0,12.75,4.814,14.172,11.448l0.317,1.482l1.514,0.095
		c4.203,0.262,7.496,3.763,7.496,7.971c0,4.397-3.565,7.977-7.957,8c-0.05-0.003-0.093-0.005-0.137-0.007l-2.043,0.007h-0.863v2
		h2.863v-0.007c0.046,0.001,0.091,0.007,0.137,0.007c5.521,0,10-4.477,10-10C359.074-77.109,354.93-81.44,349.702-81.766z"/>
	<polygon points="328.074,-62.777 328.074,-65.407 330.247,-64.185 330.933,-65.405 328.463,-66.795 330.933,-68.185 
		330.247,-69.405 328.074,-68.183 328.074,-70.777 326.074,-70.777 326.074,-68.139 323.823,-69.405 323.138,-68.185 
		325.607,-66.795 323.138,-65.405 323.823,-64.185 326.074,-65.451 326.074,-62.777 	"/>
	<polygon points="333.236,-58.423 331.063,-57.2 331.063,-59.795 329.063,-59.795 329.063,-57.156 326.813,-58.423 326.127,-57.202 
		328.597,-55.813 326.127,-54.423 326.813,-53.202 329.063,-54.469 329.063,-51.795 331.063,-51.795 331.063,-54.425 
		333.236,-53.202 333.922,-54.423 331.452,-55.813 333.922,-57.202 	"/>
	<polygon points="342.252,-65.405 340.079,-64.183 340.079,-66.777 338.079,-66.777 338.079,-64.139 335.828,-65.405 
		335.143,-64.185 337.612,-62.795 335.143,-61.405 335.828,-60.185 338.079,-61.451 338.079,-58.777 340.079,-58.777 
		340.079,-61.407 342.252,-60.185 342.938,-61.405 340.468,-62.795 342.938,-64.185 	"/>
</g>
<g>
	<rect x="425.214" y="-99.817" width="2" height="7.973"/>
	<rect x="406.214" y="-80.903" width="7.973" height="2"/>
	<rect x="410.887" y="-92.17" transform="matrix(0.7071 0.7071 -0.7071 0.7071 57.0469 -320.0633)" width="7.974" height="2"/>
	<rect x="436.396" y="-95.152" transform="matrix(0.7071 0.7071 -0.7071 0.7071 63.6461 -335.9872)" width="2" height="7.972"/>
	<path d="M455.726-74.027c-1.444-6.742-7.433-11.8-14.605-11.8c-2.185,0-4.258,0.471-6.127,1.314
		c-1.666-3.203-5.006-5.395-8.865-5.395c-5.522,0-10,4.477-10,9.999c0,2.46,0.899,4.702,2.373,6.442
		c-1.428,1.84-2.287,4.144-2.287,6.653c0,5.983,4.836,10.836,10.813,10.865v0.003h1.188v-2h-0.721l-0.457-0.003
		c-4.864-0.023-8.822-4.001-8.822-8.865c0-4.89,3.978-8.868,8.867-8.868c0.15,0,0.299,0.012,0.447,0.022l0.148,0.01l1.314,0.085
		l0.597-1.175c2.225-4.372,6.644-7.089,11.532-7.089c6.062,0,11.382,4.298,12.649,10.219l0.318,1.483l1.514,0.094
		c3.708,0.23,6.612,3.319,6.612,7.03c0,3.878-3.144,7.035-7.017,7.057c-0.042-0.003-0.079-0.005-0.117-0.005l-1.866,0.005v2h1.819
		v-0.006c0.042,0.001,0.082,0.006,0.124,0.006c5.001,0,9.057-4.054,9.057-9.057C464.214-69.811,460.46-73.732,455.726-74.027z
		 M427.806-77.645c-0.241-0.016-0.48-0.036-0.725-0.036c-2.766,0-5.282,1.041-7.2,2.742c-1.092-1.365-1.753-3.089-1.753-4.97
		c0-4.41,3.589-7.999,8-7.999c3.092,0,5.76,1.773,7.091,4.346C430.921-82.122,429.042-80.074,427.806-77.645z"/>
	<polygon points="435.206,-56.925 435.206,-59.555 437.379,-58.332 438.064,-59.553 435.595,-60.942 438.064,-62.332 
		437.379,-63.553 435.206,-62.33 435.206,-64.925 433.206,-64.925 433.206,-62.286 430.955,-63.553 430.27,-62.332 432.739,-60.942 
		430.27,-59.553 430.955,-58.332 433.206,-59.599 433.206,-56.925 	"/>
	<polygon points="440.368,-52.57 438.195,-51.348 438.195,-53.942 436.195,-53.942 436.195,-51.304 433.944,-52.57 433.259,-51.35 
		435.729,-49.96 433.259,-48.57 433.944,-47.35 436.195,-48.616 436.195,-45.942 438.195,-45.942 438.195,-48.572 440.368,-47.35 
		441.054,-48.57 438.584,-49.96 441.054,-51.35 	"/>
	<polygon points="449.384,-59.553 447.211,-58.33 447.211,-60.925 445.211,-60.925 445.211,-58.286 442.96,-59.553 442.274,-58.332 
		444.744,-56.942 442.274,-55.553 442.96,-54.332 445.211,-55.599 445.211,-52.925 447.211,-52.925 447.211,-55.555 
		449.384,-54.332 450.069,-55.553 447.6,-56.942 450.069,-58.332 	"/>
</g>
<g>
	<path d="M555.914-77.03c-1.444-6.742-7.433-11.8-14.605-11.8c-1.799,0-3.522,0.32-5.118,0.904c-0.949-5.108-5.404-8.98-10.788-8.98
		c-0.413,0-0.819,0.027-1.222,0.071c0.744,1.112,1.179,2.448,1.179,3.886c0,3.865-3.134,7-7,7c-1.438,0-2.773-0.435-3.886-1.179
		c-0.044,0.401-0.071,0.809-0.071,1.222c0,3.713,1.845,6.987,4.661,8.979c-1.653,1.907-2.661,4.389-2.661,7.111
		c0,5.983,4.836,10.836,10.813,10.865v0.003h1.188v-2h-0.721l-0.457-0.003c-4.864-0.023-8.822-4.001-8.822-8.865
		c0-4.89,3.978-8.868,8.867-8.868c0.15,0,0.299,0.012,0.447,0.022l0.148,0.01l1.314,0.085l0.597-1.175
		c2.225-4.372,6.644-7.089,11.532-7.089c6.062,0,11.382,4.298,12.649,10.219l0.318,1.483l1.514,0.094
		c3.708,0.23,6.612,3.319,6.612,7.03c0,3.878-3.144,7.035-7.017,7.057c-0.042-0.003-0.079-0.005-0.117-0.005l-1.866,0.005v2h1.819
		v-0.006c0.042,0.001,0.082,0.006,0.124,0.006c5.001,0,9.057-4.054,9.057-9.057C564.402-72.813,560.648-76.735,555.914-77.03z
		 M527.994-80.647c-0.241-0.016-0.48-0.036-0.725-0.036c-2.537,0-4.865,0.877-6.715,2.334c-2.012-1.294-3.486-3.354-3.976-5.776
		c0.582,0.117,1.178,0.177,1.78,0.177c4.963,0,9-4.037,9-9c0-0.603-0.06-1.198-0.177-1.78c3.733,0.753,6.629,3.824,7.134,7.64
		C531.604-85.646,529.389-83.391,527.994-80.647z"/>
	<polygon points="535.439,-59.928 535.439,-62.558 537.612,-61.335 538.298,-62.556 535.828,-63.945 538.298,-65.335 
		537.612,-66.556 535.439,-65.333 535.439,-67.928 533.439,-67.928 533.439,-65.289 531.188,-66.556 530.503,-65.335 
		532.973,-63.945 530.503,-62.556 531.188,-61.335 533.439,-62.602 533.439,-59.928 	"/>
	<polygon points="540.602,-55.573 538.429,-54.351 538.429,-56.945 536.429,-56.945 536.429,-54.307 534.178,-55.573 
		533.492,-54.353 535.962,-52.963 533.492,-51.573 534.178,-50.353 536.429,-51.619 536.429,-48.945 538.429,-48.945 
		538.429,-51.575 540.602,-50.353 541.287,-51.573 538.817,-52.963 541.287,-54.353 	"/>
	<polygon points="549.617,-62.556 547.444,-61.333 547.444,-63.928 545.444,-63.928 545.444,-61.289 543.193,-62.556 
		542.508,-61.335 544.978,-59.945 542.508,-58.556 543.193,-57.335 545.444,-58.602 545.444,-55.928 547.444,-55.928 
		547.444,-58.558 549.617,-57.335 550.303,-58.556 547.833,-59.945 550.303,-61.335 	"/>
</g>
<rect x="-60.444" y="-644.78" fill="none" width="472.974" height="180.918"/>
<text transform="matrix(1 0 0 1 119.1929 -573.3813)"><tspan x="0" y="0" font-family="'HelveticaNeueLTStd-Th'" font-size="100" letter-spacing="2">60</tspan><tspan x="-99.268" y="60" font-family="'HelveticaNeueLTStd-Lt'" font-size="48" letter-spacing="1">Weather Icons</tspan><tspan x="-3.726" y="104" font-family="'HelveticaNeueLTStd-Lt'" font-size="24">IOS 7 Style</tspan></text>
</svg>
