<?xml version="1.0" encoding="utf-8"?>
<!-- Generator: Adobe Illustrator 16.0.0, SVG Export Plug-In . SVG Version: 6.00 Build 0)  -->
<!DOCTYPE svg PUBLIC "-//W3C//DTD SVG 1.1//EN" "http://www.w3.org/Graphics/SVG/1.1/DTD/svg11.dtd">
<svg version="1.1" id="Layer_1" xmlns="http://www.w3.org/2000/svg" xmlns:xlink="http://www.w3.org/1999/xlink" x="0px" y="0px"
	 width="56px" height="39px" viewBox="0 0 56 39" enable-background="new 0 0 56 39" xml:space="preserve">
<path d="M648.871,94.339l-1.803,15.077l-0.268,2.237h2.254h6.896l-14.693,18.759l1.789-14.52l0.277-2.245h-2.262h-6.957
	L648.871,94.339 M651.726,87.314l-21.667,28.333h11.004l-2.671,21.667l21.667-27.661h-11.004L651.726,87.314L651.726,87.314z"/>
<path d="M235.836-367.922c6.79,0,12.749,4.814,14.171,11.448l0.318,1.483l1.514,0.094c4.203,0.262,7.496,3.763,7.496,7.971
	c0,4.396-3.565,7.977-7.957,8c-0.046-0.003-0.091-0.006-0.137-0.007l-2.043-0.036v0.043h-28.337l-0.578-0.003
	c-5.485-0.027-9.948-4.513-9.948-9.998c0-5.514,4.485-10,9.999-10c0.175,0,0.347,0.014,0.519,0.025l0.149,0.011l1.316,0.087
	l0.598-1.176C225.409-364.879,230.359-367.922,235.836-367.922 M235.836-369.922c-6.423,0-11.977,3.678-14.702,9.035
	c-0.266-0.018-0.53-0.04-0.8-0.04c-6.627,0-11.999,5.372-11.999,12c0,6.607,5.34,11.965,11.938,11.998v0.003h30.925v-0.007
	c0.046,0.001,0.091,0.007,0.137,0.007c5.521,0,10-4.477,10-10c0-5.311-4.145-9.642-9.372-9.967
	C250.367-364.338,243.756-369.922,235.836-369.922L235.836-369.922z"/>
<g>
	<path d="M358.787-349.511c-1.444-6.742-7.433-11.8-14.605-11.8c-2.185,0-4.258,0.47-6.127,1.313
		c-1.666-3.202-5.006-5.394-8.865-5.394c-5.522,0-10,4.477-10,9.999c0,2.46,0.898,4.702,2.373,6.442
		c-1.428,1.84-2.287,4.144-2.287,6.653c0,5.983,4.836,10.836,10.813,10.865v0.003h28.007v-0.006
		c0.042,0.001,0.082,0.006,0.124,0.006c5.001,0,9.057-4.054,9.057-9.057C367.275-345.294,363.521-349.216,358.787-349.511z
		 M329.189-363.391c3.092,0,5.76,1.773,7.092,4.345c-2.299,1.44-4.178,3.488-5.414,5.918c-0.241-0.016-0.48-0.036-0.725-0.036
		c-2.766,0-5.281,1.041-7.2,2.743c-1.092-1.366-1.753-3.09-1.753-4.971C321.189-359.802,324.778-363.391,329.189-363.391z
		 M358.259-333.428c-0.038-0.003-0.077-0.004-0.117-0.005l-2.047-0.042v0.047h-25.403l-0.594-0.003
		c-4.864-0.023-8.822-4.001-8.822-8.865c0-4.89,3.978-8.868,8.867-8.868c0.15,0,0.299,0.012,0.447,0.021l0.148,0.011l1.314,0.085
		l0.598-1.174c2.224-4.373,6.643-7.09,11.531-7.09c6.062,0,11.381,4.298,12.65,10.219l0.317,1.482l1.514,0.095
		c3.708,0.231,6.612,3.319,6.612,7.03C365.275-336.606,362.132-333.45,358.259-333.428z"/>
	<rect x="328.195" y="-375.421" width="2" height="7.973"/>
	<rect x="309.223" y="-356.435" width="7.973" height="2"/>
	<rect x="313.948" y="-367.653" transform="matrix(0.7071 0.7071 -0.7071 0.7071 -166.1418 -332.2047)" width="7.974" height="2"/>
	<rect x="339.457" y="-370.635" transform="matrix(0.7071 0.7071 -0.7071 0.7071 -159.5427 -348.1286)" width="2" height="7.972"/>
</g>
<path d="M454.53-353.538c-1.444-6.742-7.433-11.8-14.605-11.8c-1.799,0-3.521,0.32-5.118,0.904c-0.949-5.108-5.404-8.98-10.788-8.98
	c-0.413,0-0.819,0.027-1.222,0.071c0.744,1.112,1.179,2.448,1.179,3.886c0,3.865-3.134,7-7,7c-1.438,0-2.773-0.435-3.886-1.179
	c-0.044,0.401-0.071,0.809-0.071,1.222c0,3.712,1.845,6.987,4.661,8.979c-1.653,1.907-2.661,4.389-2.661,7.111
	c0,5.983,4.836,10.836,10.813,10.865v0.003h28.007v-0.006c0.042,0.001,0.082,0.006,0.124,0.006c5.001,0,9.057-4.054,9.057-9.057
	C463.019-349.321,459.265-353.243,454.53-353.538z M415.195-360.634c0.582,0.117,1.178,0.177,1.78,0.177c4.963,0,9-4.037,9-9
	c0-0.603-0.06-1.198-0.177-1.78c3.733,0.753,6.629,3.824,7.134,7.64c-2.713,1.444-4.928,3.699-6.322,6.442
	c-0.241-0.016-0.48-0.036-0.725-0.036c-2.537,0-4.865,0.876-6.715,2.334C417.159-356.151,415.685-358.211,415.195-360.634z
	 M454.002-337.455c-0.038-0.003-0.077-0.004-0.117-0.005l-2.047-0.042v0.047h-25.403l-0.594-0.003
	c-4.864-0.023-8.822-4.001-8.822-8.865c0-4.89,3.978-8.868,8.867-8.868c0.15,0,0.299,0.012,0.447,0.021l0.148,0.011l1.314,0.085
	l0.598-1.174c2.224-4.373,6.643-7.09,11.531-7.09c6.062,0,11.381,4.298,12.65,10.219l0.317,1.482l1.514,0.095
	c3.708,0.231,6.612,3.319,6.612,7.03C461.019-340.634,457.875-337.478,454.002-337.455z"/>
<g>
	<rect x="539.176" y="-344.915" width="2" height="7"/>
	<rect x="547.176" y="-348.915" width="2" height="7"/>
	<rect x="531.176" y="-348.915" width="2" height="7"/>
	<rect x="539.176" y="-334.915" width="2" height="7"/>
	<rect x="547.176" y="-338.915" width="2" height="7"/>
	<rect x="531.176" y="-338.915" width="2" height="7"/>
	<path d="M557.804-361.903c-1.596-7.445-8.207-13.029-16.127-13.029c-6.423,0-11.977,3.678-14.702,9.035
		c-0.266-0.018-0.53-0.04-0.8-0.04c-6.627,0-11.999,5.372-11.999,12c0,6.607,5.34,11.965,11.938,11.998v0.003h2.062v-2h-1.604
		l-0.447-0.003c-5.485-0.027-9.948-4.513-9.948-9.998c0-5.514,4.485-10,9.999-10c0.175,0,0.347,0.014,0.52,0.025l0.148,0.01
		l1.316,0.088l0.598-1.176c2.492-4.899,7.443-7.942,12.92-7.942c6.79,0,12.75,4.814,14.172,11.448l0.317,1.482l1.514,0.095
		c4.203,0.262,7.496,3.763,7.496,7.971c0,4.397-3.565,7.977-7.957,8c-0.05-0.003-0.093-0.005-0.137-0.007l-2.043,0.007h-2.863v2
		h4.863v-0.007c0.046,0.001,0.091,0.007,0.137,0.007c5.521,0,10-4.477,10-10C567.176-357.247,563.031-361.578,557.804-361.903z"/>
</g>
<g>
	<path d="M355.377-272.546c-1.596-7.445-8.207-13.029-16.127-13.029c-6.423,0-11.977,3.678-14.702,9.035
		c-0.266-0.018-0.53-0.04-0.8-0.04c-6.627,0-11.999,5.372-11.999,12c0,6.607,5.34,11.965,11.938,11.998v0.003h2.062v-2h-1.604
		l-0.447-0.003c-5.485-0.027-9.948-4.513-9.948-9.998c0-5.514,4.485-10,9.999-10c0.175,0,0.347,0.014,0.52,0.025l0.148,0.01
		l1.316,0.088l0.598-1.176c2.492-4.899,7.443-7.942,12.92-7.942c6.79,0,12.75,4.814,14.172,11.448l0.317,1.482l1.514,0.095
		c4.203,0.262,7.496,3.763,7.496,7.971c0,4.397-3.565,7.977-7.957,8c-0.05-0.003-0.093-0.005-0.137-0.007l-2.043,0.007h-2.863v2
		h4.863v-0.007c0.046,0.001,0.091,0.007,0.137,0.007c5.521,0,10-4.477,10-10C364.749-267.89,360.604-272.221,355.377-272.546z"/>
	<polygon points="336.749,-245.551 336.749,-243.61 336.749,-237.551 338.749,-237.551 338.749,-243.61 338.749,-245.551 
		338.749,-257.551 336.749,-257.551 	"/>
	<polygon points="344.749,-249.551 344.749,-247.798 344.749,-241.551 346.749,-241.551 346.749,-247.798 346.749,-249.551 
		346.749,-261.551 344.749,-261.551 	"/>
	<polygon points="328.749,-249.551 328.749,-247.485 328.749,-241.551 330.749,-241.551 330.749,-247.485 330.749,-249.551 
		330.749,-261.551 328.749,-261.551 	"/>
</g>
<g>
	<polygon points="651.026,-248.64 644.144,-258.47 642.506,-257.322 649.389,-247.492 650.501,-245.903 653.977,-240.939 
		655.615,-242.086 652.14,-247.051 	"/>
	<polygon points="659.028,-248.642 652.144,-258.47 650.506,-257.321 657.392,-247.493 658.396,-246.058 661.98,-240.942 
		663.619,-242.089 660.035,-247.205 	"/>
	<polygon points="643.026,-248.64 636.144,-258.47 634.506,-257.321 641.389,-247.492 642.573,-245.8 645.978,-240.938 
		647.615,-242.086 644.212,-246.947 	"/>
	<path d="M662.134-272.279c-1.596-7.445-8.207-13.029-16.127-13.029c-6.423,0-11.977,3.678-14.702,9.035
		c-0.266-0.018-0.53-0.04-0.8-0.04c-6.627,0-11.999,5.372-11.999,12c0,6.607,5.34,11.965,11.938,11.998v0.003h2.062v-2h-1.604
		l-0.447-0.003c-5.485-0.027-9.948-4.513-9.948-9.998c0-5.514,4.485-10,9.999-10c0.175,0,0.347,0.014,0.52,0.025l0.148,0.01
		l1.316,0.088l0.598-1.176c2.492-4.899,7.443-7.942,12.92-7.942c6.79,0,12.75,4.814,14.172,11.448l0.317,1.482l1.514,0.095
		c4.203,0.262,7.496,3.763,7.496,7.971c0,4.397-3.565,7.977-7.957,8c-0.05-0.003-0.093-0.005-0.137-0.007l-1.043,0.007h0.137v2
		h0.863v-0.007c0.046,0.001,0.091,0.007,0.137,0.007c5.521,0,10-4.477,10-10C671.506-267.623,667.361-271.954,662.134-272.279z"/>
</g>
<g>
	<rect x="633.832" y="-381.361" width="2" height="7.973"/>
	<rect x="614.832" y="-362.447" width="7.973" height="2"/>
	<rect x="619.505" y="-373.714" transform="matrix(0.7071 0.7071 -0.7071 0.7071 -80.9319 -550.0409)" width="7.974" height="2"/>
	<rect x="645.014" y="-376.696" transform="matrix(0.7071 0.7071 -0.7071 0.7071 -74.3327 -565.9648)" width="2" height="7.972"/>
	<rect x="647.832" y="-340.488" width="2" height="7"/>
	<rect x="655.832" y="-344.488" width="2" height="7"/>
	<rect x="639.832" y="-344.488" width="2" height="7"/>
	<rect x="647.832" y="-330.488" width="2" height="7"/>
	<rect x="655.832" y="-334.488" width="2" height="7"/>
	<rect x="639.832" y="-334.488" width="2" height="7"/>
	<path d="M664.344-355.571c-1.444-6.742-7.433-11.8-14.605-11.8c-2.185,0-4.258,0.47-6.126,1.313
		c-1.667-3.202-5.007-5.394-8.866-5.394c-5.522,0-10,4.477-10,9.999c0,2.46,0.899,4.702,2.373,6.442
		c-1.429,1.84-2.287,4.144-2.287,6.653c0,5.983,4.836,10.836,10.813,10.865v0.003h1.188v-2h-0.721l-0.457-0.003
		c-4.864-0.023-8.822-4.001-8.822-8.865c0-4.89,3.978-8.868,8.867-8.868c0.15,0,0.299,0.012,0.447,0.022l0.148,0.01l1.314,0.085
		l0.597-1.175c2.225-4.372,6.644-7.089,11.532-7.089c6.062,0,11.382,4.298,12.649,10.219l0.318,1.483l1.514,0.094
		c3.708,0.23,6.612,3.319,6.612,7.03c0,3.878-3.144,7.035-7.017,7.057c-0.042-0.003-0.079-0.005-0.117-0.005l-2.047,0.005h-0.819v2
		h2.819v-0.006c0.042,0.001,0.082,0.006,0.124,0.006c5.001,0,9.057-4.054,9.057-9.057
		C672.832-351.354,669.078-355.276,664.344-355.571z M636.424-359.188c-0.241-0.016-0.48-0.036-0.725-0.036
		c-2.766,0-5.282,1.041-7.2,2.743c-1.092-1.366-1.753-3.09-1.753-4.971c0-4.41,3.589-7.999,8-7.999c3.091,0,5.76,1.773,7.091,4.345
		C639.539-363.666,637.659-361.618,636.424-359.188z"/>
</g>
<g>
	<rect x="748.249" y="-341.936" width="2" height="7"/>
	<rect x="756.249" y="-345.936" width="2" height="7"/>
	<rect x="740.249" y="-345.936" width="2" height="7"/>
	<rect x="748.249" y="-331.936" width="2" height="7"/>
	<rect x="756.249" y="-335.936" width="2" height="7"/>
	<rect x="740.249" y="-335.936" width="2" height="7"/>
	<path d="M764.761-357.019c-1.444-6.742-7.433-11.8-14.605-11.8c-1.799,0-3.522,0.32-5.118,0.904
		c-0.949-5.108-5.404-8.98-10.788-8.98c-0.413,0-0.819,0.027-1.222,0.071c0.744,1.112,1.179,2.448,1.179,3.886c0,3.865-3.134,7-7,7
		c-1.438,0-2.773-0.435-3.886-1.179c-0.044,0.401-0.071,0.809-0.071,1.222c0,3.712,1.845,6.987,4.661,8.979
		c-1.653,1.907-2.661,4.389-2.661,7.111c0,5.983,4.836,10.836,10.813,10.865v0.003h1.188v-2h-0.721l-0.457-0.003
		c-4.864-0.023-8.822-4.001-8.822-8.865c0-4.89,3.978-8.868,8.867-8.868c0.15,0,0.299,0.012,0.447,0.022l0.148,0.01l1.314,0.085
		l0.597-1.175c2.225-4.372,6.644-7.089,11.532-7.089c6.062,0,11.382,4.298,12.649,10.219l0.318,1.483l1.514,0.094
		c3.708,0.23,6.612,3.319,6.612,7.03c0,3.878-3.144,7.035-7.017,7.057c-0.042-0.003-0.079-0.005-0.117-0.005l-2.047,0.005h-0.819v2
		h2.819v-0.006c0.042,0.001,0.082,0.006,0.124,0.006c5.001,0,9.057-4.054,9.057-9.057
		C773.249-352.802,769.495-356.724,764.761-357.019z M736.841-360.636c-0.241-0.016-0.48-0.036-0.725-0.036
		c-2.537,0-4.865,0.876-6.715,2.334c-2.012-1.294-3.487-3.354-3.976-5.776c0.582,0.117,1.178,0.177,1.78,0.177c4.963,0,9-4.037,9-9
		c0-0.603-0.06-1.198-0.177-1.78c3.733,0.753,6.629,3.824,7.133,7.64C740.451-365.634,738.236-363.379,736.841-360.636z"/>
</g>
<g>
	<polygon points="441.019,-241.112 441.019,-239.172 441.019,-233.112 443.019,-233.112 443.019,-239.172 443.019,-241.112 
		443.019,-253.112 441.019,-253.112 	"/>
	<polygon points="449.019,-245.112 449.019,-243.359 449.019,-237.112 451.019,-237.112 451.019,-243.359 451.019,-245.112 
		451.019,-257.112 449.019,-257.112 	"/>
	<polygon points="433.019,-245.112 433.019,-243.047 433.019,-237.112 435.019,-237.112 435.019,-243.047 435.019,-245.112 
		435.019,-257.112 433.019,-257.112 	"/>
	<rect x="427.019" y="-292.015" width="2" height="7.973"/>
	<rect x="408.019" y="-273.101" width="7.973" height="2"/>
	<rect x="412.692" y="-284.367" transform="matrix(0.7071 0.7071 -0.7071 0.7071 -78.3285 -377.6327)" width="7.974" height="2"/>
	<rect x="438.2" y="-287.349" transform="matrix(0.7071 0.7071 -0.7071 0.7071 -71.7293 -393.5566)" width="2" height="7.972"/>
	<path d="M457.53-266.225c-1.444-6.742-7.433-11.8-14.605-11.8c-2.185,0-4.258,0.47-6.127,1.313
		c-1.666-3.202-5.006-5.394-8.865-5.394c-5.522,0-10,4.477-10,9.999c0,2.46,0.898,4.702,2.373,6.442
		c-1.428,1.84-2.287,4.144-2.287,6.653c0,5.983,4.836,10.836,10.813,10.865v0.003h1.188v-2h-0.721l-0.457-0.003
		c-4.864-0.023-8.822-4.001-8.822-8.865c0-4.89,3.978-8.868,8.867-8.868c0.15,0,0.299,0.012,0.447,0.022l0.148,0.01l1.314,0.085
		l0.597-1.175c2.225-4.372,6.644-7.089,11.532-7.089c6.062,0,11.382,4.298,12.649,10.219l0.318,1.483l1.514,0.094
		c3.708,0.23,6.612,3.319,6.612,7.03c0,3.878-3.144,7.035-7.017,7.057c-0.042-0.003-0.079-0.005-0.117-0.005l-2.047,0.005h-0.819v2
		h2.819v-0.006c0.042,0.001,0.082,0.006,0.124,0.006c5.001,0,9.057-4.054,9.057-9.057
		C466.019-262.008,462.265-265.93,457.53-266.225z M429.61-269.842c-0.241-0.016-0.48-0.036-0.725-0.036
		c-2.766,0-5.281,1.042-7.2,2.743c-1.092-1.367-1.753-3.09-1.753-4.971c0-4.41,3.589-7.999,8-7.999c3.092,0,5.76,1.773,7.092,4.345
		C432.726-274.32,430.847-272.271,429.61-269.842z"/>
</g>
<g>
	<polygon points="541.416,-243.629 541.416,-241.688 541.416,-235.629 543.416,-235.629 543.416,-241.688 543.416,-243.629 
		543.416,-255.629 541.416,-255.629 	"/>
	<polygon points="549.416,-247.629 549.416,-245.876 549.416,-239.629 551.416,-239.629 551.416,-245.876 551.416,-247.629 
		551.416,-259.629 549.416,-259.629 	"/>
	<polygon points="533.416,-247.629 533.416,-245.563 533.416,-239.629 535.416,-239.629 535.416,-245.563 535.416,-247.629 
		535.416,-259.629 533.416,-259.629 	"/>
	<path d="M557.928-268.741c-1.444-6.742-7.433-11.8-14.605-11.8c-1.799,0-3.521,0.32-5.118,0.904
		c-0.949-5.108-5.404-8.98-10.788-8.98c-0.413,0-0.819,0.027-1.222,0.071c0.744,1.112,1.179,2.448,1.179,3.886c0,3.865-3.134,7-7,7
		c-1.438,0-2.773-0.435-3.886-1.179c-0.044,0.401-0.071,0.809-0.071,1.222c0,3.712,1.845,6.987,4.661,8.979
		c-1.653,1.907-2.661,4.389-2.661,7.111c0,5.983,4.836,10.836,10.813,10.865v0.003h1.188v-2h-0.721l-0.457-0.003
		c-4.864-0.023-8.822-4.001-8.822-8.865c0-4.89,3.978-8.868,8.867-8.868c0.15,0,0.299,0.012,0.447,0.022l0.148,0.01l1.314,0.085
		l0.597-1.175c2.225-4.372,6.644-7.089,11.532-7.089c6.062,0,11.382,4.298,12.649,10.219l0.318,1.483l1.514,0.094
		c3.708,0.23,6.612,3.319,6.612,7.03c0,3.878-3.144,7.035-7.017,7.057c-0.042-0.003-0.079-0.005-0.117-0.005l-2.047,0.005h-0.819v2
		h2.819v-0.006c0.042,0.001,0.082,0.006,0.124,0.006c5.001,0,9.057-4.054,9.057-9.057
		C566.416-264.524,562.662-268.446,557.928-268.741z M530.008-272.358c-0.241-0.016-0.48-0.036-0.725-0.036
		c-2.537,0-4.865,0.876-6.715,2.334c-2.012-1.294-3.486-3.354-3.976-5.776c0.582,0.117,1.178,0.177,1.78,0.177c4.963,0,9-4.037,9-9
		c0-0.603-0.06-1.198-0.177-1.78c3.733,0.753,6.629,3.824,7.134,7.641C533.617-277.356,531.402-275.101,530.008-272.358z"/>
</g>
<g>
	<polygon points="758.451,-242.685 751.568,-252.515 749.931,-251.367 756.813,-241.537 757.926,-239.948 761.401,-234.984 
		763.04,-236.131 759.564,-241.096 	"/>
	<polygon points="766.453,-242.687 759.568,-252.515 757.931,-251.366 764.816,-241.538 765.821,-240.103 769.405,-234.987 
		771.044,-236.134 767.46,-241.25 	"/>
	<polygon points="750.451,-242.685 743.568,-252.515 741.931,-251.366 748.813,-241.537 749.998,-239.845 753.402,-234.983 
		755.04,-236.131 751.637,-240.992 	"/>
	<rect x="737.931" y="-290.233" width="2" height="7.973"/>
	<rect x="718.931" y="-271.319" width="7.973" height="2"/>
	<rect x="723.604" y="-282.586" transform="matrix(0.7071 0.7071 -0.7071 0.7071 13.9951 -596.959)" width="7.974" height="2"/>
	<rect x="749.112" y="-285.568" transform="matrix(0.7071 0.7071 -0.7071 0.7071 20.5942 -612.8829)" width="2" height="7.972"/>
	<path d="M768.442-264.443c-1.444-6.742-7.433-11.8-14.605-11.8c-2.185,0-4.258,0.47-6.126,1.313
		c-1.667-3.202-5.007-5.394-8.866-5.394c-5.522,0-10,4.477-10,9.999c0,2.46,0.899,4.702,2.373,6.442
		c-1.429,1.84-2.287,4.144-2.287,6.653c0,5.983,4.836,10.836,10.813,10.865v0.003h1.188v-2h-0.721l-0.457-0.003
		c-4.864-0.023-8.822-4.001-8.822-8.865c0-4.89,3.978-8.868,8.867-8.868c0.15,0,0.299,0.012,0.447,0.022l0.148,0.01l1.314,0.085
		l0.597-1.175c2.225-4.372,6.644-7.089,11.532-7.089c6.062,0,11.382,4.298,12.649,10.219l0.318,1.483l1.514,0.094
		c3.708,0.23,6.612,3.319,6.612,7.03c0,3.878-3.144,7.035-7.017,7.057c-0.042-0.003-0.079-0.005-0.117-0.005l-0.047,0.005h-0.819v2
		h0.819v-0.006c0.042,0.001,0.082,0.006,0.124,0.006c5.001,0,9.057-4.054,9.057-9.057
		C776.931-260.227,773.177-264.148,768.442-264.443z M740.522-268.061c-0.241-0.016-0.48-0.036-0.725-0.036
		c-2.766,0-5.282,1.042-7.2,2.743c-1.092-1.367-1.753-3.09-1.753-4.971c0-4.41,3.589-7.999,8-7.999c3.091,0,5.76,1.773,7.091,4.345
		C743.638-272.539,741.758-270.49,740.522-268.061z"/>
</g>
<g>
	<polygon points="35.021,-146.199 28.138,-156.029 26.5,-154.882 33.383,-145.052 34.495,-143.463 37.971,-138.499 39.609,-139.646 
		36.134,-144.61 	"/>
	<polygon points="43.022,-146.201 36.138,-156.029 34.5,-154.881 41.386,-145.053 42.391,-143.617 45.975,-138.502 47.613,-139.648 
		44.029,-144.765 	"/>
	<polygon points="27.021,-146.199 20.138,-156.029 18.5,-154.881 25.383,-145.052 26.567,-143.359 29.972,-138.498 31.609,-139.646 
		28.206,-144.507 	"/>
	<path d="M45.012-167.958c-1.444-6.742-7.433-11.8-14.605-11.8c-1.799,0-3.522,0.32-5.118,0.904
		c-0.949-5.108-5.404-8.98-10.788-8.98c-0.413,0-0.819,0.027-1.222,0.071c0.744,1.112,1.179,2.448,1.179,3.886c0,3.865-3.134,7-7,7
		c-1.438,0-2.773-0.435-3.886-1.179c-0.044,0.401-0.071,0.809-0.071,1.222c0,3.712,1.845,6.987,4.661,8.979
		c-1.653,1.907-2.661,4.389-2.661,7.111c0,5.983,4.836,10.836,10.813,10.865v0.003H17.5v-2h-0.721l-0.457-0.003
		c-4.864-0.023-8.822-4.001-8.822-8.865c0-4.89,3.978-8.868,8.867-8.868c0.15,0,0.299,0.012,0.447,0.022l0.148,0.01l1.314,0.085
		l0.597-1.175c2.225-4.372,6.644-7.089,11.532-7.089c6.062,0,11.382,4.298,12.649,10.219l0.318,1.483l1.514,0.094
		c3.708,0.23,6.612,3.319,6.612,7.03c0,3.878-3.144,7.035-7.017,7.057c-0.042-0.003-0.079-0.005-0.117-0.005l-0.047,0.005H43.5v2
		h0.819v-0.006c0.042,0.001,0.082,0.006,0.124,0.006c5.001,0,9.057-4.054,9.057-9.057C53.5-163.741,49.746-167.663,45.012-167.958z
		 M17.092-171.575c-0.241-0.016-0.48-0.036-0.725-0.036c-2.537,0-4.865,0.876-6.715,2.334c-2.012-1.294-3.487-3.354-3.976-5.776
		c0.582,0.117,1.178,0.177,1.78,0.177c4.963,0,9-4.037,9-9c0-0.603-0.06-1.198-0.177-1.78c3.733,0.753,6.629,3.824,7.133,7.641
		C20.702-176.573,18.487-174.317,17.092-171.575z"/>
</g>
<g>
	<rect x="27.5" y="-250.046" width="2" height="4"/>
	<rect x="35.5" y="-254.067" width="2" height="4.021"/>
	<rect x="19.5" y="-254.067" width="2" height="4.021"/>
	<path d="M46.128-270.034c-1.596-7.445-8.207-13.029-16.127-13.029c-6.423,0-11.977,3.678-14.702,9.035
		c-0.266-0.018-0.53-0.04-0.8-0.04c-6.627,0-11.999,5.372-11.999,12c0,6.607,5.34,11.965,11.938,11.998v0.003H16.5v-2h-1.604
		l-0.447-0.003c-5.485-0.027-9.948-4.513-9.948-9.998c0-5.514,4.485-10,9.999-10c0.175,0,0.347,0.014,0.52,0.025l0.148,0.01
		l1.316,0.088l0.598-1.176c2.492-4.899,7.443-7.942,12.92-7.942c6.79,0,12.75,4.814,14.172,11.448l0.317,1.482l1.514,0.095
		c4.203,0.262,7.496,3.763,7.496,7.971c0,4.397-3.565,7.977-7.957,8c-0.05-0.003-0.093-0.005-0.137-0.007l-2.043,0.007H40.5v2h4.863
		v-0.007c0.046,0.001,0.091,0.007,0.137,0.007c5.521,0,10-4.477,10-10C55.5-265.378,51.355-269.709,46.128-270.034z"/>
	<circle cx="36.5" cy="-245.025" r="1.5"/>
	<circle cx="28.5" cy="-241.057" r="1.5"/>
	<circle cx="20.5" cy="-245.067" r="1.5"/>
</g>
<g>
	<rect x="120.421" y="-289.5" width="2" height="7.973"/>
	<rect x="101.421" y="-270.586" width="7.973" height="2"/>
	<rect x="106.094" y="-281.852" transform="matrix(0.7071 0.7071 -0.7071 0.7071 -166.3507 -160.0989)" width="7.974" height="2"/>
	<rect x="131.603" y="-284.834" transform="matrix(0.7071 0.7071 -0.7071 0.7071 -159.7516 -176.0228)" width="2" height="7.972"/>
	<path d="M150.933-263.71c-1.444-6.742-7.433-11.8-14.605-11.8c-2.185,0-4.258,0.47-6.126,1.313
		c-1.667-3.202-5.007-5.394-8.866-5.394c-5.522,0-10,4.477-10,9.999c0,2.46,0.899,4.702,2.373,6.442
		c-1.429,1.84-2.287,4.144-2.287,6.653c0,5.983,4.836,10.836,10.813,10.865v0.003h1.188v-2H122.7l-0.457-0.003
		c-4.864-0.023-8.822-4.001-8.822-8.865c0-4.89,3.978-8.868,8.867-8.868c0.15,0,0.299,0.012,0.447,0.022l0.148,0.01l1.314,0.085
		l0.597-1.175c2.225-4.372,6.644-7.089,11.532-7.089c6.062,0,11.382,4.298,12.649,10.219l0.318,1.483l1.514,0.094
		c3.708,0.23,6.612,3.319,6.612,7.03c0,3.878-3.144,7.035-7.017,7.057c-0.042-0.003-0.079-0.005-0.117-0.005l-2.047,0.005h-0.819v2
		h2.819v-0.006c0.042,0.001,0.082,0.006,0.124,0.006c5.001,0,9.057-4.054,9.057-9.057
		C159.421-259.493,155.667-263.415,150.933-263.71z M123.013-267.327c-0.241-0.016-0.48-0.036-0.725-0.036
		c-2.766,0-5.282,1.042-7.2,2.743c-1.092-1.367-1.753-3.09-1.753-4.971c0-4.41,3.589-7.999,8-7.999c3.091,0,5.76,1.773,7.091,4.345
		C126.128-271.806,124.248-269.757,123.013-267.327z"/>
	<rect x="134.421" y="-245.611" width="2" height="4"/>
	<rect x="142.421" y="-249.633" width="2" height="4.021"/>
	<rect x="126.421" y="-249.633" width="2" height="4.021"/>
	<circle cx="143.421" cy="-240.591" r="1.5"/>
	<circle cx="135.421" cy="-236.622" r="1.5"/>
	<circle cx="127.421" cy="-240.633" r="1.5"/>
</g>
<g>
	<path d="M251.858-264.667c-1.444-6.742-7.433-11.8-14.605-11.8c-1.799,0-3.522,0.32-5.118,0.904
		c-0.949-5.108-5.404-8.98-10.788-8.98c-0.413,0-0.819,0.027-1.222,0.071c0.744,1.112,1.179,2.448,1.179,3.886c0,3.865-3.134,7-7,7
		c-1.438,0-2.773-0.435-3.886-1.179c-0.044,0.401-0.071,0.809-0.071,1.222c0,3.712,1.845,6.987,4.661,8.979
		c-1.653,1.907-2.661,4.389-2.661,7.111c0,5.983,4.836,10.836,10.813,10.865v0.003h1.188v-2h-0.721l-0.457-0.003
		c-4.864-0.023-8.822-4.001-8.822-8.865c0-4.89,3.978-8.868,8.867-8.868c0.15,0,0.299,0.012,0.447,0.022l0.148,0.01l1.314,0.085
		l0.597-1.175c2.225-4.372,6.644-7.089,11.532-7.089c6.062,0,11.382,4.298,12.649,10.219l0.318,1.483l1.514,0.094
		c3.708,0.23,6.612,3.319,6.612,7.03c0,3.878-3.144,7.035-7.017,7.057c-0.042-0.003-0.079-0.005-0.117-0.005l-2.047,0.005h-0.819v2
		h2.819v-0.006c0.042,0.001,0.082,0.006,0.124,0.006c5.001,0,9.057-4.054,9.057-9.057
		C260.347-260.45,256.593-264.372,251.858-264.667z M223.938-268.284c-0.241-0.016-0.48-0.036-0.725-0.036
		c-2.537,0-4.865,0.876-6.715,2.334c-2.012-1.294-3.487-3.354-3.976-5.776c0.582,0.117,1.178,0.177,1.78,0.177c4.963,0,9-4.037,9-9
		c0-0.603-0.06-1.198-0.177-1.78c3.733,0.753,6.629,3.824,7.133,7.641C227.549-273.282,225.334-271.026,223.938-268.284z"/>
	<rect x="235.347" y="-246.568" width="2" height="4"/>
	<rect x="243.347" y="-250.59" width="2" height="4.021"/>
	<rect x="227.347" y="-250.59" width="2" height="4.021"/>
	<circle cx="244.347" cy="-241.548" r="1.5"/>
	<circle cx="236.347" cy="-237.579" r="1.5"/>
	<circle cx="228.347" cy="-241.59" r="1.5"/>
</g>
<g>
	<path d="M148.549-171.637c-1.596-7.445-8.207-13.029-16.127-13.029c-6.423,0-11.977,3.678-14.702,9.035
		c-0.266-0.018-0.53-0.04-0.8-0.04c-6.627,0-11.999,5.372-11.999,12c0,6.607,5.34,11.965,11.938,11.998v0.003h6.062v-2h-5.604
		l-0.447-0.003c-5.485-0.027-9.948-4.513-9.948-9.998c0-5.514,4.485-10,9.999-10c0.175,0,0.347,0.014,0.52,0.025l0.148,0.01
		l1.316,0.088l0.598-1.176c2.492-4.899,7.443-7.942,12.92-7.942c6.79,0,12.75,4.814,14.172,11.448l0.317,1.482l1.514,0.095
		c4.203,0.262,7.496,3.763,7.496,7.971c0,4.397-3.565,7.977-7.957,8c-0.05-0.003-0.093-0.005-0.137-0.007l-5.043,0.007h0.137v2
		h4.863v-0.007c0.046,0.001,0.091,0.007,0.137,0.007c5.521,0,10-4.477,10-10C157.921-166.98,153.776-171.312,148.549-171.637z"/>
	<polygon points="132.763,-151.666 134.532,-151.666 134.963,-151.666 136.973,-151.666 130.559,-160.827 128.921,-159.68 
		133.132,-153.666 131.361,-153.666 128.921,-153.666 130.192,-151.85 131.305,-150.261 137.282,-141.666 138.921,-142.813 
		132.943,-151.408 	"/>
</g>
<g>
	<rect x="224.347" y="-190.767" width="2" height="7.973"/>
	<rect x="205.347" y="-171.853" width="7.973" height="2"/>
	<rect x="210.02" y="-183.119" transform="matrix(0.7071 0.7071 -0.7071 0.7071 -66.0965 -204.6671)" width="7.974" height="2"/>
	<rect x="235.528" y="-186.101" transform="matrix(0.7071 0.7071 -0.7071 0.7071 -59.4974 -220.5911)" width="2" height="7.972"/>
	<path d="M254.858-164.977c-1.444-6.742-7.433-11.8-14.605-11.8c-2.185,0-4.258,0.47-6.127,1.313
		c-1.666-3.202-5.006-5.394-8.865-5.394c-5.522,0-10,4.477-10,9.999c0,2.46,0.898,4.702,2.373,6.442
		c-1.428,1.84-2.287,4.144-2.287,6.653c0,5.983,4.836,10.836,10.813,10.865v0.003h4.188v-2h-3.721l-0.457-0.003
		c-4.864-0.023-8.822-4.001-8.822-8.865c0-4.89,3.978-8.868,8.867-8.868c0.15,0,0.299,0.012,0.447,0.022l0.148,0.01l1.314,0.085
		l0.597-1.175c2.225-4.372,6.644-7.089,11.532-7.089c6.062,0,11.382,4.298,12.649,10.219l0.318,1.483l1.514,0.094
		c3.708,0.23,6.612,3.319,6.612,7.03c0,3.878-3.144,7.035-7.017,7.057c-0.042-0.003-0.079-0.005-0.117-0.005l-2.047,0.005h-3.819v2
		h5.819v-0.006c0.042,0.001,0.082,0.006,0.124,0.006c5.001,0,9.057-4.054,9.057-9.057
		C263.347-160.76,259.593-164.682,254.858-164.977z M226.938-168.594c-0.241-0.016-0.48-0.036-0.725-0.036
		c-2.766,0-5.281,1.041-7.2,2.743c-1.092-1.366-1.753-3.09-1.753-4.971c0-4.41,3.589-7.999,8-7.999c3.092,0,5.76,1.773,7.092,4.345
		C230.054-173.071,228.175-171.023,226.938-168.594z"/>
	<polygon points="239.188,-146.887 240.958,-146.887 241.389,-146.887 243.398,-146.887 236.984,-156.048 235.347,-154.9 
		239.558,-148.887 237.787,-148.887 235.347,-148.887 236.618,-147.07 237.73,-145.481 243.708,-136.887 245.347,-138.033 
		239.369,-146.629 	"/>
</g>
<g>
	<path d="M354.443-167.272c-1.444-6.742-7.433-11.8-14.605-11.8c-1.799,0-3.521,0.32-5.118,0.904
		c-0.949-5.108-5.404-8.98-10.788-8.98c-0.413,0-0.819,0.027-1.222,0.071c0.744,1.112,1.179,2.448,1.179,3.886c0,3.865-3.134,7-7,7
		c-1.438,0-2.773-0.435-3.886-1.179c-0.044,0.401-0.071,0.809-0.071,1.222c0,3.712,1.845,6.987,4.661,8.979
		c-1.653,1.907-2.661,4.389-2.661,7.111c0,5.983,4.836,10.836,10.813,10.865v0.003h4.188v-2h-3.721l-0.457-0.003
		c-4.864-0.023-8.822-4.001-8.822-8.865c0-4.89,3.978-8.868,8.867-8.868c0.15,0,0.299,0.012,0.447,0.022l0.148,0.01l1.314,0.085
		l0.597-1.175c2.225-4.372,6.644-7.089,11.532-7.089c6.062,0,11.382,4.298,12.649,10.219l0.318,1.483l1.514,0.094
		c3.708,0.23,6.612,3.319,6.612,7.03c0,3.878-3.144,7.035-7.017,7.057c-0.042-0.003-0.079-0.005-0.117-0.005l-2.047,0.005h-3.819v2
		h5.819v-0.006c0.042,0.001,0.082,0.006,0.124,0.006c5.001,0,9.057-4.054,9.057-9.057
		C362.932-163.056,359.178-166.978,354.443-167.272z M326.523-170.89c-0.241-0.016-0.48-0.036-0.725-0.036
		c-2.537,0-4.865,0.876-6.715,2.334c-2.012-1.294-3.486-3.354-3.976-5.776c0.582,0.117,1.178,0.177,1.78,0.177c4.963,0,9-4.037,9-9
		c0-0.603-0.06-1.198-0.177-1.78c3.733,0.753,6.629,3.824,7.134,7.64C330.133-175.888,327.918-173.633,326.523-170.89z"/>
	<polygon points="338.773,-149.183 340.543,-149.183 340.974,-149.183 342.983,-149.183 336.569,-158.344 334.932,-157.196 
		339.143,-151.183 337.372,-151.183 334.932,-151.183 336.203,-149.366 337.315,-147.777 343.293,-139.183 344.932,-140.329 
		338.954,-148.925 	"/>
</g>
<g>
	<path d="M455.328-171.137c-1.596-7.445-8.207-13.029-16.127-13.029c-6.423,0-11.977,3.678-14.702,9.035
		c-0.266-0.018-0.53-0.04-0.8-0.04c-6.627,0-11.999,5.372-11.999,12c0,6.607,5.34,11.965,11.938,11.998v0.003h1.062v-2h-0.604
		l-0.447-0.003c-5.485-0.027-9.948-4.513-9.948-9.998c0-5.514,4.485-10,9.999-10c0.175,0,0.347,0.014,0.52,0.025l0.148,0.01
		l1.316,0.088l0.598-1.176c2.492-4.899,7.443-7.942,12.92-7.942c6.79,0,12.75,4.814,14.172,11.448l0.317,1.482l1.514,0.095
		c4.203,0.262,7.496,3.763,7.496,7.971c0,4.397-3.565,7.977-7.957,8c-0.05-0.003-0.093-0.005-0.137-0.007l-0.906,0.007v2h0.863
		v-0.007c0.046,0.001,0.091,0.007,0.137,0.007c5.521,0,10-4.477,10-10C464.7-166.48,460.556-170.812,455.328-171.137z"/>
	
		<rect x="424.135" y="-153.172" transform="matrix(-0.5736 -0.8191 0.8191 -0.5736 800.8791 112.5282)" width="11.183" height="1.999"/>
	
		<rect x="442.109" y="-153.172" transform="matrix(-0.5736 -0.8191 0.8191 -0.5736 829.1646 127.2513)" width="11.183" height="1.999"/>
	<polygon points="440.542,-148.166 442.312,-148.166 442.742,-148.166 444.752,-148.166 438.338,-157.327 436.7,-156.18 
		440.911,-150.166 439.141,-150.166 436.7,-150.166 437.972,-148.35 439.084,-146.761 443.7,-140.166 445.339,-141.313 
		440.723,-147.908 	"/>
</g>
<g>
	<rect x="530.176" y="-190.604" width="2" height="7.973"/>
	<rect x="511.176" y="-171.689" width="7.973" height="2"/>
	<rect x="515.849" y="-182.956" transform="matrix(0.7071 0.7071 -0.7071 0.7071 23.5941 -420.8732)" width="7.974" height="2"/>
	<rect x="541.358" y="-185.938" transform="matrix(0.7071 0.7071 -0.7071 0.7071 30.1932 -436.7972)" width="2" height="7.972"/>
	<path d="M560.688-164.813c-1.444-6.742-7.433-11.8-14.605-11.8c-2.185,0-4.258,0.47-6.126,1.313
		c-1.667-3.202-5.007-5.394-8.866-5.394c-5.522,0-10,4.477-10,9.999c0,2.46,0.899,4.702,2.373,6.442
		c-1.429,1.84-2.287,4.144-2.287,6.653c0,5.983,4.836,10.836,10.813,10.865v0.003h0.188v-2l-0.178-0.003
		c-4.864-0.023-8.822-4.001-8.822-8.865c0-4.89,3.978-8.868,8.867-8.868c0.15,0,0.299,0.012,0.447,0.022l0.148,0.01l1.314,0.085
		l0.597-1.175c2.225-4.372,6.644-7.089,11.532-7.089c6.062,0,11.382,4.298,12.649,10.219l0.318,1.483l1.514,0.094
		c3.708,0.23,6.612,3.319,6.612,7.03c0,3.878-3.144,7.035-7.017,7.057c-0.042-0.003-0.079-0.005-0.117-0.005l-0.866,0.005v2h0.819
		v-0.006c0.042,0.001,0.082,0.006,0.124,0.006c5.001,0,9.057-4.054,9.057-9.057C569.176-160.597,565.422-164.519,560.688-164.813z
		 M532.768-168.431c-0.241-0.016-0.48-0.036-0.725-0.036c-2.766,0-5.282,1.042-7.2,2.743c-1.092-1.367-1.753-3.09-1.753-4.971
		c0-4.41,3.589-7.999,8-7.999c3.091,0,5.76,1.773,7.091,4.345C535.883-172.909,534.003-170.86,532.768-168.431z"/>
	
		<rect x="530.597" y="-148.733" transform="matrix(-0.5736 -0.8191 0.8191 -0.5736 964.7776 206.7174)" width="11.183" height="1.999"/>
	
		<rect x="548.572" y="-148.733" transform="matrix(-0.5736 -0.8191 0.8191 -0.5736 993.0631 221.4406)" width="11.183" height="1.999"/>
	<polygon points="547.005,-143.728 548.774,-143.728 549.205,-143.728 551.215,-143.728 544.801,-152.889 543.163,-151.741 
		547.374,-145.728 545.604,-145.728 543.163,-145.728 544.435,-143.911 545.547,-142.322 550.163,-135.728 551.802,-136.874 
		547.186,-143.47 	"/>
</g>
<g>
	<path d="M662.525-167.771c-1.444-6.742-7.433-11.8-14.605-11.8c-1.799,0-3.522,0.32-5.118,0.904
		c-0.949-5.108-5.404-8.98-10.788-8.98c-0.413,0-0.819,0.027-1.222,0.071c0.744,1.112,1.179,2.448,1.179,3.886c0,3.865-3.134,7-7,7
		c-1.438,0-2.773-0.435-3.886-1.179c-0.044,0.401-0.071,0.809-0.071,1.222c0,3.712,1.845,6.987,4.661,8.979
		c-1.653,1.907-2.661,4.389-2.661,7.111c0,5.983,4.836,10.836,10.813,10.865v0.003h0.188v-2l-0.178-0.003
		c-4.864-0.023-8.822-4.001-8.822-8.865c0-4.89,3.978-8.868,8.867-8.868c0.15,0,0.299,0.012,0.447,0.022l0.148,0.01l1.314,0.085
		l0.597-1.175c2.225-4.372,6.644-7.089,11.532-7.089c6.062,0,11.382,4.298,12.649,10.219l0.318,1.483l1.514,0.094
		c3.708,0.23,6.612,3.319,6.612,7.03c0,3.878-3.144,7.035-7.017,7.057c-0.042-0.003-0.079-0.005-0.117-0.005l-0.866,0.005v2h0.819
		v-0.006c0.042,0.001,0.082,0.006,0.124,0.006c5.001,0,9.057-4.054,9.057-9.057C671.014-163.555,667.26-167.477,662.525-167.771z
		 M634.605-171.389c-0.241-0.016-0.48-0.036-0.725-0.036c-2.537,0-4.865,0.876-6.715,2.334c-2.012-1.294-3.487-3.354-3.976-5.776
		c0.582,0.117,1.178,0.177,1.78,0.177c4.963,0,9-4.037,9-9c0-0.603-0.06-1.198-0.177-1.78c3.733,0.753,6.629,3.824,7.133,7.641
		C638.216-176.387,636.001-174.131,634.605-171.389z"/>
	
		<rect x="632.434" y="-151.691" transform="matrix(-0.5736 -0.8191 0.8191 -0.5736 1127.455 285.4781)" width="11.183" height="1.999"/>
	
		<rect x="650.409" y="-151.691" transform="matrix(-0.5736 -0.8191 0.8191 -0.5736 1155.7405 300.2012)" width="11.183" height="1.999"/>
	<polygon points="648.842,-146.686 650.611,-146.686 651.042,-146.686 653.052,-146.686 646.638,-155.847 645,-154.699 
		649.211,-148.686 647.44,-148.686 645,-148.686 646.271,-146.869 647.384,-145.28 652,-138.686 653.639,-139.832 649.022,-146.428 
			"/>
</g>
<g>
	<g>
		<path d="M251.963-81.316c-1.596-7.445-8.207-13.029-16.127-13.029c-6.423,0-11.977,3.678-14.702,9.035
			c-0.266-0.018-0.53-0.04-0.8-0.04c-6.627,0-11.999,5.372-11.999,12c0,6.607,5.34,11.965,11.938,11.998v0.003h2.062v-2h-1.604
			l-0.447-0.003c-5.485-0.027-9.948-4.513-9.948-9.998c0-5.514,4.485-10,9.999-10c0.175,0,0.347,0.014,0.52,0.025l0.148,0.01
			l1.316,0.088l0.598-1.176c2.492-4.899,7.443-7.942,12.92-7.942c6.79,0,12.75,4.814,14.172,11.448l0.317,1.482l1.514,0.095
			c4.203,0.262,7.496,3.763,7.496,7.971c0,4.397-3.565,7.977-7.957,8c-0.05-0.003-0.093-0.005-0.137-0.007l-2.043,0.007h-2.863v2
			h4.863v-0.007c0.046,0.001,0.091,0.007,0.137,0.007c5.521,0,10-4.477,10-10C261.335-76.66,257.19-80.991,251.963-81.316z"/>
	</g>
	<g>
		<circle cx="226.835" cy="-67.773" r="1.5"/>
	</g>
	<g>
		<circle cx="230.835" cy="-61.85" r="1.5"/>
	</g>
	<g>
		<circle cx="238.835" cy="-61.85" r="1.5"/>
	</g>
	<g>
		<circle cx="234.835" cy="-67.773" r="1.5"/>
	</g>
	<g>
		<circle cx="242.835" cy="-67.773" r="1.5"/>
	</g>
	<g>
		<circle cx="226.835" cy="-55.828" r="1.5"/>
	</g>
	<g>
		<circle cx="234.835" cy="-55.828" r="1.5"/>
	</g>
	<g>
		<circle cx="242.835" cy="-55.828" r="1.5"/>
	</g>
</g>
<g>
	<g>
		<rect x="327.749" y="-96.794" width="2" height="7.973"/>
	</g>
	<g>
		<rect x="308.749" y="-77.88" width="7.973" height="2"/>
	</g>
	<g>
		<rect x="313.422" y="-89.146" transform="matrix(0.7071 0.7071 -0.7071 0.7071 30.638 -250.2597)" width="7.974" height="2"/>
	</g>
	<g>
		<rect x="338.931" y="-92.128" transform="matrix(0.7071 0.7071 -0.7071 0.7071 37.2372 -266.1837)" width="2" height="7.972"/>
	</g>
	<g>
		<path d="M358.261-71.004c-1.444-6.742-7.433-11.8-14.605-11.8c-2.185,0-4.258,0.47-6.127,1.313
			c-1.666-3.202-5.006-5.394-8.865-5.394c-5.522,0-10,4.477-10,9.999c0,2.46,0.898,4.702,2.373,6.442
			c-1.428,1.84-2.287,4.144-2.287,6.653c0,5.983,4.836,10.836,10.813,10.865v0.003h1.188v-2h-0.721l-0.457-0.003
			c-4.864-0.023-8.822-4.001-8.822-8.865c0-4.89,3.978-8.868,8.867-8.868c0.15,0,0.299,0.012,0.447,0.022l0.148,0.01l1.314,0.085
			l0.597-1.175c2.225-4.372,6.644-7.089,11.532-7.089c6.062,0,11.382,4.298,12.649,10.219l0.318,1.483l1.514,0.094
			c3.708,0.23,6.612,3.319,6.612,7.03c0,3.878-3.144,7.035-7.017,7.057c-0.042-0.003-0.079-0.005-0.117-0.005l-2.047,0.005h-1.819v2
			h3.819v-0.006c0.042,0.001,0.082,0.006,0.124,0.006c5.001,0,9.057-4.054,9.057-9.057
			C366.749-66.787,362.995-70.709,358.261-71.004z M330.341-74.621c-0.241-0.016-0.48-0.036-0.725-0.036
			c-2.766,0-5.281,1.042-7.2,2.743c-1.092-1.367-1.753-3.09-1.753-4.971c0-4.41,3.589-7.999,8-7.999c3.092,0,5.76,1.773,7.092,4.345
			C333.456-79.1,331.577-77.051,330.341-74.621z"/>
	</g>
	<g>
		<circle cx="334.238" cy="-59.41" r="1.5"/>
	</g>
	<g>
		<circle cx="338.238" cy="-53.41" r="1.5"/>
	</g>
	<g>
		<circle cx="346.238" cy="-53.41" r="1.5"/>
	</g>
	<g>
		<circle cx="342.238" cy="-59.41" r="1.5"/>
	</g>
	<g>
		<circle cx="350.238" cy="-59.41" r="1.5"/>
	</g>
	<g>
		<circle cx="334.238" cy="-47.389" r="1.5"/>
	</g>
	<g>
		<circle cx="342.238" cy="-47.389" r="1.5"/>
	</g>
	<g>
		<circle cx="350.238" cy="-47.389" r="1.5"/>
	</g>
</g>
<g>
	<g>
		<path d="M454.212-74.96c-1.444-6.742-7.433-11.8-14.605-11.8c-1.799,0-3.521,0.32-5.118,0.904
			c-0.949-5.108-5.404-8.98-10.788-8.98c-0.413,0-0.819,0.027-1.222,0.071c0.744,1.112,1.179,2.448,1.179,3.886c0,3.865-3.134,7-7,7
			c-1.438,0-2.773-0.435-3.886-1.179c-0.044,0.401-0.071,0.809-0.071,1.222c0,3.712,1.845,6.987,4.661,8.979
			c-1.653,1.907-2.661,4.389-2.661,7.111c0,5.983,4.836,10.836,10.813,10.865v0.003h1.188v-2h-0.721l-0.457-0.003
			c-4.864-0.023-8.822-4.001-8.822-8.865c0-4.89,3.978-8.868,8.867-8.868c0.15,0,0.299,0.012,0.447,0.022l0.148,0.01l1.314,0.085
			l0.597-1.175c2.225-4.372,6.644-7.089,11.532-7.089c6.062,0,11.382,4.298,12.649,10.219l0.318,1.483l1.514,0.094
			c3.708,0.23,6.612,3.319,6.612,7.03c0,3.878-3.144,7.035-7.017,7.057c-0.042-0.003-0.079-0.005-0.117-0.005l-2.047,0.005H449.7v2
			h3.819v-0.006c0.042,0.001,0.082,0.006,0.124,0.006c5.001,0,9.057-4.054,9.057-9.057C462.7-70.743,458.946-74.665,454.212-74.96z
			 M426.292-78.577c-0.241-0.016-0.48-0.036-0.725-0.036c-2.537,0-4.865,0.876-6.715,2.334c-2.012-1.294-3.486-3.354-3.976-5.776
			c0.582,0.117,1.178,0.177,1.78,0.177c4.963,0,9-4.037,9-9c0-0.603-0.06-1.198-0.177-1.78c3.733,0.753,6.629,3.824,7.134,7.64
			C429.901-83.575,427.687-81.32,426.292-78.577z"/>
	</g>
	<g>
		<circle cx="430.2" cy="-63.367" r="1.5"/>
	</g>
	<g>
		<circle cx="434.2" cy="-57.367" r="1.5"/>
	</g>
	<g>
		<circle cx="442.2" cy="-57.367" r="1.5"/>
	</g>
	<g>
		<circle cx="438.2" cy="-63.367" r="1.5"/>
	</g>
	<g>
		<circle cx="446.2" cy="-63.367" r="1.5"/>
	</g>
	<g>
		<circle cx="430.2" cy="-51.346" r="1.5"/>
	</g>
	<g>
		<circle cx="438.2" cy="-51.346" r="1.5"/>
	</g>
	<g>
		<circle cx="446.2" cy="-51.346" r="1.5"/>
	</g>
</g>
<g>
	<path d="M765.377-173.846c-1.596-7.445-8.207-13.029-16.127-13.029c-6.423,0-11.977,3.678-14.702,9.035
		c-0.266-0.018-0.53-0.04-0.8-0.04c-6.627,0-11.999,5.372-11.999,12c0,6.607,5.34,11.965,11.938,11.998v0.003h2.062v-2h-1.604
		l-0.447-0.003c-5.485-0.027-9.948-4.513-9.948-9.998c0-5.514,4.485-10,9.999-10c0.175,0,0.347,0.014,0.52,0.025l0.148,0.01
		l1.316,0.088l0.598-1.176c2.492-4.899,7.443-7.942,12.92-7.942c6.79,0,12.75,4.814,14.172,11.448l0.317,1.482l1.514,0.095
		c4.203,0.262,7.496,3.763,7.496,7.971c0,4.397-3.565,7.977-7.957,8c-0.05-0.003-0.093-0.005-0.137-0.007l-2.043,0.007h-2.863v2
		h4.863v-0.007c0.046,0.001,0.091,0.007,0.137,0.007c5.521,0,10-4.477,10-10C774.749-169.189,770.604-173.521,765.377-173.846z"/>
	<circle cx="739.749" cy="-146.375" r="1.5"/>
	<circle cx="747.749" cy="-140.375" r="1.5"/>
	<circle cx="755.749" cy="-144.375" r="1.5"/>
	<rect x="738.749" y="-162.851" width="2" height="11.976"/>
	<polygon points="748.749,-144.91 748.749,-146.851 748.749,-158.851 746.749,-158.851 746.749,-146.851 746.749,-144.91 
		746.749,-144.875 748.749,-144.875 	"/>
	<polygon points="756.749,-149.098 756.749,-150.851 756.749,-162.851 754.749,-162.851 754.749,-150.851 754.749,-149.098 
		754.749,-148.875 756.749,-148.875 	"/>
</g>
<g>
	<rect x="17" y="-102.232" width="2" height="7.973"/>
	<rect x="-2" y="-83.318" width="7.973" height="2"/>
	<rect x="2.673" y="-94.585" transform="matrix(0.7071 0.7071 -0.7071 0.7071 -64.2238 -32.1198)" width="7.974" height="2"/>
	<rect x="28.182" y="-97.567" transform="matrix(0.7071 0.7071 -0.7071 0.7071 -57.6247 -48.0438)" width="2" height="7.972"/>
	<path d="M47.512-76.442c-1.444-6.742-7.433-11.8-14.605-11.8c-2.185,0-4.258,0.47-6.126,1.313
		c-1.667-3.202-5.007-5.394-8.866-5.394c-5.522,0-10,4.477-10,9.999c0,2.46,0.899,4.702,2.373,6.442C8.858-74.041,8-71.737,8-69.228
		c0,5.983,4.836,10.836,10.813,10.865v0.003H20v-2h-0.721l-0.457-0.003C13.958-60.386,10-64.363,10-69.228
		c0-4.89,3.978-8.868,8.867-8.868c0.15,0,0.299,0.012,0.447,0.022l0.148,0.01l1.314,0.085l0.597-1.175
		c2.225-4.372,6.644-7.089,11.532-7.089c6.062,0,11.382,4.298,12.649,10.219l0.318,1.483l1.514,0.094
		c3.708,0.23,6.612,3.319,6.612,7.03c0,3.878-3.144,7.035-7.017,7.057c-0.042-0.003-0.079-0.005-0.117-0.005l-2.047,0.005H44v2
		h2.819v-0.006c0.042,0.001,0.082,0.006,0.124,0.006c5.001,0,9.057-4.054,9.057-9.057C56-72.226,52.246-76.147,47.512-76.442z
		 M19.592-80.06c-0.241-0.016-0.48-0.036-0.725-0.036c-2.766,0-5.282,1.041-7.2,2.743c-1.092-1.366-1.753-3.09-1.753-4.971
		c0-4.41,3.589-7.999,8-7.999c3.091,0,5.76,1.773,7.091,4.345C22.707-84.537,20.827-82.489,19.592-80.06z"/>
	<circle cx="23.99" cy="-49.872" r="1.5"/>
	<circle cx="31.99" cy="-43.872" r="1.5"/>
	<circle cx="39.99" cy="-47.872" r="1.5"/>
	<rect x="22.99" y="-66.348" width="2" height="11.976"/>
	<polygon points="32.99,-48.407 32.99,-50.348 32.99,-62.348 30.99,-62.348 30.99,-50.348 30.99,-48.407 30.99,-48.372 
		32.99,-48.372 	"/>
	<polygon points="40.99,-52.595 40.99,-54.348 40.99,-66.348 38.99,-66.348 38.99,-54.348 38.99,-52.595 38.99,-52.372 
		40.99,-52.372 	"/>
</g>
<g>
	<path d="M148.114-79.44c-1.444-6.742-7.433-11.8-14.605-11.8c-1.799,0-3.522,0.32-5.118,0.904c-0.949-5.108-5.404-8.98-10.788-8.98
		c-0.413,0-0.819,0.027-1.222,0.071c0.744,1.112,1.179,2.448,1.179,3.886c0,3.865-3.134,7-7,7c-1.438,0-2.773-0.435-3.886-1.179
		c-0.044,0.401-0.071,0.809-0.071,1.222c0,3.712,1.845,6.987,4.661,8.979c-1.653,1.907-2.661,4.389-2.661,7.111
		c0,5.983,4.836,10.836,10.813,10.865v0.003h1.188v-2h-0.721l-0.457-0.003c-4.864-0.023-8.822-4.001-8.822-8.865
		c0-4.89,3.978-8.868,8.867-8.868c0.15,0,0.299,0.012,0.447,0.022l0.148,0.01l1.314,0.085l0.597-1.175
		c2.225-4.372,6.644-7.089,11.532-7.089c6.062,0,11.382,4.298,12.649,10.219l0.318,1.483l1.514,0.094
		c3.708,0.23,6.612,3.319,6.612,7.03c0,3.878-3.144,7.035-7.017,7.057c-0.042-0.003-0.079-0.005-0.117-0.005l-2.047,0.005h-0.819v2
		h2.819v-0.006c0.042,0.001,0.082,0.006,0.124,0.006c5.001,0,9.057-4.054,9.057-9.057C156.603-75.224,152.849-79.146,148.114-79.44z
		 M120.194-83.058c-0.241-0.016-0.48-0.036-0.725-0.036c-2.537,0-4.865,0.876-6.715,2.334c-2.012-1.294-3.487-3.354-3.976-5.776
		c0.582,0.117,1.178,0.177,1.78,0.177c4.963,0,9-4.037,9-9c0-0.603-0.06-1.198-0.177-1.78c3.733,0.753,6.629,3.824,7.133,7.64
		C123.805-88.056,121.59-85.801,120.194-83.058z"/>
	<circle cx="124.603" cy="-52.866" r="1.5"/>
	<circle cx="132.603" cy="-46.866" r="1.5"/>
	<circle cx="140.603" cy="-50.866" r="1.5"/>
	<rect x="123.603" y="-69.342" width="2" height="11.976"/>
	<polygon points="133.603,-51.401 133.603,-53.342 133.603,-65.342 131.603,-65.342 131.603,-53.342 131.603,-51.401 
		131.603,-51.366 133.603,-51.366 	"/>
	<polygon points="141.603,-55.589 141.603,-57.342 141.603,-69.342 139.603,-69.342 139.603,-57.342 139.603,-55.589 
		139.603,-55.366 141.603,-55.366 	"/>
</g>
<g>
	<rect y="25" width="56" height="2"/>
	<rect x="4" y="31" width="50" height="2"/>
	<rect x="10" y="37" width="36" height="2"/>
	<rect x="2" y="19" width="52" height="2"/>
	<path d="M13.874,10.995c0.175,0,0.347,0.014,0.519,0.025l0.149,0.01l1.316,0.088l0.598-1.176C18.949,5.043,23.899,2,29.376,2
		c6.79,0,12.75,4.814,14.171,11.448l0.318,1.482l1.514,0.095c1.207,0.075,2.335,0.425,3.336,0.975h3.286
		c-1.678-1.703-3.957-2.813-6.498-2.971C43.907,5.584,37.296,0,29.376,0c-6.423,0-11.977,3.678-14.702,9.035
		c-0.266-0.018-0.53-0.04-0.8-0.04c-4.843,0-9.004,2.874-10.9,7.005h2.251C6.956,13.014,10.181,10.995,13.874,10.995z"/>
</g>
<g>
	<rect x="121.103" y="-2.515" width="2" height="7.973"/>
	<rect x="102.103" y="16.399" width="7.973" height="2"/>
	<rect x="106.776" y="5.133" transform="matrix(0.7071 0.7071 -0.7071 0.7071 36.7782 -76.5248)" width="7.974" height="2"/>
	<rect x="132.284" y="2.151" transform="matrix(0.7071 0.7071 -0.7071 0.7071 43.3773 -92.4487)" width="2" height="7.972"/>
	<rect x="111.103" y="31.359" width="50" height="2"/>
	<rect x="115.103" y="37.359" width="44" height="2"/>
	<rect x="121.103" y="42.359" width="30" height="2"/>
	<rect x="113.103" y="25.359" width="46" height="2"/>
	<path d="M114.011,23.359h0.771h1.927h1.012c1.472-1.087,3.283-1.737,5.249-1.737c0.15,0,0.299,0.012,0.447,0.022l0.148,0.01
		l1.314,0.085l0.597-1.175c2.225-4.372,6.644-7.089,11.532-7.089c5.945,0,11.168,4.139,12.563,9.884h2.043v-0.084
		c-1.444-6.742-7.433-11.8-14.605-11.8c-2.185,0-4.258,0.47-6.126,1.313c-1.667-3.202-5.007-5.394-8.866-5.394
		c-5.522,0-10,4.477-10,9.999C112.017,19.636,112.765,21.694,114.011,23.359z M122.017,9.396c3.091,0,5.76,1.773,7.091,4.345
		c-2.298,1.44-4.178,3.488-5.413,5.918c-0.241-0.016-0.48-0.036-0.725-0.036c-2.764,0-5.274,1.045-7.189,2.745
		c-1.097-1.366-1.764-3.089-1.764-4.973C114.017,12.984,117.605,9.396,122.017,9.396z"/>
</g>
<g>
	<rect x="209.847" y="27.922" width="50" height="2"/>
	<rect x="213.847" y="33.922" width="44" height="2"/>
	<rect x="219.847" y="38.922" width="30" height="2"/>
	<rect x="211.847" y="21.922" width="46" height="2"/>
	<path d="M213.489,19.922h0.037h1.884h1.055c1.472-1.087,3.283-1.737,5.249-1.737c0.15,0,0.299,0.012,0.447,0.022l0.148,0.01
		l1.314,0.085l0.597-1.175c2.225-4.372,6.644-7.089,11.532-7.089c5.945,0,11.168,4.139,12.563,9.884h2.043v-0.084
		c-1.444-6.742-7.433-11.8-14.605-11.8c-1.799,0-3.521,0.32-5.117,0.903c-0.945-5.111-5.402-8.987-10.789-8.987
		c-0.413,0-0.819,0.027-1.222,0.071c0.744,1.112,1.179,2.448,1.179,3.886c0,3.865-3.134,7-7,7c-1.438,0-2.773-0.435-3.886-1.179
		c-0.044,0.401-0.071,0.809-0.071,1.222C208.847,14.658,210.683,17.929,213.489,19.922z M212.804,12.911c4.963,0,9-4.037,9-9
		c0-0.603-0.06-1.198-0.177-1.78c3.735,0.753,6.633,3.828,7.134,7.647c-2.712,1.443-4.927,3.699-6.322,6.442
		c-0.241-0.016-0.48-0.036-0.725-0.036c-2.534,0-4.855,0.879-6.701,2.335c-2.02-1.293-3.5-3.356-3.989-5.785
		C211.605,12.852,212.201,12.911,212.804,12.911z"/>
</g>
<g>
	<path d="M341.738,30.936h-19.474l-0.578-0.003c-5.485-0.027-9.948-4.513-9.948-9.998c0-5.514,4.485-10,9.999-10
		c0.175,0,0.347,0.014,0.519,0.025l0.149,0.01l1.316,0.088l0.598-1.176c2.493-4.899,7.443-7.942,12.92-7.942
		c6.79,0,12.75,4.814,14.171,11.448l0.318,1.482l1.514,0.095c1.822,0.113,3.463,0.845,4.746,1.971h2.732
		c-1.707-2.262-4.348-3.78-7.354-3.967c-1.596-7.445-8.207-13.029-16.127-13.029c-6.423,0-11.977,3.678-14.702,9.035
		c-0.266-0.018-0.53-0.04-0.8-0.04c-6.627,0-11.999,5.372-11.999,12c0,6.607,5.34,11.965,11.938,11.998v0.003h20.062
		c2.205,0,4,1.794,4,4s-1.795,4-4,4v2c3.314,0,6-2.686,6-6C347.738,33.622,345.053,30.936,341.738,30.936z"/>
	<path d="M345.738,26.936H329.75v2h15.988c3.314,0,6-2.687,6-6c0-3.314-2.686-6-6-6v2c2.205,0,4,1.794,4,4
		S347.943,26.936,345.738,26.936z"/>
	<path d="M358.738,20.936c1.654,0,3,1.346,3,3s-1.346,3-3,3c-0.043,0-0.083-0.011-0.126-0.013h-4.862
		c0.003,0.005,0.009,0.008,0.012,0.013h-0.023v2h5.5v-0.051c2.523-0.254,4.5-2.358,4.5-4.949c0-2.762-2.238-5-5-5V20.936z"/>
	<path d="M362.738,30.936h-13v2h9.022c-0.004,0.005-0.008,0.008-0.011,0.013h3.862c0.043-0.002,0.083-0.013,0.126-0.013
		c1.654,0,3,1.346,3,3s-1.346,3-3,3v2c2.762,0,5-2.238,5-5S365.5,30.936,362.738,30.936z"/>
	<rect x="323.738" y="26.936" width="4" height="2"/>
</g>
<path d="M134.177-368.168c6.95,1.305,12.226,7.419,12.226,14.742c0,8.272-6.729,15.002-15,15.002c-6.79,0-12.531-4.49-14.366-10.728
	c1.398,0.461,2.867,0.698,4.366,0.698c7.72,0,14-6.281,14-14.001C135.402-364.438,134.979-366.383,134.177-368.168 M131.402-370.425
	c-0.338,0-0.668,0.031-1,0.051c1.861,2.113,3,4.881,3,7.92c0,6.627-5.372,12.001-12,12.001c-2.599,0-4.998-0.835-6.963-2.239
	c0.387,9.047,7.821,16.269,16.963,16.269c9.39,0,17-7.612,17-17.002S140.792-370.425,131.402-370.425L131.402-370.425z"/>
<g>
	<path d="M28.007-365.43c-7.18,0-13,5.819-13,12.999c0,7.181,5.82,13.002,13,13.002s13-5.821,13-13.002
		C41.007-359.61,35.187-365.43,28.007-365.43z M28.007-341.429c-6.065,0-11-4.936-11-11.002c0-6.064,4.935-10.999,11-10.999
		s11,4.935,11,10.999C39.007-346.364,34.072-341.429,28.007-341.429z"/>
	<rect x="27" y="-378.424" width="2" height="10"/>
	<rect x="27" y="-336.424" width="2" height="10"/>
	<rect x="2.007" y="-353.424" width="9.993" height="2"/>
	<rect x="44" y="-353.424" width="10.007" height="2"/>
	<rect x="41.7" y="-372.338" transform="matrix(0.7071 0.7071 -0.7071 0.7071 -247.096 -137.7241)" width="2" height="10.409"/>
	<rect x="12.291" y="-342.929" transform="matrix(-0.7071 -0.7071 0.7071 -0.7071 261.4962 -567.1329)" width="2" height="10.41"/>
	<rect x="8.091" y="-368.128" transform="matrix(0.7071 0.7071 -0.7071 0.7071 -255.7049 -116.9307)" width="10.409" height="2"/>
	<rect x="37.499" y="-338.719" transform="matrix(-0.7072 -0.7071 0.7071 -0.7072 311.6902 -546.3442)" width="10.41" height="2"/>
</g>
<g>
	<rect x="426.173" y="-7.563" width="2" height="7.973"/>
	<rect x="407.2" y="11.424" width="7.973" height="2"/>
	<rect x="411.926" y="0.205" transform="matrix(0.7071 0.7071 -0.7071 0.7071 122.6702 -293.742)" width="7.974" height="2"/>
	<rect x="437.435" y="-2.777" transform="matrix(0.7071 0.7071 -0.7071 0.7071 129.2694 -309.666)" width="2" height="7.972"/>
	<path d="M441.2,34.438l0.005-0.007h-12.536l-0.594-0.003c-4.864-0.024-8.822-4.001-8.822-8.865c0-4.89,3.978-8.868,8.867-8.868
		c0.15,0,0.299,0.012,0.447,0.021l0.148,0.011l1.314,0.085l0.597-1.174c2.225-4.373,6.644-7.09,11.532-7.09
		c5.916,0,11.114,4.099,12.54,9.8h2.065c-1.444-6.742-7.433-11.8-14.605-11.8c-2.185,0-4.258,0.47-6.126,1.313
		c-1.667-3.202-5.007-5.394-8.866-5.394c-5.522,0-10,4.477-10,9.999c0,2.46,0.899,4.702,2.373,6.442
		c-1.429,1.84-2.287,4.144-2.287,6.653c0,5.983,4.836,10.836,10.813,10.865v0.003H441.2v0.007c2.205,0,4,1.794,4,4s-1.795,4-4,4v2
		c3.314,0,6-2.686,6-6C447.2,37.124,444.515,34.438,441.2,34.438z M427.167,4.468c3.091,0,5.76,1.773,7.091,4.345
		c-2.298,1.439-4.178,3.488-5.413,5.918c-0.241-0.016-0.48-0.036-0.725-0.036c-2.766,0-5.282,1.042-7.2,2.743
		c-1.092-1.367-1.753-3.09-1.753-4.971C419.167,8.057,422.756,4.468,427.167,4.468z"/>
	<path d="M445.2,30.438h-9.988v2h9.988c3.314,0,6-2.687,6-6c0-3.314-2.686-6-6-6v2c2.205,0,4,1.794,4,4S447.405,30.438,445.2,30.438
		z"/>
	<path d="M453.224,30.438H453.2v2h5.5v-0.051c2.523-0.254,4.5-2.358,4.5-4.949c0-2.762-2.238-5-5-5v2c1.654,0,3,1.346,3,3
		s-1.346,3-3,3c-0.043,0-0.083-0.011-0.126-0.013h-4.862C453.215,30.43,453.221,30.434,453.224,30.438z"/>
	<path d="M462.2,34.438h-13v2h9.022c-0.004,0.004-0.008,0.008-0.011,0.013h3.862c0.043-0.002,0.083-0.013,0.126-0.013
		c1.654,0,3,1.346,3,3s-1.346,3-3,3v2c2.762,0,5-2.238,5-5S464.962,34.438,462.2,34.438z"/>
	<rect x="429.2" y="30.438" width="4" height="2"/>
</g>
<g>
	<path d="M541.162,32.432l0.005-0.007h-12.536l-0.594-0.003c-4.864-0.024-8.822-4.001-8.822-8.865c0-4.89,3.978-8.868,8.867-8.868
		c0.15,0,0.299,0.012,0.447,0.021l0.148,0.011l1.314,0.085l0.597-1.174c2.225-4.373,6.644-7.09,11.532-7.09
		c5.916,0,11.114,4.099,12.54,9.8h2.065c-1.444-6.742-7.433-11.8-14.605-11.8c-1.806,0-3.536,0.322-5.138,0.91
		c-0.938-5.123-5.4-9.01-10.794-9.01c-0.413,0-0.819,0.027-1.222,0.071c0.744,1.112,1.179,2.448,1.179,3.886c0,3.865-3.134,7-7,7
		c-1.438,0-2.773-0.435-3.886-1.179c-0.044,0.401-0.071,0.809-0.071,1.222c0,3.725,1.858,7.009,4.69,8.998
		c-1.655,1.907-2.665,4.392-2.665,7.116c0,5.983,4.836,10.836,10.813,10.865v0.003h13.135v0.007c2.205,0,4,1.794,4,4s-1.795,4-4,4v2
		c3.314,0,6-2.686,6-6C547.162,35.118,544.477,32.432,541.162,32.432z M517.366,9.223c0.582,0.117,1.178,0.177,1.78,0.177
		c4.963,0,9-4.037,9-9c0-0.603-0.06-1.198-0.177-1.78c3.744,0.755,6.646,3.842,7.138,7.674c-2.702,1.444-4.909,3.696-6.301,6.432
		c-0.241-0.016-0.48-0.036-0.725-0.036c-2.535,0-4.861,0.875-6.71,2.33C519.344,13.727,517.857,11.658,517.366,9.223z"/>
	<path d="M545.162,28.432h-9.988v2h9.988c3.314,0,6-2.687,6-6c0-3.314-2.686-6-6-6v2c2.205,0,4,1.794,4,4
		S547.367,28.432,545.162,28.432z"/>
	<path d="M553.186,28.432h-0.023v2h5.5v-0.051c2.523-0.254,4.5-2.358,4.5-4.949c0-2.762-2.238-5-5-5v2c1.654,0,3,1.346,3,3
		s-1.346,3-3,3c-0.043,0-0.083-0.011-0.126-0.013h-4.862C553.177,28.424,553.183,28.428,553.186,28.432z"/>
	<path d="M562.162,32.432h-13v2h9.022c-0.004,0.004-0.008,0.008-0.011,0.013h3.862c0.043-0.002,0.083-0.013,0.126-0.013
		c1.654,0,3,1.346,3,3s-1.346,3-3,3v2c2.762,0,5-2.238,5-5S564.924,32.432,562.162,32.432z"/>
	<rect x="529.162" y="28.432" width="4" height="2"/>
</g>
<g>
	<rect x="642.055" y="-5" width="2" height="10"/>
	<rect x="617.062" y="20" width="9.993" height="2"/>
	<rect x="656.755" y="1.086" transform="matrix(0.7071 0.7071 -0.7071 0.7071 197.0999 -463.2601)" width="2" height="10.409"/>
	<rect x="623.146" y="5.296" transform="matrix(0.7071 0.7071 -0.7071 0.7071 188.491 -442.4667)" width="10.409" height="2"/>
	<path d="M647.055,35h-24v2h24c2.205,0,4,1.794,4,4s-1.795,4-4,4v2c3.314,0,6-2.686,6-6C653.055,37.687,650.369,35,647.055,35z"/>
	<path d="M659.078,31h-0.023v2h5.5v-0.051c2.523-0.254,4.5-2.358,4.5-4.949c0-2.762-2.238-5-5-5v2c1.654,0,3,1.346,3,3s-1.346,3-3,3
		c-0.043,0-0.083-0.011-0.126-0.013h-4.862C659.069,30.992,659.075,30.996,659.078,31z"/>
	<path d="M668.055,35h-13v2h9.022c-0.004,0.004-0.008,0.008-0.011,0.013h3.862c0.043-0.002,0.083-0.013,0.126-0.013
		c1.654,0,3,1.346,3,3s-1.346,3-3,3v2c2.762,0,5-2.238,5-5S670.816,35,668.055,35z"/>
	<path d="M634.764,31h-11.709v2h12.012h0.822h15.166c3.314,0,6-2.687,6-6c0-3.314-2.686-6-6-6v2c2.205,0,4,1.794,4,4s-1.795,4-4,4
		h-12.538c-3.802-1.734-6.455-5.563-6.455-10.007c0-6.064,4.935-10.999,11-10.999c5.384,0,9.868,3.891,10.81,9.006h2.021
		c-0.961-6.23-6.331-11.006-12.831-11.006c-7.18,0-13,5.819-13,12.999C630.062,25.019,631.892,28.615,634.764,31z"/>
</g>
<g>
	<path d="M747.281,28.443h-24v2h24c2.205,0,4,1.794,4,4s-1.795,4-4,4v2c3.314,0,6-2.686,6-6
		C753.281,31.13,750.596,28.443,747.281,28.443z"/>
	<path d="M764.781,26.443v-0.051c2.523-0.254,4.5-2.358,4.5-4.949c0-2.762-2.238-5-5-5v2c1.654,0,3,1.346,3,3s-1.346,3-3,3
		c-0.043,0-0.083-0.011-0.126-0.013h-4.862c0.004,0.005,0.009,0.009,0.012,0.013h-0.023v2H764.781z"/>
	<path d="M768.281,28.443h-13v2h9.022c-0.003,0.004-0.007,0.008-0.011,0.013h3.862c0.043-0.002,0.083-0.013,0.126-0.013
		c1.654,0,3,1.346,3,3s-1.346,3-3,3v2c2.762,0,5-2.238,5-5S771.043,28.443,768.281,28.443z"/>
	<path d="M736.115,26.443h15.166c3.314,0,6-2.687,6-6c0-3.314-2.686-6-6-6v2c2.205,0,4,1.794,4,4s-1.795,4-4,4h-12.586
		c-2.596-1.188-4.658-3.339-5.69-6.034c0.849,0.204,1.724,0.309,2.612,0.309c6.168,0,11.187-5.019,11.187-11.188
		c0-1.276-0.22-2.532-0.64-3.717c4.046,1.102,7.168,4.459,7.937,8.63h2.018c-0.964-6.237-6.338-11.016-12.846-11.016
		c-0.259,0-0.511,0.024-0.766,0.039c1.425,1.618,2.297,3.737,2.297,6.063c0,5.072-4.112,9.188-9.187,9.188
		c-1.988,0-3.826-0.641-5.33-1.715c0.162,3.801,1.962,7.165,4.699,9.44h-11.705v2h12.012H736.115z"/>
</g>
<g>
	<path d="M27.5,113.637h-20c-1.103,0-2-0.897-2-2s0.897-2,2-2h3.445H11.5v-2h-4c-2.209,0-4,1.791-4,4s1.791,4,4,4h20
		c2.205,0,4,1.794,4,4s-1.795,4-4,4v2c3.314,0,6-2.686,6-6C33.5,116.323,30.814,113.637,27.5,113.637z"/>
	<path d="M29.5,97.637v2c2.205,0,4,1.794,4,4s-1.795,4-4,4H13.512v2H29.5c3.314,0,6-2.687,6-6
		C35.5,100.322,32.814,97.637,29.5,97.637z"/>
	<path d="M35.5,109.637v2H41v-0.051c2.523-0.254,4.5-2.358,4.5-4.949c0-2.762-2.238-5-5-5v2c1.654,0,3,1.346,3,3s-1.346,3-3,3
		c-0.043,0-0.083-0.011-0.126-0.013h-4.862c0.003,0.005,0.009,0.009,0.012,0.013H35.5z"/>
	<path d="M46.5,113.637h-11v2h7.022c-0.004,0.004-0.008,0.008-0.011,0.013h3.862c0.043-0.002,0.083-0.013,0.126-0.013
		c1.654,0,3,1.346,3,3s-1.346,3-3,3v2c2.762,0,5-2.238,5-5S49.262,113.637,46.5,113.637z"/>
</g>
<path d="M563.792,99.983v-0.038h-38.376c-1.103,0-2-0.897-2-2s0.897-2,2-2h33c2.762,0,5-2.238,5-5s-2.238-5-5-5h-37.875v0.008
	c-0.042-0.001-0.083-0.008-0.125-0.008c-2.762,0-5,2.238-5,5s2.238,5,5,5v-2c-1.654,0-3-1.346-3-3s1.346-3,3-3h0.125h3.853h34.022
	c1.654,0,3,1.346,3,3s-1.346,3-3,3h-33c-2.209,0-4,1.791-4,4s1.791,4,4,4h38c1.103,0,2,0.897,2,2s-0.897,2-2,2h-32
	c-2.209,0-4,1.791-4,4s1.791,4,4,4h22c1.103,0,2,0.897,2,2s-0.897,2-2,2h-24.01v0.001c-2.204,0.006-3.99,1.793-3.99,3.999
	s1.786,3.993,3.99,3.999v0.001h12.01c1.103,0,2,0.897,2,2s-0.897,2-2,2h-2c-2.209,0-4,1.791-4,4s1.791,4,4,4v-2
	c-1.103,0-2-0.897-2-2s0.897-2,2-2h2c2.209,0,4-1.791,4-4s-1.791-4-4-4h-12c-1.103,0-2-0.897-2-2s0.897-2,2-2h24
	c2.209,0,4-1.791,4-4c0-2.152-1.704-3.895-3.834-3.983v-0.017h-22.166c-1.103,0-2-0.897-2-2s0.897-2,2-2h32c2.209,0,4-1.791,4-4
	C567.416,101.865,565.822,100.176,563.792,99.983z"/>
<path d="M749.207,90.661v-2.024h-2v2.024c-13.01,0.513-23.462,10.965-23.975,23.976h1.674c1.14-1.222,2.748-2,4.551-2
	c2.26,0,4.233,1.203,5.331,3h1.838c1.098-1.797,3.071-3,5.331-3c2.204,0,4.137,1.144,5.25,2.866v15.134c0,2.21,1.791,4,4,4
	s4-1.79,4-4h-2c0,1.103-0.897,2-2,2s-2-0.897-2-2v-15.134c1.113-1.723,3.046-2.866,5.25-2.866c2.26,0,4.233,1.203,5.331,3h1.838
	c1.098-1.797,3.071-3,5.331-3c1.803,0,3.411,0.778,4.551,2h1.674C772.669,101.626,762.217,91.174,749.207,90.661z M766.957,110.637
	c-2.496,0-4.736,1.114-6.25,2.87c-1.514-1.756-3.754-2.87-6.25-2.87s-4.736,1.114-6.25,2.87c-1.514-1.756-3.754-2.87-6.25-2.87
	s-4.736,1.114-6.25,2.87c-1.514-1.756-3.755-2.87-6.25-2.87c-1.402,0-2.731,0.351-3.897,0.975
	c1.909-10.769,11.339-18.975,22.647-18.975s20.738,8.206,22.647,18.975C769.688,110.987,768.359,110.637,766.957,110.637z"/>
<g>
	<path d="M343.912,214.949v-17.105c0-2.762-2.238-5-5-5s-5,2.238-5,5v17.105c-1.236,1.263-2,2.988-2,4.895c0,3.866,3.134,7,7,7
		s7-3.134,7-7C345.912,217.938,345.148,216.212,343.912,214.949z M338.912,224.844c-2.757,0-5-2.243-5-5
		c0-1.313,0.508-2.554,1.429-3.495l0.571-0.583v-0.816v-17.105c0-1.654,1.346-3,3-3s3,1.346,3,3v17.105v0.816l0.571,0.583
		c0.921,0.941,1.429,2.183,1.429,3.495C343.912,222.601,341.669,224.844,338.912,224.844z"/>
	<path d="M339.912,217.02v-15.176h-2v15.176c-1.167,0.413-2.008,1.516-2.008,2.824c0,1.662,1.347,3.008,3.008,3.008
		c1.662,0,3.008-1.346,3.008-3.008C341.92,218.535,341.08,217.433,339.912,217.02z M338.912,220.852
		c-0.556,0-1.008-0.452-1.008-1.008s0.452-1.008,1.008-1.008s1.008,0.452,1.008,1.008S339.468,220.852,338.912,220.852z"/>
</g>
<g>
	<path d="M443.7,214.949v-17.105c0-2.762-2.238-5-5-5s-5,2.238-5,5v17.105c-1.236,1.263-2,2.988-2,4.895c0,3.866,3.134,7,7,7
		s7-3.134,7-7C445.7,217.938,444.937,216.212,443.7,214.949z M438.7,224.844c-2.757,0-5-2.243-5-5c0-1.313,0.508-2.554,1.429-3.495
		l0.571-0.583v-0.816v-17.105c0-1.654,1.346-3,3-3s3,1.346,3,3v17.105v0.816l0.571,0.583c0.921,0.941,1.429,2.183,1.429,3.495
		C443.7,222.601,441.457,224.844,438.7,224.844z"/>
	<path d="M439.7,217.02v-20.176h-2v20.176c-1.167,0.413-2.008,1.516-2.008,2.824c0,1.662,1.347,3.008,3.008,3.008
		c1.662,0,3.008-1.346,3.008-3.008C441.708,218.535,440.868,217.433,439.7,217.02z M438.7,220.852c-0.556,0-1.008-0.452-1.008-1.008
		s0.452-1.008,1.008-1.008s1.008,0.452,1.008,1.008S439.256,220.852,438.7,220.852z"/>
</g>
<g>
	<path d="M240.803,214.949v-17.105c0-2.762-2.238-5-5-5s-5,2.238-5,5v17.105c-1.236,1.263-2,2.988-2,4.895c0,3.866,3.134,7,7,7
		s7-3.134,7-7C242.803,217.938,242.039,216.212,240.803,214.949z M235.803,224.844c-2.757,0-5-2.243-5-5
		c0-1.313,0.508-2.554,1.429-3.495l0.571-0.583v-0.816v-17.105c0-1.654,1.346-3,3-3s3,1.346,3,3v17.105v0.816l0.571,0.583
		c0.921,0.941,1.429,2.183,1.429,3.495C240.803,222.601,238.56,224.844,235.803,224.844z"/>
	<path d="M236.803,217.02v-10.176h-2v10.176c-1.167,0.413-2.008,1.516-2.008,2.824c0,1.662,1.347,3.008,3.008,3.008
		c1.662,0,3.008-1.346,3.008-3.008C238.811,218.535,237.971,217.433,236.803,217.02z M235.803,220.852
		c-0.556,0-1.008-0.452-1.008-1.008s0.452-1.008,1.008-1.008s1.008,0.452,1.008,1.008S236.358,220.852,235.803,220.852z"/>
</g>
<g>
	<path d="M137.157,214.949v-17.105c0-2.762-2.238-5-5-5s-5,2.238-5,5v17.105c-1.236,1.263-2,2.988-2,4.895c0,3.866,3.134,7,7,7
		s7-3.134,7-7C139.157,217.938,138.394,216.212,137.157,214.949z M132.157,224.844c-2.757,0-5-2.243-5-5
		c0-1.313,0.508-2.554,1.429-3.495l0.571-0.583v-0.816v-17.105c0-1.654,1.346-3,3-3s3,1.346,3,3v17.105v0.816l0.571,0.583
		c0.921,0.941,1.429,2.183,1.429,3.495C137.157,222.601,134.914,224.844,132.157,224.844z"/>
	<path d="M133.157,217.02v-5.176h-2v5.176c-1.167,0.413-2.008,1.516-2.008,2.824c0,1.662,1.347,3.008,3.008,3.008
		c1.662,0,3.008-1.346,3.008-3.008C135.165,218.535,134.325,217.433,133.157,217.02z M132.157,220.852
		c-0.556,0-1.008-0.452-1.008-1.008s0.452-1.008,1.008-1.008s1.008,0.452,1.008,1.008S132.713,220.852,132.157,220.852z"/>
</g>
<g>
	<path d="M32.5,214.949v-17.105c0-2.762-2.238-5-5-5s-5,2.238-5,5v17.105c-1.236,1.263-2,2.988-2,4.895c0,3.866,3.134,7,7,7
		s7-3.134,7-7C34.5,217.938,33.736,216.212,32.5,214.949z M27.5,224.844c-2.757,0-5-2.243-5-5c0-1.313,0.508-2.554,1.429-3.495
		l0.571-0.583v-0.816v-17.105c0-1.654,1.346-3,3-3s3,1.346,3,3v17.105v0.816l0.571,0.583c0.921,0.941,1.429,2.183,1.429,3.495
		C32.5,222.601,30.257,224.844,27.5,224.844z"/>
	<path d="M27.5,216.836c-1.661,0-3.008,1.347-3.008,3.008c0,1.662,1.347,3.008,3.008,3.008c1.662,0,3.008-1.346,3.008-3.008
		C30.508,218.183,29.162,216.836,27.5,216.836z M27.5,220.852c-0.556,0-1.008-0.452-1.008-1.008s0.452-1.008,1.008-1.008
		s1.008,0.452,1.008,1.008S28.056,220.852,27.5,220.852z"/>
</g>
<g>
	<path d="M532.425,195.156c-2.209,0-4,1.791-4,4c0,2.21,1.791,4,4,4c2.211,0,4-1.79,4-4
		C536.425,196.947,534.636,195.156,532.425,195.156z M532.425,201.156c-1.103,0-2-0.897-2-2s0.897-2,2-2s2,0.897,2,2
		S533.527,201.156,532.425,201.156z"/>
	<path d="M546.425,223.156c-4.41,0-7.999-3.589-7.999-7.999v-4.002c0-4.41,3.589-7.999,7.999-7.999c2.715,0,5.115,1.362,6.563,3.437
		l1.43-1.43c-1.824-2.429-4.72-4.007-7.992-4.007c-5.522,0-9.999,4.478-9.999,9.999v4.002c0,5.521,4.477,9.999,9.999,9.999
		c3.272,0,6.168-1.579,7.992-4.008l-1.43-1.43C551.541,221.793,549.141,223.156,546.425,223.156z"/>
</g>
<g>
	<path d="M637.121,195.035c-2.209,0-4,1.791-4,4c0,2.21,1.791,4,4,4c2.211,0,4-1.79,4-4
		C641.121,196.826,639.332,195.035,637.121,195.035z M637.121,201.035c-1.103,0-2-0.897-2-2s0.897-2,2-2s2,0.897,2,2
		S638.224,201.035,637.121,201.035z"/>
	<polygon points="656.996,203.156 656.996,201.156 644.996,201.156 642.996,201.156 642.996,225.156 644.996,225.156 
		644.996,213.156 652.996,213.156 652.996,211.156 644.996,211.156 644.996,203.156 	"/>
</g>
<g>
	<path d="M748.207,198.848c-7.179,0-13,5.82-13,13s5.821,13,13,13s13-5.82,13-13S755.386,198.848,748.207,198.848z M748.207,222.848
		c-6.065,0-11-4.935-11-11s4.935-11,11-11s11,4.935,11,11S754.272,222.848,748.207,222.848z"/>
	<path d="M743.94,216.09l6.363-2.121l2.121-6.364l-6.363,2.122L743.94,216.09z M747.643,211.308l1.62-0.54l-0.54,1.62l-1.62,0.54
		L747.643,211.308z"/>
</g>
<g>
	<path d="M27.5,289.365c-7.179,0-13,5.82-13,13s5.821,13,13,13s13-5.82,13-13S34.679,289.365,27.5,289.365z M27.5,313.365
		c-6.065,0-11-4.934-11-11c0-6.064,4.935-11,11-11s11,4.936,11,11C38.5,308.432,33.565,313.365,27.5,313.365z"/>
	<path d="M30.062,300.787l-2.586-4.422l-2.529,4.33h0.007c-0.299,0.467-0.478,1.018-0.478,1.613c0,1.656,1.343,3,3,3s3-1.344,3-3
		c0-0.559-0.162-1.074-0.428-1.521H30.062z M27.476,303.309c-0.552,0-1-0.449-1-1c0-0.188,0.055-0.367,0.162-0.535l0.864-1.355
		l0.826,1.391c0.098,0.164,0.147,0.332,0.147,0.5C28.476,302.859,28.027,303.309,27.476,303.309z"/>
</g>
<g>
	<path d="M132.284,289.365c-7.18,0-13,5.82-13,13s5.82,13,13,13s13-5.82,13-13S139.464,289.365,132.284,289.365z M132.284,313.365
		c-6.065,0-11-4.934-11-11c0-6.064,4.935-11,11-11s11,4.936,11,11C143.284,308.432,138.35,313.365,132.284,313.365z"/>
	<path d="M133.873,299.785c-0.467-0.299-1.018-0.477-1.613-0.477c-1.658,0-3,1.342-3,3c0,1.656,1.342,3,3,3
		c0.557,0,1.072-0.162,1.52-0.428v0.014l4.422-2.586l-4.328-2.529V299.785z M132.758,303.16c-0.164,0.098-0.332,0.148-0.498,0.148
		c-0.552,0-1-0.449-1-1c0-0.553,0.448-1,1-1c0.188,0,0.368,0.053,0.535,0.16l1.355,0.865L132.758,303.16z"/>
</g>
<g>
	<path d="M235.335,289.365c-7.18,0-13,5.82-13,13s5.82,13,13,13s13-5.82,13-13S242.515,289.365,235.335,289.365z M235.335,313.365
		c-6.065,0-11-4.934-11-11c0-6.064,4.935-11,11-11s11,4.936,11,11C246.335,308.432,241.4,313.365,235.335,313.365z"/>
	<path d="M235.335,299.309c-1.656,0-3,1.342-3,3c0,0.557,0.162,1.072,0.428,1.52h-0.014l2.586,4.422l2.529-4.328h-0.006
		c0.299-0.467,0.477-1.018,0.477-1.613C238.335,300.65,236.993,299.309,235.335,299.309z M236.174,302.844l-0.865,1.355
		l-0.826-1.393c-0.098-0.164-0.147-0.332-0.147-0.498c0-0.553,0.448-1,1-1s1,0.447,1,1
		C236.335,302.496,236.281,302.676,236.174,302.844z"/>
</g>
<g>
	<path d="M338.749,289.365c-7.179,0-13,5.82-13,13s5.821,13,13,13s13-5.82,13-13S345.928,289.365,338.749,289.365z M338.749,313.365
		c-6.065,0-11-4.934-11-11c0-6.064,4.935-11,11-11s11,4.936,11,11C349.749,308.432,344.814,313.365,338.749,313.365z"/>
	<path d="M338.708,299.309c-0.557,0-1.072,0.162-1.52,0.428v-0.014l-4.422,2.586l4.328,2.529v-0.006
		c0.467,0.299,1.018,0.477,1.613,0.477c1.658,0,3-1.342,3-3C341.708,300.652,340.366,299.309,338.708,299.309z M338.708,303.309
		c-0.188,0-0.368-0.055-0.535-0.162l-1.355-0.865l1.393-0.826c0.164-0.098,0.332-0.146,0.498-0.146c0.552,0,1,0.447,1,1
		C339.708,302.859,339.26,303.309,338.708,303.309z"/>
</g>
<g>
	<rect x="130.598" y="92.637" width="2" height="10"/>
	<rect x="145.297" y="98.723" transform="matrix(0.7071 0.7071 -0.7071 0.7071 116.3372 -73.0083)" width="2" height="10.409"/>
	<rect x="111.689" y="102.932" transform="matrix(0.7071 0.7071 -0.7071 0.7071 107.7283 -52.2149)" width="10.409" height="2"/>
	<polygon points="124.93,121.891 126.344,123.305 130.598,119.051 130.598,128.637 132.598,128.637 132.598,119.051 
		136.851,123.305 138.265,121.891 131.598,115.223 	"/>
	<path d="M144.604,118.636c0-0.002,0-0.004,0-0.006c0-7.18-5.82-12.999-13-12.999s-13,5.819-13,12.999c0,0.002,0,0.004,0,0.006h-13
		v2h18v-2h-3c0-0.002,0-0.004,0-0.006c0-6.064,4.935-10.999,11-10.999s11,4.935,11,10.999c0,0.002,0,0.004,0,0.006h-3v2H157.6v-2
		H144.604z"/>
</g>
<g>
	<rect x="234.343" y="91.449" width="2" height="10"/>
	<rect x="249.043" y="97.535" transform="matrix(0.7071 0.7071 -0.7071 0.7071 145.8837 -146.715)" width="2" height="10.409"/>
	<rect x="215.434" y="101.745" transform="matrix(0.7071 0.7071 -0.7071 0.7071 137.2748 -125.9215)" width="10.409" height="2"/>
	<polygon points="236.343,125.996 236.343,115.449 234.343,115.449 234.343,125.996 230.089,121.742 228.675,123.156 
		235.343,129.824 242.01,123.156 240.596,121.742 	"/>
	<path d="M248.35,117.448c0-0.002,0-0.004,0-0.006c0-7.18-5.82-12.999-13-12.999s-13,5.819-13,12.999c0,0.002,0,0.004,0,0.006h-13v2
		h22v-2h-7c0-0.002,0-0.004,0-0.006c0-6.064,4.935-10.999,11-10.999s11,4.935,11,10.999c0,0.002,0,0.004,0,0.006h-7v2h21.995v-2
		H248.35z"/>
</g>
<g>
	<polygon points="438.7,125.462 438.7,111.079 436.7,111.079 436.7,125.462 432.446,121.208 431.032,122.622 437.7,129.29 
		444.367,122.622 442.953,121.208 	"/>
	<path d="M454.328,106.108c-1.596-7.445-8.207-13.029-16.127-13.029c-6.423,0-11.977,3.678-14.702,9.035
		c-0.266-0.018-0.53-0.04-0.8-0.04c-6.627,0-11.999,5.372-11.999,12c0,6.607,5.34,11.965,11.938,11.998v0.003h6.062v-2h-5.604
		l-0.447-0.003c-5.485-0.027-9.948-4.513-9.948-9.998c0-5.514,4.485-10,9.999-10c0.175,0,0.347,0.014,0.52,0.025l0.148,0.01
		l1.316,0.088l0.598-1.176c2.492-4.899,7.443-7.942,12.92-7.942c6.79,0,12.75,4.814,14.172,11.448l0.317,1.482l1.514,0.095
		c4.203,0.262,7.496,3.763,7.496,7.971c0,4.397-3.565,7.977-7.957,8c-0.05-0.003-0.093-0.005-0.137-0.007l-2.043,0.007H446.7v2
		h6.863v-0.007c0.046,0.001,0.091,0.007,0.137,0.007c5.521,0,10-4.477,10-10C463.7,110.765,459.556,106.434,454.328,106.108z"/>
</g>
<g>
	<polygon points="344.685,122.267 346.099,120.853 339.432,114.185 332.764,120.853 334.178,122.267 338.432,118.013 
		338.432,130.599 340.432,130.599 340.432,118.013 	"/>
	<path d="M356.06,107.704c-1.596-7.445-8.207-13.029-16.127-13.029c-6.423,0-11.977,3.678-14.702,9.035
		c-0.266-0.018-0.53-0.04-0.8-0.04c-6.627,0-11.999,5.372-11.999,12c0,6.607,5.34,11.965,11.938,11.998v0.003h10.062v-2h-9.604
		l-0.447-0.003c-5.485-0.027-9.948-4.513-9.948-9.998c0-5.514,4.485-10,9.999-10c0.175,0,0.347,0.014,0.52,0.025l0.148,0.01
		l1.316,0.088l0.598-1.176c2.492-4.899,7.443-7.942,12.92-7.942c6.79,0,12.75,4.814,14.172,11.448l0.317,1.482l1.514,0.095
		c4.203,0.262,7.496,3.763,7.496,7.971c0,4.397-3.565,7.977-7.957,8c-0.05-0.003-0.093-0.005-0.137-0.007l-2.043,0.007h-8.863v2
		h10.863v-0.007c0.046,0.001,0.091,0.007,0.137,0.007c5.521,0,10-4.477,10-10C365.432,112.36,361.287,108.029,356.06,107.704z"/>
</g>
<g>
	<path d="M558.549-81.812c-1.596-7.445-8.207-13.029-16.127-13.029c-6.423,0-11.977,3.678-14.702,9.035
		c-0.266-0.018-0.53-0.04-0.8-0.04c-6.627,0-11.999,5.372-11.999,12c0,6.607,5.34,11.965,11.938,11.998v0.003h2.062v-2h-1.604
		l-0.447-0.003c-5.485-0.027-9.948-4.513-9.948-9.998c0-5.514,4.485-10,9.999-10c0.175,0,0.347,0.014,0.52,0.025l0.148,0.01
		l1.316,0.088l0.598-1.176c2.492-4.899,7.443-7.942,12.92-7.942c6.79,0,12.75,4.814,14.172,11.448l0.317,1.482l1.514,0.095
		c4.203,0.262,7.496,3.763,7.496,7.971c0,4.397-3.565,7.977-7.957,8c-0.05-0.003-0.093-0.005-0.137-0.007l-2.043,0.007h-0.863v2
		h2.863v-0.007c0.046,0.001,0.091,0.007,0.137,0.007c5.521,0,10-4.477,10-10C567.921-77.155,563.776-81.486,558.549-81.812z"/>
	<polygon points="536.921,-62.823 536.921,-65.453 539.094,-64.23 539.779,-65.451 537.31,-66.841 539.779,-68.23 539.094,-69.451 
		536.921,-68.229 536.921,-70.823 534.921,-70.823 534.921,-68.185 532.67,-69.451 531.984,-68.23 534.454,-66.841 531.984,-65.451 
		532.67,-64.23 534.921,-65.497 534.921,-62.823 	"/>
	<polygon points="542.083,-58.469 539.91,-57.246 539.91,-59.841 537.91,-59.841 537.91,-57.202 535.659,-58.469 534.974,-57.248 
		537.443,-55.858 534.974,-54.469 535.659,-53.248 537.91,-54.515 537.91,-51.841 539.91,-51.841 539.91,-54.471 542.083,-53.248 
		542.769,-54.469 540.299,-55.858 542.769,-57.248 	"/>
	<polygon points="551.099,-65.451 548.926,-64.229 548.926,-66.823 546.926,-66.823 546.926,-64.185 544.675,-65.451 
		543.989,-64.23 546.459,-62.841 543.989,-61.451 544.675,-60.23 546.926,-61.497 546.926,-58.823 548.926,-58.823 548.926,-61.453 
		551.099,-60.23 551.784,-61.451 549.314,-62.841 551.784,-64.23 	"/>
</g>
<g>
	<rect x="634.061" y="-99.863" width="2" height="7.973"/>
	<rect x="615.061" y="-80.949" width="7.973" height="2"/>
	<rect x="619.734" y="-92.216" transform="matrix(0.7071 0.7071 -0.7071 0.7071 118.1842 -467.7536)" width="7.974" height="2"/>
	<rect x="645.242" y="-95.198" transform="matrix(0.7071 0.7071 -0.7071 0.7071 124.7834 -483.6776)" width="2" height="7.972"/>
	<path d="M664.572-74.073c-1.444-6.742-7.433-11.8-14.605-11.8c-2.185,0-4.258,0.471-6.127,1.314
		c-1.666-3.203-5.006-5.395-8.865-5.395c-5.522,0-10,4.477-10,9.999c0,2.46,0.899,4.702,2.373,6.442
		c-1.428,1.84-2.287,4.144-2.287,6.653c0,5.983,4.836,10.836,10.813,10.865v0.003h1.188v-2h-0.721l-0.457-0.003
		c-4.864-0.023-8.822-4.001-8.822-8.865c0-4.89,3.978-8.868,8.867-8.868c0.15,0,0.299,0.012,0.447,0.022l0.148,0.01l1.314,0.085
		l0.597-1.175c2.225-4.372,6.644-7.089,11.532-7.089c6.062,0,11.382,4.298,12.649,10.219l0.318,1.483l1.514,0.094
		c3.708,0.23,6.612,3.319,6.612,7.03c0,3.878-3.144,7.035-7.017,7.057c-0.042-0.003-0.079-0.005-0.117-0.005l-1.866,0.005v2h1.819
		v-0.006c0.042,0.001,0.082,0.006,0.124,0.006c5.001,0,9.057-4.054,9.057-9.057C673.061-69.856,669.307-73.778,664.572-74.073z
		 M636.652-77.69c-0.241-0.016-0.48-0.036-0.725-0.036c-2.766,0-5.282,1.041-7.2,2.742c-1.092-1.365-1.753-3.089-1.753-4.97
		c0-4.41,3.589-7.999,8-7.999c3.092,0,5.76,1.773,7.091,4.346C639.768-82.168,637.889-80.12,636.652-77.69z"/>
	<polygon points="644.053,-56.971 644.053,-59.601 646.226,-58.378 646.911,-59.599 644.441,-60.988 646.911,-62.378 
		646.226,-63.599 644.053,-62.376 644.053,-64.971 642.053,-64.971 642.053,-62.332 639.802,-63.599 639.116,-62.378 
		641.586,-60.988 639.116,-59.599 639.802,-58.378 642.053,-59.645 642.053,-56.971 	"/>
	<polygon points="649.215,-52.616 647.042,-51.394 647.042,-53.988 645.042,-53.988 645.042,-51.35 642.791,-52.616 
		642.105,-51.396 644.575,-50.006 642.105,-48.616 642.791,-47.396 645.042,-48.662 645.042,-45.988 647.042,-45.988 
		647.042,-48.618 649.215,-47.396 649.9,-48.616 647.431,-50.006 649.9,-51.396 	"/>
	<polygon points="658.23,-59.599 656.058,-58.376 656.058,-60.971 654.058,-60.971 654.058,-58.332 651.807,-59.599 
		651.121,-58.378 653.591,-56.988 651.121,-55.599 651.807,-54.378 654.058,-55.645 654.058,-52.971 656.058,-52.971 
		656.058,-55.601 658.23,-54.378 658.916,-55.599 656.446,-56.988 658.916,-58.378 	"/>
</g>
<g>
	<path d="M764.761-77.076c-1.444-6.742-7.433-11.8-14.605-11.8c-1.799,0-3.522,0.32-5.118,0.904
		c-0.949-5.108-5.404-8.98-10.788-8.98c-0.413,0-0.819,0.027-1.222,0.071c0.744,1.112,1.179,2.448,1.179,3.886c0,3.865-3.134,7-7,7
		c-1.438,0-2.773-0.435-3.886-1.179c-0.044,0.401-0.071,0.809-0.071,1.222c0,3.713,1.845,6.987,4.661,8.979
		c-1.653,1.907-2.661,4.389-2.661,7.111c0,5.983,4.836,10.836,10.813,10.865v0.003h1.188v-2h-0.721l-0.457-0.003
		c-4.864-0.023-8.822-4.001-8.822-8.865c0-4.89,3.978-8.868,8.867-8.868c0.15,0,0.299,0.012,0.447,0.022l0.148,0.01l1.314,0.085
		l0.597-1.175c2.225-4.372,6.644-7.089,11.532-7.089c6.062,0,11.382,4.298,12.649,10.219l0.318,1.483l1.514,0.094
		c3.708,0.23,6.612,3.319,6.612,7.03c0,3.878-3.144,7.035-7.017,7.057c-0.042-0.003-0.079-0.005-0.117-0.005l-1.866,0.005v2h1.819
		v-0.006c0.042,0.001,0.082,0.006,0.124,0.006c5.001,0,9.057-4.054,9.057-9.057C773.249-72.859,769.495-76.781,764.761-77.076z
		 M736.841-80.693c-0.241-0.016-0.48-0.036-0.725-0.036c-2.537,0-4.865,0.877-6.715,2.334c-2.012-1.294-3.486-3.354-3.976-5.776
		c0.582,0.117,1.178,0.177,1.78,0.177c4.963,0,9-4.037,9-9c0-0.603-0.06-1.198-0.177-1.78c3.733,0.753,6.629,3.824,7.134,7.64
		C740.45-85.691,738.235-83.437,736.841-80.693z"/>
	<polygon points="744.286,-59.974 744.286,-62.604 746.459,-61.381 747.145,-62.602 744.675,-63.991 747.145,-65.381 
		746.459,-66.602 744.286,-65.379 744.286,-67.974 742.286,-67.974 742.286,-65.335 740.035,-66.602 739.35,-65.381 
		741.819,-63.991 739.35,-62.602 740.035,-61.381 742.286,-62.647 742.286,-59.974 	"/>
	<polygon points="749.448,-55.619 747.275,-54.396 747.275,-56.991 745.275,-56.991 745.275,-54.353 743.024,-55.619 
		742.339,-54.398 744.809,-53.009 742.339,-51.619 743.024,-50.398 745.275,-51.665 745.275,-48.991 747.275,-48.991 
		747.275,-51.621 749.448,-50.398 750.134,-51.619 747.664,-53.009 750.134,-54.398 	"/>
	<polygon points="758.464,-62.602 756.291,-61.379 756.291,-63.974 754.291,-63.974 754.291,-61.335 752.04,-62.602 
		751.354,-61.381 753.824,-59.991 751.354,-58.602 752.04,-57.381 754.291,-58.647 754.291,-55.974 756.291,-55.974 
		756.291,-58.604 758.464,-57.381 759.149,-58.602 756.68,-59.991 759.149,-61.381 	"/>
</g>
<rect x="148.402" y="-644.826" fill="none" width="472.974" height="180.918"/>
<text transform="matrix(1 0 0 1 328.0396 -573.4272)"><tspan x="0" y="0" font-family="'HelveticaNeueLTStd-Th'" font-size="100" letter-spacing="2">60</tspan><tspan x="-99.268" y="60" font-family="'HelveticaNeueLTStd-Lt'" font-size="48" letter-spacing="1">Weather Icons</tspan><tspan x="-3.726" y="104" font-family="'HelveticaNeueLTStd-Lt'" font-size="24">IOS 7 Style</tspan></text>
</svg>
