<?xml version="1.0" encoding="utf-8"?>
<!-- Generator: Adobe Illustrator 16.0.0, SVG Export Plug-In . SVG Version: 6.00 Build 0)  -->
<!DOCTYPE svg PUBLIC "-//W3C//DTD SVG 1.1//EN" "http://www.w3.org/Graphics/SVG/1.1/DTD/svg11.dtd">
<svg version="1.1" id="Layer_1" xmlns="http://www.w3.org/2000/svg" xmlns:xlink="http://www.w3.org/1999/xlink" x="0px" y="0px"
	 width="50px" height="53.95px" viewBox="0 0 50 53.95" enable-background="new 0 0 50 53.95" xml:space="preserve">
<path d="M542.269,193.655l-1.803,15.077l-0.268,2.237h2.254h6.896l-14.693,18.759l1.789-14.52l0.277-2.245h-2.262h-6.957
	L542.269,193.655 M545.123,186.631l-21.667,28.333h11.004l-2.671,21.667l21.667-27.661h-11.004L545.123,186.631L545.123,186.631z"/>
<path d="M129.233-268.605c6.79,0,12.749,4.814,14.171,11.448l0.318,1.483l1.514,0.094c4.203,0.262,7.496,3.763,7.496,7.971
	c0,4.396-3.565,7.977-7.957,8c-0.046-0.003-0.091-0.006-0.137-0.007l-2.043-0.036v0.043h-28.337l-0.578-0.003
	c-5.485-0.027-9.948-4.513-9.948-9.998c0-5.514,4.485-10,9.999-10c0.175,0,0.347,0.014,0.519,0.025l0.149,0.011l1.316,0.087
	l0.598-1.176C118.807-265.563,123.757-268.605,129.233-268.605 M129.233-270.605c-6.423,0-11.977,3.678-14.702,9.035
	c-0.266-0.018-0.53-0.04-0.8-0.04c-6.627,0-11.999,5.372-11.999,12c0,6.607,5.34,11.965,11.938,11.998v0.003h30.925v-0.007
	c0.046,0.001,0.091,0.007,0.137,0.007c5.521,0,10-4.477,10-10c0-5.311-4.145-9.642-9.372-9.967
	C143.765-265.021,137.153-270.605,129.233-270.605L129.233-270.605z"/>
<g>
	<path d="M252.185-250.194c-1.444-6.742-7.433-11.8-14.605-11.8c-2.185,0-4.258,0.47-6.127,1.313
		c-1.666-3.202-5.006-5.394-8.865-5.394c-5.522,0-10,4.477-10,9.999c0,2.46,0.898,4.702,2.373,6.442
		c-1.428,1.84-2.287,4.144-2.287,6.653c0,5.983,4.836,10.836,10.813,10.865v0.003h28.007v-0.006
		c0.042,0.001,0.082,0.006,0.124,0.006c5.001,0,9.057-4.054,9.057-9.057C260.673-245.978,256.919-249.899,252.185-250.194z
		 M222.587-264.074c3.092,0,5.76,1.773,7.092,4.345c-2.299,1.44-4.178,3.488-5.414,5.918c-0.241-0.016-0.48-0.036-0.725-0.036
		c-2.766,0-5.281,1.041-7.2,2.743c-1.092-1.366-1.753-3.09-1.753-4.971C214.587-260.485,218.176-264.074,222.587-264.074z
		 M251.656-234.111c-0.038-0.003-0.077-0.004-0.117-0.005l-2.047-0.042v0.047h-25.403l-0.594-0.003
		c-4.864-0.023-8.822-4.001-8.822-8.865c0-4.89,3.978-8.868,8.867-8.868c0.15,0,0.299,0.012,0.447,0.021l0.148,0.011l1.314,0.085
		l0.598-1.174c2.224-4.373,6.643-7.09,11.531-7.09c6.062,0,11.381,4.298,12.65,10.219l0.317,1.482l1.514,0.095
		c3.708,0.231,6.612,3.319,6.612,7.03C258.673-237.29,255.529-234.134,251.656-234.111z"/>
	<rect x="221.593" y="-276.104" width="2" height="7.973"/>
	<rect x="202.62" y="-257.118" width="7.973" height="2"/>
	<rect x="207.346" y="-268.337" transform="matrix(0.7071 0.7071 -0.7071 0.7071 -127.1377 -227.7362)" width="7.974" height="2"/>
	<rect x="232.855" y="-271.319" transform="matrix(0.7071 0.7071 -0.7071 0.7071 -120.5386 -243.6601)" width="2" height="7.972"/>
</g>
<path d="M347.928-254.222c-1.444-6.742-7.433-11.8-14.605-11.8c-1.799,0-3.521,0.32-5.118,0.904
	c-0.949-5.108-5.404-8.98-10.788-8.98c-0.413,0-0.819,0.027-1.222,0.071c0.744,1.112,1.179,2.448,1.179,3.886c0,3.865-3.134,7-7,7
	c-1.438,0-2.773-0.435-3.886-1.179c-0.044,0.401-0.071,0.809-0.071,1.222c0,3.712,1.845,6.987,4.661,8.979
	c-1.653,1.907-2.661,4.389-2.661,7.111c0,5.983,4.836,10.836,10.813,10.865v0.003h28.007v-0.006
	c0.042,0.001,0.082,0.006,0.124,0.006c5.001,0,9.057-4.054,9.057-9.057C356.416-250.005,352.662-253.927,347.928-254.222z
	 M308.593-261.317c0.582,0.117,1.178,0.177,1.78,0.177c4.963,0,9-4.037,9-9c0-0.603-0.06-1.198-0.177-1.78
	c3.733,0.753,6.629,3.824,7.134,7.64c-2.713,1.444-4.928,3.699-6.322,6.442c-0.241-0.016-0.48-0.036-0.725-0.036
	c-2.537,0-4.865,0.876-6.715,2.334C310.557-256.835,309.082-258.895,308.593-261.317z M347.399-238.139
	c-0.038-0.003-0.077-0.004-0.117-0.005l-2.047-0.042v0.047h-25.403l-0.594-0.003c-4.864-0.023-8.822-4.001-8.822-8.865
	c0-4.89,3.978-8.868,8.867-8.868c0.15,0,0.299,0.012,0.447,0.021l0.148,0.011l1.314,0.085l0.598-1.174
	c2.224-4.373,6.643-7.09,11.531-7.09c6.062,0,11.381,4.298,12.65,10.219l0.317,1.482l1.514,0.095
	c3.708,0.231,6.612,3.319,6.612,7.03C354.416-241.317,351.272-238.161,347.399-238.139z"/>
<g>
	<rect x="432.573" y="-245.599" width="2" height="7"/>
	<rect x="440.573" y="-249.599" width="2" height="7"/>
	<rect x="424.573" y="-249.599" width="2" height="7"/>
	<rect x="432.573" y="-235.599" width="2" height="7"/>
	<rect x="440.573" y="-239.599" width="2" height="7"/>
	<rect x="424.573" y="-239.599" width="2" height="7"/>
	<path d="M451.201-262.587c-1.596-7.445-8.207-13.029-16.127-13.029c-6.423,0-11.977,3.678-14.702,9.035
		c-0.266-0.018-0.53-0.04-0.8-0.04c-6.627,0-11.999,5.372-11.999,12c0,6.607,5.34,11.965,11.938,11.998v0.003h2.062v-2h-1.604
		l-0.447-0.003c-5.485-0.027-9.948-4.513-9.948-9.998c0-5.514,4.485-10,9.999-10c0.175,0,0.347,0.014,0.52,0.025l0.148,0.01
		l1.316,0.088l0.598-1.176c2.492-4.899,7.443-7.942,12.92-7.942c6.79,0,12.75,4.814,14.172,11.448l0.317,1.482l1.514,0.095
		c4.203,0.262,7.496,3.763,7.496,7.971c0,4.397-3.565,7.977-7.957,8c-0.05-0.003-0.093-0.005-0.137-0.007l-2.043,0.007h-2.863v2
		h4.863v-0.007c0.046,0.001,0.091,0.007,0.137,0.007c5.521,0,10-4.477,10-10C460.573-257.931,456.429-262.262,451.201-262.587z"/>
</g>
<g>
	<path d="M248.774-173.229c-1.596-7.445-8.207-13.029-16.127-13.029c-6.423,0-11.977,3.678-14.702,9.035
		c-0.266-0.018-0.53-0.04-0.8-0.04c-6.627,0-11.999,5.372-11.999,12c0,6.607,5.34,11.965,11.938,11.998v0.003h2.062v-2h-1.604
		l-0.447-0.003c-5.485-0.027-9.948-4.513-9.948-9.998c0-5.514,4.485-10,9.999-10c0.175,0,0.347,0.014,0.52,0.025l0.148,0.01
		l1.316,0.088l0.598-1.176c2.492-4.899,7.443-7.942,12.92-7.942c6.79,0,12.75,4.814,14.172,11.448l0.317,1.482l1.514,0.095
		c4.203,0.262,7.496,3.763,7.496,7.971c0,4.397-3.565,7.977-7.957,8c-0.05-0.003-0.093-0.005-0.137-0.007l-2.043,0.007h-2.863v2
		h4.863v-0.007c0.046,0.001,0.091,0.007,0.137,0.007c5.521,0,10-4.477,10-10C258.146-168.573,254.002-172.904,248.774-173.229z"/>
	<polygon points="230.146,-146.234 230.146,-144.294 230.146,-138.234 232.146,-138.234 232.146,-144.294 232.146,-146.234 
		232.146,-158.234 230.146,-158.234 	"/>
	<polygon points="238.146,-150.234 238.146,-148.481 238.146,-142.234 240.146,-142.234 240.146,-148.481 240.146,-150.234 
		240.146,-162.234 238.146,-162.234 	"/>
	<polygon points="222.146,-150.234 222.146,-148.169 222.146,-142.234 224.146,-142.234 224.146,-148.169 224.146,-150.234 
		224.146,-162.234 222.146,-162.234 	"/>
</g>
<g>
	<polygon points="544.424,-149.323 537.541,-159.153 535.903,-158.006 542.786,-148.176 543.898,-146.587 547.374,-141.623 
		549.013,-142.77 545.537,-147.734 	"/>
	<polygon points="552.426,-149.325 545.541,-159.153 543.903,-158.005 550.789,-148.177 551.794,-146.741 555.378,-141.626 
		557.017,-142.772 553.433,-147.889 	"/>
	<polygon points="536.424,-149.323 529.541,-159.153 527.903,-158.005 534.786,-148.176 535.971,-146.483 539.375,-141.622 
		541.013,-142.77 537.609,-147.631 	"/>
	<path d="M555.531-172.963c-1.596-7.445-8.207-13.029-16.127-13.029c-6.423,0-11.977,3.678-14.702,9.035
		c-0.266-0.018-0.53-0.04-0.8-0.04c-6.627,0-11.999,5.372-11.999,12c0,6.607,5.34,11.965,11.938,11.998v0.003h2.062v-2h-1.604
		l-0.447-0.003c-5.485-0.027-9.948-4.513-9.948-9.998c0-5.514,4.485-10,9.999-10c0.175,0,0.347,0.014,0.52,0.025l0.148,0.01
		l1.316,0.088l0.598-1.176c2.492-4.899,7.443-7.942,12.92-7.942c6.79,0,12.75,4.814,14.172,11.448l0.317,1.482l1.514,0.095
		c4.203,0.262,7.496,3.763,7.496,7.971c0,4.397-3.565,7.977-7.957,8c-0.05-0.003-0.093-0.005-0.137-0.007l-1.043,0.007h0.137v2
		h0.863v-0.007c0.046,0.001,0.091,0.007,0.137,0.007c5.521,0,10-4.477,10-10C564.903-168.307,560.759-172.638,555.531-172.963z"/>
</g>
<g>
	<rect x="527.229" y="-282.045" width="2" height="7.973"/>
	<rect x="508.229" y="-263.131" width="7.973" height="2"/>
	<rect x="512.903" y="-274.397" transform="matrix(0.7071 0.7071 -0.7071 0.7071 -41.9277 -445.5724)" width="7.974" height="2"/>
	<rect x="538.411" y="-277.379" transform="matrix(0.7071 0.7071 -0.7071 0.7071 -35.3286 -461.4964)" width="2" height="7.972"/>
	<rect x="541.229" y="-241.172" width="2" height="7"/>
	<rect x="549.229" y="-245.172" width="2" height="7"/>
	<rect x="533.229" y="-245.172" width="2" height="7"/>
	<rect x="541.229" y="-231.172" width="2" height="7"/>
	<rect x="549.229" y="-235.172" width="2" height="7"/>
	<rect x="533.229" y="-235.172" width="2" height="7"/>
	<path d="M557.741-256.255c-1.444-6.742-7.433-11.8-14.605-11.8c-2.185,0-4.258,0.47-6.126,1.313
		c-1.667-3.202-5.007-5.394-8.866-5.394c-5.522,0-10,4.477-10,9.999c0,2.46,0.899,4.702,2.373,6.442
		c-1.429,1.84-2.287,4.144-2.287,6.653c0,5.983,4.836,10.836,10.813,10.865v0.003h1.188v-2h-0.721l-0.457-0.003
		c-4.864-0.023-8.822-4.001-8.822-8.865c0-4.89,3.978-8.868,8.867-8.868c0.15,0,0.299,0.012,0.447,0.022l0.148,0.01l1.314,0.085
		l0.597-1.175c2.225-4.372,6.644-7.089,11.532-7.089c6.062,0,11.382,4.298,12.649,10.219l0.318,1.483l1.514,0.094
		c3.708,0.23,6.612,3.319,6.612,7.03c0,3.878-3.144,7.035-7.017,7.057c-0.042-0.003-0.079-0.005-0.117-0.005l-2.047,0.005h-0.819v2
		h2.819v-0.006c0.042,0.001,0.082,0.006,0.124,0.006c5.001,0,9.057-4.054,9.057-9.057
		C566.229-252.038,562.476-255.96,557.741-256.255z M529.821-259.872c-0.241-0.016-0.48-0.036-0.725-0.036
		c-2.766,0-5.282,1.041-7.2,2.743c-1.092-1.366-1.753-3.09-1.753-4.971c0-4.41,3.589-7.999,8-7.999c3.091,0,5.76,1.773,7.091,4.345
		C532.937-264.35,531.057-262.302,529.821-259.872z"/>
</g>
<g>
	<rect x="641.646" y="-242.619" width="2" height="7"/>
	<rect x="649.646" y="-246.619" width="2" height="7"/>
	<rect x="633.646" y="-246.619" width="2" height="7"/>
	<rect x="641.646" y="-232.619" width="2" height="7"/>
	<rect x="649.646" y="-236.619" width="2" height="7"/>
	<rect x="633.646" y="-236.619" width="2" height="7"/>
	<path d="M658.158-257.702c-1.444-6.742-7.433-11.8-14.605-11.8c-1.799,0-3.522,0.32-5.118,0.904
		c-0.949-5.108-5.404-8.98-10.788-8.98c-0.413,0-0.819,0.027-1.222,0.071c0.744,1.112,1.179,2.448,1.179,3.886c0,3.865-3.134,7-7,7
		c-1.438,0-2.773-0.435-3.886-1.179c-0.044,0.401-0.071,0.809-0.071,1.222c0,3.712,1.845,6.987,4.661,8.979
		c-1.653,1.907-2.661,4.389-2.661,7.111c0,5.983,4.836,10.836,10.813,10.865v0.003h1.188v-2h-0.721l-0.457-0.003
		c-4.864-0.023-8.822-4.001-8.822-8.865c0-4.89,3.978-8.868,8.867-8.868c0.15,0,0.299,0.012,0.447,0.022l0.148,0.01l1.314,0.085
		l0.597-1.175c2.225-4.372,6.644-7.089,11.532-7.089c6.062,0,11.382,4.298,12.649,10.219l0.318,1.483l1.514,0.094
		c3.708,0.23,6.612,3.319,6.612,7.03c0,3.878-3.144,7.035-7.017,7.057c-0.042-0.003-0.079-0.005-0.117-0.005l-2.047,0.005h-0.819v2
		h2.819v-0.006c0.042,0.001,0.082,0.006,0.124,0.006c5.001,0,9.057-4.054,9.057-9.057
		C666.646-253.485,662.893-257.407,658.158-257.702z M630.238-261.319c-0.241-0.016-0.48-0.036-0.725-0.036
		c-2.537,0-4.865,0.876-6.715,2.334c-2.012-1.294-3.487-3.354-3.976-5.776c0.582,0.117,1.178,0.177,1.78,0.177c4.963,0,9-4.037,9-9
		c0-0.603-0.06-1.198-0.177-1.78c3.733,0.753,6.629,3.824,7.133,7.64C633.849-266.317,631.634-264.063,630.238-261.319z"/>
</g>
<g>
	<polygon points="334.416,-141.796 334.416,-139.855 334.416,-133.796 336.416,-133.796 336.416,-139.855 336.416,-141.796 
		336.416,-153.796 334.416,-153.796 	"/>
	<polygon points="342.416,-145.796 342.416,-144.043 342.416,-137.796 344.416,-137.796 344.416,-144.043 344.416,-145.796 
		344.416,-157.796 342.416,-157.796 	"/>
	<polygon points="326.416,-145.796 326.416,-143.73 326.416,-137.796 328.416,-137.796 328.416,-143.73 328.416,-145.796 
		328.416,-157.796 326.416,-157.796 	"/>
	<rect x="320.416" y="-192.698" width="2" height="7.973"/>
	<rect x="301.416" y="-173.784" width="7.973" height="2"/>
	<rect x="306.089" y="-185.051" transform="matrix(0.7071 0.7071 -0.7071 0.7071 -39.3243 -273.1642)" width="7.974" height="2"/>
	<rect x="331.598" y="-188.033" transform="matrix(0.7071 0.7071 -0.7071 0.7071 -32.7252 -289.0881)" width="2" height="7.972"/>
	<path d="M350.928-166.908c-1.444-6.742-7.433-11.8-14.605-11.8c-2.185,0-4.258,0.47-6.127,1.313
		c-1.666-3.202-5.006-5.394-8.865-5.394c-5.522,0-10,4.477-10,9.999c0,2.46,0.898,4.702,2.373,6.442
		c-1.428,1.84-2.287,4.144-2.287,6.653c0,5.983,4.836,10.836,10.813,10.865v0.003h1.188v-2h-0.721l-0.457-0.003
		c-4.864-0.023-8.822-4.001-8.822-8.865c0-4.89,3.978-8.868,8.867-8.868c0.15,0,0.299,0.012,0.447,0.022l0.148,0.01l1.314,0.085
		l0.597-1.175c2.225-4.372,6.644-7.089,11.532-7.089c6.062,0,11.382,4.298,12.649,10.219l0.318,1.483l1.514,0.094
		c3.708,0.23,6.612,3.319,6.612,7.03c0,3.878-3.144,7.035-7.017,7.057c-0.042-0.003-0.079-0.005-0.117-0.005l-2.047,0.005h-0.819v2
		h2.819v-0.006c0.042,0.001,0.082,0.006,0.124,0.006c5.001,0,9.057-4.054,9.057-9.057
		C359.416-162.691,355.662-166.613,350.928-166.908z M323.008-170.525c-0.241-0.016-0.48-0.036-0.725-0.036
		c-2.766,0-5.281,1.042-7.2,2.743c-1.092-1.367-1.753-3.09-1.753-4.971c0-4.41,3.589-7.999,8-7.999c3.092,0,5.76,1.773,7.092,4.345
		C326.123-175.004,324.244-172.955,323.008-170.525z"/>
</g>
<g>
	<polygon points="434.813,-144.313 434.813,-142.372 434.813,-136.313 436.813,-136.313 436.813,-142.372 436.813,-144.313 
		436.813,-156.313 434.813,-156.313 	"/>
	<polygon points="442.813,-148.313 442.813,-146.56 442.813,-140.313 444.813,-140.313 444.813,-146.56 444.813,-148.313 
		444.813,-160.313 442.813,-160.313 	"/>
	<polygon points="426.813,-148.313 426.813,-146.247 426.813,-140.313 428.813,-140.313 428.813,-146.247 428.813,-148.313 
		428.813,-160.313 426.813,-160.313 	"/>
	<path d="M451.325-169.425c-1.444-6.742-7.433-11.8-14.605-11.8c-1.799,0-3.521,0.32-5.118,0.904
		c-0.949-5.108-5.404-8.98-10.788-8.98c-0.413,0-0.819,0.027-1.222,0.071c0.744,1.112,1.179,2.448,1.179,3.886c0,3.865-3.134,7-7,7
		c-1.438,0-2.773-0.435-3.886-1.179c-0.044,0.401-0.071,0.809-0.071,1.222c0,3.712,1.845,6.987,4.661,8.979
		c-1.653,1.907-2.661,4.389-2.661,7.111c0,5.983,4.836,10.836,10.813,10.865v0.003h1.188v-2h-0.721l-0.457-0.003
		c-4.864-0.023-8.822-4.001-8.822-8.865c0-4.89,3.978-8.868,8.867-8.868c0.15,0,0.299,0.012,0.447,0.022l0.148,0.01l1.314,0.085
		l0.597-1.175c2.225-4.372,6.644-7.089,11.532-7.089c6.062,0,11.382,4.298,12.649,10.219l0.318,1.483l1.514,0.094
		c3.708,0.23,6.612,3.319,6.612,7.03c0,3.878-3.144,7.035-7.017,7.057c-0.042-0.003-0.079-0.005-0.117-0.005l-2.047,0.005h-0.819v2
		h2.819v-0.006c0.042,0.001,0.082,0.006,0.124,0.006c5.001,0,9.057-4.054,9.057-9.057
		C459.813-165.208,456.06-169.13,451.325-169.425z M423.405-173.042c-0.241-0.016-0.48-0.036-0.725-0.036
		c-2.537,0-4.865,0.876-6.715,2.334c-2.012-1.294-3.486-3.354-3.976-5.776c0.582,0.117,1.178,0.177,1.78,0.177c4.963,0,9-4.037,9-9
		c0-0.603-0.06-1.198-0.177-1.78c3.733,0.753,6.629,3.824,7.134,7.641C427.015-178.04,424.8-175.784,423.405-173.042z"/>
</g>
<g>
	<polygon points="651.849,-143.368 644.966,-153.198 643.328,-152.051 650.211,-142.221 651.323,-140.632 654.799,-135.668 
		656.438,-136.814 652.962,-141.779 	"/>
	<polygon points="659.851,-143.37 652.966,-153.198 651.328,-152.05 658.214,-142.222 659.219,-140.786 662.803,-135.671 
		664.441,-136.817 660.857,-141.934 	"/>
	<polygon points="643.849,-143.368 636.966,-153.198 635.328,-152.05 642.211,-142.221 643.396,-140.528 646.8,-135.667 
		648.438,-136.814 645.034,-141.676 	"/>
	<rect x="631.328" y="-190.917" width="2" height="7.973"/>
	<rect x="612.328" y="-172.003" width="7.973" height="2"/>
	<rect x="617.001" y="-183.269" transform="matrix(0.7071 0.7071 -0.7071 0.7071 52.9993 -492.4905)" width="7.974" height="2"/>
	<rect x="642.51" y="-186.251" transform="matrix(0.7071 0.7071 -0.7071 0.7071 59.5984 -508.4145)" width="2" height="7.972"/>
	<path d="M661.84-165.127c-1.444-6.742-7.433-11.8-14.605-11.8c-2.185,0-4.258,0.47-6.126,1.313
		c-1.667-3.202-5.007-5.394-8.866-5.394c-5.522,0-10,4.477-10,9.999c0,2.46,0.899,4.702,2.373,6.442
		c-1.429,1.84-2.287,4.144-2.287,6.653c0,5.983,4.836,10.836,10.813,10.865v0.003h1.188v-2h-0.721l-0.457-0.003
		c-4.864-0.023-8.822-4.001-8.822-8.865c0-4.89,3.978-8.868,8.867-8.868c0.15,0,0.299,0.012,0.447,0.022l0.148,0.01l1.314,0.085
		l0.597-1.175c2.225-4.372,6.644-7.089,11.532-7.089c6.062,0,11.382,4.298,12.649,10.219l0.318,1.483l1.514,0.094
		c3.708,0.23,6.612,3.319,6.612,7.03c0,3.878-3.144,7.035-7.017,7.057c-0.042-0.003-0.079-0.005-0.117-0.005l-0.047,0.005h-0.819v2
		h0.819v-0.006c0.042,0.001,0.082,0.006,0.124,0.006c5.001,0,9.057-4.054,9.057-9.057
		C670.328-160.91,666.574-164.832,661.84-165.127z M633.92-168.744c-0.241-0.016-0.48-0.036-0.725-0.036
		c-2.766,0-5.282,1.042-7.2,2.743c-1.092-1.367-1.753-3.09-1.753-4.971c0-4.41,3.589-7.999,8-7.999c3.091,0,5.76,1.773,7.091,4.345
		C637.035-173.223,635.155-171.174,633.92-168.744z"/>
</g>
<g>
	<polygon points="-71.582,-46.883 -78.465,-56.713 -80.103,-55.565 -73.22,-45.735 -72.107,-44.146 -68.632,-39.183 
		-66.993,-40.329 -70.469,-45.294 	"/>
	<polygon points="-63.58,-46.885 -70.465,-56.713 -72.103,-55.564 -65.217,-45.736 -64.212,-44.301 -60.628,-39.186 
		-58.989,-40.332 -62.573,-45.448 	"/>
	<polygon points="-79.582,-46.883 -86.465,-56.713 -88.103,-55.564 -81.22,-45.735 -80.035,-44.043 -76.631,-39.182 
		-74.993,-40.329 -78.396,-45.19 	"/>
	<path d="M-61.591-68.642c-1.444-6.742-7.433-11.8-14.605-11.8c-1.799,0-3.522,0.32-5.118,0.904
		c-0.949-5.108-5.404-8.98-10.788-8.98c-0.413,0-0.819,0.027-1.222,0.071c0.744,1.112,1.179,2.448,1.179,3.886c0,3.865-3.134,7-7,7
		c-1.438,0-2.773-0.435-3.886-1.179c-0.044,0.401-0.071,0.809-0.071,1.222c0,3.712,1.845,6.987,4.661,8.979
		c-1.653,1.907-2.661,4.389-2.661,7.111c0,5.983,4.836,10.836,10.813,10.865v0.003h1.188v-2h-0.721l-0.457-0.003
		c-4.864-0.023-8.822-4.001-8.822-8.865c0-4.89,3.978-8.868,8.867-8.868c0.15,0,0.299,0.012,0.447,0.022l0.148,0.01l1.314,0.085
		l0.597-1.175c2.225-4.372,6.644-7.089,11.532-7.089c6.062,0,11.382,4.298,12.649,10.219l0.318,1.483l1.514,0.094
		c3.708,0.23,6.612,3.319,6.612,7.03c0,3.878-3.144,7.035-7.017,7.057c-0.042-0.003-0.079-0.005-0.117-0.005l-0.047,0.005h-0.819v2
		h0.819v-0.006c0.042,0.001,0.082,0.006,0.124,0.006c5.001,0,9.057-4.054,9.057-9.057C-53.103-64.425-56.856-68.347-61.591-68.642z
		 M-89.511-72.259c-0.241-0.016-0.48-0.036-0.725-0.036c-2.537,0-4.865,0.876-6.715,2.334c-2.012-1.294-3.487-3.354-3.976-5.776
		c0.582,0.117,1.178,0.177,1.78,0.177c4.963,0,9-4.037,9-9c0-0.603-0.06-1.198-0.177-1.78c3.733,0.753,6.629,3.824,7.133,7.641
		C-85.9-77.257-88.115-75.001-89.511-72.259z"/>
</g>
<g>
	<rect x="-79.103" y="-150.729" width="2" height="4"/>
	<rect x="-71.103" y="-154.751" width="2" height="4.021"/>
	<rect x="-87.103" y="-154.751" width="2" height="4.021"/>
	<path d="M-60.475-170.718c-1.596-7.445-8.207-13.029-16.127-13.029c-6.423,0-11.977,3.678-14.702,9.035
		c-0.266-0.018-0.53-0.04-0.8-0.04c-6.627,0-11.999,5.372-11.999,12c0,6.607,5.34,11.965,11.938,11.998v0.003h2.062v-2h-1.604
		l-0.447-0.003c-5.485-0.027-9.948-4.513-9.948-9.998c0-5.514,4.485-10,9.999-10c0.175,0,0.347,0.014,0.52,0.025l0.148,0.01
		l1.316,0.088l0.598-1.176c2.492-4.899,7.443-7.942,12.92-7.942c6.79,0,12.75,4.814,14.172,11.448l0.317,1.482l1.514,0.095
		c4.203,0.262,7.496,3.763,7.496,7.971c0,4.397-3.565,7.977-7.957,8c-0.05-0.003-0.093-0.005-0.137-0.007l-2.043,0.007h-2.863v2
		h4.863v-0.007c0.046,0.001,0.091,0.007,0.137,0.007c5.521,0,10-4.477,10-10C-51.103-166.062-55.247-170.393-60.475-170.718z"/>
	<circle cx="-70.103" cy="-145.709" r="1.5"/>
	<circle cx="-78.103" cy="-141.74" r="1.5"/>
	<circle cx="-86.103" cy="-145.751" r="1.5"/>
</g>
<g>
	<rect x="13.818" y="-190.184" width="2" height="7.973"/>
	<rect x="-5.182" y="-171.27" width="7.973" height="2"/>
	<rect x="-0.509" y="-182.536" transform="matrix(0.7071 0.7071 -0.7071 0.7071 -127.3466 -55.6304)" width="7.974" height="2"/>
	<rect x="25" y="-185.518" transform="matrix(0.7071 0.7071 -0.7071 0.7071 -120.7475 -71.5543)" width="2" height="7.972"/>
	<path d="M44.33-164.394c-1.444-6.742-7.433-11.8-14.605-11.8c-2.185,0-4.258,0.47-6.126,1.313
		c-1.667-3.202-5.007-5.394-8.866-5.394c-5.522,0-10,4.477-10,9.999c0,2.46,0.899,4.702,2.373,6.442
		c-1.429,1.84-2.287,4.144-2.287,6.653c0,5.983,4.836,10.836,10.813,10.865v0.003h1.188v-2h-0.721l-0.457-0.003
		c-4.864-0.023-8.822-4.001-8.822-8.865c0-4.89,3.978-8.868,8.867-8.868c0.15,0,0.299,0.012,0.447,0.022l0.148,0.01l1.314,0.085
		l0.597-1.175c2.225-4.372,6.644-7.089,11.532-7.089c6.062,0,11.382,4.298,12.649,10.219l0.318,1.483l1.514,0.094
		c3.708,0.23,6.612,3.319,6.612,7.03c0,3.878-3.144,7.035-7.017,7.057c-0.042-0.003-0.079-0.005-0.117-0.005l-2.047,0.005h-0.819v2
		h2.819v-0.006c0.042,0.001,0.082,0.006,0.124,0.006c5.001,0,9.057-4.054,9.057-9.057C52.818-160.177,49.064-164.099,44.33-164.394z
		 M16.41-168.011c-0.241-0.016-0.48-0.036-0.725-0.036c-2.766,0-5.282,1.042-7.2,2.743c-1.092-1.367-1.753-3.09-1.753-4.971
		c0-4.41,3.589-7.999,8-7.999c3.091,0,5.76,1.773,7.091,4.345C19.525-172.489,17.646-170.44,16.41-168.011z"/>
	<rect x="27.818" y="-146.295" width="2" height="4"/>
	<rect x="35.818" y="-150.316" width="2" height="4.021"/>
	<rect x="19.818" y="-150.316" width="2" height="4.021"/>
	<circle cx="36.818" cy="-141.274" r="1.5"/>
	<circle cx="28.818" cy="-137.306" r="1.5"/>
	<circle cx="20.818" cy="-141.316" r="1.5"/>
</g>
<g>
	<path d="M145.256-165.351c-1.444-6.742-7.433-11.8-14.605-11.8c-1.799,0-3.522,0.32-5.118,0.904
		c-0.949-5.108-5.404-8.98-10.788-8.98c-0.413,0-0.819,0.027-1.222,0.071c0.744,1.112,1.179,2.448,1.179,3.886c0,3.865-3.134,7-7,7
		c-1.438,0-2.773-0.435-3.886-1.179c-0.044,0.401-0.071,0.809-0.071,1.222c0,3.712,1.845,6.987,4.661,8.979
		c-1.653,1.907-2.661,4.389-2.661,7.111c0,5.983,4.836,10.836,10.813,10.865v0.003h1.188v-2h-0.721l-0.457-0.003
		c-4.864-0.023-8.822-4.001-8.822-8.865c0-4.89,3.978-8.868,8.867-8.868c0.15,0,0.299,0.012,0.447,0.022l0.148,0.01l1.314,0.085
		l0.597-1.175c2.225-4.372,6.644-7.089,11.532-7.089c6.062,0,11.382,4.298,12.649,10.219l0.318,1.483l1.514,0.094
		c3.708,0.23,6.612,3.319,6.612,7.03c0,3.878-3.144,7.035-7.017,7.057c-0.042-0.003-0.079-0.005-0.117-0.005l-2.047,0.005h-0.819v2
		h2.819v-0.006c0.042,0.001,0.082,0.006,0.124,0.006c5.001,0,9.057-4.054,9.057-9.057
		C153.744-161.134,149.99-165.056,145.256-165.351z M117.336-168.968c-0.241-0.016-0.48-0.036-0.725-0.036
		c-2.537,0-4.865,0.876-6.715,2.334c-2.012-1.294-3.487-3.354-3.976-5.776c0.582,0.117,1.178,0.177,1.78,0.177c4.963,0,9-4.037,9-9
		c0-0.603-0.06-1.198-0.177-1.78c3.733,0.753,6.629,3.824,7.133,7.641C120.946-173.966,118.731-171.71,117.336-168.968z"/>
	<rect x="128.744" y="-147.252" width="2" height="4"/>
	<rect x="136.744" y="-151.273" width="2" height="4.021"/>
	<rect x="120.744" y="-151.273" width="2" height="4.021"/>
	<circle cx="137.744" cy="-142.231" r="1.5"/>
	<circle cx="129.744" cy="-138.263" r="1.5"/>
	<circle cx="121.744" cy="-142.273" r="1.5"/>
</g>
<g>
	<path d="M41.946-72.32c-1.596-7.445-8.207-13.029-16.127-13.029c-6.423,0-11.977,3.678-14.702,9.035
		c-0.266-0.018-0.53-0.04-0.8-0.04c-6.627,0-11.999,5.372-11.999,12c0,6.607,5.34,11.965,11.938,11.998v0.003h6.062v-2h-5.604
		l-0.447-0.003c-5.485-0.027-9.948-4.513-9.948-9.998c0-5.514,4.485-10,9.999-10c0.175,0,0.347,0.014,0.52,0.025l0.148,0.01
		l1.316,0.088l0.598-1.176c2.492-4.899,7.443-7.942,12.92-7.942c6.79,0,12.75,4.814,14.172,11.448l0.317,1.482l1.514,0.095
		c4.203,0.262,7.496,3.763,7.496,7.971c0,4.397-3.565,7.977-7.957,8c-0.05-0.003-0.093-0.005-0.137-0.007l-5.043,0.007h0.137v2
		h4.863v-0.007c0.046,0.001,0.091,0.007,0.137,0.007c5.521,0,10-4.477,10-10C51.318-67.664,47.174-71.995,41.946-72.32z"/>
	<polygon points="26.16,-52.35 27.93,-52.35 28.36,-52.35 30.37,-52.35 23.956,-61.511 22.318,-60.363 26.529,-54.35 24.759,-54.35 
		22.318,-54.35 23.59,-52.533 24.702,-50.944 30.68,-42.35 32.318,-43.496 26.341,-52.092 	"/>
</g>
<g>
	<rect x="117.744" y="-91.45" width="2" height="7.973"/>
	<rect x="98.744" y="-72.536" width="7.973" height="2"/>
	<rect x="103.417" y="-83.803" transform="matrix(0.7071 0.7071 -0.7071 0.7071 -27.0924 -100.1987)" width="7.974" height="2"/>
	<rect x="128.926" y="-86.785" transform="matrix(0.7071 0.7071 -0.7071 0.7071 -20.4932 -116.1226)" width="2" height="7.972"/>
	<path d="M148.256-65.66c-1.444-6.742-7.433-11.8-14.605-11.8c-2.185,0-4.258,0.47-6.127,1.313
		c-1.666-3.202-5.006-5.394-8.865-5.394c-5.522,0-10,4.477-10,9.999c0,2.46,0.898,4.702,2.373,6.442
		c-1.428,1.84-2.287,4.144-2.287,6.653c0,5.983,4.836,10.836,10.813,10.865v0.003h4.188v-2h-3.721l-0.457-0.003
		c-4.864-0.023-8.822-4.001-8.822-8.865c0-4.89,3.978-8.868,8.867-8.868c0.15,0,0.299,0.012,0.447,0.022l0.148,0.01l1.314,0.085
		l0.597-1.175c2.225-4.372,6.644-7.089,11.532-7.089c6.062,0,11.382,4.298,12.649,10.219l0.318,1.483l1.514,0.094
		c3.708,0.23,6.612,3.319,6.612,7.03c0,3.878-3.144,7.035-7.017,7.057c-0.042-0.003-0.079-0.005-0.117-0.005l-2.047,0.005h-3.819v2
		h5.819v-0.006c0.042,0.001,0.082,0.006,0.124,0.006c5.001,0,9.057-4.054,9.057-9.057C156.744-61.443,152.99-65.365,148.256-65.66z
		 M120.336-69.277c-0.241-0.016-0.48-0.036-0.725-0.036c-2.766,0-5.281,1.041-7.2,2.743c-1.092-1.366-1.753-3.09-1.753-4.971
		c0-4.41,3.589-7.999,8-7.999c3.092,0,5.76,1.773,7.092,4.345C123.451-73.755,121.572-71.707,120.336-69.277z"/>
	<polygon points="132.586,-47.57 134.355,-47.57 134.786,-47.57 136.796,-47.57 130.382,-56.731 128.744,-55.584 132.955,-49.57 
		131.185,-49.57 128.744,-49.57 130.016,-47.754 131.128,-46.165 137.105,-37.57 138.744,-38.717 132.767,-47.313 	"/>
</g>
<g>
	<path d="M247.841-67.956c-1.444-6.742-7.433-11.8-14.605-11.8c-1.799,0-3.521,0.32-5.118,0.904
		c-0.949-5.108-5.404-8.98-10.788-8.98c-0.413,0-0.819,0.027-1.222,0.071c0.744,1.112,1.179,2.448,1.179,3.886c0,3.865-3.134,7-7,7
		c-1.438,0-2.773-0.435-3.886-1.179c-0.044,0.401-0.071,0.809-0.071,1.222c0,3.712,1.845,6.987,4.661,8.979
		c-1.653,1.907-2.661,4.389-2.661,7.111c0,5.983,4.836,10.836,10.813,10.865v0.003h4.188v-2h-3.721l-0.457-0.003
		c-4.864-0.023-8.822-4.001-8.822-8.865c0-4.89,3.978-8.868,8.867-8.868c0.15,0,0.299,0.012,0.447,0.022l0.148,0.01l1.314,0.085
		l0.597-1.175c2.225-4.372,6.644-7.089,11.532-7.089c6.062,0,11.382,4.298,12.649,10.219l0.318,1.483l1.514,0.094
		c3.708,0.23,6.612,3.319,6.612,7.03c0,3.878-3.144,7.035-7.017,7.057c-0.042-0.003-0.079-0.005-0.117-0.005l-2.047,0.005h-3.819v2
		h5.819v-0.006c0.042,0.001,0.082,0.006,0.124,0.006c5.001,0,9.057-4.054,9.057-9.057C256.329-63.739,252.575-67.661,247.841-67.956
		z M219.921-71.573c-0.241-0.016-0.48-0.036-0.725-0.036c-2.537,0-4.865,0.876-6.715,2.334c-2.012-1.294-3.486-3.354-3.976-5.776
		c0.582,0.117,1.178,0.177,1.78,0.177c4.963,0,9-4.037,9-9c0-0.603-0.06-1.198-0.177-1.78c3.733,0.753,6.629,3.824,7.134,7.64
		C223.53-76.571,221.315-74.316,219.921-71.573z"/>
	<polygon points="232.171,-49.866 233.94,-49.866 234.371,-49.866 236.381,-49.866 229.967,-59.027 228.329,-57.88 232.54,-51.866 
		230.77,-51.866 228.329,-51.866 229.601,-50.05 230.713,-48.461 236.69,-39.866 238.329,-41.013 232.352,-49.608 	"/>
</g>
<g>
	<path d="M348.726-71.82c-1.596-7.445-8.207-13.029-16.127-13.029c-6.423,0-11.977,3.678-14.702,9.035
		c-0.266-0.018-0.53-0.04-0.8-0.04c-6.627,0-11.999,5.372-11.999,12c0,6.607,5.34,11.965,11.938,11.998v0.003h1.062v-2h-0.604
		l-0.447-0.003c-5.485-0.027-9.948-4.513-9.948-9.998c0-5.514,4.485-10,9.999-10c0.175,0,0.347,0.014,0.52,0.025l0.148,0.01
		l1.316,0.088l0.598-1.176c2.492-4.899,7.443-7.942,12.92-7.942c6.79,0,12.75,4.814,14.172,11.448l0.317,1.482l1.514,0.095
		c4.203,0.262,7.496,3.763,7.496,7.971c0,4.397-3.565,7.977-7.957,8c-0.05-0.003-0.093-0.005-0.137-0.007l-0.906,0.007v2h0.863
		v-0.007c0.046,0.001,0.091,0.007,0.137,0.007c5.521,0,10-4.477,10-10C358.098-67.164,353.953-71.495,348.726-71.82z"/>
	
		<rect x="317.532" y="-53.855" transform="matrix(-0.5736 -0.8191 0.8191 -0.5736 551.7743 181.4972)" width="11.183" height="1.999"/>
	
		<rect x="335.507" y="-53.855" transform="matrix(-0.5736 -0.8191 0.8191 -0.5736 580.0598 196.2203)" width="11.183" height="1.999"/>
	<polygon points="333.939,-48.85 335.709,-48.85 336.14,-48.85 338.149,-48.85 331.735,-58.011 330.098,-56.863 334.309,-50.85 
		332.538,-50.85 330.098,-50.85 331.369,-49.033 332.481,-47.444 337.098,-40.85 338.736,-41.996 334.12,-48.592 	"/>
</g>
<g>
	<rect x="423.573" y="-91.287" width="2" height="7.973"/>
	<rect x="404.573" y="-72.373" width="7.973" height="2"/>
	<rect x="409.246" y="-83.64" transform="matrix(0.7071 0.7071 -0.7071 0.7071 62.5982 -316.4047)" width="7.974" height="2"/>
	<rect x="434.755" y="-86.622" transform="matrix(0.7071 0.7071 -0.7071 0.7071 69.1974 -332.3287)" width="2" height="7.972"/>
	<path d="M454.085-65.497c-1.444-6.742-7.433-11.8-14.605-11.8c-2.185,0-4.258,0.47-6.126,1.313
		c-1.667-3.202-5.007-5.394-8.866-5.394c-5.522,0-10,4.477-10,9.999c0,2.46,0.899,4.702,2.373,6.442
		c-1.429,1.84-2.287,4.144-2.287,6.653c0,5.983,4.836,10.836,10.813,10.865v0.003h0.188v-2l-0.178-0.003
		c-4.864-0.023-8.822-4.001-8.822-8.865c0-4.89,3.978-8.868,8.867-8.868c0.15,0,0.299,0.012,0.447,0.022l0.148,0.01l1.314,0.085
		l0.597-1.175c2.225-4.372,6.644-7.089,11.532-7.089c6.062,0,11.382,4.298,12.649,10.219l0.318,1.483l1.514,0.094
		c3.708,0.23,6.612,3.319,6.612,7.03c0,3.878-3.144,7.035-7.017,7.057c-0.042-0.003-0.079-0.005-0.117-0.005l-0.866,0.005v2h0.819
		v-0.006c0.042,0.001,0.082,0.006,0.124,0.006c5.001,0,9.057-4.054,9.057-9.057C462.573-61.28,458.819-65.202,454.085-65.497z
		 M426.165-69.114c-0.241-0.016-0.48-0.036-0.725-0.036c-2.766,0-5.282,1.042-7.2,2.743c-1.092-1.367-1.753-3.09-1.753-4.971
		c0-4.41,3.589-7.999,8-7.999c3.091,0,5.76,1.773,7.091,4.345C429.28-73.593,427.4-71.544,426.165-69.114z"/>
	
		<rect x="423.995" y="-49.417" transform="matrix(-0.5736 -0.8191 0.8191 -0.5736 715.6728 275.6864)" width="11.183" height="1.999"/>
	
		<rect x="441.969" y="-49.417" transform="matrix(-0.5736 -0.8191 0.8191 -0.5736 743.9583 290.4096)" width="11.183" height="1.999"/>
	<polygon points="440.402,-44.411 442.172,-44.411 442.603,-44.411 444.612,-44.411 438.198,-53.572 436.561,-52.425 
		440.771,-46.411 439.001,-46.411 436.561,-46.411 437.832,-44.595 438.944,-43.006 443.561,-36.411 445.199,-37.558 
		440.583,-44.153 	"/>
</g>
<g>
	<path d="M555.923-68.455c-1.444-6.742-7.433-11.8-14.605-11.8c-1.799,0-3.522,0.32-5.118,0.904
		c-0.949-5.108-5.404-8.98-10.788-8.98c-0.413,0-0.819,0.027-1.222,0.071c0.744,1.112,1.179,2.448,1.179,3.886c0,3.865-3.134,7-7,7
		c-1.438,0-2.773-0.435-3.886-1.179c-0.044,0.401-0.071,0.809-0.071,1.222c0,3.712,1.845,6.987,4.661,8.979
		c-1.653,1.907-2.661,4.389-2.661,7.111c0,5.983,4.836,10.836,10.813,10.865v0.003h0.188v-2l-0.178-0.003
		c-4.864-0.023-8.822-4.001-8.822-8.865c0-4.89,3.978-8.868,8.867-8.868c0.15,0,0.299,0.012,0.447,0.022l0.148,0.01l1.314,0.085
		l0.597-1.175c2.225-4.372,6.644-7.089,11.532-7.089c6.062,0,11.382,4.298,12.649,10.219l0.318,1.483l1.514,0.094
		c3.708,0.23,6.612,3.319,6.612,7.03c0,3.878-3.144,7.035-7.017,7.057c-0.042-0.003-0.079-0.005-0.117-0.005l-0.866,0.005v2h0.819
		v-0.006c0.042,0.001,0.082,0.006,0.124,0.006c5.001,0,9.057-4.054,9.057-9.057C564.411-64.238,560.657-68.16,555.923-68.455z
		 M528.003-72.072c-0.241-0.016-0.48-0.036-0.725-0.036c-2.537,0-4.865,0.876-6.715,2.334c-2.012-1.294-3.487-3.354-3.976-5.776
		c0.582,0.117,1.178,0.177,1.78,0.177c4.963,0,9-4.037,9-9c0-0.603-0.06-1.198-0.177-1.78c3.733,0.753,6.629,3.824,7.133,7.641
		C531.613-77.07,529.398-74.814,528.003-72.072z"/>
	
		<rect x="525.832" y="-52.375" transform="matrix(-0.5736 -0.8191 0.8191 -0.5736 878.3502 354.4471)" width="11.183" height="1.999"/>
	
		<rect x="543.806" y="-52.375" transform="matrix(-0.5736 -0.8191 0.8191 -0.5736 906.6357 369.1703)" width="11.183" height="1.999"/>
	<polygon points="542.239,-47.369 544.009,-47.369 544.439,-47.369 546.449,-47.369 540.035,-56.53 538.397,-55.383 
		542.608,-49.369 540.838,-49.369 538.397,-49.369 539.669,-47.553 540.781,-45.964 545.397,-39.369 547.036,-40.516 
		542.42,-47.111 	"/>
</g>
<g>
	<g>
		<path d="M145.36,18c-1.596-7.445-8.207-13.029-16.127-13.029c-6.423,0-11.977,3.678-14.702,9.035c-0.266-0.018-0.53-0.04-0.8-0.04
			c-6.627,0-11.999,5.372-11.999,12c0,6.607,5.34,11.965,11.938,11.998v0.003h2.062v-2h-1.604l-0.447-0.003
			c-5.485-0.027-9.948-4.513-9.948-9.998c0-5.514,4.485-10,9.999-10c0.175,0,0.347,0.014,0.52,0.025l0.148,0.01l1.316,0.088
			l0.598-1.176c2.492-4.899,7.443-7.942,12.92-7.942c6.79,0,12.75,4.814,14.172,11.448l0.317,1.482l1.514,0.095
			c4.203,0.262,7.496,3.763,7.496,7.971c0,4.397-3.565,7.977-7.957,8c-0.05-0.003-0.093-0.005-0.137-0.007l-2.043,0.007h-2.863v2
			h4.863V37.96c0.046,0.001,0.091,0.007,0.137,0.007c5.521,0,10-4.477,10-10C154.732,22.656,150.588,18.325,145.36,18z"/>
	</g>
	<g>
		<circle cx="120.232" cy="31.543" r="1.5"/>
	</g>
	<g>
		<circle cx="124.232" cy="37.467" r="1.5"/>
	</g>
	<g>
		<circle cx="132.232" cy="37.467" r="1.5"/>
	</g>
	<g>
		<circle cx="128.232" cy="31.543" r="1.5"/>
	</g>
	<g>
		<circle cx="136.232" cy="31.543" r="1.5"/>
	</g>
	<g>
		<circle cx="120.232" cy="43.488" r="1.5"/>
	</g>
	<g>
		<circle cx="128.232" cy="43.488" r="1.5"/>
	</g>
	<g>
		<circle cx="136.232" cy="43.488" r="1.5"/>
	</g>
</g>
<g>
	<g>
		<rect x="221.146" y="2.522" width="2" height="7.973"/>
	</g>
	<g>
		<rect x="202.146" y="21.437" width="7.973" height="2"/>
	</g>
	<g>
		<rect x="206.82" y="10.17" transform="matrix(0.7071 0.7071 -0.7071 0.7071 69.6422 -145.7912)" width="7.974" height="2"/>
	</g>
	<g>
		<rect x="232.328" y="7.188" transform="matrix(0.7071 0.7071 -0.7071 0.7071 76.2413 -161.7152)" width="2" height="7.972"/>
	</g>
	<g>
		<path d="M251.658,28.313c-1.444-6.742-7.433-11.8-14.605-11.8c-2.185,0-4.258,0.47-6.127,1.313
			c-1.666-3.202-5.006-5.394-8.865-5.394c-5.522,0-10,4.477-10,9.999c0,2.46,0.898,4.702,2.373,6.442
			c-1.428,1.84-2.287,4.144-2.287,6.653c0,5.983,4.836,10.836,10.813,10.865v0.003h1.188v-2h-0.721l-0.457-0.003
			c-4.864-0.023-8.822-4.001-8.822-8.865c0-4.89,3.978-8.868,8.867-8.868c0.15,0,0.299,0.012,0.447,0.022l0.148,0.01l1.314,0.085
			l0.597-1.175c2.225-4.372,6.644-7.089,11.532-7.089c6.062,0,11.382,4.298,12.649,10.219l0.318,1.483l1.514,0.094
			c3.708,0.23,6.612,3.319,6.612,7.03c0,3.878-3.144,7.035-7.017,7.057c-0.042-0.003-0.079-0.005-0.117-0.005l-2.047,0.005h-1.819v2
			h3.819V46.39c0.042,0.001,0.082,0.006,0.124,0.006c5.001,0,9.057-4.054,9.057-9.057C260.146,32.529,256.393,28.607,251.658,28.313
			z M223.738,24.695c-0.241-0.016-0.48-0.036-0.725-0.036c-2.766,0-5.281,1.042-7.2,2.743c-1.092-1.367-1.753-3.09-1.753-4.971
			c0-4.41,3.589-7.999,8-7.999c3.092,0,5.76,1.773,7.092,4.345C226.854,20.217,224.975,22.266,223.738,24.695z"/>
	</g>
	<g>
		<circle cx="227.636" cy="39.906" r="1.5"/>
	</g>
	<g>
		<circle cx="231.636" cy="45.906" r="1.5"/>
	</g>
	<g>
		<circle cx="239.636" cy="45.906" r="1.5"/>
	</g>
	<g>
		<circle cx="235.636" cy="39.906" r="1.5"/>
	</g>
	<g>
		<circle cx="243.636" cy="39.906" r="1.5"/>
	</g>
	<g>
		<circle cx="227.636" cy="51.928" r="1.5"/>
	</g>
	<g>
		<circle cx="235.636" cy="51.928" r="1.5"/>
	</g>
	<g>
		<circle cx="243.636" cy="51.928" r="1.5"/>
	</g>
</g>
<g>
	<g>
		<path d="M347.609,24.356c-1.444-6.742-7.433-11.8-14.605-11.8c-1.799,0-3.521,0.32-5.118,0.904
			c-0.949-5.108-5.404-8.98-10.788-8.98c-0.413,0-0.819,0.027-1.222,0.071c0.744,1.112,1.179,2.448,1.179,3.886c0,3.865-3.134,7-7,7
			c-1.438,0-2.773-0.435-3.886-1.179c-0.044,0.401-0.071,0.809-0.071,1.222c0,3.712,1.845,6.987,4.661,8.979
			c-1.653,1.907-2.661,4.389-2.661,7.111c0,5.983,4.836,10.836,10.813,10.865v0.003h1.188v-2h-0.721l-0.457-0.003
			c-4.864-0.023-8.822-4.001-8.822-8.865c0-4.89,3.978-8.868,8.867-8.868c0.15,0,0.299,0.012,0.447,0.022l0.148,0.01l1.314,0.085
			l0.597-1.175c2.225-4.372,6.644-7.089,11.532-7.089c6.062,0,11.382,4.298,12.649,10.219l0.318,1.483l1.514,0.094
			c3.708,0.23,6.612,3.319,6.612,7.03c0,3.878-3.144,7.035-7.017,7.057c-0.042-0.003-0.079-0.005-0.117-0.005l-2.047,0.005h-1.819v2
			h3.819v-0.006c0.042,0.001,0.082,0.006,0.124,0.006c5.001,0,9.057-4.054,9.057-9.057
			C356.098,28.573,352.344,24.651,347.609,24.356z M319.689,20.739c-0.241-0.016-0.48-0.036-0.725-0.036
			c-2.537,0-4.865,0.876-6.715,2.334c-2.012-1.294-3.486-3.354-3.976-5.776c0.582,0.117,1.178,0.177,1.78,0.177c4.963,0,9-4.037,9-9
			c0-0.603-0.06-1.198-0.177-1.78c3.733,0.753,6.629,3.824,7.134,7.64C323.299,15.741,321.084,17.996,319.689,20.739z"/>
	</g>
	<g>
		<circle cx="323.598" cy="35.949" r="1.5"/>
	</g>
	<g>
		<circle cx="327.598" cy="41.949" r="1.5"/>
	</g>
	<g>
		<circle cx="335.598" cy="41.949" r="1.5"/>
	</g>
	<g>
		<circle cx="331.598" cy="35.949" r="1.5"/>
	</g>
	<g>
		<circle cx="339.598" cy="35.949" r="1.5"/>
	</g>
	<g>
		<circle cx="323.598" cy="47.971" r="1.5"/>
	</g>
	<g>
		<circle cx="331.598" cy="47.971" r="1.5"/>
	</g>
	<g>
		<circle cx="339.598" cy="47.971" r="1.5"/>
	</g>
</g>
<g>
	<path d="M658.774-74.529c-1.596-7.445-8.207-13.029-16.127-13.029c-6.423,0-11.977,3.678-14.702,9.035
		c-0.266-0.018-0.53-0.04-0.8-0.04c-6.627,0-11.999,5.372-11.999,12c0,6.607,5.34,11.965,11.938,11.998v0.003h2.062v-2h-1.604
		l-0.447-0.003c-5.485-0.027-9.948-4.513-9.948-9.998c0-5.514,4.485-10,9.999-10c0.175,0,0.347,0.014,0.52,0.025l0.148,0.01
		l1.316,0.088l0.598-1.176c2.492-4.899,7.443-7.942,12.92-7.942c6.79,0,12.75,4.814,14.172,11.448l0.317,1.482l1.514,0.095
		c4.203,0.262,7.496,3.763,7.496,7.971c0,4.397-3.565,7.977-7.957,8c-0.05-0.003-0.093-0.005-0.137-0.007l-2.043,0.007h-2.863v2
		h4.863v-0.007c0.046,0.001,0.091,0.007,0.137,0.007c5.521,0,10-4.477,10-10C668.146-69.873,664.002-74.204,658.774-74.529z"/>
	<circle cx="633.146" cy="-47.059" r="1.5"/>
	<circle cx="641.146" cy="-41.059" r="1.5"/>
	<circle cx="649.146" cy="-45.059" r="1.5"/>
	<rect x="632.146" y="-63.534" width="2" height="11.976"/>
	<polygon points="642.146,-45.594 642.146,-47.534 642.146,-59.534 640.146,-59.534 640.146,-47.534 640.146,-45.594 
		640.146,-45.559 642.146,-45.559 	"/>
	<polygon points="650.146,-49.781 650.146,-51.534 650.146,-63.534 648.146,-63.534 648.146,-51.534 648.146,-49.781 
		648.146,-49.559 650.146,-49.559 	"/>
</g>
<g>
	<rect x="-89.603" y="-2.916" width="2" height="7.973"/>
	<rect x="-108.603" y="15.998" width="7.973" height="2"/>
	<rect x="-103.93" y="4.732" transform="matrix(0.7071 0.7071 -0.7071 0.7071 -25.2197 72.3486)" width="7.974" height="2"/>
	<rect x="-78.421" y="1.75" transform="matrix(0.7071 0.7071 -0.7071 0.7071 -18.6206 56.4247)" width="2" height="7.972"/>
	<path d="M-59.091,22.874c-1.444-6.742-7.433-11.8-14.605-11.8c-2.185,0-4.258,0.47-6.126,1.313
		c-1.667-3.202-5.007-5.394-8.866-5.394c-5.522,0-10,4.477-10,9.999c0,2.46,0.899,4.702,2.373,6.442
		c-1.429,1.84-2.287,4.144-2.287,6.653c0,5.983,4.836,10.836,10.813,10.865v0.003h1.188v-2h-0.721l-0.457-0.003
		c-4.864-0.023-8.822-4.001-8.822-8.865c0-4.89,3.978-8.868,8.867-8.868c0.15,0,0.299,0.012,0.447,0.022l0.148,0.01l1.314,0.085
		l0.597-1.175c2.225-4.372,6.644-7.089,11.532-7.089c6.062,0,11.382,4.298,12.649,10.219l0.318,1.483l1.514,0.094
		c3.708,0.23,6.612,3.319,6.612,7.03c0,3.878-3.144,7.035-7.017,7.057c-0.042-0.003-0.079-0.005-0.117-0.005l-2.047,0.005h-0.819v2
		h2.819v-0.006c0.042,0.001,0.082,0.006,0.124,0.006c5.001,0,9.057-4.054,9.057-9.057C-50.603,27.091-54.356,23.169-59.091,22.874z
		 M-87.011,19.257c-0.241-0.016-0.48-0.036-0.725-0.036c-2.766,0-5.282,1.041-7.2,2.743c-1.092-1.366-1.753-3.09-1.753-4.971
		c0-4.41,3.589-7.999,8-7.999c3.091,0,5.76,1.773,7.091,4.345C-83.896,14.779-85.775,16.827-87.011,19.257z"/>
	<circle cx="-82.612" cy="49.444" r="1.5"/>
	<circle cx="-74.612" cy="55.444" r="1.5"/>
	<circle cx="-66.612" cy="51.444" r="1.5"/>
	<rect x="-83.612" y="32.969" width="2" height="11.976"/>
	<polygon points="-73.612,50.909 -73.612,48.969 -73.612,36.969 -75.612,36.969 -75.612,48.969 -75.612,50.909 -75.612,50.944 
		-73.612,50.944 	"/>
	<polygon points="-65.612,46.722 -65.612,44.969 -65.612,32.969 -67.612,32.969 -67.612,44.969 -67.612,46.722 -67.612,46.944 
		-65.612,46.944 	"/>
</g>
<g>
	<path d="M41.512,19.876c-1.444-6.742-7.433-11.8-14.605-11.8c-1.799,0-3.522,0.32-5.118,0.904C20.839,3.872,16.384,0,11,0
		c-0.413,0-0.819,0.027-1.222,0.071c0.744,1.112,1.179,2.448,1.179,3.886c0,3.865-3.134,7-7,7c-1.438,0-2.773-0.435-3.886-1.179
		C0.027,10.18,0,10.587,0,11c0,3.712,1.845,6.987,4.661,8.979C3.008,21.887,2,24.368,2,27.091c0,5.983,4.836,10.836,10.813,10.865
		v0.003H14v-2h-0.721l-0.457-0.003C7.958,35.933,4,31.955,4,27.091c0-4.89,3.978-8.868,8.867-8.868c0.15,0,0.299,0.012,0.447,0.022
		l0.148,0.01l1.314,0.085l0.597-1.175c2.225-4.372,6.644-7.089,11.532-7.089c6.062,0,11.382,4.298,12.649,10.219l0.318,1.483
		l1.514,0.094c3.708,0.23,6.612,3.319,6.612,7.03c0,3.878-3.144,7.035-7.017,7.057c-0.042-0.003-0.079-0.005-0.117-0.005
		l-2.047,0.005H38v2h2.819v-0.006c0.042,0.001,0.082,0.006,0.124,0.006c5.001,0,9.057-4.054,9.057-9.057
		C50,24.093,46.246,20.171,41.512,19.876z M13.592,16.259c-0.241-0.016-0.48-0.036-0.725-0.036c-2.537,0-4.865,0.876-6.715,2.334
		c-2.012-1.294-3.487-3.354-3.976-5.776c0.582,0.117,1.178,0.177,1.78,0.177c4.963,0,9-4.037,9-9c0-0.603-0.06-1.198-0.177-1.78
		c3.733,0.753,6.629,3.824,7.133,7.64C17.202,11.261,14.987,13.516,13.592,16.259z"/>
	<circle cx="18" cy="46.45" r="1.5"/>
	<circle cx="26" cy="52.45" r="1.5"/>
	<circle cx="34" cy="48.45" r="1.5"/>
	<rect x="17" y="29.975" width="2" height="11.976"/>
	<polygon points="27,47.915 27,45.975 27,33.975 25,33.975 25,45.975 25,47.915 25,47.95 27,47.95 	"/>
	<polygon points="35,43.728 35,41.975 35,29.975 33,29.975 33,41.975 33,43.728 33,43.95 35,43.95 	"/>
</g>
<g>
	<rect x="-106.603" y="124.316" width="56" height="2"/>
	<rect x="-102.603" y="130.316" width="50" height="2"/>
	<rect x="-96.603" y="136.316" width="36" height="2"/>
	<rect x="-104.603" y="118.316" width="52" height="2"/>
	<path d="M-92.729,110.312c0.175,0,0.347,0.014,0.519,0.025l0.149,0.01l1.316,0.088l0.598-1.176
		c2.493-4.899,7.443-7.942,12.92-7.942c6.79,0,12.75,4.814,14.171,11.448l0.318,1.482l1.514,0.095
		c1.207,0.075,2.335,0.425,3.336,0.975h3.286c-1.678-1.703-3.957-2.813-6.498-2.971c-1.596-7.445-8.207-13.029-16.127-13.029
		c-6.423,0-11.977,3.678-14.702,9.035c-0.266-0.018-0.53-0.04-0.8-0.04c-4.843,0-9.004,2.874-10.9,7.005h2.251
		C-99.646,112.33-96.422,110.312-92.729,110.312z"/>
</g>
<g>
	<rect x="14.5" y="96.802" width="2" height="7.973"/>
	<rect x="-4.5" y="115.716" width="7.973" height="2"/>
	<rect x="0.173" y="104.449" transform="matrix(0.7071 0.7071 -0.7071 0.7071 75.7823 27.9437)" width="7.974" height="2"/>
	<rect x="25.682" y="101.467" transform="matrix(0.7071 0.7071 -0.7071 0.7071 82.3815 12.0197)" width="2" height="7.972"/>
	<rect x="4.5" y="130.676" width="50" height="2"/>
	<rect x="8.5" y="136.676" width="44" height="2"/>
	<rect x="14.5" y="141.676" width="30" height="2"/>
	<rect x="6.5" y="124.676" width="46" height="2"/>
	<path d="M7.408,122.676H8.18h1.927h1.012c1.472-1.087,3.283-1.737,5.249-1.737c0.15,0,0.299,0.012,0.447,0.022l0.148,0.01
		l1.314,0.085l0.597-1.175c2.225-4.372,6.644-7.089,11.532-7.089c5.945,0,11.168,4.139,12.563,9.884h2.043v-0.084
		c-1.444-6.742-7.433-11.8-14.605-11.8c-2.185,0-4.258,0.47-6.126,1.313c-1.667-3.202-5.007-5.394-8.866-5.394
		c-5.522,0-10,4.477-10,9.999C5.414,118.952,6.162,121.011,7.408,122.676z M15.414,108.712c3.091,0,5.76,1.773,7.091,4.345
		c-2.298,1.44-4.178,3.488-5.413,5.918c-0.241-0.016-0.48-0.036-0.725-0.036c-2.764,0-5.274,1.045-7.189,2.745
		c-1.097-1.366-1.764-3.089-1.764-4.973C7.414,112.301,11.003,108.712,15.414,108.712z"/>
</g>
<g>
	<rect x="103.244" y="127.238" width="50" height="2"/>
	<rect x="107.244" y="133.238" width="44" height="2"/>
	<rect x="113.244" y="138.238" width="30" height="2"/>
	<rect x="105.244" y="121.238" width="46" height="2"/>
	<path d="M106.887,119.238h0.037h1.884h1.055c1.472-1.087,3.283-1.737,5.249-1.737c0.15,0,0.299,0.012,0.447,0.022l0.148,0.01
		l1.314,0.085l0.597-1.175c2.225-4.372,6.644-7.089,11.532-7.089c5.945,0,11.168,4.139,12.563,9.884h2.043v-0.084
		c-1.444-6.742-7.433-11.8-14.605-11.8c-1.799,0-3.521,0.32-5.117,0.903c-0.945-5.111-5.402-8.987-10.789-8.987
		c-0.413,0-0.819,0.027-1.222,0.071c0.744,1.112,1.179,2.448,1.179,3.886c0,3.865-3.134,7-7,7c-1.438,0-2.773-0.435-3.886-1.179
		c-0.044,0.401-0.071,0.809-0.071,1.222C102.244,113.975,104.08,117.245,106.887,119.238z M106.201,112.228c4.963,0,9-4.037,9-9
		c0-0.603-0.06-1.198-0.177-1.78c3.735,0.753,6.633,3.828,7.134,7.647c-2.712,1.443-4.927,3.699-6.322,6.442
		c-0.241-0.016-0.48-0.036-0.725-0.036c-2.534,0-4.855,0.879-6.701,2.335c-2.02-1.293-3.5-3.356-3.989-5.785
		C105.003,112.168,105.599,112.228,106.201,112.228z"/>
</g>
<g>
	<path d="M235.136,130.252h-19.474l-0.578-0.003c-5.485-0.027-9.948-4.513-9.948-9.998c0-5.514,4.485-10,9.999-10
		c0.175,0,0.347,0.014,0.519,0.025l0.149,0.01l1.316,0.088l0.598-1.176c2.493-4.899,7.443-7.942,12.92-7.942
		c6.79,0,12.75,4.814,14.171,11.448l0.318,1.482l1.514,0.095c1.822,0.113,3.463,0.845,4.746,1.971h2.732
		c-1.707-2.262-4.348-3.78-7.354-3.967c-1.596-7.445-8.207-13.029-16.127-13.029c-6.423,0-11.977,3.678-14.702,9.035
		c-0.266-0.018-0.53-0.04-0.8-0.04c-6.627,0-11.999,5.372-11.999,12c0,6.607,5.34,11.965,11.938,11.998v0.003h20.062
		c2.205,0,4,1.794,4,4s-1.795,4-4,4v2c3.314,0,6-2.686,6-6C241.136,132.938,238.45,130.252,235.136,130.252z"/>
	<path d="M239.136,126.252h-15.988v2h15.988c3.314,0,6-2.687,6-6c0-3.314-2.686-6-6-6v2c2.205,0,4,1.794,4,4
		S241.341,126.252,239.136,126.252z"/>
	<path d="M252.136,120.252c1.654,0,3,1.346,3,3s-1.346,3-3,3c-0.043,0-0.083-0.011-0.126-0.013h-4.862
		c0.003,0.005,0.009,0.008,0.012,0.013h-0.023v2h5.5v-0.051c2.523-0.254,4.5-2.358,4.5-4.949c0-2.762-2.238-5-5-5V120.252z"/>
	<path d="M256.136,130.252h-13v2h9.022c-0.004,0.005-0.008,0.008-0.011,0.013h3.862c0.043-0.002,0.083-0.013,0.126-0.013
		c1.654,0,3,1.346,3,3s-1.346,3-3,3v2c2.762,0,5-2.238,5-5S258.897,130.252,256.136,130.252z"/>
	<rect x="217.136" y="126.252" width="4" height="2"/>
</g>
<path d="M27.574-268.852c6.95,1.305,12.226,7.419,12.226,14.742c0,8.272-6.729,15.002-15,15.002c-6.79,0-12.531-4.49-14.366-10.728
	c1.398,0.461,2.867,0.698,4.366,0.698c7.72,0,14-6.281,14-14.001C28.8-265.122,28.376-267.066,27.574-268.852 M24.8-271.108
	c-0.338,0-0.668,0.031-1,0.051c1.861,2.113,3,4.881,3,7.92c0,6.627-5.372,12.001-12,12.001c-2.599,0-4.998-0.835-6.963-2.239
	c0.387,9.047,7.821,16.269,16.963,16.269c9.39,0,17-7.612,17-17.002S34.189-271.108,24.8-271.108L24.8-271.108z"/>
<g>
	<path d="M-78.596-266.113c-7.18,0-13,5.819-13,12.999c0,7.181,5.82,13.002,13,13.002s13-5.821,13-13.002
		C-65.596-260.294-71.416-266.113-78.596-266.113z M-78.596-242.112c-6.065,0-11-4.936-11-11.002c0-6.064,4.935-10.999,11-10.999
		s11,4.935,11,10.999C-67.596-247.048-72.53-242.112-78.596-242.112z"/>
	<rect x="-79.603" y="-279.107" width="2" height="10"/>
	<rect x="-79.603" y="-237.107" width="2" height="10"/>
	<rect x="-104.596" y="-254.107" width="9.993" height="2"/>
	<rect x="-62.603" y="-254.107" width="10.007" height="2"/>
	<rect x="-64.903" y="-273.021" transform="matrix(0.7071 0.7071 -0.7071 0.7071 -208.0918 -33.2556)" width="2" height="10.409"/>
	<rect x="-94.311" y="-243.613" transform="matrix(-0.7071 -0.7071 0.7071 -0.7071 9.287 -472.9686)" width="2" height="10.41"/>
	<rect x="-98.512" y="-268.812" transform="matrix(0.7071 0.7071 -0.7071 0.7071 -216.7007 -12.4622)" width="10.409" height="2"/>
	<rect x="-69.103" y="-239.403" transform="matrix(-0.7072 -0.7071 0.7071 -0.7072 59.4806 -452.1703)" width="10.41" height="2"/>
</g>
<g>
	<rect x="319.57" y="91.754" width="2" height="7.973"/>
	<rect x="300.598" y="110.74" width="7.973" height="2"/>
	<rect x="305.323" y="99.522" transform="matrix(0.7071 0.7071 -0.7071 0.7071 161.6744 -189.2735)" width="7.974" height="2"/>
	<rect x="330.832" y="96.54" transform="matrix(0.7071 0.7071 -0.7071 0.7071 168.2735 -205.1974)" width="2" height="7.972"/>
	<path d="M334.598,133.754l0.005-0.007h-12.536l-0.594-0.003c-4.864-0.024-8.822-4.001-8.822-8.865c0-4.89,3.978-8.868,8.867-8.868
		c0.15,0,0.299,0.012,0.447,0.021l0.148,0.011l1.314,0.085l0.597-1.174c2.225-4.373,6.644-7.09,11.532-7.09
		c5.916,0,11.114,4.099,12.54,9.8h2.065c-1.444-6.742-7.433-11.8-14.605-11.8c-2.185,0-4.258,0.47-6.126,1.313
		c-1.667-3.202-5.007-5.394-8.866-5.394c-5.522,0-10,4.477-10,9.999c0,2.46,0.899,4.702,2.373,6.442
		c-1.429,1.84-2.287,4.144-2.287,6.653c0,5.983,4.836,10.836,10.813,10.865v0.003h13.135v0.007c2.205,0,4,1.794,4,4s-1.795,4-4,4v2
		c3.314,0,6-2.686,6-6C340.598,136.44,337.912,133.754,334.598,133.754z M320.564,103.784c3.091,0,5.76,1.773,7.091,4.345
		c-2.298,1.439-4.178,3.488-5.413,5.918c-0.241-0.016-0.48-0.036-0.725-0.036c-2.766,0-5.282,1.042-7.2,2.743
		c-1.092-1.367-1.753-3.09-1.753-4.971C312.564,107.373,316.153,103.784,320.564,103.784z"/>
	<path d="M338.598,129.754h-9.988v2h9.988c3.314,0,6-2.687,6-6c0-3.314-2.686-6-6-6v2c2.205,0,4,1.794,4,4
		S340.803,129.754,338.598,129.754z"/>
	<path d="M346.621,129.754h-0.023v2h5.5v-0.051c2.523-0.254,4.5-2.358,4.5-4.949c0-2.762-2.238-5-5-5v2c1.654,0,3,1.346,3,3
		s-1.346,3-3,3c-0.043,0-0.083-0.011-0.126-0.013h-4.862C346.612,129.746,346.618,129.75,346.621,129.754z"/>
	<path d="M355.598,133.754h-13v2h9.022c-0.004,0.004-0.008,0.008-0.011,0.013h3.862c0.043-0.002,0.083-0.013,0.126-0.013
		c1.654,0,3,1.346,3,3s-1.346,3-3,3v2c2.762,0,5-2.238,5-5S358.359,133.754,355.598,133.754z"/>
	<rect x="322.598" y="129.754" width="4" height="2"/>
</g>
<g>
	<path d="M434.56,131.748l0.005-0.007h-12.536l-0.594-0.003c-4.864-0.024-8.822-4.001-8.822-8.865c0-4.89,3.978-8.868,8.867-8.868
		c0.15,0,0.299,0.012,0.447,0.021l0.148,0.011l1.314,0.085l0.597-1.174c2.225-4.373,6.644-7.09,11.532-7.09
		c5.916,0,11.114,4.099,12.54,9.8h2.065c-1.444-6.742-7.433-11.8-14.605-11.8c-1.806,0-3.536,0.322-5.138,0.91
		c-0.938-5.123-5.4-9.01-10.794-9.01c-0.413,0-0.819,0.027-1.222,0.071c0.744,1.112,1.179,2.448,1.179,3.886c0,3.865-3.134,7-7,7
		c-1.438,0-2.773-0.435-3.886-1.179c-0.044,0.401-0.071,0.809-0.071,1.222c0,3.725,1.858,7.009,4.69,8.998
		c-1.655,1.907-2.665,4.392-2.665,7.116c0,5.983,4.836,10.836,10.813,10.865v0.003h13.135v0.007c2.205,0,4,1.794,4,4s-1.795,4-4,4v2
		c3.314,0,6-2.686,6-6C440.56,134.435,437.874,131.748,434.56,131.748z M410.764,108.539c0.582,0.117,1.178,0.177,1.78,0.177
		c4.963,0,9-4.037,9-9c0-0.603-0.06-1.198-0.177-1.78c3.744,0.755,6.646,3.842,7.138,7.674c-2.702,1.444-4.909,3.696-6.301,6.432
		c-0.241-0.016-0.48-0.036-0.725-0.036c-2.535,0-4.861,0.875-6.71,2.33C412.741,113.043,411.255,110.975,410.764,108.539z"/>
	<path d="M438.56,127.748h-9.988v2h9.988c3.314,0,6-2.687,6-6c0-3.314-2.686-6-6-6v2c2.205,0,4,1.794,4,4
		S440.765,127.748,438.56,127.748z"/>
	<path d="M446.583,127.748h-0.023v2h5.5v-0.051c2.523-0.254,4.5-2.358,4.5-4.949c0-2.762-2.238-5-5-5v2c1.654,0,3,1.346,3,3
		s-1.346,3-3,3c-0.043,0-0.083-0.011-0.126-0.013h-4.862C446.574,127.74,446.58,127.744,446.583,127.748z"/>
	<path d="M455.56,131.748h-13v2h9.022c-0.004,0.004-0.008,0.008-0.011,0.013h3.862c0.043-0.002,0.083-0.013,0.126-0.013
		c1.654,0,3,1.346,3,3s-1.346,3-3,3v2c2.762,0,5-2.238,5-5S458.321,131.748,455.56,131.748z"/>
	<rect x="422.56" y="127.748" width="4" height="2"/>
</g>
<g>
	<rect x="535.452" y="94.316" width="2" height="10"/>
	<rect x="510.459" y="119.316" width="9.993" height="2"/>
	<rect x="550.152" y="100.402" transform="matrix(0.7071 0.7071 -0.7071 0.7071 236.104 -358.7917)" width="2" height="10.409"/>
	<rect x="516.543" y="104.612" transform="matrix(0.7071 0.7071 -0.7071 0.7071 227.4951 -337.9983)" width="10.409" height="2"/>
	<path d="M540.452,134.316h-24v2h24c2.205,0,4,1.794,4,4s-1.795,4-4,4v2c3.314,0,6-2.686,6-6
		C546.452,137.003,543.767,134.316,540.452,134.316z"/>
	<path d="M552.476,130.316h-0.023v2h5.5v-0.051c2.523-0.254,4.5-2.358,4.5-4.949c0-2.762-2.238-5-5-5v2c1.654,0,3,1.346,3,3
		s-1.346,3-3,3c-0.043,0-0.083-0.011-0.126-0.013h-4.862C552.467,130.309,552.473,130.313,552.476,130.316z"/>
	<path d="M561.452,134.316h-13v2h9.022c-0.004,0.004-0.008,0.008-0.011,0.013h3.862c0.043-0.002,0.083-0.013,0.126-0.013
		c1.654,0,3,1.346,3,3s-1.346,3-3,3v2c2.762,0,5-2.238,5-5S564.214,134.316,561.452,134.316z"/>
	<path d="M528.161,130.316h-11.709v2h12.012h0.822h15.166c3.314,0,6-2.687,6-6c0-3.314-2.686-6-6-6v2c2.205,0,4,1.794,4,4
		s-1.795,4-4,4h-12.538c-3.802-1.734-6.455-5.563-6.455-10.007c0-6.064,4.935-10.999,11-10.999c5.384,0,9.868,3.891,10.81,9.006
		h2.021c-0.961-6.23-6.331-11.006-12.831-11.006c-7.18,0-13,5.819-13,12.999C523.459,124.335,525.289,127.932,528.161,130.316z"/>
</g>
<g>
	<path d="M640.679,127.76h-24v2h24c2.205,0,4,1.794,4,4s-1.795,4-4,4v2c3.314,0,6-2.686,6-6
		C646.679,130.446,643.993,127.76,640.679,127.76z"/>
	<path d="M658.179,125.76v-0.051c2.523-0.254,4.5-2.358,4.5-4.949c0-2.762-2.238-5-5-5v2c1.654,0,3,1.346,3,3s-1.346,3-3,3
		c-0.043,0-0.083-0.011-0.126-0.013h-4.862c0.004,0.005,0.009,0.009,0.012,0.013h-0.023v2H658.179z"/>
	<path d="M661.679,127.76h-13v2h9.022c-0.003,0.004-0.007,0.008-0.011,0.013h3.862c0.043-0.002,0.083-0.013,0.126-0.013
		c1.654,0,3,1.346,3,3s-1.346,3-3,3v2c2.762,0,5-2.238,5-5S664.44,127.76,661.679,127.76z"/>
	<path d="M629.513,125.76h15.166c3.314,0,6-2.687,6-6c0-3.314-2.686-6-6-6v2c2.205,0,4,1.794,4,4s-1.795,4-4,4h-12.586
		c-2.596-1.188-4.658-3.339-5.69-6.034c0.849,0.204,1.724,0.309,2.612,0.309c6.168,0,11.187-5.019,11.187-11.188
		c0-1.276-0.22-2.532-0.64-3.717c4.046,1.102,7.168,4.459,7.937,8.63h2.018c-0.964-6.237-6.338-11.016-12.846-11.016
		c-0.259,0-0.511,0.024-0.766,0.039c1.425,1.618,2.297,3.737,2.297,6.063c0,5.072-4.112,9.188-9.187,9.188
		c-1.988,0-3.826-0.641-5.33-1.715c0.162,3.801,1.962,7.165,4.699,9.44h-11.705v2h12.012H629.513z"/>
</g>
<g>
	<path d="M-79.103,212.953h-20c-1.103,0-2-0.897-2-2s0.897-2,2-2h3.445h0.555v-2h-4c-2.209,0-4,1.791-4,4s1.791,4,4,4h20
		c2.205,0,4,1.794,4,4s-1.795,4-4,4v2c3.314,0,6-2.686,6-6C-73.103,215.64-75.788,212.953-79.103,212.953z"/>
	<path d="M-77.103,196.953v2c2.205,0,4,1.794,4,4s-1.795,4-4,4h-15.988v2h15.988c3.314,0,6-2.687,6-6
		C-71.103,199.639-73.788,196.953-77.103,196.953z"/>
	<path d="M-71.103,208.953v2h5.5v-0.051c2.523-0.254,4.5-2.358,4.5-4.949c0-2.762-2.238-5-5-5v2c1.654,0,3,1.346,3,3s-1.346,3-3,3
		c-0.043,0-0.083-0.011-0.126-0.013h-4.862c0.003,0.005,0.009,0.009,0.012,0.013H-71.103z"/>
	<path d="M-60.103,212.953h-11v2h7.022c-0.004,0.004-0.008,0.008-0.011,0.013h3.862c0.043-0.002,0.083-0.013,0.126-0.013
		c1.654,0,3,1.346,3,3s-1.346,3-3,3v2c2.762,0,5-2.238,5-5S-57.341,212.953-60.103,212.953z"/>
</g>
<path d="M457.189,199.3v-0.038h-38.376c-1.103,0-2-0.897-2-2s0.897-2,2-2h33c2.762,0,5-2.238,5-5s-2.238-5-5-5h-37.875v0.008
	c-0.042-0.001-0.083-0.008-0.125-0.008c-2.762,0-5,2.238-5,5s2.238,5,5,5v-2c-1.654,0-3-1.346-3-3s1.346-3,3-3h0.125h3.853h34.022
	c1.654,0,3,1.346,3,3s-1.346,3-3,3h-33c-2.209,0-4,1.791-4,4s1.791,4,4,4h38c1.103,0,2,0.897,2,2s-0.897,2-2,2h-32
	c-2.209,0-4,1.791-4,4s1.791,4,4,4h22c1.103,0,2,0.897,2,2s-0.897,2-2,2h-24.01v0.001c-2.204,0.006-3.99,1.793-3.99,3.999
	s1.786,3.993,3.99,3.999v0.001h12.01c1.103,0,2,0.897,2,2s-0.897,2-2,2h-2c-2.209,0-4,1.791-4,4s1.791,4,4,4v-2
	c-1.103,0-2-0.897-2-2s0.897-2,2-2h2c2.209,0,4-1.791,4-4s-1.791-4-4-4h-12c-1.103,0-2-0.897-2-2s0.897-2,2-2h24
	c2.209,0,4-1.791,4-4c0-2.152-1.704-3.895-3.834-3.983v-0.017h-22.166c-1.103,0-2-0.897-2-2s0.897-2,2-2h32c2.209,0,4-1.791,4-4
	C460.813,201.182,459.22,199.492,457.189,199.3z"/>
<path d="M642.604,189.978v-2.024h-2v2.024c-13.01,0.513-23.462,10.965-23.975,23.976h1.674c1.14-1.222,2.748-2,4.551-2
	c2.26,0,4.233,1.203,5.331,3h1.838c1.098-1.797,3.071-3,5.331-3c2.204,0,4.137,1.144,5.25,2.866v15.134c0,2.21,1.791,4,4,4
	s4-1.79,4-4h-2c0,1.103-0.897,2-2,2s-2-0.897-2-2v-15.134c1.113-1.723,3.046-2.866,5.25-2.866c2.26,0,4.233,1.203,5.331,3h1.838
	c1.098-1.797,3.071-3,5.331-3c1.803,0,3.411,0.778,4.551,2h1.674C666.066,200.942,655.614,190.49,642.604,189.978z M660.354,209.953
	c-2.496,0-4.736,1.114-6.25,2.87c-1.514-1.756-3.754-2.87-6.25-2.87s-4.736,1.114-6.25,2.87c-1.514-1.756-3.754-2.87-6.25-2.87
	s-4.736,1.114-6.25,2.87c-1.514-1.756-3.755-2.87-6.25-2.87c-1.402,0-2.731,0.351-3.897,0.975
	c1.909-10.769,11.339-18.975,22.647-18.975s20.738,8.206,22.647,18.975C663.086,210.304,661.757,209.953,660.354,209.953z"/>
<g>
	<path d="M237.31,314.266V297.16c0-2.762-2.238-5-5-5s-5,2.238-5,5v17.105c-1.236,1.263-2,2.988-2,4.895c0,3.866,3.134,7,7,7
		s7-3.134,7-7C239.31,317.254,238.546,315.528,237.31,314.266z M232.31,324.16c-2.757,0-5-2.243-5-5
		c0-1.313,0.508-2.554,1.429-3.495l0.571-0.583v-0.816V297.16c0-1.654,1.346-3,3-3s3,1.346,3,3v17.105v0.816l0.571,0.583
		c0.921,0.941,1.429,2.183,1.429,3.495C237.31,321.917,235.066,324.16,232.31,324.16z"/>
	<path d="M233.31,316.336V301.16h-2v15.176c-1.167,0.413-2.008,1.516-2.008,2.824c0,1.662,1.347,3.008,3.008,3.008
		c1.662,0,3.008-1.346,3.008-3.008C235.317,317.852,234.478,316.749,233.31,316.336z M232.31,320.168
		c-0.556,0-1.008-0.452-1.008-1.008s0.452-1.008,1.008-1.008s1.008,0.452,1.008,1.008S232.865,320.168,232.31,320.168z"/>
</g>
<g>
	<path d="M337.098,314.266V297.16c0-2.762-2.238-5-5-5s-5,2.238-5,5v17.105c-1.236,1.263-2,2.988-2,4.895c0,3.866,3.134,7,7,7
		s7-3.134,7-7C339.098,317.254,338.334,315.528,337.098,314.266z M332.098,324.16c-2.757,0-5-2.243-5-5
		c0-1.313,0.508-2.554,1.429-3.495l0.571-0.583v-0.816V297.16c0-1.654,1.346-3,3-3s3,1.346,3,3v17.105v0.816l0.571,0.583
		c0.921,0.941,1.429,2.183,1.429,3.495C337.098,321.917,334.854,324.16,332.098,324.16z"/>
	<path d="M333.098,316.336V296.16h-2v20.176c-1.167,0.413-2.008,1.516-2.008,2.824c0,1.662,1.347,3.008,3.008,3.008
		c1.662,0,3.008-1.346,3.008-3.008C335.105,317.852,334.266,316.749,333.098,316.336z M332.098,320.168
		c-0.556,0-1.008-0.452-1.008-1.008s0.452-1.008,1.008-1.008s1.008,0.452,1.008,1.008S332.653,320.168,332.098,320.168z"/>
</g>
<g>
	<path d="M134.2,314.266V297.16c0-2.762-2.238-5-5-5s-5,2.238-5,5v17.105c-1.236,1.263-2,2.988-2,4.895c0,3.866,3.134,7,7,7
		s7-3.134,7-7C136.2,317.254,135.437,315.528,134.2,314.266z M129.2,324.16c-2.757,0-5-2.243-5-5c0-1.313,0.508-2.554,1.429-3.495
		l0.571-0.583v-0.816V297.16c0-1.654,1.346-3,3-3s3,1.346,3,3v17.105v0.816l0.571,0.583c0.921,0.941,1.429,2.183,1.429,3.495
		C134.2,321.917,131.957,324.16,129.2,324.16z"/>
	<path d="M130.2,316.336V306.16h-2v10.176c-1.167,0.413-2.008,1.516-2.008,2.824c0,1.662,1.347,3.008,3.008,3.008
		c1.662,0,3.008-1.346,3.008-3.008C132.208,317.852,131.368,316.749,130.2,316.336z M129.2,320.168
		c-0.556,0-1.008-0.452-1.008-1.008s0.452-1.008,1.008-1.008s1.008,0.452,1.008,1.008S129.756,320.168,129.2,320.168z"/>
</g>
<g>
	<path d="M30.555,314.266V297.16c0-2.762-2.238-5-5-5s-5,2.238-5,5v17.105c-1.236,1.263-2,2.988-2,4.895c0,3.866,3.134,7,7,7
		s7-3.134,7-7C32.555,317.254,31.791,315.528,30.555,314.266z M25.555,324.16c-2.757,0-5-2.243-5-5c0-1.313,0.508-2.554,1.429-3.495
		l0.571-0.583v-0.816V297.16c0-1.654,1.346-3,3-3s3,1.346,3,3v17.105v0.816l0.571,0.583c0.921,0.941,1.429,2.183,1.429,3.495
		C30.555,321.917,28.312,324.16,25.555,324.16z"/>
	<path d="M26.555,316.336v-5.176h-2v5.176c-1.167,0.413-2.008,1.516-2.008,2.824c0,1.662,1.347,3.008,3.008,3.008
		c1.662,0,3.008-1.346,3.008-3.008C28.563,317.852,27.723,316.749,26.555,316.336z M25.555,320.168
		c-0.556,0-1.008-0.452-1.008-1.008s0.452-1.008,1.008-1.008s1.008,0.452,1.008,1.008S26.11,320.168,25.555,320.168z"/>
</g>
<g>
	<path d="M-74.103,314.266V297.16c0-2.762-2.238-5-5-5s-5,2.238-5,5v17.105c-1.236,1.263-2,2.988-2,4.895c0,3.866,3.134,7,7,7
		s7-3.134,7-7C-72.103,317.254-72.866,315.528-74.103,314.266z M-79.103,324.16c-2.757,0-5-2.243-5-5
		c0-1.313,0.508-2.554,1.429-3.495l0.571-0.583v-0.816V297.16c0-1.654,1.346-3,3-3s3,1.346,3,3v17.105v0.816l0.571,0.583
		c0.921,0.941,1.429,2.183,1.429,3.495C-74.103,321.917-76.346,324.16-79.103,324.16z"/>
	<path d="M-79.103,316.152c-1.661,0-3.008,1.347-3.008,3.008c0,1.662,1.347,3.008,3.008,3.008c1.662,0,3.008-1.346,3.008-3.008
		C-76.095,317.499-77.44,316.152-79.103,316.152z M-79.103,320.168c-0.556,0-1.008-0.452-1.008-1.008s0.452-1.008,1.008-1.008
		s1.008,0.452,1.008,1.008S-78.547,320.168-79.103,320.168z"/>
</g>
<g>
	<path d="M425.822,294.473c-2.209,0-4,1.791-4,4c0,2.21,1.791,4,4,4c2.211,0,4-1.79,4-4
		C429.822,296.264,428.033,294.473,425.822,294.473z M425.822,300.473c-1.103,0-2-0.897-2-2s0.897-2,2-2s2,0.897,2,2
		S426.925,300.473,425.822,300.473z"/>
	<path d="M439.822,322.473c-4.41,0-7.999-3.589-7.999-7.999v-4.002c0-4.41,3.589-7.999,7.999-7.999c2.715,0,5.115,1.362,6.563,3.437
		l1.43-1.43c-1.824-2.429-4.72-4.007-7.992-4.007c-5.522,0-9.999,4.478-9.999,9.999v4.002c0,5.521,4.477,9.999,9.999,9.999
		c3.272,0,6.168-1.579,7.992-4.008l-1.43-1.43C444.938,321.109,442.538,322.473,439.822,322.473z"/>
</g>
<g>
	<path d="M530.519,294.352c-2.209,0-4,1.791-4,4c0,2.21,1.791,4,4,4c2.211,0,4-1.79,4-4
		C534.519,296.143,532.729,294.352,530.519,294.352z M530.519,300.352c-1.103,0-2-0.897-2-2s0.897-2,2-2s2,0.897,2,2
		S531.621,300.352,530.519,300.352z"/>
	<polygon points="550.394,302.473 550.394,300.473 538.394,300.473 536.394,300.473 536.394,324.473 538.394,324.473 
		538.394,312.473 546.394,312.473 546.394,310.473 538.394,310.473 538.394,302.473 	"/>
</g>
<g>
	<path d="M641.604,298.164c-7.179,0-13,5.82-13,13s5.821,13,13,13s13-5.82,13-13S648.783,298.164,641.604,298.164z M641.604,322.164
		c-6.065,0-11-4.935-11-11s4.935-11,11-11s11,4.935,11,11S647.67,322.164,641.604,322.164z"/>
	<path d="M637.338,315.406l6.363-2.121l2.121-6.364l-6.363,2.122L637.338,315.406z M641.04,310.624l1.62-0.54l-0.54,1.62l-1.62,0.54
		L641.04,310.624z"/>
</g>
<g>
	<path d="M-79.103,388.682c-7.179,0-13,5.82-13,13s5.821,13,13,13s13-5.82,13-13S-71.924,388.682-79.103,388.682z M-79.103,412.682
		c-6.065,0-11-4.934-11-11c0-6.064,4.935-11,11-11s11,4.936,11,11C-68.103,407.748-73.037,412.682-79.103,412.682z"/>
	<path d="M-76.541,400.104l-2.586-4.422l-2.529,4.33h0.007c-0.299,0.467-0.478,1.018-0.478,1.613c0,1.656,1.343,3,3,3s3-1.344,3-3
		c0-0.559-0.162-1.074-0.428-1.521H-76.541z M-79.127,402.625c-0.552,0-1-0.449-1-1c0-0.188,0.055-0.367,0.162-0.535l0.864-1.355
		l0.826,1.391c0.098,0.164,0.147,0.332,0.147,0.5C-78.127,402.176-78.575,402.625-79.127,402.625z"/>
</g>
<g>
	<path d="M25.682,388.682c-7.18,0-13,5.82-13,13s5.82,13,13,13s13-5.82,13-13S32.861,388.682,25.682,388.682z M25.682,412.682
		c-6.065,0-11-4.934-11-11c0-6.064,4.935-11,11-11s11,4.936,11,11C36.682,407.748,31.747,412.682,25.682,412.682z"/>
	<path d="M27.271,399.102c-0.467-0.299-1.018-0.477-1.613-0.477c-1.658,0-3,1.342-3,3c0,1.656,1.342,3,3,3
		c0.557,0,1.072-0.162,1.52-0.428v0.014l4.422-2.586l-4.328-2.529V399.102z M26.155,402.477c-0.164,0.098-0.332,0.148-0.498,0.148
		c-0.552,0-1-0.449-1-1c0-0.553,0.448-1,1-1c0.188,0,0.368,0.053,0.535,0.16l1.355,0.865L26.155,402.477z"/>
</g>
<g>
	<path d="M128.732,388.682c-7.18,0-13,5.82-13,13s5.82,13,13,13s13-5.82,13-13S135.912,388.682,128.732,388.682z M128.732,412.682
		c-6.065,0-11-4.934-11-11c0-6.064,4.935-11,11-11s11,4.936,11,11C139.732,407.748,134.798,412.682,128.732,412.682z"/>
	<path d="M128.732,398.625c-1.656,0-3,1.342-3,3c0,0.557,0.162,1.072,0.428,1.52h-0.014l2.586,4.422l2.529-4.328h-0.006
		c0.299-0.467,0.477-1.018,0.477-1.613C131.732,399.967,130.391,398.625,128.732,398.625z M129.571,402.16l-0.865,1.355
		l-0.826-1.393c-0.098-0.164-0.147-0.332-0.147-0.498c0-0.553,0.448-1,1-1s1,0.447,1,1
		C129.732,401.813,129.679,401.992,129.571,402.16z"/>
</g>
<g>
	<path d="M232.146,388.682c-7.179,0-13,5.82-13,13s5.821,13,13,13s13-5.82,13-13S239.325,388.682,232.146,388.682z M232.146,412.682
		c-6.065,0-11-4.934-11-11c0-6.064,4.935-11,11-11s11,4.936,11,11C243.146,407.748,238.212,412.682,232.146,412.682z"/>
	<path d="M232.105,398.625c-0.557,0-1.072,0.162-1.52,0.428v-0.014l-4.422,2.586l4.328,2.529v-0.006
		c0.467,0.299,1.018,0.477,1.613,0.477c1.658,0,3-1.342,3-3C235.105,399.969,233.764,398.625,232.105,398.625z M232.105,402.625
		c-0.188,0-0.368-0.055-0.535-0.162l-1.355-0.865l1.393-0.826c0.164-0.098,0.332-0.146,0.498-0.146c0.552,0,1,0.447,1,1
		C233.105,402.176,232.657,402.625,232.105,402.625z"/>
</g>
<g>
	<rect x="23.995" y="191.953" width="2" height="10"/>
	<rect x="38.695" y="198.039" transform="matrix(0.7071 0.7071 -0.7071 0.7071 155.3413 31.4602)" width="2" height="10.409"/>
	<rect x="5.086" y="202.249" transform="matrix(0.7071 0.7071 -0.7071 0.7071 146.7324 52.2536)" width="10.409" height="2"/>
	<polygon points="18.327,221.207 19.741,222.621 23.995,218.367 23.995,227.953 25.995,227.953 25.995,218.367 30.248,222.621 
		31.662,221.207 24.995,214.539 	"/>
	<path d="M38.002,217.952c0-0.002,0-0.004,0-0.006c0-7.18-5.82-12.999-13-12.999s-13,5.819-13,12.999c0,0.002,0,0.004,0,0.006h-13v2
		h18v-2h-3c0-0.002,0-0.004,0-0.006c0-6.064,4.935-10.999,11-10.999s11,4.935,11,10.999c0,0.002,0,0.004,0,0.006h-3v2h17.995v-2
		H38.002z"/>
</g>
<g>
	<rect x="127.74" y="190.766" width="2" height="10"/>
	<rect x="142.44" y="196.852" transform="matrix(0.7071 0.7071 -0.7071 0.7071 184.8879 -42.2465)" width="2" height="10.409"/>
	<rect x="108.831" y="201.061" transform="matrix(0.7071 0.7071 -0.7071 0.7071 176.279 -21.4531)" width="10.409" height="2"/>
	<polygon points="129.74,225.313 129.74,214.766 127.74,214.766 127.74,225.313 123.486,221.059 122.072,222.473 128.74,229.141 
		135.407,222.473 133.993,221.059 	"/>
	<path d="M141.747,216.765c0-0.002,0-0.004,0-0.006c0-7.18-5.82-12.999-13-12.999s-13,5.819-13,12.999c0,0.002,0,0.004,0,0.006h-13
		v2h22v-2h-7c0-0.002,0-0.004,0-0.006c0-6.064,4.935-10.999,11-10.999s11,4.935,11,10.999c0,0.002,0,0.004,0,0.006h-7v2h21.995v-2
		H141.747z"/>
</g>
<g>
	<polygon points="332.098,224.778 332.098,210.396 330.098,210.396 330.098,224.778 325.844,220.524 324.43,221.938 
		331.098,228.606 337.765,221.938 336.351,220.524 	"/>
	<path d="M347.726,205.425c-1.596-7.445-8.207-13.029-16.127-13.029c-6.423,0-11.977,3.678-14.702,9.035
		c-0.266-0.018-0.53-0.04-0.8-0.04c-6.627,0-11.999,5.372-11.999,12c0,6.607,5.34,11.965,11.938,11.998v0.003h6.062v-2h-5.604
		l-0.447-0.003c-5.485-0.027-9.948-4.513-9.948-9.998c0-5.514,4.485-10,9.999-10c0.175,0,0.347,0.014,0.52,0.025l0.148,0.01
		l1.316,0.088l0.598-1.176c2.492-4.899,7.443-7.942,12.92-7.942c6.79,0,12.75,4.814,14.172,11.448l0.317,1.482l1.514,0.095
		c4.203,0.262,7.496,3.763,7.496,7.971c0,4.397-3.565,7.977-7.957,8c-0.05-0.003-0.093-0.005-0.137-0.007l-2.043,0.007h-4.863v2
		h6.863v-0.007c0.046,0.001,0.091,0.007,0.137,0.007c5.521,0,10-4.477,10-10C357.098,210.081,352.953,205.75,347.726,205.425z"/>
</g>
<g>
	<polygon points="238.082,221.583 239.496,220.169 232.829,213.501 226.161,220.169 227.575,221.583 231.829,217.329 
		231.829,229.915 233.829,229.915 233.829,217.329 	"/>
	<path d="M249.457,207.021c-1.596-7.445-8.207-13.029-16.127-13.029c-6.423,0-11.977,3.678-14.702,9.035
		c-0.266-0.018-0.53-0.04-0.8-0.04c-6.627,0-11.999,5.372-11.999,12c0,6.607,5.34,11.965,11.938,11.998v0.003h10.062v-2h-9.604
		l-0.447-0.003c-5.485-0.027-9.948-4.513-9.948-9.998c0-5.514,4.485-10,9.999-10c0.175,0,0.347,0.014,0.52,0.025l0.148,0.01
		l1.316,0.088l0.598-1.176c2.492-4.899,7.443-7.942,12.92-7.942c6.79,0,12.75,4.814,14.172,11.448l0.317,1.482l1.514,0.095
		c4.203,0.262,7.496,3.763,7.496,7.971c0,4.397-3.565,7.977-7.957,8c-0.05-0.003-0.093-0.005-0.137-0.007l-2.043,0.007h-8.863v2
		h10.863v-0.007c0.046,0.001,0.091,0.007,0.137,0.007c5.521,0,10-4.477,10-10C258.829,211.677,254.685,207.346,249.457,207.021z"/>
</g>
<g>
	<path d="M451.946,17.505c-1.596-7.445-8.207-13.029-16.127-13.029c-6.423,0-11.977,3.678-14.702,9.035
		c-0.266-0.018-0.53-0.04-0.8-0.04c-6.627,0-11.999,5.372-11.999,12c0,6.607,5.34,11.965,11.938,11.998v0.003h2.062v-2h-1.604
		l-0.447-0.003c-5.485-0.027-9.948-4.513-9.948-9.998c0-5.514,4.485-10,9.999-10c0.175,0,0.347,0.014,0.52,0.025l0.148,0.01
		l1.316,0.088l0.598-1.176c2.492-4.899,7.443-7.942,12.92-7.942c6.79,0,12.75,4.814,14.172,11.448l0.317,1.482l1.514,0.095
		c4.203,0.262,7.496,3.763,7.496,7.971c0,4.397-3.565,7.977-7.957,8c-0.05-0.003-0.093-0.005-0.137-0.007l-2.043,0.007h-0.863v2
		h2.863v-0.007c0.046,0.001,0.091,0.007,0.137,0.007c5.521,0,10-4.477,10-10C461.318,22.161,457.174,17.83,451.946,17.505z"/>
	<polygon points="430.318,36.493 430.318,33.863 432.491,35.086 433.177,33.865 430.707,32.476 433.177,31.086 432.491,29.865 
		430.318,31.088 430.318,28.493 428.318,28.493 428.318,31.132 426.067,29.865 425.382,31.086 427.852,32.476 425.382,33.865 
		426.067,35.086 428.318,33.819 428.318,36.493 	"/>
	<polygon points="435.48,40.848 433.308,42.07 433.308,39.476 431.308,39.476 431.308,42.114 429.057,40.848 428.371,42.068 
		430.841,43.458 428.371,44.848 429.057,46.068 431.308,44.802 431.308,47.476 433.308,47.476 433.308,44.846 435.48,46.068 
		436.166,44.848 433.696,43.458 436.166,42.068 	"/>
	<polygon points="444.496,33.865 442.323,35.088 442.323,32.493 440.323,32.493 440.323,35.132 438.072,33.865 437.387,35.086 
		439.856,36.476 437.387,37.865 438.072,39.086 440.323,37.819 440.323,40.493 442.323,40.493 442.323,37.863 444.496,39.086 
		445.182,37.865 442.712,36.476 445.182,35.086 	"/>
</g>
<g>
	<rect x="527.458" y="-0.547" width="2" height="7.973"/>
	<rect x="508.458" y="18.367" width="7.973" height="2"/>
	<rect x="513.131" y="7.101" transform="matrix(0.7071 0.7071 -0.7071 0.7071 157.1884 -363.2851)" width="7.974" height="2"/>
	<rect x="538.64" y="4.119" transform="matrix(0.7071 0.7071 -0.7071 0.7071 163.7875 -379.2091)" width="2" height="7.972"/>
	<path d="M557.97,25.243c-1.444-6.742-7.433-11.8-14.605-11.8c-2.185,0-4.258,0.471-6.127,1.314
		c-1.666-3.203-5.006-5.395-8.865-5.395c-5.522,0-10,4.477-10,9.999c0,2.46,0.899,4.702,2.373,6.442
		c-1.428,1.84-2.287,4.144-2.287,6.653c0,5.983,4.836,10.836,10.813,10.865v0.003h1.188v-2h-0.721l-0.457-0.003
		c-4.864-0.023-8.822-4.001-8.822-8.865c0-4.89,3.978-8.868,8.867-8.868c0.15,0,0.299,0.012,0.447,0.022l0.148,0.01l1.314,0.085
		l0.597-1.175c2.225-4.372,6.644-7.089,11.532-7.089c6.062,0,11.382,4.298,12.649,10.219l0.318,1.483l1.514,0.094
		c3.708,0.23,6.612,3.319,6.612,7.03c0,3.878-3.144,7.035-7.017,7.057c-0.042-0.003-0.079-0.005-0.117-0.005l-1.866,0.005v2h1.819
		V43.32c0.042,0.001,0.082,0.006,0.124,0.006c5.001,0,9.057-4.054,9.057-9.057C566.458,29.46,562.704,25.538,557.97,25.243z
		 M530.05,21.626c-0.241-0.016-0.48-0.036-0.725-0.036c-2.766,0-5.282,1.041-7.2,2.742c-1.092-1.365-1.753-3.089-1.753-4.97
		c0-4.41,3.589-7.999,8-7.999c3.092,0,5.76,1.773,7.091,4.346C533.165,17.148,531.286,19.196,530.05,21.626z"/>
	<polygon points="537.45,42.346 537.45,39.716 539.623,40.938 540.309,39.718 537.839,38.328 540.309,36.938 539.623,35.718 
		537.45,36.94 537.45,34.346 535.45,34.346 535.45,36.984 533.199,35.718 532.514,36.938 534.983,38.328 532.514,39.718 
		533.199,40.938 535.45,39.672 535.45,42.346 	"/>
	<polygon points="542.612,46.7 540.439,47.923 540.439,45.328 538.439,45.328 538.439,47.967 536.188,46.7 535.503,47.921 
		537.973,49.311 535.503,50.7 536.188,51.921 538.439,50.654 538.439,53.328 540.439,53.328 540.439,50.698 542.612,51.921 
		543.298,50.7 540.828,49.311 543.298,47.921 	"/>
	<polygon points="551.628,39.718 549.455,40.94 549.455,38.346 547.455,38.346 547.455,40.984 545.204,39.718 544.519,40.938 
		546.988,42.328 544.519,43.718 545.204,44.938 547.455,43.672 547.455,46.346 549.455,46.346 549.455,43.716 551.628,44.938 
		552.313,43.718 549.844,42.328 552.313,40.938 	"/>
</g>
<g>
	<path d="M658.158,22.24c-1.444-6.742-7.433-11.8-14.605-11.8c-1.799,0-3.522,0.32-5.118,0.904c-0.949-5.108-5.404-8.98-10.788-8.98
		c-0.413,0-0.819,0.027-1.222,0.071c0.744,1.112,1.179,2.448,1.179,3.886c0,3.865-3.134,7-7,7c-1.438,0-2.773-0.435-3.886-1.179
		c-0.044,0.401-0.071,0.809-0.071,1.222c0,3.713,1.845,6.987,4.661,8.979c-1.653,1.907-2.661,4.389-2.661,7.111
		c0,5.983,4.836,10.836,10.813,10.865v0.003h1.188v-2h-0.721l-0.457-0.003c-4.864-0.023-8.822-4.001-8.822-8.865
		c0-4.89,3.978-8.868,8.867-8.868c0.15,0,0.299,0.012,0.447,0.022l0.148,0.01l1.314,0.085l0.597-1.175
		c2.225-4.372,6.644-7.089,11.532-7.089c6.062,0,11.382,4.298,12.649,10.219l0.318,1.483l1.514,0.094
		c3.708,0.23,6.612,3.319,6.612,7.03c0,3.878-3.144,7.035-7.017,7.057c-0.042-0.003-0.079-0.005-0.117-0.005l-1.866,0.005v2h1.819
		v-0.006c0.042,0.001,0.082,0.006,0.124,0.006c5.001,0,9.057-4.054,9.057-9.057C666.646,26.457,662.893,22.535,658.158,22.24z
		 M630.238,18.623c-0.241-0.016-0.48-0.036-0.725-0.036c-2.537,0-4.865,0.877-6.715,2.334c-2.012-1.294-3.486-3.354-3.976-5.776
		c0.582,0.117,1.178,0.177,1.78,0.177c4.963,0,9-4.037,9-9c0-0.603-0.06-1.198-0.177-1.78c3.733,0.753,6.629,3.824,7.134,7.64
		C633.848,13.625,631.633,15.88,630.238,18.623z"/>
	<polygon points="637.684,39.343 637.684,36.713 639.856,37.936 640.542,36.715 638.072,35.325 640.542,33.936 639.856,32.715 
		637.684,33.938 637.684,31.343 635.684,31.343 635.684,33.981 633.433,32.715 632.747,33.936 635.217,35.325 632.747,36.715 
		633.433,37.936 635.684,36.669 635.684,39.343 	"/>
	<polygon points="642.846,43.697 640.673,44.92 640.673,42.325 638.673,42.325 638.673,44.964 636.422,43.697 635.736,44.918 
		638.206,46.308 635.736,47.697 636.422,48.918 638.673,47.651 638.673,50.325 640.673,50.325 640.673,47.695 642.846,48.918 
		643.531,47.697 641.062,46.308 643.531,44.918 	"/>
	<polygon points="651.861,36.715 649.688,37.938 649.688,35.343 647.688,35.343 647.688,37.981 645.438,36.715 644.752,37.936 
		647.222,39.325 644.752,40.715 645.438,41.936 647.688,40.669 647.688,43.343 649.688,43.343 649.688,40.713 651.861,41.936 
		652.547,40.715 650.077,39.325 652.547,37.936 	"/>
</g>
<rect x="41.8" y="-545.51" fill="none" width="472.974" height="180.918"/>
<text transform="matrix(1 0 0 1 221.437 -474.1108)"><tspan x="0" y="0" font-family="'HelveticaNeueLTStd-Th'" font-size="100" letter-spacing="2">60</tspan><tspan x="-99.268" y="60" font-family="'HelveticaNeueLTStd-Lt'" font-size="48" letter-spacing="1">Weather Icons</tspan><tspan x="-3.726" y="104" font-family="'HelveticaNeueLTStd-Lt'" font-size="24">IOS 7 Style</tspan></text>
</svg>
