<?xml version="1.0" encoding="utf-8"?>
<!-- Generator: Adobe Illustrator 16.0.0, SVG Export Plug-In . SVG Version: 6.00 Build 0)  -->
<!DOCTYPE svg PUBLIC "-//W3C//DTD SVG 1.1//EN" "http://www.w3.org/Graphics/SVG/1.1/DTD/svg11.dtd">
<svg version="1.1" id="Layer_1" xmlns="http://www.w3.org/2000/svg" xmlns:xlink="http://www.w3.org/1999/xlink" x="0px" y="0px"
	 width="53px" height="48px" viewBox="0 0 53 48" enable-background="new 0 0 53 48" xml:space="preserve">
<path d="M-72.878,281.214l-1.803,15.077l-0.268,2.237h2.254h6.896l-14.693,18.759l1.789-14.52l0.277-2.245h-2.262h-6.957
	L-72.878,281.214 M-70.023,274.189l-21.667,28.333h11.004l-2.671,21.667l21.667-27.661h-11.004L-70.023,274.189L-70.023,274.189z"/>
<path d="M-485.913-181.047c6.79,0,12.749,4.814,14.171,11.448l0.318,1.483l1.514,0.094c4.203,0.262,7.496,3.763,7.496,7.971
	c0,4.396-3.565,7.977-7.957,8c-0.046-0.003-0.091-0.006-0.137-0.007l-2.043-0.036v0.043h-28.337l-0.578-0.003
	c-5.485-0.027-9.948-4.513-9.948-9.998c0-5.514,4.485-10,9.999-10c0.175,0,0.347,0.014,0.519,0.025l0.149,0.011l1.316,0.087
	l0.598-1.176C-496.34-178.004-491.39-181.047-485.913-181.047 M-485.913-183.047c-6.423,0-11.977,3.678-14.702,9.035
	c-0.266-0.018-0.53-0.04-0.8-0.04c-6.627,0-11.999,5.372-11.999,12c0,6.607,5.34,11.965,11.938,11.998v0.003h30.925v-0.007
	c0.046,0.001,0.091,0.007,0.137,0.007c5.521,0,10-4.477,10-10c0-5.311-4.145-9.642-9.372-9.967
	C-471.382-177.463-477.993-183.047-485.913-183.047L-485.913-183.047z"/>
<g>
	<path d="M-362.962-162.636c-1.444-6.742-7.433-11.8-14.605-11.8c-2.185,0-4.258,0.47-6.127,1.313
		c-1.666-3.202-5.006-5.394-8.865-5.394c-5.522,0-10,4.477-10,9.999c0,2.46,0.898,4.702,2.373,6.442
		c-1.428,1.84-2.287,4.144-2.287,6.653c0,5.983,4.836,10.836,10.813,10.865v0.003h28.007v-0.006
		c0.042,0.001,0.082,0.006,0.124,0.006c5.001,0,9.057-4.054,9.057-9.057C-354.474-158.419-358.228-162.341-362.962-162.636z
		 M-392.56-176.516c3.092,0,5.76,1.773,7.092,4.345c-2.299,1.44-4.178,3.488-5.414,5.918c-0.241-0.016-0.48-0.036-0.725-0.036
		c-2.766,0-5.281,1.041-7.2,2.743c-1.092-1.366-1.753-3.09-1.753-4.971C-400.56-172.927-396.971-176.516-392.56-176.516z
		 M-363.49-146.553c-0.038-0.003-0.077-0.004-0.117-0.005l-2.047-0.042v0.047h-25.403l-0.594-0.003
		c-4.864-0.023-8.822-4.001-8.822-8.865c0-4.89,3.978-8.868,8.867-8.868c0.15,0,0.299,0.012,0.447,0.021l0.148,0.011l1.314,0.085
		l0.598-1.174c2.224-4.373,6.643-7.09,11.531-7.09c6.062,0,11.381,4.298,12.65,10.219l0.317,1.482l1.514,0.095
		c3.708,0.231,6.612,3.319,6.612,7.03C-356.474-149.731-359.617-146.575-363.49-146.553z"/>
	<rect x="-393.554" y="-188.546" width="2" height="7.973"/>
	<rect x="-412.526" y="-169.56" width="7.973" height="2"/>
	<rect x="-407.801" y="-180.778" transform="matrix(0.7071 0.7071 -0.7071 0.7071 -245.3967 232.8834)" width="7.974" height="2"/>
	<rect x="-382.292" y="-183.76" transform="matrix(0.7071 0.7071 -0.7071 0.7071 -238.7976 216.9594)" width="2" height="7.972"/>
</g>
<path d="M-267.219-166.663c-1.444-6.742-7.433-11.8-14.605-11.8c-1.799,0-3.521,0.32-5.118,0.904
	c-0.949-5.108-5.404-8.98-10.788-8.98c-0.413,0-0.819,0.027-1.222,0.071c0.744,1.112,1.179,2.448,1.179,3.886c0,3.865-3.134,7-7,7
	c-1.438,0-2.773-0.435-3.886-1.179c-0.044,0.401-0.071,0.809-0.071,1.222c0,3.712,1.845,6.987,4.661,8.979
	c-1.653,1.907-2.661,4.389-2.661,7.111c0,5.983,4.836,10.836,10.813,10.865v0.003h28.007v-0.006
	c0.042,0.001,0.082,0.006,0.124,0.006c5.001,0,9.057-4.054,9.057-9.057C-258.73-162.446-262.484-166.368-267.219-166.663z
	 M-306.554-173.759c0.582,0.117,1.178,0.177,1.78,0.177c4.963,0,9-4.037,9-9c0-0.603-0.06-1.198-0.177-1.78
	c3.733,0.753,6.629,3.824,7.134,7.64c-2.713,1.444-4.928,3.699-6.322,6.442c-0.241-0.016-0.48-0.036-0.725-0.036
	c-2.537,0-4.865,0.876-6.715,2.334C-304.59-169.276-306.064-171.336-306.554-173.759z M-267.747-150.58
	c-0.038-0.003-0.077-0.004-0.117-0.005l-2.047-0.042v0.047h-25.403l-0.594-0.003c-4.864-0.023-8.822-4.001-8.822-8.865
	c0-4.89,3.978-8.868,8.867-8.868c0.15,0,0.299,0.012,0.447,0.021l0.148,0.011l1.314,0.085l0.598-1.174
	c2.224-4.373,6.643-7.09,11.531-7.09c6.062,0,11.381,4.298,12.65,10.219l0.317,1.482l1.514,0.095
	c3.708,0.231,6.612,3.319,6.612,7.03C-260.73-153.759-263.874-150.603-267.747-150.58z"/>
<g>
	<rect x="-182.573" y="-158.04" width="2" height="7"/>
	<rect x="-174.573" y="-162.04" width="2" height="7"/>
	<rect x="-190.573" y="-162.04" width="2" height="7"/>
	<rect x="-182.573" y="-148.04" width="2" height="7"/>
	<rect x="-174.573" y="-152.04" width="2" height="7"/>
	<rect x="-190.573" y="-152.04" width="2" height="7"/>
	<path d="M-163.945-175.028c-1.596-7.445-8.207-13.029-16.127-13.029c-6.423,0-11.977,3.678-14.702,9.035
		c-0.266-0.018-0.53-0.04-0.8-0.04c-6.627,0-11.999,5.372-11.999,12c0,6.607,5.34,11.965,11.938,11.998v0.003h2.062v-2h-1.604
		l-0.447-0.003c-5.485-0.027-9.948-4.513-9.948-9.998c0-5.514,4.485-10,9.999-10c0.175,0,0.347,0.014,0.52,0.025l0.148,0.01
		l1.316,0.088l0.598-1.176c2.492-4.899,7.443-7.942,12.92-7.942c6.79,0,12.75,4.814,14.172,11.448l0.317,1.482l1.514,0.095
		c4.203,0.262,7.496,3.763,7.496,7.971c0,4.397-3.565,7.977-7.957,8c-0.05-0.003-0.093-0.005-0.137-0.007l-2.043,0.007h-2.863v2
		h4.863v-0.007c0.046,0.001,0.091,0.007,0.137,0.007c5.521,0,10-4.477,10-10C-154.573-170.372-158.718-174.703-163.945-175.028z"/>
</g>
<g>
	<path d="M-366.372-85.671c-1.596-7.445-8.207-13.029-16.127-13.029c-6.423,0-11.977,3.678-14.702,9.035
		c-0.266-0.018-0.53-0.04-0.8-0.04c-6.627,0-11.999,5.372-11.999,12c0,6.607,5.34,11.965,11.938,11.998v0.003H-396v-2h-1.604
		l-0.447-0.003c-5.485-0.027-9.948-4.513-9.948-9.998c0-5.514,4.485-10,9.999-10c0.175,0,0.347,0.014,0.52,0.025l0.148,0.01
		l1.316,0.088l0.598-1.176c2.492-4.899,7.443-7.942,12.92-7.942c6.79,0,12.75,4.814,14.172,11.448l0.317,1.482l1.514,0.095
		c4.203,0.262,7.496,3.763,7.496,7.971c0,4.397-3.565,7.977-7.957,8c-0.05-0.003-0.093-0.005-0.137-0.007l-2.043,0.007H-372v2h4.863
		v-0.007c0.046,0.001,0.091,0.007,0.137,0.007c5.521,0,10-4.477,10-10C-357-81.015-361.145-85.346-366.372-85.671z"/>
	<polygon points="-385,-58.676 -385,-56.735 -385,-50.676 -383,-50.676 -383,-56.735 -383,-58.676 -383,-70.676 -385,-70.676 	"/>
	<polygon points="-377,-62.676 -377,-60.923 -377,-54.676 -375,-54.676 -375,-60.923 -375,-62.676 -375,-74.676 -377,-74.676 	"/>
	<polygon points="-393,-62.676 -393,-60.61 -393,-54.676 -391,-54.676 -391,-60.61 -391,-62.676 -391,-74.676 -393,-74.676 	"/>
</g>
<g>
	<polygon points="-70.723,-61.765 -77.605,-71.595 -79.243,-70.447 -72.36,-60.617 -71.248,-59.028 -67.772,-54.064 
		-66.134,-55.211 -69.609,-60.176 	"/>
	<polygon points="-62.721,-61.767 -69.605,-71.595 -71.243,-70.446 -64.357,-60.618 -63.353,-59.183 -59.769,-54.067 
		-58.13,-55.214 -61.714,-60.33 	"/>
	<polygon points="-78.723,-61.765 -85.605,-71.595 -87.243,-70.446 -80.36,-60.617 -79.176,-58.925 -75.771,-54.063 
		-74.134,-55.211 -77.537,-60.072 	"/>
	<path d="M-59.615-85.404c-1.596-7.445-8.207-13.029-16.127-13.029c-6.423,0-11.977,3.678-14.702,9.035
		c-0.266-0.018-0.53-0.04-0.8-0.04c-6.627,0-11.999,5.372-11.999,12c0,6.607,5.34,11.965,11.938,11.998v0.003h2.062v-2h-1.604
		l-0.447-0.003c-5.485-0.027-9.948-4.513-9.948-9.998c0-5.514,4.485-10,9.999-10c0.175,0,0.347,0.014,0.52,0.025l0.148,0.01
		l1.316,0.088l0.598-1.176c2.492-4.899,7.443-7.942,12.92-7.942c6.79,0,12.75,4.814,14.172,11.448l0.317,1.482l1.514,0.095
		c4.203,0.262,7.496,3.763,7.496,7.971c0,4.397-3.565,7.977-7.957,8c-0.05-0.003-0.093-0.005-0.137-0.007l-1.043,0.007h0.137v2
		h0.863v-0.007c0.046,0.001,0.091,0.007,0.137,0.007c5.521,0,10-4.477,10-10C-50.243-80.748-54.388-85.079-59.615-85.404z"/>
</g>
<g>
	<rect x="-87.917" y="-194.486" width="2" height="7.973"/>
	<rect x="-106.917" y="-175.572" width="7.973" height="2"/>
	<rect x="-102.244" y="-186.839" transform="matrix(0.7071 0.7071 -0.7071 0.7071 -160.1867 15.0471)" width="7.974" height="2"/>
	<rect x="-76.735" y="-189.821" transform="matrix(0.7071 0.7071 -0.7071 0.7071 -153.5875 -0.8768)" width="2" height="7.972"/>
	<rect x="-73.917" y="-153.613" width="2" height="7"/>
	<rect x="-65.917" y="-157.613" width="2" height="7"/>
	<rect x="-81.917" y="-157.613" width="2" height="7"/>
	<rect x="-73.917" y="-143.613" width="2" height="7"/>
	<rect x="-65.917" y="-147.613" width="2" height="7"/>
	<rect x="-81.917" y="-147.613" width="2" height="7"/>
	<path d="M-57.405-168.696c-1.444-6.742-7.433-11.8-14.605-11.8c-2.185,0-4.258,0.47-6.126,1.313
		c-1.667-3.202-5.007-5.394-8.866-5.394c-5.522,0-10,4.477-10,9.999c0,2.46,0.899,4.702,2.373,6.442
		c-1.429,1.84-2.287,4.144-2.287,6.653c0,5.983,4.836,10.836,10.813,10.865v0.003h1.188v-2h-0.721l-0.457-0.003
		c-4.864-0.023-8.822-4.001-8.822-8.865c0-4.89,3.978-8.868,8.867-8.868c0.15,0,0.299,0.012,0.447,0.022l0.148,0.01l1.314,0.085
		l0.597-1.175c2.225-4.372,6.644-7.089,11.532-7.089c6.062,0,11.382,4.298,12.649,10.219l0.318,1.483l1.514,0.094
		c3.708,0.23,6.612,3.319,6.612,7.03c0,3.878-3.144,7.035-7.017,7.057c-0.042-0.003-0.079-0.005-0.117-0.005l-2.047,0.005h-0.819v2
		h2.819v-0.006c0.042,0.001,0.082,0.006,0.124,0.006c5.001,0,9.057-4.054,9.057-9.057
		C-48.917-164.479-52.671-168.401-57.405-168.696z M-85.325-172.313c-0.241-0.016-0.48-0.036-0.725-0.036
		c-2.766,0-5.282,1.041-7.2,2.743c-1.092-1.366-1.753-3.09-1.753-4.971c0-4.41,3.589-7.999,8-7.999c3.091,0,5.76,1.773,7.091,4.345
		C-82.21-176.791-84.09-174.743-85.325-172.313z"/>
</g>
<g>
	<rect x="26.5" y="-155.061" width="2" height="7"/>
	<rect x="34.5" y="-159.061" width="2" height="7"/>
	<rect x="18.5" y="-159.061" width="2" height="7"/>
	<rect x="26.5" y="-145.061" width="2" height="7"/>
	<rect x="34.5" y="-149.061" width="2" height="7"/>
	<rect x="18.5" y="-149.061" width="2" height="7"/>
	<path d="M43.012-170.144c-1.444-6.742-7.433-11.8-14.605-11.8c-1.799,0-3.522,0.32-5.118,0.904
		c-0.949-5.108-5.404-8.98-10.788-8.98c-0.413,0-0.819,0.027-1.222,0.071c0.744,1.112,1.179,2.448,1.179,3.886c0,3.865-3.134,7-7,7
		c-1.438,0-2.773-0.435-3.886-1.179C1.527-179.84,1.5-179.433,1.5-179.02c0,3.712,1.845,6.987,4.661,8.979
		c-1.653,1.907-2.661,4.389-2.661,7.111c0,5.983,4.836,10.836,10.813,10.865v0.003H15.5v-2h-0.721l-0.457-0.003
		c-4.864-0.023-8.822-4.001-8.822-8.865c0-4.89,3.978-8.868,8.867-8.868c0.15,0,0.299,0.012,0.447,0.022l0.148,0.01l1.314,0.085
		l0.597-1.175c2.225-4.372,6.644-7.089,11.532-7.089c6.062,0,11.382,4.298,12.649,10.219l0.318,1.483l1.514,0.094
		c3.708,0.23,6.612,3.319,6.612,7.03c0,3.878-3.144,7.035-7.017,7.057c-0.042-0.003-0.079-0.005-0.117-0.005l-2.047,0.005H39.5v2
		h2.819v-0.006c0.042,0.001,0.082,0.006,0.124,0.006c5.001,0,9.057-4.054,9.057-9.057C51.5-165.927,47.746-169.849,43.012-170.144z
		 M15.092-173.761c-0.241-0.016-0.48-0.036-0.725-0.036c-2.537,0-4.865,0.876-6.715,2.334c-2.012-1.294-3.487-3.354-3.976-5.776
		c0.582,0.117,1.178,0.177,1.78,0.177c4.963,0,9-4.037,9-9c0-0.603-0.06-1.198-0.177-1.78c3.733,0.753,6.629,3.824,7.133,7.64
		C18.702-178.759,16.487-176.504,15.092-173.761z"/>
</g>
<g>
	<polygon points="-280.73,-54.237 -280.73,-52.297 -280.73,-46.237 -278.73,-46.237 -278.73,-52.297 -278.73,-54.237 
		-278.73,-66.237 -280.73,-66.237 	"/>
	<polygon points="-272.73,-58.237 -272.73,-56.484 -272.73,-50.237 -270.73,-50.237 -270.73,-56.484 -270.73,-58.237 
		-270.73,-70.237 -272.73,-70.237 	"/>
	<polygon points="-288.73,-58.237 -288.73,-56.172 -288.73,-50.237 -286.73,-50.237 -286.73,-56.172 -286.73,-58.237 
		-286.73,-70.237 -288.73,-70.237 	"/>
	<rect x="-294.73" y="-105.14" width="2" height="7.973"/>
	<rect x="-313.73" y="-86.226" width="7.973" height="2"/>
	<rect x="-309.057" y="-97.492" transform="matrix(0.7071 0.7071 -0.7071 0.7071 -157.5833 187.4554)" width="7.974" height="2"/>
	<rect x="-283.549" y="-100.474" transform="matrix(0.7071 0.7071 -0.7071 0.7071 -150.9842 171.5314)" width="2" height="7.972"/>
	<path d="M-264.219-79.35c-1.444-6.742-7.433-11.8-14.605-11.8c-2.185,0-4.258,0.47-6.127,1.313
		c-1.666-3.202-5.006-5.394-8.865-5.394c-5.522,0-10,4.477-10,9.999c0,2.46,0.898,4.702,2.373,6.442
		c-1.428,1.84-2.287,4.144-2.287,6.653c0,5.983,4.836,10.836,10.813,10.865v0.003h1.188v-2h-0.721l-0.457-0.003
		c-4.864-0.023-8.822-4.001-8.822-8.865c0-4.89,3.978-8.868,8.867-8.868c0.15,0,0.299,0.012,0.447,0.022l0.148,0.01l1.314,0.085
		l0.597-1.175c2.225-4.372,6.644-7.089,11.532-7.089c6.062,0,11.382,4.298,12.649,10.219l0.318,1.483l1.514,0.094
		c3.708,0.23,6.612,3.319,6.612,7.03c0,3.878-3.144,7.035-7.017,7.057c-0.042-0.003-0.079-0.005-0.117-0.005l-2.047,0.005h-0.819v2
		h2.819v-0.006c0.042,0.001,0.082,0.006,0.124,0.006c5.001,0,9.057-4.054,9.057-9.057C-255.73-75.133-259.484-79.055-264.219-79.35z
		 M-292.139-82.967c-0.241-0.016-0.48-0.036-0.725-0.036c-2.766,0-5.281,1.042-7.2,2.743c-1.092-1.367-1.753-3.09-1.753-4.971
		c0-4.41,3.589-7.999,8-7.999c3.092,0,5.76,1.773,7.092,4.345C-289.023-87.445-290.902-85.396-292.139-82.967z"/>
</g>
<g>
	<polygon points="-180.333,-56.754 -180.333,-54.813 -180.333,-48.754 -178.333,-48.754 -178.333,-54.813 -178.333,-56.754 
		-178.333,-68.754 -180.333,-68.754 	"/>
	<polygon points="-172.333,-60.754 -172.333,-59.001 -172.333,-52.754 -170.333,-52.754 -170.333,-59.001 -170.333,-60.754 
		-170.333,-72.754 -172.333,-72.754 	"/>
	<polygon points="-188.333,-60.754 -188.333,-58.688 -188.333,-52.754 -186.333,-52.754 -186.333,-58.688 -186.333,-60.754 
		-186.333,-72.754 -188.333,-72.754 	"/>
	<path d="M-163.821-81.866c-1.444-6.742-7.433-11.8-14.605-11.8c-1.799,0-3.521,0.32-5.118,0.904
		c-0.949-5.108-5.404-8.98-10.788-8.98c-0.413,0-0.819,0.027-1.222,0.071c0.744,1.112,1.179,2.448,1.179,3.886c0,3.865-3.134,7-7,7
		c-1.438,0-2.773-0.435-3.886-1.179c-0.044,0.401-0.071,0.809-0.071,1.222c0,3.712,1.845,6.987,4.661,8.979
		c-1.653,1.907-2.661,4.389-2.661,7.111c0,5.983,4.836,10.836,10.813,10.865v0.003h1.188v-2h-0.721l-0.457-0.003
		c-4.864-0.023-8.822-4.001-8.822-8.865c0-4.89,3.978-8.868,8.867-8.868c0.15,0,0.299,0.012,0.447,0.022l0.148,0.01l1.314,0.085
		l0.597-1.175c2.225-4.372,6.644-7.089,11.532-7.089c6.062,0,11.382,4.298,12.649,10.219l0.318,1.483l1.514,0.094
		c3.708,0.23,6.612,3.319,6.612,7.03c0,3.878-3.144,7.035-7.017,7.057c-0.042-0.003-0.079-0.005-0.117-0.005l-2.047,0.005h-0.819v2
		h2.819v-0.006c0.042,0.001,0.082,0.006,0.124,0.006c5.001,0,9.057-4.054,9.057-9.057
		C-155.333-77.649-159.087-81.571-163.821-81.866z M-191.741-85.483c-0.241-0.016-0.48-0.036-0.725-0.036
		c-2.537,0-4.865,0.876-6.715,2.334c-2.012-1.294-3.486-3.354-3.976-5.776c0.582,0.117,1.178,0.177,1.78,0.177c4.963,0,9-4.037,9-9
		c0-0.603-0.06-1.198-0.177-1.78c3.733,0.753,6.629,3.824,7.134,7.641C-188.132-90.481-190.347-88.226-191.741-85.483z"/>
</g>
<g>
	<polygon points="36.702,-55.81 29.819,-65.64 28.182,-64.492 35.064,-54.662 36.177,-53.073 39.652,-48.109 41.291,-49.256 
		37.815,-54.221 	"/>
	<polygon points="44.704,-55.812 37.819,-65.64 36.182,-64.491 43.067,-54.663 44.072,-53.228 47.656,-48.112 49.295,-49.259 
		45.711,-54.375 	"/>
	<polygon points="28.702,-55.81 21.819,-65.64 20.182,-64.491 27.064,-54.662 28.249,-52.97 31.653,-48.108 33.291,-49.256 
		29.888,-54.117 	"/>
	<rect x="16.182" y="-103.358" width="2" height="7.973"/>
	<rect x="-2.818" y="-84.444" width="7.973" height="2"/>
	<rect x="1.855" y="-95.711" transform="matrix(0.7071 0.7071 -0.7071 0.7071 -65.2597 -31.871)" width="7.974" height="2"/>
	<rect x="27.363" y="-98.693" transform="matrix(0.7071 0.7071 -0.7071 0.7071 -58.6606 -47.7949)" width="2" height="7.972"/>
	<path d="M46.693-77.568c-1.444-6.742-7.433-11.8-14.605-11.8c-2.185,0-4.258,0.47-6.126,1.313
		c-1.667-3.202-5.007-5.394-8.866-5.394c-5.522,0-10,4.477-10,9.999c0,2.46,0.899,4.702,2.373,6.442
		c-1.429,1.84-2.287,4.144-2.287,6.653c0,5.983,4.836,10.836,10.813,10.865v0.003h1.188v-2h-0.721l-0.457-0.003
		c-4.864-0.023-8.822-4.001-8.822-8.865c0-4.89,3.978-8.868,8.867-8.868c0.15,0,0.299,0.012,0.447,0.022l0.148,0.01l1.314,0.085
		l0.597-1.175c2.225-4.372,6.644-7.089,11.532-7.089c6.062,0,11.382,4.298,12.649,10.219l0.318,1.483l1.514,0.094
		c3.708,0.23,6.612,3.319,6.612,7.03c0,3.878-3.144,7.035-7.017,7.057c-0.042-0.003-0.079-0.005-0.117-0.005l-0.047,0.005h-0.819v2
		h0.819v-0.006c0.042,0.001,0.082,0.006,0.124,0.006c5.001,0,9.057-4.054,9.057-9.057C55.182-73.352,51.428-77.273,46.693-77.568z
		 M18.773-81.186c-0.241-0.016-0.48-0.036-0.725-0.036c-2.766,0-5.282,1.042-7.2,2.743c-1.092-1.367-1.753-3.09-1.753-4.971
		c0-4.41,3.589-7.999,8-7.999c3.091,0,5.76,1.773,7.091,4.345C21.889-85.664,20.009-83.615,18.773-81.186z"/>
</g>
<g>
	<polygon points="-686.729,40.676 -693.611,30.846 -695.249,31.993 -688.366,41.823 -687.254,43.412 -683.778,48.376 
		-682.14,47.229 -685.615,42.265 	"/>
	<polygon points="-678.727,40.674 -685.611,30.846 -687.249,31.994 -680.363,41.822 -679.358,43.258 -675.774,48.373 
		-674.136,47.227 -677.72,42.11 	"/>
	<polygon points="-694.729,40.676 -701.611,30.846 -703.249,31.994 -696.366,41.823 -695.182,43.516 -691.777,48.377 
		-690.14,47.229 -693.543,42.368 	"/>
	<path d="M-676.737,18.917c-1.444-6.742-7.433-11.8-14.605-11.8c-1.799,0-3.522,0.32-5.118,0.904
		c-0.949-5.108-5.404-8.98-10.788-8.98c-0.413,0-0.819,0.027-1.222,0.071c0.744,1.112,1.179,2.448,1.179,3.886c0,3.865-3.134,7-7,7
		c-1.438,0-2.773-0.435-3.886-1.179c-0.044,0.401-0.071,0.809-0.071,1.222c0,3.712,1.845,6.987,4.661,8.979
		c-1.653,1.907-2.661,4.389-2.661,7.111c0,5.983,4.836,10.836,10.813,10.865V37h1.188v-2h-0.721l-0.457-0.003
		c-4.864-0.023-8.822-4.001-8.822-8.865c0-4.89,3.978-8.868,8.867-8.868c0.15,0,0.299,0.012,0.447,0.022l0.148,0.01l1.314,0.085
		l0.597-1.175c2.225-4.372,6.644-7.089,11.532-7.089c6.062,0,11.382,4.298,12.649,10.219l0.318,1.483l1.514,0.094
		c3.708,0.23,6.612,3.319,6.612,7.03c0,3.878-3.144,7.035-7.017,7.057c-0.042-0.003-0.079-0.005-0.117-0.005L-677.43,35h-0.819v2
		h0.819v-0.006c0.042,0.001,0.082,0.006,0.124,0.006c5.001,0,9.057-4.054,9.057-9.057
		C-668.249,23.134-672.003,19.212-676.737,18.917z M-704.657,15.3c-0.241-0.016-0.48-0.036-0.725-0.036
		c-2.537,0-4.865,0.876-6.715,2.334c-2.012-1.294-3.487-3.354-3.976-5.776c0.582,0.117,1.178,0.177,1.78,0.177c4.963,0,9-4.037,9-9
		c0-0.603-0.06-1.198-0.177-1.78c3.733,0.753,6.629,3.824,7.133,7.641C-701.047,10.302-703.262,12.558-704.657,15.3z"/>
</g>
<g>
	<rect x="-694.249" y="-63.171" width="2" height="4"/>
	<rect x="-686.249" y="-67.192" width="2" height="4.021"/>
	<rect x="-702.249" y="-67.192" width="2" height="4.021"/>
	<path d="M-675.621-83.159c-1.596-7.445-8.207-13.029-16.127-13.029c-6.423,0-11.977,3.678-14.702,9.035
		c-0.266-0.018-0.53-0.04-0.8-0.04c-6.627,0-11.999,5.372-11.999,12c0,6.607,5.34,11.965,11.938,11.998v0.003h2.062v-2h-1.604
		l-0.447-0.003c-5.485-0.027-9.948-4.513-9.948-9.998c0-5.514,4.485-10,9.999-10c0.175,0,0.347,0.014,0.52,0.025l0.148,0.01
		l1.316,0.088l0.598-1.176c2.492-4.899,7.443-7.942,12.92-7.942c6.79,0,12.75,4.814,14.172,11.448l0.317,1.482l1.514,0.095
		c4.203,0.262,7.496,3.763,7.496,7.971c0,4.397-3.565,7.977-7.957,8c-0.05-0.003-0.093-0.005-0.137-0.007l-2.043,0.007h-2.863v2
		h4.863v-0.007c0.046,0.001,0.091,0.007,0.137,0.007c5.521,0,10-4.477,10-10C-666.249-78.503-670.394-82.834-675.621-83.159z"/>
	<circle cx="-685.249" cy="-58.15" r="1.5"/>
	<circle cx="-693.249" cy="-54.182" r="1.5"/>
	<circle cx="-701.249" cy="-58.192" r="1.5"/>
</g>
<g>
	<rect x="-601.328" y="-102.625" width="2" height="7.973"/>
	<rect x="-620.328" y="-83.711" width="7.973" height="2"/>
	<rect x="-615.655" y="-94.977" transform="matrix(0.7071 0.7071 -0.7071 0.7071 -245.6056 404.9892)" width="7.974" height="2"/>
	<rect x="-590.146" y="-97.959" transform="matrix(0.7071 0.7071 -0.7071 0.7071 -239.0064 389.0652)" width="2" height="7.972"/>
	<path d="M-570.816-76.835c-1.444-6.742-7.433-11.8-14.605-11.8c-2.185,0-4.258,0.47-6.126,1.313
		c-1.667-3.202-5.007-5.394-8.866-5.394c-5.522,0-10,4.477-10,9.999c0,2.46,0.899,4.702,2.373,6.442
		c-1.429,1.84-2.287,4.144-2.287,6.653c0,5.983,4.836,10.836,10.813,10.865v0.003h1.188v-2h-0.721l-0.457-0.003
		c-4.864-0.023-8.822-4.001-8.822-8.865c0-4.89,3.978-8.868,8.867-8.868c0.15,0,0.299,0.012,0.447,0.022l0.148,0.01l1.314,0.085
		l0.597-1.175c2.225-4.372,6.644-7.089,11.532-7.089c6.062,0,11.382,4.298,12.649,10.219l0.318,1.483l1.514,0.094
		c3.708,0.23,6.612,3.319,6.612,7.03c0,3.878-3.144,7.035-7.017,7.057c-0.042-0.003-0.079-0.005-0.117-0.005l-2.047,0.005h-0.819v2
		h2.819v-0.006c0.042,0.001,0.082,0.006,0.124,0.006c5.001,0,9.057-4.054,9.057-9.057C-562.328-72.618-566.082-76.54-570.816-76.835
		z M-598.736-80.452c-0.241-0.016-0.48-0.036-0.725-0.036c-2.766,0-5.282,1.042-7.2,2.743c-1.092-1.367-1.753-3.09-1.753-4.971
		c0-4.41,3.589-7.999,8-7.999c3.091,0,5.76,1.773,7.091,4.345C-595.621-84.931-597.501-82.882-598.736-80.452z"/>
	<rect x="-587.328" y="-58.736" width="2" height="4"/>
	<rect x="-579.328" y="-62.758" width="2" height="4.021"/>
	<rect x="-595.328" y="-62.758" width="2" height="4.021"/>
	<circle cx="-578.328" cy="-53.716" r="1.5"/>
	<circle cx="-586.328" cy="-49.747" r="1.5"/>
	<circle cx="-594.328" cy="-53.758" r="1.5"/>
</g>
<g>
	<path d="M-469.891-77.792c-1.444-6.742-7.433-11.8-14.605-11.8c-1.799,0-3.522,0.32-5.118,0.904
		c-0.949-5.108-5.404-8.98-10.788-8.98c-0.413,0-0.819,0.027-1.222,0.071c0.744,1.112,1.179,2.448,1.179,3.886c0,3.865-3.134,7-7,7
		c-1.438,0-2.773-0.435-3.886-1.179c-0.044,0.401-0.071,0.809-0.071,1.222c0,3.712,1.845,6.987,4.661,8.979
		c-1.653,1.907-2.661,4.389-2.661,7.111c0,5.983,4.836,10.836,10.813,10.865v0.003h1.188v-2h-0.721l-0.457-0.003
		c-4.864-0.023-8.822-4.001-8.822-8.865c0-4.89,3.978-8.868,8.867-8.868c0.15,0,0.299,0.012,0.447,0.022l0.148,0.01l1.314,0.085
		l0.597-1.175c2.225-4.372,6.644-7.089,11.532-7.089c6.062,0,11.382,4.298,12.649,10.219l0.318,1.483l1.514,0.094
		c3.708,0.23,6.612,3.319,6.612,7.03c0,3.878-3.144,7.035-7.017,7.057c-0.042-0.003-0.079-0.005-0.117-0.005l-2.047,0.005h-0.819v2
		h2.819v-0.006c0.042,0.001,0.082,0.006,0.124,0.006c5.001,0,9.057-4.054,9.057-9.057
		C-461.402-73.575-465.156-77.497-469.891-77.792z M-497.811-81.409c-0.241-0.016-0.48-0.036-0.725-0.036
		c-2.537,0-4.865,0.876-6.715,2.334c-2.012-1.294-3.487-3.354-3.976-5.776c0.582,0.117,1.178,0.177,1.78,0.177c4.963,0,9-4.037,9-9
		c0-0.603-0.06-1.198-0.177-1.78c3.733,0.753,6.629,3.824,7.133,7.641C-494.2-86.407-496.415-84.151-497.811-81.409z"/>
	<rect x="-486.402" y="-59.693" width="2" height="4"/>
	<rect x="-478.402" y="-63.715" width="2" height="4.021"/>
	<rect x="-494.402" y="-63.715" width="2" height="4.021"/>
	<circle cx="-477.402" cy="-54.673" r="1.5"/>
	<circle cx="-485.402" cy="-50.704" r="1.5"/>
	<circle cx="-493.402" cy="-54.715" r="1.5"/>
</g>
<g>
	<path d="M-573.2,15.238c-1.596-7.445-8.207-13.029-16.127-13.029c-6.423,0-11.977,3.678-14.702,9.035
		c-0.266-0.018-0.53-0.04-0.8-0.04c-6.627,0-11.999,5.372-11.999,12c0,6.607,5.34,11.965,11.938,11.998v0.003h6.062v-2h-5.604
		l-0.447-0.003c-5.485-0.027-9.948-4.513-9.948-9.998c0-5.514,4.485-10,9.999-10c0.175,0,0.347,0.014,0.52,0.025l0.148,0.01
		l1.316,0.088l0.598-1.176c2.492-4.899,7.443-7.942,12.92-7.942c6.79,0,12.75,4.814,14.172,11.448l0.317,1.482l1.514,0.095
		c4.203,0.262,7.496,3.763,7.496,7.971c0,4.397-3.565,7.977-7.957,8c-0.05-0.003-0.093-0.005-0.137-0.007l-5.043,0.007h0.137v2
		h4.863v-0.007c0.046,0.001,0.091,0.007,0.137,0.007c5.521,0,10-4.477,10-10C-563.828,19.895-567.973,15.563-573.2,15.238z"/>
	<polygon points="-588.986,35.209 -587.217,35.209 -586.786,35.209 -584.776,35.209 -591.19,26.048 -592.828,27.195 
		-588.617,33.209 -590.388,33.209 -592.828,33.209 -591.557,35.025 -590.444,36.614 -584.467,45.209 -582.828,44.063 
		-588.806,35.467 	"/>
</g>
<g>
	<rect x="-497.402" y="-3.892" width="2" height="7.973"/>
	<rect x="-516.402" y="15.022" width="7.973" height="2"/>
	<rect x="-511.729" y="3.756" transform="matrix(0.7071 0.7071 -0.7071 0.7071 -145.3513 360.4209)" width="7.974" height="2"/>
	<rect x="-486.221" y="0.774" transform="matrix(0.7071 0.7071 -0.7071 0.7071 -138.7522 344.4969)" width="2" height="7.972"/>
	<path d="M-466.891,21.898c-1.444-6.742-7.433-11.8-14.605-11.8c-2.185,0-4.258,0.47-6.127,1.313
		c-1.666-3.202-5.006-5.394-8.865-5.394c-5.522,0-10,4.477-10,9.999c0,2.46,0.898,4.702,2.373,6.442
		c-1.428,1.84-2.287,4.144-2.287,6.653c0,5.983,4.836,10.836,10.813,10.865v0.003h4.188v-2h-3.721l-0.457-0.003
		c-4.864-0.023-8.822-4.001-8.822-8.865c0-4.89,3.978-8.868,8.867-8.868c0.15,0,0.299,0.012,0.447,0.022l0.148,0.01l1.314,0.085
		l0.597-1.175c2.225-4.372,6.644-7.089,11.532-7.089c6.062,0,11.382,4.298,12.649,10.219l0.318,1.483l1.514,0.094
		c3.708,0.23,6.612,3.319,6.612,7.03c0,3.878-3.144,7.035-7.017,7.057c-0.042-0.003-0.079-0.005-0.117-0.005l-2.047,0.005h-3.819v2
		h5.819v-0.006c0.042,0.001,0.082,0.006,0.124,0.006c5.001,0,9.057-4.054,9.057-9.057
		C-458.402,26.115-462.156,22.193-466.891,21.898z M-494.811,18.281c-0.241-0.016-0.48-0.036-0.725-0.036
		c-2.766,0-5.281,1.041-7.2,2.743c-1.092-1.366-1.753-3.09-1.753-4.971c0-4.41,3.589-7.999,8-7.999c3.092,0,5.76,1.773,7.092,4.345
		C-491.695,13.804-493.574,15.852-494.811,18.281z"/>
	<polygon points="-482.561,39.988 -480.791,39.988 -480.36,39.988 -478.351,39.988 -484.765,30.827 -486.402,31.975 
		-482.191,37.988 -483.962,37.988 -486.402,37.988 -485.131,39.805 -484.019,41.394 -478.041,49.988 -476.402,48.842 
		-482.38,40.246 	"/>
</g>
<g>
	<path d="M-367.306,19.603c-1.444-6.742-7.433-11.8-14.605-11.8c-1.799,0-3.521,0.32-5.118,0.904
		c-0.949-5.108-5.404-8.98-10.788-8.98c-0.413,0-0.819,0.027-1.222,0.071c0.744,1.112,1.179,2.448,1.179,3.886c0,3.865-3.134,7-7,7
		c-1.438,0-2.773-0.435-3.886-1.179c-0.044,0.401-0.071,0.809-0.071,1.222c0,3.712,1.845,6.987,4.661,8.979
		c-1.653,1.907-2.661,4.389-2.661,7.111c0,5.983,4.836,10.836,10.813,10.865v0.003h4.188v-2h-3.721l-0.457-0.003
		c-4.864-0.023-8.822-4.001-8.822-8.865c0-4.89,3.978-8.868,8.867-8.868c0.15,0,0.299,0.012,0.447,0.022l0.148,0.01l1.314,0.085
		l0.597-1.175c2.225-4.372,6.644-7.089,11.532-7.089c6.062,0,11.382,4.298,12.649,10.219l0.318,1.483l1.514,0.094
		c3.708,0.23,6.612,3.319,6.612,7.03c0,3.878-3.144,7.035-7.017,7.057c-0.042-0.003-0.079-0.005-0.117-0.005l-2.047,0.005h-3.819v2
		h5.819V37.68c0.042,0.001,0.082,0.006,0.124,0.006c5.001,0,9.057-4.054,9.057-9.057C-358.817,23.819-362.571,19.897-367.306,19.603
		z M-395.226,15.985c-0.241-0.016-0.48-0.036-0.725-0.036c-2.537,0-4.865,0.876-6.715,2.334c-2.012-1.294-3.486-3.354-3.976-5.776
		c0.582,0.117,1.178,0.177,1.78,0.177c4.963,0,9-4.037,9-9c0-0.603-0.06-1.198-0.177-1.78c3.733,0.753,6.629,3.824,7.134,7.64
		C-391.616,10.987-393.831,13.242-395.226,15.985z"/>
	<polygon points="-382.976,37.692 -381.206,37.692 -380.775,37.692 -378.766,37.692 -385.18,28.531 -386.817,29.679 
		-382.606,35.692 -384.377,35.692 -386.817,35.692 -385.546,37.509 -384.434,39.098 -378.456,47.692 -376.817,46.546 
		-382.795,37.95 	"/>
</g>
<g>
	<path d="M-266.421,15.738c-1.596-7.445-8.207-13.029-16.127-13.029c-6.423,0-11.977,3.678-14.702,9.035
		c-0.266-0.018-0.53-0.04-0.8-0.04c-6.627,0-11.999,5.372-11.999,12c0,6.607,5.34,11.965,11.938,11.998v0.003h1.062v-2h-0.604
		l-0.447-0.003c-5.485-0.027-9.948-4.513-9.948-9.998c0-5.514,4.485-10,9.999-10c0.175,0,0.347,0.014,0.52,0.025l0.148,0.01
		l1.316,0.088l0.598-1.176c2.492-4.899,7.443-7.942,12.92-7.942c6.79,0,12.75,4.814,14.172,11.448l0.317,1.482l1.514,0.095
		c4.203,0.262,7.496,3.763,7.496,7.971c0,4.397-3.565,7.977-7.957,8c-0.05-0.003-0.093-0.005-0.137-0.007l-0.906,0.007v2h0.863
		v-0.007c0.046,0.001,0.091,0.007,0.137,0.007c5.521,0,10-4.477,10-10C-257.049,20.395-261.193,16.063-266.421,15.738z"/>
	
		<rect x="-297.615" y="33.703" transform="matrix(-0.5736 -0.8191 0.8191 -0.5736 -487.9637 -184.5892)" width="11.183" height="1.999"/>
	
		<rect x="-279.64" y="33.703" transform="matrix(-0.5736 -0.8191 0.8191 -0.5736 -459.6782 -169.866)" width="11.183" height="1.999"/>
	<polygon points="-281.207,38.709 -279.438,38.709 -279.007,38.709 -276.997,38.709 -283.411,29.548 -285.049,30.695 
		-280.838,36.709 -282.608,36.709 -285.049,36.709 -283.777,38.525 -282.665,40.114 -278.049,46.709 -276.41,45.563 
		-281.026,38.967 	"/>
</g>
<g>
	<rect x="-191.573" y="-3.729" width="2" height="7.973"/>
	<rect x="-210.573" y="15.186" width="7.973" height="2"/>
	<rect x="-205.9" y="3.919" transform="matrix(0.7071 0.7071 -0.7071 0.7071 -55.6608 144.2148)" width="7.974" height="2"/>
	<rect x="-180.391" y="0.937" transform="matrix(0.7071 0.7071 -0.7071 0.7071 -49.0616 128.2909)" width="2" height="7.972"/>
	<path d="M-161.062,22.062c-1.444-6.742-7.433-11.8-14.605-11.8c-2.185,0-4.258,0.47-6.126,1.313
		c-1.667-3.202-5.007-5.394-8.866-5.394c-5.522,0-10,4.477-10,9.999c0,2.46,0.899,4.702,2.373,6.442
		c-1.429,1.84-2.287,4.144-2.287,6.653c0,5.983,4.836,10.836,10.813,10.865v0.003h0.188v-2l-0.178-0.003
		c-4.864-0.023-8.822-4.001-8.822-8.865c0-4.89,3.978-8.868,8.867-8.868c0.15,0,0.299,0.012,0.447,0.022l0.148,0.01l1.314,0.085
		l0.597-1.175c2.225-4.372,6.644-7.089,11.532-7.089c6.062,0,11.382,4.298,12.649,10.219l0.318,1.483l1.514,0.094
		c3.708,0.23,6.612,3.319,6.612,7.03c0,3.878-3.144,7.035-7.017,7.057c-0.042-0.003-0.079-0.005-0.117-0.005l-0.866,0.005v2h0.819
		v-0.006c0.042,0.001,0.082,0.006,0.124,0.006c5.001,0,9.057-4.054,9.057-9.057C-152.573,26.278-156.327,22.356-161.062,22.062z
		 M-188.981,18.444c-0.241-0.016-0.48-0.036-0.725-0.036c-2.766,0-5.282,1.042-7.2,2.743c-1.092-1.367-1.753-3.09-1.753-4.971
		c0-4.41,3.589-7.999,8-7.999c3.091,0,5.76,1.773,7.091,4.345C-185.866,13.966-187.746,16.015-188.981,18.444z"/>
	
		<rect x="-191.152" y="38.142" transform="matrix(-0.5736 -0.8191 0.8191 -0.5736 -324.0652 -90.3999)" width="11.183" height="1.999"/>
	
		<rect x="-173.177" y="38.142" transform="matrix(-0.5736 -0.8191 0.8191 -0.5736 -295.7797 -75.6768)" width="11.183" height="1.999"/>
	<polygon points="-174.744,43.147 -172.975,43.147 -172.544,43.147 -170.534,43.147 -176.948,33.986 -178.586,35.134 
		-174.375,41.147 -176.146,41.147 -178.586,41.147 -177.314,42.964 -176.202,44.553 -171.586,51.147 -169.947,50.001 
		-174.563,43.405 	"/>
</g>
<g>
	<path d="M-59.224,19.104c-1.444-6.742-7.433-11.8-14.605-11.8c-1.799,0-3.522,0.32-5.118,0.904
		c-0.949-5.108-5.404-8.98-10.788-8.98c-0.413,0-0.819,0.027-1.222,0.071c0.744,1.112,1.179,2.448,1.179,3.886c0,3.865-3.134,7-7,7
		c-1.438,0-2.773-0.435-3.886-1.179c-0.044,0.401-0.071,0.809-0.071,1.222c0,3.712,1.845,6.987,4.661,8.979
		c-1.653,1.907-2.661,4.389-2.661,7.111c0,5.983,4.836,10.836,10.813,10.865v0.003h0.188v-2l-0.178-0.003
		c-4.864-0.023-8.822-4.001-8.822-8.865c0-4.89,3.978-8.868,8.867-8.868c0.15,0,0.299,0.012,0.447,0.022l0.148,0.01l1.314,0.085
		l0.597-1.175c2.225-4.372,6.644-7.089,11.532-7.089c6.062,0,11.382,4.298,12.649,10.219l0.318,1.483l1.514,0.094
		c3.708,0.23,6.612,3.319,6.612,7.03c0,3.878-3.144,7.035-7.017,7.057c-0.042-0.003-0.079-0.005-0.117-0.005l-0.866,0.005v2h0.819
		v-0.006c0.042,0.001,0.082,0.006,0.124,0.006c5.001,0,9.057-4.054,9.057-9.057C-50.735,23.32-54.489,19.398-59.224,19.104z
		 M-87.144,15.486c-0.241-0.016-0.48-0.036-0.725-0.036c-2.537,0-4.865,0.876-6.715,2.334c-2.012-1.294-3.487-3.354-3.976-5.776
		c0.582,0.117,1.178,0.177,1.78,0.177c4.963,0,9-4.037,9-9c0-0.603-0.06-1.198-0.177-1.78c3.733,0.753,6.629,3.824,7.133,7.641
		C-83.533,10.488-85.748,12.744-87.144,15.486z"/>
	
		<rect x="-89.315" y="35.184" transform="matrix(-0.5736 -0.8191 0.8191 -0.5736 -161.3878 -11.6392)" width="11.183" height="1.999"/>
	<rect x="-71.34" y="35.184" transform="matrix(-0.5736 -0.8191 0.8191 -0.5736 -133.1023 3.0839)" width="11.183" height="1.999"/>
	<polygon points="-72.907,40.189 -71.138,40.189 -70.707,40.189 -68.697,40.189 -75.111,31.028 -76.749,32.176 -72.538,38.189 
		-74.309,38.189 -76.749,38.189 -75.478,40.006 -74.365,41.595 -69.749,48.189 -68.11,47.043 -72.727,40.447 	"/>
</g>
<g>
	<g>
		<path d="M-469.786,105.559c-1.596-7.445-8.207-13.029-16.127-13.029c-6.423,0-11.977,3.678-14.702,9.035
			c-0.266-0.018-0.53-0.04-0.8-0.04c-6.627,0-11.999,5.372-11.999,12c0,6.607,5.34,11.965,11.938,11.998v0.003h2.062v-2h-1.604
			l-0.447-0.003c-5.485-0.027-9.948-4.513-9.948-9.998c0-5.514,4.485-10,9.999-10c0.175,0,0.347,0.014,0.52,0.025l0.148,0.01
			l1.316,0.088l0.598-1.176c2.492-4.899,7.443-7.942,12.92-7.942c6.79,0,12.75,4.814,14.172,11.448l0.317,1.482l1.514,0.095
			c4.203,0.262,7.496,3.763,7.496,7.971c0,4.397-3.565,7.977-7.957,8c-0.05-0.003-0.093-0.005-0.137-0.007l-2.043,0.007h-2.863v2
			h4.863v-0.007c0.046,0.001,0.091,0.007,0.137,0.007c5.521,0,10-4.477,10-10C-460.414,110.215-464.559,105.884-469.786,105.559z"/>
	</g>
	<g>
		<circle cx="-494.914" cy="119.102" r="1.5"/>
	</g>
	<g>
		<circle cx="-490.914" cy="125.025" r="1.5"/>
	</g>
	<g>
		<circle cx="-482.914" cy="125.025" r="1.5"/>
	</g>
	<g>
		<circle cx="-486.914" cy="119.102" r="1.5"/>
	</g>
	<g>
		<circle cx="-478.914" cy="119.102" r="1.5"/>
	</g>
	<g>
		<circle cx="-494.914" cy="131.047" r="1.5"/>
	</g>
	<g>
		<circle cx="-486.914" cy="131.047" r="1.5"/>
	</g>
	<g>
		<circle cx="-478.914" cy="131.047" r="1.5"/>
	</g>
</g>
<g>
	<g>
		<rect x="-394" y="90.081" width="2" height="7.973"/>
	</g>
	<g>
		<rect x="-413" y="108.995" width="7.973" height="2"/>
	</g>
	<g>
		<rect x="-408.327" y="97.729" transform="matrix(0.7071 0.7071 -0.7071 0.7071 -48.6168 314.8284)" width="7.974" height="2"/>
	</g>
	<g>
		<rect x="-382.818" y="94.747" transform="matrix(0.7071 0.7071 -0.7071 0.7071 -42.0176 298.9044)" width="2" height="7.972"/>
	</g>
	<g>
		<path d="M-363.488,115.871c-1.444-6.742-7.433-11.8-14.605-11.8c-2.185,0-4.258,0.47-6.127,1.313
			c-1.666-3.202-5.006-5.394-8.865-5.394c-5.522,0-10,4.477-10,9.999c0,2.46,0.898,4.702,2.373,6.442
			c-1.428,1.84-2.287,4.144-2.287,6.653c0,5.983,4.836,10.836,10.813,10.865v0.003H-391v-2h-0.721l-0.457-0.003
			c-4.864-0.023-8.822-4.001-8.822-8.865c0-4.89,3.978-8.868,8.867-8.868c0.15,0,0.299,0.012,0.447,0.022l0.148,0.01l1.314,0.085
			l0.597-1.175c2.225-4.372,6.644-7.089,11.532-7.089c6.062,0,11.382,4.298,12.649,10.219l0.318,1.483l1.514,0.094
			c3.708,0.23,6.612,3.319,6.612,7.03c0,3.878-3.144,7.035-7.017,7.057c-0.042-0.003-0.079-0.005-0.117-0.005l-2.047,0.005H-368v2
			h3.819v-0.006c0.042,0.001,0.082,0.006,0.124,0.006c5.001,0,9.057-4.054,9.057-9.057
			C-355,120.088-358.754,116.166-363.488,115.871z M-391.408,112.254c-0.241-0.016-0.48-0.036-0.725-0.036
			c-2.766,0-5.281,1.042-7.2,2.743c-1.092-1.367-1.753-3.09-1.753-4.971c0-4.41,3.589-7.999,8-7.999c3.092,0,5.76,1.773,7.092,4.345
			C-388.293,107.775-390.172,109.824-391.408,112.254z"/>
	</g>
	<g>
		<circle cx="-387.511" cy="127.465" r="1.5"/>
	</g>
	<g>
		<circle cx="-383.511" cy="133.465" r="1.5"/>
	</g>
	<g>
		<circle cx="-375.511" cy="133.465" r="1.5"/>
	</g>
	<g>
		<circle cx="-379.511" cy="127.465" r="1.5"/>
	</g>
	<g>
		<circle cx="-371.511" cy="127.465" r="1.5"/>
	</g>
	<g>
		<circle cx="-387.511" cy="139.486" r="1.5"/>
	</g>
	<g>
		<circle cx="-379.511" cy="139.486" r="1.5"/>
	</g>
	<g>
		<circle cx="-371.511" cy="139.486" r="1.5"/>
	</g>
</g>
<g>
	<g>
		<path d="M-267.537,111.915c-1.444-6.742-7.433-11.8-14.605-11.8c-1.799,0-3.521,0.32-5.118,0.904
			c-0.949-5.108-5.404-8.98-10.788-8.98c-0.413,0-0.819,0.027-1.222,0.071c0.744,1.112,1.179,2.448,1.179,3.886c0,3.865-3.134,7-7,7
			c-1.438,0-2.773-0.435-3.886-1.179c-0.044,0.401-0.071,0.809-0.071,1.222c0,3.712,1.845,6.987,4.661,8.979
			c-1.653,1.907-2.661,4.389-2.661,7.111c0,5.983,4.836,10.836,10.813,10.865v0.003h1.188v-2h-0.721l-0.457-0.003
			c-4.864-0.023-8.822-4.001-8.822-8.865c0-4.89,3.978-8.868,8.867-8.868c0.15,0,0.299,0.012,0.447,0.022l0.148,0.01l1.314,0.085
			l0.597-1.175c2.225-4.372,6.644-7.089,11.532-7.089c6.062,0,11.382,4.298,12.649,10.219l0.318,1.483l1.514,0.094
			c3.708,0.23,6.612,3.319,6.612,7.03c0,3.878-3.144,7.035-7.017,7.057c-0.042-0.003-0.079-0.005-0.117-0.005l-2.047,0.005h-1.819v2
			h3.819v-0.006c0.042,0.001,0.082,0.006,0.124,0.006c5.001,0,9.057-4.054,9.057-9.057
			C-259.049,116.132-262.803,112.21-267.537,111.915z M-295.457,108.298c-0.241-0.016-0.48-0.036-0.725-0.036
			c-2.537,0-4.865,0.876-6.715,2.334c-2.012-1.294-3.486-3.354-3.976-5.776c0.582,0.117,1.178,0.177,1.78,0.177c4.963,0,9-4.037,9-9
			c0-0.603-0.06-1.198-0.177-1.78c3.733,0.753,6.629,3.824,7.134,7.64C-291.848,103.3-294.063,105.555-295.457,108.298z"/>
	</g>
	<g>
		<circle cx="-291.549" cy="123.508" r="1.5"/>
	</g>
	<g>
		<circle cx="-287.549" cy="129.508" r="1.5"/>
	</g>
	<g>
		<circle cx="-279.549" cy="129.508" r="1.5"/>
	</g>
	<g>
		<circle cx="-283.549" cy="123.508" r="1.5"/>
	</g>
	<g>
		<circle cx="-275.549" cy="123.508" r="1.5"/>
	</g>
	<g>
		<circle cx="-291.549" cy="135.529" r="1.5"/>
	</g>
	<g>
		<circle cx="-283.549" cy="135.529" r="1.5"/>
	</g>
	<g>
		<circle cx="-275.549" cy="135.529" r="1.5"/>
	</g>
</g>
<g>
	<path d="M43.628,13.029C42.032,5.584,35.421,0,27.501,0c-6.423,0-11.977,3.678-14.702,9.035c-0.266-0.018-0.53-0.04-0.8-0.04
		C5.372,8.995,0,14.367,0,20.995c0,6.607,5.34,11.965,11.938,11.998v0.003H14v-2h-1.604l-0.447-0.003C6.463,30.966,2,26.48,2,20.995
		c0-5.514,4.485-10,9.999-10c0.175,0,0.347,0.014,0.52,0.025l0.148,0.01l1.316,0.088l0.598-1.176C17.073,5.043,22.024,2,27.501,2
		c6.79,0,12.75,4.814,14.172,11.448l0.317,1.482l1.514,0.095C47.707,15.287,51,18.788,51,22.996c0,4.397-3.565,7.977-7.957,8
		c-0.05-0.003-0.093-0.005-0.137-0.007l-2.043,0.007H38v2h4.863v-0.007c0.046,0.001,0.091,0.007,0.137,0.007c5.521,0,10-4.477,10-10
		C53,17.686,48.855,13.354,43.628,13.029z"/>
	<circle cx="18" cy="40.5" r="1.5"/>
	<circle cx="26" cy="46.5" r="1.5"/>
	<circle cx="34" cy="42.5" r="1.5"/>
	<rect x="17" y="24.024" width="2" height="11.976"/>
	<polygon points="27,41.965 27,40.024 27,28.024 25,28.024 25,40.024 25,41.965 25,42 27,42 	"/>
	<polygon points="35,37.777 35,36.024 35,24.024 33,24.024 33,36.024 33,37.777 33,38 35,38 	"/>
</g>
<g>
	<rect x="-704.749" y="84.643" width="2" height="7.973"/>
	<rect x="-723.749" y="103.557" width="7.973" height="2"/>
	<rect x="-719.076" y="92.29" transform="matrix(0.7071 0.7071 -0.7071 0.7071 -143.4787 532.9682)" width="7.974" height="2"/>
	<rect x="-693.567" y="89.308" transform="matrix(0.7071 0.7071 -0.7071 0.7071 -136.8795 517.0443)" width="2" height="7.972"/>
	<path d="M-674.237,110.433c-1.444-6.742-7.433-11.8-14.605-11.8c-2.185,0-4.258,0.47-6.126,1.313
		c-1.667-3.202-5.007-5.394-8.866-5.394c-5.522,0-10,4.477-10,9.999c0,2.46,0.899,4.702,2.373,6.442
		c-1.429,1.84-2.287,4.144-2.287,6.653c0,5.983,4.836,10.836,10.813,10.865v0.003h1.188v-2h-0.721l-0.457-0.003
		c-4.864-0.023-8.822-4.001-8.822-8.865c0-4.89,3.978-8.868,8.867-8.868c0.15,0,0.299,0.012,0.447,0.022l0.148,0.01l1.314,0.085
		l0.597-1.175c2.225-4.372,6.644-7.089,11.532-7.089c6.062,0,11.382,4.298,12.649,10.219l0.318,1.483l1.514,0.094
		c3.708,0.23,6.612,3.319,6.612,7.03c0,3.878-3.144,7.035-7.017,7.057c-0.042-0.003-0.079-0.005-0.117-0.005l-2.047,0.005h-0.819v2
		h2.819v-0.006c0.042,0.001,0.082,0.006,0.124,0.006c5.001,0,9.057-4.054,9.057-9.057
		C-665.749,114.649-669.503,110.728-674.237,110.433z M-702.157,106.815c-0.241-0.016-0.48-0.036-0.725-0.036
		c-2.766,0-5.282,1.041-7.2,2.743c-1.092-1.366-1.753-3.09-1.753-4.971c0-4.41,3.589-7.999,8-7.999c3.091,0,5.76,1.773,7.091,4.345
		C-699.042,102.338-700.922,104.386-702.157,106.815z"/>
	<circle cx="-697.759" cy="137.003" r="1.5"/>
	<circle cx="-689.759" cy="143.003" r="1.5"/>
	<circle cx="-681.759" cy="139.003" r="1.5"/>
	<rect x="-698.759" y="120.527" width="2" height="11.976"/>
	<polygon points="-688.759,138.468 -688.759,136.527 -688.759,124.527 -690.759,124.527 -690.759,136.527 -690.759,138.468 
		-690.759,138.503 -688.759,138.503 	"/>
	<polygon points="-680.759,134.28 -680.759,132.527 -680.759,120.527 -682.759,120.527 -682.759,132.527 -682.759,134.28 
		-682.759,134.503 -680.759,134.503 	"/>
</g>
<g>
	<path d="M-573.635,107.435c-1.444-6.742-7.433-11.8-14.605-11.8c-1.799,0-3.522,0.32-5.118,0.904
		c-0.949-5.108-5.404-8.98-10.788-8.98c-0.413,0-0.819,0.027-1.222,0.071c0.744,1.112,1.179,2.448,1.179,3.886c0,3.865-3.134,7-7,7
		c-1.438,0-2.773-0.435-3.886-1.179c-0.044,0.401-0.071,0.809-0.071,1.222c0,3.712,1.845,6.987,4.661,8.979
		c-1.653,1.907-2.661,4.389-2.661,7.111c0,5.983,4.836,10.836,10.813,10.865v0.003h1.188v-2h-0.721l-0.457-0.003
		c-4.864-0.023-8.822-4.001-8.822-8.865c0-4.89,3.978-8.868,8.867-8.868c0.15,0,0.299,0.012,0.447,0.022l0.148,0.01l1.314,0.085
		l0.597-1.175c2.225-4.372,6.644-7.089,11.532-7.089c6.062,0,11.382,4.298,12.649,10.219l0.318,1.483l1.514,0.094
		c3.708,0.23,6.612,3.319,6.612,7.03c0,3.878-3.144,7.035-7.017,7.057c-0.042-0.003-0.079-0.005-0.117-0.005l-2.047,0.005h-0.819v2
		h2.819v-0.006c0.042,0.001,0.082,0.006,0.124,0.006c5.001,0,9.057-4.054,9.057-9.057
		C-565.146,111.651-568.9,107.729-573.635,107.435z M-601.555,103.817c-0.241-0.016-0.48-0.036-0.725-0.036
		c-2.537,0-4.865,0.876-6.715,2.334c-2.012-1.294-3.487-3.354-3.976-5.776c0.582,0.117,1.178,0.177,1.78,0.177c4.963,0,9-4.037,9-9
		c0-0.603-0.06-1.198-0.177-1.78c3.733,0.753,6.629,3.824,7.133,7.64C-597.944,98.819-600.159,101.074-601.555,103.817z"/>
	<circle cx="-597.146" cy="134.009" r="1.5"/>
	<circle cx="-589.146" cy="140.009" r="1.5"/>
	<circle cx="-581.146" cy="136.009" r="1.5"/>
	<rect x="-598.146" y="117.533" width="2" height="11.976"/>
	<polygon points="-588.146,135.474 -588.146,133.533 -588.146,121.533 -590.146,121.533 -590.146,133.533 -590.146,135.474 
		-590.146,135.509 -588.146,135.509 	"/>
	<polygon points="-580.146,131.286 -580.146,129.533 -580.146,117.533 -582.146,117.533 -582.146,129.533 -582.146,131.286 
		-582.146,131.509 -580.146,131.509 	"/>
</g>
<g>
	<rect x="-721.749" y="211.875" width="56" height="2"/>
	<rect x="-717.749" y="217.875" width="50" height="2"/>
	<rect x="-711.749" y="223.875" width="36" height="2"/>
	<rect x="-719.749" y="205.875" width="52" height="2"/>
	<path d="M-707.875,197.87c0.175,0,0.347,0.014,0.519,0.025l0.149,0.01l1.316,0.088l0.598-1.176
		c2.493-4.899,7.443-7.942,12.92-7.942c6.79,0,12.75,4.814,14.171,11.448l0.318,1.482l1.514,0.095
		c1.207,0.075,2.335,0.425,3.336,0.975h3.286c-1.678-1.703-3.957-2.813-6.498-2.971c-1.596-7.445-8.207-13.029-16.127-13.029
		c-6.423,0-11.977,3.678-14.702,9.035c-0.266-0.018-0.53-0.04-0.8-0.04c-4.843,0-9.004,2.874-10.9,7.005h2.251
		C-714.793,199.889-711.568,197.87-707.875,197.87z"/>
</g>
<g>
	<rect x="-600.646" y="184.36" width="2" height="7.973"/>
	<rect x="-619.646" y="203.274" width="7.973" height="2"/>
	<rect x="-614.973" y="192.008" transform="matrix(0.7071 0.7071 -0.7071 0.7071 -42.4766 488.5632)" width="7.974" height="2"/>
	<rect x="-589.465" y="189.026" transform="matrix(0.7071 0.7071 -0.7071 0.7071 -35.8774 472.6393)" width="2" height="7.972"/>
	<rect x="-610.646" y="218.234" width="50" height="2"/>
	<rect x="-606.646" y="224.234" width="44" height="2"/>
	<rect x="-600.646" y="229.234" width="30" height="2"/>
	<rect x="-608.646" y="212.234" width="46" height="2"/>
	<path d="M-607.738,210.234h0.771h1.927h1.012c1.472-1.087,3.283-1.737,5.249-1.737c0.15,0,0.299,0.012,0.447,0.022l0.148,0.01
		l1.314,0.085l0.597-1.175c2.225-4.372,6.644-7.089,11.532-7.089c5.945,0,11.168,4.139,12.563,9.884h2.043v-0.084
		c-1.444-6.742-7.433-11.8-14.605-11.8c-2.185,0-4.258,0.47-6.126,1.313c-1.667-3.202-5.007-5.394-8.866-5.394
		c-5.522,0-10,4.477-10,9.999C-609.732,206.511-608.984,208.569-607.738,210.234z M-599.732,196.271c3.091,0,5.76,1.773,7.091,4.345
		c-2.298,1.44-4.178,3.488-5.413,5.918c-0.241-0.016-0.48-0.036-0.725-0.036c-2.764,0-5.274,1.045-7.189,2.745
		c-1.097-1.366-1.764-3.089-1.764-4.973C-607.732,199.859-604.144,196.271-599.732,196.271z"/>
</g>
<g>
	<rect x="-511.902" y="214.797" width="50" height="2"/>
	<rect x="-507.902" y="220.797" width="44" height="2"/>
	<rect x="-501.902" y="225.797" width="30" height="2"/>
	<rect x="-509.902" y="208.797" width="46" height="2"/>
	<path d="M-508.26,206.797h0.037h1.884h1.055c1.472-1.087,3.283-1.737,5.249-1.737c0.15,0,0.299,0.012,0.447,0.022l0.148,0.01
		l1.314,0.085l0.597-1.175c2.225-4.372,6.644-7.089,11.532-7.089c5.945,0,11.168,4.139,12.563,9.884h2.043v-0.084
		c-1.444-6.742-7.433-11.8-14.605-11.8c-1.799,0-3.521,0.32-5.117,0.903c-0.945-5.111-5.402-8.987-10.789-8.987
		c-0.413,0-0.819,0.027-1.222,0.071c0.744,1.112,1.179,2.448,1.179,3.886c0,3.865-3.134,7-7,7c-1.438,0-2.773-0.435-3.886-1.179
		c-0.044,0.401-0.071,0.809-0.071,1.222C-512.902,201.533-511.066,204.804-508.26,206.797z M-508.945,199.786c4.963,0,9-4.037,9-9
		c0-0.603-0.06-1.198-0.177-1.78c3.735,0.753,6.633,3.828,7.134,7.647c-2.712,1.443-4.927,3.699-6.322,6.442
		c-0.241-0.016-0.48-0.036-0.725-0.036c-2.534,0-4.855,0.879-6.701,2.335c-2.02-1.293-3.5-3.356-3.989-5.785
		C-510.144,199.727-509.548,199.786-508.945,199.786z"/>
</g>
<g>
	<path d="M-380.011,217.811h-19.474l-0.578-0.003c-5.485-0.027-9.948-4.513-9.948-9.998c0-5.514,4.485-10,9.999-10
		c0.175,0,0.347,0.014,0.519,0.025l0.149,0.01l1.316,0.088l0.598-1.176c2.493-4.899,7.443-7.942,12.92-7.942
		c6.79,0,12.75,4.814,14.171,11.448l0.318,1.482l1.514,0.095c1.822,0.113,3.463,0.845,4.746,1.971h2.732
		c-1.707-2.262-4.348-3.78-7.354-3.967c-1.596-7.445-8.207-13.029-16.127-13.029c-6.423,0-11.977,3.678-14.702,9.035
		c-0.266-0.018-0.53-0.04-0.8-0.04c-6.627,0-11.999,5.372-11.999,12c0,6.607,5.34,11.965,11.938,11.998v0.003h20.062
		c2.205,0,4,1.794,4,4s-1.795,4-4,4v2c3.314,0,6-2.686,6-6C-374.011,220.497-376.696,217.811-380.011,217.811z"/>
	<path d="M-376.011,213.811h-15.988v2h15.988c3.314,0,6-2.687,6-6c0-3.314-2.686-6-6-6v2c2.205,0,4,1.794,4,4
		S-373.806,213.811-376.011,213.811z"/>
	<path d="M-363.011,207.811c1.654,0,3,1.346,3,3s-1.346,3-3,3c-0.043,0-0.083-0.011-0.126-0.013h-4.862
		c0.003,0.005,0.009,0.008,0.012,0.013h-0.023v2h5.5v-0.051c2.523-0.254,4.5-2.358,4.5-4.949c0-2.762-2.238-5-5-5V207.811z"/>
	<path d="M-359.011,217.811h-13v2h9.022c-0.004,0.005-0.008,0.008-0.011,0.013h3.862c0.043-0.002,0.083-0.013,0.126-0.013
		c1.654,0,3,1.346,3,3s-1.346,3-3,3v2c2.762,0,5-2.238,5-5S-356.249,217.811-359.011,217.811z"/>
	<rect x="-398.011" y="213.811" width="4" height="2"/>
</g>
<path d="M-587.572-181.293c6.95,1.305,12.226,7.419,12.226,14.742c0,8.272-6.729,15.002-15,15.002
	c-6.79,0-12.531-4.49-14.366-10.728c1.398,0.461,2.867,0.698,4.366,0.698c7.72,0,14-6.281,14-14.001
	C-586.347-177.563-586.771-179.508-587.572-181.293 M-590.347-183.55c-0.338,0-0.668,0.031-1,0.051c1.861,2.113,3,4.881,3,7.92
	c0,6.627-5.372,12.001-12,12.001c-2.599,0-4.998-0.835-6.963-2.239c0.387,9.047,7.821,16.269,16.963,16.269
	c9.39,0,17-7.612,17-17.002S-580.957-183.55-590.347-183.55L-590.347-183.55z"/>
<g>
	<path d="M-693.742-178.555c-7.18,0-13,5.819-13,12.999c0,7.181,5.82,13.002,13,13.002s13-5.821,13-13.002
		C-680.742-172.735-686.563-178.555-693.742-178.555z M-693.742-154.554c-6.065,0-11-4.936-11-11.002
		c0-6.064,4.935-10.999,11-10.999s11,4.935,11,10.999C-682.742-159.489-687.677-154.554-693.742-154.554z"/>
	<rect x="-694.749" y="-191.549" width="2" height="10"/>
	<rect x="-694.749" y="-149.549" width="2" height="10"/>
	<rect x="-719.742" y="-166.549" width="9.993" height="2"/>
	<rect x="-677.749" y="-166.549" width="10.007" height="2"/>
	<rect x="-680.049" y="-185.463" transform="matrix(0.7071 0.7071 -0.7071 0.7071 -326.3508 427.364)" width="2" height="10.409"/>
	
		<rect x="-709.458" y="-156.054" transform="matrix(-0.7071 -0.7071 0.7071 -0.7071 -1102.7471 -758.471)" width="2" height="10.41"/>
	<rect x="-713.658" y="-181.253" transform="matrix(0.7071 0.7071 -0.7071 0.7071 -334.9597 448.1573)" width="10.409" height="2"/>
	
		<rect x="-684.25" y="-151.844" transform="matrix(-0.7072 -0.7071 0.7071 -0.7072 -1052.5781 -737.6398)" width="10.41" height="2"/>
</g>
<g>
	<rect x="-295.576" y="179.313" width="2" height="7.973"/>
	<rect x="-314.549" y="198.299" width="7.973" height="2"/>
	<rect x="-309.823" y="187.08" transform="matrix(0.7071 0.7071 -0.7071 0.7071 43.4154 271.3461)" width="7.974" height="2"/>
	<rect x="-284.314" y="184.098" transform="matrix(0.7071 0.7071 -0.7071 0.7071 50.0146 255.4221)" width="2" height="7.972"/>
	<path d="M-280.549,221.313l0.005-0.007h-12.536l-0.594-0.003c-4.864-0.024-8.822-4.001-8.822-8.865c0-4.89,3.978-8.868,8.867-8.868
		c0.15,0,0.299,0.012,0.447,0.021l0.148,0.011l1.314,0.085l0.597-1.174c2.225-4.373,6.644-7.09,11.532-7.09
		c5.916,0,11.114,4.099,12.54,9.8h2.065c-1.444-6.742-7.433-11.8-14.605-11.8c-2.185,0-4.258,0.47-6.126,1.313
		c-1.667-3.202-5.007-5.394-8.866-5.394c-5.522,0-10,4.477-10,9.999c0,2.46,0.899,4.702,2.373,6.442
		c-1.429,1.84-2.287,4.144-2.287,6.653c0,5.983,4.836,10.836,10.813,10.865v0.003h13.135v0.007c2.205,0,4,1.794,4,4s-1.795,4-4,4v2
		c3.314,0,6-2.686,6-6C-274.549,223.999-277.234,221.313-280.549,221.313z M-294.582,191.343c3.091,0,5.76,1.773,7.091,4.345
		c-2.298,1.439-4.178,3.488-5.413,5.918c-0.241-0.016-0.48-0.036-0.725-0.036c-2.766,0-5.282,1.042-7.2,2.743
		c-1.092-1.367-1.753-3.09-1.753-4.971C-302.582,194.932-298.993,191.343-294.582,191.343z"/>
	<path d="M-276.549,217.313h-9.988v2h9.988c3.314,0,6-2.687,6-6c0-3.314-2.686-6-6-6v2c2.205,0,4,1.794,4,4
		S-274.344,217.313-276.549,217.313z"/>
	<path d="M-268.525,217.313h-0.023v2h5.5v-0.051c2.523-0.254,4.5-2.358,4.5-4.949c0-2.762-2.238-5-5-5v2c1.654,0,3,1.346,3,3
		s-1.346,3-3,3c-0.043,0-0.083-0.011-0.126-0.013h-4.862C-268.534,217.305-268.528,217.309-268.525,217.313z"/>
	<path d="M-259.549,221.313h-13v2h9.022c-0.004,0.004-0.008,0.008-0.011,0.013h3.862c0.043-0.002,0.083-0.013,0.126-0.013
		c1.654,0,3,1.346,3,3s-1.346,3-3,3v2c2.762,0,5-2.238,5-5S-256.787,221.313-259.549,221.313z"/>
	<rect x="-292.549" y="217.313" width="4" height="2"/>
</g>
<g>
	<path d="M-180.587,219.307l0.005-0.007h-12.536l-0.594-0.003c-4.864-0.024-8.822-4.001-8.822-8.865c0-4.89,3.978-8.868,8.867-8.868
		c0.15,0,0.299,0.012,0.447,0.021l0.148,0.011l1.314,0.085l0.597-1.174c2.225-4.373,6.644-7.09,11.532-7.09
		c5.916,0,11.114,4.099,12.54,9.8h2.065c-1.444-6.742-7.433-11.8-14.605-11.8c-1.806,0-3.536,0.322-5.138,0.91
		c-0.938-5.123-5.4-9.01-10.794-9.01c-0.413,0-0.819,0.027-1.222,0.071c0.744,1.112,1.179,2.448,1.179,3.886c0,3.865-3.134,7-7,7
		c-1.438,0-2.773-0.435-3.886-1.179c-0.044,0.401-0.071,0.809-0.071,1.222c0,3.725,1.858,7.009,4.69,8.998
		c-1.655,1.907-2.665,4.392-2.665,7.116c0,5.983,4.836,10.836,10.813,10.865v0.003h13.135v0.007c2.205,0,4,1.794,4,4s-1.795,4-4,4v2
		c3.314,0,6-2.686,6-6C-174.587,221.993-177.272,219.307-180.587,219.307z M-204.383,196.098c0.582,0.117,1.178,0.177,1.78,0.177
		c4.963,0,9-4.037,9-9c0-0.603-0.06-1.198-0.177-1.78c3.744,0.755,6.646,3.842,7.138,7.674c-2.702,1.444-4.909,3.696-6.301,6.432
		c-0.241-0.016-0.48-0.036-0.725-0.036c-2.535,0-4.861,0.875-6.71,2.33C-202.405,200.602-203.892,198.533-204.383,196.098z"/>
	<path d="M-176.587,215.307h-9.988v2h9.988c3.314,0,6-2.687,6-6c0-3.314-2.686-6-6-6v2c2.205,0,4,1.794,4,4
		S-174.382,215.307-176.587,215.307z"/>
	<path d="M-168.563,215.307h-0.023v2h5.5v-0.051c2.523-0.254,4.5-2.358,4.5-4.949c0-2.762-2.238-5-5-5v2c1.654,0,3,1.346,3,3
		s-1.346,3-3,3c-0.043,0-0.083-0.011-0.126-0.013h-4.862C-168.572,215.299-168.566,215.303-168.563,215.307z"/>
	<path d="M-159.587,219.307h-13v2h9.022c-0.004,0.004-0.008,0.008-0.011,0.013h3.862c0.043-0.002,0.083-0.013,0.126-0.013
		c1.654,0,3,1.346,3,3s-1.346,3-3,3v2c2.762,0,5-2.238,5-5S-156.825,219.307-159.587,219.307z"/>
	<rect x="-192.587" y="215.307" width="4" height="2"/>
</g>
<g>
	<rect x="-79.694" y="181.875" width="2" height="10"/>
	<rect x="-104.688" y="206.875" width="9.993" height="2"/>
	<rect x="-64.995" y="187.961" transform="matrix(0.7071 0.7071 -0.7071 0.7071 117.8451 101.8279)" width="2" height="10.409"/>
	<rect x="-98.603" y="192.171" transform="matrix(0.7071 0.7071 -0.7071 0.7071 109.2362 122.6213)" width="10.409" height="2"/>
	<path d="M-74.694,221.875h-24v2h24c2.205,0,4,1.794,4,4s-1.795,4-4,4v2c3.314,0,6-2.686,6-6
		C-68.694,224.562-71.38,221.875-74.694,221.875z"/>
	<path d="M-62.671,217.875h-0.023v2h5.5v-0.051c2.523-0.254,4.5-2.358,4.5-4.949c0-2.762-2.238-5-5-5v2c1.654,0,3,1.346,3,3
		s-1.346,3-3,3c-0.043,0-0.083-0.011-0.126-0.013h-4.862C-62.68,217.867-62.674,217.871-62.671,217.875z"/>
	<path d="M-53.694,221.875h-13v2h9.022c-0.004,0.004-0.008,0.008-0.011,0.013h3.862c0.043-0.002,0.083-0.013,0.126-0.013
		c1.654,0,3,1.346,3,3s-1.346,3-3,3v2c2.762,0,5-2.238,5-5S-50.933,221.875-53.694,221.875z"/>
	<path d="M-86.985,217.875h-11.709v2h12.012h0.822h15.166c3.314,0,6-2.687,6-6c0-3.314-2.686-6-6-6v2c2.205,0,4,1.794,4,4
		s-1.795,4-4,4h-12.538c-3.802-1.734-6.455-5.563-6.455-10.007c0-6.064,4.935-10.999,11-10.999c5.384,0,9.868,3.891,10.81,9.006
		h2.021c-0.961-6.23-6.331-11.006-12.831-11.006c-7.18,0-13,5.819-13,12.999C-91.688,211.894-89.857,215.49-86.985,217.875z"/>
</g>
<g>
	<path d="M25.532,215.318h-24v2h24c2.205,0,4,1.794,4,4s-1.795,4-4,4v2c3.314,0,6-2.686,6-6
		C31.532,218.005,28.847,215.318,25.532,215.318z"/>
	<path d="M43.032,213.318v-0.051c2.523-0.254,4.5-2.358,4.5-4.949c0-2.762-2.238-5-5-5v2c1.654,0,3,1.346,3,3s-1.346,3-3,3
		c-0.043,0-0.083-0.011-0.126-0.013h-4.862c0.004,0.005,0.009,0.009,0.012,0.013h-0.023v2H43.032z"/>
	<path d="M46.532,215.318h-13v2h9.022c-0.003,0.004-0.007,0.008-0.011,0.013h3.862c0.043-0.002,0.083-0.013,0.126-0.013
		c1.654,0,3,1.346,3,3s-1.346,3-3,3v2c2.762,0,5-2.238,5-5S49.294,215.318,46.532,215.318z"/>
	<path d="M14.366,213.318h15.166c3.314,0,6-2.687,6-6c0-3.314-2.686-6-6-6v2c2.205,0,4,1.794,4,4s-1.795,4-4,4H16.946
		c-2.596-1.188-4.658-3.339-5.69-6.034c0.849,0.204,1.724,0.309,2.612,0.309c6.168,0,11.187-5.019,11.187-11.188
		c0-1.276-0.22-2.532-0.64-3.717c4.046,1.102,7.168,4.459,7.937,8.63h2.018c-0.964-6.237-6.338-11.016-12.846-11.016
		c-0.259,0-0.511,0.024-0.766,0.039c1.425,1.618,2.297,3.737,2.297,6.063c0,5.072-4.112,9.188-9.187,9.188
		c-1.988,0-3.826-0.641-5.33-1.715c0.162,3.801,1.962,7.165,4.699,9.44H1.532v2h12.012H14.366z"/>
</g>
<g>
	<path d="M-694.249,300.512h-20c-1.103,0-2-0.897-2-2s0.897-2,2-2h3.445h0.555v-2h-4c-2.209,0-4,1.791-4,4s1.791,4,4,4h20
		c2.205,0,4,1.794,4,4s-1.795,4-4,4v2c3.314,0,6-2.686,6-6C-688.249,303.198-690.935,300.512-694.249,300.512z"/>
	<path d="M-692.249,284.512v2c2.205,0,4,1.794,4,4s-1.795,4-4,4h-15.988v2h15.988c3.314,0,6-2.687,6-6
		C-686.249,287.197-688.935,284.512-692.249,284.512z"/>
	<path d="M-686.249,296.512v2h5.5v-0.051c2.523-0.254,4.5-2.358,4.5-4.949c0-2.762-2.238-5-5-5v2c1.654,0,3,1.346,3,3s-1.346,3-3,3
		c-0.043,0-0.083-0.011-0.126-0.013h-4.862c0.003,0.005,0.009,0.009,0.012,0.013H-686.249z"/>
	<path d="M-675.249,300.512h-11v2h7.022c-0.004,0.004-0.008,0.008-0.011,0.013h3.862c0.043-0.002,0.083-0.013,0.126-0.013
		c1.654,0,3,1.346,3,3s-1.346,3-3,3v2c2.762,0,5-2.238,5-5S-672.487,300.512-675.249,300.512z"/>
</g>
<path d="M-157.957,286.858v-0.038h-38.376c-1.103,0-2-0.897-2-2s0.897-2,2-2h33c2.762,0,5-2.238,5-5s-2.238-5-5-5h-37.875v0.008
	c-0.042-0.001-0.083-0.008-0.125-0.008c-2.762,0-5,2.238-5,5s2.238,5,5,5v-2c-1.654,0-3-1.346-3-3s1.346-3,3-3h0.125h3.853h34.022
	c1.654,0,3,1.346,3,3s-1.346,3-3,3h-33c-2.209,0-4,1.791-4,4s1.791,4,4,4h38c1.103,0,2,0.897,2,2s-0.897,2-2,2h-32
	c-2.209,0-4,1.791-4,4s1.791,4,4,4h22c1.103,0,2,0.897,2,2s-0.897,2-2,2h-24.01v0.001c-2.204,0.006-3.99,1.793-3.99,3.999
	s1.786,3.993,3.99,3.999v0.001h12.01c1.103,0,2,0.897,2,2s-0.897,2-2,2h-2c-2.209,0-4,1.791-4,4s1.791,4,4,4v-2
	c-1.103,0-2-0.897-2-2s0.897-2,2-2h2c2.209,0,4-1.791,4-4s-1.791-4-4-4h-12c-1.103,0-2-0.897-2-2s0.897-2,2-2h24
	c2.209,0,4-1.791,4-4c0-2.152-1.704-3.895-3.834-3.983v-0.017h-22.166c-1.103,0-2-0.897-2-2s0.897-2,2-2h32c2.209,0,4-1.791,4-4
	C-154.333,288.74-155.927,287.051-157.957,286.858z"/>
<path d="M27.458,277.536v-2.024h-2v2.024c-13.01,0.513-23.462,10.965-23.975,23.976h1.674c1.14-1.222,2.748-2,4.551-2
	c2.26,0,4.233,1.203,5.331,3h1.838c1.098-1.797,3.071-3,5.331-3c2.204,0,4.137,1.144,5.25,2.866v15.134c0,2.21,1.791,4,4,4
	s4-1.79,4-4h-2c0,1.103-0.897,2-2,2s-2-0.897-2-2v-15.134c1.113-1.723,3.046-2.866,5.25-2.866c2.26,0,4.233,1.203,5.331,3h1.838
	c1.098-1.797,3.071-3,5.331-3c1.803,0,3.411,0.778,4.551,2h1.674C50.92,288.501,40.468,278.049,27.458,277.536z M45.208,297.512
	c-2.496,0-4.736,1.114-6.25,2.87c-1.514-1.756-3.754-2.87-6.25-2.87s-4.736,1.114-6.25,2.87c-1.514-1.756-3.754-2.87-6.25-2.87
	s-4.736,1.114-6.25,2.87c-1.514-1.756-3.755-2.87-6.25-2.87c-1.402,0-2.731,0.351-3.897,0.975
	c1.909-10.769,11.339-18.975,22.647-18.975s20.738,8.206,22.647,18.975C47.939,297.862,46.61,297.512,45.208,297.512z"/>
<g>
	<path d="M-377.837,401.824v-17.105c0-2.762-2.238-5-5-5s-5,2.238-5,5v17.105c-1.236,1.263-2,2.988-2,4.895c0,3.866,3.134,7,7,7
		s7-3.134,7-7C-375.837,404.813-376.601,403.087-377.837,401.824z M-382.837,411.719c-2.757,0-5-2.243-5-5
		c0-1.313,0.508-2.554,1.429-3.495l0.571-0.583v-0.816v-17.105c0-1.654,1.346-3,3-3s3,1.346,3,3v17.105v0.816l0.571,0.583
		c0.921,0.941,1.429,2.183,1.429,3.495C-377.837,409.476-380.08,411.719-382.837,411.719z"/>
	<path d="M-381.837,403.895v-15.176h-2v15.176c-1.167,0.413-2.008,1.516-2.008,2.824c0,1.662,1.347,3.008,3.008,3.008
		c1.662,0,3.008-1.346,3.008-3.008C-379.829,405.41-380.669,404.308-381.837,403.895z M-382.837,407.727
		c-0.556,0-1.008-0.452-1.008-1.008s0.452-1.008,1.008-1.008s1.008,0.452,1.008,1.008S-382.281,407.727-382.837,407.727z"/>
</g>
<g>
	<path d="M-278.049,401.824v-17.105c0-2.762-2.238-5-5-5s-5,2.238-5,5v17.105c-1.236,1.263-2,2.988-2,4.895c0,3.866,3.134,7,7,7
		s7-3.134,7-7C-276.049,404.813-276.813,403.087-278.049,401.824z M-283.049,411.719c-2.757,0-5-2.243-5-5
		c0-1.313,0.508-2.554,1.429-3.495l0.571-0.583v-0.816v-17.105c0-1.654,1.346-3,3-3s3,1.346,3,3v17.105v0.816l0.571,0.583
		c0.921,0.941,1.429,2.183,1.429,3.495C-278.049,409.476-280.292,411.719-283.049,411.719z"/>
	<path d="M-282.049,403.895v-20.176h-2v20.176c-1.167,0.413-2.008,1.516-2.008,2.824c0,1.662,1.347,3.008,3.008,3.008
		c1.662,0,3.008-1.346,3.008-3.008C-280.041,405.41-280.881,404.308-282.049,403.895z M-283.049,407.727
		c-0.556,0-1.008-0.452-1.008-1.008s0.452-1.008,1.008-1.008s1.008,0.452,1.008,1.008S-282.493,407.727-283.049,407.727z"/>
</g>
<g>
	<path d="M-480.946,401.824v-17.105c0-2.762-2.238-5-5-5s-5,2.238-5,5v17.105c-1.236,1.263-2,2.988-2,4.895c0,3.866,3.134,7,7,7
		s7-3.134,7-7C-478.946,404.813-479.71,403.087-480.946,401.824z M-485.946,411.719c-2.757,0-5-2.243-5-5
		c0-1.313,0.508-2.554,1.429-3.495l0.571-0.583v-0.816v-17.105c0-1.654,1.346-3,3-3s3,1.346,3,3v17.105v0.816l0.571,0.583
		c0.921,0.941,1.429,2.183,1.429,3.495C-480.946,409.476-483.189,411.719-485.946,411.719z"/>
	<path d="M-484.946,403.895v-10.176h-2v10.176c-1.167,0.413-2.008,1.516-2.008,2.824c0,1.662,1.347,3.008,3.008,3.008
		c1.662,0,3.008-1.346,3.008-3.008C-482.938,405.41-483.778,404.308-484.946,403.895z M-485.946,407.727
		c-0.556,0-1.008-0.452-1.008-1.008s0.452-1.008,1.008-1.008s1.008,0.452,1.008,1.008S-485.391,407.727-485.946,407.727z"/>
</g>
<g>
	<path d="M-584.592,401.824v-17.105c0-2.762-2.238-5-5-5s-5,2.238-5,5v17.105c-1.236,1.263-2,2.988-2,4.895c0,3.866,3.134,7,7,7
		s7-3.134,7-7C-582.592,404.813-583.355,403.087-584.592,401.824z M-589.592,411.719c-2.757,0-5-2.243-5-5
		c0-1.313,0.508-2.554,1.429-3.495l0.571-0.583v-0.816v-17.105c0-1.654,1.346-3,3-3s3,1.346,3,3v17.105v0.816l0.571,0.583
		c0.921,0.941,1.429,2.183,1.429,3.495C-584.592,409.476-586.835,411.719-589.592,411.719z"/>
	<path d="M-588.592,403.895v-5.176h-2v5.176c-1.167,0.413-2.008,1.516-2.008,2.824c0,1.662,1.347,3.008,3.008,3.008
		c1.662,0,3.008-1.346,3.008-3.008C-586.584,405.41-587.424,404.308-588.592,403.895z M-589.592,407.727
		c-0.556,0-1.008-0.452-1.008-1.008s0.452-1.008,1.008-1.008s1.008,0.452,1.008,1.008S-589.036,407.727-589.592,407.727z"/>
</g>
<g>
	<path d="M-689.249,401.824v-17.105c0-2.762-2.238-5-5-5s-5,2.238-5,5v17.105c-1.236,1.263-2,2.988-2,4.895c0,3.866,3.134,7,7,7
		s7-3.134,7-7C-687.249,404.813-688.013,403.087-689.249,401.824z M-694.249,411.719c-2.757,0-5-2.243-5-5
		c0-1.313,0.508-2.554,1.429-3.495l0.571-0.583v-0.816v-17.105c0-1.654,1.346-3,3-3s3,1.346,3,3v17.105v0.816l0.571,0.583
		c0.921,0.941,1.429,2.183,1.429,3.495C-689.249,409.476-691.492,411.719-694.249,411.719z"/>
	<path d="M-694.249,403.711c-1.661,0-3.008,1.347-3.008,3.008c0,1.662,1.347,3.008,3.008,3.008c1.662,0,3.008-1.346,3.008-3.008
		C-691.241,405.058-692.587,403.711-694.249,403.711z M-694.249,407.727c-0.556,0-1.008-0.452-1.008-1.008s0.452-1.008,1.008-1.008
		s1.008,0.452,1.008,1.008S-693.693,407.727-694.249,407.727z"/>
</g>
<g>
	<path d="M-189.324,382.031c-2.209,0-4,1.791-4,4c0,2.21,1.791,4,4,4c2.211,0,4-1.79,4-4
		C-185.324,383.822-187.113,382.031-189.324,382.031z M-189.324,388.031c-1.103,0-2-0.897-2-2s0.897-2,2-2s2,0.897,2,2
		S-188.222,388.031-189.324,388.031z"/>
	<path d="M-175.324,410.031c-4.41,0-7.999-3.589-7.999-7.999v-4.002c0-4.41,3.589-7.999,7.999-7.999
		c2.715,0,5.115,1.362,6.563,3.437l1.43-1.43c-1.824-2.429-4.72-4.007-7.992-4.007c-5.522,0-9.999,4.478-9.999,9.999v4.002
		c0,5.521,4.477,9.999,9.999,9.999c3.272,0,6.168-1.579,7.992-4.008l-1.43-1.43C-170.208,408.668-172.608,410.031-175.324,410.031z"
		/>
</g>
<g>
	<path d="M-84.628,381.91c-2.209,0-4,1.791-4,4c0,2.21,1.791,4,4,4c2.211,0,4-1.79,4-4C-80.628,383.701-82.417,381.91-84.628,381.91
		z M-84.628,387.91c-1.103,0-2-0.897-2-2s0.897-2,2-2s2,0.897,2,2S-83.525,387.91-84.628,387.91z"/>
	<polygon points="-64.753,390.031 -64.753,388.031 -76.753,388.031 -78.753,388.031 -78.753,412.031 -76.753,412.031 
		-76.753,400.031 -68.753,400.031 -68.753,398.031 -76.753,398.031 -76.753,390.031 	"/>
</g>
<g>
	<path d="M26.458,385.723c-7.179,0-13,5.82-13,13s5.821,13,13,13s13-5.82,13-13S33.637,385.723,26.458,385.723z M26.458,409.723
		c-6.065,0-11-4.935-11-11s4.935-11,11-11s11,4.935,11,11S32.523,409.723,26.458,409.723z"/>
	<path d="M22.191,402.965l6.363-2.121l2.121-6.364l-6.363,2.122L22.191,402.965z M25.894,398.183l1.62-0.54l-0.54,1.62l-1.62,0.54
		L25.894,398.183z"/>
</g>
<g>
	<path d="M-694.249,476.24c-7.179,0-13,5.82-13,13s5.821,13,13,13s13-5.82,13-13S-687.07,476.24-694.249,476.24z M-694.249,500.24
		c-6.065,0-11-4.934-11-11c0-6.064,4.935-11,11-11s11,4.936,11,11C-683.249,495.307-688.184,500.24-694.249,500.24z"/>
	<path d="M-691.688,487.662l-2.586-4.422l-2.529,4.33h0.007c-0.299,0.467-0.478,1.018-0.478,1.613c0,1.656,1.343,3,3,3s3-1.344,3-3
		c0-0.559-0.162-1.074-0.428-1.521H-691.688z M-694.273,490.184c-0.552,0-1-0.449-1-1c0-0.188,0.055-0.367,0.162-0.535l0.864-1.355
		l0.826,1.391c0.098,0.164,0.147,0.332,0.147,0.5C-693.273,489.734-693.722,490.184-694.273,490.184z"/>
</g>
<g>
	<path d="M-589.465,476.24c-7.18,0-13,5.82-13,13s5.82,13,13,13s13-5.82,13-13S-582.285,476.24-589.465,476.24z M-589.465,500.24
		c-6.065,0-11-4.934-11-11c0-6.064,4.935-11,11-11s11,4.936,11,11C-578.465,495.307-583.399,500.24-589.465,500.24z"/>
	<path d="M-587.876,486.66c-0.467-0.299-1.018-0.477-1.613-0.477c-1.658,0-3,1.342-3,3c0,1.656,1.342,3,3,3
		c0.557,0,1.072-0.162,1.52-0.428v0.014l4.422-2.586l-4.328-2.529V486.66z M-588.991,490.035c-0.164,0.098-0.332,0.148-0.498,0.148
		c-0.552,0-1-0.449-1-1c0-0.553,0.448-1,1-1c0.188,0,0.368,0.053,0.535,0.16l1.355,0.865L-588.991,490.035z"/>
</g>
<g>
	<path d="M-486.414,476.24c-7.18,0-13,5.82-13,13s5.82,13,13,13s13-5.82,13-13S-479.234,476.24-486.414,476.24z M-486.414,500.24
		c-6.065,0-11-4.934-11-11c0-6.064,4.935-11,11-11s11,4.936,11,11C-475.414,495.307-480.349,500.24-486.414,500.24z"/>
	<path d="M-486.414,486.184c-1.656,0-3,1.342-3,3c0,0.557,0.162,1.072,0.428,1.52H-489l2.586,4.422l2.529-4.328h-0.006
		c0.299-0.467,0.477-1.018,0.477-1.613C-483.414,487.525-484.756,486.184-486.414,486.184z M-485.575,489.719l-0.865,1.355
		l-0.826-1.393c-0.098-0.164-0.147-0.332-0.147-0.498c0-0.553,0.448-1,1-1s1,0.447,1,1
		C-485.414,489.371-485.468,489.551-485.575,489.719z"/>
</g>
<g>
	<path d="M-383,476.24c-7.179,0-13,5.82-13,13s5.821,13,13,13s13-5.82,13-13S-375.821,476.24-383,476.24z M-383,500.24
		c-6.065,0-11-4.934-11-11c0-6.064,4.935-11,11-11s11,4.936,11,11C-372,495.307-376.935,500.24-383,500.24z"/>
	<path d="M-383.041,486.184c-0.557,0-1.072,0.162-1.52,0.428v-0.014l-4.422,2.586l4.328,2.529v-0.006
		c0.467,0.299,1.018,0.477,1.613,0.477c1.658,0,3-1.342,3-3C-380.041,487.527-381.383,486.184-383.041,486.184z M-383.041,490.184
		c-0.188,0-0.368-0.055-0.535-0.162l-1.355-0.865l1.393-0.826c0.164-0.098,0.332-0.146,0.498-0.146c0.552,0,1,0.447,1,1
		C-382.041,489.734-382.489,490.184-383.041,490.184z"/>
</g>
<g>
	<rect x="-591.151" y="279.512" width="2" height="10"/>
	<rect x="-576.452" y="285.598" transform="matrix(0.7071 0.7071 -0.7071 0.7071 37.0823 492.0798)" width="2" height="10.409"/>
	<rect x="-610.06" y="289.807" transform="matrix(0.7071 0.7071 -0.7071 0.7071 28.4735 512.8732)" width="10.409" height="2"/>
	<polygon points="-596.819,308.766 -595.405,310.18 -591.151,305.926 -591.151,315.512 -589.151,315.512 -589.151,305.926 
		-584.898,310.18 -583.484,308.766 -590.151,302.098 	"/>
	<path d="M-577.145,305.511c0-0.002,0-0.004,0-0.006c0-7.18-5.82-12.999-13-12.999s-13,5.819-13,12.999c0,0.002,0,0.004,0,0.006h-13
		v2h18v-2h-3c0-0.002,0-0.004,0-0.006c0-6.064,4.935-10.999,11-10.999s11,4.935,11,10.999c0,0.002,0,0.004,0,0.006h-3v2h17.995v-2
		H-577.145z"/>
</g>
<g>
	<rect x="-487.406" y="278.324" width="2" height="10"/>
	<rect x="-472.706" y="284.41" transform="matrix(0.7071 0.7071 -0.7071 0.7071 66.6289 418.3731)" width="2" height="10.409"/>
	<rect x="-506.315" y="288.62" transform="matrix(0.7071 0.7071 -0.7071 0.7071 58.02 439.1665)" width="10.409" height="2"/>
	<polygon points="-485.406,312.871 -485.406,302.324 -487.406,302.324 -487.406,312.871 -491.66,308.617 -493.074,310.031 
		-486.406,316.699 -479.739,310.031 -481.153,308.617 	"/>
	<path d="M-473.399,304.323c0-0.002,0-0.004,0-0.006c0-7.18-5.82-12.999-13-12.999s-13,5.819-13,12.999c0,0.002,0,0.004,0,0.006h-13
		v2h22v-2h-7c0-0.002,0-0.004,0-0.006c0-6.064,4.935-10.999,11-10.999s11,4.935,11,10.999c0,0.002,0,0.004,0,0.006h-7v2h21.995v-2
		H-473.399z"/>
</g>
<g>
	<polygon points="-283.049,312.337 -283.049,297.954 -285.049,297.954 -285.049,312.337 -289.303,308.083 -290.717,309.497 
		-284.049,316.165 -277.382,309.497 -278.796,308.083 	"/>
	<path d="M-267.421,292.983c-1.596-7.445-8.207-13.029-16.127-13.029c-6.423,0-11.977,3.678-14.702,9.035
		c-0.266-0.018-0.53-0.04-0.8-0.04c-6.627,0-11.999,5.372-11.999,12c0,6.607,5.34,11.965,11.938,11.998v0.003h6.062v-2h-5.604
		l-0.447-0.003c-5.485-0.027-9.948-4.513-9.948-9.998c0-5.514,4.485-10,9.999-10c0.175,0,0.347,0.014,0.52,0.025l0.148,0.01
		l1.316,0.088l0.598-1.176c2.492-4.899,7.443-7.942,12.92-7.942c6.79,0,12.75,4.814,14.172,11.448l0.317,1.482l1.514,0.095
		c4.203,0.262,7.496,3.763,7.496,7.971c0,4.397-3.565,7.977-7.957,8c-0.05-0.003-0.093-0.005-0.137-0.007l-2.043,0.007h-4.863v2
		h6.863v-0.007c0.046,0.001,0.091,0.007,0.137,0.007c5.521,0,10-4.477,10-10C-258.049,297.64-262.193,293.309-267.421,292.983z"/>
</g>
<g>
	<polygon points="-377.064,309.142 -375.65,307.728 -382.317,301.06 -388.985,307.728 -387.571,309.142 -383.317,304.888 
		-383.317,317.474 -381.317,317.474 -381.317,304.888 	"/>
	<path d="M-365.689,294.579c-1.596-7.445-8.207-13.029-16.127-13.029c-6.423,0-11.977,3.678-14.702,9.035
		c-0.266-0.018-0.53-0.04-0.8-0.04c-6.627,0-11.999,5.372-11.999,12c0,6.607,5.34,11.965,11.938,11.998v0.003h10.062v-2h-9.604
		l-0.447-0.003c-5.485-0.027-9.948-4.513-9.948-9.998c0-5.514,4.485-10,9.999-10c0.175,0,0.347,0.014,0.52,0.025l0.148,0.01
		l1.316,0.088l0.598-1.176c2.492-4.899,7.443-7.942,12.92-7.942c6.79,0,12.75,4.814,14.172,11.448l0.317,1.482l1.514,0.095
		c4.203,0.262,7.496,3.763,7.496,7.971c0,4.397-3.565,7.977-7.957,8c-0.05-0.003-0.093-0.005-0.137-0.007l-2.043,0.007h-8.863v2
		h10.863v-0.007c0.046,0.001,0.091,0.007,0.137,0.007c5.521,0,10-4.477,10-10C-356.317,299.235-360.462,294.904-365.689,294.579z"/>
</g>
<g>
	<path d="M-163.2,105.063c-1.596-7.445-8.207-13.029-16.127-13.029c-6.423,0-11.977,3.678-14.702,9.035
		c-0.266-0.018-0.53-0.04-0.8-0.04c-6.627,0-11.999,5.372-11.999,12c0,6.607,5.34,11.965,11.938,11.998v0.003h2.062v-2h-1.604
		l-0.447-0.003c-5.485-0.027-9.948-4.513-9.948-9.998c0-5.514,4.485-10,9.999-10c0.175,0,0.347,0.014,0.52,0.025l0.148,0.01
		l1.316,0.088l0.598-1.176c2.492-4.899,7.443-7.942,12.92-7.942c6.79,0,12.75,4.814,14.172,11.448l0.317,1.482l1.514,0.095
		c4.203,0.262,7.496,3.763,7.496,7.971c0,4.397-3.565,7.977-7.957,8c-0.05-0.003-0.093-0.005-0.137-0.007l-2.043,0.007h-0.863v2
		h2.863v-0.007c0.046,0.001,0.091,0.007,0.137,0.007c5.521,0,10-4.477,10-10C-153.828,109.72-157.973,105.389-163.2,105.063z"/>
	<polygon points="-184.828,124.052 -184.828,121.422 -182.655,122.645 -181.97,121.424 -184.439,120.034 -181.97,118.645 
		-182.655,117.424 -184.828,118.646 -184.828,116.052 -186.828,116.052 -186.828,118.69 -189.079,117.424 -189.765,118.645 
		-187.295,120.034 -189.765,121.424 -189.079,122.645 -186.828,121.378 -186.828,124.052 	"/>
	<polygon points="-179.666,128.406 -181.839,129.629 -181.839,127.034 -183.839,127.034 -183.839,129.673 -186.09,128.406 
		-186.775,129.627 -184.306,131.017 -186.775,132.406 -186.09,133.627 -183.839,132.36 -183.839,135.034 -181.839,135.034 
		-181.839,132.404 -179.666,133.627 -178.98,132.406 -181.45,131.017 -178.98,129.627 	"/>
	<polygon points="-170.65,121.424 -172.823,122.646 -172.823,120.052 -174.823,120.052 -174.823,122.69 -177.074,121.424 
		-177.76,122.645 -175.29,124.034 -177.76,125.424 -177.074,126.645 -174.823,125.378 -174.823,128.052 -172.823,128.052 
		-172.823,125.422 -170.65,126.645 -169.965,125.424 -172.435,124.034 -169.965,122.645 	"/>
</g>
<g>
	<rect x="-87.688" y="87.012" width="2" height="7.973"/>
	<rect x="-106.688" y="105.926" width="7.973" height="2"/>
	<rect x="-102.015" y="94.659" transform="matrix(0.7071 0.7071 -0.7071 0.7071 38.9294 97.3344)" width="7.974" height="2"/>
	<rect x="-76.507" y="91.677" transform="matrix(0.7071 0.7071 -0.7071 0.7071 45.5286 81.4105)" width="2" height="7.972"/>
	<path d="M-57.177,112.802c-1.444-6.742-7.433-11.8-14.605-11.8c-2.185,0-4.258,0.471-6.127,1.314
		c-1.666-3.203-5.006-5.395-8.865-5.395c-5.522,0-10,4.477-10,9.999c0,2.46,0.899,4.702,2.373,6.442
		c-1.428,1.84-2.287,4.144-2.287,6.653c0,5.983,4.836,10.836,10.813,10.865v0.003h1.188v-2h-0.721l-0.457-0.003
		c-4.864-0.023-8.822-4.001-8.822-8.865c0-4.89,3.978-8.868,8.867-8.868c0.15,0,0.299,0.012,0.447,0.022l0.148,0.01l1.314,0.085
		l0.597-1.175c2.225-4.372,6.644-7.089,11.532-7.089c6.062,0,11.382,4.298,12.649,10.219l0.318,1.483l1.514,0.094
		c3.708,0.23,6.612,3.319,6.612,7.03c0,3.878-3.144,7.035-7.017,7.057c-0.042-0.003-0.079-0.005-0.117-0.005l-1.866,0.005v2h1.819
		v-0.006c0.042,0.001,0.082,0.006,0.124,0.006c5.001,0,9.057-4.054,9.057-9.057C-48.688,117.019-52.442,113.097-57.177,112.802z
		 M-85.097,109.185c-0.241-0.016-0.48-0.036-0.725-0.036c-2.766,0-5.282,1.041-7.2,2.742c-1.092-1.365-1.753-3.089-1.753-4.97
		c0-4.41,3.589-7.999,8-7.999c3.092,0,5.76,1.773,7.091,4.346C-81.981,104.707-83.86,106.755-85.097,109.185z"/>
	<polygon points="-77.696,129.904 -77.696,127.274 -75.523,128.497 -74.838,127.276 -77.308,125.887 -74.838,124.497 
		-75.523,123.276 -77.696,124.499 -77.696,121.904 -79.696,121.904 -79.696,124.543 -81.947,123.276 -82.633,124.497 
		-80.163,125.887 -82.633,127.276 -81.947,128.497 -79.696,127.23 -79.696,129.904 	"/>
	<polygon points="-72.534,134.259 -74.707,135.481 -74.707,132.887 -76.707,132.887 -76.707,135.525 -78.958,134.259 
		-79.644,135.479 -77.174,136.869 -79.644,138.259 -78.958,139.479 -76.707,138.213 -76.707,140.887 -74.707,140.887 
		-74.707,138.257 -72.534,139.479 -71.849,138.259 -74.318,136.869 -71.849,135.479 	"/>
	<polygon points="-63.519,127.276 -65.691,128.499 -65.691,125.904 -67.691,125.904 -67.691,128.543 -69.942,127.276 
		-70.628,128.497 -68.158,129.887 -70.628,131.276 -69.942,132.497 -67.691,131.23 -67.691,133.904 -65.691,133.904 
		-65.691,131.274 -63.519,132.497 -62.833,131.276 -65.303,129.887 -62.833,128.497 	"/>
</g>
<g>
	<path d="M43.012,109.799c-1.444-6.742-7.433-11.8-14.605-11.8c-1.799,0-3.522,0.32-5.118,0.904
		c-0.949-5.108-5.404-8.98-10.788-8.98c-0.413,0-0.819,0.027-1.222,0.071c0.744,1.112,1.179,2.448,1.179,3.886c0,3.865-3.134,7-7,7
		c-1.438,0-2.773-0.435-3.886-1.179c-0.044,0.401-0.071,0.809-0.071,1.222c0,3.713,1.845,6.987,4.661,8.979
		c-1.653,1.907-2.661,4.389-2.661,7.111c0,5.983,4.836,10.836,10.813,10.865v0.003H15.5v-2h-0.721l-0.457-0.003
		c-4.864-0.023-8.822-4.001-8.822-8.865c0-4.89,3.978-8.868,8.867-8.868c0.15,0,0.299,0.012,0.447,0.022l0.148,0.01l1.314,0.085
		l0.597-1.175c2.225-4.372,6.644-7.089,11.532-7.089c6.062,0,11.382,4.298,12.649,10.219l0.318,1.483l1.514,0.094
		c3.708,0.23,6.612,3.319,6.612,7.03c0,3.878-3.144,7.035-7.017,7.057c-0.042-0.003-0.079-0.005-0.117-0.005l-1.866,0.005v2h1.819
		v-0.006c0.042,0.001,0.082,0.006,0.124,0.006c5.001,0,9.057-4.054,9.057-9.057C51.5,114.016,47.746,110.094,43.012,109.799z
		 M15.092,106.182c-0.241-0.016-0.48-0.036-0.725-0.036c-2.537,0-4.865,0.877-6.715,2.334c-2.012-1.294-3.486-3.354-3.976-5.776
		c0.582,0.117,1.178,0.177,1.78,0.177c4.963,0,9-4.037,9-9c0-0.603-0.06-1.198-0.177-1.78c3.733,0.753,6.629,3.824,7.134,7.64
		C18.701,101.184,16.486,103.438,15.092,106.182z"/>
	<polygon points="22.537,126.901 22.537,124.271 24.71,125.494 25.396,124.273 22.926,122.884 25.396,121.494 24.71,120.273 
		22.537,121.496 22.537,118.901 20.537,118.901 20.537,121.54 18.286,120.273 17.601,121.494 20.07,122.884 17.601,124.273 
		18.286,125.494 20.537,124.228 20.537,126.901 	"/>
	<polygon points="27.699,131.256 25.526,132.479 25.526,129.884 23.526,129.884 23.526,132.522 21.275,131.256 20.59,132.477 
		23.06,133.866 20.59,135.256 21.275,136.477 23.526,135.21 23.526,137.884 25.526,137.884 25.526,135.254 27.699,136.477 
		28.385,135.256 25.915,133.866 28.385,132.477 	"/>
	<polygon points="36.715,124.273 34.542,125.496 34.542,122.901 32.542,122.901 32.542,125.54 30.291,124.273 29.605,125.494 
		32.075,126.884 29.605,128.273 30.291,129.494 32.542,128.228 32.542,130.901 34.542,130.901 34.542,128.271 36.715,129.494 
		37.4,128.273 34.931,126.884 37.4,125.494 	"/>
</g>
<rect x="-573.347" y="-457.951" fill="none" width="472.974" height="180.918"/>
<text transform="matrix(1 0 0 1 -393.7095 -386.5522)"><tspan x="0" y="0" font-family="'HelveticaNeueLTStd-Th'" font-size="100" letter-spacing="2">60</tspan><tspan x="-99.268" y="60" font-family="'HelveticaNeueLTStd-Lt'" font-size="48" letter-spacing="1">Weather Icons</tspan><tspan x="-3.726" y="104" font-family="'HelveticaNeueLTStd-Lt'" font-size="24">IOS 7 Style</tspan></text>
</svg>
