<?xml version="1.0" encoding="utf-8"?>
<!-- Generator: Adobe Illustrator 16.0.0, SVG Export Plug-In . SVG Version: 6.00 Build 0)  -->
<!DOCTYPE svg PUBLIC "-//W3C//DTD SVG 1.1//EN" "http://www.w3.org/Graphics/SVG/1.1/DTD/svg11.dtd">
<svg version="1.1" id="Layer_1" xmlns="http://www.w3.org/2000/svg" xmlns:xlink="http://www.w3.org/1999/xlink" x="0px" y="0px"
	 width="58px" height="59.86px" viewBox="0 0 58 59.86" enable-background="new 0 0 58 59.86" xml:space="preserve">
<path d="M650.871,196.571l-1.803,15.077l-0.268,2.237h2.254h6.896l-14.693,18.759l1.789-14.52l0.277-2.245h-2.262h-6.957
	L650.871,196.571 M653.726,189.547l-21.667,28.333h11.004l-2.671,21.667l21.667-27.661h-11.004L653.726,189.547L653.726,189.547z"/>
<path d="M237.836-265.689c6.79,0,12.749,4.814,14.171,11.448l0.318,1.483l1.514,0.094c4.203,0.262,7.496,3.763,7.496,7.971
	c0,4.396-3.565,7.977-7.957,8c-0.046-0.003-0.091-0.006-0.137-0.007l-2.043-0.036v0.043h-28.337l-0.578-0.003
	c-5.485-0.027-9.948-4.513-9.948-9.998c0-5.514,4.485-10,9.999-10c0.175,0,0.347,0.014,0.519,0.025l0.149,0.011l1.316,0.087
	l0.598-1.176C227.409-262.646,232.359-265.689,237.836-265.689 M237.836-267.689c-6.423,0-11.977,3.678-14.702,9.035
	c-0.266-0.018-0.53-0.04-0.8-0.04c-6.627,0-11.999,5.372-11.999,12c0,6.607,5.34,11.965,11.938,11.998v0.003h30.925v-0.007
	c0.046,0.001,0.091,0.007,0.137,0.007c5.521,0,10-4.477,10-10c0-5.311-4.145-9.642-9.372-9.967
	C252.367-262.105,245.756-267.689,237.836-267.689L237.836-267.689z"/>
<g>
	<path d="M360.787-247.278c-1.444-6.742-7.433-11.8-14.605-11.8c-2.185,0-4.258,0.47-6.127,1.313
		c-1.666-3.202-5.006-5.394-8.865-5.394c-5.522,0-10,4.477-10,9.999c0,2.46,0.898,4.702,2.373,6.442
		c-1.428,1.84-2.287,4.144-2.287,6.653c0,5.983,4.836,10.836,10.813,10.865v0.003h28.007v-0.006
		c0.042,0.001,0.082,0.006,0.124,0.006c5.001,0,9.057-4.054,9.057-9.057C369.275-243.062,365.521-246.983,360.787-247.278z
		 M331.189-261.158c3.092,0,5.76,1.773,7.092,4.345c-2.299,1.44-4.178,3.488-5.414,5.918c-0.241-0.016-0.48-0.036-0.725-0.036
		c-2.766,0-5.281,1.041-7.2,2.743c-1.092-1.366-1.753-3.09-1.753-4.971C323.189-257.569,326.778-261.158,331.189-261.158z
		 M360.259-231.195c-0.038-0.003-0.077-0.004-0.117-0.005l-2.047-0.042v0.047h-25.403l-0.594-0.003
		c-4.864-0.023-8.822-4.001-8.822-8.865c0-4.89,3.978-8.868,8.867-8.868c0.15,0,0.299,0.012,0.447,0.021l0.148,0.011l1.314,0.085
		l0.598-1.174c2.224-4.373,6.643-7.09,11.531-7.09c6.062,0,11.381,4.298,12.65,10.219l0.317,1.482l1.514,0.095
		c3.708,0.231,6.612,3.319,6.612,7.03C367.275-234.374,364.132-231.218,360.259-231.195z"/>
	<rect x="330.195" y="-273.188" width="2" height="7.973"/>
	<rect x="311.223" y="-254.202" width="7.973" height="2"/>
	<rect x="315.948" y="-265.421" transform="matrix(0.7071 0.7071 -0.7071 0.7071 -93.2668 -303.6757)" width="7.974" height="2"/>
	<rect x="341.457" y="-268.403" transform="matrix(0.7071 0.7071 -0.7071 0.7071 -86.6677 -319.5996)" width="2" height="7.972"/>
</g>
<path d="M456.53-251.306c-1.444-6.742-7.433-11.8-14.605-11.8c-1.799,0-3.521,0.32-5.118,0.904c-0.949-5.108-5.404-8.98-10.788-8.98
	c-0.413,0-0.819,0.027-1.222,0.071c0.744,1.112,1.179,2.448,1.179,3.886c0,3.865-3.134,7-7,7c-1.438,0-2.773-0.435-3.886-1.179
	c-0.044,0.401-0.071,0.809-0.071,1.222c0,3.712,1.845,6.987,4.661,8.979c-1.653,1.907-2.661,4.389-2.661,7.111
	c0,5.983,4.836,10.836,10.813,10.865v0.003h28.007v-0.006c0.042,0.001,0.082,0.006,0.124,0.006c5.001,0,9.057-4.054,9.057-9.057
	C465.019-247.089,461.265-251.011,456.53-251.306z M417.195-258.401c0.582,0.117,1.178,0.177,1.78,0.177c4.963,0,9-4.037,9-9
	c0-0.603-0.06-1.198-0.177-1.78c3.733,0.753,6.629,3.824,7.134,7.64c-2.713,1.444-4.928,3.699-6.322,6.442
	c-0.241-0.016-0.48-0.036-0.725-0.036c-2.537,0-4.865,0.876-6.715,2.334C419.159-253.919,417.685-255.979,417.195-258.401z
	 M456.002-235.223c-0.038-0.003-0.077-0.004-0.117-0.005l-2.047-0.042v0.047h-25.403l-0.594-0.003
	c-4.864-0.023-8.822-4.001-8.822-8.865c0-4.89,3.978-8.868,8.867-8.868c0.15,0,0.299,0.012,0.447,0.021l0.148,0.011l1.314,0.085
	l0.598-1.174c2.224-4.373,6.643-7.09,11.531-7.09c6.062,0,11.381,4.298,12.65,10.219l0.317,1.482l1.514,0.095
	c3.708,0.231,6.612,3.319,6.612,7.03C463.019-238.401,459.875-235.245,456.002-235.223z"/>
<g>
	<rect x="541.176" y="-242.683" width="2" height="7"/>
	<rect x="549.176" y="-246.683" width="2" height="7"/>
	<rect x="533.176" y="-246.683" width="2" height="7"/>
	<rect x="541.176" y="-232.683" width="2" height="7"/>
	<rect x="549.176" y="-236.683" width="2" height="7"/>
	<rect x="533.176" y="-236.683" width="2" height="7"/>
	<path d="M559.804-259.671c-1.596-7.445-8.207-13.029-16.127-13.029c-6.423,0-11.977,3.678-14.702,9.035
		c-0.266-0.018-0.53-0.04-0.8-0.04c-6.627,0-11.999,5.372-11.999,12c0,6.607,5.34,11.965,11.938,11.998v0.003h2.062v-2h-1.604
		l-0.447-0.003c-5.485-0.027-9.948-4.513-9.948-9.998c0-5.514,4.485-10,9.999-10c0.175,0,0.347,0.014,0.52,0.025l0.148,0.01
		l1.316,0.088l0.598-1.176c2.492-4.899,7.443-7.942,12.92-7.942c6.79,0,12.75,4.814,14.172,11.448l0.317,1.482l1.514,0.095
		c4.203,0.262,7.496,3.763,7.496,7.971c0,4.397-3.565,7.977-7.957,8c-0.05-0.003-0.093-0.005-0.137-0.007l-2.043,0.007h-2.863v2
		h4.863v-0.007c0.046,0.001,0.091,0.007,0.137,0.007c5.521,0,10-4.477,10-10C569.176-255.015,565.031-259.346,559.804-259.671z"/>
</g>
<g>
	<path d="M357.377-170.313c-1.596-7.445-8.207-13.029-16.127-13.029c-6.423,0-11.977,3.678-14.702,9.035
		c-0.266-0.018-0.53-0.04-0.8-0.04c-6.627,0-11.999,5.372-11.999,12c0,6.607,5.34,11.965,11.938,11.998v0.003h2.062v-2h-1.604
		l-0.447-0.003c-5.485-0.027-9.948-4.513-9.948-9.998c0-5.514,4.485-10,9.999-10c0.175,0,0.347,0.014,0.52,0.025l0.148,0.01
		l1.316,0.088l0.598-1.176c2.492-4.899,7.443-7.942,12.92-7.942c6.79,0,12.75,4.814,14.172,11.448l0.317,1.482l1.514,0.095
		c4.203,0.262,7.496,3.763,7.496,7.971c0,4.397-3.565,7.977-7.957,8c-0.05-0.003-0.093-0.005-0.137-0.007l-2.043,0.007h-2.863v2
		h4.863v-0.007c0.046,0.001,0.091,0.007,0.137,0.007c5.521,0,10-4.477,10-10C366.749-165.657,362.604-169.988,357.377-170.313z"/>
	<polygon points="338.749,-143.318 338.749,-141.378 338.749,-135.318 340.749,-135.318 340.749,-141.378 340.749,-143.318 
		340.749,-155.318 338.749,-155.318 	"/>
	<polygon points="346.749,-147.318 346.749,-145.565 346.749,-139.318 348.749,-139.318 348.749,-145.565 348.749,-147.318 
		348.749,-159.318 346.749,-159.318 	"/>
	<polygon points="330.749,-147.318 330.749,-145.253 330.749,-139.318 332.749,-139.318 332.749,-145.253 332.749,-147.318 
		332.749,-159.318 330.749,-159.318 	"/>
</g>
<g>
	<polygon points="653.026,-146.407 646.144,-156.237 644.506,-155.09 651.389,-145.26 652.501,-143.671 655.977,-138.707 
		657.615,-139.854 654.14,-144.818 	"/>
	<polygon points="661.028,-146.409 654.144,-156.237 652.506,-155.089 659.392,-145.261 660.396,-143.825 663.98,-138.71 
		665.619,-139.856 662.035,-144.973 	"/>
	<polygon points="645.026,-146.407 638.144,-156.237 636.506,-155.089 643.389,-145.26 644.573,-143.567 647.978,-138.706 
		649.615,-139.854 646.212,-144.715 	"/>
	<path d="M664.134-170.047c-1.596-7.445-8.207-13.029-16.127-13.029c-6.423,0-11.977,3.678-14.702,9.035
		c-0.266-0.018-0.53-0.04-0.8-0.04c-6.627,0-11.999,5.372-11.999,12c0,6.607,5.34,11.965,11.938,11.998v0.003h2.062v-2h-1.604
		l-0.447-0.003c-5.485-0.027-9.948-4.513-9.948-9.998c0-5.514,4.485-10,9.999-10c0.175,0,0.347,0.014,0.52,0.025l0.148,0.01
		l1.316,0.088l0.598-1.176c2.492-4.899,7.443-7.942,12.92-7.942c6.79,0,12.75,4.814,14.172,11.448l0.317,1.482l1.514,0.095
		c4.203,0.262,7.496,3.763,7.496,7.971c0,4.397-3.565,7.977-7.957,8c-0.05-0.003-0.093-0.005-0.137-0.007l-1.043,0.007h0.137v2
		h0.863v-0.007c0.046,0.001,0.091,0.007,0.137,0.007c5.521,0,10-4.477,10-10C673.506-165.391,669.361-169.722,664.134-170.047z"/>
</g>
<g>
	<rect x="635.832" y="-279.129" width="2" height="7.973"/>
	<rect x="616.832" y="-260.215" width="7.973" height="2"/>
	<rect x="621.505" y="-271.481" transform="matrix(0.7071 0.7071 -0.7071 0.7071 -8.0568 -521.512)" width="7.974" height="2"/>
	<rect x="647.014" y="-274.463" transform="matrix(0.7071 0.7071 -0.7071 0.7071 -1.4576 -537.4359)" width="2" height="7.972"/>
	<rect x="649.832" y="-238.256" width="2" height="7"/>
	<rect x="657.832" y="-242.256" width="2" height="7"/>
	<rect x="641.832" y="-242.256" width="2" height="7"/>
	<rect x="649.832" y="-228.256" width="2" height="7"/>
	<rect x="657.832" y="-232.256" width="2" height="7"/>
	<rect x="641.832" y="-232.256" width="2" height="7"/>
	<path d="M666.344-253.339c-1.444-6.742-7.433-11.8-14.605-11.8c-2.185,0-4.258,0.47-6.126,1.313
		c-1.667-3.202-5.007-5.394-8.866-5.394c-5.522,0-10,4.477-10,9.999c0,2.46,0.899,4.702,2.373,6.442
		c-1.429,1.84-2.287,4.144-2.287,6.653c0,5.983,4.836,10.836,10.813,10.865v0.003h1.188v-2h-0.721l-0.457-0.003
		c-4.864-0.023-8.822-4.001-8.822-8.865c0-4.89,3.978-8.868,8.867-8.868c0.15,0,0.299,0.012,0.447,0.022l0.148,0.01l1.314,0.085
		l0.597-1.175c2.225-4.372,6.644-7.089,11.532-7.089c6.062,0,11.382,4.298,12.649,10.219l0.318,1.483l1.514,0.094
		c3.708,0.23,6.612,3.319,6.612,7.03c0,3.878-3.144,7.035-7.017,7.057c-0.042-0.003-0.079-0.005-0.117-0.005l-2.047,0.005h-0.819v2
		h2.819v-0.006c0.042,0.001,0.082,0.006,0.124,0.006c5.001,0,9.057-4.054,9.057-9.057
		C674.832-249.122,671.078-253.044,666.344-253.339z M638.424-256.956c-0.241-0.016-0.48-0.036-0.725-0.036
		c-2.766,0-5.282,1.041-7.2,2.743c-1.092-1.366-1.753-3.09-1.753-4.971c0-4.41,3.589-7.999,8-7.999c3.091,0,5.76,1.773,7.091,4.345
		C641.539-261.434,639.659-259.386,638.424-256.956z"/>
</g>
<g>
	<rect x="750.249" y="-239.703" width="2" height="7"/>
	<rect x="758.249" y="-243.703" width="2" height="7"/>
	<rect x="742.249" y="-243.703" width="2" height="7"/>
	<rect x="750.249" y="-229.703" width="2" height="7"/>
	<rect x="758.249" y="-233.703" width="2" height="7"/>
	<rect x="742.249" y="-233.703" width="2" height="7"/>
	<path d="M766.761-254.786c-1.444-6.742-7.433-11.8-14.605-11.8c-1.799,0-3.522,0.32-5.118,0.904
		c-0.949-5.108-5.404-8.98-10.788-8.98c-0.413,0-0.819,0.027-1.222,0.071c0.744,1.112,1.179,2.448,1.179,3.886c0,3.865-3.134,7-7,7
		c-1.438,0-2.773-0.435-3.886-1.179c-0.044,0.401-0.071,0.809-0.071,1.222c0,3.712,1.845,6.987,4.661,8.979
		c-1.653,1.907-2.661,4.389-2.661,7.111c0,5.983,4.836,10.836,10.813,10.865v0.003h1.188v-2h-0.721l-0.457-0.003
		c-4.864-0.023-8.822-4.001-8.822-8.865c0-4.89,3.978-8.868,8.867-8.868c0.15,0,0.299,0.012,0.447,0.022l0.148,0.01l1.314,0.085
		l0.597-1.175c2.225-4.372,6.644-7.089,11.532-7.089c6.062,0,11.382,4.298,12.649,10.219l0.318,1.483l1.514,0.094
		c3.708,0.23,6.612,3.319,6.612,7.03c0,3.878-3.144,7.035-7.017,7.057c-0.042-0.003-0.079-0.005-0.117-0.005l-2.047,0.005h-0.819v2
		h2.819v-0.006c0.042,0.001,0.082,0.006,0.124,0.006c5.001,0,9.057-4.054,9.057-9.057
		C775.249-250.569,771.495-254.491,766.761-254.786z M738.841-258.403c-0.241-0.016-0.48-0.036-0.725-0.036
		c-2.537,0-4.865,0.876-6.715,2.334c-2.012-1.294-3.487-3.354-3.976-5.776c0.582,0.117,1.178,0.177,1.78,0.177c4.963,0,9-4.037,9-9
		c0-0.603-0.06-1.198-0.177-1.78c3.733,0.753,6.629,3.824,7.133,7.64C742.451-263.401,740.236-261.146,738.841-258.403z"/>
</g>
<g>
	<polygon points="443.019,-138.88 443.019,-136.939 443.019,-130.88 445.019,-130.88 445.019,-136.939 445.019,-138.88 
		445.019,-150.88 443.019,-150.88 	"/>
	<polygon points="451.019,-142.88 451.019,-141.127 451.019,-134.88 453.019,-134.88 453.019,-141.127 453.019,-142.88 
		453.019,-154.88 451.019,-154.88 	"/>
	<polygon points="435.019,-142.88 435.019,-140.814 435.019,-134.88 437.019,-134.88 437.019,-140.814 437.019,-142.88 
		437.019,-154.88 435.019,-154.88 	"/>
	<rect x="429.019" y="-189.782" width="2" height="7.973"/>
	<rect x="410.019" y="-170.868" width="7.973" height="2"/>
	<rect x="414.692" y="-182.135" transform="matrix(0.7071 0.7071 -0.7071 0.7071 -5.4534 -349.1037)" width="7.974" height="2"/>
	<rect x="440.2" y="-185.117" transform="matrix(0.7071 0.7071 -0.7071 0.7071 1.1457 -365.0276)" width="2" height="7.972"/>
	<path d="M459.53-163.992c-1.444-6.742-7.433-11.8-14.605-11.8c-2.185,0-4.258,0.47-6.127,1.313
		c-1.666-3.202-5.006-5.394-8.865-5.394c-5.522,0-10,4.477-10,9.999c0,2.46,0.898,4.702,2.373,6.442
		c-1.428,1.84-2.287,4.144-2.287,6.653c0,5.983,4.836,10.836,10.813,10.865v0.003h1.188v-2h-0.721l-0.457-0.003
		c-4.864-0.023-8.822-4.001-8.822-8.865c0-4.89,3.978-8.868,8.867-8.868c0.15,0,0.299,0.012,0.447,0.022l0.148,0.01l1.314,0.085
		l0.597-1.175c2.225-4.372,6.644-7.089,11.532-7.089c6.062,0,11.382,4.298,12.649,10.219l0.318,1.483l1.514,0.094
		c3.708,0.23,6.612,3.319,6.612,7.03c0,3.878-3.144,7.035-7.017,7.057c-0.042-0.003-0.079-0.005-0.117-0.005l-2.047,0.005h-0.819v2
		h2.819v-0.006c0.042,0.001,0.082,0.006,0.124,0.006c5.001,0,9.057-4.054,9.057-9.057
		C468.019-159.775,464.265-163.697,459.53-163.992z M431.61-167.609c-0.241-0.016-0.48-0.036-0.725-0.036
		c-2.766,0-5.281,1.042-7.2,2.743c-1.092-1.367-1.753-3.09-1.753-4.971c0-4.41,3.589-7.999,8-7.999c3.092,0,5.76,1.773,7.092,4.345
		C434.726-172.088,432.847-170.039,431.61-167.609z"/>
</g>
<g>
	<polygon points="543.416,-141.396 543.416,-139.456 543.416,-133.396 545.416,-133.396 545.416,-139.456 545.416,-141.396 
		545.416,-153.396 543.416,-153.396 	"/>
	<polygon points="551.416,-145.396 551.416,-143.644 551.416,-137.396 553.416,-137.396 553.416,-143.644 553.416,-145.396 
		553.416,-157.396 551.416,-157.396 	"/>
	<polygon points="535.416,-145.396 535.416,-143.331 535.416,-137.396 537.416,-137.396 537.416,-143.331 537.416,-145.396 
		537.416,-157.396 535.416,-157.396 	"/>
	<path d="M559.928-166.509c-1.444-6.742-7.433-11.8-14.605-11.8c-1.799,0-3.521,0.32-5.118,0.904
		c-0.949-5.108-5.404-8.98-10.788-8.98c-0.413,0-0.819,0.027-1.222,0.071c0.744,1.112,1.179,2.448,1.179,3.886c0,3.865-3.134,7-7,7
		c-1.438,0-2.773-0.435-3.886-1.179c-0.044,0.401-0.071,0.809-0.071,1.222c0,3.712,1.845,6.987,4.661,8.979
		c-1.653,1.907-2.661,4.389-2.661,7.111c0,5.983,4.836,10.836,10.813,10.865v0.003h1.188v-2h-0.721l-0.457-0.003
		c-4.864-0.023-8.822-4.001-8.822-8.865c0-4.89,3.978-8.868,8.867-8.868c0.15,0,0.299,0.012,0.447,0.022l0.148,0.01l1.314,0.085
		l0.597-1.175c2.225-4.372,6.644-7.089,11.532-7.089c6.062,0,11.382,4.298,12.649,10.219l0.318,1.483l1.514,0.094
		c3.708,0.23,6.612,3.319,6.612,7.03c0,3.878-3.144,7.035-7.017,7.057c-0.042-0.003-0.079-0.005-0.117-0.005l-2.047,0.005h-0.819v2
		h2.819v-0.006c0.042,0.001,0.082,0.006,0.124,0.006c5.001,0,9.057-4.054,9.057-9.057
		C568.416-162.292,564.662-166.214,559.928-166.509z M532.008-170.126c-0.241-0.016-0.48-0.036-0.725-0.036
		c-2.537,0-4.865,0.876-6.715,2.334c-2.012-1.294-3.486-3.354-3.976-5.776c0.582,0.117,1.178,0.177,1.78,0.177c4.963,0,9-4.037,9-9
		c0-0.603-0.06-1.198-0.177-1.78c3.733,0.753,6.629,3.824,7.134,7.641C535.617-175.124,533.402-172.868,532.008-170.126z"/>
</g>
<g>
	<polygon points="760.451,-140.452 753.568,-150.282 751.931,-149.135 758.813,-139.305 759.926,-137.716 763.401,-132.752 
		765.04,-133.898 761.564,-138.863 	"/>
	<polygon points="768.453,-140.454 761.568,-150.282 759.931,-149.134 766.816,-139.306 767.821,-137.87 771.405,-132.755 
		773.044,-133.901 769.46,-139.018 	"/>
	<polygon points="752.451,-140.452 745.568,-150.282 743.931,-149.134 750.813,-139.305 751.998,-137.612 755.402,-132.751 
		757.04,-133.898 753.637,-138.76 	"/>
	<rect x="739.931" y="-188.001" width="2" height="7.973"/>
	<rect x="720.931" y="-169.087" width="7.973" height="2"/>
	<rect x="725.604" y="-180.353" transform="matrix(0.7071 0.7071 -0.7071 0.7071 86.8701 -568.4301)" width="7.974" height="2"/>
	<rect x="751.112" y="-183.335" transform="matrix(0.7071 0.7071 -0.7071 0.7071 93.4692 -584.354)" width="2" height="7.972"/>
	<path d="M770.442-162.211c-1.444-6.742-7.433-11.8-14.605-11.8c-2.185,0-4.258,0.47-6.126,1.313
		c-1.667-3.202-5.007-5.394-8.866-5.394c-5.522,0-10,4.477-10,9.999c0,2.46,0.899,4.702,2.373,6.442
		c-1.429,1.84-2.287,4.144-2.287,6.653c0,5.983,4.836,10.836,10.813,10.865v0.003h1.188v-2h-0.721l-0.457-0.003
		c-4.864-0.023-8.822-4.001-8.822-8.865c0-4.89,3.978-8.868,8.867-8.868c0.15,0,0.299,0.012,0.447,0.022l0.148,0.01l1.314,0.085
		l0.597-1.175c2.225-4.372,6.644-7.089,11.532-7.089c6.062,0,11.382,4.298,12.649,10.219l0.318,1.483l1.514,0.094
		c3.708,0.23,6.612,3.319,6.612,7.03c0,3.878-3.144,7.035-7.017,7.057c-0.042-0.003-0.079-0.005-0.117-0.005l-0.047,0.005h-0.819v2
		h0.819v-0.006c0.042,0.001,0.082,0.006,0.124,0.006c5.001,0,9.057-4.054,9.057-9.057
		C778.931-157.994,775.177-161.916,770.442-162.211z M742.522-165.828c-0.241-0.016-0.48-0.036-0.725-0.036
		c-2.766,0-5.282,1.042-7.2,2.743c-1.092-1.367-1.753-3.09-1.753-4.971c0-4.41,3.589-7.999,8-7.999c3.091,0,5.76,1.773,7.091,4.345
		C745.638-170.307,743.758-168.258,742.522-165.828z"/>
</g>
<g>
	<polygon points="37.021,-43.967 30.138,-53.797 28.5,-52.649 35.383,-42.819 36.495,-41.23 39.971,-36.267 41.609,-37.413 
		38.134,-42.378 	"/>
	<polygon points="45.022,-43.969 38.138,-53.797 36.5,-52.648 43.386,-42.82 44.391,-41.385 47.975,-36.27 49.613,-37.416 
		46.029,-42.532 	"/>
	<polygon points="29.021,-43.967 22.138,-53.797 20.5,-52.648 27.383,-42.819 28.567,-41.127 31.972,-36.266 33.609,-37.413 
		30.206,-42.274 	"/>
	<path d="M47.012-65.726c-1.444-6.742-7.433-11.8-14.605-11.8c-1.799,0-3.522,0.32-5.118,0.904c-0.949-5.108-5.404-8.98-10.788-8.98
		c-0.413,0-0.819,0.027-1.222,0.071c0.744,1.112,1.179,2.448,1.179,3.886c0,3.865-3.134,7-7,7c-1.438,0-2.773-0.435-3.886-1.179
		C5.527-75.422,5.5-75.015,5.5-74.602c0,3.712,1.845,6.987,4.661,8.979C8.508-63.715,7.5-61.233,7.5-58.511
		c0,5.983,4.836,10.836,10.813,10.865v0.003H19.5v-2h-0.721l-0.457-0.003C13.458-49.669,9.5-53.646,9.5-58.511
		c0-4.89,3.978-8.868,8.867-8.868c0.15,0,0.299,0.012,0.447,0.022l0.148,0.01l1.314,0.085l0.597-1.175
		c2.225-4.372,6.644-7.089,11.532-7.089c6.062,0,11.382,4.298,12.649,10.219l0.318,1.483l1.514,0.094
		c3.708,0.23,6.612,3.319,6.612,7.03c0,3.878-3.144,7.035-7.017,7.057c-0.042-0.003-0.079-0.005-0.117-0.005l-0.047,0.005H45.5v2
		h0.819v-0.006c0.042,0.001,0.082,0.006,0.124,0.006c5.001,0,9.057-4.054,9.057-9.057C55.5-61.509,51.746-65.431,47.012-65.726z
		 M19.092-69.343c-0.241-0.016-0.48-0.036-0.725-0.036c-2.537,0-4.865,0.876-6.715,2.334c-2.012-1.294-3.487-3.354-3.976-5.776
		c0.582,0.117,1.178,0.177,1.78,0.177c4.963,0,9-4.037,9-9c0-0.603-0.06-1.198-0.177-1.78c3.733,0.753,6.629,3.824,7.133,7.641
		C22.702-74.341,20.487-72.085,19.092-69.343z"/>
</g>
<g>
	<rect x="29.5" y="-147.813" width="2" height="4"/>
	<rect x="37.5" y="-151.835" width="2" height="4.021"/>
	<rect x="21.5" y="-151.835" width="2" height="4.021"/>
	<path d="M48.128-167.802c-1.596-7.445-8.207-13.029-16.127-13.029c-6.423,0-11.977,3.678-14.702,9.035
		c-0.266-0.018-0.53-0.04-0.8-0.04c-6.627,0-11.999,5.372-11.999,12c0,6.607,5.34,11.965,11.938,11.998v0.003H18.5v-2h-1.604
		l-0.447-0.003c-5.485-0.027-9.948-4.513-9.948-9.998c0-5.514,4.485-10,9.999-10c0.175,0,0.347,0.014,0.52,0.025l0.148,0.01
		l1.316,0.088l0.598-1.176c2.492-4.899,7.443-7.942,12.92-7.942c6.79,0,12.75,4.814,14.172,11.448l0.317,1.482l1.514,0.095
		c4.203,0.262,7.496,3.763,7.496,7.971c0,4.397-3.565,7.977-7.957,8c-0.05-0.003-0.093-0.005-0.137-0.007l-2.043,0.007H42.5v2h4.863
		v-0.007c0.046,0.001,0.091,0.007,0.137,0.007c5.521,0,10-4.477,10-10C57.5-163.146,53.355-167.477,48.128-167.802z"/>
	<circle cx="38.5" cy="-142.793" r="1.5"/>
	<circle cx="30.5" cy="-138.824" r="1.5"/>
	<circle cx="22.5" cy="-142.835" r="1.5"/>
</g>
<g>
	<rect x="122.421" y="-187.268" width="2" height="7.973"/>
	<rect x="103.421" y="-168.354" width="7.973" height="2"/>
	<rect x="108.094" y="-179.62" transform="matrix(0.7071 0.7071 -0.7071 0.7071 -93.4757 -131.5699)" width="7.974" height="2"/>
	<rect x="133.603" y="-182.602" transform="matrix(0.7071 0.7071 -0.7071 0.7071 -86.8766 -147.4938)" width="2" height="7.972"/>
	<path d="M152.933-161.478c-1.444-6.742-7.433-11.8-14.605-11.8c-2.185,0-4.258,0.47-6.126,1.313
		c-1.667-3.202-5.007-5.394-8.866-5.394c-5.522,0-10,4.477-10,9.999c0,2.46,0.899,4.702,2.373,6.442
		c-1.429,1.84-2.287,4.144-2.287,6.653c0,5.983,4.836,10.836,10.813,10.865v0.003h1.188v-2H124.7l-0.457-0.003
		c-4.864-0.023-8.822-4.001-8.822-8.865c0-4.89,3.978-8.868,8.867-8.868c0.15,0,0.299,0.012,0.447,0.022l0.148,0.01l1.314,0.085
		l0.597-1.175c2.225-4.372,6.644-7.089,11.532-7.089c6.062,0,11.382,4.298,12.649,10.219l0.318,1.483l1.514,0.094
		c3.708,0.23,6.612,3.319,6.612,7.03c0,3.878-3.144,7.035-7.017,7.057c-0.042-0.003-0.079-0.005-0.117-0.005l-2.047,0.005h-0.819v2
		h2.819v-0.006c0.042,0.001,0.082,0.006,0.124,0.006c5.001,0,9.057-4.054,9.057-9.057
		C161.421-157.261,157.667-161.183,152.933-161.478z M125.013-165.095c-0.241-0.016-0.48-0.036-0.725-0.036
		c-2.766,0-5.282,1.042-7.2,2.743c-1.092-1.367-1.753-3.09-1.753-4.971c0-4.41,3.589-7.999,8-7.999c3.091,0,5.76,1.773,7.091,4.345
		C128.128-169.573,126.248-167.524,125.013-165.095z"/>
	<rect x="136.421" y="-143.379" width="2" height="4"/>
	<rect x="144.421" y="-147.4" width="2" height="4.021"/>
	<rect x="128.421" y="-147.4" width="2" height="4.021"/>
	<circle cx="145.421" cy="-138.358" r="1.5"/>
	<circle cx="137.421" cy="-134.39" r="1.5"/>
	<circle cx="129.421" cy="-138.4" r="1.5"/>
</g>
<g>
	<path d="M253.858-162.435c-1.444-6.742-7.433-11.8-14.605-11.8c-1.799,0-3.522,0.32-5.118,0.904
		c-0.949-5.108-5.404-8.98-10.788-8.98c-0.413,0-0.819,0.027-1.222,0.071c0.744,1.112,1.179,2.448,1.179,3.886c0,3.865-3.134,7-7,7
		c-1.438,0-2.773-0.435-3.886-1.179c-0.044,0.401-0.071,0.809-0.071,1.222c0,3.712,1.845,6.987,4.661,8.979
		c-1.653,1.907-2.661,4.389-2.661,7.111c0,5.983,4.836,10.836,10.813,10.865v0.003h1.188v-2h-0.721l-0.457-0.003
		c-4.864-0.023-8.822-4.001-8.822-8.865c0-4.89,3.978-8.868,8.867-8.868c0.15,0,0.299,0.012,0.447,0.022l0.148,0.01l1.314,0.085
		l0.597-1.175c2.225-4.372,6.644-7.089,11.532-7.089c6.062,0,11.382,4.298,12.649,10.219l0.318,1.483l1.514,0.094
		c3.708,0.23,6.612,3.319,6.612,7.03c0,3.878-3.144,7.035-7.017,7.057c-0.042-0.003-0.079-0.005-0.117-0.005l-2.047,0.005h-0.819v2
		h2.819v-0.006c0.042,0.001,0.082,0.006,0.124,0.006c5.001,0,9.057-4.054,9.057-9.057
		C262.347-158.218,258.593-162.14,253.858-162.435z M225.938-166.052c-0.241-0.016-0.48-0.036-0.725-0.036
		c-2.537,0-4.865,0.876-6.715,2.334c-2.012-1.294-3.487-3.354-3.976-5.776c0.582,0.117,1.178,0.177,1.78,0.177c4.963,0,9-4.037,9-9
		c0-0.603-0.06-1.198-0.177-1.78c3.733,0.753,6.629,3.824,7.133,7.641C229.549-171.05,227.334-168.794,225.938-166.052z"/>
	<rect x="237.347" y="-144.336" width="2" height="4"/>
	<rect x="245.347" y="-148.357" width="2" height="4.021"/>
	<rect x="229.347" y="-148.357" width="2" height="4.021"/>
	<circle cx="246.347" cy="-139.315" r="1.5"/>
	<circle cx="238.347" cy="-135.347" r="1.5"/>
	<circle cx="230.347" cy="-139.357" r="1.5"/>
</g>
<g>
	<path d="M150.549-69.404c-1.596-7.445-8.207-13.029-16.127-13.029c-6.423,0-11.977,3.678-14.702,9.035
		c-0.266-0.018-0.53-0.04-0.8-0.04c-6.627,0-11.999,5.372-11.999,12c0,6.607,5.34,11.965,11.938,11.998v0.003h6.062v-2h-5.604
		l-0.447-0.003c-5.485-0.027-9.948-4.513-9.948-9.998c0-5.514,4.485-10,9.999-10c0.175,0,0.347,0.014,0.52,0.025l0.148,0.01
		l1.316,0.088l0.598-1.176c2.492-4.899,7.443-7.942,12.92-7.942c6.79,0,12.75,4.814,14.172,11.448l0.317,1.482l1.514,0.095
		c4.203,0.262,7.496,3.763,7.496,7.971c0,4.397-3.565,7.977-7.957,8c-0.05-0.003-0.093-0.005-0.137-0.007l-5.043,0.007h0.137v2
		h4.863v-0.007c0.046,0.001,0.091,0.007,0.137,0.007c5.521,0,10-4.477,10-10C159.921-64.748,155.776-69.079,150.549-69.404z"/>
	<polygon points="134.763,-49.434 136.532,-49.434 136.963,-49.434 138.973,-49.434 132.559,-58.595 130.921,-57.447 
		135.132,-51.434 133.361,-51.434 130.921,-51.434 132.192,-49.617 133.305,-48.028 139.282,-39.434 140.921,-40.58 
		134.943,-49.176 	"/>
</g>
<g>
	<rect x="226.347" y="-88.534" width="2" height="7.973"/>
	<rect x="207.347" y="-69.62" width="7.973" height="2"/>
	<rect x="212.02" y="-80.887" transform="matrix(0.7071 0.7071 -0.7071 0.7071 6.7785 -176.1382)" width="7.974" height="2"/>
	<rect x="237.528" y="-83.869" transform="matrix(0.7071 0.7071 -0.7071 0.7071 13.3777 -192.0621)" width="2" height="7.972"/>
	<path d="M256.858-62.744c-1.444-6.742-7.433-11.8-14.605-11.8c-2.185,0-4.258,0.47-6.127,1.313
		c-1.666-3.202-5.006-5.394-8.865-5.394c-5.522,0-10,4.477-10,9.999c0,2.46,0.898,4.702,2.373,6.442
		c-1.428,1.84-2.287,4.144-2.287,6.653c0,5.983,4.836,10.836,10.813,10.865v0.003h4.188v-2h-3.721l-0.457-0.003
		c-4.864-0.023-8.822-4.001-8.822-8.865c0-4.89,3.978-8.868,8.867-8.868c0.15,0,0.299,0.012,0.447,0.022l0.148,0.01l1.314,0.085
		l0.597-1.175c2.225-4.372,6.644-7.089,11.532-7.089c6.062,0,11.382,4.298,12.649,10.219l0.318,1.483l1.514,0.094
		c3.708,0.23,6.612,3.319,6.612,7.03c0,3.878-3.144,7.035-7.017,7.057c-0.042-0.003-0.079-0.005-0.117-0.005l-2.047,0.005h-3.819v2
		h5.819v-0.006c0.042,0.001,0.082,0.006,0.124,0.006c5.001,0,9.057-4.054,9.057-9.057C265.347-58.527,261.593-62.449,256.858-62.744
		z M228.938-66.361c-0.241-0.016-0.48-0.036-0.725-0.036c-2.766,0-5.281,1.041-7.2,2.743c-1.092-1.366-1.753-3.09-1.753-4.971
		c0-4.41,3.589-7.999,8-7.999c3.092,0,5.76,1.773,7.092,4.345C232.054-70.839,230.175-68.791,228.938-66.361z"/>
	<polygon points="241.188,-44.654 242.958,-44.654 243.389,-44.654 245.398,-44.654 238.984,-53.815 237.347,-52.668 
		241.558,-46.654 239.787,-46.654 237.347,-46.654 238.618,-44.838 239.73,-43.249 245.708,-34.654 247.347,-35.801 
		241.369,-44.396 	"/>
</g>
<g>
	<path d="M356.443-65.04c-1.444-6.742-7.433-11.8-14.605-11.8c-1.799,0-3.521,0.32-5.118,0.904c-0.949-5.108-5.404-8.98-10.788-8.98
		c-0.413,0-0.819,0.027-1.222,0.071c0.744,1.112,1.179,2.448,1.179,3.886c0,3.865-3.134,7-7,7c-1.438,0-2.773-0.435-3.886-1.179
		c-0.044,0.401-0.071,0.809-0.071,1.222c0,3.712,1.845,6.987,4.661,8.979c-1.653,1.907-2.661,4.389-2.661,7.111
		c0,5.983,4.836,10.836,10.813,10.865v0.003h4.188v-2h-3.721l-0.457-0.003c-4.864-0.023-8.822-4.001-8.822-8.865
		c0-4.89,3.978-8.868,8.867-8.868c0.15,0,0.299,0.012,0.447,0.022l0.148,0.01l1.314,0.085l0.597-1.175
		c2.225-4.372,6.644-7.089,11.532-7.089c6.062,0,11.382,4.298,12.649,10.219l0.318,1.483l1.514,0.094
		c3.708,0.23,6.612,3.319,6.612,7.03c0,3.878-3.144,7.035-7.017,7.057c-0.042-0.003-0.079-0.005-0.117-0.005l-2.047,0.005h-3.819v2
		h5.819v-0.006c0.042,0.001,0.082,0.006,0.124,0.006c5.001,0,9.057-4.054,9.057-9.057C364.932-60.823,361.178-64.745,356.443-65.04z
		 M328.523-68.657c-0.241-0.016-0.48-0.036-0.725-0.036c-2.537,0-4.865,0.876-6.715,2.334c-2.012-1.294-3.486-3.354-3.976-5.776
		c0.582,0.117,1.178,0.177,1.78,0.177c4.963,0,9-4.037,9-9c0-0.603-0.06-1.198-0.177-1.78c3.733,0.753,6.629,3.824,7.134,7.64
		C332.133-73.655,329.918-71.4,328.523-68.657z"/>
	<polygon points="340.773,-46.95 342.543,-46.95 342.974,-46.95 344.983,-46.95 338.569,-56.111 336.932,-54.964 341.143,-48.95 
		339.372,-48.95 336.932,-48.95 338.203,-47.134 339.315,-45.545 345.293,-36.95 346.932,-38.097 340.954,-46.692 	"/>
</g>
<g>
	<path d="M457.328-68.904c-1.596-7.445-8.207-13.029-16.127-13.029c-6.423,0-11.977,3.678-14.702,9.035
		c-0.266-0.018-0.53-0.04-0.8-0.04c-6.627,0-11.999,5.372-11.999,12c0,6.607,5.34,11.965,11.938,11.998v0.003h1.062v-2h-0.604
		l-0.447-0.003c-5.485-0.027-9.948-4.513-9.948-9.998c0-5.514,4.485-10,9.999-10c0.175,0,0.347,0.014,0.52,0.025l0.148,0.01
		l1.316,0.088l0.598-1.176c2.492-4.899,7.443-7.942,12.92-7.942c6.79,0,12.75,4.814,14.172,11.448l0.317,1.482l1.514,0.095
		c4.203,0.262,7.496,3.763,7.496,7.971c0,4.397-3.565,7.977-7.957,8c-0.05-0.003-0.093-0.005-0.137-0.007l-0.906,0.007v2h0.863
		v-0.007c0.046,0.001,0.091,0.007,0.137,0.007c5.521,0,10-4.477,10-10C466.7-64.248,462.556-68.579,457.328-68.904z"/>
	
		<rect x="426.135" y="-50.939" transform="matrix(-0.5736 -0.8191 0.8191 -0.5736 720.2869 275.0432)" width="11.183" height="1.999"/>
	
		<rect x="444.109" y="-50.939" transform="matrix(-0.5736 -0.8191 0.8191 -0.5736 748.5724 289.7664)" width="11.183" height="1.999"/>
	<polygon points="442.542,-45.934 444.312,-45.934 444.742,-45.934 446.752,-45.934 440.338,-55.095 438.7,-53.947 442.911,-47.934 
		441.141,-47.934 438.7,-47.934 439.972,-46.117 441.084,-44.528 445.7,-37.934 447.339,-39.08 442.723,-45.676 	"/>
</g>
<g>
	<rect x="532.176" y="-88.371" width="2" height="7.973"/>
	<rect x="513.176" y="-69.457" width="7.973" height="2"/>
	<rect x="517.849" y="-80.724" transform="matrix(0.7071 0.7071 -0.7071 0.7071 96.4691 -392.3442)" width="7.974" height="2"/>
	<rect x="543.358" y="-83.705" transform="matrix(0.7071 0.7071 -0.7071 0.7071 103.0682 -408.2682)" width="2" height="7.972"/>
	<path d="M562.688-62.581c-1.444-6.742-7.433-11.8-14.605-11.8c-2.185,0-4.258,0.47-6.126,1.313
		c-1.667-3.202-5.007-5.394-8.866-5.394c-5.522,0-10,4.477-10,9.999c0,2.46,0.899,4.702,2.373,6.442
		c-1.429,1.84-2.287,4.144-2.287,6.653c0,5.983,4.836,10.836,10.813,10.865v0.003h0.188v-2l-0.178-0.003
		c-4.864-0.023-8.822-4.001-8.822-8.865c0-4.89,3.978-8.868,8.867-8.868c0.15,0,0.299,0.012,0.447,0.022l0.148,0.01l1.314,0.085
		l0.597-1.175c2.225-4.372,6.644-7.089,11.532-7.089c6.062,0,11.382,4.298,12.649,10.219l0.318,1.483l1.514,0.094
		c3.708,0.23,6.612,3.319,6.612,7.03c0,3.878-3.144,7.035-7.017,7.057c-0.042-0.003-0.079-0.005-0.117-0.005l-0.866,0.005v2h0.819
		v-0.006c0.042,0.001,0.082,0.006,0.124,0.006c5.001,0,9.057-4.054,9.057-9.057C571.176-58.364,567.422-62.286,562.688-62.581z
		 M534.768-66.198c-0.241-0.016-0.48-0.036-0.725-0.036c-2.766,0-5.282,1.042-7.2,2.743c-1.092-1.367-1.753-3.09-1.753-4.971
		c0-4.41,3.589-7.999,8-7.999c3.091,0,5.76,1.773,7.091,4.345C537.883-70.677,536.003-68.628,534.768-66.198z"/>
	
		<rect x="532.597" y="-46.501" transform="matrix(-0.5736 -0.8191 0.8191 -0.5736 884.1854 369.2325)" width="11.183" height="1.999"/>
	
		<rect x="550.572" y="-46.501" transform="matrix(-0.5736 -0.8191 0.8191 -0.5736 912.4709 383.9556)" width="11.183" height="1.999"/>
	<polygon points="549.005,-41.495 550.774,-41.495 551.205,-41.495 553.215,-41.495 546.801,-50.656 545.163,-49.509 
		549.374,-43.495 547.604,-43.495 545.163,-43.495 546.435,-41.679 547.547,-40.09 552.163,-33.495 553.802,-34.642 
		549.186,-41.237 	"/>
</g>
<g>
	<path d="M664.525-65.539c-1.444-6.742-7.433-11.8-14.605-11.8c-1.799,0-3.522,0.32-5.118,0.904
		c-0.949-5.108-5.404-8.98-10.788-8.98c-0.413,0-0.819,0.027-1.222,0.071c0.744,1.112,1.179,2.448,1.179,3.886c0,3.865-3.134,7-7,7
		c-1.438,0-2.773-0.435-3.886-1.179c-0.044,0.401-0.071,0.809-0.071,1.222c0,3.712,1.845,6.987,4.661,8.979
		c-1.653,1.907-2.661,4.389-2.661,7.111c0,5.983,4.836,10.836,10.813,10.865v0.003h0.188v-2l-0.178-0.003
		c-4.864-0.023-8.822-4.001-8.822-8.865c0-4.89,3.978-8.868,8.867-8.868c0.15,0,0.299,0.012,0.447,0.022l0.148,0.01l1.314,0.085
		l0.597-1.175c2.225-4.372,6.644-7.089,11.532-7.089c6.062,0,11.382,4.298,12.649,10.219l0.318,1.483l1.514,0.094
		c3.708,0.23,6.612,3.319,6.612,7.03c0,3.878-3.144,7.035-7.017,7.057c-0.042-0.003-0.079-0.005-0.117-0.005l-0.866,0.005v2h0.819
		v-0.006c0.042,0.001,0.082,0.006,0.124,0.006c5.001,0,9.057-4.054,9.057-9.057C673.014-61.322,669.26-65.244,664.525-65.539z
		 M636.605-69.156c-0.241-0.016-0.48-0.036-0.725-0.036c-2.537,0-4.865,0.876-6.715,2.334c-2.012-1.294-3.487-3.354-3.976-5.776
		c0.582,0.117,1.178,0.177,1.78,0.177c4.963,0,9-4.037,9-9c0-0.603-0.06-1.198-0.177-1.78c3.733,0.753,6.629,3.824,7.133,7.641
		C640.216-74.154,638.001-71.898,636.605-69.156z"/>
	
		<rect x="634.434" y="-49.459" transform="matrix(-0.5736 -0.8191 0.8191 -0.5736 1046.8628 447.9931)" width="11.183" height="1.999"/>
	
		<rect x="652.409" y="-49.459" transform="matrix(-0.5736 -0.8191 0.8191 -0.5736 1075.1483 462.7163)" width="11.183" height="1.999"/>
	<polygon points="650.842,-44.453 652.611,-44.453 653.042,-44.453 655.052,-44.453 648.638,-53.614 647,-52.467 651.211,-46.453 
		649.44,-46.453 647,-46.453 648.271,-44.637 649.384,-43.048 654,-36.453 655.639,-37.6 651.022,-44.195 	"/>
</g>
<g>
	<g>
		<path d="M253.963,20.916c-1.596-7.445-8.207-13.029-16.127-13.029c-6.423,0-11.977,3.678-14.702,9.035
			c-0.266-0.018-0.53-0.04-0.8-0.04c-6.627,0-11.999,5.372-11.999,12c0,6.607,5.34,11.965,11.938,11.998v0.003h2.062v-2h-1.604
			l-0.447-0.003c-5.485-0.027-9.948-4.513-9.948-9.998c0-5.514,4.485-10,9.999-10c0.175,0,0.347,0.014,0.52,0.025l0.148,0.01
			l1.316,0.088l0.598-1.176c2.492-4.899,7.443-7.942,12.92-7.942c6.79,0,12.75,4.814,14.172,11.448l0.317,1.482l1.514,0.095
			c4.203,0.262,7.496,3.763,7.496,7.971c0,4.397-3.565,7.977-7.957,8c-0.05-0.003-0.093-0.005-0.137-0.007l-2.043,0.007h-2.863v2
			h4.863v-0.007c0.046,0.001,0.091,0.007,0.137,0.007c5.521,0,10-4.477,10-10C263.335,25.572,259.19,21.241,253.963,20.916z"/>
	</g>
	<g>
		<circle cx="228.835" cy="34.459" r="1.5"/>
	</g>
	<g>
		<circle cx="232.835" cy="40.383" r="1.5"/>
	</g>
	<g>
		<circle cx="240.835" cy="40.383" r="1.5"/>
	</g>
	<g>
		<circle cx="236.835" cy="34.459" r="1.5"/>
	</g>
	<g>
		<circle cx="244.835" cy="34.459" r="1.5"/>
	</g>
	<g>
		<circle cx="228.835" cy="46.404" r="1.5"/>
	</g>
	<g>
		<circle cx="236.835" cy="46.404" r="1.5"/>
	</g>
	<g>
		<circle cx="244.835" cy="46.404" r="1.5"/>
	</g>
</g>
<g>
	<g>
		<rect x="329.749" y="5.438" width="2" height="7.973"/>
	</g>
	<g>
		<rect x="310.749" y="24.353" width="7.973" height="2"/>
	</g>
	<g>
		<rect x="315.422" y="13.086" transform="matrix(0.7071 0.7071 -0.7071 0.7071 103.513 -221.7307)" width="7.974" height="2"/>
	</g>
	<g>
		<rect x="340.931" y="10.104" transform="matrix(0.7071 0.7071 -0.7071 0.7071 110.1122 -237.6547)" width="2" height="7.972"/>
	</g>
	<g>
		<path d="M360.261,31.229c-1.444-6.742-7.433-11.8-14.605-11.8c-2.185,0-4.258,0.47-6.127,1.313
			c-1.666-3.202-5.006-5.394-8.865-5.394c-5.522,0-10,4.477-10,9.999c0,2.46,0.898,4.702,2.373,6.442
			c-1.428,1.84-2.287,4.144-2.287,6.653c0,5.983,4.836,10.836,10.813,10.865v0.003h1.188v-2h-0.721l-0.457-0.003
			c-4.864-0.023-8.822-4.001-8.822-8.865c0-4.89,3.978-8.868,8.867-8.868c0.15,0,0.299,0.012,0.447,0.022l0.148,0.01l1.314,0.085
			l0.597-1.175c2.225-4.372,6.644-7.089,11.532-7.089c6.062,0,11.382,4.298,12.649,10.219l0.318,1.483l1.514,0.094
			c3.708,0.23,6.612,3.319,6.612,7.03c0,3.878-3.144,7.035-7.017,7.057c-0.042-0.003-0.079-0.005-0.117-0.005l-2.047,0.005h-1.819v2
			h3.819v-0.006c0.042,0.001,0.082,0.006,0.124,0.006c5.001,0,9.057-4.054,9.057-9.057
			C368.749,35.445,364.995,31.523,360.261,31.229z M332.341,27.611c-0.241-0.016-0.48-0.036-0.725-0.036
			c-2.766,0-5.281,1.042-7.2,2.743c-1.092-1.367-1.753-3.09-1.753-4.971c0-4.41,3.589-7.999,8-7.999c3.092,0,5.76,1.773,7.092,4.345
			C335.456,23.133,333.577,25.182,332.341,27.611z"/>
	</g>
	<g>
		<circle cx="336.238" cy="42.822" r="1.5"/>
	</g>
	<g>
		<circle cx="340.238" cy="48.822" r="1.5"/>
	</g>
	<g>
		<circle cx="348.238" cy="48.822" r="1.5"/>
	</g>
	<g>
		<circle cx="344.238" cy="42.822" r="1.5"/>
	</g>
	<g>
		<circle cx="352.238" cy="42.822" r="1.5"/>
	</g>
	<g>
		<circle cx="336.238" cy="54.844" r="1.5"/>
	</g>
	<g>
		<circle cx="344.238" cy="54.844" r="1.5"/>
	</g>
	<g>
		<circle cx="352.238" cy="54.844" r="1.5"/>
	</g>
</g>
<g>
	<g>
		<path d="M456.212,27.272c-1.444-6.742-7.433-11.8-14.605-11.8c-1.799,0-3.521,0.32-5.118,0.904
			c-0.949-5.108-5.404-8.98-10.788-8.98c-0.413,0-0.819,0.027-1.222,0.071c0.744,1.112,1.179,2.448,1.179,3.886c0,3.865-3.134,7-7,7
			c-1.438,0-2.773-0.435-3.886-1.179c-0.044,0.401-0.071,0.809-0.071,1.222c0,3.712,1.845,6.987,4.661,8.979
			c-1.653,1.907-2.661,4.389-2.661,7.111c0,5.983,4.836,10.836,10.813,10.865v0.003h1.188v-2h-0.721l-0.457-0.003
			c-4.864-0.023-8.822-4.001-8.822-8.865c0-4.89,3.978-8.868,8.867-8.868c0.15,0,0.299,0.012,0.447,0.022l0.148,0.01l1.314,0.085
			l0.597-1.175c2.225-4.372,6.644-7.089,11.532-7.089c6.062,0,11.382,4.298,12.649,10.219l0.318,1.483l1.514,0.094
			c3.708,0.23,6.612,3.319,6.612,7.03c0,3.878-3.144,7.035-7.017,7.057c-0.042-0.003-0.079-0.005-0.117-0.005l-2.047,0.005H451.7v2
			h3.819V45.35c0.042,0.001,0.082,0.006,0.124,0.006c5.001,0,9.057-4.054,9.057-9.057C464.7,31.489,460.946,27.567,456.212,27.272z
			 M428.292,23.655c-0.241-0.016-0.48-0.036-0.725-0.036c-2.537,0-4.865,0.876-6.715,2.334c-2.012-1.294-3.486-3.354-3.976-5.776
			c0.582,0.117,1.178,0.177,1.78,0.177c4.963,0,9-4.037,9-9c0-0.603-0.06-1.198-0.177-1.78c3.733,0.753,6.629,3.824,7.134,7.64
			C431.901,18.657,429.687,20.912,428.292,23.655z"/>
	</g>
	<g>
		<circle cx="432.2" cy="38.865" r="1.5"/>
	</g>
	<g>
		<circle cx="436.2" cy="44.865" r="1.5"/>
	</g>
	<g>
		<circle cx="444.2" cy="44.865" r="1.5"/>
	</g>
	<g>
		<circle cx="440.2" cy="38.865" r="1.5"/>
	</g>
	<g>
		<circle cx="448.2" cy="38.865" r="1.5"/>
	</g>
	<g>
		<circle cx="432.2" cy="50.887" r="1.5"/>
	</g>
	<g>
		<circle cx="440.2" cy="50.887" r="1.5"/>
	</g>
	<g>
		<circle cx="448.2" cy="50.887" r="1.5"/>
	</g>
</g>
<g>
	<path d="M767.377-71.613c-1.596-7.445-8.207-13.029-16.127-13.029c-6.423,0-11.977,3.678-14.702,9.035
		c-0.266-0.018-0.53-0.04-0.8-0.04c-6.627,0-11.999,5.372-11.999,12c0,6.607,5.34,11.965,11.938,11.998v0.003h2.062v-2h-1.604
		l-0.447-0.003c-5.485-0.027-9.948-4.513-9.948-9.998c0-5.514,4.485-10,9.999-10c0.175,0,0.347,0.014,0.52,0.025l0.148,0.01
		l1.316,0.088l0.598-1.176c2.492-4.899,7.443-7.942,12.92-7.942c6.79,0,12.75,4.814,14.172,11.448l0.317,1.482l1.514,0.095
		c4.203,0.262,7.496,3.763,7.496,7.971c0,4.397-3.565,7.977-7.957,8c-0.05-0.003-0.093-0.005-0.137-0.007l-2.043,0.007h-2.863v2
		h4.863v-0.007c0.046,0.001,0.091,0.007,0.137,0.007c5.521,0,10-4.477,10-10C776.749-66.957,772.604-71.288,767.377-71.613z"/>
	<circle cx="741.749" cy="-44.143" r="1.5"/>
	<circle cx="749.749" cy="-38.143" r="1.5"/>
	<circle cx="757.749" cy="-42.143" r="1.5"/>
	<rect x="740.749" y="-60.618" width="2" height="11.976"/>
	<polygon points="750.749,-42.678 750.749,-44.618 750.749,-56.618 748.749,-56.618 748.749,-44.618 748.749,-42.678 
		748.749,-42.643 750.749,-42.643 	"/>
	<polygon points="758.749,-46.865 758.749,-48.618 758.749,-60.618 756.749,-60.618 756.749,-48.618 756.749,-46.865 
		756.749,-46.643 758.749,-46.643 	"/>
</g>
<g>
	<rect x="19" width="2" height="7.973"/>
	<rect y="18.914" width="7.973" height="2"/>
	<rect x="4.673" y="7.648" transform="matrix(0.7071 0.7071 -0.7071 0.7071 8.6512 -3.5909)" width="7.974" height="2"/>
	<rect x="30.182" y="4.666" transform="matrix(0.7071 0.7071 -0.7071 0.7071 15.2503 -19.5148)" width="2" height="7.972"/>
	<path d="M49.512,25.79c-1.444-6.742-7.433-11.8-14.605-11.8c-2.185,0-4.258,0.47-6.126,1.313c-1.667-3.202-5.007-5.394-8.866-5.394
		c-5.522,0-10,4.477-10,9.999c0,2.46,0.899,4.702,2.373,6.442C10.858,28.191,10,30.495,10,33.005
		c0,5.983,4.836,10.836,10.813,10.865v0.003H22v-2h-0.721l-0.457-0.003C15.958,41.847,12,37.869,12,33.005
		c0-4.89,3.978-8.868,8.867-8.868c0.15,0,0.299,0.012,0.447,0.022l0.148,0.01l1.314,0.085l0.597-1.175
		c2.225-4.372,6.644-7.089,11.532-7.089c6.062,0,11.382,4.298,12.649,10.219l0.318,1.483l1.514,0.094
		c3.708,0.23,6.612,3.319,6.612,7.03c0,3.878-3.144,7.035-7.017,7.057c-0.042-0.003-0.079-0.005-0.117-0.005l-2.047,0.005H46v2
		h2.819v-0.006c0.042,0.001,0.082,0.006,0.124,0.006c5.001,0,9.057-4.054,9.057-9.057C58,30.007,54.246,26.085,49.512,25.79z
		 M21.592,22.173c-0.241-0.016-0.48-0.036-0.725-0.036c-2.766,0-5.282,1.041-7.2,2.743c-1.092-1.366-1.753-3.09-1.753-4.971
		c0-4.41,3.589-7.999,8-7.999c3.091,0,5.76,1.773,7.091,4.345C24.707,17.695,22.827,19.743,21.592,22.173z"/>
	<circle cx="25.99" cy="52.36" r="1.5"/>
	<circle cx="33.99" cy="58.36" r="1.5"/>
	<circle cx="41.99" cy="54.36" r="1.5"/>
	<rect x="24.99" y="35.885" width="2" height="11.976"/>
	<polygon points="34.99,53.825 34.99,51.885 34.99,39.885 32.99,39.885 32.99,51.885 32.99,53.825 32.99,53.86 34.99,53.86 	"/>
	<polygon points="42.99,49.638 42.99,47.885 42.99,35.885 40.99,35.885 40.99,47.885 40.99,49.638 40.99,49.86 42.99,49.86 	"/>
</g>
<g>
	<path d="M150.114,22.792c-1.444-6.742-7.433-11.8-14.605-11.8c-1.799,0-3.522,0.32-5.118,0.904
		c-0.949-5.108-5.404-8.98-10.788-8.98c-0.413,0-0.819,0.027-1.222,0.071c0.744,1.112,1.179,2.448,1.179,3.886c0,3.865-3.134,7-7,7
		c-1.438,0-2.773-0.435-3.886-1.179c-0.044,0.401-0.071,0.809-0.071,1.222c0,3.712,1.845,6.987,4.661,8.979
		c-1.653,1.907-2.661,4.389-2.661,7.111c0,5.983,4.836,10.836,10.813,10.865v0.003h1.188v-2h-0.721l-0.457-0.003
		c-4.864-0.023-8.822-4.001-8.822-8.865c0-4.89,3.978-8.868,8.867-8.868c0.15,0,0.299,0.012,0.447,0.022l0.148,0.01l1.314,0.085
		l0.597-1.175c2.225-4.372,6.644-7.089,11.532-7.089c6.062,0,11.382,4.298,12.649,10.219l0.318,1.483l1.514,0.094
		c3.708,0.23,6.612,3.319,6.612,7.03c0,3.878-3.144,7.035-7.017,7.057c-0.042-0.003-0.079-0.005-0.117-0.005l-2.047,0.005h-0.819v2
		h2.819v-0.006c0.042,0.001,0.082,0.006,0.124,0.006c5.001,0,9.057-4.054,9.057-9.057C158.603,27.009,154.849,23.087,150.114,22.792
		z M122.194,19.175c-0.241-0.016-0.48-0.036-0.725-0.036c-2.537,0-4.865,0.876-6.715,2.334c-2.012-1.294-3.487-3.354-3.976-5.776
		c0.582,0.117,1.178,0.177,1.78,0.177c4.963,0,9-4.037,9-9c0-0.603-0.06-1.198-0.177-1.78c3.733,0.753,6.629,3.824,7.133,7.64
		C125.805,14.177,123.59,16.432,122.194,19.175z"/>
	<circle cx="126.603" cy="49.366" r="1.5"/>
	<circle cx="134.603" cy="55.366" r="1.5"/>
	<circle cx="142.603" cy="51.366" r="1.5"/>
	<rect x="125.603" y="32.891" width="2" height="11.976"/>
	<polygon points="135.603,50.831 135.603,48.891 135.603,36.891 133.603,36.891 133.603,48.891 133.603,50.831 133.603,50.866 
		135.603,50.866 	"/>
	<polygon points="143.603,46.644 143.603,44.891 143.603,32.891 141.603,32.891 141.603,44.891 141.603,46.644 141.603,46.866 
		143.603,46.866 	"/>
</g>
<g>
	<rect x="2" y="127.232" width="56" height="2"/>
	<rect x="6" y="133.232" width="50" height="2"/>
	<rect x="12" y="139.232" width="36" height="2"/>
	<rect x="4" y="121.232" width="52" height="2"/>
	<path d="M15.874,113.228c0.175,0,0.347,0.014,0.519,0.025l0.149,0.01l1.316,0.088l0.598-1.176c2.493-4.899,7.443-7.942,12.92-7.942
		c6.79,0,12.75,4.814,14.171,11.448l0.318,1.482l1.514,0.095c1.207,0.075,2.335,0.425,3.336,0.975h3.286
		c-1.678-1.703-3.957-2.813-6.498-2.971c-1.596-7.445-8.207-13.029-16.127-13.029c-6.423,0-11.977,3.678-14.702,9.035
		c-0.266-0.018-0.53-0.04-0.8-0.04c-4.843,0-9.004,2.874-10.9,7.005h2.251C8.956,115.246,12.181,113.228,15.874,113.228z"/>
</g>
<g>
	<rect x="123.103" y="99.718" width="2" height="7.973"/>
	<rect x="104.103" y="118.632" width="7.973" height="2"/>
	<rect x="108.776" y="107.365" transform="matrix(0.7071 0.7071 -0.7071 0.7071 109.6532 -47.9958)" width="7.974" height="2"/>
	<rect x="134.284" y="104.383" transform="matrix(0.7071 0.7071 -0.7071 0.7071 116.2524 -63.9198)" width="2" height="7.972"/>
	<rect x="113.103" y="133.592" width="50" height="2"/>
	<rect x="117.103" y="139.592" width="44" height="2"/>
	<rect x="123.103" y="144.592" width="30" height="2"/>
	<rect x="115.103" y="127.592" width="46" height="2"/>
	<path d="M116.011,125.592h0.771h1.927h1.012c1.472-1.087,3.283-1.737,5.249-1.737c0.15,0,0.299,0.012,0.447,0.022l0.148,0.01
		l1.314,0.085l0.597-1.175c2.225-4.372,6.644-7.089,11.532-7.089c5.945,0,11.168,4.139,12.563,9.884h2.043v-0.084
		c-1.444-6.742-7.433-11.8-14.605-11.8c-2.185,0-4.258,0.47-6.126,1.313c-1.667-3.202-5.007-5.394-8.866-5.394
		c-5.522,0-10,4.477-10,9.999C114.017,121.868,114.765,123.927,116.011,125.592z M124.017,111.628c3.091,0,5.76,1.773,7.091,4.345
		c-2.298,1.44-4.178,3.488-5.413,5.918c-0.241-0.016-0.48-0.036-0.725-0.036c-2.764,0-5.274,1.045-7.189,2.745
		c-1.097-1.366-1.764-3.089-1.764-4.973C116.017,115.217,119.605,111.628,124.017,111.628z"/>
</g>
<g>
	<rect x="211.847" y="130.154" width="50" height="2"/>
	<rect x="215.847" y="136.154" width="44" height="2"/>
	<rect x="221.847" y="141.154" width="30" height="2"/>
	<rect x="213.847" y="124.154" width="46" height="2"/>
	<path d="M215.489,122.154h0.037h1.884h1.055c1.472-1.087,3.283-1.737,5.249-1.737c0.15,0,0.299,0.012,0.447,0.022l0.148,0.01
		l1.314,0.085l0.597-1.175c2.225-4.372,6.644-7.089,11.532-7.089c5.945,0,11.168,4.139,12.563,9.884h2.043v-0.084
		c-1.444-6.742-7.433-11.8-14.605-11.8c-1.799,0-3.521,0.32-5.117,0.903c-0.945-5.111-5.402-8.987-10.789-8.987
		c-0.413,0-0.819,0.027-1.222,0.071c0.744,1.112,1.179,2.448,1.179,3.886c0,3.865-3.134,7-7,7c-1.438,0-2.773-0.435-3.886-1.179
		c-0.044,0.401-0.071,0.809-0.071,1.222C210.847,116.891,212.683,120.161,215.489,122.154z M214.804,115.144c4.963,0,9-4.037,9-9
		c0-0.603-0.06-1.198-0.177-1.78c3.735,0.753,6.633,3.828,7.134,7.647c-2.712,1.443-4.927,3.699-6.322,6.442
		c-0.241-0.016-0.48-0.036-0.725-0.036c-2.534,0-4.855,0.879-6.701,2.335c-2.02-1.293-3.5-3.356-3.989-5.785
		C213.605,115.084,214.201,115.144,214.804,115.144z"/>
</g>
<g>
	<path d="M343.738,133.168h-19.474l-0.578-0.003c-5.485-0.027-9.948-4.513-9.948-9.998c0-5.514,4.485-10,9.999-10
		c0.175,0,0.347,0.014,0.519,0.025l0.149,0.01l1.316,0.088l0.598-1.176c2.493-4.899,7.443-7.942,12.92-7.942
		c6.79,0,12.75,4.814,14.171,11.448l0.318,1.482l1.514,0.095c1.822,0.113,3.463,0.845,4.746,1.971h2.732
		c-1.707-2.262-4.348-3.78-7.354-3.967c-1.596-7.445-8.207-13.029-16.127-13.029c-6.423,0-11.977,3.678-14.702,9.035
		c-0.266-0.018-0.53-0.04-0.8-0.04c-6.627,0-11.999,5.372-11.999,12c0,6.607,5.34,11.965,11.938,11.998v0.003h20.062
		c2.205,0,4,1.794,4,4s-1.795,4-4,4v2c3.314,0,6-2.686,6-6C349.738,135.854,347.053,133.168,343.738,133.168z"/>
	<path d="M347.738,129.168H331.75v2h15.988c3.314,0,6-2.687,6-6c0-3.314-2.686-6-6-6v2c2.205,0,4,1.794,4,4
		S349.943,129.168,347.738,129.168z"/>
	<path d="M360.738,123.168c1.654,0,3,1.346,3,3s-1.346,3-3,3c-0.043,0-0.083-0.011-0.126-0.013h-4.862
		c0.003,0.005,0.009,0.008,0.012,0.013h-0.023v2h5.5v-0.051c2.523-0.254,4.5-2.358,4.5-4.949c0-2.762-2.238-5-5-5V123.168z"/>
	<path d="M364.738,133.168h-13v2h9.022c-0.004,0.005-0.008,0.008-0.011,0.013h3.862c0.043-0.002,0.083-0.013,0.126-0.013
		c1.654,0,3,1.346,3,3s-1.346,3-3,3v2c2.762,0,5-2.238,5-5S367.5,133.168,364.738,133.168z"/>
	<rect x="325.738" y="129.168" width="4" height="2"/>
</g>
<path d="M136.177-265.936c6.95,1.305,12.226,7.419,12.226,14.742c0,8.272-6.729,15.002-15,15.002c-6.79,0-12.531-4.49-14.366-10.728
	c1.398,0.461,2.867,0.698,4.366,0.698c7.72,0,14-6.281,14-14.001C137.402-262.206,136.979-264.15,136.177-265.936 M133.402-268.192
	c-0.338,0-0.668,0.031-1,0.051c1.861,2.113,3,4.881,3,7.92c0,6.627-5.372,12.001-12,12.001c-2.599,0-4.998-0.835-6.963-2.239
	c0.387,9.047,7.821,16.269,16.963,16.269c9.39,0,17-7.612,17-17.002S142.792-268.192,133.402-268.192L133.402-268.192z"/>
<g>
	<path d="M30.007-263.197c-7.18,0-13,5.819-13,12.999c0,7.181,5.82,13.002,13,13.002s13-5.821,13-13.002
		C43.007-257.378,37.187-263.197,30.007-263.197z M30.007-239.196c-6.065,0-11-4.936-11-11.002c0-6.064,4.935-10.999,11-10.999
		s11,4.935,11,10.999C41.007-244.132,36.072-239.196,30.007-239.196z"/>
	<rect x="29" y="-276.191" width="2" height="10"/>
	<rect x="29" y="-234.191" width="2" height="10"/>
	<rect x="4.007" y="-251.191" width="9.993" height="2"/>
	<rect x="46" y="-251.191" width="10.007" height="2"/>
	<rect x="43.7" y="-270.105" transform="matrix(0.7071 0.7071 -0.7071 0.7071 -174.221 -109.1951)" width="2" height="10.409"/>
	<rect x="14.291" y="-240.697" transform="matrix(-0.7071 -0.7071 0.7071 -0.7071 192.6212 -391.1971)" width="2" height="10.41"/>
	<rect x="10.091" y="-265.896" transform="matrix(0.7071 0.7071 -0.7071 0.7071 -182.8298 -88.4017)" width="10.409" height="2"/>
	<rect x="39.499" y="-236.487" transform="matrix(-0.7072 -0.7071 0.7071 -0.7072 242.8201 -370.4037)" width="10.41" height="2"/>
</g>
<g>
	<rect x="428.173" y="94.67" width="2" height="7.973"/>
	<rect x="409.2" y="113.656" width="7.973" height="2"/>
	<rect x="413.926" y="102.438" transform="matrix(0.7071 0.7071 -0.7071 0.7071 195.5453 -265.213)" width="7.974" height="2"/>
	<rect x="439.435" y="99.456" transform="matrix(0.7071 0.7071 -0.7071 0.7071 202.1444 -281.137)" width="2" height="7.972"/>
	<path d="M443.2,136.67l0.005-0.007h-12.536l-0.594-0.003c-4.864-0.024-8.822-4.001-8.822-8.865c0-4.89,3.978-8.868,8.867-8.868
		c0.15,0,0.299,0.012,0.447,0.021l0.148,0.011l1.314,0.085l0.597-1.174c2.225-4.373,6.644-7.09,11.532-7.09
		c5.916,0,11.114,4.099,12.54,9.8h2.065c-1.444-6.742-7.433-11.8-14.605-11.8c-2.185,0-4.258,0.47-6.126,1.313
		c-1.667-3.202-5.007-5.394-8.866-5.394c-5.522,0-10,4.477-10,9.999c0,2.46,0.899,4.702,2.373,6.442
		c-1.429,1.84-2.287,4.144-2.287,6.653c0,5.983,4.836,10.836,10.813,10.865v0.003H443.2v0.007c2.205,0,4,1.794,4,4s-1.795,4-4,4v2
		c3.314,0,6-2.686,6-6C449.2,139.356,446.515,136.67,443.2,136.67z M429.167,106.7c3.091,0,5.76,1.773,7.091,4.345
		c-2.298,1.439-4.178,3.488-5.413,5.918c-0.241-0.016-0.48-0.036-0.725-0.036c-2.766,0-5.282,1.042-7.2,2.743
		c-1.092-1.367-1.753-3.09-1.753-4.971C421.167,110.289,424.756,106.7,429.167,106.7z"/>
	<path d="M447.2,132.67h-9.988v2h9.988c3.314,0,6-2.687,6-6c0-3.314-2.686-6-6-6v2c2.205,0,4,1.794,4,4S449.405,132.67,447.2,132.67
		z"/>
	<path d="M455.224,132.67H455.2v2h5.5v-0.051c2.523-0.254,4.5-2.358,4.5-4.949c0-2.762-2.238-5-5-5v2c1.654,0,3,1.346,3,3
		s-1.346,3-3,3c-0.043,0-0.083-0.011-0.126-0.013h-4.862C455.215,132.662,455.221,132.666,455.224,132.67z"/>
	<path d="M464.2,136.67h-13v2h9.022c-0.004,0.004-0.008,0.008-0.011,0.013h3.862c0.043-0.002,0.083-0.013,0.126-0.013
		c1.654,0,3,1.346,3,3s-1.346,3-3,3v2c2.762,0,5-2.238,5-5S466.962,136.67,464.2,136.67z"/>
	<rect x="431.2" y="132.67" width="4" height="2"/>
</g>
<g>
	<path d="M543.162,134.664l0.005-0.007h-12.536l-0.594-0.003c-4.864-0.024-8.822-4.001-8.822-8.865c0-4.89,3.978-8.868,8.867-8.868
		c0.15,0,0.299,0.012,0.447,0.021l0.148,0.011l1.314,0.085l0.597-1.174c2.225-4.373,6.644-7.09,11.532-7.09
		c5.916,0,11.114,4.099,12.54,9.8h2.065c-1.444-6.742-7.433-11.8-14.605-11.8c-1.806,0-3.536,0.322-5.138,0.91
		c-0.938-5.123-5.4-9.01-10.794-9.01c-0.413,0-0.819,0.027-1.222,0.071c0.744,1.112,1.179,2.448,1.179,3.886c0,3.865-3.134,7-7,7
		c-1.438,0-2.773-0.435-3.886-1.179c-0.044,0.401-0.071,0.809-0.071,1.222c0,3.725,1.858,7.009,4.69,8.998
		c-1.655,1.907-2.665,4.392-2.665,7.116c0,5.983,4.836,10.836,10.813,10.865v0.003h13.135v0.007c2.205,0,4,1.794,4,4s-1.795,4-4,4v2
		c3.314,0,6-2.686,6-6C549.162,137.351,546.477,134.664,543.162,134.664z M519.366,111.455c0.582,0.117,1.178,0.177,1.78,0.177
		c4.963,0,9-4.037,9-9c0-0.603-0.06-1.198-0.177-1.78c3.744,0.755,6.646,3.842,7.138,7.674c-2.702,1.444-4.909,3.696-6.301,6.432
		c-0.241-0.016-0.48-0.036-0.725-0.036c-2.535,0-4.861,0.875-6.71,2.33C521.344,115.959,519.857,113.891,519.366,111.455z"/>
	<path d="M547.162,130.664h-9.988v2h9.988c3.314,0,6-2.687,6-6c0-3.314-2.686-6-6-6v2c2.205,0,4,1.794,4,4
		S549.367,130.664,547.162,130.664z"/>
	<path d="M555.186,130.664h-0.023v2h5.5v-0.051c2.523-0.254,4.5-2.358,4.5-4.949c0-2.762-2.238-5-5-5v2c1.654,0,3,1.346,3,3
		s-1.346,3-3,3c-0.043,0-0.083-0.011-0.126-0.013h-4.862C555.177,130.656,555.183,130.66,555.186,130.664z"/>
	<path d="M564.162,134.664h-13v2h9.022c-0.004,0.004-0.008,0.008-0.011,0.013h3.862c0.043-0.002,0.083-0.013,0.126-0.013
		c1.654,0,3,1.346,3,3s-1.346,3-3,3v2c2.762,0,5-2.238,5-5S566.924,134.664,564.162,134.664z"/>
	<rect x="531.162" y="130.664" width="4" height="2"/>
</g>
<g>
	<rect x="644.055" y="97.232" width="2" height="10"/>
	<rect x="619.062" y="122.232" width="9.993" height="2"/>
	<rect x="658.755" y="103.318" transform="matrix(0.7071 0.7071 -0.7071 0.7071 269.9749 -434.7311)" width="2" height="10.409"/>
	<rect x="625.146" y="107.528" transform="matrix(0.7071 0.7071 -0.7071 0.7071 261.366 -413.9377)" width="10.409" height="2"/>
	<path d="M649.055,137.232h-24v2h24c2.205,0,4,1.794,4,4s-1.795,4-4,4v2c3.314,0,6-2.686,6-6
		C655.055,139.919,652.369,137.232,649.055,137.232z"/>
	<path d="M661.078,133.232h-0.023v2h5.5v-0.051c2.523-0.254,4.5-2.358,4.5-4.949c0-2.762-2.238-5-5-5v2c1.654,0,3,1.346,3,3
		s-1.346,3-3,3c-0.043,0-0.083-0.011-0.126-0.013h-4.862C661.069,133.225,661.075,133.229,661.078,133.232z"/>
	<path d="M670.055,137.232h-13v2h9.022c-0.004,0.004-0.008,0.008-0.011,0.013h3.862c0.043-0.002,0.083-0.013,0.126-0.013
		c1.654,0,3,1.346,3,3s-1.346,3-3,3v2c2.762,0,5-2.238,5-5S672.816,137.232,670.055,137.232z"/>
	<path d="M636.764,133.232h-11.709v2h12.012h0.822h15.166c3.314,0,6-2.687,6-6c0-3.314-2.686-6-6-6v2c2.205,0,4,1.794,4,4
		s-1.795,4-4,4h-12.538c-3.802-1.734-6.455-5.563-6.455-10.007c0-6.064,4.935-10.999,11-10.999c5.384,0,9.868,3.891,10.81,9.006
		h2.021c-0.961-6.23-6.331-11.006-12.831-11.006c-7.18,0-13,5.819-13,12.999C632.062,127.251,633.892,130.848,636.764,133.232z"/>
</g>
<g>
	<path d="M749.281,130.676h-24v2h24c2.205,0,4,1.794,4,4s-1.795,4-4,4v2c3.314,0,6-2.686,6-6
		C755.281,133.362,752.596,130.676,749.281,130.676z"/>
	<path d="M766.781,128.676v-0.051c2.523-0.254,4.5-2.358,4.5-4.949c0-2.762-2.238-5-5-5v2c1.654,0,3,1.346,3,3s-1.346,3-3,3
		c-0.043,0-0.083-0.011-0.126-0.013h-4.862c0.004,0.005,0.009,0.009,0.012,0.013h-0.023v2H766.781z"/>
	<path d="M770.281,130.676h-13v2h9.022c-0.003,0.004-0.007,0.008-0.011,0.013h3.862c0.043-0.002,0.083-0.013,0.126-0.013
		c1.654,0,3,1.346,3,3s-1.346,3-3,3v2c2.762,0,5-2.238,5-5S773.043,130.676,770.281,130.676z"/>
	<path d="M738.115,128.676h15.166c3.314,0,6-2.687,6-6c0-3.314-2.686-6-6-6v2c2.205,0,4,1.794,4,4s-1.795,4-4,4h-12.586
		c-2.596-1.188-4.658-3.339-5.69-6.034c0.849,0.204,1.724,0.309,2.612,0.309c6.168,0,11.187-5.019,11.187-11.188
		c0-1.276-0.22-2.532-0.64-3.717c4.046,1.102,7.168,4.459,7.937,8.63h2.018c-0.964-6.237-6.338-11.016-12.846-11.016
		c-0.259,0-0.511,0.024-0.766,0.039c1.425,1.618,2.297,3.737,2.297,6.063c0,5.072-4.112,9.188-9.187,9.188
		c-1.988,0-3.826-0.641-5.33-1.715c0.162,3.801,1.962,7.165,4.699,9.44h-11.705v2h12.012H738.115z"/>
</g>
<g>
	<path d="M29.5,215.869h-20c-1.103,0-2-0.897-2-2s0.897-2,2-2h3.445H13.5v-2h-4c-2.209,0-4,1.791-4,4s1.791,4,4,4h20
		c2.205,0,4,1.794,4,4s-1.795,4-4,4v2c3.314,0,6-2.686,6-6C35.5,218.556,32.814,215.869,29.5,215.869z"/>
	<path d="M31.5,199.869v2c2.205,0,4,1.794,4,4s-1.795,4-4,4H15.512v2H31.5c3.314,0,6-2.687,6-6
		C37.5,202.555,34.814,199.869,31.5,199.869z"/>
	<path d="M37.5,211.869v2H43v-0.051c2.523-0.254,4.5-2.358,4.5-4.949c0-2.762-2.238-5-5-5v2c1.654,0,3,1.346,3,3s-1.346,3-3,3
		c-0.043,0-0.083-0.011-0.126-0.013h-4.862c0.003,0.005,0.009,0.009,0.012,0.013H37.5z"/>
	<path d="M48.5,215.869h-11v2h7.022c-0.004,0.004-0.008,0.008-0.011,0.013h3.862c0.043-0.002,0.083-0.013,0.126-0.013
		c1.654,0,3,1.346,3,3s-1.346,3-3,3v2c2.762,0,5-2.238,5-5S51.262,215.869,48.5,215.869z"/>
</g>
<path d="M565.792,202.216v-0.038h-38.376c-1.103,0-2-0.897-2-2s0.897-2,2-2h33c2.762,0,5-2.238,5-5s-2.238-5-5-5h-37.875v0.008
	c-0.042-0.001-0.083-0.008-0.125-0.008c-2.762,0-5,2.238-5,5s2.238,5,5,5v-2c-1.654,0-3-1.346-3-3s1.346-3,3-3h0.125h3.853h34.022
	c1.654,0,3,1.346,3,3s-1.346,3-3,3h-33c-2.209,0-4,1.791-4,4s1.791,4,4,4h38c1.103,0,2,0.897,2,2s-0.897,2-2,2h-32
	c-2.209,0-4,1.791-4,4s1.791,4,4,4h22c1.103,0,2,0.897,2,2s-0.897,2-2,2h-24.01v0.001c-2.204,0.006-3.99,1.793-3.99,3.999
	s1.786,3.993,3.99,3.999v0.001h12.01c1.103,0,2,0.897,2,2s-0.897,2-2,2h-2c-2.209,0-4,1.791-4,4s1.791,4,4,4v-2
	c-1.103,0-2-0.897-2-2s0.897-2,2-2h2c2.209,0,4-1.791,4-4s-1.791-4-4-4h-12c-1.103,0-2-0.897-2-2s0.897-2,2-2h24
	c2.209,0,4-1.791,4-4c0-2.152-1.704-3.895-3.834-3.983v-0.017h-22.166c-1.103,0-2-0.897-2-2s0.897-2,2-2h32c2.209,0,4-1.791,4-4
	C569.416,204.098,567.822,202.408,565.792,202.216z"/>
<path d="M751.207,192.894v-2.024h-2v2.024c-13.01,0.513-23.462,10.965-23.975,23.976h1.674c1.14-1.222,2.748-2,4.551-2
	c2.26,0,4.233,1.203,5.331,3h1.838c1.098-1.797,3.071-3,5.331-3c2.204,0,4.137,1.144,5.25,2.866v15.134c0,2.21,1.791,4,4,4
	s4-1.79,4-4h-2c0,1.103-0.897,2-2,2s-2-0.897-2-2v-15.134c1.113-1.723,3.046-2.866,5.25-2.866c2.26,0,4.233,1.203,5.331,3h1.838
	c1.098-1.797,3.071-3,5.331-3c1.803,0,3.411,0.778,4.551,2h1.674C774.669,203.858,764.217,193.406,751.207,192.894z
	 M768.957,212.869c-2.496,0-4.736,1.114-6.25,2.87c-1.514-1.756-3.754-2.87-6.25-2.87s-4.736,1.114-6.25,2.87
	c-1.514-1.756-3.754-2.87-6.25-2.87s-4.736,1.114-6.25,2.87c-1.514-1.756-3.755-2.87-6.25-2.87c-1.402,0-2.731,0.351-3.897,0.975
	c1.909-10.769,11.339-18.975,22.647-18.975s20.738,8.206,22.647,18.975C771.688,213.22,770.359,212.869,768.957,212.869z"/>
<g>
	<path d="M345.912,317.182v-17.105c0-2.762-2.238-5-5-5s-5,2.238-5,5v17.105c-1.236,1.263-2,2.988-2,4.895c0,3.866,3.134,7,7,7
		s7-3.134,7-7C347.912,320.17,347.148,318.444,345.912,317.182z M340.912,327.076c-2.757,0-5-2.243-5-5
		c0-1.313,0.508-2.554,1.429-3.495l0.571-0.583v-0.816v-17.105c0-1.654,1.346-3,3-3s3,1.346,3,3v17.105v0.816l0.571,0.583
		c0.921,0.941,1.429,2.183,1.429,3.495C345.912,324.833,343.669,327.076,340.912,327.076z"/>
	<path d="M341.912,319.252v-15.176h-2v15.176c-1.167,0.413-2.008,1.516-2.008,2.824c0,1.662,1.347,3.008,3.008,3.008
		c1.662,0,3.008-1.346,3.008-3.008C343.92,320.768,343.08,319.665,341.912,319.252z M340.912,323.084
		c-0.556,0-1.008-0.452-1.008-1.008s0.452-1.008,1.008-1.008s1.008,0.452,1.008,1.008S341.468,323.084,340.912,323.084z"/>
</g>
<g>
	<path d="M445.7,317.182v-17.105c0-2.762-2.238-5-5-5s-5,2.238-5,5v17.105c-1.236,1.263-2,2.988-2,4.895c0,3.866,3.134,7,7,7
		s7-3.134,7-7C447.7,320.17,446.937,318.444,445.7,317.182z M440.7,327.076c-2.757,0-5-2.243-5-5c0-1.313,0.508-2.554,1.429-3.495
		l0.571-0.583v-0.816v-17.105c0-1.654,1.346-3,3-3s3,1.346,3,3v17.105v0.816l0.571,0.583c0.921,0.941,1.429,2.183,1.429,3.495
		C445.7,324.833,443.457,327.076,440.7,327.076z"/>
	<path d="M441.7,319.252v-20.176h-2v20.176c-1.167,0.413-2.008,1.516-2.008,2.824c0,1.662,1.347,3.008,3.008,3.008
		c1.662,0,3.008-1.346,3.008-3.008C443.708,320.768,442.868,319.665,441.7,319.252z M440.7,323.084
		c-0.556,0-1.008-0.452-1.008-1.008s0.452-1.008,1.008-1.008s1.008,0.452,1.008,1.008S441.256,323.084,440.7,323.084z"/>
</g>
<g>
	<path d="M242.803,317.182v-17.105c0-2.762-2.238-5-5-5s-5,2.238-5,5v17.105c-1.236,1.263-2,2.988-2,4.895c0,3.866,3.134,7,7,7
		s7-3.134,7-7C244.803,320.17,244.039,318.444,242.803,317.182z M237.803,327.076c-2.757,0-5-2.243-5-5
		c0-1.313,0.508-2.554,1.429-3.495l0.571-0.583v-0.816v-17.105c0-1.654,1.346-3,3-3s3,1.346,3,3v17.105v0.816l0.571,0.583
		c0.921,0.941,1.429,2.183,1.429,3.495C242.803,324.833,240.56,327.076,237.803,327.076z"/>
	<path d="M238.803,319.252v-10.176h-2v10.176c-1.167,0.413-2.008,1.516-2.008,2.824c0,1.662,1.347,3.008,3.008,3.008
		c1.662,0,3.008-1.346,3.008-3.008C240.811,320.768,239.971,319.665,238.803,319.252z M237.803,323.084
		c-0.556,0-1.008-0.452-1.008-1.008s0.452-1.008,1.008-1.008s1.008,0.452,1.008,1.008S238.358,323.084,237.803,323.084z"/>
</g>
<g>
	<path d="M139.157,317.182v-17.105c0-2.762-2.238-5-5-5s-5,2.238-5,5v17.105c-1.236,1.263-2,2.988-2,4.895c0,3.866,3.134,7,7,7
		s7-3.134,7-7C141.157,320.17,140.394,318.444,139.157,317.182z M134.157,327.076c-2.757,0-5-2.243-5-5
		c0-1.313,0.508-2.554,1.429-3.495l0.571-0.583v-0.816v-17.105c0-1.654,1.346-3,3-3s3,1.346,3,3v17.105v0.816l0.571,0.583
		c0.921,0.941,1.429,2.183,1.429,3.495C139.157,324.833,136.914,327.076,134.157,327.076z"/>
	<path d="M135.157,319.252v-5.176h-2v5.176c-1.167,0.413-2.008,1.516-2.008,2.824c0,1.662,1.347,3.008,3.008,3.008
		c1.662,0,3.008-1.346,3.008-3.008C137.165,320.768,136.325,319.665,135.157,319.252z M134.157,323.084
		c-0.556,0-1.008-0.452-1.008-1.008s0.452-1.008,1.008-1.008s1.008,0.452,1.008,1.008S134.713,323.084,134.157,323.084z"/>
</g>
<g>
	<path d="M34.5,317.182v-17.105c0-2.762-2.238-5-5-5s-5,2.238-5,5v17.105c-1.236,1.263-2,2.988-2,4.895c0,3.866,3.134,7,7,7
		s7-3.134,7-7C36.5,320.17,35.736,318.444,34.5,317.182z M29.5,327.076c-2.757,0-5-2.243-5-5c0-1.313,0.508-2.554,1.429-3.495
		l0.571-0.583v-0.816v-17.105c0-1.654,1.346-3,3-3s3,1.346,3,3v17.105v0.816l0.571,0.583c0.921,0.941,1.429,2.183,1.429,3.495
		C34.5,324.833,32.257,327.076,29.5,327.076z"/>
	<path d="M29.5,319.068c-1.661,0-3.008,1.347-3.008,3.008c0,1.662,1.347,3.008,3.008,3.008c1.662,0,3.008-1.346,3.008-3.008
		C32.508,320.415,31.162,319.068,29.5,319.068z M29.5,323.084c-0.556,0-1.008-0.452-1.008-1.008s0.452-1.008,1.008-1.008
		s1.008,0.452,1.008,1.008S30.056,323.084,29.5,323.084z"/>
</g>
<g>
	<path d="M534.425,297.389c-2.209,0-4,1.791-4,4c0,2.21,1.791,4,4,4c2.211,0,4-1.79,4-4
		C538.425,299.18,536.636,297.389,534.425,297.389z M534.425,303.389c-1.103,0-2-0.897-2-2s0.897-2,2-2s2,0.897,2,2
		S535.527,303.389,534.425,303.389z"/>
	<path d="M548.425,325.389c-4.41,0-7.999-3.589-7.999-7.999v-4.002c0-4.41,3.589-7.999,7.999-7.999c2.715,0,5.115,1.362,6.563,3.437
		l1.43-1.43c-1.824-2.429-4.72-4.007-7.992-4.007c-5.522,0-9.999,4.478-9.999,9.999v4.002c0,5.521,4.477,9.999,9.999,9.999
		c3.272,0,6.168-1.579,7.992-4.008l-1.43-1.43C553.541,324.025,551.141,325.389,548.425,325.389z"/>
</g>
<g>
	<path d="M639.121,297.268c-2.209,0-4,1.791-4,4c0,2.21,1.791,4,4,4c2.211,0,4-1.79,4-4
		C643.121,299.059,641.332,297.268,639.121,297.268z M639.121,303.268c-1.103,0-2-0.897-2-2s0.897-2,2-2s2,0.897,2,2
		S640.224,303.268,639.121,303.268z"/>
	<polygon points="658.996,305.389 658.996,303.389 646.996,303.389 644.996,303.389 644.996,327.389 646.996,327.389 
		646.996,315.389 654.996,315.389 654.996,313.389 646.996,313.389 646.996,305.389 	"/>
</g>
<g>
	<path d="M750.207,301.08c-7.179,0-13,5.82-13,13s5.821,13,13,13s13-5.82,13-13S757.386,301.08,750.207,301.08z M750.207,325.08
		c-6.065,0-11-4.935-11-11s4.935-11,11-11s11,4.935,11,11S756.272,325.08,750.207,325.08z"/>
	<path d="M745.94,318.322l6.363-2.121l2.121-6.364l-6.363,2.122L745.94,318.322z M749.643,313.54l1.62-0.54l-0.54,1.62l-1.62,0.54
		L749.643,313.54z"/>
</g>
<g>
	<path d="M29.5,391.598c-7.179,0-13,5.82-13,13s5.821,13,13,13s13-5.82,13-13S36.679,391.598,29.5,391.598z M29.5,415.598
		c-6.065,0-11-4.934-11-11c0-6.064,4.935-11,11-11s11,4.936,11,11C40.5,410.664,35.565,415.598,29.5,415.598z"/>
	<path d="M32.062,403.02l-2.586-4.422l-2.529,4.33h0.007c-0.299,0.467-0.478,1.018-0.478,1.613c0,1.656,1.343,3,3,3s3-1.344,3-3
		c0-0.559-0.162-1.074-0.428-1.521H32.062z M29.476,405.541c-0.552,0-1-0.449-1-1c0-0.188,0.055-0.367,0.162-0.535l0.864-1.355
		l0.826,1.391c0.098,0.164,0.147,0.332,0.147,0.5C30.476,405.092,30.027,405.541,29.476,405.541z"/>
</g>
<g>
	<path d="M134.284,391.598c-7.18,0-13,5.82-13,13s5.82,13,13,13s13-5.82,13-13S141.464,391.598,134.284,391.598z M134.284,415.598
		c-6.065,0-11-4.934-11-11c0-6.064,4.935-11,11-11s11,4.936,11,11C145.284,410.664,140.35,415.598,134.284,415.598z"/>
	<path d="M135.873,402.018c-0.467-0.299-1.018-0.477-1.613-0.477c-1.658,0-3,1.342-3,3c0,1.656,1.342,3,3,3
		c0.557,0,1.072-0.162,1.52-0.428v0.014l4.422-2.586l-4.328-2.529V402.018z M134.758,405.393c-0.164,0.098-0.332,0.148-0.498,0.148
		c-0.552,0-1-0.449-1-1c0-0.553,0.448-1,1-1c0.188,0,0.368,0.053,0.535,0.16l1.355,0.865L134.758,405.393z"/>
</g>
<g>
	<path d="M237.335,391.598c-7.18,0-13,5.82-13,13s5.82,13,13,13s13-5.82,13-13S244.515,391.598,237.335,391.598z M237.335,415.598
		c-6.065,0-11-4.934-11-11c0-6.064,4.935-11,11-11s11,4.936,11,11C248.335,410.664,243.4,415.598,237.335,415.598z"/>
	<path d="M237.335,401.541c-1.656,0-3,1.342-3,3c0,0.557,0.162,1.072,0.428,1.52h-0.014l2.586,4.422l2.529-4.328h-0.006
		c0.299-0.467,0.477-1.018,0.477-1.613C240.335,402.883,238.993,401.541,237.335,401.541z M238.174,405.076l-0.865,1.355
		l-0.826-1.393c-0.098-0.164-0.147-0.332-0.147-0.498c0-0.553,0.448-1,1-1s1,0.447,1,1
		C238.335,404.729,238.281,404.908,238.174,405.076z"/>
</g>
<g>
	<path d="M340.749,391.598c-7.179,0-13,5.82-13,13s5.821,13,13,13s13-5.82,13-13S347.928,391.598,340.749,391.598z M340.749,415.598
		c-6.065,0-11-4.934-11-11c0-6.064,4.935-11,11-11s11,4.936,11,11C351.749,410.664,346.814,415.598,340.749,415.598z"/>
	<path d="M340.708,401.541c-0.557,0-1.072,0.162-1.52,0.428v-0.014l-4.422,2.586l4.328,2.529v-0.006
		c0.467,0.299,1.018,0.477,1.613,0.477c1.658,0,3-1.342,3-3C343.708,402.885,342.366,401.541,340.708,401.541z M340.708,405.541
		c-0.188,0-0.368-0.055-0.535-0.162l-1.355-0.865l1.393-0.826c0.164-0.098,0.332-0.146,0.498-0.146c0.552,0,1,0.447,1,1
		C341.708,405.092,341.26,405.541,340.708,405.541z"/>
</g>
<g>
	<rect x="132.598" y="194.869" width="2" height="10"/>
	<rect x="147.297" y="200.955" transform="matrix(0.7071 0.7071 -0.7071 0.7071 189.2122 -44.4793)" width="2" height="10.409"/>
	<rect x="113.689" y="205.165" transform="matrix(0.7071 0.7071 -0.7071 0.7071 180.6033 -23.6859)" width="10.409" height="2"/>
	<polygon points="126.93,224.123 128.344,225.537 132.598,221.283 132.598,230.869 134.598,230.869 134.598,221.283 
		138.851,225.537 140.265,224.123 133.598,217.455 	"/>
	<path d="M146.604,220.868c0-0.002,0-0.004,0-0.006c0-7.18-5.82-12.999-13-12.999s-13,5.819-13,12.999c0,0.002,0,0.004,0,0.006h-13
		v2h18v-2h-3c0-0.002,0-0.004,0-0.006c0-6.064,4.935-10.999,11-10.999s11,4.935,11,10.999c0,0.002,0,0.004,0,0.006h-3v2H159.6v-2
		H146.604z"/>
</g>
<g>
	<rect x="236.343" y="193.682" width="2" height="10"/>
	<rect x="251.043" y="199.768" transform="matrix(0.7071 0.7071 -0.7071 0.7071 218.7587 -118.186)" width="2" height="10.409"/>
	<rect x="217.434" y="203.977" transform="matrix(0.7071 0.7071 -0.7071 0.7071 210.1499 -97.3926)" width="10.409" height="2"/>
	<polygon points="238.343,228.229 238.343,217.682 236.343,217.682 236.343,228.229 232.089,223.975 230.675,225.389 
		237.343,232.057 244.01,225.389 242.596,223.975 	"/>
	<path d="M250.35,219.681c0-0.002,0-0.004,0-0.006c0-7.18-5.82-12.999-13-12.999s-13,5.819-13,12.999c0,0.002,0,0.004,0,0.006h-13v2
		h22v-2h-7c0-0.002,0-0.004,0-0.006c0-6.064,4.935-10.999,11-10.999s11,4.935,11,10.999c0,0.002,0,0.004,0,0.006h-7v2h21.995v-2
		H250.35z"/>
</g>
<g>
	<polygon points="440.7,227.694 440.7,213.312 438.7,213.312 438.7,227.694 434.446,223.44 433.032,224.854 439.7,231.522 
		446.367,224.854 444.953,223.44 	"/>
	<path d="M456.328,208.341c-1.596-7.445-8.207-13.029-16.127-13.029c-6.423,0-11.977,3.678-14.702,9.035
		c-0.266-0.018-0.53-0.04-0.8-0.04c-6.627,0-11.999,5.372-11.999,12c0,6.607,5.34,11.965,11.938,11.998v0.003h6.062v-2h-5.604
		l-0.447-0.003c-5.485-0.027-9.948-4.513-9.948-9.998c0-5.514,4.485-10,9.999-10c0.175,0,0.347,0.014,0.52,0.025l0.148,0.01
		l1.316,0.088l0.598-1.176c2.492-4.899,7.443-7.942,12.92-7.942c6.79,0,12.75,4.814,14.172,11.448l0.317,1.482l1.514,0.095
		c4.203,0.262,7.496,3.763,7.496,7.971c0,4.397-3.565,7.977-7.957,8c-0.05-0.003-0.093-0.005-0.137-0.007l-2.043,0.007H448.7v2
		h6.863v-0.007c0.046,0.001,0.091,0.007,0.137,0.007c5.521,0,10-4.477,10-10C465.7,212.997,461.556,208.666,456.328,208.341z"/>
</g>
<g>
	<polygon points="346.685,224.499 348.099,223.085 341.432,216.417 334.764,223.085 336.178,224.499 340.432,220.245 
		340.432,232.831 342.432,232.831 342.432,220.245 	"/>
	<path d="M358.06,209.937c-1.596-7.445-8.207-13.029-16.127-13.029c-6.423,0-11.977,3.678-14.702,9.035
		c-0.266-0.018-0.53-0.04-0.8-0.04c-6.627,0-11.999,5.372-11.999,12c0,6.607,5.34,11.965,11.938,11.998v0.003h10.062v-2h-9.604
		l-0.447-0.003c-5.485-0.027-9.948-4.513-9.948-9.998c0-5.514,4.485-10,9.999-10c0.175,0,0.347,0.014,0.52,0.025l0.148,0.01
		l1.316,0.088l0.598-1.176c2.492-4.899,7.443-7.942,12.92-7.942c6.79,0,12.75,4.814,14.172,11.448l0.317,1.482l1.514,0.095
		c4.203,0.262,7.496,3.763,7.496,7.971c0,4.397-3.565,7.977-7.957,8c-0.05-0.003-0.093-0.005-0.137-0.007l-2.043,0.007h-8.863v2
		h10.863v-0.007c0.046,0.001,0.091,0.007,0.137,0.007c5.521,0,10-4.477,10-10C367.432,214.593,363.287,210.262,358.06,209.937z"/>
</g>
<g>
	<path d="M560.549,20.421c-1.596-7.445-8.207-13.029-16.127-13.029c-6.423,0-11.977,3.678-14.702,9.035
		c-0.266-0.018-0.53-0.04-0.8-0.04c-6.627,0-11.999,5.372-11.999,12c0,6.607,5.34,11.965,11.938,11.998v0.003h2.062v-2h-1.604
		l-0.447-0.003c-5.485-0.027-9.948-4.513-9.948-9.998c0-5.514,4.485-10,9.999-10c0.175,0,0.347,0.014,0.52,0.025l0.148,0.01
		l1.316,0.088l0.598-1.176c2.492-4.899,7.443-7.942,12.92-7.942c6.79,0,12.75,4.814,14.172,11.448l0.317,1.482l1.514,0.095
		c4.203,0.262,7.496,3.763,7.496,7.971c0,4.397-3.565,7.977-7.957,8c-0.05-0.003-0.093-0.005-0.137-0.007l-2.043,0.007h-0.863v2
		h2.863v-0.007c0.046,0.001,0.091,0.007,0.137,0.007c5.521,0,10-4.477,10-10C569.921,25.077,565.776,20.746,560.549,20.421z"/>
	<polygon points="538.921,39.409 538.921,36.779 541.094,38.002 541.779,36.781 539.31,35.392 541.779,34.002 541.094,32.781 
		538.921,34.004 538.921,31.409 536.921,31.409 536.921,34.048 534.67,32.781 533.984,34.002 536.454,35.392 533.984,36.781 
		534.67,38.002 536.921,36.735 536.921,39.409 	"/>
	<polygon points="544.083,43.764 541.91,44.986 541.91,42.392 539.91,42.392 539.91,45.03 537.659,43.764 536.974,44.984 
		539.443,46.374 536.974,47.764 537.659,48.984 539.91,47.718 539.91,50.392 541.91,50.392 541.91,47.762 544.083,48.984 
		544.769,47.764 542.299,46.374 544.769,44.984 	"/>
	<polygon points="553.099,36.781 550.926,38.004 550.926,35.409 548.926,35.409 548.926,38.048 546.675,36.781 545.989,38.002 
		548.459,39.392 545.989,40.781 546.675,42.002 548.926,40.735 548.926,43.409 550.926,43.409 550.926,40.779 553.099,42.002 
		553.784,40.781 551.314,39.392 553.784,38.002 	"/>
</g>
<g>
	<rect x="636.061" y="2.369" width="2" height="7.973"/>
	<rect x="617.061" y="21.283" width="7.973" height="2"/>
	<rect x="621.734" y="10.017" transform="matrix(0.7071 0.7071 -0.7071 0.7071 191.0593 -439.2247)" width="7.974" height="2"/>
	<rect x="647.242" y="7.035" transform="matrix(0.7071 0.7071 -0.7071 0.7071 197.6584 -455.1486)" width="2" height="7.972"/>
	<path d="M666.572,28.159c-1.444-6.742-7.433-11.8-14.605-11.8c-2.185,0-4.258,0.471-6.127,1.314
		c-1.666-3.203-5.006-5.395-8.865-5.395c-5.522,0-10,4.477-10,9.999c0,2.46,0.899,4.702,2.373,6.442
		c-1.428,1.84-2.287,4.144-2.287,6.653c0,5.983,4.836,10.836,10.813,10.865v0.003h1.188v-2h-0.721l-0.457-0.003
		c-4.864-0.023-8.822-4.001-8.822-8.865c0-4.89,3.978-8.868,8.867-8.868c0.15,0,0.299,0.012,0.447,0.022l0.148,0.01l1.314,0.085
		l0.597-1.175c2.225-4.372,6.644-7.089,11.532-7.089c6.062,0,11.382,4.298,12.649,10.219l0.318,1.483l1.514,0.094
		c3.708,0.23,6.612,3.319,6.612,7.03c0,3.878-3.144,7.035-7.017,7.057c-0.042-0.003-0.079-0.005-0.117-0.005l-1.866,0.005v2h1.819
		v-0.006c0.042,0.001,0.082,0.006,0.124,0.006c5.001,0,9.057-4.054,9.057-9.057C675.061,32.376,671.307,28.454,666.572,28.159z
		 M638.652,24.542c-0.241-0.016-0.48-0.036-0.725-0.036c-2.766,0-5.282,1.041-7.2,2.742c-1.092-1.365-1.753-3.089-1.753-4.97
		c0-4.41,3.589-7.999,8-7.999c3.092,0,5.76,1.773,7.091,4.346C641.768,20.064,639.889,22.112,638.652,24.542z"/>
	<polygon points="646.053,45.262 646.053,42.632 648.226,43.854 648.911,42.634 646.441,41.244 648.911,39.854 648.226,38.634 
		646.053,39.856 646.053,37.262 644.053,37.262 644.053,39.9 641.802,38.634 641.116,39.854 643.586,41.244 641.116,42.634 
		641.802,43.854 644.053,42.588 644.053,45.262 	"/>
	<polygon points="651.215,49.616 649.042,50.839 649.042,48.244 647.042,48.244 647.042,50.883 644.791,49.616 644.105,50.837 
		646.575,52.227 644.105,53.616 644.791,54.837 647.042,53.57 647.042,56.244 649.042,56.244 649.042,53.614 651.215,54.837 
		651.9,53.616 649.431,52.227 651.9,50.837 	"/>
	<polygon points="660.23,42.634 658.058,43.856 658.058,41.262 656.058,41.262 656.058,43.9 653.807,42.634 653.121,43.854 
		655.591,45.244 653.121,46.634 653.807,47.854 656.058,46.588 656.058,49.262 658.058,49.262 658.058,46.632 660.23,47.854 
		660.916,46.634 658.446,45.244 660.916,43.854 	"/>
</g>
<g>
	<path d="M766.761,25.156c-1.444-6.742-7.433-11.8-14.605-11.8c-1.799,0-3.522,0.32-5.118,0.904
		c-0.949-5.108-5.404-8.98-10.788-8.98c-0.413,0-0.819,0.027-1.222,0.071c0.744,1.112,1.179,2.448,1.179,3.886c0,3.865-3.134,7-7,7
		c-1.438,0-2.773-0.435-3.886-1.179c-0.044,0.401-0.071,0.809-0.071,1.222c0,3.713,1.845,6.987,4.661,8.979
		c-1.653,1.907-2.661,4.389-2.661,7.111c0,5.983,4.836,10.836,10.813,10.865v0.003h1.188v-2h-0.721l-0.457-0.003
		c-4.864-0.023-8.822-4.001-8.822-8.865c0-4.89,3.978-8.868,8.867-8.868c0.15,0,0.299,0.012,0.447,0.022l0.148,0.01l1.314,0.085
		l0.597-1.175c2.225-4.372,6.644-7.089,11.532-7.089c6.062,0,11.382,4.298,12.649,10.219l0.318,1.483l1.514,0.094
		c3.708,0.23,6.612,3.319,6.612,7.03c0,3.878-3.144,7.035-7.017,7.057c-0.042-0.003-0.079-0.005-0.117-0.005l-1.866,0.005v2h1.819
		v-0.006c0.042,0.001,0.082,0.006,0.124,0.006c5.001,0,9.057-4.054,9.057-9.057C775.249,29.373,771.495,25.451,766.761,25.156z
		 M738.841,21.539c-0.241-0.016-0.48-0.036-0.725-0.036c-2.537,0-4.865,0.877-6.715,2.334c-2.012-1.294-3.486-3.354-3.976-5.776
		c0.582,0.117,1.178,0.177,1.78,0.177c4.963,0,9-4.037,9-9c0-0.603-0.06-1.198-0.177-1.78c3.733,0.753,6.629,3.824,7.134,7.64
		C742.45,16.541,740.235,18.796,738.841,21.539z"/>
	<polygon points="746.286,42.259 746.286,39.629 748.459,40.852 749.145,39.631 746.675,38.241 749.145,36.852 748.459,35.631 
		746.286,36.854 746.286,34.259 744.286,34.259 744.286,36.897 742.035,35.631 741.35,36.852 743.819,38.241 741.35,39.631 
		742.035,40.852 744.286,39.585 744.286,42.259 	"/>
	<polygon points="751.448,46.613 749.275,47.836 749.275,45.241 747.275,45.241 747.275,47.88 745.024,46.613 744.339,47.834 
		746.809,49.224 744.339,50.613 745.024,51.834 747.275,50.567 747.275,53.241 749.275,53.241 749.275,50.611 751.448,51.834 
		752.134,50.613 749.664,49.224 752.134,47.834 	"/>
	<polygon points="760.464,39.631 758.291,40.854 758.291,38.259 756.291,38.259 756.291,40.897 754.04,39.631 753.354,40.852 
		755.824,42.241 753.354,43.631 754.04,44.852 756.291,43.585 756.291,46.259 758.291,46.259 758.291,43.629 760.464,44.852 
		761.149,43.631 758.68,42.241 761.149,40.852 	"/>
</g>
<rect x="150.402" y="-542.594" fill="none" width="472.974" height="180.918"/>
<text transform="matrix(1 0 0 1 330.0396 -471.1948)"><tspan x="0" y="0" font-family="'HelveticaNeueLTStd-Th'" font-size="100" letter-spacing="2">60</tspan><tspan x="-99.268" y="60" font-family="'HelveticaNeueLTStd-Lt'" font-size="48" letter-spacing="1">Weather Icons</tspan><tspan x="-3.726" y="104" font-family="'HelveticaNeueLTStd-Lt'" font-size="24">IOS 7 Style</tspan></text>
</svg>
