<?xml version="1.0" encoding="utf-8"?>
<!-- Generator: Adobe Illustrator 16.0.0, SVG Export Plug-In . SVG Version: 6.00 Build 0)  -->
<!DOCTYPE svg PUBLIC "-//W3C//DTD SVG 1.1//EN" "http://www.w3.org/Graphics/SVG/1.1/DTD/svg11.dtd">
<svg version="1.1" id="Layer_1" xmlns="http://www.w3.org/2000/svg" xmlns:xlink="http://www.w3.org/1999/xlink" x="0px" y="0px"
	 width="52px" height="52px" viewBox="0 0 52 52" enable-background="new 0 0 52 52" xml:space="preserve">
<path d="M133.455,8.394l-1.803,15.077l-0.268,2.237h2.254h6.896l-14.693,18.759l1.789-14.52l0.277-2.245h-2.262h-6.957
	L133.455,8.394 M136.31,1.369l-21.667,28.333h11.004l-2.671,21.667l21.667-27.661h-11.004L136.31,1.369L136.31,1.369z"/>
<path d="M-279.58-453.867c6.79,0,12.749,4.814,14.171,11.448l0.318,1.483l1.514,0.094c4.203,0.262,7.496,3.763,7.496,7.971
	c0,4.396-3.565,7.977-7.957,8c-0.046-0.003-0.091-0.006-0.137-0.007l-2.043-0.036v0.043h-28.337l-0.578-0.003
	c-5.485-0.027-9.948-4.513-9.948-9.998c0-5.514,4.485-10,9.999-10c0.175,0,0.347,0.014,0.519,0.025l0.149,0.011l1.316,0.087
	l0.598-1.176C-290.007-450.824-285.057-453.867-279.58-453.867 M-279.58-455.867c-6.423,0-11.977,3.678-14.702,9.035
	c-0.266-0.018-0.53-0.04-0.8-0.04c-6.627,0-11.999,5.372-11.999,12c0,6.607,5.34,11.965,11.938,11.998v0.003h30.925v-0.007
	c0.046,0.001,0.091,0.007,0.137,0.007c5.521,0,10-4.477,10-10c0-5.311-4.145-9.642-9.372-9.967
	C-265.049-450.283-271.66-455.867-279.58-455.867L-279.58-455.867z"/>
<g>
	<path d="M-156.629-435.456c-1.444-6.742-7.433-11.8-14.605-11.8c-2.185,0-4.258,0.47-6.127,1.313
		c-1.666-3.202-5.006-5.394-8.865-5.394c-5.522,0-10,4.477-10,9.999c0,2.46,0.898,4.702,2.373,6.442
		c-1.428,1.84-2.287,4.144-2.287,6.653c0,5.983,4.836,10.836,10.813,10.865v0.003h28.007v-0.006
		c0.042,0.001,0.082,0.006,0.124,0.006c5.001,0,9.057-4.054,9.057-9.057C-148.141-431.239-151.895-435.161-156.629-435.456z
		 M-186.227-449.336c3.092,0,5.76,1.773,7.092,4.345c-2.299,1.44-4.178,3.488-5.414,5.918c-0.241-0.016-0.48-0.036-0.725-0.036
		c-2.766,0-5.281,1.041-7.2,2.743c-1.092-1.366-1.753-3.09-1.753-4.971C-194.227-445.747-190.638-449.336-186.227-449.336z
		 M-157.157-419.373c-0.038-0.003-0.077-0.004-0.117-0.005l-2.047-0.042v0.047h-25.403l-0.594-0.003
		c-4.864-0.023-8.822-4.001-8.822-8.865c0-4.89,3.978-8.868,8.867-8.868c0.15,0,0.299,0.012,0.447,0.021l0.148,0.011l1.314,0.085
		l0.598-1.174c2.224-4.373,6.643-7.09,11.531-7.09c6.062,0,11.381,4.298,12.65,10.219l0.317,1.482l1.514,0.095
		c3.708,0.231,6.612,3.319,6.612,7.03C-150.141-422.552-153.284-419.396-157.157-419.373z"/>
	<rect x="-187.221" y="-461.366" width="2" height="7.973"/>
	<rect x="-206.193" y="-442.38" width="7.973" height="2"/>
	<rect x="-201.468" y="-453.599" transform="matrix(0.7071 0.7071 -0.7071 0.7071 -377.8763 7.0767)" width="7.974" height="2"/>
	<rect x="-175.959" y="-456.58" transform="matrix(0.7071 0.7071 -0.7071 0.7071 -371.2771 -8.8472)" width="2" height="7.972"/>
</g>
<path d="M-60.886-439.483c-1.444-6.742-7.433-11.8-14.605-11.8c-1.799,0-3.521,0.32-5.118,0.904
	c-0.949-5.108-5.404-8.98-10.788-8.98c-0.413,0-0.819,0.027-1.222,0.071c0.744,1.112,1.179,2.448,1.179,3.886c0,3.865-3.134,7-7,7
	c-1.438,0-2.773-0.435-3.886-1.179c-0.044,0.401-0.071,0.809-0.071,1.222c0,3.712,1.845,6.987,4.661,8.979
	c-1.653,1.907-2.661,4.389-2.661,7.111c0,5.983,4.836,10.836,10.813,10.865v0.003h28.007v-0.006
	c0.042,0.001,0.082,0.006,0.124,0.006c5.001,0,9.057-4.054,9.057-9.057C-52.397-435.267-56.151-439.188-60.886-439.483z
	 M-100.221-446.579c0.582,0.117,1.178,0.177,1.78,0.177c4.963,0,9-4.037,9-9c0-0.603-0.06-1.198-0.177-1.78
	c3.733,0.753,6.629,3.824,7.134,7.64c-2.713,1.444-4.928,3.699-6.322,6.442c-0.241-0.016-0.48-0.036-0.725-0.036
	c-2.537,0-4.865,0.876-6.715,2.334C-98.257-442.097-99.731-444.156-100.221-446.579z M-61.414-423.4
	c-0.038-0.003-0.077-0.004-0.117-0.005l-2.047-0.042v0.047h-25.403l-0.594-0.003c-4.864-0.023-8.822-4.001-8.822-8.865
	c0-4.89,3.978-8.868,8.867-8.868c0.15,0,0.299,0.012,0.447,0.021l0.148,0.011l1.314,0.085l0.598-1.174
	c2.224-4.373,6.643-7.09,11.531-7.09c6.062,0,11.381,4.298,12.65,10.219l0.317,1.482l1.514,0.095
	c3.708,0.231,6.612,3.319,6.612,7.03C-54.397-426.579-57.541-423.423-61.414-423.4z"/>
<g>
	<rect x="23.76" y="-430.86" width="2" height="7"/>
	<rect x="31.76" y="-434.86" width="2" height="7"/>
	<rect x="15.76" y="-434.86" width="2" height="7"/>
	<rect x="23.76" y="-420.86" width="2" height="7"/>
	<rect x="31.76" y="-424.86" width="2" height="7"/>
	<rect x="15.76" y="-424.86" width="2" height="7"/>
	<path d="M42.388-447.849c-1.596-7.445-8.207-13.029-16.127-13.029c-6.423,0-11.977,3.678-14.702,9.035
		c-0.266-0.018-0.53-0.04-0.8-0.04c-6.627,0-11.999,5.372-11.999,12c0,6.607,5.34,11.965,11.938,11.998v0.003h2.062v-2h-1.604
		l-0.447-0.003c-5.485-0.027-9.948-4.513-9.948-9.998c0-5.514,4.485-10,9.999-10c0.175,0,0.347,0.014,0.52,0.025l0.148,0.01
		l1.316,0.088l0.598-1.176c2.492-4.899,7.443-7.942,12.92-7.942c6.79,0,12.75,4.814,14.172,11.448l0.317,1.482l1.514,0.095
		c4.203,0.262,7.496,3.763,7.496,7.971c0,4.397-3.565,7.977-7.957,8c-0.05-0.003-0.093-0.005-0.137-0.007l-2.043,0.007H36.76v2
		h4.863v-0.007c0.046,0.001,0.091,0.007,0.137,0.007c5.521,0,10-4.477,10-10C51.76-443.192,47.615-447.523,42.388-447.849z"/>
</g>
<g>
	<path d="M-160.039-358.491c-1.596-7.445-8.207-13.029-16.127-13.029c-6.423,0-11.977,3.678-14.702,9.035
		c-0.266-0.018-0.53-0.04-0.8-0.04c-6.627,0-11.999,5.372-11.999,12c0,6.607,5.34,11.965,11.938,11.998v0.003h2.062v-2h-1.604
		l-0.447-0.003c-5.485-0.027-9.948-4.513-9.948-9.998c0-5.514,4.485-10,9.999-10c0.175,0,0.347,0.014,0.52,0.025l0.148,0.01
		l1.316,0.088l0.598-1.176c2.492-4.899,7.443-7.942,12.92-7.942c6.79,0,12.75,4.814,14.172,11.448l0.317,1.482l1.514,0.095
		c4.203,0.262,7.496,3.763,7.496,7.971c0,4.397-3.565,7.977-7.957,8c-0.05-0.003-0.093-0.005-0.137-0.007l-2.043,0.007h-2.863v2
		h4.863v-0.007c0.046,0.001,0.091,0.007,0.137,0.007c5.521,0,10-4.477,10-10C-150.667-353.835-154.812-358.166-160.039-358.491z"/>
	<polygon points="-178.667,-331.496 -178.667,-329.556 -178.667,-323.496 -176.667,-323.496 -176.667,-329.556 -176.667,-331.496 
		-176.667,-343.496 -178.667,-343.496 	"/>
	<polygon points="-170.667,-335.496 -170.667,-333.743 -170.667,-327.496 -168.667,-327.496 -168.667,-333.743 -168.667,-335.496 
		-168.667,-347.496 -170.667,-347.496 	"/>
	<polygon points="-186.667,-335.496 -186.667,-333.431 -186.667,-327.496 -184.667,-327.496 -184.667,-333.431 -184.667,-335.496 
		-184.667,-347.496 -186.667,-347.496 	"/>
</g>
<g>
	<polygon points="135.61,-334.585 128.728,-344.415 127.09,-343.268 133.973,-333.438 135.085,-331.849 138.561,-326.885 
		140.199,-328.031 136.724,-332.996 	"/>
	<polygon points="143.612,-334.587 136.728,-344.415 135.09,-343.267 141.976,-333.438 142.98,-332.003 146.564,-326.888 
		148.203,-328.034 144.619,-333.15 	"/>
	<polygon points="127.61,-334.585 120.728,-344.415 119.09,-343.267 125.973,-333.438 127.157,-331.745 130.562,-326.884 
		132.199,-328.031 128.796,-332.893 	"/>
	<path d="M146.718-358.225c-1.596-7.445-8.207-13.029-16.127-13.029c-6.423,0-11.977,3.678-14.702,9.035
		c-0.266-0.018-0.53-0.04-0.8-0.04c-6.627,0-11.999,5.372-11.999,12c0,6.607,5.34,11.965,11.938,11.998v0.003h2.062v-2h-1.604
		l-0.447-0.003c-5.485-0.027-9.948-4.513-9.948-9.998c0-5.514,4.485-10,9.999-10c0.175,0,0.347,0.014,0.52,0.025l0.148,0.01
		l1.316,0.088l0.598-1.176c2.492-4.899,7.443-7.942,12.92-7.942c6.79,0,12.75,4.814,14.172,11.448l0.317,1.482l1.514,0.095
		c4.203,0.262,7.496,3.763,7.496,7.971c0,4.397-3.565,7.977-7.957,8c-0.05-0.003-0.093-0.005-0.137-0.007l-1.043,0.007h0.137v2
		h0.863v-0.007c0.046,0.001,0.091,0.007,0.137,0.007c5.521,0,10-4.477,10-10C156.09-353.568,151.945-357.899,146.718-358.225z"/>
</g>
<g>
	<rect x="118.416" y="-467.307" width="2" height="7.973"/>
	<rect x="99.416" y="-448.393" width="7.973" height="2"/>
	<rect x="104.089" y="-459.659" transform="matrix(0.7071 0.7071 -0.7071 0.7071 -292.6662 -210.7596)" width="7.974" height="2"/>
	<rect x="129.598" y="-462.641" transform="matrix(0.7071 0.7071 -0.7071 0.7071 -286.0671 -226.6835)" width="2" height="7.972"/>
	<rect x="132.416" y="-426.434" width="2" height="7"/>
	<rect x="140.416" y="-430.434" width="2" height="7"/>
	<rect x="124.416" y="-430.434" width="2" height="7"/>
	<rect x="132.416" y="-416.434" width="2" height="7"/>
	<rect x="140.416" y="-420.434" width="2" height="7"/>
	<rect x="124.416" y="-420.434" width="2" height="7"/>
	<path d="M148.928-441.517c-1.444-6.742-7.433-11.8-14.605-11.8c-2.185,0-4.258,0.47-6.126,1.313
		c-1.667-3.202-5.007-5.394-8.866-5.394c-5.522,0-10,4.477-10,9.999c0,2.46,0.899,4.702,2.373,6.442
		c-1.429,1.84-2.287,4.144-2.287,6.653c0,5.983,4.836,10.836,10.813,10.865v0.003h1.188v-2h-0.721l-0.457-0.003
		c-4.864-0.023-8.822-4.001-8.822-8.865c0-4.89,3.978-8.868,8.867-8.868c0.15,0,0.299,0.012,0.447,0.022l0.148,0.01l1.314,0.085
		l0.597-1.175c2.225-4.372,6.644-7.089,11.532-7.089c6.062,0,11.382,4.298,12.649,10.219l0.318,1.483l1.514,0.094
		c3.708,0.23,6.612,3.319,6.612,7.03c0,3.878-3.144,7.035-7.017,7.057c-0.042-0.003-0.079-0.005-0.117-0.005l-2.047,0.005h-0.819v2
		h2.819v-0.006c0.042,0.001,0.082,0.006,0.124,0.006c5.001,0,9.057-4.054,9.057-9.057
		C157.416-437.3,153.662-441.222,148.928-441.517z M121.008-445.134c-0.241-0.016-0.48-0.036-0.725-0.036
		c-2.766,0-5.282,1.041-7.2,2.743c-1.092-1.366-1.753-3.09-1.753-4.971c0-4.41,3.589-7.999,8-7.999c3.091,0,5.76,1.773,7.091,4.345
		C124.123-449.611,122.243-447.563,121.008-445.134z"/>
</g>
<g>
	<rect x="232.833" y="-427.881" width="2" height="7"/>
	<rect x="240.833" y="-431.881" width="2" height="7"/>
	<rect x="224.833" y="-431.881" width="2" height="7"/>
	<rect x="232.833" y="-417.881" width="2" height="7"/>
	<rect x="240.833" y="-421.881" width="2" height="7"/>
	<rect x="224.833" y="-421.881" width="2" height="7"/>
	<path d="M249.345-442.964c-1.444-6.742-7.433-11.8-14.605-11.8c-1.799,0-3.522,0.32-5.118,0.904
		c-0.949-5.108-5.404-8.98-10.788-8.98c-0.413,0-0.819,0.027-1.222,0.071c0.744,1.112,1.179,2.448,1.179,3.886c0,3.865-3.134,7-7,7
		c-1.438,0-2.773-0.435-3.886-1.179c-0.044,0.401-0.071,0.809-0.071,1.222c0,3.712,1.845,6.987,4.661,8.979
		c-1.653,1.907-2.661,4.389-2.661,7.111c0,5.983,4.836,10.836,10.813,10.865v0.003h1.188v-2h-0.721l-0.457-0.003
		c-4.864-0.023-8.822-4.001-8.822-8.865c0-4.89,3.978-8.868,8.867-8.868c0.15,0,0.299,0.012,0.447,0.022l0.148,0.01l1.314,0.085
		l0.597-1.175c2.225-4.372,6.644-7.089,11.532-7.089c6.062,0,11.382,4.298,12.649,10.219l0.318,1.483l1.514,0.094
		c3.708,0.23,6.612,3.319,6.612,7.03c0,3.878-3.144,7.035-7.017,7.057c-0.042-0.003-0.079-0.005-0.117-0.005l-2.047,0.005h-0.819v2
		h2.819v-0.006c0.042,0.001,0.082,0.006,0.124,0.006c5.001,0,9.057-4.054,9.057-9.057
		C257.833-438.747,254.079-442.669,249.345-442.964z M221.425-446.581c-0.241-0.016-0.48-0.036-0.725-0.036
		c-2.537,0-4.865,0.876-6.715,2.334c-2.012-1.294-3.487-3.354-3.976-5.776c0.582,0.117,1.178,0.177,1.78,0.177c4.963,0,9-4.037,9-9
		c0-0.603-0.06-1.198-0.177-1.78c3.733,0.753,6.629,3.824,7.133,7.64C225.035-451.579,222.82-449.324,221.425-446.581z"/>
</g>
<g>
	<polygon points="-74.397,-327.058 -74.397,-325.117 -74.397,-319.058 -72.397,-319.058 -72.397,-325.117 -72.397,-327.058 
		-72.397,-339.058 -74.397,-339.058 	"/>
	<polygon points="-66.397,-331.058 -66.397,-329.305 -66.397,-323.058 -64.397,-323.058 -64.397,-329.305 -64.397,-331.058 
		-64.397,-343.058 -66.397,-343.058 	"/>
	<polygon points="-82.397,-331.058 -82.397,-328.992 -82.397,-323.058 -80.397,-323.058 -80.397,-328.992 -80.397,-331.058 
		-80.397,-343.058 -82.397,-343.058 	"/>
	<rect x="-88.397" y="-377.96" width="2" height="7.973"/>
	<rect x="-107.397" y="-359.046" width="7.973" height="2"/>
	<rect x="-102.724" y="-370.312" transform="matrix(0.7071 0.7071 -0.7071 0.7071 -290.0629 -38.3513)" width="7.974" height="2"/>
	<rect x="-77.216" y="-373.294" transform="matrix(0.7071 0.7071 -0.7071 0.7071 -283.4637 -54.2753)" width="2" height="7.972"/>
	<path d="M-57.886-352.17c-1.444-6.742-7.433-11.8-14.605-11.8c-2.185,0-4.258,0.47-6.127,1.313
		c-1.666-3.202-5.006-5.394-8.865-5.394c-5.522,0-10,4.477-10,9.999c0,2.46,0.898,4.702,2.373,6.442
		c-1.428,1.84-2.287,4.144-2.287,6.653c0,5.983,4.836,10.836,10.813,10.865v0.003h1.188v-2h-0.721l-0.457-0.003
		c-4.864-0.023-8.822-4.001-8.822-8.865c0-4.89,3.978-8.868,8.867-8.868c0.15,0,0.299,0.012,0.447,0.022l0.148,0.01l1.314,0.085
		l0.597-1.175c2.225-4.372,6.644-7.089,11.532-7.089c6.062,0,11.382,4.298,12.649,10.219l0.318,1.483l1.514,0.094
		c3.708,0.23,6.612,3.319,6.612,7.03c0,3.878-3.144,7.035-7.017,7.057c-0.042-0.003-0.079-0.005-0.117-0.005l-2.047,0.005h-0.819v2
		h2.819v-0.006c0.042,0.001,0.082,0.006,0.124,0.006c5.001,0,9.057-4.054,9.057-9.057C-49.397-347.953-53.151-351.875-57.886-352.17
		z M-85.806-355.787c-0.241-0.016-0.48-0.036-0.725-0.036c-2.766,0-5.281,1.042-7.2,2.743c-1.092-1.367-1.753-3.09-1.753-4.971
		c0-4.41,3.589-7.999,8-7.999c3.092,0,5.76,1.773,7.092,4.345C-82.69-360.266-84.569-358.217-85.806-355.787z"/>
</g>
<g>
	<polygon points="26,-329.574 26,-327.634 26,-321.574 28,-321.574 28,-327.634 28,-329.574 28,-341.574 26,-341.574 	"/>
	<polygon points="34,-333.574 34,-331.821 34,-325.574 36,-325.574 36,-331.821 36,-333.574 36,-345.574 34,-345.574 	"/>
	<polygon points="18,-333.574 18,-331.509 18,-325.574 20,-325.574 20,-331.509 20,-333.574 20,-345.574 18,-345.574 	"/>
	<path d="M42.512-354.687c-1.444-6.742-7.433-11.8-14.605-11.8c-1.799,0-3.521,0.32-5.118,0.904
		c-0.949-5.108-5.404-8.98-10.788-8.98c-0.413,0-0.819,0.027-1.222,0.071c0.744,1.112,1.179,2.448,1.179,3.886c0,3.865-3.134,7-7,7
		c-1.438,0-2.773-0.435-3.886-1.179C1.027-364.383,1-363.976,1-363.563c0,3.712,1.845,6.987,4.661,8.979
		C4.008-352.676,3-350.194,3-347.472c0,5.983,4.836,10.836,10.813,10.865v0.003H15v-2h-0.721l-0.457-0.003
		C8.958-338.63,5-342.607,5-347.472c0-4.89,3.978-8.868,8.867-8.868c0.15,0,0.299,0.012,0.447,0.022l0.148,0.01l1.314,0.085
		l0.597-1.175c2.225-4.372,6.644-7.089,11.532-7.089c6.062,0,11.382,4.298,12.649,10.219l0.318,1.483l1.514,0.094
		c3.708,0.23,6.612,3.319,6.612,7.03c0,3.878-3.144,7.035-7.017,7.057c-0.042-0.003-0.079-0.005-0.117-0.005l-2.047,0.005H39v2
		h2.819v-0.006c0.042,0.001,0.082,0.006,0.124,0.006c5.001,0,9.057-4.054,9.057-9.057C51-350.47,47.246-354.392,42.512-354.687z
		 M14.592-358.304c-0.241-0.016-0.48-0.036-0.725-0.036c-2.537,0-4.865,0.876-6.715,2.334c-2.012-1.294-3.486-3.354-3.976-5.776
		c0.582,0.117,1.178,0.177,1.78,0.177c4.963,0,9-4.037,9-9c0-0.603-0.06-1.198-0.177-1.78c3.733,0.753,6.629,3.824,7.134,7.641
		C18.201-363.302,15.986-361.046,14.592-358.304z"/>
</g>
<g>
	<polygon points="243.035,-328.63 236.152,-338.46 234.515,-337.313 241.397,-327.482 242.51,-325.894 245.985,-320.93 
		247.624,-322.076 244.148,-327.041 	"/>
	<polygon points="251.037,-328.632 244.152,-338.46 242.515,-337.312 249.4,-327.483 250.405,-326.048 253.989,-320.933 
		255.628,-322.079 252.044,-327.195 	"/>
	<polygon points="235.035,-328.63 228.152,-338.46 226.515,-337.312 233.397,-327.482 234.582,-325.79 237.986,-320.929 
		239.624,-322.076 236.221,-326.938 	"/>
	<rect x="222.515" y="-376.179" width="2" height="7.973"/>
	<rect x="203.515" y="-357.265" width="7.973" height="2"/>
	<rect x="208.188" y="-368.531" transform="matrix(0.7071 0.7071 -0.7071 0.7071 -197.7393 -257.6777)" width="7.974" height="2"/>
	<rect x="233.696" y="-371.513" transform="matrix(0.7071 0.7071 -0.7071 0.7071 -191.1401 -273.6016)" width="2" height="7.972"/>
	<path d="M253.026-350.389c-1.444-6.742-7.433-11.8-14.605-11.8c-2.185,0-4.258,0.47-6.126,1.313
		c-1.667-3.202-5.007-5.394-8.866-5.394c-5.522,0-10,4.477-10,9.999c0,2.46,0.899,4.702,2.373,6.442
		c-1.429,1.84-2.287,4.144-2.287,6.653c0,5.983,4.836,10.836,10.813,10.865v0.003h1.188v-2h-0.721l-0.457-0.003
		c-4.864-0.023-8.822-4.001-8.822-8.865c0-4.89,3.978-8.868,8.867-8.868c0.15,0,0.299,0.012,0.447,0.022l0.148,0.01l1.314,0.085
		l0.597-1.175c2.225-4.372,6.644-7.089,11.532-7.089c6.062,0,11.382,4.298,12.649,10.219l0.318,1.483l1.514,0.094
		c3.708,0.23,6.612,3.319,6.612,7.03c0,3.878-3.144,7.035-7.017,7.057c-0.042-0.003-0.079-0.005-0.117-0.005l-0.047,0.005h-0.819v2
		h0.819v-0.006c0.042,0.001,0.082,0.006,0.124,0.006c5.001,0,9.057-4.054,9.057-9.057
		C261.515-346.172,257.761-350.094,253.026-350.389z M225.106-354.006c-0.241-0.016-0.48-0.036-0.725-0.036
		c-2.766,0-5.282,1.042-7.2,2.743c-1.092-1.367-1.753-3.09-1.753-4.971c0-4.41,3.589-7.999,8-7.999c3.091,0,5.76,1.773,7.091,4.345
		C228.222-358.484,226.342-356.436,225.106-354.006z"/>
</g>
<g>
	<polygon points="-480.396,-232.145 -487.278,-241.975 -488.916,-240.827 -482.033,-230.997 -480.921,-229.408 -477.445,-224.444 
		-475.807,-225.591 -479.282,-230.556 	"/>
	<polygon points="-472.394,-232.146 -479.278,-241.975 -480.916,-240.826 -474.03,-230.998 -473.025,-229.563 -469.441,-224.447 
		-467.803,-225.594 -471.387,-230.71 	"/>
	<polygon points="-488.396,-232.145 -495.278,-241.975 -496.916,-240.826 -490.033,-230.997 -488.849,-229.305 -485.444,-224.443 
		-483.807,-225.591 -487.21,-230.452 	"/>
	<path d="M-470.404-253.903c-1.444-6.742-7.433-11.8-14.605-11.8c-1.799,0-3.522,0.32-5.118,0.904
		c-0.949-5.108-5.404-8.98-10.788-8.98c-0.413,0-0.819,0.027-1.222,0.071c0.744,1.112,1.179,2.448,1.179,3.886c0,3.865-3.134,7-7,7
		c-1.438,0-2.773-0.435-3.886-1.179c-0.044,0.401-0.071,0.809-0.071,1.222c0,3.712,1.845,6.987,4.661,8.979
		c-1.653,1.907-2.661,4.389-2.661,7.111c0,5.983,4.836,10.836,10.813,10.865v0.003h1.188v-2h-0.721l-0.457-0.003
		c-4.864-0.023-8.822-4.001-8.822-8.865c0-4.89,3.978-8.868,8.867-8.868c0.15,0,0.299,0.012,0.447,0.022l0.148,0.01l1.314,0.085
		l0.597-1.175c2.225-4.372,6.644-7.089,11.532-7.089c6.062,0,11.382,4.298,12.649,10.219l0.318,1.483l1.514,0.094
		c3.708,0.23,6.612,3.319,6.612,7.03c0,3.878-3.144,7.035-7.017,7.057c-0.042-0.003-0.079-0.005-0.117-0.005l-0.047,0.005h-0.819v2
		h0.819v-0.006c0.042,0.001,0.082,0.006,0.124,0.006c5.001,0,9.057-4.054,9.057-9.057
		C-461.916-249.687-465.67-253.608-470.404-253.903z M-498.324-257.521c-0.241-0.016-0.48-0.036-0.725-0.036
		c-2.537,0-4.865,0.876-6.715,2.334c-2.012-1.294-3.487-3.354-3.976-5.776c0.582,0.117,1.178,0.177,1.78,0.177c4.963,0,9-4.037,9-9
		c0-0.603-0.06-1.198-0.177-1.78c3.733,0.753,6.629,3.824,7.133,7.641C-494.714-262.519-496.929-260.263-498.324-257.521z"/>
</g>
<g>
	<rect x="-487.916" y="-335.991" width="2" height="4"/>
	<rect x="-479.916" y="-340.013" width="2" height="4.021"/>
	<rect x="-495.916" y="-340.013" width="2" height="4.021"/>
	<path d="M-469.288-355.979c-1.596-7.445-8.207-13.029-16.127-13.029c-6.423,0-11.977,3.678-14.702,9.035
		c-0.266-0.018-0.53-0.04-0.8-0.04c-6.627,0-11.999,5.372-11.999,12c0,6.607,5.34,11.965,11.938,11.998v0.003h2.062v-2h-1.604
		l-0.447-0.003c-5.485-0.027-9.948-4.513-9.948-9.998c0-5.514,4.485-10,9.999-10c0.175,0,0.347,0.014,0.52,0.025l0.148,0.01
		l1.316,0.088l0.598-1.176c2.492-4.899,7.443-7.942,12.92-7.942c6.79,0,12.75,4.814,14.172,11.448l0.317,1.482l1.514,0.095
		c4.203,0.262,7.496,3.763,7.496,7.971c0,4.397-3.565,7.977-7.957,8c-0.05-0.003-0.093-0.005-0.137-0.007l-2.043,0.007h-2.863v2
		h4.863v-0.007c0.046,0.001,0.091,0.007,0.137,0.007c5.521,0,10-4.477,10-10C-459.916-351.323-464.061-355.654-469.288-355.979z"/>
	<circle cx="-478.916" cy="-330.971" r="1.5"/>
	<circle cx="-486.916" cy="-327.002" r="1.5"/>
	<circle cx="-494.916" cy="-331.013" r="1.5"/>
</g>
<g>
	<rect x="-394.995" y="-375.445" width="2" height="7.973"/>
	<rect x="-413.995" y="-356.531" width="7.973" height="2"/>
	<rect x="-409.322" y="-367.798" transform="matrix(0.7071 0.7071 -0.7071 0.7071 -378.0851 179.1825)" width="7.974" height="2"/>
	<rect x="-383.813" y="-370.78" transform="matrix(0.7071 0.7071 -0.7071 0.7071 -371.486 163.2585)" width="2" height="7.972"/>
	<path d="M-364.483-349.655c-1.444-6.742-7.433-11.8-14.605-11.8c-2.185,0-4.258,0.47-6.126,1.313
		c-1.667-3.202-5.007-5.394-8.866-5.394c-5.522,0-10,4.477-10,9.999c0,2.46,0.899,4.702,2.373,6.442
		c-1.429,1.84-2.287,4.144-2.287,6.653c0,5.983,4.836,10.836,10.813,10.865v0.003h1.188v-2h-0.721l-0.457-0.003
		c-4.864-0.023-8.822-4.001-8.822-8.865c0-4.89,3.978-8.868,8.867-8.868c0.15,0,0.299,0.012,0.447,0.022l0.148,0.01l1.314,0.085
		l0.597-1.175c2.225-4.372,6.644-7.089,11.532-7.089c6.062,0,11.382,4.298,12.649,10.219l0.318,1.483l1.514,0.094
		c3.708,0.23,6.612,3.319,6.612,7.03c0,3.878-3.144,7.035-7.017,7.057c-0.042-0.003-0.079-0.005-0.117-0.005l-2.047,0.005h-0.819v2
		h2.819v-0.006c0.042,0.001,0.082,0.006,0.124,0.006c5.001,0,9.057-4.054,9.057-9.057
		C-355.995-345.438-359.749-349.36-364.483-349.655z M-392.403-353.272c-0.241-0.016-0.48-0.036-0.725-0.036
		c-2.766,0-5.282,1.042-7.2,2.743c-1.092-1.367-1.753-3.09-1.753-4.971c0-4.41,3.589-7.999,8-7.999c3.091,0,5.76,1.773,7.091,4.345
		C-389.288-357.751-391.168-355.702-392.403-353.272z"/>
	<rect x="-380.995" y="-331.557" width="2" height="4"/>
	<rect x="-372.995" y="-335.578" width="2" height="4.021"/>
	<rect x="-388.995" y="-335.578" width="2" height="4.021"/>
	<circle cx="-371.995" cy="-326.536" r="1.5"/>
	<circle cx="-379.995" cy="-322.567" r="1.5"/>
	<circle cx="-387.995" cy="-326.578" r="1.5"/>
</g>
<g>
	<path d="M-263.558-350.612c-1.444-6.742-7.433-11.8-14.605-11.8c-1.799,0-3.522,0.32-5.118,0.904
		c-0.949-5.108-5.404-8.98-10.788-8.98c-0.413,0-0.819,0.027-1.222,0.071c0.744,1.112,1.179,2.448,1.179,3.886c0,3.865-3.134,7-7,7
		c-1.438,0-2.773-0.435-3.886-1.179c-0.044,0.401-0.071,0.809-0.071,1.222c0,3.712,1.845,6.987,4.661,8.979
		c-1.653,1.907-2.661,4.389-2.661,7.111c0,5.983,4.836,10.836,10.813,10.865v0.003h1.188v-2h-0.721l-0.457-0.003
		c-4.864-0.023-8.822-4.001-8.822-8.865c0-4.89,3.978-8.868,8.867-8.868c0.15,0,0.299,0.012,0.447,0.022l0.148,0.01l1.314,0.085
		l0.597-1.175c2.225-4.372,6.644-7.089,11.532-7.089c6.062,0,11.382,4.298,12.649,10.219l0.318,1.483l1.514,0.094
		c3.708,0.23,6.612,3.319,6.612,7.03c0,3.878-3.144,7.035-7.017,7.057c-0.042-0.003-0.079-0.005-0.117-0.005l-2.047,0.005h-0.819v2
		h2.819v-0.006c0.042,0.001,0.082,0.006,0.124,0.006c5.001,0,9.057-4.054,9.057-9.057
		C-255.069-346.396-258.823-350.317-263.558-350.612z M-291.478-354.229c-0.241-0.016-0.48-0.036-0.725-0.036
		c-2.537,0-4.865,0.876-6.715,2.334c-2.012-1.294-3.487-3.354-3.976-5.776c0.582,0.117,1.178,0.177,1.78,0.177c4.963,0,9-4.037,9-9
		c0-0.603-0.06-1.198-0.177-1.78c3.733,0.753,6.629,3.824,7.133,7.641C-287.867-359.228-290.082-356.972-291.478-354.229z"/>
	<rect x="-280.069" y="-332.514" width="2" height="4"/>
	<rect x="-272.069" y="-336.535" width="2" height="4.021"/>
	<rect x="-288.069" y="-336.535" width="2" height="4.021"/>
	<circle cx="-271.069" cy="-327.493" r="1.5"/>
	<circle cx="-279.069" cy="-323.524" r="1.5"/>
	<circle cx="-287.069" cy="-327.535" r="1.5"/>
</g>
<g>
	<path d="M-366.867-257.582c-1.596-7.445-8.207-13.029-16.127-13.029c-6.423,0-11.977,3.678-14.702,9.035
		c-0.266-0.018-0.53-0.04-0.8-0.04c-6.627,0-11.999,5.372-11.999,12c0,6.607,5.34,11.965,11.938,11.998v0.003h6.062v-2h-5.604
		l-0.447-0.003c-5.485-0.027-9.948-4.513-9.948-9.998c0-5.514,4.485-10,9.999-10c0.175,0,0.347,0.014,0.52,0.025l0.148,0.01
		l1.316,0.088l0.598-1.176c2.492-4.899,7.443-7.942,12.92-7.942c6.79,0,12.75,4.814,14.172,11.448l0.317,1.482l1.514,0.095
		c4.203,0.262,7.496,3.763,7.496,7.971c0,4.397-3.565,7.977-7.957,8c-0.05-0.003-0.093-0.005-0.137-0.007l-5.043,0.007h0.137v2
		h4.863v-0.007c0.046,0.001,0.091,0.007,0.137,0.007c5.521,0,10-4.477,10-10C-357.495-252.926-361.64-257.257-366.867-257.582z"/>
	<polygon points="-382.653,-237.611 -380.884,-237.611 -380.453,-237.611 -378.443,-237.611 -384.857,-246.772 -386.495,-245.625 
		-382.284,-239.611 -384.055,-239.611 -386.495,-239.611 -385.224,-237.795 -384.111,-236.206 -378.134,-227.611 -376.495,-228.758 
		-382.473,-237.354 	"/>
</g>
<g>
	<rect x="-291.069" y="-276.712" width="2" height="7.973"/>
	<rect x="-310.069" y="-257.798" width="7.973" height="2"/>
	<rect x="-305.396" y="-269.064" transform="matrix(0.7071 0.7071 -0.7071 0.7071 -277.8309 134.6142)" width="7.974" height="2"/>
	<rect x="-279.888" y="-272.046" transform="matrix(0.7071 0.7071 -0.7071 0.7071 -271.2318 118.6902)" width="2" height="7.972"/>
	<path d="M-260.558-250.922c-1.444-6.742-7.433-11.8-14.605-11.8c-2.185,0-4.258,0.47-6.127,1.313
		c-1.666-3.202-5.006-5.394-8.865-5.394c-5.522,0-10,4.477-10,9.999c0,2.46,0.898,4.702,2.373,6.442
		c-1.428,1.84-2.287,4.144-2.287,6.653c0,5.983,4.836,10.836,10.813,10.865v0.003h4.188v-2h-3.721l-0.457-0.003
		c-4.864-0.023-8.822-4.001-8.822-8.865c0-4.89,3.978-8.868,8.867-8.868c0.15,0,0.299,0.012,0.447,0.022l0.148,0.01l1.314,0.085
		l0.597-1.175c2.225-4.372,6.644-7.089,11.532-7.089c6.062,0,11.382,4.298,12.649,10.219l0.318,1.483l1.514,0.094
		c3.708,0.23,6.612,3.319,6.612,7.03c0,3.878-3.144,7.035-7.017,7.057c-0.042-0.003-0.079-0.005-0.117-0.005l-2.047,0.005h-3.819v2
		h5.819v-0.006c0.042,0.001,0.082,0.006,0.124,0.006c5.001,0,9.057-4.054,9.057-9.057
		C-252.069-246.705-255.823-250.627-260.558-250.922z M-288.478-254.539c-0.241-0.016-0.48-0.036-0.725-0.036
		c-2.766,0-5.281,1.041-7.2,2.743c-1.092-1.366-1.753-3.09-1.753-4.971c0-4.41,3.589-7.999,8-7.999c3.092,0,5.76,1.773,7.092,4.345
		C-285.362-259.017-287.241-256.969-288.478-254.539z"/>
	<polygon points="-276.228,-232.832 -274.458,-232.832 -274.027,-232.832 -272.018,-232.832 -278.432,-241.993 -280.069,-240.846 
		-275.858,-234.832 -277.629,-234.832 -280.069,-234.832 -278.798,-233.016 -277.686,-231.427 -271.708,-222.832 -270.069,-223.979 
		-276.047,-232.574 	"/>
</g>
<g>
	<path d="M-160.973-253.218c-1.444-6.742-7.433-11.8-14.605-11.8c-1.799,0-3.521,0.32-5.118,0.904
		c-0.949-5.108-5.404-8.98-10.788-8.98c-0.413,0-0.819,0.027-1.222,0.071c0.744,1.112,1.179,2.448,1.179,3.886c0,3.865-3.134,7-7,7
		c-1.438,0-2.773-0.435-3.886-1.179c-0.044,0.401-0.071,0.809-0.071,1.222c0,3.712,1.845,6.987,4.661,8.979
		c-1.653,1.907-2.661,4.389-2.661,7.111c0,5.983,4.836,10.836,10.813,10.865v0.003h4.188v-2h-3.721l-0.457-0.003
		c-4.864-0.023-8.822-4.001-8.822-8.865c0-4.89,3.978-8.868,8.867-8.868c0.15,0,0.299,0.012,0.447,0.022l0.148,0.01l1.314,0.085
		l0.597-1.175c2.225-4.372,6.644-7.089,11.532-7.089c6.062,0,11.382,4.298,12.649,10.219l0.318,1.483l1.514,0.094
		c3.708,0.23,6.612,3.319,6.612,7.03c0,3.878-3.144,7.035-7.017,7.057c-0.042-0.003-0.079-0.005-0.117-0.005l-2.047,0.005h-3.819v2
		h5.819v-0.006c0.042,0.001,0.082,0.006,0.124,0.006c5.001,0,9.057-4.054,9.057-9.057
		C-152.484-249.001-156.238-252.923-160.973-253.218z M-188.893-256.835c-0.241-0.016-0.48-0.036-0.725-0.036
		c-2.537,0-4.865,0.876-6.715,2.334c-2.012-1.294-3.486-3.354-3.976-5.776c0.582,0.117,1.178,0.177,1.78,0.177c4.963,0,9-4.037,9-9
		c0-0.603-0.06-1.198-0.177-1.78c3.733,0.753,6.629,3.824,7.134,7.64C-185.283-261.833-187.498-259.578-188.893-256.835z"/>
	<polygon points="-176.643,-235.128 -174.873,-235.128 -174.442,-235.128 -172.433,-235.128 -178.847,-244.289 -180.484,-243.142 
		-176.273,-237.128 -178.044,-237.128 -180.484,-237.128 -179.213,-235.312 -178.101,-233.723 -172.123,-225.128 -170.484,-226.274 
		-176.462,-234.87 	"/>
</g>
<g>
	<path d="M-60.088-257.082c-1.596-7.445-8.207-13.029-16.127-13.029c-6.423,0-11.977,3.678-14.702,9.035
		c-0.266-0.018-0.53-0.04-0.8-0.04c-6.627,0-11.999,5.372-11.999,12c0,6.607,5.34,11.965,11.938,11.998v0.003h1.062v-2h-0.604
		l-0.447-0.003c-5.485-0.027-9.948-4.513-9.948-9.998c0-5.514,4.485-10,9.999-10c0.175,0,0.347,0.014,0.52,0.025l0.148,0.01
		l1.316,0.088l0.598-1.176c2.492-4.899,7.443-7.942,12.92-7.942c6.79,0,12.75,4.814,14.172,11.448l0.317,1.482l1.514,0.095
		c4.203,0.262,7.496,3.763,7.496,7.971c0,4.397-3.565,7.977-7.957,8c-0.05-0.003-0.093-0.005-0.137-0.007l-0.906,0.007v2h0.863
		v-0.007c0.046,0.001,0.091,0.007,0.137,0.007c5.521,0,10-4.477,10-10C-50.716-252.426-54.86-256.757-60.088-257.082z"/>
	
		<rect x="-91.281" y="-239.117" transform="matrix(-0.5736 -0.8191 0.8191 -0.5736 60.1993 -444.9005)" width="11.183" height="1.999"/>
	
		<rect x="-73.307" y="-239.117" transform="matrix(-0.5736 -0.8191 0.8191 -0.5736 88.4848 -430.1773)" width="11.183" height="1.999"/>
	<polygon points="-74.874,-234.111 -73.104,-234.111 -72.674,-234.111 -70.664,-234.111 -77.078,-243.272 -78.716,-242.125 
		-74.505,-236.111 -76.275,-236.111 -78.716,-236.111 -77.444,-234.295 -76.332,-232.706 -71.716,-226.111 -70.077,-227.258 
		-74.693,-233.854 	"/>
</g>
<g>
	<rect x="14.76" y="-276.549" width="2" height="7.973"/>
	<rect x="-4.24" y="-257.635" width="7.973" height="2"/>
	<rect x="0.433" y="-268.901" transform="matrix(0.7071 0.7071 -0.7071 0.7071 -188.1403 -81.5918)" width="7.974" height="2"/>
	<rect x="25.942" y="-271.883" transform="matrix(0.7071 0.7071 -0.7071 0.7071 -181.5412 -97.5158)" width="2" height="7.972"/>
	<path d="M45.271-250.759c-1.444-6.742-7.433-11.8-14.605-11.8c-2.185,0-4.258,0.47-6.126,1.313
		c-1.667-3.202-5.007-5.394-8.866-5.394c-5.522,0-10,4.477-10,9.999c0,2.46,0.899,4.702,2.373,6.442
		c-1.429,1.84-2.287,4.144-2.287,6.653c0,5.983,4.836,10.836,10.813,10.865v0.003h0.188v-2l-0.178-0.003
		c-4.864-0.023-8.822-4.001-8.822-8.865c0-4.89,3.978-8.868,8.867-8.868c0.15,0,0.299,0.012,0.447,0.022l0.148,0.01l1.314,0.085
		l0.597-1.175c2.225-4.372,6.644-7.089,11.532-7.089c6.062,0,11.382,4.298,12.649,10.219l0.318,1.483l1.514,0.094
		c3.708,0.23,6.612,3.319,6.612,7.03c0,3.878-3.144,7.035-7.017,7.057c-0.042-0.003-0.079-0.005-0.117-0.005l-0.866,0.005v2h0.819
		v-0.006c0.042,0.001,0.082,0.006,0.124,0.006c5.001,0,9.057-4.054,9.057-9.057C53.76-246.542,50.006-250.464,45.271-250.759z
		 M17.352-254.376c-0.241-0.016-0.48-0.036-0.725-0.036c-2.766,0-5.282,1.042-7.2,2.743c-1.092-1.367-1.753-3.09-1.753-4.971
		c0-4.41,3.589-7.999,8-7.999c3.091,0,5.76,1.773,7.091,4.345C20.467-258.854,18.587-256.806,17.352-254.376z"/>
	
		<rect x="15.181" y="-234.679" transform="matrix(-0.5736 -0.8191 0.8191 -0.5736 224.0978 -350.7112)" width="11.183" height="1.999"/>
	
		<rect x="33.156" y="-234.679" transform="matrix(-0.5736 -0.8191 0.8191 -0.5736 252.3833 -335.988)" width="11.183" height="1.999"/>
	<polygon points="31.589,-229.673 33.358,-229.673 33.789,-229.673 35.799,-229.673 29.385,-238.834 27.747,-237.687 
		31.958,-231.673 30.188,-231.673 27.747,-231.673 29.019,-229.856 30.131,-228.268 34.747,-221.673 36.386,-222.819 
		31.77,-229.415 	"/>
</g>
<g>
	<path d="M147.109-253.717c-1.444-6.742-7.433-11.8-14.605-11.8c-1.799,0-3.522,0.32-5.118,0.904
		c-0.949-5.108-5.404-8.98-10.788-8.98c-0.413,0-0.819,0.027-1.222,0.071c0.744,1.112,1.179,2.448,1.179,3.886c0,3.865-3.134,7-7,7
		c-1.438,0-2.773-0.435-3.886-1.179c-0.044,0.401-0.071,0.809-0.071,1.222c0,3.712,1.845,6.987,4.661,8.979
		c-1.653,1.907-2.661,4.389-2.661,7.111c0,5.983,4.836,10.836,10.813,10.865v0.003h0.188v-2l-0.178-0.003
		c-4.864-0.023-8.822-4.001-8.822-8.865c0-4.89,3.978-8.868,8.867-8.868c0.15,0,0.299,0.012,0.447,0.022l0.148,0.01l1.314,0.085
		l0.597-1.175c2.225-4.372,6.644-7.089,11.532-7.089c6.062,0,11.382,4.298,12.649,10.219l0.318,1.483l1.514,0.094
		c3.708,0.23,6.612,3.319,6.612,7.03c0,3.878-3.144,7.035-7.017,7.057c-0.042-0.003-0.079-0.005-0.117-0.005l-0.866,0.005v2h0.819
		v-0.006c0.042,0.001,0.082,0.006,0.124,0.006c5.001,0,9.057-4.054,9.057-9.057C155.598-249.5,151.844-253.422,147.109-253.717z
		 M119.189-257.334c-0.241-0.016-0.48-0.036-0.725-0.036c-2.537,0-4.865,0.876-6.715,2.334c-2.012-1.294-3.487-3.354-3.976-5.776
		c0.582,0.117,1.178,0.177,1.78,0.177c4.963,0,9-4.037,9-9c0-0.603-0.06-1.198-0.177-1.78c3.733,0.753,6.629,3.824,7.133,7.641
		C122.8-262.332,120.585-260.076,119.189-257.334z"/>
	
		<rect x="117.018" y="-237.637" transform="matrix(-0.5736 -0.8191 0.8191 -0.5736 386.7752 -271.9505)" width="11.183" height="1.999"/>
	
		<rect x="134.993" y="-237.637" transform="matrix(-0.5736 -0.8191 0.8191 -0.5736 415.0607 -257.2274)" width="11.183" height="1.999"/>
	<polygon points="133.426,-232.631 135.195,-232.631 135.626,-232.631 137.636,-232.631 131.222,-241.792 129.584,-240.645 
		133.795,-234.631 132.024,-234.631 129.584,-234.631 130.855,-232.814 131.968,-231.226 136.584,-224.631 138.223,-225.777 
		133.606,-232.373 	"/>
</g>
<g>
	<g>
		<path d="M-263.453-167.262c-1.596-7.445-8.207-13.029-16.127-13.029c-6.423,0-11.977,3.678-14.702,9.035
			c-0.266-0.018-0.53-0.04-0.8-0.04c-6.627,0-11.999,5.372-11.999,12c0,6.607,5.34,11.965,11.938,11.998v0.003h2.062v-2h-1.604
			l-0.447-0.003c-5.485-0.027-9.948-4.513-9.948-9.998c0-5.514,4.485-10,9.999-10c0.175,0,0.347,0.014,0.52,0.025l0.148,0.01
			l1.316,0.088l0.598-1.176c2.492-4.899,7.443-7.942,12.92-7.942c6.79,0,12.75,4.814,14.172,11.448l0.317,1.482l1.514,0.095
			c4.203,0.262,7.496,3.763,7.496,7.971c0,4.397-3.565,7.977-7.957,8c-0.05-0.003-0.093-0.005-0.137-0.007l-2.043,0.007h-2.863v2
			h4.863v-0.007c0.046,0.001,0.091,0.007,0.137,0.007c5.521,0,10-4.477,10-10C-254.081-162.605-258.226-166.937-263.453-167.262z"/>
	</g>
	<g>
		<circle cx="-288.581" cy="-153.719" r="1.5"/>
	</g>
	<g>
		<circle cx="-284.581" cy="-147.795" r="1.5"/>
	</g>
	<g>
		<circle cx="-276.581" cy="-147.795" r="1.5"/>
	</g>
	<g>
		<circle cx="-280.581" cy="-153.719" r="1.5"/>
	</g>
	<g>
		<circle cx="-272.581" cy="-153.719" r="1.5"/>
	</g>
	<g>
		<circle cx="-288.581" cy="-141.773" r="1.5"/>
	</g>
	<g>
		<circle cx="-280.581" cy="-141.773" r="1.5"/>
	</g>
	<g>
		<circle cx="-272.581" cy="-141.773" r="1.5"/>
	</g>
</g>
<g>
	<g>
		<rect x="-187.667" y="-182.739" width="2" height="7.973"/>
	</g>
	<g>
		<rect x="-206.667" y="-163.825" width="7.973" height="2"/>
	</g>
	<g>
		<rect x="-201.994" y="-175.092" transform="matrix(0.7071 0.7071 -0.7071 0.7071 -181.0963 89.0217)" width="7.974" height="2"/>
	</g>
	<g>
		<rect x="-176.485" y="-178.074" transform="matrix(0.7071 0.7071 -0.7071 0.7071 -174.4972 73.0977)" width="2" height="7.972"/>
	</g>
	<g>
		<path d="M-157.155-156.949c-1.444-6.742-7.433-11.8-14.605-11.8c-2.185,0-4.258,0.47-6.127,1.313
			c-1.666-3.202-5.006-5.394-8.865-5.394c-5.522,0-10,4.477-10,9.999c0,2.46,0.898,4.702,2.373,6.442
			c-1.428,1.84-2.287,4.144-2.287,6.653c0,5.983,4.836,10.836,10.813,10.865v0.003h1.188v-2h-0.721l-0.457-0.003
			c-4.864-0.023-8.822-4.001-8.822-8.865c0-4.89,3.978-8.868,8.867-8.868c0.15,0,0.299,0.012,0.447,0.022l0.148,0.01l1.314,0.085
			l0.597-1.175c2.225-4.372,6.644-7.089,11.532-7.089c6.062,0,11.382,4.298,12.649,10.219l0.318,1.483l1.514,0.094
			c3.708,0.23,6.612,3.319,6.612,7.03c0,3.878-3.144,7.035-7.017,7.057c-0.042-0.003-0.079-0.005-0.117-0.005l-2.047,0.005h-1.819v2
			h3.819v-0.006c0.042,0.001,0.082,0.006,0.124,0.006c5.001,0,9.057-4.054,9.057-9.057
			C-148.667-152.732-152.421-156.654-157.155-156.949z M-185.075-160.566c-0.241-0.016-0.48-0.036-0.725-0.036
			c-2.766,0-5.281,1.042-7.2,2.743c-1.092-1.367-1.753-3.09-1.753-4.971c0-4.41,3.589-7.999,8-7.999c3.092,0,5.76,1.773,7.092,4.345
			C-181.96-165.045-183.839-162.996-185.075-160.566z"/>
	</g>
	<g>
		<circle cx="-181.178" cy="-145.355" r="1.5"/>
	</g>
	<g>
		<circle cx="-177.178" cy="-139.355" r="1.5"/>
	</g>
	<g>
		<circle cx="-169.178" cy="-139.355" r="1.5"/>
	</g>
	<g>
		<circle cx="-173.178" cy="-145.355" r="1.5"/>
	</g>
	<g>
		<circle cx="-165.178" cy="-145.355" r="1.5"/>
	</g>
	<g>
		<circle cx="-181.178" cy="-133.334" r="1.5"/>
	</g>
	<g>
		<circle cx="-173.178" cy="-133.334" r="1.5"/>
	</g>
	<g>
		<circle cx="-165.178" cy="-133.334" r="1.5"/>
	</g>
</g>
<g>
	<g>
		<path d="M-61.204-160.905c-1.444-6.742-7.433-11.8-14.605-11.8c-1.799,0-3.521,0.32-5.118,0.904
			c-0.949-5.108-5.404-8.98-10.788-8.98c-0.413,0-0.819,0.027-1.222,0.071c0.744,1.112,1.179,2.448,1.179,3.886c0,3.865-3.134,7-7,7
			c-1.438,0-2.773-0.435-3.886-1.179c-0.044,0.401-0.071,0.809-0.071,1.222c0,3.712,1.845,6.987,4.661,8.979
			c-1.653,1.907-2.661,4.389-2.661,7.111c0,5.983,4.836,10.836,10.813,10.865v0.003h1.188v-2h-0.721l-0.457-0.003
			c-4.864-0.023-8.822-4.001-8.822-8.865c0-4.89,3.978-8.868,8.867-8.868c0.15,0,0.299,0.012,0.447,0.022l0.148,0.01l1.314,0.085
			l0.597-1.175c2.225-4.372,6.644-7.089,11.532-7.089c6.062,0,11.382,4.298,12.649,10.219l0.318,1.483l1.514,0.094
			c3.708,0.23,6.612,3.319,6.612,7.03c0,3.878-3.144,7.035-7.017,7.057c-0.042-0.003-0.079-0.005-0.117-0.005l-2.047,0.005h-1.819v2
			h3.819v-0.006c0.042,0.001,0.082,0.006,0.124,0.006c5.001,0,9.057-4.054,9.057-9.057C-52.716-156.688-56.47-160.61-61.204-160.905
			z M-89.124-164.522c-0.241-0.016-0.48-0.036-0.725-0.036c-2.537,0-4.865,0.876-6.715,2.334c-2.012-1.294-3.486-3.354-3.976-5.776
			c0.582,0.117,1.178,0.177,1.78,0.177c4.963,0,9-4.037,9-9c0-0.603-0.06-1.198-0.177-1.78c3.733,0.753,6.629,3.824,7.134,7.64
			C-85.515-169.521-87.729-167.266-89.124-164.522z"/>
	</g>
	<g>
		<circle cx="-85.216" cy="-149.313" r="1.5"/>
	</g>
	<g>
		<circle cx="-81.216" cy="-143.313" r="1.5"/>
	</g>
	<g>
		<circle cx="-73.216" cy="-143.313" r="1.5"/>
	</g>
	<g>
		<circle cx="-77.216" cy="-149.313" r="1.5"/>
	</g>
	<g>
		<circle cx="-69.216" cy="-149.313" r="1.5"/>
	</g>
	<g>
		<circle cx="-85.216" cy="-137.291" r="1.5"/>
	</g>
	<g>
		<circle cx="-77.216" cy="-137.291" r="1.5"/>
	</g>
	<g>
		<circle cx="-69.216" cy="-137.291" r="1.5"/>
	</g>
</g>
<g>
	<path d="M249.961-259.791c-1.596-7.445-8.207-13.029-16.127-13.029c-6.423,0-11.977,3.678-14.702,9.035
		c-0.266-0.018-0.53-0.04-0.8-0.04c-6.627,0-11.999,5.372-11.999,12c0,6.607,5.34,11.965,11.938,11.998v0.003h2.062v-2h-1.604
		l-0.447-0.003c-5.485-0.027-9.948-4.513-9.948-9.998c0-5.514,4.485-10,9.999-10c0.175,0,0.347,0.014,0.52,0.025l0.148,0.01
		l1.316,0.088l0.598-1.176c2.492-4.899,7.443-7.942,12.92-7.942c6.79,0,12.75,4.814,14.172,11.448l0.317,1.482l1.514,0.095
		c4.203,0.262,7.496,3.763,7.496,7.971c0,4.397-3.565,7.977-7.957,8c-0.05-0.003-0.093-0.005-0.137-0.007l-2.043,0.007h-2.863v2
		h4.863v-0.007c0.046,0.001,0.091,0.007,0.137,0.007c5.521,0,10-4.477,10-10C259.333-255.135,255.188-259.466,249.961-259.791z"/>
	<circle cx="224.333" cy="-232.32" r="1.5"/>
	<circle cx="232.333" cy="-226.32" r="1.5"/>
	<circle cx="240.333" cy="-230.32" r="1.5"/>
	<rect x="223.333" y="-248.796" width="2" height="11.976"/>
	<polygon points="233.333,-230.855 233.333,-232.796 233.333,-244.796 231.333,-244.796 231.333,-232.796 231.333,-230.855 
		231.333,-230.82 233.333,-230.82 	"/>
	<polygon points="241.333,-235.043 241.333,-236.796 241.333,-248.796 239.333,-248.796 239.333,-236.796 239.333,-235.043 
		239.333,-234.82 241.333,-234.82 	"/>
</g>
<g>
	<rect x="-498.416" y="-188.178" width="2" height="7.973"/>
	<rect x="-517.416" y="-169.264" width="7.973" height="2"/>
	<rect x="-512.743" y="-180.53" transform="matrix(0.7071 0.7071 -0.7071 0.7071 -275.9582 307.1615)" width="7.974" height="2"/>
	<rect x="-487.234" y="-183.512" transform="matrix(0.7071 0.7071 -0.7071 0.7071 -269.3591 291.2375)" width="2" height="7.972"/>
	<path d="M-467.904-162.388c-1.444-6.742-7.433-11.8-14.605-11.8c-2.185,0-4.258,0.47-6.126,1.313
		c-1.667-3.202-5.007-5.394-8.866-5.394c-5.522,0-10,4.477-10,9.999c0,2.46,0.899,4.702,2.373,6.442
		c-1.429,1.84-2.287,4.144-2.287,6.653c0,5.983,4.836,10.836,10.813,10.865v0.003h1.188v-2h-0.721l-0.457-0.003
		c-4.864-0.023-8.822-4.001-8.822-8.865c0-4.89,3.978-8.868,8.867-8.868c0.15,0,0.299,0.012,0.447,0.022l0.148,0.01l1.314,0.085
		l0.597-1.175c2.225-4.372,6.644-7.089,11.532-7.089c6.062,0,11.382,4.298,12.649,10.219l0.318,1.483l1.514,0.094
		c3.708,0.23,6.612,3.319,6.612,7.03c0,3.878-3.144,7.035-7.017,7.057c-0.042-0.003-0.079-0.005-0.117-0.005l-2.047,0.005h-0.819v2
		h2.819v-0.006c0.042,0.001,0.082,0.006,0.124,0.006c5.001,0,9.057-4.054,9.057-9.057
		C-459.416-158.171-463.17-162.093-467.904-162.388z M-495.824-166.005c-0.241-0.016-0.48-0.036-0.725-0.036
		c-2.766,0-5.282,1.041-7.2,2.743c-1.092-1.366-1.753-3.09-1.753-4.971c0-4.41,3.589-7.999,8-7.999c3.091,0,5.76,1.773,7.091,4.345
		C-492.709-170.482-494.589-168.435-495.824-166.005z"/>
	<circle cx="-491.426" cy="-135.817" r="1.5"/>
	<circle cx="-483.426" cy="-129.817" r="1.5"/>
	<circle cx="-475.426" cy="-133.817" r="1.5"/>
	<rect x="-492.426" y="-152.293" width="2" height="11.976"/>
	<polygon points="-482.426,-134.353 -482.426,-136.293 -482.426,-148.293 -484.426,-148.293 -484.426,-136.293 -484.426,-134.353 
		-484.426,-134.317 -482.426,-134.317 	"/>
	<polygon points="-474.426,-138.54 -474.426,-140.293 -474.426,-152.293 -476.426,-152.293 -476.426,-140.293 -476.426,-138.54 
		-476.426,-138.317 -474.426,-138.317 	"/>
</g>
<g>
	<path d="M-367.302-165.386c-1.444-6.742-7.433-11.8-14.605-11.8c-1.799,0-3.522,0.32-5.118,0.904
		c-0.949-5.108-5.404-8.98-10.788-8.98c-0.413,0-0.819,0.027-1.222,0.071c0.744,1.112,1.179,2.448,1.179,3.886c0,3.865-3.134,7-7,7
		c-1.438,0-2.773-0.435-3.886-1.179c-0.044,0.401-0.071,0.809-0.071,1.222c0,3.712,1.845,6.987,4.661,8.979
		c-1.653,1.907-2.661,4.389-2.661,7.111c0,5.983,4.836,10.836,10.813,10.865v0.003h1.188v-2h-0.721l-0.457-0.003
		c-4.864-0.023-8.822-4.001-8.822-8.865c0-4.89,3.978-8.868,8.867-8.868c0.15,0,0.299,0.012,0.447,0.022l0.148,0.01l1.314,0.085
		l0.597-1.175c2.225-4.372,6.644-7.089,11.532-7.089c6.062,0,11.382,4.298,12.649,10.219l0.318,1.483l1.514,0.094
		c3.708,0.23,6.612,3.319,6.612,7.03c0,3.878-3.144,7.035-7.017,7.057c-0.042-0.003-0.079-0.005-0.117-0.005l-2.047,0.005h-0.819v2
		h2.819v-0.006c0.042,0.001,0.082,0.006,0.124,0.006c5.001,0,9.057-4.054,9.057-9.057
		C-358.813-161.169-362.567-165.091-367.302-165.386z M-395.222-169.003c-0.241-0.016-0.48-0.036-0.725-0.036
		c-2.537,0-4.865,0.876-6.715,2.334c-2.012-1.294-3.487-3.354-3.976-5.776c0.582,0.117,1.178,0.177,1.78,0.177c4.963,0,9-4.037,9-9
		c0-0.603-0.06-1.198-0.177-1.78c3.733,0.753,6.629,3.824,7.133,7.64C-391.611-174.001-393.826-171.746-395.222-169.003z"/>
	<circle cx="-390.813" cy="-138.812" r="1.5"/>
	<circle cx="-382.813" cy="-132.812" r="1.5"/>
	<circle cx="-374.813" cy="-136.812" r="1.5"/>
	<rect x="-391.813" y="-155.287" width="2" height="11.976"/>
	<polygon points="-381.813,-137.347 -381.813,-139.287 -381.813,-151.287 -383.813,-151.287 -383.813,-139.287 -383.813,-137.347 
		-383.813,-137.312 -381.813,-137.312 	"/>
	<polygon points="-373.813,-141.534 -373.813,-143.287 -373.813,-155.287 -375.813,-155.287 -375.813,-143.287 -375.813,-141.534 
		-375.813,-141.312 -373.813,-141.312 	"/>
</g>
<g>
	<rect x="-515.416" y="-60.945" width="56" height="2"/>
	<rect x="-511.416" y="-54.945" width="50" height="2"/>
	<rect x="-505.416" y="-48.945" width="36" height="2"/>
	<rect x="-513.416" y="-66.945" width="52" height="2"/>
	<path d="M-501.542-74.95c0.175,0,0.347,0.014,0.519,0.025l0.149,0.01l1.316,0.088l0.598-1.176c2.493-4.899,7.443-7.942,12.92-7.942
		c6.79,0,12.75,4.814,14.171,11.448l0.318,1.482l1.514,0.095c1.207,0.075,2.335,0.425,3.336,0.975h3.286
		c-1.678-1.703-3.957-2.813-6.498-2.971c-1.596-7.445-8.207-13.029-16.127-13.029c-6.423,0-11.977,3.678-14.702,9.035
		c-0.266-0.018-0.53-0.04-0.8-0.04c-4.843,0-9.004,2.874-10.9,7.005h2.251C-508.46-72.932-505.235-74.95-501.542-74.95z"/>
</g>
<g>
	<rect x="-394.313" y="-88.46" width="2" height="7.973"/>
	<rect x="-413.313" y="-69.546" width="7.973" height="2"/>
	<rect x="-408.64" y="-80.812" transform="matrix(0.7071 0.7071 -0.7071 0.7071 -174.9562 262.7565)" width="7.974" height="2"/>
	<rect x="-383.132" y="-83.794" transform="matrix(0.7071 0.7071 -0.7071 0.7071 -168.357 246.8326)" width="2" height="7.972"/>
	<rect x="-404.313" y="-54.586" width="50" height="2"/>
	<rect x="-400.313" y="-48.586" width="44" height="2"/>
	<rect x="-394.313" y="-43.586" width="30" height="2"/>
	<rect x="-402.313" y="-60.586" width="46" height="2"/>
	<path d="M-401.405-62.586h0.771h1.927h1.012c1.472-1.087,3.283-1.737,5.249-1.737c0.15,0,0.299,0.012,0.447,0.022l0.148,0.01
		l1.314,0.085l0.597-1.175c2.225-4.372,6.644-7.089,11.532-7.089c5.945,0,11.168,4.139,12.563,9.884h2.043v-0.084
		c-1.444-6.742-7.433-11.8-14.605-11.8c-2.185,0-4.258,0.47-6.126,1.313c-1.667-3.202-5.007-5.394-8.866-5.394
		c-5.522,0-10,4.477-10,9.999C-403.399-66.31-402.651-64.251-401.405-62.586z M-393.399-76.55c3.091,0,5.76,1.773,7.091,4.345
		c-2.298,1.44-4.178,3.488-5.413,5.918c-0.241-0.016-0.48-0.036-0.725-0.036c-2.764,0-5.274,1.045-7.189,2.745
		c-1.097-1.366-1.764-3.089-1.764-4.973C-401.399-72.961-397.811-76.55-393.399-76.55z"/>
</g>
<g>
	<rect x="-305.569" y="-58.023" width="50" height="2"/>
	<rect x="-301.569" y="-52.023" width="44" height="2"/>
	<rect x="-295.569" y="-47.023" width="30" height="2"/>
	<rect x="-303.569" y="-64.023" width="46" height="2"/>
	<path d="M-301.927-66.023h0.037h1.884h1.055c1.472-1.087,3.283-1.737,5.249-1.737c0.15,0,0.299,0.012,0.447,0.022l0.148,0.01
		l1.314,0.085l0.597-1.175c2.225-4.372,6.644-7.089,11.532-7.089c5.945,0,11.168,4.139,12.563,9.884h2.043v-0.084
		c-1.444-6.742-7.433-11.8-14.605-11.8c-1.799,0-3.521,0.32-5.117,0.903c-0.945-5.111-5.402-8.987-10.789-8.987
		c-0.413,0-0.819,0.027-1.222,0.071c0.744,1.112,1.179,2.448,1.179,3.886c0,3.865-3.134,7-7,7c-1.438,0-2.773-0.435-3.886-1.179
		c-0.044,0.401-0.071,0.809-0.071,1.222C-306.569-71.287-304.733-68.017-301.927-66.023z M-302.612-73.034c4.963,0,9-4.037,9-9
		c0-0.603-0.06-1.198-0.177-1.78c3.735,0.753,6.633,3.828,7.134,7.647c-2.712,1.443-4.927,3.699-6.322,6.442
		c-0.241-0.016-0.48-0.036-0.725-0.036c-2.534,0-4.855,0.879-6.701,2.335c-2.02-1.293-3.5-3.356-3.989-5.785
		C-303.811-73.094-303.215-73.034-302.612-73.034z"/>
</g>
<g>
	<path d="M-173.678-55.01h-19.474l-0.578-0.003c-5.485-0.027-9.948-4.513-9.948-9.998c0-5.514,4.485-10,9.999-10
		c0.175,0,0.347,0.014,0.519,0.025l0.149,0.01l1.316,0.088l0.598-1.176c2.493-4.899,7.443-7.942,12.92-7.942
		c6.79,0,12.75,4.814,14.171,11.448l0.318,1.482l1.514,0.095c1.822,0.113,3.463,0.845,4.746,1.971h2.732
		c-1.707-2.262-4.348-3.78-7.354-3.967c-1.596-7.445-8.207-13.029-16.127-13.029c-6.423,0-11.977,3.678-14.702,9.035
		c-0.266-0.018-0.53-0.04-0.8-0.04c-6.627,0-11.999,5.372-11.999,12c0,6.607,5.34,11.965,11.938,11.998v0.003h20.062
		c2.205,0,4,1.794,4,4s-1.795,4-4,4v2c3.314,0,6-2.686,6-6C-167.678-52.323-170.363-55.01-173.678-55.01z"/>
	<path d="M-169.678-59.01h-15.988v2h15.988c3.314,0,6-2.687,6-6c0-3.314-2.686-6-6-6v2c2.205,0,4,1.794,4,4
		S-167.473-59.01-169.678-59.01z"/>
	<path d="M-156.678-65.01c1.654,0,3,1.346,3,3s-1.346,3-3,3c-0.043,0-0.083-0.011-0.126-0.013h-4.862
		c0.003,0.005,0.009,0.008,0.012,0.013h-0.023v2h5.5v-0.051c2.523-0.254,4.5-2.358,4.5-4.949c0-2.762-2.238-5-5-5V-65.01z"/>
	<path d="M-152.678-55.01h-13v2h9.022c-0.004,0.005-0.008,0.008-0.011,0.013h3.862c0.043-0.002,0.083-0.013,0.126-0.013
		c1.654,0,3,1.346,3,3s-1.346,3-3,3v2c2.762,0,5-2.238,5-5S-149.916-55.01-152.678-55.01z"/>
	<rect x="-191.678" y="-59.01" width="4" height="2"/>
</g>
<path d="M-381.239-454.113c6.95,1.305,12.226,7.419,12.226,14.742c0,8.272-6.729,15.002-15,15.002
	c-6.79,0-12.531-4.49-14.366-10.728c1.398,0.461,2.867,0.698,4.366,0.698c7.72,0,14-6.281,14-14.001
	C-380.014-450.384-380.438-452.328-381.239-454.113 M-384.014-456.37c-0.338,0-0.668,0.031-1,0.051c1.861,2.113,3,4.881,3,7.92
	c0,6.627-5.372,12.001-12,12.001c-2.599,0-4.998-0.835-6.963-2.239c0.387,9.047,7.821,16.269,16.963,16.269
	c9.39,0,17-7.612,17-17.002S-374.624-456.37-384.014-456.37L-384.014-456.37z"/>
<g>
	<path d="M-487.409-451.375c-7.18,0-13,5.819-13,12.999c0,7.181,5.82,13.002,13,13.002s13-5.821,13-13.002
		C-474.409-445.556-480.229-451.375-487.409-451.375z M-487.409-427.374c-6.065,0-11-4.936-11-11.002
		c0-6.064,4.935-10.999,11-10.999s11,4.935,11,10.999C-476.409-432.31-481.344-427.374-487.409-427.374z"/>
	<rect x="-488.416" y="-464.369" width="2" height="10"/>
	<rect x="-488.416" y="-422.369" width="2" height="10"/>
	<rect x="-513.409" y="-439.369" width="9.993" height="2"/>
	<rect x="-471.416" y="-439.369" width="10.007" height="2"/>
	<rect x="-473.716" y="-458.283" transform="matrix(0.7071 0.7071 -0.7071 0.7071 -458.8304 201.5573)" width="2" height="10.409"/>
	
		<rect x="-503.125" y="-428.874" transform="matrix(-0.7071 -0.7071 0.7071 -0.7071 -557.6014 -1078.3049)" width="2" height="10.41"/>
	<rect x="-507.325" y="-454.074" transform="matrix(0.7071 0.7071 -0.7071 0.7071 -467.4392 222.3506)" width="10.409" height="2"/>
	
		<rect x="-477.917" y="-424.664" transform="matrix(-0.7072 -0.7071 0.7071 -0.7072 -507.4357 -1057.4961)" width="10.41" height="2"/>
</g>
<g>
	<rect x="-89.243" y="-93.508" width="2" height="7.973"/>
	<rect x="-108.216" y="-74.521" width="7.973" height="2"/>
	<rect x="-103.49" y="-85.74" transform="matrix(0.7071 0.7071 -0.7071 0.7071 -89.0641 45.5394)" width="7.974" height="2"/>
	<rect x="-77.981" y="-88.722" transform="matrix(0.7071 0.7071 -0.7071 0.7071 -82.465 29.6154)" width="2" height="7.972"/>
	<path d="M-74.216-51.508l0.005-0.007h-12.536l-0.594-0.003c-4.864-0.024-8.822-4.001-8.822-8.865c0-4.89,3.978-8.868,8.867-8.868
		c0.15,0,0.299,0.012,0.447,0.021l0.148,0.011l1.314,0.085l0.597-1.174c2.225-4.373,6.644-7.09,11.532-7.09
		c5.916,0,11.114,4.099,12.54,9.8h2.065c-1.444-6.742-7.433-11.8-14.605-11.8c-2.185,0-4.258,0.47-6.126,1.313
		c-1.667-3.202-5.007-5.394-8.866-5.394c-5.522,0-10,4.477-10,9.999c0,2.46,0.899,4.702,2.373,6.442
		c-1.429,1.84-2.287,4.144-2.287,6.653c0,5.983,4.836,10.836,10.813,10.865v0.003h13.135v0.007c2.205,0,4,1.794,4,4s-1.795,4-4,4v2
		c3.314,0,6-2.686,6-6C-68.216-48.821-70.901-51.508-74.216-51.508z M-88.249-81.478c3.091,0,5.76,1.773,7.091,4.345
		c-2.298,1.439-4.178,3.488-5.413,5.918c-0.241-0.016-0.48-0.036-0.725-0.036c-2.766,0-5.282,1.042-7.2,2.743
		c-1.092-1.367-1.753-3.09-1.753-4.971C-96.249-77.889-92.66-81.478-88.249-81.478z"/>
	<path d="M-70.216-55.508h-9.988v2h9.988c3.314,0,6-2.687,6-6c0-3.314-2.686-6-6-6v2c2.205,0,4,1.794,4,4
		S-68.011-55.508-70.216-55.508z"/>
	<path d="M-62.192-55.508h-0.023v2h5.5v-0.051c2.523-0.254,4.5-2.358,4.5-4.949c0-2.762-2.238-5-5-5v2c1.654,0,3,1.346,3,3
		s-1.346,3-3,3c-0.043,0-0.083-0.011-0.126-0.013h-4.862C-62.201-55.516-62.195-55.512-62.192-55.508z"/>
	<path d="M-53.216-51.508h-13v2h9.022c-0.004,0.004-0.008,0.008-0.011,0.013h3.862c0.043-0.002,0.083-0.013,0.126-0.013
		c1.654,0,3,1.346,3,3s-1.346,3-3,3v2c2.762,0,5-2.238,5-5S-50.454-51.508-53.216-51.508z"/>
	<rect x="-86.216" y="-55.508" width="4" height="2"/>
</g>
<g>
	<path d="M25.746-53.514l0.005-0.007H13.215l-0.594-0.003c-4.864-0.024-8.822-4.001-8.822-8.865c0-4.89,3.978-8.868,8.867-8.868
		c0.15,0,0.299,0.012,0.447,0.021l0.148,0.011l1.314,0.085l0.597-1.174c2.225-4.373,6.644-7.09,11.532-7.09
		c5.916,0,11.114,4.099,12.54,9.8h2.065c-1.444-6.742-7.433-11.8-14.605-11.8c-1.806,0-3.536,0.322-5.138,0.91
		c-0.938-5.123-5.4-9.01-10.794-9.01c-0.413,0-0.819,0.027-1.222,0.071c0.744,1.112,1.179,2.448,1.179,3.886c0,3.865-3.134,7-7,7
		c-1.438,0-2.773-0.435-3.886-1.179c-0.044,0.401-0.071,0.809-0.071,1.222c0,3.725,1.858,7.009,4.69,8.998
		c-1.655,1.907-2.665,4.392-2.665,7.116c0,5.983,4.836,10.836,10.813,10.865v0.003h13.135v0.007c2.205,0,4,1.794,4,4s-1.795,4-4,4v2
		c3.314,0,6-2.686,6-6C31.746-50.827,29.061-53.514,25.746-53.514z M1.95-76.723c0.582,0.117,1.178,0.177,1.78,0.177
		c4.963,0,9-4.037,9-9c0-0.603-0.06-1.198-0.177-1.78c3.744,0.755,6.646,3.842,7.138,7.674c-2.702,1.444-4.909,3.696-6.301,6.432
		c-0.241-0.016-0.48-0.036-0.725-0.036c-2.535,0-4.861,0.875-6.71,2.33C3.928-72.219,2.441-74.287,1.95-76.723z"/>
	<path d="M29.746-57.514h-9.988v2h9.988c3.314,0,6-2.687,6-6c0-3.314-2.686-6-6-6v2c2.205,0,4,1.794,4,4
		S31.951-57.514,29.746-57.514z"/>
	<path d="M37.77-57.514h-0.023v2h5.5v-0.051c2.523-0.254,4.5-2.358,4.5-4.949c0-2.762-2.238-5-5-5v2c1.654,0,3,1.346,3,3
		s-1.346,3-3,3c-0.043,0-0.083-0.011-0.126-0.013h-4.862C37.761-57.521,37.767-57.518,37.77-57.514z"/>
	<path d="M46.746-53.514h-13v2h9.022c-0.004,0.004-0.008,0.008-0.011,0.013h3.862c0.043-0.002,0.083-0.013,0.126-0.013
		c1.654,0,3,1.346,3,3s-1.346,3-3,3v2c2.762,0,5-2.238,5-5S49.508-53.514,46.746-53.514z"/>
	<rect x="13.746" y="-57.514" width="4" height="2"/>
</g>
<g>
	<rect x="126.639" y="-90.945" width="2" height="10"/>
	<rect x="101.646" y="-65.945" width="9.993" height="2"/>
	<rect x="141.338" y="-84.859" transform="matrix(0.7071 0.7071 -0.7071 0.7071 -14.6345 -123.9788)" width="2" height="10.409"/>
	<rect x="107.73" y="-80.65" transform="matrix(0.7071 0.7071 -0.7071 0.7071 -23.2433 -103.1854)" width="10.409" height="2"/>
	<path d="M131.639-50.945h-24v2h24c2.205,0,4,1.794,4,4s-1.795,4-4,4v2c3.314,0,6-2.686,6-6
		C137.639-48.259,134.953-50.945,131.639-50.945z"/>
	<path d="M143.662-54.945h-0.023v2h5.5v-0.051c2.523-0.254,4.5-2.358,4.5-4.949c0-2.762-2.238-5-5-5v2c1.654,0,3,1.346,3,3
		s-1.346,3-3,3c-0.043,0-0.083-0.011-0.126-0.013h-4.862C143.653-54.953,143.659-54.949,143.662-54.945z"/>
	<path d="M152.639-50.945h-13v2h9.022c-0.004,0.004-0.008,0.008-0.011,0.013h3.862c0.043-0.002,0.083-0.013,0.126-0.013
		c1.654,0,3,1.346,3,3s-1.346,3-3,3v2c2.762,0,5-2.238,5-5S155.4-50.945,152.639-50.945z"/>
	<path d="M119.348-54.945h-11.709v2h12.012h0.822h15.166c3.314,0,6-2.687,6-6c0-3.314-2.686-6-6-6v2c2.205,0,4,1.794,4,4
		s-1.795,4-4,4h-12.538c-3.802-1.734-6.455-5.563-6.455-10.007c0-6.064,4.935-10.999,11-10.999c5.384,0,9.868,3.891,10.81,9.006
		h2.021c-0.961-6.23-6.331-11.006-12.831-11.006c-7.18,0-13,5.819-13,12.999C114.646-60.927,116.476-57.33,119.348-54.945z"/>
</g>
<g>
	<path d="M231.865-57.502h-24v2h24c2.205,0,4,1.794,4,4s-1.795,4-4,4v2c3.314,0,6-2.686,6-6
		C237.865-54.815,235.18-57.502,231.865-57.502z"/>
	<path d="M249.365-59.502v-0.051c2.523-0.254,4.5-2.358,4.5-4.949c0-2.762-2.238-5-5-5v2c1.654,0,3,1.346,3,3s-1.346,3-3,3
		c-0.043,0-0.083-0.011-0.126-0.013h-4.862c0.004,0.005,0.009,0.009,0.012,0.013h-0.023v2H249.365z"/>
	<path d="M252.865-57.502h-13v2h9.022c-0.003,0.004-0.007,0.008-0.011,0.013h3.862c0.043-0.002,0.083-0.013,0.126-0.013
		c1.654,0,3,1.346,3,3s-1.346,3-3,3v2c2.762,0,5-2.238,5-5S255.627-57.502,252.865-57.502z"/>
	<path d="M220.699-59.502h15.166c3.314,0,6-2.687,6-6c0-3.314-2.686-6-6-6v2c2.205,0,4,1.794,4,4s-1.795,4-4,4h-12.586
		c-2.596-1.188-4.658-3.339-5.69-6.034c0.849,0.204,1.724,0.309,2.612,0.309c6.168,0,11.187-5.019,11.187-11.188
		c0-1.276-0.22-2.532-0.64-3.717c4.046,1.102,7.168,4.459,7.937,8.63h2.018c-0.964-6.237-6.338-11.016-12.846-11.016
		c-0.259,0-0.511,0.024-0.766,0.039c1.425,1.618,2.297,3.737,2.297,6.063c0,5.072-4.112,9.188-9.187,9.188
		c-1.988,0-3.826-0.641-5.33-1.715c0.162,3.801,1.962,7.165,4.699,9.44h-11.705v2h12.012H220.699z"/>
</g>
<g>
	<path d="M-487.916,27.691h-20c-1.103,0-2-0.897-2-2s0.897-2,2-2h3.445h0.555v-2h-4c-2.209,0-4,1.791-4,4s1.791,4,4,4h20
		c2.205,0,4,1.794,4,4s-1.795,4-4,4v2c3.314,0,6-2.686,6-6C-481.916,30.378-484.602,27.691-487.916,27.691z"/>
	<path d="M-485.916,11.691v2c2.205,0,4,1.794,4,4s-1.795,4-4,4h-15.988v2h15.988c3.314,0,6-2.687,6-6
		C-479.916,14.377-482.602,11.691-485.916,11.691z"/>
	<path d="M-479.916,23.691v2h5.5v-0.051c2.523-0.254,4.5-2.358,4.5-4.949c0-2.762-2.238-5-5-5v2c1.654,0,3,1.346,3,3s-1.346,3-3,3
		c-0.043,0-0.083-0.011-0.126-0.013h-4.862c0.003,0.005,0.009,0.009,0.012,0.013H-479.916z"/>
	<path d="M-468.916,27.691h-11v2h7.022c-0.004,0.004-0.008,0.008-0.011,0.013h3.862c0.043-0.002,0.083-0.013,0.126-0.013
		c1.654,0,3,1.346,3,3s-1.346,3-3,3v2c2.762,0,5-2.238,5-5S-466.154,27.691-468.916,27.691z"/>
</g>
<path d="M48.376,14.038V14H10c-1.103,0-2-0.897-2-2s0.897-2,2-2h33c2.762,0,5-2.238,5-5s-2.238-5-5-5H5.125v0.008
	C5.083,0.007,5.042,0,5,0C2.238,0,0,2.238,0,5s2.238,5,5,5V8C3.346,8,2,6.654,2,5s1.346-3,3-3h0.125h3.853H43c1.654,0,3,1.346,3,3
	s-1.346,3-3,3H10c-2.209,0-4,1.791-4,4s1.791,4,4,4h38c1.103,0,2,0.897,2,2s-0.897,2-2,2H16c-2.209,0-4,1.791-4,4s1.791,4,4,4h22
	c1.103,0,2,0.897,2,2s-0.897,2-2,2H13.99v0.001C11.786,32.007,10,33.794,10,36s1.786,3.993,3.99,3.999V40H26c1.103,0,2,0.897,2,2
	s-0.897,2-2,2h-2c-2.209,0-4,1.791-4,4s1.791,4,4,4v-2c-1.103,0-2-0.897-2-2s0.897-2,2-2h2c2.209,0,4-1.791,4-4s-1.791-4-4-4H14
	c-1.103,0-2-0.897-2-2s0.897-2,2-2h24c2.209,0,4-1.791,4-4c0-2.152-1.704-3.895-3.834-3.983V26H16c-1.103,0-2-0.897-2-2s0.897-2,2-2
	h32c2.209,0,4-1.791,4-4C52,15.92,50.406,14.23,48.376,14.038z"/>
<path d="M233.791,4.716V2.691h-2v2.024c-13.01,0.513-23.462,10.965-23.975,23.976h1.674c1.14-1.222,2.748-2,4.551-2
	c2.26,0,4.233,1.203,5.331,3h1.838c1.098-1.797,3.071-3,5.331-3c2.204,0,4.137,1.144,5.25,2.866v15.134c0,2.21,1.791,4,4,4
	s4-1.79,4-4h-2c0,1.103-0.897,2-2,2s-2-0.897-2-2V29.558c1.113-1.723,3.046-2.866,5.25-2.866c2.26,0,4.233,1.203,5.331,3h1.838
	c1.098-1.797,3.071-3,5.331-3c1.803,0,3.411,0.778,4.551,2h1.674C257.253,15.681,246.801,5.229,233.791,4.716z M251.541,24.691
	c-2.496,0-4.736,1.114-6.25,2.87c-1.514-1.756-3.754-2.87-6.25-2.87s-4.736,1.114-6.25,2.87c-1.514-1.756-3.754-2.87-6.25-2.87
	s-4.736,1.114-6.25,2.87c-1.514-1.756-3.755-2.87-6.25-2.87c-1.402,0-2.731,0.351-3.897,0.975
	c1.909-10.769,11.339-18.975,22.647-18.975s20.738,8.206,22.647,18.975C254.272,25.042,252.943,24.691,251.541,24.691z"/>
<g>
	<path d="M-171.504,129.004v-17.105c0-2.762-2.238-5-5-5s-5,2.238-5,5v17.105c-1.236,1.263-2,2.988-2,4.895c0,3.866,3.134,7,7,7
		s7-3.134,7-7C-169.504,131.992-170.268,130.267-171.504,129.004z M-176.504,138.898c-2.757,0-5-2.243-5-5
		c0-1.313,0.508-2.554,1.429-3.495l0.571-0.583v-0.816v-17.105c0-1.654,1.346-3,3-3s3,1.346,3,3v17.105v0.816l0.571,0.583
		c0.921,0.941,1.429,2.183,1.429,3.495C-171.504,136.655-173.747,138.898-176.504,138.898z"/>
	<path d="M-175.504,131.074v-15.176h-2v15.176c-1.167,0.413-2.008,1.516-2.008,2.824c0,1.662,1.347,3.008,3.008,3.008
		c1.662,0,3.008-1.346,3.008-3.008C-173.496,132.59-174.336,131.487-175.504,131.074z M-176.504,134.906
		c-0.556,0-1.008-0.452-1.008-1.008s0.452-1.008,1.008-1.008s1.008,0.452,1.008,1.008S-175.948,134.906-176.504,134.906z"/>
</g>
<g>
	<path d="M-71.716,129.004v-17.105c0-2.762-2.238-5-5-5s-5,2.238-5,5v17.105c-1.236,1.263-2,2.988-2,4.895c0,3.866,3.134,7,7,7
		s7-3.134,7-7C-69.716,131.992-70.479,130.267-71.716,129.004z M-76.716,138.898c-2.757,0-5-2.243-5-5
		c0-1.313,0.508-2.554,1.429-3.495l0.571-0.583v-0.816v-17.105c0-1.654,1.346-3,3-3s3,1.346,3,3v17.105v0.816l0.571,0.583
		c0.921,0.941,1.429,2.183,1.429,3.495C-71.716,136.655-73.959,138.898-76.716,138.898z"/>
	<path d="M-75.716,131.074v-20.176h-2v20.176c-1.167,0.413-2.008,1.516-2.008,2.824c0,1.662,1.347,3.008,3.008,3.008
		c1.662,0,3.008-1.346,3.008-3.008C-73.708,132.59-74.548,131.487-75.716,131.074z M-76.716,134.906
		c-0.556,0-1.008-0.452-1.008-1.008s0.452-1.008,1.008-1.008s1.008,0.452,1.008,1.008S-76.16,134.906-76.716,134.906z"/>
</g>
<g>
	<path d="M-274.613,129.004v-17.105c0-2.762-2.238-5-5-5s-5,2.238-5,5v17.105c-1.236,1.263-2,2.988-2,4.895c0,3.866,3.134,7,7,7
		s7-3.134,7-7C-272.613,131.992-273.377,130.267-274.613,129.004z M-279.613,138.898c-2.757,0-5-2.243-5-5
		c0-1.313,0.508-2.554,1.429-3.495l0.571-0.583v-0.816v-17.105c0-1.654,1.346-3,3-3s3,1.346,3,3v17.105v0.816l0.571,0.583
		c0.921,0.941,1.429,2.183,1.429,3.495C-274.613,136.655-276.856,138.898-279.613,138.898z"/>
	<path d="M-278.613,131.074v-10.176h-2v10.176c-1.167,0.413-2.008,1.516-2.008,2.824c0,1.662,1.347,3.008,3.008,3.008
		c1.662,0,3.008-1.346,3.008-3.008C-276.605,132.59-277.445,131.487-278.613,131.074z M-279.613,134.906
		c-0.556,0-1.008-0.452-1.008-1.008s0.452-1.008,1.008-1.008s1.008,0.452,1.008,1.008S-279.058,134.906-279.613,134.906z"/>
</g>
<g>
	<path d="M-378.259,129.004v-17.105c0-2.762-2.238-5-5-5s-5,2.238-5,5v17.105c-1.236,1.263-2,2.988-2,4.895c0,3.866,3.134,7,7,7
		s7-3.134,7-7C-376.259,131.992-377.022,130.267-378.259,129.004z M-383.259,138.898c-2.757,0-5-2.243-5-5
		c0-1.313,0.508-2.554,1.429-3.495l0.571-0.583v-0.816v-17.105c0-1.654,1.346-3,3-3s3,1.346,3,3v17.105v0.816l0.571,0.583
		c0.921,0.941,1.429,2.183,1.429,3.495C-378.259,136.655-380.502,138.898-383.259,138.898z"/>
	<path d="M-382.259,131.074v-5.176h-2v5.176c-1.167,0.413-2.008,1.516-2.008,2.824c0,1.662,1.347,3.008,3.008,3.008
		c1.662,0,3.008-1.346,3.008-3.008C-380.251,132.59-381.091,131.487-382.259,131.074z M-383.259,134.906
		c-0.556,0-1.008-0.452-1.008-1.008s0.452-1.008,1.008-1.008s1.008,0.452,1.008,1.008S-382.703,134.906-383.259,134.906z"/>
</g>
<g>
	<path d="M-482.916,129.004v-17.105c0-2.762-2.238-5-5-5s-5,2.238-5,5v17.105c-1.236,1.263-2,2.988-2,4.895c0,3.866,3.134,7,7,7
		s7-3.134,7-7C-480.916,131.992-481.68,130.267-482.916,129.004z M-487.916,138.898c-2.757,0-5-2.243-5-5
		c0-1.313,0.508-2.554,1.429-3.495l0.571-0.583v-0.816v-17.105c0-1.654,1.346-3,3-3s3,1.346,3,3v17.105v0.816l0.571,0.583
		c0.921,0.941,1.429,2.183,1.429,3.495C-482.916,136.655-485.159,138.898-487.916,138.898z"/>
	<path d="M-487.916,130.891c-1.661,0-3.008,1.347-3.008,3.008c0,1.662,1.347,3.008,3.008,3.008c1.662,0,3.008-1.346,3.008-3.008
		C-484.908,132.237-486.254,130.891-487.916,130.891z M-487.916,134.906c-0.556,0-1.008-0.452-1.008-1.008s0.452-1.008,1.008-1.008
		s1.008,0.452,1.008,1.008S-487.36,134.906-487.916,134.906z"/>
</g>
<g>
	<path d="M17.009,109.211c-2.209,0-4,1.791-4,4c0,2.21,1.791,4,4,4c2.211,0,4-1.79,4-4C21.009,111.002,19.22,109.211,17.009,109.211
		z M17.009,115.211c-1.103,0-2-0.897-2-2s0.897-2,2-2s2,0.897,2,2S18.111,115.211,17.009,115.211z"/>
	<path d="M31.009,137.211c-4.41,0-7.999-3.589-7.999-7.999v-4.002c0-4.41,3.589-7.999,7.999-7.999c2.715,0,5.115,1.362,6.563,3.437
		l1.43-1.43c-1.824-2.429-4.72-4.007-7.992-4.007c-5.522,0-9.999,4.478-9.999,9.999v4.002c0,5.521,4.477,9.999,9.999,9.999
		c3.272,0,6.168-1.579,7.992-4.008l-1.43-1.43C36.125,135.848,33.725,137.211,31.009,137.211z"/>
</g>
<g>
	<path d="M121.705,109.09c-2.209,0-4,1.791-4,4c0,2.21,1.791,4,4,4c2.211,0,4-1.79,4-4
		C125.705,110.881,123.916,109.09,121.705,109.09z M121.705,115.09c-1.103,0-2-0.897-2-2s0.897-2,2-2s2,0.897,2,2
		S122.808,115.09,121.705,115.09z"/>
	<polygon points="141.58,117.211 141.58,115.211 129.58,115.211 127.58,115.211 127.58,139.211 129.58,139.211 129.58,127.211 
		137.58,127.211 137.58,125.211 129.58,125.211 129.58,117.211 	"/>
</g>
<g>
	<path d="M232.791,112.902c-7.179,0-13,5.82-13,13s5.821,13,13,13s13-5.82,13-13S239.97,112.902,232.791,112.902z M232.791,136.902
		c-6.065,0-11-4.935-11-11s4.935-11,11-11s11,4.935,11,11S238.856,136.902,232.791,136.902z"/>
	<path d="M228.524,130.145l6.363-2.121l2.121-6.364l-6.363,2.122L228.524,130.145z M232.227,125.362l1.62-0.54l-0.54,1.62
		l-1.62,0.54L232.227,125.362z"/>
</g>
<g>
	<path d="M-487.916,203.42c-7.179,0-13,5.82-13,13s5.821,13,13,13s13-5.82,13-13S-480.737,203.42-487.916,203.42z M-487.916,227.42
		c-6.065,0-11-4.934-11-11c0-6.064,4.935-11,11-11s11,4.936,11,11C-476.916,222.486-481.851,227.42-487.916,227.42z"/>
	<path d="M-485.354,214.842l-2.586-4.422l-2.529,4.33h0.007c-0.299,0.467-0.478,1.018-0.478,1.613c0,1.656,1.343,3,3,3s3-1.344,3-3
		c0-0.559-0.162-1.074-0.428-1.521H-485.354z M-487.94,217.363c-0.552,0-1-0.449-1-1c0-0.188,0.055-0.367,0.162-0.535l0.864-1.355
		l0.826,1.391c0.098,0.164,0.147,0.332,0.147,0.5C-486.94,216.914-487.389,217.363-487.94,217.363z"/>
</g>
<g>
	<path d="M-383.132,203.42c-7.18,0-13,5.82-13,13s5.82,13,13,13s13-5.82,13-13S-375.952,203.42-383.132,203.42z M-383.132,227.42
		c-6.065,0-11-4.934-11-11c0-6.064,4.935-11,11-11s11,4.936,11,11C-372.132,222.486-377.066,227.42-383.132,227.42z"/>
	<path d="M-381.543,213.84c-0.467-0.299-1.018-0.477-1.613-0.477c-1.658,0-3,1.342-3,3c0,1.656,1.342,3,3,3
		c0.557,0,1.072-0.162,1.52-0.428v0.014l4.422-2.586l-4.328-2.529V213.84z M-382.658,217.215c-0.164,0.098-0.332,0.148-0.498,0.148
		c-0.552,0-1-0.449-1-1c0-0.553,0.448-1,1-1c0.188,0,0.368,0.053,0.535,0.16l1.355,0.865L-382.658,217.215z"/>
</g>
<g>
	<path d="M-280.081,203.42c-7.18,0-13,5.82-13,13s5.82,13,13,13s13-5.82,13-13S-272.901,203.42-280.081,203.42z M-280.081,227.42
		c-6.065,0-11-4.934-11-11c0-6.064,4.935-11,11-11s11,4.936,11,11C-269.081,222.486-274.016,227.42-280.081,227.42z"/>
	<path d="M-280.081,213.363c-1.656,0-3,1.342-3,3c0,0.557,0.162,1.072,0.428,1.52h-0.014l2.586,4.422l2.529-4.328h-0.006
		c0.299-0.467,0.477-1.018,0.477-1.613C-277.081,214.705-278.423,213.363-280.081,213.363z M-279.242,216.898l-0.865,1.355
		l-0.826-1.393c-0.098-0.164-0.147-0.332-0.147-0.498c0-0.553,0.448-1,1-1s1,0.447,1,1
		C-279.081,216.551-279.135,216.73-279.242,216.898z"/>
</g>
<g>
	<path d="M-176.667,203.42c-7.179,0-13,5.82-13,13s5.821,13,13,13s13-5.82,13-13S-169.488,203.42-176.667,203.42z M-176.667,227.42
		c-6.065,0-11-4.934-11-11c0-6.064,4.935-11,11-11s11,4.936,11,11C-165.667,222.486-170.602,227.42-176.667,227.42z"/>
	<path d="M-176.708,213.363c-0.557,0-1.072,0.162-1.52,0.428v-0.014l-4.422,2.586l4.328,2.529v-0.006
		c0.467,0.299,1.018,0.477,1.613,0.477c1.658,0,3-1.342,3-3C-173.708,214.707-175.05,213.363-176.708,213.363z M-176.708,217.363
		c-0.188,0-0.368-0.055-0.535-0.162l-1.355-0.865l1.393-0.826c0.164-0.098,0.332-0.146,0.498-0.146c0.552,0,1,0.447,1,1
		C-175.708,216.914-176.156,217.363-176.708,217.363z"/>
</g>
<g>
	<rect x="-384.818" y="6.691" width="2" height="10"/>
	<rect x="-370.119" y="12.777" transform="matrix(0.7071 0.7071 -0.7071 0.7071 -95.3972 266.2731)" width="2" height="10.409"/>
	<rect x="-403.728" y="16.987" transform="matrix(0.7071 0.7071 -0.7071 0.7071 -104.0061 287.0665)" width="10.409" height="2"/>
	<polygon points="-390.486,35.945 -389.072,37.359 -384.818,33.105 -384.818,42.691 -382.818,42.691 -382.818,33.105 
		-378.565,37.359 -377.151,35.945 -383.818,29.277 	"/>
	<path d="M-370.812,32.69c0-0.002,0-0.004,0-0.006c0-7.18-5.82-12.999-13-12.999s-13,5.819-13,12.999c0,0.002,0,0.004,0,0.006h-13v2
		h18v-2h-3c0-0.002,0-0.004,0-0.006c0-6.064,4.935-10.999,11-10.999s11,4.935,11,10.999c0,0.002,0,0.004,0,0.006h-3v2h17.995v-2
		H-370.812z"/>
</g>
<g>
	<rect x="-281.073" y="5.504" width="2" height="10"/>
	<rect x="-266.373" y="11.59" transform="matrix(0.7071 0.7071 -0.7071 0.7071 -65.8506 192.5664)" width="2" height="10.409"/>
	<rect x="-299.982" y="15.799" transform="matrix(0.7071 0.7071 -0.7071 0.7071 -74.4595 213.3598)" width="10.409" height="2"/>
	<polygon points="-279.073,40.051 -279.073,29.504 -281.073,29.504 -281.073,40.051 -285.327,35.797 -286.741,37.211 
		-280.073,43.879 -273.406,37.211 -274.82,35.797 	"/>
	<path d="M-267.066,31.503c0-0.002,0-0.004,0-0.006c0-7.18-5.82-12.999-13-12.999s-13,5.819-13,12.999c0,0.002,0,0.004,0,0.006h-13
		v2h22v-2h-7c0-0.002,0-0.004,0-0.006c0-6.064,4.935-10.999,11-10.999s11,4.935,11,10.999c0,0.002,0,0.004,0,0.006h-7v2h21.995v-2
		H-267.066z"/>
</g>
<g>
	<polygon points="-76.716,39.517 -76.716,25.134 -78.716,25.134 -78.716,39.517 -82.97,35.263 -84.384,36.677 -77.716,43.345 
		-71.049,36.677 -72.463,35.263 	"/>
	<path d="M-61.088,20.163c-1.596-7.445-8.207-13.029-16.127-13.029c-6.423,0-11.977,3.678-14.702,9.035
		c-0.266-0.018-0.53-0.04-0.8-0.04c-6.627,0-11.999,5.372-11.999,12c0,6.607,5.34,11.965,11.938,11.998v0.003h6.062v-2h-5.604
		l-0.447-0.003c-5.485-0.027-9.948-4.513-9.948-9.998c0-5.514,4.485-10,9.999-10c0.175,0,0.347,0.014,0.52,0.025l0.148,0.01
		l1.316,0.088l0.598-1.176c2.492-4.899,7.443-7.942,12.92-7.942c6.79,0,12.75,4.814,14.172,11.448l0.317,1.482l1.514,0.095
		c4.203,0.262,7.496,3.763,7.496,7.971c0,4.397-3.565,7.977-7.957,8c-0.05-0.003-0.093-0.005-0.137-0.007l-2.043,0.007h-4.863v2
		h6.863v-0.007c0.046,0.001,0.091,0.007,0.137,0.007c5.521,0,10-4.477,10-10C-51.716,24.819-55.86,20.488-61.088,20.163z"/>
</g>
<g>
	<polygon points="-170.731,36.321 -169.317,34.907 -175.984,28.239 -182.652,34.907 -181.238,36.321 -176.984,32.067 
		-176.984,44.653 -174.984,44.653 -174.984,32.067 	"/>
	<path d="M-159.356,21.759c-1.596-7.445-8.207-13.029-16.127-13.029c-6.423,0-11.977,3.678-14.702,9.035
		c-0.266-0.018-0.53-0.04-0.8-0.04c-6.627,0-11.999,5.372-11.999,12c0,6.607,5.34,11.965,11.938,11.998v0.003h10.062v-2h-9.604
		l-0.447-0.003c-5.485-0.027-9.948-4.513-9.948-9.998c0-5.514,4.485-10,9.999-10c0.175,0,0.347,0.014,0.52,0.025l0.148,0.01
		l1.316,0.088l0.598-1.176c2.492-4.899,7.443-7.942,12.92-7.942c6.79,0,12.75,4.814,14.172,11.448l0.317,1.482l1.514,0.095
		c4.203,0.262,7.496,3.763,7.496,7.971c0,4.397-3.565,7.977-7.957,8c-0.05-0.003-0.093-0.005-0.137-0.007l-2.043,0.007h-8.863v2
		h10.863v-0.007c0.046,0.001,0.091,0.007,0.137,0.007c5.521,0,10-4.477,10-10C-149.984,26.415-154.129,22.084-159.356,21.759z"/>
</g>
<g>
	<path d="M43.133-167.757c-1.596-7.445-8.207-13.029-16.127-13.029c-6.423,0-11.977,3.678-14.702,9.035
		c-0.266-0.018-0.53-0.04-0.8-0.04c-6.627,0-11.999,5.372-11.999,12c0,6.607,5.34,11.965,11.938,11.998v0.003h2.062v-2H11.9
		l-0.447-0.003c-5.485-0.027-9.948-4.513-9.948-9.998c0-5.514,4.485-10,9.999-10c0.175,0,0.347,0.014,0.52,0.025l0.148,0.01
		l1.316,0.088l0.598-1.176c2.492-4.899,7.443-7.942,12.92-7.942c6.79,0,12.75,4.814,14.172,11.448l0.317,1.482l1.514,0.095
		c4.203,0.262,7.496,3.763,7.496,7.971c0,4.397-3.565,7.977-7.957,8c-0.05-0.003-0.093-0.005-0.137-0.007l-2.043,0.007h-0.863v2
		h2.863v-0.007c0.046,0.001,0.091,0.007,0.137,0.007c5.521,0,10-4.477,10-10C52.505-163.101,48.36-167.432,43.133-167.757z"/>
	<polygon points="21.505,-148.769 21.505,-151.398 23.678,-150.176 24.363,-151.396 21.894,-152.786 24.363,-154.176 
		23.678,-155.396 21.505,-154.174 21.505,-156.769 19.505,-156.769 19.505,-154.13 17.254,-155.396 16.568,-154.176 
		19.038,-152.786 16.568,-151.396 17.254,-150.176 19.505,-151.442 19.505,-148.769 	"/>
	<polygon points="26.667,-144.414 24.494,-143.191 24.494,-145.786 22.494,-145.786 22.494,-143.147 20.243,-144.414 
		19.558,-143.193 22.027,-141.804 19.558,-140.414 20.243,-139.193 22.494,-140.46 22.494,-137.786 24.494,-137.786 
		24.494,-140.416 26.667,-139.193 27.353,-140.414 24.883,-141.804 27.353,-143.193 	"/>
	<polygon points="35.683,-151.396 33.51,-150.174 33.51,-152.769 31.51,-152.769 31.51,-150.13 29.259,-151.396 28.573,-150.176 
		31.043,-148.786 28.573,-147.396 29.259,-146.176 31.51,-147.442 31.51,-144.769 33.51,-144.769 33.51,-147.398 35.683,-146.176 
		36.368,-147.396 33.898,-148.786 36.368,-150.176 	"/>
</g>
<g>
	<rect x="118.645" y="-185.809" width="2" height="7.973"/>
	<rect x="99.645" y="-166.895" width="7.973" height="2"/>
	<rect x="104.318" y="-178.161" transform="matrix(0.7071 0.7071 -0.7071 0.7071 -93.5501 -128.4723)" width="7.974" height="2"/>
	<rect x="129.826" y="-181.143" transform="matrix(0.7071 0.7071 -0.7071 0.7071 -86.951 -144.3962)" width="2" height="7.972"/>
	<path d="M149.156-160.019c-1.444-6.742-7.433-11.8-14.605-11.8c-2.185,0-4.258,0.471-6.127,1.314
		c-1.666-3.203-5.006-5.395-8.865-5.395c-5.522,0-10,4.477-10,9.999c0,2.46,0.899,4.702,2.373,6.442
		c-1.428,1.84-2.287,4.144-2.287,6.653c0,5.983,4.836,10.836,10.813,10.865v0.003h1.188v-2h-0.721l-0.457-0.003
		c-4.864-0.023-8.822-4.001-8.822-8.865c0-4.89,3.978-8.868,8.867-8.868c0.15,0,0.299,0.012,0.447,0.022l0.148,0.01l1.314,0.085
		l0.597-1.175c2.225-4.372,6.644-7.089,11.532-7.089c6.062,0,11.382,4.298,12.649,10.219l0.318,1.483l1.514,0.094
		c3.708,0.23,6.612,3.319,6.612,7.03c0,3.878-3.144,7.035-7.017,7.057c-0.042-0.003-0.079-0.005-0.117-0.005l-1.866,0.005v2h1.819
		v-0.006c0.042,0.001,0.082,0.006,0.124,0.006c5.001,0,9.057-4.054,9.057-9.057C157.645-155.802,153.891-159.724,149.156-160.019z
		 M121.236-163.636c-0.241-0.016-0.48-0.036-0.725-0.036c-2.766,0-5.282,1.041-7.2,2.742c-1.092-1.365-1.753-3.089-1.753-4.97
		c0-4.41,3.589-7.999,8-7.999c3.092,0,5.76,1.773,7.091,4.346C124.352-168.113,122.473-166.065,121.236-163.636z"/>
	<polygon points="128.637,-142.916 128.637,-145.546 130.81,-144.323 131.495,-145.544 129.025,-146.934 131.495,-148.323 
		130.81,-149.544 128.637,-148.321 128.637,-150.916 126.637,-150.916 126.637,-148.277 124.386,-149.544 123.7,-148.323 
		126.17,-146.934 123.7,-145.544 124.386,-144.323 126.637,-145.59 126.637,-142.916 	"/>
	<polygon points="133.799,-138.562 131.626,-137.339 131.626,-139.934 129.626,-139.934 129.626,-137.295 127.375,-138.562 
		126.689,-137.341 129.159,-135.951 126.689,-134.562 127.375,-133.341 129.626,-134.607 129.626,-131.934 131.626,-131.934 
		131.626,-134.563 133.799,-133.341 134.484,-134.562 132.015,-135.951 134.484,-137.341 	"/>
	<polygon points="142.814,-145.544 140.642,-144.321 140.642,-146.916 138.642,-146.916 138.642,-144.277 136.391,-145.544 
		135.705,-144.323 138.175,-142.934 135.705,-141.544 136.391,-140.323 138.642,-141.59 138.642,-138.916 140.642,-138.916 
		140.642,-141.546 142.814,-140.323 143.5,-141.544 141.03,-142.934 143.5,-144.323 	"/>
</g>
<g>
	<path d="M249.345-163.021c-1.444-6.742-7.433-11.8-14.605-11.8c-1.799,0-3.522,0.32-5.118,0.904
		c-0.949-5.108-5.404-8.98-10.788-8.98c-0.413,0-0.819,0.027-1.222,0.071c0.744,1.112,1.179,2.448,1.179,3.886c0,3.865-3.134,7-7,7
		c-1.438,0-2.773-0.435-3.886-1.179c-0.044,0.401-0.071,0.809-0.071,1.222c0,3.713,1.845,6.987,4.661,8.979
		c-1.653,1.907-2.661,4.389-2.661,7.111c0,5.983,4.836,10.836,10.813,10.865v0.003h1.188v-2h-0.721l-0.457-0.003
		c-4.864-0.023-8.822-4.001-8.822-8.865c0-4.89,3.978-8.868,8.867-8.868c0.15,0,0.299,0.012,0.447,0.022l0.148,0.01l1.314,0.085
		l0.597-1.175c2.225-4.372,6.644-7.089,11.532-7.089c6.062,0,11.382,4.298,12.649,10.219l0.318,1.483l1.514,0.094
		c3.708,0.23,6.612,3.319,6.612,7.03c0,3.878-3.144,7.035-7.017,7.057c-0.042-0.003-0.079-0.005-0.117-0.005l-1.866,0.005v2h1.819
		v-0.006c0.042,0.001,0.082,0.006,0.124,0.006c5.001,0,9.057-4.054,9.057-9.057C257.833-158.805,254.079-162.727,249.345-163.021z
		 M221.425-166.639c-0.241-0.016-0.48-0.036-0.725-0.036c-2.537,0-4.865,0.877-6.715,2.334c-2.012-1.294-3.486-3.354-3.976-5.776
		c0.582,0.117,1.178,0.177,1.78,0.177c4.963,0,9-4.037,9-9c0-0.603-0.06-1.198-0.177-1.78c3.733,0.753,6.629,3.824,7.134,7.64
		C225.034-171.637,222.819-169.382,221.425-166.639z"/>
	<polygon points="228.87,-145.919 228.87,-148.549 231.043,-147.326 231.729,-148.547 229.259,-149.937 231.729,-151.326 
		231.043,-152.547 228.87,-151.324 228.87,-153.919 226.87,-153.919 226.87,-151.28 224.619,-152.547 223.934,-151.326 
		226.403,-149.937 223.934,-148.547 224.619,-147.326 226.87,-148.593 226.87,-145.919 	"/>
	<polygon points="234.032,-141.564 231.859,-140.342 231.859,-142.937 229.859,-142.937 229.859,-140.298 227.608,-141.564 
		226.923,-140.344 229.393,-138.954 226.923,-137.564 227.608,-136.344 229.859,-137.61 229.859,-134.937 231.859,-134.937 
		231.859,-137.566 234.032,-136.344 234.718,-137.564 232.248,-138.954 234.718,-140.344 	"/>
	<polygon points="243.048,-148.547 240.875,-147.324 240.875,-149.919 238.875,-149.919 238.875,-147.28 236.624,-148.547 
		235.938,-147.326 238.408,-145.937 235.938,-144.547 236.624,-143.326 238.875,-144.593 238.875,-141.919 240.875,-141.919 
		240.875,-144.549 243.048,-143.326 243.733,-144.547 241.264,-145.937 243.733,-147.326 	"/>
</g>
<rect x="-367.014" y="-730.771" fill="none" width="472.974" height="180.918"/>
<text transform="matrix(1 0 0 1 -187.3765 -659.3726)"><tspan x="0" y="0" font-family="'HelveticaNeueLTStd-Th'" font-size="100" letter-spacing="2">60</tspan><tspan x="-99.268" y="60" font-family="'HelveticaNeueLTStd-Lt'" font-size="48" letter-spacing="1">Weather Icons</tspan><tspan x="-3.726" y="104" font-family="'HelveticaNeueLTStd-Lt'" font-size="24">IOS 7 Style</tspan></text>
</svg>
