<?xml version="1.0" encoding="utf-8"?>
<!-- Generator: Adobe Illustrator 16.0.0, SVG Export Plug-In . SVG Version: 6.00 Build 0)  -->
<!DOCTYPE svg PUBLIC "-//W3C//DTD SVG 1.1//EN" "http://www.w3.org/Graphics/SVG/1.1/DTD/svg11.dtd">
<svg version="1.1" id="Layer_1" xmlns="http://www.w3.org/2000/svg" xmlns:xlink="http://www.w3.org/1999/xlink" x="0px" y="0px"
	 width="53px" height="44px" viewBox="0 0 53 44" enable-background="new 0 0 53 44" xml:space="preserve">
<path d="M237.171,278.505l-1.803,15.077l-0.268,2.237h2.254h6.896l-14.693,18.759l1.789-14.52l0.277-2.245h-2.262h-6.957
	L237.171,278.505 M240.025,271.48l-21.667,28.333h11.004l-2.671,21.667l21.667-27.661h-11.004L240.025,271.48L240.025,271.48z"/>
<path d="M-175.864-183.756c6.79,0,12.749,4.814,14.171,11.448l0.318,1.483l1.514,0.094c4.203,0.262,7.496,3.763,7.496,7.971
	c0,4.396-3.565,7.977-7.957,8c-0.046-0.003-0.091-0.006-0.137-0.007l-2.043-0.036v0.043h-28.337l-0.578-0.003
	c-5.485-0.027-9.948-4.513-9.948-9.998c0-5.514,4.485-10,9.999-10c0.175,0,0.347,0.014,0.519,0.025l0.149,0.011l1.316,0.087
	l0.598-1.176C-186.291-180.713-181.341-183.756-175.864-183.756 M-175.864-185.756c-6.423,0-11.977,3.678-14.702,9.035
	c-0.266-0.018-0.53-0.04-0.8-0.04c-6.627,0-11.999,5.372-11.999,12c0,6.607,5.34,11.965,11.938,11.998v0.003h30.925v-0.007
	c0.046,0.001,0.091,0.007,0.137,0.007c5.521,0,10-4.477,10-10c0-5.311-4.145-9.642-9.372-9.967
	C-161.333-180.172-167.944-185.756-175.864-185.756L-175.864-185.756z"/>
<g>
	<path d="M-52.913-165.345c-1.444-6.742-7.433-11.8-14.605-11.8c-2.185,0-4.258,0.47-6.127,1.313
		c-1.666-3.202-5.006-5.394-8.865-5.394c-5.522,0-10,4.477-10,9.999c0,2.46,0.898,4.702,2.373,6.442
		c-1.428,1.84-2.287,4.144-2.287,6.653c0,5.983,4.836,10.836,10.813,10.865v0.003h28.007v-0.006
		c0.042,0.001,0.082,0.006,0.124,0.006c5.001,0,9.057-4.054,9.057-9.057C-44.425-161.128-48.179-165.05-52.913-165.345z
		 M-82.511-179.225c3.092,0,5.76,1.773,7.092,4.345c-2.299,1.44-4.178,3.488-5.414,5.918c-0.241-0.016-0.48-0.036-0.725-0.036
		c-2.766,0-5.281,1.041-7.2,2.743c-1.092-1.366-1.753-3.09-1.753-4.971C-90.511-175.636-86.922-179.225-82.511-179.225z
		 M-53.441-149.262c-0.038-0.003-0.077-0.004-0.117-0.005l-2.047-0.042v0.047h-25.403l-0.594-0.003
		c-4.864-0.023-8.822-4.001-8.822-8.865c0-4.89,3.978-8.868,8.867-8.868c0.15,0,0.299,0.012,0.447,0.021l0.148,0.011l1.314,0.085
		l0.598-1.174c2.224-4.373,6.643-7.09,11.531-7.09c6.062,0,11.381,4.298,12.65,10.219l0.317,1.482l1.514,0.095
		c3.708,0.231,6.612,3.319,6.612,7.03C-46.425-152.44-49.568-149.284-53.441-149.262z"/>
	<rect x="-83.505" y="-191.255" width="2" height="7.973"/>
	<rect x="-102.478" y="-172.269" width="7.973" height="2"/>
	<rect x="-97.752" y="-183.487" transform="matrix(0.7071 0.7071 -0.7071 0.7071 -156.501 12.8523)" width="7.974" height="2"/>
	<rect x="-72.243" y="-186.469" transform="matrix(0.7071 0.7071 -0.7071 0.7071 -149.9019 -3.0716)" width="2" height="7.972"/>
</g>
<path d="M42.83-169.372c-1.444-6.742-7.433-11.8-14.605-11.8c-1.799,0-3.521,0.32-5.118,0.904c-0.949-5.108-5.404-8.98-10.788-8.98
	c-0.413,0-0.819,0.027-1.222,0.071c0.744,1.112,1.179,2.448,1.179,3.886c0,3.865-3.134,7-7,7c-1.438,0-2.773-0.435-3.886-1.179
	c-0.044,0.401-0.071,0.809-0.071,1.222c0,3.712,1.845,6.987,4.661,8.979c-1.653,1.907-2.661,4.389-2.661,7.111
	c0,5.983,4.836,10.836,10.813,10.865v0.003h28.007v-0.006c0.042,0.001,0.082,0.006,0.124,0.006c5.001,0,9.057-4.054,9.057-9.057
	C51.318-165.155,47.564-169.077,42.83-169.372z M3.495-176.468c0.582,0.117,1.178,0.177,1.78,0.177c4.963,0,9-4.037,9-9
	c0-0.603-0.06-1.198-0.177-1.78c3.733,0.753,6.629,3.824,7.134,7.64c-2.713,1.444-4.928,3.699-6.322,6.442
	c-0.241-0.016-0.48-0.036-0.725-0.036c-2.537,0-4.865,0.876-6.715,2.334C5.459-171.985,3.984-174.045,3.495-176.468z
	 M42.302-153.289c-0.038-0.003-0.077-0.004-0.117-0.005l-2.047-0.042v0.047H14.734l-0.594-0.003
	c-4.864-0.023-8.822-4.001-8.822-8.865c0-4.89,3.978-8.868,8.867-8.868c0.15,0,0.299,0.012,0.447,0.021l0.148,0.011l1.314,0.085
	l0.598-1.174c2.224-4.373,6.643-7.09,11.531-7.09c6.062,0,11.381,4.298,12.65,10.219l0.317,1.482l1.514,0.095
	c3.708,0.231,6.612,3.319,6.612,7.03C49.318-156.468,46.175-153.312,42.302-153.289z"/>
<g>
	<rect x="127.476" y="-160.749" width="2" height="7"/>
	<rect x="135.476" y="-164.749" width="2" height="7"/>
	<rect x="119.476" y="-164.749" width="2" height="7"/>
	<rect x="127.476" y="-150.749" width="2" height="7"/>
	<rect x="135.476" y="-154.749" width="2" height="7"/>
	<rect x="119.476" y="-154.749" width="2" height="7"/>
	<path d="M146.104-177.737c-1.596-7.445-8.207-13.029-16.127-13.029c-6.423,0-11.977,3.678-14.702,9.035
		c-0.266-0.018-0.53-0.04-0.8-0.04c-6.627,0-11.999,5.372-11.999,12c0,6.607,5.34,11.965,11.938,11.998v0.003h2.062v-2h-1.604
		l-0.447-0.003c-5.485-0.027-9.948-4.513-9.948-9.998c0-5.514,4.485-10,9.999-10c0.175,0,0.347,0.014,0.52,0.025l0.148,0.01
		l1.316,0.088l0.598-1.176c2.492-4.899,7.443-7.942,12.92-7.942c6.79,0,12.75,4.814,14.172,11.448l0.317,1.482l1.514,0.095
		c4.203,0.262,7.496,3.763,7.496,7.971c0,4.397-3.565,7.977-7.957,8c-0.05-0.003-0.093-0.005-0.137-0.007l-2.043,0.007h-2.863v2
		h4.863v-0.007c0.046,0.001,0.091,0.007,0.137,0.007c5.521,0,10-4.477,10-10C155.476-173.081,151.331-177.412,146.104-177.737z"/>
</g>
<g>
	<path d="M-56.323-88.38c-1.596-7.445-8.207-13.029-16.127-13.029c-6.423,0-11.977,3.678-14.702,9.035
		c-0.266-0.018-0.53-0.04-0.8-0.04c-6.627,0-11.999,5.372-11.999,12c0,6.607,5.34,11.965,11.938,11.998v0.003h2.062v-2h-1.604
		l-0.447-0.003c-5.485-0.027-9.948-4.513-9.948-9.998c0-5.514,4.485-10,9.999-10c0.175,0,0.347,0.014,0.52,0.025l0.148,0.01
		l1.316,0.088l0.598-1.176c2.492-4.899,7.443-7.942,12.92-7.942c6.79,0,12.75,4.814,14.172,11.448l0.317,1.482l1.514,0.095
		c4.203,0.262,7.496,3.763,7.496,7.971c0,4.397-3.565,7.977-7.957,8c-0.05-0.003-0.093-0.005-0.137-0.007l-2.043,0.007h-2.863v2
		h4.863v-0.007c0.046,0.001,0.091,0.007,0.137,0.007c5.521,0,10-4.477,10-10C-46.951-83.724-51.096-88.055-56.323-88.38z"/>
	<polygon points="-74.951,-61.385 -74.951,-59.444 -74.951,-53.385 -72.951,-53.385 -72.951,-59.444 -72.951,-61.385 
		-72.951,-73.385 -74.951,-73.385 	"/>
	<polygon points="-66.951,-65.385 -66.951,-63.632 -66.951,-57.385 -64.951,-57.385 -64.951,-63.632 -64.951,-65.385 
		-64.951,-77.385 -66.951,-77.385 	"/>
	<polygon points="-82.951,-65.385 -82.951,-63.319 -82.951,-57.385 -80.951,-57.385 -80.951,-63.319 -80.951,-65.385 
		-80.951,-77.385 -82.951,-77.385 	"/>
</g>
<g>
	<polygon points="239.326,-64.474 232.443,-74.304 230.806,-73.156 237.688,-63.326 238.801,-61.737 242.276,-56.773 
		243.915,-57.92 240.439,-62.885 	"/>
	<polygon points="247.328,-64.476 240.443,-74.304 238.806,-73.155 245.691,-63.327 246.696,-61.892 250.28,-56.776 
		251.919,-57.923 248.335,-63.039 	"/>
	<polygon points="231.326,-64.474 224.443,-74.304 222.806,-73.155 229.688,-63.326 230.873,-61.634 234.277,-56.772 
		235.915,-57.92 232.512,-62.781 	"/>
	<path d="M250.434-88.113c-1.596-7.445-8.207-13.029-16.127-13.029c-6.423,0-11.977,3.678-14.702,9.035
		c-0.266-0.018-0.53-0.04-0.8-0.04c-6.627,0-11.999,5.372-11.999,12c0,6.607,5.34,11.965,11.938,11.998v0.003h2.062v-2h-1.604
		l-0.447-0.003c-5.485-0.027-9.948-4.513-9.948-9.998c0-5.514,4.485-10,9.999-10c0.175,0,0.347,0.014,0.52,0.025l0.148,0.01
		l1.316,0.088l0.598-1.176c2.492-4.899,7.443-7.942,12.92-7.942c6.79,0,12.75,4.814,14.172,11.448l0.317,1.482l1.514,0.095
		c4.203,0.262,7.496,3.763,7.496,7.971c0,4.397-3.565,7.977-7.957,8c-0.05-0.003-0.093-0.005-0.137-0.007l-1.043,0.007h0.137v2
		h0.863v-0.007c0.046,0.001,0.091,0.007,0.137,0.007c5.521,0,10-4.477,10-10C259.806-83.457,255.661-87.788,250.434-88.113z"/>
</g>
<g>
	<rect x="222.132" y="-197.195" width="2" height="7.973"/>
	<rect x="203.132" y="-178.281" width="7.973" height="2"/>
	<rect x="207.805" y="-189.548" transform="matrix(0.7071 0.7071 -0.7071 0.7071 -71.291 -204.9839)" width="7.974" height="2"/>
	<rect x="233.314" y="-192.53" transform="matrix(0.7071 0.7071 -0.7071 0.7071 -64.6919 -220.9079)" width="2" height="7.972"/>
	<rect x="236.132" y="-156.322" width="2" height="7"/>
	<rect x="244.132" y="-160.322" width="2" height="7"/>
	<rect x="228.132" y="-160.322" width="2" height="7"/>
	<rect x="236.132" y="-146.322" width="2" height="7"/>
	<rect x="244.132" y="-150.322" width="2" height="7"/>
	<rect x="228.132" y="-150.322" width="2" height="7"/>
	<path d="M252.644-171.405c-1.444-6.742-7.433-11.8-14.605-11.8c-2.185,0-4.258,0.47-6.126,1.313
		c-1.667-3.202-5.007-5.394-8.866-5.394c-5.522,0-10,4.477-10,9.999c0,2.46,0.899,4.702,2.373,6.442
		c-1.429,1.84-2.287,4.144-2.287,6.653c0,5.983,4.836,10.836,10.813,10.865v0.003h1.188v-2h-0.721l-0.457-0.003
		c-4.864-0.023-8.822-4.001-8.822-8.865c0-4.89,3.978-8.868,8.867-8.868c0.15,0,0.299,0.012,0.447,0.022l0.148,0.01l1.314,0.085
		l0.597-1.175c2.225-4.372,6.644-7.089,11.532-7.089c6.062,0,11.382,4.298,12.649,10.219l0.318,1.483l1.514,0.094
		c3.708,0.23,6.612,3.319,6.612,7.03c0,3.878-3.144,7.035-7.017,7.057c-0.042-0.003-0.079-0.005-0.117-0.005l-2.047,0.005h-0.819v2
		h2.819v-0.006c0.042,0.001,0.082,0.006,0.124,0.006c5.001,0,9.057-4.054,9.057-9.057
		C261.132-167.188,257.378-171.11,252.644-171.405z M224.724-175.022c-0.241-0.016-0.48-0.036-0.725-0.036
		c-2.766,0-5.282,1.041-7.2,2.743c-1.092-1.366-1.753-3.09-1.753-4.971c0-4.41,3.589-7.999,8-7.999c3.091,0,5.76,1.773,7.091,4.345
		C227.839-179.5,225.959-177.452,224.724-175.022z"/>
</g>
<g>
	<rect x="336.549" y="-157.77" width="2" height="7"/>
	<rect x="344.549" y="-161.77" width="2" height="7"/>
	<rect x="328.549" y="-161.77" width="2" height="7"/>
	<rect x="336.549" y="-147.77" width="2" height="7"/>
	<rect x="344.549" y="-151.77" width="2" height="7"/>
	<rect x="328.549" y="-151.77" width="2" height="7"/>
	<path d="M353.061-172.853c-1.444-6.742-7.433-11.8-14.605-11.8c-1.799,0-3.522,0.32-5.118,0.904
		c-0.949-5.108-5.404-8.98-10.788-8.98c-0.413,0-0.819,0.027-1.222,0.071c0.744,1.112,1.179,2.448,1.179,3.886c0,3.865-3.134,7-7,7
		c-1.438,0-2.773-0.435-3.886-1.179c-0.044,0.401-0.071,0.809-0.071,1.222c0,3.712,1.845,6.987,4.661,8.979
		c-1.653,1.907-2.661,4.389-2.661,7.111c0,5.983,4.836,10.836,10.813,10.865v0.003h1.188v-2h-0.721l-0.457-0.003
		c-4.864-0.023-8.822-4.001-8.822-8.865c0-4.89,3.978-8.868,8.867-8.868c0.15,0,0.299,0.012,0.447,0.022l0.148,0.01l1.314,0.085
		l0.597-1.175c2.225-4.372,6.644-7.089,11.532-7.089c6.062,0,11.382,4.298,12.649,10.219l0.318,1.483l1.514,0.094
		c3.708,0.23,6.612,3.319,6.612,7.03c0,3.878-3.144,7.035-7.017,7.057c-0.042-0.003-0.079-0.005-0.117-0.005l-2.047,0.005h-0.819v2
		h2.819v-0.006c0.042,0.001,0.082,0.006,0.124,0.006c5.001,0,9.057-4.054,9.057-9.057
		C361.549-168.636,357.795-172.558,353.061-172.853z M325.141-176.47c-0.241-0.016-0.48-0.036-0.725-0.036
		c-2.537,0-4.865,0.876-6.715,2.334c-2.012-1.294-3.487-3.354-3.976-5.776c0.582,0.117,1.178,0.177,1.78,0.177c4.963,0,9-4.037,9-9
		c0-0.603-0.06-1.198-0.177-1.78c3.733,0.753,6.629,3.824,7.133,7.64C328.751-181.468,326.536-179.213,325.141-176.47z"/>
</g>
<g>
	<polygon points="29.318,-56.946 29.318,-55.006 29.318,-48.946 31.318,-48.946 31.318,-55.006 31.318,-56.946 31.318,-68.946 
		29.318,-68.946 	"/>
	<polygon points="37.318,-60.946 37.318,-59.193 37.318,-52.946 39.318,-52.946 39.318,-59.193 39.318,-60.946 39.318,-72.946 
		37.318,-72.946 	"/>
	<polygon points="21.318,-60.946 21.318,-58.881 21.318,-52.946 23.318,-52.946 23.318,-58.881 23.318,-60.946 23.318,-72.946 
		21.318,-72.946 	"/>
	<rect x="15.318" y="-107.849" width="2" height="7.973"/>
	<rect x="-3.682" y="-88.935" width="7.973" height="2"/>
	<rect x="0.991" y="-100.201" transform="matrix(0.7071 0.7071 -0.7071 0.7071 -68.6876 -32.5757)" width="7.974" height="2"/>
	<rect x="26.5" y="-103.183" transform="matrix(0.7071 0.7071 -0.7071 0.7071 -62.0885 -48.4996)" width="2" height="7.972"/>
	<path d="M45.83-82.059c-1.444-6.742-7.433-11.8-14.605-11.8c-2.185,0-4.258,0.47-6.127,1.313c-1.666-3.202-5.006-5.394-8.865-5.394
		c-5.522,0-10,4.477-10,9.999c0,2.46,0.898,4.702,2.373,6.442c-1.428,1.84-2.287,4.144-2.287,6.653
		c0,5.983,4.836,10.836,10.813,10.865v0.003h1.188v-2h-0.721l-0.457-0.003c-4.864-0.023-8.822-4.001-8.822-8.865
		c0-4.89,3.978-8.868,8.867-8.868c0.15,0,0.299,0.012,0.447,0.022l0.148,0.01l1.314,0.085l0.597-1.175
		c2.225-4.372,6.644-7.089,11.532-7.089c6.062,0,11.382,4.298,12.649,10.219l0.318,1.483l1.514,0.094
		c3.708,0.23,6.612,3.319,6.612,7.03c0,3.878-3.144,7.035-7.017,7.057c-0.042-0.003-0.079-0.005-0.117-0.005l-2.047,0.005h-0.819v2
		h2.819v-0.006c0.042,0.001,0.082,0.006,0.124,0.006c5.001,0,9.057-4.054,9.057-9.057C54.318-77.842,50.564-81.764,45.83-82.059z
		 M17.91-85.676c-0.241-0.016-0.48-0.036-0.725-0.036c-2.766,0-5.281,1.042-7.2,2.743c-1.092-1.367-1.753-3.09-1.753-4.971
		c0-4.41,3.589-7.999,8-7.999c3.092,0,5.76,1.773,7.092,4.345C21.025-90.154,19.146-88.105,17.91-85.676z"/>
</g>
<g>
	<polygon points="129.716,-59.463 129.716,-57.522 129.716,-51.463 131.716,-51.463 131.716,-57.522 131.716,-59.463 
		131.716,-71.463 129.716,-71.463 	"/>
	<polygon points="137.716,-63.463 137.716,-61.71 137.716,-55.463 139.716,-55.463 139.716,-61.71 139.716,-63.463 139.716,-75.463 
		137.716,-75.463 	"/>
	<polygon points="121.716,-63.463 121.716,-61.397 121.716,-55.463 123.716,-55.463 123.716,-61.397 123.716,-63.463 
		123.716,-75.463 121.716,-75.463 	"/>
	<path d="M146.228-84.575c-1.444-6.742-7.433-11.8-14.605-11.8c-1.799,0-3.521,0.32-5.118,0.904
		c-0.949-5.108-5.404-8.98-10.788-8.98c-0.413,0-0.819,0.027-1.222,0.071c0.744,1.112,1.179,2.448,1.179,3.886c0,3.865-3.134,7-7,7
		c-1.438,0-2.773-0.435-3.886-1.179c-0.044,0.401-0.071,0.809-0.071,1.222c0,3.712,1.845,6.987,4.661,8.979
		c-1.653,1.907-2.661,4.389-2.661,7.111c0,5.983,4.836,10.836,10.813,10.865v0.003h1.188v-2h-0.721l-0.457-0.003
		c-4.864-0.023-8.822-4.001-8.822-8.865c0-4.89,3.978-8.868,8.867-8.868c0.15,0,0.299,0.012,0.447,0.022l0.148,0.01l1.314,0.085
		l0.597-1.175c2.225-4.372,6.644-7.089,11.532-7.089c6.062,0,11.382,4.298,12.649,10.219l0.318,1.483l1.514,0.094
		c3.708,0.23,6.612,3.319,6.612,7.03c0,3.878-3.144,7.035-7.017,7.057c-0.042-0.003-0.079-0.005-0.117-0.005l-2.047,0.005h-0.819v2
		h2.819v-0.006c0.042,0.001,0.082,0.006,0.124,0.006c5.001,0,9.057-4.054,9.057-9.057C154.716-80.358,150.962-84.28,146.228-84.575z
		 M118.308-88.192c-0.241-0.016-0.48-0.036-0.725-0.036c-2.537,0-4.865,0.876-6.715,2.334c-2.012-1.294-3.486-3.354-3.976-5.776
		c0.582,0.117,1.178,0.177,1.78,0.177c4.963,0,9-4.037,9-9c0-0.603-0.06-1.198-0.177-1.78c3.733,0.753,6.629,3.824,7.134,7.641
		C121.917-93.19,119.702-90.935,118.308-88.192z"/>
</g>
<g>
	<polygon points="346.751,-58.519 339.868,-68.349 338.23,-67.201 345.113,-57.371 346.226,-55.782 349.701,-50.818 351.34,-51.965 
		347.864,-56.93 	"/>
	<polygon points="354.753,-58.521 347.868,-68.349 346.23,-67.2 353.116,-57.372 354.121,-55.937 357.705,-50.821 359.344,-51.968 
		355.76,-57.084 	"/>
	<polygon points="338.751,-58.519 331.868,-68.349 330.23,-67.2 337.113,-57.371 338.298,-55.679 341.702,-50.817 343.34,-51.965 
		339.937,-56.826 	"/>
	<rect x="326.23" y="-106.067" width="2" height="7.973"/>
	<rect x="307.23" y="-87.153" width="7.973" height="2"/>
	<rect x="311.903" y="-98.42" transform="matrix(0.7071 0.7071 -0.7071 0.7071 23.636 -251.902)" width="7.974" height="2"/>
	<rect x="337.412" y="-101.402" transform="matrix(0.7071 0.7071 -0.7071 0.7071 30.2351 -267.826)" width="2" height="7.972"/>
	<path d="M356.742-80.277c-1.444-6.742-7.433-11.8-14.605-11.8c-2.185,0-4.258,0.47-6.126,1.313
		c-1.667-3.202-5.007-5.394-8.866-5.394c-5.522,0-10,4.477-10,9.999c0,2.46,0.899,4.702,2.373,6.442
		c-1.429,1.84-2.287,4.144-2.287,6.653c0,5.983,4.836,10.836,10.813,10.865v0.003h1.188v-2h-0.721l-0.457-0.003
		c-4.864-0.023-8.822-4.001-8.822-8.865c0-4.89,3.978-8.868,8.867-8.868c0.15,0,0.299,0.012,0.447,0.022l0.148,0.01l1.314,0.085
		l0.597-1.175c2.225-4.372,6.644-7.089,11.532-7.089c6.062,0,11.382,4.298,12.649,10.219l0.318,1.483l1.514,0.094
		c3.708,0.23,6.612,3.319,6.612,7.03c0,3.878-3.144,7.035-7.017,7.057c-0.042-0.003-0.079-0.005-0.117-0.005l-0.047,0.005h-0.819v2
		h0.819V-62.2c0.042,0.001,0.082,0.006,0.124,0.006c5.001,0,9.057-4.054,9.057-9.057C365.23-76.061,361.477-79.982,356.742-80.277z
		 M328.822-83.895c-0.241-0.016-0.48-0.036-0.725-0.036c-2.766,0-5.282,1.042-7.2,2.743c-1.092-1.367-1.753-3.09-1.753-4.971
		c0-4.41,3.589-7.999,8-7.999c3.091,0,5.76,1.773,7.091,4.345C331.938-88.373,330.058-86.324,328.822-83.895z"/>
</g>
<g>
	<polygon points="-376.68,37.967 -383.563,28.137 -385.2,29.284 -378.317,39.114 -377.205,40.703 -373.729,45.667 -372.091,44.521 
		-375.566,39.556 	"/>
	<polygon points="-368.678,37.965 -375.563,28.137 -377.2,29.285 -370.314,39.113 -369.31,40.549 -365.726,45.664 -364.087,44.518 
		-367.671,39.401 	"/>
	<polygon points="-384.68,37.967 -391.563,28.137 -393.2,29.285 -386.317,39.114 -385.133,40.807 -381.729,45.668 -380.091,44.521 
		-383.494,39.659 	"/>
	<path d="M-366.688,16.208c-1.444-6.742-7.433-11.8-14.605-11.8c-1.799,0-3.522,0.32-5.118,0.904
		c-0.949-5.108-5.404-8.98-10.788-8.98c-0.413,0-0.819,0.027-1.222,0.071c0.744,1.112,1.179,2.448,1.179,3.886c0,3.865-3.134,7-7,7
		c-1.438,0-2.773-0.435-3.886-1.179c-0.044,0.401-0.071,0.809-0.071,1.222c0,3.712,1.845,6.987,4.661,8.979
		c-1.653,1.907-2.661,4.389-2.661,7.111c0,5.983,4.836,10.836,10.813,10.865v0.003h1.188v-2h-0.721l-0.457-0.003
		c-4.864-0.023-8.822-4.001-8.822-8.865c0-4.89,3.978-8.868,8.867-8.868c0.15,0,0.299,0.012,0.447,0.022l0.148,0.01l1.314,0.085
		l0.597-1.175c2.225-4.372,6.644-7.089,11.532-7.089c6.062,0,11.382,4.298,12.649,10.219l0.318,1.483l1.514,0.094
		c3.708,0.23,6.612,3.319,6.612,7.03c0,3.878-3.144,7.035-7.017,7.057c-0.042-0.003-0.079-0.005-0.117-0.005l-0.047,0.005h-0.819v2
		h0.819v-0.006c0.042,0.001,0.082,0.006,0.124,0.006c5.001,0,9.057-4.054,9.057-9.057C-358.2,20.425-361.954,16.503-366.688,16.208z
		 M-394.608,12.591c-0.241-0.016-0.48-0.036-0.725-0.036c-2.537,0-4.865,0.876-6.715,2.334c-2.012-1.294-3.487-3.354-3.976-5.776
		c0.582,0.117,1.178,0.177,1.78,0.177c4.963,0,9-4.037,9-9c0-0.603-0.06-1.198-0.177-1.78c3.733,0.753,6.629,3.824,7.133,7.641
		C-390.998,7.593-393.213,9.849-394.608,12.591z"/>
</g>
<g>
	<rect x="-384.2" y="-65.88" width="2" height="4"/>
	<rect x="-376.2" y="-69.901" width="2" height="4.021"/>
	<rect x="-392.2" y="-69.901" width="2" height="4.021"/>
	<path d="M-365.572-85.868c-1.596-7.445-8.207-13.029-16.127-13.029c-6.423,0-11.977,3.678-14.702,9.035
		c-0.266-0.018-0.53-0.04-0.8-0.04c-6.627,0-11.999,5.372-11.999,12c0,6.607,5.34,11.965,11.938,11.998v0.003h2.062v-2h-1.604
		l-0.447-0.003c-5.485-0.027-9.948-4.513-9.948-9.998c0-5.514,4.485-10,9.999-10c0.175,0,0.347,0.014,0.52,0.025l0.148,0.01
		l1.316,0.088l0.598-1.176c2.492-4.899,7.443-7.942,12.92-7.942c6.79,0,12.75,4.814,14.172,11.448l0.317,1.482l1.514,0.095
		c4.203,0.262,7.496,3.763,7.496,7.971c0,4.397-3.565,7.977-7.957,8c-0.05-0.003-0.093-0.005-0.137-0.007l-2.043,0.007h-2.863v2
		h4.863v-0.007c0.046,0.001,0.091,0.007,0.137,0.007c5.521,0,10-4.477,10-10C-356.2-81.212-360.345-85.543-365.572-85.868z"/>
	<circle cx="-375.2" cy="-60.859" r="1.5"/>
	<circle cx="-383.2" cy="-56.891" r="1.5"/>
	<circle cx="-391.2" cy="-60.901" r="1.5"/>
</g>
<g>
	<rect x="-291.279" y="-105.334" width="2" height="7.973"/>
	<rect x="-310.279" y="-86.42" width="7.973" height="2"/>
	<rect x="-305.606" y="-97.686" transform="matrix(0.7071 0.7071 -0.7071 0.7071 -156.7099 184.9581)" width="7.974" height="2"/>
	<rect x="-280.098" y="-100.668" transform="matrix(0.7071 0.7071 -0.7071 0.7071 -150.1107 169.0341)" width="2" height="7.972"/>
	<path d="M-260.768-79.544c-1.444-6.742-7.433-11.8-14.605-11.8c-2.185,0-4.258,0.47-6.126,1.313
		c-1.667-3.202-5.007-5.394-8.866-5.394c-5.522,0-10,4.477-10,9.999c0,2.46,0.899,4.702,2.373,6.442
		c-1.429,1.84-2.287,4.144-2.287,6.653c0,5.983,4.836,10.836,10.813,10.865v0.003h1.188v-2H-289l-0.457-0.003
		c-4.864-0.023-8.822-4.001-8.822-8.865c0-4.89,3.978-8.868,8.867-8.868c0.15,0,0.299,0.012,0.447,0.022l0.148,0.01l1.314,0.085
		l0.597-1.175c2.225-4.372,6.644-7.089,11.532-7.089c6.062,0,11.382,4.298,12.649,10.219l0.318,1.483l1.514,0.094
		c3.708,0.23,6.612,3.319,6.612,7.03c0,3.878-3.144,7.035-7.017,7.057c-0.042-0.003-0.079-0.005-0.117-0.005l-2.047,0.005h-0.819v2
		h2.819v-0.006c0.042,0.001,0.082,0.006,0.124,0.006c5.001,0,9.057-4.054,9.057-9.057
		C-252.279-75.327-256.033-79.249-260.768-79.544z M-288.688-83.161c-0.241-0.016-0.48-0.036-0.725-0.036
		c-2.766,0-5.282,1.042-7.2,2.743c-1.092-1.367-1.753-3.09-1.753-4.971c0-4.41,3.589-7.999,8-7.999c3.091,0,5.76,1.773,7.091,4.345
		C-285.572-87.64-287.452-85.591-288.688-83.161z"/>
	<rect x="-277.279" y="-61.445" width="2" height="4"/>
	<rect x="-269.279" y="-65.467" width="2" height="4.021"/>
	<rect x="-285.279" y="-65.467" width="2" height="4.021"/>
	<circle cx="-268.279" cy="-56.425" r="1.5"/>
	<circle cx="-276.279" cy="-52.456" r="1.5"/>
	<circle cx="-284.279" cy="-56.467" r="1.5"/>
</g>
<g>
	<path d="M-159.842-80.501c-1.444-6.742-7.433-11.8-14.605-11.8c-1.799,0-3.522,0.32-5.118,0.904
		c-0.949-5.108-5.404-8.98-10.788-8.98c-0.413,0-0.819,0.027-1.222,0.071c0.744,1.112,1.179,2.448,1.179,3.886c0,3.865-3.134,7-7,7
		c-1.438,0-2.773-0.435-3.886-1.179c-0.044,0.401-0.071,0.809-0.071,1.222c0,3.712,1.845,6.987,4.661,8.979
		c-1.653,1.907-2.661,4.389-2.661,7.111c0,5.983,4.836,10.836,10.813,10.865v0.003h1.188v-2h-0.721l-0.457-0.003
		c-4.864-0.023-8.822-4.001-8.822-8.865c0-4.89,3.978-8.868,8.867-8.868c0.15,0,0.299,0.012,0.447,0.022l0.148,0.01l1.314,0.085
		l0.597-1.175c2.225-4.372,6.644-7.089,11.532-7.089c6.062,0,11.382,4.298,12.649,10.219l0.318,1.483l1.514,0.094
		c3.708,0.23,6.612,3.319,6.612,7.03c0,3.878-3.144,7.035-7.017,7.057c-0.042-0.003-0.079-0.005-0.117-0.005l-2.047,0.005h-0.819v2
		h2.819v-0.006c0.042,0.001,0.082,0.006,0.124,0.006c5.001,0,9.057-4.054,9.057-9.057
		C-151.354-76.284-155.107-80.206-159.842-80.501z M-187.762-84.118c-0.241-0.016-0.48-0.036-0.725-0.036
		c-2.537,0-4.865,0.876-6.715,2.334c-2.012-1.294-3.487-3.354-3.976-5.776c0.582,0.117,1.178,0.177,1.78,0.177c4.963,0,9-4.037,9-9
		c0-0.603-0.06-1.198-0.177-1.78c3.733,0.753,6.629,3.824,7.133,7.641C-184.151-89.116-186.366-86.86-187.762-84.118z"/>
	<rect x="-176.354" y="-62.402" width="2" height="4"/>
	<rect x="-168.354" y="-66.424" width="2" height="4.021"/>
	<rect x="-184.354" y="-66.424" width="2" height="4.021"/>
	<circle cx="-167.354" cy="-57.382" r="1.5"/>
	<circle cx="-175.354" cy="-53.413" r="1.5"/>
	<circle cx="-183.354" cy="-57.424" r="1.5"/>
</g>
<g>
	<path d="M-263.151,12.529C-264.747,5.084-271.358-0.5-279.278-0.5c-6.423,0-11.977,3.678-14.702,9.035
		c-0.266-0.018-0.53-0.04-0.8-0.04c-6.627,0-11.999,5.372-11.999,12c0,6.607,5.34,11.965,11.938,11.998v0.003h6.062v-2h-5.604
		l-0.447-0.003c-5.485-0.027-9.948-4.513-9.948-9.998c0-5.514,4.485-10,9.999-10c0.175,0,0.347,0.014,0.52,0.025l0.148,0.01
		l1.316,0.088l0.598-1.176c2.492-4.899,7.443-7.942,12.92-7.942c6.79,0,12.75,4.814,14.172,11.448l0.317,1.482l1.514,0.095
		c4.203,0.262,7.496,3.763,7.496,7.971c0,4.397-3.565,7.977-7.957,8c-0.05-0.003-0.093-0.005-0.137-0.007l-5.043,0.007h0.137v2
		h4.863v-0.007c0.046,0.001,0.091,0.007,0.137,0.007c5.521,0,10-4.477,10-10C-253.779,17.186-257.924,12.854-263.151,12.529z"/>
	<polygon points="-278.938,32.5 -277.168,32.5 -276.737,32.5 -274.728,32.5 -281.142,23.339 -282.779,24.486 -278.568,30.5 
		-280.339,30.5 -282.779,30.5 -281.508,32.316 -280.396,33.905 -274.418,42.5 -272.779,41.354 -278.757,32.758 	"/>
</g>
<g>
	<rect x="-187.354" y="-6.601" width="2" height="7.973"/>
	<rect x="-206.354" y="12.313" width="7.973" height="2"/>
	<rect x="-201.68" y="1.047" transform="matrix(0.7071 0.7071 -0.7071 0.7071 -56.4557 140.3898)" width="7.974" height="2"/>
	<rect x="-176.172" y="-1.935" transform="matrix(0.7071 0.7071 -0.7071 0.7071 -49.8565 124.4659)" width="2" height="7.972"/>
	<path d="M-156.842,19.189c-1.444-6.742-7.433-11.8-14.605-11.8c-2.185,0-4.258,0.47-6.127,1.313
		c-1.666-3.202-5.006-5.394-8.865-5.394c-5.522,0-10,4.477-10,9.999c0,2.46,0.898,4.702,2.373,6.442
		c-1.428,1.84-2.287,4.144-2.287,6.653c0,5.983,4.836,10.836,10.813,10.865v0.003h4.188v-2h-3.721l-0.457-0.003
		c-4.864-0.023-8.822-4.001-8.822-8.865c0-4.89,3.978-8.868,8.867-8.868c0.15,0,0.299,0.012,0.447,0.022l0.148,0.01l1.314,0.085
		l0.597-1.175c2.225-4.372,6.644-7.089,11.532-7.089c6.062,0,11.382,4.298,12.649,10.219l0.318,1.483l1.514,0.094
		c3.708,0.23,6.612,3.319,6.612,7.03c0,3.878-3.144,7.035-7.017,7.057c-0.042-0.003-0.079-0.005-0.117-0.005l-2.047,0.005h-3.819v2
		h5.819v-0.006c0.042,0.001,0.082,0.006,0.124,0.006c5.001,0,9.057-4.054,9.057-9.057
		C-148.354,23.406-152.107,19.484-156.842,19.189z M-184.762,15.572c-0.241-0.016-0.48-0.036-0.725-0.036
		c-2.766,0-5.281,1.041-7.2,2.743c-1.092-1.366-1.753-3.09-1.753-4.971c0-4.41,3.589-7.999,8-7.999c3.092,0,5.76,1.773,7.092,4.345
		C-181.646,11.095-183.525,13.143-184.762,15.572z"/>
	<polygon points="-172.512,37.279 -170.742,37.279 -170.312,37.279 -168.302,37.279 -174.716,28.118 -176.354,29.266 
		-172.143,35.279 -173.913,35.279 -176.354,35.279 -175.082,37.096 -173.97,38.685 -167.992,47.279 -166.354,46.133 
		-172.331,37.537 	"/>
</g>
<g>
	<path d="M-57.257,16.894c-1.444-6.742-7.433-11.8-14.605-11.8c-1.799,0-3.521,0.32-5.118,0.904
		c-0.949-5.108-5.404-8.98-10.788-8.98c-0.413,0-0.819,0.027-1.222,0.071c0.744,1.112,1.179,2.448,1.179,3.886c0,3.865-3.134,7-7,7
		c-1.438,0-2.773-0.435-3.886-1.179c-0.044,0.401-0.071,0.809-0.071,1.222c0,3.712,1.845,6.987,4.661,8.979
		c-1.653,1.907-2.661,4.389-2.661,7.111c0,5.983,4.836,10.836,10.813,10.865v0.003h4.188v-2h-3.721l-0.457-0.003
		c-4.864-0.023-8.822-4.001-8.822-8.865c0-4.89,3.978-8.868,8.867-8.868c0.15,0,0.299,0.012,0.447,0.022l0.148,0.01l1.314,0.085
		l0.597-1.175c2.225-4.372,6.644-7.089,11.532-7.089c6.062,0,11.382,4.298,12.649,10.219l0.318,1.483l1.514,0.094
		c3.708,0.23,6.612,3.319,6.612,7.03c0,3.878-3.144,7.035-7.017,7.057c-0.042-0.003-0.079-0.005-0.117-0.005l-2.047,0.005h-3.819v2
		h5.819v-0.006c0.042,0.001,0.082,0.006,0.124,0.006c5.001,0,9.057-4.054,9.057-9.057C-48.769,21.11-52.522,17.188-57.257,16.894z
		 M-85.177,13.276c-0.241-0.016-0.48-0.036-0.725-0.036c-2.537,0-4.865,0.876-6.715,2.334c-2.012-1.294-3.486-3.354-3.976-5.776
		c0.582,0.117,1.178,0.177,1.78,0.177c4.963,0,9-4.037,9-9c0-0.603-0.06-1.198-0.177-1.78c3.733,0.753,6.629,3.824,7.134,7.64
		C-81.567,8.278-83.782,10.533-85.177,13.276z"/>
	<polygon points="-72.927,34.983 -71.157,34.983 -70.727,34.983 -68.717,34.983 -75.131,25.822 -76.769,26.97 -72.558,32.983 
		-74.328,32.983 -76.769,32.983 -75.497,34.8 -74.385,36.389 -68.407,44.983 -66.769,43.837 -72.746,35.241 	"/>
</g>
<g>
	<path d="M43.628,13.029C42.032,5.584,35.421,0,27.501,0c-6.423,0-11.977,3.678-14.702,9.035c-0.266-0.018-0.53-0.04-0.8-0.04
		C5.372,8.995,0,14.367,0,20.995c0,6.607,5.34,11.965,11.938,11.998v0.003H13v-2h-0.604l-0.447-0.003C6.463,30.966,2,26.48,2,20.995
		c0-5.514,4.485-10,9.999-10c0.175,0,0.347,0.014,0.52,0.025l0.148,0.01l1.316,0.088l0.598-1.176C17.073,5.043,22.024,2,27.501,2
		c6.79,0,12.75,4.814,14.172,11.448l0.317,1.482l1.514,0.095C47.707,15.287,51,18.788,51,22.996c0,4.397-3.565,7.977-7.957,8
		c-0.05-0.003-0.093-0.005-0.137-0.007L42,30.996v2h0.863v-0.007c0.046,0.001,0.091,0.007,0.137,0.007c5.521,0,10-4.477,10-10
		C53,17.686,48.855,13.354,43.628,13.029z"/>
	<rect x="12.434" y="30.994" transform="matrix(-0.5736 -0.8191 0.8191 -0.5736 2.1599 65.1116)" width="11.183" height="1.999"/>
	<rect x="30.409" y="30.994" transform="matrix(-0.5736 -0.8191 0.8191 -0.5736 30.4455 79.8347)" width="11.183" height="1.999"/>
	<polygon points="28.842,36 30.611,36 31.042,36 33.052,36 26.638,26.839 25,27.986 29.211,34 27.44,34 25,34 26.271,35.816 
		27.384,37.405 32,44 33.639,42.854 29.022,36.258 	"/>
</g>
<g>
	<rect x="118.476" y="-6.438" width="2" height="7.973"/>
	<rect x="99.476" y="12.477" width="7.973" height="2"/>
	<rect x="104.149" y="1.21" transform="matrix(0.7071 0.7071 -0.7071 0.7071 33.2349 -75.8162)" width="7.974" height="2"/>
	<rect x="129.657" y="-1.772" transform="matrix(0.7071 0.7071 -0.7071 0.7071 39.8341 -91.7402)" width="2" height="7.972"/>
	<path d="M148.987,19.353c-1.444-6.742-7.433-11.8-14.605-11.8c-2.185,0-4.258,0.47-6.126,1.313
		c-1.667-3.202-5.007-5.394-8.866-5.394c-5.522,0-10,4.477-10,9.999c0,2.46,0.899,4.702,2.373,6.442
		c-1.429,1.84-2.287,4.144-2.287,6.653c0,5.983,4.836,10.836,10.813,10.865v0.003h0.188v-2l-0.178-0.003
		c-4.864-0.023-8.822-4.001-8.822-8.865c0-4.89,3.978-8.868,8.867-8.868c0.15,0,0.299,0.012,0.447,0.022l0.148,0.01l1.314,0.085
		l0.597-1.175c2.225-4.372,6.644-7.089,11.532-7.089c6.062,0,11.382,4.298,12.649,10.219l0.318,1.483l1.514,0.094
		c3.708,0.23,6.612,3.319,6.612,7.03c0,3.878-3.144,7.035-7.017,7.057c-0.042-0.003-0.079-0.005-0.117-0.005l-0.866,0.005v2h0.819
		V37.43c0.042,0.001,0.082,0.006,0.124,0.006c5.001,0,9.057-4.054,9.057-9.057C157.476,23.569,153.722,19.647,148.987,19.353z
		 M121.067,15.735c-0.241-0.016-0.48-0.036-0.725-0.036c-2.766,0-5.282,1.042-7.2,2.743c-1.092-1.367-1.753-3.09-1.753-4.971
		c0-4.41,3.589-7.999,8-7.999c3.091,0,5.76,1.773,7.091,4.345C124.183,11.257,122.303,13.306,121.067,15.735z"/>
	
		<rect x="118.897" y="35.433" transform="matrix(-0.5736 -0.8191 0.8191 -0.5736 166.0584 159.3008)" width="11.183" height="1.999"/>
	
		<rect x="136.872" y="35.433" transform="matrix(-0.5736 -0.8191 0.8191 -0.5736 194.3439 174.024)" width="11.183" height="1.999"/>
	<polygon points="135.305,40.438 137.074,40.438 137.505,40.438 139.515,40.438 133.101,31.277 131.463,32.425 135.674,38.438 
		133.903,38.438 131.463,38.438 132.734,40.255 133.847,41.844 138.463,48.438 140.102,47.292 135.485,40.696 	"/>
</g>
<g>
	<path d="M250.825,16.395c-1.444-6.742-7.433-11.8-14.605-11.8c-1.799,0-3.522,0.32-5.118,0.904
		c-0.949-5.108-5.404-8.98-10.788-8.98c-0.413,0-0.819,0.027-1.222,0.071c0.744,1.112,1.179,2.448,1.179,3.886c0,3.865-3.134,7-7,7
		c-1.438,0-2.773-0.435-3.886-1.179c-0.044,0.401-0.071,0.809-0.071,1.222c0,3.712,1.845,6.987,4.661,8.979
		c-1.653,1.907-2.661,4.389-2.661,7.111c0,5.983,4.836,10.836,10.813,10.865v0.003h0.188v-2l-0.178-0.003
		c-4.864-0.023-8.822-4.001-8.822-8.865c0-4.89,3.978-8.868,8.867-8.868c0.15,0,0.299,0.012,0.447,0.022l0.148,0.01l1.314,0.085
		l0.597-1.175c2.225-4.372,6.644-7.089,11.532-7.089c6.062,0,11.382,4.298,12.649,10.219l0.318,1.483l1.514,0.094
		c3.708,0.23,6.612,3.319,6.612,7.03c0,3.878-3.144,7.035-7.017,7.057c-0.042-0.003-0.079-0.005-0.117-0.005l-0.866,0.005v2h0.819
		v-0.006c0.042,0.001,0.082,0.006,0.124,0.006c5.001,0,9.057-4.054,9.057-9.057C259.313,20.611,255.56,16.689,250.825,16.395z
		 M222.905,12.777c-0.241-0.016-0.48-0.036-0.725-0.036c-2.537,0-4.865,0.876-6.715,2.334c-2.012-1.294-3.487-3.354-3.976-5.776
		c0.582,0.117,1.178,0.177,1.78,0.177c4.963,0,9-4.037,9-9c0-0.603-0.06-1.198-0.177-1.78c3.733,0.753,6.629,3.824,7.133,7.641
		C226.516,7.779,224.301,10.035,222.905,12.777z"/>
	
		<rect x="220.734" y="32.475" transform="matrix(-0.5736 -0.8191 0.8191 -0.5736 328.7358 238.0615)" width="11.183" height="1.999"/>
	
		<rect x="238.709" y="32.475" transform="matrix(-0.5736 -0.8191 0.8191 -0.5736 357.0213 252.7847)" width="11.183" height="1.999"/>
	<polygon points="237.142,37.48 238.911,37.48 239.342,37.48 241.352,37.48 234.938,28.319 233.3,29.467 237.511,35.48 
		235.74,35.48 233.3,35.48 234.571,37.297 235.684,38.886 240.3,45.48 241.938,44.334 237.322,37.738 	"/>
</g>
<g>
	<g>
		<path d="M-159.737,102.85c-1.596-7.445-8.207-13.029-16.127-13.029c-6.423,0-11.977,3.678-14.702,9.035
			c-0.266-0.018-0.53-0.04-0.8-0.04c-6.627,0-11.999,5.372-11.999,12c0,6.607,5.34,11.965,11.938,11.998v0.003h2.062v-2h-1.604
			l-0.447-0.003c-5.485-0.027-9.948-4.513-9.948-9.998c0-5.514,4.485-10,9.999-10c0.175,0,0.347,0.014,0.52,0.025l0.148,0.01
			l1.316,0.088l0.598-1.176c2.492-4.899,7.443-7.942,12.92-7.942c6.79,0,12.75,4.814,14.172,11.448l0.317,1.482l1.514,0.095
			c4.203,0.262,7.496,3.763,7.496,7.971c0,4.397-3.565,7.977-7.957,8c-0.05-0.003-0.093-0.005-0.137-0.007l-2.043,0.007h-2.863v2
			h4.863v-0.007c0.046,0.001,0.091,0.007,0.137,0.007c5.521,0,10-4.477,10-10C-150.365,107.506-154.51,103.175-159.737,102.85z"/>
	</g>
	<g>
		<circle cx="-184.865" cy="116.393" r="1.5"/>
	</g>
	<g>
		<circle cx="-180.865" cy="122.316" r="1.5"/>
	</g>
	<g>
		<circle cx="-172.865" cy="122.316" r="1.5"/>
	</g>
	<g>
		<circle cx="-176.865" cy="116.393" r="1.5"/>
	</g>
	<g>
		<circle cx="-168.865" cy="116.393" r="1.5"/>
	</g>
	<g>
		<circle cx="-184.865" cy="128.338" r="1.5"/>
	</g>
	<g>
		<circle cx="-176.865" cy="128.338" r="1.5"/>
	</g>
	<g>
		<circle cx="-168.865" cy="128.338" r="1.5"/>
	</g>
</g>
<g>
	<g>
		<rect x="-83.951" y="87.372" width="2" height="7.973"/>
	</g>
	<g>
		<rect x="-102.951" y="106.286" width="7.973" height="2"/>
	</g>
	<g>
		<rect x="-98.278" y="95.02" transform="matrix(0.7071 0.7071 -0.7071 0.7071 40.2789 94.7973)" width="7.974" height="2"/>
	</g>
	<g>
		<rect x="-72.769" y="92.038" transform="matrix(0.7071 0.7071 -0.7071 0.7071 46.878 78.8733)" width="2" height="7.972"/>
	</g>
	<g>
		<path d="M-53.439,113.162c-1.444-6.742-7.433-11.8-14.605-11.8c-2.185,0-4.258,0.47-6.127,1.313
			c-1.666-3.202-5.006-5.394-8.865-5.394c-5.522,0-10,4.477-10,9.999c0,2.46,0.898,4.702,2.373,6.442
			c-1.428,1.84-2.287,4.144-2.287,6.653c0,5.983,4.836,10.836,10.813,10.865v0.003h1.188v-2h-0.721l-0.457-0.003
			c-4.864-0.023-8.822-4.001-8.822-8.865c0-4.89,3.978-8.868,8.867-8.868c0.15,0,0.299,0.012,0.447,0.022l0.148,0.01l1.314,0.085
			l0.597-1.175c2.225-4.372,6.644-7.089,11.532-7.089c6.062,0,11.382,4.298,12.649,10.219l0.318,1.483l1.514,0.094
			c3.708,0.23,6.612,3.319,6.612,7.03c0,3.878-3.144,7.035-7.017,7.057c-0.042-0.003-0.079-0.005-0.117-0.005l-2.047,0.005h-1.819v2
			h3.819v-0.006c0.042,0.001,0.082,0.006,0.124,0.006c5.001,0,9.057-4.054,9.057-9.057
			C-44.951,117.379-48.705,113.457-53.439,113.162z M-81.359,109.545c-0.241-0.016-0.48-0.036-0.725-0.036
			c-2.766,0-5.281,1.042-7.2,2.743c-1.092-1.367-1.753-3.09-1.753-4.971c0-4.41,3.589-7.999,8-7.999c3.092,0,5.76,1.773,7.092,4.345
			C-78.244,105.066-80.123,107.115-81.359,109.545z"/>
	</g>
	<g>
		<circle cx="-77.462" cy="124.756" r="1.5"/>
	</g>
	<g>
		<circle cx="-73.462" cy="130.756" r="1.5"/>
	</g>
	<g>
		<circle cx="-65.462" cy="130.756" r="1.5"/>
	</g>
	<g>
		<circle cx="-69.462" cy="124.756" r="1.5"/>
	</g>
	<g>
		<circle cx="-61.462" cy="124.756" r="1.5"/>
	</g>
	<g>
		<circle cx="-77.462" cy="136.777" r="1.5"/>
	</g>
	<g>
		<circle cx="-69.462" cy="136.777" r="1.5"/>
	</g>
	<g>
		<circle cx="-61.462" cy="136.777" r="1.5"/>
	</g>
</g>
<g>
	<g>
		<path d="M42.512,109.206c-1.444-6.742-7.433-11.8-14.605-11.8c-1.799,0-3.521,0.32-5.118,0.904
			c-0.949-5.108-5.404-8.98-10.788-8.98c-0.413,0-0.819,0.027-1.222,0.071c0.744,1.112,1.179,2.448,1.179,3.886c0,3.865-3.134,7-7,7
			c-1.438,0-2.773-0.435-3.886-1.179C1.027,99.51,1,99.917,1,100.33c0,3.712,1.845,6.987,4.661,8.979
			C4.008,111.217,3,113.698,3,116.421c0,5.983,4.836,10.836,10.813,10.865v0.003H15v-2h-0.721l-0.457-0.003
			C8.958,125.263,5,121.285,5,116.421c0-4.89,3.978-8.868,8.867-8.868c0.15,0,0.299,0.012,0.447,0.022l0.148,0.01l1.314,0.085
			l0.597-1.175c2.225-4.372,6.644-7.089,11.532-7.089c6.062,0,11.382,4.298,12.649,10.219l0.318,1.483l1.514,0.094
			c3.708,0.23,6.612,3.319,6.612,7.03c0,3.878-3.144,7.035-7.017,7.057c-0.042-0.003-0.079-0.005-0.117-0.005l-2.047,0.005H38v2
			h3.819v-0.006c0.042,0.001,0.082,0.006,0.124,0.006c5.001,0,9.057-4.054,9.057-9.057C51,113.423,47.246,109.501,42.512,109.206z
			 M14.592,105.589c-0.241-0.016-0.48-0.036-0.725-0.036c-2.537,0-4.865,0.876-6.715,2.334c-2.012-1.294-3.486-3.354-3.976-5.776
			c0.582,0.117,1.178,0.177,1.78,0.177c4.963,0,9-4.037,9-9c0-0.603-0.06-1.198-0.177-1.78c3.733,0.753,6.629,3.824,7.134,7.64
			C18.201,100.591,15.986,102.846,14.592,105.589z"/>
	</g>
	<g>
		<circle cx="18.5" cy="120.799" r="1.5"/>
	</g>
	<g>
		<circle cx="22.5" cy="126.799" r="1.5"/>
	</g>
	<g>
		<circle cx="30.5" cy="126.799" r="1.5"/>
	</g>
	<g>
		<circle cx="26.5" cy="120.799" r="1.5"/>
	</g>
	<g>
		<circle cx="34.5" cy="120.799" r="1.5"/>
	</g>
	<g>
		<circle cx="18.5" cy="132.82" r="1.5"/>
	</g>
	<g>
		<circle cx="26.5" cy="132.82" r="1.5"/>
	</g>
	<g>
		<circle cx="34.5" cy="132.82" r="1.5"/>
	</g>
</g>
<g>
	<path d="M353.677,10.32c-1.596-7.445-8.207-13.029-16.127-13.029c-6.423,0-11.977,3.678-14.702,9.035
		c-0.266-0.018-0.53-0.04-0.8-0.04c-6.627,0-11.999,5.372-11.999,12c0,6.607,5.34,11.965,11.938,11.998v0.003h2.062v-2h-1.604
		l-0.447-0.003c-5.485-0.027-9.948-4.513-9.948-9.998c0-5.514,4.485-10,9.999-10c0.175,0,0.347,0.014,0.52,0.025l0.148,0.01
		l1.316,0.088l0.598-1.176c2.492-4.899,7.443-7.942,12.92-7.942c6.79,0,12.75,4.814,14.172,11.448l0.317,1.482l1.514,0.095
		c4.203,0.262,7.496,3.763,7.496,7.971c0,4.397-3.565,7.977-7.957,8c-0.05-0.003-0.093-0.005-0.137-0.007l-2.043,0.007h-2.863v2
		h4.863V30.28c0.046,0.001,0.091,0.007,0.137,0.007c5.521,0,10-4.477,10-10C363.049,14.977,358.904,10.646,353.677,10.32z"/>
	<circle cx="328.049" cy="37.791" r="1.5"/>
	<circle cx="336.049" cy="43.791" r="1.5"/>
	<circle cx="344.049" cy="39.791" r="1.5"/>
	<rect x="327.049" y="21.315" width="2" height="11.976"/>
	<polygon points="337.049,39.256 337.049,37.315 337.049,25.315 335.049,25.315 335.049,37.315 335.049,39.256 335.049,39.291 
		337.049,39.291 	"/>
	<polygon points="345.049,35.068 345.049,33.315 345.049,21.315 343.049,21.315 343.049,33.315 343.049,35.068 343.049,35.291 
		345.049,35.291 	"/>
</g>
<g>
	<rect x="-394.7" y="81.934" width="2" height="7.973"/>
	<rect x="-413.7" y="100.848" width="7.973" height="2"/>
	<rect x="-409.027" y="89.581" transform="matrix(0.7071 0.7071 -0.7071 0.7071 -54.583 312.9371)" width="7.974" height="2"/>
	<rect x="-383.518" y="86.599" transform="matrix(0.7071 0.7071 -0.7071 0.7071 -47.9839 297.0132)" width="2" height="7.972"/>
	<path d="M-364.188,107.724c-1.444-6.742-7.433-11.8-14.605-11.8c-2.185,0-4.258,0.47-6.126,1.313
		c-1.667-3.202-5.007-5.394-8.866-5.394c-5.522,0-10,4.477-10,9.999c0,2.46,0.899,4.702,2.373,6.442
		c-1.429,1.84-2.287,4.144-2.287,6.653c0,5.983,4.836,10.836,10.813,10.865v0.003h1.188v-2h-0.721l-0.457-0.003
		c-4.864-0.023-8.822-4.001-8.822-8.865c0-4.89,3.978-8.868,8.867-8.868c0.15,0,0.299,0.012,0.447,0.022l0.148,0.01l1.314,0.085
		l0.597-1.175c2.225-4.372,6.644-7.089,11.532-7.089c6.062,0,11.382,4.298,12.649,10.219l0.318,1.483l1.514,0.094
		c3.708,0.23,6.612,3.319,6.612,7.03c0,3.878-3.144,7.035-7.017,7.057c-0.042-0.003-0.079-0.005-0.117-0.005l-2.047,0.005h-0.819v2
		h2.819v-0.006c0.042,0.001,0.082,0.006,0.124,0.006c5.001,0,9.057-4.054,9.057-9.057
		C-355.7,111.94-359.454,108.019-364.188,107.724z M-392.108,104.106c-0.241-0.016-0.48-0.036-0.725-0.036
		c-2.766,0-5.282,1.041-7.2,2.743c-1.092-1.366-1.753-3.09-1.753-4.971c0-4.41,3.589-7.999,8-7.999c3.091,0,5.76,1.773,7.091,4.345
		C-388.993,99.629-390.873,101.677-392.108,104.106z"/>
	<circle cx="-387.71" cy="134.294" r="1.5"/>
	<circle cx="-379.71" cy="140.294" r="1.5"/>
	<circle cx="-371.71" cy="136.294" r="1.5"/>
	<rect x="-388.71" y="117.818" width="2" height="11.976"/>
	<polygon points="-378.71,135.759 -378.71,133.818 -378.71,121.818 -380.71,121.818 -380.71,133.818 -380.71,135.759 
		-380.71,135.794 -378.71,135.794 	"/>
	<polygon points="-370.71,131.571 -370.71,129.818 -370.71,117.818 -372.71,117.818 -372.71,129.818 -372.71,131.571 
		-372.71,131.794 -370.71,131.794 	"/>
</g>
<g>
	<path d="M-263.586,104.726c-1.444-6.742-7.433-11.8-14.605-11.8c-1.799,0-3.522,0.32-5.118,0.904
		c-0.949-5.108-5.404-8.98-10.788-8.98c-0.413,0-0.819,0.027-1.222,0.071c0.744,1.112,1.179,2.448,1.179,3.886c0,3.865-3.134,7-7,7
		c-1.438,0-2.773-0.435-3.886-1.179c-0.044,0.401-0.071,0.809-0.071,1.222c0,3.712,1.845,6.987,4.661,8.979
		c-1.653,1.907-2.661,4.389-2.661,7.111c0,5.983,4.836,10.836,10.813,10.865v0.003h1.188v-2h-0.721l-0.457-0.003
		c-4.864-0.023-8.822-4.001-8.822-8.865c0-4.89,3.978-8.868,8.867-8.868c0.15,0,0.299,0.012,0.447,0.022l0.148,0.01l1.314,0.085
		l0.597-1.175c2.225-4.372,6.644-7.089,11.532-7.089c6.062,0,11.382,4.298,12.649,10.219l0.318,1.483l1.514,0.094
		c3.708,0.23,6.612,3.319,6.612,7.03c0,3.878-3.144,7.035-7.017,7.057c-0.042-0.003-0.079-0.005-0.117-0.005l-2.047,0.005h-0.819v2
		h2.819v-0.006c0.042,0.001,0.082,0.006,0.124,0.006c5.001,0,9.057-4.054,9.057-9.057
		C-255.098,108.942-258.852,105.021-263.586,104.726z M-291.506,101.108c-0.241-0.016-0.48-0.036-0.725-0.036
		c-2.537,0-4.865,0.876-6.715,2.334c-2.012-1.294-3.487-3.354-3.976-5.776c0.582,0.117,1.178,0.177,1.78,0.177c4.963,0,9-4.037,9-9
		c0-0.603-0.06-1.198-0.177-1.78c3.733,0.753,6.629,3.824,7.133,7.64C-287.896,96.11-290.11,98.365-291.506,101.108z"/>
	<circle cx="-287.098" cy="131.3" r="1.5"/>
	<circle cx="-279.098" cy="137.3" r="1.5"/>
	<circle cx="-271.098" cy="133.3" r="1.5"/>
	<rect x="-288.098" y="114.824" width="2" height="11.976"/>
	<polygon points="-278.098,132.765 -278.098,130.824 -278.098,118.824 -280.098,118.824 -280.098,130.824 -280.098,132.765 
		-280.098,132.8 -278.098,132.8 	"/>
	<polygon points="-270.098,128.577 -270.098,126.824 -270.098,114.824 -272.098,114.824 -272.098,126.824 -272.098,128.577 
		-272.098,128.8 -270.098,128.8 	"/>
</g>
<g>
	<rect x="-411.7" y="209.166" width="56" height="2"/>
	<rect x="-407.7" y="215.166" width="50" height="2"/>
	<rect x="-401.7" y="221.166" width="36" height="2"/>
	<rect x="-409.7" y="203.166" width="52" height="2"/>
	<path d="M-397.826,195.161c0.175,0,0.347,0.014,0.519,0.025l0.149,0.01l1.316,0.088l0.598-1.176
		c2.493-4.899,7.443-7.942,12.92-7.942c6.79,0,12.75,4.814,14.171,11.448l0.318,1.482l1.514,0.095
		c1.207,0.075,2.335,0.425,3.336,0.975h3.286c-1.678-1.703-3.957-2.813-6.498-2.971c-1.596-7.445-8.207-13.029-16.127-13.029
		c-6.423,0-11.977,3.678-14.702,9.035c-0.266-0.018-0.53-0.04-0.8-0.04c-4.843,0-9.004,2.874-10.9,7.005h2.251
		C-404.744,197.18-401.52,195.161-397.826,195.161z"/>
</g>
<g>
	<rect x="-290.598" y="181.651" width="2" height="7.973"/>
	<rect x="-309.598" y="200.565" width="7.973" height="2"/>
	<rect x="-304.925" y="189.299" transform="matrix(0.7071 0.7071 -0.7071 0.7071 46.419 268.5322)" width="7.974" height="2"/>
	<rect x="-279.416" y="186.317" transform="matrix(0.7071 0.7071 -0.7071 0.7071 53.0182 252.6082)" width="2" height="7.972"/>
	<rect x="-300.598" y="215.525" width="50" height="2"/>
	<rect x="-296.598" y="221.525" width="44" height="2"/>
	<rect x="-290.598" y="226.525" width="30" height="2"/>
	<rect x="-298.598" y="209.525" width="46" height="2"/>
	<path d="M-297.689,207.525h0.771h1.927h1.012c1.472-1.087,3.283-1.737,5.249-1.737c0.15,0,0.299,0.012,0.447,0.022l0.148,0.01
		l1.314,0.085l0.597-1.175c2.225-4.372,6.644-7.089,11.532-7.089c5.945,0,11.168,4.139,12.563,9.884h2.043v-0.084
		c-1.444-6.742-7.433-11.8-14.605-11.8c-2.185,0-4.258,0.47-6.126,1.313c-1.667-3.202-5.007-5.394-8.866-5.394
		c-5.522,0-10,4.477-10,9.999C-299.684,203.802-298.936,205.86-297.689,207.525z M-289.684,193.562c3.091,0,5.76,1.773,7.091,4.345
		c-2.298,1.44-4.178,3.488-5.413,5.918c-0.241-0.016-0.48-0.036-0.725-0.036c-2.764,0-5.274,1.045-7.189,2.745
		c-1.097-1.366-1.764-3.089-1.764-4.973C-297.684,197.15-294.095,193.562-289.684,193.562z"/>
</g>
<g>
	<rect x="-201.854" y="212.088" width="50" height="2"/>
	<rect x="-197.854" y="218.088" width="44" height="2"/>
	<rect x="-191.854" y="223.088" width="30" height="2"/>
	<rect x="-199.854" y="206.088" width="46" height="2"/>
	<path d="M-198.211,204.088h0.037h1.884h1.055c1.472-1.087,3.283-1.737,5.249-1.737c0.15,0,0.299,0.012,0.447,0.022l0.148,0.01
		l1.314,0.085l0.597-1.175c2.225-4.372,6.644-7.089,11.532-7.089c5.945,0,11.168,4.139,12.563,9.884h2.043v-0.084
		c-1.444-6.742-7.433-11.8-14.605-11.8c-1.799,0-3.521,0.32-5.117,0.903c-0.945-5.111-5.402-8.987-10.789-8.987
		c-0.413,0-0.819,0.027-1.222,0.071c0.744,1.112,1.179,2.448,1.179,3.886c0,3.865-3.134,7-7,7c-1.438,0-2.773-0.435-3.886-1.179
		c-0.044,0.401-0.071,0.809-0.071,1.222C-202.854,198.824-201.018,202.095-198.211,204.088z M-198.896,197.077c4.963,0,9-4.037,9-9
		c0-0.603-0.06-1.198-0.177-1.78c3.735,0.753,6.633,3.828,7.134,7.647c-2.712,1.443-4.927,3.699-6.322,6.442
		c-0.241-0.016-0.48-0.036-0.725-0.036c-2.534,0-4.855,0.879-6.701,2.335c-2.02-1.293-3.5-3.356-3.989-5.785
		C-200.095,197.018-199.499,197.077-198.896,197.077z"/>
</g>
<g>
	<path d="M-69.962,215.102h-19.474l-0.578-0.003c-5.485-0.027-9.948-4.513-9.948-9.998c0-5.514,4.485-10,9.999-10
		c0.175,0,0.347,0.014,0.519,0.025l0.149,0.01l1.316,0.088l0.598-1.176c2.493-4.899,7.443-7.942,12.92-7.942
		c6.79,0,12.75,4.814,14.171,11.448l0.318,1.482l1.514,0.095c1.822,0.113,3.463,0.845,4.746,1.971h2.732
		c-1.707-2.262-4.348-3.78-7.354-3.967c-1.596-7.445-8.207-13.029-16.127-13.029c-6.423,0-11.977,3.678-14.702,9.035
		c-0.266-0.018-0.53-0.04-0.8-0.04c-6.627,0-11.999,5.372-11.999,12c0,6.607,5.34,11.965,11.938,11.998v0.003h20.062
		c2.205,0,4,1.794,4,4s-1.795,4-4,4v2c3.314,0,6-2.686,6-6C-63.962,217.788-66.647,215.102-69.962,215.102z"/>
	<path d="M-65.962,211.102H-81.95v2h15.988c3.314,0,6-2.687,6-6c0-3.314-2.686-6-6-6v2c2.205,0,4,1.794,4,4
		S-63.757,211.102-65.962,211.102z"/>
	<path d="M-52.962,205.102c1.654,0,3,1.346,3,3s-1.346,3-3,3c-0.043,0-0.083-0.011-0.126-0.013h-4.862
		c0.003,0.005,0.009,0.008,0.012,0.013h-0.023v2h5.5v-0.051c2.523-0.254,4.5-2.358,4.5-4.949c0-2.762-2.238-5-5-5V205.102z"/>
	<path d="M-48.962,215.102h-13v2h9.022c-0.004,0.005-0.008,0.008-0.011,0.013h3.862c0.043-0.002,0.083-0.013,0.126-0.013
		c1.654,0,3,1.346,3,3s-1.346,3-3,3v2c2.762,0,5-2.238,5-5S-46.2,215.102-48.962,215.102z"/>
	<rect x="-87.962" y="211.102" width="4" height="2"/>
</g>
<path d="M-277.523-184.002c6.95,1.305,12.226,7.419,12.226,14.742c0,8.272-6.729,15.002-15,15.002
	c-6.79,0-12.531-4.49-14.366-10.728c1.398,0.461,2.867,0.698,4.366,0.698c7.72,0,14-6.281,14-14.001
	C-276.298-180.272-276.722-182.217-277.523-184.002 M-280.298-186.259c-0.338,0-0.668,0.031-1,0.051c1.861,2.113,3,4.881,3,7.92
	c0,6.627-5.372,12.001-12,12.001c-2.599,0-4.998-0.835-6.963-2.239c0.387,9.047,7.821,16.269,16.963,16.269
	c9.39,0,17-7.612,17-17.002S-270.908-186.259-280.298-186.259L-280.298-186.259z"/>
<g>
	<path d="M-383.693-181.264c-7.18,0-13,5.819-13,12.999c0,7.181,5.82,13.002,13,13.002s13-5.821,13-13.002
		C-370.693-175.444-376.514-181.264-383.693-181.264z M-383.693-157.263c-6.065,0-11-4.936-11-11.002
		c0-6.064,4.935-10.999,11-10.999s11,4.935,11,10.999C-372.693-162.198-377.628-157.263-383.693-157.263z"/>
	<rect x="-384.7" y="-194.258" width="2" height="10"/>
	<rect x="-384.7" y="-152.258" width="2" height="10"/>
	<rect x="-409.693" y="-169.258" width="9.993" height="2"/>
	<rect x="-367.7" y="-169.258" width="10.007" height="2"/>
	<rect x="-370" y="-188.172" transform="matrix(0.7071 0.7071 -0.7071 0.7071 -237.4552 207.3329)" width="2" height="10.409"/>
	
		<rect x="-399.409" y="-158.763" transform="matrix(-0.7071 -0.7071 0.7071 -0.7071 -571.545 -543.8579)" width="2" height="10.41"/>
	<rect x="-403.609" y="-183.962" transform="matrix(0.7071 0.7071 -0.7071 0.7071 -246.064 228.1263)" width="10.409" height="2"/>
	
		<rect x="-374.201" y="-154.553" transform="matrix(-0.7072 -0.7071 0.7071 -0.7072 -521.3617 -523.0413)" width="10.41" height="2"/>
</g>
<g>
	<rect x="14.473" y="176.604" width="2" height="7.973"/>
	<rect x="-4.5" y="195.59" width="7.973" height="2"/>
	<rect x="0.226" y="184.371" transform="matrix(0.7071 0.7071 -0.7071 0.7071 132.3111 51.315)" width="7.974" height="2"/>
	<rect x="25.734" y="181.389" transform="matrix(0.7071 0.7071 -0.7071 0.7071 138.9102 35.391)" width="2" height="7.972"/>
	<path d="M29.5,218.604l0.005-0.007H16.969l-0.594-0.003c-4.864-0.024-8.822-4.001-8.822-8.865c0-4.89,3.978-8.868,8.867-8.868
		c0.15,0,0.299,0.012,0.447,0.021l0.148,0.011l1.314,0.085l0.597-1.174c2.225-4.373,6.644-7.09,11.532-7.09
		c5.916,0,11.114,4.099,12.54,9.8h2.065c-1.444-6.742-7.433-11.8-14.605-11.8c-2.185,0-4.258,0.47-6.126,1.313
		c-1.667-3.202-5.007-5.394-8.866-5.394c-5.522,0-10,4.477-10,9.999c0,2.46,0.899,4.702,2.373,6.442
		c-1.429,1.84-2.287,4.144-2.287,6.653c0,5.983,4.836,10.836,10.813,10.865v0.003H29.5v0.007c2.205,0,4,1.794,4,4s-1.795,4-4,4v2
		c3.314,0,6-2.686,6-6C35.5,221.29,32.814,218.604,29.5,218.604z M15.467,188.634c3.091,0,5.76,1.773,7.091,4.345
		c-2.298,1.439-4.178,3.488-5.413,5.918c-0.241-0.016-0.48-0.036-0.725-0.036c-2.766,0-5.282,1.042-7.2,2.743
		c-1.092-1.367-1.753-3.09-1.753-4.971C7.467,192.223,11.056,188.634,15.467,188.634z"/>
	<path d="M33.5,214.604h-9.988v2H33.5c3.314,0,6-2.687,6-6c0-3.314-2.686-6-6-6v2c2.205,0,4,1.794,4,4S35.705,214.604,33.5,214.604z
		"/>
	<path d="M41.523,214.604H41.5v2H47v-0.051c2.523-0.254,4.5-2.358,4.5-4.949c0-2.762-2.238-5-5-5v2c1.654,0,3,1.346,3,3
		s-1.346,3-3,3c-0.043,0-0.083-0.011-0.126-0.013h-4.862C41.515,214.596,41.521,214.6,41.523,214.604z"/>
	<path d="M50.5,218.604h-13v2h9.022c-0.004,0.004-0.008,0.008-0.011,0.013h3.862c0.043-0.002,0.083-0.013,0.126-0.013
		c1.654,0,3,1.346,3,3s-1.346,3-3,3v2c2.762,0,5-2.238,5-5S53.262,218.604,50.5,218.604z"/>
	<rect x="17.5" y="214.604" width="4" height="2"/>
</g>
<g>
	<path d="M129.462,216.598l0.005-0.007h-12.536l-0.594-0.003c-4.864-0.024-8.822-4.001-8.822-8.865c0-4.89,3.978-8.868,8.867-8.868
		c0.15,0,0.299,0.012,0.447,0.021l0.148,0.011l1.314,0.085l0.597-1.174c2.225-4.373,6.644-7.09,11.532-7.09
		c5.916,0,11.114,4.099,12.54,9.8h2.065c-1.444-6.742-7.433-11.8-14.605-11.8c-1.806,0-3.536,0.322-5.138,0.91
		c-0.938-5.123-5.4-9.01-10.794-9.01c-0.413,0-0.819,0.027-1.222,0.071c0.744,1.112,1.179,2.448,1.179,3.886c0,3.865-3.134,7-7,7
		c-1.438,0-2.773-0.435-3.886-1.179c-0.044,0.401-0.071,0.809-0.071,1.222c0,3.725,1.858,7.009,4.69,8.998
		c-1.655,1.907-2.665,4.392-2.665,7.116c0,5.983,4.836,10.836,10.813,10.865v0.003h13.135v0.007c2.205,0,4,1.794,4,4s-1.795,4-4,4v2
		c3.314,0,6-2.686,6-6C135.462,219.284,132.776,216.598,129.462,216.598z M105.666,193.389c0.582,0.117,1.178,0.177,1.78,0.177
		c4.963,0,9-4.037,9-9c0-0.603-0.06-1.198-0.177-1.78c3.744,0.755,6.646,3.842,7.138,7.674c-2.702,1.444-4.909,3.696-6.301,6.432
		c-0.241-0.016-0.48-0.036-0.725-0.036c-2.535,0-4.861,0.875-6.71,2.33C107.644,197.893,106.157,195.824,105.666,193.389z"/>
	<path d="M133.462,212.598h-9.988v2h9.988c3.314,0,6-2.687,6-6c0-3.314-2.686-6-6-6v2c2.205,0,4,1.794,4,4
		S135.667,212.598,133.462,212.598z"/>
	<path d="M141.485,212.598h-0.023v2h5.5v-0.051c2.523-0.254,4.5-2.358,4.5-4.949c0-2.762-2.238-5-5-5v2c1.654,0,3,1.346,3,3
		s-1.346,3-3,3c-0.043,0-0.083-0.011-0.126-0.013h-4.862C141.477,212.59,141.482,212.594,141.485,212.598z"/>
	<path d="M150.462,216.598h-13v2h9.022c-0.004,0.004-0.008,0.008-0.011,0.013h3.862c0.043-0.002,0.083-0.013,0.126-0.013
		c1.654,0,3,1.346,3,3s-1.346,3-3,3v2c2.762,0,5-2.238,5-5S153.224,216.598,150.462,216.598z"/>
	<rect x="117.462" y="212.598" width="4" height="2"/>
</g>
<g>
	<rect x="230.354" y="179.166" width="2" height="10"/>
	<rect x="205.361" y="204.166" width="9.993" height="2"/>
	<rect x="245.054" y="185.252" transform="matrix(0.7071 0.7071 -0.7071 0.7071 206.7407 -118.2032)" width="2" height="10.409"/>
	<rect x="211.445" y="189.462" transform="matrix(0.7071 0.7071 -0.7071 0.7071 198.1319 -97.4097)" width="10.409" height="2"/>
	<path d="M235.354,219.166h-24v2h24c2.205,0,4,1.794,4,4s-1.795,4-4,4v2c3.314,0,6-2.686,6-6
		C241.354,221.853,238.669,219.166,235.354,219.166z"/>
	<path d="M247.378,215.166h-0.023v2h5.5v-0.051c2.523-0.254,4.5-2.358,4.5-4.949c0-2.762-2.238-5-5-5v2c1.654,0,3,1.346,3,3
		s-1.346,3-3,3c-0.043,0-0.083-0.011-0.126-0.013h-4.862C247.369,215.158,247.375,215.162,247.378,215.166z"/>
	<path d="M256.354,219.166h-13v2h9.022c-0.004,0.004-0.008,0.008-0.011,0.013h3.862c0.043-0.002,0.083-0.013,0.126-0.013
		c1.654,0,3,1.346,3,3s-1.346,3-3,3v2c2.762,0,5-2.238,5-5S259.116,219.166,256.354,219.166z"/>
	<path d="M223.063,215.166h-11.709v2h12.012h0.822h15.166c3.314,0,6-2.687,6-6c0-3.314-2.686-6-6-6v2c2.205,0,4,1.794,4,4
		s-1.795,4-4,4h-12.538c-3.802-1.734-6.455-5.563-6.455-10.007c0-6.064,4.935-10.999,11-10.999c5.384,0,9.868,3.891,10.81,9.006
		h2.021c-0.961-6.23-6.331-11.006-12.831-11.006c-7.18,0-13,5.819-13,12.999C218.361,209.185,220.191,212.781,223.063,215.166z"/>
</g>
<g>
	<path d="M335.581,212.609h-24v2h24c2.205,0,4,1.794,4,4s-1.795,4-4,4v2c3.314,0,6-2.686,6-6
		C341.581,215.296,338.896,212.609,335.581,212.609z"/>
	<path d="M353.081,210.609v-0.051c2.523-0.254,4.5-2.358,4.5-4.949c0-2.762-2.238-5-5-5v2c1.654,0,3,1.346,3,3s-1.346,3-3,3
		c-0.043,0-0.083-0.011-0.126-0.013h-4.862c0.004,0.005,0.009,0.009,0.012,0.013h-0.023v2H353.081z"/>
	<path d="M356.581,212.609h-13v2h9.022c-0.003,0.004-0.007,0.008-0.011,0.013h3.862c0.043-0.002,0.083-0.013,0.126-0.013
		c1.654,0,3,1.346,3,3s-1.346,3-3,3v2c2.762,0,5-2.238,5-5S359.343,212.609,356.581,212.609z"/>
	<path d="M324.415,210.609h15.166c3.314,0,6-2.687,6-6c0-3.314-2.686-6-6-6v2c2.205,0,4,1.794,4,4s-1.795,4-4,4h-12.586
		c-2.596-1.188-4.658-3.339-5.69-6.034c0.849,0.204,1.724,0.309,2.612,0.309c6.168,0,11.187-5.019,11.187-11.188
		c0-1.276-0.22-2.532-0.64-3.717c4.046,1.102,7.168,4.459,7.937,8.63h2.018c-0.964-6.237-6.338-11.016-12.846-11.016
		c-0.259,0-0.511,0.024-0.766,0.039c1.425,1.618,2.297,3.737,2.297,6.063c0,5.072-4.112,9.188-9.187,9.188
		c-1.988,0-3.826-0.641-5.33-1.715c0.162,3.801,1.962,7.165,4.699,9.44h-11.705v2h12.012H324.415z"/>
</g>
<g>
	<path d="M-384.2,297.803h-20c-1.103,0-2-0.897-2-2s0.897-2,2-2h3.445h0.555v-2h-4c-2.209,0-4,1.791-4,4s1.791,4,4,4h20
		c2.205,0,4,1.794,4,4s-1.795,4-4,4v2c3.314,0,6-2.686,6-6C-378.2,300.489-380.886,297.803-384.2,297.803z"/>
	<path d="M-382.2,281.803v2c2.205,0,4,1.794,4,4s-1.795,4-4,4h-15.988v2h15.988c3.314,0,6-2.687,6-6
		C-376.2,284.488-378.886,281.803-382.2,281.803z"/>
	<path d="M-376.2,293.803v2h5.5v-0.051c2.523-0.254,4.5-2.358,4.5-4.949c0-2.762-2.238-5-5-5v2c1.654,0,3,1.346,3,3s-1.346,3-3,3
		c-0.043,0-0.083-0.011-0.126-0.013h-4.862c0.003,0.005,0.009,0.009,0.012,0.013H-376.2z"/>
	<path d="M-365.2,297.803h-11v2h7.022c-0.004,0.004-0.008,0.008-0.011,0.013h3.862c0.043-0.002,0.083-0.013,0.126-0.013
		c1.654,0,3,1.346,3,3s-1.346,3-3,3v2c2.762,0,5-2.238,5-5S-362.438,297.803-365.2,297.803z"/>
</g>
<path d="M152.092,284.149v-0.038h-38.376c-1.103,0-2-0.897-2-2s0.897-2,2-2h33c2.762,0,5-2.238,5-5s-2.238-5-5-5h-37.875v0.008
	c-0.042-0.001-0.083-0.008-0.125-0.008c-2.762,0-5,2.238-5,5s2.238,5,5,5v-2c-1.654,0-3-1.346-3-3s1.346-3,3-3h0.125h3.853h34.022
	c1.654,0,3,1.346,3,3s-1.346,3-3,3h-33c-2.209,0-4,1.791-4,4s1.791,4,4,4h38c1.103,0,2,0.897,2,2s-0.897,2-2,2h-32
	c-2.209,0-4,1.791-4,4s1.791,4,4,4h22c1.103,0,2,0.897,2,2s-0.897,2-2,2h-24.01v0.001c-2.204,0.006-3.99,1.793-3.99,3.999
	s1.786,3.993,3.99,3.999v0.001h12.01c1.103,0,2,0.897,2,2s-0.897,2-2,2h-2c-2.209,0-4,1.791-4,4s1.791,4,4,4v-2
	c-1.103,0-2-0.897-2-2s0.897-2,2-2h2c2.209,0,4-1.791,4-4s-1.791-4-4-4h-12c-1.103,0-2-0.897-2-2s0.897-2,2-2h24
	c2.209,0,4-1.791,4-4c0-2.152-1.704-3.895-3.834-3.983v-0.017h-22.166c-1.103,0-2-0.897-2-2s0.897-2,2-2h32c2.209,0,4-1.791,4-4
	C155.716,286.031,154.122,284.342,152.092,284.149z"/>
<path d="M337.507,274.827v-2.024h-2v2.024c-13.01,0.513-23.462,10.965-23.975,23.976h1.674c1.14-1.222,2.748-2,4.551-2
	c2.26,0,4.233,1.203,5.331,3h1.838c1.098-1.797,3.071-3,5.331-3c2.204,0,4.137,1.144,5.25,2.866v15.134c0,2.21,1.791,4,4,4
	s4-1.79,4-4h-2c0,1.103-0.897,2-2,2s-2-0.897-2-2v-15.134c1.113-1.723,3.046-2.866,5.25-2.866c2.26,0,4.233,1.203,5.331,3h1.838
	c1.098-1.797,3.071-3,5.331-3c1.803,0,3.411,0.778,4.551,2h1.674C360.969,285.792,350.517,275.34,337.507,274.827z M355.257,294.803
	c-2.496,0-4.736,1.114-6.25,2.87c-1.514-1.756-3.754-2.87-6.25-2.87s-4.736,1.114-6.25,2.87c-1.514-1.756-3.754-2.87-6.25-2.87
	s-4.736,1.114-6.25,2.87c-1.514-1.756-3.755-2.87-6.25-2.87c-1.402,0-2.731,0.351-3.897,0.975
	c1.909-10.769,11.339-18.975,22.647-18.975s20.738,8.206,22.647,18.975C357.988,295.153,356.659,294.803,355.257,294.803z"/>
<g>
	<path d="M-67.788,399.115V382.01c0-2.762-2.238-5-5-5s-5,2.238-5,5v17.105c-1.236,1.263-2,2.988-2,4.895c0,3.866,3.134,7,7,7
		s7-3.134,7-7C-65.788,402.104-66.552,400.378-67.788,399.115z M-72.788,409.01c-2.757,0-5-2.243-5-5
		c0-1.313,0.508-2.554,1.429-3.495l0.571-0.583v-0.816V382.01c0-1.654,1.346-3,3-3s3,1.346,3,3v17.105v0.816l0.571,0.583
		c0.921,0.941,1.429,2.183,1.429,3.495C-67.788,406.767-70.031,409.01-72.788,409.01z"/>
	<path d="M-71.788,401.186V386.01h-2v15.176c-1.167,0.413-2.008,1.516-2.008,2.824c0,1.662,1.347,3.008,3.008,3.008
		c1.662,0,3.008-1.346,3.008-3.008C-69.78,402.701-70.62,401.599-71.788,401.186z M-72.788,405.018
		c-0.556,0-1.008-0.452-1.008-1.008s0.452-1.008,1.008-1.008s1.008,0.452,1.008,1.008S-72.232,405.018-72.788,405.018z"/>
</g>
<g>
	<path d="M32,399.115V382.01c0-2.762-2.238-5-5-5s-5,2.238-5,5v17.105c-1.236,1.263-2,2.988-2,4.895c0,3.866,3.134,7,7,7
		s7-3.134,7-7C34,402.104,33.236,400.378,32,399.115z M27,409.01c-2.757,0-5-2.243-5-5c0-1.313,0.508-2.554,1.429-3.495L24,399.932
		v-0.816V382.01c0-1.654,1.346-3,3-3s3,1.346,3,3v17.105v0.816l0.571,0.583c0.921,0.941,1.429,2.183,1.429,3.495
		C32,406.767,29.757,409.01,27,409.01z"/>
	<path d="M28,401.186V381.01h-2v20.176c-1.167,0.413-2.008,1.516-2.008,2.824c0,1.662,1.347,3.008,3.008,3.008
		c1.662,0,3.008-1.346,3.008-3.008C30.008,402.701,29.168,401.599,28,401.186z M27,405.018c-0.556,0-1.008-0.452-1.008-1.008
		s0.452-1.008,1.008-1.008s1.008,0.452,1.008,1.008S27.556,405.018,27,405.018z"/>
</g>
<g>
	<path d="M-170.897,399.115V382.01c0-2.762-2.238-5-5-5s-5,2.238-5,5v17.105c-1.236,1.263-2,2.988-2,4.895c0,3.866,3.134,7,7,7
		s7-3.134,7-7C-168.897,402.104-169.661,400.378-170.897,399.115z M-175.897,409.01c-2.757,0-5-2.243-5-5
		c0-1.313,0.508-2.554,1.429-3.495l0.571-0.583v-0.816V382.01c0-1.654,1.346-3,3-3s3,1.346,3,3v17.105v0.816l0.571,0.583
		c0.921,0.941,1.429,2.183,1.429,3.495C-170.897,406.767-173.141,409.01-175.897,409.01z"/>
	<path d="M-174.897,401.186V391.01h-2v10.176c-1.167,0.413-2.008,1.516-2.008,2.824c0,1.662,1.347,3.008,3.008,3.008
		c1.662,0,3.008-1.346,3.008-3.008C-172.89,402.701-173.729,401.599-174.897,401.186z M-175.897,405.018
		c-0.556,0-1.008-0.452-1.008-1.008s0.452-1.008,1.008-1.008s1.008,0.452,1.008,1.008S-175.342,405.018-175.897,405.018z"/>
</g>
<g>
	<path d="M-274.543,399.115V382.01c0-2.762-2.238-5-5-5s-5,2.238-5,5v17.105c-1.236,1.263-2,2.988-2,4.895c0,3.866,3.134,7,7,7
		s7-3.134,7-7C-272.543,402.104-273.307,400.378-274.543,399.115z M-279.543,409.01c-2.757,0-5-2.243-5-5
		c0-1.313,0.508-2.554,1.429-3.495l0.571-0.583v-0.816V382.01c0-1.654,1.346-3,3-3s3,1.346,3,3v17.105v0.816l0.571,0.583
		c0.921,0.941,1.429,2.183,1.429,3.495C-274.543,406.767-276.786,409.01-279.543,409.01z"/>
	<path d="M-278.543,401.186v-5.176h-2v5.176c-1.167,0.413-2.008,1.516-2.008,2.824c0,1.662,1.347,3.008,3.008,3.008
		c1.662,0,3.008-1.346,3.008-3.008C-276.535,402.701-277.375,401.599-278.543,401.186z M-279.543,405.018
		c-0.556,0-1.008-0.452-1.008-1.008s0.452-1.008,1.008-1.008s1.008,0.452,1.008,1.008S-278.987,405.018-279.543,405.018z"/>
</g>
<g>
	<path d="M-379.2,399.115V382.01c0-2.762-2.238-5-5-5s-5,2.238-5,5v17.105c-1.236,1.263-2,2.988-2,4.895c0,3.866,3.134,7,7,7
		s7-3.134,7-7C-377.2,402.104-377.964,400.378-379.2,399.115z M-384.2,409.01c-2.757,0-5-2.243-5-5c0-1.313,0.508-2.554,1.429-3.495
		l0.571-0.583v-0.816V382.01c0-1.654,1.346-3,3-3s3,1.346,3,3v17.105v0.816l0.571,0.583c0.921,0.941,1.429,2.183,1.429,3.495
		C-379.2,406.767-381.443,409.01-384.2,409.01z"/>
	<path d="M-384.2,401.002c-1.661,0-3.008,1.347-3.008,3.008c0,1.662,1.347,3.008,3.008,3.008c1.662,0,3.008-1.346,3.008-3.008
		C-381.192,402.349-382.538,401.002-384.2,401.002z M-384.2,405.018c-0.556,0-1.008-0.452-1.008-1.008s0.452-1.008,1.008-1.008
		s1.008,0.452,1.008,1.008S-383.645,405.018-384.2,405.018z"/>
</g>
<g>
	<path d="M120.725,379.322c-2.209,0-4,1.791-4,4c0,2.21,1.791,4,4,4c2.211,0,4-1.79,4-4
		C124.725,381.113,122.936,379.322,120.725,379.322z M120.725,385.322c-1.103,0-2-0.897-2-2s0.897-2,2-2s2,0.897,2,2
		S121.827,385.322,120.725,385.322z"/>
	<path d="M134.725,407.322c-4.41,0-7.999-3.589-7.999-7.999v-4.002c0-4.41,3.589-7.999,7.999-7.999c2.715,0,5.115,1.362,6.563,3.437
		l1.43-1.43c-1.824-2.429-4.72-4.007-7.992-4.007c-5.522,0-9.999,4.478-9.999,9.999v4.002c0,5.521,4.477,9.999,9.999,9.999
		c3.272,0,6.168-1.579,7.992-4.008l-1.43-1.43C139.841,405.959,137.44,407.322,134.725,407.322z"/>
</g>
<g>
	<path d="M225.421,379.201c-2.209,0-4,1.791-4,4c0,2.21,1.791,4,4,4c2.211,0,4-1.79,4-4
		C229.421,380.992,227.632,379.201,225.421,379.201z M225.421,385.201c-1.103,0-2-0.897-2-2s0.897-2,2-2s2,0.897,2,2
		S226.523,385.201,225.421,385.201z"/>
	<polygon points="245.296,387.322 245.296,385.322 233.296,385.322 231.296,385.322 231.296,409.322 233.296,409.322 
		233.296,397.322 241.296,397.322 241.296,395.322 233.296,395.322 233.296,387.322 	"/>
</g>
<g>
	<path d="M336.507,383.014c-7.179,0-13,5.82-13,13s5.821,13,13,13s13-5.82,13-13S343.686,383.014,336.507,383.014z M336.507,407.014
		c-6.065,0-11-4.935-11-11s4.935-11,11-11s11,4.935,11,11S342.572,407.014,336.507,407.014z"/>
	<path d="M332.24,400.256l6.363-2.121l2.121-6.364l-6.363,2.122L332.24,400.256z M335.942,395.474l1.62-0.54l-0.54,1.62l-1.62,0.54
		L335.942,395.474z"/>
</g>
<g>
	<path d="M-384.2,473.531c-7.179,0-13,5.82-13,13s5.821,13,13,13s13-5.82,13-13S-377.021,473.531-384.2,473.531z M-384.2,497.531
		c-6.065,0-11-4.934-11-11c0-6.064,4.935-11,11-11s11,4.936,11,11C-373.2,492.598-378.135,497.531-384.2,497.531z"/>
	<path d="M-381.639,484.953l-2.586-4.422l-2.529,4.33h0.007c-0.299,0.467-0.478,1.018-0.478,1.613c0,1.656,1.343,3,3,3s3-1.344,3-3
		c0-0.559-0.162-1.074-0.428-1.521H-381.639z M-384.225,487.475c-0.552,0-1-0.449-1-1c0-0.188,0.055-0.367,0.162-0.535l0.864-1.355
		l0.826,1.391c0.098,0.164,0.147,0.332,0.147,0.5C-383.225,487.025-383.673,487.475-384.225,487.475z"/>
</g>
<g>
	<path d="M-279.416,473.531c-7.18,0-13,5.82-13,13s5.82,13,13,13s13-5.82,13-13S-272.236,473.531-279.416,473.531z
		 M-279.416,497.531c-6.065,0-11-4.934-11-11c0-6.064,4.935-11,11-11s11,4.936,11,11
		C-268.416,492.598-273.351,497.531-279.416,497.531z"/>
	<path d="M-277.827,483.951c-0.467-0.299-1.018-0.477-1.613-0.477c-1.658,0-3,1.342-3,3c0,1.656,1.342,3,3,3
		c0.557,0,1.072-0.162,1.52-0.428v0.014l4.422-2.586l-4.328-2.529V483.951z M-278.942,487.326c-0.164,0.098-0.332,0.148-0.498,0.148
		c-0.552,0-1-0.449-1-1c0-0.553,0.448-1,1-1c0.188,0,0.368,0.053,0.535,0.16l1.355,0.865L-278.942,487.326z"/>
</g>
<g>
	<path d="M-176.365,473.531c-7.18,0-13,5.82-13,13s5.82,13,13,13s13-5.82,13-13S-169.186,473.531-176.365,473.531z
		 M-176.365,497.531c-6.065,0-11-4.934-11-11c0-6.064,4.935-11,11-11s11,4.936,11,11
		C-165.365,492.598-170.3,497.531-176.365,497.531z"/>
	<path d="M-176.365,483.475c-1.656,0-3,1.342-3,3c0,0.557,0.162,1.072,0.428,1.52h-0.014l2.586,4.422l2.529-4.328h-0.006
		c0.299-0.467,0.477-1.018,0.477-1.613C-173.365,484.816-174.707,483.475-176.365,483.475z M-175.526,487.01l-0.865,1.355
		l-0.826-1.393c-0.098-0.164-0.147-0.332-0.147-0.498c0-0.553,0.448-1,1-1s1,0.447,1,1
		C-175.365,486.662-175.419,486.842-175.526,487.01z"/>
</g>
<g>
	<path d="M-72.951,473.531c-7.179,0-13,5.82-13,13s5.821,13,13,13s13-5.82,13-13S-65.772,473.531-72.951,473.531z M-72.951,497.531
		c-6.065,0-11-4.934-11-11c0-6.064,4.935-11,11-11s11,4.936,11,11C-61.951,492.598-66.886,497.531-72.951,497.531z"/>
	<path d="M-72.992,483.475c-0.557,0-1.072,0.162-1.52,0.428v-0.014l-4.422,2.586l4.328,2.529v-0.006
		c0.467,0.299,1.018,0.477,1.613,0.477c1.658,0,3-1.342,3-3C-69.992,484.818-71.334,483.475-72.992,483.475z M-72.992,487.475
		c-0.188,0-0.368-0.055-0.535-0.162l-1.355-0.865l1.393-0.826c0.164-0.098,0.332-0.146,0.498-0.146c0.552,0,1,0.447,1,1
		C-71.992,487.025-72.44,487.475-72.992,487.475z"/>
</g>
<g>
	<rect x="-281.103" y="276.803" width="2" height="10"/>
	<rect x="-266.403" y="282.889" transform="matrix(0.7071 0.7071 -0.7071 0.7071 125.978 272.0487)" width="2" height="10.409"/>
	<rect x="-300.012" y="287.098" transform="matrix(0.7071 0.7071 -0.7071 0.7071 117.3691 292.8421)" width="10.409" height="2"/>
	<polygon points="-286.771,306.057 -285.356,307.471 -281.103,303.217 -281.103,312.803 -279.103,312.803 -279.103,303.217 
		-274.85,307.471 -273.436,306.057 -280.103,299.389 	"/>
	<path d="M-267.096,302.802c0-0.002,0-0.004,0-0.006c0-7.18-5.82-12.999-13-12.999s-13,5.819-13,12.999c0,0.002,0,0.004,0,0.006h-13
		v2h18v-2h-3c0-0.002,0-0.004,0-0.006c0-6.064,4.935-10.999,11-10.999s11,4.935,11,10.999c0,0.002,0,0.004,0,0.006h-3v2h17.995v-2
		H-267.096z"/>
</g>
<g>
	<rect x="-177.357" y="275.615" width="2" height="10"/>
	<rect x="-162.658" y="281.701" transform="matrix(0.7071 0.7071 -0.7071 0.7071 155.5245 198.342)" width="2" height="10.409"/>
	<rect x="-196.267" y="285.911" transform="matrix(0.7071 0.7071 -0.7071 0.7071 146.9157 219.1354)" width="10.409" height="2"/>
	<polygon points="-175.357,310.162 -175.357,299.615 -177.357,299.615 -177.357,310.162 -181.611,305.908 -183.025,307.322 
		-176.357,313.99 -169.69,307.322 -171.104,305.908 	"/>
	<path d="M-163.351,301.614c0-0.002,0-0.004,0-0.006c0-7.18-5.82-12.999-13-12.999s-13,5.819-13,12.999c0,0.002,0,0.004,0,0.006h-13
		v2h22v-2h-7c0-0.002,0-0.004,0-0.006c0-6.064,4.935-10.999,11-10.999s11,4.935,11,10.999c0,0.002,0,0.004,0,0.006h-7v2h21.995v-2
		H-163.351z"/>
</g>
<g>
	<polygon points="27,309.628 27,295.245 25,295.245 25,309.628 20.746,305.374 19.332,306.788 26,313.456 32.667,306.788 
		31.253,305.374 	"/>
	<path d="M42.628,290.274c-1.596-7.445-8.207-13.029-16.127-13.029c-6.423,0-11.977,3.678-14.702,9.035
		c-0.266-0.018-0.53-0.04-0.8-0.04c-6.627,0-11.999,5.372-11.999,12c0,6.607,5.34,11.965,11.938,11.998v0.003H17v-2h-5.604
		l-0.447-0.003C5.463,308.211,1,303.726,1,298.24c0-5.514,4.485-10,9.999-10c0.175,0,0.347,0.014,0.52,0.025l0.148,0.01l1.316,0.088
		l0.598-1.176c2.492-4.899,7.443-7.942,12.92-7.942c6.79,0,12.75,4.814,14.172,11.448l0.317,1.482l1.514,0.095
		c4.203,0.262,7.496,3.763,7.496,7.971c0,4.397-3.565,7.977-7.957,8c-0.05-0.003-0.093-0.005-0.137-0.007l-2.043,0.007H35v2h6.863
		v-0.007c0.046,0.001,0.091,0.007,0.137,0.007c5.521,0,10-4.477,10-10C52,294.931,47.855,290.6,42.628,290.274z"/>
</g>
<g>
	<polygon points="-67.016,306.433 -65.602,305.019 -72.269,298.351 -78.937,305.019 -77.522,306.433 -73.269,302.179 
		-73.269,314.765 -71.269,314.765 -71.269,302.179 	"/>
	<path d="M-55.641,291.87c-1.596-7.445-8.207-13.029-16.127-13.029c-6.423,0-11.977,3.678-14.702,9.035
		c-0.266-0.018-0.53-0.04-0.8-0.04c-6.627,0-11.999,5.372-11.999,12c0,6.607,5.34,11.965,11.938,11.998v0.003h10.062v-2h-9.604
		l-0.447-0.003c-5.485-0.027-9.948-4.513-9.948-9.998c0-5.514,4.485-10,9.999-10c0.175,0,0.347,0.014,0.52,0.025l0.148,0.01
		l1.316,0.088l0.598-1.176c2.492-4.899,7.443-7.942,12.92-7.942c6.79,0,12.75,4.814,14.172,11.448l0.317,1.482l1.514,0.095
		c4.203,0.262,7.496,3.763,7.496,7.971c0,4.397-3.565,7.977-7.957,8c-0.05-0.003-0.093-0.005-0.137-0.007l-2.043,0.007h-8.863v2
		h10.863v-0.007c0.046,0.001,0.091,0.007,0.137,0.007c5.521,0,10-4.477,10-10C-46.269,296.526-50.413,292.195-55.641,291.87z"/>
</g>
<g>
	<path d="M146.849,102.354c-1.596-7.445-8.207-13.029-16.127-13.029c-6.423,0-11.977,3.678-14.702,9.035
		c-0.266-0.018-0.53-0.04-0.8-0.04c-6.627,0-11.999,5.372-11.999,12c0,6.607,5.34,11.965,11.938,11.998v0.003h2.062v-2h-1.604
		l-0.447-0.003c-5.485-0.027-9.948-4.513-9.948-9.998c0-5.514,4.485-10,9.999-10c0.175,0,0.347,0.014,0.52,0.025l0.148,0.01
		l1.316,0.088l0.598-1.176c2.492-4.899,7.443-7.942,12.92-7.942c6.79,0,12.75,4.814,14.172,11.448l0.317,1.482l1.514,0.095
		c4.203,0.262,7.496,3.763,7.496,7.971c0,4.397-3.565,7.977-7.957,8c-0.05-0.003-0.093-0.005-0.137-0.007l-2.043,0.007h-0.863v2
		h2.863v-0.007c0.046,0.001,0.091,0.007,0.137,0.007c5.521,0,10-4.477,10-10C156.221,107.011,152.076,102.68,146.849,102.354z"/>
	<polygon points="125.221,121.343 125.221,118.713 127.394,119.936 128.079,118.715 125.609,117.325 128.079,115.936 
		127.394,114.715 125.221,115.938 125.221,113.343 123.221,113.343 123.221,115.981 120.97,114.715 120.284,115.936 
		122.754,117.325 120.284,118.715 120.97,119.936 123.221,118.669 123.221,121.343 	"/>
	<polygon points="130.383,125.697 128.21,126.92 128.21,124.325 126.21,124.325 126.21,126.964 123.959,125.697 123.273,126.918 
		125.743,128.308 123.273,129.697 123.959,130.918 126.21,129.651 126.21,132.325 128.21,132.325 128.21,129.695 130.383,130.918 
		131.068,129.697 128.599,128.308 131.068,126.918 	"/>
	<polygon points="139.398,118.715 137.226,119.938 137.226,117.343 135.226,117.343 135.226,119.981 132.975,118.715 
		132.289,119.936 134.759,121.325 132.289,122.715 132.975,123.936 135.226,122.669 135.226,125.343 137.226,125.343 
		137.226,122.713 139.398,123.936 140.084,122.715 137.614,121.325 140.084,119.936 	"/>
</g>
<g>
	<rect x="222.36" y="84.303" width="2" height="7.973"/>
	<rect x="203.36" y="103.217" width="7.973" height="2"/>
	<rect x="208.033" y="91.95" transform="matrix(0.7071 0.7071 -0.7071 0.7071 127.8251 -122.6967)" width="7.974" height="2"/>
	<rect x="233.542" y="88.968" transform="matrix(0.7071 0.7071 -0.7071 0.7071 134.4242 -138.6206)" width="2" height="7.972"/>
	<path d="M252.872,110.093c-1.444-6.742-7.433-11.8-14.605-11.8c-2.185,0-4.258,0.471-6.127,1.314
		c-1.666-3.203-5.006-5.395-8.865-5.395c-5.522,0-10,4.477-10,9.999c0,2.46,0.899,4.702,2.373,6.442
		c-1.428,1.84-2.287,4.144-2.287,6.653c0,5.983,4.836,10.836,10.813,10.865v0.003h1.188v-2h-0.721l-0.457-0.003
		c-4.864-0.023-8.822-4.001-8.822-8.865c0-4.89,3.978-8.868,8.867-8.868c0.15,0,0.299,0.012,0.447,0.022l0.148,0.01l1.314,0.085
		l0.597-1.175c2.225-4.372,6.644-7.089,11.532-7.089c6.062,0,11.382,4.298,12.649,10.219l0.318,1.483l1.514,0.094
		c3.708,0.23,6.612,3.319,6.612,7.03c0,3.878-3.144,7.035-7.017,7.057c-0.042-0.003-0.079-0.005-0.117-0.005l-1.866,0.005v2h1.819
		v-0.006c0.042,0.001,0.082,0.006,0.124,0.006c5.001,0,9.057-4.054,9.057-9.057C261.36,114.31,257.606,110.388,252.872,110.093z
		 M224.952,106.476c-0.241-0.016-0.48-0.036-0.725-0.036c-2.766,0-5.282,1.041-7.2,2.742c-1.092-1.365-1.753-3.089-1.753-4.97
		c0-4.41,3.589-7.999,8-7.999c3.092,0,5.76,1.773,7.091,4.346C228.067,101.998,226.188,104.046,224.952,106.476z"/>
	<polygon points="232.353,127.195 232.353,124.565 234.525,125.788 235.211,124.567 232.741,123.178 235.211,121.788 
		234.525,120.567 232.353,121.79 232.353,119.195 230.353,119.195 230.353,121.834 228.102,120.567 227.416,121.788 
		229.886,123.178 227.416,124.567 228.102,125.788 230.353,124.521 230.353,127.195 	"/>
	<polygon points="237.515,131.55 235.342,132.772 235.342,130.178 233.342,130.178 233.342,132.816 231.091,131.55 230.405,132.771 
		232.875,134.16 230.405,135.55 231.091,136.771 233.342,135.504 233.342,138.178 235.342,138.178 235.342,135.548 237.515,136.771 
		238.2,135.55 235.73,134.16 238.2,132.771 	"/>
	<polygon points="246.53,124.567 244.357,125.79 244.357,123.195 242.357,123.195 242.357,125.834 240.106,124.567 239.421,125.788 
		241.891,127.178 239.421,128.567 240.106,129.788 242.357,128.521 242.357,131.195 244.357,131.195 244.357,128.565 
		246.53,129.788 247.216,128.567 244.746,127.178 247.216,125.788 	"/>
</g>
<g>
	<path d="M353.061,107.09c-1.444-6.742-7.433-11.8-14.605-11.8c-1.799,0-3.522,0.32-5.118,0.904
		c-0.949-5.108-5.404-8.98-10.788-8.98c-0.413,0-0.819,0.027-1.222,0.071c0.744,1.112,1.179,2.448,1.179,3.886c0,3.865-3.134,7-7,7
		c-1.438,0-2.773-0.435-3.886-1.179c-0.044,0.401-0.071,0.809-0.071,1.222c0,3.713,1.845,6.987,4.661,8.979
		c-1.653,1.907-2.661,4.389-2.661,7.111c0,5.983,4.836,10.836,10.813,10.865v0.003h1.188v-2h-0.721l-0.457-0.003
		c-4.864-0.023-8.822-4.001-8.822-8.865c0-4.89,3.978-8.868,8.867-8.868c0.15,0,0.299,0.012,0.447,0.022l0.148,0.01l1.314,0.085
		l0.597-1.175c2.225-4.372,6.644-7.089,11.532-7.089c6.062,0,11.382,4.298,12.649,10.219l0.318,1.483l1.514,0.094
		c3.708,0.23,6.612,3.319,6.612,7.03c0,3.878-3.144,7.035-7.017,7.057c-0.042-0.003-0.079-0.005-0.117-0.005l-1.866,0.005v2h1.819
		v-0.006c0.042,0.001,0.082,0.006,0.124,0.006c5.001,0,9.057-4.054,9.057-9.057C361.549,111.307,357.795,107.385,353.061,107.09z
		 M325.141,103.473c-0.241-0.016-0.48-0.036-0.725-0.036c-2.537,0-4.865,0.877-6.715,2.334c-2.012-1.294-3.486-3.354-3.976-5.776
		c0.582,0.117,1.178,0.177,1.78,0.177c4.963,0,9-4.037,9-9c0-0.603-0.06-1.198-0.177-1.78c3.733,0.753,6.629,3.824,7.134,7.64
		C328.75,98.475,326.535,100.729,325.141,103.473z"/>
	<polygon points="332.586,124.192 332.586,121.563 334.759,122.785 335.444,121.564 332.975,120.175 335.444,118.785 
		334.759,117.564 332.586,118.787 332.586,116.192 330.586,116.192 330.586,118.831 328.335,117.564 327.649,118.785 
		330.119,120.175 327.649,121.564 328.335,122.785 330.586,121.519 330.586,124.192 	"/>
	<polygon points="337.748,128.547 335.575,129.77 335.575,127.175 333.575,127.175 333.575,129.813 331.324,128.547 
		330.639,129.768 333.108,131.157 330.639,132.547 331.324,133.768 333.575,132.501 333.575,135.175 335.575,135.175 
		335.575,132.545 337.748,133.768 338.434,132.547 335.964,131.157 338.434,129.768 	"/>
	<polygon points="346.764,121.564 344.591,122.787 344.591,120.192 342.591,120.192 342.591,122.831 340.34,121.564 
		339.654,122.785 342.124,124.175 339.654,125.564 340.34,126.785 342.591,125.519 342.591,128.192 344.591,128.192 
		344.591,125.563 346.764,126.785 347.449,125.564 344.979,124.175 347.449,122.785 	"/>
</g>
<rect x="-263.298" y="-460.66" fill="none" width="472.974" height="180.918"/>
<text transform="matrix(1 0 0 1 -83.6606 -389.2612)"><tspan x="0" y="0" font-family="'HelveticaNeueLTStd-Th'" font-size="100" letter-spacing="2">60</tspan><tspan x="-99.268" y="60" font-family="'HelveticaNeueLTStd-Lt'" font-size="48" letter-spacing="1">Weather Icons</tspan><tspan x="-3.726" y="104" font-family="'HelveticaNeueLTStd-Lt'" font-size="24">IOS 7 Style</tspan></text>
</svg>
