<?xml version="1.0" encoding="utf-8"?>
<!-- Generator: Adobe Illustrator 16.0.0, SVG Export Plug-In . SVG Version: 6.00 Build 0)  -->
<!DOCTYPE svg PUBLIC "-//W3C//DTD SVG 1.1//EN" "http://www.w3.org/Graphics/SVG/1.1/DTD/svg11.dtd">
<svg version="1.1" id="Layer_1" xmlns="http://www.w3.org/2000/svg" xmlns:xlink="http://www.w3.org/1999/xlink" x="0px" y="0px"
	 width="50px" height="48.962px" viewBox="0 0 50 48.962" enable-background="new 0 0 50 48.962" xml:space="preserve">
<path d="M27.857,281.986l-1.803,15.077l-0.268,2.237h2.254h6.896L20.244,318.06l1.789-14.52l0.277-2.245h-2.262h-6.957
	L27.857,281.986 M30.712,274.962L9.045,303.295h11.004l-2.671,21.667l21.667-27.661H28.041L30.712,274.962L30.712,274.962z"/>
<path d="M-385.178-180.274c6.79,0,12.749,4.814,14.171,11.448l0.318,1.483l1.514,0.094c4.203,0.262,7.496,3.763,7.496,7.971
	c0,4.396-3.565,7.977-7.957,8c-0.046-0.003-0.091-0.006-0.137-0.007l-2.043-0.036v0.043h-28.337l-0.578-0.003
	c-5.485-0.027-9.948-4.513-9.948-9.998c0-5.514,4.485-10,9.999-10c0.175,0,0.347,0.014,0.519,0.025l0.149,0.011l1.316,0.087
	l0.598-1.176C-395.604-177.231-390.654-180.274-385.178-180.274 M-385.178-182.274c-6.423,0-11.977,3.678-14.702,9.035
	c-0.266-0.018-0.53-0.04-0.8-0.04c-6.627,0-11.999,5.372-11.999,12c0,6.607,5.34,11.965,11.938,11.998v0.003h30.925v-0.007
	c0.046,0.001,0.091,0.007,0.137,0.007c5.521,0,10-4.477,10-10c0-5.311-4.145-9.642-9.372-9.967
	C-370.646-176.69-377.258-182.274-385.178-182.274L-385.178-182.274z"/>
<g>
	<path d="M-262.227-161.863c-1.444-6.742-7.433-11.8-14.605-11.8c-2.185,0-4.258,0.47-6.127,1.313
		c-1.666-3.202-5.006-5.394-8.865-5.394c-5.522,0-10,4.477-10,9.999c0,2.46,0.898,4.702,2.373,6.442
		c-1.428,1.84-2.287,4.144-2.287,6.653c0,5.983,4.836,10.836,10.813,10.865v0.003h28.007v-0.006
		c0.042,0.001,0.082,0.006,0.124,0.006c5.001,0,9.057-4.054,9.057-9.057C-253.738-157.646-257.492-161.568-262.227-161.863z
		 M-291.824-175.743c3.092,0,5.76,1.773,7.092,4.345c-2.299,1.44-4.178,3.488-5.414,5.918c-0.241-0.016-0.48-0.036-0.725-0.036
		c-2.766,0-5.281,1.041-7.2,2.743c-1.092-1.366-1.753-3.09-1.753-4.971C-299.824-172.154-296.235-175.743-291.824-175.743z
		 M-262.755-145.78c-0.038-0.003-0.077-0.004-0.117-0.005l-2.047-0.042v0.047h-25.403l-0.594-0.003
		c-4.864-0.023-8.822-4.001-8.822-8.865c0-4.89,3.978-8.868,8.867-8.868c0.15,0,0.299,0.012,0.447,0.021l0.148,0.011l1.314,0.085
		l0.598-1.174c2.224-4.373,6.643-7.09,11.531-7.09c6.062,0,11.381,4.298,12.65,10.219l0.317,1.482l1.514,0.095
		c3.708,0.231,6.612,3.319,6.612,7.03C-255.738-148.959-258.882-145.803-262.755-145.78z"/>
	<rect x="-292.818" y="-187.773" width="2" height="7.973"/>
	<rect x="-311.791" y="-168.787" width="7.973" height="2"/>
	<rect x="-307.065" y="-180.006" transform="matrix(0.7071 0.7071 -0.7071 0.7071 -215.3458 161.879)" width="7.974" height="2"/>
	<rect x="-281.557" y="-182.988" transform="matrix(0.7071 0.7071 -0.7071 0.7071 -208.7466 145.955)" width="2" height="7.972"/>
</g>
<path d="M-166.483-165.891c-1.444-6.742-7.433-11.8-14.605-11.8c-1.799,0-3.521,0.32-5.118,0.904
	c-0.949-5.108-5.404-8.98-10.788-8.98c-0.413,0-0.819,0.027-1.222,0.071c0.744,1.112,1.179,2.448,1.179,3.886c0,3.865-3.134,7-7,7
	c-1.438,0-2.773-0.435-3.886-1.179c-0.044,0.401-0.071,0.809-0.071,1.222c0,3.712,1.845,6.987,4.661,8.979
	c-1.653,1.907-2.661,4.389-2.661,7.111c0,5.983,4.836,10.836,10.813,10.865v0.003h28.007v-0.006
	c0.042,0.001,0.082,0.006,0.124,0.006c5.001,0,9.057-4.054,9.057-9.057C-157.995-161.674-161.749-165.596-166.483-165.891z
	 M-205.818-172.986c0.582,0.117,1.178,0.177,1.78,0.177c4.963,0,9-4.037,9-9c0-0.603-0.06-1.198-0.177-1.78
	c3.733,0.753,6.629,3.824,7.134,7.64c-2.713,1.444-4.928,3.699-6.322,6.442c-0.241-0.016-0.48-0.036-0.725-0.036
	c-2.537,0-4.865,0.876-6.715,2.334C-203.854-168.504-205.329-170.563-205.818-172.986z M-167.012-149.808
	c-0.038-0.003-0.077-0.004-0.117-0.005l-2.047-0.042v0.047h-25.403l-0.594-0.003c-4.864-0.023-8.822-4.001-8.822-8.865
	c0-4.89,3.978-8.868,8.867-8.868c0.15,0,0.299,0.012,0.447,0.021l0.148,0.011l1.314,0.085l0.598-1.174
	c2.224-4.373,6.643-7.09,11.531-7.09c6.062,0,11.381,4.298,12.65,10.219l0.317,1.482l1.514,0.095
	c3.708,0.231,6.612,3.319,6.612,7.03C-159.995-152.986-163.139-149.83-167.012-149.808z"/>
<g>
	<rect x="-81.838" y="-157.268" width="2" height="7"/>
	<rect x="-73.838" y="-161.268" width="2" height="7"/>
	<rect x="-89.838" y="-161.268" width="2" height="7"/>
	<rect x="-81.838" y="-147.268" width="2" height="7"/>
	<rect x="-73.838" y="-151.268" width="2" height="7"/>
	<rect x="-89.838" y="-151.268" width="2" height="7"/>
	<path d="M-63.21-174.256c-1.596-7.445-8.207-13.029-16.127-13.029c-6.423,0-11.977,3.678-14.702,9.035
		c-0.266-0.018-0.53-0.04-0.8-0.04c-6.627,0-11.999,5.372-11.999,12c0,6.607,5.34,11.965,11.938,11.998v0.003h2.062v-2h-1.604
		l-0.447-0.003c-5.485-0.027-9.948-4.513-9.948-9.998c0-5.514,4.485-10,9.999-10c0.175,0,0.347,0.014,0.52,0.025l0.148,0.01
		l1.316,0.088l0.598-1.176c2.492-4.899,7.443-7.942,12.92-7.942c6.79,0,12.75,4.814,14.172,11.448l0.317,1.482l1.514,0.095
		c4.203,0.262,7.496,3.763,7.496,7.971c0,4.397-3.565,7.977-7.957,8c-0.05-0.003-0.093-0.005-0.137-0.007l-2.043,0.007h-2.863v2
		h4.863v-0.007c0.046,0.001,0.091,0.007,0.137,0.007c5.521,0,10-4.477,10-10C-53.838-169.6-57.982-173.931-63.21-174.256z"/>
</g>
<g>
	<path d="M-265.637-84.898c-1.596-7.445-8.207-13.029-16.127-13.029c-6.423,0-11.977,3.678-14.702,9.035
		c-0.266-0.018-0.53-0.04-0.8-0.04c-6.627,0-11.999,5.372-11.999,12c0,6.607,5.34,11.965,11.938,11.998v0.003h2.062v-2h-1.604
		l-0.447-0.003c-5.485-0.027-9.948-4.513-9.948-9.998c0-5.514,4.485-10,9.999-10c0.175,0,0.347,0.014,0.52,0.025l0.148,0.01
		l1.316,0.088l0.598-1.176c2.492-4.899,7.443-7.942,12.92-7.942c6.79,0,12.75,4.814,14.172,11.448l0.317,1.482l1.514,0.095
		c4.203,0.262,7.496,3.763,7.496,7.971c0,4.397-3.565,7.977-7.957,8c-0.05-0.003-0.093-0.005-0.137-0.007l-2.043,0.007h-2.863v2
		h4.863v-0.007c0.046,0.001,0.091,0.007,0.137,0.007c5.521,0,10-4.477,10-10C-256.265-80.242-260.409-84.573-265.637-84.898z"/>
	<polygon points="-284.265,-57.903 -284.265,-55.963 -284.265,-49.903 -282.265,-49.903 -282.265,-55.963 -282.265,-57.903 
		-282.265,-69.903 -284.265,-69.903 	"/>
	<polygon points="-276.265,-61.903 -276.265,-60.15 -276.265,-53.903 -274.265,-53.903 -274.265,-60.15 -274.265,-61.903 
		-274.265,-73.903 -276.265,-73.903 	"/>
	<polygon points="-292.265,-61.903 -292.265,-59.838 -292.265,-53.903 -290.265,-53.903 -290.265,-59.838 -290.265,-61.903 
		-290.265,-73.903 -292.265,-73.903 	"/>
</g>
<g>
	<polygon points="30.013,-60.992 23.13,-70.822 21.492,-69.675 28.375,-59.845 29.487,-58.256 32.963,-53.292 34.602,-54.438 
		31.126,-59.403 	"/>
	<polygon points="38.015,-60.994 31.13,-70.822 29.492,-69.674 36.378,-59.846 37.383,-58.41 40.967,-53.295 42.605,-54.441 
		39.021,-59.558 	"/>
	<polygon points="22.013,-60.992 15.13,-70.822 13.492,-69.674 20.375,-59.845 21.56,-58.152 24.964,-53.291 26.602,-54.438 
		23.198,-59.3 	"/>
	<path d="M41.12-84.632c-1.596-7.445-8.207-13.029-16.127-13.029c-6.423,0-11.977,3.678-14.702,9.035
		c-0.266-0.018-0.53-0.04-0.8-0.04c-6.627,0-11.999,5.372-11.999,12c0,6.607,5.34,11.965,11.938,11.998v0.003h2.062v-2H9.888
		L9.44-66.668c-5.485-0.027-9.948-4.513-9.948-9.998c0-5.514,4.485-10,9.999-10c0.175,0,0.347,0.014,0.52,0.025l0.148,0.01
		l1.316,0.088l0.598-1.176c2.492-4.899,7.443-7.942,12.92-7.942c6.79,0,12.75,4.814,14.172,11.448l0.317,1.482l1.514,0.095
		c4.203,0.262,7.496,3.763,7.496,7.971c0,4.397-3.565,7.977-7.957,8c-0.05-0.003-0.093-0.005-0.137-0.007l-1.043,0.007h0.137v2
		h0.863v-0.007c0.046,0.001,0.091,0.007,0.137,0.007c5.521,0,10-4.477,10-10C50.492-79.976,46.348-84.307,41.12-84.632z"/>
</g>
<g>
	<rect x="12.818" y="-193.714" width="2" height="7.973"/>
	<rect x="-6.182" y="-174.8" width="7.973" height="2"/>
	<rect x="-1.509" y="-186.066" transform="matrix(0.7071 0.7071 -0.7071 0.7071 -130.1358 -55.9573)" width="7.974" height="2"/>
	<rect x="24" y="-189.048" transform="matrix(0.7071 0.7071 -0.7071 0.7071 -123.5366 -71.8812)" width="2" height="7.972"/>
	<rect x="26.818" y="-152.841" width="2" height="7"/>
	<rect x="34.818" y="-156.841" width="2" height="7"/>
	<rect x="18.818" y="-156.841" width="2" height="7"/>
	<rect x="26.818" y="-142.841" width="2" height="7"/>
	<rect x="34.818" y="-146.841" width="2" height="7"/>
	<rect x="18.818" y="-146.841" width="2" height="7"/>
	<path d="M43.33-167.924c-1.444-6.742-7.433-11.8-14.605-11.8c-2.185,0-4.258,0.47-6.126,1.313
		c-1.667-3.202-5.007-5.394-8.866-5.394c-5.522,0-10,4.477-10,9.999c0,2.46,0.899,4.702,2.373,6.442
		c-1.429,1.84-2.287,4.144-2.287,6.653c0,5.983,4.836,10.836,10.813,10.865v0.003h1.188v-2h-0.721l-0.457-0.003
		c-4.864-0.023-8.822-4.001-8.822-8.865c0-4.89,3.978-8.868,8.867-8.868c0.15,0,0.299,0.012,0.447,0.022l0.148,0.01l1.314,0.085
		l0.597-1.175c2.225-4.372,6.644-7.089,11.532-7.089c6.062,0,11.382,4.298,12.649,10.219l0.318,1.483l1.514,0.094
		c3.708,0.23,6.612,3.319,6.612,7.03c0,3.878-3.144,7.035-7.017,7.057c-0.042-0.003-0.079-0.005-0.117-0.005l-2.047,0.005h-0.819v2
		h2.819v-0.006c0.042,0.001,0.082,0.006,0.124,0.006c5.001,0,9.057-4.054,9.057-9.057C51.818-163.707,48.064-167.629,43.33-167.924z
		 M15.41-171.541c-0.241-0.016-0.48-0.036-0.725-0.036c-2.766,0-5.282,1.041-7.2,2.743c-1.092-1.366-1.753-3.09-1.753-4.971
		c0-4.41,3.589-7.999,8-7.999c3.091,0,5.76,1.773,7.091,4.345C18.525-176.019,16.646-173.971,15.41-171.541z"/>
</g>
<g>
	<rect x="127.235" y="-154.288" width="2" height="7"/>
	<rect x="135.235" y="-158.288" width="2" height="7"/>
	<rect x="119.235" y="-158.288" width="2" height="7"/>
	<rect x="127.235" y="-144.288" width="2" height="7"/>
	<rect x="135.235" y="-148.288" width="2" height="7"/>
	<rect x="119.235" y="-148.288" width="2" height="7"/>
	<path d="M143.747-169.371c-1.444-6.742-7.433-11.8-14.605-11.8c-1.799,0-3.522,0.32-5.118,0.904
		c-0.949-5.108-5.404-8.98-10.788-8.98c-0.413,0-0.819,0.027-1.222,0.071c0.744,1.112,1.179,2.448,1.179,3.886c0,3.865-3.134,7-7,7
		c-1.438,0-2.773-0.435-3.886-1.179c-0.044,0.401-0.071,0.809-0.071,1.222c0,3.712,1.845,6.987,4.661,8.979
		c-1.653,1.907-2.661,4.389-2.661,7.111c0,5.983,4.836,10.836,10.813,10.865v0.003h1.188v-2h-0.721l-0.457-0.003
		c-4.864-0.023-8.822-4.001-8.822-8.865c0-4.89,3.978-8.868,8.867-8.868c0.15,0,0.299,0.012,0.447,0.022l0.148,0.01l1.314,0.085
		l0.597-1.175c2.225-4.372,6.644-7.089,11.532-7.089c6.062,0,11.382,4.298,12.649,10.219l0.318,1.483l1.514,0.094
		c3.708,0.23,6.612,3.319,6.612,7.03c0,3.878-3.144,7.035-7.017,7.057c-0.042-0.003-0.079-0.005-0.117-0.005l-2.047,0.005h-0.819v2
		h2.819v-0.006c0.042,0.001,0.082,0.006,0.124,0.006c5.001,0,9.057-4.054,9.057-9.057
		C152.235-165.154,148.481-169.076,143.747-169.371z M115.827-172.988c-0.241-0.016-0.48-0.036-0.725-0.036
		c-2.537,0-4.865,0.876-6.715,2.334c-2.012-1.294-3.487-3.354-3.976-5.776c0.582,0.117,1.178,0.177,1.78,0.177c4.963,0,9-4.037,9-9
		c0-0.603-0.06-1.198-0.177-1.78c3.733,0.753,6.629,3.824,7.133,7.64C119.438-177.986,117.223-175.731,115.827-172.988z"/>
</g>
<g>
	<polygon points="-179.995,-53.465 -179.995,-51.524 -179.995,-45.465 -177.995,-45.465 -177.995,-51.524 -177.995,-53.465 
		-177.995,-65.465 -179.995,-65.465 	"/>
	<polygon points="-171.995,-57.465 -171.995,-55.712 -171.995,-49.465 -169.995,-49.465 -169.995,-55.712 -169.995,-57.465 
		-169.995,-69.465 -171.995,-69.465 	"/>
	<polygon points="-187.995,-57.465 -187.995,-55.399 -187.995,-49.465 -185.995,-49.465 -185.995,-55.399 -185.995,-57.465 
		-185.995,-69.465 -187.995,-69.465 	"/>
	<rect x="-193.995" y="-104.367" width="2" height="7.973"/>
	<rect x="-212.995" y="-85.453" width="7.973" height="2"/>
	<rect x="-208.322" y="-96.72" transform="matrix(0.7071 0.7071 -0.7071 0.7071 -127.5324 116.451)" width="7.974" height="2"/>
	<rect x="-182.813" y="-99.702" transform="matrix(0.7071 0.7071 -0.7071 0.7071 -120.9332 100.527)" width="2" height="7.972"/>
	<path d="M-163.483-78.577c-1.444-6.742-7.433-11.8-14.605-11.8c-2.185,0-4.258,0.47-6.127,1.313
		c-1.666-3.202-5.006-5.394-8.865-5.394c-5.522,0-10,4.477-10,9.999c0,2.46,0.898,4.702,2.373,6.442
		c-1.428,1.84-2.287,4.144-2.287,6.653c0,5.983,4.836,10.836,10.813,10.865v0.003h1.188v-2h-0.721l-0.457-0.003
		c-4.864-0.023-8.822-4.001-8.822-8.865c0-4.89,3.978-8.868,8.867-8.868c0.15,0,0.299,0.012,0.447,0.022l0.148,0.01l1.314,0.085
		l0.597-1.175c2.225-4.372,6.644-7.089,11.532-7.089c6.062,0,11.382,4.298,12.649,10.219l0.318,1.483l1.514,0.094
		c3.708,0.23,6.612,3.319,6.612,7.03c0,3.878-3.144,7.035-7.017,7.057c-0.042-0.003-0.079-0.005-0.117-0.005l-2.047,0.005h-0.819v2
		h2.819V-60.5c0.042,0.001,0.082,0.006,0.124,0.006c5.001,0,9.057-4.054,9.057-9.057C-154.995-74.36-158.749-78.282-163.483-78.577z
		 M-191.403-82.194c-0.241-0.016-0.48-0.036-0.725-0.036c-2.766,0-5.281,1.042-7.2,2.743c-1.092-1.367-1.753-3.09-1.753-4.971
		c0-4.41,3.589-7.999,8-7.999c3.092,0,5.76,1.773,7.092,4.345C-188.288-86.673-190.167-84.624-191.403-82.194z"/>
</g>
<g>
	<polygon points="-79.598,-55.981 -79.598,-54.041 -79.598,-47.981 -77.598,-47.981 -77.598,-54.041 -77.598,-55.981 
		-77.598,-67.981 -79.598,-67.981 	"/>
	<polygon points="-71.598,-59.981 -71.598,-58.229 -71.598,-51.981 -69.598,-51.981 -69.598,-58.229 -69.598,-59.981 
		-69.598,-71.981 -71.598,-71.981 	"/>
	<polygon points="-87.598,-59.981 -87.598,-57.916 -87.598,-51.981 -85.598,-51.981 -85.598,-57.916 -85.598,-59.981 
		-85.598,-71.981 -87.598,-71.981 	"/>
	<path d="M-63.086-81.094c-1.444-6.742-7.433-11.8-14.605-11.8c-1.799,0-3.521,0.32-5.118,0.904
		c-0.949-5.108-5.404-8.98-10.788-8.98c-0.413,0-0.819,0.027-1.222,0.071c0.744,1.112,1.179,2.448,1.179,3.886c0,3.865-3.134,7-7,7
		c-1.438,0-2.773-0.435-3.886-1.179c-0.044,0.401-0.071,0.809-0.071,1.222c0,3.712,1.845,6.987,4.661,8.979
		c-1.653,1.907-2.661,4.389-2.661,7.111c0,5.983,4.836,10.836,10.813,10.865v0.003h1.188v-2h-0.721l-0.457-0.003
		c-4.864-0.023-8.822-4.001-8.822-8.865c0-4.89,3.978-8.868,8.867-8.868c0.15,0,0.299,0.012,0.447,0.022l0.148,0.01l1.314,0.085
		l0.597-1.175c2.225-4.372,6.644-7.089,11.532-7.089c6.062,0,11.382,4.298,12.649,10.219l0.318,1.483l1.514,0.094
		c3.708,0.23,6.612,3.319,6.612,7.03c0,3.878-3.144,7.035-7.017,7.057c-0.042-0.003-0.079-0.005-0.117-0.005l-2.047,0.005h-0.819v2
		h2.819v-0.006c0.042,0.001,0.082,0.006,0.124,0.006c5.001,0,9.057-4.054,9.057-9.057C-54.598-76.877-58.352-80.799-63.086-81.094z
		 M-91.006-84.711c-0.241-0.016-0.48-0.036-0.725-0.036c-2.537,0-4.865,0.876-6.715,2.334c-2.012-1.294-3.486-3.354-3.976-5.776
		c0.582,0.117,1.178,0.177,1.78,0.177c4.963,0,9-4.037,9-9c0-0.603-0.06-1.198-0.177-1.78c3.733,0.753,6.629,3.824,7.134,7.641
		C-87.396-89.709-89.611-87.453-91.006-84.711z"/>
</g>
<g>
	<polygon points="137.438,-55.037 130.555,-64.867 128.917,-63.72 135.8,-53.89 136.912,-52.301 140.388,-47.337 142.026,-48.483 
		138.551,-53.448 	"/>
	<polygon points="145.439,-55.039 138.555,-64.867 136.917,-63.719 143.803,-53.891 144.808,-52.455 148.392,-47.34 150.03,-48.486 
		146.446,-53.603 	"/>
	<polygon points="129.438,-55.037 122.555,-64.867 120.917,-63.719 127.8,-53.89 128.984,-52.197 132.389,-47.336 134.026,-48.483 
		130.623,-53.345 	"/>
	<rect x="116.917" y="-102.586" width="2" height="7.973"/>
	<rect x="97.917" y="-83.672" width="7.973" height="2"/>
	<rect x="102.59" y="-94.938" transform="matrix(0.7071 0.7071 -0.7071 0.7071 -35.2088 -102.8754)" width="7.974" height="2"/>
	<rect x="128.099" y="-97.92" transform="matrix(0.7071 0.7071 -0.7071 0.7071 -28.6096 -118.7993)" width="2" height="7.972"/>
	<path d="M147.429-76.796c-1.444-6.742-7.433-11.8-14.605-11.8c-2.185,0-4.258,0.47-6.126,1.313
		c-1.667-3.202-5.007-5.394-8.866-5.394c-5.522,0-10,4.477-10,9.999c0,2.46,0.899,4.702,2.373,6.442
		c-1.429,1.84-2.287,4.144-2.287,6.653c0,5.983,4.836,10.836,10.813,10.865v0.003h1.188v-2h-0.721l-0.457-0.003
		c-4.864-0.023-8.822-4.001-8.822-8.865c0-4.89,3.978-8.868,8.867-8.868c0.15,0,0.299,0.012,0.447,0.022l0.148,0.01l1.314,0.085
		l0.597-1.175c2.225-4.372,6.644-7.089,11.532-7.089c6.062,0,11.382,4.298,12.649,10.219l0.318,1.483l1.514,0.094
		c3.708,0.23,6.612,3.319,6.612,7.03c0,3.878-3.144,7.035-7.017,7.057c-0.042-0.003-0.079-0.005-0.117-0.005l-0.047,0.005h-0.819v2
		h0.819v-0.006c0.042,0.001,0.082,0.006,0.124,0.006c5.001,0,9.057-4.054,9.057-9.057C155.917-72.579,152.163-76.501,147.429-76.796
		z M119.509-80.413c-0.241-0.016-0.48-0.036-0.725-0.036c-2.766,0-5.282,1.042-7.2,2.743c-1.092-1.367-1.753-3.09-1.753-4.971
		c0-4.41,3.589-7.999,8-7.999c3.091,0,5.76,1.773,7.091,4.345C122.624-84.892,120.744-82.843,119.509-80.413z"/>
</g>
<g>
	<polygon points="-585.993,41.448 -592.876,31.618 -594.514,32.766 -587.631,42.596 -586.519,44.185 -583.043,49.148 
		-581.404,48.002 -584.88,43.037 	"/>
	<polygon points="-577.991,41.446 -584.876,31.618 -586.514,32.767 -579.628,42.595 -578.623,44.03 -575.039,49.146 -573.4,47.999 
		-576.984,42.883 	"/>
	<polygon points="-593.993,41.448 -600.876,31.618 -602.514,32.767 -595.631,42.596 -594.446,44.288 -591.042,49.149 
		-589.404,48.002 -592.808,43.141 	"/>
	<path d="M-576.002,19.689c-1.444-6.742-7.433-11.8-14.605-11.8c-1.799,0-3.522,0.32-5.118,0.904
		c-0.949-5.108-5.404-8.98-10.788-8.98c-0.413,0-0.819,0.027-1.222,0.071c0.744,1.112,1.179,2.448,1.179,3.886c0,3.865-3.134,7-7,7
		c-1.438,0-2.773-0.435-3.886-1.179c-0.044,0.401-0.071,0.809-0.071,1.222c0,3.712,1.845,6.987,4.661,8.979
		c-1.653,1.907-2.661,4.389-2.661,7.111c0,5.983,4.836,10.836,10.813,10.865v0.003h1.188v-2h-0.721l-0.457-0.003
		c-4.864-0.023-8.822-4.001-8.822-8.865c0-4.89,3.978-8.868,8.867-8.868c0.15,0,0.299,0.012,0.447,0.022l0.148,0.01l1.314,0.085
		l0.597-1.175c2.225-4.372,6.644-7.089,11.532-7.089c6.062,0,11.382,4.298,12.649,10.219l0.318,1.483l1.514,0.094
		c3.708,0.23,6.612,3.319,6.612,7.03c0,3.878-3.144,7.035-7.017,7.057c-0.042-0.003-0.079-0.005-0.117-0.005l-0.047,0.005h-0.819v2
		h0.819v-0.006c0.042,0.001,0.082,0.006,0.124,0.006c5.001,0,9.057-4.054,9.057-9.057
		C-567.514,23.906-571.268,19.984-576.002,19.689z M-603.922,16.072c-0.241-0.016-0.48-0.036-0.725-0.036
		c-2.537,0-4.865,0.876-6.715,2.334c-2.012-1.294-3.487-3.354-3.976-5.776c0.582,0.117,1.178,0.177,1.78,0.177c4.963,0,9-4.037,9-9
		c0-0.603-0.06-1.198-0.177-1.78c3.733,0.753,6.629,3.824,7.133,7.641C-600.312,11.074-602.526,13.33-603.922,16.072z"/>
</g>
<g>
	<rect x="-593.514" y="-62.398" width="2" height="4"/>
	<rect x="-585.514" y="-66.42" width="2" height="4.021"/>
	<rect x="-601.514" y="-66.42" width="2" height="4.021"/>
	<path d="M-574.886-82.387c-1.596-7.445-8.207-13.029-16.127-13.029c-6.423,0-11.977,3.678-14.702,9.035
		c-0.266-0.018-0.53-0.04-0.8-0.04c-6.627,0-11.999,5.372-11.999,12c0,6.607,5.34,11.965,11.938,11.998v0.003h2.062v-2h-1.604
		l-0.447-0.003c-5.485-0.027-9.948-4.513-9.948-9.998c0-5.514,4.485-10,9.999-10c0.175,0,0.347,0.014,0.52,0.025l0.148,0.01
		l1.316,0.088l0.598-1.176c2.492-4.899,7.443-7.942,12.92-7.942c6.79,0,12.75,4.814,14.172,11.448l0.317,1.482l1.514,0.095
		c4.203,0.262,7.496,3.763,7.496,7.971c0,4.397-3.565,7.977-7.957,8c-0.05-0.003-0.093-0.005-0.137-0.007l-2.043,0.007h-2.863v2
		h4.863v-0.007c0.046,0.001,0.091,0.007,0.137,0.007c5.521,0,10-4.477,10-10C-565.514-77.73-569.658-82.062-574.886-82.387z"/>
	<circle cx="-584.514" cy="-57.378" r="1.5"/>
	<circle cx="-592.514" cy="-53.409" r="1.5"/>
	<circle cx="-600.514" cy="-57.42" r="1.5"/>
</g>
<g>
	<rect x="-500.593" y="-101.853" width="2" height="7.973"/>
	<rect x="-519.593" y="-82.938" width="7.973" height="2"/>
	<rect x="-514.92" y="-94.205" transform="matrix(0.7071 0.7071 -0.7071 0.7071 -215.5547 333.9848)" width="7.974" height="2"/>
	<rect x="-489.411" y="-97.187" transform="matrix(0.7071 0.7071 -0.7071 0.7071 -208.9555 318.0609)" width="2" height="7.972"/>
	<path d="M-470.081-76.063c-1.444-6.742-7.433-11.8-14.605-11.8c-2.185,0-4.258,0.47-6.126,1.313
		c-1.667-3.202-5.007-5.394-8.866-5.394c-5.522,0-10,4.477-10,9.999c0,2.46,0.899,4.702,2.373,6.442
		c-1.429,1.84-2.287,4.144-2.287,6.653c0,5.983,4.836,10.836,10.813,10.865v0.003h1.188v-2h-0.721l-0.457-0.003
		c-4.864-0.023-8.822-4.001-8.822-8.865c0-4.89,3.978-8.868,8.867-8.868c0.15,0,0.299,0.012,0.447,0.022l0.148,0.01l1.314,0.085
		l0.597-1.175c2.225-4.372,6.644-7.089,11.532-7.089c6.062,0,11.382,4.298,12.649,10.219l0.318,1.483l1.514,0.094
		c3.708,0.23,6.612,3.319,6.612,7.03c0,3.878-3.144,7.035-7.017,7.057c-0.042-0.003-0.079-0.005-0.117-0.005l-2.047,0.005h-0.819v2
		h2.819v-0.006c0.042,0.001,0.082,0.006,0.124,0.006c5.001,0,9.057-4.054,9.057-9.057
		C-461.593-71.846-465.347-75.768-470.081-76.063z M-498.001-79.68c-0.241-0.016-0.48-0.036-0.725-0.036
		c-2.766,0-5.282,1.042-7.2,2.743c-1.092-1.367-1.753-3.09-1.753-4.971c0-4.41,3.589-7.999,8-7.999c3.091,0,5.76,1.773,7.091,4.345
		C-494.886-84.158-496.766-82.109-498.001-79.68z"/>
	<rect x="-486.593" y="-57.964" width="2" height="4"/>
	<rect x="-478.593" y="-61.985" width="2" height="4.021"/>
	<rect x="-494.593" y="-61.985" width="2" height="4.021"/>
	<circle cx="-477.593" cy="-52.943" r="1.5"/>
	<circle cx="-485.593" cy="-48.975" r="1.5"/>
	<circle cx="-493.593" cy="-52.985" r="1.5"/>
</g>
<g>
	<path d="M-369.155-77.02c-1.444-6.742-7.433-11.8-14.605-11.8c-1.799,0-3.522,0.32-5.118,0.904
		c-0.949-5.108-5.404-8.98-10.788-8.98c-0.413,0-0.819,0.027-1.222,0.071c0.744,1.112,1.179,2.448,1.179,3.886c0,3.865-3.134,7-7,7
		c-1.438,0-2.773-0.435-3.886-1.179c-0.044,0.401-0.071,0.809-0.071,1.222c0,3.712,1.845,6.987,4.661,8.979
		c-1.653,1.907-2.661,4.389-2.661,7.111c0,5.983,4.836,10.836,10.813,10.865v0.003h1.188v-2h-0.721l-0.457-0.003
		c-4.864-0.023-8.822-4.001-8.822-8.865c0-4.89,3.978-8.868,8.867-8.868c0.15,0,0.299,0.012,0.447,0.022l0.148,0.01l1.314,0.085
		l0.597-1.175c2.225-4.372,6.644-7.089,11.532-7.089c6.062,0,11.382,4.298,12.649,10.219l0.318,1.483l1.514,0.094
		c3.708,0.23,6.612,3.319,6.612,7.03c0,3.878-3.144,7.035-7.017,7.057c-0.042-0.003-0.079-0.005-0.117-0.005l-2.047,0.005h-0.819v2
		h2.819v-0.006c0.042,0.001,0.082,0.006,0.124,0.006c5.001,0,9.057-4.054,9.057-9.057C-360.667-72.803-364.421-76.725-369.155-77.02
		z M-397.075-80.637c-0.241-0.016-0.48-0.036-0.725-0.036c-2.537,0-4.865,0.876-6.715,2.334c-2.012-1.294-3.487-3.354-3.976-5.776
		c0.582,0.117,1.178,0.177,1.78,0.177c4.963,0,9-4.037,9-9c0-0.603-0.06-1.198-0.177-1.78c3.733,0.753,6.629,3.824,7.133,7.641
		C-393.465-85.635-395.68-83.379-397.075-80.637z"/>
	<rect x="-385.667" y="-58.921" width="2" height="4"/>
	<rect x="-377.667" y="-62.942" width="2" height="4.021"/>
	<rect x="-393.667" y="-62.942" width="2" height="4.021"/>
	<circle cx="-376.667" cy="-53.9" r="1.5"/>
	<circle cx="-384.667" cy="-49.932" r="1.5"/>
	<circle cx="-392.667" cy="-53.942" r="1.5"/>
</g>
<g>
	<path d="M-472.465,16.011c-1.596-7.445-8.207-13.029-16.127-13.029c-6.423,0-11.977,3.678-14.702,9.035
		c-0.266-0.018-0.53-0.04-0.8-0.04c-6.627,0-11.999,5.372-11.999,12c0,6.607,5.34,11.965,11.938,11.998v0.003h6.062v-2h-5.604
		l-0.447-0.003c-5.485-0.027-9.948-4.513-9.948-9.998c0-5.514,4.485-10,9.999-10c0.175,0,0.347,0.014,0.52,0.025l0.148,0.01
		l1.316,0.088l0.598-1.176c2.492-4.899,7.443-7.942,12.92-7.942c6.79,0,12.75,4.814,14.172,11.448l0.317,1.482l1.514,0.095
		c4.203,0.262,7.496,3.763,7.496,7.971c0,4.397-3.565,7.977-7.957,8c-0.05-0.003-0.093-0.005-0.137-0.007l-5.043,0.007h0.137v2
		h4.863v-0.007c0.046,0.001,0.091,0.007,0.137,0.007c5.521,0,10-4.477,10-10C-463.093,20.667-467.237,16.336-472.465,16.011z"/>
	<polygon points="-488.251,35.981 -486.481,35.981 -486.051,35.981 -484.041,35.981 -490.455,26.82 -492.093,27.968 
		-487.882,33.981 -489.652,33.981 -492.093,33.981 -490.821,35.798 -489.709,37.387 -483.731,45.981 -482.093,44.835 
		-488.07,36.239 	"/>
</g>
<g>
	<rect x="-396.667" y="-3.119" width="2" height="7.973"/>
	<rect x="-415.667" y="15.795" width="7.973" height="2"/>
	<rect x="-410.994" y="4.528" transform="matrix(0.7071 0.7071 -0.7071 0.7071 -115.3004 289.4165)" width="7.974" height="2"/>
	<rect x="-385.485" y="1.546" transform="matrix(0.7071 0.7071 -0.7071 0.7071 -108.7013 273.4926)" width="2" height="7.972"/>
	<path d="M-366.155,22.671c-1.444-6.742-7.433-11.8-14.605-11.8c-2.185,0-4.258,0.47-6.127,1.313
		c-1.666-3.202-5.006-5.394-8.865-5.394c-5.522,0-10,4.477-10,9.999c0,2.46,0.898,4.702,2.373,6.442
		c-1.428,1.84-2.287,4.144-2.287,6.653c0,5.983,4.836,10.836,10.813,10.865v0.003h4.188v-2h-3.721l-0.457-0.003
		c-4.864-0.023-8.822-4.001-8.822-8.865c0-4.89,3.978-8.868,8.867-8.868c0.15,0,0.299,0.012,0.447,0.022l0.148,0.01l1.314,0.085
		l0.597-1.175c2.225-4.372,6.644-7.089,11.532-7.089c6.062,0,11.382,4.298,12.649,10.219l0.318,1.483l1.514,0.094
		c3.708,0.23,6.612,3.319,6.612,7.03c0,3.878-3.144,7.035-7.017,7.057c-0.042-0.003-0.079-0.005-0.117-0.005l-2.047,0.005h-3.819v2
		h5.819v-0.006c0.042,0.001,0.082,0.006,0.124,0.006c5.001,0,9.057-4.054,9.057-9.057
		C-357.667,26.888-361.421,22.966-366.155,22.671z M-394.075,19.054c-0.241-0.016-0.48-0.036-0.725-0.036
		c-2.766,0-5.281,1.041-7.2,2.743c-1.092-1.366-1.753-3.09-1.753-4.971c0-4.41,3.589-7.999,8-7.999c3.092,0,5.76,1.773,7.092,4.345
		C-390.96,14.576-392.839,16.624-394.075,19.054z"/>
	<polygon points="-381.825,40.761 -380.056,40.761 -379.625,40.761 -377.615,40.761 -384.029,31.6 -385.667,32.747 -381.456,38.761 
		-383.227,38.761 -385.667,38.761 -384.396,40.577 -383.283,42.166 -377.306,50.761 -375.667,49.614 -381.645,41.019 	"/>
</g>
<g>
	<path d="M-266.57,20.375c-1.444-6.742-7.433-11.8-14.605-11.8c-1.799,0-3.521,0.32-5.118,0.904
		c-0.949-5.108-5.404-8.98-10.788-8.98c-0.413,0-0.819,0.027-1.222,0.071c0.744,1.112,1.179,2.448,1.179,3.886c0,3.865-3.134,7-7,7
		c-1.438,0-2.773-0.435-3.886-1.179c-0.044,0.401-0.071,0.809-0.071,1.222c0,3.712,1.845,6.987,4.661,8.979
		c-1.653,1.907-2.661,4.389-2.661,7.111c0,5.983,4.836,10.836,10.813,10.865v0.003h4.188v-2h-3.721l-0.457-0.003
		c-4.864-0.023-8.822-4.001-8.822-8.865c0-4.89,3.978-8.868,8.867-8.868c0.15,0,0.299,0.012,0.447,0.022l0.148,0.01l1.314,0.085
		l0.597-1.175c2.225-4.372,6.644-7.089,11.532-7.089c6.062,0,11.382,4.298,12.649,10.219l0.318,1.483l1.514,0.094
		c3.708,0.23,6.612,3.319,6.612,7.03c0,3.878-3.144,7.035-7.017,7.057c-0.042-0.003-0.079-0.005-0.117-0.005l-2.047,0.005h-3.819v2
		h5.819v-0.006c0.042,0.001,0.082,0.006,0.124,0.006c5.001,0,9.057-4.054,9.057-9.057C-258.082,24.592-261.836,20.67-266.57,20.375z
		 M-294.49,16.758c-0.241-0.016-0.48-0.036-0.725-0.036c-2.537,0-4.865,0.876-6.715,2.334c-2.012-1.294-3.486-3.354-3.976-5.776
		c0.582,0.117,1.178,0.177,1.78,0.177c4.963,0,9-4.037,9-9c0-0.603-0.06-1.198-0.177-1.78c3.733,0.753,6.629,3.824,7.134,7.64
		C-290.881,11.76-293.096,14.015-294.49,16.758z"/>
	<polygon points="-282.24,38.465 -280.471,38.465 -280.04,38.465 -278.03,38.465 -284.444,29.304 -286.082,30.451 -281.871,36.465 
		-283.642,36.465 -286.082,36.465 -284.811,38.281 -283.698,39.87 -277.721,48.465 -276.082,47.318 -282.06,38.723 	"/>
</g>
<g>
	<path d="M-165.686,16.511c-1.596-7.445-8.207-13.029-16.127-13.029c-6.423,0-11.977,3.678-14.702,9.035
		c-0.266-0.018-0.53-0.04-0.8-0.04c-6.627,0-11.999,5.372-11.999,12c0,6.607,5.34,11.965,11.938,11.998v0.003h1.062v-2h-0.604
		l-0.447-0.003c-5.485-0.027-9.948-4.513-9.948-9.998c0-5.514,4.485-10,9.999-10c0.175,0,0.347,0.014,0.52,0.025l0.148,0.01
		l1.316,0.088l0.598-1.176c2.492-4.899,7.443-7.942,12.92-7.942c6.79,0,12.75,4.814,14.172,11.448l0.317,1.482l1.514,0.095
		c4.203,0.262,7.496,3.763,7.496,7.971c0,4.397-3.565,7.977-7.957,8c-0.05-0.003-0.093-0.005-0.137-0.007l-0.906,0.007v2h0.863
		v-0.007c0.046,0.001,0.091,0.007,0.137,0.007c5.521,0,10-4.477,10-10C-156.313,21.167-160.458,16.836-165.686,16.511z"/>
	
		<rect x="-196.879" y="34.476" transform="matrix(-0.5736 -0.8191 0.8191 -0.5736 -330.0754 -100.8604)" width="11.183" height="1.999"/>
	
		<rect x="-178.905" y="34.476" transform="matrix(-0.5736 -0.8191 0.8191 -0.5736 -301.7899 -86.1372)" width="11.183" height="1.999"/>
	<polygon points="-180.472,39.481 -178.702,39.481 -178.271,39.481 -176.262,39.481 -182.676,30.32 -184.313,31.468 
		-180.103,37.481 -181.873,37.481 -184.313,37.481 -183.042,39.298 -181.93,40.887 -177.313,47.481 -175.675,46.335 
		-180.291,39.739 	"/>
</g>
<g>
	<rect x="-90.838" y="-2.956" width="2" height="7.973"/>
	<rect x="-109.838" y="15.958" width="7.973" height="2"/>
	<rect x="-105.165" y="4.692" transform="matrix(0.7071 0.7071 -0.7071 0.7071 -25.6098 73.2104)" width="7.974" height="2"/>
	<rect x="-79.656" y="1.71" transform="matrix(0.7071 0.7071 -0.7071 0.7071 -19.0107 57.2865)" width="2" height="7.972"/>
	<path d="M-60.326,22.834c-1.444-6.742-7.433-11.8-14.605-11.8c-2.185,0-4.258,0.47-6.126,1.313
		c-1.667-3.202-5.007-5.394-8.866-5.394c-5.522,0-10,4.477-10,9.999c0,2.46,0.899,4.702,2.373,6.442
		c-1.429,1.84-2.287,4.144-2.287,6.653c0,5.983,4.836,10.836,10.813,10.865v0.003h0.188v-2l-0.178-0.003
		c-4.864-0.023-8.822-4.001-8.822-8.865c0-4.89,3.978-8.868,8.867-8.868c0.15,0,0.299,0.012,0.447,0.022l0.148,0.01l1.314,0.085
		l0.597-1.175c2.225-4.372,6.644-7.089,11.532-7.089c6.062,0,11.382,4.298,12.649,10.219l0.318,1.483l1.514,0.094
		c3.708,0.23,6.612,3.319,6.612,7.03c0,3.878-3.144,7.035-7.017,7.057c-0.042-0.003-0.079-0.005-0.117-0.005l-0.866,0.005v2h0.819
		v-0.006c0.042,0.001,0.082,0.006,0.124,0.006c5.001,0,9.057-4.054,9.057-9.057C-51.838,27.051-55.592,23.129-60.326,22.834z
		 M-88.246,19.217c-0.241-0.016-0.48-0.036-0.725-0.036c-2.766,0-5.282,1.042-7.2,2.743c-1.092-1.367-1.753-3.09-1.753-4.971
		c0-4.41,3.589-7.999,8-7.999c3.091,0,5.76,1.773,7.091,4.345C-85.131,14.738-87.011,16.787-88.246,19.217z"/>
	
		<rect x="-90.416" y="38.914" transform="matrix(-0.5736 -0.8191 0.8191 -0.5736 -166.177 -6.6711)" width="11.183" height="1.999"/>
	<rect x="-72.442" y="38.914" transform="matrix(-0.5736 -0.8191 0.8191 -0.5736 -137.8914 8.052)" width="11.183" height="1.999"/>
	<polygon points="-74.009,43.92 -72.239,43.92 -71.809,43.92 -69.799,43.92 -76.213,34.759 -77.851,35.906 -73.64,41.92 
		-75.41,41.92 -77.851,41.92 -76.579,43.736 -75.467,45.325 -70.851,51.92 -69.212,50.773 -73.828,44.178 	"/>
</g>
<g>
	<path d="M41.512,19.876c-1.444-6.742-7.433-11.8-14.605-11.8c-1.799,0-3.522,0.32-5.118,0.904C20.839,3.872,16.384,0,11,0
		c-0.413,0-0.819,0.027-1.222,0.071c0.744,1.112,1.179,2.448,1.179,3.886c0,3.865-3.134,7-7,7c-1.438,0-2.773-0.435-3.886-1.179
		C0.027,10.18,0,10.587,0,11c0,3.712,1.845,6.987,4.661,8.979C3.008,21.887,2,24.368,2,27.091c0,5.983,4.836,10.836,10.813,10.865
		v0.003H13v-2l-0.178-0.003C7.958,35.933,4,31.955,4,27.091c0-4.89,3.978-8.868,8.867-8.868c0.15,0,0.299,0.012,0.447,0.022
		l0.148,0.01l1.314,0.085l0.597-1.175c2.225-4.372,6.644-7.089,11.532-7.089c6.062,0,11.382,4.298,12.649,10.219l0.318,1.483
		l1.514,0.094c3.708,0.23,6.612,3.319,6.612,7.03c0,3.878-3.144,7.035-7.017,7.057c-0.042-0.003-0.079-0.005-0.117-0.005L40,35.959
		v2h0.819v-0.006c0.042,0.001,0.082,0.006,0.124,0.006c5.001,0,9.057-4.054,9.057-9.057C50,24.093,46.246,20.171,41.512,19.876z
		 M13.592,16.259c-0.241-0.016-0.48-0.036-0.725-0.036c-2.537,0-4.865,0.876-6.715,2.334c-2.012-1.294-3.487-3.354-3.976-5.776
		c0.582,0.117,1.178,0.177,1.78,0.177c4.963,0,9-4.037,9-9c0-0.603-0.06-1.198-0.177-1.78c3.733,0.753,6.629,3.824,7.133,7.641
		C17.202,11.261,14.987,13.517,13.592,16.259z"/>
	<rect x="11.421" y="35.956" transform="matrix(-0.5736 -0.8191 0.8191 -0.5736 -3.4996 72.0895)" width="11.183" height="1.999"/>
	<rect x="29.395" y="35.956" transform="matrix(-0.5736 -0.8191 0.8191 -0.5736 24.786 86.8127)" width="11.183" height="1.999"/>
	<polygon points="27.828,40.962 29.598,40.962 30.028,40.962 32.038,40.962 25.624,31.801 23.986,32.948 28.197,38.962 
		26.427,38.962 23.986,38.962 25.258,40.778 26.37,42.367 30.986,48.962 32.625,47.815 28.009,41.22 	"/>
</g>
<g>
	<g>
		<path d="M-369.051,106.331c-1.596-7.445-8.207-13.029-16.127-13.029c-6.423,0-11.977,3.678-14.702,9.035
			c-0.266-0.018-0.53-0.04-0.8-0.04c-6.627,0-11.999,5.372-11.999,12c0,6.607,5.34,11.965,11.938,11.998v0.003h2.062v-2h-1.604
			l-0.447-0.003c-5.485-0.027-9.948-4.513-9.948-9.998c0-5.514,4.485-10,9.999-10c0.175,0,0.347,0.014,0.52,0.025l0.148,0.01
			l1.316,0.088l0.598-1.176c2.492-4.899,7.443-7.942,12.92-7.942c6.79,0,12.75,4.814,14.172,11.448l0.317,1.482l1.514,0.095
			c4.203,0.262,7.496,3.763,7.496,7.971c0,4.397-3.565,7.977-7.957,8c-0.05-0.003-0.093-0.005-0.137-0.007l-2.043,0.007h-2.863v2
			h4.863v-0.007c0.046,0.001,0.091,0.007,0.137,0.007c5.521,0,10-4.477,10-10C-359.679,110.987-363.823,106.656-369.051,106.331z"/>
	</g>
	<g>
		<circle cx="-394.179" cy="119.874" r="1.5"/>
	</g>
	<g>
		<circle cx="-390.179" cy="125.798" r="1.5"/>
	</g>
	<g>
		<circle cx="-382.179" cy="125.798" r="1.5"/>
	</g>
	<g>
		<circle cx="-386.179" cy="119.874" r="1.5"/>
	</g>
	<g>
		<circle cx="-378.179" cy="119.874" r="1.5"/>
	</g>
	<g>
		<circle cx="-394.179" cy="131.819" r="1.5"/>
	</g>
	<g>
		<circle cx="-386.179" cy="131.819" r="1.5"/>
	</g>
	<g>
		<circle cx="-378.179" cy="131.819" r="1.5"/>
	</g>
</g>
<g>
	<g>
		<rect x="-293.265" y="90.854" width="2" height="7.973"/>
	</g>
	<g>
		<rect x="-312.265" y="109.768" width="7.973" height="2"/>
	</g>
	<g>
		<rect x="-307.592" y="98.501" transform="matrix(0.7071 0.7071 -0.7071 0.7071 -18.5659 243.8239)" width="7.974" height="2"/>
	</g>
	<g>
		<rect x="-282.083" y="95.519" transform="matrix(0.7071 0.7071 -0.7071 0.7071 -11.9667 227.9)" width="2" height="7.972"/>
	</g>
	<g>
		<path d="M-262.753,116.644c-1.444-6.742-7.433-11.8-14.605-11.8c-2.185,0-4.258,0.47-6.127,1.313
			c-1.666-3.202-5.006-5.394-8.865-5.394c-5.522,0-10,4.477-10,9.999c0,2.46,0.898,4.702,2.373,6.442
			c-1.428,1.84-2.287,4.144-2.287,6.653c0,5.983,4.836,10.836,10.813,10.865v0.003h1.188v-2h-0.721l-0.457-0.003
			c-4.864-0.023-8.822-4.001-8.822-8.865c0-4.89,3.978-8.868,8.867-8.868c0.15,0,0.299,0.012,0.447,0.022l0.148,0.01l1.314,0.085
			l0.597-1.175c2.225-4.372,6.644-7.089,11.532-7.089c6.062,0,11.382,4.298,12.649,10.219l0.318,1.483l1.514,0.094
			c3.708,0.23,6.612,3.319,6.612,7.03c0,3.878-3.144,7.035-7.017,7.057c-0.042-0.003-0.079-0.005-0.117-0.005l-2.047,0.005h-1.819v2
			h3.819v-0.006c0.042,0.001,0.082,0.006,0.124,0.006c5.001,0,9.057-4.054,9.057-9.057
			C-254.265,120.86-258.019,116.938-262.753,116.644z M-290.673,113.026c-0.241-0.016-0.48-0.036-0.725-0.036
			c-2.766,0-5.281,1.042-7.2,2.743c-1.092-1.367-1.753-3.09-1.753-4.971c0-4.41,3.589-7.999,8-7.999c3.092,0,5.76,1.773,7.092,4.345
			C-287.558,108.548-289.437,110.597-290.673,113.026z"/>
	</g>
	<g>
		<circle cx="-286.775" cy="128.237" r="1.5"/>
	</g>
	<g>
		<circle cx="-282.775" cy="134.237" r="1.5"/>
	</g>
	<g>
		<circle cx="-274.775" cy="134.237" r="1.5"/>
	</g>
	<g>
		<circle cx="-278.775" cy="128.237" r="1.5"/>
	</g>
	<g>
		<circle cx="-270.775" cy="128.237" r="1.5"/>
	</g>
	<g>
		<circle cx="-286.775" cy="140.259" r="1.5"/>
	</g>
	<g>
		<circle cx="-278.775" cy="140.259" r="1.5"/>
	</g>
	<g>
		<circle cx="-270.775" cy="140.259" r="1.5"/>
	</g>
</g>
<g>
	<g>
		<path d="M-166.802,112.688c-1.444-6.742-7.433-11.8-14.605-11.8c-1.799,0-3.521,0.32-5.118,0.904
			c-0.949-5.108-5.404-8.98-10.788-8.98c-0.413,0-0.819,0.027-1.222,0.071c0.744,1.112,1.179,2.448,1.179,3.886c0,3.865-3.134,7-7,7
			c-1.438,0-2.773-0.435-3.886-1.179c-0.044,0.401-0.071,0.809-0.071,1.222c0,3.712,1.845,6.987,4.661,8.979
			c-1.653,1.907-2.661,4.389-2.661,7.111c0,5.983,4.836,10.836,10.813,10.865v0.003h1.188v-2h-0.721l-0.457-0.003
			c-4.864-0.023-8.822-4.001-8.822-8.865c0-4.89,3.978-8.868,8.867-8.868c0.15,0,0.299,0.012,0.447,0.022l0.148,0.01l1.314,0.085
			l0.597-1.175c2.225-4.372,6.644-7.089,11.532-7.089c6.062,0,11.382,4.298,12.649,10.219l0.318,1.483l1.514,0.094
			c3.708,0.23,6.612,3.319,6.612,7.03c0,3.878-3.144,7.035-7.017,7.057c-0.042-0.003-0.079-0.005-0.117-0.005l-2.047,0.005h-1.819v2
			h3.819v-0.006c0.042,0.001,0.082,0.006,0.124,0.006c5.001,0,9.057-4.054,9.057-9.057
			C-158.313,116.904-162.067,112.982-166.802,112.688z M-194.722,109.07c-0.241-0.016-0.48-0.036-0.725-0.036
			c-2.537,0-4.865,0.876-6.715,2.334c-2.012-1.294-3.486-3.354-3.976-5.776c0.582,0.117,1.178,0.177,1.78,0.177c4.963,0,9-4.037,9-9
			c0-0.603-0.06-1.198-0.177-1.78c3.733,0.753,6.629,3.824,7.134,7.64C-191.112,104.072-193.327,106.327-194.722,109.07z"/>
	</g>
	<g>
		<circle cx="-190.813" cy="124.28" r="1.5"/>
	</g>
	<g>
		<circle cx="-186.813" cy="130.28" r="1.5"/>
	</g>
	<g>
		<circle cx="-178.813" cy="130.28" r="1.5"/>
	</g>
	<g>
		<circle cx="-182.813" cy="124.28" r="1.5"/>
	</g>
	<g>
		<circle cx="-174.813" cy="124.28" r="1.5"/>
	</g>
	<g>
		<circle cx="-190.813" cy="136.302" r="1.5"/>
	</g>
	<g>
		<circle cx="-182.813" cy="136.302" r="1.5"/>
	</g>
	<g>
		<circle cx="-174.813" cy="136.302" r="1.5"/>
	</g>
</g>
<g>
	<path d="M144.363,13.802c-1.596-7.445-8.207-13.029-16.127-13.029c-6.423,0-11.977,3.678-14.702,9.035
		c-0.266-0.018-0.53-0.04-0.8-0.04c-6.627,0-11.999,5.372-11.999,12c0,6.607,5.34,11.965,11.938,11.998v0.003h2.062v-2h-1.604
		l-0.447-0.003c-5.485-0.027-9.948-4.513-9.948-9.998c0-5.514,4.485-10,9.999-10c0.175,0,0.347,0.014,0.52,0.025l0.148,0.01
		l1.316,0.088l0.598-1.176c2.492-4.899,7.443-7.942,12.92-7.942c6.79,0,12.75,4.814,14.172,11.448l0.317,1.482l1.514,0.095
		c4.203,0.262,7.496,3.763,7.496,7.971c0,4.397-3.565,7.977-7.957,8c-0.05-0.003-0.093-0.005-0.137-0.007l-2.043,0.007h-2.863v2
		h4.863v-0.007c0.046,0.001,0.091,0.007,0.137,0.007c5.521,0,10-4.477,10-10C153.735,18.458,149.591,14.127,144.363,13.802z"/>
	<circle cx="118.735" cy="41.272" r="1.5"/>
	<circle cx="126.735" cy="47.272" r="1.5"/>
	<circle cx="134.735" cy="43.272" r="1.5"/>
	<rect x="117.735" y="24.797" width="2" height="11.976"/>
	<polygon points="127.735,42.737 127.735,40.797 127.735,28.797 125.735,28.797 125.735,40.797 125.735,42.737 125.735,42.772 
		127.735,42.772 	"/>
	<polygon points="135.735,38.55 135.735,36.797 135.735,24.797 133.735,24.797 133.735,36.797 133.735,38.55 133.735,38.772 
		135.735,38.772 	"/>
</g>
<g>
	<rect x="-604.014" y="85.415" width="2" height="7.973"/>
	<rect x="-623.014" y="104.329" width="7.973" height="2"/>
	<rect x="-618.341" y="93.063" transform="matrix(0.7071 0.7071 -0.7071 0.7071 -113.4277 461.9638)" width="7.974" height="2"/>
	<rect x="-592.832" y="90.081" transform="matrix(0.7071 0.7071 -0.7071 0.7071 -106.8286 446.0399)" width="2" height="7.972"/>
	<path d="M-573.502,111.205c-1.444-6.742-7.433-11.8-14.605-11.8c-2.185,0-4.258,0.47-6.126,1.313
		c-1.667-3.202-5.007-5.394-8.866-5.394c-5.522,0-10,4.477-10,9.999c0,2.46,0.899,4.702,2.373,6.442
		c-1.429,1.84-2.287,4.144-2.287,6.653c0,5.983,4.836,10.836,10.813,10.865v0.003h1.188v-2h-0.721l-0.457-0.003
		c-4.864-0.023-8.822-4.001-8.822-8.865c0-4.89,3.978-8.868,8.867-8.868c0.15,0,0.299,0.012,0.447,0.022l0.148,0.01l1.314,0.085
		l0.597-1.175c2.225-4.372,6.644-7.089,11.532-7.089c6.062,0,11.382,4.298,12.649,10.219l0.318,1.483l1.514,0.094
		c3.708,0.23,6.612,3.319,6.612,7.03c0,3.878-3.144,7.035-7.017,7.057c-0.042-0.003-0.079-0.005-0.117-0.005l-2.047,0.005h-0.819v2
		h2.819v-0.006c0.042,0.001,0.082,0.006,0.124,0.006c5.001,0,9.057-4.054,9.057-9.057
		C-565.014,115.422-568.768,111.5-573.502,111.205z M-601.422,107.588c-0.241-0.016-0.48-0.036-0.725-0.036
		c-2.766,0-5.282,1.041-7.2,2.743c-1.092-1.366-1.753-3.09-1.753-4.971c0-4.41,3.589-7.999,8-7.999c3.091,0,5.76,1.773,7.091,4.345
		C-598.307,103.11-600.187,105.158-601.422,107.588z"/>
	<circle cx="-597.023" cy="137.775" r="1.5"/>
	<circle cx="-589.023" cy="143.775" r="1.5"/>
	<circle cx="-581.023" cy="139.775" r="1.5"/>
	<rect x="-598.023" y="121.3" width="2" height="11.976"/>
	<polygon points="-588.023,139.24 -588.023,137.3 -588.023,125.3 -590.023,125.3 -590.023,137.3 -590.023,139.24 -590.023,139.275 
		-588.023,139.275 	"/>
	<polygon points="-580.023,135.053 -580.023,133.3 -580.023,121.3 -582.023,121.3 -582.023,133.3 -582.023,135.053 
		-582.023,135.275 -580.023,135.275 	"/>
</g>
<g>
	<path d="M-472.899,108.207c-1.444-6.742-7.433-11.8-14.605-11.8c-1.799,0-3.522,0.32-5.118,0.904
		c-0.949-5.108-5.404-8.98-10.788-8.98c-0.413,0-0.819,0.027-1.222,0.071c0.744,1.112,1.179,2.448,1.179,3.886c0,3.865-3.134,7-7,7
		c-1.438,0-2.773-0.435-3.886-1.179c-0.044,0.401-0.071,0.809-0.071,1.222c0,3.712,1.845,6.987,4.661,8.979
		c-1.653,1.907-2.661,4.389-2.661,7.111c0,5.983,4.836,10.836,10.813,10.865v0.003h1.188v-2h-0.721l-0.457-0.003
		c-4.864-0.023-8.822-4.001-8.822-8.865c0-4.89,3.978-8.868,8.867-8.868c0.15,0,0.299,0.012,0.447,0.022l0.148,0.01l1.314,0.085
		l0.597-1.175c2.225-4.372,6.644-7.089,11.532-7.089c6.062,0,11.382,4.298,12.649,10.219l0.318,1.483l1.514,0.094
		c3.708,0.23,6.612,3.319,6.612,7.03c0,3.878-3.144,7.035-7.017,7.057c-0.042-0.003-0.079-0.005-0.117-0.005l-2.047,0.005h-0.819v2
		h2.819v-0.006c0.042,0.001,0.082,0.006,0.124,0.006c5.001,0,9.057-4.054,9.057-9.057
		C-464.411,112.424-468.165,108.502-472.899,108.207z M-500.819,104.59c-0.241-0.016-0.48-0.036-0.725-0.036
		c-2.537,0-4.865,0.876-6.715,2.334c-2.012-1.294-3.487-3.354-3.976-5.776c0.582,0.117,1.178,0.177,1.78,0.177c4.963,0,9-4.037,9-9
		c0-0.603-0.06-1.198-0.177-1.78c3.733,0.753,6.629,3.824,7.133,7.64C-497.209,99.592-499.424,101.847-500.819,104.59z"/>
	<circle cx="-496.411" cy="134.781" r="1.5"/>
	<circle cx="-488.411" cy="140.781" r="1.5"/>
	<circle cx="-480.411" cy="136.781" r="1.5"/>
	<rect x="-497.411" y="118.306" width="2" height="11.976"/>
	<polygon points="-487.411,136.246 -487.411,134.306 -487.411,122.306 -489.411,122.306 -489.411,134.306 -489.411,136.246 
		-489.411,136.281 -487.411,136.281 	"/>
	<polygon points="-479.411,132.059 -479.411,130.306 -479.411,118.306 -481.411,118.306 -481.411,130.306 -481.411,132.059 
		-481.411,132.281 -479.411,132.281 	"/>
</g>
<g>
	<rect x="-621.014" y="212.647" width="56" height="2"/>
	<rect x="-617.014" y="218.647" width="50" height="2"/>
	<rect x="-611.014" y="224.647" width="36" height="2"/>
	<rect x="-619.014" y="206.647" width="52" height="2"/>
	<path d="M-607.14,198.643c0.175,0,0.347,0.014,0.519,0.025l0.149,0.01l1.316,0.088l0.598-1.176
		c2.493-4.899,7.443-7.942,12.92-7.942c6.79,0,12.75,4.814,14.171,11.448l0.318,1.482l1.514,0.095
		c1.207,0.075,2.335,0.425,3.336,0.975h3.286c-1.678-1.703-3.957-2.813-6.498-2.971c-1.596-7.445-8.207-13.029-16.127-13.029
		c-6.423,0-11.977,3.678-14.702,9.035c-0.266-0.018-0.53-0.04-0.8-0.04c-4.843,0-9.004,2.874-10.9,7.005h2.251
		C-614.058,200.661-610.833,198.643-607.14,198.643z"/>
</g>
<g>
	<rect x="-499.911" y="185.133" width="2" height="7.973"/>
	<rect x="-518.911" y="204.047" width="7.973" height="2"/>
	<rect x="-514.238" y="192.78" transform="matrix(0.7071 0.7071 -0.7071 0.7071 -12.4257 417.5588)" width="7.974" height="2"/>
	<rect x="-488.729" y="189.798" transform="matrix(0.7071 0.7071 -0.7071 0.7071 -5.8265 401.6349)" width="2" height="7.972"/>
	<rect x="-509.911" y="219.007" width="50" height="2"/>
	<rect x="-505.911" y="225.007" width="44" height="2"/>
	<rect x="-499.911" y="230.007" width="30" height="2"/>
	<rect x="-507.911" y="213.007" width="46" height="2"/>
	<path d="M-507.003,211.007h0.771h1.927h1.012c1.472-1.087,3.283-1.737,5.249-1.737c0.15,0,0.299,0.012,0.447,0.022l0.148,0.01
		l1.314,0.085l0.597-1.175c2.225-4.372,6.644-7.089,11.532-7.089c5.945,0,11.168,4.139,12.563,9.884h2.043v-0.084
		c-1.444-6.742-7.433-11.8-14.605-11.8c-2.185,0-4.258,0.47-6.126,1.313c-1.667-3.202-5.007-5.394-8.866-5.394
		c-5.522,0-10,4.477-10,9.999C-508.997,207.283-508.249,209.342-507.003,211.007z M-498.997,197.043c3.091,0,5.76,1.773,7.091,4.345
		c-2.298,1.44-4.178,3.488-5.413,5.918c-0.241-0.016-0.48-0.036-0.725-0.036c-2.764,0-5.274,1.045-7.189,2.745
		c-1.097-1.366-1.764-3.089-1.764-4.973C-506.997,200.632-503.408,197.043-498.997,197.043z"/>
</g>
<g>
	<rect x="-411.167" y="215.569" width="50" height="2"/>
	<rect x="-407.167" y="221.569" width="44" height="2"/>
	<rect x="-401.167" y="226.569" width="30" height="2"/>
	<rect x="-409.167" y="209.569" width="46" height="2"/>
	<path d="M-407.524,207.569h0.037h1.884h1.055c1.472-1.087,3.283-1.737,5.249-1.737c0.15,0,0.299,0.012,0.447,0.022l0.148,0.01
		l1.314,0.085l0.597-1.175c2.225-4.372,6.644-7.089,11.532-7.089c5.945,0,11.168,4.139,12.563,9.884h2.043v-0.084
		c-1.444-6.742-7.433-11.8-14.605-11.8c-1.799,0-3.521,0.32-5.117,0.903c-0.945-5.111-5.402-8.987-10.789-8.987
		c-0.413,0-0.819,0.027-1.222,0.071c0.744,1.112,1.179,2.448,1.179,3.886c0,3.865-3.134,7-7,7c-1.438,0-2.773-0.435-3.886-1.179
		c-0.044,0.401-0.071,0.809-0.071,1.222C-412.167,202.306-410.331,205.576-407.524,207.569z M-408.21,200.559c4.963,0,9-4.037,9-9
		c0-0.603-0.06-1.198-0.177-1.78c3.735,0.753,6.633,3.828,7.134,7.647c-2.712,1.443-4.927,3.699-6.322,6.442
		c-0.241-0.016-0.48-0.036-0.725-0.036c-2.534,0-4.855,0.879-6.701,2.335c-2.02-1.293-3.5-3.356-3.989-5.785
		C-409.408,200.499-408.813,200.559-408.21,200.559z"/>
</g>
<g>
	<path d="M-279.275,218.583h-19.474l-0.578-0.003c-5.485-0.027-9.948-4.513-9.948-9.998c0-5.514,4.485-10,9.999-10
		c0.175,0,0.347,0.014,0.519,0.025l0.149,0.01l1.316,0.088l0.598-1.176c2.493-4.899,7.443-7.942,12.92-7.942
		c6.79,0,12.75,4.814,14.171,11.448l0.318,1.482l1.514,0.095c1.822,0.113,3.463,0.845,4.746,1.971h2.732
		c-1.707-2.262-4.348-3.78-7.354-3.967c-1.596-7.445-8.207-13.029-16.127-13.029c-6.423,0-11.977,3.678-14.702,9.035
		c-0.266-0.018-0.53-0.04-0.8-0.04c-6.627,0-11.999,5.372-11.999,12c0,6.607,5.34,11.965,11.938,11.998v0.003h20.062
		c2.205,0,4,1.794,4,4s-1.795,4-4,4v2c3.314,0,6-2.686,6-6C-273.275,221.27-275.961,218.583-279.275,218.583z"/>
	<path d="M-275.275,214.583h-15.988v2h15.988c3.314,0,6-2.687,6-6c0-3.314-2.686-6-6-6v2c2.205,0,4,1.794,4,4
		S-273.07,214.583-275.275,214.583z"/>
	<path d="M-262.275,208.583c1.654,0,3,1.346,3,3s-1.346,3-3,3c-0.043,0-0.083-0.011-0.126-0.013h-4.862
		c0.003,0.005,0.009,0.008,0.012,0.013h-0.023v2h5.5v-0.051c2.523-0.254,4.5-2.358,4.5-4.949c0-2.762-2.238-5-5-5V208.583z"/>
	<path d="M-258.275,218.583h-13v2h9.022c-0.004,0.005-0.008,0.008-0.011,0.013h3.862c0.043-0.002,0.083-0.013,0.126-0.013
		c1.654,0,3,1.346,3,3s-1.346,3-3,3v2c2.762,0,5-2.238,5-5S-255.514,218.583-258.275,218.583z"/>
	<rect x="-297.275" y="214.583" width="4" height="2"/>
</g>
<path d="M-486.837-180.521c6.95,1.305,12.226,7.419,12.226,14.742c0,8.272-6.729,15.002-15,15.002
	c-6.79,0-12.531-4.49-14.366-10.728c1.398,0.461,2.867,0.698,4.366,0.698c7.72,0,14-6.281,14-14.001
	C-485.611-176.791-486.035-178.735-486.837-180.521 M-489.611-182.777c-0.338,0-0.668,0.031-1,0.051c1.861,2.113,3,4.881,3,7.92
	c0,6.627-5.372,12.001-12,12.001c-2.599,0-4.998-0.835-6.963-2.239c0.387,9.047,7.821,16.269,16.963,16.269
	c9.39,0,17-7.612,17-17.002S-480.222-182.777-489.611-182.777L-489.611-182.777z"/>
<g>
	<path d="M-593.007-177.782c-7.18,0-13,5.819-13,12.999c0,7.181,5.82,13.002,13,13.002s13-5.821,13-13.002
		C-580.007-171.963-585.827-177.782-593.007-177.782z M-593.007-153.781c-6.065,0-11-4.936-11-11.002
		c0-6.064,4.935-10.999,11-10.999s11,4.935,11,10.999C-582.007-158.717-586.941-153.781-593.007-153.781z"/>
	<rect x="-594.014" y="-190.776" width="2" height="10"/>
	<rect x="-594.014" y="-148.776" width="2" height="10"/>
	<rect x="-619.007" y="-165.776" width="9.993" height="2"/>
	<rect x="-577.014" y="-165.776" width="10.007" height="2"/>
	<rect x="-579.314" y="-184.69" transform="matrix(0.7071 0.7071 -0.7071 0.7071 -296.2999 356.3595)" width="2" height="10.409"/>
	
		<rect x="-608.723" y="-155.282" transform="matrix(-0.7071 -0.7071 0.7071 -0.7071 -931.3272 -685.9217)" width="2" height="10.41"/>
	<rect x="-612.923" y="-180.481" transform="matrix(0.7071 0.7071 -0.7071 0.7071 -304.9088 377.153)" width="10.409" height="2"/>
	
		<rect x="-583.514" y="-151.072" transform="matrix(-0.7072 -0.7071 0.7071 -0.7072 -881.1536 -665.0951)" width="10.41" height="2"/>
</g>
<g>
	<rect x="-194.841" y="180.085" width="2" height="7.973"/>
	<rect x="-213.813" y="199.071" width="7.973" height="2"/>
	<rect x="-209.088" y="187.853" transform="matrix(0.7071 0.7071 -0.7071 0.7071 73.4663 200.3416)" width="7.974" height="2"/>
	<rect x="-183.579" y="184.871" transform="matrix(0.7071 0.7071 -0.7071 0.7071 80.0655 184.4177)" width="2" height="7.972"/>
	<path d="M-179.813,222.085l0.005-0.007h-12.536l-0.594-0.003c-4.864-0.024-8.822-4.001-8.822-8.865c0-4.89,3.978-8.868,8.867-8.868
		c0.15,0,0.299,0.012,0.447,0.021l0.148,0.011l1.314,0.085l0.597-1.174c2.225-4.373,6.644-7.09,11.532-7.09
		c5.916,0,11.114,4.099,12.54,9.8h2.065c-1.444-6.742-7.433-11.8-14.605-11.8c-2.185,0-4.258,0.47-6.126,1.313
		c-1.667-3.202-5.007-5.394-8.866-5.394c-5.522,0-10,4.477-10,9.999c0,2.46,0.899,4.702,2.373,6.442
		c-1.429,1.84-2.287,4.144-2.287,6.653c0,5.983,4.836,10.836,10.813,10.865v0.003h13.135v0.007c2.205,0,4,1.794,4,4s-1.795,4-4,4v2
		c3.314,0,6-2.686,6-6C-173.813,224.771-176.499,222.085-179.813,222.085z M-193.847,192.115c3.091,0,5.76,1.773,7.091,4.345
		c-2.298,1.439-4.178,3.488-5.413,5.918c-0.241-0.016-0.48-0.036-0.725-0.036c-2.766,0-5.282,1.042-7.2,2.743
		c-1.092-1.367-1.753-3.09-1.753-4.971C-201.847,195.704-198.258,192.115-193.847,192.115z"/>
	<path d="M-175.813,218.085h-9.988v2h9.988c3.314,0,6-2.687,6-6c0-3.314-2.686-6-6-6v2c2.205,0,4,1.794,4,4
		S-173.608,218.085-175.813,218.085z"/>
	<path d="M-167.79,218.085h-0.023v2h5.5v-0.051c2.523-0.254,4.5-2.358,4.5-4.949c0-2.762-2.238-5-5-5v2c1.654,0,3,1.346,3,3
		s-1.346,3-3,3c-0.043,0-0.083-0.011-0.126-0.013h-4.862C-167.799,218.077-167.793,218.081-167.79,218.085z"/>
	<path d="M-158.813,222.085h-13v2h9.022c-0.004,0.004-0.008,0.008-0.011,0.013h3.862c0.043-0.002,0.083-0.013,0.126-0.013
		c1.654,0,3,1.346,3,3s-1.346,3-3,3v2c2.762,0,5-2.238,5-5S-156.052,222.085-158.813,222.085z"/>
	<rect x="-191.813" y="218.085" width="4" height="2"/>
</g>
<g>
	<path d="M-79.852,220.079l0.005-0.007h-12.536l-0.594-0.003c-4.864-0.024-8.822-4.001-8.822-8.865c0-4.89,3.978-8.868,8.867-8.868
		c0.15,0,0.299,0.012,0.447,0.021l0.148,0.011l1.314,0.085l0.597-1.174c2.225-4.373,6.644-7.09,11.532-7.09
		c5.916,0,11.114,4.099,12.54,9.8h2.065c-1.444-6.742-7.433-11.8-14.605-11.8c-1.806,0-3.536,0.322-5.138,0.91
		c-0.938-5.123-5.4-9.01-10.794-9.01c-0.413,0-0.819,0.027-1.222,0.071c0.744,1.112,1.179,2.448,1.179,3.886c0,3.865-3.134,7-7,7
		c-1.438,0-2.773-0.435-3.886-1.179c-0.044,0.401-0.071,0.809-0.071,1.222c0,3.725,1.858,7.009,4.69,8.998
		c-1.655,1.907-2.665,4.392-2.665,7.116c0,5.983,4.836,10.836,10.813,10.865v0.003h13.135v0.007c2.205,0,4,1.794,4,4s-1.795,4-4,4v2
		c3.314,0,6-2.686,6-6C-73.852,222.766-76.537,220.079-79.852,220.079z M-103.647,196.87c0.582,0.117,1.178,0.177,1.78,0.177
		c4.963,0,9-4.037,9-9c0-0.603-0.06-1.198-0.177-1.78c3.744,0.755,6.646,3.842,7.138,7.674c-2.702,1.444-4.909,3.696-6.301,6.432
		c-0.241-0.016-0.48-0.036-0.725-0.036c-2.535,0-4.861,0.875-6.71,2.33C-101.67,201.374-103.156,199.306-103.647,196.87z"/>
	<path d="M-75.852,216.079h-9.988v2h9.988c3.314,0,6-2.687,6-6c0-3.314-2.686-6-6-6v2c2.205,0,4,1.794,4,4
		S-73.646,216.079-75.852,216.079z"/>
	<path d="M-67.828,216.079h-0.023v2h5.5v-0.051c2.523-0.254,4.5-2.358,4.5-4.949c0-2.762-2.238-5-5-5v2c1.654,0,3,1.346,3,3
		s-1.346,3-3,3c-0.043,0-0.083-0.011-0.126-0.013h-4.862C-67.837,216.071-67.831,216.075-67.828,216.079z"/>
	<path d="M-58.852,220.079h-13v2h9.022c-0.004,0.004-0.008,0.008-0.011,0.013h3.862c0.043-0.002,0.083-0.013,0.126-0.013
		c1.654,0,3,1.346,3,3s-1.346,3-3,3v2c2.762,0,5-2.238,5-5S-56.09,220.079-58.852,220.079z"/>
	<rect x="-91.852" y="216.079" width="4" height="2"/>
</g>
<g>
	<rect x="21.041" y="182.647" width="2" height="10"/>
	<rect x="-3.952" y="207.647" width="9.993" height="2"/>
	<rect x="35.741" y="188.733" transform="matrix(0.7071 0.7071 -0.7071 0.7071 147.896 30.8235)" width="2" height="10.409"/>
	<rect x="2.132" y="192.943" transform="matrix(0.7071 0.7071 -0.7071 0.7071 139.2871 51.6169)" width="10.409" height="2"/>
	<path d="M26.041,222.647h-24v2h24c2.205,0,4,1.794,4,4s-1.795,4-4,4v2c3.314,0,6-2.686,6-6
		C32.041,225.334,29.355,222.647,26.041,222.647z"/>
	<path d="M38.064,218.647h-0.023v2h5.5v-0.051c2.523-0.254,4.5-2.358,4.5-4.949c0-2.762-2.238-5-5-5v2c1.654,0,3,1.346,3,3
		s-1.346,3-3,3c-0.043,0-0.083-0.011-0.126-0.013h-4.862C38.056,218.64,38.062,218.644,38.064,218.647z"/>
	<path d="M47.041,222.647h-13v2h9.022c-0.004,0.004-0.008,0.008-0.011,0.013h3.862c0.043-0.002,0.083-0.013,0.126-0.013
		c1.654,0,3,1.346,3,3s-1.346,3-3,3v2c2.762,0,5-2.238,5-5S49.803,222.647,47.041,222.647z"/>
	<path d="M13.75,218.647H2.041v2h12.012h0.822h15.166c3.314,0,6-2.687,6-6c0-3.314-2.686-6-6-6v2c2.205,0,4,1.794,4,4s-1.795,4-4,4
		H17.503c-3.802-1.734-6.455-5.563-6.455-10.007c0-6.064,4.935-10.999,11-10.999c5.384,0,9.868,3.891,10.81,9.006h2.021
		c-0.961-6.23-6.331-11.006-12.831-11.006c-7.18,0-13,5.819-13,12.999C9.048,212.666,10.878,216.263,13.75,218.647z"/>
</g>
<g>
	<path d="M126.268,216.091h-24v2h24c2.205,0,4,1.794,4,4s-1.795,4-4,4v2c3.314,0,6-2.686,6-6
		C132.268,218.777,129.582,216.091,126.268,216.091z"/>
	<path d="M143.768,214.091v-0.051c2.523-0.254,4.5-2.358,4.5-4.949c0-2.762-2.238-5-5-5v2c1.654,0,3,1.346,3,3s-1.346,3-3,3
		c-0.043,0-0.083-0.011-0.126-0.013h-4.862c0.004,0.005,0.009,0.009,0.012,0.013h-0.023v2H143.768z"/>
	<path d="M147.268,216.091h-13v2h9.022c-0.003,0.004-0.007,0.008-0.011,0.013h3.862c0.043-0.002,0.083-0.013,0.126-0.013
		c1.654,0,3,1.346,3,3s-1.346,3-3,3v2c2.762,0,5-2.238,5-5S150.029,216.091,147.268,216.091z"/>
	<path d="M115.102,214.091h15.166c3.314,0,6-2.687,6-6c0-3.314-2.686-6-6-6v2c2.205,0,4,1.794,4,4s-1.795,4-4,4h-12.586
		c-2.596-1.188-4.658-3.339-5.69-6.034c0.849,0.204,1.724,0.309,2.612,0.309c6.168,0,11.187-5.019,11.187-11.188
		c0-1.276-0.22-2.532-0.64-3.717c4.046,1.102,7.168,4.459,7.937,8.63h2.018c-0.964-6.237-6.338-11.016-12.846-11.016
		c-0.259,0-0.511,0.024-0.766,0.039c1.425,1.618,2.297,3.737,2.297,6.063c0,5.072-4.112,9.188-9.187,9.188
		c-1.988,0-3.826-0.641-5.33-1.715c0.162,3.801,1.962,7.165,4.699,9.44h-11.705v2h12.012H115.102z"/>
</g>
<g>
	<path d="M-593.514,301.284h-20c-1.103,0-2-0.897-2-2s0.897-2,2-2h3.445h0.555v-2h-4c-2.209,0-4,1.791-4,4s1.791,4,4,4h20
		c2.205,0,4,1.794,4,4s-1.795,4-4,4v2c3.314,0,6-2.686,6-6C-587.514,303.971-590.199,301.284-593.514,301.284z"/>
	<path d="M-591.514,285.284v2c2.205,0,4,1.794,4,4s-1.795,4-4,4h-15.988v2h15.988c3.314,0,6-2.687,6-6
		C-585.514,287.97-588.199,285.284-591.514,285.284z"/>
	<path d="M-585.514,297.284v2h5.5v-0.051c2.523-0.254,4.5-2.358,4.5-4.949c0-2.762-2.238-5-5-5v2c1.654,0,3,1.346,3,3s-1.346,3-3,3
		c-0.043,0-0.083-0.011-0.126-0.013h-4.862c0.003,0.005,0.009,0.009,0.012,0.013H-585.514z"/>
	<path d="M-574.514,301.284h-11v2h7.022c-0.004,0.004-0.008,0.008-0.011,0.013h3.862c0.043-0.002,0.083-0.013,0.126-0.013
		c1.654,0,3,1.346,3,3s-1.346,3-3,3v2c2.762,0,5-2.238,5-5S-571.752,301.284-574.514,301.284z"/>
</g>
<path d="M-57.222,287.631v-0.038h-38.376c-1.103,0-2-0.897-2-2s0.897-2,2-2h33c2.762,0,5-2.238,5-5s-2.238-5-5-5h-37.875v0.008
	c-0.042-0.001-0.083-0.008-0.125-0.008c-2.762,0-5,2.238-5,5s2.238,5,5,5v-2c-1.654,0-3-1.346-3-3s1.346-3,3-3h0.125h3.853h34.022
	c1.654,0,3,1.346,3,3s-1.346,3-3,3h-33c-2.209,0-4,1.791-4,4s1.791,4,4,4h38c1.103,0,2,0.897,2,2s-0.897,2-2,2h-32
	c-2.209,0-4,1.791-4,4s1.791,4,4,4h22c1.103,0,2,0.897,2,2s-0.897,2-2,2h-24.01v0.001c-2.204,0.006-3.99,1.793-3.99,3.999
	s1.786,3.993,3.99,3.999v0.001h12.01c1.103,0,2,0.897,2,2s-0.897,2-2,2h-2c-2.209,0-4,1.791-4,4s1.791,4,4,4v-2
	c-1.103,0-2-0.897-2-2s0.897-2,2-2h2c2.209,0,4-1.791,4-4s-1.791-4-4-4h-12c-1.103,0-2-0.897-2-2s0.897-2,2-2h24
	c2.209,0,4-1.791,4-4c0-2.152-1.704-3.895-3.834-3.983v-0.017h-22.166c-1.103,0-2-0.897-2-2s0.897-2,2-2h32c2.209,0,4-1.791,4-4
	C-53.598,289.513-55.191,287.823-57.222,287.631z"/>
<path d="M128.193,278.309v-2.024h-2v2.024c-13.01,0.513-23.462,10.965-23.975,23.976h1.674c1.14-1.222,2.748-2,4.551-2
	c2.26,0,4.233,1.203,5.331,3h1.838c1.098-1.797,3.071-3,5.331-3c2.204,0,4.137,1.144,5.25,2.866v15.134c0,2.21,1.791,4,4,4
	s4-1.79,4-4h-2c0,1.103-0.897,2-2,2s-2-0.897-2-2V303.15c1.113-1.723,3.046-2.866,5.25-2.866c2.26,0,4.233,1.203,5.331,3h1.838
	c1.098-1.797,3.071-3,5.331-3c1.803,0,3.411,0.778,4.551,2h1.674C151.655,289.273,141.203,278.821,128.193,278.309z
	 M145.943,298.284c-2.496,0-4.736,1.114-6.25,2.87c-1.514-1.756-3.754-2.87-6.25-2.87s-4.736,1.114-6.25,2.87
	c-1.514-1.756-3.754-2.87-6.25-2.87s-4.736,1.114-6.25,2.87c-1.514-1.756-3.755-2.87-6.25-2.87c-1.402,0-2.731,0.351-3.897,0.975
	c1.909-10.769,11.339-18.975,22.647-18.975s20.738,8.206,22.647,18.975C148.675,298.635,147.346,298.284,145.943,298.284z"/>
<g>
	<path d="M-277.102,402.597v-17.105c0-2.762-2.238-5-5-5s-5,2.238-5,5v17.105c-1.236,1.263-2,2.988-2,4.895c0,3.866,3.134,7,7,7
		s7-3.134,7-7C-275.102,405.585-275.865,403.859-277.102,402.597z M-282.102,412.491c-2.757,0-5-2.243-5-5
		c0-1.313,0.508-2.554,1.429-3.495l0.571-0.583v-0.816v-17.105c0-1.654,1.346-3,3-3s3,1.346,3,3v17.105v0.816l0.571,0.583
		c0.921,0.941,1.429,2.183,1.429,3.495C-277.102,410.248-279.345,412.491-282.102,412.491z"/>
	<path d="M-281.102,404.667v-15.176h-2v15.176c-1.167,0.413-2.008,1.516-2.008,2.824c0,1.662,1.347,3.008,3.008,3.008
		c1.662,0,3.008-1.346,3.008-3.008C-279.094,406.183-279.934,405.08-281.102,404.667z M-282.102,408.499
		c-0.556,0-1.008-0.452-1.008-1.008s0.452-1.008,1.008-1.008s1.008,0.452,1.008,1.008S-281.546,408.499-282.102,408.499z"/>
</g>
<g>
	<path d="M-177.313,402.597v-17.105c0-2.762-2.238-5-5-5s-5,2.238-5,5v17.105c-1.236,1.263-2,2.988-2,4.895c0,3.866,3.134,7,7,7
		s7-3.134,7-7C-175.313,405.585-176.077,403.859-177.313,402.597z M-182.313,412.491c-2.757,0-5-2.243-5-5
		c0-1.313,0.508-2.554,1.429-3.495l0.571-0.583v-0.816v-17.105c0-1.654,1.346-3,3-3s3,1.346,3,3v17.105v0.816l0.571,0.583
		c0.921,0.941,1.429,2.183,1.429,3.495C-177.313,410.248-179.557,412.491-182.313,412.491z"/>
	<path d="M-181.313,404.667v-20.176h-2v20.176c-1.167,0.413-2.008,1.516-2.008,2.824c0,1.662,1.347,3.008,3.008,3.008
		c1.662,0,3.008-1.346,3.008-3.008C-179.306,406.183-180.146,405.08-181.313,404.667z M-182.313,408.499
		c-0.556,0-1.008-0.452-1.008-1.008s0.452-1.008,1.008-1.008s1.008,0.452,1.008,1.008S-181.758,408.499-182.313,408.499z"/>
</g>
<g>
	<path d="M-380.211,402.597v-17.105c0-2.762-2.238-5-5-5s-5,2.238-5,5v17.105c-1.236,1.263-2,2.988-2,4.895c0,3.866,3.134,7,7,7
		s7-3.134,7-7C-378.211,405.585-378.975,403.859-380.211,402.597z M-385.211,412.491c-2.757,0-5-2.243-5-5
		c0-1.313,0.508-2.554,1.429-3.495l0.571-0.583v-0.816v-17.105c0-1.654,1.346-3,3-3s3,1.346,3,3v17.105v0.816l0.571,0.583
		c0.921,0.941,1.429,2.183,1.429,3.495C-380.211,410.248-382.454,412.491-385.211,412.491z"/>
	<path d="M-384.211,404.667v-10.176h-2v10.176c-1.167,0.413-2.008,1.516-2.008,2.824c0,1.662,1.347,3.008,3.008,3.008
		c1.662,0,3.008-1.346,3.008-3.008C-382.203,406.183-383.043,405.08-384.211,404.667z M-385.211,408.499
		c-0.556,0-1.008-0.452-1.008-1.008s0.452-1.008,1.008-1.008s1.008,0.452,1.008,1.008S-384.655,408.499-385.211,408.499z"/>
</g>
<g>
	<path d="M-483.856,402.597v-17.105c0-2.762-2.238-5-5-5s-5,2.238-5,5v17.105c-1.236,1.263-2,2.988-2,4.895c0,3.866,3.134,7,7,7
		s7-3.134,7-7C-481.856,405.585-482.62,403.859-483.856,402.597z M-488.856,412.491c-2.757,0-5-2.243-5-5
		c0-1.313,0.508-2.554,1.429-3.495l0.571-0.583v-0.816v-17.105c0-1.654,1.346-3,3-3s3,1.346,3,3v17.105v0.816l0.571,0.583
		c0.921,0.941,1.429,2.183,1.429,3.495C-483.856,410.248-486.1,412.491-488.856,412.491z"/>
	<path d="M-487.856,404.667v-5.176h-2v5.176c-1.167,0.413-2.008,1.516-2.008,2.824c0,1.662,1.347,3.008,3.008,3.008
		c1.662,0,3.008-1.346,3.008-3.008C-485.849,406.183-486.688,405.08-487.856,404.667z M-488.856,408.499
		c-0.556,0-1.008-0.452-1.008-1.008s0.452-1.008,1.008-1.008s1.008,0.452,1.008,1.008S-488.301,408.499-488.856,408.499z"/>
</g>
<g>
	<path d="M-588.514,402.597v-17.105c0-2.762-2.238-5-5-5s-5,2.238-5,5v17.105c-1.236,1.263-2,2.988-2,4.895c0,3.866,3.134,7,7,7
		s7-3.134,7-7C-586.514,405.585-587.277,403.859-588.514,402.597z M-593.514,412.491c-2.757,0-5-2.243-5-5
		c0-1.313,0.508-2.554,1.429-3.495l0.571-0.583v-0.816v-17.105c0-1.654,1.346-3,3-3s3,1.346,3,3v17.105v0.816l0.571,0.583
		c0.921,0.941,1.429,2.183,1.429,3.495C-588.514,410.248-590.757,412.491-593.514,412.491z"/>
	<path d="M-593.514,404.483c-1.661,0-3.008,1.347-3.008,3.008c0,1.662,1.347,3.008,3.008,3.008c1.662,0,3.008-1.346,3.008-3.008
		C-590.506,405.83-591.852,404.483-593.514,404.483z M-593.514,408.499c-0.556,0-1.008-0.452-1.008-1.008s0.452-1.008,1.008-1.008
		s1.008,0.452,1.008,1.008S-592.958,408.499-593.514,408.499z"/>
</g>
<g>
	<path d="M-88.589,382.804c-2.209,0-4,1.791-4,4c0,2.21,1.791,4,4,4c2.211,0,4-1.79,4-4
		C-84.589,384.595-86.378,382.804-88.589,382.804z M-88.589,388.804c-1.103,0-2-0.897-2-2s0.897-2,2-2s2,0.897,2,2
		S-87.486,388.804-88.589,388.804z"/>
	<path d="M-74.589,410.804c-4.41,0-7.999-3.589-7.999-7.999v-4.002c0-4.41,3.589-7.999,7.999-7.999c2.715,0,5.115,1.362,6.563,3.437
		l1.43-1.43c-1.824-2.429-4.72-4.007-7.992-4.007c-5.522,0-9.999,4.478-9.999,9.999v4.002c0,5.521,4.477,9.999,9.999,9.999
		c3.272,0,6.168-1.579,7.992-4.008l-1.43-1.43C-69.473,409.44-71.873,410.804-74.589,410.804z"/>
</g>
<g>
	<path d="M16.107,382.683c-2.209,0-4,1.791-4,4c0,2.21,1.791,4,4,4c2.211,0,4-1.79,4-4
		C20.107,384.474,18.318,382.683,16.107,382.683z M16.107,388.683c-1.103,0-2-0.897-2-2s0.897-2,2-2s2,0.897,2,2
		S17.21,388.683,16.107,388.683z"/>
	<polygon points="35.982,390.804 35.982,388.804 23.982,388.804 21.982,388.804 21.982,412.804 23.982,412.804 23.982,400.804 
		31.982,400.804 31.982,398.804 23.982,398.804 23.982,390.804 	"/>
</g>
<g>
	<path d="M127.193,386.495c-7.179,0-13,5.82-13,13s5.821,13,13,13s13-5.82,13-13S134.372,386.495,127.193,386.495z M127.193,410.495
		c-6.065,0-11-4.935-11-11s4.935-11,11-11s11,4.935,11,11S133.259,410.495,127.193,410.495z"/>
	<path d="M122.927,403.737l6.363-2.121l2.121-6.364l-6.363,2.122L122.927,403.737z M126.629,398.955l1.62-0.54l-0.54,1.62
		l-1.62,0.54L126.629,398.955z"/>
</g>
<g>
	<path d="M-593.514,477.013c-7.179,0-13,5.82-13,13s5.821,13,13,13s13-5.82,13-13S-586.335,477.013-593.514,477.013z
		 M-593.514,501.013c-6.065,0-11-4.934-11-11c0-6.064,4.935-11,11-11s11,4.936,11,11
		C-582.514,496.079-587.448,501.013-593.514,501.013z"/>
	<path d="M-590.952,488.435l-2.586-4.422l-2.529,4.33h0.007c-0.299,0.467-0.478,1.018-0.478,1.613c0,1.656,1.343,3,3,3s3-1.344,3-3
		c0-0.559-0.162-1.074-0.428-1.521H-590.952z M-593.538,490.956c-0.552,0-1-0.449-1-1c0-0.188,0.055-0.367,0.162-0.535l0.864-1.355
		l0.826,1.391c0.098,0.164,0.147,0.332,0.147,0.5C-592.538,490.507-592.986,490.956-593.538,490.956z"/>
</g>
<g>
	<path d="M-488.729,477.013c-7.18,0-13,5.82-13,13s5.82,13,13,13s13-5.82,13-13S-481.55,477.013-488.729,477.013z M-488.729,501.013
		c-6.065,0-11-4.934-11-11c0-6.064,4.935-11,11-11s11,4.936,11,11C-477.729,496.079-482.664,501.013-488.729,501.013z"/>
	<path d="M-487.141,487.433c-0.467-0.299-1.018-0.477-1.613-0.477c-1.658,0-3,1.342-3,3c0,1.656,1.342,3,3,3
		c0.557,0,1.072-0.162,1.52-0.428v0.014l4.422-2.586l-4.328-2.529V487.433z M-488.256,490.808c-0.164,0.098-0.332,0.148-0.498,0.148
		c-0.552,0-1-0.449-1-1c0-0.553,0.448-1,1-1c0.188,0,0.368,0.053,0.535,0.16l1.355,0.865L-488.256,490.808z"/>
</g>
<g>
	<path d="M-385.679,477.013c-7.18,0-13,5.82-13,13s5.82,13,13,13s13-5.82,13-13S-378.499,477.013-385.679,477.013z
		 M-385.679,501.013c-6.065,0-11-4.934-11-11c0-6.064,4.935-11,11-11s11,4.936,11,11
		C-374.679,496.079-379.613,501.013-385.679,501.013z"/>
	<path d="M-385.679,486.956c-1.656,0-3,1.342-3,3c0,0.557,0.162,1.072,0.428,1.52h-0.014l2.586,4.422l2.529-4.328h-0.006
		c0.299-0.467,0.477-1.018,0.477-1.613C-382.679,488.298-384.021,486.956-385.679,486.956z M-384.84,490.491l-0.865,1.355
		l-0.826-1.393c-0.098-0.164-0.147-0.332-0.147-0.498c0-0.553,0.448-1,1-1s1,0.447,1,1
		C-384.679,490.144-384.732,490.323-384.84,490.491z"/>
</g>
<g>
	<path d="M-282.265,477.013c-7.179,0-13,5.82-13,13s5.821,13,13,13s13-5.82,13-13S-275.086,477.013-282.265,477.013z
		 M-282.265,501.013c-6.065,0-11-4.934-11-11c0-6.064,4.935-11,11-11s11,4.936,11,11
		C-271.265,496.079-276.199,501.013-282.265,501.013z"/>
	<path d="M-282.306,486.956c-0.557,0-1.072,0.162-1.52,0.428v-0.014l-4.422,2.586l4.328,2.529v-0.006
		c0.467,0.299,1.018,0.477,1.613,0.477c1.658,0,3-1.342,3-3C-279.306,488.3-280.647,486.956-282.306,486.956z M-282.306,490.956
		c-0.188,0-0.368-0.055-0.535-0.162l-1.355-0.865l1.393-0.826c0.164-0.098,0.332-0.146,0.498-0.146c0.552,0,1,0.447,1,1
		C-281.306,490.507-281.754,490.956-282.306,490.956z"/>
</g>
<g>
	<rect x="-490.416" y="280.284" width="2" height="10"/>
	<rect x="-475.716" y="286.37" transform="matrix(0.7071 0.7071 -0.7071 0.7071 67.1332 421.0754)" width="2" height="10.409"/>
	<rect x="-509.325" y="290.58" transform="matrix(0.7071 0.7071 -0.7071 0.7071 58.5244 441.8688)" width="10.409" height="2"/>
	<polygon points="-496.084,309.538 -494.67,310.952 -490.416,306.698 -490.416,316.284 -488.416,316.284 -488.416,306.698 
		-484.163,310.952 -482.749,309.538 -489.416,302.87 	"/>
	<path d="M-476.409,306.283c0-0.002,0-0.004,0-0.006c0-7.18-5.82-12.999-13-12.999s-13,5.819-13,12.999c0,0.002,0,0.004,0,0.006h-13
		v2h18v-2h-3c0-0.002,0-0.004,0-0.006c0-6.064,4.935-10.999,11-10.999s11,4.935,11,10.999c0,0.002,0,0.004,0,0.006h-3v2h17.995v-2
		H-476.409z"/>
</g>
<g>
	<rect x="-386.671" y="279.097" width="2" height="10"/>
	<rect x="-371.971" y="285.183" transform="matrix(0.7071 0.7071 -0.7071 0.7071 96.6798 347.3687)" width="2" height="10.409"/>
	<rect x="-405.58" y="289.392" transform="matrix(0.7071 0.7071 -0.7071 0.7071 88.0709 368.1621)" width="10.409" height="2"/>
	<polygon points="-384.671,313.644 -384.671,303.097 -386.671,303.097 -386.671,313.644 -390.925,309.39 -392.339,310.804 
		-385.671,317.472 -379.004,310.804 -380.418,309.39 	"/>
	<path d="M-372.664,305.096c0-0.002,0-0.004,0-0.006c0-7.18-5.82-12.999-13-12.999s-13,5.819-13,12.999c0,0.002,0,0.004,0,0.006h-13
		v2h22v-2h-7c0-0.002,0-0.004,0-0.006c0-6.064,4.935-10.999,11-10.999s11,4.935,11,10.999c0,0.002,0,0.004,0,0.006h-7v2h21.995v-2
		H-372.664z"/>
</g>
<g>
	<polygon points="-182.313,313.109 -182.313,298.727 -184.313,298.727 -184.313,313.109 -188.567,308.855 -189.981,310.27 
		-183.313,316.938 -176.646,310.27 -178.061,308.855 	"/>
	<path d="M-166.686,293.756c-1.596-7.445-8.207-13.029-16.127-13.029c-6.423,0-11.977,3.678-14.702,9.035
		c-0.266-0.018-0.53-0.04-0.8-0.04c-6.627,0-11.999,5.372-11.999,12c0,6.607,5.34,11.965,11.938,11.998v0.003h6.062v-2h-5.604
		l-0.447-0.003c-5.485-0.027-9.948-4.513-9.948-9.998c0-5.514,4.485-10,9.999-10c0.175,0,0.347,0.014,0.52,0.025l0.148,0.01
		l1.316,0.088l0.598-1.176c2.492-4.899,7.443-7.942,12.92-7.942c6.79,0,12.75,4.814,14.172,11.448l0.317,1.482l1.514,0.095
		c4.203,0.262,7.496,3.763,7.496,7.971c0,4.397-3.565,7.977-7.957,8c-0.05-0.003-0.093-0.005-0.137-0.007l-2.043,0.007h-4.863v2
		h6.863v-0.007c0.046,0.001,0.091,0.007,0.137,0.007c5.521,0,10-4.477,10-10C-157.313,298.412-161.458,294.081-166.686,293.756z"/>
</g>
<g>
	<polygon points="-276.329,309.914 -274.915,308.5 -281.582,301.832 -288.25,308.5 -286.836,309.914 -282.582,305.66 
		-282.582,318.246 -280.582,318.246 -280.582,305.66 	"/>
	<path d="M-264.954,295.352c-1.596-7.445-8.207-13.029-16.127-13.029c-6.423,0-11.977,3.678-14.702,9.035
		c-0.266-0.018-0.53-0.04-0.8-0.04c-6.627,0-11.999,5.372-11.999,12c0,6.607,5.34,11.965,11.938,11.998v0.003h10.062v-2h-9.604
		l-0.447-0.003c-5.485-0.027-9.948-4.513-9.948-9.998c0-5.514,4.485-10,9.999-10c0.175,0,0.347,0.014,0.52,0.025l0.148,0.01
		l1.316,0.088l0.598-1.176c2.492-4.899,7.443-7.942,12.92-7.942c6.79,0,12.75,4.814,14.172,11.448l0.317,1.482l1.514,0.095
		c4.203,0.262,7.496,3.763,7.496,7.971c0,4.397-3.565,7.977-7.957,8c-0.05-0.003-0.093-0.005-0.137-0.007l-2.043,0.007h-8.863v2
		h10.863v-0.007c0.046,0.001,0.091,0.007,0.137,0.007c5.521,0,10-4.477,10-10C-255.582,300.008-259.727,295.677-264.954,295.352z"/>
</g>
<g>
	<path d="M-62.465,105.836c-1.596-7.445-8.207-13.029-16.127-13.029c-6.423,0-11.977,3.678-14.702,9.035
		c-0.266-0.018-0.53-0.04-0.8-0.04c-6.627,0-11.999,5.372-11.999,12c0,6.607,5.34,11.965,11.938,11.998v0.003h2.062v-2h-1.604
		l-0.447-0.003c-5.485-0.027-9.948-4.513-9.948-9.998c0-5.514,4.485-10,9.999-10c0.175,0,0.347,0.014,0.52,0.025l0.148,0.01
		l1.316,0.088l0.598-1.176c2.492-4.899,7.443-7.942,12.92-7.942c6.79,0,12.75,4.814,14.172,11.448l0.317,1.482l1.514,0.095
		c4.203,0.262,7.496,3.763,7.496,7.971c0,4.397-3.565,7.977-7.957,8c-0.05-0.003-0.093-0.005-0.137-0.007l-2.043,0.007h-0.863v2
		h2.863v-0.007c0.046,0.001,0.091,0.007,0.137,0.007c5.521,0,10-4.477,10-10C-53.093,110.492-57.237,106.161-62.465,105.836z"/>
	<polygon points="-84.093,124.824 -84.093,122.194 -81.92,123.417 -81.234,122.196 -83.704,120.807 -81.234,119.417 -81.92,118.196 
		-84.093,119.419 -84.093,116.824 -86.093,116.824 -86.093,119.463 -88.344,118.196 -89.029,119.417 -86.56,120.807 
		-89.029,122.196 -88.344,123.417 -86.093,122.15 -86.093,124.824 	"/>
	<polygon points="-78.931,129.179 -81.104,130.401 -81.104,127.807 -83.104,127.807 -83.104,130.445 -85.354,129.179 
		-86.04,130.399 -83.57,131.789 -86.04,133.179 -85.354,134.399 -83.104,133.133 -83.104,135.807 -81.104,135.807 -81.104,133.177 
		-78.931,134.399 -78.245,133.179 -80.715,131.789 -78.245,130.399 	"/>
	<polygon points="-69.915,122.196 -72.088,123.419 -72.088,120.824 -74.088,120.824 -74.088,123.463 -76.339,122.196 
		-77.024,123.417 -74.555,124.807 -77.024,126.196 -76.339,127.417 -74.088,126.15 -74.088,128.824 -72.088,128.824 
		-72.088,126.194 -69.915,127.417 -69.229,126.196 -71.699,124.807 -69.229,123.417 	"/>
</g>
<g>
	<rect x="13.047" y="87.784" width="2" height="7.973"/>
	<rect x="-5.953" y="106.698" width="7.973" height="2"/>
	<rect x="-1.28" y="95.432" transform="matrix(0.7071 0.7071 -0.7071 0.7071 68.9803 26.33)" width="7.974" height="2"/>
	<rect x="24.229" y="92.45" transform="matrix(0.7071 0.7071 -0.7071 0.7071 75.5795 10.4061)" width="2" height="7.972"/>
	<path d="M43.559,113.574c-1.444-6.742-7.433-11.8-14.605-11.8c-2.185,0-4.258,0.471-6.127,1.314
		c-1.666-3.203-5.006-5.395-8.865-5.395c-5.522,0-10,4.477-10,9.999c0,2.46,0.899,4.702,2.373,6.442
		c-1.428,1.84-2.287,4.144-2.287,6.653c0,5.983,4.836,10.836,10.813,10.865v0.003h1.188v-2h-0.721l-0.457-0.003
		c-4.864-0.023-8.822-4.001-8.822-8.865c0-4.89,3.978-8.868,8.867-8.868c0.15,0,0.299,0.012,0.447,0.022l0.148,0.01l1.314,0.085
		l0.597-1.175c2.225-4.372,6.644-7.089,11.532-7.089c6.062,0,11.382,4.298,12.649,10.219l0.318,1.483l1.514,0.094
		c3.708,0.23,6.612,3.319,6.612,7.03c0,3.878-3.144,7.035-7.017,7.057c-0.042-0.003-0.079-0.005-0.117-0.005l-1.866,0.005v2h1.819
		v-0.006c0.042,0.001,0.082,0.006,0.124,0.006c5.001,0,9.057-4.054,9.057-9.057C52.047,117.791,48.293,113.869,43.559,113.574z
		 M15.639,109.957c-0.241-0.016-0.48-0.036-0.725-0.036c-2.766,0-5.282,1.041-7.2,2.742c-1.092-1.365-1.753-3.089-1.753-4.97
		c0-4.41,3.589-7.999,8-7.999c3.092,0,5.76,1.773,7.091,4.346C18.754,105.479,16.875,107.527,15.639,109.957z"/>
	<polygon points="23.039,130.677 23.039,128.047 25.212,129.27 25.897,128.049 23.428,126.659 25.897,125.27 25.212,124.049 
		23.039,125.271 23.039,122.677 21.039,122.677 21.039,125.315 18.788,124.049 18.103,125.27 20.572,126.659 18.103,128.049 
		18.788,129.27 21.039,128.003 21.039,130.677 	"/>
	<polygon points="28.201,135.031 26.028,136.254 26.028,133.659 24.028,133.659 24.028,136.298 21.777,135.031 21.092,136.252 
		23.562,137.642 21.092,139.031 21.777,140.252 24.028,138.985 24.028,141.659 26.028,141.659 26.028,139.029 28.201,140.252 
		28.887,139.031 26.417,137.642 28.887,136.252 	"/>
	<polygon points="37.217,128.049 35.044,129.271 35.044,126.677 33.044,126.677 33.044,129.315 30.793,128.049 30.107,129.27 
		32.577,130.659 30.107,132.049 30.793,133.27 33.044,132.003 33.044,134.677 35.044,134.677 35.044,132.047 37.217,133.27 
		37.902,132.049 35.433,130.659 37.902,129.27 	"/>
</g>
<g>
	<path d="M143.747,110.571c-1.444-6.742-7.433-11.8-14.605-11.8c-1.799,0-3.522,0.32-5.118,0.904
		c-0.949-5.108-5.404-8.98-10.788-8.98c-0.413,0-0.819,0.027-1.222,0.071c0.744,1.112,1.179,2.448,1.179,3.886c0,3.865-3.134,7-7,7
		c-1.438,0-2.773-0.435-3.886-1.179c-0.044,0.401-0.071,0.809-0.071,1.222c0,3.713,1.845,6.987,4.661,8.979
		c-1.653,1.907-2.661,4.389-2.661,7.111c0,5.983,4.836,10.836,10.813,10.865v0.003h1.188v-2h-0.721l-0.457-0.003
		c-4.864-0.023-8.822-4.001-8.822-8.865c0-4.89,3.978-8.868,8.867-8.868c0.15,0,0.299,0.012,0.447,0.022l0.148,0.01l1.314,0.085
		l0.597-1.175c2.225-4.372,6.644-7.089,11.532-7.089c6.062,0,11.382,4.298,12.649,10.219l0.318,1.483l1.514,0.094
		c3.708,0.23,6.612,3.319,6.612,7.03c0,3.878-3.144,7.035-7.017,7.057c-0.042-0.003-0.079-0.005-0.117-0.005l-1.866,0.005v2h1.819
		v-0.006c0.042,0.001,0.082,0.006,0.124,0.006c5.001,0,9.057-4.054,9.057-9.057C152.235,114.788,148.481,110.866,143.747,110.571z
		 M115.827,106.954c-0.241-0.016-0.48-0.036-0.725-0.036c-2.537,0-4.865,0.877-6.715,2.334c-2.012-1.294-3.486-3.354-3.976-5.776
		c0.582,0.117,1.178,0.177,1.78,0.177c4.963,0,9-4.037,9-9c0-0.603-0.06-1.198-0.177-1.78c3.733,0.753,6.629,3.824,7.134,7.64
		C119.437,101.956,117.222,104.211,115.827,106.954z"/>
	<polygon points="123.272,127.674 123.272,125.044 125.445,126.267 126.131,125.046 123.661,123.656 126.131,122.267 
		125.445,121.046 123.272,122.269 123.272,119.674 121.272,119.674 121.272,122.313 119.021,121.046 118.336,122.267 
		120.806,123.656 118.336,125.046 119.021,126.267 121.272,125 121.272,127.674 	"/>
	<polygon points="128.435,132.028 126.262,133.251 126.262,130.656 124.262,130.656 124.262,133.295 122.011,132.028 
		121.325,133.249 123.795,134.639 121.325,136.028 122.011,137.249 124.262,135.982 124.262,138.656 126.262,138.656 
		126.262,136.026 128.435,137.249 129.12,136.028 126.65,134.639 129.12,133.249 	"/>
	<polygon points="137.45,125.046 135.277,126.269 135.277,123.674 133.277,123.674 133.277,126.313 131.026,125.046 
		130.341,126.267 132.811,127.656 130.341,129.046 131.026,130.267 133.277,129 133.277,131.674 135.277,131.674 135.277,129.044 
		137.45,130.267 138.136,129.046 135.666,127.656 138.136,126.267 	"/>
</g>
<rect x="-472.611" y="-457.179" fill="none" width="472.974" height="180.918"/>
<text transform="matrix(1 0 0 1 -292.9741 -385.7798)"><tspan x="0" y="0" font-family="'HelveticaNeueLTStd-Th'" font-size="100" letter-spacing="2">60</tspan><tspan x="-99.268" y="60" font-family="'HelveticaNeueLTStd-Lt'" font-size="48" letter-spacing="1">Weather Icons</tspan><tspan x="-3.726" y="104" font-family="'HelveticaNeueLTStd-Lt'" font-size="24">IOS 7 Style</tspan></text>
</svg>
