<?xml version="1.0" encoding="utf-8"?>
<!-- Generator: Adobe Illustrator 16.0.0, SVG Export Plug-In . SVG Version: 6.00 Build 0)  -->
<!DOCTYPE svg PUBLIC "-//W3C//DTD SVG 1.1//EN" "http://www.w3.org/Graphics/SVG/1.1/DTD/svg11.dtd">
<svg version="1.1" id="Layer_1" xmlns="http://www.w3.org/2000/svg" xmlns:xlink="http://www.w3.org/1999/xlink" x="0px" y="0px"
	 width="58px" height="53.88px" viewBox="0 0 58 53.88" enable-background="new 0 0 58 53.88" xml:space="preserve">
<path d="M443.524,285.105l-1.803,15.077l-0.268,2.237h2.254h6.896l-14.693,18.759l1.789-14.52l0.277-2.245h-2.262h-6.957
	L443.524,285.105 M446.379,278.081l-21.667,28.333h11.004l-2.671,21.667l21.667-27.661h-11.004L446.379,278.081L446.379,278.081z"/>
<path d="M30.489-177.155c6.79,0,12.749,4.814,14.171,11.448l0.318,1.483l1.514,0.094c4.203,0.262,7.496,3.763,7.496,7.971
	c0,4.396-3.565,7.977-7.957,8c-0.046-0.003-0.091-0.006-0.137-0.007l-2.043-0.036v0.043H15.515l-0.578-0.003
	c-5.485-0.027-9.948-4.513-9.948-9.998c0-5.514,4.485-10,9.999-10c0.175,0,0.347,0.014,0.519,0.025l0.149,0.011l1.316,0.087
	l0.598-1.176C20.063-174.112,25.013-177.155,30.489-177.155 M30.489-179.155c-6.423,0-11.977,3.678-14.702,9.035
	c-0.266-0.018-0.53-0.04-0.8-0.04c-6.627,0-11.999,5.372-11.999,12c0,6.607,5.34,11.965,11.938,11.998v0.003h30.925v-0.007
	c0.046,0.001,0.091,0.007,0.137,0.007c5.521,0,10-4.477,10-10c0-5.311-4.145-9.642-9.372-9.967
	C45.021-173.571,38.409-179.155,30.489-179.155L30.489-179.155z"/>
<g>
	<path d="M153.44-158.744c-1.444-6.742-7.433-11.8-14.605-11.8c-2.185,0-4.258,0.47-6.127,1.313
		c-1.666-3.202-5.006-5.394-8.865-5.394c-5.522,0-10,4.477-10,9.999c0,2.46,0.898,4.702,2.373,6.442
		c-1.428,1.84-2.287,4.144-2.287,6.653c0,5.983,4.836,10.836,10.813,10.865v0.003h28.007v-0.006
		c0.042,0.001,0.082,0.006,0.124,0.006c5.001,0,9.057-4.054,9.057-9.057C161.929-154.527,158.175-158.449,153.44-158.744z
		 M123.843-172.624c3.092,0,5.76,1.773,7.092,4.345c-2.299,1.44-4.178,3.488-5.414,5.918c-0.241-0.016-0.48-0.036-0.725-0.036
		c-2.766,0-5.281,1.041-7.2,2.743c-1.092-1.366-1.753-3.09-1.753-4.971C115.843-169.035,119.432-172.624,123.843-172.624z
		 M152.912-142.661c-0.038-0.003-0.077-0.004-0.117-0.005l-2.047-0.042v0.047h-25.403l-0.594-0.003
		c-4.864-0.023-8.822-4.001-8.822-8.865c0-4.89,3.978-8.868,8.867-8.868c0.15,0,0.299,0.012,0.447,0.021l0.148,0.011l1.314,0.085
		l0.598-1.174c2.224-4.373,6.643-7.09,11.531-7.09c6.062,0,11.381,4.298,12.65,10.219l0.317,1.482l1.514,0.095
		c3.708,0.231,6.612,3.319,6.612,7.03C159.929-145.84,156.785-142.684,152.912-142.661z"/>
	<rect x="122.849" y="-184.654" width="2" height="7.973"/>
	<rect x="103.876" y="-165.668" width="7.973" height="2"/>
	<rect x="108.602" y="-176.887" transform="matrix(0.7071 0.7071 -0.7071 0.7071 -91.3942 -131.1284)" width="7.974" height="2"/>
	<rect x="134.11" y="-179.869" transform="matrix(0.7071 0.7071 -0.7071 0.7071 -84.795 -147.0523)" width="2" height="7.972"/>
</g>
<path d="M249.184-162.771c-1.444-6.742-7.433-11.8-14.605-11.8c-1.799,0-3.521,0.32-5.118,0.904
	c-0.949-5.108-5.404-8.98-10.788-8.98c-0.413,0-0.819,0.027-1.222,0.071c0.744,1.112,1.179,2.448,1.179,3.886c0,3.865-3.134,7-7,7
	c-1.438,0-2.773-0.435-3.886-1.179c-0.044,0.401-0.071,0.809-0.071,1.222c0,3.712,1.845,6.987,4.661,8.979
	c-1.653,1.907-2.661,4.389-2.661,7.111c0,5.983,4.836,10.836,10.813,10.865v0.003h28.007v-0.006
	c0.042,0.001,0.082,0.006,0.124,0.006c5.001,0,9.057-4.054,9.057-9.057C257.672-158.555,253.918-162.477,249.184-162.771z
	 M209.849-169.867c0.582,0.117,1.178,0.177,1.78,0.177c4.963,0,9-4.037,9-9c0-0.603-0.06-1.198-0.177-1.78
	c3.733,0.753,6.629,3.824,7.134,7.64c-2.713,1.444-4.928,3.699-6.322,6.442c-0.241-0.016-0.48-0.036-0.725-0.036
	c-2.537,0-4.865,0.876-6.715,2.334C211.813-165.385,210.338-167.444,209.849-169.867z M248.655-146.688
	c-0.038-0.003-0.077-0.004-0.117-0.005l-2.047-0.042v0.047h-25.403l-0.594-0.003c-4.864-0.023-8.822-4.001-8.822-8.865
	c0-4.89,3.978-8.868,8.867-8.868c0.15,0,0.299,0.012,0.447,0.021l0.148,0.011l1.314,0.085l0.598-1.174
	c2.224-4.373,6.643-7.09,11.531-7.09c6.062,0,11.381,4.298,12.65,10.219l0.317,1.482l1.514,0.095
	c3.708,0.231,6.612,3.319,6.612,7.03C255.672-149.867,252.528-146.711,248.655-146.688z"/>
<g>
	<rect x="333.829" y="-154.148" width="2" height="7"/>
	<rect x="341.829" y="-158.148" width="2" height="7"/>
	<rect x="325.829" y="-158.148" width="2" height="7"/>
	<rect x="333.829" y="-144.148" width="2" height="7"/>
	<rect x="341.829" y="-148.148" width="2" height="7"/>
	<rect x="325.829" y="-148.148" width="2" height="7"/>
	<path d="M352.457-171.137c-1.596-7.445-8.207-13.029-16.127-13.029c-6.423,0-11.977,3.678-14.702,9.035
		c-0.266-0.018-0.53-0.04-0.8-0.04c-6.627,0-11.999,5.372-11.999,12c0,6.607,5.34,11.965,11.938,11.998v0.003h2.062v-2h-1.604
		l-0.447-0.003c-5.485-0.027-9.948-4.513-9.948-9.998c0-5.514,4.485-10,9.999-10c0.175,0,0.347,0.014,0.52,0.025l0.148,0.01
		l1.316,0.088l0.598-1.176c2.492-4.899,7.443-7.942,12.92-7.942c6.79,0,12.75,4.814,14.172,11.448l0.317,1.482l1.514,0.095
		c4.203,0.262,7.496,3.763,7.496,7.971c0,4.397-3.565,7.977-7.957,8c-0.05-0.003-0.093-0.005-0.137-0.007l-2.043,0.007h-2.863v2
		h4.863v-0.007c0.046,0.001,0.091,0.007,0.137,0.007c5.521,0,10-4.477,10-10C361.829-166.48,357.685-170.812,352.457-171.137z"/>
</g>
<g>
	<path d="M150.03-81.779c-1.596-7.445-8.207-13.029-16.127-13.029c-6.423,0-11.977,3.678-14.702,9.035
		c-0.266-0.018-0.53-0.04-0.8-0.04c-6.627,0-11.999,5.372-11.999,12c0,6.607,5.34,11.965,11.938,11.998v0.003h2.062v-2h-1.604
		l-0.447-0.003c-5.485-0.027-9.948-4.513-9.948-9.998c0-5.514,4.485-10,9.999-10c0.175,0,0.347,0.014,0.52,0.025l0.148,0.01
		l1.316,0.088l0.598-1.176c2.492-4.899,7.443-7.942,12.92-7.942c6.79,0,12.75,4.814,14.172,11.448l0.317,1.482l1.514,0.095
		c4.203,0.262,7.496,3.763,7.496,7.971c0,4.397-3.565,7.977-7.957,8c-0.05-0.003-0.093-0.005-0.137-0.007l-2.043,0.007h-2.863v2
		h4.863v-0.007c0.046,0.001,0.091,0.007,0.137,0.007c5.521,0,10-4.477,10-10C159.402-77.123,155.258-81.454,150.03-81.779z"/>
	<polygon points="131.402,-54.784 131.402,-52.844 131.402,-46.784 133.402,-46.784 133.402,-52.844 133.402,-54.784 
		133.402,-66.784 131.402,-66.784 	"/>
	<polygon points="139.402,-58.784 139.402,-57.031 139.402,-50.784 141.402,-50.784 141.402,-57.031 141.402,-58.784 
		141.402,-70.784 139.402,-70.784 	"/>
	<polygon points="123.402,-58.784 123.402,-56.719 123.402,-50.784 125.402,-50.784 125.402,-56.719 125.402,-58.784 
		125.402,-70.784 123.402,-70.784 	"/>
</g>
<g>
	<polygon points="445.68,-57.873 438.797,-67.703 437.159,-66.556 444.042,-56.726 445.154,-55.137 448.63,-50.173 450.269,-51.319 
		446.793,-56.284 	"/>
	<polygon points="453.682,-57.875 446.797,-67.703 445.159,-66.555 452.045,-56.727 453.05,-55.291 456.634,-50.176 
		458.272,-51.322 454.688,-56.438 	"/>
	<polygon points="437.68,-57.873 430.797,-67.703 429.159,-66.555 436.042,-56.726 437.227,-55.033 440.631,-50.172 
		442.269,-51.319 438.865,-56.181 	"/>
	<path d="M456.787-81.513c-1.596-7.445-8.207-13.029-16.127-13.029c-6.423,0-11.977,3.678-14.702,9.035
		c-0.266-0.018-0.53-0.04-0.8-0.04c-6.627,0-11.999,5.372-11.999,12c0,6.607,5.34,11.965,11.938,11.998v0.003h2.062v-2h-1.604
		l-0.447-0.003c-5.485-0.027-9.948-4.513-9.948-9.998c0-5.514,4.485-10,9.999-10c0.175,0,0.347,0.014,0.52,0.025l0.148,0.01
		l1.316,0.088l0.598-1.176c2.492-4.899,7.443-7.942,12.92-7.942c6.79,0,12.75,4.814,14.172,11.448l0.317,1.482l1.514,0.095
		c4.203,0.262,7.496,3.763,7.496,7.971c0,4.397-3.565,7.977-7.957,8c-0.05-0.003-0.093-0.005-0.137-0.007l-1.043,0.007h0.137v2
		h0.863v-0.007c0.046,0.001,0.091,0.007,0.137,0.007c5.521,0,10-4.477,10-10C466.159-76.856,462.015-81.188,456.787-81.513z"/>
</g>
<g>
	<rect x="428.485" y="-190.595" width="2" height="7.973"/>
	<rect x="409.485" y="-171.681" width="7.973" height="2"/>
	<rect x="414.158" y="-182.947" transform="matrix(0.7071 0.7071 -0.7071 0.7071 -6.1841 -348.9647)" width="7.974" height="2"/>
	<rect x="439.667" y="-185.929" transform="matrix(0.7071 0.7071 -0.7071 0.7071 0.415 -364.8886)" width="2" height="7.972"/>
	<rect x="442.485" y="-149.722" width="2" height="7"/>
	<rect x="450.485" y="-153.722" width="2" height="7"/>
	<rect x="434.485" y="-153.722" width="2" height="7"/>
	<rect x="442.485" y="-139.722" width="2" height="7"/>
	<rect x="450.485" y="-143.722" width="2" height="7"/>
	<rect x="434.485" y="-143.722" width="2" height="7"/>
	<path d="M458.997-164.805c-1.444-6.742-7.433-11.8-14.605-11.8c-2.185,0-4.258,0.47-6.126,1.313
		c-1.667-3.202-5.007-5.394-8.866-5.394c-5.522,0-10,4.477-10,9.999c0,2.46,0.899,4.702,2.373,6.442
		c-1.429,1.84-2.287,4.144-2.287,6.653c0,5.983,4.836,10.836,10.813,10.865v0.003h1.188v-2h-0.721l-0.457-0.003
		c-4.864-0.023-8.822-4.001-8.822-8.865c0-4.89,3.978-8.868,8.867-8.868c0.15,0,0.299,0.012,0.447,0.022l0.148,0.01l1.314,0.085
		l0.597-1.175c2.225-4.372,6.644-7.089,11.532-7.089c6.062,0,11.382,4.298,12.649,10.219l0.318,1.483l1.514,0.094
		c3.708,0.23,6.612,3.319,6.612,7.03c0,3.878-3.144,7.035-7.017,7.057c-0.042-0.003-0.079-0.005-0.117-0.005l-2.047,0.005h-0.819v2
		h2.819v-0.006c0.042,0.001,0.082,0.006,0.124,0.006c5.001,0,9.057-4.054,9.057-9.057
		C467.485-160.588,463.731-164.51,458.997-164.805z M431.077-168.422c-0.241-0.016-0.48-0.036-0.725-0.036
		c-2.766,0-5.282,1.041-7.2,2.743c-1.092-1.366-1.753-3.09-1.753-4.971c0-4.41,3.589-7.999,8-7.999c3.091,0,5.76,1.773,7.091,4.345
		C434.192-172.899,432.313-170.852,431.077-168.422z"/>
</g>
<g>
	<rect x="542.902" y="-151.169" width="2" height="7"/>
	<rect x="550.902" y="-155.169" width="2" height="7"/>
	<rect x="534.902" y="-155.169" width="2" height="7"/>
	<rect x="542.902" y="-141.169" width="2" height="7"/>
	<rect x="550.902" y="-145.169" width="2" height="7"/>
	<rect x="534.902" y="-145.169" width="2" height="7"/>
	<path d="M559.414-166.252c-1.444-6.742-7.433-11.8-14.605-11.8c-1.799,0-3.522,0.32-5.118,0.904
		c-0.949-5.108-5.404-8.98-10.788-8.98c-0.413,0-0.819,0.027-1.222,0.071c0.744,1.112,1.179,2.448,1.179,3.886c0,3.865-3.134,7-7,7
		c-1.438,0-2.773-0.435-3.886-1.179c-0.044,0.401-0.071,0.809-0.071,1.222c0,3.712,1.845,6.987,4.661,8.979
		c-1.653,1.907-2.661,4.389-2.661,7.111c0,5.983,4.836,10.836,10.813,10.865v0.003h1.188v-2h-0.721l-0.457-0.003
		c-4.864-0.023-8.822-4.001-8.822-8.865c0-4.89,3.978-8.868,8.867-8.868c0.15,0,0.299,0.012,0.447,0.022l0.148,0.01l1.314,0.085
		l0.597-1.175c2.225-4.372,6.644-7.089,11.532-7.089c6.062,0,11.382,4.298,12.649,10.219l0.318,1.483l1.514,0.094
		c3.708,0.23,6.612,3.319,6.612,7.03c0,3.878-3.144,7.035-7.017,7.057c-0.042-0.003-0.079-0.005-0.117-0.005l-2.047,0.005h-0.819v2
		h2.819v-0.006c0.042,0.001,0.082,0.006,0.124,0.006c5.001,0,9.057-4.054,9.057-9.057
		C567.902-162.035,564.148-165.957,559.414-166.252z M531.494-169.869c-0.241-0.016-0.48-0.036-0.725-0.036
		c-2.537,0-4.865,0.876-6.715,2.334c-2.012-1.294-3.487-3.354-3.976-5.776c0.582,0.117,1.178,0.177,1.78,0.177c4.963,0,9-4.037,9-9
		c0-0.603-0.06-1.198-0.177-1.78c3.733,0.753,6.629,3.824,7.133,7.64C535.104-174.867,532.89-172.612,531.494-169.869z"/>
</g>
<g>
	<polygon points="235.672,-50.346 235.672,-48.405 235.672,-42.346 237.672,-42.346 237.672,-48.405 237.672,-50.346 
		237.672,-62.346 235.672,-62.346 	"/>
	<polygon points="243.672,-54.346 243.672,-52.593 243.672,-46.346 245.672,-46.346 245.672,-52.593 245.672,-54.346 
		245.672,-66.346 243.672,-66.346 	"/>
	<polygon points="227.672,-54.346 227.672,-52.28 227.672,-46.346 229.672,-46.346 229.672,-52.28 229.672,-54.346 229.672,-66.346 
		227.672,-66.346 	"/>
	<rect x="221.672" y="-101.248" width="2" height="7.973"/>
	<rect x="202.672" y="-82.334" width="7.973" height="2"/>
	<rect x="207.345" y="-93.6" transform="matrix(0.7071 0.7071 -0.7071 0.7071 -3.5808 -176.5564)" width="7.974" height="2"/>
	<rect x="232.854" y="-96.582" transform="matrix(0.7071 0.7071 -0.7071 0.7071 3.0184 -192.4803)" width="2" height="7.972"/>
	<path d="M252.184-75.458c-1.444-6.742-7.433-11.8-14.605-11.8c-2.185,0-4.258,0.47-6.127,1.313
		c-1.666-3.202-5.006-5.394-8.865-5.394c-5.522,0-10,4.477-10,9.999c0,2.46,0.898,4.702,2.373,6.442
		c-1.428,1.84-2.287,4.144-2.287,6.653c0,5.983,4.836,10.836,10.813,10.865v0.003h1.188v-2h-0.721l-0.457-0.003
		c-4.864-0.023-8.822-4.001-8.822-8.865c0-4.89,3.978-8.868,8.867-8.868c0.15,0,0.299,0.012,0.447,0.022l0.148,0.01l1.314,0.085
		l0.597-1.175c2.225-4.372,6.644-7.089,11.532-7.089c6.062,0,11.382,4.298,12.649,10.219l0.318,1.483l1.514,0.094
		c3.708,0.23,6.612,3.319,6.612,7.03c0,3.878-3.144,7.035-7.017,7.057c-0.042-0.003-0.079-0.005-0.117-0.005l-2.047,0.005h-0.819v2
		h2.819v-0.006c0.042,0.001,0.082,0.006,0.124,0.006c5.001,0,9.057-4.054,9.057-9.057C260.672-71.241,256.918-75.163,252.184-75.458
		z M224.264-79.075c-0.241-0.016-0.48-0.036-0.725-0.036c-2.766,0-5.281,1.042-7.2,2.743c-1.092-1.367-1.753-3.09-1.753-4.971
		c0-4.41,3.589-7.999,8-7.999c3.092,0,5.76,1.773,7.092,4.345C227.379-83.554,225.5-81.505,224.264-79.075z"/>
</g>
<g>
	<polygon points="336.069,-52.862 336.069,-50.922 336.069,-44.862 338.069,-44.862 338.069,-50.922 338.069,-52.862 
		338.069,-64.862 336.069,-64.862 	"/>
	<polygon points="344.069,-56.862 344.069,-55.109 344.069,-48.862 346.069,-48.862 346.069,-55.109 346.069,-56.862 
		346.069,-68.862 344.069,-68.862 	"/>
	<polygon points="328.069,-56.862 328.069,-54.797 328.069,-48.862 330.069,-48.862 330.069,-54.797 330.069,-56.862 
		330.069,-68.862 328.069,-68.862 	"/>
	<path d="M352.581-77.975c-1.444-6.742-7.433-11.8-14.605-11.8c-1.799,0-3.521,0.32-5.118,0.904
		c-0.949-5.108-5.404-8.98-10.788-8.98c-0.413,0-0.819,0.027-1.222,0.071c0.744,1.112,1.179,2.448,1.179,3.886c0,3.865-3.134,7-7,7
		c-1.438,0-2.773-0.435-3.886-1.179c-0.044,0.401-0.071,0.809-0.071,1.222c0,3.712,1.845,6.987,4.661,8.979
		c-1.653,1.907-2.661,4.389-2.661,7.111c0,5.983,4.836,10.836,10.813,10.865v0.003h1.188v-2h-0.721l-0.457-0.003
		c-4.864-0.023-8.822-4.001-8.822-8.865c0-4.89,3.978-8.868,8.867-8.868c0.15,0,0.299,0.012,0.447,0.022l0.148,0.01l1.314,0.085
		l0.597-1.175c2.225-4.372,6.644-7.089,11.532-7.089c6.062,0,11.382,4.298,12.649,10.219l0.318,1.483l1.514,0.094
		c3.708,0.23,6.612,3.319,6.612,7.03c0,3.878-3.144,7.035-7.017,7.057c-0.042-0.003-0.079-0.005-0.117-0.005l-2.047,0.005h-0.819v2
		h2.819v-0.006c0.042,0.001,0.082,0.006,0.124,0.006c5.001,0,9.057-4.054,9.057-9.057C361.069-73.758,357.315-77.68,352.581-77.975z
		 M324.661-81.592c-0.241-0.016-0.48-0.036-0.725-0.036c-2.537,0-4.865,0.876-6.715,2.334c-2.012-1.294-3.486-3.354-3.976-5.776
		c0.582,0.117,1.178,0.177,1.78,0.177c4.963,0,9-4.037,9-9c0-0.603-0.06-1.198-0.177-1.78c3.733,0.753,6.629,3.824,7.134,7.641
		C328.271-86.59,326.056-84.334,324.661-81.592z"/>
</g>
<g>
	<polygon points="553.104,-51.918 546.222,-61.748 544.584,-60.601 551.467,-50.771 552.579,-49.182 556.055,-44.218 
		557.693,-45.364 554.218,-50.329 	"/>
	<polygon points="561.106,-51.92 554.222,-61.748 552.584,-60.6 559.47,-50.771 560.475,-49.336 564.059,-44.221 565.697,-45.367 
		562.113,-50.483 	"/>
	<polygon points="545.104,-51.918 538.222,-61.748 536.584,-60.6 543.467,-50.771 544.651,-49.078 548.056,-44.217 549.693,-45.364 
		546.29,-50.226 	"/>
	<rect x="532.584" y="-99.467" width="2" height="7.973"/>
	<rect x="513.584" y="-80.553" width="7.973" height="2"/>
	<rect x="518.257" y="-91.819" transform="matrix(0.7071 0.7071 -0.7071 0.7071 88.7428 -395.8828)" width="7.974" height="2"/>
	<rect x="543.766" y="-94.801" transform="matrix(0.7071 0.7071 -0.7071 0.7071 95.342 -411.8067)" width="2" height="7.972"/>
	<path d="M563.096-73.677c-1.444-6.742-7.433-11.8-14.605-11.8c-2.185,0-4.258,0.47-6.126,1.313
		c-1.667-3.202-5.007-5.394-8.866-5.394c-5.522,0-10,4.477-10,9.999c0,2.46,0.899,4.702,2.373,6.442
		c-1.429,1.84-2.287,4.144-2.287,6.653c0,5.983,4.836,10.836,10.813,10.865v0.003h1.188v-2h-0.721l-0.457-0.003
		c-4.864-0.023-8.822-4.001-8.822-8.865c0-4.89,3.978-8.868,8.867-8.868c0.15,0,0.299,0.012,0.447,0.022l0.148,0.01l1.314,0.085
		l0.597-1.175c2.225-4.372,6.644-7.089,11.532-7.089c6.062,0,11.382,4.298,12.649,10.219l0.318,1.483l1.514,0.094
		c3.708,0.23,6.612,3.319,6.612,7.03c0,3.878-3.144,7.035-7.017,7.057c-0.042-0.003-0.079-0.005-0.117-0.005l-0.047,0.005h-0.819v2
		h0.819V-55.6c0.042,0.001,0.082,0.006,0.124,0.006c5.001,0,9.057-4.054,9.057-9.057C571.584-69.46,567.83-73.382,563.096-73.677z
		 M535.176-77.294c-0.241-0.016-0.48-0.036-0.725-0.036c-2.766,0-5.282,1.042-7.2,2.743c-1.092-1.367-1.753-3.09-1.753-4.971
		c0-4.41,3.589-7.999,8-7.999c3.091,0,5.76,1.773,7.091,4.345C538.291-81.772,536.411-79.724,535.176-77.294z"/>
</g>
<g>
	<polygon points="-170.326,44.567 -177.209,34.737 -178.847,35.885 -171.964,45.715 -170.852,47.304 -167.376,52.268 
		-165.737,51.121 -169.213,46.156 	"/>
	<polygon points="-162.324,44.565 -169.209,34.737 -170.847,35.886 -163.961,45.714 -162.956,47.149 -159.372,52.265 
		-157.733,51.118 -161.317,46.002 	"/>
	<polygon points="-178.326,44.567 -185.209,34.737 -186.847,35.886 -179.964,45.715 -178.779,47.407 -175.375,52.269 
		-173.737,51.121 -177.141,46.26 	"/>
	<path d="M-160.335,22.809c-1.444-6.742-7.433-11.8-14.605-11.8c-1.799,0-3.522,0.32-5.118,0.904
		c-0.949-5.108-5.404-8.98-10.788-8.98c-0.413,0-0.819,0.027-1.222,0.071c0.744,1.112,1.179,2.448,1.179,3.886c0,3.865-3.134,7-7,7
		c-1.438,0-2.773-0.435-3.886-1.179c-0.044,0.401-0.071,0.809-0.071,1.222c0,3.712,1.845,6.987,4.661,8.979
		c-1.653,1.907-2.661,4.389-2.661,7.111c0,5.983,4.836,10.836,10.813,10.865v0.003h1.188v-2h-0.721l-0.457-0.003
		c-4.864-0.023-8.822-4.001-8.822-8.865c0-4.89,3.978-8.868,8.867-8.868c0.15,0,0.299,0.012,0.447,0.022l0.148,0.01l1.314,0.085
		l0.597-1.175c2.225-4.372,6.644-7.089,11.532-7.089c6.062,0,11.382,4.298,12.649,10.219l0.318,1.483l1.514,0.094
		c3.708,0.23,6.612,3.319,6.612,7.03c0,3.878-3.144,7.035-7.017,7.057c-0.042-0.003-0.079-0.005-0.117-0.005l-0.047,0.005h-0.819v2
		h0.819v-0.006c0.042,0.001,0.082,0.006,0.124,0.006c5.001,0,9.057-4.054,9.057-9.057
		C-151.847,27.025-155.601,23.104-160.335,22.809z M-188.255,19.191c-0.241-0.016-0.48-0.036-0.725-0.036
		c-2.537,0-4.865,0.876-6.715,2.334c-2.012-1.294-3.487-3.354-3.976-5.776c0.582,0.117,1.178,0.177,1.78,0.177c4.963,0,9-4.037,9-9
		c0-0.603-0.06-1.198-0.177-1.78c3.733,0.753,6.629,3.824,7.133,7.641C-184.645,14.193-186.859,16.449-188.255,19.191z"/>
</g>
<g>
	<rect x="-177.847" y="-59.279" width="2" height="4"/>
	<rect x="-169.847" y="-63.301" width="2" height="4.021"/>
	<rect x="-185.847" y="-63.301" width="2" height="4.021"/>
	<path d="M-159.219-79.268c-1.596-7.445-8.207-13.029-16.127-13.029c-6.423,0-11.977,3.678-14.702,9.035
		c-0.266-0.018-0.53-0.04-0.8-0.04c-6.627,0-11.999,5.372-11.999,12c0,6.607,5.34,11.965,11.938,11.998v0.003h2.062v-2h-1.604
		l-0.447-0.003c-5.485-0.027-9.948-4.513-9.948-9.998c0-5.514,4.485-10,9.999-10c0.175,0,0.347,0.014,0.52,0.025l0.148,0.01
		l1.316,0.088l0.598-1.176c2.492-4.899,7.443-7.942,12.92-7.942c6.79,0,12.75,4.814,14.172,11.448l0.317,1.482l1.514,0.095
		c4.203,0.262,7.496,3.763,7.496,7.971c0,4.397-3.565,7.977-7.957,8c-0.05-0.003-0.093-0.005-0.137-0.007l-2.043,0.007h-2.863v2
		h4.863v-0.007c0.046,0.001,0.091,0.007,0.137,0.007c5.521,0,10-4.477,10-10C-149.847-74.611-153.991-78.942-159.219-79.268z"/>
	<circle cx="-168.847" cy="-54.259" r="1.5"/>
	<circle cx="-176.847" cy="-50.29" r="1.5"/>
	<circle cx="-184.847" cy="-54.301" r="1.5"/>
</g>
<g>
	<rect x="-84.926" y="-98.733" width="2" height="7.973"/>
	<rect x="-103.926" y="-79.819" width="7.973" height="2"/>
	<rect x="-99.253" y="-91.086" transform="matrix(0.7071 0.7071 -0.7071 0.7071 -91.603 40.9774)" width="7.974" height="2"/>
	<rect x="-73.744" y="-94.068" transform="matrix(0.7071 0.7071 -0.7071 0.7071 -85.0039 25.0535)" width="2" height="7.972"/>
	<path d="M-54.414-72.943c-1.444-6.742-7.433-11.8-14.605-11.8c-2.185,0-4.258,0.47-6.126,1.313
		c-1.667-3.202-5.007-5.394-8.866-5.394c-5.522,0-10,4.477-10,9.999c0,2.46,0.899,4.702,2.373,6.442
		c-1.429,1.84-2.287,4.144-2.287,6.653c0,5.983,4.836,10.836,10.813,10.865v0.003h1.188v-2h-0.721l-0.457-0.003
		c-4.864-0.023-8.822-4.001-8.822-8.865c0-4.89,3.978-8.868,8.867-8.868c0.15,0,0.299,0.012,0.447,0.022l0.148,0.01l1.314,0.085
		l0.597-1.175c2.225-4.372,6.644-7.089,11.532-7.089c6.062,0,11.382,4.298,12.649,10.219l0.318,1.483l1.514,0.094
		c3.708,0.23,6.612,3.319,6.612,7.03c0,3.878-3.144,7.035-7.017,7.057c-0.042-0.003-0.079-0.005-0.117-0.005l-2.047,0.005h-0.819v2
		h2.819v-0.006c0.042,0.001,0.082,0.006,0.124,0.006c5.001,0,9.057-4.054,9.057-9.057C-45.926-68.727-49.68-72.648-54.414-72.943z
		 M-82.334-76.561c-0.241-0.016-0.48-0.036-0.725-0.036c-2.766,0-5.282,1.042-7.2,2.743c-1.092-1.367-1.753-3.09-1.753-4.971
		c0-4.41,3.589-7.999,8-7.999c3.091,0,5.76,1.773,7.091,4.345C-79.219-81.039-81.099-78.99-82.334-76.561z"/>
	<rect x="-70.926" y="-54.845" width="2" height="4"/>
	<rect x="-62.926" y="-58.866" width="2" height="4.021"/>
	<rect x="-78.926" y="-58.866" width="2" height="4.021"/>
	<circle cx="-61.926" cy="-49.824" r="1.5"/>
	<circle cx="-69.926" cy="-45.855" r="1.5"/>
	<circle cx="-77.926" cy="-49.866" r="1.5"/>
</g>
<g>
	<path d="M46.512-73.9c-1.444-6.742-7.433-11.8-14.605-11.8c-1.799,0-3.522,0.32-5.118,0.904c-0.949-5.108-5.404-8.98-10.788-8.98
		c-0.413,0-0.819,0.027-1.222,0.071c0.744,1.112,1.179,2.448,1.179,3.886c0,3.865-3.134,7-7,7c-1.438,0-2.773-0.435-3.886-1.179
		C5.027-83.597,5-83.189,5-82.776c0,3.712,1.845,6.987,4.661,8.979C8.008-71.89,7-69.408,7-66.686
		c0,5.983,4.836,10.836,10.813,10.865v0.003H19v-2h-0.721l-0.457-0.003C12.958-57.844,9-61.821,9-66.686
		c0-4.89,3.978-8.868,8.867-8.868c0.15,0,0.299,0.012,0.447,0.022l0.148,0.01l1.314,0.085l0.597-1.175
		c2.225-4.372,6.644-7.089,11.532-7.089c6.062,0,11.382,4.298,12.649,10.219l0.318,1.483l1.514,0.094
		c3.708,0.23,6.612,3.319,6.612,7.03c0,3.878-3.144,7.035-7.017,7.057c-0.042-0.003-0.079-0.005-0.117-0.005l-2.047,0.005H43v2
		h2.819v-0.006c0.042,0.001,0.082,0.006,0.124,0.006c5.001,0,9.057-4.054,9.057-9.057C55-69.684,51.246-73.605,46.512-73.9z
		 M18.592-77.518c-0.241-0.016-0.48-0.036-0.725-0.036c-2.537,0-4.865,0.876-6.715,2.334c-2.012-1.294-3.487-3.354-3.976-5.776
		c0.582,0.117,1.178,0.177,1.78,0.177c4.963,0,9-4.037,9-9c0-0.603-0.06-1.198-0.177-1.78c3.733,0.753,6.629,3.824,7.133,7.641
		C22.202-82.516,19.987-80.26,18.592-77.518z"/>
	<rect x="30" y="-55.802" width="2" height="4"/>
	<rect x="38" y="-59.823" width="2" height="4.021"/>
	<rect x="22" y="-59.823" width="2" height="4.021"/>
	<circle cx="39" cy="-50.781" r="1.5"/>
	<circle cx="31" cy="-46.813" r="1.5"/>
	<circle cx="23" cy="-50.823" r="1.5"/>
</g>
<g>
	<path d="M-56.798,19.13c-1.596-7.445-8.207-13.029-16.127-13.029c-6.423,0-11.977,3.678-14.702,9.035
		c-0.266-0.018-0.53-0.04-0.8-0.04c-6.627,0-11.999,5.372-11.999,12c0,6.607,5.34,11.965,11.938,11.998v0.003h6.062v-2h-5.604
		l-0.447-0.003c-5.485-0.027-9.948-4.513-9.948-9.998c0-5.514,4.485-10,9.999-10c0.175,0,0.347,0.014,0.52,0.025l0.148,0.01
		l1.316,0.088l0.598-1.176c2.492-4.899,7.443-7.942,12.92-7.942c6.79,0,12.75,4.814,14.172,11.448l0.317,1.482l1.514,0.095
		c4.203,0.262,7.496,3.763,7.496,7.971c0,4.397-3.565,7.977-7.957,8c-0.05-0.003-0.093-0.005-0.137-0.007l-5.043,0.007h0.137v2
		h4.863V39.09c0.046,0.001,0.091,0.007,0.137,0.007c5.521,0,10-4.477,10-10C-47.426,23.786-51.57,19.455-56.798,19.13z"/>
	<polygon points="-72.584,39.101 -70.814,39.101 -70.384,39.101 -68.374,39.101 -74.788,29.939 -76.426,31.087 -72.215,37.101 
		-73.985,37.101 -76.426,37.101 -75.154,38.917 -74.042,40.506 -68.064,49.101 -66.426,47.954 -72.403,39.358 	"/>
</g>
<g>
	<rect x="19" width="2" height="7.973"/>
	<rect y="18.914" width="7.973" height="2"/>
	<rect x="4.673" y="7.648" transform="matrix(0.7071 0.7071 -0.7071 0.7071 8.6512 -3.5909)" width="7.974" height="2"/>
	<rect x="30.182" y="4.666" transform="matrix(0.7071 0.7071 -0.7071 0.7071 15.2503 -19.5148)" width="2" height="7.972"/>
	<path d="M49.512,25.79c-1.444-6.742-7.433-11.8-14.605-11.8c-2.185,0-4.258,0.47-6.127,1.313c-1.666-3.202-5.006-5.394-8.865-5.394
		c-5.522,0-10,4.477-10,9.999c0,2.46,0.898,4.702,2.373,6.442C10.859,28.191,10,30.495,10,33.005
		c0,5.983,4.836,10.836,10.813,10.865v0.003H25v-2h-3.721l-0.457-0.003C15.958,41.847,12,37.869,12,33.005
		c0-4.89,3.978-8.868,8.867-8.868c0.15,0,0.299,0.012,0.447,0.022l0.148,0.01l1.314,0.085l0.597-1.175
		c2.225-4.372,6.644-7.089,11.532-7.089c6.062,0,11.382,4.298,12.649,10.219l0.318,1.483l1.514,0.094
		c3.708,0.23,6.612,3.319,6.612,7.03c0,3.878-3.144,7.035-7.017,7.057c-0.042-0.003-0.079-0.005-0.117-0.005l-2.047,0.005H43v2
		h5.819v-0.006c0.042,0.001,0.082,0.006,0.124,0.006c5.001,0,9.057-4.054,9.057-9.057C58,30.007,54.246,26.085,49.512,25.79z
		 M21.592,22.173c-0.241-0.016-0.48-0.036-0.725-0.036c-2.766,0-5.281,1.041-7.2,2.743c-1.092-1.366-1.753-3.09-1.753-4.971
		c0-4.41,3.589-7.999,8-7.999c3.092,0,5.76,1.773,7.092,4.345C24.707,17.695,22.828,19.743,21.592,22.173z"/>
	<polygon points="33.842,43.88 35.611,43.88 36.042,43.88 38.052,43.88 31.638,34.719 30,35.866 34.211,41.88 32.44,41.88 30,41.88 
		31.271,43.696 32.384,45.285 38.361,53.88 40,52.733 34.022,44.138 	"/>
</g>
<g>
	<path d="M149.097,23.494c-1.444-6.742-7.433-11.8-14.605-11.8c-1.799,0-3.521,0.32-5.118,0.904
		c-0.949-5.108-5.404-8.98-10.788-8.98c-0.413,0-0.819,0.027-1.222,0.071c0.744,1.112,1.179,2.448,1.179,3.886c0,3.865-3.134,7-7,7
		c-1.438,0-2.773-0.435-3.886-1.179c-0.044,0.401-0.071,0.809-0.071,1.222c0,3.712,1.845,6.987,4.661,8.979
		c-1.653,1.907-2.661,4.389-2.661,7.111c0,5.983,4.836,10.836,10.813,10.865v0.003h4.188v-2h-3.721l-0.457-0.003
		c-4.864-0.023-8.822-4.001-8.822-8.865c0-4.89,3.978-8.868,8.867-8.868c0.15,0,0.299,0.012,0.447,0.022l0.148,0.01l1.314,0.085
		l0.597-1.175c2.225-4.372,6.644-7.089,11.532-7.089c6.062,0,11.382,4.298,12.649,10.219l0.318,1.483l1.514,0.094
		c3.708,0.23,6.612,3.319,6.612,7.03c0,3.878-3.144,7.035-7.017,7.057c-0.042-0.003-0.079-0.005-0.117-0.005l-2.047,0.005h-3.819v2
		h5.819v-0.006c0.042,0.001,0.082,0.006,0.124,0.006c5.001,0,9.057-4.054,9.057-9.057C157.585,27.711,153.831,23.789,149.097,23.494
		z M121.177,19.877c-0.241-0.016-0.48-0.036-0.725-0.036c-2.537,0-4.865,0.876-6.715,2.334c-2.012-1.294-3.486-3.354-3.976-5.776
		c0.582,0.117,1.178,0.177,1.78,0.177c4.963,0,9-4.037,9-9c0-0.603-0.06-1.198-0.177-1.78c3.733,0.753,6.629,3.824,7.134,7.64
		C124.786,14.879,122.571,17.134,121.177,19.877z"/>
	<polygon points="133.427,41.584 135.196,41.584 135.627,41.584 137.637,41.584 131.223,32.423 129.585,33.57 133.796,39.584 
		132.025,39.584 129.585,39.584 130.856,41.4 131.969,42.989 137.946,51.584 139.585,50.438 133.607,41.842 	"/>
</g>
<g>
	<path d="M249.981,19.63c-1.596-7.445-8.207-13.029-16.127-13.029c-6.423,0-11.977,3.678-14.702,9.035
		c-0.266-0.018-0.53-0.04-0.8-0.04c-6.627,0-11.999,5.372-11.999,12c0,6.607,5.34,11.965,11.938,11.998v0.003h1.062v-2h-0.604
		l-0.447-0.003c-5.485-0.027-9.948-4.513-9.948-9.998c0-5.514,4.485-10,9.999-10c0.175,0,0.347,0.014,0.52,0.025l0.148,0.01
		l1.316,0.088l0.598-1.176c2.492-4.899,7.443-7.942,12.92-7.942c6.79,0,12.75,4.814,14.172,11.448l0.317,1.482l1.514,0.095
		c4.203,0.262,7.496,3.763,7.496,7.971c0,4.397-3.565,7.977-7.957,8c-0.05-0.003-0.093-0.005-0.137-0.007l-0.906,0.007v2h0.863
		V39.59c0.046,0.001,0.091,0.007,0.137,0.007c5.521,0,10-4.477,10-10C259.354,24.286,255.209,19.955,249.981,19.63z"/>
	
		<rect x="218.788" y="37.595" transform="matrix(-0.5736 -0.8191 0.8191 -0.5736 321.4791 244.5245)" width="11.183" height="1.999"/>
	
		<rect x="236.762" y="37.595" transform="matrix(-0.5736 -0.8191 0.8191 -0.5736 349.7646 259.2477)" width="11.183" height="1.999"/>
	<polygon points="235.195,42.601 236.965,42.601 237.396,42.601 239.405,42.601 232.991,33.439 231.354,34.587 235.564,40.601 
		233.794,40.601 231.354,40.601 232.625,42.417 233.737,44.006 238.354,50.601 239.992,49.454 235.376,42.858 	"/>
</g>
<g>
	<rect x="324.829" y="0.163" width="2" height="7.973"/>
	<rect x="305.829" y="19.077" width="7.973" height="2"/>
	<rect x="310.502" y="7.811" transform="matrix(0.7071 0.7071 -0.7071 0.7071 98.3418 -219.7969)" width="7.974" height="2"/>
	<rect x="336.011" y="4.829" transform="matrix(0.7071 0.7071 -0.7071 0.7071 104.9409 -235.7209)" width="2" height="7.972"/>
	<path d="M355.341,25.953c-1.444-6.742-7.433-11.8-14.605-11.8c-2.185,0-4.258,0.47-6.126,1.313
		c-1.667-3.202-5.007-5.394-8.866-5.394c-5.522,0-10,4.477-10,9.999c0,2.46,0.899,4.702,2.373,6.442
		c-1.429,1.84-2.287,4.144-2.287,6.653c0,5.983,4.836,10.836,10.813,10.865v0.003h0.188v-2l-0.178-0.003
		c-4.864-0.023-8.822-4.001-8.822-8.865c0-4.89,3.978-8.868,8.867-8.868c0.15,0,0.299,0.012,0.447,0.022l0.148,0.01l1.314,0.085
		l0.597-1.175c2.225-4.372,6.644-7.089,11.532-7.089c6.062,0,11.382,4.298,12.649,10.219l0.318,1.483l1.514,0.094
		c3.708,0.23,6.612,3.319,6.612,7.03c0,3.878-3.144,7.035-7.017,7.057c-0.042-0.003-0.079-0.005-0.117-0.005l-0.866,0.005v2h0.819
		V44.03c0.042,0.001,0.082,0.006,0.124,0.006c5.001,0,9.057-4.054,9.057-9.057C363.829,30.17,360.075,26.248,355.341,25.953z
		 M327.421,22.336c-0.241-0.016-0.48-0.036-0.725-0.036c-2.766,0-5.282,1.042-7.2,2.743c-1.092-1.367-1.753-3.09-1.753-4.971
		c0-4.41,3.589-7.999,8-7.999c3.091,0,5.76,1.773,7.091,4.345C330.536,17.857,328.656,19.906,327.421,22.336z"/>
	
		<rect x="325.251" y="42.033" transform="matrix(-0.5736 -0.8191 0.8191 -0.5736 485.3776 338.7137)" width="11.183" height="1.999"/>
	
		<rect x="343.225" y="42.033" transform="matrix(-0.5736 -0.8191 0.8191 -0.5736 513.6631 353.4369)" width="11.183" height="1.999"/>
	<polygon points="341.658,47.039 343.428,47.039 343.858,47.039 345.868,47.039 339.454,37.878 337.816,39.025 342.027,45.039 
		340.257,45.039 337.816,45.039 339.088,46.855 340.2,48.444 344.816,55.039 346.455,53.893 341.839,47.297 	"/>
</g>
<g>
	<path d="M457.179,22.995c-1.444-6.742-7.433-11.8-14.605-11.8c-1.799,0-3.522,0.32-5.118,0.904
		c-0.949-5.108-5.404-8.98-10.788-8.98c-0.413,0-0.819,0.027-1.222,0.071c0.744,1.112,1.179,2.448,1.179,3.886c0,3.865-3.134,7-7,7
		c-1.438,0-2.773-0.435-3.886-1.179c-0.044,0.401-0.071,0.809-0.071,1.222c0,3.712,1.845,6.987,4.661,8.979
		c-1.653,1.907-2.661,4.389-2.661,7.111c0,5.983,4.836,10.836,10.813,10.865v0.003h0.188v-2l-0.178-0.003
		c-4.864-0.023-8.822-4.001-8.822-8.865c0-4.89,3.978-8.868,8.867-8.868c0.15,0,0.299,0.012,0.447,0.022l0.148,0.01l1.314,0.085
		l0.597-1.175c2.225-4.372,6.644-7.089,11.532-7.089c6.062,0,11.382,4.298,12.649,10.219l0.318,1.483l1.514,0.094
		c3.708,0.23,6.612,3.319,6.612,7.03c0,3.878-3.144,7.035-7.017,7.057c-0.042-0.003-0.079-0.005-0.117-0.005l-0.866,0.005v2h0.819
		v-0.006c0.042,0.001,0.082,0.006,0.124,0.006c5.001,0,9.057-4.054,9.057-9.057C465.667,27.212,461.913,23.29,457.179,22.995z
		 M429.259,19.378c-0.241-0.016-0.48-0.036-0.725-0.036c-2.537,0-4.865,0.876-6.715,2.334c-2.012-1.294-3.487-3.354-3.976-5.776
		c0.582,0.117,1.178,0.177,1.78,0.177c4.963,0,9-4.037,9-9c0-0.603-0.06-1.198-0.177-1.78c3.733,0.753,6.629,3.824,7.133,7.641
		C432.869,14.38,430.654,16.636,429.259,19.378z"/>
	
		<rect x="427.088" y="39.075" transform="matrix(-0.5736 -0.8191 0.8191 -0.5736 648.055 417.4744)" width="11.183" height="1.999"/>
	
		<rect x="445.062" y="39.075" transform="matrix(-0.5736 -0.8191 0.8191 -0.5736 676.3405 432.1976)" width="11.183" height="1.999"/>
	<polygon points="443.495,44.081 445.265,44.081 445.695,44.081 447.705,44.081 441.291,34.92 439.653,36.067 443.864,42.081 
		442.094,42.081 439.653,42.081 440.925,43.897 442.037,45.486 446.653,52.081 448.292,50.935 443.676,44.339 	"/>
</g>
<g>
	<g>
		<path d="M46.616,109.45c-1.596-7.445-8.207-13.029-16.127-13.029c-6.423,0-11.977,3.678-14.702,9.035
			c-0.266-0.018-0.53-0.04-0.8-0.04c-6.627,0-11.999,5.372-11.999,12c0,6.607,5.34,11.965,11.938,11.998v0.003h2.062v-2h-1.604
			l-0.447-0.003c-5.485-0.027-9.948-4.513-9.948-9.998c0-5.514,4.485-10,9.999-10c0.175,0,0.347,0.014,0.52,0.025l0.148,0.01
			l1.316,0.088l0.598-1.176c2.492-4.899,7.443-7.942,12.92-7.942c6.79,0,12.75,4.814,14.172,11.448l0.317,1.482l1.514,0.095
			c4.203,0.262,7.496,3.763,7.496,7.971c0,4.397-3.565,7.977-7.957,8c-0.05-0.003-0.093-0.005-0.137-0.007l-2.043,0.007h-2.863v2
			h4.863v-0.007c0.046,0.001,0.091,0.007,0.137,0.007c5.521,0,10-4.477,10-10C55.988,114.106,51.844,109.775,46.616,109.45z"/>
	</g>
	<g>
		<circle cx="21.488" cy="122.993" r="1.5"/>
	</g>
	<g>
		<circle cx="25.488" cy="128.917" r="1.5"/>
	</g>
	<g>
		<circle cx="33.488" cy="128.917" r="1.5"/>
	</g>
	<g>
		<circle cx="29.488" cy="122.993" r="1.5"/>
	</g>
	<g>
		<circle cx="37.488" cy="122.993" r="1.5"/>
	</g>
	<g>
		<circle cx="21.488" cy="134.938" r="1.5"/>
	</g>
	<g>
		<circle cx="29.488" cy="134.938" r="1.5"/>
	</g>
	<g>
		<circle cx="37.488" cy="134.938" r="1.5"/>
	</g>
</g>
<g>
	<g>
		<rect x="122.402" y="93.973" width="2" height="7.973"/>
	</g>
	<g>
		<rect x="103.402" y="112.887" width="7.973" height="2"/>
	</g>
	<g>
		<rect x="108.075" y="101.62" transform="matrix(0.7071 0.7071 -0.7071 0.7071 105.3857 -49.1834)" width="7.974" height="2"/>
	</g>
	<g>
		<rect x="133.584" y="98.638" transform="matrix(0.7071 0.7071 -0.7071 0.7071 111.9849 -65.1074)" width="2" height="7.972"/>
	</g>
	<g>
		<path d="M152.914,119.763c-1.444-6.742-7.433-11.8-14.605-11.8c-2.185,0-4.258,0.47-6.127,1.313
			c-1.666-3.202-5.006-5.394-8.865-5.394c-5.522,0-10,4.477-10,9.999c0,2.46,0.898,4.702,2.373,6.442
			c-1.428,1.84-2.287,4.144-2.287,6.653c0,5.983,4.836,10.836,10.813,10.865v0.003h1.188v-2h-0.721l-0.457-0.003
			c-4.864-0.023-8.822-4.001-8.822-8.865c0-4.89,3.978-8.868,8.867-8.868c0.15,0,0.299,0.012,0.447,0.022l0.148,0.01l1.314,0.085
			l0.597-1.175c2.225-4.372,6.644-7.089,11.532-7.089c6.062,0,11.382,4.298,12.649,10.219l0.318,1.483l1.514,0.094
			c3.708,0.23,6.612,3.319,6.612,7.03c0,3.878-3.144,7.035-7.017,7.057c-0.042-0.003-0.079-0.005-0.117-0.005l-2.047,0.005h-1.819v2
			h3.819v-0.006c0.042,0.001,0.082,0.006,0.124,0.006c5.001,0,9.057-4.054,9.057-9.057
			C161.402,123.979,157.648,120.058,152.914,119.763z M124.994,116.146c-0.241-0.016-0.48-0.036-0.725-0.036
			c-2.766,0-5.281,1.042-7.2,2.743c-1.092-1.367-1.753-3.09-1.753-4.971c0-4.41,3.589-7.999,8-7.999c3.092,0,5.76,1.773,7.092,4.345
			C128.109,111.667,126.23,113.716,124.994,116.146z"/>
	</g>
	<g>
		<circle cx="128.892" cy="131.356" r="1.5"/>
	</g>
	<g>
		<circle cx="132.892" cy="137.356" r="1.5"/>
	</g>
	<g>
		<circle cx="140.892" cy="137.356" r="1.5"/>
	</g>
	<g>
		<circle cx="136.892" cy="131.356" r="1.5"/>
	</g>
	<g>
		<circle cx="144.892" cy="131.356" r="1.5"/>
	</g>
	<g>
		<circle cx="128.892" cy="143.378" r="1.5"/>
	</g>
	<g>
		<circle cx="136.892" cy="143.378" r="1.5"/>
	</g>
	<g>
		<circle cx="144.892" cy="143.378" r="1.5"/>
	</g>
</g>
<g>
	<g>
		<path d="M248.865,115.807c-1.444-6.742-7.433-11.8-14.605-11.8c-1.799,0-3.521,0.32-5.118,0.904
			c-0.949-5.108-5.404-8.98-10.788-8.98c-0.413,0-0.819,0.027-1.222,0.071c0.744,1.112,1.179,2.448,1.179,3.886c0,3.865-3.134,7-7,7
			c-1.438,0-2.773-0.435-3.886-1.179c-0.044,0.401-0.071,0.809-0.071,1.222c0,3.712,1.845,6.987,4.661,8.979
			c-1.653,1.907-2.661,4.389-2.661,7.111c0,5.983,4.836,10.836,10.813,10.865v0.003h1.188v-2h-0.721l-0.457-0.003
			c-4.864-0.023-8.822-4.001-8.822-8.865c0-4.89,3.978-8.868,8.867-8.868c0.15,0,0.299,0.012,0.447,0.022l0.148,0.01l1.314,0.085
			l0.597-1.175c2.225-4.372,6.644-7.089,11.532-7.089c6.062,0,11.382,4.298,12.649,10.219l0.318,1.483l1.514,0.094
			c3.708,0.23,6.612,3.319,6.612,7.03c0,3.878-3.144,7.035-7.017,7.057c-0.042-0.003-0.079-0.005-0.117-0.005l-2.047,0.005h-1.819v2
			h3.819v-0.006c0.042,0.001,0.082,0.006,0.124,0.006c5.001,0,9.057-4.054,9.057-9.057
			C257.354,120.023,253.6,116.102,248.865,115.807z M220.945,112.189c-0.241-0.016-0.48-0.036-0.725-0.036
			c-2.537,0-4.865,0.876-6.715,2.334c-2.012-1.294-3.486-3.354-3.976-5.776c0.582,0.117,1.178,0.177,1.78,0.177c4.963,0,9-4.037,9-9
			c0-0.603-0.06-1.198-0.177-1.78c3.733,0.753,6.629,3.824,7.134,7.64C224.555,107.191,222.34,109.446,220.945,112.189z"/>
	</g>
	<g>
		<circle cx="224.854" cy="127.399" r="1.5"/>
	</g>
	<g>
		<circle cx="228.854" cy="133.399" r="1.5"/>
	</g>
	<g>
		<circle cx="236.854" cy="133.399" r="1.5"/>
	</g>
	<g>
		<circle cx="232.854" cy="127.399" r="1.5"/>
	</g>
	<g>
		<circle cx="240.854" cy="127.399" r="1.5"/>
	</g>
	<g>
		<circle cx="224.854" cy="139.421" r="1.5"/>
	</g>
	<g>
		<circle cx="232.854" cy="139.421" r="1.5"/>
	</g>
	<g>
		<circle cx="240.854" cy="139.421" r="1.5"/>
	</g>
</g>
<g>
	<path d="M560.03,16.921c-1.596-7.445-8.207-13.029-16.127-13.029c-6.423,0-11.977,3.678-14.702,9.035
		c-0.266-0.018-0.53-0.04-0.8-0.04c-6.627,0-11.999,5.372-11.999,12c0,6.607,5.34,11.965,11.938,11.998v0.003h2.062v-2h-1.604
		l-0.447-0.003c-5.485-0.027-9.948-4.513-9.948-9.998c0-5.514,4.485-10,9.999-10c0.175,0,0.347,0.014,0.52,0.025l0.148,0.01
		l1.316,0.088l0.598-1.176c2.492-4.899,7.443-7.942,12.92-7.942c6.79,0,12.75,4.814,14.172,11.448l0.317,1.482l1.514,0.095
		c4.203,0.262,7.496,3.763,7.496,7.971c0,4.397-3.565,7.977-7.957,8c-0.05-0.003-0.093-0.005-0.137-0.007l-2.043,0.007h-2.863v2
		h4.863v-0.007c0.046,0.001,0.091,0.007,0.137,0.007c5.521,0,10-4.477,10-10C569.402,21.577,565.258,17.246,560.03,16.921z"/>
	<circle cx="534.402" cy="44.392" r="1.5"/>
	<circle cx="542.402" cy="50.392" r="1.5"/>
	<circle cx="550.402" cy="46.392" r="1.5"/>
	<rect x="533.402" y="27.916" width="2" height="11.976"/>
	<polygon points="543.402,45.856 543.402,43.916 543.402,31.916 541.402,31.916 541.402,43.916 541.402,45.856 541.402,45.892 
		543.402,45.892 	"/>
	<polygon points="551.402,41.669 551.402,39.916 551.402,27.916 549.402,27.916 549.402,39.916 549.402,41.669 549.402,41.892 
		551.402,41.892 	"/>
</g>
<g>
	<rect x="-188.347" y="88.534" width="2" height="7.973"/>
	<rect x="-207.347" y="107.448" width="7.973" height="2"/>
	<rect x="-202.674" y="96.182" transform="matrix(0.7071 0.7071 -0.7071 0.7071 10.5239 168.9564)" width="7.974" height="2"/>
	<rect x="-177.165" y="93.2" transform="matrix(0.7071 0.7071 -0.7071 0.7071 17.123 153.0325)" width="2" height="7.972"/>
	<path d="M-157.835,114.324c-1.444-6.742-7.433-11.8-14.605-11.8c-2.185,0-4.258,0.47-6.126,1.313
		c-1.667-3.202-5.007-5.394-8.866-5.394c-5.522,0-10,4.477-10,9.999c0,2.46,0.899,4.702,2.373,6.442
		c-1.429,1.84-2.287,4.144-2.287,6.653c0,5.983,4.836,10.836,10.813,10.865v0.003h1.188v-2h-0.721l-0.457-0.003
		c-4.864-0.023-8.822-4.001-8.822-8.865c0-4.89,3.978-8.868,8.867-8.868c0.15,0,0.299,0.012,0.447,0.022l0.148,0.01l1.314,0.085
		l0.597-1.175c2.225-4.372,6.644-7.089,11.532-7.089c6.062,0,11.382,4.298,12.649,10.219l0.318,1.483l1.514,0.094
		c3.708,0.23,6.612,3.319,6.612,7.03c0,3.878-3.144,7.035-7.017,7.057c-0.042-0.003-0.079-0.005-0.117-0.005l-2.047,0.005h-0.819v2
		h2.819v-0.006c0.042,0.001,0.082,0.006,0.124,0.006c5.001,0,9.057-4.054,9.057-9.057
		C-149.347,118.541-153.101,114.619-157.835,114.324z M-185.755,110.707c-0.241-0.016-0.48-0.036-0.725-0.036
		c-2.766,0-5.282,1.041-7.2,2.743c-1.092-1.366-1.753-3.09-1.753-4.971c0-4.41,3.589-7.999,8-7.999c3.091,0,5.76,1.773,7.091,4.345
		C-182.64,106.229-184.52,108.277-185.755,110.707z"/>
	<circle cx="-181.356" cy="140.895" r="1.5"/>
	<circle cx="-173.356" cy="146.895" r="1.5"/>
	<circle cx="-165.356" cy="142.895" r="1.5"/>
	<rect x="-182.356" y="124.419" width="2" height="11.976"/>
	<polygon points="-172.356,142.359 -172.356,140.419 -172.356,128.419 -174.356,128.419 -174.356,140.419 -174.356,142.359 
		-174.356,142.395 -172.356,142.395 	"/>
	<polygon points="-164.356,138.172 -164.356,136.419 -164.356,124.419 -166.356,124.419 -166.356,136.419 -166.356,138.172 
		-166.356,138.395 -164.356,138.395 	"/>
</g>
<g>
	<path d="M-57.232,111.326c-1.444-6.742-7.433-11.8-14.605-11.8c-1.799,0-3.522,0.32-5.118,0.904
		c-0.949-5.108-5.404-8.98-10.788-8.98c-0.413,0-0.819,0.027-1.222,0.071c0.744,1.112,1.179,2.448,1.179,3.886c0,3.865-3.134,7-7,7
		c-1.438,0-2.773-0.435-3.886-1.179c-0.044,0.401-0.071,0.809-0.071,1.222c0,3.712,1.845,6.987,4.661,8.979
		c-1.653,1.907-2.661,4.389-2.661,7.111c0,5.983,4.836,10.836,10.813,10.865v0.003h1.188v-2h-0.721l-0.457-0.003
		c-4.864-0.023-8.822-4.001-8.822-8.865c0-4.89,3.978-8.868,8.867-8.868c0.15,0,0.299,0.012,0.447,0.022l0.148,0.01l1.314,0.085
		l0.597-1.175c2.225-4.372,6.644-7.089,11.532-7.089c6.062,0,11.382,4.298,12.649,10.219l0.318,1.483l1.514,0.094
		c3.708,0.23,6.612,3.319,6.612,7.03c0,3.878-3.144,7.035-7.017,7.057c-0.042-0.003-0.079-0.005-0.117-0.005l-2.047,0.005h-0.819v2
		h2.819v-0.006c0.042,0.001,0.082,0.006,0.124,0.006c5.001,0,9.057-4.054,9.057-9.057
		C-48.744,115.543-52.498,111.621-57.232,111.326z M-85.152,107.709c-0.241-0.016-0.48-0.036-0.725-0.036
		c-2.537,0-4.865,0.876-6.715,2.334c-2.012-1.294-3.487-3.354-3.976-5.776c0.582,0.117,1.178,0.177,1.78,0.177c4.963,0,9-4.037,9-9
		c0-0.603-0.06-1.198-0.177-1.78c3.733,0.753,6.629,3.824,7.133,7.64C-81.542,102.711-83.757,104.966-85.152,107.709z"/>
	<circle cx="-80.744" cy="137.9" r="1.5"/>
	<circle cx="-72.744" cy="143.9" r="1.5"/>
	<circle cx="-64.744" cy="139.9" r="1.5"/>
	<rect x="-81.744" y="121.425" width="2" height="11.976"/>
	<polygon points="-71.744,139.365 -71.744,137.425 -71.744,125.425 -73.744,125.425 -73.744,137.425 -73.744,139.365 -73.744,139.4 
		-71.744,139.4 	"/>
	<polygon points="-63.744,135.178 -63.744,133.425 -63.744,121.425 -65.744,121.425 -65.744,133.425 -65.744,135.178 -65.744,135.4 
		-63.744,135.4 	"/>
</g>
<g>
	<rect x="-205.347" y="215.767" width="56" height="2"/>
	<rect x="-201.347" y="221.767" width="50" height="2"/>
	<rect x="-195.347" y="227.767" width="36" height="2"/>
	<rect x="-203.347" y="209.767" width="52" height="2"/>
	<path d="M-191.473,201.762c0.175,0,0.347,0.014,0.519,0.025l0.149,0.01l1.316,0.088l0.598-1.176
		c2.493-4.899,7.443-7.942,12.92-7.942c6.79,0,12.75,4.814,14.171,11.448l0.318,1.482l1.514,0.095
		c1.207,0.075,2.335,0.425,3.336,0.975h3.286c-1.678-1.703-3.957-2.813-6.498-2.971c-1.596-7.445-8.207-13.029-16.127-13.029
		c-6.423,0-11.977,3.678-14.702,9.035c-0.266-0.018-0.53-0.04-0.8-0.04c-4.843,0-9.004,2.874-10.9,7.005h2.251
		C-198.391,203.78-195.166,201.762-191.473,201.762z"/>
</g>
<g>
	<rect x="-84.244" y="188.252" width="2" height="7.973"/>
	<rect x="-103.244" y="207.166" width="7.973" height="2"/>
	<rect x="-98.571" y="195.9" transform="matrix(0.7071 0.7071 -0.7071 0.7071 111.5259 124.5515)" width="7.974" height="2"/>
	<rect x="-73.062" y="192.918" transform="matrix(0.7071 0.7071 -0.7071 0.7071 118.1251 108.6275)" width="2" height="7.972"/>
	<rect x="-94.244" y="222.126" width="50" height="2"/>
	<rect x="-90.244" y="228.126" width="44" height="2"/>
	<rect x="-84.244" y="233.126" width="30" height="2"/>
	<rect x="-92.244" y="216.126" width="46" height="2"/>
	<path d="M-91.336,214.126h0.771h1.927h1.012c1.472-1.087,3.283-1.737,5.249-1.737c0.15,0,0.299,0.012,0.447,0.022l0.148,0.01
		l1.314,0.085l0.597-1.175c2.225-4.372,6.644-7.089,11.532-7.089c5.945,0,11.168,4.139,12.563,9.884h2.043v-0.084
		c-1.444-6.742-7.433-11.8-14.605-11.8c-2.185,0-4.258,0.47-6.126,1.313c-1.667-3.202-5.007-5.394-8.866-5.394
		c-5.522,0-10,4.477-10,9.999C-93.33,210.402-92.582,212.461-91.336,214.126z M-83.33,200.162c3.091,0,5.76,1.773,7.091,4.345
		c-2.298,1.44-4.178,3.488-5.413,5.918c-0.241-0.016-0.48-0.036-0.725-0.036c-2.764,0-5.274,1.045-7.189,2.745
		c-1.097-1.366-1.764-3.089-1.764-4.973C-91.33,203.751-87.741,200.162-83.33,200.162z"/>
</g>
<g>
	<rect x="4.5" y="218.688" width="50" height="2"/>
	<rect x="8.5" y="224.688" width="44" height="2"/>
	<rect x="14.5" y="229.688" width="30" height="2"/>
	<rect x="6.5" y="212.688" width="46" height="2"/>
	<path d="M8.143,210.688H8.18h1.884h1.055c1.472-1.087,3.283-1.737,5.249-1.737c0.15,0,0.299,0.012,0.447,0.022l0.148,0.01
		l1.314,0.085l0.597-1.175c2.225-4.372,6.644-7.089,11.532-7.089c5.945,0,11.168,4.139,12.563,9.884h2.043v-0.084
		c-1.444-6.742-7.433-11.8-14.605-11.8c-1.799,0-3.521,0.32-5.117,0.903c-0.945-5.111-5.402-8.987-10.789-8.987
		c-0.413,0-0.819,0.027-1.222,0.071c0.744,1.112,1.179,2.448,1.179,3.886c0,3.865-3.134,7-7,7c-1.438,0-2.773-0.435-3.886-1.179
		C3.527,200.9,3.5,201.308,3.5,201.721C3.5,205.425,5.336,208.695,8.143,210.688z M7.457,203.678c4.963,0,9-4.037,9-9
		c0-0.603-0.06-1.198-0.177-1.78c3.735,0.753,6.633,3.828,7.134,7.647c-2.712,1.443-4.927,3.699-6.322,6.442
		c-0.241-0.016-0.48-0.036-0.725-0.036c-2.534,0-4.855,0.879-6.701,2.335c-2.02-1.293-3.5-3.356-3.989-5.785
		C6.259,203.618,6.854,203.678,7.457,203.678z"/>
</g>
<g>
	<path d="M136.392,221.702h-19.474l-0.578-0.003c-5.485-0.027-9.948-4.513-9.948-9.998c0-5.514,4.485-10,9.999-10
		c0.175,0,0.347,0.014,0.519,0.025l0.149,0.01l1.316,0.088l0.598-1.176c2.493-4.899,7.443-7.942,12.92-7.942
		c6.79,0,12.75,4.814,14.171,11.448l0.318,1.482l1.514,0.095c1.822,0.113,3.463,0.845,4.746,1.971h2.732
		c-1.707-2.262-4.348-3.78-7.354-3.967c-1.596-7.445-8.207-13.029-16.127-13.029c-6.423,0-11.977,3.678-14.702,9.035
		c-0.266-0.018-0.53-0.04-0.8-0.04c-6.627,0-11.999,5.372-11.999,12c0,6.607,5.34,11.965,11.938,11.998v0.003h20.062
		c2.205,0,4,1.794,4,4s-1.795,4-4,4v2c3.314,0,6-2.686,6-6C142.392,224.389,139.706,221.702,136.392,221.702z"/>
	<path d="M140.392,217.702h-15.988v2h15.988c3.314,0,6-2.687,6-6c0-3.314-2.686-6-6-6v2c2.205,0,4,1.794,4,4
		S142.597,217.702,140.392,217.702z"/>
	<path d="M153.392,211.702c1.654,0,3,1.346,3,3s-1.346,3-3,3c-0.043,0-0.083-0.011-0.126-0.013h-4.862
		c0.003,0.005,0.009,0.008,0.012,0.013h-0.023v2h5.5v-0.051c2.523-0.254,4.5-2.358,4.5-4.949c0-2.762-2.238-5-5-5V211.702z"/>
	<path d="M157.392,221.702h-13v2h9.022c-0.004,0.005-0.008,0.008-0.011,0.013h3.862c0.043-0.002,0.083-0.013,0.126-0.013
		c1.654,0,3,1.346,3,3s-1.346,3-3,3v2c2.762,0,5-2.238,5-5S160.153,221.702,157.392,221.702z"/>
	<rect x="118.392" y="217.702" width="4" height="2"/>
</g>
<path d="M-71.17-177.401c6.95,1.305,12.226,7.419,12.226,14.742c0,8.272-6.729,15.002-15,15.002c-6.79,0-12.531-4.49-14.366-10.728
	c1.398,0.461,2.867,0.698,4.366,0.698c7.72,0,14-6.281,14-14.001C-69.944-173.672-70.368-175.616-71.17-177.401 M-73.944-179.658
	c-0.338,0-0.668,0.031-1,0.051c1.861,2.113,3,4.881,3,7.92c0,6.627-5.372,12.001-12,12.001c-2.599,0-4.998-0.835-6.963-2.239
	c0.387,9.047,7.821,16.269,16.963,16.269c9.39,0,17-7.612,17-17.002S-64.555-179.658-73.944-179.658L-73.944-179.658z"/>
<g>
	<path d="M-177.34-174.663c-7.18,0-13,5.819-13,12.999c0,7.181,5.82,13.002,13,13.002s13-5.821,13-13.002
		C-164.34-168.844-170.16-174.663-177.34-174.663z M-177.34-150.662c-6.065,0-11-4.936-11-11.002c0-6.064,4.935-10.999,11-10.999
		s11,4.935,11,10.999C-166.34-155.598-171.274-150.662-177.34-150.662z"/>
	<rect x="-178.347" y="-187.657" width="2" height="10"/>
	<rect x="-178.347" y="-145.657" width="2" height="10"/>
	<rect x="-203.34" y="-162.657" width="9.993" height="2"/>
	<rect x="-161.347" y="-162.657" width="10.007" height="2"/>
	<rect x="-163.647" y="-181.571" transform="matrix(0.7071 0.7071 -0.7071 0.7071 -172.3483 63.3522)" width="2" height="10.409"/>
	
		<rect x="-193.056" y="-152.162" transform="matrix(-0.7071 -0.7071 0.7071 -0.7071 -223.9449 -386.676)" width="2" height="10.41"/>
	<rect x="-197.256" y="-177.362" transform="matrix(0.7071 0.7071 -0.7071 0.7071 -180.9572 84.1456)" width="10.409" height="2"/>
	
		<rect x="-167.847" y="-147.953" transform="matrix(-0.7072 -0.7071 0.7071 -0.7072 -173.7516 -365.8688)" width="10.41" height="2"/>
</g>
<g>
	<rect x="220.826" y="183.204" width="2" height="7.973"/>
	<rect x="201.854" y="202.19" width="7.973" height="2"/>
	<rect x="206.579" y="190.972" transform="matrix(0.7071 0.7071 -0.7071 0.7071 197.418 -92.6657)" width="7.974" height="2"/>
	<rect x="232.088" y="187.99" transform="matrix(0.7071 0.7071 -0.7071 0.7071 204.0171 -108.5897)" width="2" height="7.972"/>
	<path d="M235.854,225.204l0.005-0.007h-12.536l-0.594-0.003c-4.864-0.024-8.822-4.001-8.822-8.865c0-4.89,3.978-8.868,8.867-8.868
		c0.15,0,0.299,0.012,0.447,0.021l0.148,0.011l1.314,0.085l0.597-1.174c2.225-4.373,6.644-7.09,11.532-7.09
		c5.916,0,11.114,4.099,12.54,9.8h2.065c-1.444-6.742-7.433-11.8-14.605-11.8c-2.185,0-4.258,0.47-6.126,1.313
		c-1.667-3.202-5.007-5.394-8.866-5.394c-5.522,0-10,4.477-10,9.999c0,2.46,0.899,4.702,2.373,6.442
		c-1.429,1.84-2.287,4.144-2.287,6.653c0,5.983,4.836,10.836,10.813,10.865v0.003h13.135v0.007c2.205,0,4,1.794,4,4s-1.795,4-4,4v2
		c3.314,0,6-2.686,6-6C241.854,227.891,239.168,225.204,235.854,225.204z M221.82,195.234c3.091,0,5.76,1.773,7.091,4.345
		c-2.298,1.439-4.178,3.488-5.413,5.918c-0.241-0.016-0.48-0.036-0.725-0.036c-2.766,0-5.282,1.042-7.2,2.743
		c-1.092-1.367-1.753-3.09-1.753-4.971C213.82,198.823,217.409,195.234,221.82,195.234z"/>
	<path d="M239.854,221.204h-9.988v2h9.988c3.314,0,6-2.687,6-6c0-3.314-2.686-6-6-6v2c2.205,0,4,1.794,4,4
		S242.059,221.204,239.854,221.204z"/>
	<path d="M247.877,221.204h-0.023v2h5.5v-0.051c2.523-0.254,4.5-2.358,4.5-4.949c0-2.762-2.238-5-5-5v2c1.654,0,3,1.346,3,3
		s-1.346,3-3,3c-0.043,0-0.083-0.011-0.126-0.013h-4.862C247.868,221.196,247.874,221.2,247.877,221.204z"/>
	<path d="M256.854,225.204h-13v2h9.022c-0.004,0.004-0.008,0.008-0.011,0.013h3.862c0.043-0.002,0.083-0.013,0.126-0.013
		c1.654,0,3,1.346,3,3s-1.346,3-3,3v2c2.762,0,5-2.238,5-5S259.615,225.204,256.854,225.204z"/>
	<rect x="223.854" y="221.204" width="4" height="2"/>
</g>
<g>
	<path d="M335.815,223.198l0.005-0.007h-12.536l-0.594-0.003c-4.864-0.024-8.822-4.001-8.822-8.865c0-4.89,3.978-8.868,8.867-8.868
		c0.15,0,0.299,0.012,0.447,0.021l0.148,0.011l1.314,0.085l0.597-1.174c2.225-4.373,6.644-7.09,11.532-7.09
		c5.916,0,11.114,4.099,12.54,9.8h2.065c-1.444-6.742-7.433-11.8-14.605-11.8c-1.806,0-3.536,0.322-5.138,0.91
		c-0.938-5.123-5.4-9.01-10.794-9.01c-0.413,0-0.819,0.027-1.222,0.071c0.744,1.112,1.179,2.448,1.179,3.886c0,3.865-3.134,7-7,7
		c-1.438,0-2.773-0.435-3.886-1.179c-0.044,0.401-0.071,0.809-0.071,1.222c0,3.725,1.858,7.009,4.69,8.998
		c-1.655,1.907-2.665,4.392-2.665,7.116c0,5.983,4.836,10.836,10.813,10.865v0.003h13.135v0.007c2.205,0,4,1.794,4,4s-1.795,4-4,4v2
		c3.314,0,6-2.686,6-6C341.815,225.885,339.13,223.198,335.815,223.198z M312.02,199.989c0.582,0.117,1.178,0.177,1.78,0.177
		c4.963,0,9-4.037,9-9c0-0.603-0.06-1.198-0.177-1.78c3.744,0.755,6.646,3.842,7.138,7.674c-2.702,1.444-4.909,3.696-6.301,6.432
		c-0.241-0.016-0.48-0.036-0.725-0.036c-2.535,0-4.861,0.875-6.71,2.33C313.997,204.493,312.511,202.425,312.02,199.989z"/>
	<path d="M339.815,219.198h-9.988v2h9.988c3.314,0,6-2.687,6-6c0-3.314-2.686-6-6-6v2c2.205,0,4,1.794,4,4
		S342.021,219.198,339.815,219.198z"/>
	<path d="M347.839,219.198h-0.023v2h5.5v-0.051c2.523-0.254,4.5-2.358,4.5-4.949c0-2.762-2.238-5-5-5v2c1.654,0,3,1.346,3,3
		s-1.346,3-3,3c-0.043,0-0.083-0.011-0.126-0.013h-4.862C347.83,219.19,347.836,219.194,347.839,219.198z"/>
	<path d="M356.815,223.198h-13v2h9.022c-0.004,0.004-0.008,0.008-0.011,0.013h3.862c0.043-0.002,0.083-0.013,0.126-0.013
		c1.654,0,3,1.346,3,3s-1.346,3-3,3v2c2.762,0,5-2.238,5-5S359.577,223.198,356.815,223.198z"/>
	<rect x="323.815" y="219.198" width="4" height="2"/>
</g>
<g>
	<rect x="436.708" y="185.767" width="2" height="10"/>
	<rect x="411.715" y="210.767" width="9.993" height="2"/>
	<rect x="451.408" y="191.853" transform="matrix(0.7071 0.7071 -0.7071 0.7071 271.8476 -262.1838)" width="2" height="10.409"/>
	<rect x="417.799" y="196.062" transform="matrix(0.7071 0.7071 -0.7071 0.7071 263.2387 -241.3904)" width="10.409" height="2"/>
	<path d="M441.708,225.767h-24v2h24c2.205,0,4,1.794,4,4s-1.795,4-4,4v2c3.314,0,6-2.686,6-6
		C447.708,228.453,445.022,225.767,441.708,225.767z"/>
	<path d="M453.731,221.767h-0.023v2h5.5v-0.051c2.523-0.254,4.5-2.358,4.5-4.949c0-2.762-2.238-5-5-5v2c1.654,0,3,1.346,3,3
		s-1.346,3-3,3c-0.043,0-0.083-0.011-0.126-0.013h-4.862C453.723,221.759,453.729,221.763,453.731,221.767z"/>
	<path d="M462.708,225.767h-13v2h9.022c-0.004,0.004-0.008,0.008-0.011,0.013h3.862c0.043-0.002,0.083-0.013,0.126-0.013
		c1.654,0,3,1.346,3,3s-1.346,3-3,3v2c2.762,0,5-2.238,5-5S465.47,225.767,462.708,225.767z"/>
	<path d="M429.417,221.767h-11.709v2h12.012h0.822h15.166c3.314,0,6-2.687,6-6c0-3.314-2.686-6-6-6v2c2.205,0,4,1.794,4,4
		s-1.795,4-4,4H433.17c-3.802-1.734-6.455-5.563-6.455-10.007c0-6.064,4.935-10.999,11-10.999c5.384,0,9.868,3.891,10.81,9.006
		h2.021c-0.961-6.23-6.331-11.006-12.831-11.006c-7.18,0-13,5.819-13,12.999C424.715,215.785,426.545,219.382,429.417,221.767z"/>
</g>
<g>
	<path d="M541.935,219.21h-24v2h24c2.205,0,4,1.794,4,4s-1.795,4-4,4v2c3.314,0,6-2.686,6-6
		C547.935,221.896,545.249,219.21,541.935,219.21z"/>
	<path d="M559.435,217.21v-0.051c2.523-0.254,4.5-2.358,4.5-4.949c0-2.762-2.238-5-5-5v2c1.654,0,3,1.346,3,3s-1.346,3-3,3
		c-0.043,0-0.083-0.011-0.126-0.013h-4.862c0.004,0.005,0.009,0.009,0.012,0.013h-0.023v2H559.435z"/>
	<path d="M562.935,219.21h-13v2h9.022c-0.003,0.004-0.007,0.008-0.011,0.013h3.862c0.043-0.002,0.083-0.013,0.126-0.013
		c1.654,0,3,1.346,3,3s-1.346,3-3,3v2c2.762,0,5-2.238,5-5S565.696,219.21,562.935,219.21z"/>
	<path d="M530.769,217.21h15.166c3.314,0,6-2.687,6-6c0-3.314-2.686-6-6-6v2c2.205,0,4,1.794,4,4s-1.795,4-4,4h-12.586
		c-2.596-1.188-4.658-3.339-5.69-6.034c0.849,0.204,1.724,0.309,2.612,0.309c6.168,0,11.187-5.019,11.187-11.188
		c0-1.276-0.22-2.532-0.64-3.717c4.046,1.102,7.168,4.459,7.937,8.63h2.018c-0.964-6.237-6.338-11.016-12.846-11.016
		c-0.259,0-0.511,0.024-0.766,0.039c1.425,1.618,2.297,3.737,2.297,6.063c0,5.072-4.112,9.188-9.187,9.188
		c-1.988,0-3.826-0.641-5.33-1.715c0.162,3.801,1.962,7.165,4.699,9.44h-11.705v2h12.012H530.769z"/>
</g>
<g>
	<path d="M-177.847,304.403h-20c-1.103,0-2-0.897-2-2s0.897-2,2-2h3.445h0.555v-2h-4c-2.209,0-4,1.791-4,4s1.791,4,4,4h20
		c2.205,0,4,1.794,4,4s-1.795,4-4,4v2c3.314,0,6-2.686,6-6C-171.847,307.09-174.532,304.403-177.847,304.403z"/>
	<path d="M-175.847,288.403v2c2.205,0,4,1.794,4,4s-1.795,4-4,4h-15.988v2h15.988c3.314,0,6-2.687,6-6
		C-169.847,291.089-172.532,288.403-175.847,288.403z"/>
	<path d="M-169.847,300.403v2h5.5v-0.051c2.523-0.254,4.5-2.358,4.5-4.949c0-2.762-2.238-5-5-5v2c1.654,0,3,1.346,3,3s-1.346,3-3,3
		c-0.043,0-0.083-0.011-0.126-0.013h-4.862c0.003,0.005,0.009,0.009,0.012,0.013H-169.847z"/>
	<path d="M-158.847,304.403h-11v2h7.022c-0.004,0.004-0.008,0.008-0.011,0.013h3.862c0.043-0.002,0.083-0.013,0.126-0.013
		c1.654,0,3,1.346,3,3s-1.346,3-3,3v2c2.762,0,5-2.238,5-5S-156.085,304.403-158.847,304.403z"/>
</g>
<path d="M358.445,290.75v-0.038h-38.376c-1.103,0-2-0.897-2-2s0.897-2,2-2h33c2.762,0,5-2.238,5-5s-2.238-5-5-5h-37.875v0.008
	c-0.042-0.001-0.083-0.008-0.125-0.008c-2.762,0-5,2.238-5,5s2.238,5,5,5v-2c-1.654,0-3-1.346-3-3s1.346-3,3-3h0.125h3.853h34.022
	c1.654,0,3,1.346,3,3s-1.346,3-3,3h-33c-2.209,0-4,1.791-4,4s1.791,4,4,4h38c1.103,0,2,0.897,2,2s-0.897,2-2,2h-32
	c-2.209,0-4,1.791-4,4s1.791,4,4,4h22c1.103,0,2,0.897,2,2s-0.897,2-2,2h-24.01v0.001c-2.204,0.006-3.99,1.793-3.99,3.999
	s1.786,3.993,3.99,3.999v0.001h12.01c1.103,0,2,0.897,2,2s-0.897,2-2,2h-2c-2.209,0-4,1.791-4,4s1.791,4,4,4v-2
	c-1.103,0-2-0.897-2-2s0.897-2,2-2h2c2.209,0,4-1.791,4-4s-1.791-4-4-4h-12c-1.103,0-2-0.897-2-2s0.897-2,2-2h24
	c2.209,0,4-1.791,4-4c0-2.152-1.704-3.895-3.834-3.983v-0.017h-22.166c-1.103,0-2-0.897-2-2s0.897-2,2-2h32c2.209,0,4-1.791,4-4
	C362.069,292.632,360.476,290.942,358.445,290.75z"/>
<path d="M543.86,281.428v-2.024h-2v2.024c-13.01,0.513-23.462,10.965-23.975,23.976h1.674c1.14-1.222,2.748-2,4.551-2
	c2.26,0,4.233,1.203,5.331,3h1.838c1.098-1.797,3.071-3,5.331-3c2.204,0,4.137,1.144,5.25,2.866v15.134c0,2.21,1.791,4,4,4
	s4-1.79,4-4h-2c0,1.103-0.897,2-2,2s-2-0.897-2-2V306.27c1.113-1.723,3.046-2.866,5.25-2.866c2.26,0,4.233,1.203,5.331,3h1.838
	c1.098-1.797,3.071-3,5.331-3c1.803,0,3.411,0.778,4.551,2h1.674C567.322,292.393,556.87,281.94,543.86,281.428z M561.61,301.403
	c-2.496,0-4.736,1.114-6.25,2.87c-1.514-1.756-3.754-2.87-6.25-2.87s-4.736,1.114-6.25,2.87c-1.514-1.756-3.754-2.87-6.25-2.87
	s-4.736,1.114-6.25,2.87c-1.514-1.756-3.755-2.87-6.25-2.87c-1.402,0-2.731,0.351-3.897,0.975
	c1.909-10.769,11.339-18.975,22.647-18.975s20.738,8.206,22.647,18.975C564.342,301.754,563.013,301.403,561.61,301.403z"/>
<g>
	<path d="M138.565,405.716V388.61c0-2.762-2.238-5-5-5s-5,2.238-5,5v17.105c-1.236,1.263-2,2.988-2,4.895c0,3.866,3.134,7,7,7
		s7-3.134,7-7C140.565,408.704,139.802,406.979,138.565,405.716z M133.565,415.61c-2.757,0-5-2.243-5-5
		c0-1.313,0.508-2.554,1.429-3.495l0.571-0.583v-0.816V388.61c0-1.654,1.346-3,3-3s3,1.346,3,3v17.105v0.816l0.571,0.583
		c0.921,0.941,1.429,2.183,1.429,3.495C138.565,413.367,136.322,415.61,133.565,415.61z"/>
	<path d="M134.565,407.786V392.61h-2v15.176c-1.167,0.413-2.008,1.516-2.008,2.824c0,1.662,1.347,3.008,3.008,3.008
		c1.662,0,3.008-1.346,3.008-3.008C136.573,409.302,135.733,408.199,134.565,407.786z M133.565,411.618
		c-0.556,0-1.008-0.452-1.008-1.008s0.452-1.008,1.008-1.008s1.008,0.452,1.008,1.008S134.121,411.618,133.565,411.618z"/>
</g>
<g>
	<path d="M238.354,405.716V388.61c0-2.762-2.238-5-5-5s-5,2.238-5,5v17.105c-1.236,1.263-2,2.988-2,4.895c0,3.866,3.134,7,7,7
		s7-3.134,7-7C240.354,408.704,239.59,406.979,238.354,405.716z M233.354,415.61c-2.757,0-5-2.243-5-5
		c0-1.313,0.508-2.554,1.429-3.495l0.571-0.583v-0.816V388.61c0-1.654,1.346-3,3-3s3,1.346,3,3v17.105v0.816l0.571,0.583
		c0.921,0.941,1.429,2.183,1.429,3.495C238.354,413.367,236.11,415.61,233.354,415.61z"/>
	<path d="M234.354,407.786V387.61h-2v20.176c-1.167,0.413-2.008,1.516-2.008,2.824c0,1.662,1.347,3.008,3.008,3.008
		c1.662,0,3.008-1.346,3.008-3.008C236.361,409.302,235.521,408.199,234.354,407.786z M233.354,411.618
		c-0.556,0-1.008-0.452-1.008-1.008s0.452-1.008,1.008-1.008s1.008,0.452,1.008,1.008S233.909,411.618,233.354,411.618z"/>
</g>
<g>
	<path d="M35.456,405.716V388.61c0-2.762-2.238-5-5-5s-5,2.238-5,5v17.105c-1.236,1.263-2,2.988-2,4.895c0,3.866,3.134,7,7,7
		s7-3.134,7-7C37.456,408.704,36.692,406.979,35.456,405.716z M30.456,415.61c-2.757,0-5-2.243-5-5c0-1.313,0.508-2.554,1.429-3.495
		l0.571-0.583v-0.816V388.61c0-1.654,1.346-3,3-3s3,1.346,3,3v17.105v0.816l0.571,0.583c0.921,0.941,1.429,2.183,1.429,3.495
		C35.456,413.367,33.213,415.61,30.456,415.61z"/>
	<path d="M31.456,407.786V397.61h-2v10.176c-1.167,0.413-2.008,1.516-2.008,2.824c0,1.662,1.347,3.008,3.008,3.008
		c1.662,0,3.008-1.346,3.008-3.008C33.464,409.302,32.624,408.199,31.456,407.786z M30.456,411.618
		c-0.556,0-1.008-0.452-1.008-1.008s0.452-1.008,1.008-1.008s1.008,0.452,1.008,1.008S31.012,411.618,30.456,411.618z"/>
</g>
<g>
	<path d="M-68.189,405.716V388.61c0-2.762-2.238-5-5-5s-5,2.238-5,5v17.105c-1.236,1.263-2,2.988-2,4.895c0,3.866,3.134,7,7,7
		s7-3.134,7-7C-66.189,408.704-66.953,406.979-68.189,405.716z M-73.189,415.61c-2.757,0-5-2.243-5-5
		c0-1.313,0.508-2.554,1.429-3.495l0.571-0.583v-0.816V388.61c0-1.654,1.346-3,3-3s3,1.346,3,3v17.105v0.816l0.571,0.583
		c0.921,0.941,1.429,2.183,1.429,3.495C-68.189,413.367-70.433,415.61-73.189,415.61z"/>
	<path d="M-72.189,407.786v-5.176h-2v5.176c-1.167,0.413-2.008,1.516-2.008,2.824c0,1.662,1.347,3.008,3.008,3.008
		c1.662,0,3.008-1.346,3.008-3.008C-70.182,409.302-71.021,408.199-72.189,407.786z M-73.189,411.618
		c-0.556,0-1.008-0.452-1.008-1.008s0.452-1.008,1.008-1.008s1.008,0.452,1.008,1.008S-72.634,411.618-73.189,411.618z"/>
</g>
<g>
	<path d="M-172.847,405.716V388.61c0-2.762-2.238-5-5-5s-5,2.238-5,5v17.105c-1.236,1.263-2,2.988-2,4.895c0,3.866,3.134,7,7,7
		s7-3.134,7-7C-170.847,408.704-171.61,406.979-172.847,405.716z M-177.847,415.61c-2.757,0-5-2.243-5-5
		c0-1.313,0.508-2.554,1.429-3.495l0.571-0.583v-0.816V388.61c0-1.654,1.346-3,3-3s3,1.346,3,3v17.105v0.816l0.571,0.583
		c0.921,0.941,1.429,2.183,1.429,3.495C-172.847,413.367-175.09,415.61-177.847,415.61z"/>
	<path d="M-177.847,407.603c-1.661,0-3.008,1.347-3.008,3.008c0,1.662,1.347,3.008,3.008,3.008c1.662,0,3.008-1.346,3.008-3.008
		C-174.839,408.949-176.185,407.603-177.847,407.603z M-177.847,411.618c-0.556,0-1.008-0.452-1.008-1.008s0.452-1.008,1.008-1.008
		s1.008,0.452,1.008,1.008S-177.291,411.618-177.847,411.618z"/>
</g>
<g>
	<path d="M327.078,385.923c-2.209,0-4,1.791-4,4c0,2.21,1.791,4,4,4c2.211,0,4-1.79,4-4
		C331.078,387.714,329.289,385.923,327.078,385.923z M327.078,391.923c-1.103,0-2-0.897-2-2s0.897-2,2-2s2,0.897,2,2
		S328.181,391.923,327.078,391.923z"/>
	<path d="M341.078,413.923c-4.41,0-7.999-3.589-7.999-7.999v-4.002c0-4.41,3.589-7.999,7.999-7.999c2.715,0,5.115,1.362,6.563,3.437
		l1.43-1.43c-1.824-2.429-4.72-4.007-7.992-4.007c-5.522,0-9.999,4.478-9.999,9.999v4.002c0,5.521,4.477,9.999,9.999,9.999
		c3.272,0,6.168-1.579,7.992-4.008l-1.43-1.43C346.194,412.56,343.794,413.923,341.078,413.923z"/>
</g>
<g>
	<path d="M431.774,385.802c-2.209,0-4,1.791-4,4c0,2.21,1.791,4,4,4c2.211,0,4-1.79,4-4
		C435.774,387.593,433.985,385.802,431.774,385.802z M431.774,391.802c-1.103,0-2-0.897-2-2s0.897-2,2-2s2,0.897,2,2
		S432.877,391.802,431.774,391.802z"/>
	<polygon points="451.649,393.923 451.649,391.923 439.649,391.923 437.649,391.923 437.649,415.923 439.649,415.923 
		439.649,403.923 447.649,403.923 447.649,401.923 439.649,401.923 439.649,393.923 	"/>
</g>
<g>
	<path d="M542.86,389.614c-7.179,0-13,5.82-13,13s5.821,13,13,13s13-5.82,13-13S550.039,389.614,542.86,389.614z M542.86,413.614
		c-6.065,0-11-4.935-11-11s4.935-11,11-11s11,4.935,11,11S548.926,413.614,542.86,413.614z"/>
	<path d="M538.594,406.856l6.363-2.121l2.121-6.364l-6.363,2.122L538.594,406.856z M542.296,402.074l1.62-0.54l-0.54,1.62
		l-1.62,0.54L542.296,402.074z"/>
</g>
<g>
	<path d="M-177.847,480.132c-7.179,0-13,5.82-13,13s5.821,13,13,13s13-5.82,13-13S-170.668,480.132-177.847,480.132z
		 M-177.847,504.132c-6.065,0-11-4.934-11-11c0-6.064,4.935-11,11-11s11,4.936,11,11
		C-166.847,499.198-171.781,504.132-177.847,504.132z"/>
	<path d="M-175.285,491.554l-2.586-4.422l-2.529,4.33h0.007c-0.299,0.467-0.478,1.018-0.478,1.613c0,1.656,1.343,3,3,3s3-1.344,3-3
		c0-0.559-0.162-1.074-0.428-1.521H-175.285z M-177.871,494.075c-0.552,0-1-0.449-1-1c0-0.188,0.055-0.367,0.162-0.535l0.864-1.355
		l0.826,1.391c0.098,0.164,0.147,0.332,0.147,0.5C-176.871,493.626-177.319,494.075-177.871,494.075z"/>
</g>
<g>
	<path d="M-73.063,480.132c-7.18,0-13,5.82-13,13s5.82,13,13,13s13-5.82,13-13S-65.883,480.132-73.063,480.132z M-73.063,504.132
		c-6.065,0-11-4.934-11-11c0-6.064,4.935-11,11-11s11,4.936,11,11C-62.063,499.198-66.997,504.132-73.063,504.132z"/>
	<path d="M-71.474,490.552c-0.467-0.299-1.018-0.477-1.613-0.477c-1.658,0-3,1.342-3,3c0,1.656,1.342,3,3,3
		c0.557,0,1.072-0.162,1.52-0.428v0.014l4.422-2.586l-4.328-2.529V490.552z M-72.589,493.927c-0.164,0.098-0.332,0.148-0.498,0.148
		c-0.552,0-1-0.449-1-1c0-0.553,0.448-1,1-1c0.188,0,0.368,0.053,0.535,0.16l1.355,0.865L-72.589,493.927z"/>
</g>
<g>
	<path d="M29.988,480.132c-7.18,0-13,5.82-13,13s5.82,13,13,13s13-5.82,13-13S37.168,480.132,29.988,480.132z M29.988,504.132
		c-6.065,0-11-4.934-11-11c0-6.064,4.935-11,11-11s11,4.936,11,11C40.988,499.198,36.054,504.132,29.988,504.132z"/>
	<path d="M29.988,490.075c-1.656,0-3,1.342-3,3c0,0.557,0.162,1.072,0.428,1.52h-0.014l2.586,4.422l2.529-4.328h-0.006
		c0.299-0.467,0.477-1.018,0.477-1.613C32.988,491.417,31.646,490.075,29.988,490.075z M30.827,493.61l-0.865,1.355l-0.826-1.393
		c-0.098-0.164-0.147-0.332-0.147-0.498c0-0.553,0.448-1,1-1s1,0.447,1,1C30.988,493.263,30.935,493.442,30.827,493.61z"/>
</g>
<g>
	<path d="M133.402,480.132c-7.179,0-13,5.82-13,13s5.821,13,13,13s13-5.82,13-13S140.581,480.132,133.402,480.132z M133.402,504.132
		c-6.065,0-11-4.934-11-11c0-6.064,4.935-11,11-11s11,4.936,11,11C144.402,499.198,139.468,504.132,133.402,504.132z"/>
	<path d="M133.361,490.075c-0.557,0-1.072,0.162-1.52,0.428v-0.014l-4.422,2.586l4.328,2.529v-0.006
		c0.467,0.299,1.018,0.477,1.613,0.477c1.658,0,3-1.342,3-3C136.361,491.419,135.02,490.075,133.361,490.075z M133.361,494.075
		c-0.188,0-0.368-0.055-0.535-0.162l-1.355-0.865l1.393-0.826c0.164-0.098,0.332-0.146,0.498-0.146c0.552,0,1,0.447,1,1
		C134.361,493.626,133.913,494.075,133.361,494.075z"/>
</g>
<g>
	<rect x="-74.749" y="283.403" width="2" height="10"/>
	<rect x="-60.049" y="289.489" transform="matrix(0.7071 0.7071 -0.7071 0.7071 191.0849 128.068)" width="2" height="10.409"/>
	<rect x="-93.658" y="293.699" transform="matrix(0.7071 0.7071 -0.7071 0.7071 182.476 148.8614)" width="10.409" height="2"/>
	<polygon points="-80.417,312.657 -79.003,314.071 -74.749,309.817 -74.749,319.403 -72.749,319.403 -72.749,309.817 
		-68.496,314.071 -67.082,312.657 -73.749,305.989 	"/>
	<path d="M-60.742,309.402c0-0.002,0-0.004,0-0.006c0-7.18-5.82-12.999-13-12.999s-13,5.819-13,12.999c0,0.002,0,0.004,0,0.006h-13
		v2h18v-2h-3c0-0.002,0-0.004,0-0.006c0-6.064,4.935-10.999,11-10.999s11,4.935,11,10.999c0,0.002,0,0.004,0,0.006h-3v2h17.995v-2
		H-60.742z"/>
</g>
<g>
	<rect x="28.996" y="282.216" width="2" height="10"/>
	<rect x="43.696" y="288.302" transform="matrix(0.7071 0.7071 -0.7071 0.7071 220.6314 54.3613)" width="2" height="10.409"/>
	<rect x="10.087" y="292.511" transform="matrix(0.7071 0.7071 -0.7071 0.7071 212.0226 75.1547)" width="10.409" height="2"/>
	<polygon points="30.996,316.763 30.996,306.216 28.996,306.216 28.996,316.763 24.742,312.509 23.328,313.923 29.996,320.591 
		36.663,313.923 35.249,312.509 	"/>
	<path d="M43.003,308.215c0-0.002,0-0.004,0-0.006c0-7.18-5.82-12.999-13-12.999s-13,5.819-13,12.999c0,0.002,0,0.004,0,0.006h-13v2
		h22v-2h-7c0-0.002,0-0.004,0-0.006c0-6.064,4.935-10.999,11-10.999s11,4.935,11,10.999c0,0.002,0,0.004,0,0.006h-7v2h21.995v-2
		H43.003z"/>
</g>
<g>
	<polygon points="233.354,316.229 233.354,301.846 231.354,301.846 231.354,316.229 227.1,311.975 225.686,313.389 232.354,320.057 
		239.021,313.389 237.606,311.975 	"/>
	<path d="M248.981,296.875c-1.596-7.445-8.207-13.029-16.127-13.029c-6.423,0-11.977,3.678-14.702,9.035
		c-0.266-0.018-0.53-0.04-0.8-0.04c-6.627,0-11.999,5.372-11.999,12c0,6.607,5.34,11.965,11.938,11.998v0.003h6.062v-2h-5.604
		l-0.447-0.003c-5.485-0.027-9.948-4.513-9.948-9.998c0-5.514,4.485-10,9.999-10c0.175,0,0.347,0.014,0.52,0.025l0.148,0.01
		l1.316,0.088l0.598-1.176c2.492-4.899,7.443-7.942,12.92-7.942c6.79,0,12.75,4.814,14.172,11.448l0.317,1.482l1.514,0.095
		c4.203,0.262,7.496,3.763,7.496,7.971c0,4.397-3.565,7.977-7.957,8c-0.05-0.003-0.093-0.005-0.137-0.007l-2.043,0.007h-4.863v2
		h6.863v-0.007c0.046,0.001,0.091,0.007,0.137,0.007c5.521,0,10-4.477,10-10C258.354,301.531,254.209,297.2,248.981,296.875z"/>
</g>
<g>
	<polygon points="139.338,313.033 140.752,311.619 134.085,304.951 127.417,311.619 128.831,313.033 133.085,308.779 
		133.085,321.365 135.085,321.365 135.085,308.779 	"/>
	<path d="M150.713,298.471c-1.596-7.445-8.207-13.029-16.127-13.029c-6.423,0-11.977,3.678-14.702,9.035
		c-0.266-0.018-0.53-0.04-0.8-0.04c-6.627,0-11.999,5.372-11.999,12c0,6.607,5.34,11.965,11.938,11.998v0.003h10.062v-2h-9.604
		l-0.447-0.003c-5.485-0.027-9.948-4.513-9.948-9.998c0-5.514,4.485-10,9.999-10c0.175,0,0.347,0.014,0.52,0.025l0.148,0.01
		l1.316,0.088l0.598-1.176c2.492-4.899,7.443-7.942,12.92-7.942c6.79,0,12.75,4.814,14.172,11.448l0.317,1.482l1.514,0.095
		c4.203,0.262,7.496,3.763,7.496,7.971c0,4.397-3.565,7.977-7.957,8c-0.05-0.003-0.093-0.005-0.137-0.007l-2.043,0.007h-8.863v2
		h10.863v-0.007c0.046,0.001,0.091,0.007,0.137,0.007c5.521,0,10-4.477,10-10C160.085,303.127,155.94,298.796,150.713,298.471z"/>
</g>
<g>
	<path d="M353.202,108.955c-1.596-7.445-8.207-13.029-16.127-13.029c-6.423,0-11.977,3.678-14.702,9.035
		c-0.266-0.018-0.53-0.04-0.8-0.04c-6.627,0-11.999,5.372-11.999,12c0,6.607,5.34,11.965,11.938,11.998v0.003h2.062v-2h-1.604
		l-0.447-0.003c-5.485-0.027-9.948-4.513-9.948-9.998c0-5.514,4.485-10,9.999-10c0.175,0,0.347,0.014,0.52,0.025l0.148,0.01
		l1.316,0.088l0.598-1.176c2.492-4.899,7.443-7.942,12.92-7.942c6.79,0,12.75,4.814,14.172,11.448l0.317,1.482l1.514,0.095
		c4.203,0.262,7.496,3.763,7.496,7.971c0,4.397-3.565,7.977-7.957,8c-0.05-0.003-0.093-0.005-0.137-0.007l-2.043,0.007h-0.863v2
		h2.863v-0.007c0.046,0.001,0.091,0.007,0.137,0.007c5.521,0,10-4.477,10-10C362.574,113.611,358.43,109.28,353.202,108.955z"/>
	<polygon points="331.574,127.943 331.574,125.313 333.747,126.536 334.433,125.315 331.963,123.926 334.433,122.536 
		333.747,121.315 331.574,122.538 331.574,119.943 329.574,119.943 329.574,122.582 327.323,121.315 326.638,122.536 
		329.107,123.926 326.638,125.315 327.323,126.536 329.574,125.27 329.574,127.943 	"/>
	<polygon points="336.736,132.298 334.563,133.521 334.563,130.926 332.563,130.926 332.563,133.564 330.313,132.298 
		329.627,133.519 332.097,134.908 329.627,136.298 330.313,137.519 332.563,136.252 332.563,138.926 334.563,138.926 
		334.563,136.296 336.736,137.519 337.422,136.298 334.952,134.908 337.422,133.519 	"/>
	<polygon points="345.752,125.315 343.579,126.538 343.579,123.943 341.579,123.943 341.579,126.582 339.328,125.315 
		338.643,126.536 341.112,127.926 338.643,129.315 339.328,130.536 341.579,129.27 341.579,131.943 343.579,131.943 
		343.579,129.313 345.752,130.536 346.438,129.315 343.968,127.926 346.438,126.536 	"/>
</g>
<g>
	<rect x="428.714" y="90.903" width="2" height="7.973"/>
	<rect x="409.714" y="109.817" width="7.973" height="2"/>
	<rect x="414.387" y="98.551" transform="matrix(0.7071 0.7071 -0.7071 0.7071 192.9319 -266.6774)" width="7.974" height="2"/>
	<rect x="439.896" y="95.569" transform="matrix(0.7071 0.7071 -0.7071 0.7071 199.5311 -282.6013)" width="2" height="7.972"/>
	<path d="M459.226,116.693c-1.444-6.742-7.433-11.8-14.605-11.8c-2.185,0-4.258,0.471-6.127,1.314
		c-1.666-3.203-5.006-5.395-8.865-5.395c-5.522,0-10,4.477-10,9.999c0,2.46,0.899,4.702,2.373,6.442
		c-1.428,1.84-2.287,4.144-2.287,6.653c0,5.983,4.836,10.836,10.813,10.865v0.003h1.188v-2h-0.721l-0.457-0.003
		c-4.864-0.023-8.822-4.001-8.822-8.865c0-4.89,3.978-8.868,8.867-8.868c0.15,0,0.299,0.012,0.447,0.022l0.148,0.01l1.314,0.085
		l0.597-1.175c2.225-4.372,6.644-7.089,11.532-7.089c6.062,0,11.382,4.298,12.649,10.219l0.318,1.483l1.514,0.094
		c3.708,0.23,6.612,3.319,6.612,7.03c0,3.878-3.144,7.035-7.017,7.057c-0.042-0.003-0.079-0.005-0.117-0.005l-1.866,0.005v2h1.819
		v-0.006c0.042,0.001,0.082,0.006,0.124,0.006c5.001,0,9.057-4.054,9.057-9.057C467.714,120.91,463.96,116.988,459.226,116.693z
		 M431.306,113.076c-0.241-0.016-0.48-0.036-0.725-0.036c-2.766,0-5.282,1.041-7.2,2.742c-1.092-1.365-1.753-3.089-1.753-4.97
		c0-4.41,3.589-7.999,8-7.999c3.092,0,5.76,1.773,7.091,4.346C434.421,108.599,432.542,110.646,431.306,113.076z"/>
	<polygon points="438.706,133.796 438.706,131.166 440.879,132.389 441.564,131.168 439.095,129.778 441.564,128.389 
		440.879,127.168 438.706,128.391 438.706,125.796 436.706,125.796 436.706,128.435 434.455,127.168 433.77,128.389 
		436.239,129.778 433.77,131.168 434.455,132.389 436.706,131.122 436.706,133.796 	"/>
	<polygon points="443.868,138.15 441.695,139.373 441.695,136.778 439.695,136.778 439.695,139.417 437.444,138.15 436.759,139.371 
		439.229,140.761 436.759,142.15 437.444,143.371 439.695,142.104 439.695,144.778 441.695,144.778 441.695,142.148 
		443.868,143.371 444.554,142.15 442.084,140.761 444.554,139.371 	"/>
	<polygon points="452.884,131.168 450.711,132.391 450.711,129.796 448.711,129.796 448.711,132.435 446.46,131.168 
		445.774,132.389 448.244,133.778 445.774,135.168 446.46,136.389 448.711,135.122 448.711,137.796 450.711,137.796 
		450.711,135.166 452.884,136.389 453.569,135.168 451.1,133.778 453.569,132.389 	"/>
</g>
<g>
	<path d="M559.414,113.69c-1.444-6.742-7.433-11.8-14.605-11.8c-1.799,0-3.522,0.32-5.118,0.904
		c-0.949-5.108-5.404-8.98-10.788-8.98c-0.413,0-0.819,0.027-1.222,0.071c0.744,1.112,1.179,2.448,1.179,3.886c0,3.865-3.134,7-7,7
		c-1.438,0-2.773-0.435-3.886-1.179c-0.044,0.401-0.071,0.809-0.071,1.222c0,3.713,1.845,6.987,4.661,8.979
		c-1.653,1.907-2.661,4.389-2.661,7.111c0,5.983,4.836,10.836,10.813,10.865v0.003h1.188v-2h-0.721l-0.457-0.003
		c-4.864-0.023-8.822-4.001-8.822-8.865c0-4.89,3.978-8.868,8.867-8.868c0.15,0,0.299,0.012,0.447,0.022l0.148,0.01l1.314,0.085
		l0.597-1.175c2.225-4.372,6.644-7.089,11.532-7.089c6.062,0,11.382,4.298,12.649,10.219l0.318,1.483l1.514,0.094
		c3.708,0.23,6.612,3.319,6.612,7.03c0,3.878-3.144,7.035-7.017,7.057c-0.042-0.003-0.079-0.005-0.117-0.005l-1.866,0.005v2h1.819
		v-0.006c0.042,0.001,0.082,0.006,0.124,0.006c5.001,0,9.057-4.054,9.057-9.057C567.902,117.907,564.148,113.985,559.414,113.69z
		 M531.494,110.073c-0.241-0.016-0.48-0.036-0.725-0.036c-2.537,0-4.865,0.877-6.715,2.334c-2.012-1.294-3.486-3.354-3.976-5.776
		c0.582,0.117,1.178,0.177,1.78,0.177c4.963,0,9-4.037,9-9c0-0.603-0.06-1.198-0.177-1.78c3.733,0.753,6.629,3.824,7.134,7.64
		C535.104,105.075,532.889,107.33,531.494,110.073z"/>
	<polygon points="538.939,130.793 538.939,128.163 541.112,129.386 541.798,128.165 539.328,126.775 541.798,125.386 
		541.112,124.165 538.939,125.388 538.939,122.793 536.939,122.793 536.939,125.432 534.688,124.165 534.003,125.386 
		536.473,126.775 534.003,128.165 534.688,129.386 536.939,128.119 536.939,130.793 	"/>
	<polygon points="544.102,135.147 541.929,136.37 541.929,133.775 539.929,133.775 539.929,136.414 537.678,135.147 
		536.992,136.368 539.462,137.758 536.992,139.147 537.678,140.368 539.929,139.102 539.929,141.775 541.929,141.775 
		541.929,139.146 544.102,140.368 544.787,139.147 542.317,137.758 544.787,136.368 	"/>
	<polygon points="553.117,128.165 550.944,129.388 550.944,126.793 548.944,126.793 548.944,129.432 546.693,128.165 
		546.008,129.386 548.478,130.775 546.008,132.165 546.693,133.386 548.944,132.119 548.944,134.793 550.944,134.793 
		550.944,132.163 553.117,133.386 553.803,132.165 551.333,130.775 553.803,129.386 	"/>
</g>
<rect x="-56.944" y="-454.06" fill="none" width="472.974" height="180.918"/>
<text transform="matrix(1 0 0 1 122.6929 -382.6606)"><tspan x="0" y="0" font-family="'HelveticaNeueLTStd-Th'" font-size="100" letter-spacing="2">60</tspan><tspan x="-99.268" y="60" font-family="'HelveticaNeueLTStd-Lt'" font-size="48" letter-spacing="1">Weather Icons</tspan><tspan x="-3.726" y="104" font-family="'HelveticaNeueLTStd-Lt'" font-size="24">IOS 7 Style</tspan></text>
</svg>
