<?xml version="1.0" encoding="utf-8"?>
<!-- Generator: Adobe Illustrator 16.0.0, SVG Export Plug-In . SVG Version: 6.00 Build 0)  -->
<!DOCTYPE svg PUBLIC "-//W3C//DTD SVG 1.1//EN" "http://www.w3.org/Graphics/SVG/1.1/DTD/svg11.dtd">
<svg version="1.1" id="Layer_1" xmlns="http://www.w3.org/2000/svg" xmlns:xlink="http://www.w3.org/1999/xlink" x="0px" y="0px"
	 width="30px" height="50px" viewBox="0 0 30 50" enable-background="new 0 0 30 50" xml:space="preserve">
<path d="M18.813,7.024L17.01,22.102l-0.268,2.237h2.254h6.896L11.199,43.098l1.789-14.52l0.277-2.245h-2.262H4.047L18.813,7.024
	 M21.667,0L0,28.333h11.004L8.333,50L30,22.339H18.996L21.667,0L21.667,0z"/>
<path d="M-394.223-455.236c6.79,0,12.749,4.814,14.171,11.448l0.318,1.483l1.514,0.094c4.203,0.262,7.496,3.763,7.496,7.971
	c0,4.396-3.565,7.977-7.957,8c-0.046-0.003-0.091-0.006-0.137-0.007l-2.043-0.036v0.043h-28.337l-0.578-0.003
	c-5.485-0.027-9.948-4.513-9.948-9.998c0-5.514,4.485-10,9.999-10c0.175,0,0.347,0.014,0.519,0.025l0.149,0.011l1.316,0.087
	l0.598-1.176C-404.649-452.193-399.699-455.236-394.223-455.236 M-394.223-457.236c-6.423,0-11.977,3.678-14.702,9.035
	c-0.266-0.018-0.53-0.04-0.8-0.04c-6.627,0-11.999,5.372-11.999,12c0,6.607,5.34,11.965,11.938,11.998v0.003h30.925v-0.007
	c0.046,0.001,0.091,0.007,0.137,0.007c5.521,0,10-4.477,10-10c0-5.311-4.145-9.642-9.372-9.967
	C-379.691-451.652-386.303-457.236-394.223-457.236L-394.223-457.236z"/>
<g>
	<path d="M-271.271-436.825c-1.444-6.742-7.433-11.8-14.605-11.8c-2.185,0-4.258,0.47-6.127,1.313
		c-1.666-3.202-5.006-5.394-8.865-5.394c-5.522,0-10,4.477-10,9.999c0,2.46,0.898,4.702,2.373,6.442
		c-1.428,1.84-2.287,4.144-2.287,6.653c0,5.983,4.836,10.836,10.813,10.865v0.003h28.007v-0.006
		c0.042,0.001,0.082,0.006,0.124,0.006c5.001,0,9.057-4.054,9.057-9.057C-262.783-432.608-266.537-436.53-271.271-436.825z
		 M-300.869-450.705c3.092,0,5.76,1.773,7.092,4.345c-2.299,1.44-4.178,3.488-5.414,5.918c-0.241-0.016-0.48-0.036-0.725-0.036
		c-2.766,0-5.281,1.041-7.2,2.743c-1.092-1.366-1.753-3.09-1.753-4.971C-308.869-447.116-305.28-450.705-300.869-450.705z
		 M-271.8-420.742c-0.038-0.003-0.077-0.004-0.117-0.005l-2.047-0.042v0.047h-25.403l-0.594-0.003
		c-4.864-0.023-8.822-4.001-8.822-8.865c0-4.89,3.978-8.868,8.867-8.868c0.15,0,0.299,0.012,0.447,0.021l0.148,0.011l1.314,0.085
		l0.598-1.174c2.224-4.373,6.643-7.09,11.531-7.09c6.062,0,11.381,4.298,12.65,10.219l0.317,1.482l1.514,0.095
		c3.708,0.231,6.612,3.319,6.612,7.03C-264.783-423.921-267.927-420.765-271.8-420.742z"/>
	<rect x="-301.863" y="-462.735" width="2" height="7.973"/>
	<rect x="-320.836" y="-443.749" width="7.973" height="2"/>
	<rect x="-316.11" y="-454.968" transform="matrix(0.7071 0.7071 -0.7071 0.7071 -412.4224 87.7402)" width="7.974" height="2"/>
	<rect x="-290.601" y="-457.95" transform="matrix(0.7071 0.7071 -0.7071 0.7071 -405.8232 71.8163)" width="2" height="7.972"/>
</g>
<path d="M-175.528-440.853c-1.444-6.742-7.433-11.8-14.605-11.8c-1.799,0-3.521,0.32-5.118,0.904
	c-0.949-5.108-5.404-8.98-10.788-8.98c-0.413,0-0.819,0.027-1.222,0.071c0.744,1.112,1.179,2.448,1.179,3.886c0,3.865-3.134,7-7,7
	c-1.438,0-2.773-0.435-3.886-1.179c-0.044,0.401-0.071,0.809-0.071,1.222c0,3.712,1.845,6.987,4.661,8.979
	c-1.653,1.907-2.661,4.389-2.661,7.111c0,5.983,4.836,10.836,10.813,10.865v0.003h28.007v-0.006
	c0.042,0.001,0.082,0.006,0.124,0.006c5.001,0,9.057-4.054,9.057-9.057C-167.04-436.636-170.794-440.558-175.528-440.853z
	 M-214.863-447.948c0.582,0.117,1.178,0.177,1.78,0.177c4.963,0,9-4.037,9-9c0-0.603-0.06-1.198-0.177-1.78
	c3.733,0.753,6.629,3.824,7.134,7.64c-2.713,1.444-4.928,3.699-6.322,6.442c-0.241-0.016-0.48-0.036-0.725-0.036
	c-2.537,0-4.865,0.876-6.715,2.334C-212.899-443.466-214.374-445.525-214.863-447.948z M-176.057-424.77
	c-0.038-0.003-0.077-0.004-0.117-0.005l-2.047-0.042v0.047h-25.403l-0.594-0.003c-4.864-0.023-8.822-4.001-8.822-8.865
	c0-4.89,3.978-8.868,8.867-8.868c0.15,0,0.299,0.012,0.447,0.021l0.148,0.011l1.314,0.085l0.598-1.174
	c2.224-4.373,6.643-7.09,11.531-7.09c6.062,0,11.381,4.298,12.65,10.219l0.317,1.482l1.514,0.095
	c3.708,0.231,6.612,3.319,6.612,7.03C-169.04-427.948-172.184-424.792-176.057-424.77z"/>
<g>
	<rect x="-90.883" y="-432.229" width="2" height="7"/>
	<rect x="-82.883" y="-436.229" width="2" height="7"/>
	<rect x="-98.883" y="-436.229" width="2" height="7"/>
	<rect x="-90.883" y="-422.229" width="2" height="7"/>
	<rect x="-82.883" y="-426.229" width="2" height="7"/>
	<rect x="-98.883" y="-426.229" width="2" height="7"/>
	<path d="M-72.255-449.218c-1.596-7.445-8.207-13.029-16.127-13.029c-6.423,0-11.977,3.678-14.702,9.035
		c-0.266-0.018-0.53-0.04-0.8-0.04c-6.627,0-11.999,5.372-11.999,12c0,6.607,5.34,11.965,11.938,11.998v0.003h2.062v-2h-1.604
		l-0.447-0.003c-5.485-0.027-9.948-4.513-9.948-9.998c0-5.514,4.485-10,9.999-10c0.175,0,0.347,0.014,0.52,0.025l0.148,0.01
		l1.316,0.088l0.598-1.176c2.492-4.899,7.443-7.942,12.92-7.942c6.79,0,12.75,4.814,14.172,11.448l0.317,1.482l1.514,0.095
		c4.203,0.262,7.496,3.763,7.496,7.971c0,4.397-3.565,7.977-7.957,8c-0.05-0.003-0.093-0.005-0.137-0.007l-2.043,0.007h-2.863v2
		h4.863v-0.007c0.046,0.001,0.091,0.007,0.137,0.007c5.521,0,10-4.477,10-10C-62.883-444.562-67.027-448.893-72.255-449.218z"/>
</g>
<g>
	<path d="M-274.682-359.86c-1.596-7.445-8.207-13.029-16.127-13.029c-6.423,0-11.977,3.678-14.702,9.035
		c-0.266-0.018-0.53-0.04-0.8-0.04c-6.627,0-11.999,5.372-11.999,12c0,6.607,5.34,11.965,11.938,11.998v0.003h2.062v-2h-1.604
		l-0.447-0.003c-5.485-0.027-9.948-4.513-9.948-9.998c0-5.514,4.485-10,9.999-10c0.175,0,0.347,0.014,0.52,0.025l0.148,0.01
		l1.316,0.088l0.598-1.176c2.492-4.899,7.443-7.942,12.92-7.942c6.79,0,12.75,4.814,14.172,11.448l0.317,1.482l1.514,0.095
		c4.203,0.262,7.496,3.763,7.496,7.971c0,4.397-3.565,7.977-7.957,8c-0.05-0.003-0.093-0.005-0.137-0.007l-2.043,0.007h-2.863v2
		h4.863v-0.007c0.046,0.001,0.091,0.007,0.137,0.007c5.521,0,10-4.477,10-10C-265.31-355.204-269.454-359.535-274.682-359.86z"/>
	<polygon points="-293.31,-332.865 -293.31,-330.925 -293.31,-324.865 -291.31,-324.865 -291.31,-330.925 -291.31,-332.865 
		-291.31,-344.865 -293.31,-344.865 	"/>
	<polygon points="-285.31,-336.865 -285.31,-335.112 -285.31,-328.865 -283.31,-328.865 -283.31,-335.112 -283.31,-336.865 
		-283.31,-348.865 -285.31,-348.865 	"/>
	<polygon points="-301.31,-336.865 -301.31,-334.8 -301.31,-328.865 -299.31,-328.865 -299.31,-334.8 -299.31,-336.865 
		-299.31,-348.865 -301.31,-348.865 	"/>
</g>
<g>
	<polygon points="20.968,-335.954 14.085,-345.784 12.447,-344.637 19.33,-334.807 20.442,-333.218 23.918,-328.254 25.557,-329.4 
		22.081,-334.365 	"/>
	<polygon points="28.97,-335.956 22.085,-345.784 20.447,-344.636 27.333,-334.808 28.338,-333.372 31.922,-328.257 
		33.561,-329.403 29.977,-334.52 	"/>
	<polygon points="12.968,-335.954 6.085,-345.784 4.447,-344.636 11.33,-334.807 12.515,-333.114 15.919,-328.253 17.557,-329.4 
		14.153,-334.262 	"/>
	<path d="M32.075-359.594c-1.596-7.445-8.207-13.029-16.127-13.029c-6.423,0-11.977,3.678-14.702,9.035
		c-0.266-0.018-0.53-0.04-0.8-0.04c-6.627,0-11.999,5.372-11.999,12c0,6.607,5.34,11.965,11.938,11.998v0.003h2.062v-2H0.843
		l-0.447-0.003c-5.485-0.027-9.948-4.513-9.948-9.998c0-5.514,4.485-10,9.999-10c0.175,0,0.347,0.014,0.52,0.025l0.148,0.01
		l1.316,0.088l0.598-1.176c2.492-4.899,7.443-7.942,12.92-7.942c6.79,0,12.75,4.814,14.172,11.448l0.317,1.482l1.514,0.095
		c4.203,0.262,7.496,3.763,7.496,7.971c0,4.397-3.565,7.977-7.957,8c-0.05-0.003-0.093-0.005-0.137-0.007l-1.043,0.007h0.137v2
		h0.863v-0.007c0.046,0.001,0.091,0.007,0.137,0.007c5.521,0,10-4.477,10-10C41.447-354.938,37.303-359.269,32.075-359.594z"/>
</g>
<g>
	<rect x="3.773" y="-468.676" width="2" height="7.973"/>
	<rect x="-15.227" y="-449.762" width="7.973" height="2"/>
	<rect x="-10.554" y="-461.028" transform="matrix(0.7071 0.7071 -0.7071 0.7071 -327.2124 -130.096)" width="7.974" height="2"/>
	<rect x="14.955" y="-464.01" transform="matrix(0.7071 0.7071 -0.7071 0.7071 -320.6133 -146.02)" width="2" height="7.972"/>
	<rect x="17.773" y="-427.803" width="2" height="7"/>
	<rect x="25.773" y="-431.803" width="2" height="7"/>
	<rect x="9.773" y="-431.803" width="2" height="7"/>
	<rect x="17.773" y="-417.803" width="2" height="7"/>
	<rect x="25.773" y="-421.803" width="2" height="7"/>
	<rect x="9.773" y="-421.803" width="2" height="7"/>
	<path d="M34.285-442.886c-1.444-6.742-7.433-11.8-14.605-11.8c-2.185,0-4.258,0.47-6.126,1.313
		c-1.667-3.202-5.007-5.394-8.866-5.394c-5.522,0-10,4.477-10,9.999c0,2.46,0.899,4.702,2.373,6.442
		c-1.429,1.84-2.287,4.144-2.287,6.653c0,5.983,4.836,10.836,10.813,10.865v0.003h1.188v-2H6.053l-0.457-0.003
		c-4.864-0.023-8.822-4.001-8.822-8.865c0-4.89,3.978-8.868,8.867-8.868c0.15,0,0.299,0.012,0.447,0.022l0.148,0.01l1.314,0.085
		l0.597-1.175c2.225-4.372,6.644-7.089,11.532-7.089c6.062,0,11.382,4.298,12.649,10.219l0.318,1.483l1.514,0.094
		c3.708,0.23,6.612,3.319,6.612,7.03c0,3.878-3.144,7.035-7.017,7.057c-0.042-0.003-0.079-0.005-0.117-0.005l-2.047,0.005h-0.819v2
		h2.819v-0.006c0.042,0.001,0.082,0.006,0.124,0.006c5.001,0,9.057-4.054,9.057-9.057C42.773-438.669,39.02-442.591,34.285-442.886z
		 M6.365-446.503c-0.241-0.016-0.48-0.036-0.725-0.036c-2.766,0-5.282,1.041-7.2,2.743c-1.092-1.366-1.753-3.09-1.753-4.971
		c0-4.41,3.589-7.999,8-7.999c3.091,0,5.76,1.773,7.091,4.345C9.48-450.98,7.601-448.933,6.365-446.503z"/>
</g>
<g>
	<rect x="118.19" y="-429.25" width="2" height="7"/>
	<rect x="126.19" y="-433.25" width="2" height="7"/>
	<rect x="110.19" y="-433.25" width="2" height="7"/>
	<rect x="118.19" y="-419.25" width="2" height="7"/>
	<rect x="126.19" y="-423.25" width="2" height="7"/>
	<rect x="110.19" y="-423.25" width="2" height="7"/>
	<path d="M134.702-444.333c-1.444-6.742-7.433-11.8-14.605-11.8c-1.799,0-3.522,0.32-5.118,0.904
		c-0.949-5.108-5.404-8.98-10.788-8.98c-0.413,0-0.819,0.027-1.222,0.071c0.744,1.112,1.179,2.448,1.179,3.886c0,3.865-3.134,7-7,7
		c-1.438,0-2.773-0.435-3.886-1.179c-0.044,0.401-0.071,0.809-0.071,1.222c0,3.712,1.845,6.987,4.661,8.979
		c-1.653,1.907-2.661,4.389-2.661,7.111c0,5.983,4.836,10.836,10.813,10.865v0.003h1.188v-2h-0.721l-0.457-0.003
		c-4.864-0.023-8.822-4.001-8.822-8.865c0-4.89,3.978-8.868,8.867-8.868c0.15,0,0.299,0.012,0.447,0.022l0.148,0.01l1.314,0.085
		l0.597-1.175c2.225-4.372,6.644-7.089,11.532-7.089c6.062,0,11.382,4.298,12.649,10.219l0.318,1.483l1.514,0.094
		c3.708,0.23,6.612,3.319,6.612,7.03c0,3.878-3.144,7.035-7.017,7.057c-0.042-0.003-0.079-0.005-0.117-0.005l-2.047,0.005h-0.819v2
		h2.819v-0.006c0.042,0.001,0.082,0.006,0.124,0.006c5.001,0,9.057-4.054,9.057-9.057
		C143.19-440.116,139.437-444.038,134.702-444.333z M106.782-447.95c-0.241-0.016-0.48-0.036-0.725-0.036
		c-2.537,0-4.865,0.876-6.715,2.334c-2.012-1.294-3.487-3.354-3.976-5.776c0.582,0.117,1.178,0.177,1.78,0.177c4.963,0,9-4.037,9-9
		c0-0.603-0.06-1.198-0.177-1.78c3.733,0.753,6.629,3.824,7.133,7.64C110.393-452.948,108.178-450.693,106.782-447.95z"/>
</g>
<g>
	<polygon points="-189.04,-328.427 -189.04,-326.486 -189.04,-320.427 -187.04,-320.427 -187.04,-326.486 -187.04,-328.427 
		-187.04,-340.427 -189.04,-340.427 	"/>
	<polygon points="-181.04,-332.427 -181.04,-330.674 -181.04,-324.427 -179.04,-324.427 -179.04,-330.674 -179.04,-332.427 
		-179.04,-344.427 -181.04,-344.427 	"/>
	<polygon points="-197.04,-332.427 -197.04,-330.361 -197.04,-324.427 -195.04,-324.427 -195.04,-330.361 -195.04,-332.427 
		-195.04,-344.427 -197.04,-344.427 	"/>
	<rect x="-203.04" y="-379.329" width="2" height="7.973"/>
	<rect x="-222.04" y="-360.415" width="7.973" height="2"/>
	<rect x="-217.367" y="-371.682" transform="matrix(0.7071 0.7071 -0.7071 0.7071 -324.609 42.3122)" width="7.974" height="2"/>
	<rect x="-191.858" y="-374.663" transform="matrix(0.7071 0.7071 -0.7071 0.7071 -318.0099 26.3882)" width="2" height="7.972"/>
	<path d="M-172.528-353.539c-1.444-6.742-7.433-11.8-14.605-11.8c-2.185,0-4.258,0.47-6.127,1.313
		c-1.666-3.202-5.006-5.394-8.865-5.394c-5.522,0-10,4.477-10,9.999c0,2.46,0.898,4.702,2.373,6.442
		c-1.428,1.84-2.287,4.144-2.287,6.653c0,5.983,4.836,10.836,10.813,10.865v0.003h1.188v-2h-0.721l-0.457-0.003
		c-4.864-0.023-8.822-4.001-8.822-8.865c0-4.89,3.978-8.868,8.867-8.868c0.15,0,0.299,0.012,0.447,0.022l0.148,0.01l1.314,0.085
		l0.597-1.175c2.225-4.372,6.644-7.089,11.532-7.089c6.062,0,11.382,4.298,12.649,10.219l0.318,1.483l1.514,0.094
		c3.708,0.23,6.612,3.319,6.612,7.03c0,3.878-3.144,7.035-7.017,7.057c-0.042-0.003-0.079-0.005-0.117-0.005l-2.047,0.005h-0.819v2
		h2.819v-0.006c0.042,0.001,0.082,0.006,0.124,0.006c5.001,0,9.057-4.054,9.057-9.057
		C-164.04-349.322-167.794-353.244-172.528-353.539z M-200.448-357.156c-0.241-0.016-0.48-0.036-0.725-0.036
		c-2.766,0-5.281,1.042-7.2,2.743c-1.092-1.367-1.753-3.09-1.753-4.971c0-4.41,3.589-7.999,8-7.999c3.092,0,5.76,1.773,7.092,4.345
		C-197.333-361.635-199.212-359.586-200.448-357.156z"/>
</g>
<g>
	<polygon points="-88.643,-330.943 -88.643,-329.003 -88.643,-322.943 -86.643,-322.943 -86.643,-329.003 -86.643,-330.943 
		-86.643,-342.943 -88.643,-342.943 	"/>
	<polygon points="-80.643,-334.943 -80.643,-333.19 -80.643,-326.943 -78.643,-326.943 -78.643,-333.19 -78.643,-334.943 
		-78.643,-346.943 -80.643,-346.943 	"/>
	<polygon points="-96.643,-334.943 -96.643,-332.878 -96.643,-326.943 -94.643,-326.943 -94.643,-332.878 -94.643,-334.943 
		-94.643,-346.943 -96.643,-346.943 	"/>
	<path d="M-72.131-356.056c-1.444-6.742-7.433-11.8-14.605-11.8c-1.799,0-3.521,0.32-5.118,0.904
		c-0.949-5.108-5.404-8.98-10.788-8.98c-0.413,0-0.819,0.027-1.222,0.071c0.744,1.112,1.179,2.448,1.179,3.886c0,3.865-3.134,7-7,7
		c-1.438,0-2.773-0.435-3.886-1.179c-0.044,0.401-0.071,0.809-0.071,1.222c0,3.712,1.845,6.987,4.661,8.979
		c-1.653,1.907-2.661,4.389-2.661,7.111c0,5.983,4.836,10.836,10.813,10.865v0.003h1.188v-2h-0.721l-0.457-0.003
		c-4.864-0.023-8.822-4.001-8.822-8.865c0-4.89,3.978-8.868,8.867-8.868c0.15,0,0.299,0.012,0.447,0.022l0.148,0.01l1.314,0.085
		l0.597-1.175c2.225-4.372,6.644-7.089,11.532-7.089c6.062,0,11.382,4.298,12.649,10.219l0.318,1.483l1.514,0.094
		c3.708,0.23,6.612,3.319,6.612,7.03c0,3.878-3.144,7.035-7.017,7.057c-0.042-0.003-0.079-0.005-0.117-0.005l-2.047,0.005h-0.819v2
		h2.819v-0.006c0.042,0.001,0.082,0.006,0.124,0.006c5.001,0,9.057-4.054,9.057-9.057
		C-63.643-351.839-67.396-355.761-72.131-356.056z M-100.051-359.673c-0.241-0.016-0.48-0.036-0.725-0.036
		c-2.537,0-4.865,0.876-6.715,2.334c-2.012-1.294-3.486-3.354-3.976-5.776c0.582,0.117,1.178,0.177,1.78,0.177c4.963,0,9-4.037,9-9
		c0-0.603-0.06-1.198-0.177-1.78c3.733,0.753,6.629,3.824,7.134,7.641C-96.441-364.671-98.656-362.415-100.051-359.673z"/>
</g>
<g>
	<polygon points="128.393,-329.999 121.51,-339.829 119.872,-338.682 126.755,-328.852 127.867,-327.263 131.343,-322.299 
		132.981,-323.445 129.506,-328.41 	"/>
	<polygon points="136.395,-330.001 129.51,-339.829 127.872,-338.681 134.758,-328.853 135.763,-327.417 139.347,-322.302 
		140.985,-323.448 137.401,-328.564 	"/>
	<polygon points="120.393,-329.999 113.51,-339.829 111.872,-338.681 118.755,-328.852 119.939,-327.159 123.344,-322.298 
		124.981,-323.445 121.578,-328.307 	"/>
	<rect x="107.872" y="-377.548" width="2" height="7.973"/>
	<rect x="88.872" y="-358.634" width="7.973" height="2"/>
	<rect x="93.545" y="-369.9" transform="matrix(0.7071 0.7071 -0.7071 0.7071 -232.2854 -177.0141)" width="7.974" height="2"/>
	<rect x="119.054" y="-372.882" transform="matrix(0.7071 0.7071 -0.7071 0.7071 -225.6863 -192.9381)" width="2" height="7.972"/>
	<path d="M138.384-351.758c-1.444-6.742-7.433-11.8-14.605-11.8c-2.185,0-4.258,0.47-6.126,1.313
		c-1.667-3.202-5.007-5.394-8.866-5.394c-5.522,0-10,4.477-10,9.999c0,2.46,0.899,4.702,2.373,6.442
		c-1.429,1.84-2.287,4.144-2.287,6.653c0,5.983,4.836,10.836,10.813,10.865v0.003h1.188v-2h-0.721l-0.457-0.003
		c-4.864-0.023-8.822-4.001-8.822-8.865c0-4.89,3.978-8.868,8.867-8.868c0.15,0,0.299,0.012,0.447,0.022l0.148,0.01l1.314,0.085
		l0.597-1.175c2.225-4.372,6.644-7.089,11.532-7.089c6.062,0,11.382,4.298,12.649,10.219l0.318,1.483l1.514,0.094
		c3.708,0.23,6.612,3.319,6.612,7.03c0,3.878-3.144,7.035-7.017,7.057c-0.042-0.003-0.079-0.005-0.117-0.005l-0.047,0.005h-0.819v2
		h0.819v-0.006c0.042,0.001,0.082,0.006,0.124,0.006c5.001,0,9.057-4.054,9.057-9.057
		C146.872-347.541,143.118-351.463,138.384-351.758z M110.464-355.375c-0.241-0.016-0.48-0.036-0.725-0.036
		c-2.766,0-5.282,1.042-7.2,2.743c-1.092-1.367-1.753-3.09-1.753-4.971c0-4.41,3.589-7.999,8-7.999c3.091,0,5.76,1.773,7.091,4.345
		C113.579-359.854,111.699-357.805,110.464-355.375z"/>
</g>
<g>
	<polygon points="-595.038,-233.514 -601.921,-243.344 -603.559,-242.196 -596.676,-232.366 -595.563,-230.777 -592.088,-225.813 
		-590.449,-226.96 -593.925,-231.925 	"/>
	<polygon points="-587.036,-233.516 -593.921,-243.344 -595.559,-242.195 -588.673,-232.367 -587.668,-230.932 -584.084,-225.816 
		-582.445,-226.963 -586.029,-232.079 	"/>
	<polygon points="-603.038,-233.514 -609.921,-243.344 -611.559,-242.195 -604.676,-232.366 -603.491,-230.674 -600.087,-225.813 
		-598.449,-226.96 -601.853,-231.821 	"/>
	<path d="M-585.047-255.272c-1.444-6.742-7.433-11.8-14.605-11.8c-1.799,0-3.522,0.32-5.118,0.904
		c-0.949-5.108-5.404-8.98-10.788-8.98c-0.413,0-0.819,0.027-1.222,0.071c0.744,1.112,1.179,2.448,1.179,3.886c0,3.865-3.134,7-7,7
		c-1.438,0-2.773-0.435-3.886-1.179c-0.044,0.401-0.071,0.809-0.071,1.222c0,3.712,1.845,6.987,4.661,8.979
		c-1.653,1.907-2.661,4.389-2.661,7.111c0,5.983,4.836,10.836,10.813,10.865v0.003h1.188v-2h-0.721l-0.457-0.003
		c-4.864-0.023-8.822-4.001-8.822-8.865c0-4.89,3.978-8.868,8.867-8.868c0.15,0,0.299,0.012,0.447,0.022l0.148,0.01l1.314,0.085
		l0.597-1.175c2.225-4.372,6.644-7.089,11.532-7.089c6.062,0,11.382,4.298,12.649,10.219l0.318,1.483l1.514,0.094
		c3.708,0.23,6.612,3.319,6.612,7.03c0,3.878-3.144,7.035-7.017,7.057c-0.042-0.003-0.079-0.005-0.117-0.005l-0.047,0.005h-0.819v2
		h0.819v-0.006c0.042,0.001,0.082,0.006,0.124,0.006c5.001,0,9.057-4.054,9.057-9.057
		C-576.559-251.056-580.313-254.978-585.047-255.272z M-612.967-258.89c-0.241-0.016-0.48-0.036-0.725-0.036
		c-2.537,0-4.865,0.876-6.715,2.334c-2.012-1.294-3.487-3.354-3.976-5.776c0.582,0.117,1.178,0.177,1.78,0.177c4.963,0,9-4.037,9-9
		c0-0.603-0.06-1.198-0.177-1.78c3.733,0.753,6.629,3.824,7.133,7.641C-609.356-263.888-611.571-261.632-612.967-258.89z"/>
</g>
<g>
	<rect x="-602.559" y="-337.36" width="2" height="4"/>
	<rect x="-594.559" y="-341.382" width="2" height="4.021"/>
	<rect x="-610.559" y="-341.382" width="2" height="4.021"/>
	<path d="M-583.931-357.349c-1.596-7.445-8.207-13.029-16.127-13.029c-6.423,0-11.977,3.678-14.702,9.035
		c-0.266-0.018-0.53-0.04-0.8-0.04c-6.627,0-11.999,5.372-11.999,12c0,6.607,5.34,11.965,11.938,11.998v0.003h2.062v-2h-1.604
		l-0.447-0.003c-5.485-0.027-9.948-4.513-9.948-9.998c0-5.514,4.485-10,9.999-10c0.175,0,0.347,0.014,0.52,0.025l0.148,0.01
		l1.316,0.088l0.598-1.176c2.492-4.899,7.443-7.942,12.92-7.942c6.79,0,12.75,4.814,14.172,11.448l0.317,1.482l1.514,0.095
		c4.203,0.262,7.496,3.763,7.496,7.971c0,4.397-3.565,7.977-7.957,8c-0.05-0.003-0.093-0.005-0.137-0.007l-2.043,0.007h-2.863v2
		h4.863v-0.007c0.046,0.001,0.091,0.007,0.137,0.007c5.521,0,10-4.477,10-10C-574.559-352.692-578.703-357.023-583.931-357.349z"/>
	<circle cx="-593.559" cy="-332.34" r="1.5"/>
	<circle cx="-601.559" cy="-328.371" r="1.5"/>
	<circle cx="-609.559" cy="-332.382" r="1.5"/>
</g>
<g>
	<rect x="-509.638" y="-376.814" width="2" height="7.973"/>
	<rect x="-528.638" y="-357.9" width="7.973" height="2"/>
	<rect x="-523.965" y="-369.167" transform="matrix(0.7071 0.7071 -0.7071 0.7071 -412.6313 259.846)" width="7.974" height="2"/>
	<rect x="-498.456" y="-372.149" transform="matrix(0.7071 0.7071 -0.7071 0.7071 -406.0321 243.9221)" width="2" height="7.972"/>
	<path d="M-479.126-351.024c-1.444-6.742-7.433-11.8-14.605-11.8c-2.185,0-4.258,0.47-6.126,1.313
		c-1.667-3.202-5.007-5.394-8.866-5.394c-5.522,0-10,4.477-10,9.999c0,2.46,0.899,4.702,2.373,6.442
		c-1.429,1.84-2.287,4.144-2.287,6.653c0,5.983,4.836,10.836,10.813,10.865v0.003h1.188v-2h-0.721l-0.457-0.003
		c-4.864-0.023-8.822-4.001-8.822-8.865c0-4.89,3.978-8.868,8.867-8.868c0.15,0,0.299,0.012,0.447,0.022l0.148,0.01l1.314,0.085
		l0.597-1.175c2.225-4.372,6.644-7.089,11.532-7.089c6.062,0,11.382,4.298,12.649,10.219l0.318,1.483l1.514,0.094
		c3.708,0.23,6.612,3.319,6.612,7.03c0,3.878-3.144,7.035-7.017,7.057c-0.042-0.003-0.079-0.005-0.117-0.005l-2.047,0.005h-0.819v2
		h2.819v-0.006c0.042,0.001,0.082,0.006,0.124,0.006c5.001,0,9.057-4.054,9.057-9.057
		C-470.638-346.808-474.392-350.729-479.126-351.024z M-507.046-354.642c-0.241-0.016-0.48-0.036-0.725-0.036
		c-2.766,0-5.282,1.042-7.2,2.743c-1.092-1.367-1.753-3.09-1.753-4.971c0-4.41,3.589-7.999,8-7.999c3.091,0,5.76,1.773,7.091,4.345
		C-503.931-359.12-505.811-357.071-507.046-354.642z"/>
	<rect x="-495.638" y="-332.926" width="2" height="4"/>
	<rect x="-487.638" y="-336.947" width="2" height="4.021"/>
	<rect x="-503.638" y="-336.947" width="2" height="4.021"/>
	<circle cx="-486.638" cy="-327.905" r="1.5"/>
	<circle cx="-494.638" cy="-323.937" r="1.5"/>
	<circle cx="-502.638" cy="-327.947" r="1.5"/>
</g>
<g>
	<path d="M-378.2-351.981c-1.444-6.742-7.433-11.8-14.605-11.8c-1.799,0-3.522,0.32-5.118,0.904
		c-0.949-5.108-5.404-8.98-10.788-8.98c-0.413,0-0.819,0.027-1.222,0.071c0.744,1.112,1.179,2.448,1.179,3.886c0,3.865-3.134,7-7,7
		c-1.438,0-2.773-0.435-3.886-1.179c-0.044,0.401-0.071,0.809-0.071,1.222c0,3.712,1.845,6.987,4.661,8.979
		c-1.653,1.907-2.661,4.389-2.661,7.111c0,5.983,4.836,10.836,10.813,10.865v0.003h1.188v-2h-0.721l-0.457-0.003
		c-4.864-0.023-8.822-4.001-8.822-8.865c0-4.89,3.978-8.868,8.867-8.868c0.15,0,0.299,0.012,0.447,0.022l0.148,0.01l1.314,0.085
		l0.597-1.175c2.225-4.372,6.644-7.089,11.532-7.089c6.062,0,11.382,4.298,12.649,10.219l0.318,1.483l1.514,0.094
		c3.708,0.23,6.612,3.319,6.612,7.03c0,3.878-3.144,7.035-7.017,7.057c-0.042-0.003-0.079-0.005-0.117-0.005l-2.047,0.005h-0.819v2
		h2.819v-0.006c0.042,0.001,0.082,0.006,0.124,0.006c5.001,0,9.057-4.054,9.057-9.057
		C-369.712-347.765-373.466-351.687-378.2-351.981z M-406.12-355.599c-0.241-0.016-0.48-0.036-0.725-0.036
		c-2.537,0-4.865,0.876-6.715,2.334c-2.012-1.294-3.487-3.354-3.976-5.776c0.582,0.117,1.178,0.177,1.78,0.177c4.963,0,9-4.037,9-9
		c0-0.603-0.06-1.198-0.177-1.78c3.733,0.753,6.629,3.824,7.133,7.641C-402.51-360.597-404.725-358.341-406.12-355.599z"/>
	<rect x="-394.712" y="-333.883" width="2" height="4"/>
	<rect x="-386.712" y="-337.904" width="2" height="4.021"/>
	<rect x="-402.712" y="-337.904" width="2" height="4.021"/>
	<circle cx="-385.712" cy="-328.862" r="1.5"/>
	<circle cx="-393.712" cy="-324.894" r="1.5"/>
	<circle cx="-401.712" cy="-328.904" r="1.5"/>
</g>
<g>
	<path d="M-481.51-258.951c-1.596-7.445-8.207-13.029-16.127-13.029c-6.423,0-11.977,3.678-14.702,9.035
		c-0.266-0.018-0.53-0.04-0.8-0.04c-6.627,0-11.999,5.372-11.999,12c0,6.607,5.34,11.965,11.938,11.998v0.003h6.062v-2h-5.604
		l-0.447-0.003c-5.485-0.027-9.948-4.513-9.948-9.998c0-5.514,4.485-10,9.999-10c0.175,0,0.347,0.014,0.52,0.025l0.148,0.01
		l1.316,0.088l0.598-1.176c2.492-4.899,7.443-7.942,12.92-7.942c6.79,0,12.75,4.814,14.172,11.448l0.317,1.482l1.514,0.095
		c4.203,0.262,7.496,3.763,7.496,7.971c0,4.397-3.565,7.977-7.957,8c-0.05-0.003-0.093-0.005-0.137-0.007l-5.043,0.007h0.137v2
		h4.863v-0.007c0.046,0.001,0.091,0.007,0.137,0.007c5.521,0,10-4.477,10-10C-472.138-254.295-476.282-258.626-481.51-258.951z"/>
	<polygon points="-497.296,-238.98 -495.526,-238.98 -495.096,-238.98 -493.086,-238.98 -499.5,-248.142 -501.138,-246.994 
		-496.927,-240.98 -498.697,-240.98 -501.138,-240.98 -499.866,-239.164 -498.754,-237.575 -492.776,-228.98 -491.138,-230.127 
		-497.115,-238.723 	"/>
</g>
<g>
	<rect x="-405.712" y="-278.081" width="2" height="7.973"/>
	<rect x="-424.712" y="-259.167" width="7.973" height="2"/>
	<rect x="-420.039" y="-270.433" transform="matrix(0.7071 0.7071 -0.7071 0.7071 -312.377 215.2777)" width="7.974" height="2"/>
	<rect x="-394.53" y="-273.415" transform="matrix(0.7071 0.7071 -0.7071 0.7071 -305.7779 199.3538)" width="2" height="7.972"/>
	<path d="M-375.2-252.291c-1.444-6.742-7.433-11.8-14.605-11.8c-2.185,0-4.258,0.47-6.127,1.313
		c-1.666-3.202-5.006-5.394-8.865-5.394c-5.522,0-10,4.477-10,9.999c0,2.46,0.898,4.702,2.373,6.442
		c-1.428,1.84-2.287,4.144-2.287,6.653c0,5.983,4.836,10.836,10.813,10.865v0.003h4.188v-2h-3.721l-0.457-0.003
		c-4.864-0.023-8.822-4.001-8.822-8.865c0-4.89,3.978-8.868,8.867-8.868c0.15,0,0.299,0.012,0.447,0.022l0.148,0.01l1.314,0.085
		l0.597-1.175c2.225-4.372,6.644-7.089,11.532-7.089c6.062,0,11.382,4.298,12.649,10.219l0.318,1.483l1.514,0.094
		c3.708,0.23,6.612,3.319,6.612,7.03c0,3.878-3.144,7.035-7.017,7.057c-0.042-0.003-0.079-0.005-0.117-0.005l-2.047,0.005h-3.819v2
		h5.819v-0.006c0.042,0.001,0.082,0.006,0.124,0.006c5.001,0,9.057-4.054,9.057-9.057
		C-366.712-248.074-370.466-251.996-375.2-252.291z M-403.12-255.908c-0.241-0.016-0.48-0.036-0.725-0.036
		c-2.766,0-5.281,1.041-7.2,2.743c-1.092-1.366-1.753-3.09-1.753-4.971c0-4.41,3.589-7.999,8-7.999c3.092,0,5.76,1.773,7.092,4.345
		C-400.005-260.386-401.884-258.338-403.12-255.908z"/>
	<polygon points="-390.87,-234.201 -389.101,-234.201 -388.67,-234.201 -386.66,-234.201 -393.074,-243.362 -394.712,-242.215 
		-390.501,-236.201 -392.271,-236.201 -394.712,-236.201 -393.44,-234.385 -392.328,-232.796 -386.351,-224.201 -384.712,-225.348 
		-390.689,-233.943 	"/>
</g>
<g>
	<path d="M-275.615-254.587c-1.444-6.742-7.433-11.8-14.605-11.8c-1.799,0-3.521,0.32-5.118,0.904
		c-0.949-5.108-5.404-8.98-10.788-8.98c-0.413,0-0.819,0.027-1.222,0.071c0.744,1.112,1.179,2.448,1.179,3.886c0,3.865-3.134,7-7,7
		c-1.438,0-2.773-0.435-3.886-1.179c-0.044,0.401-0.071,0.809-0.071,1.222c0,3.712,1.845,6.987,4.661,8.979
		c-1.653,1.907-2.661,4.389-2.661,7.111c0,5.983,4.836,10.836,10.813,10.865v0.003h4.188v-2h-3.721l-0.457-0.003
		c-4.864-0.023-8.822-4.001-8.822-8.865c0-4.89,3.978-8.868,8.867-8.868c0.15,0,0.299,0.012,0.447,0.022l0.148,0.01l1.314,0.085
		l0.597-1.175c2.225-4.372,6.644-7.089,11.532-7.089c6.062,0,11.382,4.298,12.649,10.219l0.318,1.483l1.514,0.094
		c3.708,0.23,6.612,3.319,6.612,7.03c0,3.878-3.144,7.035-7.017,7.057c-0.042-0.003-0.079-0.005-0.117-0.005l-2.047,0.005h-3.819v2
		h5.819v-0.006c0.042,0.001,0.082,0.006,0.124,0.006c5.001,0,9.057-4.054,9.057-9.057
		C-267.127-250.37-270.881-254.292-275.615-254.587z M-303.535-258.204c-0.241-0.016-0.48-0.036-0.725-0.036
		c-2.537,0-4.865,0.876-6.715,2.334c-2.012-1.294-3.486-3.354-3.976-5.776c0.582,0.117,1.178,0.177,1.78,0.177c4.963,0,9-4.037,9-9
		c0-0.603-0.06-1.198-0.177-1.78c3.733,0.753,6.629,3.824,7.134,7.64C-299.926-263.202-302.141-260.947-303.535-258.204z"/>
	<polygon points="-291.285,-236.497 -289.516,-236.497 -289.085,-236.497 -287.075,-236.497 -293.489,-245.658 -295.127,-244.511 
		-290.916,-238.497 -292.687,-238.497 -295.127,-238.497 -293.855,-236.681 -292.743,-235.092 -286.766,-226.497 -285.127,-227.644 
		-291.104,-236.239 	"/>
</g>
<g>
	<path d="M-174.73-258.451c-1.596-7.445-8.207-13.029-16.127-13.029c-6.423,0-11.977,3.678-14.702,9.035
		c-0.266-0.018-0.53-0.04-0.8-0.04c-6.627,0-11.999,5.372-11.999,12c0,6.607,5.34,11.965,11.938,11.998v0.003h1.062v-2h-0.604
		l-0.447-0.003c-5.485-0.027-9.948-4.513-9.948-9.998c0-5.514,4.485-10,9.999-10c0.175,0,0.347,0.014,0.52,0.025l0.148,0.01
		l1.316,0.088l0.598-1.176c2.492-4.899,7.443-7.942,12.92-7.942c6.79,0,12.75,4.814,14.172,11.448l0.317,1.482l1.514,0.095
		c4.203,0.262,7.496,3.763,7.496,7.971c0,4.397-3.565,7.977-7.957,8c-0.05-0.003-0.093-0.005-0.137-0.007l-0.906,0.007v2h0.863
		v-0.007c0.046,0.001,0.091,0.007,0.137,0.007c5.521,0,10-4.477,10-10C-165.358-253.795-169.503-258.126-174.73-258.451z"/>
	
		<rect x="-205.924" y="-240.486" transform="matrix(-0.5736 -0.8191 0.8191 -0.5736 -119.0852 -540.9597)" width="11.183" height="1.999"/>
	
		<rect x="-187.949" y="-240.486" transform="matrix(-0.5736 -0.8191 0.8191 -0.5736 -90.7996 -526.2366)" width="11.183" height="1.999"/>
	<polygon points="-189.517,-235.48 -187.747,-235.48 -187.316,-235.48 -185.307,-235.48 -191.721,-244.642 -193.358,-243.494 
		-189.147,-237.48 -190.918,-237.48 -193.358,-237.48 -192.087,-235.664 -190.975,-234.075 -186.358,-227.48 -184.72,-228.627 
		-189.336,-235.223 	"/>
</g>
<g>
	<rect x="-99.883" y="-277.918" width="2" height="7.973"/>
	<rect x="-118.883" y="-259.004" width="7.973" height="2"/>
	<rect x="-114.21" y="-270.27" transform="matrix(0.7071 0.7071 -0.7071 0.7071 -222.6865 -0.9283)" width="7.974" height="2"/>
	<rect x="-88.701" y="-273.252" transform="matrix(0.7071 0.7071 -0.7071 0.7071 -216.0873 -16.8523)" width="2" height="7.972"/>
	<path d="M-69.371-252.128c-1.444-6.742-7.433-11.8-14.605-11.8c-2.185,0-4.258,0.47-6.126,1.313
		c-1.667-3.202-5.007-5.394-8.866-5.394c-5.522,0-10,4.477-10,9.999c0,2.46,0.899,4.702,2.373,6.442
		c-1.429,1.84-2.287,4.144-2.287,6.653c0,5.983,4.836,10.836,10.813,10.865v0.003h0.188v-2l-0.178-0.003
		c-4.864-0.023-8.822-4.001-8.822-8.865c0-4.89,3.978-8.868,8.867-8.868c0.15,0,0.299,0.012,0.447,0.022l0.148,0.01l1.314,0.085
		l0.597-1.175c2.225-4.372,6.644-7.089,11.532-7.089c6.062,0,11.382,4.298,12.649,10.219l0.318,1.483l1.514,0.094
		c3.708,0.23,6.612,3.319,6.612,7.03c0,3.878-3.144,7.035-7.017,7.057c-0.042-0.003-0.079-0.005-0.117-0.005l-0.866,0.005v2h0.819
		v-0.006c0.042,0.001,0.082,0.006,0.124,0.006c5.001,0,9.057-4.054,9.057-9.057C-60.883-247.911-64.637-251.833-69.371-252.128z
		 M-97.291-255.745c-0.241-0.016-0.48-0.036-0.725-0.036c-2.766,0-5.282,1.042-7.2,2.743c-1.092-1.367-1.753-3.09-1.753-4.971
		c0-4.41,3.589-7.999,8-7.999c3.091,0,5.76,1.773,7.091,4.345C-94.176-260.224-96.056-258.175-97.291-255.745z"/>
	
		<rect x="-99.461" y="-236.048" transform="matrix(-0.5736 -0.8191 0.8191 -0.5736 44.8133 -446.7705)" width="11.183" height="1.999"/>
	
		<rect x="-81.487" y="-236.048" transform="matrix(-0.5736 -0.8191 0.8191 -0.5736 73.0989 -432.0473)" width="11.183" height="1.999"/>
	<polygon points="-83.054,-231.042 -81.284,-231.042 -80.854,-231.042 -78.844,-231.042 -85.258,-240.203 -86.896,-239.056 
		-82.685,-233.042 -84.455,-233.042 -86.896,-233.042 -85.624,-231.226 -84.512,-229.637 -79.896,-223.042 -78.257,-224.188 
		-82.873,-230.784 	"/>
</g>
<g>
	<path d="M32.467-255.086c-1.444-6.742-7.433-11.8-14.605-11.8c-1.799,0-3.522,0.32-5.118,0.904
		c-0.949-5.108-5.404-8.98-10.788-8.98c-0.413,0-0.819,0.027-1.222,0.071c0.744,1.112,1.179,2.448,1.179,3.886c0,3.865-3.134,7-7,7
		c-1.438,0-2.773-0.435-3.886-1.179c-0.044,0.401-0.071,0.809-0.071,1.222c0,3.712,1.845,6.987,4.661,8.979
		c-1.653,1.907-2.661,4.389-2.661,7.111c0,5.983,4.836,10.836,10.813,10.865v0.003h0.188v-2l-0.178-0.003
		c-4.864-0.023-8.822-4.001-8.822-8.865c0-4.89,3.978-8.868,8.867-8.868c0.15,0,0.299,0.012,0.447,0.022l0.148,0.01l1.314,0.085
		l0.597-1.175c2.225-4.372,6.644-7.089,11.532-7.089c6.062,0,11.382,4.298,12.649,10.219l0.318,1.483l1.514,0.094
		c3.708,0.23,6.612,3.319,6.612,7.03c0,3.878-3.144,7.035-7.017,7.057c-0.042-0.003-0.079-0.005-0.117-0.005l-0.866,0.005v2h0.819
		v-0.006c0.042,0.001,0.082,0.006,0.124,0.006c5.001,0,9.057-4.054,9.057-9.057C40.955-250.869,37.201-254.791,32.467-255.086z
		 M4.547-258.703c-0.241-0.016-0.48-0.036-0.725-0.036c-2.537,0-4.865,0.876-6.715,2.334c-2.012-1.294-3.487-3.354-3.976-5.776
		c0.582,0.117,1.178,0.177,1.78,0.177c4.963,0,9-4.037,9-9c0-0.603-0.06-1.198-0.177-1.78c3.733,0.753,6.629,3.824,7.133,7.641
		C8.157-263.701,5.942-261.445,4.547-258.703z"/>
	
		<rect x="2.376" y="-239.006" transform="matrix(-0.5736 -0.8191 0.8191 -0.5736 207.4907 -368.0098)" width="11.183" height="1.999"/>
	
		<rect x="20.35" y="-239.006" transform="matrix(-0.5736 -0.8191 0.8191 -0.5736 235.7762 -353.2866)" width="11.183" height="1.999"/>
	<polygon points="18.783,-234 20.553,-234 20.983,-234 22.993,-234 16.579,-243.161 14.941,-242.014 19.152,-236 17.382,-236 
		14.941,-236 16.213,-234.184 17.325,-232.595 21.941,-226 23.58,-227.146 18.964,-233.742 	"/>
</g>
<g>
	<g>
		<path d="M-378.096-168.631c-1.596-7.445-8.207-13.029-16.127-13.029c-6.423,0-11.977,3.678-14.702,9.035
			c-0.266-0.018-0.53-0.04-0.8-0.04c-6.627,0-11.999,5.372-11.999,12c0,6.607,5.34,11.965,11.938,11.998v0.003h2.062v-2h-1.604
			l-0.447-0.003c-5.485-0.027-9.948-4.513-9.948-9.998c0-5.514,4.485-10,9.999-10c0.175,0,0.347,0.014,0.52,0.025l0.148,0.01
			l1.316,0.088l0.598-1.176c2.492-4.899,7.443-7.942,12.92-7.942c6.79,0,12.75,4.814,14.172,11.448l0.317,1.482l1.514,0.095
			c4.203,0.262,7.496,3.763,7.496,7.971c0,4.397-3.565,7.977-7.957,8c-0.05-0.003-0.093-0.005-0.137-0.007l-2.043,0.007h-2.863v2
			h4.863v-0.007c0.046,0.001,0.091,0.007,0.137,0.007c5.521,0,10-4.477,10-10C-368.724-163.975-372.868-168.306-378.096-168.631z"/>
	</g>
	<g>
		<circle cx="-403.224" cy="-155.088" r="1.5"/>
	</g>
	<g>
		<circle cx="-399.224" cy="-149.164" r="1.5"/>
	</g>
	<g>
		<circle cx="-391.224" cy="-149.164" r="1.5"/>
	</g>
	<g>
		<circle cx="-395.224" cy="-155.088" r="1.5"/>
	</g>
	<g>
		<circle cx="-387.224" cy="-155.088" r="1.5"/>
	</g>
	<g>
		<circle cx="-403.224" cy="-143.143" r="1.5"/>
	</g>
	<g>
		<circle cx="-395.224" cy="-143.143" r="1.5"/>
	</g>
	<g>
		<circle cx="-387.224" cy="-143.143" r="1.5"/>
	</g>
</g>
<g>
	<g>
		<rect x="-302.31" y="-184.108" width="2" height="7.973"/>
	</g>
	<g>
		<rect x="-321.31" y="-165.194" width="7.973" height="2"/>
	</g>
	<g>
		<rect x="-316.637" y="-176.461" transform="matrix(0.7071 0.7071 -0.7071 0.7071 -215.6425 169.6852)" width="7.974" height="2"/>
	</g>
	<g>
		<rect x="-291.128" y="-179.443" transform="matrix(0.7071 0.7071 -0.7071 0.7071 -209.0434 153.7613)" width="2" height="7.972"/>
	</g>
	<g>
		<path d="M-271.798-158.318c-1.444-6.742-7.433-11.8-14.605-11.8c-2.185,0-4.258,0.47-6.127,1.313
			c-1.666-3.202-5.006-5.394-8.865-5.394c-5.522,0-10,4.477-10,9.999c0,2.46,0.898,4.702,2.373,6.442
			c-1.428,1.84-2.287,4.144-2.287,6.653c0,5.983,4.836,10.836,10.813,10.865v0.003h1.188v-2h-0.721l-0.457-0.003
			c-4.864-0.023-8.822-4.001-8.822-8.865c0-4.89,3.978-8.868,8.867-8.868c0.15,0,0.299,0.012,0.447,0.022l0.148,0.01l1.314,0.085
			l0.597-1.175c2.225-4.372,6.644-7.089,11.532-7.089c6.062,0,11.382,4.298,12.649,10.219l0.318,1.483l1.514,0.094
			c3.708,0.23,6.612,3.319,6.612,7.03c0,3.878-3.144,7.035-7.017,7.057c-0.042-0.003-0.079-0.005-0.117-0.005l-2.047,0.005h-1.819v2
			h3.819v-0.006c0.042,0.001,0.082,0.006,0.124,0.006c5.001,0,9.057-4.054,9.057-9.057
			C-263.31-154.102-267.063-158.023-271.798-158.318z M-299.718-161.936c-0.241-0.016-0.48-0.036-0.725-0.036
			c-2.766,0-5.281,1.042-7.2,2.743c-1.092-1.367-1.753-3.09-1.753-4.971c0-4.41,3.589-7.999,8-7.999c3.092,0,5.76,1.773,7.092,4.345
			C-296.603-166.414-298.481-164.365-299.718-161.936z"/>
	</g>
	<g>
		<circle cx="-295.82" cy="-146.725" r="1.5"/>
	</g>
	<g>
		<circle cx="-291.82" cy="-140.725" r="1.5"/>
	</g>
	<g>
		<circle cx="-283.82" cy="-140.725" r="1.5"/>
	</g>
	<g>
		<circle cx="-287.82" cy="-146.725" r="1.5"/>
	</g>
	<g>
		<circle cx="-279.82" cy="-146.725" r="1.5"/>
	</g>
	<g>
		<circle cx="-295.82" cy="-134.703" r="1.5"/>
	</g>
	<g>
		<circle cx="-287.82" cy="-134.703" r="1.5"/>
	</g>
	<g>
		<circle cx="-279.82" cy="-134.703" r="1.5"/>
	</g>
</g>
<g>
	<g>
		<path d="M-175.847-162.274c-1.444-6.742-7.433-11.8-14.605-11.8c-1.799,0-3.521,0.32-5.118,0.904
			c-0.949-5.108-5.404-8.98-10.788-8.98c-0.413,0-0.819,0.027-1.222,0.071c0.744,1.112,1.179,2.448,1.179,3.886c0,3.865-3.134,7-7,7
			c-1.438,0-2.773-0.435-3.886-1.179c-0.044,0.401-0.071,0.809-0.071,1.222c0,3.712,1.845,6.987,4.661,8.979
			c-1.653,1.907-2.661,4.389-2.661,7.111c0,5.983,4.836,10.836,10.813,10.865v0.003h1.188v-2h-0.721l-0.457-0.003
			c-4.864-0.023-8.822-4.001-8.822-8.865c0-4.89,3.978-8.868,8.867-8.868c0.15,0,0.299,0.012,0.447,0.022l0.148,0.01l1.314,0.085
			l0.597-1.175c2.225-4.372,6.644-7.089,11.532-7.089c6.062,0,11.382,4.298,12.649,10.219l0.318,1.483l1.514,0.094
			c3.708,0.23,6.612,3.319,6.612,7.03c0,3.878-3.144,7.035-7.017,7.057c-0.042-0.003-0.079-0.005-0.117-0.005l-2.047,0.005h-1.819v2
			h3.819v-0.006c0.042,0.001,0.082,0.006,0.124,0.006c5.001,0,9.057-4.054,9.057-9.057
			C-167.358-158.058-171.112-161.979-175.847-162.274z M-203.767-165.892c-0.241-0.016-0.48-0.036-0.725-0.036
			c-2.537,0-4.865,0.876-6.715,2.334c-2.012-1.294-3.486-3.354-3.976-5.776c0.582,0.117,1.178,0.177,1.78,0.177c4.963,0,9-4.037,9-9
			c0-0.603-0.06-1.198-0.177-1.78c3.733,0.753,6.629,3.824,7.134,7.64C-200.157-170.89-202.372-168.635-203.767-165.892z"/>
	</g>
	<g>
		<circle cx="-199.858" cy="-150.682" r="1.5"/>
	</g>
	<g>
		<circle cx="-195.858" cy="-144.682" r="1.5"/>
	</g>
	<g>
		<circle cx="-187.858" cy="-144.682" r="1.5"/>
	</g>
	<g>
		<circle cx="-191.858" cy="-150.682" r="1.5"/>
	</g>
	<g>
		<circle cx="-183.858" cy="-150.682" r="1.5"/>
	</g>
	<g>
		<circle cx="-199.858" cy="-138.66" r="1.5"/>
	</g>
	<g>
		<circle cx="-191.858" cy="-138.66" r="1.5"/>
	</g>
	<g>
		<circle cx="-183.858" cy="-138.66" r="1.5"/>
	</g>
</g>
<g>
	<path d="M135.318-261.16c-1.596-7.445-8.207-13.029-16.127-13.029c-6.423,0-11.977,3.678-14.702,9.035
		c-0.266-0.018-0.53-0.04-0.8-0.04c-6.627,0-11.999,5.372-11.999,12c0,6.607,5.34,11.965,11.938,11.998v0.003h2.062v-2h-1.604
		l-0.447-0.003c-5.485-0.027-9.948-4.513-9.948-9.998c0-5.514,4.485-10,9.999-10c0.175,0,0.347,0.014,0.52,0.025l0.148,0.01
		l1.316,0.088l0.598-1.176c2.492-4.899,7.443-7.942,12.92-7.942c6.79,0,12.75,4.814,14.172,11.448l0.317,1.482l1.514,0.095
		c4.203,0.262,7.496,3.763,7.496,7.971c0,4.397-3.565,7.977-7.957,8c-0.05-0.003-0.093-0.005-0.137-0.007l-2.043,0.007h-2.863v2
		h4.863v-0.007c0.046,0.001,0.091,0.007,0.137,0.007c5.521,0,10-4.477,10-10C144.69-256.504,140.546-260.835,135.318-261.16z"/>
	<circle cx="109.69" cy="-233.689" r="1.5"/>
	<circle cx="117.69" cy="-227.689" r="1.5"/>
	<circle cx="125.69" cy="-231.689" r="1.5"/>
	<rect x="108.69" y="-250.165" width="2" height="11.976"/>
	<polygon points="118.69,-232.225 118.69,-234.165 118.69,-246.165 116.69,-246.165 116.69,-234.165 116.69,-232.225 
		116.69,-232.189 118.69,-232.189 	"/>
	<polygon points="126.69,-236.412 126.69,-238.165 126.69,-250.165 124.69,-250.165 124.69,-238.165 124.69,-236.412 
		124.69,-236.189 126.69,-236.189 	"/>
</g>
<g>
	<rect x="-613.059" y="-189.547" width="2" height="7.973"/>
	<rect x="-632.059" y="-170.633" width="7.973" height="2"/>
	<rect x="-627.386" y="-181.899" transform="matrix(0.7071 0.7071 -0.7071 0.7071 -310.5044 387.8251)" width="7.974" height="2"/>
	<rect x="-601.877" y="-184.881" transform="matrix(0.7071 0.7071 -0.7071 0.7071 -303.9052 371.9011)" width="2" height="7.972"/>
	<path d="M-582.547-163.757c-1.444-6.742-7.433-11.8-14.605-11.8c-2.185,0-4.258,0.47-6.126,1.313
		c-1.667-3.202-5.007-5.394-8.866-5.394c-5.522,0-10,4.477-10,9.999c0,2.46,0.899,4.702,2.373,6.442
		c-1.429,1.84-2.287,4.144-2.287,6.653c0,5.983,4.836,10.836,10.813,10.865v0.003h1.188v-2h-0.721l-0.457-0.003
		c-4.864-0.023-8.822-4.001-8.822-8.865c0-4.89,3.978-8.868,8.867-8.868c0.15,0,0.299,0.012,0.447,0.022l0.148,0.01l1.314,0.085
		l0.597-1.175c2.225-4.372,6.644-7.089,11.532-7.089c6.062,0,11.382,4.298,12.649,10.219l0.318,1.483l1.514,0.094
		c3.708,0.23,6.612,3.319,6.612,7.03c0,3.878-3.144,7.035-7.017,7.057c-0.042-0.003-0.079-0.005-0.117-0.005l-2.047,0.005h-0.819v2
		h2.819v-0.006c0.042,0.001,0.082,0.006,0.124,0.006c5.001,0,9.057-4.054,9.057-9.057
		C-574.059-159.54-577.813-163.462-582.547-163.757z M-610.467-167.374c-0.241-0.016-0.48-0.036-0.725-0.036
		c-2.766,0-5.282,1.041-7.2,2.743c-1.092-1.366-1.753-3.09-1.753-4.971c0-4.41,3.589-7.999,8-7.999c3.091,0,5.76,1.773,7.091,4.345
		C-607.352-171.852-609.231-169.804-610.467-167.374z"/>
	<circle cx="-606.068" cy="-137.187" r="1.5"/>
	<circle cx="-598.068" cy="-131.187" r="1.5"/>
	<circle cx="-590.068" cy="-135.187" r="1.5"/>
	<rect x="-607.068" y="-153.662" width="2" height="11.976"/>
	<polygon points="-597.068,-135.722 -597.068,-137.662 -597.068,-149.662 -599.068,-149.662 -599.068,-137.662 -599.068,-135.722 
		-599.068,-135.687 -597.068,-135.687 	"/>
	<polygon points="-589.068,-139.909 -589.068,-141.662 -589.068,-153.662 -591.068,-153.662 -591.068,-141.662 -591.068,-139.909 
		-591.068,-139.687 -589.068,-139.687 	"/>
</g>
<g>
	<path d="M-481.944-166.755c-1.444-6.742-7.433-11.8-14.605-11.8c-1.799,0-3.522,0.32-5.118,0.904
		c-0.949-5.108-5.404-8.98-10.788-8.98c-0.413,0-0.819,0.027-1.222,0.071c0.744,1.112,1.179,2.448,1.179,3.886c0,3.865-3.134,7-7,7
		c-1.438,0-2.773-0.435-3.886-1.179c-0.044,0.401-0.071,0.809-0.071,1.222c0,3.712,1.845,6.987,4.661,8.979
		c-1.653,1.907-2.661,4.389-2.661,7.111c0,5.983,4.836,10.836,10.813,10.865v0.003h1.188v-2h-0.721l-0.457-0.003
		c-4.864-0.023-8.822-4.001-8.822-8.865c0-4.89,3.978-8.868,8.867-8.868c0.15,0,0.299,0.012,0.447,0.022l0.148,0.01l1.314,0.085
		l0.597-1.175c2.225-4.372,6.644-7.089,11.532-7.089c6.062,0,11.382,4.298,12.649,10.219l0.318,1.483l1.514,0.094
		c3.708,0.23,6.612,3.319,6.612,7.03c0,3.878-3.144,7.035-7.017,7.057c-0.042-0.003-0.079-0.005-0.117-0.005l-2.047,0.005h-0.819v2
		h2.819v-0.006c0.042,0.001,0.082,0.006,0.124,0.006c5.001,0,9.057-4.054,9.057-9.057
		C-473.456-162.538-477.21-166.46-481.944-166.755z M-509.864-170.372c-0.241-0.016-0.48-0.036-0.725-0.036
		c-2.537,0-4.865,0.876-6.715,2.334c-2.012-1.294-3.487-3.354-3.976-5.776c0.582,0.117,1.178,0.177,1.78,0.177c4.963,0,9-4.037,9-9
		c0-0.603-0.06-1.198-0.177-1.78c3.733,0.753,6.629,3.824,7.133,7.64C-506.254-175.37-508.469-173.115-509.864-170.372z"/>
	<circle cx="-505.456" cy="-140.181" r="1.5"/>
	<circle cx="-497.456" cy="-134.181" r="1.5"/>
	<circle cx="-489.456" cy="-138.181" r="1.5"/>
	<rect x="-506.456" y="-156.656" width="2" height="11.976"/>
	<polygon points="-496.456,-138.716 -496.456,-140.656 -496.456,-152.656 -498.456,-152.656 -498.456,-140.656 -498.456,-138.716 
		-498.456,-138.681 -496.456,-138.681 	"/>
	<polygon points="-488.456,-142.903 -488.456,-144.656 -488.456,-156.656 -490.456,-156.656 -490.456,-144.656 -490.456,-142.903 
		-490.456,-142.681 -488.456,-142.681 	"/>
</g>
<g>
	<rect x="-630.059" y="-62.314" width="56" height="2"/>
	<rect x="-626.059" y="-56.314" width="50" height="2"/>
	<rect x="-620.059" y="-50.314" width="36" height="2"/>
	<rect x="-628.059" y="-68.314" width="52" height="2"/>
	<path d="M-616.185-76.319c0.175,0,0.347,0.014,0.519,0.025l0.149,0.01l1.316,0.088l0.598-1.176
		c2.493-4.899,7.443-7.942,12.92-7.942c6.79,0,12.75,4.814,14.171,11.448l0.318,1.482l1.514,0.095
		c1.207,0.075,2.335,0.425,3.336,0.975h3.286c-1.678-1.703-3.957-2.813-6.498-2.971c-1.596-7.445-8.207-13.029-16.127-13.029
		c-6.423,0-11.977,3.678-14.702,9.035c-0.266-0.018-0.53-0.04-0.8-0.04c-4.843,0-9.004,2.874-10.9,7.005h2.251
		C-623.103-74.301-619.878-76.319-616.185-76.319z"/>
</g>
<g>
	<rect x="-508.956" y="-89.829" width="2" height="7.973"/>
	<rect x="-527.956" y="-70.915" width="7.973" height="2"/>
	<rect x="-523.283" y="-82.182" transform="matrix(0.7071 0.7071 -0.7071 0.7071 -209.5023 343.4201)" width="7.974" height="2"/>
	<rect x="-497.774" y="-85.163" transform="matrix(0.7071 0.7071 -0.7071 0.7071 -202.9032 327.4962)" width="2" height="7.972"/>
	<rect x="-518.956" y="-55.955" width="50" height="2"/>
	<rect x="-514.956" y="-49.955" width="44" height="2"/>
	<rect x="-508.956" y="-44.955" width="30" height="2"/>
	<rect x="-516.956" y="-61.955" width="46" height="2"/>
	<path d="M-516.048-63.955h0.771h1.927h1.012c1.472-1.087,3.283-1.737,5.249-1.737c0.15,0,0.299,0.012,0.447,0.022l0.148,0.01
		l1.314,0.085l0.597-1.175c2.225-4.372,6.644-7.089,11.532-7.089c5.945,0,11.168,4.139,12.563,9.884h2.043v-0.084
		c-1.444-6.742-7.433-11.8-14.605-11.8c-2.185,0-4.258,0.47-6.126,1.313c-1.667-3.202-5.007-5.394-8.866-5.394
		c-5.522,0-10,4.477-10,9.999C-518.042-67.679-517.294-65.62-516.048-63.955z M-508.042-77.919c3.091,0,5.76,1.773,7.091,4.345
		c-2.298,1.44-4.178,3.488-5.413,5.918c-0.241-0.016-0.48-0.036-0.725-0.036c-2.764,0-5.274,1.045-7.189,2.745
		c-1.097-1.366-1.764-3.089-1.764-4.973C-516.042-74.33-512.453-77.919-508.042-77.919z"/>
</g>
<g>
	<rect x="-420.212" y="-59.393" width="50" height="2"/>
	<rect x="-416.212" y="-53.393" width="44" height="2"/>
	<rect x="-410.212" y="-48.393" width="30" height="2"/>
	<rect x="-418.212" y="-65.393" width="46" height="2"/>
	<path d="M-416.569-67.393h0.037h1.884h1.055c1.472-1.087,3.283-1.737,5.249-1.737c0.15,0,0.299,0.012,0.447,0.022l0.148,0.01
		l1.314,0.085l0.597-1.175c2.225-4.372,6.644-7.089,11.532-7.089c5.945,0,11.168,4.139,12.563,9.884h2.043v-0.084
		c-1.444-6.742-7.433-11.8-14.605-11.8c-1.799,0-3.521,0.32-5.117,0.903c-0.945-5.111-5.402-8.987-10.789-8.987
		c-0.413,0-0.819,0.027-1.222,0.071c0.744,1.112,1.179,2.448,1.179,3.886c0,3.865-3.134,7-7,7c-1.438,0-2.773-0.435-3.886-1.179
		c-0.044,0.401-0.071,0.809-0.071,1.222C-421.212-72.656-419.376-69.386-416.569-67.393z M-417.255-74.403c4.963,0,9-4.037,9-9
		c0-0.603-0.06-1.198-0.177-1.78c3.735,0.753,6.633,3.828,7.134,7.647c-2.712,1.443-4.927,3.699-6.322,6.442
		c-0.241-0.016-0.48-0.036-0.725-0.036c-2.534,0-4.855,0.879-6.701,2.335c-2.02-1.293-3.5-3.356-3.989-5.785
		C-418.453-74.463-417.857-74.403-417.255-74.403z"/>
</g>
<g>
	<path d="M-288.32-56.379h-19.474l-0.578-0.003c-5.485-0.027-9.948-4.513-9.948-9.998c0-5.514,4.485-10,9.999-10
		c0.175,0,0.347,0.014,0.519,0.025l0.149,0.01l1.316,0.088l0.598-1.176c2.493-4.899,7.443-7.942,12.92-7.942
		c6.79,0,12.75,4.814,14.171,11.448l0.318,1.482l1.514,0.095c1.822,0.113,3.463,0.845,4.746,1.971h2.732
		c-1.707-2.262-4.348-3.78-7.354-3.967c-1.596-7.445-8.207-13.029-16.127-13.029c-6.423,0-11.977,3.678-14.702,9.035
		c-0.266-0.018-0.53-0.04-0.8-0.04c-6.627,0-11.999,5.372-11.999,12c0,6.607,5.34,11.965,11.938,11.998v0.003h20.062
		c2.205,0,4,1.794,4,4s-1.795,4-4,4v2c3.314,0,6-2.686,6-6C-282.32-53.692-285.006-56.379-288.32-56.379z"/>
	<path d="M-284.32-60.379h-15.988v2h15.988c3.314,0,6-2.687,6-6c0-3.314-2.686-6-6-6v2c2.205,0,4,1.794,4,4
		S-282.115-60.379-284.32-60.379z"/>
	<path d="M-271.32-66.379c1.654,0,3,1.346,3,3s-1.346,3-3,3c-0.043,0-0.083-0.011-0.126-0.013h-4.862
		c0.003,0.005,0.009,0.008,0.012,0.013h-0.023v2h5.5v-0.051c2.523-0.254,4.5-2.358,4.5-4.949c0-2.762-2.238-5-5-5V-66.379z"/>
	<path d="M-267.32-56.379h-13v2h9.022c-0.004,0.005-0.008,0.008-0.011,0.013h3.862c0.043-0.002,0.083-0.013,0.126-0.013
		c1.654,0,3,1.346,3,3s-1.346,3-3,3v2c2.762,0,5-2.238,5-5S-264.559-56.379-267.32-56.379z"/>
	<rect x="-306.32" y="-60.379" width="4" height="2"/>
</g>
<path d="M-495.882-455.482c6.95,1.305,12.226,7.419,12.226,14.742c0,8.272-6.729,15.002-15,15.002
	c-6.79,0-12.531-4.49-14.366-10.728c1.398,0.461,2.867,0.698,4.366,0.698c7.72,0,14-6.281,14-14.001
	C-494.656-451.753-495.08-453.697-495.882-455.482 M-498.656-457.739c-0.338,0-0.668,0.031-1,0.051c1.861,2.113,3,4.881,3,7.92
	c0,6.627-5.372,12.001-12,12.001c-2.599,0-4.998-0.835-6.963-2.239c0.387,9.047,7.821,16.269,16.963,16.269
	c9.39,0,17-7.612,17-17.002S-489.267-457.739-498.656-457.739L-498.656-457.739z"/>
<g>
	<path d="M-602.052-452.744c-7.18,0-13,5.819-13,12.999c0,7.181,5.82,13.002,13,13.002s13-5.821,13-13.002
		C-589.052-446.925-594.872-452.744-602.052-452.744z M-602.052-428.743c-6.065,0-11-4.936-11-11.002
		c0-6.064,4.935-10.999,11-10.999s11,4.935,11,10.999C-591.052-433.679-595.986-428.743-602.052-428.743z"/>
	<rect x="-603.059" y="-465.738" width="2" height="10"/>
	<rect x="-603.059" y="-423.738" width="2" height="10"/>
	<rect x="-628.052" y="-440.738" width="9.993" height="2"/>
	<rect x="-586.059" y="-440.738" width="10.007" height="2"/>
	<rect x="-588.359" y="-459.652" transform="matrix(0.7071 0.7071 -0.7071 0.7071 -493.3765 282.2208)" width="2" height="10.409"/>
	
		<rect x="-617.767" y="-430.243" transform="matrix(-0.7071 -0.7071 0.7071 -0.7071 -752.3405 -1161.7068)" width="2" height="10.41"/>
	<rect x="-621.968" y="-455.443" transform="matrix(0.7071 0.7071 -0.7071 0.7071 -501.9854 303.0142)" width="10.409" height="2"/>
	
		<rect x="-592.559" y="-426.034" transform="matrix(-0.7072 -0.7071 0.7071 -0.7072 -702.1801 -1140.8927)" width="10.41" height="2"/>
</g>
<g>
	<rect x="-203.886" y="-94.877" width="2" height="7.973"/>
	<rect x="-222.858" y="-75.891" width="7.973" height="2"/>
	<rect x="-218.133" y="-87.109" transform="matrix(0.7071 0.7071 -0.7071 0.7071 -123.6103 126.2029)" width="7.974" height="2"/>
	<rect x="-192.624" y="-90.091" transform="matrix(0.7071 0.7071 -0.7071 0.7071 -117.0111 110.2789)" width="2" height="7.972"/>
	<path d="M-188.858-52.877l0.005-0.007h-12.536l-0.594-0.003c-4.864-0.024-8.822-4.001-8.822-8.865c0-4.89,3.978-8.868,8.867-8.868
		c0.15,0,0.299,0.012,0.447,0.021l0.148,0.011l1.314,0.085l0.597-1.174c2.225-4.373,6.644-7.09,11.532-7.09
		c5.916,0,11.114,4.099,12.54,9.8h2.065c-1.444-6.742-7.433-11.8-14.605-11.8c-2.185,0-4.258,0.47-6.126,1.313
		c-1.667-3.202-5.007-5.394-8.866-5.394c-5.522,0-10,4.477-10,9.999c0,2.46,0.899,4.702,2.373,6.442
		c-1.429,1.84-2.287,4.144-2.287,6.653c0,5.983,4.836,10.836,10.813,10.865v0.003h13.135v0.007c2.205,0,4,1.794,4,4s-1.795,4-4,4v2
		c3.314,0,6-2.686,6-6C-182.858-50.19-185.544-52.877-188.858-52.877z M-202.892-82.847c3.091,0,5.76,1.773,7.091,4.345
		c-2.298,1.439-4.178,3.488-5.413,5.918c-0.241-0.016-0.48-0.036-0.725-0.036c-2.766,0-5.282,1.042-7.2,2.743
		c-1.092-1.367-1.753-3.09-1.753-4.971C-210.892-79.258-207.303-82.847-202.892-82.847z"/>
	<path d="M-184.858-56.877h-9.988v2h9.988c3.314,0,6-2.687,6-6c0-3.314-2.686-6-6-6v2c2.205,0,4,1.794,4,4
		S-182.653-56.877-184.858-56.877z"/>
	<path d="M-176.835-56.877h-0.023v2h5.5v-0.051c2.523-0.254,4.5-2.358,4.5-4.949c0-2.762-2.238-5-5-5v2c1.654,0,3,1.346,3,3
		s-1.346,3-3,3c-0.043,0-0.083-0.011-0.126-0.013h-4.862C-176.844-56.885-176.838-56.881-176.835-56.877z"/>
	<path d="M-167.858-52.877h-13v2h9.022c-0.004,0.004-0.008,0.008-0.011,0.013h3.862c0.043-0.002,0.083-0.013,0.126-0.013
		c1.654,0,3,1.346,3,3s-1.346,3-3,3v2c2.762,0,5-2.238,5-5S-165.097-52.877-167.858-52.877z"/>
	<rect x="-200.858" y="-56.877" width="4" height="2"/>
</g>
<g>
	<path d="M-88.896-54.883l0.005-0.007h-12.536l-0.594-0.003c-4.864-0.024-8.822-4.001-8.822-8.865c0-4.89,3.978-8.868,8.867-8.868
		c0.15,0,0.299,0.012,0.447,0.021l0.148,0.011l1.314,0.085l0.597-1.174c2.225-4.373,6.644-7.09,11.532-7.09
		c5.916,0,11.114,4.099,12.54,9.8h2.065c-1.444-6.742-7.433-11.8-14.605-11.8c-1.806,0-3.536,0.322-5.138,0.91
		c-0.938-5.123-5.4-9.01-10.794-9.01c-0.413,0-0.819,0.027-1.222,0.071c0.744,1.112,1.179,2.448,1.179,3.886c0,3.865-3.134,7-7,7
		c-1.438,0-2.773-0.435-3.886-1.179c-0.044,0.401-0.071,0.809-0.071,1.222c0,3.725,1.858,7.009,4.69,8.998
		c-1.655,1.907-2.665,4.392-2.665,7.116c0,5.983,4.836,10.836,10.813,10.865v0.003h13.135v0.007c2.205,0,4,1.794,4,4s-1.795,4-4,4v2
		c3.314,0,6-2.686,6-6C-82.896-52.196-85.582-54.883-88.896-54.883z M-112.692-78.092c0.582,0.117,1.178,0.177,1.78,0.177
		c4.963,0,9-4.037,9-9c0-0.603-0.06-1.198-0.177-1.78c3.744,0.755,6.646,3.842,7.138,7.674c-2.702,1.444-4.909,3.696-6.301,6.432
		c-0.241-0.016-0.48-0.036-0.725-0.036c-2.535,0-4.861,0.875-6.71,2.33C-110.715-73.588-112.201-75.656-112.692-78.092z"/>
	<path d="M-84.896-58.883h-9.988v2h9.988c3.314,0,6-2.687,6-6c0-3.314-2.686-6-6-6v2c2.205,0,4,1.794,4,4
		S-82.691-58.883-84.896-58.883z"/>
	<path d="M-76.873-58.883h-0.023v2h5.5v-0.051c2.523-0.254,4.5-2.358,4.5-4.949c0-2.762-2.238-5-5-5v2c1.654,0,3,1.346,3,3
		s-1.346,3-3,3c-0.043,0-0.083-0.011-0.126-0.013h-4.862C-76.882-58.891-76.876-58.887-76.873-58.883z"/>
	<path d="M-67.896-54.883h-13v2h9.022c-0.004,0.004-0.008,0.008-0.011,0.013h3.862c0.043-0.002,0.083-0.013,0.126-0.013
		c1.654,0,3,1.346,3,3s-1.346,3-3,3v2c2.762,0,5-2.238,5-5S-65.135-54.883-67.896-54.883z"/>
	<rect x="-100.896" y="-58.883" width="4" height="2"/>
</g>
<g>
	<rect x="11.996" y="-92.314" width="2" height="10"/>
	<rect x="-12.997" y="-67.314" width="9.993" height="2"/>
	<rect x="26.696" y="-86.228" transform="matrix(0.7071 0.7071 -0.7071 0.7071 -49.1807 -43.3152)" width="2" height="10.409"/>
	<rect x="-6.913" y="-82.019" transform="matrix(0.7071 0.7071 -0.7071 0.7071 -57.7895 -22.5218)" width="10.409" height="2"/>
	<path d="M16.996-52.314h-24v2h24c2.205,0,4,1.794,4,4s-1.795,4-4,4v2c3.314,0,6-2.686,6-6
		C22.996-49.628,20.311-52.314,16.996-52.314z"/>
	<path d="M29.02-56.314h-0.023v2h5.5v-0.051c2.523-0.254,4.5-2.358,4.5-4.949c0-2.762-2.238-5-5-5v2c1.654,0,3,1.346,3,3
		s-1.346,3-3,3c-0.043,0-0.083-0.011-0.126-0.013h-4.862C29.011-56.322,29.017-56.318,29.02-56.314z"/>
	<path d="M37.996-52.314h-13v2h9.022c-0.004,0.004-0.008,0.008-0.011,0.013h3.862c0.043-0.002,0.083-0.013,0.126-0.013
		c1.654,0,3,1.346,3,3s-1.346,3-3,3v2c2.762,0,5-2.238,5-5S40.758-52.314,37.996-52.314z"/>
	<path d="M4.705-56.314H-7.004v2H5.008H5.83h15.166c3.314,0,6-2.687,6-6c0-3.314-2.686-6-6-6v2c2.205,0,4,1.794,4,4s-1.795,4-4,4
		H8.458c-3.802-1.734-6.455-5.563-6.455-10.007c0-6.064,4.935-10.999,11-10.999c5.384,0,9.868,3.891,10.81,9.006h2.021
		c-0.961-6.23-6.331-11.006-12.831-11.006c-7.18,0-13,5.819-13,12.999C0.003-62.296,1.833-58.699,4.705-56.314z"/>
</g>
<g>
	<path d="M117.223-58.871h-24v2h24c2.205,0,4,1.794,4,4s-1.795,4-4,4v2c3.314,0,6-2.686,6-6
		C123.223-56.185,120.537-58.871,117.223-58.871z"/>
	<path d="M134.723-60.871v-0.051c2.523-0.254,4.5-2.358,4.5-4.949c0-2.762-2.238-5-5-5v2c1.654,0,3,1.346,3,3s-1.346,3-3,3
		c-0.043,0-0.083-0.011-0.126-0.013h-4.862c0.004,0.005,0.009,0.009,0.012,0.013h-0.023v2H134.723z"/>
	<path d="M138.223-58.871h-13v2h9.022c-0.003,0.004-0.007,0.008-0.011,0.013h3.862c0.043-0.002,0.083-0.013,0.126-0.013
		c1.654,0,3,1.346,3,3s-1.346,3-3,3v2c2.762,0,5-2.238,5-5S140.984-58.871,138.223-58.871z"/>
	<path d="M106.057-60.871h15.166c3.314,0,6-2.687,6-6c0-3.314-2.686-6-6-6v2c2.205,0,4,1.794,4,4s-1.795,4-4,4h-12.586
		c-2.596-1.188-4.658-3.339-5.69-6.034c0.849,0.204,1.724,0.309,2.612,0.309c6.168,0,11.187-5.019,11.187-11.188
		c0-1.276-0.22-2.532-0.64-3.717c4.046,1.102,7.168,4.459,7.937,8.63h2.018c-0.964-6.237-6.338-11.016-12.846-11.016
		c-0.259,0-0.511,0.024-0.766,0.039c1.425,1.618,2.297,3.737,2.297,6.063c0,5.072-4.112,9.188-9.187,9.188
		c-1.988,0-3.826-0.641-5.33-1.715c0.162,3.801,1.962,7.165,4.699,9.44H93.223v2h12.012H106.057z"/>
</g>
<g>
	<path d="M-602.559,26.322h-20c-1.103,0-2-0.897-2-2s0.897-2,2-2h3.445h0.555v-2h-4c-2.209,0-4,1.791-4,4s1.791,4,4,4h20
		c2.205,0,4,1.794,4,4s-1.795,4-4,4v2c3.314,0,6-2.686,6-6C-596.559,29.009-599.244,26.322-602.559,26.322z"/>
	<path d="M-600.559,10.322v2c2.205,0,4,1.794,4,4s-1.795,4-4,4h-15.988v2h15.988c3.314,0,6-2.687,6-6
		C-594.559,13.008-597.244,10.322-600.559,10.322z"/>
	<path d="M-594.559,22.322v2h5.5v-0.051c2.523-0.254,4.5-2.358,4.5-4.949c0-2.762-2.238-5-5-5v2c1.654,0,3,1.346,3,3s-1.346,3-3,3
		c-0.043,0-0.083-0.011-0.126-0.013h-4.862c0.003,0.005,0.009,0.009,0.012,0.013H-594.559z"/>
	<path d="M-583.559,26.322h-11v2h7.022c-0.004,0.004-0.008,0.008-0.011,0.013h3.862c0.043-0.002,0.083-0.013,0.126-0.013
		c1.654,0,3,1.346,3,3s-1.346,3-3,3v2c2.762,0,5-2.238,5-5S-580.797,26.322-583.559,26.322z"/>
</g>
<path d="M-66.267,12.669v-0.038h-38.376c-1.103,0-2-0.897-2-2s0.897-2,2-2h33c2.762,0,5-2.238,5-5s-2.238-5-5-5h-37.875v0.008
	c-0.042-0.001-0.083-0.008-0.125-0.008c-2.762,0-5,2.238-5,5s2.238,5,5,5v-2c-1.654,0-3-1.346-3-3s1.346-3,3-3h0.125h3.853h34.022
	c1.654,0,3,1.346,3,3s-1.346,3-3,3h-33c-2.209,0-4,1.791-4,4s1.791,4,4,4h38c1.103,0,2,0.897,2,2s-0.897,2-2,2h-32
	c-2.209,0-4,1.791-4,4s1.791,4,4,4h22c1.103,0,2,0.897,2,2s-0.897,2-2,2h-24.01v0.001c-2.204,0.006-3.99,1.793-3.99,3.999
	s1.786,3.993,3.99,3.999v0.001h12.01c1.103,0,2,0.897,2,2s-0.897,2-2,2h-2c-2.209,0-4,1.791-4,4s1.791,4,4,4v-2
	c-1.103,0-2-0.897-2-2s0.897-2,2-2h2c2.209,0,4-1.791,4-4s-1.791-4-4-4h-12c-1.103,0-2-0.897-2-2s0.897-2,2-2h24
	c2.209,0,4-1.791,4-4c0-2.152-1.704-3.895-3.834-3.983v-0.017h-22.166c-1.103,0-2-0.897-2-2s0.897-2,2-2h32c2.209,0,4-1.791,4-4
	C-62.643,14.551-64.236,12.861-66.267,12.669z"/>
<path d="M119.148,3.347V1.322h-2v2.024c-13.01,0.513-23.462,10.965-23.975,23.976h1.674c1.14-1.222,2.748-2,4.551-2
	c2.26,0,4.233,1.203,5.331,3h1.838c1.098-1.797,3.071-3,5.331-3c2.204,0,4.137,1.144,5.25,2.866v15.134c0,2.21,1.791,4,4,4
	s4-1.79,4-4h-2c0,1.103-0.897,2-2,2s-2-0.897-2-2V28.188c1.113-1.723,3.046-2.866,5.25-2.866c2.26,0,4.233,1.203,5.331,3h1.838
	c1.098-1.797,3.071-3,5.331-3c1.803,0,3.411,0.778,4.551,2h1.674C142.61,14.312,132.158,3.859,119.148,3.347z M136.898,23.322
	c-2.496,0-4.736,1.114-6.25,2.87c-1.514-1.756-3.754-2.87-6.25-2.87s-4.736,1.114-6.25,2.87c-1.514-1.756-3.754-2.87-6.25-2.87
	s-4.736,1.114-6.25,2.87c-1.514-1.756-3.755-2.87-6.25-2.87c-1.402,0-2.731,0.351-3.897,0.975
	C97.41,13.528,106.84,5.322,118.148,5.322s20.738,8.206,22.647,18.975C139.63,23.673,138.301,23.322,136.898,23.322z"/>
<g>
	<path d="M-286.146,127.635v-17.105c0-2.762-2.238-5-5-5s-5,2.238-5,5v17.105c-1.236,1.263-2,2.988-2,4.895c0,3.866,3.134,7,7,7
		s7-3.134,7-7C-284.146,130.623-284.91,128.897-286.146,127.635z M-291.146,137.529c-2.757,0-5-2.243-5-5
		c0-1.313,0.508-2.554,1.429-3.495l0.571-0.583v-0.816v-17.105c0-1.654,1.346-3,3-3s3,1.346,3,3v17.105v0.816l0.571,0.583
		c0.921,0.941,1.429,2.183,1.429,3.495C-286.146,135.286-288.39,137.529-291.146,137.529z"/>
	<path d="M-290.146,129.705v-15.176h-2v15.176c-1.167,0.413-2.008,1.516-2.008,2.824c0,1.662,1.347,3.008,3.008,3.008
		c1.662,0,3.008-1.346,3.008-3.008C-288.139,131.221-288.979,130.118-290.146,129.705z M-291.146,133.537
		c-0.556,0-1.008-0.452-1.008-1.008s0.452-1.008,1.008-1.008s1.008,0.452,1.008,1.008S-290.591,133.537-291.146,133.537z"/>
</g>
<g>
	<path d="M-186.358,127.635v-17.105c0-2.762-2.238-5-5-5s-5,2.238-5,5v17.105c-1.236,1.263-2,2.988-2,4.895c0,3.866,3.134,7,7,7
		s7-3.134,7-7C-184.358,130.623-185.122,128.897-186.358,127.635z M-191.358,137.529c-2.757,0-5-2.243-5-5
		c0-1.313,0.508-2.554,1.429-3.495l0.571-0.583v-0.816v-17.105c0-1.654,1.346-3,3-3s3,1.346,3,3v17.105v0.816l0.571,0.583
		c0.921,0.941,1.429,2.183,1.429,3.495C-186.358,135.286-188.602,137.529-191.358,137.529z"/>
	<path d="M-190.358,129.705v-20.176h-2v20.176c-1.167,0.413-2.008,1.516-2.008,2.824c0,1.662,1.347,3.008,3.008,3.008
		c1.662,0,3.008-1.346,3.008-3.008C-188.351,131.221-189.19,130.118-190.358,129.705z M-191.358,133.537
		c-0.556,0-1.008-0.452-1.008-1.008s0.452-1.008,1.008-1.008s1.008,0.452,1.008,1.008S-190.803,133.537-191.358,133.537z"/>
</g>
<g>
	<path d="M-389.256,127.635v-17.105c0-2.762-2.238-5-5-5s-5,2.238-5,5v17.105c-1.236,1.263-2,2.988-2,4.895c0,3.866,3.134,7,7,7
		s7-3.134,7-7C-387.256,130.623-388.02,128.897-389.256,127.635z M-394.256,137.529c-2.757,0-5-2.243-5-5
		c0-1.313,0.508-2.554,1.429-3.495l0.571-0.583v-0.816v-17.105c0-1.654,1.346-3,3-3s3,1.346,3,3v17.105v0.816l0.571,0.583
		c0.921,0.941,1.429,2.183,1.429,3.495C-389.256,135.286-391.499,137.529-394.256,137.529z"/>
	<path d="M-393.256,129.705v-10.176h-2v10.176c-1.167,0.413-2.008,1.516-2.008,2.824c0,1.662,1.347,3.008,3.008,3.008
		c1.662,0,3.008-1.346,3.008-3.008C-391.248,131.221-392.088,130.118-393.256,129.705z M-394.256,133.537
		c-0.556,0-1.008-0.452-1.008-1.008s0.452-1.008,1.008-1.008s1.008,0.452,1.008,1.008S-393.7,133.537-394.256,133.537z"/>
</g>
<g>
	<path d="M-492.901,127.635v-17.105c0-2.762-2.238-5-5-5s-5,2.238-5,5v17.105c-1.236,1.263-2,2.988-2,4.895c0,3.866,3.134,7,7,7
		s7-3.134,7-7C-490.901,130.623-491.665,128.897-492.901,127.635z M-497.901,137.529c-2.757,0-5-2.243-5-5
		c0-1.313,0.508-2.554,1.429-3.495l0.571-0.583v-0.816v-17.105c0-1.654,1.346-3,3-3s3,1.346,3,3v17.105v0.816l0.571,0.583
		c0.921,0.941,1.429,2.183,1.429,3.495C-492.901,135.286-495.145,137.529-497.901,137.529z"/>
	<path d="M-496.901,129.705v-5.176h-2v5.176c-1.167,0.413-2.008,1.516-2.008,2.824c0,1.662,1.347,3.008,3.008,3.008
		c1.662,0,3.008-1.346,3.008-3.008C-494.894,131.221-495.733,130.118-496.901,129.705z M-497.901,133.537
		c-0.556,0-1.008-0.452-1.008-1.008s0.452-1.008,1.008-1.008s1.008,0.452,1.008,1.008S-497.346,133.537-497.901,133.537z"/>
</g>
<g>
	<path d="M-597.559,127.635v-17.105c0-2.762-2.238-5-5-5s-5,2.238-5,5v17.105c-1.236,1.263-2,2.988-2,4.895c0,3.866,3.134,7,7,7
		s7-3.134,7-7C-595.559,130.623-596.322,128.897-597.559,127.635z M-602.559,137.529c-2.757,0-5-2.243-5-5
		c0-1.313,0.508-2.554,1.429-3.495l0.571-0.583v-0.816v-17.105c0-1.654,1.346-3,3-3s3,1.346,3,3v17.105v0.816l0.571,0.583
		c0.921,0.941,1.429,2.183,1.429,3.495C-597.559,135.286-599.802,137.529-602.559,137.529z"/>
	<path d="M-602.559,129.521c-1.661,0-3.008,1.347-3.008,3.008c0,1.662,1.347,3.008,3.008,3.008c1.662,0,3.008-1.346,3.008-3.008
		C-599.551,130.868-600.896,129.521-602.559,129.521z M-602.559,133.537c-0.556,0-1.008-0.452-1.008-1.008s0.452-1.008,1.008-1.008
		s1.008,0.452,1.008,1.008S-602.003,133.537-602.559,133.537z"/>
</g>
<g>
	<path d="M-97.634,107.842c-2.209,0-4,1.791-4,4c0,2.21,1.791,4,4,4c2.211,0,4-1.79,4-4
		C-93.634,109.633-95.423,107.842-97.634,107.842z M-97.634,113.842c-1.103,0-2-0.897-2-2s0.897-2,2-2s2,0.897,2,2
		S-96.531,113.842-97.634,113.842z"/>
	<path d="M-83.634,135.842c-4.41,0-7.999-3.589-7.999-7.999v-4.002c0-4.41,3.589-7.999,7.999-7.999c2.715,0,5.115,1.362,6.563,3.437
		l1.43-1.43c-1.824-2.429-4.72-4.007-7.992-4.007c-5.522,0-9.999,4.478-9.999,9.999v4.002c0,5.521,4.477,9.999,9.999,9.999
		c3.272,0,6.168-1.579,7.992-4.008l-1.43-1.43C-78.518,134.479-80.918,135.842-83.634,135.842z"/>
</g>
<g>
	<path d="M7.063,107.721c-2.209,0-4,1.791-4,4c0,2.21,1.791,4,4,4c2.211,0,4-1.79,4-4C11.063,109.512,9.273,107.721,7.063,107.721z
		 M7.063,113.721c-1.103,0-2-0.897-2-2s0.897-2,2-2s2,0.897,2,2S8.165,113.721,7.063,113.721z"/>
	<polygon points="26.938,115.842 26.938,113.842 14.938,113.842 12.938,113.842 12.938,137.842 14.938,137.842 14.938,125.842 
		22.938,125.842 22.938,123.842 14.938,123.842 14.938,115.842 	"/>
</g>
<g>
	<path d="M118.148,111.533c-7.179,0-13,5.82-13,13s5.821,13,13,13s13-5.82,13-13S125.327,111.533,118.148,111.533z M118.148,135.533
		c-6.065,0-11-4.935-11-11s4.935-11,11-11s11,4.935,11,11S124.214,135.533,118.148,135.533z"/>
	<path d="M113.882,128.775l6.363-2.121l2.121-6.364l-6.363,2.122L113.882,128.775z M117.584,123.993l1.62-0.54l-0.54,1.62
		l-1.62,0.54L117.584,123.993z"/>
</g>
<g>
	<path d="M-602.559,202.051c-7.179,0-13,5.82-13,13s5.821,13,13,13s13-5.82,13-13S-595.38,202.051-602.559,202.051z
		 M-602.559,226.051c-6.065,0-11-4.934-11-11c0-6.064,4.935-11,11-11s11,4.936,11,11
		C-591.559,221.117-596.493,226.051-602.559,226.051z"/>
	<path d="M-599.997,213.473l-2.586-4.422l-2.529,4.33h0.007c-0.299,0.467-0.478,1.018-0.478,1.613c0,1.656,1.343,3,3,3s3-1.344,3-3
		c0-0.559-0.162-1.074-0.428-1.521H-599.997z M-602.583,215.994c-0.552,0-1-0.449-1-1c0-0.188,0.055-0.367,0.162-0.535l0.864-1.355
		l0.826,1.391c0.098,0.164,0.147,0.332,0.147,0.5C-601.583,215.545-602.031,215.994-602.583,215.994z"/>
</g>
<g>
	<path d="M-497.774,202.051c-7.18,0-13,5.82-13,13s5.82,13,13,13s13-5.82,13-13S-490.595,202.051-497.774,202.051z
		 M-497.774,226.051c-6.065,0-11-4.934-11-11c0-6.064,4.935-11,11-11s11,4.936,11,11
		C-486.774,221.117-491.709,226.051-497.774,226.051z"/>
	<path d="M-496.186,212.471c-0.467-0.299-1.018-0.477-1.613-0.477c-1.658,0-3,1.342-3,3c0,1.656,1.342,3,3,3
		c0.557,0,1.072-0.162,1.52-0.428v0.014l4.422-2.586l-4.328-2.529V212.471z M-497.301,215.846c-0.164,0.098-0.332,0.148-0.498,0.148
		c-0.552,0-1-0.449-1-1c0-0.553,0.448-1,1-1c0.188,0,0.368,0.053,0.535,0.16l1.355,0.865L-497.301,215.846z"/>
</g>
<g>
	<path d="M-394.724,202.051c-7.18,0-13,5.82-13,13s5.82,13,13,13s13-5.82,13-13S-387.544,202.051-394.724,202.051z
		 M-394.724,226.051c-6.065,0-11-4.934-11-11c0-6.064,4.935-11,11-11s11,4.936,11,11
		C-383.724,221.117-388.658,226.051-394.724,226.051z"/>
	<path d="M-394.724,211.994c-1.656,0-3,1.342-3,3c0,0.557,0.162,1.072,0.428,1.52h-0.014l2.586,4.422l2.529-4.328h-0.006
		c0.299-0.467,0.477-1.018,0.477-1.613C-391.724,213.336-393.065,211.994-394.724,211.994z M-393.885,215.529l-0.865,1.355
		l-0.826-1.393c-0.098-0.164-0.147-0.332-0.147-0.498c0-0.553,0.448-1,1-1s1,0.447,1,1
		C-393.724,215.182-393.777,215.361-393.885,215.529z"/>
</g>
<g>
	<path d="M-291.31,202.051c-7.179,0-13,5.82-13,13s5.821,13,13,13s13-5.82,13-13S-284.131,202.051-291.31,202.051z M-291.31,226.051
		c-6.065,0-11-4.934-11-11c0-6.064,4.935-11,11-11s11,4.936,11,11C-280.31,221.117-285.244,226.051-291.31,226.051z"/>
	<path d="M-291.351,211.994c-0.557,0-1.072,0.162-1.52,0.428v-0.014l-4.422,2.586l4.328,2.529v-0.006
		c0.467,0.299,1.018,0.477,1.613,0.477c1.658,0,3-1.342,3-3C-288.351,213.338-289.692,211.994-291.351,211.994z M-291.351,215.994
		c-0.188,0-0.368-0.055-0.535-0.162l-1.355-0.865l1.393-0.826c0.164-0.098,0.332-0.146,0.498-0.146c0.552,0,1,0.447,1,1
		C-290.351,215.545-290.799,215.994-291.351,215.994z"/>
</g>
<g>
	<rect x="-499.461" y="5.322" width="2" height="10"/>
	<rect x="-484.761" y="11.408" transform="matrix(0.7071 0.7071 -0.7071 0.7071 -129.9434 346.9366)" width="2" height="10.409"/>
	<rect x="-518.37" y="15.618" transform="matrix(0.7071 0.7071 -0.7071 0.7071 -138.5522 367.73)" width="10.409" height="2"/>
	<polygon points="-505.129,34.576 -503.715,35.99 -499.461,31.736 -499.461,41.322 -497.461,41.322 -497.461,31.736 -493.208,35.99 
		-491.794,34.576 -498.461,27.908 	"/>
	<path d="M-485.454,31.321c0-0.002,0-0.004,0-0.006c0-7.18-5.82-12.999-13-12.999s-13,5.819-13,12.999c0,0.002,0,0.004,0,0.006h-13
		v2h18v-2h-3c0-0.002,0-0.004,0-0.006c0-6.064,4.935-10.999,11-10.999s11,4.935,11,10.999c0,0.002,0,0.004,0,0.006h-3v2h17.995v-2
		H-485.454z"/>
</g>
<g>
	<rect x="-395.716" y="4.135" width="2" height="10"/>
	<rect x="-381.016" y="10.221" transform="matrix(0.7071 0.7071 -0.7071 0.7071 -100.3968 273.2299)" width="2" height="10.409"/>
	<rect x="-414.625" y="14.43" transform="matrix(0.7071 0.7071 -0.7071 0.7071 -109.0057 294.0233)" width="10.409" height="2"/>
	<polygon points="-393.716,38.682 -393.716,28.135 -395.716,28.135 -395.716,38.682 -399.97,34.428 -401.384,35.842 -394.716,42.51 
		-388.049,35.842 -389.463,34.428 	"/>
	<path d="M-381.709,30.134c0-0.002,0-0.004,0-0.006c0-7.18-5.82-12.999-13-12.999s-13,5.819-13,12.999c0,0.002,0,0.004,0,0.006h-13
		v2h22v-2h-7c0-0.002,0-0.004,0-0.006c0-6.064,4.935-10.999,11-10.999s11,4.935,11,10.999c0,0.002,0,0.004,0,0.006h-7v2h21.995v-2
		H-381.709z"/>
</g>
<g>
	<polygon points="-191.358,38.147 -191.358,23.765 -193.358,23.765 -193.358,38.147 -197.612,33.894 -199.026,35.308 
		-192.358,41.976 -185.691,35.308 -187.105,33.894 	"/>
	<path d="M-175.73,18.794c-1.596-7.445-8.207-13.029-16.127-13.029c-6.423,0-11.977,3.678-14.702,9.035
		c-0.266-0.018-0.53-0.04-0.8-0.04c-6.627,0-11.999,5.372-11.999,12c0,6.607,5.34,11.965,11.938,11.998v0.003h6.062v-2h-5.604
		l-0.447-0.003c-5.485-0.027-9.948-4.513-9.948-9.998c0-5.514,4.485-10,9.999-10c0.175,0,0.347,0.014,0.52,0.025l0.148,0.01
		l1.316,0.088l0.598-1.176c2.492-4.899,7.443-7.942,12.92-7.942c6.79,0,12.75,4.814,14.172,11.448l0.317,1.482l1.514,0.095
		c4.203,0.262,7.496,3.763,7.496,7.971c0,4.397-3.565,7.977-7.957,8c-0.05-0.003-0.093-0.005-0.137-0.007l-2.043,0.007h-4.863v2
		h6.863v-0.007c0.046,0.001,0.091,0.007,0.137,0.007c5.521,0,10-4.477,10-10C-166.358,23.45-170.503,19.119-175.73,18.794z"/>
</g>
<g>
	<polygon points="-285.374,34.952 -283.96,33.538 -290.627,26.87 -297.295,33.538 -295.881,34.952 -291.627,30.698 -291.627,43.284 
		-289.627,43.284 -289.627,30.698 	"/>
	<path d="M-273.999,20.39c-1.596-7.445-8.207-13.029-16.127-13.029c-6.423,0-11.977,3.678-14.702,9.035
		c-0.266-0.018-0.53-0.04-0.8-0.04c-6.627,0-11.999,5.372-11.999,12c0,6.607,5.34,11.965,11.938,11.998v0.003h10.062v-2h-9.604
		l-0.447-0.003c-5.485-0.027-9.948-4.513-9.948-9.998c0-5.514,4.485-10,9.999-10c0.175,0,0.347,0.014,0.52,0.025l0.148,0.01
		l1.316,0.088l0.598-1.176c2.492-4.899,7.443-7.942,12.92-7.942c6.79,0,12.75,4.814,14.172,11.448l0.317,1.482l1.514,0.095
		c4.203,0.262,7.496,3.763,7.496,7.971c0,4.397-3.565,7.977-7.957,8c-0.05-0.003-0.093-0.005-0.137-0.007l-2.043,0.007h-8.863v2
		h10.863V40.35c0.046,0.001,0.091,0.007,0.137,0.007c5.521,0,10-4.477,10-10C-264.627,25.046-268.771,20.715-273.999,20.39z"/>
</g>
<g>
	<path d="M-71.51-169.126c-1.596-7.445-8.207-13.029-16.127-13.029c-6.423,0-11.977,3.678-14.702,9.035
		c-0.266-0.018-0.53-0.04-0.8-0.04c-6.627,0-11.999,5.372-11.999,12c0,6.607,5.34,11.965,11.938,11.998v0.003h2.062v-2h-1.604
		l-0.447-0.003c-5.485-0.027-9.948-4.513-9.948-9.998c0-5.514,4.485-10,9.999-10c0.175,0,0.347,0.014,0.52,0.025l0.148,0.01
		l1.316,0.088l0.598-1.176c2.492-4.899,7.443-7.942,12.92-7.942c6.79,0,12.75,4.814,14.172,11.448l0.317,1.482l1.514,0.095
		c4.203,0.262,7.496,3.763,7.496,7.971c0,4.397-3.565,7.977-7.957,8c-0.05-0.003-0.093-0.005-0.137-0.007l-2.043,0.007h-0.863v2
		h2.863v-0.007c0.046,0.001,0.091,0.007,0.137,0.007c5.521,0,10-4.477,10-10C-62.138-164.47-66.282-168.801-71.51-169.126z"/>
	<polygon points="-93.138,-150.138 -93.138,-152.768 -90.965,-151.545 -90.279,-152.766 -92.749,-154.155 -90.279,-155.545 
		-90.965,-156.766 -93.138,-155.543 -93.138,-158.138 -95.138,-158.138 -95.138,-155.499 -97.389,-156.766 -98.074,-155.545 
		-95.604,-154.155 -98.074,-152.766 -97.389,-151.545 -95.138,-152.812 -95.138,-150.138 	"/>
	<polygon points="-87.976,-145.783 -90.148,-144.561 -90.148,-147.155 -92.148,-147.155 -92.148,-144.517 -94.399,-145.783 
		-95.085,-144.563 -92.615,-143.173 -95.085,-141.783 -94.399,-140.563 -92.148,-141.829 -92.148,-139.155 -90.148,-139.155 
		-90.148,-141.785 -87.976,-140.563 -87.29,-141.783 -89.76,-143.173 -87.29,-144.563 	"/>
	<polygon points="-78.96,-152.766 -81.133,-151.543 -81.133,-154.138 -83.133,-154.138 -83.133,-151.499 -85.384,-152.766 
		-86.069,-151.545 -83.6,-150.155 -86.069,-148.766 -85.384,-147.545 -83.133,-148.812 -83.133,-146.138 -81.133,-146.138 
		-81.133,-148.768 -78.96,-147.545 -78.274,-148.766 -80.744,-150.155 -78.274,-151.545 	"/>
</g>
<g>
	<rect x="4.002" y="-187.178" width="2" height="7.973"/>
	<rect x="-14.998" y="-168.264" width="7.973" height="2"/>
	<rect x="-10.325" y="-179.53" transform="matrix(0.7071 0.7071 -0.7071 0.7071 -128.0963 -47.8087)" width="7.974" height="2"/>
	<rect x="15.184" y="-182.512" transform="matrix(0.7071 0.7071 -0.7071 0.7071 -121.4971 -63.7327)" width="2" height="7.972"/>
	<path d="M34.514-161.388c-1.444-6.742-7.433-11.8-14.605-11.8c-2.185,0-4.258,0.471-6.127,1.314
		c-1.666-3.203-5.006-5.395-8.865-5.395c-5.522,0-10,4.477-10,9.999c0,2.46,0.899,4.702,2.373,6.442
		c-1.428,1.84-2.287,4.144-2.287,6.653c0,5.983,4.836,10.836,10.813,10.865v0.003h1.188v-2H6.281l-0.457-0.003
		c-4.864-0.023-8.822-4.001-8.822-8.865c0-4.89,3.978-8.868,8.867-8.868c0.15,0,0.299,0.012,0.447,0.022l0.148,0.01l1.314,0.085
		l0.597-1.175c2.225-4.372,6.644-7.089,11.532-7.089c6.062,0,11.382,4.298,12.649,10.219l0.318,1.483l1.514,0.094
		c3.708,0.23,6.612,3.319,6.612,7.03c0,3.878-3.144,7.035-7.017,7.057c-0.042-0.003-0.079-0.005-0.117-0.005l-1.866,0.005v2h1.819
		v-0.006c0.042,0.001,0.082,0.006,0.124,0.006c5.001,0,9.057-4.054,9.057-9.057C43.002-157.171,39.248-161.093,34.514-161.388z
		 M6.594-165.005c-0.241-0.016-0.48-0.036-0.725-0.036c-2.766,0-5.282,1.041-7.2,2.742c-1.092-1.365-1.753-3.089-1.753-4.97
		c0-4.41,3.589-7.999,8-7.999c3.092,0,5.76,1.773,7.091,4.346C9.709-169.482,7.83-167.435,6.594-165.005z"/>
	<polygon points="13.994,-144.285 13.994,-146.915 16.167,-145.692 16.853,-146.913 14.383,-148.303 16.853,-149.692 
		16.167,-150.913 13.994,-149.69 13.994,-152.285 11.994,-152.285 11.994,-149.646 9.743,-150.913 9.058,-149.692 11.527,-148.303 
		9.058,-146.913 9.743,-145.692 11.994,-146.959 11.994,-144.285 	"/>
	<polygon points="19.156,-139.931 16.983,-138.708 16.983,-141.303 14.983,-141.303 14.983,-138.664 12.732,-139.931 
		12.047,-138.71 14.517,-137.32 12.047,-135.931 12.732,-134.71 14.983,-135.977 14.983,-133.303 16.983,-133.303 16.983,-135.933 
		19.156,-134.71 19.842,-135.931 17.372,-137.32 19.842,-138.71 	"/>
	<polygon points="28.172,-146.913 25.999,-145.69 25.999,-148.285 23.999,-148.285 23.999,-145.646 21.748,-146.913 
		21.063,-145.692 23.532,-144.303 21.063,-142.913 21.748,-141.692 23.999,-142.959 23.999,-140.285 25.999,-140.285 
		25.999,-142.915 28.172,-141.692 28.857,-142.913 26.388,-144.303 28.857,-145.692 	"/>
</g>
<g>
	<path d="M134.702-164.391c-1.444-6.742-7.433-11.8-14.605-11.8c-1.799,0-3.522,0.32-5.118,0.904
		c-0.949-5.108-5.404-8.98-10.788-8.98c-0.413,0-0.819,0.027-1.222,0.071c0.744,1.112,1.179,2.448,1.179,3.886c0,3.865-3.134,7-7,7
		c-1.438,0-2.773-0.435-3.886-1.179c-0.044,0.401-0.071,0.809-0.071,1.222c0,3.713,1.845,6.987,4.661,8.979
		c-1.653,1.907-2.661,4.389-2.661,7.111c0,5.983,4.836,10.836,10.813,10.865v0.003h1.188v-2h-0.721l-0.457-0.003
		c-4.864-0.023-8.822-4.001-8.822-8.865c0-4.89,3.978-8.868,8.867-8.868c0.15,0,0.299,0.012,0.447,0.022l0.148,0.01l1.314,0.085
		l0.597-1.175c2.225-4.372,6.644-7.089,11.532-7.089c6.062,0,11.382,4.298,12.649,10.219l0.318,1.483l1.514,0.094
		c3.708,0.23,6.612,3.319,6.612,7.03c0,3.878-3.144,7.035-7.017,7.057c-0.042-0.003-0.079-0.005-0.117-0.005l-1.866,0.005v2h1.819
		v-0.006c0.042,0.001,0.082,0.006,0.124,0.006c5.001,0,9.057-4.054,9.057-9.057C143.19-160.174,139.437-164.096,134.702-164.391z
		 M106.782-168.008c-0.241-0.016-0.48-0.036-0.725-0.036c-2.537,0-4.865,0.877-6.715,2.334c-2.012-1.294-3.486-3.354-3.976-5.776
		c0.582,0.117,1.178,0.177,1.78,0.177c4.963,0,9-4.037,9-9c0-0.603-0.06-1.198-0.177-1.78c3.733,0.753,6.629,3.824,7.134,7.64
		C110.392-173.006,108.177-170.751,106.782-168.008z"/>
	<polygon points="114.228,-147.288 114.228,-149.918 116.4,-148.695 117.086,-149.916 114.616,-151.306 117.086,-152.695 
		116.4,-153.916 114.228,-152.693 114.228,-155.288 112.228,-155.288 112.228,-152.649 109.977,-153.916 109.291,-152.695 
		111.761,-151.306 109.291,-149.916 109.977,-148.695 112.228,-149.962 112.228,-147.288 	"/>
	<polygon points="119.39,-142.934 117.217,-141.711 117.217,-144.306 115.217,-144.306 115.217,-141.667 112.966,-142.934 
		112.28,-141.713 114.75,-140.323 112.28,-138.934 112.966,-137.713 115.217,-138.979 115.217,-136.306 117.217,-136.306 
		117.217,-138.936 119.39,-137.713 120.075,-138.934 117.605,-140.323 120.075,-141.713 	"/>
	<polygon points="128.405,-149.916 126.232,-148.693 126.232,-151.288 124.232,-151.288 124.232,-148.649 121.981,-149.916 
		121.296,-148.695 123.766,-147.306 121.296,-145.916 121.981,-144.695 124.232,-145.962 124.232,-143.288 126.232,-143.288 
		126.232,-145.918 128.405,-144.695 129.091,-145.916 126.621,-147.306 129.091,-148.695 	"/>
</g>
<rect x="-481.656" y="-732.141" fill="none" width="472.974" height="180.918"/>
<text transform="matrix(1 0 0 1 -302.019 -660.7417)"><tspan x="0" y="0" font-family="'HelveticaNeueLTStd-Th'" font-size="100" letter-spacing="2">60</tspan><tspan x="-99.268" y="60" font-family="'HelveticaNeueLTStd-Lt'" font-size="48" letter-spacing="1">Weather Icons</tspan><tspan x="-3.726" y="104" font-family="'HelveticaNeueLTStd-Lt'" font-size="24">IOS 7 Style</tspan></text>
</svg>
