<?xml version="1.0" encoding="utf-8"?>
<!-- Generator: Adobe Illustrator 16.0.0, SVG Export Plug-In . SVG Version: 6.00 Build 0)  -->
<!DOCTYPE svg PUBLIC "-//W3C//DTD SVG 1.1//EN" "http://www.w3.org/Graphics/SVG/1.1/DTD/svg11.dtd">
<svg version="1.1" id="Layer_1" xmlns="http://www.w3.org/2000/svg" xmlns:xlink="http://www.w3.org/1999/xlink" x="0px" y="0px"
	 width="53px" height="43px" viewBox="0 0 53 43" enable-background="new 0 0 53 43" xml:space="preserve">
<path d="M543.95,279.005l-1.803,15.077l-0.268,2.237h2.254h6.896l-14.693,18.759l1.789-14.52l0.277-2.245h-2.262h-6.957
	L543.95,279.005 M546.805,271.98l-21.667,28.333h11.004l-2.671,21.667l21.667-27.661h-11.004L546.805,271.98L546.805,271.98z"/>
<path d="M130.915-183.256c6.79,0,12.749,4.814,14.171,11.448l0.318,1.483l1.514,0.094c4.203,0.262,7.496,3.763,7.496,7.971
	c0,4.396-3.565,7.977-7.957,8c-0.046-0.003-0.091-0.006-0.137-0.007l-2.043-0.036v0.043H115.94l-0.578-0.003
	c-5.485-0.027-9.948-4.513-9.948-9.998c0-5.514,4.485-10,9.999-10c0.175,0,0.347,0.014,0.519,0.025l0.149,0.011l1.316,0.087
	l0.598-1.176C120.488-180.213,125.438-183.256,130.915-183.256 M130.915-185.256c-6.423,0-11.977,3.678-14.702,9.035
	c-0.266-0.018-0.53-0.04-0.8-0.04c-6.627,0-11.999,5.372-11.999,12c0,6.607,5.34,11.965,11.938,11.998v0.003h30.925v-0.007
	c0.046,0.001,0.091,0.007,0.137,0.007c5.521,0,10-4.477,10-10c0-5.311-4.145-9.642-9.372-9.967
	C145.446-179.672,138.835-185.256,130.915-185.256L130.915-185.256z"/>
<g>
	<path d="M253.866-164.845c-1.444-6.742-7.433-11.8-14.605-11.8c-2.185,0-4.258,0.47-6.127,1.313
		c-1.666-3.202-5.006-5.394-8.865-5.394c-5.522,0-10,4.477-10,9.999c0,2.46,0.898,4.702,2.373,6.442
		c-1.428,1.84-2.287,4.144-2.287,6.653c0,5.983,4.836,10.836,10.813,10.865v0.003h28.007v-0.006
		c0.042,0.001,0.082,0.006,0.124,0.006c5.001,0,9.057-4.054,9.057-9.057C262.354-160.628,258.601-164.55,253.866-164.845z
		 M224.269-178.725c3.092,0,5.76,1.773,7.092,4.345c-2.299,1.44-4.178,3.488-5.414,5.918c-0.241-0.016-0.48-0.036-0.725-0.036
		c-2.766,0-5.281,1.041-7.2,2.743c-1.092-1.366-1.753-3.09-1.753-4.971C216.269-175.136,219.857-178.725,224.269-178.725z
		 M253.338-148.762c-0.038-0.003-0.077-0.004-0.117-0.005l-2.047-0.042v0.047h-25.403l-0.594-0.003
		c-4.864-0.023-8.822-4.001-8.822-8.865c0-4.89,3.978-8.868,8.867-8.868c0.15,0,0.299,0.012,0.447,0.021l0.148,0.011l1.314,0.085
		l0.598-1.174c2.224-4.373,6.643-7.09,11.531-7.09c6.062,0,11.381,4.298,12.65,10.219l0.317,1.482l1.514,0.095
		c3.708,0.231,6.612,3.319,6.612,7.03C260.354-151.94,257.211-148.784,253.338-148.762z"/>
	<rect x="223.274" y="-190.755" width="2" height="7.973"/>
	<rect x="204.302" y="-171.769" width="7.973" height="2"/>
	<rect x="209.028" y="-182.987" transform="matrix(0.7071 0.7071 -0.7071 0.7071 -66.2939 -203.927)" width="7.974" height="2"/>
	<rect x="234.536" y="-185.969" transform="matrix(0.7071 0.7071 -0.7071 0.7071 -59.6948 -219.8509)" width="2" height="7.972"/>
</g>
<path d="M349.609-168.872c-1.444-6.742-7.433-11.8-14.605-11.8c-1.799,0-3.521,0.32-5.118,0.904
	c-0.949-5.108-5.404-8.98-10.788-8.98c-0.413,0-0.819,0.027-1.222,0.071c0.744,1.112,1.179,2.448,1.179,3.886c0,3.865-3.134,7-7,7
	c-1.438,0-2.773-0.435-3.886-1.179c-0.044,0.401-0.071,0.809-0.071,1.222c0,3.712,1.845,6.987,4.661,8.979
	c-1.653,1.907-2.661,4.389-2.661,7.111c0,5.983,4.836,10.836,10.813,10.865v0.003h28.007v-0.006
	c0.042,0.001,0.082,0.006,0.124,0.006c5.001,0,9.057-4.054,9.057-9.057C358.098-164.655,354.344-168.577,349.609-168.872z
	 M310.274-175.968c0.582,0.117,1.178,0.177,1.78,0.177c4.963,0,9-4.037,9-9c0-0.603-0.06-1.198-0.177-1.78
	c3.733,0.753,6.629,3.824,7.134,7.64c-2.713,1.444-4.928,3.699-6.322,6.442c-0.241-0.016-0.48-0.036-0.725-0.036
	c-2.537,0-4.865,0.876-6.715,2.334C312.238-171.485,310.764-173.545,310.274-175.968z M349.081-152.789
	c-0.038-0.003-0.077-0.004-0.117-0.005l-2.047-0.042v0.047h-25.403l-0.594-0.003c-4.864-0.023-8.822-4.001-8.822-8.865
	c0-4.89,3.978-8.868,8.867-8.868c0.15,0,0.299,0.012,0.447,0.021l0.148,0.011l1.314,0.085l0.598-1.174
	c2.224-4.373,6.643-7.09,11.531-7.09c6.062,0,11.381,4.298,12.65,10.219l0.317,1.482l1.514,0.095
	c3.708,0.231,6.612,3.319,6.612,7.03C356.098-155.968,352.954-152.812,349.081-152.789z"/>
<g>
	<rect x="434.255" y="-160.249" width="2" height="7"/>
	<rect x="442.255" y="-164.249" width="2" height="7"/>
	<rect x="426.255" y="-164.249" width="2" height="7"/>
	<rect x="434.255" y="-150.249" width="2" height="7"/>
	<rect x="442.255" y="-154.249" width="2" height="7"/>
	<rect x="426.255" y="-154.249" width="2" height="7"/>
	<path d="M452.883-177.237c-1.596-7.445-8.207-13.029-16.127-13.029c-6.423,0-11.977,3.678-14.702,9.035
		c-0.266-0.018-0.53-0.04-0.8-0.04c-6.627,0-11.999,5.372-11.999,12c0,6.607,5.34,11.965,11.938,11.998v0.003h2.062v-2h-1.604
		l-0.447-0.003c-5.485-0.027-9.948-4.513-9.948-9.998c0-5.514,4.485-10,9.999-10c0.175,0,0.347,0.014,0.52,0.025l0.148,0.01
		l1.316,0.088l0.598-1.176c2.492-4.899,7.443-7.942,12.92-7.942c6.79,0,12.75,4.814,14.172,11.448l0.317,1.482l1.514,0.095
		c4.203,0.262,7.496,3.763,7.496,7.971c0,4.397-3.565,7.977-7.957,8c-0.05-0.003-0.093-0.005-0.137-0.007l-2.043,0.007h-2.863v2
		h4.863v-0.007c0.046,0.001,0.091,0.007,0.137,0.007c5.521,0,10-4.477,10-10C462.255-172.581,458.11-176.912,452.883-177.237z"/>
</g>
<g>
	<path d="M250.456-87.88c-1.596-7.445-8.207-13.029-16.127-13.029c-6.423,0-11.977,3.678-14.702,9.035
		c-0.266-0.018-0.53-0.04-0.8-0.04c-6.627,0-11.999,5.372-11.999,12c0,6.607,5.34,11.965,11.938,11.998v0.003h2.062v-2h-1.604
		l-0.447-0.003c-5.485-0.027-9.948-4.513-9.948-9.998c0-5.514,4.485-10,9.999-10c0.175,0,0.347,0.014,0.52,0.025l0.148,0.01
		l1.316,0.088l0.598-1.176c2.492-4.899,7.443-7.942,12.92-7.942c6.79,0,12.75,4.814,14.172,11.448l0.317,1.482l1.514,0.095
		c4.203,0.262,7.496,3.763,7.496,7.971c0,4.397-3.565,7.977-7.957,8c-0.05-0.003-0.093-0.005-0.137-0.007l-2.043,0.007h-2.863v2
		h4.863v-0.007c0.046,0.001,0.091,0.007,0.137,0.007c5.521,0,10-4.477,10-10C259.828-83.224,255.684-87.555,250.456-87.88z"/>
	<polygon points="231.828,-60.885 231.828,-58.944 231.828,-52.885 233.828,-52.885 233.828,-58.944 233.828,-60.885 
		233.828,-72.885 231.828,-72.885 	"/>
	<polygon points="239.828,-64.885 239.828,-63.132 239.828,-56.885 241.828,-56.885 241.828,-63.132 241.828,-64.885 
		241.828,-76.885 239.828,-76.885 	"/>
	<polygon points="223.828,-64.885 223.828,-62.819 223.828,-56.885 225.828,-56.885 225.828,-62.819 225.828,-64.885 
		225.828,-76.885 223.828,-76.885 	"/>
</g>
<g>
	<polygon points="546.105,-63.974 539.223,-73.804 537.585,-72.656 544.468,-62.826 545.58,-61.237 549.056,-56.273 550.694,-57.42 
		547.219,-62.385 	"/>
	<polygon points="554.107,-63.976 547.223,-73.804 545.585,-72.655 552.471,-62.827 553.476,-61.392 557.06,-56.276 
		558.698,-57.423 555.114,-62.539 	"/>
	<polygon points="538.105,-63.974 531.223,-73.804 529.585,-72.655 536.468,-62.826 537.652,-61.134 541.057,-56.272 
		542.694,-57.42 539.291,-62.281 	"/>
	<path d="M557.213-87.613c-1.596-7.445-8.207-13.029-16.127-13.029c-6.423,0-11.977,3.678-14.702,9.035
		c-0.266-0.018-0.53-0.04-0.8-0.04c-6.627,0-11.999,5.372-11.999,12c0,6.607,5.34,11.965,11.938,11.998v0.003h2.062v-2h-1.604
		l-0.447-0.003c-5.485-0.027-9.948-4.513-9.948-9.998c0-5.514,4.485-10,9.999-10c0.175,0,0.347,0.014,0.52,0.025l0.148,0.01
		l1.316,0.088l0.598-1.176c2.492-4.899,7.443-7.942,12.92-7.942c6.79,0,12.75,4.814,14.172,11.448l0.317,1.482l1.514,0.095
		c4.203,0.262,7.496,3.763,7.496,7.971c0,4.397-3.565,7.977-7.957,8c-0.05-0.003-0.093-0.005-0.137-0.007l-1.043,0.007h0.137v2
		h0.863v-0.007c0.046,0.001,0.091,0.007,0.137,0.007c5.521,0,10-4.477,10-10C566.585-82.957,562.44-87.288,557.213-87.613z"/>
</g>
<g>
	<rect x="528.911" y="-196.695" width="2" height="7.973"/>
	<rect x="509.911" y="-177.781" width="7.973" height="2"/>
	<rect x="514.584" y="-189.048" transform="matrix(0.7071 0.7071 -0.7071 0.7071 18.9161 -421.7632)" width="7.974" height="2"/>
	<rect x="540.093" y="-192.03" transform="matrix(0.7071 0.7071 -0.7071 0.7071 25.5153 -437.6871)" width="2" height="7.972"/>
	<rect x="542.911" y="-155.822" width="2" height="7"/>
	<rect x="550.911" y="-159.822" width="2" height="7"/>
	<rect x="534.911" y="-159.822" width="2" height="7"/>
	<rect x="542.911" y="-145.822" width="2" height="7"/>
	<rect x="550.911" y="-149.822" width="2" height="7"/>
	<rect x="534.911" y="-149.822" width="2" height="7"/>
	<path d="M559.423-170.905c-1.444-6.742-7.433-11.8-14.605-11.8c-2.185,0-4.258,0.47-6.126,1.313
		c-1.667-3.202-5.007-5.394-8.866-5.394c-5.522,0-10,4.477-10,9.999c0,2.46,0.899,4.702,2.373,6.442
		c-1.429,1.84-2.287,4.144-2.287,6.653c0,5.983,4.836,10.836,10.813,10.865v0.003h1.188v-2h-0.721l-0.457-0.003
		c-4.864-0.023-8.822-4.001-8.822-8.865c0-4.89,3.978-8.868,8.867-8.868c0.15,0,0.299,0.012,0.447,0.022l0.148,0.01l1.314,0.085
		l0.597-1.175c2.225-4.372,6.644-7.089,11.532-7.089c6.062,0,11.382,4.298,12.649,10.219l0.318,1.483l1.514,0.094
		c3.708,0.23,6.612,3.319,6.612,7.03c0,3.878-3.144,7.035-7.017,7.057c-0.042-0.003-0.079-0.005-0.117-0.005l-2.047,0.005h-0.819v2
		h2.819v-0.006c0.042,0.001,0.082,0.006,0.124,0.006c5.001,0,9.057-4.054,9.057-9.057
		C567.911-166.688,564.157-170.61,559.423-170.905z M531.503-174.522c-0.241-0.016-0.48-0.036-0.725-0.036
		c-2.766,0-5.282,1.041-7.2,2.743c-1.092-1.366-1.753-3.09-1.753-4.971c0-4.41,3.589-7.999,8-7.999c3.091,0,5.76,1.773,7.091,4.345
		C534.618-179,532.738-176.952,531.503-174.522z"/>
</g>
<g>
	<rect x="643.328" y="-157.27" width="2" height="7"/>
	<rect x="651.328" y="-161.27" width="2" height="7"/>
	<rect x="635.328" y="-161.27" width="2" height="7"/>
	<rect x="643.328" y="-147.27" width="2" height="7"/>
	<rect x="651.328" y="-151.27" width="2" height="7"/>
	<rect x="635.328" y="-151.27" width="2" height="7"/>
	<path d="M659.84-172.353c-1.444-6.742-7.433-11.8-14.605-11.8c-1.799,0-3.522,0.32-5.118,0.904
		c-0.949-5.108-5.404-8.98-10.788-8.98c-0.413,0-0.819,0.027-1.222,0.071c0.744,1.112,1.179,2.448,1.179,3.886c0,3.865-3.134,7-7,7
		c-1.438,0-2.773-0.435-3.886-1.179c-0.044,0.401-0.071,0.809-0.071,1.222c0,3.712,1.845,6.987,4.661,8.979
		c-1.653,1.907-2.661,4.389-2.661,7.111c0,5.983,4.836,10.836,10.813,10.865v0.003h1.188v-2h-0.721l-0.457-0.003
		c-4.864-0.023-8.822-4.001-8.822-8.865c0-4.89,3.978-8.868,8.867-8.868c0.15,0,0.299,0.012,0.447,0.022l0.148,0.01l1.314,0.085
		l0.597-1.175c2.225-4.372,6.644-7.089,11.532-7.089c6.062,0,11.382,4.298,12.649,10.219l0.318,1.483l1.514,0.094
		c3.708,0.23,6.612,3.319,6.612,7.03c0,3.878-3.144,7.035-7.017,7.057c-0.042-0.003-0.079-0.005-0.117-0.005l-2.047,0.005h-0.819v2
		h2.819v-0.006c0.042,0.001,0.082,0.006,0.124,0.006c5.001,0,9.057-4.054,9.057-9.057
		C668.328-168.136,664.574-172.058,659.84-172.353z M631.92-175.97c-0.241-0.016-0.48-0.036-0.725-0.036
		c-2.537,0-4.865,0.876-6.715,2.334c-2.012-1.294-3.487-3.354-3.976-5.776c0.582,0.117,1.178,0.177,1.78,0.177c4.963,0,9-4.037,9-9
		c0-0.603-0.06-1.198-0.177-1.78c3.733,0.753,6.629,3.824,7.133,7.64C635.53-180.968,633.315-178.713,631.92-175.97z"/>
</g>
<g>
	<polygon points="336.098,-56.446 336.098,-54.506 336.098,-48.446 338.098,-48.446 338.098,-54.506 338.098,-56.446 
		338.098,-68.446 336.098,-68.446 	"/>
	<polygon points="344.098,-60.446 344.098,-58.693 344.098,-52.446 346.098,-52.446 346.098,-58.693 346.098,-60.446 
		346.098,-72.446 344.098,-72.446 	"/>
	<polygon points="328.098,-60.446 328.098,-58.381 328.098,-52.446 330.098,-52.446 330.098,-58.381 330.098,-60.446 
		330.098,-72.446 328.098,-72.446 	"/>
	<rect x="322.098" y="-107.349" width="2" height="7.973"/>
	<rect x="303.098" y="-88.435" width="7.973" height="2"/>
	<rect x="307.771" y="-99.701" transform="matrix(0.7071 0.7071 -0.7071 0.7071 21.5195 -249.355)" width="7.974" height="2"/>
	<rect x="333.279" y="-102.683" transform="matrix(0.7071 0.7071 -0.7071 0.7071 28.1187 -265.2789)" width="2" height="7.972"/>
	<path d="M352.609-81.559c-1.444-6.742-7.433-11.8-14.605-11.8c-2.185,0-4.258,0.47-6.127,1.313
		c-1.666-3.202-5.006-5.394-8.865-5.394c-5.522,0-10,4.477-10,9.999c0,2.46,0.898,4.702,2.373,6.442
		c-1.428,1.84-2.287,4.144-2.287,6.653c0,5.983,4.836,10.836,10.813,10.865v0.003h1.188v-2h-0.721l-0.457-0.003
		c-4.864-0.023-8.822-4.001-8.822-8.865c0-4.89,3.978-8.868,8.867-8.868c0.15,0,0.299,0.012,0.447,0.022l0.148,0.01l1.314,0.085
		l0.597-1.175c2.225-4.372,6.644-7.089,11.532-7.089c6.062,0,11.382,4.298,12.649,10.219l0.318,1.483l1.514,0.094
		c3.708,0.23,6.612,3.319,6.612,7.03c0,3.878-3.144,7.035-7.017,7.057c-0.042-0.003-0.079-0.005-0.117-0.005l-2.047,0.005h-0.819v2
		h2.819v-0.006c0.042,0.001,0.082,0.006,0.124,0.006c5.001,0,9.057-4.054,9.057-9.057C361.098-77.342,357.344-81.264,352.609-81.559
		z M324.689-85.176c-0.241-0.016-0.48-0.036-0.725-0.036c-2.766,0-5.281,1.042-7.2,2.743c-1.092-1.367-1.753-3.09-1.753-4.971
		c0-4.41,3.589-7.999,8-7.999c3.092,0,5.76,1.773,7.092,4.345C327.805-89.654,325.926-87.605,324.689-85.176z"/>
</g>
<g>
	<polygon points="436.495,-58.963 436.495,-57.022 436.495,-50.963 438.495,-50.963 438.495,-57.022 438.495,-58.963 
		438.495,-70.963 436.495,-70.963 	"/>
	<polygon points="444.495,-62.963 444.495,-61.21 444.495,-54.963 446.495,-54.963 446.495,-61.21 446.495,-62.963 446.495,-74.963 
		444.495,-74.963 	"/>
	<polygon points="428.495,-62.963 428.495,-60.897 428.495,-54.963 430.495,-54.963 430.495,-60.897 430.495,-62.963 
		430.495,-74.963 428.495,-74.963 	"/>
	<path d="M453.007-84.075c-1.444-6.742-7.433-11.8-14.605-11.8c-1.799,0-3.521,0.32-5.118,0.904
		c-0.949-5.108-5.404-8.98-10.788-8.98c-0.413,0-0.819,0.027-1.222,0.071c0.744,1.112,1.179,2.448,1.179,3.886c0,3.865-3.134,7-7,7
		c-1.438,0-2.773-0.435-3.886-1.179c-0.044,0.401-0.071,0.809-0.071,1.222c0,3.712,1.845,6.987,4.661,8.979
		c-1.653,1.907-2.661,4.389-2.661,7.111c0,5.983,4.836,10.836,10.813,10.865v0.003h1.188v-2h-0.721l-0.457-0.003
		c-4.864-0.023-8.822-4.001-8.822-8.865c0-4.89,3.978-8.868,8.867-8.868c0.15,0,0.299,0.012,0.447,0.022l0.148,0.01l1.314,0.085
		l0.597-1.175c2.225-4.372,6.644-7.089,11.532-7.089c6.062,0,11.382,4.298,12.649,10.219l0.318,1.483l1.514,0.094
		c3.708,0.23,6.612,3.319,6.612,7.03c0,3.878-3.144,7.035-7.017,7.057c-0.042-0.003-0.079-0.005-0.117-0.005l-2.047,0.005h-0.819v2
		h2.819v-0.006c0.042,0.001,0.082,0.006,0.124,0.006c5.001,0,9.057-4.054,9.057-9.057C461.495-79.858,457.741-83.78,453.007-84.075z
		 M425.087-87.692c-0.241-0.016-0.48-0.036-0.725-0.036c-2.537,0-4.865,0.876-6.715,2.334c-2.012-1.294-3.486-3.354-3.976-5.776
		c0.582,0.117,1.178,0.177,1.78,0.177c4.963,0,9-4.037,9-9c0-0.603-0.06-1.198-0.177-1.78c3.733,0.753,6.629,3.824,7.134,7.641
		C428.696-92.69,426.481-90.435,425.087-87.692z"/>
</g>
<g>
	<polygon points="653.53,-58.019 646.647,-67.849 645.01,-66.701 651.893,-56.871 653.005,-55.282 656.48,-50.318 658.119,-51.465 
		654.644,-56.43 	"/>
	<polygon points="661.532,-58.021 654.647,-67.849 653.01,-66.7 659.896,-56.872 660.9,-55.437 664.484,-50.321 666.123,-51.468 
		662.539,-56.584 	"/>
	<polygon points="645.53,-58.019 638.647,-67.849 637.01,-66.7 643.893,-56.871 645.077,-55.179 648.481,-50.317 650.119,-51.465 
		646.716,-56.326 	"/>
	<rect x="633.01" y="-105.567" width="2" height="7.973"/>
	<rect x="614.01" y="-86.653" width="7.973" height="2"/>
	<rect x="618.683" y="-97.92" transform="matrix(0.7071 0.7071 -0.7071 0.7071 113.8431 -468.6813)" width="7.974" height="2"/>
	<rect x="644.192" y="-100.902" transform="matrix(0.7071 0.7071 -0.7071 0.7071 120.4423 -484.6053)" width="2" height="7.972"/>
	<path d="M663.521-79.777c-1.444-6.742-7.433-11.8-14.605-11.8c-2.185,0-4.258,0.47-6.126,1.313
		c-1.667-3.202-5.007-5.394-8.866-5.394c-5.522,0-10,4.477-10,9.999c0,2.46,0.899,4.702,2.373,6.442
		c-1.429,1.84-2.287,4.144-2.287,6.653c0,5.983,4.836,10.836,10.813,10.865v0.003h1.188v-2h-0.721l-0.457-0.003
		c-4.864-0.023-8.822-4.001-8.822-8.865c0-4.89,3.978-8.868,8.867-8.868c0.15,0,0.299,0.012,0.447,0.022l0.148,0.01l1.314,0.085
		l0.597-1.175c2.225-4.372,6.644-7.089,11.532-7.089c6.062,0,11.382,4.298,12.649,10.219l0.318,1.483l1.514,0.094
		c3.708,0.23,6.612,3.319,6.612,7.03c0,3.878-3.144,7.035-7.017,7.057c-0.042-0.003-0.079-0.005-0.117-0.005l-0.047,0.005h-0.819v2
		h0.819V-61.7c0.042,0.001,0.082,0.006,0.124,0.006c5.001,0,9.057-4.054,9.057-9.057C672.01-75.561,668.256-79.482,663.521-79.777z
		 M635.602-83.395c-0.241-0.016-0.48-0.036-0.725-0.036c-2.766,0-5.282,1.042-7.2,2.743c-1.092-1.367-1.753-3.09-1.753-4.971
		c0-4.41,3.589-7.999,8-7.999c3.091,0,5.76,1.773,7.091,4.345C638.717-87.873,636.837-85.824,635.602-83.395z"/>
</g>
<g>
	<polygon points="-69.9,38.467 -76.783,28.637 -78.421,29.784 -71.538,39.614 -70.426,41.203 -66.95,46.167 -65.312,45.021 
		-68.787,40.056 	"/>
	<polygon points="-61.898,38.465 -68.783,28.637 -70.421,29.785 -63.535,39.613 -62.53,41.049 -58.946,46.164 -57.308,45.018 
		-60.892,39.901 	"/>
	<polygon points="-77.9,38.467 -84.783,28.637 -86.421,29.785 -79.538,39.614 -78.354,41.307 -74.949,46.168 -73.312,45.021 
		-76.715,40.159 	"/>
	<path d="M-59.909,16.708c-1.444-6.742-7.433-11.8-14.605-11.8c-1.799,0-3.522,0.32-5.118,0.904
		c-0.949-5.108-5.404-8.98-10.788-8.98c-0.413,0-0.819,0.027-1.222,0.071c0.744,1.112,1.179,2.448,1.179,3.886c0,3.865-3.134,7-7,7
		c-1.438,0-2.773-0.435-3.886-1.179c-0.044,0.401-0.071,0.809-0.071,1.222c0,3.712,1.845,6.987,4.661,8.979
		c-1.653,1.907-2.661,4.389-2.661,7.111c0,5.983,4.836,10.836,10.813,10.865v0.003h1.188v-2h-0.721l-0.457-0.003
		c-4.864-0.023-8.822-4.001-8.822-8.865c0-4.89,3.978-8.868,8.867-8.868c0.15,0,0.299,0.012,0.447,0.022l0.148,0.01l1.314,0.085
		l0.597-1.175c2.225-4.372,6.644-7.089,11.532-7.089c6.062,0,11.382,4.298,12.649,10.219l0.318,1.483l1.514,0.094
		c3.708,0.23,6.612,3.319,6.612,7.03c0,3.878-3.144,7.035-7.017,7.057c-0.042-0.003-0.079-0.005-0.117-0.005l-0.047,0.005h-0.819v2
		h0.819v-0.006c0.042,0.001,0.082,0.006,0.124,0.006c5.001,0,9.057-4.054,9.057-9.057C-51.421,20.925-55.175,17.003-59.909,16.708z
		 M-87.829,13.091c-0.241-0.016-0.48-0.036-0.725-0.036c-2.537,0-4.865,0.876-6.715,2.334c-2.012-1.294-3.487-3.354-3.976-5.776
		c0.582,0.117,1.178,0.177,1.78,0.177c4.963,0,9-4.037,9-9c0-0.603-0.06-1.198-0.177-1.78c3.733,0.753,6.629,3.824,7.133,7.641
		C-84.219,8.093-86.434,10.349-87.829,13.091z"/>
</g>
<g>
	<rect x="-77.421" y="-65.38" width="2" height="4"/>
	<rect x="-69.421" y="-69.401" width="2" height="4.021"/>
	<rect x="-85.421" y="-69.401" width="2" height="4.021"/>
	<path d="M-58.793-85.368C-60.389-92.813-67-98.397-74.92-98.397c-6.423,0-11.977,3.678-14.702,9.035
		c-0.266-0.018-0.53-0.04-0.8-0.04c-6.627,0-11.999,5.372-11.999,12c0,6.607,5.34,11.965,11.938,11.998v0.003h2.062v-2h-1.604
		l-0.447-0.003c-5.485-0.027-9.948-4.513-9.948-9.998c0-5.514,4.485-10,9.999-10c0.175,0,0.347,0.014,0.52,0.025l0.148,0.01
		l1.316,0.088l0.598-1.176c2.492-4.899,7.443-7.942,12.92-7.942c6.79,0,12.75,4.814,14.172,11.448l0.317,1.482l1.514,0.095
		c4.203,0.262,7.496,3.763,7.496,7.971c0,4.397-3.565,7.977-7.957,8c-0.05-0.003-0.093-0.005-0.137-0.007l-2.043,0.007h-2.863v2
		h4.863v-0.007c0.046,0.001,0.091,0.007,0.137,0.007c5.521,0,10-4.477,10-10C-49.421-80.712-53.565-85.043-58.793-85.368z"/>
	<circle cx="-68.421" cy="-60.359" r="1.5"/>
	<circle cx="-76.421" cy="-56.391" r="1.5"/>
	<circle cx="-84.421" cy="-60.401" r="1.5"/>
</g>
<g>
	<rect x="15.5" y="-104.834" width="2" height="7.973"/>
	<rect x="-3.5" y="-85.92" width="7.973" height="2"/>
	<rect x="1.173" y="-97.186" transform="matrix(0.7071 0.7071 -0.7071 0.7071 -66.5028 -31.8212)" width="7.974" height="2"/>
	<rect x="26.682" y="-100.168" transform="matrix(0.7071 0.7071 -0.7071 0.7071 -59.9036 -47.7451)" width="2" height="7.972"/>
	<path d="M46.012-79.044c-1.444-6.742-7.433-11.8-14.605-11.8c-2.185,0-4.258,0.47-6.126,1.313
		c-1.667-3.202-5.007-5.394-8.866-5.394c-5.522,0-10,4.477-10,9.999c0,2.46,0.899,4.702,2.373,6.442
		C7.358-76.643,6.5-74.339,6.5-71.829c0,5.983,4.836,10.836,10.813,10.865v0.003H18.5v-2h-0.721l-0.457-0.003
		C12.458-62.987,8.5-66.965,8.5-71.829c0-4.89,3.978-8.868,8.867-8.868c0.15,0,0.299,0.012,0.447,0.022l0.148,0.01l1.314,0.085
		l0.597-1.175c2.225-4.372,6.644-7.089,11.532-7.089c6.062,0,11.382,4.298,12.649,10.219l0.318,1.483l1.514,0.094
		c3.708,0.23,6.612,3.319,6.612,7.03c0,3.878-3.144,7.035-7.017,7.057c-0.042-0.003-0.079-0.005-0.117-0.005l-2.047,0.005H42.5v2
		h2.819v-0.006c0.042,0.001,0.082,0.006,0.124,0.006c5.001,0,9.057-4.054,9.057-9.057C54.5-74.827,50.746-78.749,46.012-79.044z
		 M18.092-82.661c-0.241-0.016-0.48-0.036-0.725-0.036c-2.766,0-5.282,1.042-7.2,2.743c-1.092-1.367-1.753-3.09-1.753-4.971
		c0-4.41,3.589-7.999,8-7.999c3.091,0,5.76,1.773,7.091,4.345C21.207-87.14,19.327-85.091,18.092-82.661z"/>
	<rect x="29.5" y="-60.945" width="2" height="4"/>
	<rect x="37.5" y="-64.967" width="2" height="4.021"/>
	<rect x="21.5" y="-64.967" width="2" height="4.021"/>
	<circle cx="38.5" cy="-55.925" r="1.5"/>
	<circle cx="30.5" cy="-51.956" r="1.5"/>
	<circle cx="22.5" cy="-55.967" r="1.5"/>
</g>
<g>
	<path d="M146.938-80.001c-1.444-6.742-7.433-11.8-14.605-11.8c-1.799,0-3.522,0.32-5.118,0.904
		c-0.949-5.108-5.404-8.98-10.788-8.98c-0.413,0-0.819,0.027-1.222,0.071c0.744,1.112,1.179,2.448,1.179,3.886c0,3.865-3.134,7-7,7
		c-1.438,0-2.773-0.435-3.886-1.179c-0.044,0.401-0.071,0.809-0.071,1.222c0,3.712,1.845,6.987,4.661,8.979
		c-1.653,1.907-2.661,4.389-2.661,7.111c0,5.983,4.836,10.836,10.813,10.865v0.003h1.188v-2h-0.721l-0.457-0.003
		c-4.864-0.023-8.822-4.001-8.822-8.865c0-4.89,3.978-8.868,8.867-8.868c0.15,0,0.299,0.012,0.447,0.022l0.148,0.01l1.314,0.085
		l0.597-1.175c2.225-4.372,6.644-7.089,11.532-7.089c6.062,0,11.382,4.298,12.649,10.219l0.318,1.483l1.514,0.094
		c3.708,0.23,6.612,3.319,6.612,7.03c0,3.878-3.144,7.035-7.017,7.057c-0.042-0.003-0.079-0.005-0.117-0.005l-2.047,0.005h-0.819v2
		h2.819v-0.006c0.042,0.001,0.082,0.006,0.124,0.006c5.001,0,9.057-4.054,9.057-9.057C155.426-75.784,151.672-79.706,146.938-80.001
		z M119.018-83.618c-0.241-0.016-0.48-0.036-0.725-0.036c-2.537,0-4.865,0.876-6.715,2.334c-2.012-1.294-3.487-3.354-3.976-5.776
		c0.582,0.117,1.178,0.177,1.78,0.177c4.963,0,9-4.037,9-9c0-0.603-0.06-1.198-0.177-1.78c3.733,0.753,6.629,3.824,7.133,7.641
		C122.628-88.616,120.413-86.36,119.018-83.618z"/>
	<rect x="130.426" y="-61.902" width="2" height="4"/>
	<rect x="138.426" y="-65.924" width="2" height="4.021"/>
	<rect x="122.426" y="-65.924" width="2" height="4.021"/>
	<circle cx="139.426" cy="-56.882" r="1.5"/>
	<circle cx="131.426" cy="-52.913" r="1.5"/>
	<circle cx="123.426" cy="-56.924" r="1.5"/>
</g>
<g>
	<path d="M43.628,13.029C42.032,5.584,35.421,0,27.501,0c-6.423,0-11.977,3.678-14.702,9.035c-0.266-0.018-0.53-0.04-0.8-0.04
		C5.372,8.995,0,14.367,0,20.995c0,6.607,5.34,11.965,11.938,11.998v0.003H18v-2h-5.604l-0.447-0.003C6.463,30.966,2,26.48,2,20.995
		c0-5.514,4.485-10,9.999-10c0.175,0,0.347,0.014,0.52,0.025l0.148,0.01l1.316,0.088l0.598-1.176C17.073,5.043,22.024,2,27.501,2
		c6.79,0,12.75,4.814,14.172,11.448l0.317,1.482l1.514,0.095C47.707,15.287,51,18.788,51,22.996c0,4.397-3.565,7.977-7.957,8
		c-0.05-0.003-0.093-0.005-0.137-0.007l-5.043,0.007H38v2h4.863v-0.007c0.046,0.001,0.091,0.007,0.137,0.007c5.521,0,10-4.477,10-10
		C53,17.686,48.855,13.354,43.628,13.029z"/>
	<polygon points="27.842,33 29.611,33 30.042,33 32.052,33 25.638,23.839 24,24.986 28.211,31 26.44,31 24,31 25.271,32.816 
		26.384,34.405 32.361,43 34,41.854 28.022,33.258 	"/>
</g>
<g>
	<rect x="119.426" y="-6.101" width="2" height="7.973"/>
	<rect x="100.426" y="12.813" width="7.973" height="2"/>
	<rect x="105.099" y="1.547" transform="matrix(0.7071 0.7071 -0.7071 0.7071 33.7514 -76.3894)" width="7.974" height="2"/>
	<rect x="130.608" y="-1.435" transform="matrix(0.7071 0.7071 -0.7071 0.7071 40.3506 -92.3134)" width="2" height="7.972"/>
	<path d="M149.938,19.689c-1.444-6.742-7.433-11.8-14.605-11.8c-2.185,0-4.258,0.47-6.127,1.313
		c-1.666-3.202-5.006-5.394-8.865-5.394c-5.522,0-10,4.477-10,9.999c0,2.46,0.898,4.702,2.373,6.442
		c-1.428,1.84-2.287,4.144-2.287,6.653c0,5.983,4.836,10.836,10.813,10.865v0.003h4.188v-2h-3.721l-0.457-0.003
		c-4.864-0.023-8.822-4.001-8.822-8.865c0-4.89,3.978-8.868,8.867-8.868c0.15,0,0.299,0.012,0.447,0.022l0.148,0.01l1.314,0.085
		l0.597-1.175c2.225-4.372,6.644-7.089,11.532-7.089c6.062,0,11.382,4.298,12.649,10.219l0.318,1.483l1.514,0.094
		c3.708,0.23,6.612,3.319,6.612,7.03c0,3.878-3.144,7.035-7.017,7.057c-0.042-0.003-0.079-0.005-0.117-0.005l-2.047,0.005h-3.819v2
		h5.819v-0.006c0.042,0.001,0.082,0.006,0.124,0.006c5.001,0,9.057-4.054,9.057-9.057C158.426,23.906,154.672,19.984,149.938,19.689
		z M122.018,16.072c-0.241-0.016-0.48-0.036-0.725-0.036c-2.766,0-5.281,1.041-7.2,2.743c-1.092-1.366-1.753-3.09-1.753-4.971
		c0-4.41,3.589-7.999,8-7.999c3.092,0,5.76,1.773,7.092,4.345C125.133,11.595,123.254,13.643,122.018,16.072z"/>
	<polygon points="134.268,37.779 136.037,37.779 136.468,37.779 138.478,37.779 132.063,28.618 130.426,29.766 134.637,35.779 
		132.866,35.779 130.426,35.779 131.697,37.596 132.81,39.185 138.787,47.779 140.426,46.633 134.448,38.037 	"/>
</g>
<g>
	<path d="M249.522,17.394c-1.444-6.742-7.433-11.8-14.605-11.8c-1.799,0-3.521,0.32-5.118,0.904
		c-0.949-5.108-5.404-8.98-10.788-8.98c-0.413,0-0.819,0.027-1.222,0.071c0.744,1.112,1.179,2.448,1.179,3.886c0,3.865-3.134,7-7,7
		c-1.438,0-2.773-0.435-3.886-1.179c-0.044,0.401-0.071,0.809-0.071,1.222c0,3.712,1.845,6.987,4.661,8.979
		c-1.653,1.907-2.661,4.389-2.661,7.111c0,5.983,4.836,10.836,10.813,10.865v0.003h4.188v-2h-3.721l-0.457-0.003
		c-4.864-0.023-8.822-4.001-8.822-8.865c0-4.89,3.978-8.868,8.867-8.868c0.15,0,0.299,0.012,0.447,0.022l0.148,0.01l1.314,0.085
		l0.597-1.175c2.225-4.372,6.644-7.089,11.532-7.089c6.062,0,11.382,4.298,12.649,10.219l0.318,1.483l1.514,0.094
		c3.708,0.23,6.612,3.319,6.612,7.03c0,3.878-3.144,7.035-7.017,7.057c-0.042-0.003-0.079-0.005-0.117-0.005l-2.047,0.005h-3.819v2
		h5.819v-0.006c0.042,0.001,0.082,0.006,0.124,0.006c5.001,0,9.057-4.054,9.057-9.057C258.011,21.61,254.257,17.688,249.522,17.394z
		 M221.603,13.776c-0.241-0.016-0.48-0.036-0.725-0.036c-2.537,0-4.865,0.876-6.715,2.334c-2.012-1.294-3.486-3.354-3.976-5.776
		c0.582,0.117,1.178,0.177,1.78,0.177c4.963,0,9-4.037,9-9c0-0.603-0.06-1.198-0.177-1.78c3.733,0.753,6.629,3.824,7.134,7.64
		C225.212,8.778,222.997,11.033,221.603,13.776z"/>
	<polygon points="233.853,35.483 235.622,35.483 236.053,35.483 238.063,35.483 231.648,26.322 230.011,27.47 234.222,33.483 
		232.451,33.483 230.011,33.483 231.282,35.3 232.395,36.889 238.372,45.483 240.011,44.337 234.033,35.741 	"/>
</g>
<g>
	<path d="M350.407,13.529C348.812,6.084,342.2,0.5,334.28,0.5c-6.423,0-11.977,3.678-14.702,9.035c-0.266-0.018-0.53-0.04-0.8-0.04
		c-6.627,0-11.999,5.372-11.999,12c0,6.607,5.34,11.965,11.938,11.998v0.003h1.062v-2h-0.604l-0.447-0.003
		c-5.485-0.027-9.948-4.513-9.948-9.998c0-5.514,4.485-10,9.999-10c0.175,0,0.347,0.014,0.52,0.025l0.148,0.01l1.316,0.088
		l0.598-1.176c2.492-4.899,7.443-7.942,12.92-7.942c6.79,0,12.75,4.814,14.172,11.448l0.317,1.482l1.514,0.095
		c4.203,0.262,7.496,3.763,7.496,7.971c0,4.397-3.565,7.977-7.957,8c-0.05-0.003-0.093-0.005-0.137-0.007l-0.906,0.007v2h0.863
		v-0.007c0.046,0.001,0.091,0.007,0.137,0.007c5.521,0,10-4.477,10-10C359.779,18.186,355.635,13.854,350.407,13.529z"/>
	<rect x="319.214" y="31.494" transform="matrix(-0.5736 -0.8191 0.8191 -0.5736 484.51 317.184)" width="11.183" height="1.999"/>
	
		<rect x="337.188" y="31.494" transform="matrix(-0.5736 -0.8191 0.8191 -0.5736 512.7955 331.9072)" width="11.183" height="1.999"/>
	<polygon points="335.621,36.5 337.391,36.5 337.821,36.5 339.831,36.5 333.417,27.339 331.779,28.486 335.99,34.5 334.22,34.5 
		331.779,34.5 333.051,36.316 334.163,37.905 338.779,44.5 340.418,43.354 335.802,36.758 	"/>
</g>
<g>
	<rect x="425.255" y="-5.938" width="2" height="7.973"/>
	<rect x="406.255" y="12.977" width="7.973" height="2"/>
	<rect x="410.928" y="1.71" transform="matrix(0.7071 0.7071 -0.7071 0.7071 123.442 -292.5955)" width="7.974" height="2"/>
	<rect x="436.437" y="-1.272" transform="matrix(0.7071 0.7071 -0.7071 0.7071 130.0412 -308.5195)" width="2" height="7.972"/>
	<path d="M455.767,19.853c-1.444-6.742-7.433-11.8-14.605-11.8c-2.185,0-4.258,0.47-6.126,1.313
		c-1.667-3.202-5.007-5.394-8.866-5.394c-5.522,0-10,4.477-10,9.999c0,2.46,0.899,4.702,2.373,6.442
		c-1.429,1.84-2.287,4.144-2.287,6.653c0,5.983,4.836,10.836,10.813,10.865v0.003h0.188v-2l-0.178-0.003
		c-4.864-0.023-8.822-4.001-8.822-8.865c0-4.89,3.978-8.868,8.867-8.868c0.15,0,0.299,0.012,0.447,0.022l0.148,0.01l1.314,0.085
		l0.597-1.175c2.225-4.372,6.644-7.089,11.532-7.089c6.062,0,11.382,4.298,12.649,10.219l0.318,1.483l1.514,0.094
		c3.708,0.23,6.612,3.319,6.612,7.03c0,3.878-3.144,7.035-7.017,7.057c-0.042-0.003-0.079-0.005-0.117-0.005l-0.866,0.005v2h0.819
		V37.93c0.042,0.001,0.082,0.006,0.124,0.006c5.001,0,9.057-4.054,9.057-9.057C464.255,24.069,460.501,20.147,455.767,19.853z
		 M427.847,16.235c-0.241-0.016-0.48-0.036-0.725-0.036c-2.766,0-5.282,1.042-7.2,2.743c-1.092-1.367-1.753-3.09-1.753-4.971
		c0-4.41,3.589-7.999,8-7.999c3.091,0,5.76,1.773,7.091,4.345C430.962,11.757,429.082,13.806,427.847,16.235z"/>
	
		<rect x="425.677" y="35.933" transform="matrix(-0.5736 -0.8191 0.8191 -0.5736 648.4084 411.3733)" width="11.183" height="1.999"/>
	
		<rect x="443.651" y="35.933" transform="matrix(-0.5736 -0.8191 0.8191 -0.5736 676.694 426.0964)" width="11.183" height="1.999"/>
	<polygon points="442.084,40.938 443.854,40.938 444.284,40.938 446.294,40.938 439.88,31.777 438.242,32.925 442.453,38.938 
		440.683,38.938 438.242,38.938 439.514,40.755 440.626,42.344 445.242,48.938 446.881,47.792 442.265,41.196 	"/>
</g>
<g>
	<path d="M557.604,16.895c-1.444-6.742-7.433-11.8-14.605-11.8c-1.799,0-3.522,0.32-5.118,0.904
		c-0.949-5.108-5.404-8.98-10.788-8.98c-0.413,0-0.819,0.027-1.222,0.071c0.744,1.112,1.179,2.448,1.179,3.886c0,3.865-3.134,7-7,7
		c-1.438,0-2.773-0.435-3.886-1.179c-0.044,0.401-0.071,0.809-0.071,1.222c0,3.712,1.845,6.987,4.661,8.979
		c-1.653,1.907-2.661,4.389-2.661,7.111c0,5.983,4.836,10.836,10.813,10.865v0.003h0.188v-2l-0.178-0.003
		c-4.864-0.023-8.822-4.001-8.822-8.865c0-4.89,3.978-8.868,8.867-8.868c0.15,0,0.299,0.012,0.447,0.022l0.148,0.01l1.314,0.085
		l0.597-1.175c2.225-4.372,6.644-7.089,11.532-7.089c6.062,0,11.382,4.298,12.649,10.219l0.318,1.483l1.514,0.094
		c3.708,0.23,6.612,3.319,6.612,7.03c0,3.878-3.144,7.035-7.017,7.057c-0.042-0.003-0.079-0.005-0.117-0.005l-0.866,0.005v2h0.819
		v-0.006c0.042,0.001,0.082,0.006,0.124,0.006c5.001,0,9.057-4.054,9.057-9.057C566.093,21.111,562.339,17.189,557.604,16.895z
		 M529.685,13.277c-0.241-0.016-0.48-0.036-0.725-0.036c-2.537,0-4.865,0.876-6.715,2.334c-2.012-1.294-3.487-3.354-3.976-5.776
		c0.582,0.117,1.178,0.177,1.78,0.177c4.963,0,9-4.037,9-9c0-0.603-0.06-1.198-0.177-1.78c3.733,0.753,6.629,3.824,7.133,7.641
		C533.295,8.279,531.08,10.535,529.685,13.277z"/>
	
		<rect x="527.513" y="32.975" transform="matrix(-0.5736 -0.8191 0.8191 -0.5736 811.0859 490.1339)" width="11.183" height="1.999"/>
	
		<rect x="545.488" y="32.975" transform="matrix(-0.5736 -0.8191 0.8191 -0.5736 839.3714 504.8571)" width="11.183" height="1.999"/>
	<polygon points="543.921,37.98 545.69,37.98 546.121,37.98 548.131,37.98 541.717,28.819 540.079,29.967 544.29,35.98 
		542.52,35.98 540.079,35.98 541.351,37.797 542.463,39.386 547.079,45.98 548.718,44.834 544.102,38.238 	"/>
</g>
<g>
	<g>
		<path d="M147.042,103.35c-1.596-7.445-8.207-13.029-16.127-13.029c-6.423,0-11.977,3.678-14.702,9.035
			c-0.266-0.018-0.53-0.04-0.8-0.04c-6.627,0-11.999,5.372-11.999,12c0,6.607,5.34,11.965,11.938,11.998v0.003h2.062v-2h-1.604
			l-0.447-0.003c-5.485-0.027-9.948-4.513-9.948-9.998c0-5.514,4.485-10,9.999-10c0.175,0,0.347,0.014,0.52,0.025l0.148,0.01
			l1.316,0.088l0.598-1.176c2.492-4.899,7.443-7.942,12.92-7.942c6.79,0,12.75,4.814,14.172,11.448l0.317,1.482l1.514,0.095
			c4.203,0.262,7.496,3.763,7.496,7.971c0,4.397-3.565,7.977-7.957,8c-0.05-0.003-0.093-0.005-0.137-0.007l-2.043,0.007h-2.863v2
			h4.863v-0.007c0.046,0.001,0.091,0.007,0.137,0.007c5.521,0,10-4.477,10-10C156.414,108.006,152.27,103.675,147.042,103.35z"/>
	</g>
	<g>
		<circle cx="121.914" cy="116.893" r="1.5"/>
	</g>
	<g>
		<circle cx="125.914" cy="122.816" r="1.5"/>
	</g>
	<g>
		<circle cx="133.914" cy="122.816" r="1.5"/>
	</g>
	<g>
		<circle cx="129.914" cy="116.893" r="1.5"/>
	</g>
	<g>
		<circle cx="137.914" cy="116.893" r="1.5"/>
	</g>
	<g>
		<circle cx="121.914" cy="128.838" r="1.5"/>
	</g>
	<g>
		<circle cx="129.914" cy="128.838" r="1.5"/>
	</g>
	<g>
		<circle cx="137.914" cy="128.838" r="1.5"/>
	</g>
</g>
<g>
	<g>
		<rect x="222.828" y="87.872" width="2" height="7.973"/>
	</g>
	<g>
		<rect x="203.828" y="106.786" width="7.973" height="2"/>
	</g>
	<g>
		<rect x="208.501" y="95.52" transform="matrix(0.7071 0.7071 -0.7071 0.7071 130.486 -121.982)" width="7.974" height="2"/>
	</g>
	<g>
		<rect x="234.01" y="92.538" transform="matrix(0.7071 0.7071 -0.7071 0.7071 137.0851 -137.9059)" width="2" height="7.972"/>
	</g>
	<g>
		<path d="M253.34,113.662c-1.444-6.742-7.433-11.8-14.605-11.8c-2.185,0-4.258,0.47-6.127,1.313
			c-1.666-3.202-5.006-5.394-8.865-5.394c-5.522,0-10,4.477-10,9.999c0,2.46,0.898,4.702,2.373,6.442
			c-1.428,1.84-2.287,4.144-2.287,6.653c0,5.983,4.836,10.836,10.813,10.865v0.003h1.188v-2h-0.721l-0.457-0.003
			c-4.864-0.023-8.822-4.001-8.822-8.865c0-4.89,3.978-8.868,8.867-8.868c0.15,0,0.299,0.012,0.447,0.022l0.148,0.01l1.314,0.085
			l0.597-1.175c2.225-4.372,6.644-7.089,11.532-7.089c6.062,0,11.382,4.298,12.649,10.219l0.318,1.483l1.514,0.094
			c3.708,0.23,6.612,3.319,6.612,7.03c0,3.878-3.144,7.035-7.017,7.057c-0.042-0.003-0.079-0.005-0.117-0.005l-2.047,0.005h-1.819v2
			h3.819v-0.006c0.042,0.001,0.082,0.006,0.124,0.006c5.001,0,9.057-4.054,9.057-9.057
			C261.828,117.879,258.074,113.957,253.34,113.662z M225.42,110.045c-0.241-0.016-0.48-0.036-0.725-0.036
			c-2.766,0-5.281,1.042-7.2,2.743c-1.092-1.367-1.753-3.09-1.753-4.971c0-4.41,3.589-7.999,8-7.999c3.092,0,5.76,1.773,7.092,4.345
			C228.535,105.566,226.656,107.615,225.42,110.045z"/>
	</g>
	<g>
		<circle cx="229.317" cy="125.256" r="1.5"/>
	</g>
	<g>
		<circle cx="233.317" cy="131.256" r="1.5"/>
	</g>
	<g>
		<circle cx="241.317" cy="131.256" r="1.5"/>
	</g>
	<g>
		<circle cx="237.317" cy="125.256" r="1.5"/>
	</g>
	<g>
		<circle cx="245.317" cy="125.256" r="1.5"/>
	</g>
	<g>
		<circle cx="229.317" cy="137.277" r="1.5"/>
	</g>
	<g>
		<circle cx="237.317" cy="137.277" r="1.5"/>
	</g>
	<g>
		<circle cx="245.317" cy="137.277" r="1.5"/>
	</g>
</g>
<g>
	<g>
		<path d="M349.291,109.706c-1.444-6.742-7.433-11.8-14.605-11.8c-1.799,0-3.521,0.32-5.118,0.904
			c-0.949-5.108-5.404-8.98-10.788-8.98c-0.413,0-0.819,0.027-1.222,0.071c0.744,1.112,1.179,2.448,1.179,3.886c0,3.865-3.134,7-7,7
			c-1.438,0-2.773-0.435-3.886-1.179c-0.044,0.401-0.071,0.809-0.071,1.222c0,3.712,1.845,6.987,4.661,8.979
			c-1.653,1.907-2.661,4.389-2.661,7.111c0,5.983,4.836,10.836,10.813,10.865v0.003h1.188v-2h-0.721l-0.457-0.003
			c-4.864-0.023-8.822-4.001-8.822-8.865c0-4.89,3.978-8.868,8.867-8.868c0.15,0,0.299,0.012,0.447,0.022l0.148,0.01l1.314,0.085
			l0.597-1.175c2.225-4.372,6.644-7.089,11.532-7.089c6.062,0,11.382,4.298,12.649,10.219l0.318,1.483l1.514,0.094
			c3.708,0.23,6.612,3.319,6.612,7.03c0,3.878-3.144,7.035-7.017,7.057c-0.042-0.003-0.079-0.005-0.117-0.005l-2.047,0.005h-1.819v2
			h3.819v-0.006c0.042,0.001,0.082,0.006,0.124,0.006c5.001,0,9.057-4.054,9.057-9.057
			C357.779,113.923,354.025,110.001,349.291,109.706z M321.371,106.089c-0.241-0.016-0.48-0.036-0.725-0.036
			c-2.537,0-4.865,0.876-6.715,2.334c-2.012-1.294-3.486-3.354-3.976-5.776c0.582,0.117,1.178,0.177,1.78,0.177c4.963,0,9-4.037,9-9
			c0-0.603-0.06-1.198-0.177-1.78c3.733,0.753,6.629,3.824,7.134,7.64C324.98,101.091,322.766,103.346,321.371,106.089z"/>
	</g>
	<g>
		<circle cx="325.279" cy="121.299" r="1.5"/>
	</g>
	<g>
		<circle cx="329.279" cy="127.299" r="1.5"/>
	</g>
	<g>
		<circle cx="337.279" cy="127.299" r="1.5"/>
	</g>
	<g>
		<circle cx="333.279" cy="121.299" r="1.5"/>
	</g>
	<g>
		<circle cx="341.279" cy="121.299" r="1.5"/>
	</g>
	<g>
		<circle cx="325.279" cy="133.32" r="1.5"/>
	</g>
	<g>
		<circle cx="333.279" cy="133.32" r="1.5"/>
	</g>
	<g>
		<circle cx="341.279" cy="133.32" r="1.5"/>
	</g>
</g>
<g>
	<path d="M660.456,10.82c-1.596-7.445-8.207-13.029-16.127-13.029c-6.423,0-11.977,3.678-14.702,9.035
		c-0.266-0.018-0.53-0.04-0.8-0.04c-6.627,0-11.999,5.372-11.999,12c0,6.607,5.34,11.965,11.938,11.998v0.003h2.062v-2h-1.604
		l-0.447-0.003c-5.485-0.027-9.948-4.513-9.948-9.998c0-5.514,4.485-10,9.999-10c0.175,0,0.347,0.014,0.52,0.025l0.148,0.01
		l1.316,0.088l0.598-1.176c2.492-4.899,7.443-7.942,12.92-7.942c6.79,0,12.75,4.814,14.172,11.448l0.317,1.482l1.514,0.095
		c4.203,0.262,7.496,3.763,7.496,7.971c0,4.397-3.565,7.977-7.957,8c-0.05-0.003-0.093-0.005-0.137-0.007l-2.043,0.007h-2.863v2
		h4.863V30.78c0.046,0.001,0.091,0.007,0.137,0.007c5.521,0,10-4.477,10-10C669.828,15.477,665.684,11.146,660.456,10.82z"/>
	<circle cx="634.828" cy="38.291" r="1.5"/>
	<circle cx="642.828" cy="44.291" r="1.5"/>
	<circle cx="650.828" cy="40.291" r="1.5"/>
	<rect x="633.828" y="21.815" width="2" height="11.976"/>
	<polygon points="643.828,39.756 643.828,37.815 643.828,25.815 641.828,25.815 641.828,37.815 641.828,39.756 641.828,39.791 
		643.828,39.791 	"/>
	<polygon points="651.828,35.568 651.828,33.815 651.828,21.815 649.828,21.815 649.828,33.815 649.828,35.568 649.828,35.791 
		651.828,35.791 	"/>
</g>
<g>
	<rect x="-87.921" y="82.434" width="2" height="7.973"/>
	<rect x="-106.921" y="101.348" width="7.973" height="2"/>
	<rect x="-102.248" y="90.081" transform="matrix(0.7071 0.7071 -0.7071 0.7071 35.6241 96.1579)" width="7.974" height="2"/>
	<rect x="-76.739" y="87.099" transform="matrix(0.7071 0.7071 -0.7071 0.7071 42.2233 80.2339)" width="2" height="7.972"/>
	<path d="M-57.409,108.224c-1.444-6.742-7.433-11.8-14.605-11.8c-2.185,0-4.258,0.47-6.126,1.313
		c-1.667-3.202-5.007-5.394-8.866-5.394c-5.522,0-10,4.477-10,9.999c0,2.46,0.899,4.702,2.373,6.442
		c-1.429,1.84-2.287,4.144-2.287,6.653c0,5.983,4.836,10.836,10.813,10.865v0.003h1.188v-2h-0.721l-0.457-0.003
		c-4.864-0.023-8.822-4.001-8.822-8.865c0-4.89,3.978-8.868,8.867-8.868c0.15,0,0.299,0.012,0.447,0.022l0.148,0.01l1.314,0.085
		l0.597-1.175c2.225-4.372,6.644-7.089,11.532-7.089c6.062,0,11.382,4.298,12.649,10.219l0.318,1.483l1.514,0.094
		c3.708,0.23,6.612,3.319,6.612,7.03c0,3.878-3.144,7.035-7.017,7.057c-0.042-0.003-0.079-0.005-0.117-0.005l-2.047,0.005h-0.819v2
		h2.819v-0.006c0.042,0.001,0.082,0.006,0.124,0.006c5.001,0,9.057-4.054,9.057-9.057C-48.921,112.44-52.675,108.519-57.409,108.224
		z M-85.329,104.606c-0.241-0.016-0.48-0.036-0.725-0.036c-2.766,0-5.282,1.041-7.2,2.743c-1.092-1.366-1.753-3.09-1.753-4.971
		c0-4.41,3.589-7.999,8-7.999c3.091,0,5.76,1.773,7.091,4.345C-82.214,100.129-84.094,102.177-85.329,104.606z"/>
	<circle cx="-80.931" cy="134.794" r="1.5"/>
	<circle cx="-72.931" cy="140.794" r="1.5"/>
	<circle cx="-64.931" cy="136.794" r="1.5"/>
	<rect x="-81.931" y="118.318" width="2" height="11.976"/>
	<polygon points="-71.931,136.259 -71.931,134.318 -71.931,122.318 -73.931,122.318 -73.931,134.318 -73.931,136.259 
		-73.931,136.294 -71.931,136.294 	"/>
	<polygon points="-63.931,132.071 -63.931,130.318 -63.931,118.318 -65.931,118.318 -65.931,130.318 -65.931,132.071 
		-65.931,132.294 -63.931,132.294 	"/>
</g>
<g>
	<path d="M43.193,105.226c-1.444-6.742-7.433-11.8-14.605-11.8c-1.799,0-3.522,0.32-5.118,0.904
		c-0.949-5.108-5.404-8.98-10.788-8.98c-0.413,0-0.819,0.027-1.222,0.071c0.744,1.112,1.179,2.448,1.179,3.886c0,3.865-3.134,7-7,7
		c-1.438,0-2.773-0.435-3.886-1.179c-0.044,0.401-0.071,0.809-0.071,1.222c0,3.712,1.845,6.987,4.661,8.979
		c-1.653,1.907-2.661,4.389-2.661,7.111c0,5.983,4.836,10.836,10.813,10.865v0.003h1.188v-2h-0.721l-0.457-0.003
		c-4.864-0.023-8.822-4.001-8.822-8.865c0-4.89,3.978-8.868,8.867-8.868c0.15,0,0.299,0.012,0.447,0.022l0.148,0.01l1.314,0.085
		l0.597-1.175c2.225-4.372,6.644-7.089,11.532-7.089c6.062,0,11.382,4.298,12.649,10.219l0.318,1.483l1.514,0.094
		c3.708,0.23,6.612,3.319,6.612,7.03c0,3.878-3.144,7.035-7.017,7.057c-0.042-0.003-0.079-0.005-0.117-0.005l-2.047,0.005h-0.819v2
		h2.819v-0.006c0.042,0.001,0.082,0.006,0.124,0.006c5.001,0,9.057-4.054,9.057-9.057C51.682,109.442,47.928,105.521,43.193,105.226
		z M15.273,101.608c-0.241-0.016-0.48-0.036-0.725-0.036c-2.537,0-4.865,0.876-6.715,2.334c-2.012-1.294-3.487-3.354-3.976-5.776
		c0.582,0.117,1.178,0.177,1.78,0.177c4.963,0,9-4.037,9-9c0-0.603-0.06-1.198-0.177-1.78c3.733,0.753,6.629,3.824,7.133,7.64
		C18.884,96.61,16.669,98.865,15.273,101.608z"/>
	<circle cx="19.682" cy="131.8" r="1.5"/>
	<circle cx="27.682" cy="137.8" r="1.5"/>
	<circle cx="35.682" cy="133.8" r="1.5"/>
	<rect x="18.682" y="115.324" width="2" height="11.976"/>
	<polygon points="28.682,133.265 28.682,131.324 28.682,119.324 26.682,119.324 26.682,131.324 26.682,133.265 26.682,133.3 
		28.682,133.3 	"/>
	<polygon points="36.682,129.077 36.682,127.324 36.682,115.324 34.682,115.324 34.682,127.324 34.682,129.077 34.682,129.3 
		36.682,129.3 	"/>
</g>
<g>
	<rect x="-104.921" y="209.666" width="56" height="2"/>
	<rect x="-100.921" y="215.666" width="50" height="2"/>
	<rect x="-94.921" y="221.666" width="36" height="2"/>
	<rect x="-102.921" y="203.666" width="52" height="2"/>
	<path d="M-91.047,195.661c0.175,0,0.347,0.014,0.519,0.025l0.149,0.01l1.316,0.088l0.598-1.176
		c2.493-4.899,7.443-7.942,12.92-7.942c6.79,0,12.75,4.814,14.171,11.448l0.318,1.482l1.514,0.095
		c1.207,0.075,2.335,0.425,3.336,0.975h3.286c-1.678-1.703-3.957-2.813-6.498-2.971c-1.596-7.445-8.207-13.029-16.127-13.029
		c-6.423,0-11.977,3.678-14.702,9.035c-0.266-0.018-0.53-0.04-0.8-0.04c-4.843,0-9.004,2.874-10.9,7.005h2.251
		C-97.965,197.68-94.74,195.661-91.047,195.661z"/>
</g>
<g>
	<rect x="16.182" y="182.151" width="2" height="7.973"/>
	<rect x="-2.818" y="201.065" width="7.973" height="2"/>
	<rect x="1.855" y="189.799" transform="matrix(0.7071 0.7071 -0.7071 0.7071 136.6262 51.7529)" width="7.974" height="2"/>
	<rect x="27.363" y="186.817" transform="matrix(0.7071 0.7071 -0.7071 0.7071 143.2253 35.829)" width="2" height="7.972"/>
	<rect x="6.182" y="216.025" width="50" height="2"/>
	<rect x="10.182" y="222.025" width="44" height="2"/>
	<rect x="16.182" y="227.025" width="30" height="2"/>
	<rect x="8.182" y="210.025" width="46" height="2"/>
	<path d="M9.09,208.025h0.771h1.927H12.8c1.472-1.087,3.283-1.737,5.249-1.737c0.15,0,0.299,0.012,0.447,0.022l0.148,0.01
		l1.314,0.085l0.597-1.175c2.225-4.372,6.644-7.089,11.532-7.089c5.945,0,11.168,4.139,12.563,9.884h2.043v-0.084
		c-1.444-6.742-7.433-11.8-14.605-11.8c-2.185,0-4.258,0.47-6.126,1.313c-1.667-3.202-5.007-5.394-8.866-5.394
		c-5.522,0-10,4.477-10,9.999C7.096,204.302,7.844,206.36,9.09,208.025z M17.096,194.062c3.091,0,5.76,1.773,7.091,4.345
		c-2.298,1.44-4.178,3.488-5.413,5.918c-0.241-0.016-0.48-0.036-0.725-0.036c-2.764,0-5.274,1.045-7.189,2.745
		c-1.097-1.366-1.764-3.089-1.764-4.973C9.096,197.65,12.685,194.062,17.096,194.062z"/>
</g>
<g>
	<rect x="104.926" y="212.588" width="50" height="2"/>
	<rect x="108.926" y="218.588" width="44" height="2"/>
	<rect x="114.926" y="223.588" width="30" height="2"/>
	<rect x="106.926" y="206.588" width="46" height="2"/>
	<path d="M108.568,204.588h0.037h1.884h1.055c1.472-1.087,3.283-1.737,5.249-1.737c0.15,0,0.299,0.012,0.447,0.022l0.148,0.01
		l1.314,0.085l0.597-1.175c2.225-4.372,6.644-7.089,11.532-7.089c5.945,0,11.168,4.139,12.563,9.884h2.043v-0.084
		c-1.444-6.742-7.433-11.8-14.605-11.8c-1.799,0-3.521,0.32-5.117,0.903c-0.945-5.111-5.402-8.987-10.789-8.987
		c-0.413,0-0.819,0.027-1.222,0.071c0.744,1.112,1.179,2.448,1.179,3.886c0,3.865-3.134,7-7,7c-1.438,0-2.773-0.435-3.886-1.179
		c-0.044,0.401-0.071,0.809-0.071,1.222C103.926,199.324,105.762,202.595,108.568,204.588z M107.883,197.577c4.963,0,9-4.037,9-9
		c0-0.603-0.06-1.198-0.177-1.78c3.735,0.753,6.633,3.828,7.134,7.647c-2.712,1.443-4.927,3.699-6.322,6.442
		c-0.241-0.016-0.48-0.036-0.725-0.036c-2.534,0-4.855,0.879-6.701,2.335c-2.02-1.293-3.5-3.356-3.989-5.785
		C106.685,197.518,107.28,197.577,107.883,197.577z"/>
</g>
<g>
	<path d="M236.817,215.602h-19.474l-0.578-0.003c-5.485-0.027-9.948-4.513-9.948-9.998c0-5.514,4.485-10,9.999-10
		c0.175,0,0.347,0.014,0.519,0.025l0.149,0.01l1.316,0.088l0.598-1.176c2.493-4.899,7.443-7.942,12.92-7.942
		c6.79,0,12.75,4.814,14.171,11.448l0.318,1.482l1.514,0.095c1.822,0.113,3.463,0.845,4.746,1.971h2.732
		c-1.707-2.262-4.348-3.78-7.354-3.967c-1.596-7.445-8.207-13.029-16.127-13.029c-6.423,0-11.977,3.678-14.702,9.035
		c-0.266-0.018-0.53-0.04-0.8-0.04c-6.627,0-11.999,5.372-11.999,12c0,6.607,5.34,11.965,11.938,11.998v0.003h20.062
		c2.205,0,4,1.794,4,4s-1.795,4-4,4v2c3.314,0,6-2.686,6-6C242.817,218.288,240.132,215.602,236.817,215.602z"/>
	<path d="M240.817,211.602h-15.988v2h15.988c3.314,0,6-2.687,6-6c0-3.314-2.686-6-6-6v2c2.205,0,4,1.794,4,4
		S243.022,211.602,240.817,211.602z"/>
	<path d="M253.817,205.602c1.654,0,3,1.346,3,3s-1.346,3-3,3c-0.043,0-0.083-0.011-0.126-0.013h-4.862
		c0.003,0.005,0.009,0.008,0.012,0.013h-0.023v2h5.5v-0.051c2.523-0.254,4.5-2.358,4.5-4.949c0-2.762-2.238-5-5-5V205.602z"/>
	<path d="M257.817,215.602h-13v2h9.022c-0.004,0.005-0.008,0.008-0.011,0.013h3.862c0.043-0.002,0.083-0.013,0.126-0.013
		c1.654,0,3,1.346,3,3s-1.346,3-3,3v2c2.762,0,5-2.238,5-5S260.579,215.602,257.817,215.602z"/>
	<rect x="218.817" y="211.602" width="4" height="2"/>
</g>
<path d="M29.256-183.502c6.95,1.305,12.226,7.419,12.226,14.742c0,8.272-6.729,15.002-15,15.002c-6.79,0-12.531-4.49-14.366-10.728
	c1.398,0.461,2.867,0.698,4.366,0.698c7.72,0,14-6.281,14-14.001C30.481-179.772,30.058-181.717,29.256-183.502 M26.481-185.759
	c-0.338,0-0.668,0.031-1,0.051c1.861,2.113,3,4.881,3,7.92c0,6.627-5.372,12.001-12,12.001c-2.599,0-4.998-0.835-6.963-2.239
	c0.387,9.047,7.821,16.269,16.963,16.269c9.39,0,17-7.612,17-17.002S35.871-185.759,26.481-185.759L26.481-185.759z"/>
<g>
	<path d="M-76.914-180.764c-7.18,0-13,5.819-13,12.999c0,7.181,5.82,13.002,13,13.002s13-5.821,13-13.002
		C-63.914-174.944-69.734-180.764-76.914-180.764z M-76.914-156.763c-6.065,0-11-4.936-11-11.002c0-6.064,4.935-10.999,11-10.999
		s11,4.935,11,10.999C-65.914-161.698-70.849-156.763-76.914-156.763z"/>
	<rect x="-77.921" y="-193.758" width="2" height="10"/>
	<rect x="-77.921" y="-151.758" width="2" height="10"/>
	<rect x="-102.914" y="-168.758" width="9.993" height="2"/>
	<rect x="-60.921" y="-168.758" width="10.007" height="2"/>
	<rect x="-63.221" y="-187.672" transform="matrix(0.7071 0.7071 -0.7071 0.7071 -147.248 -9.4464)" width="2" height="10.409"/>
	<rect x="-92.63" y="-158.263" transform="matrix(-0.7071 -0.7071 0.7071 -0.7071 -48.1936 -326.0786)" width="2" height="10.41"/>
	<rect x="-96.83" y="-183.462" transform="matrix(0.7071 0.7071 -0.7071 0.7071 -155.8569 11.347)" width="10.409" height="2"/>
	<rect x="-67.422" y="-154.053" transform="matrix(-0.7072 -0.7071 0.7071 -0.7072 2.0042 -305.2764)" width="10.41" height="2"/>
</g>
<g>
	<rect x="321.252" y="177.104" width="2" height="7.973"/>
	<rect x="302.279" y="196.09" width="7.973" height="2"/>
	<rect x="307.005" y="184.871" transform="matrix(0.7071 0.7071 -0.7071 0.7071 222.5182 -165.4643)" width="7.974" height="2"/>
	<rect x="332.514" y="181.889" transform="matrix(0.7071 0.7071 -0.7071 0.7071 229.1174 -181.3882)" width="2" height="7.972"/>
	<path d="M336.279,219.104l0.005-0.007h-12.536l-0.594-0.003c-4.864-0.024-8.822-4.001-8.822-8.865c0-4.89,3.978-8.868,8.867-8.868
		c0.15,0,0.299,0.012,0.447,0.021l0.148,0.011l1.314,0.085l0.597-1.174c2.225-4.373,6.644-7.09,11.532-7.09
		c5.916,0,11.114,4.099,12.54,9.8h2.065c-1.444-6.742-7.433-11.8-14.605-11.8c-2.185,0-4.258,0.47-6.126,1.313
		c-1.667-3.202-5.007-5.394-8.866-5.394c-5.522,0-10,4.477-10,9.999c0,2.46,0.899,4.702,2.373,6.442
		c-1.429,1.84-2.287,4.144-2.287,6.653c0,5.983,4.836,10.836,10.813,10.865v0.003h13.135v0.007c2.205,0,4,1.794,4,4s-1.795,4-4,4v2
		c3.314,0,6-2.686,6-6C342.279,221.79,339.594,219.104,336.279,219.104z M322.246,189.134c3.091,0,5.76,1.773,7.091,4.345
		c-2.298,1.439-4.178,3.488-5.413,5.918c-0.241-0.016-0.48-0.036-0.725-0.036c-2.766,0-5.282,1.042-7.2,2.743
		c-1.092-1.367-1.753-3.09-1.753-4.971C314.246,192.723,317.835,189.134,322.246,189.134z"/>
	<path d="M340.279,215.104h-9.988v2h9.988c3.314,0,6-2.687,6-6c0-3.314-2.686-6-6-6v2c2.205,0,4,1.794,4,4
		S342.484,215.104,340.279,215.104z"/>
	<path d="M348.303,215.104h-0.023v2h5.5v-0.051c2.523-0.254,4.5-2.358,4.5-4.949c0-2.762-2.238-5-5-5v2c1.654,0,3,1.346,3,3
		s-1.346,3-3,3c-0.043,0-0.083-0.011-0.126-0.013h-4.862C348.294,215.096,348.3,215.1,348.303,215.104z"/>
	<path d="M357.279,219.104h-13v2h9.022c-0.004,0.004-0.008,0.008-0.011,0.013h3.862c0.043-0.002,0.083-0.013,0.126-0.013
		c1.654,0,3,1.346,3,3s-1.346,3-3,3v2c2.762,0,5-2.238,5-5S360.041,219.104,357.279,219.104z"/>
	<rect x="324.279" y="215.104" width="4" height="2"/>
</g>
<g>
	<path d="M436.241,217.098l0.005-0.007H423.71l-0.594-0.003c-4.864-0.024-8.822-4.001-8.822-8.865c0-4.89,3.978-8.868,8.867-8.868
		c0.15,0,0.299,0.012,0.447,0.021l0.148,0.011l1.314,0.085l0.597-1.174c2.225-4.373,6.644-7.09,11.532-7.09
		c5.916,0,11.114,4.099,12.54,9.8h2.065c-1.444-6.742-7.433-11.8-14.605-11.8c-1.806,0-3.536,0.322-5.138,0.91
		c-0.938-5.123-5.4-9.01-10.794-9.01c-0.413,0-0.819,0.027-1.222,0.071c0.744,1.112,1.179,2.448,1.179,3.886c0,3.865-3.134,7-7,7
		c-1.438,0-2.773-0.435-3.886-1.179c-0.044,0.401-0.071,0.809-0.071,1.222c0,3.725,1.858,7.009,4.69,8.998
		c-1.655,1.907-2.665,4.392-2.665,7.116c0,5.983,4.836,10.836,10.813,10.865v0.003h13.135v0.007c2.205,0,4,1.794,4,4s-1.795,4-4,4v2
		c3.314,0,6-2.686,6-6C442.241,219.784,439.556,217.098,436.241,217.098z M412.445,193.889c0.582,0.117,1.178,0.177,1.78,0.177
		c4.963,0,9-4.037,9-9c0-0.603-0.06-1.198-0.177-1.78c3.744,0.755,6.646,3.842,7.138,7.674c-2.702,1.444-4.909,3.696-6.301,6.432
		c-0.241-0.016-0.48-0.036-0.725-0.036c-2.535,0-4.861,0.875-6.71,2.33C414.423,198.393,412.937,196.324,412.445,193.889z"/>
	<path d="M440.241,213.098h-9.988v2h9.988c3.314,0,6-2.687,6-6c0-3.314-2.686-6-6-6v2c2.205,0,4,1.794,4,4
		S442.446,213.098,440.241,213.098z"/>
	<path d="M448.265,213.098h-0.023v2h5.5v-0.051c2.523-0.254,4.5-2.358,4.5-4.949c0-2.762-2.238-5-5-5v2c1.654,0,3,1.346,3,3
		s-1.346,3-3,3c-0.043,0-0.083-0.011-0.126-0.013h-4.862C448.256,213.09,448.262,213.094,448.265,213.098z"/>
	<path d="M457.241,217.098h-13v2h9.022c-0.004,0.004-0.008,0.008-0.011,0.013h3.862c0.043-0.002,0.083-0.013,0.126-0.013
		c1.654,0,3,1.346,3,3s-1.346,3-3,3v2c2.762,0,5-2.238,5-5S460.003,217.098,457.241,217.098z"/>
	<rect x="424.241" y="213.098" width="4" height="2"/>
</g>
<g>
	<rect x="537.134" y="179.666" width="2" height="10"/>
	<rect x="512.141" y="204.666" width="9.993" height="2"/>
	<rect x="551.834" y="185.752" transform="matrix(0.7071 0.7071 -0.7071 0.7071 296.9479 -334.9824)" width="2" height="10.409"/>
	<rect x="518.225" y="189.962" transform="matrix(0.7071 0.7071 -0.7071 0.7071 288.339 -314.189)" width="10.409" height="2"/>
	<path d="M542.134,219.666h-24v2h24c2.205,0,4,1.794,4,4s-1.795,4-4,4v2c3.314,0,6-2.686,6-6
		C548.134,222.353,545.448,219.666,542.134,219.666z"/>
	<path d="M554.157,215.666h-0.023v2h5.5v-0.051c2.523-0.254,4.5-2.358,4.5-4.949c0-2.762-2.238-5-5-5v2c1.654,0,3,1.346,3,3
		s-1.346,3-3,3c-0.043,0-0.083-0.011-0.126-0.013h-4.862C554.148,215.658,554.154,215.662,554.157,215.666z"/>
	<path d="M563.134,219.666h-13v2h9.022c-0.004,0.004-0.008,0.008-0.011,0.013h3.862c0.043-0.002,0.083-0.013,0.126-0.013
		c1.654,0,3,1.346,3,3s-1.346,3-3,3v2c2.762,0,5-2.238,5-5S565.896,219.666,563.134,219.666z"/>
	<path d="M529.843,215.666h-11.709v2h12.012h0.822h15.166c3.314,0,6-2.687,6-6c0-3.314-2.686-6-6-6v2c2.205,0,4,1.794,4,4
		s-1.795,4-4,4h-12.538c-3.802-1.734-6.455-5.563-6.455-10.007c0-6.064,4.935-10.999,11-10.999c5.384,0,9.868,3.891,10.81,9.006
		h2.021c-0.961-6.23-6.331-11.006-12.831-11.006c-7.18,0-13,5.819-13,12.999C525.141,209.685,526.971,213.281,529.843,215.666z"/>
</g>
<g>
	<path d="M642.36,213.109h-24v2h24c2.205,0,4,1.794,4,4s-1.795,4-4,4v2c3.314,0,6-2.686,6-6
		C648.36,215.796,645.675,213.109,642.36,213.109z"/>
	<path d="M659.86,211.109v-0.051c2.523-0.254,4.5-2.358,4.5-4.949c0-2.762-2.238-5-5-5v2c1.654,0,3,1.346,3,3s-1.346,3-3,3
		c-0.043,0-0.083-0.011-0.126-0.013h-4.862c0.004,0.005,0.009,0.009,0.012,0.013h-0.023v2H659.86z"/>
	<path d="M663.36,213.109h-13v2h9.022c-0.003,0.004-0.007,0.008-0.011,0.013h3.862c0.043-0.002,0.083-0.013,0.126-0.013
		c1.654,0,3,1.346,3,3s-1.346,3-3,3v2c2.762,0,5-2.238,5-5S666.122,213.109,663.36,213.109z"/>
	<path d="M631.194,211.109h15.166c3.314,0,6-2.687,6-6c0-3.314-2.686-6-6-6v2c2.205,0,4,1.794,4,4s-1.795,4-4,4h-12.586
		c-2.596-1.188-4.658-3.339-5.69-6.034c0.849,0.204,1.724,0.309,2.612,0.309c6.168,0,11.187-5.019,11.187-11.188
		c0-1.276-0.22-2.532-0.64-3.717c4.046,1.102,7.168,4.459,7.937,8.63h2.018c-0.964-6.237-6.338-11.016-12.846-11.016
		c-0.259,0-0.511,0.024-0.766,0.039c1.425,1.618,2.297,3.737,2.297,6.063c0,5.072-4.112,9.188-9.187,9.188
		c-1.988,0-3.826-0.641-5.33-1.715c0.162,3.801,1.962,7.165,4.699,9.44H618.36v2h12.012H631.194z"/>
</g>
<g>
	<path d="M-77.421,298.303h-20c-1.103,0-2-0.897-2-2s0.897-2,2-2h3.445h0.555v-2h-4c-2.209,0-4,1.791-4,4s1.791,4,4,4h20
		c2.205,0,4,1.794,4,4s-1.795,4-4,4v2c3.314,0,6-2.686,6-6C-71.421,300.989-74.106,298.303-77.421,298.303z"/>
	<path d="M-75.421,282.303v2c2.205,0,4,1.794,4,4s-1.795,4-4,4h-15.988v2h15.988c3.314,0,6-2.687,6-6
		C-69.421,284.988-72.106,282.303-75.421,282.303z"/>
	<path d="M-69.421,294.303v2h5.5v-0.051c2.523-0.254,4.5-2.358,4.5-4.949c0-2.762-2.238-5-5-5v2c1.654,0,3,1.346,3,3s-1.346,3-3,3
		c-0.043,0-0.083-0.011-0.126-0.013h-4.862c0.003,0.005,0.009,0.009,0.012,0.013H-69.421z"/>
	<path d="M-58.421,298.303h-11v2h7.022c-0.004,0.004-0.008,0.008-0.011,0.013h3.862c0.043-0.002,0.083-0.013,0.126-0.013
		c1.654,0,3,1.346,3,3s-1.346,3-3,3v2c2.762,0,5-2.238,5-5S-55.659,298.303-58.421,298.303z"/>
</g>
<path d="M458.871,284.649v-0.038h-38.376c-1.103,0-2-0.897-2-2s0.897-2,2-2h33c2.762,0,5-2.238,5-5s-2.238-5-5-5H415.62v0.008
	c-0.042-0.001-0.083-0.008-0.125-0.008c-2.762,0-5,2.238-5,5s2.238,5,5,5v-2c-1.654,0-3-1.346-3-3s1.346-3,3-3h0.125h3.853h34.022
	c1.654,0,3,1.346,3,3s-1.346,3-3,3h-33c-2.209,0-4,1.791-4,4s1.791,4,4,4h38c1.103,0,2,0.897,2,2s-0.897,2-2,2h-32
	c-2.209,0-4,1.791-4,4s1.791,4,4,4h22c1.103,0,2,0.897,2,2s-0.897,2-2,2h-24.01v0.001c-2.204,0.006-3.99,1.793-3.99,3.999
	s1.786,3.993,3.99,3.999v0.001h12.01c1.103,0,2,0.897,2,2s-0.897,2-2,2h-2c-2.209,0-4,1.791-4,4s1.791,4,4,4v-2
	c-1.103,0-2-0.897-2-2s0.897-2,2-2h2c2.209,0,4-1.791,4-4s-1.791-4-4-4h-12c-1.103,0-2-0.897-2-2s0.897-2,2-2h24
	c2.209,0,4-1.791,4-4c0-2.152-1.704-3.895-3.834-3.983v-0.017h-22.166c-1.103,0-2-0.897-2-2s0.897-2,2-2h32c2.209,0,4-1.791,4-4
	C462.495,286.531,460.901,284.842,458.871,284.649z"/>
<path d="M644.286,275.327v-2.024h-2v2.024c-13.01,0.513-23.462,10.965-23.975,23.976h1.674c1.14-1.222,2.748-2,4.551-2
	c2.26,0,4.233,1.203,5.331,3h1.838c1.098-1.797,3.071-3,5.331-3c2.204,0,4.137,1.144,5.25,2.866v15.134c0,2.21,1.791,4,4,4
	s4-1.79,4-4h-2c0,1.103-0.897,2-2,2s-2-0.897-2-2v-15.134c1.113-1.723,3.046-2.866,5.25-2.866c2.26,0,4.233,1.203,5.331,3h1.838
	c1.098-1.797,3.071-3,5.331-3c1.803,0,3.411,0.778,4.551,2h1.674C667.748,286.292,657.296,275.84,644.286,275.327z M662.036,295.303
	c-2.496,0-4.736,1.114-6.25,2.87c-1.514-1.756-3.754-2.87-6.25-2.87s-4.736,1.114-6.25,2.87c-1.514-1.756-3.754-2.87-6.25-2.87
	s-4.736,1.114-6.25,2.87c-1.514-1.756-3.755-2.87-6.25-2.87c-1.402,0-2.731,0.351-3.897,0.975
	c1.909-10.769,11.339-18.975,22.647-18.975s20.738,8.206,22.647,18.975C664.768,295.653,663.438,295.303,662.036,295.303z"/>
<g>
	<path d="M238.991,399.615V382.51c0-2.762-2.238-5-5-5s-5,2.238-5,5v17.105c-1.236,1.263-2,2.988-2,4.895c0,3.866,3.134,7,7,7
		s7-3.134,7-7C240.991,402.604,240.228,400.878,238.991,399.615z M233.991,409.51c-2.757,0-5-2.243-5-5
		c0-1.313,0.508-2.554,1.429-3.495l0.571-0.583v-0.816V382.51c0-1.654,1.346-3,3-3s3,1.346,3,3v17.105v0.816l0.571,0.583
		c0.921,0.941,1.429,2.183,1.429,3.495C238.991,407.267,236.748,409.51,233.991,409.51z"/>
	<path d="M234.991,401.686V386.51h-2v15.176c-1.167,0.413-2.008,1.516-2.008,2.824c0,1.662,1.347,3.008,3.008,3.008
		c1.662,0,3.008-1.346,3.008-3.008C236.999,403.201,236.159,402.099,234.991,401.686z M233.991,405.518
		c-0.556,0-1.008-0.452-1.008-1.008s0.452-1.008,1.008-1.008s1.008,0.452,1.008,1.008S234.547,405.518,233.991,405.518z"/>
</g>
<g>
	<path d="M338.779,399.615V382.51c0-2.762-2.238-5-5-5s-5,2.238-5,5v17.105c-1.236,1.263-2,2.988-2,4.895c0,3.866,3.134,7,7,7
		s7-3.134,7-7C340.779,402.604,340.016,400.878,338.779,399.615z M333.779,409.51c-2.757,0-5-2.243-5-5
		c0-1.313,0.508-2.554,1.429-3.495l0.571-0.583v-0.816V382.51c0-1.654,1.346-3,3-3s3,1.346,3,3v17.105v0.816l0.571,0.583
		c0.921,0.941,1.429,2.183,1.429,3.495C338.779,407.267,336.536,409.51,333.779,409.51z"/>
	<path d="M334.779,401.686V381.51h-2v20.176c-1.167,0.413-2.008,1.516-2.008,2.824c0,1.662,1.347,3.008,3.008,3.008
		c1.662,0,3.008-1.346,3.008-3.008C336.787,403.201,335.947,402.099,334.779,401.686z M333.779,405.518
		c-0.556,0-1.008-0.452-1.008-1.008s0.452-1.008,1.008-1.008s1.008,0.452,1.008,1.008S334.335,405.518,333.779,405.518z"/>
</g>
<g>
	<path d="M135.882,399.615V382.51c0-2.762-2.238-5-5-5s-5,2.238-5,5v17.105c-1.236,1.263-2,2.988-2,4.895c0,3.866,3.134,7,7,7
		s7-3.134,7-7C137.882,402.604,137.118,400.878,135.882,399.615z M130.882,409.51c-2.757,0-5-2.243-5-5
		c0-1.313,0.508-2.554,1.429-3.495l0.571-0.583v-0.816V382.51c0-1.654,1.346-3,3-3s3,1.346,3,3v17.105v0.816l0.571,0.583
		c0.921,0.941,1.429,2.183,1.429,3.495C135.882,407.267,133.639,409.51,130.882,409.51z"/>
	<path d="M131.882,401.686V391.51h-2v10.176c-1.167,0.413-2.008,1.516-2.008,2.824c0,1.662,1.347,3.008,3.008,3.008
		c1.662,0,3.008-1.346,3.008-3.008C133.89,403.201,133.05,402.099,131.882,401.686z M130.882,405.518
		c-0.556,0-1.008-0.452-1.008-1.008s0.452-1.008,1.008-1.008s1.008,0.452,1.008,1.008S131.438,405.518,130.882,405.518z"/>
</g>
<g>
	<path d="M32.236,399.615V382.51c0-2.762-2.238-5-5-5s-5,2.238-5,5v17.105c-1.236,1.263-2,2.988-2,4.895c0,3.866,3.134,7,7,7
		s7-3.134,7-7C34.236,402.604,33.473,400.878,32.236,399.615z M27.236,409.51c-2.757,0-5-2.243-5-5c0-1.313,0.508-2.554,1.429-3.495
		l0.571-0.583v-0.816V382.51c0-1.654,1.346-3,3-3s3,1.346,3,3v17.105v0.816l0.571,0.583c0.921,0.941,1.429,2.183,1.429,3.495
		C32.236,407.267,29.993,409.51,27.236,409.51z"/>
	<path d="M28.236,401.686v-5.176h-2v5.176c-1.167,0.413-2.008,1.516-2.008,2.824c0,1.662,1.347,3.008,3.008,3.008
		c1.662,0,3.008-1.346,3.008-3.008C30.244,403.201,29.404,402.099,28.236,401.686z M27.236,405.518
		c-0.556,0-1.008-0.452-1.008-1.008s0.452-1.008,1.008-1.008s1.008,0.452,1.008,1.008S27.792,405.518,27.236,405.518z"/>
</g>
<g>
	<path d="M-72.421,399.615V382.51c0-2.762-2.238-5-5-5s-5,2.238-5,5v17.105c-1.236,1.263-2,2.988-2,4.895c0,3.866,3.134,7,7,7
		s7-3.134,7-7C-70.421,402.604-71.185,400.878-72.421,399.615z M-77.421,409.51c-2.757,0-5-2.243-5-5
		c0-1.313,0.508-2.554,1.429-3.495l0.571-0.583v-0.816V382.51c0-1.654,1.346-3,3-3s3,1.346,3,3v17.105v0.816l0.571,0.583
		c0.921,0.941,1.429,2.183,1.429,3.495C-72.421,407.267-74.664,409.51-77.421,409.51z"/>
	<path d="M-77.421,401.502c-1.661,0-3.008,1.347-3.008,3.008c0,1.662,1.347,3.008,3.008,3.008c1.662,0,3.008-1.346,3.008-3.008
		C-74.413,402.849-75.759,401.502-77.421,401.502z M-77.421,405.518c-0.556,0-1.008-0.452-1.008-1.008s0.452-1.008,1.008-1.008
		s1.008,0.452,1.008,1.008S-76.865,405.518-77.421,405.518z"/>
</g>
<g>
	<path d="M427.504,379.822c-2.209,0-4,1.791-4,4c0,2.21,1.791,4,4,4c2.211,0,4-1.79,4-4
		C431.504,381.613,429.715,379.822,427.504,379.822z M427.504,385.822c-1.103,0-2-0.897-2-2s0.897-2,2-2s2,0.897,2,2
		S428.606,385.822,427.504,385.822z"/>
	<path d="M441.504,407.822c-4.41,0-7.999-3.589-7.999-7.999v-4.002c0-4.41,3.589-7.999,7.999-7.999c2.715,0,5.115,1.362,6.563,3.437
		l1.43-1.43c-1.824-2.429-4.72-4.007-7.992-4.007c-5.522,0-9.999,4.478-9.999,9.999v4.002c0,5.521,4.477,9.999,9.999,9.999
		c3.272,0,6.168-1.579,7.992-4.008l-1.43-1.43C446.62,406.459,444.22,407.822,441.504,407.822z"/>
</g>
<g>
	<path d="M532.2,379.701c-2.209,0-4,1.791-4,4c0,2.21,1.791,4,4,4c2.211,0,4-1.79,4-4C536.2,381.492,534.411,379.701,532.2,379.701z
		 M532.2,385.701c-1.103,0-2-0.897-2-2s0.897-2,2-2s2,0.897,2,2S533.303,385.701,532.2,385.701z"/>
	<polygon points="552.075,387.822 552.075,385.822 540.075,385.822 538.075,385.822 538.075,409.822 540.075,409.822 
		540.075,397.822 548.075,397.822 548.075,395.822 540.075,395.822 540.075,387.822 	"/>
</g>
<g>
	<path d="M643.286,383.514c-7.179,0-13,5.82-13,13s5.821,13,13,13s13-5.82,13-13S650.465,383.514,643.286,383.514z M643.286,407.514
		c-6.065,0-11-4.935-11-11s4.935-11,11-11s11,4.935,11,11S649.352,407.514,643.286,407.514z"/>
	<path d="M639.02,400.756l6.363-2.121l2.121-6.364l-6.363,2.122L639.02,400.756z M642.722,395.974l1.62-0.54l-0.54,1.62l-1.62,0.54
		L642.722,395.974z"/>
</g>
<g>
	<path d="M-77.421,474.031c-7.179,0-13,5.82-13,13s5.821,13,13,13s13-5.82,13-13S-70.242,474.031-77.421,474.031z M-77.421,498.031
		c-6.065,0-11-4.934-11-11c0-6.064,4.935-11,11-11s11,4.936,11,11C-66.421,493.098-71.355,498.031-77.421,498.031z"/>
	<path d="M-74.859,485.453l-2.586-4.422l-2.529,4.33h0.007c-0.299,0.467-0.478,1.018-0.478,1.613c0,1.656,1.343,3,3,3s3-1.344,3-3
		c0-0.559-0.162-1.074-0.428-1.521H-74.859z M-77.445,487.975c-0.552,0-1-0.449-1-1c0-0.188,0.055-0.367,0.162-0.535l0.864-1.355
		l0.826,1.391c0.098,0.164,0.147,0.332,0.147,0.5C-76.445,487.525-76.894,487.975-77.445,487.975z"/>
</g>
<g>
	<path d="M27.363,474.031c-7.18,0-13,5.82-13,13s5.82,13,13,13s13-5.82,13-13S34.543,474.031,27.363,474.031z M27.363,498.031
		c-6.065,0-11-4.934-11-11c0-6.064,4.935-11,11-11s11,4.936,11,11C38.363,493.098,33.429,498.031,27.363,498.031z"/>
	<path d="M28.952,484.451c-0.467-0.299-1.018-0.477-1.613-0.477c-1.658,0-3,1.342-3,3c0,1.656,1.342,3,3,3
		c0.557,0,1.072-0.162,1.52-0.428v0.014l4.422-2.586l-4.328-2.529V484.451z M27.837,487.826c-0.164,0.098-0.332,0.148-0.498,0.148
		c-0.552,0-1-0.449-1-1c0-0.553,0.448-1,1-1c0.188,0,0.368,0.053,0.535,0.16L29.229,487L27.837,487.826z"/>
</g>
<g>
	<path d="M130.414,474.031c-7.18,0-13,5.82-13,13s5.82,13,13,13s13-5.82,13-13S137.594,474.031,130.414,474.031z M130.414,498.031
		c-6.065,0-11-4.934-11-11c0-6.064,4.935-11,11-11s11,4.936,11,11C141.414,493.098,136.479,498.031,130.414,498.031z"/>
	<path d="M130.414,483.975c-1.656,0-3,1.342-3,3c0,0.557,0.162,1.072,0.428,1.52h-0.014l2.586,4.422l2.529-4.328h-0.006
		c0.299-0.467,0.477-1.018,0.477-1.613C133.414,485.316,132.072,483.975,130.414,483.975z M131.253,487.51l-0.865,1.355
		l-0.826-1.393c-0.098-0.164-0.147-0.332-0.147-0.498c0-0.553,0.448-1,1-1s1,0.447,1,1
		C131.414,487.162,131.36,487.342,131.253,487.51z"/>
</g>
<g>
	<path d="M233.828,474.031c-7.179,0-13,5.82-13,13s5.821,13,13,13s13-5.82,13-13S241.007,474.031,233.828,474.031z M233.828,498.031
		c-6.065,0-11-4.934-11-11c0-6.064,4.935-11,11-11s11,4.936,11,11C244.828,493.098,239.894,498.031,233.828,498.031z"/>
	<path d="M233.787,483.975c-0.557,0-1.072,0.162-1.52,0.428v-0.014l-4.422,2.586l4.328,2.529v-0.006
		c0.467,0.299,1.018,0.477,1.613,0.477c1.658,0,3-1.342,3-3C236.787,485.318,235.445,483.975,233.787,483.975z M233.787,487.975
		c-0.188,0-0.368-0.055-0.535-0.162l-1.355-0.865l1.393-0.826c0.164-0.098,0.332-0.146,0.498-0.146c0.552,0,1,0.447,1,1
		C234.787,487.525,234.339,487.975,233.787,487.975z"/>
</g>
<g>
	<rect x="25.677" y="277.303" width="2" height="10"/>
	<rect x="40.377" y="283.389" transform="matrix(0.7071 0.7071 -0.7071 0.7071 216.1851 55.2694)" width="2" height="10.409"/>
	<rect x="6.768" y="287.598" transform="matrix(0.7071 0.7071 -0.7071 0.7071 207.5763 76.0628)" width="10.409" height="2"/>
	<polygon points="20.009,306.557 21.423,307.971 25.677,303.717 25.677,313.303 27.677,313.303 27.677,303.717 31.93,307.971 
		33.344,306.557 26.677,299.889 	"/>
	<path d="M39.684,303.302c0-0.002,0-0.004,0-0.006c0-7.18-5.82-12.999-13-12.999s-13,5.819-13,12.999c0,0.002,0,0.004,0,0.006h-13v2
		h18v-2h-3c0-0.002,0-0.004,0-0.006c0-6.064,4.935-10.999,11-10.999s11,4.935,11,10.999c0,0.002,0,0.004,0,0.006h-3v2h17.995v-2
		H39.684z"/>
</g>
<g>
	<rect x="129.422" y="276.115" width="2" height="10"/>
	<rect x="144.122" y="282.201" transform="matrix(0.7071 0.7071 -0.7071 0.7071 245.7317 -18.4373)" width="2" height="10.409"/>
	<rect x="110.513" y="286.411" transform="matrix(0.7071 0.7071 -0.7071 0.7071 237.1228 2.3561)" width="10.409" height="2"/>
	<polygon points="131.422,310.662 131.422,300.115 129.422,300.115 129.422,310.662 125.168,306.408 123.754,307.822 
		130.422,314.49 137.089,307.822 135.675,306.408 	"/>
	<path d="M143.429,302.114c0-0.002,0-0.004,0-0.006c0-7.18-5.82-12.999-13-12.999s-13,5.819-13,12.999c0,0.002,0,0.004,0,0.006h-13
		v2h22v-2h-7c0-0.002,0-0.004,0-0.006c0-6.064,4.935-10.999,11-10.999s11,4.935,11,10.999c0,0.002,0,0.004,0,0.006h-7v2h21.995v-2
		H143.429z"/>
</g>
<g>
	<polygon points="333.779,310.128 333.779,295.745 331.779,295.745 331.779,310.128 327.525,305.874 326.111,307.288 
		332.779,313.956 339.446,307.288 338.032,305.874 	"/>
	<path d="M349.407,290.774c-1.596-7.445-8.207-13.029-16.127-13.029c-6.423,0-11.977,3.678-14.702,9.035
		c-0.266-0.018-0.53-0.04-0.8-0.04c-6.627,0-11.999,5.372-11.999,12c0,6.607,5.34,11.965,11.938,11.998v0.003h6.062v-2h-5.604
		l-0.447-0.003c-5.485-0.027-9.948-4.513-9.948-9.998c0-5.514,4.485-10,9.999-10c0.175,0,0.347,0.014,0.52,0.025l0.148,0.01
		l1.316,0.088l0.598-1.176c2.492-4.899,7.443-7.942,12.92-7.942c6.79,0,12.75,4.814,14.172,11.448l0.317,1.482l1.514,0.095
		c4.203,0.262,7.496,3.763,7.496,7.971c0,4.397-3.565,7.977-7.957,8c-0.05-0.003-0.093-0.005-0.137-0.007l-2.043,0.007h-4.863v2
		h6.863v-0.007c0.046,0.001,0.091,0.007,0.137,0.007c5.521,0,10-4.477,10-10C358.779,295.431,354.635,291.1,349.407,290.774z"/>
</g>
<g>
	<polygon points="239.764,306.933 241.178,305.519 234.511,298.851 227.843,305.519 229.257,306.933 233.511,302.679 
		233.511,315.265 235.511,315.265 235.511,302.679 	"/>
	<path d="M251.139,292.37c-1.596-7.445-8.207-13.029-16.127-13.029c-6.423,0-11.977,3.678-14.702,9.035
		c-0.266-0.018-0.53-0.04-0.8-0.04c-6.627,0-11.999,5.372-11.999,12c0,6.607,5.34,11.965,11.938,11.998v0.003h10.062v-2h-9.604
		l-0.447-0.003c-5.485-0.027-9.948-4.513-9.948-9.998c0-5.514,4.485-10,9.999-10c0.175,0,0.347,0.014,0.52,0.025l0.148,0.01
		l1.316,0.088l0.598-1.176c2.492-4.899,7.443-7.942,12.92-7.942c6.79,0,12.75,4.814,14.172,11.448l0.317,1.482l1.514,0.095
		c4.203,0.262,7.496,3.763,7.496,7.971c0,4.397-3.565,7.977-7.957,8c-0.05-0.003-0.093-0.005-0.137-0.007l-2.043,0.007h-8.863v2
		h10.863v-0.007c0.046,0.001,0.091,0.007,0.137,0.007c5.521,0,10-4.477,10-10C260.511,297.026,256.366,292.695,251.139,292.37z"/>
</g>
<g>
	<path d="M453.628,102.854c-1.596-7.445-8.207-13.029-16.127-13.029c-6.423,0-11.977,3.678-14.702,9.035
		c-0.266-0.018-0.53-0.04-0.8-0.04c-6.627,0-11.999,5.372-11.999,12c0,6.607,5.34,11.965,11.938,11.998v0.003H424v-2h-1.604
		l-0.447-0.003c-5.485-0.027-9.948-4.513-9.948-9.998c0-5.514,4.485-10,9.999-10c0.175,0,0.347,0.014,0.52,0.025l0.148,0.01
		l1.316,0.088l0.598-1.176c2.492-4.899,7.443-7.942,12.92-7.942c6.79,0,12.75,4.814,14.172,11.448l0.317,1.482l1.514,0.095
		c4.203,0.262,7.496,3.763,7.496,7.971c0,4.397-3.565,7.977-7.957,8c-0.05-0.003-0.093-0.005-0.137-0.007l-2.043,0.007H450v2h2.863
		v-0.007c0.046,0.001,0.091,0.007,0.137,0.007c5.521,0,10-4.477,10-10C463,107.511,458.855,103.18,453.628,102.854z"/>
	<polygon points="432,121.843 432,119.213 434.173,120.436 434.858,119.215 432.389,117.825 434.858,116.436 434.173,115.215 
		432,116.438 432,113.843 430,113.843 430,116.481 427.749,115.215 427.063,116.436 429.533,117.825 427.063,119.215 
		427.749,120.436 430,119.169 430,121.843 	"/>
	<polygon points="437.162,126.197 434.989,127.42 434.989,124.825 432.989,124.825 432.989,127.464 430.738,126.197 
		430.053,127.418 432.522,128.808 430.053,130.197 430.738,131.418 432.989,130.151 432.989,132.825 434.989,132.825 
		434.989,130.195 437.162,131.418 437.848,130.197 435.378,128.808 437.848,127.418 	"/>
	<polygon points="446.178,119.215 444.005,120.438 444.005,117.843 442.005,117.843 442.005,120.481 439.754,119.215 
		439.068,120.436 441.538,121.825 439.068,123.215 439.754,124.436 442.005,123.169 442.005,125.843 444.005,125.843 
		444.005,123.213 446.178,124.436 446.863,123.215 444.394,121.825 446.863,120.436 	"/>
</g>
<g>
	<rect x="529.14" y="84.803" width="2" height="7.973"/>
	<rect x="510.14" y="103.717" width="7.973" height="2"/>
	<rect x="514.813" y="92.45" transform="matrix(0.7071 0.7071 -0.7071 0.7071 218.0322 -339.476)" width="7.974" height="2"/>
	<rect x="540.321" y="89.468" transform="matrix(0.7071 0.7071 -0.7071 0.7071 224.6314 -355.3999)" width="2" height="7.972"/>
	<path d="M559.651,110.593c-1.444-6.742-7.433-11.8-14.605-11.8c-2.185,0-4.258,0.471-6.127,1.314
		c-1.666-3.203-5.006-5.395-8.865-5.395c-5.522,0-10,4.477-10,9.999c0,2.46,0.899,4.702,2.373,6.442
		c-1.428,1.84-2.287,4.144-2.287,6.653c0,5.983,4.836,10.836,10.813,10.865v0.003h1.188v-2h-0.721l-0.457-0.003
		c-4.864-0.023-8.822-4.001-8.822-8.865c0-4.89,3.978-8.868,8.867-8.868c0.15,0,0.299,0.012,0.447,0.022l0.148,0.01l1.314,0.085
		l0.597-1.175c2.225-4.372,6.644-7.089,11.532-7.089c6.062,0,11.382,4.298,12.649,10.219l0.318,1.483l1.514,0.094
		c3.708,0.23,6.612,3.319,6.612,7.03c0,3.878-3.144,7.035-7.017,7.057c-0.042-0.003-0.079-0.005-0.117-0.005l-1.866,0.005v2h1.819
		v-0.006c0.042,0.001,0.082,0.006,0.124,0.006c5.001,0,9.057-4.054,9.057-9.057C568.14,114.81,564.386,110.888,559.651,110.593z
		 M531.731,106.976c-0.241-0.016-0.48-0.036-0.725-0.036c-2.766,0-5.282,1.041-7.2,2.742c-1.092-1.365-1.753-3.089-1.753-4.97
		c0-4.41,3.589-7.999,8-7.999c3.092,0,5.76,1.773,7.091,4.346C534.847,102.498,532.968,104.546,531.731,106.976z"/>
	<polygon points="539.132,127.695 539.132,125.065 541.305,126.288 541.99,125.067 539.521,123.678 541.99,122.288 541.305,121.067 
		539.132,122.29 539.132,119.695 537.132,119.695 537.132,122.334 534.881,121.067 534.195,122.288 536.665,123.678 
		534.195,125.067 534.881,126.288 537.132,125.021 537.132,127.695 	"/>
	<polygon points="544.294,132.05 542.121,133.272 542.121,130.678 540.121,130.678 540.121,133.316 537.87,132.05 537.185,133.271 
		539.654,134.66 537.185,136.05 537.87,137.271 540.121,136.004 540.121,138.678 542.121,138.678 542.121,136.048 544.294,137.271 
		544.979,136.05 542.51,134.66 544.979,133.271 	"/>
	<polygon points="553.31,125.067 551.137,126.29 551.137,123.695 549.137,123.695 549.137,126.334 546.886,125.067 546.2,126.288 
		548.67,127.678 546.2,129.067 546.886,130.288 549.137,129.021 549.137,131.695 551.137,131.695 551.137,129.065 553.31,130.288 
		553.995,129.067 551.525,127.678 553.995,126.288 	"/>
</g>
<g>
	<path d="M659.84,107.59c-1.444-6.742-7.433-11.8-14.605-11.8c-1.799,0-3.522,0.32-5.118,0.904c-0.949-5.108-5.404-8.98-10.788-8.98
		c-0.413,0-0.819,0.027-1.222,0.071c0.744,1.112,1.179,2.448,1.179,3.886c0,3.865-3.134,7-7,7c-1.438,0-2.773-0.435-3.886-1.179
		c-0.044,0.401-0.071,0.809-0.071,1.222c0,3.713,1.845,6.987,4.661,8.979c-1.653,1.907-2.661,4.389-2.661,7.111
		c0,5.983,4.836,10.836,10.813,10.865v0.003h1.188v-2h-0.721l-0.457-0.003c-4.864-0.023-8.822-4.001-8.822-8.865
		c0-4.89,3.978-8.868,8.867-8.868c0.15,0,0.299,0.012,0.447,0.022l0.148,0.01l1.314,0.085l0.597-1.175
		c2.225-4.372,6.644-7.089,11.532-7.089c6.062,0,11.382,4.298,12.649,10.219l0.318,1.483l1.514,0.094
		c3.708,0.23,6.612,3.319,6.612,7.03c0,3.878-3.144,7.035-7.017,7.057c-0.042-0.003-0.079-0.005-0.117-0.005l-1.866,0.005v2h1.819
		v-0.006c0.042,0.001,0.082,0.006,0.124,0.006c5.001,0,9.057-4.054,9.057-9.057C668.328,111.807,664.574,107.885,659.84,107.59z
		 M631.92,103.973c-0.241-0.016-0.48-0.036-0.725-0.036c-2.537,0-4.865,0.877-6.715,2.334c-2.012-1.294-3.486-3.354-3.976-5.776
		c0.582,0.117,1.178,0.177,1.78,0.177c4.963,0,9-4.037,9-9c0-0.603-0.06-1.198-0.177-1.78c3.733,0.753,6.629,3.824,7.134,7.64
		C635.529,98.975,633.314,101.229,631.92,103.973z"/>
	<polygon points="639.365,124.692 639.365,122.063 641.538,123.285 642.224,122.064 639.754,120.675 642.224,119.285 
		641.538,118.064 639.365,119.287 639.365,116.692 637.365,116.692 637.365,119.331 635.114,118.064 634.429,119.285 
		636.898,120.675 634.429,122.064 635.114,123.285 637.365,122.019 637.365,124.692 	"/>
	<polygon points="644.527,129.047 642.354,130.27 642.354,127.675 640.354,127.675 640.354,130.313 638.104,129.047 
		637.418,130.268 639.888,131.657 637.418,133.047 638.104,134.268 640.354,133.001 640.354,135.675 642.354,135.675 
		642.354,133.045 644.527,134.268 645.213,133.047 642.743,131.657 645.213,130.268 	"/>
	<polygon points="653.543,122.064 651.37,123.287 651.37,120.692 649.37,120.692 649.37,123.331 647.119,122.064 646.434,123.285 
		648.903,124.675 646.434,126.064 647.119,127.285 649.37,126.019 649.37,128.692 651.37,128.692 651.37,126.063 653.543,127.285 
		654.229,126.064 651.759,124.675 654.229,123.285 	"/>
</g>
<rect x="43.481" y="-460.16" fill="none" width="472.974" height="180.918"/>
<text transform="matrix(1 0 0 1 223.1187 -388.7612)"><tspan x="0" y="0" font-family="'HelveticaNeueLTStd-Th'" font-size="100" letter-spacing="2">60</tspan><tspan x="-99.268" y="60" font-family="'HelveticaNeueLTStd-Lt'" font-size="48" letter-spacing="1">Weather Icons</tspan><tspan x="-3.726" y="104" font-family="'HelveticaNeueLTStd-Lt'" font-size="24">IOS 7 Style</tspan></text>
</svg>
