<?xml version="1.0" encoding="utf-8"?>
<!-- Generator: Adobe Illustrator 16.0.0, SVG Export Plug-In . SVG Version: 6.00 Build 0)  -->
<!DOCTYPE svg PUBLIC "-//W3C//DTD SVG 1.1//EN" "http://www.w3.org/Graphics/SVG/1.1/DTD/svg11.dtd">
<svg version="1.1" id="Layer_1" xmlns="http://www.w3.org/2000/svg" xmlns:xlink="http://www.w3.org/1999/xlink" x="0px" y="0px"
	 width="50px" height="47.966px" viewBox="0 0 50 47.966" enable-background="new 0 0 50 47.966" xml:space="preserve">
<path d="M335.939,281.487l-1.803,15.077l-0.268,2.237h2.254h6.896l-14.693,18.759l1.789-14.52l0.277-2.245h-2.262h-6.957
	L335.939,281.487 M338.794,274.463l-21.667,28.333h11.004l-2.671,21.667l21.667-27.661h-11.004L338.794,274.463L338.794,274.463z"/>
<path d="M-77.096-180.773c6.79,0,12.749,4.814,14.171,11.448l0.318,1.483l1.514,0.094c4.203,0.262,7.496,3.763,7.496,7.971
	c0,4.396-3.565,7.977-7.957,8c-0.046-0.003-0.091-0.006-0.137-0.007l-2.043-0.036v0.043H-92.07l-0.578-0.003
	c-5.485-0.027-9.948-4.513-9.948-9.998c0-5.514,4.485-10,9.999-10c0.175,0,0.347,0.014,0.519,0.025l0.149,0.011l1.316,0.087
	l0.598-1.176C-87.522-177.73-82.572-180.773-77.096-180.773 M-77.096-182.773c-6.423,0-11.977,3.678-14.702,9.035
	c-0.266-0.018-0.53-0.04-0.8-0.04c-6.627,0-11.999,5.372-11.999,12c0,6.607,5.34,11.965,11.938,11.998v0.003h30.925v-0.007
	c0.046,0.001,0.091,0.007,0.137,0.007c5.521,0,10-4.477,10-10c0-5.311-4.145-9.642-9.372-9.967
	C-62.564-177.189-69.176-182.773-77.096-182.773L-77.096-182.773z"/>
<g>
	<path d="M45.855-162.362c-1.444-6.742-7.433-11.8-14.605-11.8c-2.185,0-4.258,0.47-6.127,1.313
		c-1.666-3.202-5.006-5.394-8.865-5.394c-5.522,0-10,4.477-10,9.999c0,2.46,0.898,4.702,2.373,6.442
		c-1.428,1.84-2.287,4.144-2.287,6.653c0,5.983,4.836,10.836,10.813,10.865v0.003h28.007v-0.006
		c0.042,0.001,0.082,0.006,0.124,0.006c5.001,0,9.057-4.054,9.057-9.057C54.344-158.146,50.59-162.067,45.855-162.362z
		 M16.258-176.242c3.092,0,5.76,1.773,7.092,4.345c-2.299,1.44-4.178,3.488-5.414,5.918c-0.241-0.016-0.48-0.036-0.725-0.036
		c-2.766,0-5.281,1.041-7.2,2.743c-1.092-1.366-1.753-3.09-1.753-4.971C8.258-172.653,11.847-176.242,16.258-176.242z
		 M45.327-146.279c-0.038-0.003-0.077-0.004-0.117-0.005l-2.047-0.042v0.047H17.76l-0.594-0.003
		c-4.864-0.023-8.822-4.001-8.822-8.865c0-4.89,3.978-8.868,8.867-8.868c0.15,0,0.299,0.012,0.447,0.021l0.148,0.011l1.314,0.085
		l0.598-1.174c2.224-4.373,6.643-7.09,11.531-7.09c6.062,0,11.381,4.298,12.65,10.219l0.317,1.482l1.514,0.095
		c3.708,0.231,6.612,3.319,6.612,7.03C52.344-149.458,49.2-146.302,45.327-146.279z"/>
	<rect x="15.264" y="-188.272" width="2" height="7.973"/>
	<rect x="-3.709" y="-169.286" width="7.973" height="2"/>
	<rect x="1.017" y="-180.505" transform="matrix(0.7071 0.7071 -0.7071 0.7071 -125.4635 -56.1141)" width="7.974" height="2"/>
	<rect x="26.525" y="-183.487" transform="matrix(0.7071 0.7071 -0.7071 0.7071 -118.8643 -72.038)" width="2" height="7.972"/>
</g>
<path d="M141.599-166.39c-1.444-6.742-7.433-11.8-14.605-11.8c-1.799,0-3.521,0.32-5.118,0.904c-0.949-5.108-5.404-8.98-10.788-8.98
	c-0.413,0-0.819,0.027-1.222,0.071c0.744,1.112,1.179,2.448,1.179,3.886c0,3.865-3.134,7-7,7c-1.438,0-2.773-0.435-3.886-1.179
	c-0.044,0.401-0.071,0.809-0.071,1.222c0,3.712,1.845,6.987,4.661,8.979c-1.653,1.907-2.661,4.389-2.661,7.111
	c0,5.983,4.836,10.836,10.813,10.865v0.003h28.007v-0.006c0.042,0.001,0.082,0.006,0.124,0.006c5.001,0,9.057-4.054,9.057-9.057
	C150.087-162.173,146.333-166.095,141.599-166.39z M102.264-173.485c0.582,0.117,1.178,0.177,1.78,0.177c4.963,0,9-4.037,9-9
	c0-0.603-0.06-1.198-0.177-1.78c3.733,0.753,6.629,3.824,7.134,7.64c-2.713,1.444-4.928,3.699-6.322,6.442
	c-0.241-0.016-0.48-0.036-0.725-0.036c-2.537,0-4.865,0.876-6.715,2.334C104.228-169.003,102.753-171.063,102.264-173.485z
	 M141.07-150.307c-0.038-0.003-0.077-0.004-0.117-0.005l-2.047-0.042v0.047h-25.403l-0.594-0.003
	c-4.864-0.023-8.822-4.001-8.822-8.865c0-4.89,3.978-8.868,8.867-8.868c0.15,0,0.299,0.012,0.447,0.021l0.148,0.011l1.314,0.085
	l0.598-1.174c2.224-4.373,6.643-7.09,11.531-7.09c6.062,0,11.381,4.298,12.65,10.219l0.317,1.482l1.514,0.095
	c3.708,0.231,6.612,3.319,6.612,7.03C148.087-153.485,144.943-150.329,141.07-150.307z"/>
<g>
	<rect x="226.244" y="-157.767" width="2" height="7"/>
	<rect x="234.244" y="-161.767" width="2" height="7"/>
	<rect x="218.244" y="-161.767" width="2" height="7"/>
	<rect x="226.244" y="-147.767" width="2" height="7"/>
	<rect x="234.244" y="-151.767" width="2" height="7"/>
	<rect x="218.244" y="-151.767" width="2" height="7"/>
	<path d="M244.872-174.755c-1.596-7.445-8.207-13.029-16.127-13.029c-6.423,0-11.977,3.678-14.702,9.035
		c-0.266-0.018-0.53-0.04-0.8-0.04c-6.627,0-11.999,5.372-11.999,12c0,6.607,5.34,11.965,11.938,11.998v0.003h2.062v-2h-1.604
		l-0.447-0.003c-5.485-0.027-9.948-4.513-9.948-9.998c0-5.514,4.485-10,9.999-10c0.175,0,0.347,0.014,0.52,0.025l0.148,0.01
		l1.316,0.088l0.598-1.176c2.492-4.899,7.443-7.942,12.92-7.942c6.79,0,12.75,4.814,14.172,11.448l0.317,1.482l1.514,0.095
		c4.203,0.262,7.496,3.763,7.496,7.971c0,4.397-3.565,7.977-7.957,8c-0.05-0.003-0.093-0.005-0.137-0.007l-2.043,0.007h-2.863v2
		h4.863v-0.007c0.046,0.001,0.091,0.007,0.137,0.007c5.521,0,10-4.477,10-10C254.244-170.099,250.1-174.43,244.872-174.755z"/>
</g>
<g>
	<path d="M42.445-85.397c-1.596-7.445-8.207-13.029-16.127-13.029c-6.423,0-11.977,3.678-14.702,9.035
		c-0.266-0.018-0.53-0.04-0.8-0.04c-6.627,0-11.999,5.372-11.999,12c0,6.607,5.34,11.965,11.938,11.998v0.003h2.062v-2h-1.604
		l-0.447-0.003c-5.485-0.027-9.948-4.513-9.948-9.998c0-5.514,4.485-10,9.999-10c0.175,0,0.347,0.014,0.52,0.025l0.148,0.01
		l1.316,0.088l0.598-1.176c2.492-4.899,7.443-7.942,12.92-7.942c6.79,0,12.75,4.814,14.172,11.448l0.317,1.482l1.514,0.095
		c4.203,0.262,7.496,3.763,7.496,7.971c0,4.397-3.565,7.977-7.957,8c-0.05-0.003-0.093-0.005-0.137-0.007l-2.043,0.007h-2.863v2
		h4.863v-0.007c0.046,0.001,0.091,0.007,0.137,0.007c5.521,0,10-4.477,10-10C51.817-80.741,47.673-85.072,42.445-85.397z"/>
	<polygon points="23.817,-58.402 23.817,-56.462 23.817,-50.402 25.817,-50.402 25.817,-56.462 25.817,-58.402 25.817,-70.402 
		23.817,-70.402 	"/>
	<polygon points="31.817,-62.402 31.817,-60.649 31.817,-54.402 33.817,-54.402 33.817,-60.649 33.817,-62.402 33.817,-74.402 
		31.817,-74.402 	"/>
	<polygon points="15.817,-62.402 15.817,-60.337 15.817,-54.402 17.817,-54.402 17.817,-60.337 17.817,-62.402 17.817,-74.402 
		15.817,-74.402 	"/>
</g>
<g>
	<polygon points="338.095,-61.491 331.212,-71.321 329.574,-70.174 336.457,-60.344 337.569,-58.755 341.045,-53.791 
		342.684,-54.938 339.208,-59.902 	"/>
	<polygon points="346.097,-61.493 339.212,-71.321 337.574,-70.173 344.46,-60.345 345.465,-58.909 349.049,-53.794 350.688,-54.94 
		347.104,-60.057 	"/>
	<polygon points="330.095,-61.491 323.212,-71.321 321.574,-70.173 328.457,-60.344 329.642,-58.651 333.046,-53.79 
		334.684,-54.938 331.28,-59.799 	"/>
	<path d="M349.202-85.131c-1.596-7.445-8.207-13.029-16.127-13.029c-6.423,0-11.977,3.678-14.702,9.035
		c-0.266-0.018-0.53-0.04-0.8-0.04c-6.627,0-11.999,5.372-11.999,12c0,6.607,5.34,11.965,11.938,11.998v0.003h2.062v-2h-1.604
		l-0.447-0.003c-5.485-0.027-9.948-4.513-9.948-9.998c0-5.514,4.485-10,9.999-10c0.175,0,0.347,0.014,0.52,0.025l0.148,0.01
		l1.316,0.088l0.598-1.176c2.492-4.899,7.443-7.942,12.92-7.942c6.79,0,12.75,4.814,14.172,11.448l0.317,1.482l1.514,0.095
		c4.203,0.262,7.496,3.763,7.496,7.971c0,4.397-3.565,7.977-7.957,8c-0.05-0.003-0.093-0.005-0.137-0.007l-1.043,0.007h0.137v2
		h0.863v-0.007c0.046,0.001,0.091,0.007,0.137,0.007c5.521,0,10-4.477,10-10C358.574-80.475,354.43-84.806,349.202-85.131z"/>
</g>
<g>
	<rect x="320.9" y="-194.213" width="2" height="7.973"/>
	<rect x="301.9" y="-175.299" width="7.973" height="2"/>
	<rect x="306.573" y="-186.565" transform="matrix(0.7071 0.7071 -0.7071 0.7071 -40.2535 -273.9503)" width="7.974" height="2"/>
	<rect x="332.082" y="-189.547" transform="matrix(0.7071 0.7071 -0.7071 0.7071 -33.6543 -289.8743)" width="2" height="7.972"/>
	<rect x="334.9" y="-153.34" width="2" height="7"/>
	<rect x="342.9" y="-157.34" width="2" height="7"/>
	<rect x="326.9" y="-157.34" width="2" height="7"/>
	<rect x="334.9" y="-143.34" width="2" height="7"/>
	<rect x="342.9" y="-147.34" width="2" height="7"/>
	<rect x="326.9" y="-147.34" width="2" height="7"/>
	<path d="M351.412-168.423c-1.444-6.742-7.433-11.8-14.605-11.8c-2.185,0-4.258,0.47-6.126,1.313
		c-1.667-3.202-5.007-5.394-8.866-5.394c-5.522,0-10,4.477-10,9.999c0,2.46,0.899,4.702,2.373,6.442
		c-1.429,1.84-2.287,4.144-2.287,6.653c0,5.983,4.836,10.836,10.813,10.865v0.003h1.188v-2h-0.721l-0.457-0.003
		c-4.864-0.023-8.822-4.001-8.822-8.865c0-4.89,3.978-8.868,8.867-8.868c0.15,0,0.299,0.012,0.447,0.022l0.148,0.01l1.314,0.085
		l0.597-1.175c2.225-4.372,6.644-7.089,11.532-7.089c6.062,0,11.382,4.298,12.649,10.219l0.318,1.483l1.514,0.094
		c3.708,0.23,6.612,3.319,6.612,7.03c0,3.878-3.144,7.035-7.017,7.057c-0.042-0.003-0.079-0.005-0.117-0.005l-2.047,0.005H347.9v2
		h2.819v-0.006c0.042,0.001,0.082,0.006,0.124,0.006c5.001,0,9.057-4.054,9.057-9.057
		C359.9-164.206,356.146-168.128,351.412-168.423z M323.492-172.04c-0.241-0.016-0.48-0.036-0.725-0.036
		c-2.766,0-5.282,1.041-7.2,2.743c-1.092-1.366-1.753-3.09-1.753-4.971c0-4.41,3.589-7.999,8-7.999c3.091,0,5.76,1.773,7.091,4.345
		C326.607-176.518,324.728-174.47,323.492-172.04z"/>
</g>
<g>
	<rect x="435.317" y="-154.787" width="2" height="7"/>
	<rect x="443.317" y="-158.787" width="2" height="7"/>
	<rect x="427.317" y="-158.787" width="2" height="7"/>
	<rect x="435.317" y="-144.787" width="2" height="7"/>
	<rect x="443.317" y="-148.787" width="2" height="7"/>
	<rect x="427.317" y="-148.787" width="2" height="7"/>
	<path d="M451.829-169.87c-1.444-6.742-7.433-11.8-14.605-11.8c-1.799,0-3.522,0.32-5.118,0.904
		c-0.949-5.108-5.404-8.98-10.788-8.98c-0.413,0-0.819,0.027-1.222,0.071c0.744,1.112,1.179,2.448,1.179,3.886c0,3.865-3.134,7-7,7
		c-1.438,0-2.773-0.435-3.886-1.179c-0.044,0.401-0.071,0.809-0.071,1.222c0,3.712,1.845,6.987,4.661,8.979
		c-1.653,1.907-2.661,4.389-2.661,7.111c0,5.983,4.836,10.836,10.813,10.865v0.003h1.188v-2h-0.721l-0.457-0.003
		c-4.864-0.023-8.822-4.001-8.822-8.865c0-4.89,3.978-8.868,8.867-8.868c0.15,0,0.299,0.012,0.447,0.022l0.148,0.01l1.314,0.085
		l0.597-1.175c2.225-4.372,6.644-7.089,11.532-7.089c6.062,0,11.382,4.298,12.649,10.219l0.318,1.483l1.514,0.094
		c3.708,0.23,6.612,3.319,6.612,7.03c0,3.878-3.144,7.035-7.017,7.057c-0.042-0.003-0.079-0.005-0.117-0.005l-2.047,0.005h-0.819v2
		h2.819v-0.006c0.042,0.001,0.082,0.006,0.124,0.006c5.001,0,9.057-4.054,9.057-9.057
		C460.317-165.653,456.563-169.575,451.829-169.87z M423.909-173.487c-0.241-0.016-0.48-0.036-0.725-0.036
		c-2.537,0-4.865,0.876-6.715,2.334c-2.012-1.294-3.487-3.354-3.976-5.776c0.582,0.117,1.178,0.177,1.78,0.177c4.963,0,9-4.037,9-9
		c0-0.603-0.06-1.198-0.177-1.78c3.733,0.753,6.629,3.824,7.133,7.64C427.52-178.485,425.305-176.23,423.909-173.487z"/>
</g>
<g>
	<polygon points="128.087,-53.964 128.087,-52.023 128.087,-45.964 130.087,-45.964 130.087,-52.023 130.087,-53.964 
		130.087,-65.964 128.087,-65.964 	"/>
	<polygon points="136.087,-57.964 136.087,-56.211 136.087,-49.964 138.087,-49.964 138.087,-56.211 138.087,-57.964 
		138.087,-69.964 136.087,-69.964 	"/>
	<polygon points="120.087,-57.964 120.087,-55.898 120.087,-49.964 122.087,-49.964 122.087,-55.898 122.087,-57.964 
		122.087,-69.964 120.087,-69.964 	"/>
	<rect x="114.087" y="-104.866" width="2" height="7.973"/>
	<rect x="95.087" y="-85.952" width="7.973" height="2"/>
	<rect x="99.76" y="-97.219" transform="matrix(0.7071 0.7071 -0.7071 0.7071 -37.6501 -101.5421)" width="7.974" height="2"/>
	<rect x="125.269" y="-100.201" transform="matrix(0.7071 0.7071 -0.7071 0.7071 -31.051 -117.466)" width="2" height="7.972"/>
	<path d="M144.599-79.076c-1.444-6.742-7.433-11.8-14.605-11.8c-2.185,0-4.258,0.47-6.127,1.313
		c-1.666-3.202-5.006-5.394-8.865-5.394c-5.522,0-10,4.477-10,9.999c0,2.46,0.898,4.702,2.373,6.442
		c-1.428,1.84-2.287,4.144-2.287,6.653c0,5.983,4.836,10.836,10.813,10.865v0.003h1.188v-2h-0.721l-0.457-0.003
		c-4.864-0.023-8.822-4.001-8.822-8.865c0-4.89,3.978-8.868,8.867-8.868c0.15,0,0.299,0.012,0.447,0.022l0.148,0.01l1.314,0.085
		l0.597-1.175c2.225-4.372,6.644-7.089,11.532-7.089c6.062,0,11.382,4.298,12.649,10.219l0.318,1.483l1.514,0.094
		c3.708,0.23,6.612,3.319,6.612,7.03c0,3.878-3.144,7.035-7.017,7.057c-0.042-0.003-0.079-0.005-0.117-0.005l-2.047,0.005h-0.819v2
		h2.819v-0.006c0.042,0.001,0.082,0.006,0.124,0.006c5.001,0,9.057-4.054,9.057-9.057C153.087-74.859,149.333-78.781,144.599-79.076
		z M116.679-82.693c-0.241-0.016-0.48-0.036-0.725-0.036c-2.766,0-5.281,1.042-7.2,2.743c-1.092-1.367-1.753-3.09-1.753-4.971
		c0-4.41,3.589-7.999,8-7.999c3.092,0,5.76,1.773,7.092,4.345C119.794-87.172,117.915-85.123,116.679-82.693z"/>
</g>
<g>
	<polygon points="228.484,-56.48 228.484,-54.54 228.484,-48.48 230.484,-48.48 230.484,-54.54 230.484,-56.48 230.484,-68.48 
		228.484,-68.48 	"/>
	<polygon points="236.484,-60.48 236.484,-58.728 236.484,-52.48 238.484,-52.48 238.484,-58.728 238.484,-60.48 238.484,-72.48 
		236.484,-72.48 	"/>
	<polygon points="220.484,-60.48 220.484,-58.415 220.484,-52.48 222.484,-52.48 222.484,-58.415 222.484,-60.48 222.484,-72.48 
		220.484,-72.48 	"/>
	<path d="M244.996-81.593c-1.444-6.742-7.433-11.8-14.605-11.8c-1.799,0-3.521,0.32-5.118,0.904
		c-0.949-5.108-5.404-8.98-10.788-8.98c-0.413,0-0.819,0.027-1.222,0.071c0.744,1.112,1.179,2.448,1.179,3.886c0,3.865-3.134,7-7,7
		c-1.438,0-2.773-0.435-3.886-1.179c-0.044,0.401-0.071,0.809-0.071,1.222c0,3.712,1.845,6.987,4.661,8.979
		c-1.653,1.907-2.661,4.389-2.661,7.111c0,5.983,4.836,10.836,10.813,10.865v0.003h1.188v-2h-0.721l-0.457-0.003
		c-4.864-0.023-8.822-4.001-8.822-8.865c0-4.89,3.978-8.868,8.867-8.868c0.15,0,0.299,0.012,0.447,0.022l0.148,0.01l1.314,0.085
		l0.597-1.175c2.225-4.372,6.644-7.089,11.532-7.089c6.062,0,11.382,4.298,12.649,10.219l0.318,1.483l1.514,0.094
		c3.708,0.23,6.612,3.319,6.612,7.03c0,3.878-3.144,7.035-7.017,7.057c-0.042-0.003-0.079-0.005-0.117-0.005l-2.047,0.005h-0.819v2
		h2.819v-0.006c0.042,0.001,0.082,0.006,0.124,0.006c5.001,0,9.057-4.054,9.057-9.057C253.484-77.376,249.73-81.298,244.996-81.593z
		 M217.076-85.21c-0.241-0.016-0.48-0.036-0.725-0.036c-2.537,0-4.865,0.876-6.715,2.334c-2.012-1.294-3.486-3.354-3.976-5.776
		c0.582,0.117,1.178,0.177,1.78,0.177c4.963,0,9-4.037,9-9c0-0.603-0.06-1.198-0.177-1.78c3.733,0.753,6.629,3.824,7.134,7.641
		C220.686-90.208,218.471-87.952,217.076-85.21z"/>
</g>
<g>
	<polygon points="445.52,-55.536 438.637,-65.366 436.999,-64.219 443.882,-54.389 444.994,-52.8 448.47,-47.836 450.108,-48.982 
		446.633,-53.947 	"/>
	<polygon points="453.521,-55.538 446.637,-65.366 444.999,-64.218 451.885,-54.39 452.89,-52.954 456.474,-47.839 458.112,-48.985 
		454.528,-54.102 	"/>
	<polygon points="437.52,-55.536 430.637,-65.366 428.999,-64.218 435.882,-54.389 437.066,-52.696 440.471,-47.835 
		442.108,-48.982 438.705,-53.844 	"/>
	<rect x="424.999" y="-103.085" width="2" height="7.973"/>
	<rect x="405.999" y="-84.171" width="7.973" height="2"/>
	<rect x="410.672" y="-95.437" transform="matrix(0.7071 0.7071 -0.7071 0.7071 54.6735 -320.8684)" width="7.974" height="2"/>
	<rect x="436.181" y="-98.419" transform="matrix(0.7071 0.7071 -0.7071 0.7071 61.2726 -336.7924)" width="2" height="7.972"/>
	<path d="M455.511-77.295c-1.444-6.742-7.433-11.8-14.605-11.8c-2.185,0-4.258,0.47-6.126,1.313
		c-1.667-3.202-5.007-5.394-8.866-5.394c-5.522,0-10,4.477-10,9.999c0,2.46,0.899,4.702,2.373,6.442
		c-1.429,1.84-2.287,4.144-2.287,6.653c0,5.983,4.836,10.836,10.813,10.865v0.003h1.188v-2h-0.721l-0.457-0.003
		c-4.864-0.023-8.822-4.001-8.822-8.865c0-4.89,3.978-8.868,8.867-8.868c0.15,0,0.299,0.012,0.447,0.022l0.148,0.01l1.314,0.085
		l0.597-1.175c2.225-4.372,6.644-7.089,11.532-7.089c6.062,0,11.382,4.298,12.649,10.219l0.318,1.483l1.514,0.094
		c3.708,0.23,6.612,3.319,6.612,7.03c0,3.878-3.144,7.035-7.017,7.057c-0.042-0.003-0.079-0.005-0.117-0.005l-0.047,0.005h-0.819v2
		h0.819v-0.006c0.042,0.001,0.082,0.006,0.124,0.006c5.001,0,9.057-4.054,9.057-9.057C463.999-73.078,460.245-77,455.511-77.295z
		 M427.591-80.912c-0.241-0.016-0.48-0.036-0.725-0.036c-2.766,0-5.282,1.042-7.2,2.743c-1.092-1.367-1.753-3.09-1.753-4.971
		c0-4.41,3.589-7.999,8-7.999c3.091,0,5.76,1.773,7.091,4.345C430.706-85.391,428.826-83.342,427.591-80.912z"/>
</g>
<g>
	<polygon points="-277.911,40.949 -284.794,31.119 -286.432,32.267 -279.549,42.097 -278.437,43.686 -274.961,48.649 
		-273.322,47.503 -276.798,42.538 	"/>
	<polygon points="-269.909,40.947 -276.794,31.119 -278.432,32.268 -271.546,42.096 -270.541,43.531 -266.957,48.646 -265.318,47.5 
		-268.902,42.384 	"/>
	<polygon points="-285.911,40.949 -292.794,31.119 -294.432,32.268 -287.549,42.097 -286.364,43.789 -282.96,48.65 -281.322,47.503 
		-284.726,42.642 	"/>
	<path d="M-267.92,19.19c-1.444-6.742-7.433-11.8-14.605-11.8c-1.799,0-3.522,0.32-5.118,0.904c-0.949-5.108-5.404-8.98-10.788-8.98
		c-0.413,0-0.819,0.027-1.222,0.071c0.744,1.112,1.179,2.448,1.179,3.886c0,3.865-3.134,7-7,7c-1.438,0-2.773-0.435-3.886-1.179
		c-0.044,0.401-0.071,0.809-0.071,1.222c0,3.712,1.845,6.987,4.661,8.979c-1.653,1.907-2.661,4.389-2.661,7.111
		c0,5.983,4.836,10.836,10.813,10.865v0.003h1.188v-2h-0.721l-0.457-0.003c-4.864-0.023-8.822-4.001-8.822-8.865
		c0-4.89,3.978-8.868,8.867-8.868c0.15,0,0.299,0.012,0.447,0.022l0.148,0.01l1.314,0.085l0.597-1.175
		c2.225-4.372,6.644-7.089,11.532-7.089c6.062,0,11.382,4.298,12.649,10.219l0.318,1.483l1.514,0.094
		c3.708,0.23,6.612,3.319,6.612,7.03c0,3.878-3.144,7.035-7.017,7.057c-0.042-0.003-0.079-0.005-0.117-0.005l-0.047,0.005h-0.819v2
		h0.819v-0.006c0.042,0.001,0.082,0.006,0.124,0.006c5.001,0,9.057-4.054,9.057-9.057C-259.432,23.407-263.186,19.485-267.92,19.19z
		 M-295.84,15.573c-0.241-0.016-0.48-0.036-0.725-0.036c-2.537,0-4.865,0.876-6.715,2.334c-2.012-1.294-3.487-3.354-3.976-5.776
		c0.582,0.117,1.178,0.177,1.78,0.177c4.963,0,9-4.037,9-9c0-0.603-0.06-1.198-0.177-1.78c3.733,0.753,6.629,3.824,7.133,7.641
		C-292.229,10.575-294.444,12.831-295.84,15.573z"/>
</g>
<g>
	<rect x="-285.432" y="-62.897" width="2" height="4"/>
	<rect x="-277.432" y="-66.919" width="2" height="4.021"/>
	<rect x="-293.432" y="-66.919" width="2" height="4.021"/>
	<path d="M-266.804-82.886c-1.596-7.445-8.207-13.029-16.127-13.029c-6.423,0-11.977,3.678-14.702,9.035
		c-0.266-0.018-0.53-0.04-0.8-0.04c-6.627,0-11.999,5.372-11.999,12c0,6.607,5.34,11.965,11.938,11.998v0.003h2.062v-2h-1.604
		l-0.447-0.003c-5.485-0.027-9.948-4.513-9.948-9.998c0-5.514,4.485-10,9.999-10c0.175,0,0.347,0.014,0.52,0.025l0.148,0.01
		l1.316,0.088l0.598-1.176c2.492-4.899,7.443-7.942,12.92-7.942c6.79,0,12.75,4.814,14.172,11.448l0.317,1.482l1.514,0.095
		c4.203,0.262,7.496,3.763,7.496,7.971c0,4.397-3.565,7.977-7.957,8c-0.05-0.003-0.093-0.005-0.137-0.007l-2.043,0.007h-2.863v2
		h4.863v-0.007c0.046,0.001,0.091,0.007,0.137,0.007c5.521,0,10-4.477,10-10C-257.432-78.229-261.576-82.561-266.804-82.886z"/>
	<circle cx="-276.432" cy="-57.877" r="1.5"/>
	<circle cx="-284.432" cy="-53.908" r="1.5"/>
	<circle cx="-292.432" cy="-57.919" r="1.5"/>
</g>
<g>
	<rect x="-192.511" y="-102.352" width="2" height="7.973"/>
	<rect x="-211.511" y="-83.438" width="7.973" height="2"/>
	<rect x="-206.838" y="-94.704" transform="matrix(0.7071 0.7071 -0.7071 0.7071 -125.6724 115.9917)" width="7.974" height="2"/>
	<rect x="-181.329" y="-97.686" transform="matrix(0.7071 0.7071 -0.7071 0.7071 -119.0732 100.0678)" width="2" height="7.972"/>
	<path d="M-161.999-76.562c-1.444-6.742-7.433-11.8-14.605-11.8c-2.185,0-4.258,0.47-6.126,1.313
		c-1.667-3.202-5.007-5.394-8.866-5.394c-5.522,0-10,4.477-10,9.999c0,2.46,0.899,4.702,2.373,6.442
		c-1.429,1.84-2.287,4.144-2.287,6.653c0,5.983,4.836,10.836,10.813,10.865v0.003h1.188v-2h-0.721l-0.457-0.003
		c-4.864-0.023-8.822-4.001-8.822-8.865c0-4.89,3.978-8.868,8.867-8.868c0.15,0,0.299,0.012,0.447,0.022l0.148,0.01l1.314,0.085
		l0.597-1.175c2.225-4.372,6.644-7.089,11.532-7.089c6.062,0,11.382,4.298,12.649,10.219l0.318,1.483l1.514,0.094
		c3.708,0.23,6.612,3.319,6.612,7.03c0,3.878-3.144,7.035-7.017,7.057c-0.042-0.003-0.079-0.005-0.117-0.005l-2.047,0.005h-0.819v2
		h2.819v-0.006c0.042,0.001,0.082,0.006,0.124,0.006c5.001,0,9.057-4.054,9.057-9.057
		C-153.511-72.345-157.265-76.267-161.999-76.562z M-189.919-80.179c-0.241-0.016-0.48-0.036-0.725-0.036
		c-2.766,0-5.282,1.042-7.2,2.743c-1.092-1.367-1.753-3.09-1.753-4.971c0-4.41,3.589-7.999,8-7.999c3.091,0,5.76,1.773,7.091,4.345
		C-186.804-84.657-188.684-82.608-189.919-80.179z"/>
	<rect x="-178.511" y="-58.463" width="2" height="4"/>
	<rect x="-170.511" y="-62.484" width="2" height="4.021"/>
	<rect x="-186.511" y="-62.484" width="2" height="4.021"/>
	<circle cx="-169.511" cy="-53.442" r="1.5"/>
	<circle cx="-177.511" cy="-49.474" r="1.5"/>
	<circle cx="-185.511" cy="-53.484" r="1.5"/>
</g>
<g>
	<path d="M-61.073-77.519c-1.444-6.742-7.433-11.8-14.605-11.8c-1.799,0-3.522,0.32-5.118,0.904
		c-0.949-5.108-5.404-8.98-10.788-8.98c-0.413,0-0.819,0.027-1.222,0.071c0.744,1.112,1.179,2.448,1.179,3.886c0,3.865-3.134,7-7,7
		c-1.438,0-2.773-0.435-3.886-1.179c-0.044,0.401-0.071,0.809-0.071,1.222c0,3.712,1.845,6.987,4.661,8.979
		c-1.653,1.907-2.661,4.389-2.661,7.111c0,5.983,4.836,10.836,10.813,10.865v0.003h1.188v-2h-0.721l-0.457-0.003
		c-4.864-0.023-8.822-4.001-8.822-8.865c0-4.89,3.978-8.868,8.867-8.868c0.15,0,0.299,0.012,0.447,0.022l0.148,0.01l1.314,0.085
		l0.597-1.175c2.225-4.372,6.644-7.089,11.532-7.089c6.062,0,11.382,4.298,12.649,10.219l0.318,1.483l1.514,0.094
		c3.708,0.23,6.612,3.319,6.612,7.03c0,3.878-3.144,7.035-7.017,7.057c-0.042-0.003-0.079-0.005-0.117-0.005l-2.047,0.005h-0.819v2
		h2.819v-0.006c0.042,0.001,0.082,0.006,0.124,0.006c5.001,0,9.057-4.054,9.057-9.057C-52.585-73.302-56.339-77.224-61.073-77.519z
		 M-88.993-81.136c-0.241-0.016-0.48-0.036-0.725-0.036c-2.537,0-4.865,0.876-6.715,2.334c-2.012-1.294-3.487-3.354-3.976-5.776
		c0.582,0.117,1.178,0.177,1.78,0.177c4.963,0,9-4.037,9-9c0-0.603-0.06-1.198-0.177-1.78c3.733,0.753,6.629,3.824,7.133,7.641
		C-85.383-86.134-87.598-83.878-88.993-81.136z"/>
	<rect x="-77.585" y="-59.42" width="2" height="4"/>
	<rect x="-69.585" y="-63.441" width="2" height="4.021"/>
	<rect x="-85.585" y="-63.441" width="2" height="4.021"/>
	<circle cx="-68.585" cy="-54.399" r="1.5"/>
	<circle cx="-76.585" cy="-50.431" r="1.5"/>
	<circle cx="-84.585" cy="-54.441" r="1.5"/>
</g>
<g>
	<path d="M-164.383,15.512c-1.596-7.445-8.207-13.029-16.127-13.029c-6.423,0-11.977,3.678-14.702,9.035
		c-0.266-0.018-0.53-0.04-0.8-0.04c-6.627,0-11.999,5.372-11.999,12c0,6.607,5.34,11.965,11.938,11.998v0.003h6.062v-2h-5.604
		l-0.447-0.003c-5.485-0.027-9.948-4.513-9.948-9.998c0-5.514,4.485-10,9.999-10c0.175,0,0.347,0.014,0.52,0.025l0.148,0.01
		l1.316,0.088l0.598-1.176c2.492-4.899,7.443-7.942,12.92-7.942c6.79,0,12.75,4.814,14.172,11.448l0.317,1.482l1.514,0.095
		c4.203,0.262,7.496,3.763,7.496,7.971c0,4.397-3.565,7.977-7.957,8c-0.05-0.003-0.093-0.005-0.137-0.007l-5.043,0.007h0.137v2
		h4.863v-0.007c0.046,0.001,0.091,0.007,0.137,0.007c5.521,0,10-4.477,10-10C-155.011,20.168-159.155,15.837-164.383,15.512z"/>
	<polygon points="-180.169,35.482 -178.399,35.482 -177.969,35.482 -175.959,35.482 -182.373,26.321 -184.011,27.469 -179.8,33.482 
		-181.57,33.482 -184.011,33.482 -182.739,35.299 -181.627,36.888 -175.649,45.482 -174.011,44.336 -179.988,35.74 	"/>
</g>
<g>
	<rect x="-88.585" y="-3.618" width="2" height="7.973"/>
	<rect x="-107.585" y="15.296" width="7.973" height="2"/>
	<rect x="-102.912" y="4.029" transform="matrix(0.7071 0.7071 -0.7071 0.7071 -25.4182 71.4234)" width="7.974" height="2"/>
	<rect x="-77.403" y="1.047" transform="matrix(0.7071 0.7071 -0.7071 0.7071 -18.819 55.4995)" width="2" height="7.972"/>
	<path d="M-58.073,22.172c-1.444-6.742-7.433-11.8-14.605-11.8c-2.185,0-4.258,0.47-6.127,1.313
		c-1.666-3.202-5.006-5.394-8.865-5.394c-5.522,0-10,4.477-10,9.999c0,2.46,0.898,4.702,2.373,6.442
		c-1.428,1.84-2.287,4.144-2.287,6.653c0,5.983,4.836,10.836,10.813,10.865v0.003h4.188v-2h-3.721l-0.457-0.003
		c-4.864-0.023-8.822-4.001-8.822-8.865c0-4.89,3.978-8.868,8.867-8.868c0.15,0,0.299,0.012,0.447,0.022l0.148,0.01l1.314,0.085
		l0.597-1.175c2.225-4.372,6.644-7.089,11.532-7.089c6.062,0,11.382,4.298,12.649,10.219l0.318,1.483l1.514,0.094
		c3.708,0.23,6.612,3.319,6.612,7.03c0,3.878-3.144,7.035-7.017,7.057c-0.042-0.003-0.079-0.005-0.117-0.005l-2.047,0.005h-3.819v2
		h5.819v-0.006c0.042,0.001,0.082,0.006,0.124,0.006c5.001,0,9.057-4.054,9.057-9.057C-49.585,26.389-53.339,22.467-58.073,22.172z
		 M-85.993,18.555c-0.241-0.016-0.48-0.036-0.725-0.036c-2.766,0-5.281,1.041-7.2,2.743c-1.092-1.366-1.753-3.09-1.753-4.971
		c0-4.41,3.589-7.999,8-7.999c3.092,0,5.76,1.773,7.092,4.345C-82.878,14.077-84.757,16.125-85.993,18.555z"/>
	<polygon points="-73.743,40.262 -71.974,40.262 -71.543,40.262 -69.533,40.262 -75.947,31.101 -77.585,32.248 -73.374,38.262 
		-75.145,38.262 -77.585,38.262 -76.313,40.078 -75.201,41.667 -69.224,50.262 -67.585,49.115 -73.563,40.52 	"/>
</g>
<g>
	<path d="M41.512,19.876c-1.444-6.742-7.433-11.8-14.605-11.8c-1.799,0-3.521,0.32-5.118,0.904C20.839,3.872,16.384,0,11,0
		c-0.413,0-0.819,0.027-1.222,0.071c0.744,1.112,1.179,2.448,1.179,3.886c0,3.865-3.134,7-7,7c-1.438,0-2.773-0.435-3.886-1.179
		C0.027,10.18,0,10.587,0,11c0,3.712,1.845,6.987,4.661,8.979C3.008,21.887,2,24.368,2,27.091c0,5.983,4.836,10.836,10.813,10.865
		v0.003H17v-2h-3.721l-0.457-0.003C7.958,35.933,4,31.955,4,27.091c0-4.89,3.978-8.868,8.867-8.868c0.15,0,0.299,0.012,0.447,0.022
		l0.148,0.01l1.314,0.085l0.597-1.175c2.225-4.372,6.644-7.089,11.532-7.089c6.062,0,11.382,4.298,12.649,10.219l0.318,1.483
		l1.514,0.094c3.708,0.23,6.612,3.319,6.612,7.03c0,3.878-3.144,7.035-7.017,7.057c-0.042-0.003-0.079-0.005-0.117-0.005
		l-2.047,0.005H35v2h5.819v-0.006c0.042,0.001,0.082,0.006,0.124,0.006c5.001,0,9.057-4.054,9.057-9.057
		C50,24.093,46.246,20.171,41.512,19.876z M13.592,16.259c-0.241-0.016-0.48-0.036-0.725-0.036c-2.537,0-4.865,0.876-6.715,2.334
		c-2.012-1.294-3.486-3.354-3.976-5.776c0.582,0.117,1.178,0.177,1.78,0.177c4.963,0,9-4.037,9-9c0-0.603-0.06-1.198-0.177-1.78
		c3.733,0.753,6.629,3.824,7.134,7.64C17.201,11.261,14.986,13.516,13.592,16.259z"/>
	<polygon points="25.842,37.966 27.611,37.966 28.042,37.966 30.052,37.966 23.638,28.805 22,29.952 26.211,35.966 24.44,35.966 
		22,35.966 23.271,37.782 24.384,39.371 30.361,47.966 32,46.819 26.022,38.224 	"/>
</g>
<g>
	<path d="M142.396,16.012c-1.596-7.445-8.207-13.029-16.127-13.029c-6.423,0-11.977,3.678-14.702,9.035
		c-0.266-0.018-0.53-0.04-0.8-0.04c-6.627,0-11.999,5.372-11.999,12c0,6.607,5.34,11.965,11.938,11.998v0.003h1.062v-2h-0.604
		l-0.447-0.003c-5.485-0.027-9.948-4.513-9.948-9.998c0-5.514,4.485-10,9.999-10c0.175,0,0.347,0.014,0.52,0.025l0.148,0.01
		l1.316,0.088l0.598-1.176c2.492-4.899,7.443-7.942,12.92-7.942c6.79,0,12.75,4.814,14.172,11.448l0.317,1.482l1.514,0.095
		c4.203,0.262,7.496,3.763,7.496,7.971c0,4.397-3.565,7.977-7.957,8c-0.05-0.003-0.093-0.005-0.137-0.007l-0.906,0.007v2h0.863
		v-0.007c0.046,0.001,0.091,0.007,0.137,0.007c5.521,0,10-4.477,10-10C151.769,20.668,147.624,16.337,142.396,16.012z"/>
	<rect x="111.203" y="33.977" transform="matrix(-0.5736 -0.8191 0.8191 -0.5736 155.143 150.707)" width="11.183" height="1.999"/>
	
		<rect x="129.178" y="33.977" transform="matrix(-0.5736 -0.8191 0.8191 -0.5736 183.4285 165.4302)" width="11.183" height="1.999"/>
	<polygon points="127.61,38.982 129.38,38.982 129.811,38.982 131.82,38.982 125.406,29.821 123.769,30.969 127.979,36.982 
		126.209,36.982 123.769,36.982 125.04,38.799 126.152,40.388 130.769,46.982 132.407,45.836 127.791,39.24 	"/>
</g>
<g>
	<rect x="217.244" y="-3.455" width="2" height="7.973"/>
	<rect x="198.244" y="15.459" width="7.973" height="2"/>
	<rect x="202.917" y="4.192" transform="matrix(0.7071 0.7071 -0.7071 0.7071 64.2724 -144.7826)" width="7.974" height="2"/>
	<rect x="228.426" y="1.211" transform="matrix(0.7071 0.7071 -0.7071 0.7071 70.8716 -160.7066)" width="2" height="7.972"/>
	<path d="M247.756,22.335c-1.444-6.742-7.433-11.8-14.605-11.8c-2.185,0-4.258,0.47-6.126,1.313
		c-1.667-3.202-5.007-5.394-8.866-5.394c-5.522,0-10,4.477-10,9.999c0,2.46,0.899,4.702,2.373,6.442
		c-1.429,1.84-2.287,4.144-2.287,6.653c0,5.983,4.836,10.836,10.813,10.865v0.003h0.188v-2l-0.178-0.003
		c-4.864-0.023-8.822-4.001-8.822-8.865c0-4.89,3.978-8.868,8.867-8.868c0.15,0,0.299,0.012,0.447,0.022l0.148,0.01l1.314,0.085
		l0.597-1.175c2.225-4.372,6.644-7.089,11.532-7.089c6.062,0,11.382,4.298,12.649,10.219l0.318,1.483l1.514,0.094
		c3.708,0.23,6.612,3.319,6.612,7.03c0,3.878-3.144,7.035-7.017,7.057c-0.042-0.003-0.079-0.005-0.117-0.005l-0.866,0.005v2h0.819
		v-0.006c0.042,0.001,0.082,0.006,0.124,0.006c5.001,0,9.057-4.054,9.057-9.057C256.244,26.552,252.49,22.63,247.756,22.335z
		 M219.836,18.718c-0.241-0.016-0.48-0.036-0.725-0.036c-2.766,0-5.282,1.042-7.2,2.743c-1.092-1.367-1.753-3.09-1.753-4.971
		c0-4.41,3.589-7.999,8-7.999c3.091,0,5.76,1.773,7.091,4.345C222.951,14.239,221.071,16.288,219.836,18.718z"/>
	
		<rect x="217.666" y="38.415" transform="matrix(-0.5736 -0.8191 0.8191 -0.5736 319.0414 244.8963)" width="11.183" height="1.999"/>
	<rect x="235.64" y="38.415" transform="matrix(-0.5736 -0.8191 0.8191 -0.5736 347.327 259.6194)" width="11.183" height="1.999"/>
	<polygon points="234.073,43.421 235.843,43.421 236.273,43.421 238.283,43.421 231.869,34.26 230.231,35.407 234.442,41.421 
		232.672,41.421 230.231,41.421 231.503,43.237 232.615,44.826 237.231,51.421 238.87,50.274 234.254,43.679 	"/>
</g>
<g>
	<path d="M349.594,19.377c-1.444-6.742-7.433-11.8-14.605-11.8c-1.799,0-3.522,0.32-5.118,0.904
		c-0.949-5.108-5.404-8.98-10.788-8.98c-0.413,0-0.819,0.027-1.222,0.071c0.744,1.112,1.179,2.448,1.179,3.886c0,3.865-3.134,7-7,7
		c-1.438,0-2.773-0.435-3.886-1.179c-0.044,0.401-0.071,0.809-0.071,1.222c0,3.712,1.845,6.987,4.661,8.979
		c-1.653,1.907-2.661,4.389-2.661,7.111c0,5.983,4.836,10.836,10.813,10.865v0.003h0.188v-2l-0.178-0.003
		c-4.864-0.023-8.822-4.001-8.822-8.865c0-4.89,3.978-8.868,8.867-8.868c0.15,0,0.299,0.012,0.447,0.022l0.148,0.01l1.314,0.085
		l0.597-1.175c2.225-4.372,6.644-7.089,11.532-7.089c6.062,0,11.382,4.298,12.649,10.219l0.318,1.483l1.514,0.094
		c3.708,0.23,6.612,3.319,6.612,7.03c0,3.878-3.144,7.035-7.017,7.057c-0.042-0.003-0.079-0.005-0.117-0.005l-0.866,0.005v2h0.819
		v-0.006c0.042,0.001,0.082,0.006,0.124,0.006c5.001,0,9.057-4.054,9.057-9.057C358.082,23.594,354.328,19.672,349.594,19.377z
		 M321.674,15.76c-0.241-0.016-0.48-0.036-0.725-0.036c-2.537,0-4.865,0.876-6.715,2.334c-2.012-1.294-3.487-3.354-3.976-5.776
		c0.582,0.117,1.178,0.177,1.78,0.177c4.963,0,9-4.037,9-9c0-0.603-0.06-1.198-0.177-1.78c3.733,0.753,6.629,3.824,7.133,7.641
		C325.284,10.762,323.069,13.018,321.674,15.76z"/>
	
		<rect x="319.503" y="35.457" transform="matrix(-0.5736 -0.8191 0.8191 -0.5736 481.7188 323.657)" width="11.183" height="1.999"/>
	
		<rect x="337.477" y="35.457" transform="matrix(-0.5736 -0.8191 0.8191 -0.5736 510.0044 338.3801)" width="11.183" height="1.999"/>
	<polygon points="335.91,40.463 337.68,40.463 338.11,40.463 340.12,40.463 333.706,31.302 332.068,32.449 336.279,38.463 
		334.509,38.463 332.068,38.463 333.34,40.279 334.452,41.868 339.068,48.463 340.707,47.316 336.091,40.721 	"/>
</g>
<g>
	<g>
		<path d="M-60.969,105.832c-1.596-7.445-8.207-13.029-16.127-13.029c-6.423,0-11.977,3.678-14.702,9.035
			c-0.266-0.018-0.53-0.04-0.8-0.04c-6.627,0-11.999,5.372-11.999,12c0,6.607,5.34,11.965,11.938,11.998v0.003h2.062v-2h-1.604
			l-0.447-0.003c-5.485-0.027-9.948-4.513-9.948-9.998c0-5.514,4.485-10,9.999-10c0.175,0,0.347,0.014,0.52,0.025l0.148,0.01
			l1.316,0.088l0.598-1.176c2.492-4.899,7.443-7.942,12.92-7.942c6.79,0,12.75,4.814,14.172,11.448l0.317,1.482l1.514,0.095
			c4.203,0.262,7.496,3.763,7.496,7.971c0,4.397-3.565,7.977-7.957,8c-0.05-0.003-0.093-0.005-0.137-0.007l-2.043,0.007h-2.863v2
			h4.863v-0.007c0.046,0.001,0.091,0.007,0.137,0.007c5.521,0,10-4.477,10-10C-51.597,110.488-55.741,106.157-60.969,105.832z"/>
	</g>
	<g>
		<circle cx="-86.097" cy="119.375" r="1.5"/>
	</g>
	<g>
		<circle cx="-82.097" cy="125.299" r="1.5"/>
	</g>
	<g>
		<circle cx="-74.097" cy="125.299" r="1.5"/>
	</g>
	<g>
		<circle cx="-78.097" cy="119.375" r="1.5"/>
	</g>
	<g>
		<circle cx="-70.097" cy="119.375" r="1.5"/>
	</g>
	<g>
		<circle cx="-86.097" cy="131.32" r="1.5"/>
	</g>
	<g>
		<circle cx="-78.097" cy="131.32" r="1.5"/>
	</g>
	<g>
		<circle cx="-70.097" cy="131.32" r="1.5"/>
	</g>
</g>
<g>
	<g>
		<rect x="14.817" y="90.354" width="2" height="7.973"/>
	</g>
	<g>
		<rect x="-4.183" y="109.269" width="7.973" height="2"/>
	</g>
	<g>
		<rect x="0.49" y="98.002" transform="matrix(0.7071 0.7071 -0.7071 0.7071 71.3164 25.8309)" width="7.974" height="2"/>
	</g>
	<g>
		<rect x="25.999" y="95.02" transform="matrix(0.7071 0.7071 -0.7071 0.7071 77.9155 9.907)" width="2" height="7.972"/>
	</g>
	<g>
		<path d="M45.329,116.145c-1.444-6.742-7.433-11.8-14.605-11.8c-2.185,0-4.258,0.47-6.127,1.313
			c-1.666-3.202-5.006-5.394-8.865-5.394c-5.522,0-10,4.477-10,9.999c0,2.46,0.898,4.702,2.373,6.442
			c-1.428,1.84-2.287,4.144-2.287,6.653c0,5.983,4.836,10.836,10.813,10.865v0.003h1.188v-2h-0.721l-0.457-0.003
			c-4.864-0.023-8.822-4.001-8.822-8.865c0-4.89,3.978-8.868,8.867-8.868c0.15,0,0.299,0.012,0.447,0.022l0.148,0.01l1.314,0.085
			l0.597-1.175c2.225-4.372,6.644-7.089,11.532-7.089c6.062,0,11.382,4.298,12.649,10.219l0.318,1.483l1.514,0.094
			c3.708,0.23,6.612,3.319,6.612,7.03c0,3.878-3.144,7.035-7.017,7.057c-0.042-0.003-0.079-0.005-0.117-0.005l-2.047,0.005h-1.819v2
			h3.819v-0.006c0.042,0.001,0.082,0.006,0.124,0.006c5.001,0,9.057-4.054,9.057-9.057
			C53.817,120.361,50.063,116.439,45.329,116.145z M17.409,112.527c-0.241-0.016-0.48-0.036-0.725-0.036
			c-2.766,0-5.281,1.042-7.2,2.743c-1.092-1.367-1.753-3.09-1.753-4.971c0-4.41,3.589-7.999,8-7.999c3.092,0,5.76,1.773,7.092,4.345
			C20.524,108.049,18.646,110.098,17.409,112.527z"/>
	</g>
	<g>
		<circle cx="21.307" cy="127.738" r="1.5"/>
	</g>
	<g>
		<circle cx="25.307" cy="133.738" r="1.5"/>
	</g>
	<g>
		<circle cx="33.307" cy="133.738" r="1.5"/>
	</g>
	<g>
		<circle cx="29.307" cy="127.738" r="1.5"/>
	</g>
	<g>
		<circle cx="37.307" cy="127.738" r="1.5"/>
	</g>
	<g>
		<circle cx="21.307" cy="139.76" r="1.5"/>
	</g>
	<g>
		<circle cx="29.307" cy="139.76" r="1.5"/>
	</g>
	<g>
		<circle cx="37.307" cy="139.76" r="1.5"/>
	</g>
</g>
<g>
	<g>
		<path d="M141.28,112.188c-1.444-6.742-7.433-11.8-14.605-11.8c-1.799,0-3.521,0.32-5.118,0.904
			c-0.949-5.108-5.404-8.98-10.788-8.98c-0.413,0-0.819,0.027-1.222,0.071c0.744,1.112,1.179,2.448,1.179,3.886c0,3.865-3.134,7-7,7
			c-1.438,0-2.773-0.435-3.886-1.179c-0.044,0.401-0.071,0.809-0.071,1.222c0,3.712,1.845,6.987,4.661,8.979
			c-1.653,1.907-2.661,4.389-2.661,7.111c0,5.983,4.836,10.836,10.813,10.865v0.003h1.188v-2h-0.721l-0.457-0.003
			c-4.864-0.023-8.822-4.001-8.822-8.865c0-4.89,3.978-8.868,8.867-8.868c0.15,0,0.299,0.012,0.447,0.022l0.148,0.01l1.314,0.085
			l0.597-1.175c2.225-4.372,6.644-7.089,11.532-7.089c6.062,0,11.382,4.298,12.649,10.219l0.318,1.483l1.514,0.094
			c3.708,0.23,6.612,3.319,6.612,7.03c0,3.878-3.144,7.035-7.017,7.057c-0.042-0.003-0.079-0.005-0.117-0.005l-2.047,0.005h-1.819v2
			h3.819v-0.006c0.042,0.001,0.082,0.006,0.124,0.006c5.001,0,9.057-4.054,9.057-9.057
			C149.769,116.405,146.015,112.483,141.28,112.188z M113.36,108.571c-0.241-0.016-0.48-0.036-0.725-0.036
			c-2.537,0-4.865,0.876-6.715,2.334c-2.012-1.294-3.486-3.354-3.976-5.776c0.582,0.117,1.178,0.177,1.78,0.177c4.963,0,9-4.037,9-9
			c0-0.603-0.06-1.198-0.177-1.78c3.733,0.753,6.629,3.824,7.134,7.64C116.97,103.573,114.755,105.828,113.36,108.571z"/>
	</g>
	<g>
		<circle cx="117.269" cy="123.781" r="1.5"/>
	</g>
	<g>
		<circle cx="121.269" cy="129.781" r="1.5"/>
	</g>
	<g>
		<circle cx="129.269" cy="129.781" r="1.5"/>
	</g>
	<g>
		<circle cx="125.269" cy="123.781" r="1.5"/>
	</g>
	<g>
		<circle cx="133.269" cy="123.781" r="1.5"/>
	</g>
	<g>
		<circle cx="117.269" cy="135.803" r="1.5"/>
	</g>
	<g>
		<circle cx="125.269" cy="135.803" r="1.5"/>
	</g>
	<g>
		<circle cx="133.269" cy="135.803" r="1.5"/>
	</g>
</g>
<g>
	<path d="M452.445,13.303c-1.596-7.445-8.207-13.029-16.127-13.029c-6.423,0-11.977,3.678-14.702,9.035
		c-0.266-0.018-0.53-0.04-0.8-0.04c-6.627,0-11.999,5.372-11.999,12c0,6.607,5.34,11.965,11.938,11.998v0.003h2.062v-2h-1.604
		l-0.447-0.003c-5.485-0.027-9.948-4.513-9.948-9.998c0-5.514,4.485-10,9.999-10c0.175,0,0.347,0.014,0.52,0.025l0.148,0.01
		l1.316,0.088l0.598-1.176c2.492-4.899,7.443-7.942,12.92-7.942c6.79,0,12.75,4.814,14.172,11.448l0.317,1.482l1.514,0.095
		c4.203,0.262,7.496,3.763,7.496,7.971c0,4.397-3.565,7.977-7.957,8c-0.05-0.003-0.093-0.005-0.137-0.007l-2.043,0.007h-2.863v2
		h4.863v-0.007c0.046,0.001,0.091,0.007,0.137,0.007c5.521,0,10-4.477,10-10C461.817,17.959,457.673,13.628,452.445,13.303z"/>
	<circle cx="426.817" cy="40.773" r="1.5"/>
	<circle cx="434.817" cy="46.773" r="1.5"/>
	<circle cx="442.817" cy="42.773" r="1.5"/>
	<rect x="425.817" y="24.298" width="2" height="11.976"/>
	<polygon points="435.817,42.238 435.817,40.298 435.817,28.298 433.817,28.298 433.817,40.298 433.817,42.238 433.817,42.273 
		435.817,42.273 	"/>
	<polygon points="443.817,38.051 443.817,36.298 443.817,24.298 441.817,24.298 441.817,36.298 441.817,38.051 441.817,38.273 
		443.817,38.273 	"/>
</g>
<g>
	<rect x="-295.932" y="84.916" width="2" height="7.973"/>
	<rect x="-314.932" y="103.83" width="7.973" height="2"/>
	<rect x="-310.259" y="92.564" transform="matrix(0.7071 0.7071 -0.7071 0.7071 -23.5455 243.9707)" width="7.974" height="2"/>
	<rect x="-284.75" y="89.582" transform="matrix(0.7071 0.7071 -0.7071 0.7071 -16.9463 228.0468)" width="2" height="7.972"/>
	<path d="M-265.42,110.706c-1.444-6.742-7.433-11.8-14.605-11.8c-2.185,0-4.258,0.47-6.126,1.313
		c-1.667-3.202-5.007-5.394-8.866-5.394c-5.522,0-10,4.477-10,9.999c0,2.46,0.899,4.702,2.373,6.442
		c-1.429,1.84-2.287,4.144-2.287,6.653c0,5.983,4.836,10.836,10.813,10.865v0.003h1.188v-2h-0.721l-0.457-0.003
		c-4.864-0.023-8.822-4.001-8.822-8.865c0-4.89,3.978-8.868,8.867-8.868c0.15,0,0.299,0.012,0.447,0.022l0.148,0.01l1.314,0.085
		l0.597-1.175c2.225-4.372,6.644-7.089,11.532-7.089c6.062,0,11.382,4.298,12.649,10.219l0.318,1.483l1.514,0.094
		c3.708,0.23,6.612,3.319,6.612,7.03c0,3.878-3.144,7.035-7.017,7.057c-0.042-0.003-0.079-0.005-0.117-0.005l-2.047,0.005h-0.819v2
		h2.819v-0.006c0.042,0.001,0.082,0.006,0.124,0.006c5.001,0,9.057-4.054,9.057-9.057
		C-256.932,114.923-260.686,111.001-265.42,110.706z M-293.34,107.089c-0.241-0.016-0.48-0.036-0.725-0.036
		c-2.766,0-5.282,1.041-7.2,2.743c-1.092-1.366-1.753-3.09-1.753-4.971c0-4.41,3.589-7.999,8-7.999c3.091,0,5.76,1.773,7.091,4.345
		C-290.225,102.611-292.104,104.659-293.34,107.089z"/>
	<circle cx="-288.941" cy="137.276" r="1.5"/>
	<circle cx="-280.941" cy="143.276" r="1.5"/>
	<circle cx="-272.941" cy="139.276" r="1.5"/>
	<rect x="-289.941" y="120.801" width="2" height="11.976"/>
	<polygon points="-279.941,138.741 -279.941,136.801 -279.941,124.801 -281.941,124.801 -281.941,136.801 -281.941,138.741 
		-281.941,138.776 -279.941,138.776 	"/>
	<polygon points="-271.941,134.554 -271.941,132.801 -271.941,120.801 -273.941,120.801 -273.941,132.801 -273.941,134.554 
		-273.941,134.776 -271.941,134.776 	"/>
</g>
<g>
	<path d="M-164.817,107.708c-1.444-6.742-7.433-11.8-14.605-11.8c-1.799,0-3.522,0.32-5.118,0.904
		c-0.949-5.108-5.404-8.98-10.788-8.98c-0.413,0-0.819,0.027-1.222,0.071c0.744,1.112,1.179,2.448,1.179,3.886c0,3.865-3.134,7-7,7
		c-1.438,0-2.773-0.435-3.886-1.179c-0.044,0.401-0.071,0.809-0.071,1.222c0,3.712,1.845,6.987,4.661,8.979
		c-1.653,1.907-2.661,4.389-2.661,7.111c0,5.983,4.836,10.836,10.813,10.865v0.003h1.188v-2h-0.721l-0.457-0.003
		c-4.864-0.023-8.822-4.001-8.822-8.865c0-4.89,3.978-8.868,8.867-8.868c0.15,0,0.299,0.012,0.447,0.022l0.148,0.01l1.314,0.085
		l0.597-1.175c2.225-4.372,6.644-7.089,11.532-7.089c6.062,0,11.382,4.298,12.649,10.219l0.318,1.483l1.514,0.094
		c3.708,0.23,6.612,3.319,6.612,7.03c0,3.878-3.144,7.035-7.017,7.057c-0.042-0.003-0.079-0.005-0.117-0.005l-2.047,0.005h-0.819v2
		h2.819v-0.006c0.042,0.001,0.082,0.006,0.124,0.006c5.001,0,9.057-4.054,9.057-9.057
		C-156.329,111.925-160.083,108.003-164.817,107.708z M-192.737,104.091c-0.241-0.016-0.48-0.036-0.725-0.036
		c-2.537,0-4.865,0.876-6.715,2.334c-2.012-1.294-3.487-3.354-3.976-5.776c0.582,0.117,1.178,0.177,1.78,0.177c4.963,0,9-4.037,9-9
		c0-0.603-0.06-1.198-0.177-1.78c3.733,0.753,6.629,3.824,7.133,7.64C-189.127,99.093-191.342,101.348-192.737,104.091z"/>
	<circle cx="-188.329" cy="134.282" r="1.5"/>
	<circle cx="-180.329" cy="140.282" r="1.5"/>
	<circle cx="-172.329" cy="136.282" r="1.5"/>
	<rect x="-189.329" y="117.807" width="2" height="11.976"/>
	<polygon points="-179.329,135.747 -179.329,133.807 -179.329,121.807 -181.329,121.807 -181.329,133.807 -181.329,135.747 
		-181.329,135.782 -179.329,135.782 	"/>
	<polygon points="-171.329,131.56 -171.329,129.807 -171.329,117.807 -173.329,117.807 -173.329,129.807 -173.329,131.56 
		-173.329,131.782 -171.329,131.782 	"/>
</g>
<g>
	<rect x="-312.932" y="212.148" width="56" height="2"/>
	<rect x="-308.932" y="218.148" width="50" height="2"/>
	<rect x="-302.932" y="224.148" width="36" height="2"/>
	<rect x="-310.932" y="206.148" width="52" height="2"/>
	<path d="M-299.058,198.144c0.175,0,0.347,0.014,0.519,0.025l0.149,0.01l1.316,0.088l0.598-1.176
		c2.493-4.899,7.443-7.942,12.92-7.942c6.79,0,12.75,4.814,14.171,11.448l0.318,1.482l1.514,0.095
		c1.207,0.075,2.335,0.425,3.336,0.975h3.286c-1.678-1.703-3.957-2.813-6.498-2.971c-1.596-7.445-8.207-13.029-16.127-13.029
		c-6.423,0-11.977,3.678-14.702,9.035c-0.266-0.018-0.53-0.04-0.8-0.04c-4.843,0-9.004,2.874-10.9,7.005h2.251
		C-305.976,200.162-302.751,198.144-299.058,198.144z"/>
</g>
<g>
	<rect x="-191.829" y="184.634" width="2" height="7.973"/>
	<rect x="-210.829" y="203.548" width="7.973" height="2"/>
	<rect x="-206.156" y="192.281" transform="matrix(0.7071 0.7071 -0.7071 0.7071 77.4566 199.5658)" width="7.974" height="2"/>
	<rect x="-180.647" y="189.299" transform="matrix(0.7071 0.7071 -0.7071 0.7071 84.0557 183.6418)" width="2" height="7.972"/>
	<rect x="-201.829" y="218.508" width="50" height="2"/>
	<rect x="-197.829" y="224.508" width="44" height="2"/>
	<rect x="-191.829" y="229.508" width="30" height="2"/>
	<rect x="-199.829" y="212.508" width="46" height="2"/>
	<path d="M-198.921,210.508h0.771h1.927h1.012c1.472-1.087,3.283-1.737,5.249-1.737c0.15,0,0.299,0.012,0.447,0.022l0.148,0.01
		l1.314,0.085l0.597-1.175c2.225-4.372,6.644-7.089,11.532-7.089c5.945,0,11.168,4.139,12.563,9.884h2.043v-0.084
		c-1.444-6.742-7.433-11.8-14.605-11.8c-2.185,0-4.258,0.47-6.126,1.313c-1.667-3.202-5.007-5.394-8.866-5.394
		c-5.522,0-10,4.477-10,9.999C-200.915,206.784-200.167,208.843-198.921,210.508z M-190.915,196.544c3.091,0,5.76,1.773,7.091,4.345
		c-2.298,1.44-4.178,3.488-5.413,5.918c-0.241-0.016-0.48-0.036-0.725-0.036c-2.764,0-5.274,1.045-7.189,2.745
		c-1.097-1.366-1.764-3.089-1.764-4.973C-198.915,200.133-195.326,196.544-190.915,196.544z"/>
</g>
<g>
	<rect x="-103.085" y="215.07" width="50" height="2"/>
	<rect x="-99.085" y="221.07" width="44" height="2"/>
	<rect x="-93.085" y="226.07" width="30" height="2"/>
	<rect x="-101.085" y="209.07" width="46" height="2"/>
	<path d="M-99.442,207.07h0.037h1.884h1.055c1.472-1.087,3.283-1.737,5.249-1.737c0.15,0,0.299,0.012,0.447,0.022l0.148,0.01
		l1.314,0.085l0.597-1.175c2.225-4.372,6.644-7.089,11.532-7.089c5.945,0,11.168,4.139,12.563,9.884h2.043v-0.084
		c-1.444-6.742-7.433-11.8-14.605-11.8c-1.799,0-3.521,0.32-5.117,0.903c-0.945-5.111-5.402-8.987-10.789-8.987
		c-0.413,0-0.819,0.027-1.222,0.071c0.744,1.112,1.179,2.448,1.179,3.886c0,3.865-3.134,7-7,7c-1.438,0-2.773-0.435-3.886-1.179
		c-0.044,0.401-0.071,0.809-0.071,1.222C-104.085,201.807-102.249,205.077-99.442,207.07z M-100.128,200.06c4.963,0,9-4.037,9-9
		c0-0.603-0.06-1.198-0.177-1.78c3.735,0.753,6.633,3.828,7.134,7.647c-2.712,1.443-4.927,3.699-6.322,6.442
		c-0.241-0.016-0.48-0.036-0.725-0.036c-2.534,0-4.855,0.879-6.701,2.335c-2.02-1.293-3.5-3.356-3.989-5.785
		C-101.326,200-100.73,200.06-100.128,200.06z"/>
</g>
<g>
	<path d="M28.807,218.084H9.333l-0.578-0.003c-5.485-0.027-9.948-4.513-9.948-9.998c0-5.514,4.485-10,9.999-10
		c0.175,0,0.347,0.014,0.519,0.025l0.149,0.01l1.316,0.088l0.598-1.176c2.493-4.899,7.443-7.942,12.92-7.942
		c6.79,0,12.75,4.814,14.171,11.448l0.318,1.482l1.514,0.095c1.822,0.113,3.463,0.845,4.746,1.971h2.732
		c-1.707-2.262-4.348-3.78-7.354-3.967c-1.596-7.445-8.207-13.029-16.127-13.029c-6.423,0-11.977,3.678-14.702,9.035
		c-0.266-0.018-0.53-0.04-0.8-0.04c-6.627,0-11.999,5.372-11.999,12c0,6.607,5.34,11.965,11.938,11.998v0.003h20.062
		c2.205,0,4,1.794,4,4s-1.795,4-4,4v2c3.314,0,6-2.686,6-6C34.807,220.771,32.121,218.084,28.807,218.084z"/>
	<path d="M32.807,214.084H16.818v2h15.988c3.314,0,6-2.687,6-6c0-3.314-2.686-6-6-6v2c2.205,0,4,1.794,4,4
		S35.012,214.084,32.807,214.084z"/>
	<path d="M45.807,208.084c1.654,0,3,1.346,3,3s-1.346,3-3,3c-0.043,0-0.083-0.011-0.126-0.013h-4.862
		c0.003,0.005,0.009,0.008,0.012,0.013h-0.023v2h5.5v-0.051c2.523-0.254,4.5-2.358,4.5-4.949c0-2.762-2.238-5-5-5V208.084z"/>
	<path d="M49.807,218.084h-13v2h9.022c-0.004,0.005-0.008,0.008-0.011,0.013h3.862c0.043-0.002,0.083-0.013,0.126-0.013
		c1.654,0,3,1.346,3,3s-1.346,3-3,3v2c2.762,0,5-2.238,5-5S52.568,218.084,49.807,218.084z"/>
	<rect x="10.807" y="214.084" width="4" height="2"/>
</g>
<path d="M-178.755-181.02c6.95,1.305,12.226,7.419,12.226,14.742c0,8.272-6.729,15.002-15,15.002c-6.79,0-12.531-4.49-14.366-10.728
	c1.398,0.461,2.867,0.698,4.366,0.698c7.72,0,14-6.281,14-14.001C-177.529-177.29-177.953-179.234-178.755-181.02 M-181.529-183.276
	c-0.338,0-0.668,0.031-1,0.051c1.861,2.113,3,4.881,3,7.92c0,6.627-5.372,12.001-12,12.001c-2.599,0-4.998-0.835-6.963-2.239
	c0.387,9.047,7.821,16.269,16.963,16.269c9.39,0,17-7.612,17-17.002S-172.14-183.276-181.529-183.276L-181.529-183.276z"/>
<g>
	<path d="M-284.925-178.281c-7.18,0-13,5.819-13,12.999c0,7.181,5.82,13.002,13,13.002s13-5.821,13-13.002
		C-271.925-172.462-277.745-178.281-284.925-178.281z M-284.925-154.28c-6.065,0-11-4.936-11-11.002c0-6.064,4.935-10.999,11-10.999
		s11,4.935,11,10.999C-273.925-159.216-278.859-154.28-284.925-154.28z"/>
	<rect x="-285.932" y="-191.275" width="2" height="10"/>
	<rect x="-285.932" y="-149.275" width="2" height="10"/>
	<rect x="-310.925" y="-166.275" width="9.993" height="2"/>
	<rect x="-268.932" y="-166.275" width="10.007" height="2"/>
	<rect x="-271.232" y="-185.189" transform="matrix(0.7071 0.7071 -0.7071 0.7071 -206.4176 138.3665)" width="2" height="10.409"/>
	
		<rect x="-300.641" y="-155.781" transform="matrix(-0.7071 -0.7071 0.7071 -0.7071 -405.0455 -468.9267)" width="2" height="10.41"/>
	<rect x="-304.841" y="-180.98" transform="matrix(0.7071 0.7071 -0.7071 0.7071 -215.0265 159.1599)" width="10.409" height="2"/>
	
		<rect x="-275.432" y="-151.571" transform="matrix(-0.7072 -0.7071 0.7071 -0.7072 -354.8574 -448.1146)" width="10.41" height="2"/>
</g>
<g>
	<rect x="113.241" y="179.586" width="2" height="7.973"/>
	<rect x="94.269" y="198.572" width="7.973" height="2"/>
	<rect x="98.994" y="187.354" transform="matrix(0.7071 0.7071 -0.7071 0.7071 163.3486 -17.6514)" width="7.974" height="2"/>
	<rect x="124.503" y="184.372" transform="matrix(0.7071 0.7071 -0.7071 0.7071 169.9478 -33.5754)" width="2" height="7.972"/>
	<path d="M128.269,221.586l0.005-0.007h-12.536l-0.594-0.003c-4.864-0.024-8.822-4.001-8.822-8.865c0-4.89,3.978-8.868,8.867-8.868
		c0.15,0,0.299,0.012,0.447,0.021l0.148,0.011l1.314,0.085l0.597-1.174c2.225-4.373,6.644-7.09,11.532-7.09
		c5.916,0,11.114,4.099,12.54,9.8h2.065c-1.444-6.742-7.433-11.8-14.605-11.8c-2.185,0-4.258,0.47-6.126,1.313
		c-1.667-3.202-5.007-5.394-8.866-5.394c-5.522,0-10,4.477-10,9.999c0,2.46,0.899,4.702,2.373,6.442
		c-1.429,1.84-2.287,4.144-2.287,6.653c0,5.983,4.836,10.836,10.813,10.865v0.003h13.135v0.007c2.205,0,4,1.794,4,4s-1.795,4-4,4v2
		c3.314,0,6-2.686,6-6C134.269,224.272,131.583,221.586,128.269,221.586z M114.235,191.616c3.091,0,5.76,1.773,7.091,4.345
		c-2.298,1.439-4.178,3.488-5.413,5.918c-0.241-0.016-0.48-0.036-0.725-0.036c-2.766,0-5.282,1.042-7.2,2.743
		c-1.092-1.367-1.753-3.09-1.753-4.971C106.235,195.205,109.824,191.616,114.235,191.616z"/>
	<path d="M132.269,217.586h-9.988v2h9.988c3.314,0,6-2.687,6-6c0-3.314-2.686-6-6-6v2c2.205,0,4,1.794,4,4
		S134.474,217.586,132.269,217.586z"/>
	<path d="M140.292,217.586h-0.023v2h5.5v-0.051c2.523-0.254,4.5-2.358,4.5-4.949c0-2.762-2.238-5-5-5v2c1.654,0,3,1.346,3,3
		s-1.346,3-3,3c-0.043,0-0.083-0.011-0.126-0.013h-4.862C140.283,217.578,140.289,217.582,140.292,217.586z"/>
	<path d="M149.269,221.586h-13v2h9.022c-0.004,0.004-0.008,0.008-0.011,0.013h3.862c0.043-0.002,0.083-0.013,0.126-0.013
		c1.654,0,3,1.346,3,3s-1.346,3-3,3v2c2.762,0,5-2.238,5-5S152.03,221.586,149.269,221.586z"/>
	<rect x="116.269" y="217.586" width="4" height="2"/>
</g>
<g>
	<path d="M228.23,219.58l0.005-0.007h-12.536l-0.594-0.003c-4.864-0.024-8.822-4.001-8.822-8.865c0-4.89,3.978-8.868,8.867-8.868
		c0.15,0,0.299,0.012,0.447,0.021l0.148,0.011l1.314,0.085l0.597-1.174c2.225-4.373,6.644-7.09,11.532-7.09
		c5.916,0,11.114,4.099,12.54,9.8h2.065c-1.444-6.742-7.433-11.8-14.605-11.8c-1.806,0-3.536,0.322-5.138,0.91
		c-0.938-5.123-5.4-9.01-10.794-9.01c-0.413,0-0.819,0.027-1.222,0.071c0.744,1.112,1.179,2.448,1.179,3.886c0,3.865-3.134,7-7,7
		c-1.438,0-2.773-0.435-3.886-1.179c-0.044,0.401-0.071,0.809-0.071,1.222c0,3.725,1.858,7.009,4.69,8.998
		c-1.655,1.907-2.665,4.392-2.665,7.116c0,5.983,4.836,10.836,10.813,10.865v0.003h13.135v0.007c2.205,0,4,1.794,4,4s-1.795,4-4,4v2
		c3.314,0,6-2.686,6-6C234.23,222.267,231.545,219.58,228.23,219.58z M204.435,196.371c0.582,0.117,1.178,0.177,1.78,0.177
		c4.963,0,9-4.037,9-9c0-0.603-0.06-1.198-0.177-1.78c3.744,0.755,6.646,3.842,7.138,7.674c-2.702,1.444-4.909,3.696-6.301,6.432
		c-0.241-0.016-0.48-0.036-0.725-0.036c-2.535,0-4.861,0.875-6.71,2.33C206.412,200.875,204.926,198.807,204.435,196.371z"/>
	<path d="M232.23,215.58h-9.988v2h9.988c3.314,0,6-2.687,6-6c0-3.314-2.686-6-6-6v2c2.205,0,4,1.794,4,4
		S234.436,215.58,232.23,215.58z"/>
	<path d="M240.254,215.58h-0.023v2h5.5v-0.051c2.523-0.254,4.5-2.358,4.5-4.949c0-2.762-2.238-5-5-5v2c1.654,0,3,1.346,3,3
		s-1.346,3-3,3c-0.043,0-0.083-0.011-0.126-0.013h-4.862C240.245,215.572,240.251,215.576,240.254,215.58z"/>
	<path d="M249.23,219.58h-13v2h9.022c-0.004,0.004-0.008,0.008-0.011,0.013h3.862c0.043-0.002,0.083-0.013,0.126-0.013
		c1.654,0,3,1.346,3,3s-1.346,3-3,3v2c2.762,0,5-2.238,5-5S251.992,219.58,249.23,219.58z"/>
	<rect x="216.23" y="215.58" width="4" height="2"/>
</g>
<g>
	<rect x="329.123" y="182.148" width="2" height="10"/>
	<rect x="304.13" y="207.148" width="9.993" height="2"/>
	<rect x="343.823" y="188.234" transform="matrix(0.7071 0.7071 -0.7071 0.7071 237.7782 -187.1696)" width="2" height="10.409"/>
	<rect x="310.214" y="192.444" transform="matrix(0.7071 0.7071 -0.7071 0.7071 229.1694 -166.3762)" width="10.409" height="2"/>
	<path d="M334.123,222.148h-24v2h24c2.205,0,4,1.794,4,4s-1.795,4-4,4v2c3.314,0,6-2.686,6-6
		C340.123,224.835,337.438,222.148,334.123,222.148z"/>
	<path d="M346.146,218.148h-0.023v2h5.5v-0.051c2.523-0.254,4.5-2.358,4.5-4.949c0-2.762-2.238-5-5-5v2c1.654,0,3,1.346,3,3
		s-1.346,3-3,3c-0.043,0-0.083-0.011-0.126-0.013h-4.862C346.138,218.141,346.144,218.145,346.146,218.148z"/>
	<path d="M355.123,222.148h-13v2h9.022c-0.004,0.004-0.008,0.008-0.011,0.013h3.862c0.043-0.002,0.083-0.013,0.126-0.013
		c1.654,0,3,1.346,3,3s-1.346,3-3,3v2c2.762,0,5-2.238,5-5S357.885,222.148,355.123,222.148z"/>
	<path d="M321.832,218.148h-11.709v2h12.012h0.822h15.166c3.314,0,6-2.687,6-6c0-3.314-2.686-6-6-6v2c2.205,0,4,1.794,4,4
		s-1.795,4-4,4h-12.538c-3.802-1.734-6.455-5.563-6.455-10.007c0-6.064,4.935-10.999,11-10.999c5.384,0,9.868,3.891,10.81,9.006
		h2.021c-0.961-6.23-6.331-11.006-12.831-11.006c-7.18,0-13,5.819-13,12.999C317.13,212.167,318.96,215.764,321.832,218.148z"/>
</g>
<g>
	<path d="M434.35,215.592h-24v2h24c2.205,0,4,1.794,4,4s-1.795,4-4,4v2c3.314,0,6-2.686,6-6
		C440.35,218.278,437.664,215.592,434.35,215.592z"/>
	<path d="M451.85,213.592v-0.051c2.523-0.254,4.5-2.358,4.5-4.949c0-2.762-2.238-5-5-5v2c1.654,0,3,1.346,3,3s-1.346,3-3,3
		c-0.043,0-0.083-0.011-0.126-0.013h-4.862c0.004,0.005,0.009,0.009,0.012,0.013h-0.023v2H451.85z"/>
	<path d="M455.35,215.592h-13v2h9.022c-0.003,0.004-0.007,0.008-0.011,0.013h3.862c0.043-0.002,0.083-0.013,0.126-0.013
		c1.654,0,3,1.346,3,3s-1.346,3-3,3v2c2.762,0,5-2.238,5-5S458.111,215.592,455.35,215.592z"/>
	<path d="M423.184,213.592h15.166c3.314,0,6-2.687,6-6c0-3.314-2.686-6-6-6v2c2.205,0,4,1.794,4,4s-1.795,4-4,4h-12.586
		c-2.596-1.188-4.658-3.339-5.69-6.034c0.849,0.204,1.724,0.309,2.612,0.309c6.168,0,11.187-5.019,11.187-11.188
		c0-1.276-0.22-2.532-0.64-3.717c4.046,1.102,7.168,4.459,7.937,8.63h2.018c-0.964-6.237-6.338-11.016-12.846-11.016
		c-0.259,0-0.511,0.024-0.766,0.039c1.425,1.618,2.297,3.737,2.297,6.063c0,5.072-4.112,9.188-9.187,9.188
		c-1.988,0-3.826-0.641-5.33-1.715c0.162,3.801,1.962,7.165,4.699,9.44H410.35v2h12.012H423.184z"/>
</g>
<g>
	<path d="M-285.432,300.785h-20c-1.103,0-2-0.897-2-2s0.897-2,2-2h3.445h0.555v-2h-4c-2.209,0-4,1.791-4,4s1.791,4,4,4h20
		c2.205,0,4,1.794,4,4s-1.795,4-4,4v2c3.314,0,6-2.686,6-6C-279.432,303.472-282.117,300.785-285.432,300.785z"/>
	<path d="M-283.432,284.785v2c2.205,0,4,1.794,4,4s-1.795,4-4,4h-15.988v2h15.988c3.314,0,6-2.687,6-6
		C-277.432,287.471-280.117,284.785-283.432,284.785z"/>
	<path d="M-277.432,296.785v2h5.5v-0.051c2.523-0.254,4.5-2.358,4.5-4.949c0-2.762-2.238-5-5-5v2c1.654,0,3,1.346,3,3s-1.346,3-3,3
		c-0.043,0-0.083-0.011-0.126-0.013h-4.862c0.003,0.005,0.009,0.009,0.012,0.013H-277.432z"/>
	<path d="M-266.432,300.785h-11v2h7.022c-0.004,0.004-0.008,0.008-0.011,0.013h3.862c0.043-0.002,0.083-0.013,0.126-0.013
		c1.654,0,3,1.346,3,3s-1.346,3-3,3v2c2.762,0,5-2.238,5-5S-263.67,300.785-266.432,300.785z"/>
</g>
<path d="M250.86,287.132v-0.038h-38.376c-1.103,0-2-0.897-2-2s0.897-2,2-2h33c2.762,0,5-2.238,5-5s-2.238-5-5-5h-37.875v0.008
	c-0.042-0.001-0.083-0.008-0.125-0.008c-2.762,0-5,2.238-5,5s2.238,5,5,5v-2c-1.654,0-3-1.346-3-3s1.346-3,3-3h0.125h3.853h34.022
	c1.654,0,3,1.346,3,3s-1.346,3-3,3h-33c-2.209,0-4,1.791-4,4s1.791,4,4,4h38c1.103,0,2,0.897,2,2s-0.897,2-2,2h-32
	c-2.209,0-4,1.791-4,4s1.791,4,4,4h22c1.103,0,2,0.897,2,2s-0.897,2-2,2h-24.01v0.001c-2.204,0.006-3.99,1.793-3.99,3.999
	s1.786,3.993,3.99,3.999v0.001h12.01c1.103,0,2,0.897,2,2s-0.897,2-2,2h-2c-2.209,0-4,1.791-4,4s1.791,4,4,4v-2
	c-1.103,0-2-0.897-2-2s0.897-2,2-2h2c2.209,0,4-1.791,4-4s-1.791-4-4-4h-12c-1.103,0-2-0.897-2-2s0.897-2,2-2h24
	c2.209,0,4-1.791,4-4c0-2.152-1.704-3.895-3.834-3.983v-0.017h-22.166c-1.103,0-2-0.897-2-2s0.897-2,2-2h32c2.209,0,4-1.791,4-4
	C254.484,289.014,252.891,287.324,250.86,287.132z"/>
<path d="M436.275,277.81v-2.024h-2v2.024c-13.01,0.513-23.462,10.965-23.975,23.976h1.674c1.14-1.222,2.748-2,4.551-2
	c2.26,0,4.233,1.203,5.331,3h1.838c1.098-1.797,3.071-3,5.331-3c2.204,0,4.137,1.144,5.25,2.866v15.134c0,2.21,1.791,4,4,4
	s4-1.79,4-4h-2c0,1.103-0.897,2-2,2s-2-0.897-2-2v-15.134c1.113-1.723,3.046-2.866,5.25-2.866c2.26,0,4.233,1.203,5.331,3h1.838
	c1.098-1.797,3.071-3,5.331-3c1.803,0,3.411,0.778,4.551,2h1.674C459.737,288.774,449.285,278.322,436.275,277.81z M454.025,297.785
	c-2.496,0-4.736,1.114-6.25,2.87c-1.514-1.756-3.754-2.87-6.25-2.87s-4.736,1.114-6.25,2.87c-1.514-1.756-3.754-2.87-6.25-2.87
	s-4.736,1.114-6.25,2.87c-1.514-1.756-3.755-2.87-6.25-2.87c-1.402,0-2.731,0.351-3.897,0.975
	c1.909-10.769,11.339-18.975,22.647-18.975s20.738,8.206,22.647,18.975C456.757,298.136,455.428,297.785,454.025,297.785z"/>
<g>
	<path d="M30.98,402.098v-17.105c0-2.762-2.238-5-5-5s-5,2.238-5,5v17.105c-1.236,1.263-2,2.988-2,4.895c0,3.866,3.134,7,7,7
		s7-3.134,7-7C32.98,405.086,32.217,403.36,30.98,402.098z M25.98,411.992c-2.757,0-5-2.243-5-5c0-1.313,0.508-2.554,1.429-3.495
		l0.571-0.583v-0.816v-17.105c0-1.654,1.346-3,3-3s3,1.346,3,3v17.105v0.816l0.571,0.583c0.921,0.941,1.429,2.183,1.429,3.495
		C30.98,409.749,28.737,411.992,25.98,411.992z"/>
	<path d="M26.98,404.168v-15.176h-2v15.176c-1.167,0.413-2.008,1.516-2.008,2.824c0,1.662,1.347,3.008,3.008,3.008
		c1.662,0,3.008-1.346,3.008-3.008C28.988,405.684,28.148,404.581,26.98,404.168z M25.98,408c-0.556,0-1.008-0.452-1.008-1.008
		s0.452-1.008,1.008-1.008s1.008,0.452,1.008,1.008S26.536,408,25.98,408z"/>
</g>
<g>
	<path d="M130.769,402.098v-17.105c0-2.762-2.238-5-5-5s-5,2.238-5,5v17.105c-1.236,1.263-2,2.988-2,4.895c0,3.866,3.134,7,7,7
		s7-3.134,7-7C132.769,405.086,132.005,403.36,130.769,402.098z M125.769,411.992c-2.757,0-5-2.243-5-5
		c0-1.313,0.508-2.554,1.429-3.495l0.571-0.583v-0.816v-17.105c0-1.654,1.346-3,3-3s3,1.346,3,3v17.105v0.816l0.571,0.583
		c0.921,0.941,1.429,2.183,1.429,3.495C130.769,409.749,128.525,411.992,125.769,411.992z"/>
	<path d="M126.769,404.168v-20.176h-2v20.176c-1.167,0.413-2.008,1.516-2.008,2.824c0,1.662,1.347,3.008,3.008,3.008
		c1.662,0,3.008-1.346,3.008-3.008C128.776,405.684,127.937,404.581,126.769,404.168z M125.769,408
		c-0.556,0-1.008-0.452-1.008-1.008s0.452-1.008,1.008-1.008s1.008,0.452,1.008,1.008S126.324,408,125.769,408z"/>
</g>
<g>
	<path d="M-72.129,402.098v-17.105c0-2.762-2.238-5-5-5s-5,2.238-5,5v17.105c-1.236,1.263-2,2.988-2,4.895c0,3.866,3.134,7,7,7
		s7-3.134,7-7C-70.129,405.086-70.893,403.36-72.129,402.098z M-77.129,411.992c-2.757,0-5-2.243-5-5
		c0-1.313,0.508-2.554,1.429-3.495l0.571-0.583v-0.816v-17.105c0-1.654,1.346-3,3-3s3,1.346,3,3v17.105v0.816l0.571,0.583
		c0.921,0.941,1.429,2.183,1.429,3.495C-72.129,409.749-74.372,411.992-77.129,411.992z"/>
	<path d="M-76.129,404.168v-10.176h-2v10.176c-1.167,0.413-2.008,1.516-2.008,2.824c0,1.662,1.347,3.008,3.008,3.008
		c1.662,0,3.008-1.346,3.008-3.008C-74.121,405.684-74.961,404.581-76.129,404.168z M-77.129,408c-0.556,0-1.008-0.452-1.008-1.008
		s0.452-1.008,1.008-1.008s1.008,0.452,1.008,1.008S-76.573,408-77.129,408z"/>
</g>
<g>
	<path d="M-175.774,402.098v-17.105c0-2.762-2.238-5-5-5s-5,2.238-5,5v17.105c-1.236,1.263-2,2.988-2,4.895c0,3.866,3.134,7,7,7
		s7-3.134,7-7C-173.774,405.086-174.538,403.36-175.774,402.098z M-180.774,411.992c-2.757,0-5-2.243-5-5
		c0-1.313,0.508-2.554,1.429-3.495l0.571-0.583v-0.816v-17.105c0-1.654,1.346-3,3-3s3,1.346,3,3v17.105v0.816l0.571,0.583
		c0.921,0.941,1.429,2.183,1.429,3.495C-175.774,409.749-178.018,411.992-180.774,411.992z"/>
	<path d="M-179.774,404.168v-5.176h-2v5.176c-1.167,0.413-2.008,1.516-2.008,2.824c0,1.662,1.347,3.008,3.008,3.008
		c1.662,0,3.008-1.346,3.008-3.008C-177.767,405.684-178.606,404.581-179.774,404.168z M-180.774,408
		c-0.556,0-1.008-0.452-1.008-1.008s0.452-1.008,1.008-1.008s1.008,0.452,1.008,1.008S-180.219,408-180.774,408z"/>
</g>
<g>
	<path d="M-280.432,402.098v-17.105c0-2.762-2.238-5-5-5s-5,2.238-5,5v17.105c-1.236,1.263-2,2.988-2,4.895c0,3.866,3.134,7,7,7
		s7-3.134,7-7C-278.432,405.086-279.195,403.36-280.432,402.098z M-285.432,411.992c-2.757,0-5-2.243-5-5
		c0-1.313,0.508-2.554,1.429-3.495l0.571-0.583v-0.816v-17.105c0-1.654,1.346-3,3-3s3,1.346,3,3v17.105v0.816l0.571,0.583
		c0.921,0.941,1.429,2.183,1.429,3.495C-280.432,409.749-282.675,411.992-285.432,411.992z"/>
	<path d="M-285.432,403.984c-1.661,0-3.008,1.347-3.008,3.008c0,1.662,1.347,3.008,3.008,3.008c1.662,0,3.008-1.346,3.008-3.008
		C-282.424,405.331-283.77,403.984-285.432,403.984z M-285.432,408c-0.556,0-1.008-0.452-1.008-1.008s0.452-1.008,1.008-1.008
		s1.008,0.452,1.008,1.008S-284.876,408-285.432,408z"/>
</g>
<g>
	<path d="M219.493,382.305c-2.209,0-4,1.791-4,4c0,2.21,1.791,4,4,4c2.211,0,4-1.79,4-4
		C223.493,384.096,221.704,382.305,219.493,382.305z M219.493,388.305c-1.103,0-2-0.897-2-2s0.897-2,2-2s2,0.897,2,2
		S220.596,388.305,219.493,388.305z"/>
	<path d="M233.493,410.305c-4.41,0-7.999-3.589-7.999-7.999v-4.002c0-4.41,3.589-7.999,7.999-7.999c2.715,0,5.115,1.362,6.563,3.437
		l1.43-1.43c-1.824-2.429-4.72-4.007-7.992-4.007c-5.522,0-9.999,4.478-9.999,9.999v4.002c0,5.521,4.477,9.999,9.999,9.999
		c3.272,0,6.168-1.579,7.992-4.008l-1.43-1.43C238.609,408.941,236.209,410.305,233.493,410.305z"/>
</g>
<g>
	<path d="M324.189,382.184c-2.209,0-4,1.791-4,4c0,2.21,1.791,4,4,4c2.211,0,4-1.79,4-4
		C328.189,383.975,326.4,382.184,324.189,382.184z M324.189,388.184c-1.103,0-2-0.897-2-2s0.897-2,2-2s2,0.897,2,2
		S325.292,388.184,324.189,388.184z"/>
	<polygon points="344.064,390.305 344.064,388.305 332.064,388.305 330.064,388.305 330.064,412.305 332.064,412.305 
		332.064,400.305 340.064,400.305 340.064,398.305 332.064,398.305 332.064,390.305 	"/>
</g>
<g>
	<path d="M435.275,385.996c-7.179,0-13,5.82-13,13s5.821,13,13,13s13-5.82,13-13S442.454,385.996,435.275,385.996z M435.275,409.996
		c-6.065,0-11-4.935-11-11s4.935-11,11-11s11,4.935,11,11S441.341,409.996,435.275,409.996z"/>
	<path d="M431.009,403.238l6.363-2.121l2.121-6.364l-6.363,2.122L431.009,403.238z M434.711,398.456l1.62-0.54l-0.54,1.62
		l-1.62,0.54L434.711,398.456z"/>
</g>
<g>
	<path d="M-285.432,476.514c-7.179,0-13,5.82-13,13s5.821,13,13,13s13-5.82,13-13S-278.253,476.514-285.432,476.514z
		 M-285.432,500.514c-6.065,0-11-4.934-11-11c0-6.064,4.935-11,11-11s11,4.936,11,11
		C-274.432,495.58-279.366,500.514-285.432,500.514z"/>
	<path d="M-282.87,487.936l-2.586-4.422l-2.529,4.33h0.007c-0.299,0.467-0.478,1.018-0.478,1.613c0,1.656,1.343,3,3,3s3-1.344,3-3
		c0-0.559-0.162-1.074-0.428-1.521H-282.87z M-285.456,490.457c-0.552,0-1-0.449-1-1c0-0.188,0.055-0.367,0.162-0.535l0.864-1.355
		l0.826,1.391c0.098,0.164,0.147,0.332,0.147,0.5C-284.456,490.008-284.904,490.457-285.456,490.457z"/>
</g>
<g>
	<path d="M-180.647,476.514c-7.18,0-13,5.82-13,13s5.82,13,13,13s13-5.82,13-13S-173.468,476.514-180.647,476.514z
		 M-180.647,500.514c-6.065,0-11-4.934-11-11c0-6.064,4.935-11,11-11s11,4.936,11,11
		C-169.647,495.58-174.582,500.514-180.647,500.514z"/>
	<path d="M-179.059,486.934c-0.467-0.299-1.018-0.477-1.613-0.477c-1.658,0-3,1.342-3,3c0,1.656,1.342,3,3,3
		c0.557,0,1.072-0.162,1.52-0.428v0.014l4.422-2.586l-4.328-2.529V486.934z M-180.174,490.309c-0.164,0.098-0.332,0.148-0.498,0.148
		c-0.552,0-1-0.449-1-1c0-0.553,0.448-1,1-1c0.188,0,0.368,0.053,0.535,0.16l1.355,0.865L-180.174,490.309z"/>
</g>
<g>
	<path d="M-77.597,476.514c-7.18,0-13,5.82-13,13s5.82,13,13,13s13-5.82,13-13S-70.417,476.514-77.597,476.514z M-77.597,500.514
		c-6.065,0-11-4.934-11-11c0-6.064,4.935-11,11-11s11,4.936,11,11C-66.597,495.58-71.531,500.514-77.597,500.514z"/>
	<path d="M-77.597,486.457c-1.656,0-3,1.342-3,3c0,0.557,0.162,1.072,0.428,1.52h-0.014l2.586,4.422l2.529-4.328h-0.006
		c0.299-0.467,0.477-1.018,0.477-1.613C-74.597,487.799-75.938,486.457-77.597,486.457z M-76.758,489.992l-0.865,1.355l-0.826-1.393
		c-0.098-0.164-0.147-0.332-0.147-0.498c0-0.553,0.448-1,1-1s1,0.447,1,1C-76.597,489.645-76.65,489.824-76.758,489.992z"/>
</g>
<g>
	<path d="M25.817,476.514c-7.179,0-13,5.82-13,13s5.821,13,13,13s13-5.82,13-13S32.996,476.514,25.817,476.514z M25.817,500.514
		c-6.065,0-11-4.934-11-11c0-6.064,4.935-11,11-11s11,4.936,11,11C36.817,495.58,31.883,500.514,25.817,500.514z"/>
	<path d="M25.776,486.457c-0.557,0-1.072,0.162-1.52,0.428v-0.014l-4.422,2.586l4.328,2.529v-0.006
		c0.467,0.299,1.018,0.477,1.613,0.477c1.658,0,3-1.342,3-3C28.776,487.801,27.435,486.457,25.776,486.457z M25.776,490.457
		c-0.188,0-0.368-0.055-0.535-0.162l-1.355-0.865l1.393-0.826c0.164-0.098,0.332-0.146,0.498-0.146c0.552,0,1,0.447,1,1
		C26.776,490.008,26.328,490.457,25.776,490.457z"/>
</g>
<g>
	<rect x="-182.334" y="279.785" width="2" height="10"/>
	<rect x="-167.634" y="285.871" transform="matrix(0.7071 0.7071 -0.7071 0.7071 157.0155 203.0823)" width="2" height="10.409"/>
	<rect x="-201.243" y="290.081" transform="matrix(0.7071 0.7071 -0.7071 0.7071 148.4067 223.8757)" width="10.409" height="2"/>
	<polygon points="-188.002,309.039 -186.588,310.453 -182.334,306.199 -182.334,315.785 -180.334,315.785 -180.334,306.199 
		-176.081,310.453 -174.667,309.039 -181.334,302.371 	"/>
	<path d="M-168.327,305.784c0-0.002,0-0.004,0-0.006c0-7.18-5.82-12.999-13-12.999s-13,5.819-13,12.999c0,0.002,0,0.004,0,0.006h-13
		v2h18v-2h-3c0-0.002,0-0.004,0-0.006c0-6.064,4.935-10.999,11-10.999s11,4.935,11,10.999c0,0.002,0,0.004,0,0.006h-3v2h17.995v-2
		H-168.327z"/>
</g>
<g>
	<rect x="-78.589" y="278.598" width="2" height="10"/>
	<rect x="-63.889" y="284.684" transform="matrix(0.7071 0.7071 -0.7071 0.7071 186.5621 129.3756)" width="2" height="10.409"/>
	<rect x="-97.498" y="288.893" transform="matrix(0.7071 0.7071 -0.7071 0.7071 177.9532 150.169)" width="10.409" height="2"/>
	<polygon points="-76.589,313.145 -76.589,302.598 -78.589,302.598 -78.589,313.145 -82.843,308.891 -84.257,310.305 
		-77.589,316.973 -70.922,310.305 -72.336,308.891 	"/>
	<path d="M-64.582,304.597c0-0.002,0-0.004,0-0.006c0-7.18-5.82-12.999-13-12.999s-13,5.819-13,12.999c0,0.002,0,0.004,0,0.006h-13
		v2h22v-2h-7c0-0.002,0-0.004,0-0.006c0-6.064,4.935-10.999,11-10.999s11,4.935,11,10.999c0,0.002,0,0.004,0,0.006h-7v2h21.995v-2
		H-64.582z"/>
</g>
<g>
	<polygon points="125.769,312.61 125.769,298.228 123.769,298.228 123.769,312.61 119.515,308.356 118.101,309.771 124.769,316.438 
		131.436,309.771 130.021,308.356 	"/>
	<path d="M141.396,293.257c-1.596-7.445-8.207-13.029-16.127-13.029c-6.423,0-11.977,3.678-14.702,9.035
		c-0.266-0.018-0.53-0.04-0.8-0.04c-6.627,0-11.999,5.372-11.999,12c0,6.607,5.34,11.965,11.938,11.998v0.003h6.062v-2h-5.604
		l-0.447-0.003c-5.485-0.027-9.948-4.513-9.948-9.998c0-5.514,4.485-10,9.999-10c0.175,0,0.347,0.014,0.52,0.025l0.148,0.01
		l1.316,0.088l0.598-1.176c2.492-4.899,7.443-7.942,12.92-7.942c6.79,0,12.75,4.814,14.172,11.448l0.317,1.482l1.514,0.095
		c4.203,0.262,7.496,3.763,7.496,7.971c0,4.397-3.565,7.977-7.957,8c-0.05-0.003-0.093-0.005-0.137-0.007l-2.043,0.007h-4.863v2
		h6.863v-0.007c0.046,0.001,0.091,0.007,0.137,0.007c5.521,0,10-4.477,10-10C150.769,297.913,146.624,293.582,141.396,293.257z"/>
</g>
<g>
	<polygon points="31.753,309.415 33.167,308.001 26.5,301.333 19.832,308.001 21.246,309.415 25.5,305.161 25.5,317.747 
		27.5,317.747 27.5,305.161 	"/>
	<path d="M43.128,294.853c-1.596-7.445-8.207-13.029-16.127-13.029c-6.423,0-11.977,3.678-14.702,9.035
		c-0.266-0.018-0.53-0.04-0.8-0.04c-6.627,0-11.999,5.372-11.999,12c0,6.607,5.34,11.965,11.938,11.998v0.003H21.5v-2h-9.604
		l-0.447-0.003c-5.485-0.027-9.948-4.513-9.948-9.998c0-5.514,4.485-10,9.999-10c0.175,0,0.347,0.014,0.52,0.025l0.148,0.01
		l1.316,0.088l0.598-1.176c2.492-4.899,7.443-7.942,12.92-7.942c6.79,0,12.75,4.814,14.172,11.448l0.317,1.482l1.514,0.095
		c4.203,0.262,7.496,3.763,7.496,7.971c0,4.397-3.565,7.977-7.957,8c-0.05-0.003-0.093-0.005-0.137-0.007l-2.043,0.007H31.5v2
		h10.863v-0.007c0.046,0.001,0.091,0.007,0.137,0.007c5.521,0,10-4.477,10-10C52.5,299.509,48.355,295.178,43.128,294.853z"/>
</g>
<g>
	<path d="M245.617,105.337c-1.596-7.445-8.207-13.029-16.127-13.029c-6.423,0-11.977,3.678-14.702,9.035
		c-0.266-0.018-0.53-0.04-0.8-0.04c-6.627,0-11.999,5.372-11.999,12c0,6.607,5.34,11.965,11.938,11.998v0.003h2.062v-2h-1.604
		l-0.447-0.003c-5.485-0.027-9.948-4.513-9.948-9.998c0-5.514,4.485-10,9.999-10c0.175,0,0.347,0.014,0.52,0.025l0.148,0.01
		l1.316,0.088l0.598-1.176c2.492-4.899,7.443-7.942,12.92-7.942c6.79,0,12.75,4.814,14.172,11.448l0.317,1.482l1.514,0.095
		c4.203,0.262,7.496,3.763,7.496,7.971c0,4.397-3.565,7.977-7.957,8c-0.05-0.003-0.093-0.005-0.137-0.007l-2.043,0.007h-0.863v2
		h2.863v-0.007c0.046,0.001,0.091,0.007,0.137,0.007c5.521,0,10-4.477,10-10C254.989,109.993,250.845,105.662,245.617,105.337z"/>
	<polygon points="223.989,124.325 223.989,121.695 226.162,122.918 226.848,121.697 224.378,120.308 226.848,118.918 
		226.162,117.697 223.989,118.92 223.989,116.325 221.989,116.325 221.989,118.964 219.738,117.697 219.053,118.918 
		221.522,120.308 219.053,121.697 219.738,122.918 221.989,121.651 221.989,124.325 	"/>
	<polygon points="229.151,128.68 226.979,129.902 226.979,127.308 224.979,127.308 224.979,129.946 222.728,128.68 222.042,129.9 
		224.512,131.29 222.042,132.68 222.728,133.9 224.979,132.634 224.979,135.308 226.979,135.308 226.979,132.678 229.151,133.9 
		229.837,132.68 227.367,131.29 229.837,129.9 	"/>
	<polygon points="238.167,121.697 235.994,122.92 235.994,120.325 233.994,120.325 233.994,122.964 231.743,121.697 
		231.058,122.918 233.527,124.308 231.058,125.697 231.743,126.918 233.994,125.651 233.994,128.325 235.994,128.325 
		235.994,125.695 238.167,126.918 238.853,125.697 236.383,124.308 238.853,122.918 	"/>
</g>
<g>
	<rect x="321.129" y="87.285" width="2" height="7.973"/>
	<rect x="302.129" y="106.199" width="7.973" height="2"/>
	<rect x="306.802" y="94.933" transform="matrix(0.7071 0.7071 -0.7071 0.7071 158.8626 -191.663)" width="7.974" height="2"/>
	<rect x="332.311" y="91.951" transform="matrix(0.7071 0.7071 -0.7071 0.7071 165.4618 -207.587)" width="2" height="7.972"/>
	<path d="M351.641,113.075c-1.444-6.742-7.433-11.8-14.605-11.8c-2.185,0-4.258,0.471-6.127,1.314
		c-1.666-3.203-5.006-5.395-8.865-5.395c-5.522,0-10,4.477-10,9.999c0,2.46,0.899,4.702,2.373,6.442
		c-1.428,1.84-2.287,4.144-2.287,6.653c0,5.983,4.836,10.836,10.813,10.865v0.003h1.188v-2h-0.721l-0.457-0.003
		c-4.864-0.023-8.822-4.001-8.822-8.865c0-4.89,3.978-8.868,8.867-8.868c0.15,0,0.299,0.012,0.447,0.022l0.148,0.01l1.314,0.085
		l0.597-1.175c2.225-4.372,6.644-7.089,11.532-7.089c6.062,0,11.382,4.298,12.649,10.219l0.318,1.483l1.514,0.094
		c3.708,0.23,6.612,3.319,6.612,7.03c0,3.878-3.144,7.035-7.017,7.057c-0.042-0.003-0.079-0.005-0.117-0.005l-1.866,0.005v2h1.819
		v-0.006c0.042,0.001,0.082,0.006,0.124,0.006c5.001,0,9.057-4.054,9.057-9.057C360.129,117.292,356.375,113.37,351.641,113.075z
		 M323.721,109.458c-0.241-0.016-0.48-0.036-0.725-0.036c-2.766,0-5.282,1.041-7.2,2.742c-1.092-1.365-1.753-3.089-1.753-4.97
		c0-4.41,3.589-7.999,8-7.999c3.092,0,5.76,1.773,7.091,4.346C326.836,104.98,324.957,107.028,323.721,109.458z"/>
	<polygon points="331.121,130.178 331.121,127.548 333.294,128.771 333.979,127.55 331.51,126.16 333.979,124.771 333.294,123.55 
		331.121,124.772 331.121,122.178 329.121,122.178 329.121,124.816 326.87,123.55 326.185,124.771 328.654,126.16 326.185,127.55 
		326.87,128.771 329.121,127.504 329.121,130.178 	"/>
	<polygon points="336.283,134.532 334.11,135.755 334.11,133.16 332.11,133.16 332.11,135.799 329.859,134.532 329.174,135.753 
		331.644,137.143 329.174,138.532 329.859,139.753 332.11,138.486 332.11,141.16 334.11,141.16 334.11,138.53 336.283,139.753 
		336.969,138.532 334.499,137.143 336.969,135.753 	"/>
	<polygon points="345.299,127.55 343.126,128.772 343.126,126.178 341.126,126.178 341.126,128.816 338.875,127.55 338.189,128.771 
		340.659,130.16 338.189,131.55 338.875,132.771 341.126,131.504 341.126,134.178 343.126,134.178 343.126,131.548 345.299,132.771 
		345.984,131.55 343.515,130.16 345.984,128.771 	"/>
</g>
<g>
	<path d="M451.829,110.072c-1.444-6.742-7.433-11.8-14.605-11.8c-1.799,0-3.522,0.32-5.118,0.904
		c-0.949-5.108-5.404-8.98-10.788-8.98c-0.413,0-0.819,0.027-1.222,0.071c0.744,1.112,1.179,2.448,1.179,3.886c0,3.865-3.134,7-7,7
		c-1.438,0-2.773-0.435-3.886-1.179c-0.044,0.401-0.071,0.809-0.071,1.222c0,3.713,1.845,6.987,4.661,8.979
		c-1.653,1.907-2.661,4.389-2.661,7.111c0,5.983,4.836,10.836,10.813,10.865v0.003h1.188v-2h-0.721l-0.457-0.003
		c-4.864-0.023-8.822-4.001-8.822-8.865c0-4.89,3.978-8.868,8.867-8.868c0.15,0,0.299,0.012,0.447,0.022l0.148,0.01l1.314,0.085
		l0.597-1.175c2.225-4.372,6.644-7.089,11.532-7.089c6.062,0,11.382,4.298,12.649,10.219l0.318,1.483l1.514,0.094
		c3.708,0.23,6.612,3.319,6.612,7.03c0,3.878-3.144,7.035-7.017,7.057c-0.042-0.003-0.079-0.005-0.117-0.005l-1.866,0.005v2h1.819
		v-0.006c0.042,0.001,0.082,0.006,0.124,0.006c5.001,0,9.057-4.054,9.057-9.057C460.317,114.289,456.563,110.367,451.829,110.072z
		 M423.909,106.455c-0.241-0.016-0.48-0.036-0.725-0.036c-2.537,0-4.865,0.877-6.715,2.334c-2.012-1.294-3.486-3.354-3.976-5.776
		c0.582,0.117,1.178,0.177,1.78,0.177c4.963,0,9-4.037,9-9c0-0.603-0.06-1.198-0.177-1.78c3.733,0.753,6.629,3.824,7.134,7.64
		C427.519,101.457,425.304,103.712,423.909,106.455z"/>
	<polygon points="431.354,127.175 431.354,124.545 433.527,125.768 434.213,124.547 431.743,123.157 434.213,121.768 
		433.527,120.547 431.354,121.77 431.354,119.175 429.354,119.175 429.354,121.813 427.104,120.547 426.418,121.768 
		428.888,123.157 426.418,124.547 427.104,125.768 429.354,124.501 429.354,127.175 	"/>
	<polygon points="436.517,131.529 434.344,132.752 434.344,130.157 432.344,130.157 432.344,132.796 430.093,131.529 
		429.407,132.75 431.877,134.14 429.407,135.529 430.093,136.75 432.344,135.483 432.344,138.157 434.344,138.157 434.344,135.527 
		436.517,136.75 437.202,135.529 434.732,134.14 437.202,132.75 	"/>
	<polygon points="445.532,124.547 443.359,125.77 443.359,123.175 441.359,123.175 441.359,125.813 439.108,124.547 
		438.423,125.768 440.893,127.157 438.423,128.547 439.108,129.768 441.359,128.501 441.359,131.175 443.359,131.175 
		443.359,128.545 445.532,129.768 446.218,128.547 443.748,127.157 446.218,125.768 	"/>
</g>
<rect x="-164.529" y="-457.678" fill="none" width="472.974" height="180.918"/>
<text transform="matrix(1 0 0 1 15.1079 -386.2788)"><tspan x="0" y="0" font-family="'HelveticaNeueLTStd-Th'" font-size="100" letter-spacing="2">60</tspan><tspan x="-99.268" y="60" font-family="'HelveticaNeueLTStd-Lt'" font-size="48" letter-spacing="1">Weather Icons</tspan><tspan x="-3.726" y="104" font-family="'HelveticaNeueLTStd-Lt'" font-size="24">IOS 7 Style</tspan></text>
</svg>
