<?xml version="1.0" encoding="utf-8"?>
<!-- Generator: Adobe Illustrator 16.0.0, SVG Export Plug-In . SVG Version: 6.00 Build 0)  -->
<!DOCTYPE svg PUBLIC "-//W3C//DTD SVG 1.1//EN" "http://www.w3.org/Graphics/SVG/1.1/DTD/svg11.dtd">
<svg version="1.1" id="Layer_1" xmlns="http://www.w3.org/2000/svg" xmlns:xlink="http://www.w3.org/1999/xlink" x="0px" y="0px"
	 width="58px" height="54.876px" viewBox="0 0 58 54.876" enable-background="new 0 0 58 54.876" xml:space="preserve">
<path d="M137.695,284.942l-1.803,15.077l-0.268,2.237h2.254h6.896l-14.693,18.759l1.789-14.52l0.277-2.245h-2.262h-6.957
	L137.695,284.942 M140.55,277.918l-21.667,28.333h11.004l-2.671,21.667l21.667-27.661h-11.004L140.55,277.918L140.55,277.918z"/>
<path d="M-275.34-177.318c6.79,0,12.749,4.814,14.171,11.448l0.318,1.483l1.514,0.094c4.203,0.262,7.496,3.763,7.496,7.971
	c0,4.396-3.565,7.977-7.957,8c-0.046-0.003-0.091-0.006-0.137-0.007l-2.043-0.036v0.043h-28.337l-0.578-0.003
	c-5.485-0.027-9.948-4.513-9.948-9.998c0-5.514,4.485-10,9.999-10c0.175,0,0.347,0.014,0.519,0.025l0.149,0.011l1.316,0.087
	l0.598-1.176C-285.767-174.275-280.816-177.318-275.34-177.318 M-275.34-179.318c-6.423,0-11.977,3.678-14.702,9.035
	c-0.266-0.018-0.53-0.04-0.8-0.04c-6.627,0-11.999,5.372-11.999,12c0,6.607,5.34,11.965,11.938,11.998v0.003h30.925v-0.007
	c0.046,0.001,0.091,0.007,0.137,0.007c5.521,0,10-4.477,10-10c0-5.311-4.145-9.642-9.372-9.967
	C-260.809-173.734-267.42-179.318-275.34-179.318L-275.34-179.318z"/>
<g>
	<path d="M-152.389-158.907c-1.444-6.742-7.433-11.8-14.605-11.8c-2.185,0-4.258,0.47-6.127,1.313
		c-1.666-3.202-5.006-5.394-8.865-5.394c-5.522,0-10,4.477-10,9.999c0,2.46,0.898,4.702,2.373,6.442
		c-1.428,1.84-2.287,4.144-2.287,6.653c0,5.983,4.836,10.836,10.813,10.865v0.003h28.007v-0.006
		c0.042,0.001,0.082,0.006,0.124,0.006c5.001,0,9.057-4.054,9.057-9.057C-143.9-154.69-147.654-158.612-152.389-158.907z
		 M-181.986-172.787c3.092,0,5.76,1.773,7.092,4.345c-2.299,1.44-4.178,3.488-5.414,5.918c-0.241-0.016-0.48-0.036-0.725-0.036
		c-2.766,0-5.281,1.041-7.2,2.743c-1.092-1.366-1.753-3.09-1.753-4.971C-189.986-169.198-186.397-172.787-181.986-172.787z
		 M-152.917-142.824c-0.038-0.003-0.077-0.004-0.117-0.005l-2.047-0.042v0.047h-25.403l-0.594-0.003
		c-4.864-0.023-8.822-4.001-8.822-8.865c0-4.89,3.978-8.868,8.867-8.868c0.15,0,0.299,0.012,0.447,0.021l0.148,0.011l1.314,0.085
		l0.598-1.174c2.224-4.373,6.643-7.09,11.531-7.09c6.062,0,11.381,4.298,12.65,10.219l0.317,1.482l1.514,0.095
		c3.708,0.231,6.612,3.319,6.612,7.03C-145.9-146.003-149.044-142.847-152.917-142.824z"/>
	<rect x="-182.98" y="-184.817" width="2" height="7.973"/>
	<rect x="-201.953" y="-165.831" width="7.973" height="2"/>
	<rect x="-197.227" y="-177.05" transform="matrix(0.7071 0.7071 -0.7071 0.7071 -181.0848 85.0777)" width="7.974" height="2"/>
	<rect x="-171.719" y="-180.032" transform="matrix(0.7071 0.7071 -0.7071 0.7071 -174.4856 69.1537)" width="2" height="7.972"/>
</g>
<path d="M-56.646-162.935c-1.444-6.742-7.433-11.8-14.605-11.8c-1.799,0-3.521,0.32-5.118,0.904
	c-0.949-5.108-5.404-8.98-10.788-8.98c-0.413,0-0.819,0.027-1.222,0.071c0.744,1.112,1.179,2.448,1.179,3.886c0,3.865-3.134,7-7,7
	c-1.438,0-2.773-0.435-3.886-1.179c-0.044,0.401-0.071,0.809-0.071,1.222c0,3.712,1.845,6.987,4.661,8.979
	c-1.653,1.907-2.661,4.389-2.661,7.111c0,5.983,4.836,10.836,10.813,10.865v0.003h28.007v-0.006
	c0.042,0.001,0.082,0.006,0.124,0.006c5.001,0,9.057-4.054,9.057-9.057C-48.157-158.718-51.911-162.64-56.646-162.935z
	 M-95.98-170.03c0.582,0.117,1.178,0.177,1.78,0.177c4.963,0,9-4.037,9-9c0-0.603-0.06-1.198-0.177-1.78
	c3.733,0.753,6.629,3.824,7.134,7.64c-2.713,1.444-4.928,3.699-6.322,6.442c-0.241-0.016-0.48-0.036-0.725-0.036
	c-2.537,0-4.865,0.876-6.715,2.334C-94.017-165.548-95.491-167.607-95.98-170.03z M-57.174-146.852
	c-0.038-0.003-0.077-0.004-0.117-0.005l-2.047-0.042v0.047h-25.403l-0.594-0.003c-4.864-0.023-8.822-4.001-8.822-8.865
	c0-4.89,3.978-8.868,8.867-8.868c0.15,0,0.299,0.012,0.447,0.021l0.148,0.011l1.314,0.085l0.598-1.174
	c2.224-4.373,6.643-7.09,11.531-7.09c6.062,0,11.381,4.298,12.65,10.219l0.317,1.482l1.514,0.095
	c3.708,0.231,6.612,3.319,6.612,7.03C-50.157-150.03-53.301-146.874-57.174-146.852z"/>
<g>
	<rect x="28" y="-154.312" width="2" height="7"/>
	<rect x="36" y="-158.312" width="2" height="7"/>
	<rect x="20" y="-158.312" width="2" height="7"/>
	<rect x="28" y="-144.312" width="2" height="7"/>
	<rect x="36" y="-148.312" width="2" height="7"/>
	<rect x="20" y="-148.312" width="2" height="7"/>
	<path d="M46.628-171.3c-1.596-7.445-8.207-13.029-16.127-13.029c-6.423,0-11.977,3.678-14.702,9.035
		c-0.266-0.018-0.53-0.04-0.8-0.04c-6.627,0-11.999,5.372-11.999,12c0,6.607,5.34,11.965,11.938,11.998v0.003H17v-2h-1.604
		l-0.447-0.003C9.463-153.363,5-157.849,5-163.334c0-5.514,4.485-10,9.999-10c0.175,0,0.347,0.014,0.52,0.025l0.148,0.01
		l1.316,0.088l0.598-1.176c2.492-4.899,7.443-7.942,12.92-7.942c6.79,0,12.75,4.814,14.172,11.448l0.317,1.482l1.514,0.095
		c4.203,0.262,7.496,3.763,7.496,7.971c0,4.397-3.565,7.977-7.957,8c-0.05-0.003-0.093-0.005-0.137-0.007l-2.043,0.007H41v2h4.863
		v-0.007c0.046,0.001,0.091,0.007,0.137,0.007c5.521,0,10-4.477,10-10C56-166.644,51.855-170.975,46.628-171.3z"/>
</g>
<g>
	<path d="M-155.799-81.942c-1.596-7.445-8.207-13.029-16.127-13.029c-6.423,0-11.977,3.678-14.702,9.035
		c-0.266-0.018-0.53-0.04-0.8-0.04c-6.627,0-11.999,5.372-11.999,12c0,6.607,5.34,11.965,11.938,11.998v0.003h2.062v-2h-1.604
		l-0.447-0.003c-5.485-0.027-9.948-4.513-9.948-9.998c0-5.514,4.485-10,9.999-10c0.175,0,0.347,0.014,0.52,0.025l0.148,0.01
		l1.316,0.088l0.598-1.176c2.492-4.899,7.443-7.942,12.92-7.942c6.79,0,12.75,4.814,14.172,11.448l0.317,1.482l1.514,0.095
		c4.203,0.262,7.496,3.763,7.496,7.971c0,4.397-3.565,7.977-7.957,8c-0.05-0.003-0.093-0.005-0.137-0.007l-2.043,0.007h-2.863v2
		h4.863v-0.007c0.046,0.001,0.091,0.007,0.137,0.007c5.521,0,10-4.477,10-10C-146.427-77.286-150.571-81.617-155.799-81.942z"/>
	<polygon points="-174.427,-54.947 -174.427,-53.007 -174.427,-46.947 -172.427,-46.947 -172.427,-53.007 -172.427,-54.947 
		-172.427,-66.947 -174.427,-66.947 	"/>
	<polygon points="-166.427,-58.947 -166.427,-57.194 -166.427,-50.947 -164.427,-50.947 -164.427,-57.194 -164.427,-58.947 
		-164.427,-70.947 -166.427,-70.947 	"/>
	<polygon points="-182.427,-58.947 -182.427,-56.882 -182.427,-50.947 -180.427,-50.947 -180.427,-56.882 -180.427,-58.947 
		-180.427,-70.947 -182.427,-70.947 	"/>
</g>
<g>
	<polygon points="139.851,-58.036 132.968,-67.866 131.33,-66.719 138.213,-56.889 139.325,-55.3 142.801,-50.336 144.439,-51.482 
		140.964,-56.447 	"/>
	<polygon points="147.853,-58.038 140.968,-67.866 139.33,-66.718 146.216,-56.89 147.221,-55.454 150.805,-50.339 152.443,-51.485 
		148.859,-56.602 	"/>
	<polygon points="131.851,-58.036 124.968,-67.866 123.33,-66.718 130.213,-56.889 131.397,-55.196 134.802,-50.335 
		136.439,-51.482 133.036,-56.344 	"/>
	<path d="M150.958-81.676c-1.596-7.445-8.207-13.029-16.127-13.029c-6.423,0-11.977,3.678-14.702,9.035
		c-0.266-0.018-0.53-0.04-0.8-0.04c-6.627,0-11.999,5.372-11.999,12c0,6.607,5.34,11.965,11.938,11.998v0.003h2.062v-2h-1.604
		l-0.447-0.003c-5.485-0.027-9.948-4.513-9.948-9.998c0-5.514,4.485-10,9.999-10c0.175,0,0.347,0.014,0.52,0.025l0.148,0.01
		l1.316,0.088l0.598-1.176c2.492-4.899,7.443-7.942,12.92-7.942c6.79,0,12.75,4.814,14.172,11.448l0.317,1.482l1.514,0.095
		c4.203,0.262,7.496,3.763,7.496,7.971c0,4.397-3.565,7.977-7.957,8c-0.05-0.003-0.093-0.005-0.137-0.007l-1.043,0.007h0.137v2
		h0.863v-0.007c0.046,0.001,0.091,0.007,0.137,0.007c5.521,0,10-4.477,10-10C160.33-77.02,156.186-81.351,150.958-81.676z"/>
</g>
<g>
	<rect x="122.656" y="-190.758" width="2" height="7.973"/>
	<rect x="103.656" y="-171.844" width="7.973" height="2"/>
	<rect x="108.329" y="-183.11" transform="matrix(0.7071 0.7071 -0.7071 0.7071 -95.8748 -132.7586)" width="7.974" height="2"/>
	<rect x="133.838" y="-186.092" transform="matrix(0.7071 0.7071 -0.7071 0.7071 -89.2756 -148.6825)" width="2" height="7.972"/>
	<rect x="136.656" y="-149.885" width="2" height="7"/>
	<rect x="144.656" y="-153.885" width="2" height="7"/>
	<rect x="128.656" y="-153.885" width="2" height="7"/>
	<rect x="136.656" y="-139.885" width="2" height="7"/>
	<rect x="144.656" y="-143.885" width="2" height="7"/>
	<rect x="128.656" y="-143.885" width="2" height="7"/>
	<path d="M153.168-164.968c-1.444-6.742-7.433-11.8-14.605-11.8c-2.185,0-4.258,0.47-6.126,1.313
		c-1.667-3.202-5.007-5.394-8.866-5.394c-5.522,0-10,4.477-10,9.999c0,2.46,0.899,4.702,2.373,6.442
		c-1.429,1.84-2.287,4.144-2.287,6.653c0,5.983,4.836,10.836,10.813,10.865v0.003h1.188v-2h-0.721l-0.457-0.003
		c-4.864-0.023-8.822-4.001-8.822-8.865c0-4.89,3.978-8.868,8.867-8.868c0.15,0,0.299,0.012,0.447,0.022l0.148,0.01l1.314,0.085
		l0.597-1.175c2.225-4.372,6.644-7.089,11.532-7.089c6.062,0,11.382,4.298,12.649,10.219l0.318,1.483l1.514,0.094
		c3.708,0.23,6.612,3.319,6.612,7.03c0,3.878-3.144,7.035-7.017,7.057c-0.042-0.003-0.079-0.005-0.117-0.005l-2.047,0.005h-0.819v2
		h2.819v-0.006c0.042,0.001,0.082,0.006,0.124,0.006c5.001,0,9.057-4.054,9.057-9.057
		C161.656-160.751,157.902-164.673,153.168-164.968z M125.248-168.585c-0.241-0.016-0.48-0.036-0.725-0.036
		c-2.766,0-5.282,1.041-7.2,2.743c-1.092-1.366-1.753-3.09-1.753-4.971c0-4.41,3.589-7.999,8-7.999c3.091,0,5.76,1.773,7.091,4.345
		C128.363-173.063,126.483-171.015,125.248-168.585z"/>
</g>
<g>
	<rect x="237.073" y="-151.332" width="2" height="7"/>
	<rect x="245.073" y="-155.332" width="2" height="7"/>
	<rect x="229.073" y="-155.332" width="2" height="7"/>
	<rect x="237.073" y="-141.332" width="2" height="7"/>
	<rect x="245.073" y="-145.332" width="2" height="7"/>
	<rect x="229.073" y="-145.332" width="2" height="7"/>
	<path d="M253.585-166.415c-1.444-6.742-7.433-11.8-14.605-11.8c-1.799,0-3.522,0.32-5.118,0.904
		c-0.949-5.108-5.404-8.98-10.788-8.98c-0.413,0-0.819,0.027-1.222,0.071c0.744,1.112,1.179,2.448,1.179,3.886c0,3.865-3.134,7-7,7
		c-1.438,0-2.773-0.435-3.886-1.179c-0.044,0.401-0.071,0.809-0.071,1.222c0,3.712,1.845,6.987,4.661,8.979
		c-1.653,1.907-2.661,4.389-2.661,7.111c0,5.983,4.836,10.836,10.813,10.865v0.003h1.188v-2h-0.721l-0.457-0.003
		c-4.864-0.023-8.822-4.001-8.822-8.865c0-4.89,3.978-8.868,8.867-8.868c0.15,0,0.299,0.012,0.447,0.022l0.148,0.01l1.314,0.085
		l0.597-1.175c2.225-4.372,6.644-7.089,11.532-7.089c6.062,0,11.382,4.298,12.649,10.219l0.318,1.483l1.514,0.094
		c3.708,0.23,6.612,3.319,6.612,7.03c0,3.878-3.144,7.035-7.017,7.057c-0.042-0.003-0.079-0.005-0.117-0.005l-2.047,0.005h-0.819v2
		h2.819v-0.006c0.042,0.001,0.082,0.006,0.124,0.006c5.001,0,9.057-4.054,9.057-9.057
		C262.073-162.198,258.319-166.12,253.585-166.415z M225.665-170.032c-0.241-0.016-0.48-0.036-0.725-0.036
		c-2.537,0-4.865,0.876-6.715,2.334c-2.012-1.294-3.487-3.354-3.976-5.776c0.582,0.117,1.178,0.177,1.78,0.177c4.963,0,9-4.037,9-9
		c0-0.603-0.06-1.198-0.177-1.78c3.733,0.753,6.629,3.824,7.133,7.64C229.275-175.03,227.061-172.775,225.665-170.032z"/>
</g>
<g>
	<polygon points="-70.157,-50.509 -70.157,-48.568 -70.157,-42.509 -68.157,-42.509 -68.157,-48.568 -68.157,-50.509 
		-68.157,-62.509 -70.157,-62.509 	"/>
	<polygon points="-62.157,-54.509 -62.157,-52.756 -62.157,-46.509 -60.157,-46.509 -60.157,-52.756 -60.157,-54.509 
		-60.157,-66.509 -62.157,-66.509 	"/>
	<polygon points="-78.157,-54.509 -78.157,-52.443 -78.157,-46.509 -76.157,-46.509 -76.157,-52.443 -76.157,-54.509 
		-76.157,-66.509 -78.157,-66.509 	"/>
	<rect x="-84.157" y="-101.411" width="2" height="7.973"/>
	<rect x="-103.157" y="-82.497" width="7.973" height="2"/>
	<rect x="-98.484" y="-93.764" transform="matrix(0.7071 0.7071 -0.7071 0.7071 -93.2714 39.6497)" width="7.974" height="2"/>
	<rect x="-72.975" y="-96.746" transform="matrix(0.7071 0.7071 -0.7071 0.7071 -86.6722 23.7257)" width="2" height="7.972"/>
	<path d="M-53.646-75.621c-1.444-6.742-7.433-11.8-14.605-11.8c-2.185,0-4.258,0.47-6.127,1.313
		c-1.666-3.202-5.006-5.394-8.865-5.394c-5.522,0-10,4.477-10,9.999c0,2.46,0.898,4.702,2.373,6.442
		c-1.428,1.84-2.287,4.144-2.287,6.653c0,5.983,4.836,10.836,10.813,10.865v0.003h1.188v-2h-0.721l-0.457-0.003
		c-4.864-0.023-8.822-4.001-8.822-8.865c0-4.89,3.978-8.868,8.867-8.868c0.15,0,0.299,0.012,0.447,0.022l0.148,0.01l1.314,0.085
		l0.597-1.175c2.225-4.372,6.644-7.089,11.532-7.089c6.062,0,11.382,4.298,12.649,10.219l0.318,1.483l1.514,0.094
		c3.708,0.23,6.612,3.319,6.612,7.03c0,3.878-3.144,7.035-7.017,7.057c-0.042-0.003-0.079-0.005-0.117-0.005l-2.047,0.005h-0.819v2
		h2.819v-0.006c0.042,0.001,0.082,0.006,0.124,0.006c5.001,0,9.057-4.054,9.057-9.057C-45.157-71.404-48.911-75.326-53.646-75.621z
		 M-81.565-79.238c-0.241-0.016-0.48-0.036-0.725-0.036c-2.766,0-5.281,1.042-7.2,2.743c-1.092-1.367-1.753-3.09-1.753-4.971
		c0-4.41,3.589-7.999,8-7.999c3.092,0,5.76,1.773,7.092,4.345C-78.45-83.717-80.329-81.668-81.565-79.238z"/>
</g>
<g>
	<polygon points="30.24,-53.025 30.24,-51.085 30.24,-45.025 32.24,-45.025 32.24,-51.085 32.24,-53.025 32.24,-65.025 
		30.24,-65.025 	"/>
	<polygon points="38.24,-57.025 38.24,-55.272 38.24,-49.025 40.24,-49.025 40.24,-55.272 40.24,-57.025 40.24,-69.025 
		38.24,-69.025 	"/>
	<polygon points="22.24,-57.025 22.24,-54.96 22.24,-49.025 24.24,-49.025 24.24,-54.96 24.24,-57.025 24.24,-69.025 22.24,-69.025 
			"/>
	<path d="M46.752-78.138c-1.444-6.742-7.433-11.8-14.605-11.8c-1.799,0-3.521,0.32-5.118,0.904c-0.949-5.108-5.404-8.98-10.788-8.98
		c-0.413,0-0.819,0.027-1.222,0.071c0.744,1.112,1.179,2.448,1.179,3.886c0,3.865-3.134,7-7,7c-1.438,0-2.773-0.435-3.886-1.179
		c-0.044,0.401-0.071,0.809-0.071,1.222c0,3.712,1.845,6.987,4.661,8.979c-1.653,1.907-2.661,4.389-2.661,7.111
		c0,5.983,4.836,10.836,10.813,10.865v0.003h1.188v-2H18.52l-0.457-0.003c-4.864-0.023-8.822-4.001-8.822-8.865
		c0-4.89,3.978-8.868,8.867-8.868c0.15,0,0.299,0.012,0.447,0.022l0.148,0.01l1.314,0.085l0.597-1.175
		c2.225-4.372,6.644-7.089,11.532-7.089c6.062,0,11.382,4.298,12.649,10.219l0.318,1.483l1.514,0.094
		c3.708,0.23,6.612,3.319,6.612,7.03c0,3.878-3.144,7.035-7.017,7.057c-0.042-0.003-0.079-0.005-0.117-0.005l-2.047,0.005H43.24v2
		h2.819v-0.006c0.042,0.001,0.082,0.006,0.124,0.006c5.001,0,9.057-4.054,9.057-9.057C55.24-73.921,51.486-77.843,46.752-78.138z
		 M18.832-81.755c-0.241-0.016-0.48-0.036-0.725-0.036c-2.537,0-4.865,0.876-6.715,2.334c-2.012-1.294-3.486-3.354-3.976-5.776
		c0.582,0.117,1.178,0.177,1.78,0.177c4.963,0,9-4.037,9-9c0-0.603-0.06-1.198-0.177-1.78c3.733,0.753,6.629,3.824,7.134,7.641
		C22.441-86.753,20.227-84.497,18.832-81.755z"/>
</g>
<g>
	<polygon points="247.275,-52.081 240.393,-61.911 238.755,-60.764 245.638,-50.934 246.75,-49.345 250.226,-44.381 
		251.864,-45.527 248.389,-50.492 	"/>
	<polygon points="255.277,-52.083 248.393,-61.911 246.755,-60.763 253.641,-50.935 254.646,-49.499 258.229,-44.384 
		259.868,-45.53 256.284,-50.646 	"/>
	<polygon points="239.275,-52.081 232.393,-61.911 230.755,-60.763 237.638,-50.934 238.822,-49.241 242.227,-44.38 
		243.864,-45.527 240.461,-50.389 	"/>
	<rect x="226.755" y="-99.63" width="2" height="7.973"/>
	<rect x="207.755" y="-80.716" width="7.973" height="2"/>
	<rect x="212.428" y="-91.982" transform="matrix(0.7071 0.7071 -0.7071 0.7071 -0.9478 -179.6767)" width="7.974" height="2"/>
	<rect x="237.937" y="-94.964" transform="matrix(0.7071 0.7071 -0.7071 0.7071 5.6514 -195.6006)" width="2" height="7.972"/>
	<path d="M257.267-73.84c-1.444-6.742-7.433-11.8-14.605-11.8c-2.185,0-4.258,0.47-6.126,1.313
		c-1.667-3.202-5.007-5.394-8.866-5.394c-5.522,0-10,4.477-10,9.999c0,2.46,0.899,4.702,2.373,6.442
		c-1.429,1.84-2.287,4.144-2.287,6.653c0,5.983,4.836,10.836,10.813,10.865v0.003h1.188v-2h-0.721l-0.457-0.003
		c-4.864-0.023-8.822-4.001-8.822-8.865c0-4.89,3.978-8.868,8.867-8.868c0.15,0,0.299,0.012,0.447,0.022l0.148,0.01l1.314,0.085
		l0.597-1.175c2.225-4.372,6.644-7.089,11.532-7.089c6.062,0,11.382,4.298,12.649,10.219l0.318,1.483l1.514,0.094
		c3.708,0.23,6.612,3.319,6.612,7.03c0,3.878-3.144,7.035-7.017,7.057c-0.042-0.003-0.079-0.005-0.117-0.005l-0.047,0.005h-0.819v2
		h0.819v-0.006c0.042,0.001,0.082,0.006,0.124,0.006c5.001,0,9.057-4.054,9.057-9.057C265.755-69.623,262.001-73.545,257.267-73.84z
		 M229.347-77.457c-0.241-0.016-0.48-0.036-0.725-0.036c-2.766,0-5.282,1.042-7.2,2.743c-1.092-1.367-1.753-3.09-1.753-4.971
		c0-4.41,3.589-7.999,8-7.999c3.091,0,5.76,1.773,7.091,4.345C232.462-81.936,230.582-79.887,229.347-77.457z"/>
</g>
<g>
	<polygon points="-476.155,44.404 -483.038,34.574 -484.676,35.722 -477.793,45.552 -476.681,47.141 -473.205,52.104 
		-471.566,50.958 -475.042,45.993 	"/>
	<polygon points="-468.153,44.402 -475.038,34.574 -476.676,35.723 -469.79,45.551 -468.785,46.986 -465.201,52.102 
		-463.563,50.955 -467.146,45.839 	"/>
	<polygon points="-484.155,44.404 -491.038,34.574 -492.676,35.723 -485.793,45.552 -484.608,47.244 -481.204,52.105 
		-479.566,50.958 -482.97,46.097 	"/>
	<path d="M-466.164,22.646c-1.444-6.742-7.433-11.8-14.605-11.8c-1.799,0-3.522,0.32-5.118,0.904
		c-0.949-5.108-5.404-8.98-10.788-8.98c-0.413,0-0.819,0.027-1.222,0.071c0.744,1.112,1.179,2.448,1.179,3.886c0,3.865-3.134,7-7,7
		c-1.438,0-2.773-0.435-3.886-1.179c-0.044,0.401-0.071,0.809-0.071,1.222c0,3.712,1.845,6.987,4.661,8.979
		c-1.653,1.907-2.661,4.389-2.661,7.111c0,5.983,4.836,10.836,10.813,10.865v0.003h1.188v-2h-0.721l-0.457-0.003
		c-4.864-0.023-8.822-4.001-8.822-8.865c0-4.89,3.978-8.868,8.867-8.868c0.15,0,0.299,0.012,0.447,0.022l0.148,0.01l1.314,0.085
		l0.597-1.175c2.225-4.372,6.644-7.089,11.532-7.089c6.062,0,11.382,4.298,12.649,10.219l0.318,1.483l1.514,0.094
		c3.708,0.23,6.612,3.319,6.612,7.03c0,3.878-3.144,7.035-7.017,7.057c-0.042-0.003-0.079-0.005-0.117-0.005l-0.047,0.005h-0.819v2
		h0.819v-0.006c0.042,0.001,0.082,0.006,0.124,0.006c5.001,0,9.057-4.054,9.057-9.057C-457.676,26.862-461.43,22.94-466.164,22.646z
		 M-494.084,19.028c-0.241-0.016-0.48-0.036-0.725-0.036c-2.537,0-4.865,0.876-6.715,2.334c-2.012-1.294-3.487-3.354-3.976-5.776
		c0.582,0.117,1.178,0.177,1.78,0.177c4.963,0,9-4.037,9-9c0-0.603-0.06-1.198-0.177-1.78c3.733,0.753,6.629,3.824,7.133,7.641
		C-490.474,14.03-492.688,16.286-494.084,19.028z"/>
</g>
<g>
	<rect x="-483.676" y="-59.442" width="2" height="4"/>
	<rect x="-475.676" y="-63.464" width="2" height="4.021"/>
	<rect x="-491.676" y="-63.464" width="2" height="4.021"/>
	<path d="M-465.048-79.431c-1.596-7.445-8.207-13.029-16.127-13.029c-6.423,0-11.977,3.678-14.702,9.035
		c-0.266-0.018-0.53-0.04-0.8-0.04c-6.627,0-11.999,5.372-11.999,12c0,6.607,5.34,11.965,11.938,11.998v0.003h2.062v-2h-1.604
		l-0.447-0.003c-5.485-0.027-9.948-4.513-9.948-9.998c0-5.514,4.485-10,9.999-10c0.175,0,0.347,0.014,0.52,0.025l0.148,0.01
		l1.316,0.088l0.598-1.176c2.492-4.899,7.443-7.942,12.92-7.942c6.79,0,12.75,4.814,14.172,11.448l0.317,1.482l1.514,0.095
		c4.203,0.262,7.496,3.763,7.496,7.971c0,4.397-3.565,7.977-7.957,8c-0.05-0.003-0.093-0.005-0.137-0.007l-2.043,0.007h-2.863v2
		h4.863v-0.007c0.046,0.001,0.091,0.007,0.137,0.007c5.521,0,10-4.477,10-10C-455.676-74.774-459.82-79.105-465.048-79.431z"/>
	<circle cx="-474.676" cy="-54.422" r="1.5"/>
	<circle cx="-482.676" cy="-50.453" r="1.5"/>
	<circle cx="-490.676" cy="-54.464" r="1.5"/>
</g>
<g>
	<rect x="-390.755" y="-98.896" width="2" height="7.973"/>
	<rect x="-409.755" y="-79.982" width="7.973" height="2"/>
	<rect x="-405.082" y="-91.249" transform="matrix(0.7071 0.7071 -0.7071 0.7071 -181.2936 257.1835)" width="7.974" height="2"/>
	<rect x="-379.573" y="-94.231" transform="matrix(0.7071 0.7071 -0.7071 0.7071 -174.6945 241.2595)" width="2" height="7.972"/>
	<path d="M-360.243-73.106c-1.444-6.742-7.433-11.8-14.605-11.8c-2.185,0-4.258,0.47-6.126,1.313
		c-1.667-3.202-5.007-5.394-8.866-5.394c-5.522,0-10,4.477-10,9.999c0,2.46,0.899,4.702,2.373,6.442
		c-1.429,1.84-2.287,4.144-2.287,6.653c0,5.983,4.836,10.836,10.813,10.865v0.003h1.188v-2h-0.721l-0.457-0.003
		c-4.864-0.023-8.822-4.001-8.822-8.865c0-4.89,3.978-8.868,8.867-8.868c0.15,0,0.299,0.012,0.447,0.022l0.148,0.01l1.314,0.085
		l0.597-1.175c2.225-4.372,6.644-7.089,11.532-7.089c6.062,0,11.382,4.298,12.649,10.219l0.318,1.483l1.514,0.094
		c3.708,0.23,6.612,3.319,6.612,7.03c0,3.878-3.144,7.035-7.017,7.057c-0.042-0.003-0.079-0.005-0.117-0.005l-2.047,0.005h-0.819v2
		h2.819v-0.006c0.042,0.001,0.082,0.006,0.124,0.006c5.001,0,9.057-4.054,9.057-9.057C-351.755-68.89-355.509-72.812-360.243-73.106
		z M-388.163-76.724c-0.241-0.016-0.48-0.036-0.725-0.036c-2.766,0-5.282,1.042-7.2,2.743c-1.092-1.367-1.753-3.09-1.753-4.971
		c0-4.41,3.589-7.999,8-7.999c3.091,0,5.76,1.773,7.091,4.345C-385.048-81.202-386.928-79.153-388.163-76.724z"/>
	<rect x="-376.755" y="-55.008" width="2" height="4"/>
	<rect x="-368.755" y="-59.029" width="2" height="4.021"/>
	<rect x="-384.755" y="-59.029" width="2" height="4.021"/>
	<circle cx="-367.755" cy="-49.987" r="1.5"/>
	<circle cx="-375.755" cy="-46.019" r="1.5"/>
	<circle cx="-383.755" cy="-50.029" r="1.5"/>
</g>
<g>
	<path d="M-259.317-74.063c-1.444-6.742-7.433-11.8-14.605-11.8c-1.799,0-3.522,0.32-5.118,0.904
		c-0.949-5.108-5.404-8.98-10.788-8.98c-0.413,0-0.819,0.027-1.222,0.071c0.744,1.112,1.179,2.448,1.179,3.886c0,3.865-3.134,7-7,7
		c-1.438,0-2.773-0.435-3.886-1.179c-0.044,0.401-0.071,0.809-0.071,1.222c0,3.712,1.845,6.987,4.661,8.979
		c-1.653,1.907-2.661,4.389-2.661,7.111c0,5.983,4.836,10.836,10.813,10.865v0.003h1.188v-2h-0.721l-0.457-0.003
		c-4.864-0.023-8.822-4.001-8.822-8.865c0-4.89,3.978-8.868,8.867-8.868c0.15,0,0.299,0.012,0.447,0.022l0.148,0.01l1.314,0.085
		l0.597-1.175c2.225-4.372,6.644-7.089,11.532-7.089c6.062,0,11.382,4.298,12.649,10.219l0.318,1.483l1.514,0.094
		c3.708,0.23,6.612,3.319,6.612,7.03c0,3.878-3.144,7.035-7.017,7.057c-0.042-0.003-0.079-0.005-0.117-0.005l-2.047,0.005h-0.819v2
		h2.819v-0.006c0.042,0.001,0.082,0.006,0.124,0.006c5.001,0,9.057-4.054,9.057-9.057
		C-250.829-69.847-254.583-73.769-259.317-74.063z M-287.237-77.681c-0.241-0.016-0.48-0.036-0.725-0.036
		c-2.537,0-4.865,0.876-6.715,2.334c-2.012-1.294-3.487-3.354-3.976-5.776c0.582,0.117,1.178,0.177,1.78,0.177c4.963,0,9-4.037,9-9
		c0-0.603-0.06-1.198-0.177-1.78c3.733,0.753,6.629,3.824,7.133,7.641C-283.627-82.679-285.842-80.423-287.237-77.681z"/>
	<rect x="-275.829" y="-55.965" width="2" height="4"/>
	<rect x="-267.829" y="-59.986" width="2" height="4.021"/>
	<rect x="-283.829" y="-59.986" width="2" height="4.021"/>
	<circle cx="-266.829" cy="-50.944" r="1.5"/>
	<circle cx="-274.829" cy="-46.976" r="1.5"/>
	<circle cx="-282.829" cy="-50.986" r="1.5"/>
</g>
<g>
	<path d="M-362.627,18.967c-1.596-7.445-8.207-13.029-16.127-13.029c-6.423,0-11.977,3.678-14.702,9.035
		c-0.266-0.018-0.53-0.04-0.8-0.04c-6.627,0-11.999,5.372-11.999,12c0,6.607,5.34,11.965,11.938,11.998v0.003h6.062v-2h-5.604
		l-0.447-0.003c-5.485-0.027-9.948-4.513-9.948-9.998c0-5.514,4.485-10,9.999-10c0.175,0,0.347,0.014,0.52,0.025l0.148,0.01
		l1.316,0.088l0.598-1.176c2.492-4.899,7.443-7.942,12.92-7.942c6.79,0,12.75,4.814,14.172,11.448l0.317,1.482l1.514,0.095
		c4.203,0.262,7.496,3.763,7.496,7.971c0,4.397-3.565,7.977-7.957,8c-0.05-0.003-0.093-0.005-0.137-0.007l-5.043,0.007h0.137v2
		h4.863v-0.007c0.046,0.001,0.091,0.007,0.137,0.007c5.521,0,10-4.477,10-10C-353.255,23.623-357.399,19.292-362.627,18.967z"/>
	<polygon points="-378.413,38.938 -376.644,38.938 -376.213,38.938 -374.203,38.938 -380.617,29.776 -382.255,30.924 
		-378.044,36.938 -379.814,36.938 -382.255,36.938 -380.983,38.754 -379.871,40.343 -373.894,48.938 -372.255,47.791 
		-378.232,39.195 	"/>
</g>
<g>
	<rect x="-286.829" y="-0.163" width="2" height="7.973"/>
	<rect x="-305.829" y="18.751" width="7.973" height="2"/>
	<rect x="-301.156" y="7.484" transform="matrix(0.7071 0.7071 -0.7071 0.7071 -81.0394 212.6152)" width="7.974" height="2"/>
	<rect x="-275.647" y="4.503" transform="matrix(0.7071 0.7071 -0.7071 0.7071 -74.4403 196.6912)" width="2" height="7.972"/>
	<path d="M-256.317,25.627c-1.444-6.742-7.433-11.8-14.605-11.8c-2.185,0-4.258,0.47-6.127,1.313
		c-1.666-3.202-5.006-5.394-8.865-5.394c-5.522,0-10,4.477-10,9.999c0,2.46,0.898,4.702,2.373,6.442
		c-1.428,1.84-2.287,4.144-2.287,6.653c0,5.983,4.836,10.836,10.813,10.865v0.003h4.188v-2h-3.721l-0.457-0.003
		c-4.864-0.023-8.822-4.001-8.822-8.865c0-4.89,3.978-8.868,8.867-8.868c0.15,0,0.299,0.012,0.447,0.022l0.148,0.01l1.314,0.085
		l0.597-1.175c2.225-4.372,6.644-7.089,11.532-7.089c6.062,0,11.382,4.298,12.649,10.219l0.318,1.483l1.514,0.094
		c3.708,0.23,6.612,3.319,6.612,7.03c0,3.878-3.144,7.035-7.017,7.057c-0.042-0.003-0.079-0.005-0.117-0.005l-2.047,0.005h-3.819v2
		h5.819v-0.006c0.042,0.001,0.082,0.006,0.124,0.006c5.001,0,9.057-4.054,9.057-9.057
		C-247.829,29.844-251.583,25.922-256.317,25.627z M-284.237,22.01c-0.241-0.016-0.48-0.036-0.725-0.036
		c-2.766,0-5.281,1.041-7.2,2.743c-1.092-1.366-1.753-3.09-1.753-4.971c0-4.41,3.589-7.999,8-7.999c3.092,0,5.76,1.773,7.092,4.345
		C-281.122,17.532-283.001,19.58-284.237,22.01z"/>
	<polygon points="-271.987,43.717 -270.218,43.717 -269.787,43.717 -267.777,43.717 -274.191,34.556 -275.829,35.703 
		-271.618,41.717 -273.389,41.717 -275.829,41.717 -274.558,43.533 -273.445,45.122 -267.468,53.717 -265.829,52.57 
		-271.807,43.975 	"/>
</g>
<g>
	<path d="M-156.732,23.331c-1.444-6.742-7.433-11.8-14.605-11.8c-1.799,0-3.521,0.32-5.118,0.904
		c-0.949-5.108-5.404-8.98-10.788-8.98c-0.413,0-0.819,0.027-1.222,0.071c0.744,1.112,1.179,2.448,1.179,3.886c0,3.865-3.134,7-7,7
		c-1.438,0-2.773-0.435-3.886-1.179c-0.044,0.401-0.071,0.809-0.071,1.222c0,3.712,1.845,6.987,4.661,8.979
		c-1.653,1.907-2.661,4.389-2.661,7.111c0,5.983,4.836,10.836,10.813,10.865v0.003h4.188v-2h-3.721l-0.457-0.003
		c-4.864-0.023-8.822-4.001-8.822-8.865c0-4.89,3.978-8.868,8.867-8.868c0.15,0,0.299,0.012,0.447,0.022l0.148,0.01l1.314,0.085
		l0.597-1.175c2.225-4.372,6.644-7.089,11.532-7.089c6.062,0,11.382,4.298,12.649,10.219l0.318,1.483l1.514,0.094
		c3.708,0.23,6.612,3.319,6.612,7.03c0,3.878-3.144,7.035-7.017,7.057c-0.042-0.003-0.079-0.005-0.117-0.005l-2.047,0.005h-3.819v2
		h5.819v-0.006c0.042,0.001,0.082,0.006,0.124,0.006c5.001,0,9.057-4.054,9.057-9.057
		C-148.244,27.548-151.998,23.626-156.732,23.331z M-184.652,19.714c-0.241-0.016-0.48-0.036-0.725-0.036
		c-2.537,0-4.865,0.876-6.715,2.334c-2.012-1.294-3.486-3.354-3.976-5.776c0.582,0.117,1.178,0.177,1.78,0.177c4.963,0,9-4.037,9-9
		c0-0.603-0.06-1.198-0.177-1.78c3.733,0.753,6.629,3.824,7.134,7.64C-181.043,14.716-183.258,16.971-184.652,19.714z"/>
	<polygon points="-172.402,41.421 -170.633,41.421 -170.202,41.421 -168.192,41.421 -174.606,32.26 -176.244,33.407 
		-172.033,39.421 -173.804,39.421 -176.244,39.421 -174.973,41.237 -173.86,42.826 -167.883,51.421 -166.244,50.274 
		-172.222,41.679 	"/>
</g>
<g>
	<path d="M-55.848,19.467c-1.596-7.445-8.207-13.029-16.127-13.029c-6.423,0-11.977,3.678-14.702,9.035
		c-0.266-0.018-0.53-0.04-0.8-0.04c-6.627,0-11.999,5.372-11.999,12c0,6.607,5.34,11.965,11.938,11.998v0.003h1.062v-2h-0.604
		l-0.447-0.003c-5.485-0.027-9.948-4.513-9.948-9.998c0-5.514,4.485-10,9.999-10c0.175,0,0.347,0.014,0.52,0.025l0.148,0.01
		l1.316,0.088l0.598-1.176c2.492-4.899,7.443-7.942,12.92-7.942c6.79,0,12.75,4.814,14.172,11.448l0.317,1.482l1.514,0.095
		c4.203,0.262,7.496,3.763,7.496,7.971c0,4.397-3.565,7.977-7.957,8c-0.05-0.003-0.093-0.005-0.137-0.007l-0.906,0.007v2h0.863
		v-0.007c0.046,0.001,0.091,0.007,0.137,0.007c5.521,0,10-4.477,10-10C-46.476,24.123-50.62,19.792-55.848,19.467z"/>
	
		<rect x="-87.041" y="37.432" transform="matrix(-0.5736 -0.8191 0.8191 -0.5736 -159.6517 -6.2394)" width="11.183" height="1.999"/>
	
		<rect x="-69.067" y="37.432" transform="matrix(-0.5736 -0.8191 0.8191 -0.5736 -131.3661 8.4837)" width="11.183" height="1.999"/>
	<polygon points="-70.634,42.438 -68.864,42.438 -68.434,42.438 -66.424,42.438 -72.838,33.276 -74.476,34.424 -70.265,40.438 
		-72.035,40.438 -74.476,40.438 -73.204,42.254 -72.092,43.843 -67.476,50.438 -65.837,49.291 -70.453,42.695 	"/>
</g>
<g>
	<rect x="19" width="2" height="7.973"/>
	<rect y="18.914" width="7.973" height="2"/>
	<rect x="4.673" y="7.648" transform="matrix(0.7071 0.7071 -0.7071 0.7071 8.6512 -3.5909)" width="7.974" height="2"/>
	<rect x="30.182" y="4.666" transform="matrix(0.7071 0.7071 -0.7071 0.7071 15.2503 -19.5148)" width="2" height="7.972"/>
	<path d="M49.512,25.79c-1.444-6.742-7.433-11.8-14.605-11.8c-2.185,0-4.258,0.47-6.126,1.313c-1.667-3.202-5.007-5.394-8.866-5.394
		c-5.522,0-10,4.477-10,9.999c0,2.46,0.899,4.702,2.373,6.442C10.858,28.191,10,30.495,10,33.005
		c0,5.983,4.836,10.836,10.813,10.865v0.003H21v-2l-0.178-0.003C15.958,41.847,12,37.869,12,33.005c0-4.89,3.978-8.868,8.867-8.868
		c0.15,0,0.299,0.012,0.447,0.022l0.148,0.01l1.314,0.085l0.597-1.175c2.225-4.372,6.644-7.089,11.532-7.089
		c6.062,0,11.382,4.298,12.649,10.219l0.318,1.483l1.514,0.094c3.708,0.23,6.612,3.319,6.612,7.03c0,3.878-3.144,7.035-7.017,7.057
		c-0.042-0.003-0.079-0.005-0.117-0.005L48,41.873v2h0.819v-0.006c0.042,0.001,0.082,0.006,0.124,0.006
		c5.001,0,9.057-4.054,9.057-9.057C58,30.007,54.246,26.085,49.512,25.79z M21.592,22.173c-0.241-0.016-0.48-0.036-0.725-0.036
		c-2.766,0-5.282,1.042-7.2,2.743c-1.092-1.367-1.753-3.09-1.753-4.971c0-4.41,3.589-7.999,8-7.999c3.091,0,5.76,1.773,7.091,4.345
		C24.707,17.694,22.827,19.743,21.592,22.173z"/>
	<rect x="19.422" y="41.87" transform="matrix(-0.5736 -0.8191 0.8191 -0.5736 4.2468 87.9498)" width="11.183" height="1.999"/>
	<rect x="37.396" y="41.87" transform="matrix(-0.5736 -0.8191 0.8191 -0.5736 32.5323 102.673)" width="11.183" height="1.999"/>
	<polygon points="35.829,46.876 37.599,46.876 38.029,46.876 40.039,46.876 33.625,37.715 31.987,38.862 36.198,44.876 
		34.428,44.876 31.987,44.876 33.259,46.692 34.371,48.281 38.987,54.876 40.626,53.729 36.01,47.134 	"/>
</g>
<g>
	<path d="M151.35,22.832c-1.444-6.742-7.433-11.8-14.605-11.8c-1.799,0-3.522,0.32-5.118,0.904c-0.949-5.108-5.404-8.98-10.788-8.98
		c-0.413,0-0.819,0.027-1.222,0.071c0.744,1.112,1.179,2.448,1.179,3.886c0,3.865-3.134,7-7,7c-1.438,0-2.773-0.435-3.886-1.179
		c-0.044,0.401-0.071,0.809-0.071,1.222c0,3.712,1.845,6.987,4.661,8.979c-1.653,1.907-2.661,4.389-2.661,7.111
		c0,5.983,4.836,10.836,10.813,10.865v0.003h0.188v-2l-0.178-0.003c-4.864-0.023-8.822-4.001-8.822-8.865
		c0-4.89,3.978-8.868,8.867-8.868c0.15,0,0.299,0.012,0.447,0.022l0.148,0.01l1.314,0.085l0.597-1.175
		c2.225-4.372,6.644-7.089,11.532-7.089c6.062,0,11.382,4.298,12.649,10.219l0.318,1.483l1.514,0.094
		c3.708,0.23,6.612,3.319,6.612,7.03c0,3.878-3.144,7.035-7.017,7.057c-0.042-0.003-0.079-0.005-0.117-0.005l-0.866,0.005v2h0.819
		v-0.006c0.042,0.001,0.082,0.006,0.124,0.006c5.001,0,9.057-4.054,9.057-9.057C159.838,27.049,156.084,23.127,151.35,22.832z
		 M123.43,19.215c-0.241-0.016-0.48-0.036-0.725-0.036c-2.537,0-4.865,0.876-6.715,2.334c-2.012-1.294-3.487-3.354-3.976-5.776
		c0.582,0.117,1.178,0.177,1.78,0.177c4.963,0,9-4.037,9-9c0-0.603-0.06-1.198-0.177-1.78c3.733,0.753,6.629,3.824,7.133,7.641
		C127.04,14.217,124.825,16.473,123.43,19.215z"/>
	
		<rect x="121.259" y="38.912" transform="matrix(-0.5736 -0.8191 0.8191 -0.5736 166.9242 166.7105)" width="11.183" height="1.999"/>
	
		<rect x="139.233" y="38.912" transform="matrix(-0.5736 -0.8191 0.8191 -0.5736 195.2097 181.4336)" width="11.183" height="1.999"/>
	<polygon points="137.666,43.918 139.436,43.918 139.866,43.918 141.876,43.918 135.462,34.757 133.824,35.904 138.035,41.918 
		136.265,41.918 133.824,41.918 135.096,43.734 136.208,45.323 140.824,51.918 142.463,50.771 137.847,44.176 	"/>
</g>
<g>
	<g>
		<path d="M-259.213,109.287c-1.596-7.445-8.207-13.029-16.127-13.029c-6.423,0-11.977,3.678-14.702,9.035
			c-0.266-0.018-0.53-0.04-0.8-0.04c-6.627,0-11.999,5.372-11.999,12c0,6.607,5.34,11.965,11.938,11.998v0.003h2.062v-2h-1.604
			l-0.447-0.003c-5.485-0.027-9.948-4.513-9.948-9.998c0-5.514,4.485-10,9.999-10c0.175,0,0.347,0.014,0.52,0.025l0.148,0.01
			l1.316,0.088l0.598-1.176c2.492-4.899,7.443-7.942,12.92-7.942c6.79,0,12.75,4.814,14.172,11.448l0.317,1.482l1.514,0.095
			c4.203,0.262,7.496,3.763,7.496,7.971c0,4.397-3.565,7.977-7.957,8c-0.05-0.003-0.093-0.005-0.137-0.007l-2.043,0.007h-2.863v2
			h4.863v-0.007c0.046,0.001,0.091,0.007,0.137,0.007c5.521,0,10-4.477,10-10C-249.841,113.943-253.985,109.612-259.213,109.287z"/>
	</g>
	<g>
		<circle cx="-284.341" cy="122.83" r="1.5"/>
	</g>
	<g>
		<circle cx="-280.341" cy="128.754" r="1.5"/>
	</g>
	<g>
		<circle cx="-272.341" cy="128.754" r="1.5"/>
	</g>
	<g>
		<circle cx="-276.341" cy="122.83" r="1.5"/>
	</g>
	<g>
		<circle cx="-268.341" cy="122.83" r="1.5"/>
	</g>
	<g>
		<circle cx="-284.341" cy="134.775" r="1.5"/>
	</g>
	<g>
		<circle cx="-276.341" cy="134.775" r="1.5"/>
	</g>
	<g>
		<circle cx="-268.341" cy="134.775" r="1.5"/>
	</g>
</g>
<g>
	<g>
		<rect x="-183.427" y="93.81" width="2" height="7.973"/>
	</g>
	<g>
		<rect x="-202.427" y="112.724" width="7.973" height="2"/>
	</g>
	<g>
		<rect x="-197.754" y="101.457" transform="matrix(0.7071 0.7071 -0.7071 0.7071 15.6951 167.0226)" width="7.974" height="2"/>
	</g>
	<g>
		<rect x="-172.245" y="98.475" transform="matrix(0.7071 0.7071 -0.7071 0.7071 22.2943 151.0987)" width="2" height="7.972"/>
	</g>
	<g>
		<path d="M-152.915,119.6c-1.444-6.742-7.433-11.8-14.605-11.8c-2.185,0-4.258,0.47-6.127,1.313
			c-1.666-3.202-5.006-5.394-8.865-5.394c-5.522,0-10,4.477-10,9.999c0,2.46,0.898,4.702,2.373,6.442
			c-1.428,1.84-2.287,4.144-2.287,6.653c0,5.983,4.836,10.836,10.813,10.865v0.003h1.188v-2h-0.721l-0.457-0.003
			c-4.864-0.023-8.822-4.001-8.822-8.865c0-4.89,3.978-8.868,8.867-8.868c0.15,0,0.299,0.012,0.447,0.022l0.148,0.01l1.314,0.085
			l0.597-1.175c2.225-4.372,6.644-7.089,11.532-7.089c6.062,0,11.382,4.298,12.649,10.219l0.318,1.483l1.514,0.094
			c3.708,0.23,6.612,3.319,6.612,7.03c0,3.878-3.144,7.035-7.017,7.057c-0.042-0.003-0.079-0.005-0.117-0.005l-2.047,0.005h-1.819v2
			h3.819v-0.006c0.042,0.001,0.082,0.006,0.124,0.006c5.001,0,9.057-4.054,9.057-9.057
			C-144.427,123.816-148.181,119.895-152.915,119.6z M-180.835,115.982c-0.241-0.016-0.48-0.036-0.725-0.036
			c-2.766,0-5.281,1.042-7.2,2.743c-1.092-1.367-1.753-3.09-1.753-4.971c0-4.41,3.589-7.999,8-7.999c3.092,0,5.76,1.773,7.092,4.345
			C-177.72,111.504-179.599,113.553-180.835,115.982z"/>
	</g>
	<g>
		<circle cx="-176.938" cy="131.193" r="1.5"/>
	</g>
	<g>
		<circle cx="-172.938" cy="137.193" r="1.5"/>
	</g>
	<g>
		<circle cx="-164.938" cy="137.193" r="1.5"/>
	</g>
	<g>
		<circle cx="-168.938" cy="131.193" r="1.5"/>
	</g>
	<g>
		<circle cx="-160.938" cy="131.193" r="1.5"/>
	</g>
	<g>
		<circle cx="-176.938" cy="143.215" r="1.5"/>
	</g>
	<g>
		<circle cx="-168.938" cy="143.215" r="1.5"/>
	</g>
	<g>
		<circle cx="-160.938" cy="143.215" r="1.5"/>
	</g>
</g>
<g>
	<g>
		<path d="M-56.964,115.644c-1.444-6.742-7.433-11.8-14.605-11.8c-1.799,0-3.521,0.32-5.118,0.904
			c-0.949-5.108-5.404-8.98-10.788-8.98c-0.413,0-0.819,0.027-1.222,0.071c0.744,1.112,1.179,2.448,1.179,3.886c0,3.865-3.134,7-7,7
			c-1.438,0-2.773-0.435-3.886-1.179c-0.044,0.401-0.071,0.809-0.071,1.222c0,3.712,1.845,6.987,4.661,8.979
			c-1.653,1.907-2.661,4.389-2.661,7.111c0,5.983,4.836,10.836,10.813,10.865v0.003h1.188v-2h-0.721l-0.457-0.003
			c-4.864-0.023-8.822-4.001-8.822-8.865c0-4.89,3.978-8.868,8.867-8.868c0.15,0,0.299,0.012,0.447,0.022l0.148,0.01l1.314,0.085
			l0.597-1.175c2.225-4.372,6.644-7.089,11.532-7.089c6.062,0,11.382,4.298,12.649,10.219l0.318,1.483l1.514,0.094
			c3.708,0.23,6.612,3.319,6.612,7.03c0,3.878-3.144,7.035-7.017,7.057c-0.042-0.003-0.079-0.005-0.117-0.005l-2.047,0.005h-1.819v2
			h3.819v-0.006c0.042,0.001,0.082,0.006,0.124,0.006c5.001,0,9.057-4.054,9.057-9.057
			C-48.476,119.86-52.229,115.938-56.964,115.644z M-84.884,112.026c-0.241-0.016-0.48-0.036-0.725-0.036
			c-2.537,0-4.865,0.876-6.715,2.334c-2.012-1.294-3.486-3.354-3.976-5.776c0.582,0.117,1.178,0.177,1.78,0.177c4.963,0,9-4.037,9-9
			c0-0.603-0.06-1.198-0.177-1.78c3.733,0.753,6.629,3.824,7.134,7.64C-81.274,107.028-83.489,109.283-84.884,112.026z"/>
	</g>
	<g>
		<circle cx="-80.976" cy="127.236" r="1.5"/>
	</g>
	<g>
		<circle cx="-76.976" cy="133.236" r="1.5"/>
	</g>
	<g>
		<circle cx="-68.976" cy="133.236" r="1.5"/>
	</g>
	<g>
		<circle cx="-72.976" cy="127.236" r="1.5"/>
	</g>
	<g>
		<circle cx="-64.976" cy="127.236" r="1.5"/>
	</g>
	<g>
		<circle cx="-80.976" cy="139.258" r="1.5"/>
	</g>
	<g>
		<circle cx="-72.976" cy="139.258" r="1.5"/>
	</g>
	<g>
		<circle cx="-64.976" cy="139.258" r="1.5"/>
	</g>
</g>
<g>
	<path d="M254.201,16.758c-1.596-7.445-8.207-13.029-16.127-13.029c-6.423,0-11.977,3.678-14.702,9.035
		c-0.266-0.018-0.53-0.04-0.8-0.04c-6.627,0-11.999,5.372-11.999,12c0,6.607,5.34,11.965,11.938,11.998v0.003h2.062v-2h-1.604
		l-0.447-0.003c-5.485-0.027-9.948-4.513-9.948-9.998c0-5.514,4.485-10,9.999-10c0.175,0,0.347,0.014,0.52,0.025l0.148,0.01
		l1.316,0.088l0.598-1.176c2.492-4.899,7.443-7.942,12.92-7.942c6.79,0,12.75,4.814,14.172,11.448l0.317,1.482l1.514,0.095
		c4.203,0.262,7.496,3.763,7.496,7.971c0,4.397-3.565,7.977-7.957,8c-0.05-0.003-0.093-0.005-0.137-0.007l-2.043,0.007h-2.863v2
		h4.863v-0.007c0.046,0.001,0.091,0.007,0.137,0.007c5.521,0,10-4.477,10-10C263.573,21.414,259.429,17.083,254.201,16.758z"/>
	<circle cx="228.573" cy="44.229" r="1.5"/>
	<circle cx="236.573" cy="50.229" r="1.5"/>
	<circle cx="244.573" cy="46.229" r="1.5"/>
	<rect x="227.573" y="27.753" width="2" height="11.976"/>
	<polygon points="237.573,45.693 237.573,43.753 237.573,31.753 235.573,31.753 235.573,43.753 235.573,45.693 235.573,45.729 
		237.573,45.729 	"/>
	<polygon points="245.573,41.506 245.573,39.753 245.573,27.753 243.573,27.753 243.573,39.753 243.573,41.506 243.573,41.729 
		245.573,41.729 	"/>
</g>
<g>
	<rect x="-494.176" y="88.371" width="2" height="7.973"/>
	<rect x="-513.176" y="107.285" width="7.973" height="2"/>
	<rect x="-508.503" y="96.019" transform="matrix(0.7071 0.7071 -0.7071 0.7071 -79.1667 385.1625)" width="7.974" height="2"/>
	<rect x="-482.994" y="93.037" transform="matrix(0.7071 0.7071 -0.7071 0.7071 -72.5676 369.2385)" width="2" height="7.972"/>
	<path d="M-463.664,114.161c-1.444-6.742-7.433-11.8-14.605-11.8c-2.185,0-4.258,0.47-6.126,1.313
		c-1.667-3.202-5.007-5.394-8.866-5.394c-5.522,0-10,4.477-10,9.999c0,2.46,0.899,4.702,2.373,6.442
		c-1.429,1.84-2.287,4.144-2.287,6.653c0,5.983,4.836,10.836,10.813,10.865v0.003h1.188v-2h-0.721l-0.457-0.003
		c-4.864-0.023-8.822-4.001-8.822-8.865c0-4.89,3.978-8.868,8.867-8.868c0.15,0,0.299,0.012,0.447,0.022l0.148,0.01l1.314,0.085
		l0.597-1.175c2.225-4.372,6.644-7.089,11.532-7.089c6.062,0,11.382,4.298,12.649,10.219l0.318,1.483l1.514,0.094
		c3.708,0.23,6.612,3.319,6.612,7.03c0,3.878-3.144,7.035-7.017,7.057c-0.042-0.003-0.079-0.005-0.117-0.005l-2.047,0.005h-0.819v2
		h2.819v-0.006c0.042,0.001,0.082,0.006,0.124,0.006c5.001,0,9.057-4.054,9.057-9.057
		C-455.176,118.378-458.93,114.456-463.664,114.161z M-491.584,110.544c-0.241-0.016-0.48-0.036-0.725-0.036
		c-2.766,0-5.282,1.041-7.2,2.743c-1.092-1.366-1.753-3.09-1.753-4.971c0-4.41,3.589-7.999,8-7.999c3.091,0,5.76,1.773,7.091,4.345
		C-488.469,106.066-490.349,108.114-491.584,110.544z"/>
	<circle cx="-487.186" cy="140.731" r="1.5"/>
	<circle cx="-479.186" cy="146.731" r="1.5"/>
	<circle cx="-471.186" cy="142.731" r="1.5"/>
	<rect x="-488.186" y="124.256" width="2" height="11.976"/>
	<polygon points="-478.186,142.196 -478.186,140.256 -478.186,128.256 -480.186,128.256 -480.186,140.256 -480.186,142.196 
		-480.186,142.231 -478.186,142.231 	"/>
	<polygon points="-470.186,138.009 -470.186,136.256 -470.186,124.256 -472.186,124.256 -472.186,136.256 -472.186,138.009 
		-472.186,138.231 -470.186,138.231 	"/>
</g>
<g>
	<path d="M-363.062,111.163c-1.444-6.742-7.433-11.8-14.605-11.8c-1.799,0-3.522,0.32-5.118,0.904
		c-0.949-5.108-5.404-8.98-10.788-8.98c-0.413,0-0.819,0.027-1.222,0.071c0.744,1.112,1.179,2.448,1.179,3.886c0,3.865-3.134,7-7,7
		c-1.438,0-2.773-0.435-3.886-1.179c-0.044,0.401-0.071,0.809-0.071,1.222c0,3.712,1.845,6.987,4.661,8.979
		c-1.653,1.907-2.661,4.389-2.661,7.111c0,5.983,4.836,10.836,10.813,10.865v0.003h1.188v-2h-0.721l-0.457-0.003
		c-4.864-0.023-8.822-4.001-8.822-8.865c0-4.89,3.978-8.868,8.867-8.868c0.15,0,0.299,0.012,0.447,0.022l0.148,0.01l1.314,0.085
		l0.597-1.175c2.225-4.372,6.644-7.089,11.532-7.089c6.062,0,11.382,4.298,12.649,10.219l0.318,1.483l1.514,0.094
		c3.708,0.23,6.612,3.319,6.612,7.03c0,3.878-3.144,7.035-7.017,7.057c-0.042-0.003-0.079-0.005-0.117-0.005l-2.047,0.005h-0.819v2
		h2.819v-0.006c0.042,0.001,0.082,0.006,0.124,0.006c5.001,0,9.057-4.054,9.057-9.057
		C-354.573,115.38-358.327,111.458-363.062,111.163z M-390.981,107.546c-0.241-0.016-0.48-0.036-0.725-0.036
		c-2.537,0-4.865,0.876-6.715,2.334c-2.012-1.294-3.487-3.354-3.976-5.776c0.582,0.117,1.178,0.177,1.78,0.177c4.963,0,9-4.037,9-9
		c0-0.603-0.06-1.198-0.177-1.78c3.733,0.753,6.629,3.824,7.133,7.64C-387.371,102.548-389.586,104.803-390.981,107.546z"/>
	<circle cx="-386.573" cy="137.737" r="1.5"/>
	<circle cx="-378.573" cy="143.737" r="1.5"/>
	<circle cx="-370.573" cy="139.737" r="1.5"/>
	<rect x="-387.573" y="121.262" width="2" height="11.976"/>
	<polygon points="-377.573,139.202 -377.573,137.262 -377.573,125.262 -379.573,125.262 -379.573,137.262 -379.573,139.202 
		-379.573,139.237 -377.573,139.237 	"/>
	<polygon points="-369.573,135.015 -369.573,133.262 -369.573,121.262 -371.573,121.262 -371.573,133.262 -371.573,135.015 
		-371.573,135.237 -369.573,135.237 	"/>
</g>
<g>
	<rect x="-511.176" y="215.604" width="56" height="2"/>
	<rect x="-507.176" y="221.604" width="50" height="2"/>
	<rect x="-501.176" y="227.604" width="36" height="2"/>
	<rect x="-509.176" y="209.604" width="52" height="2"/>
	<path d="M-497.302,201.599c0.175,0,0.347,0.014,0.519,0.025l0.149,0.01l1.316,0.088l0.598-1.176
		c2.493-4.899,7.443-7.942,12.92-7.942c6.79,0,12.75,4.814,14.171,11.448l0.318,1.482l1.514,0.095
		c1.207,0.075,2.335,0.425,3.336,0.975h3.286c-1.678-1.703-3.957-2.813-6.498-2.971c-1.596-7.445-8.207-13.029-16.127-13.029
		c-6.423,0-11.977,3.678-14.702,9.035c-0.266-0.018-0.53-0.04-0.8-0.04c-4.843,0-9.004,2.874-10.9,7.005h2.251
		C-504.22,203.617-500.995,201.599-497.302,201.599z"/>
</g>
<g>
	<rect x="-390.073" y="188.089" width="2" height="7.973"/>
	<rect x="-409.073" y="207.003" width="7.973" height="2"/>
	<rect x="-404.4" y="195.736" transform="matrix(0.7071 0.7071 -0.7071 0.7071 21.8353 340.7575)" width="7.974" height="2"/>
	<rect x="-378.891" y="192.754" transform="matrix(0.7071 0.7071 -0.7071 0.7071 28.4344 324.8336)" width="2" height="7.972"/>
	<rect x="-400.073" y="221.963" width="50" height="2"/>
	<rect x="-396.073" y="227.963" width="44" height="2"/>
	<rect x="-390.073" y="232.963" width="30" height="2"/>
	<rect x="-398.073" y="215.963" width="46" height="2"/>
	<path d="M-397.165,213.963h0.771h1.927h1.012c1.472-1.087,3.283-1.737,5.249-1.737c0.15,0,0.299,0.012,0.447,0.022l0.148,0.01
		l1.314,0.085l0.597-1.175c2.225-4.372,6.644-7.089,11.532-7.089c5.945,0,11.168,4.139,12.563,9.884h2.043v-0.084
		c-1.444-6.742-7.433-11.8-14.605-11.8c-2.185,0-4.258,0.47-6.126,1.313c-1.667-3.202-5.007-5.394-8.866-5.394
		c-5.522,0-10,4.477-10,9.999C-399.159,210.239-398.411,212.298-397.165,213.963z M-389.159,199.999c3.091,0,5.76,1.773,7.091,4.345
		c-2.298,1.44-4.178,3.488-5.413,5.918c-0.241-0.016-0.48-0.036-0.725-0.036c-2.764,0-5.274,1.045-7.189,2.745
		c-1.097-1.366-1.764-3.089-1.764-4.973C-397.159,203.588-393.57,199.999-389.159,199.999z"/>
</g>
<g>
	<rect x="-301.329" y="218.525" width="50" height="2"/>
	<rect x="-297.329" y="224.525" width="44" height="2"/>
	<rect x="-291.329" y="229.525" width="30" height="2"/>
	<rect x="-299.329" y="212.525" width="46" height="2"/>
	<path d="M-297.687,210.525h0.037h1.884h1.055c1.472-1.087,3.283-1.737,5.249-1.737c0.15,0,0.299,0.012,0.447,0.022l0.148,0.01
		l1.314,0.085l0.597-1.175c2.225-4.372,6.644-7.089,11.532-7.089c5.945,0,11.168,4.139,12.563,9.884h2.043v-0.084
		c-1.444-6.742-7.433-11.8-14.605-11.8c-1.799,0-3.521,0.32-5.117,0.903c-0.945-5.111-5.402-8.987-10.789-8.987
		c-0.413,0-0.819,0.027-1.222,0.071c0.744,1.112,1.179,2.448,1.179,3.886c0,3.865-3.134,7-7,7c-1.438,0-2.773-0.435-3.886-1.179
		c-0.044,0.401-0.071,0.809-0.071,1.222C-302.329,205.262-300.493,208.532-297.687,210.525z M-298.372,203.515c4.963,0,9-4.037,9-9
		c0-0.603-0.06-1.198-0.177-1.78c3.735,0.753,6.633,3.828,7.134,7.647c-2.712,1.443-4.927,3.699-6.322,6.442
		c-0.241-0.016-0.48-0.036-0.725-0.036c-2.534,0-4.855,0.879-6.701,2.335c-2.02-1.293-3.5-3.356-3.989-5.785
		C-299.57,203.455-298.975,203.515-298.372,203.515z"/>
</g>
<g>
	<path d="M-169.438,221.539h-19.474l-0.578-0.003c-5.485-0.027-9.948-4.513-9.948-9.998c0-5.514,4.485-10,9.999-10
		c0.175,0,0.347,0.014,0.519,0.025l0.149,0.01l1.316,0.088l0.598-1.176c2.493-4.899,7.443-7.942,12.92-7.942
		c6.79,0,12.75,4.814,14.171,11.448l0.318,1.482l1.514,0.095c1.822,0.113,3.463,0.845,4.746,1.971h2.732
		c-1.707-2.262-4.348-3.78-7.354-3.967c-1.596-7.445-8.207-13.029-16.127-13.029c-6.423,0-11.977,3.678-14.702,9.035
		c-0.266-0.018-0.53-0.04-0.8-0.04c-6.627,0-11.999,5.372-11.999,12c0,6.607,5.34,11.965,11.938,11.998v0.003h20.062
		c2.205,0,4,1.794,4,4s-1.795,4-4,4v2c3.314,0,6-2.686,6-6C-163.438,224.226-166.123,221.539-169.438,221.539z"/>
	<path d="M-165.438,217.539h-15.988v2h15.988c3.314,0,6-2.687,6-6c0-3.314-2.686-6-6-6v2c2.205,0,4,1.794,4,4
		S-163.232,217.539-165.438,217.539z"/>
	<path d="M-152.438,211.539c1.654,0,3,1.346,3,3s-1.346,3-3,3c-0.043,0-0.083-0.011-0.126-0.013h-4.862
		c0.003,0.005,0.009,0.008,0.012,0.013h-0.023v2h5.5v-0.051c2.523-0.254,4.5-2.358,4.5-4.949c0-2.762-2.238-5-5-5V211.539z"/>
	<path d="M-148.438,221.539h-13v2h9.022c-0.004,0.005-0.008,0.008-0.011,0.013h3.862c0.043-0.002,0.083-0.013,0.126-0.013
		c1.654,0,3,1.346,3,3s-1.346,3-3,3v2c2.762,0,5-2.238,5-5S-145.676,221.539-148.438,221.539z"/>
	<rect x="-187.438" y="217.539" width="4" height="2"/>
</g>
<path d="M-376.999-177.564c6.95,1.305,12.226,7.419,12.226,14.742c0,8.272-6.729,15.002-15,15.002
	c-6.79,0-12.531-4.49-14.366-10.728c1.398,0.461,2.867,0.698,4.366,0.698c7.72,0,14-6.281,14-14.001
	C-375.773-173.835-376.197-175.779-376.999-177.564 M-379.773-179.821c-0.338,0-0.668,0.031-1,0.051c1.861,2.113,3,4.881,3,7.92
	c0,6.627-5.372,12.001-12,12.001c-2.599,0-4.998-0.835-6.963-2.239c0.387,9.047,7.821,16.269,16.963,16.269
	c9.39,0,17-7.612,17-17.002S-370.384-179.821-379.773-179.821L-379.773-179.821z"/>
<g>
	<path d="M-483.169-174.826c-7.18,0-13,5.819-13,12.999c0,7.181,5.82,13.002,13,13.002s13-5.821,13-13.002
		C-470.169-169.007-475.989-174.826-483.169-174.826z M-483.169-150.825c-6.065,0-11-4.936-11-11.002
		c0-6.064,4.935-10.999,11-10.999s11,4.935,11,10.999C-472.169-155.761-477.104-150.825-483.169-150.825z"/>
	<rect x="-484.176" y="-187.82" width="2" height="10"/>
	<rect x="-484.176" y="-145.82" width="2" height="10"/>
	<rect x="-509.169" y="-162.82" width="9.993" height="2"/>
	<rect x="-467.176" y="-162.82" width="10.007" height="2"/>
	<rect x="-469.476" y="-181.734" transform="matrix(0.7071 0.7071 -0.7071 0.7071 -262.0389 279.5582)" width="2" height="10.409"/>
	
		<rect x="-498.885" y="-152.326" transform="matrix(-0.7071 -0.7071 0.7071 -0.7071 -745.9125 -603.2083)" width="2" height="10.41"/>
	<rect x="-503.085" y="-177.525" transform="matrix(0.7071 0.7071 -0.7071 0.7071 -270.6478 300.3516)" width="10.409" height="2"/>
	
		<rect x="-473.677" y="-148.116" transform="matrix(-0.7072 -0.7071 0.7071 -0.7072 -695.7335 -582.3867)" width="10.41" height="2"/>
</g>
<g>
	<rect x="-85.003" y="183.041" width="2" height="7.973"/>
	<rect x="-103.976" y="202.027" width="7.973" height="2"/>
	<rect x="-99.25" y="190.809" transform="matrix(0.7071 0.7071 -0.7071 0.7071 107.7274 123.5403)" width="7.974" height="2"/>
	<rect x="-73.741" y="187.827" transform="matrix(0.7071 0.7071 -0.7071 0.7071 114.3265 107.6164)" width="2" height="7.972"/>
	<path d="M-69.976,225.041l0.005-0.007h-12.536l-0.594-0.003c-4.864-0.024-8.822-4.001-8.822-8.865c0-4.89,3.978-8.868,8.867-8.868
		c0.15,0,0.299,0.012,0.447,0.021l0.148,0.011l1.314,0.085l0.597-1.174c2.225-4.373,6.644-7.09,11.532-7.09
		c5.916,0,11.114,4.099,12.54,9.8h2.065c-1.444-6.742-7.433-11.8-14.605-11.8c-2.185,0-4.258,0.47-6.126,1.313
		c-1.667-3.202-5.007-5.394-8.866-5.394c-5.522,0-10,4.477-10,9.999c0,2.46,0.899,4.702,2.373,6.442
		c-1.429,1.84-2.287,4.144-2.287,6.653c0,5.983,4.836,10.836,10.813,10.865v0.003h13.135v0.007c2.205,0,4,1.794,4,4s-1.795,4-4,4v2
		c3.314,0,6-2.686,6-6C-63.976,227.728-66.661,225.041-69.976,225.041z M-84.009,195.071c3.091,0,5.76,1.773,7.091,4.345
		c-2.298,1.439-4.178,3.488-5.413,5.918c-0.241-0.016-0.48-0.036-0.725-0.036c-2.766,0-5.282,1.042-7.2,2.743
		c-1.092-1.367-1.753-3.09-1.753-4.971C-92.009,198.66-88.42,195.071-84.009,195.071z"/>
	<path d="M-65.976,221.041h-9.988v2h9.988c3.314,0,6-2.687,6-6c0-3.314-2.686-6-6-6v2c2.205,0,4,1.794,4,4
		S-63.771,221.041-65.976,221.041z"/>
	<path d="M-57.952,221.041h-0.023v2h5.5v-0.051c2.523-0.254,4.5-2.358,4.5-4.949c0-2.762-2.238-5-5-5v2c1.654,0,3,1.346,3,3
		s-1.346,3-3,3c-0.043,0-0.083-0.011-0.126-0.013h-4.862C-57.961,221.033-57.955,221.037-57.952,221.041z"/>
	<path d="M-48.976,225.041h-13v2h9.022c-0.004,0.004-0.008,0.008-0.011,0.013h3.862c0.043-0.002,0.083-0.013,0.126-0.013
		c1.654,0,3,1.346,3,3s-1.346,3-3,3v2c2.762,0,5-2.238,5-5S-46.214,225.041-48.976,225.041z"/>
	<rect x="-81.976" y="221.041" width="4" height="2"/>
</g>
<g>
	<path d="M29.986,223.035l0.005-0.007H17.455l-0.594-0.003c-4.864-0.024-8.822-4.001-8.822-8.865c0-4.89,3.978-8.868,8.867-8.868
		c0.15,0,0.299,0.012,0.447,0.021l0.148,0.011l1.314,0.085l0.597-1.174c2.225-4.373,6.644-7.09,11.532-7.09
		c5.916,0,11.114,4.099,12.54,9.8h2.065c-1.444-6.742-7.433-11.8-14.605-11.8c-1.806,0-3.536,0.322-5.138,0.91
		c-0.938-5.123-5.4-9.01-10.794-9.01c-0.413,0-0.819,0.027-1.222,0.071c0.744,1.112,1.179,2.448,1.179,3.886c0,3.865-3.134,7-7,7
		c-1.438,0-2.773-0.435-3.886-1.179c-0.044,0.401-0.071,0.809-0.071,1.222c0,3.725,1.858,7.009,4.69,8.998
		c-1.655,1.907-2.665,4.392-2.665,7.116c0,5.983,4.836,10.836,10.813,10.865v0.003h13.135v0.007c2.205,0,4,1.794,4,4s-1.795,4-4,4v2
		c3.314,0,6-2.686,6-6C35.986,225.722,33.301,223.035,29.986,223.035z M6.19,199.826c0.582,0.117,1.178,0.177,1.78,0.177
		c4.963,0,9-4.037,9-9c0-0.603-0.06-1.198-0.177-1.78c3.744,0.755,6.646,3.842,7.138,7.674c-2.702,1.444-4.909,3.696-6.301,6.432
		c-0.241-0.016-0.48-0.036-0.725-0.036c-2.535,0-4.861,0.875-6.71,2.33C8.168,204.33,6.682,202.262,6.19,199.826z"/>
	<path d="M33.986,219.035h-9.988v2h9.988c3.314,0,6-2.687,6-6c0-3.314-2.686-6-6-6v2c2.205,0,4,1.794,4,4
		S36.191,219.035,33.986,219.035z"/>
	<path d="M42.01,219.035h-0.023v2h5.5v-0.051c2.523-0.254,4.5-2.358,4.5-4.949c0-2.762-2.238-5-5-5v2c1.654,0,3,1.346,3,3
		s-1.346,3-3,3c-0.043,0-0.083-0.011-0.126-0.013h-4.862C42.001,219.027,42.007,219.031,42.01,219.035z"/>
	<path d="M50.986,223.035h-13v2h9.022c-0.004,0.004-0.008,0.008-0.011,0.013h3.862c0.043-0.002,0.083-0.013,0.126-0.013
		c1.654,0,3,1.346,3,3s-1.346,3-3,3v2c2.762,0,5-2.238,5-5S53.748,223.035,50.986,223.035z"/>
	<rect x="17.986" y="219.035" width="4" height="2"/>
</g>
<g>
	<rect x="130.879" y="185.604" width="2" height="10"/>
	<rect x="105.886" y="210.604" width="9.993" height="2"/>
	<rect x="145.579" y="191.689" transform="matrix(0.7071 0.7071 -0.7071 0.7071 182.157 -45.9778)" width="2" height="10.409"/>
	<rect x="111.97" y="195.899" transform="matrix(0.7071 0.7071 -0.7071 0.7071 173.5481 -25.1844)" width="10.409" height="2"/>
	<path d="M135.879,225.604h-24v2h24c2.205,0,4,1.794,4,4s-1.795,4-4,4v2c3.314,0,6-2.686,6-6
		C141.879,228.29,139.193,225.604,135.879,225.604z"/>
	<path d="M147.902,221.604h-0.023v2h5.5v-0.051c2.523-0.254,4.5-2.358,4.5-4.949c0-2.762-2.238-5-5-5v2c1.654,0,3,1.346,3,3
		s-1.346,3-3,3c-0.043,0-0.083-0.011-0.126-0.013h-4.862C147.894,221.596,147.899,221.6,147.902,221.604z"/>
	<path d="M156.879,225.604h-13v2h9.022c-0.004,0.004-0.008,0.008-0.011,0.013h3.862c0.043-0.002,0.083-0.013,0.126-0.013
		c1.654,0,3,1.346,3,3s-1.346,3-3,3v2c2.762,0,5-2.238,5-5S159.641,225.604,156.879,225.604z"/>
	<path d="M123.588,221.604h-11.709v2h12.012h0.822h15.166c3.314,0,6-2.687,6-6c0-3.314-2.686-6-6-6v2c2.205,0,4,1.794,4,4
		s-1.795,4-4,4h-12.538c-3.802-1.734-6.455-5.563-6.455-10.007c0-6.064,4.935-10.999,11-10.999c5.384,0,9.868,3.891,10.81,9.006
		h2.021c-0.961-6.23-6.331-11.006-12.831-11.006c-7.18,0-13,5.819-13,12.999C118.886,215.622,120.716,219.219,123.588,221.604z"/>
</g>
<g>
	<path d="M236.105,219.047h-24v2h24c2.205,0,4,1.794,4,4s-1.795,4-4,4v2c3.314,0,6-2.686,6-6
		C242.105,221.733,239.42,219.047,236.105,219.047z"/>
	<path d="M253.605,217.047v-0.051c2.523-0.254,4.5-2.358,4.5-4.949c0-2.762-2.238-5-5-5v2c1.654,0,3,1.346,3,3s-1.346,3-3,3
		c-0.043,0-0.083-0.011-0.126-0.013h-4.862c0.004,0.005,0.009,0.009,0.012,0.013h-0.023v2H253.605z"/>
	<path d="M257.105,219.047h-13v2h9.022c-0.003,0.004-0.007,0.008-0.011,0.013h3.862c0.043-0.002,0.083-0.013,0.126-0.013
		c1.654,0,3,1.346,3,3s-1.346,3-3,3v2c2.762,0,5-2.238,5-5S259.867,219.047,257.105,219.047z"/>
	<path d="M224.939,217.047h15.166c3.314,0,6-2.687,6-6c0-3.314-2.686-6-6-6v2c2.205,0,4,1.794,4,4s-1.795,4-4,4H227.52
		c-2.596-1.188-4.658-3.339-5.69-6.034c0.849,0.204,1.724,0.309,2.612,0.309c6.168,0,11.187-5.019,11.187-11.188
		c0-1.276-0.22-2.532-0.64-3.717c4.046,1.102,7.168,4.459,7.937,8.63h2.018c-0.964-6.237-6.338-11.016-12.846-11.016
		c-0.259,0-0.511,0.024-0.766,0.039c1.425,1.618,2.297,3.737,2.297,6.063c0,5.072-4.112,9.188-9.187,9.188
		c-1.988,0-3.826-0.641-5.33-1.715c0.162,3.801,1.962,7.165,4.699,9.44h-11.705v2h12.012H224.939z"/>
</g>
<g>
	<path d="M-483.676,304.24h-20c-1.103,0-2-0.897-2-2s0.897-2,2-2h3.445h0.555v-2h-4c-2.209,0-4,1.791-4,4s1.791,4,4,4h20
		c2.205,0,4,1.794,4,4s-1.795,4-4,4v2c3.314,0,6-2.686,6-6C-477.676,306.927-480.361,304.24-483.676,304.24z"/>
	<path d="M-481.676,288.24v2c2.205,0,4,1.794,4,4s-1.795,4-4,4h-15.988v2h15.988c3.314,0,6-2.687,6-6
		C-475.676,290.926-478.361,288.24-481.676,288.24z"/>
	<path d="M-475.676,300.24v2h5.5v-0.051c2.523-0.254,4.5-2.358,4.5-4.949c0-2.762-2.238-5-5-5v2c1.654,0,3,1.346,3,3s-1.346,3-3,3
		c-0.043,0-0.083-0.011-0.126-0.013h-4.862c0.003,0.005,0.009,0.009,0.012,0.013H-475.676z"/>
	<path d="M-464.676,304.24h-11v2h7.022c-0.004,0.004-0.008,0.008-0.011,0.013h3.862c0.043-0.002,0.083-0.013,0.126-0.013
		c1.654,0,3,1.346,3,3s-1.346,3-3,3v2c2.762,0,5-2.238,5-5S-461.914,304.24-464.676,304.24z"/>
</g>
<path d="M52.616,290.587v-0.038H14.24c-1.103,0-2-0.897-2-2s0.897-2,2-2h33c2.762,0,5-2.238,5-5s-2.238-5-5-5H9.365v0.008
	c-0.042-0.001-0.083-0.008-0.125-0.008c-2.762,0-5,2.238-5,5s2.238,5,5,5v-2c-1.654,0-3-1.346-3-3s1.346-3,3-3h0.125h3.853H47.24
	c1.654,0,3,1.346,3,3s-1.346,3-3,3h-33c-2.209,0-4,1.791-4,4s1.791,4,4,4h38c1.103,0,2,0.897,2,2s-0.897,2-2,2h-32
	c-2.209,0-4,1.791-4,4s1.791,4,4,4h22c1.103,0,2,0.897,2,2s-0.897,2-2,2H18.23v0.001c-2.204,0.006-3.99,1.793-3.99,3.999
	s1.786,3.993,3.99,3.999v0.001h12.01c1.103,0,2,0.897,2,2s-0.897,2-2,2h-2c-2.209,0-4,1.791-4,4s1.791,4,4,4v-2
	c-1.103,0-2-0.897-2-2s0.897-2,2-2h2c2.209,0,4-1.791,4-4s-1.791-4-4-4h-12c-1.103,0-2-0.897-2-2s0.897-2,2-2h24
	c2.209,0,4-1.791,4-4c0-2.152-1.704-3.895-3.834-3.983v-0.017H20.24c-1.103,0-2-0.897-2-2s0.897-2,2-2h32c2.209,0,4-1.791,4-4
	C56.24,292.469,54.646,290.779,52.616,290.587z"/>
<path d="M238.031,281.265v-2.024h-2v2.024c-13.01,0.513-23.462,10.965-23.975,23.976h1.674c1.14-1.222,2.748-2,4.551-2
	c2.26,0,4.233,1.203,5.331,3h1.838c1.098-1.797,3.071-3,5.331-3c2.204,0,4.137,1.144,5.25,2.866v15.134c0,2.21,1.791,4,4,4
	s4-1.79,4-4h-2c0,1.103-0.897,2-2,2s-2-0.897-2-2v-15.134c1.113-1.723,3.046-2.866,5.25-2.866c2.26,0,4.233,1.203,5.331,3h1.838
	c1.098-1.797,3.071-3,5.331-3c1.803,0,3.411,0.778,4.551,2h1.674C261.493,292.229,251.041,281.777,238.031,281.265z M255.781,301.24
	c-2.496,0-4.736,1.114-6.25,2.87c-1.514-1.756-3.754-2.87-6.25-2.87s-4.736,1.114-6.25,2.87c-1.514-1.756-3.754-2.87-6.25-2.87
	s-4.736,1.114-6.25,2.87c-1.514-1.756-3.755-2.87-6.25-2.87c-1.402,0-2.731,0.351-3.897,0.975
	c1.909-10.769,11.339-18.975,22.647-18.975s20.738,8.206,22.647,18.975C258.513,301.591,257.184,301.24,255.781,301.24z"/>
<g>
	<path d="M-167.264,405.553v-17.105c0-2.762-2.238-5-5-5s-5,2.238-5,5v17.105c-1.236,1.263-2,2.988-2,4.895c0,3.866,3.134,7,7,7
		s7-3.134,7-7C-165.264,408.541-166.027,406.815-167.264,405.553z M-172.264,415.447c-2.757,0-5-2.243-5-5
		c0-1.313,0.508-2.554,1.429-3.495l0.571-0.583v-0.816v-17.105c0-1.654,1.346-3,3-3s3,1.346,3,3v17.105v0.816l0.571,0.583
		c0.921,0.941,1.429,2.183,1.429,3.495C-167.264,413.204-169.507,415.447-172.264,415.447z"/>
	<path d="M-171.264,407.623v-15.176h-2v15.176c-1.167,0.413-2.008,1.516-2.008,2.824c0,1.662,1.347,3.008,3.008,3.008
		c1.662,0,3.008-1.346,3.008-3.008C-169.256,409.139-170.096,408.036-171.264,407.623z M-172.264,411.455
		c-0.556,0-1.008-0.452-1.008-1.008s0.452-1.008,1.008-1.008s1.008,0.452,1.008,1.008S-171.708,411.455-172.264,411.455z"/>
</g>
<g>
	<path d="M-67.476,405.553v-17.105c0-2.762-2.238-5-5-5s-5,2.238-5,5v17.105c-1.236,1.263-2,2.988-2,4.895c0,3.866,3.134,7,7,7
		s7-3.134,7-7C-65.476,408.541-66.239,406.815-67.476,405.553z M-72.476,415.447c-2.757,0-5-2.243-5-5
		c0-1.313,0.508-2.554,1.429-3.495l0.571-0.583v-0.816v-17.105c0-1.654,1.346-3,3-3s3,1.346,3,3v17.105v0.816l0.571,0.583
		c0.921,0.941,1.429,2.183,1.429,3.495C-67.476,413.204-69.719,415.447-72.476,415.447z"/>
	<path d="M-71.476,407.623v-20.176h-2v20.176c-1.167,0.413-2.008,1.516-2.008,2.824c0,1.662,1.347,3.008,3.008,3.008
		c1.662,0,3.008-1.346,3.008-3.008C-69.468,409.139-70.308,408.036-71.476,407.623z M-72.476,411.455
		c-0.556,0-1.008-0.452-1.008-1.008s0.452-1.008,1.008-1.008s1.008,0.452,1.008,1.008S-71.92,411.455-72.476,411.455z"/>
</g>
<g>
	<path d="M-270.373,405.553v-17.105c0-2.762-2.238-5-5-5s-5,2.238-5,5v17.105c-1.236,1.263-2,2.988-2,4.895c0,3.866,3.134,7,7,7
		s7-3.134,7-7C-268.373,408.541-269.137,406.815-270.373,405.553z M-275.373,415.447c-2.757,0-5-2.243-5-5
		c0-1.313,0.508-2.554,1.429-3.495l0.571-0.583v-0.816v-17.105c0-1.654,1.346-3,3-3s3,1.346,3,3v17.105v0.816l0.571,0.583
		c0.921,0.941,1.429,2.183,1.429,3.495C-270.373,413.204-272.616,415.447-275.373,415.447z"/>
	<path d="M-274.373,407.623v-10.176h-2v10.176c-1.167,0.413-2.008,1.516-2.008,2.824c0,1.662,1.347,3.008,3.008,3.008
		c1.662,0,3.008-1.346,3.008-3.008C-272.365,409.139-273.205,408.036-274.373,407.623z M-275.373,411.455
		c-0.556,0-1.008-0.452-1.008-1.008s0.452-1.008,1.008-1.008s1.008,0.452,1.008,1.008S-274.817,411.455-275.373,411.455z"/>
</g>
<g>
	<path d="M-374.019,405.553v-17.105c0-2.762-2.238-5-5-5s-5,2.238-5,5v17.105c-1.236,1.263-2,2.988-2,4.895c0,3.866,3.134,7,7,7
		s7-3.134,7-7C-372.019,408.541-372.782,406.815-374.019,405.553z M-379.019,415.447c-2.757,0-5-2.243-5-5
		c0-1.313,0.508-2.554,1.429-3.495l0.571-0.583v-0.816v-17.105c0-1.654,1.346-3,3-3s3,1.346,3,3v17.105v0.816l0.571,0.583
		c0.921,0.941,1.429,2.183,1.429,3.495C-374.019,413.204-376.262,415.447-379.019,415.447z"/>
	<path d="M-378.019,407.623v-5.176h-2v5.176c-1.167,0.413-2.008,1.516-2.008,2.824c0,1.662,1.347,3.008,3.008,3.008
		c1.662,0,3.008-1.346,3.008-3.008C-376.011,409.139-376.851,408.036-378.019,407.623z M-379.019,411.455
		c-0.556,0-1.008-0.452-1.008-1.008s0.452-1.008,1.008-1.008s1.008,0.452,1.008,1.008S-378.463,411.455-379.019,411.455z"/>
</g>
<g>
	<path d="M-478.676,405.553v-17.105c0-2.762-2.238-5-5-5s-5,2.238-5,5v17.105c-1.236,1.263-2,2.988-2,4.895c0,3.866,3.134,7,7,7
		s7-3.134,7-7C-476.676,408.541-477.439,406.815-478.676,405.553z M-483.676,415.447c-2.757,0-5-2.243-5-5
		c0-1.313,0.508-2.554,1.429-3.495l0.571-0.583v-0.816v-17.105c0-1.654,1.346-3,3-3s3,1.346,3,3v17.105v0.816l0.571,0.583
		c0.921,0.941,1.429,2.183,1.429,3.495C-478.676,413.204-480.919,415.447-483.676,415.447z"/>
	<path d="M-483.676,407.439c-1.661,0-3.008,1.347-3.008,3.008c0,1.662,1.347,3.008,3.008,3.008c1.662,0,3.008-1.346,3.008-3.008
		C-480.668,408.786-482.014,407.439-483.676,407.439z M-483.676,411.455c-0.556,0-1.008-0.452-1.008-1.008s0.452-1.008,1.008-1.008
		s1.008,0.452,1.008,1.008S-483.12,411.455-483.676,411.455z"/>
</g>
<g>
	<path d="M21.249,385.76c-2.209,0-4,1.791-4,4c0,2.21,1.791,4,4,4c2.211,0,4-1.79,4-4C25.249,387.551,23.46,385.76,21.249,385.76z
		 M21.249,391.76c-1.103,0-2-0.897-2-2s0.897-2,2-2s2,0.897,2,2S22.352,391.76,21.249,391.76z"/>
	<path d="M35.249,413.76c-4.41,0-7.999-3.589-7.999-7.999v-4.002c0-4.41,3.589-7.999,7.999-7.999c2.715,0,5.115,1.362,6.563,3.437
		l1.43-1.43c-1.824-2.429-4.72-4.007-7.992-4.007c-5.522,0-9.999,4.478-9.999,9.999v4.002c0,5.521,4.477,9.999,9.999,9.999
		c3.272,0,6.168-1.579,7.992-4.008l-1.43-1.43C40.365,412.396,37.965,413.76,35.249,413.76z"/>
</g>
<g>
	<path d="M125.945,385.639c-2.209,0-4,1.791-4,4c0,2.21,1.791,4,4,4c2.211,0,4-1.79,4-4
		C129.945,387.43,128.156,385.639,125.945,385.639z M125.945,391.639c-1.103,0-2-0.897-2-2s0.897-2,2-2s2,0.897,2,2
		S127.048,391.639,125.945,391.639z"/>
	<polygon points="145.82,393.76 145.82,391.76 133.82,391.76 131.82,391.76 131.82,415.76 133.82,415.76 133.82,403.76 
		141.82,403.76 141.82,401.76 133.82,401.76 133.82,393.76 	"/>
</g>
<g>
	<path d="M237.031,389.451c-7.179,0-13,5.82-13,13s5.821,13,13,13s13-5.82,13-13S244.21,389.451,237.031,389.451z M237.031,413.451
		c-6.065,0-11-4.935-11-11s4.935-11,11-11s11,4.935,11,11S243.097,413.451,237.031,413.451z"/>
	<path d="M232.765,406.693l6.363-2.121l2.121-6.364l-6.363,2.122L232.765,406.693z M236.467,401.911l1.62-0.54l-0.54,1.62
		l-1.62,0.54L236.467,401.911z"/>
</g>
<g>
	<path d="M-483.676,479.969c-7.179,0-13,5.82-13,13s5.821,13,13,13s13-5.82,13-13S-476.497,479.969-483.676,479.969z
		 M-483.676,503.969c-6.065,0-11-4.934-11-11c0-6.064,4.935-11,11-11s11,4.936,11,11
		C-472.676,499.035-477.61,503.969-483.676,503.969z"/>
	<path d="M-481.114,491.391l-2.586-4.422l-2.529,4.33h0.007c-0.299,0.467-0.478,1.018-0.478,1.613c0,1.656,1.343,3,3,3s3-1.344,3-3
		c0-0.559-0.162-1.074-0.428-1.521H-481.114z M-483.7,493.912c-0.552,0-1-0.449-1-1c0-0.188,0.055-0.367,0.162-0.535l0.864-1.355
		l0.826,1.391c0.098,0.164,0.147,0.332,0.147,0.5C-482.7,493.463-483.148,493.912-483.7,493.912z"/>
</g>
<g>
	<path d="M-378.892,479.969c-7.18,0-13,5.82-13,13s5.82,13,13,13s13-5.82,13-13S-371.712,479.969-378.892,479.969z
		 M-378.892,503.969c-6.065,0-11-4.934-11-11c0-6.064,4.935-11,11-11s11,4.936,11,11
		C-367.892,499.035-372.826,503.969-378.892,503.969z"/>
	<path d="M-377.303,490.389c-0.467-0.299-1.018-0.477-1.613-0.477c-1.658,0-3,1.342-3,3c0,1.656,1.342,3,3,3
		c0.557,0,1.072-0.162,1.52-0.428v0.014l4.422-2.586l-4.328-2.529V490.389z M-378.418,493.764c-0.164,0.098-0.332,0.148-0.498,0.148
		c-0.552,0-1-0.449-1-1c0-0.553,0.448-1,1-1c0.188,0,0.368,0.053,0.535,0.16l1.355,0.865L-378.418,493.764z"/>
</g>
<g>
	<path d="M-275.841,479.969c-7.18,0-13,5.82-13,13s5.82,13,13,13s13-5.82,13-13S-268.661,479.969-275.841,479.969z
		 M-275.841,503.969c-6.065,0-11-4.934-11-11c0-6.064,4.935-11,11-11s11,4.936,11,11
		C-264.841,499.035-269.775,503.969-275.841,503.969z"/>
	<path d="M-275.841,489.912c-1.656,0-3,1.342-3,3c0,0.557,0.162,1.072,0.428,1.52h-0.014l2.586,4.422l2.529-4.328h-0.006
		c0.299-0.467,0.477-1.018,0.477-1.613C-272.841,491.254-274.183,489.912-275.841,489.912z M-275.002,493.447l-0.865,1.355
		l-0.826-1.393c-0.098-0.164-0.147-0.332-0.147-0.498c0-0.553,0.448-1,1-1s1,0.447,1,1
		C-274.841,493.1-274.895,493.279-275.002,493.447z"/>
</g>
<g>
	<path d="M-172.427,479.969c-7.179,0-13,5.82-13,13s5.821,13,13,13s13-5.82,13-13S-165.248,479.969-172.427,479.969z
		 M-172.427,503.969c-6.065,0-11-4.934-11-11c0-6.064,4.935-11,11-11s11,4.936,11,11
		C-161.427,499.035-166.361,503.969-172.427,503.969z"/>
	<path d="M-172.468,489.912c-0.557,0-1.072,0.162-1.52,0.428v-0.014l-4.422,2.586l4.328,2.529v-0.006
		c0.467,0.299,1.018,0.477,1.613,0.477c1.658,0,3-1.342,3-3C-169.468,491.256-170.81,489.912-172.468,489.912z M-172.468,493.912
		c-0.188,0-0.368-0.055-0.535-0.162l-1.355-0.865l1.393-0.826c0.164-0.098,0.332-0.146,0.498-0.146c0.552,0,1,0.447,1,1
		C-171.468,493.463-171.916,493.912-172.468,493.912z"/>
</g>
<g>
	<rect x="-380.578" y="283.24" width="2" height="10"/>
	<rect x="-365.878" y="289.326" transform="matrix(0.7071 0.7071 -0.7071 0.7071 101.3943 344.274)" width="2" height="10.409"/>
	<rect x="-399.487" y="293.536" transform="matrix(0.7071 0.7071 -0.7071 0.7071 92.7854 365.0675)" width="10.409" height="2"/>
	<polygon points="-386.246,312.494 -384.832,313.908 -380.578,309.654 -380.578,319.24 -378.578,319.24 -378.578,309.654 
		-374.325,313.908 -372.911,312.494 -379.578,305.826 	"/>
	<path d="M-366.571,309.239c0-0.002,0-0.004,0-0.006c0-7.18-5.82-12.999-13-12.999s-13,5.819-13,12.999c0,0.002,0,0.004,0,0.006h-13
		v2h18v-2h-3c0-0.002,0-0.004,0-0.006c0-6.064,4.935-10.999,11-10.999s11,4.935,11,10.999c0,0.002,0,0.004,0,0.006h-3v2h17.995v-2
		H-366.571z"/>
</g>
<g>
	<rect x="-276.833" y="282.053" width="2" height="10"/>
	<rect x="-262.133" y="288.139" transform="matrix(0.7071 0.7071 -0.7071 0.7071 130.9408 270.5674)" width="2" height="10.409"/>
	<rect x="-295.742" y="292.348" transform="matrix(0.7071 0.7071 -0.7071 0.7071 122.332 291.3608)" width="10.409" height="2"/>
	<polygon points="-274.833,316.6 -274.833,306.053 -276.833,306.053 -276.833,316.6 -281.087,312.346 -282.501,313.76 
		-275.833,320.428 -269.166,313.76 -270.58,312.346 	"/>
	<path d="M-262.826,308.052c0-0.002,0-0.004,0-0.006c0-7.18-5.82-12.999-13-12.999s-13,5.819-13,12.999c0,0.002,0,0.004,0,0.006h-13
		v2h22v-2h-7c0-0.002,0-0.004,0-0.006c0-6.064,4.935-10.999,11-10.999s11,4.935,11,10.999c0,0.002,0,0.004,0,0.006h-7v2h21.995v-2
		H-262.826z"/>
</g>
<g>
	<polygon points="-72.476,316.065 -72.476,301.683 -74.476,301.683 -74.476,316.065 -78.729,311.812 -80.144,313.226 
		-73.476,319.894 -66.809,313.226 -68.223,311.812 	"/>
	<path d="M-56.848,296.712c-1.596-7.445-8.207-13.029-16.127-13.029c-6.423,0-11.977,3.678-14.702,9.035
		c-0.266-0.018-0.53-0.04-0.8-0.04c-6.627,0-11.999,5.372-11.999,12c0,6.607,5.34,11.965,11.938,11.998v0.003h6.062v-2h-5.604
		l-0.447-0.003c-5.485-0.027-9.948-4.513-9.948-9.998c0-5.514,4.485-10,9.999-10c0.175,0,0.347,0.014,0.52,0.025l0.148,0.01
		l1.316,0.088l0.598-1.176c2.492-4.899,7.443-7.942,12.92-7.942c6.79,0,12.75,4.814,14.172,11.448l0.317,1.482l1.514,0.095
		c4.203,0.262,7.496,3.763,7.496,7.971c0,4.397-3.565,7.977-7.957,8c-0.05-0.003-0.093-0.005-0.137-0.007l-2.043,0.007h-4.863v2
		h6.863v-0.007c0.046,0.001,0.091,0.007,0.137,0.007c5.521,0,10-4.477,10-10C-47.476,301.368-51.62,297.037-56.848,296.712z"/>
</g>
<g>
	<polygon points="-166.491,312.87 -165.077,311.456 -171.744,304.788 -178.412,311.456 -176.998,312.87 -172.744,308.616 
		-172.744,321.202 -170.744,321.202 -170.744,308.616 	"/>
	<path d="M-155.116,298.308c-1.596-7.445-8.207-13.029-16.127-13.029c-6.423,0-11.977,3.678-14.702,9.035
		c-0.266-0.018-0.53-0.04-0.8-0.04c-6.627,0-11.999,5.372-11.999,12c0,6.607,5.34,11.965,11.938,11.998v0.003h10.062v-2h-9.604
		l-0.447-0.003c-5.485-0.027-9.948-4.513-9.948-9.998c0-5.514,4.485-10,9.999-10c0.175,0,0.347,0.014,0.52,0.025l0.148,0.01
		l1.316,0.088l0.598-1.176c2.492-4.899,7.443-7.942,12.92-7.942c6.79,0,12.75,4.814,14.172,11.448l0.317,1.482l1.514,0.095
		c4.203,0.262,7.496,3.763,7.496,7.971c0,4.397-3.565,7.977-7.957,8c-0.05-0.003-0.093-0.005-0.137-0.007l-2.043,0.007h-8.863v2
		h10.863v-0.007c0.046,0.001,0.091,0.007,0.137,0.007c5.521,0,10-4.477,10-10C-145.744,302.964-149.889,298.633-155.116,298.308z"/>
</g>
<g>
	<path d="M47.373,108.792c-1.596-7.445-8.207-13.029-16.127-13.029c-6.423,0-11.977,3.678-14.702,9.035
		c-0.266-0.018-0.53-0.04-0.8-0.04c-6.627,0-11.999,5.372-11.999,12c0,6.607,5.34,11.965,11.938,11.998v0.003h2.062v-2h-1.604
		l-0.447-0.003c-5.485-0.027-9.948-4.513-9.948-9.998c0-5.514,4.485-10,9.999-10c0.175,0,0.347,0.014,0.52,0.025l0.148,0.01
		l1.316,0.088l0.598-1.176c2.492-4.899,7.443-7.942,12.92-7.942c6.79,0,12.75,4.814,14.172,11.448l0.317,1.482l1.514,0.095
		c4.203,0.262,7.496,3.763,7.496,7.971c0,4.397-3.565,7.977-7.957,8c-0.05-0.003-0.093-0.005-0.137-0.007l-2.043,0.007h-0.863v2
		h2.863v-0.007c0.046,0.001,0.091,0.007,0.137,0.007c5.521,0,10-4.477,10-10C56.745,113.448,52.601,109.117,47.373,108.792z"/>
	<polygon points="25.745,127.78 25.745,125.15 27.918,126.373 28.604,125.152 26.134,123.763 28.604,122.373 27.918,121.152 
		25.745,122.375 25.745,119.78 23.745,119.78 23.745,122.419 21.494,121.152 20.809,122.373 23.278,123.763 20.809,125.152 
		21.494,126.373 23.745,125.106 23.745,127.78 	"/>
	<polygon points="30.907,132.135 28.734,133.357 28.734,130.763 26.734,130.763 26.734,133.401 24.483,132.135 23.798,133.355 
		26.268,134.745 23.798,136.135 24.483,137.355 26.734,136.089 26.734,138.763 28.734,138.763 28.734,136.133 30.907,137.355 
		31.593,136.135 29.123,134.745 31.593,133.355 	"/>
	<polygon points="39.923,125.152 37.75,126.375 37.75,123.78 35.75,123.78 35.75,126.419 33.499,125.152 32.813,126.373 
		35.283,127.763 32.813,129.152 33.499,130.373 35.75,129.106 35.75,131.78 37.75,131.78 37.75,129.15 39.923,130.373 
		40.608,129.152 38.139,127.763 40.608,126.373 	"/>
</g>
<g>
	<rect x="122.885" y="90.74" width="2" height="7.973"/>
	<rect x="103.885" y="109.654" width="7.973" height="2"/>
	<rect x="108.558" y="98.388" transform="matrix(0.7071 0.7071 -0.7071 0.7071 103.2414 -50.4713)" width="7.974" height="2"/>
	<rect x="134.067" y="95.406" transform="matrix(0.7071 0.7071 -0.7071 0.7071 109.8405 -66.3952)" width="2" height="7.972"/>
	<path d="M153.396,116.53c-1.444-6.742-7.433-11.8-14.605-11.8c-2.185,0-4.258,0.471-6.127,1.314
		c-1.666-3.203-5.006-5.395-8.865-5.395c-5.522,0-10,4.477-10,9.999c0,2.46,0.899,4.702,2.373,6.442
		c-1.428,1.84-2.287,4.144-2.287,6.653c0,5.983,4.836,10.836,10.813,10.865v0.003h1.188v-2h-0.721l-0.457-0.003
		c-4.864-0.023-8.822-4.001-8.822-8.865c0-4.89,3.978-8.868,8.867-8.868c0.15,0,0.299,0.012,0.447,0.022l0.148,0.01l1.314,0.085
		l0.597-1.175c2.225-4.372,6.644-7.089,11.532-7.089c6.062,0,11.382,4.298,12.649,10.219l0.318,1.483l1.514,0.094
		c3.708,0.23,6.612,3.319,6.612,7.03c0,3.878-3.144,7.035-7.017,7.057c-0.042-0.003-0.079-0.005-0.117-0.005l-1.866,0.005v2h1.819
		v-0.006c0.042,0.001,0.082,0.006,0.124,0.006c5.001,0,9.057-4.054,9.057-9.057C161.885,120.747,158.131,116.825,153.396,116.53z
		 M125.477,112.913c-0.241-0.016-0.48-0.036-0.725-0.036c-2.766,0-5.282,1.041-7.2,2.742c-1.092-1.365-1.753-3.089-1.753-4.97
		c0-4.41,3.589-7.999,8-7.999c3.092,0,5.76,1.773,7.091,4.346C128.592,108.436,126.713,110.483,125.477,112.913z"/>
	<polygon points="132.877,133.633 132.877,131.003 135.05,132.226 135.735,131.005 133.266,129.615 135.735,128.226 135.05,127.005 
		132.877,128.228 132.877,125.633 130.877,125.633 130.877,128.271 128.626,127.005 127.94,128.226 130.41,129.615 127.94,131.005 
		128.626,132.226 130.877,130.959 130.877,133.633 	"/>
	<polygon points="138.039,137.987 135.866,139.21 135.866,136.615 133.866,136.615 133.866,139.254 131.615,137.987 130.93,139.208 
		133.399,140.598 130.93,141.987 131.615,143.208 133.866,141.941 133.866,144.615 135.866,144.615 135.866,141.985 
		138.039,143.208 138.725,141.987 136.255,140.598 138.725,139.208 	"/>
	<polygon points="147.055,131.005 144.882,132.228 144.882,129.633 142.882,129.633 142.882,132.271 140.631,131.005 
		139.945,132.226 142.415,133.615 139.945,135.005 140.631,136.226 142.882,134.959 142.882,137.633 144.882,137.633 
		144.882,135.003 147.055,136.226 147.74,135.005 145.271,133.615 147.74,132.226 	"/>
</g>
<g>
	<path d="M253.585,113.527c-1.444-6.742-7.433-11.8-14.605-11.8c-1.799,0-3.522,0.32-5.118,0.904
		c-0.949-5.108-5.404-8.98-10.788-8.98c-0.413,0-0.819,0.027-1.222,0.071c0.744,1.112,1.179,2.448,1.179,3.886c0,3.865-3.134,7-7,7
		c-1.438,0-2.773-0.435-3.886-1.179c-0.044,0.401-0.071,0.809-0.071,1.222c0,3.713,1.845,6.987,4.661,8.979
		c-1.653,1.907-2.661,4.389-2.661,7.111c0,5.983,4.836,10.836,10.813,10.865v0.003h1.188v-2h-0.721l-0.457-0.003
		c-4.864-0.023-8.822-4.001-8.822-8.865c0-4.89,3.978-8.868,8.867-8.868c0.15,0,0.299,0.012,0.447,0.022l0.148,0.01l1.314,0.085
		l0.597-1.175c2.225-4.372,6.644-7.089,11.532-7.089c6.062,0,11.382,4.298,12.649,10.219l0.318,1.483l1.514,0.094
		c3.708,0.23,6.612,3.319,6.612,7.03c0,3.878-3.144,7.035-7.017,7.057c-0.042-0.003-0.079-0.005-0.117-0.005l-1.866,0.005v2h1.819
		v-0.006c0.042,0.001,0.082,0.006,0.124,0.006c5.001,0,9.057-4.054,9.057-9.057C262.073,117.744,258.319,113.822,253.585,113.527z
		 M225.665,109.91c-0.241-0.016-0.48-0.036-0.725-0.036c-2.537,0-4.865,0.877-6.715,2.334c-2.012-1.294-3.486-3.354-3.976-5.776
		c0.582,0.117,1.178,0.177,1.78,0.177c4.963,0,9-4.037,9-9c0-0.603-0.06-1.198-0.177-1.78c3.733,0.753,6.629,3.824,7.134,7.64
		C229.274,104.912,227.06,107.167,225.665,109.91z"/>
	<polygon points="233.11,130.63 233.11,128 235.283,129.223 235.969,128.002 233.499,126.612 235.969,125.223 235.283,124.002 
		233.11,125.225 233.11,122.63 231.11,122.63 231.11,125.269 228.859,124.002 228.174,125.223 230.644,126.612 228.174,128.002 
		228.859,129.223 231.11,127.956 231.11,130.63 	"/>
	<polygon points="238.272,134.984 236.1,136.207 236.1,133.612 234.1,133.612 234.1,136.251 231.849,134.984 231.163,136.205 
		233.633,137.595 231.163,138.984 231.849,140.205 234.1,138.938 234.1,141.612 236.1,141.612 236.1,138.982 238.272,140.205 
		238.958,138.984 236.488,137.595 238.958,136.205 	"/>
	<polygon points="247.288,128.002 245.115,129.225 245.115,126.63 243.115,126.63 243.115,129.269 240.864,128.002 240.179,129.223 
		242.648,130.612 240.179,132.002 240.864,133.223 243.115,131.956 243.115,134.63 245.115,134.63 245.115,132 247.288,133.223 
		247.974,132.002 245.504,130.612 247.974,129.223 	"/>
</g>
<rect x="-362.773" y="-454.223" fill="none" width="472.974" height="180.918"/>
<text transform="matrix(1 0 0 1 -183.1362 -382.8237)"><tspan x="0" y="0" font-family="'HelveticaNeueLTStd-Th'" font-size="100" letter-spacing="2">60</tspan><tspan x="-99.268" y="60" font-family="'HelveticaNeueLTStd-Lt'" font-size="48" letter-spacing="1">Weather Icons</tspan><tspan x="-3.726" y="104" font-family="'HelveticaNeueLTStd-Lt'" font-size="24">IOS 7 Style</tspan></text>
</svg>
