<?xml version="1.0" encoding="utf-8"?>
<!-- Generator: Adobe Illustrator 16.0.0, SVG Export Plug-In . SVG Version: 6.00 Build 0)  -->
<!DOCTYPE svg PUBLIC "-//W3C//DTD SVG 1.1//EN" "http://www.w3.org/Graphics/SVG/1.1/DTD/svg11.dtd">
<svg version="1.1" id="Layer_1" xmlns="http://www.w3.org/2000/svg" xmlns:xlink="http://www.w3.org/1999/xlink" x="0px" y="0px"
	 width="33.963px" height="34.001px" viewBox="0 0 33.963 34.001" enable-background="new 0 0 33.963 34.001" xml:space="preserve">
<path d="M534.432,464.764l-1.803,15.077l-0.268,2.237h2.254h6.896l-14.693,18.759l1.789-14.52l0.277-2.245h-2.262h-6.957
	L534.432,464.764 M537.286,457.739l-21.667,28.333h11.004l-2.671,21.667l21.667-27.661h-11.004L537.286,457.739L537.286,457.739z"/>
<path d="M121.396,2.503c6.79,0,12.749,4.814,14.171,11.448l0.318,1.483l1.514,0.094c4.203,0.262,7.496,3.763,7.496,7.971
	c0,4.396-3.565,7.977-7.957,8c-0.046-0.003-0.091-0.006-0.137-0.007l-2.043-0.036v0.043h-28.337l-0.578-0.003
	c-5.485-0.027-9.948-4.513-9.948-9.998c0-5.514,4.485-10,9.999-10c0.175,0,0.347,0.014,0.519,0.025l0.149,0.011l1.316,0.087
	l0.598-1.176C110.97,5.546,115.92,2.503,121.396,2.503 M121.396,0.503c-6.423,0-11.977,3.678-14.702,9.035
	c-0.266-0.018-0.53-0.04-0.8-0.04c-6.627,0-11.999,5.372-11.999,12c0,6.607,5.34,11.965,11.938,11.998v0.003h30.925v-0.007
	c0.046,0.001,0.091,0.007,0.137,0.007c5.521,0,10-4.477,10-10c0-5.311-4.145-9.642-9.372-9.967
	C135.928,6.087,129.316,0.503,121.396,0.503L121.396,0.503z"/>
<g>
	<path d="M244.348,20.914c-1.444-6.742-7.433-11.8-14.605-11.8c-2.185,0-4.258,0.47-6.127,1.313
		c-1.666-3.202-5.006-5.394-8.865-5.394c-5.522,0-10,4.477-10,9.999c0,2.46,0.898,4.702,2.373,6.442
		c-1.428,1.84-2.287,4.144-2.287,6.653c0,5.983,4.836,10.836,10.813,10.865v0.003h28.007v-0.006
		c0.042,0.001,0.082,0.006,0.124,0.006c5.001,0,9.057-4.054,9.057-9.057C252.836,25.131,249.082,21.209,244.348,20.914z
		 M214.75,7.034c3.092,0,5.76,1.773,7.092,4.345c-2.299,1.44-4.178,3.488-5.414,5.918c-0.241-0.016-0.48-0.036-0.725-0.036
		c-2.766,0-5.281,1.041-7.2,2.743c-1.092-1.366-1.753-3.09-1.753-4.971C206.75,10.623,210.339,7.034,214.75,7.034z M243.819,36.997
		c-0.038-0.003-0.077-0.004-0.117-0.005l-2.047-0.042v0.047h-25.403l-0.594-0.003c-4.864-0.023-8.822-4.001-8.822-8.865
		c0-4.89,3.978-8.868,8.867-8.868c0.15,0,0.299,0.012,0.447,0.021l0.148,0.011l1.314,0.085l0.598-1.174
		c2.224-4.373,6.643-7.09,11.531-7.09c6.062,0,11.381,4.298,12.65,10.219l0.317,1.482l1.514,0.095
		c3.708,0.231,6.612,3.319,6.612,7.03C250.836,33.818,247.692,36.975,243.819,36.997z"/>
	<rect x="213.756" y="-4.996" width="2" height="7.973"/>
	<rect x="194.783" y="13.99" width="7.973" height="2"/>
	<rect x="199.509" y="2.772" transform="matrix(0.7071 0.7071 -0.7071 0.7071 62.2695 -142.7888)" width="7.974" height="2"/>
	<rect x="225.018" y="-0.21" transform="matrix(0.7071 0.7071 -0.7071 0.7071 68.8686 -158.7128)" width="2" height="7.972"/>
</g>
<path d="M340.091,16.887c-1.444-6.742-7.433-11.8-14.605-11.8c-1.799,0-3.521,0.32-5.118,0.904c-0.949-5.108-5.404-8.98-10.788-8.98
	c-0.413,0-0.819,0.027-1.222,0.071c0.744,1.112,1.179,2.448,1.179,3.886c0,3.865-3.134,7-7,7c-1.438,0-2.773-0.435-3.886-1.179
	c-0.044,0.401-0.071,0.809-0.071,1.222c0,3.712,1.845,6.987,4.661,8.979c-1.653,1.907-2.661,4.389-2.661,7.111
	c0,5.983,4.836,10.836,10.813,10.865v0.003h28.007v-0.006c0.042,0.001,0.082,0.006,0.124,0.006c5.001,0,9.057-4.054,9.057-9.057
	C348.579,21.104,344.825,17.182,340.091,16.887z M300.756,9.791c0.582,0.117,1.178,0.177,1.78,0.177c4.963,0,9-4.037,9-9
	c0-0.603-0.06-1.198-0.177-1.78c3.733,0.753,6.629,3.824,7.134,7.64c-2.713,1.444-4.928,3.699-6.322,6.442
	c-0.241-0.016-0.48-0.036-0.725-0.036c-2.537,0-4.865,0.876-6.715,2.334C302.72,14.273,301.245,12.214,300.756,9.791z
	 M339.563,32.97c-0.038-0.003-0.077-0.004-0.117-0.005l-2.047-0.042v0.047h-25.403l-0.594-0.003
	c-4.864-0.023-8.822-4.001-8.822-8.865c0-4.89,3.978-8.868,8.867-8.868c0.15,0,0.299,0.012,0.447,0.021l0.148,0.011l1.314,0.085
	l0.598-1.174c2.224-4.373,6.643-7.09,11.531-7.09c6.062,0,11.381,4.298,12.65,10.219l0.317,1.482l1.514,0.095
	c3.708,0.231,6.612,3.319,6.612,7.03C346.579,29.791,343.436,32.947,339.563,32.97z"/>
<g>
	<rect x="424.736" y="25.51" width="2" height="7"/>
	<rect x="432.736" y="21.51" width="2" height="7"/>
	<rect x="416.736" y="21.51" width="2" height="7"/>
	<rect x="424.736" y="35.51" width="2" height="7"/>
	<rect x="432.736" y="31.51" width="2" height="7"/>
	<rect x="416.736" y="31.51" width="2" height="7"/>
	<path d="M443.364,8.521c-1.596-7.445-8.207-13.029-16.127-13.029c-6.423,0-11.977,3.678-14.702,9.035
		c-0.266-0.018-0.53-0.04-0.8-0.04c-6.627,0-11.999,5.372-11.999,12c0,6.607,5.34,11.965,11.938,11.998v0.003h2.062v-2h-1.604
		l-0.447-0.003c-5.485-0.027-9.948-4.513-9.948-9.998c0-5.514,4.485-10,9.999-10c0.175,0,0.347,0.014,0.52,0.025l0.148,0.01
		l1.316,0.088l0.598-1.176c2.492-4.899,7.443-7.942,12.92-7.942c6.79,0,12.75,4.814,14.172,11.448l0.317,1.482l1.514,0.095
		c4.203,0.262,7.496,3.763,7.496,7.971c0,4.397-3.565,7.977-7.957,8c-0.05-0.003-0.093-0.005-0.137-0.007l-2.043,0.007h-2.863v2
		h4.863v-0.007c0.046,0.001,0.091,0.007,0.137,0.007c5.521,0,10-4.477,10-10C452.736,13.178,448.592,8.847,443.364,8.521z"/>
</g>
<g>
	<path d="M240.938,97.879c-1.596-7.445-8.207-13.029-16.127-13.029c-6.423,0-11.977,3.678-14.702,9.035
		c-0.266-0.018-0.53-0.04-0.8-0.04c-6.627,0-11.999,5.372-11.999,12c0,6.607,5.34,11.965,11.938,11.998v0.003h2.062v-2h-1.604
		l-0.447-0.003c-5.485-0.027-9.948-4.513-9.948-9.998c0-5.514,4.485-10,9.999-10c0.175,0,0.347,0.014,0.52,0.025l0.148,0.01
		l1.316,0.088l0.598-1.176c2.492-4.899,7.443-7.942,12.92-7.942c6.79,0,12.75,4.814,14.172,11.448l0.317,1.482l1.514,0.095
		c4.203,0.262,7.496,3.763,7.496,7.971c0,4.397-3.565,7.977-7.957,8c-0.05-0.003-0.093-0.005-0.137-0.007l-2.043,0.007h-2.863v2
		h4.863v-0.007c0.046,0.001,0.091,0.007,0.137,0.007c5.521,0,10-4.477,10-10C250.31,102.535,246.165,98.204,240.938,97.879z"/>
	<polygon points="222.31,124.874 222.31,126.814 222.31,132.874 224.31,132.874 224.31,126.814 224.31,124.874 224.31,112.874 
		222.31,112.874 	"/>
	<polygon points="230.31,120.874 230.31,122.627 230.31,128.874 232.31,128.874 232.31,122.627 232.31,120.874 232.31,108.874 
		230.31,108.874 	"/>
	<polygon points="214.31,120.874 214.31,122.939 214.31,128.874 216.31,128.874 216.31,122.939 216.31,120.874 216.31,108.874 
		214.31,108.874 	"/>
</g>
<g>
	<polygon points="536.587,121.785 529.704,111.955 528.066,113.103 534.949,122.933 536.062,124.521 539.537,129.485 
		541.176,128.339 537.7,123.374 	"/>
	<polygon points="544.589,121.783 537.704,111.955 536.066,113.104 542.952,122.932 543.957,124.367 547.541,129.482 
		549.18,128.336 545.596,123.22 	"/>
	<polygon points="528.587,121.785 521.704,111.955 520.066,113.104 526.949,122.933 528.134,124.625 531.538,129.486 
		533.176,128.339 529.772,123.478 	"/>
	<path d="M547.694,98.146c-1.596-7.445-8.207-13.029-16.127-13.029c-6.423,0-11.977,3.678-14.702,9.035
		c-0.266-0.018-0.53-0.04-0.8-0.04c-6.627,0-11.999,5.372-11.999,12c0,6.607,5.34,11.965,11.938,11.998v0.003h2.062v-2h-1.604
		l-0.447-0.003c-5.485-0.027-9.948-4.513-9.948-9.998c0-5.514,4.485-10,9.999-10c0.175,0,0.347,0.014,0.52,0.025l0.148,0.01
		l1.316,0.088l0.598-1.176c2.492-4.899,7.443-7.942,12.92-7.942c6.79,0,12.75,4.814,14.172,11.448l0.317,1.482l1.514,0.095
		c4.203,0.262,7.496,3.763,7.496,7.971c0,4.397-3.565,7.977-7.957,8c-0.05-0.003-0.093-0.005-0.137-0.007l-1.043,0.007h0.137v2
		h0.863v-0.007c0.046,0.001,0.091,0.007,0.137,0.007c5.521,0,10-4.477,10-10C557.066,102.802,552.922,98.471,547.694,98.146z"/>
</g>
<g>
	<rect x="519.393" y="-10.937" width="2" height="7.973"/>
	<rect x="500.393" y="7.978" width="7.973" height="2"/>
	<rect x="505.066" y="-3.289" transform="matrix(0.7071 0.7071 -0.7071 0.7071 147.4795 -360.6251)" width="7.974" height="2"/>
	<rect x="530.574" y="-6.271" transform="matrix(0.7071 0.7071 -0.7071 0.7071 154.0786 -376.549)" width="2" height="7.972"/>
	<rect x="533.393" y="29.937" width="2" height="7"/>
	<rect x="541.393" y="25.937" width="2" height="7"/>
	<rect x="525.393" y="25.937" width="2" height="7"/>
	<rect x="533.393" y="39.937" width="2" height="7"/>
	<rect x="541.393" y="35.937" width="2" height="7"/>
	<rect x="525.393" y="35.937" width="2" height="7"/>
	<path d="M549.904,14.854c-1.444-6.742-7.433-11.8-14.605-11.8c-2.185,0-4.258,0.47-6.126,1.313
		c-1.667-3.202-5.007-5.394-8.866-5.394c-5.522,0-10,4.477-10,9.999c0,2.46,0.899,4.702,2.373,6.442
		c-1.429,1.84-2.287,4.144-2.287,6.653c0,5.983,4.836,10.836,10.813,10.865v0.003h1.188v-2h-0.721l-0.457-0.003
		c-4.864-0.023-8.822-4.001-8.822-8.865c0-4.89,3.978-8.868,8.867-8.868c0.15,0,0.299,0.012,0.447,0.022l0.148,0.01l1.314,0.085
		l0.597-1.175c2.225-4.372,6.644-7.089,11.532-7.089c6.062,0,11.382,4.298,12.649,10.219l0.318,1.483l1.514,0.094
		c3.708,0.23,6.612,3.319,6.612,7.03c0,3.878-3.144,7.035-7.017,7.057c-0.042-0.003-0.079-0.005-0.117-0.005l-2.047,0.005h-0.819v2
		h2.819v-0.006c0.042,0.001,0.082,0.006,0.124,0.006c5.001,0,9.057-4.054,9.057-9.057C558.393,19.07,554.639,15.148,549.904,14.854z
		 M521.984,11.236c-0.241-0.016-0.48-0.036-0.725-0.036c-2.766,0-5.282,1.041-7.2,2.743c-1.092-1.366-1.753-3.09-1.753-4.971
		c0-4.41,3.589-7.999,8-7.999c3.091,0,5.76,1.773,7.091,4.345C525.1,6.759,523.22,8.807,521.984,11.236z"/>
</g>
<g>
	<rect x="633.81" y="28.489" width="2" height="7"/>
	<rect x="641.81" y="24.489" width="2" height="7"/>
	<rect x="625.81" y="24.489" width="2" height="7"/>
	<rect x="633.81" y="38.489" width="2" height="7"/>
	<rect x="641.81" y="34.489" width="2" height="7"/>
	<rect x="625.81" y="34.489" width="2" height="7"/>
	<path d="M650.321,13.406c-1.444-6.742-7.433-11.8-14.605-11.8c-1.799,0-3.522,0.32-5.118,0.904
		c-0.949-5.108-5.404-8.98-10.788-8.98c-0.413,0-0.819,0.027-1.222,0.071c0.744,1.112,1.179,2.448,1.179,3.886c0,3.865-3.134,7-7,7
		c-1.438,0-2.773-0.435-3.886-1.179c-0.044,0.401-0.071,0.809-0.071,1.222c0,3.712,1.845,6.987,4.661,8.979
		c-1.653,1.907-2.661,4.389-2.661,7.111c0,5.983,4.836,10.836,10.813,10.865v0.003h1.188v-2h-0.721l-0.457-0.003
		c-4.864-0.023-8.822-4.001-8.822-8.865c0-4.89,3.978-8.868,8.867-8.868c0.15,0,0.299,0.012,0.447,0.022l0.148,0.01l1.314,0.085
		l0.597-1.175c2.225-4.372,6.644-7.089,11.532-7.089c6.062,0,11.382,4.298,12.649,10.219l0.318,1.483l1.514,0.094
		c3.708,0.23,6.612,3.319,6.612,7.03c0,3.878-3.144,7.035-7.017,7.057c-0.042-0.003-0.079-0.005-0.117-0.005l-2.047,0.005h-0.819v2
		h2.819v-0.006c0.042,0.001,0.082,0.006,0.124,0.006c5.001,0,9.057-4.054,9.057-9.057C658.81,17.623,655.056,13.701,650.321,13.406z
		 M622.401,9.789c-0.241-0.016-0.48-0.036-0.725-0.036c-2.537,0-4.865,0.876-6.715,2.334c-2.012-1.294-3.487-3.354-3.976-5.776
		c0.582,0.117,1.178,0.177,1.78,0.177c4.963,0,9-4.037,9-9c0-0.603-0.06-1.198-0.177-1.78c3.733,0.753,6.629,3.824,7.133,7.64
		C626.012,4.791,623.797,7.046,622.401,9.789z"/>
</g>
<g>
	<polygon points="326.579,129.313 326.579,131.253 326.579,137.313 328.579,137.313 328.579,131.253 328.579,129.313 
		328.579,117.313 326.579,117.313 	"/>
	<polygon points="334.579,125.313 334.579,127.065 334.579,133.313 336.579,133.313 336.579,127.065 336.579,125.313 
		336.579,113.313 334.579,113.313 	"/>
	<polygon points="318.579,125.313 318.579,127.378 318.579,133.313 320.579,133.313 320.579,127.378 320.579,125.313 
		320.579,113.313 318.579,113.313 	"/>
	<rect x="312.579" y="78.41" width="2" height="7.973"/>
	<rect x="293.579" y="97.324" width="7.973" height="2"/>
	<rect x="298.252" y="86.058" transform="matrix(0.7071 0.7071 -0.7071 0.7071 150.0829 -188.2168)" width="7.974" height="2"/>
	<rect x="323.761" y="83.076" transform="matrix(0.7071 0.7071 -0.7071 0.7071 156.682 -204.1408)" width="2" height="7.972"/>
	<path d="M343.091,104.2c-1.444-6.742-7.433-11.8-14.605-11.8c-2.185,0-4.258,0.47-6.127,1.313
		c-1.666-3.202-5.006-5.394-8.865-5.394c-5.522,0-10,4.477-10,9.999c0,2.46,0.898,4.702,2.373,6.442
		c-1.428,1.84-2.287,4.144-2.287,6.653c0,5.983,4.836,10.836,10.813,10.865v0.003h1.188v-2h-0.721l-0.457-0.003
		c-4.864-0.023-8.822-4.001-8.822-8.865c0-4.89,3.978-8.868,8.867-8.868c0.15,0,0.299,0.012,0.447,0.022l0.148,0.01l1.314,0.085
		l0.597-1.175c2.225-4.372,6.644-7.089,11.532-7.089c6.062,0,11.382,4.298,12.649,10.219l0.318,1.483l1.514,0.094
		c3.708,0.23,6.612,3.319,6.612,7.03c0,3.878-3.144,7.035-7.017,7.057c-0.042-0.003-0.079-0.005-0.117-0.005l-2.047,0.005h-0.819v2
		h2.819v-0.006c0.042,0.001,0.082,0.006,0.124,0.006c5.001,0,9.057-4.054,9.057-9.057
		C351.579,108.417,347.825,104.495,343.091,104.2z M315.171,100.583c-0.241-0.016-0.48-0.036-0.725-0.036
		c-2.766,0-5.281,1.042-7.2,2.743c-1.092-1.367-1.753-3.09-1.753-4.971c0-4.41,3.589-7.999,8-7.999c3.092,0,5.76,1.773,7.092,4.345
		C318.286,96.104,316.407,98.153,315.171,100.583z"/>
</g>
<g>
	<polygon points="426.977,126.796 426.977,128.736 426.977,134.796 428.977,134.796 428.977,128.736 428.977,126.796 
		428.977,114.796 426.977,114.796 	"/>
	<polygon points="434.977,122.796 434.977,124.549 434.977,130.796 436.977,130.796 436.977,124.549 436.977,122.796 
		436.977,110.796 434.977,110.796 	"/>
	<polygon points="418.977,122.796 418.977,124.861 418.977,130.796 420.977,130.796 420.977,124.861 420.977,122.796 
		420.977,110.796 418.977,110.796 	"/>
	<path d="M443.488,101.684c-1.444-6.742-7.433-11.8-14.605-11.8c-1.799,0-3.521,0.32-5.118,0.904
		c-0.949-5.108-5.404-8.98-10.788-8.98c-0.413,0-0.819,0.027-1.222,0.071c0.744,1.112,1.179,2.448,1.179,3.886c0,3.865-3.134,7-7,7
		c-1.438,0-2.773-0.435-3.886-1.179c-0.044,0.401-0.071,0.809-0.071,1.222c0,3.712,1.845,6.987,4.661,8.979
		c-1.653,1.907-2.661,4.389-2.661,7.111c0,5.983,4.836,10.836,10.813,10.865v0.003h1.188v-2h-0.721l-0.457-0.003
		c-4.864-0.023-8.822-4.001-8.822-8.865c0-4.89,3.978-8.868,8.867-8.868c0.15,0,0.299,0.012,0.447,0.022l0.148,0.01l1.314,0.085
		l0.597-1.175c2.225-4.372,6.644-7.089,11.532-7.089c6.062,0,11.382,4.298,12.649,10.219l0.318,1.483l1.514,0.094
		c3.708,0.23,6.612,3.319,6.612,7.03c0,3.878-3.144,7.035-7.017,7.057c-0.042-0.003-0.079-0.005-0.117-0.005l-2.047,0.005h-0.819v2
		h2.819v-0.006c0.042,0.001,0.082,0.006,0.124,0.006c5.001,0,9.057-4.054,9.057-9.057
		C451.977,105.9,448.223,101.979,443.488,101.684z M415.568,98.066c-0.241-0.016-0.48-0.036-0.725-0.036
		c-2.537,0-4.865,0.876-6.715,2.334c-2.012-1.294-3.486-3.354-3.976-5.776c0.582,0.117,1.178,0.177,1.78,0.177c4.963,0,9-4.037,9-9
		c0-0.603-0.06-1.198-0.177-1.78c3.733,0.753,6.629,3.824,7.134,7.641C419.178,93.068,416.963,95.324,415.568,98.066z"/>
</g>
<g>
	<polygon points="644.012,127.74 637.129,117.91 635.491,119.058 642.374,128.888 643.486,130.477 646.962,135.44 648.601,134.294 
		645.125,129.329 	"/>
	<polygon points="652.014,127.738 645.129,117.91 643.491,119.059 650.377,128.887 651.382,130.322 654.966,135.438 
		656.604,134.291 653.021,129.175 	"/>
	<polygon points="636.012,127.74 629.129,117.91 627.491,119.059 634.374,128.888 635.559,130.58 638.963,135.441 640.601,134.294 
		637.197,129.433 	"/>
	<rect x="623.491" y="80.191" width="2" height="7.973"/>
	<rect x="604.491" y="99.105" width="7.973" height="2"/>
	<rect x="609.164" y="87.839" transform="matrix(0.7071 0.7071 -0.7071 0.7071 242.4065 -407.5432)" width="7.974" height="2"/>
	<rect x="634.673" y="84.857" transform="matrix(0.7071 0.7071 -0.7071 0.7071 249.0056 -423.4672)" width="2" height="7.972"/>
	<path d="M654.003,105.981c-1.444-6.742-7.433-11.8-14.605-11.8c-2.185,0-4.258,0.47-6.126,1.313
		c-1.667-3.202-5.007-5.394-8.866-5.394c-5.522,0-10,4.477-10,9.999c0,2.46,0.899,4.702,2.373,6.442
		c-1.429,1.84-2.287,4.144-2.287,6.653c0,5.983,4.836,10.836,10.813,10.865v0.003h1.188v-2h-0.721l-0.457-0.003
		c-4.864-0.023-8.822-4.001-8.822-8.865c0-4.89,3.978-8.868,8.867-8.868c0.15,0,0.299,0.012,0.447,0.022l0.148,0.01l1.314,0.085
		l0.597-1.175c2.225-4.372,6.644-7.089,11.532-7.089c6.062,0,11.382,4.298,12.649,10.219l0.318,1.483l1.514,0.094
		c3.708,0.23,6.612,3.319,6.612,7.03c0,3.878-3.144,7.035-7.017,7.057c-0.042-0.003-0.079-0.005-0.117-0.005l-0.047,0.005h-0.819v2
		h0.819v-0.006c0.042,0.001,0.082,0.006,0.124,0.006c5.001,0,9.057-4.054,9.057-9.057
		C662.491,110.198,658.737,106.276,654.003,105.981z M626.083,102.364c-0.241-0.016-0.48-0.036-0.725-0.036
		c-2.766,0-5.282,1.042-7.2,2.743c-1.092-1.367-1.753-3.09-1.753-4.971c0-4.41,3.589-7.999,8-7.999c3.091,0,5.76,1.773,7.091,4.345
		C629.198,97.886,627.318,99.935,626.083,102.364z"/>
</g>
<g>
	<polygon points="-79.419,224.226 -86.302,214.396 -87.939,215.543 -81.057,225.373 -79.944,226.962 -76.469,231.926 
		-74.83,230.779 -78.306,225.814 	"/>
	<polygon points="-71.417,224.224 -78.302,214.396 -79.939,215.544 -73.054,225.372 -72.049,226.808 -68.465,231.923 
		-66.826,230.776 -70.41,225.66 	"/>
	<polygon points="-87.419,224.226 -94.302,214.396 -95.939,215.544 -89.057,225.373 -87.872,227.065 -84.468,231.927 
		-82.83,230.779 -86.233,225.918 	"/>
	<path d="M-69.428,202.467c-1.444-6.742-7.433-11.8-14.605-11.8c-1.799,0-3.522,0.32-5.118,0.904
		c-0.949-5.108-5.404-8.98-10.788-8.98c-0.413,0-0.819,0.027-1.222,0.071c0.744,1.112,1.179,2.448,1.179,3.886c0,3.865-3.134,7-7,7
		c-1.438,0-2.773-0.435-3.886-1.179c-0.044,0.401-0.071,0.809-0.071,1.222c0,3.712,1.845,6.987,4.661,8.979
		c-1.653,1.907-2.661,4.389-2.661,7.111c0,5.983,4.836,10.836,10.813,10.865v0.003h1.188v-2h-0.721l-0.457-0.003
		c-4.864-0.023-8.822-4.001-8.822-8.865c0-4.89,3.978-8.868,8.867-8.868c0.15,0,0.299,0.012,0.447,0.022l0.148,0.01l1.314,0.085
		l0.597-1.175c2.225-4.372,6.644-7.089,11.532-7.089c6.062,0,11.382,4.298,12.649,10.219l0.318,1.483l1.514,0.094
		c3.708,0.23,6.612,3.319,6.612,7.03c0,3.878-3.144,7.035-7.017,7.057c-0.042-0.003-0.079-0.005-0.117-0.005l-0.047,0.005h-0.819v2
		h0.819v-0.006c0.042,0.001,0.082,0.006,0.124,0.006c5.001,0,9.057-4.054,9.057-9.057
		C-60.939,206.684-64.693,202.762-69.428,202.467z M-97.348,198.85c-0.241-0.016-0.48-0.036-0.725-0.036
		c-2.537,0-4.865,0.876-6.715,2.334c-2.012-1.294-3.487-3.354-3.976-5.776c0.582,0.117,1.178,0.177,1.78,0.177c4.963,0,9-4.037,9-9
		c0-0.603-0.06-1.198-0.177-1.78c3.733,0.753,6.629,3.824,7.133,7.641C-93.737,193.852-95.952,196.107-97.348,198.85z"/>
</g>
<g>
	<rect x="-86.939" y="120.379" width="2" height="4"/>
	<rect x="-78.939" y="116.357" width="2" height="4.021"/>
	<rect x="-94.939" y="116.357" width="2" height="4.021"/>
	<path d="M-68.312,100.391c-1.596-7.445-8.207-13.029-16.127-13.029c-6.423,0-11.977,3.678-14.702,9.035
		c-0.266-0.018-0.53-0.04-0.8-0.04c-6.627,0-11.999,5.372-11.999,12c0,6.607,5.34,11.965,11.938,11.998v0.003h2.062v-2h-1.604
		l-0.447-0.003c-5.485-0.027-9.948-4.513-9.948-9.998c0-5.514,4.485-10,9.999-10c0.175,0,0.347,0.014,0.52,0.025l0.148,0.01
		l1.316,0.088l0.598-1.176c2.492-4.899,7.443-7.942,12.92-7.942c6.79,0,12.75,4.814,14.172,11.448l0.317,1.482l1.514,0.095
		c4.203,0.262,7.496,3.763,7.496,7.971c0,4.397-3.565,7.977-7.957,8c-0.05-0.003-0.093-0.005-0.137-0.007l-2.043,0.007h-2.863v2
		h4.863v-0.007c0.046,0.001,0.091,0.007,0.137,0.007c5.521,0,10-4.477,10-10C-58.939,105.047-63.084,100.716-68.312,100.391z"/>
	<circle cx="-77.939" cy="125.399" r="1.5"/>
	<circle cx="-85.939" cy="129.368" r="1.5"/>
	<circle cx="-93.939" cy="125.357" r="1.5"/>
</g>
<g>
	<rect x="5.981" y="80.925" width="2" height="7.973"/>
	<rect x="-13.019" y="99.839" width="7.973" height="2"/>
	<rect x="-8.346" y="88.572" transform="matrix(0.7071 0.7071 -0.7071 0.7071 62.0606 29.317)" width="7.974" height="2"/>
	<rect x="17.163" y="85.59" transform="matrix(0.7071 0.7071 -0.7071 0.7071 68.6598 13.393)" width="2" height="7.972"/>
	<path d="M36.493,106.715c-1.444-6.742-7.433-11.8-14.605-11.8c-2.185,0-4.258,0.47-6.126,1.313
		c-1.667-3.202-5.007-5.394-8.866-5.394c-5.522,0-10,4.477-10,9.999c0,2.46,0.899,4.702,2.373,6.442
		c-1.429,1.84-2.287,4.144-2.287,6.653c0,5.983,4.836,10.836,10.813,10.865v0.003h1.188v-2H8.261l-0.457-0.003
		c-4.864-0.023-8.822-4.001-8.822-8.865c0-4.89,3.978-8.868,8.867-8.868c0.15,0,0.299,0.012,0.447,0.022l0.148,0.01l1.314,0.085
		l0.597-1.175c2.225-4.372,6.644-7.089,11.532-7.089c6.062,0,11.382,4.298,12.649,10.219l0.318,1.483l1.514,0.094
		c3.708,0.23,6.612,3.319,6.612,7.03c0,3.878-3.144,7.035-7.017,7.057c-0.042-0.003-0.079-0.005-0.117-0.005l-2.047,0.005h-0.819v2
		h2.819v-0.006c0.042,0.001,0.082,0.006,0.124,0.006c5.001,0,9.057-4.054,9.057-9.057C44.981,110.932,41.228,107.01,36.493,106.715z
		 M8.573,103.098c-0.241-0.016-0.48-0.036-0.725-0.036c-2.766,0-5.282,1.042-7.2,2.743c-1.092-1.367-1.753-3.09-1.753-4.971
		c0-4.41,3.589-7.999,8-7.999c3.091,0,5.76,1.773,7.091,4.345C11.688,98.619,9.809,100.668,8.573,103.098z"/>
	<rect x="19.981" y="124.813" width="2" height="4"/>
	<rect x="27.981" y="120.792" width="2" height="4.021"/>
	<rect x="11.981" y="120.792" width="2" height="4.021"/>
	<circle cx="28.981" cy="129.834" r="1.5"/>
	<circle cx="20.981" cy="133.803" r="1.5"/>
	<circle cx="12.981" cy="129.792" r="1.5"/>
</g>
<g>
	<path d="M137.419,105.758c-1.444-6.742-7.433-11.8-14.605-11.8c-1.799,0-3.522,0.32-5.118,0.904
		c-0.949-5.108-5.404-8.98-10.788-8.98c-0.413,0-0.819,0.027-1.222,0.071c0.744,1.112,1.179,2.448,1.179,3.886c0,3.865-3.134,7-7,7
		c-1.438,0-2.773-0.435-3.886-1.179c-0.044,0.401-0.071,0.809-0.071,1.222c0,3.712,1.845,6.987,4.661,8.979
		c-1.653,1.907-2.661,4.389-2.661,7.111c0,5.983,4.836,10.836,10.813,10.865v0.003h1.188v-2h-0.721l-0.457-0.003
		c-4.864-0.023-8.822-4.001-8.822-8.865c0-4.89,3.978-8.868,8.867-8.868c0.15,0,0.299,0.012,0.447,0.022l0.148,0.01l1.314,0.085
		l0.597-1.175c2.225-4.372,6.644-7.089,11.532-7.089c6.062,0,11.382,4.298,12.649,10.219l0.318,1.483l1.514,0.094
		c3.708,0.23,6.612,3.319,6.612,7.03c0,3.878-3.144,7.035-7.017,7.057c-0.042-0.003-0.079-0.005-0.117-0.005l-2.047,0.005h-0.819v2
		h2.819v-0.006c0.042,0.001,0.082,0.006,0.124,0.006c5.001,0,9.057-4.054,9.057-9.057
		C145.907,109.975,142.153,106.053,137.419,105.758z M109.499,102.141c-0.241-0.016-0.48-0.036-0.725-0.036
		c-2.537,0-4.865,0.876-6.715,2.334c-2.012-1.294-3.487-3.354-3.976-5.776c0.582,0.117,1.178,0.177,1.78,0.177c4.963,0,9-4.037,9-9
		c0-0.603-0.06-1.198-0.177-1.78c3.733,0.753,6.629,3.824,7.133,7.641C113.109,97.143,110.895,99.398,109.499,102.141z"/>
	<rect x="120.907" y="123.856" width="2" height="4"/>
	<rect x="128.907" y="119.835" width="2" height="4.021"/>
	<rect x="112.907" y="119.835" width="2" height="4.021"/>
	<circle cx="129.907" cy="128.877" r="1.5"/>
	<circle cx="121.907" cy="132.846" r="1.5"/>
	<circle cx="113.907" cy="128.835" r="1.5"/>
</g>
<g>
	<path d="M34.109,198.788c-1.596-7.445-8.207-13.029-16.127-13.029c-6.423,0-11.977,3.678-14.702,9.035
		c-0.266-0.018-0.53-0.04-0.8-0.04c-6.627,0-11.999,5.372-11.999,12c0,6.607,5.34,11.965,11.938,11.998v0.003h6.062v-2H2.877
		l-0.447-0.003c-5.485-0.027-9.948-4.513-9.948-9.998c0-5.514,4.485-10,9.999-10c0.175,0,0.347,0.014,0.52,0.025l0.148,0.01
		l1.316,0.088l0.598-1.176c2.492-4.899,7.443-7.942,12.92-7.942c6.79,0,12.75,4.814,14.172,11.448l0.317,1.482l1.514,0.095
		c4.203,0.262,7.496,3.763,7.496,7.971c0,4.397-3.565,7.977-7.957,8c-0.05-0.003-0.093-0.005-0.137-0.007l-5.043,0.007h0.137v2
		h4.863v-0.007c0.046,0.001,0.091,0.007,0.137,0.007c5.521,0,10-4.477,10-10C43.481,203.444,39.337,199.113,34.109,198.788z"/>
	<polygon points="18.323,218.759 20.093,218.759 20.523,218.759 22.533,218.759 16.119,209.598 14.481,210.745 18.692,216.759 
		16.922,216.759 14.481,216.759 15.753,218.575 16.865,220.164 22.843,228.759 24.481,227.612 18.504,219.017 	"/>
</g>
<g>
	<rect x="109.907" y="179.658" width="2" height="7.973"/>
	<rect x="90.907" y="198.572" width="7.973" height="2"/>
	<rect x="95.58" y="187.306" transform="matrix(0.7071 0.7071 -0.7071 0.7071 162.3148 -15.2513)" width="7.974" height="2"/>
	<rect x="121.089" y="184.324" transform="matrix(0.7071 0.7071 -0.7071 0.7071 168.914 -31.1753)" width="2" height="7.972"/>
	<path d="M140.419,205.448c-1.444-6.742-7.433-11.8-14.605-11.8c-2.185,0-4.258,0.47-6.127,1.313
		c-1.666-3.202-5.006-5.394-8.865-5.394c-5.522,0-10,4.477-10,9.999c0,2.46,0.898,4.702,2.373,6.442
		c-1.428,1.84-2.287,4.144-2.287,6.653c0,5.983,4.836,10.836,10.813,10.865v0.003h4.188v-2h-3.721l-0.457-0.003
		c-4.864-0.023-8.822-4.001-8.822-8.865c0-4.89,3.978-8.868,8.867-8.868c0.15,0,0.299,0.012,0.447,0.022l0.148,0.01l1.314,0.085
		l0.597-1.175c2.225-4.372,6.644-7.089,11.532-7.089c6.062,0,11.382,4.298,12.649,10.219l0.318,1.483l1.514,0.094
		c3.708,0.23,6.612,3.319,6.612,7.03c0,3.878-3.144,7.035-7.017,7.057c-0.042-0.003-0.079-0.005-0.117-0.005l-2.047,0.005h-3.819v2
		h5.819v-0.006c0.042,0.001,0.082,0.006,0.124,0.006c5.001,0,9.057-4.054,9.057-9.057
		C148.907,209.665,145.153,205.743,140.419,205.448z M112.499,201.831c-0.241-0.016-0.48-0.036-0.725-0.036
		c-2.766,0-5.281,1.041-7.2,2.743c-1.092-1.366-1.753-3.09-1.753-4.971c0-4.41,3.589-7.999,8-7.999c3.092,0,5.76,1.773,7.092,4.345
		C115.614,197.354,113.735,199.401,112.499,201.831z"/>
	<polygon points="124.749,223.538 126.519,223.538 126.949,223.538 128.959,223.538 122.545,214.377 120.907,215.524 
		125.118,221.538 123.348,221.538 120.907,221.538 122.179,223.354 123.291,224.943 129.269,233.538 130.907,232.392 
		124.93,223.796 	"/>
</g>
<g>
	<path d="M240.004,203.152c-1.444-6.742-7.433-11.8-14.605-11.8c-1.799,0-3.521,0.32-5.118,0.904
		c-0.949-5.108-5.404-8.98-10.788-8.98c-0.413,0-0.819,0.027-1.222,0.071c0.744,1.112,1.179,2.448,1.179,3.886c0,3.865-3.134,7-7,7
		c-1.438,0-2.773-0.435-3.886-1.179c-0.044,0.401-0.071,0.809-0.071,1.222c0,3.712,1.845,6.987,4.661,8.979
		c-1.653,1.907-2.661,4.389-2.661,7.111c0,5.983,4.836,10.836,10.813,10.865v0.003h4.188v-2h-3.721l-0.457-0.003
		c-4.864-0.023-8.822-4.001-8.822-8.865c0-4.89,3.978-8.868,8.867-8.868c0.15,0,0.299,0.012,0.447,0.022l0.148,0.01l1.314,0.085
		l0.597-1.175c2.225-4.372,6.644-7.089,11.532-7.089c6.062,0,11.382,4.298,12.649,10.219l0.318,1.483l1.514,0.094
		c3.708,0.23,6.612,3.319,6.612,7.03c0,3.878-3.144,7.035-7.017,7.057c-0.042-0.003-0.079-0.005-0.117-0.005l-2.047,0.005h-3.819v2
		h5.819v-0.006c0.042,0.001,0.082,0.006,0.124,0.006c5.001,0,9.057-4.054,9.057-9.057
		C248.492,207.369,244.738,203.447,240.004,203.152z M212.084,199.535c-0.241-0.016-0.48-0.036-0.725-0.036
		c-2.537,0-4.865,0.876-6.715,2.334c-2.012-1.294-3.486-3.354-3.976-5.776c0.582,0.117,1.178,0.177,1.78,0.177c4.963,0,9-4.037,9-9
		c0-0.603-0.06-1.198-0.177-1.78c3.733,0.753,6.629,3.824,7.134,7.64C215.693,194.537,213.479,196.792,212.084,199.535z"/>
	<polygon points="224.334,221.242 226.104,221.242 226.534,221.242 228.544,221.242 222.13,212.081 220.492,213.229 
		224.703,219.242 222.933,219.242 220.492,219.242 221.764,221.059 222.876,222.647 228.854,231.242 230.492,230.096 224.515,221.5 
			"/>
</g>
<g>
	<path d="M340.889,199.288c-1.596-7.445-8.207-13.029-16.127-13.029c-6.423,0-11.977,3.678-14.702,9.035
		c-0.266-0.018-0.53-0.04-0.8-0.04c-6.627,0-11.999,5.372-11.999,12c0,6.607,5.34,11.965,11.938,11.998v0.003h1.062v-2h-0.604
		l-0.447-0.003c-5.485-0.027-9.948-4.513-9.948-9.998c0-5.514,4.485-10,9.999-10c0.175,0,0.347,0.014,0.52,0.025l0.148,0.01
		l1.316,0.088l0.598-1.176c2.492-4.899,7.443-7.942,12.92-7.942c6.79,0,12.75,4.814,14.172,11.448l0.317,1.482l1.514,0.095
		c4.203,0.262,7.496,3.763,7.496,7.971c0,4.397-3.565,7.977-7.957,8c-0.05-0.003-0.093-0.005-0.137-0.007l-0.906,0.007v2h0.863
		v-0.007c0.046,0.001,0.091,0.007,0.137,0.007c5.521,0,10-4.477,10-10C350.261,203.944,346.116,199.613,340.889,199.288z"/>
	
		<rect x="309.695" y="217.253" transform="matrix(-0.5736 -0.8191 0.8191 -0.5736 317.3746 601.7044)" width="11.183" height="1.999"/>
	
		<rect x="327.67" y="217.253" transform="matrix(-0.5736 -0.8191 0.8191 -0.5736 345.6601 616.4276)" width="11.183" height="1.999"/>
	<polygon points="326.103,222.259 327.872,222.259 328.303,222.259 330.313,222.259 323.898,213.098 322.261,214.245 
		326.472,220.259 324.701,220.259 322.261,220.259 323.532,222.075 324.645,223.664 329.261,230.259 330.899,229.112 
		326.283,222.517 	"/>
</g>
<g>
	<rect x="415.736" y="179.821" width="2" height="7.973"/>
	<rect x="396.736" y="198.735" width="7.973" height="2"/>
	<rect x="401.409" y="187.469" transform="matrix(0.7071 0.7071 -0.7071 0.7071 252.0054 -231.4574)" width="7.974" height="2"/>
	<rect x="426.918" y="184.487" transform="matrix(0.7071 0.7071 -0.7071 0.7071 258.6046 -247.3813)" width="2" height="7.972"/>
	<path d="M446.248,205.611c-1.444-6.742-7.433-11.8-14.605-11.8c-2.185,0-4.258,0.47-6.126,1.313
		c-1.667-3.202-5.007-5.394-8.866-5.394c-5.522,0-10,4.477-10,9.999c0,2.46,0.899,4.702,2.373,6.442
		c-1.429,1.84-2.287,4.144-2.287,6.653c0,5.983,4.836,10.836,10.813,10.865v0.003h0.188v-2l-0.178-0.003
		c-4.864-0.023-8.822-4.001-8.822-8.865c0-4.89,3.978-8.868,8.867-8.868c0.15,0,0.299,0.012,0.447,0.022l0.148,0.01l1.314,0.085
		l0.597-1.175c2.225-4.372,6.644-7.089,11.532-7.089c6.062,0,11.382,4.298,12.649,10.219l0.318,1.483l1.514,0.094
		c3.708,0.23,6.612,3.319,6.612,7.03c0,3.878-3.144,7.035-7.017,7.057c-0.042-0.003-0.079-0.005-0.117-0.005l-0.866,0.005v2h0.819
		v-0.006c0.042,0.001,0.082,0.006,0.124,0.006c5.001,0,9.057-4.054,9.057-9.057C454.736,209.828,450.982,205.906,446.248,205.611z
		 M418.328,201.994c-0.241-0.016-0.48-0.036-0.725-0.036c-2.766,0-5.282,1.042-7.2,2.743c-1.092-1.367-1.753-3.09-1.753-4.971
		c0-4.41,3.589-7.999,8-7.999c3.091,0,5.76,1.773,7.091,4.345C421.443,197.516,419.563,199.564,418.328,201.994z"/>
	
		<rect x="416.158" y="221.691" transform="matrix(-0.5736 -0.8191 0.8191 -0.5736 481.2731 695.8937)" width="11.183" height="1.999"/>
	
		<rect x="434.133" y="221.691" transform="matrix(-0.5736 -0.8191 0.8191 -0.5736 509.5586 710.6168)" width="11.183" height="1.999"/>
	<polygon points="432.565,226.697 434.335,226.697 434.766,226.697 436.775,226.697 430.361,217.536 428.724,218.684 
		432.935,224.697 431.164,224.697 428.724,224.697 429.995,226.514 431.107,228.103 435.724,234.697 437.362,233.551 
		432.746,226.955 	"/>
</g>
<g>
	<path d="M548.086,202.653c-1.444-6.742-7.433-11.8-14.605-11.8c-1.799,0-3.522,0.32-5.118,0.904
		c-0.949-5.108-5.404-8.98-10.788-8.98c-0.413,0-0.819,0.027-1.222,0.071c0.744,1.112,1.179,2.448,1.179,3.886c0,3.865-3.134,7-7,7
		c-1.438,0-2.773-0.435-3.886-1.179c-0.044,0.401-0.071,0.809-0.071,1.222c0,3.712,1.845,6.987,4.661,8.979
		c-1.653,1.907-2.661,4.389-2.661,7.111c0,5.983,4.836,10.836,10.813,10.865v0.003h0.188v-2l-0.178-0.003
		c-4.864-0.023-8.822-4.001-8.822-8.865c0-4.89,3.978-8.868,8.867-8.868c0.15,0,0.299,0.012,0.447,0.022l0.148,0.01l1.314,0.085
		l0.597-1.175c2.225-4.372,6.644-7.089,11.532-7.089c6.062,0,11.382,4.298,12.649,10.219l0.318,1.483l1.514,0.094
		c3.708,0.23,6.612,3.319,6.612,7.03c0,3.878-3.144,7.035-7.017,7.057c-0.042-0.003-0.079-0.005-0.117-0.005l-0.866,0.005v2h0.819
		v-0.006c0.042,0.001,0.082,0.006,0.124,0.006c5.001,0,9.057-4.054,9.057-9.057C556.574,206.87,552.82,202.948,548.086,202.653z
		 M520.166,199.036c-0.241-0.016-0.48-0.036-0.725-0.036c-2.537,0-4.865,0.876-6.715,2.334c-2.012-1.294-3.487-3.354-3.976-5.776
		c0.582,0.117,1.178,0.177,1.78,0.177c4.963,0,9-4.037,9-9c0-0.603-0.06-1.198-0.177-1.78c3.733,0.753,6.629,3.824,7.133,7.641
		C523.776,194.038,521.562,196.294,520.166,199.036z"/>
	
		<rect x="517.995" y="218.733" transform="matrix(-0.5736 -0.8191 0.8191 -0.5736 643.9504 774.6544)" width="11.183" height="1.999"/>
	
		<rect x="535.969" y="218.733" transform="matrix(-0.5736 -0.8191 0.8191 -0.5736 672.236 789.3775)" width="11.183" height="1.999"/>
	<polygon points="534.402,223.739 536.172,223.739 536.603,223.739 538.612,223.739 532.198,214.578 530.561,215.726 
		534.771,221.739 533.001,221.739 530.561,221.739 531.832,223.556 532.944,225.145 537.561,231.739 539.199,230.593 
		534.583,223.997 	"/>
</g>
<g>
	<g>
		<path d="M137.523,289.108c-1.596-7.445-8.207-13.029-16.127-13.029c-6.423,0-11.977,3.678-14.702,9.035
			c-0.266-0.018-0.53-0.04-0.8-0.04c-6.627,0-11.999,5.372-11.999,12c0,6.607,5.34,11.965,11.938,11.998v0.003h2.062v-2h-1.604
			l-0.447-0.003c-5.485-0.027-9.948-4.513-9.948-9.998c0-5.514,4.485-10,9.999-10c0.175,0,0.347,0.014,0.52,0.025l0.148,0.01
			l1.316,0.088l0.598-1.176c2.492-4.899,7.443-7.942,12.92-7.942c6.79,0,12.75,4.814,14.172,11.448l0.317,1.482l1.514,0.095
			c4.203,0.262,7.496,3.763,7.496,7.971c0,4.397-3.565,7.977-7.957,8c-0.05-0.003-0.093-0.005-0.137-0.007l-2.043,0.007h-2.863v2
			h4.863v-0.007c0.046,0.001,0.091,0.007,0.137,0.007c5.521,0,10-4.477,10-10C146.896,293.765,142.751,289.434,137.523,289.108z"/>
	</g>
	<g>
		<circle cx="112.396" cy="302.651" r="1.5"/>
	</g>
	<g>
		<circle cx="116.396" cy="308.575" r="1.5"/>
	</g>
	<g>
		<circle cx="124.396" cy="308.575" r="1.5"/>
	</g>
	<g>
		<circle cx="120.396" cy="302.651" r="1.5"/>
	</g>
	<g>
		<circle cx="128.396" cy="302.651" r="1.5"/>
	</g>
	<g>
		<circle cx="112.396" cy="314.597" r="1.5"/>
	</g>
	<g>
		<circle cx="120.396" cy="314.597" r="1.5"/>
	</g>
	<g>
		<circle cx="128.396" cy="314.597" r="1.5"/>
	</g>
</g>
<g>
	<g>
		<rect x="213.31" y="273.631" width="2" height="7.973"/>
	</g>
	<g>
		<rect x="194.31" y="292.545" width="7.973" height="2"/>
	</g>
	<g>
		<rect x="198.983" y="281.278" transform="matrix(0.7071 0.7071 -0.7071 0.7071 259.0494 -60.8439)" width="7.974" height="2"/>
	</g>
	<g>
		<rect x="224.491" y="278.296" transform="matrix(0.7071 0.7071 -0.7071 0.7071 265.6485 -76.7678)" width="2" height="7.972"/>
	</g>
	<g>
		<path d="M243.821,299.421c-1.444-6.742-7.433-11.8-14.605-11.8c-2.185,0-4.258,0.47-6.127,1.313
			c-1.666-3.202-5.006-5.394-8.865-5.394c-5.522,0-10,4.477-10,9.999c0,2.46,0.898,4.702,2.373,6.442
			c-1.428,1.84-2.287,4.144-2.287,6.653c0,5.983,4.836,10.836,10.813,10.865v0.003h1.188v-2h-0.721l-0.457-0.003
			c-4.864-0.023-8.822-4.001-8.822-8.865c0-4.89,3.978-8.868,8.867-8.868c0.15,0,0.299,0.012,0.447,0.022l0.148,0.01l1.314,0.085
			l0.597-1.175c2.225-4.372,6.644-7.089,11.532-7.089c6.062,0,11.382,4.298,12.649,10.219l0.318,1.483l1.514,0.094
			c3.708,0.23,6.612,3.319,6.612,7.03c0,3.878-3.144,7.035-7.017,7.057c-0.042-0.003-0.079-0.005-0.117-0.005l-2.047,0.005h-1.819v2
			h3.819v-0.006c0.042,0.001,0.082,0.006,0.124,0.006c5.001,0,9.057-4.054,9.057-9.057
			C252.31,303.638,248.556,299.716,243.821,299.421z M215.901,295.804c-0.241-0.016-0.48-0.036-0.725-0.036
			c-2.766,0-5.281,1.042-7.2,2.743c-1.092-1.367-1.753-3.09-1.753-4.971c0-4.41,3.589-7.999,8-7.999c3.092,0,5.76,1.773,7.092,4.345
			C219.017,291.325,217.138,293.374,215.901,295.804z"/>
	</g>
	<g>
		<circle cx="219.799" cy="311.015" r="1.5"/>
	</g>
	<g>
		<circle cx="223.799" cy="317.015" r="1.5"/>
	</g>
	<g>
		<circle cx="231.799" cy="317.015" r="1.5"/>
	</g>
	<g>
		<circle cx="227.799" cy="311.015" r="1.5"/>
	</g>
	<g>
		<circle cx="235.799" cy="311.015" r="1.5"/>
	</g>
	<g>
		<circle cx="219.799" cy="323.036" r="1.5"/>
	</g>
	<g>
		<circle cx="227.799" cy="323.036" r="1.5"/>
	</g>
	<g>
		<circle cx="235.799" cy="323.036" r="1.5"/>
	</g>
</g>
<g>
	<g>
		<path d="M339.772,295.465c-1.444-6.742-7.433-11.8-14.605-11.8c-1.799,0-3.521,0.32-5.118,0.904
			c-0.949-5.108-5.404-8.98-10.788-8.98c-0.413,0-0.819,0.027-1.222,0.071c0.744,1.112,1.179,2.448,1.179,3.886c0,3.865-3.134,7-7,7
			c-1.438,0-2.773-0.435-3.886-1.179c-0.044,0.401-0.071,0.809-0.071,1.222c0,3.712,1.845,6.987,4.661,8.979
			c-1.653,1.907-2.661,4.389-2.661,7.111c0,5.983,4.836,10.836,10.813,10.865v0.003h1.188v-2h-0.721l-0.457-0.003
			c-4.864-0.023-8.822-4.001-8.822-8.865c0-4.89,3.978-8.868,8.867-8.868c0.15,0,0.299,0.012,0.447,0.022l0.148,0.01l1.314,0.085
			l0.597-1.175c2.225-4.372,6.644-7.089,11.532-7.089c6.062,0,11.382,4.298,12.649,10.219l0.318,1.483l1.514,0.094
			c3.708,0.23,6.612,3.319,6.612,7.03c0,3.878-3.144,7.035-7.017,7.057c-0.042-0.003-0.079-0.005-0.117-0.005l-2.047,0.005h-1.819v2
			h3.819v-0.006c0.042,0.001,0.082,0.006,0.124,0.006c5.001,0,9.057-4.054,9.057-9.057
			C348.261,299.682,344.507,295.76,339.772,295.465z M311.853,291.848c-0.241-0.016-0.48-0.036-0.725-0.036
			c-2.537,0-4.865,0.876-6.715,2.334c-2.012-1.294-3.486-3.354-3.976-5.776c0.582,0.117,1.178,0.177,1.78,0.177c4.963,0,9-4.037,9-9
			c0-0.603-0.06-1.198-0.177-1.78c3.733,0.753,6.629,3.824,7.134,7.64C315.462,286.85,313.247,289.104,311.853,291.848z"/>
	</g>
	<g>
		<circle cx="315.761" cy="307.058" r="1.5"/>
	</g>
	<g>
		<circle cx="319.761" cy="313.058" r="1.5"/>
	</g>
	<g>
		<circle cx="327.761" cy="313.058" r="1.5"/>
	</g>
	<g>
		<circle cx="323.761" cy="307.058" r="1.5"/>
	</g>
	<g>
		<circle cx="331.761" cy="307.058" r="1.5"/>
	</g>
	<g>
		<circle cx="315.761" cy="319.079" r="1.5"/>
	</g>
	<g>
		<circle cx="323.761" cy="319.079" r="1.5"/>
	</g>
	<g>
		<circle cx="331.761" cy="319.079" r="1.5"/>
	</g>
</g>
<g>
	<path d="M650.938,196.579c-1.596-7.445-8.207-13.029-16.127-13.029c-6.423,0-11.977,3.678-14.702,9.035
		c-0.266-0.018-0.53-0.04-0.8-0.04c-6.627,0-11.999,5.372-11.999,12c0,6.607,5.34,11.965,11.938,11.998v0.003h2.062v-2h-1.604
		l-0.447-0.003c-5.485-0.027-9.948-4.513-9.948-9.998c0-5.514,4.485-10,9.999-10c0.175,0,0.347,0.014,0.52,0.025l0.148,0.01
		l1.316,0.088l0.598-1.176c2.492-4.899,7.443-7.942,12.92-7.942c6.79,0,12.75,4.814,14.172,11.448l0.317,1.482l1.514,0.095
		c4.203,0.262,7.496,3.763,7.496,7.971c0,4.397-3.565,7.977-7.957,8c-0.05-0.003-0.093-0.005-0.137-0.007l-2.043,0.007h-2.863v2
		h4.863v-0.007c0.046,0.001,0.091,0.007,0.137,0.007c5.521,0,10-4.477,10-10C660.31,201.235,656.165,196.904,650.938,196.579z"/>
	<circle cx="625.31" cy="224.05" r="1.5"/>
	<circle cx="633.31" cy="230.05" r="1.5"/>
	<circle cx="641.31" cy="226.05" r="1.5"/>
	<rect x="624.31" y="207.574" width="2" height="11.976"/>
	<polygon points="634.31,225.515 634.31,223.574 634.31,211.574 632.31,211.574 632.31,223.574 632.31,225.515 632.31,225.55 
		634.31,225.55 	"/>
	<polygon points="642.31,221.327 642.31,219.574 642.31,207.574 640.31,207.574 640.31,219.574 640.31,221.327 640.31,221.55 
		642.31,221.55 	"/>
</g>
<g>
	<rect x="-97.439" y="268.192" width="2" height="7.973"/>
	<rect x="-116.439" y="287.106" width="7.973" height="2"/>
	<rect x="-111.766" y="275.84" transform="matrix(0.7071 0.7071 -0.7071 0.7071 164.1875 157.296)" width="7.974" height="2"/>
	<rect x="-86.258" y="272.858" transform="matrix(0.7071 0.7071 -0.7071 0.7071 170.7867 141.372)" width="2" height="7.972"/>
	<path d="M-66.928,293.982c-1.444-6.742-7.433-11.8-14.605-11.8c-2.185,0-4.258,0.47-6.126,1.313
		c-1.667-3.202-5.007-5.394-8.866-5.394c-5.522,0-10,4.477-10,9.999c0,2.46,0.899,4.702,2.373,6.442
		c-1.429,1.84-2.287,4.144-2.287,6.653c0,5.983,4.836,10.836,10.813,10.865v0.003h1.188v-2h-0.721l-0.457-0.003
		c-4.864-0.023-8.822-4.001-8.822-8.865c0-4.89,3.978-8.868,8.867-8.868c0.15,0,0.299,0.012,0.447,0.022l0.148,0.01l1.314,0.085
		l0.597-1.175c2.225-4.372,6.644-7.089,11.532-7.089c6.062,0,11.382,4.298,12.649,10.219l0.318,1.483l1.514,0.094
		c3.708,0.23,6.612,3.319,6.612,7.03c0,3.878-3.144,7.035-7.017,7.057c-0.042-0.003-0.079-0.005-0.117-0.005l-2.047,0.005h-0.819v2
		h2.819v-0.006c0.042,0.001,0.082,0.006,0.124,0.006c5.001,0,9.057-4.054,9.057-9.057
		C-58.439,298.199-62.193,294.277-66.928,293.982z M-94.848,290.365c-0.241-0.016-0.48-0.036-0.725-0.036
		c-2.766,0-5.282,1.041-7.2,2.743c-1.092-1.366-1.753-3.09-1.753-4.971c0-4.41,3.589-7.999,8-7.999c3.091,0,5.76,1.773,7.091,4.345
		C-91.732,285.888-93.612,287.936-94.848,290.365z"/>
	<circle cx="-90.449" cy="320.553" r="1.5"/>
	<circle cx="-82.449" cy="326.553" r="1.5"/>
	<circle cx="-74.449" cy="322.553" r="1.5"/>
	<rect x="-91.449" y="304.077" width="2" height="11.976"/>
	<polygon points="-81.449,322.018 -81.449,320.077 -81.449,308.077 -83.449,308.077 -83.449,320.077 -83.449,322.018 
		-83.449,322.053 -81.449,322.053 	"/>
	<polygon points="-73.449,317.83 -73.449,316.077 -73.449,304.077 -75.449,304.077 -75.449,316.077 -75.449,317.83 -75.449,318.053 
		-73.449,318.053 	"/>
</g>
<g>
	<path d="M33.675,290.984c-1.444-6.742-7.433-11.8-14.605-11.8c-1.799,0-3.522,0.32-5.118,0.904
		c-0.949-5.108-5.404-8.98-10.788-8.98c-0.413,0-0.819,0.027-1.222,0.071c0.744,1.112,1.179,2.448,1.179,3.886c0,3.865-3.134,7-7,7
		c-1.438,0-2.773-0.435-3.886-1.179c-0.044,0.401-0.071,0.809-0.071,1.222c0,3.712,1.845,6.987,4.661,8.979
		c-1.653,1.907-2.661,4.389-2.661,7.111c0,5.983,4.836,10.836,10.813,10.865v0.003h1.188v-2H5.442l-0.457-0.003
		c-4.864-0.023-8.822-4.001-8.822-8.865c0-4.89,3.978-8.868,8.867-8.868c0.15,0,0.299,0.012,0.447,0.022l0.148,0.01l1.314,0.085
		l0.597-1.175c2.225-4.372,6.644-7.089,11.532-7.089c6.062,0,11.382,4.298,12.649,10.219l0.318,1.483l1.514,0.094
		c3.708,0.23,6.612,3.319,6.612,7.03c0,3.878-3.144,7.035-7.017,7.057c-0.042-0.003-0.079-0.005-0.117-0.005l-2.047,0.005h-0.819v2
		h2.819v-0.006c0.042,0.001,0.082,0.006,0.124,0.006c5.001,0,9.057-4.054,9.057-9.057C42.163,295.201,38.409,291.279,33.675,290.984
		z M5.755,287.367c-0.241-0.016-0.48-0.036-0.725-0.036c-2.537,0-4.865,0.876-6.715,2.334c-2.012-1.294-3.487-3.354-3.976-5.776
		c0.582,0.117,1.178,0.177,1.78,0.177c4.963,0,9-4.037,9-9c0-0.603-0.06-1.198-0.177-1.78c3.733,0.753,6.629,3.824,7.133,7.64
		C9.365,282.369,7.15,284.624,5.755,287.367z"/>
	<circle cx="10.163" cy="317.559" r="1.5"/>
	<circle cx="18.163" cy="323.559" r="1.5"/>
	<circle cx="26.163" cy="319.559" r="1.5"/>
	<rect x="9.163" y="301.083" width="2" height="11.976"/>
	<polygon points="19.163,319.023 19.163,317.083 19.163,305.083 17.163,305.083 17.163,317.083 17.163,319.023 17.163,319.059 
		19.163,319.059 	"/>
	<polygon points="27.163,314.836 27.163,313.083 27.163,301.083 25.163,301.083 25.163,313.083 25.163,314.836 25.163,315.059 
		27.163,315.059 	"/>
</g>
<g>
	<rect x="-114.439" y="395.425" width="56" height="2"/>
	<rect x="-110.439" y="401.425" width="50" height="2"/>
	<rect x="-104.439" y="407.425" width="36" height="2"/>
	<rect x="-112.439" y="389.425" width="52" height="2"/>
	<path d="M-100.565,381.42c0.175,0,0.347,0.014,0.519,0.025l0.149,0.01l1.316,0.088l0.598-1.176
		c2.493-4.899,7.443-7.942,12.92-7.942c6.79,0,12.75,4.814,14.171,11.448l0.318,1.482l1.514,0.095
		c1.207,0.075,2.335,0.425,3.336,0.975h3.286c-1.678-1.703-3.957-2.813-6.498-2.971c-1.596-7.445-8.207-13.029-16.127-13.029
		c-6.423,0-11.977,3.678-14.702,9.035c-0.266-0.018-0.53-0.04-0.8-0.04c-4.843,0-9.004,2.874-10.9,7.005h2.251
		C-107.483,383.438-104.259,381.42-100.565,381.42z"/>
</g>
<g>
	<rect x="6.663" y="367.91" width="2" height="7.973"/>
	<rect x="-12.337" y="386.824" width="7.973" height="2"/>
	<rect x="-7.664" y="375.558" transform="matrix(0.7071 0.7071 -0.7071 0.7071 265.1895 112.891)" width="7.974" height="2"/>
	<rect x="17.845" y="372.576" transform="matrix(0.7071 0.7071 -0.7071 0.7071 271.7887 96.9671)" width="2" height="7.972"/>
	<rect x="-3.337" y="401.784" width="50" height="2"/>
	<rect x="0.663" y="407.784" width="44" height="2"/>
	<rect x="6.663" y="412.784" width="30" height="2"/>
	<rect x="-1.337" y="395.784" width="46" height="2"/>
	<path d="M-0.429,393.784h0.771H2.27h1.012c1.472-1.087,3.283-1.737,5.249-1.737c0.15,0,0.299,0.012,0.447,0.022l0.148,0.01
		l1.314,0.085l0.597-1.175c2.225-4.372,6.644-7.089,11.532-7.089c5.945,0,11.168,4.139,12.563,9.884h2.043V393.7
		c-1.444-6.742-7.433-11.8-14.605-11.8c-2.185,0-4.258,0.47-6.126,1.313c-1.667-3.202-5.007-5.394-8.866-5.394
		c-5.522,0-10,4.477-10,9.999C-2.423,390.061-1.675,392.119-0.429,393.784z M7.577,379.82c3.091,0,5.76,1.773,7.091,4.345
		c-2.298,1.44-4.178,3.488-5.413,5.918c-0.241-0.016-0.48-0.036-0.725-0.036c-2.764,0-5.274,1.045-7.189,2.745
		c-1.097-1.366-1.764-3.089-1.764-4.973C-0.423,383.409,3.166,379.82,7.577,379.82z"/>
</g>
<g>
	<rect x="95.407" y="398.347" width="50" height="2"/>
	<rect x="99.407" y="404.347" width="44" height="2"/>
	<rect x="105.407" y="409.347" width="30" height="2"/>
	<rect x="97.407" y="392.347" width="46" height="2"/>
	<path d="M99.05,390.347h0.037h1.884h1.055c1.472-1.087,3.283-1.737,5.249-1.737c0.15,0,0.299,0.012,0.447,0.022l0.148,0.01
		l1.314,0.085l0.597-1.175c2.225-4.372,6.644-7.089,11.532-7.089c5.945,0,11.168,4.139,12.563,9.884h2.043v-0.084
		c-1.444-6.742-7.433-11.8-14.605-11.8c-1.799,0-3.521,0.32-5.117,0.903c-0.945-5.111-5.402-8.987-10.789-8.987
		c-0.413,0-0.819,0.027-1.222,0.071c0.744,1.112,1.179,2.448,1.179,3.886c0,3.865-3.134,7-7,7c-1.438,0-2.773-0.435-3.886-1.179
		c-0.044,0.401-0.071,0.809-0.071,1.222C94.407,385.083,96.243,388.354,99.05,390.347z M98.364,383.336c4.963,0,9-4.037,9-9
		c0-0.603-0.06-1.198-0.177-1.78c3.735,0.753,6.633,3.828,7.134,7.647c-2.712,1.443-4.927,3.699-6.322,6.442
		c-0.241-0.016-0.48-0.036-0.725-0.036c-2.534,0-4.855,0.879-6.701,2.335c-2.02-1.293-3.5-3.356-3.989-5.785
		C97.166,383.276,97.762,383.336,98.364,383.336z"/>
</g>
<g>
	<path d="M227.299,401.36h-19.474l-0.578-0.003c-5.485-0.027-9.948-4.513-9.948-9.998c0-5.514,4.485-10,9.999-10
		c0.175,0,0.347,0.014,0.519,0.025l0.149,0.01l1.316,0.088l0.598-1.176c2.493-4.899,7.443-7.942,12.92-7.942
		c6.79,0,12.75,4.814,14.171,11.448l0.318,1.482l1.514,0.095c1.822,0.113,3.463,0.845,4.746,1.971h2.732
		c-1.707-2.262-4.348-3.78-7.354-3.967c-1.596-7.445-8.207-13.029-16.127-13.029c-6.423,0-11.977,3.678-14.702,9.035
		c-0.266-0.018-0.53-0.04-0.8-0.04c-6.627,0-11.999,5.372-11.999,12c0,6.607,5.34,11.965,11.938,11.998v0.003h20.062
		c2.205,0,4,1.794,4,4s-1.795,4-4,4v2c3.314,0,6-2.686,6-6C233.299,404.047,230.613,401.36,227.299,401.36z"/>
	<path d="M231.299,397.36h-15.988v2h15.988c3.314,0,6-2.687,6-6c0-3.314-2.686-6-6-6v2c2.205,0,4,1.794,4,4
		S233.504,397.36,231.299,397.36z"/>
	<path d="M244.299,391.36c1.654,0,3,1.346,3,3s-1.346,3-3,3c-0.043,0-0.083-0.011-0.126-0.013h-4.862
		c0.003,0.005,0.009,0.008,0.012,0.013h-0.023v2h5.5v-0.051c2.523-0.254,4.5-2.358,4.5-4.949c0-2.762-2.238-5-5-5V391.36z"/>
	<path d="M248.299,401.36h-13v2h9.022c-0.004,0.005-0.008,0.008-0.011,0.013h3.862c0.043-0.002,0.083-0.013,0.126-0.013
		c1.654,0,3,1.346,3,3s-1.346,3-3,3v2c2.762,0,5-2.238,5-5S251.061,401.36,248.299,401.36z"/>
	<rect x="209.299" y="397.36" width="4" height="2"/>
</g>
<path d="M19.737,2.257c6.95,1.305,12.226,7.419,12.226,14.742c0,8.272-6.729,15.002-15,15.002c-6.79,0-12.531-4.49-14.366-10.728
	c1.398,0.461,2.867,0.698,4.366,0.698c7.72,0,14-6.281,14-14.001C20.963,5.986,20.539,4.042,19.737,2.257 M16.963,0
	c-0.338,0-0.668,0.031-1,0.051c1.861,2.113,3,4.881,3,7.92c0,6.627-5.372,12.001-12,12.001c-2.599,0-4.998-0.835-6.963-2.239
	c0.387,9.047,7.821,16.269,16.963,16.269c9.39,0,17-7.612,17-17.002S26.353,0,16.963,0L16.963,0z"/>
<g>
	<path d="M-86.433,4.995c-7.18,0-13,5.819-13,12.999c0,7.181,5.82,13.002,13,13.002s13-5.821,13-13.002
		C-73.433,10.814-79.253,4.995-86.433,4.995z M-86.433,28.996c-6.065,0-11-4.936-11-11.002c0-6.064,4.935-10.999,11-10.999
		s11,4.935,11,10.999C-75.433,24.061-80.367,28.996-86.433,28.996z"/>
	<rect x="-87.439" y="-7.999" width="2" height="10"/>
	<rect x="-87.439" y="34.001" width="2" height="10"/>
	<rect x="-112.433" y="17.001" width="9.993" height="2"/>
	<rect x="-70.439" y="17.001" width="10.007" height="2"/>
	<rect x="-72.74" y="-1.913" transform="matrix(0.7071 0.7071 -0.7071 0.7071 -18.6846 51.6917)" width="2" height="10.409"/>
	<rect x="-102.148" y="27.496" transform="matrix(-0.7071 -0.7071 0.7071 -0.7071 -195.7941 -15.6992)" width="2" height="10.41"/>
	<rect x="-106.349" y="2.296" transform="matrix(0.7071 0.7071 -0.7071 0.7071 -27.2935 72.4851)" width="10.409" height="2"/>
	<rect x="-76.94" y="31.706" transform="matrix(-0.7072 -0.7071 0.7071 -0.7072 -145.5881 5.1122)" width="10.41" height="2"/>
</g>
<g>
	<rect x="311.733" y="362.862" width="2" height="7.973"/>
	<rect x="292.761" y="381.849" width="7.973" height="2"/>
	<rect x="297.486" y="370.63" transform="matrix(0.7071 0.7071 -0.7071 0.7071 351.0816 -104.3262)" width="7.974" height="2"/>
	<rect x="322.995" y="367.648" transform="matrix(0.7071 0.7071 -0.7071 0.7071 357.6807 -120.2501)" width="2" height="7.972"/>
	<path d="M326.761,404.862l0.005-0.007h-12.536l-0.594-0.003c-4.864-0.024-8.822-4.001-8.822-8.865c0-4.89,3.978-8.868,8.867-8.868
		c0.15,0,0.299,0.012,0.447,0.021l0.148,0.011l1.314,0.085l0.597-1.174c2.225-4.373,6.644-7.09,11.532-7.09
		c5.916,0,11.114,4.099,12.54,9.8h2.065c-1.444-6.742-7.433-11.8-14.605-11.8c-2.185,0-4.258,0.47-6.126,1.313
		c-1.667-3.202-5.007-5.394-8.866-5.394c-5.522,0-10,4.477-10,9.999c0,2.46,0.899,4.702,2.373,6.442
		c-1.429,1.84-2.287,4.144-2.287,6.653c0,5.983,4.836,10.836,10.813,10.865v0.003h13.135v0.007c2.205,0,4,1.794,4,4s-1.795,4-4,4v2
		c3.314,0,6-2.686,6-6C332.761,407.549,330.075,404.862,326.761,404.862z M312.728,374.893c3.091,0,5.76,1.773,7.091,4.345
		c-2.298,1.439-4.178,3.488-5.413,5.918c-0.241-0.016-0.48-0.036-0.725-0.036c-2.766,0-5.282,1.042-7.2,2.743
		c-1.092-1.367-1.753-3.09-1.753-4.971C304.728,378.481,308.316,374.893,312.728,374.893z"/>
	<path d="M330.761,400.862h-9.988v2h9.988c3.314,0,6-2.687,6-6c0-3.314-2.686-6-6-6v2c2.205,0,4,1.794,4,4
		S332.966,400.862,330.761,400.862z"/>
	<path d="M338.784,400.862h-0.023v2h5.5v-0.051c2.523-0.254,4.5-2.358,4.5-4.949c0-2.762-2.238-5-5-5v2c1.654,0,3,1.346,3,3
		s-1.346,3-3,3c-0.043,0-0.083-0.011-0.126-0.013h-4.862C338.775,400.854,338.781,400.858,338.784,400.862z"/>
	<path d="M347.761,404.862h-13v2h9.022c-0.004,0.004-0.008,0.008-0.011,0.013h3.862c0.043-0.002,0.083-0.013,0.126-0.013
		c1.654,0,3,1.346,3,3s-1.346,3-3,3v2c2.762,0,5-2.238,5-5S350.522,404.862,347.761,404.862z"/>
	<rect x="314.761" y="400.862" width="4" height="2"/>
</g>
<g>
	<path d="M426.723,402.856l0.005-0.007h-12.536l-0.594-0.003c-4.864-0.024-8.822-4.001-8.822-8.865c0-4.89,3.978-8.868,8.867-8.868
		c0.15,0,0.299,0.012,0.447,0.021l0.148,0.011l1.314,0.085l0.597-1.174c2.225-4.373,6.644-7.09,11.532-7.09
		c5.916,0,11.114,4.099,12.54,9.8h2.065c-1.444-6.742-7.433-11.8-14.605-11.8c-1.806,0-3.536,0.322-5.138,0.91
		c-0.938-5.123-5.4-9.01-10.794-9.01c-0.413,0-0.819,0.027-1.222,0.071c0.744,1.112,1.179,2.448,1.179,3.886c0,3.865-3.134,7-7,7
		c-1.438,0-2.773-0.435-3.886-1.179c-0.044,0.401-0.071,0.809-0.071,1.222c0,3.725,1.858,7.009,4.69,8.998
		c-1.655,1.907-2.665,4.392-2.665,7.116c0,5.983,4.836,10.836,10.813,10.865v0.003h13.135v0.007c2.205,0,4,1.794,4,4s-1.795,4-4,4v2
		c3.314,0,6-2.686,6-6C432.723,405.543,430.037,402.856,426.723,402.856z M402.927,379.647c0.582,0.117,1.178,0.177,1.78,0.177
		c4.963,0,9-4.037,9-9c0-0.603-0.06-1.198-0.177-1.78c3.744,0.755,6.646,3.842,7.138,7.674c-2.702,1.444-4.909,3.696-6.301,6.432
		c-0.241-0.016-0.48-0.036-0.725-0.036c-2.535,0-4.861,0.875-6.71,2.33C404.904,384.151,403.418,382.083,402.927,379.647z"/>
	<path d="M430.723,398.856h-9.988v2h9.988c3.314,0,6-2.687,6-6c0-3.314-2.686-6-6-6v2c2.205,0,4,1.794,4,4
		S432.928,398.856,430.723,398.856z"/>
	<path d="M438.746,398.856h-0.023v2h5.5v-0.051c2.523-0.254,4.5-2.358,4.5-4.949c0-2.762-2.238-5-5-5v2c1.654,0,3,1.346,3,3
		s-1.346,3-3,3c-0.043,0-0.083-0.011-0.126-0.013h-4.862C438.737,398.849,438.743,398.853,438.746,398.856z"/>
	<path d="M447.723,402.856h-13v2h9.022c-0.004,0.004-0.008,0.008-0.011,0.013h3.862c0.043-0.002,0.083-0.013,0.126-0.013
		c1.654,0,3,1.346,3,3s-1.346,3-3,3v2c2.762,0,5-2.238,5-5S450.484,402.856,447.723,402.856z"/>
	<rect x="414.723" y="398.856" width="4" height="2"/>
</g>
<g>
	<rect x="527.615" y="365.425" width="2" height="10"/>
	<rect x="502.622" y="390.425" width="9.993" height="2"/>
	<rect x="542.315" y="371.511" transform="matrix(0.7071 0.7071 -0.7071 0.7071 425.5112 -273.8443)" width="2" height="10.409"/>
	<rect x="508.706" y="375.72" transform="matrix(0.7071 0.7071 -0.7071 0.7071 416.9023 -253.0509)" width="10.409" height="2"/>
	<path d="M532.615,405.425h-24v2h24c2.205,0,4,1.794,4,4s-1.795,4-4,4v2c3.314,0,6-2.686,6-6
		C538.615,408.111,535.93,405.425,532.615,405.425z"/>
	<path d="M544.639,401.425h-0.023v2h5.5v-0.051c2.523-0.254,4.5-2.358,4.5-4.949c0-2.762-2.238-5-5-5v2c1.654,0,3,1.346,3,3
		s-1.346,3-3,3c-0.043,0-0.083-0.011-0.126-0.013h-4.862C544.63,401.417,544.636,401.421,544.639,401.425z"/>
	<path d="M553.615,405.425h-13v2h9.022c-0.004,0.004-0.008,0.008-0.011,0.013h3.862c0.043-0.002,0.083-0.013,0.126-0.013
		c1.654,0,3,1.346,3,3s-1.346,3-3,3v2c2.762,0,5-2.238,5-5S556.377,405.425,553.615,405.425z"/>
	<path d="M520.324,401.425h-11.709v2h12.012h0.822h15.166c3.314,0,6-2.687,6-6c0-3.314-2.686-6-6-6v2c2.205,0,4,1.794,4,4
		s-1.795,4-4,4h-12.538c-3.802-1.734-6.455-5.563-6.455-10.007c0-6.064,4.935-10.999,11-10.999c5.384,0,9.868,3.891,10.81,9.006
		h2.021c-0.961-6.23-6.331-11.006-12.831-11.006c-7.18,0-13,5.819-13,12.999C515.622,395.443,517.452,399.04,520.324,401.425z"/>
</g>
<g>
	<path d="M632.842,398.868h-24v2h24c2.205,0,4,1.794,4,4s-1.795,4-4,4v2c3.314,0,6-2.686,6-6
		C638.842,401.555,636.156,398.868,632.842,398.868z"/>
	<path d="M650.342,396.868v-0.051c2.523-0.254,4.5-2.358,4.5-4.949c0-2.762-2.238-5-5-5v2c1.654,0,3,1.346,3,3s-1.346,3-3,3
		c-0.043,0-0.083-0.011-0.126-0.013h-4.862c0.004,0.005,0.009,0.009,0.012,0.013h-0.023v2H650.342z"/>
	<path d="M653.842,398.868h-13v2h9.022c-0.003,0.004-0.007,0.008-0.011,0.013h3.862c0.043-0.002,0.083-0.013,0.126-0.013
		c1.654,0,3,1.346,3,3s-1.346,3-3,3v2c2.762,0,5-2.238,5-5S656.604,398.868,653.842,398.868z"/>
	<path d="M621.676,396.868h15.166c3.314,0,6-2.687,6-6c0-3.314-2.686-6-6-6v2c2.205,0,4,1.794,4,4s-1.795,4-4,4h-12.586
		c-2.596-1.188-4.658-3.339-5.69-6.034c0.849,0.204,1.724,0.309,2.612,0.309c6.168,0,11.187-5.019,11.187-11.188
		c0-1.276-0.22-2.532-0.64-3.717c4.046,1.102,7.168,4.459,7.937,8.63h2.018c-0.964-6.237-6.338-11.016-12.846-11.016
		c-0.259,0-0.511,0.024-0.766,0.039c1.425,1.618,2.297,3.737,2.297,6.063c0,5.072-4.112,9.188-9.187,9.188
		c-1.988,0-3.826-0.641-5.33-1.715c0.162,3.801,1.962,7.165,4.699,9.44h-11.705v2h12.012H621.676z"/>
</g>
<g>
	<path d="M-86.939,484.062h-20c-1.103,0-2-0.897-2-2s0.897-2,2-2h3.445h0.555v-2h-4c-2.209,0-4,1.791-4,4s1.791,4,4,4h20
		c2.205,0,4,1.794,4,4s-1.795,4-4,4v2c3.314,0,6-2.686,6-6C-80.939,486.748-83.625,484.062-86.939,484.062z"/>
	<path d="M-84.939,468.062v2c2.205,0,4,1.794,4,4s-1.795,4-4,4h-15.988v2h15.988c3.314,0,6-2.687,6-6
		C-78.939,470.747-81.625,468.062-84.939,468.062z"/>
	<path d="M-78.939,480.062v2h5.5v-0.051c2.523-0.254,4.5-2.358,4.5-4.949c0-2.762-2.238-5-5-5v2c1.654,0,3,1.346,3,3s-1.346,3-3,3
		c-0.043,0-0.083-0.011-0.126-0.013h-4.862c0.003,0.005,0.009,0.009,0.012,0.013H-78.939z"/>
	<path d="M-67.939,484.062h-11v2h7.022c-0.004,0.004-0.008,0.008-0.011,0.013h3.862c0.043-0.002,0.083-0.013,0.126-0.013
		c1.654,0,3,1.346,3,3s-1.346,3-3,3v2c2.762,0,5-2.238,5-5S-65.178,484.062-67.939,484.062z"/>
</g>
<path d="M449.353,470.408v-0.038h-38.376c-1.103,0-2-0.897-2-2s0.897-2,2-2h33c2.762,0,5-2.238,5-5s-2.238-5-5-5h-37.875v0.008
	c-0.042-0.001-0.083-0.008-0.125-0.008c-2.762,0-5,2.238-5,5s2.238,5,5,5v-2c-1.654,0-3-1.346-3-3s1.346-3,3-3h0.125h3.853h34.022
	c1.654,0,3,1.346,3,3s-1.346,3-3,3h-33c-2.209,0-4,1.791-4,4s1.791,4,4,4h38c1.103,0,2,0.897,2,2s-0.897,2-2,2h-32
	c-2.209,0-4,1.791-4,4s1.791,4,4,4h22c1.103,0,2,0.897,2,2s-0.897,2-2,2h-24.01v0.001c-2.204,0.006-3.99,1.793-3.99,3.999
	s1.786,3.993,3.99,3.999v0.001h12.01c1.103,0,2,0.897,2,2s-0.897,2-2,2h-2c-2.209,0-4,1.791-4,4s1.791,4,4,4v-2
	c-1.103,0-2-0.897-2-2s0.897-2,2-2h2c2.209,0,4-1.791,4-4s-1.791-4-4-4h-12c-1.103,0-2-0.897-2-2s0.897-2,2-2h24
	c2.209,0,4-1.791,4-4c0-2.152-1.704-3.895-3.834-3.983v-0.017h-22.166c-1.103,0-2-0.897-2-2s0.897-2,2-2h32c2.209,0,4-1.791,4-4
	C452.977,472.29,451.383,470.601,449.353,470.408z"/>
<path d="M634.768,461.086v-2.024h-2v2.024c-13.01,0.513-23.462,10.965-23.975,23.976h1.674c1.14-1.222,2.748-2,4.551-2
	c2.26,0,4.233,1.203,5.331,3h1.838c1.098-1.797,3.071-3,5.331-3c2.204,0,4.137,1.144,5.25,2.866v15.134c0,2.21,1.791,4,4,4
	s4-1.79,4-4h-2c0,1.103-0.897,2-2,2s-2-0.897-2-2v-15.134c1.113-1.723,3.046-2.866,5.25-2.866c2.26,0,4.233,1.203,5.331,3h1.838
	c1.098-1.797,3.071-3,5.331-3c1.803,0,3.411,0.778,4.551,2h1.674C658.229,472.051,647.777,461.599,634.768,461.086z
	 M652.518,481.062c-2.496,0-4.736,1.114-6.25,2.87c-1.514-1.756-3.754-2.87-6.25-2.87s-4.736,1.114-6.25,2.87
	c-1.514-1.756-3.754-2.87-6.25-2.87s-4.736,1.114-6.25,2.87c-1.514-1.756-3.755-2.87-6.25-2.87c-1.402,0-2.731,0.351-3.897,0.975
	c1.909-10.769,11.339-18.975,22.647-18.975s20.738,8.206,22.647,18.975C655.249,481.412,653.92,481.062,652.518,481.062z"/>
<g>
	<path d="M229.473,585.374v-17.105c0-2.762-2.238-5-5-5s-5,2.238-5,5v17.105c-1.236,1.263-2,2.988-2,4.895c0,3.866,3.134,7,7,7
		s7-3.134,7-7C231.473,588.362,230.709,586.637,229.473,585.374z M224.473,595.269c-2.757,0-5-2.243-5-5
		c0-1.313,0.508-2.554,1.429-3.495l0.571-0.583v-0.816v-17.105c0-1.654,1.346-3,3-3s3,1.346,3,3v17.105v0.816l0.571,0.583
		c0.921,0.941,1.429,2.183,1.429,3.495C229.473,593.025,227.229,595.269,224.473,595.269z"/>
	<path d="M225.473,587.444v-15.176h-2v15.176c-1.167,0.413-2.008,1.516-2.008,2.824c0,1.662,1.347,3.008,3.008,3.008
		c1.662,0,3.008-1.346,3.008-3.008C227.48,588.96,226.641,587.857,225.473,587.444z M224.473,591.276
		c-0.556,0-1.008-0.452-1.008-1.008s0.452-1.008,1.008-1.008s1.008,0.452,1.008,1.008S225.028,591.276,224.473,591.276z"/>
</g>
<g>
	<path d="M329.261,585.374v-17.105c0-2.762-2.238-5-5-5s-5,2.238-5,5v17.105c-1.236,1.263-2,2.988-2,4.895c0,3.866,3.134,7,7,7
		s7-3.134,7-7C331.261,588.362,330.497,586.637,329.261,585.374z M324.261,595.269c-2.757,0-5-2.243-5-5
		c0-1.313,0.508-2.554,1.429-3.495l0.571-0.583v-0.816v-17.105c0-1.654,1.346-3,3-3s3,1.346,3,3v17.105v0.816l0.571,0.583
		c0.921,0.941,1.429,2.183,1.429,3.495C329.261,593.025,327.018,595.269,324.261,595.269z"/>
	<path d="M325.261,587.444v-20.176h-2v20.176c-1.167,0.413-2.008,1.516-2.008,2.824c0,1.662,1.347,3.008,3.008,3.008
		c1.662,0,3.008-1.346,3.008-3.008C327.269,588.96,326.429,587.857,325.261,587.444z M324.261,591.276
		c-0.556,0-1.008-0.452-1.008-1.008s0.452-1.008,1.008-1.008s1.008,0.452,1.008,1.008S324.816,591.276,324.261,591.276z"/>
</g>
<g>
	<path d="M126.363,585.374v-17.105c0-2.762-2.238-5-5-5s-5,2.238-5,5v17.105c-1.236,1.263-2,2.988-2,4.895c0,3.866,3.134,7,7,7
		s7-3.134,7-7C128.363,588.362,127.6,586.637,126.363,585.374z M121.363,595.269c-2.757,0-5-2.243-5-5
		c0-1.313,0.508-2.554,1.429-3.495l0.571-0.583v-0.816v-17.105c0-1.654,1.346-3,3-3s3,1.346,3,3v17.105v0.816l0.571,0.583
		c0.921,0.941,1.429,2.183,1.429,3.495C126.363,593.025,124.12,595.269,121.363,595.269z"/>
	<path d="M122.363,587.444v-10.176h-2v10.176c-1.167,0.413-2.008,1.516-2.008,2.824c0,1.662,1.347,3.008,3.008,3.008
		c1.662,0,3.008-1.346,3.008-3.008C124.371,588.96,123.531,587.857,122.363,587.444z M121.363,591.276
		c-0.556,0-1.008-0.452-1.008-1.008s0.452-1.008,1.008-1.008s1.008,0.452,1.008,1.008S121.919,591.276,121.363,591.276z"/>
</g>
<g>
	<path d="M22.718,585.374v-17.105c0-2.762-2.238-5-5-5s-5,2.238-5,5v17.105c-1.236,1.263-2,2.988-2,4.895c0,3.866,3.134,7,7,7
		s7-3.134,7-7C24.718,588.362,23.954,586.637,22.718,585.374z M17.718,595.269c-2.757,0-5-2.243-5-5
		c0-1.313,0.508-2.554,1.429-3.495l0.571-0.583v-0.816v-17.105c0-1.654,1.346-3,3-3s3,1.346,3,3v17.105v0.816l0.571,0.583
		c0.921,0.941,1.429,2.183,1.429,3.495C22.718,593.025,20.475,595.269,17.718,595.269z"/>
	<path d="M18.718,587.444v-5.176h-2v5.176c-1.167,0.413-2.008,1.516-2.008,2.824c0,1.662,1.347,3.008,3.008,3.008
		c1.662,0,3.008-1.346,3.008-3.008C20.726,588.96,19.886,587.857,18.718,587.444z M17.718,591.276c-0.556,0-1.008-0.452-1.008-1.008
		s0.452-1.008,1.008-1.008s1.008,0.452,1.008,1.008S18.273,591.276,17.718,591.276z"/>
</g>
<g>
	<path d="M-81.939,585.374v-17.105c0-2.762-2.238-5-5-5s-5,2.238-5,5v17.105c-1.236,1.263-2,2.988-2,4.895c0,3.866,3.134,7,7,7
		s7-3.134,7-7C-79.939,588.362-80.703,586.637-81.939,585.374z M-86.939,595.269c-2.757,0-5-2.243-5-5
		c0-1.313,0.508-2.554,1.429-3.495l0.571-0.583v-0.816v-17.105c0-1.654,1.346-3,3-3s3,1.346,3,3v17.105v0.816l0.571,0.583
		c0.921,0.941,1.429,2.183,1.429,3.495C-81.939,593.025-84.183,595.269-86.939,595.269z"/>
	<path d="M-86.939,587.261c-1.661,0-3.008,1.347-3.008,3.008c0,1.662,1.347,3.008,3.008,3.008c1.662,0,3.008-1.346,3.008-3.008
		C-83.932,588.607-85.277,587.261-86.939,587.261z M-86.939,591.276c-0.556,0-1.008-0.452-1.008-1.008s0.452-1.008,1.008-1.008
		s1.008,0.452,1.008,1.008S-86.384,591.276-86.939,591.276z"/>
</g>
<g>
	<path d="M417.985,565.581c-2.209,0-4,1.791-4,4c0,2.21,1.791,4,4,4c2.211,0,4-1.79,4-4
		C421.985,567.372,420.196,565.581,417.985,565.581z M417.985,571.581c-1.103,0-2-0.897-2-2s0.897-2,2-2s2,0.897,2,2
		S419.088,571.581,417.985,571.581z"/>
	<path d="M431.985,593.581c-4.41,0-7.999-3.589-7.999-7.999v-4.002c0-4.41,3.589-7.999,7.999-7.999c2.715,0,5.115,1.362,6.563,3.437
		l1.43-1.43c-1.824-2.429-4.72-4.007-7.992-4.007c-5.522,0-9.999,4.478-9.999,9.999v4.002c0,5.521,4.477,9.999,9.999,9.999
		c3.272,0,6.168-1.579,7.992-4.008l-1.43-1.43C437.102,592.218,434.701,593.581,431.985,593.581z"/>
</g>
<g>
	<path d="M522.682,565.46c-2.209,0-4,1.791-4,4c0,2.21,1.791,4,4,4c2.211,0,4-1.79,4-4
		C526.682,567.251,524.893,565.46,522.682,565.46z M522.682,571.46c-1.103,0-2-0.897-2-2s0.897-2,2-2s2,0.897,2,2
		S523.784,571.46,522.682,571.46z"/>
	<polygon points="542.557,573.581 542.557,571.581 530.557,571.581 528.557,571.581 528.557,595.581 530.557,595.581 
		530.557,583.581 538.557,583.581 538.557,581.581 530.557,581.581 530.557,573.581 	"/>
</g>
<g>
	<path d="M633.768,569.272c-7.179,0-13,5.82-13,13s5.821,13,13,13s13-5.82,13-13S640.946,569.272,633.768,569.272z M633.768,593.272
		c-6.065,0-11-4.935-11-11s4.935-11,11-11s11,4.935,11,11S639.833,593.272,633.768,593.272z"/>
	<path d="M629.501,586.515l6.363-2.121l2.121-6.364l-6.363,2.122L629.501,586.515z M633.203,581.732l1.62-0.54l-0.54,1.62
		l-1.62,0.54L633.203,581.732z"/>
</g>
<g>
	<path d="M-86.939,659.79c-7.179,0-13,5.82-13,13s5.821,13,13,13s13-5.82,13-13S-79.761,659.79-86.939,659.79z M-86.939,683.79
		c-6.065,0-11-4.934-11-11c0-6.064,4.935-11,11-11s11,4.936,11,11C-75.939,678.856-80.874,683.79-86.939,683.79z"/>
	<path d="M-84.378,671.212l-2.586-4.422l-2.529,4.33h0.007c-0.299,0.467-0.478,1.018-0.478,1.613c0,1.656,1.343,3,3,3s3-1.344,3-3
		c0-0.559-0.162-1.074-0.428-1.521H-84.378z M-86.964,673.733c-0.552,0-1-0.449-1-1c0-0.188,0.055-0.367,0.162-0.535l0.864-1.355
		l0.826,1.391c0.098,0.164,0.147,0.332,0.147,0.5C-85.964,673.284-86.412,673.733-86.964,673.733z"/>
</g>
<g>
	<path d="M17.845,659.79c-7.18,0-13,5.82-13,13s5.82,13,13,13s13-5.82,13-13S25.024,659.79,17.845,659.79z M17.845,683.79
		c-6.065,0-11-4.934-11-11c0-6.064,4.935-11,11-11s11,4.936,11,11C28.845,678.856,23.91,683.79,17.845,683.79z"/>
	<path d="M19.434,670.21c-0.467-0.299-1.018-0.477-1.613-0.477c-1.658,0-3,1.342-3,3c0,1.656,1.342,3,3,3
		c0.557,0,1.072-0.162,1.52-0.428v0.014l4.422-2.586l-4.328-2.529V670.21z M18.318,673.585c-0.164,0.098-0.332,0.148-0.498,0.148
		c-0.552,0-1-0.449-1-1c0-0.553,0.448-1,1-1c0.188,0,0.368,0.053,0.535,0.16l1.355,0.865L18.318,673.585z"/>
</g>
<g>
	<path d="M120.896,659.79c-7.18,0-13,5.82-13,13s5.82,13,13,13s13-5.82,13-13S128.075,659.79,120.896,659.79z M120.896,683.79
		c-6.065,0-11-4.934-11-11c0-6.064,4.935-11,11-11s11,4.936,11,11C131.896,678.856,126.961,683.79,120.896,683.79z"/>
	<path d="M120.896,669.733c-1.656,0-3,1.342-3,3c0,0.557,0.162,1.072,0.428,1.52h-0.014l2.586,4.422l2.529-4.328h-0.006
		c0.299-0.467,0.477-1.018,0.477-1.613C123.896,671.075,122.554,669.733,120.896,669.733z M121.734,673.269l-0.865,1.355
		l-0.826-1.393c-0.098-0.164-0.147-0.332-0.147-0.498c0-0.553,0.448-1,1-1s1,0.447,1,1
		C121.896,672.921,121.842,673.101,121.734,673.269z"/>
</g>
<g>
	<path d="M224.31,659.79c-7.179,0-13,5.82-13,13s5.821,13,13,13s13-5.82,13-13S231.488,659.79,224.31,659.79z M224.31,683.79
		c-6.065,0-11-4.934-11-11c0-6.064,4.935-11,11-11s11,4.936,11,11C235.31,678.856,230.375,683.79,224.31,683.79z"/>
	<path d="M224.269,669.733c-0.557,0-1.072,0.162-1.52,0.428v-0.014l-4.422,2.586l4.328,2.529v-0.006
		c0.467,0.299,1.018,0.477,1.613,0.477c1.658,0,3-1.342,3-3C227.269,671.077,225.927,669.733,224.269,669.733z M224.269,673.733
		c-0.188,0-0.368-0.055-0.535-0.162l-1.355-0.865l1.393-0.826c0.164-0.098,0.332-0.146,0.498-0.146c0.552,0,1,0.447,1,1
		C225.269,673.284,224.82,673.733,224.269,673.733z"/>
</g>
<g>
	<rect x="16.158" y="463.062" width="2" height="10"/>
	<rect x="30.858" y="469.147" transform="matrix(0.7071 0.7071 -0.7071 0.7071 344.7485 116.4076)" width="2" height="10.409"/>
	<rect x="-2.751" y="473.357" transform="matrix(0.7071 0.7071 -0.7071 0.7071 336.1396 137.201)" width="10.409" height="2"/>
	<polygon points="10.49,492.315 11.904,493.729 16.158,489.476 16.158,499.062 18.158,499.062 18.158,489.476 22.411,493.729 
		23.825,492.315 17.158,485.647 	"/>
	<path d="M30.165,489.061c0-0.002,0-0.004,0-0.006c0-7.18-5.82-12.999-13-12.999s-13,5.819-13,12.999c0,0.002,0,0.004,0,0.006h-13v2
		h18v-2h-3c0-0.002,0-0.004,0-0.006c0-6.064,4.935-10.999,11-10.999s11,4.935,11,10.999c0,0.002,0,0.004,0,0.006h-3v2H43.16v-2
		H30.165z"/>
</g>
<g>
	<rect x="119.903" y="461.874" width="2" height="10"/>
	<rect x="134.603" y="467.96" transform="matrix(0.7071 0.7071 -0.7071 0.7071 374.295 42.7009)" width="2" height="10.409"/>
	<rect x="100.994" y="472.17" transform="matrix(0.7071 0.7071 -0.7071 0.7071 365.6862 63.4943)" width="10.409" height="2"/>
	<polygon points="121.903,496.421 121.903,485.874 119.903,485.874 119.903,496.421 115.649,492.167 114.235,493.581 
		120.903,500.249 127.57,493.581 126.156,492.167 	"/>
	<path d="M133.91,487.873c0-0.002,0-0.004,0-0.006c0-7.18-5.82-12.999-13-12.999s-13,5.819-13,12.999c0,0.002,0,0.004,0,0.006h-13v2
		h22v-2h-7c0-0.002,0-0.004,0-0.006c0-6.064,4.935-10.999,11-10.999s11,4.935,11,10.999c0,0.002,0,0.004,0,0.006h-7v2h21.995v-2
		H133.91z"/>
</g>
<g>
	<polygon points="324.261,495.887 324.261,481.504 322.261,481.504 322.261,495.887 318.007,491.633 316.593,493.047 
		323.261,499.715 329.928,493.047 328.514,491.633 	"/>
	<path d="M339.889,476.533c-1.596-7.445-8.207-13.029-16.127-13.029c-6.423,0-11.977,3.678-14.702,9.035
		c-0.266-0.018-0.53-0.04-0.8-0.04c-6.627,0-11.999,5.372-11.999,12c0,6.607,5.34,11.965,11.938,11.998v0.003h6.062v-2h-5.604
		l-0.447-0.003c-5.485-0.027-9.948-4.513-9.948-9.998c0-5.514,4.485-10,9.999-10c0.175,0,0.347,0.014,0.52,0.025l0.148,0.01
		l1.316,0.088l0.598-1.176c2.492-4.899,7.443-7.942,12.92-7.942c6.79,0,12.75,4.814,14.172,11.448l0.317,1.482l1.514,0.095
		c4.203,0.262,7.496,3.763,7.496,7.971c0,4.397-3.565,7.977-7.957,8c-0.05-0.003-0.093-0.005-0.137-0.007l-2.043,0.007h-4.863v2
		h6.863v-0.007c0.046,0.001,0.091,0.007,0.137,0.007c5.521,0,10-4.477,10-10C349.261,481.189,345.116,476.858,339.889,476.533z"/>
</g>
<g>
	<polygon points="230.245,492.691 231.659,491.277 224.992,484.609 218.324,491.277 219.738,492.691 223.992,488.438 
		223.992,501.023 225.992,501.023 225.992,488.438 	"/>
	<path d="M241.62,478.129c-1.596-7.445-8.207-13.029-16.127-13.029c-6.423,0-11.977,3.678-14.702,9.035
		c-0.266-0.018-0.53-0.04-0.8-0.04c-6.627,0-11.999,5.372-11.999,12c0,6.607,5.34,11.965,11.938,11.998v0.003h10.062v-2h-9.604
		l-0.447-0.003c-5.485-0.027-9.948-4.513-9.948-9.998c0-5.514,4.485-10,9.999-10c0.175,0,0.347,0.014,0.52,0.025l0.148,0.01
		l1.316,0.088l0.598-1.176c2.492-4.899,7.443-7.942,12.92-7.942c6.79,0,12.75,4.814,14.172,11.448l0.317,1.482l1.514,0.095
		c4.203,0.262,7.496,3.763,7.496,7.971c0,4.397-3.565,7.977-7.957,8c-0.05-0.003-0.093-0.005-0.137-0.007l-2.043,0.007h-8.863v2
		h10.863v-0.007c0.046,0.001,0.091,0.007,0.137,0.007c5.521,0,10-4.477,10-10C250.992,482.785,246.848,478.454,241.62,478.129z"/>
</g>
<g>
	<path d="M444.109,288.613c-1.596-7.445-8.207-13.029-16.127-13.029c-6.423,0-11.977,3.678-14.702,9.035
		c-0.266-0.018-0.53-0.04-0.8-0.04c-6.627,0-11.999,5.372-11.999,12c0,6.607,5.34,11.965,11.938,11.998v0.003h2.062v-2h-1.604
		l-0.447-0.003c-5.485-0.027-9.948-4.513-9.948-9.998c0-5.514,4.485-10,9.999-10c0.175,0,0.347,0.014,0.52,0.025l0.148,0.01
		l1.316,0.088l0.598-1.176c2.492-4.899,7.443-7.942,12.92-7.942c6.79,0,12.75,4.814,14.172,11.448l0.317,1.482l1.514,0.095
		c4.203,0.262,7.496,3.763,7.496,7.971c0,4.397-3.565,7.977-7.957,8c-0.05-0.003-0.093-0.005-0.137-0.007l-2.043,0.007h-0.863v2
		h2.863v-0.007c0.046,0.001,0.091,0.007,0.137,0.007c5.521,0,10-4.477,10-10C453.481,293.27,449.337,288.938,444.109,288.613z"/>
	<polygon points="422.481,307.602 422.481,304.972 424.654,306.194 425.34,304.974 422.87,303.584 425.34,302.194 424.654,300.974 
		422.481,302.196 422.481,299.602 420.481,299.602 420.481,302.24 418.23,300.974 417.545,302.194 420.015,303.584 417.545,304.974 
		418.23,306.194 420.481,304.928 420.481,307.602 	"/>
	<polygon points="427.644,311.956 425.471,313.179 425.471,310.584 423.471,310.584 423.471,313.223 421.22,311.956 
		420.534,313.177 423.004,314.566 420.534,315.956 421.22,317.177 423.471,315.91 423.471,318.584 425.471,318.584 425.471,315.954 
		427.644,317.177 428.329,315.956 425.859,314.566 428.329,313.177 	"/>
	<polygon points="436.659,304.974 434.486,306.196 434.486,303.602 432.486,303.602 432.486,306.24 430.235,304.974 429.55,306.194 
		432.02,307.584 429.55,308.974 430.235,310.194 432.486,308.928 432.486,311.602 434.486,311.602 434.486,308.972 436.659,310.194 
		437.345,308.974 434.875,307.584 437.345,306.194 	"/>
</g>
<g>
	<rect x="519.621" y="270.562" width="2" height="7.973"/>
	<rect x="500.621" y="289.476" width="7.973" height="2"/>
	<rect x="505.294" y="278.209" transform="matrix(0.7071 0.7071 -0.7071 0.7071 346.5956 -278.3378)" width="7.974" height="2"/>
	<rect x="530.803" y="275.227" transform="matrix(0.7071 0.7071 -0.7071 0.7071 353.1947 -294.2617)" width="2" height="7.972"/>
	<path d="M550.133,296.352c-1.444-6.742-7.433-11.8-14.605-11.8c-2.185,0-4.258,0.471-6.127,1.314
		c-1.666-3.203-5.006-5.395-8.865-5.395c-5.522,0-10,4.477-10,9.999c0,2.46,0.899,4.702,2.373,6.442
		c-1.428,1.84-2.287,4.144-2.287,6.653c0,5.983,4.836,10.836,10.813,10.865v0.003h1.188v-2H521.9l-0.457-0.003
		c-4.864-0.023-8.822-4.001-8.822-8.865c0-4.89,3.978-8.868,8.867-8.868c0.15,0,0.299,0.012,0.447,0.022l0.148,0.01l1.314,0.085
		l0.597-1.175c2.225-4.372,6.644-7.089,11.532-7.089c6.062,0,11.382,4.298,12.649,10.219l0.318,1.483l1.514,0.094
		c3.708,0.23,6.612,3.319,6.612,7.03c0,3.878-3.144,7.035-7.017,7.057c-0.042-0.003-0.079-0.005-0.117-0.005l-1.866,0.005v2h1.819
		v-0.006c0.042,0.001,0.082,0.006,0.124,0.006c5.001,0,9.057-4.054,9.057-9.057C558.621,300.568,554.867,296.646,550.133,296.352z
		 M522.213,292.734c-0.241-0.016-0.48-0.036-0.725-0.036c-2.766,0-5.282,1.041-7.2,2.742c-1.092-1.365-1.753-3.089-1.753-4.97
		c0-4.41,3.589-7.999,8-7.999c3.092,0,5.76,1.773,7.091,4.346C525.328,288.257,523.449,290.305,522.213,292.734z"/>
	<polygon points="529.613,313.454 529.613,310.824 531.786,312.047 532.472,310.826 530.002,309.437 532.472,308.047 
		531.786,306.826 529.613,308.049 529.613,305.454 527.613,305.454 527.613,308.093 525.362,306.826 524.677,308.047 
		527.146,309.437 524.677,310.826 525.362,312.047 527.613,310.78 527.613,313.454 	"/>
	<polygon points="534.775,317.809 532.603,319.031 532.603,316.437 530.603,316.437 530.603,319.075 528.352,317.809 
		527.666,319.029 530.136,320.419 527.666,321.809 528.352,323.029 530.603,321.763 530.603,324.437 532.603,324.437 
		532.603,321.807 534.775,323.029 535.461,321.809 532.991,320.419 535.461,319.029 	"/>
	<polygon points="543.791,310.826 541.618,312.049 541.618,309.454 539.618,309.454 539.618,312.093 537.367,310.826 
		536.682,312.047 539.151,313.437 536.682,314.826 537.367,316.047 539.618,314.78 539.618,317.454 541.618,317.454 
		541.618,314.824 543.791,316.047 544.477,314.826 542.007,313.437 544.477,312.047 	"/>
</g>
<g>
	<path d="M650.321,293.349c-1.444-6.742-7.433-11.8-14.605-11.8c-1.799,0-3.522,0.32-5.118,0.904
		c-0.949-5.108-5.404-8.98-10.788-8.98c-0.413,0-0.819,0.027-1.222,0.071c0.744,1.112,1.179,2.448,1.179,3.886c0,3.865-3.134,7-7,7
		c-1.438,0-2.773-0.435-3.886-1.179c-0.044,0.401-0.071,0.809-0.071,1.222c0,3.713,1.845,6.987,4.661,8.979
		c-1.653,1.907-2.661,4.389-2.661,7.111c0,5.983,4.836,10.836,10.813,10.865v0.003h1.188v-2h-0.721l-0.457-0.003
		c-4.864-0.023-8.822-4.001-8.822-8.865c0-4.89,3.978-8.868,8.867-8.868c0.15,0,0.299,0.012,0.447,0.022l0.148,0.01l1.314,0.085
		l0.597-1.175c2.225-4.372,6.644-7.089,11.532-7.089c6.062,0,11.382,4.298,12.649,10.219l0.318,1.483l1.514,0.094
		c3.708,0.23,6.612,3.319,6.612,7.03c0,3.878-3.144,7.035-7.017,7.057c-0.042-0.003-0.079-0.005-0.117-0.005l-1.866,0.005v2h1.819
		v-0.006c0.042,0.001,0.082,0.006,0.124,0.006c5.001,0,9.057-4.054,9.057-9.057C658.81,297.565,655.056,293.644,650.321,293.349z
		 M622.401,289.731c-0.241-0.016-0.48-0.036-0.725-0.036c-2.537,0-4.865,0.877-6.715,2.334c-2.012-1.294-3.486-3.354-3.976-5.776
		c0.582,0.117,1.178,0.177,1.78,0.177c4.963,0,9-4.037,9-9c0-0.603-0.06-1.198-0.177-1.78c3.733,0.753,6.629,3.824,7.134,7.64
		C626.011,284.733,623.796,286.988,622.401,289.731z"/>
	<polygon points="629.847,310.451 629.847,307.821 632.02,309.044 632.705,307.823 630.235,306.434 632.705,305.044 632.02,303.823 
		629.847,305.046 629.847,302.451 627.847,302.451 627.847,305.09 625.596,303.823 624.91,305.044 627.38,306.434 624.91,307.823 
		625.596,309.044 627.847,307.777 627.847,310.451 	"/>
	<polygon points="635.009,314.806 632.836,316.028 632.836,313.434 630.836,313.434 630.836,316.072 628.585,314.806 
		627.899,316.026 630.369,317.416 627.899,318.806 628.585,320.026 630.836,318.76 630.836,321.434 632.836,321.434 
		632.836,318.804 635.009,320.026 635.694,318.806 633.225,317.416 635.694,316.026 	"/>
	<polygon points="644.024,307.823 641.852,309.046 641.852,306.451 639.852,306.451 639.852,309.09 637.601,307.823 
		636.915,309.044 639.385,310.434 636.915,311.823 637.601,313.044 639.852,311.777 639.852,314.451 641.852,314.451 
		641.852,311.821 644.024,313.044 644.71,311.823 642.24,310.434 644.71,309.044 	"/>
</g>
<rect x="33.963" y="-274.401" fill="none" width="472.974" height="180.918"/>
<text transform="matrix(1 0 0 1 213.6001 -203.0024)"><tspan x="0" y="0" font-family="'HelveticaNeueLTStd-Th'" font-size="100" letter-spacing="2">60</tspan><tspan x="-99.268" y="60" font-family="'HelveticaNeueLTStd-Lt'" font-size="48" letter-spacing="1">Weather Icons</tspan><tspan x="-3.726" y="104" font-family="'HelveticaNeueLTStd-Lt'" font-size="24">IOS 7 Style</tspan></text>
</svg>
