<?xml version="1.0" encoding="utf-8"?>
<!-- Generator: Adobe Illustrator 16.0.0, SVG Export Plug-In . SVG Version: 6.00 Build 0)  -->
<!DOCTYPE svg PUBLIC "-//W3C//DTD SVG 1.1//EN" "http://www.w3.org/Graphics/SVG/1.1/DTD/svg11.dtd">
<svg version="1.1" id="Layer_1" xmlns="http://www.w3.org/2000/svg" xmlns:xlink="http://www.w3.org/1999/xlink" x="0px" y="0px"
	 width="53px" height="44.37px" viewBox="0 0 53 44.37" enable-background="new 0 0 53 44.37" xml:space="preserve">
<path d="M30.365,379.647l-1.803,15.077l-0.268,2.237h2.254h6.896l-14.693,18.759l1.789-14.52l0.277-2.245h-2.262H15.6
	L30.365,379.647 M33.22,372.623l-21.667,28.333h11.004l-2.671,21.667l21.667-27.661H30.549L33.22,372.623L33.22,372.623z"/>
<path d="M-382.67-82.613c6.79,0,12.749,4.814,14.171,11.448l0.318,1.483l1.514,0.094c4.203,0.262,7.496,3.763,7.496,7.971
	c0,4.396-3.565,7.977-7.957,8c-0.046-0.003-0.091-0.006-0.137-0.007l-2.043-0.036v0.043h-28.337l-0.578-0.003
	c-5.485-0.027-9.948-4.513-9.948-9.998c0-5.514,4.485-10,9.999-10c0.175,0,0.347,0.014,0.519,0.025l0.149,0.011l1.316,0.087
	l0.598-1.176C-393.097-79.57-388.146-82.613-382.67-82.613 M-382.67-84.613c-6.423,0-11.977,3.678-14.702,9.035
	c-0.266-0.018-0.53-0.04-0.8-0.04c-6.627,0-11.999,5.372-11.999,12c0,6.607,5.34,11.965,11.938,11.998v0.003h30.925v-0.007
	c0.046,0.001,0.091,0.007,0.137,0.007c5.521,0,10-4.477,10-10c0-5.311-4.145-9.642-9.372-9.967
	C-368.139-79.029-374.75-84.613-382.67-84.613L-382.67-84.613z"/>
<g>
	<path d="M-259.719-64.202c-1.444-6.742-7.433-11.8-14.605-11.8c-2.185,0-4.258,0.47-6.127,1.313
		c-1.666-3.202-5.006-5.394-8.865-5.394c-5.522,0-10,4.477-10,9.999c0,2.46,0.898,4.702,2.373,6.442
		c-1.428,1.84-2.287,4.144-2.287,6.653c0,5.983,4.836,10.836,10.813,10.865v0.003h28.007v-0.006
		c0.042,0.001,0.082,0.006,0.124,0.006c5.001,0,9.057-4.054,9.057-9.057C-251.23-59.985-254.984-63.907-259.719-64.202z
		 M-289.316-78.082c3.092,0,5.76,1.773,7.092,4.345c-2.299,1.44-4.178,3.488-5.414,5.918c-0.241-0.016-0.48-0.036-0.725-0.036
		c-2.766,0-5.281,1.041-7.2,2.743c-1.092-1.366-1.753-3.09-1.753-4.971C-297.316-74.493-293.728-78.082-289.316-78.082z
		 M-260.247-48.119c-0.038-0.003-0.077-0.004-0.117-0.005l-2.047-0.042v0.047h-25.403l-0.594-0.003
		c-4.864-0.023-8.822-4.001-8.822-8.865c0-4.89,3.978-8.868,8.867-8.868c0.15,0,0.299,0.012,0.447,0.021l0.148,0.011l1.314,0.085
		l0.598-1.174c2.224-4.373,6.643-7.09,11.531-7.09c6.062,0,11.381,4.298,12.65,10.219l0.317,1.482l1.514,0.095
		c3.708,0.231,6.612,3.319,6.612,7.03C-253.23-51.298-256.374-48.142-260.247-48.119z"/>
	<rect x="-290.311" y="-90.112" width="2" height="7.973"/>
	<rect x="-309.283" y="-71.126" width="7.973" height="2"/>
	<rect x="-304.557" y="-82.345" transform="matrix(0.7071 0.7071 -0.7071 0.7071 -145.5544 188.71)" width="7.974" height="2"/>
	<rect x="-279.049" y="-85.327" transform="matrix(0.7071 0.7071 -0.7071 0.7071 -138.9553 172.786)" width="2" height="7.972"/>
</g>
<path d="M-163.976-68.229c-1.444-6.742-7.433-11.8-14.605-11.8c-1.799,0-3.521,0.32-5.118,0.904
	c-0.949-5.108-5.404-8.98-10.788-8.98c-0.413,0-0.819,0.027-1.222,0.071c0.744,1.112,1.179,2.448,1.179,3.886c0,3.865-3.134,7-7,7
	c-1.438,0-2.773-0.435-3.886-1.179c-0.044,0.401-0.071,0.809-0.071,1.222c0,3.712,1.845,6.987,4.661,8.979
	c-1.653,1.907-2.661,4.389-2.661,7.111c0,5.983,4.836,10.836,10.813,10.865v0.003h28.007v-0.006
	c0.042,0.001,0.082,0.006,0.124,0.006c5.001,0,9.057-4.054,9.057-9.057C-155.487-64.013-159.241-67.935-163.976-68.229z
	 M-203.311-75.325c0.582,0.117,1.178,0.177,1.78,0.177c4.963,0,9-4.037,9-9c0-0.603-0.06-1.198-0.177-1.78
	c3.733,0.753,6.629,3.824,7.134,7.64c-2.713,1.444-4.928,3.699-6.322,6.442c-0.241-0.016-0.48-0.036-0.725-0.036
	c-2.537,0-4.865,0.876-6.715,2.334C-201.347-70.843-202.821-72.902-203.311-75.325z M-164.504-52.146
	c-0.038-0.003-0.077-0.004-0.117-0.005l-2.047-0.042v0.047h-25.403l-0.594-0.003c-4.864-0.023-8.822-4.001-8.822-8.865
	c0-4.89,3.978-8.868,8.867-8.868c0.15,0,0.299,0.012,0.447,0.021l0.148,0.011l1.314,0.085l0.598-1.174
	c2.224-4.373,6.643-7.09,11.531-7.09c6.062,0,11.381,4.298,12.65,10.219l0.317,1.482l1.514,0.095
	c3.708,0.231,6.612,3.319,6.612,7.03C-157.487-55.325-160.631-52.169-164.504-52.146z"/>
<g>
	<rect x="-79.33" y="-59.606" width="2" height="7"/>
	<rect x="-71.33" y="-63.606" width="2" height="7"/>
	<rect x="-87.33" y="-63.606" width="2" height="7"/>
	<rect x="-79.33" y="-49.606" width="2" height="7"/>
	<rect x="-71.33" y="-53.606" width="2" height="7"/>
	<rect x="-87.33" y="-53.606" width="2" height="7"/>
	<path d="M-60.702-76.595c-1.596-7.445-8.207-13.029-16.127-13.029c-6.423,0-11.977,3.678-14.702,9.035
		c-0.266-0.018-0.53-0.04-0.8-0.04c-6.627,0-11.999,5.372-11.999,12c0,6.607,5.34,11.965,11.938,11.998v0.003h2.062v-2h-1.604
		l-0.447-0.003c-5.485-0.027-9.948-4.513-9.948-9.998c0-5.514,4.485-10,9.999-10c0.175,0,0.347,0.014,0.52,0.025l0.148,0.01
		l1.316,0.088l0.598-1.176c2.492-4.899,7.443-7.942,12.92-7.942c6.79,0,12.75,4.814,14.172,11.448l0.317,1.482l1.514,0.095
		c4.203,0.262,7.496,3.763,7.496,7.971c0,4.397-3.565,7.977-7.957,8c-0.05-0.003-0.093-0.005-0.137-0.007l-2.043,0.007h-2.863v2
		h4.863v-0.007c0.046,0.001,0.091,0.007,0.137,0.007c5.521,0,10-4.477,10-10C-51.33-71.938-55.475-76.27-60.702-76.595z"/>
</g>
<g>
	<path d="M-263.129,12.763c-1.596-7.445-8.207-13.029-16.127-13.029c-6.423,0-11.977,3.678-14.702,9.035
		c-0.266-0.018-0.53-0.04-0.8-0.04c-6.627,0-11.999,5.372-11.999,12c0,6.607,5.34,11.965,11.938,11.998v0.003h2.062v-2h-1.604
		l-0.447-0.003c-5.485-0.027-9.948-4.513-9.948-9.998c0-5.514,4.485-10,9.999-10c0.175,0,0.347,0.014,0.52,0.025l0.148,0.01
		l1.316,0.088l0.598-1.176c2.492-4.899,7.443-7.942,12.92-7.942c6.79,0,12.75,4.814,14.172,11.448l0.317,1.482l1.514,0.095
		c4.203,0.262,7.496,3.763,7.496,7.971c0,4.397-3.565,7.977-7.957,8c-0.05-0.003-0.093-0.005-0.137-0.007l-2.043,0.007h-2.863v2
		h4.863v-0.007c0.046,0.001,0.091,0.007,0.137,0.007c5.521,0,10-4.477,10-10C-253.757,17.419-257.901,13.088-263.129,12.763z"/>
	<polygon points="-281.757,39.758 -281.757,41.698 -281.757,47.758 -279.757,47.758 -279.757,41.698 -279.757,39.758 
		-279.757,27.758 -281.757,27.758 	"/>
	<polygon points="-273.757,35.758 -273.757,37.511 -273.757,43.758 -271.757,43.758 -271.757,37.511 -271.757,35.758 
		-271.757,23.758 -273.757,23.758 	"/>
	<polygon points="-289.757,35.758 -289.757,37.823 -289.757,43.758 -287.757,43.758 -287.757,37.823 -287.757,35.758 
		-287.757,23.758 -289.757,23.758 	"/>
</g>
<g>
	<polygon points="32.521,36.669 25.638,26.839 24,27.986 30.883,37.816 31.995,39.405 35.471,44.369 37.109,43.223 33.634,38.258 	
		"/>
	<polygon points="40.522,36.667 33.638,26.839 32,27.987 38.886,37.815 39.891,39.251 43.475,44.366 45.113,43.22 41.529,38.104 	
		"/>
	<polygon points="24.521,36.669 17.638,26.839 16,27.987 22.883,37.816 24.067,39.509 27.472,44.37 29.109,43.223 25.706,38.361 	
		"/>
	<path d="M43.628,13.029C42.032,5.584,35.421,0,27.501,0c-6.423,0-11.977,3.678-14.702,9.035c-0.266-0.018-0.53-0.04-0.8-0.04
		C5.372,8.995,0,14.367,0,20.995c0,6.607,5.34,11.965,11.938,11.998v0.003H14v-2h-1.604l-0.447-0.003C6.463,30.966,2,26.48,2,20.995
		c0-5.514,4.485-10,9.999-10c0.175,0,0.347,0.014,0.52,0.025l0.148,0.01l1.316,0.088l0.598-1.176C17.073,5.043,22.024,2,27.501,2
		c6.79,0,12.75,4.814,14.172,11.448l0.317,1.482l1.514,0.095C47.707,15.287,51,18.788,51,22.996c0,4.397-3.565,7.977-7.957,8
		c-0.05-0.003-0.093-0.005-0.137-0.007l-1.043,0.007H42v2h0.863v-0.007c0.046,0.001,0.091,0.007,0.137,0.007c5.521,0,10-4.477,10-10
		C53,17.686,48.855,13.354,43.628,13.029z"/>
</g>
<g>
	<rect x="15.326" y="-96.053" width="2" height="7.973"/>
	<rect x="-3.674" y="-77.139" width="7.973" height="2"/>
	<rect x="0.999" y="-88.405" transform="matrix(0.7071 0.7071 -0.7071 0.7071 -60.3444 -29.1263)" width="7.974" height="2"/>
	<rect x="26.508" y="-91.387" transform="matrix(0.7071 0.7071 -0.7071 0.7071 -53.7452 -45.0502)" width="2" height="7.972"/>
	<rect x="29.326" y="-55.18" width="2" height="7"/>
	<rect x="37.326" y="-59.18" width="2" height="7"/>
	<rect x="21.326" y="-59.18" width="2" height="7"/>
	<rect x="29.326" y="-45.18" width="2" height="7"/>
	<rect x="37.326" y="-49.18" width="2" height="7"/>
	<rect x="21.326" y="-49.18" width="2" height="7"/>
	<path d="M45.838-70.263c-1.444-6.742-7.433-11.8-14.605-11.8c-2.185,0-4.258,0.47-6.126,1.313
		c-1.667-3.202-5.007-5.394-8.866-5.394c-5.522,0-10,4.477-10,9.999c0,2.46,0.899,4.702,2.373,6.442
		c-1.429,1.84-2.287,4.144-2.287,6.653c0,5.983,4.836,10.836,10.813,10.865v0.003h1.188v-2h-0.721l-0.457-0.003
		c-4.864-0.023-8.822-4.001-8.822-8.865c0-4.89,3.978-8.868,8.867-8.868c0.15,0,0.299,0.012,0.447,0.022l0.148,0.01l1.314,0.085
		l0.597-1.175c2.225-4.372,6.644-7.089,11.532-7.089c6.062,0,11.382,4.298,12.649,10.219L44.2-68.36l1.514,0.094
		c3.708,0.23,6.612,3.319,6.612,7.03c0,3.878-3.144,7.035-7.017,7.057c-0.042-0.003-0.079-0.005-0.117-0.005l-2.047,0.005h-0.819v2
		h2.819v-0.006c0.042,0.001,0.082,0.006,0.124,0.006c5.001,0,9.057-4.054,9.057-9.057C54.326-66.046,50.572-69.968,45.838-70.263z
		 M17.918-73.88c-0.241-0.016-0.48-0.036-0.725-0.036c-2.766,0-5.282,1.041-7.2,2.743c-1.092-1.366-1.753-3.09-1.753-4.971
		c0-4.41,3.589-7.999,8-7.999c3.091,0,5.76,1.773,7.091,4.345C21.033-78.357,19.153-76.31,17.918-73.88z"/>
</g>
<g>
	<rect x="129.743" y="-56.627" width="2" height="7"/>
	<rect x="137.743" y="-60.627" width="2" height="7"/>
	<rect x="121.743" y="-60.627" width="2" height="7"/>
	<rect x="129.743" y="-46.627" width="2" height="7"/>
	<rect x="137.743" y="-50.627" width="2" height="7"/>
	<rect x="121.743" y="-50.627" width="2" height="7"/>
	<path d="M146.255-71.71c-1.444-6.742-7.433-11.8-14.605-11.8c-1.799,0-3.522,0.32-5.118,0.904c-0.949-5.108-5.404-8.98-10.788-8.98
		c-0.413,0-0.819,0.027-1.222,0.071c0.744,1.112,1.179,2.448,1.179,3.886c0,3.865-3.134,7-7,7c-1.438,0-2.773-0.435-3.886-1.179
		c-0.044,0.401-0.071,0.809-0.071,1.222c0,3.712,1.845,6.987,4.661,8.979c-1.653,1.907-2.661,4.389-2.661,7.111
		c0,5.983,4.836,10.836,10.813,10.865v0.003h1.188v-2h-0.721l-0.457-0.003c-4.864-0.023-8.822-4.001-8.822-8.865
		c0-4.89,3.978-8.868,8.867-8.868c0.15,0,0.299,0.012,0.447,0.022l0.148,0.01l1.314,0.085l0.597-1.175
		c2.225-4.372,6.644-7.089,11.532-7.089c6.062,0,11.382,4.298,12.649,10.219l0.318,1.483l1.514,0.094
		c3.708,0.23,6.612,3.319,6.612,7.03c0,3.878-3.144,7.035-7.017,7.057c-0.042-0.003-0.079-0.005-0.117-0.005l-2.047,0.005h-0.819v2
		h2.819v-0.006c0.042,0.001,0.082,0.006,0.124,0.006c5.001,0,9.057-4.054,9.057-9.057C154.743-67.493,150.989-71.415,146.255-71.71z
		 M118.335-75.327c-0.241-0.016-0.48-0.036-0.725-0.036c-2.537,0-4.865,0.876-6.715,2.334c-2.012-1.294-3.487-3.354-3.976-5.776
		c0.582,0.117,1.178,0.177,1.78,0.177c4.963,0,9-4.037,9-9c0-0.603-0.06-1.198-0.177-1.78c3.733,0.753,6.629,3.824,7.133,7.64
		C121.945-80.325,119.73-78.07,118.335-75.327z"/>
</g>
<g>
	<polygon points="-177.487,44.196 -177.487,46.137 -177.487,52.196 -175.487,52.196 -175.487,46.137 -175.487,44.196 
		-175.487,32.196 -177.487,32.196 	"/>
	<polygon points="-169.487,40.196 -169.487,41.949 -169.487,48.196 -167.487,48.196 -167.487,41.949 -167.487,40.196 
		-167.487,28.196 -169.487,28.196 	"/>
	<polygon points="-185.487,40.196 -185.487,42.262 -185.487,48.196 -183.487,48.196 -183.487,42.262 -183.487,40.196 
		-183.487,28.196 -185.487,28.196 	"/>
	<rect x="-191.487" y="-6.706" width="2" height="7.973"/>
	<rect x="-210.487" y="12.208" width="7.973" height="2"/>
	<rect x="-205.814" y="0.942" transform="matrix(0.7071 0.7071 -0.7071 0.7071 -57.741 143.282)" width="7.974" height="2"/>
	<rect x="-180.306" y="-2.04" transform="matrix(0.7071 0.7071 -0.7071 0.7071 -51.1419 127.358)" width="2" height="7.972"/>
	<path d="M-160.976,19.084c-1.444-6.742-7.433-11.8-14.605-11.8c-2.185,0-4.258,0.47-6.127,1.313
		c-1.666-3.202-5.006-5.394-8.865-5.394c-5.522,0-10,4.477-10,9.999c0,2.46,0.898,4.702,2.373,6.442
		c-1.428,1.84-2.287,4.144-2.287,6.653c0,5.983,4.836,10.836,10.813,10.865v0.003h1.188v-2h-0.721l-0.457-0.003
		c-4.864-0.023-8.822-4.001-8.822-8.865c0-4.89,3.978-8.868,8.867-8.868c0.15,0,0.299,0.012,0.447,0.022l0.148,0.01l1.314,0.085
		l0.597-1.175c2.225-4.372,6.644-7.089,11.532-7.089c6.062,0,11.382,4.298,12.649,10.219l0.318,1.483l1.514,0.094
		c3.708,0.23,6.612,3.319,6.612,7.03c0,3.878-3.144,7.035-7.017,7.057c-0.042-0.003-0.079-0.005-0.117-0.005l-2.047,0.005h-0.819v2
		h2.819v-0.006c0.042,0.001,0.082,0.006,0.124,0.006c5.001,0,9.057-4.054,9.057-9.057
		C-152.487,23.301-156.241,19.379-160.976,19.084z M-188.896,15.467c-0.241-0.016-0.48-0.036-0.725-0.036
		c-2.766,0-5.281,1.042-7.2,2.743c-1.092-1.367-1.753-3.09-1.753-4.971c0-4.41,3.589-7.999,8-7.999c3.092,0,5.76,1.773,7.092,4.345
		C-185.78,10.988-187.659,13.037-188.896,15.467z"/>
</g>
<g>
	<polygon points="-77.09,41.68 -77.09,43.62 -77.09,49.68 -75.09,49.68 -75.09,43.62 -75.09,41.68 -75.09,29.68 -77.09,29.68 	"/>
	<polygon points="-69.09,37.68 -69.09,39.433 -69.09,45.68 -67.09,45.68 -67.09,39.433 -67.09,37.68 -67.09,25.68 -69.09,25.68 	"/>
	<polygon points="-85.09,37.68 -85.09,39.745 -85.09,45.68 -83.09,45.68 -83.09,39.745 -83.09,37.68 -83.09,25.68 -85.09,25.68 	"/>
	<path d="M-60.578,16.567c-1.444-6.742-7.433-11.8-14.605-11.8c-1.799,0-3.521,0.32-5.118,0.904
		c-0.949-5.108-5.404-8.98-10.788-8.98c-0.413,0-0.819,0.027-1.222,0.071c0.744,1.112,1.179,2.448,1.179,3.886c0,3.865-3.134,7-7,7
		c-1.438,0-2.773-0.435-3.886-1.179c-0.044,0.401-0.071,0.809-0.071,1.222c0,3.712,1.845,6.987,4.661,8.979
		c-1.653,1.907-2.661,4.389-2.661,7.111c0,5.983,4.836,10.836,10.813,10.865v0.003h1.188v-2h-0.721l-0.457-0.003
		c-4.864-0.023-8.822-4.001-8.822-8.865c0-4.89,3.978-8.868,8.867-8.868c0.15,0,0.299,0.012,0.447,0.022l0.148,0.01l1.314,0.085
		l0.597-1.175c2.225-4.372,6.644-7.089,11.532-7.089c6.062,0,11.382,4.298,12.649,10.219l0.318,1.483l1.514,0.094
		c3.708,0.23,6.612,3.319,6.612,7.03c0,3.878-3.144,7.035-7.017,7.057c-0.042-0.003-0.079-0.005-0.117-0.005l-2.047,0.005h-0.819v2
		h2.819v-0.006c0.042,0.001,0.082,0.006,0.124,0.006c5.001,0,9.057-4.054,9.057-9.057C-52.09,20.784-55.844,16.862-60.578,16.567z
		 M-88.498,12.95c-0.241-0.016-0.48-0.036-0.725-0.036c-2.537,0-4.865,0.876-6.715,2.334c-2.012-1.294-3.486-3.354-3.976-5.776
		c0.582,0.117,1.178,0.177,1.78,0.177c4.963,0,9-4.037,9-9c0-0.603-0.06-1.198-0.177-1.78c3.733,0.753,6.629,3.824,7.134,7.641
		C-84.889,7.952-87.104,10.208-88.498,12.95z"/>
</g>
<g>
	<polygon points="139.945,42.624 133.063,32.794 131.425,33.941 138.308,43.771 139.42,45.36 142.896,50.324 144.534,49.178 
		141.059,44.213 	"/>
	<polygon points="147.947,42.622 141.063,32.794 139.425,33.942 146.311,43.771 147.315,45.206 150.899,50.321 152.538,49.175 
		148.954,44.059 	"/>
	<polygon points="131.945,42.624 125.063,32.794 123.425,33.942 130.308,43.771 131.492,45.464 134.896,50.325 136.534,49.178 
		133.131,44.316 	"/>
	<rect x="119.425" y="-4.925" width="2" height="7.973"/>
	<rect x="100.425" y="13.989" width="7.973" height="2"/>
	<rect x="105.098" y="2.723" transform="matrix(0.7071 0.7071 -0.7071 0.7071 34.5826 -76.0444)" width="7.974" height="2"/>
	<rect x="130.607" y="-0.259" transform="matrix(0.7071 0.7071 -0.7071 0.7071 41.1817 -91.9683)" width="2" height="7.972"/>
	<path d="M149.937,20.865c-1.444-6.742-7.433-11.8-14.605-11.8c-2.185,0-4.258,0.47-6.126,1.313
		c-1.667-3.202-5.007-5.394-8.866-5.394c-5.522,0-10,4.477-10,9.999c0,2.46,0.899,4.702,2.373,6.442
		c-1.429,1.84-2.287,4.144-2.287,6.653c0,5.983,4.836,10.836,10.813,10.865v0.003h1.188v-2h-0.721l-0.457-0.003
		c-4.864-0.023-8.822-4.001-8.822-8.865c0-4.89,3.978-8.868,8.867-8.868c0.15,0,0.299,0.012,0.447,0.022l0.148,0.01l1.314,0.085
		l0.597-1.175c2.225-4.372,6.644-7.089,11.532-7.089c6.062,0,11.382,4.298,12.649,10.219l0.318,1.483l1.514,0.094
		c3.708,0.23,6.612,3.319,6.612,7.03c0,3.878-3.144,7.035-7.017,7.057c-0.042-0.003-0.079-0.005-0.117-0.005l-0.047,0.005h-0.819v2
		h0.819v-0.006c0.042,0.001,0.082,0.006,0.124,0.006c5.001,0,9.057-4.054,9.057-9.057C158.425,25.082,154.671,21.16,149.937,20.865z
		 M122.017,17.248c-0.241-0.016-0.48-0.036-0.725-0.036c-2.766,0-5.282,1.042-7.2,2.743c-1.092-1.367-1.753-3.09-1.753-4.971
		c0-4.41,3.589-7.999,8-7.999c3.091,0,5.76,1.773,7.091,4.345C125.132,12.77,123.252,14.818,122.017,17.248z"/>
</g>
<g>
	<polygon points="-583.485,139.109 -590.368,129.279 -592.006,130.427 -585.123,140.257 -584.011,141.846 -580.535,146.81 
		-578.896,145.663 -582.372,140.698 	"/>
	<polygon points="-575.483,139.107 -582.368,129.279 -584.006,130.428 -577.12,140.256 -576.115,141.691 -572.531,146.807 
		-570.893,145.66 -574.477,140.544 	"/>
	<polygon points="-591.485,139.109 -598.368,129.279 -600.006,130.428 -593.123,140.257 -591.938,141.949 -588.534,146.811 
		-586.896,145.663 -590.3,140.802 	"/>
	<path d="M-573.494,117.351c-1.444-6.742-7.433-11.8-14.605-11.8c-1.799,0-3.522,0.32-5.118,0.904
		c-0.949-5.108-5.404-8.98-10.788-8.98c-0.413,0-0.819,0.027-1.222,0.071c0.744,1.112,1.179,2.448,1.179,3.886c0,3.865-3.134,7-7,7
		c-1.438,0-2.773-0.435-3.886-1.179c-0.044,0.401-0.071,0.809-0.071,1.222c0,3.712,1.845,6.987,4.661,8.979
		c-1.653,1.907-2.661,4.389-2.661,7.111c0,5.983,4.836,10.836,10.813,10.865v0.003h1.188v-2h-0.721l-0.457-0.003
		c-4.864-0.023-8.822-4.001-8.822-8.865c0-4.89,3.978-8.868,8.867-8.868c0.15,0,0.299,0.012,0.447,0.022l0.148,0.01l1.314,0.085
		l0.597-1.175c2.225-4.372,6.644-7.089,11.532-7.089c6.062,0,11.382,4.298,12.649,10.219l0.318,1.483l1.514,0.094
		c3.708,0.23,6.612,3.319,6.612,7.03c0,3.878-3.144,7.035-7.017,7.057c-0.042-0.003-0.079-0.005-0.117-0.005l-0.047,0.005h-0.819v2
		h0.819v-0.006c0.042,0.001,0.082,0.006,0.124,0.006c5.001,0,9.057-4.054,9.057-9.057
		C-565.006,121.567-568.76,117.646-573.494,117.351z M-601.414,113.733c-0.241-0.016-0.48-0.036-0.725-0.036
		c-2.537,0-4.865,0.876-6.715,2.334c-2.012-1.294-3.487-3.354-3.976-5.776c0.582,0.117,1.178,0.177,1.78,0.177c4.963,0,9-4.037,9-9
		c0-0.603-0.06-1.198-0.177-1.78c3.733,0.753,6.629,3.824,7.133,7.641C-597.804,108.735-600.019,110.991-601.414,113.733z"/>
</g>
<g>
	<rect x="-591.006" y="35.263" width="2" height="4"/>
	<rect x="-583.006" y="31.241" width="2" height="4.021"/>
	<rect x="-599.006" y="31.241" width="2" height="4.021"/>
	<path d="M-572.378,15.274c-1.596-7.445-8.207-13.029-16.127-13.029c-6.423,0-11.977,3.678-14.702,9.035
		c-0.266-0.018-0.53-0.04-0.8-0.04c-6.627,0-11.999,5.372-11.999,12c0,6.607,5.34,11.965,11.938,11.998v0.003h2.062v-2h-1.604
		l-0.447-0.003c-5.485-0.027-9.948-4.513-9.948-9.998c0-5.514,4.485-10,9.999-10c0.175,0,0.347,0.014,0.52,0.025l0.148,0.01
		l1.316,0.088l0.598-1.176c2.492-4.899,7.443-7.942,12.92-7.942c6.79,0,12.75,4.814,14.172,11.448l0.317,1.482l1.514,0.095
		c4.203,0.262,7.496,3.763,7.496,7.971c0,4.397-3.565,7.977-7.957,8c-0.05-0.003-0.093-0.005-0.137-0.007l-2.043,0.007h-2.863v2
		h4.863v-0.007c0.046,0.001,0.091,0.007,0.137,0.007c5.521,0,10-4.477,10-10C-563.006,19.931-567.15,15.6-572.378,15.274z"/>
	<circle cx="-582.006" cy="40.283" r="1.5"/>
	<circle cx="-590.006" cy="44.252" r="1.5"/>
	<circle cx="-598.006" cy="40.241" r="1.5"/>
</g>
<g>
	<rect x="-498.085" y="-4.191" width="2" height="7.973"/>
	<rect x="-517.085" y="14.723" width="7.973" height="2"/>
	<rect x="-512.412" y="3.456" transform="matrix(0.7071 0.7071 -0.7071 0.7071 -145.7633 360.8158)" width="7.974" height="2"/>
	<rect x="-486.903" y="0.474" transform="matrix(0.7071 0.7071 -0.7071 0.7071 -139.1641 344.8918)" width="2" height="7.972"/>
	<path d="M-467.573,21.599c-1.444-6.742-7.433-11.8-14.605-11.8c-2.185,0-4.258,0.47-6.126,1.313
		c-1.667-3.202-5.007-5.394-8.866-5.394c-5.522,0-10,4.477-10,9.999c0,2.46,0.899,4.702,2.373,6.442
		c-1.429,1.84-2.287,4.144-2.287,6.653c0,5.983,4.836,10.836,10.813,10.865v0.003h1.188v-2h-0.721l-0.457-0.003
		c-4.864-0.023-8.822-4.001-8.822-8.865c0-4.89,3.978-8.868,8.867-8.868c0.15,0,0.299,0.012,0.447,0.022l0.148,0.01l1.314,0.085
		l0.597-1.175c2.225-4.372,6.644-7.089,11.532-7.089c6.062,0,11.382,4.298,12.649,10.219l0.318,1.483l1.514,0.094
		c3.708,0.23,6.612,3.319,6.612,7.03c0,3.878-3.144,7.035-7.017,7.057c-0.042-0.003-0.079-0.005-0.117-0.005l-2.047,0.005h-0.819v2
		h2.819v-0.006c0.042,0.001,0.082,0.006,0.124,0.006c5.001,0,9.057-4.054,9.057-9.057
		C-459.085,25.815-462.839,21.894-467.573,21.599z M-495.493,17.981c-0.241-0.016-0.48-0.036-0.725-0.036
		c-2.766,0-5.282,1.042-7.2,2.743c-1.092-1.367-1.753-3.09-1.753-4.971c0-4.41,3.589-7.999,8-7.999c3.091,0,5.76,1.773,7.091,4.345
		C-492.378,13.503-494.258,15.552-495.493,17.981z"/>
	<rect x="-484.085" y="39.697" width="2" height="4"/>
	<rect x="-476.085" y="35.676" width="2" height="4.021"/>
	<rect x="-492.085" y="35.676" width="2" height="4.021"/>
	<circle cx="-475.085" cy="44.718" r="1.5"/>
	<circle cx="-483.085" cy="48.687" r="1.5"/>
	<circle cx="-491.085" cy="44.676" r="1.5"/>
</g>
<g>
	<path d="M-366.647,20.642c-1.444-6.742-7.433-11.8-14.605-11.8c-1.799,0-3.522,0.32-5.118,0.904
		c-0.949-5.108-5.404-8.98-10.788-8.98c-0.413,0-0.819,0.027-1.222,0.071c0.744,1.112,1.179,2.448,1.179,3.886c0,3.865-3.134,7-7,7
		c-1.438,0-2.773-0.435-3.886-1.179c-0.044,0.401-0.071,0.809-0.071,1.222c0,3.712,1.845,6.987,4.661,8.979
		c-1.653,1.907-2.661,4.389-2.661,7.111c0,5.983,4.836,10.836,10.813,10.865v0.003h1.188v-2h-0.721l-0.457-0.003
		c-4.864-0.023-8.822-4.001-8.822-8.865c0-4.89,3.978-8.868,8.867-8.868c0.15,0,0.299,0.012,0.447,0.022l0.148,0.01l1.314,0.085
		l0.597-1.175c2.225-4.372,6.644-7.089,11.532-7.089c6.062,0,11.382,4.298,12.649,10.219l0.318,1.483l1.514,0.094
		c3.708,0.23,6.612,3.319,6.612,7.03c0,3.878-3.144,7.035-7.017,7.057c-0.042-0.003-0.079-0.005-0.117-0.005l-2.047,0.005h-0.819v2
		h2.819v-0.006c0.042,0.001,0.082,0.006,0.124,0.006c5.001,0,9.057-4.054,9.057-9.057
		C-358.159,24.858-361.913,20.937-366.647,20.642z M-394.567,17.024c-0.241-0.016-0.48-0.036-0.725-0.036
		c-2.537,0-4.865,0.876-6.715,2.334c-2.012-1.294-3.487-3.354-3.976-5.776c0.582,0.117,1.178,0.177,1.78,0.177c4.963,0,9-4.037,9-9
		c0-0.603-0.06-1.198-0.177-1.78c3.733,0.753,6.629,3.824,7.133,7.641C-390.957,12.026-393.172,14.282-394.567,17.024z"/>
	<rect x="-383.159" y="38.74" width="2" height="4"/>
	<rect x="-375.159" y="34.719" width="2" height="4.021"/>
	<rect x="-391.159" y="34.719" width="2" height="4.021"/>
	<circle cx="-374.159" cy="43.761" r="1.5"/>
	<circle cx="-382.159" cy="47.729" r="1.5"/>
	<circle cx="-390.159" cy="43.719" r="1.5"/>
</g>
<g>
	<path d="M-469.957,113.672c-1.596-7.445-8.207-13.029-16.127-13.029c-6.423,0-11.977,3.678-14.702,9.035
		c-0.266-0.018-0.53-0.04-0.8-0.04c-6.627,0-11.999,5.372-11.999,12c0,6.607,5.34,11.965,11.938,11.998v0.003h6.062v-2h-5.604
		l-0.447-0.003c-5.485-0.027-9.948-4.513-9.948-9.998c0-5.514,4.485-10,9.999-10c0.175,0,0.347,0.014,0.52,0.025l0.148,0.01
		l1.316,0.088l0.598-1.176c2.492-4.899,7.443-7.942,12.92-7.942c6.79,0,12.75,4.814,14.172,11.448l0.317,1.482l1.514,0.095
		c4.203,0.262,7.496,3.763,7.496,7.971c0,4.397-3.565,7.977-7.957,8c-0.05-0.003-0.093-0.005-0.137-0.007l-5.043,0.007h0.137v2
		h4.863v-0.007c0.046,0.001,0.091,0.007,0.137,0.007c5.521,0,10-4.477,10-10C-460.585,118.328-464.729,113.997-469.957,113.672z"/>
	<polygon points="-485.743,133.643 -483.974,133.643 -483.543,133.643 -481.533,133.643 -487.947,124.481 -489.585,125.629 
		-485.374,131.643 -487.145,131.643 -489.585,131.643 -488.313,133.459 -487.201,135.048 -481.224,143.643 -479.585,142.496 
		-485.563,133.9 	"/>
</g>
<g>
	<rect x="-394.159" y="94.542" width="2" height="7.973"/>
	<rect x="-413.159" y="113.456" width="7.973" height="2"/>
	<rect x="-408.486" y="102.19" transform="matrix(0.7071 0.7071 -0.7071 0.7071 -45.5091 316.2475)" width="7.974" height="2"/>
	<rect x="-382.977" y="99.208" transform="matrix(0.7071 0.7071 -0.7071 0.7071 -38.9099 300.3235)" width="2" height="7.972"/>
	<path d="M-363.647,120.332c-1.444-6.742-7.433-11.8-14.605-11.8c-2.185,0-4.258,0.47-6.127,1.313
		c-1.666-3.202-5.006-5.394-8.865-5.394c-5.522,0-10,4.477-10,9.999c0,2.46,0.898,4.702,2.373,6.442
		c-1.428,1.84-2.287,4.144-2.287,6.653c0,5.983,4.836,10.836,10.813,10.865v0.003h4.188v-2h-3.721l-0.457-0.003
		c-4.864-0.023-8.822-4.001-8.822-8.865c0-4.89,3.978-8.868,8.867-8.868c0.15,0,0.299,0.012,0.447,0.022l0.148,0.01l1.314,0.085
		l0.597-1.175c2.225-4.372,6.644-7.089,11.532-7.089c6.062,0,11.382,4.298,12.649,10.219l0.318,1.483l1.514,0.094
		c3.708,0.23,6.612,3.319,6.612,7.03c0,3.878-3.144,7.035-7.017,7.057c-0.042-0.003-0.079-0.005-0.117-0.005l-2.047,0.005h-3.819v2
		h5.819v-0.006c0.042,0.001,0.082,0.006,0.124,0.006c5.001,0,9.057-4.054,9.057-9.057
		C-355.159,124.549-358.913,120.627-363.647,120.332z M-391.567,116.715c-0.241-0.016-0.48-0.036-0.725-0.036
		c-2.766,0-5.281,1.041-7.2,2.743c-1.092-1.366-1.753-3.09-1.753-4.971c0-4.41,3.589-7.999,8-7.999c3.092,0,5.76,1.773,7.092,4.345
		C-388.452,112.237-390.331,114.285-391.567,116.715z"/>
	<polygon points="-379.317,138.422 -377.548,138.422 -377.117,138.422 -375.107,138.422 -381.521,129.261 -383.159,130.408 
		-378.948,136.422 -380.719,136.422 -383.159,136.422 -381.888,138.238 -380.775,139.827 -374.798,148.422 -373.159,147.275 
		-379.137,138.68 	"/>
</g>
<g>
	<path d="M-264.063,118.036c-1.444-6.742-7.433-11.8-14.605-11.8c-1.799,0-3.521,0.32-5.118,0.904
		c-0.949-5.108-5.404-8.98-10.788-8.98c-0.413,0-0.819,0.027-1.222,0.071c0.744,1.112,1.179,2.448,1.179,3.886c0,3.865-3.134,7-7,7
		c-1.438,0-2.773-0.435-3.886-1.179c-0.044,0.401-0.071,0.809-0.071,1.222c0,3.712,1.845,6.987,4.661,8.979
		c-1.653,1.907-2.661,4.389-2.661,7.111c0,5.983,4.836,10.836,10.813,10.865v0.003h4.188v-2h-3.721l-0.457-0.003
		c-4.864-0.023-8.822-4.001-8.822-8.865c0-4.89,3.978-8.868,8.867-8.868c0.15,0,0.299,0.012,0.447,0.022l0.148,0.01l1.314,0.085
		l0.597-1.175c2.225-4.372,6.644-7.089,11.532-7.089c6.062,0,11.382,4.298,12.649,10.219l0.318,1.483l1.514,0.094
		c3.708,0.23,6.612,3.319,6.612,7.03c0,3.878-3.144,7.035-7.017,7.057c-0.042-0.003-0.079-0.005-0.117-0.005l-2.047,0.005h-3.819v2
		h5.819v-0.006c0.042,0.001,0.082,0.006,0.124,0.006c5.001,0,9.057-4.054,9.057-9.057
		C-255.574,122.253-259.328,118.331-264.063,118.036z M-291.982,114.419c-0.241-0.016-0.48-0.036-0.725-0.036
		c-2.537,0-4.865,0.876-6.715,2.334c-2.012-1.294-3.486-3.354-3.976-5.776c0.582,0.117,1.178,0.177,1.78,0.177c4.963,0,9-4.037,9-9
		c0-0.603-0.06-1.198-0.177-1.78c3.733,0.753,6.629,3.824,7.134,7.64C-288.373,109.421-290.588,111.676-291.982,114.419z"/>
	<polygon points="-279.732,136.126 -277.963,136.126 -277.532,136.126 -275.522,136.126 -281.937,126.965 -283.574,128.112 
		-279.363,134.126 -281.134,134.126 -283.574,134.126 -282.303,135.942 -281.19,137.531 -275.213,146.126 -273.574,144.979 
		-279.552,136.384 	"/>
</g>
<g>
	<path d="M-163.178,114.172c-1.596-7.445-8.207-13.029-16.127-13.029c-6.423,0-11.977,3.678-14.702,9.035
		c-0.266-0.018-0.53-0.04-0.8-0.04c-6.627,0-11.999,5.372-11.999,12c0,6.607,5.34,11.965,11.938,11.998v0.003h1.062v-2h-0.604
		l-0.447-0.003c-5.485-0.027-9.948-4.513-9.948-9.998c0-5.514,4.485-10,9.999-10c0.175,0,0.347,0.014,0.52,0.025l0.148,0.01
		l1.316,0.088l0.598-1.176c2.492-4.899,7.443-7.942,12.92-7.942c6.79,0,12.75,4.814,14.172,11.448l0.317,1.482l1.514,0.095
		c4.203,0.262,7.496,3.763,7.496,7.971c0,4.397-3.565,7.977-7.957,8c-0.05-0.003-0.093-0.005-0.137-0.007l-0.906,0.007v2h0.863
		v-0.007c0.046,0.001,0.091,0.007,0.137,0.007c5.521,0,10-4.477,10-10C-153.806,118.828-157.95,114.497-163.178,114.172z"/>
	
		<rect x="-194.371" y="132.137" transform="matrix(-0.5736 -0.8191 0.8191 -0.5736 -406.1241 54.8771)" width="11.183" height="1.999"/>
	
		<rect x="-176.397" y="132.137" transform="matrix(-0.5736 -0.8191 0.8191 -0.5736 -377.8386 69.6002)" width="11.183" height="1.999"/>
	<polygon points="-177.964,137.143 -176.194,137.143 -175.764,137.143 -173.754,137.143 -180.168,127.981 -181.806,129.129 
		-177.595,135.143 -179.365,135.143 -181.806,135.143 -180.534,136.959 -179.422,138.548 -174.806,145.143 -173.167,143.996 
		-177.783,137.4 	"/>
</g>
<g>
	<rect x="-88.33" y="94.705" width="2" height="7.973"/>
	<rect x="-107.33" y="113.619" width="7.973" height="2"/>
	<rect x="-102.657" y="102.353" transform="matrix(0.7071 0.7071 -0.7071 0.7071 44.1815 100.0414)" width="7.974" height="2"/>
	<rect x="-77.148" y="99.371" transform="matrix(0.7071 0.7071 -0.7071 0.7071 50.7807 84.1175)" width="2" height="7.972"/>
	<path d="M-57.818,120.495c-1.444-6.742-7.433-11.8-14.605-11.8c-2.185,0-4.258,0.47-6.126,1.313
		c-1.667-3.202-5.007-5.394-8.866-5.394c-5.522,0-10,4.477-10,9.999c0,2.46,0.899,4.702,2.373,6.442
		c-1.429,1.84-2.287,4.144-2.287,6.653c0,5.983,4.836,10.836,10.813,10.865v0.003h0.188v-2l-0.178-0.003
		c-4.864-0.023-8.822-4.001-8.822-8.865c0-4.89,3.978-8.868,8.867-8.868c0.15,0,0.299,0.012,0.447,0.022l0.148,0.01l1.314,0.085
		l0.597-1.175c2.225-4.372,6.644-7.089,11.532-7.089c6.062,0,11.382,4.298,12.649,10.219l0.318,1.483l1.514,0.094
		c3.708,0.23,6.612,3.319,6.612,7.03c0,3.878-3.144,7.035-7.017,7.057c-0.042-0.003-0.079-0.005-0.117-0.005l-0.866,0.005v2h0.819
		v-0.006c0.042,0.001,0.082,0.006,0.124,0.006c5.001,0,9.057-4.054,9.057-9.057C-49.33,124.712-53.084,120.79-57.818,120.495z
		 M-85.738,116.878c-0.241-0.016-0.48-0.036-0.725-0.036c-2.766,0-5.282,1.042-7.2,2.743c-1.092-1.367-1.753-3.09-1.753-4.971
		c0-4.41,3.589-7.999,8-7.999c3.091,0,5.76,1.773,7.091,4.345C-82.623,112.399-84.503,114.448-85.738,116.878z"/>
	
		<rect x="-87.908" y="136.575" transform="matrix(-0.5736 -0.8191 0.8191 -0.5736 -242.2257 149.0663)" width="11.183" height="1.999"/>
	
		<rect x="-69.934" y="136.575" transform="matrix(-0.5736 -0.8191 0.8191 -0.5736 -213.9401 163.7895)" width="11.183" height="1.999"/>
	<polygon points="-71.501,141.581 -69.731,141.581 -69.301,141.581 -67.291,141.581 -73.705,132.42 -75.343,133.567 
		-71.132,139.581 -72.902,139.581 -75.343,139.581 -74.071,141.397 -72.959,142.986 -68.343,149.581 -66.704,148.435 
		-71.32,141.839 	"/>
</g>
<g>
	<path d="M44.02,117.537c-1.444-6.742-7.433-11.8-14.605-11.8c-1.799,0-3.522,0.32-5.118,0.904c-0.949-5.108-5.404-8.98-10.788-8.98
		c-0.413,0-0.819,0.027-1.222,0.071c0.744,1.112,1.179,2.448,1.179,3.886c0,3.865-3.134,7-7,7c-1.438,0-2.773-0.435-3.886-1.179
		c-0.044,0.401-0.071,0.809-0.071,1.222c0,3.712,1.845,6.987,4.661,8.979c-1.653,1.907-2.661,4.389-2.661,7.111
		c0,5.983,4.836,10.836,10.813,10.865v0.003h0.188v-2l-0.178-0.003c-4.864-0.023-8.822-4.001-8.822-8.865
		c0-4.89,3.978-8.868,8.867-8.868c0.15,0,0.299,0.012,0.447,0.022l0.148,0.01l1.314,0.085l0.597-1.175
		c2.225-4.372,6.644-7.089,11.532-7.089c6.062,0,11.382,4.298,12.649,10.219l0.318,1.483l1.514,0.094
		c3.708,0.23,6.612,3.319,6.612,7.03c0,3.878-3.144,7.035-7.017,7.057c-0.042-0.003-0.079-0.005-0.117-0.005l-0.866,0.005v2h0.819
		v-0.006c0.042,0.001,0.082,0.006,0.124,0.006c5.001,0,9.057-4.054,9.057-9.057C52.508,121.754,48.754,117.832,44.02,117.537z
		 M16.1,113.92c-0.241-0.016-0.48-0.036-0.725-0.036c-2.537,0-4.865,0.876-6.715,2.334c-2.012-1.294-3.487-3.354-3.976-5.776
		c0.582,0.117,1.178,0.177,1.78,0.177c4.963,0,9-4.037,9-9c0-0.603-0.06-1.198-0.177-1.78c3.733,0.753,6.629,3.824,7.133,7.641
		C19.71,108.922,17.495,111.178,16.1,113.92z"/>
	
		<rect x="13.928" y="133.617" transform="matrix(-0.5736 -0.8191 0.8191 -0.5736 -79.5483 227.827)" width="11.183" height="1.999"/>
	
		<rect x="31.903" y="133.617" transform="matrix(-0.5736 -0.8191 0.8191 -0.5736 -51.2627 242.5502)" width="11.183" height="1.999"/>
	<polygon points="30.336,138.623 32.105,138.623 32.536,138.623 34.546,138.623 28.132,129.462 26.494,130.609 30.705,136.623 
		28.935,136.623 26.494,136.623 27.766,138.439 28.878,140.028 33.494,146.623 35.133,145.477 30.517,138.881 	"/>
</g>
<g>
	<g>
		<path d="M-366.543,203.992c-1.596-7.445-8.207-13.029-16.127-13.029c-6.423,0-11.977,3.678-14.702,9.035
			c-0.266-0.018-0.53-0.04-0.8-0.04c-6.627,0-11.999,5.372-11.999,12c0,6.607,5.34,11.965,11.938,11.998v0.003h2.062v-2h-1.604
			l-0.447-0.003c-5.485-0.027-9.948-4.513-9.948-9.998c0-5.514,4.485-10,9.999-10c0.175,0,0.347,0.014,0.52,0.025l0.148,0.01
			l1.316,0.088l0.598-1.176c2.492-4.899,7.443-7.942,12.92-7.942c6.79,0,12.75,4.814,14.172,11.448l0.317,1.482l1.514,0.095
			c4.203,0.262,7.496,3.763,7.496,7.971c0,4.397-3.565,7.977-7.957,8c-0.05-0.003-0.093-0.005-0.137-0.007l-2.043,0.007h-2.863v2
			h4.863v-0.007c0.046,0.001,0.091,0.007,0.137,0.007c5.521,0,10-4.477,10-10C-357.171,208.648-361.315,204.317-366.543,203.992z"/>
	</g>
	<g>
		<circle cx="-391.671" cy="217.535" r="1.5"/>
	</g>
	<g>
		<circle cx="-387.671" cy="223.459" r="1.5"/>
	</g>
	<g>
		<circle cx="-379.671" cy="223.459" r="1.5"/>
	</g>
	<g>
		<circle cx="-383.671" cy="217.535" r="1.5"/>
	</g>
	<g>
		<circle cx="-375.671" cy="217.535" r="1.5"/>
	</g>
	<g>
		<circle cx="-391.671" cy="229.48" r="1.5"/>
	</g>
	<g>
		<circle cx="-383.671" cy="229.48" r="1.5"/>
	</g>
	<g>
		<circle cx="-375.671" cy="229.48" r="1.5"/>
	</g>
</g>
<g>
	<g>
		<rect x="-290.757" y="188.515" width="2" height="7.973"/>
	</g>
	<g>
		<rect x="-309.757" y="207.429" width="7.973" height="2"/>
	</g>
	<g>
		<rect x="-305.084" y="196.162" transform="matrix(0.7071 0.7071 -0.7071 0.7071 51.2255 270.655)" width="7.974" height="2"/>
	</g>
	<g>
		<rect x="-279.575" y="193.18" transform="matrix(0.7071 0.7071 -0.7071 0.7071 57.8246 254.731)" width="2" height="7.972"/>
	</g>
	<g>
		<path d="M-260.245,214.305c-1.444-6.742-7.433-11.8-14.605-11.8c-2.185,0-4.258,0.47-6.127,1.313
			c-1.666-3.202-5.006-5.394-8.865-5.394c-5.522,0-10,4.477-10,9.999c0,2.46,0.898,4.702,2.373,6.442
			c-1.428,1.84-2.287,4.144-2.287,6.653c0,5.983,4.836,10.836,10.813,10.865v0.003h1.188v-2h-0.721l-0.457-0.003
			c-4.864-0.023-8.822-4.001-8.822-8.865c0-4.89,3.978-8.868,8.867-8.868c0.15,0,0.299,0.012,0.447,0.022l0.148,0.01l1.314,0.085
			l0.597-1.175c2.225-4.372,6.644-7.089,11.532-7.089c6.062,0,11.382,4.298,12.649,10.219l0.318,1.483l1.514,0.094
			c3.708,0.23,6.612,3.319,6.612,7.03c0,3.878-3.144,7.035-7.017,7.057c-0.042-0.003-0.079-0.005-0.117-0.005l-2.047,0.005h-1.819v2
			h3.819v-0.006c0.042,0.001,0.082,0.006,0.124,0.006c5.001,0,9.057-4.054,9.057-9.057
			C-251.757,218.521-255.511,214.6-260.245,214.305z M-288.165,210.688c-0.241-0.016-0.48-0.036-0.725-0.036
			c-2.766,0-5.281,1.042-7.2,2.743c-1.092-1.367-1.753-3.09-1.753-4.971c0-4.41,3.589-7.999,8-7.999c3.092,0,5.76,1.773,7.092,4.345
			C-285.05,206.209-286.929,208.258-288.165,210.688z"/>
	</g>
	<g>
		<circle cx="-284.268" cy="225.898" r="1.5"/>
	</g>
	<g>
		<circle cx="-280.268" cy="231.898" r="1.5"/>
	</g>
	<g>
		<circle cx="-272.268" cy="231.898" r="1.5"/>
	</g>
	<g>
		<circle cx="-276.268" cy="225.898" r="1.5"/>
	</g>
	<g>
		<circle cx="-268.268" cy="225.898" r="1.5"/>
	</g>
	<g>
		<circle cx="-284.268" cy="237.92" r="1.5"/>
	</g>
	<g>
		<circle cx="-276.268" cy="237.92" r="1.5"/>
	</g>
	<g>
		<circle cx="-268.268" cy="237.92" r="1.5"/>
	</g>
</g>
<g>
	<g>
		<path d="M-164.294,210.349c-1.444-6.742-7.433-11.8-14.605-11.8c-1.799,0-3.521,0.32-5.118,0.904
			c-0.949-5.108-5.404-8.98-10.788-8.98c-0.413,0-0.819,0.027-1.222,0.071c0.744,1.112,1.179,2.448,1.179,3.886c0,3.865-3.134,7-7,7
			c-1.438,0-2.773-0.435-3.886-1.179c-0.044,0.401-0.071,0.809-0.071,1.222c0,3.712,1.845,6.987,4.661,8.979
			c-1.653,1.907-2.661,4.389-2.661,7.111c0,5.983,4.836,10.836,10.813,10.865v0.003h1.188v-2h-0.721l-0.457-0.003
			c-4.864-0.023-8.822-4.001-8.822-8.865c0-4.89,3.978-8.868,8.867-8.868c0.15,0,0.299,0.012,0.447,0.022l0.148,0.01l1.314,0.085
			l0.597-1.175c2.225-4.372,6.644-7.089,11.532-7.089c6.062,0,11.382,4.298,12.649,10.219l0.318,1.483l1.514,0.094
			c3.708,0.23,6.612,3.319,6.612,7.03c0,3.878-3.144,7.035-7.017,7.057c-0.042-0.003-0.079-0.005-0.117-0.005l-2.047,0.005h-1.819v2
			h3.819v-0.006c0.042,0.001,0.082,0.006,0.124,0.006c5.001,0,9.057-4.054,9.057-9.057
			C-155.806,214.565-159.56,210.644-164.294,210.349z M-192.214,206.731c-0.241-0.016-0.48-0.036-0.725-0.036
			c-2.537,0-4.865,0.876-6.715,2.334c-2.012-1.294-3.486-3.354-3.976-5.776c0.582,0.117,1.178,0.177,1.78,0.177c4.963,0,9-4.037,9-9
			c0-0.603-0.06-1.198-0.177-1.78c3.733,0.753,6.629,3.824,7.134,7.64C-188.604,201.733-190.819,203.988-192.214,206.731z"/>
	</g>
	<g>
		<circle cx="-188.306" cy="221.941" r="1.5"/>
	</g>
	<g>
		<circle cx="-184.306" cy="227.941" r="1.5"/>
	</g>
	<g>
		<circle cx="-176.306" cy="227.941" r="1.5"/>
	</g>
	<g>
		<circle cx="-180.306" cy="221.941" r="1.5"/>
	</g>
	<g>
		<circle cx="-172.306" cy="221.941" r="1.5"/>
	</g>
	<g>
		<circle cx="-188.306" cy="233.963" r="1.5"/>
	</g>
	<g>
		<circle cx="-180.306" cy="233.963" r="1.5"/>
	</g>
	<g>
		<circle cx="-172.306" cy="233.963" r="1.5"/>
	</g>
</g>
<g>
	<path d="M146.871,111.463c-1.596-7.445-8.207-13.029-16.127-13.029c-6.423,0-11.977,3.678-14.702,9.035
		c-0.266-0.018-0.53-0.04-0.8-0.04c-6.627,0-11.999,5.372-11.999,12c0,6.607,5.34,11.965,11.938,11.998v0.003h2.062v-2h-1.604
		l-0.447-0.003c-5.485-0.027-9.948-4.513-9.948-9.998c0-5.514,4.485-10,9.999-10c0.175,0,0.347,0.014,0.52,0.025l0.148,0.01
		l1.316,0.088l0.598-1.176c2.492-4.899,7.443-7.942,12.92-7.942c6.79,0,12.75,4.814,14.172,11.448l0.317,1.482l1.514,0.095
		c4.203,0.262,7.496,3.763,7.496,7.971c0,4.397-3.565,7.977-7.957,8c-0.05-0.003-0.093-0.005-0.137-0.007l-2.043,0.007h-2.863v2
		h4.863v-0.007c0.046,0.001,0.091,0.007,0.137,0.007c5.521,0,10-4.477,10-10C156.243,116.119,152.099,111.788,146.871,111.463z"/>
	<circle cx="121.243" cy="138.934" r="1.5"/>
	<circle cx="129.243" cy="144.934" r="1.5"/>
	<circle cx="137.243" cy="140.934" r="1.5"/>
	<rect x="120.243" y="122.458" width="2" height="11.976"/>
	<polygon points="130.243,140.398 130.243,138.458 130.243,126.458 128.243,126.458 128.243,138.458 128.243,140.398 
		128.243,140.434 130.243,140.434 	"/>
	<polygon points="138.243,136.211 138.243,134.458 138.243,122.458 136.243,122.458 136.243,134.458 136.243,136.211 
		136.243,136.434 138.243,136.434 	"/>
</g>
<g>
	<rect x="-601.506" y="183.076" width="2" height="7.973"/>
	<rect x="-620.506" y="201.99" width="7.973" height="2"/>
	<rect x="-615.833" y="190.724" transform="matrix(0.7071 0.7071 -0.7071 0.7071 -43.6364 488.7948)" width="7.974" height="2"/>
	<rect x="-590.324" y="187.742" transform="matrix(0.7071 0.7071 -0.7071 0.7071 -37.0372 472.8708)" width="2" height="7.972"/>
	<path d="M-570.994,208.866c-1.444-6.742-7.433-11.8-14.605-11.8c-2.185,0-4.258,0.47-6.126,1.313
		c-1.667-3.202-5.007-5.394-8.866-5.394c-5.522,0-10,4.477-10,9.999c0,2.46,0.899,4.702,2.373,6.442
		c-1.429,1.84-2.287,4.144-2.287,6.653c0,5.983,4.836,10.836,10.813,10.865v0.003h1.188v-2h-0.721l-0.457-0.003
		c-4.864-0.023-8.822-4.001-8.822-8.865c0-4.89,3.978-8.868,8.867-8.868c0.15,0,0.299,0.012,0.447,0.022l0.148,0.01l1.314,0.085
		l0.597-1.175c2.225-4.372,6.644-7.089,11.532-7.089c6.062,0,11.382,4.298,12.649,10.219l0.318,1.483l1.514,0.094
		c3.708,0.23,6.612,3.319,6.612,7.03c0,3.878-3.144,7.035-7.017,7.057c-0.042-0.003-0.079-0.005-0.117-0.005l-2.047,0.005h-0.819v2
		h2.819v-0.006c0.042,0.001,0.082,0.006,0.124,0.006c5.001,0,9.057-4.054,9.057-9.057
		C-562.506,213.083-566.26,209.161-570.994,208.866z M-598.914,205.249c-0.241-0.016-0.48-0.036-0.725-0.036
		c-2.766,0-5.282,1.041-7.2,2.743c-1.092-1.366-1.753-3.09-1.753-4.971c0-4.41,3.589-7.999,8-7.999c3.091,0,5.76,1.773,7.091,4.345
		C-595.799,200.771-597.679,202.819-598.914,205.249z"/>
	<circle cx="-594.516" cy="235.437" r="1.5"/>
	<circle cx="-586.516" cy="241.437" r="1.5"/>
	<circle cx="-578.516" cy="237.437" r="1.5"/>
	<rect x="-595.516" y="218.961" width="2" height="11.976"/>
	<polygon points="-585.516,236.901 -585.516,234.961 -585.516,222.961 -587.516,222.961 -587.516,234.961 -587.516,236.901 
		-587.516,236.937 -585.516,236.937 	"/>
	<polygon points="-577.516,232.714 -577.516,230.961 -577.516,218.961 -579.516,218.961 -579.516,230.961 -579.516,232.714 
		-579.516,232.937 -577.516,232.937 	"/>
</g>
<g>
	<path d="M-470.392,205.868c-1.444-6.742-7.433-11.8-14.605-11.8c-1.799,0-3.522,0.32-5.118,0.904
		c-0.949-5.108-5.404-8.98-10.788-8.98c-0.413,0-0.819,0.027-1.222,0.071c0.744,1.112,1.179,2.448,1.179,3.886c0,3.865-3.134,7-7,7
		c-1.438,0-2.773-0.435-3.886-1.179c-0.044,0.401-0.071,0.809-0.071,1.222c0,3.712,1.845,6.987,4.661,8.979
		c-1.653,1.907-2.661,4.389-2.661,7.111c0,5.983,4.836,10.836,10.813,10.865v0.003h1.188v-2h-0.721l-0.457-0.003
		c-4.864-0.023-8.822-4.001-8.822-8.865c0-4.89,3.978-8.868,8.867-8.868c0.15,0,0.299,0.012,0.447,0.022l0.148,0.01l1.314,0.085
		l0.597-1.175c2.225-4.372,6.644-7.089,11.532-7.089c6.062,0,11.382,4.298,12.649,10.219l0.318,1.483l1.514,0.094
		c3.708,0.23,6.612,3.319,6.612,7.03c0,3.878-3.144,7.035-7.017,7.057c-0.042-0.003-0.079-0.005-0.117-0.005l-2.047,0.005h-0.819v2
		h2.819v-0.006c0.042,0.001,0.082,0.006,0.124,0.006c5.001,0,9.057-4.054,9.057-9.057
		C-461.903,210.085-465.657,206.163-470.392,205.868z M-498.312,202.251c-0.241-0.016-0.48-0.036-0.725-0.036
		c-2.537,0-4.865,0.876-6.715,2.334c-2.012-1.294-3.487-3.354-3.976-5.776c0.582,0.117,1.178,0.177,1.78,0.177c4.963,0,9-4.037,9-9
		c0-0.603-0.06-1.198-0.177-1.78c3.733,0.753,6.629,3.824,7.133,7.64C-494.701,197.253-496.916,199.508-498.312,202.251z"/>
	<circle cx="-493.903" cy="232.442" r="1.5"/>
	<circle cx="-485.903" cy="238.442" r="1.5"/>
	<circle cx="-477.903" cy="234.442" r="1.5"/>
	<rect x="-494.903" y="215.967" width="2" height="11.976"/>
	<polygon points="-484.903,233.907 -484.903,231.967 -484.903,219.967 -486.903,219.967 -486.903,231.967 -486.903,233.907 
		-486.903,233.942 -484.903,233.942 	"/>
	<polygon points="-476.903,229.72 -476.903,227.967 -476.903,215.967 -478.903,215.967 -478.903,227.967 -478.903,229.72 
		-478.903,229.942 -476.903,229.942 	"/>
</g>
<g>
	<rect x="-618.506" y="310.309" width="56" height="2"/>
	<rect x="-614.506" y="316.309" width="50" height="2"/>
	<rect x="-608.506" y="322.309" width="36" height="2"/>
	<rect x="-616.506" y="304.309" width="52" height="2"/>
	<path d="M-604.632,296.304c0.175,0,0.347,0.014,0.519,0.025l0.149,0.01l1.316,0.088l0.598-1.176
		c2.493-4.899,7.443-7.942,12.92-7.942c6.79,0,12.75,4.814,14.171,11.448l0.318,1.482l1.514,0.095
		c1.207,0.075,2.335,0.425,3.336,0.975h3.286c-1.678-1.703-3.957-2.813-6.498-2.971c-1.596-7.445-8.207-13.029-16.127-13.029
		c-6.423,0-11.977,3.678-14.702,9.035c-0.266-0.018-0.53-0.04-0.8-0.04c-4.843,0-9.004,2.874-10.9,7.005h2.251
		C-611.55,298.322-608.325,296.304-604.632,296.304z"/>
</g>
<g>
	<rect x="-497.403" y="282.794" width="2" height="7.973"/>
	<rect x="-516.403" y="301.708" width="7.973" height="2"/>
	<rect x="-511.73" y="290.442" transform="matrix(0.7071 0.7071 -0.7071 0.7071 57.3657 444.3898)" width="7.974" height="2"/>
	<rect x="-486.222" y="287.46" transform="matrix(0.7071 0.7071 -0.7071 0.7071 63.9648 428.4659)" width="2" height="7.972"/>
	<rect x="-507.403" y="316.668" width="50" height="2"/>
	<rect x="-503.403" y="322.668" width="44" height="2"/>
	<rect x="-497.403" y="327.668" width="30" height="2"/>
	<rect x="-505.403" y="310.668" width="46" height="2"/>
	<path d="M-504.495,308.668h0.771h1.927h1.012c1.472-1.087,3.283-1.737,5.249-1.737c0.15,0,0.299,0.012,0.447,0.022l0.148,0.01
		l1.314,0.085l0.597-1.175c2.225-4.372,6.644-7.089,11.532-7.089c5.945,0,11.168,4.139,12.563,9.884h2.043v-0.084
		c-1.444-6.742-7.433-11.8-14.605-11.8c-2.185,0-4.258,0.47-6.126,1.313c-1.667-3.202-5.007-5.394-8.866-5.394
		c-5.522,0-10,4.477-10,9.999C-506.489,304.944-505.741,307.003-504.495,308.668z M-496.489,294.704c3.091,0,5.76,1.773,7.091,4.345
		c-2.298,1.44-4.178,3.488-5.413,5.918c-0.241-0.016-0.48-0.036-0.725-0.036c-2.764,0-5.274,1.045-7.189,2.745
		c-1.097-1.366-1.764-3.089-1.764-4.973C-504.489,298.293-500.9,294.704-496.489,294.704z"/>
</g>
<g>
	<rect x="-408.659" y="313.23" width="50" height="2"/>
	<rect x="-404.659" y="319.23" width="44" height="2"/>
	<rect x="-398.659" y="324.23" width="30" height="2"/>
	<rect x="-406.659" y="307.23" width="46" height="2"/>
	<path d="M-405.017,305.23h0.037h1.884h1.055c1.472-1.087,3.283-1.737,5.249-1.737c0.15,0,0.299,0.012,0.447,0.022l0.148,0.01
		l1.314,0.085l0.597-1.175c2.225-4.372,6.644-7.089,11.532-7.089c5.945,0,11.168,4.139,12.563,9.884h2.043v-0.084
		c-1.444-6.742-7.433-11.8-14.605-11.8c-1.799,0-3.521,0.32-5.117,0.903c-0.945-5.111-5.402-8.987-10.789-8.987
		c-0.413,0-0.819,0.027-1.222,0.071c0.744,1.112,1.179,2.448,1.179,3.886c0,3.865-3.134,7-7,7c-1.438,0-2.773-0.435-3.886-1.179
		c-0.044,0.401-0.071,0.809-0.071,1.222C-409.659,299.967-407.823,303.237-405.017,305.23z M-405.702,298.22c4.963,0,9-4.037,9-9
		c0-0.603-0.06-1.198-0.177-1.78c3.735,0.753,6.633,3.828,7.134,7.647c-2.712,1.443-4.927,3.699-6.322,6.442
		c-0.241-0.016-0.48-0.036-0.725-0.036c-2.534,0-4.855,0.879-6.701,2.335c-2.02-1.293-3.5-3.356-3.989-5.785
		C-406.9,298.16-406.305,298.22-405.702,298.22z"/>
</g>
<g>
	<path d="M-276.768,316.244h-19.474l-0.578-0.003c-5.485-0.027-9.948-4.513-9.948-9.998c0-5.514,4.485-10,9.999-10
		c0.175,0,0.347,0.014,0.519,0.025l0.149,0.01l1.316,0.088l0.598-1.176c2.493-4.899,7.443-7.942,12.92-7.942
		c6.79,0,12.75,4.814,14.171,11.448l0.318,1.482l1.514,0.095c1.822,0.113,3.463,0.845,4.746,1.971h2.732
		c-1.707-2.262-4.348-3.78-7.354-3.967c-1.596-7.445-8.207-13.029-16.127-13.029c-6.423,0-11.977,3.678-14.702,9.035
		c-0.266-0.018-0.53-0.04-0.8-0.04c-6.627,0-11.999,5.372-11.999,12c0,6.607,5.34,11.965,11.938,11.998v0.003h20.062
		c2.205,0,4,1.794,4,4s-1.795,4-4,4v2c3.314,0,6-2.686,6-6C-270.768,318.931-273.453,316.244-276.768,316.244z"/>
	<path d="M-272.768,312.244h-15.988v2h15.988c3.314,0,6-2.687,6-6c0-3.314-2.686-6-6-6v2c2.205,0,4,1.794,4,4
		S-270.563,312.244-272.768,312.244z"/>
	<path d="M-259.768,306.244c1.654,0,3,1.346,3,3s-1.346,3-3,3c-0.043,0-0.083-0.011-0.126-0.013h-4.862
		c0.003,0.005,0.009,0.008,0.012,0.013h-0.023v2h5.5v-0.051c2.523-0.254,4.5-2.358,4.5-4.949c0-2.762-2.238-5-5-5V306.244z"/>
	<path d="M-255.768,316.244h-13v2h9.022c-0.004,0.005-0.008,0.008-0.011,0.013h3.862c0.043-0.002,0.083-0.013,0.126-0.013
		c1.654,0,3,1.346,3,3s-1.346,3-3,3v2c2.762,0,5-2.238,5-5S-253.006,316.244-255.768,316.244z"/>
	<rect x="-294.768" y="312.244" width="4" height="2"/>
</g>
<path d="M-484.329-82.859c6.95,1.305,12.226,7.419,12.226,14.742c0,8.272-6.729,15.002-15,15.002c-6.79,0-12.531-4.49-14.366-10.728
	c1.398,0.461,2.867,0.698,4.366,0.698c7.72,0,14-6.281,14-14.001C-483.104-79.13-483.527-81.074-484.329-82.859 M-487.104-85.116
	c-0.338,0-0.668,0.031-1,0.051c1.861,2.113,3,4.881,3,7.92c0,6.627-5.372,12.001-12,12.001c-2.599,0-4.998-0.835-6.963-2.239
	c0.387,9.047,7.821,16.269,16.963,16.269c9.39,0,17-7.612,17-17.002S-477.714-85.116-487.104-85.116L-487.104-85.116z"/>
<g>
	<path d="M-590.499-80.121c-7.18,0-13,5.819-13,12.999c0,7.181,5.82,13.002,13,13.002s13-5.821,13-13.002
		C-577.499-74.302-583.319-80.121-590.499-80.121z M-590.499-56.12c-6.065,0-11-4.936-11-11.002c0-6.064,4.935-10.999,11-10.999
		s11,4.935,11,10.999C-579.499-61.056-584.434-56.12-590.499-56.12z"/>
	<rect x="-591.506" y="-93.115" width="2" height="10"/>
	<rect x="-591.506" y="-51.115" width="2" height="10"/>
	<rect x="-616.499" y="-68.115" width="9.993" height="2"/>
	<rect x="-574.506" y="-68.115" width="10.007" height="2"/>
	<rect x="-576.806" y="-87.029" transform="matrix(0.7071 0.7071 -0.7071 0.7071 -226.5085 383.1905)" width="2" height="10.409"/>
	<rect x="-606.215" y="-57.62" transform="matrix(-0.7071 -0.7071 0.7071 -0.7071 -996.103 -517.4304)" width="2" height="10.41"/>
	<rect x="-610.415" y="-82.82" transform="matrix(0.7071 0.7071 -0.7071 0.7071 -235.1174 403.9839)" width="10.409" height="2"/>
	
		<rect x="-581.007" y="-53.411" transform="matrix(-0.7072 -0.7071 0.7071 -0.7072 -945.9246 -496.5994)" width="10.41" height="2"/>
</g>
<g>
	<rect x="-192.333" y="277.746" width="2" height="7.973"/>
	<rect x="-211.306" y="296.732" width="7.973" height="2"/>
	<rect x="-206.58" y="285.514" transform="matrix(0.7071 0.7071 -0.7071 0.7071 143.2577 227.1726)" width="7.974" height="2"/>
	<rect x="-181.071" y="282.532" transform="matrix(0.7071 0.7071 -0.7071 0.7071 149.8569 211.2487)" width="2" height="7.972"/>
	<path d="M-177.306,319.746l0.005-0.007h-12.536l-0.594-0.003c-4.864-0.024-8.822-4.001-8.822-8.865c0-4.89,3.978-8.868,8.867-8.868
		c0.15,0,0.299,0.012,0.447,0.021l0.148,0.011l1.314,0.085l0.597-1.174c2.225-4.373,6.644-7.09,11.532-7.09
		c5.916,0,11.114,4.099,12.54,9.8h2.065c-1.444-6.742-7.433-11.8-14.605-11.8c-2.185,0-4.258,0.47-6.126,1.313
		c-1.667-3.202-5.007-5.394-8.866-5.394c-5.522,0-10,4.477-10,9.999c0,2.46,0.899,4.702,2.373,6.442
		c-1.429,1.84-2.287,4.144-2.287,6.653c0,5.983,4.836,10.836,10.813,10.865v0.003h13.135v0.007c2.205,0,4,1.794,4,4s-1.795,4-4,4v2
		c3.314,0,6-2.686,6-6C-171.306,322.433-173.991,319.746-177.306,319.746z M-191.339,289.776c3.091,0,5.76,1.773,7.091,4.345
		c-2.298,1.439-4.178,3.488-5.413,5.918c-0.241-0.016-0.48-0.036-0.725-0.036c-2.766,0-5.282,1.042-7.2,2.743
		c-1.092-1.367-1.753-3.09-1.753-4.971C-199.339,293.365-195.75,289.776-191.339,289.776z"/>
	<path d="M-173.306,315.746h-9.988v2h9.988c3.314,0,6-2.687,6-6c0-3.314-2.686-6-6-6v2c2.205,0,4,1.794,4,4
		S-171.101,315.746-173.306,315.746z"/>
	<path d="M-165.282,315.746h-0.023v2h5.5v-0.051c2.523-0.254,4.5-2.358,4.5-4.949c0-2.762-2.238-5-5-5v2c1.654,0,3,1.346,3,3
		s-1.346,3-3,3c-0.043,0-0.083-0.011-0.126-0.013h-4.862C-165.291,315.738-165.285,315.742-165.282,315.746z"/>
	<path d="M-156.306,319.746h-13v2h9.022c-0.004,0.004-0.008,0.008-0.011,0.013h3.862c0.043-0.002,0.083-0.013,0.126-0.013
		c1.654,0,3,1.346,3,3s-1.346,3-3,3v2c2.762,0,5-2.238,5-5S-153.544,319.746-156.306,319.746z"/>
	<rect x="-189.306" y="315.746" width="4" height="2"/>
</g>
<g>
	<path d="M-77.344,317.74l0.005-0.007h-12.536l-0.594-0.003c-4.864-0.024-8.822-4.001-8.822-8.865c0-4.89,3.978-8.868,8.867-8.868
		c0.15,0,0.299,0.012,0.447,0.021l0.148,0.011l1.314,0.085l0.597-1.174c2.225-4.373,6.644-7.09,11.532-7.09
		c5.916,0,11.114,4.099,12.54,9.8h2.065c-1.444-6.742-7.433-11.8-14.605-11.8c-1.806,0-3.536,0.322-5.138,0.91
		c-0.938-5.123-5.4-9.01-10.794-9.01c-0.413,0-0.819,0.027-1.222,0.071c0.744,1.112,1.179,2.448,1.179,3.886c0,3.865-3.134,7-7,7
		c-1.438,0-2.773-0.435-3.886-1.179c-0.044,0.401-0.071,0.809-0.071,1.222c0,3.725,1.858,7.009,4.69,8.998
		c-1.655,1.907-2.665,4.392-2.665,7.116c0,5.983,4.836,10.836,10.813,10.865v0.003h13.135v0.007c2.205,0,4,1.794,4,4s-1.795,4-4,4v2
		c3.314,0,6-2.686,6-6C-71.344,320.427-74.029,317.74-77.344,317.74z M-101.14,294.531c0.582,0.117,1.178,0.177,1.78,0.177
		c4.963,0,9-4.037,9-9c0-0.603-0.06-1.198-0.177-1.78c3.744,0.755,6.646,3.842,7.138,7.674c-2.702,1.444-4.909,3.696-6.301,6.432
		c-0.241-0.016-0.48-0.036-0.725-0.036c-2.535,0-4.861,0.875-6.71,2.33C-99.162,299.035-100.648,296.967-101.14,294.531z"/>
	<path d="M-73.344,313.74h-9.988v2h9.988c3.314,0,6-2.687,6-6c0-3.314-2.686-6-6-6v2c2.205,0,4,1.794,4,4
		S-71.139,313.74-73.344,313.74z"/>
	<path d="M-65.32,313.74h-0.023v2h5.5v-0.051c2.523-0.254,4.5-2.358,4.5-4.949c0-2.762-2.238-5-5-5v2c1.654,0,3,1.346,3,3
		s-1.346,3-3,3c-0.043,0-0.083-0.011-0.126-0.013h-4.862C-65.329,313.732-65.323,313.736-65.32,313.74z"/>
	<path d="M-56.344,317.74h-13v2h9.022c-0.004,0.004-0.008,0.008-0.011,0.013h3.862c0.043-0.002,0.083-0.013,0.126-0.013
		c1.654,0,3,1.346,3,3s-1.346,3-3,3v2c2.762,0,5-2.238,5-5S-53.582,317.74-56.344,317.74z"/>
	<rect x="-89.344" y="313.74" width="4" height="2"/>
</g>
<g>
	<rect x="23.549" y="280.309" width="2" height="10"/>
	<rect x="-1.444" y="305.309" width="9.993" height="2"/>
	<rect x="38.249" y="286.395" transform="matrix(0.7071 0.7071 -0.7071 0.7071 217.6873 57.6545)" width="2" height="10.409"/>
	<rect x="4.64" y="290.604" transform="matrix(0.7071 0.7071 -0.7071 0.7071 209.0785 78.4479)" width="10.409" height="2"/>
	<path d="M28.549,320.309h-24v2h24c2.205,0,4,1.794,4,4s-1.795,4-4,4v2c3.314,0,6-2.686,6-6
		C34.549,322.995,31.863,320.309,28.549,320.309z"/>
	<path d="M40.572,316.309h-0.023v2h5.5v-0.051c2.523-0.254,4.5-2.358,4.5-4.949c0-2.762-2.238-5-5-5v2c1.654,0,3,1.346,3,3
		s-1.346,3-3,3c-0.043,0-0.083-0.011-0.126-0.013h-4.862C40.563,316.301,40.569,316.305,40.572,316.309z"/>
	<path d="M49.549,320.309h-13v2h9.022c-0.004,0.004-0.008,0.008-0.011,0.013h3.862c0.043-0.002,0.083-0.013,0.126-0.013
		c1.654,0,3,1.346,3,3s-1.346,3-3,3v2c2.762,0,5-2.238,5-5S52.311,320.309,49.549,320.309z"/>
	<path d="M16.258,316.309H4.549v2h12.012h0.822h15.166c3.314,0,6-2.687,6-6c0-3.314-2.686-6-6-6v2c2.205,0,4,1.794,4,4s-1.795,4-4,4
		H20.011c-3.802-1.734-6.455-5.563-6.455-10.007c0-6.064,4.935-10.999,11-10.999c5.384,0,9.868,3.891,10.81,9.006h2.021
		c-0.961-6.23-6.331-11.006-12.831-11.006c-7.18,0-13,5.819-13,12.999C11.556,310.327,13.386,313.924,16.258,316.309z"/>
</g>
<g>
	<path d="M128.775,313.752h-24v2h24c2.205,0,4,1.794,4,4s-1.795,4-4,4v2c3.314,0,6-2.686,6-6
		C134.775,316.438,132.09,313.752,128.775,313.752z"/>
	<path d="M146.275,311.752v-0.051c2.523-0.254,4.5-2.358,4.5-4.949c0-2.762-2.238-5-5-5v2c1.654,0,3,1.346,3,3s-1.346,3-3,3
		c-0.043,0-0.083-0.011-0.126-0.013h-4.862c0.004,0.005,0.009,0.009,0.012,0.013h-0.023v2H146.275z"/>
	<path d="M149.775,313.752h-13v2h9.022c-0.003,0.004-0.007,0.008-0.011,0.013h3.862c0.043-0.002,0.083-0.013,0.126-0.013
		c1.654,0,3,1.346,3,3s-1.346,3-3,3v2c2.762,0,5-2.238,5-5S152.537,313.752,149.775,313.752z"/>
	<path d="M117.609,311.752h15.166c3.314,0,6-2.687,6-6c0-3.314-2.686-6-6-6v2c2.205,0,4,1.794,4,4s-1.795,4-4,4h-12.586
		c-2.596-1.188-4.658-3.339-5.69-6.034c0.849,0.204,1.724,0.309,2.612,0.309c6.168,0,11.187-5.019,11.187-11.188
		c0-1.276-0.22-2.532-0.64-3.717c4.046,1.102,7.168,4.459,7.937,8.63h2.018c-0.964-6.237-6.338-11.016-12.846-11.016
		c-0.259,0-0.511,0.024-0.766,0.039c1.425,1.618,2.297,3.737,2.297,6.063c0,5.072-4.112,9.188-9.187,9.188
		c-1.988,0-3.826-0.641-5.33-1.715c0.162,3.801,1.962,7.165,4.699,9.44h-11.705v2h12.012H117.609z"/>
</g>
<g>
	<path d="M-591.006,398.945h-20c-1.103,0-2-0.897-2-2s0.897-2,2-2h3.445h0.555v-2h-4c-2.209,0-4,1.791-4,4s1.791,4,4,4h20
		c2.205,0,4,1.794,4,4s-1.795,4-4,4v2c3.314,0,6-2.686,6-6C-585.006,401.632-587.691,398.945-591.006,398.945z"/>
	<path d="M-589.006,382.945v2c2.205,0,4,1.794,4,4s-1.795,4-4,4h-15.988v2h15.988c3.314,0,6-2.687,6-6
		C-583.006,385.631-585.691,382.945-589.006,382.945z"/>
	<path d="M-583.006,394.945v2h5.5v-0.051c2.523-0.254,4.5-2.358,4.5-4.949c0-2.762-2.238-5-5-5v2c1.654,0,3,1.346,3,3s-1.346,3-3,3
		c-0.043,0-0.083-0.011-0.126-0.013h-4.862c0.003,0.005,0.009,0.009,0.012,0.013H-583.006z"/>
	<path d="M-572.006,398.945h-11v2h7.022c-0.004,0.004-0.008,0.008-0.011,0.013h3.862c0.043-0.002,0.083-0.013,0.126-0.013
		c1.654,0,3,1.346,3,3s-1.346,3-3,3v2c2.762,0,5-2.238,5-5S-569.244,398.945-572.006,398.945z"/>
</g>
<path d="M-54.714,385.292v-0.038H-93.09c-1.103,0-2-0.897-2-2s0.897-2,2-2h33c2.762,0,5-2.238,5-5s-2.238-5-5-5h-37.875v0.008
	c-0.042-0.001-0.083-0.008-0.125-0.008c-2.762,0-5,2.238-5,5s2.238,5,5,5v-2c-1.654,0-3-1.346-3-3s1.346-3,3-3h0.125h3.853h34.022
	c1.654,0,3,1.346,3,3s-1.346,3-3,3h-33c-2.209,0-4,1.791-4,4s1.791,4,4,4h38c1.103,0,2,0.897,2,2s-0.897,2-2,2h-32
	c-2.209,0-4,1.791-4,4s1.791,4,4,4h22c1.103,0,2,0.897,2,2s-0.897,2-2,2H-89.1v0.001c-2.204,0.006-3.99,1.793-3.99,3.999
	s1.786,3.993,3.99,3.999v0.001h12.01c1.103,0,2,0.897,2,2s-0.897,2-2,2h-2c-2.209,0-4,1.791-4,4s1.791,4,4,4v-2
	c-1.103,0-2-0.897-2-2s0.897-2,2-2h2c2.209,0,4-1.791,4-4s-1.791-4-4-4h-12c-1.103,0-2-0.897-2-2s0.897-2,2-2h24
	c2.209,0,4-1.791,4-4c0-2.152-1.704-3.895-3.834-3.983v-0.017H-87.09c-1.103,0-2-0.897-2-2s0.897-2,2-2h32c2.209,0,4-1.791,4-4
	C-51.09,387.174-52.684,385.484-54.714,385.292z"/>
<path d="M130.701,375.97v-2.024h-2v2.024c-13.01,0.513-23.462,10.965-23.975,23.976h1.674c1.14-1.222,2.748-2,4.551-2
	c2.26,0,4.233,1.203,5.331,3h1.838c1.098-1.797,3.071-3,5.331-3c2.204,0,4.137,1.144,5.25,2.866v15.134c0,2.21,1.791,4,4,4
	s4-1.79,4-4h-2c0,1.103-0.897,2-2,2s-2-0.897-2-2v-15.134c1.113-1.723,3.046-2.866,5.25-2.866c2.26,0,4.233,1.203,5.331,3h1.838
	c1.098-1.797,3.071-3,5.331-3c1.803,0,3.411,0.778,4.551,2h1.674C154.163,386.935,143.711,376.482,130.701,375.97z M148.451,395.945
	c-2.496,0-4.736,1.114-6.25,2.87c-1.514-1.756-3.754-2.87-6.25-2.87s-4.736,1.114-6.25,2.87c-1.514-1.756-3.754-2.87-6.25-2.87
	s-4.736,1.114-6.25,2.87c-1.514-1.756-3.755-2.87-6.25-2.87c-1.402,0-2.731,0.351-3.897,0.975
	c1.909-10.769,11.339-18.975,22.647-18.975s20.738,8.206,22.647,18.975C151.183,396.296,149.854,395.945,148.451,395.945z"/>
<g>
	<path d="M-274.594,500.258v-17.105c0-2.762-2.238-5-5-5s-5,2.238-5,5v17.105c-1.236,1.263-2,2.988-2,4.895c0,3.866,3.134,7,7,7
		s7-3.134,7-7C-272.594,503.246-273.357,501.521-274.594,500.258z M-279.594,510.152c-2.757,0-5-2.243-5-5
		c0-1.313,0.508-2.554,1.429-3.495l0.571-0.583v-0.816v-17.105c0-1.654,1.346-3,3-3s3,1.346,3,3v17.105v0.816l0.571,0.583
		c0.921,0.941,1.429,2.183,1.429,3.495C-274.594,507.909-276.837,510.152-279.594,510.152z"/>
	<path d="M-278.594,502.328v-15.176h-2v15.176c-1.167,0.413-2.008,1.516-2.008,2.824c0,1.662,1.347,3.008,3.008,3.008
		c1.662,0,3.008-1.346,3.008-3.008C-276.586,503.844-277.426,502.741-278.594,502.328z M-279.594,506.16
		c-0.556,0-1.008-0.452-1.008-1.008s0.452-1.008,1.008-1.008s1.008,0.452,1.008,1.008S-279.038,506.16-279.594,506.16z"/>
</g>
<g>
	<path d="M-174.806,500.258v-17.105c0-2.762-2.238-5-5-5s-5,2.238-5,5v17.105c-1.236,1.263-2,2.988-2,4.895c0,3.866,3.134,7,7,7
		s7-3.134,7-7C-172.806,503.246-173.569,501.521-174.806,500.258z M-179.806,510.152c-2.757,0-5-2.243-5-5
		c0-1.313,0.508-2.554,1.429-3.495l0.571-0.583v-0.816v-17.105c0-1.654,1.346-3,3-3s3,1.346,3,3v17.105v0.816l0.571,0.583
		c0.921,0.941,1.429,2.183,1.429,3.495C-174.806,507.909-177.049,510.152-179.806,510.152z"/>
	<path d="M-178.806,502.328v-20.176h-2v20.176c-1.167,0.413-2.008,1.516-2.008,2.824c0,1.662,1.347,3.008,3.008,3.008
		c1.662,0,3.008-1.346,3.008-3.008C-176.798,503.844-177.638,502.741-178.806,502.328z M-179.806,506.16
		c-0.556,0-1.008-0.452-1.008-1.008s0.452-1.008,1.008-1.008s1.008,0.452,1.008,1.008S-179.25,506.16-179.806,506.16z"/>
</g>
<g>
	<path d="M-377.703,500.258v-17.105c0-2.762-2.238-5-5-5s-5,2.238-5,5v17.105c-1.236,1.263-2,2.988-2,4.895c0,3.866,3.134,7,7,7
		s7-3.134,7-7C-375.703,503.246-376.467,501.521-377.703,500.258z M-382.703,510.152c-2.757,0-5-2.243-5-5
		c0-1.313,0.508-2.554,1.429-3.495l0.571-0.583v-0.816v-17.105c0-1.654,1.346-3,3-3s3,1.346,3,3v17.105v0.816l0.571,0.583
		c0.921,0.941,1.429,2.183,1.429,3.495C-377.703,507.909-379.946,510.152-382.703,510.152z"/>
	<path d="M-381.703,502.328v-10.176h-2v10.176c-1.167,0.413-2.008,1.516-2.008,2.824c0,1.662,1.347,3.008,3.008,3.008
		c1.662,0,3.008-1.346,3.008-3.008C-379.695,503.844-380.535,502.741-381.703,502.328z M-382.703,506.16
		c-0.556,0-1.008-0.452-1.008-1.008s0.452-1.008,1.008-1.008s1.008,0.452,1.008,1.008S-382.147,506.16-382.703,506.16z"/>
</g>
<g>
	<path d="M-481.349,500.258v-17.105c0-2.762-2.238-5-5-5s-5,2.238-5,5v17.105c-1.236,1.263-2,2.988-2,4.895c0,3.866,3.134,7,7,7
		s7-3.134,7-7C-479.349,503.246-480.112,501.521-481.349,500.258z M-486.349,510.152c-2.757,0-5-2.243-5-5
		c0-1.313,0.508-2.554,1.429-3.495l0.571-0.583v-0.816v-17.105c0-1.654,1.346-3,3-3s3,1.346,3,3v17.105v0.816l0.571,0.583
		c0.921,0.941,1.429,2.183,1.429,3.495C-481.349,507.909-483.592,510.152-486.349,510.152z"/>
	<path d="M-485.349,502.328v-5.176h-2v5.176c-1.167,0.413-2.008,1.516-2.008,2.824c0,1.662,1.347,3.008,3.008,3.008
		c1.662,0,3.008-1.346,3.008-3.008C-483.341,503.844-484.181,502.741-485.349,502.328z M-486.349,506.16
		c-0.556,0-1.008-0.452-1.008-1.008s0.452-1.008,1.008-1.008s1.008,0.452,1.008,1.008S-485.793,506.16-486.349,506.16z"/>
</g>
<g>
	<path d="M-586.006,500.258v-17.105c0-2.762-2.238-5-5-5s-5,2.238-5,5v17.105c-1.236,1.263-2,2.988-2,4.895c0,3.866,3.134,7,7,7
		s7-3.134,7-7C-584.006,503.246-584.77,501.521-586.006,500.258z M-591.006,510.152c-2.757,0-5-2.243-5-5
		c0-1.313,0.508-2.554,1.429-3.495l0.571-0.583v-0.816v-17.105c0-1.654,1.346-3,3-3s3,1.346,3,3v17.105v0.816l0.571,0.583
		c0.921,0.941,1.429,2.183,1.429,3.495C-586.006,507.909-588.249,510.152-591.006,510.152z"/>
	<path d="M-591.006,502.145c-1.661,0-3.008,1.347-3.008,3.008c0,1.662,1.347,3.008,3.008,3.008c1.662,0,3.008-1.346,3.008-3.008
		C-587.998,503.491-589.344,502.145-591.006,502.145z M-591.006,506.16c-0.556,0-1.008-0.452-1.008-1.008s0.452-1.008,1.008-1.008
		s1.008,0.452,1.008,1.008S-590.45,506.16-591.006,506.16z"/>
</g>
<g>
	<path d="M-86.081,480.465c-2.209,0-4,1.791-4,4c0,2.21,1.791,4,4,4c2.211,0,4-1.79,4-4
		C-82.081,482.256-83.87,480.465-86.081,480.465z M-86.081,486.465c-1.103,0-2-0.897-2-2s0.897-2,2-2s2,0.897,2,2
		S-84.979,486.465-86.081,486.465z"/>
	<path d="M-72.081,508.465c-4.41,0-7.999-3.589-7.999-7.999v-4.002c0-4.41,3.589-7.999,7.999-7.999c2.715,0,5.115,1.362,6.563,3.437
		l1.43-1.43c-1.824-2.429-4.72-4.007-7.992-4.007c-5.522,0-9.999,4.478-9.999,9.999v4.002c0,5.521,4.477,9.999,9.999,9.999
		c3.272,0,6.168-1.579,7.992-4.008l-1.43-1.43C-66.965,507.102-69.365,508.465-72.081,508.465z"/>
</g>
<g>
	<path d="M18.615,480.344c-2.209,0-4,1.791-4,4c0,2.21,1.791,4,4,4c2.211,0,4-1.79,4-4
		C22.615,482.135,20.826,480.344,18.615,480.344z M18.615,486.344c-1.103,0-2-0.897-2-2s0.897-2,2-2s2,0.897,2,2
		S19.718,486.344,18.615,486.344z"/>
	<polygon points="38.49,488.465 38.49,486.465 26.49,486.465 24.49,486.465 24.49,510.465 26.49,510.465 26.49,498.465 
		34.49,498.465 34.49,496.465 26.49,496.465 26.49,488.465 	"/>
</g>
<g>
	<path d="M129.701,484.156c-7.179,0-13,5.82-13,13s5.821,13,13,13s13-5.82,13-13S136.88,484.156,129.701,484.156z M129.701,508.156
		c-6.065,0-11-4.935-11-11s4.935-11,11-11s11,4.935,11,11S135.767,508.156,129.701,508.156z"/>
	<path d="M125.435,501.398l6.363-2.121l2.121-6.364l-6.363,2.122L125.435,501.398z M129.137,496.616l1.62-0.54l-0.54,1.62
		l-1.62,0.54L129.137,496.616z"/>
</g>
<g>
	<path d="M-591.006,574.674c-7.179,0-13,5.82-13,13s5.821,13,13,13s13-5.82,13-13S-583.827,574.674-591.006,574.674z
		 M-591.006,598.674c-6.065,0-11-4.934-11-11c0-6.064,4.935-11,11-11s11,4.936,11,11
		C-580.006,593.74-584.94,598.674-591.006,598.674z"/>
	<path d="M-588.444,586.096l-2.586-4.422l-2.529,4.33h0.007c-0.299,0.467-0.478,1.018-0.478,1.613c0,1.656,1.343,3,3,3s3-1.344,3-3
		c0-0.559-0.162-1.074-0.428-1.521H-588.444z M-591.03,588.617c-0.552,0-1-0.449-1-1c0-0.188,0.055-0.367,0.162-0.535l0.864-1.355
		l0.826,1.391c0.098,0.164,0.147,0.332,0.147,0.5C-590.03,588.168-590.479,588.617-591.03,588.617z"/>
</g>
<g>
	<path d="M-486.222,574.674c-7.18,0-13,5.82-13,13s5.82,13,13,13s13-5.82,13-13S-479.042,574.674-486.222,574.674z
		 M-486.222,598.674c-6.065,0-11-4.934-11-11c0-6.064,4.935-11,11-11s11,4.936,11,11
		C-475.222,593.74-480.156,598.674-486.222,598.674z"/>
	<path d="M-484.633,585.094c-0.467-0.299-1.018-0.477-1.613-0.477c-1.658,0-3,1.342-3,3c0,1.656,1.342,3,3,3
		c0.557,0,1.072-0.162,1.52-0.428v0.014l4.422-2.586l-4.328-2.529V585.094z M-485.748,588.469c-0.164,0.098-0.332,0.148-0.498,0.148
		c-0.552,0-1-0.449-1-1c0-0.553,0.448-1,1-1c0.188,0,0.368,0.053,0.535,0.16l1.355,0.865L-485.748,588.469z"/>
</g>
<g>
	<path d="M-383.171,574.674c-7.18,0-13,5.82-13,13s5.82,13,13,13s13-5.82,13-13S-375.991,574.674-383.171,574.674z
		 M-383.171,598.674c-6.065,0-11-4.934-11-11c0-6.064,4.935-11,11-11s11,4.936,11,11
		C-372.171,593.74-377.105,598.674-383.171,598.674z"/>
	<path d="M-383.171,584.617c-1.656,0-3,1.342-3,3c0,0.557,0.162,1.072,0.428,1.52h-0.014l2.586,4.422l2.529-4.328h-0.006
		c0.299-0.467,0.477-1.018,0.477-1.613C-380.171,585.959-381.513,584.617-383.171,584.617z M-382.332,588.152l-0.865,1.355
		l-0.826-1.393c-0.098-0.164-0.147-0.332-0.147-0.498c0-0.553,0.448-1,1-1s1,0.447,1,1
		C-382.171,587.805-382.225,587.984-382.332,588.152z"/>
</g>
<g>
	<path d="M-279.757,574.674c-7.179,0-13,5.82-13,13s5.821,13,13,13s13-5.82,13-13S-272.578,574.674-279.757,574.674z
		 M-279.757,598.674c-6.065,0-11-4.934-11-11c0-6.064,4.935-11,11-11s11,4.936,11,11
		C-268.757,593.74-273.691,598.674-279.757,598.674z"/>
	<path d="M-279.798,584.617c-0.557,0-1.072,0.162-1.52,0.428v-0.014l-4.422,2.586l4.328,2.529v-0.006
		c0.467,0.299,1.018,0.477,1.613,0.477c1.658,0,3-1.342,3-3C-276.798,585.961-278.14,584.617-279.798,584.617z M-279.798,588.617
		c-0.188,0-0.368-0.055-0.535-0.162l-1.355-0.865l1.393-0.826c0.164-0.098,0.332-0.146,0.498-0.146c0.552,0,1,0.447,1,1
		C-278.798,588.168-279.246,588.617-279.798,588.617z"/>
</g>
<g>
	<rect x="-487.908" y="377.945" width="2" height="10"/>
	<rect x="-473.208" y="384.031" transform="matrix(0.7071 0.7071 -0.7071 0.7071 136.9246 447.9064)" width="2" height="10.409"/>
	<rect x="-506.817" y="388.241" transform="matrix(0.7071 0.7071 -0.7071 0.7071 128.3157 468.6998)" width="10.409" height="2"/>
	<polygon points="-493.576,407.199 -492.162,408.613 -487.908,404.359 -487.908,413.945 -485.908,413.945 -485.908,404.359 
		-481.655,408.613 -480.241,407.199 -486.908,400.531 	"/>
	<path d="M-473.901,403.944c0-0.002,0-0.004,0-0.006c0-7.18-5.82-12.999-13-12.999s-13,5.819-13,12.999c0,0.002,0,0.004,0,0.006h-13
		v2h18v-2h-3c0-0.002,0-0.004,0-0.006c0-6.064,4.935-10.999,11-10.999s11,4.935,11,10.999c0,0.002,0,0.004,0,0.006h-3v2h17.995v-2
		H-473.901z"/>
</g>
<g>
	<rect x="-384.163" y="376.758" width="2" height="10"/>
	<rect x="-369.463" y="382.844" transform="matrix(0.7071 0.7071 -0.7071 0.7071 166.4712 374.1997)" width="2" height="10.409"/>
	<rect x="-403.072" y="387.053" transform="matrix(0.7071 0.7071 -0.7071 0.7071 157.8623 394.9931)" width="10.409" height="2"/>
	<polygon points="-382.163,411.305 -382.163,400.758 -384.163,400.758 -384.163,411.305 -388.417,407.051 -389.831,408.465 
		-383.163,415.133 -376.496,408.465 -377.91,407.051 	"/>
	<path d="M-370.156,402.757c0-0.002,0-0.004,0-0.006c0-7.18-5.82-12.999-13-12.999s-13,5.819-13,12.999c0,0.002,0,0.004,0,0.006h-13
		v2h22v-2h-7c0-0.002,0-0.004,0-0.006c0-6.064,4.935-10.999,11-10.999s11,4.935,11,10.999c0,0.002,0,0.004,0,0.006h-7v2h21.995v-2
		H-370.156z"/>
</g>
<g>
	<polygon points="-179.806,410.771 -179.806,396.388 -181.806,396.388 -181.806,410.771 -186.06,406.517 -187.474,407.931 
		-180.806,414.599 -174.139,407.931 -175.553,406.517 	"/>
	<path d="M-164.178,391.417c-1.596-7.445-8.207-13.029-16.127-13.029c-6.423,0-11.977,3.678-14.702,9.035
		c-0.266-0.018-0.53-0.04-0.8-0.04c-6.627,0-11.999,5.372-11.999,12c0,6.607,5.34,11.965,11.938,11.998v0.003h6.062v-2h-5.604
		l-0.447-0.003c-5.485-0.027-9.948-4.513-9.948-9.998c0-5.514,4.485-10,9.999-10c0.175,0,0.347,0.014,0.52,0.025l0.148,0.01
		l1.316,0.088l0.598-1.176c2.492-4.899,7.443-7.942,12.92-7.942c6.79,0,12.75,4.814,14.172,11.448l0.317,1.482l1.514,0.095
		c4.203,0.262,7.496,3.763,7.496,7.971c0,4.397-3.565,7.977-7.957,8c-0.05-0.003-0.093-0.005-0.137-0.007l-2.043,0.007h-4.863v2
		h6.863v-0.007c0.046,0.001,0.091,0.007,0.137,0.007c5.521,0,10-4.477,10-10C-154.806,396.073-158.95,391.742-164.178,391.417z"/>
</g>
<g>
	<polygon points="-273.821,407.575 -272.407,406.161 -279.074,399.493 -285.742,406.161 -284.328,407.575 -280.074,403.321 
		-280.074,415.907 -278.074,415.907 -278.074,403.321 	"/>
	<path d="M-262.446,393.013c-1.596-7.445-8.207-13.029-16.127-13.029c-6.423,0-11.977,3.678-14.702,9.035
		c-0.266-0.018-0.53-0.04-0.8-0.04c-6.627,0-11.999,5.372-11.999,12c0,6.607,5.34,11.965,11.938,11.998v0.003h10.062v-2h-9.604
		l-0.447-0.003c-5.485-0.027-9.948-4.513-9.948-9.998c0-5.514,4.485-10,9.999-10c0.175,0,0.347,0.014,0.52,0.025l0.148,0.01
		l1.316,0.088l0.598-1.176c2.492-4.899,7.443-7.942,12.92-7.942c6.79,0,12.75,4.814,14.172,11.448l0.317,1.482l1.514,0.095
		c4.203,0.262,7.496,3.763,7.496,7.971c0,4.397-3.565,7.977-7.957,8c-0.05-0.003-0.093-0.005-0.137-0.007l-2.043,0.007h-8.863v2
		h10.863v-0.007c0.046,0.001,0.091,0.007,0.137,0.007c5.521,0,10-4.477,10-10C-253.074,397.669-257.219,393.338-262.446,393.013z"/>
</g>
<g>
	<path d="M-59.957,203.497c-1.596-7.445-8.207-13.029-16.127-13.029c-6.423,0-11.977,3.678-14.702,9.035
		c-0.266-0.018-0.53-0.04-0.8-0.04c-6.627,0-11.999,5.372-11.999,12c0,6.607,5.34,11.965,11.938,11.998v0.003h2.062v-2h-1.604
		l-0.447-0.003c-5.485-0.027-9.948-4.513-9.948-9.998c0-5.514,4.485-10,9.999-10c0.175,0,0.347,0.014,0.52,0.025l0.148,0.01
		l1.316,0.088l0.598-1.176c2.492-4.899,7.443-7.942,12.92-7.942c6.79,0,12.75,4.814,14.172,11.448l0.317,1.482l1.514,0.095
		c4.203,0.262,7.496,3.763,7.496,7.971c0,4.397-3.565,7.977-7.957,8c-0.05-0.003-0.093-0.005-0.137-0.007l-2.043,0.007h-0.863v2
		h2.863v-0.007c0.046,0.001,0.091,0.007,0.137,0.007c5.521,0,10-4.477,10-10C-50.585,208.153-54.729,203.822-59.957,203.497z"/>
	<polygon points="-81.585,222.485 -81.585,219.855 -79.412,221.078 -78.727,219.857 -81.196,218.468 -78.727,217.078 
		-79.412,215.857 -81.585,217.08 -81.585,214.485 -83.585,214.485 -83.585,217.124 -85.836,215.857 -86.521,217.078 
		-84.052,218.468 -86.521,219.857 -85.836,221.078 -83.585,219.812 -83.585,222.485 	"/>
	<polygon points="-76.423,226.84 -78.596,228.063 -78.596,225.468 -80.596,225.468 -80.596,228.106 -82.847,226.84 -83.532,228.061 
		-81.063,229.45 -83.532,230.84 -82.847,232.061 -80.596,230.794 -80.596,233.468 -78.596,233.468 -78.596,230.838 -76.423,232.061 
		-75.737,230.84 -78.207,229.45 -75.737,228.061 	"/>
	<polygon points="-67.407,219.857 -69.58,221.08 -69.58,218.485 -71.58,218.485 -71.58,221.124 -73.831,219.857 -74.517,221.078 
		-72.047,222.468 -74.517,223.857 -73.831,225.078 -71.58,223.812 -71.58,226.485 -69.58,226.485 -69.58,223.855 -67.407,225.078 
		-66.722,223.857 -69.191,222.468 -66.722,221.078 	"/>
</g>
<g>
	<rect x="15.555" y="185.445" width="2" height="7.973"/>
	<rect x="-3.445" y="204.359" width="7.973" height="2"/>
	<rect x="1.228" y="193.093" transform="matrix(0.7071 0.7071 -0.7071 0.7071 138.7717 53.161)" width="7.974" height="2"/>
	<rect x="26.736" y="190.111" transform="matrix(0.7071 0.7071 -0.7071 0.7071 145.3708 37.2371)" width="2" height="7.972"/>
	<path d="M46.066,211.235c-1.444-6.742-7.433-11.8-14.605-11.8c-2.185,0-4.258,0.471-6.127,1.314
		c-1.666-3.203-5.006-5.395-8.865-5.395c-5.522,0-10,4.477-10,9.999c0,2.46,0.899,4.702,2.373,6.442
		c-1.428,1.84-2.287,4.144-2.287,6.653c0,5.983,4.836,10.836,10.813,10.865v0.003h1.188v-2h-0.721l-0.457-0.003
		c-4.864-0.023-8.822-4.001-8.822-8.865c0-4.89,3.978-8.868,8.867-8.868c0.15,0,0.299,0.012,0.447,0.022l0.148,0.01l1.314,0.085
		l0.597-1.175c2.225-4.372,6.644-7.089,11.532-7.089c6.062,0,11.382,4.298,12.649,10.219l0.318,1.483l1.514,0.094
		c3.708,0.23,6.612,3.319,6.612,7.03c0,3.878-3.144,7.035-7.017,7.057c-0.042-0.003-0.079-0.005-0.117-0.005l-1.866,0.005v2h1.819
		v-0.006c0.042,0.001,0.082,0.006,0.124,0.006c5.001,0,9.057-4.054,9.057-9.057C54.555,215.452,50.801,211.53,46.066,211.235z
		 M18.146,207.618c-0.241-0.016-0.48-0.036-0.725-0.036c-2.766,0-5.282,1.041-7.2,2.742c-1.092-1.365-1.753-3.089-1.753-4.97
		c0-4.41,3.589-7.999,8-7.999c3.092,0,5.76,1.773,7.091,4.346C21.262,203.141,19.383,205.188,18.146,207.618z"/>
	<polygon points="25.547,228.338 25.547,225.708 27.72,226.931 28.405,225.71 25.936,224.32 28.405,222.931 27.72,221.71 
		25.547,222.933 25.547,220.338 23.547,220.338 23.547,222.977 21.296,221.71 20.61,222.931 23.08,224.32 20.61,225.71 
		21.296,226.931 23.547,225.664 23.547,228.338 	"/>
	<polygon points="30.709,232.692 28.536,233.915 28.536,231.32 26.536,231.32 26.536,233.959 24.285,232.692 23.6,233.913 
		26.069,235.303 23.6,236.692 24.285,237.913 26.536,236.646 26.536,239.32 28.536,239.32 28.536,236.69 30.709,237.913 
		31.395,236.692 28.925,235.303 31.395,233.913 	"/>
	<polygon points="39.725,225.71 37.552,226.933 37.552,224.338 35.552,224.338 35.552,226.977 33.301,225.71 32.615,226.931 
		35.085,228.32 32.615,229.71 33.301,230.931 35.552,229.664 35.552,232.338 37.552,232.338 37.552,229.708 39.725,230.931 
		40.41,229.71 37.94,228.32 40.41,226.931 	"/>
</g>
<g>
	<path d="M146.255,208.232c-1.444-6.742-7.433-11.8-14.605-11.8c-1.799,0-3.522,0.32-5.118,0.904
		c-0.949-5.108-5.404-8.98-10.788-8.98c-0.413,0-0.819,0.027-1.222,0.071c0.744,1.112,1.179,2.448,1.179,3.886c0,3.865-3.134,7-7,7
		c-1.438,0-2.773-0.435-3.886-1.179c-0.044,0.401-0.071,0.809-0.071,1.222c0,3.713,1.845,6.987,4.661,8.979
		c-1.653,1.907-2.661,4.389-2.661,7.111c0,5.983,4.836,10.836,10.813,10.865v0.003h1.188v-2h-0.721l-0.457-0.003
		c-4.864-0.023-8.822-4.001-8.822-8.865c0-4.89,3.978-8.868,8.867-8.868c0.15,0,0.299,0.012,0.447,0.022l0.148,0.01l1.314,0.085
		l0.597-1.175c2.225-4.372,6.644-7.089,11.532-7.089c6.062,0,11.382,4.298,12.649,10.219l0.318,1.483l1.514,0.094
		c3.708,0.23,6.612,3.319,6.612,7.03c0,3.878-3.144,7.035-7.017,7.057c-0.042-0.003-0.079-0.005-0.117-0.005l-1.866,0.005v2h1.819
		v-0.006c0.042,0.001,0.082,0.006,0.124,0.006c5.001,0,9.057-4.054,9.057-9.057C154.743,212.449,150.989,208.527,146.255,208.232z
		 M118.335,204.615c-0.241-0.016-0.48-0.036-0.725-0.036c-2.537,0-4.865,0.877-6.715,2.334c-2.012-1.294-3.486-3.354-3.976-5.776
		c0.582,0.117,1.178,0.177,1.78,0.177c4.963,0,9-4.037,9-9c0-0.603-0.06-1.198-0.177-1.78c3.733,0.753,6.629,3.824,7.134,7.64
		C121.944,199.617,119.729,201.872,118.335,204.615z"/>
	<polygon points="125.78,225.335 125.78,222.705 127.953,223.928 128.639,222.707 126.169,221.317 128.639,219.928 127.953,218.707 
		125.78,219.93 125.78,217.335 123.78,217.335 123.78,219.974 121.529,218.707 120.844,219.928 123.313,221.317 120.844,222.707 
		121.529,223.928 123.78,222.661 123.78,225.335 	"/>
	<polygon points="130.942,229.689 128.77,230.912 128.77,228.317 126.77,228.317 126.77,230.956 124.519,229.689 123.833,230.91 
		126.303,232.3 123.833,233.689 124.519,234.91 126.77,233.644 126.77,236.317 128.77,236.317 128.77,233.688 130.942,234.91 
		131.628,233.689 129.158,232.3 131.628,230.91 	"/>
	<polygon points="139.958,222.707 137.785,223.93 137.785,221.335 135.785,221.335 135.785,223.974 133.534,222.707 
		132.849,223.928 135.318,225.317 132.849,226.707 133.534,227.928 135.785,226.661 135.785,229.335 137.785,229.335 
		137.785,226.705 139.958,227.928 140.644,226.707 138.174,225.317 140.644,223.928 	"/>
</g>
<rect x="-470.104" y="-359.518" fill="none" width="472.974" height="180.918"/>
<text transform="matrix(1 0 0 1 -290.4663 -288.1187)"><tspan x="0" y="0" font-family="'HelveticaNeueLTStd-Th'" font-size="100" letter-spacing="2">60</tspan><tspan x="-99.268" y="60" font-family="'HelveticaNeueLTStd-Lt'" font-size="48" letter-spacing="1">Weather Icons</tspan><tspan x="-3.726" y="104" font-family="'HelveticaNeueLTStd-Lt'" font-size="24">IOS 7 Style</tspan></text>
</svg>
