<?xml version="1.0" encoding="utf-8"?>
<!-- Generator: Adobe Illustrator 16.0.0, SVG Export Plug-In . SVG Version: 6.00 Build 0)  -->
<!DOCTYPE svg PUBLIC "-//W3C//DTD SVG 1.1//EN" "http://www.w3.org/Graphics/SVG/1.1/DTD/svg11.dtd">
<svg version="1.1" id="Layer_1" xmlns="http://www.w3.org/2000/svg" xmlns:xlink="http://www.w3.org/1999/xlink" x="0px" y="0px"
	 width="58px" height="58.902px" viewBox="0 0 58 58.902" enable-background="new 0 0 58 58.902" xml:space="preserve">
<path d="M240.853,386.354l-1.803,15.077l-0.268,2.237h2.254h6.896l-14.693,18.759l1.789-14.52l0.277-2.245h-2.262h-6.957
	L240.853,386.354 M243.707,379.329l-21.667,28.333h11.004l-2.671,21.667l21.667-27.661h-11.004L243.707,379.329L243.707,379.329z"/>
<path d="M-172.183-75.907c6.79,0,12.749,4.814,14.171,11.448l0.318,1.483l1.514,0.094c4.203,0.262,7.496,3.763,7.496,7.971
	c0,4.396-3.565,7.977-7.957,8c-0.046-0.003-0.091-0.006-0.137-0.007l-2.043-0.036v0.043h-28.337l-0.578-0.003
	c-5.485-0.027-9.948-4.513-9.948-9.998c0-5.514,4.485-10,9.999-10c0.175,0,0.347,0.014,0.519,0.025l0.149,0.011l1.316,0.087
	l0.598-1.176C-182.609-72.864-177.659-75.907-172.183-75.907 M-172.183-77.907c-6.423,0-11.977,3.678-14.702,9.035
	c-0.266-0.018-0.53-0.04-0.8-0.04c-6.627,0-11.999,5.372-11.999,12c0,6.607,5.34,11.965,11.938,11.998v0.003h30.925v-0.007
	c0.046,0.001,0.091,0.007,0.137,0.007c5.521,0,10-4.477,10-10c0-5.311-4.145-9.642-9.372-9.967
	C-157.651-72.323-164.263-77.907-172.183-77.907L-172.183-77.907z"/>
<g>
	<path d="M-49.231-57.496c-1.444-6.742-7.433-11.8-14.605-11.8c-2.185,0-4.258,0.47-6.127,1.313
		c-1.666-3.202-5.006-5.394-8.865-5.394c-5.522,0-10,4.477-10,9.999c0,2.46,0.898,4.702,2.373,6.442
		c-1.428,1.84-2.287,4.144-2.287,6.653c0,5.983,4.836,10.836,10.813,10.865v0.003h28.007v-0.006
		c0.042,0.001,0.082,0.006,0.124,0.006c5.001,0,9.057-4.054,9.057-9.057C-40.743-53.279-44.497-57.201-49.231-57.496z
		 M-78.829-71.376c3.092,0,5.76,1.773,7.092,4.345c-2.299,1.44-4.178,3.488-5.414,5.918c-0.241-0.016-0.48-0.036-0.725-0.036
		c-2.766,0-5.281,1.041-7.2,2.743c-1.092-1.366-1.753-3.09-1.753-4.971C-86.829-67.787-83.24-71.376-78.829-71.376z M-49.76-41.413
		c-0.038-0.003-0.077-0.004-0.117-0.005l-2.047-0.042v0.047h-25.403l-0.594-0.003c-4.864-0.023-8.822-4.001-8.822-8.865
		c0-4.89,3.978-8.868,8.867-8.868c0.15,0,0.299,0.012,0.447,0.021l0.148,0.011l1.314,0.085l0.598-1.174
		c2.224-4.373,6.643-7.09,11.531-7.09c6.062,0,11.381,4.298,12.65,10.219l0.317,1.482l1.514,0.095
		c3.708,0.231,6.612,3.319,6.612,7.03C-42.743-44.592-45.887-41.436-49.76-41.413z"/>
	<rect x="-79.823" y="-83.406" width="2" height="7.973"/>
	<rect x="-98.796" y="-64.42" width="7.973" height="2"/>
	<rect x="-94.07" y="-75.639" transform="matrix(0.7071 0.7071 -0.7071 0.7071 -79.1622 41.8371)" width="7.974" height="2"/>
	<rect x="-68.561" y="-78.621" transform="matrix(0.7071 0.7071 -0.7071 0.7071 -72.5631 25.9132)" width="2" height="7.972"/>
</g>
<path d="M46.512-61.523c-1.444-6.742-7.433-11.8-14.605-11.8c-1.799,0-3.521,0.32-5.118,0.904c-0.949-5.108-5.404-8.98-10.788-8.98
	c-0.413,0-0.819,0.027-1.222,0.071c0.744,1.112,1.179,2.448,1.179,3.886c0,3.865-3.134,7-7,7c-1.438,0-2.773-0.435-3.886-1.179
	C5.027-71.22,5-70.813,5-70.399c0,3.712,1.845,6.987,4.661,8.979C8.008-59.513,7-57.031,7-54.309
	c0,5.983,4.836,10.836,10.813,10.865v0.003h28.007v-0.006c0.042,0.001,0.082,0.006,0.124,0.006c5.001,0,9.057-4.054,9.057-9.057
	C55-57.307,51.246-61.229,46.512-61.523z M7.177-68.619c0.582,0.117,1.178,0.177,1.78,0.177c4.963,0,9-4.037,9-9
	c0-0.603-0.06-1.198-0.177-1.78c3.733,0.753,6.629,3.824,7.134,7.64c-2.713,1.444-4.928,3.699-6.322,6.442
	c-0.241-0.016-0.48-0.036-0.725-0.036c-2.537,0-4.865,0.876-6.715,2.334C9.141-64.137,7.666-66.196,7.177-68.619z M45.983-45.44
	c-0.038-0.003-0.077-0.004-0.117-0.005l-2.047-0.042v0.047H18.416l-0.594-0.003C12.958-45.467,9-49.444,9-54.309
	c0-4.89,3.978-8.868,8.867-8.868c0.15,0,0.299,0.012,0.447,0.021l0.148,0.011l1.314,0.085l0.598-1.174
	c2.224-4.373,6.643-7.09,11.531-7.09c6.062,0,11.381,4.298,12.65,10.219l0.317,1.482l1.514,0.095C50.096-59.296,53-56.208,53-52.497
	C53-48.619,49.856-45.463,45.983-45.44z"/>
<g>
	<rect x="131.157" y="-52.9" width="2" height="7"/>
	<rect x="139.157" y="-56.9" width="2" height="7"/>
	<rect x="123.157" y="-56.9" width="2" height="7"/>
	<rect x="131.157" y="-42.9" width="2" height="7"/>
	<rect x="139.157" y="-46.9" width="2" height="7"/>
	<rect x="123.157" y="-46.9" width="2" height="7"/>
	<path d="M149.785-69.889c-1.596-7.445-8.207-13.029-16.127-13.029c-6.423,0-11.977,3.678-14.702,9.035
		c-0.266-0.018-0.53-0.04-0.8-0.04c-6.627,0-11.999,5.372-11.999,12c0,6.607,5.34,11.965,11.938,11.998v0.003h2.062v-2h-1.604
		l-0.447-0.003c-5.485-0.027-9.948-4.513-9.948-9.998c0-5.514,4.485-10,9.999-10c0.175,0,0.347,0.014,0.52,0.025l0.148,0.01
		l1.316,0.088l0.598-1.176c2.492-4.899,7.443-7.942,12.92-7.942c6.79,0,12.75,4.814,14.172,11.448l0.317,1.482l1.514,0.095
		c4.203,0.262,7.496,3.763,7.496,7.971c0,4.397-3.565,7.977-7.957,8c-0.05-0.003-0.093-0.005-0.137-0.007l-2.043,0.007h-2.863v2
		h4.863v-0.007c0.046,0.001,0.091,0.007,0.137,0.007c5.521,0,10-4.477,10-10C159.157-65.232,155.013-69.563,149.785-69.889z"/>
</g>
<g>
	<path d="M-52.642,19.469c-1.596-7.445-8.207-13.029-16.127-13.029c-6.423,0-11.977,3.678-14.702,9.035
		c-0.266-0.018-0.53-0.04-0.8-0.04c-6.627,0-11.999,5.372-11.999,12c0,6.607,5.34,11.965,11.938,11.998v0.003h2.062v-2h-1.604
		l-0.447-0.003c-5.485-0.027-9.948-4.513-9.948-9.998c0-5.514,4.485-10,9.999-10c0.175,0,0.347,0.014,0.52,0.025l0.148,0.01
		l1.316,0.088l0.598-1.176c2.492-4.899,7.443-7.942,12.92-7.942c6.79,0,12.75,4.814,14.172,11.448l0.317,1.482l1.514,0.095
		c4.203,0.262,7.496,3.763,7.496,7.971c0,4.397-3.565,7.977-7.957,8c-0.05-0.003-0.093-0.005-0.137-0.007l-2.043,0.007h-2.863v2
		h4.863v-0.007c0.046,0.001,0.091,0.007,0.137,0.007c5.521,0,10-4.477,10-10C-43.27,24.125-47.414,19.794-52.642,19.469z"/>
	<polygon points="-71.27,46.464 -71.27,48.404 -71.27,54.464 -69.27,54.464 -69.27,48.404 -69.27,46.464 -69.27,34.464 
		-71.27,34.464 	"/>
	<polygon points="-63.27,42.464 -63.27,44.217 -63.27,50.464 -61.27,50.464 -61.27,44.217 -61.27,42.464 -61.27,30.464 
		-63.27,30.464 	"/>
	<polygon points="-79.27,42.464 -79.27,44.529 -79.27,50.464 -77.27,50.464 -77.27,44.529 -77.27,42.464 -77.27,30.464 
		-79.27,30.464 	"/>
</g>
<g>
	<polygon points="243.008,43.375 236.125,33.545 234.487,34.692 241.37,44.522 242.482,46.111 245.958,51.075 247.597,49.929 
		244.121,44.964 	"/>
	<polygon points="251.01,43.373 244.125,33.545 242.487,34.693 249.373,44.521 250.378,45.957 253.962,51.072 255.601,49.926 
		252.017,44.81 	"/>
	<polygon points="235.008,43.375 228.125,33.545 226.487,34.693 233.37,44.522 234.555,46.215 237.959,51.076 239.597,49.929 
		236.193,45.067 	"/>
	<path d="M254.115,19.735c-1.596-7.445-8.207-13.029-16.127-13.029c-6.423,0-11.977,3.678-14.702,9.035
		c-0.266-0.018-0.53-0.04-0.8-0.04c-6.627,0-11.999,5.372-11.999,12c0,6.607,5.34,11.965,11.938,11.998v0.003h2.062v-2h-1.604
		l-0.447-0.003c-5.485-0.027-9.948-4.513-9.948-9.998c0-5.514,4.485-10,9.999-10c0.175,0,0.347,0.014,0.52,0.025l0.148,0.01
		l1.316,0.088l0.598-1.176c2.492-4.899,7.443-7.942,12.92-7.942c6.79,0,12.75,4.814,14.172,11.448l0.317,1.482l1.514,0.095
		c4.203,0.262,7.496,3.763,7.496,7.971c0,4.397-3.565,7.977-7.957,8c-0.05-0.003-0.093-0.005-0.137-0.007l-1.043,0.007h0.137v2
		h0.863v-0.007c0.046,0.001,0.091,0.007,0.137,0.007c5.521,0,10-4.477,10-10C263.487,24.392,259.343,20.061,254.115,19.735z"/>
</g>
<g>
	<rect x="225.813" y="-89.347" width="2" height="7.973"/>
	<rect x="206.813" y="-70.433" width="7.973" height="2"/>
	<rect x="211.486" y="-81.699" transform="matrix(0.7071 0.7071 -0.7071 0.7071 6.0478 -175.9991)" width="7.974" height="2"/>
	<rect x="236.995" y="-84.681" transform="matrix(0.7071 0.7071 -0.7071 0.7071 12.6469 -191.9231)" width="2" height="7.972"/>
	<rect x="239.813" y="-48.474" width="2" height="7"/>
	<rect x="247.813" y="-52.474" width="2" height="7"/>
	<rect x="231.813" y="-52.474" width="2" height="7"/>
	<rect x="239.813" y="-38.474" width="2" height="7"/>
	<rect x="247.813" y="-42.474" width="2" height="7"/>
	<rect x="231.813" y="-42.474" width="2" height="7"/>
	<path d="M256.325-63.557c-1.444-6.742-7.433-11.8-14.605-11.8c-2.185,0-4.258,0.47-6.126,1.313
		c-1.667-3.202-5.007-5.394-8.866-5.394c-5.522,0-10,4.477-10,9.999c0,2.46,0.899,4.702,2.373,6.442
		c-1.429,1.84-2.287,4.144-2.287,6.653c0,5.983,4.836,10.836,10.813,10.865v0.003h1.188v-2h-0.721l-0.457-0.003
		c-4.864-0.023-8.822-4.001-8.822-8.865c0-4.89,3.978-8.868,8.867-8.868c0.15,0,0.299,0.012,0.447,0.022l0.148,0.01l1.314,0.085
		l0.597-1.175c2.225-4.372,6.644-7.089,11.532-7.089c6.062,0,11.382,4.298,12.649,10.219l0.318,1.483l1.514,0.094
		c3.708,0.23,6.612,3.319,6.612,7.03c0,3.878-3.144,7.035-7.017,7.057c-0.042-0.003-0.079-0.005-0.117-0.005l-2.047,0.005h-0.819v2
		h2.819v-0.006c0.042,0.001,0.082,0.006,0.124,0.006c5.001,0,9.057-4.054,9.057-9.057C264.813-59.34,261.06-63.262,256.325-63.557z
		 M228.405-67.174c-0.241-0.016-0.48-0.036-0.725-0.036c-2.766,0-5.282,1.041-7.2,2.743c-1.092-1.366-1.753-3.09-1.753-4.971
		c0-4.41,3.589-7.999,8-7.999c3.091,0,5.76,1.773,7.091,4.345C231.521-71.651,229.641-69.604,228.405-67.174z"/>
</g>
<g>
	<rect x="340.23" y="-49.921" width="2" height="7"/>
	<rect x="348.23" y="-53.921" width="2" height="7"/>
	<rect x="332.23" y="-53.921" width="2" height="7"/>
	<rect x="340.23" y="-39.921" width="2" height="7"/>
	<rect x="348.23" y="-43.921" width="2" height="7"/>
	<rect x="332.23" y="-43.921" width="2" height="7"/>
	<path d="M356.742-65.004c-1.444-6.742-7.433-11.8-14.605-11.8c-1.799,0-3.522,0.32-5.118,0.904
		c-0.949-5.108-5.404-8.98-10.788-8.98c-0.413,0-0.819,0.027-1.222,0.071c0.744,1.112,1.179,2.448,1.179,3.886c0,3.865-3.134,7-7,7
		c-1.438,0-2.773-0.435-3.886-1.179c-0.044,0.401-0.071,0.809-0.071,1.222c0,3.712,1.845,6.987,4.661,8.979
		c-1.653,1.907-2.661,4.389-2.661,7.111c0,5.983,4.836,10.836,10.813,10.865v0.003h1.188v-2h-0.721l-0.457-0.003
		c-4.864-0.023-8.822-4.001-8.822-8.865c0-4.89,3.978-8.868,8.867-8.868c0.15,0,0.299,0.012,0.447,0.022l0.148,0.01l1.314,0.085
		l0.597-1.175c2.225-4.372,6.644-7.089,11.532-7.089c6.062,0,11.382,4.298,12.649,10.219l0.318,1.483l1.514,0.094
		c3.708,0.23,6.612,3.319,6.612,7.03c0,3.878-3.144,7.035-7.017,7.057c-0.042-0.003-0.079-0.005-0.117-0.005l-2.047,0.005h-0.819v2
		h2.819v-0.006c0.042,0.001,0.082,0.006,0.124,0.006c5.001,0,9.057-4.054,9.057-9.057C365.23-60.787,361.477-64.709,356.742-65.004z
		 M328.822-68.621c-0.241-0.016-0.48-0.036-0.725-0.036c-2.537,0-4.865,0.876-6.715,2.334c-2.012-1.294-3.487-3.354-3.976-5.776
		c0.582,0.117,1.178,0.177,1.78,0.177c4.963,0,9-4.037,9-9c0-0.603-0.06-1.198-0.177-1.78c3.733,0.753,6.629,3.824,7.133,7.64
		C332.433-73.619,330.218-71.364,328.822-68.621z"/>
</g>
<g>
	<polygon points="33,50.902 33,52.843 33,58.902 35,58.902 35,52.843 35,50.902 35,38.902 33,38.902 	"/>
	<polygon points="41,46.902 41,48.655 41,54.902 43,54.902 43,48.655 43,46.902 43,34.902 41,34.902 	"/>
	<polygon points="25,46.902 25,48.968 25,54.902 27,54.902 27,48.968 27,46.902 27,34.902 25,34.902 	"/>
	<rect x="19" width="2" height="7.973"/>
	<rect y="18.914" width="7.973" height="2"/>
	<rect x="4.673" y="7.648" transform="matrix(0.7071 0.7071 -0.7071 0.7071 8.6512 -3.5909)" width="7.974" height="2"/>
	<rect x="30.182" y="4.666" transform="matrix(0.7071 0.7071 -0.7071 0.7071 15.2503 -19.5148)" width="2" height="7.972"/>
	<path d="M49.512,25.79c-1.444-6.742-7.433-11.8-14.605-11.8c-2.185,0-4.258,0.47-6.127,1.313c-1.666-3.202-5.006-5.394-8.865-5.394
		c-5.522,0-10,4.477-10,9.999c0,2.46,0.898,4.702,2.373,6.442C10.859,28.191,10,30.495,10,33.005
		c0,5.983,4.836,10.836,10.813,10.865v0.003H22v-2h-0.721l-0.457-0.003C15.958,41.847,12,37.869,12,33.005
		c0-4.89,3.978-8.868,8.867-8.868c0.15,0,0.299,0.012,0.447,0.022l0.148,0.01l1.314,0.085l0.597-1.175
		c2.225-4.372,6.644-7.089,11.532-7.089c6.062,0,11.382,4.298,12.649,10.219l0.318,1.483l1.514,0.094
		c3.708,0.23,6.612,3.319,6.612,7.03c0,3.878-3.144,7.035-7.017,7.057c-0.042-0.003-0.079-0.005-0.117-0.005l-2.047,0.005H46v2
		h2.819v-0.006c0.042,0.001,0.082,0.006,0.124,0.006c5.001,0,9.057-4.054,9.057-9.057C58,30.007,54.246,26.085,49.512,25.79z
		 M21.592,22.173c-0.241-0.016-0.48-0.036-0.725-0.036c-2.766,0-5.281,1.042-7.2,2.743c-1.092-1.367-1.753-3.09-1.753-4.971
		c0-4.41,3.589-7.999,8-7.999c3.092,0,5.76,1.773,7.092,4.345C24.707,17.694,22.828,19.743,21.592,22.173z"/>
</g>
<g>
	<polygon points="133.397,48.386 133.397,50.326 133.397,56.386 135.397,56.386 135.397,50.326 135.397,48.386 135.397,36.386 
		133.397,36.386 	"/>
	<polygon points="141.397,44.386 141.397,46.139 141.397,52.386 143.397,52.386 143.397,46.139 143.397,44.386 143.397,32.386 
		141.397,32.386 	"/>
	<polygon points="125.397,44.386 125.397,46.451 125.397,52.386 127.397,52.386 127.397,46.451 127.397,44.386 127.397,32.386 
		125.397,32.386 	"/>
	<path d="M149.909,23.273c-1.444-6.742-7.433-11.8-14.605-11.8c-1.799,0-3.521,0.32-5.118,0.904
		c-0.949-5.108-5.404-8.98-10.788-8.98c-0.413,0-0.819,0.027-1.222,0.071c0.744,1.112,1.179,2.448,1.179,3.886c0,3.865-3.134,7-7,7
		c-1.438,0-2.773-0.435-3.886-1.179c-0.044,0.401-0.071,0.809-0.071,1.222c0,3.712,1.845,6.987,4.661,8.979
		c-1.653,1.907-2.661,4.389-2.661,7.111c0,5.983,4.836,10.836,10.813,10.865v0.003h1.188v-2h-0.721l-0.457-0.003
		c-4.864-0.023-8.822-4.001-8.822-8.865c0-4.89,3.978-8.868,8.867-8.868c0.15,0,0.299,0.012,0.447,0.022l0.148,0.01l1.314,0.085
		l0.597-1.175c2.225-4.372,6.644-7.089,11.532-7.089c6.062,0,11.382,4.298,12.649,10.219l0.318,1.483l1.514,0.094
		c3.708,0.23,6.612,3.319,6.612,7.03c0,3.878-3.144,7.035-7.017,7.057c-0.042-0.003-0.079-0.005-0.117-0.005l-2.047,0.005h-0.819v2
		h2.819v-0.006c0.042,0.001,0.082,0.006,0.124,0.006c5.001,0,9.057-4.054,9.057-9.057C158.397,27.49,154.644,23.568,149.909,23.273z
		 M121.989,19.656c-0.241-0.016-0.48-0.036-0.725-0.036c-2.537,0-4.865,0.876-6.715,2.334c-2.012-1.294-3.486-3.354-3.976-5.776
		c0.582,0.117,1.178,0.177,1.78,0.177c4.963,0,9-4.037,9-9c0-0.603-0.06-1.198-0.177-1.78c3.733,0.753,6.629,3.824,7.134,7.641
		C125.599,14.658,123.384,16.914,121.989,19.656z"/>
</g>
<g>
	<polygon points="350.433,49.33 343.55,39.5 341.912,40.647 348.795,50.478 349.907,52.066 353.383,57.03 355.021,55.884 
		351.546,50.919 	"/>
	<polygon points="358.435,49.328 351.55,39.5 349.912,40.648 356.798,50.477 357.803,51.912 361.387,57.027 363.025,55.881 
		359.441,50.765 	"/>
	<polygon points="342.433,49.33 335.55,39.5 333.912,40.648 340.795,50.478 341.979,52.17 345.384,57.031 347.021,55.884 
		343.618,51.022 	"/>
	<rect x="329.912" y="1.781" width="2" height="7.973"/>
	<rect x="310.912" y="20.695" width="7.973" height="2"/>
	<rect x="315.585" y="9.429" transform="matrix(0.7071 0.7071 -0.7071 0.7071 100.9748 -222.9172)" width="7.974" height="2"/>
	<rect x="341.094" y="6.447" transform="matrix(0.7071 0.7071 -0.7071 0.7071 107.5739 -238.8412)" width="2" height="7.972"/>
	<path d="M360.424,27.571c-1.444-6.742-7.433-11.8-14.605-11.8c-2.185,0-4.258,0.47-6.126,1.313
		c-1.667-3.202-5.007-5.394-8.866-5.394c-5.522,0-10,4.477-10,9.999c0,2.46,0.899,4.702,2.373,6.442
		c-1.429,1.84-2.287,4.144-2.287,6.653c0,5.983,4.836,10.836,10.813,10.865v0.003h1.188v-2h-0.721l-0.457-0.003
		c-4.864-0.023-8.822-4.001-8.822-8.865c0-4.89,3.978-8.868,8.867-8.868c0.15,0,0.299,0.012,0.447,0.022l0.148,0.01l1.314,0.085
		l0.597-1.175c2.225-4.372,6.644-7.089,11.532-7.089c6.062,0,11.382,4.298,12.649,10.219l0.318,1.483l1.514,0.094
		c3.708,0.23,6.612,3.319,6.612,7.03c0,3.878-3.144,7.035-7.017,7.057c-0.042-0.003-0.079-0.005-0.117-0.005l-0.047,0.005h-0.819v2
		h0.819v-0.006c0.042,0.001,0.082,0.006,0.124,0.006c5.001,0,9.057-4.054,9.057-9.057C368.912,31.788,365.158,27.866,360.424,27.571
		z M332.504,23.954c-0.241-0.016-0.48-0.036-0.725-0.036c-2.766,0-5.282,1.042-7.2,2.743c-1.092-1.367-1.753-3.09-1.753-4.971
		c0-4.41,3.589-7.999,8-7.999c3.091,0,5.76,1.773,7.091,4.345C335.619,19.476,333.739,21.524,332.504,23.954z"/>
</g>
<g>
	<polygon points="-372.998,145.815 -379.881,135.985 -381.519,137.133 -374.636,146.963 -373.523,148.552 -370.048,153.516 
		-368.409,152.369 -371.885,147.404 	"/>
	<polygon points="-364.996,145.813 -371.881,135.985 -373.519,137.134 -366.633,146.962 -365.628,148.397 -362.044,153.513 
		-360.405,152.366 -363.989,147.25 	"/>
	<polygon points="-380.998,145.815 -387.881,135.985 -389.519,137.134 -382.636,146.963 -381.451,148.655 -378.047,153.517 
		-376.409,152.369 -379.813,147.508 	"/>
	<path d="M-363.007,124.057c-1.444-6.742-7.433-11.8-14.605-11.8c-1.799,0-3.522,0.32-5.118,0.904
		c-0.949-5.108-5.404-8.98-10.788-8.98c-0.413,0-0.819,0.027-1.222,0.071c0.744,1.112,1.179,2.448,1.179,3.886c0,3.865-3.134,7-7,7
		c-1.438,0-2.773-0.435-3.886-1.179c-0.044,0.401-0.071,0.809-0.071,1.222c0,3.712,1.845,6.987,4.661,8.979
		c-1.653,1.907-2.661,4.389-2.661,7.111c0,5.983,4.836,10.836,10.813,10.865v0.003h1.188v-2h-0.721l-0.457-0.003
		c-4.864-0.023-8.822-4.001-8.822-8.865c0-4.89,3.978-8.868,8.867-8.868c0.15,0,0.299,0.012,0.447,0.022l0.148,0.01l1.314,0.085
		l0.597-1.175c2.225-4.372,6.644-7.089,11.532-7.089c6.062,0,11.382,4.298,12.649,10.219l0.318,1.483l1.514,0.094
		c3.708,0.23,6.612,3.319,6.612,7.03c0,3.878-3.144,7.035-7.017,7.057c-0.042-0.003-0.079-0.005-0.117-0.005l-0.047,0.005h-0.819v2
		h0.819v-0.006c0.042,0.001,0.082,0.006,0.124,0.006c5.001,0,9.057-4.054,9.057-9.057
		C-354.519,128.273-358.272,124.352-363.007,124.057z M-390.927,120.439c-0.241-0.016-0.48-0.036-0.725-0.036
		c-2.537,0-4.865,0.876-6.715,2.334c-2.012-1.294-3.487-3.354-3.976-5.776c0.582,0.117,1.178,0.177,1.78,0.177c4.963,0,9-4.037,9-9
		c0-0.603-0.06-1.198-0.177-1.78c3.733,0.753,6.629,3.824,7.133,7.641C-387.316,115.441-389.531,117.697-390.927,120.439z"/>
</g>
<g>
	<rect x="-380.519" y="41.969" width="2" height="4"/>
	<rect x="-372.519" y="37.947" width="2" height="4.021"/>
	<rect x="-388.519" y="37.947" width="2" height="4.021"/>
	<path d="M-361.891,21.98c-1.596-7.445-8.207-13.029-16.127-13.029c-6.423,0-11.977,3.678-14.702,9.035
		c-0.266-0.018-0.53-0.04-0.8-0.04c-6.627,0-11.999,5.372-11.999,12c0,6.607,5.34,11.965,11.938,11.998v0.003h2.062v-2h-1.604
		l-0.447-0.003c-5.485-0.027-9.948-4.513-9.948-9.998c0-5.514,4.485-10,9.999-10c0.175,0,0.347,0.014,0.52,0.025l0.148,0.01
		l1.316,0.088l0.598-1.176c2.492-4.899,7.443-7.942,12.92-7.942c6.79,0,12.75,4.814,14.172,11.448l0.317,1.482l1.514,0.095
		c4.203,0.262,7.496,3.763,7.496,7.971c0,4.397-3.565,7.977-7.957,8c-0.05-0.003-0.093-0.005-0.137-0.007l-2.043,0.007h-2.863v2
		h4.863V41.94c0.046,0.001,0.091,0.007,0.137,0.007c5.521,0,10-4.477,10-10C-352.519,26.637-356.663,22.306-361.891,21.98z"/>
	<circle cx="-371.519" cy="46.989" r="1.5"/>
	<circle cx="-379.519" cy="50.958" r="1.5"/>
	<circle cx="-387.519" cy="46.947" r="1.5"/>
</g>
<g>
	<rect x="-287.598" y="2.515" width="2" height="7.973"/>
	<rect x="-306.598" y="21.429" width="7.973" height="2"/>
	<rect x="-301.925" y="10.162" transform="matrix(0.7071 0.7071 -0.7071 0.7071 -79.3711 213.9429)" width="7.974" height="2"/>
	<rect x="-276.416" y="7.18" transform="matrix(0.7071 0.7071 -0.7071 0.7071 -72.7719 198.019)" width="2" height="7.972"/>
	<path d="M-257.086,28.305c-1.444-6.742-7.433-11.8-14.605-11.8c-2.185,0-4.258,0.47-6.126,1.313
		c-1.667-3.202-5.007-5.394-8.866-5.394c-5.522,0-10,4.477-10,9.999c0,2.46,0.899,4.702,2.373,6.442
		c-1.429,1.84-2.287,4.144-2.287,6.653c0,5.983,4.836,10.836,10.813,10.865v0.003h1.188v-2h-0.721l-0.457-0.003
		c-4.864-0.023-8.822-4.001-8.822-8.865c0-4.89,3.978-8.868,8.867-8.868c0.15,0,0.299,0.012,0.447,0.022l0.148,0.01l1.314,0.085
		l0.597-1.175c2.225-4.372,6.644-7.089,11.532-7.089c6.062,0,11.382,4.298,12.649,10.219l0.318,1.483l1.514,0.094
		c3.708,0.23,6.612,3.319,6.612,7.03c0,3.878-3.144,7.035-7.017,7.057c-0.042-0.003-0.079-0.005-0.117-0.005l-2.047,0.005h-0.819v2
		h2.819v-0.006c0.042,0.001,0.082,0.006,0.124,0.006c5.001,0,9.057-4.054,9.057-9.057C-248.598,32.521-252.352,28.6-257.086,28.305z
		 M-285.006,24.688c-0.241-0.016-0.48-0.036-0.725-0.036c-2.766,0-5.282,1.042-7.2,2.743c-1.092-1.367-1.753-3.09-1.753-4.971
		c0-4.41,3.589-7.999,8-7.999c3.091,0,5.76,1.773,7.091,4.345C-281.891,20.209-283.771,22.258-285.006,24.688z"/>
	<rect x="-273.598" y="46.403" width="2" height="4"/>
	<rect x="-265.598" y="42.382" width="2" height="4.021"/>
	<rect x="-281.598" y="42.382" width="2" height="4.021"/>
	<circle cx="-264.598" cy="51.424" r="1.5"/>
	<circle cx="-272.598" cy="55.393" r="1.5"/>
	<circle cx="-280.598" cy="51.382" r="1.5"/>
</g>
<g>
	<path d="M-156.16,27.348c-1.444-6.742-7.433-11.8-14.605-11.8c-1.799,0-3.522,0.32-5.118,0.904
		c-0.949-5.108-5.404-8.98-10.788-8.98c-0.413,0-0.819,0.027-1.222,0.071c0.744,1.112,1.179,2.448,1.179,3.886c0,3.865-3.134,7-7,7
		c-1.438,0-2.773-0.435-3.886-1.179c-0.044,0.401-0.071,0.809-0.071,1.222c0,3.712,1.845,6.987,4.661,8.979
		c-1.653,1.907-2.661,4.389-2.661,7.111c0,5.983,4.836,10.836,10.813,10.865v0.003h1.188v-2h-0.721l-0.457-0.003
		c-4.864-0.023-8.822-4.001-8.822-8.865c0-4.89,3.978-8.868,8.867-8.868c0.15,0,0.299,0.012,0.447,0.022l0.148,0.01l1.314,0.085
		l0.597-1.175c2.225-4.372,6.644-7.089,11.532-7.089c6.062,0,11.382,4.298,12.649,10.219l0.318,1.483l1.514,0.094
		c3.708,0.23,6.612,3.319,6.612,7.03c0,3.878-3.144,7.035-7.017,7.057c-0.042-0.003-0.079-0.005-0.117-0.005l-2.047,0.005h-0.819v2
		h2.819v-0.006c0.042,0.001,0.082,0.006,0.124,0.006c5.001,0,9.057-4.054,9.057-9.057C-147.672,31.564-151.426,27.643-156.16,27.348
		z M-184.08,23.73c-0.241-0.016-0.48-0.036-0.725-0.036c-2.537,0-4.865,0.876-6.715,2.334c-2.012-1.294-3.487-3.354-3.976-5.776
		c0.582,0.117,1.178,0.177,1.78,0.177c4.963,0,9-4.037,9-9c0-0.603-0.06-1.198-0.177-1.78c3.733,0.753,6.629,3.824,7.133,7.641
		C-180.47,18.732-182.685,20.988-184.08,23.73z"/>
	<rect x="-172.672" y="45.446" width="2" height="4"/>
	<rect x="-164.672" y="41.425" width="2" height="4.021"/>
	<rect x="-180.672" y="41.425" width="2" height="4.021"/>
	<circle cx="-163.672" cy="50.467" r="1.5"/>
	<circle cx="-171.672" cy="54.436" r="1.5"/>
	<circle cx="-179.672" cy="50.425" r="1.5"/>
</g>
<g>
	<path d="M-259.47,120.378c-1.596-7.445-8.207-13.029-16.127-13.029c-6.423,0-11.977,3.678-14.702,9.035
		c-0.266-0.018-0.53-0.04-0.8-0.04c-6.627,0-11.999,5.372-11.999,12c0,6.607,5.34,11.965,11.938,11.998v0.003h6.062v-2h-5.604
		l-0.447-0.003c-5.485-0.027-9.948-4.513-9.948-9.998c0-5.514,4.485-10,9.999-10c0.175,0,0.347,0.014,0.52,0.025l0.148,0.01
		l1.316,0.088l0.598-1.176c2.492-4.899,7.443-7.942,12.92-7.942c6.79,0,12.75,4.814,14.172,11.448l0.317,1.482l1.514,0.095
		c4.203,0.262,7.496,3.763,7.496,7.971c0,4.397-3.565,7.977-7.957,8c-0.05-0.003-0.093-0.005-0.137-0.007l-5.043,0.007h0.137v2
		h4.863v-0.007c0.046,0.001,0.091,0.007,0.137,0.007c5.521,0,10-4.477,10-10C-250.098,125.034-254.242,120.703-259.47,120.378z"/>
	<polygon points="-275.256,140.349 -273.486,140.349 -273.056,140.349 -271.046,140.349 -277.46,131.188 -279.098,132.335 
		-274.887,138.349 -276.657,138.349 -279.098,138.349 -277.826,140.165 -276.714,141.754 -270.736,150.349 -269.098,149.202 
		-275.075,140.606 	"/>
</g>
<g>
	<rect x="-183.672" y="101.248" width="2" height="7.973"/>
	<rect x="-202.672" y="120.162" width="7.973" height="2"/>
	<rect x="-197.999" y="108.896" transform="matrix(0.7071 0.7071 -0.7071 0.7071 20.8831 169.3746)" width="7.974" height="2"/>
	<rect x="-172.49" y="105.914" transform="matrix(0.7071 0.7071 -0.7071 0.7071 27.4823 153.4507)" width="2" height="7.972"/>
	<path d="M-153.16,127.038c-1.444-6.742-7.433-11.8-14.605-11.8c-2.185,0-4.258,0.47-6.127,1.313
		c-1.666-3.202-5.006-5.394-8.865-5.394c-5.522,0-10,4.477-10,9.999c0,2.46,0.898,4.702,2.373,6.442
		c-1.428,1.84-2.287,4.144-2.287,6.653c0,5.983,4.836,10.836,10.813,10.865v0.003h4.188v-2h-3.721l-0.457-0.003
		c-4.864-0.023-8.822-4.001-8.822-8.865c0-4.89,3.978-8.868,8.867-8.868c0.15,0,0.299,0.012,0.447,0.022l0.148,0.01l1.314,0.085
		l0.597-1.175c2.225-4.372,6.644-7.089,11.532-7.089c6.062,0,11.382,4.298,12.649,10.219l0.318,1.483l1.514,0.094
		c3.708,0.23,6.612,3.319,6.612,7.03c0,3.878-3.144,7.035-7.017,7.057c-0.042-0.003-0.079-0.005-0.117-0.005l-2.047,0.005h-3.819v2
		h5.819v-0.006c0.042,0.001,0.082,0.006,0.124,0.006c5.001,0,9.057-4.054,9.057-9.057
		C-144.672,131.255-148.426,127.333-153.16,127.038z M-181.08,123.421c-0.241-0.016-0.48-0.036-0.725-0.036
		c-2.766,0-5.281,1.041-7.2,2.743c-1.092-1.366-1.753-3.09-1.753-4.971c0-4.41,3.589-7.999,8-7.999c3.092,0,5.76,1.773,7.092,4.345
		C-177.965,118.943-179.844,120.991-181.08,123.421z"/>
	<polygon points="-168.83,145.128 -167.061,145.128 -166.63,145.128 -164.62,145.128 -171.034,135.967 -172.672,137.114 
		-168.461,143.128 -170.231,143.128 -172.672,143.128 -171.4,144.944 -170.288,146.533 -164.311,155.128 -162.672,153.981 
		-168.649,145.386 	"/>
</g>
<g>
	<path d="M-53.575,124.742c-1.444-6.742-7.433-11.8-14.605-11.8c-1.799,0-3.521,0.32-5.118,0.904
		c-0.949-5.108-5.404-8.98-10.788-8.98c-0.413,0-0.819,0.027-1.222,0.071c0.744,1.112,1.179,2.448,1.179,3.886c0,3.865-3.134,7-7,7
		c-1.438,0-2.773-0.435-3.886-1.179c-0.044,0.401-0.071,0.809-0.071,1.222c0,3.712,1.845,6.987,4.661,8.979
		c-1.653,1.907-2.661,4.389-2.661,7.111c0,5.983,4.836,10.836,10.813,10.865v0.003h4.188v-2h-3.721l-0.457-0.003
		c-4.864-0.023-8.822-4.001-8.822-8.865c0-4.89,3.978-8.868,8.867-8.868c0.15,0,0.299,0.012,0.447,0.022l0.148,0.01l1.314,0.085
		l0.597-1.175c2.225-4.372,6.644-7.089,11.532-7.089c6.062,0,11.382,4.298,12.649,10.219l0.318,1.483l1.514,0.094
		c3.708,0.23,6.612,3.319,6.612,7.03c0,3.878-3.144,7.035-7.017,7.057c-0.042-0.003-0.079-0.005-0.117-0.005l-2.047,0.005h-3.819v2
		h5.819v-0.006c0.042,0.001,0.082,0.006,0.124,0.006c5.001,0,9.057-4.054,9.057-9.057
		C-45.087,128.959-48.841,125.037-53.575,124.742z M-81.495,121.125c-0.241-0.016-0.48-0.036-0.725-0.036
		c-2.537,0-4.865,0.876-6.715,2.334c-2.012-1.294-3.486-3.354-3.976-5.776c0.582,0.117,1.178,0.177,1.78,0.177c4.963,0,9-4.037,9-9
		c0-0.603-0.06-1.198-0.177-1.78c3.733,0.753,6.629,3.824,7.134,7.64C-77.886,116.127-80.101,118.382-81.495,121.125z"/>
	<polygon points="-69.245,142.832 -67.476,142.832 -67.045,142.832 -65.035,142.832 -71.449,133.671 -73.087,134.818 
		-68.876,140.832 -70.646,140.832 -73.087,140.832 -71.815,142.648 -70.703,144.237 -64.726,152.832 -63.087,151.686 
		-69.064,143.09 	"/>
</g>
<g>
	<path d="M47.31,120.878c-1.596-7.445-8.207-13.029-16.127-13.029c-6.423,0-11.977,3.678-14.702,9.035
		c-0.266-0.018-0.53-0.04-0.8-0.04c-6.627,0-11.999,5.372-11.999,12c0,6.607,5.34,11.965,11.938,11.998v0.003h1.062v-2h-0.604
		l-0.447-0.003c-5.485-0.027-9.948-4.513-9.948-9.998c0-5.514,4.485-10,9.999-10c0.175,0,0.347,0.014,0.52,0.025l0.148,0.01
		l1.316,0.088l0.598-1.176c2.492-4.899,7.443-7.942,12.92-7.942c6.79,0,12.75,4.814,14.172,11.448l0.317,1.482l1.514,0.095
		c4.203,0.262,7.496,3.763,7.496,7.971c0,4.397-3.565,7.977-7.957,8c-0.05-0.003-0.093-0.005-0.137-0.007l-0.906,0.007v2h0.863
		v-0.007c0.046,0.001,0.091,0.007,0.137,0.007c5.521,0,10-4.477,10-10C56.682,125.534,52.537,121.203,47.31,120.878z"/>
	
		<rect x="16.116" y="138.843" transform="matrix(-0.5736 -0.8191 0.8191 -0.5736 -80.3863 237.842)" width="11.183" height="1.999"/>
	
		<rect x="34.091" y="138.843" transform="matrix(-0.5736 -0.8191 0.8191 -0.5736 -52.1007 252.5651)" width="11.183" height="1.999"/>
	<polygon points="32.523,143.849 34.293,143.849 34.724,143.849 36.733,143.849 30.319,134.688 28.682,135.835 32.893,141.849 
		31.122,141.849 28.682,141.849 29.953,143.665 31.065,145.254 35.682,151.849 37.32,150.702 32.704,144.106 	"/>
</g>
<g>
	<rect x="122.157" y="101.411" width="2" height="7.973"/>
	<rect x="103.157" y="120.325" width="7.973" height="2"/>
	<rect x="107.83" y="109.059" transform="matrix(0.7071 0.7071 -0.7071 0.7071 110.5737 -46.8314)" width="7.974" height="2"/>
	<rect x="133.339" y="106.077" transform="matrix(0.7071 0.7071 -0.7071 0.7071 117.1729 -62.7554)" width="2" height="7.972"/>
	<path d="M152.669,127.201c-1.444-6.742-7.433-11.8-14.605-11.8c-2.185,0-4.258,0.47-6.126,1.313
		c-1.667-3.202-5.007-5.394-8.866-5.394c-5.522,0-10,4.477-10,9.999c0,2.46,0.899,4.702,2.373,6.442
		c-1.429,1.84-2.287,4.144-2.287,6.653c0,5.983,4.836,10.836,10.813,10.865v0.003h0.188v-2l-0.178-0.003
		c-4.864-0.023-8.822-4.001-8.822-8.865c0-4.89,3.978-8.868,8.867-8.868c0.15,0,0.299,0.012,0.447,0.022l0.148,0.01l1.314,0.085
		l0.597-1.175c2.225-4.372,6.644-7.089,11.532-7.089c6.062,0,11.382,4.298,12.649,10.219l0.318,1.483l1.514,0.094
		c3.708,0.23,6.612,3.319,6.612,7.03c0,3.878-3.144,7.035-7.017,7.057c-0.042-0.003-0.079-0.005-0.117-0.005l-0.866,0.005v2h0.819
		v-0.006c0.042,0.001,0.082,0.006,0.124,0.006c5.001,0,9.057-4.054,9.057-9.057C161.157,131.418,157.403,127.496,152.669,127.201z
		 M124.749,123.584c-0.241-0.016-0.48-0.036-0.725-0.036c-2.766,0-5.282,1.042-7.2,2.743c-1.092-1.367-1.753-3.09-1.753-4.971
		c0-4.41,3.589-7.999,8-7.999c3.091,0,5.76,1.773,7.091,4.345C127.864,119.105,125.984,121.154,124.749,123.584z"/>
	
		<rect x="122.579" y="143.281" transform="matrix(-0.5736 -0.8191 0.8191 -0.5736 83.5122 332.0312)" width="11.183" height="1.999"/>
	
		<rect x="140.553" y="143.281" transform="matrix(-0.5736 -0.8191 0.8191 -0.5736 111.7977 346.7544)" width="11.183" height="1.999"/>
	<polygon points="138.986,148.287 140.756,148.287 141.187,148.287 143.196,148.287 136.782,139.126 135.145,140.273 
		139.355,146.287 137.585,146.287 135.145,146.287 136.416,148.104 137.528,149.692 142.145,156.287 143.783,155.141 
		139.167,148.545 	"/>
</g>
<g>
	<path d="M254.507,124.243c-1.444-6.742-7.433-11.8-14.605-11.8c-1.799,0-3.522,0.32-5.118,0.904
		c-0.949-5.108-5.404-8.98-10.788-8.98c-0.413,0-0.819,0.027-1.222,0.071c0.744,1.112,1.179,2.448,1.179,3.886c0,3.865-3.134,7-7,7
		c-1.438,0-2.773-0.435-3.886-1.179c-0.044,0.401-0.071,0.809-0.071,1.222c0,3.712,1.845,6.987,4.661,8.979
		c-1.653,1.907-2.661,4.389-2.661,7.111c0,5.983,4.836,10.836,10.813,10.865v0.003h0.188v-2l-0.178-0.003
		c-4.864-0.023-8.822-4.001-8.822-8.865c0-4.89,3.978-8.868,8.867-8.868c0.15,0,0.299,0.012,0.447,0.022l0.148,0.01l1.314,0.085
		l0.597-1.175c2.225-4.372,6.644-7.089,11.532-7.089c6.062,0,11.382,4.298,12.649,10.219l0.318,1.483l1.514,0.094
		c3.708,0.23,6.612,3.319,6.612,7.03c0,3.878-3.144,7.035-7.017,7.057c-0.042-0.003-0.079-0.005-0.117-0.005l-0.866,0.005v2h0.819
		v-0.006c0.042,0.001,0.082,0.006,0.124,0.006c5.001,0,9.057-4.054,9.057-9.057C262.995,128.46,259.241,124.538,254.507,124.243z
		 M226.587,120.626c-0.241-0.016-0.48-0.036-0.725-0.036c-2.537,0-4.865,0.876-6.715,2.334c-2.012-1.294-3.487-3.354-3.976-5.776
		c0.582,0.117,1.178,0.177,1.78,0.177c4.963,0,9-4.037,9-9c0-0.603-0.06-1.198-0.177-1.78c3.733,0.753,6.629,3.824,7.133,7.641
		C230.197,115.628,227.982,117.884,226.587,120.626z"/>
	
		<rect x="224.416" y="140.323" transform="matrix(-0.5736 -0.8191 0.8191 -0.5736 246.1896 410.7919)" width="11.183" height="1.999"/>
	
		<rect x="242.39" y="140.323" transform="matrix(-0.5736 -0.8191 0.8191 -0.5736 274.4751 425.5151)" width="11.183" height="1.999"/>
	<polygon points="240.823,145.329 242.593,145.329 243.023,145.329 245.033,145.329 238.619,136.168 236.981,137.315 
		241.192,143.329 239.422,143.329 236.981,143.329 238.253,145.146 239.365,146.734 243.981,153.329 245.62,152.183 
		241.004,145.587 	"/>
</g>
<g>
	<g>
		<path d="M-156.056,210.698c-1.596-7.445-8.207-13.029-16.127-13.029c-6.423,0-11.977,3.678-14.702,9.035
			c-0.266-0.018-0.53-0.04-0.8-0.04c-6.627,0-11.999,5.372-11.999,12c0,6.607,5.34,11.965,11.938,11.998v0.003h2.062v-2h-1.604
			l-0.447-0.003c-5.485-0.027-9.948-4.513-9.948-9.998c0-5.514,4.485-10,9.999-10c0.175,0,0.347,0.014,0.52,0.025l0.148,0.01
			l1.316,0.088l0.598-1.176c2.492-4.899,7.443-7.942,12.92-7.942c6.79,0,12.75,4.814,14.172,11.448l0.317,1.482l1.514,0.095
			c4.203,0.262,7.496,3.763,7.496,7.971c0,4.397-3.565,7.977-7.957,8c-0.05-0.003-0.093-0.005-0.137-0.007l-2.043,0.007h-2.863v2
			h4.863v-0.007c0.046,0.001,0.091,0.007,0.137,0.007c5.521,0,10-4.477,10-10C-146.684,215.354-150.828,211.023-156.056,210.698z"/>
	</g>
	<g>
		<circle cx="-181.184" cy="224.241" r="1.5"/>
	</g>
	<g>
		<circle cx="-177.184" cy="230.165" r="1.5"/>
	</g>
	<g>
		<circle cx="-169.184" cy="230.165" r="1.5"/>
	</g>
	<g>
		<circle cx="-173.184" cy="224.241" r="1.5"/>
	</g>
	<g>
		<circle cx="-165.184" cy="224.241" r="1.5"/>
	</g>
	<g>
		<circle cx="-181.184" cy="236.187" r="1.5"/>
	</g>
	<g>
		<circle cx="-173.184" cy="236.187" r="1.5"/>
	</g>
	<g>
		<circle cx="-165.184" cy="236.187" r="1.5"/>
	</g>
</g>
<g>
	<g>
		<rect x="-80.27" y="195.221" width="2" height="7.973"/>
	</g>
	<g>
		<rect x="-99.27" y="214.135" width="7.973" height="2"/>
	</g>
	<g>
		<rect x="-94.597" y="202.868" transform="matrix(0.7071 0.7071 -0.7071 0.7071 117.6177 123.7821)" width="7.974" height="2"/>
	</g>
	<g>
		<rect x="-69.088" y="199.886" transform="matrix(0.7071 0.7071 -0.7071 0.7071 124.2168 107.8582)" width="2" height="7.972"/>
	</g>
	<g>
		<path d="M-49.758,221.011c-1.444-6.742-7.433-11.8-14.605-11.8c-2.185,0-4.258,0.47-6.127,1.313
			c-1.666-3.202-5.006-5.394-8.865-5.394c-5.522,0-10,4.477-10,9.999c0,2.46,0.898,4.702,2.373,6.442
			c-1.428,1.84-2.287,4.144-2.287,6.653c0,5.983,4.836,10.836,10.813,10.865v0.003h1.188v-2h-0.721l-0.457-0.003
			c-4.864-0.023-8.822-4.001-8.822-8.865c0-4.89,3.978-8.868,8.867-8.868c0.15,0,0.299,0.012,0.447,0.022l0.148,0.01l1.314,0.085
			l0.597-1.175c2.225-4.372,6.644-7.089,11.532-7.089c6.062,0,11.382,4.298,12.649,10.219l0.318,1.483l1.514,0.094
			c3.708,0.23,6.612,3.319,6.612,7.03c0,3.878-3.144,7.035-7.017,7.057c-0.042-0.003-0.079-0.005-0.117-0.005l-2.047,0.005h-1.819v2
			h3.819v-0.006c0.042,0.001,0.082,0.006,0.124,0.006c5.001,0,9.057-4.054,9.057-9.057
			C-41.27,225.228-45.023,221.306-49.758,221.011z M-77.678,217.394c-0.241-0.016-0.48-0.036-0.725-0.036
			c-2.766,0-5.281,1.042-7.2,2.743c-1.092-1.367-1.753-3.09-1.753-4.971c0-4.41,3.589-7.999,8-7.999c3.092,0,5.76,1.773,7.092,4.345
			C-74.563,212.915-76.441,214.964-77.678,217.394z"/>
	</g>
	<g>
		<circle cx="-73.78" cy="232.604" r="1.5"/>
	</g>
	<g>
		<circle cx="-69.78" cy="238.604" r="1.5"/>
	</g>
	<g>
		<circle cx="-61.78" cy="238.604" r="1.5"/>
	</g>
	<g>
		<circle cx="-65.78" cy="232.604" r="1.5"/>
	</g>
	<g>
		<circle cx="-57.78" cy="232.604" r="1.5"/>
	</g>
	<g>
		<circle cx="-73.78" cy="244.626" r="1.5"/>
	</g>
	<g>
		<circle cx="-65.78" cy="244.626" r="1.5"/>
	</g>
	<g>
		<circle cx="-57.78" cy="244.626" r="1.5"/>
	</g>
</g>
<g>
	<g>
		<path d="M46.193,217.055c-1.444-6.742-7.433-11.8-14.605-11.8c-1.799,0-3.521,0.32-5.118,0.904
			c-0.949-5.108-5.404-8.98-10.788-8.98c-0.413,0-0.819,0.027-1.222,0.071c0.744,1.112,1.179,2.448,1.179,3.886c0,3.865-3.134,7-7,7
			c-1.438,0-2.773-0.435-3.886-1.179c-0.044,0.401-0.071,0.809-0.071,1.222c0,3.712,1.845,6.987,4.661,8.979
			c-1.653,1.907-2.661,4.389-2.661,7.111c0,5.983,4.836,10.836,10.813,10.865v0.003h1.188v-2h-0.721l-0.457-0.003
			c-4.864-0.023-8.822-4.001-8.822-8.865c0-4.89,3.978-8.868,8.867-8.868c0.15,0,0.299,0.012,0.447,0.022l0.148,0.01l1.314,0.085
			l0.597-1.175c2.225-4.372,6.644-7.089,11.532-7.089c6.062,0,11.382,4.298,12.649,10.219l0.318,1.483l1.514,0.094
			c3.708,0.23,6.612,3.319,6.612,7.03c0,3.878-3.144,7.035-7.017,7.057c-0.042-0.003-0.079-0.005-0.117-0.005l-2.047,0.005h-1.819v2
			h3.819v-0.006c0.042,0.001,0.082,0.006,0.124,0.006c5.001,0,9.057-4.054,9.057-9.057C54.682,221.271,50.928,217.35,46.193,217.055
			z M18.273,213.438c-0.241-0.016-0.48-0.036-0.725-0.036c-2.537,0-4.865,0.876-6.715,2.334c-2.012-1.294-3.486-3.354-3.976-5.776
			c0.582,0.117,1.178,0.177,1.78,0.177c4.963,0,9-4.037,9-9c0-0.603-0.06-1.198-0.177-1.78c3.733,0.753,6.629,3.824,7.134,7.64
			C21.883,208.439,19.668,210.694,18.273,213.438z"/>
	</g>
	<g>
		<circle cx="22.182" cy="228.647" r="1.5"/>
	</g>
	<g>
		<circle cx="26.182" cy="234.647" r="1.5"/>
	</g>
	<g>
		<circle cx="34.182" cy="234.647" r="1.5"/>
	</g>
	<g>
		<circle cx="30.182" cy="228.647" r="1.5"/>
	</g>
	<g>
		<circle cx="38.182" cy="228.647" r="1.5"/>
	</g>
	<g>
		<circle cx="22.182" cy="240.669" r="1.5"/>
	</g>
	<g>
		<circle cx="30.182" cy="240.669" r="1.5"/>
	</g>
	<g>
		<circle cx="38.182" cy="240.669" r="1.5"/>
	</g>
</g>
<g>
	<path d="M357.358,118.169c-1.596-7.445-8.207-13.029-16.127-13.029c-6.423,0-11.977,3.678-14.702,9.035
		c-0.266-0.018-0.53-0.04-0.8-0.04c-6.627,0-11.999,5.372-11.999,12c0,6.607,5.34,11.965,11.938,11.998v0.003h2.062v-2h-1.604
		l-0.447-0.003c-5.485-0.027-9.948-4.513-9.948-9.998c0-5.514,4.485-10,9.999-10c0.175,0,0.347,0.014,0.52,0.025l0.148,0.01
		l1.316,0.088l0.598-1.176c2.492-4.899,7.443-7.942,12.92-7.942c6.79,0,12.75,4.814,14.172,11.448l0.317,1.482l1.514,0.095
		c4.203,0.262,7.496,3.763,7.496,7.971c0,4.397-3.565,7.977-7.957,8c-0.05-0.003-0.093-0.005-0.137-0.007l-2.043,0.007h-2.863v2
		h4.863v-0.007c0.046,0.001,0.091,0.007,0.137,0.007c5.521,0,10-4.477,10-10C366.73,122.825,362.586,118.494,357.358,118.169z"/>
	<circle cx="331.73" cy="145.64" r="1.5"/>
	<circle cx="339.73" cy="151.64" r="1.5"/>
	<circle cx="347.73" cy="147.64" r="1.5"/>
	<rect x="330.73" y="129.164" width="2" height="11.976"/>
	<polygon points="340.73,147.104 340.73,145.164 340.73,133.164 338.73,133.164 338.73,145.164 338.73,147.104 338.73,147.14 
		340.73,147.14 	"/>
	<polygon points="348.73,142.917 348.73,141.164 348.73,129.164 346.73,129.164 346.73,141.164 346.73,142.917 346.73,143.14 
		348.73,143.14 	"/>
</g>
<g>
	<rect x="-391.019" y="189.782" width="2" height="7.973"/>
	<rect x="-410.019" y="208.696" width="7.973" height="2"/>
	<rect x="-405.346" y="197.43" transform="matrix(0.7071 0.7071 -0.7071 0.7071 22.7558 341.922)" width="7.974" height="2"/>
	<rect x="-379.837" y="194.448" transform="matrix(0.7071 0.7071 -0.7071 0.7071 29.355 325.998)" width="2" height="7.972"/>
	<path d="M-360.507,215.572c-1.444-6.742-7.433-11.8-14.605-11.8c-2.185,0-4.258,0.47-6.126,1.313
		c-1.667-3.202-5.007-5.394-8.866-5.394c-5.522,0-10,4.477-10,9.999c0,2.46,0.899,4.702,2.373,6.442
		c-1.429,1.84-2.287,4.144-2.287,6.653c0,5.983,4.836,10.836,10.813,10.865v0.003h1.188v-2h-0.721l-0.457-0.003
		c-4.864-0.023-8.822-4.001-8.822-8.865c0-4.89,3.978-8.868,8.867-8.868c0.15,0,0.299,0.012,0.447,0.022l0.148,0.01l1.314,0.085
		l0.597-1.175c2.225-4.372,6.644-7.089,11.532-7.089c6.062,0,11.382,4.298,12.649,10.219l0.318,1.483l1.514,0.094
		c3.708,0.23,6.612,3.319,6.612,7.03c0,3.878-3.144,7.035-7.017,7.057c-0.042-0.003-0.079-0.005-0.117-0.005l-2.047,0.005h-0.819v2
		h2.819v-0.006c0.042,0.001,0.082,0.006,0.124,0.006c5.001,0,9.057-4.054,9.057-9.057
		C-352.019,219.789-355.772,215.867-360.507,215.572z M-388.427,211.955c-0.241-0.016-0.48-0.036-0.725-0.036
		c-2.766,0-5.282,1.041-7.2,2.743c-1.092-1.366-1.753-3.09-1.753-4.971c0-4.41,3.589-7.999,8-7.999c3.091,0,5.76,1.773,7.091,4.345
		C-385.312,207.478-387.191,209.525-388.427,211.955z"/>
	<circle cx="-384.028" cy="242.143" r="1.5"/>
	<circle cx="-376.028" cy="248.143" r="1.5"/>
	<circle cx="-368.028" cy="244.143" r="1.5"/>
	<rect x="-385.028" y="225.667" width="2" height="11.976"/>
	<polygon points="-375.028,243.607 -375.028,241.667 -375.028,229.667 -377.028,229.667 -377.028,241.667 -377.028,243.607 
		-377.028,243.643 -375.028,243.643 	"/>
	<polygon points="-367.028,239.42 -367.028,237.667 -367.028,225.667 -369.028,225.667 -369.028,237.667 -369.028,239.42 
		-369.028,239.643 -367.028,239.643 	"/>
</g>
<g>
	<path d="M-259.904,212.574c-1.444-6.742-7.433-11.8-14.605-11.8c-1.799,0-3.522,0.32-5.118,0.904
		c-0.949-5.108-5.404-8.98-10.788-8.98c-0.413,0-0.819,0.027-1.222,0.071c0.744,1.112,1.179,2.448,1.179,3.886c0,3.865-3.134,7-7,7
		c-1.438,0-2.773-0.435-3.886-1.179c-0.044,0.401-0.071,0.809-0.071,1.222c0,3.712,1.845,6.987,4.661,8.979
		c-1.653,1.907-2.661,4.389-2.661,7.111c0,5.983,4.836,10.836,10.813,10.865v0.003h1.188v-2h-0.721l-0.457-0.003
		c-4.864-0.023-8.822-4.001-8.822-8.865c0-4.89,3.978-8.868,8.867-8.868c0.15,0,0.299,0.012,0.447,0.022l0.148,0.01l1.314,0.085
		l0.597-1.175c2.225-4.372,6.644-7.089,11.532-7.089c6.062,0,11.382,4.298,12.649,10.219l0.318,1.483l1.514,0.094
		c3.708,0.23,6.612,3.319,6.612,7.03c0,3.878-3.144,7.035-7.017,7.057c-0.042-0.003-0.079-0.005-0.117-0.005l-2.047,0.005h-0.819v2
		h2.819v-0.006c0.042,0.001,0.082,0.006,0.124,0.006c5.001,0,9.057-4.054,9.057-9.057
		C-251.416,216.791-255.17,212.869-259.904,212.574z M-287.824,208.957c-0.241-0.016-0.48-0.036-0.725-0.036
		c-2.537,0-4.865,0.876-6.715,2.334c-2.012-1.294-3.487-3.354-3.976-5.776c0.582,0.117,1.178,0.177,1.78,0.177c4.963,0,9-4.037,9-9
		c0-0.603-0.06-1.198-0.177-1.78c3.733,0.753,6.629,3.824,7.133,7.64C-284.214,203.959-286.429,206.214-287.824,208.957z"/>
	<circle cx="-283.416" cy="239.148" r="1.5"/>
	<circle cx="-275.416" cy="245.148" r="1.5"/>
	<circle cx="-267.416" cy="241.148" r="1.5"/>
	<rect x="-284.416" y="222.673" width="2" height="11.976"/>
	<polygon points="-274.416,240.613 -274.416,238.673 -274.416,226.673 -276.416,226.673 -276.416,238.673 -276.416,240.613 
		-276.416,240.648 -274.416,240.648 	"/>
	<polygon points="-266.416,236.426 -266.416,234.673 -266.416,222.673 -268.416,222.673 -268.416,234.673 -268.416,236.426 
		-268.416,236.648 -266.416,236.648 	"/>
</g>
<g>
	<rect x="-408.019" y="317.015" width="56" height="2"/>
	<rect x="-404.019" y="323.015" width="50" height="2"/>
	<rect x="-398.019" y="329.015" width="36" height="2"/>
	<rect x="-406.019" y="311.015" width="52" height="2"/>
	<path d="M-394.145,303.01c0.175,0,0.347,0.014,0.519,0.025l0.149,0.01l1.316,0.088l0.598-1.176
		c2.493-4.899,7.443-7.942,12.92-7.942c6.79,0,12.75,4.814,14.171,11.448l0.318,1.482l1.514,0.095
		c1.207,0.075,2.335,0.425,3.336,0.975h3.286c-1.678-1.703-3.957-2.813-6.498-2.971c-1.596-7.445-8.207-13.029-16.127-13.029
		c-6.423,0-11.977,3.678-14.702,9.035c-0.266-0.018-0.53-0.04-0.8-0.04c-4.843,0-9.004,2.874-10.9,7.005h2.251
		C-401.063,305.028-397.838,303.01-394.145,303.01z"/>
</g>
<g>
	<rect x="-286.916" y="289.5" width="2" height="7.973"/>
	<rect x="-305.916" y="308.414" width="7.973" height="2"/>
	<rect x="-301.243" y="297.148" transform="matrix(0.7071 0.7071 -0.7071 0.7071 123.7579 297.517)" width="7.974" height="2"/>
	<rect x="-275.734" y="294.166" transform="matrix(0.7071 0.7071 -0.7071 0.7071 130.357 281.5931)" width="2" height="7.972"/>
	<rect x="-296.916" y="323.374" width="50" height="2"/>
	<rect x="-292.916" y="329.374" width="44" height="2"/>
	<rect x="-286.916" y="334.374" width="30" height="2"/>
	<rect x="-294.916" y="317.374" width="46" height="2"/>
	<path d="M-294.008,315.374h0.771h1.927h1.012c1.472-1.087,3.283-1.737,5.249-1.737c0.15,0,0.299,0.012,0.447,0.022l0.148,0.01
		l1.314,0.085l0.597-1.175c2.225-4.372,6.644-7.089,11.532-7.089c5.945,0,11.168,4.139,12.563,9.884h2.043v-0.084
		c-1.444-6.742-7.433-11.8-14.605-11.8c-2.185,0-4.258,0.47-6.126,1.313c-1.667-3.202-5.007-5.394-8.866-5.394
		c-5.522,0-10,4.477-10,9.999C-296.002,311.65-295.254,313.709-294.008,315.374z M-286.002,301.41c3.091,0,5.76,1.773,7.091,4.345
		c-2.298,1.44-4.178,3.488-5.413,5.918c-0.241-0.016-0.48-0.036-0.725-0.036c-2.764,0-5.274,1.045-7.189,2.745
		c-1.097-1.366-1.764-3.089-1.764-4.973C-294.002,304.999-290.413,301.41-286.002,301.41z"/>
</g>
<g>
	<rect x="-198.172" y="319.937" width="50" height="2"/>
	<rect x="-194.172" y="325.937" width="44" height="2"/>
	<rect x="-188.172" y="330.937" width="30" height="2"/>
	<rect x="-196.172" y="313.937" width="46" height="2"/>
	<path d="M-194.529,311.937h0.037h1.884h1.055c1.472-1.087,3.283-1.737,5.249-1.737c0.15,0,0.299,0.012,0.447,0.022l0.148,0.01
		l1.314,0.085l0.597-1.175c2.225-4.372,6.644-7.089,11.532-7.089c5.945,0,11.168,4.139,12.563,9.884h2.043v-0.084
		c-1.444-6.742-7.433-11.8-14.605-11.8c-1.799,0-3.521,0.32-5.117,0.903c-0.945-5.111-5.402-8.987-10.789-8.987
		c-0.413,0-0.819,0.027-1.222,0.071c0.744,1.112,1.179,2.448,1.179,3.886c0,3.865-3.134,7-7,7c-1.438,0-2.773-0.435-3.886-1.179
		c-0.044,0.401-0.071,0.809-0.071,1.222C-199.172,306.673-197.336,309.943-194.529,311.937z M-195.215,304.926c4.963,0,9-4.037,9-9
		c0-0.603-0.06-1.198-0.177-1.78c3.735,0.753,6.633,3.828,7.134,7.647c-2.712,1.443-4.927,3.699-6.322,6.442
		c-0.241-0.016-0.48-0.036-0.725-0.036c-2.534,0-4.855,0.879-6.701,2.335c-2.02-1.293-3.5-3.356-3.989-5.785
		C-196.413,304.866-195.817,304.926-195.215,304.926z"/>
</g>
<g>
	<path d="M-66.28,322.95h-19.474l-0.578-0.003c-5.485-0.027-9.948-4.513-9.948-9.998c0-5.514,4.485-10,9.999-10
		c0.175,0,0.347,0.014,0.519,0.025l0.149,0.01l1.316,0.088l0.598-1.176c2.493-4.899,7.443-7.942,12.92-7.942
		c6.79,0,12.75,4.814,14.171,11.448l0.318,1.482l1.514,0.095c1.822,0.113,3.463,0.845,4.746,1.971h2.732
		c-1.707-2.262-4.348-3.78-7.354-3.967c-1.596-7.445-8.207-13.029-16.127-13.029c-6.423,0-11.977,3.678-14.702,9.035
		c-0.266-0.018-0.53-0.04-0.8-0.04c-6.627,0-11.999,5.372-11.999,12c0,6.607,5.34,11.965,11.938,11.998v0.003h20.062
		c2.205,0,4,1.794,4,4s-1.795,4-4,4v2c3.314,0,6-2.686,6-6C-60.28,325.637-62.966,322.95-66.28,322.95z"/>
	<path d="M-62.28,318.95h-15.988v2h15.988c3.314,0,6-2.687,6-6c0-3.314-2.686-6-6-6v2c2.205,0,4,1.794,4,4
		S-60.075,318.95-62.28,318.95z"/>
	<path d="M-49.28,312.95c1.654,0,3,1.346,3,3s-1.346,3-3,3c-0.043,0-0.083-0.011-0.126-0.013h-4.862
		c0.003,0.005,0.009,0.008,0.012,0.013h-0.023v2h5.5v-0.051c2.523-0.254,4.5-2.358,4.5-4.949c0-2.762-2.238-5-5-5V312.95z"/>
	<path d="M-45.28,322.95h-13v2h9.022c-0.004,0.005-0.008,0.008-0.011,0.013h3.862c0.043-0.002,0.083-0.013,0.126-0.013
		c1.654,0,3,1.346,3,3s-1.346,3-3,3v2c2.762,0,5-2.238,5-5S-42.519,322.95-45.28,322.95z"/>
	<rect x="-84.28" y="318.95" width="4" height="2"/>
</g>
<path d="M-273.842-76.153c6.95,1.305,12.226,7.419,12.226,14.742c0,8.272-6.729,15.002-15,15.002c-6.79,0-12.531-4.49-14.366-10.728
	c1.398,0.461,2.867,0.698,4.366,0.698c7.72,0,14-6.281,14-14.001C-272.616-72.424-273.04-74.368-273.842-76.153 M-276.616-78.41
	c-0.338,0-0.668,0.031-1,0.051c1.861,2.113,3,4.881,3,7.92c0,6.627-5.372,12.001-12,12.001c-2.599,0-4.998-0.835-6.963-2.239
	c0.387,9.047,7.821,16.269,16.963,16.269c9.39,0,17-7.612,17-17.002S-267.227-78.41-276.616-78.41L-276.616-78.41z"/>
<g>
	<path d="M-380.012-73.415c-7.18,0-13,5.819-13,12.999c0,7.181,5.82,13.002,13,13.002s13-5.821,13-13.002
		C-367.012-67.596-372.832-73.415-380.012-73.415z M-380.012-49.414c-6.065,0-11-4.936-11-11.002c0-6.064,4.935-10.999,11-10.999
		s11,4.935,11,10.999C-369.012-54.35-373.946-49.414-380.012-49.414z"/>
	<rect x="-381.019" y="-86.409" width="2" height="10"/>
	<rect x="-381.019" y="-44.409" width="2" height="10"/>
	<rect x="-406.012" y="-61.409" width="9.993" height="2"/>
	<rect x="-364.019" y="-61.409" width="10.007" height="2"/>
	<rect x="-366.319" y="-80.323" transform="matrix(0.7071 0.7071 -0.7071 0.7071 -160.1163 236.3177)" width="2" height="10.409"/>
	
		<rect x="-395.727" y="-50.914" transform="matrix(-0.7071 -0.7071 0.7071 -0.7071 -641.5206 -357.1454)" width="2" height="10.41"/>
	<rect x="-399.928" y="-76.114" transform="matrix(0.7071 0.7071 -0.7071 0.7071 -168.7252 257.1111)" width="10.409" height="2"/>
	<rect x="-370.519" y="-46.704" transform="matrix(-0.7072 -0.7071 0.7071 -0.7072 -591.332 -336.3239)" width="10.41" height="2"/>
</g>
<g>
	<rect x="18.154" y="284.452" width="2" height="7.973"/>
	<rect x="-0.818" y="303.438" width="7.973" height="2"/>
	<rect x="3.907" y="292.22" transform="matrix(0.7071 0.7071 -0.7071 0.7071 209.6499 80.2998)" width="7.974" height="2"/>
	<rect x="29.416" y="289.238" transform="matrix(0.7071 0.7071 -0.7071 0.7071 216.2491 64.3759)" width="2" height="7.972"/>
	<path d="M33.182,326.452l0.005-0.007H20.65l-0.594-0.003c-4.864-0.024-8.822-4.001-8.822-8.865c0-4.89,3.978-8.868,8.867-8.868
		c0.15,0,0.299,0.012,0.447,0.021l0.148,0.011l1.314,0.085l0.597-1.174c2.225-4.373,6.644-7.09,11.532-7.09
		c5.916,0,11.114,4.099,12.54,9.8h2.065c-1.444-6.742-7.433-11.8-14.605-11.8c-2.185,0-4.258,0.47-6.126,1.313
		c-1.667-3.202-5.007-5.394-8.866-5.394c-5.522,0-10,4.477-10,9.999c0,2.46,0.899,4.702,2.373,6.442
		c-1.429,1.84-2.287,4.144-2.287,6.653c0,5.983,4.836,10.836,10.813,10.865v0.003h13.135v0.007c2.205,0,4,1.794,4,4s-1.795,4-4,4v2
		c3.314,0,6-2.686,6-6C39.182,329.139,36.496,326.452,33.182,326.452z M19.148,296.482c3.091,0,5.76,1.773,7.091,4.345
		c-2.298,1.439-4.178,3.488-5.413,5.918c-0.241-0.016-0.48-0.036-0.725-0.036c-2.766,0-5.282,1.042-7.2,2.743
		c-1.092-1.367-1.753-3.09-1.753-4.971C11.148,300.071,14.737,296.482,19.148,296.482z"/>
	<path d="M37.182,322.452h-9.988v2h9.988c3.314,0,6-2.687,6-6c0-3.314-2.686-6-6-6v2c2.205,0,4,1.794,4,4
		S39.387,322.452,37.182,322.452z"/>
	<path d="M45.205,322.452h-0.023v2h5.5v-0.051c2.523-0.254,4.5-2.358,4.5-4.949c0-2.762-2.238-5-5-5v2c1.654,0,3,1.346,3,3
		s-1.346,3-3,3c-0.043,0-0.083-0.011-0.126-0.013h-4.862C45.196,322.444,45.202,322.448,45.205,322.452z"/>
	<path d="M54.182,326.452h-13v2h9.022c-0.004,0.004-0.008,0.008-0.011,0.013h3.862c0.043-0.002,0.083-0.013,0.126-0.013
		c1.654,0,3,1.346,3,3s-1.346,3-3,3v2c2.762,0,5-2.238,5-5S56.943,326.452,54.182,326.452z"/>
	<rect x="21.182" y="322.452" width="4" height="2"/>
</g>
<g>
	<path d="M133.144,324.446l0.005-0.007h-12.536l-0.594-0.003c-4.864-0.024-8.822-4.001-8.822-8.865c0-4.89,3.978-8.868,8.867-8.868
		c0.15,0,0.299,0.012,0.447,0.021l0.148,0.011l1.314,0.085l0.597-1.174c2.225-4.373,6.644-7.09,11.532-7.09
		c5.916,0,11.114,4.099,12.54,9.8h2.065c-1.444-6.742-7.433-11.8-14.605-11.8c-1.806,0-3.536,0.322-5.138,0.91
		c-0.938-5.123-5.4-9.01-10.794-9.01c-0.413,0-0.819,0.027-1.222,0.071c0.744,1.112,1.179,2.448,1.179,3.886c0,3.865-3.134,7-7,7
		c-1.438,0-2.773-0.435-3.886-1.179c-0.044,0.401-0.071,0.809-0.071,1.222c0,3.725,1.858,7.009,4.69,8.998
		c-1.655,1.907-2.665,4.392-2.665,7.116c0,5.983,4.836,10.836,10.813,10.865v0.003h13.135v0.007c2.205,0,4,1.794,4,4s-1.795,4-4,4v2
		c3.314,0,6-2.686,6-6C139.144,327.133,136.458,324.446,133.144,324.446z M109.348,301.237c0.582,0.117,1.178,0.177,1.78,0.177
		c4.963,0,9-4.037,9-9c0-0.603-0.06-1.198-0.177-1.78c3.744,0.755,6.646,3.842,7.138,7.674c-2.702,1.444-4.909,3.696-6.301,6.432
		c-0.241-0.016-0.48-0.036-0.725-0.036c-2.535,0-4.861,0.875-6.71,2.33C111.325,305.741,109.839,303.673,109.348,301.237z"/>
	<path d="M137.144,320.446h-9.988v2h9.988c3.314,0,6-2.687,6-6c0-3.314-2.686-6-6-6v2c2.205,0,4,1.794,4,4
		S139.349,320.446,137.144,320.446z"/>
	<path d="M145.167,320.446h-0.023v2h5.5v-0.051c2.523-0.254,4.5-2.358,4.5-4.949c0-2.762-2.238-5-5-5v2c1.654,0,3,1.346,3,3
		s-1.346,3-3,3c-0.043,0-0.083-0.011-0.126-0.013h-4.862C145.158,320.438,145.164,320.442,145.167,320.446z"/>
	<path d="M154.144,324.446h-13v2h9.022c-0.004,0.004-0.008,0.008-0.011,0.013h3.862c0.043-0.002,0.083-0.013,0.126-0.013
		c1.654,0,3,1.346,3,3s-1.346,3-3,3v2c2.762,0,5-2.238,5-5S156.905,324.446,154.144,324.446z"/>
	<rect x="121.144" y="320.446" width="4" height="2"/>
</g>
<g>
	<rect x="234.036" y="287.015" width="2" height="10"/>
	<rect x="209.043" y="312.015" width="9.993" height="2"/>
	<rect x="248.736" y="293.101" transform="matrix(0.7071 0.7071 -0.7071 0.7071 284.0795 -89.2183)" width="2" height="10.409"/>
	<rect x="215.127" y="297.31" transform="matrix(0.7071 0.7071 -0.7071 0.7071 275.4707 -68.4249)" width="10.409" height="2"/>
	<path d="M239.036,327.015h-24v2h24c2.205,0,4,1.794,4,4s-1.795,4-4,4v2c3.314,0,6-2.686,6-6
		C245.036,329.701,242.351,327.015,239.036,327.015z"/>
	<path d="M251.06,323.015h-0.023v2h5.5v-0.051c2.523-0.254,4.5-2.358,4.5-4.949c0-2.762-2.238-5-5-5v2c1.654,0,3,1.346,3,3
		s-1.346,3-3,3c-0.043,0-0.083-0.011-0.126-0.013h-4.862C251.051,323.007,251.057,323.011,251.06,323.015z"/>
	<path d="M260.036,327.015h-13v2h9.022c-0.004,0.004-0.008,0.008-0.011,0.013h3.862c0.043-0.002,0.083-0.013,0.126-0.013
		c1.654,0,3,1.346,3,3s-1.346,3-3,3v2c2.762,0,5-2.238,5-5S262.798,327.015,260.036,327.015z"/>
	<path d="M226.745,323.015h-11.709v2h12.012h0.822h15.166c3.314,0,6-2.687,6-6c0-3.314-2.686-6-6-6v2c2.205,0,4,1.794,4,4
		s-1.795,4-4,4h-12.538c-3.802-1.734-6.455-5.563-6.455-10.007c0-6.064,4.935-10.999,11-10.999c5.384,0,9.868,3.891,10.81,9.006
		h2.021c-0.961-6.23-6.331-11.006-12.831-11.006c-7.18,0-13,5.819-13,12.999C222.043,317.033,223.873,320.63,226.745,323.015z"/>
</g>
<g>
	<path d="M339.263,320.458h-24v2h24c2.205,0,4,1.794,4,4s-1.795,4-4,4v2c3.314,0,6-2.686,6-6
		C345.263,323.145,342.577,320.458,339.263,320.458z"/>
	<path d="M356.763,318.458v-0.051c2.523-0.254,4.5-2.358,4.5-4.949c0-2.762-2.238-5-5-5v2c1.654,0,3,1.346,3,3s-1.346,3-3,3
		c-0.043,0-0.083-0.011-0.126-0.013h-4.862c0.004,0.005,0.009,0.009,0.012,0.013h-0.023v2H356.763z"/>
	<path d="M360.263,320.458h-13v2h9.022c-0.003,0.004-0.007,0.008-0.011,0.013h3.862c0.043-0.002,0.083-0.013,0.126-0.013
		c1.654,0,3,1.346,3,3s-1.346,3-3,3v2c2.762,0,5-2.238,5-5S363.024,320.458,360.263,320.458z"/>
	<path d="M328.097,318.458h15.166c3.314,0,6-2.687,6-6c0-3.314-2.686-6-6-6v2c2.205,0,4,1.794,4,4s-1.795,4-4,4h-12.586
		c-2.596-1.188-4.658-3.339-5.69-6.034c0.849,0.204,1.724,0.309,2.612,0.309c6.168,0,11.187-5.019,11.187-11.188
		c0-1.276-0.22-2.532-0.64-3.717c4.046,1.102,7.168,4.459,7.937,8.63h2.018c-0.964-6.237-6.338-11.016-12.846-11.016
		c-0.259,0-0.511,0.024-0.766,0.039c1.425,1.618,2.297,3.737,2.297,6.063c0,5.072-4.112,9.188-9.187,9.188
		c-1.988,0-3.826-0.641-5.33-1.715c0.162,3.801,1.962,7.165,4.699,9.44h-11.705v2h12.012H328.097z"/>
</g>
<g>
	<path d="M-380.519,405.651h-20c-1.103,0-2-0.897-2-2s0.897-2,2-2h3.445h0.555v-2h-4c-2.209,0-4,1.791-4,4s1.791,4,4,4h20
		c2.205,0,4,1.794,4,4s-1.795,4-4,4v2c3.314,0,6-2.686,6-6C-374.519,408.338-377.204,405.651-380.519,405.651z"/>
	<path d="M-378.519,389.651v2c2.205,0,4,1.794,4,4s-1.795,4-4,4h-15.988v2h15.988c3.314,0,6-2.687,6-6
		C-372.519,392.337-375.204,389.651-378.519,389.651z"/>
	<path d="M-372.519,401.651v2h5.5v-0.051c2.523-0.254,4.5-2.358,4.5-4.949c0-2.762-2.238-5-5-5v2c1.654,0,3,1.346,3,3s-1.346,3-3,3
		c-0.043,0-0.083-0.011-0.126-0.013h-4.862c0.003,0.005,0.009,0.009,0.012,0.013H-372.519z"/>
	<path d="M-361.519,405.651h-11v2h7.022c-0.004,0.004-0.008,0.008-0.011,0.013h3.862c0.043-0.002,0.083-0.013,0.126-0.013
		c1.654,0,3,1.346,3,3s-1.346,3-3,3v2c2.762,0,5-2.238,5-5S-358.757,405.651-361.519,405.651z"/>
</g>
<path d="M155.773,391.998v-0.038h-38.376c-1.103,0-2-0.897-2-2s0.897-2,2-2h33c2.762,0,5-2.238,5-5s-2.238-5-5-5h-37.875v0.008
	c-0.042-0.001-0.083-0.008-0.125-0.008c-2.762,0-5,2.238-5,5s2.238,5,5,5v-2c-1.654,0-3-1.346-3-3s1.346-3,3-3h0.125h3.853h34.022
	c1.654,0,3,1.346,3,3s-1.346,3-3,3h-33c-2.209,0-4,1.791-4,4s1.791,4,4,4h38c1.103,0,2,0.897,2,2s-0.897,2-2,2h-32
	c-2.209,0-4,1.791-4,4s1.791,4,4,4h22c1.103,0,2,0.897,2,2s-0.897,2-2,2h-24.01v0.001c-2.204,0.006-3.99,1.793-3.99,3.999
	s1.786,3.993,3.99,3.999v0.001h12.01c1.103,0,2,0.897,2,2s-0.897,2-2,2h-2c-2.209,0-4,1.791-4,4s1.791,4,4,4v-2
	c-1.103,0-2-0.897-2-2s0.897-2,2-2h2c2.209,0,4-1.791,4-4s-1.791-4-4-4h-12c-1.103,0-2-0.897-2-2s0.897-2,2-2h24
	c2.209,0,4-1.791,4-4c0-2.152-1.704-3.895-3.834-3.983v-0.017h-22.166c-1.103,0-2-0.897-2-2s0.897-2,2-2h32c2.209,0,4-1.791,4-4
	C159.397,393.88,157.804,392.19,155.773,391.998z"/>
<path d="M341.188,382.676v-2.024h-2v2.024c-13.01,0.513-23.462,10.965-23.975,23.976h1.674c1.14-1.222,2.748-2,4.551-2
	c2.26,0,4.233,1.203,5.331,3h1.838c1.098-1.797,3.071-3,5.331-3c2.204,0,4.137,1.144,5.25,2.866v15.134c0,2.21,1.791,4,4,4
	s4-1.79,4-4h-2c0,1.103-0.897,2-2,2s-2-0.897-2-2v-15.134c1.113-1.723,3.046-2.866,5.25-2.866c2.26,0,4.233,1.203,5.331,3h1.838
	c1.098-1.797,3.071-3,5.331-3c1.803,0,3.411,0.778,4.551,2h1.674C364.65,393.641,354.198,383.188,341.188,382.676z M358.938,402.651
	c-2.496,0-4.736,1.114-6.25,2.87c-1.514-1.756-3.754-2.87-6.25-2.87s-4.736,1.114-6.25,2.87c-1.514-1.756-3.754-2.87-6.25-2.87
	s-4.736,1.114-6.25,2.87c-1.514-1.756-3.755-2.87-6.25-2.87c-1.402,0-2.731,0.351-3.897,0.975
	c1.909-10.769,11.339-18.975,22.647-18.975s20.738,8.206,22.647,18.975C361.67,403.002,360.341,402.651,358.938,402.651z"/>
<g>
	<path d="M-64.106,506.964v-17.105c0-2.762-2.238-5-5-5s-5,2.238-5,5v17.105c-1.236,1.263-2,2.988-2,4.895c0,3.866,3.134,7,7,7
		s7-3.134,7-7C-62.106,509.952-62.87,508.227-64.106,506.964z M-69.106,516.858c-2.757,0-5-2.243-5-5
		c0-1.313,0.508-2.554,1.429-3.495l0.571-0.583v-0.816v-17.105c0-1.654,1.346-3,3-3s3,1.346,3,3v17.105v0.816l0.571,0.583
		c0.921,0.941,1.429,2.183,1.429,3.495C-64.106,514.615-66.35,516.858-69.106,516.858z"/>
	<path d="M-68.106,509.034v-15.176h-2v15.176c-1.167,0.413-2.008,1.516-2.008,2.824c0,1.662,1.347,3.008,3.008,3.008
		c1.662,0,3.008-1.346,3.008-3.008C-66.099,510.55-66.938,509.447-68.106,509.034z M-69.106,512.866
		c-0.556,0-1.008-0.452-1.008-1.008s0.452-1.008,1.008-1.008s1.008,0.452,1.008,1.008S-68.551,512.866-69.106,512.866z"/>
</g>
<g>
	<path d="M35.682,506.964v-17.105c0-2.762-2.238-5-5-5s-5,2.238-5,5v17.105c-1.236,1.263-2,2.988-2,4.895c0,3.866,3.134,7,7,7
		s7-3.134,7-7C37.682,509.952,36.918,508.227,35.682,506.964z M30.682,516.858c-2.757,0-5-2.243-5-5
		c0-1.313,0.508-2.554,1.429-3.495l0.571-0.583v-0.816v-17.105c0-1.654,1.346-3,3-3s3,1.346,3,3v17.105v0.816l0.571,0.583
		c0.921,0.941,1.429,2.183,1.429,3.495C35.682,514.615,33.438,516.858,30.682,516.858z"/>
	<path d="M31.682,509.034v-20.176h-2v20.176c-1.167,0.413-2.008,1.516-2.008,2.824c0,1.662,1.347,3.008,3.008,3.008
		c1.662,0,3.008-1.346,3.008-3.008C33.689,510.55,32.85,509.447,31.682,509.034z M30.682,512.866c-0.556,0-1.008-0.452-1.008-1.008
		s0.452-1.008,1.008-1.008s1.008,0.452,1.008,1.008S31.237,512.866,30.682,512.866z"/>
</g>
<g>
	<path d="M-167.216,506.964v-17.105c0-2.762-2.238-5-5-5s-5,2.238-5,5v17.105c-1.236,1.263-2,2.988-2,4.895c0,3.866,3.134,7,7,7
		s7-3.134,7-7C-165.216,509.952-165.979,508.227-167.216,506.964z M-172.216,516.858c-2.757,0-5-2.243-5-5
		c0-1.313,0.508-2.554,1.429-3.495l0.571-0.583v-0.816v-17.105c0-1.654,1.346-3,3-3s3,1.346,3,3v17.105v0.816l0.571,0.583
		c0.921,0.941,1.429,2.183,1.429,3.495C-167.216,514.615-169.459,516.858-172.216,516.858z"/>
	<path d="M-171.216,509.034v-10.176h-2v10.176c-1.167,0.413-2.008,1.516-2.008,2.824c0,1.662,1.347,3.008,3.008,3.008
		c1.662,0,3.008-1.346,3.008-3.008C-169.208,510.55-170.048,509.447-171.216,509.034z M-172.216,512.866
		c-0.556,0-1.008-0.452-1.008-1.008s0.452-1.008,1.008-1.008s1.008,0.452,1.008,1.008S-171.66,512.866-172.216,512.866z"/>
</g>
<g>
	<path d="M-270.861,506.964v-17.105c0-2.762-2.238-5-5-5s-5,2.238-5,5v17.105c-1.236,1.263-2,2.988-2,4.895c0,3.866,3.134,7,7,7
		s7-3.134,7-7C-268.861,509.952-269.625,508.227-270.861,506.964z M-275.861,516.858c-2.757,0-5-2.243-5-5
		c0-1.313,0.508-2.554,1.429-3.495l0.571-0.583v-0.816v-17.105c0-1.654,1.346-3,3-3s3,1.346,3,3v17.105v0.816l0.571,0.583
		c0.921,0.941,1.429,2.183,1.429,3.495C-270.861,514.615-273.104,516.858-275.861,516.858z"/>
	<path d="M-274.861,509.034v-5.176h-2v5.176c-1.167,0.413-2.008,1.516-2.008,2.824c0,1.662,1.347,3.008,3.008,3.008
		c1.662,0,3.008-1.346,3.008-3.008C-272.854,510.55-273.693,509.447-274.861,509.034z M-275.861,512.866
		c-0.556,0-1.008-0.452-1.008-1.008s0.452-1.008,1.008-1.008s1.008,0.452,1.008,1.008S-275.306,512.866-275.861,512.866z"/>
</g>
<g>
	<path d="M-375.519,506.964v-17.105c0-2.762-2.238-5-5-5s-5,2.238-5,5v17.105c-1.236,1.263-2,2.988-2,4.895c0,3.866,3.134,7,7,7
		s7-3.134,7-7C-373.519,509.952-374.282,508.227-375.519,506.964z M-380.519,516.858c-2.757,0-5-2.243-5-5
		c0-1.313,0.508-2.554,1.429-3.495l0.571-0.583v-0.816v-17.105c0-1.654,1.346-3,3-3s3,1.346,3,3v17.105v0.816l0.571,0.583
		c0.921,0.941,1.429,2.183,1.429,3.495C-375.519,514.615-377.762,516.858-380.519,516.858z"/>
	<path d="M-380.519,508.851c-1.661,0-3.008,1.347-3.008,3.008c0,1.662,1.347,3.008,3.008,3.008c1.662,0,3.008-1.346,3.008-3.008
		C-377.511,510.197-378.856,508.851-380.519,508.851z M-380.519,512.866c-0.556,0-1.008-0.452-1.008-1.008s0.452-1.008,1.008-1.008
		s1.008,0.452,1.008,1.008S-379.963,512.866-380.519,512.866z"/>
</g>
<g>
	<path d="M124.406,487.171c-2.209,0-4,1.791-4,4c0,2.21,1.791,4,4,4c2.211,0,4-1.79,4-4
		C128.406,488.962,126.617,487.171,124.406,487.171z M124.406,493.171c-1.103,0-2-0.897-2-2s0.897-2,2-2s2,0.897,2,2
		S125.509,493.171,124.406,493.171z"/>
	<path d="M138.406,515.171c-4.41,0-7.999-3.589-7.999-7.999v-4.002c0-4.41,3.589-7.999,7.999-7.999c2.715,0,5.115,1.362,6.563,3.437
		l1.43-1.43c-1.824-2.429-4.72-4.007-7.992-4.007c-5.522,0-9.999,4.478-9.999,9.999v4.002c0,5.521,4.477,9.999,9.999,9.999
		c3.272,0,6.168-1.579,7.992-4.008l-1.43-1.43C143.522,513.808,141.122,515.171,138.406,515.171z"/>
</g>
<g>
	<path d="M229.103,487.05c-2.209,0-4,1.791-4,4c0,2.21,1.791,4,4,4c2.211,0,4-1.79,4-4
		C233.103,488.841,231.313,487.05,229.103,487.05z M229.103,493.05c-1.103,0-2-0.897-2-2s0.897-2,2-2s2,0.897,2,2
		S230.205,493.05,229.103,493.05z"/>
	<polygon points="248.978,495.171 248.978,493.171 236.978,493.171 234.978,493.171 234.978,517.171 236.978,517.171 
		236.978,505.171 244.978,505.171 244.978,503.171 236.978,503.171 236.978,495.171 	"/>
</g>
<g>
	<path d="M340.188,490.862c-7.179,0-13,5.82-13,13s5.821,13,13,13s13-5.82,13-13S347.367,490.862,340.188,490.862z M340.188,514.862
		c-6.065,0-11-4.935-11-11s4.935-11,11-11s11,4.935,11,11S346.254,514.862,340.188,514.862z"/>
	<path d="M335.922,508.104l6.363-2.121l2.121-6.364l-6.363,2.122L335.922,508.104z M339.624,503.322l1.62-0.54l-0.54,1.62
		l-1.62,0.54L339.624,503.322z"/>
</g>
<g>
	<path d="M-380.519,581.38c-7.179,0-13,5.82-13,13s5.821,13,13,13s13-5.82,13-13S-373.34,581.38-380.519,581.38z M-380.519,605.38
		c-6.065,0-11-4.934-11-11c0-6.064,4.935-11,11-11s11,4.936,11,11C-369.519,600.446-374.453,605.38-380.519,605.38z"/>
	<path d="M-377.957,592.802l-2.586-4.422l-2.529,4.33h0.007c-0.299,0.467-0.478,1.018-0.478,1.613c0,1.656,1.343,3,3,3s3-1.344,3-3
		c0-0.559-0.162-1.074-0.428-1.521H-377.957z M-380.543,595.323c-0.552,0-1-0.449-1-1c0-0.188,0.055-0.367,0.162-0.535l0.864-1.355
		l0.826,1.391c0.098,0.164,0.147,0.332,0.147,0.5C-379.543,594.874-379.991,595.323-380.543,595.323z"/>
</g>
<g>
	<path d="M-275.734,581.38c-7.18,0-13,5.82-13,13s5.82,13,13,13s13-5.82,13-13S-268.555,581.38-275.734,581.38z M-275.734,605.38
		c-6.065,0-11-4.934-11-11c0-6.064,4.935-11,11-11s11,4.936,11,11C-264.734,600.446-269.669,605.38-275.734,605.38z"/>
	<path d="M-274.146,591.8c-0.467-0.299-1.018-0.477-1.613-0.477c-1.658,0-3,1.342-3,3c0,1.656,1.342,3,3,3
		c0.557,0,1.072-0.162,1.52-0.428v0.014l4.422-2.586l-4.328-2.529V591.8z M-275.261,595.175c-0.164,0.098-0.332,0.148-0.498,0.148
		c-0.552,0-1-0.449-1-1c0-0.553,0.448-1,1-1c0.188,0,0.368,0.053,0.535,0.16l1.355,0.865L-275.261,595.175z"/>
</g>
<g>
	<path d="M-172.684,581.38c-7.18,0-13,5.82-13,13s5.82,13,13,13s13-5.82,13-13S-165.504,581.38-172.684,581.38z M-172.684,605.38
		c-6.065,0-11-4.934-11-11c0-6.064,4.935-11,11-11s11,4.936,11,11C-161.684,600.446-166.618,605.38-172.684,605.38z"/>
	<path d="M-172.684,591.323c-1.656,0-3,1.342-3,3c0,0.557,0.162,1.072,0.428,1.52h-0.014l2.586,4.422l2.529-4.328h-0.006
		c0.299-0.467,0.477-1.018,0.477-1.613C-169.684,592.665-171.025,591.323-172.684,591.323z M-171.845,594.858l-0.865,1.355
		l-0.826-1.393c-0.098-0.164-0.147-0.332-0.147-0.498c0-0.553,0.448-1,1-1s1,0.447,1,1
		C-171.684,594.511-171.737,594.69-171.845,594.858z"/>
</g>
<g>
	<path d="M-69.27,581.38c-7.179,0-13,5.82-13,13s5.821,13,13,13s13-5.82,13-13S-62.091,581.38-69.27,581.38z M-69.27,605.38
		c-6.065,0-11-4.934-11-11c0-6.064,4.935-11,11-11s11,4.936,11,11C-58.27,600.446-63.204,605.38-69.27,605.38z"/>
	<path d="M-69.311,591.323c-0.557,0-1.072,0.162-1.52,0.428v-0.014l-4.422,2.586l4.328,2.529v-0.006
		c0.467,0.299,1.018,0.477,1.613,0.477c1.658,0,3-1.342,3-3C-66.311,592.667-67.652,591.323-69.311,591.323z M-69.311,595.323
		c-0.188,0-0.368-0.055-0.535-0.162l-1.355-0.865l1.393-0.826c0.164-0.098,0.332-0.146,0.498-0.146c0.552,0,1,0.447,1,1
		C-68.311,594.874-68.759,595.323-69.311,595.323z"/>
</g>
<g>
	<rect x="-277.421" y="384.651" width="2" height="10"/>
	<rect x="-262.721" y="390.737" transform="matrix(0.7071 0.7071 -0.7071 0.7071 203.3168 301.0335)" width="2" height="10.409"/>
	<rect x="-296.33" y="394.947" transform="matrix(0.7071 0.7071 -0.7071 0.7071 194.7079 321.8269)" width="10.409" height="2"/>
	<polygon points="-283.089,413.905 -281.675,415.319 -277.421,411.065 -277.421,420.651 -275.421,420.651 -275.421,411.065 
		-271.168,415.319 -269.754,413.905 -276.421,407.237 	"/>
	<path d="M-263.414,410.65c0-0.002,0-0.004,0-0.006c0-7.18-5.82-12.999-13-12.999s-13,5.819-13,12.999c0,0.002,0,0.004,0,0.006h-13
		v2h18v-2h-3c0-0.002,0-0.004,0-0.006c0-6.064,4.935-10.999,11-10.999s11,4.935,11,10.999c0,0.002,0,0.004,0,0.006h-3v2h17.995v-2
		H-263.414z"/>
</g>
<g>
	<rect x="-173.676" y="383.464" width="2" height="10"/>
	<rect x="-158.976" y="389.55" transform="matrix(0.7071 0.7071 -0.7071 0.7071 232.8634 227.3268)" width="2" height="10.409"/>
	<rect x="-192.585" y="393.759" transform="matrix(0.7071 0.7071 -0.7071 0.7071 224.2545 248.1202)" width="10.409" height="2"/>
	<polygon points="-171.676,418.011 -171.676,407.464 -173.676,407.464 -173.676,418.011 -177.93,413.757 -179.344,415.171 
		-172.676,421.839 -166.009,415.171 -167.423,413.757 	"/>
	<path d="M-159.669,409.463c0-0.002,0-0.004,0-0.006c0-7.18-5.82-12.999-13-12.999s-13,5.819-13,12.999c0,0.002,0,0.004,0,0.006h-13
		v2h22v-2h-7c0-0.002,0-0.004,0-0.006c0-6.064,4.935-10.999,11-10.999s11,4.935,11,10.999c0,0.002,0,0.004,0,0.006h-7v2h21.995v-2
		H-159.669z"/>
</g>
<g>
	<polygon points="30.682,417.477 30.682,403.094 28.682,403.094 28.682,417.477 24.428,413.223 23.014,414.637 29.682,421.305 
		36.349,414.637 34.935,413.223 	"/>
	<path d="M46.31,398.123c-1.596-7.445-8.207-13.029-16.127-13.029c-6.423,0-11.977,3.678-14.702,9.035
		c-0.266-0.018-0.53-0.04-0.8-0.04c-6.627,0-11.999,5.372-11.999,12c0,6.607,5.34,11.965,11.938,11.998v0.003h6.062v-2h-5.604
		l-0.447-0.003c-5.485-0.027-9.948-4.513-9.948-9.998c0-5.514,4.485-10,9.999-10c0.175,0,0.347,0.014,0.52,0.025l0.148,0.01
		l1.316,0.088l0.598-1.176c2.492-4.899,7.443-7.942,12.92-7.942c6.79,0,12.75,4.814,14.172,11.448l0.317,1.482l1.514,0.095
		c4.203,0.262,7.496,3.763,7.496,7.971c0,4.397-3.565,7.977-7.957,8c-0.05-0.003-0.093-0.005-0.137-0.007l-2.043,0.007h-4.863v2
		h6.863v-0.007c0.046,0.001,0.091,0.007,0.137,0.007c5.521,0,10-4.477,10-10C55.682,402.779,51.537,398.448,46.31,398.123z"/>
</g>
<g>
	<polygon points="-63.334,414.281 -61.92,412.867 -68.587,406.199 -75.255,412.867 -73.841,414.281 -69.587,410.027 
		-69.587,422.613 -67.587,422.613 -67.587,410.027 	"/>
	<path d="M-51.959,399.719c-1.596-7.445-8.207-13.029-16.127-13.029c-6.423,0-11.977,3.678-14.702,9.035
		c-0.266-0.018-0.53-0.04-0.8-0.04c-6.627,0-11.999,5.372-11.999,12c0,6.607,5.34,11.965,11.938,11.998v0.003h10.062v-2h-9.604
		l-0.447-0.003c-5.485-0.027-9.948-4.513-9.948-9.998c0-5.514,4.485-10,9.999-10c0.175,0,0.347,0.014,0.52,0.025l0.148,0.01
		l1.316,0.088l0.598-1.176c2.492-4.899,7.443-7.942,12.92-7.942c6.79,0,12.75,4.814,14.172,11.448l0.317,1.482l1.514,0.095
		c4.203,0.262,7.496,3.763,7.496,7.971c0,4.397-3.565,7.977-7.957,8c-0.05-0.003-0.093-0.005-0.137-0.007l-2.043,0.007h-8.863v2
		h10.863v-0.007c0.046,0.001,0.091,0.007,0.137,0.007c5.521,0,10-4.477,10-10C-42.587,404.375-46.731,400.044-51.959,399.719z"/>
</g>
<g>
	<path d="M150.53,210.203c-1.596-7.445-8.207-13.029-16.127-13.029c-6.423,0-11.977,3.678-14.702,9.035
		c-0.266-0.018-0.53-0.04-0.8-0.04c-6.627,0-11.999,5.372-11.999,12c0,6.607,5.34,11.965,11.938,11.998v0.003h2.062v-2h-1.604
		l-0.447-0.003c-5.485-0.027-9.948-4.513-9.948-9.998c0-5.514,4.485-10,9.999-10c0.175,0,0.347,0.014,0.52,0.025l0.148,0.01
		l1.316,0.088l0.598-1.176c2.492-4.899,7.443-7.942,12.92-7.942c6.79,0,12.75,4.814,14.172,11.448l0.317,1.482l1.514,0.095
		c4.203,0.262,7.496,3.763,7.496,7.971c0,4.397-3.565,7.977-7.957,8c-0.05-0.003-0.093-0.005-0.137-0.007l-2.043,0.007h-0.863v2
		h2.863v-0.007c0.046,0.001,0.091,0.007,0.137,0.007c5.521,0,10-4.477,10-10C159.902,214.859,155.758,210.528,150.53,210.203z"/>
	<polygon points="128.902,229.191 128.902,226.562 131.075,227.784 131.761,226.563 129.291,225.174 131.761,223.784 
		131.075,222.563 128.902,223.786 128.902,221.191 126.902,221.191 126.902,223.83 124.651,222.563 123.966,223.784 
		126.436,225.174 123.966,226.563 124.651,227.784 126.902,226.518 126.902,229.191 	"/>
	<polygon points="134.064,233.546 131.892,234.769 131.892,232.174 129.892,232.174 129.892,234.813 127.641,233.546 
		126.955,234.767 129.425,236.156 126.955,237.546 127.641,238.767 129.892,237.5 129.892,240.174 131.892,240.174 131.892,237.544 
		134.064,238.767 134.75,237.546 132.28,236.156 134.75,234.767 	"/>
	<polygon points="143.08,226.563 140.907,227.786 140.907,225.191 138.907,225.191 138.907,227.83 136.656,226.563 135.971,227.784 
		138.44,229.174 135.971,230.563 136.656,231.784 138.907,230.518 138.907,233.191 140.907,233.191 140.907,230.562 143.08,231.784 
		143.766,230.563 141.296,229.174 143.766,227.784 	"/>
</g>
<g>
	<rect x="226.042" y="192.151" width="2" height="7.973"/>
	<rect x="207.042" y="211.065" width="7.973" height="2"/>
	<rect x="211.715" y="199.799" transform="matrix(0.7071 0.7071 -0.7071 0.7071 205.1639 -93.7118)" width="7.974" height="2"/>
	<rect x="237.224" y="196.817" transform="matrix(0.7071 0.7071 -0.7071 0.7071 211.7631 -109.6358)" width="2" height="7.972"/>
	<path d="M256.554,217.941c-1.444-6.742-7.433-11.8-14.605-11.8c-2.185,0-4.258,0.471-6.127,1.314
		c-1.666-3.203-5.006-5.395-8.865-5.395c-5.522,0-10,4.477-10,9.999c0,2.46,0.899,4.702,2.373,6.442
		c-1.428,1.84-2.287,4.144-2.287,6.653c0,5.983,4.836,10.836,10.813,10.865v0.003h1.188v-2h-0.721l-0.457-0.003
		c-4.864-0.023-8.822-4.001-8.822-8.865c0-4.89,3.978-8.868,8.867-8.868c0.15,0,0.299,0.012,0.447,0.022l0.148,0.01l1.314,0.085
		l0.597-1.175c2.225-4.372,6.644-7.089,11.532-7.089c6.062,0,11.382,4.298,12.649,10.219l0.318,1.483l1.514,0.094
		c3.708,0.23,6.612,3.319,6.612,7.03c0,3.878-3.144,7.035-7.017,7.057c-0.042-0.003-0.079-0.005-0.117-0.005l-1.866,0.005v2h1.819
		v-0.006c0.042,0.001,0.082,0.006,0.124,0.006c5.001,0,9.057-4.054,9.057-9.057C265.042,222.158,261.288,218.236,256.554,217.941z
		 M228.634,214.324c-0.241-0.016-0.48-0.036-0.725-0.036c-2.766,0-5.282,1.041-7.2,2.742c-1.092-1.365-1.753-3.089-1.753-4.97
		c0-4.41,3.589-7.999,8-7.999c3.092,0,5.76,1.773,7.091,4.346C231.749,209.847,229.87,211.895,228.634,214.324z"/>
	<polygon points="236.034,235.044 236.034,232.414 238.207,233.637 238.893,232.416 236.423,231.026 238.893,229.637 
		238.207,228.416 236.034,229.639 236.034,227.044 234.034,227.044 234.034,229.683 231.783,228.416 231.098,229.637 
		233.567,231.026 231.098,232.416 231.783,233.637 234.034,232.37 234.034,235.044 	"/>
	<polygon points="241.196,239.398 239.023,240.621 239.023,238.026 237.023,238.026 237.023,240.665 234.772,239.398 
		234.087,240.619 236.557,242.009 234.087,243.398 234.772,244.619 237.023,243.353 237.023,246.026 239.023,246.026 
		239.023,243.396 241.196,244.619 241.882,243.398 239.412,242.009 241.882,240.619 	"/>
	<polygon points="250.212,232.416 248.039,233.639 248.039,231.044 246.039,231.044 246.039,233.683 243.788,232.416 
		243.103,233.637 245.572,235.026 243.103,236.416 243.788,237.637 246.039,236.37 246.039,239.044 248.039,239.044 
		248.039,236.414 250.212,237.637 250.897,236.416 248.428,235.026 250.897,233.637 	"/>
</g>
<g>
	<path d="M356.742,214.938c-1.444-6.742-7.433-11.8-14.605-11.8c-1.799,0-3.522,0.32-5.118,0.904
		c-0.949-5.108-5.404-8.98-10.788-8.98c-0.413,0-0.819,0.027-1.222,0.071c0.744,1.112,1.179,2.448,1.179,3.886c0,3.865-3.134,7-7,7
		c-1.438,0-2.773-0.435-3.886-1.179c-0.044,0.401-0.071,0.809-0.071,1.222c0,3.713,1.845,6.987,4.661,8.979
		c-1.653,1.907-2.661,4.389-2.661,7.111c0,5.983,4.836,10.836,10.813,10.865v0.003h1.188v-2h-0.721l-0.457-0.003
		c-4.864-0.023-8.822-4.001-8.822-8.865c0-4.89,3.978-8.868,8.867-8.868c0.15,0,0.299,0.012,0.447,0.022l0.148,0.01l1.314,0.085
		l0.597-1.175c2.225-4.372,6.644-7.089,11.532-7.089c6.062,0,11.382,4.298,12.649,10.219l0.318,1.483l1.514,0.094
		c3.708,0.23,6.612,3.319,6.612,7.03c0,3.878-3.144,7.035-7.017,7.057c-0.042-0.003-0.079-0.005-0.117-0.005l-1.866,0.005v2h1.819
		v-0.006c0.042,0.001,0.082,0.006,0.124,0.006c5.001,0,9.057-4.054,9.057-9.057C365.23,219.155,361.477,215.233,356.742,214.938z
		 M328.822,211.321c-0.241-0.016-0.48-0.036-0.725-0.036c-2.537,0-4.865,0.877-6.715,2.334c-2.012-1.294-3.486-3.354-3.976-5.776
		c0.582,0.117,1.178,0.177,1.78,0.177c4.963,0,9-4.037,9-9c0-0.603-0.06-1.198-0.177-1.78c3.733,0.753,6.629,3.824,7.134,7.64
		C332.432,206.323,330.217,208.578,328.822,211.321z"/>
	<polygon points="336.268,232.041 336.268,229.411 338.44,230.634 339.126,229.413 336.656,228.023 339.126,226.634 338.44,225.413 
		336.268,226.636 336.268,224.041 334.268,224.041 334.268,226.68 332.017,225.413 331.331,226.634 333.801,228.023 
		331.331,229.413 332.017,230.634 334.268,229.367 334.268,232.041 	"/>
	<polygon points="341.43,236.396 339.257,237.618 339.257,235.023 337.257,235.023 337.257,237.662 335.006,236.396 334.32,237.616 
		336.79,239.006 334.32,240.396 335.006,241.616 337.257,240.35 337.257,243.023 339.257,243.023 339.257,240.394 341.43,241.616 
		342.115,240.396 339.646,239.006 342.115,237.616 	"/>
	<polygon points="350.445,229.413 348.272,230.636 348.272,228.041 346.272,228.041 346.272,230.68 344.021,229.413 
		343.336,230.634 345.806,232.023 343.336,233.413 344.021,234.634 346.272,233.367 346.272,236.041 348.272,236.041 
		348.272,233.411 350.445,234.634 351.131,233.413 348.661,232.023 351.131,230.634 	"/>
</g>
<rect x="-259.616" y="-352.812" fill="none" width="472.974" height="180.918"/>
<text transform="matrix(1 0 0 1 -79.979 -281.4126)"><tspan x="0" y="0" font-family="'HelveticaNeueLTStd-Th'" font-size="100" letter-spacing="2">60</tspan><tspan x="-99.268" y="60" font-family="'HelveticaNeueLTStd-Lt'" font-size="48" letter-spacing="1">Weather Icons</tspan><tspan x="-3.726" y="104" font-family="'HelveticaNeueLTStd-Lt'" font-size="24">IOS 7 Style</tspan></text>
</svg>
