<?xml version="1.0" encoding="utf-8"?>
<!-- Generator: Adobe Illustrator 16.0.0, SVG Export Plug-In . SVG Version: 6.00 Build 0)  -->
<!DOCTYPE svg PUBLIC "-//W3C//DTD SVG 1.1//EN" "http://www.w3.org/Graphics/SVG/1.1/DTD/svg11.dtd">
<svg version="1.1" id="Layer_1" xmlns="http://www.w3.org/2000/svg" xmlns:xlink="http://www.w3.org/1999/xlink" x="0px" y="0px"
	 width="50px" height="49.336px" viewBox="0 0 50 49.336" enable-background="new 0 0 50 49.336" xml:space="preserve">
<path d="M645.371,282.173l-1.803,15.077l-0.268,2.237h2.254h6.896l-14.693,18.759l1.789-14.52l0.277-2.245h-2.262h-6.957
	L645.371,282.173 M648.226,275.148l-21.667,28.333h11.004l-2.671,21.667l21.667-27.661h-11.004L648.226,275.148L648.226,275.148z"/>
<path d="M232.336-180.088c6.79,0,12.749,4.814,14.171,11.448l0.318,1.483l1.514,0.094c4.203,0.262,7.496,3.763,7.496,7.971
	c0,4.396-3.565,7.977-7.957,8c-0.046-0.003-0.091-0.006-0.137-0.007l-2.043-0.036v0.043h-28.337l-0.578-0.003
	c-5.485-0.027-9.948-4.513-9.948-9.998c0-5.514,4.485-10,9.999-10c0.175,0,0.347,0.014,0.519,0.025l0.149,0.011l1.316,0.087
	l0.598-1.176C221.909-177.045,226.859-180.088,232.336-180.088 M232.336-182.088c-6.423,0-11.977,3.678-14.702,9.035
	c-0.266-0.018-0.53-0.04-0.8-0.04c-6.627,0-11.999,5.372-11.999,12c0,6.607,5.34,11.965,11.938,11.998v0.003h30.925v-0.007
	c0.046,0.001,0.091,0.007,0.137,0.007c5.521,0,10-4.477,10-10c0-5.311-4.145-9.642-9.372-9.967
	C246.867-176.504,240.256-182.088,232.336-182.088L232.336-182.088z"/>
<g>
	<path d="M355.287-161.677c-1.444-6.742-7.433-11.8-14.605-11.8c-2.185,0-4.258,0.47-6.127,1.313
		c-1.666-3.202-5.006-5.394-8.865-5.394c-5.522,0-10,4.477-10,9.999c0,2.46,0.898,4.702,2.373,6.442
		c-1.428,1.84-2.287,4.144-2.287,6.653c0,5.983,4.836,10.836,10.813,10.865v0.003h28.007v-0.006
		c0.042,0.001,0.082,0.006,0.124,0.006c5.001,0,9.057-4.054,9.057-9.057C363.775-157.46,360.021-161.382,355.287-161.677z
		 M325.689-175.557c3.092,0,5.76,1.773,7.092,4.345c-2.299,1.44-4.178,3.488-5.414,5.918c-0.241-0.016-0.48-0.036-0.725-0.036
		c-2.766,0-5.281,1.041-7.2,2.743c-1.092-1.366-1.753-3.09-1.753-4.971C317.689-171.968,321.278-175.557,325.689-175.557z
		 M354.759-145.594c-0.038-0.003-0.077-0.004-0.117-0.005l-2.047-0.042v0.047h-25.403l-0.594-0.003
		c-4.864-0.023-8.822-4.001-8.822-8.865c0-4.89,3.978-8.868,8.867-8.868c0.15,0,0.299,0.012,0.447,0.021l0.148,0.011l1.314,0.085
		l0.598-1.174c2.224-4.373,6.643-7.09,11.531-7.09c6.062,0,11.381,4.298,12.65,10.219l0.317,1.482l1.514,0.095
		c3.708,0.231,6.612,3.319,6.612,7.03C361.775-148.772,358.632-145.616,354.759-145.594z"/>
	<rect x="324.695" y="-187.587" width="2" height="7.973"/>
	<rect x="305.723" y="-168.601" width="7.973" height="2"/>
	<rect x="310.448" y="-179.819" transform="matrix(0.7071 0.7071 -0.7071 0.7071 -34.3483 -274.7145)" width="7.974" height="2"/>
	<rect x="335.957" y="-182.801" transform="matrix(0.7071 0.7071 -0.7071 0.7071 -27.7492 -290.6384)" width="2" height="7.972"/>
</g>
<path d="M451.03-165.704c-1.444-6.742-7.433-11.8-14.605-11.8c-1.799,0-3.521,0.32-5.118,0.904c-0.949-5.108-5.404-8.98-10.788-8.98
	c-0.413,0-0.819,0.027-1.222,0.071c0.744,1.112,1.179,2.448,1.179,3.886c0,3.865-3.134,7-7,7c-1.438,0-2.773-0.435-3.886-1.179
	c-0.044,0.401-0.071,0.809-0.071,1.222c0,3.712,1.845,6.987,4.661,8.979c-1.653,1.907-2.661,4.389-2.661,7.111
	c0,5.983,4.836,10.836,10.813,10.865v0.003h28.007v-0.006c0.042,0.001,0.082,0.006,0.124,0.006c5.001,0,9.057-4.054,9.057-9.057
	C459.519-161.487,455.765-165.409,451.03-165.704z M411.695-172.8c0.582,0.117,1.178,0.177,1.78,0.177c4.963,0,9-4.037,9-9
	c0-0.603-0.06-1.198-0.177-1.78c3.733,0.753,6.629,3.824,7.134,7.64c-2.713,1.444-4.928,3.699-6.322,6.442
	c-0.241-0.016-0.48-0.036-0.725-0.036c-2.537,0-4.865,0.876-6.715,2.334C413.659-168.317,412.185-170.377,411.695-172.8z
	 M450.502-149.621c-0.038-0.003-0.077-0.004-0.117-0.005l-2.047-0.042v0.047h-25.403l-0.594-0.003
	c-4.864-0.023-8.822-4.001-8.822-8.865c0-4.89,3.978-8.868,8.867-8.868c0.15,0,0.299,0.012,0.447,0.021l0.148,0.011l1.314,0.085
	l0.598-1.174c2.224-4.373,6.643-7.09,11.531-7.09c6.062,0,11.381,4.298,12.65,10.219l0.317,1.482l1.514,0.095
	c3.708,0.231,6.612,3.319,6.612,7.03C457.519-152.8,454.375-149.644,450.502-149.621z"/>
<g>
	<rect x="535.676" y="-157.081" width="2" height="7"/>
	<rect x="543.676" y="-161.081" width="2" height="7"/>
	<rect x="527.676" y="-161.081" width="2" height="7"/>
	<rect x="535.676" y="-147.081" width="2" height="7"/>
	<rect x="543.676" y="-151.081" width="2" height="7"/>
	<rect x="527.676" y="-151.081" width="2" height="7"/>
	<path d="M554.304-174.069c-1.596-7.445-8.207-13.029-16.127-13.029c-6.423,0-11.977,3.678-14.702,9.035
		c-0.266-0.018-0.53-0.04-0.8-0.04c-6.627,0-11.999,5.372-11.999,12c0,6.607,5.34,11.965,11.938,11.998v0.003h2.062v-2h-1.604
		l-0.447-0.003c-5.485-0.027-9.948-4.513-9.948-9.998c0-5.514,4.485-10,9.999-10c0.175,0,0.347,0.014,0.52,0.025l0.148,0.01
		l1.316,0.088l0.598-1.176c2.492-4.899,7.443-7.942,12.92-7.942c6.79,0,12.75,4.814,14.172,11.448l0.317,1.482l1.514,0.095
		c4.203,0.262,7.496,3.763,7.496,7.971c0,4.397-3.565,7.977-7.957,8c-0.05-0.003-0.093-0.005-0.137-0.007l-2.043,0.007h-2.863v2
		h4.863v-0.007c0.046,0.001,0.091,0.007,0.137,0.007c5.521,0,10-4.477,10-10C563.676-169.413,559.531-173.744,554.304-174.069z"/>
</g>
<g>
	<path d="M351.877-84.712c-1.596-7.445-8.207-13.029-16.127-13.029c-6.423,0-11.977,3.678-14.702,9.035
		c-0.266-0.018-0.53-0.04-0.8-0.04c-6.627,0-11.999,5.372-11.999,12c0,6.607,5.34,11.965,11.938,11.998v0.003h2.062v-2h-1.604
		l-0.447-0.003c-5.485-0.027-9.948-4.513-9.948-9.998c0-5.514,4.485-10,9.999-10c0.175,0,0.347,0.014,0.52,0.025l0.148,0.01
		l1.316,0.088l0.598-1.176c2.492-4.899,7.443-7.942,12.92-7.942c6.79,0,12.75,4.814,14.172,11.448l0.317,1.482l1.514,0.095
		c4.203,0.262,7.496,3.763,7.496,7.971c0,4.397-3.565,7.977-7.957,8c-0.05-0.003-0.093-0.005-0.137-0.007l-2.043,0.007h-2.863v2
		h4.863v-0.007c0.046,0.001,0.091,0.007,0.137,0.007c5.521,0,10-4.477,10-10C361.249-80.056,357.104-84.387,351.877-84.712z"/>
	<polygon points="333.249,-57.717 333.249,-55.776 333.249,-49.717 335.249,-49.717 335.249,-55.776 335.249,-57.717 
		335.249,-69.717 333.249,-69.717 	"/>
	<polygon points="341.249,-61.717 341.249,-59.964 341.249,-53.717 343.249,-53.717 343.249,-59.964 343.249,-61.717 
		343.249,-73.717 341.249,-73.717 	"/>
	<polygon points="325.249,-61.717 325.249,-59.651 325.249,-53.717 327.249,-53.717 327.249,-59.651 327.249,-61.717 
		327.249,-73.717 325.249,-73.717 	"/>
</g>
<g>
	<polygon points="647.526,-60.806 640.644,-70.636 639.006,-69.488 645.889,-59.658 647.001,-58.069 650.477,-53.105 
		652.115,-54.252 648.64,-59.217 	"/>
	<polygon points="655.528,-60.808 648.644,-70.636 647.006,-69.487 653.892,-59.659 654.896,-58.224 658.48,-53.108 
		660.119,-54.255 656.535,-59.371 	"/>
	<polygon points="639.526,-60.806 632.644,-70.636 631.006,-69.487 637.889,-59.658 639.073,-57.966 642.478,-53.104 
		644.115,-54.252 640.712,-59.113 	"/>
	<path d="M658.634-84.445c-1.596-7.445-8.207-13.029-16.127-13.029c-6.423,0-11.977,3.678-14.702,9.035
		c-0.266-0.018-0.53-0.04-0.8-0.04c-6.627,0-11.999,5.372-11.999,12c0,6.607,5.34,11.965,11.938,11.998v0.003h2.062v-2h-1.604
		l-0.447-0.003c-5.485-0.027-9.948-4.513-9.948-9.998c0-5.514,4.485-10,9.999-10c0.175,0,0.347,0.014,0.52,0.025l0.148,0.01
		l1.316,0.088l0.598-1.176c2.492-4.899,7.443-7.942,12.92-7.942c6.79,0,12.75,4.814,14.172,11.448l0.317,1.482l1.514,0.095
		c4.203,0.262,7.496,3.763,7.496,7.971c0,4.397-3.565,7.977-7.957,8c-0.05-0.003-0.093-0.005-0.137-0.007l-1.043,0.007h0.137v2
		h0.863v-0.007c0.046,0.001,0.091,0.007,0.137,0.007c5.521,0,10-4.477,10-10C668.006-79.789,663.861-84.12,658.634-84.445z"/>
</g>
<g>
	<rect x="630.332" y="-193.527" width="2" height="7.973"/>
	<rect x="611.332" y="-174.613" width="7.973" height="2"/>
	<rect x="616.005" y="-185.88" transform="matrix(0.7071 0.7071 -0.7071 0.7071 50.8617 -492.5507)" width="7.974" height="2"/>
	<rect x="641.514" y="-188.862" transform="matrix(0.7071 0.7071 -0.7071 0.7071 57.4608 -508.4747)" width="2" height="7.972"/>
	<rect x="644.332" y="-152.654" width="2" height="7"/>
	<rect x="652.332" y="-156.654" width="2" height="7"/>
	<rect x="636.332" y="-156.654" width="2" height="7"/>
	<rect x="644.332" y="-142.654" width="2" height="7"/>
	<rect x="652.332" y="-146.654" width="2" height="7"/>
	<rect x="636.332" y="-146.654" width="2" height="7"/>
	<path d="M660.844-167.737c-1.444-6.742-7.433-11.8-14.605-11.8c-2.185,0-4.258,0.47-6.126,1.313
		c-1.667-3.202-5.007-5.394-8.866-5.394c-5.522,0-10,4.477-10,9.999c0,2.46,0.899,4.702,2.373,6.442
		c-1.429,1.84-2.287,4.144-2.287,6.653c0,5.983,4.836,10.836,10.813,10.865v0.003h1.188v-2h-0.721l-0.457-0.003
		c-4.864-0.023-8.822-4.001-8.822-8.865c0-4.89,3.978-8.868,8.867-8.868c0.15,0,0.299,0.012,0.447,0.022l0.148,0.01l1.314,0.085
		l0.597-1.175c2.225-4.372,6.644-7.089,11.532-7.089c6.062,0,11.382,4.298,12.649,10.219l0.318,1.483l1.514,0.094
		c3.708,0.23,6.612,3.319,6.612,7.03c0,3.878-3.144,7.035-7.017,7.057c-0.042-0.003-0.079-0.005-0.117-0.005l-2.047,0.005h-0.819v2
		h2.819v-0.006c0.042,0.001,0.082,0.006,0.124,0.006c5.001,0,9.057-4.054,9.057-9.057
		C669.332-163.521,665.578-167.442,660.844-167.737z M632.924-171.354c-0.241-0.016-0.48-0.036-0.725-0.036
		c-2.766,0-5.282,1.041-7.2,2.743c-1.092-1.366-1.753-3.09-1.753-4.971c0-4.41,3.589-7.999,8-7.999c3.091,0,5.76,1.773,7.091,4.345
		C636.039-175.832,634.159-173.784,632.924-171.354z"/>
</g>
<g>
	<rect x="744.749" y="-154.102" width="2" height="7"/>
	<rect x="752.749" y="-158.102" width="2" height="7"/>
	<rect x="736.749" y="-158.102" width="2" height="7"/>
	<rect x="744.749" y="-144.102" width="2" height="7"/>
	<rect x="752.749" y="-148.102" width="2" height="7"/>
	<rect x="736.749" y="-148.102" width="2" height="7"/>
	<path d="M761.261-169.185c-1.444-6.742-7.433-11.8-14.605-11.8c-1.799,0-3.522,0.32-5.118,0.904
		c-0.949-5.108-5.404-8.98-10.788-8.98c-0.413,0-0.819,0.027-1.222,0.071c0.744,1.112,1.179,2.448,1.179,3.886c0,3.865-3.134,7-7,7
		c-1.438,0-2.773-0.435-3.886-1.179c-0.044,0.401-0.071,0.809-0.071,1.222c0,3.712,1.845,6.987,4.661,8.979
		c-1.653,1.907-2.661,4.389-2.661,7.111c0,5.983,4.836,10.836,10.813,10.865v0.003h1.188v-2h-0.721l-0.457-0.003
		c-4.864-0.023-8.822-4.001-8.822-8.865c0-4.89,3.978-8.868,8.867-8.868c0.15,0,0.299,0.012,0.447,0.022l0.148,0.01l1.314,0.085
		l0.597-1.175c2.225-4.372,6.644-7.089,11.532-7.089c6.062,0,11.382,4.298,12.649,10.219l0.318,1.483l1.514,0.094
		c3.708,0.23,6.612,3.319,6.612,7.03c0,3.878-3.144,7.035-7.017,7.057c-0.042-0.003-0.079-0.005-0.117-0.005l-2.047,0.005h-0.819v2
		h2.819v-0.006c0.042,0.001,0.082,0.006,0.124,0.006c5.001,0,9.057-4.054,9.057-9.057
		C769.749-164.968,765.995-168.89,761.261-169.185z M733.341-172.802c-0.241-0.016-0.48-0.036-0.725-0.036
		c-2.537,0-4.865,0.876-6.715,2.334c-2.012-1.294-3.487-3.354-3.976-5.776c0.582,0.117,1.178,0.177,1.78,0.177c4.963,0,9-4.037,9-9
		c0-0.603-0.06-1.198-0.177-1.78c3.733,0.753,6.629,3.824,7.133,7.64C736.951-177.8,734.736-175.545,733.341-172.802z"/>
</g>
<g>
	<polygon points="437.519,-53.278 437.519,-51.338 437.519,-45.278 439.519,-45.278 439.519,-51.338 439.519,-53.278 
		439.519,-65.278 437.519,-65.278 	"/>
	<polygon points="445.519,-57.278 445.519,-55.525 445.519,-49.278 447.519,-49.278 447.519,-55.525 447.519,-57.278 
		447.519,-69.278 445.519,-69.278 	"/>
	<polygon points="429.519,-57.278 429.519,-55.213 429.519,-49.278 431.519,-49.278 431.519,-55.213 431.519,-57.278 
		431.519,-69.278 429.519,-69.278 	"/>
	<rect x="423.519" y="-104.181" width="2" height="7.973"/>
	<rect x="404.519" y="-85.267" width="7.973" height="2"/>
	<rect x="409.192" y="-96.533" transform="matrix(0.7071 0.7071 -0.7071 0.7071 53.4651 -320.1425)" width="7.974" height="2"/>
	<rect x="434.7" y="-99.515" transform="matrix(0.7071 0.7071 -0.7071 0.7071 60.0642 -336.0664)" width="2" height="7.972"/>
	<path d="M454.03-78.391c-1.444-6.742-7.433-11.8-14.605-11.8c-2.185,0-4.258,0.47-6.127,1.313
		c-1.666-3.202-5.006-5.394-8.865-5.394c-5.522,0-10,4.477-10,9.999c0,2.46,0.898,4.702,2.373,6.442
		c-1.428,1.84-2.287,4.144-2.287,6.653c0,5.983,4.836,10.836,10.813,10.865v0.003h1.188v-2h-0.721l-0.457-0.003
		c-4.864-0.023-8.822-4.001-8.822-8.865c0-4.89,3.978-8.868,8.867-8.868c0.15,0,0.299,0.012,0.447,0.022l0.148,0.01l1.314,0.085
		l0.597-1.175c2.225-4.372,6.644-7.089,11.532-7.089c6.062,0,11.382,4.298,12.649,10.219l0.318,1.483l1.514,0.094
		c3.708,0.23,6.612,3.319,6.612,7.03c0,3.878-3.144,7.035-7.017,7.057c-0.042-0.003-0.079-0.005-0.117-0.005l-2.047,0.005h-0.819v2
		h2.819v-0.006c0.042,0.001,0.082,0.006,0.124,0.006c5.001,0,9.057-4.054,9.057-9.057C462.519-74.174,458.765-78.096,454.03-78.391z
		 M426.11-82.008c-0.241-0.016-0.48-0.036-0.725-0.036c-2.766,0-5.281,1.042-7.2,2.743c-1.092-1.367-1.753-3.09-1.753-4.971
		c0-4.41,3.589-7.999,8-7.999c3.092,0,5.76,1.773,7.092,4.345C429.226-86.486,427.347-84.438,426.11-82.008z"/>
</g>
<g>
	<polygon points="537.916,-55.795 537.916,-53.854 537.916,-47.795 539.916,-47.795 539.916,-53.854 539.916,-55.795 
		539.916,-67.795 537.916,-67.795 	"/>
	<polygon points="545.916,-59.795 545.916,-58.042 545.916,-51.795 547.916,-51.795 547.916,-58.042 547.916,-59.795 
		547.916,-71.795 545.916,-71.795 	"/>
	<polygon points="529.916,-59.795 529.916,-57.729 529.916,-51.795 531.916,-51.795 531.916,-57.729 531.916,-59.795 
		531.916,-71.795 529.916,-71.795 	"/>
	<path d="M554.428-80.907c-1.444-6.742-7.433-11.8-14.605-11.8c-1.799,0-3.521,0.32-5.118,0.904
		c-0.949-5.108-5.404-8.98-10.788-8.98c-0.413,0-0.819,0.027-1.222,0.071c0.744,1.112,1.179,2.448,1.179,3.886c0,3.865-3.134,7-7,7
		c-1.438,0-2.773-0.435-3.886-1.179c-0.044,0.401-0.071,0.809-0.071,1.222c0,3.712,1.845,6.987,4.661,8.979
		c-1.653,1.907-2.661,4.389-2.661,7.111c0,5.983,4.836,10.836,10.813,10.865v0.003h1.188v-2h-0.721l-0.457-0.003
		c-4.864-0.023-8.822-4.001-8.822-8.865c0-4.89,3.978-8.868,8.867-8.868c0.15,0,0.299,0.012,0.447,0.022l0.148,0.01l1.314,0.085
		l0.597-1.175c2.225-4.372,6.644-7.089,11.532-7.089c6.062,0,11.382,4.298,12.649,10.219l0.318,1.483l1.514,0.094
		c3.708,0.23,6.612,3.319,6.612,7.03c0,3.878-3.144,7.035-7.017,7.057c-0.042-0.003-0.079-0.005-0.117-0.005l-2.047,0.005h-0.819v2
		h2.819v-0.006c0.042,0.001,0.082,0.006,0.124,0.006c5.001,0,9.057-4.054,9.057-9.057C562.916-76.69,559.162-80.612,554.428-80.907z
		 M526.508-84.524c-0.241-0.016-0.48-0.036-0.725-0.036c-2.537,0-4.865,0.876-6.715,2.334c-2.012-1.294-3.486-3.354-3.976-5.776
		c0.582,0.117,1.178,0.177,1.78,0.177c4.963,0,9-4.037,9-9c0-0.603-0.06-1.198-0.177-1.78c3.733,0.753,6.629,3.824,7.134,7.641
		C530.117-89.522,527.902-87.267,526.508-84.524z"/>
</g>
<g>
	<polygon points="754.951,-54.851 748.068,-64.681 746.431,-63.533 753.313,-53.703 754.426,-52.114 757.901,-47.15 759.54,-48.297 
		756.064,-53.262 	"/>
	<polygon points="762.953,-54.853 756.068,-64.681 754.431,-63.532 761.316,-53.704 762.321,-52.269 765.905,-47.153 767.544,-48.3 
		763.96,-53.416 	"/>
	<polygon points="746.951,-54.851 740.068,-64.681 738.431,-63.532 745.313,-53.703 746.498,-52.011 749.902,-47.149 
		751.54,-48.297 748.137,-53.158 	"/>
	<rect x="734.431" y="-102.399" width="2" height="7.973"/>
	<rect x="715.431" y="-83.485" width="7.973" height="2"/>
	<rect x="720.104" y="-94.752" transform="matrix(0.7071 0.7071 -0.7071 0.7071 145.7886 -539.4689)" width="7.974" height="2"/>
	<rect x="745.612" y="-97.734" transform="matrix(0.7071 0.7071 -0.7071 0.7071 152.3878 -555.3928)" width="2" height="7.972"/>
	<path d="M764.942-76.609c-1.444-6.742-7.433-11.8-14.605-11.8c-2.185,0-4.258,0.47-6.126,1.313
		c-1.667-3.202-5.007-5.394-8.866-5.394c-5.522,0-10,4.477-10,9.999c0,2.46,0.899,4.702,2.373,6.442
		c-1.429,1.84-2.287,4.144-2.287,6.653c0,5.983,4.836,10.836,10.813,10.865v0.003h1.188v-2h-0.721l-0.457-0.003
		c-4.864-0.023-8.822-4.001-8.822-8.865c0-4.89,3.978-8.868,8.867-8.868c0.15,0,0.299,0.012,0.447,0.022l0.148,0.01l1.314,0.085
		l0.597-1.175c2.225-4.372,6.644-7.089,11.532-7.089c6.062,0,11.382,4.298,12.649,10.219l0.318,1.483l1.514,0.094
		c3.708,0.23,6.612,3.319,6.612,7.03c0,3.878-3.144,7.035-7.017,7.057c-0.042-0.003-0.079-0.005-0.117-0.005l-0.047,0.005h-0.819v2
		h0.819v-0.006c0.042,0.001,0.082,0.006,0.124,0.006c5.001,0,9.057-4.054,9.057-9.057C773.431-72.393,769.677-76.314,764.942-76.609
		z M737.022-80.227c-0.241-0.016-0.48-0.036-0.725-0.036c-2.766,0-5.282,1.042-7.2,2.743c-1.092-1.367-1.753-3.09-1.753-4.971
		c0-4.41,3.589-7.999,8-7.999c3.091,0,5.76,1.773,7.091,4.345C740.138-84.705,738.258-82.656,737.022-80.227z"/>
</g>
<g>
	<polygon points="31.521,41.635 24.638,31.805 23,32.952 29.883,42.782 30.995,44.371 34.471,49.335 36.109,48.188 32.634,43.224 	
		"/>
	<polygon points="39.522,41.633 32.638,31.805 31,32.953 37.886,42.781 38.891,44.217 42.475,49.332 44.113,48.186 40.529,43.069 	
		"/>
	<polygon points="23.521,41.635 16.638,31.805 15,32.953 21.883,42.782 23.067,44.475 26.472,49.336 28.109,48.188 24.706,43.327 	
		"/>
	<path d="M41.512,19.876c-1.444-6.742-7.433-11.8-14.605-11.8c-1.799,0-3.522,0.32-5.118,0.904C20.839,3.872,16.384,0,11,0
		c-0.413,0-0.819,0.027-1.222,0.071c0.744,1.112,1.179,2.448,1.179,3.886c0,3.865-3.134,7-7,7c-1.438,0-2.773-0.435-3.886-1.179
		C0.027,10.18,0,10.587,0,11c0,3.712,1.845,6.987,4.661,8.979C3.008,21.887,2,24.368,2,27.091c0,5.983,4.836,10.836,10.813,10.865
		v0.003H14v-2h-0.721l-0.457-0.003C7.958,35.933,4,31.955,4,27.091c0-4.89,3.978-8.868,8.867-8.868c0.15,0,0.299,0.012,0.447,0.022
		l0.148,0.01l1.314,0.085l0.597-1.175c2.225-4.372,6.644-7.089,11.532-7.089c6.062,0,11.382,4.298,12.649,10.219l0.318,1.483
		l1.514,0.094c3.708,0.23,6.612,3.319,6.612,7.03c0,3.878-3.144,7.035-7.017,7.057c-0.042-0.003-0.079-0.005-0.117-0.005
		l-0.047,0.005H40v2h0.819v-0.006c0.042,0.001,0.082,0.006,0.124,0.006c5.001,0,9.057-4.054,9.057-9.057
		C50,24.093,46.246,20.171,41.512,19.876z M13.592,16.259c-0.241-0.016-0.48-0.036-0.725-0.036c-2.537,0-4.865,0.876-6.715,2.334
		c-2.012-1.294-3.487-3.354-3.976-5.776c0.582,0.117,1.178,0.177,1.78,0.177c4.963,0,9-4.037,9-9c0-0.603-0.06-1.198-0.177-1.78
		c3.733,0.753,6.629,3.824,7.133,7.641C17.202,11.261,14.987,13.517,13.592,16.259z"/>
</g>
<g>
	<rect x="24" y="-62.212" width="2" height="4"/>
	<rect x="32" y="-66.233" width="2" height="4.021"/>
	<rect x="16" y="-66.233" width="2" height="4.021"/>
	<path d="M42.628-82.2c-1.596-7.445-8.207-13.029-16.127-13.029c-6.423,0-11.977,3.678-14.702,9.035
		c-0.266-0.018-0.53-0.04-0.8-0.04C4.372-86.234-1-80.862-1-74.234c0,6.607,5.34,11.965,11.938,11.998v0.003H13v-2h-1.604
		l-0.447-0.003C5.463-64.264,1-68.749,1-74.234c0-5.514,4.485-10,9.999-10c0.175,0,0.347,0.014,0.52,0.025l0.148,0.01l1.316,0.088
		l0.598-1.176c2.492-4.899,7.443-7.942,12.92-7.942c6.79,0,12.75,4.814,14.172,11.448l0.317,1.482l1.514,0.095
		C46.707-79.942,50-76.441,50-72.233c0,4.397-3.565,7.977-7.957,8c-0.05-0.003-0.093-0.005-0.137-0.007l-2.043,0.007H37v2h4.863
		v-0.007c0.046,0.001,0.091,0.007,0.137,0.007c5.521,0,10-4.477,10-10C52-77.544,47.855-81.875,42.628-82.2z"/>
	<circle cx="33" cy="-57.191" r="1.5"/>
	<circle cx="25" cy="-53.223" r="1.5"/>
	<circle cx="17" cy="-57.233" r="1.5"/>
</g>
<g>
	<rect x="116.921" y="-101.666" width="2" height="7.973"/>
	<rect x="97.921" y="-82.752" width="7.973" height="2"/>
	<rect x="102.594" y="-94.018" transform="matrix(0.7071 0.7071 -0.7071 0.7071 -34.5572 -102.6087)" width="7.974" height="2"/>
	<rect x="128.103" y="-97" transform="matrix(0.7071 0.7071 -0.7071 0.7071 -27.958 -118.5326)" width="2" height="7.972"/>
	<path d="M147.433-75.876c-1.444-6.742-7.433-11.8-14.605-11.8c-2.185,0-4.258,0.47-6.126,1.313
		c-1.667-3.202-5.007-5.394-8.866-5.394c-5.522,0-10,4.477-10,9.999c0,2.46,0.899,4.702,2.373,6.442
		c-1.429,1.84-2.287,4.144-2.287,6.653c0,5.983,4.836,10.836,10.813,10.865v0.003h1.188v-2H119.2l-0.457-0.003
		c-4.864-0.023-8.822-4.001-8.822-8.865c0-4.89,3.978-8.868,8.867-8.868c0.15,0,0.299,0.012,0.447,0.022l0.148,0.01l1.314,0.085
		l0.597-1.175c2.225-4.372,6.644-7.089,11.532-7.089c6.062,0,11.382,4.298,12.649,10.219l0.318,1.483l1.514,0.094
		c3.708,0.23,6.612,3.319,6.612,7.03c0,3.878-3.144,7.035-7.017,7.057c-0.042-0.003-0.079-0.005-0.117-0.005l-2.047,0.005h-0.819v2
		h2.819v-0.006c0.042,0.001,0.082,0.006,0.124,0.006c5.001,0,9.057-4.054,9.057-9.057C155.921-71.659,152.167-75.581,147.433-75.876
		z M119.513-79.493c-0.241-0.016-0.48-0.036-0.725-0.036c-2.766,0-5.282,1.042-7.2,2.743c-1.092-1.367-1.753-3.09-1.753-4.971
		c0-4.41,3.589-7.999,8-7.999c3.091,0,5.76,1.773,7.091,4.345C122.628-83.972,120.748-81.923,119.513-79.493z"/>
	<rect x="130.921" y="-57.777" width="2" height="4"/>
	<rect x="138.921" y="-61.799" width="2" height="4.021"/>
	<rect x="122.921" y="-61.799" width="2" height="4.021"/>
	<circle cx="139.921" cy="-52.757" r="1.5"/>
	<circle cx="131.921" cy="-48.788" r="1.5"/>
	<circle cx="123.921" cy="-52.799" r="1.5"/>
</g>
<g>
	<path d="M248.358-76.833c-1.444-6.742-7.433-11.8-14.605-11.8c-1.799,0-3.522,0.32-5.118,0.904
		c-0.949-5.108-5.404-8.98-10.788-8.98c-0.413,0-0.819,0.027-1.222,0.071c0.744,1.112,1.179,2.448,1.179,3.886c0,3.865-3.134,7-7,7
		c-1.438,0-2.773-0.435-3.886-1.179c-0.044,0.401-0.071,0.809-0.071,1.222c0,3.712,1.845,6.987,4.661,8.979
		c-1.653,1.907-2.661,4.389-2.661,7.111c0,5.983,4.836,10.836,10.813,10.865v0.003h1.188v-2h-0.721l-0.457-0.003
		c-4.864-0.023-8.822-4.001-8.822-8.865c0-4.89,3.978-8.868,8.867-8.868c0.15,0,0.299,0.012,0.447,0.022l0.148,0.01l1.314,0.085
		l0.597-1.175c2.225-4.372,6.644-7.089,11.532-7.089c6.062,0,11.382,4.298,12.649,10.219l0.318,1.483l1.514,0.094
		c3.708,0.23,6.612,3.319,6.612,7.03c0,3.878-3.144,7.035-7.017,7.057c-0.042-0.003-0.079-0.005-0.117-0.005l-2.047,0.005h-0.819v2
		h2.819v-0.006c0.042,0.001,0.082,0.006,0.124,0.006c5.001,0,9.057-4.054,9.057-9.057C256.847-72.616,253.093-76.538,248.358-76.833
		z M220.438-80.45c-0.241-0.016-0.48-0.036-0.725-0.036c-2.537,0-4.865,0.876-6.715,2.334c-2.012-1.294-3.487-3.354-3.976-5.776
		c0.582,0.117,1.178,0.177,1.78,0.177c4.963,0,9-4.037,9-9c0-0.603-0.06-1.198-0.177-1.78c3.733,0.753,6.629,3.824,7.133,7.641
		C224.049-85.448,221.834-83.192,220.438-80.45z"/>
	<rect x="231.847" y="-58.734" width="2" height="4"/>
	<rect x="239.847" y="-62.756" width="2" height="4.021"/>
	<rect x="223.847" y="-62.756" width="2" height="4.021"/>
	<circle cx="240.847" cy="-53.714" r="1.5"/>
	<circle cx="232.847" cy="-49.745" r="1.5"/>
	<circle cx="224.847" cy="-53.756" r="1.5"/>
</g>
<g>
	<path d="M145.049,16.197c-1.596-7.445-8.207-13.029-16.127-13.029c-6.423,0-11.977,3.678-14.702,9.035
		c-0.266-0.018-0.53-0.04-0.8-0.04c-6.627,0-11.999,5.372-11.999,12c0,6.607,5.34,11.965,11.938,11.998v0.003h6.062v-2h-5.604
		l-0.447-0.003c-5.485-0.027-9.948-4.513-9.948-9.998c0-5.514,4.485-10,9.999-10c0.175,0,0.347,0.014,0.52,0.025l0.148,0.01
		l1.316,0.088l0.598-1.176c2.492-4.899,7.443-7.942,12.92-7.942c6.79,0,12.75,4.814,14.172,11.448l0.317,1.482l1.514,0.095
		c4.203,0.262,7.496,3.763,7.496,7.971c0,4.397-3.565,7.977-7.957,8c-0.05-0.003-0.093-0.005-0.137-0.007l-5.043,0.007h0.137v2
		h4.863v-0.007c0.046,0.001,0.091,0.007,0.137,0.007c5.521,0,10-4.477,10-10C154.421,20.854,150.276,16.522,145.049,16.197z"/>
	<polygon points="129.263,36.168 131.032,36.168 131.463,36.168 133.473,36.168 127.059,27.007 125.421,28.154 129.632,34.168 
		127.861,34.168 125.421,34.168 126.692,35.984 127.805,37.573 133.782,46.168 135.421,45.021 129.443,36.426 	"/>
</g>
<g>
	<rect x="220.847" y="-2.933" width="2" height="7.973"/>
	<rect x="201.847" y="15.981" width="7.973" height="2"/>
	<rect x="206.52" y="4.715" transform="matrix(0.7071 0.7071 -0.7071 0.7071 65.697 -147.177)" width="7.974" height="2"/>
	<rect x="232.028" y="1.733" transform="matrix(0.7071 0.7071 -0.7071 0.7071 72.2962 -163.1009)" width="2" height="7.972"/>
	<path d="M251.358,22.857c-1.444-6.742-7.433-11.8-14.605-11.8c-2.185,0-4.258,0.47-6.127,1.313
		c-1.666-3.202-5.006-5.394-8.865-5.394c-5.522,0-10,4.477-10,9.999c0,2.46,0.898,4.702,2.373,6.442
		c-1.428,1.84-2.287,4.144-2.287,6.653c0,5.983,4.836,10.836,10.813,10.865v0.003h4.188v-2h-3.721l-0.457-0.003
		c-4.864-0.023-8.822-4.001-8.822-8.865c0-4.89,3.978-8.868,8.867-8.868c0.15,0,0.299,0.012,0.447,0.022l0.148,0.01l1.314,0.085
		l0.597-1.175c2.225-4.372,6.644-7.089,11.532-7.089c6.062,0,11.382,4.298,12.649,10.219l0.318,1.483l1.514,0.094
		c3.708,0.23,6.612,3.319,6.612,7.03c0,3.878-3.144,7.035-7.017,7.057c-0.042-0.003-0.079-0.005-0.117-0.005l-2.047,0.005h-3.819v2
		h5.819v-0.006c0.042,0.001,0.082,0.006,0.124,0.006c5.001,0,9.057-4.054,9.057-9.057C259.847,27.074,256.093,23.152,251.358,22.857
		z M223.438,19.24c-0.241-0.016-0.48-0.036-0.725-0.036c-2.766,0-5.281,1.041-7.2,2.743c-1.092-1.366-1.753-3.09-1.753-4.971
		c0-4.41,3.589-7.999,8-7.999c3.092,0,5.76,1.773,7.092,4.345C226.554,14.763,224.675,16.811,223.438,19.24z"/>
	<polygon points="235.688,40.947 237.458,40.947 237.889,40.947 239.898,40.947 233.484,31.786 231.847,32.934 236.058,38.947 
		234.287,38.947 231.847,38.947 233.118,40.764 234.23,42.353 240.208,50.947 241.847,49.801 235.869,41.205 	"/>
</g>
<g>
	<path d="M350.943,20.562c-1.444-6.742-7.433-11.8-14.605-11.8c-1.799,0-3.521,0.32-5.118,0.904
		c-0.949-5.108-5.404-8.98-10.788-8.98c-0.413,0-0.819,0.027-1.222,0.071c0.744,1.112,1.179,2.448,1.179,3.886c0,3.865-3.134,7-7,7
		c-1.438,0-2.773-0.435-3.886-1.179c-0.044,0.401-0.071,0.809-0.071,1.222c0,3.712,1.845,6.987,4.661,8.979
		c-1.653,1.907-2.661,4.389-2.661,7.111c0,5.983,4.836,10.836,10.813,10.865v0.003h4.188v-2h-3.721l-0.457-0.003
		c-4.864-0.023-8.822-4.001-8.822-8.865c0-4.89,3.978-8.868,8.867-8.868c0.15,0,0.299,0.012,0.447,0.022l0.148,0.01l1.314,0.085
		l0.597-1.175c2.225-4.372,6.644-7.089,11.532-7.089c6.062,0,11.382,4.298,12.649,10.219l0.318,1.483l1.514,0.094
		c3.708,0.23,6.612,3.319,6.612,7.03c0,3.878-3.144,7.035-7.017,7.057c-0.042-0.003-0.079-0.005-0.117-0.005l-2.047,0.005h-3.819v2
		h5.819v-0.006c0.042,0.001,0.082,0.006,0.124,0.006c5.001,0,9.057-4.054,9.057-9.057C359.432,24.778,355.678,20.856,350.943,20.562
		z M323.023,16.944c-0.241-0.016-0.48-0.036-0.725-0.036c-2.537,0-4.865,0.876-6.715,2.334c-2.012-1.294-3.486-3.354-3.976-5.776
		c0.582,0.117,1.178,0.177,1.78,0.177c4.963,0,9-4.037,9-9c0-0.603-0.06-1.198-0.177-1.78c3.733,0.753,6.629,3.824,7.134,7.64
		C326.633,11.946,324.418,14.201,323.023,16.944z"/>
	<polygon points="335.273,38.651 337.043,38.651 337.474,38.651 339.483,38.651 333.069,29.49 331.432,30.638 335.643,36.651 
		333.872,36.651 331.432,36.651 332.703,38.468 333.815,40.057 339.793,48.651 341.432,47.505 335.454,38.909 	"/>
</g>
<g>
	<path d="M451.828,16.697c-1.596-7.445-8.207-13.029-16.127-13.029c-6.423,0-11.977,3.678-14.702,9.035
		c-0.266-0.018-0.53-0.04-0.8-0.04c-6.627,0-11.999,5.372-11.999,12c0,6.607,5.34,11.965,11.938,11.998v0.003h1.062v-2h-0.604
		l-0.447-0.003c-5.485-0.027-9.948-4.513-9.948-9.998c0-5.514,4.485-10,9.999-10c0.175,0,0.347,0.014,0.52,0.025l0.148,0.01
		l1.316,0.088l0.598-1.176c2.492-4.899,7.443-7.942,12.92-7.942c6.79,0,12.75,4.814,14.172,11.448l0.317,1.482l1.514,0.095
		c4.203,0.262,7.496,3.763,7.496,7.971c0,4.397-3.565,7.977-7.957,8c-0.05-0.003-0.093-0.005-0.137-0.007l-0.906,0.007v2h0.863
		v-0.007c0.046,0.001,0.091,0.007,0.137,0.007c5.521,0,10-4.477,10-10C461.2,21.354,457.056,17.022,451.828,16.697z"/>
	
		<rect x="420.635" y="34.662" transform="matrix(-0.5736 -0.8191 0.8191 -0.5736 641.5149 405.244)" width="11.183" height="1.999"/>
	
		<rect x="438.609" y="34.662" transform="matrix(-0.5736 -0.8191 0.8191 -0.5736 669.8004 419.9672)" width="11.183" height="1.999"/>
	<polygon points="437.042,39.668 438.812,39.668 439.242,39.668 441.252,39.668 434.838,30.507 433.2,31.654 437.411,37.668 
		435.641,37.668 433.2,37.668 434.472,39.484 435.584,41.073 440.2,47.668 441.839,46.521 437.223,39.926 	"/>
</g>
<g>
	<rect x="526.676" y="-2.77" width="2" height="7.973"/>
	<rect x="507.676" y="16.145" width="7.973" height="2"/>
	<rect x="512.349" y="4.878" transform="matrix(0.7071 0.7071 -0.7071 0.7071 155.3876 -363.383)" width="7.974" height="2"/>
	<rect x="537.858" y="1.896" transform="matrix(0.7071 0.7071 -0.7071 0.7071 161.9868 -379.307)" width="2" height="7.972"/>
	<path d="M557.188,23.021c-1.444-6.742-7.433-11.8-14.605-11.8c-2.185,0-4.258,0.47-6.126,1.313
		c-1.667-3.202-5.007-5.394-8.866-5.394c-5.522,0-10,4.477-10,9.999c0,2.46,0.899,4.702,2.373,6.442
		c-1.429,1.84-2.287,4.144-2.287,6.653c0,5.983,4.836,10.836,10.813,10.865v0.003h0.188v-2l-0.178-0.003
		c-4.864-0.023-8.822-4.001-8.822-8.865c0-4.89,3.978-8.868,8.867-8.868c0.15,0,0.299,0.012,0.447,0.022l0.148,0.01l1.314,0.085
		l0.597-1.175c2.225-4.372,6.644-7.089,11.532-7.089c6.062,0,11.382,4.298,12.649,10.219l0.318,1.483l1.514,0.094
		c3.708,0.23,6.612,3.319,6.612,7.03c0,3.878-3.144,7.035-7.017,7.057c-0.042-0.003-0.079-0.005-0.117-0.005l-0.866,0.005v2h0.819
		v-0.006c0.042,0.001,0.082,0.006,0.124,0.006c5.001,0,9.057-4.054,9.057-9.057C565.676,27.237,561.922,23.315,557.188,23.021z
		 M529.268,19.403c-0.241-0.016-0.48-0.036-0.725-0.036c-2.766,0-5.282,1.042-7.2,2.743c-1.092-1.367-1.753-3.09-1.753-4.971
		c0-4.41,3.589-7.999,8-7.999c3.091,0,5.76,1.773,7.091,4.345C532.383,14.925,530.503,16.974,529.268,19.403z"/>
	
		<rect x="527.097" y="39.101" transform="matrix(-0.5736 -0.8191 0.8191 -0.5736 805.4133 499.4333)" width="11.183" height="1.999"/>
	
		<rect x="545.072" y="39.101" transform="matrix(-0.5736 -0.8191 0.8191 -0.5736 833.6989 514.1564)" width="11.183" height="1.999"/>
	<polygon points="543.505,44.106 545.274,44.106 545.705,44.106 547.715,44.106 541.301,34.945 539.663,36.093 543.874,42.106 
		542.104,42.106 539.663,42.106 540.935,43.923 542.047,45.512 546.663,52.106 548.302,50.96 543.686,44.364 	"/>
</g>
<g>
	<path d="M659.025,20.063c-1.444-6.742-7.433-11.8-14.605-11.8c-1.799,0-3.522,0.32-5.118,0.904
		c-0.949-5.108-5.404-8.98-10.788-8.98c-0.413,0-0.819,0.027-1.222,0.071c0.744,1.112,1.179,2.448,1.179,3.886c0,3.865-3.134,7-7,7
		c-1.438,0-2.773-0.435-3.886-1.179c-0.044,0.401-0.071,0.809-0.071,1.222c0,3.712,1.845,6.987,4.661,8.979
		c-1.653,1.907-2.661,4.389-2.661,7.111c0,5.983,4.836,10.836,10.813,10.865v0.003h0.188v-2l-0.178-0.003
		c-4.864-0.023-8.822-4.001-8.822-8.865c0-4.89,3.978-8.868,8.867-8.868c0.15,0,0.299,0.012,0.447,0.022l0.148,0.01l1.314,0.085
		l0.597-1.175c2.225-4.372,6.644-7.089,11.532-7.089c6.062,0,11.382,4.298,12.649,10.219l0.318,1.483l1.514,0.094
		c3.708,0.23,6.612,3.319,6.612,7.03c0,3.878-3.144,7.035-7.017,7.057c-0.042-0.003-0.079-0.005-0.117-0.005l-0.866,0.005v2h0.819
		V38.14c0.042,0.001,0.082,0.006,0.124,0.006c5.001,0,9.057-4.054,9.057-9.057C667.514,24.279,663.76,20.357,659.025,20.063z
		 M631.105,16.445c-0.241-0.016-0.48-0.036-0.725-0.036c-2.537,0-4.865,0.876-6.715,2.334c-2.012-1.294-3.487-3.354-3.976-5.776
		c0.582,0.117,1.178,0.177,1.78,0.177c4.963,0,9-4.037,9-9c0-0.603-0.06-1.198-0.177-1.78c3.733,0.753,6.629,3.824,7.133,7.641
		C634.716,11.447,632.501,13.703,631.105,16.445z"/>
	
		<rect x="628.934" y="36.143" transform="matrix(-0.5736 -0.8191 0.8191 -0.5736 968.0908 578.194)" width="11.183" height="1.999"/>
	
		<rect x="646.909" y="36.143" transform="matrix(-0.5736 -0.8191 0.8191 -0.5736 996.3763 592.9171)" width="11.183" height="1.999"/>
	<polygon points="645.342,41.148 647.111,41.148 647.542,41.148 649.552,41.148 643.138,31.987 641.5,33.135 645.711,39.148 
		643.94,39.148 641.5,39.148 642.771,40.965 643.884,42.554 648.5,49.148 650.139,48.002 645.522,41.406 	"/>
</g>
<g>
	<g>
		<path d="M248.463,106.518c-1.596-7.445-8.207-13.029-16.127-13.029c-6.423,0-11.977,3.678-14.702,9.035
			c-0.266-0.018-0.53-0.04-0.8-0.04c-6.627,0-11.999,5.372-11.999,12c0,6.607,5.34,11.965,11.938,11.998v0.003h2.062v-2h-1.604
			l-0.447-0.003c-5.485-0.027-9.948-4.513-9.948-9.998c0-5.514,4.485-10,9.999-10c0.175,0,0.347,0.014,0.52,0.025l0.148,0.01
			l1.316,0.088l0.598-1.176c2.492-4.899,7.443-7.942,12.92-7.942c6.79,0,12.75,4.814,14.172,11.448l0.317,1.482l1.514,0.095
			c4.203,0.262,7.496,3.763,7.496,7.971c0,4.397-3.565,7.977-7.957,8c-0.05-0.003-0.093-0.005-0.137-0.007l-2.043,0.007h-2.863v2
			h4.863v-0.007c0.046,0.001,0.091,0.007,0.137,0.007c5.521,0,10-4.477,10-10C257.835,111.174,253.69,106.843,248.463,106.518z"/>
	</g>
	<g>
		<circle cx="223.335" cy="120.061" r="1.5"/>
	</g>
	<g>
		<circle cx="227.335" cy="125.984" r="1.5"/>
	</g>
	<g>
		<circle cx="235.335" cy="125.984" r="1.5"/>
	</g>
	<g>
		<circle cx="231.335" cy="120.061" r="1.5"/>
	</g>
	<g>
		<circle cx="239.335" cy="120.061" r="1.5"/>
	</g>
	<g>
		<circle cx="223.335" cy="132.006" r="1.5"/>
	</g>
	<g>
		<circle cx="231.335" cy="132.006" r="1.5"/>
	</g>
	<g>
		<circle cx="239.335" cy="132.006" r="1.5"/>
	</g>
</g>
<g>
	<g>
		<rect x="324.249" y="91.04" width="2" height="7.973"/>
	</g>
	<g>
		<rect x="305.249" y="109.954" width="7.973" height="2"/>
	</g>
	<g>
		<rect x="309.922" y="98.688" transform="matrix(0.7071 0.7071 -0.7071 0.7071 162.4316 -192.7695)" width="7.974" height="2"/>
	</g>
	<g>
		<rect x="335.431" y="95.706" transform="matrix(0.7071 0.7071 -0.7071 0.7071 169.0307 -208.6935)" width="2" height="7.972"/>
	</g>
	<g>
		<path d="M354.761,116.83c-1.444-6.742-7.433-11.8-14.605-11.8c-2.185,0-4.258,0.47-6.127,1.313
			c-1.666-3.202-5.006-5.394-8.865-5.394c-5.522,0-10,4.477-10,9.999c0,2.46,0.898,4.702,2.373,6.442
			c-1.428,1.84-2.287,4.144-2.287,6.653c0,5.983,4.836,10.836,10.813,10.865v0.003h1.188v-2h-0.721l-0.457-0.003
			c-4.864-0.023-8.822-4.001-8.822-8.865c0-4.89,3.978-8.868,8.867-8.868c0.15,0,0.299,0.012,0.447,0.022l0.148,0.01l1.314,0.085
			l0.597-1.175c2.225-4.372,6.644-7.089,11.532-7.089c6.062,0,11.382,4.298,12.649,10.219l0.318,1.483l1.514,0.094
			c3.708,0.23,6.612,3.319,6.612,7.03c0,3.878-3.144,7.035-7.017,7.057c-0.042-0.003-0.079-0.005-0.117-0.005l-2.047,0.005h-1.819v2
			h3.819v-0.006c0.042,0.001,0.082,0.006,0.124,0.006c5.001,0,9.057-4.054,9.057-9.057
			C363.249,121.047,359.495,117.125,354.761,116.83z M326.841,113.213c-0.241-0.016-0.48-0.036-0.725-0.036
			c-2.766,0-5.281,1.042-7.2,2.743c-1.092-1.367-1.753-3.09-1.753-4.971c0-4.41,3.589-7.999,8-7.999c3.092,0,5.76,1.773,7.092,4.345
			C329.956,108.734,328.077,110.783,326.841,113.213z"/>
	</g>
	<g>
		<circle cx="330.738" cy="128.424" r="1.5"/>
	</g>
	<g>
		<circle cx="334.738" cy="134.424" r="1.5"/>
	</g>
	<g>
		<circle cx="342.738" cy="134.424" r="1.5"/>
	</g>
	<g>
		<circle cx="338.738" cy="128.424" r="1.5"/>
	</g>
	<g>
		<circle cx="346.738" cy="128.424" r="1.5"/>
	</g>
	<g>
		<circle cx="330.738" cy="140.445" r="1.5"/>
	</g>
	<g>
		<circle cx="338.738" cy="140.445" r="1.5"/>
	</g>
	<g>
		<circle cx="346.738" cy="140.445" r="1.5"/>
	</g>
</g>
<g>
	<g>
		<path d="M450.712,112.874c-1.444-6.742-7.433-11.8-14.605-11.8c-1.799,0-3.521,0.32-5.118,0.904
			c-0.949-5.108-5.404-8.98-10.788-8.98c-0.413,0-0.819,0.027-1.222,0.071c0.744,1.112,1.179,2.448,1.179,3.886c0,3.865-3.134,7-7,7
			c-1.438,0-2.773-0.435-3.886-1.179c-0.044,0.401-0.071,0.809-0.071,1.222c0,3.712,1.845,6.987,4.661,8.979
			c-1.653,1.907-2.661,4.389-2.661,7.111c0,5.983,4.836,10.836,10.813,10.865v0.003h1.188v-2h-0.721l-0.457-0.003
			c-4.864-0.023-8.822-4.001-8.822-8.865c0-4.89,3.978-8.868,8.867-8.868c0.15,0,0.299,0.012,0.447,0.022l0.148,0.01l1.314,0.085
			l0.597-1.175c2.225-4.372,6.644-7.089,11.532-7.089c6.062,0,11.382,4.298,12.649,10.219l0.318,1.483l1.514,0.094
			c3.708,0.23,6.612,3.319,6.612,7.03c0,3.878-3.144,7.035-7.017,7.057c-0.042-0.003-0.079-0.005-0.117-0.005l-2.047,0.005H446.2v2
			h3.819v-0.006c0.042,0.001,0.082,0.006,0.124,0.006c5.001,0,9.057-4.054,9.057-9.057
			C459.2,117.091,455.446,113.169,450.712,112.874z M422.792,109.257c-0.241-0.016-0.48-0.036-0.725-0.036
			c-2.537,0-4.865,0.876-6.715,2.334c-2.012-1.294-3.486-3.354-3.976-5.776c0.582,0.117,1.178,0.177,1.78,0.177c4.963,0,9-4.037,9-9
			c0-0.603-0.06-1.198-0.177-1.78c3.733,0.753,6.629,3.824,7.134,7.64C426.401,104.259,424.187,106.514,422.792,109.257z"/>
	</g>
	<g>
		<circle cx="426.7" cy="124.467" r="1.5"/>
	</g>
	<g>
		<circle cx="430.7" cy="130.467" r="1.5"/>
	</g>
	<g>
		<circle cx="438.7" cy="130.467" r="1.5"/>
	</g>
	<g>
		<circle cx="434.7" cy="124.467" r="1.5"/>
	</g>
	<g>
		<circle cx="442.7" cy="124.467" r="1.5"/>
	</g>
	<g>
		<circle cx="426.7" cy="136.488" r="1.5"/>
	</g>
	<g>
		<circle cx="434.7" cy="136.488" r="1.5"/>
	</g>
	<g>
		<circle cx="442.7" cy="136.488" r="1.5"/>
	</g>
</g>
<g>
	<path d="M761.877,13.988c-1.596-7.445-8.207-13.029-16.127-13.029c-6.423,0-11.977,3.678-14.702,9.035
		c-0.266-0.018-0.53-0.04-0.8-0.04c-6.627,0-11.999,5.372-11.999,12c0,6.607,5.34,11.965,11.938,11.998v0.003h2.062v-2h-1.604
		l-0.447-0.003c-5.485-0.027-9.948-4.513-9.948-9.998c0-5.514,4.485-10,9.999-10c0.175,0,0.347,0.014,0.52,0.025l0.148,0.01
		l1.316,0.088l0.598-1.176c2.492-4.899,7.443-7.942,12.92-7.942c6.79,0,12.75,4.814,14.172,11.448l0.317,1.482l1.514,0.095
		c4.203,0.262,7.496,3.763,7.496,7.971c0,4.397-3.565,7.977-7.957,8c-0.05-0.003-0.093-0.005-0.137-0.007l-2.043,0.007h-2.863v2
		h4.863v-0.007c0.046,0.001,0.091,0.007,0.137,0.007c5.521,0,10-4.477,10-10C771.249,18.645,767.104,14.313,761.877,13.988z"/>
	<circle cx="736.249" cy="41.459" r="1.5"/>
	<circle cx="744.249" cy="47.459" r="1.5"/>
	<circle cx="752.249" cy="43.459" r="1.5"/>
	<rect x="735.249" y="24.983" width="2" height="11.976"/>
	<polygon points="745.249,42.924 745.249,40.983 745.249,28.983 743.249,28.983 743.249,40.983 743.249,42.924 743.249,42.959 
		745.249,42.959 	"/>
	<polygon points="753.249,38.736 753.249,36.983 753.249,24.983 751.249,24.983 751.249,36.983 751.249,38.736 751.249,38.959 
		753.249,38.959 	"/>
</g>
<g>
	<rect x="13.5" y="85.602" width="2" height="7.973"/>
	<rect x="-5.5" y="104.516" width="7.973" height="2"/>
	<rect x="-0.827" y="93.249" transform="matrix(0.7071 0.7071 -0.7071 0.7071 67.5697 25.3703)" width="7.974" height="2"/>
	<rect x="24.682" y="90.267" transform="matrix(0.7071 0.7071 -0.7071 0.7071 74.1689 9.4464)" width="2" height="7.972"/>
	<path d="M44.012,111.392c-1.444-6.742-7.433-11.8-14.605-11.8c-2.185,0-4.258,0.47-6.126,1.313
		c-1.667-3.202-5.007-5.394-8.866-5.394c-5.522,0-10,4.477-10,9.999c0,2.46,0.899,4.702,2.373,6.442
		c-1.429,1.84-2.287,4.144-2.287,6.653c0,5.983,4.836,10.836,10.813,10.865v0.003H16.5v-2h-0.721l-0.457-0.003
		c-4.864-0.023-8.822-4.001-8.822-8.865c0-4.89,3.978-8.868,8.867-8.868c0.15,0,0.299,0.012,0.447,0.022l0.148,0.01l1.314,0.085
		l0.597-1.175c2.225-4.372,6.644-7.089,11.532-7.089c6.062,0,11.382,4.298,12.649,10.219l0.318,1.483l1.514,0.094
		c3.708,0.23,6.612,3.319,6.612,7.03c0,3.878-3.144,7.035-7.017,7.057c-0.042-0.003-0.079-0.005-0.117-0.005l-2.047,0.005H40.5v2
		h2.819v-0.006c0.042,0.001,0.082,0.006,0.124,0.006c5.001,0,9.057-4.054,9.057-9.057C52.5,115.608,48.746,111.687,44.012,111.392z
		 M16.092,107.774c-0.241-0.016-0.48-0.036-0.725-0.036c-2.766,0-5.282,1.041-7.2,2.743c-1.092-1.366-1.753-3.09-1.753-4.971
		c0-4.41,3.589-7.999,8-7.999c3.091,0,5.76,1.773,7.091,4.345C19.207,103.297,17.327,105.345,16.092,107.774z"/>
	<circle cx="20.49" cy="137.962" r="1.5"/>
	<circle cx="28.49" cy="143.962" r="1.5"/>
	<circle cx="36.49" cy="139.962" r="1.5"/>
	<rect x="19.49" y="121.486" width="2" height="11.976"/>
	<polygon points="29.49,139.427 29.49,137.486 29.49,125.486 27.49,125.486 27.49,137.486 27.49,139.427 27.49,139.462 
		29.49,139.462 	"/>
	<polygon points="37.49,135.239 37.49,133.486 37.49,121.486 35.49,121.486 35.49,133.486 35.49,135.239 35.49,135.462 
		37.49,135.462 	"/>
</g>
<g>
	<path d="M144.614,108.394c-1.444-6.742-7.433-11.8-14.605-11.8c-1.799,0-3.522,0.32-5.118,0.904
		c-0.949-5.108-5.404-8.98-10.788-8.98c-0.413,0-0.819,0.027-1.222,0.071c0.744,1.112,1.179,2.448,1.179,3.886c0,3.865-3.134,7-7,7
		c-1.438,0-2.773-0.435-3.886-1.179c-0.044,0.401-0.071,0.809-0.071,1.222c0,3.712,1.845,6.987,4.661,8.979
		c-1.653,1.907-2.661,4.389-2.661,7.111c0,5.983,4.836,10.836,10.813,10.865v0.003h1.188v-2h-0.721l-0.457-0.003
		c-4.864-0.023-8.822-4.001-8.822-8.865c0-4.89,3.978-8.868,8.867-8.868c0.15,0,0.299,0.012,0.447,0.022l0.148,0.01l1.314,0.085
		l0.597-1.175c2.225-4.372,6.644-7.089,11.532-7.089c6.062,0,11.382,4.298,12.649,10.219l0.318,1.483l1.514,0.094
		c3.708,0.23,6.612,3.319,6.612,7.03c0,3.878-3.144,7.035-7.017,7.057c-0.042-0.003-0.079-0.005-0.117-0.005l-2.047,0.005h-0.819v2
		h2.819v-0.006c0.042,0.001,0.082,0.006,0.124,0.006c5.001,0,9.057-4.054,9.057-9.057
		C153.103,112.61,149.349,108.688,144.614,108.394z M116.694,104.776c-0.241-0.016-0.48-0.036-0.725-0.036
		c-2.537,0-4.865,0.876-6.715,2.334c-2.012-1.294-3.487-3.354-3.976-5.776c0.582,0.117,1.178,0.177,1.78,0.177c4.963,0,9-4.037,9-9
		c0-0.603-0.06-1.198-0.177-1.78c3.733,0.753,6.629,3.824,7.133,7.64C120.305,99.778,118.09,102.033,116.694,104.776z"/>
	<circle cx="121.103" cy="134.968" r="1.5"/>
	<circle cx="129.103" cy="140.968" r="1.5"/>
	<circle cx="137.103" cy="136.968" r="1.5"/>
	<rect x="120.103" y="118.492" width="2" height="11.976"/>
	<polygon points="130.103,136.433 130.103,134.492 130.103,122.492 128.103,122.492 128.103,134.492 128.103,136.433 
		128.103,136.468 130.103,136.468 	"/>
	<polygon points="138.103,132.245 138.103,130.492 138.103,118.492 136.103,118.492 136.103,130.492 136.103,132.245 
		136.103,132.468 138.103,132.468 	"/>
</g>
<g>
	<rect x="-3.5" y="212.834" width="56" height="2"/>
	<rect x="0.5" y="218.834" width="50" height="2"/>
	<rect x="6.5" y="224.834" width="36" height="2"/>
	<rect x="-1.5" y="206.834" width="52" height="2"/>
	<path d="M10.374,198.829c0.175,0,0.347,0.014,0.519,0.025l0.149,0.01l1.316,0.088l0.598-1.176c2.493-4.899,7.443-7.942,12.92-7.942
		c6.79,0,12.75,4.814,14.171,11.448l0.318,1.482l1.514,0.095c1.207,0.075,2.335,0.425,3.336,0.975h3.286
		c-1.678-1.703-3.957-2.813-6.498-2.971c-1.596-7.445-8.207-13.029-16.127-13.029c-6.423,0-11.977,3.678-14.702,9.035
		c-0.266-0.018-0.53-0.04-0.8-0.04c-4.843,0-9.004,2.874-10.9,7.005h2.251C3.456,200.848,6.681,198.829,10.374,198.829z"/>
</g>
<g>
	<rect x="117.603" y="185.319" width="2" height="7.973"/>
	<rect x="98.603" y="204.233" width="7.973" height="2"/>
	<rect x="103.276" y="192.967" transform="matrix(0.7071 0.7071 -0.7071 0.7071 168.5717 -19.0346)" width="7.974" height="2"/>
	<rect x="128.784" y="189.985" transform="matrix(0.7071 0.7071 -0.7071 0.7071 175.1709 -34.9586)" width="2" height="7.972"/>
	<rect x="107.603" y="219.193" width="50" height="2"/>
	<rect x="111.603" y="225.193" width="44" height="2"/>
	<rect x="117.603" y="230.193" width="30" height="2"/>
	<rect x="109.603" y="213.193" width="46" height="2"/>
	<path d="M110.511,211.193h0.771h1.927h1.012c1.472-1.087,3.283-1.737,5.249-1.737c0.15,0,0.299,0.012,0.447,0.022l0.148,0.01
		l1.314,0.085l0.597-1.175c2.225-4.372,6.644-7.089,11.532-7.089c5.945,0,11.168,4.139,12.563,9.884h2.043v-0.084
		c-1.444-6.742-7.433-11.8-14.605-11.8c-2.185,0-4.258,0.47-6.126,1.313c-1.667-3.202-5.007-5.394-8.866-5.394
		c-5.522,0-10,4.477-10,9.999C108.517,207.47,109.265,209.528,110.511,211.193z M118.517,197.229c3.091,0,5.76,1.773,7.091,4.345
		c-2.298,1.44-4.178,3.488-5.413,5.918c-0.241-0.016-0.48-0.036-0.725-0.036c-2.764,0-5.274,1.045-7.189,2.745
		c-1.097-1.366-1.764-3.089-1.764-4.973C110.517,200.818,114.105,197.229,118.517,197.229z"/>
</g>
<g>
	<rect x="206.347" y="215.756" width="50" height="2"/>
	<rect x="210.347" y="221.756" width="44" height="2"/>
	<rect x="216.347" y="226.756" width="30" height="2"/>
	<rect x="208.347" y="209.756" width="46" height="2"/>
	<path d="M209.989,207.756h0.037h1.884h1.055c1.472-1.087,3.283-1.737,5.249-1.737c0.15,0,0.299,0.012,0.447,0.022l0.148,0.01
		l1.314,0.085l0.597-1.175c2.225-4.372,6.644-7.089,11.532-7.089c5.945,0,11.168,4.139,12.563,9.884h2.043v-0.084
		c-1.444-6.742-7.433-11.8-14.605-11.8c-1.799,0-3.521,0.32-5.117,0.903c-0.945-5.111-5.402-8.987-10.789-8.987
		c-0.413,0-0.819,0.027-1.222,0.071c0.744,1.112,1.179,2.448,1.179,3.886c0,3.865-3.134,7-7,7c-1.438,0-2.773-0.435-3.886-1.179
		c-0.044,0.401-0.071,0.809-0.071,1.222C205.347,202.492,207.183,205.763,209.989,207.756z M209.304,200.745c4.963,0,9-4.037,9-9
		c0-0.603-0.06-1.198-0.177-1.78c3.735,0.753,6.633,3.828,7.134,7.647c-2.712,1.443-4.927,3.699-6.322,6.442
		c-0.241-0.016-0.48-0.036-0.725-0.036c-2.534,0-4.855,0.879-6.701,2.335c-2.02-1.293-3.5-3.356-3.989-5.785
		C208.105,200.686,208.701,200.745,209.304,200.745z"/>
</g>
<g>
	<path d="M338.238,218.77h-19.474l-0.578-0.003c-5.485-0.027-9.948-4.513-9.948-9.998c0-5.514,4.485-10,9.999-10
		c0.175,0,0.347,0.014,0.519,0.025l0.149,0.01l1.316,0.088l0.598-1.176c2.493-4.899,7.443-7.942,12.92-7.942
		c6.79,0,12.75,4.814,14.171,11.448l0.318,1.482l1.514,0.095c1.822,0.113,3.463,0.845,4.746,1.971h2.732
		c-1.707-2.262-4.348-3.78-7.354-3.967c-1.596-7.445-8.207-13.029-16.127-13.029c-6.423,0-11.977,3.678-14.702,9.035
		c-0.266-0.018-0.53-0.04-0.8-0.04c-6.627,0-11.999,5.372-11.999,12c0,6.607,5.34,11.965,11.938,11.998v0.003h20.062
		c2.205,0,4,1.794,4,4s-1.795,4-4,4v2c3.314,0,6-2.686,6-6C344.238,221.456,341.553,218.77,338.238,218.77z"/>
	<path d="M342.238,214.77H326.25v2h15.988c3.314,0,6-2.687,6-6c0-3.314-2.686-6-6-6v2c2.205,0,4,1.794,4,4
		S344.443,214.77,342.238,214.77z"/>
	<path d="M355.238,208.77c1.654,0,3,1.346,3,3s-1.346,3-3,3c-0.043,0-0.083-0.011-0.126-0.013h-4.862
		c0.003,0.005,0.009,0.008,0.012,0.013h-0.023v2h5.5v-0.051c2.523-0.254,4.5-2.358,4.5-4.949c0-2.762-2.238-5-5-5V208.77z"/>
	<path d="M359.238,218.77h-13v2h9.022c-0.004,0.005-0.008,0.008-0.011,0.013h3.862c0.043-0.002,0.083-0.013,0.126-0.013
		c1.654,0,3,1.346,3,3s-1.346,3-3,3v2c2.762,0,5-2.238,5-5S362,218.77,359.238,218.77z"/>
	<rect x="320.238" y="214.77" width="4" height="2"/>
</g>
<path d="M130.677-180.334c6.95,1.305,12.226,7.419,12.226,14.742c0,8.272-6.729,15.002-15,15.002c-6.79,0-12.531-4.49-14.366-10.728
	c1.398,0.461,2.867,0.698,4.366,0.698c7.72,0,14-6.281,14-14.001C131.902-176.604,131.479-178.549,130.677-180.334 M127.902-182.591
	c-0.338,0-0.668,0.031-1,0.051c1.861,2.113,3,4.881,3,7.92c0,6.627-5.372,12.001-12,12.001c-2.599,0-4.998-0.835-6.963-2.239
	c0.387,9.047,7.821,16.269,16.963,16.269c9.39,0,17-7.612,17-17.002S137.292-182.591,127.902-182.591L127.902-182.591z"/>
<g>
	<path d="M24.507-177.596c-7.18,0-13,5.819-13,12.999c0,7.181,5.82,13.002,13,13.002s13-5.821,13-13.002
		C37.507-171.776,31.687-177.596,24.507-177.596z M24.507-153.595c-6.065,0-11-4.936-11-11.002c0-6.064,4.935-10.999,11-10.999
		s11,4.935,11,10.999C35.507-158.53,30.572-153.595,24.507-153.595z"/>
	<rect x="23.5" y="-190.59" width="2" height="10"/>
	<rect x="23.5" y="-148.59" width="2" height="10"/>
	<rect x="-1.493" y="-165.59" width="9.993" height="2"/>
	<rect x="40.5" y="-165.59" width="10.007" height="2"/>
	<rect x="38.2" y="-184.504" transform="matrix(0.7071 0.7071 -0.7071 0.7071 -115.3024 -80.2339)" width="2" height="10.409"/>
	<rect x="8.791" y="-155.095" transform="matrix(-0.7071 -0.7071 0.7071 -0.7071 122.7026 -248.9552)" width="2" height="10.41"/>
	<rect x="4.591" y="-180.294" transform="matrix(0.7071 0.7071 -0.7071 0.7071 -123.9113 -59.4405)" width="10.409" height="2"/>
	<rect x="33.999" y="-150.885" transform="matrix(-0.7072 -0.7071 0.7071 -0.7072 172.9053 -228.1575)" width="10.41" height="2"/>
</g>
<g>
	<rect x="422.673" y="180.271" width="2" height="7.973"/>
	<rect x="403.7" y="199.258" width="7.973" height="2"/>
	<rect x="408.426" y="188.039" transform="matrix(0.7071 0.7071 -0.7071 0.7071 254.4638 -236.2518)" width="7.974" height="2"/>
	<rect x="433.935" y="185.057" transform="matrix(0.7071 0.7071 -0.7071 0.7071 261.063 -252.1758)" width="2" height="7.972"/>
	<path d="M437.7,222.271l0.005-0.007h-12.536l-0.594-0.003c-4.864-0.024-8.822-4.001-8.822-8.865c0-4.89,3.978-8.868,8.867-8.868
		c0.15,0,0.299,0.012,0.447,0.021l0.148,0.011l1.314,0.085l0.597-1.174c2.225-4.373,6.644-7.09,11.532-7.09
		c5.916,0,11.114,4.099,12.54,9.8h2.065c-1.444-6.742-7.433-11.8-14.605-11.8c-2.185,0-4.258,0.47-6.126,1.313
		c-1.667-3.202-5.007-5.394-8.866-5.394c-5.522,0-10,4.477-10,9.999c0,2.46,0.899,4.702,2.373,6.442
		c-1.429,1.84-2.287,4.144-2.287,6.653c0,5.983,4.836,10.836,10.813,10.865v0.003H437.7v0.007c2.205,0,4,1.794,4,4s-1.795,4-4,4v2
		c3.314,0,6-2.686,6-6C443.7,224.958,441.015,222.271,437.7,222.271z M423.667,192.302c3.091,0,5.76,1.773,7.091,4.345
		c-2.298,1.439-4.178,3.488-5.413,5.918c-0.241-0.016-0.48-0.036-0.725-0.036c-2.766,0-5.282,1.042-7.2,2.743
		c-1.092-1.367-1.753-3.09-1.753-4.971C415.667,195.891,419.256,192.302,423.667,192.302z"/>
	<path d="M441.7,218.271h-9.988v2h9.988c3.314,0,6-2.687,6-6c0-3.314-2.686-6-6-6v2c2.205,0,4,1.794,4,4
		S443.905,218.271,441.7,218.271z"/>
	<path d="M449.724,218.271H449.7v2h5.5v-0.051c2.523-0.254,4.5-2.358,4.5-4.949c0-2.762-2.238-5-5-5v2c1.654,0,3,1.346,3,3
		s-1.346,3-3,3c-0.043,0-0.083-0.011-0.126-0.013h-4.862C449.715,218.264,449.721,218.268,449.724,218.271z"/>
	<path d="M458.7,222.271h-13v2h9.022c-0.004,0.004-0.008,0.008-0.011,0.013h3.862c0.043-0.002,0.083-0.013,0.126-0.013
		c1.654,0,3,1.346,3,3s-1.346,3-3,3v2c2.762,0,5-2.238,5-5S461.462,222.271,458.7,222.271z"/>
	<rect x="425.7" y="218.271" width="4" height="2"/>
</g>
<g>
	<path d="M537.662,220.266l0.005-0.007h-12.536l-0.594-0.003c-4.864-0.024-8.822-4.001-8.822-8.865c0-4.89,3.978-8.868,8.867-8.868
		c0.15,0,0.299,0.012,0.447,0.021l0.148,0.011l1.314,0.085l0.597-1.174c2.225-4.373,6.644-7.09,11.532-7.09
		c5.916,0,11.114,4.099,12.54,9.8h2.065c-1.444-6.742-7.433-11.8-14.605-11.8c-1.806,0-3.536,0.322-5.138,0.91
		c-0.938-5.123-5.4-9.01-10.794-9.01c-0.413,0-0.819,0.027-1.222,0.071c0.744,1.112,1.179,2.448,1.179,3.886c0,3.865-3.134,7-7,7
		c-1.438,0-2.773-0.435-3.886-1.179c-0.044,0.401-0.071,0.809-0.071,1.222c0,3.725,1.858,7.009,4.69,8.998
		c-1.655,1.907-2.665,4.392-2.665,7.116c0,5.983,4.836,10.836,10.813,10.865v0.003h13.135v0.007c2.205,0,4,1.794,4,4s-1.795,4-4,4v2
		c3.314,0,6-2.686,6-6C543.662,222.952,540.977,220.266,537.662,220.266z M513.866,197.057c0.582,0.117,1.178,0.177,1.78,0.177
		c4.963,0,9-4.037,9-9c0-0.603-0.06-1.198-0.177-1.78c3.744,0.755,6.646,3.842,7.138,7.674c-2.702,1.444-4.909,3.696-6.301,6.432
		c-0.241-0.016-0.48-0.036-0.725-0.036c-2.535,0-4.861,0.875-6.71,2.33C515.844,201.561,514.357,199.492,513.866,197.057z"/>
	<path d="M541.662,216.266h-9.988v2h9.988c3.314,0,6-2.687,6-6c0-3.314-2.686-6-6-6v2c2.205,0,4,1.794,4,4
		S543.867,216.266,541.662,216.266z"/>
	<path d="M549.686,216.266h-0.023v2h5.5v-0.051c2.523-0.254,4.5-2.358,4.5-4.949c0-2.762-2.238-5-5-5v2c1.654,0,3,1.346,3,3
		s-1.346,3-3,3c-0.043,0-0.083-0.011-0.126-0.013h-4.862C549.677,216.258,549.683,216.262,549.686,216.266z"/>
	<path d="M558.662,220.266h-13v2h9.022c-0.004,0.004-0.008,0.008-0.011,0.013h3.862c0.043-0.002,0.083-0.013,0.126-0.013
		c1.654,0,3,1.346,3,3s-1.346,3-3,3v2c2.762,0,5-2.238,5-5S561.424,220.266,558.662,220.266z"/>
	<rect x="525.662" y="216.266" width="4" height="2"/>
</g>
<g>
	<rect x="638.555" y="182.834" width="2" height="10"/>
	<rect x="613.562" y="207.834" width="9.993" height="2"/>
	<rect x="653.255" y="188.92" transform="matrix(0.7071 0.7071 -0.7071 0.7071 328.8934 -405.77)" width="2" height="10.409"/>
	<rect x="619.646" y="193.13" transform="matrix(0.7071 0.7071 -0.7071 0.7071 320.2846 -384.9766)" width="10.409" height="2"/>
	<path d="M643.555,222.834h-24v2h24c2.205,0,4,1.794,4,4s-1.795,4-4,4v2c3.314,0,6-2.686,6-6
		C649.555,225.521,646.869,222.834,643.555,222.834z"/>
	<path d="M655.578,218.834h-0.023v2h5.5v-0.051c2.523-0.254,4.5-2.358,4.5-4.949c0-2.762-2.238-5-5-5v2c1.654,0,3,1.346,3,3
		s-1.346,3-3,3c-0.043,0-0.083-0.011-0.126-0.013h-4.862C655.569,218.826,655.575,218.83,655.578,218.834z"/>
	<path d="M664.555,222.834h-13v2h9.022c-0.004,0.004-0.008,0.008-0.011,0.013h3.862c0.043-0.002,0.083-0.013,0.126-0.013
		c1.654,0,3,1.346,3,3s-1.346,3-3,3v2c2.762,0,5-2.238,5-5S667.316,222.834,664.555,222.834z"/>
	<path d="M631.264,218.834h-11.709v2h12.012h0.822h15.166c3.314,0,6-2.687,6-6c0-3.314-2.686-6-6-6v2c2.205,0,4,1.794,4,4
		s-1.795,4-4,4h-12.538c-3.802-1.734-6.455-5.563-6.455-10.007c0-6.064,4.935-10.999,11-10.999c5.384,0,9.868,3.891,10.81,9.006
		h2.021c-0.961-6.23-6.331-11.006-12.831-11.006c-7.18,0-13,5.819-13,12.999C626.562,212.853,628.392,216.449,631.264,218.834z"/>
</g>
<g>
	<path d="M743.781,216.277h-24v2h24c2.205,0,4,1.794,4,4s-1.795,4-4,4v2c3.314,0,6-2.686,6-6
		C749.781,218.964,747.096,216.277,743.781,216.277z"/>
	<path d="M761.281,214.277v-0.051c2.523-0.254,4.5-2.358,4.5-4.949c0-2.762-2.238-5-5-5v2c1.654,0,3,1.346,3,3s-1.346,3-3,3
		c-0.043,0-0.083-0.011-0.126-0.013h-4.862c0.004,0.005,0.009,0.009,0.012,0.013h-0.023v2H761.281z"/>
	<path d="M764.781,216.277h-13v2h9.022c-0.003,0.004-0.007,0.008-0.011,0.013h3.862c0.043-0.002,0.083-0.013,0.126-0.013
		c1.654,0,3,1.346,3,3s-1.346,3-3,3v2c2.762,0,5-2.238,5-5S767.543,216.277,764.781,216.277z"/>
	<path d="M732.615,214.277h15.166c3.314,0,6-2.687,6-6c0-3.314-2.686-6-6-6v2c2.205,0,4,1.794,4,4s-1.795,4-4,4h-12.586
		c-2.596-1.188-4.658-3.339-5.69-6.034c0.849,0.204,1.724,0.309,2.612,0.309c6.168,0,11.187-5.019,11.187-11.188
		c0-1.276-0.22-2.532-0.64-3.717c4.046,1.102,7.168,4.459,7.937,8.63h2.018c-0.964-6.237-6.338-11.016-12.846-11.016
		c-0.259,0-0.511,0.024-0.766,0.039c1.425,1.618,2.297,3.737,2.297,6.063c0,5.072-4.112,9.188-9.187,9.188
		c-1.988,0-3.826-0.641-5.33-1.715c0.162,3.801,1.962,7.165,4.699,9.44h-11.705v2h12.012H732.615z"/>
</g>
<g>
	<path d="M24,301.471H4c-1.103,0-2-0.897-2-2s0.897-2,2-2h3.445H8v-2H4c-2.209,0-4,1.791-4,4s1.791,4,4,4h20c2.205,0,4,1.794,4,4
		s-1.795,4-4,4v2c3.314,0,6-2.686,6-6C30,304.157,27.314,301.471,24,301.471z"/>
	<path d="M26,285.471v2c2.205,0,4,1.794,4,4s-1.795,4-4,4H10.012v2H26c3.314,0,6-2.687,6-6C32,288.156,29.314,285.471,26,285.471z"
		/>
	<path d="M32,297.471v2h5.5v-0.051c2.523-0.254,4.5-2.358,4.5-4.949c0-2.762-2.238-5-5-5v2c1.654,0,3,1.346,3,3s-1.346,3-3,3
		c-0.043,0-0.083-0.011-0.126-0.013h-4.862c0.003,0.005,0.009,0.009,0.012,0.013H32z"/>
	<path d="M43,301.471H32v2h7.022c-0.004,0.004-0.008,0.008-0.011,0.013h3.862c0.043-0.002,0.083-0.013,0.126-0.013
		c1.654,0,3,1.346,3,3s-1.346,3-3,3v2c2.762,0,5-2.238,5-5S45.762,301.471,43,301.471z"/>
</g>
<path d="M560.292,287.817v-0.038h-38.376c-1.103,0-2-0.897-2-2s0.897-2,2-2h33c2.762,0,5-2.238,5-5s-2.238-5-5-5h-37.875v0.008
	c-0.042-0.001-0.083-0.008-0.125-0.008c-2.762,0-5,2.238-5,5s2.238,5,5,5v-2c-1.654,0-3-1.346-3-3s1.346-3,3-3h0.125h3.853h34.022
	c1.654,0,3,1.346,3,3s-1.346,3-3,3h-33c-2.209,0-4,1.791-4,4s1.791,4,4,4h38c1.103,0,2,0.897,2,2s-0.897,2-2,2h-32
	c-2.209,0-4,1.791-4,4s1.791,4,4,4h22c1.103,0,2,0.897,2,2s-0.897,2-2,2h-24.01v0.001c-2.204,0.006-3.99,1.793-3.99,3.999
	s1.786,3.993,3.99,3.999v0.001h12.01c1.103,0,2,0.897,2,2s-0.897,2-2,2h-2c-2.209,0-4,1.791-4,4s1.791,4,4,4v-2
	c-1.103,0-2-0.897-2-2s0.897-2,2-2h2c2.209,0,4-1.791,4-4s-1.791-4-4-4h-12c-1.103,0-2-0.897-2-2s0.897-2,2-2h24
	c2.209,0,4-1.791,4-4c0-2.152-1.704-3.895-3.834-3.983v-0.017h-22.166c-1.103,0-2-0.897-2-2s0.897-2,2-2h32c2.209,0,4-1.791,4-4
	C563.916,289.699,562.322,288.01,560.292,287.817z"/>
<path d="M745.707,278.495v-2.024h-2v2.024c-13.01,0.513-23.462,10.965-23.975,23.976h1.674c1.14-1.222,2.748-2,4.551-2
	c2.26,0,4.233,1.203,5.331,3h1.838c1.098-1.797,3.071-3,5.331-3c2.204,0,4.137,1.144,5.25,2.866v15.134c0,2.21,1.791,4,4,4
	s4-1.79,4-4h-2c0,1.103-0.897,2-2,2s-2-0.897-2-2v-15.134c1.113-1.723,3.046-2.866,5.25-2.866c2.26,0,4.233,1.203,5.331,3h1.838
	c1.098-1.797,3.071-3,5.331-3c1.803,0,3.411,0.778,4.551,2h1.674C769.169,289.46,758.717,279.008,745.707,278.495z M763.457,298.471
	c-2.496,0-4.736,1.114-6.25,2.87c-1.514-1.756-3.754-2.87-6.25-2.87s-4.736,1.114-6.25,2.87c-1.514-1.756-3.754-2.87-6.25-2.87
	s-4.736,1.114-6.25,2.87c-1.514-1.756-3.755-2.87-6.25-2.87c-1.402,0-2.731,0.351-3.897,0.975
	c1.909-10.769,11.339-18.975,22.647-18.975s20.738,8.206,22.647,18.975C766.188,298.821,764.859,298.471,763.457,298.471z"/>
<g>
	<path d="M340.412,402.783v-17.105c0-2.762-2.238-5-5-5s-5,2.238-5,5v17.105c-1.236,1.263-2,2.988-2,4.895c0,3.866,3.134,7,7,7
		s7-3.134,7-7C342.412,405.771,341.648,404.046,340.412,402.783z M335.412,412.678c-2.757,0-5-2.243-5-5
		c0-1.313,0.508-2.554,1.429-3.495l0.571-0.583v-0.816v-17.105c0-1.654,1.346-3,3-3s3,1.346,3,3v17.105v0.816l0.571,0.583
		c0.921,0.941,1.429,2.183,1.429,3.495C340.412,410.435,338.169,412.678,335.412,412.678z"/>
	<path d="M336.412,404.854v-15.176h-2v15.176c-1.167,0.413-2.008,1.516-2.008,2.824c0,1.662,1.347,3.008,3.008,3.008
		c1.662,0,3.008-1.346,3.008-3.008C338.42,406.369,337.58,405.267,336.412,404.854z M335.412,408.686
		c-0.556,0-1.008-0.452-1.008-1.008s0.452-1.008,1.008-1.008s1.008,0.452,1.008,1.008S335.968,408.686,335.412,408.686z"/>
</g>
<g>
	<path d="M440.2,402.783v-17.105c0-2.762-2.238-5-5-5s-5,2.238-5,5v17.105c-1.236,1.263-2,2.988-2,4.895c0,3.866,3.134,7,7,7
		s7-3.134,7-7C442.2,405.771,441.437,404.046,440.2,402.783z M435.2,412.678c-2.757,0-5-2.243-5-5c0-1.313,0.508-2.554,1.429-3.495
		l0.571-0.583v-0.816v-17.105c0-1.654,1.346-3,3-3s3,1.346,3,3v17.105v0.816l0.571,0.583c0.921,0.941,1.429,2.183,1.429,3.495
		C440.2,410.435,437.957,412.678,435.2,412.678z"/>
	<path d="M436.2,404.854v-20.176h-2v20.176c-1.167,0.413-2.008,1.516-2.008,2.824c0,1.662,1.347,3.008,3.008,3.008
		c1.662,0,3.008-1.346,3.008-3.008C438.208,406.369,437.368,405.267,436.2,404.854z M435.2,408.686
		c-0.556,0-1.008-0.452-1.008-1.008s0.452-1.008,1.008-1.008s1.008,0.452,1.008,1.008S435.756,408.686,435.2,408.686z"/>
</g>
<g>
	<path d="M237.303,402.783v-17.105c0-2.762-2.238-5-5-5s-5,2.238-5,5v17.105c-1.236,1.263-2,2.988-2,4.895c0,3.866,3.134,7,7,7
		s7-3.134,7-7C239.303,405.771,238.539,404.046,237.303,402.783z M232.303,412.678c-2.757,0-5-2.243-5-5
		c0-1.313,0.508-2.554,1.429-3.495l0.571-0.583v-0.816v-17.105c0-1.654,1.346-3,3-3s3,1.346,3,3v17.105v0.816l0.571,0.583
		c0.921,0.941,1.429,2.183,1.429,3.495C237.303,410.435,235.06,412.678,232.303,412.678z"/>
	<path d="M233.303,404.854v-10.176h-2v10.176c-1.167,0.413-2.008,1.516-2.008,2.824c0,1.662,1.347,3.008,3.008,3.008
		c1.662,0,3.008-1.346,3.008-3.008C235.311,406.369,234.471,405.267,233.303,404.854z M232.303,408.686
		c-0.556,0-1.008-0.452-1.008-1.008s0.452-1.008,1.008-1.008s1.008,0.452,1.008,1.008S232.858,408.686,232.303,408.686z"/>
</g>
<g>
	<path d="M133.657,402.783v-17.105c0-2.762-2.238-5-5-5s-5,2.238-5,5v17.105c-1.236,1.263-2,2.988-2,4.895c0,3.866,3.134,7,7,7
		s7-3.134,7-7C135.657,405.771,134.894,404.046,133.657,402.783z M128.657,412.678c-2.757,0-5-2.243-5-5
		c0-1.313,0.508-2.554,1.429-3.495l0.571-0.583v-0.816v-17.105c0-1.654,1.346-3,3-3s3,1.346,3,3v17.105v0.816l0.571,0.583
		c0.921,0.941,1.429,2.183,1.429,3.495C133.657,410.435,131.414,412.678,128.657,412.678z"/>
	<path d="M129.657,404.854v-5.176h-2v5.176c-1.167,0.413-2.008,1.516-2.008,2.824c0,1.662,1.347,3.008,3.008,3.008
		c1.662,0,3.008-1.346,3.008-3.008C131.665,406.369,130.825,405.267,129.657,404.854z M128.657,408.686
		c-0.556,0-1.008-0.452-1.008-1.008s0.452-1.008,1.008-1.008s1.008,0.452,1.008,1.008S129.213,408.686,128.657,408.686z"/>
</g>
<g>
	<path d="M29,402.783v-17.105c0-2.762-2.238-5-5-5s-5,2.238-5,5v17.105c-1.236,1.263-2,2.988-2,4.895c0,3.866,3.134,7,7,7
		s7-3.134,7-7C31,405.771,30.236,404.046,29,402.783z M24,412.678c-2.757,0-5-2.243-5-5c0-1.313,0.508-2.554,1.429-3.495L21,403.6
		v-0.816v-17.105c0-1.654,1.346-3,3-3s3,1.346,3,3v17.105v0.816l0.571,0.583c0.921,0.941,1.429,2.183,1.429,3.495
		C29,410.435,26.757,412.678,24,412.678z"/>
	<path d="M24,404.67c-1.661,0-3.008,1.347-3.008,3.008c0,1.662,1.347,3.008,3.008,3.008c1.662,0,3.008-1.346,3.008-3.008
		C27.008,406.017,25.662,404.67,24,404.67z M24,408.686c-0.556,0-1.008-0.452-1.008-1.008s0.452-1.008,1.008-1.008
		s1.008,0.452,1.008,1.008S24.556,408.686,24,408.686z"/>
</g>
<g>
	<path d="M528.925,382.99c-2.209,0-4,1.791-4,4c0,2.21,1.791,4,4,4c2.211,0,4-1.79,4-4
		C532.925,384.781,531.136,382.99,528.925,382.99z M528.925,388.99c-1.103,0-2-0.897-2-2s0.897-2,2-2s2,0.897,2,2
		S530.027,388.99,528.925,388.99z"/>
	<path d="M542.925,410.99c-4.41,0-7.999-3.589-7.999-7.999v-4.002c0-4.41,3.589-7.999,7.999-7.999c2.715,0,5.115,1.362,6.563,3.437
		l1.43-1.43c-1.824-2.429-4.72-4.007-7.992-4.007c-5.522,0-9.999,4.478-9.999,9.999v4.002c0,5.521,4.477,9.999,9.999,9.999
		c3.272,0,6.168-1.579,7.992-4.008l-1.43-1.43C548.041,409.627,545.641,410.99,542.925,410.99z"/>
</g>
<g>
	<path d="M633.621,382.869c-2.209,0-4,1.791-4,4c0,2.21,1.791,4,4,4c2.211,0,4-1.79,4-4
		C637.621,384.66,635.832,382.869,633.621,382.869z M633.621,388.869c-1.103,0-2-0.897-2-2s0.897-2,2-2s2,0.897,2,2
		S634.724,388.869,633.621,388.869z"/>
	<polygon points="653.496,390.99 653.496,388.99 641.496,388.99 639.496,388.99 639.496,412.99 641.496,412.99 641.496,400.99 
		649.496,400.99 649.496,398.99 641.496,398.99 641.496,390.99 	"/>
</g>
<g>
	<path d="M744.707,386.682c-7.179,0-13,5.82-13,13s5.821,13,13,13s13-5.82,13-13S751.886,386.682,744.707,386.682z M744.707,410.682
		c-6.065,0-11-4.935-11-11s4.935-11,11-11s11,4.935,11,11S750.772,410.682,744.707,410.682z"/>
	<path d="M740.44,403.924l6.363-2.121l2.121-6.364l-6.363,2.122L740.44,403.924z M744.143,399.142l1.62-0.54l-0.54,1.62l-1.62,0.54
		L744.143,399.142z"/>
</g>
<g>
	<path d="M24,477.199c-7.179,0-13,5.82-13,13s5.821,13,13,13s13-5.82,13-13S31.179,477.199,24,477.199z M24,501.199
		c-6.065,0-11-4.934-11-11c0-6.064,4.935-11,11-11s11,4.936,11,11C35,496.266,30.065,501.199,24,501.199z"/>
	<path d="M26.562,488.621l-2.586-4.422l-2.529,4.33h0.007c-0.299,0.467-0.478,1.018-0.478,1.613c0,1.656,1.343,3,3,3s3-1.344,3-3
		c0-0.559-0.162-1.074-0.428-1.521H26.562z M23.976,491.143c-0.552,0-1-0.449-1-1c0-0.188,0.055-0.367,0.162-0.535l0.864-1.355
		l0.826,1.391c0.098,0.164,0.147,0.332,0.147,0.5C24.976,490.693,24.527,491.143,23.976,491.143z"/>
</g>
<g>
	<path d="M128.784,477.199c-7.18,0-13,5.82-13,13s5.82,13,13,13s13-5.82,13-13S135.964,477.199,128.784,477.199z M128.784,501.199
		c-6.065,0-11-4.934-11-11c0-6.064,4.935-11,11-11s11,4.936,11,11C139.784,496.266,134.85,501.199,128.784,501.199z"/>
	<path d="M130.373,487.619c-0.467-0.299-1.018-0.477-1.613-0.477c-1.658,0-3,1.342-3,3c0,1.656,1.342,3,3,3
		c0.557,0,1.072-0.162,1.52-0.428v0.014l4.422-2.586l-4.328-2.529V487.619z M129.258,490.994c-0.164,0.098-0.332,0.148-0.498,0.148
		c-0.552,0-1-0.449-1-1c0-0.553,0.448-1,1-1c0.188,0,0.368,0.053,0.535,0.16l1.355,0.865L129.258,490.994z"/>
</g>
<g>
	<path d="M231.835,477.199c-7.18,0-13,5.82-13,13s5.82,13,13,13s13-5.82,13-13S239.015,477.199,231.835,477.199z M231.835,501.199
		c-6.065,0-11-4.934-11-11c0-6.064,4.935-11,11-11s11,4.936,11,11C242.835,496.266,237.9,501.199,231.835,501.199z"/>
	<path d="M231.835,487.143c-1.656,0-3,1.342-3,3c0,0.557,0.162,1.072,0.428,1.52h-0.014l2.586,4.422l2.529-4.328h-0.006
		c0.299-0.467,0.477-1.018,0.477-1.613C234.835,488.484,233.493,487.143,231.835,487.143z M232.674,490.678l-0.865,1.355
		l-0.826-1.393c-0.098-0.164-0.147-0.332-0.147-0.498c0-0.553,0.448-1,1-1s1,0.447,1,1
		C232.835,490.33,232.781,490.51,232.674,490.678z"/>
</g>
<g>
	<path d="M335.249,477.199c-7.179,0-13,5.82-13,13s5.821,13,13,13s13-5.82,13-13S342.428,477.199,335.249,477.199z M335.249,501.199
		c-6.065,0-11-4.934-11-11c0-6.064,4.935-11,11-11s11,4.936,11,11C346.249,496.266,341.314,501.199,335.249,501.199z"/>
	<path d="M335.208,487.143c-0.557,0-1.072,0.162-1.52,0.428v-0.014l-4.422,2.586l4.328,2.529v-0.006
		c0.467,0.299,1.018,0.477,1.613,0.477c1.658,0,3-1.342,3-3C338.208,488.486,336.866,487.143,335.208,487.143z M335.208,491.143
		c-0.188,0-0.368-0.055-0.535-0.162l-1.355-0.865l1.393-0.826c0.164-0.098,0.332-0.146,0.498-0.146c0.552,0,1,0.447,1,1
		C336.208,490.693,335.76,491.143,335.208,491.143z"/>
</g>
<g>
	<rect x="127.098" y="280.471" width="2" height="10"/>
	<rect x="141.797" y="286.557" transform="matrix(0.7071 0.7071 -0.7071 0.7071 248.1307 -15.5181)" width="2" height="10.409"/>
	<rect x="108.189" y="290.766" transform="matrix(0.7071 0.7071 -0.7071 0.7071 239.5219 5.2753)" width="10.409" height="2"/>
	<polygon points="121.43,309.725 122.844,311.139 127.098,306.885 127.098,316.471 129.098,316.471 129.098,306.885 
		133.351,311.139 134.765,309.725 128.098,303.057 	"/>
	<path d="M141.104,306.47c0-0.002,0-0.004,0-0.006c0-7.18-5.82-12.999-13-12.999s-13,5.819-13,12.999c0,0.002,0,0.004,0,0.006h-13v2
		h18v-2h-3c0-0.002,0-0.004,0-0.006c0-6.064,4.935-10.999,11-10.999s11,4.935,11,10.999c0,0.002,0,0.004,0,0.006h-3v2H154.1v-2
		H141.104z"/>
</g>
<g>
	<rect x="230.843" y="279.283" width="2" height="10"/>
	<rect x="245.543" y="285.369" transform="matrix(0.7071 0.7071 -0.7071 0.7071 277.6772 -89.2248)" width="2" height="10.409"/>
	<rect x="211.934" y="289.579" transform="matrix(0.7071 0.7071 -0.7071 0.7071 269.0684 -68.4314)" width="10.409" height="2"/>
	<polygon points="232.843,313.83 232.843,303.283 230.843,303.283 230.843,313.83 226.589,309.576 225.175,310.99 231.843,317.658 
		238.51,310.99 237.096,309.576 	"/>
	<path d="M244.85,305.282c0-0.002,0-0.004,0-0.006c0-7.18-5.82-12.999-13-12.999s-13,5.819-13,12.999c0,0.002,0,0.004,0,0.006h-13v2
		h22v-2h-7c0-0.002,0-0.004,0-0.006c0-6.064,4.935-10.999,11-10.999s11,4.935,11,10.999c0,0.002,0,0.004,0,0.006h-7v2h21.995v-2
		H244.85z"/>
</g>
<g>
	<polygon points="435.2,313.296 435.2,298.913 433.2,298.913 433.2,313.296 428.946,309.042 427.532,310.456 434.2,317.124 
		440.867,310.456 439.453,309.042 	"/>
	<path d="M450.828,293.942c-1.596-7.445-8.207-13.029-16.127-13.029c-6.423,0-11.977,3.678-14.702,9.035
		c-0.266-0.018-0.53-0.04-0.8-0.04c-6.627,0-11.999,5.372-11.999,12c0,6.607,5.34,11.965,11.938,11.998v0.003h6.062v-2h-5.604
		l-0.447-0.003c-5.485-0.027-9.948-4.513-9.948-9.998c0-5.514,4.485-10,9.999-10c0.175,0,0.347,0.014,0.52,0.025l0.148,0.01
		l1.316,0.088l0.598-1.176c2.492-4.899,7.443-7.942,12.92-7.942c6.79,0,12.75,4.814,14.172,11.448l0.317,1.482l1.514,0.095
		c4.203,0.262,7.496,3.763,7.496,7.971c0,4.397-3.565,7.977-7.957,8c-0.05-0.003-0.093-0.005-0.137-0.007l-2.043,0.007H443.2v2
		h6.863v-0.007c0.046,0.001,0.091,0.007,0.137,0.007c5.521,0,10-4.477,10-10C460.2,298.599,456.056,294.268,450.828,293.942z"/>
</g>
<g>
	<polygon points="341.185,310.101 342.599,308.687 335.932,302.019 329.264,308.687 330.678,310.101 334.932,305.847 
		334.932,318.433 336.932,318.433 336.932,305.847 	"/>
	<path d="M352.56,295.538c-1.596-7.445-8.207-13.029-16.127-13.029c-6.423,0-11.977,3.678-14.702,9.035
		c-0.266-0.018-0.53-0.04-0.8-0.04c-6.627,0-11.999,5.372-11.999,12c0,6.607,5.34,11.965,11.938,11.998v0.003h10.062v-2h-9.604
		l-0.447-0.003c-5.485-0.027-9.948-4.513-9.948-9.998c0-5.514,4.485-10,9.999-10c0.175,0,0.347,0.014,0.52,0.025l0.148,0.01
		l1.316,0.088l0.598-1.176c2.492-4.899,7.443-7.942,12.92-7.942c6.79,0,12.75,4.814,14.172,11.448l0.317,1.482l1.514,0.095
		c4.203,0.262,7.496,3.763,7.496,7.971c0,4.397-3.565,7.977-7.957,8c-0.05-0.003-0.093-0.005-0.137-0.007l-2.043,0.007h-8.863v2
		h10.863v-0.007c0.046,0.001,0.091,0.007,0.137,0.007c5.521,0,10-4.477,10-10C361.932,300.194,357.787,295.863,352.56,295.538z"/>
</g>
<g>
	<path d="M555.049,106.022c-1.596-7.445-8.207-13.029-16.127-13.029c-6.423,0-11.977,3.678-14.702,9.035
		c-0.266-0.018-0.53-0.04-0.8-0.04c-6.627,0-11.999,5.372-11.999,12c0,6.607,5.34,11.965,11.938,11.998v0.003h2.062v-2h-1.604
		l-0.447-0.003c-5.485-0.027-9.948-4.513-9.948-9.998c0-5.514,4.485-10,9.999-10c0.175,0,0.347,0.014,0.52,0.025l0.148,0.01
		l1.316,0.088l0.598-1.176c2.492-4.899,7.443-7.942,12.92-7.942c6.79,0,12.75,4.814,14.172,11.448l0.317,1.482l1.514,0.095
		c4.203,0.262,7.496,3.763,7.496,7.971c0,4.397-3.565,7.977-7.957,8c-0.05-0.003-0.093-0.005-0.137-0.007l-2.043,0.007h-0.863v2
		h2.863v-0.007c0.046,0.001,0.091,0.007,0.137,0.007c5.521,0,10-4.477,10-10C564.421,110.679,560.276,106.348,555.049,106.022z"/>
	<polygon points="533.421,125.011 533.421,122.381 535.594,123.604 536.279,122.383 533.81,120.993 536.279,119.604 
		535.594,118.383 533.421,119.605 533.421,117.011 531.421,117.011 531.421,119.649 529.17,118.383 528.484,119.604 
		530.954,120.993 528.484,122.383 529.17,123.604 531.421,122.337 531.421,125.011 	"/>
	<polygon points="538.583,129.365 536.41,130.588 536.41,127.993 534.41,127.993 534.41,130.632 532.159,129.365 531.474,130.586 
		533.943,131.976 531.474,133.365 532.159,134.586 534.41,133.319 534.41,135.993 536.41,135.993 536.41,133.363 538.583,134.586 
		539.269,133.365 536.799,131.976 539.269,130.586 	"/>
	<polygon points="547.599,122.383 545.426,123.605 545.426,121.011 543.426,121.011 543.426,123.649 541.175,122.383 
		540.489,123.604 542.959,124.993 540.489,126.383 541.175,127.604 543.426,126.337 543.426,129.011 545.426,129.011 
		545.426,126.381 547.599,127.604 548.284,126.383 545.814,124.993 548.284,123.604 	"/>
</g>
<g>
	<rect x="630.561" y="87.971" width="2" height="7.973"/>
	<rect x="611.561" y="106.885" width="7.973" height="2"/>
	<rect x="616.234" y="95.618" transform="matrix(0.7071 0.7071 -0.7071 0.7071 249.9778 -410.2635)" width="7.974" height="2"/>
	<rect x="641.742" y="92.636" transform="matrix(0.7071 0.7071 -0.7071 0.7071 256.5769 -426.1874)" width="2" height="7.972"/>
	<path d="M661.072,113.761c-1.444-6.742-7.433-11.8-14.605-11.8c-2.185,0-4.258,0.471-6.127,1.314
		c-1.666-3.203-5.006-5.395-8.865-5.395c-5.522,0-10,4.477-10,9.999c0,2.46,0.899,4.702,2.373,6.442
		c-1.428,1.84-2.287,4.144-2.287,6.653c0,5.983,4.836,10.836,10.813,10.865v0.003h1.188v-2h-0.721l-0.457-0.003
		c-4.864-0.023-8.822-4.001-8.822-8.865c0-4.89,3.978-8.868,8.867-8.868c0.15,0,0.299,0.012,0.447,0.022l0.148,0.01l1.314,0.085
		l0.597-1.175c2.225-4.372,6.644-7.089,11.532-7.089c6.062,0,11.382,4.298,12.649,10.219l0.318,1.483l1.514,0.094
		c3.708,0.23,6.612,3.319,6.612,7.03c0,3.878-3.144,7.035-7.017,7.057c-0.042-0.003-0.079-0.005-0.117-0.005l-1.866,0.005v2h1.819
		v-0.006c0.042,0.001,0.082,0.006,0.124,0.006c5.001,0,9.057-4.054,9.057-9.057C669.561,117.978,665.807,114.056,661.072,113.761z
		 M633.152,110.144c-0.241-0.016-0.48-0.036-0.725-0.036c-2.766,0-5.282,1.041-7.2,2.742c-1.092-1.365-1.753-3.089-1.753-4.97
		c0-4.41,3.589-7.999,8-7.999c3.092,0,5.76,1.773,7.091,4.346C636.268,105.666,634.389,107.714,633.152,110.144z"/>
	<polygon points="640.553,130.863 640.553,128.233 642.726,129.456 643.411,128.235 640.941,126.846 643.411,125.456 
		642.726,124.235 640.553,125.458 640.553,122.863 638.553,122.863 638.553,125.502 636.302,124.235 635.616,125.456 
		638.086,126.846 635.616,128.235 636.302,129.456 638.553,128.189 638.553,130.863 	"/>
	<polygon points="645.715,135.218 643.542,136.44 643.542,133.846 641.542,133.846 641.542,136.484 639.291,135.218 
		638.605,136.438 641.075,137.828 638.605,139.218 639.291,140.438 641.542,139.172 641.542,141.846 643.542,141.846 
		643.542,139.216 645.715,140.438 646.4,139.218 643.931,137.828 646.4,136.438 	"/>
	<polygon points="654.73,128.235 652.558,129.458 652.558,126.863 650.558,126.863 650.558,129.502 648.307,128.235 
		647.621,129.456 650.091,130.846 647.621,132.235 648.307,133.456 650.558,132.189 650.558,134.863 652.558,134.863 
		652.558,132.233 654.73,133.456 655.416,132.235 652.946,130.846 655.416,129.456 	"/>
</g>
<g>
	<path d="M761.261,110.758c-1.444-6.742-7.433-11.8-14.605-11.8c-1.799,0-3.522,0.32-5.118,0.904
		c-0.949-5.108-5.404-8.98-10.788-8.98c-0.413,0-0.819,0.027-1.222,0.071c0.744,1.112,1.179,2.448,1.179,3.886c0,3.865-3.134,7-7,7
		c-1.438,0-2.773-0.435-3.886-1.179c-0.044,0.401-0.071,0.809-0.071,1.222c0,3.713,1.845,6.987,4.661,8.979
		c-1.653,1.907-2.661,4.389-2.661,7.111c0,5.983,4.836,10.836,10.813,10.865v0.003h1.188v-2h-0.721l-0.457-0.003
		c-4.864-0.023-8.822-4.001-8.822-8.865c0-4.89,3.978-8.868,8.867-8.868c0.15,0,0.299,0.012,0.447,0.022l0.148,0.01l1.314,0.085
		l0.597-1.175c2.225-4.372,6.644-7.089,11.532-7.089c6.062,0,11.382,4.298,12.649,10.219l0.318,1.483l1.514,0.094
		c3.708,0.23,6.612,3.319,6.612,7.03c0,3.878-3.144,7.035-7.017,7.057c-0.042-0.003-0.079-0.005-0.117-0.005l-1.866,0.005v2h1.819
		v-0.006c0.042,0.001,0.082,0.006,0.124,0.006c5.001,0,9.057-4.054,9.057-9.057C769.749,114.975,765.995,111.053,761.261,110.758z
		 M733.341,107.141c-0.241-0.016-0.48-0.036-0.725-0.036c-2.537,0-4.865,0.877-6.715,2.334c-2.012-1.294-3.486-3.354-3.976-5.776
		c0.582,0.117,1.178,0.177,1.78,0.177c4.963,0,9-4.037,9-9c0-0.603-0.06-1.198-0.177-1.78c3.733,0.753,6.629,3.824,7.134,7.64
		C736.95,102.143,734.735,104.397,733.341,107.141z"/>
	<polygon points="740.786,127.86 740.786,125.23 742.959,126.453 743.645,125.232 741.175,123.843 743.645,122.453 742.959,121.232 
		740.786,122.455 740.786,119.86 738.786,119.86 738.786,122.499 736.535,121.232 735.85,122.453 738.319,123.843 735.85,125.232 
		736.535,126.453 738.786,125.187 738.786,127.86 	"/>
	<polygon points="745.948,132.215 743.775,133.438 743.775,130.843 741.775,130.843 741.775,133.481 739.524,132.215 
		738.839,133.436 741.309,134.825 738.839,136.215 739.524,137.436 741.775,136.169 741.775,138.843 743.775,138.843 
		743.775,136.213 745.948,137.436 746.634,136.215 744.164,134.825 746.634,133.436 	"/>
	<polygon points="754.964,125.232 752.791,126.455 752.791,123.86 750.791,123.86 750.791,126.499 748.54,125.232 747.854,126.453 
		750.324,127.843 747.854,129.232 748.54,130.453 750.791,129.187 750.791,131.86 752.791,131.86 752.791,129.23 754.964,130.453 
		755.649,129.232 753.18,127.843 755.649,126.453 	"/>
</g>
<rect x="144.902" y="-456.992" fill="none" width="472.974" height="180.918"/>
<text transform="matrix(1 0 0 1 324.5396 -385.5933)"><tspan x="0" y="0" font-family="'HelveticaNeueLTStd-Th'" font-size="100" letter-spacing="2">60</tspan><tspan x="-99.268" y="60" font-family="'HelveticaNeueLTStd-Lt'" font-size="48" letter-spacing="1">Weather Icons</tspan><tspan x="-3.726" y="104" font-family="'HelveticaNeueLTStd-Lt'" font-size="24">IOS 7 Style</tspan></text>
</svg>
