<?xml version="1.0" encoding="utf-8"?>
<!-- Generator: Adobe Illustrator 16.0.0, SVG Export Plug-In . SVG Version: 6.00 Build 0)  -->
<!DOCTYPE svg PUBLIC "-//W3C//DTD SVG 1.1//EN" "http://www.w3.org/Graphics/SVG/1.1/DTD/svg11.dtd">
<svg version="1.1" id="Layer_1" xmlns="http://www.w3.org/2000/svg" xmlns:xlink="http://www.w3.org/1999/xlink" x="0px" y="0px"
	 width="53px" height="48.024px" viewBox="0 0 53 48.024" enable-background="new 0 0 53 48.024" xml:space="preserve">
<path d="M337.122,379.914l-1.803,15.077l-0.268,2.237h2.254h6.896l-14.693,18.759l1.789-14.52l0.277-2.245h-2.262h-6.957
	L337.122,379.914 M339.977,372.89l-21.667,28.333h11.004l-2.671,21.667l21.667-27.661h-11.004L339.977,372.89L339.977,372.89z"/>
<path d="M-75.913-82.347c6.79,0,12.749,4.814,14.171,11.448l0.318,1.483l1.514,0.094c4.203,0.262,7.496,3.763,7.496,7.971
	c0,4.396-3.565,7.977-7.957,8c-0.046-0.003-0.091-0.006-0.137-0.007l-2.043-0.036v0.043h-28.337l-0.578-0.003
	c-5.485-0.027-9.948-4.513-9.948-9.998c0-5.514,4.485-10,9.999-10c0.175,0,0.347,0.014,0.519,0.025l0.149,0.011l1.316,0.087
	l0.598-1.176C-86.34-79.304-81.39-82.347-75.913-82.347 M-75.913-84.347c-6.423,0-11.977,3.678-14.702,9.035
	c-0.266-0.018-0.53-0.04-0.8-0.04c-6.627,0-11.999,5.372-11.999,12c0,6.607,5.34,11.965,11.938,11.998v0.003h30.925v-0.007
	c0.046,0.001,0.091,0.007,0.137,0.007c5.521,0,10-4.477,10-10c0-5.311-4.145-9.642-9.372-9.967
	C-61.382-78.763-67.993-84.347-75.913-84.347L-75.913-84.347z"/>
<g>
	<path d="M47.038-63.936c-1.444-6.742-7.433-11.8-14.605-11.8c-2.185,0-4.258,0.47-6.127,1.313
		c-1.666-3.202-5.006-5.394-8.865-5.394c-5.522,0-10,4.477-10,9.999c0,2.46,0.898,4.702,2.373,6.442
		c-1.428,1.84-2.287,4.144-2.287,6.653c0,5.983,4.836,10.836,10.813,10.865v0.003h28.007v-0.006
		c0.042,0.001,0.082,0.006,0.124,0.006c5.001,0,9.057-4.054,9.057-9.057C55.526-59.719,51.772-63.641,47.038-63.936z M17.44-77.815
		c3.092,0,5.76,1.773,7.092,4.345c-2.299,1.44-4.178,3.488-5.414,5.918c-0.241-0.016-0.48-0.036-0.725-0.036
		c-2.766,0-5.281,1.041-7.2,2.743c-1.092-1.366-1.753-3.09-1.753-4.971C9.44-74.227,13.029-77.815,17.44-77.815z M46.51-47.853
		c-0.038-0.003-0.077-0.004-0.117-0.005l-2.047-0.042v0.047H18.942l-0.594-0.003c-4.864-0.023-8.822-4.001-8.822-8.865
		c0-4.89,3.978-8.868,8.867-8.868c0.15,0,0.299,0.012,0.447,0.021l0.148,0.011l1.314,0.085l0.598-1.174
		c2.224-4.373,6.643-7.09,11.531-7.09c6.062,0,11.381,4.298,12.65,10.219l0.317,1.482l1.514,0.095
		c3.708,0.231,6.612,3.319,6.612,7.03C53.526-51.031,50.383-47.875,46.51-47.853z"/>
	<rect x="16.446" y="-89.846" width="2" height="7.973"/>
	<rect x="-2.526" y="-70.859" width="7.973" height="2"/>
	<rect x="2.199" y="-82.078" transform="matrix(0.7071 0.7071 -0.7071 0.7071 -55.5189 -28.1218)" width="7.974" height="2"/>
	<rect x="27.708" y="-85.06" transform="matrix(0.7071 0.7071 -0.7071 0.7071 -48.9197 -44.0457)" width="2" height="7.972"/>
</g>
<path d="M142.781-67.963c-1.444-6.742-7.433-11.8-14.605-11.8c-1.799,0-3.521,0.32-5.118,0.904c-0.949-5.108-5.404-8.98-10.788-8.98
	c-0.413,0-0.819,0.027-1.222,0.071c0.744,1.112,1.179,2.448,1.179,3.886c0,3.865-3.134,7-7,7c-1.438,0-2.773-0.435-3.886-1.179
	c-0.044,0.401-0.071,0.809-0.071,1.222c0,3.712,1.845,6.987,4.661,8.979c-1.653,1.907-2.661,4.389-2.661,7.111
	c0,5.983,4.836,10.836,10.813,10.865v0.003h28.007v-0.006c0.042,0.001,0.082,0.006,0.124,0.006c5.001,0,9.057-4.054,9.057-9.057
	C151.27-63.746,147.516-67.668,142.781-67.963z M103.446-75.059c0.582,0.117,1.178,0.177,1.78,0.177c4.963,0,9-4.037,9-9
	c0-0.603-0.06-1.198-0.177-1.78c3.733,0.753,6.629,3.824,7.134,7.64c-2.713,1.444-4.928,3.699-6.322,6.442
	c-0.241-0.016-0.48-0.036-0.725-0.036c-2.537,0-4.865,0.876-6.715,2.334C105.41-70.576,103.936-72.636,103.446-75.059z
	 M142.253-51.88c-0.038-0.003-0.077-0.004-0.117-0.005l-2.047-0.042v0.047h-25.403l-0.594-0.003
	c-4.864-0.023-8.822-4.001-8.822-8.865c0-4.89,3.978-8.868,8.867-8.868c0.15,0,0.299,0.012,0.447,0.021l0.148,0.011l1.314,0.085
	l0.598-1.174c2.224-4.373,6.643-7.09,11.531-7.09c6.062,0,11.381,4.298,12.65,10.219l0.317,1.482l1.514,0.095
	c3.708,0.231,6.612,3.319,6.612,7.03C149.27-55.059,146.126-51.902,142.253-51.88z"/>
<g>
	<rect x="227.427" y="-59.34" width="2" height="7"/>
	<rect x="235.427" y="-63.34" width="2" height="7"/>
	<rect x="219.427" y="-63.34" width="2" height="7"/>
	<rect x="227.427" y="-49.34" width="2" height="7"/>
	<rect x="235.427" y="-53.34" width="2" height="7"/>
	<rect x="219.427" y="-53.34" width="2" height="7"/>
	<path d="M246.055-76.328c-1.596-7.445-8.207-13.029-16.127-13.029c-6.423,0-11.977,3.678-14.702,9.035
		c-0.266-0.018-0.53-0.04-0.8-0.04c-6.627,0-11.999,5.372-11.999,12c0,6.607,5.34,11.965,11.938,11.998v0.003h2.062v-2h-1.604
		l-0.447-0.003c-5.485-0.027-9.948-4.513-9.948-9.998c0-5.514,4.485-10,9.999-10c0.175,0,0.347,0.014,0.52,0.025l0.148,0.01
		l1.316,0.088l0.598-1.176c2.492-4.899,7.443-7.942,12.92-7.942c6.79,0,12.75,4.814,14.172,11.448l0.317,1.482l1.514,0.095
		c4.203,0.262,7.496,3.763,7.496,7.971c0,4.397-3.565,7.977-7.957,8c-0.05-0.003-0.093-0.005-0.137-0.007l-2.043,0.007h-2.863v2
		h4.863v-0.007c0.046,0.001,0.091,0.007,0.137,0.007c5.521,0,10-4.477,10-10C255.427-71.672,251.282-76.003,246.055-76.328z"/>
</g>
<g>
	<path d="M43.628,13.029C42.032,5.584,35.421,0,27.501,0c-6.423,0-11.977,3.678-14.702,9.035c-0.266-0.018-0.53-0.04-0.8-0.04
		C5.372,8.995,0,14.367,0,20.995c0,6.607,5.34,11.965,11.938,11.998v0.003H14v-2h-1.604l-0.447-0.003C6.463,30.966,2,26.48,2,20.995
		c0-5.514,4.485-10,9.999-10c0.175,0,0.347,0.014,0.52,0.025l0.148,0.01l1.316,0.088l0.598-1.176C17.073,5.043,22.024,2,27.501,2
		c6.79,0,12.75,4.814,14.172,11.448l0.317,1.482l1.514,0.095C47.707,15.287,51,18.788,51,22.996c0,4.397-3.565,7.977-7.957,8
		c-0.05-0.003-0.093-0.005-0.137-0.007l-2.043,0.007H38v2h4.863v-0.007c0.046,0.001,0.091,0.007,0.137,0.007c5.521,0,10-4.477,10-10
		C53,17.686,48.855,13.354,43.628,13.029z"/>
	<polygon points="25,40.024 25,41.965 25,48.024 27,48.024 27,41.965 27,40.024 27,28.024 25,28.024 	"/>
	<polygon points="33,36.024 33,37.777 33,44.024 35,44.024 35,37.777 35,36.024 35,24.024 33,24.024 	"/>
	<polygon points="17,36.024 17,38.09 17,44.024 19,44.024 19,38.09 19,36.024 19,24.024 17,24.024 	"/>
</g>
<g>
	<polygon points="339.277,36.936 332.395,27.105 330.757,28.253 337.64,38.083 338.752,39.672 342.228,44.636 343.866,43.489 
		340.391,38.524 	"/>
	<polygon points="347.279,36.934 340.395,27.105 338.757,28.254 345.643,38.082 346.647,39.518 350.231,44.633 351.87,43.486 
		348.286,38.37 	"/>
	<polygon points="331.277,36.936 324.395,27.105 322.757,28.254 329.64,38.083 330.824,39.775 334.229,44.637 335.866,43.489 
		332.463,38.628 	"/>
	<path d="M350.385,13.296c-1.596-7.445-8.207-13.029-16.127-13.029c-6.423,0-11.977,3.678-14.702,9.035
		c-0.266-0.018-0.53-0.04-0.8-0.04c-6.627,0-11.999,5.372-11.999,12c0,6.607,5.34,11.965,11.938,11.998v0.003h2.062v-2h-1.604
		l-0.447-0.003c-5.485-0.027-9.948-4.513-9.948-9.998c0-5.514,4.485-10,9.999-10c0.175,0,0.347,0.014,0.52,0.025l0.148,0.01
		l1.316,0.088l0.598-1.176c2.492-4.899,7.443-7.942,12.92-7.942c6.79,0,12.75,4.814,14.172,11.448l0.317,1.482l1.514,0.095
		c4.203,0.262,7.496,3.763,7.496,7.971c0,4.397-3.565,7.977-7.957,8c-0.05-0.003-0.093-0.005-0.137-0.007l-1.043,0.007h0.137v2
		h0.863v-0.007c0.046,0.001,0.091,0.007,0.137,0.007c5.521,0,10-4.477,10-10C359.757,17.952,355.612,13.621,350.385,13.296z"/>
</g>
<g>
	<rect x="322.083" y="-95.786" width="2" height="7.973"/>
	<rect x="303.083" y="-76.872" width="7.973" height="2"/>
	<rect x="307.756" y="-88.139" transform="matrix(0.7071 0.7071 -0.7071 0.7071 29.6911 -245.958)" width="7.974" height="2"/>
	<rect x="333.265" y="-91.121" transform="matrix(0.7071 0.7071 -0.7071 0.7071 36.2903 -261.882)" width="2" height="7.972"/>
	<rect x="336.083" y="-54.913" width="2" height="7"/>
	<rect x="344.083" y="-58.913" width="2" height="7"/>
	<rect x="328.083" y="-58.913" width="2" height="7"/>
	<rect x="336.083" y="-44.913" width="2" height="7"/>
	<rect x="344.083" y="-48.913" width="2" height="7"/>
	<rect x="328.083" y="-48.913" width="2" height="7"/>
	<path d="M352.595-69.996c-1.444-6.742-7.433-11.8-14.605-11.8c-2.185,0-4.258,0.47-6.126,1.313
		c-1.667-3.202-5.007-5.394-8.866-5.394c-5.522,0-10,4.477-10,9.999c0,2.46,0.899,4.702,2.373,6.442
		c-1.429,1.84-2.287,4.144-2.287,6.653c0,5.983,4.836,10.836,10.813,10.865v0.003h1.188v-2h-0.721l-0.457-0.003
		c-4.864-0.023-8.822-4.001-8.822-8.865c0-4.89,3.978-8.868,8.867-8.868c0.15,0,0.299,0.012,0.447,0.022l0.148,0.01l1.314,0.085
		l0.597-1.175c2.225-4.372,6.644-7.089,11.532-7.089c6.062,0,11.382,4.298,12.649,10.219l0.318,1.483L352.471-68
		c3.708,0.23,6.612,3.319,6.612,7.03c0,3.878-3.144,7.035-7.017,7.057c-0.042-0.003-0.079-0.005-0.117-0.005l-2.047,0.005h-0.819v2
		h2.819v-0.006c0.042,0.001,0.082,0.006,0.124,0.006c5.001,0,9.057-4.054,9.057-9.057C361.083-65.779,357.329-69.701,352.595-69.996
		z M324.675-73.613c-0.241-0.016-0.48-0.036-0.725-0.036c-2.766,0-5.282,1.041-7.2,2.743c-1.092-1.366-1.753-3.09-1.753-4.971
		c0-4.41,3.589-7.999,8-7.999c3.091,0,5.76,1.773,7.091,4.345C327.79-78.091,325.91-76.043,324.675-73.613z"/>
</g>
<g>
	<rect x="436.5" y="-56.36" width="2" height="7"/>
	<rect x="444.5" y="-60.36" width="2" height="7"/>
	<rect x="428.5" y="-60.36" width="2" height="7"/>
	<rect x="436.5" y="-46.36" width="2" height="7"/>
	<rect x="444.5" y="-50.36" width="2" height="7"/>
	<rect x="428.5" y="-50.36" width="2" height="7"/>
	<path d="M453.012-71.443c-1.444-6.742-7.433-11.8-14.605-11.8c-1.799,0-3.522,0.32-5.118,0.904
		c-0.949-5.108-5.404-8.98-10.788-8.98c-0.413,0-0.819,0.027-1.222,0.071c0.744,1.112,1.179,2.448,1.179,3.886c0,3.865-3.134,7-7,7
		c-1.438,0-2.773-0.435-3.886-1.179c-0.044,0.401-0.071,0.809-0.071,1.222c0,3.712,1.845,6.987,4.661,8.979
		c-1.653,1.907-2.661,4.389-2.661,7.111c0,5.983,4.836,10.836,10.813,10.865v0.003h1.188v-2h-0.721l-0.457-0.003
		c-4.864-0.023-8.822-4.001-8.822-8.865c0-4.89,3.978-8.868,8.867-8.868c0.15,0,0.299,0.012,0.447,0.022l0.148,0.01l1.314,0.085
		l0.597-1.175c2.225-4.372,6.644-7.089,11.532-7.089c6.062,0,11.382,4.298,12.649,10.219l0.318,1.483l1.514,0.094
		c3.708,0.23,6.612,3.319,6.612,7.03c0,3.878-3.144,7.035-7.017,7.057c-0.042-0.003-0.079-0.005-0.117-0.005l-2.047,0.005H449.5v2
		h2.819v-0.006c0.042,0.001,0.082,0.006,0.124,0.006c5.001,0,9.057-4.054,9.057-9.057C461.5-67.227,457.746-71.148,453.012-71.443z
		 M425.092-75.061c-0.241-0.016-0.48-0.036-0.725-0.036c-2.537,0-4.865,0.876-6.715,2.334c-2.012-1.294-3.487-3.354-3.976-5.776
		c0.582,0.117,1.178,0.177,1.78,0.177c4.963,0,9-4.037,9-9c0-0.603-0.06-1.198-0.177-1.78c3.733,0.753,6.629,3.824,7.133,7.64
		C428.702-80.059,426.487-77.804,425.092-75.061z"/>
</g>
<g>
	<polygon points="129.27,44.463 129.27,46.403 129.27,52.463 131.27,52.463 131.27,46.403 131.27,44.463 131.27,32.463 
		129.27,32.463 	"/>
	<polygon points="137.27,40.463 137.27,42.216 137.27,48.463 139.27,48.463 139.27,42.216 139.27,40.463 139.27,28.463 
		137.27,28.463 	"/>
	<polygon points="121.27,40.463 121.27,42.528 121.27,48.463 123.27,48.463 123.27,42.528 123.27,40.463 123.27,28.463 
		121.27,28.463 	"/>
	<rect x="115.27" y="-6.439" width="2" height="7.973"/>
	<rect x="96.27" y="12.475" width="7.973" height="2"/>
	<rect x="100.943" y="1.208" transform="matrix(0.7071 0.7071 -0.7071 0.7071 32.2945 -73.5498)" width="7.974" height="2"/>
	<rect x="126.451" y="-1.774" transform="matrix(0.7071 0.7071 -0.7071 0.7071 38.8936 -89.4737)" width="2" height="7.972"/>
	<path d="M145.781,19.351c-1.444-6.742-7.433-11.8-14.605-11.8c-2.185,0-4.258,0.47-6.127,1.313
		c-1.666-3.202-5.006-5.394-8.865-5.394c-5.522,0-10,4.477-10,9.999c0,2.46,0.898,4.702,2.373,6.442
		c-1.428,1.84-2.287,4.144-2.287,6.653c0,5.983,4.836,10.836,10.813,10.865v0.003h1.188v-2h-0.721l-0.457-0.003
		c-4.864-0.023-8.822-4.001-8.822-8.865c0-4.89,3.978-8.868,8.867-8.868c0.15,0,0.299,0.012,0.447,0.022l0.148,0.01l1.314,0.085
		l0.597-1.175c2.225-4.372,6.644-7.089,11.532-7.089c6.062,0,11.382,4.298,12.649,10.219l0.318,1.483l1.514,0.094
		c3.708,0.23,6.612,3.319,6.612,7.03c0,3.878-3.144,7.035-7.017,7.057c-0.042-0.003-0.079-0.005-0.117-0.005l-2.047,0.005h-0.819v2
		h2.819v-0.006c0.042,0.001,0.082,0.006,0.124,0.006c5.001,0,9.057-4.054,9.057-9.057C154.27,23.567,150.516,19.646,145.781,19.351z
		 M117.861,15.733c-0.241-0.016-0.48-0.036-0.725-0.036c-2.766,0-5.281,1.042-7.2,2.743c-1.092-1.367-1.753-3.09-1.753-4.971
		c0-4.41,3.589-7.999,8-7.999c3.092,0,5.76,1.773,7.092,4.345C120.977,11.255,119.098,13.304,117.861,15.733z"/>
</g>
<g>
	<polygon points="229.667,41.946 229.667,43.887 229.667,49.946 231.667,49.946 231.667,43.887 231.667,41.946 231.667,29.946 
		229.667,29.946 	"/>
	<polygon points="237.667,37.946 237.667,39.699 237.667,45.946 239.667,45.946 239.667,39.699 239.667,37.946 239.667,25.946 
		237.667,25.946 	"/>
	<polygon points="221.667,37.946 221.667,40.012 221.667,45.946 223.667,45.946 223.667,40.012 223.667,37.946 223.667,25.946 
		221.667,25.946 	"/>
	<path d="M246.179,16.834c-1.444-6.742-7.433-11.8-14.605-11.8c-1.799,0-3.521,0.32-5.118,0.904
		c-0.949-5.108-5.404-8.98-10.788-8.98c-0.413,0-0.819,0.027-1.222,0.071c0.744,1.112,1.179,2.448,1.179,3.886c0,3.865-3.134,7-7,7
		c-1.438,0-2.773-0.435-3.886-1.179c-0.044,0.401-0.071,0.809-0.071,1.222c0,3.712,1.845,6.987,4.661,8.979
		c-1.653,1.907-2.661,4.389-2.661,7.111c0,5.983,4.836,10.836,10.813,10.865v0.003h1.188v-2h-0.721l-0.457-0.003
		c-4.864-0.023-8.822-4.001-8.822-8.865c0-4.89,3.978-8.868,8.867-8.868c0.15,0,0.299,0.012,0.447,0.022l0.148,0.01l1.314,0.085
		l0.597-1.175c2.225-4.372,6.644-7.089,11.532-7.089c6.062,0,11.382,4.298,12.649,10.219l0.318,1.483l1.514,0.094
		c3.708,0.23,6.612,3.319,6.612,7.03c0,3.878-3.144,7.035-7.017,7.057c-0.042-0.003-0.079-0.005-0.117-0.005l-2.047,0.005h-0.819v2
		h2.819v-0.006c0.042,0.001,0.082,0.006,0.124,0.006c5.001,0,9.057-4.054,9.057-9.057C254.667,21.051,250.913,17.129,246.179,16.834
		z M218.259,13.217c-0.241-0.016-0.48-0.036-0.725-0.036c-2.537,0-4.865,0.876-6.715,2.334c-2.012-1.294-3.486-3.354-3.976-5.776
		c0.582,0.117,1.178,0.177,1.78,0.177c4.963,0,9-4.037,9-9c0-0.603-0.06-1.198-0.177-1.78c3.733,0.753,6.629,3.824,7.134,7.641
		C221.868,8.219,219.653,10.475,218.259,13.217z"/>
</g>
<g>
	<polygon points="446.702,42.891 439.819,33.061 438.182,34.208 445.064,44.038 446.177,45.627 449.652,50.591 451.291,49.444 
		447.815,44.479 	"/>
	<polygon points="454.704,42.889 447.819,33.061 446.182,34.209 453.067,44.037 454.072,45.473 457.656,50.588 459.295,49.441 
		455.711,44.325 	"/>
	<polygon points="438.702,42.891 431.819,33.061 430.182,34.209 437.064,44.038 438.249,45.73 441.653,50.592 443.291,49.444 
		439.888,44.583 	"/>
	<rect x="426.182" y="-4.658" width="2" height="7.973"/>
	<rect x="407.182" y="14.256" width="7.973" height="2"/>
	<rect x="411.855" y="2.989" transform="matrix(0.7071 0.7071 -0.7071 0.7071 124.6181 -292.8761)" width="7.974" height="2"/>
	<rect x="437.363" y="0.007" transform="matrix(0.7071 0.7071 -0.7071 0.7071 131.2173 -308.8001)" width="2" height="7.972"/>
	<path d="M456.693,21.132c-1.444-6.742-7.433-11.8-14.605-11.8c-2.185,0-4.258,0.47-6.126,1.313
		c-1.667-3.202-5.007-5.394-8.866-5.394c-5.522,0-10,4.477-10,9.999c0,2.46,0.899,4.702,2.373,6.442
		c-1.429,1.84-2.287,4.144-2.287,6.653c0,5.983,4.836,10.836,10.813,10.865v0.003h1.188v-2h-0.721l-0.457-0.003
		c-4.864-0.023-8.822-4.001-8.822-8.865c0-4.89,3.978-8.868,8.867-8.868c0.15,0,0.299,0.012,0.447,0.022l0.148,0.01l1.314,0.085
		l0.597-1.175c2.225-4.372,6.644-7.089,11.532-7.089c6.062,0,11.382,4.298,12.649,10.219l0.318,1.483l1.514,0.094
		c3.708,0.23,6.612,3.319,6.612,7.03c0,3.878-3.144,7.035-7.017,7.057c-0.042-0.003-0.079-0.005-0.117-0.005l-0.047,0.005h-0.819v2
		h0.819v-0.006c0.042,0.001,0.082,0.006,0.124,0.006c5.001,0,9.057-4.054,9.057-9.057C465.182,25.349,461.428,21.427,456.693,21.132
		z M428.773,17.515c-0.241-0.016-0.48-0.036-0.725-0.036c-2.766,0-5.282,1.042-7.2,2.743c-1.092-1.367-1.753-3.09-1.753-4.971
		c0-4.41,3.589-7.999,8-7.999c3.091,0,5.76,1.773,7.091,4.345C431.889,13.036,430.009,15.085,428.773,17.515z"/>
</g>
<g>
	<polygon points="-276.729,139.376 -283.611,129.546 -285.249,130.693 -278.366,140.523 -277.254,142.112 -273.778,147.076 
		-272.14,145.93 -275.615,140.965 	"/>
	<polygon points="-268.727,139.374 -275.611,129.546 -277.249,130.694 -270.363,140.522 -269.358,141.958 -265.774,147.073 
		-264.136,145.927 -267.72,140.811 	"/>
	<polygon points="-284.729,139.376 -291.611,129.546 -293.249,130.694 -286.366,140.523 -285.182,142.216 -281.777,147.077 
		-280.14,145.93 -283.543,141.068 	"/>
	<path d="M-266.737,117.617c-1.444-6.742-7.433-11.8-14.605-11.8c-1.799,0-3.522,0.32-5.118,0.904
		c-0.949-5.108-5.404-8.98-10.788-8.98c-0.413,0-0.819,0.027-1.222,0.071c0.744,1.112,1.179,2.448,1.179,3.886c0,3.865-3.134,7-7,7
		c-1.438,0-2.773-0.435-3.886-1.179c-0.044,0.401-0.071,0.809-0.071,1.222c0,3.712,1.845,6.987,4.661,8.979
		c-1.653,1.907-2.661,4.389-2.661,7.111c0,5.983,4.836,10.836,10.813,10.865v0.003h1.188v-2h-0.721l-0.457-0.003
		c-4.864-0.023-8.822-4.001-8.822-8.865c0-4.89,3.978-8.868,8.867-8.868c0.15,0,0.299,0.012,0.447,0.022l0.148,0.01l1.314,0.085
		l0.597-1.175c2.225-4.372,6.644-7.089,11.532-7.089c6.062,0,11.382,4.298,12.649,10.219l0.318,1.483l1.514,0.094
		c3.708,0.23,6.612,3.319,6.612,7.03c0,3.878-3.144,7.035-7.017,7.057c-0.042-0.003-0.079-0.005-0.117-0.005l-0.047,0.005h-0.819v2
		h0.819v-0.006c0.042,0.001,0.082,0.006,0.124,0.006c5.001,0,9.057-4.054,9.057-9.057
		C-258.249,121.834-262.003,117.912-266.737,117.617z M-294.657,114c-0.241-0.016-0.48-0.036-0.725-0.036
		c-2.537,0-4.865,0.876-6.715,2.334c-2.012-1.294-3.487-3.354-3.976-5.776c0.582,0.117,1.178,0.177,1.78,0.177c4.963,0,9-4.037,9-9
		c0-0.603-0.06-1.198-0.177-1.78c3.733,0.753,6.629,3.824,7.133,7.641C-291.047,109.002-293.262,111.258-294.657,114z"/>
</g>
<g>
	<rect x="-284.249" y="35.529" width="2" height="4"/>
	<rect x="-276.249" y="31.508" width="2" height="4.021"/>
	<rect x="-292.249" y="31.508" width="2" height="4.021"/>
	<path d="M-265.621,15.541c-1.596-7.445-8.207-13.029-16.127-13.029c-6.423,0-11.977,3.678-14.702,9.035
		c-0.266-0.018-0.53-0.04-0.8-0.04c-6.627,0-11.999,5.372-11.999,12c0,6.607,5.34,11.965,11.938,11.998v0.003h2.062v-2h-1.604
		l-0.447-0.003c-5.485-0.027-9.948-4.513-9.948-9.998c0-5.514,4.485-10,9.999-10c0.175,0,0.347,0.014,0.52,0.025l0.148,0.01
		l1.316,0.088l0.598-1.176c2.492-4.899,7.443-7.942,12.92-7.942c6.79,0,12.75,4.814,14.172,11.448l0.317,1.482l1.514,0.095
		c4.203,0.262,7.496,3.763,7.496,7.971c0,4.397-3.565,7.977-7.957,8c-0.05-0.003-0.093-0.005-0.137-0.007l-2.043,0.007h-2.863v2
		h4.863v-0.007c0.046,0.001,0.091,0.007,0.137,0.007c5.521,0,10-4.477,10-10C-256.249,20.197-260.394,15.866-265.621,15.541z"/>
	<circle cx="-275.249" cy="40.55" r="1.5"/>
	<circle cx="-283.249" cy="44.519" r="1.5"/>
	<circle cx="-291.249" cy="40.508" r="1.5"/>
</g>
<g>
	<rect x="-191.328" y="-3.925" width="2" height="7.973"/>
	<rect x="-210.328" y="14.989" width="7.973" height="2"/>
	<rect x="-205.655" y="3.723" transform="matrix(0.7071 0.7071 -0.7071 0.7071 -55.7278 143.984)" width="7.974" height="2"/>
	<rect x="-180.146" y="0.741" transform="matrix(0.7071 0.7071 -0.7071 0.7071 -49.1286 128.0601)" width="2" height="7.972"/>
	<path d="M-160.816,21.865c-1.444-6.742-7.433-11.8-14.605-11.8c-2.185,0-4.258,0.47-6.126,1.313
		c-1.667-3.202-5.007-5.394-8.866-5.394c-5.522,0-10,4.477-10,9.999c0,2.46,0.899,4.702,2.373,6.442
		c-1.429,1.84-2.287,4.144-2.287,6.653c0,5.983,4.836,10.836,10.813,10.865v0.003h1.188v-2h-0.721l-0.457-0.003
		c-4.864-0.023-8.822-4.001-8.822-8.865c0-4.89,3.978-8.868,8.867-8.868c0.15,0,0.299,0.012,0.447,0.022l0.148,0.01l1.314,0.085
		l0.597-1.175c2.225-4.372,6.644-7.089,11.532-7.089c6.062,0,11.382,4.298,12.649,10.219l0.318,1.483l1.514,0.094
		c3.708,0.23,6.612,3.319,6.612,7.03c0,3.878-3.144,7.035-7.017,7.057c-0.042-0.003-0.079-0.005-0.117-0.005l-2.047,0.005h-0.819v2
		h2.819v-0.006c0.042,0.001,0.082,0.006,0.124,0.006c5.001,0,9.057-4.054,9.057-9.057C-152.328,26.082-156.082,22.16-160.816,21.865
		z M-188.736,18.248c-0.241-0.016-0.48-0.036-0.725-0.036c-2.766,0-5.282,1.042-7.2,2.743c-1.092-1.367-1.753-3.09-1.753-4.971
		c0-4.41,3.589-7.999,8-7.999c3.091,0,5.76,1.773,7.091,4.345C-185.621,13.77-187.501,15.818-188.736,18.248z"/>
	<rect x="-177.328" y="39.964" width="2" height="4"/>
	<rect x="-169.328" y="35.942" width="2" height="4.021"/>
	<rect x="-185.328" y="35.942" width="2" height="4.021"/>
	<circle cx="-168.328" cy="44.984" r="1.5"/>
	<circle cx="-176.328" cy="48.953" r="1.5"/>
	<circle cx="-184.328" cy="44.942" r="1.5"/>
</g>
<g>
	<path d="M-59.891,20.908c-1.444-6.742-7.433-11.8-14.605-11.8c-1.799,0-3.522,0.32-5.118,0.904
		c-0.949-5.108-5.404-8.98-10.788-8.98c-0.413,0-0.819,0.027-1.222,0.071c0.744,1.112,1.179,2.448,1.179,3.886c0,3.865-3.134,7-7,7
		c-1.438,0-2.773-0.435-3.886-1.179c-0.044,0.401-0.071,0.809-0.071,1.222c0,3.712,1.845,6.987,4.661,8.979
		c-1.653,1.907-2.661,4.389-2.661,7.111c0,5.983,4.836,10.836,10.813,10.865v0.003h1.188v-2h-0.721l-0.457-0.003
		c-4.864-0.023-8.822-4.001-8.822-8.865c0-4.89,3.978-8.868,8.867-8.868c0.15,0,0.299,0.012,0.447,0.022l0.148,0.01l1.314,0.085
		l0.597-1.175c2.225-4.372,6.644-7.089,11.532-7.089c6.062,0,11.382,4.298,12.649,10.219l0.318,1.483l1.514,0.094
		c3.708,0.23,6.612,3.319,6.612,7.03c0,3.878-3.144,7.035-7.017,7.057c-0.042-0.003-0.079-0.005-0.117-0.005l-2.047,0.005h-0.819v2
		h2.819v-0.006c0.042,0.001,0.082,0.006,0.124,0.006c5.001,0,9.057-4.054,9.057-9.057C-51.402,25.125-55.156,21.203-59.891,20.908z
		 M-87.811,17.291c-0.241-0.016-0.48-0.036-0.725-0.036c-2.537,0-4.865,0.876-6.715,2.334c-2.012-1.294-3.487-3.354-3.976-5.776
		c0.582,0.117,1.178,0.177,1.78,0.177c4.963,0,9-4.037,9-9c0-0.603-0.06-1.198-0.177-1.78c3.733,0.753,6.629,3.824,7.133,7.641
		C-84.2,12.293-86.415,14.549-87.811,17.291z"/>
	<rect x="-76.402" y="39.007" width="2" height="4"/>
	<rect x="-68.402" y="34.985" width="2" height="4.021"/>
	<rect x="-84.402" y="34.985" width="2" height="4.021"/>
	<circle cx="-67.402" cy="44.027" r="1.5"/>
	<circle cx="-75.402" cy="47.996" r="1.5"/>
	<circle cx="-83.402" cy="43.985" r="1.5"/>
</g>
<g>
	<path d="M-163.2,113.938c-1.596-7.445-8.207-13.029-16.127-13.029c-6.423,0-11.977,3.678-14.702,9.035
		c-0.266-0.018-0.53-0.04-0.8-0.04c-6.627,0-11.999,5.372-11.999,12c0,6.607,5.34,11.965,11.938,11.998v0.003h6.062v-2h-5.604
		l-0.447-0.003c-5.485-0.027-9.948-4.513-9.948-9.998c0-5.514,4.485-10,9.999-10c0.175,0,0.347,0.014,0.52,0.025l0.148,0.01
		l1.316,0.088l0.598-1.176c2.492-4.899,7.443-7.942,12.92-7.942c6.79,0,12.75,4.814,14.172,11.448l0.317,1.482l1.514,0.095
		c4.203,0.262,7.496,3.763,7.496,7.971c0,4.397-3.565,7.977-7.957,8c-0.05-0.003-0.093-0.005-0.137-0.007l-5.043,0.007h0.137v2
		h4.863v-0.007c0.046,0.001,0.091,0.007,0.137,0.007c5.521,0,10-4.477,10-10C-153.828,118.595-157.973,114.264-163.2,113.938z"/>
	<polygon points="-178.986,133.909 -177.217,133.909 -176.786,133.909 -174.776,133.909 -181.19,124.748 -182.828,125.896 
		-178.617,131.909 -180.388,131.909 -182.828,131.909 -181.557,133.726 -180.444,135.314 -174.467,143.909 -172.828,142.763 
		-178.806,134.167 	"/>
</g>
<g>
	<rect x="-87.402" y="94.809" width="2" height="7.973"/>
	<rect x="-106.402" y="113.723" width="7.973" height="2"/>
	<rect x="-101.729" y="102.456" transform="matrix(0.7071 0.7071 -0.7071 0.7071 44.5265 99.4157)" width="7.974" height="2"/>
	<rect x="-76.221" y="99.474" transform="matrix(0.7071 0.7071 -0.7071 0.7071 51.1256 83.4918)" width="2" height="7.972"/>
	<path d="M-56.891,120.599c-1.444-6.742-7.433-11.8-14.605-11.8c-2.185,0-4.258,0.47-6.127,1.313
		c-1.666-3.202-5.006-5.394-8.865-5.394c-5.522,0-10,4.477-10,9.999c0,2.46,0.898,4.702,2.373,6.442
		c-1.428,1.84-2.287,4.144-2.287,6.653c0,5.983,4.836,10.836,10.813,10.865v0.003h4.188v-2h-3.721l-0.457-0.003
		c-4.864-0.023-8.822-4.001-8.822-8.865c0-4.89,3.978-8.868,8.867-8.868c0.15,0,0.299,0.012,0.447,0.022l0.148,0.01l1.314,0.085
		l0.597-1.175c2.225-4.372,6.644-7.089,11.532-7.089c6.062,0,11.382,4.298,12.649,10.219l0.318,1.483l1.514,0.094
		c3.708,0.23,6.612,3.319,6.612,7.03c0,3.878-3.144,7.035-7.017,7.057c-0.042-0.003-0.079-0.005-0.117-0.005l-2.047,0.005h-3.819v2
		h5.819v-0.006c0.042,0.001,0.082,0.006,0.124,0.006c5.001,0,9.057-4.054,9.057-9.057
		C-48.402,124.815-52.156,120.894-56.891,120.599z M-84.811,116.981c-0.241-0.016-0.48-0.036-0.725-0.036
		c-2.766,0-5.281,1.041-7.2,2.743c-1.092-1.366-1.753-3.09-1.753-4.971c0-4.41,3.589-7.999,8-7.999c3.092,0,5.76,1.773,7.092,4.345
		C-81.695,112.504-83.574,114.552-84.811,116.981z"/>
	<polygon points="-72.561,138.688 -70.791,138.688 -70.36,138.688 -68.351,138.688 -74.765,129.527 -76.402,130.675 
		-72.191,136.688 -73.962,136.688 -76.402,136.688 -75.131,138.505 -74.019,140.094 -68.041,148.688 -66.402,147.542 
		-72.38,138.946 	"/>
</g>
<g>
	<path d="M42.694,118.303c-1.444-6.742-7.433-11.8-14.605-11.8c-1.799,0-3.521,0.32-5.118,0.904
		c-0.949-5.108-5.404-8.98-10.788-8.98c-0.413,0-0.819,0.027-1.222,0.071c0.744,1.112,1.179,2.448,1.179,3.886c0,3.865-3.134,7-7,7
		c-1.438,0-2.773-0.435-3.886-1.179c-0.044,0.401-0.071,0.809-0.071,1.222c0,3.712,1.845,6.987,4.661,8.979
		c-1.653,1.907-2.661,4.389-2.661,7.111c0,5.983,4.836,10.836,10.813,10.865v0.003h4.188v-2h-3.721l-0.457-0.003
		c-4.864-0.023-8.822-4.001-8.822-8.865c0-4.89,3.978-8.868,8.867-8.868c0.15,0,0.299,0.012,0.447,0.022l0.148,0.01l1.314,0.085
		l0.597-1.175c2.225-4.372,6.644-7.089,11.532-7.089c6.062,0,11.382,4.298,12.649,10.219l0.318,1.483l1.514,0.094
		c3.708,0.23,6.612,3.319,6.612,7.03c0,3.878-3.144,7.035-7.017,7.057c-0.042-0.003-0.079-0.005-0.117-0.005l-2.047,0.005h-3.819v2
		h5.819v-0.006c0.042,0.001,0.082,0.006,0.124,0.006c5.001,0,9.057-4.054,9.057-9.057C51.183,122.52,47.429,118.598,42.694,118.303z
		 M14.774,114.686c-0.241-0.016-0.48-0.036-0.725-0.036c-2.537,0-4.865,0.876-6.715,2.334c-2.012-1.294-3.486-3.354-3.976-5.776
		c0.582,0.117,1.178,0.177,1.78,0.177c4.963,0,9-4.037,9-9c0-0.603-0.06-1.198-0.177-1.78c3.733,0.753,6.629,3.824,7.134,7.64
		C18.384,109.688,16.169,111.942,14.774,114.686z"/>
	<polygon points="27.024,136.393 28.794,136.393 29.225,136.393 31.234,136.393 24.82,127.231 23.183,128.379 27.394,134.393 
		25.623,134.393 23.183,134.393 24.454,136.209 25.566,137.798 31.544,146.393 33.183,145.246 27.205,136.65 	"/>
</g>
<g>
	<path d="M143.579,114.438c-1.596-7.445-8.207-13.029-16.127-13.029c-6.423,0-11.977,3.678-14.702,9.035
		c-0.266-0.018-0.53-0.04-0.8-0.04c-6.627,0-11.999,5.372-11.999,12c0,6.607,5.34,11.965,11.938,11.998v0.003h1.062v-2h-0.604
		l-0.447-0.003c-5.485-0.027-9.948-4.513-9.948-9.998c0-5.514,4.485-10,9.999-10c0.175,0,0.347,0.014,0.52,0.025l0.148,0.01
		l1.316,0.088l0.598-1.176c2.492-4.899,7.443-7.942,12.92-7.942c6.79,0,12.75,4.814,14.172,11.448l0.317,1.482l1.514,0.095
		c4.203,0.262,7.496,3.763,7.496,7.971c0,4.397-3.565,7.977-7.957,8c-0.05-0.003-0.093-0.005-0.137-0.007l-0.906,0.007v2h0.863
		v-0.007c0.046,0.001,0.091,0.007,0.137,0.007c5.521,0,10-4.477,10-10C152.951,119.095,148.807,114.764,143.579,114.438z"/>
	
		<rect x="112.386" y="132.403" transform="matrix(-0.5736 -0.8191 0.8191 -0.5736 76.3818 306.5638)" width="11.183" height="1.999"/>
	
		<rect x="130.36" y="132.403" transform="matrix(-0.5736 -0.8191 0.8191 -0.5736 104.6673 321.287)" width="11.183" height="1.999"/>
	<polygon points="128.793,137.409 130.563,137.409 130.993,137.409 133.003,137.409 126.589,128.248 124.951,129.396 
		129.162,135.409 127.392,135.409 124.951,135.409 126.223,137.226 127.335,138.814 131.951,145.409 133.59,144.263 
		128.974,137.667 	"/>
</g>
<g>
	<rect x="218.427" y="94.972" width="2" height="7.973"/>
	<rect x="199.427" y="113.886" width="7.973" height="2"/>
	<rect x="204.1" y="102.619" transform="matrix(0.7071 0.7071 -0.7071 0.7071 134.217 -116.7903)" width="7.974" height="2"/>
	<rect x="229.609" y="99.637" transform="matrix(0.7071 0.7071 -0.7071 0.7071 140.8162 -132.7143)" width="2" height="7.972"/>
	<path d="M248.938,120.762c-1.444-6.742-7.433-11.8-14.605-11.8c-2.185,0-4.258,0.47-6.126,1.313
		c-1.667-3.202-5.007-5.394-8.866-5.394c-5.522,0-10,4.477-10,9.999c0,2.46,0.899,4.702,2.373,6.442
		c-1.429,1.84-2.287,4.144-2.287,6.653c0,5.983,4.836,10.836,10.813,10.865v0.003h0.188v-2l-0.178-0.003
		c-4.864-0.023-8.822-4.001-8.822-8.865c0-4.89,3.978-8.868,8.867-8.868c0.15,0,0.299,0.012,0.447,0.022l0.148,0.01l1.314,0.085
		l0.597-1.175c2.225-4.372,6.644-7.089,11.532-7.089c6.062,0,11.382,4.298,12.649,10.219l0.318,1.483l1.514,0.094
		c3.708,0.23,6.612,3.319,6.612,7.03c0,3.878-3.144,7.035-7.017,7.057c-0.042-0.003-0.079-0.005-0.117-0.005l-0.866,0.005v2h0.819
		v-0.006c0.042,0.001,0.082,0.006,0.124,0.006c5.001,0,9.057-4.054,9.057-9.057C257.427,124.979,253.673,121.057,248.938,120.762z
		 M221.019,117.145c-0.241-0.016-0.48-0.036-0.725-0.036c-2.766,0-5.282,1.042-7.2,2.743c-1.092-1.367-1.753-3.09-1.753-4.971
		c0-4.41,3.589-7.999,8-7.999c3.091,0,5.76,1.773,7.091,4.345C224.134,112.666,222.254,114.715,221.019,117.145z"/>
	
		<rect x="218.848" y="136.842" transform="matrix(-0.5736 -0.8191 0.8191 -0.5736 240.2802 400.7531)" width="11.183" height="1.999"/>
	
		<rect x="236.823" y="136.842" transform="matrix(-0.5736 -0.8191 0.8191 -0.5736 268.5658 415.4762)" width="11.183" height="1.999"/>
	<polygon points="235.256,141.848 237.025,141.848 237.456,141.848 239.466,141.848 233.052,132.687 231.414,133.834 
		235.625,139.848 233.854,139.848 231.414,139.848 232.686,141.664 233.798,143.253 238.414,149.848 240.053,148.701 
		235.437,142.105 	"/>
</g>
<g>
	<path d="M350.776,117.804c-1.444-6.742-7.433-11.8-14.605-11.8c-1.799,0-3.522,0.32-5.118,0.904
		c-0.949-5.108-5.404-8.98-10.788-8.98c-0.413,0-0.819,0.027-1.222,0.071c0.744,1.112,1.179,2.448,1.179,3.886c0,3.865-3.134,7-7,7
		c-1.438,0-2.773-0.435-3.886-1.179c-0.044,0.401-0.071,0.809-0.071,1.222c0,3.712,1.845,6.987,4.661,8.979
		c-1.653,1.907-2.661,4.389-2.661,7.111c0,5.983,4.836,10.836,10.813,10.865v0.003h0.188v-2l-0.178-0.003
		c-4.864-0.023-8.822-4.001-8.822-8.865c0-4.89,3.978-8.868,8.867-8.868c0.15,0,0.299,0.012,0.447,0.022l0.148,0.01l1.314,0.085
		l0.597-1.175c2.225-4.372,6.644-7.089,11.532-7.089c6.062,0,11.382,4.298,12.649,10.219l0.318,1.483l1.514,0.094
		c3.708,0.23,6.612,3.319,6.612,7.03c0,3.878-3.144,7.035-7.017,7.057c-0.042-0.003-0.079-0.005-0.117-0.005l-0.866,0.005v2h0.819
		v-0.006c0.042,0.001,0.082,0.006,0.124,0.006c5.001,0,9.057-4.054,9.057-9.057C359.265,122.021,355.511,118.099,350.776,117.804z
		 M322.856,114.187c-0.241-0.016-0.48-0.036-0.725-0.036c-2.537,0-4.865,0.876-6.715,2.334c-2.012-1.294-3.487-3.354-3.976-5.776
		c0.582,0.117,1.178,0.177,1.78,0.177c4.963,0,9-4.037,9-9c0-0.603-0.06-1.198-0.177-1.78c3.733,0.753,6.629,3.824,7.133,7.641
		C326.467,109.188,324.252,111.444,322.856,114.187z"/>
	
		<rect x="320.685" y="133.884" transform="matrix(-0.5736 -0.8191 0.8191 -0.5736 402.9576 479.5137)" width="11.183" height="1.999"/>
	
		<rect x="338.66" y="133.884" transform="matrix(-0.5736 -0.8191 0.8191 -0.5736 431.2432 494.2369)" width="11.183" height="1.999"/>
	<polygon points="337.093,138.89 338.862,138.89 339.293,138.89 341.303,138.89 334.889,129.729 333.251,130.876 337.462,136.89 
		335.691,136.89 333.251,136.89 334.522,138.706 335.635,140.295 340.251,146.89 341.89,145.743 337.273,139.147 	"/>
</g>
<g>
	<g>
		<path d="M-59.786,204.259c-1.596-7.445-8.207-13.029-16.127-13.029c-6.423,0-11.977,3.678-14.702,9.035
			c-0.266-0.018-0.53-0.04-0.8-0.04c-6.627,0-11.999,5.372-11.999,12c0,6.607,5.34,11.965,11.938,11.998v0.003h2.062v-2h-1.604
			l-0.447-0.003c-5.485-0.027-9.948-4.513-9.948-9.998c0-5.514,4.485-10,9.999-10c0.175,0,0.347,0.014,0.52,0.025l0.148,0.01
			l1.316,0.088l0.598-1.176c2.492-4.899,7.443-7.942,12.92-7.942c6.79,0,12.75,4.814,14.172,11.448l0.317,1.482l1.514,0.095
			c4.203,0.262,7.496,3.763,7.496,7.971c0,4.397-3.565,7.977-7.957,8c-0.05-0.003-0.093-0.005-0.137-0.007l-2.043,0.007h-2.863v2
			h4.863v-0.007c0.046,0.001,0.091,0.007,0.137,0.007c5.521,0,10-4.477,10-10C-50.414,208.915-54.559,204.584-59.786,204.259z"/>
	</g>
	<g>
		<circle cx="-84.914" cy="217.802" r="1.5"/>
	</g>
	<g>
		<circle cx="-80.914" cy="223.726" r="1.5"/>
	</g>
	<g>
		<circle cx="-72.914" cy="223.726" r="1.5"/>
	</g>
	<g>
		<circle cx="-76.914" cy="217.802" r="1.5"/>
	</g>
	<g>
		<circle cx="-68.914" cy="217.802" r="1.5"/>
	</g>
	<g>
		<circle cx="-84.914" cy="229.747" r="1.5"/>
	</g>
	<g>
		<circle cx="-76.914" cy="229.747" r="1.5"/>
	</g>
	<g>
		<circle cx="-68.914" cy="229.747" r="1.5"/>
	</g>
</g>
<g>
	<g>
		<rect x="16" y="188.781" width="2" height="7.973"/>
	</g>
	<g>
		<rect x="-3" y="207.695" width="7.973" height="2"/>
	</g>
	<g>
		<rect x="1.673" y="196.429" transform="matrix(0.7071 0.7071 -0.7071 0.7071 141.261 53.8232)" width="7.974" height="2"/>
	</g>
	<g>
		<rect x="27.182" y="193.447" transform="matrix(0.7071 0.7071 -0.7071 0.7071 147.8602 37.8992)" width="2" height="7.972"/>
	</g>
	<g>
		<path d="M46.512,214.571c-1.444-6.742-7.433-11.8-14.605-11.8c-2.185,0-4.258,0.47-6.127,1.313
			c-1.666-3.202-5.006-5.394-8.865-5.394c-5.522,0-10,4.477-10,9.999c0,2.46,0.898,4.702,2.373,6.442
			C7.859,216.973,7,219.276,7,221.786c0,5.983,4.836,10.836,10.813,10.865v0.003H19v-2h-0.721l-0.457-0.003
			C12.958,230.628,9,226.65,9,221.786c0-4.89,3.978-8.868,8.867-8.868c0.15,0,0.299,0.012,0.447,0.022l0.148,0.01l1.314,0.085
			l0.597-1.175c2.225-4.372,6.644-7.089,11.532-7.089c6.062,0,11.382,4.298,12.649,10.219l0.318,1.483l1.514,0.094
			c3.708,0.23,6.612,3.319,6.612,7.03c0,3.878-3.144,7.035-7.017,7.057c-0.042-0.003-0.079-0.005-0.117-0.005l-2.047,0.005H42v2
			h3.819v-0.006c0.042,0.001,0.082,0.006,0.124,0.006c5.001,0,9.057-4.054,9.057-9.057C55,218.788,51.246,214.866,46.512,214.571z
			 M18.592,210.954c-0.241-0.016-0.48-0.036-0.725-0.036c-2.766,0-5.281,1.042-7.2,2.743c-1.092-1.367-1.753-3.09-1.753-4.971
			c0-4.41,3.589-7.999,8-7.999c3.092,0,5.76,1.773,7.092,4.345C21.707,206.476,19.828,208.524,18.592,210.954z"/>
	</g>
	<g>
		<circle cx="22.489" cy="226.165" r="1.5"/>
	</g>
	<g>
		<circle cx="26.489" cy="232.165" r="1.5"/>
	</g>
	<g>
		<circle cx="34.489" cy="232.165" r="1.5"/>
	</g>
	<g>
		<circle cx="30.489" cy="226.165" r="1.5"/>
	</g>
	<g>
		<circle cx="38.489" cy="226.165" r="1.5"/>
	</g>
	<g>
		<circle cx="22.489" cy="238.187" r="1.5"/>
	</g>
	<g>
		<circle cx="30.489" cy="238.187" r="1.5"/>
	</g>
	<g>
		<circle cx="38.489" cy="238.187" r="1.5"/>
	</g>
</g>
<g>
	<g>
		<path d="M142.463,210.615c-1.444-6.742-7.433-11.8-14.605-11.8c-1.799,0-3.521,0.32-5.118,0.904
			c-0.949-5.108-5.404-8.98-10.788-8.98c-0.413,0-0.819,0.027-1.222,0.071c0.744,1.112,1.179,2.448,1.179,3.886c0,3.865-3.134,7-7,7
			c-1.438,0-2.773-0.435-3.886-1.179c-0.044,0.401-0.071,0.809-0.071,1.222c0,3.712,1.845,6.987,4.661,8.979
			c-1.653,1.907-2.661,4.389-2.661,7.111c0,5.983,4.836,10.836,10.813,10.865v0.003h1.188v-2h-0.721l-0.457-0.003
			c-4.864-0.023-8.822-4.001-8.822-8.865c0-4.89,3.978-8.868,8.867-8.868c0.15,0,0.299,0.012,0.447,0.022l0.148,0.01l1.314,0.085
			l0.597-1.175c2.225-4.372,6.644-7.089,11.532-7.089c6.062,0,11.382,4.298,12.649,10.219l0.318,1.483l1.514,0.094
			c3.708,0.23,6.612,3.319,6.612,7.03c0,3.878-3.144,7.035-7.017,7.057c-0.042-0.003-0.079-0.005-0.117-0.005l-2.047,0.005h-1.819v2
			h3.819v-0.006c0.042,0.001,0.082,0.006,0.124,0.006c5.001,0,9.057-4.054,9.057-9.057
			C150.951,214.832,147.197,210.91,142.463,210.615z M114.543,206.998c-0.241-0.016-0.48-0.036-0.725-0.036
			c-2.537,0-4.865,0.876-6.715,2.334c-2.012-1.294-3.486-3.354-3.976-5.776c0.582,0.117,1.178,0.177,1.78,0.177c4.963,0,9-4.037,9-9
			c0-0.603-0.06-1.198-0.177-1.78c3.733,0.753,6.629,3.824,7.134,7.64C118.152,202,115.938,204.255,114.543,206.998z"/>
	</g>
	<g>
		<circle cx="118.451" cy="222.208" r="1.5"/>
	</g>
	<g>
		<circle cx="122.451" cy="228.208" r="1.5"/>
	</g>
	<g>
		<circle cx="130.451" cy="228.208" r="1.5"/>
	</g>
	<g>
		<circle cx="126.451" cy="222.208" r="1.5"/>
	</g>
	<g>
		<circle cx="134.451" cy="222.208" r="1.5"/>
	</g>
	<g>
		<circle cx="118.451" cy="234.229" r="1.5"/>
	</g>
	<g>
		<circle cx="126.451" cy="234.229" r="1.5"/>
	</g>
	<g>
		<circle cx="134.451" cy="234.229" r="1.5"/>
	</g>
</g>
<g>
	<path d="M453.628,111.729c-1.596-7.445-8.207-13.029-16.127-13.029c-6.423,0-11.977,3.678-14.702,9.035
		c-0.266-0.018-0.53-0.04-0.8-0.04c-6.627,0-11.999,5.372-11.999,12c0,6.607,5.34,11.965,11.938,11.998v0.003H424v-2h-1.604
		l-0.447-0.003c-5.485-0.027-9.948-4.513-9.948-9.998c0-5.514,4.485-10,9.999-10c0.175,0,0.347,0.014,0.52,0.025l0.148,0.01
		l1.316,0.088l0.598-1.176c2.492-4.899,7.443-7.942,12.92-7.942c6.79,0,12.75,4.814,14.172,11.448l0.317,1.482l1.514,0.095
		c4.203,0.262,7.496,3.763,7.496,7.971c0,4.397-3.565,7.977-7.957,8c-0.05-0.003-0.093-0.005-0.137-0.007l-2.043,0.007H448v2h4.863
		v-0.007c0.046,0.001,0.091,0.007,0.137,0.007c5.521,0,10-4.477,10-10C463,116.386,458.855,112.055,453.628,111.729z"/>
	<circle cx="428" cy="139.2" r="1.5"/>
	<circle cx="436" cy="145.2" r="1.5"/>
	<circle cx="444" cy="141.2" r="1.5"/>
	<rect x="427" y="122.725" width="2" height="11.976"/>
	<polygon points="437,140.665 437,138.725 437,126.725 435,126.725 435,138.725 435,140.665 435,140.7 437,140.7 	"/>
	<polygon points="445,136.478 445,134.725 445,122.725 443,122.725 443,134.725 443,136.478 443,136.7 445,136.7 	"/>
</g>
<g>
	<rect x="-294.749" y="183.343" width="2" height="7.973"/>
	<rect x="-313.749" y="202.257" width="7.973" height="2"/>
	<rect x="-309.076" y="190.99" transform="matrix(0.7071 0.7071 -0.7071 0.7071 46.3991 271.963)" width="7.974" height="2"/>
	<rect x="-283.567" y="188.008" transform="matrix(0.7071 0.7071 -0.7071 0.7071 52.9983 256.0391)" width="2" height="7.972"/>
	<path d="M-264.237,209.133c-1.444-6.742-7.433-11.8-14.605-11.8c-2.185,0-4.258,0.47-6.126,1.313
		c-1.667-3.202-5.007-5.394-8.866-5.394c-5.522,0-10,4.477-10,9.999c0,2.46,0.899,4.702,2.373,6.442
		c-1.429,1.84-2.287,4.144-2.287,6.653c0,5.983,4.836,10.836,10.813,10.865v0.003h1.188v-2h-0.721l-0.457-0.003
		c-4.864-0.023-8.822-4.001-8.822-8.865c0-4.89,3.978-8.868,8.867-8.868c0.15,0,0.299,0.012,0.447,0.022l0.148,0.01l1.314,0.085
		l0.597-1.175c2.225-4.372,6.644-7.089,11.532-7.089c6.062,0,11.382,4.298,12.649,10.219l0.318,1.483l1.514,0.094
		c3.708,0.23,6.612,3.319,6.612,7.03c0,3.878-3.144,7.035-7.017,7.057c-0.042-0.003-0.079-0.005-0.117-0.005l-2.047,0.005h-0.819v2
		h2.819v-0.006c0.042,0.001,0.082,0.006,0.124,0.006c5.001,0,9.057-4.054,9.057-9.057
		C-255.749,213.35-259.503,209.428-264.237,209.133z M-292.157,205.516c-0.241-0.016-0.48-0.036-0.725-0.036
		c-2.766,0-5.282,1.041-7.2,2.743c-1.092-1.366-1.753-3.09-1.753-4.971c0-4.41,3.589-7.999,8-7.999c3.091,0,5.76,1.773,7.091,4.345
		C-289.042,201.038-290.922,203.086-292.157,205.516z"/>
	<circle cx="-287.759" cy="235.703" r="1.5"/>
	<circle cx="-279.759" cy="241.703" r="1.5"/>
	<circle cx="-271.759" cy="237.703" r="1.5"/>
	<rect x="-288.759" y="219.228" width="2" height="11.976"/>
	<polygon points="-278.759,237.168 -278.759,235.228 -278.759,223.228 -280.759,223.228 -280.759,235.228 -280.759,237.168 
		-280.759,237.203 -278.759,237.203 	"/>
	<polygon points="-270.759,232.98 -270.759,231.228 -270.759,219.228 -272.759,219.228 -272.759,231.228 -272.759,232.98 
		-272.759,233.203 -270.759,233.203 	"/>
</g>
<g>
	<path d="M-163.635,206.135c-1.444-6.742-7.433-11.8-14.605-11.8c-1.799,0-3.522,0.32-5.118,0.904
		c-0.949-5.108-5.404-8.98-10.788-8.98c-0.413,0-0.819,0.027-1.222,0.071c0.744,1.112,1.179,2.448,1.179,3.886c0,3.865-3.134,7-7,7
		c-1.438,0-2.773-0.435-3.886-1.179c-0.044,0.401-0.071,0.809-0.071,1.222c0,3.712,1.845,6.987,4.661,8.979
		c-1.653,1.907-2.661,4.389-2.661,7.111c0,5.983,4.836,10.836,10.813,10.865v0.003h1.188v-2h-0.721l-0.457-0.003
		c-4.864-0.023-8.822-4.001-8.822-8.865c0-4.89,3.978-8.868,8.867-8.868c0.15,0,0.299,0.012,0.447,0.022l0.148,0.01l1.314,0.085
		l0.597-1.175c2.225-4.372,6.644-7.089,11.532-7.089c6.062,0,11.382,4.298,12.649,10.219l0.318,1.483l1.514,0.094
		c3.708,0.23,6.612,3.319,6.612,7.03c0,3.878-3.144,7.035-7.017,7.057c-0.042-0.003-0.079-0.005-0.117-0.005l-2.047,0.005h-0.819v2
		h2.819v-0.006c0.042,0.001,0.082,0.006,0.124,0.006c5.001,0,9.057-4.054,9.057-9.057
		C-155.146,210.352-158.9,206.43-163.635,206.135z M-191.555,202.518c-0.241-0.016-0.48-0.036-0.725-0.036
		c-2.537,0-4.865,0.876-6.715,2.334c-2.012-1.294-3.487-3.354-3.976-5.776c0.582,0.117,1.178,0.177,1.78,0.177c4.963,0,9-4.037,9-9
		c0-0.603-0.06-1.198-0.177-1.78c3.733,0.753,6.629,3.824,7.133,7.64C-187.944,197.52-190.159,199.774-191.555,202.518z"/>
	<circle cx="-187.146" cy="232.709" r="1.5"/>
	<circle cx="-179.146" cy="238.709" r="1.5"/>
	<circle cx="-171.146" cy="234.709" r="1.5"/>
	<rect x="-188.146" y="216.233" width="2" height="11.976"/>
	<polygon points="-178.146,234.174 -178.146,232.233 -178.146,220.233 -180.146,220.233 -180.146,232.233 -180.146,234.174 
		-180.146,234.209 -178.146,234.209 	"/>
	<polygon points="-170.146,229.986 -170.146,228.233 -170.146,216.233 -172.146,216.233 -172.146,228.233 -172.146,229.986 
		-172.146,230.209 -170.146,230.209 	"/>
</g>
<g>
	<rect x="-311.749" y="310.575" width="56" height="2"/>
	<rect x="-307.749" y="316.575" width="50" height="2"/>
	<rect x="-301.749" y="322.575" width="36" height="2"/>
	<rect x="-309.749" y="304.575" width="52" height="2"/>
	<path d="M-297.875,296.57c0.175,0,0.347,0.014,0.519,0.025l0.149,0.01l1.316,0.088l0.598-1.176
		c2.493-4.899,7.443-7.942,12.92-7.942c6.79,0,12.75,4.814,14.171,11.448l0.318,1.482l1.514,0.095
		c1.207,0.075,2.335,0.425,3.336,0.975h3.286c-1.678-1.703-3.957-2.813-6.498-2.971c-1.596-7.445-8.207-13.029-16.127-13.029
		c-6.423,0-11.977,3.678-14.702,9.035c-0.266-0.018-0.53-0.04-0.8-0.04c-4.843,0-9.004,2.874-10.9,7.005h2.251
		C-304.793,298.589-301.568,296.57-297.875,296.57z"/>
</g>
<g>
	<rect x="-190.646" y="283.061" width="2" height="7.973"/>
	<rect x="-209.646" y="301.975" width="7.973" height="2"/>
	<rect x="-204.973" y="290.708" transform="matrix(0.7071 0.7071 -0.7071 0.7071 147.4012 227.5581)" width="7.974" height="2"/>
	<rect x="-179.465" y="287.726" transform="matrix(0.7071 0.7071 -0.7071 0.7071 154.0003 211.6342)" width="2" height="7.972"/>
	<rect x="-200.646" y="316.935" width="50" height="2"/>
	<rect x="-196.646" y="322.935" width="44" height="2"/>
	<rect x="-190.646" y="327.935" width="30" height="2"/>
	<rect x="-198.646" y="310.935" width="46" height="2"/>
	<path d="M-197.738,308.935h0.771h1.927h1.012c1.472-1.087,3.283-1.737,5.249-1.737c0.15,0,0.299,0.012,0.447,0.022l0.148,0.01
		l1.314,0.085l0.597-1.175c2.225-4.372,6.644-7.089,11.532-7.089c5.945,0,11.168,4.139,12.563,9.884h2.043v-0.084
		c-1.444-6.742-7.433-11.8-14.605-11.8c-2.185,0-4.258,0.47-6.126,1.313c-1.667-3.202-5.007-5.394-8.866-5.394
		c-5.522,0-10,4.477-10,9.999C-199.732,305.211-198.984,307.27-197.738,308.935z M-189.732,294.971c3.091,0,5.76,1.773,7.091,4.345
		c-2.298,1.44-4.178,3.488-5.413,5.918c-0.241-0.016-0.48-0.036-0.725-0.036c-2.764,0-5.274,1.045-7.189,2.745
		c-1.097-1.366-1.764-3.089-1.764-4.973C-197.732,298.56-194.144,294.971-189.732,294.971z"/>
</g>
<g>
	<rect x="-101.902" y="313.497" width="50" height="2"/>
	<rect x="-97.902" y="319.497" width="44" height="2"/>
	<rect x="-91.902" y="324.497" width="30" height="2"/>
	<rect x="-99.902" y="307.497" width="46" height="2"/>
	<path d="M-98.26,305.497h0.037h1.884h1.055c1.472-1.087,3.283-1.737,5.249-1.737c0.15,0,0.299,0.012,0.447,0.022l0.148,0.01
		l1.314,0.085l0.597-1.175c2.225-4.372,6.644-7.089,11.532-7.089c5.945,0,11.168,4.139,12.563,9.884h2.043v-0.084
		c-1.444-6.742-7.433-11.8-14.605-11.8c-1.799,0-3.521,0.32-5.117,0.903c-0.945-5.111-5.402-8.987-10.789-8.987
		c-0.413,0-0.819,0.027-1.222,0.071c0.744,1.112,1.179,2.448,1.179,3.886c0,3.865-3.134,7-7,7c-1.438,0-2.773-0.435-3.886-1.179
		c-0.044,0.401-0.071,0.809-0.071,1.222C-102.902,300.233-101.066,303.504-98.26,305.497z M-98.945,298.486c4.963,0,9-4.037,9-9
		c0-0.603-0.06-1.198-0.177-1.78c3.735,0.753,6.633,3.828,7.134,7.647c-2.712,1.443-4.927,3.699-6.322,6.442
		c-0.241-0.016-0.48-0.036-0.725-0.036c-2.534,0-4.855,0.879-6.701,2.335c-2.02-1.293-3.5-3.356-3.989-5.785
		C-100.144,298.427-99.548,298.486-98.945,298.486z"/>
</g>
<g>
	<path d="M29.989,316.511H10.516l-0.578-0.003c-5.485-0.027-9.948-4.513-9.948-9.998c0-5.514,4.485-10,9.999-10
		c0.175,0,0.347,0.014,0.519,0.025l0.149,0.01l1.316,0.088l0.598-1.176c2.493-4.899,7.443-7.942,12.92-7.942
		c6.79,0,12.75,4.814,14.171,11.448l0.318,1.482l1.514,0.095c1.822,0.113,3.463,0.845,4.746,1.971h2.732
		c-1.707-2.262-4.348-3.78-7.354-3.967c-1.596-7.445-8.207-13.029-16.127-13.029c-6.423,0-11.977,3.678-14.702,9.035
		c-0.266-0.018-0.53-0.04-0.8-0.04c-6.627,0-11.999,5.372-11.999,12c0,6.607,5.34,11.965,11.938,11.998v0.003h20.062
		c2.205,0,4,1.794,4,4s-1.795,4-4,4v2c3.314,0,6-2.686,6-6C35.989,319.197,33.304,316.511,29.989,316.511z"/>
	<path d="M33.989,312.511H18.001v2h15.988c3.314,0,6-2.687,6-6c0-3.314-2.686-6-6-6v2c2.205,0,4,1.794,4,4
		S36.194,312.511,33.989,312.511z"/>
	<path d="M46.989,306.511c1.654,0,3,1.346,3,3s-1.346,3-3,3c-0.043,0-0.083-0.011-0.126-0.013h-4.862
		c0.003,0.005,0.009,0.008,0.012,0.013h-0.023v2h5.5v-0.051c2.523-0.254,4.5-2.358,4.5-4.949c0-2.762-2.238-5-5-5V306.511z"/>
	<path d="M50.989,316.511h-13v2h9.022c-0.004,0.005-0.008,0.008-0.011,0.013h3.862c0.043-0.002,0.083-0.013,0.126-0.013
		c1.654,0,3,1.346,3,3s-1.346,3-3,3v2c2.762,0,5-2.238,5-5S53.751,316.511,50.989,316.511z"/>
	<rect x="11.989" y="312.511" width="4" height="2"/>
</g>
<path d="M-177.572-82.593c6.95,1.305,12.226,7.419,12.226,14.742c0,8.272-6.729,15.002-15,15.002c-6.79,0-12.531-4.49-14.366-10.728
	c1.398,0.461,2.867,0.698,4.366,0.698c7.72,0,14-6.281,14-14.001C-176.347-78.863-176.771-80.808-177.572-82.593 M-180.347-84.85
	c-0.338,0-0.668,0.031-1,0.051c1.861,2.113,3,4.881,3,7.92c0,6.627-5.372,12.001-12,12.001c-2.599,0-4.998-0.835-6.963-2.239
	c0.387,9.047,7.821,16.269,16.963,16.269c9.39,0,17-7.612,17-17.002S-170.957-84.85-180.347-84.85L-180.347-84.85z"/>
<g>
	<path d="M-283.742-79.854c-7.18,0-13,5.819-13,12.999c0,7.181,5.82,13.002,13,13.002s13-5.821,13-13.002
		C-270.742-74.035-276.563-79.854-283.742-79.854z M-283.742-55.854c-6.065,0-11-4.936-11-11.002c0-6.064,4.935-10.999,11-10.999
		s11,4.935,11,10.999C-272.742-60.789-277.677-55.854-283.742-55.854z"/>
	<rect x="-284.749" y="-92.849" width="2" height="10"/>
	<rect x="-284.749" y="-50.849" width="2" height="10"/>
	<rect x="-309.742" y="-67.849" width="9.993" height="2"/>
	<rect x="-267.749" y="-67.849" width="10.007" height="2"/>
	<rect x="-270.049" y="-86.763" transform="matrix(0.7071 0.7071 -0.7071 0.7071 -136.473 166.3588)" width="2" height="10.409"/>
	
		<rect x="-299.458" y="-57.354" transform="matrix(-0.7071 -0.7071 0.7071 -0.7071 -472.6248 -300.0655)" width="2" height="10.41"/>
	<rect x="-303.658" y="-82.553" transform="matrix(0.7071 0.7071 -0.7071 0.7071 -145.0819 187.1522)" width="10.409" height="2"/>
	<rect x="-274.25" y="-53.144" transform="matrix(-0.7072 -0.7071 0.7071 -0.7072 -422.4321 -279.2488)" width="10.41" height="2"/>
</g>
<g>
	<rect x="114.424" y="278.013" width="2" height="7.973"/>
	<rect x="95.451" y="296.999" width="7.973" height="2"/>
	<rect x="100.177" y="285.78" transform="matrix(0.7071 0.7071 -0.7071 0.7071 233.2932 10.3409)" width="7.974" height="2"/>
	<rect x="125.686" y="282.798" transform="matrix(0.7071 0.7071 -0.7071 0.7071 239.8924 -5.5831)" width="2" height="7.972"/>
	<path d="M129.451,320.013l0.005-0.007H116.92l-0.594-0.003c-4.864-0.024-8.822-4.001-8.822-8.865c0-4.89,3.978-8.868,8.867-8.868
		c0.15,0,0.299,0.012,0.447,0.021l0.148,0.011l1.314,0.085l0.597-1.174c2.225-4.373,6.644-7.09,11.532-7.09
		c5.916,0,11.114,4.099,12.54,9.8h2.065c-1.444-6.742-7.433-11.8-14.605-11.8c-2.185,0-4.258,0.47-6.126,1.313
		c-1.667-3.202-5.007-5.394-8.866-5.394c-5.522,0-10,4.477-10,9.999c0,2.46,0.899,4.702,2.373,6.442
		c-1.429,1.84-2.287,4.144-2.287,6.653c0,5.983,4.836,10.836,10.813,10.865v0.003h13.135v0.007c2.205,0,4,1.794,4,4s-1.795,4-4,4v2
		c3.314,0,6-2.686,6-6C135.451,322.699,132.766,320.013,129.451,320.013z M115.418,290.043c3.091,0,5.76,1.773,7.091,4.345
		c-2.298,1.439-4.178,3.488-5.413,5.918c-0.241-0.016-0.48-0.036-0.725-0.036c-2.766,0-5.282,1.042-7.2,2.743
		c-1.092-1.367-1.753-3.09-1.753-4.971C107.418,293.632,111.007,290.043,115.418,290.043z"/>
	<path d="M133.451,316.013h-9.988v2h9.988c3.314,0,6-2.687,6-6c0-3.314-2.686-6-6-6v2c2.205,0,4,1.794,4,4
		S135.656,316.013,133.451,316.013z"/>
	<path d="M141.475,316.013h-0.023v2h5.5v-0.051c2.523-0.254,4.5-2.358,4.5-4.949c0-2.762-2.238-5-5-5v2c1.654,0,3,1.346,3,3
		s-1.346,3-3,3c-0.043,0-0.083-0.011-0.126-0.013h-4.862C141.466,316.005,141.472,316.009,141.475,316.013z"/>
	<path d="M150.451,320.013h-13v2h9.022c-0.004,0.004-0.008,0.008-0.011,0.013h3.862c0.043-0.002,0.083-0.013,0.126-0.013
		c1.654,0,3,1.346,3,3s-1.346,3-3,3v2c2.762,0,5-2.238,5-5S153.213,320.013,150.451,320.013z"/>
	<rect x="117.451" y="316.013" width="4" height="2"/>
</g>
<g>
	<path d="M229.413,318.007l0.005-0.007h-12.536l-0.594-0.003c-4.864-0.024-8.822-4.001-8.822-8.865c0-4.89,3.978-8.868,8.867-8.868
		c0.15,0,0.299,0.012,0.447,0.021l0.148,0.011l1.314,0.085l0.597-1.174c2.225-4.373,6.644-7.09,11.532-7.09
		c5.916,0,11.114,4.099,12.54,9.8h2.065c-1.444-6.742-7.433-11.8-14.605-11.8c-1.806,0-3.536,0.322-5.138,0.91
		c-0.938-5.123-5.4-9.01-10.794-9.01c-0.413,0-0.819,0.027-1.222,0.071c0.744,1.112,1.179,2.448,1.179,3.886c0,3.865-3.134,7-7,7
		c-1.438,0-2.773-0.435-3.886-1.179c-0.044,0.401-0.071,0.809-0.071,1.222c0,3.725,1.858,7.009,4.69,8.998
		c-1.655,1.907-2.665,4.392-2.665,7.116c0,5.983,4.836,10.836,10.813,10.865V320h13.135v0.007c2.205,0,4,1.794,4,4s-1.795,4-4,4v2
		c3.314,0,6-2.686,6-6C235.413,320.693,232.728,318.007,229.413,318.007z M205.617,294.798c0.582,0.117,1.178,0.177,1.78,0.177
		c4.963,0,9-4.037,9-9c0-0.603-0.06-1.198-0.177-1.78c3.744,0.755,6.646,3.842,7.138,7.674c-2.702,1.444-4.909,3.696-6.301,6.432
		c-0.241-0.016-0.48-0.036-0.725-0.036c-2.535,0-4.861,0.875-6.71,2.33C207.595,299.302,206.108,297.233,205.617,294.798z"/>
	<path d="M233.413,314.007h-9.988v2h9.988c3.314,0,6-2.687,6-6c0-3.314-2.686-6-6-6v2c2.205,0,4,1.794,4,4
		S235.618,314.007,233.413,314.007z"/>
	<path d="M241.437,314.007h-0.023v2h5.5v-0.051c2.523-0.254,4.5-2.358,4.5-4.949c0-2.762-2.238-5-5-5v2c1.654,0,3,1.346,3,3
		s-1.346,3-3,3c-0.043,0-0.083-0.011-0.126-0.013h-4.862C241.428,313.999,241.434,314.003,241.437,314.007z"/>
	<path d="M250.413,318.007h-13v2h9.022c-0.004,0.004-0.008,0.008-0.011,0.013h3.862c0.043-0.002,0.083-0.013,0.126-0.013
		c1.654,0,3,1.346,3,3s-1.346,3-3,3v2c2.762,0,5-2.238,5-5S253.175,318.007,250.413,318.007z"/>
	<rect x="217.413" y="314.007" width="4" height="2"/>
</g>
<g>
	<rect x="330.306" y="280.575" width="2" height="10"/>
	<rect x="305.313" y="305.575" width="9.993" height="2"/>
	<rect x="345.005" y="286.661" transform="matrix(0.7071 0.7071 -0.7071 0.7071 307.7229 -159.1772)" width="2" height="10.409"/>
	<rect x="311.397" y="290.871" transform="matrix(0.7071 0.7071 -0.7071 0.7071 299.114 -138.3839)" width="10.409" height="2"/>
	<path d="M335.306,320.575h-24v2h24c2.205,0,4,1.794,4,4s-1.795,4-4,4v2c3.314,0,6-2.686,6-6
		C341.306,323.262,338.62,320.575,335.306,320.575z"/>
	<path d="M347.329,316.575h-0.023v2h5.5v-0.051c2.523-0.254,4.5-2.358,4.5-4.949c0-2.762-2.238-5-5-5v2c1.654,0,3,1.346,3,3
		s-1.346,3-3,3c-0.043,0-0.083-0.011-0.126-0.013h-4.862C347.32,316.567,347.326,316.571,347.329,316.575z"/>
	<path d="M356.306,320.575h-13v2h9.022c-0.004,0.004-0.008,0.008-0.011,0.013h3.862c0.043-0.002,0.083-0.013,0.126-0.013
		c1.654,0,3,1.346,3,3s-1.346,3-3,3v2c2.762,0,5-2.238,5-5S359.067,320.575,356.306,320.575z"/>
	<path d="M323.015,316.575h-11.709v2h12.012h0.822h15.166c3.314,0,6-2.687,6-6c0-3.314-2.686-6-6-6v2c2.205,0,4,1.794,4,4
		s-1.795,4-4,4h-12.538c-3.802-1.734-6.455-5.563-6.455-10.007c0-6.064,4.935-10.999,11-10.999c5.384,0,9.868,3.891,10.81,9.006
		h2.021c-0.961-6.23-6.331-11.006-12.831-11.006c-7.18,0-13,5.819-13,12.999C318.313,310.594,320.143,314.19,323.015,316.575z"/>
</g>
<g>
	<path d="M435.532,314.019h-24v2h24c2.205,0,4,1.794,4,4s-1.795,4-4,4v2c3.314,0,6-2.686,6-6
		C441.532,316.705,438.847,314.019,435.532,314.019z"/>
	<path d="M453.032,312.019v-0.051c2.523-0.254,4.5-2.358,4.5-4.949c0-2.762-2.238-5-5-5v2c1.654,0,3,1.346,3,3s-1.346,3-3,3
		c-0.043,0-0.083-0.011-0.126-0.013h-4.862c0.004,0.005,0.009,0.009,0.012,0.013h-0.023v2H453.032z"/>
	<path d="M456.532,314.019h-13v2h9.022c-0.003,0.004-0.007,0.008-0.011,0.013h3.862c0.043-0.002,0.083-0.013,0.126-0.013
		c1.654,0,3,1.346,3,3s-1.346,3-3,3v2c2.762,0,5-2.238,5-5S459.294,314.019,456.532,314.019z"/>
	<path d="M424.366,312.019h15.166c3.314,0,6-2.687,6-6c0-3.314-2.686-6-6-6v2c2.205,0,4,1.794,4,4s-1.795,4-4,4h-12.586
		c-2.596-1.188-4.658-3.339-5.69-6.034c0.849,0.204,1.724,0.309,2.612,0.309c6.168,0,11.187-5.019,11.187-11.188
		c0-1.276-0.22-2.532-0.64-3.717c4.046,1.102,7.168,4.459,7.937,8.63h2.018c-0.964-6.237-6.338-11.016-12.846-11.016
		c-0.259,0-0.511,0.024-0.766,0.039c1.425,1.618,2.297,3.737,2.297,6.063c0,5.072-4.112,9.188-9.187,9.188
		c-1.988,0-3.826-0.641-5.33-1.715c0.162,3.801,1.962,7.165,4.699,9.44h-11.705v2h12.012H424.366z"/>
</g>
<g>
	<path d="M-284.249,399.212h-20c-1.103,0-2-0.897-2-2s0.897-2,2-2h3.445h0.555v-2h-4c-2.209,0-4,1.791-4,4s1.791,4,4,4h20
		c2.205,0,4,1.794,4,4s-1.795,4-4,4v2c3.314,0,6-2.686,6-6C-278.249,401.898-280.935,399.212-284.249,399.212z"/>
	<path d="M-282.249,383.212v2c2.205,0,4,1.794,4,4s-1.795,4-4,4h-15.988v2h15.988c3.314,0,6-2.687,6-6
		C-276.249,385.897-278.935,383.212-282.249,383.212z"/>
	<path d="M-276.249,395.212v2h5.5v-0.051c2.523-0.254,4.5-2.358,4.5-4.949c0-2.762-2.238-5-5-5v2c1.654,0,3,1.346,3,3s-1.346,3-3,3
		c-0.043,0-0.083-0.011-0.126-0.013h-4.862c0.003,0.005,0.009,0.009,0.012,0.013H-276.249z"/>
	<path d="M-265.249,399.212h-11v2h7.022c-0.004,0.004-0.008,0.008-0.011,0.013h3.862c0.043-0.002,0.083-0.013,0.126-0.013
		c1.654,0,3,1.346,3,3s-1.346,3-3,3v2c2.762,0,5-2.238,5-5S-262.487,399.212-265.249,399.212z"/>
</g>
<path d="M252.043,385.559v-0.038h-38.376c-1.103,0-2-0.897-2-2s0.897-2,2-2h33c2.762,0,5-2.238,5-5s-2.238-5-5-5h-37.875v0.008
	c-0.042-0.001-0.083-0.008-0.125-0.008c-2.762,0-5,2.238-5,5s2.238,5,5,5v-2c-1.654,0-3-1.346-3-3s1.346-3,3-3h0.125h3.853h34.022
	c1.654,0,3,1.346,3,3s-1.346,3-3,3h-33c-2.209,0-4,1.791-4,4s1.791,4,4,4h38c1.103,0,2,0.897,2,2s-0.897,2-2,2h-32
	c-2.209,0-4,1.791-4,4s1.791,4,4,4h22c1.103,0,2,0.897,2,2s-0.897,2-2,2h-24.01v0.001c-2.204,0.006-3.99,1.793-3.99,3.999
	s1.786,3.993,3.99,3.999v0.001h12.01c1.103,0,2,0.897,2,2s-0.897,2-2,2h-2c-2.209,0-4,1.791-4,4s1.791,4,4,4v-2
	c-1.103,0-2-0.897-2-2s0.897-2,2-2h2c2.209,0,4-1.791,4-4s-1.791-4-4-4h-12c-1.103,0-2-0.897-2-2s0.897-2,2-2h24
	c2.209,0,4-1.791,4-4c0-2.152-1.704-3.895-3.834-3.983v-0.017h-22.166c-1.103,0-2-0.897-2-2s0.897-2,2-2h32c2.209,0,4-1.791,4-4
	C255.667,387.44,254.073,385.751,252.043,385.559z"/>
<path d="M437.458,376.236v-2.024h-2v2.024c-13.01,0.513-23.462,10.965-23.975,23.976h1.674c1.14-1.222,2.748-2,4.551-2
	c2.26,0,4.233,1.203,5.331,3h1.838c1.098-1.797,3.071-3,5.331-3c2.204,0,4.137,1.144,5.25,2.866v15.134c0,2.21,1.791,4,4,4
	s4-1.79,4-4h-2c0,1.103-0.897,2-2,2s-2-0.897-2-2v-15.134c1.113-1.723,3.046-2.866,5.25-2.866c2.26,0,4.233,1.203,5.331,3h1.838
	c1.098-1.797,3.071-3,5.331-3c1.803,0,3.411,0.778,4.551,2h1.674C460.92,387.201,450.468,376.749,437.458,376.236z M455.208,396.212
	c-2.496,0-4.736,1.114-6.25,2.87c-1.514-1.756-3.754-2.87-6.25-2.87s-4.736,1.114-6.25,2.87c-1.514-1.756-3.754-2.87-6.25-2.87
	s-4.736,1.114-6.25,2.87c-1.514-1.756-3.755-2.87-6.25-2.87c-1.402,0-2.731,0.351-3.897,0.975
	c1.909-10.769,11.339-18.975,22.647-18.975s20.738,8.206,22.647,18.975C457.939,396.563,456.61,396.212,455.208,396.212z"/>
<g>
	<path d="M32.163,500.524v-17.105c0-2.762-2.238-5-5-5s-5,2.238-5,5v17.105c-1.236,1.263-2,2.988-2,4.895c0,3.866,3.134,7,7,7
		s7-3.134,7-7C34.163,503.513,33.399,501.787,32.163,500.524z M27.163,510.419c-2.757,0-5-2.243-5-5
		c0-1.313,0.508-2.554,1.429-3.495l0.571-0.583v-0.816v-17.105c0-1.654,1.346-3,3-3s3,1.346,3,3v17.105v0.816l0.571,0.583
		c0.921,0.941,1.429,2.183,1.429,3.495C32.163,508.176,29.92,510.419,27.163,510.419z"/>
	<path d="M28.163,502.595v-15.176h-2v15.176c-1.167,0.413-2.008,1.516-2.008,2.824c0,1.662,1.347,3.008,3.008,3.008
		c1.662,0,3.008-1.346,3.008-3.008C30.171,504.11,29.331,503.008,28.163,502.595z M27.163,506.427c-0.556,0-1.008-0.452-1.008-1.008
		s0.452-1.008,1.008-1.008s1.008,0.452,1.008,1.008S27.719,506.427,27.163,506.427z"/>
</g>
<g>
	<path d="M131.951,500.524v-17.105c0-2.762-2.238-5-5-5s-5,2.238-5,5v17.105c-1.236,1.263-2,2.988-2,4.895c0,3.866,3.134,7,7,7
		s7-3.134,7-7C133.951,503.513,133.188,501.787,131.951,500.524z M126.951,510.419c-2.757,0-5-2.243-5-5
		c0-1.313,0.508-2.554,1.429-3.495l0.571-0.583v-0.816v-17.105c0-1.654,1.346-3,3-3s3,1.346,3,3v17.105v0.816l0.571,0.583
		c0.921,0.941,1.429,2.183,1.429,3.495C131.951,508.176,129.708,510.419,126.951,510.419z"/>
	<path d="M127.951,502.595v-20.176h-2v20.176c-1.167,0.413-2.008,1.516-2.008,2.824c0,1.662,1.347,3.008,3.008,3.008
		c1.662,0,3.008-1.346,3.008-3.008C129.959,504.11,129.119,503.008,127.951,502.595z M126.951,506.427
		c-0.556,0-1.008-0.452-1.008-1.008s0.452-1.008,1.008-1.008s1.008,0.452,1.008,1.008S127.507,506.427,126.951,506.427z"/>
</g>
<g>
	<path d="M-70.946,500.524v-17.105c0-2.762-2.238-5-5-5s-5,2.238-5,5v17.105c-1.236,1.263-2,2.988-2,4.895c0,3.866,3.134,7,7,7
		s7-3.134,7-7C-68.946,503.513-69.71,501.787-70.946,500.524z M-75.946,510.419c-2.757,0-5-2.243-5-5
		c0-1.313,0.508-2.554,1.429-3.495l0.571-0.583v-0.816v-17.105c0-1.654,1.346-3,3-3s3,1.346,3,3v17.105v0.816l0.571,0.583
		c0.921,0.941,1.429,2.183,1.429,3.495C-70.946,508.176-73.189,510.419-75.946,510.419z"/>
	<path d="M-74.946,502.595v-10.176h-2v10.176c-1.167,0.413-2.008,1.516-2.008,2.824c0,1.662,1.347,3.008,3.008,3.008
		c1.662,0,3.008-1.346,3.008-3.008C-72.938,504.11-73.778,503.008-74.946,502.595z M-75.946,506.427
		c-0.556,0-1.008-0.452-1.008-1.008s0.452-1.008,1.008-1.008s1.008,0.452,1.008,1.008S-75.391,506.427-75.946,506.427z"/>
</g>
<g>
	<path d="M-174.592,500.524v-17.105c0-2.762-2.238-5-5-5s-5,2.238-5,5v17.105c-1.236,1.263-2,2.988-2,4.895c0,3.866,3.134,7,7,7
		s7-3.134,7-7C-172.592,503.513-173.355,501.787-174.592,500.524z M-179.592,510.419c-2.757,0-5-2.243-5-5
		c0-1.313,0.508-2.554,1.429-3.495l0.571-0.583v-0.816v-17.105c0-1.654,1.346-3,3-3s3,1.346,3,3v17.105v0.816l0.571,0.583
		c0.921,0.941,1.429,2.183,1.429,3.495C-174.592,508.176-176.835,510.419-179.592,510.419z"/>
	<path d="M-178.592,502.595v-5.176h-2v5.176c-1.167,0.413-2.008,1.516-2.008,2.824c0,1.662,1.347,3.008,3.008,3.008
		c1.662,0,3.008-1.346,3.008-3.008C-176.584,504.11-177.424,503.008-178.592,502.595z M-179.592,506.427
		c-0.556,0-1.008-0.452-1.008-1.008s0.452-1.008,1.008-1.008s1.008,0.452,1.008,1.008S-179.036,506.427-179.592,506.427z"/>
</g>
<g>
	<path d="M-279.249,500.524v-17.105c0-2.762-2.238-5-5-5s-5,2.238-5,5v17.105c-1.236,1.263-2,2.988-2,4.895c0,3.866,3.134,7,7,7
		s7-3.134,7-7C-277.249,503.513-278.013,501.787-279.249,500.524z M-284.249,510.419c-2.757,0-5-2.243-5-5
		c0-1.313,0.508-2.554,1.429-3.495l0.571-0.583v-0.816v-17.105c0-1.654,1.346-3,3-3s3,1.346,3,3v17.105v0.816l0.571,0.583
		c0.921,0.941,1.429,2.183,1.429,3.495C-279.249,508.176-281.492,510.419-284.249,510.419z"/>
	<path d="M-284.249,502.411c-1.661,0-3.008,1.347-3.008,3.008c0,1.662,1.347,3.008,3.008,3.008c1.662,0,3.008-1.346,3.008-3.008
		C-281.241,503.758-282.587,502.411-284.249,502.411z M-284.249,506.427c-0.556,0-1.008-0.452-1.008-1.008s0.452-1.008,1.008-1.008
		s1.008,0.452,1.008,1.008S-283.693,506.427-284.249,506.427z"/>
</g>
<g>
	<path d="M220.676,480.731c-2.209,0-4,1.791-4,4c0,2.21,1.791,4,4,4c2.211,0,4-1.79,4-4
		C224.676,482.522,222.887,480.731,220.676,480.731z M220.676,486.731c-1.103,0-2-0.897-2-2s0.897-2,2-2s2,0.897,2,2
		S221.778,486.731,220.676,486.731z"/>
	<path d="M234.676,508.731c-4.41,0-7.999-3.589-7.999-7.999v-4.002c0-4.41,3.589-7.999,7.999-7.999c2.715,0,5.115,1.362,6.563,3.437
		l1.43-1.43c-1.824-2.429-4.72-4.007-7.992-4.007c-5.522,0-9.999,4.478-9.999,9.999v4.002c0,5.521,4.477,9.999,9.999,9.999
		c3.272,0,6.168-1.579,7.992-4.008l-1.43-1.43C239.792,507.368,237.392,508.731,234.676,508.731z"/>
</g>
<g>
	<path d="M325.372,480.61c-2.209,0-4,1.791-4,4c0,2.21,1.791,4,4,4c2.211,0,4-1.79,4-4
		C329.372,482.401,327.583,480.61,325.372,480.61z M325.372,486.61c-1.103,0-2-0.897-2-2s0.897-2,2-2s2,0.897,2,2
		S326.475,486.61,325.372,486.61z"/>
	<polygon points="345.247,488.731 345.247,486.731 333.247,486.731 331.247,486.731 331.247,510.731 333.247,510.731 
		333.247,498.731 341.247,498.731 341.247,496.731 333.247,496.731 333.247,488.731 	"/>
</g>
<g>
	<path d="M436.458,484.423c-7.179,0-13,5.82-13,13s5.821,13,13,13s13-5.82,13-13S443.637,484.423,436.458,484.423z M436.458,508.423
		c-6.065,0-11-4.935-11-11s4.935-11,11-11s11,4.935,11,11S442.523,508.423,436.458,508.423z"/>
	<path d="M432.191,501.665l6.363-2.121l2.121-6.364l-6.363,2.122L432.191,501.665z M435.894,496.883l1.62-0.54l-0.54,1.62
		l-1.62,0.54L435.894,496.883z"/>
</g>
<g>
	<path d="M-284.249,574.94c-7.179,0-13,5.82-13,13s5.821,13,13,13s13-5.82,13-13S-277.07,574.94-284.249,574.94z M-284.249,598.94
		c-6.065,0-11-4.934-11-11c0-6.064,4.935-11,11-11s11,4.936,11,11C-273.249,594.007-278.184,598.94-284.249,598.94z"/>
	<path d="M-281.688,586.362l-2.586-4.422l-2.529,4.33h0.007c-0.299,0.467-0.478,1.018-0.478,1.613c0,1.656,1.343,3,3,3s3-1.344,3-3
		c0-0.559-0.162-1.074-0.428-1.521H-281.688z M-284.273,588.884c-0.552,0-1-0.449-1-1c0-0.188,0.055-0.367,0.162-0.535l0.864-1.355
		l0.826,1.391c0.098,0.164,0.147,0.332,0.147,0.5C-283.273,588.435-283.722,588.884-284.273,588.884z"/>
</g>
<g>
	<path d="M-179.465,574.94c-7.18,0-13,5.82-13,13s5.82,13,13,13s13-5.82,13-13S-172.285,574.94-179.465,574.94z M-179.465,598.94
		c-6.065,0-11-4.934-11-11c0-6.064,4.935-11,11-11s11,4.936,11,11C-168.465,594.007-173.399,598.94-179.465,598.94z"/>
	<path d="M-177.876,585.36c-0.467-0.299-1.018-0.477-1.613-0.477c-1.658,0-3,1.342-3,3c0,1.656,1.342,3,3,3
		c0.557,0,1.072-0.162,1.52-0.428v0.014l4.422-2.586l-4.328-2.529V585.36z M-178.991,588.735c-0.164,0.098-0.332,0.148-0.498,0.148
		c-0.552,0-1-0.449-1-1c0-0.553,0.448-1,1-1c0.188,0,0.368,0.053,0.535,0.16l1.355,0.865L-178.991,588.735z"/>
</g>
<g>
	<path d="M-76.414,574.94c-7.18,0-13,5.82-13,13s5.82,13,13,13s13-5.82,13-13S-69.234,574.94-76.414,574.94z M-76.414,598.94
		c-6.065,0-11-4.934-11-11c0-6.064,4.935-11,11-11s11,4.936,11,11C-65.414,594.007-70.349,598.94-76.414,598.94z"/>
	<path d="M-76.414,584.884c-1.656,0-3,1.342-3,3c0,0.557,0.162,1.072,0.428,1.52H-79l2.586,4.422l2.529-4.328h-0.006
		c0.299-0.467,0.477-1.018,0.477-1.613C-73.414,586.226-74.756,584.884-76.414,584.884z M-75.575,588.419l-0.865,1.355l-0.826-1.393
		c-0.098-0.164-0.147-0.332-0.147-0.498c0-0.553,0.448-1,1-1s1,0.447,1,1C-75.414,588.071-75.468,588.251-75.575,588.419z"/>
</g>
<g>
	<path d="M27,574.94c-7.179,0-13,5.82-13,13s5.821,13,13,13s13-5.82,13-13S34.179,574.94,27,574.94z M27,598.94
		c-6.065,0-11-4.934-11-11c0-6.064,4.935-11,11-11s11,4.936,11,11C38,594.007,33.065,598.94,27,598.94z"/>
	<path d="M26.959,584.884c-0.557,0-1.072,0.162-1.52,0.428v-0.014l-4.422,2.586l4.328,2.529v-0.006
		c0.467,0.299,1.018,0.477,1.613,0.477c1.658,0,3-1.342,3-3C29.959,586.228,28.617,584.884,26.959,584.884z M26.959,588.884
		c-0.188,0-0.368-0.055-0.535-0.162l-1.355-0.865l1.393-0.826c0.164-0.098,0.332-0.146,0.498-0.146c0.552,0,1,0.447,1,1
		C27.959,588.435,27.511,588.884,26.959,588.884z"/>
</g>
<g>
	<rect x="-181.151" y="378.212" width="2" height="10"/>
	<rect x="-166.452" y="384.298" transform="matrix(0.7071 0.7071 -0.7071 0.7071 226.9601 231.0746)" width="2" height="10.409"/>
	<rect x="-200.061" y="388.507" transform="matrix(0.7071 0.7071 -0.7071 0.7071 218.3513 251.868)" width="10.409" height="2"/>
	<polygon points="-186.819,407.466 -185.405,408.88 -181.151,404.626 -181.151,414.212 -179.151,414.212 -179.151,404.626 
		-174.898,408.88 -173.484,407.466 -180.151,400.798 	"/>
	<path d="M-167.145,404.211c0-0.002,0-0.004,0-0.006c0-7.18-5.82-12.999-13-12.999s-13,5.819-13,12.999c0,0.002,0,0.004,0,0.006h-13
		v2h18v-2h-3c0-0.002,0-0.004,0-0.006c0-6.064,4.935-10.999,11-10.999s11,4.935,11,10.999c0,0.002,0,0.004,0,0.006h-3v2h17.995v-2
		H-167.145z"/>
</g>
<g>
	<rect x="-77.406" y="377.024" width="2" height="10"/>
	<rect x="-62.706" y="383.11" transform="matrix(0.7071 0.7071 -0.7071 0.7071 256.5067 157.368)" width="2" height="10.409"/>
	<rect x="-96.315" y="387.32" transform="matrix(0.7071 0.7071 -0.7071 0.7071 247.8978 178.1613)" width="10.409" height="2"/>
	<polygon points="-75.406,411.571 -75.406,401.024 -77.406,401.024 -77.406,411.571 -81.66,407.317 -83.074,408.731 
		-76.406,415.399 -69.739,408.731 -71.153,407.317 	"/>
	<path d="M-63.399,403.023c0-0.002,0-0.004,0-0.006c0-7.18-5.82-12.999-13-12.999s-13,5.819-13,12.999c0,0.002,0,0.004,0,0.006h-13
		v2h22v-2h-7c0-0.002,0-0.004,0-0.006c0-6.064,4.935-10.999,11-10.999s11,4.935,11,10.999c0,0.002,0,0.004,0,0.006h-7v2h21.995v-2
		H-63.399z"/>
</g>
<g>
	<polygon points="126.951,411.037 126.951,396.654 124.951,396.654 124.951,411.037 120.697,406.783 119.283,408.197 
		125.951,414.865 132.618,408.197 131.204,406.783 	"/>
	<path d="M142.579,391.684c-1.596-7.445-8.207-13.029-16.127-13.029c-6.423,0-11.977,3.678-14.702,9.035
		c-0.266-0.018-0.53-0.04-0.8-0.04c-6.627,0-11.999,5.372-11.999,12c0,6.607,5.34,11.965,11.938,11.998v0.003h6.062v-2h-5.604
		l-0.447-0.003c-5.485-0.027-9.948-4.513-9.948-9.998c0-5.514,4.485-10,9.999-10c0.175,0,0.347,0.014,0.52,0.025l0.148,0.01
		l1.316,0.088l0.598-1.176c2.492-4.899,7.443-7.942,12.92-7.942c6.79,0,12.75,4.814,14.172,11.448l0.317,1.482l1.514,0.095
		c4.203,0.262,7.496,3.763,7.496,7.971c0,4.397-3.565,7.977-7.957,8c-0.05-0.003-0.093-0.005-0.137-0.007l-2.043,0.007h-4.863v2
		h6.863v-0.007c0.046,0.001,0.091,0.007,0.137,0.007c5.521,0,10-4.477,10-10C151.951,396.34,147.807,392.009,142.579,391.684z"/>
</g>
<g>
	<polygon points="32.936,407.842 34.35,406.428 27.683,399.76 21.015,406.428 22.429,407.842 26.683,403.588 26.683,416.174 
		28.683,416.174 28.683,403.588 	"/>
	<path d="M44.311,393.279c-1.596-7.445-8.207-13.029-16.127-13.029c-6.423,0-11.977,3.678-14.702,9.035
		c-0.266-0.018-0.53-0.04-0.8-0.04c-6.627,0-11.999,5.372-11.999,12c0,6.607,5.34,11.965,11.938,11.998v0.003h10.062v-2h-9.604
		l-0.447-0.003c-5.485-0.027-9.948-4.513-9.948-9.998c0-5.514,4.485-10,9.999-10c0.175,0,0.347,0.014,0.52,0.025l0.148,0.01
		l1.316,0.088l0.598-1.176c2.492-4.899,7.443-7.942,12.92-7.942c6.79,0,12.75,4.814,14.172,11.448l0.317,1.482l1.514,0.095
		c4.203,0.262,7.496,3.763,7.496,7.971c0,4.397-3.565,7.977-7.957,8c-0.05-0.003-0.093-0.005-0.137-0.007l-2.043,0.007h-8.863v2
		h10.863v-0.007c0.046,0.001,0.091,0.007,0.137,0.007c5.521,0,10-4.477,10-10C53.683,397.936,49.538,393.604,44.311,393.279z"/>
</g>
<g>
	<path d="M246.8,203.764c-1.596-7.445-8.207-13.029-16.127-13.029c-6.423,0-11.977,3.678-14.702,9.035
		c-0.266-0.018-0.53-0.04-0.8-0.04c-6.627,0-11.999,5.372-11.999,12c0,6.607,5.34,11.965,11.938,11.998v0.003h2.062v-2h-1.604
		l-0.447-0.003c-5.485-0.027-9.948-4.513-9.948-9.998c0-5.514,4.485-10,9.999-10c0.175,0,0.347,0.014,0.52,0.025l0.148,0.01
		l1.316,0.088l0.598-1.176c2.492-4.899,7.443-7.942,12.92-7.942c6.79,0,12.75,4.814,14.172,11.448l0.317,1.482l1.514,0.095
		c4.203,0.262,7.496,3.763,7.496,7.971c0,4.397-3.565,7.977-7.957,8c-0.05-0.003-0.093-0.005-0.137-0.007l-2.043,0.007h-0.863v2
		h2.863v-0.007c0.046,0.001,0.091,0.007,0.137,0.007c5.521,0,10-4.477,10-10C256.172,208.42,252.027,204.089,246.8,203.764z"/>
	<polygon points="225.172,222.752 225.172,220.122 227.345,221.345 228.03,220.124 225.561,218.734 228.03,217.345 227.345,216.124 
		225.172,217.347 225.172,214.752 223.172,214.752 223.172,217.391 220.921,216.124 220.235,217.345 222.705,218.734 
		220.235,220.124 220.921,221.345 223.172,220.078 223.172,222.752 	"/>
	<polygon points="230.334,227.106 228.161,228.329 228.161,225.734 226.161,225.734 226.161,228.373 223.91,227.106 
		223.225,228.327 225.694,229.717 223.225,231.106 223.91,232.327 226.161,231.061 226.161,233.734 228.161,233.734 
		228.161,231.104 230.334,232.327 231.02,231.106 228.55,229.717 231.02,228.327 	"/>
	<polygon points="239.35,220.124 237.177,221.347 237.177,218.752 235.177,218.752 235.177,221.391 232.926,220.124 232.24,221.345 
		234.71,222.734 232.24,224.124 232.926,225.345 235.177,224.078 235.177,226.752 237.177,226.752 237.177,224.122 239.35,225.345 
		240.035,224.124 237.565,222.734 240.035,221.345 	"/>
</g>
<g>
	<rect x="322.312" y="185.712" width="2" height="7.973"/>
	<rect x="303.312" y="204.626" width="7.973" height="2"/>
	<rect x="307.985" y="193.359" transform="matrix(0.7071 0.7071 -0.7071 0.7071 228.8072 -163.6707)" width="7.974" height="2"/>
	<rect x="333.493" y="190.378" transform="matrix(0.7071 0.7071 -0.7071 0.7071 235.4064 -179.5947)" width="2" height="7.972"/>
	<path d="M352.823,211.502c-1.444-6.742-7.433-11.8-14.605-11.8c-2.185,0-4.258,0.471-6.127,1.314
		c-1.666-3.203-5.006-5.395-8.865-5.395c-5.522,0-10,4.477-10,9.999c0,2.46,0.899,4.702,2.373,6.442
		c-1.428,1.84-2.287,4.144-2.287,6.653c0,5.983,4.836,10.836,10.813,10.865v0.003h1.188v-2h-0.721l-0.457-0.003
		c-4.864-0.023-8.822-4.001-8.822-8.865c0-4.89,3.978-8.868,8.867-8.868c0.15,0,0.299,0.012,0.447,0.022l0.148,0.01l1.314,0.085
		l0.597-1.175c2.225-4.372,6.644-7.089,11.532-7.089c6.062,0,11.382,4.298,12.649,10.219l0.318,1.483l1.514,0.094
		c3.708,0.23,6.612,3.319,6.612,7.03c0,3.878-3.144,7.035-7.017,7.057c-0.042-0.003-0.079-0.005-0.117-0.005l-1.866,0.005v2h1.819
		v-0.006c0.042,0.001,0.082,0.006,0.124,0.006c5.001,0,9.057-4.054,9.057-9.057C361.312,215.719,357.558,211.797,352.823,211.502z
		 M324.903,207.885c-0.241-0.016-0.48-0.036-0.725-0.036c-2.766,0-5.282,1.041-7.2,2.742c-1.092-1.365-1.753-3.089-1.753-4.97
		c0-4.41,3.589-7.999,8-7.999c3.092,0,5.76,1.773,7.091,4.346C328.019,203.407,326.14,205.455,324.903,207.885z"/>
	<polygon points="332.304,228.604 332.304,225.975 334.477,227.197 335.162,225.977 332.692,224.587 335.162,223.197 
		334.477,221.977 332.304,223.199 332.304,220.604 330.304,220.604 330.304,223.243 328.053,221.977 327.367,223.197 
		329.837,224.587 327.367,225.977 328.053,227.197 330.304,225.931 330.304,228.604 	"/>
	<polygon points="337.466,232.959 335.293,234.182 335.293,231.587 333.293,231.587 333.293,234.226 331.042,232.959 
		330.356,234.18 332.826,235.569 330.356,236.959 331.042,238.18 333.293,236.913 333.293,239.587 335.293,239.587 335.293,236.957 
		337.466,238.18 338.151,236.959 335.682,235.569 338.151,234.18 	"/>
	<polygon points="346.481,225.977 344.309,227.199 344.309,224.604 342.309,224.604 342.309,227.243 340.058,225.977 
		339.372,227.197 341.842,228.587 339.372,229.977 340.058,231.197 342.309,229.931 342.309,232.604 344.309,232.604 
		344.309,229.975 346.481,231.197 347.167,229.977 344.697,228.587 347.167,227.197 	"/>
</g>
<g>
	<path d="M453.012,208.499c-1.444-6.742-7.433-11.8-14.605-11.8c-1.799,0-3.522,0.32-5.118,0.904
		c-0.949-5.108-5.404-8.98-10.788-8.98c-0.413,0-0.819,0.027-1.222,0.071c0.744,1.112,1.179,2.448,1.179,3.886c0,3.865-3.134,7-7,7
		c-1.438,0-2.773-0.435-3.886-1.179c-0.044,0.401-0.071,0.809-0.071,1.222c0,3.713,1.845,6.987,4.661,8.979
		c-1.653,1.907-2.661,4.389-2.661,7.111c0,5.983,4.836,10.836,10.813,10.865v0.003h1.188v-2h-0.721l-0.457-0.003
		c-4.864-0.023-8.822-4.001-8.822-8.865c0-4.89,3.978-8.868,8.867-8.868c0.15,0,0.299,0.012,0.447,0.022l0.148,0.01l1.314,0.085
		l0.597-1.175c2.225-4.372,6.644-7.089,11.532-7.089c6.062,0,11.382,4.298,12.649,10.219l0.318,1.483l1.514,0.094
		c3.708,0.23,6.612,3.319,6.612,7.03c0,3.878-3.144,7.035-7.017,7.057c-0.042-0.003-0.079-0.005-0.117-0.005l-1.866,0.005v2h1.819
		v-0.006c0.042,0.001,0.082,0.006,0.124,0.006c5.001,0,9.057-4.054,9.057-9.057C461.5,212.716,457.746,208.794,453.012,208.499z
		 M425.092,204.882c-0.241-0.016-0.48-0.036-0.725-0.036c-2.537,0-4.865,0.877-6.715,2.334c-2.012-1.294-3.486-3.354-3.976-5.776
		c0.582,0.117,1.178,0.177,1.78,0.177c4.963,0,9-4.037,9-9c0-0.603-0.06-1.198-0.177-1.78c3.733,0.753,6.629,3.824,7.134,7.64
		C428.701,199.884,426.486,202.139,425.092,204.882z"/>
	<polygon points="432.537,225.602 432.537,222.972 434.71,224.194 435.396,222.974 432.926,221.584 435.396,220.194 434.71,218.974 
		432.537,220.196 432.537,217.602 430.537,217.602 430.537,220.24 428.286,218.974 427.601,220.194 430.07,221.584 427.601,222.974 
		428.286,224.194 430.537,222.928 430.537,225.602 	"/>
	<polygon points="437.699,229.956 435.526,231.179 435.526,228.584 433.526,228.584 433.526,231.223 431.275,229.956 
		430.59,231.177 433.06,232.566 430.59,233.956 431.275,235.177 433.526,233.91 433.526,236.584 435.526,236.584 435.526,233.954 
		437.699,235.177 438.385,233.956 435.915,232.566 438.385,231.177 	"/>
	<polygon points="446.715,222.974 444.542,224.196 444.542,221.602 442.542,221.602 442.542,224.24 440.291,222.974 
		439.605,224.194 442.075,225.584 439.605,226.974 440.291,228.194 442.542,226.928 442.542,229.602 444.542,229.602 
		444.542,226.972 446.715,228.194 447.4,226.974 444.931,225.584 447.4,224.194 	"/>
</g>
<rect x="-163.347" y="-359.251" fill="none" width="472.974" height="180.918"/>
<text transform="matrix(1 0 0 1 16.2905 -287.8521)"><tspan x="0" y="0" font-family="'HelveticaNeueLTStd-Th'" font-size="100" letter-spacing="2">60</tspan><tspan x="-99.268" y="60" font-family="'HelveticaNeueLTStd-Lt'" font-size="48" letter-spacing="1">Weather Icons</tspan><tspan x="-3.726" y="104" font-family="'HelveticaNeueLTStd-Lt'" font-size="24">IOS 7 Style</tspan></text>
</svg>
