<?xml version="1.0" encoding="utf-8"?>
<!-- Generator: Adobe Illustrator 16.0.0, SVG Export Plug-In . SVG Version: 6.00 Build 0)  -->
<!DOCTYPE svg PUBLIC "-//W3C//DTD SVG 1.1//EN" "http://www.w3.org/Graphics/SVG/1.1/DTD/svg11.dtd">
<svg version="1.1" id="Layer_1" xmlns="http://www.w3.org/2000/svg" xmlns:xlink="http://www.w3.org/1999/xlink" x="0px" y="0px"
	 width="50px" height="52.988px" viewBox="0 0 50 52.988" enable-background="new 0 0 50 52.988" xml:space="preserve">
<path d="M132.455,382.956l-1.803,15.077l-0.268,2.237h2.254h6.896l-14.693,18.759l1.789-14.52l0.277-2.245h-2.262h-6.957
	L132.455,382.956 M135.31,375.932l-21.667,28.333h11.004l-2.671,21.667l21.667-27.661h-11.004L135.31,375.932L135.31,375.932z"/>
<path d="M-280.58-79.305c6.79,0,12.749,4.814,14.171,11.448l0.318,1.483l1.514,0.094c4.203,0.262,7.496,3.763,7.496,7.971
	c0,4.396-3.565,7.977-7.957,8c-0.046-0.003-0.091-0.006-0.137-0.007l-2.043-0.036v0.043h-28.337l-0.578-0.003
	c-5.485-0.027-9.948-4.513-9.948-9.998c0-5.514,4.485-10,9.999-10c0.175,0,0.347,0.014,0.519,0.025l0.149,0.011l1.316,0.087
	l0.598-1.176C-291.007-76.262-286.057-79.305-280.58-79.305 M-280.58-81.305c-6.423,0-11.977,3.678-14.702,9.035
	c-0.266-0.018-0.53-0.04-0.8-0.04c-6.627,0-11.999,5.372-11.999,12c0,6.607,5.34,11.965,11.938,11.998v0.003h30.925v-0.007
	c0.046,0.001,0.091,0.007,0.137,0.007c5.521,0,10-4.477,10-10c0-5.311-4.145-9.642-9.372-9.967
	C-266.049-75.721-272.66-81.305-280.58-81.305L-280.58-81.305z"/>
<g>
	<path d="M-157.629-60.894c-1.444-6.742-7.433-11.8-14.605-11.8c-2.185,0-4.258,0.47-6.127,1.313
		c-1.666-3.202-5.006-5.394-8.865-5.394c-5.522,0-10,4.477-10,9.999c0,2.46,0.898,4.702,2.373,6.442
		c-1.428,1.84-2.287,4.144-2.287,6.653c0,5.983,4.836,10.836,10.813,10.865v0.003h28.007v-0.006
		c0.042,0.001,0.082,0.006,0.124,0.006c5.001,0,9.057-4.054,9.057-9.057C-149.141-56.677-152.895-60.599-157.629-60.894z
		 M-187.227-74.773c3.092,0,5.76,1.773,7.092,4.345c-2.299,1.44-4.178,3.488-5.414,5.918c-0.241-0.016-0.48-0.036-0.725-0.036
		c-2.766,0-5.281,1.041-7.2,2.743c-1.092-1.366-1.753-3.09-1.753-4.971C-195.227-71.185-191.638-74.773-187.227-74.773z
		 M-158.157-44.811c-0.038-0.003-0.077-0.004-0.117-0.005l-2.047-0.042v0.047h-25.403l-0.594-0.003
		c-4.864-0.023-8.822-4.001-8.822-8.865c0-4.89,3.978-8.868,8.867-8.868c0.15,0,0.299,0.012,0.447,0.021l0.148,0.011l1.314,0.085
		l0.598-1.174c2.224-4.373,6.643-7.09,11.531-7.09c6.062,0,11.381,4.298,12.65,10.219l0.317,1.482l1.514,0.095
		c3.708,0.231,6.612,3.319,6.612,7.03C-151.141-47.989-154.284-44.833-158.157-44.811z"/>
	<rect x="-188.221" y="-86.804" width="2" height="7.973"/>
	<rect x="-207.193" y="-67.817" width="7.973" height="2"/>
	<rect x="-202.468" y="-79.036" transform="matrix(0.7071 0.7071 -0.7071 0.7071 -113.3135 117.4906)" width="7.974" height="2"/>
	<rect x="-176.959" y="-82.018" transform="matrix(0.7071 0.7071 -0.7071 0.7071 -106.7143 101.5667)" width="2" height="7.972"/>
</g>
<path d="M-61.886-64.921c-1.444-6.742-7.433-11.8-14.605-11.8c-1.799,0-3.521,0.32-5.118,0.904c-0.949-5.108-5.404-8.98-10.788-8.98
	c-0.413,0-0.819,0.027-1.222,0.071c0.744,1.112,1.179,2.448,1.179,3.886c0,3.865-3.134,7-7,7c-1.438,0-2.773-0.435-3.886-1.179
	c-0.044,0.401-0.071,0.809-0.071,1.222c0,3.712,1.845,6.987,4.661,8.979c-1.653,1.907-2.661,4.389-2.661,7.111
	c0,5.983,4.836,10.836,10.813,10.865v0.003h28.007v-0.006c0.042,0.001,0.082,0.006,0.124,0.006c5.001,0,9.057-4.054,9.057-9.057
	C-53.397-60.704-57.151-64.626-61.886-64.921z M-101.221-72.017c0.582,0.117,1.178,0.177,1.78,0.177c4.963,0,9-4.037,9-9
	c0-0.603-0.06-1.198-0.177-1.78c3.733,0.753,6.629,3.824,7.134,7.64c-2.713,1.444-4.928,3.699-6.322,6.442
	c-0.241-0.016-0.48-0.036-0.725-0.036c-2.537,0-4.865,0.876-6.715,2.334C-99.257-67.534-100.731-69.594-101.221-72.017z
	 M-62.414-48.838c-0.038-0.003-0.077-0.004-0.117-0.005l-2.047-0.042v0.047h-25.403l-0.594-0.003
	c-4.864-0.023-8.822-4.001-8.822-8.865c0-4.89,3.978-8.868,8.867-8.868c0.15,0,0.299,0.012,0.447,0.021l0.148,0.011l1.314,0.085
	l0.598-1.174c2.224-4.373,6.643-7.09,11.531-7.09c6.062,0,11.381,4.298,12.65,10.219l0.317,1.482l1.514,0.095
	c3.708,0.231,6.612,3.319,6.612,7.03C-55.397-52.017-58.541-48.86-62.414-48.838z"/>
<g>
	<rect x="22.76" y="-56.298" width="2" height="7"/>
	<rect x="30.76" y="-60.298" width="2" height="7"/>
	<rect x="14.76" y="-60.298" width="2" height="7"/>
	<rect x="22.76" y="-46.298" width="2" height="7"/>
	<rect x="30.76" y="-50.298" width="2" height="7"/>
	<rect x="14.76" y="-50.298" width="2" height="7"/>
	<path d="M41.388-73.286c-1.596-7.445-8.207-13.029-16.127-13.029c-6.423,0-11.977,3.678-14.702,9.035
		c-0.266-0.018-0.53-0.04-0.8-0.04c-6.627,0-11.999,5.372-11.999,12c0,6.607,5.34,11.965,11.938,11.998v0.003h2.062v-2h-1.604
		l-0.447-0.003C4.223-55.35-0.24-59.835-0.24-65.32c0-5.514,4.485-10,9.999-10c0.175,0,0.347,0.014,0.52,0.025l0.148,0.01
		l1.316,0.088l0.598-1.176c2.492-4.899,7.443-7.942,12.92-7.942c6.79,0,12.75,4.814,14.172,11.448l0.317,1.482l1.514,0.095
		c4.203,0.262,7.496,3.763,7.496,7.971c0,4.397-3.565,7.977-7.957,8c-0.05-0.003-0.093-0.005-0.137-0.007l-2.043,0.007H35.76v2
		h4.863v-0.007c0.046,0.001,0.091,0.007,0.137,0.007c5.521,0,10-4.477,10-10C50.76-68.63,46.615-72.961,41.388-73.286z"/>
</g>
<g>
	<path d="M-161.039,16.071c-1.596-7.445-8.207-13.029-16.127-13.029c-6.423,0-11.977,3.678-14.702,9.035
		c-0.266-0.018-0.53-0.04-0.8-0.04c-6.627,0-11.999,5.372-11.999,12c0,6.607,5.34,11.965,11.938,11.998v0.003h2.062v-2h-1.604
		l-0.447-0.003c-5.485-0.027-9.948-4.513-9.948-9.998c0-5.514,4.485-10,9.999-10c0.175,0,0.347,0.014,0.52,0.025l0.148,0.01
		l1.316,0.088l0.598-1.176c2.492-4.899,7.443-7.942,12.92-7.942c6.79,0,12.75,4.814,14.172,11.448l0.317,1.482l1.514,0.095
		c4.203,0.262,7.496,3.763,7.496,7.971c0,4.397-3.565,7.977-7.957,8c-0.05-0.003-0.093-0.005-0.137-0.007l-2.043,0.007h-2.863v2
		h4.863v-0.007c0.046,0.001,0.091,0.007,0.137,0.007c5.521,0,10-4.477,10-10C-151.667,20.728-155.812,16.396-161.039,16.071z"/>
	<polygon points="-179.667,43.066 -179.667,45.007 -179.667,51.066 -177.667,51.066 -177.667,45.007 -177.667,43.066 
		-177.667,31.066 -179.667,31.066 	"/>
	<polygon points="-171.667,39.066 -171.667,40.819 -171.667,47.066 -169.667,47.066 -169.667,40.819 -169.667,39.066 
		-169.667,27.066 -171.667,27.066 	"/>
	<polygon points="-187.667,39.066 -187.667,41.132 -187.667,47.066 -185.667,47.066 -185.667,41.132 -185.667,39.066 
		-185.667,27.066 -187.667,27.066 	"/>
</g>
<g>
	<polygon points="134.61,39.978 127.728,30.147 126.09,31.295 132.973,41.125 134.085,42.714 137.561,47.678 139.199,46.531 
		135.724,41.566 	"/>
	<polygon points="142.612,39.976 135.728,30.147 134.09,31.296 140.976,41.124 141.98,42.56 145.564,47.675 147.203,46.528 
		143.619,41.412 	"/>
	<polygon points="126.61,39.978 119.728,30.147 118.09,31.296 124.973,41.125 126.157,42.817 129.562,47.679 131.199,46.531 
		127.796,41.67 	"/>
	<path d="M145.718,16.338c-1.596-7.445-8.207-13.029-16.127-13.029c-6.423,0-11.977,3.678-14.702,9.035
		c-0.266-0.018-0.53-0.04-0.8-0.04c-6.627,0-11.999,5.372-11.999,12c0,6.607,5.34,11.965,11.938,11.998v0.003h2.062v-2h-1.604
		l-0.447-0.003c-5.485-0.027-9.948-4.513-9.948-9.998c0-5.514,4.485-10,9.999-10c0.175,0,0.347,0.014,0.52,0.025l0.148,0.01
		l1.316,0.088l0.598-1.176c2.492-4.899,7.443-7.942,12.92-7.942c6.79,0,12.75,4.814,14.172,11.448l0.317,1.482l1.514,0.095
		c4.203,0.262,7.496,3.763,7.496,7.971c0,4.397-3.565,7.977-7.957,8c-0.05-0.003-0.093-0.005-0.137-0.007l-1.043,0.007h0.137v2
		h0.863v-0.007c0.046,0.001,0.091,0.007,0.137,0.007c5.521,0,10-4.477,10-10C155.09,20.994,150.945,16.663,145.718,16.338z"/>
</g>
<g>
	<rect x="117.416" y="-92.744" width="2" height="7.973"/>
	<rect x="98.416" y="-73.83" width="7.973" height="2"/>
	<rect x="103.089" y="-85.097" transform="matrix(0.7071 0.7071 -0.7071 0.7071 -28.1035 -100.3456)" width="7.974" height="2"/>
	<rect x="128.598" y="-88.079" transform="matrix(0.7071 0.7071 -0.7071 0.7071 -21.5043 -116.2696)" width="2" height="7.972"/>
	<rect x="131.416" y="-51.871" width="2" height="7"/>
	<rect x="139.416" y="-55.871" width="2" height="7"/>
	<rect x="123.416" y="-55.871" width="2" height="7"/>
	<rect x="131.416" y="-41.871" width="2" height="7"/>
	<rect x="139.416" y="-45.871" width="2" height="7"/>
	<rect x="123.416" y="-45.871" width="2" height="7"/>
	<path d="M147.928-66.954c-1.444-6.742-7.433-11.8-14.605-11.8c-2.185,0-4.258,0.47-6.126,1.313
		c-1.667-3.202-5.007-5.394-8.866-5.394c-5.522,0-10,4.477-10,9.999c0,2.46,0.899,4.702,2.373,6.442
		c-1.429,1.84-2.287,4.144-2.287,6.653c0,5.983,4.836,10.836,10.813,10.865v0.003h1.188v-2h-0.721l-0.457-0.003
		c-4.864-0.023-8.822-4.001-8.822-8.865c0-4.89,3.978-8.868,8.867-8.868c0.15,0,0.299,0.012,0.447,0.022l0.148,0.01l1.314,0.085
		l0.597-1.175c2.225-4.372,6.644-7.089,11.532-7.089c6.062,0,11.382,4.298,12.649,10.219l0.318,1.483l1.514,0.094
		c3.708,0.23,6.612,3.319,6.612,7.03c0,3.878-3.144,7.035-7.017,7.057c-0.042-0.003-0.079-0.005-0.117-0.005l-2.047,0.005h-0.819v2
		h2.819v-0.006c0.042,0.001,0.082,0.006,0.124,0.006c5.001,0,9.057-4.054,9.057-9.057C156.416-62.737,152.662-66.659,147.928-66.954
		z M120.008-70.571c-0.241-0.016-0.48-0.036-0.725-0.036c-2.766,0-5.282,1.041-7.2,2.743c-1.092-1.366-1.753-3.09-1.753-4.971
		c0-4.41,3.589-7.999,8-7.999c3.091,0,5.76,1.773,7.091,4.345C123.123-75.049,121.243-73.001,120.008-70.571z"/>
</g>
<g>
	<rect x="231.833" y="-53.318" width="2" height="7"/>
	<rect x="239.833" y="-57.318" width="2" height="7"/>
	<rect x="223.833" y="-57.318" width="2" height="7"/>
	<rect x="231.833" y="-43.318" width="2" height="7"/>
	<rect x="239.833" y="-47.318" width="2" height="7"/>
	<rect x="223.833" y="-47.318" width="2" height="7"/>
	<path d="M248.345-68.401c-1.444-6.742-7.433-11.8-14.605-11.8c-1.799,0-3.522,0.32-5.118,0.904
		c-0.949-5.108-5.404-8.98-10.788-8.98c-0.413,0-0.819,0.027-1.222,0.071c0.744,1.112,1.179,2.448,1.179,3.886c0,3.865-3.134,7-7,7
		c-1.438,0-2.773-0.435-3.886-1.179c-0.044,0.401-0.071,0.809-0.071,1.222c0,3.712,1.845,6.987,4.661,8.979
		c-1.653,1.907-2.661,4.389-2.661,7.111c0,5.983,4.836,10.836,10.813,10.865v0.003h1.188v-2h-0.721l-0.457-0.003
		c-4.864-0.023-8.822-4.001-8.822-8.865c0-4.89,3.978-8.868,8.867-8.868c0.15,0,0.299,0.012,0.447,0.022l0.148,0.01l1.314,0.085
		l0.597-1.175c2.225-4.372,6.644-7.089,11.532-7.089c6.062,0,11.382,4.298,12.649,10.219l0.318,1.483l1.514,0.094
		c3.708,0.23,6.612,3.319,6.612,7.03c0,3.878-3.144,7.035-7.017,7.057c-0.042-0.003-0.079-0.005-0.117-0.005l-2.047,0.005h-0.819v2
		h2.819v-0.006c0.042,0.001,0.082,0.006,0.124,0.006c5.001,0,9.057-4.054,9.057-9.057C256.833-64.185,253.079-68.106,248.345-68.401
		z M220.425-72.019c-0.241-0.016-0.48-0.036-0.725-0.036c-2.537,0-4.865,0.876-6.715,2.334c-2.012-1.294-3.487-3.354-3.976-5.776
		c0.582,0.117,1.178,0.177,1.78,0.177c4.963,0,9-4.037,9-9c0-0.603-0.06-1.198-0.177-1.78c3.733,0.753,6.629,3.824,7.133,7.64
		C224.035-77.017,221.82-74.762,220.425-72.019z"/>
</g>
<g>
	<polygon points="-75.397,47.505 -75.397,49.445 -75.397,55.505 -73.397,55.505 -73.397,49.445 -73.397,47.505 -73.397,35.505 
		-75.397,35.505 	"/>
	<polygon points="-67.397,43.505 -67.397,45.258 -67.397,51.505 -65.397,51.505 -65.397,45.258 -65.397,43.505 -65.397,31.505 
		-67.397,31.505 	"/>
	<polygon points="-83.397,43.505 -83.397,45.57 -83.397,51.505 -81.397,51.505 -81.397,45.57 -81.397,43.505 -81.397,31.505 
		-83.397,31.505 	"/>
	<rect x="-89.397" y="-3.397" width="2" height="7.973"/>
	<rect x="-108.397" y="15.517" width="7.973" height="2"/>
	<rect x="-103.724" y="4.25" transform="matrix(0.7071 0.7071 -0.7071 0.7071 -25.5001 72.0626)" width="7.974" height="2"/>
	<rect x="-78.216" y="1.268" transform="matrix(0.7071 0.7071 -0.7071 0.7071 -18.9009 56.1387)" width="2" height="7.972"/>
	<path d="M-58.886,22.393c-1.444-6.742-7.433-11.8-14.605-11.8c-2.185,0-4.258,0.47-6.127,1.313
		c-1.666-3.202-5.006-5.394-8.865-5.394c-5.522,0-10,4.477-10,9.999c0,2.46,0.898,4.702,2.373,6.442
		c-1.428,1.84-2.287,4.144-2.287,6.653c0,5.983,4.836,10.836,10.813,10.865v0.003h1.188v-2h-0.721l-0.457-0.003
		c-4.864-0.023-8.822-4.001-8.822-8.865c0-4.89,3.978-8.868,8.867-8.868c0.15,0,0.299,0.012,0.447,0.022l0.148,0.01l1.314,0.085
		l0.597-1.175c2.225-4.372,6.644-7.089,11.532-7.089c6.062,0,11.382,4.298,12.649,10.219l0.318,1.483l1.514,0.094
		c3.708,0.23,6.612,3.319,6.612,7.03c0,3.878-3.144,7.035-7.017,7.057c-0.042-0.003-0.079-0.005-0.117-0.005l-2.047,0.005h-0.819v2
		h2.819V40.47c0.042,0.001,0.082,0.006,0.124,0.006c5.001,0,9.057-4.054,9.057-9.057C-50.397,26.609-54.151,22.688-58.886,22.393z
		 M-86.806,18.775c-0.241-0.016-0.48-0.036-0.725-0.036c-2.766,0-5.281,1.042-7.2,2.743c-1.092-1.367-1.753-3.09-1.753-4.971
		c0-4.41,3.589-7.999,8-7.999c3.092,0,5.76,1.773,7.092,4.345C-83.69,14.297-85.569,16.346-86.806,18.775z"/>
</g>
<g>
	<polygon points="25,44.988 25,46.929 25,52.988 27,52.988 27,46.929 27,44.988 27,32.988 25,32.988 	"/>
	<polygon points="33,40.988 33,42.741 33,48.988 35,48.988 35,42.741 35,40.988 35,28.988 33,28.988 	"/>
	<polygon points="17,40.988 17,43.054 17,48.988 19,48.988 19,43.054 19,40.988 19,28.988 17,28.988 	"/>
	<path d="M41.512,19.876c-1.444-6.742-7.433-11.8-14.605-11.8c-1.799,0-3.521,0.32-5.118,0.904C20.839,3.872,16.384,0,11,0
		c-0.413,0-0.819,0.027-1.222,0.071c0.744,1.112,1.179,2.448,1.179,3.886c0,3.865-3.134,7-7,7c-1.438,0-2.773-0.435-3.886-1.179
		C0.027,10.18,0,10.587,0,11c0,3.712,1.845,6.987,4.661,8.979C3.008,21.887,2,24.368,2,27.091c0,5.983,4.836,10.836,10.813,10.865
		v0.003H14v-2h-0.721l-0.457-0.003C7.958,35.933,4,31.955,4,27.091c0-4.89,3.978-8.868,8.867-8.868c0.15,0,0.299,0.012,0.447,0.022
		l0.148,0.01l1.314,0.085l0.597-1.175c2.225-4.372,6.644-7.089,11.532-7.089c6.062,0,11.382,4.298,12.649,10.219l0.318,1.483
		l1.514,0.094c3.708,0.23,6.612,3.319,6.612,7.03c0,3.878-3.144,7.035-7.017,7.057c-0.042-0.003-0.079-0.005-0.117-0.005
		l-2.047,0.005H38v2h2.819v-0.006c0.042,0.001,0.082,0.006,0.124,0.006c5.001,0,9.057-4.054,9.057-9.057
		C50,24.093,46.246,20.171,41.512,19.876z M13.592,16.259c-0.241-0.016-0.48-0.036-0.725-0.036c-2.537,0-4.865,0.876-6.715,2.334
		c-2.012-1.294-3.486-3.354-3.976-5.776c0.582,0.117,1.178,0.177,1.78,0.177c4.963,0,9-4.037,9-9c0-0.603-0.06-1.198-0.177-1.78
		c3.733,0.753,6.629,3.824,7.134,7.641C17.201,11.261,14.986,13.517,13.592,16.259z"/>
</g>
<g>
	<polygon points="242.035,45.933 235.152,36.103 233.515,37.25 240.397,47.08 241.51,48.669 244.985,53.633 246.624,52.486 
		243.148,47.521 	"/>
	<polygon points="250.037,45.931 243.152,36.103 241.515,37.251 248.4,47.079 249.405,48.515 252.989,53.63 254.628,52.483 
		251.044,47.367 	"/>
	<polygon points="234.035,45.933 227.152,36.103 225.515,37.251 232.397,47.08 233.582,48.772 236.986,53.634 238.624,52.486 
		235.221,47.625 	"/>
	<rect x="221.515" y="-1.616" width="2" height="7.973"/>
	<rect x="202.515" y="17.298" width="7.973" height="2"/>
	<rect x="207.188" y="6.031" transform="matrix(0.7071 0.7071 -0.7071 0.7071 66.8235 -147.2637)" width="7.974" height="2"/>
	<rect x="232.696" y="3.049" transform="matrix(0.7071 0.7071 -0.7071 0.7071 73.4227 -163.1877)" width="2" height="7.972"/>
	<path d="M252.026,24.174c-1.444-6.742-7.433-11.8-14.605-11.8c-2.185,0-4.258,0.47-6.126,1.313
		c-1.667-3.202-5.007-5.394-8.866-5.394c-5.522,0-10,4.477-10,9.999c0,2.46,0.899,4.702,2.373,6.442
		c-1.429,1.84-2.287,4.144-2.287,6.653c0,5.983,4.836,10.836,10.813,10.865v0.003h1.188v-2h-0.721l-0.457-0.003
		c-4.864-0.023-8.822-4.001-8.822-8.865c0-4.89,3.978-8.868,8.867-8.868c0.15,0,0.299,0.012,0.447,0.022l0.148,0.01l1.314,0.085
		l0.597-1.175c2.225-4.372,6.644-7.089,11.532-7.089c6.062,0,11.382,4.298,12.649,10.219l0.318,1.483l1.514,0.094
		c3.708,0.23,6.612,3.319,6.612,7.03c0,3.878-3.144,7.035-7.017,7.057c-0.042-0.003-0.079-0.005-0.117-0.005l-0.047,0.005h-0.819v2
		h0.819v-0.006c0.042,0.001,0.082,0.006,0.124,0.006c5.001,0,9.057-4.054,9.057-9.057C260.515,28.391,256.761,24.469,252.026,24.174
		z M224.106,20.557c-0.241-0.016-0.48-0.036-0.725-0.036c-2.766,0-5.282,1.042-7.2,2.743c-1.092-1.367-1.753-3.09-1.753-4.971
		c0-4.41,3.589-7.999,8-7.999c3.091,0,5.76,1.773,7.091,4.345C227.222,16.078,225.342,18.127,224.106,20.557z"/>
</g>
<g>
	<polygon points="-481.396,142.418 -488.278,132.588 -489.916,133.735 -483.033,143.565 -481.921,145.154 -478.445,150.118 
		-476.807,148.972 -480.282,144.007 	"/>
	<polygon points="-473.394,142.416 -480.278,132.588 -481.916,133.736 -475.03,143.564 -474.025,145 -470.441,150.115 
		-468.803,148.969 -472.387,143.853 	"/>
	<polygon points="-489.396,142.418 -496.278,132.588 -497.916,133.736 -491.033,143.565 -489.849,145.258 -486.444,150.119 
		-484.807,148.972 -488.21,144.11 	"/>
	<path d="M-471.404,120.659c-1.444-6.742-7.433-11.8-14.605-11.8c-1.799,0-3.522,0.32-5.118,0.904
		c-0.949-5.108-5.404-8.98-10.788-8.98c-0.413,0-0.819,0.027-1.222,0.071c0.744,1.112,1.179,2.448,1.179,3.886c0,3.865-3.134,7-7,7
		c-1.438,0-2.773-0.435-3.886-1.179c-0.044,0.401-0.071,0.809-0.071,1.222c0,3.712,1.845,6.987,4.661,8.979
		c-1.653,1.907-2.661,4.389-2.661,7.111c0,5.983,4.836,10.836,10.813,10.865v0.003h1.188v-2h-0.721l-0.457-0.003
		c-4.864-0.023-8.822-4.001-8.822-8.865c0-4.89,3.978-8.868,8.867-8.868c0.15,0,0.299,0.012,0.447,0.022l0.148,0.01l1.314,0.085
		l0.597-1.175c2.225-4.372,6.644-7.089,11.532-7.089c6.062,0,11.382,4.298,12.649,10.219l0.318,1.483l1.514,0.094
		c3.708,0.23,6.612,3.319,6.612,7.03c0,3.878-3.144,7.035-7.017,7.057c-0.042-0.003-0.079-0.005-0.117-0.005l-0.047,0.005h-0.819v2
		h0.819v-0.006c0.042,0.001,0.082,0.006,0.124,0.006c5.001,0,9.057-4.054,9.057-9.057
		C-462.916,124.876-466.67,120.954-471.404,120.659z M-499.324,117.042c-0.241-0.016-0.48-0.036-0.725-0.036
		c-2.537,0-4.865,0.876-6.715,2.334c-2.012-1.294-3.487-3.354-3.976-5.776c0.582,0.117,1.178,0.177,1.78,0.177c4.963,0,9-4.037,9-9
		c0-0.603-0.06-1.198-0.177-1.78c3.733,0.753,6.629,3.824,7.133,7.641C-495.714,112.044-497.929,114.3-499.324,117.042z"/>
</g>
<g>
	<rect x="-488.916" y="38.571" width="2" height="4"/>
	<rect x="-480.916" y="34.55" width="2" height="4.021"/>
	<rect x="-496.916" y="34.55" width="2" height="4.021"/>
	<path d="M-470.288,18.583c-1.596-7.445-8.207-13.029-16.127-13.029c-6.423,0-11.977,3.678-14.702,9.035
		c-0.266-0.018-0.53-0.04-0.8-0.04c-6.627,0-11.999,5.372-11.999,12c0,6.607,5.34,11.965,11.938,11.998v0.003h2.062v-2h-1.604
		l-0.447-0.003c-5.485-0.027-9.948-4.513-9.948-9.998c0-5.514,4.485-10,9.999-10c0.175,0,0.347,0.014,0.52,0.025l0.148,0.01
		l1.316,0.088l0.598-1.176c2.492-4.899,7.443-7.942,12.92-7.942c6.79,0,12.75,4.814,14.172,11.448l0.317,1.482l1.514,0.095
		c4.203,0.262,7.496,3.763,7.496,7.971c0,4.397-3.565,7.977-7.957,8c-0.05-0.003-0.093-0.005-0.137-0.007l-2.043,0.007h-2.863v2
		h4.863v-0.007c0.046,0.001,0.091,0.007,0.137,0.007c5.521,0,10-4.477,10-10C-460.916,23.239-465.061,18.908-470.288,18.583z"/>
	<circle cx="-479.916" cy="43.592" r="1.5"/>
	<circle cx="-487.916" cy="47.561" r="1.5"/>
	<circle cx="-495.916" cy="43.55" r="1.5"/>
</g>
<g>
	<rect x="-395.995" y="-0.883" width="2" height="7.973"/>
	<rect x="-414.995" y="18.031" width="7.973" height="2"/>
	<rect x="-410.322" y="6.765" transform="matrix(0.7071 0.7071 -0.7071 0.7071 -113.5223 289.5964)" width="7.974" height="2"/>
	<rect x="-384.813" y="3.783" transform="matrix(0.7071 0.7071 -0.7071 0.7071 -106.9232 273.6725)" width="2" height="7.972"/>
	<path d="M-365.483,24.907c-1.444-6.742-7.433-11.8-14.605-11.8c-2.185,0-4.258,0.47-6.126,1.313
		c-1.667-3.202-5.007-5.394-8.866-5.394c-5.522,0-10,4.477-10,9.999c0,2.46,0.899,4.702,2.373,6.442
		c-1.429,1.84-2.287,4.144-2.287,6.653c0,5.983,4.836,10.836,10.813,10.865v0.003h1.188v-2h-0.721l-0.457-0.003
		c-4.864-0.023-8.822-4.001-8.822-8.865c0-4.89,3.978-8.868,8.867-8.868c0.15,0,0.299,0.012,0.447,0.022l0.148,0.01l1.314,0.085
		l0.597-1.175c2.225-4.372,6.644-7.089,11.532-7.089c6.062,0,11.382,4.298,12.649,10.219l0.318,1.483l1.514,0.094
		c3.708,0.23,6.612,3.319,6.612,7.03c0,3.878-3.144,7.035-7.017,7.057c-0.042-0.003-0.079-0.005-0.117-0.005l-2.047,0.005h-0.819v2
		h2.819v-0.006c0.042,0.001,0.082,0.006,0.124,0.006c5.001,0,9.057-4.054,9.057-9.057
		C-356.995,29.124-360.749,25.202-365.483,24.907z M-393.403,21.29c-0.241-0.016-0.48-0.036-0.725-0.036
		c-2.766,0-5.282,1.042-7.2,2.743c-1.092-1.367-1.753-3.09-1.753-4.971c0-4.41,3.589-7.999,8-7.999c3.091,0,5.76,1.773,7.091,4.345
		C-390.288,16.812-392.168,18.86-393.403,21.29z"/>
	<rect x="-381.995" y="43.006" width="2" height="4"/>
	<rect x="-373.995" y="38.984" width="2" height="4.021"/>
	<rect x="-389.995" y="38.984" width="2" height="4.021"/>
	<circle cx="-372.995" cy="48.026" r="1.5"/>
	<circle cx="-380.995" cy="51.995" r="1.5"/>
	<circle cx="-388.995" cy="47.984" r="1.5"/>
</g>
<g>
	<path d="M-264.558,23.95c-1.444-6.742-7.433-11.8-14.605-11.8c-1.799,0-3.522,0.32-5.118,0.904
		c-0.949-5.108-5.404-8.98-10.788-8.98c-0.413,0-0.819,0.027-1.222,0.071c0.744,1.112,1.179,2.448,1.179,3.886c0,3.865-3.134,7-7,7
		c-1.438,0-2.773-0.435-3.886-1.179c-0.044,0.401-0.071,0.809-0.071,1.222c0,3.712,1.845,6.987,4.661,8.979
		c-1.653,1.907-2.661,4.389-2.661,7.111c0,5.983,4.836,10.836,10.813,10.865v0.003h1.188v-2h-0.721l-0.457-0.003
		c-4.864-0.023-8.822-4.001-8.822-8.865c0-4.89,3.978-8.868,8.867-8.868c0.15,0,0.299,0.012,0.447,0.022l0.148,0.01l1.314,0.085
		l0.597-1.175c2.225-4.372,6.644-7.089,11.532-7.089c6.062,0,11.382,4.298,12.649,10.219l0.318,1.483l1.514,0.094
		c3.708,0.23,6.612,3.319,6.612,7.03c0,3.878-3.144,7.035-7.017,7.057c-0.042-0.003-0.079-0.005-0.117-0.005l-2.047,0.005h-0.819v2
		h2.819v-0.006c0.042,0.001,0.082,0.006,0.124,0.006c5.001,0,9.057-4.054,9.057-9.057C-256.069,28.167-259.823,24.245-264.558,23.95
		z M-292.478,20.333c-0.241-0.016-0.48-0.036-0.725-0.036c-2.537,0-4.865,0.876-6.715,2.334c-2.012-1.294-3.487-3.354-3.976-5.776
		c0.582,0.117,1.178,0.177,1.78,0.177c4.963,0,9-4.037,9-9c0-0.603-0.06-1.198-0.177-1.78c3.733,0.753,6.629,3.824,7.133,7.641
		C-288.867,15.335-291.082,17.591-292.478,20.333z"/>
	<rect x="-281.069" y="42.049" width="2" height="4"/>
	<rect x="-273.069" y="38.027" width="2" height="4.021"/>
	<rect x="-289.069" y="38.027" width="2" height="4.021"/>
	<circle cx="-272.069" cy="47.069" r="1.5"/>
	<circle cx="-280.069" cy="51.038" r="1.5"/>
	<circle cx="-288.069" cy="47.027" r="1.5"/>
</g>
<g>
	<path d="M-367.867,116.98c-1.596-7.445-8.207-13.029-16.127-13.029c-6.423,0-11.977,3.678-14.702,9.035
		c-0.266-0.018-0.53-0.04-0.8-0.04c-6.627,0-11.999,5.372-11.999,12c0,6.607,5.34,11.965,11.938,11.998v0.003h6.062v-2h-5.604
		l-0.447-0.003c-5.485-0.027-9.948-4.513-9.948-9.998c0-5.514,4.485-10,9.999-10c0.175,0,0.347,0.014,0.52,0.025l0.148,0.01
		l1.316,0.088l0.598-1.176c2.492-4.899,7.443-7.942,12.92-7.942c6.79,0,12.75,4.814,14.172,11.448l0.317,1.482l1.514,0.095
		c4.203,0.262,7.496,3.763,7.496,7.971c0,4.397-3.565,7.977-7.957,8c-0.05-0.003-0.093-0.005-0.137-0.007l-5.043,0.007h0.137v2
		h4.863v-0.007c0.046,0.001,0.091,0.007,0.137,0.007c5.521,0,10-4.477,10-10C-358.495,121.637-362.64,117.306-367.867,116.98z"/>
	<polygon points="-383.653,136.951 -381.884,136.951 -381.453,136.951 -379.443,136.951 -385.857,127.79 -387.495,128.938 
		-383.284,134.951 -385.055,134.951 -387.495,134.951 -386.224,136.768 -385.111,138.356 -379.134,146.951 -377.495,145.805 
		-383.473,137.209 	"/>
</g>
<g>
	<rect x="-292.069" y="97.851" width="2" height="7.973"/>
	<rect x="-311.069" y="116.765" width="7.973" height="2"/>
	<rect x="-306.396" y="105.498" transform="matrix(0.7071 0.7071 -0.7071 0.7071 -13.2681 245.0281)" width="7.974" height="2"/>
	<rect x="-280.888" y="102.516" transform="matrix(0.7071 0.7071 -0.7071 0.7071 -6.669 229.1042)" width="2" height="7.972"/>
	<path d="M-261.558,123.641c-1.444-6.742-7.433-11.8-14.605-11.8c-2.185,0-4.258,0.47-6.127,1.313
		c-1.666-3.202-5.006-5.394-8.865-5.394c-5.522,0-10,4.477-10,9.999c0,2.46,0.898,4.702,2.373,6.442
		c-1.428,1.84-2.287,4.144-2.287,6.653c0,5.983,4.836,10.836,10.813,10.865v0.003h4.188v-2h-3.721l-0.457-0.003
		c-4.864-0.023-8.822-4.001-8.822-8.865c0-4.89,3.978-8.868,8.867-8.868c0.15,0,0.299,0.012,0.447,0.022l0.148,0.01l1.314,0.085
		l0.597-1.175c2.225-4.372,6.644-7.089,11.532-7.089c6.062,0,11.382,4.298,12.649,10.219l0.318,1.483l1.514,0.094
		c3.708,0.23,6.612,3.319,6.612,7.03c0,3.878-3.144,7.035-7.017,7.057c-0.042-0.003-0.079-0.005-0.117-0.005l-2.047,0.005h-3.819v2
		h5.819v-0.006c0.042,0.001,0.082,0.006,0.124,0.006c5.001,0,9.057-4.054,9.057-9.057
		C-253.069,127.857-256.823,123.936-261.558,123.641z M-289.478,120.023c-0.241-0.016-0.48-0.036-0.725-0.036
		c-2.766,0-5.281,1.041-7.2,2.743c-1.092-1.366-1.753-3.09-1.753-4.971c0-4.41,3.589-7.999,8-7.999c3.092,0,5.76,1.773,7.092,4.345
		C-286.362,115.546-288.241,117.594-289.478,120.023z"/>
	<polygon points="-277.228,141.73 -275.458,141.73 -275.027,141.73 -273.018,141.73 -279.432,132.569 -281.069,133.717 
		-276.858,139.73 -278.629,139.73 -281.069,139.73 -279.798,141.547 -278.686,143.136 -272.708,151.73 -271.069,150.584 
		-277.047,141.988 	"/>
</g>
<g>
	<path d="M-161.973,121.345c-1.444-6.742-7.433-11.8-14.605-11.8c-1.799,0-3.521,0.32-5.118,0.904
		c-0.949-5.108-5.404-8.98-10.788-8.98c-0.413,0-0.819,0.027-1.222,0.071c0.744,1.112,1.179,2.448,1.179,3.886c0,3.865-3.134,7-7,7
		c-1.438,0-2.773-0.435-3.886-1.179c-0.044,0.401-0.071,0.809-0.071,1.222c0,3.712,1.845,6.987,4.661,8.979
		c-1.653,1.907-2.661,4.389-2.661,7.111c0,5.983,4.836,10.836,10.813,10.865v0.003h4.188v-2h-3.721l-0.457-0.003
		c-4.864-0.023-8.822-4.001-8.822-8.865c0-4.89,3.978-8.868,8.867-8.868c0.15,0,0.299,0.012,0.447,0.022l0.148,0.01l1.314,0.085
		l0.597-1.175c2.225-4.372,6.644-7.089,11.532-7.089c6.062,0,11.382,4.298,12.649,10.219l0.318,1.483l1.514,0.094
		c3.708,0.23,6.612,3.319,6.612,7.03c0,3.878-3.144,7.035-7.017,7.057c-0.042-0.003-0.079-0.005-0.117-0.005l-2.047,0.005h-3.819v2
		h5.819v-0.006c0.042,0.001,0.082,0.006,0.124,0.006c5.001,0,9.057-4.054,9.057-9.057
		C-153.484,125.562-157.238,121.64-161.973,121.345z M-189.893,117.728c-0.241-0.016-0.48-0.036-0.725-0.036
		c-2.537,0-4.865,0.876-6.715,2.334c-2.012-1.294-3.486-3.354-3.976-5.776c0.582,0.117,1.178,0.177,1.78,0.177c4.963,0,9-4.037,9-9
		c0-0.603-0.06-1.198-0.177-1.78c3.733,0.753,6.629,3.824,7.134,7.64C-186.283,112.729-188.498,114.984-189.893,117.728z"/>
	<polygon points="-177.643,139.435 -175.873,139.435 -175.442,139.435 -173.433,139.435 -179.847,130.273 -181.484,131.421 
		-177.273,137.435 -179.044,137.435 -181.484,137.435 -180.213,139.251 -179.101,140.84 -173.123,149.435 -171.484,148.288 
		-177.462,139.692 	"/>
</g>
<g>
	<path d="M-61.088,117.48c-1.596-7.445-8.207-13.029-16.127-13.029c-6.423,0-11.977,3.678-14.702,9.035
		c-0.266-0.018-0.53-0.04-0.8-0.04c-6.627,0-11.999,5.372-11.999,12c0,6.607,5.34,11.965,11.938,11.998v0.003h1.062v-2h-0.604
		l-0.447-0.003c-5.485-0.027-9.948-4.513-9.948-9.998c0-5.514,4.485-10,9.999-10c0.175,0,0.347,0.014,0.52,0.025l0.148,0.01
		l1.316,0.088l0.598-1.176c2.492-4.899,7.443-7.942,12.92-7.942c6.79,0,12.75,4.814,14.172,11.448l0.317,1.482l1.514,0.095
		c4.203,0.262,7.496,3.763,7.496,7.971c0,4.397-3.565,7.977-7.957,8c-0.05-0.003-0.093-0.005-0.137-0.007l-0.906,0.007v2h0.863
		v-0.007c0.046,0.001,0.091,0.007,0.137,0.007c5.521,0,10-4.477,10-10C-51.716,122.137-55.86,117.806-61.088,117.48z"/>
	
		<rect x="-92.281" y="135.445" transform="matrix(-0.5736 -0.8191 0.8191 -0.5736 -248.1818 143.7063)" width="11.183" height="1.999"/>
	
		<rect x="-74.307" y="135.445" transform="matrix(-0.5736 -0.8191 0.8191 -0.5736 -219.8962 158.4295)" width="11.183" height="1.999"/>
	<polygon points="-75.874,140.451 -74.104,140.451 -73.674,140.451 -71.664,140.451 -78.078,131.29 -79.716,132.438 
		-75.505,138.451 -77.275,138.451 -79.716,138.451 -78.444,140.268 -77.332,141.856 -72.716,148.451 -71.077,147.305 
		-75.693,140.709 	"/>
</g>
<g>
	<rect x="13.76" y="98.014" width="2" height="7.973"/>
	<rect x="-5.24" y="116.928" width="7.973" height="2"/>
	<rect x="-0.567" y="105.661" transform="matrix(0.7071 0.7071 -0.7071 0.7071 76.4225 28.8221)" width="7.974" height="2"/>
	<rect x="24.942" y="102.679" transform="matrix(0.7071 0.7071 -0.7071 0.7071 83.0216 12.8981)" width="2" height="7.972"/>
	<path d="M44.271,123.804c-1.444-6.742-7.433-11.8-14.605-11.8c-2.185,0-4.258,0.47-6.126,1.313
		c-1.667-3.202-5.007-5.394-8.866-5.394c-5.522,0-10,4.477-10,9.999c0,2.46,0.899,4.702,2.373,6.442
		c-1.429,1.84-2.287,4.144-2.287,6.653c0,5.983,4.836,10.836,10.813,10.865v0.003h0.188v-2l-0.178-0.003
		c-4.864-0.023-8.822-4.001-8.822-8.865c0-4.89,3.978-8.868,8.867-8.868c0.15,0,0.299,0.012,0.447,0.022l0.148,0.01l1.314,0.085
		l0.597-1.175c2.225-4.372,6.644-7.089,11.532-7.089c6.062,0,11.382,4.298,12.649,10.219l0.318,1.483l1.514,0.094
		c3.708,0.23,6.612,3.319,6.612,7.03c0,3.878-3.144,7.035-7.017,7.057c-0.042-0.003-0.079-0.005-0.117-0.005l-0.866,0.005v2h0.819
		v-0.006c0.042,0.001,0.082,0.006,0.124,0.006c5.001,0,9.057-4.054,9.057-9.057C52.76,128.021,49.006,124.099,44.271,123.804z
		 M16.352,120.187c-0.241-0.016-0.48-0.036-0.725-0.036c-2.766,0-5.282,1.042-7.2,2.743c-1.092-1.367-1.753-3.09-1.753-4.971
		c0-4.41,3.589-7.999,8-7.999c3.091,0,5.76,1.773,7.091,4.345C19.467,115.708,17.587,117.757,16.352,120.187z"/>
	
		<rect x="14.181" y="139.884" transform="matrix(-0.5736 -0.8191 0.8191 -0.5736 -84.2833 237.8955)" width="11.183" height="1.999"/>
	
		<rect x="32.156" y="139.884" transform="matrix(-0.5736 -0.8191 0.8191 -0.5736 -55.9977 252.6187)" width="11.183" height="1.999"/>
	<polygon points="30.589,144.89 32.358,144.89 32.789,144.89 34.799,144.89 28.385,135.729 26.747,136.876 30.958,142.89 
		29.188,142.89 26.747,142.89 28.019,144.706 29.131,146.295 33.747,152.89 35.386,151.743 30.77,145.147 	"/>
</g>
<g>
	<path d="M146.109,120.846c-1.444-6.742-7.433-11.8-14.605-11.8c-1.799,0-3.522,0.32-5.118,0.904
		c-0.949-5.108-5.404-8.98-10.788-8.98c-0.413,0-0.819,0.027-1.222,0.071c0.744,1.112,1.179,2.448,1.179,3.886c0,3.865-3.134,7-7,7
		c-1.438,0-2.773-0.435-3.886-1.179c-0.044,0.401-0.071,0.809-0.071,1.222c0,3.712,1.845,6.987,4.661,8.979
		c-1.653,1.907-2.661,4.389-2.661,7.111c0,5.983,4.836,10.836,10.813,10.865v0.003h0.188v-2l-0.178-0.003
		c-4.864-0.023-8.822-4.001-8.822-8.865c0-4.89,3.978-8.868,8.867-8.868c0.15,0,0.299,0.012,0.447,0.022l0.148,0.01l1.314,0.085
		l0.597-1.175c2.225-4.372,6.644-7.089,11.532-7.089c6.062,0,11.382,4.298,12.649,10.219l0.318,1.483l1.514,0.094
		c3.708,0.23,6.612,3.319,6.612,7.03c0,3.878-3.144,7.035-7.017,7.057c-0.042-0.003-0.079-0.005-0.117-0.005l-0.866,0.005v2h0.819
		v-0.006c0.042,0.001,0.082,0.006,0.124,0.006c5.001,0,9.057-4.054,9.057-9.057C154.598,125.063,150.844,121.141,146.109,120.846z
		 M118.189,117.229c-0.241-0.016-0.48-0.036-0.725-0.036c-2.537,0-4.865,0.876-6.715,2.334c-2.012-1.294-3.487-3.354-3.976-5.776
		c0.582,0.117,1.178,0.177,1.78,0.177c4.963,0,9-4.037,9-9c0-0.603-0.06-1.198-0.177-1.78c3.733,0.753,6.629,3.824,7.133,7.641
		C121.8,112.23,119.585,114.486,118.189,117.229z"/>
	
		<rect x="116.018" y="136.926" transform="matrix(-0.5736 -0.8191 0.8191 -0.5736 78.3941 316.6562)" width="11.183" height="1.999"/>
	
		<rect x="133.993" y="136.926" transform="matrix(-0.5736 -0.8191 0.8191 -0.5736 106.6796 331.3794)" width="11.183" height="1.999"/>
	<polygon points="132.426,141.932 134.195,141.932 134.626,141.932 136.636,141.932 130.222,132.771 128.584,133.918 
		132.795,139.932 131.024,139.932 128.584,139.932 129.855,141.748 130.968,143.337 135.584,149.932 137.223,148.785 
		132.606,142.189 	"/>
</g>
<g>
	<g>
		<path d="M-264.453,207.301c-1.596-7.445-8.207-13.029-16.127-13.029c-6.423,0-11.977,3.678-14.702,9.035
			c-0.266-0.018-0.53-0.04-0.8-0.04c-6.627,0-11.999,5.372-11.999,12c0,6.607,5.34,11.965,11.938,11.998v0.003h2.062v-2h-1.604
			l-0.447-0.003c-5.485-0.027-9.948-4.513-9.948-9.998c0-5.514,4.485-10,9.999-10c0.175,0,0.347,0.014,0.52,0.025l0.148,0.01
			l1.316,0.088l0.598-1.176c2.492-4.899,7.443-7.942,12.92-7.942c6.79,0,12.75,4.814,14.172,11.448l0.317,1.482l1.514,0.095
			c4.203,0.262,7.496,3.763,7.496,7.971c0,4.397-3.565,7.977-7.957,8c-0.05-0.003-0.093-0.005-0.137-0.007l-2.043,0.007h-2.863v2
			h4.863v-0.007c0.046,0.001,0.091,0.007,0.137,0.007c5.521,0,10-4.477,10-10C-255.081,211.957-259.226,207.626-264.453,207.301z"/>
	</g>
	<g>
		<circle cx="-289.581" cy="220.844" r="1.5"/>
	</g>
	<g>
		<circle cx="-285.581" cy="226.768" r="1.5"/>
	</g>
	<g>
		<circle cx="-277.581" cy="226.768" r="1.5"/>
	</g>
	<g>
		<circle cx="-281.581" cy="220.844" r="1.5"/>
	</g>
	<g>
		<circle cx="-273.581" cy="220.844" r="1.5"/>
	</g>
	<g>
		<circle cx="-289.581" cy="232.789" r="1.5"/>
	</g>
	<g>
		<circle cx="-281.581" cy="232.789" r="1.5"/>
	</g>
	<g>
		<circle cx="-273.581" cy="232.789" r="1.5"/>
	</g>
</g>
<g>
	<g>
		<rect x="-188.667" y="191.823" width="2" height="7.973"/>
	</g>
	<g>
		<rect x="-207.667" y="210.737" width="7.973" height="2"/>
	</g>
	<g>
		<rect x="-202.994" y="199.471" transform="matrix(0.7071 0.7071 -0.7071 0.7071 83.4664 199.4356)" width="7.974" height="2"/>
	</g>
	<g>
		<rect x="-177.485" y="196.489" transform="matrix(0.7071 0.7071 -0.7071 0.7071 90.0656 183.5116)" width="2" height="7.972"/>
	</g>
	<g>
		<path d="M-158.155,217.613c-1.444-6.742-7.433-11.8-14.605-11.8c-2.185,0-4.258,0.47-6.127,1.313
			c-1.666-3.202-5.006-5.394-8.865-5.394c-5.522,0-10,4.477-10,9.999c0,2.46,0.898,4.702,2.373,6.442
			c-1.428,1.84-2.287,4.144-2.287,6.653c0,5.983,4.836,10.836,10.813,10.865v0.003h1.188v-2h-0.721l-0.457-0.003
			c-4.864-0.023-8.822-4.001-8.822-8.865c0-4.89,3.978-8.868,8.867-8.868c0.15,0,0.299,0.012,0.447,0.022l0.148,0.01l1.314,0.085
			l0.597-1.175c2.225-4.372,6.644-7.089,11.532-7.089c6.062,0,11.382,4.298,12.649,10.219l0.318,1.483l1.514,0.094
			c3.708,0.23,6.612,3.319,6.612,7.03c0,3.878-3.144,7.035-7.017,7.057c-0.042-0.003-0.079-0.005-0.117-0.005l-2.047,0.005h-1.819v2
			h3.819v-0.006c0.042,0.001,0.082,0.006,0.124,0.006c5.001,0,9.057-4.054,9.057-9.057
			C-149.667,221.83-153.421,217.908-158.155,217.613z M-186.075,213.996c-0.241-0.016-0.48-0.036-0.725-0.036
			c-2.766,0-5.281,1.042-7.2,2.743c-1.092-1.367-1.753-3.09-1.753-4.971c0-4.41,3.589-7.999,8-7.999c3.092,0,5.76,1.773,7.092,4.345
			C-182.96,209.518-184.839,211.566-186.075,213.996z"/>
	</g>
	<g>
		<circle cx="-182.178" cy="229.207" r="1.5"/>
	</g>
	<g>
		<circle cx="-178.178" cy="235.207" r="1.5"/>
	</g>
	<g>
		<circle cx="-170.178" cy="235.207" r="1.5"/>
	</g>
	<g>
		<circle cx="-174.178" cy="229.207" r="1.5"/>
	</g>
	<g>
		<circle cx="-166.178" cy="229.207" r="1.5"/>
	</g>
	<g>
		<circle cx="-182.178" cy="241.229" r="1.5"/>
	</g>
	<g>
		<circle cx="-174.178" cy="241.229" r="1.5"/>
	</g>
	<g>
		<circle cx="-166.178" cy="241.229" r="1.5"/>
	</g>
</g>
<g>
	<g>
		<path d="M-62.204,213.657c-1.444-6.742-7.433-11.8-14.605-11.8c-1.799,0-3.521,0.32-5.118,0.904
			c-0.949-5.108-5.404-8.98-10.788-8.98c-0.413,0-0.819,0.027-1.222,0.071c0.744,1.112,1.179,2.448,1.179,3.886c0,3.865-3.134,7-7,7
			c-1.438,0-2.773-0.435-3.886-1.179c-0.044,0.401-0.071,0.809-0.071,1.222c0,3.712,1.845,6.987,4.661,8.979
			c-1.653,1.907-2.661,4.389-2.661,7.111c0,5.983,4.836,10.836,10.813,10.865v0.003h1.188v-2h-0.721l-0.457-0.003
			c-4.864-0.023-8.822-4.001-8.822-8.865c0-4.89,3.978-8.868,8.867-8.868c0.15,0,0.299,0.012,0.447,0.022l0.148,0.01l1.314,0.085
			l0.597-1.175c2.225-4.372,6.644-7.089,11.532-7.089c6.062,0,11.382,4.298,12.649,10.219l0.318,1.483l1.514,0.094
			c3.708,0.23,6.612,3.319,6.612,7.03c0,3.878-3.144,7.035-7.017,7.057c-0.042-0.003-0.079-0.005-0.117-0.005l-2.047,0.005h-1.819v2
			h3.819v-0.006c0.042,0.001,0.082,0.006,0.124,0.006c5.001,0,9.057-4.054,9.057-9.057
			C-53.716,217.874-57.47,213.952-62.204,213.657z M-90.124,210.04c-0.241-0.016-0.48-0.036-0.725-0.036
			c-2.537,0-4.865,0.876-6.715,2.334c-2.012-1.294-3.486-3.354-3.976-5.776c0.582,0.117,1.178,0.177,1.78,0.177c4.963,0,9-4.037,9-9
			c0-0.603-0.06-1.198-0.177-1.78c3.733,0.753,6.629,3.824,7.134,7.64C-86.515,205.042-88.729,207.297-90.124,210.04z"/>
	</g>
	<g>
		<circle cx="-86.216" cy="225.25" r="1.5"/>
	</g>
	<g>
		<circle cx="-82.216" cy="231.25" r="1.5"/>
	</g>
	<g>
		<circle cx="-74.216" cy="231.25" r="1.5"/>
	</g>
	<g>
		<circle cx="-78.216" cy="225.25" r="1.5"/>
	</g>
	<g>
		<circle cx="-70.216" cy="225.25" r="1.5"/>
	</g>
	<g>
		<circle cx="-86.216" cy="237.271" r="1.5"/>
	</g>
	<g>
		<circle cx="-78.216" cy="237.271" r="1.5"/>
	</g>
	<g>
		<circle cx="-70.216" cy="237.271" r="1.5"/>
	</g>
</g>
<g>
	<path d="M248.961,114.771c-1.596-7.445-8.207-13.029-16.127-13.029c-6.423,0-11.977,3.678-14.702,9.035
		c-0.266-0.018-0.53-0.04-0.8-0.04c-6.627,0-11.999,5.372-11.999,12c0,6.607,5.34,11.965,11.938,11.998v0.003h2.062v-2h-1.604
		l-0.447-0.003c-5.485-0.027-9.948-4.513-9.948-9.998c0-5.514,4.485-10,9.999-10c0.175,0,0.347,0.014,0.52,0.025l0.148,0.01
		l1.316,0.088l0.598-1.176c2.492-4.899,7.443-7.942,12.92-7.942c6.79,0,12.75,4.814,14.172,11.448l0.317,1.482l1.514,0.095
		c4.203,0.262,7.496,3.763,7.496,7.971c0,4.397-3.565,7.977-7.957,8c-0.05-0.003-0.093-0.005-0.137-0.007l-2.043,0.007h-2.863v2
		h4.863v-0.007c0.046,0.001,0.091,0.007,0.137,0.007c5.521,0,10-4.477,10-10C258.333,119.428,254.188,115.097,248.961,114.771z"/>
	<circle cx="223.333" cy="142.242" r="1.5"/>
	<circle cx="231.333" cy="148.242" r="1.5"/>
	<circle cx="239.333" cy="144.242" r="1.5"/>
	<rect x="222.333" y="125.767" width="2" height="11.976"/>
	<polygon points="232.333,143.707 232.333,141.767 232.333,129.767 230.333,129.767 230.333,141.767 230.333,143.707 
		230.333,143.742 232.333,143.742 	"/>
	<polygon points="240.333,139.52 240.333,137.767 240.333,125.767 238.333,125.767 238.333,137.767 238.333,139.52 238.333,139.742 
		240.333,139.742 	"/>
</g>
<g>
	<rect x="-499.416" y="186.385" width="2" height="7.973"/>
	<rect x="-518.416" y="205.299" width="7.973" height="2"/>
	<rect x="-513.743" y="194.032" transform="matrix(0.7071 0.7071 -0.7071 0.7071 -11.3954 417.5754)" width="7.974" height="2"/>
	<rect x="-488.234" y="191.05" transform="matrix(0.7071 0.7071 -0.7071 0.7071 -4.7963 401.6515)" width="2" height="7.972"/>
	<path d="M-468.904,212.175c-1.444-6.742-7.433-11.8-14.605-11.8c-2.185,0-4.258,0.47-6.126,1.313
		c-1.667-3.202-5.007-5.394-8.866-5.394c-5.522,0-10,4.477-10,9.999c0,2.46,0.899,4.702,2.373,6.442
		c-1.429,1.84-2.287,4.144-2.287,6.653c0,5.983,4.836,10.836,10.813,10.865v0.003h1.188v-2h-0.721l-0.457-0.003
		c-4.864-0.023-8.822-4.001-8.822-8.865c0-4.89,3.978-8.868,8.867-8.868c0.15,0,0.299,0.012,0.447,0.022l0.148,0.01l1.314,0.085
		l0.597-1.175c2.225-4.372,6.644-7.089,11.532-7.089c6.062,0,11.382,4.298,12.649,10.219l0.318,1.483l1.514,0.094
		c3.708,0.23,6.612,3.319,6.612,7.03c0,3.878-3.144,7.035-7.017,7.057c-0.042-0.003-0.079-0.005-0.117-0.005l-2.047,0.005h-0.819v2
		h2.819v-0.006c0.042,0.001,0.082,0.006,0.124,0.006c5.001,0,9.057-4.054,9.057-9.057
		C-460.416,216.392-464.17,212.47-468.904,212.175z M-496.824,208.558c-0.241-0.016-0.48-0.036-0.725-0.036
		c-2.766,0-5.282,1.041-7.2,2.743c-1.092-1.366-1.753-3.09-1.753-4.971c0-4.41,3.589-7.999,8-7.999c3.091,0,5.76,1.773,7.091,4.345
		C-493.709,204.08-495.589,206.128-496.824,208.558z"/>
	<circle cx="-492.426" cy="238.745" r="1.5"/>
	<circle cx="-484.426" cy="244.745" r="1.5"/>
	<circle cx="-476.426" cy="240.745" r="1.5"/>
	<rect x="-493.426" y="222.27" width="2" height="11.976"/>
	<polygon points="-483.426,240.21 -483.426,238.27 -483.426,226.27 -485.426,226.27 -485.426,238.27 -485.426,240.21 
		-485.426,240.245 -483.426,240.245 	"/>
	<polygon points="-475.426,236.022 -475.426,234.27 -475.426,222.27 -477.426,222.27 -477.426,234.27 -477.426,236.022 
		-477.426,236.245 -475.426,236.245 	"/>
</g>
<g>
	<path d="M-368.302,209.177c-1.444-6.742-7.433-11.8-14.605-11.8c-1.799,0-3.522,0.32-5.118,0.904
		c-0.949-5.108-5.404-8.98-10.788-8.98c-0.413,0-0.819,0.027-1.222,0.071c0.744,1.112,1.179,2.448,1.179,3.886c0,3.865-3.134,7-7,7
		c-1.438,0-2.773-0.435-3.886-1.179c-0.044,0.401-0.071,0.809-0.071,1.222c0,3.712,1.845,6.987,4.661,8.979
		c-1.653,1.907-2.661,4.389-2.661,7.111c0,5.983,4.836,10.836,10.813,10.865v0.003h1.188v-2h-0.721l-0.457-0.003
		c-4.864-0.023-8.822-4.001-8.822-8.865c0-4.89,3.978-8.868,8.867-8.868c0.15,0,0.299,0.012,0.447,0.022l0.148,0.01l1.314,0.085
		l0.597-1.175c2.225-4.372,6.644-7.089,11.532-7.089c6.062,0,11.382,4.298,12.649,10.219l0.318,1.483l1.514,0.094
		c3.708,0.23,6.612,3.319,6.612,7.03c0,3.878-3.144,7.035-7.017,7.057c-0.042-0.003-0.079-0.005-0.117-0.005l-2.047,0.005h-0.819v2
		h2.819v-0.006c0.042,0.001,0.082,0.006,0.124,0.006c5.001,0,9.057-4.054,9.057-9.057
		C-359.813,213.394-363.567,209.472-368.302,209.177z M-396.222,205.56c-0.241-0.016-0.48-0.036-0.725-0.036
		c-2.537,0-4.865,0.876-6.715,2.334c-2.012-1.294-3.487-3.354-3.976-5.776c0.582,0.117,1.178,0.177,1.78,0.177c4.963,0,9-4.037,9-9
		c0-0.603-0.06-1.198-0.177-1.78c3.733,0.753,6.629,3.824,7.133,7.64C-392.611,200.562-394.826,202.816-396.222,205.56z"/>
	<circle cx="-391.813" cy="235.751" r="1.5"/>
	<circle cx="-383.813" cy="241.751" r="1.5"/>
	<circle cx="-375.813" cy="237.751" r="1.5"/>
	<rect x="-392.813" y="219.275" width="2" height="11.976"/>
	<polygon points="-382.813,237.216 -382.813,235.275 -382.813,223.275 -384.813,223.275 -384.813,235.275 -384.813,237.216 
		-384.813,237.251 -382.813,237.251 	"/>
	<polygon points="-374.813,233.028 -374.813,231.275 -374.813,219.275 -376.813,219.275 -376.813,231.275 -376.813,233.028 
		-376.813,233.251 -374.813,233.251 	"/>
</g>
<g>
	<rect x="-516.416" y="313.617" width="56" height="2"/>
	<rect x="-512.416" y="319.617" width="50" height="2"/>
	<rect x="-506.416" y="325.617" width="36" height="2"/>
	<rect x="-514.416" y="307.617" width="52" height="2"/>
	<path d="M-502.542,299.612c0.175,0,0.347,0.014,0.519,0.025l0.149,0.01l1.316,0.088l0.598-1.176
		c2.493-4.899,7.443-7.942,12.92-7.942c6.79,0,12.75,4.814,14.171,11.448l0.318,1.482l1.514,0.095
		c1.207,0.075,2.335,0.425,3.336,0.975h3.286c-1.678-1.703-3.957-2.813-6.498-2.971c-1.596-7.445-8.207-13.029-16.127-13.029
		c-6.423,0-11.977,3.678-14.702,9.035c-0.266-0.018-0.53-0.04-0.8-0.04c-4.843,0-9.004,2.874-10.9,7.005h2.251
		C-509.46,301.631-506.235,299.612-502.542,299.612z"/>
</g>
<g>
	<rect x="-395.313" y="286.103" width="2" height="7.973"/>
	<rect x="-414.313" y="305.017" width="7.973" height="2"/>
	<rect x="-409.64" y="293.75" transform="matrix(0.7071 0.7071 -0.7071 0.7071 89.6066 373.1705)" width="7.974" height="2"/>
	<rect x="-384.132" y="290.768" transform="matrix(0.7071 0.7071 -0.7071 0.7071 96.2057 357.2465)" width="2" height="7.972"/>
	<rect x="-405.313" y="319.977" width="50" height="2"/>
	<rect x="-401.313" y="325.977" width="44" height="2"/>
	<rect x="-395.313" y="330.977" width="30" height="2"/>
	<rect x="-403.313" y="313.977" width="46" height="2"/>
	<path d="M-402.405,311.977h0.771h1.927h1.012c1.472-1.087,3.283-1.737,5.249-1.737c0.15,0,0.299,0.012,0.447,0.022l0.148,0.01
		l1.314,0.085l0.597-1.175c2.225-4.372,6.644-7.089,11.532-7.089c5.945,0,11.168,4.139,12.563,9.884h2.043v-0.084
		c-1.444-6.742-7.433-11.8-14.605-11.8c-2.185,0-4.258,0.47-6.126,1.313c-1.667-3.202-5.007-5.394-8.866-5.394
		c-5.522,0-10,4.477-10,9.999C-404.399,308.253-403.651,310.312-402.405,311.977z M-394.399,298.013c3.091,0,5.76,1.773,7.091,4.345
		c-2.298,1.44-4.178,3.488-5.413,5.918c-0.241-0.016-0.48-0.036-0.725-0.036c-2.764,0-5.274,1.045-7.189,2.745
		c-1.097-1.366-1.764-3.089-1.764-4.973C-402.399,301.602-398.811,298.013-394.399,298.013z"/>
</g>
<g>
	<rect x="-306.569" y="316.539" width="50" height="2"/>
	<rect x="-302.569" y="322.539" width="44" height="2"/>
	<rect x="-296.569" y="327.539" width="30" height="2"/>
	<rect x="-304.569" y="310.539" width="46" height="2"/>
	<path d="M-302.927,308.539h0.037h1.884h1.055c1.472-1.087,3.283-1.737,5.249-1.737c0.15,0,0.299,0.012,0.447,0.022l0.148,0.01
		l1.314,0.085l0.597-1.175c2.225-4.372,6.644-7.089,11.532-7.089c5.945,0,11.168,4.139,12.563,9.884h2.043v-0.084
		c-1.444-6.742-7.433-11.8-14.605-11.8c-1.799,0-3.521,0.32-5.117,0.903c-0.945-5.111-5.402-8.987-10.789-8.987
		c-0.413,0-0.819,0.027-1.222,0.071c0.744,1.112,1.179,2.448,1.179,3.886c0,3.865-3.134,7-7,7c-1.438,0-2.773-0.435-3.886-1.179
		c-0.044,0.401-0.071,0.809-0.071,1.222C-307.569,303.275-305.733,306.546-302.927,308.539z M-303.612,301.528c4.963,0,9-4.037,9-9
		c0-0.603-0.06-1.198-0.177-1.78c3.735,0.753,6.633,3.828,7.134,7.647c-2.712,1.443-4.927,3.699-6.322,6.442
		c-0.241-0.016-0.48-0.036-0.725-0.036c-2.534,0-4.855,0.879-6.701,2.335c-2.02-1.293-3.5-3.356-3.989-5.785
		C-304.811,301.469-304.215,301.528-303.612,301.528z"/>
</g>
<g>
	<path d="M-174.678,319.553h-19.474l-0.578-0.003c-5.485-0.027-9.948-4.513-9.948-9.998c0-5.514,4.485-10,9.999-10
		c0.175,0,0.347,0.014,0.519,0.025l0.149,0.01l1.316,0.088l0.598-1.176c2.493-4.899,7.443-7.942,12.92-7.942
		c6.79,0,12.75,4.814,14.171,11.448l0.318,1.482l1.514,0.095c1.822,0.113,3.463,0.845,4.746,1.971h2.732
		c-1.707-2.262-4.348-3.78-7.354-3.967c-1.596-7.445-8.207-13.029-16.127-13.029c-6.423,0-11.977,3.678-14.702,9.035
		c-0.266-0.018-0.53-0.04-0.8-0.04c-6.627,0-11.999,5.372-11.999,12c0,6.607,5.34,11.965,11.938,11.998v0.003h20.062
		c2.205,0,4,1.794,4,4s-1.795,4-4,4v2c3.314,0,6-2.686,6-6C-168.678,322.239-171.363,319.553-174.678,319.553z"/>
	<path d="M-170.678,315.553h-15.988v2h15.988c3.314,0,6-2.687,6-6c0-3.314-2.686-6-6-6v2c2.205,0,4,1.794,4,4
		S-168.473,315.553-170.678,315.553z"/>
	<path d="M-157.678,309.553c1.654,0,3,1.346,3,3s-1.346,3-3,3c-0.043,0-0.083-0.011-0.126-0.013h-4.862
		c0.003,0.005,0.009,0.008,0.012,0.013h-0.023v2h5.5v-0.051c2.523-0.254,4.5-2.358,4.5-4.949c0-2.762-2.238-5-5-5V309.553z"/>
	<path d="M-153.678,319.553h-13v2h9.022c-0.004,0.005-0.008,0.008-0.011,0.013h3.862c0.043-0.002,0.083-0.013,0.126-0.013
		c1.654,0,3,1.346,3,3s-1.346,3-3,3v2c2.762,0,5-2.238,5-5S-150.916,319.553-153.678,319.553z"/>
	<rect x="-192.678" y="315.553" width="4" height="2"/>
</g>
<path d="M-382.239-79.551c6.95,1.305,12.226,7.419,12.226,14.742c0,8.272-6.729,15.002-15,15.002c-6.79,0-12.531-4.49-14.366-10.728
	c1.398,0.461,2.867,0.698,4.366,0.698c7.72,0,14-6.281,14-14.001C-381.014-75.821-381.438-77.766-382.239-79.551 M-385.014-81.808
	c-0.338,0-0.668,0.031-1,0.051c1.861,2.113,3,4.881,3,7.92c0,6.627-5.372,12.001-12,12.001c-2.599,0-4.998-0.835-6.963-2.239
	c0.387,9.047,7.821,16.269,16.963,16.269c9.39,0,17-7.612,17-17.002S-375.624-81.808-385.014-81.808L-385.014-81.808z"/>
<g>
	<path d="M-488.409-76.813c-7.18,0-13,5.819-13,12.999c0,7.181,5.82,13.002,13,13.002s13-5.821,13-13.002
		C-475.409-70.993-481.229-76.813-488.409-76.813z M-488.409-52.812c-6.065,0-11-4.936-11-11.002c0-6.064,4.935-10.999,11-10.999
		s11,4.935,11,10.999C-477.409-57.747-482.344-52.812-488.409-52.812z"/>
	<rect x="-489.416" y="-89.807" width="2" height="10"/>
	<rect x="-489.416" y="-47.807" width="2" height="10"/>
	<rect x="-514.409" y="-64.807" width="9.993" height="2"/>
	<rect x="-472.416" y="-64.807" width="10.007" height="2"/>
	<rect x="-474.716" y="-83.721" transform="matrix(0.7071 0.7071 -0.7071 0.7071 -194.2676 311.9712)" width="2" height="10.409"/>
	
		<rect x="-504.125" y="-54.312" transform="matrix(-0.7071 -0.7071 0.7071 -0.7071 -824.1642 -439.5939)" width="2" height="10.41"/>
	<rect x="-508.325" y="-79.511" transform="matrix(0.7071 0.7071 -0.7071 0.7071 -202.8765 332.7646)" width="10.409" height="2"/>
	<rect x="-478.917" y="-50.102" transform="matrix(-0.7072 -0.7071 0.7071 -0.7072 -773.981 -418.7675)" width="10.41" height="2"/>
</g>
<g>
	<rect x="-90.243" y="281.055" width="2" height="7.973"/>
	<rect x="-109.216" y="300.041" width="7.973" height="2"/>
	<rect x="-104.49" y="288.822" transform="matrix(0.7071 0.7071 -0.7071 0.7071 175.4987 155.9533)" width="7.974" height="2"/>
	<rect x="-78.981" y="285.84" transform="matrix(0.7071 0.7071 -0.7071 0.7071 182.0978 140.0293)" width="2" height="7.972"/>
	<path d="M-75.216,323.055l0.005-0.007h-12.536l-0.594-0.003c-4.864-0.024-8.822-4.001-8.822-8.865c0-4.89,3.978-8.868,8.867-8.868
		c0.15,0,0.299,0.012,0.447,0.021l0.148,0.011l1.314,0.085l0.597-1.174c2.225-4.373,6.644-7.09,11.532-7.09
		c5.916,0,11.114,4.099,12.54,9.8h2.065c-1.444-6.742-7.433-11.8-14.605-11.8c-2.185,0-4.258,0.47-6.126,1.313
		c-1.667-3.202-5.007-5.394-8.866-5.394c-5.522,0-10,4.477-10,9.999c0,2.46,0.899,4.702,2.373,6.442
		c-1.429,1.84-2.287,4.144-2.287,6.653c0,5.983,4.836,10.836,10.813,10.865v0.003h13.135v0.007c2.205,0,4,1.794,4,4s-1.795,4-4,4v2
		c3.314,0,6-2.686,6-6C-69.216,325.741-71.901,323.055-75.216,323.055z M-89.249,293.085c3.091,0,5.76,1.773,7.091,4.345
		c-2.298,1.439-4.178,3.488-5.413,5.918c-0.241-0.016-0.48-0.036-0.725-0.036c-2.766,0-5.282,1.042-7.2,2.743
		c-1.092-1.367-1.753-3.09-1.753-4.971C-97.249,296.674-93.66,293.085-89.249,293.085z"/>
	<path d="M-71.216,319.055h-9.988v2h9.988c3.314,0,6-2.687,6-6c0-3.314-2.686-6-6-6v2c2.205,0,4,1.794,4,4
		S-69.011,319.055-71.216,319.055z"/>
	<path d="M-63.192,319.055h-0.023v2h5.5v-0.051c2.523-0.254,4.5-2.358,4.5-4.949c0-2.762-2.238-5-5-5v2c1.654,0,3,1.346,3,3
		s-1.346,3-3,3c-0.043,0-0.083-0.011-0.126-0.013h-4.862C-63.201,319.047-63.195,319.051-63.192,319.055z"/>
	<path d="M-54.216,323.055h-13v2h9.022c-0.004,0.004-0.008,0.008-0.011,0.013h3.862c0.043-0.002,0.083-0.013,0.126-0.013
		c1.654,0,3,1.346,3,3s-1.346,3-3,3v2c2.762,0,5-2.238,5-5S-51.454,323.055-54.216,323.055z"/>
	<rect x="-87.216" y="319.055" width="4" height="2"/>
</g>
<g>
	<path d="M24.746,321.049l0.005-0.007H12.215l-0.594-0.003c-4.864-0.024-8.822-4.001-8.822-8.865c0-4.89,3.978-8.868,8.867-8.868
		c0.15,0,0.299,0.012,0.447,0.021l0.148,0.011l1.314,0.085l0.597-1.174c2.225-4.373,6.644-7.09,11.532-7.09
		c5.916,0,11.114,4.099,12.54,9.8h2.065c-1.444-6.742-7.433-11.8-14.605-11.8c-1.806,0-3.536,0.322-5.138,0.91
		c-0.938-5.123-5.4-9.01-10.794-9.01c-0.413,0-0.819,0.027-1.222,0.071c0.744,1.112,1.179,2.448,1.179,3.886c0,3.865-3.134,7-7,7
		c-1.438,0-2.773-0.435-3.886-1.179c-0.044,0.401-0.071,0.809-0.071,1.222c0,3.725,1.858,7.009,4.69,8.998
		c-1.655,1.907-2.665,4.392-2.665,7.116c0,5.983,4.836,10.836,10.813,10.865v0.003h13.135v0.007c2.205,0,4,1.794,4,4s-1.795,4-4,4v2
		c3.314,0,6-2.686,6-6C30.746,323.735,28.061,321.049,24.746,321.049z M0.95,297.84c0.582,0.117,1.178,0.177,1.78,0.177
		c4.963,0,9-4.037,9-9c0-0.603-0.06-1.198-0.177-1.78c3.744,0.755,6.646,3.842,7.138,7.674c-2.702,1.444-4.909,3.696-6.301,6.432
		c-0.241-0.016-0.48-0.036-0.725-0.036c-2.535,0-4.861,0.875-6.71,2.33C2.928,302.344,1.441,300.275,0.95,297.84z"/>
	<path d="M28.746,317.049h-9.988v2h9.988c3.314,0,6-2.687,6-6c0-3.314-2.686-6-6-6v2c2.205,0,4,1.794,4,4
		S30.951,317.049,28.746,317.049z"/>
	<path d="M36.77,317.049h-0.023v2h5.5v-0.051c2.523-0.254,4.5-2.358,4.5-4.949c0-2.762-2.238-5-5-5v2c1.654,0,3,1.346,3,3
		s-1.346,3-3,3c-0.043,0-0.083-0.011-0.126-0.013h-4.862C36.761,317.041,36.767,317.045,36.77,317.049z"/>
	<path d="M45.746,321.049h-13v2h9.022c-0.004,0.004-0.008,0.008-0.011,0.013h3.862c0.043-0.002,0.083-0.013,0.126-0.013
		c1.654,0,3,1.346,3,3s-1.346,3-3,3v2c2.762,0,5-2.238,5-5S48.508,321.049,45.746,321.049z"/>
	<rect x="12.746" y="317.049" width="4" height="2"/>
</g>
<g>
	<rect x="125.639" y="283.617" width="2" height="10"/>
	<rect x="100.646" y="308.617" width="9.993" height="2"/>
	<rect x="140.338" y="289.703" transform="matrix(0.7071 0.7071 -0.7071 0.7071 249.9283 -13.5648)" width="2" height="10.409"/>
	<rect x="106.73" y="293.913" transform="matrix(0.7071 0.7071 -0.7071 0.7071 241.3194 7.2285)" width="10.409" height="2"/>
	<path d="M130.639,323.617h-24v2h24c2.205,0,4,1.794,4,4s-1.795,4-4,4v2c3.314,0,6-2.686,6-6
		C136.639,326.304,133.953,323.617,130.639,323.617z"/>
	<path d="M142.662,319.617h-0.023v2h5.5v-0.051c2.523-0.254,4.5-2.358,4.5-4.949c0-2.762-2.238-5-5-5v2c1.654,0,3,1.346,3,3
		s-1.346,3-3,3c-0.043,0-0.083-0.011-0.126-0.013h-4.862C142.653,319.609,142.659,319.613,142.662,319.617z"/>
	<path d="M151.639,323.617h-13v2h9.022c-0.004,0.004-0.008,0.008-0.011,0.013h3.862c0.043-0.002,0.083-0.013,0.126-0.013
		c1.654,0,3,1.346,3,3s-1.346,3-3,3v2c2.762,0,5-2.238,5-5S154.4,323.617,151.639,323.617z"/>
	<path d="M118.348,319.617h-11.709v2h12.012h0.822h15.166c3.314,0,6-2.687,6-6c0-3.314-2.686-6-6-6v2c2.205,0,4,1.794,4,4
		s-1.795,4-4,4h-12.538c-3.802-1.734-6.455-5.563-6.455-10.007c0-6.064,4.935-10.999,11-10.999c5.384,0,9.868,3.891,10.81,9.006
		h2.021c-0.961-6.23-6.331-11.006-12.831-11.006c-7.18,0-13,5.819-13,12.999C113.646,313.636,115.476,317.232,118.348,319.617z"/>
</g>
<g>
	<path d="M230.865,317.061h-24v2h24c2.205,0,4,1.794,4,4s-1.795,4-4,4v2c3.314,0,6-2.686,6-6
		C236.865,319.747,234.18,317.061,230.865,317.061z"/>
	<path d="M248.365,315.061v-0.051c2.523-0.254,4.5-2.358,4.5-4.949c0-2.762-2.238-5-5-5v2c1.654,0,3,1.346,3,3s-1.346,3-3,3
		c-0.043,0-0.083-0.011-0.126-0.013h-4.862c0.004,0.005,0.009,0.009,0.012,0.013h-0.023v2H248.365z"/>
	<path d="M251.865,317.061h-13v2h9.022c-0.003,0.004-0.007,0.008-0.011,0.013h3.862c0.043-0.002,0.083-0.013,0.126-0.013
		c1.654,0,3,1.346,3,3s-1.346,3-3,3v2c2.762,0,5-2.238,5-5S254.627,317.061,251.865,317.061z"/>
	<path d="M219.699,315.061h15.166c3.314,0,6-2.687,6-6c0-3.314-2.686-6-6-6v2c2.205,0,4,1.794,4,4s-1.795,4-4,4h-12.586
		c-2.596-1.188-4.658-3.339-5.69-6.034c0.849,0.204,1.724,0.309,2.612,0.309c6.168,0,11.187-5.019,11.187-11.188
		c0-1.276-0.22-2.532-0.64-3.717c4.046,1.102,7.168,4.459,7.937,8.63h2.018c-0.964-6.237-6.338-11.016-12.846-11.016
		c-0.259,0-0.511,0.024-0.766,0.039c1.425,1.618,2.297,3.737,2.297,6.063c0,5.072-4.112,9.188-9.187,9.188
		c-1.988,0-3.826-0.641-5.33-1.715c0.162,3.801,1.962,7.165,4.699,9.44h-11.705v2h12.012H219.699z"/>
</g>
<g>
	<path d="M-488.916,402.254h-20c-1.103,0-2-0.897-2-2s0.897-2,2-2h3.445h0.555v-2h-4c-2.209,0-4,1.791-4,4s1.791,4,4,4h20
		c2.205,0,4,1.794,4,4s-1.795,4-4,4v2c3.314,0,6-2.686,6-6C-482.916,404.94-485.602,402.254-488.916,402.254z"/>
	<path d="M-486.916,386.254v2c2.205,0,4,1.794,4,4s-1.795,4-4,4h-15.988v2h15.988c3.314,0,6-2.687,6-6
		C-480.916,388.939-483.602,386.254-486.916,386.254z"/>
	<path d="M-480.916,398.254v2h5.5v-0.051c2.523-0.254,4.5-2.358,4.5-4.949c0-2.762-2.238-5-5-5v2c1.654,0,3,1.346,3,3s-1.346,3-3,3
		c-0.043,0-0.083-0.011-0.126-0.013h-4.862c0.003,0.005,0.009,0.009,0.012,0.013H-480.916z"/>
	<path d="M-469.916,402.254h-11v2h7.022c-0.004,0.004-0.008,0.008-0.011,0.013h3.862c0.043-0.002,0.083-0.013,0.126-0.013
		c1.654,0,3,1.346,3,3s-1.346,3-3,3v2c2.762,0,5-2.238,5-5S-467.154,402.254-469.916,402.254z"/>
</g>
<path d="M47.376,388.601v-0.038H9c-1.103,0-2-0.897-2-2s0.897-2,2-2h33c2.762,0,5-2.238,5-5s-2.238-5-5-5H4.125v0.008
	c-0.042-0.001-0.083-0.008-0.125-0.008c-2.762,0-5,2.238-5,5s2.238,5,5,5v-2c-1.654,0-3-1.346-3-3s1.346-3,3-3h0.125h3.853H42
	c1.654,0,3,1.346,3,3s-1.346,3-3,3H9c-2.209,0-4,1.791-4,4s1.791,4,4,4h38c1.103,0,2,0.897,2,2s-0.897,2-2,2H15
	c-2.209,0-4,1.791-4,4s1.791,4,4,4h22c1.103,0,2,0.897,2,2s-0.897,2-2,2H12.99v0.001c-2.204,0.006-3.99,1.793-3.99,3.999
	s1.786,3.993,3.99,3.999v0.001H25c1.103,0,2,0.897,2,2s-0.897,2-2,2h-2c-2.209,0-4,1.791-4,4s1.791,4,4,4v-2c-1.103,0-2-0.897-2-2
	s0.897-2,2-2h2c2.209,0,4-1.791,4-4s-1.791-4-4-4H13c-1.103,0-2-0.897-2-2s0.897-2,2-2h24c2.209,0,4-1.791,4-4
	c0-2.152-1.704-3.895-3.834-3.983v-0.017H15c-1.103,0-2-0.897-2-2s0.897-2,2-2h32c2.209,0,4-1.791,4-4
	C51,390.482,49.406,388.793,47.376,388.601z"/>
<path d="M232.791,379.278v-2.024h-2v2.024c-13.01,0.513-23.462,10.965-23.975,23.976h1.674c1.14-1.222,2.748-2,4.551-2
	c2.26,0,4.233,1.203,5.331,3h1.838c1.098-1.797,3.071-3,5.331-3c2.204,0,4.137,1.144,5.25,2.866v15.134c0,2.21,1.791,4,4,4
	s4-1.79,4-4h-2c0,1.103-0.897,2-2,2s-2-0.897-2-2V404.12c1.113-1.723,3.046-2.866,5.25-2.866c2.26,0,4.233,1.203,5.331,3h1.838
	c1.098-1.797,3.071-3,5.331-3c1.803,0,3.411,0.778,4.551,2h1.674C256.253,390.243,245.801,379.791,232.791,379.278z
	 M250.541,399.254c-2.496,0-4.736,1.114-6.25,2.87c-1.514-1.756-3.754-2.87-6.25-2.87s-4.736,1.114-6.25,2.87
	c-1.514-1.756-3.754-2.87-6.25-2.87s-4.736,1.114-6.25,2.87c-1.514-1.756-3.755-2.87-6.25-2.87c-1.402,0-2.731,0.351-3.897,0.975
	c1.909-10.769,11.339-18.975,22.647-18.975s20.738,8.206,22.647,18.975C253.272,399.604,251.943,399.254,250.541,399.254z"/>
<g>
	<path d="M-172.504,503.566v-17.105c0-2.762-2.238-5-5-5s-5,2.238-5,5v17.105c-1.236,1.263-2,2.988-2,4.895c0,3.866,3.134,7,7,7
		s7-3.134,7-7C-170.504,506.555-171.268,504.829-172.504,503.566z M-177.504,513.461c-2.757,0-5-2.243-5-5
		c0-1.313,0.508-2.554,1.429-3.495l0.571-0.583v-0.816v-17.105c0-1.654,1.346-3,3-3s3,1.346,3,3v17.105v0.816l0.571,0.583
		c0.921,0.941,1.429,2.183,1.429,3.495C-172.504,511.218-174.747,513.461-177.504,513.461z"/>
	<path d="M-176.504,505.637v-15.176h-2v15.176c-1.167,0.413-2.008,1.516-2.008,2.824c0,1.662,1.347,3.008,3.008,3.008
		c1.662,0,3.008-1.346,3.008-3.008C-174.496,507.152-175.336,506.05-176.504,505.637z M-177.504,509.469
		c-0.556,0-1.008-0.452-1.008-1.008s0.452-1.008,1.008-1.008s1.008,0.452,1.008,1.008S-176.948,509.469-177.504,509.469z"/>
</g>
<g>
	<path d="M-72.716,503.566v-17.105c0-2.762-2.238-5-5-5s-5,2.238-5,5v17.105c-1.236,1.263-2,2.988-2,4.895c0,3.866,3.134,7,7,7
		s7-3.134,7-7C-70.716,506.555-71.479,504.829-72.716,503.566z M-77.716,513.461c-2.757,0-5-2.243-5-5
		c0-1.313,0.508-2.554,1.429-3.495l0.571-0.583v-0.816v-17.105c0-1.654,1.346-3,3-3s3,1.346,3,3v17.105v0.816l0.571,0.583
		c0.921,0.941,1.429,2.183,1.429,3.495C-72.716,511.218-74.959,513.461-77.716,513.461z"/>
	<path d="M-76.716,505.637v-20.176h-2v20.176c-1.167,0.413-2.008,1.516-2.008,2.824c0,1.662,1.347,3.008,3.008,3.008
		c1.662,0,3.008-1.346,3.008-3.008C-74.708,507.152-75.548,506.05-76.716,505.637z M-77.716,509.469
		c-0.556,0-1.008-0.452-1.008-1.008s0.452-1.008,1.008-1.008s1.008,0.452,1.008,1.008S-77.16,509.469-77.716,509.469z"/>
</g>
<g>
	<path d="M-275.613,503.566v-17.105c0-2.762-2.238-5-5-5s-5,2.238-5,5v17.105c-1.236,1.263-2,2.988-2,4.895c0,3.866,3.134,7,7,7
		s7-3.134,7-7C-273.613,506.555-274.377,504.829-275.613,503.566z M-280.613,513.461c-2.757,0-5-2.243-5-5
		c0-1.313,0.508-2.554,1.429-3.495l0.571-0.583v-0.816v-17.105c0-1.654,1.346-3,3-3s3,1.346,3,3v17.105v0.816l0.571,0.583
		c0.921,0.941,1.429,2.183,1.429,3.495C-275.613,511.218-277.856,513.461-280.613,513.461z"/>
	<path d="M-279.613,505.637v-10.176h-2v10.176c-1.167,0.413-2.008,1.516-2.008,2.824c0,1.662,1.347,3.008,3.008,3.008
		c1.662,0,3.008-1.346,3.008-3.008C-277.605,507.152-278.445,506.05-279.613,505.637z M-280.613,509.469
		c-0.556,0-1.008-0.452-1.008-1.008s0.452-1.008,1.008-1.008s1.008,0.452,1.008,1.008S-280.058,509.469-280.613,509.469z"/>
</g>
<g>
	<path d="M-379.259,503.566v-17.105c0-2.762-2.238-5-5-5s-5,2.238-5,5v17.105c-1.236,1.263-2,2.988-2,4.895c0,3.866,3.134,7,7,7
		s7-3.134,7-7C-377.259,506.555-378.022,504.829-379.259,503.566z M-384.259,513.461c-2.757,0-5-2.243-5-5
		c0-1.313,0.508-2.554,1.429-3.495l0.571-0.583v-0.816v-17.105c0-1.654,1.346-3,3-3s3,1.346,3,3v17.105v0.816l0.571,0.583
		c0.921,0.941,1.429,2.183,1.429,3.495C-379.259,511.218-381.502,513.461-384.259,513.461z"/>
	<path d="M-383.259,505.637v-5.176h-2v5.176c-1.167,0.413-2.008,1.516-2.008,2.824c0,1.662,1.347,3.008,3.008,3.008
		c1.662,0,3.008-1.346,3.008-3.008C-381.251,507.152-382.091,506.05-383.259,505.637z M-384.259,509.469
		c-0.556,0-1.008-0.452-1.008-1.008s0.452-1.008,1.008-1.008s1.008,0.452,1.008,1.008S-383.703,509.469-384.259,509.469z"/>
</g>
<g>
	<path d="M-483.916,503.566v-17.105c0-2.762-2.238-5-5-5s-5,2.238-5,5v17.105c-1.236,1.263-2,2.988-2,4.895c0,3.866,3.134,7,7,7
		s7-3.134,7-7C-481.916,506.555-482.68,504.829-483.916,503.566z M-488.916,513.461c-2.757,0-5-2.243-5-5
		c0-1.313,0.508-2.554,1.429-3.495l0.571-0.583v-0.816v-17.105c0-1.654,1.346-3,3-3s3,1.346,3,3v17.105v0.816l0.571,0.583
		c0.921,0.941,1.429,2.183,1.429,3.495C-483.916,511.218-486.159,513.461-488.916,513.461z"/>
	<path d="M-488.916,505.453c-1.661,0-3.008,1.347-3.008,3.008c0,1.662,1.347,3.008,3.008,3.008c1.662,0,3.008-1.346,3.008-3.008
		C-485.908,506.8-487.254,505.453-488.916,505.453z M-488.916,509.469c-0.556,0-1.008-0.452-1.008-1.008s0.452-1.008,1.008-1.008
		s1.008,0.452,1.008,1.008S-488.36,509.469-488.916,509.469z"/>
</g>
<g>
	<path d="M16.009,483.773c-2.209,0-4,1.791-4,4c0,2.21,1.791,4,4,4c2.211,0,4-1.79,4-4C20.009,485.564,18.22,483.773,16.009,483.773
		z M16.009,489.773c-1.103,0-2-0.897-2-2s0.897-2,2-2s2,0.897,2,2S17.111,489.773,16.009,489.773z"/>
	<path d="M30.009,511.773c-4.41,0-7.999-3.589-7.999-7.999v-4.002c0-4.41,3.589-7.999,7.999-7.999c2.715,0,5.115,1.362,6.563,3.437
		l1.43-1.43c-1.824-2.429-4.72-4.007-7.992-4.007c-5.522,0-9.999,4.478-9.999,9.999v4.002c0,5.521,4.477,9.999,9.999,9.999
		c3.272,0,6.168-1.579,7.992-4.008l-1.43-1.43C35.125,510.41,32.725,511.773,30.009,511.773z"/>
</g>
<g>
	<path d="M120.705,483.652c-2.209,0-4,1.791-4,4c0,2.21,1.791,4,4,4c2.211,0,4-1.79,4-4
		C124.705,485.443,122.916,483.652,120.705,483.652z M120.705,489.652c-1.103,0-2-0.897-2-2s0.897-2,2-2s2,0.897,2,2
		S121.808,489.652,120.705,489.652z"/>
	<polygon points="140.58,491.773 140.58,489.773 128.58,489.773 126.58,489.773 126.58,513.773 128.58,513.773 128.58,501.773 
		136.58,501.773 136.58,499.773 128.58,499.773 128.58,491.773 	"/>
</g>
<g>
	<path d="M231.791,487.465c-7.179,0-13,5.82-13,13s5.821,13,13,13s13-5.82,13-13S238.97,487.465,231.791,487.465z M231.791,511.465
		c-6.065,0-11-4.935-11-11s4.935-11,11-11s11,4.935,11,11S237.856,511.465,231.791,511.465z"/>
	<path d="M227.524,504.707l6.363-2.121l2.121-6.364l-6.363,2.122L227.524,504.707z M231.227,499.925l1.62-0.54l-0.54,1.62
		l-1.62,0.54L231.227,499.925z"/>
</g>
<g>
	<path d="M-488.916,577.982c-7.179,0-13,5.82-13,13s5.821,13,13,13s13-5.82,13-13S-481.737,577.982-488.916,577.982z
		 M-488.916,601.982c-6.065,0-11-4.934-11-11c0-6.064,4.935-11,11-11s11,4.936,11,11
		C-477.916,597.049-482.851,601.982-488.916,601.982z"/>
	<path d="M-486.354,589.404l-2.586-4.422l-2.529,4.33h0.007c-0.299,0.467-0.478,1.018-0.478,1.613c0,1.656,1.343,3,3,3s3-1.344,3-3
		c0-0.559-0.162-1.074-0.428-1.521H-486.354z M-488.94,591.926c-0.552,0-1-0.449-1-1c0-0.188,0.055-0.367,0.162-0.535l0.864-1.355
		l0.826,1.391c0.098,0.164,0.147,0.332,0.147,0.5C-487.94,591.477-488.389,591.926-488.94,591.926z"/>
</g>
<g>
	<path d="M-384.132,577.982c-7.18,0-13,5.82-13,13s5.82,13,13,13s13-5.82,13-13S-376.952,577.982-384.132,577.982z
		 M-384.132,601.982c-6.065,0-11-4.934-11-11c0-6.064,4.935-11,11-11s11,4.936,11,11
		C-373.132,597.049-378.066,601.982-384.132,601.982z"/>
	<path d="M-382.543,588.402c-0.467-0.299-1.018-0.477-1.613-0.477c-1.658,0-3,1.342-3,3c0,1.656,1.342,3,3,3
		c0.557,0,1.072-0.162,1.52-0.428v0.014l4.422-2.586l-4.328-2.529V588.402z M-383.658,591.777c-0.164,0.098-0.332,0.148-0.498,0.148
		c-0.552,0-1-0.449-1-1c0-0.553,0.448-1,1-1c0.188,0,0.368,0.053,0.535,0.16l1.355,0.865L-383.658,591.777z"/>
</g>
<g>
	<path d="M-281.081,577.982c-7.18,0-13,5.82-13,13s5.82,13,13,13s13-5.82,13-13S-273.901,577.982-281.081,577.982z
		 M-281.081,601.982c-6.065,0-11-4.934-11-11c0-6.064,4.935-11,11-11s11,4.936,11,11
		C-270.081,597.049-275.016,601.982-281.081,601.982z"/>
	<path d="M-281.081,587.926c-1.656,0-3,1.342-3,3c0,0.557,0.162,1.072,0.428,1.52h-0.014l2.586,4.422l2.529-4.328h-0.006
		c0.299-0.467,0.477-1.018,0.477-1.613C-278.081,589.268-279.423,587.926-281.081,587.926z M-280.242,591.461l-0.865,1.355
		l-0.826-1.393c-0.098-0.164-0.147-0.332-0.147-0.498c0-0.553,0.448-1,1-1s1,0.447,1,1
		C-280.081,591.113-280.135,591.293-280.242,591.461z"/>
</g>
<g>
	<path d="M-177.667,577.982c-7.179,0-13,5.82-13,13s5.821,13,13,13s13-5.82,13-13S-170.488,577.982-177.667,577.982z
		 M-177.667,601.982c-6.065,0-11-4.934-11-11c0-6.064,4.935-11,11-11s11,4.936,11,11
		C-166.667,597.049-171.602,601.982-177.667,601.982z"/>
	<path d="M-177.708,587.926c-0.557,0-1.072,0.162-1.52,0.428v-0.014l-4.422,2.586l4.328,2.529v-0.006
		c0.467,0.299,1.018,0.477,1.613,0.477c1.658,0,3-1.342,3-3C-174.708,589.27-176.05,587.926-177.708,587.926z M-177.708,591.926
		c-0.188,0-0.368-0.055-0.535-0.162l-1.355-0.865l1.393-0.826c0.164-0.098,0.332-0.146,0.498-0.146c0.552,0,1,0.447,1,1
		C-176.708,591.477-177.156,591.926-177.708,591.926z"/>
</g>
<g>
	<rect x="-385.818" y="381.254" width="2" height="10"/>
	<rect x="-371.119" y="387.34" transform="matrix(0.7071 0.7071 -0.7071 0.7071 169.1656 376.687)" width="2" height="10.409"/>
	<rect x="-404.728" y="391.549" transform="matrix(0.7071 0.7071 -0.7071 0.7071 160.5567 397.4804)" width="10.409" height="2"/>
	<polygon points="-391.486,410.508 -390.072,411.922 -385.818,407.668 -385.818,417.254 -383.818,417.254 -383.818,407.668 
		-379.565,411.922 -378.151,410.508 -384.818,403.84 	"/>
	<path d="M-371.812,407.253c0-0.002,0-0.004,0-0.006c0-7.18-5.82-12.999-13-12.999s-13,5.819-13,12.999c0,0.002,0,0.004,0,0.006h-13
		v2h18v-2h-3c0-0.002,0-0.004,0-0.006c0-6.064,4.935-10.999,11-10.999s11,4.935,11,10.999c0,0.002,0,0.004,0,0.006h-3v2h17.995v-2
		H-371.812z"/>
</g>
<g>
	<rect x="-282.073" y="380.066" width="2" height="10"/>
	<rect x="-267.373" y="386.152" transform="matrix(0.7071 0.7071 -0.7071 0.7071 198.7121 302.9803)" width="2" height="10.409"/>
	<rect x="-300.982" y="390.362" transform="matrix(0.7071 0.7071 -0.7071 0.7071 190.1033 323.7737)" width="10.409" height="2"/>
	<polygon points="-280.073,414.613 -280.073,404.066 -282.073,404.066 -282.073,414.613 -286.327,410.359 -287.741,411.773 
		-281.073,418.441 -274.406,411.773 -275.82,410.359 	"/>
	<path d="M-268.066,406.065c0-0.002,0-0.004,0-0.006c0-7.18-5.82-12.999-13-12.999s-13,5.819-13,12.999c0,0.002,0,0.004,0,0.006h-13
		v2h22v-2h-7c0-0.002,0-0.004,0-0.006c0-6.064,4.935-10.999,11-10.999s11,4.935,11,10.999c0,0.002,0,0.004,0,0.006h-7v2h21.995v-2
		H-268.066z"/>
</g>
<g>
	<polygon points="-77.716,414.079 -77.716,399.696 -79.716,399.696 -79.716,414.079 -83.97,409.825 -85.384,411.239 
		-78.716,417.907 -72.049,411.239 -73.463,409.825 	"/>
	<path d="M-62.088,394.726c-1.596-7.445-8.207-13.029-16.127-13.029c-6.423,0-11.977,3.678-14.702,9.035
		c-0.266-0.018-0.53-0.04-0.8-0.04c-6.627,0-11.999,5.372-11.999,12c0,6.607,5.34,11.965,11.938,11.998v0.003h6.062v-2h-5.604
		l-0.447-0.003c-5.485-0.027-9.948-4.513-9.948-9.998c0-5.514,4.485-10,9.999-10c0.175,0,0.347,0.014,0.52,0.025l0.148,0.01
		l1.316,0.088l0.598-1.176c2.492-4.899,7.443-7.942,12.92-7.942c6.79,0,12.75,4.814,14.172,11.448l0.317,1.482l1.514,0.095
		c4.203,0.262,7.496,3.763,7.496,7.971c0,4.397-3.565,7.977-7.957,8c-0.05-0.003-0.093-0.005-0.137-0.007l-2.043,0.007h-4.863v2
		h6.863v-0.007c0.046,0.001,0.091,0.007,0.137,0.007c5.521,0,10-4.477,10-10C-52.716,399.382-56.86,395.051-62.088,394.726z"/>
</g>
<g>
	<polygon points="-171.731,410.884 -170.317,409.47 -176.984,402.802 -183.652,409.47 -182.238,410.884 -177.984,406.63 
		-177.984,419.216 -175.984,419.216 -175.984,406.63 	"/>
	<path d="M-160.356,396.321c-1.596-7.445-8.207-13.029-16.127-13.029c-6.423,0-11.977,3.678-14.702,9.035
		c-0.266-0.018-0.53-0.04-0.8-0.04c-6.627,0-11.999,5.372-11.999,12c0,6.607,5.34,11.965,11.938,11.998v0.003h10.062v-2h-9.604
		l-0.447-0.003c-5.485-0.027-9.948-4.513-9.948-9.998c0-5.514,4.485-10,9.999-10c0.175,0,0.347,0.014,0.52,0.025l0.148,0.01
		l1.316,0.088l0.598-1.176c2.492-4.899,7.443-7.942,12.92-7.942c6.79,0,12.75,4.814,14.172,11.448l0.317,1.482l1.514,0.095
		c4.203,0.262,7.496,3.763,7.496,7.971c0,4.397-3.565,7.977-7.957,8c-0.05-0.003-0.093-0.005-0.137-0.007l-2.043,0.007h-8.863v2
		h10.863v-0.007c0.046,0.001,0.091,0.007,0.137,0.007c5.521,0,10-4.477,10-10C-150.984,400.978-155.129,396.646-160.356,396.321z"/>
</g>
<g>
	<path d="M42.133,206.806c-1.596-7.445-8.207-13.029-16.127-13.029c-6.423,0-11.977,3.678-14.702,9.035
		c-0.266-0.018-0.53-0.04-0.8-0.04c-6.627,0-11.999,5.372-11.999,12c0,6.607,5.34,11.965,11.938,11.998v0.003h2.062v-2H10.9
		l-0.447-0.003c-5.485-0.027-9.948-4.513-9.948-9.998c0-5.514,4.485-10,9.999-10c0.175,0,0.347,0.014,0.52,0.025l0.148,0.01
		l1.316,0.088l0.598-1.176c2.492-4.899,7.443-7.942,12.92-7.942c6.79,0,12.75,4.814,14.172,11.448l0.317,1.482l1.514,0.095
		c4.203,0.262,7.496,3.763,7.496,7.971c0,4.397-3.565,7.977-7.957,8c-0.05-0.003-0.093-0.005-0.137-0.007l-2.043,0.007h-0.863v2
		h2.863v-0.007c0.046,0.001,0.091,0.007,0.137,0.007c5.521,0,10-4.477,10-10C51.505,211.462,47.36,207.131,42.133,206.806z"/>
	<polygon points="20.505,225.794 20.505,223.164 22.678,224.387 23.363,223.166 20.894,221.776 23.363,220.387 22.678,219.166 
		20.505,220.389 20.505,217.794 18.505,217.794 18.505,220.433 16.254,219.166 15.568,220.387 18.038,221.776 15.568,223.166 
		16.254,224.387 18.505,223.12 18.505,225.794 	"/>
	<polygon points="25.667,230.148 23.494,231.371 23.494,228.776 21.494,228.776 21.494,231.415 19.243,230.148 18.558,231.369 
		21.027,232.759 18.558,234.148 19.243,235.369 21.494,234.103 21.494,236.776 23.494,236.776 23.494,234.146 25.667,235.369 
		26.353,234.148 23.883,232.759 26.353,231.369 	"/>
	<polygon points="34.683,223.166 32.51,224.389 32.51,221.794 30.51,221.794 30.51,224.433 28.259,223.166 27.573,224.387 
		30.043,225.776 27.573,227.166 28.259,228.387 30.51,227.12 30.51,229.794 32.51,229.794 32.51,227.164 34.683,228.387 
		35.368,227.166 32.898,225.776 35.368,224.387 	"/>
</g>
<g>
	<rect x="117.645" y="188.754" width="2" height="7.973"/>
	<rect x="98.645" y="207.668" width="7.973" height="2"/>
	<rect x="103.318" y="196.401" transform="matrix(0.7071 0.7071 -0.7071 0.7071 171.0127 -18.0583)" width="7.974" height="2"/>
	<rect x="128.826" y="193.42" transform="matrix(0.7071 0.7071 -0.7071 0.7071 177.6118 -33.9823)" width="2" height="7.972"/>
	<path d="M148.156,214.544c-1.444-6.742-7.433-11.8-14.605-11.8c-2.185,0-4.258,0.471-6.127,1.314
		c-1.666-3.203-5.006-5.395-8.865-5.395c-5.522,0-10,4.477-10,9.999c0,2.46,0.899,4.702,2.373,6.442
		c-1.428,1.84-2.287,4.144-2.287,6.653c0,5.983,4.836,10.836,10.813,10.865v0.003h1.188v-2h-0.721l-0.457-0.003
		c-4.864-0.023-8.822-4.001-8.822-8.865c0-4.89,3.978-8.868,8.867-8.868c0.15,0,0.299,0.012,0.447,0.022l0.148,0.01l1.314,0.085
		l0.597-1.175c2.225-4.372,6.644-7.089,11.532-7.089c6.062,0,11.382,4.298,12.649,10.219l0.318,1.483l1.514,0.094
		c3.708,0.23,6.612,3.319,6.612,7.03c0,3.878-3.144,7.035-7.017,7.057c-0.042-0.003-0.079-0.005-0.117-0.005l-1.866,0.005v2h1.819
		v-0.006c0.042,0.001,0.082,0.006,0.124,0.006c5.001,0,9.057-4.054,9.057-9.057C156.645,218.761,152.891,214.839,148.156,214.544z
		 M120.236,210.927c-0.241-0.016-0.48-0.036-0.725-0.036c-2.766,0-5.282,1.041-7.2,2.742c-1.092-1.365-1.753-3.089-1.753-4.97
		c0-4.41,3.589-7.999,8-7.999c3.092,0,5.76,1.773,7.091,4.346C123.352,206.449,121.473,208.497,120.236,210.927z"/>
	<polygon points="127.637,231.646 127.637,229.017 129.81,230.239 130.495,229.019 128.025,227.629 130.495,226.239 129.81,225.019 
		127.637,226.241 127.637,223.646 125.637,223.646 125.637,226.285 123.386,225.019 122.7,226.239 125.17,227.629 122.7,229.019 
		123.386,230.239 125.637,228.973 125.637,231.646 	"/>
	<polygon points="132.799,236.001 130.626,237.224 130.626,234.629 128.626,234.629 128.626,237.268 126.375,236.001 
		125.689,237.222 128.159,238.611 125.689,240.001 126.375,241.222 128.626,239.955 128.626,242.629 130.626,242.629 
		130.626,239.999 132.799,241.222 133.484,240.001 131.015,238.611 133.484,237.222 	"/>
	<polygon points="141.814,229.019 139.642,230.241 139.642,227.646 137.642,227.646 137.642,230.285 135.391,229.019 
		134.705,230.239 137.175,231.629 134.705,233.019 135.391,234.239 137.642,232.973 137.642,235.646 139.642,235.646 
		139.642,233.017 141.814,234.239 142.5,233.019 140.03,231.629 142.5,230.239 	"/>
</g>
<g>
	<path d="M248.345,211.541c-1.444-6.742-7.433-11.8-14.605-11.8c-1.799,0-3.522,0.32-5.118,0.904
		c-0.949-5.108-5.404-8.98-10.788-8.98c-0.413,0-0.819,0.027-1.222,0.071c0.744,1.112,1.179,2.448,1.179,3.886c0,3.865-3.134,7-7,7
		c-1.438,0-2.773-0.435-3.886-1.179c-0.044,0.401-0.071,0.809-0.071,1.222c0,3.713,1.845,6.987,4.661,8.979
		c-1.653,1.907-2.661,4.389-2.661,7.111c0,5.983,4.836,10.836,10.813,10.865v0.003h1.188v-2h-0.721l-0.457-0.003
		c-4.864-0.023-8.822-4.001-8.822-8.865c0-4.89,3.978-8.868,8.867-8.868c0.15,0,0.299,0.012,0.447,0.022l0.148,0.01l1.314,0.085
		l0.597-1.175c2.225-4.372,6.644-7.089,11.532-7.089c6.062,0,11.382,4.298,12.649,10.219l0.318,1.483l1.514,0.094
		c3.708,0.23,6.612,3.319,6.612,7.03c0,3.878-3.144,7.035-7.017,7.057c-0.042-0.003-0.079-0.005-0.117-0.005l-1.866,0.005v2h1.819
		v-0.006c0.042,0.001,0.082,0.006,0.124,0.006c5.001,0,9.057-4.054,9.057-9.057C256.833,215.758,253.079,211.836,248.345,211.541z
		 M220.425,207.924c-0.241-0.016-0.48-0.036-0.725-0.036c-2.537,0-4.865,0.877-6.715,2.334c-2.012-1.294-3.486-3.354-3.976-5.776
		c0.582,0.117,1.178,0.177,1.78,0.177c4.963,0,9-4.037,9-9c0-0.603-0.06-1.198-0.177-1.78c3.733,0.753,6.629,3.824,7.134,7.64
		C224.034,202.926,221.819,205.181,220.425,207.924z"/>
	<polygon points="227.87,228.644 227.87,226.014 230.043,227.236 230.729,226.016 228.259,224.626 230.729,223.236 230.043,222.016 
		227.87,223.238 227.87,220.644 225.87,220.644 225.87,223.282 223.619,222.016 222.934,223.236 225.403,224.626 222.934,226.016 
		223.619,227.236 225.87,225.97 225.87,228.644 	"/>
	<polygon points="233.032,232.998 230.859,234.221 230.859,231.626 228.859,231.626 228.859,234.265 226.608,232.998 
		225.923,234.219 228.393,235.608 225.923,236.998 226.608,238.219 228.859,236.952 228.859,239.626 230.859,239.626 
		230.859,236.996 233.032,238.219 233.718,236.998 231.248,235.608 233.718,234.219 	"/>
	<polygon points="242.048,226.016 239.875,227.238 239.875,224.644 237.875,224.644 237.875,227.282 235.624,226.016 
		234.938,227.236 237.408,228.626 234.938,230.016 235.624,231.236 237.875,229.97 237.875,232.644 239.875,232.644 
		239.875,230.014 242.048,231.236 242.733,230.016 240.264,228.626 242.733,227.236 	"/>
</g>
<rect x="-368.014" y="-356.209" fill="none" width="472.974" height="180.918"/>
<text transform="matrix(1 0 0 1 -188.3765 -284.8101)"><tspan x="0" y="0" font-family="'HelveticaNeueLTStd-Th'" font-size="100" letter-spacing="2">60</tspan><tspan x="-99.268" y="60" font-family="'HelveticaNeueLTStd-Lt'" font-size="48" letter-spacing="1">Weather Icons</tspan><tspan x="-3.726" y="104" font-family="'HelveticaNeueLTStd-Lt'" font-size="24">IOS 7 Style</tspan></text>
</svg>
