<?xml version="1.0" encoding="utf-8"?>
<!-- Generator: Adobe Illustrator 16.0.0, SVG Export Plug-In . SVG Version: 6.00 Build 0)  -->
<!DOCTYPE svg PUBLIC "-//W3C//DTD SVG 1.1//EN" "http://www.w3.org/Graphics/SVG/1.1/DTD/svg11.dtd">
<svg version="1.1" id="Layer_1" xmlns="http://www.w3.org/2000/svg" xmlns:xlink="http://www.w3.org/1999/xlink" x="0px" y="0px"
	 width="58px" height="50.905px" viewBox="0 0 58 50.905" enable-background="new 0 0 58 50.905" xml:space="preserve">
<path d="M340.122,191.133l-1.803,15.077l-0.268,2.237h2.254h6.896l-14.693,18.759l1.789-14.52l0.277-2.245h-2.262h-6.957
	L340.122,191.133 M342.977,184.108l-21.667,28.333h11.004l-2.671,21.667l21.667-27.661h-11.004L342.977,184.108L342.977,184.108z"/>
<path d="M-72.913-271.128c6.79,0,12.749,4.814,14.171,11.448l0.318,1.483l1.514,0.094c4.203,0.262,7.496,3.763,7.496,7.971
	c0,4.396-3.565,7.977-7.957,8c-0.046-0.003-0.091-0.006-0.137-0.007l-2.043-0.036v0.043h-28.337l-0.578-0.003
	c-5.485-0.027-9.948-4.513-9.948-9.998c0-5.514,4.485-10,9.999-10c0.175,0,0.347,0.014,0.519,0.025l0.149,0.011l1.316,0.087
	l0.598-1.176C-83.34-268.085-78.39-271.128-72.913-271.128 M-72.913-273.128c-6.423,0-11.977,3.678-14.702,9.035
	c-0.266-0.018-0.53-0.04-0.8-0.04c-6.627,0-11.999,5.372-11.999,12c0,6.607,5.34,11.965,11.938,11.998v0.003h30.925v-0.007
	c0.046,0.001,0.091,0.007,0.137,0.007c5.521,0,10-4.477,10-10c0-5.311-4.145-9.642-9.372-9.967
	C-58.382-267.544-64.993-273.128-72.913-273.128L-72.913-273.128z"/>
<g>
	<path d="M50.038-252.717c-1.444-6.742-7.433-11.8-14.605-11.8c-2.185,0-4.258,0.47-6.127,1.313
		c-1.666-3.202-5.006-5.394-8.865-5.394c-5.522,0-10,4.477-10,9.999c0,2.46,0.898,4.702,2.373,6.442
		c-1.428,1.84-2.287,4.144-2.287,6.653c0,5.983,4.836,10.836,10.813,10.865v0.003h28.007v-0.006
		c0.042,0.001,0.082,0.006,0.124,0.006c5.001,0,9.057-4.054,9.057-9.057C58.526-248.5,54.772-252.422,50.038-252.717z
		 M20.44-266.597c3.092,0,5.76,1.773,7.092,4.345c-2.299,1.44-4.178,3.488-5.414,5.918c-0.241-0.016-0.48-0.036-0.725-0.036
		c-2.766,0-5.281,1.041-7.2,2.743c-1.092-1.366-1.753-3.09-1.753-4.971C12.44-263.008,16.029-266.597,20.44-266.597z M49.51-236.634
		c-0.038-0.003-0.077-0.004-0.117-0.005l-2.047-0.042v0.047H21.942l-0.594-0.003c-4.864-0.023-8.822-4.001-8.822-8.865
		c0-4.89,3.978-8.868,8.867-8.868c0.15,0,0.299,0.012,0.447,0.021l0.148,0.011l1.314,0.085l0.598-1.174
		c2.224-4.373,6.643-7.09,11.531-7.09c6.062,0,11.381,4.298,12.65,10.219l0.317,1.482l1.514,0.095
		c3.708,0.231,6.612,3.319,6.612,7.03C56.526-239.813,53.383-236.656,49.51-236.634z"/>
	<rect x="19.446" y="-278.627" width="2" height="7.973"/>
	<rect x="0.474" y="-259.641" width="7.973" height="2"/>
	<rect x="5.199" y="-270.859" transform="matrix(0.7071 0.7071 -0.7071 0.7071 -188.1287 -85.5358)" width="7.974" height="2"/>
	<rect x="30.708" y="-273.841" transform="matrix(0.7071 0.7071 -0.7071 0.7071 -181.5296 -101.4598)" width="2" height="7.972"/>
</g>
<path d="M145.781-256.744c-1.444-6.742-7.433-11.8-14.605-11.8c-1.799,0-3.521,0.32-5.118,0.904
	c-0.949-5.108-5.404-8.98-10.788-8.98c-0.413,0-0.819,0.027-1.222,0.071c0.744,1.112,1.179,2.448,1.179,3.886c0,3.865-3.134,7-7,7
	c-1.438,0-2.773-0.435-3.886-1.179c-0.044,0.401-0.071,0.809-0.071,1.222c0,3.712,1.845,6.987,4.661,8.979
	c-1.653,1.907-2.661,4.389-2.661,7.111c0,5.983,4.836,10.836,10.813,10.865v0.003h28.007v-0.006
	c0.042,0.001,0.082,0.006,0.124,0.006c5.001,0,9.057-4.054,9.057-9.057C154.27-252.527,150.516-256.449,145.781-256.744z
	 M106.446-263.84c0.582,0.117,1.178,0.177,1.78,0.177c4.963,0,9-4.037,9-9c0-0.603-0.06-1.198-0.177-1.78
	c3.733,0.753,6.629,3.824,7.134,7.64c-2.713,1.444-4.928,3.699-6.322,6.442c-0.241-0.016-0.48-0.036-0.725-0.036
	c-2.537,0-4.865,0.876-6.715,2.334C108.41-259.357,106.936-261.417,106.446-263.84z M145.253-240.661
	c-0.038-0.003-0.077-0.004-0.117-0.005l-2.047-0.042v0.047h-25.403l-0.594-0.003c-4.864-0.023-8.822-4.001-8.822-8.865
	c0-4.89,3.978-8.868,8.867-8.868c0.15,0,0.299,0.012,0.447,0.021l0.148,0.011l1.314,0.085l0.598-1.174
	c2.224-4.373,6.643-7.09,11.531-7.09c6.062,0,11.381,4.298,12.65,10.219l0.317,1.482l1.514,0.095
	c3.708,0.231,6.612,3.319,6.612,7.03C152.27-243.84,149.126-240.684,145.253-240.661z"/>
<g>
	<rect x="230.427" y="-248.121" width="2" height="7"/>
	<rect x="238.427" y="-252.121" width="2" height="7"/>
	<rect x="222.427" y="-252.121" width="2" height="7"/>
	<rect x="230.427" y="-238.121" width="2" height="7"/>
	<rect x="238.427" y="-242.121" width="2" height="7"/>
	<rect x="222.427" y="-242.121" width="2" height="7"/>
	<path d="M249.055-265.109c-1.596-7.445-8.207-13.029-16.127-13.029c-6.423,0-11.977,3.678-14.702,9.035
		c-0.266-0.018-0.53-0.04-0.8-0.04c-6.627,0-11.999,5.372-11.999,12c0,6.607,5.34,11.965,11.938,11.998v0.003h2.062v-2h-1.604
		l-0.447-0.003c-5.485-0.027-9.948-4.513-9.948-9.998c0-5.514,4.485-10,9.999-10c0.175,0,0.347,0.014,0.52,0.025l0.148,0.01
		l1.316,0.088l0.598-1.176c2.492-4.899,7.443-7.942,12.92-7.942c6.79,0,12.75,4.814,14.172,11.448l0.317,1.482l1.514,0.095
		c4.203,0.262,7.496,3.763,7.496,7.971c0,4.397-3.565,7.977-7.957,8c-0.05-0.003-0.093-0.005-0.137-0.007l-2.043,0.007h-2.863v2
		h4.863v-0.007c0.046,0.001,0.091,0.007,0.137,0.007c5.521,0,10-4.477,10-10C258.427-260.453,254.282-264.784,249.055-265.109z"/>
</g>
<g>
	<path d="M46.628-175.752c-1.596-7.445-8.207-13.029-16.127-13.029c-6.423,0-11.977,3.678-14.702,9.035
		c-0.266-0.018-0.53-0.04-0.8-0.04c-6.627,0-11.999,5.372-11.999,12c0,6.607,5.34,11.965,11.938,11.998v0.003H17v-2h-1.604
		l-0.447-0.003C9.463-157.815,5-162.301,5-167.786c0-5.514,4.485-10,9.999-10c0.175,0,0.347,0.014,0.52,0.025l0.148,0.01
		l1.316,0.088l0.598-1.176c2.492-4.899,7.443-7.942,12.92-7.942c6.79,0,12.75,4.814,14.172,11.448l0.317,1.482l1.514,0.095
		c4.203,0.262,7.496,3.763,7.496,7.971c0,4.397-3.565,7.977-7.957,8c-0.05-0.003-0.093-0.005-0.137-0.007l-2.043,0.007H41v2h4.863
		v-0.007c0.046,0.001,0.091,0.007,0.137,0.007c5.521,0,10-4.477,10-10C56-171.096,51.855-175.427,46.628-175.752z"/>
	<polygon points="28,-148.757 28,-146.816 28,-140.757 30,-140.757 30,-146.816 30,-148.757 30,-160.757 28,-160.757 	"/>
	<polygon points="36,-152.757 36,-151.004 36,-144.757 38,-144.757 38,-151.004 38,-152.757 38,-164.757 36,-164.757 	"/>
	<polygon points="20,-152.757 20,-150.691 20,-144.757 22,-144.757 22,-150.691 22,-152.757 22,-164.757 20,-164.757 	"/>
</g>
<g>
	<polygon points="342.277,-151.846 335.395,-161.676 333.757,-160.528 340.64,-150.698 341.752,-149.109 345.228,-144.146 
		346.866,-145.292 343.391,-150.257 	"/>
	<polygon points="350.279,-151.848 343.395,-161.676 341.757,-160.527 348.643,-150.699 349.647,-149.264 353.231,-144.148 
		354.87,-145.295 351.286,-150.411 	"/>
	<polygon points="334.277,-151.846 327.395,-161.676 325.757,-160.527 332.64,-150.698 333.824,-149.006 337.229,-144.145 
		338.866,-145.292 335.463,-150.153 	"/>
	<path d="M353.385-175.485c-1.596-7.445-8.207-13.029-16.127-13.029c-6.423,0-11.977,3.678-14.702,9.035
		c-0.266-0.018-0.53-0.04-0.8-0.04c-6.627,0-11.999,5.372-11.999,12c0,6.607,5.34,11.965,11.938,11.998v0.003h2.062v-2h-1.604
		l-0.447-0.003c-5.485-0.027-9.948-4.513-9.948-9.998c0-5.514,4.485-10,9.999-10c0.175,0,0.347,0.014,0.52,0.025l0.148,0.01
		l1.316,0.088l0.598-1.176c2.492-4.899,7.443-7.942,12.92-7.942c6.79,0,12.75,4.814,14.172,11.448l0.317,1.482l1.514,0.095
		c4.203,0.262,7.496,3.763,7.496,7.971c0,4.397-3.565,7.977-7.957,8c-0.05-0.003-0.093-0.005-0.137-0.007l-1.043,0.007h0.137v2
		h0.863v-0.007c0.046,0.001,0.091,0.007,0.137,0.007c5.521,0,10-4.477,10-10C362.757-170.829,358.612-175.16,353.385-175.485z"/>
</g>
<g>
	<rect x="325.083" y="-284.567" width="2" height="7.973"/>
	<rect x="306.083" y="-265.653" width="7.973" height="2"/>
	<rect x="310.756" y="-276.92" transform="matrix(0.7071 0.7071 -0.7071 0.7071 -102.9187 -303.3721)" width="7.974" height="2"/>
	<rect x="336.265" y="-279.902" transform="matrix(0.7071 0.7071 -0.7071 0.7071 -96.3195 -319.2961)" width="2" height="7.972"/>
	<rect x="339.083" y="-243.694" width="2" height="7"/>
	<rect x="347.083" y="-247.694" width="2" height="7"/>
	<rect x="331.083" y="-247.694" width="2" height="7"/>
	<rect x="339.083" y="-233.694" width="2" height="7"/>
	<rect x="347.083" y="-237.694" width="2" height="7"/>
	<rect x="331.083" y="-237.694" width="2" height="7"/>
	<path d="M355.595-258.777c-1.444-6.742-7.433-11.8-14.605-11.8c-2.185,0-4.258,0.47-6.126,1.313
		c-1.667-3.202-5.007-5.394-8.866-5.394c-5.522,0-10,4.477-10,9.999c0,2.46,0.899,4.702,2.373,6.442
		c-1.429,1.84-2.287,4.144-2.287,6.653c0,5.983,4.836,10.836,10.813,10.865v0.003h1.188v-2h-0.721l-0.457-0.003
		c-4.864-0.023-8.822-4.001-8.822-8.865c0-4.89,3.978-8.868,8.867-8.868c0.15,0,0.299,0.012,0.447,0.022l0.148,0.01l1.314,0.085
		l0.597-1.175c2.225-4.372,6.644-7.089,11.532-7.089c6.062,0,11.382,4.298,12.649,10.219l0.318,1.483l1.514,0.094
		c3.708,0.23,6.612,3.319,6.612,7.03c0,3.878-3.144,7.035-7.017,7.057c-0.042-0.003-0.079-0.005-0.117-0.005l-2.047,0.005h-0.819v2
		h2.819v-0.006c0.042,0.001,0.082,0.006,0.124,0.006c5.001,0,9.057-4.054,9.057-9.057
		C364.083-254.561,360.329-258.482,355.595-258.777z M327.675-262.395c-0.241-0.016-0.48-0.036-0.725-0.036
		c-2.766,0-5.282,1.041-7.2,2.743c-1.092-1.366-1.753-3.09-1.753-4.971c0-4.41,3.589-7.999,8-7.999c3.091,0,5.76,1.773,7.091,4.345
		C330.79-266.872,328.91-264.824,327.675-262.395z"/>
</g>
<g>
	<rect x="439.5" y="-245.142" width="2" height="7"/>
	<rect x="447.5" y="-249.142" width="2" height="7"/>
	<rect x="431.5" y="-249.142" width="2" height="7"/>
	<rect x="439.5" y="-235.142" width="2" height="7"/>
	<rect x="447.5" y="-239.142" width="2" height="7"/>
	<rect x="431.5" y="-239.142" width="2" height="7"/>
	<path d="M456.012-260.225c-1.444-6.742-7.433-11.8-14.605-11.8c-1.799,0-3.522,0.32-5.118,0.904
		c-0.949-5.108-5.404-8.98-10.788-8.98c-0.413,0-0.819,0.027-1.222,0.071c0.744,1.112,1.179,2.448,1.179,3.886c0,3.865-3.134,7-7,7
		c-1.438,0-2.773-0.435-3.886-1.179c-0.044,0.401-0.071,0.809-0.071,1.222c0,3.712,1.845,6.987,4.661,8.979
		c-1.653,1.907-2.661,4.389-2.661,7.111c0,5.983,4.836,10.836,10.813,10.865v0.003h1.188v-2h-0.721l-0.457-0.003
		c-4.864-0.023-8.822-4.001-8.822-8.865c0-4.89,3.978-8.868,8.867-8.868c0.15,0,0.299,0.012,0.447,0.022l0.148,0.01l1.314,0.085
		l0.597-1.175c2.225-4.372,6.644-7.089,11.532-7.089c6.062,0,11.382,4.298,12.649,10.219l0.318,1.483l1.514,0.094
		c3.708,0.23,6.612,3.319,6.612,7.03c0,3.878-3.144,7.035-7.017,7.057c-0.042-0.003-0.079-0.005-0.117-0.005l-2.047,0.005H452.5v2
		h2.819v-0.006c0.042,0.001,0.082,0.006,0.124,0.006c5.001,0,9.057-4.054,9.057-9.057C464.5-256.008,460.746-259.93,456.012-260.225
		z M428.092-263.842c-0.241-0.016-0.48-0.036-0.725-0.036c-2.537,0-4.865,0.876-6.715,2.334c-2.012-1.294-3.487-3.354-3.976-5.776
		c0.582,0.117,1.178,0.177,1.78,0.177c4.963,0,9-4.037,9-9c0-0.603-0.06-1.198-0.177-1.78c3.733,0.753,6.629,3.824,7.133,7.64
		C431.702-268.84,429.487-266.585,428.092-263.842z"/>
</g>
<g>
	<polygon points="132.27,-144.318 132.27,-142.378 132.27,-136.318 134.27,-136.318 134.27,-142.378 134.27,-144.318 
		134.27,-156.318 132.27,-156.318 	"/>
	<polygon points="140.27,-148.318 140.27,-146.565 140.27,-140.318 142.27,-140.318 142.27,-146.565 142.27,-148.318 
		142.27,-160.318 140.27,-160.318 	"/>
	<polygon points="124.27,-148.318 124.27,-146.253 124.27,-140.318 126.27,-140.318 126.27,-146.253 126.27,-148.318 
		126.27,-160.318 124.27,-160.318 	"/>
	<rect x="118.27" y="-195.221" width="2" height="7.973"/>
	<rect x="99.27" y="-176.307" width="7.973" height="2"/>
	<rect x="103.943" y="-187.573" transform="matrix(0.7071 0.7071 -0.7071 0.7071 -100.3153 -130.9639)" width="7.974" height="2"/>
	<rect x="129.451" y="-190.555" transform="matrix(0.7071 0.7071 -0.7071 0.7071 -93.7162 -146.8878)" width="2" height="7.972"/>
	<path d="M148.781-169.431c-1.444-6.742-7.433-11.8-14.605-11.8c-2.185,0-4.258,0.47-6.127,1.313
		c-1.666-3.202-5.006-5.394-8.865-5.394c-5.522,0-10,4.477-10,9.999c0,2.46,0.898,4.702,2.373,6.442
		c-1.428,1.84-2.287,4.144-2.287,6.653c0,5.983,4.836,10.836,10.813,10.865v0.003h1.188v-2h-0.721l-0.457-0.003
		c-4.864-0.023-8.822-4.001-8.822-8.865c0-4.89,3.978-8.868,8.867-8.868c0.15,0,0.299,0.012,0.447,0.022l0.148,0.01l1.314,0.085
		l0.597-1.175c2.225-4.372,6.644-7.089,11.532-7.089c6.062,0,11.382,4.298,12.649,10.219l0.318,1.483l1.514,0.094
		c3.708,0.23,6.612,3.319,6.612,7.03c0,3.878-3.144,7.035-7.017,7.057c-0.042-0.003-0.079-0.005-0.117-0.005l-2.047,0.005h-0.819v2
		h2.819v-0.006c0.042,0.001,0.082,0.006,0.124,0.006c5.001,0,9.057-4.054,9.057-9.057
		C157.27-165.214,153.516-169.136,148.781-169.431z M120.861-173.048c-0.241-0.016-0.48-0.036-0.725-0.036
		c-2.766,0-5.281,1.042-7.2,2.743c-1.092-1.367-1.753-3.09-1.753-4.971c0-4.41,3.589-7.999,8-7.999c3.092,0,5.76,1.773,7.092,4.345
		C123.977-177.526,122.098-175.478,120.861-173.048z"/>
</g>
<g>
	<polygon points="232.667,-146.835 232.667,-144.895 232.667,-138.835 234.667,-138.835 234.667,-144.895 234.667,-146.835 
		234.667,-158.835 232.667,-158.835 	"/>
	<polygon points="240.667,-150.835 240.667,-149.082 240.667,-142.835 242.667,-142.835 242.667,-149.082 242.667,-150.835 
		242.667,-162.835 240.667,-162.835 	"/>
	<polygon points="224.667,-150.835 224.667,-148.77 224.667,-142.835 226.667,-142.835 226.667,-148.77 226.667,-150.835 
		226.667,-162.835 224.667,-162.835 	"/>
	<path d="M249.179-171.947c-1.444-6.742-7.433-11.8-14.605-11.8c-1.799,0-3.521,0.32-5.118,0.904
		c-0.949-5.108-5.404-8.98-10.788-8.98c-0.413,0-0.819,0.027-1.222,0.071c0.744,1.112,1.179,2.448,1.179,3.886c0,3.865-3.134,7-7,7
		c-1.438,0-2.773-0.435-3.886-1.179c-0.044,0.401-0.071,0.809-0.071,1.222c0,3.712,1.845,6.987,4.661,8.979
		c-1.653,1.907-2.661,4.389-2.661,7.111c0,5.983,4.836,10.836,10.813,10.865v0.003h1.188v-2h-0.721l-0.457-0.003
		c-4.864-0.023-8.822-4.001-8.822-8.865c0-4.89,3.978-8.868,8.867-8.868c0.15,0,0.299,0.012,0.447,0.022l0.148,0.01l1.314,0.085
		l0.597-1.175c2.225-4.372,6.644-7.089,11.532-7.089c6.062,0,11.382,4.298,12.649,10.219l0.318,1.483l1.514,0.094
		c3.708,0.23,6.612,3.319,6.612,7.03c0,3.878-3.144,7.035-7.017,7.057c-0.042-0.003-0.079-0.005-0.117-0.005l-2.047,0.005h-0.819v2
		h2.819v-0.006c0.042,0.001,0.082,0.006,0.124,0.006c5.001,0,9.057-4.054,9.057-9.057
		C257.667-167.73,253.913-171.652,249.179-171.947z M221.259-175.564c-0.241-0.016-0.48-0.036-0.725-0.036
		c-2.537,0-4.865,0.876-6.715,2.334c-2.012-1.294-3.486-3.354-3.976-5.776c0.582,0.117,1.178,0.177,1.78,0.177c4.963,0,9-4.037,9-9
		c0-0.603-0.06-1.198-0.177-1.78c3.733,0.753,6.629,3.824,7.134,7.641C224.868-180.563,222.653-178.307,221.259-175.564z"/>
</g>
<g>
	<polygon points="449.702,-145.891 442.819,-155.721 441.182,-154.573 448.064,-144.743 449.177,-143.154 452.652,-138.19 
		454.291,-139.337 450.815,-144.302 	"/>
	<polygon points="457.704,-145.893 450.819,-155.721 449.182,-154.572 456.067,-144.744 457.072,-143.309 460.656,-138.193 
		462.295,-139.34 458.711,-144.456 	"/>
	<polygon points="441.702,-145.891 434.819,-155.721 433.182,-154.572 440.064,-144.743 441.249,-143.051 444.653,-138.189 
		446.291,-139.337 442.888,-144.198 	"/>
	<rect x="429.182" y="-193.439" width="2" height="7.973"/>
	<rect x="410.182" y="-174.525" width="7.973" height="2"/>
	<rect x="414.855" y="-185.792" transform="matrix(0.7071 0.7071 -0.7071 0.7071 -7.9917 -350.2902)" width="7.974" height="2"/>
	<rect x="440.363" y="-188.774" transform="matrix(0.7071 0.7071 -0.7071 0.7071 -1.3926 -366.2142)" width="2" height="7.972"/>
	<path d="M459.693-167.649c-1.444-6.742-7.433-11.8-14.605-11.8c-2.185,0-4.258,0.47-6.126,1.313
		c-1.667-3.202-5.007-5.394-8.866-5.394c-5.522,0-10,4.477-10,9.999c0,2.46,0.899,4.702,2.373,6.442
		c-1.429,1.84-2.287,4.144-2.287,6.653c0,5.983,4.836,10.836,10.813,10.865v0.003h1.188v-2h-0.721l-0.457-0.003
		c-4.864-0.023-8.822-4.001-8.822-8.865c0-4.89,3.978-8.868,8.867-8.868c0.15,0,0.299,0.012,0.447,0.022l0.148,0.01l1.314,0.085
		l0.597-1.175c2.225-4.372,6.644-7.089,11.532-7.089c6.062,0,11.382,4.298,12.649,10.219l0.318,1.483l1.514,0.094
		c3.708,0.23,6.612,3.319,6.612,7.03c0,3.878-3.144,7.035-7.017,7.057c-0.042-0.003-0.079-0.005-0.117-0.005l-0.047,0.005h-0.819v2
		h0.819v-0.006c0.042,0.001,0.082,0.006,0.124,0.006c5.001,0,9.057-4.054,9.057-9.057
		C468.182-163.433,464.428-167.354,459.693-167.649z M431.773-171.267c-0.241-0.016-0.48-0.036-0.725-0.036
		c-2.766,0-5.282,1.042-7.2,2.743c-1.092-1.367-1.753-3.09-1.753-4.971c0-4.41,3.589-7.999,8-7.999c3.091,0,5.76,1.773,7.091,4.345
		C434.889-175.745,433.009-173.696,431.773-171.267z"/>
</g>
<g>
	<polygon points="-273.729,-49.405 -280.611,-59.235 -282.249,-58.088 -275.366,-48.258 -274.254,-46.669 -270.778,-41.705 
		-269.14,-42.852 -272.615,-47.816 	"/>
	<polygon points="-265.727,-49.407 -272.611,-59.235 -274.249,-58.087 -267.363,-48.259 -266.358,-46.823 -262.774,-41.708 
		-261.136,-42.854 -264.72,-47.971 	"/>
	<polygon points="-281.729,-49.405 -288.611,-59.235 -290.249,-58.087 -283.366,-48.258 -282.182,-46.565 -278.777,-41.704 
		-277.14,-42.852 -280.543,-47.713 	"/>
	<path d="M-263.737-71.164c-1.444-6.742-7.433-11.8-14.605-11.8c-1.799,0-3.522,0.32-5.118,0.904
		c-0.949-5.108-5.404-8.98-10.788-8.98c-0.413,0-0.819,0.027-1.222,0.071c0.744,1.112,1.179,2.448,1.179,3.886c0,3.865-3.134,7-7,7
		c-1.438,0-2.773-0.435-3.886-1.179c-0.044,0.401-0.071,0.809-0.071,1.222c0,3.712,1.845,6.987,4.661,8.979
		c-1.653,1.907-2.661,4.389-2.661,7.111c0,5.983,4.836,10.836,10.813,10.865v0.003h1.188v-2h-0.721l-0.457-0.003
		c-4.864-0.023-8.822-4.001-8.822-8.865c0-4.89,3.978-8.868,8.867-8.868c0.15,0,0.299,0.012,0.447,0.022l0.148,0.01l1.314,0.085
		l0.597-1.175c2.225-4.372,6.644-7.089,11.532-7.089c6.062,0,11.382,4.298,12.649,10.219l0.318,1.483l1.514,0.094
		c3.708,0.23,6.612,3.319,6.612,7.03c0,3.878-3.144,7.035-7.017,7.057c-0.042-0.003-0.079-0.005-0.117-0.005l-0.047,0.005h-0.819v2
		h0.819v-0.006c0.042,0.001,0.082,0.006,0.124,0.006c5.001,0,9.057-4.054,9.057-9.057
		C-255.249-66.947-259.003-70.869-263.737-71.164z M-291.657-74.781c-0.241-0.016-0.48-0.036-0.725-0.036
		c-2.537,0-4.865,0.876-6.715,2.334c-2.012-1.294-3.487-3.354-3.976-5.776c0.582,0.117,1.178,0.177,1.78,0.177c4.963,0,9-4.037,9-9
		c0-0.603-0.06-1.198-0.177-1.78c3.733,0.753,6.629,3.824,7.133,7.641C-288.047-79.779-290.262-77.523-291.657-74.781z"/>
</g>
<g>
	<rect x="-281.249" y="-153.252" width="2" height="4"/>
	<rect x="-273.249" y="-157.273" width="2" height="4.021"/>
	<rect x="-289.249" y="-157.273" width="2" height="4.021"/>
	<path d="M-262.621-173.24c-1.596-7.445-8.207-13.029-16.127-13.029c-6.423,0-11.977,3.678-14.702,9.035
		c-0.266-0.018-0.53-0.04-0.8-0.04c-6.627,0-11.999,5.372-11.999,12c0,6.607,5.34,11.965,11.938,11.998v0.003h2.062v-2h-1.604
		l-0.447-0.003c-5.485-0.027-9.948-4.513-9.948-9.998c0-5.514,4.485-10,9.999-10c0.175,0,0.347,0.014,0.52,0.025l0.148,0.01
		l1.316,0.088l0.598-1.176c2.492-4.899,7.443-7.942,12.92-7.942c6.79,0,12.75,4.814,14.172,11.448l0.317,1.482l1.514,0.095
		c4.203,0.262,7.496,3.763,7.496,7.971c0,4.397-3.565,7.977-7.957,8c-0.05-0.003-0.093-0.005-0.137-0.007l-2.043,0.007h-2.863v2
		h4.863v-0.007c0.046,0.001,0.091,0.007,0.137,0.007c5.521,0,10-4.477,10-10C-253.249-168.584-257.394-172.915-262.621-173.24z"/>
	<circle cx="-272.249" cy="-148.231" r="1.5"/>
	<circle cx="-280.249" cy="-144.263" r="1.5"/>
	<circle cx="-288.249" cy="-148.273" r="1.5"/>
</g>
<g>
	<rect x="-188.328" y="-192.706" width="2" height="7.973"/>
	<rect x="-207.328" y="-173.792" width="7.973" height="2"/>
	<rect x="-202.655" y="-185.058" transform="matrix(0.7071 0.7071 -0.7071 0.7071 -188.3376 86.5699)" width="7.974" height="2"/>
	<rect x="-177.146" y="-188.04" transform="matrix(0.7071 0.7071 -0.7071 0.7071 -181.7384 70.646)" width="2" height="7.972"/>
	<path d="M-157.816-166.916c-1.444-6.742-7.433-11.8-14.605-11.8c-2.185,0-4.258,0.47-6.126,1.313
		c-1.667-3.202-5.007-5.394-8.866-5.394c-5.522,0-10,4.477-10,9.999c0,2.46,0.899,4.702,2.373,6.442
		c-1.429,1.84-2.287,4.144-2.287,6.653c0,5.983,4.836,10.836,10.813,10.865v0.003h1.188v-2h-0.721l-0.457-0.003
		c-4.864-0.023-8.822-4.001-8.822-8.865c0-4.89,3.978-8.868,8.867-8.868c0.15,0,0.299,0.012,0.447,0.022l0.148,0.01l1.314,0.085
		l0.597-1.175c2.225-4.372,6.644-7.089,11.532-7.089c6.062,0,11.382,4.298,12.649,10.219l0.318,1.483l1.514,0.094
		c3.708,0.23,6.612,3.319,6.612,7.03c0,3.878-3.144,7.035-7.017,7.057c-0.042-0.003-0.079-0.005-0.117-0.005l-2.047,0.005h-0.819v2
		h2.819v-0.006c0.042,0.001,0.082,0.006,0.124,0.006c5.001,0,9.057-4.054,9.057-9.057
		C-149.328-162.699-153.082-166.621-157.816-166.916z M-185.736-170.533c-0.241-0.016-0.48-0.036-0.725-0.036
		c-2.766,0-5.282,1.042-7.2,2.743c-1.092-1.367-1.753-3.09-1.753-4.971c0-4.41,3.589-7.999,8-7.999c3.091,0,5.76,1.773,7.091,4.345
		C-182.621-175.012-184.501-172.963-185.736-170.533z"/>
	<rect x="-174.328" y="-148.817" width="2" height="4"/>
	<rect x="-166.328" y="-152.839" width="2" height="4.021"/>
	<rect x="-182.328" y="-152.839" width="2" height="4.021"/>
	<circle cx="-165.328" cy="-143.797" r="1.5"/>
	<circle cx="-173.328" cy="-139.828" r="1.5"/>
	<circle cx="-181.328" cy="-143.839" r="1.5"/>
</g>
<g>
	<path d="M-56.891-167.873c-1.444-6.742-7.433-11.8-14.605-11.8c-1.799,0-3.522,0.32-5.118,0.904
		c-0.949-5.108-5.404-8.98-10.788-8.98c-0.413,0-0.819,0.027-1.222,0.071c0.744,1.112,1.179,2.448,1.179,3.886c0,3.865-3.134,7-7,7
		c-1.438,0-2.773-0.435-3.886-1.179c-0.044,0.401-0.071,0.809-0.071,1.222c0,3.712,1.845,6.987,4.661,8.979
		c-1.653,1.907-2.661,4.389-2.661,7.111c0,5.983,4.836,10.836,10.813,10.865v0.003h1.188v-2h-0.721l-0.457-0.003
		c-4.864-0.023-8.822-4.001-8.822-8.865c0-4.89,3.978-8.868,8.867-8.868c0.15,0,0.299,0.012,0.447,0.022l0.148,0.01l1.314,0.085
		l0.597-1.175c2.225-4.372,6.644-7.089,11.532-7.089c6.062,0,11.382,4.298,12.649,10.219l0.318,1.483l1.514,0.094
		c3.708,0.23,6.612,3.319,6.612,7.03c0,3.878-3.144,7.035-7.017,7.057c-0.042-0.003-0.079-0.005-0.117-0.005l-2.047,0.005h-0.819v2
		h2.819v-0.006c0.042,0.001,0.082,0.006,0.124,0.006c5.001,0,9.057-4.054,9.057-9.057
		C-48.402-163.656-52.156-167.578-56.891-167.873z M-84.811-171.49c-0.241-0.016-0.48-0.036-0.725-0.036
		c-2.537,0-4.865,0.876-6.715,2.334c-2.012-1.294-3.487-3.354-3.976-5.776c0.582,0.117,1.178,0.177,1.78,0.177c4.963,0,9-4.037,9-9
		c0-0.603-0.06-1.198-0.177-1.78c3.733,0.753,6.629,3.824,7.133,7.641C-81.2-176.488-83.415-174.232-84.811-171.49z"/>
	<rect x="-73.402" y="-149.774" width="2" height="4"/>
	<rect x="-65.402" y="-153.796" width="2" height="4.021"/>
	<rect x="-81.402" y="-153.796" width="2" height="4.021"/>
	<circle cx="-64.402" cy="-144.754" r="1.5"/>
	<circle cx="-72.402" cy="-140.785" r="1.5"/>
	<circle cx="-80.402" cy="-144.796" r="1.5"/>
</g>
<g>
	<path d="M-160.2-74.843c-1.596-7.445-8.207-13.029-16.127-13.029c-6.423,0-11.977,3.678-14.702,9.035
		c-0.266-0.018-0.53-0.04-0.8-0.04c-6.627,0-11.999,5.372-11.999,12c0,6.607,5.34,11.965,11.938,11.998v0.003h6.062v-2h-5.604
		l-0.447-0.003c-5.485-0.027-9.948-4.513-9.948-9.998c0-5.514,4.485-10,9.999-10c0.175,0,0.347,0.014,0.52,0.025l0.148,0.01
		l1.316,0.088l0.598-1.176c2.492-4.899,7.443-7.942,12.92-7.942c6.79,0,12.75,4.814,14.172,11.448l0.317,1.482l1.514,0.095
		c4.203,0.262,7.496,3.763,7.496,7.971c0,4.397-3.565,7.977-7.957,8c-0.05-0.003-0.093-0.005-0.137-0.007l-5.043,0.007h0.137v2
		h4.863v-0.007c0.046,0.001,0.091,0.007,0.137,0.007c5.521,0,10-4.477,10-10C-150.828-70.187-154.973-74.518-160.2-74.843z"/>
	<polygon points="-175.986,-54.872 -174.217,-54.872 -173.786,-54.872 -171.776,-54.872 -178.19,-64.033 -179.828,-62.886 
		-175.617,-56.872 -177.388,-56.872 -179.828,-56.872 -178.557,-55.056 -177.444,-53.467 -171.467,-44.872 -169.828,-46.019 
		-175.806,-54.614 	"/>
</g>
<g>
	<rect x="-84.402" y="-93.973" width="2" height="7.973"/>
	<rect x="-103.402" y="-75.059" width="7.973" height="2"/>
	<rect x="-98.729" y="-86.325" transform="matrix(0.7071 0.7071 -0.7071 0.7071 -88.0834 42.0017)" width="7.974" height="2"/>
	<rect x="-73.221" y="-89.307" transform="matrix(0.7071 0.7071 -0.7071 0.7071 -81.4842 26.0777)" width="2" height="7.972"/>
	<path d="M-53.891-68.183c-1.444-6.742-7.433-11.8-14.605-11.8c-2.185,0-4.258,0.47-6.127,1.313
		c-1.666-3.202-5.006-5.394-8.865-5.394c-5.522,0-10,4.477-10,9.999c0,2.46,0.898,4.702,2.373,6.442
		c-1.428,1.84-2.287,4.144-2.287,6.653c0,5.983,4.836,10.836,10.813,10.865v0.003h4.188v-2h-3.721l-0.457-0.003
		c-4.864-0.023-8.822-4.001-8.822-8.865c0-4.89,3.978-8.868,8.867-8.868c0.15,0,0.299,0.012,0.447,0.022l0.148,0.01l1.314,0.085
		l0.597-1.175c2.225-4.372,6.644-7.089,11.532-7.089c6.062,0,11.382,4.298,12.649,10.219l0.318,1.483l1.514,0.094
		c3.708,0.23,6.612,3.319,6.612,7.03c0,3.878-3.144,7.035-7.017,7.057c-0.042-0.003-0.079-0.005-0.117-0.005l-2.047,0.005h-3.819v2
		h5.819v-0.006c0.042,0.001,0.082,0.006,0.124,0.006c5.001,0,9.057-4.054,9.057-9.057C-45.402-63.966-49.156-67.888-53.891-68.183z
		 M-81.811-71.8c-0.241-0.016-0.48-0.036-0.725-0.036c-2.766,0-5.281,1.041-7.2,2.743c-1.092-1.366-1.753-3.09-1.753-4.971
		c0-4.41,3.589-7.999,8-7.999c3.092,0,5.76,1.773,7.092,4.345C-78.695-76.277-80.574-74.229-81.811-71.8z"/>
	<polygon points="-69.561,-50.093 -67.791,-50.093 -67.36,-50.093 -65.351,-50.093 -71.765,-59.254 -73.402,-58.106 
		-69.191,-52.093 -70.962,-52.093 -73.402,-52.093 -72.131,-50.276 -71.019,-48.688 -65.041,-40.093 -63.402,-41.239 
		-69.38,-49.835 	"/>
</g>
<g>
	<path d="M45.694-70.479c-1.444-6.742-7.433-11.8-14.605-11.8c-1.799,0-3.521,0.32-5.118,0.904c-0.949-5.108-5.404-8.98-10.788-8.98
		c-0.413,0-0.819,0.027-1.222,0.071c0.744,1.112,1.179,2.448,1.179,3.886c0,3.865-3.134,7-7,7c-1.438,0-2.773-0.435-3.886-1.179
		c-0.044,0.401-0.071,0.809-0.071,1.222c0,3.712,1.845,6.987,4.661,8.979c-1.653,1.907-2.661,4.389-2.661,7.111
		c0,5.983,4.836,10.836,10.813,10.865v0.003h4.188v-2h-3.721l-0.457-0.003c-4.864-0.023-8.822-4.001-8.822-8.865
		c0-4.89,3.978-8.868,8.867-8.868c0.15,0,0.299,0.012,0.447,0.022l0.148,0.01l1.314,0.085l0.597-1.175
		c2.225-4.372,6.644-7.089,11.532-7.089c6.062,0,11.382,4.298,12.649,10.219l0.318,1.483l1.514,0.094
		c3.708,0.23,6.612,3.319,6.612,7.03c0,3.878-3.144,7.035-7.017,7.057c-0.042-0.003-0.079-0.005-0.117-0.005l-2.047,0.005h-3.819v2
		h5.819v-0.006c0.042,0.001,0.082,0.006,0.124,0.006c5.001,0,9.057-4.054,9.057-9.057C54.183-66.262,50.429-70.184,45.694-70.479z
		 M17.774-74.096c-0.241-0.016-0.48-0.036-0.725-0.036c-2.537,0-4.865,0.876-6.715,2.334c-2.012-1.294-3.486-3.354-3.976-5.776
		c0.582,0.117,1.178,0.177,1.78,0.177c4.963,0,9-4.037,9-9c0-0.603-0.06-1.198-0.177-1.78c3.733,0.753,6.629,3.824,7.134,7.64
		C21.384-79.094,19.169-76.839,17.774-74.096z"/>
	<polygon points="30.024,-52.389 31.794,-52.389 32.225,-52.389 34.234,-52.389 27.82,-61.55 26.183,-60.402 30.394,-54.389 
		28.623,-54.389 26.183,-54.389 27.454,-52.572 28.566,-50.983 34.544,-42.389 36.183,-43.535 30.205,-52.131 	"/>
</g>
<g>
	<path d="M146.579-74.343c-1.596-7.445-8.207-13.029-16.127-13.029c-6.423,0-11.977,3.678-14.702,9.035
		c-0.266-0.018-0.53-0.04-0.8-0.04c-6.627,0-11.999,5.372-11.999,12c0,6.607,5.34,11.965,11.938,11.998v0.003h1.062v-2h-0.604
		l-0.447-0.003c-5.485-0.027-9.948-4.513-9.948-9.998c0-5.514,4.485-10,9.999-10c0.175,0,0.347,0.014,0.52,0.025l0.148,0.01
		l1.316,0.088l0.598-1.176c2.492-4.899,7.443-7.942,12.92-7.942c6.79,0,12.75,4.814,14.172,11.448l0.317,1.482l1.514,0.095
		c4.203,0.262,7.496,3.763,7.496,7.971c0,4.397-3.565,7.977-7.957,8c-0.05-0.003-0.093-0.005-0.137-0.007l-0.906,0.007v2h0.863
		v-0.007c0.046,0.001,0.091,0.007,0.137,0.007c5.521,0,10-4.477,10-10C155.951-69.687,151.807-74.018,146.579-74.343z"/>
	
		<rect x="115.386" y="-56.378" transform="matrix(-0.5736 -0.8191 0.8191 -0.5736 235.7351 11.9478)" width="11.183" height="1.999"/>
	
		<rect x="133.36" y="-56.378" transform="matrix(-0.5736 -0.8191 0.8191 -0.5736 264.0206 26.6709)" width="11.183" height="1.999"/>
	<polygon points="131.793,-51.372 133.563,-51.372 133.993,-51.372 136.003,-51.372 129.589,-60.533 127.951,-59.386 
		132.162,-53.372 130.392,-53.372 127.951,-53.372 129.223,-51.556 130.335,-49.967 134.951,-43.372 136.59,-44.519 
		131.974,-51.114 	"/>
</g>
<g>
	<rect x="221.427" y="-93.81" width="2" height="7.973"/>
	<rect x="202.427" y="-74.896" width="7.973" height="2"/>
	<rect x="207.1" y="-86.162" transform="matrix(0.7071 0.7071 -0.7071 0.7071 1.6072 -174.2044)" width="7.974" height="2"/>
	<rect x="232.609" y="-89.144" transform="matrix(0.7071 0.7071 -0.7071 0.7071 8.2064 -190.1283)" width="2" height="7.972"/>
	<path d="M251.938-68.02c-1.444-6.742-7.433-11.8-14.605-11.8c-2.185,0-4.258,0.47-6.126,1.313
		c-1.667-3.202-5.007-5.394-8.866-5.394c-5.522,0-10,4.477-10,9.999c0,2.46,0.899,4.702,2.373,6.442
		c-1.429,1.84-2.287,4.144-2.287,6.653c0,5.983,4.836,10.836,10.813,10.865v0.003h0.188v-2l-0.178-0.003
		c-4.864-0.023-8.822-4.001-8.822-8.865c0-4.89,3.978-8.868,8.867-8.868c0.15,0,0.299,0.012,0.447,0.022l0.148,0.01l1.314,0.085
		l0.597-1.175c2.225-4.372,6.644-7.089,11.532-7.089c6.062,0,11.382,4.298,12.649,10.219l0.318,1.483l1.514,0.094
		c3.708,0.23,6.612,3.319,6.612,7.03c0,3.878-3.144,7.035-7.017,7.057c-0.042-0.003-0.079-0.005-0.117-0.005l-0.866,0.005v2h0.819
		v-0.006c0.042,0.001,0.082,0.006,0.124,0.006c5.001,0,9.057-4.054,9.057-9.057C260.427-63.803,256.673-67.725,251.938-68.02z
		 M224.019-71.637c-0.241-0.016-0.48-0.036-0.725-0.036c-2.766,0-5.282,1.042-7.2,2.743c-1.092-1.367-1.753-3.09-1.753-4.971
		c0-4.41,3.589-7.999,8-7.999c3.091,0,5.76,1.773,7.091,4.345C227.134-76.115,225.254-74.066,224.019-71.637z"/>
	
		<rect x="221.848" y="-51.939" transform="matrix(-0.5736 -0.8191 0.8191 -0.5736 399.6335 106.137)" width="11.183" height="1.999"/>
	
		<rect x="239.823" y="-51.939" transform="matrix(-0.5736 -0.8191 0.8191 -0.5736 427.9191 120.8602)" width="11.183" height="1.999"/>
	<polygon points="238.256,-46.934 240.025,-46.934 240.456,-46.934 242.466,-46.934 236.052,-56.095 234.414,-54.947 
		238.625,-48.934 236.854,-48.934 234.414,-48.934 235.686,-47.117 236.798,-45.528 241.414,-38.934 243.053,-40.08 
		238.437,-46.676 	"/>
</g>
<g>
	<path d="M353.776-70.978c-1.444-6.742-7.433-11.8-14.605-11.8c-1.799,0-3.522,0.32-5.118,0.904
		c-0.949-5.108-5.404-8.98-10.788-8.98c-0.413,0-0.819,0.027-1.222,0.071c0.744,1.112,1.179,2.448,1.179,3.886c0,3.865-3.134,7-7,7
		c-1.438,0-2.773-0.435-3.886-1.179c-0.044,0.401-0.071,0.809-0.071,1.222c0,3.712,1.845,6.987,4.661,8.979
		c-1.653,1.907-2.661,4.389-2.661,7.111c0,5.983,4.836,10.836,10.813,10.865v0.003h0.188v-2l-0.178-0.003
		c-4.864-0.023-8.822-4.001-8.822-8.865c0-4.89,3.978-8.868,8.867-8.868c0.15,0,0.299,0.012,0.447,0.022l0.148,0.01l1.314,0.085
		l0.597-1.175c2.225-4.372,6.644-7.089,11.532-7.089c6.062,0,11.382,4.298,12.649,10.219l0.318,1.483l1.514,0.094
		c3.708,0.23,6.612,3.319,6.612,7.03c0,3.878-3.144,7.035-7.017,7.057c-0.042-0.003-0.079-0.005-0.117-0.005l-0.866,0.005v2h0.819
		V-52.9c0.042,0.001,0.082,0.006,0.124,0.006c5.001,0,9.057-4.054,9.057-9.057C362.265-66.761,358.511-70.683,353.776-70.978z
		 M325.856-74.595c-0.241-0.016-0.48-0.036-0.725-0.036c-2.537,0-4.865,0.876-6.715,2.334c-2.012-1.294-3.487-3.354-3.976-5.776
		c0.582,0.117,1.178,0.177,1.78,0.177c4.963,0,9-4.037,9-9c0-0.603-0.06-1.198-0.177-1.78c3.733,0.753,6.629,3.824,7.133,7.641
		C329.467-79.593,327.252-77.337,325.856-74.595z"/>
	
		<rect x="323.685" y="-54.897" transform="matrix(-0.5736 -0.8191 0.8191 -0.5736 562.3109 184.8977)" width="11.183" height="1.999"/>
	
		<rect x="341.66" y="-54.897" transform="matrix(-0.5736 -0.8191 0.8191 -0.5736 590.5964 199.6209)" width="11.183" height="1.999"/>
	<polygon points="340.093,-49.892 341.862,-49.892 342.293,-49.892 344.303,-49.892 337.889,-59.053 336.251,-57.905 
		340.462,-51.892 338.691,-51.892 336.251,-51.892 337.522,-50.075 338.635,-48.486 343.251,-41.892 344.89,-43.038 
		340.273,-49.634 	"/>
</g>
<g>
	<g>
		<path d="M-56.786,15.478c-1.596-7.445-8.207-13.029-16.127-13.029c-6.423,0-11.977,3.678-14.702,9.035
			c-0.266-0.018-0.53-0.04-0.8-0.04c-6.627,0-11.999,5.372-11.999,12c0,6.607,5.34,11.965,11.938,11.998v0.003h2.062v-2h-1.604
			l-0.447-0.003c-5.485-0.027-9.948-4.513-9.948-9.998c0-5.514,4.485-10,9.999-10c0.175,0,0.347,0.014,0.52,0.025l0.148,0.01
			l1.316,0.088l0.598-1.176c2.492-4.899,7.443-7.942,12.92-7.942c6.79,0,12.75,4.814,14.172,11.448l0.317,1.482l1.514,0.095
			c4.203,0.262,7.496,3.763,7.496,7.971c0,4.397-3.565,7.977-7.957,8c-0.05-0.003-0.093-0.005-0.137-0.007l-2.043,0.007h-2.863v2
			h4.863v-0.007c0.046,0.001,0.091,0.007,0.137,0.007c5.521,0,10-4.477,10-10C-47.414,20.134-51.559,15.803-56.786,15.478z"/>
	</g>
	<g>
		<circle cx="-81.914" cy="29.021" r="1.5"/>
	</g>
	<g>
		<circle cx="-77.914" cy="34.944" r="1.5"/>
	</g>
	<g>
		<circle cx="-69.914" cy="34.944" r="1.5"/>
	</g>
	<g>
		<circle cx="-73.914" cy="29.021" r="1.5"/>
	</g>
	<g>
		<circle cx="-65.914" cy="29.021" r="1.5"/>
	</g>
	<g>
		<circle cx="-81.914" cy="40.966" r="1.5"/>
	</g>
	<g>
		<circle cx="-73.914" cy="40.966" r="1.5"/>
	</g>
	<g>
		<circle cx="-65.914" cy="40.966" r="1.5"/>
	</g>
</g>
<g>
	<g>
		<rect x="19" width="2" height="7.973"/>
	</g>
	<g>
		<rect y="18.914" width="7.973" height="2"/>
	</g>
	<g>
		<rect x="4.673" y="7.648" transform="matrix(0.7071 0.7071 -0.7071 0.7071 8.6512 -3.5909)" width="7.974" height="2"/>
	</g>
	<g>
		<rect x="30.182" y="4.666" transform="matrix(0.7071 0.7071 -0.7071 0.7071 15.2503 -19.5148)" width="2" height="7.972"/>
	</g>
	<g>
		<path d="M49.512,25.79c-1.444-6.742-7.433-11.8-14.605-11.8c-2.185,0-4.258,0.47-6.127,1.313
			c-1.666-3.202-5.006-5.394-8.865-5.394c-5.522,0-10,4.477-10,9.999c0,2.46,0.898,4.702,2.373,6.442
			C10.859,28.191,10,30.495,10,33.005c0,5.983,4.836,10.836,10.813,10.865v0.003H22v-2h-0.721l-0.457-0.003
			C15.958,41.847,12,37.869,12,33.005c0-4.89,3.978-8.868,8.867-8.868c0.15,0,0.299,0.012,0.447,0.022l0.148,0.01l1.314,0.085
			l0.597-1.175c2.225-4.372,6.644-7.089,11.532-7.089c6.062,0,11.382,4.298,12.649,10.219l0.318,1.483l1.514,0.094
			c3.708,0.23,6.612,3.319,6.612,7.03c0,3.878-3.144,7.035-7.017,7.057c-0.042-0.003-0.079-0.005-0.117-0.005l-2.047,0.005H45v2
			h3.819v-0.006c0.042,0.001,0.082,0.006,0.124,0.006c5.001,0,9.057-4.054,9.057-9.057C58,30.007,54.246,26.085,49.512,25.79z
			 M21.592,22.173c-0.241-0.016-0.48-0.036-0.725-0.036c-2.766,0-5.281,1.042-7.2,2.743c-1.092-1.367-1.753-3.09-1.753-4.971
			c0-4.41,3.589-7.999,8-7.999c3.092,0,5.76,1.773,7.092,4.345C24.707,17.694,22.828,19.743,21.592,22.173z"/>
	</g>
	<g>
		<circle cx="25.489" cy="37.384" r="1.5"/>
	</g>
	<g>
		<circle cx="29.489" cy="43.384" r="1.5"/>
	</g>
	<g>
		<circle cx="37.489" cy="43.384" r="1.5"/>
	</g>
	<g>
		<circle cx="33.489" cy="37.384" r="1.5"/>
	</g>
	<g>
		<circle cx="41.489" cy="37.384" r="1.5"/>
	</g>
	<g>
		<circle cx="25.489" cy="49.405" r="1.5"/>
	</g>
	<g>
		<circle cx="33.489" cy="49.405" r="1.5"/>
	</g>
	<g>
		<circle cx="41.489" cy="49.405" r="1.5"/>
	</g>
</g>
<g>
	<g>
		<path d="M145.463,21.834c-1.444-6.742-7.433-11.8-14.605-11.8c-1.799,0-3.521,0.32-5.118,0.904
			c-0.949-5.108-5.404-8.98-10.788-8.98c-0.413,0-0.819,0.027-1.222,0.071c0.744,1.112,1.179,2.448,1.179,3.886c0,3.865-3.134,7-7,7
			c-1.438,0-2.773-0.435-3.886-1.179c-0.044,0.401-0.071,0.809-0.071,1.222c0,3.712,1.845,6.987,4.661,8.979
			c-1.653,1.907-2.661,4.389-2.661,7.111c0,5.983,4.836,10.836,10.813,10.865v0.003h1.188v-2h-0.721l-0.457-0.003
			c-4.864-0.023-8.822-4.001-8.822-8.865c0-4.89,3.978-8.868,8.867-8.868c0.15,0,0.299,0.012,0.447,0.022l0.148,0.01l1.314,0.085
			l0.597-1.175c2.225-4.372,6.644-7.089,11.532-7.089c6.062,0,11.382,4.298,12.649,10.219l0.318,1.483l1.514,0.094
			c3.708,0.23,6.612,3.319,6.612,7.03c0,3.878-3.144,7.035-7.017,7.057c-0.042-0.003-0.079-0.005-0.117-0.005l-2.047,0.005h-1.819v2
			h3.819v-0.006c0.042,0.001,0.082,0.006,0.124,0.006c5.001,0,9.057-4.054,9.057-9.057
			C153.951,26.051,150.197,22.129,145.463,21.834z M117.543,18.217c-0.241-0.016-0.48-0.036-0.725-0.036
			c-2.537,0-4.865,0.876-6.715,2.334c-2.012-1.294-3.486-3.354-3.976-5.776c0.582,0.117,1.178,0.177,1.78,0.177c4.963,0,9-4.037,9-9
			c0-0.603-0.06-1.198-0.177-1.78c3.733,0.753,6.629,3.824,7.134,7.64C121.152,13.219,118.938,15.474,117.543,18.217z"/>
	</g>
	<g>
		<circle cx="121.451" cy="33.427" r="1.5"/>
	</g>
	<g>
		<circle cx="125.451" cy="39.427" r="1.5"/>
	</g>
	<g>
		<circle cx="133.451" cy="39.427" r="1.5"/>
	</g>
	<g>
		<circle cx="129.451" cy="33.427" r="1.5"/>
	</g>
	<g>
		<circle cx="137.451" cy="33.427" r="1.5"/>
	</g>
	<g>
		<circle cx="121.451" cy="45.448" r="1.5"/>
	</g>
	<g>
		<circle cx="129.451" cy="45.448" r="1.5"/>
	</g>
	<g>
		<circle cx="137.451" cy="45.448" r="1.5"/>
	</g>
</g>
<g>
	<path d="M456.628-77.052c-1.596-7.445-8.207-13.029-16.127-13.029c-6.423,0-11.977,3.678-14.702,9.035
		c-0.266-0.018-0.53-0.04-0.8-0.04c-6.627,0-11.999,5.372-11.999,12c0,6.607,5.34,11.965,11.938,11.998v0.003H427v-2h-1.604
		l-0.447-0.003c-5.485-0.027-9.948-4.513-9.948-9.998c0-5.514,4.485-10,9.999-10c0.175,0,0.347,0.014,0.52,0.025l0.148,0.01
		l1.316,0.088l0.598-1.176c2.492-4.899,7.443-7.942,12.92-7.942c6.79,0,12.75,4.814,14.172,11.448l0.317,1.482l1.514,0.095
		c4.203,0.262,7.496,3.763,7.496,7.971c0,4.397-3.565,7.977-7.957,8c-0.05-0.003-0.093-0.005-0.137-0.007l-2.043,0.007H451v2h4.863
		v-0.007c0.046,0.001,0.091,0.007,0.137,0.007c5.521,0,10-4.477,10-10C466-72.396,461.855-76.727,456.628-77.052z"/>
	<circle cx="431" cy="-49.581" r="1.5"/>
	<circle cx="439" cy="-43.581" r="1.5"/>
	<circle cx="447" cy="-47.581" r="1.5"/>
	<rect x="430" y="-66.057" width="2" height="11.976"/>
	<polygon points="440,-48.116 440,-50.057 440,-62.057 438,-62.057 438,-50.057 438,-48.116 438,-48.081 440,-48.081 	"/>
	<polygon points="448,-52.304 448,-54.057 448,-66.057 446,-66.057 446,-54.057 446,-52.304 446,-52.081 448,-52.081 	"/>
</g>
<g>
	<rect x="-291.749" y="-5.438" width="2" height="7.973"/>
	<rect x="-310.749" y="13.476" width="7.973" height="2"/>
	<rect x="-306.076" y="2.209" transform="matrix(0.7071 0.7071 -0.7071 0.7071 -86.2107 214.549)" width="7.974" height="2"/>
	<rect x="-280.567" y="-0.773" transform="matrix(0.7071 0.7071 -0.7071 0.7071 -79.6115 198.625)" width="2" height="7.972"/>
	<path d="M-261.237,20.352c-1.444-6.742-7.433-11.8-14.605-11.8c-2.185,0-4.258,0.47-6.126,1.313
		c-1.667-3.202-5.007-5.394-8.866-5.394c-5.522,0-10,4.477-10,9.999c0,2.46,0.899,4.702,2.373,6.442
		c-1.429,1.84-2.287,4.144-2.287,6.653c0,5.983,4.836,10.836,10.813,10.865v0.003h1.188v-2h-0.721l-0.457-0.003
		c-4.864-0.023-8.822-4.001-8.822-8.865c0-4.89,3.978-8.868,8.867-8.868c0.15,0,0.299,0.012,0.447,0.022l0.148,0.01l1.314,0.085
		l0.597-1.175c2.225-4.372,6.644-7.089,11.532-7.089c6.062,0,11.382,4.298,12.649,10.219l0.318,1.483l1.514,0.094
		c3.708,0.23,6.612,3.319,6.612,7.03c0,3.878-3.144,7.035-7.017,7.057c-0.042-0.003-0.079-0.005-0.117-0.005l-2.047,0.005h-0.819v2
		h2.819v-0.006c0.042,0.001,0.082,0.006,0.124,0.006c5.001,0,9.057-4.054,9.057-9.057
		C-252.749,24.568-256.503,20.646-261.237,20.352z M-289.157,16.734c-0.241-0.016-0.48-0.036-0.725-0.036
		c-2.766,0-5.282,1.041-7.2,2.743c-1.092-1.366-1.753-3.09-1.753-4.971c0-4.41,3.589-7.999,8-7.999c3.091,0,5.76,1.773,7.091,4.345
		C-286.042,12.257-287.922,14.305-289.157,16.734z"/>
	<circle cx="-284.759" cy="46.922" r="1.5"/>
	<circle cx="-276.759" cy="52.922" r="1.5"/>
	<circle cx="-268.759" cy="48.922" r="1.5"/>
	<rect x="-285.759" y="30.446" width="2" height="11.976"/>
	<polygon points="-275.759,48.387 -275.759,46.446 -275.759,34.446 -277.759,34.446 -277.759,46.446 -277.759,48.387 
		-277.759,48.422 -275.759,48.422 	"/>
	<polygon points="-267.759,44.199 -267.759,42.446 -267.759,30.446 -269.759,30.446 -269.759,42.446 -269.759,44.199 
		-269.759,44.422 -267.759,44.422 	"/>
</g>
<g>
	<path d="M-160.635,17.354c-1.444-6.742-7.433-11.8-14.605-11.8c-1.799,0-3.522,0.32-5.118,0.904
		c-0.949-5.108-5.404-8.98-10.788-8.98c-0.413,0-0.819,0.027-1.222,0.071c0.744,1.112,1.179,2.448,1.179,3.886c0,3.865-3.134,7-7,7
		c-1.438,0-2.773-0.435-3.886-1.179c-0.044,0.401-0.071,0.809-0.071,1.222c0,3.712,1.845,6.987,4.661,8.979
		c-1.653,1.907-2.661,4.389-2.661,7.111c0,5.983,4.836,10.836,10.813,10.865v0.003h1.188v-2h-0.721l-0.457-0.003
		c-4.864-0.023-8.822-4.001-8.822-8.865c0-4.89,3.978-8.868,8.867-8.868c0.15,0,0.299,0.012,0.447,0.022l0.148,0.01l1.314,0.085
		l0.597-1.175c2.225-4.372,6.644-7.089,11.532-7.089c6.062,0,11.382,4.298,12.649,10.219l0.318,1.483l1.514,0.094
		c3.708,0.23,6.612,3.319,6.612,7.03c0,3.878-3.144,7.035-7.017,7.057c-0.042-0.003-0.079-0.005-0.117-0.005l-2.047,0.005h-0.819v2
		h2.819v-0.006c0.042,0.001,0.082,0.006,0.124,0.006c5.001,0,9.057-4.054,9.057-9.057C-152.146,21.57-155.9,17.648-160.635,17.354z
		 M-188.555,13.736c-0.241-0.016-0.48-0.036-0.725-0.036c-2.537,0-4.865,0.876-6.715,2.334c-2.012-1.294-3.487-3.354-3.976-5.776
		c0.582,0.117,1.178,0.177,1.78,0.177c4.963,0,9-4.037,9-9c0-0.603-0.06-1.198-0.177-1.78c3.733,0.753,6.629,3.824,7.133,7.64
		C-184.944,8.738-187.159,10.993-188.555,13.736z"/>
	<circle cx="-184.146" cy="43.928" r="1.5"/>
	<circle cx="-176.146" cy="49.928" r="1.5"/>
	<circle cx="-168.146" cy="45.928" r="1.5"/>
	<rect x="-185.146" y="27.452" width="2" height="11.976"/>
	<polygon points="-175.146,45.393 -175.146,43.452 -175.146,31.452 -177.146,31.452 -177.146,43.452 -177.146,45.393 
		-177.146,45.428 -175.146,45.428 	"/>
	<polygon points="-167.146,41.205 -167.146,39.452 -167.146,27.452 -169.146,27.452 -169.146,39.452 -169.146,41.205 
		-169.146,41.428 -167.146,41.428 	"/>
</g>
<g>
	<rect x="-308.749" y="121.794" width="56" height="2"/>
	<rect x="-304.749" y="127.794" width="50" height="2"/>
	<rect x="-298.749" y="133.794" width="36" height="2"/>
	<rect x="-306.749" y="115.794" width="52" height="2"/>
	<path d="M-294.875,107.789c0.175,0,0.347,0.014,0.519,0.025l0.149,0.01l1.316,0.088l0.598-1.176
		c2.493-4.899,7.443-7.942,12.92-7.942c6.79,0,12.75,4.814,14.171,11.448l0.318,1.482l1.514,0.095
		c1.207,0.075,2.335,0.425,3.336,0.975h3.286c-1.678-1.703-3.957-2.813-6.498-2.971c-1.596-7.445-8.207-13.029-16.127-13.029
		c-6.423,0-11.977,3.678-14.702,9.035c-0.266-0.018-0.53-0.04-0.8-0.04c-4.843,0-9.004,2.874-10.9,7.005h2.251
		C-301.793,109.808-298.568,107.789-294.875,107.789z"/>
</g>
<g>
	<rect x="-187.646" y="94.279" width="2" height="7.973"/>
	<rect x="-206.646" y="113.193" width="7.973" height="2"/>
	<rect x="-201.973" y="101.927" transform="matrix(0.7071 0.7071 -0.7071 0.7071 14.7914 170.144)" width="7.974" height="2"/>
	<rect x="-176.465" y="98.945" transform="matrix(0.7071 0.7071 -0.7071 0.7071 21.3905 154.2201)" width="2" height="7.972"/>
	<rect x="-197.646" y="128.153" width="50" height="2"/>
	<rect x="-193.646" y="134.153" width="44" height="2"/>
	<rect x="-187.646" y="139.153" width="30" height="2"/>
	<rect x="-195.646" y="122.153" width="46" height="2"/>
	<path d="M-194.738,120.153h0.771h1.927h1.012c1.472-1.087,3.283-1.737,5.249-1.737c0.15,0,0.299,0.012,0.447,0.022l0.148,0.01
		l1.314,0.085l0.597-1.175c2.225-4.372,6.644-7.089,11.532-7.089c5.945,0,11.168,4.139,12.563,9.884h2.043v-0.084
		c-1.444-6.742-7.433-11.8-14.605-11.8c-2.185,0-4.258,0.47-6.126,1.313c-1.667-3.202-5.007-5.394-8.866-5.394
		c-5.522,0-10,4.477-10,9.999C-196.732,116.43-195.984,118.488-194.738,120.153z M-186.732,106.189c3.091,0,5.76,1.773,7.091,4.345
		c-2.298,1.44-4.178,3.488-5.413,5.918c-0.241-0.016-0.48-0.036-0.725-0.036c-2.764,0-5.274,1.045-7.189,2.745
		c-1.097-1.366-1.764-3.089-1.764-4.973C-194.732,109.778-191.144,106.189-186.732,106.189z"/>
</g>
<g>
	<rect x="-98.902" y="124.716" width="50" height="2"/>
	<rect x="-94.902" y="130.716" width="44" height="2"/>
	<rect x="-88.902" y="135.716" width="30" height="2"/>
	<rect x="-96.902" y="118.716" width="46" height="2"/>
	<path d="M-95.26,116.716h0.037h1.884h1.055c1.472-1.087,3.283-1.737,5.249-1.737c0.15,0,0.299,0.012,0.447,0.022l0.148,0.01
		l1.314,0.085l0.597-1.175c2.225-4.372,6.644-7.089,11.532-7.089c5.945,0,11.168,4.139,12.563,9.884h2.043v-0.084
		c-1.444-6.742-7.433-11.8-14.605-11.8c-1.799,0-3.521,0.32-5.117,0.903c-0.945-5.111-5.402-8.987-10.789-8.987
		c-0.413,0-0.819,0.027-1.222,0.071c0.744,1.112,1.179,2.448,1.179,3.886c0,3.865-3.134,7-7,7c-1.438,0-2.773-0.435-3.886-1.179
		c-0.044,0.401-0.071,0.809-0.071,1.222C-99.902,111.452-98.066,114.723-95.26,116.716z M-95.945,109.705c4.963,0,9-4.037,9-9
		c0-0.603-0.06-1.198-0.177-1.78c3.735,0.753,6.633,3.828,7.134,7.647c-2.712,1.443-4.927,3.699-6.322,6.442
		c-0.241-0.016-0.48-0.036-0.725-0.036c-2.534,0-4.855,0.879-6.701,2.335c-2.02-1.293-3.5-3.356-3.989-5.785
		C-97.144,109.646-96.548,109.705-95.945,109.705z"/>
</g>
<g>
	<path d="M32.989,127.729H13.516l-0.578-0.003c-5.485-0.027-9.948-4.513-9.948-9.998c0-5.514,4.485-10,9.999-10
		c0.175,0,0.347,0.014,0.519,0.025l0.149,0.01l1.316,0.088l0.598-1.176c2.493-4.899,7.443-7.942,12.92-7.942
		c6.79,0,12.75,4.814,14.171,11.448l0.318,1.482l1.514,0.095c1.822,0.113,3.463,0.845,4.746,1.971h2.732
		c-1.707-2.262-4.348-3.78-7.354-3.967c-1.596-7.445-8.207-13.029-16.127-13.029c-6.423,0-11.977,3.678-14.702,9.035
		c-0.266-0.018-0.53-0.04-0.8-0.04c-6.627,0-11.999,5.372-11.999,12c0,6.607,5.34,11.965,11.938,11.998v0.003h20.062
		c2.205,0,4,1.794,4,4s-1.795,4-4,4v2c3.314,0,6-2.686,6-6C38.989,130.416,36.304,127.729,32.989,127.729z"/>
	<path d="M36.989,123.729H21.001v2h15.988c3.314,0,6-2.687,6-6c0-3.314-2.686-6-6-6v2c2.205,0,4,1.794,4,4
		S39.194,123.729,36.989,123.729z"/>
	<path d="M49.989,117.729c1.654,0,3,1.346,3,3s-1.346,3-3,3c-0.043,0-0.083-0.011-0.126-0.013h-4.862
		c0.003,0.005,0.009,0.008,0.012,0.013h-0.023v2h5.5v-0.051c2.523-0.254,4.5-2.358,4.5-4.949c0-2.762-2.238-5-5-5V117.729z"/>
	<path d="M53.989,127.729h-13v2h9.022c-0.004,0.005-0.008,0.008-0.011,0.013h3.862c0.043-0.002,0.083-0.013,0.126-0.013
		c1.654,0,3,1.346,3,3s-1.346,3-3,3v2c2.762,0,5-2.238,5-5S56.751,127.729,53.989,127.729z"/>
	<rect x="14.989" y="123.729" width="4" height="2"/>
</g>
<path d="M-174.572-271.374c6.95,1.305,12.226,7.419,12.226,14.742c0,8.272-6.729,15.002-15,15.002
	c-6.79,0-12.531-4.49-14.366-10.728c1.398,0.461,2.867,0.698,4.366,0.698c7.72,0,14-6.281,14-14.001
	C-173.347-267.645-173.771-269.589-174.572-271.374 M-177.347-273.631c-0.338,0-0.668,0.031-1,0.051c1.861,2.113,3,4.881,3,7.92
	c0,6.627-5.372,12.001-12,12.001c-2.599,0-4.998-0.835-6.963-2.239c0.387,9.047,7.821,16.269,16.963,16.269
	c9.39,0,17-7.612,17-17.002S-167.957-273.631-177.347-273.631L-177.347-273.631z"/>
<g>
	<path d="M-280.742-268.636c-7.18,0-13,5.819-13,12.999c0,7.181,5.82,13.002,13,13.002s13-5.821,13-13.002
		C-267.742-262.816-273.563-268.636-280.742-268.636z M-280.742-244.635c-6.065,0-11-4.936-11-11.002
		c0-6.064,4.935-10.999,11-10.999s11,4.935,11,10.999C-269.742-249.57-274.677-244.635-280.742-244.635z"/>
	<rect x="-281.749" y="-281.63" width="2" height="10"/>
	<rect x="-281.749" y="-239.63" width="2" height="10"/>
	<rect x="-306.742" y="-256.63" width="9.993" height="2"/>
	<rect x="-264.749" y="-256.63" width="10.007" height="2"/>
	<rect x="-267.049" y="-275.544" transform="matrix(0.7071 0.7071 -0.7071 0.7071 -269.0828 108.9447)" width="2" height="10.409"/>
	
		<rect x="-296.458" y="-246.135" transform="matrix(-0.7071 -0.7071 0.7071 -0.7071 -334.015 -620.2139)" width="2" height="10.41"/>
	<rect x="-300.658" y="-271.334" transform="matrix(0.7071 0.7071 -0.7071 0.7071 -277.6917 129.7381)" width="10.409" height="2"/>
	
		<rect x="-271.25" y="-241.925" transform="matrix(-0.7072 -0.7071 0.7071 -0.7072 -283.8309 -599.4062)" width="10.41" height="2"/>
</g>
<g>
	<rect x="117.424" y="89.231" width="2" height="7.973"/>
	<rect x="98.451" y="108.218" width="7.973" height="2"/>
	<rect x="103.177" y="96.999" transform="matrix(0.7071 0.7071 -0.7071 0.7071 100.6834 -47.0732)" width="7.974" height="2"/>
	<rect x="128.686" y="94.017" transform="matrix(0.7071 0.7071 -0.7071 0.7071 107.2826 -62.9971)" width="2" height="7.972"/>
	<path d="M132.451,131.231l0.005-0.007H119.92l-0.594-0.003c-4.864-0.024-8.822-4.001-8.822-8.865c0-4.89,3.978-8.868,8.867-8.868
		c0.15,0,0.299,0.012,0.447,0.021l0.148,0.011l1.314,0.085l0.597-1.174c2.225-4.373,6.644-7.09,11.532-7.09
		c5.916,0,11.114,4.099,12.54,9.8h2.065c-1.444-6.742-7.433-11.8-14.605-11.8c-2.185,0-4.258,0.47-6.126,1.313
		c-1.667-3.202-5.007-5.394-8.866-5.394c-5.522,0-10,4.477-10,9.999c0,2.46,0.899,4.702,2.373,6.442
		c-1.429,1.84-2.287,4.144-2.287,6.653c0,5.983,4.836,10.836,10.813,10.865v0.003h13.135v0.007c2.205,0,4,1.794,4,4s-1.795,4-4,4v2
		c3.314,0,6-2.686,6-6C138.451,133.918,135.766,131.231,132.451,131.231z M118.418,101.262c3.091,0,5.76,1.773,7.091,4.345
		c-2.298,1.439-4.178,3.488-5.413,5.918c-0.241-0.016-0.48-0.036-0.725-0.036c-2.766,0-5.282,1.042-7.2,2.743
		c-1.092-1.367-1.753-3.09-1.753-4.971C110.418,104.851,114.007,101.262,118.418,101.262z"/>
	<path d="M136.451,127.231h-9.988v2h9.988c3.314,0,6-2.687,6-6c0-3.314-2.686-6-6-6v2c2.205,0,4,1.794,4,4
		S138.656,127.231,136.451,127.231z"/>
	<path d="M144.475,127.231h-0.023v2h5.5v-0.051c2.523-0.254,4.5-2.358,4.5-4.949c0-2.762-2.238-5-5-5v2c1.654,0,3,1.346,3,3
		s-1.346,3-3,3c-0.043,0-0.083-0.011-0.126-0.013h-4.862C144.466,127.224,144.472,127.228,144.475,127.231z"/>
	<path d="M153.451,131.231h-13v2h9.022c-0.004,0.004-0.008,0.008-0.011,0.013h3.862c0.043-0.002,0.083-0.013,0.126-0.013
		c1.654,0,3,1.346,3,3s-1.346,3-3,3v2c2.762,0,5-2.238,5-5S156.213,131.231,153.451,131.231z"/>
	<rect x="120.451" y="127.231" width="4" height="2"/>
</g>
<g>
	<path d="M232.413,129.226l0.005-0.007h-12.536l-0.594-0.003c-4.864-0.024-8.822-4.001-8.822-8.865c0-4.89,3.978-8.868,8.867-8.868
		c0.15,0,0.299,0.012,0.447,0.021l0.148,0.011l1.314,0.085l0.597-1.174c2.225-4.373,6.644-7.09,11.532-7.09
		c5.916,0,11.114,4.099,12.54,9.8h2.065c-1.444-6.742-7.433-11.8-14.605-11.8c-1.806,0-3.536,0.322-5.138,0.91
		c-0.938-5.123-5.4-9.01-10.794-9.01c-0.413,0-0.819,0.027-1.222,0.071c0.744,1.112,1.179,2.448,1.179,3.886c0,3.865-3.134,7-7,7
		c-1.438,0-2.773-0.435-3.886-1.179c-0.044,0.401-0.071,0.809-0.071,1.222c0,3.725,1.858,7.009,4.69,8.998
		c-1.655,1.907-2.665,4.392-2.665,7.116c0,5.983,4.836,10.836,10.813,10.865v0.003h13.135v0.007c2.205,0,4,1.794,4,4s-1.795,4-4,4v2
		c3.314,0,6-2.686,6-6C238.413,131.912,235.728,129.226,232.413,129.226z M208.617,106.017c0.582,0.117,1.178,0.177,1.78,0.177
		c4.963,0,9-4.037,9-9c0-0.603-0.06-1.198-0.177-1.78c3.744,0.755,6.646,3.842,7.138,7.674c-2.702,1.444-4.909,3.696-6.301,6.432
		c-0.241-0.016-0.48-0.036-0.725-0.036c-2.535,0-4.861,0.875-6.71,2.33C210.595,110.521,209.108,108.452,208.617,106.017z"/>
	<path d="M236.413,125.226h-9.988v2h9.988c3.314,0,6-2.687,6-6c0-3.314-2.686-6-6-6v2c2.205,0,4,1.794,4,4
		S238.618,125.226,236.413,125.226z"/>
	<path d="M244.437,125.226h-0.023v2h5.5v-0.051c2.523-0.254,4.5-2.358,4.5-4.949c0-2.762-2.238-5-5-5v2c1.654,0,3,1.346,3,3
		s-1.346,3-3,3c-0.043,0-0.083-0.011-0.126-0.013h-4.862C244.428,125.218,244.434,125.222,244.437,125.226z"/>
	<path d="M253.413,129.226h-13v2h9.022c-0.004,0.004-0.008,0.008-0.011,0.013h3.862c0.043-0.002,0.083-0.013,0.126-0.013
		c1.654,0,3,1.346,3,3s-1.346,3-3,3v2c2.762,0,5-2.238,5-5S256.175,129.226,253.413,129.226z"/>
	<rect x="220.413" y="125.226" width="4" height="2"/>
</g>
<g>
	<rect x="333.306" y="91.794" width="2" height="10"/>
	<rect x="308.313" y="116.794" width="9.993" height="2"/>
	<rect x="348.005" y="97.88" transform="matrix(0.7071 0.7071 -0.7071 0.7071 175.113 -216.5913)" width="2" height="10.409"/>
	<rect x="314.397" y="102.089" transform="matrix(0.7071 0.7071 -0.7071 0.7071 166.5042 -195.7979)" width="10.409" height="2"/>
	<path d="M338.306,131.794h-24v2h24c2.205,0,4,1.794,4,4s-1.795,4-4,4v2c3.314,0,6-2.686,6-6
		C344.306,134.48,341.62,131.794,338.306,131.794z"/>
	<path d="M350.329,127.794h-0.023v2h5.5v-0.051c2.523-0.254,4.5-2.358,4.5-4.949c0-2.762-2.238-5-5-5v2c1.654,0,3,1.346,3,3
		s-1.346,3-3,3c-0.043,0-0.083-0.011-0.126-0.013h-4.862C350.32,127.786,350.326,127.79,350.329,127.794z"/>
	<path d="M359.306,131.794h-13v2h9.022c-0.004,0.004-0.008,0.008-0.011,0.013h3.862c0.043-0.002,0.083-0.013,0.126-0.013
		c1.654,0,3,1.346,3,3s-1.346,3-3,3v2c2.762,0,5-2.238,5-5S362.067,131.794,359.306,131.794z"/>
	<path d="M326.015,127.794h-11.709v2h12.012h0.822h15.166c3.314,0,6-2.687,6-6c0-3.314-2.686-6-6-6v2c2.205,0,4,1.794,4,4
		s-1.795,4-4,4h-12.538c-3.802-1.734-6.455-5.563-6.455-10.007c0-6.064,4.935-10.999,11-10.999c5.384,0,9.868,3.891,10.81,9.006
		h2.021c-0.961-6.23-6.331-11.006-12.831-11.006c-7.18,0-13,5.819-13,12.999C321.313,121.813,323.143,125.409,326.015,127.794z"/>
</g>
<g>
	<path d="M438.532,125.237h-24v2h24c2.205,0,4,1.794,4,4s-1.795,4-4,4v2c3.314,0,6-2.686,6-6
		C444.532,127.924,441.847,125.237,438.532,125.237z"/>
	<path d="M456.032,123.237v-0.051c2.523-0.254,4.5-2.358,4.5-4.949c0-2.762-2.238-5-5-5v2c1.654,0,3,1.346,3,3s-1.346,3-3,3
		c-0.043,0-0.083-0.011-0.126-0.013h-4.862c0.004,0.005,0.009,0.009,0.012,0.013h-0.023v2H456.032z"/>
	<path d="M459.532,125.237h-13v2h9.022c-0.003,0.004-0.007,0.008-0.011,0.013h3.862c0.043-0.002,0.083-0.013,0.126-0.013
		c1.654,0,3,1.346,3,3s-1.346,3-3,3v2c2.762,0,5-2.238,5-5S462.294,125.237,459.532,125.237z"/>
	<path d="M427.366,123.237h15.166c3.314,0,6-2.687,6-6c0-3.314-2.686-6-6-6v2c2.205,0,4,1.794,4,4s-1.795,4-4,4h-12.586
		c-2.596-1.188-4.658-3.339-5.69-6.034c0.849,0.204,1.724,0.309,2.612,0.309c6.168,0,11.187-5.019,11.187-11.188
		c0-1.276-0.22-2.532-0.64-3.717c4.046,1.102,7.168,4.459,7.937,8.63h2.018c-0.964-6.237-6.338-11.016-12.846-11.016
		c-0.259,0-0.511,0.024-0.766,0.039c1.425,1.618,2.297,3.737,2.297,6.063c0,5.072-4.112,9.188-9.187,9.188
		c-1.988,0-3.826-0.641-5.33-1.715c0.162,3.801,1.962,7.165,4.699,9.44h-11.705v2h12.012H427.366z"/>
</g>
<g>
	<path d="M-281.249,210.431h-20c-1.103,0-2-0.897-2-2s0.897-2,2-2h3.445h0.555v-2h-4c-2.209,0-4,1.791-4,4s1.791,4,4,4h20
		c2.205,0,4,1.794,4,4s-1.795,4-4,4v2c3.314,0,6-2.686,6-6C-275.249,213.117-277.935,210.431-281.249,210.431z"/>
	<path d="M-279.249,194.431v2c2.205,0,4,1.794,4,4s-1.795,4-4,4h-15.988v2h15.988c3.314,0,6-2.687,6-6
		C-273.249,197.116-275.935,194.431-279.249,194.431z"/>
	<path d="M-273.249,206.431v2h5.5v-0.051c2.523-0.254,4.5-2.358,4.5-4.949c0-2.762-2.238-5-5-5v2c1.654,0,3,1.346,3,3s-1.346,3-3,3
		c-0.043,0-0.083-0.011-0.126-0.013h-4.862c0.003,0.005,0.009,0.009,0.012,0.013H-273.249z"/>
	<path d="M-262.249,210.431h-11v2h7.022c-0.004,0.004-0.008,0.008-0.011,0.013h3.862c0.043-0.002,0.083-0.013,0.126-0.013
		c1.654,0,3,1.346,3,3s-1.346,3-3,3v2c2.762,0,5-2.238,5-5S-259.487,210.431-262.249,210.431z"/>
</g>
<path d="M255.043,196.777v-0.038h-38.376c-1.103,0-2-0.897-2-2s0.897-2,2-2h33c2.762,0,5-2.238,5-5s-2.238-5-5-5h-37.875v0.008
	c-0.042-0.001-0.083-0.008-0.125-0.008c-2.762,0-5,2.238-5,5s2.238,5,5,5v-2c-1.654,0-3-1.346-3-3s1.346-3,3-3h0.125h3.853h34.022
	c1.654,0,3,1.346,3,3s-1.346,3-3,3h-33c-2.209,0-4,1.791-4,4s1.791,4,4,4h38c1.103,0,2,0.897,2,2s-0.897,2-2,2h-32
	c-2.209,0-4,1.791-4,4s1.791,4,4,4h22c1.103,0,2,0.897,2,2s-0.897,2-2,2h-24.01v0.001c-2.204,0.006-3.99,1.793-3.99,3.999
	s1.786,3.993,3.99,3.999v0.001h12.01c1.103,0,2,0.897,2,2s-0.897,2-2,2h-2c-2.209,0-4,1.791-4,4s1.791,4,4,4v-2
	c-1.103,0-2-0.897-2-2s0.897-2,2-2h2c2.209,0,4-1.791,4-4s-1.791-4-4-4h-12c-1.103,0-2-0.897-2-2s0.897-2,2-2h24
	c2.209,0,4-1.791,4-4c0-2.152-1.704-3.895-3.834-3.983v-0.017h-22.166c-1.103,0-2-0.897-2-2s0.897-2,2-2h32c2.209,0,4-1.791,4-4
	C258.667,198.659,257.073,196.97,255.043,196.777z"/>
<path d="M440.458,187.455v-2.024h-2v2.024c-13.01,0.513-23.462,10.965-23.975,23.976h1.674c1.14-1.222,2.748-2,4.551-2
	c2.26,0,4.233,1.203,5.331,3h1.838c1.098-1.797,3.071-3,5.331-3c2.204,0,4.137,1.144,5.25,2.866v15.134c0,2.21,1.791,4,4,4
	s4-1.79,4-4h-2c0,1.103-0.897,2-2,2s-2-0.897-2-2v-15.134c1.113-1.723,3.046-2.866,5.25-2.866c2.26,0,4.233,1.203,5.331,3h1.838
	c1.098-1.797,3.071-3,5.331-3c1.803,0,3.411,0.778,4.551,2h1.674C463.92,198.42,453.468,187.968,440.458,187.455z M458.208,207.431
	c-2.496,0-4.736,1.114-6.25,2.87c-1.514-1.756-3.754-2.87-6.25-2.87s-4.736,1.114-6.25,2.87c-1.514-1.756-3.754-2.87-6.25-2.87
	s-4.736,1.114-6.25,2.87c-1.514-1.756-3.755-2.87-6.25-2.87c-1.402,0-2.731,0.351-3.897,0.975
	c1.909-10.769,11.339-18.975,22.647-18.975s20.738,8.206,22.647,18.975C460.939,207.781,459.61,207.431,458.208,207.431z"/>
<g>
	<path d="M35.163,311.743v-17.105c0-2.762-2.238-5-5-5s-5,2.238-5,5v17.105c-1.236,1.263-2,2.988-2,4.895c0,3.866,3.134,7,7,7
		s7-3.134,7-7C37.163,314.731,36.399,313.006,35.163,311.743z M30.163,321.638c-2.757,0-5-2.243-5-5
		c0-1.313,0.508-2.554,1.429-3.495l0.571-0.583v-0.816v-17.105c0-1.654,1.346-3,3-3s3,1.346,3,3v17.105v0.816l0.571,0.583
		c0.921,0.941,1.429,2.183,1.429,3.495C35.163,319.395,32.92,321.638,30.163,321.638z"/>
	<path d="M31.163,313.813v-15.176h-2v15.176c-1.167,0.413-2.008,1.516-2.008,2.824c0,1.662,1.347,3.008,3.008,3.008
		c1.662,0,3.008-1.346,3.008-3.008C33.171,315.329,32.331,314.227,31.163,313.813z M30.163,317.646
		c-0.556,0-1.008-0.452-1.008-1.008s0.452-1.008,1.008-1.008s1.008,0.452,1.008,1.008S30.719,317.646,30.163,317.646z"/>
</g>
<g>
	<path d="M134.951,311.743v-17.105c0-2.762-2.238-5-5-5s-5,2.238-5,5v17.105c-1.236,1.263-2,2.988-2,4.895c0,3.866,3.134,7,7,7
		s7-3.134,7-7C136.951,314.731,136.188,313.006,134.951,311.743z M129.951,321.638c-2.757,0-5-2.243-5-5
		c0-1.313,0.508-2.554,1.429-3.495l0.571-0.583v-0.816v-17.105c0-1.654,1.346-3,3-3s3,1.346,3,3v17.105v0.816l0.571,0.583
		c0.921,0.941,1.429,2.183,1.429,3.495C134.951,319.395,132.708,321.638,129.951,321.638z"/>
	<path d="M130.951,313.813v-20.176h-2v20.176c-1.167,0.413-2.008,1.516-2.008,2.824c0,1.662,1.347,3.008,3.008,3.008
		c1.662,0,3.008-1.346,3.008-3.008C132.959,315.329,132.119,314.227,130.951,313.813z M129.951,317.646
		c-0.556,0-1.008-0.452-1.008-1.008s0.452-1.008,1.008-1.008s1.008,0.452,1.008,1.008S130.507,317.646,129.951,317.646z"/>
</g>
<g>
	<path d="M-67.946,311.743v-17.105c0-2.762-2.238-5-5-5s-5,2.238-5,5v17.105c-1.236,1.263-2,2.988-2,4.895c0,3.866,3.134,7,7,7
		s7-3.134,7-7C-65.946,314.731-66.71,313.006-67.946,311.743z M-72.946,321.638c-2.757,0-5-2.243-5-5
		c0-1.313,0.508-2.554,1.429-3.495l0.571-0.583v-0.816v-17.105c0-1.654,1.346-3,3-3s3,1.346,3,3v17.105v0.816l0.571,0.583
		c0.921,0.941,1.429,2.183,1.429,3.495C-67.946,319.395-70.189,321.638-72.946,321.638z"/>
	<path d="M-71.946,313.813v-10.176h-2v10.176c-1.167,0.413-2.008,1.516-2.008,2.824c0,1.662,1.347,3.008,3.008,3.008
		c1.662,0,3.008-1.346,3.008-3.008C-69.938,315.329-70.778,314.227-71.946,313.813z M-72.946,317.646
		c-0.556,0-1.008-0.452-1.008-1.008s0.452-1.008,1.008-1.008s1.008,0.452,1.008,1.008S-72.391,317.646-72.946,317.646z"/>
</g>
<g>
	<path d="M-171.592,311.743v-17.105c0-2.762-2.238-5-5-5s-5,2.238-5,5v17.105c-1.236,1.263-2,2.988-2,4.895c0,3.866,3.134,7,7,7
		s7-3.134,7-7C-169.592,314.731-170.355,313.006-171.592,311.743z M-176.592,321.638c-2.757,0-5-2.243-5-5
		c0-1.313,0.508-2.554,1.429-3.495l0.571-0.583v-0.816v-17.105c0-1.654,1.346-3,3-3s3,1.346,3,3v17.105v0.816l0.571,0.583
		c0.921,0.941,1.429,2.183,1.429,3.495C-171.592,319.395-173.835,321.638-176.592,321.638z"/>
	<path d="M-175.592,313.813v-5.176h-2v5.176c-1.167,0.413-2.008,1.516-2.008,2.824c0,1.662,1.347,3.008,3.008,3.008
		c1.662,0,3.008-1.346,3.008-3.008C-173.584,315.329-174.424,314.227-175.592,313.813z M-176.592,317.646
		c-0.556,0-1.008-0.452-1.008-1.008s0.452-1.008,1.008-1.008s1.008,0.452,1.008,1.008S-176.036,317.646-176.592,317.646z"/>
</g>
<g>
	<path d="M-276.249,311.743v-17.105c0-2.762-2.238-5-5-5s-5,2.238-5,5v17.105c-1.236,1.263-2,2.988-2,4.895c0,3.866,3.134,7,7,7
		s7-3.134,7-7C-274.249,314.731-275.013,313.006-276.249,311.743z M-281.249,321.638c-2.757,0-5-2.243-5-5
		c0-1.313,0.508-2.554,1.429-3.495l0.571-0.583v-0.816v-17.105c0-1.654,1.346-3,3-3s3,1.346,3,3v17.105v0.816l0.571,0.583
		c0.921,0.941,1.429,2.183,1.429,3.495C-276.249,319.395-278.492,321.638-281.249,321.638z"/>
	<path d="M-281.249,313.63c-1.661,0-3.008,1.347-3.008,3.008c0,1.662,1.347,3.008,3.008,3.008c1.662,0,3.008-1.346,3.008-3.008
		C-278.241,314.977-279.587,313.63-281.249,313.63z M-281.249,317.646c-0.556,0-1.008-0.452-1.008-1.008s0.452-1.008,1.008-1.008
		s1.008,0.452,1.008,1.008S-280.693,317.646-281.249,317.646z"/>
</g>
<g>
	<path d="M223.676,291.95c-2.209,0-4,1.791-4,4c0,2.21,1.791,4,4,4c2.211,0,4-1.79,4-4
		C227.676,293.741,225.887,291.95,223.676,291.95z M223.676,297.95c-1.103,0-2-0.897-2-2s0.897-2,2-2s2,0.897,2,2
		S224.778,297.95,223.676,297.95z"/>
	<path d="M237.676,319.95c-4.41,0-7.999-3.589-7.999-7.999v-4.002c0-4.41,3.589-7.999,7.999-7.999c2.715,0,5.115,1.362,6.563,3.437
		l1.43-1.43c-1.824-2.429-4.72-4.007-7.992-4.007c-5.522,0-9.999,4.478-9.999,9.999v4.002c0,5.521,4.477,9.999,9.999,9.999
		c3.272,0,6.168-1.579,7.992-4.008l-1.43-1.43C242.792,318.587,240.392,319.95,237.676,319.95z"/>
</g>
<g>
	<path d="M328.372,291.829c-2.209,0-4,1.791-4,4c0,2.21,1.791,4,4,4c2.211,0,4-1.79,4-4
		C332.372,293.62,330.583,291.829,328.372,291.829z M328.372,297.829c-1.103,0-2-0.897-2-2s0.897-2,2-2s2,0.897,2,2
		S329.475,297.829,328.372,297.829z"/>
	<polygon points="348.247,299.95 348.247,297.95 336.247,297.95 334.247,297.95 334.247,321.95 336.247,321.95 336.247,309.95 
		344.247,309.95 344.247,307.95 336.247,307.95 336.247,299.95 	"/>
</g>
<g>
	<path d="M439.458,295.642c-7.179,0-13,5.82-13,13s5.821,13,13,13s13-5.82,13-13S446.637,295.642,439.458,295.642z M439.458,319.642
		c-6.065,0-11-4.935-11-11s4.935-11,11-11s11,4.935,11,11S445.523,319.642,439.458,319.642z"/>
	<path d="M435.191,312.884l6.363-2.121l2.121-6.364l-6.363,2.122L435.191,312.884z M438.894,308.102l1.62-0.54l-0.54,1.62
		l-1.62,0.54L438.894,308.102z"/>
</g>
<g>
	<path d="M-281.249,386.159c-7.179,0-13,5.82-13,13s5.821,13,13,13s13-5.82,13-13S-274.07,386.159-281.249,386.159z
		 M-281.249,410.159c-6.065,0-11-4.934-11-11c0-6.064,4.935-11,11-11s11,4.936,11,11
		C-270.249,405.226-275.184,410.159-281.249,410.159z"/>
	<path d="M-278.688,397.581l-2.586-4.422l-2.529,4.33h0.007c-0.299,0.467-0.478,1.018-0.478,1.613c0,1.656,1.343,3,3,3s3-1.344,3-3
		c0-0.559-0.162-1.074-0.428-1.521H-278.688z M-281.273,400.103c-0.552,0-1-0.449-1-1c0-0.188,0.055-0.367,0.162-0.535l0.864-1.355
		l0.826,1.391c0.098,0.164,0.147,0.332,0.147,0.5C-280.273,399.653-280.722,400.103-281.273,400.103z"/>
</g>
<g>
	<path d="M-176.465,386.159c-7.18,0-13,5.82-13,13s5.82,13,13,13s13-5.82,13-13S-169.285,386.159-176.465,386.159z
		 M-176.465,410.159c-6.065,0-11-4.934-11-11c0-6.064,4.935-11,11-11s11,4.936,11,11
		C-165.465,405.226-170.399,410.159-176.465,410.159z"/>
	<path d="M-174.876,396.579c-0.467-0.299-1.018-0.477-1.613-0.477c-1.658,0-3,1.342-3,3c0,1.656,1.342,3,3,3
		c0.557,0,1.072-0.162,1.52-0.428v0.014l4.422-2.586l-4.328-2.529V396.579z M-175.991,399.954c-0.164,0.098-0.332,0.148-0.498,0.148
		c-0.552,0-1-0.449-1-1c0-0.553,0.448-1,1-1c0.188,0,0.368,0.053,0.535,0.16l1.355,0.865L-175.991,399.954z"/>
</g>
<g>
	<path d="M-73.414,386.159c-7.18,0-13,5.82-13,13s5.82,13,13,13s13-5.82,13-13S-66.234,386.159-73.414,386.159z M-73.414,410.159
		c-6.065,0-11-4.934-11-11c0-6.064,4.935-11,11-11s11,4.936,11,11C-62.414,405.226-67.349,410.159-73.414,410.159z"/>
	<path d="M-73.414,396.103c-1.656,0-3,1.342-3,3c0,0.557,0.162,1.072,0.428,1.52H-76l2.586,4.422l2.529-4.328h-0.006
		c0.299-0.467,0.477-1.018,0.477-1.613C-70.414,397.444-71.756,396.103-73.414,396.103z M-72.575,399.638l-0.865,1.355l-0.826-1.393
		c-0.098-0.164-0.147-0.332-0.147-0.498c0-0.553,0.448-1,1-1s1,0.447,1,1C-72.414,399.29-72.468,399.47-72.575,399.638z"/>
</g>
<g>
	<path d="M30,386.159c-7.179,0-13,5.82-13,13s5.821,13,13,13s13-5.82,13-13S37.179,386.159,30,386.159z M30,410.159
		c-6.065,0-11-4.934-11-11c0-6.064,4.935-11,11-11s11,4.936,11,11C41,405.226,36.065,410.159,30,410.159z"/>
	<path d="M29.959,396.103c-0.557,0-1.072,0.162-1.52,0.428v-0.014l-4.422,2.586l4.328,2.529v-0.006
		c0.467,0.299,1.018,0.477,1.613,0.477c1.658,0,3-1.342,3-3C32.959,397.446,31.617,396.103,29.959,396.103z M29.959,400.103
		c-0.188,0-0.368-0.055-0.535-0.162l-1.355-0.865l1.393-0.826c0.164-0.098,0.332-0.146,0.498-0.146c0.552,0,1,0.447,1,1
		C30.959,399.653,30.511,400.103,29.959,400.103z"/>
</g>
<g>
	<rect x="-178.151" y="189.431" width="2" height="10"/>
	<rect x="-163.452" y="195.517" transform="matrix(0.7071 0.7071 -0.7071 0.7071 94.3503 173.6605)" width="2" height="10.409"/>
	<rect x="-197.061" y="199.726" transform="matrix(0.7071 0.7071 -0.7071 0.7071 85.7415 194.4539)" width="10.409" height="2"/>
	<polygon points="-183.819,218.685 -182.405,220.099 -178.151,215.845 -178.151,225.431 -176.151,225.431 -176.151,215.845 
		-171.898,220.099 -170.484,218.685 -177.151,212.017 	"/>
	<path d="M-164.145,215.43c0-0.002,0-0.004,0-0.006c0-7.18-5.82-12.999-13-12.999s-13,5.819-13,12.999c0,0.002,0,0.004,0,0.006h-13
		v2h18v-2h-3c0-0.002,0-0.004,0-0.006c0-6.064,4.935-10.999,11-10.999s11,4.935,11,10.999c0,0.002,0,0.004,0,0.006h-3v2h17.995v-2
		H-164.145z"/>
</g>
<g>
	<rect x="-74.406" y="188.243" width="2" height="10"/>
	<rect x="-59.706" y="194.329" transform="matrix(0.7071 0.7071 -0.7071 0.7071 123.8969 99.9539)" width="2" height="10.409"/>
	<rect x="-93.315" y="198.539" transform="matrix(0.7071 0.7071 -0.7071 0.7071 115.288 120.7473)" width="10.409" height="2"/>
	<polygon points="-72.406,222.79 -72.406,212.243 -74.406,212.243 -74.406,222.79 -78.66,218.536 -80.074,219.95 -73.406,226.618 
		-66.739,219.95 -68.153,218.536 	"/>
	<path d="M-60.399,214.242c0-0.002,0-0.004,0-0.006c0-7.18-5.82-12.999-13-12.999s-13,5.819-13,12.999c0,0.002,0,0.004,0,0.006h-13
		v2h22v-2h-7c0-0.002,0-0.004,0-0.006c0-6.064,4.935-10.999,11-10.999s11,4.935,11,10.999c0,0.002,0,0.004,0,0.006h-7v2h21.995v-2
		H-60.399z"/>
</g>
<g>
	<polygon points="129.951,222.256 129.951,207.873 127.951,207.873 127.951,222.256 123.697,218.002 122.283,219.416 
		128.951,226.084 135.618,219.416 134.204,218.002 	"/>
	<path d="M145.579,202.902c-1.596-7.445-8.207-13.029-16.127-13.029c-6.423,0-11.977,3.678-14.702,9.035
		c-0.266-0.018-0.53-0.04-0.8-0.04c-6.627,0-11.999,5.372-11.999,12c0,6.607,5.34,11.965,11.938,11.998v0.003h6.062v-2h-5.604
		l-0.447-0.003c-5.485-0.027-9.948-4.513-9.948-9.998c0-5.514,4.485-10,9.999-10c0.175,0,0.347,0.014,0.52,0.025l0.148,0.01
		l1.316,0.088l0.598-1.176c2.492-4.899,7.443-7.942,12.92-7.942c6.79,0,12.75,4.814,14.172,11.448l0.317,1.482l1.514,0.095
		c4.203,0.262,7.496,3.763,7.496,7.971c0,4.397-3.565,7.977-7.957,8c-0.05-0.003-0.093-0.005-0.137-0.007l-2.043,0.007h-4.863v2
		h6.863v-0.007c0.046,0.001,0.091,0.007,0.137,0.007c5.521,0,10-4.477,10-10C154.951,207.559,150.807,203.228,145.579,202.902z"/>
</g>
<g>
	<polygon points="35.936,219.061 37.35,217.646 30.683,210.979 24.015,217.646 25.429,219.061 29.683,214.807 29.683,227.393 
		31.683,227.393 31.683,214.807 	"/>
	<path d="M47.311,204.498c-1.596-7.445-8.207-13.029-16.127-13.029c-6.423,0-11.977,3.678-14.702,9.035
		c-0.266-0.018-0.53-0.04-0.8-0.04c-6.627,0-11.999,5.372-11.999,12c0,6.607,5.34,11.965,11.938,11.998v0.003h10.062v-2h-9.604
		l-0.447-0.003c-5.485-0.027-9.948-4.513-9.948-9.998c0-5.514,4.485-10,9.999-10c0.175,0,0.347,0.014,0.52,0.025l0.148,0.01
		l1.316,0.088l0.598-1.176c2.492-4.899,7.443-7.942,12.92-7.942c6.79,0,12.75,4.814,14.172,11.448l0.317,1.482l1.514,0.095
		c4.203,0.262,7.496,3.763,7.496,7.971c0,4.397-3.565,7.977-7.957,8c-0.05-0.003-0.093-0.005-0.137-0.007l-2.043,0.007h-8.863v2
		h10.863v-0.007c0.046,0.001,0.091,0.007,0.137,0.007c5.521,0,10-4.477,10-10C56.683,209.154,52.538,204.823,47.311,204.498z"/>
</g>
<g>
	<path d="M249.8,14.982c-1.596-7.445-8.207-13.029-16.127-13.029c-6.423,0-11.977,3.678-14.702,9.035
		c-0.266-0.018-0.53-0.04-0.8-0.04c-6.627,0-11.999,5.372-11.999,12c0,6.607,5.34,11.965,11.938,11.998v0.003h2.062v-2h-1.604
		l-0.447-0.003c-5.485-0.027-9.948-4.513-9.948-9.998c0-5.514,4.485-10,9.999-10c0.175,0,0.347,0.014,0.52,0.025l0.148,0.01
		l1.316,0.088l0.598-1.176c2.492-4.899,7.443-7.942,12.92-7.942c6.79,0,12.75,4.814,14.172,11.448l0.317,1.482l1.514,0.095
		c4.203,0.262,7.496,3.763,7.496,7.971c0,4.397-3.565,7.977-7.957,8c-0.05-0.003-0.093-0.005-0.137-0.007l-2.043,0.007h-0.863v2
		h2.863v-0.007c0.046,0.001,0.091,0.007,0.137,0.007c5.521,0,10-4.477,10-10C259.172,19.639,255.027,15.308,249.8,14.982z"/>
	<polygon points="228.172,33.971 228.172,31.341 230.345,32.563 231.03,31.343 228.561,29.953 231.03,28.563 230.345,27.343 
		228.172,28.565 228.172,25.971 226.172,25.971 226.172,28.609 223.921,27.343 223.235,28.563 225.705,29.953 223.235,31.343 
		223.921,32.563 226.172,31.297 226.172,33.971 	"/>
	<polygon points="233.334,38.325 231.161,39.548 231.161,36.953 229.161,36.953 229.161,39.592 226.91,38.325 226.225,39.546 
		228.694,40.936 226.225,42.325 226.91,43.546 229.161,42.279 229.161,44.953 231.161,44.953 231.161,42.323 233.334,43.546 
		234.02,42.325 231.55,40.936 234.02,39.546 	"/>
	<polygon points="242.35,31.343 240.177,32.565 240.177,29.971 238.177,29.971 238.177,32.609 235.926,31.343 235.24,32.563 
		237.71,33.953 235.24,35.343 235.926,36.563 238.177,35.297 238.177,37.971 240.177,37.971 240.177,35.341 242.35,36.563 
		243.035,35.343 240.565,33.953 243.035,32.563 	"/>
</g>
<g>
	<rect x="325.312" y="-3.069" width="2" height="7.973"/>
	<rect x="306.312" y="15.845" width="7.973" height="2"/>
	<rect x="310.985" y="4.578" transform="matrix(0.7071 0.7071 -0.7071 0.7071 96.1974 -221.0848)" width="7.974" height="2"/>
	<rect x="336.493" y="1.596" transform="matrix(0.7071 0.7071 -0.7071 0.7071 102.7966 -237.0088)" width="2" height="7.972"/>
	<path d="M355.823,22.721c-1.444-6.742-7.433-11.8-14.605-11.8c-2.185,0-4.258,0.471-6.127,1.314
		c-1.666-3.203-5.006-5.395-8.865-5.395c-5.522,0-10,4.477-10,9.999c0,2.46,0.899,4.702,2.373,6.442
		c-1.428,1.84-2.287,4.144-2.287,6.653c0,5.983,4.836,10.836,10.813,10.865v0.003h1.188v-2h-0.721l-0.457-0.003
		c-4.864-0.023-8.822-4.001-8.822-8.865c0-4.89,3.978-8.868,8.867-8.868c0.15,0,0.299,0.012,0.447,0.022l0.148,0.01l1.314,0.085
		l0.597-1.175c2.225-4.372,6.644-7.089,11.532-7.089c6.062,0,11.382,4.298,12.649,10.219l0.318,1.483l1.514,0.094
		c3.708,0.23,6.612,3.319,6.612,7.03c0,3.878-3.144,7.035-7.017,7.057c-0.042-0.003-0.079-0.005-0.117-0.005l-1.866,0.005v2h1.819
		v-0.006c0.042,0.001,0.082,0.006,0.124,0.006c5.001,0,9.057-4.054,9.057-9.057C364.312,26.938,360.558,23.016,355.823,22.721z
		 M327.903,19.104c-0.241-0.016-0.48-0.036-0.725-0.036c-2.766,0-5.282,1.041-7.2,2.742c-1.092-1.365-1.753-3.089-1.753-4.97
		c0-4.41,3.589-7.999,8-7.999c3.092,0,5.76,1.773,7.091,4.346C331.019,14.626,329.14,16.674,327.903,19.104z"/>
	<polygon points="335.304,39.823 335.304,37.193 337.477,38.416 338.162,37.195 335.692,35.806 338.162,34.416 337.477,33.195 
		335.304,34.418 335.304,31.823 333.304,31.823 333.304,34.462 331.053,33.195 330.367,34.416 332.837,35.806 330.367,37.195 
		331.053,38.416 333.304,37.149 333.304,39.823 	"/>
	<polygon points="340.466,44.178 338.293,45.4 338.293,42.806 336.293,42.806 336.293,45.444 334.042,44.178 333.356,45.398 
		335.826,46.788 333.356,48.178 334.042,49.398 336.293,48.132 336.293,50.806 338.293,50.806 338.293,48.176 340.466,49.398 
		341.151,48.178 338.682,46.788 341.151,45.398 	"/>
	<polygon points="349.481,37.195 347.309,38.418 347.309,35.823 345.309,35.823 345.309,38.462 343.058,37.195 342.372,38.416 
		344.842,39.806 342.372,41.195 343.058,42.416 345.309,41.149 345.309,43.823 347.309,43.823 347.309,41.193 349.481,42.416 
		350.167,41.195 347.697,39.806 350.167,38.416 	"/>
</g>
<g>
	<path d="M456.012,19.718c-1.444-6.742-7.433-11.8-14.605-11.8c-1.799,0-3.522,0.32-5.118,0.904
		c-0.949-5.108-5.404-8.98-10.788-8.98c-0.413,0-0.819,0.027-1.222,0.071c0.744,1.112,1.179,2.448,1.179,3.886c0,3.865-3.134,7-7,7
		c-1.438,0-2.773-0.435-3.886-1.179c-0.044,0.401-0.071,0.809-0.071,1.222c0,3.713,1.845,6.987,4.661,8.979
		c-1.653,1.907-2.661,4.389-2.661,7.111c0,5.983,4.836,10.836,10.813,10.865v0.003h1.188v-2h-0.721l-0.457-0.003
		c-4.864-0.023-8.822-4.001-8.822-8.865c0-4.89,3.978-8.868,8.867-8.868c0.15,0,0.299,0.012,0.447,0.022l0.148,0.01l1.314,0.085
		l0.597-1.175c2.225-4.372,6.644-7.089,11.532-7.089c6.062,0,11.382,4.298,12.649,10.219l0.318,1.483l1.514,0.094
		c3.708,0.23,6.612,3.319,6.612,7.03c0,3.878-3.144,7.035-7.017,7.057c-0.042-0.003-0.079-0.005-0.117-0.005l-1.866,0.005v2h1.819
		v-0.006c0.042,0.001,0.082,0.006,0.124,0.006c5.001,0,9.057-4.054,9.057-9.057C464.5,23.935,460.746,20.013,456.012,19.718z
		 M428.092,16.101c-0.241-0.016-0.48-0.036-0.725-0.036c-2.537,0-4.865,0.877-6.715,2.334c-2.012-1.294-3.486-3.354-3.976-5.776
		c0.582,0.117,1.178,0.177,1.78,0.177c4.963,0,9-4.037,9-9c0-0.603-0.06-1.198-0.177-1.78c3.733,0.753,6.629,3.824,7.134,7.64
		C431.701,11.103,429.486,13.357,428.092,16.101z"/>
	<polygon points="435.537,36.82 435.537,34.19 437.71,35.413 438.396,34.192 435.926,32.803 438.396,31.413 437.71,30.192 
		435.537,31.415 435.537,28.82 433.537,28.82 433.537,31.459 431.286,30.192 430.601,31.413 433.07,32.803 430.601,34.192 
		431.286,35.413 433.537,34.146 433.537,36.82 	"/>
	<polygon points="440.699,41.175 438.526,42.397 438.526,39.803 436.526,39.803 436.526,42.441 434.275,41.175 433.59,42.396 
		436.06,43.785 433.59,45.175 434.275,46.396 436.526,45.129 436.526,47.803 438.526,47.803 438.526,45.173 440.699,46.396 
		441.385,45.175 438.915,43.785 441.385,42.396 	"/>
	<polygon points="449.715,34.192 447.542,35.415 447.542,32.82 445.542,32.82 445.542,35.459 443.291,34.192 442.605,35.413 
		445.075,36.803 442.605,38.192 443.291,39.413 445.542,38.146 445.542,40.82 447.542,40.82 447.542,38.19 449.715,39.413 
		450.4,38.192 447.931,36.803 450.4,35.413 	"/>
</g>
<rect x="-160.347" y="-548.032" fill="none" width="472.974" height="180.918"/>
<text transform="matrix(1 0 0 1 19.2905 -476.6333)"><tspan x="0" y="0" font-family="'HelveticaNeueLTStd-Th'" font-size="100" letter-spacing="2">60</tspan><tspan x="-99.268" y="60" font-family="'HelveticaNeueLTStd-Lt'" font-size="48" letter-spacing="1">Weather Icons</tspan><tspan x="-3.726" y="104" font-family="'HelveticaNeueLTStd-Lt'" font-size="24">IOS 7 Style</tspan></text>
</svg>
