<?xml version="1.0" encoding="utf-8"?>
<!-- Generator: Adobe Illustrator 16.0.0, SVG Export Plug-In . SVG Version: 6.00 Build 0)  -->
<!DOCTYPE svg PUBLIC "-//W3C//DTD SVG 1.1//EN" "http://www.w3.org/Graphics/SVG/1.1/DTD/svg11.dtd">
<svg version="1.1" id="Layer_1" xmlns="http://www.w3.org/2000/svg" xmlns:xlink="http://www.w3.org/1999/xlink" x="0px" y="0px"
	 width="50px" height="44.99px" viewBox="0 0 50 44.99" enable-background="new 0 0 50 44.99" xml:space="preserve">
<path d="M236.171,189.175l-1.803,15.077l-0.268,2.237h2.254h6.896l-14.693,18.759l1.789-14.52l0.277-2.245h-2.262h-6.957
	L236.171,189.175 M239.025,182.15l-21.667,28.333h11.004l-2.671,21.667l21.667-27.661h-11.004L239.025,182.15L239.025,182.15z"/>
<path d="M-176.864-273.086c6.79,0,12.749,4.814,14.171,11.448l0.318,1.483l1.514,0.094c4.203,0.262,7.496,3.763,7.496,7.971
	c0,4.396-3.565,7.977-7.957,8c-0.046-0.003-0.091-0.006-0.137-0.007l-2.043-0.036v0.043h-28.337l-0.578-0.003
	c-5.485-0.027-9.948-4.513-9.948-9.998c0-5.514,4.485-10,9.999-10c0.175,0,0.347,0.014,0.519,0.025l0.149,0.011l1.316,0.087
	l0.598-1.176C-187.291-270.043-182.341-273.086-176.864-273.086 M-176.864-275.086c-6.423,0-11.977,3.678-14.702,9.035
	c-0.266-0.018-0.53-0.04-0.8-0.04c-6.627,0-11.999,5.372-11.999,12c0,6.607,5.34,11.965,11.938,11.998v0.003h30.925v-0.007
	c0.046,0.001,0.091,0.007,0.137,0.007c5.521,0,10-4.477,10-10c0-5.311-4.145-9.642-9.372-9.967
	C-162.333-269.502-168.944-275.086-176.864-275.086L-176.864-275.086z"/>
<g>
	<path d="M-53.913-254.675c-1.444-6.742-7.433-11.8-14.605-11.8c-2.185,0-4.258,0.47-6.127,1.313
		c-1.666-3.202-5.006-5.394-8.865-5.394c-5.522,0-10,4.477-10,9.999c0,2.46,0.898,4.702,2.373,6.442
		c-1.428,1.84-2.287,4.144-2.287,6.653c0,5.983,4.836,10.836,10.813,10.865v0.003h28.007v-0.006
		c0.042,0.001,0.082,0.006,0.124,0.006c5.001,0,9.057-4.054,9.057-9.057C-45.425-250.458-49.179-254.38-53.913-254.675z
		 M-83.511-268.555c3.092,0,5.76,1.773,7.092,4.345c-2.299,1.44-4.178,3.488-5.414,5.918c-0.241-0.016-0.48-0.036-0.725-0.036
		c-2.766,0-5.281,1.041-7.2,2.743c-1.092-1.366-1.753-3.09-1.753-4.971C-91.511-264.966-87.922-268.555-83.511-268.555z
		 M-54.441-238.592c-0.038-0.003-0.077-0.004-0.117-0.005l-2.047-0.042v0.047h-25.403l-0.594-0.003
		c-4.864-0.023-8.822-4.001-8.822-8.865c0-4.89,3.978-8.868,8.867-8.868c0.15,0,0.299,0.012,0.447,0.021l0.148,0.011l1.314,0.085
		l0.598-1.174c2.224-4.373,6.643-7.09,11.531-7.09c6.062,0,11.381,4.298,12.65,10.219l0.317,1.482l1.514,0.095
		c3.708,0.231,6.612,3.319,6.612,7.03C-47.425-241.771-50.568-238.614-54.441-238.592z"/>
	<rect x="-84.505" y="-280.585" width="2" height="7.973"/>
	<rect x="-103.478" y="-261.599" width="7.973" height="2"/>
	<rect x="-98.752" y="-272.817" transform="matrix(0.7071 0.7071 -0.7071 0.7071 -219.9598 -12.6047)" width="7.974" height="2"/>
	<rect x="-73.243" y="-275.799" transform="matrix(0.7071 0.7071 -0.7071 0.7071 -213.3607 -28.5287)" width="2" height="7.972"/>
</g>
<path d="M41.83-258.702c-1.444-6.742-7.433-11.8-14.605-11.8c-1.799,0-3.521,0.32-5.118,0.904c-0.949-5.108-5.404-8.98-10.788-8.98
	c-0.413,0-0.819,0.027-1.222,0.071c0.744,1.112,1.179,2.448,1.179,3.886c0,3.865-3.134,7-7,7c-1.438,0-2.773-0.435-3.886-1.179
	c-0.044,0.401-0.071,0.809-0.071,1.222c0,3.712,1.845,6.987,4.661,8.979c-1.653,1.907-2.661,4.389-2.661,7.111
	c0,5.983,4.836,10.836,10.813,10.865v0.003h28.007v-0.006c0.042,0.001,0.082,0.006,0.124,0.006c5.001,0,9.057-4.054,9.057-9.057
	C50.318-254.485,46.564-258.407,41.83-258.702z M2.495-265.798c0.582,0.117,1.178,0.177,1.78,0.177c4.963,0,9-4.037,9-9
	c0-0.603-0.06-1.198-0.177-1.78c3.733,0.753,6.629,3.824,7.134,7.64c-2.713,1.444-4.928,3.699-6.322,6.442
	c-0.241-0.016-0.48-0.036-0.725-0.036c-2.537,0-4.865,0.876-6.715,2.334C4.459-261.315,2.984-263.375,2.495-265.798z
	 M41.302-242.619c-0.038-0.003-0.077-0.004-0.117-0.005l-2.047-0.042v0.047H13.734l-0.594-0.003
	c-4.864-0.023-8.822-4.001-8.822-8.865c0-4.89,3.978-8.868,8.867-8.868c0.15,0,0.299,0.012,0.447,0.021l0.148,0.011l1.314,0.085
	l0.598-1.174c2.224-4.373,6.643-7.09,11.531-7.09c6.062,0,11.381,4.298,12.65,10.219l0.317,1.482l1.514,0.095
	c3.708,0.231,6.612,3.319,6.612,7.03C48.318-245.798,45.175-242.642,41.302-242.619z"/>
<g>
	<rect x="126.476" y="-250.079" width="2" height="7"/>
	<rect x="134.476" y="-254.079" width="2" height="7"/>
	<rect x="118.476" y="-254.079" width="2" height="7"/>
	<rect x="126.476" y="-240.079" width="2" height="7"/>
	<rect x="134.476" y="-244.079" width="2" height="7"/>
	<rect x="118.476" y="-244.079" width="2" height="7"/>
	<path d="M145.104-267.067c-1.596-7.445-8.207-13.029-16.127-13.029c-6.423,0-11.977,3.678-14.702,9.035
		c-0.266-0.018-0.53-0.04-0.8-0.04c-6.627,0-11.999,5.372-11.999,12c0,6.607,5.34,11.965,11.938,11.998v0.003h2.062v-2h-1.604
		l-0.447-0.003c-5.485-0.027-9.948-4.513-9.948-9.998c0-5.514,4.485-10,9.999-10c0.175,0,0.347,0.014,0.52,0.025l0.148,0.01
		l1.316,0.088l0.598-1.176c2.492-4.899,7.443-7.942,12.92-7.942c6.79,0,12.75,4.814,14.172,11.448l0.317,1.482l1.514,0.095
		c4.203,0.262,7.496,3.763,7.496,7.971c0,4.397-3.565,7.977-7.957,8c-0.05-0.003-0.093-0.005-0.137-0.007l-2.043,0.007h-2.863v2
		h4.863v-0.007c0.046,0.001,0.091,0.007,0.137,0.007c5.521,0,10-4.477,10-10C154.476-262.411,150.331-266.742,145.104-267.067z"/>
</g>
<g>
	<path d="M-57.323-177.71c-1.596-7.445-8.207-13.029-16.127-13.029c-6.423,0-11.977,3.678-14.702,9.035
		c-0.266-0.018-0.53-0.04-0.8-0.04c-6.627,0-11.999,5.372-11.999,12c0,6.607,5.34,11.965,11.938,11.998v0.003h2.062v-2h-1.604
		l-0.447-0.003c-5.485-0.027-9.948-4.513-9.948-9.998c0-5.514,4.485-10,9.999-10c0.175,0,0.347,0.014,0.52,0.025l0.148,0.01
		l1.316,0.088l0.598-1.176c2.492-4.899,7.443-7.942,12.92-7.942c6.79,0,12.75,4.814,14.172,11.448l0.317,1.482l1.514,0.095
		c4.203,0.262,7.496,3.763,7.496,7.971c0,4.397-3.565,7.977-7.957,8c-0.05-0.003-0.093-0.005-0.137-0.007l-2.043,0.007h-2.863v2
		h4.863v-0.007c0.046,0.001,0.091,0.007,0.137,0.007c5.521,0,10-4.477,10-10C-47.951-173.054-52.096-177.385-57.323-177.71z"/>
	<polygon points="-75.951,-150.715 -75.951,-148.774 -75.951,-142.715 -73.951,-142.715 -73.951,-148.774 -73.951,-150.715 
		-73.951,-162.715 -75.951,-162.715 	"/>
	<polygon points="-67.951,-154.715 -67.951,-152.962 -67.951,-146.715 -65.951,-146.715 -65.951,-152.962 -65.951,-154.715 
		-65.951,-166.715 -67.951,-166.715 	"/>
	<polygon points="-83.951,-154.715 -83.951,-152.649 -83.951,-146.715 -81.951,-146.715 -81.951,-152.649 -81.951,-154.715 
		-81.951,-166.715 -83.951,-166.715 	"/>
</g>
<g>
	<polygon points="238.326,-153.804 231.443,-163.634 229.806,-162.486 236.688,-152.656 237.801,-151.067 241.276,-146.104 
		242.915,-147.25 239.439,-152.215 	"/>
	<polygon points="246.328,-153.806 239.443,-163.634 237.806,-162.485 244.691,-152.657 245.696,-151.222 249.28,-146.106 
		250.919,-147.253 247.335,-152.369 	"/>
	<polygon points="230.326,-153.804 223.443,-163.634 221.806,-162.485 228.688,-152.656 229.873,-150.964 233.277,-146.103 
		234.915,-147.25 231.512,-152.111 	"/>
	<path d="M249.434-177.443c-1.596-7.445-8.207-13.029-16.127-13.029c-6.423,0-11.977,3.678-14.702,9.035
		c-0.266-0.018-0.53-0.04-0.8-0.04c-6.627,0-11.999,5.372-11.999,12c0,6.607,5.34,11.965,11.938,11.998v0.003h2.062v-2h-1.604
		l-0.447-0.003c-5.485-0.027-9.948-4.513-9.948-9.998c0-5.514,4.485-10,9.999-10c0.175,0,0.347,0.014,0.52,0.025l0.148,0.01
		l1.316,0.088l0.598-1.176c2.492-4.899,7.443-7.942,12.92-7.942c6.79,0,12.75,4.814,14.172,11.448l0.317,1.482l1.514,0.095
		c4.203,0.262,7.496,3.763,7.496,7.971c0,4.397-3.565,7.977-7.957,8c-0.05-0.003-0.093-0.005-0.137-0.007l-1.043,0.007h0.137v2
		h0.863v-0.007c0.046,0.001,0.091,0.007,0.137,0.007c5.521,0,10-4.477,10-10C258.806-172.787,254.661-177.118,249.434-177.443z"/>
</g>
<g>
	<rect x="221.132" y="-286.525" width="2" height="7.973"/>
	<rect x="202.132" y="-267.611" width="7.973" height="2"/>
	<rect x="206.805" y="-278.878" transform="matrix(0.7071 0.7071 -0.7071 0.7071 -134.7498 -230.441)" width="7.974" height="2"/>
	<rect x="232.314" y="-281.86" transform="matrix(0.7071 0.7071 -0.7071 0.7071 -128.1507 -246.365)" width="2" height="7.972"/>
	<rect x="235.132" y="-245.652" width="2" height="7"/>
	<rect x="243.132" y="-249.652" width="2" height="7"/>
	<rect x="227.132" y="-249.652" width="2" height="7"/>
	<rect x="235.132" y="-235.652" width="2" height="7"/>
	<rect x="243.132" y="-239.652" width="2" height="7"/>
	<rect x="227.132" y="-239.652" width="2" height="7"/>
	<path d="M251.644-260.735c-1.444-6.742-7.433-11.8-14.605-11.8c-2.185,0-4.258,0.47-6.126,1.313
		c-1.667-3.202-5.007-5.394-8.866-5.394c-5.522,0-10,4.477-10,9.999c0,2.46,0.899,4.702,2.373,6.442
		c-1.429,1.84-2.287,4.144-2.287,6.653c0,5.983,4.836,10.836,10.813,10.865v0.003h1.188v-2h-0.721l-0.457-0.003
		c-4.864-0.023-8.822-4.001-8.822-8.865c0-4.89,3.978-8.868,8.867-8.868c0.15,0,0.299,0.012,0.447,0.022l0.148,0.01l1.314,0.085
		l0.597-1.175c2.225-4.372,6.644-7.089,11.532-7.089c6.062,0,11.382,4.298,12.649,10.219l0.318,1.483l1.514,0.094
		c3.708,0.23,6.612,3.319,6.612,7.03c0,3.878-3.144,7.035-7.017,7.057c-0.042-0.003-0.079-0.005-0.117-0.005l-2.047,0.005h-0.819v2
		h2.819v-0.006c0.042,0.001,0.082,0.006,0.124,0.006c5.001,0,9.057-4.054,9.057-9.057
		C260.132-256.519,256.378-260.44,251.644-260.735z M223.724-264.353c-0.241-0.016-0.48-0.036-0.725-0.036
		c-2.766,0-5.282,1.041-7.2,2.743c-1.092-1.366-1.753-3.09-1.753-4.971c0-4.41,3.589-7.999,8-7.999c3.091,0,5.76,1.773,7.091,4.345
		C226.839-268.83,224.959-266.782,223.724-264.353z"/>
</g>
<g>
	<rect x="335.549" y="-247.1" width="2" height="7"/>
	<rect x="343.549" y="-251.1" width="2" height="7"/>
	<rect x="327.549" y="-251.1" width="2" height="7"/>
	<rect x="335.549" y="-237.1" width="2" height="7"/>
	<rect x="343.549" y="-241.1" width="2" height="7"/>
	<rect x="327.549" y="-241.1" width="2" height="7"/>
	<path d="M352.061-262.183c-1.444-6.742-7.433-11.8-14.605-11.8c-1.799,0-3.522,0.32-5.118,0.904
		c-0.949-5.108-5.404-8.98-10.788-8.98c-0.413,0-0.819,0.027-1.222,0.071c0.744,1.112,1.179,2.448,1.179,3.886c0,3.865-3.134,7-7,7
		c-1.438,0-2.773-0.435-3.886-1.179c-0.044,0.401-0.071,0.809-0.071,1.222c0,3.712,1.845,6.987,4.661,8.979
		c-1.653,1.907-2.661,4.389-2.661,7.111c0,5.983,4.836,10.836,10.813,10.865v0.003h1.188v-2h-0.721l-0.457-0.003
		c-4.864-0.023-8.822-4.001-8.822-8.865c0-4.89,3.978-8.868,8.867-8.868c0.15,0,0.299,0.012,0.447,0.022l0.148,0.01l1.314,0.085
		l0.597-1.175c2.225-4.372,6.644-7.089,11.532-7.089c6.062,0,11.382,4.298,12.649,10.219l0.318,1.483l1.514,0.094
		c3.708,0.23,6.612,3.319,6.612,7.03c0,3.878-3.144,7.035-7.017,7.057c-0.042-0.003-0.079-0.005-0.117-0.005l-2.047,0.005h-0.819v2
		h2.819v-0.006c0.042,0.001,0.082,0.006,0.124,0.006c5.001,0,9.057-4.054,9.057-9.057
		C360.549-257.966,356.795-261.888,352.061-262.183z M324.141-265.8c-0.241-0.016-0.48-0.036-0.725-0.036
		c-2.537,0-4.865,0.876-6.715,2.334c-2.012-1.294-3.487-3.354-3.976-5.776c0.582,0.117,1.178,0.177,1.78,0.177c4.963,0,9-4.037,9-9
		c0-0.603-0.06-1.198-0.177-1.78c3.733,0.753,6.629,3.824,7.133,7.64C327.751-270.798,325.536-268.543,324.141-265.8z"/>
</g>
<g>
	<polygon points="28.318,-146.276 28.318,-144.336 28.318,-138.276 30.318,-138.276 30.318,-144.336 30.318,-146.276 
		30.318,-158.276 28.318,-158.276 	"/>
	<polygon points="36.318,-150.276 36.318,-148.523 36.318,-142.276 38.318,-142.276 38.318,-148.523 38.318,-150.276 
		38.318,-162.276 36.318,-162.276 	"/>
	<polygon points="20.318,-150.276 20.318,-148.211 20.318,-142.276 22.318,-142.276 22.318,-148.211 22.318,-150.276 
		22.318,-162.276 20.318,-162.276 	"/>
	<rect x="14.318" y="-197.179" width="2" height="7.973"/>
	<rect x="-4.682" y="-178.265" width="7.973" height="2"/>
	<rect x="-0.009" y="-189.531" transform="matrix(0.7071 0.7071 -0.7071 0.7071 -132.1464 -58.0328)" width="7.974" height="2"/>
	<rect x="25.5" y="-192.513" transform="matrix(0.7071 0.7071 -0.7071 0.7071 -125.5473 -73.9567)" width="2" height="7.972"/>
	<path d="M44.83-171.389c-1.444-6.742-7.433-11.8-14.605-11.8c-2.185,0-4.258,0.47-6.127,1.313
		c-1.666-3.202-5.006-5.394-8.865-5.394c-5.522,0-10,4.477-10,9.999c0,2.46,0.898,4.702,2.373,6.442
		c-1.428,1.84-2.287,4.144-2.287,6.653c0,5.983,4.836,10.836,10.813,10.865v0.003h1.188v-2h-0.721l-0.457-0.003
		c-4.864-0.023-8.822-4.001-8.822-8.865c0-4.89,3.978-8.868,8.867-8.868c0.15,0,0.299,0.012,0.447,0.022l0.148,0.01l1.314,0.085
		l0.597-1.175c2.225-4.372,6.644-7.089,11.532-7.089c6.062,0,11.382,4.298,12.649,10.219l0.318,1.483l1.514,0.094
		c3.708,0.23,6.612,3.319,6.612,7.03c0,3.878-3.144,7.035-7.017,7.057c-0.042-0.003-0.079-0.005-0.117-0.005l-2.047,0.005h-0.819v2
		h2.819v-0.006c0.042,0.001,0.082,0.006,0.124,0.006c5.001,0,9.057-4.054,9.057-9.057C53.318-167.172,49.564-171.094,44.83-171.389z
		 M16.91-175.006c-0.241-0.016-0.48-0.036-0.725-0.036c-2.766,0-5.281,1.042-7.2,2.743c-1.092-1.367-1.753-3.09-1.753-4.971
		c0-4.41,3.589-7.999,8-7.999c3.092,0,5.76,1.773,7.092,4.345C20.025-179.484,18.146-177.436,16.91-175.006z"/>
</g>
<g>
	<polygon points="128.716,-148.793 128.716,-146.853 128.716,-140.793 130.716,-140.793 130.716,-146.853 130.716,-148.793 
		130.716,-160.793 128.716,-160.793 	"/>
	<polygon points="136.716,-152.793 136.716,-151.04 136.716,-144.793 138.716,-144.793 138.716,-151.04 138.716,-152.793 
		138.716,-164.793 136.716,-164.793 	"/>
	<polygon points="120.716,-152.793 120.716,-150.728 120.716,-144.793 122.716,-144.793 122.716,-150.728 122.716,-152.793 
		122.716,-164.793 120.716,-164.793 	"/>
	<path d="M145.228-173.905c-1.444-6.742-7.433-11.8-14.605-11.8c-1.799,0-3.521,0.32-5.118,0.904
		c-0.949-5.108-5.404-8.98-10.788-8.98c-0.413,0-0.819,0.027-1.222,0.071c0.744,1.112,1.179,2.448,1.179,3.886c0,3.865-3.134,7-7,7
		c-1.438,0-2.773-0.435-3.886-1.179c-0.044,0.401-0.071,0.809-0.071,1.222c0,3.712,1.845,6.987,4.661,8.979
		c-1.653,1.907-2.661,4.389-2.661,7.111c0,5.983,4.836,10.836,10.813,10.865v0.003h1.188v-2h-0.721l-0.457-0.003
		c-4.864-0.023-8.822-4.001-8.822-8.865c0-4.89,3.978-8.868,8.867-8.868c0.15,0,0.299,0.012,0.447,0.022l0.148,0.01l1.314,0.085
		l0.597-1.175c2.225-4.372,6.644-7.089,11.532-7.089c6.062,0,11.382,4.298,12.649,10.219l0.318,1.483l1.514,0.094
		c3.708,0.23,6.612,3.319,6.612,7.03c0,3.878-3.144,7.035-7.017,7.057c-0.042-0.003-0.079-0.005-0.117-0.005l-2.047,0.005h-0.819v2
		h2.819v-0.006c0.042,0.001,0.082,0.006,0.124,0.006c5.001,0,9.057-4.054,9.057-9.057
		C153.716-169.688,149.962-173.61,145.228-173.905z M117.308-177.522c-0.241-0.016-0.48-0.036-0.725-0.036
		c-2.537,0-4.865,0.876-6.715,2.334c-2.012-1.294-3.486-3.354-3.976-5.776c0.582,0.117,1.178,0.177,1.78,0.177c4.963,0,9-4.037,9-9
		c0-0.603-0.06-1.198-0.177-1.78c3.733,0.753,6.629,3.824,7.134,7.641C120.917-182.521,118.702-180.265,117.308-177.522z"/>
</g>
<g>
	<polygon points="345.751,-147.849 338.868,-157.679 337.23,-156.531 344.113,-146.701 345.226,-145.112 348.701,-140.148 
		350.34,-141.295 346.864,-146.26 	"/>
	<polygon points="353.753,-147.851 346.868,-157.679 345.23,-156.53 352.116,-146.702 353.121,-145.267 356.705,-140.151 
		358.344,-141.298 354.76,-146.414 	"/>
	<polygon points="337.751,-147.849 330.868,-157.679 329.23,-156.53 336.113,-146.701 337.298,-145.009 340.702,-140.147 
		342.34,-141.295 338.937,-146.156 	"/>
	<rect x="325.23" y="-195.397" width="2" height="7.973"/>
	<rect x="306.23" y="-176.483" width="7.973" height="2"/>
	<rect x="310.903" y="-187.75" transform="matrix(0.7071 0.7071 -0.7071 0.7071 -39.8228 -277.3591)" width="7.974" height="2"/>
	<rect x="336.412" y="-190.732" transform="matrix(0.7071 0.7071 -0.7071 0.7071 -33.2237 -293.2831)" width="2" height="7.972"/>
	<path d="M355.742-169.607c-1.444-6.742-7.433-11.8-14.605-11.8c-2.185,0-4.258,0.47-6.126,1.313
		c-1.667-3.202-5.007-5.394-8.866-5.394c-5.522,0-10,4.477-10,9.999c0,2.46,0.899,4.702,2.373,6.442
		c-1.429,1.84-2.287,4.144-2.287,6.653c0,5.983,4.836,10.836,10.813,10.865v0.003h1.188v-2h-0.721l-0.457-0.003
		c-4.864-0.023-8.822-4.001-8.822-8.865c0-4.89,3.978-8.868,8.867-8.868c0.15,0,0.299,0.012,0.447,0.022l0.148,0.01l1.314,0.085
		l0.597-1.175c2.225-4.372,6.644-7.089,11.532-7.089c6.062,0,11.382,4.298,12.649,10.219l0.318,1.483l1.514,0.094
		c3.708,0.23,6.612,3.319,6.612,7.03c0,3.878-3.144,7.035-7.017,7.057c-0.042-0.003-0.079-0.005-0.117-0.005l-0.047,0.005h-0.819v2
		h0.819v-0.006c0.042,0.001,0.082,0.006,0.124,0.006c5.001,0,9.057-4.054,9.057-9.057
		C364.23-165.391,360.477-169.313,355.742-169.607z M327.822-173.225c-0.241-0.016-0.48-0.036-0.725-0.036
		c-2.766,0-5.282,1.042-7.2,2.743c-1.092-1.367-1.753-3.09-1.753-4.971c0-4.41,3.589-7.999,8-7.999c3.091,0,5.76,1.773,7.091,4.345
		C330.938-177.703,329.058-175.654,327.822-173.225z"/>
</g>
<g>
	<polygon points="-377.68,-51.363 -384.563,-61.193 -386.2,-60.046 -379.317,-50.216 -378.205,-48.627 -374.729,-43.663 
		-373.091,-44.81 -376.566,-49.774 	"/>
	<polygon points="-369.678,-51.365 -376.563,-61.193 -378.2,-60.045 -371.314,-50.217 -370.31,-48.781 -366.726,-43.666 
		-365.087,-44.813 -368.671,-49.929 	"/>
	<polygon points="-385.68,-51.363 -392.563,-61.193 -394.2,-60.045 -387.317,-50.216 -386.133,-48.523 -382.729,-43.662 
		-381.091,-44.81 -384.494,-49.671 	"/>
	<path d="M-367.688-73.122c-1.444-6.742-7.433-11.8-14.605-11.8c-1.799,0-3.522,0.32-5.118,0.904
		c-0.949-5.108-5.404-8.98-10.788-8.98c-0.413,0-0.819,0.027-1.222,0.071c0.744,1.112,1.179,2.448,1.179,3.886c0,3.865-3.134,7-7,7
		c-1.438,0-2.773-0.435-3.886-1.179c-0.044,0.401-0.071,0.809-0.071,1.222c0,3.712,1.845,6.987,4.661,8.979
		c-1.653,1.907-2.661,4.389-2.661,7.111c0,5.983,4.836,10.836,10.813,10.865v0.003h1.188v-2h-0.721l-0.457-0.003
		c-4.864-0.023-8.822-4.001-8.822-8.865c0-4.89,3.978-8.868,8.867-8.868c0.15,0,0.299,0.012,0.447,0.022l0.148,0.01l1.314,0.085
		l0.597-1.175c2.225-4.372,6.644-7.089,11.532-7.089c6.062,0,11.382,4.298,12.649,10.219l0.318,1.483l1.514,0.094
		c3.708,0.23,6.612,3.319,6.612,7.03c0,3.878-3.144,7.035-7.017,7.057c-0.042-0.003-0.079-0.005-0.117-0.005l-0.047,0.005h-0.819v2
		h0.819v-0.006c0.042,0.001,0.082,0.006,0.124,0.006c5.001,0,9.057-4.054,9.057-9.057C-359.2-68.905-362.954-72.827-367.688-73.122z
		 M-395.608-76.739c-0.241-0.016-0.48-0.036-0.725-0.036c-2.537,0-4.865,0.876-6.715,2.334c-2.012-1.294-3.487-3.354-3.976-5.776
		c0.582,0.117,1.178,0.177,1.78,0.177c4.963,0,9-4.037,9-9c0-0.603-0.06-1.198-0.177-1.78c3.733,0.753,6.629,3.824,7.133,7.641
		C-391.998-81.737-394.213-79.481-395.608-76.739z"/>
</g>
<g>
	<rect x="-385.2" y="-155.21" width="2" height="4"/>
	<rect x="-377.2" y="-159.231" width="2" height="4.021"/>
	<rect x="-393.2" y="-159.231" width="2" height="4.021"/>
	<path d="M-366.572-175.198c-1.596-7.445-8.207-13.029-16.127-13.029c-6.423,0-11.977,3.678-14.702,9.035
		c-0.266-0.018-0.53-0.04-0.8-0.04c-6.627,0-11.999,5.372-11.999,12c0,6.607,5.34,11.965,11.938,11.998v0.003h2.062v-2h-1.604
		l-0.447-0.003c-5.485-0.027-9.948-4.513-9.948-9.998c0-5.514,4.485-10,9.999-10c0.175,0,0.347,0.014,0.52,0.025l0.148,0.01
		l1.316,0.088l0.598-1.176c2.492-4.899,7.443-7.942,12.92-7.942c6.79,0,12.75,4.814,14.172,11.448l0.317,1.482l1.514,0.095
		c4.203,0.262,7.496,3.763,7.496,7.971c0,4.397-3.565,7.977-7.957,8c-0.05-0.003-0.093-0.005-0.137-0.007l-2.043,0.007h-2.863v2
		h4.863v-0.007c0.046,0.001,0.091,0.007,0.137,0.007c5.521,0,10-4.477,10-10C-357.2-170.542-361.345-174.873-366.572-175.198z"/>
	<circle cx="-376.2" cy="-150.189" r="1.5"/>
	<circle cx="-384.2" cy="-146.221" r="1.5"/>
	<circle cx="-392.2" cy="-150.231" r="1.5"/>
</g>
<g>
	<rect x="-292.279" y="-194.664" width="2" height="7.973"/>
	<rect x="-311.279" y="-175.75" width="7.973" height="2"/>
	<rect x="-306.606" y="-187.016" transform="matrix(0.7071 0.7071 -0.7071 0.7071 -220.1687 159.501)" width="7.974" height="2"/>
	<rect x="-281.098" y="-189.998" transform="matrix(0.7071 0.7071 -0.7071 0.7071 -213.5695 143.5771)" width="2" height="7.972"/>
	<path d="M-261.768-168.874c-1.444-6.742-7.433-11.8-14.605-11.8c-2.185,0-4.258,0.47-6.126,1.313
		c-1.667-3.202-5.007-5.394-8.866-5.394c-5.522,0-10,4.477-10,9.999c0,2.46,0.899,4.702,2.373,6.442
		c-1.429,1.84-2.287,4.144-2.287,6.653c0,5.983,4.836,10.836,10.813,10.865v0.003h1.188v-2H-290l-0.457-0.003
		c-4.864-0.023-8.822-4.001-8.822-8.865c0-4.89,3.978-8.868,8.867-8.868c0.15,0,0.299,0.012,0.447,0.022l0.148,0.01l1.314,0.085
		l0.597-1.175c2.225-4.372,6.644-7.089,11.532-7.089c6.062,0,11.382,4.298,12.649,10.219l0.318,1.483l1.514,0.094
		c3.708,0.23,6.612,3.319,6.612,7.03c0,3.878-3.144,7.035-7.017,7.057c-0.042-0.003-0.079-0.005-0.117-0.005l-2.047,0.005h-0.819v2
		h2.819v-0.006c0.042,0.001,0.082,0.006,0.124,0.006c5.001,0,9.057-4.054,9.057-9.057
		C-253.279-164.657-257.033-168.579-261.768-168.874z M-289.688-172.491c-0.241-0.016-0.48-0.036-0.725-0.036
		c-2.766,0-5.282,1.042-7.2,2.743c-1.092-1.367-1.753-3.09-1.753-4.971c0-4.41,3.589-7.999,8-7.999c3.091,0,5.76,1.773,7.091,4.345
		C-286.572-176.97-288.452-174.921-289.688-172.491z"/>
	<rect x="-278.279" y="-150.775" width="2" height="4"/>
	<rect x="-270.279" y="-154.797" width="2" height="4.021"/>
	<rect x="-286.279" y="-154.797" width="2" height="4.021"/>
	<circle cx="-269.279" cy="-145.755" r="1.5"/>
	<circle cx="-277.279" cy="-141.786" r="1.5"/>
	<circle cx="-285.279" cy="-145.797" r="1.5"/>
</g>
<g>
	<path d="M-160.842-169.831c-1.444-6.742-7.433-11.8-14.605-11.8c-1.799,0-3.522,0.32-5.118,0.904
		c-0.949-5.108-5.404-8.98-10.788-8.98c-0.413,0-0.819,0.027-1.222,0.071c0.744,1.112,1.179,2.448,1.179,3.886c0,3.865-3.134,7-7,7
		c-1.438,0-2.773-0.435-3.886-1.179c-0.044,0.401-0.071,0.809-0.071,1.222c0,3.712,1.845,6.987,4.661,8.979
		c-1.653,1.907-2.661,4.389-2.661,7.111c0,5.983,4.836,10.836,10.813,10.865v0.003h1.188v-2h-0.721l-0.457-0.003
		c-4.864-0.023-8.822-4.001-8.822-8.865c0-4.89,3.978-8.868,8.867-8.868c0.15,0,0.299,0.012,0.447,0.022l0.148,0.01l1.314,0.085
		l0.597-1.175c2.225-4.372,6.644-7.089,11.532-7.089c6.062,0,11.382,4.298,12.649,10.219l0.318,1.483l1.514,0.094
		c3.708,0.23,6.612,3.319,6.612,7.03c0,3.878-3.144,7.035-7.017,7.057c-0.042-0.003-0.079-0.005-0.117-0.005l-2.047,0.005h-0.819v2
		h2.819v-0.006c0.042,0.001,0.082,0.006,0.124,0.006c5.001,0,9.057-4.054,9.057-9.057
		C-152.354-165.614-156.107-169.536-160.842-169.831z M-188.762-173.448c-0.241-0.016-0.48-0.036-0.725-0.036
		c-2.537,0-4.865,0.876-6.715,2.334c-2.012-1.294-3.487-3.354-3.976-5.776c0.582,0.117,1.178,0.177,1.78,0.177c4.963,0,9-4.037,9-9
		c0-0.603-0.06-1.198-0.177-1.78c3.733,0.753,6.629,3.824,7.133,7.641C-185.151-178.446-187.366-176.19-188.762-173.448z"/>
	<rect x="-177.354" y="-151.732" width="2" height="4"/>
	<rect x="-169.354" y="-155.754" width="2" height="4.021"/>
	<rect x="-185.354" y="-155.754" width="2" height="4.021"/>
	<circle cx="-168.354" cy="-146.712" r="1.5"/>
	<circle cx="-176.354" cy="-142.743" r="1.5"/>
	<circle cx="-184.354" cy="-146.754" r="1.5"/>
</g>
<g>
	<path d="M-264.151-76.801c-1.596-7.445-8.207-13.029-16.127-13.029c-6.423,0-11.977,3.678-14.702,9.035
		c-0.266-0.018-0.53-0.04-0.8-0.04c-6.627,0-11.999,5.372-11.999,12c0,6.607,5.34,11.965,11.938,11.998v0.003h6.062v-2h-5.604
		l-0.447-0.003c-5.485-0.027-9.948-4.513-9.948-9.998c0-5.514,4.485-10,9.999-10c0.175,0,0.347,0.014,0.52,0.025l0.148,0.01
		l1.316,0.088l0.598-1.176c2.492-4.899,7.443-7.942,12.92-7.942c6.79,0,12.75,4.814,14.172,11.448l0.317,1.482l1.514,0.095
		c4.203,0.262,7.496,3.763,7.496,7.971c0,4.397-3.565,7.977-7.957,8c-0.05-0.003-0.093-0.005-0.137-0.007l-5.043,0.007h0.137v2
		h4.863v-0.007c0.046,0.001,0.091,0.007,0.137,0.007c5.521,0,10-4.477,10-10C-254.779-72.145-258.924-76.476-264.151-76.801z"/>
	<polygon points="-279.938,-56.83 -278.168,-56.83 -277.737,-56.83 -275.728,-56.83 -282.142,-65.991 -283.779,-64.844 
		-279.568,-58.83 -281.339,-58.83 -283.779,-58.83 -282.508,-57.014 -281.396,-55.425 -275.418,-46.83 -273.779,-47.977 
		-279.757,-56.572 	"/>
</g>
<g>
	<rect x="-188.354" y="-95.931" width="2" height="7.973"/>
	<rect x="-207.354" y="-77.017" width="7.973" height="2"/>
	<rect x="-202.68" y="-88.283" transform="matrix(0.7071 0.7071 -0.7071 0.7071 -119.9145 114.9328)" width="7.974" height="2"/>
	<rect x="-177.172" y="-91.265" transform="matrix(0.7071 0.7071 -0.7071 0.7071 -113.3153 99.0088)" width="2" height="7.972"/>
	<path d="M-157.842-70.141c-1.444-6.742-7.433-11.8-14.605-11.8c-2.185,0-4.258,0.47-6.127,1.313
		c-1.666-3.202-5.006-5.394-8.865-5.394c-5.522,0-10,4.477-10,9.999c0,2.46,0.898,4.702,2.373,6.442
		c-1.428,1.84-2.287,4.144-2.287,6.653c0,5.983,4.836,10.836,10.813,10.865v0.003h4.188v-2h-3.721l-0.457-0.003
		c-4.864-0.023-8.822-4.001-8.822-8.865c0-4.89,3.978-8.868,8.867-8.868c0.15,0,0.299,0.012,0.447,0.022l0.148,0.01l1.314,0.085
		l0.597-1.175c2.225-4.372,6.644-7.089,11.532-7.089c6.062,0,11.382,4.298,12.649,10.219l0.318,1.483l1.514,0.094
		c3.708,0.23,6.612,3.319,6.612,7.03c0,3.878-3.144,7.035-7.017,7.057c-0.042-0.003-0.079-0.005-0.117-0.005l-2.047,0.005h-3.819v2
		h5.819v-0.006c0.042,0.001,0.082,0.006,0.124,0.006c5.001,0,9.057-4.054,9.057-9.057
		C-149.354-65.924-153.107-69.846-157.842-70.141z M-185.762-73.758c-0.241-0.016-0.48-0.036-0.725-0.036
		c-2.766,0-5.281,1.041-7.2,2.743c-1.092-1.366-1.753-3.09-1.753-4.971c0-4.41,3.589-7.999,8-7.999c3.092,0,5.76,1.773,7.092,4.345
		C-182.646-78.235-184.525-76.188-185.762-73.758z"/>
	<polygon points="-173.512,-52.051 -171.742,-52.051 -171.312,-52.051 -169.302,-52.051 -175.716,-61.212 -177.354,-60.064 
		-173.143,-54.051 -174.913,-54.051 -177.354,-54.051 -176.082,-52.234 -174.97,-50.646 -168.992,-42.051 -167.354,-43.197 
		-173.331,-51.793 	"/>
</g>
<g>
	<path d="M-58.257-72.437c-1.444-6.742-7.433-11.8-14.605-11.8c-1.799,0-3.521,0.32-5.118,0.904
		c-0.949-5.108-5.404-8.98-10.788-8.98c-0.413,0-0.819,0.027-1.222,0.071c0.744,1.112,1.179,2.448,1.179,3.886c0,3.865-3.134,7-7,7
		c-1.438,0-2.773-0.435-3.886-1.179c-0.044,0.401-0.071,0.809-0.071,1.222c0,3.712,1.845,6.987,4.661,8.979
		c-1.653,1.907-2.661,4.389-2.661,7.111c0,5.983,4.836,10.836,10.813,10.865v0.003h4.188v-2h-3.721l-0.457-0.003
		c-4.864-0.023-8.822-4.001-8.822-8.865c0-4.89,3.978-8.868,8.867-8.868c0.15,0,0.299,0.012,0.447,0.022l0.148,0.01l1.314,0.085
		l0.597-1.175c2.225-4.372,6.644-7.089,11.532-7.089c6.062,0,11.382,4.298,12.649,10.219l0.318,1.483l1.514,0.094
		c3.708,0.23,6.612,3.319,6.612,7.03c0,3.878-3.144,7.035-7.017,7.057c-0.042-0.003-0.079-0.005-0.117-0.005l-2.047,0.005h-3.819v2
		h5.819v-0.006c0.042,0.001,0.082,0.006,0.124,0.006c5.001,0,9.057-4.054,9.057-9.057C-49.769-68.22-53.522-72.142-58.257-72.437z
		 M-86.177-76.054c-0.241-0.016-0.48-0.036-0.725-0.036c-2.537,0-4.865,0.876-6.715,2.334c-2.012-1.294-3.486-3.354-3.976-5.776
		c0.582,0.117,1.178,0.177,1.78,0.177c4.963,0,9-4.037,9-9c0-0.603-0.06-1.198-0.177-1.78c3.733,0.753,6.629,3.824,7.134,7.64
		C-82.567-81.052-84.782-78.797-86.177-76.054z"/>
	<polygon points="-73.927,-54.347 -72.157,-54.347 -71.727,-54.347 -69.717,-54.347 -76.131,-63.508 -77.769,-62.36 
		-73.558,-56.347 -75.328,-56.347 -77.769,-56.347 -76.497,-54.53 -75.385,-52.941 -69.407,-44.347 -67.769,-45.493 
		-73.746,-54.089 	"/>
</g>
<g>
	<path d="M42.628-76.301c-1.596-7.445-8.207-13.029-16.127-13.029c-6.423,0-11.977,3.678-14.702,9.035
		c-0.266-0.018-0.53-0.04-0.8-0.04C4.372-80.335-1-74.963-1-68.335c0,6.607,5.34,11.965,11.938,11.998v0.003H12v-2h-0.604
		l-0.447-0.003C5.463-58.364,1-62.85,1-68.335c0-5.514,4.485-10,9.999-10c0.175,0,0.347,0.014,0.52,0.025l0.148,0.01l1.316,0.088
		l0.598-1.176c2.492-4.899,7.443-7.942,12.92-7.942c6.79,0,12.75,4.814,14.172,11.448l0.317,1.482l1.514,0.095
		C46.707-74.043,50-70.542,50-66.334c0,4.397-3.565,7.977-7.957,8c-0.05-0.003-0.093-0.005-0.137-0.007L41-58.334v2h0.863v-0.007
		c0.046,0.001,0.091,0.007,0.137,0.007c5.521,0,10-4.477,10-10C52-71.645,47.855-75.976,42.628-76.301z"/>
	
		<rect x="11.434" y="-58.336" transform="matrix(-0.5736 -0.8191 0.8191 -0.5736 73.7573 -76.2807)" width="11.183" height="1.999"/>
	
		<rect x="29.409" y="-58.336" transform="matrix(-0.5736 -0.8191 0.8191 -0.5736 102.0429 -61.5576)" width="11.183" height="1.999"/>
	<polygon points="27.842,-53.33 29.611,-53.33 30.042,-53.33 32.052,-53.33 25.638,-62.491 24,-61.344 28.211,-55.33 26.44,-55.33 
		24,-55.33 25.271,-53.514 26.384,-51.925 31,-45.33 32.639,-46.477 28.022,-53.072 	"/>
</g>
<g>
	<rect x="117.476" y="-95.768" width="2" height="7.973"/>
	<rect x="98.476" y="-76.854" width="7.973" height="2"/>
	<rect x="103.149" y="-88.12" transform="matrix(0.7071 0.7071 -0.7071 0.7071 -30.2239 -101.2733)" width="7.974" height="2"/>
	<rect x="128.657" y="-91.102" transform="matrix(0.7071 0.7071 -0.7071 0.7071 -23.6247 -117.1973)" width="2" height="7.972"/>
	<path d="M147.987-69.978c-1.444-6.742-7.433-11.8-14.605-11.8c-2.185,0-4.258,0.47-6.126,1.313
		c-1.667-3.202-5.007-5.394-8.866-5.394c-5.522,0-10,4.477-10,9.999c0,2.46,0.899,4.702,2.373,6.442
		c-1.429,1.84-2.287,4.144-2.287,6.653c0,5.983,4.836,10.836,10.813,10.865v0.003h0.188v-2l-0.178-0.003
		c-4.864-0.023-8.822-4.001-8.822-8.865c0-4.89,3.978-8.868,8.867-8.868c0.15,0,0.299,0.012,0.447,0.022l0.148,0.01l1.314,0.085
		l0.597-1.175c2.225-4.372,6.644-7.089,11.532-7.089c6.062,0,11.382,4.298,12.649,10.219l0.318,1.483l1.514,0.094
		c3.708,0.23,6.612,3.319,6.612,7.03c0,3.878-3.144,7.035-7.017,7.057c-0.042-0.003-0.079-0.005-0.117-0.005l-0.866,0.005v2h0.819
		V-51.9c0.042,0.001,0.082,0.006,0.124,0.006c5.001,0,9.057-4.054,9.057-9.057C156.476-65.761,152.722-69.683,147.987-69.978z
		 M120.067-73.595c-0.241-0.016-0.48-0.036-0.725-0.036c-2.766,0-5.282,1.042-7.2,2.743c-1.092-1.367-1.753-3.09-1.753-4.971
		c0-4.41,3.589-7.999,8-7.999c3.091,0,5.76,1.773,7.091,4.345C123.183-78.073,121.303-76.024,120.067-73.595z"/>
	
		<rect x="117.897" y="-53.897" transform="matrix(-0.5736 -0.8191 0.8191 -0.5736 237.6558 17.9085)" width="11.183" height="1.999"/>
	
		<rect x="135.872" y="-53.897" transform="matrix(-0.5736 -0.8191 0.8191 -0.5736 265.9413 32.6317)" width="11.183" height="1.999"/>
	<polygon points="134.305,-48.892 136.074,-48.892 136.505,-48.892 138.515,-48.892 132.101,-58.053 130.463,-56.905 
		134.674,-50.892 132.903,-50.892 130.463,-50.892 131.734,-49.075 132.847,-47.486 137.463,-40.892 139.102,-42.038 
		134.485,-48.634 	"/>
</g>
<g>
	<path d="M249.825-72.936c-1.444-6.742-7.433-11.8-14.605-11.8c-1.799,0-3.522,0.32-5.118,0.904
		c-0.949-5.108-5.404-8.98-10.788-8.98c-0.413,0-0.819,0.027-1.222,0.071c0.744,1.112,1.179,2.448,1.179,3.886c0,3.865-3.134,7-7,7
		c-1.438,0-2.773-0.435-3.886-1.179c-0.044,0.401-0.071,0.809-0.071,1.222c0,3.712,1.845,6.987,4.661,8.979
		c-1.653,1.907-2.661,4.389-2.661,7.111c0,5.983,4.836,10.836,10.813,10.865v0.003h0.188v-2l-0.178-0.003
		c-4.864-0.023-8.822-4.001-8.822-8.865c0-4.89,3.978-8.868,8.867-8.868c0.15,0,0.299,0.012,0.447,0.022l0.148,0.01l1.314,0.085
		l0.597-1.175c2.225-4.372,6.644-7.089,11.532-7.089c6.062,0,11.382,4.298,12.649,10.219l0.318,1.483l1.514,0.094
		c3.708,0.23,6.612,3.319,6.612,7.03c0,3.878-3.144,7.035-7.017,7.057c-0.042-0.003-0.079-0.005-0.117-0.005l-0.866,0.005v2h0.819
		v-0.006c0.042,0.001,0.082,0.006,0.124,0.006c5.001,0,9.057-4.054,9.057-9.057C258.313-68.719,254.56-72.641,249.825-72.936z
		 M221.905-76.553c-0.241-0.016-0.48-0.036-0.725-0.036c-2.537,0-4.865,0.876-6.715,2.334c-2.012-1.294-3.487-3.354-3.976-5.776
		c0.582,0.117,1.178,0.177,1.78,0.177c4.963,0,9-4.037,9-9c0-0.603-0.06-1.198-0.177-1.78c3.733,0.753,6.629,3.824,7.133,7.641
		C225.516-81.551,223.301-79.295,221.905-76.553z"/>
	
		<rect x="219.734" y="-56.855" transform="matrix(-0.5736 -0.8191 0.8191 -0.5736 400.3332 96.6692)" width="11.183" height="1.999"/>
	
		<rect x="237.709" y="-56.855" transform="matrix(-0.5736 -0.8191 0.8191 -0.5736 428.6187 111.3923)" width="11.183" height="1.999"/>
	<polygon points="236.142,-51.85 237.911,-51.85 238.342,-51.85 240.352,-51.85 233.938,-61.011 232.3,-59.863 236.511,-53.85 
		234.74,-53.85 232.3,-53.85 233.571,-52.033 234.684,-50.444 239.3,-43.85 240.938,-44.996 236.322,-51.592 	"/>
</g>
<g>
	<g>
		<path d="M-160.737,13.52c-1.596-7.445-8.207-13.029-16.127-13.029c-6.423,0-11.977,3.678-14.702,9.035
			c-0.266-0.018-0.53-0.04-0.8-0.04c-6.627,0-11.999,5.372-11.999,12c0,6.607,5.34,11.965,11.938,11.998v0.003h2.062v-2h-1.604
			l-0.447-0.003c-5.485-0.027-9.948-4.513-9.948-9.998c0-5.514,4.485-10,9.999-10c0.175,0,0.347,0.014,0.52,0.025l0.148,0.01
			l1.316,0.088l0.598-1.176c2.492-4.899,7.443-7.942,12.92-7.942c6.79,0,12.75,4.814,14.172,11.448l0.317,1.482l1.514,0.095
			c4.203,0.262,7.496,3.763,7.496,7.971c0,4.397-3.565,7.977-7.957,8c-0.05-0.003-0.093-0.005-0.137-0.007l-2.043,0.007h-2.863v2
			h4.863v-0.007c0.046,0.001,0.091,0.007,0.137,0.007c5.521,0,10-4.477,10-10C-151.365,18.176-155.51,13.845-160.737,13.52z"/>
	</g>
	<g>
		<circle cx="-185.865" cy="27.063" r="1.5"/>
	</g>
	<g>
		<circle cx="-181.865" cy="32.986" r="1.5"/>
	</g>
	<g>
		<circle cx="-173.865" cy="32.986" r="1.5"/>
	</g>
	<g>
		<circle cx="-177.865" cy="27.063" r="1.5"/>
	</g>
	<g>
		<circle cx="-169.865" cy="27.063" r="1.5"/>
	</g>
	<g>
		<circle cx="-185.865" cy="39.008" r="1.5"/>
	</g>
	<g>
		<circle cx="-177.865" cy="39.008" r="1.5"/>
	</g>
	<g>
		<circle cx="-169.865" cy="39.008" r="1.5"/>
	</g>
</g>
<g>
	<g>
		<rect x="-84.951" y="-1.958" width="2" height="7.973"/>
	</g>
	<g>
		<rect x="-103.951" y="16.956" width="7.973" height="2"/>
	</g>
	<g>
		<rect x="-99.278" y="5.69" transform="matrix(0.7071 0.7071 -0.7071 0.7071 -23.1799 69.3402)" width="7.974" height="2"/>
	</g>
	<g>
		<rect x="-73.769" y="2.708" transform="matrix(0.7071 0.7071 -0.7071 0.7071 -16.5808 53.4163)" width="2" height="7.972"/>
	</g>
	<g>
		<path d="M-54.439,23.832c-1.444-6.742-7.433-11.8-14.605-11.8c-2.185,0-4.258,0.47-6.127,1.313
			c-1.666-3.202-5.006-5.394-8.865-5.394c-5.522,0-10,4.477-10,9.999c0,2.46,0.898,4.702,2.373,6.442
			c-1.428,1.84-2.287,4.144-2.287,6.653c0,5.983,4.836,10.836,10.813,10.865v0.003h1.188v-2h-0.721l-0.457-0.003
			c-4.864-0.023-8.822-4.001-8.822-8.865c0-4.89,3.978-8.868,8.867-8.868c0.15,0,0.299,0.012,0.447,0.022l0.148,0.01l1.314,0.085
			l0.597-1.175c2.225-4.372,6.644-7.089,11.532-7.089c6.062,0,11.382,4.298,12.649,10.219l0.318,1.483l1.514,0.094
			c3.708,0.23,6.612,3.319,6.612,7.03c0,3.878-3.144,7.035-7.017,7.057c-0.042-0.003-0.079-0.005-0.117-0.005l-2.047,0.005h-1.819v2
			h3.819v-0.006c0.042,0.001,0.082,0.006,0.124,0.006c5.001,0,9.057-4.054,9.057-9.057C-45.951,28.049-49.705,24.127-54.439,23.832z
			 M-82.359,20.215c-0.241-0.016-0.48-0.036-0.725-0.036c-2.766,0-5.281,1.042-7.2,2.743c-1.092-1.367-1.753-3.09-1.753-4.971
			c0-4.41,3.589-7.999,8-7.999c3.092,0,5.76,1.773,7.092,4.345C-79.244,15.736-81.123,17.785-82.359,20.215z"/>
	</g>
	<g>
		<circle cx="-78.462" cy="35.426" r="1.5"/>
	</g>
	<g>
		<circle cx="-74.462" cy="41.426" r="1.5"/>
	</g>
	<g>
		<circle cx="-66.462" cy="41.426" r="1.5"/>
	</g>
	<g>
		<circle cx="-70.462" cy="35.426" r="1.5"/>
	</g>
	<g>
		<circle cx="-62.462" cy="35.426" r="1.5"/>
	</g>
	<g>
		<circle cx="-78.462" cy="47.447" r="1.5"/>
	</g>
	<g>
		<circle cx="-70.462" cy="47.447" r="1.5"/>
	</g>
	<g>
		<circle cx="-62.462" cy="47.447" r="1.5"/>
	</g>
</g>
<g>
	<g>
		<path d="M41.512,19.876c-1.444-6.742-7.433-11.8-14.605-11.8c-1.799,0-3.521,0.32-5.118,0.904C20.839,3.872,16.384,0,11,0
			c-0.413,0-0.819,0.027-1.222,0.071c0.744,1.112,1.179,2.448,1.179,3.886c0,3.865-3.134,7-7,7c-1.438,0-2.773-0.435-3.886-1.179
			C0.027,10.18,0,10.587,0,11c0,3.712,1.845,6.987,4.661,8.979C3.008,21.887,2,24.368,2,27.091c0,5.983,4.836,10.836,10.813,10.865
			v0.003H14v-2h-0.721l-0.457-0.003C7.958,35.933,4,31.955,4,27.091c0-4.89,3.978-8.868,8.867-8.868c0.15,0,0.299,0.012,0.447,0.022
			l0.148,0.01l1.314,0.085l0.597-1.175c2.225-4.372,6.644-7.089,11.532-7.089c6.062,0,11.382,4.298,12.649,10.219l0.318,1.483
			l1.514,0.094c3.708,0.23,6.612,3.319,6.612,7.03c0,3.878-3.144,7.035-7.017,7.057c-0.042-0.003-0.079-0.005-0.117-0.005
			l-2.047,0.005H37v2h3.819v-0.006c0.042,0.001,0.082,0.006,0.124,0.006c5.001,0,9.057-4.054,9.057-9.057
			C50,24.093,46.246,20.171,41.512,19.876z M13.592,16.259c-0.241-0.016-0.48-0.036-0.725-0.036c-2.537,0-4.865,0.876-6.715,2.334
			c-2.012-1.294-3.486-3.354-3.976-5.776c0.582,0.117,1.178,0.177,1.78,0.177c4.963,0,9-4.037,9-9c0-0.603-0.06-1.198-0.177-1.78
			c3.733,0.753,6.629,3.824,7.134,7.64C17.201,11.261,14.986,13.516,13.592,16.259z"/>
	</g>
	<g>
		<circle cx="17.5" cy="31.469" r="1.5"/>
	</g>
	<g>
		<circle cx="21.5" cy="37.469" r="1.5"/>
	</g>
	<g>
		<circle cx="29.5" cy="37.469" r="1.5"/>
	</g>
	<g>
		<circle cx="25.5" cy="31.469" r="1.5"/>
	</g>
	<g>
		<circle cx="33.5" cy="31.469" r="1.5"/>
	</g>
	<g>
		<circle cx="17.5" cy="43.49" r="1.5"/>
	</g>
	<g>
		<circle cx="25.5" cy="43.49" r="1.5"/>
	</g>
	<g>
		<circle cx="33.5" cy="43.49" r="1.5"/>
	</g>
</g>
<g>
	<path d="M352.677-79.01c-1.596-7.445-8.207-13.029-16.127-13.029c-6.423,0-11.977,3.678-14.702,9.035
		c-0.266-0.018-0.53-0.04-0.8-0.04c-6.627,0-11.999,5.372-11.999,12c0,6.607,5.34,11.965,11.938,11.998v0.003h2.062v-2h-1.604
		l-0.447-0.003c-5.485-0.027-9.948-4.513-9.948-9.998c0-5.514,4.485-10,9.999-10c0.175,0,0.347,0.014,0.52,0.025l0.148,0.01
		l1.316,0.088l0.598-1.176c2.492-4.899,7.443-7.942,12.92-7.942c6.79,0,12.75,4.814,14.172,11.448l0.317,1.482l1.514,0.095
		c4.203,0.262,7.496,3.763,7.496,7.971c0,4.397-3.565,7.977-7.957,8c-0.05-0.003-0.093-0.005-0.137-0.007l-2.043,0.007h-2.863v2
		h4.863v-0.007c0.046,0.001,0.091,0.007,0.137,0.007c5.521,0,10-4.477,10-10C362.049-74.354,357.904-78.685,352.677-79.01z"/>
	<circle cx="327.049" cy="-51.539" r="1.5"/>
	<circle cx="335.049" cy="-45.539" r="1.5"/>
	<circle cx="343.049" cy="-49.539" r="1.5"/>
	<rect x="326.049" y="-68.015" width="2" height="11.976"/>
	<polygon points="336.049,-50.074 336.049,-52.015 336.049,-64.015 334.049,-64.015 334.049,-52.015 334.049,-50.074 
		334.049,-50.039 336.049,-50.039 	"/>
	<polygon points="344.049,-54.262 344.049,-56.015 344.049,-68.015 342.049,-68.015 342.049,-56.015 342.049,-54.262 
		342.049,-54.039 344.049,-54.039 	"/>
</g>
<g>
	<rect x="-395.7" y="-7.396" width="2" height="7.973"/>
	<rect x="-414.7" y="11.518" width="7.973" height="2"/>
	<rect x="-410.027" y="0.251" transform="matrix(0.7071 0.7071 -0.7071 0.7071 -118.0418 287.48)" width="7.974" height="2"/>
	<rect x="-384.518" y="-2.731" transform="matrix(0.7071 0.7071 -0.7071 0.7071 -111.4427 271.5561)" width="2" height="7.972"/>
	<path d="M-365.188,18.394c-1.444-6.742-7.433-11.8-14.605-11.8c-2.185,0-4.258,0.47-6.126,1.313
		c-1.667-3.202-5.007-5.394-8.866-5.394c-5.522,0-10,4.477-10,9.999c0,2.46,0.899,4.702,2.373,6.442
		c-1.429,1.84-2.287,4.144-2.287,6.653c0,5.983,4.836,10.836,10.813,10.865v0.003h1.188v-2h-0.721l-0.457-0.003
		c-4.864-0.023-8.822-4.001-8.822-8.865c0-4.89,3.978-8.868,8.867-8.868c0.15,0,0.299,0.012,0.447,0.022l0.148,0.01l1.314,0.085
		l0.597-1.175c2.225-4.372,6.644-7.089,11.532-7.089c6.062,0,11.382,4.298,12.649,10.219l0.318,1.483l1.514,0.094
		c3.708,0.23,6.612,3.319,6.612,7.03c0,3.878-3.144,7.035-7.017,7.057c-0.042-0.003-0.079-0.005-0.117-0.005l-2.047,0.005h-0.819v2
		h2.819v-0.006c0.042,0.001,0.082,0.006,0.124,0.006c5.001,0,9.057-4.054,9.057-9.057C-356.7,22.61-360.454,18.688-365.188,18.394z
		 M-393.108,14.776c-0.241-0.016-0.48-0.036-0.725-0.036c-2.766,0-5.282,1.041-7.2,2.743c-1.092-1.366-1.753-3.09-1.753-4.971
		c0-4.41,3.589-7.999,8-7.999c3.091,0,5.76,1.773,7.091,4.345C-389.993,10.299-391.873,12.347-393.108,14.776z"/>
	<circle cx="-388.71" cy="44.964" r="1.5"/>
	<circle cx="-380.71" cy="50.964" r="1.5"/>
	<circle cx="-372.71" cy="46.964" r="1.5"/>
	<rect x="-389.71" y="28.488" width="2" height="11.976"/>
	<polygon points="-379.71,46.429 -379.71,44.488 -379.71,32.488 -381.71,32.488 -381.71,44.488 -381.71,46.429 -381.71,46.464 
		-379.71,46.464 	"/>
	<polygon points="-371.71,42.241 -371.71,40.488 -371.71,28.488 -373.71,28.488 -373.71,40.488 -373.71,42.241 -373.71,42.464 
		-371.71,42.464 	"/>
</g>
<g>
	<path d="M-264.586,15.396c-1.444-6.742-7.433-11.8-14.605-11.8c-1.799,0-3.522,0.32-5.118,0.904
		c-0.949-5.108-5.404-8.98-10.788-8.98c-0.413,0-0.819,0.027-1.222,0.071c0.744,1.112,1.179,2.448,1.179,3.886c0,3.865-3.134,7-7,7
		c-1.438,0-2.773-0.435-3.886-1.179c-0.044,0.401-0.071,0.809-0.071,1.222c0,3.712,1.845,6.987,4.661,8.979
		c-1.653,1.907-2.661,4.389-2.661,7.111c0,5.983,4.836,10.836,10.813,10.865v0.003h1.188v-2h-0.721l-0.457-0.003
		c-4.864-0.023-8.822-4.001-8.822-8.865c0-4.89,3.978-8.868,8.867-8.868c0.15,0,0.299,0.012,0.447,0.022l0.148,0.01l1.314,0.085
		l0.597-1.175c2.225-4.372,6.644-7.089,11.532-7.089c6.062,0,11.382,4.298,12.649,10.219l0.318,1.483l1.514,0.094
		c3.708,0.23,6.612,3.319,6.612,7.03c0,3.878-3.144,7.035-7.017,7.057c-0.042-0.003-0.079-0.005-0.117-0.005l-2.047,0.005h-0.819v2
		h2.819v-0.006c0.042,0.001,0.082,0.006,0.124,0.006c5.001,0,9.057-4.054,9.057-9.057C-256.098,19.612-259.852,15.69-264.586,15.396
		z M-292.506,11.778c-0.241-0.016-0.48-0.036-0.725-0.036c-2.537,0-4.865,0.876-6.715,2.334c-2.012-1.294-3.487-3.354-3.976-5.776
		c0.582,0.117,1.178,0.177,1.78,0.177c4.963,0,9-4.037,9-9c0-0.603-0.06-1.198-0.177-1.78c3.733,0.753,6.629,3.824,7.133,7.64
		C-288.896,6.78-291.11,9.035-292.506,11.778z"/>
	<circle cx="-288.098" cy="41.97" r="1.5"/>
	<circle cx="-280.098" cy="47.97" r="1.5"/>
	<circle cx="-272.098" cy="43.97" r="1.5"/>
	<rect x="-289.098" y="25.494" width="2" height="11.976"/>
	<polygon points="-279.098,43.435 -279.098,41.494 -279.098,29.494 -281.098,29.494 -281.098,41.494 -281.098,43.435 
		-281.098,43.47 -279.098,43.47 	"/>
	<polygon points="-271.098,39.247 -271.098,37.494 -271.098,25.494 -273.098,25.494 -273.098,37.494 -273.098,39.247 
		-273.098,39.47 -271.098,39.47 	"/>
</g>
<g>
	<rect x="-412.7" y="119.836" width="56" height="2"/>
	<rect x="-408.7" y="125.836" width="50" height="2"/>
	<rect x="-402.7" y="131.836" width="36" height="2"/>
	<rect x="-410.7" y="113.836" width="52" height="2"/>
	<path d="M-398.826,105.831c0.175,0,0.347,0.014,0.519,0.025l0.149,0.01l1.316,0.088l0.598-1.176
		c2.493-4.899,7.443-7.942,12.92-7.942c6.79,0,12.75,4.814,14.171,11.448l0.318,1.482l1.514,0.095
		c1.207,0.075,2.335,0.425,3.336,0.975h3.286c-1.678-1.703-3.957-2.813-6.498-2.971c-1.596-7.445-8.207-13.029-16.127-13.029
		c-6.423,0-11.977,3.678-14.702,9.035c-0.266-0.018-0.53-0.04-0.8-0.04c-4.843,0-9.004,2.874-10.9,7.005h2.251
		C-405.744,107.85-402.52,105.831-398.826,105.831z"/>
</g>
<g>
	<rect x="-291.598" y="92.321" width="2" height="7.973"/>
	<rect x="-310.598" y="111.235" width="7.973" height="2"/>
	<rect x="-305.925" y="99.969" transform="matrix(0.7071 0.7071 -0.7071 0.7071 -17.0398 243.0751)" width="7.974" height="2"/>
	<rect x="-280.416" y="96.987" transform="matrix(0.7071 0.7071 -0.7071 0.7071 -10.4406 227.1512)" width="2" height="7.972"/>
	<rect x="-301.598" y="126.195" width="50" height="2"/>
	<rect x="-297.598" y="132.195" width="44" height="2"/>
	<rect x="-291.598" y="137.195" width="30" height="2"/>
	<rect x="-299.598" y="120.195" width="46" height="2"/>
	<path d="M-298.689,118.195h0.771h1.927h1.012c1.472-1.087,3.283-1.737,5.249-1.737c0.15,0,0.299,0.012,0.447,0.022l0.148,0.01
		l1.314,0.085l0.597-1.175c2.225-4.372,6.644-7.089,11.532-7.089c5.945,0,11.168,4.139,12.563,9.884h2.043v-0.084
		c-1.444-6.742-7.433-11.8-14.605-11.8c-2.185,0-4.258,0.47-6.126,1.313c-1.667-3.202-5.007-5.394-8.866-5.394
		c-5.522,0-10,4.477-10,9.999C-300.684,114.472-299.936,116.53-298.689,118.195z M-290.684,104.231c3.091,0,5.76,1.773,7.091,4.345
		c-2.298,1.44-4.178,3.488-5.413,5.918c-0.241-0.016-0.48-0.036-0.725-0.036c-2.764,0-5.274,1.045-7.189,2.745
		c-1.097-1.366-1.764-3.089-1.764-4.973C-298.684,107.82-295.095,104.231-290.684,104.231z"/>
</g>
<g>
	<rect x="-202.854" y="122.758" width="50" height="2"/>
	<rect x="-198.854" y="128.758" width="44" height="2"/>
	<rect x="-192.854" y="133.758" width="30" height="2"/>
	<rect x="-200.854" y="116.758" width="46" height="2"/>
	<path d="M-199.211,114.758h0.037h1.884h1.055c1.472-1.087,3.283-1.737,5.249-1.737c0.15,0,0.299,0.012,0.447,0.022l0.148,0.01
		l1.314,0.085l0.597-1.175c2.225-4.372,6.644-7.089,11.532-7.089c5.945,0,11.168,4.139,12.563,9.884h2.043v-0.084
		c-1.444-6.742-7.433-11.8-14.605-11.8c-1.799,0-3.521,0.32-5.117,0.903c-0.945-5.111-5.402-8.987-10.789-8.987
		c-0.413,0-0.819,0.027-1.222,0.071c0.744,1.112,1.179,2.448,1.179,3.886c0,3.865-3.134,7-7,7c-1.438,0-2.773-0.435-3.886-1.179
		c-0.044,0.401-0.071,0.809-0.071,1.222C-203.854,109.494-202.018,112.765-199.211,114.758z M-199.896,107.747c4.963,0,9-4.037,9-9
		c0-0.603-0.06-1.198-0.177-1.78c3.735,0.753,6.633,3.828,7.134,7.647c-2.712,1.443-4.927,3.699-6.322,6.442
		c-0.241-0.016-0.48-0.036-0.725-0.036c-2.534,0-4.855,0.879-6.701,2.335c-2.02-1.293-3.5-3.356-3.989-5.785
		C-201.095,107.688-200.499,107.747-199.896,107.747z"/>
</g>
<g>
	<path d="M-70.962,125.771h-19.474l-0.578-0.003c-5.485-0.027-9.948-4.513-9.948-9.998c0-5.514,4.485-10,9.999-10
		c0.175,0,0.347,0.014,0.519,0.025l0.149,0.01l1.316,0.088l0.598-1.176c2.493-4.899,7.443-7.942,12.92-7.942
		c6.79,0,12.75,4.814,14.171,11.448l0.318,1.482l1.514,0.095c1.822,0.113,3.463,0.845,4.746,1.971h2.732
		c-1.707-2.262-4.348-3.78-7.354-3.967c-1.596-7.445-8.207-13.029-16.127-13.029c-6.423,0-11.977,3.678-14.702,9.035
		c-0.266-0.018-0.53-0.04-0.8-0.04c-6.627,0-11.999,5.372-11.999,12c0,6.607,5.34,11.965,11.938,11.998v0.003h20.062
		c2.205,0,4,1.794,4,4s-1.795,4-4,4v2c3.314,0,6-2.686,6-6C-64.962,128.458-67.647,125.771-70.962,125.771z"/>
	<path d="M-66.962,121.771H-82.95v2h15.988c3.314,0,6-2.687,6-6c0-3.314-2.686-6-6-6v2c2.205,0,4,1.794,4,4
		S-64.757,121.771-66.962,121.771z"/>
	<path d="M-53.962,115.771c1.654,0,3,1.346,3,3s-1.346,3-3,3c-0.043,0-0.083-0.011-0.126-0.013h-4.862
		c0.003,0.005,0.009,0.008,0.012,0.013h-0.023v2h5.5v-0.051c2.523-0.254,4.5-2.358,4.5-4.949c0-2.762-2.238-5-5-5V115.771z"/>
	<path d="M-49.962,125.771h-13v2h9.022c-0.004,0.005-0.008,0.008-0.011,0.013h3.862c0.043-0.002,0.083-0.013,0.126-0.013
		c1.654,0,3,1.346,3,3s-1.346,3-3,3v2c2.762,0,5-2.238,5-5S-47.2,125.771-49.962,125.771z"/>
	<rect x="-88.962" y="121.771" width="4" height="2"/>
</g>
<path d="M-278.523-273.332c6.95,1.305,12.226,7.419,12.226,14.742c0,8.272-6.729,15.002-15,15.002
	c-6.79,0-12.531-4.49-14.366-10.728c1.398,0.461,2.867,0.698,4.366,0.698c7.72,0,14-6.281,14-14.001
	C-277.298-269.603-277.722-271.547-278.523-273.332 M-281.298-275.589c-0.338,0-0.668,0.031-1,0.051c1.861,2.113,3,4.881,3,7.92
	c0,6.627-5.372,12.001-12,12.001c-2.599,0-4.998-0.835-6.963-2.239c0.387,9.047,7.821,16.269,16.963,16.269
	c9.39,0,17-7.612,17-17.002S-271.908-275.589-281.298-275.589L-281.298-275.589z"/>
<g>
	<path d="M-384.693-270.594c-7.18,0-13,5.819-13,12.999c0,7.181,5.82,13.002,13,13.002s13-5.821,13-13.002
		C-371.693-264.774-377.514-270.594-384.693-270.594z M-384.693-246.593c-6.065,0-11-4.936-11-11.002
		c0-6.064,4.935-10.999,11-10.999s11,4.935,11,10.999C-373.693-251.528-378.628-246.593-384.693-246.593z"/>
	<rect x="-385.7" y="-283.588" width="2" height="10"/>
	<rect x="-385.7" y="-241.588" width="2" height="10"/>
	<rect x="-410.693" y="-258.588" width="9.993" height="2"/>
	<rect x="-368.7" y="-258.588" width="10.007" height="2"/>
	<rect x="-371" y="-277.502" transform="matrix(0.7071 0.7071 -0.7071 0.7071 -300.9139 181.8758)" width="2" height="10.409"/>
	
		<rect x="-400.409" y="-248.093" transform="matrix(-0.7071 -0.7071 0.7071 -0.7071 -510.0862 -697.061)" width="2" height="10.41"/>
	<rect x="-404.609" y="-273.292" transform="matrix(0.7071 0.7071 -0.7071 0.7071 -309.5228 202.6692)" width="10.409" height="2"/>
	
		<rect x="-375.201" y="-243.883" transform="matrix(-0.7072 -0.7071 0.7071 -0.7072 -459.9072 -676.2485)" width="10.41" height="2"/>
</g>
<g>
	<rect x="13.473" y="87.273" width="2" height="7.973"/>
	<rect x="-5.5" y="106.26" width="7.973" height="2"/>
	<rect x="-0.774" y="95.041" transform="matrix(0.7071 0.7071 -0.7071 0.7071 68.8523 25.8579)" width="7.974" height="2"/>
	<rect x="24.734" y="92.059" transform="matrix(0.7071 0.7071 -0.7071 0.7071 75.4514 9.934)" width="2" height="7.972"/>
	<path d="M28.5,129.273l0.005-0.007H15.969l-0.594-0.003c-4.864-0.024-8.822-4.001-8.822-8.865c0-4.89,3.978-8.868,8.867-8.868
		c0.15,0,0.299,0.012,0.447,0.021l0.148,0.011l1.314,0.085l0.597-1.174c2.225-4.373,6.644-7.09,11.532-7.09
		c5.916,0,11.114,4.099,12.54,9.8h2.065c-1.444-6.742-7.433-11.8-14.605-11.8c-2.185,0-4.258,0.47-6.126,1.313
		c-1.667-3.202-5.007-5.394-8.866-5.394c-5.522,0-10,4.477-10,9.999c0,2.46,0.899,4.702,2.373,6.442
		c-1.429,1.84-2.287,4.144-2.287,6.653c0,5.983,4.836,10.836,10.813,10.865v0.003H28.5v0.007c2.205,0,4,1.794,4,4s-1.795,4-4,4v2
		c3.314,0,6-2.686,6-6C34.5,131.96,31.814,129.273,28.5,129.273z M14.467,99.304c3.091,0,5.76,1.773,7.091,4.345
		c-2.298,1.439-4.178,3.488-5.413,5.918c-0.241-0.016-0.48-0.036-0.725-0.036c-2.766,0-5.282,1.042-7.2,2.743
		c-1.092-1.367-1.753-3.09-1.753-4.971C6.467,102.893,10.056,99.304,14.467,99.304z"/>
	<path d="M32.5,125.273h-9.988v2H32.5c3.314,0,6-2.687,6-6c0-3.314-2.686-6-6-6v2c2.205,0,4,1.794,4,4S34.705,125.273,32.5,125.273z
		"/>
	<path d="M40.523,125.273H40.5v2H46v-0.051c2.523-0.254,4.5-2.358,4.5-4.949c0-2.762-2.238-5-5-5v2c1.654,0,3,1.346,3,3
		s-1.346,3-3,3c-0.043,0-0.083-0.011-0.126-0.013h-4.862C40.515,125.266,40.521,125.27,40.523,125.273z"/>
	<path d="M49.5,129.273h-13v2h9.022c-0.004,0.004-0.008,0.008-0.011,0.013h3.862c0.043-0.002,0.083-0.013,0.126-0.013
		c1.654,0,3,1.346,3,3s-1.346,3-3,3v2c2.762,0,5-2.238,5-5S52.262,129.273,49.5,129.273z"/>
	<rect x="16.5" y="125.273" width="4" height="2"/>
</g>
<g>
	<path d="M128.462,127.268l0.005-0.007h-12.536l-0.594-0.003c-4.864-0.024-8.822-4.001-8.822-8.865c0-4.89,3.978-8.868,8.867-8.868
		c0.15,0,0.299,0.012,0.447,0.021l0.148,0.011l1.314,0.085l0.597-1.174c2.225-4.373,6.644-7.09,11.532-7.09
		c5.916,0,11.114,4.099,12.54,9.8h2.065c-1.444-6.742-7.433-11.8-14.605-11.8c-1.806,0-3.536,0.322-5.138,0.91
		c-0.938-5.123-5.4-9.01-10.794-9.01c-0.413,0-0.819,0.027-1.222,0.071c0.744,1.112,1.179,2.448,1.179,3.886c0,3.865-3.134,7-7,7
		c-1.438,0-2.773-0.435-3.886-1.179c-0.044,0.401-0.071,0.809-0.071,1.222c0,3.725,1.858,7.009,4.69,8.998
		c-1.655,1.907-2.665,4.392-2.665,7.116c0,5.983,4.836,10.836,10.813,10.865v0.003h13.135v0.007c2.205,0,4,1.794,4,4s-1.795,4-4,4v2
		c3.314,0,6-2.686,6-6C134.462,129.954,131.776,127.268,128.462,127.268z M104.666,104.059c0.582,0.117,1.178,0.177,1.78,0.177
		c4.963,0,9-4.037,9-9c0-0.603-0.06-1.198-0.177-1.78c3.744,0.755,6.646,3.842,7.138,7.674c-2.702,1.444-4.909,3.696-6.301,6.432
		c-0.241-0.016-0.48-0.036-0.725-0.036c-2.535,0-4.861,0.875-6.71,2.33C106.644,108.563,105.157,106.494,104.666,104.059z"/>
	<path d="M132.462,123.268h-9.988v2h9.988c3.314,0,6-2.687,6-6c0-3.314-2.686-6-6-6v2c2.205,0,4,1.794,4,4
		S134.667,123.268,132.462,123.268z"/>
	<path d="M140.485,123.268h-0.023v2h5.5v-0.051c2.523-0.254,4.5-2.358,4.5-4.949c0-2.762-2.238-5-5-5v2c1.654,0,3,1.346,3,3
		s-1.346,3-3,3c-0.043,0-0.083-0.011-0.126-0.013h-4.862C140.477,123.26,140.482,123.264,140.485,123.268z"/>
	<path d="M149.462,127.268h-13v2h9.022c-0.004,0.004-0.008,0.008-0.011,0.013h3.862c0.043-0.002,0.083-0.013,0.126-0.013
		c1.654,0,3,1.346,3,3s-1.346,3-3,3v2c2.762,0,5-2.238,5-5S152.224,127.268,149.462,127.268z"/>
	<rect x="116.462" y="123.268" width="4" height="2"/>
</g>
<g>
	<rect x="229.354" y="89.836" width="2" height="10"/>
	<rect x="204.361" y="114.836" width="9.993" height="2"/>
	<rect x="244.054" y="95.922" transform="matrix(0.7071 0.7071 -0.7071 0.7071 143.2819 -143.6602)" width="2" height="10.409"/>
	<rect x="210.445" y="100.131" transform="matrix(0.7071 0.7071 -0.7071 0.7071 134.6731 -122.8668)" width="10.409" height="2"/>
	<path d="M234.354,129.836h-24v2h24c2.205,0,4,1.794,4,4s-1.795,4-4,4v2c3.314,0,6-2.686,6-6
		C240.354,132.522,237.669,129.836,234.354,129.836z"/>
	<path d="M246.378,125.836h-0.023v2h5.5v-0.051c2.523-0.254,4.5-2.358,4.5-4.949c0-2.762-2.238-5-5-5v2c1.654,0,3,1.346,3,3
		s-1.346,3-3,3c-0.043,0-0.083-0.011-0.126-0.013h-4.862C246.369,125.828,246.375,125.832,246.378,125.836z"/>
	<path d="M255.354,129.836h-13v2h9.022c-0.004,0.004-0.008,0.008-0.011,0.013h3.862c0.043-0.002,0.083-0.013,0.126-0.013
		c1.654,0,3,1.346,3,3s-1.346,3-3,3v2c2.762,0,5-2.238,5-5S258.116,129.836,255.354,129.836z"/>
	<path d="M222.063,125.836h-11.709v2h12.012h0.822h15.166c3.314,0,6-2.687,6-6c0-3.314-2.686-6-6-6v2c2.205,0,4,1.794,4,4
		s-1.795,4-4,4h-12.538c-3.802-1.734-6.455-5.563-6.455-10.007c0-6.064,4.935-10.999,11-10.999c5.384,0,9.868,3.891,10.81,9.006
		h2.021c-0.961-6.23-6.331-11.006-12.831-11.006c-7.18,0-13,5.819-13,12.999C217.361,119.854,219.191,123.451,222.063,125.836z"/>
</g>
<g>
	<path d="M334.581,123.279h-24v2h24c2.205,0,4,1.794,4,4s-1.795,4-4,4v2c3.314,0,6-2.686,6-6
		C340.581,125.966,337.896,123.279,334.581,123.279z"/>
	<path d="M352.081,121.279v-0.051c2.523-0.254,4.5-2.358,4.5-4.949c0-2.762-2.238-5-5-5v2c1.654,0,3,1.346,3,3s-1.346,3-3,3
		c-0.043,0-0.083-0.011-0.126-0.013h-4.862c0.004,0.005,0.009,0.009,0.012,0.013h-0.023v2H352.081z"/>
	<path d="M355.581,123.279h-13v2h9.022c-0.003,0.004-0.007,0.008-0.011,0.013h3.862c0.043-0.002,0.083-0.013,0.126-0.013
		c1.654,0,3,1.346,3,3s-1.346,3-3,3v2c2.762,0,5-2.238,5-5S358.343,123.279,355.581,123.279z"/>
	<path d="M323.415,121.279h15.166c3.314,0,6-2.687,6-6c0-3.314-2.686-6-6-6v2c2.205,0,4,1.794,4,4s-1.795,4-4,4h-12.586
		c-2.596-1.188-4.658-3.339-5.69-6.034c0.849,0.204,1.724,0.309,2.612,0.309c6.168,0,11.187-5.019,11.187-11.188
		c0-1.276-0.22-2.532-0.64-3.717c4.046,1.102,7.168,4.459,7.937,8.63h2.018c-0.964-6.237-6.338-11.016-12.846-11.016
		c-0.259,0-0.511,0.024-0.766,0.039c1.425,1.618,2.297,3.737,2.297,6.063c0,5.072-4.112,9.188-9.187,9.188
		c-1.988,0-3.826-0.641-5.33-1.715c0.162,3.801,1.962,7.165,4.699,9.44h-11.705v2h12.012H323.415z"/>
</g>
<g>
	<path d="M-385.2,208.473h-20c-1.103,0-2-0.897-2-2s0.897-2,2-2h3.445h0.555v-2h-4c-2.209,0-4,1.791-4,4s1.791,4,4,4h20
		c2.205,0,4,1.794,4,4s-1.795,4-4,4v2c3.314,0,6-2.686,6-6C-379.2,211.159-381.886,208.473-385.2,208.473z"/>
	<path d="M-383.2,192.473v2c2.205,0,4,1.794,4,4s-1.795,4-4,4h-15.988v2h15.988c3.314,0,6-2.687,6-6
		C-377.2,195.158-379.886,192.473-383.2,192.473z"/>
	<path d="M-377.2,204.473v2h5.5v-0.051c2.523-0.254,4.5-2.358,4.5-4.949c0-2.762-2.238-5-5-5v2c1.654,0,3,1.346,3,3s-1.346,3-3,3
		c-0.043,0-0.083-0.011-0.126-0.013h-4.862c0.003,0.005,0.009,0.009,0.012,0.013H-377.2z"/>
	<path d="M-366.2,208.473h-11v2h7.022c-0.004,0.004-0.008,0.008-0.011,0.013h3.862c0.043-0.002,0.083-0.013,0.126-0.013
		c1.654,0,3,1.346,3,3s-1.346,3-3,3v2c2.762,0,5-2.238,5-5S-363.438,208.473-366.2,208.473z"/>
</g>
<path d="M151.092,194.819v-0.038h-38.376c-1.103,0-2-0.897-2-2s0.897-2,2-2h33c2.762,0,5-2.238,5-5s-2.238-5-5-5h-37.875v0.008
	c-0.042-0.001-0.083-0.008-0.125-0.008c-2.762,0-5,2.238-5,5s2.238,5,5,5v-2c-1.654,0-3-1.346-3-3s1.346-3,3-3h0.125h3.853h34.022
	c1.654,0,3,1.346,3,3s-1.346,3-3,3h-33c-2.209,0-4,1.791-4,4s1.791,4,4,4h38c1.103,0,2,0.897,2,2s-0.897,2-2,2h-32
	c-2.209,0-4,1.791-4,4s1.791,4,4,4h22c1.103,0,2,0.897,2,2s-0.897,2-2,2h-24.01v0.001c-2.204,0.006-3.99,1.793-3.99,3.999
	s1.786,3.993,3.99,3.999v0.001h12.01c1.103,0,2,0.897,2,2s-0.897,2-2,2h-2c-2.209,0-4,1.791-4,4s1.791,4,4,4v-2
	c-1.103,0-2-0.897-2-2s0.897-2,2-2h2c2.209,0,4-1.791,4-4s-1.791-4-4-4h-12c-1.103,0-2-0.897-2-2s0.897-2,2-2h24
	c2.209,0,4-1.791,4-4c0-2.152-1.704-3.895-3.834-3.983v-0.017h-22.166c-1.103,0-2-0.897-2-2s0.897-2,2-2h32c2.209,0,4-1.791,4-4
	C154.716,196.701,153.122,195.012,151.092,194.819z"/>
<path d="M336.507,185.497v-2.024h-2v2.024c-13.01,0.513-23.462,10.965-23.975,23.976h1.674c1.14-1.222,2.748-2,4.551-2
	c2.26,0,4.233,1.203,5.331,3h1.838c1.098-1.797,3.071-3,5.331-3c2.204,0,4.137,1.144,5.25,2.866v15.134c0,2.21,1.791,4,4,4
	s4-1.79,4-4h-2c0,1.103-0.897,2-2,2s-2-0.897-2-2v-15.134c1.113-1.723,3.046-2.866,5.25-2.866c2.26,0,4.233,1.203,5.331,3h1.838
	c1.098-1.797,3.071-3,5.331-3c1.803,0,3.411,0.778,4.551,2h1.674C359.969,196.462,349.517,186.01,336.507,185.497z M354.257,205.473
	c-2.496,0-4.736,1.114-6.25,2.87c-1.514-1.756-3.754-2.87-6.25-2.87s-4.736,1.114-6.25,2.87c-1.514-1.756-3.754-2.87-6.25-2.87
	s-4.736,1.114-6.25,2.87c-1.514-1.756-3.755-2.87-6.25-2.87c-1.402,0-2.731,0.351-3.897,0.975
	c1.909-10.769,11.339-18.975,22.647-18.975s20.738,8.206,22.647,18.975C356.988,205.823,355.659,205.473,354.257,205.473z"/>
<g>
	<path d="M-68.788,309.785V292.68c0-2.762-2.238-5-5-5s-5,2.238-5,5v17.105c-1.236,1.263-2,2.988-2,4.895c0,3.866,3.134,7,7,7
		s7-3.134,7-7C-66.788,312.773-67.552,311.048-68.788,309.785z M-73.788,319.68c-2.757,0-5-2.243-5-5
		c0-1.313,0.508-2.554,1.429-3.495l0.571-0.583v-0.816V292.68c0-1.654,1.346-3,3-3s3,1.346,3,3v17.105v0.816l0.571,0.583
		c0.921,0.941,1.429,2.183,1.429,3.495C-68.788,317.437-71.031,319.68-73.788,319.68z"/>
	<path d="M-72.788,311.855V296.68h-2v15.176c-1.167,0.413-2.008,1.516-2.008,2.824c0,1.662,1.347,3.008,3.008,3.008
		c1.662,0,3.008-1.346,3.008-3.008C-70.78,313.371-71.62,312.269-72.788,311.855z M-73.788,315.688
		c-0.556,0-1.008-0.452-1.008-1.008s0.452-1.008,1.008-1.008s1.008,0.452,1.008,1.008S-73.232,315.688-73.788,315.688z"/>
</g>
<g>
	<path d="M31,309.785V292.68c0-2.762-2.238-5-5-5s-5,2.238-5,5v17.105c-1.236,1.263-2,2.988-2,4.895c0,3.866,3.134,7,7,7
		s7-3.134,7-7C33,312.773,32.236,311.048,31,309.785z M26,319.68c-2.757,0-5-2.243-5-5c0-1.313,0.508-2.554,1.429-3.495L23,310.602
		v-0.816V292.68c0-1.654,1.346-3,3-3s3,1.346,3,3v17.105v0.816l0.571,0.583c0.921,0.941,1.429,2.183,1.429,3.495
		C31,317.437,28.757,319.68,26,319.68z"/>
	<path d="M27,311.855V291.68h-2v20.176c-1.167,0.413-2.008,1.516-2.008,2.824c0,1.662,1.347,3.008,3.008,3.008
		c1.662,0,3.008-1.346,3.008-3.008C29.008,313.371,28.168,312.269,27,311.855z M26,315.688c-0.556,0-1.008-0.452-1.008-1.008
		s0.452-1.008,1.008-1.008s1.008,0.452,1.008,1.008S26.556,315.688,26,315.688z"/>
</g>
<g>
	<path d="M-171.897,309.785V292.68c0-2.762-2.238-5-5-5s-5,2.238-5,5v17.105c-1.236,1.263-2,2.988-2,4.895c0,3.866,3.134,7,7,7
		s7-3.134,7-7C-169.897,312.773-170.661,311.048-171.897,309.785z M-176.897,319.68c-2.757,0-5-2.243-5-5
		c0-1.313,0.508-2.554,1.429-3.495l0.571-0.583v-0.816V292.68c0-1.654,1.346-3,3-3s3,1.346,3,3v17.105v0.816l0.571,0.583
		c0.921,0.941,1.429,2.183,1.429,3.495C-171.897,317.437-174.141,319.68-176.897,319.68z"/>
	<path d="M-175.897,311.855V301.68h-2v10.176c-1.167,0.413-2.008,1.516-2.008,2.824c0,1.662,1.347,3.008,3.008,3.008
		c1.662,0,3.008-1.346,3.008-3.008C-173.89,313.371-174.729,312.269-175.897,311.855z M-176.897,315.688
		c-0.556,0-1.008-0.452-1.008-1.008s0.452-1.008,1.008-1.008s1.008,0.452,1.008,1.008S-176.342,315.688-176.897,315.688z"/>
</g>
<g>
	<path d="M-275.543,309.785V292.68c0-2.762-2.238-5-5-5s-5,2.238-5,5v17.105c-1.236,1.263-2,2.988-2,4.895c0,3.866,3.134,7,7,7
		s7-3.134,7-7C-273.543,312.773-274.307,311.048-275.543,309.785z M-280.543,319.68c-2.757,0-5-2.243-5-5
		c0-1.313,0.508-2.554,1.429-3.495l0.571-0.583v-0.816V292.68c0-1.654,1.346-3,3-3s3,1.346,3,3v17.105v0.816l0.571,0.583
		c0.921,0.941,1.429,2.183,1.429,3.495C-275.543,317.437-277.786,319.68-280.543,319.68z"/>
	<path d="M-279.543,311.855v-5.176h-2v5.176c-1.167,0.413-2.008,1.516-2.008,2.824c0,1.662,1.347,3.008,3.008,3.008
		c1.662,0,3.008-1.346,3.008-3.008C-277.535,313.371-278.375,312.269-279.543,311.855z M-280.543,315.688
		c-0.556,0-1.008-0.452-1.008-1.008s0.452-1.008,1.008-1.008s1.008,0.452,1.008,1.008S-279.987,315.688-280.543,315.688z"/>
</g>
<g>
	<path d="M-380.2,309.785V292.68c0-2.762-2.238-5-5-5s-5,2.238-5,5v17.105c-1.236,1.263-2,2.988-2,4.895c0,3.866,3.134,7,7,7
		s7-3.134,7-7C-378.2,312.773-378.964,311.048-380.2,309.785z M-385.2,319.68c-2.757,0-5-2.243-5-5c0-1.313,0.508-2.554,1.429-3.495
		l0.571-0.583v-0.816V292.68c0-1.654,1.346-3,3-3s3,1.346,3,3v17.105v0.816l0.571,0.583c0.921,0.941,1.429,2.183,1.429,3.495
		C-380.2,317.437-382.443,319.68-385.2,319.68z"/>
	<path d="M-385.2,311.672c-1.661,0-3.008,1.347-3.008,3.008c0,1.662,1.347,3.008,3.008,3.008c1.662,0,3.008-1.346,3.008-3.008
		C-382.192,313.019-383.538,311.672-385.2,311.672z M-385.2,315.688c-0.556,0-1.008-0.452-1.008-1.008s0.452-1.008,1.008-1.008
		s1.008,0.452,1.008,1.008S-384.645,315.688-385.2,315.688z"/>
</g>
<g>
	<path d="M119.725,289.992c-2.209,0-4,1.791-4,4c0,2.21,1.791,4,4,4c2.211,0,4-1.79,4-4
		C123.725,291.783,121.936,289.992,119.725,289.992z M119.725,295.992c-1.103,0-2-0.897-2-2s0.897-2,2-2s2,0.897,2,2
		S120.827,295.992,119.725,295.992z"/>
	<path d="M133.725,317.992c-4.41,0-7.999-3.589-7.999-7.999v-4.002c0-4.41,3.589-7.999,7.999-7.999c2.715,0,5.115,1.362,6.563,3.437
		l1.43-1.43c-1.824-2.429-4.72-4.007-7.992-4.007c-5.522,0-9.999,4.478-9.999,9.999v4.002c0,5.521,4.477,9.999,9.999,9.999
		c3.272,0,6.168-1.579,7.992-4.008l-1.43-1.43C138.841,316.629,136.44,317.992,133.725,317.992z"/>
</g>
<g>
	<path d="M224.421,289.871c-2.209,0-4,1.791-4,4c0,2.21,1.791,4,4,4c2.211,0,4-1.79,4-4
		C228.421,291.662,226.632,289.871,224.421,289.871z M224.421,295.871c-1.103,0-2-0.897-2-2s0.897-2,2-2s2,0.897,2,2
		S225.523,295.871,224.421,295.871z"/>
	<polygon points="244.296,297.992 244.296,295.992 232.296,295.992 230.296,295.992 230.296,319.992 232.296,319.992 
		232.296,307.992 240.296,307.992 240.296,305.992 232.296,305.992 232.296,297.992 	"/>
</g>
<g>
	<path d="M335.507,293.684c-7.179,0-13,5.82-13,13s5.821,13,13,13s13-5.82,13-13S342.686,293.684,335.507,293.684z M335.507,317.684
		c-6.065,0-11-4.935-11-11s4.935-11,11-11s11,4.935,11,11S341.572,317.684,335.507,317.684z"/>
	<path d="M331.24,310.926l6.363-2.121l2.121-6.364l-6.363,2.122L331.24,310.926z M334.942,306.144l1.62-0.54l-0.54,1.62l-1.62,0.54
		L334.942,306.144z"/>
</g>
<g>
	<path d="M-385.2,384.201c-7.179,0-13,5.82-13,13s5.821,13,13,13s13-5.82,13-13S-378.021,384.201-385.2,384.201z M-385.2,408.201
		c-6.065,0-11-4.934-11-11c0-6.064,4.935-11,11-11s11,4.936,11,11C-374.2,403.268-379.135,408.201-385.2,408.201z"/>
	<path d="M-382.639,395.623l-2.586-4.422l-2.529,4.33h0.007c-0.299,0.467-0.478,1.018-0.478,1.613c0,1.656,1.343,3,3,3s3-1.344,3-3
		c0-0.559-0.162-1.074-0.428-1.521H-382.639z M-385.225,398.145c-0.552,0-1-0.449-1-1c0-0.188,0.055-0.367,0.162-0.535l0.864-1.355
		l0.826,1.391c0.098,0.164,0.147,0.332,0.147,0.5C-384.225,397.695-384.673,398.145-385.225,398.145z"/>
</g>
<g>
	<path d="M-280.416,384.201c-7.18,0-13,5.82-13,13s5.82,13,13,13s13-5.82,13-13S-273.236,384.201-280.416,384.201z
		 M-280.416,408.201c-6.065,0-11-4.934-11-11c0-6.064,4.935-11,11-11s11,4.936,11,11
		C-269.416,403.268-274.351,408.201-280.416,408.201z"/>
	<path d="M-278.827,394.621c-0.467-0.299-1.018-0.477-1.613-0.477c-1.658,0-3,1.342-3,3c0,1.656,1.342,3,3,3
		c0.557,0,1.072-0.162,1.52-0.428v0.014l4.422-2.586l-4.328-2.529V394.621z M-279.942,397.996c-0.164,0.098-0.332,0.148-0.498,0.148
		c-0.552,0-1-0.449-1-1c0-0.553,0.448-1,1-1c0.188,0,0.368,0.053,0.535,0.16l1.355,0.865L-279.942,397.996z"/>
</g>
<g>
	<path d="M-177.365,384.201c-7.18,0-13,5.82-13,13s5.82,13,13,13s13-5.82,13-13S-170.186,384.201-177.365,384.201z
		 M-177.365,408.201c-6.065,0-11-4.934-11-11c0-6.064,4.935-11,11-11s11,4.936,11,11
		C-166.365,403.268-171.3,408.201-177.365,408.201z"/>
	<path d="M-177.365,394.145c-1.656,0-3,1.342-3,3c0,0.557,0.162,1.072,0.428,1.52h-0.014l2.586,4.422l2.529-4.328h-0.006
		c0.299-0.467,0.477-1.018,0.477-1.613C-174.365,395.486-175.707,394.145-177.365,394.145z M-176.526,397.68l-0.865,1.355
		l-0.826-1.393c-0.098-0.164-0.147-0.332-0.147-0.498c0-0.553,0.448-1,1-1s1,0.447,1,1
		C-176.365,397.332-176.419,397.512-176.526,397.68z"/>
</g>
<g>
	<path d="M-73.951,384.201c-7.179,0-13,5.82-13,13s5.821,13,13,13s13-5.82,13-13S-66.772,384.201-73.951,384.201z M-73.951,408.201
		c-6.065,0-11-4.934-11-11c0-6.064,4.935-11,11-11s11,4.936,11,11C-62.951,403.268-67.886,408.201-73.951,408.201z"/>
	<path d="M-73.992,394.145c-0.557,0-1.072,0.162-1.52,0.428v-0.014l-4.422,2.586l4.328,2.529v-0.006
		c0.467,0.299,1.018,0.477,1.613,0.477c1.658,0,3-1.342,3-3C-70.992,395.488-72.334,394.145-73.992,394.145z M-73.992,398.145
		c-0.188,0-0.368-0.055-0.535-0.162l-1.355-0.865l1.393-0.826c0.164-0.098,0.332-0.146,0.498-0.146c0.552,0,1,0.447,1,1
		C-72.992,397.695-73.44,398.145-73.992,398.145z"/>
</g>
<g>
	<rect x="-282.103" y="187.473" width="2" height="10"/>
	<rect x="-267.403" y="193.559" transform="matrix(0.7071 0.7071 -0.7071 0.7071 62.5192 246.5916)" width="2" height="10.409"/>
	<rect x="-301.012" y="197.768" transform="matrix(0.7071 0.7071 -0.7071 0.7071 53.9103 267.385)" width="10.409" height="2"/>
	<polygon points="-287.771,216.727 -286.356,218.141 -282.103,213.887 -282.103,223.473 -280.103,223.473 -280.103,213.887 
		-275.85,218.141 -274.436,216.727 -281.103,210.059 	"/>
	<path d="M-268.096,213.472c0-0.002,0-0.004,0-0.006c0-7.18-5.82-12.999-13-12.999s-13,5.819-13,12.999c0,0.002,0,0.004,0,0.006h-13
		v2h18v-2h-3c0-0.002,0-0.004,0-0.006c0-6.064,4.935-10.999,11-10.999s11,4.935,11,10.999c0,0.002,0,0.004,0,0.006h-3v2h17.995v-2
		H-268.096z"/>
</g>
<g>
	<rect x="-178.357" y="186.285" width="2" height="10"/>
	<rect x="-163.658" y="192.371" transform="matrix(0.7071 0.7071 -0.7071 0.7071 92.0658 172.8849)" width="2" height="10.409"/>
	<rect x="-197.267" y="196.581" transform="matrix(0.7071 0.7071 -0.7071 0.7071 83.4569 193.6784)" width="10.409" height="2"/>
	<polygon points="-176.357,220.832 -176.357,210.285 -178.357,210.285 -178.357,220.832 -182.611,216.578 -184.025,217.992 
		-177.357,224.66 -170.69,217.992 -172.104,216.578 	"/>
	<path d="M-164.351,212.284c0-0.002,0-0.004,0-0.006c0-7.18-5.82-12.999-13-12.999s-13,5.819-13,12.999c0,0.002,0,0.004,0,0.006h-13
		v2h22v-2h-7c0-0.002,0-0.004,0-0.006c0-6.064,4.935-10.999,11-10.999s11,4.935,11,10.999c0,0.002,0,0.004,0,0.006h-7v2h21.995v-2
		H-164.351z"/>
</g>
<g>
	<polygon points="26,220.298 26,205.915 24,205.915 24,220.298 19.746,216.044 18.332,217.458 25,224.126 31.667,217.458 
		30.253,216.044 	"/>
	<path d="M41.628,200.944c-1.596-7.445-8.207-13.029-16.127-13.029c-6.423,0-11.977,3.678-14.702,9.035
		c-0.266-0.018-0.53-0.04-0.8-0.04c-6.627,0-11.999,5.372-11.999,12c0,6.607,5.34,11.965,11.938,11.998v0.003H16v-2h-5.604
		l-0.447-0.003C4.463,218.881,0,214.396,0,208.91c0-5.514,4.485-10,9.999-10c0.175,0,0.347,0.014,0.52,0.025l0.148,0.01l1.316,0.088
		l0.598-1.176c2.492-4.899,7.443-7.942,12.92-7.942c6.79,0,12.75,4.814,14.172,11.448l0.317,1.482l1.514,0.095
		c4.203,0.262,7.496,3.763,7.496,7.971c0,4.397-3.565,7.977-7.957,8c-0.05-0.003-0.093-0.005-0.137-0.007l-2.043,0.007H34v2h6.863
		v-0.007c0.046,0.001,0.091,0.007,0.137,0.007c5.521,0,10-4.477,10-10C51,205.601,46.855,201.27,41.628,200.944z"/>
</g>
<g>
	<polygon points="-68.016,217.103 -66.602,215.688 -73.269,209.021 -79.937,215.688 -78.522,217.103 -74.269,212.849 
		-74.269,225.435 -72.269,225.435 -72.269,212.849 	"/>
	<path d="M-56.641,202.54c-1.596-7.445-8.207-13.029-16.127-13.029c-6.423,0-11.977,3.678-14.702,9.035
		c-0.266-0.018-0.53-0.04-0.8-0.04c-6.627,0-11.999,5.372-11.999,12c0,6.607,5.34,11.965,11.938,11.998v0.003h10.062v-2h-9.604
		l-0.447-0.003c-5.485-0.027-9.948-4.513-9.948-9.998c0-5.514,4.485-10,9.999-10c0.175,0,0.347,0.014,0.52,0.025l0.148,0.01
		l1.316,0.088l0.598-1.176c2.492-4.899,7.443-7.942,12.92-7.942c6.79,0,12.75,4.814,14.172,11.448l0.317,1.482l1.514,0.095
		c4.203,0.262,7.496,3.763,7.496,7.971c0,4.397-3.565,7.977-7.957,8c-0.05-0.003-0.093-0.005-0.137-0.007l-2.043,0.007h-8.863v2
		h10.863V222.5c0.046,0.001,0.091,0.007,0.137,0.007c5.521,0,10-4.477,10-10C-47.269,207.196-51.413,202.865-56.641,202.54z"/>
</g>
<g>
	<path d="M145.849,13.024c-1.596-7.445-8.207-13.029-16.127-13.029c-6.423,0-11.977,3.678-14.702,9.035
		c-0.266-0.018-0.53-0.04-0.8-0.04c-6.627,0-11.999,5.372-11.999,12c0,6.607,5.34,11.965,11.938,11.998v0.003h2.062v-2h-1.604
		l-0.447-0.003c-5.485-0.027-9.948-4.513-9.948-9.998c0-5.514,4.485-10,9.999-10c0.175,0,0.347,0.014,0.52,0.025l0.148,0.01
		l1.316,0.088l0.598-1.176c2.492-4.899,7.443-7.942,12.92-7.942c6.79,0,12.75,4.814,14.172,11.448l0.317,1.482l1.514,0.095
		c4.203,0.262,7.496,3.763,7.496,7.971c0,4.397-3.565,7.977-7.957,8c-0.05-0.003-0.093-0.005-0.137-0.007l-2.043,0.007h-0.863v2
		h2.863v-0.007c0.046,0.001,0.091,0.007,0.137,0.007c5.521,0,10-4.477,10-10C155.221,17.681,151.076,13.35,145.849,13.024z"/>
	<polygon points="124.221,32.013 124.221,29.383 126.394,30.605 127.079,29.385 124.609,27.995 127.079,26.605 126.394,25.385 
		124.221,26.607 124.221,24.013 122.221,24.013 122.221,26.651 119.97,25.385 119.284,26.605 121.754,27.995 119.284,29.385 
		119.97,30.605 122.221,29.339 122.221,32.013 	"/>
	<polygon points="129.383,36.367 127.21,37.59 127.21,34.995 125.21,34.995 125.21,37.634 122.959,36.367 122.273,37.588 
		124.743,38.978 122.273,40.367 122.959,41.588 125.21,40.321 125.21,42.995 127.21,42.995 127.21,40.365 129.383,41.588 
		130.068,40.367 127.599,38.978 130.068,37.588 	"/>
	<polygon points="138.398,29.385 136.226,30.607 136.226,28.013 134.226,28.013 134.226,30.651 131.975,29.385 131.289,30.605 
		133.759,31.995 131.289,33.385 131.975,34.605 134.226,33.339 134.226,36.013 136.226,36.013 136.226,33.383 138.398,34.605 
		139.084,33.385 136.614,31.995 139.084,30.605 	"/>
</g>
<g>
	<rect x="221.36" y="-5.027" width="2" height="7.973"/>
	<rect x="202.36" y="13.887" width="7.973" height="2"/>
	<rect x="207.033" y="2.62" transform="matrix(0.7071 0.7071 -0.7071 0.7071 64.3663 -148.1537)" width="7.974" height="2"/>
	<rect x="232.542" y="-0.362" transform="matrix(0.7071 0.7071 -0.7071 0.7071 70.9654 -164.0777)" width="2" height="7.972"/>
	<path d="M251.872,20.763c-1.444-6.742-7.433-11.8-14.605-11.8c-2.185,0-4.258,0.471-6.127,1.314
		c-1.666-3.203-5.006-5.395-8.865-5.395c-5.522,0-10,4.477-10,9.999c0,2.46,0.899,4.702,2.373,6.442
		c-1.428,1.84-2.287,4.144-2.287,6.653c0,5.983,4.836,10.836,10.813,10.865v0.003h1.188v-2h-0.721l-0.457-0.003
		c-4.864-0.023-8.822-4.001-8.822-8.865c0-4.89,3.978-8.868,8.867-8.868c0.15,0,0.299,0.012,0.447,0.022l0.148,0.01l1.314,0.085
		l0.597-1.175c2.225-4.372,6.644-7.089,11.532-7.089c6.062,0,11.382,4.298,12.649,10.219l0.318,1.483l1.514,0.094
		c3.708,0.23,6.612,3.319,6.612,7.03c0,3.878-3.144,7.035-7.017,7.057c-0.042-0.003-0.079-0.005-0.117-0.005l-1.866,0.005v2h1.819
		V38.84c0.042,0.001,0.082,0.006,0.124,0.006c5.001,0,9.057-4.054,9.057-9.057C260.36,24.979,256.606,21.058,251.872,20.763z
		 M223.952,17.146c-0.241-0.016-0.48-0.036-0.725-0.036c-2.766,0-5.282,1.041-7.2,2.742c-1.092-1.365-1.753-3.089-1.753-4.97
		c0-4.41,3.589-7.999,8-7.999c3.092,0,5.76,1.773,7.091,4.346C227.067,12.668,225.188,14.716,223.952,17.146z"/>
	<polygon points="231.353,37.865 231.353,35.235 233.525,36.458 234.211,35.237 231.741,33.848 234.211,32.458 233.525,31.237 
		231.353,32.46 231.353,29.865 229.353,29.865 229.353,32.504 227.102,31.237 226.416,32.458 228.886,33.848 226.416,35.237 
		227.102,36.458 229.353,35.191 229.353,37.865 	"/>
	<polygon points="236.515,42.22 234.342,43.442 234.342,40.848 232.342,40.848 232.342,43.486 230.091,42.22 229.405,43.44 
		231.875,44.83 229.405,46.22 230.091,47.44 232.342,46.174 232.342,48.848 234.342,48.848 234.342,46.218 236.515,47.44 
		237.2,46.22 234.73,44.83 237.2,43.44 	"/>
	<polygon points="245.53,35.237 243.357,36.46 243.357,33.865 241.357,33.865 241.357,36.504 239.106,35.237 238.421,36.458 
		240.891,37.848 238.421,39.237 239.106,40.458 241.357,39.191 241.357,41.865 243.357,41.865 243.357,39.235 245.53,40.458 
		246.216,39.237 243.746,37.848 246.216,36.458 	"/>
</g>
<g>
	<path d="M352.061,17.76c-1.444-6.742-7.433-11.8-14.605-11.8c-1.799,0-3.522,0.32-5.118,0.904c-0.949-5.108-5.404-8.98-10.788-8.98
		c-0.413,0-0.819,0.027-1.222,0.071c0.744,1.112,1.179,2.448,1.179,3.886c0,3.865-3.134,7-7,7c-1.438,0-2.773-0.435-3.886-1.179
		c-0.044,0.401-0.071,0.809-0.071,1.222c0,3.713,1.845,6.987,4.661,8.979c-1.653,1.907-2.661,4.389-2.661,7.111
		c0,5.983,4.836,10.836,10.813,10.865v0.003h1.188v-2h-0.721l-0.457-0.003c-4.864-0.023-8.822-4.001-8.822-8.865
		c0-4.89,3.978-8.868,8.867-8.868c0.15,0,0.299,0.012,0.447,0.022l0.148,0.01l1.314,0.085l0.597-1.175
		c2.225-4.372,6.644-7.089,11.532-7.089c6.062,0,11.382,4.298,12.649,10.219l0.318,1.483l1.514,0.094
		c3.708,0.23,6.612,3.319,6.612,7.03c0,3.878-3.144,7.035-7.017,7.057c-0.042-0.003-0.079-0.005-0.117-0.005l-1.866,0.005v2h1.819
		v-0.006c0.042,0.001,0.082,0.006,0.124,0.006c5.001,0,9.057-4.054,9.057-9.057C360.549,21.977,356.795,18.055,352.061,17.76z
		 M324.141,14.143c-0.241-0.016-0.48-0.036-0.725-0.036c-2.537,0-4.865,0.877-6.715,2.334c-2.012-1.294-3.486-3.354-3.976-5.776
		c0.582,0.117,1.178,0.177,1.78,0.177c4.963,0,9-4.037,9-9c0-0.603-0.06-1.198-0.177-1.78c3.733,0.753,6.629,3.824,7.134,7.64
		C327.75,9.145,325.535,11.399,324.141,14.143z"/>
	<polygon points="331.586,34.862 331.586,32.232 333.759,33.455 334.444,32.234 331.975,30.845 334.444,29.455 333.759,28.234 
		331.586,29.457 331.586,26.862 329.586,26.862 329.586,29.501 327.335,28.234 326.649,29.455 329.119,30.845 326.649,32.234 
		327.335,33.455 329.586,32.188 329.586,34.862 	"/>
	<polygon points="336.748,39.217 334.575,40.439 334.575,37.845 332.575,37.845 332.575,40.483 330.324,39.217 329.639,40.438 
		332.108,41.827 329.639,43.217 330.324,44.438 332.575,43.171 332.575,45.845 334.575,45.845 334.575,43.215 336.748,44.438 
		337.434,43.217 334.964,41.827 337.434,40.438 	"/>
	<polygon points="345.764,32.234 343.591,33.457 343.591,30.862 341.591,30.862 341.591,33.501 339.34,32.234 338.654,33.455 
		341.124,34.845 338.654,36.234 339.34,37.455 341.591,36.188 341.591,38.862 343.591,38.862 343.591,36.232 345.764,37.455 
		346.449,36.234 343.979,34.845 346.449,33.455 	"/>
</g>
<rect x="-264.298" y="-549.99" fill="none" width="472.974" height="180.918"/>
<text transform="matrix(1 0 0 1 -84.6606 -478.5913)"><tspan x="0" y="0" font-family="'HelveticaNeueLTStd-Th'" font-size="100" letter-spacing="2">60</tspan><tspan x="-99.268" y="60" font-family="'HelveticaNeueLTStd-Lt'" font-size="48" letter-spacing="1">Weather Icons</tspan><tspan x="-3.726" y="104" font-family="'HelveticaNeueLTStd-Lt'" font-size="24">IOS 7 Style</tspan></text>
</svg>
