<?xml version="1.0" encoding="utf-8"?>
<!-- Generator: Adobe Illustrator 16.0.0, SVG Export Plug-In . SVG Version: 6.00 Build 0)  -->
<!DOCTYPE svg PUBLIC "-//W3C//DTD SVG 1.1//EN" "http://www.w3.org/Graphics/SVG/1.1/DTD/svg11.dtd">
<svg version="1.1" id="Layer_1" xmlns="http://www.w3.org/2000/svg" xmlns:xlink="http://www.w3.org/1999/xlink" x="0px" y="0px"
	 width="53px" height="43px" viewBox="0 0 53 43" enable-background="new 0 0 53 43" xml:space="preserve">
<path d="M133.95,189.18l-1.803,15.077l-0.268,2.237h2.254h6.896l-14.693,18.759l1.789-14.52l0.277-2.245h-2.262h-6.957
	L133.95,189.18 M136.805,182.155l-21.667,28.333h11.004l-2.671,21.667l21.667-27.661h-11.004L136.805,182.155L136.805,182.155z"/>
<path d="M-279.085-273.081c6.79,0,12.749,4.814,14.171,11.448l0.318,1.483l1.514,0.094c4.203,0.262,7.496,3.763,7.496,7.971
	c0,4.396-3.565,7.977-7.957,8c-0.046-0.003-0.091-0.006-0.137-0.007l-2.043-0.036v0.043h-28.337l-0.578-0.003
	c-5.485-0.027-9.948-4.513-9.948-9.998c0-5.514,4.485-10,9.999-10c0.175,0,0.347,0.014,0.519,0.025l0.149,0.011l1.316,0.087
	l0.598-1.176C-289.512-270.038-284.562-273.081-279.085-273.081 M-279.085-275.081c-6.423,0-11.977,3.678-14.702,9.035
	c-0.266-0.018-0.53-0.04-0.8-0.04c-6.627,0-11.999,5.372-11.999,12c0,6.607,5.34,11.965,11.938,11.998v0.003h30.925v-0.007
	c0.046,0.001,0.091,0.007,0.137,0.007c5.521,0,10-4.477,10-10c0-5.311-4.145-9.642-9.372-9.967
	C-264.554-269.497-271.165-275.081-279.085-275.081L-279.085-275.081z"/>
<g>
	<path d="M-156.134-254.67c-1.444-6.742-7.433-11.8-14.605-11.8c-2.185,0-4.258,0.47-6.127,1.313
		c-1.666-3.202-5.006-5.394-8.865-5.394c-5.522,0-10,4.477-10,9.999c0,2.46,0.898,4.702,2.373,6.442
		c-1.428,1.84-2.287,4.144-2.287,6.653c0,5.983,4.836,10.836,10.813,10.865v0.003h28.007v-0.006
		c0.042,0.001,0.082,0.006,0.124,0.006c5.001,0,9.057-4.054,9.057-9.057C-147.646-250.453-151.399-254.375-156.134-254.67z
		 M-185.731-268.55c3.092,0,5.76,1.773,7.092,4.345c-2.299,1.44-4.178,3.488-5.414,5.918c-0.241-0.016-0.48-0.036-0.725-0.036
		c-2.766,0-5.281,1.041-7.2,2.743c-1.092-1.366-1.753-3.09-1.753-4.971C-193.731-264.961-190.143-268.55-185.731-268.55z
		 M-156.662-238.587c-0.038-0.003-0.077-0.004-0.117-0.005l-2.047-0.042v0.047h-25.403l-0.594-0.003
		c-4.864-0.023-8.822-4.001-8.822-8.865c0-4.89,3.978-8.868,8.867-8.868c0.15,0,0.299,0.012,0.447,0.021l0.148,0.011l1.314,0.085
		l0.598-1.174c2.224-4.373,6.643-7.09,11.531-7.09c6.062,0,11.381,4.298,12.65,10.219l0.317,1.482l1.514,0.095
		c3.708,0.231,6.612,3.319,6.612,7.03C-149.646-241.766-152.789-238.609-156.662-238.587z"/>
	<rect x="-186.726" y="-280.58" width="2" height="7.973"/>
	<rect x="-205.698" y="-261.594" width="7.973" height="2"/>
	<rect x="-200.972" y="-272.812" transform="matrix(0.7071 0.7071 -0.7071 0.7071 -249.8961 59.6776)" width="7.974" height="2"/>
	<rect x="-175.464" y="-275.794" transform="matrix(0.7071 0.7071 -0.7071 0.7071 -243.297 43.7537)" width="2" height="7.972"/>
</g>
<path d="M-60.391-258.697c-1.444-6.742-7.433-11.8-14.605-11.8c-1.799,0-3.521,0.32-5.118,0.904
	c-0.949-5.108-5.404-8.98-10.788-8.98c-0.413,0-0.819,0.027-1.222,0.071c0.744,1.112,1.179,2.448,1.179,3.886c0,3.865-3.134,7-7,7
	c-1.438,0-2.773-0.435-3.886-1.179c-0.044,0.401-0.071,0.809-0.071,1.222c0,3.712,1.845,6.987,4.661,8.979
	c-1.653,1.907-2.661,4.389-2.661,7.111c0,5.983,4.836,10.836,10.813,10.865v0.003h28.007v-0.006
	c0.042,0.001,0.082,0.006,0.124,0.006c5.001,0,9.057-4.054,9.057-9.057C-51.902-254.48-55.656-258.402-60.391-258.697z
	 M-99.726-265.793c0.582,0.117,1.178,0.177,1.78,0.177c4.963,0,9-4.037,9-9c0-0.603-0.06-1.198-0.177-1.78
	c3.733,0.753,6.629,3.824,7.134,7.64c-2.713,1.444-4.928,3.699-6.322,6.442c-0.241-0.016-0.48-0.036-0.725-0.036
	c-2.537,0-4.865,0.876-6.715,2.334C-97.762-261.311-99.236-263.37-99.726-265.793z M-60.919-242.614
	c-0.038-0.003-0.077-0.004-0.117-0.005l-2.047-0.042v0.047h-25.403l-0.594-0.003c-4.864-0.023-8.822-4.001-8.822-8.865
	c0-4.89,3.978-8.868,8.867-8.868c0.15,0,0.299,0.012,0.447,0.021l0.148,0.011l1.314,0.085l0.598-1.174
	c2.224-4.373,6.643-7.09,11.531-7.09c6.062,0,11.381,4.298,12.65,10.219l0.317,1.482l1.514,0.095
	c3.708,0.231,6.612,3.319,6.612,7.03C-53.902-245.793-57.046-242.637-60.919-242.614z"/>
<g>
	<rect x="24.255" y="-250.074" width="2" height="7"/>
	<rect x="32.255" y="-254.074" width="2" height="7"/>
	<rect x="16.255" y="-254.074" width="2" height="7"/>
	<rect x="24.255" y="-240.074" width="2" height="7"/>
	<rect x="32.255" y="-244.074" width="2" height="7"/>
	<rect x="16.255" y="-244.074" width="2" height="7"/>
	<path d="M42.883-267.063c-1.596-7.445-8.207-13.029-16.127-13.029c-6.423,0-11.977,3.678-14.702,9.035
		c-0.266-0.018-0.53-0.04-0.8-0.04c-6.627,0-11.999,5.372-11.999,12c0,6.607,5.34,11.965,11.938,11.998v0.003h2.062v-2H11.65
		l-0.447-0.003c-5.485-0.027-9.948-4.513-9.948-9.998c0-5.514,4.485-10,9.999-10c0.175,0,0.347,0.014,0.52,0.025l0.148,0.01
		l1.316,0.088l0.598-1.176c2.492-4.899,7.443-7.942,12.92-7.942c6.79,0,12.75,4.814,14.172,11.448l0.317,1.482l1.514,0.095
		c4.203,0.262,7.496,3.763,7.496,7.971c0,4.397-3.565,7.977-7.957,8c-0.05-0.003-0.093-0.005-0.137-0.007l-2.043,0.007h-2.863v2
		h4.863v-0.007c0.046,0.001,0.091,0.007,0.137,0.007c5.521,0,10-4.477,10-10C52.255-262.406,48.11-266.737,42.883-267.063z"/>
</g>
<g>
	<path d="M-159.544-177.705c-1.596-7.445-8.207-13.029-16.127-13.029c-6.423,0-11.977,3.678-14.702,9.035
		c-0.266-0.018-0.53-0.04-0.8-0.04c-6.627,0-11.999,5.372-11.999,12c0,6.607,5.34,11.965,11.938,11.998v0.003h2.062v-2h-1.604
		l-0.447-0.003c-5.485-0.027-9.948-4.513-9.948-9.998c0-5.514,4.485-10,9.999-10c0.175,0,0.347,0.014,0.52,0.025l0.148,0.01
		l1.316,0.088l0.598-1.176c2.492-4.899,7.443-7.942,12.92-7.942c6.79,0,12.75,4.814,14.172,11.448l0.317,1.482l1.514,0.095
		c4.203,0.262,7.496,3.763,7.496,7.971c0,4.397-3.565,7.977-7.957,8c-0.05-0.003-0.093-0.005-0.137-0.007l-2.043,0.007h-2.863v2
		h4.863v-0.007c0.046,0.001,0.091,0.007,0.137,0.007c5.521,0,10-4.477,10-10C-150.172-173.049-154.316-177.38-159.544-177.705z"/>
	<polygon points="-178.172,-150.71 -178.172,-148.77 -178.172,-142.71 -176.172,-142.71 -176.172,-148.77 -176.172,-150.71 
		-176.172,-162.71 -178.172,-162.71 	"/>
	<polygon points="-170.172,-154.71 -170.172,-152.957 -170.172,-146.71 -168.172,-146.71 -168.172,-152.957 -168.172,-154.71 
		-168.172,-166.71 -170.172,-166.71 	"/>
	<polygon points="-186.172,-154.71 -186.172,-152.645 -186.172,-146.71 -184.172,-146.71 -184.172,-152.645 -184.172,-154.71 
		-184.172,-166.71 -186.172,-166.71 	"/>
</g>
<g>
	<polygon points="136.105,-153.799 129.223,-163.629 127.585,-162.481 134.468,-152.651 135.58,-151.063 139.056,-146.099 
		140.694,-147.245 137.219,-152.21 	"/>
	<polygon points="144.107,-153.801 137.223,-163.629 135.585,-162.48 142.471,-152.652 143.476,-151.217 147.06,-146.102 
		148.698,-147.248 145.114,-152.364 	"/>
	<polygon points="128.105,-153.799 121.223,-163.629 119.585,-162.48 126.468,-152.651 127.652,-150.959 131.057,-146.098 
		132.694,-147.245 129.291,-152.106 	"/>
	<path d="M147.213-177.438c-1.596-7.445-8.207-13.029-16.127-13.029c-6.423,0-11.977,3.678-14.702,9.035
		c-0.266-0.018-0.53-0.04-0.8-0.04c-6.627,0-11.999,5.372-11.999,12c0,6.607,5.34,11.965,11.938,11.998v0.003h2.062v-2h-1.604
		l-0.447-0.003c-5.485-0.027-9.948-4.513-9.948-9.998c0-5.514,4.485-10,9.999-10c0.175,0,0.347,0.014,0.52,0.025l0.148,0.01
		l1.316,0.088l0.598-1.176c2.492-4.899,7.443-7.942,12.92-7.942c6.79,0,12.75,4.814,14.172,11.448l0.317,1.482l1.514,0.095
		c4.203,0.262,7.496,3.763,7.496,7.971c0,4.397-3.565,7.977-7.957,8c-0.05-0.003-0.093-0.005-0.137-0.007l-1.043,0.007h0.137v2
		h0.863v-0.007c0.046,0.001,0.091,0.007,0.137,0.007c5.521,0,10-4.477,10-10C156.585-172.782,152.44-177.113,147.213-177.438z"/>
</g>
<g>
	<rect x="118.911" y="-286.521" width="2" height="7.973"/>
	<rect x="99.911" y="-267.606" width="7.973" height="2"/>
	<rect x="104.584" y="-278.873" transform="matrix(0.7071 0.7071 -0.7071 0.7071 -164.6861 -158.1586)" width="7.974" height="2"/>
	<rect x="130.093" y="-281.855" transform="matrix(0.7071 0.7071 -0.7071 0.7071 -158.087 -174.0826)" width="2" height="7.972"/>
	<rect x="132.911" y="-245.647" width="2" height="7"/>
	<rect x="140.911" y="-249.647" width="2" height="7"/>
	<rect x="124.911" y="-249.647" width="2" height="7"/>
	<rect x="132.911" y="-235.647" width="2" height="7"/>
	<rect x="140.911" y="-239.647" width="2" height="7"/>
	<rect x="124.911" y="-239.647" width="2" height="7"/>
	<path d="M149.423-260.73c-1.444-6.742-7.433-11.8-14.605-11.8c-2.185,0-4.258,0.47-6.126,1.313
		c-1.667-3.202-5.007-5.394-8.866-5.394c-5.522,0-10,4.477-10,9.999c0,2.46,0.899,4.702,2.373,6.442
		c-1.429,1.84-2.287,4.144-2.287,6.653c0,5.983,4.836,10.836,10.813,10.865v0.003h1.188v-2h-0.721l-0.457-0.003
		c-4.864-0.023-8.822-4.001-8.822-8.865c0-4.89,3.978-8.868,8.867-8.868c0.15,0,0.299,0.012,0.447,0.022l0.148,0.01l1.314,0.085
		l0.597-1.175c2.225-4.372,6.644-7.089,11.532-7.089c6.062,0,11.382,4.298,12.649,10.219l0.318,1.483l1.514,0.094
		c3.708,0.23,6.612,3.319,6.612,7.03c0,3.878-3.144,7.035-7.017,7.057c-0.042-0.003-0.079-0.005-0.117-0.005l-2.047,0.005h-0.819v2
		h2.819v-0.006c0.042,0.001,0.082,0.006,0.124,0.006c5.001,0,9.057-4.054,9.057-9.057
		C157.911-256.514,154.157-260.436,149.423-260.73z M121.503-264.348c-0.241-0.016-0.48-0.036-0.725-0.036
		c-2.766,0-5.282,1.041-7.2,2.743c-1.092-1.366-1.753-3.09-1.753-4.971c0-4.41,3.589-7.999,8-7.999c3.091,0,5.76,1.773,7.091,4.345
		C124.618-268.825,122.738-266.777,121.503-264.348z"/>
</g>
<g>
	<rect x="233.328" y="-247.095" width="2" height="7"/>
	<rect x="241.328" y="-251.095" width="2" height="7"/>
	<rect x="225.328" y="-251.095" width="2" height="7"/>
	<rect x="233.328" y="-237.095" width="2" height="7"/>
	<rect x="241.328" y="-241.095" width="2" height="7"/>
	<rect x="225.328" y="-241.095" width="2" height="7"/>
	<path d="M249.84-262.178c-1.444-6.742-7.433-11.8-14.605-11.8c-1.799,0-3.522,0.32-5.118,0.904
		c-0.949-5.108-5.404-8.98-10.788-8.98c-0.413,0-0.819,0.027-1.222,0.071c0.744,1.112,1.179,2.448,1.179,3.886c0,3.865-3.134,7-7,7
		c-1.438,0-2.773-0.435-3.886-1.179c-0.044,0.401-0.071,0.809-0.071,1.222c0,3.712,1.845,6.987,4.661,8.979
		c-1.653,1.907-2.661,4.389-2.661,7.111c0,5.983,4.836,10.836,10.813,10.865v0.003h1.188v-2h-0.721l-0.457-0.003
		c-4.864-0.023-8.822-4.001-8.822-8.865c0-4.89,3.978-8.868,8.867-8.868c0.15,0,0.299,0.012,0.447,0.022l0.148,0.01l1.314,0.085
		l0.597-1.175c2.225-4.372,6.644-7.089,11.532-7.089c6.062,0,11.382,4.298,12.649,10.219l0.318,1.483l1.514,0.094
		c3.708,0.23,6.612,3.319,6.612,7.03c0,3.878-3.144,7.035-7.017,7.057c-0.042-0.003-0.079-0.005-0.117-0.005l-2.047,0.005h-0.819v2
		h2.819v-0.006c0.042,0.001,0.082,0.006,0.124,0.006c5.001,0,9.057-4.054,9.057-9.057
		C258.328-257.961,254.574-261.883,249.84-262.178z M221.92-265.795c-0.241-0.016-0.48-0.036-0.725-0.036
		c-2.537,0-4.865,0.876-6.715,2.334c-2.012-1.294-3.487-3.354-3.976-5.776c0.582,0.117,1.178,0.177,1.78,0.177c4.963,0,9-4.037,9-9
		c0-0.603-0.06-1.198-0.177-1.78c3.733,0.753,6.629,3.824,7.133,7.64C225.53-270.793,223.315-268.538,221.92-265.795z"/>
</g>
<g>
	<polygon points="-73.902,-146.271 -73.902,-144.331 -73.902,-138.271 -71.902,-138.271 -71.902,-144.331 -71.902,-146.271 
		-71.902,-158.271 -73.902,-158.271 	"/>
	<polygon points="-65.902,-150.271 -65.902,-148.519 -65.902,-142.271 -63.902,-142.271 -63.902,-148.519 -63.902,-150.271 
		-63.902,-162.271 -65.902,-162.271 	"/>
	<polygon points="-81.902,-150.271 -81.902,-148.206 -81.902,-142.271 -79.902,-142.271 -79.902,-148.206 -79.902,-150.271 
		-79.902,-162.271 -81.902,-162.271 	"/>
	<rect x="-87.902" y="-197.174" width="2" height="7.973"/>
	<rect x="-106.902" y="-178.26" width="7.973" height="2"/>
	<rect x="-102.229" y="-189.526" transform="matrix(0.7071 0.7071 -0.7071 0.7071 -162.0827 14.2496)" width="7.974" height="2"/>
	<rect x="-76.721" y="-192.508" transform="matrix(0.7071 0.7071 -0.7071 0.7071 -155.4836 -1.6743)" width="2" height="7.972"/>
	<path d="M-57.391-171.384c-1.444-6.742-7.433-11.8-14.605-11.8c-2.185,0-4.258,0.47-6.127,1.313
		c-1.666-3.202-5.006-5.394-8.865-5.394c-5.522,0-10,4.477-10,9.999c0,2.46,0.898,4.702,2.373,6.442
		c-1.428,1.84-2.287,4.144-2.287,6.653c0,5.983,4.836,10.836,10.813,10.865v0.003h1.188v-2h-0.721l-0.457-0.003
		c-4.864-0.023-8.822-4.001-8.822-8.865c0-4.89,3.978-8.868,8.867-8.868c0.15,0,0.299,0.012,0.447,0.022l0.148,0.01l1.314,0.085
		l0.597-1.175c2.225-4.372,6.644-7.089,11.532-7.089c6.062,0,11.382,4.298,12.649,10.219l0.318,1.483l1.514,0.094
		c3.708,0.23,6.612,3.319,6.612,7.03c0,3.878-3.144,7.035-7.017,7.057c-0.042-0.003-0.079-0.005-0.117-0.005l-2.047,0.005h-0.819v2
		h2.819v-0.006c0.042,0.001,0.082,0.006,0.124,0.006c5.001,0,9.057-4.054,9.057-9.057
		C-48.902-167.167-52.656-171.089-57.391-171.384z M-85.311-175.001c-0.241-0.016-0.48-0.036-0.725-0.036
		c-2.766,0-5.281,1.042-7.2,2.743c-1.092-1.367-1.753-3.09-1.753-4.971c0-4.41,3.589-7.999,8-7.999c3.092,0,5.76,1.773,7.092,4.345
		C-82.195-179.479-84.074-177.431-85.311-175.001z"/>
</g>
<g>
	<polygon points="26.495,-148.788 26.495,-146.848 26.495,-140.788 28.495,-140.788 28.495,-146.848 28.495,-148.788 
		28.495,-160.788 26.495,-160.788 	"/>
	<polygon points="34.495,-152.788 34.495,-151.035 34.495,-144.788 36.495,-144.788 36.495,-151.035 36.495,-152.788 
		36.495,-164.788 34.495,-164.788 	"/>
	<polygon points="18.495,-152.788 18.495,-150.723 18.495,-144.788 20.495,-144.788 20.495,-150.723 20.495,-152.788 
		20.495,-164.788 18.495,-164.788 	"/>
	<path d="M43.007-173.9c-1.444-6.742-7.433-11.8-14.605-11.8c-1.799,0-3.521,0.32-5.118,0.904c-0.949-5.108-5.404-8.98-10.788-8.98
		c-0.413,0-0.819,0.027-1.222,0.071c0.744,1.112,1.179,2.448,1.179,3.886c0,3.865-3.134,7-7,7c-1.438,0-2.773-0.435-3.886-1.179
		c-0.044,0.401-0.071,0.809-0.071,1.222c0,3.712,1.845,6.987,4.661,8.979c-1.653,1.907-2.661,4.389-2.661,7.111
		c0,5.983,4.836,10.836,10.813,10.865v0.003h1.188v-2h-0.721l-0.457-0.003c-4.864-0.023-8.822-4.001-8.822-8.865
		c0-4.89,3.978-8.868,8.867-8.868c0.15,0,0.299,0.012,0.447,0.022l0.148,0.01l1.314,0.085l0.597-1.175
		c2.225-4.372,6.644-7.089,11.532-7.089c6.062,0,11.382,4.298,12.649,10.219l0.318,1.483l1.514,0.094
		c3.708,0.23,6.612,3.319,6.612,7.03c0,3.878-3.144,7.035-7.017,7.057c-0.042-0.003-0.079-0.005-0.117-0.005l-2.047,0.005h-0.819v2
		h2.819v-0.006c0.042,0.001,0.082,0.006,0.124,0.006c5.001,0,9.057-4.054,9.057-9.057C51.495-169.684,47.741-173.605,43.007-173.9z
		 M15.087-177.518c-0.241-0.016-0.48-0.036-0.725-0.036c-2.537,0-4.865,0.876-6.715,2.334c-2.012-1.294-3.486-3.354-3.976-5.776
		c0.582,0.117,1.178,0.177,1.78,0.177c4.963,0,9-4.037,9-9c0-0.603-0.06-1.198-0.177-1.78c3.733,0.753,6.629,3.824,7.134,7.641
		C18.696-182.516,16.481-180.26,15.087-177.518z"/>
</g>
<g>
	<polygon points="243.53,-147.844 236.647,-157.674 235.01,-156.526 241.893,-146.696 243.005,-145.107 246.48,-140.144 
		248.119,-141.29 244.644,-146.255 	"/>
	<polygon points="251.532,-147.846 244.647,-157.674 243.01,-156.525 249.896,-146.697 250.9,-145.262 254.484,-140.146 
		256.123,-141.293 252.539,-146.409 	"/>
	<polygon points="235.53,-147.844 228.647,-157.674 227.01,-156.525 233.893,-146.696 235.077,-145.004 238.481,-140.143 
		240.119,-141.29 236.716,-146.151 	"/>
	<rect x="223.01" y="-195.393" width="2" height="7.973"/>
	<rect x="204.01" y="-176.479" width="7.973" height="2"/>
	<rect x="208.683" y="-187.745" transform="matrix(0.7071 0.7071 -0.7071 0.7071 -69.7592 -205.0767)" width="7.974" height="2"/>
	<rect x="234.192" y="-190.727" transform="matrix(0.7071 0.7071 -0.7071 0.7071 -63.16 -221.0007)" width="2" height="7.972"/>
	<path d="M253.521-169.603c-1.444-6.742-7.433-11.8-14.605-11.8c-2.185,0-4.258,0.47-6.126,1.313
		c-1.667-3.202-5.007-5.394-8.866-5.394c-5.522,0-10,4.477-10,9.999c0,2.46,0.899,4.702,2.373,6.442
		c-1.429,1.84-2.287,4.144-2.287,6.653c0,5.983,4.836,10.836,10.813,10.865v0.003h1.188v-2h-0.721l-0.457-0.003
		c-4.864-0.023-8.822-4.001-8.822-8.865c0-4.89,3.978-8.868,8.867-8.868c0.15,0,0.299,0.012,0.447,0.022l0.148,0.01l1.314,0.085
		l0.597-1.175c2.225-4.372,6.644-7.089,11.532-7.089c6.062,0,11.382,4.298,12.649,10.219l0.318,1.483l1.514,0.094
		c3.708,0.23,6.612,3.319,6.612,7.03c0,3.878-3.144,7.035-7.017,7.057c-0.042-0.003-0.079-0.005-0.117-0.005l-0.047,0.005h-0.819v2
		h0.819v-0.006c0.042,0.001,0.082,0.006,0.124,0.006c5.001,0,9.057-4.054,9.057-9.057
		C262.01-165.386,258.256-169.308,253.521-169.603z M225.602-173.22c-0.241-0.016-0.48-0.036-0.725-0.036
		c-2.766,0-5.282,1.042-7.2,2.743c-1.092-1.367-1.753-3.09-1.753-4.971c0-4.41,3.589-7.999,8-7.999c3.091,0,5.76,1.773,7.091,4.345
		C228.717-177.698,226.837-175.649,225.602-173.22z"/>
</g>
<g>
	<polygon points="-479.9,-51.358 -486.783,-61.188 -488.421,-60.041 -481.538,-50.211 -480.426,-48.622 -476.95,-43.658 
		-475.312,-44.805 -478.787,-49.77 	"/>
	<polygon points="-471.898,-51.36 -478.783,-61.188 -480.421,-60.04 -473.535,-50.212 -472.53,-48.776 -468.946,-43.661 
		-467.308,-44.808 -470.892,-49.924 	"/>
	<polygon points="-487.9,-51.358 -494.783,-61.188 -496.421,-60.04 -489.538,-50.211 -488.354,-48.519 -484.949,-43.657 
		-483.312,-44.805 -486.715,-49.666 	"/>
	<path d="M-469.909-73.117c-1.444-6.742-7.433-11.8-14.605-11.8c-1.799,0-3.522,0.32-5.118,0.904
		c-0.949-5.108-5.404-8.98-10.788-8.98c-0.413,0-0.819,0.027-1.222,0.071c0.744,1.112,1.179,2.448,1.179,3.886c0,3.865-3.134,7-7,7
		c-1.438,0-2.773-0.435-3.886-1.179c-0.044,0.401-0.071,0.809-0.071,1.222c0,3.712,1.845,6.987,4.661,8.979
		c-1.653,1.907-2.661,4.389-2.661,7.111c0,5.983,4.836,10.836,10.813,10.865v0.003h1.188v-2h-0.721l-0.457-0.003
		c-4.864-0.023-8.822-4.001-8.822-8.865c0-4.89,3.978-8.868,8.867-8.868c0.15,0,0.299,0.012,0.447,0.022l0.148,0.01l1.314,0.085
		l0.597-1.175c2.225-4.372,6.644-7.089,11.532-7.089c6.062,0,11.382,4.298,12.649,10.219l0.318,1.483l1.514,0.094
		c3.708,0.23,6.612,3.319,6.612,7.03c0,3.878-3.144,7.035-7.017,7.057c-0.042-0.003-0.079-0.005-0.117-0.005l-0.047,0.005h-0.819v2
		h0.819v-0.006c0.042,0.001,0.082,0.006,0.124,0.006c5.001,0,9.057-4.054,9.057-9.057C-461.421-68.9-465.175-72.822-469.909-73.117z
		 M-497.829-76.734c-0.241-0.016-0.48-0.036-0.725-0.036c-2.537,0-4.865,0.876-6.715,2.334c-2.012-1.294-3.487-3.354-3.976-5.776
		c0.582,0.117,1.178,0.177,1.78,0.177c4.963,0,9-4.037,9-9c0-0.603-0.06-1.198-0.177-1.78c3.733,0.753,6.629,3.824,7.133,7.641
		C-494.219-81.732-496.434-79.477-497.829-76.734z"/>
</g>
<g>
	<rect x="-487.421" y="-155.205" width="2" height="4"/>
	<rect x="-479.421" y="-159.227" width="2" height="4.021"/>
	<rect x="-495.421" y="-159.227" width="2" height="4.021"/>
	<path d="M-468.793-175.193c-1.596-7.445-8.207-13.029-16.127-13.029c-6.423,0-11.977,3.678-14.702,9.035
		c-0.266-0.018-0.53-0.04-0.8-0.04c-6.627,0-11.999,5.372-11.999,12c0,6.607,5.34,11.965,11.938,11.998v0.003h2.062v-2h-1.604
		l-0.447-0.003c-5.485-0.027-9.948-4.513-9.948-9.998c0-5.514,4.485-10,9.999-10c0.175,0,0.347,0.014,0.52,0.025l0.148,0.01
		l1.316,0.088l0.598-1.176c2.492-4.899,7.443-7.942,12.92-7.942c6.79,0,12.75,4.814,14.172,11.448l0.317,1.482l1.514,0.095
		c4.203,0.262,7.496,3.763,7.496,7.971c0,4.397-3.565,7.977-7.957,8c-0.05-0.003-0.093-0.005-0.137-0.007l-2.043,0.007h-2.863v2
		h4.863v-0.007c0.046,0.001,0.091,0.007,0.137,0.007c5.521,0,10-4.477,10-10C-459.421-170.537-463.565-174.868-468.793-175.193z"/>
	<circle cx="-478.421" cy="-150.185" r="1.5"/>
	<circle cx="-486.421" cy="-146.216" r="1.5"/>
	<circle cx="-494.421" cy="-150.227" r="1.5"/>
</g>
<g>
	<rect x="-394.5" y="-194.659" width="2" height="7.973"/>
	<rect x="-413.5" y="-175.745" width="7.973" height="2"/>
	<rect x="-408.827" y="-187.012" transform="matrix(0.7071 0.7071 -0.7071 0.7071 -250.105 231.7834)" width="7.974" height="2"/>
	<rect x="-383.318" y="-189.994" transform="matrix(0.7071 0.7071 -0.7071 0.7071 -243.5058 215.8595)" width="2" height="7.972"/>
	<path d="M-363.988-168.869c-1.444-6.742-7.433-11.8-14.605-11.8c-2.185,0-4.258,0.47-6.126,1.313
		c-1.667-3.202-5.007-5.394-8.866-5.394c-5.522,0-10,4.477-10,9.999c0,2.46,0.899,4.702,2.373,6.442
		c-1.429,1.84-2.287,4.144-2.287,6.653c0,5.983,4.836,10.836,10.813,10.865v0.003h1.188v-2h-0.721l-0.457-0.003
		c-4.864-0.023-8.822-4.001-8.822-8.865c0-4.89,3.978-8.868,8.867-8.868c0.15,0,0.299,0.012,0.447,0.022l0.148,0.01l1.314,0.085
		l0.597-1.175c2.225-4.372,6.644-7.089,11.532-7.089c6.062,0,11.382,4.298,12.649,10.219l0.318,1.483l1.514,0.094
		c3.708,0.23,6.612,3.319,6.612,7.03c0,3.878-3.144,7.035-7.017,7.057c-0.042-0.003-0.079-0.005-0.117-0.005l-2.047,0.005h-0.819v2
		h2.819v-0.006c0.042,0.001,0.082,0.006,0.124,0.006c5.001,0,9.057-4.054,9.057-9.057
		C-355.5-164.652-359.254-168.574-363.988-168.869z M-391.908-172.486c-0.241-0.016-0.48-0.036-0.725-0.036
		c-2.766,0-5.282,1.042-7.2,2.743c-1.092-1.367-1.753-3.09-1.753-4.971c0-4.41,3.589-7.999,8-7.999c3.091,0,5.76,1.773,7.091,4.345
		C-388.793-176.965-390.673-174.916-391.908-172.486z"/>
	<rect x="-380.5" y="-150.771" width="2" height="4"/>
	<rect x="-372.5" y="-154.792" width="2" height="4.021"/>
	<rect x="-388.5" y="-154.792" width="2" height="4.021"/>
	<circle cx="-371.5" cy="-145.75" r="1.5"/>
	<circle cx="-379.5" cy="-141.781" r="1.5"/>
	<circle cx="-387.5" cy="-145.792" r="1.5"/>
</g>
<g>
	<path d="M-263.063-169.826c-1.444-6.742-7.433-11.8-14.605-11.8c-1.799,0-3.522,0.32-5.118,0.904
		c-0.949-5.108-5.404-8.98-10.788-8.98c-0.413,0-0.819,0.027-1.222,0.071c0.744,1.112,1.179,2.448,1.179,3.886c0,3.865-3.134,7-7,7
		c-1.438,0-2.773-0.435-3.886-1.179c-0.044,0.401-0.071,0.809-0.071,1.222c0,3.712,1.845,6.987,4.661,8.979
		c-1.653,1.907-2.661,4.389-2.661,7.111c0,5.983,4.836,10.836,10.813,10.865v0.003h1.188v-2h-0.721l-0.457-0.003
		c-4.864-0.023-8.822-4.001-8.822-8.865c0-4.89,3.978-8.868,8.867-8.868c0.15,0,0.299,0.012,0.447,0.022l0.148,0.01l1.314,0.085
		l0.597-1.175c2.225-4.372,6.644-7.089,11.532-7.089c6.062,0,11.382,4.298,12.649,10.219l0.318,1.483l1.514,0.094
		c3.708,0.23,6.612,3.319,6.612,7.03c0,3.878-3.144,7.035-7.017,7.057c-0.042-0.003-0.079-0.005-0.117-0.005l-2.047,0.005h-0.819v2
		h2.819v-0.006c0.042,0.001,0.082,0.006,0.124,0.006c5.001,0,9.057-4.054,9.057-9.057
		C-254.574-165.609-258.328-169.531-263.063-169.826z M-290.982-173.443c-0.241-0.016-0.48-0.036-0.725-0.036
		c-2.537,0-4.865,0.876-6.715,2.334c-2.012-1.294-3.487-3.354-3.976-5.776c0.582,0.117,1.178,0.177,1.78,0.177c4.963,0,9-4.037,9-9
		c0-0.603-0.06-1.198-0.177-1.78c3.733,0.753,6.629,3.824,7.133,7.641C-287.372-178.441-289.587-176.186-290.982-173.443z"/>
	<rect x="-279.574" y="-151.728" width="2" height="4"/>
	<rect x="-271.574" y="-155.749" width="2" height="4.021"/>
	<rect x="-287.574" y="-155.749" width="2" height="4.021"/>
	<circle cx="-270.574" cy="-146.707" r="1.5"/>
	<circle cx="-278.574" cy="-142.738" r="1.5"/>
	<circle cx="-286.574" cy="-146.749" r="1.5"/>
</g>
<g>
	<path d="M-366.372-76.796c-1.596-7.445-8.207-13.029-16.127-13.029c-6.423,0-11.977,3.678-14.702,9.035
		c-0.266-0.018-0.53-0.04-0.8-0.04c-6.627,0-11.999,5.372-11.999,12c0,6.607,5.34,11.965,11.938,11.998v0.003H-392v-2h-5.604
		l-0.447-0.003c-5.485-0.027-9.948-4.513-9.948-9.998c0-5.514,4.485-10,9.999-10c0.175,0,0.347,0.014,0.52,0.025l0.148,0.01
		l1.316,0.088l0.598-1.176c2.492-4.899,7.443-7.942,12.92-7.942c6.79,0,12.75,4.814,14.172,11.448l0.317,1.482l1.514,0.095
		c4.203,0.262,7.496,3.763,7.496,7.971c0,4.397-3.565,7.977-7.957,8c-0.05-0.003-0.093-0.005-0.137-0.007l-5.043,0.007H-372v2h4.863
		v-0.007c0.046,0.001,0.091,0.007,0.137,0.007c5.521,0,10-4.477,10-10C-357-72.14-361.145-76.471-366.372-76.796z"/>
	<polygon points="-382.158,-56.825 -380.389,-56.825 -379.958,-56.825 -377.948,-56.825 -384.362,-65.986 -386,-64.839 
		-381.789,-58.825 -383.56,-58.825 -386,-58.825 -384.729,-57.009 -383.616,-55.42 -377.639,-46.825 -376,-47.972 -381.978,-56.567 
			"/>
</g>
<g>
	<rect x="-290.574" y="-95.926" width="2" height="7.973"/>
	<rect x="-309.574" y="-77.012" width="7.973" height="2"/>
	<rect x="-304.901" y="-88.278" transform="matrix(0.7071 0.7071 -0.7071 0.7071 -149.8508 187.2151)" width="7.974" height="2"/>
	<rect x="-279.392" y="-91.26" transform="matrix(0.7071 0.7071 -0.7071 0.7071 -143.2516 171.2912)" width="2" height="7.972"/>
	<path d="M-260.063-70.136c-1.444-6.742-7.433-11.8-14.605-11.8c-2.185,0-4.258,0.47-6.127,1.313
		c-1.666-3.202-5.006-5.394-8.865-5.394c-5.522,0-10,4.477-10,9.999c0,2.46,0.898,4.702,2.373,6.442
		c-1.428,1.84-2.287,4.144-2.287,6.653c0,5.983,4.836,10.836,10.813,10.865v0.003h4.188v-2h-3.721l-0.457-0.003
		c-4.864-0.023-8.822-4.001-8.822-8.865c0-4.89,3.978-8.868,8.867-8.868c0.15,0,0.299,0.012,0.447,0.022l0.148,0.01l1.314,0.085
		l0.597-1.175c2.225-4.372,6.644-7.089,11.532-7.089c6.062,0,11.382,4.298,12.649,10.219l0.318,1.483l1.514,0.094
		c3.708,0.23,6.612,3.319,6.612,7.03c0,3.878-3.144,7.035-7.017,7.057c-0.042-0.003-0.079-0.005-0.117-0.005l-2.047,0.005h-3.819v2
		h5.819v-0.006c0.042,0.001,0.082,0.006,0.124,0.006c5.001,0,9.057-4.054,9.057-9.057
		C-251.574-65.919-255.328-69.841-260.063-70.136z M-287.982-73.753c-0.241-0.016-0.48-0.036-0.725-0.036
		c-2.766,0-5.281,1.041-7.2,2.743c-1.092-1.366-1.753-3.09-1.753-4.971c0-4.41,3.589-7.999,8-7.999c3.092,0,5.76,1.773,7.092,4.345
		C-284.867-78.23-286.746-76.183-287.982-73.753z"/>
	<polygon points="-275.732,-52.046 -273.963,-52.046 -273.532,-52.046 -271.522,-52.046 -277.937,-61.207 -279.574,-60.06 
		-275.363,-54.046 -277.134,-54.046 -279.574,-54.046 -278.303,-52.229 -277.19,-50.641 -271.213,-42.046 -269.574,-43.192 
		-275.552,-51.788 	"/>
</g>
<g>
	<path d="M-160.478-72.432c-1.444-6.742-7.433-11.8-14.605-11.8c-1.799,0-3.521,0.32-5.118,0.904
		c-0.949-5.108-5.404-8.98-10.788-8.98c-0.413,0-0.819,0.027-1.222,0.071c0.744,1.112,1.179,2.448,1.179,3.886c0,3.865-3.134,7-7,7
		c-1.438,0-2.773-0.435-3.886-1.179c-0.044,0.401-0.071,0.809-0.071,1.222c0,3.712,1.845,6.987,4.661,8.979
		c-1.653,1.907-2.661,4.389-2.661,7.111c0,5.983,4.836,10.836,10.813,10.865v0.003h4.188v-2h-3.721l-0.457-0.003
		c-4.864-0.023-8.822-4.001-8.822-8.865c0-4.89,3.978-8.868,8.867-8.868c0.15,0,0.299,0.012,0.447,0.022l0.148,0.01l1.314,0.085
		l0.597-1.175c2.225-4.372,6.644-7.089,11.532-7.089c6.062,0,11.382,4.298,12.649,10.219l0.318,1.483l1.514,0.094
		c3.708,0.23,6.612,3.319,6.612,7.03c0,3.878-3.144,7.035-7.017,7.057c-0.042-0.003-0.079-0.005-0.117-0.005l-2.047,0.005h-3.819v2
		h5.819v-0.006c0.042,0.001,0.082,0.006,0.124,0.006c5.001,0,9.057-4.054,9.057-9.057
		C-151.989-68.215-155.743-72.137-160.478-72.432z M-188.397-76.049c-0.241-0.016-0.48-0.036-0.725-0.036
		c-2.537,0-4.865,0.876-6.715,2.334c-2.012-1.294-3.486-3.354-3.976-5.776c0.582,0.117,1.178,0.177,1.78,0.177c4.963,0,9-4.037,9-9
		c0-0.603-0.06-1.198-0.177-1.78c3.733,0.753,6.629,3.824,7.134,7.64C-184.788-81.047-187.003-78.792-188.397-76.049z"/>
	<polygon points="-176.147,-54.342 -174.378,-54.342 -173.947,-54.342 -171.938,-54.342 -178.352,-63.503 -179.989,-62.355 
		-175.778,-56.342 -177.549,-56.342 -179.989,-56.342 -178.718,-54.525 -177.605,-52.937 -171.628,-44.342 -169.989,-45.488 
		-175.967,-54.084 	"/>
</g>
<g>
	<path d="M-59.593-76.296c-1.596-7.445-8.207-13.029-16.127-13.029c-6.423,0-11.977,3.678-14.702,9.035
		c-0.266-0.018-0.53-0.04-0.8-0.04c-6.627,0-11.999,5.372-11.999,12c0,6.607,5.34,11.965,11.938,11.998v0.003h1.062v-2h-0.604
		l-0.447-0.003c-5.485-0.027-9.948-4.513-9.948-9.998c0-5.514,4.485-10,9.999-10c0.175,0,0.347,0.014,0.52,0.025l0.148,0.01
		l1.316,0.088l0.598-1.176c2.492-4.899,7.443-7.942,12.92-7.942c6.79,0,12.75,4.814,14.172,11.448l0.317,1.482l1.514,0.095
		c4.203,0.262,7.496,3.763,7.496,7.971c0,4.397-3.565,7.977-7.957,8c-0.05-0.003-0.093-0.005-0.137-0.007l-0.906,0.007v2h0.863
		v-0.007c0.046,0.001,0.091,0.007,0.137,0.007c5.521,0,10-4.477,10-10C-50.221-71.64-54.365-75.971-59.593-76.296z"/>
	
		<rect x="-90.786" y="-58.331" transform="matrix(-0.5736 -0.8191 0.8191 -0.5736 -87.1051 -160.0029)" width="11.183" height="1.999"/>
	
		<rect x="-72.812" y="-58.331" transform="matrix(-0.5736 -0.8191 0.8191 -0.5736 -58.8195 -145.2798)" width="11.183" height="1.999"/>
	<polygon points="-74.379,-53.325 -72.609,-53.325 -72.179,-53.325 -70.169,-53.325 -76.583,-62.486 -78.221,-61.339 
		-74.01,-55.325 -75.78,-55.325 -78.221,-55.325 -76.949,-53.509 -75.837,-51.92 -71.221,-45.325 -69.582,-46.472 -74.198,-53.067 	
		"/>
</g>
<g>
	<rect x="15.255" y="-95.763" width="2" height="7.973"/>
	<rect x="-3.745" y="-76.849" width="7.973" height="2"/>
	<rect x="0.928" y="-88.115" transform="matrix(0.7071 0.7071 -0.7071 0.7071 -60.1602 -28.9909)" width="7.974" height="2"/>
	<rect x="26.437" y="-91.097" transform="matrix(0.7071 0.7071 -0.7071 0.7071 -53.561 -44.9149)" width="2" height="7.972"/>
	<path d="M45.767-69.973c-1.444-6.742-7.433-11.8-14.605-11.8c-2.185,0-4.258,0.47-6.126,1.313
		c-1.667-3.202-5.007-5.394-8.866-5.394c-5.522,0-10,4.477-10,9.999c0,2.46,0.899,4.702,2.373,6.442
		c-1.429,1.84-2.287,4.144-2.287,6.653c0,5.983,4.836,10.836,10.813,10.865v0.003h0.188v-2l-0.178-0.003
		c-4.864-0.023-8.822-4.001-8.822-8.865c0-4.89,3.978-8.868,8.867-8.868c0.15,0,0.299,0.012,0.447,0.022l0.148,0.01l1.314,0.085
		l0.597-1.175c2.225-4.372,6.644-7.089,11.532-7.089c6.062,0,11.382,4.298,12.649,10.219l0.318,1.483l1.514,0.094
		c3.708,0.23,6.612,3.319,6.612,7.03c0,3.878-3.144,7.035-7.017,7.057c-0.042-0.003-0.079-0.005-0.117-0.005l-0.866,0.005v2h0.819
		v-0.006c0.042,0.001,0.082,0.006,0.124,0.006c5.001,0,9.057-4.054,9.057-9.057C54.255-65.756,50.501-69.678,45.767-69.973z
		 M17.847-73.59c-0.241-0.016-0.48-0.036-0.725-0.036c-2.766,0-5.282,1.042-7.2,2.743c-1.092-1.367-1.753-3.09-1.753-4.971
		c0-4.41,3.589-7.999,8-7.999c3.091,0,5.76,1.773,7.091,4.345C20.962-78.068,19.082-76.02,17.847-73.59z"/>
	
		<rect x="15.677" y="-53.893" transform="matrix(-0.5736 -0.8191 0.8191 -0.5736 76.7934 -65.8137)" width="11.183" height="1.999"/>
	
		<rect x="33.651" y="-53.893" transform="matrix(-0.5736 -0.8191 0.8191 -0.5736 105.0789 -51.0905)" width="11.183" height="1.999"/>
	<polygon points="32.084,-48.887 33.854,-48.887 34.284,-48.887 36.294,-48.887 29.88,-58.048 28.242,-56.9 32.453,-50.887 
		30.683,-50.887 28.242,-50.887 29.514,-49.07 30.626,-47.481 35.242,-40.887 36.881,-42.033 32.265,-48.629 	"/>
</g>
<g>
	<path d="M147.604-72.931c-1.444-6.742-7.433-11.8-14.605-11.8c-1.799,0-3.522,0.32-5.118,0.904
		c-0.949-5.108-5.404-8.98-10.788-8.98c-0.413,0-0.819,0.027-1.222,0.071c0.744,1.112,1.179,2.448,1.179,3.886c0,3.865-3.134,7-7,7
		c-1.438,0-2.773-0.435-3.886-1.179c-0.044,0.401-0.071,0.809-0.071,1.222c0,3.712,1.845,6.987,4.661,8.979
		c-1.653,1.907-2.661,4.389-2.661,7.111c0,5.983,4.836,10.836,10.813,10.865v0.003h0.188v-2l-0.178-0.003
		c-4.864-0.023-8.822-4.001-8.822-8.865c0-4.89,3.978-8.868,8.867-8.868c0.15,0,0.299,0.012,0.447,0.022l0.148,0.01l1.314,0.085
		l0.597-1.175c2.225-4.372,6.644-7.089,11.532-7.089c6.062,0,11.382,4.298,12.649,10.219l0.318,1.483l1.514,0.094
		c3.708,0.23,6.612,3.319,6.612,7.03c0,3.878-3.144,7.035-7.017,7.057c-0.042-0.003-0.079-0.005-0.117-0.005l-0.866,0.005v2h0.819
		v-0.006c0.042,0.001,0.082,0.006,0.124,0.006c5.001,0,9.057-4.054,9.057-9.057C156.093-68.714,152.339-72.636,147.604-72.931z
		 M119.685-76.548c-0.241-0.016-0.48-0.036-0.725-0.036c-2.537,0-4.865,0.876-6.715,2.334c-2.012-1.294-3.487-3.354-3.976-5.776
		c0.582,0.117,1.178,0.177,1.78,0.177c4.963,0,9-4.037,9-9c0-0.603-0.06-1.198-0.177-1.78c3.733,0.753,6.629,3.824,7.133,7.641
		C123.295-81.546,121.08-79.29,119.685-76.548z"/>
	
		<rect x="117.513" y="-56.851" transform="matrix(-0.5736 -0.8191 0.8191 -0.5736 239.4708 12.947)" width="11.183" height="1.999"/>
	
		<rect x="135.488" y="-56.851" transform="matrix(-0.5736 -0.8191 0.8191 -0.5736 267.7563 27.6702)" width="11.183" height="1.999"/>
	<polygon points="133.921,-51.845 135.69,-51.845 136.121,-51.845 138.131,-51.845 131.717,-61.006 130.079,-59.858 134.29,-53.845 
		132.52,-53.845 130.079,-53.845 131.351,-52.028 132.463,-50.439 137.079,-43.845 138.718,-44.991 134.102,-51.587 	"/>
</g>
<g>
	<g>
		<path d="M-262.958,13.524c-1.596-7.445-8.207-13.029-16.127-13.029c-6.423,0-11.977,3.678-14.702,9.035
			c-0.266-0.018-0.53-0.04-0.8-0.04c-6.627,0-11.999,5.372-11.999,12c0,6.607,5.34,11.965,11.938,11.998v0.003h2.062v-2h-1.604
			l-0.447-0.003c-5.485-0.027-9.948-4.513-9.948-9.998c0-5.514,4.485-10,9.999-10c0.175,0,0.347,0.014,0.52,0.025l0.148,0.01
			l1.316,0.088l0.598-1.176c2.492-4.899,7.443-7.942,12.92-7.942c6.79,0,12.75,4.814,14.172,11.448l0.317,1.482l1.514,0.095
			c4.203,0.262,7.496,3.763,7.496,7.971c0,4.397-3.565,7.977-7.957,8c-0.05-0.003-0.093-0.005-0.137-0.007l-2.043,0.007h-2.863v2
			h4.863v-0.007c0.046,0.001,0.091,0.007,0.137,0.007c5.521,0,10-4.477,10-10C-253.586,18.181-257.73,13.85-262.958,13.524z"/>
	</g>
	<g>
		<circle cx="-288.086" cy="27.067" r="1.5"/>
	</g>
	<g>
		<circle cx="-284.086" cy="32.991" r="1.5"/>
	</g>
	<g>
		<circle cx="-276.086" cy="32.991" r="1.5"/>
	</g>
	<g>
		<circle cx="-280.086" cy="27.067" r="1.5"/>
	</g>
	<g>
		<circle cx="-272.086" cy="27.067" r="1.5"/>
	</g>
	<g>
		<circle cx="-288.086" cy="39.013" r="1.5"/>
	</g>
	<g>
		<circle cx="-280.086" cy="39.013" r="1.5"/>
	</g>
	<g>
		<circle cx="-272.086" cy="39.013" r="1.5"/>
	</g>
</g>
<g>
	<g>
		<rect x="-187.172" y="-1.953" width="2" height="7.973"/>
	</g>
	<g>
		<rect x="-206.172" y="16.961" width="7.973" height="2"/>
	</g>
	<g>
		<rect x="-201.499" y="5.694" transform="matrix(0.7071 0.7071 -0.7071 0.7071 -53.1162 141.6226)" width="7.974" height="2"/>
	</g>
	<g>
		<rect x="-175.99" y="2.712" transform="matrix(0.7071 0.7071 -0.7071 0.7071 -46.5171 125.6986)" width="2" height="7.972"/>
	</g>
	<g>
		<path d="M-156.66,23.837c-1.444-6.742-7.433-11.8-14.605-11.8c-2.185,0-4.258,0.47-6.127,1.313
			c-1.666-3.202-5.006-5.394-8.865-5.394c-5.522,0-10,4.477-10,9.999c0,2.46,0.898,4.702,2.373,6.442
			c-1.428,1.84-2.287,4.144-2.287,6.653c0,5.983,4.836,10.836,10.813,10.865v0.003h1.188v-2h-0.721l-0.457-0.003
			c-4.864-0.023-8.822-4.001-8.822-8.865c0-4.89,3.978-8.868,8.867-8.868c0.15,0,0.299,0.012,0.447,0.022l0.148,0.01l1.314,0.085
			l0.597-1.175c2.225-4.372,6.644-7.089,11.532-7.089c6.062,0,11.382,4.298,12.649,10.219l0.318,1.483l1.514,0.094
			c3.708,0.23,6.612,3.319,6.612,7.03c0,3.878-3.144,7.035-7.017,7.057c-0.042-0.003-0.079-0.005-0.117-0.005l-2.047,0.005h-1.819v2
			h3.819v-0.006c0.042,0.001,0.082,0.006,0.124,0.006c5.001,0,9.057-4.054,9.057-9.057
			C-148.172,28.054-151.926,24.132-156.66,23.837z M-184.58,20.22c-0.241-0.016-0.48-0.036-0.725-0.036
			c-2.766,0-5.281,1.042-7.2,2.743c-1.092-1.367-1.753-3.09-1.753-4.971c0-4.41,3.589-7.999,8-7.999c3.092,0,5.76,1.773,7.092,4.345
			C-181.465,15.741-183.344,17.79-184.58,20.22z"/>
	</g>
	<g>
		<circle cx="-180.683" cy="35.431" r="1.5"/>
	</g>
	<g>
		<circle cx="-176.683" cy="41.431" r="1.5"/>
	</g>
	<g>
		<circle cx="-168.683" cy="41.431" r="1.5"/>
	</g>
	<g>
		<circle cx="-172.683" cy="35.431" r="1.5"/>
	</g>
	<g>
		<circle cx="-164.683" cy="35.431" r="1.5"/>
	</g>
	<g>
		<circle cx="-180.683" cy="47.452" r="1.5"/>
	</g>
	<g>
		<circle cx="-172.683" cy="47.452" r="1.5"/>
	</g>
	<g>
		<circle cx="-164.683" cy="47.452" r="1.5"/>
	</g>
</g>
<g>
	<g>
		<path d="M-60.709,19.881c-1.444-6.742-7.433-11.8-14.605-11.8c-1.799,0-3.521,0.32-5.118,0.904
			c-0.949-5.108-5.404-8.98-10.788-8.98c-0.413,0-0.819,0.027-1.222,0.071c0.744,1.112,1.179,2.448,1.179,3.886c0,3.865-3.134,7-7,7
			c-1.438,0-2.773-0.435-3.886-1.179c-0.044,0.401-0.071,0.809-0.071,1.222c0,3.712,1.845,6.987,4.661,8.979
			c-1.653,1.907-2.661,4.389-2.661,7.111c0,5.983,4.836,10.836,10.813,10.865v0.003h1.188v-2h-0.721l-0.457-0.003
			c-4.864-0.023-8.822-4.001-8.822-8.865c0-4.89,3.978-8.868,8.867-8.868c0.15,0,0.299,0.012,0.447,0.022l0.148,0.01l1.314,0.085
			l0.597-1.175c2.225-4.372,6.644-7.089,11.532-7.089c6.062,0,11.382,4.298,12.649,10.219l0.318,1.483l1.514,0.094
			c3.708,0.23,6.612,3.319,6.612,7.03c0,3.878-3.144,7.035-7.017,7.057c-0.042-0.003-0.079-0.005-0.117-0.005l-2.047,0.005h-1.819v2
			h3.819v-0.006c0.042,0.001,0.082,0.006,0.124,0.006c5.001,0,9.057-4.054,9.057-9.057C-52.221,24.098-55.975,20.176-60.709,19.881z
			 M-88.629,16.264c-0.241-0.016-0.48-0.036-0.725-0.036c-2.537,0-4.865,0.876-6.715,2.334c-2.012-1.294-3.486-3.354-3.976-5.776
			c0.582,0.117,1.178,0.177,1.78,0.177c4.963,0,9-4.037,9-9c0-0.603-0.06-1.198-0.177-1.78c3.733,0.753,6.629,3.824,7.134,7.64
			C-85.02,11.266-87.234,13.521-88.629,16.264z"/>
	</g>
	<g>
		<circle cx="-84.721" cy="31.474" r="1.5"/>
	</g>
	<g>
		<circle cx="-80.721" cy="37.474" r="1.5"/>
	</g>
	<g>
		<circle cx="-72.721" cy="37.474" r="1.5"/>
	</g>
	<g>
		<circle cx="-76.721" cy="31.474" r="1.5"/>
	</g>
	<g>
		<circle cx="-68.721" cy="31.474" r="1.5"/>
	</g>
	<g>
		<circle cx="-84.721" cy="43.495" r="1.5"/>
	</g>
	<g>
		<circle cx="-76.721" cy="43.495" r="1.5"/>
	</g>
	<g>
		<circle cx="-68.721" cy="43.495" r="1.5"/>
	</g>
</g>
<g>
	<path d="M250.456-79.005c-1.596-7.445-8.207-13.029-16.127-13.029c-6.423,0-11.977,3.678-14.702,9.035
		c-0.266-0.018-0.53-0.04-0.8-0.04c-6.627,0-11.999,5.372-11.999,12c0,6.607,5.34,11.965,11.938,11.998v0.003h2.062v-2h-1.604
		l-0.447-0.003c-5.485-0.027-9.948-4.513-9.948-9.998c0-5.514,4.485-10,9.999-10c0.175,0,0.347,0.014,0.52,0.025l0.148,0.01
		l1.316,0.088l0.598-1.176c2.492-4.899,7.443-7.942,12.92-7.942c6.79,0,12.75,4.814,14.172,11.448l0.317,1.482l1.514,0.095
		c4.203,0.262,7.496,3.763,7.496,7.971c0,4.397-3.565,7.977-7.957,8c-0.05-0.003-0.093-0.005-0.137-0.007l-2.043,0.007h-2.863v2
		h4.863v-0.007c0.046,0.001,0.091,0.007,0.137,0.007c5.521,0,10-4.477,10-10C259.828-74.349,255.684-78.68,250.456-79.005z"/>
	<circle cx="224.828" cy="-51.534" r="1.5"/>
	<circle cx="232.828" cy="-45.534" r="1.5"/>
	<circle cx="240.828" cy="-49.534" r="1.5"/>
	<rect x="223.828" y="-68.01" width="2" height="11.976"/>
	<polygon points="233.828,-50.069 233.828,-52.01 233.828,-64.01 231.828,-64.01 231.828,-52.01 231.828,-50.069 231.828,-50.034 
		233.828,-50.034 	"/>
	<polygon points="241.828,-54.257 241.828,-56.01 241.828,-68.01 239.828,-68.01 239.828,-56.01 239.828,-54.257 239.828,-54.034 
		241.828,-54.034 	"/>
</g>
<g>
	<rect x="-497.921" y="-7.392" width="2" height="7.973"/>
	<rect x="-516.921" y="11.522" width="7.973" height="2"/>
	<rect x="-512.248" y="0.256" transform="matrix(0.7071 0.7071 -0.7071 0.7071 -147.9781 359.7625)" width="7.974" height="2"/>
	<rect x="-486.739" y="-2.726" transform="matrix(0.7071 0.7071 -0.7071 0.7071 -141.379 343.8385)" width="2" height="7.972"/>
	<path d="M-467.409,18.398c-1.444-6.742-7.433-11.8-14.605-11.8c-2.185,0-4.258,0.47-6.126,1.313
		c-1.667-3.202-5.007-5.394-8.866-5.394c-5.522,0-10,4.477-10,9.999c0,2.46,0.899,4.702,2.373,6.442
		c-1.429,1.84-2.287,4.144-2.287,6.653c0,5.983,4.836,10.836,10.813,10.865v0.003h1.188v-2h-0.721l-0.457-0.003
		c-4.864-0.023-8.822-4.001-8.822-8.865c0-4.89,3.978-8.868,8.867-8.868c0.15,0,0.299,0.012,0.447,0.022l0.148,0.01l1.314,0.085
		l0.597-1.175c2.225-4.372,6.644-7.089,11.532-7.089c6.062,0,11.382,4.298,12.649,10.219l0.318,1.483l1.514,0.094
		c3.708,0.23,6.612,3.319,6.612,7.03c0,3.878-3.144,7.035-7.017,7.057c-0.042-0.003-0.079-0.005-0.117-0.005l-2.047,0.005h-0.819v2
		h2.819v-0.006c0.042,0.001,0.082,0.006,0.124,0.006c5.001,0,9.057-4.054,9.057-9.057
		C-458.921,22.615-462.675,18.693-467.409,18.398z M-495.329,14.781c-0.241-0.016-0.48-0.036-0.725-0.036
		c-2.766,0-5.282,1.041-7.2,2.743c-1.092-1.366-1.753-3.09-1.753-4.971c0-4.41,3.589-7.999,8-7.999c3.091,0,5.76,1.773,7.091,4.345
		C-492.214,10.304-494.094,12.352-495.329,14.781z"/>
	<circle cx="-490.931" cy="44.969" r="1.5"/>
	<circle cx="-482.931" cy="50.969" r="1.5"/>
	<circle cx="-474.931" cy="46.969" r="1.5"/>
	<rect x="-491.931" y="28.493" width="2" height="11.976"/>
	<polygon points="-481.931,46.434 -481.931,44.493 -481.931,32.493 -483.931,32.493 -483.931,44.493 -483.931,46.434 
		-483.931,46.469 -481.931,46.469 	"/>
	<polygon points="-473.931,42.246 -473.931,40.493 -473.931,28.493 -475.931,28.493 -475.931,40.493 -475.931,42.246 
		-475.931,42.469 -473.931,42.469 	"/>
</g>
<g>
	<path d="M-366.807,15.4c-1.444-6.742-7.433-11.8-14.605-11.8c-1.799,0-3.522,0.32-5.118,0.904c-0.949-5.108-5.404-8.98-10.788-8.98
		c-0.413,0-0.819,0.027-1.222,0.071c0.744,1.112,1.179,2.448,1.179,3.886c0,3.865-3.134,7-7,7c-1.438,0-2.773-0.435-3.886-1.179
		c-0.044,0.401-0.071,0.809-0.071,1.222c0,3.712,1.845,6.987,4.661,8.979c-1.653,1.907-2.661,4.389-2.661,7.111
		c0,5.983,4.836,10.836,10.813,10.865v0.003h1.188v-2h-0.721l-0.457-0.003c-4.864-0.023-8.822-4.001-8.822-8.865
		c0-4.89,3.978-8.868,8.867-8.868c0.15,0,0.299,0.012,0.447,0.022l0.148,0.01l1.314,0.085l0.597-1.175
		c2.225-4.372,6.644-7.089,11.532-7.089c6.062,0,11.382,4.298,12.649,10.219l0.318,1.483l1.514,0.094
		c3.708,0.23,6.612,3.319,6.612,7.03c0,3.878-3.144,7.035-7.017,7.057c-0.042-0.003-0.079-0.005-0.117-0.005l-2.047,0.005h-0.819v2
		h2.819v-0.006c0.042,0.001,0.082,0.006,0.124,0.006c5.001,0,9.057-4.054,9.057-9.057C-358.318,19.617-362.072,15.695-366.807,15.4z
		 M-394.727,11.783c-0.241-0.016-0.48-0.036-0.725-0.036c-2.537,0-4.865,0.876-6.715,2.334c-2.012-1.294-3.487-3.354-3.976-5.776
		c0.582,0.117,1.178,0.177,1.78,0.177c4.963,0,9-4.037,9-9c0-0.603-0.06-1.198-0.177-1.78c3.733,0.753,6.629,3.824,7.133,7.64
		C-391.116,6.785-393.331,9.04-394.727,11.783z"/>
	<circle cx="-390.318" cy="41.975" r="1.5"/>
	<circle cx="-382.318" cy="47.975" r="1.5"/>
	<circle cx="-374.318" cy="43.975" r="1.5"/>
	<rect x="-391.318" y="25.499" width="2" height="11.976"/>
	<polygon points="-381.318,43.439 -381.318,41.499 -381.318,29.499 -383.318,29.499 -383.318,41.499 -383.318,43.439 
		-383.318,43.475 -381.318,43.475 	"/>
	<polygon points="-373.318,39.252 -373.318,37.499 -373.318,25.499 -375.318,25.499 -375.318,37.499 -375.318,39.252 
		-375.318,39.475 -373.318,39.475 	"/>
</g>
<g>
	<rect x="-514.921" y="119.841" width="56" height="2"/>
	<rect x="-510.921" y="125.841" width="50" height="2"/>
	<rect x="-504.921" y="131.841" width="36" height="2"/>
	<rect x="-512.921" y="113.841" width="52" height="2"/>
	<path d="M-501.047,105.836c0.175,0,0.347,0.014,0.519,0.025l0.149,0.01l1.316,0.088l0.598-1.176
		c2.493-4.899,7.443-7.942,12.92-7.942c6.79,0,12.75,4.814,14.171,11.448l0.318,1.482l1.514,0.095
		c1.207,0.075,2.335,0.425,3.336,0.975h3.286c-1.678-1.703-3.957-2.813-6.498-2.971c-1.596-7.445-8.207-13.029-16.127-13.029
		c-6.423,0-11.977,3.678-14.702,9.035c-0.266-0.018-0.53-0.04-0.8-0.04c-4.843,0-9.004,2.874-10.9,7.005h2.251
		C-507.965,107.854-504.74,105.836-501.047,105.836z"/>
</g>
<g>
	<rect x="-393.818" y="92.326" width="2" height="7.973"/>
	<rect x="-412.818" y="111.24" width="7.973" height="2"/>
	<rect x="-408.145" y="99.974" transform="matrix(0.7071 0.7071 -0.7071 0.7071 -46.9761 315.3575)" width="7.974" height="2"/>
	<rect x="-382.637" y="96.992" transform="matrix(0.7071 0.7071 -0.7071 0.7071 -40.3769 299.4335)" width="2" height="7.972"/>
	<rect x="-403.818" y="126.2" width="50" height="2"/>
	<rect x="-399.818" y="132.2" width="44" height="2"/>
	<rect x="-393.818" y="137.2" width="30" height="2"/>
	<rect x="-401.818" y="120.2" width="46" height="2"/>
	<path d="M-400.91,118.2h0.771h1.927h1.012c1.472-1.087,3.283-1.737,5.249-1.737c0.15,0,0.299,0.012,0.447,0.022l0.148,0.01
		l1.314,0.085l0.597-1.175c2.225-4.372,6.644-7.089,11.532-7.089c5.945,0,11.168,4.139,12.563,9.884h2.043v-0.084
		c-1.444-6.742-7.433-11.8-14.605-11.8c-2.185,0-4.258,0.47-6.126,1.313c-1.667-3.202-5.007-5.394-8.866-5.394
		c-5.522,0-10,4.477-10,9.999C-402.904,114.477-402.156,116.535-400.91,118.2z M-392.904,104.236c3.091,0,5.76,1.773,7.091,4.345
		c-2.298,1.44-4.178,3.488-5.413,5.918c-0.241-0.016-0.48-0.036-0.725-0.036c-2.764,0-5.274,1.045-7.189,2.745
		c-1.097-1.366-1.764-3.089-1.764-4.973C-400.904,107.825-397.315,104.236-392.904,104.236z"/>
</g>
<g>
	<rect x="-305.074" y="122.763" width="50" height="2"/>
	<rect x="-301.074" y="128.763" width="44" height="2"/>
	<rect x="-295.074" y="133.763" width="30" height="2"/>
	<rect x="-303.074" y="116.763" width="46" height="2"/>
	<path d="M-301.432,114.763h0.037h1.884h1.055c1.472-1.087,3.283-1.737,5.249-1.737c0.15,0,0.299,0.012,0.447,0.022l0.148,0.01
		l1.314,0.085l0.597-1.175c2.225-4.372,6.644-7.089,11.532-7.089c5.945,0,11.168,4.139,12.563,9.884h2.043v-0.084
		c-1.444-6.742-7.433-11.8-14.605-11.8c-1.799,0-3.521,0.32-5.117,0.903c-0.945-5.111-5.402-8.987-10.789-8.987
		c-0.413,0-0.819,0.027-1.222,0.071c0.744,1.112,1.179,2.448,1.179,3.886c0,3.865-3.134,7-7,7c-1.438,0-2.773-0.435-3.886-1.179
		c-0.044,0.401-0.071,0.809-0.071,1.222C-306.074,109.499-304.238,112.77-301.432,114.763z M-302.117,107.752c4.963,0,9-4.037,9-9
		c0-0.603-0.06-1.198-0.177-1.78c3.735,0.753,6.633,3.828,7.134,7.647c-2.712,1.443-4.927,3.699-6.322,6.442
		c-0.241-0.016-0.48-0.036-0.725-0.036c-2.534,0-4.855,0.879-6.701,2.335c-2.02-1.293-3.5-3.356-3.989-5.785
		C-303.315,107.692-302.72,107.752-302.117,107.752z"/>
</g>
<g>
	<path d="M-173.183,125.776h-19.474l-0.578-0.003c-5.485-0.027-9.948-4.513-9.948-9.998c0-5.514,4.485-10,9.999-10
		c0.175,0,0.347,0.014,0.519,0.025l0.149,0.01l1.316,0.088l0.598-1.176c2.493-4.899,7.443-7.942,12.92-7.942
		c6.79,0,12.75,4.814,14.171,11.448l0.318,1.482l1.514,0.095c1.822,0.113,3.463,0.845,4.746,1.971h2.732
		c-1.707-2.262-4.348-3.78-7.354-3.967c-1.596-7.445-8.207-13.029-16.127-13.029c-6.423,0-11.977,3.678-14.702,9.035
		c-0.266-0.018-0.53-0.04-0.8-0.04c-6.627,0-11.999,5.372-11.999,12c0,6.607,5.34,11.965,11.938,11.998v0.003h20.062
		c2.205,0,4,1.794,4,4s-1.795,4-4,4v2c3.314,0,6-2.686,6-6C-167.183,128.463-169.868,125.776-173.183,125.776z"/>
	<path d="M-169.183,121.776h-15.988v2h15.988c3.314,0,6-2.687,6-6c0-3.314-2.686-6-6-6v2c2.205,0,4,1.794,4,4
		S-166.978,121.776-169.183,121.776z"/>
	<path d="M-156.183,115.776c1.654,0,3,1.346,3,3s-1.346,3-3,3c-0.043,0-0.083-0.011-0.126-0.013h-4.862
		c0.003,0.005,0.009,0.008,0.012,0.013h-0.023v2h5.5v-0.051c2.523-0.254,4.5-2.358,4.5-4.949c0-2.762-2.238-5-5-5V115.776z"/>
	<path d="M-152.183,125.776h-13v2h9.022c-0.004,0.005-0.008,0.008-0.011,0.013h3.862c0.043-0.002,0.083-0.013,0.126-0.013
		c1.654,0,3,1.346,3,3s-1.346,3-3,3v2c2.762,0,5-2.238,5-5S-149.421,125.776-152.183,125.776z"/>
	<rect x="-191.183" y="121.776" width="4" height="2"/>
</g>
<path d="M-380.744-273.327c6.95,1.305,12.226,7.419,12.226,14.742c0,8.272-6.729,15.002-15,15.002
	c-6.79,0-12.531-4.49-14.366-10.728c1.398,0.461,2.867,0.698,4.366,0.698c7.72,0,14-6.281,14-14.001
	C-379.519-269.598-379.942-271.542-380.744-273.327 M-383.519-275.584c-0.338,0-0.668,0.031-1,0.051c1.861,2.113,3,4.881,3,7.92
	c0,6.627-5.372,12.001-12,12.001c-2.599,0-4.998-0.835-6.963-2.239c0.387,9.047,7.821,16.269,16.963,16.269
	c9.39,0,17-7.612,17-17.002S-374.129-275.584-383.519-275.584L-383.519-275.584z"/>
<g>
	<path d="M-486.914-270.589c-7.18,0-13,5.819-13,12.999c0,7.181,5.82,13.002,13,13.002s13-5.821,13-13.002
		C-473.914-264.77-479.734-270.589-486.914-270.589z M-486.914-246.588c-6.065,0-11-4.936-11-11.002c0-6.064,4.935-10.999,11-10.999
		s11,4.935,11,10.999C-475.914-251.523-480.849-246.588-486.914-246.588z"/>
	<rect x="-487.921" y="-283.583" width="2" height="10"/>
	<rect x="-487.921" y="-241.583" width="2" height="10"/>
	<rect x="-512.914" y="-258.583" width="9.993" height="2"/>
	<rect x="-470.921" y="-258.583" width="10.007" height="2"/>
	<rect x="-473.221" y="-277.497" transform="matrix(0.7071 0.7071 -0.7071 0.7071 -330.8503 254.1582)" width="2" height="10.409"/>
	
		<rect x="-502.63" y="-248.088" transform="matrix(-0.7071 -0.7071 0.7071 -0.7071 -684.5913 -769.3336)" width="2" height="10.41"/>
	<rect x="-506.83" y="-273.287" transform="matrix(0.7071 0.7071 -0.7071 0.7071 -339.4591 274.9516)" width="10.409" height="2"/>
	
		<rect x="-477.422" y="-243.878" transform="matrix(-0.7072 -0.7071 0.7071 -0.7072 -634.4171 -748.5164)" width="10.41" height="2"/>
</g>
<g>
	<rect x="-88.748" y="87.278" width="2" height="7.973"/>
	<rect x="-107.721" y="106.265" width="7.973" height="2"/>
	<rect x="-102.995" y="95.046" transform="matrix(0.7071 0.7071 -0.7071 0.7071 38.916 98.1403)" width="7.974" height="2"/>
	<rect x="-77.486" y="92.064" transform="matrix(0.7071 0.7071 -0.7071 0.7071 45.5151 82.2163)" width="2" height="7.972"/>
	<path d="M-73.721,129.278l0.005-0.007h-12.536l-0.594-0.003c-4.864-0.024-8.822-4.001-8.822-8.865c0-4.89,3.978-8.868,8.867-8.868
		c0.15,0,0.299,0.012,0.447,0.021l0.148,0.011l1.314,0.085l0.597-1.174c2.225-4.373,6.644-7.09,11.532-7.09
		c5.916,0,11.114,4.099,12.54,9.8h2.065c-1.444-6.742-7.433-11.8-14.605-11.8c-2.185,0-4.258,0.47-6.126,1.313
		c-1.667-3.202-5.007-5.394-8.866-5.394c-5.522,0-10,4.477-10,9.999c0,2.46,0.899,4.702,2.373,6.442
		c-1.429,1.84-2.287,4.144-2.287,6.653c0,5.983,4.836,10.836,10.813,10.865v0.003h13.135v0.007c2.205,0,4,1.794,4,4s-1.795,4-4,4v2
		c3.314,0,6-2.686,6-6C-67.721,131.965-70.406,129.278-73.721,129.278z M-87.754,99.309c3.091,0,5.76,1.773,7.091,4.345
		c-2.298,1.439-4.178,3.488-5.413,5.918c-0.241-0.016-0.48-0.036-0.725-0.036c-2.766,0-5.282,1.042-7.2,2.743
		c-1.092-1.367-1.753-3.09-1.753-4.971C-95.754,102.897-92.165,99.309-87.754,99.309z"/>
	<path d="M-69.721,125.278h-9.988v2h9.988c3.314,0,6-2.687,6-6c0-3.314-2.686-6-6-6v2c2.205,0,4,1.794,4,4
		S-67.516,125.278-69.721,125.278z"/>
	<path d="M-61.697,125.278h-0.023v2h5.5v-0.051c2.523-0.254,4.5-2.358,4.5-4.949c0-2.762-2.238-5-5-5v2c1.654,0,3,1.346,3,3
		s-1.346,3-3,3c-0.043,0-0.083-0.011-0.126-0.013h-4.862C-61.706,125.271-61.7,125.274-61.697,125.278z"/>
	<path d="M-52.721,129.278h-13v2h9.022c-0.004,0.004-0.008,0.008-0.011,0.013h3.862c0.043-0.002,0.083-0.013,0.126-0.013
		c1.654,0,3,1.346,3,3s-1.346,3-3,3v2c2.762,0,5-2.238,5-5S-49.959,129.278-52.721,129.278z"/>
	<rect x="-85.721" y="125.278" width="4" height="2"/>
</g>
<g>
	<path d="M26.241,127.272l0.005-0.007H13.71l-0.594-0.003c-4.864-0.024-8.822-4.001-8.822-8.865c0-4.89,3.978-8.868,8.867-8.868
		c0.15,0,0.299,0.012,0.447,0.021l0.148,0.011l1.314,0.085l0.597-1.174c2.225-4.373,6.644-7.09,11.532-7.09
		c5.916,0,11.114,4.099,12.54,9.8h2.065c-1.444-6.742-7.433-11.8-14.605-11.8c-1.806,0-3.536,0.322-5.138,0.91
		c-0.938-5.123-5.4-9.01-10.794-9.01c-0.413,0-0.819,0.027-1.222,0.071c0.744,1.112,1.179,2.448,1.179,3.886c0,3.865-3.134,7-7,7
		c-1.438,0-2.773-0.435-3.886-1.179c-0.044,0.401-0.071,0.809-0.071,1.222c0,3.725,1.858,7.009,4.69,8.998
		c-1.655,1.907-2.665,4.392-2.665,7.116c0,5.983,4.836,10.836,10.813,10.865v0.003h13.135v0.007c2.205,0,4,1.794,4,4s-1.795,4-4,4v2
		c3.314,0,6-2.686,6-6C32.241,129.959,29.556,127.272,26.241,127.272z M2.445,104.063c0.582,0.117,1.178,0.177,1.78,0.177
		c4.963,0,9-4.037,9-9c0-0.603-0.06-1.198-0.177-1.78c3.744,0.755,6.646,3.842,7.138,7.674c-2.702,1.444-4.909,3.696-6.301,6.432
		c-0.241-0.016-0.48-0.036-0.725-0.036c-2.535,0-4.861,0.875-6.71,2.33C4.423,108.567,2.937,106.499,2.445,104.063z"/>
	<path d="M30.241,123.272h-9.988v2h9.988c3.314,0,6-2.687,6-6c0-3.314-2.686-6-6-6v2c2.205,0,4,1.794,4,4
		S32.446,123.272,30.241,123.272z"/>
	<path d="M38.265,123.272h-0.023v2h5.5v-0.051c2.523-0.254,4.5-2.358,4.5-4.949c0-2.762-2.238-5-5-5v2c1.654,0,3,1.346,3,3
		s-1.346,3-3,3c-0.043,0-0.083-0.011-0.126-0.013h-4.862C38.256,123.265,38.262,123.269,38.265,123.272z"/>
	<path d="M47.241,127.272h-13v2h9.022c-0.004,0.004-0.008,0.008-0.011,0.013h3.862c0.043-0.002,0.083-0.013,0.126-0.013
		c1.654,0,3,1.346,3,3s-1.346,3-3,3v2c2.762,0,5-2.238,5-5S50.003,127.272,47.241,127.272z"/>
	<rect x="14.241" y="123.272" width="4" height="2"/>
</g>
<g>
	<rect x="127.134" y="89.841" width="2" height="10"/>
	<rect x="102.141" y="114.841" width="9.993" height="2"/>
	<rect x="141.834" y="95.927" transform="matrix(0.7071 0.7071 -0.7071 0.7071 113.3456 -71.3778)" width="2" height="10.409"/>
	<rect x="108.225" y="100.136" transform="matrix(0.7071 0.7071 -0.7071 0.7071 104.7368 -50.5844)" width="10.409" height="2"/>
	<path d="M132.134,129.841h-24v2h24c2.205,0,4,1.794,4,4s-1.795,4-4,4v2c3.314,0,6-2.686,6-6
		C138.134,132.527,135.448,129.841,132.134,129.841z"/>
	<path d="M144.157,125.841h-0.023v2h5.5v-0.051c2.523-0.254,4.5-2.358,4.5-4.949c0-2.762-2.238-5-5-5v2c1.654,0,3,1.346,3,3
		s-1.346,3-3,3c-0.043,0-0.083-0.011-0.126-0.013h-4.862C144.148,125.833,144.154,125.837,144.157,125.841z"/>
	<path d="M153.134,129.841h-13v2h9.022c-0.004,0.004-0.008,0.008-0.011,0.013h3.862c0.043-0.002,0.083-0.013,0.126-0.013
		c1.654,0,3,1.346,3,3s-1.346,3-3,3v2c2.762,0,5-2.238,5-5S155.896,129.841,153.134,129.841z"/>
	<path d="M119.843,125.841h-11.709v2h12.012h0.822h15.166c3.314,0,6-2.687,6-6c0-3.314-2.686-6-6-6v2c2.205,0,4,1.794,4,4
		s-1.795,4-4,4h-12.538c-3.802-1.734-6.455-5.563-6.455-10.007c0-6.064,4.935-10.999,11-10.999c5.384,0,9.868,3.891,10.81,9.006
		h2.021c-0.961-6.23-6.331-11.006-12.831-11.006c-7.18,0-13,5.819-13,12.999C115.141,119.859,116.971,123.456,119.843,125.841z"/>
</g>
<g>
	<path d="M232.36,123.284h-24v2h24c2.205,0,4,1.794,4,4s-1.795,4-4,4v2c3.314,0,6-2.686,6-6
		C238.36,125.971,235.675,123.284,232.36,123.284z"/>
	<path d="M249.86,121.284v-0.051c2.523-0.254,4.5-2.358,4.5-4.949c0-2.762-2.238-5-5-5v2c1.654,0,3,1.346,3,3s-1.346,3-3,3
		c-0.043,0-0.083-0.011-0.126-0.013h-4.862c0.004,0.005,0.009,0.009,0.012,0.013h-0.023v2H249.86z"/>
	<path d="M253.36,123.284h-13v2h9.022c-0.003,0.004-0.007,0.008-0.011,0.013h3.862c0.043-0.002,0.083-0.013,0.126-0.013
		c1.654,0,3,1.346,3,3s-1.346,3-3,3v2c2.762,0,5-2.238,5-5S256.122,123.284,253.36,123.284z"/>
	<path d="M221.194,121.284h15.166c3.314,0,6-2.687,6-6c0-3.314-2.686-6-6-6v2c2.205,0,4,1.794,4,4s-1.795,4-4,4h-12.586
		c-2.596-1.188-4.658-3.339-5.69-6.034c0.849,0.204,1.724,0.309,2.612,0.309c6.168,0,11.187-5.019,11.187-11.188
		c0-1.276-0.22-2.532-0.64-3.717c4.046,1.102,7.168,4.459,7.937,8.63h2.018c-0.964-6.237-6.338-11.016-12.846-11.016
		c-0.259,0-0.511,0.024-0.766,0.039c1.425,1.618,2.297,3.737,2.297,6.063c0,5.072-4.112,9.188-9.187,9.188
		c-1.988,0-3.826-0.641-5.33-1.715c0.162,3.801,1.962,7.165,4.699,9.44H208.36v2h12.012H221.194z"/>
</g>
<g>
	<path d="M-487.421,208.478h-20c-1.103,0-2-0.897-2-2s0.897-2,2-2h3.445h0.555v-2h-4c-2.209,0-4,1.791-4,4s1.791,4,4,4h20
		c2.205,0,4,1.794,4,4s-1.795,4-4,4v2c3.314,0,6-2.686,6-6C-481.421,211.164-484.106,208.478-487.421,208.478z"/>
	<path d="M-485.421,192.478v2c2.205,0,4,1.794,4,4s-1.795,4-4,4h-15.988v2h15.988c3.314,0,6-2.687,6-6
		C-479.421,195.163-482.106,192.478-485.421,192.478z"/>
	<path d="M-479.421,204.478v2h5.5v-0.051c2.523-0.254,4.5-2.358,4.5-4.949c0-2.762-2.238-5-5-5v2c1.654,0,3,1.346,3,3s-1.346,3-3,3
		c-0.043,0-0.083-0.011-0.126-0.013h-4.862c0.003,0.005,0.009,0.009,0.012,0.013H-479.421z"/>
	<path d="M-468.421,208.478h-11v2h7.022c-0.004,0.004-0.008,0.008-0.011,0.013h3.862c0.043-0.002,0.083-0.013,0.126-0.013
		c1.654,0,3,1.346,3,3s-1.346,3-3,3v2c2.762,0,5-2.238,5-5S-465.659,208.478-468.421,208.478z"/>
</g>
<path d="M48.871,194.824v-0.038H10.495c-1.103,0-2-0.897-2-2s0.897-2,2-2h33c2.762,0,5-2.238,5-5s-2.238-5-5-5H5.62v0.008
	c-0.042-0.001-0.083-0.008-0.125-0.008c-2.762,0-5,2.238-5,5s2.238,5,5,5v-2c-1.654,0-3-1.346-3-3s1.346-3,3-3H5.62h3.853h34.022
	c1.654,0,3,1.346,3,3s-1.346,3-3,3h-33c-2.209,0-4,1.791-4,4s1.791,4,4,4h38c1.103,0,2,0.897,2,2s-0.897,2-2,2h-32
	c-2.209,0-4,1.791-4,4s1.791,4,4,4h22c1.103,0,2,0.897,2,2s-0.897,2-2,2h-24.01v0.001c-2.204,0.006-3.99,1.793-3.99,3.999
	s1.786,3.993,3.99,3.999v0.001h12.01c1.103,0,2,0.897,2,2s-0.897,2-2,2h-2c-2.209,0-4,1.791-4,4s1.791,4,4,4v-2
	c-1.103,0-2-0.897-2-2s0.897-2,2-2h2c2.209,0,4-1.791,4-4s-1.791-4-4-4h-12c-1.103,0-2-0.897-2-2s0.897-2,2-2h24
	c2.209,0,4-1.791,4-4c0-2.152-1.704-3.895-3.834-3.983v-0.017H16.495c-1.103,0-2-0.897-2-2s0.897-2,2-2h32c2.209,0,4-1.791,4-4
	C52.495,196.706,50.901,195.017,48.871,194.824z"/>
<path d="M234.286,185.502v-2.024h-2v2.024c-13.01,0.513-23.462,10.965-23.975,23.976h1.674c1.14-1.222,2.748-2,4.551-2
	c2.26,0,4.233,1.203,5.331,3h1.838c1.098-1.797,3.071-3,5.331-3c2.204,0,4.137,1.144,5.25,2.866v15.134c0,2.21,1.791,4,4,4
	s4-1.79,4-4h-2c0,1.103-0.897,2-2,2s-2-0.897-2-2v-15.134c1.113-1.723,3.046-2.866,5.25-2.866c2.26,0,4.233,1.203,5.331,3h1.838
	c1.098-1.797,3.071-3,5.331-3c1.803,0,3.411,0.778,4.551,2h1.674C257.748,196.467,247.296,186.015,234.286,185.502z
	 M252.036,205.478c-2.496,0-4.736,1.114-6.25,2.87c-1.514-1.756-3.754-2.87-6.25-2.87s-4.736,1.114-6.25,2.87
	c-1.514-1.756-3.754-2.87-6.25-2.87s-4.736,1.114-6.25,2.87c-1.514-1.756-3.755-2.87-6.25-2.87c-1.402,0-2.731,0.351-3.897,0.975
	c1.909-10.769,11.339-18.975,22.647-18.975s20.738,8.206,22.647,18.975C254.768,205.828,253.438,205.478,252.036,205.478z"/>
<g>
	<path d="M-171.009,309.79v-17.105c0-2.762-2.238-5-5-5s-5,2.238-5,5v17.105c-1.236,1.263-2,2.988-2,4.895c0,3.866,3.134,7,7,7
		s7-3.134,7-7C-169.009,312.778-169.772,311.053-171.009,309.79z M-176.009,319.685c-2.757,0-5-2.243-5-5
		c0-1.313,0.508-2.554,1.429-3.495l0.571-0.583v-0.816v-17.105c0-1.654,1.346-3,3-3s3,1.346,3,3v17.105v0.816l0.571,0.583
		c0.921,0.941,1.429,2.183,1.429,3.495C-171.009,317.441-173.252,319.685-176.009,319.685z"/>
	<path d="M-175.009,311.86v-15.176h-2v15.176c-1.167,0.413-2.008,1.516-2.008,2.824c0,1.662,1.347,3.008,3.008,3.008
		c1.662,0,3.008-1.346,3.008-3.008C-173.001,313.376-173.841,312.273-175.009,311.86z M-176.009,315.692
		c-0.556,0-1.008-0.452-1.008-1.008s0.452-1.008,1.008-1.008s1.008,0.452,1.008,1.008S-175.453,315.692-176.009,315.692z"/>
</g>
<g>
	<path d="M-71.221,309.79v-17.105c0-2.762-2.238-5-5-5s-5,2.238-5,5v17.105c-1.236,1.263-2,2.988-2,4.895c0,3.866,3.134,7,7,7
		s7-3.134,7-7C-69.221,312.778-69.984,311.053-71.221,309.79z M-76.221,319.685c-2.757,0-5-2.243-5-5
		c0-1.313,0.508-2.554,1.429-3.495l0.571-0.583v-0.816v-17.105c0-1.654,1.346-3,3-3s3,1.346,3,3v17.105v0.816l0.571,0.583
		c0.921,0.941,1.429,2.183,1.429,3.495C-71.221,317.441-73.464,319.685-76.221,319.685z"/>
	<path d="M-75.221,311.86v-20.176h-2v20.176c-1.167,0.413-2.008,1.516-2.008,2.824c0,1.662,1.347,3.008,3.008,3.008
		c1.662,0,3.008-1.346,3.008-3.008C-73.213,313.376-74.053,312.273-75.221,311.86z M-76.221,315.692
		c-0.556,0-1.008-0.452-1.008-1.008s0.452-1.008,1.008-1.008s1.008,0.452,1.008,1.008S-75.665,315.692-76.221,315.692z"/>
</g>
<g>
	<path d="M-274.118,309.79v-17.105c0-2.762-2.238-5-5-5s-5,2.238-5,5v17.105c-1.236,1.263-2,2.988-2,4.895c0,3.866,3.134,7,7,7
		s7-3.134,7-7C-272.118,312.778-272.882,311.053-274.118,309.79z M-279.118,319.685c-2.757,0-5-2.243-5-5
		c0-1.313,0.508-2.554,1.429-3.495l0.571-0.583v-0.816v-17.105c0-1.654,1.346-3,3-3s3,1.346,3,3v17.105v0.816l0.571,0.583
		c0.921,0.941,1.429,2.183,1.429,3.495C-274.118,317.441-276.361,319.685-279.118,319.685z"/>
	<path d="M-278.118,311.86v-10.176h-2v10.176c-1.167,0.413-2.008,1.516-2.008,2.824c0,1.662,1.347,3.008,3.008,3.008
		c1.662,0,3.008-1.346,3.008-3.008C-276.11,313.376-276.95,312.273-278.118,311.86z M-279.118,315.692
		c-0.556,0-1.008-0.452-1.008-1.008s0.452-1.008,1.008-1.008s1.008,0.452,1.008,1.008S-278.563,315.692-279.118,315.692z"/>
</g>
<g>
	<path d="M-377.764,309.79v-17.105c0-2.762-2.238-5-5-5s-5,2.238-5,5v17.105c-1.236,1.263-2,2.988-2,4.895c0,3.866,3.134,7,7,7
		s7-3.134,7-7C-375.764,312.778-376.527,311.053-377.764,309.79z M-382.764,319.685c-2.757,0-5-2.243-5-5
		c0-1.313,0.508-2.554,1.429-3.495l0.571-0.583v-0.816v-17.105c0-1.654,1.346-3,3-3s3,1.346,3,3v17.105v0.816l0.571,0.583
		c0.921,0.941,1.429,2.183,1.429,3.495C-377.764,317.441-380.007,319.685-382.764,319.685z"/>
	<path d="M-381.764,311.86v-5.176h-2v5.176c-1.167,0.413-2.008,1.516-2.008,2.824c0,1.662,1.347,3.008,3.008,3.008
		c1.662,0,3.008-1.346,3.008-3.008C-379.756,313.376-380.596,312.273-381.764,311.86z M-382.764,315.692
		c-0.556,0-1.008-0.452-1.008-1.008s0.452-1.008,1.008-1.008s1.008,0.452,1.008,1.008S-382.208,315.692-382.764,315.692z"/>
</g>
<g>
	<path d="M-482.421,309.79v-17.105c0-2.762-2.238-5-5-5s-5,2.238-5,5v17.105c-1.236,1.263-2,2.988-2,4.895c0,3.866,3.134,7,7,7
		s7-3.134,7-7C-480.421,312.778-481.185,311.053-482.421,309.79z M-487.421,319.685c-2.757,0-5-2.243-5-5
		c0-1.313,0.508-2.554,1.429-3.495l0.571-0.583v-0.816v-17.105c0-1.654,1.346-3,3-3s3,1.346,3,3v17.105v0.816l0.571,0.583
		c0.921,0.941,1.429,2.183,1.429,3.495C-482.421,317.441-484.664,319.685-487.421,319.685z"/>
	<path d="M-487.421,311.677c-1.661,0-3.008,1.347-3.008,3.008c0,1.662,1.347,3.008,3.008,3.008c1.662,0,3.008-1.346,3.008-3.008
		C-484.413,313.023-485.759,311.677-487.421,311.677z M-487.421,315.692c-0.556,0-1.008-0.452-1.008-1.008s0.452-1.008,1.008-1.008
		s1.008,0.452,1.008,1.008S-486.865,315.692-487.421,315.692z"/>
</g>
<g>
	<path d="M17.504,289.997c-2.209,0-4,1.791-4,4c0,2.21,1.791,4,4,4c2.211,0,4-1.79,4-4
		C21.504,291.788,19.715,289.997,17.504,289.997z M17.504,295.997c-1.103,0-2-0.897-2-2s0.897-2,2-2s2,0.897,2,2
		S18.606,295.997,17.504,295.997z"/>
	<path d="M31.504,317.997c-4.41,0-7.999-3.589-7.999-7.999v-4.002c0-4.41,3.589-7.999,7.999-7.999c2.715,0,5.115,1.362,6.563,3.437
		l1.43-1.43c-1.824-2.429-4.72-4.007-7.992-4.007c-5.522,0-9.999,4.478-9.999,9.999v4.002c0,5.521,4.477,9.999,9.999,9.999
		c3.272,0,6.168-1.579,7.992-4.008l-1.43-1.43C36.62,316.634,34.22,317.997,31.504,317.997z"/>
</g>
<g>
	<path d="M122.2,289.876c-2.209,0-4,1.791-4,4c0,2.21,1.791,4,4,4c2.211,0,4-1.79,4-4C126.2,291.667,124.411,289.876,122.2,289.876z
		 M122.2,295.876c-1.103,0-2-0.897-2-2s0.897-2,2-2s2,0.897,2,2S123.303,295.876,122.2,295.876z"/>
	<polygon points="142.075,297.997 142.075,295.997 130.075,295.997 128.075,295.997 128.075,319.997 130.075,319.997 
		130.075,307.997 138.075,307.997 138.075,305.997 130.075,305.997 130.075,297.997 	"/>
</g>
<g>
	<path d="M233.286,293.688c-7.179,0-13,5.82-13,13s5.821,13,13,13s13-5.82,13-13S240.465,293.688,233.286,293.688z M233.286,317.688
		c-6.065,0-11-4.935-11-11s4.935-11,11-11s11,4.935,11,11S239.352,317.688,233.286,317.688z"/>
	<path d="M229.02,310.931l6.363-2.121l2.121-6.364l-6.363,2.122L229.02,310.931z M232.722,306.148l1.62-0.54l-0.54,1.62l-1.62,0.54
		L232.722,306.148z"/>
</g>
<g>
	<path d="M-487.421,384.206c-7.179,0-13,5.82-13,13s5.821,13,13,13s13-5.82,13-13S-480.242,384.206-487.421,384.206z
		 M-487.421,408.206c-6.065,0-11-4.934-11-11c0-6.064,4.935-11,11-11s11,4.936,11,11
		C-476.421,403.272-481.355,408.206-487.421,408.206z"/>
	<path d="M-484.859,395.628l-2.586-4.422l-2.529,4.33h0.007c-0.299,0.467-0.478,1.018-0.478,1.613c0,1.656,1.343,3,3,3s3-1.344,3-3
		c0-0.559-0.162-1.074-0.428-1.521H-484.859z M-487.445,398.149c-0.552,0-1-0.449-1-1c0-0.188,0.055-0.367,0.162-0.535l0.864-1.355
		l0.826,1.391c0.098,0.164,0.147,0.332,0.147,0.5C-486.445,397.7-486.894,398.149-487.445,398.149z"/>
</g>
<g>
	<path d="M-382.637,384.206c-7.18,0-13,5.82-13,13s5.82,13,13,13s13-5.82,13-13S-375.457,384.206-382.637,384.206z
		 M-382.637,408.206c-6.065,0-11-4.934-11-11c0-6.064,4.935-11,11-11s11,4.936,11,11
		C-371.637,403.272-376.571,408.206-382.637,408.206z"/>
	<path d="M-381.048,394.626c-0.467-0.299-1.018-0.477-1.613-0.477c-1.658,0-3,1.342-3,3c0,1.656,1.342,3,3,3
		c0.557,0,1.072-0.162,1.52-0.428v0.014l4.422-2.586l-4.328-2.529V394.626z M-382.163,398.001c-0.164,0.098-0.332,0.148-0.498,0.148
		c-0.552,0-1-0.449-1-1c0-0.553,0.448-1,1-1c0.188,0,0.368,0.053,0.535,0.16l1.355,0.865L-382.163,398.001z"/>
</g>
<g>
	<path d="M-279.586,384.206c-7.18,0-13,5.82-13,13s5.82,13,13,13s13-5.82,13-13S-272.406,384.206-279.586,384.206z
		 M-279.586,408.206c-6.065,0-11-4.934-11-11c0-6.064,4.935-11,11-11s11,4.936,11,11
		C-268.586,403.272-273.521,408.206-279.586,408.206z"/>
	<path d="M-279.586,394.149c-1.656,0-3,1.342-3,3c0,0.557,0.162,1.072,0.428,1.52h-0.014l2.586,4.422l2.529-4.328h-0.006
		c0.299-0.467,0.477-1.018,0.477-1.613C-276.586,395.491-277.928,394.149-279.586,394.149z M-278.747,397.685l-0.865,1.355
		l-0.826-1.393c-0.098-0.164-0.147-0.332-0.147-0.498c0-0.553,0.448-1,1-1s1,0.447,1,1
		C-278.586,397.337-278.64,397.517-278.747,397.685z"/>
</g>
<g>
	<path d="M-176.172,384.206c-7.179,0-13,5.82-13,13s5.821,13,13,13s13-5.82,13-13S-168.993,384.206-176.172,384.206z
		 M-176.172,408.206c-6.065,0-11-4.934-11-11c0-6.064,4.935-11,11-11s11,4.936,11,11
		C-165.172,403.272-170.106,408.206-176.172,408.206z"/>
	<path d="M-176.213,394.149c-0.557,0-1.072,0.162-1.52,0.428v-0.014l-4.422,2.586l4.328,2.529v-0.006
		c0.467,0.299,1.018,0.477,1.613,0.477c1.658,0,3-1.342,3-3C-173.213,395.493-174.555,394.149-176.213,394.149z M-176.213,398.149
		c-0.188,0-0.368-0.055-0.535-0.162l-1.355-0.865l1.393-0.826c0.164-0.098,0.332-0.146,0.498-0.146c0.552,0,1,0.447,1,1
		C-175.213,397.7-175.661,398.149-176.213,398.149z"/>
</g>
<g>
	<rect x="-384.323" y="187.478" width="2" height="10"/>
	<rect x="-369.623" y="193.564" transform="matrix(0.7071 0.7071 -0.7071 0.7071 32.5829 318.874)" width="2" height="10.409"/>
	<rect x="-403.232" y="197.773" transform="matrix(0.7071 0.7071 -0.7071 0.7071 23.9741 339.6674)" width="10.409" height="2"/>
	<polygon points="-389.991,216.731 -388.577,218.146 -384.323,213.892 -384.323,223.478 -382.323,223.478 -382.323,213.892 
		-378.07,218.146 -376.656,216.731 -383.323,210.063 	"/>
	<path d="M-370.316,213.477c0-0.002,0-0.004,0-0.006c0-7.18-5.82-12.999-13-12.999s-13,5.819-13,12.999c0,0.002,0,0.004,0,0.006h-13
		v2h18v-2h-3c0-0.002,0-0.004,0-0.006c0-6.064,4.935-10.999,11-10.999s11,4.935,11,10.999c0,0.002,0,0.004,0,0.006h-3v2h17.995v-2
		H-370.316z"/>
</g>
<g>
	<rect x="-280.578" y="186.29" width="2" height="10"/>
	<rect x="-265.878" y="192.376" transform="matrix(0.7071 0.7071 -0.7071 0.7071 62.1295 245.1673)" width="2" height="10.409"/>
	<rect x="-299.487" y="196.586" transform="matrix(0.7071 0.7071 -0.7071 0.7071 53.5206 265.9608)" width="10.409" height="2"/>
	<polygon points="-278.578,220.837 -278.578,210.29 -280.578,210.29 -280.578,220.837 -284.832,216.583 -286.246,217.997 
		-279.578,224.665 -272.911,217.997 -274.325,216.583 	"/>
	<path d="M-266.571,212.289c0-0.002,0-0.004,0-0.006c0-7.18-5.82-12.999-13-12.999s-13,5.819-13,12.999c0,0.002,0,0.004,0,0.006h-13
		v2h22v-2h-7c0-0.002,0-0.004,0-0.006c0-6.064,4.935-10.999,11-10.999s11,4.935,11,10.999c0,0.002,0,0.004,0,0.006h-7v2h21.995v-2
		H-266.571z"/>
</g>
<g>
	<polygon points="-76.221,220.303 -76.221,205.92 -78.221,205.92 -78.221,220.303 -82.475,216.049 -83.889,217.463 -77.221,224.131 
		-70.554,217.463 -71.968,216.049 	"/>
	<path d="M-60.593,200.949c-1.596-7.445-8.207-13.029-16.127-13.029c-6.423,0-11.977,3.678-14.702,9.035
		c-0.266-0.018-0.53-0.04-0.8-0.04c-6.627,0-11.999,5.372-11.999,12c0,6.607,5.34,11.965,11.938,11.998v0.003h6.062v-2h-5.604
		l-0.447-0.003c-5.485-0.027-9.948-4.513-9.948-9.998c0-5.514,4.485-10,9.999-10c0.175,0,0.347,0.014,0.52,0.025l0.148,0.01
		l1.316,0.088l0.598-1.176c2.492-4.899,7.443-7.942,12.92-7.942c6.79,0,12.75,4.814,14.172,11.448l0.317,1.482l1.514,0.095
		c4.203,0.262,7.496,3.763,7.496,7.971c0,4.397-3.565,7.977-7.957,8c-0.05-0.003-0.093-0.005-0.137-0.007l-2.043,0.007h-4.863v2
		h6.863v-0.007c0.046,0.001,0.091,0.007,0.137,0.007c5.521,0,10-4.477,10-10C-51.221,205.605-55.365,201.274-60.593,200.949z"/>
</g>
<g>
	<polygon points="-170.236,217.107 -168.822,215.693 -175.489,209.025 -182.157,215.693 -180.743,217.107 -176.489,212.854 
		-176.489,225.439 -174.489,225.439 -174.489,212.854 	"/>
	<path d="M-158.861,202.545c-1.596-7.445-8.207-13.029-16.127-13.029c-6.423,0-11.977,3.678-14.702,9.035
		c-0.266-0.018-0.53-0.04-0.8-0.04c-6.627,0-11.999,5.372-11.999,12c0,6.607,5.34,11.965,11.938,11.998v0.003h10.062v-2h-9.604
		l-0.447-0.003c-5.485-0.027-9.948-4.513-9.948-9.998c0-5.514,4.485-10,9.999-10c0.175,0,0.347,0.014,0.52,0.025l0.148,0.01
		l1.316,0.088l0.598-1.176c2.492-4.899,7.443-7.942,12.92-7.942c6.79,0,12.75,4.814,14.172,11.448l0.317,1.482l1.514,0.095
		c4.203,0.262,7.496,3.763,7.496,7.971c0,4.397-3.565,7.977-7.957,8c-0.05-0.003-0.093-0.005-0.137-0.007l-2.043,0.007h-8.863v2
		h10.863v-0.007c0.046,0.001,0.091,0.007,0.137,0.007c5.521,0,10-4.477,10-10C-149.489,207.201-153.634,202.87-158.861,202.545z"/>
</g>
<g>
	<path d="M43.628,13.029C42.032,5.584,35.421,0,27.501,0c-6.423,0-11.977,3.678-14.702,9.035c-0.266-0.018-0.53-0.04-0.8-0.04
		C5.372,8.995,0,14.367,0,20.995c0,6.607,5.34,11.965,11.938,11.998v0.003H14v-2h-1.604l-0.447-0.003C6.463,30.966,2,26.48,2,20.995
		c0-5.514,4.485-10,9.999-10c0.175,0,0.347,0.014,0.52,0.025l0.148,0.01l1.316,0.088l0.598-1.176C17.073,5.043,22.024,2,27.501,2
		c6.79,0,12.75,4.814,14.172,11.448l0.317,1.482l1.514,0.095C47.707,15.287,51,18.788,51,22.996c0,4.397-3.565,7.977-7.957,8
		c-0.05-0.003-0.093-0.005-0.137-0.007l-2.043,0.007H40v2h2.863v-0.007c0.046,0.001,0.091,0.007,0.137,0.007c5.521,0,10-4.477,10-10
		C53,17.686,48.855,13.354,43.628,13.029z"/>
	<polygon points="22,32.018 22,29.388 24.173,30.61 24.858,29.39 22.389,28 24.858,26.61 24.173,25.39 22,26.612 22,24.018 
		20,24.018 20,26.656 17.749,25.39 17.063,26.61 19.533,28 17.063,29.39 17.749,30.61 20,29.344 20,32.018 	"/>
	<polygon points="27.162,36.372 24.989,37.595 24.989,35 22.989,35 22.989,37.639 20.738,36.372 20.053,37.593 22.522,38.982 
		20.053,40.372 20.738,41.593 22.989,40.326 22.989,43 24.989,43 24.989,40.37 27.162,41.593 27.848,40.372 25.378,38.982 
		27.848,37.593 	"/>
	<polygon points="36.178,29.39 34.005,30.612 34.005,28.018 32.005,28.018 32.005,30.656 29.754,29.39 29.068,30.61 31.538,32 
		29.068,33.39 29.754,34.61 32.005,33.344 32.005,36.018 34.005,36.018 34.005,33.388 36.178,34.61 36.863,33.39 34.394,32 
		36.863,30.61 	"/>
</g>
<g>
	<rect x="119.14" y="-5.022" width="2" height="7.973"/>
	<rect x="100.14" y="13.892" width="7.973" height="2"/>
	<rect x="104.813" y="2.625" transform="matrix(0.7071 0.7071 -0.7071 0.7071 34.43 -75.8713)" width="7.974" height="2"/>
	<rect x="130.321" y="-0.357" transform="matrix(0.7071 0.7071 -0.7071 0.7071 41.0291 -91.7953)" width="2" height="7.972"/>
	<path d="M149.651,20.768c-1.444-6.742-7.433-11.8-14.605-11.8c-2.185,0-4.258,0.471-6.127,1.314
		c-1.666-3.203-5.006-5.395-8.865-5.395c-5.522,0-10,4.477-10,9.999c0,2.46,0.899,4.702,2.373,6.442
		c-1.428,1.84-2.287,4.144-2.287,6.653c0,5.983,4.836,10.836,10.813,10.865v0.003h1.188v-2h-0.721l-0.457-0.003
		c-4.864-0.023-8.822-4.001-8.822-8.865c0-4.89,3.978-8.868,8.867-8.868c0.15,0,0.299,0.012,0.447,0.022l0.148,0.01l1.314,0.085
		l0.597-1.175c2.225-4.372,6.644-7.089,11.532-7.089c6.062,0,11.382,4.298,12.649,10.219l0.318,1.483l1.514,0.094
		c3.708,0.23,6.612,3.319,6.612,7.03c0,3.878-3.144,7.035-7.017,7.057c-0.042-0.003-0.079-0.005-0.117-0.005l-1.866,0.005v2h1.819
		v-0.006c0.042,0.001,0.082,0.006,0.124,0.006c5.001,0,9.057-4.054,9.057-9.057C158.14,24.984,154.386,21.063,149.651,20.768z
		 M121.731,17.15c-0.241-0.016-0.48-0.036-0.725-0.036c-2.766,0-5.282,1.041-7.2,2.742c-1.092-1.365-1.753-3.089-1.753-4.97
		c0-4.41,3.589-7.999,8-7.999c3.092,0,5.76,1.773,7.091,4.346C124.847,12.673,122.968,14.721,121.731,17.15z"/>
	<polygon points="129.132,37.87 129.132,35.24 131.305,36.463 131.99,35.242 129.521,33.853 131.99,32.463 131.305,31.242 
		129.132,32.465 129.132,29.87 127.132,29.87 127.132,32.509 124.881,31.242 124.195,32.463 126.665,33.853 124.195,35.242 
		124.881,36.463 127.132,35.196 127.132,37.87 	"/>
	<polygon points="134.294,42.225 132.121,43.447 132.121,40.853 130.121,40.853 130.121,43.491 127.87,42.225 127.185,43.445 
		129.654,44.835 127.185,46.225 127.87,47.445 130.121,46.179 130.121,48.853 132.121,48.853 132.121,46.223 134.294,47.445 
		134.979,46.225 132.51,44.835 134.979,43.445 	"/>
	<polygon points="143.31,35.242 141.137,36.465 141.137,33.87 139.137,33.87 139.137,36.509 136.886,35.242 136.2,36.463 
		138.67,37.853 136.2,39.242 136.886,40.463 139.137,39.196 139.137,41.87 141.137,41.87 141.137,39.24 143.31,40.463 
		143.995,39.242 141.525,37.853 143.995,36.463 	"/>
</g>
<g>
	<path d="M249.84,17.765c-1.444-6.742-7.433-11.8-14.605-11.8c-1.799,0-3.522,0.32-5.118,0.904c-0.949-5.108-5.404-8.98-10.788-8.98
		c-0.413,0-0.819,0.027-1.222,0.071c0.744,1.112,1.179,2.448,1.179,3.886c0,3.865-3.134,7-7,7c-1.438,0-2.773-0.435-3.886-1.179
		c-0.044,0.401-0.071,0.809-0.071,1.222c0,3.713,1.845,6.987,4.661,8.979c-1.653,1.907-2.661,4.389-2.661,7.111
		c0,5.983,4.836,10.836,10.813,10.865v0.003h1.188v-2h-0.721l-0.457-0.003c-4.864-0.023-8.822-4.001-8.822-8.865
		c0-4.89,3.978-8.868,8.867-8.868c0.15,0,0.299,0.012,0.447,0.022l0.148,0.01l1.314,0.085l0.597-1.175
		c2.225-4.372,6.644-7.089,11.532-7.089c6.062,0,11.382,4.298,12.649,10.219l0.318,1.483l1.514,0.094
		c3.708,0.23,6.612,3.319,6.612,7.03c0,3.878-3.144,7.035-7.017,7.057c-0.042-0.003-0.079-0.005-0.117-0.005l-1.866,0.005v2h1.819
		v-0.006c0.042,0.001,0.082,0.006,0.124,0.006c5.001,0,9.057-4.054,9.057-9.057C258.328,21.981,254.574,18.06,249.84,17.765z
		 M221.92,14.147c-0.241-0.016-0.48-0.036-0.725-0.036c-2.537,0-4.865,0.877-6.715,2.334c-2.012-1.294-3.486-3.354-3.976-5.776
		c0.582,0.117,1.178,0.177,1.78,0.177c4.963,0,9-4.037,9-9c0-0.603-0.06-1.198-0.177-1.78c3.733,0.753,6.629,3.824,7.134,7.64
		C225.529,9.149,223.314,11.404,221.92,14.147z"/>
	<polygon points="229.365,34.867 229.365,32.237 231.538,33.46 232.224,32.239 229.754,30.85 232.224,29.46 231.538,28.239 
		229.365,29.462 229.365,26.867 227.365,26.867 227.365,29.506 225.114,28.239 224.429,29.46 226.898,30.85 224.429,32.239 
		225.114,33.46 227.365,32.193 227.365,34.867 	"/>
	<polygon points="234.527,39.222 232.354,40.444 232.354,37.85 230.354,37.85 230.354,40.488 228.104,39.222 227.418,40.442 
		229.888,41.832 227.418,43.222 228.104,44.442 230.354,43.176 230.354,45.85 232.354,45.85 232.354,43.22 234.527,44.442 
		235.213,43.222 232.743,41.832 235.213,40.442 	"/>
	<polygon points="243.543,32.239 241.37,33.462 241.37,30.867 239.37,30.867 239.37,33.506 237.119,32.239 236.434,33.46 
		238.903,34.85 236.434,36.239 237.119,37.46 239.37,36.193 239.37,38.867 241.37,38.867 241.37,36.237 243.543,37.46 
		244.229,36.239 241.759,34.85 244.229,33.46 	"/>
</g>
<rect x="-366.519" y="-549.985" fill="none" width="472.974" height="180.918"/>
<text transform="matrix(1 0 0 1 -186.8813 -478.5864)"><tspan x="0" y="0" font-family="'HelveticaNeueLTStd-Th'" font-size="100" letter-spacing="2">60</tspan><tspan x="-99.268" y="60" font-family="'HelveticaNeueLTStd-Lt'" font-size="48" letter-spacing="1">Weather Icons</tspan><tspan x="-3.726" y="104" font-family="'HelveticaNeueLTStd-Lt'" font-size="24">IOS 7 Style</tspan></text>
</svg>
