<?xml version="1.0" encoding="utf-8"?>
<!-- Generator: Adobe Illustrator 16.0.0, SVG Export Plug-In . SVG Version: 6.00 Build 0)  -->
<!DOCTYPE svg PUBLIC "-//W3C//DTD SVG 1.1//EN" "http://www.w3.org/Graphics/SVG/1.1/DTD/svg11.dtd">
<svg version="1.1" id="Layer_1" xmlns="http://www.w3.org/2000/svg" xmlns:xlink="http://www.w3.org/1999/xlink" x="0px" y="0px"
	 width="50px" height="47.961px" viewBox="0 0 50 47.961" enable-background="new 0 0 50 47.961" xml:space="preserve">
<path d="M-74.378,191.291l-1.803,15.077l-0.268,2.237h2.254h6.896l-14.693,18.759l1.789-14.52l0.277-2.245h-2.262h-6.957
	L-74.378,191.291 M-71.523,184.267L-93.19,212.6h11.004l-2.671,21.667l21.667-27.661h-11.004L-71.523,184.267L-71.523,184.267z"/>
<path d="M-487.413-270.97c6.79,0,12.749,4.814,14.171,11.448l0.318,1.483l1.514,0.094c4.203,0.262,7.496,3.763,7.496,7.971
	c0,4.396-3.565,7.977-7.957,8c-0.046-0.003-0.091-0.006-0.137-0.007l-2.043-0.036v0.043h-28.337l-0.578-0.003
	c-5.485-0.027-9.948-4.513-9.948-9.998c0-5.514,4.485-10,9.999-10c0.175,0,0.347,0.014,0.519,0.025l0.149,0.011l1.316,0.087
	l0.598-1.176C-497.84-267.927-492.89-270.97-487.413-270.97 M-487.413-272.97c-6.423,0-11.977,3.678-14.702,9.035
	c-0.266-0.018-0.53-0.04-0.8-0.04c-6.627,0-11.999,5.372-11.999,12c0,6.607,5.34,11.965,11.938,11.998v0.003h30.925v-0.007
	c0.046,0.001,0.091,0.007,0.137,0.007c5.521,0,10-4.477,10-10c0-5.311-4.145-9.642-9.372-9.967
	C-472.882-267.386-479.493-272.97-487.413-272.97L-487.413-272.97z"/>
<g>
	<path d="M-364.462-252.559c-1.444-6.742-7.433-11.8-14.605-11.8c-2.185,0-4.258,0.47-6.127,1.313
		c-1.666-3.202-5.006-5.394-8.865-5.394c-5.522,0-10,4.477-10,9.999c0,2.46,0.898,4.702,2.373,6.442
		c-1.428,1.84-2.287,4.144-2.287,6.653c0,5.983,4.836,10.836,10.813,10.865v0.003h28.007v-0.006
		c0.042,0.001,0.082,0.006,0.124,0.006c5.001,0,9.057-4.054,9.057-9.057C-355.974-248.342-359.728-252.264-364.462-252.559z
		 M-394.06-266.438c3.092,0,5.76,1.773,7.092,4.345c-2.299,1.44-4.178,3.488-5.414,5.918c-0.241-0.016-0.48-0.036-0.725-0.036
		c-2.766,0-5.281,1.041-7.2,2.743c-1.092-1.366-1.753-3.09-1.753-4.971C-402.06-262.85-398.471-266.438-394.06-266.438z
		 M-364.99-236.476c-0.038-0.003-0.077-0.004-0.117-0.005l-2.047-0.042v0.047h-25.403l-0.594-0.003
		c-4.864-0.023-8.822-4.001-8.822-8.865c0-4.89,3.978-8.868,8.867-8.868c0.15,0,0.299,0.012,0.447,0.021l0.148,0.011l1.314,0.085
		l0.598-1.174c2.224-4.373,6.643-7.09,11.531-7.09c6.062,0,11.381,4.298,12.65,10.219l0.317,1.482l1.514,0.095
		c3.708,0.231,6.612,3.319,6.612,7.03C-357.974-239.654-361.117-236.498-364.99-236.476z"/>
	<rect x="-395.054" y="-278.469" width="2" height="7.973"/>
	<rect x="-414.026" y="-259.482" width="7.973" height="2"/>
	<rect x="-409.301" y="-270.701" transform="matrix(0.7071 0.7071 -0.7071 0.7071 -309.4211 207.6063)" width="7.974" height="2"/>
	<rect x="-383.792" y="-273.683" transform="matrix(0.7071 0.7071 -0.7071 0.7071 -302.822 191.6823)" width="2" height="7.972"/>
</g>
<path d="M-268.719-256.586c-1.444-6.742-7.433-11.8-14.605-11.8c-1.799,0-3.521,0.32-5.118,0.904
	c-0.949-5.108-5.404-8.98-10.788-8.98c-0.413,0-0.819,0.027-1.222,0.071c0.744,1.112,1.179,2.448,1.179,3.886c0,3.865-3.134,7-7,7
	c-1.438,0-2.773-0.435-3.886-1.179c-0.044,0.401-0.071,0.809-0.071,1.222c0,3.712,1.845,6.987,4.661,8.979
	c-1.653,1.907-2.661,4.389-2.661,7.111c0,5.983,4.836,10.836,10.813,10.865v0.003h28.007v-0.006
	c0.042,0.001,0.082,0.006,0.124,0.006c5.001,0,9.057-4.054,9.057-9.057C-260.23-252.369-263.984-256.291-268.719-256.586z
	 M-308.054-263.682c0.582,0.117,1.178,0.177,1.78,0.177c4.963,0,9-4.037,9-9c0-0.603-0.06-1.198-0.177-1.78
	c3.733,0.753,6.629,3.824,7.134,7.64c-2.713,1.444-4.928,3.699-6.322,6.442c-0.241-0.016-0.48-0.036-0.725-0.036
	c-2.537,0-4.865,0.876-6.715,2.334C-306.09-259.199-307.564-261.259-308.054-263.682z M-269.247-240.503
	c-0.038-0.003-0.077-0.004-0.117-0.005l-2.047-0.042v0.047h-25.403l-0.594-0.003c-4.864-0.023-8.822-4.001-8.822-8.865
	c0-4.89,3.978-8.868,8.867-8.868c0.15,0,0.299,0.012,0.447,0.021l0.148,0.011l1.314,0.085l0.598-1.174
	c2.224-4.373,6.643-7.09,11.531-7.09c6.062,0,11.381,4.298,12.65,10.219l0.317,1.482l1.514,0.095
	c3.708,0.231,6.612,3.319,6.612,7.03C-262.23-243.682-265.374-240.525-269.247-240.503z"/>
<g>
	<rect x="-184.073" y="-247.963" width="2" height="7"/>
	<rect x="-176.073" y="-251.963" width="2" height="7"/>
	<rect x="-192.073" y="-251.963" width="2" height="7"/>
	<rect x="-184.073" y="-237.963" width="2" height="7"/>
	<rect x="-176.073" y="-241.963" width="2" height="7"/>
	<rect x="-192.073" y="-241.963" width="2" height="7"/>
	<path d="M-165.445-264.951c-1.596-7.445-8.207-13.029-16.127-13.029c-6.423,0-11.977,3.678-14.702,9.035
		c-0.266-0.018-0.53-0.04-0.8-0.04c-6.627,0-11.999,5.372-11.999,12c0,6.607,5.34,11.965,11.938,11.998v0.003h2.062v-2h-1.604
		l-0.447-0.003c-5.485-0.027-9.948-4.513-9.948-9.998c0-5.514,4.485-10,9.999-10c0.175,0,0.347,0.014,0.52,0.025l0.148,0.01
		l1.316,0.088l0.598-1.176c2.492-4.899,7.443-7.942,12.92-7.942c6.79,0,12.75,4.814,14.172,11.448l0.317,1.482l1.514,0.095
		c4.203,0.262,7.496,3.763,7.496,7.971c0,4.397-3.565,7.977-7.957,8c-0.05-0.003-0.093-0.005-0.137-0.007l-2.043,0.007h-2.863v2
		h4.863v-0.007c0.046,0.001,0.091,0.007,0.137,0.007c5.521,0,10-4.477,10-10C-156.073-260.295-160.218-264.626-165.445-264.951z"/>
</g>
<g>
	<path d="M-367.872-175.594c-1.596-7.445-8.207-13.029-16.127-13.029c-6.423,0-11.977,3.678-14.702,9.035
		c-0.266-0.018-0.53-0.04-0.8-0.04c-6.627,0-11.999,5.372-11.999,12c0,6.607,5.34,11.965,11.938,11.998v0.003h2.062v-2h-1.604
		l-0.447-0.003c-5.485-0.027-9.948-4.513-9.948-9.998c0-5.514,4.485-10,9.999-10c0.175,0,0.347,0.014,0.52,0.025l0.148,0.01
		l1.316,0.088l0.598-1.176c2.492-4.899,7.443-7.942,12.92-7.942c6.79,0,12.75,4.814,14.172,11.448l0.317,1.482l1.514,0.095
		c4.203,0.262,7.496,3.763,7.496,7.971c0,4.397-3.565,7.977-7.957,8c-0.05-0.003-0.093-0.005-0.137-0.007l-2.043,0.007h-2.863v2
		h4.863v-0.007c0.046,0.001,0.091,0.007,0.137,0.007c5.521,0,10-4.477,10-10C-358.5-170.938-362.645-175.269-367.872-175.594z"/>
	<polygon points="-386.5,-148.599 -386.5,-146.658 -386.5,-140.599 -384.5,-140.599 -384.5,-146.658 -384.5,-148.599 
		-384.5,-160.599 -386.5,-160.599 	"/>
	<polygon points="-378.5,-152.599 -378.5,-150.846 -378.5,-144.599 -376.5,-144.599 -376.5,-150.846 -376.5,-152.599 
		-376.5,-164.599 -378.5,-164.599 	"/>
	<polygon points="-394.5,-152.599 -394.5,-150.533 -394.5,-144.599 -392.5,-144.599 -392.5,-150.533 -392.5,-152.599 
		-392.5,-164.599 -394.5,-164.599 	"/>
</g>
<g>
	<polygon points="-72.223,-151.688 -79.105,-161.518 -80.743,-160.37 -73.86,-150.54 -72.748,-148.951 -69.272,-143.987 
		-67.634,-145.134 -71.109,-150.099 	"/>
	<polygon points="-64.221,-151.689 -71.105,-161.518 -72.743,-160.369 -65.857,-150.541 -64.853,-149.105 -61.269,-143.99 
		-59.63,-145.137 -63.214,-150.253 	"/>
	<polygon points="-80.223,-151.688 -87.105,-161.518 -88.743,-160.369 -81.86,-150.54 -80.676,-148.848 -77.271,-143.986 
		-75.634,-145.134 -79.037,-149.995 	"/>
	<path d="M-61.115-175.327c-1.596-7.445-8.207-13.029-16.127-13.029c-6.423,0-11.977,3.678-14.702,9.035
		c-0.266-0.018-0.53-0.04-0.8-0.04c-6.627,0-11.999,5.372-11.999,12c0,6.607,5.34,11.965,11.938,11.998v0.003h2.062v-2h-1.604
		l-0.447-0.003c-5.485-0.027-9.948-4.513-9.948-9.998c0-5.514,4.485-10,9.999-10c0.175,0,0.347,0.014,0.52,0.025l0.148,0.01
		l1.316,0.088l0.598-1.176c2.492-4.899,7.443-7.942,12.92-7.942c6.79,0,12.75,4.814,14.172,11.448l0.317,1.482l1.514,0.095
		c4.203,0.262,7.496,3.763,7.496,7.971c0,4.397-3.565,7.977-7.957,8c-0.05-0.003-0.093-0.005-0.137-0.007l-1.043,0.007h0.137v2
		h0.863v-0.007c0.046,0.001,0.091,0.007,0.137,0.007c5.521,0,10-4.477,10-10C-51.743-170.671-55.888-175.002-61.115-175.327z"/>
</g>
<g>
	<rect x="-89.417" y="-284.409" width="2" height="7.973"/>
	<rect x="-108.417" y="-265.495" width="7.973" height="2"/>
	<rect x="-103.744" y="-276.762" transform="matrix(0.7071 0.7071 -0.7071 0.7071 -224.2111 -10.23)" width="7.974" height="2"/>
	<rect x="-78.235" y="-279.744" transform="matrix(0.7071 0.7071 -0.7071 0.7071 -217.6119 -26.154)" width="2" height="7.972"/>
	<rect x="-75.417" y="-243.536" width="2" height="7"/>
	<rect x="-67.417" y="-247.536" width="2" height="7"/>
	<rect x="-83.417" y="-247.536" width="2" height="7"/>
	<rect x="-75.417" y="-233.536" width="2" height="7"/>
	<rect x="-67.417" y="-237.536" width="2" height="7"/>
	<rect x="-83.417" y="-237.536" width="2" height="7"/>
	<path d="M-58.905-258.619c-1.444-6.742-7.433-11.8-14.605-11.8c-2.185,0-4.258,0.47-6.126,1.313
		c-1.667-3.202-5.007-5.394-8.866-5.394c-5.522,0-10,4.477-10,9.999c0,2.46,0.899,4.702,2.373,6.442
		c-1.429,1.84-2.287,4.144-2.287,6.653c0,5.983,4.836,10.836,10.813,10.865v0.003h1.188v-2h-0.721l-0.457-0.003
		c-4.864-0.023-8.822-4.001-8.822-8.865c0-4.89,3.978-8.868,8.867-8.868c0.15,0,0.299,0.012,0.447,0.022l0.148,0.01l1.314,0.085
		l0.597-1.175c2.225-4.372,6.644-7.089,11.532-7.089c6.062,0,11.382,4.298,12.649,10.219l0.318,1.483l1.514,0.094
		c3.708,0.23,6.612,3.319,6.612,7.03c0,3.878-3.144,7.035-7.017,7.057c-0.042-0.003-0.079-0.005-0.117-0.005l-2.047,0.005h-0.819v2
		h2.819v-0.006c0.042,0.001,0.082,0.006,0.124,0.006c5.001,0,9.057-4.054,9.057-9.057
		C-50.417-254.402-54.171-258.324-58.905-258.619z M-86.825-262.236c-0.241-0.016-0.48-0.036-0.725-0.036
		c-2.766,0-5.282,1.041-7.2,2.743c-1.092-1.366-1.753-3.09-1.753-4.971c0-4.41,3.589-7.999,8-7.999c3.091,0,5.76,1.773,7.091,4.345
		C-83.71-266.714-85.59-264.666-86.825-262.236z"/>
</g>
<g>
	<rect x="25" y="-244.983" width="2" height="7"/>
	<rect x="33" y="-248.983" width="2" height="7"/>
	<rect x="17" y="-248.983" width="2" height="7"/>
	<rect x="25" y="-234.983" width="2" height="7"/>
	<rect x="33" y="-238.983" width="2" height="7"/>
	<rect x="17" y="-238.983" width="2" height="7"/>
	<path d="M41.512-260.066c-1.444-6.742-7.433-11.8-14.605-11.8c-1.799,0-3.522,0.32-5.118,0.904
		c-0.949-5.108-5.404-8.98-10.788-8.98c-0.413,0-0.819,0.027-1.222,0.071c0.744,1.112,1.179,2.448,1.179,3.886c0,3.865-3.134,7-7,7
		c-1.438,0-2.773-0.435-3.886-1.179C0.027-269.763,0-269.355,0-268.942c0,3.712,1.845,6.987,4.661,8.979
		C3.008-258.056,2-255.574,2-252.852c0,5.983,4.836,10.836,10.813,10.865v0.003H14v-2h-0.721l-0.457-0.003
		C7.958-244.01,4-247.987,4-252.852c0-4.89,3.978-8.868,8.867-8.868c0.15,0,0.299,0.012,0.447,0.022l0.148,0.01l1.314,0.085
		l0.597-1.175c2.225-4.372,6.644-7.089,11.532-7.089c6.062,0,11.382,4.298,12.649,10.219l0.318,1.483l1.514,0.094
		c3.708,0.23,6.612,3.319,6.612,7.03c0,3.878-3.144,7.035-7.017,7.057c-0.042-0.003-0.079-0.005-0.117-0.005l-2.047,0.005H38v2
		h2.819v-0.006c0.042,0.001,0.082,0.006,0.124,0.006c5.001,0,9.057-4.054,9.057-9.057C50-255.85,46.246-259.771,41.512-260.066z
		 M13.592-263.684c-0.241-0.016-0.48-0.036-0.725-0.036c-2.537,0-4.865,0.876-6.715,2.334c-2.012-1.294-3.487-3.354-3.976-5.776
		c0.582,0.117,1.178,0.177,1.78,0.177c4.963,0,9-4.037,9-9c0-0.603-0.06-1.198-0.177-1.78c3.733,0.753,6.629,3.824,7.133,7.64
		C17.202-268.682,14.987-266.427,13.592-263.684z"/>
</g>
<g>
	<polygon points="-282.23,-144.16 -282.23,-142.22 -282.23,-136.16 -280.23,-136.16 -280.23,-142.22 -280.23,-144.16 
		-280.23,-156.16 -282.23,-156.16 	"/>
	<polygon points="-274.23,-148.16 -274.23,-146.407 -274.23,-140.16 -272.23,-140.16 -272.23,-146.407 -272.23,-148.16 
		-272.23,-160.16 -274.23,-160.16 	"/>
	<polygon points="-290.23,-148.16 -290.23,-146.095 -290.23,-140.16 -288.23,-140.16 -288.23,-146.095 -288.23,-148.16 
		-288.23,-160.16 -290.23,-160.16 	"/>
	<rect x="-296.23" y="-195.063" width="2" height="7.973"/>
	<rect x="-315.23" y="-176.148" width="7.973" height="2"/>
	<rect x="-310.557" y="-187.415" transform="matrix(0.7071 0.7071 -0.7071 0.7071 -221.6077 162.1782)" width="7.974" height="2"/>
	<rect x="-285.049" y="-190.397" transform="matrix(0.7071 0.7071 -0.7071 0.7071 -215.0086 146.2543)" width="2" height="7.972"/>
	<path d="M-265.719-169.272c-1.444-6.742-7.433-11.8-14.605-11.8c-2.185,0-4.258,0.47-6.127,1.313
		c-1.666-3.202-5.006-5.394-8.865-5.394c-5.522,0-10,4.477-10,9.999c0,2.46,0.898,4.702,2.373,6.442
		c-1.428,1.84-2.287,4.144-2.287,6.653c0,5.983,4.836,10.836,10.813,10.865v0.003h1.188v-2h-0.721l-0.457-0.003
		c-4.864-0.023-8.822-4.001-8.822-8.865c0-4.89,3.978-8.868,8.867-8.868c0.15,0,0.299,0.012,0.447,0.022l0.148,0.01l1.314,0.085
		l0.597-1.175c2.225-4.372,6.644-7.089,11.532-7.089c6.062,0,11.382,4.298,12.649,10.219l0.318,1.483l1.514,0.094
		c3.708,0.23,6.612,3.319,6.612,7.03c0,3.878-3.144,7.035-7.017,7.057c-0.042-0.003-0.079-0.005-0.117-0.005l-2.047,0.005h-0.819v2
		h2.819v-0.006c0.042,0.001,0.082,0.006,0.124,0.006c5.001,0,9.057-4.054,9.057-9.057
		C-257.23-165.056-260.984-168.978-265.719-169.272z M-293.639-172.89c-0.241-0.016-0.48-0.036-0.725-0.036
		c-2.766,0-5.281,1.042-7.2,2.743c-1.092-1.367-1.753-3.09-1.753-4.971c0-4.41,3.589-7.999,8-7.999c3.092,0,5.76,1.773,7.092,4.345
		C-290.523-177.368-292.402-175.319-293.639-172.89z"/>
</g>
<g>
	<polygon points="-181.833,-146.677 -181.833,-144.736 -181.833,-138.677 -179.833,-138.677 -179.833,-144.736 -179.833,-146.677 
		-179.833,-158.677 -181.833,-158.677 	"/>
	<polygon points="-173.833,-150.677 -173.833,-148.924 -173.833,-142.677 -171.833,-142.677 -171.833,-148.924 -171.833,-150.677 
		-171.833,-162.677 -173.833,-162.677 	"/>
	<polygon points="-189.833,-150.677 -189.833,-148.611 -189.833,-142.677 -187.833,-142.677 -187.833,-148.611 -187.833,-150.677 
		-187.833,-162.677 -189.833,-162.677 	"/>
	<path d="M-165.321-171.789c-1.444-6.742-7.433-11.8-14.605-11.8c-1.799,0-3.521,0.32-5.118,0.904
		c-0.949-5.108-5.404-8.98-10.788-8.98c-0.413,0-0.819,0.027-1.222,0.071c0.744,1.112,1.179,2.448,1.179,3.886c0,3.865-3.134,7-7,7
		c-1.438,0-2.773-0.435-3.886-1.179c-0.044,0.401-0.071,0.809-0.071,1.222c0,3.712,1.845,6.987,4.661,8.979
		c-1.653,1.907-2.661,4.389-2.661,7.111c0,5.983,4.836,10.836,10.813,10.865v0.003h1.188v-2h-0.721l-0.457-0.003
		c-4.864-0.023-8.822-4.001-8.822-8.865c0-4.89,3.978-8.868,8.867-8.868c0.15,0,0.299,0.012,0.447,0.022l0.148,0.01l1.314,0.085
		l0.597-1.175c2.225-4.372,6.644-7.089,11.532-7.089c6.062,0,11.382,4.298,12.649,10.219l0.318,1.483l1.514,0.094
		c3.708,0.23,6.612,3.319,6.612,7.03c0,3.878-3.144,7.035-7.017,7.057c-0.042-0.003-0.079-0.005-0.117-0.005l-2.047,0.005h-0.819v2
		h2.819v-0.006c0.042,0.001,0.082,0.006,0.124,0.006c5.001,0,9.057-4.054,9.057-9.057
		C-156.833-167.572-160.587-171.494-165.321-171.789z M-193.241-175.406c-0.241-0.016-0.48-0.036-0.725-0.036
		c-2.537,0-4.865,0.876-6.715,2.334c-2.012-1.294-3.486-3.354-3.976-5.776c0.582,0.117,1.178,0.177,1.78,0.177c4.963,0,9-4.037,9-9
		c0-0.603-0.06-1.198-0.177-1.78c3.733,0.753,6.629,3.824,7.134,7.641C-189.632-180.404-191.847-178.148-193.241-175.406z"/>
</g>
<g>
	<polygon points="35.202,-145.732 28.319,-155.563 26.682,-154.415 33.564,-144.585 34.677,-142.996 38.152,-138.032 
		39.791,-139.179 36.315,-144.144 	"/>
	<polygon points="43.204,-145.734 36.319,-155.563 34.682,-154.414 41.567,-144.586 42.572,-143.15 46.156,-138.035 
		47.795,-139.182 44.211,-144.298 	"/>
	<polygon points="27.202,-145.732 20.319,-155.563 18.682,-154.414 25.564,-144.585 26.749,-142.893 30.153,-138.031 
		31.791,-139.179 28.388,-144.04 	"/>
	<rect x="14.682" y="-193.281" width="2" height="7.973"/>
	<rect x="-4.318" y="-174.367" width="7.973" height="2"/>
	<rect x="0.355" y="-185.634" transform="matrix(0.7071 0.7071 -0.7071 0.7071 -129.2841 -57.1481)" width="7.974" height="2"/>
	<rect x="25.863" y="-188.616" transform="matrix(0.7071 0.7071 -0.7071 0.7071 -122.685 -73.0721)" width="2" height="7.972"/>
	<path d="M45.193-167.491c-1.444-6.742-7.433-11.8-14.605-11.8c-2.185,0-4.258,0.47-6.126,1.313
		c-1.667-3.202-5.007-5.394-8.866-5.394c-5.522,0-10,4.477-10,9.999c0,2.46,0.899,4.702,2.373,6.442
		c-1.429,1.84-2.287,4.144-2.287,6.653c0,5.983,4.836,10.836,10.813,10.865v0.003h1.188v-2h-0.721l-0.457-0.003
		c-4.864-0.023-8.822-4.001-8.822-8.865c0-4.89,3.978-8.868,8.867-8.868c0.15,0,0.299,0.012,0.447,0.022l0.148,0.01l1.314,0.085
		l0.597-1.175c2.225-4.372,6.644-7.089,11.532-7.089c6.062,0,11.382,4.298,12.649,10.219l0.318,1.483l1.514,0.094
		c3.708,0.23,6.612,3.319,6.612,7.03c0,3.878-3.144,7.035-7.017,7.057c-0.042-0.003-0.079-0.005-0.117-0.005l-0.047,0.005h-0.819v2
		h0.819v-0.006c0.042,0.001,0.082,0.006,0.124,0.006c5.001,0,9.057-4.054,9.057-9.057C53.682-163.274,49.928-167.196,45.193-167.491
		z M17.273-171.108c-0.241-0.016-0.48-0.036-0.725-0.036c-2.766,0-5.282,1.042-7.2,2.743c-1.092-1.367-1.753-3.09-1.753-4.971
		c0-4.41,3.589-7.999,8-7.999c3.091,0,5.76,1.773,7.091,4.345C20.389-175.587,18.509-173.538,17.273-171.108z"/>
</g>
<g>
	<polygon points="-688.229,-49.247 -695.111,-59.077 -696.749,-57.93 -689.866,-48.1 -688.754,-46.511 -685.278,-41.547 
		-683.64,-42.693 -687.115,-47.658 	"/>
	<polygon points="-680.227,-49.249 -687.111,-59.077 -688.749,-57.929 -681.863,-48.101 -680.858,-46.665 -677.274,-41.55 
		-675.636,-42.696 -679.22,-47.813 	"/>
	<polygon points="-696.229,-49.247 -703.111,-59.077 -704.749,-57.929 -697.866,-48.1 -696.682,-46.407 -693.277,-41.546 
		-691.64,-42.693 -695.043,-47.555 	"/>
	<path d="M-678.237-71.006c-1.444-6.742-7.433-11.8-14.605-11.8c-1.799,0-3.522,0.32-5.118,0.904
		c-0.949-5.108-5.404-8.98-10.788-8.98c-0.413,0-0.819,0.027-1.222,0.071c0.744,1.112,1.179,2.448,1.179,3.886c0,3.865-3.134,7-7,7
		c-1.438,0-2.773-0.435-3.886-1.179c-0.044,0.401-0.071,0.809-0.071,1.222c0,3.712,1.845,6.987,4.661,8.979
		c-1.653,1.907-2.661,4.389-2.661,7.111c0,5.983,4.836,10.836,10.813,10.865v0.003h1.188v-2h-0.721l-0.457-0.003
		c-4.864-0.023-8.822-4.001-8.822-8.865c0-4.89,3.978-8.868,8.867-8.868c0.15,0,0.299,0.012,0.447,0.022l0.148,0.01l1.314,0.085
		l0.597-1.175c2.225-4.372,6.644-7.089,11.532-7.089c6.062,0,11.382,4.298,12.649,10.219l0.318,1.483l1.514,0.094
		c3.708,0.23,6.612,3.319,6.612,7.03c0,3.878-3.144,7.035-7.017,7.057c-0.042-0.003-0.079-0.005-0.117-0.005l-0.047,0.005h-0.819v2
		h0.819v-0.006c0.042,0.001,0.082,0.006,0.124,0.006c5.001,0,9.057-4.054,9.057-9.057
		C-669.749-66.789-673.503-70.711-678.237-71.006z M-706.157-74.623c-0.241-0.016-0.48-0.036-0.725-0.036
		c-2.537,0-4.865,0.876-6.715,2.334c-2.012-1.294-3.487-3.354-3.976-5.776c0.582,0.117,1.178,0.177,1.78,0.177c4.963,0,9-4.037,9-9
		c0-0.603-0.06-1.198-0.177-1.78c3.733,0.753,6.629,3.824,7.133,7.641C-702.547-79.621-704.762-77.365-706.157-74.623z"/>
</g>
<g>
	<rect x="-695.749" y="-153.094" width="2" height="4"/>
	<rect x="-687.749" y="-157.115" width="2" height="4.021"/>
	<rect x="-703.749" y="-157.115" width="2" height="4.021"/>
	<path d="M-677.121-173.082c-1.596-7.445-8.207-13.029-16.127-13.029c-6.423,0-11.977,3.678-14.702,9.035
		c-0.266-0.018-0.53-0.04-0.8-0.04c-6.627,0-11.999,5.372-11.999,12c0,6.607,5.34,11.965,11.938,11.998v0.003h2.062v-2h-1.604
		l-0.447-0.003c-5.485-0.027-9.948-4.513-9.948-9.998c0-5.514,4.485-10,9.999-10c0.175,0,0.347,0.014,0.52,0.025l0.148,0.01
		l1.316,0.088l0.598-1.176c2.492-4.899,7.443-7.942,12.92-7.942c6.79,0,12.75,4.814,14.172,11.448l0.317,1.482l1.514,0.095
		c4.203,0.262,7.496,3.763,7.496,7.971c0,4.397-3.565,7.977-7.957,8c-0.05-0.003-0.093-0.005-0.137-0.007l-2.043,0.007h-2.863v2
		h4.863v-0.007c0.046,0.001,0.091,0.007,0.137,0.007c5.521,0,10-4.477,10-10C-667.749-168.426-671.894-172.757-677.121-173.082z"/>
	<circle cx="-686.749" cy="-148.073" r="1.5"/>
	<circle cx="-694.749" cy="-144.104" r="1.5"/>
	<circle cx="-702.749" cy="-148.115" r="1.5"/>
</g>
<g>
	<rect x="-602.828" y="-192.548" width="2" height="7.973"/>
	<rect x="-621.828" y="-173.634" width="7.973" height="2"/>
	<rect x="-617.155" y="-184.9" transform="matrix(0.7071 0.7071 -0.7071 0.7071 -309.6299 379.712)" width="7.974" height="2"/>
	<rect x="-591.646" y="-187.882" transform="matrix(0.7071 0.7071 -0.7071 0.7071 -303.0308 363.7881)" width="2" height="7.972"/>
	<path d="M-572.316-166.758c-1.444-6.742-7.433-11.8-14.605-11.8c-2.185,0-4.258,0.47-6.126,1.313
		c-1.667-3.202-5.007-5.394-8.866-5.394c-5.522,0-10,4.477-10,9.999c0,2.46,0.899,4.702,2.373,6.442
		c-1.429,1.84-2.287,4.144-2.287,6.653c0,5.983,4.836,10.836,10.813,10.865v0.003h1.188v-2h-0.721l-0.457-0.003
		c-4.864-0.023-8.822-4.001-8.822-8.865c0-4.89,3.978-8.868,8.867-8.868c0.15,0,0.299,0.012,0.447,0.022l0.148,0.01l1.314,0.085
		l0.597-1.175c2.225-4.372,6.644-7.089,11.532-7.089c6.062,0,11.382,4.298,12.649,10.219l0.318,1.483l1.514,0.094
		c3.708,0.23,6.612,3.319,6.612,7.03c0,3.878-3.144,7.035-7.017,7.057c-0.042-0.003-0.079-0.005-0.117-0.005l-2.047,0.005h-0.819v2
		h2.819v-0.006c0.042,0.001,0.082,0.006,0.124,0.006c5.001,0,9.057-4.054,9.057-9.057
		C-563.828-162.541-567.582-166.463-572.316-166.758z M-600.236-170.375c-0.241-0.016-0.48-0.036-0.725-0.036
		c-2.766,0-5.282,1.042-7.2,2.743c-1.092-1.367-1.753-3.09-1.753-4.971c0-4.41,3.589-7.999,8-7.999c3.091,0,5.76,1.773,7.091,4.345
		C-597.121-174.854-599.001-172.805-600.236-170.375z"/>
	<rect x="-588.828" y="-148.659" width="2" height="4"/>
	<rect x="-580.828" y="-152.681" width="2" height="4.021"/>
	<rect x="-596.828" y="-152.681" width="2" height="4.021"/>
	<circle cx="-579.828" cy="-143.639" r="1.5"/>
	<circle cx="-587.828" cy="-139.67" r="1.5"/>
	<circle cx="-595.828" cy="-143.681" r="1.5"/>
</g>
<g>
	<path d="M-471.391-167.715c-1.444-6.742-7.433-11.8-14.605-11.8c-1.799,0-3.522,0.32-5.118,0.904
		c-0.949-5.108-5.404-8.98-10.788-8.98c-0.413,0-0.819,0.027-1.222,0.071c0.744,1.112,1.179,2.448,1.179,3.886c0,3.865-3.134,7-7,7
		c-1.438,0-2.773-0.435-3.886-1.179c-0.044,0.401-0.071,0.809-0.071,1.222c0,3.712,1.845,6.987,4.661,8.979
		c-1.653,1.907-2.661,4.389-2.661,7.111c0,5.983,4.836,10.836,10.813,10.865v0.003h1.188v-2h-0.721l-0.457-0.003
		c-4.864-0.023-8.822-4.001-8.822-8.865c0-4.89,3.978-8.868,8.867-8.868c0.15,0,0.299,0.012,0.447,0.022l0.148,0.01l1.314,0.085
		l0.597-1.175c2.225-4.372,6.644-7.089,11.532-7.089c6.062,0,11.382,4.298,12.649,10.219l0.318,1.483l1.514,0.094
		c3.708,0.23,6.612,3.319,6.612,7.03c0,3.878-3.144,7.035-7.017,7.057c-0.042-0.003-0.079-0.005-0.117-0.005l-2.047,0.005h-0.819v2
		h2.819v-0.006c0.042,0.001,0.082,0.006,0.124,0.006c5.001,0,9.057-4.054,9.057-9.057
		C-462.902-163.498-466.656-167.42-471.391-167.715z M-499.311-171.332c-0.241-0.016-0.48-0.036-0.725-0.036
		c-2.537,0-4.865,0.876-6.715,2.334c-2.012-1.294-3.487-3.354-3.976-5.776c0.582,0.117,1.178,0.177,1.78,0.177c4.963,0,9-4.037,9-9
		c0-0.603-0.06-1.198-0.177-1.78c3.733,0.753,6.629,3.824,7.133,7.641C-495.7-176.33-497.915-174.074-499.311-171.332z"/>
	<rect x="-487.902" y="-149.616" width="2" height="4"/>
	<rect x="-479.902" y="-153.638" width="2" height="4.021"/>
	<rect x="-495.902" y="-153.638" width="2" height="4.021"/>
	<circle cx="-478.902" cy="-144.596" r="1.5"/>
	<circle cx="-486.902" cy="-140.627" r="1.5"/>
	<circle cx="-494.902" cy="-144.638" r="1.5"/>
</g>
<g>
	<path d="M-574.7-74.685c-1.596-7.445-8.207-13.029-16.127-13.029c-6.423,0-11.977,3.678-14.702,9.035
		c-0.266-0.018-0.53-0.04-0.8-0.04c-6.627,0-11.999,5.372-11.999,12c0,6.607,5.34,11.965,11.938,11.998v0.003h6.062v-2h-5.604
		l-0.447-0.003c-5.485-0.027-9.948-4.513-9.948-9.998c0-5.514,4.485-10,9.999-10c0.175,0,0.347,0.014,0.52,0.025l0.148,0.01
		l1.316,0.088l0.598-1.176c2.492-4.899,7.443-7.942,12.92-7.942c6.79,0,12.75,4.814,14.172,11.448l0.317,1.482l1.514,0.095
		c4.203,0.262,7.496,3.763,7.496,7.971c0,4.397-3.565,7.977-7.957,8c-0.05-0.003-0.093-0.005-0.137-0.007l-5.043,0.007h0.137v2
		h4.863v-0.007c0.046,0.001,0.091,0.007,0.137,0.007c5.521,0,10-4.477,10-10C-565.328-70.028-569.473-74.359-574.7-74.685z"/>
	<polygon points="-590.486,-54.714 -588.717,-54.714 -588.286,-54.714 -586.276,-54.714 -592.69,-63.875 -594.328,-62.728 
		-590.117,-56.714 -591.888,-56.714 -594.328,-56.714 -593.057,-54.897 -591.944,-53.309 -585.967,-44.714 -584.328,-45.86 
		-590.306,-54.456 	"/>
</g>
<g>
	<rect x="-498.902" y="-93.814" width="2" height="7.973"/>
	<rect x="-517.902" y="-74.9" width="7.973" height="2"/>
	<rect x="-513.229" y="-86.167" transform="matrix(0.7071 0.7071 -0.7071 0.7071 -209.3758 335.1438)" width="7.974" height="2"/>
	<rect x="-487.721" y="-89.149" transform="matrix(0.7071 0.7071 -0.7071 0.7071 -202.7766 319.2198)" width="2" height="7.972"/>
	<path d="M-468.391-68.024c-1.444-6.742-7.433-11.8-14.605-11.8c-2.185,0-4.258,0.47-6.127,1.313
		c-1.666-3.202-5.006-5.394-8.865-5.394c-5.522,0-10,4.477-10,9.999c0,2.46,0.898,4.702,2.373,6.442
		c-1.428,1.84-2.287,4.144-2.287,6.653c0,5.983,4.836,10.836,10.813,10.865v0.003h4.188v-2h-3.721l-0.457-0.003
		c-4.864-0.023-8.822-4.001-8.822-8.865c0-4.89,3.978-8.868,8.867-8.868c0.15,0,0.299,0.012,0.447,0.022l0.148,0.01l1.314,0.085
		l0.597-1.175c2.225-4.372,6.644-7.089,11.532-7.089c6.062,0,11.382,4.298,12.649,10.219l0.318,1.483l1.514,0.094
		c3.708,0.23,6.612,3.319,6.612,7.03c0,3.878-3.144,7.035-7.017,7.057c-0.042-0.003-0.079-0.005-0.117-0.005l-2.047,0.005h-3.819v2
		h5.819v-0.006c0.042,0.001,0.082,0.006,0.124,0.006c5.001,0,9.057-4.054,9.057-9.057
		C-459.902-63.808-463.656-67.729-468.391-68.024z M-496.311-71.642c-0.241-0.016-0.48-0.036-0.725-0.036
		c-2.766,0-5.281,1.041-7.2,2.743c-1.092-1.366-1.753-3.09-1.753-4.971c0-4.41,3.589-7.999,8-7.999c3.092,0,5.76,1.773,7.092,4.345
		C-493.195-76.119-495.074-74.071-496.311-71.642z"/>
	<polygon points="-484.061,-49.935 -482.291,-49.935 -481.86,-49.935 -479.851,-49.935 -486.265,-59.096 -487.902,-57.948 
		-483.691,-51.935 -485.462,-51.935 -487.902,-51.935 -486.631,-50.118 -485.519,-48.529 -479.541,-39.935 -477.902,-41.081 
		-483.88,-49.677 	"/>
</g>
<g>
	<path d="M-368.806-70.32c-1.444-6.742-7.433-11.8-14.605-11.8c-1.799,0-3.521,0.32-5.118,0.904
		c-0.949-5.108-5.404-8.98-10.788-8.98c-0.413,0-0.819,0.027-1.222,0.071c0.744,1.112,1.179,2.448,1.179,3.886c0,3.865-3.134,7-7,7
		c-1.438,0-2.773-0.435-3.886-1.179c-0.044,0.401-0.071,0.809-0.071,1.222c0,3.712,1.845,6.987,4.661,8.979
		c-1.653,1.907-2.661,4.389-2.661,7.111c0,5.983,4.836,10.836,10.813,10.865v0.003h4.188v-2h-3.721l-0.457-0.003
		c-4.864-0.023-8.822-4.001-8.822-8.865c0-4.89,3.978-8.868,8.867-8.868c0.15,0,0.299,0.012,0.447,0.022l0.148,0.01l1.314,0.085
		l0.597-1.175c2.225-4.372,6.644-7.089,11.532-7.089c6.062,0,11.382,4.298,12.649,10.219l0.318,1.483l1.514,0.094
		c3.708,0.23,6.612,3.319,6.612,7.03c0,3.878-3.144,7.035-7.017,7.057c-0.042-0.003-0.079-0.005-0.117-0.005l-2.047,0.005h-3.819v2
		h5.819v-0.006c0.042,0.001,0.082,0.006,0.124,0.006c5.001,0,9.057-4.054,9.057-9.057C-360.317-66.104-364.071-70.025-368.806-70.32
		z M-396.726-73.938c-0.241-0.016-0.48-0.036-0.725-0.036c-2.537,0-4.865,0.876-6.715,2.334c-2.012-1.294-3.486-3.354-3.976-5.776
		c0.582,0.117,1.178,0.177,1.78,0.177c4.963,0,9-4.037,9-9c0-0.603-0.06-1.198-0.177-1.78c3.733,0.753,6.629,3.824,7.134,7.64
		C-393.116-78.936-395.331-76.681-396.726-73.938z"/>
	<polygon points="-384.476,-52.23 -382.706,-52.23 -382.275,-52.23 -380.266,-52.23 -386.68,-61.392 -388.317,-60.244 
		-384.106,-54.23 -385.877,-54.23 -388.317,-54.23 -387.046,-52.414 -385.934,-50.825 -379.956,-42.23 -378.317,-43.377 
		-384.295,-51.973 	"/>
</g>
<g>
	<path d="M-267.921-74.185c-1.596-7.445-8.207-13.029-16.127-13.029c-6.423,0-11.977,3.678-14.702,9.035
		c-0.266-0.018-0.53-0.04-0.8-0.04c-6.627,0-11.999,5.372-11.999,12c0,6.607,5.34,11.965,11.938,11.998v0.003h1.062v-2h-0.604
		l-0.447-0.003c-5.485-0.027-9.948-4.513-9.948-9.998c0-5.514,4.485-10,9.999-10c0.175,0,0.347,0.014,0.52,0.025l0.148,0.01
		l1.316,0.088l0.598-1.176c2.492-4.899,7.443-7.942,12.92-7.942c6.79,0,12.75,4.814,14.172,11.448l0.317,1.482l1.514,0.095
		c4.203,0.262,7.496,3.763,7.496,7.971c0,4.397-3.565,7.977-7.957,8c-0.05-0.003-0.093-0.005-0.137-0.007l-0.906,0.007v2h0.863
		v-0.007c0.046,0.001,0.091,0.007,0.137,0.007c5.521,0,10-4.477,10-10C-258.549-69.528-262.693-73.859-267.921-74.185z"/>
	
		<rect x="-299.115" y="-56.22" transform="matrix(-0.5736 -0.8191 0.8191 -0.5736 -416.6676 -327.3239)" width="11.183" height="1.999"/>
	
		<rect x="-281.14" y="-56.22" transform="matrix(-0.5736 -0.8191 0.8191 -0.5736 -388.382 -312.6007)" width="11.183" height="1.999"/>
	<polygon points="-282.707,-51.214 -280.938,-51.214 -280.507,-51.214 -278.497,-51.214 -284.911,-60.375 -286.549,-59.228 
		-282.338,-53.214 -284.108,-53.214 -286.549,-53.214 -285.277,-51.397 -284.165,-49.809 -279.549,-43.214 -277.91,-44.36 
		-282.526,-50.956 	"/>
</g>
<g>
	<rect x="-193.073" y="-93.651" width="2" height="7.973"/>
	<rect x="-212.073" y="-74.737" width="7.973" height="2"/>
	<rect x="-207.4" y="-86.004" transform="matrix(0.7071 0.7071 -0.7071 0.7071 -119.6852 118.9377)" width="7.974" height="2"/>
	<rect x="-181.891" y="-88.986" transform="matrix(0.7071 0.7071 -0.7071 0.7071 -113.086 103.0137)" width="2" height="7.972"/>
	<path d="M-162.562-67.861c-1.444-6.742-7.433-11.8-14.605-11.8c-2.185,0-4.258,0.47-6.126,1.313
		c-1.667-3.202-5.007-5.394-8.866-5.394c-5.522,0-10,4.477-10,9.999c0,2.46,0.899,4.702,2.373,6.442
		c-1.429,1.84-2.287,4.144-2.287,6.653c0,5.983,4.836,10.836,10.813,10.865v0.003h0.188v-2l-0.178-0.003
		c-4.864-0.023-8.822-4.001-8.822-8.865c0-4.89,3.978-8.868,8.867-8.868c0.15,0,0.299,0.012,0.447,0.022l0.148,0.01l1.314,0.085
		l0.597-1.175c2.225-4.372,6.644-7.089,11.532-7.089c6.062,0,11.382,4.298,12.649,10.219l0.318,1.483l1.514,0.094
		c3.708,0.23,6.612,3.319,6.612,7.03c0,3.878-3.144,7.035-7.017,7.057c-0.042-0.003-0.079-0.005-0.117-0.005l-0.866,0.005v2h0.819
		v-0.006c0.042,0.001,0.082,0.006,0.124,0.006c5.001,0,9.057-4.054,9.057-9.057C-154.073-63.645-157.827-67.566-162.562-67.861z
		 M-190.481-71.479c-0.241-0.016-0.48-0.036-0.725-0.036c-2.766,0-5.282,1.042-7.2,2.743c-1.092-1.367-1.753-3.09-1.753-4.971
		c0-4.41,3.589-7.999,8-7.999c3.091,0,5.76,1.773,7.091,4.345C-187.366-75.957-189.246-73.908-190.481-71.479z"/>
	
		<rect x="-192.652" y="-51.781" transform="matrix(-0.5736 -0.8191 0.8191 -0.5736 -252.7691 -233.1346)" width="11.183" height="1.999"/>
	
		<rect x="-174.677" y="-51.781" transform="matrix(-0.5736 -0.8191 0.8191 -0.5736 -224.4836 -218.4115)" width="11.183" height="1.999"/>
	<polygon points="-176.244,-46.775 -174.475,-46.775 -174.044,-46.775 -172.034,-46.775 -178.448,-55.937 -180.086,-54.789 
		-175.875,-48.775 -177.646,-48.775 -180.086,-48.775 -178.814,-46.959 -177.702,-45.37 -173.086,-38.775 -171.447,-39.922 
		-176.063,-46.518 	"/>
</g>
<g>
	<path d="M-60.724-70.819c-1.444-6.742-7.433-11.8-14.605-11.8c-1.799,0-3.522,0.32-5.118,0.904
		c-0.949-5.108-5.404-8.98-10.788-8.98c-0.413,0-0.819,0.027-1.222,0.071c0.744,1.112,1.179,2.448,1.179,3.886c0,3.865-3.134,7-7,7
		c-1.438,0-2.773-0.435-3.886-1.179c-0.044,0.401-0.071,0.809-0.071,1.222c0,3.712,1.845,6.987,4.661,8.979
		c-1.653,1.907-2.661,4.389-2.661,7.111c0,5.983,4.836,10.836,10.813,10.865v0.003h0.188v-2l-0.178-0.003
		c-4.864-0.023-8.822-4.001-8.822-8.865c0-4.89,3.978-8.868,8.867-8.868c0.15,0,0.299,0.012,0.447,0.022l0.148,0.01l1.314,0.085
		l0.597-1.175c2.225-4.372,6.644-7.089,11.532-7.089c6.062,0,11.382,4.298,12.649,10.219l0.318,1.483l1.514,0.094
		c3.708,0.23,6.612,3.319,6.612,7.03c0,3.878-3.144,7.035-7.017,7.057c-0.042-0.003-0.079-0.005-0.117-0.005l-0.866,0.005v2h0.819
		v-0.006c0.042,0.001,0.082,0.006,0.124,0.006c5.001,0,9.057-4.054,9.057-9.057C-52.235-66.603-55.989-70.524-60.724-70.819z
		 M-88.644-74.437c-0.241-0.016-0.48-0.036-0.725-0.036c-2.537,0-4.865,0.876-6.715,2.334c-2.012-1.294-3.487-3.354-3.976-5.776
		c0.582,0.117,1.178,0.177,1.78,0.177c4.963,0,9-4.037,9-9c0-0.603-0.06-1.198-0.177-1.78c3.733,0.753,6.629,3.824,7.133,7.641
		C-85.033-79.435-87.248-77.179-88.644-74.437z"/>
	
		<rect x="-90.815" y="-54.739" transform="matrix(-0.5736 -0.8191 0.8191 -0.5736 -90.0917 -154.3739)" width="11.183" height="1.999"/>
	
		<rect x="-72.84" y="-54.739" transform="matrix(-0.5736 -0.8191 0.8191 -0.5736 -61.8062 -139.6508)" width="11.183" height="1.999"/>
	<polygon points="-74.407,-49.733 -72.638,-49.733 -72.207,-49.733 -70.197,-49.733 -76.611,-58.895 -78.249,-57.747 
		-74.038,-51.733 -75.809,-51.733 -78.249,-51.733 -76.978,-49.917 -75.865,-48.328 -71.249,-41.733 -69.61,-42.88 -74.227,-49.476 
			"/>
</g>
<g>
	<g>
		<path d="M-471.286,15.636c-1.596-7.445-8.207-13.029-16.127-13.029c-6.423,0-11.977,3.678-14.702,9.035
			c-0.266-0.018-0.53-0.04-0.8-0.04c-6.627,0-11.999,5.372-11.999,12c0,6.607,5.34,11.965,11.938,11.998v0.003h2.062v-2h-1.604
			l-0.447-0.003c-5.485-0.027-9.948-4.513-9.948-9.998c0-5.514,4.485-10,9.999-10c0.175,0,0.347,0.014,0.52,0.025l0.148,0.01
			l1.316,0.088l0.598-1.176c2.492-4.899,7.443-7.942,12.92-7.942c6.79,0,12.75,4.814,14.172,11.448l0.317,1.482l1.514,0.095
			c4.203,0.262,7.496,3.763,7.496,7.971c0,4.397-3.565,7.977-7.957,8c-0.05-0.003-0.093-0.005-0.137-0.007l-2.043,0.007h-2.863v2
			h4.863v-0.007c0.046,0.001,0.091,0.007,0.137,0.007c5.521,0,10-4.477,10-10C-461.914,20.292-466.059,15.961-471.286,15.636z"/>
	</g>
	<g>
		<circle cx="-496.414" cy="29.179" r="1.5"/>
	</g>
	<g>
		<circle cx="-492.414" cy="35.103" r="1.5"/>
	</g>
	<g>
		<circle cx="-484.414" cy="35.103" r="1.5"/>
	</g>
	<g>
		<circle cx="-488.414" cy="29.179" r="1.5"/>
	</g>
	<g>
		<circle cx="-480.414" cy="29.179" r="1.5"/>
	</g>
	<g>
		<circle cx="-496.414" cy="41.124" r="1.5"/>
	</g>
	<g>
		<circle cx="-488.414" cy="41.124" r="1.5"/>
	</g>
	<g>
		<circle cx="-480.414" cy="41.124" r="1.5"/>
	</g>
</g>
<g>
	<g>
		<rect x="-395.5" y="0.158" width="2" height="7.973"/>
	</g>
	<g>
		<rect x="-414.5" y="19.072" width="7.973" height="2"/>
	</g>
	<g>
		<rect x="-409.827" y="7.806" transform="matrix(0.7071 0.7071 -0.7071 0.7071 -112.6412 289.5512)" width="7.974" height="2"/>
	</g>
	<g>
		<rect x="-384.318" y="4.824" transform="matrix(0.7071 0.7071 -0.7071 0.7071 -106.0421 273.6273)" width="2" height="7.972"/>
	</g>
	<g>
		<path d="M-364.988,25.948c-1.444-6.742-7.433-11.8-14.605-11.8c-2.185,0-4.258,0.47-6.127,1.313
			c-1.666-3.202-5.006-5.394-8.865-5.394c-5.522,0-10,4.477-10,9.999c0,2.46,0.898,4.702,2.373,6.442
			c-1.428,1.84-2.287,4.144-2.287,6.653c0,5.983,4.836,10.836,10.813,10.865v0.003h1.188v-2h-0.721l-0.457-0.003
			c-4.864-0.023-8.822-4.001-8.822-8.865c0-4.89,3.978-8.868,8.867-8.868c0.15,0,0.299,0.012,0.447,0.022l0.148,0.01l1.314,0.085
			l0.597-1.175c2.225-4.372,6.644-7.089,11.532-7.089c6.062,0,11.382,4.298,12.649,10.219l0.318,1.483l1.514,0.094
			c3.708,0.23,6.612,3.319,6.612,7.03c0,3.878-3.144,7.035-7.017,7.057c-0.042-0.003-0.079-0.005-0.117-0.005l-2.047,0.005h-1.819v2
			h3.819v-0.006c0.042,0.001,0.082,0.006,0.124,0.006c5.001,0,9.057-4.054,9.057-9.057C-356.5,30.165-360.254,26.243-364.988,25.948
			z M-392.908,22.331c-0.241-0.016-0.48-0.036-0.725-0.036c-2.766,0-5.281,1.042-7.2,2.743c-1.092-1.367-1.753-3.09-1.753-4.971
			c0-4.41,3.589-7.999,8-7.999c3.092,0,5.76,1.773,7.092,4.345C-389.793,17.853-391.672,19.901-392.908,22.331z"/>
	</g>
	<g>
		<circle cx="-389.011" cy="37.542" r="1.5"/>
	</g>
	<g>
		<circle cx="-385.011" cy="43.542" r="1.5"/>
	</g>
	<g>
		<circle cx="-377.011" cy="43.542" r="1.5"/>
	</g>
	<g>
		<circle cx="-381.011" cy="37.542" r="1.5"/>
	</g>
	<g>
		<circle cx="-373.011" cy="37.542" r="1.5"/>
	</g>
	<g>
		<circle cx="-389.011" cy="49.563" r="1.5"/>
	</g>
	<g>
		<circle cx="-381.011" cy="49.563" r="1.5"/>
	</g>
	<g>
		<circle cx="-373.011" cy="49.563" r="1.5"/>
	</g>
</g>
<g>
	<g>
		<path d="M-269.037,21.992c-1.444-6.742-7.433-11.8-14.605-11.8c-1.799,0-3.521,0.32-5.118,0.904
			c-0.949-5.108-5.404-8.98-10.788-8.98c-0.413,0-0.819,0.027-1.222,0.071c0.744,1.112,1.179,2.448,1.179,3.886c0,3.865-3.134,7-7,7
			c-1.438,0-2.773-0.435-3.886-1.179c-0.044,0.401-0.071,0.809-0.071,1.222c0,3.712,1.845,6.987,4.661,8.979
			c-1.653,1.907-2.661,4.389-2.661,7.111c0,5.983,4.836,10.836,10.813,10.865v0.003h1.188v-2h-0.721l-0.457-0.003
			c-4.864-0.023-8.822-4.001-8.822-8.865c0-4.89,3.978-8.868,8.867-8.868c0.15,0,0.299,0.012,0.447,0.022l0.148,0.01l1.314,0.085
			l0.597-1.175c2.225-4.372,6.644-7.089,11.532-7.089c6.062,0,11.382,4.298,12.649,10.219l0.318,1.483l1.514,0.094
			c3.708,0.23,6.612,3.319,6.612,7.03c0,3.878-3.144,7.035-7.017,7.057c-0.042-0.003-0.079-0.005-0.117-0.005l-2.047,0.005h-1.819v2
			h3.819v-0.006c0.042,0.001,0.082,0.006,0.124,0.006c5.001,0,9.057-4.054,9.057-9.057
			C-260.549,26.209-264.303,22.287-269.037,21.992z M-296.957,18.375c-0.241-0.016-0.48-0.036-0.725-0.036
			c-2.537,0-4.865,0.876-6.715,2.334c-2.012-1.294-3.486-3.354-3.976-5.776c0.582,0.117,1.178,0.177,1.78,0.177c4.963,0,9-4.037,9-9
			c0-0.603-0.06-1.198-0.177-1.78c3.733,0.753,6.629,3.824,7.134,7.64C-293.348,13.377-295.563,15.632-296.957,18.375z"/>
	</g>
	<g>
		<circle cx="-293.049" cy="33.585" r="1.5"/>
	</g>
	<g>
		<circle cx="-289.049" cy="39.585" r="1.5"/>
	</g>
	<g>
		<circle cx="-281.049" cy="39.585" r="1.5"/>
	</g>
	<g>
		<circle cx="-285.049" cy="33.585" r="1.5"/>
	</g>
	<g>
		<circle cx="-277.049" cy="33.585" r="1.5"/>
	</g>
	<g>
		<circle cx="-293.049" cy="45.606" r="1.5"/>
	</g>
	<g>
		<circle cx="-285.049" cy="45.606" r="1.5"/>
	</g>
	<g>
		<circle cx="-277.049" cy="45.606" r="1.5"/>
	</g>
</g>
<g>
	<path d="M42.128-76.894c-1.596-7.445-8.207-13.029-16.127-13.029c-6.423,0-11.977,3.678-14.702,9.035
		c-0.266-0.018-0.53-0.04-0.8-0.04c-6.627,0-11.999,5.372-11.999,12c0,6.607,5.34,11.965,11.938,11.998v0.003H12.5v-2h-1.604
		l-0.447-0.003C4.963-58.957,0.5-63.442,0.5-68.928c0-5.514,4.485-10,9.999-10c0.175,0,0.347,0.014,0.52,0.025l0.148,0.01
		l1.316,0.088l0.598-1.176c2.492-4.899,7.443-7.942,12.92-7.942c6.79,0,12.75,4.814,14.172,11.448l0.317,1.482l1.514,0.095
		c4.203,0.262,7.496,3.763,7.496,7.971c0,4.397-3.565,7.977-7.957,8c-0.05-0.003-0.093-0.005-0.137-0.007l-2.043,0.007H36.5v2h4.863
		v-0.007c0.046,0.001,0.091,0.007,0.137,0.007c5.521,0,10-4.477,10-10C51.5-72.237,47.355-76.568,42.128-76.894z"/>
	<circle cx="16.5" cy="-49.423" r="1.5"/>
	<circle cx="24.5" cy="-43.423" r="1.5"/>
	<circle cx="32.5" cy="-47.423" r="1.5"/>
	<rect x="15.5" y="-65.898" width="2" height="11.976"/>
	<polygon points="25.5,-47.958 25.5,-49.898 25.5,-61.898 23.5,-61.898 23.5,-49.898 23.5,-47.958 23.5,-47.923 25.5,-47.923 	"/>
	<polygon points="33.5,-52.146 33.5,-53.898 33.5,-65.898 31.5,-65.898 31.5,-53.898 31.5,-52.146 31.5,-51.923 33.5,-51.923 	"/>
</g>
<g>
	<rect x="-706.249" y="-5.28" width="2" height="7.973"/>
	<rect x="-725.249" y="13.634" width="7.973" height="2"/>
	<rect x="-720.576" y="2.367" transform="matrix(0.7071 0.7071 -0.7071 0.7071 -207.5031 507.6911)" width="7.974" height="2"/>
	<rect x="-695.067" y="-0.615" transform="matrix(0.7071 0.7071 -0.7071 0.7071 -200.9039 491.7671)" width="2" height="7.972"/>
	<path d="M-675.737,20.51c-1.444-6.742-7.433-11.8-14.605-11.8c-2.185,0-4.258,0.47-6.126,1.313
		c-1.667-3.202-5.007-5.394-8.866-5.394c-5.522,0-10,4.477-10,9.999c0,2.46,0.899,4.702,2.373,6.442
		c-1.429,1.84-2.287,4.144-2.287,6.653c0,5.983,4.836,10.836,10.813,10.865v0.003h1.188v-2h-0.721l-0.457-0.003
		c-4.864-0.023-8.822-4.001-8.822-8.865c0-4.89,3.978-8.868,8.867-8.868c0.15,0,0.299,0.012,0.447,0.022l0.148,0.01l1.314,0.085
		l0.597-1.175c2.225-4.372,6.644-7.089,11.532-7.089c6.062,0,11.382,4.298,12.649,10.219l0.318,1.483l1.514,0.094
		c3.708,0.23,6.612,3.319,6.612,7.03c0,3.878-3.144,7.035-7.017,7.057c-0.042-0.003-0.079-0.005-0.117-0.005l-2.047,0.005h-0.819v2
		h2.819v-0.006c0.042,0.001,0.082,0.006,0.124,0.006c5.001,0,9.057-4.054,9.057-9.057C-667.249,24.727-671.003,20.805-675.737,20.51
		z M-703.657,16.893c-0.241-0.016-0.48-0.036-0.725-0.036c-2.766,0-5.282,1.041-7.2,2.743c-1.092-1.366-1.753-3.09-1.753-4.971
		c0-4.41,3.589-7.999,8-7.999c3.091,0,5.76,1.773,7.091,4.345C-700.542,12.415-702.422,14.463-703.657,16.893z"/>
	<circle cx="-699.259" cy="47.08" r="1.5"/>
	<circle cx="-691.259" cy="53.08" r="1.5"/>
	<circle cx="-683.259" cy="49.08" r="1.5"/>
	<rect x="-700.259" y="30.604" width="2" height="11.976"/>
	<polygon points="-690.259,48.545 -690.259,46.604 -690.259,34.604 -692.259,34.604 -692.259,46.604 -692.259,48.545 
		-692.259,48.58 -690.259,48.58 	"/>
	<polygon points="-682.259,44.357 -682.259,42.604 -682.259,30.604 -684.259,30.604 -684.259,42.604 -684.259,44.357 
		-684.259,44.58 -682.259,44.58 	"/>
</g>
<g>
	<path d="M-575.135,17.512c-1.444-6.742-7.433-11.8-14.605-11.8c-1.799,0-3.522,0.32-5.118,0.904
		c-0.949-5.108-5.404-8.98-10.788-8.98c-0.413,0-0.819,0.027-1.222,0.071c0.744,1.112,1.179,2.448,1.179,3.886c0,3.865-3.134,7-7,7
		c-1.438,0-2.773-0.435-3.886-1.179c-0.044,0.401-0.071,0.809-0.071,1.222c0,3.712,1.845,6.987,4.661,8.979
		c-1.653,1.907-2.661,4.389-2.661,7.111c0,5.983,4.836,10.836,10.813,10.865v0.003h1.188v-2h-0.721l-0.457-0.003
		c-4.864-0.023-8.822-4.001-8.822-8.865c0-4.89,3.978-8.868,8.867-8.868c0.15,0,0.299,0.012,0.447,0.022l0.148,0.01l1.314,0.085
		l0.597-1.175c2.225-4.372,6.644-7.089,11.532-7.089c6.062,0,11.382,4.298,12.649,10.219l0.318,1.483l1.514,0.094
		c3.708,0.23,6.612,3.319,6.612,7.03c0,3.878-3.144,7.035-7.017,7.057c-0.042-0.003-0.079-0.005-0.117-0.005l-2.047,0.005h-0.819v2
		h2.819v-0.006c0.042,0.001,0.082,0.006,0.124,0.006c5.001,0,9.057-4.054,9.057-9.057C-566.646,21.729-570.4,17.807-575.135,17.512z
		 M-603.055,13.895c-0.241-0.016-0.48-0.036-0.725-0.036c-2.537,0-4.865,0.876-6.715,2.334c-2.012-1.294-3.487-3.354-3.976-5.776
		c0.582,0.117,1.178,0.177,1.78,0.177c4.963,0,9-4.037,9-9c0-0.603-0.06-1.198-0.177-1.78c3.733,0.753,6.629,3.824,7.133,7.64
		C-599.444,8.896-601.659,11.151-603.055,13.895z"/>
	<circle cx="-598.646" cy="44.086" r="1.5"/>
	<circle cx="-590.646" cy="50.086" r="1.5"/>
	<circle cx="-582.646" cy="46.086" r="1.5"/>
	<rect x="-599.646" y="27.61" width="2" height="11.976"/>
	<polygon points="-589.646,45.551 -589.646,43.61 -589.646,31.61 -591.646,31.61 -591.646,43.61 -591.646,45.551 -591.646,45.586 
		-589.646,45.586 	"/>
	<polygon points="-581.646,41.363 -581.646,39.61 -581.646,27.61 -583.646,27.61 -583.646,39.61 -583.646,41.363 -583.646,41.586 
		-581.646,41.586 	"/>
</g>
<g>
	<rect x="-723.249" y="121.952" width="56" height="2"/>
	<rect x="-719.249" y="127.952" width="50" height="2"/>
	<rect x="-713.249" y="133.952" width="36" height="2"/>
	<rect x="-721.249" y="115.952" width="52" height="2"/>
	<path d="M-709.375,107.947c0.175,0,0.347,0.014,0.519,0.025l0.149,0.01l1.316,0.088l0.598-1.176
		c2.493-4.899,7.443-7.942,12.92-7.942c6.79,0,12.75,4.814,14.171,11.448l0.318,1.482l1.514,0.095
		c1.207,0.075,2.335,0.425,3.336,0.975h3.286c-1.678-1.703-3.957-2.813-6.498-2.971c-1.596-7.445-8.207-13.029-16.127-13.029
		c-6.423,0-11.977,3.678-14.702,9.035c-0.266-0.018-0.53-0.04-0.8-0.04c-4.843,0-9.004,2.874-10.9,7.005h2.251
		C-716.293,109.966-713.068,107.947-709.375,107.947z"/>
</g>
<g>
	<rect x="-602.146" y="94.438" width="2" height="7.973"/>
	<rect x="-621.146" y="113.352" width="7.973" height="2"/>
	<rect x="-616.473" y="102.085" transform="matrix(0.7071 0.7071 -0.7071 0.7071 -106.501 463.2861)" width="7.974" height="2"/>
	<rect x="-590.965" y="99.103" transform="matrix(0.7071 0.7071 -0.7071 0.7071 -99.9019 447.3622)" width="2" height="7.972"/>
	<rect x="-612.146" y="128.312" width="50" height="2"/>
	<rect x="-608.146" y="134.312" width="44" height="2"/>
	<rect x="-602.146" y="139.312" width="30" height="2"/>
	<rect x="-610.146" y="122.312" width="46" height="2"/>
	<path d="M-609.238,120.312h0.771h1.927h1.012c1.472-1.087,3.283-1.737,5.249-1.737c0.15,0,0.299,0.012,0.447,0.022l0.148,0.01
		l1.314,0.085l0.597-1.175c2.225-4.372,6.644-7.089,11.532-7.089c5.945,0,11.168,4.139,12.563,9.884h2.043v-0.084
		c-1.444-6.742-7.433-11.8-14.605-11.8c-2.185,0-4.258,0.47-6.126,1.313c-1.667-3.202-5.007-5.394-8.866-5.394
		c-5.522,0-10,4.477-10,9.999C-611.232,116.588-610.484,118.646-609.238,120.312z M-601.232,106.348c3.091,0,5.76,1.773,7.091,4.345
		c-2.298,1.44-4.178,3.488-5.413,5.918c-0.241-0.016-0.48-0.036-0.725-0.036c-2.764,0-5.274,1.045-7.189,2.745
		c-1.097-1.366-1.764-3.089-1.764-4.973C-609.232,109.937-605.644,106.348-601.232,106.348z"/>
</g>
<g>
	<rect x="-513.402" y="124.874" width="50" height="2"/>
	<rect x="-509.402" y="130.874" width="44" height="2"/>
	<rect x="-503.402" y="135.874" width="30" height="2"/>
	<rect x="-511.402" y="118.874" width="46" height="2"/>
	<path d="M-509.76,116.874h0.037h1.884h1.055c1.472-1.087,3.283-1.737,5.249-1.737c0.15,0,0.299,0.012,0.447,0.022l0.148,0.01
		l1.314,0.085l0.597-1.175c2.225-4.372,6.644-7.089,11.532-7.089c5.945,0,11.168,4.139,12.563,9.884h2.043v-0.084
		c-1.444-6.742-7.433-11.8-14.605-11.8c-1.799,0-3.521,0.32-5.117,0.903c-0.945-5.111-5.402-8.987-10.789-8.987
		c-0.413,0-0.819,0.027-1.222,0.071c0.744,1.112,1.179,2.448,1.179,3.886c0,3.865-3.134,7-7,7c-1.438,0-2.773-0.435-3.886-1.179
		c-0.044,0.401-0.071,0.809-0.071,1.222C-514.402,111.61-512.566,114.881-509.76,116.874z M-510.445,109.863c4.963,0,9-4.037,9-9
		c0-0.603-0.06-1.198-0.177-1.78c3.735,0.753,6.633,3.828,7.134,7.647c-2.712,1.443-4.927,3.699-6.322,6.442
		c-0.241-0.016-0.48-0.036-0.725-0.036c-2.534,0-4.855,0.879-6.701,2.335c-2.02-1.293-3.5-3.356-3.989-5.785
		C-511.644,109.804-511.048,109.863-510.445,109.863z"/>
</g>
<g>
	<path d="M-381.511,127.888h-19.474l-0.578-0.003c-5.485-0.027-9.948-4.513-9.948-9.998c0-5.514,4.485-10,9.999-10
		c0.175,0,0.347,0.014,0.519,0.025l0.149,0.01l1.316,0.088l0.598-1.176c2.493-4.899,7.443-7.942,12.92-7.942
		c6.79,0,12.75,4.814,14.171,11.448l0.318,1.482l1.514,0.095c1.822,0.113,3.463,0.845,4.746,1.971h2.732
		c-1.707-2.262-4.348-3.78-7.354-3.967c-1.596-7.445-8.207-13.029-16.127-13.029c-6.423,0-11.977,3.678-14.702,9.035
		c-0.266-0.018-0.53-0.04-0.8-0.04c-6.627,0-11.999,5.372-11.999,12c0,6.607,5.34,11.965,11.938,11.998v0.003h20.062
		c2.205,0,4,1.794,4,4s-1.795,4-4,4v2c3.314,0,6-2.686,6-6C-375.511,130.574-378.196,127.888-381.511,127.888z"/>
	<path d="M-377.511,123.888h-15.988v2h15.988c3.314,0,6-2.687,6-6c0-3.314-2.686-6-6-6v2c2.205,0,4,1.794,4,4
		S-375.306,123.888-377.511,123.888z"/>
	<path d="M-364.511,117.888c1.654,0,3,1.346,3,3s-1.346,3-3,3c-0.043,0-0.083-0.011-0.126-0.013h-4.862
		c0.003,0.005,0.009,0.008,0.012,0.013h-0.023v2h5.5v-0.051c2.523-0.254,4.5-2.358,4.5-4.949c0-2.762-2.238-5-5-5V117.888z"/>
	<path d="M-360.511,127.888h-13v2h9.022c-0.004,0.005-0.008,0.008-0.011,0.013h3.862c0.043-0.002,0.083-0.013,0.126-0.013
		c1.654,0,3,1.346,3,3s-1.346,3-3,3v2c2.762,0,5-2.238,5-5S-357.749,127.888-360.511,127.888z"/>
	<rect x="-399.511" y="123.888" width="4" height="2"/>
</g>
<path d="M-589.072-271.216c6.95,1.305,12.226,7.419,12.226,14.742c0,8.272-6.729,15.002-15,15.002
	c-6.79,0-12.531-4.49-14.366-10.728c1.398,0.461,2.867,0.698,4.366,0.698c7.72,0,14-6.281,14-14.001
	C-587.847-267.486-588.271-269.431-589.072-271.216 M-591.847-273.473c-0.338,0-0.668,0.031-1,0.051c1.861,2.113,3,4.881,3,7.92
	c0,6.627-5.372,12.001-12,12.001c-2.599,0-4.998-0.835-6.963-2.239c0.387,9.047,7.821,16.269,16.963,16.269
	c9.39,0,17-7.612,17-17.002S-582.457-273.473-591.847-273.473L-591.847-273.473z"/>
<g>
	<path d="M-695.242-268.478c-7.18,0-13,5.819-13,12.999c0,7.181,5.82,13.002,13,13.002s13-5.821,13-13.002
		C-682.242-262.658-688.063-268.478-695.242-268.478z M-695.242-244.477c-6.065,0-11-4.936-11-11.002
		c0-6.064,4.935-10.999,11-10.999s11,4.935,11,10.999C-684.242-249.412-689.177-244.477-695.242-244.477z"/>
	<rect x="-696.249" y="-281.472" width="2" height="10"/>
	<rect x="-696.249" y="-239.472" width="2" height="10"/>
	<rect x="-721.242" y="-256.472" width="9.993" height="2"/>
	<rect x="-679.249" y="-256.472" width="10.007" height="2"/>
	<rect x="-681.549" y="-275.386" transform="matrix(0.7071 0.7071 -0.7071 0.7071 -390.3752 402.0868)" width="2" height="10.409"/>
	
		<rect x="-710.958" y="-245.977" transform="matrix(-0.7071 -0.7071 0.7071 -0.7071 -1041.7227 -913.0396)" width="2" height="10.41"/>
	<rect x="-715.158" y="-271.176" transform="matrix(0.7071 0.7071 -0.7071 0.7071 -398.9841 422.8802)" width="10.409" height="2"/>
	<rect x="-685.75" y="-241.767" transform="matrix(-0.7072 -0.7071 0.7071 -0.7072 -991.558 -892.2125)" width="10.41" height="2"/>
</g>
<g>
	<rect x="-297.076" y="89.39" width="2" height="7.973"/>
	<rect x="-316.049" y="108.376" width="7.973" height="2"/>
	<rect x="-311.323" y="97.157" transform="matrix(0.7071 0.7071 -0.7071 0.7071 -20.609 246.0689)" width="7.974" height="2"/>
	<rect x="-285.814" y="94.175" transform="matrix(0.7071 0.7071 -0.7071 0.7071 -14.0098 230.145)" width="2" height="7.972"/>
	<path d="M-282.049,131.39l0.005-0.007h-12.536l-0.594-0.003c-4.864-0.024-8.822-4.001-8.822-8.865c0-4.89,3.978-8.868,8.867-8.868
		c0.15,0,0.299,0.012,0.447,0.021l0.148,0.011l1.314,0.085l0.597-1.174c2.225-4.373,6.644-7.09,11.532-7.09
		c5.916,0,11.114,4.099,12.54,9.8h2.065c-1.444-6.742-7.433-11.8-14.605-11.8c-2.185,0-4.258,0.47-6.126,1.313
		c-1.667-3.202-5.007-5.394-8.866-5.394c-5.522,0-10,4.477-10,9.999c0,2.46,0.899,4.702,2.373,6.442
		c-1.429,1.84-2.287,4.144-2.287,6.653c0,5.983,4.836,10.836,10.813,10.865v0.003h13.135v0.007c2.205,0,4,1.794,4,4s-1.795,4-4,4v2
		c3.314,0,6-2.686,6-6C-276.049,134.076-278.734,131.39-282.049,131.39z M-296.082,101.42c3.091,0,5.76,1.773,7.091,4.345
		c-2.298,1.439-4.178,3.488-5.413,5.918c-0.241-0.016-0.48-0.036-0.725-0.036c-2.766,0-5.282,1.042-7.2,2.743
		c-1.092-1.367-1.753-3.09-1.753-4.971C-304.082,105.009-300.493,101.42-296.082,101.42z"/>
	<path d="M-278.049,127.39h-9.988v2h9.988c3.314,0,6-2.687,6-6c0-3.314-2.686-6-6-6v2c2.205,0,4,1.794,4,4
		S-275.844,127.39-278.049,127.39z"/>
	<path d="M-270.025,127.39h-0.023v2h5.5v-0.051c2.523-0.254,4.5-2.358,4.5-4.949c0-2.762-2.238-5-5-5v2c1.654,0,3,1.346,3,3
		s-1.346,3-3,3c-0.043,0-0.083-0.011-0.126-0.013h-4.862C-270.034,127.382-270.028,127.386-270.025,127.39z"/>
	<path d="M-261.049,131.39h-13v2h9.022c-0.004,0.004-0.008,0.008-0.011,0.013h3.862c0.043-0.002,0.083-0.013,0.126-0.013
		c1.654,0,3,1.346,3,3s-1.346,3-3,3v2c2.762,0,5-2.238,5-5S-258.287,131.39-261.049,131.39z"/>
	<rect x="-294.049" y="127.39" width="4" height="2"/>
</g>
<g>
	<path d="M-182.087,129.384l0.005-0.007h-12.536l-0.594-0.003c-4.864-0.024-8.822-4.001-8.822-8.865c0-4.89,3.978-8.868,8.867-8.868
		c0.15,0,0.299,0.012,0.447,0.021l0.148,0.011l1.314,0.085l0.597-1.174c2.225-4.373,6.644-7.09,11.532-7.09
		c5.916,0,11.114,4.099,12.54,9.8h2.065c-1.444-6.742-7.433-11.8-14.605-11.8c-1.806,0-3.536,0.322-5.138,0.91
		c-0.938-5.123-5.4-9.01-10.794-9.01c-0.413,0-0.819,0.027-1.222,0.071c0.744,1.112,1.179,2.448,1.179,3.886c0,3.865-3.134,7-7,7
		c-1.438,0-2.773-0.435-3.886-1.179c-0.044,0.401-0.071,0.809-0.071,1.222c0,3.725,1.858,7.009,4.69,8.998
		c-1.655,1.907-2.665,4.392-2.665,7.116c0,5.983,4.836,10.836,10.813,10.865v0.003h13.135v0.007c2.205,0,4,1.794,4,4s-1.795,4-4,4v2
		c3.314,0,6-2.686,6-6C-176.087,132.07-178.772,129.384-182.087,129.384z M-205.883,106.175c0.582,0.117,1.178,0.177,1.78,0.177
		c4.963,0,9-4.037,9-9c0-0.603-0.06-1.198-0.177-1.78c3.744,0.755,6.646,3.842,7.138,7.674c-2.702,1.444-4.909,3.696-6.301,6.432
		c-0.241-0.016-0.48-0.036-0.725-0.036c-2.535,0-4.861,0.875-6.71,2.33C-203.905,110.679-205.392,108.61-205.883,106.175z"/>
	<path d="M-178.087,125.384h-9.988v2h9.988c3.314,0,6-2.687,6-6c0-3.314-2.686-6-6-6v2c2.205,0,4,1.794,4,4
		S-175.882,125.384-178.087,125.384z"/>
	<path d="M-170.063,125.384h-0.023v2h5.5v-0.051c2.523-0.254,4.5-2.358,4.5-4.949c0-2.762-2.238-5-5-5v2c1.654,0,3,1.346,3,3
		s-1.346,3-3,3c-0.043,0-0.083-0.011-0.126-0.013h-4.862C-170.072,125.376-170.066,125.38-170.063,125.384z"/>
	<path d="M-161.087,129.384h-13v2h9.022c-0.004,0.004-0.008,0.008-0.011,0.013h3.862c0.043-0.002,0.083-0.013,0.126-0.013
		c1.654,0,3,1.346,3,3s-1.346,3-3,3v2c2.762,0,5-2.238,5-5S-158.325,129.384-161.087,129.384z"/>
	<rect x="-194.087" y="125.384" width="4" height="2"/>
</g>
<g>
	<rect x="-81.194" y="91.952" width="2" height="10"/>
	<rect x="-106.188" y="116.952" width="9.993" height="2"/>
	<rect x="-66.495" y="98.038" transform="matrix(0.7071 0.7071 -0.7071 0.7071 53.8207 76.5508)" width="2" height="10.409"/>
	<rect x="-100.103" y="102.248" transform="matrix(0.7071 0.7071 -0.7071 0.7071 45.2118 97.3442)" width="10.409" height="2"/>
	<path d="M-76.194,131.952h-24v2h24c2.205,0,4,1.794,4,4s-1.795,4-4,4v2c3.314,0,6-2.686,6-6
		C-70.194,134.639-72.88,131.952-76.194,131.952z"/>
	<path d="M-64.171,127.952h-0.023v2h5.5v-0.051c2.523-0.254,4.5-2.358,4.5-4.949c0-2.762-2.238-5-5-5v2c1.654,0,3,1.346,3,3
		s-1.346,3-3,3c-0.043,0-0.083-0.011-0.126-0.013h-4.862C-64.18,127.944-64.174,127.948-64.171,127.952z"/>
	<path d="M-55.194,131.952h-13v2h9.022c-0.004,0.004-0.008,0.008-0.011,0.013h3.862c0.043-0.002,0.083-0.013,0.126-0.013
		c1.654,0,3,1.346,3,3s-1.346,3-3,3v2c2.762,0,5-2.238,5-5S-52.433,131.952-55.194,131.952z"/>
	<path d="M-88.485,127.952h-11.709v2h12.012h0.822h15.166c3.314,0,6-2.687,6-6c0-3.314-2.686-6-6-6v2c2.205,0,4,1.794,4,4
		s-1.795,4-4,4h-12.538c-3.802-1.734-6.455-5.563-6.455-10.007c0-6.064,4.935-10.999,11-10.999c5.384,0,9.868,3.891,10.81,9.006
		h2.021c-0.961-6.23-6.331-11.006-12.831-11.006c-7.18,0-13,5.819-13,12.999C-93.188,121.971-91.357,125.567-88.485,127.952z"/>
</g>
<g>
	<path d="M24.032,125.396h-24v2h24c2.205,0,4,1.794,4,4s-1.795,4-4,4v2c3.314,0,6-2.686,6-6
		C30.032,128.082,27.347,125.396,24.032,125.396z"/>
	<path d="M41.532,123.396v-0.051c2.523-0.254,4.5-2.358,4.5-4.949c0-2.762-2.238-5-5-5v2c1.654,0,3,1.346,3,3s-1.346,3-3,3
		c-0.043,0-0.083-0.011-0.126-0.013h-4.862c0.004,0.005,0.009,0.009,0.012,0.013h-0.023v2H41.532z"/>
	<path d="M45.032,125.396h-13v2h9.022c-0.003,0.004-0.007,0.008-0.011,0.013h3.862c0.043-0.002,0.083-0.013,0.126-0.013
		c1.654,0,3,1.346,3,3s-1.346,3-3,3v2c2.762,0,5-2.238,5-5S47.794,125.396,45.032,125.396z"/>
	<path d="M12.866,123.396h15.166c3.314,0,6-2.687,6-6c0-3.314-2.686-6-6-6v2c2.205,0,4,1.794,4,4s-1.795,4-4,4H15.446
		c-2.596-1.188-4.658-3.339-5.69-6.034c0.849,0.204,1.724,0.309,2.612,0.309c6.168,0,11.187-5.019,11.187-11.188
		c0-1.276-0.22-2.532-0.64-3.717c4.046,1.102,7.168,4.459,7.937,8.63h2.018c-0.964-6.237-6.338-11.016-12.846-11.016
		c-0.259,0-0.511,0.024-0.766,0.039c1.425,1.618,2.297,3.737,2.297,6.063c0,5.072-4.112,9.188-9.187,9.188
		c-1.988,0-3.826-0.641-5.33-1.715c0.162,3.801,1.962,7.165,4.699,9.44H0.032v2h12.012H12.866z"/>
</g>
<g>
	<path d="M-695.749,210.589h-20c-1.103,0-2-0.897-2-2s0.897-2,2-2h3.445h0.555v-2h-4c-2.209,0-4,1.791-4,4s1.791,4,4,4h20
		c2.205,0,4,1.794,4,4s-1.795,4-4,4v2c3.314,0,6-2.686,6-6C-689.749,213.275-692.435,210.589-695.749,210.589z"/>
	<path d="M-693.749,194.589v2c2.205,0,4,1.794,4,4s-1.795,4-4,4h-15.988v2h15.988c3.314,0,6-2.687,6-6
		C-687.749,197.274-690.435,194.589-693.749,194.589z"/>
	<path d="M-687.749,206.589v2h5.5v-0.051c2.523-0.254,4.5-2.358,4.5-4.949c0-2.762-2.238-5-5-5v2c1.654,0,3,1.346,3,3s-1.346,3-3,3
		c-0.043,0-0.083-0.011-0.126-0.013h-4.862c0.003,0.005,0.009,0.009,0.012,0.013H-687.749z"/>
	<path d="M-676.749,210.589h-11v2h7.022c-0.004,0.004-0.008,0.008-0.011,0.013h3.862c0.043-0.002,0.083-0.013,0.126-0.013
		c1.654,0,3,1.346,3,3s-1.346,3-3,3v2c2.762,0,5-2.238,5-5S-673.987,210.589-676.749,210.589z"/>
</g>
<path d="M-159.457,196.936v-0.038h-38.376c-1.103,0-2-0.897-2-2s0.897-2,2-2h33c2.762,0,5-2.238,5-5s-2.238-5-5-5h-37.875v0.008
	c-0.042-0.001-0.083-0.008-0.125-0.008c-2.762,0-5,2.238-5,5s2.238,5,5,5v-2c-1.654,0-3-1.346-3-3s1.346-3,3-3h0.125h3.853h34.022
	c1.654,0,3,1.346,3,3s-1.346,3-3,3h-33c-2.209,0-4,1.791-4,4s1.791,4,4,4h38c1.103,0,2,0.897,2,2s-0.897,2-2,2h-32
	c-2.209,0-4,1.791-4,4s1.791,4,4,4h22c1.103,0,2,0.897,2,2s-0.897,2-2,2h-24.01v0.001c-2.204,0.006-3.99,1.793-3.99,3.999
	s1.786,3.993,3.99,3.999v0.001h12.01c1.103,0,2,0.897,2,2s-0.897,2-2,2h-2c-2.209,0-4,1.791-4,4s1.791,4,4,4v-2
	c-1.103,0-2-0.897-2-2s0.897-2,2-2h2c2.209,0,4-1.791,4-4s-1.791-4-4-4h-12c-1.103,0-2-0.897-2-2s0.897-2,2-2h24
	c2.209,0,4-1.791,4-4c0-2.152-1.704-3.895-3.834-3.983v-0.017h-22.166c-1.103,0-2-0.897-2-2s0.897-2,2-2h32c2.209,0,4-1.791,4-4
	C-155.833,198.817-157.427,197.128-159.457,196.936z"/>
<path d="M25.958,187.613v-2.024h-2v2.024c-13.01,0.513-23.462,10.965-23.975,23.976h1.674c1.14-1.222,2.748-2,4.551-2
	c2.26,0,4.233,1.203,5.331,3h1.838c1.098-1.797,3.071-3,5.331-3c2.204,0,4.137,1.144,5.25,2.866v15.134c0,2.21,1.791,4,4,4
	s4-1.79,4-4h-2c0,1.103-0.897,2-2,2s-2-0.897-2-2v-15.134c1.113-1.723,3.046-2.866,5.25-2.866c2.26,0,4.233,1.203,5.331,3h1.838
	c1.098-1.797,3.071-3,5.331-3c1.803,0,3.411,0.778,4.551,2h1.674C49.42,198.578,38.968,188.126,25.958,187.613z M43.708,207.589
	c-2.496,0-4.736,1.114-6.25,2.87c-1.514-1.756-3.754-2.87-6.25-2.87s-4.736,1.114-6.25,2.87c-1.514-1.756-3.754-2.87-6.25-2.87
	s-4.736,1.114-6.25,2.87c-1.514-1.756-3.755-2.87-6.25-2.87c-1.402,0-2.731,0.351-3.897,0.975
	c1.909-10.769,11.339-18.975,22.647-18.975s20.738,8.206,22.647,18.975C46.439,207.939,45.11,207.589,43.708,207.589z"/>
<g>
	<path d="M-379.337,311.901v-17.105c0-2.762-2.238-5-5-5s-5,2.238-5,5v17.105c-1.236,1.263-2,2.988-2,4.895c0,3.866,3.134,7,7,7
		s7-3.134,7-7C-377.337,314.89-378.101,313.164-379.337,311.901z M-384.337,321.796c-2.757,0-5-2.243-5-5
		c0-1.313,0.508-2.554,1.429-3.495l0.571-0.583v-0.816v-17.105c0-1.654,1.346-3,3-3s3,1.346,3,3v17.105v0.816l0.571,0.583
		c0.921,0.941,1.429,2.183,1.429,3.495C-379.337,319.553-381.58,321.796-384.337,321.796z"/>
	<path d="M-383.337,313.972v-15.176h-2v15.176c-1.167,0.413-2.008,1.516-2.008,2.824c0,1.662,1.347,3.008,3.008,3.008
		c1.662,0,3.008-1.346,3.008-3.008C-381.329,315.487-382.169,314.385-383.337,313.972z M-384.337,317.804
		c-0.556,0-1.008-0.452-1.008-1.008s0.452-1.008,1.008-1.008s1.008,0.452,1.008,1.008S-383.781,317.804-384.337,317.804z"/>
</g>
<g>
	<path d="M-279.549,311.901v-17.105c0-2.762-2.238-5-5-5s-5,2.238-5,5v17.105c-1.236,1.263-2,2.988-2,4.895c0,3.866,3.134,7,7,7
		s7-3.134,7-7C-277.549,314.89-278.313,313.164-279.549,311.901z M-284.549,321.796c-2.757,0-5-2.243-5-5
		c0-1.313,0.508-2.554,1.429-3.495l0.571-0.583v-0.816v-17.105c0-1.654,1.346-3,3-3s3,1.346,3,3v17.105v0.816l0.571,0.583
		c0.921,0.941,1.429,2.183,1.429,3.495C-279.549,319.553-281.792,321.796-284.549,321.796z"/>
	<path d="M-283.549,313.972v-20.176h-2v20.176c-1.167,0.413-2.008,1.516-2.008,2.824c0,1.662,1.347,3.008,3.008,3.008
		c1.662,0,3.008-1.346,3.008-3.008C-281.541,315.487-282.381,314.385-283.549,313.972z M-284.549,317.804
		c-0.556,0-1.008-0.452-1.008-1.008s0.452-1.008,1.008-1.008s1.008,0.452,1.008,1.008S-283.993,317.804-284.549,317.804z"/>
</g>
<g>
	<path d="M-482.446,311.901v-17.105c0-2.762-2.238-5-5-5s-5,2.238-5,5v17.105c-1.236,1.263-2,2.988-2,4.895c0,3.866,3.134,7,7,7
		s7-3.134,7-7C-480.446,314.89-481.21,313.164-482.446,311.901z M-487.446,321.796c-2.757,0-5-2.243-5-5
		c0-1.313,0.508-2.554,1.429-3.495l0.571-0.583v-0.816v-17.105c0-1.654,1.346-3,3-3s3,1.346,3,3v17.105v0.816l0.571,0.583
		c0.921,0.941,1.429,2.183,1.429,3.495C-482.446,319.553-484.689,321.796-487.446,321.796z"/>
	<path d="M-486.446,313.972v-10.176h-2v10.176c-1.167,0.413-2.008,1.516-2.008,2.824c0,1.662,1.347,3.008,3.008,3.008
		c1.662,0,3.008-1.346,3.008-3.008C-484.438,315.487-485.278,314.385-486.446,313.972z M-487.446,317.804
		c-0.556,0-1.008-0.452-1.008-1.008s0.452-1.008,1.008-1.008s1.008,0.452,1.008,1.008S-486.891,317.804-487.446,317.804z"/>
</g>
<g>
	<path d="M-586.092,311.901v-17.105c0-2.762-2.238-5-5-5s-5,2.238-5,5v17.105c-1.236,1.263-2,2.988-2,4.895c0,3.866,3.134,7,7,7
		s7-3.134,7-7C-584.092,314.89-584.855,313.164-586.092,311.901z M-591.092,321.796c-2.757,0-5-2.243-5-5
		c0-1.313,0.508-2.554,1.429-3.495l0.571-0.583v-0.816v-17.105c0-1.654,1.346-3,3-3s3,1.346,3,3v17.105v0.816l0.571,0.583
		c0.921,0.941,1.429,2.183,1.429,3.495C-586.092,319.553-588.335,321.796-591.092,321.796z"/>
	<path d="M-590.092,313.972v-5.176h-2v5.176c-1.167,0.413-2.008,1.516-2.008,2.824c0,1.662,1.347,3.008,3.008,3.008
		c1.662,0,3.008-1.346,3.008-3.008C-588.084,315.487-588.924,314.385-590.092,313.972z M-591.092,317.804
		c-0.556,0-1.008-0.452-1.008-1.008s0.452-1.008,1.008-1.008s1.008,0.452,1.008,1.008S-590.536,317.804-591.092,317.804z"/>
</g>
<g>
	<path d="M-690.749,311.901v-17.105c0-2.762-2.238-5-5-5s-5,2.238-5,5v17.105c-1.236,1.263-2,2.988-2,4.895c0,3.866,3.134,7,7,7
		s7-3.134,7-7C-688.749,314.89-689.513,313.164-690.749,311.901z M-695.749,321.796c-2.757,0-5-2.243-5-5
		c0-1.313,0.508-2.554,1.429-3.495l0.571-0.583v-0.816v-17.105c0-1.654,1.346-3,3-3s3,1.346,3,3v17.105v0.816l0.571,0.583
		c0.921,0.941,1.429,2.183,1.429,3.495C-690.749,319.553-692.992,321.796-695.749,321.796z"/>
	<path d="M-695.749,313.788c-1.661,0-3.008,1.347-3.008,3.008c0,1.662,1.347,3.008,3.008,3.008c1.662,0,3.008-1.346,3.008-3.008
		C-692.741,315.135-694.087,313.788-695.749,313.788z M-695.749,317.804c-0.556,0-1.008-0.452-1.008-1.008s0.452-1.008,1.008-1.008
		s1.008,0.452,1.008,1.008S-695.193,317.804-695.749,317.804z"/>
</g>
<g>
	<path d="M-190.824,292.108c-2.209,0-4,1.791-4,4c0,2.21,1.791,4,4,4c2.211,0,4-1.79,4-4
		C-186.824,293.899-188.613,292.108-190.824,292.108z M-190.824,298.108c-1.103,0-2-0.897-2-2s0.897-2,2-2s2,0.897,2,2
		S-189.722,298.108-190.824,298.108z"/>
	<path d="M-176.824,320.108c-4.41,0-7.999-3.589-7.999-7.999v-4.002c0-4.41,3.589-7.999,7.999-7.999
		c2.715,0,5.115,1.362,6.563,3.437l1.43-1.43c-1.824-2.429-4.72-4.007-7.992-4.007c-5.522,0-9.999,4.478-9.999,9.999v4.002
		c0,5.521,4.477,9.999,9.999,9.999c3.272,0,6.168-1.579,7.992-4.008l-1.43-1.43C-171.708,318.745-174.108,320.108-176.824,320.108z"
		/>
</g>
<g>
	<path d="M-86.128,291.987c-2.209,0-4,1.791-4,4c0,2.21,1.791,4,4,4c2.211,0,4-1.79,4-4
		C-82.128,293.778-83.917,291.987-86.128,291.987z M-86.128,297.987c-1.103,0-2-0.897-2-2s0.897-2,2-2s2,0.897,2,2
		S-85.025,297.987-86.128,297.987z"/>
	<polygon points="-66.253,300.108 -66.253,298.108 -78.253,298.108 -80.253,298.108 -80.253,322.108 -78.253,322.108 
		-78.253,310.108 -70.253,310.108 -70.253,308.108 -78.253,308.108 -78.253,300.108 	"/>
</g>
<g>
	<path d="M24.958,295.8c-7.179,0-13,5.82-13,13s5.821,13,13,13s13-5.82,13-13S32.137,295.8,24.958,295.8z M24.958,319.8
		c-6.065,0-11-4.935-11-11s4.935-11,11-11s11,4.935,11,11S31.023,319.8,24.958,319.8z"/>
	<path d="M20.691,313.042l6.363-2.121l2.121-6.364l-6.363,2.122L20.691,313.042z M24.394,308.26l1.62-0.54l-0.54,1.62l-1.62,0.54
		L24.394,308.26z"/>
</g>
<g>
	<path d="M-695.749,386.317c-7.179,0-13,5.82-13,13s5.821,13,13,13s13-5.82,13-13S-688.57,386.317-695.749,386.317z
		 M-695.749,410.317c-6.065,0-11-4.934-11-11c0-6.064,4.935-11,11-11s11,4.936,11,11
		C-684.749,405.384-689.684,410.317-695.749,410.317z"/>
	<path d="M-693.188,397.739l-2.586-4.422l-2.529,4.33h0.007c-0.299,0.467-0.478,1.018-0.478,1.613c0,1.656,1.343,3,3,3s3-1.344,3-3
		c0-0.559-0.162-1.074-0.428-1.521H-693.188z M-695.773,400.261c-0.552,0-1-0.449-1-1c0-0.188,0.055-0.367,0.162-0.535l0.864-1.355
		l0.826,1.391c0.098,0.164,0.147,0.332,0.147,0.5C-694.773,399.812-695.222,400.261-695.773,400.261z"/>
</g>
<g>
	<path d="M-590.965,386.317c-7.18,0-13,5.82-13,13s5.82,13,13,13s13-5.82,13-13S-583.785,386.317-590.965,386.317z
		 M-590.965,410.317c-6.065,0-11-4.934-11-11c0-6.064,4.935-11,11-11s11,4.936,11,11
		C-579.965,405.384-584.899,410.317-590.965,410.317z"/>
	<path d="M-589.376,396.737c-0.467-0.299-1.018-0.477-1.613-0.477c-1.658,0-3,1.342-3,3c0,1.656,1.342,3,3,3
		c0.557,0,1.072-0.162,1.52-0.428v0.014l4.422-2.586l-4.328-2.529V396.737z M-590.491,400.112c-0.164,0.098-0.332,0.148-0.498,0.148
		c-0.552,0-1-0.449-1-1c0-0.553,0.448-1,1-1c0.188,0,0.368,0.053,0.535,0.16l1.355,0.865L-590.491,400.112z"/>
</g>
<g>
	<path d="M-487.914,386.317c-7.18,0-13,5.82-13,13s5.82,13,13,13s13-5.82,13-13S-480.734,386.317-487.914,386.317z
		 M-487.914,410.317c-6.065,0-11-4.934-11-11c0-6.064,4.935-11,11-11s11,4.936,11,11
		C-476.914,405.384-481.849,410.317-487.914,410.317z"/>
	<path d="M-487.914,396.261c-1.656,0-3,1.342-3,3c0,0.557,0.162,1.072,0.428,1.52h-0.014l2.586,4.422l2.529-4.328h-0.006
		c0.299-0.467,0.477-1.018,0.477-1.613C-484.914,397.603-486.256,396.261-487.914,396.261z M-487.075,399.796l-0.865,1.355
		l-0.826-1.393c-0.098-0.164-0.147-0.332-0.147-0.498c0-0.553,0.448-1,1-1s1,0.447,1,1
		C-486.914,399.448-486.968,399.628-487.075,399.796z"/>
</g>
<g>
	<path d="M-384.5,386.317c-7.179,0-13,5.82-13,13s5.821,13,13,13s13-5.82,13-13S-377.321,386.317-384.5,386.317z M-384.5,410.317
		c-6.065,0-11-4.934-11-11c0-6.064,4.935-11,11-11s11,4.936,11,11C-373.5,405.384-378.435,410.317-384.5,410.317z"/>
	<path d="M-384.541,396.261c-0.557,0-1.072,0.162-1.52,0.428v-0.014l-4.422,2.586l4.328,2.529v-0.006
		c0.467,0.299,1.018,0.477,1.613,0.477c1.658,0,3-1.342,3-3C-381.541,397.604-382.883,396.261-384.541,396.261z M-384.541,400.261
		c-0.188,0-0.368-0.055-0.535-0.162l-1.355-0.865l1.393-0.826c0.164-0.098,0.332-0.146,0.498-0.146c0.552,0,1,0.447,1,1
		C-383.541,399.812-383.989,400.261-384.541,400.261z"/>
</g>
<g>
	<rect x="-592.651" y="189.589" width="2" height="10"/>
	<rect x="-577.952" y="195.675" transform="matrix(0.7071 0.7071 -0.7071 0.7071 -26.942 466.8026)" width="2" height="10.409"/>
	<rect x="-611.56" y="199.884" transform="matrix(0.7071 0.7071 -0.7071 0.7071 -35.5509 487.596)" width="10.409" height="2"/>
	<polygon points="-598.319,218.843 -596.905,220.257 -592.651,216.003 -592.651,225.589 -590.651,225.589 -590.651,216.003 
		-586.398,220.257 -584.984,218.843 -591.651,212.175 	"/>
	<path d="M-578.645,215.588c0-0.002,0-0.004,0-0.006c0-7.18-5.82-12.999-13-12.999s-13,5.819-13,12.999c0,0.002,0,0.004,0,0.006h-13
		v2h18v-2h-3c0-0.002,0-0.004,0-0.006c0-6.064,4.935-10.999,11-10.999s11,4.935,11,10.999c0,0.002,0,0.004,0,0.006h-3v2h17.995v-2
		H-578.645z"/>
</g>
<g>
	<rect x="-488.906" y="188.401" width="2" height="10"/>
	<rect x="-474.206" y="194.487" transform="matrix(0.7071 0.7071 -0.7071 0.7071 2.6045 393.0959)" width="2" height="10.409"/>
	<rect x="-507.815" y="198.697" transform="matrix(0.7071 0.7071 -0.7071 0.7071 -6.0044 413.8894)" width="10.409" height="2"/>
	<polygon points="-486.906,222.948 -486.906,212.401 -488.906,212.401 -488.906,222.948 -493.16,218.694 -494.574,220.108 
		-487.906,226.776 -481.239,220.108 -482.653,218.694 	"/>
	<path d="M-474.899,214.4c0-0.002,0-0.004,0-0.006c0-7.18-5.82-12.999-13-12.999s-13,5.819-13,12.999c0,0.002,0,0.004,0,0.006h-13v2
		h22v-2h-7c0-0.002,0-0.004,0-0.006c0-6.064,4.935-10.999,11-10.999s11,4.935,11,10.999c0,0.002,0,0.004,0,0.006h-7v2h21.995v-2
		H-474.899z"/>
</g>
<g>
	<polygon points="-284.549,222.414 -284.549,208.031 -286.549,208.031 -286.549,222.414 -290.803,218.16 -292.217,219.574 
		-285.549,226.242 -278.882,219.574 -280.296,218.16 	"/>
	<path d="M-268.921,203.061c-1.596-7.445-8.207-13.029-16.127-13.029c-6.423,0-11.977,3.678-14.702,9.035
		c-0.266-0.018-0.53-0.04-0.8-0.04c-6.627,0-11.999,5.372-11.999,12c0,6.607,5.34,11.965,11.938,11.998v0.003h6.062v-2h-5.604
		l-0.447-0.003c-5.485-0.027-9.948-4.513-9.948-9.998c0-5.514,4.485-10,9.999-10c0.175,0,0.347,0.014,0.52,0.025l0.148,0.01
		l1.316,0.088l0.598-1.176c2.492-4.899,7.443-7.942,12.92-7.942c6.79,0,12.75,4.814,14.172,11.448l0.317,1.482l1.514,0.095
		c4.203,0.262,7.496,3.763,7.496,7.971c0,4.397-3.565,7.977-7.957,8c-0.05-0.003-0.093-0.005-0.137-0.007l-2.043,0.007h-4.863v2
		h6.863v-0.007c0.046,0.001,0.091,0.007,0.137,0.007c5.521,0,10-4.477,10-10C-259.549,207.717-263.693,203.386-268.921,203.061z"/>
</g>
<g>
	<polygon points="-378.564,219.219 -377.15,217.805 -383.817,211.137 -390.485,217.805 -389.071,219.219 -384.817,214.965 
		-384.817,227.551 -382.817,227.551 -382.817,214.965 	"/>
	<path d="M-367.189,204.656c-1.596-7.445-8.207-13.029-16.127-13.029c-6.423,0-11.977,3.678-14.702,9.035
		c-0.266-0.018-0.53-0.04-0.8-0.04c-6.627,0-11.999,5.372-11.999,12c0,6.607,5.34,11.965,11.938,11.998v0.003h10.062v-2h-9.604
		l-0.447-0.003c-5.485-0.027-9.948-4.513-9.948-9.998c0-5.514,4.485-10,9.999-10c0.175,0,0.347,0.014,0.52,0.025l0.148,0.01
		l1.316,0.088l0.598-1.176c2.492-4.899,7.443-7.942,12.92-7.942c6.79,0,12.75,4.814,14.172,11.448l0.317,1.482l1.514,0.095
		c4.203,0.262,7.496,3.763,7.496,7.971c0,4.397-3.565,7.977-7.957,8c-0.05-0.003-0.093-0.005-0.137-0.007l-2.043,0.007h-8.863v2
		h10.863v-0.007c0.046,0.001,0.091,0.007,0.137,0.007c5.521,0,10-4.477,10-10C-357.817,209.313-361.962,204.981-367.189,204.656z"/>
</g>
<g>
	<path d="M-164.7,15.141c-1.596-7.445-8.207-13.029-16.127-13.029c-6.423,0-11.977,3.678-14.702,9.035
		c-0.266-0.018-0.53-0.04-0.8-0.04c-6.627,0-11.999,5.372-11.999,12c0,6.607,5.34,11.965,11.938,11.998v0.003h2.062v-2h-1.604
		l-0.447-0.003c-5.485-0.027-9.948-4.513-9.948-9.998c0-5.514,4.485-10,9.999-10c0.175,0,0.347,0.014,0.52,0.025l0.148,0.01
		l1.316,0.088l0.598-1.176c2.492-4.899,7.443-7.942,12.92-7.942c6.79,0,12.75,4.814,14.172,11.448l0.317,1.482l1.514,0.095
		c4.203,0.262,7.496,3.763,7.496,7.971c0,4.397-3.565,7.977-7.957,8c-0.05-0.003-0.093-0.005-0.137-0.007l-2.043,0.007h-0.863v2
		h2.863v-0.007c0.046,0.001,0.091,0.007,0.137,0.007c5.521,0,10-4.477,10-10C-155.328,19.797-159.473,15.466-164.7,15.141z"/>
	<polygon points="-186.328,34.129 -186.328,31.499 -184.155,32.722 -183.47,31.501 -185.939,30.111 -183.47,28.722 -184.155,27.501 
		-186.328,28.724 -186.328,26.129 -188.328,26.129 -188.328,28.768 -190.579,27.501 -191.265,28.722 -188.795,30.111 
		-191.265,31.501 -190.579,32.722 -188.328,31.455 -188.328,34.129 	"/>
	<polygon points="-181.166,38.483 -183.339,39.706 -183.339,37.111 -185.339,37.111 -185.339,39.75 -187.59,38.483 -188.275,39.704 
		-185.806,41.094 -188.275,42.483 -187.59,43.704 -185.339,42.438 -185.339,45.111 -183.339,45.111 -183.339,42.481 
		-181.166,43.704 -180.48,42.483 -182.95,41.094 -180.48,39.704 	"/>
	<polygon points="-172.15,31.501 -174.323,32.724 -174.323,30.129 -176.323,30.129 -176.323,32.768 -178.574,31.501 -179.26,32.722 
		-176.79,34.111 -179.26,35.501 -178.574,36.722 -176.323,35.455 -176.323,38.129 -174.323,38.129 -174.323,35.499 -172.15,36.722 
		-171.465,35.501 -173.935,34.111 -171.465,32.722 	"/>
</g>
<g>
	<rect x="-89.188" y="-2.911" width="2" height="7.973"/>
	<rect x="-108.188" y="16.003" width="7.973" height="2"/>
	<rect x="-103.515" y="4.736" transform="matrix(0.7071 0.7071 -0.7071 0.7071 -25.095 72.0573)" width="7.974" height="2"/>
	<rect x="-78.007" y="1.754" transform="matrix(0.7071 0.7071 -0.7071 0.7071 -18.4958 56.1333)" width="2" height="7.972"/>
	<path d="M-58.677,22.879c-1.444-6.742-7.433-11.8-14.605-11.8c-2.185,0-4.258,0.471-6.127,1.314
		c-1.666-3.203-5.006-5.395-8.865-5.395c-5.522,0-10,4.477-10,9.999c0,2.46,0.899,4.702,2.373,6.442
		c-1.428,1.84-2.287,4.144-2.287,6.653c0,5.983,4.836,10.836,10.813,10.865v0.003h1.188v-2h-0.721l-0.457-0.003
		c-4.864-0.023-8.822-4.001-8.822-8.865c0-4.89,3.978-8.868,8.867-8.868c0.15,0,0.299,0.012,0.447,0.022l0.148,0.01l1.314,0.085
		l0.597-1.175c2.225-4.372,6.644-7.089,11.532-7.089c6.062,0,11.382,4.298,12.649,10.219l0.318,1.483l1.514,0.094
		c3.708,0.23,6.612,3.319,6.612,7.03c0,3.878-3.144,7.035-7.017,7.057c-0.042-0.003-0.079-0.005-0.117-0.005l-1.866,0.005v2h1.819
		v-0.006c0.042,0.001,0.082,0.006,0.124,0.006c5.001,0,9.057-4.054,9.057-9.057C-50.188,27.096-53.942,23.174-58.677,22.879z
		 M-86.597,19.262c-0.241-0.016-0.48-0.036-0.725-0.036c-2.766,0-5.282,1.041-7.2,2.742c-1.092-1.365-1.753-3.089-1.753-4.97
		c0-4.41,3.589-7.999,8-7.999c3.092,0,5.76,1.773,7.091,4.346C-83.481,14.784-85.36,16.832-86.597,19.262z"/>
	<polygon points="-79.196,39.981 -79.196,37.352 -77.023,38.574 -76.338,37.354 -78.808,35.964 -76.338,34.574 -77.023,33.354 
		-79.196,34.576 -79.196,31.981 -81.196,31.981 -81.196,34.62 -83.447,33.354 -84.133,34.574 -81.663,35.964 -84.133,37.354 
		-83.447,38.574 -81.196,37.308 -81.196,39.981 	"/>
	<polygon points="-74.034,44.336 -76.207,45.559 -76.207,42.964 -78.207,42.964 -78.207,45.603 -80.458,44.336 -81.144,45.557 
		-78.674,46.946 -81.144,48.336 -80.458,49.557 -78.207,48.29 -78.207,50.964 -76.207,50.964 -76.207,48.334 -74.034,49.557 
		-73.349,48.336 -75.818,46.946 -73.349,45.557 	"/>
	<polygon points="-65.019,37.354 -67.191,38.576 -67.191,35.981 -69.191,35.981 -69.191,38.62 -71.442,37.354 -72.128,38.574 
		-69.658,39.964 -72.128,41.354 -71.442,42.574 -69.191,41.308 -69.191,43.981 -67.191,43.981 -67.191,41.352 -65.019,42.574 
		-64.333,41.354 -66.803,39.964 -64.333,38.574 	"/>
</g>
<g>
	<path d="M41.512,19.876c-1.444-6.742-7.433-11.8-14.605-11.8c-1.799,0-3.522,0.32-5.118,0.904C20.839,3.872,16.384,0,11,0
		c-0.413,0-0.819,0.027-1.222,0.071c0.744,1.112,1.179,2.448,1.179,3.886c0,3.865-3.134,7-7,7c-1.438,0-2.773-0.435-3.886-1.179
		C0.027,10.18,0,10.587,0,11c0,3.713,1.845,6.987,4.661,8.979C3.008,21.887,2,24.368,2,27.091c0,5.983,4.836,10.836,10.813,10.865
		v0.003H14v-2h-0.721l-0.457-0.003C7.958,35.933,4,31.955,4,27.091c0-4.89,3.978-8.868,8.867-8.868c0.15,0,0.299,0.012,0.447,0.022
		l0.148,0.01l1.314,0.085l0.597-1.175c2.225-4.372,6.644-7.089,11.532-7.089c6.062,0,11.382,4.298,12.649,10.219l0.318,1.483
		l1.514,0.094c3.708,0.23,6.612,3.319,6.612,7.03c0,3.878-3.144,7.035-7.017,7.057c-0.042-0.003-0.079-0.005-0.117-0.005L39,35.959
		v2h1.819v-0.006c0.042,0.001,0.082,0.006,0.124,0.006c5.001,0,9.057-4.054,9.057-9.057C50,24.093,46.246,20.171,41.512,19.876z
		 M13.592,16.259c-0.241-0.016-0.48-0.036-0.725-0.036c-2.537,0-4.865,0.877-6.715,2.334c-2.012-1.294-3.486-3.354-3.976-5.776
		c0.582,0.117,1.178,0.177,1.78,0.177c4.963,0,9-4.037,9-9c0-0.603-0.06-1.198-0.177-1.78c3.733,0.753,6.629,3.824,7.134,7.64
		C17.201,11.261,14.986,13.516,13.592,16.259z"/>
	<polygon points="21.037,36.979 21.037,34.349 23.21,35.571 23.896,34.351 21.426,32.961 23.896,31.571 23.21,30.351 21.037,31.573 
		21.037,28.979 19.037,28.979 19.037,31.617 16.786,30.351 16.101,31.571 18.57,32.961 16.101,34.351 16.786,35.571 19.037,34.305 
		19.037,36.979 	"/>
	<polygon points="26.199,41.333 24.026,42.556 24.026,39.961 22.026,39.961 22.026,42.6 19.775,41.333 19.09,42.554 21.56,43.943 
		19.09,45.333 19.775,46.554 22.026,45.287 22.026,47.961 24.026,47.961 24.026,45.331 26.199,46.554 26.885,45.333 24.415,43.943 
		26.885,42.554 	"/>
	<polygon points="35.215,34.351 33.042,35.573 33.042,32.979 31.042,32.979 31.042,35.617 28.791,34.351 28.105,35.571 
		30.575,36.961 28.105,38.351 28.791,39.571 31.042,38.305 31.042,40.979 33.042,40.979 33.042,38.349 35.215,39.571 35.9,38.351 
		33.431,36.961 35.9,35.571 	"/>
</g>
<rect x="-574.847" y="-547.874" fill="none" width="472.974" height="180.918"/>
<text transform="matrix(1 0 0 1 -395.2095 -476.4751)"><tspan x="0" y="0" font-family="'HelveticaNeueLTStd-Th'" font-size="100" letter-spacing="2">60</tspan><tspan x="-99.268" y="60" font-family="'HelveticaNeueLTStd-Lt'" font-size="48" letter-spacing="1">Weather Icons</tspan><tspan x="-3.726" y="104" font-family="'HelveticaNeueLTStd-Lt'" font-size="24">IOS 7 Style</tspan></text>
</svg>
