<?xml version="1.0" encoding="utf-8"?>
<!-- Generator: Adobe Illustrator 16.0.0, SVG Export Plug-In . SVG Version: 6.00 Build 0)  -->
<!DOCTYPE svg PUBLIC "-//W3C//DTD SVG 1.1//EN" "http://www.w3.org/Graphics/SVG/1.1/DTD/svg11.dtd">
<svg version="1.1" id="Layer_1" xmlns="http://www.w3.org/2000/svg" xmlns:xlink="http://www.w3.org/1999/xlink" x="0px" y="0px"
	 width="53px" height="40.018px" viewBox="0 0 53 40.018" enable-background="new 0 0 53 40.018" xml:space="preserve">
<path d="M440.536,188.685l-1.803,15.077l-0.268,2.237h2.254h6.896l-14.693,18.759l1.789-14.52l0.277-2.245h-2.262h-6.957
	L440.536,188.685 M443.391,181.66l-21.667,28.333h11.004l-2.671,21.667l21.667-27.661H440.72L443.391,181.66L443.391,181.66z"/>
<path d="M27.501-273.576c6.79,0,12.749,4.814,14.171,11.448l0.318,1.483l1.514,0.094c4.203,0.262,7.496,3.763,7.496,7.971
	c0,4.396-3.565,7.977-7.957,8c-0.046-0.003-0.091-0.006-0.137-0.007l-2.043-0.036v0.043H12.526l-0.578-0.003
	C6.463-244.61,2-249.096,2-254.581c0-5.514,4.485-10,9.999-10c0.175,0,0.347,0.014,0.519,0.025l0.149,0.011l1.316,0.087l0.598-1.176
	C17.074-270.533,22.024-273.576,27.501-273.576 M27.501-275.576c-6.423,0-11.977,3.678-14.702,9.035
	c-0.266-0.018-0.53-0.04-0.8-0.04c-6.627,0-11.999,5.372-11.999,12c0,6.607,5.34,11.965,11.938,11.998v0.003h30.925v-0.007
	c0.046,0.001,0.091,0.007,0.137,0.007c5.521,0,10-4.477,10-10c0-5.311-4.145-9.642-9.372-9.967
	C42.032-269.992,35.421-275.576,27.501-275.576L27.501-275.576z"/>
<g>
	<path d="M150.452-255.165c-1.444-6.742-7.433-11.8-14.605-11.8c-2.185,0-4.258,0.47-6.127,1.313
		c-1.666-3.202-5.006-5.394-8.865-5.394c-5.522,0-10,4.477-10,9.999c0,2.46,0.898,4.702,2.373,6.442
		c-1.428,1.84-2.287,4.144-2.287,6.653c0,5.983,4.836,10.836,10.813,10.865v0.003h28.007v-0.006
		c0.042,0.001,0.082,0.006,0.124,0.006c5.001,0,9.057-4.054,9.057-9.057C158.94-250.948,155.187-254.87,150.452-255.165z
		 M120.854-269.045c3.092,0,5.76,1.773,7.092,4.345c-2.299,1.44-4.178,3.488-5.414,5.918c-0.241-0.016-0.48-0.036-0.725-0.036
		c-2.766,0-5.281,1.041-7.2,2.743c-1.092-1.366-1.753-3.09-1.753-4.971C112.854-265.456,116.443-269.045,120.854-269.045z
		 M149.924-239.082c-0.038-0.003-0.077-0.004-0.117-0.005l-2.047-0.042v0.047h-25.403l-0.594-0.003
		c-4.864-0.023-8.822-4.001-8.822-8.865c0-4.89,3.978-8.868,8.867-8.868c0.15,0,0.299,0.012,0.447,0.021l0.148,0.011l1.314,0.085
		l0.598-1.174c2.224-4.373,6.643-7.09,11.531-7.09c6.062,0,11.381,4.298,12.65,10.219l0.317,1.482l1.514,0.095
		c3.708,0.231,6.612,3.319,6.612,7.03C156.94-242.261,153.797-239.104,149.924-239.082z"/>
	<rect x="119.86" y="-281.075" width="2" height="7.973"/>
	<rect x="100.888" y="-262.089" width="7.973" height="2"/>
	<rect x="105.613" y="-273.307" transform="matrix(0.7071 0.7071 -0.7071 0.7071 -160.4493 -157.2564)" width="7.974" height="2"/>
	<rect x="131.122" y="-276.289" transform="matrix(0.7071 0.7071 -0.7071 0.7071 -153.8501 -173.1803)" width="2" height="7.972"/>
</g>
<path d="M246.195-259.192c-1.444-6.742-7.433-11.8-14.605-11.8c-1.799,0-3.521,0.32-5.118,0.904
	c-0.949-5.108-5.404-8.98-10.788-8.98c-0.413,0-0.819,0.027-1.222,0.071c0.744,1.112,1.179,2.448,1.179,3.886c0,3.865-3.134,7-7,7
	c-1.438,0-2.773-0.435-3.886-1.179c-0.044,0.401-0.071,0.809-0.071,1.222c0,3.712,1.845,6.987,4.661,8.979
	c-1.653,1.907-2.661,4.389-2.661,7.111c0,5.983,4.836,10.836,10.813,10.865v0.003h28.007v-0.006
	c0.042,0.001,0.082,0.006,0.124,0.006c5.001,0,9.057-4.054,9.057-9.057C254.684-254.976,250.93-258.897,246.195-259.192z
	 M206.86-266.288c0.582,0.117,1.178,0.177,1.78,0.177c4.963,0,9-4.037,9-9c0-0.603-0.06-1.198-0.177-1.78
	c3.733,0.753,6.629,3.824,7.134,7.64c-2.713,1.444-4.928,3.699-6.322,6.442c-0.241-0.016-0.48-0.036-0.725-0.036
	c-2.537,0-4.865,0.876-6.715,2.334C208.824-261.806,207.35-263.865,206.86-266.288z M245.667-243.109
	c-0.038-0.003-0.077-0.004-0.117-0.005l-2.047-0.042v0.047H218.1l-0.594-0.003c-4.864-0.023-8.822-4.001-8.822-8.865
	c0-4.89,3.978-8.868,8.867-8.868c0.15,0,0.299,0.012,0.447,0.021l0.148,0.011l1.314,0.085l0.598-1.174
	c2.224-4.373,6.643-7.09,11.531-7.09c6.062,0,11.381,4.298,12.65,10.219l0.317,1.482l1.514,0.095
	c3.708,0.231,6.612,3.319,6.612,7.03C252.684-246.288,249.54-243.132,245.667-243.109z"/>
<g>
	<rect x="330.841" y="-250.569" width="2" height="7"/>
	<rect x="338.841" y="-254.569" width="2" height="7"/>
	<rect x="322.841" y="-254.569" width="2" height="7"/>
	<rect x="330.841" y="-240.569" width="2" height="7"/>
	<rect x="338.841" y="-244.569" width="2" height="7"/>
	<rect x="322.841" y="-244.569" width="2" height="7"/>
	<path d="M349.469-267.558c-1.596-7.445-8.207-13.029-16.127-13.029c-6.423,0-11.977,3.678-14.702,9.035
		c-0.266-0.018-0.53-0.04-0.8-0.04c-6.627,0-11.999,5.372-11.999,12c0,6.607,5.34,11.965,11.938,11.998v0.003h2.062v-2h-1.604
		l-0.447-0.003c-5.485-0.027-9.948-4.513-9.948-9.998c0-5.514,4.485-10,9.999-10c0.175,0,0.347,0.014,0.52,0.025l0.148,0.01
		l1.316,0.088l0.598-1.176c2.492-4.899,7.443-7.942,12.92-7.942c6.79,0,12.75,4.814,14.172,11.448l0.317,1.482l1.514,0.095
		c4.203,0.262,7.496,3.763,7.496,7.971c0,4.397-3.565,7.977-7.957,8c-0.05-0.003-0.093-0.005-0.137-0.007l-2.043,0.007h-2.863v2
		h4.863v-0.007c0.046,0.001,0.091,0.007,0.137,0.007c5.521,0,10-4.477,10-10C358.841-262.901,354.696-267.232,349.469-267.558z"/>
</g>
<g>
	<path d="M147.042-178.2c-1.596-7.445-8.207-13.029-16.127-13.029c-6.423,0-11.977,3.678-14.702,9.035
		c-0.266-0.018-0.53-0.04-0.8-0.04c-6.627,0-11.999,5.372-11.999,12c0,6.607,5.34,11.965,11.938,11.998v0.003h2.062v-2h-1.604
		l-0.447-0.003c-5.485-0.027-9.948-4.513-9.948-9.998c0-5.514,4.485-10,9.999-10c0.175,0,0.347,0.014,0.52,0.025l0.148,0.01
		l1.316,0.088l0.598-1.176c2.492-4.899,7.443-7.942,12.92-7.942c6.79,0,12.75,4.814,14.172,11.448l0.317,1.482l1.514,0.095
		c4.203,0.262,7.496,3.763,7.496,7.971c0,4.397-3.565,7.977-7.957,8c-0.05-0.003-0.093-0.005-0.137-0.007l-2.043,0.007h-2.863v2
		h4.863v-0.007c0.046,0.001,0.091,0.007,0.137,0.007c5.521,0,10-4.477,10-10C156.414-173.544,152.27-177.875,147.042-178.2z"/>
	<polygon points="128.414,-151.205 128.414,-149.265 128.414,-143.205 130.414,-143.205 130.414,-149.265 130.414,-151.205 
		130.414,-163.205 128.414,-163.205 	"/>
	<polygon points="136.414,-155.205 136.414,-153.452 136.414,-147.205 138.414,-147.205 138.414,-153.452 138.414,-155.205 
		138.414,-167.205 136.414,-167.205 	"/>
	<polygon points="120.414,-155.205 120.414,-153.14 120.414,-147.205 122.414,-147.205 122.414,-153.14 122.414,-155.205 
		122.414,-167.205 120.414,-167.205 	"/>
</g>
<g>
	<polygon points="442.691,-154.294 435.809,-164.124 434.171,-162.977 441.054,-153.146 442.166,-151.558 445.642,-146.594 
		447.28,-147.74 443.805,-152.705 	"/>
	<polygon points="450.693,-154.296 443.809,-164.124 442.171,-162.976 449.057,-153.147 450.062,-151.712 453.646,-146.597 
		455.284,-147.743 451.7,-152.859 	"/>
	<polygon points="434.691,-154.294 427.809,-164.124 426.171,-162.976 433.054,-153.146 434.238,-151.454 437.643,-146.593 
		439.28,-147.74 435.877,-152.602 	"/>
	<path d="M453.799-177.934c-1.596-7.445-8.207-13.029-16.127-13.029c-6.423,0-11.977,3.678-14.702,9.035
		c-0.266-0.018-0.53-0.04-0.8-0.04c-6.627,0-11.999,5.372-11.999,12c0,6.607,5.34,11.965,11.938,11.998v0.003h2.062v-2h-1.604
		l-0.447-0.003c-5.485-0.027-9.948-4.513-9.948-9.998c0-5.514,4.485-10,9.999-10c0.175,0,0.347,0.014,0.52,0.025l0.148,0.01
		l1.316,0.088l0.598-1.176c2.492-4.899,7.443-7.942,12.92-7.942c6.79,0,12.75,4.814,14.172,11.448l0.317,1.482l1.514,0.095
		c4.203,0.262,7.496,3.763,7.496,7.971c0,4.397-3.565,7.977-7.957,8c-0.05-0.003-0.093-0.005-0.137-0.007l-1.043,0.007h0.137v2
		h0.863v-0.007c0.046,0.001,0.091,0.007,0.137,0.007c5.521,0,10-4.477,10-10C463.171-173.277,459.026-177.608,453.799-177.934z"/>
</g>
<g>
	<rect x="425.497" y="-287.016" width="2" height="7.973"/>
	<rect x="406.497" y="-268.102" width="7.973" height="2"/>
	<rect x="411.17" y="-279.368" transform="matrix(0.7071 0.7071 -0.7071 0.7071 -75.2393 -375.0927)" width="7.974" height="2"/>
	<rect x="436.679" y="-282.35" transform="matrix(0.7071 0.7071 -0.7071 0.7071 -68.6401 -391.0166)" width="2" height="7.972"/>
	<rect x="439.497" y="-246.143" width="2" height="7"/>
	<rect x="447.497" y="-250.143" width="2" height="7"/>
	<rect x="431.497" y="-250.143" width="2" height="7"/>
	<rect x="439.497" y="-236.143" width="2" height="7"/>
	<rect x="447.497" y="-240.143" width="2" height="7"/>
	<rect x="431.497" y="-240.143" width="2" height="7"/>
	<path d="M456.009-261.226c-1.444-6.742-7.433-11.8-14.605-11.8c-2.185,0-4.258,0.47-6.126,1.313
		c-1.667-3.202-5.007-5.394-8.866-5.394c-5.522,0-10,4.477-10,9.999c0,2.46,0.899,4.702,2.373,6.442
		c-1.429,1.84-2.287,4.144-2.287,6.653c0,5.983,4.836,10.836,10.813,10.865v0.003h1.188v-2h-0.721l-0.457-0.003
		c-4.864-0.023-8.822-4.001-8.822-8.865c0-4.89,3.978-8.868,8.867-8.868c0.15,0,0.299,0.012,0.447,0.022l0.148,0.01l1.314,0.085
		l0.597-1.175c2.225-4.372,6.644-7.089,11.532-7.089c6.062,0,11.382,4.298,12.649,10.219l0.318,1.483l1.514,0.094
		c3.708,0.23,6.612,3.319,6.612,7.03c0,3.878-3.144,7.035-7.017,7.057c-0.042-0.003-0.079-0.005-0.117-0.005l-2.047,0.005h-0.819v2
		h2.819v-0.006c0.042,0.001,0.082,0.006,0.124,0.006c5.001,0,9.057-4.054,9.057-9.057
		C464.497-257.009,460.743-260.931,456.009-261.226z M428.089-264.843c-0.241-0.016-0.48-0.036-0.725-0.036
		c-2.766,0-5.282,1.041-7.2,2.743c-1.092-1.366-1.753-3.09-1.753-4.971c0-4.41,3.589-7.999,8-7.999c3.091,0,5.76,1.773,7.091,4.345
		C431.204-269.32,429.324-267.272,428.089-264.843z"/>
</g>
<g>
	<rect x="539.914" y="-247.59" width="2" height="7"/>
	<rect x="547.914" y="-251.59" width="2" height="7"/>
	<rect x="531.914" y="-251.59" width="2" height="7"/>
	<rect x="539.914" y="-237.59" width="2" height="7"/>
	<rect x="547.914" y="-241.59" width="2" height="7"/>
	<rect x="531.914" y="-241.59" width="2" height="7"/>
	<path d="M556.426-262.673c-1.444-6.742-7.433-11.8-14.605-11.8c-1.799,0-3.522,0.32-5.118,0.904
		c-0.949-5.108-5.404-8.98-10.788-8.98c-0.413,0-0.819,0.027-1.222,0.071c0.744,1.112,1.179,2.448,1.179,3.886c0,3.865-3.134,7-7,7
		c-1.438,0-2.773-0.435-3.886-1.179c-0.044,0.401-0.071,0.809-0.071,1.222c0,3.712,1.845,6.987,4.661,8.979
		c-1.653,1.907-2.661,4.389-2.661,7.111c0,5.983,4.836,10.836,10.813,10.865v0.003h1.188v-2h-0.721l-0.457-0.003
		c-4.864-0.023-8.822-4.001-8.822-8.865c0-4.89,3.978-8.868,8.867-8.868c0.15,0,0.299,0.012,0.447,0.022l0.148,0.01l1.314,0.085
		l0.597-1.175c2.225-4.372,6.644-7.089,11.532-7.089c6.062,0,11.382,4.298,12.649,10.219l0.318,1.483l1.514,0.094
		c3.708,0.23,6.612,3.319,6.612,7.03c0,3.878-3.144,7.035-7.017,7.057c-0.042-0.003-0.079-0.005-0.117-0.005l-2.047,0.005h-0.819v2
		h2.819v-0.006c0.042,0.001,0.082,0.006,0.124,0.006c5.001,0,9.057-4.054,9.057-9.057
		C564.914-258.456,561.16-262.378,556.426-262.673z M528.506-266.29c-0.241-0.016-0.48-0.036-0.725-0.036
		c-2.537,0-4.865,0.876-6.715,2.334c-2.012-1.294-3.487-3.354-3.976-5.776c0.582,0.117,1.178,0.177,1.78,0.177c4.963,0,9-4.037,9-9
		c0-0.603-0.06-1.198-0.177-1.78c3.733,0.753,6.629,3.824,7.133,7.64C532.116-271.288,529.901-269.033,528.506-266.29z"/>
</g>
<g>
	<polygon points="232.684,-146.767 232.684,-144.826 232.684,-138.767 234.684,-138.767 234.684,-144.826 234.684,-146.767 
		234.684,-158.767 232.684,-158.767 	"/>
	<polygon points="240.684,-150.767 240.684,-149.014 240.684,-142.767 242.684,-142.767 242.684,-149.014 242.684,-150.767 
		242.684,-162.767 240.684,-162.767 	"/>
	<polygon points="224.684,-150.767 224.684,-148.701 224.684,-142.767 226.684,-142.767 226.684,-148.701 226.684,-150.767 
		226.684,-162.767 224.684,-162.767 	"/>
	<rect x="218.684" y="-197.669" width="2" height="7.973"/>
	<rect x="199.684" y="-178.755" width="7.973" height="2"/>
	<rect x="204.357" y="-190.021" transform="matrix(0.7071 0.7071 -0.7071 0.7071 -72.6359 -202.6844)" width="7.974" height="2"/>
	<rect x="229.865" y="-193.003" transform="matrix(0.7071 0.7071 -0.7071 0.7071 -66.0367 -218.6083)" width="2" height="7.972"/>
	<path d="M249.195-171.879c-1.444-6.742-7.433-11.8-14.605-11.8c-2.185,0-4.258,0.47-6.127,1.313
		c-1.666-3.202-5.006-5.394-8.865-5.394c-5.522,0-10,4.477-10,9.999c0,2.46,0.898,4.702,2.373,6.442
		c-1.428,1.84-2.287,4.144-2.287,6.653c0,5.983,4.836,10.836,10.813,10.865v0.003h1.188v-2h-0.721l-0.457-0.003
		c-4.864-0.023-8.822-4.001-8.822-8.865c0-4.89,3.978-8.868,8.867-8.868c0.15,0,0.299,0.012,0.447,0.022l0.148,0.01l1.314,0.085
		l0.597-1.175c2.225-4.372,6.644-7.089,11.532-7.089c6.062,0,11.382,4.298,12.649,10.219l0.318,1.483l1.514,0.094
		c3.708,0.23,6.612,3.319,6.612,7.03c0,3.878-3.144,7.035-7.017,7.057c-0.042-0.003-0.079-0.005-0.117-0.005l-2.047,0.005h-0.819v2
		h2.819v-0.006c0.042,0.001,0.082,0.006,0.124,0.006c5.001,0,9.057-4.054,9.057-9.057
		C257.684-167.662,253.93-171.584,249.195-171.879z M221.275-175.496c-0.241-0.016-0.48-0.036-0.725-0.036
		c-2.766,0-5.281,1.042-7.2,2.743c-1.092-1.367-1.753-3.09-1.753-4.971c0-4.41,3.589-7.999,8-7.999c3.092,0,5.76,1.773,7.092,4.345
		C224.391-179.975,222.512-177.926,221.275-175.496z"/>
</g>
<g>
	<polygon points="333.081,-149.283 333.081,-147.343 333.081,-141.283 335.081,-141.283 335.081,-147.343 335.081,-149.283 
		335.081,-161.283 333.081,-161.283 	"/>
	<polygon points="341.081,-153.283 341.081,-151.53 341.081,-145.283 343.081,-145.283 343.081,-151.53 343.081,-153.283 
		343.081,-165.283 341.081,-165.283 	"/>
	<polygon points="325.081,-153.283 325.081,-151.218 325.081,-145.283 327.081,-145.283 327.081,-151.218 327.081,-153.283 
		327.081,-165.283 325.081,-165.283 	"/>
	<path d="M349.593-174.396c-1.444-6.742-7.433-11.8-14.605-11.8c-1.799,0-3.521,0.32-5.118,0.904
		c-0.949-5.108-5.404-8.98-10.788-8.98c-0.413,0-0.819,0.027-1.222,0.071c0.744,1.112,1.179,2.448,1.179,3.886c0,3.865-3.134,7-7,7
		c-1.438,0-2.773-0.435-3.886-1.179c-0.044,0.401-0.071,0.809-0.071,1.222c0,3.712,1.845,6.987,4.661,8.979
		c-1.653,1.907-2.661,4.389-2.661,7.111c0,5.983,4.836,10.836,10.813,10.865v0.003h1.188v-2h-0.721l-0.457-0.003
		c-4.864-0.023-8.822-4.001-8.822-8.865c0-4.89,3.978-8.868,8.867-8.868c0.15,0,0.299,0.012,0.447,0.022l0.148,0.01l1.314,0.085
		l0.597-1.175c2.225-4.372,6.644-7.089,11.532-7.089c6.062,0,11.382,4.298,12.649,10.219l0.318,1.483l1.514,0.094
		c3.708,0.23,6.612,3.319,6.612,7.03c0,3.878-3.144,7.035-7.017,7.057c-0.042-0.003-0.079-0.005-0.117-0.005l-2.047,0.005h-0.819v2
		h2.819v-0.006c0.042,0.001,0.082,0.006,0.124,0.006c5.001,0,9.057-4.054,9.057-9.057
		C358.081-170.179,354.327-174.101,349.593-174.396z M321.673-178.013c-0.241-0.016-0.48-0.036-0.725-0.036
		c-2.537,0-4.865,0.876-6.715,2.334c-2.012-1.294-3.486-3.354-3.976-5.776c0.582,0.117,1.178,0.177,1.78,0.177c4.963,0,9-4.037,9-9
		c0-0.603-0.06-1.198-0.177-1.78c3.733,0.753,6.629,3.824,7.134,7.641C325.282-183.011,323.067-180.755,321.673-178.013z"/>
</g>
<g>
	<polygon points="550.116,-148.339 543.233,-158.169 541.596,-157.021 548.479,-147.191 549.591,-145.603 553.066,-140.639 
		554.705,-141.785 551.229,-146.75 	"/>
	<polygon points="558.118,-148.341 551.233,-158.169 549.596,-157.021 556.481,-147.192 557.486,-145.757 561.07,-140.642 
		562.709,-141.788 559.125,-146.904 	"/>
	<polygon points="542.116,-148.339 535.233,-158.169 533.596,-157.021 540.479,-147.191 541.663,-145.499 545.067,-140.638 
		546.705,-141.785 543.302,-146.646 	"/>
	<rect x="529.596" y="-195.888" width="2" height="7.973"/>
	<rect x="510.596" y="-176.974" width="7.973" height="2"/>
	<rect x="515.269" y="-188.24" transform="matrix(0.7071 0.7071 -0.7071 0.7071 19.6877 -422.0107)" width="7.974" height="2"/>
	<rect x="540.777" y="-191.222" transform="matrix(0.7071 0.7071 -0.7071 0.7071 26.2869 -437.9347)" width="2" height="7.972"/>
	<path d="M560.107-170.098c-1.444-6.742-7.433-11.8-14.605-11.8c-2.185,0-4.258,0.47-6.126,1.313
		c-1.667-3.202-5.007-5.394-8.866-5.394c-5.522,0-10,4.477-10,9.999c0,2.46,0.899,4.702,2.373,6.442
		c-1.429,1.84-2.287,4.144-2.287,6.653c0,5.983,4.836,10.836,10.813,10.865v0.003h1.188v-2h-0.721l-0.457-0.003
		c-4.864-0.023-8.822-4.001-8.822-8.865c0-4.89,3.978-8.868,8.867-8.868c0.15,0,0.299,0.012,0.447,0.022l0.148,0.01l1.314,0.085
		l0.597-1.175c2.225-4.372,6.644-7.089,11.532-7.089c6.062,0,11.382,4.298,12.649,10.219l0.318,1.483l1.514,0.094
		c3.708,0.23,6.612,3.319,6.612,7.03c0,3.878-3.144,7.035-7.017,7.057c-0.042-0.003-0.079-0.005-0.117-0.005l-0.047,0.005h-0.819v2
		h0.819v-0.006c0.042,0.001,0.082,0.006,0.124,0.006c5.001,0,9.057-4.054,9.057-9.057
		C568.596-165.881,564.842-169.803,560.107-170.098z M532.188-173.715c-0.241-0.016-0.48-0.036-0.725-0.036
		c-2.766,0-5.282,1.042-7.2,2.743c-1.092-1.367-1.753-3.09-1.753-4.971c0-4.41,3.589-7.999,8-7.999c3.091,0,5.76,1.773,7.091,4.345
		C535.303-178.193,533.423-176.145,532.188-173.715z"/>
</g>
<g>
	<polygon points="-173.314,-51.854 -180.197,-61.684 -181.835,-60.536 -174.952,-50.706 -173.84,-49.117 -170.364,-44.153 
		-168.726,-45.3 -172.201,-50.265 	"/>
	<polygon points="-165.313,-51.855 -172.197,-61.684 -173.835,-60.535 -166.949,-50.707 -165.944,-49.271 -162.36,-44.156 
		-160.722,-45.303 -164.306,-50.419 	"/>
	<polygon points="-181.314,-51.854 -188.197,-61.684 -189.835,-60.535 -182.952,-50.706 -181.768,-49.014 -178.363,-44.152 
		-176.726,-45.3 -180.129,-50.161 	"/>
	<path d="M-163.323-73.612c-1.444-6.742-7.433-11.8-14.605-11.8c-1.799,0-3.522,0.32-5.118,0.904
		c-0.949-5.108-5.404-8.98-10.788-8.98c-0.413,0-0.819,0.027-1.222,0.071c0.744,1.112,1.179,2.448,1.179,3.886c0,3.865-3.134,7-7,7
		c-1.438,0-2.773-0.435-3.886-1.179c-0.044,0.401-0.071,0.809-0.071,1.222c0,3.712,1.845,6.987,4.661,8.979
		c-1.653,1.907-2.661,4.389-2.661,7.111c0,5.983,4.836,10.836,10.813,10.865v0.003h1.188v-2h-0.721l-0.457-0.003
		c-4.864-0.023-8.822-4.001-8.822-8.865c0-4.89,3.978-8.868,8.867-8.868c0.15,0,0.299,0.012,0.447,0.022l0.148,0.01l1.314,0.085
		l0.597-1.175c2.225-4.372,6.644-7.089,11.532-7.089c6.062,0,11.382,4.298,12.649,10.219l0.318,1.483l1.514,0.094
		c3.708,0.23,6.612,3.319,6.612,7.03c0,3.878-3.144,7.035-7.017,7.057c-0.042-0.003-0.079-0.005-0.117-0.005l-0.047,0.005h-0.819v2
		h0.819v-0.006c0.042,0.001,0.082,0.006,0.124,0.006c5.001,0,9.057-4.054,9.057-9.057
		C-154.835-69.396-158.589-73.317-163.323-73.612z M-191.243-77.229c-0.241-0.016-0.48-0.036-0.725-0.036
		c-2.537,0-4.865,0.876-6.715,2.334c-2.012-1.294-3.487-3.354-3.976-5.776c0.582,0.117,1.178,0.177,1.78,0.177c4.963,0,9-4.037,9-9
		c0-0.603-0.06-1.198-0.177-1.78c3.733,0.753,6.629,3.824,7.133,7.641C-187.633-82.228-189.848-79.972-191.243-77.229z"/>
</g>
<g>
	<rect x="-180.835" y="-155.7" width="2" height="4"/>
	<rect x="-172.835" y="-159.722" width="2" height="4.021"/>
	<rect x="-188.835" y="-159.722" width="2" height="4.021"/>
	<path d="M-162.207-175.688c-1.596-7.445-8.207-13.029-16.127-13.029c-6.423,0-11.977,3.678-14.702,9.035
		c-0.266-0.018-0.53-0.04-0.8-0.04c-6.627,0-11.999,5.372-11.999,12c0,6.607,5.34,11.965,11.938,11.998v0.003h2.062v-2h-1.604
		l-0.447-0.003c-5.485-0.027-9.948-4.513-9.948-9.998c0-5.514,4.485-10,9.999-10c0.175,0,0.347,0.014,0.52,0.025l0.148,0.01
		l1.316,0.088l0.598-1.176c2.492-4.899,7.443-7.942,12.92-7.942c6.79,0,12.75,4.814,14.172,11.448l0.317,1.482l1.514,0.095
		c4.203,0.262,7.496,3.763,7.496,7.971c0,4.397-3.565,7.977-7.957,8c-0.05-0.003-0.093-0.005-0.137-0.007l-2.043,0.007h-2.863v2
		h4.863v-0.007c0.046,0.001,0.091,0.007,0.137,0.007c5.521,0,10-4.477,10-10C-152.835-171.032-156.979-175.363-162.207-175.688z"/>
	<circle cx="-171.835" cy="-150.68" r="1.5"/>
	<circle cx="-179.835" cy="-146.711" r="1.5"/>
	<circle cx="-187.835" cy="-150.722" r="1.5"/>
</g>
<g>
	<rect x="-87.914" y="-195.154" width="2" height="7.973"/>
	<rect x="-106.914" y="-176.24" width="7.973" height="2"/>
	<rect x="-102.241" y="-187.507" transform="matrix(0.7071 0.7071 -0.7071 0.7071 -160.6581 14.8494)" width="7.974" height="2"/>
	<rect x="-76.732" y="-190.489" transform="matrix(0.7071 0.7071 -0.7071 0.7071 -154.059 -1.0745)" width="2" height="7.972"/>
	<path d="M-57.402-169.364c-1.444-6.742-7.433-11.8-14.605-11.8c-2.185,0-4.258,0.47-6.126,1.313
		c-1.667-3.202-5.007-5.394-8.866-5.394c-5.522,0-10,4.477-10,9.999c0,2.46,0.899,4.702,2.373,6.442
		c-1.429,1.84-2.287,4.144-2.287,6.653c0,5.983,4.836,10.836,10.813,10.865v0.003h1.188v-2h-0.721l-0.457-0.003
		c-4.864-0.023-8.822-4.001-8.822-8.865c0-4.89,3.978-8.868,8.867-8.868c0.15,0,0.299,0.012,0.447,0.022l0.148,0.01l1.314,0.085
		l0.597-1.175c2.225-4.372,6.644-7.089,11.532-7.089c6.062,0,11.382,4.298,12.649,10.219l0.318,1.483l1.514,0.094
		c3.708,0.23,6.612,3.319,6.612,7.03c0,3.878-3.144,7.035-7.017,7.057c-0.042-0.003-0.079-0.005-0.117-0.005l-2.047,0.005h-0.819v2
		h2.819v-0.006c0.042,0.001,0.082,0.006,0.124,0.006c5.001,0,9.057-4.054,9.057-9.057
		C-48.914-165.147-52.668-169.069-57.402-169.364z M-85.322-172.981c-0.241-0.016-0.48-0.036-0.725-0.036
		c-2.766,0-5.282,1.042-7.2,2.743c-1.092-1.367-1.753-3.09-1.753-4.971c0-4.41,3.589-7.999,8-7.999c3.091,0,5.76,1.773,7.091,4.345
		C-82.207-177.46-84.087-175.411-85.322-172.981z"/>
	<rect x="-73.914" y="-151.266" width="2" height="4"/>
	<rect x="-65.914" y="-155.287" width="2" height="4.021"/>
	<rect x="-81.914" y="-155.287" width="2" height="4.021"/>
	<circle cx="-64.914" cy="-146.245" r="1.5"/>
	<circle cx="-72.914" cy="-142.276" r="1.5"/>
	<circle cx="-80.914" cy="-146.287" r="1.5"/>
</g>
<g>
	<path d="M43.523-170.321c-1.444-6.742-7.433-11.8-14.605-11.8c-1.799,0-3.522,0.32-5.118,0.904
		c-0.949-5.108-5.404-8.98-10.788-8.98c-0.413,0-0.819,0.027-1.222,0.071c0.744,1.112,1.179,2.448,1.179,3.886c0,3.865-3.134,7-7,7
		c-1.438,0-2.773-0.435-3.886-1.179c-0.044,0.401-0.071,0.809-0.071,1.222c0,3.712,1.845,6.987,4.661,8.979
		c-1.653,1.907-2.661,4.389-2.661,7.111c0,5.983,4.836,10.836,10.813,10.865v0.003h1.188v-2h-0.721l-0.457-0.003
		c-4.864-0.023-8.822-4.001-8.822-8.865c0-4.89,3.978-8.868,8.867-8.868c0.15,0,0.299,0.012,0.447,0.022l0.148,0.01l1.314,0.085
		l0.597-1.175c2.225-4.372,6.644-7.089,11.532-7.089c6.062,0,11.382,4.298,12.649,10.219l0.318,1.483l1.514,0.094
		c3.708,0.23,6.612,3.319,6.612,7.03c0,3.878-3.144,7.035-7.017,7.057c-0.042-0.003-0.079-0.005-0.117-0.005l-2.047,0.005h-0.819v2
		h2.819v-0.006c0.042,0.001,0.082,0.006,0.124,0.006c5.001,0,9.057-4.054,9.057-9.057C52.012-166.104,48.258-170.026,43.523-170.321
		z M15.604-173.938c-0.241-0.016-0.48-0.036-0.725-0.036c-2.537,0-4.865,0.876-6.715,2.334c-2.012-1.294-3.487-3.354-3.976-5.776
		c0.582,0.117,1.178,0.177,1.78,0.177c4.963,0,9-4.037,9-9c0-0.603-0.06-1.198-0.177-1.78c3.733,0.753,6.629,3.824,7.133,7.641
		C19.214-178.937,16.999-176.681,15.604-173.938z"/>
	<rect x="27.012" y="-152.223" width="2" height="4"/>
	<rect x="35.012" y="-156.244" width="2" height="4.021"/>
	<rect x="19.012" y="-156.244" width="2" height="4.021"/>
	<circle cx="36.012" cy="-147.202" r="1.5"/>
	<circle cx="28.012" cy="-143.233" r="1.5"/>
	<circle cx="20.012" cy="-147.244" r="1.5"/>
</g>
<g>
	<path d="M-59.786-77.291c-1.596-7.445-8.207-13.029-16.127-13.029c-6.423,0-11.977,3.678-14.702,9.035
		c-0.266-0.018-0.53-0.04-0.8-0.04c-6.627,0-11.999,5.372-11.999,12c0,6.607,5.34,11.965,11.938,11.998v0.003h6.062v-2h-5.604
		l-0.447-0.003c-5.485-0.027-9.948-4.513-9.948-9.998c0-5.514,4.485-10,9.999-10c0.175,0,0.347,0.014,0.52,0.025l0.148,0.01
		l1.316,0.088l0.598-1.176c2.492-4.899,7.443-7.942,12.92-7.942c6.79,0,12.75,4.814,14.172,11.448l0.317,1.482l1.514,0.095
		c4.203,0.262,7.496,3.763,7.496,7.971c0,4.397-3.565,7.977-7.957,8c-0.05-0.003-0.093-0.005-0.137-0.007l-5.043,0.007h0.137v2
		h4.863v-0.007c0.046,0.001,0.091,0.007,0.137,0.007c5.521,0,10-4.477,10-10C-50.414-72.635-54.559-76.966-59.786-77.291z"/>
	<polygon points="-75.572,-57.32 -73.803,-57.32 -73.372,-57.32 -71.362,-57.32 -77.776,-66.481 -79.414,-65.334 -75.203,-59.32 
		-76.974,-59.32 -79.414,-59.32 -78.143,-57.504 -77.03,-55.915 -71.053,-47.32 -69.414,-48.467 -75.392,-57.063 	"/>
</g>
<g>
	<rect x="16.012" y="-96.421" width="2" height="7.973"/>
	<rect x="-2.988" y="-77.507" width="7.973" height="2"/>
	<rect x="1.685" y="-88.773" transform="matrix(0.7071 0.7071 -0.7071 0.7071 -60.4039 -29.7189)" width="7.974" height="2"/>
	<rect x="27.193" y="-91.755" transform="matrix(0.7071 0.7071 -0.7071 0.7071 -53.8048 -45.6428)" width="2" height="7.972"/>
	<path d="M46.523-70.631c-1.444-6.742-7.433-11.8-14.605-11.8c-2.185,0-4.258,0.47-6.127,1.313
		c-1.666-3.202-5.006-5.394-8.865-5.394c-5.522,0-10,4.477-10,9.999c0,2.46,0.898,4.702,2.373,6.442
		c-1.428,1.84-2.287,4.144-2.287,6.653c0,5.983,4.836,10.836,10.813,10.865v0.003h4.188v-2h-3.721l-0.457-0.003
		c-4.864-0.023-8.822-4.001-8.822-8.865c0-4.89,3.978-8.868,8.867-8.868c0.15,0,0.299,0.012,0.447,0.022l0.148,0.01l1.314,0.085
		l0.597-1.175c2.225-4.372,6.644-7.089,11.532-7.089c6.062,0,11.382,4.298,12.649,10.219l0.318,1.483l1.514,0.094
		c3.708,0.23,6.612,3.319,6.612,7.03c0,3.878-3.144,7.035-7.017,7.057c-0.042-0.003-0.079-0.005-0.117-0.005l-2.047,0.005h-3.819v2
		h5.819v-0.006c0.042,0.001,0.082,0.006,0.124,0.006c5.001,0,9.057-4.054,9.057-9.057C55.012-66.414,51.258-70.336,46.523-70.631z
		 M18.604-74.248c-0.241-0.016-0.48-0.036-0.725-0.036c-2.766,0-5.281,1.041-7.2,2.743c-1.092-1.366-1.753-3.09-1.753-4.971
		c0-4.41,3.589-7.999,8-7.999c3.092,0,5.76,1.773,7.092,4.345C21.719-78.726,19.84-76.678,18.604-74.248z"/>
	<polygon points="30.854,-52.541 32.623,-52.541 33.054,-52.541 35.063,-52.541 28.649,-61.702 27.012,-60.555 31.223,-54.541 
		29.452,-54.541 27.012,-54.541 28.283,-52.725 29.396,-51.136 35.373,-42.541 37.012,-43.688 31.034,-52.283 	"/>
</g>
<g>
	<path d="M146.108-72.927c-1.444-6.742-7.433-11.8-14.605-11.8c-1.799,0-3.521,0.32-5.118,0.904
		c-0.949-5.108-5.404-8.98-10.788-8.98c-0.413,0-0.819,0.027-1.222,0.071c0.744,1.112,1.179,2.448,1.179,3.886c0,3.865-3.134,7-7,7
		c-1.438,0-2.773-0.435-3.886-1.179c-0.044,0.401-0.071,0.809-0.071,1.222c0,3.712,1.845,6.987,4.661,8.979
		c-1.653,1.907-2.661,4.389-2.661,7.111c0,5.983,4.836,10.836,10.813,10.865v0.003h4.188v-2h-3.721l-0.457-0.003
		c-4.864-0.023-8.822-4.001-8.822-8.865c0-4.89,3.978-8.868,8.867-8.868c0.15,0,0.299,0.012,0.447,0.022l0.148,0.01l1.314,0.085
		l0.597-1.175c2.225-4.372,6.644-7.089,11.532-7.089c6.062,0,11.382,4.298,12.649,10.219l0.318,1.483l1.514,0.094
		c3.708,0.23,6.612,3.319,6.612,7.03c0,3.878-3.144,7.035-7.017,7.057c-0.042-0.003-0.079-0.005-0.117-0.005l-2.047,0.005h-3.819v2
		h5.819v-0.006c0.042,0.001,0.082,0.006,0.124,0.006c5.001,0,9.057-4.054,9.057-9.057C154.597-68.71,150.843-72.632,146.108-72.927z
		 M118.188-76.544c-0.241-0.016-0.48-0.036-0.725-0.036c-2.537,0-4.865,0.876-6.715,2.334c-2.012-1.294-3.486-3.354-3.976-5.776
		c0.582,0.117,1.178,0.177,1.78,0.177c4.963,0,9-4.037,9-9c0-0.603-0.06-1.198-0.177-1.78c3.733,0.753,6.629,3.824,7.134,7.64
		C121.798-81.542,119.583-79.287,118.188-76.544z"/>
	<polygon points="130.438,-54.837 132.208,-54.837 132.639,-54.837 134.648,-54.837 128.234,-63.998 126.597,-62.851 
		130.808,-56.837 129.037,-56.837 126.597,-56.837 127.868,-55.021 128.98,-53.432 134.958,-44.837 136.597,-45.983 
		130.619,-54.579 	"/>
</g>
<g>
	<path d="M246.993-76.791c-1.596-7.445-8.207-13.029-16.127-13.029c-6.423,0-11.977,3.678-14.702,9.035
		c-0.266-0.018-0.53-0.04-0.8-0.04c-6.627,0-11.999,5.372-11.999,12c0,6.607,5.34,11.965,11.938,11.998v0.003h1.062v-2h-0.604
		l-0.447-0.003c-5.485-0.027-9.948-4.513-9.948-9.998c0-5.514,4.485-10,9.999-10c0.175,0,0.347,0.014,0.52,0.025l0.148,0.01
		l1.316,0.088l0.598-1.176c2.492-4.899,7.443-7.942,12.92-7.942c6.79,0,12.75,4.814,14.172,11.448l0.317,1.482l1.514,0.095
		c4.203,0.262,7.496,3.763,7.496,7.971c0,4.397-3.565,7.977-7.957,8c-0.05-0.003-0.093-0.005-0.137-0.007l-0.906,0.007v2h0.863
		v-0.007c0.046,0.001,0.091,0.007,0.137,0.007c5.521,0,10-4.477,10-10C256.365-72.135,252.221-76.466,246.993-76.791z"/>
	<rect x="215.8" y="-58.826" transform="matrix(-0.5736 -0.8191 0.8191 -0.5736 395.7558 90.3452)" width="11.183" height="1.999"/>
	
		<rect x="233.774" y="-58.826" transform="matrix(-0.5736 -0.8191 0.8191 -0.5736 424.0414 105.0683)" width="11.183" height="1.999"/>
	<polygon points="232.207,-53.82 233.977,-53.82 234.407,-53.82 236.417,-53.82 230.003,-62.981 228.365,-61.834 232.576,-55.82 
		230.806,-55.82 228.365,-55.82 229.637,-54.004 230.749,-52.415 235.365,-45.82 237.004,-46.967 232.388,-53.563 	"/>
</g>
<g>
	<rect x="321.841" y="-96.258" width="2" height="7.973"/>
	<rect x="302.841" y="-77.344" width="7.973" height="2"/>
	<rect x="307.514" y="-88.61" transform="matrix(0.7071 0.7071 -0.7071 0.7071 29.2867 -245.9249)" width="7.974" height="2"/>
	<rect x="333.023" y="-91.592" transform="matrix(0.7071 0.7071 -0.7071 0.7071 35.8858 -261.8489)" width="2" height="7.972"/>
	<path d="M352.353-70.468c-1.444-6.742-7.433-11.8-14.605-11.8c-2.185,0-4.258,0.47-6.126,1.313
		c-1.667-3.202-5.007-5.394-8.866-5.394c-5.522,0-10,4.477-10,9.999c0,2.46,0.899,4.702,2.373,6.442
		c-1.429,1.84-2.287,4.144-2.287,6.653c0,5.983,4.836,10.836,10.813,10.865v0.003h0.188v-2l-0.178-0.003
		c-4.864-0.023-8.822-4.001-8.822-8.865c0-4.89,3.978-8.868,8.867-8.868c0.15,0,0.299,0.012,0.447,0.022l0.148,0.01l1.314,0.085
		l0.597-1.175c2.225-4.372,6.644-7.089,11.532-7.089c6.062,0,11.382,4.298,12.649,10.219l0.318,1.483l1.514,0.094
		c3.708,0.23,6.612,3.319,6.612,7.03c0,3.878-3.144,7.035-7.017,7.057c-0.042-0.003-0.079-0.005-0.117-0.005l-0.866,0.005v2h0.819
		v-0.006c0.042,0.001,0.082,0.006,0.124,0.006c5.001,0,9.057-4.054,9.057-9.057C360.841-66.251,357.087-70.173,352.353-70.468z
		 M324.433-74.085c-0.241-0.016-0.48-0.036-0.725-0.036c-2.766,0-5.282,1.042-7.2,2.743c-1.092-1.367-1.753-3.09-1.753-4.971
		c0-4.41,3.589-7.999,8-7.999c3.091,0,5.76,1.773,7.091,4.345C327.548-78.563,325.668-76.515,324.433-74.085z"/>
	
		<rect x="322.262" y="-54.388" transform="matrix(-0.5736 -0.8191 0.8191 -0.5736 559.6543 184.5344)" width="11.183" height="1.999"/>
	
		<rect x="340.237" y="-54.388" transform="matrix(-0.5736 -0.8191 0.8191 -0.5736 587.9398 199.2576)" width="11.183" height="1.999"/>
	<polygon points="338.67,-49.382 340.439,-49.382 340.87,-49.382 342.88,-49.382 336.466,-58.543 334.828,-57.396 339.039,-51.382 
		337.269,-51.382 334.828,-51.382 336.1,-49.565 337.212,-47.977 341.828,-41.382 343.467,-42.528 338.851,-49.124 	"/>
</g>
<g>
	<path d="M454.19-73.426c-1.444-6.742-7.433-11.8-14.605-11.8c-1.799,0-3.522,0.32-5.118,0.904c-0.949-5.108-5.404-8.98-10.788-8.98
		c-0.413,0-0.819,0.027-1.222,0.071c0.744,1.112,1.179,2.448,1.179,3.886c0,3.865-3.134,7-7,7c-1.438,0-2.773-0.435-3.886-1.179
		c-0.044,0.401-0.071,0.809-0.071,1.222c0,3.712,1.845,6.987,4.661,8.979c-1.653,1.907-2.661,4.389-2.661,7.111
		c0,5.983,4.836,10.836,10.813,10.865v0.003h0.188v-2l-0.178-0.003c-4.864-0.023-8.822-4.001-8.822-8.865
		c0-4.89,3.978-8.868,8.867-8.868c0.15,0,0.299,0.012,0.447,0.022l0.148,0.01l1.314,0.085l0.597-1.175
		c2.225-4.372,6.644-7.089,11.532-7.089c6.062,0,11.382,4.298,12.649,10.219l0.318,1.483l1.514,0.094
		c3.708,0.23,6.612,3.319,6.612,7.03c0,3.878-3.144,7.035-7.017,7.057c-0.042-0.003-0.079-0.005-0.117-0.005l-0.866,0.005v2h0.819
		v-0.006c0.042,0.001,0.082,0.006,0.124,0.006c5.001,0,9.057-4.054,9.057-9.057C462.679-69.209,458.925-73.131,454.19-73.426z
		 M426.271-77.043c-0.241-0.016-0.48-0.036-0.725-0.036c-2.537,0-4.865,0.876-6.715,2.334c-2.012-1.294-3.487-3.354-3.976-5.776
		c0.582,0.117,1.178,0.177,1.78,0.177c4.963,0,9-4.037,9-9c0-0.603-0.06-1.198-0.177-1.78c3.733,0.753,6.629,3.824,7.133,7.641
		C429.881-82.041,427.666-79.785,426.271-77.043z"/>
	
		<rect x="424.099" y="-57.346" transform="matrix(-0.5736 -0.8191 0.8191 -0.5736 722.3317 263.2951)" width="11.183" height="1.999"/>
	
		<rect x="442.074" y="-57.346" transform="matrix(-0.5736 -0.8191 0.8191 -0.5736 750.6172 278.0182)" width="11.183" height="1.999"/>
	<polygon points="440.507,-52.34 442.276,-52.34 442.707,-52.34 444.717,-52.34 438.303,-61.501 436.665,-60.354 440.876,-54.34 
		439.105,-54.34 436.665,-54.34 437.937,-52.523 439.049,-50.935 443.665,-44.34 445.304,-45.486 440.688,-52.082 	"/>
</g>
<g>
	<g>
		<path d="M43.628,13.029C42.032,5.584,35.421,0,27.501,0c-6.423,0-11.977,3.678-14.702,9.035c-0.266-0.018-0.53-0.04-0.8-0.04
			C5.372,8.995,0,14.367,0,20.995c0,6.607,5.34,11.965,11.938,11.998v0.003H14v-2h-1.604l-0.447-0.003
			C6.463,30.966,2,26.48,2,20.995c0-5.514,4.485-10,9.999-10c0.175,0,0.347,0.014,0.52,0.025l0.148,0.01l1.316,0.088l0.598-1.176
			C17.073,5.043,22.024,2,27.501,2c6.79,0,12.75,4.814,14.172,11.448l0.317,1.482l1.514,0.095C47.707,15.287,51,18.788,51,22.996
			c0,4.397-3.565,7.977-7.957,8c-0.05-0.003-0.093-0.005-0.137-0.007l-2.043,0.007H38v2h4.863v-0.007
			c0.046,0.001,0.091,0.007,0.137,0.007c5.521,0,10-4.477,10-10C53,17.686,48.855,13.354,43.628,13.029z"/>
	</g>
	<g>
		<circle cx="18.5" cy="26.572" r="1.5"/>
	</g>
	<g>
		<circle cx="22.5" cy="32.496" r="1.5"/>
	</g>
	<g>
		<circle cx="30.5" cy="32.496" r="1.5"/>
	</g>
	<g>
		<circle cx="26.5" cy="26.572" r="1.5"/>
	</g>
	<g>
		<circle cx="34.5" cy="26.572" r="1.5"/>
	</g>
	<g>
		<circle cx="18.5" cy="38.518" r="1.5"/>
	</g>
	<g>
		<circle cx="26.5" cy="38.518" r="1.5"/>
	</g>
	<g>
		<circle cx="34.5" cy="38.518" r="1.5"/>
	</g>
</g>
<g>
	<g>
		<rect x="119.414" y="-2.448" width="2" height="7.973"/>
	</g>
	<g>
		<rect x="100.414" y="16.466" width="7.973" height="2"/>
	</g>
	<g>
		<rect x="105.087" y="5.199" transform="matrix(0.7071 0.7071 -0.7071 0.7071 36.3306 -75.3114)" width="7.974" height="2"/>
	</g>
	<g>
		<rect x="130.596" y="2.217" transform="matrix(0.7071 0.7071 -0.7071 0.7071 42.9298 -91.2354)" width="2" height="7.972"/>
	</g>
	<g>
		<path d="M149.926,23.342c-1.444-6.742-7.433-11.8-14.605-11.8c-2.185,0-4.258,0.47-6.127,1.313
			c-1.666-3.202-5.006-5.394-8.865-5.394c-5.522,0-10,4.477-10,9.999c0,2.46,0.898,4.702,2.373,6.442
			c-1.428,1.84-2.287,4.144-2.287,6.653c0,5.983,4.836,10.836,10.813,10.865v0.003h1.188v-2h-0.721l-0.457-0.003
			c-4.864-0.023-8.822-4.001-8.822-8.865c0-4.89,3.978-8.868,8.867-8.868c0.15,0,0.299,0.012,0.447,0.022l0.148,0.01l1.314,0.085
			l0.597-1.175c2.225-4.372,6.644-7.089,11.532-7.089c6.062,0,11.382,4.298,12.649,10.219l0.318,1.483l1.514,0.094
			c3.708,0.23,6.612,3.319,6.612,7.03c0,3.878-3.144,7.035-7.017,7.057c-0.042-0.003-0.079-0.005-0.117-0.005l-2.047,0.005h-1.819v2
			h3.819v-0.006c0.042,0.001,0.082,0.006,0.124,0.006c5.001,0,9.057-4.054,9.057-9.057C158.414,27.559,154.66,23.637,149.926,23.342
			z M122.006,19.725c-0.241-0.016-0.48-0.036-0.725-0.036c-2.766,0-5.281,1.042-7.2,2.743c-1.092-1.367-1.753-3.09-1.753-4.971
			c0-4.41,3.589-7.999,8-7.999c3.092,0,5.76,1.773,7.092,4.345C125.121,15.246,123.242,17.295,122.006,19.725z"/>
	</g>
	<g>
		<circle cx="125.903" cy="34.936" r="1.5"/>
	</g>
	<g>
		<circle cx="129.903" cy="40.936" r="1.5"/>
	</g>
	<g>
		<circle cx="137.903" cy="40.936" r="1.5"/>
	</g>
	<g>
		<circle cx="133.903" cy="34.936" r="1.5"/>
	</g>
	<g>
		<circle cx="141.903" cy="34.936" r="1.5"/>
	</g>
	<g>
		<circle cx="125.903" cy="46.957" r="1.5"/>
	</g>
	<g>
		<circle cx="133.903" cy="46.957" r="1.5"/>
	</g>
	<g>
		<circle cx="141.903" cy="46.957" r="1.5"/>
	</g>
</g>
<g>
	<g>
		<path d="M245.877,19.386c-1.444-6.742-7.433-11.8-14.605-11.8c-1.799,0-3.521,0.32-5.118,0.904
			c-0.949-5.108-5.404-8.98-10.788-8.98c-0.413,0-0.819,0.027-1.222,0.071c0.744,1.112,1.179,2.448,1.179,3.886c0,3.865-3.134,7-7,7
			c-1.438,0-2.773-0.435-3.886-1.179c-0.044,0.401-0.071,0.809-0.071,1.222c0,3.712,1.845,6.987,4.661,8.979
			c-1.653,1.907-2.661,4.389-2.661,7.111c0,5.983,4.836,10.836,10.813,10.865v0.003h1.188v-2h-0.721l-0.457-0.003
			c-4.864-0.023-8.822-4.001-8.822-8.865c0-4.89,3.978-8.868,8.867-8.868c0.15,0,0.299,0.012,0.447,0.022l0.148,0.01l1.314,0.085
			l0.597-1.175c2.225-4.372,6.644-7.089,11.532-7.089c6.062,0,11.382,4.298,12.649,10.219l0.318,1.483l1.514,0.094
			c3.708,0.23,6.612,3.319,6.612,7.03c0,3.878-3.144,7.035-7.017,7.057c-0.042-0.003-0.079-0.005-0.117-0.005l-2.047,0.005h-1.819v2
			h3.819v-0.006c0.042,0.001,0.082,0.006,0.124,0.006c5.001,0,9.057-4.054,9.057-9.057
			C254.365,23.603,250.611,19.681,245.877,19.386z M217.957,15.769c-0.241-0.016-0.48-0.036-0.725-0.036
			c-2.537,0-4.865,0.876-6.715,2.334c-2.012-1.294-3.486-3.354-3.976-5.776c0.582,0.117,1.178,0.177,1.78,0.177c4.963,0,9-4.037,9-9
			c0-0.603-0.06-1.198-0.177-1.78c3.733,0.753,6.629,3.824,7.134,7.64C221.566,10.771,219.352,13.025,217.957,15.769z"/>
	</g>
	<g>
		<circle cx="221.865" cy="30.979" r="1.5"/>
	</g>
	<g>
		<circle cx="225.865" cy="36.979" r="1.5"/>
	</g>
	<g>
		<circle cx="233.865" cy="36.979" r="1.5"/>
	</g>
	<g>
		<circle cx="229.865" cy="30.979" r="1.5"/>
	</g>
	<g>
		<circle cx="237.865" cy="30.979" r="1.5"/>
	</g>
	<g>
		<circle cx="221.865" cy="43" r="1.5"/>
	</g>
	<g>
		<circle cx="229.865" cy="43" r="1.5"/>
	</g>
	<g>
		<circle cx="237.865" cy="43" r="1.5"/>
	</g>
</g>
<g>
	<path d="M557.042-79.5c-1.596-7.445-8.207-13.029-16.127-13.029c-6.423,0-11.977,3.678-14.702,9.035
		c-0.266-0.018-0.53-0.04-0.8-0.04c-6.627,0-11.999,5.372-11.999,12c0,6.607,5.34,11.965,11.938,11.998v0.003h2.062v-2h-1.604
		l-0.447-0.003c-5.485-0.027-9.948-4.513-9.948-9.998c0-5.514,4.485-10,9.999-10c0.175,0,0.347,0.014,0.52,0.025l0.148,0.01
		l1.316,0.088l0.598-1.176c2.492-4.899,7.443-7.942,12.92-7.942c6.79,0,12.75,4.814,14.172,11.448l0.317,1.482l1.514,0.095
		c4.203,0.262,7.496,3.763,7.496,7.971c0,4.397-3.565,7.977-7.957,8c-0.05-0.003-0.093-0.005-0.137-0.007l-2.043,0.007h-2.863v2
		h4.863v-0.007c0.046,0.001,0.091,0.007,0.137,0.007c5.521,0,10-4.477,10-10C566.414-74.844,562.27-79.175,557.042-79.5z"/>
	<circle cx="531.414" cy="-52.029" r="1.5"/>
	<circle cx="539.414" cy="-46.029" r="1.5"/>
	<circle cx="547.414" cy="-50.029" r="1.5"/>
	<rect x="530.414" y="-68.505" width="2" height="11.976"/>
	<polygon points="540.414,-50.564 540.414,-52.505 540.414,-64.505 538.414,-64.505 538.414,-52.505 538.414,-50.564 
		538.414,-50.529 540.414,-50.529 	"/>
	<polygon points="548.414,-54.752 548.414,-56.505 548.414,-68.505 546.414,-68.505 546.414,-56.505 546.414,-54.752 
		546.414,-54.529 548.414,-54.529 	"/>
</g>
<g>
	<rect x="-191.335" y="-7.887" width="2" height="7.973"/>
	<rect x="-210.335" y="11.027" width="7.973" height="2"/>
	<rect x="-205.662" y="-0.239" transform="matrix(0.7071 0.7071 -0.7071 0.7071 -58.5313 142.8284)" width="7.974" height="2"/>
	<rect x="-180.153" y="-3.221" transform="matrix(0.7071 0.7071 -0.7071 0.7071 -51.9321 126.9045)" width="2" height="7.972"/>
	<path d="M-160.823,17.903c-1.444-6.742-7.433-11.8-14.605-11.8c-2.185,0-4.258,0.47-6.126,1.313
		c-1.667-3.202-5.007-5.394-8.866-5.394c-5.522,0-10,4.477-10,9.999c0,2.46,0.899,4.702,2.373,6.442
		c-1.429,1.84-2.287,4.144-2.287,6.653c0,5.983,4.836,10.836,10.813,10.865v0.003h1.188v-2h-0.721l-0.457-0.003
		c-4.864-0.023-8.822-4.001-8.822-8.865c0-4.89,3.978-8.868,8.867-8.868c0.15,0,0.299,0.012,0.447,0.022l0.148,0.01l1.314,0.085
		l0.597-1.175c2.225-4.372,6.644-7.089,11.532-7.089c6.062,0,11.382,4.298,12.649,10.219l0.318,1.483l1.514,0.094
		c3.708,0.23,6.612,3.319,6.612,7.03c0,3.878-3.144,7.035-7.017,7.057c-0.042-0.003-0.079-0.005-0.117-0.005l-2.047,0.005h-0.819v2
		h2.819V35.98c0.042,0.001,0.082,0.006,0.124,0.006c5.001,0,9.057-4.054,9.057-9.057C-152.335,22.12-156.089,18.198-160.823,17.903z
		 M-188.743,14.286c-0.241-0.016-0.48-0.036-0.725-0.036c-2.766,0-5.282,1.041-7.2,2.743c-1.092-1.366-1.753-3.09-1.753-4.971
		c0-4.41,3.589-7.999,8-7.999c3.091,0,5.76,1.773,7.091,4.345C-185.628,9.809-187.508,11.856-188.743,14.286z"/>
	<circle cx="-184.345" cy="44.474" r="1.5"/>
	<circle cx="-176.345" cy="50.474" r="1.5"/>
	<circle cx="-168.345" cy="46.474" r="1.5"/>
	<rect x="-185.345" y="27.998" width="2" height="11.976"/>
	<polygon points="-175.345,45.938 -175.345,43.998 -175.345,31.998 -177.345,31.998 -177.345,43.998 -177.345,45.938 
		-177.345,45.974 -175.345,45.974 	"/>
	<polygon points="-167.345,41.751 -167.345,39.998 -167.345,27.998 -169.345,27.998 -169.345,39.998 -169.345,41.751 
		-169.345,41.974 -167.345,41.974 	"/>
</g>
<g>
	<path d="M-60.221,14.905c-1.444-6.742-7.433-11.8-14.605-11.8c-1.799,0-3.522,0.32-5.118,0.904
		c-0.949-5.108-5.404-8.98-10.788-8.98c-0.413,0-0.819,0.027-1.222,0.071c0.744,1.112,1.179,2.448,1.179,3.886c0,3.865-3.134,7-7,7
		c-1.438,0-2.773-0.435-3.886-1.179c-0.044,0.401-0.071,0.809-0.071,1.222c0,3.712,1.845,6.987,4.661,8.979
		c-1.653,1.907-2.661,4.389-2.661,7.111c0,5.983,4.836,10.836,10.813,10.865v0.003h1.188v-2h-0.721l-0.457-0.003
		c-4.864-0.023-8.822-4.001-8.822-8.865c0-4.89,3.978-8.868,8.867-8.868c0.15,0,0.299,0.012,0.447,0.022l0.148,0.01l1.314,0.085
		l0.597-1.175c2.225-4.372,6.644-7.089,11.532-7.089c6.062,0,11.382,4.298,12.649,10.219l0.318,1.483l1.514,0.094
		c3.708,0.23,6.612,3.319,6.612,7.03c0,3.878-3.144,7.035-7.017,7.057c-0.042-0.003-0.079-0.005-0.117-0.005l-2.047,0.005h-0.819v2
		h2.819v-0.006c0.042,0.001,0.082,0.006,0.124,0.006c5.001,0,9.057-4.054,9.057-9.057C-51.732,19.122-55.486,15.2-60.221,14.905z
		 M-88.141,11.288c-0.241-0.016-0.48-0.036-0.725-0.036c-2.537,0-4.865,0.876-6.715,2.334c-2.012-1.294-3.487-3.354-3.976-5.776
		c0.582,0.117,1.178,0.177,1.78,0.177c4.963,0,9-4.037,9-9c0-0.603-0.06-1.198-0.177-1.78c3.733,0.753,6.629,3.824,7.133,7.64
		C-84.53,6.29-86.745,8.545-88.141,11.288z"/>
	<circle cx="-83.732" cy="41.479" r="1.5"/>
	<circle cx="-75.732" cy="47.479" r="1.5"/>
	<circle cx="-67.732" cy="43.479" r="1.5"/>
	<rect x="-84.732" y="25.004" width="2" height="11.976"/>
	<polygon points="-74.732,42.944 -74.732,41.004 -74.732,29.004 -76.732,29.004 -76.732,41.004 -76.732,42.944 -76.732,42.979 
		-74.732,42.979 	"/>
	<polygon points="-66.732,38.757 -66.732,37.004 -66.732,25.004 -68.732,25.004 -68.732,37.004 -68.732,38.757 -68.732,38.979 
		-66.732,38.979 	"/>
</g>
<g>
	<rect x="-208.335" y="119.346" width="56" height="2"/>
	<rect x="-204.335" y="125.346" width="50" height="2"/>
	<rect x="-198.335" y="131.346" width="36" height="2"/>
	<rect x="-206.335" y="113.346" width="52" height="2"/>
	<path d="M-194.461,105.341c0.175,0,0.347,0.014,0.519,0.025l0.149,0.01l1.316,0.088l0.598-1.176
		c2.493-4.899,7.443-7.942,12.92-7.942c6.79,0,12.75,4.814,14.171,11.448l0.318,1.482l1.514,0.095
		c1.207,0.075,2.335,0.425,3.336,0.975h3.286c-1.678-1.703-3.957-2.813-6.498-2.971c-1.596-7.445-8.207-13.029-16.127-13.029
		c-6.423,0-11.977,3.678-14.702,9.035c-0.266-0.018-0.53-0.04-0.8-0.04c-4.843,0-9.004,2.874-10.9,7.005h2.251
		C-201.379,107.359-198.154,105.341-194.461,105.341z"/>
</g>
<g>
	<rect x="-87.232" y="91.831" width="2" height="7.973"/>
	<rect x="-106.232" y="110.745" width="7.973" height="2"/>
	<rect x="-101.559" y="99.479" transform="matrix(0.7071 0.7071 -0.7071 0.7071 42.4708 98.4235)" width="7.974" height="2"/>
	<rect x="-76.051" y="96.497" transform="matrix(0.7071 0.7071 -0.7071 0.7071 49.0699 82.4995)" width="2" height="7.972"/>
	<rect x="-97.232" y="125.705" width="50" height="2"/>
	<rect x="-93.232" y="131.705" width="44" height="2"/>
	<rect x="-87.232" y="136.705" width="30" height="2"/>
	<rect x="-95.232" y="119.705" width="46" height="2"/>
	<path d="M-94.324,117.705h0.771h1.927h1.012c1.472-1.087,3.283-1.737,5.249-1.737c0.15,0,0.299,0.012,0.447,0.022l0.148,0.01
		l1.314,0.085l0.597-1.175c2.225-4.372,6.644-7.089,11.532-7.089c5.945,0,11.168,4.139,12.563,9.884h2.043v-0.084
		c-1.444-6.742-7.433-11.8-14.605-11.8c-2.185,0-4.258,0.47-6.126,1.313c-1.667-3.202-5.007-5.394-8.866-5.394
		c-5.522,0-10,4.477-10,9.999C-96.318,113.981-95.57,116.04-94.324,117.705z M-86.318,103.741c3.091,0,5.76,1.773,7.091,4.345
		c-2.298,1.44-4.178,3.488-5.413,5.918c-0.241-0.016-0.48-0.036-0.725-0.036c-2.764,0-5.274,1.045-7.189,2.745
		c-1.097-1.366-1.764-3.089-1.764-4.973C-94.318,107.33-90.729,103.741-86.318,103.741z"/>
</g>
<g>
	<rect x="1.512" y="122.268" width="50" height="2"/>
	<rect x="5.512" y="128.268" width="44" height="2"/>
	<rect x="11.512" y="133.268" width="30" height="2"/>
	<rect x="3.512" y="116.268" width="46" height="2"/>
	<path d="M5.154,114.268h0.037h1.884H8.13c1.472-1.087,3.283-1.737,5.249-1.737c0.15,0,0.299,0.012,0.447,0.022l0.148,0.01
		l1.314,0.085l0.597-1.175c2.225-4.372,6.644-7.089,11.532-7.089c5.945,0,11.168,4.139,12.563,9.884h2.043v-0.084
		c-1.444-6.742-7.433-11.8-14.605-11.8c-1.799,0-3.521,0.32-5.117,0.903c-0.945-5.111-5.402-8.987-10.789-8.987
		c-0.413,0-0.819,0.027-1.222,0.071c0.744,1.112,1.179,2.448,1.179,3.886c0,3.865-3.134,7-7,7c-1.438,0-2.773-0.435-3.886-1.179
		c-0.044,0.401-0.071,0.809-0.071,1.222C0.512,109.004,2.348,112.274,5.154,114.268z M4.469,107.257c4.963,0,9-4.037,9-9
		c0-0.603-0.06-1.198-0.177-1.78c3.735,0.753,6.633,3.828,7.134,7.647c-2.712,1.443-4.927,3.699-6.322,6.442
		c-0.241-0.016-0.48-0.036-0.725-0.036c-2.534,0-4.855,0.879-6.701,2.335c-2.02-1.293-3.5-3.356-3.989-5.785
		C3.271,107.197,3.866,107.257,4.469,107.257z"/>
</g>
<g>
	<path d="M133.403,125.281H113.93l-0.578-0.003c-5.485-0.027-9.948-4.513-9.948-9.998c0-5.514,4.485-10,9.999-10
		c0.175,0,0.347,0.014,0.519,0.025l0.149,0.01l1.316,0.088l0.598-1.176c2.493-4.899,7.443-7.942,12.92-7.942
		c6.79,0,12.75,4.814,14.171,11.448l0.318,1.482l1.514,0.095c1.822,0.113,3.463,0.845,4.746,1.971h2.732
		c-1.707-2.262-4.348-3.78-7.354-3.967c-1.596-7.445-8.207-13.029-16.127-13.029c-6.423,0-11.977,3.678-14.702,9.035
		c-0.266-0.018-0.53-0.04-0.8-0.04c-6.627,0-11.999,5.372-11.999,12c0,6.607,5.34,11.965,11.938,11.998v0.003h20.062
		c2.205,0,4,1.794,4,4s-1.795,4-4,4v2c3.314,0,6-2.686,6-6C139.403,127.968,136.718,125.281,133.403,125.281z"/>
	<path d="M137.403,121.281h-15.988v2h15.988c3.314,0,6-2.687,6-6c0-3.314-2.686-6-6-6v2c2.205,0,4,1.794,4,4
		S139.608,121.281,137.403,121.281z"/>
	<path d="M150.403,115.281c1.654,0,3,1.346,3,3s-1.346,3-3,3c-0.043,0-0.083-0.011-0.126-0.013h-4.862
		c0.003,0.005,0.009,0.008,0.012,0.013h-0.023v2h5.5v-0.051c2.523-0.254,4.5-2.358,4.5-4.949c0-2.762-2.238-5-5-5V115.281z"/>
	<path d="M154.403,125.281h-13v2h9.022c-0.004,0.005-0.008,0.008-0.011,0.013h3.862c0.043-0.002,0.083-0.013,0.126-0.013
		c1.654,0,3,1.346,3,3s-1.346,3-3,3v2c2.762,0,5-2.238,5-5S157.165,125.281,154.403,125.281z"/>
	<rect x="115.403" y="121.281" width="4" height="2"/>
</g>
<path d="M-74.158-273.822c6.95,1.305,12.226,7.419,12.226,14.742c0,8.272-6.729,15.002-15,15.002c-6.79,0-12.531-4.49-14.366-10.728
	c1.398,0.461,2.867,0.698,4.366,0.698c7.72,0,14-6.281,14-14.001C-72.933-270.093-73.356-272.037-74.158-273.822 M-76.933-276.079
	c-0.338,0-0.668,0.031-1,0.051c1.861,2.113,3,4.881,3,7.92c0,6.627-5.372,12.001-12,12.001c-2.599,0-4.998-0.835-6.963-2.239
	c0.387,9.047,7.821,16.269,16.963,16.269c9.39,0,17-7.612,17-17.002S-67.543-276.079-76.933-276.079L-76.933-276.079z"/>
<g>
	<path d="M-180.328-271.084c-7.18,0-13,5.819-13,12.999c0,7.181,5.82,13.002,13,13.002s13-5.821,13-13.002
		C-167.328-265.265-173.148-271.084-180.328-271.084z M-180.328-247.083c-6.065,0-11-4.936-11-11.002
		c0-6.064,4.935-10.999,11-10.999s11,4.935,11,10.999C-169.328-252.019-174.263-247.083-180.328-247.083z"/>
	<rect x="-181.335" y="-284.078" width="2" height="10"/>
	<rect x="-181.335" y="-242.078" width="2" height="10"/>
	<rect x="-206.328" y="-259.078" width="9.993" height="2"/>
	<rect x="-164.335" y="-259.078" width="10.007" height="2"/>
	<rect x="-166.635" y="-277.992" transform="matrix(0.7071 0.7071 -0.7071 0.7071 -241.4034 37.2242)" width="2" height="10.409"/>
	
		<rect x="-196.044" y="-248.583" transform="matrix(-0.7071 -0.7071 0.7071 -0.7071 -160.8663 -553.3898)" width="2" height="10.41"/>
	<rect x="-200.244" y="-273.783" transform="matrix(0.7071 0.7071 -0.7071 0.7071 -250.0123 58.0176)" width="10.409" height="2"/>
	
		<rect x="-170.836" y="-244.373" transform="matrix(-0.7072 -0.7071 0.7071 -0.7072 -110.6777 -532.587)" width="10.41" height="2"/>
</g>
<g>
	<rect x="217.838" y="86.783" width="2" height="7.973"/>
	<rect x="198.865" y="105.77" width="7.973" height="2"/>
	<rect x="203.591" y="94.551" transform="matrix(0.7071 0.7071 -0.7071 0.7071 128.3628 -118.7937)" width="7.974" height="2"/>
	<rect x="229.1" y="91.569" transform="matrix(0.7071 0.7071 -0.7071 0.7071 134.962 -134.7177)" width="2" height="7.972"/>
	<path d="M232.865,128.783l0.005-0.007h-12.536l-0.594-0.003c-4.864-0.024-8.822-4.001-8.822-8.865c0-4.89,3.978-8.868,8.867-8.868
		c0.15,0,0.299,0.012,0.447,0.021l0.148,0.011l1.314,0.085l0.597-1.174c2.225-4.373,6.644-7.09,11.532-7.09
		c5.916,0,11.114,4.099,12.54,9.8h2.065c-1.444-6.742-7.433-11.8-14.605-11.8c-2.185,0-4.258,0.47-6.126,1.313
		c-1.667-3.202-5.007-5.394-8.866-5.394c-5.522,0-10,4.477-10,9.999c0,2.46,0.899,4.702,2.373,6.442
		c-1.429,1.84-2.287,4.144-2.287,6.653c0,5.983,4.836,10.836,10.813,10.865v0.003h13.135v0.007c2.205,0,4,1.794,4,4s-1.795,4-4,4v2
		c3.314,0,6-2.686,6-6C238.865,131.47,236.18,128.783,232.865,128.783z M218.832,98.813c3.091,0,5.76,1.773,7.091,4.345
		c-2.298,1.439-4.178,3.488-5.413,5.918c-0.241-0.016-0.48-0.036-0.725-0.036c-2.766,0-5.282,1.042-7.2,2.743
		c-1.092-1.367-1.753-3.09-1.753-4.971C210.832,102.402,214.421,98.813,218.832,98.813z"/>
	<path d="M236.865,124.783h-9.988v2h9.988c3.314,0,6-2.687,6-6c0-3.314-2.686-6-6-6v2c2.205,0,4,1.794,4,4
		S239.07,124.783,236.865,124.783z"/>
	<path d="M244.889,124.783h-0.023v2h5.5v-0.051c2.523-0.254,4.5-2.358,4.5-4.949c0-2.762-2.238-5-5-5v2c1.654,0,3,1.346,3,3
		s-1.346,3-3,3c-0.043,0-0.083-0.011-0.126-0.013h-4.862C244.88,124.775,244.886,124.779,244.889,124.783z"/>
	<path d="M253.865,128.783h-13v2h9.022c-0.004,0.004-0.008,0.008-0.011,0.013h3.862c0.043-0.002,0.083-0.013,0.126-0.013
		c1.654,0,3,1.346,3,3s-1.346,3-3,3v2c2.762,0,5-2.238,5-5S256.627,128.783,253.865,128.783z"/>
	<rect x="220.865" y="124.783" width="4" height="2"/>
</g>
<g>
	<path d="M332.827,126.777l0.005-0.007h-12.536l-0.594-0.003c-4.864-0.024-8.822-4.001-8.822-8.865c0-4.89,3.978-8.868,8.867-8.868
		c0.15,0,0.299,0.012,0.447,0.021l0.148,0.011l1.314,0.085l0.597-1.174c2.225-4.373,6.644-7.09,11.532-7.09
		c5.916,0,11.114,4.099,12.54,9.8h2.065c-1.444-6.742-7.433-11.8-14.605-11.8c-1.806,0-3.536,0.322-5.138,0.91
		c-0.938-5.123-5.4-9.01-10.794-9.01c-0.413,0-0.819,0.027-1.222,0.071c0.744,1.112,1.179,2.448,1.179,3.886c0,3.865-3.134,7-7,7
		c-1.438,0-2.773-0.435-3.886-1.179c-0.044,0.401-0.071,0.809-0.071,1.222c0,3.725,1.858,7.009,4.69,8.998
		c-1.655,1.907-2.665,4.392-2.665,7.116c0,5.983,4.836,10.836,10.813,10.865v0.003h13.135v0.007c2.205,0,4,1.794,4,4s-1.795,4-4,4v2
		c3.314,0,6-2.686,6-6C338.827,129.464,336.142,126.777,332.827,126.777z M309.031,103.568c0.582,0.117,1.178,0.177,1.78,0.177
		c4.963,0,9-4.037,9-9c0-0.603-0.06-1.198-0.177-1.78c3.744,0.755,6.646,3.842,7.138,7.674c-2.702,1.444-4.909,3.696-6.301,6.432
		c-0.241-0.016-0.48-0.036-0.725-0.036c-2.535,0-4.861,0.875-6.71,2.33C311.009,108.072,309.522,106.004,309.031,103.568z"/>
	<path d="M336.827,122.777h-9.988v2h9.988c3.314,0,6-2.687,6-6c0-3.314-2.686-6-6-6v2c2.205,0,4,1.794,4,4
		S339.032,122.777,336.827,122.777z"/>
	<path d="M344.851,122.777h-0.023v2h5.5v-0.051c2.523-0.254,4.5-2.358,4.5-4.949c0-2.762-2.238-5-5-5v2c1.654,0,3,1.346,3,3
		s-1.346,3-3,3c-0.043,0-0.083-0.011-0.126-0.013h-4.862C344.842,122.77,344.848,122.773,344.851,122.777z"/>
	<path d="M353.827,126.777h-13v2h9.022c-0.004,0.004-0.008,0.008-0.011,0.013h3.862c0.043-0.002,0.083-0.013,0.126-0.013
		c1.654,0,3,1.346,3,3s-1.346,3-3,3v2c2.762,0,5-2.238,5-5S356.589,126.777,353.827,126.777z"/>
	<rect x="320.827" y="122.777" width="4" height="2"/>
</g>
<g>
	<rect x="433.72" y="89.346" width="2" height="10"/>
	<rect x="408.727" y="114.346" width="9.993" height="2"/>
	<rect x="448.42" y="95.432" transform="matrix(0.7071 0.7071 -0.7071 0.7071 202.7924 -288.3119)" width="2" height="10.409"/>
	<rect x="414.811" y="99.641" transform="matrix(0.7071 0.7071 -0.7071 0.7071 194.1836 -267.5184)" width="10.409" height="2"/>
	<path d="M438.72,129.346h-24v2h24c2.205,0,4,1.794,4,4s-1.795,4-4,4v2c3.314,0,6-2.686,6-6
		C444.72,132.032,442.034,129.346,438.72,129.346z"/>
	<path d="M450.743,125.346h-0.023v2h5.5v-0.051c2.523-0.254,4.5-2.358,4.5-4.949c0-2.762-2.238-5-5-5v2c1.654,0,3,1.346,3,3
		s-1.346,3-3,3c-0.043,0-0.083-0.011-0.126-0.013h-4.862C450.734,125.338,450.74,125.342,450.743,125.346z"/>
	<path d="M459.72,129.346h-13v2h9.022c-0.004,0.004-0.008,0.008-0.011,0.013h3.862c0.043-0.002,0.083-0.013,0.126-0.013
		c1.654,0,3,1.346,3,3s-1.346,3-3,3v2c2.762,0,5-2.238,5-5S462.481,129.346,459.72,129.346z"/>
	<path d="M426.429,125.346H414.72v2h12.012h0.822h15.166c3.314,0,6-2.687,6-6c0-3.314-2.686-6-6-6v2c2.205,0,4,1.794,4,4
		s-1.795,4-4,4h-12.538c-3.802-1.734-6.455-5.563-6.455-10.007c0-6.064,4.935-10.999,11-10.999c5.384,0,9.868,3.891,10.81,9.006
		h2.021c-0.961-6.23-6.331-11.006-12.831-11.006c-7.18,0-13,5.819-13,12.999C421.727,119.364,423.557,122.961,426.429,125.346z"/>
</g>
<g>
	<path d="M538.946,122.789h-24v2h24c2.205,0,4,1.794,4,4s-1.795,4-4,4v2c3.314,0,6-2.686,6-6
		C544.946,125.476,542.261,122.789,538.946,122.789z"/>
	<path d="M556.446,120.789v-0.051c2.523-0.254,4.5-2.358,4.5-4.949c0-2.762-2.238-5-5-5v2c1.654,0,3,1.346,3,3s-1.346,3-3,3
		c-0.043,0-0.083-0.011-0.126-0.013h-4.862c0.004,0.005,0.009,0.009,0.012,0.013h-0.023v2H556.446z"/>
	<path d="M559.946,122.789h-13v2h9.022c-0.003,0.004-0.007,0.008-0.011,0.013h3.862c0.043-0.002,0.083-0.013,0.126-0.013
		c1.654,0,3,1.346,3,3s-1.346,3-3,3v2c2.762,0,5-2.238,5-5S562.708,122.789,559.946,122.789z"/>
	<path d="M527.78,120.789h15.166c3.314,0,6-2.687,6-6c0-3.314-2.686-6-6-6v2c2.205,0,4,1.794,4,4s-1.795,4-4,4H530.36
		c-2.596-1.188-4.658-3.339-5.69-6.034c0.849,0.204,1.724,0.309,2.612,0.309c6.168,0,11.187-5.019,11.187-11.188
		c0-1.276-0.22-2.532-0.64-3.717c4.046,1.102,7.168,4.459,7.937,8.63h2.018c-0.964-6.237-6.338-11.016-12.846-11.016
		c-0.259,0-0.511,0.024-0.766,0.039c1.425,1.618,2.297,3.737,2.297,6.063c0,5.072-4.112,9.188-9.187,9.188
		c-1.988,0-3.826-0.641-5.33-1.715c0.162,3.801,1.962,7.165,4.699,9.44h-11.705v2h12.012H527.78z"/>
</g>
<g>
	<path d="M-180.835,207.982h-20c-1.103,0-2-0.897-2-2s0.897-2,2-2h3.445h0.555v-2h-4c-2.209,0-4,1.791-4,4s1.791,4,4,4h20
		c2.205,0,4,1.794,4,4s-1.795,4-4,4v2c3.314,0,6-2.686,6-6C-174.835,210.669-177.521,207.982-180.835,207.982z"/>
	<path d="M-178.835,191.982v2c2.205,0,4,1.794,4,4s-1.795,4-4,4h-15.988v2h15.988c3.314,0,6-2.687,6-6
		C-172.835,194.668-175.521,191.982-178.835,191.982z"/>
	<path d="M-172.835,203.982v2h5.5v-0.051c2.523-0.254,4.5-2.358,4.5-4.949c0-2.762-2.238-5-5-5v2c1.654,0,3,1.346,3,3s-1.346,3-3,3
		c-0.043,0-0.083-0.011-0.126-0.013h-4.862c0.003,0.005,0.009,0.009,0.012,0.013H-172.835z"/>
	<path d="M-161.835,207.982h-11v2h7.022c-0.004,0.004-0.008,0.008-0.011,0.013h3.862c0.043-0.002,0.083-0.013,0.126-0.013
		c1.654,0,3,1.346,3,3s-1.346,3-3,3v2c2.762,0,5-2.238,5-5S-159.073,207.982-161.835,207.982z"/>
</g>
<path d="M355.457,194.329v-0.038h-38.376c-1.103,0-2-0.897-2-2s0.897-2,2-2h33c2.762,0,5-2.238,5-5s-2.238-5-5-5h-37.875v0.008
	c-0.042-0.001-0.083-0.008-0.125-0.008c-2.762,0-5,2.238-5,5s2.238,5,5,5v-2c-1.654,0-3-1.346-3-3s1.346-3,3-3h0.125h3.853h34.022
	c1.654,0,3,1.346,3,3s-1.346,3-3,3h-33c-2.209,0-4,1.791-4,4s1.791,4,4,4h38c1.103,0,2,0.897,2,2s-0.897,2-2,2h-32
	c-2.209,0-4,1.791-4,4s1.791,4,4,4h22c1.103,0,2,0.897,2,2s-0.897,2-2,2h-24.01v0.001c-2.204,0.006-3.99,1.793-3.99,3.999
	s1.786,3.993,3.99,3.999v0.001h12.01c1.103,0,2,0.897,2,2s-0.897,2-2,2h-2c-2.209,0-4,1.791-4,4s1.791,4,4,4v-2
	c-1.103,0-2-0.897-2-2s0.897-2,2-2h2c2.209,0,4-1.791,4-4s-1.791-4-4-4h-12c-1.103,0-2-0.897-2-2s0.897-2,2-2h24
	c2.209,0,4-1.791,4-4c0-2.152-1.704-3.895-3.834-3.983v-0.017h-22.166c-1.103,0-2-0.897-2-2s0.897-2,2-2h32c2.209,0,4-1.791,4-4
	C359.081,196.211,357.487,194.521,355.457,194.329z"/>
<path d="M540.872,185.007v-2.024h-2v2.024c-13.01,0.513-23.462,10.965-23.975,23.976h1.674c1.14-1.222,2.748-2,4.551-2
	c2.26,0,4.233,1.203,5.331,3h1.838c1.098-1.797,3.071-3,5.331-3c2.204,0,4.137,1.144,5.25,2.866v15.134c0,2.21,1.791,4,4,4
	s4-1.79,4-4h-2c0,1.103-0.897,2-2,2s-2-0.897-2-2v-15.134c1.113-1.723,3.046-2.866,5.25-2.866c2.26,0,4.233,1.203,5.331,3h1.838
	c1.098-1.797,3.071-3,5.331-3c1.803,0,3.411,0.778,4.551,2h1.674C564.334,195.972,553.882,185.52,540.872,185.007z M558.622,204.982
	c-2.496,0-4.736,1.114-6.25,2.87c-1.514-1.756-3.754-2.87-6.25-2.87s-4.736,1.114-6.25,2.87c-1.514-1.756-3.754-2.87-6.25-2.87
	s-4.736,1.114-6.25,2.87c-1.514-1.756-3.755-2.87-6.25-2.87c-1.402,0-2.731,0.351-3.897,0.975
	c1.909-10.769,11.339-18.975,22.647-18.975s20.738,8.206,22.647,18.975C561.354,205.333,560.024,204.982,558.622,204.982z"/>
<g>
	<path d="M135.577,309.295v-17.105c0-2.762-2.238-5-5-5s-5,2.238-5,5v17.105c-1.236,1.263-2,2.988-2,4.895c0,3.866,3.134,7,7,7
		s7-3.134,7-7C137.577,312.283,136.813,310.558,135.577,309.295z M130.577,319.189c-2.757,0-5-2.243-5-5
		c0-1.313,0.508-2.554,1.429-3.495l0.571-0.583v-0.816v-17.105c0-1.654,1.346-3,3-3s3,1.346,3,3v17.105v0.816l0.571,0.583
		c0.921,0.941,1.429,2.183,1.429,3.495C135.577,316.946,133.334,319.189,130.577,319.189z"/>
	<path d="M131.577,311.365v-15.176h-2v15.176c-1.167,0.413-2.008,1.516-2.008,2.824c0,1.662,1.347,3.008,3.008,3.008
		c1.662,0,3.008-1.346,3.008-3.008C133.585,312.881,132.745,311.778,131.577,311.365z M130.577,315.197
		c-0.556,0-1.008-0.452-1.008-1.008s0.452-1.008,1.008-1.008s1.008,0.452,1.008,1.008S131.133,315.197,130.577,315.197z"/>
</g>
<g>
	<path d="M235.365,309.295v-17.105c0-2.762-2.238-5-5-5s-5,2.238-5,5v17.105c-1.236,1.263-2,2.988-2,4.895c0,3.866,3.134,7,7,7
		s7-3.134,7-7C237.365,312.283,236.602,310.558,235.365,309.295z M230.365,319.189c-2.757,0-5-2.243-5-5
		c0-1.313,0.508-2.554,1.429-3.495l0.571-0.583v-0.816v-17.105c0-1.654,1.346-3,3-3s3,1.346,3,3v17.105v0.816l0.571,0.583
		c0.921,0.941,1.429,2.183,1.429,3.495C235.365,316.946,233.122,319.189,230.365,319.189z"/>
	<path d="M231.365,311.365v-20.176h-2v20.176c-1.167,0.413-2.008,1.516-2.008,2.824c0,1.662,1.347,3.008,3.008,3.008
		c1.662,0,3.008-1.346,3.008-3.008C233.373,312.881,232.533,311.778,231.365,311.365z M230.365,315.197
		c-0.556,0-1.008-0.452-1.008-1.008s0.452-1.008,1.008-1.008s1.008,0.452,1.008,1.008S230.921,315.197,230.365,315.197z"/>
</g>
<g>
	<path d="M32.468,309.295v-17.105c0-2.762-2.238-5-5-5s-5,2.238-5,5v17.105c-1.236,1.263-2,2.988-2,4.895c0,3.866,3.134,7,7,7
		s7-3.134,7-7C34.468,312.283,33.704,310.558,32.468,309.295z M27.468,319.189c-2.757,0-5-2.243-5-5
		c0-1.313,0.508-2.554,1.429-3.495l0.571-0.583v-0.816v-17.105c0-1.654,1.346-3,3-3s3,1.346,3,3v17.105v0.816l0.571,0.583
		c0.921,0.941,1.429,2.183,1.429,3.495C32.468,316.946,30.225,319.189,27.468,319.189z"/>
	<path d="M28.468,311.365v-10.176h-2v10.176c-1.167,0.413-2.008,1.516-2.008,2.824c0,1.662,1.347,3.008,3.008,3.008
		c1.662,0,3.008-1.346,3.008-3.008C30.476,312.881,29.636,311.778,28.468,311.365z M27.468,315.197
		c-0.556,0-1.008-0.452-1.008-1.008s0.452-1.008,1.008-1.008s1.008,0.452,1.008,1.008S28.023,315.197,27.468,315.197z"/>
</g>
<g>
	<path d="M-71.178,309.295v-17.105c0-2.762-2.238-5-5-5s-5,2.238-5,5v17.105c-1.236,1.263-2,2.988-2,4.895c0,3.866,3.134,7,7,7
		s7-3.134,7-7C-69.178,312.283-69.941,310.558-71.178,309.295z M-76.178,319.189c-2.757,0-5-2.243-5-5
		c0-1.313,0.508-2.554,1.429-3.495l0.571-0.583v-0.816v-17.105c0-1.654,1.346-3,3-3s3,1.346,3,3v17.105v0.816l0.571,0.583
		c0.921,0.941,1.429,2.183,1.429,3.495C-71.178,316.946-73.421,319.189-76.178,319.189z"/>
	<path d="M-75.178,311.365v-5.176h-2v5.176c-1.167,0.413-2.008,1.516-2.008,2.824c0,1.662,1.347,3.008,3.008,3.008
		c1.662,0,3.008-1.346,3.008-3.008C-73.17,312.881-74.01,311.778-75.178,311.365z M-76.178,315.197
		c-0.556,0-1.008-0.452-1.008-1.008s0.452-1.008,1.008-1.008s1.008,0.452,1.008,1.008S-75.622,315.197-76.178,315.197z"/>
</g>
<g>
	<path d="M-175.835,309.295v-17.105c0-2.762-2.238-5-5-5s-5,2.238-5,5v17.105c-1.236,1.263-2,2.988-2,4.895c0,3.866,3.134,7,7,7
		s7-3.134,7-7C-173.835,312.283-174.599,310.558-175.835,309.295z M-180.835,319.189c-2.757,0-5-2.243-5-5
		c0-1.313,0.508-2.554,1.429-3.495l0.571-0.583v-0.816v-17.105c0-1.654,1.346-3,3-3s3,1.346,3,3v17.105v0.816l0.571,0.583
		c0.921,0.941,1.429,2.183,1.429,3.495C-175.835,316.946-178.078,319.189-180.835,319.189z"/>
	<path d="M-180.835,311.182c-1.661,0-3.008,1.347-3.008,3.008c0,1.662,1.347,3.008,3.008,3.008c1.662,0,3.008-1.346,3.008-3.008
		C-177.827,312.528-179.173,311.182-180.835,311.182z M-180.835,315.197c-0.556,0-1.008-0.452-1.008-1.008s0.452-1.008,1.008-1.008
		s1.008,0.452,1.008,1.008S-180.279,315.197-180.835,315.197z"/>
</g>
<g>
	<path d="M324.09,289.502c-2.209,0-4,1.791-4,4c0,2.21,1.791,4,4,4c2.211,0,4-1.79,4-4
		C328.09,291.293,326.301,289.502,324.09,289.502z M324.09,295.502c-1.103,0-2-0.897-2-2s0.897-2,2-2s2,0.897,2,2
		S325.192,295.502,324.09,295.502z"/>
	<path d="M338.09,317.502c-4.41,0-7.999-3.589-7.999-7.999v-4.002c0-4.41,3.589-7.999,7.999-7.999c2.715,0,5.115,1.362,6.563,3.437
		l1.43-1.43c-1.824-2.429-4.72-4.007-7.992-4.007c-5.522,0-9.999,4.478-9.999,9.999v4.002c0,5.521,4.477,9.999,9.999,9.999
		c3.272,0,6.168-1.579,7.992-4.008l-1.43-1.43C343.206,316.139,340.806,317.502,338.09,317.502z"/>
</g>
<g>
	<path d="M428.786,289.381c-2.209,0-4,1.791-4,4c0,2.21,1.791,4,4,4c2.211,0,4-1.79,4-4
		C432.786,291.172,430.997,289.381,428.786,289.381z M428.786,295.381c-1.103,0-2-0.897-2-2s0.897-2,2-2s2,0.897,2,2
		S429.889,295.381,428.786,295.381z"/>
	<polygon points="448.661,297.502 448.661,295.502 436.661,295.502 434.661,295.502 434.661,319.502 436.661,319.502 
		436.661,307.502 444.661,307.502 444.661,305.502 436.661,305.502 436.661,297.502 	"/>
</g>
<g>
	<path d="M539.872,293.193c-7.179,0-13,5.82-13,13s5.821,13,13,13s13-5.82,13-13S547.051,293.193,539.872,293.193z M539.872,317.193
		c-6.065,0-11-4.935-11-11s4.935-11,11-11s11,4.935,11,11S545.938,317.193,539.872,317.193z"/>
	<path d="M535.605,310.436l6.363-2.121l2.121-6.364l-6.363,2.122L535.605,310.436z M539.308,305.653l1.62-0.54l-0.54,1.62
		l-1.62,0.54L539.308,305.653z"/>
</g>
<g>
	<path d="M-180.835,383.711c-7.179,0-13,5.82-13,13s5.821,13,13,13s13-5.82,13-13S-173.656,383.711-180.835,383.711z
		 M-180.835,407.711c-6.065,0-11-4.934-11-11c0-6.064,4.935-11,11-11s11,4.936,11,11
		C-169.835,402.777-174.77,407.711-180.835,407.711z"/>
	<path d="M-178.273,395.133l-2.586-4.422l-2.529,4.33h0.007c-0.299,0.467-0.478,1.018-0.478,1.613c0,1.656,1.343,3,3,3s3-1.344,3-3
		c0-0.559-0.162-1.074-0.428-1.521H-178.273z M-180.859,397.654c-0.552,0-1-0.449-1-1c0-0.188,0.055-0.367,0.162-0.535l0.864-1.355
		l0.826,1.391c0.098,0.164,0.147,0.332,0.147,0.5C-179.859,397.205-180.308,397.654-180.859,397.654z"/>
</g>
<g>
	<path d="M-76.051,383.711c-7.18,0-13,5.82-13,13s5.82,13,13,13s13-5.82,13-13S-68.871,383.711-76.051,383.711z M-76.051,407.711
		c-6.065,0-11-4.934-11-11c0-6.064,4.935-11,11-11s11,4.936,11,11C-65.051,402.777-69.985,407.711-76.051,407.711z"/>
	<path d="M-74.462,394.131c-0.467-0.299-1.018-0.477-1.613-0.477c-1.658,0-3,1.342-3,3c0,1.656,1.342,3,3,3
		c0.557,0,1.072-0.162,1.52-0.428v0.014l4.422-2.586l-4.328-2.529V394.131z M-75.577,397.506c-0.164,0.098-0.332,0.148-0.498,0.148
		c-0.552,0-1-0.449-1-1c0-0.553,0.448-1,1-1c0.188,0,0.368,0.053,0.535,0.16l1.355,0.865L-75.577,397.506z"/>
</g>
<g>
	<path d="M27,383.711c-7.18,0-13,5.82-13,13s5.82,13,13,13s13-5.82,13-13S34.18,383.711,27,383.711z M27,407.711
		c-6.065,0-11-4.934-11-11c0-6.064,4.935-11,11-11s11,4.936,11,11C38,402.777,33.065,407.711,27,407.711z"/>
	<path d="M27,393.654c-1.656,0-3,1.342-3,3c0,0.557,0.162,1.072,0.428,1.52h-0.014L27,402.596l2.529-4.328h-0.006
		c0.299-0.467,0.477-1.018,0.477-1.613C30,394.996,28.658,393.654,27,393.654z M27.839,397.189l-0.865,1.355l-0.826-1.393
		C26.05,396.988,26,396.82,26,396.654c0-0.553,0.448-1,1-1s1,0.447,1,1C28,396.842,27.946,397.021,27.839,397.189z"/>
</g>
<g>
	<path d="M130.414,383.711c-7.179,0-13,5.82-13,13s5.821,13,13,13s13-5.82,13-13S137.593,383.711,130.414,383.711z M130.414,407.711
		c-6.065,0-11-4.934-11-11c0-6.064,4.935-11,11-11s11,4.936,11,11C141.414,402.777,136.479,407.711,130.414,407.711z"/>
	<path d="M130.373,393.654c-0.557,0-1.072,0.162-1.52,0.428v-0.014l-4.422,2.586l4.328,2.529v-0.006
		c0.467,0.299,1.018,0.477,1.613,0.477c1.658,0,3-1.342,3-3C133.373,394.998,132.031,393.654,130.373,393.654z M130.373,397.654
		c-0.188,0-0.368-0.055-0.535-0.162l-1.355-0.865l1.393-0.826c0.164-0.098,0.332-0.146,0.498-0.146c0.552,0,1,0.447,1,1
		C131.373,397.205,130.925,397.654,130.373,397.654z"/>
</g>
<g>
	<rect x="-77.737" y="186.982" width="2" height="10"/>
	<rect x="-63.037" y="193.068" transform="matrix(0.7071 0.7071 -0.7071 0.7071 122.0298 101.94)" width="2" height="10.409"/>
	<rect x="-96.646" y="197.278" transform="matrix(0.7071 0.7071 -0.7071 0.7071 113.4209 122.7334)" width="10.409" height="2"/>
	<polygon points="-83.405,216.236 -81.991,217.65 -77.737,213.396 -77.737,222.982 -75.737,222.982 -75.737,213.396 -71.484,217.65 
		-70.07,216.236 -76.737,209.568 	"/>
	<path d="M-63.73,212.981c0-0.002,0-0.004,0-0.006c0-7.18-5.82-12.999-13-12.999s-13,5.819-13,12.999c0,0.002,0,0.004,0,0.006h-13v2
		h18v-2h-3c0-0.002,0-0.004,0-0.006c0-6.064,4.935-10.999,11-10.999s11,4.935,11,10.999c0,0.002,0,0.004,0,0.006h-3v2h17.995v-2
		H-63.73z"/>
</g>
<g>
	<rect x="26.008" y="185.795" width="2" height="10"/>
	<rect x="40.708" y="191.881" transform="matrix(0.7071 0.7071 -0.7071 0.7071 151.5763 28.2333)" width="2" height="10.409"/>
	<rect x="7.099" y="196.09" transform="matrix(0.7071 0.7071 -0.7071 0.7071 142.9674 49.0267)" width="10.409" height="2"/>
	<polygon points="28.008,220.342 28.008,209.795 26.008,209.795 26.008,220.342 21.754,216.088 20.34,217.502 27.008,224.17 
		33.675,217.502 32.261,216.088 	"/>
	<path d="M40.015,211.794c0-0.002,0-0.004,0-0.006c0-7.18-5.82-12.999-13-12.999s-13,5.819-13,12.999c0,0.002,0,0.004,0,0.006h-13v2
		h22v-2h-7c0-0.002,0-0.004,0-0.006c0-6.064,4.935-10.999,11-10.999s11,4.935,11,10.999c0,0.002,0,0.004,0,0.006h-7v2H53.01v-2
		H40.015z"/>
</g>
<g>
	<polygon points="230.365,219.808 230.365,205.425 228.365,205.425 228.365,219.808 224.111,215.554 222.697,216.968 
		229.365,223.636 236.032,216.968 234.618,215.554 	"/>
	<path d="M245.993,200.454c-1.596-7.445-8.207-13.029-16.127-13.029c-6.423,0-11.977,3.678-14.702,9.035
		c-0.266-0.018-0.53-0.04-0.8-0.04c-6.627,0-11.999,5.372-11.999,12c0,6.607,5.34,11.965,11.938,11.998v0.003h6.062v-2h-5.604
		l-0.447-0.003c-5.485-0.027-9.948-4.513-9.948-9.998c0-5.514,4.485-10,9.999-10c0.175,0,0.347,0.014,0.52,0.025l0.148,0.01
		l1.316,0.088l0.598-1.176c2.492-4.899,7.443-7.942,12.92-7.942c6.79,0,12.75,4.814,14.172,11.448l0.317,1.482l1.514,0.095
		c4.203,0.262,7.496,3.763,7.496,7.971c0,4.397-3.565,7.977-7.957,8c-0.05-0.003-0.093-0.005-0.137-0.007l-2.043,0.007h-4.863v2
		h6.863v-0.007c0.046,0.001,0.091,0.007,0.137,0.007c5.521,0,10-4.477,10-10C255.365,205.11,251.221,200.779,245.993,200.454z"/>
</g>
<g>
	<polygon points="136.35,216.612 137.764,215.198 131.097,208.53 124.429,215.198 125.843,216.612 130.097,212.358 130.097,224.944 
		132.097,224.944 132.097,212.358 	"/>
	<path d="M147.725,202.05c-1.596-7.445-8.207-13.029-16.127-13.029c-6.423,0-11.977,3.678-14.702,9.035
		c-0.266-0.018-0.53-0.04-0.8-0.04c-6.627,0-11.999,5.372-11.999,12c0,6.607,5.34,11.965,11.938,11.998v0.003h10.062v-2h-9.604
		l-0.447-0.003c-5.485-0.027-9.948-4.513-9.948-9.998c0-5.514,4.485-10,9.999-10c0.175,0,0.347,0.014,0.52,0.025l0.148,0.01
		l1.316,0.088l0.598-1.176c2.492-4.899,7.443-7.942,12.92-7.942c6.79,0,12.75,4.814,14.172,11.448l0.317,1.482l1.514,0.095
		c4.203,0.262,7.496,3.763,7.496,7.971c0,4.397-3.565,7.977-7.957,8c-0.05-0.003-0.093-0.005-0.137-0.007l-2.043,0.007h-8.863v2
		h10.863v-0.007c0.046,0.001,0.091,0.007,0.137,0.007c5.521,0,10-4.477,10-10C157.097,206.706,152.952,202.375,147.725,202.05z"/>
</g>
<g>
	<path d="M350.214,12.534c-1.596-7.445-8.207-13.029-16.127-13.029c-6.423,0-11.977,3.678-14.702,9.035
		c-0.266-0.018-0.53-0.04-0.8-0.04c-6.627,0-11.999,5.372-11.999,12c0,6.607,5.34,11.965,11.938,11.998v0.003h2.062v-2h-1.604
		l-0.447-0.003c-5.485-0.027-9.948-4.513-9.948-9.998c0-5.514,4.485-10,9.999-10c0.175,0,0.347,0.014,0.52,0.025l0.148,0.01
		l1.316,0.088l0.598-1.176c2.492-4.899,7.443-7.942,12.92-7.942c6.79,0,12.75,4.814,14.172,11.448l0.317,1.482l1.514,0.095
		c4.203,0.262,7.496,3.763,7.496,7.971c0,4.397-3.565,7.977-7.957,8c-0.05-0.003-0.093-0.005-0.137-0.007l-2.043,0.007h-0.863v2
		h2.863v-0.007c0.046,0.001,0.091,0.007,0.137,0.007c5.521,0,10-4.477,10-10C359.586,17.19,355.441,12.859,350.214,12.534z"/>
	<polygon points="328.586,31.522 328.586,28.893 330.759,30.115 331.444,28.895 328.975,27.505 331.444,26.115 330.759,24.895 
		328.586,26.117 328.586,23.522 326.586,23.522 326.586,26.161 324.335,24.895 323.649,26.115 326.119,27.505 323.649,28.895 
		324.335,30.115 326.586,28.849 326.586,31.522 	"/>
	<polygon points="333.748,35.877 331.575,37.1 331.575,34.505 329.575,34.505 329.575,37.144 327.324,35.877 326.639,37.098 
		329.108,38.487 326.639,39.877 327.324,41.098 329.575,39.831 329.575,42.505 331.575,42.505 331.575,39.875 333.748,41.098 
		334.434,39.877 331.964,38.487 334.434,37.098 	"/>
	<polygon points="342.764,28.895 340.591,30.117 340.591,27.522 338.591,27.522 338.591,30.161 336.34,28.895 335.654,30.115 
		338.124,31.505 335.654,32.895 336.34,34.115 338.591,32.849 338.591,35.522 340.591,35.522 340.591,32.893 342.764,34.115 
		343.449,32.895 340.979,31.505 343.449,30.115 	"/>
</g>
<g>
	<rect x="425.726" y="-5.518" width="2" height="7.973"/>
	<rect x="406.726" y="13.396" width="7.973" height="2"/>
	<rect x="411.399" y="2.13" transform="matrix(0.7071 0.7071 -0.7071 0.7071 123.8768 -292.8054)" width="7.974" height="2"/>
	<rect x="436.907" y="-0.852" transform="matrix(0.7071 0.7071 -0.7071 0.7071 130.476 -308.7293)" width="2" height="7.972"/>
	<path d="M456.237,20.272c-1.444-6.742-7.433-11.8-14.605-11.8c-2.185,0-4.258,0.471-6.127,1.314
		c-1.666-3.203-5.006-5.395-8.865-5.395c-5.522,0-10,4.477-10,9.999c0,2.46,0.899,4.702,2.373,6.442
		c-1.428,1.84-2.287,4.144-2.287,6.653c0,5.983,4.836,10.836,10.813,10.865v0.003h1.188v-2h-0.721l-0.457-0.003
		c-4.864-0.023-8.822-4.001-8.822-8.865c0-4.89,3.978-8.868,8.867-8.868c0.15,0,0.299,0.012,0.447,0.022l0.148,0.01l1.314,0.085
		l0.597-1.175c2.225-4.372,6.644-7.089,11.532-7.089c6.062,0,11.382,4.298,12.649,10.219l0.318,1.483l1.514,0.094
		c3.708,0.23,6.612,3.319,6.612,7.03c0,3.878-3.144,7.035-7.017,7.057c-0.042-0.003-0.079-0.005-0.117-0.005l-1.866,0.005v2h1.819
		V38.35c0.042,0.001,0.082,0.006,0.124,0.006c5.001,0,9.057-4.054,9.057-9.057C464.726,24.489,460.972,20.567,456.237,20.272z
		 M428.317,16.655c-0.241-0.016-0.48-0.036-0.725-0.036c-2.766,0-5.282,1.041-7.2,2.742c-1.092-1.365-1.753-3.089-1.753-4.97
		c0-4.41,3.589-7.999,8-7.999c3.092,0,5.76,1.773,7.091,4.346C431.433,12.178,429.554,14.226,428.317,16.655z"/>
	<polygon points="435.718,37.375 435.718,34.745 437.891,35.968 438.576,34.747 436.106,33.357 438.576,31.968 437.891,30.747 
		435.718,31.97 435.718,29.375 433.718,29.375 433.718,32.014 431.467,30.747 430.781,31.968 433.251,33.357 430.781,34.747 
		431.467,35.968 433.718,34.701 433.718,37.375 	"/>
	<polygon points="440.88,41.729 438.707,42.952 438.707,40.357 436.707,40.357 436.707,42.996 434.456,41.729 433.771,42.95 
		436.24,44.34 433.771,45.729 434.456,46.95 436.707,45.684 436.707,48.357 438.707,48.357 438.707,45.728 440.88,46.95 
		441.565,45.729 439.096,44.34 441.565,42.95 	"/>
	<polygon points="449.896,34.747 447.723,35.97 447.723,33.375 445.723,33.375 445.723,36.014 443.472,34.747 442.786,35.968 
		445.256,37.357 442.786,38.747 443.472,39.968 445.723,38.701 445.723,41.375 447.723,41.375 447.723,38.745 449.896,39.968 
		450.581,38.747 448.111,37.357 450.581,35.968 	"/>
</g>
<g>
	<path d="M556.426,17.27c-1.444-6.742-7.433-11.8-14.605-11.8c-1.799,0-3.522,0.32-5.118,0.904c-0.949-5.108-5.404-8.98-10.788-8.98
		c-0.413,0-0.819,0.027-1.222,0.071c0.744,1.112,1.179,2.448,1.179,3.886c0,3.865-3.134,7-7,7c-1.438,0-2.773-0.435-3.886-1.179
		c-0.044,0.401-0.071,0.809-0.071,1.222c0,3.713,1.845,6.987,4.661,8.979c-1.653,1.907-2.661,4.389-2.661,7.111
		c0,5.983,4.836,10.836,10.813,10.865v0.003h1.188v-2h-0.721l-0.457-0.003c-4.864-0.023-8.822-4.001-8.822-8.865
		c0-4.89,3.978-8.868,8.867-8.868c0.15,0,0.299,0.012,0.447,0.022l0.148,0.01l1.314,0.085l0.597-1.175
		c2.225-4.372,6.644-7.089,11.532-7.089c6.062,0,11.382,4.298,12.649,10.219l0.318,1.483l1.514,0.094
		c3.708,0.23,6.612,3.319,6.612,7.03c0,3.878-3.144,7.035-7.017,7.057c-0.042-0.003-0.079-0.005-0.117-0.005l-1.866,0.005v2h1.819
		v-0.006c0.042,0.001,0.082,0.006,0.124,0.006c5.001,0,9.057-4.054,9.057-9.057C564.914,21.486,561.16,17.564,556.426,17.27z
		 M528.506,13.652c-0.241-0.016-0.48-0.036-0.725-0.036c-2.537,0-4.865,0.877-6.715,2.334c-2.012-1.294-3.486-3.354-3.976-5.776
		c0.582,0.117,1.178,0.177,1.78,0.177c4.963,0,9-4.037,9-9c0-0.603-0.06-1.198-0.177-1.78c3.733,0.753,6.629,3.824,7.134,7.64
		C532.115,8.654,529.9,10.909,528.506,13.652z"/>
	<polygon points="535.951,34.372 535.951,31.742 538.124,32.965 538.81,31.744 536.34,30.354 538.81,28.965 538.124,27.744 
		535.951,28.967 535.951,26.372 533.951,26.372 533.951,29.011 531.7,27.744 531.015,28.965 533.484,30.354 531.015,31.744 
		531.7,32.965 533.951,31.698 533.951,34.372 	"/>
	<polygon points="541.113,38.727 538.94,39.949 538.94,37.354 536.94,37.354 536.94,39.993 534.689,38.727 534.004,39.947 
		536.474,41.337 534.004,42.727 534.689,43.947 536.94,42.681 536.94,45.354 538.94,45.354 538.94,42.725 541.113,43.947 
		541.799,42.727 539.329,41.337 541.799,39.947 	"/>
	<polygon points="550.129,31.744 547.956,32.967 547.956,30.372 545.956,30.372 545.956,33.011 543.705,31.744 543.02,32.965 
		545.489,34.354 543.02,35.744 543.705,36.965 545.956,35.698 545.956,38.372 547.956,38.372 547.956,35.742 550.129,36.965 
		550.814,35.744 548.345,34.354 550.814,32.965 	"/>
</g>
<rect x="-59.933" y="-550.48" fill="none" width="472.974" height="180.918"/>
<text transform="matrix(1 0 0 1 119.7046 -479.0815)"><tspan x="0" y="0" font-family="'HelveticaNeueLTStd-Th'" font-size="100" letter-spacing="2">60</tspan><tspan x="-99.268" y="60" font-family="'HelveticaNeueLTStd-Lt'" font-size="48" letter-spacing="1">Weather Icons</tspan><tspan x="-3.726" y="104" font-family="'HelveticaNeueLTStd-Lt'" font-size="24">IOS 7 Style</tspan></text>
</svg>
