<?xml version="1.0" encoding="utf-8"?>
<!-- Generator: Adobe Illustrator 16.0.0, SVG Export Plug-In . SVG Version: 6.00 Build 0)  -->
<!DOCTYPE svg PUBLIC "-//W3C//DTD SVG 1.1//EN" "http://www.w3.org/Graphics/SVG/1.1/DTD/svg11.dtd">
<svg version="1.1" id="Layer_1" xmlns="http://www.w3.org/2000/svg" xmlns:xlink="http://www.w3.org/1999/xlink" x="0px" y="0px"
	 width="52px" height="52px" viewBox="0 0 52 52" enable-background="new 0 0 52 52" xml:space="preserve">
<g>
	<path d="M26,12.994c-7.18,0-13,5.819-13,12.999c0,7.181,5.82,13.002,13,13.002s13-5.821,13-13.002
		C39,18.813,33.18,12.994,26,12.994z M26,36.995c-6.065,0-11-4.936-11-11.002c0-6.064,4.935-10.999,11-10.999s11,4.935,11,10.999
		C37,32.06,32.065,36.995,26,36.995z"/>
	<rect x="24.993" width="2" height="10"/>
	<rect x="24.993" y="42" width="2" height="10"/>
	<rect y="25" width="9.993" height="2"/>
	<rect x="41.993" y="25" width="10.007" height="2"/>
	<rect x="39.693" y="6.086" transform="matrix(0.7071 0.7071 -0.7071 0.7071 19.9023 -25.4673)" width="2" height="10.409"/>
	<rect x="10.284" y="35.495" transform="matrix(-0.7071 -0.7071 0.7071 -0.7071 -9.5157 77.4579)" width="2" height="10.41"/>
	<rect x="6.084" y="10.296" transform="matrix(0.7071 0.7071 -0.7071 0.7071 11.2934 -4.6739)" width="10.409" height="2"/>
	<rect x="35.492" y="39.705" transform="matrix(-0.7072 -0.7071 0.7071 -0.7072 40.6959 98.2644)" width="10.41" height="2"/>
</g>
</svg>
