<?xml version="1.0" encoding="utf-8"?>
<!-- Generator: Adobe Illustrator 16.0.0, SVG Export Plug-In . SVG Version: 6.00 Build 0)  -->
<!DOCTYPE svg PUBLIC "-//W3C//DTD SVG 1.1//EN" "http://www.w3.org/Graphics/SVG/1.1/DTD/svg11.dtd">
<svg version="1.1" id="Layer_1" xmlns="http://www.w3.org/2000/svg" xmlns:xlink="http://www.w3.org/1999/xlink" x="0px" y="0px"
	 width="51.995px" height="36px" viewBox="0 0 51.995 36" enable-background="new 0 0 51.995 36" xml:space="preserve">
<path d="M543.267,1.702l-1.803,15.077l-0.268,2.237h2.254h6.896l-14.693,18.759l1.789-14.52l0.277-2.245h-2.262h-6.957
	L543.267,1.702 M546.121-5.322l-21.667,28.333h11.004l-2.671,21.667l21.667-27.661H543.45L546.121-5.322L546.121-5.322z"/>
<path d="M130.231-460.559c6.79,0,12.749,4.814,14.171,11.448l0.318,1.483l1.514,0.094c4.203,0.262,7.496,3.763,7.496,7.971
	c0,4.396-3.565,7.977-7.957,8c-0.046-0.003-0.091-0.006-0.137-0.007l-2.043-0.036v0.043h-28.337l-0.578-0.003
	c-5.485-0.027-9.948-4.513-9.948-9.998c0-5.514,4.485-10,9.999-10c0.175,0,0.347,0.014,0.519,0.025l0.149,0.011l1.316,0.087
	l0.598-1.176C119.805-457.516,124.755-460.559,130.231-460.559 M130.231-462.559c-6.423,0-11.977,3.678-14.702,9.035
	c-0.266-0.018-0.53-0.04-0.8-0.04c-6.627,0-11.999,5.372-11.999,12c0,6.607,5.34,11.965,11.938,11.998v0.003h30.925v-0.007
	c0.046,0.001,0.091,0.007,0.137,0.007c5.521,0,10-4.477,10-10c0-5.311-4.145-9.642-9.372-9.967
	C144.763-456.975,138.151-462.559,130.231-462.559L130.231-462.559z"/>
<g>
	<path d="M253.183-442.147c-1.444-6.742-7.433-11.8-14.605-11.8c-2.185,0-4.258,0.47-6.127,1.313
		c-1.666-3.202-5.006-5.394-8.865-5.394c-5.522,0-10,4.477-10,9.999c0,2.46,0.898,4.702,2.373,6.442
		c-1.428,1.84-2.287,4.144-2.287,6.653c0,5.983,4.836,10.836,10.813,10.865v0.003h28.007v-0.006
		c0.042,0.001,0.082,0.006,0.124,0.006c5.001,0,9.057-4.054,9.057-9.057C261.671-437.931,257.917-441.853,253.183-442.147z
		 M223.585-456.027c3.092,0,5.76,1.773,7.092,4.345c-2.299,1.44-4.178,3.488-5.414,5.918c-0.241-0.016-0.48-0.036-0.725-0.036
		c-2.766,0-5.281,1.041-7.2,2.743c-1.092-1.366-1.753-3.09-1.753-4.971C215.585-452.438,219.174-456.027,223.585-456.027z
		 M252.654-426.064c-0.038-0.003-0.077-0.004-0.117-0.005l-2.047-0.042v0.047h-25.403l-0.594-0.003
		c-4.864-0.023-8.822-4.001-8.822-8.865c0-4.89,3.978-8.868,8.867-8.868c0.15,0,0.299,0.012,0.447,0.021l0.148,0.011l1.314,0.085
		l0.598-1.174c2.224-4.373,6.643-7.09,11.531-7.09c6.062,0,11.381,4.298,12.65,10.219l0.317,1.482l1.514,0.095
		c3.708,0.231,6.612,3.319,6.612,7.03C259.671-429.243,256.527-426.087,252.654-426.064z"/>
	<rect x="222.591" y="-468.058" width="2" height="7.973"/>
	<rect x="203.618" y="-449.071" width="7.973" height="2"/>
	<rect x="208.344" y="-460.29" transform="matrix(0.7071 0.7071 -0.7071 0.7071 -262.5768 -284.6637)" width="7.974" height="2"/>
	<rect x="233.853" y="-463.272" transform="matrix(0.7071 0.7071 -0.7071 0.7071 -255.9776 -300.5876)" width="2" height="7.972"/>
</g>
<path d="M348.926-446.175c-1.444-6.742-7.433-11.8-14.605-11.8c-1.799,0-3.521,0.32-5.118,0.904
	c-0.949-5.108-5.404-8.98-10.788-8.98c-0.413,0-0.819,0.027-1.222,0.071c0.744,1.112,1.179,2.448,1.179,3.886c0,3.865-3.134,7-7,7
	c-1.438,0-2.773-0.435-3.886-1.179c-0.044,0.401-0.071,0.809-0.071,1.222c0,3.712,1.845,6.987,4.661,8.979
	c-1.653,1.907-2.661,4.389-2.661,7.111c0,5.983,4.836,10.836,10.813,10.865v0.003h28.007v-0.006
	c0.042,0.001,0.082,0.006,0.124,0.006c5.001,0,9.057-4.054,9.057-9.057C357.414-441.958,353.66-445.88,348.926-446.175z
	 M309.591-453.271c0.582,0.117,1.178,0.177,1.78,0.177c4.963,0,9-4.037,9-9c0-0.603-0.06-1.198-0.177-1.78
	c3.733,0.753,6.629,3.824,7.134,7.64c-2.713,1.444-4.928,3.699-6.322,6.442c-0.241-0.016-0.48-0.036-0.725-0.036
	c-2.537,0-4.865,0.876-6.715,2.334C311.555-448.788,310.08-450.848,309.591-453.271z M348.397-430.092
	c-0.038-0.003-0.077-0.004-0.117-0.005l-2.047-0.042v0.047H320.83l-0.594-0.003c-4.864-0.023-8.822-4.001-8.822-8.865
	c0-4.89,3.978-8.868,8.867-8.868c0.15,0,0.299,0.012,0.447,0.021l0.148,0.011l1.314,0.085l0.598-1.174
	c2.224-4.373,6.643-7.09,11.531-7.09c6.062,0,11.381,4.298,12.65,10.219l0.317,1.482l1.514,0.095
	c3.708,0.231,6.612,3.319,6.612,7.03C355.414-433.271,352.271-430.114,348.397-430.092z"/>
<g>
	<rect x="433.571" y="-437.552" width="2" height="7"/>
	<rect x="441.571" y="-441.552" width="2" height="7"/>
	<rect x="425.571" y="-441.552" width="2" height="7"/>
	<rect x="433.571" y="-427.552" width="2" height="7"/>
	<rect x="441.571" y="-431.552" width="2" height="7"/>
	<rect x="425.571" y="-431.552" width="2" height="7"/>
	<path d="M452.199-454.54c-1.596-7.445-8.207-13.029-16.127-13.029c-6.423,0-11.977,3.678-14.702,9.035
		c-0.266-0.018-0.53-0.04-0.8-0.04c-6.627,0-11.999,5.372-11.999,12c0,6.607,5.34,11.965,11.938,11.998v0.003h2.062v-2h-1.604
		l-0.447-0.003c-5.485-0.027-9.948-4.513-9.948-9.998c0-5.514,4.485-10,9.999-10c0.175,0,0.347,0.014,0.52,0.025l0.148,0.01
		l1.316,0.088l0.598-1.176c2.492-4.899,7.443-7.942,12.92-7.942c6.79,0,12.75,4.814,14.172,11.448l0.317,1.482l1.514,0.095
		c4.203,0.262,7.496,3.763,7.496,7.971c0,4.397-3.565,7.977-7.957,8c-0.05-0.003-0.093-0.005-0.137-0.007l-2.043,0.007h-2.863v2
		h4.863v-0.007c0.046,0.001,0.091,0.007,0.137,0.007c5.521,0,10-4.477,10-10C461.571-449.884,457.427-454.215,452.199-454.54z"/>
</g>
<g>
	<path d="M249.772-365.183c-1.596-7.445-8.207-13.029-16.127-13.029c-6.423,0-11.977,3.678-14.702,9.035
		c-0.266-0.018-0.53-0.04-0.8-0.04c-6.627,0-11.999,5.372-11.999,12c0,6.607,5.34,11.965,11.938,11.998v0.003h2.062v-2h-1.604
		l-0.447-0.003c-5.485-0.027-9.948-4.513-9.948-9.998c0-5.514,4.485-10,9.999-10c0.175,0,0.347,0.014,0.52,0.025l0.148,0.01
		l1.316,0.088l0.598-1.176c2.492-4.899,7.443-7.942,12.92-7.942c6.79,0,12.75,4.814,14.172,11.448l0.317,1.482l1.514,0.095
		c4.203,0.262,7.496,3.763,7.496,7.971c0,4.397-3.565,7.977-7.957,8c-0.05-0.003-0.093-0.005-0.137-0.007l-2.043,0.007h-2.863v2
		h4.863v-0.007c0.046,0.001,0.091,0.007,0.137,0.007c5.521,0,10-4.477,10-10C259.145-360.526,255-364.857,249.772-365.183z"/>
	<polygon points="231.145,-338.188 231.145,-336.247 231.145,-330.188 233.145,-330.188 233.145,-336.247 233.145,-338.188 
		233.145,-350.188 231.145,-350.188 	"/>
	<polygon points="239.145,-342.188 239.145,-340.435 239.145,-334.188 241.145,-334.188 241.145,-340.435 241.145,-342.188 
		241.145,-354.188 239.145,-354.188 	"/>
	<polygon points="223.145,-342.188 223.145,-340.122 223.145,-334.188 225.145,-334.188 225.145,-340.122 225.145,-342.188 
		225.145,-354.188 223.145,-354.188 	"/>
</g>
<g>
	<polygon points="545.422,-341.276 538.539,-351.106 536.901,-349.959 543.784,-340.129 544.896,-338.54 548.372,-333.576 
		550.011,-334.723 546.535,-339.688 	"/>
	<polygon points="553.424,-341.278 546.539,-351.106 544.901,-349.958 551.787,-340.13 552.792,-338.694 556.376,-333.579 
		558.015,-334.726 554.431,-339.842 	"/>
	<polygon points="537.422,-341.276 530.539,-351.106 528.901,-349.958 535.784,-340.129 536.969,-338.437 540.373,-333.575 
		542.011,-334.723 538.607,-339.584 	"/>
	<path d="M556.529-364.916c-1.596-7.445-8.207-13.029-16.127-13.029c-6.423,0-11.977,3.678-14.702,9.035
		c-0.266-0.018-0.53-0.04-0.8-0.04c-6.627,0-11.999,5.372-11.999,12c0,6.607,5.34,11.965,11.938,11.998v0.003h2.062v-2h-1.604
		l-0.447-0.003c-5.485-0.027-9.948-4.513-9.948-9.998c0-5.514,4.485-10,9.999-10c0.175,0,0.347,0.014,0.52,0.025l0.148,0.01
		l1.316,0.088l0.598-1.176c2.492-4.899,7.443-7.942,12.92-7.942c6.79,0,12.75,4.814,14.172,11.448l0.317,1.482l1.514,0.095
		c4.203,0.262,7.496,3.763,7.496,7.971c0,4.397-3.565,7.977-7.957,8c-0.05-0.003-0.093-0.005-0.137-0.007l-1.043,0.007h0.137v2
		h0.863v-0.007c0.046,0.001,0.091,0.007,0.137,0.007c5.521,0,10-4.477,10-10C565.901-360.26,561.757-364.591,556.529-364.916z"/>
</g>
<g>
	<rect x="528.228" y="-473.998" width="2" height="7.973"/>
	<rect x="509.228" y="-455.084" width="7.973" height="2"/>
	<rect x="513.901" y="-466.35" transform="matrix(0.7071 0.7071 -0.7071 0.7071 -177.3668 -502.4999)" width="7.974" height="2"/>
	<rect x="539.409" y="-469.332" transform="matrix(0.7071 0.7071 -0.7071 0.7071 -170.7676 -518.4239)" width="2" height="7.972"/>
	<rect x="542.228" y="-433.125" width="2" height="7"/>
	<rect x="550.228" y="-437.125" width="2" height="7"/>
	<rect x="534.228" y="-437.125" width="2" height="7"/>
	<rect x="542.228" y="-423.125" width="2" height="7"/>
	<rect x="550.228" y="-427.125" width="2" height="7"/>
	<rect x="534.228" y="-427.125" width="2" height="7"/>
	<path d="M558.739-448.208c-1.444-6.742-7.433-11.8-14.605-11.8c-2.185,0-4.258,0.47-6.126,1.313
		c-1.667-3.202-5.007-5.394-8.866-5.394c-5.522,0-10,4.477-10,9.999c0,2.46,0.899,4.702,2.373,6.442
		c-1.429,1.84-2.287,4.144-2.287,6.653c0,5.983,4.836,10.836,10.813,10.865v0.003h1.188v-2h-0.721l-0.457-0.003
		c-4.864-0.023-8.822-4.001-8.822-8.865c0-4.89,3.978-8.868,8.867-8.868c0.15,0,0.299,0.012,0.447,0.022l0.148,0.01l1.314,0.085
		l0.597-1.175c2.225-4.372,6.644-7.089,11.532-7.089c6.062,0,11.382,4.298,12.649,10.219l0.318,1.483l1.514,0.094
		c3.708,0.23,6.612,3.319,6.612,7.03c0,3.878-3.144,7.035-7.017,7.057c-0.042-0.003-0.079-0.005-0.117-0.005l-2.047,0.005h-0.819v2
		h2.819v-0.006c0.042,0.001,0.082,0.006,0.124,0.006c5.001,0,9.057-4.054,9.057-9.057
		C567.228-443.991,563.474-447.913,558.739-448.208z M530.819-451.825c-0.241-0.016-0.48-0.036-0.725-0.036
		c-2.766,0-5.282,1.041-7.2,2.743c-1.092-1.366-1.753-3.09-1.753-4.971c0-4.41,3.589-7.999,8-7.999c3.091,0,5.76,1.773,7.091,4.345
		C533.935-456.303,532.055-454.255,530.819-451.825z"/>
</g>
<g>
	<rect x="642.645" y="-434.572" width="2" height="7"/>
	<rect x="650.645" y="-438.572" width="2" height="7"/>
	<rect x="634.645" y="-438.572" width="2" height="7"/>
	<rect x="642.645" y="-424.572" width="2" height="7"/>
	<rect x="650.645" y="-428.572" width="2" height="7"/>
	<rect x="634.645" y="-428.572" width="2" height="7"/>
	<path d="M659.156-449.655c-1.444-6.742-7.433-11.8-14.605-11.8c-1.799,0-3.522,0.32-5.118,0.904
		c-0.949-5.108-5.404-8.98-10.788-8.98c-0.413,0-0.819,0.027-1.222,0.071c0.744,1.112,1.179,2.448,1.179,3.886c0,3.865-3.134,7-7,7
		c-1.438,0-2.773-0.435-3.886-1.179c-0.044,0.401-0.071,0.809-0.071,1.222c0,3.712,1.845,6.987,4.661,8.979
		c-1.653,1.907-2.661,4.389-2.661,7.111c0,5.983,4.836,10.836,10.813,10.865v0.003h1.188v-2h-0.721l-0.457-0.003
		c-4.864-0.023-8.822-4.001-8.822-8.865c0-4.89,3.978-8.868,8.867-8.868c0.15,0,0.299,0.012,0.447,0.022l0.148,0.01l1.314,0.085
		l0.597-1.175c2.225-4.372,6.644-7.089,11.532-7.089c6.062,0,11.382,4.298,12.649,10.219l0.318,1.483l1.514,0.094
		c3.708,0.23,6.612,3.319,6.612,7.03c0,3.878-3.144,7.035-7.017,7.057c-0.042-0.003-0.079-0.005-0.117-0.005l-2.047,0.005h-0.819v2
		h2.819v-0.006c0.042,0.001,0.082,0.006,0.124,0.006c5.001,0,9.057-4.054,9.057-9.057
		C667.645-445.438,663.891-449.36,659.156-449.655z M631.236-453.272c-0.241-0.016-0.48-0.036-0.725-0.036
		c-2.537,0-4.865,0.876-6.715,2.334c-2.012-1.294-3.487-3.354-3.976-5.776c0.582,0.117,1.178,0.177,1.78,0.177c4.963,0,9-4.037,9-9
		c0-0.603-0.06-1.198-0.177-1.78c3.733,0.753,6.629,3.824,7.133,7.64C634.847-458.271,632.632-456.016,631.236-453.272z"/>
</g>
<g>
	<polygon points="335.414,-333.749 335.414,-331.809 335.414,-325.749 337.414,-325.749 337.414,-331.809 337.414,-333.749 
		337.414,-345.749 335.414,-345.749 	"/>
	<polygon points="343.414,-337.749 343.414,-335.996 343.414,-329.749 345.414,-329.749 345.414,-335.996 345.414,-337.749 
		345.414,-349.749 343.414,-349.749 	"/>
	<polygon points="327.414,-337.749 327.414,-335.684 327.414,-329.749 329.414,-329.749 329.414,-335.684 329.414,-337.749 
		329.414,-349.749 327.414,-349.749 	"/>
	<rect x="321.414" y="-384.651" width="2" height="7.973"/>
	<rect x="302.414" y="-365.737" width="7.973" height="2"/>
	<rect x="307.087" y="-377.004" transform="matrix(0.7071 0.7071 -0.7071 0.7071 -174.7634 -330.0917)" width="7.974" height="2"/>
	<rect x="332.596" y="-379.986" transform="matrix(0.7071 0.7071 -0.7071 0.7071 -168.1642 -346.0157)" width="2" height="7.972"/>
	<path d="M351.926-358.861c-1.444-6.742-7.433-11.8-14.605-11.8c-2.185,0-4.258,0.47-6.127,1.313
		c-1.666-3.202-5.006-5.394-8.865-5.394c-5.522,0-10,4.477-10,9.999c0,2.46,0.898,4.702,2.373,6.442
		c-1.428,1.84-2.287,4.144-2.287,6.653c0,5.983,4.836,10.836,10.813,10.865v0.003h1.188v-2h-0.721l-0.457-0.003
		c-4.864-0.023-8.822-4.001-8.822-8.865c0-4.89,3.978-8.868,8.867-8.868c0.15,0,0.299,0.012,0.447,0.022l0.148,0.01l1.314,0.085
		l0.597-1.175c2.225-4.372,6.644-7.089,11.532-7.089c6.062,0,11.382,4.298,12.649,10.219l0.318,1.483l1.514,0.094
		c3.708,0.23,6.612,3.319,6.612,7.03c0,3.878-3.144,7.035-7.017,7.057c-0.042-0.003-0.079-0.005-0.117-0.005l-2.047,0.005h-0.819v2
		h2.819v-0.006c0.042,0.001,0.082,0.006,0.124,0.006c5.001,0,9.057-4.054,9.057-9.057
		C360.414-354.645,356.66-358.566,351.926-358.861z M324.006-362.479c-0.241-0.016-0.48-0.036-0.725-0.036
		c-2.766,0-5.281,1.042-7.2,2.743c-1.092-1.367-1.753-3.09-1.753-4.971c0-4.41,3.589-7.999,8-7.999c3.092,0,5.76,1.773,7.092,4.345
		C327.121-366.957,325.242-364.908,324.006-362.479z"/>
</g>
<g>
	<polygon points="435.812,-336.266 435.812,-334.325 435.812,-328.266 437.812,-328.266 437.812,-334.325 437.812,-336.266 
		437.812,-348.266 435.812,-348.266 	"/>
	<polygon points="443.812,-340.266 443.812,-338.513 443.812,-332.266 445.812,-332.266 445.812,-338.513 445.812,-340.266 
		445.812,-352.266 443.812,-352.266 	"/>
	<polygon points="427.812,-340.266 427.812,-338.2 427.812,-332.266 429.812,-332.266 429.812,-338.2 429.812,-340.266 
		429.812,-352.266 427.812,-352.266 	"/>
	<path d="M452.323-361.378c-1.444-6.742-7.433-11.8-14.605-11.8c-1.799,0-3.521,0.32-5.118,0.904
		c-0.949-5.108-5.404-8.98-10.788-8.98c-0.413,0-0.819,0.027-1.222,0.071c0.744,1.112,1.179,2.448,1.179,3.886c0,3.865-3.134,7-7,7
		c-1.438,0-2.773-0.435-3.886-1.179c-0.044,0.401-0.071,0.809-0.071,1.222c0,3.712,1.845,6.987,4.661,8.979
		c-1.653,1.907-2.661,4.389-2.661,7.111c0,5.983,4.836,10.836,10.813,10.865v0.003h1.188v-2h-0.721l-0.457-0.003
		c-4.864-0.023-8.822-4.001-8.822-8.865c0-4.89,3.978-8.868,8.867-8.868c0.15,0,0.299,0.012,0.447,0.022l0.148,0.01l1.314,0.085
		l0.597-1.175c2.225-4.372,6.644-7.089,11.532-7.089c6.062,0,11.382,4.298,12.649,10.219l0.318,1.483l1.514,0.094
		c3.708,0.23,6.612,3.319,6.612,7.03c0,3.878-3.144,7.035-7.017,7.057c-0.042-0.003-0.079-0.005-0.117-0.005l-2.047,0.005h-0.819v2
		h2.819v-0.006c0.042,0.001,0.082,0.006,0.124,0.006c5.001,0,9.057-4.054,9.057-9.057
		C460.812-357.161,457.058-361.083,452.323-361.378z M424.403-364.995c-0.241-0.016-0.48-0.036-0.725-0.036
		c-2.537,0-4.865,0.876-6.715,2.334c-2.012-1.294-3.486-3.354-3.976-5.776c0.582,0.117,1.178,0.177,1.78,0.177c4.963,0,9-4.037,9-9
		c0-0.603-0.06-1.198-0.177-1.78c3.733,0.753,6.629,3.824,7.134,7.641C428.013-369.993,425.798-367.737,424.403-364.995z"/>
</g>
<g>
	<polygon points="652.847,-335.321 645.964,-345.151 644.326,-344.004 651.209,-334.174 652.321,-332.585 655.797,-327.621 
		657.436,-328.768 653.96,-333.732 	"/>
	<polygon points="660.849,-335.323 653.964,-345.151 652.326,-344.003 659.212,-334.175 660.217,-332.739 663.801,-327.624 
		665.439,-328.771 661.855,-333.887 	"/>
	<polygon points="644.847,-335.321 637.964,-345.151 636.326,-344.003 643.209,-334.174 644.394,-332.481 647.798,-327.62 
		649.436,-328.768 646.032,-333.629 	"/>
	<rect x="632.326" y="-382.87" width="2" height="7.973"/>
	<rect x="613.326" y="-363.956" width="7.973" height="2"/>
	<rect x="617.999" y="-375.223" transform="matrix(0.7071 0.7071 -0.7071 0.7071 -82.4398 -549.418)" width="7.974" height="2"/>
	<rect x="643.508" y="-378.204" transform="matrix(0.7071 0.7071 -0.7071 0.7071 -75.8406 -565.342)" width="2" height="7.972"/>
	<path d="M662.838-357.08c-1.444-6.742-7.433-11.8-14.605-11.8c-2.185,0-4.258,0.47-6.126,1.313
		c-1.667-3.202-5.007-5.394-8.866-5.394c-5.522,0-10,4.477-10,9.999c0,2.46,0.899,4.702,2.373,6.442
		c-1.429,1.84-2.287,4.144-2.287,6.653c0,5.983,4.836,10.836,10.813,10.865v0.003h1.188v-2h-0.721L634.148-341
		c-4.864-0.023-8.822-4.001-8.822-8.865c0-4.89,3.978-8.868,8.867-8.868c0.15,0,0.299,0.012,0.447,0.022l0.148,0.01l1.314,0.085
		l0.597-1.175c2.225-4.372,6.644-7.089,11.532-7.089c6.062,0,11.382,4.298,12.649,10.219l0.318,1.483l1.514,0.094
		c3.708,0.23,6.612,3.319,6.612,7.03c0,3.878-3.144,7.035-7.017,7.057c-0.042-0.003-0.079-0.005-0.117-0.005l-0.047,0.005h-0.819v2
		h0.819v-0.006c0.042,0.001,0.082,0.006,0.124,0.006c5.001,0,9.057-4.054,9.057-9.057
		C671.326-352.863,667.572-356.785,662.838-357.08z M634.918-360.697c-0.241-0.016-0.48-0.036-0.725-0.036
		c-2.766,0-5.282,1.042-7.2,2.743c-1.092-1.367-1.753-3.09-1.753-4.971c0-4.41,3.589-7.999,8-7.999c3.091,0,5.76,1.773,7.091,4.345
		C638.033-365.176,636.153-363.127,634.918-360.697z"/>
</g>
<g>
	<polygon points="-70.584,-238.836 -77.467,-248.666 -79.104,-247.519 -72.222,-237.688 -71.109,-236.1 -67.634,-231.136 
		-65.995,-232.282 -69.471,-237.247 	"/>
	<polygon points="-62.582,-238.838 -69.467,-248.666 -71.104,-247.518 -64.219,-237.689 -63.214,-236.254 -59.63,-231.139 
		-57.991,-232.285 -61.575,-237.401 	"/>
	<polygon points="-78.584,-238.836 -85.467,-248.666 -87.104,-247.518 -80.222,-237.688 -79.037,-235.996 -75.633,-231.135 
		-73.995,-232.282 -77.398,-237.144 	"/>
	<path d="M-60.593-260.595c-1.444-6.742-7.433-11.8-14.605-11.8c-1.799,0-3.522,0.32-5.118,0.904
		c-0.949-5.108-5.404-8.98-10.788-8.98c-0.413,0-0.819,0.027-1.222,0.071c0.744,1.112,1.179,2.448,1.179,3.886c0,3.865-3.134,7-7,7
		c-1.438,0-2.773-0.435-3.886-1.179c-0.044,0.401-0.071,0.809-0.071,1.222c0,3.712,1.845,6.987,4.661,8.979
		c-1.653,1.907-2.661,4.389-2.661,7.111c0,5.983,4.836,10.836,10.813,10.865v0.003h1.188v-2h-0.721l-0.457-0.003
		c-4.864-0.023-8.822-4.001-8.822-8.865c0-4.89,3.978-8.868,8.867-8.868c0.15,0,0.299,0.012,0.447,0.022l0.148,0.01l1.314,0.085
		l0.597-1.175c2.225-4.372,6.644-7.089,11.532-7.089c6.062,0,11.382,4.298,12.649,10.219l0.318,1.483l1.514,0.094
		c3.708,0.23,6.612,3.319,6.612,7.03c0,3.878-3.144,7.035-7.017,7.057c-0.042-0.003-0.079-0.005-0.117-0.005l-0.047,0.005h-0.819v2
		h0.819v-0.006c0.042,0.001,0.082,0.006,0.124,0.006c5.001,0,9.057-4.054,9.057-9.057C-52.104-256.378-55.858-260.3-60.593-260.595z
		 M-88.513-264.212c-0.241-0.016-0.48-0.036-0.725-0.036c-2.537,0-4.865,0.876-6.715,2.334c-2.012-1.294-3.487-3.354-3.976-5.776
		c0.582,0.117,1.178,0.177,1.78,0.177c4.963,0,9-4.037,9-9c0-0.603-0.06-1.198-0.177-1.78c3.733,0.753,6.629,3.824,7.133,7.641
		C-84.902-269.21-87.117-266.954-88.513-264.212z"/>
</g>
<g>
	<rect x="-78.104" y="-342.683" width="2" height="4"/>
	<rect x="-70.104" y="-346.704" width="2" height="4.021"/>
	<rect x="-86.104" y="-346.704" width="2" height="4.021"/>
	<path d="M-59.477-362.671c-1.596-7.445-8.207-13.029-16.127-13.029c-6.423,0-11.977,3.678-14.702,9.035
		c-0.266-0.018-0.53-0.04-0.8-0.04c-6.627,0-11.999,5.372-11.999,12c0,6.607,5.34,11.965,11.938,11.998v0.003h2.062v-2h-1.604
		l-0.447-0.003c-5.485-0.027-9.948-4.513-9.948-9.998c0-5.514,4.485-10,9.999-10c0.175,0,0.347,0.014,0.52,0.025l0.148,0.01
		l1.316,0.088l0.598-1.176c2.492-4.899,7.443-7.942,12.92-7.942c6.79,0,12.75,4.814,14.172,11.448l0.317,1.482l1.514,0.095
		c4.203,0.262,7.496,3.763,7.496,7.971c0,4.397-3.565,7.977-7.957,8c-0.05-0.003-0.093-0.005-0.137-0.007l-2.043,0.007h-2.863v2
		h4.863v-0.007c0.046,0.001,0.091,0.007,0.137,0.007c5.521,0,10-4.477,10-10C-50.104-358.015-54.249-362.346-59.477-362.671z"/>
	<circle cx="-69.104" cy="-337.662" r="1.5"/>
	<circle cx="-77.104" cy="-333.693" r="1.5"/>
	<circle cx="-85.104" cy="-337.704" r="1.5"/>
</g>
<g>
	<rect x="14.816" y="-382.137" width="2" height="7.973"/>
	<rect x="-4.184" y="-363.223" width="7.973" height="2"/>
	<rect x="0.489" y="-374.489" transform="matrix(0.7071 0.7071 -0.7071 0.7071 -262.7856 -112.5579)" width="7.974" height="2"/>
	<rect x="25.998" y="-377.471" transform="matrix(0.7071 0.7071 -0.7071 0.7071 -256.1865 -128.4818)" width="2" height="7.972"/>
	<path d="M45.328-356.347c-1.444-6.742-7.433-11.8-14.605-11.8c-2.185,0-4.258,0.47-6.126,1.313
		c-1.667-3.202-5.007-5.394-8.866-5.394c-5.522,0-10,4.477-10,9.999c0,2.46,0.899,4.702,2.373,6.442
		c-1.429,1.84-2.287,4.144-2.287,6.653c0,5.983,4.836,10.836,10.813,10.865v0.003h1.188v-2h-0.721l-0.457-0.003
		c-4.864-0.023-8.822-4.001-8.822-8.865c0-4.89,3.978-8.868,8.867-8.868c0.15,0,0.299,0.012,0.447,0.022l0.148,0.01l1.314,0.085
		l0.597-1.175c2.225-4.372,6.644-7.089,11.532-7.089c6.062,0,11.382,4.298,12.649,10.219l0.318,1.483l1.514,0.094
		c3.708,0.23,6.612,3.319,6.612,7.03c0,3.878-3.144,7.035-7.017,7.057c-0.042-0.003-0.079-0.005-0.117-0.005l-2.047,0.005h-0.819v2
		h2.819v-0.006c0.042,0.001,0.082,0.006,0.124,0.006c5.001,0,9.057-4.054,9.057-9.057C53.816-352.13,50.063-356.052,45.328-356.347z
		 M17.408-359.964c-0.241-0.016-0.48-0.036-0.725-0.036c-2.766,0-5.282,1.042-7.2,2.743c-1.092-1.367-1.753-3.09-1.753-4.971
		c0-4.41,3.589-7.999,8-7.999c3.091,0,5.76,1.773,7.091,4.345C20.523-364.442,18.644-362.394,17.408-359.964z"/>
	<rect x="28.816" y="-338.248" width="2" height="4"/>
	<rect x="36.816" y="-342.27" width="2" height="4.021"/>
	<rect x="20.816" y="-342.27" width="2" height="4.021"/>
	<circle cx="37.816" cy="-333.228" r="1.5"/>
	<circle cx="29.816" cy="-329.259" r="1.5"/>
	<circle cx="21.816" cy="-333.27" r="1.5"/>
</g>
<g>
	<path d="M146.254-357.304c-1.444-6.742-7.433-11.8-14.605-11.8c-1.799,0-3.522,0.32-5.118,0.904
		c-0.949-5.108-5.404-8.98-10.788-8.98c-0.413,0-0.819,0.027-1.222,0.071c0.744,1.112,1.179,2.448,1.179,3.886c0,3.865-3.134,7-7,7
		c-1.438,0-2.773-0.435-3.886-1.179c-0.044,0.401-0.071,0.809-0.071,1.222c0,3.712,1.845,6.987,4.661,8.979
		c-1.653,1.907-2.661,4.389-2.661,7.111c0,5.983,4.836,10.836,10.813,10.865v0.003h1.188v-2h-0.721l-0.457-0.003
		c-4.864-0.023-8.822-4.001-8.822-8.865c0-4.89,3.978-8.868,8.867-8.868c0.15,0,0.299,0.012,0.447,0.022l0.148,0.01l1.314,0.085
		l0.597-1.175c2.225-4.372,6.644-7.089,11.532-7.089c6.062,0,11.382,4.298,12.649,10.219l0.318,1.483l1.514,0.094
		c3.708,0.23,6.612,3.319,6.612,7.03c0,3.878-3.144,7.035-7.017,7.057c-0.042-0.003-0.079-0.005-0.117-0.005l-2.047,0.005h-0.819v2
		h2.819v-0.006c0.042,0.001,0.082,0.006,0.124,0.006c5.001,0,9.057-4.054,9.057-9.057
		C154.742-353.087,150.988-357.009,146.254-357.304z M118.334-360.921c-0.241-0.016-0.48-0.036-0.725-0.036
		c-2.537,0-4.865,0.876-6.715,2.334c-2.012-1.294-3.487-3.354-3.976-5.776c0.582,0.117,1.178,0.177,1.78,0.177c4.963,0,9-4.037,9-9
		c0-0.603-0.06-1.198-0.177-1.78c3.733,0.753,6.629,3.824,7.133,7.641C121.944-365.919,119.729-363.663,118.334-360.921z"/>
	<rect x="129.742" y="-339.205" width="2" height="4"/>
	<rect x="137.742" y="-343.227" width="2" height="4.021"/>
	<rect x="121.742" y="-343.227" width="2" height="4.021"/>
	<circle cx="138.742" cy="-334.185" r="1.5"/>
	<circle cx="130.742" cy="-330.216" r="1.5"/>
	<circle cx="122.742" cy="-334.227" r="1.5"/>
</g>
<g>
	<path d="M42.944-264.273c-1.596-7.445-8.207-13.029-16.127-13.029c-6.423,0-11.977,3.678-14.702,9.035
		c-0.266-0.018-0.53-0.04-0.8-0.04c-6.627,0-11.999,5.372-11.999,12c0,6.607,5.34,11.965,11.938,11.998v0.003h6.062v-2h-5.604
		l-0.447-0.003c-5.485-0.027-9.948-4.513-9.948-9.998c0-5.514,4.485-10,9.999-10c0.175,0,0.347,0.014,0.52,0.025l0.148,0.01
		l1.316,0.088l0.598-1.176c2.492-4.899,7.443-7.942,12.92-7.942c6.79,0,12.75,4.814,14.172,11.448l0.317,1.482l1.514,0.095
		c4.203,0.262,7.496,3.763,7.496,7.971c0,4.397-3.565,7.977-7.957,8c-0.05-0.003-0.093-0.005-0.137-0.007l-5.043,0.007h0.137v2
		h4.863v-0.007c0.046,0.001,0.091,0.007,0.137,0.007c5.521,0,10-4.477,10-10C52.316-259.617,48.172-263.948,42.944-264.273z"/>
	<polygon points="27.158,-244.303 28.928,-244.303 29.358,-244.303 31.368,-244.303 24.954,-253.464 23.316,-252.316 
		27.527,-246.303 25.757,-246.303 23.316,-246.303 24.588,-244.486 25.7,-242.897 31.678,-234.303 33.316,-235.449 27.339,-244.045 
			"/>
</g>
<g>
	<rect x="118.742" y="-283.403" width="2" height="7.973"/>
	<rect x="99.742" y="-264.489" width="7.973" height="2"/>
	<rect x="104.415" y="-275.756" transform="matrix(0.7071 0.7071 -0.7071 0.7071 -162.5314 -157.1262)" width="7.974" height="2"/>
	<rect x="129.924" y="-278.738" transform="matrix(0.7071 0.7071 -0.7071 0.7071 -155.9323 -173.0501)" width="2" height="7.972"/>
	<path d="M149.254-257.613c-1.444-6.742-7.433-11.8-14.605-11.8c-2.185,0-4.258,0.47-6.127,1.313
		c-1.666-3.202-5.006-5.394-8.865-5.394c-5.522,0-10,4.477-10,9.999c0,2.46,0.898,4.702,2.373,6.442
		c-1.428,1.84-2.287,4.144-2.287,6.653c0,5.983,4.836,10.836,10.813,10.865v0.003h4.188v-2h-3.721l-0.457-0.003
		c-4.864-0.023-8.822-4.001-8.822-8.865c0-4.89,3.978-8.868,8.867-8.868c0.15,0,0.299,0.012,0.447,0.022l0.148,0.01l1.314,0.085
		l0.597-1.175c2.225-4.372,6.644-7.089,11.532-7.089c6.062,0,11.382,4.298,12.649,10.219l0.318,1.483l1.514,0.094
		c3.708,0.23,6.612,3.319,6.612,7.03c0,3.878-3.144,7.035-7.017,7.057c-0.042-0.003-0.079-0.005-0.117-0.005l-2.047,0.005h-3.819v2
		h5.819v-0.006c0.042,0.001,0.082,0.006,0.124,0.006c5.001,0,9.057-4.054,9.057-9.057
		C157.742-253.396,153.988-257.318,149.254-257.613z M121.334-261.23c-0.241-0.016-0.48-0.036-0.725-0.036
		c-2.766,0-5.281,1.041-7.2,2.743c-1.092-1.366-1.753-3.09-1.753-4.971c0-4.41,3.589-7.999,8-7.999c3.092,0,5.76,1.773,7.092,4.345
		C124.449-265.708,122.57-263.66,121.334-261.23z"/>
	<polygon points="133.584,-239.523 135.354,-239.523 135.784,-239.523 137.794,-239.523 131.38,-248.685 129.742,-247.537 
		133.953,-241.523 132.183,-241.523 129.742,-241.523 131.014,-239.707 132.126,-238.118 138.104,-229.523 139.742,-230.67 
		133.765,-239.266 	"/>
</g>
<g>
	<path d="M248.839-259.909c-1.444-6.742-7.433-11.8-14.605-11.8c-1.799,0-3.521,0.32-5.118,0.904
		c-0.949-5.108-5.404-8.98-10.788-8.98c-0.413,0-0.819,0.027-1.222,0.071c0.744,1.112,1.179,2.448,1.179,3.886c0,3.865-3.134,7-7,7
		c-1.438,0-2.773-0.435-3.886-1.179c-0.044,0.401-0.071,0.809-0.071,1.222c0,3.712,1.845,6.987,4.661,8.979
		c-1.653,1.907-2.661,4.389-2.661,7.111c0,5.983,4.836,10.836,10.813,10.865v0.003h4.188v-2h-3.721l-0.457-0.003
		c-4.864-0.023-8.822-4.001-8.822-8.865c0-4.89,3.978-8.868,8.867-8.868c0.15,0,0.299,0.012,0.447,0.022l0.148,0.01l1.314,0.085
		l0.597-1.175c2.225-4.372,6.644-7.089,11.532-7.089c6.062,0,11.382,4.298,12.649,10.219l0.318,1.483l1.514,0.094
		c3.708,0.23,6.612,3.319,6.612,7.03c0,3.878-3.144,7.035-7.017,7.057c-0.042-0.003-0.079-0.005-0.117-0.005l-2.047,0.005h-3.819v2
		h5.819v-0.006c0.042,0.001,0.082,0.006,0.124,0.006c5.001,0,9.057-4.054,9.057-9.057
		C257.327-255.692,253.573-259.614,248.839-259.909z M220.919-263.526c-0.241-0.016-0.48-0.036-0.725-0.036
		c-2.537,0-4.865,0.876-6.715,2.334c-2.012-1.294-3.486-3.354-3.976-5.776c0.582,0.117,1.178,0.177,1.78,0.177c4.963,0,9-4.037,9-9
		c0-0.603-0.06-1.198-0.177-1.78c3.733,0.753,6.629,3.824,7.134,7.64C224.528-268.524,222.313-266.27,220.919-263.526z"/>
	<polygon points="233.169,-241.819 234.938,-241.819 235.369,-241.819 237.379,-241.819 230.965,-250.98 229.327,-249.833 
		233.538,-243.819 231.768,-243.819 229.327,-243.819 230.599,-242.003 231.711,-240.414 237.688,-231.819 239.327,-232.966 
		233.35,-241.562 	"/>
</g>
<g>
	<path d="M349.724-263.773c-1.596-7.445-8.207-13.029-16.127-13.029c-6.423,0-11.977,3.678-14.702,9.035
		c-0.266-0.018-0.53-0.04-0.8-0.04c-6.627,0-11.999,5.372-11.999,12c0,6.607,5.34,11.965,11.938,11.998v0.003h1.062v-2h-0.604
		l-0.447-0.003c-5.485-0.027-9.948-4.513-9.948-9.998c0-5.514,4.485-10,9.999-10c0.175,0,0.347,0.014,0.52,0.025l0.148,0.01
		l1.316,0.088l0.598-1.176c2.492-4.899,7.443-7.942,12.92-7.942c6.79,0,12.75,4.814,14.172,11.448l0.317,1.482l1.514,0.095
		c4.203,0.262,7.496,3.763,7.496,7.971c0,4.397-3.565,7.977-7.957,8c-0.05-0.003-0.093-0.005-0.137-0.007l-0.906,0.007v2h0.863
		v-0.007c0.046,0.001,0.091,0.007,0.137,0.007c5.521,0,10-4.477,10-10C359.096-259.117,354.951-263.448,349.724-263.773z"/>
	
		<rect x="318.53" y="-245.809" transform="matrix(-0.5736 -0.8191 0.8191 -0.5736 710.5754 -119.7501)" width="11.183" height="1.999"/>
	
		<rect x="336.505" y="-245.809" transform="matrix(-0.5736 -0.8191 0.8191 -0.5736 738.8609 -105.0269)" width="11.183" height="1.999"/>
	<polygon points="334.938,-240.803 336.707,-240.803 337.138,-240.803 339.147,-240.803 332.733,-249.964 331.096,-248.816 
		335.307,-242.803 333.536,-242.803 331.096,-242.803 332.367,-240.986 333.479,-239.397 338.096,-232.803 339.734,-233.949 
		335.118,-240.545 	"/>
</g>
<g>
	<rect x="424.571" y="-283.24" width="2" height="7.973"/>
	<rect x="405.571" y="-264.326" width="7.973" height="2"/>
	<rect x="410.244" y="-275.593" transform="matrix(0.7071 0.7071 -0.7071 0.7071 -72.8408 -373.3322)" width="7.974" height="2"/>
	<rect x="435.753" y="-278.575" transform="matrix(0.7071 0.7071 -0.7071 0.7071 -66.2417 -389.2562)" width="2" height="7.972"/>
	<path d="M455.083-257.45c-1.444-6.742-7.433-11.8-14.605-11.8c-2.185,0-4.258,0.47-6.126,1.313
		c-1.667-3.202-5.007-5.394-8.866-5.394c-5.522,0-10,4.477-10,9.999c0,2.46,0.899,4.702,2.373,6.442
		c-1.429,1.84-2.287,4.144-2.287,6.653c0,5.983,4.836,10.836,10.813,10.865v0.003h0.188v-2l-0.178-0.003
		c-4.864-0.023-8.822-4.001-8.822-8.865c0-4.89,3.978-8.868,8.867-8.868c0.15,0,0.299,0.012,0.447,0.022l0.148,0.01l1.314,0.085
		l0.597-1.175c2.225-4.372,6.644-7.089,11.532-7.089c6.062,0,11.382,4.298,12.649,10.219l0.318,1.483l1.514,0.094
		c3.708,0.23,6.612,3.319,6.612,7.03c0,3.878-3.144,7.035-7.017,7.057c-0.042-0.003-0.079-0.005-0.117-0.005l-0.866,0.005v2h0.819
		v-0.006c0.042,0.001,0.082,0.006,0.124,0.006c5.001,0,9.057-4.054,9.057-9.057C463.571-253.233,459.817-257.155,455.083-257.45z
		 M427.163-261.067c-0.241-0.016-0.48-0.036-0.725-0.036c-2.766,0-5.282,1.042-7.2,2.743c-1.092-1.367-1.753-3.09-1.753-4.971
		c0-4.41,3.589-7.999,8-7.999c3.091,0,5.76,1.773,7.091,4.345C430.278-265.546,428.398-263.497,427.163-261.067z"/>
	
		<rect x="424.993" y="-241.37" transform="matrix(-0.5736 -0.8191 0.8191 -0.5736 874.4739 -25.5608)" width="11.183" height="1.999"/>
	
		<rect x="442.968" y="-241.37" transform="matrix(-0.5736 -0.8191 0.8191 -0.5736 902.7594 -10.8377)" width="11.183" height="1.999"/>
	<polygon points="441.4,-236.364 443.17,-236.364 443.601,-236.364 445.61,-236.364 439.196,-245.525 437.559,-244.378 
		441.77,-238.364 439.999,-238.364 437.559,-238.364 438.83,-236.548 439.942,-234.959 444.559,-228.364 446.197,-229.511 
		441.581,-236.106 	"/>
</g>
<g>
	<path d="M556.921-260.408c-1.444-6.742-7.433-11.8-14.605-11.8c-1.799,0-3.522,0.32-5.118,0.904
		c-0.949-5.108-5.404-8.98-10.788-8.98c-0.413,0-0.819,0.027-1.222,0.071c0.744,1.112,1.179,2.448,1.179,3.886c0,3.865-3.134,7-7,7
		c-1.438,0-2.773-0.435-3.886-1.179c-0.044,0.401-0.071,0.809-0.071,1.222c0,3.712,1.845,6.987,4.661,8.979
		c-1.653,1.907-2.661,4.389-2.661,7.111c0,5.983,4.836,10.836,10.813,10.865v0.003h0.188v-2l-0.178-0.003
		c-4.864-0.023-8.822-4.001-8.822-8.865c0-4.89,3.978-8.868,8.867-8.868c0.15,0,0.299,0.012,0.447,0.022l0.148,0.01l1.314,0.085
		l0.597-1.175c2.225-4.372,6.644-7.089,11.532-7.089c6.062,0,11.382,4.298,12.649,10.219l0.318,1.483l1.514,0.094
		c3.708,0.23,6.612,3.319,6.612,7.03c0,3.878-3.144,7.035-7.017,7.057c-0.042-0.003-0.079-0.005-0.117-0.005l-0.866,0.005v2h0.819
		v-0.006c0.042,0.001,0.082,0.006,0.124,0.006c5.001,0,9.057-4.054,9.057-9.057C565.409-256.191,561.655-260.113,556.921-260.408z
		 M529.001-264.025c-0.241-0.016-0.48-0.036-0.725-0.036c-2.537,0-4.865,0.876-6.715,2.334c-2.012-1.294-3.487-3.354-3.976-5.776
		c0.582,0.117,1.178,0.177,1.78,0.177c4.963,0,9-4.037,9-9c0-0.603-0.06-1.198-0.177-1.78c3.733,0.753,6.629,3.824,7.133,7.641
		C532.611-269.023,530.396-266.768,529.001-264.025z"/>
	
		<rect x="526.83" y="-244.328" transform="matrix(-0.5736 -0.8191 0.8191 -0.5736 1037.1512 53.1998)" width="11.183" height="1.999"/>
	
		<rect x="544.804" y="-244.328" transform="matrix(-0.5736 -0.8191 0.8191 -0.5736 1065.4368 67.923)" width="11.183" height="1.999"/>
	<polygon points="543.237,-239.322 545.007,-239.322 545.438,-239.322 547.447,-239.322 541.033,-248.483 539.396,-247.336 
		543.606,-241.322 541.836,-241.322 539.396,-241.322 540.667,-239.506 541.779,-237.917 546.396,-231.322 548.034,-232.469 
		543.418,-239.064 	"/>
</g>
<g>
	<g>
		<path d="M146.358-173.953c-1.596-7.445-8.207-13.029-16.127-13.029c-6.423,0-11.977,3.678-14.702,9.035
			c-0.266-0.018-0.53-0.04-0.8-0.04c-6.627,0-11.999,5.372-11.999,12c0,6.607,5.34,11.965,11.938,11.998v0.003h2.062v-2h-1.604
			l-0.447-0.003c-5.485-0.027-9.948-4.513-9.948-9.998c0-5.514,4.485-10,9.999-10c0.175,0,0.347,0.014,0.52,0.025l0.148,0.01
			l1.316,0.088l0.598-1.176c2.492-4.899,7.443-7.942,12.92-7.942c6.79,0,12.75,4.814,14.172,11.448l0.317,1.482l1.514,0.095
			c4.203,0.262,7.496,3.763,7.496,7.971c0,4.397-3.565,7.977-7.957,8c-0.05-0.003-0.093-0.005-0.137-0.007l-2.043,0.007h-2.863v2
			h4.863v-0.007c0.046,0.001,0.091,0.007,0.137,0.007c5.521,0,10-4.477,10-10C155.73-169.297,151.586-173.628,146.358-173.953z"/>
	</g>
	<g>
		<circle cx="121.23" cy="-160.41" r="1.5"/>
	</g>
	<g>
		<circle cx="125.23" cy="-154.486" r="1.5"/>
	</g>
	<g>
		<circle cx="133.23" cy="-154.486" r="1.5"/>
	</g>
	<g>
		<circle cx="129.23" cy="-160.41" r="1.5"/>
	</g>
	<g>
		<circle cx="137.23" cy="-160.41" r="1.5"/>
	</g>
	<g>
		<circle cx="121.23" cy="-148.465" r="1.5"/>
	</g>
	<g>
		<circle cx="129.23" cy="-148.465" r="1.5"/>
	</g>
	<g>
		<circle cx="137.23" cy="-148.465" r="1.5"/>
	</g>
</g>
<g>
	<g>
		<rect x="222.145" y="-189.431" width="2" height="7.973"/>
	</g>
	<g>
		<rect x="203.145" y="-170.517" width="7.973" height="2"/>
	</g>
	<g>
		<rect x="207.818" y="-181.783" transform="matrix(0.7071 0.7071 -0.7071 0.7071 -65.7969 -202.7187)" width="7.974" height="2"/>
	</g>
	<g>
		<rect x="233.326" y="-184.765" transform="matrix(0.7071 0.7071 -0.7071 0.7071 -59.1977 -218.6427)" width="2" height="7.972"/>
	</g>
	<g>
		<path d="M252.656-163.641c-1.444-6.742-7.433-11.8-14.605-11.8c-2.185,0-4.258,0.47-6.127,1.313
			c-1.666-3.202-5.006-5.394-8.865-5.394c-5.522,0-10,4.477-10,9.999c0,2.46,0.898,4.702,2.373,6.442
			c-1.428,1.84-2.287,4.144-2.287,6.653c0,5.983,4.836,10.836,10.813,10.865v0.003h1.188v-2h-0.721l-0.457-0.003
			c-4.864-0.023-8.822-4.001-8.822-8.865c0-4.89,3.978-8.868,8.867-8.868c0.15,0,0.299,0.012,0.447,0.022l0.148,0.01l1.314,0.085
			l0.597-1.175c2.225-4.372,6.644-7.089,11.532-7.089c6.062,0,11.382,4.298,12.649,10.219l0.318,1.483l1.514,0.094
			c3.708,0.23,6.612,3.319,6.612,7.03c0,3.878-3.144,7.035-7.017,7.057c-0.042-0.003-0.079-0.005-0.117-0.005l-2.047,0.005h-1.819v2
			h3.819v-0.006c0.042,0.001,0.082,0.006,0.124,0.006c5.001,0,9.057-4.054,9.057-9.057
			C261.145-159.424,257.391-163.346,252.656-163.641z M224.736-167.258c-0.241-0.016-0.48-0.036-0.725-0.036
			c-2.766,0-5.281,1.042-7.2,2.743c-1.092-1.367-1.753-3.09-1.753-4.971c0-4.41,3.589-7.999,8-7.999c3.092,0,5.76,1.773,7.092,4.345
			C227.852-171.736,225.973-169.688,224.736-167.258z"/>
	</g>
	<g>
		<circle cx="228.634" cy="-152.047" r="1.5"/>
	</g>
	<g>
		<circle cx="232.634" cy="-146.047" r="1.5"/>
	</g>
	<g>
		<circle cx="240.634" cy="-146.047" r="1.5"/>
	</g>
	<g>
		<circle cx="236.634" cy="-152.047" r="1.5"/>
	</g>
	<g>
		<circle cx="244.634" cy="-152.047" r="1.5"/>
	</g>
	<g>
		<circle cx="228.634" cy="-140.025" r="1.5"/>
	</g>
	<g>
		<circle cx="236.634" cy="-140.025" r="1.5"/>
	</g>
	<g>
		<circle cx="244.634" cy="-140.025" r="1.5"/>
	</g>
</g>
<g>
	<g>
		<path d="M348.607-167.597c-1.444-6.742-7.433-11.8-14.605-11.8c-1.799,0-3.521,0.32-5.118,0.904
			c-0.949-5.108-5.404-8.98-10.788-8.98c-0.413,0-0.819,0.027-1.222,0.071c0.744,1.112,1.179,2.448,1.179,3.886c0,3.865-3.134,7-7,7
			c-1.438,0-2.773-0.435-3.886-1.179c-0.044,0.401-0.071,0.809-0.071,1.222c0,3.712,1.845,6.987,4.661,8.979
			c-1.653,1.907-2.661,4.389-2.661,7.111c0,5.983,4.836,10.836,10.813,10.865v0.003h1.188v-2h-0.721l-0.457-0.003
			c-4.864-0.023-8.822-4.001-8.822-8.865c0-4.89,3.978-8.868,8.867-8.868c0.15,0,0.299,0.012,0.447,0.022l0.148,0.01l1.314,0.085
			l0.597-1.175c2.225-4.372,6.644-7.089,11.532-7.089c6.062,0,11.382,4.298,12.649,10.219l0.318,1.483l1.514,0.094
			c3.708,0.23,6.612,3.319,6.612,7.03c0,3.878-3.144,7.035-7.017,7.057c-0.042-0.003-0.079-0.005-0.117-0.005l-2.047,0.005h-1.819v2
			h3.819v-0.006c0.042,0.001,0.082,0.006,0.124,0.006c5.001,0,9.057-4.054,9.057-9.057
			C357.096-163.38,353.342-167.302,348.607-167.597z M320.688-171.214c-0.241-0.016-0.48-0.036-0.725-0.036
			c-2.537,0-4.865,0.876-6.715,2.334c-2.012-1.294-3.486-3.354-3.976-5.776c0.582,0.117,1.178,0.177,1.78,0.177c4.963,0,9-4.037,9-9
			c0-0.603-0.06-1.198-0.177-1.78c3.733,0.753,6.629,3.824,7.134,7.64C324.297-176.212,322.082-173.957,320.688-171.214z"/>
	</g>
	<g>
		<circle cx="324.596" cy="-156.004" r="1.5"/>
	</g>
	<g>
		<circle cx="328.596" cy="-150.004" r="1.5"/>
	</g>
	<g>
		<circle cx="336.596" cy="-150.004" r="1.5"/>
	</g>
	<g>
		<circle cx="332.596" cy="-156.004" r="1.5"/>
	</g>
	<g>
		<circle cx="340.596" cy="-156.004" r="1.5"/>
	</g>
	<g>
		<circle cx="324.596" cy="-143.982" r="1.5"/>
	</g>
	<g>
		<circle cx="332.596" cy="-143.982" r="1.5"/>
	</g>
	<g>
		<circle cx="340.596" cy="-143.982" r="1.5"/>
	</g>
</g>
<g>
	<path d="M659.772-266.482c-1.596-7.445-8.207-13.029-16.127-13.029c-6.423,0-11.977,3.678-14.702,9.035
		c-0.266-0.018-0.53-0.04-0.8-0.04c-6.627,0-11.999,5.372-11.999,12c0,6.607,5.34,11.965,11.938,11.998v0.003h2.062v-2h-1.604
		l-0.447-0.003c-5.485-0.027-9.948-4.513-9.948-9.998c0-5.514,4.485-10,9.999-10c0.175,0,0.347,0.014,0.52,0.025l0.148,0.01
		l1.316,0.088l0.598-1.176c2.492-4.899,7.443-7.942,12.92-7.942c6.79,0,12.75,4.814,14.172,11.448l0.317,1.482l1.514,0.095
		c4.203,0.262,7.496,3.763,7.496,7.971c0,4.397-3.565,7.977-7.957,8c-0.05-0.003-0.093-0.005-0.137-0.007l-2.043,0.007h-2.863v2
		h4.863v-0.007c0.046,0.001,0.091,0.007,0.137,0.007c5.521,0,10-4.477,10-10C669.145-261.826,665-266.157,659.772-266.482z"/>
	<circle cx="634.145" cy="-239.012" r="1.5"/>
	<circle cx="642.145" cy="-233.012" r="1.5"/>
	<circle cx="650.145" cy="-237.012" r="1.5"/>
	<rect x="633.145" y="-255.487" width="2" height="11.976"/>
	<polygon points="643.145,-237.547 643.145,-239.487 643.145,-251.487 641.145,-251.487 641.145,-239.487 641.145,-237.547 
		641.145,-237.512 643.145,-237.512 	"/>
	<polygon points="651.145,-241.734 651.145,-243.487 651.145,-255.487 649.145,-255.487 649.145,-243.487 649.145,-241.734 
		649.145,-241.512 651.145,-241.512 	"/>
</g>
<g>
	<rect x="-88.604" y="-194.869" width="2" height="7.973"/>
	<rect x="-107.604" y="-175.955" width="7.973" height="2"/>
	<rect x="-102.931" y="-187.222" transform="matrix(0.7071 0.7071 -0.7071 0.7071 -160.6587 15.4211)" width="7.974" height="2"/>
	<rect x="-77.423" y="-190.204" transform="matrix(0.7071 0.7071 -0.7071 0.7071 -154.0596 -0.5028)" width="2" height="7.972"/>
	<path d="M-58.093-169.079c-1.444-6.742-7.433-11.8-14.605-11.8c-2.185,0-4.258,0.47-6.126,1.313
		c-1.667-3.202-5.007-5.394-8.866-5.394c-5.522,0-10,4.477-10,9.999c0,2.46,0.899,4.702,2.373,6.442
		c-1.429,1.84-2.287,4.144-2.287,6.653c0,5.983,4.836,10.836,10.813,10.865v0.003h1.188v-2h-0.721l-0.457-0.003
		c-4.864-0.023-8.822-4.001-8.822-8.865c0-4.89,3.978-8.868,8.867-8.868c0.15,0,0.299,0.012,0.447,0.022l0.148,0.01l1.314,0.085
		l0.597-1.175c2.225-4.372,6.644-7.089,11.532-7.089c6.062,0,11.382,4.298,12.649,10.219l0.318,1.483l1.514,0.094
		c3.708,0.23,6.612,3.319,6.612,7.03c0,3.878-3.144,7.035-7.017,7.057c-0.042-0.003-0.079-0.005-0.117-0.005l-2.047,0.005h-0.819v2
		h2.819v-0.006c0.042,0.001,0.082,0.006,0.124,0.006c5.001,0,9.057-4.054,9.057-9.057
		C-49.604-164.862-53.358-168.784-58.093-169.079z M-86.013-172.696c-0.241-0.016-0.48-0.036-0.725-0.036
		c-2.766,0-5.282,1.041-7.2,2.743c-1.092-1.366-1.753-3.09-1.753-4.971c0-4.41,3.589-7.999,8-7.999c3.091,0,5.76,1.773,7.091,4.345
		C-82.897-177.174-84.777-175.126-86.013-172.696z"/>
	<circle cx="-81.614" cy="-142.509" r="1.5"/>
	<circle cx="-73.614" cy="-136.509" r="1.5"/>
	<circle cx="-65.614" cy="-140.509" r="1.5"/>
	<rect x="-82.614" y="-158.984" width="2" height="11.976"/>
	<polygon points="-72.614,-141.044 -72.614,-142.984 -72.614,-154.984 -74.614,-154.984 -74.614,-142.984 -74.614,-141.044 
		-74.614,-141.009 -72.614,-141.009 	"/>
	<polygon points="-64.614,-145.231 -64.614,-146.984 -64.614,-158.984 -66.614,-158.984 -66.614,-146.984 -66.614,-145.231 
		-66.614,-145.009 -64.614,-145.009 	"/>
</g>
<g>
	<path d="M42.51-172.077c-1.444-6.742-7.433-11.8-14.605-11.8c-1.799,0-3.522,0.32-5.118,0.904c-0.949-5.108-5.404-8.98-10.788-8.98
		c-0.413,0-0.819,0.027-1.222,0.071c0.744,1.112,1.179,2.448,1.179,3.886c0,3.865-3.134,7-7,7c-1.438,0-2.773-0.435-3.886-1.179
		c-0.044,0.401-0.071,0.809-0.071,1.222c0,3.712,1.845,6.987,4.661,8.979c-1.653,1.907-2.661,4.389-2.661,7.111
		c0,5.983,4.836,10.836,10.813,10.865v0.003h1.188v-2h-0.721l-0.457-0.003c-4.864-0.023-8.822-4.001-8.822-8.865
		c0-4.89,3.978-8.868,8.867-8.868c0.15,0,0.299,0.012,0.447,0.022l0.148,0.01l1.314,0.085l0.597-1.175
		c2.225-4.372,6.644-7.089,11.532-7.089c6.062,0,11.382,4.298,12.649,10.219l0.318,1.483l1.514,0.094
		c3.708,0.23,6.612,3.319,6.612,7.03c0,3.878-3.144,7.035-7.017,7.057c-0.042-0.003-0.079-0.005-0.117-0.005l-2.047,0.005h-0.819v2
		h2.819V-154c0.042,0.001,0.082,0.006,0.124,0.006c5.001,0,9.057-4.054,9.057-9.057C50.998-167.86,47.244-171.782,42.51-172.077z
		 M14.59-175.694c-0.241-0.016-0.48-0.036-0.725-0.036c-2.537,0-4.865,0.876-6.715,2.334c-2.012-1.294-3.487-3.354-3.976-5.776
		c0.582,0.117,1.178,0.177,1.78,0.177c4.963,0,9-4.037,9-9c0-0.603-0.06-1.198-0.177-1.78c3.733,0.753,6.629,3.824,7.133,7.64
		C18.2-180.692,15.985-178.438,14.59-175.694z"/>
	<circle cx="18.998" cy="-145.503" r="1.5"/>
	<circle cx="26.998" cy="-139.503" r="1.5"/>
	<circle cx="34.998" cy="-143.503" r="1.5"/>
	<rect x="17.998" y="-161.979" width="2" height="11.976"/>
	<polygon points="27.998,-144.038 27.998,-145.979 27.998,-157.979 25.998,-157.979 25.998,-145.979 25.998,-144.038 
		25.998,-144.003 27.998,-144.003 	"/>
	<polygon points="35.998,-148.226 35.998,-149.979 35.998,-161.979 33.998,-161.979 33.998,-149.979 33.998,-148.226 
		33.998,-148.003 35.998,-148.003 	"/>
</g>
<g>
	<rect x="-105.604" y="-67.637" width="56" height="2"/>
	<rect x="-101.604" y="-61.637" width="50" height="2"/>
	<rect x="-95.604" y="-55.637" width="36" height="2"/>
	<rect x="-103.604" y="-73.637" width="52" height="2"/>
	<path d="M-91.73-81.642c0.175,0,0.347,0.014,0.519,0.025l0.149,0.01l1.316,0.088l0.598-1.176c2.493-4.899,7.443-7.942,12.92-7.942
		c6.79,0,12.75,4.814,14.171,11.448l0.318,1.482l1.514,0.095c1.207,0.075,2.335,0.425,3.336,0.975h3.286
		c-1.678-1.703-3.957-2.813-6.498-2.971c-1.596-7.445-8.207-13.029-16.127-13.029c-6.423,0-11.977,3.678-14.702,9.035
		c-0.266-0.018-0.53-0.04-0.8-0.04c-4.843,0-9.004,2.874-10.9,7.005h2.251C-98.648-79.623-95.424-81.642-91.73-81.642z"/>
</g>
<g>
	<rect x="15.498" y="-95.151" width="2" height="7.973"/>
	<rect x="-3.502" y="-76.237" width="7.973" height="2"/>
	<rect x="1.171" y="-87.504" transform="matrix(0.7071 0.7071 -0.7071 0.7071 -59.6567 -28.9838)" width="7.974" height="2"/>
	<rect x="26.68" y="-90.486" transform="matrix(0.7071 0.7071 -0.7071 0.7071 -53.0575 -44.9078)" width="2" height="7.972"/>
	<rect x="5.498" y="-61.277" width="50" height="2"/>
	<rect x="9.498" y="-55.277" width="44" height="2"/>
	<rect x="15.498" y="-50.277" width="30" height="2"/>
	<rect x="7.498" y="-67.277" width="46" height="2"/>
	<path d="M8.406-69.277h0.771h1.927h1.012c1.472-1.087,3.283-1.737,5.249-1.737c0.15,0,0.299,0.012,0.447,0.022l0.148,0.01
		l1.314,0.085l0.597-1.175c2.225-4.372,6.644-7.089,11.532-7.089c5.945,0,11.168,4.139,12.563,9.884h2.043v-0.084
		c-1.444-6.742-7.433-11.8-14.605-11.8c-2.185,0-4.258,0.47-6.126,1.313c-1.667-3.202-5.007-5.394-8.866-5.394
		c-5.522,0-10,4.477-10,9.999C6.412-73.001,7.16-70.942,8.406-69.277z M16.412-83.241c3.091,0,5.76,1.773,7.091,4.345
		c-2.298,1.44-4.178,3.488-5.413,5.918c-0.241-0.016-0.48-0.036-0.725-0.036c-2.764,0-5.274,1.045-7.189,2.745
		c-1.097-1.366-1.764-3.089-1.764-4.973C8.412-79.652,12.001-83.241,16.412-83.241z"/>
</g>
<g>
	<rect x="104.242" y="-64.715" width="50" height="2"/>
	<rect x="108.242" y="-58.715" width="44" height="2"/>
	<rect x="114.242" y="-53.715" width="30" height="2"/>
	<rect x="106.242" y="-70.715" width="46" height="2"/>
	<path d="M107.885-72.715h0.037h1.884h1.055c1.472-1.087,3.283-1.737,5.249-1.737c0.15,0,0.299,0.012,0.447,0.022l0.148,0.01
		l1.314,0.085l0.597-1.175c2.225-4.372,6.644-7.089,11.532-7.089c5.945,0,11.168,4.139,12.563,9.884h2.043v-0.084
		c-1.444-6.742-7.433-11.8-14.605-11.8c-1.799,0-3.521,0.32-5.117,0.903c-0.945-5.111-5.402-8.987-10.789-8.987
		c-0.413,0-0.819,0.027-1.222,0.071c0.744,1.112,1.179,2.448,1.179,3.886c0,3.865-3.134,7-7,7c-1.438,0-2.773-0.435-3.886-1.179
		c-0.044,0.401-0.071,0.809-0.071,1.222C103.242-77.979,105.078-74.708,107.885-72.715z M107.199-79.726c4.963,0,9-4.037,9-9
		c0-0.603-0.06-1.198-0.177-1.78c3.735,0.753,6.633,3.828,7.134,7.647c-2.712,1.443-4.927,3.699-6.322,6.442
		c-0.241-0.016-0.48-0.036-0.725-0.036c-2.534,0-4.855,0.879-6.701,2.335c-2.02-1.293-3.5-3.356-3.989-5.785
		C106.001-79.785,106.597-79.726,107.199-79.726z"/>
</g>
<g>
	<path d="M236.134-61.701H216.66l-0.578-0.003c-5.485-0.027-9.948-4.513-9.948-9.998c0-5.514,4.485-10,9.999-10
		c0.175,0,0.347,0.014,0.519,0.025l0.149,0.01l1.316,0.088l0.598-1.176c2.493-4.899,7.443-7.942,12.92-7.942
		c6.79,0,12.75,4.814,14.171,11.448l0.318,1.482l1.514,0.095c1.822,0.113,3.463,0.845,4.746,1.971h2.732
		c-1.707-2.262-4.348-3.78-7.354-3.967c-1.596-7.445-8.207-13.029-16.127-13.029c-6.423,0-11.977,3.678-14.702,9.035
		c-0.266-0.018-0.53-0.04-0.8-0.04c-6.627,0-11.999,5.372-11.999,12c0,6.607,5.34,11.965,11.938,11.998v0.003h20.062
		c2.205,0,4,1.794,4,4s-1.795,4-4,4v2c3.314,0,6-2.686,6-6C242.134-59.015,239.448-61.701,236.134-61.701z"/>
	<path d="M240.134-65.701h-15.988v2h15.988c3.314,0,6-2.687,6-6c0-3.314-2.686-6-6-6v2c2.205,0,4,1.794,4,4
		S242.339-65.701,240.134-65.701z"/>
	<path d="M253.134-71.701c1.654,0,3,1.346,3,3s-1.346,3-3,3c-0.043,0-0.083-0.011-0.126-0.013h-4.862
		c0.003,0.005,0.009,0.008,0.012,0.013h-0.023v2h5.5v-0.051c2.523-0.254,4.5-2.358,4.5-4.949c0-2.762-2.238-5-5-5V-71.701z"/>
	<path d="M257.134-61.701h-13v2h9.022c-0.004,0.005-0.008,0.008-0.011,0.013h3.862c0.043-0.002,0.083-0.013,0.126-0.013
		c1.654,0,3,1.346,3,3s-1.346,3-3,3v2c2.762,0,5-2.238,5-5S259.896-61.701,257.134-61.701z"/>
	<rect x="218.134" y="-65.701" width="4" height="2"/>
</g>
<path d="M28.572-460.805c6.95,1.305,12.226,7.419,12.226,14.742c0,8.272-6.729,15.002-15,15.002c-6.79,0-12.531-4.49-14.366-10.728
	c1.398,0.461,2.867,0.698,4.366,0.698c7.72,0,14-6.281,14-14.001C29.798-457.075,29.374-459.02,28.572-460.805 M25.798-463.062
	c-0.338,0-0.668,0.031-1,0.051c1.861,2.113,3,4.881,3,7.92c0,6.627-5.372,12.001-12,12.001c-2.599,0-4.998-0.835-6.963-2.239
	c0.387,9.047,7.821,16.269,16.963,16.269c9.39,0,17-7.612,17-17.002S35.188-463.062,25.798-463.062L25.798-463.062z"/>
<g>
	<path d="M-77.598-458.066c-7.18,0-13,5.819-13,12.999c0,7.181,5.82,13.002,13,13.002s13-5.821,13-13.002
		C-64.598-452.247-70.418-458.066-77.598-458.066z M-77.598-434.065c-6.065,0-11-4.936-11-11.002c0-6.064,4.935-10.999,11-10.999
		s11,4.935,11,10.999C-66.598-439.001-71.532-434.065-77.598-434.065z"/>
	<rect x="-78.604" y="-471.061" width="2" height="10"/>
	<rect x="-78.604" y="-429.061" width="2" height="10"/>
	<rect x="-103.598" y="-446.061" width="9.993" height="2"/>
	<rect x="-61.604" y="-446.061" width="10.007" height="2"/>
	<rect x="-63.905" y="-464.975" transform="matrix(0.7071 0.7071 -0.7071 0.7071 -343.5309 -90.1831)" width="2" height="10.409"/>
	<rect x="-93.313" y="-435.566" transform="matrix(-0.7071 -0.7071 0.7071 -0.7071 146.7221 -799.9474)" width="2" height="10.41"/>
	<rect x="-97.514" y="-460.765" transform="matrix(0.7071 0.7071 -0.7071 0.7071 -352.1397 -69.3897)" width="10.409" height="2"/>
	<rect x="-68.105" y="-431.356" transform="matrix(-0.7072 -0.7071 0.7071 -0.7072 196.9068 -779.1581)" width="10.41" height="2"/>
</g>
<g>
	<rect x="320.568" y="-100.199" width="2" height="7.973"/>
	<rect x="301.596" y="-81.213" width="7.973" height="2"/>
	<rect x="306.321" y="-92.432" transform="matrix(0.7071 0.7071 -0.7071 0.7071 26.2354 -246.201)" width="7.974" height="2"/>
	<rect x="331.83" y="-95.413" transform="matrix(0.7071 0.7071 -0.7071 0.7071 32.8345 -262.125)" width="2" height="7.972"/>
	<path d="M335.596-58.199l0.005-0.007h-12.536l-0.594-0.003c-4.864-0.024-8.822-4.001-8.822-8.865c0-4.89,3.978-8.868,8.867-8.868
		c0.15,0,0.299,0.012,0.447,0.021l0.148,0.011l1.314,0.085l0.597-1.174c2.225-4.373,6.644-7.09,11.532-7.09
		c5.916,0,11.114,4.099,12.54,9.8h2.065c-1.444-6.742-7.433-11.8-14.605-11.8c-2.185,0-4.258,0.47-6.126,1.313
		c-1.667-3.202-5.007-5.394-8.866-5.394c-5.522,0-10,4.477-10,9.999c0,2.46,0.899,4.702,2.373,6.442
		c-1.429,1.84-2.287,4.144-2.287,6.653c0,5.983,4.836,10.836,10.813,10.865v0.003h13.135v0.007c2.205,0,4,1.794,4,4s-1.795,4-4,4v2
		c3.314,0,6-2.686,6-6C341.596-55.513,338.91-58.199,335.596-58.199z M321.563-88.169c3.091,0,5.76,1.773,7.091,4.345
		c-2.298,1.439-4.178,3.488-5.413,5.918c-0.241-0.016-0.48-0.036-0.725-0.036c-2.766,0-5.282,1.042-7.2,2.743
		c-1.092-1.367-1.753-3.09-1.753-4.971C313.563-84.58,317.151-88.169,321.563-88.169z"/>
	<path d="M339.596-62.199h-9.988v2h9.988c3.314,0,6-2.687,6-6c0-3.314-2.686-6-6-6v2c2.205,0,4,1.794,4,4
		S341.801-62.199,339.596-62.199z"/>
	<path d="M347.619-62.199h-0.023v2h5.5v-0.051c2.523-0.254,4.5-2.358,4.5-4.949c0-2.762-2.238-5-5-5v2c1.654,0,3,1.346,3,3
		s-1.346,3-3,3c-0.043,0-0.083-0.011-0.126-0.013h-4.862C347.61-62.207,347.616-62.203,347.619-62.199z"/>
	<path d="M356.596-58.199h-13v2h9.022c-0.004,0.004-0.008,0.008-0.011,0.013h3.862c0.043-0.002,0.083-0.013,0.126-0.013
		c1.654,0,3,1.346,3,3s-1.346,3-3,3v2c2.762,0,5-2.238,5-5S359.357-58.199,356.596-58.199z"/>
	<rect x="323.596" y="-62.199" width="4" height="2"/>
</g>
<g>
	<path d="M435.558-60.205l0.005-0.007h-12.536l-0.594-0.003c-4.864-0.024-8.822-4.001-8.822-8.865c0-4.89,3.978-8.868,8.867-8.868
		c0.15,0,0.299,0.012,0.447,0.021l0.148,0.011l1.314,0.085l0.597-1.174c2.225-4.373,6.644-7.09,11.532-7.09
		c5.916,0,11.114,4.099,12.54,9.8h2.065c-1.444-6.742-7.433-11.8-14.605-11.8c-1.806,0-3.536,0.322-5.138,0.91
		c-0.938-5.123-5.4-9.01-10.794-9.01c-0.413,0-0.819,0.027-1.222,0.071c0.744,1.112,1.179,2.448,1.179,3.886c0,3.865-3.134,7-7,7
		c-1.438,0-2.773-0.435-3.886-1.179c-0.044,0.401-0.071,0.809-0.071,1.222c0,3.725,1.858,7.009,4.69,8.998
		c-1.655,1.907-2.665,4.392-2.665,7.116c0,5.983,4.836,10.836,10.813,10.865v0.003h13.135v0.007c2.205,0,4,1.794,4,4s-1.795,4-4,4v2
		c3.314,0,6-2.686,6-6C441.558-57.519,438.872-60.205,435.558-60.205z M411.762-83.414c0.582,0.117,1.178,0.177,1.78,0.177
		c4.963,0,9-4.037,9-9c0-0.603-0.06-1.198-0.177-1.78c3.744,0.755,6.646,3.842,7.138,7.674c-2.702,1.444-4.909,3.696-6.301,6.432
		c-0.241-0.016-0.48-0.036-0.725-0.036c-2.535,0-4.861,0.875-6.71,2.33C413.739-78.91,412.253-80.979,411.762-83.414z"/>
	<path d="M439.558-64.205h-9.988v2h9.988c3.314,0,6-2.687,6-6c0-3.314-2.686-6-6-6v2c2.205,0,4,1.794,4,4
		S441.763-64.205,439.558-64.205z"/>
	<path d="M447.581-64.205h-0.023v2h5.5v-0.051c2.523-0.254,4.5-2.358,4.5-4.949c0-2.762-2.238-5-5-5v2c1.654,0,3,1.346,3,3
		s-1.346,3-3,3c-0.043,0-0.083-0.011-0.126-0.013h-4.862C447.572-64.213,447.578-64.209,447.581-64.205z"/>
	<path d="M456.558-60.205h-13v2h9.022c-0.004,0.004-0.008,0.008-0.011,0.013h3.862c0.043-0.002,0.083-0.013,0.126-0.013
		c1.654,0,3,1.346,3,3s-1.346,3-3,3v2c2.762,0,5-2.238,5-5S459.319-60.205,456.558-60.205z"/>
	<rect x="423.558" y="-64.205" width="4" height="2"/>
</g>
<g>
	<rect x="536.45" y="-97.637" width="2" height="10"/>
	<rect x="511.457" y="-72.637" width="9.993" height="2"/>
	<rect x="551.15" y="-91.551" transform="matrix(0.7071 0.7071 -0.7071 0.7071 100.665 -415.7191)" width="2" height="10.409"/>
	<rect x="517.541" y="-87.341" transform="matrix(0.7071 0.7071 -0.7071 0.7071 92.0561 -394.9258)" width="10.409" height="2"/>
	<path d="M541.45-57.637h-24v2h24c2.205,0,4,1.794,4,4s-1.795,4-4,4v2c3.314,0,6-2.686,6-6
		C547.45-54.95,544.765-57.637,541.45-57.637z"/>
	<path d="M553.474-61.637h-0.023v2h5.5v-0.051c2.523-0.254,4.5-2.358,4.5-4.949c0-2.762-2.238-5-5-5v2c1.654,0,3,1.346,3,3
		s-1.346,3-3,3c-0.043,0-0.083-0.011-0.126-0.013h-4.862C553.465-61.645,553.471-61.641,553.474-61.637z"/>
	<path d="M562.45-57.637h-13v2h9.022c-0.004,0.004-0.008,0.008-0.011,0.013h3.862c0.043-0.002,0.083-0.013,0.126-0.013
		c1.654,0,3,1.346,3,3s-1.346,3-3,3v2c2.762,0,5-2.238,5-5S565.212-57.637,562.45-57.637z"/>
	<path d="M529.159-61.637H517.45v2h12.012h0.822h15.166c3.314,0,6-2.687,6-6c0-3.314-2.686-6-6-6v2c2.205,0,4,1.794,4,4
		s-1.795,4-4,4h-12.538c-3.802-1.734-6.455-5.563-6.455-10.007c0-6.064,4.935-10.999,11-10.999c5.384,0,9.868,3.891,10.81,9.006
		h2.021c-0.961-6.23-6.331-11.006-12.831-11.006c-7.18,0-13,5.819-13,12.999C524.457-67.618,526.287-64.021,529.159-61.637z"/>
</g>
<g>
	<path d="M641.677-64.193h-24v2h24c2.205,0,4,1.794,4,4s-1.795,4-4,4v2c3.314,0,6-2.686,6-6
		C647.677-61.507,644.991-64.193,641.677-64.193z"/>
	<path d="M659.177-66.193v-0.051c2.523-0.254,4.5-2.358,4.5-4.949c0-2.762-2.238-5-5-5v2c1.654,0,3,1.346,3,3s-1.346,3-3,3
		c-0.043,0-0.083-0.011-0.126-0.013h-4.862c0.004,0.005,0.009,0.009,0.012,0.013h-0.023v2H659.177z"/>
	<path d="M662.677-64.193h-13v2h9.022c-0.003,0.004-0.007,0.008-0.011,0.013h3.862c0.043-0.002,0.083-0.013,0.126-0.013
		c1.654,0,3,1.346,3,3s-1.346,3-3,3v2c2.762,0,5-2.238,5-5S665.438-64.193,662.677-64.193z"/>
	<path d="M630.511-66.193h15.166c3.314,0,6-2.687,6-6c0-3.314-2.686-6-6-6v2c2.205,0,4,1.794,4,4s-1.795,4-4,4h-12.586
		c-2.596-1.188-4.658-3.339-5.69-6.034c0.849,0.204,1.724,0.309,2.612,0.309c6.168,0,11.187-5.019,11.187-11.188
		c0-1.276-0.22-2.532-0.64-3.717c4.046,1.102,7.168,4.459,7.937,8.63h2.018c-0.964-6.237-6.338-11.016-12.846-11.016
		c-0.259,0-0.511,0.024-0.766,0.039c1.425,1.618,2.297,3.737,2.297,6.063c0,5.072-4.112,9.188-9.187,9.188
		c-1.988,0-3.826-0.641-5.33-1.715c0.162,3.801,1.962,7.165,4.699,9.44h-11.705v2h12.012H630.511z"/>
</g>
<g>
	<path d="M-78.104,21h-20c-1.103,0-2-0.897-2-2s0.897-2,2-2h3.445h0.555v-2h-4c-2.209,0-4,1.791-4,4s1.791,4,4,4h20
		c2.205,0,4,1.794,4,4s-1.795,4-4,4v2c3.314,0,6-2.686,6-6C-72.104,23.687-74.79,21-78.104,21z"/>
	<path d="M-76.104,5v2c2.205,0,4,1.794,4,4s-1.795,4-4,4h-15.988v2h15.988c3.314,0,6-2.687,6-6C-70.104,7.686-72.79,5-76.104,5z"/>
	<path d="M-70.104,17v2h5.5v-0.051c2.523-0.254,4.5-2.358,4.5-4.949c0-2.762-2.238-5-5-5v2c1.654,0,3,1.346,3,3s-1.346,3-3,3
		c-0.043,0-0.083-0.011-0.126-0.013h-4.862c0.003,0.005,0.009,0.009,0.012,0.013H-70.104z"/>
	<path d="M-59.104,21h-11v2h7.022c-0.004,0.004-0.008,0.008-0.011,0.013h3.862C-59.188,23.011-59.147,23-59.104,23
		c1.654,0,3,1.346,3,3s-1.346,3-3,3v2c2.762,0,5-2.238,5-5S-56.343,21-59.104,21z"/>
</g>
<path d="M458.188,7.347V7.309h-38.376c-1.103,0-2-0.897-2-2s0.897-2,2-2h33c2.762,0,5-2.238,5-5s-2.238-5-5-5h-37.875v0.008
	c-0.042-0.001-0.083-0.008-0.125-0.008c-2.762,0-5,2.238-5,5s2.238,5,5,5v-2c-1.654,0-3-1.346-3-3s1.346-3,3-3h0.125h3.853h34.022
	c1.654,0,3,1.346,3,3s-1.346,3-3,3h-33c-2.209,0-4,1.791-4,4s1.791,4,4,4h38c1.103,0,2,0.897,2,2s-0.897,2-2,2h-32
	c-2.209,0-4,1.791-4,4s1.791,4,4,4h22c1.103,0,2,0.897,2,2s-0.897,2-2,2h-24.01v0.001c-2.204,0.006-3.99,1.793-3.99,3.999
	s1.786,3.993,3.99,3.999v0.001h12.01c1.103,0,2,0.897,2,2s-0.897,2-2,2h-2c-2.209,0-4,1.791-4,4s1.791,4,4,4v-2
	c-1.103,0-2-0.897-2-2s0.897-2,2-2h2c2.209,0,4-1.791,4-4s-1.791-4-4-4h-12c-1.103,0-2-0.897-2-2s0.897-2,2-2h24
	c2.209,0,4-1.791,4-4c0-2.152-1.704-3.895-3.834-3.983v-0.017h-22.166c-1.103,0-2-0.897-2-2s0.897-2,2-2h32c2.209,0,4-1.791,4-4
	C461.812,9.229,460.218,7.539,458.188,7.347z"/>
<path d="M643.603-1.976V-4h-2v2.024C628.593-1.463,618.141,8.989,617.628,22h1.674c1.14-1.222,2.748-2,4.551-2
	c2.26,0,4.233,1.203,5.331,3h1.838c1.098-1.797,3.071-3,5.331-3c2.204,0,4.137,1.144,5.25,2.866V38c0,2.21,1.791,4,4,4s4-1.79,4-4
	h-2c0,1.103-0.897,2-2,2s-2-0.897-2-2V22.866c1.113-1.723,3.046-2.866,5.25-2.866c2.26,0,4.233,1.203,5.331,3h1.838
	c1.098-1.797,3.071-3,5.331-3c1.803,0,3.411,0.778,4.551,2h1.674C667.064,8.989,656.612-1.463,643.603-1.976z M661.353,18
	c-2.496,0-4.736,1.114-6.25,2.87c-1.514-1.756-3.754-2.87-6.25-2.87s-4.736,1.114-6.25,2.87c-1.514-1.756-3.754-2.87-6.25-2.87
	s-4.736,1.114-6.25,2.87c-1.514-1.756-3.755-2.87-6.25-2.87c-1.402,0-2.731,0.351-3.897,0.975C621.864,8.206,631.294,0,642.603,0
	s20.738,8.206,22.647,18.975C664.084,18.351,662.755,18,661.353,18z"/>
<g>
	<path d="M238.308,122.313v-17.105c0-2.762-2.238-5-5-5s-5,2.238-5,5v17.105c-1.236,1.263-2,2.988-2,4.895c0,3.866,3.134,7,7,7
		s7-3.134,7-7C240.308,125.301,239.544,123.575,238.308,122.313z M233.308,132.207c-2.757,0-5-2.243-5-5
		c0-1.313,0.508-2.554,1.429-3.495l0.571-0.583v-0.816v-17.105c0-1.654,1.346-3,3-3s3,1.346,3,3v17.105v0.816l0.571,0.583
		c0.921,0.941,1.429,2.183,1.429,3.495C238.308,129.964,236.064,132.207,233.308,132.207z"/>
	<path d="M234.308,124.383v-15.176h-2v15.176c-1.167,0.413-2.008,1.516-2.008,2.824c0,1.662,1.347,3.008,3.008,3.008
		c1.662,0,3.008-1.346,3.008-3.008C236.315,125.898,235.476,124.796,234.308,124.383z M233.308,128.215
		c-0.556,0-1.008-0.452-1.008-1.008s0.452-1.008,1.008-1.008s1.008,0.452,1.008,1.008S233.863,128.215,233.308,128.215z"/>
</g>
<g>
	<path d="M338.096,122.313v-17.105c0-2.762-2.238-5-5-5s-5,2.238-5,5v17.105c-1.236,1.263-2,2.988-2,4.895c0,3.866,3.134,7,7,7
		s7-3.134,7-7C340.096,125.301,339.332,123.575,338.096,122.313z M333.096,132.207c-2.757,0-5-2.243-5-5
		c0-1.313,0.508-2.554,1.429-3.495l0.571-0.583v-0.816v-17.105c0-1.654,1.346-3,3-3s3,1.346,3,3v17.105v0.816l0.571,0.583
		c0.921,0.941,1.429,2.183,1.429,3.495C338.096,129.964,335.853,132.207,333.096,132.207z"/>
	<path d="M334.096,124.383v-20.176h-2v20.176c-1.167,0.413-2.008,1.516-2.008,2.824c0,1.662,1.347,3.008,3.008,3.008
		c1.662,0,3.008-1.346,3.008-3.008C336.104,125.898,335.264,124.796,334.096,124.383z M333.096,128.215
		c-0.556,0-1.008-0.452-1.008-1.008s0.452-1.008,1.008-1.008s1.008,0.452,1.008,1.008S333.651,128.215,333.096,128.215z"/>
</g>
<g>
	<path d="M135.198,122.313v-17.105c0-2.762-2.238-5-5-5s-5,2.238-5,5v17.105c-1.236,1.263-2,2.988-2,4.895c0,3.866,3.134,7,7,7
		s7-3.134,7-7C137.198,125.301,136.435,123.575,135.198,122.313z M130.198,132.207c-2.757,0-5-2.243-5-5
		c0-1.313,0.508-2.554,1.429-3.495l0.571-0.583v-0.816v-17.105c0-1.654,1.346-3,3-3s3,1.346,3,3v17.105v0.816l0.571,0.583
		c0.921,0.941,1.429,2.183,1.429,3.495C135.198,129.964,132.955,132.207,130.198,132.207z"/>
	<path d="M131.198,124.383v-10.176h-2v10.176c-1.167,0.413-2.008,1.516-2.008,2.824c0,1.662,1.347,3.008,3.008,3.008
		c1.662,0,3.008-1.346,3.008-3.008C133.206,125.898,132.366,124.796,131.198,124.383z M130.198,128.215
		c-0.556,0-1.008-0.452-1.008-1.008s0.452-1.008,1.008-1.008s1.008,0.452,1.008,1.008S130.754,128.215,130.198,128.215z"/>
</g>
<g>
	<path d="M31.553,122.313v-17.105c0-2.762-2.238-5-5-5s-5,2.238-5,5v17.105c-1.236,1.263-2,2.988-2,4.895c0,3.866,3.134,7,7,7
		s7-3.134,7-7C33.553,125.301,32.789,123.575,31.553,122.313z M26.553,132.207c-2.757,0-5-2.243-5-5
		c0-1.313,0.508-2.554,1.429-3.495l0.571-0.583v-0.816v-17.105c0-1.654,1.346-3,3-3s3,1.346,3,3v17.105v0.816l0.571,0.583
		c0.921,0.941,1.429,2.183,1.429,3.495C31.553,129.964,29.31,132.207,26.553,132.207z"/>
	<path d="M27.553,124.383v-5.176h-2v5.176c-1.167,0.413-2.008,1.516-2.008,2.824c0,1.662,1.347,3.008,3.008,3.008
		c1.662,0,3.008-1.346,3.008-3.008C29.561,125.898,28.721,124.796,27.553,124.383z M26.553,128.215
		c-0.556,0-1.008-0.452-1.008-1.008s0.452-1.008,1.008-1.008s1.008,0.452,1.008,1.008S27.108,128.215,26.553,128.215z"/>
</g>
<g>
	<path d="M-73.104,122.313v-17.105c0-2.762-2.238-5-5-5s-5,2.238-5,5v17.105c-1.236,1.263-2,2.988-2,4.895c0,3.866,3.134,7,7,7
		s7-3.134,7-7C-71.104,125.301-71.868,123.575-73.104,122.313z M-78.104,132.207c-2.757,0-5-2.243-5-5
		c0-1.313,0.508-2.554,1.429-3.495l0.571-0.583v-0.816v-17.105c0-1.654,1.346-3,3-3s3,1.346,3,3v17.105v0.816l0.571,0.583
		c0.921,0.941,1.429,2.183,1.429,3.495C-73.104,129.964-75.348,132.207-78.104,132.207z"/>
	<path d="M-78.104,124.199c-1.661,0-3.008,1.347-3.008,3.008c0,1.662,1.347,3.008,3.008,3.008c1.662,0,3.008-1.346,3.008-3.008
		C-75.097,125.546-76.442,124.199-78.104,124.199z M-78.104,128.215c-0.556,0-1.008-0.452-1.008-1.008s0.452-1.008,1.008-1.008
		s1.008,0.452,1.008,1.008S-77.549,128.215-78.104,128.215z"/>
</g>
<g>
	<path d="M426.82,102.52c-2.209,0-4,1.791-4,4c0,2.21,1.791,4,4,4c2.211,0,4-1.79,4-4C430.82,104.311,429.031,102.52,426.82,102.52z
		 M426.82,108.52c-1.103,0-2-0.897-2-2s0.897-2,2-2s2,0.897,2,2S427.923,108.52,426.82,108.52z"/>
	<path d="M440.82,130.52c-4.41,0-7.999-3.589-7.999-7.999v-4.002c0-4.41,3.589-7.999,7.999-7.999c2.715,0,5.115,1.362,6.563,3.437
		l1.43-1.43c-1.824-2.429-4.72-4.007-7.992-4.007c-5.522,0-9.999,4.478-9.999,9.999v4.002c0,5.521,4.477,9.999,9.999,9.999
		c3.272,0,6.168-1.579,7.992-4.008l-1.43-1.43C445.937,129.156,443.536,130.52,440.82,130.52z"/>
</g>
<g>
	<path d="M531.517,102.398c-2.209,0-4,1.791-4,4c0,2.21,1.791,4,4,4c2.211,0,4-1.79,4-4
		C535.517,104.189,533.728,102.398,531.517,102.398z M531.517,108.398c-1.103,0-2-0.897-2-2s0.897-2,2-2s2,0.897,2,2
		S532.619,108.398,531.517,108.398z"/>
	<polygon points="551.392,110.52 551.392,108.52 539.392,108.52 537.392,108.52 537.392,132.52 539.392,132.52 539.392,120.52 
		547.392,120.52 547.392,118.52 539.392,118.52 539.392,110.52 	"/>
</g>
<g>
	<path d="M642.603,106.211c-7.179,0-13,5.82-13,13s5.821,13,13,13s13-5.82,13-13S649.781,106.211,642.603,106.211z M642.603,130.211
		c-6.065,0-11-4.935-11-11s4.935-11,11-11s11,4.935,11,11S648.668,130.211,642.603,130.211z"/>
	<path d="M638.336,123.453l6.363-2.121l2.121-6.364l-6.363,2.122L638.336,123.453z M642.038,118.671l1.62-0.54l-0.54,1.62
		l-1.62,0.54L642.038,118.671z"/>
</g>
<g>
	<path d="M-78.104,196.729c-7.179,0-13,5.82-13,13s5.821,13,13,13s13-5.82,13-13S-70.926,196.729-78.104,196.729z M-78.104,220.729
		c-6.065,0-11-4.934-11-11c0-6.064,4.935-11,11-11s11,4.936,11,11C-67.104,215.795-72.039,220.729-78.104,220.729z"/>
	<path d="M-75.543,208.15l-2.586-4.422l-2.529,4.33h0.007c-0.299,0.467-0.478,1.018-0.478,1.613c0,1.656,1.343,3,3,3s3-1.344,3-3
		c0-0.559-0.162-1.074-0.428-1.521H-75.543z M-78.129,210.672c-0.552,0-1-0.449-1-1c0-0.188,0.055-0.367,0.162-0.535l0.864-1.355
		l0.826,1.391c0.098,0.164,0.147,0.332,0.147,0.5C-77.129,210.223-77.577,210.672-78.129,210.672z"/>
</g>
<g>
	<path d="M26.68,196.729c-7.18,0-13,5.82-13,13s5.82,13,13,13s13-5.82,13-13S33.859,196.729,26.68,196.729z M26.68,220.729
		c-6.065,0-11-4.934-11-11c0-6.064,4.935-11,11-11s11,4.936,11,11C37.68,215.795,32.745,220.729,26.68,220.729z"/>
	<path d="M28.269,207.148c-0.467-0.299-1.018-0.477-1.613-0.477c-1.658,0-3,1.342-3,3c0,1.656,1.342,3,3,3
		c0.557,0,1.072-0.162,1.52-0.428v0.014l4.422-2.586l-4.328-2.529V207.148z M27.153,210.523c-0.164,0.098-0.332,0.148-0.498,0.148
		c-0.552,0-1-0.449-1-1c0-0.553,0.448-1,1-1c0.188,0,0.368,0.053,0.535,0.16l1.355,0.865L27.153,210.523z"/>
</g>
<g>
	<path d="M129.73,196.729c-7.18,0-13,5.82-13,13s5.82,13,13,13s13-5.82,13-13S136.91,196.729,129.73,196.729z M129.73,220.729
		c-6.065,0-11-4.934-11-11c0-6.064,4.935-11,11-11s11,4.936,11,11C140.73,215.795,135.796,220.729,129.73,220.729z"/>
	<path d="M129.73,206.672c-1.656,0-3,1.342-3,3c0,0.557,0.162,1.072,0.428,1.52h-0.014l2.586,4.422l2.529-4.328h-0.006
		c0.299-0.467,0.477-1.018,0.477-1.613C132.73,208.014,131.389,206.672,129.73,206.672z M130.569,210.207l-0.865,1.355l-0.826-1.393
		c-0.098-0.164-0.147-0.332-0.147-0.498c0-0.553,0.448-1,1-1s1,0.447,1,1C130.73,209.859,130.677,210.039,130.569,210.207z"/>
</g>
<g>
	<path d="M233.145,196.729c-7.179,0-13,5.82-13,13s5.821,13,13,13s13-5.82,13-13S240.323,196.729,233.145,196.729z M233.145,220.729
		c-6.065,0-11-4.934-11-11c0-6.064,4.935-11,11-11s11,4.936,11,11C244.145,215.795,239.21,220.729,233.145,220.729z"/>
	<path d="M233.104,206.672c-0.557,0-1.072,0.162-1.52,0.428v-0.014l-4.422,2.586l4.328,2.529v-0.006
		c0.467,0.299,1.018,0.477,1.613,0.477c1.658,0,3-1.342,3-3C236.104,208.016,234.762,206.672,233.104,206.672z M233.104,210.672
		c-0.188,0-0.368-0.055-0.535-0.162l-1.355-0.865l1.393-0.826c0.164-0.098,0.332-0.146,0.498-0.146c0.552,0,1,0.447,1,1
		C234.104,210.223,233.655,210.672,233.104,210.672z"/>
</g>
<g>
	<rect x="24.993" width="2" height="10"/>
	<rect x="39.693" y="6.086" transform="matrix(0.7071 0.7071 -0.7071 0.7071 19.9023 -25.4673)" width="2" height="10.409"/>
	<rect x="6.084" y="10.296" transform="matrix(0.7071 0.7071 -0.7071 0.7071 11.2934 -4.6739)" width="10.409" height="2"/>
	<polygon points="19.325,29.254 20.739,30.668 24.993,26.414 24.993,36 26.993,36 26.993,26.414 31.246,30.668 32.66,29.254 
		25.993,22.586 	"/>
	<path d="M39,25.999c0-0.002,0-0.004,0-0.006c0-7.18-5.82-12.999-13-12.999s-13,5.819-13,12.999c0,0.002,0,0.004,0,0.006H0v2h18v-2
		h-3c0-0.002,0-0.004,0-0.006c0-6.064,4.935-10.999,11-10.999s11,4.935,11,10.999c0,0.002,0,0.004,0,0.006h-3v2h17.995v-2H39z"/>
</g>
<g>
	<rect x="128.738" y="-1.188" width="2" height="10"/>
	<rect x="143.438" y="4.898" transform="matrix(0.7071 0.7071 -0.7071 0.7071 49.4488 -99.174)" width="2" height="10.409"/>
	<rect x="109.829" y="9.108" transform="matrix(0.7071 0.7071 -0.7071 0.7071 40.84 -78.3806)" width="10.409" height="2"/>
	<polygon points="130.738,33.359 130.738,22.813 128.738,22.813 128.738,33.359 124.484,29.105 123.07,30.52 129.738,37.188 
		136.405,30.52 134.991,29.105 	"/>
	<path d="M142.745,24.812c0-0.002,0-0.004,0-0.006c0-7.18-5.82-12.999-13-12.999s-13,5.819-13,12.999c0,0.002,0,0.004,0,0.006h-13v2
		h22v-2h-7c0-0.002,0-0.004,0-0.006c0-6.064,4.935-10.999,11-10.999s11,4.935,11,10.999c0,0.002,0,0.004,0,0.006h-7v2h21.995v-2
		H142.745z"/>
</g>
<g>
	<polygon points="333.096,32.825 333.096,18.442 331.096,18.442 331.096,32.825 326.842,28.571 325.428,29.985 332.096,36.653 
		338.763,29.985 337.349,28.571 	"/>
	<path d="M348.724,13.472c-1.596-7.445-8.207-13.029-16.127-13.029c-6.423,0-11.977,3.678-14.702,9.035
		c-0.266-0.018-0.53-0.04-0.8-0.04c-6.627,0-11.999,5.372-11.999,12c0,6.607,5.34,11.965,11.938,11.998v0.003h6.062v-2h-5.604
		l-0.447-0.003c-5.485-0.027-9.948-4.513-9.948-9.998c0-5.514,4.485-10,9.999-10c0.175,0,0.347,0.014,0.52,0.025l0.148,0.01
		l1.316,0.088l0.598-1.176c2.492-4.899,7.443-7.942,12.92-7.942c6.79,0,12.75,4.814,14.172,11.448l0.317,1.482l1.514,0.095
		c4.203,0.262,7.496,3.763,7.496,7.971c0,4.397-3.565,7.977-7.957,8c-0.05-0.003-0.093-0.005-0.137-0.007l-2.043,0.007h-4.863v2
		h6.863v-0.007c0.046,0.001,0.091,0.007,0.137,0.007c5.521,0,10-4.477,10-10C358.096,18.128,353.951,13.797,348.724,13.472z"/>
</g>
<g>
	<polygon points="239.08,29.63 240.494,28.216 233.827,21.548 227.159,28.216 228.573,29.63 232.827,25.376 232.827,37.962 
		234.827,37.962 234.827,25.376 	"/>
	<path d="M250.455,15.067c-1.596-7.445-8.207-13.029-16.127-13.029c-6.423,0-11.977,3.678-14.702,9.035
		c-0.266-0.018-0.53-0.04-0.8-0.04c-6.627,0-11.999,5.372-11.999,12c0,6.607,5.34,11.965,11.938,11.998v0.003h10.062v-2h-9.604
		l-0.447-0.003c-5.485-0.027-9.948-4.513-9.948-9.998c0-5.514,4.485-10,9.999-10c0.175,0,0.347,0.014,0.52,0.025l0.148,0.01
		l1.316,0.088l0.598-1.176c2.492-4.899,7.443-7.942,12.92-7.942c6.79,0,12.75,4.814,14.172,11.448l0.317,1.482l1.514,0.095
		c4.203,0.262,7.496,3.763,7.496,7.971c0,4.397-3.565,7.977-7.957,8c-0.05-0.003-0.093-0.005-0.137-0.007l-2.043,0.007h-8.863v2
		h10.863v-0.007c0.046,0.001,0.091,0.007,0.137,0.007c5.521,0,10-4.477,10-10C259.827,19.724,255.683,15.393,250.455,15.067z"/>
</g>
<g>
	<path d="M452.944-174.448c-1.596-7.445-8.207-13.029-16.127-13.029c-6.423,0-11.977,3.678-14.702,9.035
		c-0.266-0.018-0.53-0.04-0.8-0.04c-6.627,0-11.999,5.372-11.999,12c0,6.607,5.34,11.965,11.938,11.998v0.003h2.062v-2h-1.604
		l-0.447-0.003c-5.485-0.027-9.948-4.513-9.948-9.998c0-5.514,4.485-10,9.999-10c0.175,0,0.347,0.014,0.52,0.025l0.148,0.01
		l1.316,0.088l0.598-1.176c2.492-4.899,7.443-7.942,12.92-7.942c6.79,0,12.75,4.814,14.172,11.448l0.317,1.482l1.514,0.095
		c4.203,0.262,7.496,3.763,7.496,7.971c0,4.397-3.565,7.977-7.957,8c-0.05-0.003-0.093-0.005-0.137-0.007l-2.043,0.007h-0.863v2
		h2.863v-0.007c0.046,0.001,0.091,0.007,0.137,0.007c5.521,0,10-4.477,10-10C462.316-169.792,458.172-174.123,452.944-174.448z"/>
	<polygon points="431.316,-155.46 431.316,-158.09 433.489,-156.867 434.175,-158.088 431.705,-159.478 434.175,-160.867 
		433.489,-162.088 431.316,-160.865 431.316,-163.46 429.316,-163.46 429.316,-160.821 427.065,-162.088 426.38,-160.867 
		428.85,-159.478 426.38,-158.088 427.065,-156.867 429.316,-158.134 429.316,-155.46 	"/>
	<polygon points="436.479,-151.105 434.306,-149.883 434.306,-152.478 432.306,-152.478 432.306,-149.839 430.055,-151.105 
		429.369,-149.885 431.839,-148.495 429.369,-147.105 430.055,-145.885 432.306,-147.151 432.306,-144.478 434.306,-144.478 
		434.306,-147.107 436.479,-145.885 437.164,-147.105 434.694,-148.495 437.164,-149.885 	"/>
	<polygon points="445.494,-158.088 443.321,-156.865 443.321,-159.46 441.321,-159.46 441.321,-156.821 439.07,-158.088 
		438.385,-156.867 440.854,-155.478 438.385,-154.088 439.07,-152.867 441.321,-154.134 441.321,-151.46 443.321,-151.46 
		443.321,-154.09 445.494,-152.867 446.18,-154.088 443.71,-155.478 446.18,-156.867 	"/>
</g>
<g>
	<rect x="528.456" y="-192.5" width="2" height="7.973"/>
	<rect x="509.456" y="-173.586" width="7.973" height="2"/>
	<rect x="514.129" y="-184.852" transform="matrix(0.7071 0.7071 -0.7071 0.7071 21.7493 -420.2126)" width="7.974" height="2"/>
	<rect x="539.638" y="-187.834" transform="matrix(0.7071 0.7071 -0.7071 0.7071 28.3485 -436.1366)" width="2" height="7.972"/>
	<path d="M558.968-166.71c-1.444-6.742-7.433-11.8-14.605-11.8c-2.185,0-4.258,0.471-6.127,1.314
		c-1.666-3.203-5.006-5.395-8.865-5.395c-5.522,0-10,4.477-10,9.999c0,2.46,0.899,4.702,2.373,6.442
		c-1.428,1.84-2.287,4.144-2.287,6.653c0,5.983,4.836,10.836,10.813,10.865v0.003h1.188v-2h-0.721l-0.457-0.003
		c-4.864-0.023-8.822-4.001-8.822-8.865c0-4.89,3.978-8.868,8.867-8.868c0.15,0,0.299,0.012,0.447,0.022l0.148,0.01l1.314,0.085
		l0.597-1.175c2.225-4.372,6.644-7.089,11.532-7.089c6.062,0,11.382,4.298,12.649,10.219l0.318,1.483l1.514,0.094
		c3.708,0.23,6.612,3.319,6.612,7.03c0,3.878-3.144,7.035-7.017,7.057c-0.042-0.003-0.079-0.005-0.117-0.005l-1.866,0.005v2h1.819
		v-0.006c0.042,0.001,0.082,0.006,0.124,0.006c5.001,0,9.057-4.054,9.057-9.057C567.456-162.493,563.702-166.415,558.968-166.71z
		 M531.048-170.327c-0.241-0.016-0.48-0.036-0.725-0.036c-2.766,0-5.282,1.041-7.2,2.742c-1.092-1.365-1.753-3.089-1.753-4.97
		c0-4.41,3.589-7.999,8-7.999c3.092,0,5.76,1.773,7.091,4.346C534.163-174.805,532.284-172.757,531.048-170.327z"/>
	<polygon points="538.448,-149.607 538.448,-152.237 540.621,-151.015 541.307,-152.235 538.837,-153.625 541.307,-155.015 
		540.621,-156.235 538.448,-155.013 538.448,-157.607 536.448,-157.607 536.448,-154.969 534.197,-156.235 533.512,-155.015 
		535.981,-153.625 533.512,-152.235 534.197,-151.015 536.448,-152.281 536.448,-149.607 	"/>
	<polygon points="543.61,-145.253 541.438,-144.03 541.438,-146.625 539.438,-146.625 539.438,-143.986 537.187,-145.253 
		536.501,-144.032 538.971,-142.643 536.501,-141.253 537.187,-140.032 539.438,-141.299 539.438,-138.625 541.438,-138.625 
		541.438,-141.255 543.61,-140.032 544.296,-141.253 541.826,-142.643 544.296,-144.032 	"/>
	<polygon points="552.626,-152.235 550.453,-151.013 550.453,-153.607 548.453,-153.607 548.453,-150.969 546.202,-152.235 
		545.517,-151.015 547.986,-149.625 545.517,-148.235 546.202,-147.015 548.453,-148.281 548.453,-145.607 550.453,-145.607 
		550.453,-148.237 552.626,-147.015 553.312,-148.235 550.842,-149.625 553.312,-151.015 	"/>
</g>
<g>
	<path d="M659.156-169.713c-1.444-6.742-7.433-11.8-14.605-11.8c-1.799,0-3.522,0.32-5.118,0.904
		c-0.949-5.108-5.404-8.98-10.788-8.98c-0.413,0-0.819,0.027-1.222,0.071c0.744,1.112,1.179,2.448,1.179,3.886c0,3.865-3.134,7-7,7
		c-1.438,0-2.773-0.435-3.886-1.179c-0.044,0.401-0.071,0.809-0.071,1.222c0,3.713,1.845,6.987,4.661,8.979
		c-1.653,1.907-2.661,4.389-2.661,7.111c0,5.983,4.836,10.836,10.813,10.865v0.003h1.188v-2h-0.721l-0.457-0.003
		c-4.864-0.023-8.822-4.001-8.822-8.865c0-4.89,3.978-8.868,8.867-8.868c0.15,0,0.299,0.012,0.447,0.022l0.148,0.01l1.314,0.085
		l0.597-1.175c2.225-4.372,6.644-7.089,11.532-7.089c6.062,0,11.382,4.298,12.649,10.219l0.318,1.483l1.514,0.094
		c3.708,0.23,6.612,3.319,6.612,7.03c0,3.878-3.144,7.035-7.017,7.057c-0.042-0.003-0.079-0.005-0.117-0.005l-1.866,0.005v2h1.819
		v-0.006c0.042,0.001,0.082,0.006,0.124,0.006c5.001,0,9.057-4.054,9.057-9.057C667.645-165.496,663.891-169.418,659.156-169.713z
		 M631.236-173.33c-0.241-0.016-0.48-0.036-0.725-0.036c-2.537,0-4.865,0.877-6.715,2.334c-2.012-1.294-3.486-3.354-3.976-5.776
		c0.582,0.117,1.178,0.177,1.78,0.177c4.963,0,9-4.037,9-9c0-0.603-0.06-1.198-0.177-1.78c3.733,0.753,6.629,3.824,7.134,7.64
		C634.846-178.328,632.631-176.073,631.236-173.33z"/>
	<polygon points="638.682,-152.61 638.682,-155.24 640.854,-154.018 641.54,-155.238 639.07,-156.628 641.54,-158.018 
		640.854,-159.238 638.682,-158.016 638.682,-160.61 636.682,-160.61 636.682,-157.972 634.431,-159.238 633.745,-158.018 
		636.215,-156.628 633.745,-155.238 634.431,-154.018 636.682,-155.284 636.682,-152.61 	"/>
	<polygon points="643.844,-148.256 641.671,-147.033 641.671,-149.628 639.671,-149.628 639.671,-146.989 637.42,-148.256 
		636.734,-147.035 639.204,-145.646 636.734,-144.256 637.42,-143.035 639.671,-144.302 639.671,-141.628 641.671,-141.628 
		641.671,-144.258 643.844,-143.035 644.529,-144.256 642.06,-145.646 644.529,-147.035 	"/>
	<polygon points="652.859,-155.238 650.687,-154.016 650.687,-156.61 648.687,-156.61 648.687,-153.972 646.436,-155.238 
		645.75,-154.018 648.22,-152.628 645.75,-151.238 646.436,-150.018 648.687,-151.284 648.687,-148.61 650.687,-148.61 
		650.687,-151.24 652.859,-150.018 653.545,-151.238 651.075,-152.628 653.545,-154.018 	"/>
</g>
<rect x="42.798" y="-737.463" fill="none" width="472.974" height="180.918"/>
<text transform="matrix(1 0 0 1 222.4351 -666.064)"><tspan x="0" y="0" font-family="'HelveticaNeueLTStd-Th'" font-size="100" letter-spacing="2">60</tspan><tspan x="-99.268" y="60" font-family="'HelveticaNeueLTStd-Lt'" font-size="48" letter-spacing="1">Weather Icons</tspan><tspan x="-3.726" y="104" font-family="'HelveticaNeueLTStd-Lt'" font-size="24">IOS 7 Style</tspan></text>
</svg>
