<?xml version="1.0" encoding="utf-8"?>
<!-- Generator: Adobe Illustrator 16.0.0, SVG Export Plug-In . SVG Version: 6.00 Build 0)  -->
<!DOCTYPE svg PUBLIC "-//W3C//DTD SVG 1.1//EN" "http://www.w3.org/Graphics/SVG/1.1/DTD/svg11.dtd">
<svg version="1.1" id="Layer_1" xmlns="http://www.w3.org/2000/svg" xmlns:xlink="http://www.w3.org/1999/xlink" x="0px" y="0px"
	 width="51.995px" height="38.375px" viewBox="0 0 51.995 38.375" enable-background="new 0 0 51.995 38.375" xml:space="preserve">
<path d="M439.521,2.89l-1.803,15.077l-0.268,2.237h2.254h6.896l-14.693,18.759l1.789-14.52l0.277-2.245h-2.262h-6.957L439.521,2.89
	 M442.376-4.135l-21.667,28.333h11.004l-2.671,21.667l21.667-27.661h-11.004L442.376-4.135L442.376-4.135z"/>
<path d="M26.486-459.371c6.79,0,12.749,4.814,14.171,11.448l0.318,1.483l1.514,0.094c4.203,0.262,7.496,3.763,7.496,7.971
	c0,4.396-3.565,7.977-7.957,8c-0.046-0.003-0.091-0.006-0.137-0.007l-2.043-0.036v0.043H11.512l-0.578-0.003
	c-5.485-0.027-9.948-4.513-9.948-9.998c0-5.514,4.485-10,9.999-10c0.175,0,0.347,0.014,0.519,0.025l0.149,0.011l1.316,0.087
	l0.598-1.176C16.06-456.328,21.01-459.371,26.486-459.371 M26.486-461.371c-6.423,0-11.977,3.678-14.702,9.035
	c-0.266-0.018-0.53-0.04-0.8-0.04c-6.627,0-11.999,5.372-11.999,12c0,6.607,5.34,11.965,11.938,11.998v0.003h30.925v-0.007
	c0.046,0.001,0.091,0.007,0.137,0.007c5.521,0,10-4.477,10-10c0-5.311-4.145-9.642-9.372-9.967
	C41.018-455.787,34.406-461.371,26.486-461.371L26.486-461.371z"/>
<g>
	<path d="M149.438-440.96c-1.444-6.742-7.433-11.8-14.605-11.8c-2.185,0-4.258,0.47-6.127,1.313
		c-1.666-3.202-5.006-5.394-8.865-5.394c-5.522,0-10,4.477-10,9.999c0,2.46,0.898,4.702,2.373,6.442
		c-1.428,1.84-2.287,4.144-2.287,6.653c0,5.983,4.836,10.836,10.813,10.865v0.003h28.007v-0.006
		c0.042,0.001,0.082,0.006,0.124,0.006c5.001,0,9.057-4.054,9.057-9.057C157.926-436.743,154.172-440.665,149.438-440.96z
		 M119.84-454.84c3.092,0,5.76,1.773,7.092,4.345c-2.299,1.44-4.178,3.488-5.414,5.918c-0.241-0.016-0.48-0.036-0.725-0.036
		c-2.766,0-5.281,1.041-7.2,2.743c-1.092-1.366-1.753-3.09-1.753-4.971C111.84-451.251,115.429-454.84,119.84-454.84z
		 M148.909-424.877c-0.038-0.003-0.077-0.004-0.117-0.005l-2.047-0.042v0.047h-25.403l-0.594-0.003
		c-4.864-0.023-8.822-4.001-8.822-8.865c0-4.89,3.978-8.868,8.867-8.868c0.15,0,0.299,0.012,0.447,0.021l0.148,0.011l1.314,0.085
		l0.598-1.174c2.224-4.373,6.643-7.09,11.531-7.09c6.062,0,11.381,4.298,12.65,10.219l0.317,1.482l1.514,0.095
		c3.708,0.231,6.612,3.319,6.612,7.03C155.926-428.056,152.782-424.899,148.909-424.877z"/>
	<rect x="118.846" y="-466.87" width="2" height="7.973"/>
	<rect x="99.873" y="-447.884" width="7.973" height="2"/>
	<rect x="104.599" y="-459.102" transform="matrix(0.7071 0.7071 -0.7071 0.7071 -292.1233 -210.957)" width="7.974" height="2"/>
	<rect x="130.108" y="-462.084" transform="matrix(0.7071 0.7071 -0.7071 0.7071 -285.5242 -226.8809)" width="2" height="7.972"/>
</g>
<path d="M245.181-444.987c-1.444-6.742-7.433-11.8-14.605-11.8c-1.799,0-3.521,0.32-5.118,0.904
	c-0.949-5.108-5.404-8.98-10.788-8.98c-0.413,0-0.819,0.027-1.222,0.071c0.744,1.112,1.179,2.448,1.179,3.886c0,3.865-3.134,7-7,7
	c-1.438,0-2.773-0.435-3.886-1.179c-0.044,0.401-0.071,0.809-0.071,1.222c0,3.712,1.845,6.987,4.661,8.979
	c-1.653,1.907-2.661,4.389-2.661,7.111c0,5.983,4.836,10.836,10.813,10.865v0.003h28.007v-0.006
	c0.042,0.001,0.082,0.006,0.124,0.006c5.001,0,9.057-4.054,9.057-9.057C253.669-440.771,249.915-444.692,245.181-444.987z
	 M205.846-452.083c0.582,0.117,1.178,0.177,1.78,0.177c4.963,0,9-4.037,9-9c0-0.603-0.06-1.198-0.177-1.78
	c3.733,0.753,6.629,3.824,7.134,7.64c-2.713,1.444-4.928,3.699-6.322,6.442c-0.241-0.016-0.48-0.036-0.725-0.036
	c-2.537,0-4.865,0.876-6.715,2.334C207.81-447.601,206.335-449.66,205.846-452.083z M244.652-428.904
	c-0.038-0.003-0.077-0.004-0.117-0.005l-2.047-0.042v0.047h-25.403l-0.594-0.003c-4.864-0.023-8.822-4.001-8.822-8.865
	c0-4.89,3.978-8.868,8.867-8.868c0.15,0,0.299,0.012,0.447,0.021l0.148,0.011l1.314,0.085l0.598-1.174
	c2.224-4.373,6.643-7.09,11.531-7.09c6.062,0,11.381,4.298,12.65,10.219l0.317,1.482l1.514,0.095
	c3.708,0.231,6.612,3.319,6.612,7.03C251.669-432.083,248.525-428.927,244.652-428.904z"/>
<g>
	<rect x="329.826" y="-436.364" width="2" height="7"/>
	<rect x="337.826" y="-440.364" width="2" height="7"/>
	<rect x="321.826" y="-440.364" width="2" height="7"/>
	<rect x="329.826" y="-426.364" width="2" height="7"/>
	<rect x="337.826" y="-430.364" width="2" height="7"/>
	<rect x="321.826" y="-430.364" width="2" height="7"/>
	<path d="M348.454-453.353c-1.596-7.445-8.207-13.029-16.127-13.029c-6.423,0-11.977,3.678-14.702,9.035
		c-0.266-0.018-0.53-0.04-0.8-0.04c-6.627,0-11.999,5.372-11.999,12c0,6.607,5.34,11.965,11.938,11.998v0.003h2.062v-2h-1.604
		l-0.447-0.003c-5.485-0.027-9.948-4.513-9.948-9.998c0-5.514,4.485-10,9.999-10c0.175,0,0.347,0.014,0.52,0.025l0.148,0.01
		l1.316,0.088l0.598-1.176c2.492-4.899,7.443-7.942,12.92-7.942c6.79,0,12.75,4.814,14.172,11.448l0.317,1.482l1.514,0.095
		c4.203,0.262,7.496,3.763,7.496,7.971c0,4.397-3.565,7.977-7.957,8c-0.05-0.003-0.093-0.005-0.137-0.007l-2.043,0.007h-2.863v2
		h4.863v-0.007c0.046,0.001,0.091,0.007,0.137,0.007c5.521,0,10-4.477,10-10C357.826-448.696,353.682-453.027,348.454-453.353z"/>
</g>
<g>
	<path d="M146.027-363.995c-1.596-7.445-8.207-13.029-16.127-13.029c-6.423,0-11.977,3.678-14.702,9.035
		c-0.266-0.018-0.53-0.04-0.8-0.04c-6.627,0-11.999,5.372-11.999,12c0,6.607,5.34,11.965,11.938,11.998v0.003h2.062v-2h-1.604
		l-0.447-0.003c-5.485-0.027-9.948-4.513-9.948-9.998c0-5.514,4.485-10,9.999-10c0.175,0,0.347,0.014,0.52,0.025l0.148,0.01
		l1.316,0.088l0.598-1.176c2.492-4.899,7.443-7.942,12.92-7.942c6.79,0,12.75,4.814,14.172,11.448l0.317,1.482l1.514,0.095
		c4.203,0.262,7.496,3.763,7.496,7.971c0,4.397-3.565,7.977-7.957,8c-0.05-0.003-0.093-0.005-0.137-0.007l-2.043,0.007h-2.863v2
		h4.863v-0.007c0.046,0.001,0.091,0.007,0.137,0.007c5.521,0,10-4.477,10-10C155.399-359.339,151.255-363.67,146.027-363.995z"/>
	<polygon points="127.399,-337 127.399,-335.06 127.399,-329 129.399,-329 129.399,-335.06 129.399,-337 129.399,-349 127.399,-349 
			"/>
	<polygon points="135.399,-341 135.399,-339.247 135.399,-333 137.399,-333 137.399,-339.247 137.399,-341 137.399,-353 
		135.399,-353 	"/>
	<polygon points="119.399,-341 119.399,-338.935 119.399,-333 121.399,-333 121.399,-338.935 121.399,-341 121.399,-353 
		119.399,-353 	"/>
</g>
<g>
	<polygon points="441.677,-340.089 434.794,-349.919 433.156,-348.771 440.039,-338.941 441.151,-337.353 444.627,-332.389 
		446.266,-333.535 442.79,-338.5 	"/>
	<polygon points="449.679,-340.091 442.794,-349.919 441.156,-348.771 448.042,-338.942 449.047,-337.507 452.631,-332.392 
		454.27,-333.538 450.686,-338.654 	"/>
	<polygon points="433.677,-340.089 426.794,-349.919 425.156,-348.771 432.039,-338.941 433.224,-337.249 436.628,-332.388 
		438.266,-333.535 434.862,-338.396 	"/>
	<path d="M452.784-363.729c-1.596-7.445-8.207-13.029-16.127-13.029c-6.423,0-11.977,3.678-14.702,9.035
		c-0.266-0.018-0.53-0.04-0.8-0.04c-6.627,0-11.999,5.372-11.999,12c0,6.607,5.34,11.965,11.938,11.998v0.003h2.062v-2h-1.604
		l-0.447-0.003c-5.485-0.027-9.948-4.513-9.948-9.998c0-5.514,4.485-10,9.999-10c0.175,0,0.347,0.014,0.52,0.025l0.148,0.01
		l1.316,0.088l0.598-1.176c2.492-4.899,7.443-7.942,12.92-7.942c6.79,0,12.75,4.814,14.172,11.448l0.317,1.482l1.514,0.095
		c4.203,0.262,7.496,3.763,7.496,7.971c0,4.397-3.565,7.977-7.957,8c-0.05-0.003-0.093-0.005-0.137-0.007l-1.043,0.007h0.137v2
		h0.863v-0.007c0.046,0.001,0.091,0.007,0.137,0.007c5.521,0,10-4.477,10-10C462.156-359.072,458.012-363.403,452.784-363.729z"/>
</g>
<g>
	<rect x="424.482" y="-472.811" width="2" height="7.973"/>
	<rect x="405.482" y="-453.896" width="7.973" height="2"/>
	<rect x="410.155" y="-465.163" transform="matrix(0.7071 0.7071 -0.7071 0.7071 -206.9133 -428.7932)" width="7.974" height="2"/>
	<rect x="435.664" y="-468.145" transform="matrix(0.7071 0.7071 -0.7071 0.7071 -200.3141 -444.7172)" width="2" height="7.972"/>
	<rect x="438.482" y="-431.938" width="2" height="7"/>
	<rect x="446.482" y="-435.938" width="2" height="7"/>
	<rect x="430.482" y="-435.938" width="2" height="7"/>
	<rect x="438.482" y="-421.938" width="2" height="7"/>
	<rect x="446.482" y="-425.938" width="2" height="7"/>
	<rect x="430.482" y="-425.938" width="2" height="7"/>
	<path d="M454.994-447.021c-1.444-6.742-7.433-11.8-14.605-11.8c-2.185,0-4.258,0.47-6.126,1.313
		c-1.667-3.202-5.007-5.394-8.866-5.394c-5.522,0-10,4.477-10,9.999c0,2.46,0.899,4.702,2.373,6.442
		c-1.429,1.84-2.287,4.144-2.287,6.653c0,5.983,4.836,10.836,10.813,10.865v0.003h1.188v-2h-0.721l-0.457-0.003
		c-4.864-0.023-8.822-4.001-8.822-8.865c0-4.89,3.978-8.868,8.867-8.868c0.15,0,0.299,0.012,0.447,0.022l0.148,0.01l1.314,0.085
		l0.597-1.175c2.225-4.372,6.644-7.089,11.532-7.089c6.062,0,11.382,4.298,12.649,10.219l0.318,1.483l1.514,0.094
		c3.708,0.23,6.612,3.319,6.612,7.03c0,3.878-3.144,7.035-7.017,7.057c-0.042-0.003-0.079-0.005-0.117-0.005l-2.047,0.005h-0.819v2
		h2.819v-0.006c0.042,0.001,0.082,0.006,0.124,0.006c5.001,0,9.057-4.054,9.057-9.057
		C463.482-442.804,459.729-446.726,454.994-447.021z M427.074-450.638c-0.241-0.016-0.48-0.036-0.725-0.036
		c-2.766,0-5.282,1.041-7.2,2.743c-1.092-1.366-1.753-3.09-1.753-4.971c0-4.41,3.589-7.999,8-7.999c3.091,0,5.76,1.773,7.091,4.345
		C430.189-455.115,428.31-453.067,427.074-450.638z"/>
</g>
<g>
	<rect x="538.899" y="-433.385" width="2" height="7"/>
	<rect x="546.899" y="-437.385" width="2" height="7"/>
	<rect x="530.899" y="-437.385" width="2" height="7"/>
	<rect x="538.899" y="-423.385" width="2" height="7"/>
	<rect x="546.899" y="-427.385" width="2" height="7"/>
	<rect x="530.899" y="-427.385" width="2" height="7"/>
	<path d="M555.411-448.468c-1.444-6.742-7.433-11.8-14.605-11.8c-1.799,0-3.522,0.32-5.118,0.904
		c-0.949-5.108-5.404-8.98-10.788-8.98c-0.413,0-0.819,0.027-1.222,0.071c0.744,1.112,1.179,2.448,1.179,3.886c0,3.865-3.134,7-7,7
		c-1.438,0-2.773-0.435-3.886-1.179c-0.044,0.401-0.071,0.809-0.071,1.222c0,3.712,1.845,6.987,4.661,8.979
		c-1.653,1.907-2.661,4.389-2.661,7.111c0,5.983,4.836,10.836,10.813,10.865v0.003h1.188v-2h-0.721l-0.457-0.003
		c-4.864-0.023-8.822-4.001-8.822-8.865c0-4.89,3.978-8.868,8.867-8.868c0.15,0,0.299,0.012,0.447,0.022l0.148,0.01l1.314,0.085
		l0.597-1.175c2.225-4.372,6.644-7.089,11.532-7.089c6.062,0,11.382,4.298,12.649,10.219l0.318,1.483l1.514,0.094
		c3.708,0.23,6.612,3.319,6.612,7.03c0,3.878-3.144,7.035-7.017,7.057c-0.042-0.003-0.079-0.005-0.117-0.005l-2.047,0.005h-0.819v2
		h2.819v-0.006c0.042,0.001,0.082,0.006,0.124,0.006c5.001,0,9.057-4.054,9.057-9.057
		C563.899-444.251,560.146-448.173,555.411-448.468z M527.491-452.085c-0.241-0.016-0.48-0.036-0.725-0.036
		c-2.537,0-4.865,0.876-6.715,2.334c-2.012-1.294-3.487-3.354-3.976-5.776c0.582,0.117,1.178,0.177,1.78,0.177c4.963,0,9-4.037,9-9
		c0-0.603-0.06-1.198-0.177-1.78c3.733,0.753,6.629,3.824,7.133,7.64C531.102-457.083,528.887-454.828,527.491-452.085z"/>
</g>
<g>
	<polygon points="231.669,-332.562 231.669,-330.621 231.669,-324.562 233.669,-324.562 233.669,-330.621 233.669,-332.562 
		233.669,-344.562 231.669,-344.562 	"/>
	<polygon points="239.669,-336.562 239.669,-334.809 239.669,-328.562 241.669,-328.562 241.669,-334.809 241.669,-336.562 
		241.669,-348.562 239.669,-348.562 	"/>
	<polygon points="223.669,-336.562 223.669,-334.496 223.669,-328.562 225.669,-328.562 225.669,-334.496 225.669,-336.562 
		225.669,-348.562 223.669,-348.562 	"/>
	<rect x="217.669" y="-383.464" width="2" height="7.973"/>
	<rect x="198.669" y="-364.55" width="7.973" height="2"/>
	<rect x="203.342" y="-375.816" transform="matrix(0.7071 0.7071 -0.7071 0.7071 -204.3099 -256.385)" width="7.974" height="2"/>
	<rect x="228.851" y="-378.798" transform="matrix(0.7071 0.7071 -0.7071 0.7071 -197.7108 -272.3089)" width="2" height="7.972"/>
	<path d="M248.181-357.674c-1.444-6.742-7.433-11.8-14.605-11.8c-2.185,0-4.258,0.47-6.127,1.313
		c-1.666-3.202-5.006-5.394-8.865-5.394c-5.522,0-10,4.477-10,9.999c0,2.46,0.898,4.702,2.373,6.442
		c-1.428,1.84-2.287,4.144-2.287,6.653c0,5.983,4.836,10.836,10.813,10.865v0.003h1.188v-2h-0.721l-0.457-0.003
		c-4.864-0.023-8.822-4.001-8.822-8.865c0-4.89,3.978-8.868,8.867-8.868c0.15,0,0.299,0.012,0.447,0.022l0.148,0.01l1.314,0.085
		l0.597-1.175c2.225-4.372,6.644-7.089,11.532-7.089c6.062,0,11.382,4.298,12.649,10.219l0.318,1.483l1.514,0.094
		c3.708,0.23,6.612,3.319,6.612,7.03c0,3.878-3.144,7.035-7.017,7.057c-0.042-0.003-0.079-0.005-0.117-0.005l-2.047,0.005h-0.819v2
		h2.819v-0.006c0.042,0.001,0.082,0.006,0.124,0.006c5.001,0,9.057-4.054,9.057-9.057
		C256.669-353.457,252.915-357.379,248.181-357.674z M220.261-361.291c-0.241-0.016-0.48-0.036-0.725-0.036
		c-2.766,0-5.281,1.042-7.2,2.743c-1.092-1.367-1.753-3.09-1.753-4.971c0-4.41,3.589-7.999,8-7.999c3.092,0,5.76,1.773,7.092,4.345
		C223.376-365.77,221.497-363.721,220.261-361.291z"/>
</g>
<g>
	<polygon points="332.066,-335.078 332.066,-333.138 332.066,-327.078 334.066,-327.078 334.066,-333.138 334.066,-335.078 
		334.066,-347.078 332.066,-347.078 	"/>
	<polygon points="340.066,-339.078 340.066,-337.325 340.066,-331.078 342.066,-331.078 342.066,-337.325 342.066,-339.078 
		342.066,-351.078 340.066,-351.078 	"/>
	<polygon points="324.066,-339.078 324.066,-337.013 324.066,-331.078 326.066,-331.078 326.066,-337.013 326.066,-339.078 
		326.066,-351.078 324.066,-351.078 	"/>
	<path d="M348.578-360.19c-1.444-6.742-7.433-11.8-14.605-11.8c-1.799,0-3.521,0.32-5.118,0.904
		c-0.949-5.108-5.404-8.98-10.788-8.98c-0.413,0-0.819,0.027-1.222,0.071c0.744,1.112,1.179,2.448,1.179,3.886c0,3.865-3.134,7-7,7
		c-1.438,0-2.773-0.435-3.886-1.179c-0.044,0.401-0.071,0.809-0.071,1.222c0,3.712,1.845,6.987,4.661,8.979
		c-1.653,1.907-2.661,4.389-2.661,7.111c0,5.983,4.836,10.836,10.813,10.865v0.003h1.188v-2h-0.721l-0.457-0.003
		c-4.864-0.023-8.822-4.001-8.822-8.865c0-4.89,3.978-8.868,8.867-8.868c0.15,0,0.299,0.012,0.447,0.022l0.148,0.01l1.314,0.085
		l0.597-1.175c2.225-4.372,6.644-7.089,11.532-7.089c6.062,0,11.382,4.298,12.649,10.219l0.318,1.483l1.514,0.094
		c3.708,0.23,6.612,3.319,6.612,7.03c0,3.878-3.144,7.035-7.017,7.057c-0.042-0.003-0.079-0.005-0.117-0.005l-2.047,0.005h-0.819v2
		h2.819v-0.006c0.042,0.001,0.082,0.006,0.124,0.006c5.001,0,9.057-4.054,9.057-9.057
		C357.066-355.974,353.313-359.896,348.578-360.19z M320.658-363.808c-0.241-0.016-0.48-0.036-0.725-0.036
		c-2.537,0-4.865,0.876-6.715,2.334c-2.012-1.294-3.486-3.354-3.976-5.776c0.582,0.117,1.178,0.177,1.78,0.177c4.963,0,9-4.037,9-9
		c0-0.603-0.06-1.198-0.177-1.78c3.733,0.753,6.629,3.824,7.134,7.641C324.268-368.806,322.053-366.55,320.658-363.808z"/>
</g>
<g>
	<polygon points="549.102,-334.134 542.219,-343.964 540.581,-342.816 547.464,-332.986 548.576,-331.397 552.052,-326.434 
		553.69,-327.58 550.215,-332.545 	"/>
	<polygon points="557.104,-334.136 550.219,-343.964 548.581,-342.815 555.467,-332.987 556.472,-331.552 560.056,-326.437 
		561.694,-327.583 558.11,-332.699 	"/>
	<polygon points="541.102,-334.134 534.219,-343.964 532.581,-342.815 539.464,-332.986 540.648,-331.294 544.053,-326.433 
		545.69,-327.58 542.287,-332.441 	"/>
	<rect x="528.581" y="-381.683" width="2" height="7.973"/>
	<rect x="509.581" y="-362.769" width="7.973" height="2"/>
	<rect x="514.254" y="-374.035" transform="matrix(0.7071 0.7071 -0.7071 0.7071 -111.9863 -475.7113)" width="7.974" height="2"/>
	<rect x="539.763" y="-377.017" transform="matrix(0.7071 0.7071 -0.7071 0.7071 -105.3872 -491.6353)" width="2" height="7.972"/>
	<path d="M559.093-355.893c-1.444-6.742-7.433-11.8-14.605-11.8c-2.185,0-4.258,0.47-6.126,1.313
		c-1.667-3.202-5.007-5.394-8.866-5.394c-5.522,0-10,4.477-10,9.999c0,2.46,0.899,4.702,2.373,6.442
		c-1.429,1.84-2.287,4.144-2.287,6.653c0,5.983,4.836,10.836,10.813,10.865v0.003h1.188v-2h-0.721l-0.457-0.003
		c-4.864-0.023-8.822-4.001-8.822-8.865c0-4.89,3.978-8.868,8.867-8.868c0.15,0,0.299,0.012,0.447,0.022l0.148,0.01l1.314,0.085
		l0.597-1.175c2.225-4.372,6.644-7.089,11.532-7.089c6.062,0,11.382,4.298,12.649,10.219l0.318,1.483l1.514,0.094
		c3.708,0.23,6.612,3.319,6.612,7.03c0,3.878-3.144,7.035-7.017,7.057c-0.042-0.003-0.079-0.005-0.117-0.005l-0.047,0.005h-0.819v2
		h0.819v-0.006c0.042,0.001,0.082,0.006,0.124,0.006c5.001,0,9.057-4.054,9.057-9.057
		C567.581-351.676,563.827-355.598,559.093-355.893z M531.173-359.51c-0.241-0.016-0.48-0.036-0.725-0.036
		c-2.766,0-5.282,1.042-7.2,2.743c-1.092-1.367-1.753-3.09-1.753-4.971c0-4.41,3.589-7.999,8-7.999c3.091,0,5.76,1.773,7.091,4.345
		C534.288-363.988,532.408-361.939,531.173-359.51z"/>
</g>
<g>
	<polygon points="-174.329,-237.648 -181.212,-247.479 -182.85,-246.331 -175.967,-236.501 -174.854,-234.912 -171.379,-229.948 
		-169.74,-231.095 -173.216,-236.06 	"/>
	<polygon points="-166.327,-237.65 -173.212,-247.479 -174.85,-246.33 -167.964,-236.502 -166.959,-235.066 -163.375,-229.951 
		-161.736,-231.098 -165.32,-236.214 	"/>
	<polygon points="-182.329,-237.648 -189.212,-247.479 -190.85,-246.33 -183.967,-236.501 -182.782,-234.809 -179.378,-229.947 
		-177.74,-231.095 -181.144,-235.956 	"/>
	<path d="M-164.338-259.407c-1.444-6.742-7.433-11.8-14.605-11.8c-1.799,0-3.522,0.32-5.118,0.904
		c-0.949-5.108-5.404-8.98-10.788-8.98c-0.413,0-0.819,0.027-1.222,0.071c0.744,1.112,1.179,2.448,1.179,3.886c0,3.865-3.134,7-7,7
		c-1.438,0-2.773-0.435-3.886-1.179c-0.044,0.401-0.071,0.809-0.071,1.222c0,3.712,1.845,6.987,4.661,8.979
		c-1.653,1.907-2.661,4.389-2.661,7.111c0,5.983,4.836,10.836,10.813,10.865v0.003h1.188v-2h-0.721l-0.457-0.003
		c-4.864-0.023-8.822-4.001-8.822-8.865c0-4.89,3.978-8.868,8.867-8.868c0.15,0,0.299,0.012,0.447,0.022l0.148,0.01l1.314,0.085
		l0.597-1.175c2.225-4.372,6.644-7.089,11.532-7.089c6.062,0,11.382,4.298,12.649,10.219l0.318,1.483l1.514,0.094
		c3.708,0.23,6.612,3.319,6.612,7.03c0,3.878-3.144,7.035-7.017,7.057c-0.042-0.003-0.079-0.005-0.117-0.005l-0.047,0.005h-0.819v2
		h0.819v-0.006c0.042,0.001,0.082,0.006,0.124,0.006c5.001,0,9.057-4.054,9.057-9.057
		C-155.85-255.19-159.604-259.112-164.338-259.407z M-192.258-263.024c-0.241-0.016-0.48-0.036-0.725-0.036
		c-2.537,0-4.865,0.876-6.715,2.334c-2.012-1.294-3.487-3.354-3.976-5.776c0.582,0.117,1.178,0.177,1.78,0.177c4.963,0,9-4.037,9-9
		c0-0.603-0.06-1.198-0.177-1.78c3.733,0.753,6.629,3.824,7.133,7.641C-188.647-268.022-190.862-265.767-192.258-263.024z"/>
</g>
<g>
	<rect x="-181.85" y="-341.495" width="2" height="4"/>
	<rect x="-173.85" y="-345.517" width="2" height="4.021"/>
	<rect x="-189.85" y="-345.517" width="2" height="4.021"/>
	<path d="M-163.222-361.483c-1.596-7.445-8.207-13.029-16.127-13.029c-6.423,0-11.977,3.678-14.702,9.035
		c-0.266-0.018-0.53-0.04-0.8-0.04c-6.627,0-11.999,5.372-11.999,12c0,6.607,5.34,11.965,11.938,11.998v0.003h2.062v-2h-1.604
		l-0.447-0.003c-5.485-0.027-9.948-4.513-9.948-9.998c0-5.514,4.485-10,9.999-10c0.175,0,0.347,0.014,0.52,0.025l0.148,0.01
		l1.316,0.088l0.598-1.176c2.492-4.899,7.443-7.942,12.92-7.942c6.79,0,12.75,4.814,14.172,11.448l0.317,1.482l1.514,0.095
		c4.203,0.262,7.496,3.763,7.496,7.971c0,4.397-3.565,7.977-7.957,8c-0.05-0.003-0.093-0.005-0.137-0.007l-2.043,0.007h-2.863v2
		h4.863v-0.007c0.046,0.001,0.091,0.007,0.137,0.007c5.521,0,10-4.477,10-10C-153.85-356.827-157.994-361.158-163.222-361.483z"/>
	<circle cx="-172.85" cy="-336.475" r="1.5"/>
	<circle cx="-180.85" cy="-332.506" r="1.5"/>
	<circle cx="-188.85" cy="-336.517" r="1.5"/>
</g>
<g>
	<rect x="-88.929" y="-380.949" width="2" height="7.973"/>
	<rect x="-107.929" y="-362.035" width="7.973" height="2"/>
	<rect x="-103.256" y="-373.302" transform="matrix(0.7071 0.7071 -0.7071 0.7071 -292.3322 -38.8512)" width="7.974" height="2"/>
	<rect x="-77.747" y="-376.284" transform="matrix(0.7071 0.7071 -0.7071 0.7071 -285.733 -54.7751)" width="2" height="7.972"/>
	<path d="M-58.417-355.159c-1.444-6.742-7.433-11.8-14.605-11.8c-2.185,0-4.258,0.47-6.126,1.313
		c-1.667-3.202-5.007-5.394-8.866-5.394c-5.522,0-10,4.477-10,9.999c0,2.46,0.899,4.702,2.373,6.442
		c-1.429,1.84-2.287,4.144-2.287,6.653c0,5.983,4.836,10.836,10.813,10.865v0.003h1.188v-2h-0.721l-0.457-0.003
		c-4.864-0.023-8.822-4.001-8.822-8.865c0-4.89,3.978-8.868,8.867-8.868c0.15,0,0.299,0.012,0.447,0.022l0.148,0.01l1.314,0.085
		l0.597-1.175c2.225-4.372,6.644-7.089,11.532-7.089c6.062,0,11.382,4.298,12.649,10.219l0.318,1.483l1.514,0.094
		c3.708,0.23,6.612,3.319,6.612,7.03c0,3.878-3.144,7.035-7.017,7.057c-0.042-0.003-0.079-0.005-0.117-0.005l-2.047,0.005h-0.819v2
		h2.819v-0.006c0.042,0.001,0.082,0.006,0.124,0.006c5.001,0,9.057-4.054,9.057-9.057
		C-49.929-350.942-53.683-354.864-58.417-355.159z M-86.337-358.776c-0.241-0.016-0.48-0.036-0.725-0.036
		c-2.766,0-5.282,1.042-7.2,2.743c-1.092-1.367-1.753-3.09-1.753-4.971c0-4.41,3.589-7.999,8-7.999c3.091,0,5.76,1.773,7.091,4.345
		C-83.222-363.255-85.102-361.206-86.337-358.776z"/>
	<rect x="-74.929" y="-337.061" width="2" height="4"/>
	<rect x="-66.929" y="-341.082" width="2" height="4.021"/>
	<rect x="-82.929" y="-341.082" width="2" height="4.021"/>
	<circle cx="-65.929" cy="-332.04" r="1.5"/>
	<circle cx="-73.929" cy="-328.071" r="1.5"/>
	<circle cx="-81.929" cy="-332.082" r="1.5"/>
</g>
<g>
	<path d="M42.509-356.116c-1.444-6.742-7.433-11.8-14.605-11.8c-1.799,0-3.522,0.32-5.118,0.904
		c-0.949-5.108-5.404-8.98-10.788-8.98c-0.413,0-0.819,0.027-1.222,0.071c0.744,1.112,1.179,2.448,1.179,3.886c0,3.865-3.134,7-7,7
		c-1.438,0-2.773-0.435-3.886-1.179c-0.044,0.401-0.071,0.809-0.071,1.222c0,3.712,1.845,6.987,4.661,8.979
		c-1.653,1.907-2.661,4.389-2.661,7.111c0,5.983,4.836,10.836,10.813,10.865v0.003h1.188v-2h-0.721l-0.457-0.003
		c-4.864-0.023-8.822-4.001-8.822-8.865c0-4.89,3.978-8.868,8.867-8.868c0.15,0,0.299,0.012,0.447,0.022l0.148,0.01l1.314,0.085
		l0.597-1.175c2.225-4.372,6.644-7.089,11.532-7.089c6.062,0,11.382,4.298,12.649,10.219l0.318,1.483l1.514,0.094
		c3.708,0.23,6.612,3.319,6.612,7.03c0,3.878-3.144,7.035-7.017,7.057c-0.042-0.003-0.079-0.005-0.117-0.005l-2.047,0.005h-0.819v2
		h2.819v-0.006c0.042,0.001,0.082,0.006,0.124,0.006c5.001,0,9.057-4.054,9.057-9.057C50.997-351.899,47.243-355.821,42.509-356.116
		z M14.589-359.733c-0.241-0.016-0.48-0.036-0.725-0.036c-2.537,0-4.865,0.876-6.715,2.334c-2.012-1.294-3.487-3.354-3.976-5.776
		c0.582,0.117,1.178,0.177,1.78,0.177c4.963,0,9-4.037,9-9c0-0.603-0.06-1.198-0.177-1.78c3.733,0.753,6.629,3.824,7.133,7.641
		C18.199-364.731,15.984-362.476,14.589-359.733z"/>
	<rect x="25.997" y="-338.018" width="2" height="4"/>
	<rect x="33.997" y="-342.039" width="2" height="4.021"/>
	<rect x="17.997" y="-342.039" width="2" height="4.021"/>
	<circle cx="34.997" cy="-332.997" r="1.5"/>
	<circle cx="26.997" cy="-329.028" r="1.5"/>
	<circle cx="18.997" cy="-333.039" r="1.5"/>
</g>
<g>
	<path d="M-60.801-263.086c-1.596-7.445-8.207-13.029-16.127-13.029c-6.423,0-11.977,3.678-14.702,9.035
		c-0.266-0.018-0.53-0.04-0.8-0.04c-6.627,0-11.999,5.372-11.999,12c0,6.607,5.34,11.965,11.938,11.998v0.003h6.062v-2h-5.604
		l-0.447-0.003c-5.485-0.027-9.948-4.513-9.948-9.998c0-5.514,4.485-10,9.999-10c0.175,0,0.347,0.014,0.52,0.025l0.148,0.01
		l1.316,0.088l0.598-1.176c2.492-4.899,7.443-7.942,12.92-7.942c6.79,0,12.75,4.814,14.172,11.448l0.317,1.482l1.514,0.095
		c4.203,0.262,7.496,3.763,7.496,7.971c0,4.397-3.565,7.977-7.957,8c-0.05-0.003-0.093-0.005-0.137-0.007l-5.043,0.007h0.137v2
		h4.863v-0.007c0.046,0.001,0.091,0.007,0.137,0.007c5.521,0,10-4.477,10-10C-51.429-258.43-55.573-262.761-60.801-263.086z"/>
	<polygon points="-76.587,-243.115 -74.817,-243.115 -74.387,-243.115 -72.377,-243.115 -78.791,-252.276 -80.429,-251.129 
		-76.218,-245.115 -77.988,-245.115 -80.429,-245.115 -79.157,-243.299 -78.045,-241.71 -72.067,-233.115 -70.429,-234.262 
		-76.406,-242.857 	"/>
</g>
<g>
	<rect x="14.997" y="-282.216" width="2" height="7.973"/>
	<rect x="-4.003" y="-263.302" width="7.973" height="2"/>
	<rect x="0.67" y="-274.568" transform="matrix(0.7071 0.7071 -0.7071 0.7071 -192.078 -83.4195)" width="7.974" height="2"/>
	<rect x="26.179" y="-277.55" transform="matrix(0.7071 0.7071 -0.7071 0.7071 -185.4788 -99.3434)" width="2" height="7.972"/>
	<path d="M45.509-256.426c-1.444-6.742-7.433-11.8-14.605-11.8c-2.185,0-4.258,0.47-6.127,1.313
		c-1.666-3.202-5.006-5.394-8.865-5.394c-5.522,0-10,4.477-10,9.999c0,2.46,0.898,4.702,2.373,6.442
		c-1.428,1.84-2.287,4.144-2.287,6.653c0,5.983,4.836,10.836,10.813,10.865v0.003h4.188v-2h-3.721l-0.457-0.003
		c-4.864-0.023-8.822-4.001-8.822-8.865c0-4.89,3.978-8.868,8.867-8.868c0.15,0,0.299,0.012,0.447,0.022l0.148,0.01l1.314,0.085
		l0.597-1.175c2.225-4.372,6.644-7.089,11.532-7.089c6.062,0,11.382,4.298,12.649,10.219l0.318,1.483l1.514,0.094
		c3.708,0.23,6.612,3.319,6.612,7.03c0,3.878-3.144,7.035-7.017,7.057c-0.042-0.003-0.079-0.005-0.117-0.005l-2.047,0.005h-3.819v2
		h5.819v-0.006c0.042,0.001,0.082,0.006,0.124,0.006c5.001,0,9.057-4.054,9.057-9.057C53.997-252.209,50.243-256.131,45.509-256.426
		z M17.589-260.043c-0.241-0.016-0.48-0.036-0.725-0.036c-2.766,0-5.281,1.041-7.2,2.743c-1.092-1.366-1.753-3.09-1.753-4.971
		c0-4.41,3.589-7.999,8-7.999c3.092,0,5.76,1.773,7.092,4.345C20.704-264.521,18.825-262.473,17.589-260.043z"/>
	<polygon points="29.839,-238.336 31.608,-238.336 32.039,-238.336 34.049,-238.336 27.635,-247.497 25.997,-246.35 
		30.208,-240.336 28.438,-240.336 25.997,-240.336 27.269,-238.52 28.381,-236.931 34.358,-228.336 35.997,-229.482 30.02,-238.078 
			"/>
</g>
<g>
	<path d="M145.094-258.722c-1.444-6.742-7.433-11.8-14.605-11.8c-1.799,0-3.521,0.32-5.118,0.904
		c-0.949-5.108-5.404-8.98-10.788-8.98c-0.413,0-0.819,0.027-1.222,0.071c0.744,1.112,1.179,2.448,1.179,3.886c0,3.865-3.134,7-7,7
		c-1.438,0-2.773-0.435-3.886-1.179c-0.044,0.401-0.071,0.809-0.071,1.222c0,3.712,1.845,6.987,4.661,8.979
		c-1.653,1.907-2.661,4.389-2.661,7.111c0,5.983,4.836,10.836,10.813,10.865v0.003h4.188v-2h-3.721l-0.457-0.003
		c-4.864-0.023-8.822-4.001-8.822-8.865c0-4.89,3.978-8.868,8.867-8.868c0.15,0,0.299,0.012,0.447,0.022l0.148,0.01l1.314,0.085
		l0.597-1.175c2.225-4.372,6.644-7.089,11.532-7.089c6.062,0,11.382,4.298,12.649,10.219l0.318,1.483l1.514,0.094
		c3.708,0.23,6.612,3.319,6.612,7.03c0,3.878-3.144,7.035-7.017,7.057c-0.042-0.003-0.079-0.005-0.117-0.005l-2.047,0.005h-3.819v2
		h5.819v-0.006c0.042,0.001,0.082,0.006,0.124,0.006c5.001,0,9.057-4.054,9.057-9.057
		C153.582-254.505,149.828-258.427,145.094-258.722z M117.174-262.339c-0.241-0.016-0.48-0.036-0.725-0.036
		c-2.537,0-4.865,0.876-6.715,2.334c-2.012-1.294-3.486-3.354-3.976-5.776c0.582,0.117,1.178,0.177,1.78,0.177c4.963,0,9-4.037,9-9
		c0-0.603-0.06-1.198-0.177-1.78c3.733,0.753,6.629,3.824,7.134,7.64C120.783-267.337,118.568-265.082,117.174-262.339z"/>
	<polygon points="129.424,-240.632 131.193,-240.632 131.624,-240.632 133.634,-240.632 127.22,-249.793 125.582,-248.646 
		129.793,-242.632 128.022,-242.632 125.582,-242.632 126.854,-240.815 127.966,-239.227 133.943,-230.632 135.582,-231.778 
		129.604,-240.374 	"/>
</g>
<g>
	<path d="M245.979-262.586c-1.596-7.445-8.207-13.029-16.127-13.029c-6.423,0-11.977,3.678-14.702,9.035
		c-0.266-0.018-0.53-0.04-0.8-0.04c-6.627,0-11.999,5.372-11.999,12c0,6.607,5.34,11.965,11.938,11.998v0.003h1.062v-2h-0.604
		l-0.447-0.003c-5.485-0.027-9.948-4.513-9.948-9.998c0-5.514,4.485-10,9.999-10c0.175,0,0.347,0.014,0.52,0.025l0.148,0.01
		l1.316,0.088l0.598-1.176c2.492-4.899,7.443-7.942,12.92-7.942c6.79,0,12.75,4.814,14.172,11.448l0.317,1.482l1.514,0.095
		c4.203,0.262,7.496,3.763,7.496,7.971c0,4.397-3.565,7.977-7.957,8c-0.05-0.003-0.093-0.005-0.137-0.007l-0.906,0.007v2h0.863
		v-0.007c0.046,0.001,0.091,0.007,0.137,0.007c5.521,0,10-4.477,10-10C255.351-257.93,251.206-262.261,245.979-262.586z"/>
	
		<rect x="214.785" y="-244.621" transform="matrix(-0.5736 -0.8191 0.8191 -0.5736 546.3454 -202.8599)" width="11.183" height="1.999"/>
	
		<rect x="232.76" y="-244.621" transform="matrix(-0.5736 -0.8191 0.8191 -0.5736 574.6309 -188.1368)" width="11.183" height="1.999"/>
	<polygon points="231.192,-239.615 232.962,-239.615 233.393,-239.615 235.402,-239.615 228.988,-248.776 227.351,-247.629 
		231.562,-241.615 229.791,-241.615 227.351,-241.615 228.622,-239.799 229.734,-238.21 234.351,-231.615 235.989,-232.762 
		231.373,-239.357 	"/>
</g>
<g>
	<rect x="320.826" y="-282.053" width="2" height="7.973"/>
	<rect x="301.826" y="-263.139" width="7.973" height="2"/>
	<rect x="306.499" y="-274.405" transform="matrix(0.7071 0.7071 -0.7071 0.7071 -102.3874 -299.6255)" width="7.974" height="2"/>
	<rect x="332.008" y="-277.387" transform="matrix(0.7071 0.7071 -0.7071 0.7071 -95.7882 -315.5495)" width="2" height="7.972"/>
	<path d="M351.338-256.263c-1.444-6.742-7.433-11.8-14.605-11.8c-2.185,0-4.258,0.47-6.126,1.313
		c-1.667-3.202-5.007-5.394-8.866-5.394c-5.522,0-10,4.477-10,9.999c0,2.46,0.899,4.702,2.373,6.442
		c-1.429,1.84-2.287,4.144-2.287,6.653c0,5.983,4.836,10.836,10.813,10.865v0.003h0.188v-2l-0.178-0.003
		c-4.864-0.023-8.822-4.001-8.822-8.865c0-4.89,3.978-8.868,8.867-8.868c0.15,0,0.299,0.012,0.447,0.022l0.148,0.01l1.314,0.085
		l0.597-1.175c2.225-4.372,6.644-7.089,11.532-7.089c6.062,0,11.382,4.298,12.649,10.219l0.318,1.483l1.514,0.094
		c3.708,0.23,6.612,3.319,6.612,7.03c0,3.878-3.144,7.035-7.017,7.057c-0.042-0.003-0.079-0.005-0.117-0.005l-0.866,0.005v2h0.819
		v-0.006c0.042,0.001,0.082,0.006,0.124,0.006c5.001,0,9.057-4.054,9.057-9.057C359.826-252.046,356.072-255.968,351.338-256.263z
		 M323.418-259.88c-0.241-0.016-0.48-0.036-0.725-0.036c-2.766,0-5.282,1.042-7.2,2.743c-1.092-1.367-1.753-3.09-1.753-4.971
		c0-4.41,3.589-7.999,8-7.999c3.091,0,5.76,1.773,7.091,4.345C326.533-264.358,324.653-262.31,323.418-259.88z"/>
	
		<rect x="321.248" y="-240.183" transform="matrix(-0.5736 -0.8191 0.8191 -0.5736 710.2439 -108.6707)" width="11.183" height="1.999"/>
	
		<rect x="339.222" y="-240.183" transform="matrix(-0.5736 -0.8191 0.8191 -0.5736 738.5294 -93.9475)" width="11.183" height="1.999"/>
	<polygon points="337.655,-235.177 339.425,-235.177 339.855,-235.177 341.865,-235.177 335.451,-244.338 333.813,-243.19 
		338.024,-237.177 336.254,-237.177 333.813,-237.177 335.085,-235.36 336.197,-233.771 340.813,-227.177 342.452,-228.323 
		337.836,-234.919 	"/>
</g>
<g>
	<path d="M453.176-259.221c-1.444-6.742-7.433-11.8-14.605-11.8c-1.799,0-3.522,0.32-5.118,0.904
		c-0.949-5.108-5.404-8.98-10.788-8.98c-0.413,0-0.819,0.027-1.222,0.071c0.744,1.112,1.179,2.448,1.179,3.886c0,3.865-3.134,7-7,7
		c-1.438,0-2.773-0.435-3.886-1.179c-0.044,0.401-0.071,0.809-0.071,1.222c0,3.712,1.845,6.987,4.661,8.979
		c-1.653,1.907-2.661,4.389-2.661,7.111c0,5.983,4.836,10.836,10.813,10.865v0.003h0.188v-2l-0.178-0.003
		c-4.864-0.023-8.822-4.001-8.822-8.865c0-4.89,3.978-8.868,8.867-8.868c0.15,0,0.299,0.012,0.447,0.022l0.148,0.01l1.314,0.085
		l0.597-1.175c2.225-4.372,6.644-7.089,11.532-7.089c6.062,0,11.382,4.298,12.649,10.219l0.318,1.483l1.514,0.094
		c3.708,0.23,6.612,3.319,6.612,7.03c0,3.878-3.144,7.035-7.017,7.057c-0.042-0.003-0.079-0.005-0.117-0.005l-0.866,0.005v2h0.819
		v-0.006c0.042,0.001,0.082,0.006,0.124,0.006c5.001,0,9.057-4.054,9.057-9.057C461.664-255.004,457.91-258.926,453.176-259.221z
		 M425.256-262.838c-0.241-0.016-0.48-0.036-0.725-0.036c-2.537,0-4.865,0.876-6.715,2.334c-2.012-1.294-3.487-3.354-3.976-5.776
		c0.582,0.117,1.178,0.177,1.78,0.177c4.963,0,9-4.037,9-9c0-0.603-0.06-1.198-0.177-1.78c3.733,0.753,6.629,3.824,7.133,7.641
		C428.866-267.836,426.651-265.58,425.256-262.838z"/>
	
		<rect x="423.085" y="-243.141" transform="matrix(-0.5736 -0.8191 0.8191 -0.5736 872.9213 -29.91)" width="11.183" height="1.999"/>
	
		<rect x="441.059" y="-243.141" transform="matrix(-0.5736 -0.8191 0.8191 -0.5736 901.2068 -15.1869)" width="11.183" height="1.999"/>
	<polygon points="439.492,-238.135 441.262,-238.135 441.692,-238.135 443.702,-238.135 437.288,-247.296 435.65,-246.148 
		439.861,-240.135 438.091,-240.135 435.65,-240.135 436.922,-238.318 438.034,-236.729 442.65,-230.135 444.289,-231.281 
		439.673,-237.877 	"/>
</g>
<g>
	<g>
		<path d="M42.613-172.766c-1.596-7.445-8.207-13.029-16.127-13.029c-6.423,0-11.977,3.678-14.702,9.035
			c-0.266-0.018-0.53-0.04-0.8-0.04c-6.627,0-11.999,5.372-11.999,12c0,6.607,5.34,11.965,11.938,11.998v0.003h2.062v-2h-1.604
			l-0.447-0.003c-5.485-0.027-9.948-4.513-9.948-9.998c0-5.514,4.485-10,9.999-10c0.175,0,0.347,0.014,0.52,0.025l0.148,0.01
			l1.316,0.088l0.598-1.176c2.492-4.899,7.443-7.942,12.92-7.942c6.79,0,12.75,4.814,14.172,11.448l0.317,1.482l1.514,0.095
			c4.203,0.262,7.496,3.763,7.496,7.971c0,4.397-3.565,7.977-7.957,8c-0.05-0.003-0.093-0.005-0.137-0.007l-2.043,0.007h-2.863v2
			h4.863v-0.007c0.046,0.001,0.091,0.007,0.137,0.007c5.521,0,10-4.477,10-10C51.985-168.109,47.841-172.44,42.613-172.766z"/>
	</g>
	<g>
		<circle cx="17.485" cy="-159.223" r="1.5"/>
	</g>
	<g>
		<circle cx="21.485" cy="-153.299" r="1.5"/>
	</g>
	<g>
		<circle cx="29.485" cy="-153.299" r="1.5"/>
	</g>
	<g>
		<circle cx="25.485" cy="-159.223" r="1.5"/>
	</g>
	<g>
		<circle cx="33.485" cy="-159.223" r="1.5"/>
	</g>
	<g>
		<circle cx="17.485" cy="-147.277" r="1.5"/>
	</g>
	<g>
		<circle cx="25.485" cy="-147.277" r="1.5"/>
	</g>
	<g>
		<circle cx="33.485" cy="-147.277" r="1.5"/>
	</g>
</g>
<g>
	<g>
		<rect x="118.399" y="-188.243" width="2" height="7.973"/>
	</g>
	<g>
		<rect x="99.399" y="-169.329" width="7.973" height="2"/>
	</g>
	<g>
		<rect x="104.072" y="-180.596" transform="matrix(0.7071 0.7071 -0.7071 0.7071 -95.3434 -129.012)" width="7.974" height="2"/>
	</g>
	<g>
		<rect x="129.581" y="-183.578" transform="matrix(0.7071 0.7071 -0.7071 0.7071 -88.7443 -144.936)" width="2" height="7.972"/>
	</g>
	<g>
		<path d="M148.911-162.453c-1.444-6.742-7.433-11.8-14.605-11.8c-2.185,0-4.258,0.47-6.127,1.313
			c-1.666-3.202-5.006-5.394-8.865-5.394c-5.522,0-10,4.477-10,9.999c0,2.46,0.898,4.702,2.373,6.442
			c-1.428,1.84-2.287,4.144-2.287,6.653c0,5.983,4.836,10.836,10.813,10.865v0.003h1.188v-2h-0.721l-0.457-0.003
			c-4.864-0.023-8.822-4.001-8.822-8.865c0-4.89,3.978-8.868,8.867-8.868c0.15,0,0.299,0.012,0.447,0.022l0.148,0.01l1.314,0.085
			l0.597-1.175c2.225-4.372,6.644-7.089,11.532-7.089c6.062,0,11.382,4.298,12.649,10.219l0.318,1.483l1.514,0.094
			c3.708,0.23,6.612,3.319,6.612,7.03c0,3.878-3.144,7.035-7.017,7.057c-0.042-0.003-0.079-0.005-0.117-0.005l-2.047,0.005h-1.819v2
			h3.819v-0.006c0.042,0.001,0.082,0.006,0.124,0.006c5.001,0,9.057-4.054,9.057-9.057
			C157.399-158.236,153.646-162.158,148.911-162.453z M120.991-166.07c-0.241-0.016-0.48-0.036-0.725-0.036
			c-2.766,0-5.281,1.042-7.2,2.743c-1.092-1.367-1.753-3.09-1.753-4.971c0-4.41,3.589-7.999,8-7.999c3.092,0,5.76,1.773,7.092,4.345
			C124.106-170.549,122.228-168.5,120.991-166.07z"/>
	</g>
	<g>
		<circle cx="124.889" cy="-150.859" r="1.5"/>
	</g>
	<g>
		<circle cx="128.889" cy="-144.859" r="1.5"/>
	</g>
	<g>
		<circle cx="136.889" cy="-144.859" r="1.5"/>
	</g>
	<g>
		<circle cx="132.889" cy="-150.859" r="1.5"/>
	</g>
	<g>
		<circle cx="140.889" cy="-150.859" r="1.5"/>
	</g>
	<g>
		<circle cx="124.889" cy="-138.838" r="1.5"/>
	</g>
	<g>
		<circle cx="132.889" cy="-138.838" r="1.5"/>
	</g>
	<g>
		<circle cx="140.889" cy="-138.838" r="1.5"/>
	</g>
</g>
<g>
	<g>
		<path d="M244.862-166.409c-1.444-6.742-7.433-11.8-14.605-11.8c-1.799,0-3.521,0.32-5.118,0.904
			c-0.949-5.108-5.404-8.98-10.788-8.98c-0.413,0-0.819,0.027-1.222,0.071c0.744,1.112,1.179,2.448,1.179,3.886c0,3.865-3.134,7-7,7
			c-1.438,0-2.773-0.435-3.886-1.179c-0.044,0.401-0.071,0.809-0.071,1.222c0,3.712,1.845,6.987,4.661,8.979
			c-1.653,1.907-2.661,4.389-2.661,7.111c0,5.983,4.836,10.836,10.813,10.865v0.003h1.188v-2h-0.721l-0.457-0.003
			c-4.864-0.023-8.822-4.001-8.822-8.865c0-4.89,3.978-8.868,8.867-8.868c0.15,0,0.299,0.012,0.447,0.022l0.148,0.01l1.314,0.085
			l0.597-1.175c2.225-4.372,6.644-7.089,11.532-7.089c6.062,0,11.382,4.298,12.649,10.219l0.318,1.483l1.514,0.094
			c3.708,0.23,6.612,3.319,6.612,7.03c0,3.878-3.144,7.035-7.017,7.057c-0.042-0.003-0.079-0.005-0.117-0.005l-2.047,0.005h-1.819v2
			h3.819v-0.006c0.042,0.001,0.082,0.006,0.124,0.006c5.001,0,9.057-4.054,9.057-9.057
			C253.351-162.192,249.597-166.114,244.862-166.409z M216.942-170.026c-0.241-0.016-0.48-0.036-0.725-0.036
			c-2.537,0-4.865,0.876-6.715,2.334c-2.012-1.294-3.486-3.354-3.976-5.776c0.582,0.117,1.178,0.177,1.78,0.177c4.963,0,9-4.037,9-9
			c0-0.603-0.06-1.198-0.177-1.78c3.733,0.753,6.629,3.824,7.134,7.64C220.552-175.024,218.337-172.77,216.942-170.026z"/>
	</g>
	<g>
		<circle cx="220.851" cy="-154.816" r="1.5"/>
	</g>
	<g>
		<circle cx="224.851" cy="-148.816" r="1.5"/>
	</g>
	<g>
		<circle cx="232.851" cy="-148.816" r="1.5"/>
	</g>
	<g>
		<circle cx="228.851" cy="-154.816" r="1.5"/>
	</g>
	<g>
		<circle cx="236.851" cy="-154.816" r="1.5"/>
	</g>
	<g>
		<circle cx="220.851" cy="-142.795" r="1.5"/>
	</g>
	<g>
		<circle cx="228.851" cy="-142.795" r="1.5"/>
	</g>
	<g>
		<circle cx="236.851" cy="-142.795" r="1.5"/>
	</g>
</g>
<g>
	<path d="M556.027-265.295c-1.596-7.445-8.207-13.029-16.127-13.029c-6.423,0-11.977,3.678-14.702,9.035
		c-0.266-0.018-0.53-0.04-0.8-0.04c-6.627,0-11.999,5.372-11.999,12c0,6.607,5.34,11.965,11.938,11.998v0.003h2.062v-2h-1.604
		l-0.447-0.003c-5.485-0.027-9.948-4.513-9.948-9.998c0-5.514,4.485-10,9.999-10c0.175,0,0.347,0.014,0.52,0.025l0.148,0.01
		l1.316,0.088l0.598-1.176c2.492-4.899,7.443-7.942,12.92-7.942c6.79,0,12.75,4.814,14.172,11.448l0.317,1.482l1.514,0.095
		c4.203,0.262,7.496,3.763,7.496,7.971c0,4.397-3.565,7.977-7.957,8c-0.05-0.003-0.093-0.005-0.137-0.007l-2.043,0.007h-2.863v2
		h4.863v-0.007c0.046,0.001,0.091,0.007,0.137,0.007c5.521,0,10-4.477,10-10C565.399-260.639,561.255-264.97,556.027-265.295z"/>
	<circle cx="530.399" cy="-237.824" r="1.5"/>
	<circle cx="538.399" cy="-231.824" r="1.5"/>
	<circle cx="546.399" cy="-235.824" r="1.5"/>
	<rect x="529.399" y="-254.3" width="2" height="11.976"/>
	<polygon points="539.399,-236.359 539.399,-238.3 539.399,-250.3 537.399,-250.3 537.399,-238.3 537.399,-236.359 
		537.399,-236.324 539.399,-236.324 	"/>
	<polygon points="547.399,-240.547 547.399,-242.3 547.399,-254.3 545.399,-254.3 545.399,-242.3 545.399,-240.547 
		545.399,-240.324 547.399,-240.324 	"/>
</g>
<g>
	<rect x="-192.35" y="-193.682" width="2" height="7.973"/>
	<rect x="-211.35" y="-174.768" width="7.973" height="2"/>
	<rect x="-206.677" y="-186.034" transform="matrix(0.7071 0.7071 -0.7071 0.7071 -190.2053 89.1278)" width="7.974" height="2"/>
	<rect x="-181.168" y="-189.016" transform="matrix(0.7071 0.7071 -0.7071 0.7071 -183.6061 73.2039)" width="2" height="7.972"/>
	<path d="M-161.838-167.892c-1.444-6.742-7.433-11.8-14.605-11.8c-2.185,0-4.258,0.47-6.126,1.313
		c-1.667-3.202-5.007-5.394-8.866-5.394c-5.522,0-10,4.477-10,9.999c0,2.46,0.899,4.702,2.373,6.442
		c-1.429,1.84-2.287,4.144-2.287,6.653c0,5.983,4.836,10.836,10.813,10.865v0.003h1.188v-2h-0.721l-0.457-0.003
		c-4.864-0.023-8.822-4.001-8.822-8.865c0-4.89,3.978-8.868,8.867-8.868c0.15,0,0.299,0.012,0.447,0.022l0.148,0.01l1.314,0.085
		l0.597-1.175c2.225-4.372,6.644-7.089,11.532-7.089c6.062,0,11.382,4.298,12.649,10.219l0.318,1.483l1.514,0.094
		c3.708,0.23,6.612,3.319,6.612,7.03c0,3.878-3.144,7.035-7.017,7.057c-0.042-0.003-0.079-0.005-0.117-0.005l-2.047,0.005h-0.819v2
		h2.819v-0.006c0.042,0.001,0.082,0.006,0.124,0.006c5.001,0,9.057-4.054,9.057-9.057
		C-153.35-163.675-157.104-167.597-161.838-167.892z M-189.758-171.509c-0.241-0.016-0.48-0.036-0.725-0.036
		c-2.766,0-5.282,1.041-7.2,2.743c-1.092-1.366-1.753-3.09-1.753-4.971c0-4.41,3.589-7.999,8-7.999c3.091,0,5.76,1.773,7.091,4.345
		C-186.643-175.986-188.522-173.938-189.758-171.509z"/>
	<circle cx="-185.359" cy="-141.321" r="1.5"/>
	<circle cx="-177.359" cy="-135.321" r="1.5"/>
	<circle cx="-169.359" cy="-139.321" r="1.5"/>
	<rect x="-186.359" y="-157.797" width="2" height="11.976"/>
	<polygon points="-176.359,-139.856 -176.359,-141.797 -176.359,-153.797 -178.359,-153.797 -178.359,-141.797 -178.359,-139.856 
		-178.359,-139.821 -176.359,-139.821 	"/>
	<polygon points="-168.359,-144.044 -168.359,-145.797 -168.359,-157.797 -170.359,-157.797 -170.359,-145.797 -170.359,-144.044 
		-170.359,-143.821 -168.359,-143.821 	"/>
</g>
<g>
	<path d="M-61.235-170.89c-1.444-6.742-7.433-11.8-14.605-11.8c-1.799,0-3.522,0.32-5.118,0.904
		c-0.949-5.108-5.404-8.98-10.788-8.98c-0.413,0-0.819,0.027-1.222,0.071c0.744,1.112,1.179,2.448,1.179,3.886c0,3.865-3.134,7-7,7
		c-1.438,0-2.773-0.435-3.886-1.179c-0.044,0.401-0.071,0.809-0.071,1.222c0,3.712,1.845,6.987,4.661,8.979
		c-1.653,1.907-2.661,4.389-2.661,7.111c0,5.983,4.836,10.836,10.813,10.865v0.003h1.188v-2h-0.721l-0.457-0.003
		c-4.864-0.023-8.822-4.001-8.822-8.865c0-4.89,3.978-8.868,8.867-8.868c0.15,0,0.299,0.012,0.447,0.022l0.148,0.01l1.314,0.085
		l0.597-1.175c2.225-4.372,6.644-7.089,11.532-7.089c6.062,0,11.382,4.298,12.649,10.219l0.318,1.483l1.514,0.094
		c3.708,0.23,6.612,3.319,6.612,7.03c0,3.878-3.144,7.035-7.017,7.057c-0.042-0.003-0.079-0.005-0.117-0.005l-2.047,0.005h-0.819v2
		h2.819v-0.006c0.042,0.001,0.082,0.006,0.124,0.006c5.001,0,9.057-4.054,9.057-9.057C-52.747-166.673-56.501-170.595-61.235-170.89
		z M-89.155-174.507c-0.241-0.016-0.48-0.036-0.725-0.036c-2.537,0-4.865,0.876-6.715,2.334c-2.012-1.294-3.487-3.354-3.976-5.776
		c0.582,0.117,1.178,0.177,1.78,0.177c4.963,0,9-4.037,9-9c0-0.603-0.06-1.198-0.177-1.78c3.733,0.753,6.629,3.824,7.133,7.64
		C-85.545-179.505-87.76-177.25-89.155-174.507z"/>
	<circle cx="-84.747" cy="-144.315" r="1.5"/>
	<circle cx="-76.747" cy="-138.315" r="1.5"/>
	<circle cx="-68.747" cy="-142.315" r="1.5"/>
	<rect x="-85.747" y="-160.791" width="2" height="11.976"/>
	<polygon points="-75.747,-142.851 -75.747,-144.791 -75.747,-156.791 -77.747,-156.791 -77.747,-144.791 -77.747,-142.851 
		-77.747,-142.815 -75.747,-142.815 	"/>
	<polygon points="-67.747,-147.038 -67.747,-148.791 -67.747,-160.791 -69.747,-160.791 -69.747,-148.791 -69.747,-147.038 
		-69.747,-146.815 -67.747,-146.815 	"/>
</g>
<g>
	<rect x="-209.35" y="-66.449" width="56" height="2"/>
	<rect x="-205.35" y="-60.449" width="50" height="2"/>
	<rect x="-199.35" y="-54.449" width="36" height="2"/>
	<rect x="-207.35" y="-72.449" width="52" height="2"/>
	<path d="M-195.476-80.454c0.175,0,0.347,0.014,0.519,0.025l0.149,0.01l1.316,0.088l0.598-1.176
		c2.493-4.899,7.443-7.942,12.92-7.942c6.79,0,12.75,4.814,14.171,11.448l0.318,1.482l1.514,0.095
		c1.207,0.075,2.335,0.425,3.336,0.975h3.286c-1.678-1.703-3.957-2.813-6.498-2.971c-1.596-7.445-8.207-13.029-16.127-13.029
		c-6.423,0-11.977,3.678-14.702,9.035c-0.266-0.018-0.53-0.04-0.8-0.04c-4.843,0-9.004,2.874-10.9,7.005h2.251
		C-202.394-78.436-199.169-80.454-195.476-80.454z"/>
</g>
<g>
	<rect x="-88.247" y="-93.964" width="2" height="7.973"/>
	<rect x="-107.247" y="-75.05" width="7.973" height="2"/>
	<rect x="-102.574" y="-86.316" transform="matrix(0.7071 0.7071 -0.7071 0.7071 -89.2032 44.7229)" width="7.974" height="2"/>
	<rect x="-77.065" y="-89.298" transform="matrix(0.7071 0.7071 -0.7071 0.7071 -82.6041 28.7989)" width="2" height="7.972"/>
	<rect x="-98.247" y="-60.09" width="50" height="2"/>
	<rect x="-94.247" y="-54.09" width="44" height="2"/>
	<rect x="-88.247" y="-49.09" width="30" height="2"/>
	<rect x="-96.247" y="-66.09" width="46" height="2"/>
	<path d="M-95.339-68.09h0.771h1.927h1.012c1.472-1.087,3.283-1.737,5.249-1.737c0.15,0,0.299,0.012,0.447,0.022l0.148,0.01
		l1.314,0.085l0.597-1.175c2.225-4.372,6.644-7.089,11.532-7.089c5.945,0,11.168,4.139,12.563,9.884h2.043v-0.084
		c-1.444-6.742-7.433-11.8-14.605-11.8c-2.185,0-4.258,0.47-6.126,1.313c-1.667-3.202-5.007-5.394-8.866-5.394
		c-5.522,0-10,4.477-10,9.999C-97.333-71.813-96.585-69.755-95.339-68.09z M-87.333-82.054c3.091,0,5.76,1.773,7.091,4.345
		c-2.298,1.44-4.178,3.488-5.413,5.918c-0.241-0.016-0.48-0.036-0.725-0.036c-2.764,0-5.274,1.045-7.189,2.745
		c-1.097-1.366-1.764-3.089-1.764-4.973C-95.333-78.465-91.744-82.054-87.333-82.054z"/>
</g>
<g>
	<rect x="0.497" y="-63.527" width="50" height="2"/>
	<rect x="4.497" y="-57.527" width="44" height="2"/>
	<rect x="10.497" y="-52.527" width="30" height="2"/>
	<rect x="2.497" y="-69.527" width="46" height="2"/>
	<path d="M4.14-71.527h0.037h1.884h1.055c1.472-1.087,3.283-1.737,5.249-1.737c0.15,0,0.299,0.012,0.447,0.022l0.148,0.01
		l1.314,0.085l0.597-1.175c2.225-4.372,6.644-7.089,11.532-7.089c5.945,0,11.168,4.139,12.563,9.884h2.043v-0.084
		c-1.444-6.742-7.433-11.8-14.605-11.8c-1.799,0-3.521,0.32-5.117,0.903c-0.945-5.111-5.402-8.987-10.789-8.987
		c-0.413,0-0.819,0.027-1.222,0.071c0.744,1.112,1.179,2.448,1.179,3.886c0,3.865-3.134,7-7,7c-1.438,0-2.773-0.435-3.886-1.179
		c-0.044,0.401-0.071,0.809-0.071,1.222C-0.503-76.791,1.333-73.521,4.14-71.527z M3.454-78.538c4.963,0,9-4.037,9-9
		c0-0.603-0.06-1.198-0.177-1.78c3.735,0.753,6.633,3.828,7.134,7.647c-2.712,1.443-4.927,3.699-6.322,6.442
		c-0.241-0.016-0.48-0.036-0.725-0.036c-2.534,0-4.855,0.879-6.701,2.335c-2.02-1.293-3.5-3.356-3.989-5.785
		C2.256-78.598,2.852-78.538,3.454-78.538z"/>
</g>
<g>
	<path d="M132.389-60.514h-19.474l-0.578-0.003c-5.485-0.027-9.948-4.513-9.948-9.998c0-5.514,4.485-10,9.999-10
		c0.175,0,0.347,0.014,0.519,0.025l0.149,0.01l1.316,0.088l0.598-1.176c2.493-4.899,7.443-7.942,12.92-7.942
		c6.79,0,12.75,4.814,14.171,11.448l0.318,1.482l1.514,0.095c1.822,0.113,3.463,0.845,4.746,1.971h2.732
		c-1.707-2.262-4.348-3.78-7.354-3.967c-1.596-7.445-8.207-13.029-16.127-13.029c-6.423,0-11.977,3.678-14.702,9.035
		c-0.266-0.018-0.53-0.04-0.8-0.04c-6.627,0-11.999,5.372-11.999,12c0,6.607,5.34,11.965,11.938,11.998v0.003h20.062
		c2.205,0,4,1.794,4,4s-1.795,4-4,4v2c3.314,0,6-2.686,6-6C138.389-57.827,135.703-60.514,132.389-60.514z"/>
	<path d="M136.389-64.514H120.4v2h15.988c3.314,0,6-2.687,6-6c0-3.314-2.686-6-6-6v2c2.205,0,4,1.794,4,4
		S138.594-64.514,136.389-64.514z"/>
	<path d="M149.389-70.514c1.654,0,3,1.346,3,3s-1.346,3-3,3c-0.043,0-0.083-0.011-0.126-0.013H144.4
		c0.003,0.005,0.009,0.008,0.012,0.013h-0.023v2h5.5v-0.051c2.523-0.254,4.5-2.358,4.5-4.949c0-2.762-2.238-5-5-5V-70.514z"/>
	<path d="M153.389-60.514h-13v2h9.022c-0.004,0.005-0.008,0.008-0.011,0.013h3.862c0.043-0.002,0.083-0.013,0.126-0.013
		c1.654,0,3,1.346,3,3s-1.346,3-3,3v2c2.762,0,5-2.238,5-5S156.15-60.514,153.389-60.514z"/>
	<rect x="114.389" y="-64.514" width="4" height="2"/>
</g>
<path d="M-75.173-459.617c6.95,1.305,12.226,7.419,12.226,14.742c0,8.272-6.729,15.002-15,15.002c-6.79,0-12.531-4.49-14.366-10.728
	c1.398,0.461,2.867,0.698,4.366,0.698c7.72,0,14-6.281,14-14.001C-73.947-455.888-74.371-457.832-75.173-459.617 M-77.947-461.874
	c-0.338,0-0.668,0.031-1,0.051c1.861,2.113,3,4.881,3,7.92c0,6.627-5.372,12.001-12,12.001c-2.599,0-4.998-0.835-6.963-2.239
	c0.387,9.047,7.821,16.269,16.963,16.269c9.39,0,17-7.612,17-17.002S-68.558-461.874-77.947-461.874L-77.947-461.874z"/>
<g>
	<path d="M-181.343-456.879c-7.18,0-13,5.819-13,12.999c0,7.181,5.82,13.002,13,13.002s13-5.821,13-13.002
		C-168.343-451.06-174.163-456.879-181.343-456.879z M-181.343-432.878c-6.065,0-11-4.936-11-11.002c0-6.064,4.935-10.999,11-10.999
		s11,4.935,11,10.999C-170.343-437.813-175.277-432.878-181.343-432.878z"/>
	<rect x="-182.35" y="-469.873" width="2" height="10"/>
	<rect x="-182.35" y="-427.873" width="2" height="10"/>
	<rect x="-207.343" y="-444.873" width="9.993" height="2"/>
	<rect x="-165.35" y="-444.873" width="10.007" height="2"/>
	<rect x="-167.65" y="-463.787" transform="matrix(0.7071 0.7071 -0.7071 0.7071 -373.0775 -16.4764)" width="2" height="10.409"/>
	
		<rect x="-197.058" y="-434.378" transform="matrix(-0.7071 -0.7071 0.7071 -0.7071 -31.2216 -871.2791)" width="2" height="10.41"/>
	<rect x="-201.259" y="-459.578" transform="matrix(0.7071 0.7071 -0.7071 0.7071 -381.6863 4.317)" width="10.409" height="2"/>
	<rect x="-171.85" y="-430.168" transform="matrix(-0.7072 -0.7071 0.7071 -0.7072 18.9583 -850.4849)" width="10.41" height="2"/>
</g>
<g>
	<rect x="216.823" y="-99.012" width="2" height="7.973"/>
	<rect x="197.851" y="-80.025" width="7.973" height="2"/>
	<rect x="202.576" y="-91.244" transform="matrix(0.7071 0.7071 -0.7071 0.7071 -3.3112 -172.4943)" width="7.974" height="2"/>
	<rect x="228.085" y="-94.226" transform="matrix(0.7071 0.7071 -0.7071 0.7071 3.2879 -188.4183)" width="2" height="7.972"/>
	<path d="M231.851-57.012l0.005-0.007h-12.536l-0.594-0.003c-4.864-0.024-8.822-4.001-8.822-8.865c0-4.89,3.978-8.868,8.867-8.868
		c0.15,0,0.299,0.012,0.447,0.021l0.148,0.011l1.314,0.085l0.597-1.174c2.225-4.373,6.644-7.09,11.532-7.09
		c5.916,0,11.114,4.099,12.54,9.8h2.065c-1.444-6.742-7.433-11.8-14.605-11.8c-2.185,0-4.258,0.47-6.126,1.313
		c-1.667-3.202-5.007-5.394-8.866-5.394c-5.522,0-10,4.477-10,9.999c0,2.46,0.899,4.702,2.373,6.442
		c-1.429,1.84-2.287,4.144-2.287,6.653c0,5.983,4.836,10.836,10.813,10.865v0.003h13.135v0.007c2.205,0,4,1.794,4,4s-1.795,4-4,4v2
		c3.314,0,6-2.686,6-6C237.851-54.325,235.165-57.012,231.851-57.012z M217.817-86.981c3.091,0,5.76,1.773,7.091,4.345
		c-2.298,1.439-4.178,3.488-5.413,5.918c-0.241-0.016-0.48-0.036-0.725-0.036c-2.766,0-5.282,1.042-7.2,2.743
		c-1.092-1.367-1.753-3.09-1.753-4.971C209.817-83.393,213.406-86.981,217.817-86.981z"/>
	<path d="M235.851-61.012h-9.988v2h9.988c3.314,0,6-2.687,6-6c0-3.314-2.686-6-6-6v2c2.205,0,4,1.794,4,4
		S238.056-61.012,235.851-61.012z"/>
	<path d="M243.874-61.012h-0.023v2h5.5v-0.051c2.523-0.254,4.5-2.358,4.5-4.949c0-2.762-2.238-5-5-5v2c1.654,0,3,1.346,3,3
		s-1.346,3-3,3c-0.043,0-0.083-0.011-0.126-0.013h-4.862C243.865-61.02,243.871-61.016,243.874-61.012z"/>
	<path d="M252.851-57.012h-13v2h9.022c-0.004,0.004-0.008,0.008-0.011,0.013h3.862c0.043-0.002,0.083-0.013,0.126-0.013
		c1.654,0,3,1.346,3,3s-1.346,3-3,3v2c2.762,0,5-2.238,5-5S255.612-57.012,252.851-57.012z"/>
	<rect x="219.851" y="-61.012" width="4" height="2"/>
</g>
<g>
	<path d="M331.813-59.018l0.005-0.007h-12.536l-0.594-0.003c-4.864-0.024-8.822-4.001-8.822-8.865c0-4.89,3.978-8.868,8.867-8.868
		c0.15,0,0.299,0.012,0.447,0.021l0.148,0.011l1.314,0.085l0.597-1.174c2.225-4.373,6.644-7.09,11.532-7.09
		c5.916,0,11.114,4.099,12.54,9.8h2.065c-1.444-6.742-7.433-11.8-14.605-11.8c-1.806,0-3.536,0.322-5.138,0.91
		c-0.938-5.123-5.4-9.01-10.794-9.01c-0.413,0-0.819,0.027-1.222,0.071c0.744,1.112,1.179,2.448,1.179,3.886c0,3.865-3.134,7-7,7
		c-1.438,0-2.773-0.435-3.886-1.179c-0.044,0.401-0.071,0.809-0.071,1.222c0,3.725,1.858,7.009,4.69,8.998
		c-1.655,1.907-2.665,4.392-2.665,7.116c0,5.983,4.836,10.836,10.813,10.865v0.003h13.135v0.007c2.205,0,4,1.794,4,4s-1.795,4-4,4v2
		c3.314,0,6-2.686,6-6C337.813-56.331,335.127-59.018,331.813-59.018z M308.017-82.227c0.582,0.117,1.178,0.177,1.78,0.177
		c4.963,0,9-4.037,9-9c0-0.603-0.06-1.198-0.177-1.78c3.744,0.755,6.646,3.842,7.138,7.674c-2.702,1.444-4.909,3.696-6.301,6.432
		c-0.241-0.016-0.48-0.036-0.725-0.036c-2.535,0-4.861,0.875-6.71,2.33C309.994-77.723,308.508-79.791,308.017-82.227z"/>
	<path d="M335.813-63.018h-9.988v2h9.988c3.314,0,6-2.687,6-6c0-3.314-2.686-6-6-6v2c2.205,0,4,1.794,4,4
		S338.018-63.018,335.813-63.018z"/>
	<path d="M343.836-63.018h-0.023v2h5.5v-0.051c2.523-0.254,4.5-2.358,4.5-4.949c0-2.762-2.238-5-5-5v2c1.654,0,3,1.346,3,3
		s-1.346,3-3,3c-0.043,0-0.083-0.011-0.126-0.013h-4.862C343.827-63.025,343.833-63.021,343.836-63.018z"/>
	<path d="M352.813-59.018h-13v2h9.022c-0.004,0.004-0.008,0.008-0.011,0.013h3.862c0.043-0.002,0.083-0.013,0.126-0.013
		c1.654,0,3,1.346,3,3s-1.346,3-3,3v2c2.762,0,5-2.238,5-5S355.574-59.018,352.813-59.018z"/>
	<rect x="319.813" y="-63.018" width="4" height="2"/>
</g>
<g>
	<rect x="432.705" y="-96.449" width="2" height="10"/>
	<rect x="407.712" y="-71.449" width="9.993" height="2"/>
	<rect x="447.405" y="-90.363" transform="matrix(0.7071 0.7071 -0.7071 0.7071 71.1184 -342.0125)" width="2" height="10.409"/>
	<rect x="413.796" y="-86.154" transform="matrix(0.7071 0.7071 -0.7071 0.7071 62.5096 -321.2191)" width="10.409" height="2"/>
	<path d="M437.705-56.449h-24v2h24c2.205,0,4,1.794,4,4s-1.795,4-4,4v2c3.314,0,6-2.686,6-6
		C443.705-53.763,441.02-56.449,437.705-56.449z"/>
	<path d="M449.729-60.449h-0.023v2h5.5V-58.5c2.523-0.254,4.5-2.358,4.5-4.949c0-2.762-2.238-5-5-5v2c1.654,0,3,1.346,3,3
		s-1.346,3-3,3c-0.043,0-0.083-0.011-0.126-0.013h-4.862C449.72-60.457,449.726-60.453,449.729-60.449z"/>
	<path d="M458.705-56.449h-13v2h9.022c-0.004,0.004-0.008,0.008-0.011,0.013h3.862c0.043-0.002,0.083-0.013,0.126-0.013
		c1.654,0,3,1.346,3,3s-1.346,3-3,3v2c2.762,0,5-2.238,5-5S461.467-56.449,458.705-56.449z"/>
	<path d="M425.414-60.449h-11.709v2h12.012h0.822h15.166c3.314,0,6-2.687,6-6c0-3.314-2.686-6-6-6v2c2.205,0,4,1.794,4,4
		s-1.795,4-4,4h-12.538c-3.802-1.734-6.455-5.563-6.455-10.007c0-6.064,4.935-10.999,11-10.999c5.384,0,9.868,3.891,10.81,9.006
		h2.021c-0.961-6.23-6.331-11.006-12.831-11.006c-7.18,0-13,5.819-13,12.999C420.712-66.431,422.542-62.834,425.414-60.449z"/>
</g>
<g>
	<path d="M537.932-63.006h-24v2h24c2.205,0,4,1.794,4,4s-1.795,4-4,4v2c3.314,0,6-2.686,6-6
		C543.932-60.319,541.246-63.006,537.932-63.006z"/>
	<path d="M555.432-65.006v-0.051c2.523-0.254,4.5-2.358,4.5-4.949c0-2.762-2.238-5-5-5v2c1.654,0,3,1.346,3,3s-1.346,3-3,3
		c-0.043,0-0.083-0.011-0.126-0.013h-4.862c0.004,0.005,0.009,0.009,0.012,0.013h-0.023v2H555.432z"/>
	<path d="M558.932-63.006h-13v2h9.022c-0.003,0.004-0.007,0.008-0.011,0.013h3.862c0.043-0.002,0.083-0.013,0.126-0.013
		c1.654,0,3,1.346,3,3s-1.346,3-3,3v2c2.762,0,5-2.238,5-5S561.693-63.006,558.932-63.006z"/>
	<path d="M526.766-65.006h15.166c3.314,0,6-2.687,6-6c0-3.314-2.686-6-6-6v2c2.205,0,4,1.794,4,4s-1.795,4-4,4h-12.586
		c-2.596-1.188-4.658-3.339-5.69-6.034c0.849,0.204,1.724,0.309,2.612,0.309c6.168,0,11.187-5.019,11.187-11.188
		c0-1.276-0.22-2.532-0.64-3.717c4.046,1.102,7.168,4.459,7.937,8.63h2.018c-0.964-6.237-6.338-11.016-12.846-11.016
		c-0.259,0-0.511,0.024-0.766,0.039c1.425,1.618,2.297,3.737,2.297,6.063c0,5.072-4.112,9.188-9.187,9.188
		c-1.988,0-3.826-0.641-5.33-1.715c0.162,3.801,1.962,7.165,4.699,9.44h-11.705v2h12.012H526.766z"/>
</g>
<g>
	<path d="M-181.85,22.188h-20c-1.103,0-2-0.897-2-2s0.897-2,2-2h3.445h0.555v-2h-4c-2.209,0-4,1.791-4,4s1.791,4,4,4h20
		c2.205,0,4,1.794,4,4s-1.795,4-4,4v2c3.314,0,6-2.686,6-6C-175.85,24.874-178.535,22.188-181.85,22.188z"/>
	<path d="M-179.85,6.188v2c2.205,0,4,1.794,4,4s-1.795,4-4,4h-15.988v2h15.988c3.314,0,6-2.687,6-6
		C-173.85,8.873-176.535,6.188-179.85,6.188z"/>
	<path d="M-173.85,18.188v2h5.5v-0.051c2.523-0.254,4.5-2.358,4.5-4.949c0-2.762-2.238-5-5-5v2c1.654,0,3,1.346,3,3s-1.346,3-3,3
		c-0.043,0-0.083-0.011-0.126-0.013h-4.862c0.003,0.005,0.009,0.009,0.012,0.013H-173.85z"/>
	<path d="M-162.85,22.188h-11v2h7.022c-0.004,0.004-0.008,0.008-0.011,0.013h3.862c0.043-0.002,0.083-0.013,0.126-0.013
		c1.654,0,3,1.346,3,3s-1.346,3-3,3v2c2.762,0,5-2.238,5-5S-160.088,22.188-162.85,22.188z"/>
</g>
<path d="M354.442,8.534V8.496h-38.376c-1.103,0-2-0.897-2-2s0.897-2,2-2h33c2.762,0,5-2.238,5-5s-2.238-5-5-5h-37.875v0.008
	c-0.042-0.001-0.083-0.008-0.125-0.008c-2.762,0-5,2.238-5,5s2.238,5,5,5v-2c-1.654,0-3-1.346-3-3s1.346-3,3-3h0.125h3.853h34.022
	c1.654,0,3,1.346,3,3s-1.346,3-3,3h-33c-2.209,0-4,1.791-4,4s1.791,4,4,4h38c1.103,0,2,0.897,2,2s-0.897,2-2,2h-32
	c-2.209,0-4,1.791-4,4s1.791,4,4,4h22c1.103,0,2,0.897,2,2s-0.897,2-2,2h-24.01v0.001c-2.204,0.006-3.99,1.793-3.99,3.999
	s1.786,3.993,3.99,3.999v0.001h12.01c1.103,0,2,0.897,2,2s-0.897,2-2,2h-2c-2.209,0-4,1.791-4,4s1.791,4,4,4v-2
	c-1.103,0-2-0.897-2-2s0.897-2,2-2h2c2.209,0,4-1.791,4-4s-1.791-4-4-4h-12c-1.103,0-2-0.897-2-2s0.897-2,2-2h24
	c2.209,0,4-1.791,4-4c0-2.152-1.704-3.895-3.834-3.983v-0.017h-22.166c-1.103,0-2-0.897-2-2s0.897-2,2-2h32c2.209,0,4-1.791,4-4
	C358.066,10.416,356.473,8.727,354.442,8.534z"/>
<path d="M539.857-0.788v-2.024h-2v2.024c-13.01,0.513-23.462,10.965-23.975,23.976h1.674c1.14-1.222,2.748-2,4.551-2
	c2.26,0,4.233,1.203,5.331,3h1.838c1.098-1.797,3.071-3,5.331-3c2.204,0,4.137,1.144,5.25,2.866v15.134c0,2.21,1.791,4,4,4
	s4-1.79,4-4h-2c0,1.103-0.897,2-2,2s-2-0.897-2-2V24.054c1.113-1.723,3.046-2.866,5.25-2.866c2.26,0,4.233,1.203,5.331,3h1.838
	c1.098-1.797,3.071-3,5.331-3c1.803,0,3.411,0.778,4.551,2h1.674C563.319,10.177,552.867-0.275,539.857-0.788z M557.607,19.188
	c-2.496,0-4.736,1.114-6.25,2.87c-1.514-1.756-3.754-2.87-6.25-2.87s-4.736,1.114-6.25,2.87c-1.514-1.756-3.754-2.87-6.25-2.87
	s-4.736,1.114-6.25,2.87c-1.514-1.756-3.755-2.87-6.25-2.87c-1.402,0-2.731,0.351-3.897,0.975
	c1.909-10.769,11.339-18.975,22.647-18.975s20.738,8.206,22.647,18.975C560.339,19.538,559.01,19.188,557.607,19.188z"/>
<g>
	<path d="M134.563,123.5v-17.105c0-2.762-2.238-5-5-5s-5,2.238-5,5V123.5c-1.236,1.263-2,2.988-2,4.895c0,3.866,3.134,7,7,7
		s7-3.134,7-7C136.563,126.488,135.799,124.763,134.563,123.5z M129.563,133.395c-2.757,0-5-2.243-5-5
		c0-1.313,0.508-2.554,1.429-3.495l0.571-0.583V123.5v-17.105c0-1.654,1.346-3,3-3s3,1.346,3,3V123.5v0.816l0.571,0.583
		c0.921,0.941,1.429,2.183,1.429,3.495C134.563,131.151,132.319,133.395,129.563,133.395z"/>
	<path d="M130.563,125.57v-15.176h-2v15.176c-1.167,0.413-2.008,1.516-2.008,2.824c0,1.662,1.347,3.008,3.008,3.008
		c1.662,0,3.008-1.346,3.008-3.008C132.57,127.086,131.73,125.983,130.563,125.57z M129.563,129.402
		c-0.556,0-1.008-0.452-1.008-1.008s0.452-1.008,1.008-1.008s1.008,0.452,1.008,1.008S130.118,129.402,129.563,129.402z"/>
</g>
<g>
	<path d="M234.351,123.5v-17.105c0-2.762-2.238-5-5-5s-5,2.238-5,5V123.5c-1.236,1.263-2,2.988-2,4.895c0,3.866,3.134,7,7,7
		s7-3.134,7-7C236.351,126.488,235.587,124.763,234.351,123.5z M229.351,133.395c-2.757,0-5-2.243-5-5
		c0-1.313,0.508-2.554,1.429-3.495l0.571-0.583V123.5v-17.105c0-1.654,1.346-3,3-3s3,1.346,3,3V123.5v0.816l0.571,0.583
		c0.921,0.941,1.429,2.183,1.429,3.495C234.351,131.151,232.107,133.395,229.351,133.395z"/>
	<path d="M230.351,125.57v-20.176h-2v20.176c-1.167,0.413-2.008,1.516-2.008,2.824c0,1.662,1.347,3.008,3.008,3.008
		c1.662,0,3.008-1.346,3.008-3.008C232.358,127.086,231.519,125.983,230.351,125.57z M229.351,129.402
		c-0.556,0-1.008-0.452-1.008-1.008s0.452-1.008,1.008-1.008s1.008,0.452,1.008,1.008S229.906,129.402,229.351,129.402z"/>
</g>
<g>
	<path d="M31.453,123.5v-17.105c0-2.762-2.238-5-5-5s-5,2.238-5,5V123.5c-1.236,1.263-2,2.988-2,4.895c0,3.866,3.134,7,7,7
		s7-3.134,7-7C33.453,126.488,32.689,124.763,31.453,123.5z M26.453,133.395c-2.757,0-5-2.243-5-5c0-1.313,0.508-2.554,1.429-3.495
		l0.571-0.583V123.5v-17.105c0-1.654,1.346-3,3-3s3,1.346,3,3V123.5v0.816l0.571,0.583c0.921,0.941,1.429,2.183,1.429,3.495
		C31.453,131.151,29.21,133.395,26.453,133.395z"/>
	<path d="M27.453,125.57v-10.176h-2v10.176c-1.167,0.413-2.008,1.516-2.008,2.824c0,1.662,1.347,3.008,3.008,3.008
		c1.662,0,3.008-1.346,3.008-3.008C29.461,127.086,28.621,125.983,27.453,125.57z M26.453,129.402c-0.556,0-1.008-0.452-1.008-1.008
		s0.452-1.008,1.008-1.008s1.008,0.452,1.008,1.008S27.009,129.402,26.453,129.402z"/>
</g>
<g>
	<path d="M-72.192,123.5v-17.105c0-2.762-2.238-5-5-5s-5,2.238-5,5V123.5c-1.236,1.263-2,2.988-2,4.895c0,3.866,3.134,7,7,7
		s7-3.134,7-7C-70.192,126.488-70.956,124.763-72.192,123.5z M-77.192,133.395c-2.757,0-5-2.243-5-5
		c0-1.313,0.508-2.554,1.429-3.495l0.571-0.583V123.5v-17.105c0-1.654,1.346-3,3-3s3,1.346,3,3V123.5v0.816l0.571,0.583
		c0.921,0.941,1.429,2.183,1.429,3.495C-72.192,131.151-74.436,133.395-77.192,133.395z"/>
	<path d="M-76.192,125.57v-5.176h-2v5.176c-1.167,0.413-2.008,1.516-2.008,2.824c0,1.662,1.347,3.008,3.008,3.008
		c1.662,0,3.008-1.346,3.008-3.008C-74.185,127.086-75.024,125.983-76.192,125.57z M-77.192,129.402
		c-0.556,0-1.008-0.452-1.008-1.008s0.452-1.008,1.008-1.008s1.008,0.452,1.008,1.008S-76.637,129.402-77.192,129.402z"/>
</g>
<g>
	<path d="M-176.85,123.5v-17.105c0-2.762-2.238-5-5-5s-5,2.238-5,5V123.5c-1.236,1.263-2,2.988-2,4.895c0,3.866,3.134,7,7,7
		s7-3.134,7-7C-174.85,126.488-175.613,124.763-176.85,123.5z M-181.85,133.395c-2.757,0-5-2.243-5-5
		c0-1.313,0.508-2.554,1.429-3.495l0.571-0.583V123.5v-17.105c0-1.654,1.346-3,3-3s3,1.346,3,3V123.5v0.816l0.571,0.583
		c0.921,0.941,1.429,2.183,1.429,3.495C-176.85,131.151-179.093,133.395-181.85,133.395z"/>
	<path d="M-181.85,125.387c-1.661,0-3.008,1.347-3.008,3.008c0,1.662,1.347,3.008,3.008,3.008c1.662,0,3.008-1.346,3.008-3.008
		C-178.842,126.733-180.188,125.387-181.85,125.387z M-181.85,129.402c-0.556,0-1.008-0.452-1.008-1.008s0.452-1.008,1.008-1.008
		s1.008,0.452,1.008,1.008S-181.294,129.402-181.85,129.402z"/>
</g>
<g>
	<path d="M323.075,103.707c-2.209,0-4,1.791-4,4c0,2.21,1.791,4,4,4c2.211,0,4-1.79,4-4
		C327.075,105.498,325.286,103.707,323.075,103.707z M323.075,109.707c-1.103,0-2-0.897-2-2s0.897-2,2-2s2,0.897,2,2
		S324.178,109.707,323.075,109.707z"/>
	<path d="M337.075,131.707c-4.41,0-7.999-3.589-7.999-7.999v-4.002c0-4.41,3.589-7.999,7.999-7.999c2.715,0,5.115,1.362,6.563,3.437
		l1.43-1.43c-1.824-2.429-4.72-4.007-7.992-4.007c-5.522,0-9.999,4.478-9.999,9.999v4.002c0,5.521,4.477,9.999,9.999,9.999
		c3.272,0,6.168-1.579,7.992-4.008l-1.43-1.43C342.191,130.344,339.791,131.707,337.075,131.707z"/>
</g>
<g>
	<path d="M427.771,103.586c-2.209,0-4,1.791-4,4c0,2.21,1.791,4,4,4c2.211,0,4-1.79,4-4
		C431.771,105.377,429.982,103.586,427.771,103.586z M427.771,109.586c-1.103,0-2-0.897-2-2s0.897-2,2-2s2,0.897,2,2
		S428.874,109.586,427.771,109.586z"/>
	<polygon points="447.646,111.707 447.646,109.707 435.646,109.707 433.646,109.707 433.646,133.707 435.646,133.707 
		435.646,121.707 443.646,121.707 443.646,119.707 435.646,119.707 435.646,111.707 	"/>
</g>
<g>
	<path d="M538.857,107.398c-7.179,0-13,5.82-13,13s5.821,13,13,13s13-5.82,13-13S546.036,107.398,538.857,107.398z M538.857,131.398
		c-6.065,0-11-4.935-11-11s4.935-11,11-11s11,4.935,11,11S544.923,131.398,538.857,131.398z"/>
	<path d="M534.591,124.641l6.363-2.121l2.121-6.364l-6.363,2.122L534.591,124.641z M538.293,119.858l1.62-0.54l-0.54,1.62
		l-1.62,0.54L538.293,119.858z"/>
</g>
<g>
	<path d="M-181.85,197.916c-7.179,0-13,5.82-13,13s5.821,13,13,13s13-5.82,13-13S-174.671,197.916-181.85,197.916z M-181.85,221.916
		c-6.065,0-11-4.934-11-11c0-6.064,4.935-11,11-11s11,4.936,11,11C-170.85,216.982-175.784,221.916-181.85,221.916z"/>
	<path d="M-179.288,209.338l-2.586-4.422l-2.529,4.33h0.007c-0.299,0.467-0.478,1.018-0.478,1.613c0,1.656,1.343,3,3,3s3-1.344,3-3
		c0-0.559-0.162-1.074-0.428-1.521H-179.288z M-181.874,211.859c-0.552,0-1-0.449-1-1c0-0.188,0.055-0.367,0.162-0.535l0.864-1.355
		l0.826,1.391c0.098,0.164,0.147,0.332,0.147,0.5C-180.874,211.41-181.322,211.859-181.874,211.859z"/>
</g>
<g>
	<path d="M-77.065,197.916c-7.18,0-13,5.82-13,13s5.82,13,13,13s13-5.82,13-13S-69.886,197.916-77.065,197.916z M-77.065,221.916
		c-6.065,0-11-4.934-11-11c0-6.064,4.935-11,11-11s11,4.936,11,11C-66.065,216.982-71,221.916-77.065,221.916z"/>
	<path d="M-75.477,208.336c-0.467-0.299-1.018-0.477-1.613-0.477c-1.658,0-3,1.342-3,3c0,1.656,1.342,3,3,3
		c0.557,0,1.072-0.162,1.52-0.428v0.014l4.422-2.586l-4.328-2.529V208.336z M-76.592,211.711c-0.164,0.098-0.332,0.148-0.498,0.148
		c-0.552,0-1-0.449-1-1c0-0.553,0.448-1,1-1c0.188,0,0.368,0.053,0.535,0.16l1.355,0.865L-76.592,211.711z"/>
</g>
<g>
	<path d="M25.985,197.916c-7.18,0-13,5.82-13,13s5.82,13,13,13s13-5.82,13-13S33.165,197.916,25.985,197.916z M25.985,221.916
		c-6.065,0-11-4.934-11-11c0-6.064,4.935-11,11-11s11,4.936,11,11C36.985,216.982,32.051,221.916,25.985,221.916z"/>
	<path d="M25.985,207.859c-1.656,0-3,1.342-3,3c0,0.557,0.162,1.072,0.428,1.52h-0.014l2.586,4.422l2.529-4.328h-0.006
		c0.299-0.467,0.477-1.018,0.477-1.613C28.985,209.201,27.644,207.859,25.985,207.859z M26.824,211.395l-0.865,1.355l-0.826-1.393
		c-0.098-0.164-0.147-0.332-0.147-0.498c0-0.553,0.448-1,1-1s1,0.447,1,1C26.985,211.047,26.932,211.227,26.824,211.395z"/>
</g>
<g>
	<path d="M129.399,197.916c-7.179,0-13,5.82-13,13s5.821,13,13,13s13-5.82,13-13S136.578,197.916,129.399,197.916z M129.399,221.916
		c-6.065,0-11-4.934-11-11c0-6.064,4.935-11,11-11s11,4.936,11,11C140.399,216.982,135.465,221.916,129.399,221.916z"/>
	<path d="M129.358,207.859c-0.557,0-1.072,0.162-1.52,0.428v-0.014l-4.422,2.586l4.328,2.529v-0.006
		c0.467,0.299,1.018,0.477,1.613,0.477c1.658,0,3-1.342,3-3C132.358,209.203,131.017,207.859,129.358,207.859z M129.358,211.859
		c-0.188,0-0.368-0.055-0.535-0.162l-1.355-0.865l1.393-0.826c0.164-0.098,0.332-0.146,0.498-0.146c0.552,0,1,0.447,1,1
		C130.358,211.41,129.91,211.859,129.358,211.859z"/>
</g>
<g>
	<rect x="-78.752" y="1.188" width="2" height="10"/>
	<rect x="-64.052" y="7.273" transform="matrix(0.7071 0.7071 -0.7071 0.7071 -9.6443 48.2394)" width="2" height="10.409"/>
	<rect x="-97.661" y="11.483" transform="matrix(0.7071 0.7071 -0.7071 0.7071 -18.2531 69.0328)" width="10.409" height="2"/>
	<polygon points="-84.42,30.441 -83.006,31.855 -78.752,27.602 -78.752,37.188 -76.752,37.188 -76.752,27.602 -72.499,31.855 
		-71.085,30.441 -77.752,23.773 	"/>
	<path d="M-64.745,27.187c0-0.002,0-0.004,0-0.006c0-7.18-5.82-12.999-13-12.999s-13,5.819-13,12.999c0,0.002,0,0.004,0,0.006h-13v2
		h18v-2h-3c0-0.002,0-0.004,0-0.006c0-6.064,4.935-10.999,11-10.999s11,4.935,11,10.999c0,0.002,0,0.004,0,0.006h-3v2h17.995v-2
		H-64.745z"/>
</g>
<g>
	<rect x="24.993" width="2" height="10"/>
	<rect x="39.693" y="6.086" transform="matrix(0.7071 0.7071 -0.7071 0.7071 19.9023 -25.4673)" width="2" height="10.409"/>
	<rect x="6.084" y="10.296" transform="matrix(0.7071 0.7071 -0.7071 0.7071 11.2934 -4.6739)" width="10.409" height="2"/>
	<polygon points="26.993,34.547 26.993,24 24.993,24 24.993,34.547 20.739,30.293 19.325,31.707 25.993,38.375 32.66,31.707 
		31.246,30.293 	"/>
	<path d="M39,25.999c0-0.002,0-0.004,0-0.006c0-7.18-5.82-12.999-13-12.999s-13,5.819-13,12.999c0,0.002,0,0.004,0,0.006H0v2h22v-2
		h-7c0-0.002,0-0.004,0-0.006c0-6.064,4.935-10.999,11-10.999s11,4.935,11,10.999c0,0.002,0,0.004,0,0.006h-7v2h21.995v-2H39z"/>
</g>
<g>
	<polygon points="229.351,34.013 229.351,19.63 227.351,19.63 227.351,34.013 223.097,29.759 221.683,31.173 228.351,37.841 
		235.018,31.173 233.604,29.759 	"/>
	<path d="M244.979,14.659c-1.596-7.445-8.207-13.029-16.127-13.029c-6.423,0-11.977,3.678-14.702,9.035
		c-0.266-0.018-0.53-0.04-0.8-0.04c-6.627,0-11.999,5.372-11.999,12c0,6.607,5.34,11.965,11.938,11.998v0.003h6.062v-2h-5.604
		l-0.447-0.003c-5.485-0.027-9.948-4.513-9.948-9.998c0-5.514,4.485-10,9.999-10c0.175,0,0.347,0.014,0.52,0.025l0.148,0.01
		l1.316,0.088l0.598-1.176c2.492-4.899,7.443-7.942,12.92-7.942c6.79,0,12.75,4.814,14.172,11.448l0.317,1.482l1.514,0.095
		c4.203,0.262,7.496,3.763,7.496,7.971c0,4.397-3.565,7.977-7.957,8c-0.05-0.003-0.093-0.005-0.137-0.007l-2.043,0.007h-4.863v2
		h6.863v-0.007c0.046,0.001,0.091,0.007,0.137,0.007c5.521,0,10-4.477,10-10C254.351,19.315,250.206,14.984,244.979,14.659z"/>
</g>
<g>
	<polygon points="135.335,30.817 136.749,29.403 130.082,22.735 123.414,29.403 124.828,30.817 129.082,26.563 129.082,39.149 
		131.082,39.149 131.082,26.563 	"/>
	<path d="M146.71,16.255c-1.596-7.445-8.207-13.029-16.127-13.029c-6.423,0-11.977,3.678-14.702,9.035
		c-0.266-0.018-0.53-0.04-0.8-0.04c-6.627,0-11.999,5.372-11.999,12c0,6.607,5.34,11.965,11.938,11.998v0.003h10.062v-2h-9.604
		l-0.447-0.003c-5.485-0.027-9.948-4.513-9.948-9.998c0-5.514,4.485-10,9.999-10c0.175,0,0.347,0.014,0.52,0.025l0.148,0.01
		l1.316,0.088l0.598-1.176c2.492-4.899,7.443-7.942,12.92-7.942c6.79,0,12.75,4.814,14.172,11.448l0.317,1.482l1.514,0.095
		c4.203,0.262,7.496,3.763,7.496,7.971c0,4.397-3.565,7.977-7.957,8c-0.05-0.003-0.093-0.005-0.137-0.007l-2.043,0.007h-8.863v2
		h10.863v-0.007c0.046,0.001,0.091,0.007,0.137,0.007c5.521,0,10-4.477,10-10C156.082,20.911,151.938,16.58,146.71,16.255z"/>
</g>
<g>
	<path d="M349.199-173.261c-1.596-7.445-8.207-13.029-16.127-13.029c-6.423,0-11.977,3.678-14.702,9.035
		c-0.266-0.018-0.53-0.04-0.8-0.04c-6.627,0-11.999,5.372-11.999,12c0,6.607,5.34,11.965,11.938,11.998v0.003h2.062v-2h-1.604
		l-0.447-0.003c-5.485-0.027-9.948-4.513-9.948-9.998c0-5.514,4.485-10,9.999-10c0.175,0,0.347,0.014,0.52,0.025l0.148,0.01
		l1.316,0.088l0.598-1.176c2.492-4.899,7.443-7.942,12.92-7.942c6.79,0,12.75,4.814,14.172,11.448l0.317,1.482l1.514,0.095
		c4.203,0.262,7.496,3.763,7.496,7.971c0,4.397-3.565,7.977-7.957,8c-0.05-0.003-0.093-0.005-0.137-0.007l-2.043,0.007h-0.863v2
		h2.863v-0.007c0.046,0.001,0.091,0.007,0.137,0.007c5.521,0,10-4.477,10-10C358.571-168.604,354.427-172.936,349.199-173.261z"/>
	<polygon points="327.571,-154.272 327.571,-156.902 329.744,-155.68 330.43,-156.9 327.96,-158.29 330.43,-159.68 329.744,-160.9 
		327.571,-159.678 327.571,-162.272 325.571,-162.272 325.571,-159.634 323.32,-160.9 322.635,-159.68 325.104,-158.29 
		322.635,-156.9 323.32,-155.68 325.571,-156.946 325.571,-154.272 	"/>
	<polygon points="332.733,-149.918 330.561,-148.695 330.561,-151.29 328.561,-151.29 328.561,-148.651 326.31,-149.918 
		325.624,-148.697 328.094,-147.308 325.624,-145.918 326.31,-144.697 328.561,-145.964 328.561,-143.29 330.561,-143.29 
		330.561,-145.92 332.733,-144.697 333.419,-145.918 330.949,-147.308 333.419,-148.697 	"/>
	<polygon points="341.749,-156.9 339.576,-155.678 339.576,-158.272 337.576,-158.272 337.576,-155.634 335.325,-156.9 
		334.64,-155.68 337.109,-154.29 334.64,-152.9 335.325,-151.68 337.576,-152.946 337.576,-150.272 339.576,-150.272 
		339.576,-152.902 341.749,-151.68 342.435,-152.9 339.965,-154.29 342.435,-155.68 	"/>
</g>
<g>
	<rect x="424.711" y="-191.313" width="2" height="7.973"/>
	<rect x="405.711" y="-172.398" width="7.973" height="2"/>
	<rect x="410.384" y="-183.665" transform="matrix(0.7071 0.7071 -0.7071 0.7071 -7.7972 -346.506)" width="7.974" height="2"/>
	<rect x="435.893" y="-186.647" transform="matrix(0.7071 0.7071 -0.7071 0.7071 -1.198 -362.4299)" width="2" height="7.972"/>
	<path d="M455.223-165.522c-1.444-6.742-7.433-11.8-14.605-11.8c-2.185,0-4.258,0.471-6.127,1.314
		c-1.666-3.203-5.006-5.395-8.865-5.395c-5.522,0-10,4.477-10,9.999c0,2.46,0.899,4.702,2.373,6.442
		c-1.428,1.84-2.287,4.144-2.287,6.653c0,5.983,4.836,10.836,10.813,10.865v0.003h1.188v-2h-0.721l-0.457-0.003
		c-4.864-0.023-8.822-4.001-8.822-8.865c0-4.89,3.978-8.868,8.867-8.868c0.15,0,0.299,0.012,0.447,0.022l0.148,0.01l1.314,0.085
		l0.597-1.175c2.225-4.372,6.644-7.089,11.532-7.089c6.062,0,11.382,4.298,12.649,10.219l0.318,1.483l1.514,0.094
		c3.708,0.23,6.612,3.319,6.612,7.03c0,3.878-3.144,7.035-7.017,7.057c-0.042-0.003-0.079-0.005-0.117-0.005l-1.866,0.005v2h1.819
		v-0.006c0.042,0.001,0.082,0.006,0.124,0.006c5.001,0,9.057-4.054,9.057-9.057C463.711-161.306,459.957-165.228,455.223-165.522z
		 M427.303-169.14c-0.241-0.016-0.48-0.036-0.725-0.036c-2.766,0-5.282,1.041-7.2,2.742c-1.092-1.365-1.753-3.089-1.753-4.97
		c0-4.41,3.589-7.999,8-7.999c3.092,0,5.76,1.773,7.091,4.346C430.418-173.617,428.539-171.569,427.303-169.14z"/>
	<polygon points="434.703,-148.42 434.703,-151.05 436.876,-149.827 437.562,-151.048 435.092,-152.438 437.562,-153.827 
		436.876,-155.048 434.703,-153.825 434.703,-156.42 432.703,-156.42 432.703,-153.781 430.452,-155.048 429.767,-153.827 
		432.236,-152.438 429.767,-151.048 430.452,-149.827 432.703,-151.094 432.703,-148.42 	"/>
	<polygon points="439.865,-144.065 437.692,-142.843 437.692,-145.438 435.692,-145.438 435.692,-142.799 433.441,-144.065 
		432.756,-142.845 435.226,-141.455 432.756,-140.065 433.441,-138.845 435.692,-140.111 435.692,-137.438 437.692,-137.438 
		437.692,-140.067 439.865,-138.845 440.551,-140.065 438.081,-141.455 440.551,-142.845 	"/>
	<polygon points="448.881,-151.048 446.708,-149.825 446.708,-152.42 444.708,-152.42 444.708,-149.781 442.457,-151.048 
		441.771,-149.827 444.241,-148.438 441.771,-147.048 442.457,-145.827 444.708,-147.094 444.708,-144.42 446.708,-144.42 
		446.708,-147.05 448.881,-145.827 449.566,-147.048 447.097,-148.438 449.566,-149.827 	"/>
</g>
<g>
	<path d="M555.411-168.525c-1.444-6.742-7.433-11.8-14.605-11.8c-1.799,0-3.522,0.32-5.118,0.904
		c-0.949-5.108-5.404-8.98-10.788-8.98c-0.413,0-0.819,0.027-1.222,0.071c0.744,1.112,1.179,2.448,1.179,3.886c0,3.865-3.134,7-7,7
		c-1.438,0-2.773-0.435-3.886-1.179c-0.044,0.401-0.071,0.809-0.071,1.222c0,3.713,1.845,6.987,4.661,8.979
		c-1.653,1.907-2.661,4.389-2.661,7.111c0,5.983,4.836,10.836,10.813,10.865v0.003h1.188v-2h-0.721l-0.457-0.003
		c-4.864-0.023-8.822-4.001-8.822-8.865c0-4.89,3.978-8.868,8.867-8.868c0.15,0,0.299,0.012,0.447,0.022l0.148,0.01l1.314,0.085
		l0.597-1.175c2.225-4.372,6.644-7.089,11.532-7.089c6.062,0,11.382,4.298,12.649,10.219l0.318,1.483l1.514,0.094
		c3.708,0.23,6.612,3.319,6.612,7.03c0,3.878-3.144,7.035-7.017,7.057c-0.042-0.003-0.079-0.005-0.117-0.005l-1.866,0.005v2h1.819
		v-0.006c0.042,0.001,0.082,0.006,0.124,0.006c5.001,0,9.057-4.054,9.057-9.057C563.899-164.309,560.146-168.23,555.411-168.525z
		 M527.491-172.143c-0.241-0.016-0.48-0.036-0.725-0.036c-2.537,0-4.865,0.877-6.715,2.334c-2.012-1.294-3.486-3.354-3.976-5.776
		c0.582,0.117,1.178,0.177,1.78,0.177c4.963,0,9-4.037,9-9c0-0.603-0.06-1.198-0.177-1.78c3.733,0.753,6.629,3.824,7.134,7.64
		C531.101-177.141,528.886-174.886,527.491-172.143z"/>
	<polygon points="534.937,-151.423 534.937,-154.053 537.109,-152.83 537.795,-154.051 535.325,-155.44 537.795,-156.83 
		537.109,-158.051 534.937,-156.828 534.937,-159.423 532.937,-159.423 532.937,-156.784 530.686,-158.051 530,-156.83 
		532.47,-155.44 530,-154.051 530.686,-152.83 532.937,-154.097 532.937,-151.423 	"/>
	<polygon points="540.099,-147.068 537.926,-145.846 537.926,-148.44 535.926,-148.44 535.926,-145.802 533.675,-147.068 
		532.989,-145.848 535.459,-144.458 532.989,-143.068 533.675,-141.848 535.926,-143.114 535.926,-140.44 537.926,-140.44 
		537.926,-143.07 540.099,-141.848 540.784,-143.068 538.314,-144.458 540.784,-145.848 	"/>
	<polygon points="549.114,-154.051 546.941,-152.828 546.941,-155.423 544.941,-155.423 544.941,-152.784 542.69,-154.051 
		542.005,-152.83 544.475,-151.44 542.005,-150.051 542.69,-148.83 544.941,-150.097 544.941,-147.423 546.941,-147.423 
		546.941,-150.053 549.114,-148.83 549.8,-150.051 547.33,-151.44 549.8,-152.83 	"/>
</g>
<rect x="-60.947" y="-736.275" fill="none" width="472.974" height="180.918"/>
<text transform="matrix(1 0 0 1 118.6899 -664.8765)"><tspan x="0" y="0" font-family="'HelveticaNeueLTStd-Th'" font-size="100" letter-spacing="2">60</tspan><tspan x="-99.268" y="60" font-family="'HelveticaNeueLTStd-Lt'" font-size="48" letter-spacing="1">Weather Icons</tspan><tspan x="-3.726" y="104" font-family="'HelveticaNeueLTStd-Lt'" font-size="24">IOS 7 Style</tspan></text>
</svg>
