<?xml version="1.0" encoding="utf-8"?>
<!-- Generator: Adobe Illustrator 16.0.0, SVG Export Plug-In . SVG Version: 6.00 Build 0)  -->
<!DOCTYPE svg PUBLIC "-//W3C//DTD SVG 1.1//EN" "http://www.w3.org/Graphics/SVG/1.1/DTD/svg11.dtd">
<svg version="1.1" id="Layer_1" xmlns="http://www.w3.org/2000/svg" xmlns:xlink="http://www.w3.org/1999/xlink" x="0px" y="0px"
	 width="14px" height="34px" viewBox="0 0 14 34" enable-background="new 0 0 14 34" xml:space="preserve">
<path d="M523.714-98.505l-1.803,15.077l-0.268,2.237h2.254h6.896l-14.693,18.759l1.789-14.52l0.277-2.245h-2.262h-6.957
	L523.714-98.505 M526.568-105.529l-21.667,28.333h11.004l-2.671,21.667l21.667-27.661h-11.004L526.568-105.529L526.568-105.529z"/>
<path d="M110.679-560.766c6.79,0,12.749,4.814,14.171,11.448l0.318,1.483l1.514,0.094c4.203,0.262,7.496,3.763,7.496,7.971
	c0,4.396-3.565,7.977-7.957,8c-0.046-0.003-0.091-0.006-0.137-0.007l-2.043-0.036v0.043H95.704l-0.578-0.003
	c-5.485-0.027-9.948-4.513-9.948-9.998c0-5.514,4.485-10,9.999-10c0.175,0,0.347,0.014,0.519,0.025l0.149,0.011l1.316,0.087
	l0.598-1.176C100.252-557.723,105.202-560.766,110.679-560.766 M110.679-562.766c-6.423,0-11.977,3.678-14.702,9.035
	c-0.266-0.018-0.53-0.04-0.8-0.04c-6.627,0-11.999,5.372-11.999,12c0,6.607,5.34,11.965,11.938,11.998v0.003h30.925v-0.007
	c0.046,0.001,0.091,0.007,0.137,0.007c5.521,0,10-4.477,10-10c0-5.311-4.145-9.642-9.372-9.967
	C125.21-557.182,118.599-562.766,110.679-562.766L110.679-562.766z"/>
<g>
	<path d="M233.63-542.354c-1.444-6.742-7.433-11.8-14.605-11.8c-2.185,0-4.258,0.47-6.127,1.313
		c-1.666-3.202-5.006-5.394-8.865-5.394c-5.522,0-10,4.477-10,9.999c0,2.46,0.898,4.702,2.373,6.442
		c-1.428,1.84-2.287,4.144-2.287,6.653c0,5.983,4.836,10.836,10.813,10.865v0.003h28.007v-0.006
		c0.042,0.001,0.082,0.006,0.124,0.006c5.001,0,9.057-4.054,9.057-9.057C242.118-538.138,238.364-542.06,233.63-542.354z
		 M204.032-556.234c3.092,0,5.76,1.773,7.092,4.345c-2.299,1.44-4.178,3.488-5.414,5.918c-0.241-0.016-0.48-0.036-0.725-0.036
		c-2.766,0-5.281,1.041-7.2,2.743c-1.092-1.366-1.753-3.09-1.753-4.971C196.032-552.646,199.621-556.234,204.032-556.234z
		 M233.102-526.271c-0.038-0.003-0.077-0.004-0.117-0.005l-2.047-0.042v0.047h-25.403l-0.594-0.003
		c-4.864-0.023-8.822-4.001-8.822-8.865c0-4.89,3.978-8.868,8.867-8.868c0.15,0,0.299,0.012,0.447,0.021l0.148,0.011l1.314,0.085
		l0.598-1.174c2.224-4.373,6.643-7.09,11.531-7.09c6.062,0,11.381,4.298,12.65,10.219l0.317,1.482l1.514,0.095
		c3.708,0.231,6.612,3.319,6.612,7.03C240.118-529.45,236.975-526.294,233.102-526.271z"/>
	<rect x="203.038" y="-568.265" width="2" height="7.973"/>
	<rect x="184.065" y="-549.278" width="7.973" height="2"/>
	<rect x="188.791" y="-560.497" transform="matrix(0.7071 0.7071 -0.7071 0.7071 -339.1607 -300.1877)" width="7.974" height="2"/>
	<rect x="214.3" y="-563.479" transform="matrix(0.7071 0.7071 -0.7071 0.7071 -332.5615 -316.1117)" width="2" height="7.972"/>
</g>
<path d="M329.373-546.382c-1.444-6.742-7.433-11.8-14.605-11.8c-1.799,0-3.521,0.32-5.118,0.904
	c-0.949-5.108-5.404-8.98-10.788-8.98c-0.413,0-0.819,0.027-1.222,0.071c0.744,1.112,1.179,2.448,1.179,3.886c0,3.865-3.134,7-7,7
	c-1.438,0-2.773-0.435-3.886-1.179c-0.044,0.401-0.071,0.809-0.071,1.222c0,3.712,1.845,6.987,4.661,8.979
	c-1.653,1.907-2.661,4.389-2.661,7.111c0,5.983,4.836,10.836,10.813,10.865v0.003h28.007v-0.006
	c0.042,0.001,0.082,0.006,0.124,0.006c5.001,0,9.057-4.054,9.057-9.057C337.861-542.165,334.107-546.087,329.373-546.382z
	 M290.038-553.478c0.582,0.117,1.178,0.177,1.78,0.177c4.963,0,9-4.037,9-9c0-0.603-0.06-1.198-0.177-1.78
	c3.733,0.753,6.629,3.824,7.134,7.64c-2.713,1.444-4.928,3.699-6.322,6.442c-0.241-0.016-0.48-0.036-0.725-0.036
	c-2.537,0-4.865,0.876-6.715,2.334C292.002-548.995,290.527-551.055,290.038-553.478z M328.845-530.299
	c-0.038-0.003-0.077-0.004-0.117-0.005l-2.047-0.042v0.047h-25.403l-0.594-0.003c-4.864-0.023-8.822-4.001-8.822-8.865
	c0-4.89,3.978-8.868,8.867-8.868c0.15,0,0.299,0.012,0.447,0.021l0.148,0.011l1.314,0.085l0.598-1.174
	c2.224-4.373,6.643-7.09,11.531-7.09c6.062,0,11.381,4.298,12.65,10.219l0.317,1.482l1.514,0.095
	c3.708,0.231,6.612,3.319,6.612,7.03C335.861-533.478,332.718-530.321,328.845-530.299z"/>
<g>
	<rect x="414.019" y="-537.759" width="2" height="7"/>
	<rect x="422.019" y="-541.759" width="2" height="7"/>
	<rect x="406.019" y="-541.759" width="2" height="7"/>
	<rect x="414.019" y="-527.759" width="2" height="7"/>
	<rect x="422.019" y="-531.759" width="2" height="7"/>
	<rect x="406.019" y="-531.759" width="2" height="7"/>
	<path d="M432.646-554.747c-1.596-7.445-8.207-13.029-16.127-13.029c-6.423,0-11.977,3.678-14.702,9.035
		c-0.266-0.018-0.53-0.04-0.8-0.04c-6.627,0-11.999,5.372-11.999,12c0,6.607,5.34,11.965,11.938,11.998v0.003h2.062v-2h-1.604
		l-0.447-0.003c-5.485-0.027-9.948-4.513-9.948-9.998c0-5.514,4.485-10,9.999-10c0.175,0,0.347,0.014,0.52,0.025l0.148,0.01
		l1.316,0.088l0.598-1.176c2.492-4.899,7.443-7.942,12.92-7.942c6.79,0,12.75,4.814,14.172,11.448l0.317,1.482l1.514,0.095
		c4.203,0.262,7.496,3.763,7.496,7.971c0,4.397-3.565,7.977-7.957,8c-0.05-0.003-0.093-0.005-0.137-0.007l-2.043,0.007h-2.863v2
		h4.863v-0.007c0.046,0.001,0.091,0.007,0.137,0.007c5.521,0,10-4.477,10-10C442.019-550.091,437.874-554.422,432.646-554.747z"/>
</g>
<g>
	<path d="M230.22-465.39c-1.596-7.445-8.207-13.029-16.127-13.029c-6.423,0-11.977,3.678-14.702,9.035
		c-0.266-0.018-0.53-0.04-0.8-0.04c-6.627,0-11.999,5.372-11.999,12c0,6.607,5.34,11.965,11.938,11.998v0.003h2.062v-2h-1.604
		l-0.447-0.003c-5.485-0.027-9.948-4.513-9.948-9.998c0-5.514,4.485-10,9.999-10c0.175,0,0.347,0.014,0.52,0.025l0.148,0.01
		l1.316,0.088l0.598-1.176c2.492-4.899,7.443-7.942,12.92-7.942c6.79,0,12.75,4.814,14.172,11.448l0.317,1.482l1.514,0.095
		c4.203,0.262,7.496,3.763,7.496,7.971c0,4.397-3.565,7.977-7.957,8c-0.05-0.003-0.093-0.005-0.137-0.007l-2.043,0.007h-2.863v2
		h4.863v-0.007c0.046,0.001,0.091,0.007,0.137,0.007c5.521,0,10-4.477,10-10C239.592-460.733,235.447-465.064,230.22-465.39z"/>
	<polygon points="211.592,-438.395 211.592,-436.454 211.592,-430.395 213.592,-430.395 213.592,-436.454 213.592,-438.395 
		213.592,-450.395 211.592,-450.395 	"/>
	<polygon points="219.592,-442.395 219.592,-440.642 219.592,-434.395 221.592,-434.395 221.592,-440.642 221.592,-442.395 
		221.592,-454.395 219.592,-454.395 	"/>
	<polygon points="203.592,-442.395 203.592,-440.329 203.592,-434.395 205.592,-434.395 205.592,-440.329 205.592,-442.395 
		205.592,-454.395 203.592,-454.395 	"/>
</g>
<g>
	<polygon points="525.869,-441.483 518.986,-451.313 517.349,-450.166 524.231,-440.336 525.344,-438.747 528.819,-433.783 
		530.458,-434.93 526.982,-439.895 	"/>
	<polygon points="533.871,-441.485 526.986,-451.313 525.349,-450.165 532.234,-440.337 533.239,-438.901 536.823,-433.786 
		538.462,-434.933 534.878,-440.049 	"/>
	<polygon points="517.869,-441.483 510.986,-451.313 509.349,-450.165 516.231,-440.336 517.416,-438.644 520.82,-433.782 
		522.458,-434.93 519.055,-439.791 	"/>
	<path d="M536.977-465.123c-1.596-7.445-8.207-13.029-16.127-13.029c-6.423,0-11.977,3.678-14.702,9.035
		c-0.266-0.018-0.53-0.04-0.8-0.04c-6.627,0-11.999,5.372-11.999,12c0,6.607,5.34,11.965,11.938,11.998v0.003h2.062v-2h-1.604
		l-0.447-0.003c-5.485-0.027-9.948-4.513-9.948-9.998c0-5.514,4.485-10,9.999-10c0.175,0,0.347,0.014,0.52,0.025l0.148,0.01
		l1.316,0.088l0.598-1.176c2.492-4.899,7.443-7.942,12.92-7.942c6.79,0,12.75,4.814,14.172,11.448l0.317,1.482l1.514,0.095
		c4.203,0.262,7.496,3.763,7.496,7.971c0,4.397-3.565,7.977-7.957,8c-0.05-0.003-0.093-0.005-0.137-0.007l-1.043,0.007h0.137v2
		h0.863v-0.007c0.046,0.001,0.091,0.007,0.137,0.007c5.521,0,10-4.477,10-10C546.349-460.467,542.204-464.798,536.977-465.123z"/>
</g>
<g>
	<rect x="508.675" y="-574.205" width="2" height="7.973"/>
	<rect x="489.675" y="-555.291" width="7.973" height="2"/>
	<rect x="494.348" y="-566.557" transform="matrix(0.7071 0.7071 -0.7071 0.7071 -253.9507 -518.024)" width="7.974" height="2"/>
	<rect x="519.857" y="-569.539" transform="matrix(0.7071 0.7071 -0.7071 0.7071 -247.3516 -533.948)" width="2" height="7.972"/>
	<rect x="522.675" y="-533.332" width="2" height="7"/>
	<rect x="530.675" y="-537.332" width="2" height="7"/>
	<rect x="514.675" y="-537.332" width="2" height="7"/>
	<rect x="522.675" y="-523.332" width="2" height="7"/>
	<rect x="530.675" y="-527.332" width="2" height="7"/>
	<rect x="514.675" y="-527.332" width="2" height="7"/>
	<path d="M539.187-548.415c-1.444-6.742-7.433-11.8-14.605-11.8c-2.185,0-4.258,0.47-6.126,1.313
		c-1.667-3.202-5.007-5.394-8.866-5.394c-5.522,0-10,4.477-10,9.999c0,2.46,0.899,4.702,2.373,6.442
		c-1.429,1.84-2.287,4.144-2.287,6.653c0,5.983,4.836,10.836,10.813,10.865v0.003h1.188v-2h-0.721l-0.457-0.003
		c-4.864-0.023-8.822-4.001-8.822-8.865c0-4.89,3.978-8.868,8.867-8.868c0.15,0,0.299,0.012,0.447,0.022l0.148,0.01l1.314,0.085
		l0.597-1.175c2.225-4.372,6.644-7.089,11.532-7.089c6.062,0,11.382,4.298,12.649,10.219l0.318,1.483l1.514,0.094
		c3.708,0.23,6.612,3.319,6.612,7.03c0,3.878-3.144,7.035-7.017,7.057c-0.042-0.003-0.079-0.005-0.117-0.005l-2.047,0.005h-0.819v2
		h2.819v-0.006c0.042,0.001,0.082,0.006,0.124,0.006c5.001,0,9.057-4.054,9.057-9.057
		C547.675-544.198,543.921-548.12,539.187-548.415z M511.267-552.032c-0.241-0.016-0.48-0.036-0.725-0.036
		c-2.766,0-5.282,1.041-7.2,2.743c-1.092-1.366-1.753-3.09-1.753-4.971c0-4.41,3.589-7.999,8-7.999c3.091,0,5.76,1.773,7.091,4.345
		C514.382-556.51,512.502-554.462,511.267-552.032z"/>
</g>
<g>
	<rect x="623.092" y="-534.779" width="2" height="7"/>
	<rect x="631.092" y="-538.779" width="2" height="7"/>
	<rect x="615.092" y="-538.779" width="2" height="7"/>
	<rect x="623.092" y="-524.779" width="2" height="7"/>
	<rect x="631.092" y="-528.779" width="2" height="7"/>
	<rect x="615.092" y="-528.779" width="2" height="7"/>
	<path d="M639.604-549.862c-1.444-6.742-7.433-11.8-14.605-11.8c-1.799,0-3.522,0.32-5.118,0.904
		c-0.949-5.108-5.404-8.98-10.788-8.98c-0.413,0-0.819,0.027-1.222,0.071c0.744,1.112,1.179,2.448,1.179,3.886c0,3.865-3.134,7-7,7
		c-1.438,0-2.773-0.435-3.886-1.179c-0.044,0.401-0.071,0.809-0.071,1.222c0,3.712,1.845,6.987,4.661,8.979
		c-1.653,1.907-2.661,4.389-2.661,7.111c0,5.983,4.836,10.836,10.813,10.865v0.003h1.188v-2h-0.721l-0.457-0.003
		c-4.864-0.023-8.822-4.001-8.822-8.865c0-4.89,3.978-8.868,8.867-8.868c0.15,0,0.299,0.012,0.447,0.022l0.148,0.01l1.314,0.085
		l0.597-1.175c2.225-4.372,6.644-7.089,11.532-7.089c6.062,0,11.382,4.298,12.649,10.219l0.318,1.483l1.514,0.094
		c3.708,0.23,6.612,3.319,6.612,7.03c0,3.878-3.144,7.035-7.017,7.057c-0.042-0.003-0.079-0.005-0.117-0.005l-2.047,0.005h-0.819v2
		h2.819v-0.006c0.042,0.001,0.082,0.006,0.124,0.006c5.001,0,9.057-4.054,9.057-9.057
		C648.092-545.646,644.338-549.567,639.604-549.862z M611.684-553.479c-0.241-0.016-0.48-0.036-0.725-0.036
		c-2.537,0-4.865,0.876-6.715,2.334c-2.012-1.294-3.487-3.354-3.976-5.776c0.582,0.117,1.178,0.177,1.78,0.177c4.963,0,9-4.037,9-9
		c0-0.603-0.06-1.198-0.177-1.78c3.733,0.753,6.629,3.824,7.133,7.64C615.294-558.478,613.079-556.223,611.684-553.479z"/>
</g>
<g>
	<polygon points="315.861,-433.956 315.861,-432.016 315.861,-425.956 317.861,-425.956 317.861,-432.016 317.861,-433.956 
		317.861,-445.956 315.861,-445.956 	"/>
	<polygon points="323.861,-437.956 323.861,-436.203 323.861,-429.956 325.861,-429.956 325.861,-436.203 325.861,-437.956 
		325.861,-449.956 323.861,-449.956 	"/>
	<polygon points="307.861,-437.956 307.861,-435.891 307.861,-429.956 309.861,-429.956 309.861,-435.891 309.861,-437.956 
		309.861,-449.956 307.861,-449.956 	"/>
	<rect x="301.861" y="-484.858" width="2" height="7.973"/>
	<rect x="282.861" y="-465.944" width="7.973" height="2"/>
	<rect x="287.534" y="-477.211" transform="matrix(0.7071 0.7071 -0.7071 0.7071 -251.3473 -345.6158)" width="7.974" height="2"/>
	<rect x="313.043" y="-480.193" transform="matrix(0.7071 0.7071 -0.7071 0.7071 -244.7482 -361.5397)" width="2" height="7.972"/>
	<path d="M332.373-459.068c-1.444-6.742-7.433-11.8-14.605-11.8c-2.185,0-4.258,0.47-6.127,1.313
		c-1.666-3.202-5.006-5.394-8.865-5.394c-5.522,0-10,4.477-10,9.999c0,2.46,0.898,4.702,2.373,6.442
		c-1.428,1.84-2.287,4.144-2.287,6.653c0,5.983,4.836,10.836,10.813,10.865v0.003h1.188v-2h-0.721l-0.457-0.003
		c-4.864-0.023-8.822-4.001-8.822-8.865c0-4.89,3.978-8.868,8.867-8.868c0.15,0,0.299,0.012,0.447,0.022l0.148,0.01l1.314,0.085
		l0.597-1.175c2.225-4.372,6.644-7.089,11.532-7.089c6.062,0,11.382,4.298,12.649,10.219l0.318,1.483l1.514,0.094
		c3.708,0.23,6.612,3.319,6.612,7.03c0,3.878-3.144,7.035-7.017,7.057c-0.042-0.003-0.079-0.005-0.117-0.005l-2.047,0.005h-0.819v2
		h2.819v-0.006c0.042,0.001,0.082,0.006,0.124,0.006c5.001,0,9.057-4.054,9.057-9.057
		C340.861-454.852,337.107-458.773,332.373-459.068z M304.453-462.686c-0.241-0.016-0.48-0.036-0.725-0.036
		c-2.766,0-5.281,1.042-7.2,2.743c-1.092-1.367-1.753-3.09-1.753-4.971c0-4.41,3.589-7.999,8-7.999c3.092,0,5.76,1.773,7.092,4.345
		C307.568-467.164,305.689-465.115,304.453-462.686z"/>
</g>
<g>
	<polygon points="416.259,-436.473 416.259,-434.532 416.259,-428.473 418.259,-428.473 418.259,-434.532 418.259,-436.473 
		418.259,-448.473 416.259,-448.473 	"/>
	<polygon points="424.259,-440.473 424.259,-438.72 424.259,-432.473 426.259,-432.473 426.259,-438.72 426.259,-440.473 
		426.259,-452.473 424.259,-452.473 	"/>
	<polygon points="408.259,-440.473 408.259,-438.407 408.259,-432.473 410.259,-432.473 410.259,-438.407 410.259,-440.473 
		410.259,-452.473 408.259,-452.473 	"/>
	<path d="M432.771-461.585c-1.444-6.742-7.433-11.8-14.605-11.8c-1.799,0-3.521,0.32-5.118,0.904
		c-0.949-5.108-5.404-8.98-10.788-8.98c-0.413,0-0.819,0.027-1.222,0.071c0.744,1.112,1.179,2.448,1.179,3.886c0,3.865-3.134,7-7,7
		c-1.438,0-2.773-0.435-3.886-1.179c-0.044,0.401-0.071,0.809-0.071,1.222c0,3.712,1.845,6.987,4.661,8.979
		c-1.653,1.907-2.661,4.389-2.661,7.111c0,5.983,4.836,10.836,10.813,10.865v0.003h1.188v-2h-0.721l-0.457-0.003
		c-4.864-0.023-8.822-4.001-8.822-8.865c0-4.89,3.978-8.868,8.867-8.868c0.15,0,0.299,0.012,0.447,0.022l0.148,0.01l1.314,0.085
		l0.597-1.175c2.225-4.372,6.644-7.089,11.532-7.089c6.062,0,11.382,4.298,12.649,10.219l0.318,1.483l1.514,0.094
		c3.708,0.23,6.612,3.319,6.612,7.03c0,3.878-3.144,7.035-7.017,7.057c-0.042-0.003-0.079-0.005-0.117-0.005l-2.047,0.005h-0.819v2
		h2.819v-0.006c0.042,0.001,0.082,0.006,0.124,0.006c5.001,0,9.057-4.054,9.057-9.057
		C441.259-457.368,437.505-461.29,432.771-461.585z M404.851-465.202c-0.241-0.016-0.48-0.036-0.725-0.036
		c-2.537,0-4.865,0.876-6.715,2.334c-2.012-1.294-3.486-3.354-3.976-5.776c0.582,0.117,1.178,0.177,1.78,0.177c4.963,0,9-4.037,9-9
		c0-0.603-0.06-1.198-0.177-1.78c3.733,0.753,6.629,3.824,7.134,7.641C408.46-470.2,406.245-467.944,404.851-465.202z"/>
</g>
<g>
	<polygon points="633.294,-435.528 626.411,-445.358 624.773,-444.211 631.656,-434.381 632.769,-432.792 636.244,-427.828 
		637.883,-428.975 634.407,-433.939 	"/>
	<polygon points="641.296,-435.53 634.411,-445.358 632.773,-444.21 639.659,-434.382 640.664,-432.946 644.248,-427.831 
		645.887,-428.978 642.303,-434.094 	"/>
	<polygon points="625.294,-435.528 618.411,-445.358 616.773,-444.21 623.656,-434.381 624.841,-432.688 628.245,-427.827 
		629.883,-428.975 626.479,-433.836 	"/>
	<rect x="612.773" y="-483.077" width="2" height="7.973"/>
	<rect x="593.773" y="-464.163" width="7.973" height="2"/>
	<rect x="598.446" y="-475.43" transform="matrix(0.7071 0.7071 -0.7071 0.7071 -159.0237 -564.9421)" width="7.974" height="2"/>
	<rect x="623.955" y="-478.412" transform="matrix(0.7071 0.7071 -0.7071 0.7071 -152.4246 -580.8661)" width="2" height="7.972"/>
	<path d="M643.285-457.287c-1.444-6.742-7.433-11.8-14.605-11.8c-2.185,0-4.258,0.47-6.126,1.313
		c-1.667-3.202-5.007-5.394-8.866-5.394c-5.522,0-10,4.477-10,9.999c0,2.46,0.899,4.702,2.373,6.442
		c-1.429,1.84-2.287,4.144-2.287,6.653c0,5.983,4.836,10.836,10.813,10.865v0.003h1.188v-2h-0.721l-0.457-0.003
		c-4.864-0.023-8.822-4.001-8.822-8.865c0-4.89,3.978-8.868,8.867-8.868c0.15,0,0.299,0.012,0.447,0.022l0.148,0.01l1.314,0.085
		l0.597-1.175c2.225-4.372,6.644-7.089,11.532-7.089c6.062,0,11.382,4.298,12.649,10.219l0.318,1.483l1.514,0.094
		c3.708,0.23,6.612,3.319,6.612,7.03c0,3.878-3.144,7.035-7.017,7.057c-0.042-0.003-0.079-0.005-0.117-0.005l-0.047,0.005h-0.819v2
		h0.819v-0.006c0.042,0.001,0.082,0.006,0.124,0.006c5.001,0,9.057-4.054,9.057-9.057
		C651.773-453.07,648.02-456.992,643.285-457.287z M615.365-460.904c-0.241-0.016-0.48-0.036-0.725-0.036
		c-2.766,0-5.282,1.042-7.2,2.743c-1.092-1.367-1.753-3.09-1.753-4.971c0-4.41,3.589-7.999,8-7.999c3.091,0,5.76,1.773,7.091,4.345
		C618.48-465.383,616.601-463.334,615.365-460.904z"/>
</g>
<g>
	<polygon points="-90.137,-339.043 -97.02,-348.873 -98.657,-347.726 -91.774,-337.896 -90.662,-336.307 -87.187,-331.343 
		-85.548,-332.489 -89.023,-337.454 	"/>
	<polygon points="-82.135,-339.045 -89.02,-348.873 -90.657,-347.725 -83.771,-337.896 -82.767,-336.461 -79.183,-331.346 
		-77.544,-332.492 -81.128,-337.608 	"/>
	<polygon points="-98.137,-339.043 -105.02,-348.873 -106.657,-347.725 -99.774,-337.896 -98.59,-336.203 -95.186,-331.342 
		-93.548,-332.489 -96.951,-337.351 	"/>
	<path d="M-80.146-360.802c-1.444-6.742-7.433-11.8-14.605-11.8c-1.799,0-3.522,0.32-5.118,0.904
		c-0.949-5.108-5.404-8.98-10.788-8.98c-0.413,0-0.819,0.027-1.222,0.071c0.744,1.112,1.179,2.448,1.179,3.886c0,3.865-3.134,7-7,7
		c-1.438,0-2.773-0.435-3.886-1.179c-0.044,0.401-0.071,0.809-0.071,1.222c0,3.712,1.845,6.987,4.661,8.979
		c-1.653,1.907-2.661,4.389-2.661,7.111c0,5.983,4.836,10.836,10.813,10.865v0.003h1.188v-2h-0.721l-0.457-0.003
		c-4.864-0.023-8.822-4.001-8.822-8.865c0-4.89,3.978-8.868,8.867-8.868c0.15,0,0.299,0.012,0.447,0.022l0.148,0.01l1.314,0.085
		l0.597-1.175c2.225-4.372,6.644-7.089,11.532-7.089c6.062,0,11.382,4.298,12.649,10.219l0.318,1.483l1.514,0.094
		c3.708,0.23,6.612,3.319,6.612,7.03c0,3.878-3.144,7.035-7.017,7.057c-0.042-0.003-0.079-0.005-0.117-0.005l-0.047,0.005h-0.819v2
		h0.819v-0.006c0.042,0.001,0.082,0.006,0.124,0.006c5.001,0,9.057-4.054,9.057-9.057
		C-71.657-356.585-75.411-360.507-80.146-360.802z M-108.065-364.419c-0.241-0.016-0.48-0.036-0.725-0.036
		c-2.537,0-4.865,0.876-6.715,2.334c-2.012-1.294-3.487-3.354-3.976-5.776c0.582,0.117,1.178,0.177,1.78,0.177c4.963,0,9-4.037,9-9
		c0-0.603-0.06-1.198-0.177-1.78c3.733,0.753,6.629,3.824,7.133,7.641C-104.455-369.417-106.67-367.161-108.065-364.419z"/>
</g>
<g>
	<rect x="-97.657" y="-442.89" width="2" height="4"/>
	<rect x="-89.657" y="-446.911" width="2" height="4.021"/>
	<rect x="-105.657" y="-446.911" width="2" height="4.021"/>
	<path d="M-79.029-462.878c-1.596-7.445-8.207-13.029-16.127-13.029c-6.423,0-11.977,3.678-14.702,9.035
		c-0.266-0.018-0.53-0.04-0.8-0.04c-6.627,0-11.999,5.372-11.999,12c0,6.607,5.34,11.965,11.938,11.998v0.003h2.062v-2h-1.604
		l-0.447-0.003c-5.485-0.027-9.948-4.513-9.948-9.998c0-5.514,4.485-10,9.999-10c0.175,0,0.347,0.014,0.52,0.025l0.148,0.01
		l1.316,0.088l0.598-1.176c2.492-4.899,7.443-7.942,12.92-7.942c6.79,0,12.75,4.814,14.172,11.448l0.317,1.482l1.514,0.095
		c4.203,0.262,7.496,3.763,7.496,7.971c0,4.397-3.565,7.977-7.957,8c-0.05-0.003-0.093-0.005-0.137-0.007l-2.043,0.007h-2.863v2
		h4.863v-0.007c0.046,0.001,0.091,0.007,0.137,0.007c5.521,0,10-4.477,10-10C-69.657-458.222-73.802-462.553-79.029-462.878z"/>
	<circle cx="-88.657" cy="-437.869" r="1.5"/>
	<circle cx="-96.657" cy="-433.9" r="1.5"/>
	<circle cx="-104.657" cy="-437.911" r="1.5"/>
</g>
<g>
	<rect x="-4.736" y="-482.344" width="2" height="7.973"/>
	<rect x="-23.736" y="-463.43" width="7.973" height="2"/>
	<rect x="-19.063" y="-474.696" transform="matrix(0.7071 0.7071 -0.7071 0.7071 -339.3696 -128.082)" width="7.974" height="2"/>
	<rect x="6.445" y="-477.678" transform="matrix(0.7071 0.7071 -0.7071 0.7071 -332.7704 -144.0059)" width="2" height="7.972"/>
	<path d="M25.775-456.554c-1.444-6.742-7.433-11.8-14.605-11.8c-2.185,0-4.258,0.47-6.126,1.313
		c-1.667-3.202-5.007-5.394-8.866-5.394c-5.522,0-10,4.477-10,9.999c0,2.46,0.899,4.702,2.373,6.442
		c-1.429,1.84-2.287,4.144-2.287,6.653c0,5.983,4.836,10.836,10.813,10.865v0.003h1.188v-2h-0.721l-0.457-0.003
		c-4.864-0.023-8.822-4.001-8.822-8.865c0-4.89,3.978-8.868,8.867-8.868c0.15,0,0.299,0.012,0.447,0.022l0.148,0.01l1.314,0.085
		l0.597-1.175c2.225-4.372,6.644-7.089,11.532-7.089c6.062,0,11.382,4.298,12.649,10.219l0.318,1.483l1.514,0.094
		c3.708,0.23,6.612,3.319,6.612,7.03c0,3.878-3.144,7.035-7.017,7.057c-0.042-0.003-0.079-0.005-0.117-0.005l-2.047,0.005h-0.819v2
		h2.819v-0.006c0.042,0.001,0.082,0.006,0.124,0.006c5.001,0,9.057-4.054,9.057-9.057C34.264-452.337,30.51-456.259,25.775-456.554z
		 M-2.145-460.171c-0.241-0.016-0.48-0.036-0.725-0.036c-2.766,0-5.282,1.042-7.2,2.743c-1.092-1.367-1.753-3.09-1.753-4.971
		c0-4.41,3.589-7.999,8-7.999c3.091,0,5.76,1.773,7.091,4.345C0.971-464.649-0.909-462.601-2.145-460.171z"/>
	<rect x="9.264" y="-438.455" width="2" height="4"/>
	<rect x="17.264" y="-442.477" width="2" height="4.021"/>
	<rect x="1.264" y="-442.477" width="2" height="4.021"/>
	<circle cx="18.264" cy="-433.435" r="1.5"/>
	<circle cx="10.264" cy="-429.466" r="1.5"/>
	<circle cx="2.264" cy="-433.477" r="1.5"/>
</g>
<g>
	<path d="M126.701-457.511c-1.444-6.742-7.433-11.8-14.605-11.8c-1.799,0-3.522,0.32-5.118,0.904
		c-0.949-5.108-5.404-8.98-10.788-8.98c-0.413,0-0.819,0.027-1.222,0.071c0.744,1.112,1.179,2.448,1.179,3.886c0,3.865-3.134,7-7,7
		c-1.438,0-2.773-0.435-3.886-1.179c-0.044,0.401-0.071,0.809-0.071,1.222c0,3.712,1.845,6.987,4.661,8.979
		c-1.653,1.907-2.661,4.389-2.661,7.111c0,5.983,4.836,10.836,10.813,10.865v0.003h1.188v-2h-0.721l-0.457-0.003
		c-4.864-0.023-8.822-4.001-8.822-8.865c0-4.89,3.978-8.868,8.867-8.868c0.15,0,0.299,0.012,0.447,0.022l0.148,0.01l1.314,0.085
		l0.597-1.175c2.225-4.372,6.644-7.089,11.532-7.089c6.062,0,11.382,4.298,12.649,10.219l0.318,1.483l1.514,0.094
		c3.708,0.23,6.612,3.319,6.612,7.03c0,3.878-3.144,7.035-7.017,7.057c-0.042-0.003-0.079-0.005-0.117-0.005l-2.047,0.005h-0.819v2
		h2.819v-0.006c0.042,0.001,0.082,0.006,0.124,0.006c5.001,0,9.057-4.054,9.057-9.057
		C135.189-453.294,131.436-457.216,126.701-457.511z M98.781-461.128c-0.241-0.016-0.48-0.036-0.725-0.036
		c-2.537,0-4.865,0.876-6.715,2.334c-2.012-1.294-3.487-3.354-3.976-5.776c0.582,0.117,1.178,0.177,1.78,0.177c4.963,0,9-4.037,9-9
		c0-0.603-0.06-1.198-0.177-1.78c3.733,0.753,6.629,3.824,7.133,7.641C102.392-466.126,100.177-463.87,98.781-461.128z"/>
	<rect x="110.189" y="-439.412" width="2" height="4"/>
	<rect x="118.189" y="-443.434" width="2" height="4.021"/>
	<rect x="102.189" y="-443.434" width="2" height="4.021"/>
	<circle cx="119.189" cy="-434.392" r="1.5"/>
	<circle cx="111.189" cy="-430.423" r="1.5"/>
	<circle cx="103.189" cy="-434.434" r="1.5"/>
</g>
<g>
	<path d="M23.392-364.48c-1.596-7.445-8.207-13.029-16.127-13.029c-6.423,0-11.977,3.678-14.702,9.035
		c-0.266-0.018-0.53-0.04-0.8-0.04c-6.627,0-11.999,5.372-11.999,12c0,6.607,5.34,11.965,11.938,11.998v0.003h6.062v-2h-5.604
		l-0.447-0.003c-5.485-0.027-9.948-4.513-9.948-9.998c0-5.514,4.485-10,9.999-10c0.175,0,0.347,0.014,0.52,0.025l0.148,0.01
		l1.316,0.088l0.598-1.176c2.492-4.899,7.443-7.942,12.92-7.942c6.79,0,12.75,4.814,14.172,11.448l0.317,1.482l1.514,0.095
		c4.203,0.262,7.496,3.763,7.496,7.971c0,4.397-3.565,7.977-7.957,8c-0.05-0.003-0.093-0.005-0.137-0.007l-5.043,0.007h0.137v2
		h4.863v-0.007c0.046,0.001,0.091,0.007,0.137,0.007c5.521,0,10-4.477,10-10C32.764-359.824,28.619-364.155,23.392-364.48z"/>
	<polygon points="7.605,-344.51 9.375,-344.51 9.806,-344.51 11.815,-344.51 5.401,-353.671 3.764,-352.523 7.975,-346.51 
		6.204,-346.51 3.764,-346.51 5.035,-344.693 6.147,-343.104 12.125,-334.51 13.764,-335.656 7.786,-344.252 	"/>
</g>
<g>
	<rect x="99.189" y="-383.61" width="2" height="7.973"/>
	<rect x="80.189" y="-364.696" width="7.973" height="2"/>
	<rect x="84.862" y="-375.963" transform="matrix(0.7071 0.7071 -0.7071 0.7071 -239.1154 -172.6503)" width="7.974" height="2"/>
	<rect x="110.371" y="-378.945" transform="matrix(0.7071 0.7071 -0.7071 0.7071 -232.5162 -188.5742)" width="2" height="7.972"/>
	<path d="M129.701-357.82c-1.444-6.742-7.433-11.8-14.605-11.8c-2.185,0-4.258,0.47-6.127,1.313
		c-1.666-3.202-5.006-5.394-8.865-5.394c-5.522,0-10,4.477-10,9.999c0,2.46,0.898,4.702,2.373,6.442
		c-1.428,1.84-2.287,4.144-2.287,6.653c0,5.983,4.836,10.836,10.813,10.865v0.003h4.188v-2h-3.721l-0.457-0.003
		c-4.864-0.023-8.822-4.001-8.822-8.865c0-4.89,3.978-8.868,8.867-8.868c0.15,0,0.299,0.012,0.447,0.022l0.148,0.01l1.314,0.085
		l0.597-1.175c2.225-4.372,6.644-7.089,11.532-7.089c6.062,0,11.382,4.298,12.649,10.219l0.318,1.483l1.514,0.094
		c3.708,0.23,6.612,3.319,6.612,7.03c0,3.878-3.144,7.035-7.017,7.057c-0.042-0.003-0.079-0.005-0.117-0.005l-2.047,0.005h-3.819v2
		h5.819v-0.006c0.042,0.001,0.082,0.006,0.124,0.006c5.001,0,9.057-4.054,9.057-9.057
		C138.189-353.604,134.436-357.525,129.701-357.82z M101.781-361.438c-0.241-0.016-0.48-0.036-0.725-0.036
		c-2.766,0-5.281,1.041-7.2,2.743c-1.092-1.366-1.753-3.09-1.753-4.971c0-4.41,3.589-7.999,8-7.999c3.092,0,5.76,1.773,7.092,4.345
		C104.896-365.915,103.018-363.867,101.781-361.438z"/>
	<polygon points="114.031,-339.73 115.801,-339.73 116.231,-339.73 118.241,-339.73 111.827,-348.892 110.189,-347.744 
		114.4,-341.73 112.63,-341.73 110.189,-341.73 111.461,-339.914 112.573,-338.325 118.551,-329.73 120.189,-330.877 
		114.212,-339.473 	"/>
</g>
<g>
	<path d="M229.286-360.116c-1.444-6.742-7.433-11.8-14.605-11.8c-1.799,0-3.521,0.32-5.118,0.904
		c-0.949-5.108-5.404-8.98-10.788-8.98c-0.413,0-0.819,0.027-1.222,0.071c0.744,1.112,1.179,2.448,1.179,3.886c0,3.865-3.134,7-7,7
		c-1.438,0-2.773-0.435-3.886-1.179c-0.044,0.401-0.071,0.809-0.071,1.222c0,3.712,1.845,6.987,4.661,8.979
		c-1.653,1.907-2.661,4.389-2.661,7.111c0,5.983,4.836,10.836,10.813,10.865v0.003h4.188v-2h-3.721l-0.457-0.003
		c-4.864-0.023-8.822-4.001-8.822-8.865c0-4.89,3.978-8.868,8.867-8.868c0.15,0,0.299,0.012,0.447,0.022l0.148,0.01l1.314,0.085
		l0.597-1.175c2.225-4.372,6.644-7.089,11.532-7.089c6.062,0,11.382,4.298,12.649,10.219l0.318,1.483l1.514,0.094
		c3.708,0.23,6.612,3.319,6.612,7.03c0,3.878-3.144,7.035-7.017,7.057c-0.042-0.003-0.079-0.005-0.117-0.005l-2.047,0.005h-3.819v2
		h5.819v-0.006c0.042,0.001,0.082,0.006,0.124,0.006c5.001,0,9.057-4.054,9.057-9.057
		C237.774-355.899,234.021-359.821,229.286-360.116z M201.366-363.733c-0.241-0.016-0.48-0.036-0.725-0.036
		c-2.537,0-4.865,0.876-6.715,2.334c-2.012-1.294-3.486-3.354-3.976-5.776c0.582,0.117,1.178,0.177,1.78,0.177c4.963,0,9-4.037,9-9
		c0-0.603-0.06-1.198-0.177-1.78c3.733,0.753,6.629,3.824,7.134,7.64C204.976-368.731,202.761-366.477,201.366-363.733z"/>
	<polygon points="213.616,-342.026 215.386,-342.026 215.816,-342.026 217.826,-342.026 211.412,-351.188 209.774,-350.04 
		213.985,-344.026 212.215,-344.026 209.774,-344.026 211.046,-342.21 212.158,-340.621 218.136,-332.026 219.774,-333.173 
		213.797,-341.769 	"/>
</g>
<g>
	<path d="M330.171-363.98c-1.596-7.445-8.207-13.029-16.127-13.029c-6.423,0-11.977,3.678-14.702,9.035
		c-0.266-0.018-0.53-0.04-0.8-0.04c-6.627,0-11.999,5.372-11.999,12c0,6.607,5.34,11.965,11.938,11.998v0.003h1.062v-2h-0.604
		l-0.447-0.003c-5.485-0.027-9.948-4.513-9.948-9.998c0-5.514,4.485-10,9.999-10c0.175,0,0.347,0.014,0.52,0.025l0.148,0.01
		l1.316,0.088l0.598-1.176c2.492-4.899,7.443-7.942,12.92-7.942c6.79,0,12.75,4.814,14.172,11.448l0.317,1.482l1.514,0.095
		c4.203,0.262,7.496,3.763,7.496,7.971c0,4.397-3.565,7.977-7.957,8c-0.05-0.003-0.093-0.005-0.137-0.007l-0.906,0.007v2h0.863
		v-0.007c0.046,0.001,0.091,0.007,0.137,0.007c5.521,0,10-4.477,10-10C339.543-359.324,335.398-363.655,330.171-363.98z"/>
	
		<rect x="298.977" y="-346.016" transform="matrix(-0.5736 -0.8191 0.8191 -0.5736 761.8869 -293.4555)" width="11.183" height="1.999"/>
	
		<rect x="316.952" y="-346.016" transform="matrix(-0.5736 -0.8191 0.8191 -0.5736 790.1725 -278.7324)" width="11.183" height="1.999"/>
	<polygon points="315.385,-341.01 317.154,-341.01 317.585,-341.01 319.595,-341.01 313.181,-350.171 311.543,-349.023 
		315.754,-343.01 313.983,-343.01 311.543,-343.01 312.814,-341.193 313.927,-339.604 318.543,-333.01 320.182,-334.156 
		315.565,-340.752 	"/>
</g>
<g>
	<rect x="405.019" y="-383.447" width="2" height="7.973"/>
	<rect x="386.019" y="-364.533" width="7.973" height="2"/>
	<rect x="390.692" y="-375.8" transform="matrix(0.7071 0.7071 -0.7071 0.7071 -149.4247 -388.8563)" width="7.974" height="2"/>
	<rect x="416.2" y="-378.782" transform="matrix(0.7071 0.7071 -0.7071 0.7071 -142.8256 -404.7803)" width="2" height="7.972"/>
	<path d="M435.53-357.657c-1.444-6.742-7.433-11.8-14.605-11.8c-2.185,0-4.258,0.47-6.126,1.313
		c-1.667-3.202-5.007-5.394-8.866-5.394c-5.522,0-10,4.477-10,9.999c0,2.46,0.899,4.702,2.373,6.442
		c-1.429,1.84-2.287,4.144-2.287,6.653c0,5.983,4.836,10.836,10.813,10.865v0.003h0.188v-2l-0.178-0.003
		c-4.864-0.023-8.822-4.001-8.822-8.865c0-4.89,3.978-8.868,8.867-8.868c0.15,0,0.299,0.012,0.447,0.022l0.148,0.01l1.314,0.085
		l0.597-1.175c2.225-4.372,6.644-7.089,11.532-7.089c6.062,0,11.382,4.298,12.649,10.219l0.318,1.483l1.514,0.094
		c3.708,0.23,6.612,3.319,6.612,7.03c0,3.878-3.144,7.035-7.017,7.057c-0.042-0.003-0.079-0.005-0.117-0.005l-0.866,0.005v2h0.819
		v-0.006c0.042,0.001,0.082,0.006,0.124,0.006c5.001,0,9.057-4.054,9.057-9.057C444.019-353.44,440.265-357.362,435.53-357.657z
		 M407.61-361.274c-0.241-0.016-0.48-0.036-0.725-0.036c-2.766,0-5.282,1.042-7.2,2.743c-1.092-1.367-1.753-3.09-1.753-4.971
		c0-4.41,3.589-7.999,8-7.999c3.091,0,5.76,1.773,7.091,4.345C410.726-365.753,408.846-363.704,407.61-361.274z"/>
	
		<rect x="405.44" y="-341.577" transform="matrix(-0.5736 -0.8191 0.8191 -0.5736 925.7854 -199.2663)" width="11.183" height="1.999"/>
	
		<rect x="423.415" y="-341.577" transform="matrix(-0.5736 -0.8191 0.8191 -0.5736 954.0709 -184.5431)" width="11.183" height="1.999"/>
	<polygon points="421.848,-336.571 423.617,-336.571 424.048,-336.571 426.058,-336.571 419.644,-345.732 418.006,-344.585 
		422.217,-338.571 420.446,-338.571 418.006,-338.571 419.277,-336.755 420.39,-335.166 425.006,-328.571 426.645,-329.718 
		422.028,-336.313 	"/>
</g>
<g>
	<path d="M537.368-360.615c-1.444-6.742-7.433-11.8-14.605-11.8c-1.799,0-3.522,0.32-5.118,0.904
		c-0.949-5.108-5.404-8.98-10.788-8.98c-0.413,0-0.819,0.027-1.222,0.071c0.744,1.112,1.179,2.448,1.179,3.886c0,3.865-3.134,7-7,7
		c-1.438,0-2.773-0.435-3.886-1.179c-0.044,0.401-0.071,0.809-0.071,1.222c0,3.712,1.845,6.987,4.661,8.979
		c-1.653,1.907-2.661,4.389-2.661,7.111c0,5.983,4.836,10.836,10.813,10.865v0.003h0.188v-2l-0.178-0.003
		c-4.864-0.023-8.822-4.001-8.822-8.865c0-4.89,3.978-8.868,8.867-8.868c0.15,0,0.299,0.012,0.447,0.022l0.148,0.01l1.314,0.085
		l0.597-1.175c2.225-4.372,6.644-7.089,11.532-7.089c6.062,0,11.382,4.298,12.649,10.219l0.318,1.483l1.514,0.094
		c3.708,0.23,6.612,3.319,6.612,7.03c0,3.878-3.144,7.035-7.017,7.057c-0.042-0.003-0.079-0.005-0.117-0.005l-0.866,0.005v2h0.819
		v-0.006c0.042,0.001,0.082,0.006,0.124,0.006c5.001,0,9.057-4.054,9.057-9.057C545.856-356.398,542.103-360.32,537.368-360.615z
		 M509.448-364.232c-0.241-0.016-0.48-0.036-0.725-0.036c-2.537,0-4.865,0.876-6.715,2.334c-2.012-1.294-3.487-3.354-3.976-5.776
		c0.582,0.117,1.178,0.177,1.78,0.177c4.963,0,9-4.037,9-9c0-0.603-0.06-1.198-0.177-1.78c3.733,0.753,6.629,3.824,7.133,7.641
		C513.059-369.23,510.844-366.975,509.448-364.232z"/>
	
		<rect x="507.277" y="-344.535" transform="matrix(-0.5736 -0.8191 0.8191 -0.5736 1088.4628 -120.5056)" width="11.183" height="1.999"/>
	
		<rect x="525.252" y="-344.535" transform="matrix(-0.5736 -0.8191 0.8191 -0.5736 1116.7483 -105.7824)" width="11.183" height="1.999"/>
	<polygon points="523.685,-339.529 525.454,-339.529 525.885,-339.529 527.895,-339.529 521.48,-348.69 519.843,-347.543 
		524.054,-341.529 522.283,-341.529 519.843,-341.529 521.114,-339.713 522.227,-338.124 526.843,-331.529 528.481,-332.676 
		523.865,-339.271 	"/>
</g>
<g>
	<g>
		<path d="M126.806-274.16c-1.596-7.445-8.207-13.029-16.127-13.029c-6.423,0-11.977,3.678-14.702,9.035
			c-0.266-0.018-0.53-0.04-0.8-0.04c-6.627,0-11.999,5.372-11.999,12c0,6.607,5.34,11.965,11.938,11.998v0.003h2.062v-2h-1.604
			l-0.447-0.003c-5.485-0.027-9.948-4.513-9.948-9.998c0-5.514,4.485-10,9.999-10c0.175,0,0.347,0.014,0.52,0.025l0.148,0.01
			l1.316,0.088l0.598-1.176c2.492-4.899,7.443-7.942,12.92-7.942c6.79,0,12.75,4.814,14.172,11.448l0.317,1.482l1.514,0.095
			c4.203,0.262,7.496,3.763,7.496,7.971c0,4.397-3.565,7.977-7.957,8c-0.05-0.003-0.093-0.005-0.137-0.007l-2.043,0.007h-2.863v2
			h4.863v-0.007c0.046,0.001,0.091,0.007,0.137,0.007c5.521,0,10-4.477,10-10C136.178-269.504,132.033-273.835,126.806-274.16z"/>
	</g>
	<g>
		<circle cx="101.678" cy="-260.617" r="1.5"/>
	</g>
	<g>
		<circle cx="105.678" cy="-254.693" r="1.5"/>
	</g>
	<g>
		<circle cx="113.678" cy="-254.693" r="1.5"/>
	</g>
	<g>
		<circle cx="109.678" cy="-260.617" r="1.5"/>
	</g>
	<g>
		<circle cx="117.678" cy="-260.617" r="1.5"/>
	</g>
	<g>
		<circle cx="101.678" cy="-248.672" r="1.5"/>
	</g>
	<g>
		<circle cx="109.678" cy="-248.672" r="1.5"/>
	</g>
	<g>
		<circle cx="117.678" cy="-248.672" r="1.5"/>
	</g>
</g>
<g>
	<g>
		<rect x="202.592" y="-289.638" width="2" height="7.973"/>
	</g>
	<g>
		<rect x="183.592" y="-270.724" width="7.973" height="2"/>
	</g>
	<g>
		<rect x="188.265" y="-281.99" transform="matrix(0.7071 0.7071 -0.7071 0.7071 -142.3808 -218.2428)" width="7.974" height="2"/>
	</g>
	<g>
		<rect x="213.774" y="-284.972" transform="matrix(0.7071 0.7071 -0.7071 0.7071 -135.7816 -234.1667)" width="2" height="7.972"/>
	</g>
	<g>
		<path d="M233.104-263.848c-1.444-6.742-7.433-11.8-14.605-11.8c-2.185,0-4.258,0.47-6.127,1.313
			c-1.666-3.202-5.006-5.394-8.865-5.394c-5.522,0-10,4.477-10,9.999c0,2.46,0.898,4.702,2.373,6.442
			c-1.428,1.84-2.287,4.144-2.287,6.653c0,5.983,4.836,10.836,10.813,10.865v0.003h1.188v-2h-0.721l-0.457-0.003
			c-4.864-0.023-8.822-4.001-8.822-8.865c0-4.89,3.978-8.868,8.867-8.868c0.15,0,0.299,0.012,0.447,0.022l0.148,0.01l1.314,0.085
			l0.597-1.175c2.225-4.372,6.644-7.089,11.532-7.089c6.062,0,11.382,4.298,12.649,10.219l0.318,1.483l1.514,0.094
			c3.708,0.23,6.612,3.319,6.612,7.03c0,3.878-3.144,7.035-7.017,7.057c-0.042-0.003-0.079-0.005-0.117-0.005l-2.047,0.005h-1.819v2
			h3.819v-0.006c0.042,0.001,0.082,0.006,0.124,0.006c5.001,0,9.057-4.054,9.057-9.057
			C241.592-259.631,237.838-263.553,233.104-263.848z M205.184-267.465c-0.241-0.016-0.48-0.036-0.725-0.036
			c-2.766,0-5.281,1.042-7.2,2.743c-1.092-1.367-1.753-3.09-1.753-4.971c0-4.41,3.589-7.999,8-7.999c3.092,0,5.76,1.773,7.092,4.345
			C208.299-271.943,206.42-269.895,205.184-267.465z"/>
	</g>
	<g>
		<circle cx="209.081" cy="-252.254" r="1.5"/>
	</g>
	<g>
		<circle cx="213.081" cy="-246.254" r="1.5"/>
	</g>
	<g>
		<circle cx="221.081" cy="-246.254" r="1.5"/>
	</g>
	<g>
		<circle cx="217.081" cy="-252.254" r="1.5"/>
	</g>
	<g>
		<circle cx="225.081" cy="-252.254" r="1.5"/>
	</g>
	<g>
		<circle cx="209.081" cy="-240.232" r="1.5"/>
	</g>
	<g>
		<circle cx="217.081" cy="-240.232" r="1.5"/>
	</g>
	<g>
		<circle cx="225.081" cy="-240.232" r="1.5"/>
	</g>
</g>
<g>
	<g>
		<path d="M329.055-267.804c-1.444-6.742-7.433-11.8-14.605-11.8c-1.799,0-3.521,0.32-5.118,0.904
			c-0.949-5.108-5.404-8.98-10.788-8.98c-0.413,0-0.819,0.027-1.222,0.071c0.744,1.112,1.179,2.448,1.179,3.886c0,3.865-3.134,7-7,7
			c-1.438,0-2.773-0.435-3.886-1.179c-0.044,0.401-0.071,0.809-0.071,1.222c0,3.712,1.845,6.987,4.661,8.979
			c-1.653,1.907-2.661,4.389-2.661,7.111c0,5.983,4.836,10.836,10.813,10.865v0.003h1.188v-2h-0.721l-0.457-0.003
			c-4.864-0.023-8.822-4.001-8.822-8.865c0-4.89,3.978-8.868,8.867-8.868c0.15,0,0.299,0.012,0.447,0.022l0.148,0.01l1.314,0.085
			l0.597-1.175c2.225-4.372,6.644-7.089,11.532-7.089c6.062,0,11.382,4.298,12.649,10.219l0.318,1.483l1.514,0.094
			c3.708,0.23,6.612,3.319,6.612,7.03c0,3.878-3.144,7.035-7.017,7.057c-0.042-0.003-0.079-0.005-0.117-0.005l-2.047,0.005h-1.819v2
			h3.819v-0.006c0.042,0.001,0.082,0.006,0.124,0.006c5.001,0,9.057-4.054,9.057-9.057
			C337.543-263.587,333.789-267.509,329.055-267.804z M301.135-271.421c-0.241-0.016-0.48-0.036-0.725-0.036
			c-2.537,0-4.865,0.876-6.715,2.334c-2.012-1.294-3.486-3.354-3.976-5.776c0.582,0.117,1.178,0.177,1.78,0.177c4.963,0,9-4.037,9-9
			c0-0.603-0.06-1.198-0.177-1.78c3.733,0.753,6.629,3.824,7.134,7.64C304.744-276.419,302.529-274.164,301.135-271.421z"/>
	</g>
	<g>
		<circle cx="305.043" cy="-256.211" r="1.5"/>
	</g>
	<g>
		<circle cx="309.043" cy="-250.211" r="1.5"/>
	</g>
	<g>
		<circle cx="317.043" cy="-250.211" r="1.5"/>
	</g>
	<g>
		<circle cx="313.043" cy="-256.211" r="1.5"/>
	</g>
	<g>
		<circle cx="321.043" cy="-256.211" r="1.5"/>
	</g>
	<g>
		<circle cx="305.043" cy="-244.189" r="1.5"/>
	</g>
	<g>
		<circle cx="313.043" cy="-244.189" r="1.5"/>
	</g>
	<g>
		<circle cx="321.043" cy="-244.189" r="1.5"/>
	</g>
</g>
<g>
	<path d="M640.22-366.689c-1.596-7.445-8.207-13.029-16.127-13.029c-6.423,0-11.977,3.678-14.702,9.035
		c-0.266-0.018-0.53-0.04-0.8-0.04c-6.627,0-11.999,5.372-11.999,12c0,6.607,5.34,11.965,11.938,11.998v0.003h2.062v-2h-1.604
		l-0.447-0.003c-5.485-0.027-9.948-4.513-9.948-9.998c0-5.514,4.485-10,9.999-10c0.175,0,0.347,0.014,0.52,0.025l0.148,0.01
		l1.316,0.088l0.598-1.176c2.492-4.899,7.443-7.942,12.92-7.942c6.79,0,12.75,4.814,14.172,11.448l0.317,1.482l1.514,0.095
		c4.203,0.262,7.496,3.763,7.496,7.971c0,4.397-3.565,7.977-7.957,8c-0.05-0.003-0.093-0.005-0.137-0.007l-2.043,0.007h-2.863v2
		h4.863v-0.007c0.046,0.001,0.091,0.007,0.137,0.007c5.521,0,10-4.477,10-10C649.592-362.033,645.447-366.364,640.22-366.689z"/>
	<circle cx="614.592" cy="-339.219" r="1.5"/>
	<circle cx="622.592" cy="-333.219" r="1.5"/>
	<circle cx="630.592" cy="-337.219" r="1.5"/>
	<rect x="613.592" y="-355.694" width="2" height="11.976"/>
	<polygon points="623.592,-337.754 623.592,-339.694 623.592,-351.694 621.592,-351.694 621.592,-339.694 621.592,-337.754 
		621.592,-337.719 623.592,-337.719 	"/>
	<polygon points="631.592,-341.941 631.592,-343.694 631.592,-355.694 629.592,-355.694 629.592,-343.694 629.592,-341.941 
		629.592,-341.719 631.592,-341.719 	"/>
</g>
<g>
	<rect x="-108.157" y="-295.076" width="2" height="7.973"/>
	<rect x="-127.157" y="-276.162" width="7.973" height="2"/>
	<rect x="-122.484" y="-287.429" transform="matrix(0.7071 0.7071 -0.7071 0.7071 -237.2427 -0.103)" width="7.974" height="2"/>
	<rect x="-96.975" y="-290.411" transform="matrix(0.7071 0.7071 -0.7071 0.7071 -230.6435 -16.0269)" width="2" height="7.972"/>
	<path d="M-77.646-269.286c-1.444-6.742-7.433-11.8-14.605-11.8c-2.185,0-4.258,0.47-6.126,1.313
		c-1.667-3.202-5.007-5.394-8.866-5.394c-5.522,0-10,4.477-10,9.999c0,2.46,0.899,4.702,2.373,6.442
		c-1.429,1.84-2.287,4.144-2.287,6.653c0,5.983,4.836,10.836,10.813,10.865v0.003h1.188v-2h-0.721l-0.457-0.003
		c-4.864-0.023-8.822-4.001-8.822-8.865c0-4.89,3.978-8.868,8.867-8.868c0.15,0,0.299,0.012,0.447,0.022l0.148,0.01l1.314,0.085
		l0.597-1.175c2.225-4.372,6.644-7.089,11.532-7.089c6.062,0,11.382,4.298,12.649,10.219l0.318,1.483l1.514,0.094
		c3.708,0.23,6.612,3.319,6.612,7.03c0,3.878-3.144,7.035-7.017,7.057c-0.042-0.003-0.079-0.005-0.117-0.005l-2.047,0.005h-0.819v2
		h2.819v-0.006c0.042,0.001,0.082,0.006,0.124,0.006c5.001,0,9.057-4.054,9.057-9.057
		C-69.157-265.069-72.911-268.991-77.646-269.286z M-105.565-272.903c-0.241-0.016-0.48-0.036-0.725-0.036
		c-2.766,0-5.282,1.041-7.2,2.743c-1.092-1.366-1.753-3.09-1.753-4.971c0-4.41,3.589-7.999,8-7.999c3.091,0,5.76,1.773,7.091,4.345
		C-102.45-277.381-104.33-275.333-105.565-272.903z"/>
	<circle cx="-101.167" cy="-242.716" r="1.5"/>
	<circle cx="-93.167" cy="-236.716" r="1.5"/>
	<circle cx="-85.167" cy="-240.716" r="1.5"/>
	<rect x="-102.167" y="-259.191" width="2" height="11.976"/>
	<polygon points="-92.167,-241.251 -92.167,-243.191 -92.167,-255.191 -94.167,-255.191 -94.167,-243.191 -94.167,-241.251 
		-94.167,-241.216 -92.167,-241.216 	"/>
	<polygon points="-84.167,-245.438 -84.167,-247.191 -84.167,-259.191 -86.167,-259.191 -86.167,-247.191 -86.167,-245.438 
		-86.167,-245.216 -84.167,-245.216 	"/>
</g>
<g>
	<path d="M22.957-272.284c-1.444-6.742-7.433-11.8-14.605-11.8c-1.799,0-3.522,0.32-5.118,0.904
		c-0.949-5.108-5.404-8.98-10.788-8.98c-0.413,0-0.819,0.027-1.222,0.071c0.744,1.112,1.179,2.448,1.179,3.886c0,3.865-3.134,7-7,7
		c-1.438,0-2.773-0.435-3.886-1.179c-0.044,0.401-0.071,0.809-0.071,1.222c0,3.712,1.845,6.987,4.661,8.979
		c-1.653,1.907-2.661,4.389-2.661,7.111c0,5.983,4.836,10.836,10.813,10.865v0.003h1.188v-2h-0.721l-0.457-0.003
		c-4.864-0.023-8.822-4.001-8.822-8.865c0-4.89,3.978-8.868,8.867-8.868c0.15,0,0.299,0.012,0.447,0.022l0.148,0.01l1.314,0.085
		l0.597-1.175c2.225-4.372,6.644-7.089,11.532-7.089c6.062,0,11.382,4.298,12.649,10.219l0.318,1.483l1.514,0.094
		c3.708,0.23,6.612,3.319,6.612,7.03c0,3.878-3.144,7.035-7.017,7.057c-0.042-0.003-0.079-0.005-0.117-0.005l-2.047,0.005h-0.819v2
		h2.819v-0.006c0.042,0.001,0.082,0.006,0.124,0.006c5.001,0,9.057-4.054,9.057-9.057C31.445-268.067,27.691-271.989,22.957-272.284
		z M-4.963-275.901c-0.241-0.016-0.48-0.036-0.725-0.036c-2.537,0-4.865,0.876-6.715,2.334c-2.012-1.294-3.487-3.354-3.976-5.776
		c0.582,0.117,1.178,0.177,1.78,0.177c4.963,0,9-4.037,9-9c0-0.603-0.06-1.198-0.177-1.78c3.733,0.753,6.629,3.824,7.133,7.64
		C-1.353-280.899-3.567-278.645-4.963-275.901z"/>
	<circle cx="-0.555" cy="-245.71" r="1.5"/>
	<circle cx="7.445" cy="-239.71" r="1.5"/>
	<circle cx="15.445" cy="-243.71" r="1.5"/>
	<rect x="-1.555" y="-262.186" width="2" height="11.976"/>
	<polygon points="8.445,-244.245 8.445,-246.186 8.445,-258.186 6.445,-258.186 6.445,-246.186 6.445,-244.245 6.445,-244.21 
		8.445,-244.21 	"/>
	<polygon points="16.445,-248.433 16.445,-250.186 16.445,-262.186 14.445,-262.186 14.445,-250.186 14.445,-248.433 
		14.445,-248.21 16.445,-248.21 	"/>
</g>
<g>
	<rect x="-125.157" y="-167.844" width="56" height="2"/>
	<rect x="-121.157" y="-161.844" width="50" height="2"/>
	<rect x="-115.157" y="-155.844" width="36" height="2"/>
	<rect x="-123.157" y="-173.844" width="52" height="2"/>
	<path d="M-111.283-181.849c0.175,0,0.347,0.014,0.519,0.025l0.149,0.01l1.316,0.088l0.598-1.176
		c2.493-4.899,7.443-7.942,12.92-7.942c6.79,0,12.75,4.814,14.171,11.448l0.318,1.482l1.514,0.095
		c1.207,0.075,2.335,0.425,3.336,0.975h3.286c-1.678-1.703-3.957-2.813-6.498-2.971c-1.596-7.445-8.207-13.029-16.127-13.029
		c-6.423,0-11.977,3.678-14.702,9.035c-0.266-0.018-0.53-0.04-0.8-0.04c-4.843,0-9.004,2.874-10.9,7.005h2.251
		C-118.201-179.83-114.977-181.849-111.283-181.849z"/>
</g>
<g>
	<rect x="-4.055" y="-195.358" width="2" height="7.973"/>
	<rect x="-23.055" y="-176.444" width="7.973" height="2"/>
	<rect x="-18.382" y="-187.711" transform="matrix(0.7071 0.7071 -0.7071 0.7071 -136.2406 -44.5079)" width="7.974" height="2"/>
	<rect x="7.127" y="-190.693" transform="matrix(0.7071 0.7071 -0.7071 0.7071 -129.6415 -60.4318)" width="2" height="7.972"/>
	<rect x="-14.055" y="-161.484" width="50" height="2"/>
	<rect x="-10.055" y="-155.484" width="44" height="2"/>
	<rect x="-4.055" y="-150.484" width="30" height="2"/>
	<rect x="-12.055" y="-167.484" width="46" height="2"/>
	<path d="M-11.146-169.484h0.771h1.927h1.012c1.472-1.087,3.283-1.737,5.249-1.737c0.15,0,0.299,0.012,0.447,0.022l0.148,0.01
		l1.314,0.085l0.597-1.175c2.225-4.372,6.644-7.089,11.532-7.089c5.945,0,11.168,4.139,12.563,9.884h2.043v-0.084
		c-1.444-6.742-7.433-11.8-14.605-11.8c-2.185,0-4.258,0.47-6.126,1.313c-1.667-3.202-5.007-5.394-8.866-5.394
		c-5.522,0-10,4.477-10,9.999C-13.141-173.208-12.393-171.149-11.146-169.484z M-3.141-183.448c3.091,0,5.76,1.773,7.091,4.345
		c-2.298,1.44-4.178,3.488-5.413,5.918c-0.241-0.016-0.48-0.036-0.725-0.036c-2.764,0-5.274,1.045-7.189,2.745
		c-1.097-1.366-1.764-3.089-1.764-4.973C-11.141-179.859-7.552-183.448-3.141-183.448z"/>
</g>
<g>
	<rect x="84.689" y="-164.922" width="50" height="2"/>
	<rect x="88.689" y="-158.922" width="44" height="2"/>
	<rect x="94.689" y="-153.922" width="30" height="2"/>
	<rect x="86.689" y="-170.922" width="46" height="2"/>
	<path d="M88.332-172.922h0.037h1.884h1.055c1.472-1.087,3.283-1.737,5.249-1.737c0.15,0,0.299,0.012,0.447,0.022l0.148,0.01
		l1.314,0.085l0.597-1.175c2.225-4.372,6.644-7.089,11.532-7.089c5.945,0,11.168,4.139,12.563,9.884h2.043v-0.084
		c-1.444-6.742-7.433-11.8-14.605-11.8c-1.799,0-3.521,0.32-5.117,0.903c-0.945-5.111-5.402-8.987-10.789-8.987
		c-0.413,0-0.819,0.027-1.222,0.071c0.744,1.112,1.179,2.448,1.179,3.886c0,3.865-3.134,7-7,7c-1.438,0-2.773-0.435-3.886-1.179
		c-0.044,0.401-0.071,0.809-0.071,1.222C83.689-178.186,85.525-174.915,88.332-172.922z M87.646-179.933c4.963,0,9-4.037,9-9
		c0-0.603-0.06-1.198-0.177-1.78c3.735,0.753,6.633,3.828,7.134,7.647c-2.712,1.443-4.927,3.699-6.322,6.442
		c-0.241-0.016-0.48-0.036-0.725-0.036c-2.534,0-4.855,0.879-6.701,2.335c-2.02-1.293-3.5-3.356-3.989-5.785
		C86.448-179.992,87.044-179.933,87.646-179.933z"/>
</g>
<g>
	<path d="M216.581-161.908h-19.474l-0.578-0.003c-5.485-0.027-9.948-4.513-9.948-9.998c0-5.514,4.485-10,9.999-10
		c0.175,0,0.347,0.014,0.519,0.025l0.149,0.01l1.316,0.088l0.598-1.176c2.493-4.899,7.443-7.942,12.92-7.942
		c6.79,0,12.75,4.814,14.171,11.448l0.318,1.482l1.514,0.095c1.822,0.113,3.463,0.845,4.746,1.971h2.732
		c-1.707-2.262-4.348-3.78-7.354-3.967c-1.596-7.445-8.207-13.029-16.127-13.029c-6.423,0-11.977,3.678-14.702,9.035
		c-0.266-0.018-0.53-0.04-0.8-0.04c-6.627,0-11.999,5.372-11.999,12c0,6.607,5.34,11.965,11.938,11.998v0.003h20.062
		c2.205,0,4,1.794,4,4s-1.795,4-4,4v2c3.314,0,6-2.686,6-6C222.581-159.222,219.896-161.908,216.581-161.908z"/>
	<path d="M220.581-165.908h-15.988v2h15.988c3.314,0,6-2.687,6-6c0-3.314-2.686-6-6-6v2c2.205,0,4,1.794,4,4
		S222.786-165.908,220.581-165.908z"/>
	<path d="M233.581-171.908c1.654,0,3,1.346,3,3s-1.346,3-3,3c-0.043,0-0.083-0.011-0.126-0.013h-4.862
		c0.003,0.005,0.009,0.008,0.012,0.013h-0.023v2h5.5v-0.051c2.523-0.254,4.5-2.358,4.5-4.949c0-2.762-2.238-5-5-5V-171.908z"/>
	<path d="M237.581-161.908h-13v2h9.022c-0.004,0.005-0.008,0.008-0.011,0.013h3.862c0.043-0.002,0.083-0.013,0.126-0.013
		c1.654,0,3,1.346,3,3s-1.346,3-3,3v2c2.762,0,5-2.238,5-5S240.343-161.908,237.581-161.908z"/>
	<rect x="198.581" y="-165.908" width="4" height="2"/>
</g>
<path d="M9.02-561.012c6.95,1.305,12.226,7.419,12.226,14.742c0,8.272-6.729,15.002-15,15.002c-6.79,0-12.531-4.49-14.366-10.728
	c1.398,0.461,2.867,0.698,4.366,0.698c7.72,0,14-6.281,14-14.001C10.245-557.282,9.821-559.227,9.02-561.012 M6.245-563.269
	c-0.338,0-0.668,0.031-1,0.051c1.861,2.113,3,4.881,3,7.92c0,6.627-5.372,12.001-12,12.001c-2.599,0-4.998-0.835-6.963-2.239
	c0.387,9.047,7.821,16.269,16.963,16.269c9.39,0,17-7.612,17-17.002S15.635-563.269,6.245-563.269L6.245-563.269z"/>
<g>
	<path d="M-97.15-558.273c-7.18,0-13,5.819-13,12.999c0,7.181,5.82,13.002,13,13.002s13-5.821,13-13.002
		C-84.15-552.454-89.971-558.273-97.15-558.273z M-97.15-534.272c-6.065,0-11-4.936-11-11.002c0-6.064,4.935-10.999,11-10.999
		s11,4.935,11,10.999C-86.15-539.208-91.085-534.272-97.15-534.272z"/>
	<rect x="-98.157" y="-571.268" width="2" height="10"/>
	<rect x="-98.157" y="-529.268" width="2" height="10"/>
	<rect x="-123.15" y="-546.268" width="9.993" height="2"/>
	<rect x="-81.157" y="-546.268" width="10.007" height="2"/>
	<rect x="-83.457" y="-565.182" transform="matrix(0.7071 0.7071 -0.7071 0.7071 -420.1148 -105.7072)" width="2" height="10.409"/>
	
		<rect x="-112.866" y="-535.773" transform="matrix(-0.7071 -0.7071 0.7071 -0.7071 184.2006 -984.8373)" width="2" height="10.41"/>
	<rect x="-117.066" y="-560.972" transform="matrix(0.7071 0.7071 -0.7071 0.7071 -428.7237 -84.9138)" width="10.409" height="2"/>
	<rect x="-87.658" y="-531.563" transform="matrix(-0.7072 -0.7071 0.7071 -0.7072 234.3797 -964.0519)" width="10.41" height="2"/>
</g>
<g>
	<rect x="301.016" y="-200.406" width="2" height="7.973"/>
	<rect x="282.043" y="-181.42" width="7.973" height="2"/>
	<rect x="286.769" y="-192.639" transform="matrix(0.7071 0.7071 -0.7071 0.7071 -50.3486 -261.7251)" width="7.974" height="2"/>
	<rect x="312.277" y="-195.621" transform="matrix(0.7071 0.7071 -0.7071 0.7071 -43.7494 -277.649)" width="2" height="7.972"/>
	<path d="M316.043-158.406l0.005-0.007h-12.536l-0.594-0.003c-4.864-0.024-8.822-4.001-8.822-8.865c0-4.89,3.978-8.868,8.867-8.868
		c0.15,0,0.299,0.012,0.447,0.021l0.148,0.011l1.314,0.085l0.597-1.174c2.225-4.373,6.644-7.09,11.532-7.09
		c5.916,0,11.114,4.099,12.54,9.8h2.065c-1.444-6.742-7.433-11.8-14.605-11.8c-2.185,0-4.258,0.47-6.126,1.313
		c-1.667-3.202-5.007-5.394-8.866-5.394c-5.522,0-10,4.477-10,9.999c0,2.46,0.899,4.702,2.373,6.442
		c-1.429,1.84-2.287,4.144-2.287,6.653c0,5.983,4.836,10.836,10.813,10.865v0.003h13.135v0.007c2.205,0,4,1.794,4,4s-1.795,4-4,4v2
		c3.314,0,6-2.686,6-6C322.043-155.72,319.357-158.406,316.043-158.406z M302.01-188.376c3.091,0,5.76,1.773,7.091,4.345
		c-2.298,1.439-4.178,3.488-5.413,5.918c-0.241-0.016-0.48-0.036-0.725-0.036c-2.766,0-5.282,1.042-7.2,2.743
		c-1.092-1.367-1.753-3.09-1.753-4.971C294.01-184.787,297.599-188.376,302.01-188.376z"/>
	<path d="M320.043-162.406h-9.988v2h9.988c3.314,0,6-2.687,6-6c0-3.314-2.686-6-6-6v2c2.205,0,4,1.794,4,4
		S322.248-162.406,320.043-162.406z"/>
	<path d="M328.066-162.406h-0.023v2h5.5v-0.051c2.523-0.254,4.5-2.358,4.5-4.949c0-2.762-2.238-5-5-5v2c1.654,0,3,1.346,3,3
		s-1.346,3-3,3c-0.043,0-0.083-0.011-0.126-0.013h-4.862C328.058-162.414,328.063-162.41,328.066-162.406z"/>
	<path d="M337.043-158.406h-13v2h9.022c-0.004,0.004-0.008,0.008-0.011,0.013h3.862c0.043-0.002,0.083-0.013,0.126-0.013
		c1.654,0,3,1.346,3,3s-1.346,3-3,3v2c2.762,0,5-2.238,5-5S339.805-158.406,337.043-158.406z"/>
	<rect x="304.043" y="-162.406" width="4" height="2"/>
</g>
<g>
	<path d="M416.005-160.412l0.005-0.007h-12.536l-0.594-0.003c-4.864-0.024-8.822-4.001-8.822-8.865c0-4.89,3.978-8.868,8.867-8.868
		c0.15,0,0.299,0.012,0.447,0.021l0.148,0.011l1.314,0.085l0.597-1.174c2.225-4.373,6.644-7.09,11.532-7.09
		c5.916,0,11.114,4.099,12.54,9.8h2.065c-1.444-6.742-7.433-11.8-14.605-11.8c-1.806,0-3.536,0.322-5.138,0.91
		c-0.938-5.123-5.4-9.01-10.794-9.01c-0.413,0-0.819,0.027-1.222,0.071c0.744,1.112,1.179,2.448,1.179,3.886c0,3.865-3.134,7-7,7
		c-1.438,0-2.773-0.435-3.886-1.179c-0.044,0.401-0.071,0.809-0.071,1.222c0,3.725,1.858,7.009,4.69,8.998
		c-1.655,1.907-2.665,4.392-2.665,7.116c0,5.983,4.836,10.836,10.813,10.865v0.003h13.135v0.007c2.205,0,4,1.794,4,4s-1.795,4-4,4v2
		c3.314,0,6-2.686,6-6C422.005-157.726,419.319-160.412,416.005-160.412z M392.209-183.621c0.582,0.117,1.178,0.177,1.78,0.177
		c4.963,0,9-4.037,9-9c0-0.603-0.06-1.198-0.177-1.78c3.744,0.755,6.646,3.842,7.138,7.674c-2.702,1.444-4.909,3.696-6.301,6.432
		c-0.241-0.016-0.48-0.036-0.725-0.036c-2.535,0-4.861,0.875-6.71,2.33C394.187-179.117,392.7-181.186,392.209-183.621z"/>
	<path d="M420.005-164.412h-9.988v2h9.988c3.314,0,6-2.687,6-6c0-3.314-2.686-6-6-6v2c2.205,0,4,1.794,4,4
		S422.21-164.412,420.005-164.412z"/>
	<path d="M428.028-164.412h-0.023v2h5.5v-0.051c2.523-0.254,4.5-2.358,4.5-4.949c0-2.762-2.238-5-5-5v2c1.654,0,3,1.346,3,3
		s-1.346,3-3,3c-0.043,0-0.083-0.011-0.126-0.013h-4.862C428.02-164.42,428.025-164.416,428.028-164.412z"/>
	<path d="M437.005-160.412h-13v2h9.022c-0.004,0.004-0.008,0.008-0.011,0.013h3.862c0.043-0.002,0.083-0.013,0.126-0.013
		c1.654,0,3,1.346,3,3s-1.346,3-3,3v2c2.762,0,5-2.238,5-5S439.767-160.412,437.005-160.412z"/>
	<rect x="404.005" y="-164.412" width="4" height="2"/>
</g>
<g>
	<rect x="516.897" y="-197.844" width="2" height="10"/>
	<rect x="491.904" y="-172.844" width="9.993" height="2"/>
	<rect x="531.597" y="-191.758" transform="matrix(0.7071 0.7071 -0.7071 0.7071 24.0811 -431.2432)" width="2" height="10.409"/>
	<rect x="497.988" y="-187.548" transform="matrix(0.7071 0.7071 -0.7071 0.7071 15.4722 -410.4498)" width="10.409" height="2"/>
	<path d="M521.897-157.844h-24v2h24c2.205,0,4,1.794,4,4s-1.795,4-4,4v2c3.314,0,6-2.686,6-6
		C527.897-155.157,525.212-157.844,521.897-157.844z"/>
	<path d="M533.921-161.844h-0.023v2h5.5v-0.051c2.523-0.254,4.5-2.358,4.5-4.949c0-2.762-2.238-5-5-5v2c1.654,0,3,1.346,3,3
		s-1.346,3-3,3c-0.043,0-0.083-0.011-0.126-0.013h-4.862C533.912-161.852,533.918-161.848,533.921-161.844z"/>
	<path d="M542.897-157.844h-13v2h9.022c-0.004,0.004-0.008,0.008-0.011,0.013h3.862c0.043-0.002,0.083-0.013,0.126-0.013
		c1.654,0,3,1.346,3,3s-1.346,3-3,3v2c2.762,0,5-2.238,5-5S545.659-157.844,542.897-157.844z"/>
	<path d="M509.606-161.844h-11.709v2h12.012h0.822h15.166c3.314,0,6-2.687,6-6c0-3.314-2.686-6-6-6v2c2.205,0,4,1.794,4,4
		s-1.795,4-4,4h-12.538c-3.802-1.734-6.455-5.563-6.455-10.007c0-6.064,4.935-10.999,11-10.999c5.384,0,9.868,3.891,10.81,9.006
		h2.021c-0.961-6.23-6.331-11.006-12.831-11.006c-7.18,0-13,5.819-13,12.999C504.904-167.825,506.734-164.229,509.606-161.844z"/>
</g>
<g>
	<path d="M622.124-164.4h-24v2h24c2.205,0,4,1.794,4,4s-1.795,4-4,4v2c3.314,0,6-2.686,6-6
		C628.124-161.714,625.438-164.4,622.124-164.4z"/>
	<path d="M639.624-166.4v-0.051c2.523-0.254,4.5-2.358,4.5-4.949c0-2.762-2.238-5-5-5v2c1.654,0,3,1.346,3,3s-1.346,3-3,3
		c-0.043,0-0.083-0.011-0.126-0.013h-4.862c0.004,0.005,0.009,0.009,0.012,0.013h-0.023v2H639.624z"/>
	<path d="M643.124-164.4h-13v2h9.022c-0.003,0.004-0.007,0.008-0.011,0.013h3.862c0.043-0.002,0.083-0.013,0.126-0.013
		c1.654,0,3,1.346,3,3s-1.346,3-3,3v2c2.762,0,5-2.238,5-5S645.886-164.4,643.124-164.4z"/>
	<path d="M610.958-166.4h15.166c3.314,0,6-2.687,6-6c0-3.314-2.686-6-6-6v2c2.205,0,4,1.794,4,4s-1.795,4-4,4h-12.586
		c-2.596-1.188-4.658-3.339-5.69-6.034c0.849,0.204,1.724,0.309,2.612,0.309c6.168,0,11.187-5.019,11.187-11.188
		c0-1.276-0.22-2.532-0.64-3.717c4.046,1.102,7.168,4.459,7.937,8.63h2.018c-0.964-6.237-6.338-11.016-12.846-11.016
		c-0.259,0-0.511,0.024-0.766,0.039c1.425,1.618,2.297,3.737,2.297,6.063c0,5.072-4.112,9.188-9.187,9.188
		c-1.988,0-3.826-0.641-5.33-1.715c0.162,3.801,1.962,7.165,4.699,9.44h-11.705v2h12.012H610.958z"/>
</g>
<g>
	<path d="M-97.657-79.207h-20c-1.103,0-2-0.897-2-2s0.897-2,2-2h3.445h0.555v-2h-4c-2.209,0-4,1.791-4,4s1.791,4,4,4h20
		c2.205,0,4,1.794,4,4s-1.795,4-4,4v2c3.314,0,6-2.686,6-6C-91.657-76.521-94.343-79.207-97.657-79.207z"/>
	<path d="M-95.657-95.207v2c2.205,0,4,1.794,4,4s-1.795,4-4,4h-15.988v2h15.988c3.314,0,6-2.687,6-6
		C-89.657-92.521-92.343-95.207-95.657-95.207z"/>
	<path d="M-89.657-83.207v2h5.5v-0.051c2.523-0.254,4.5-2.358,4.5-4.949c0-2.762-2.238-5-5-5v2c1.654,0,3,1.346,3,3s-1.346,3-3,3
		c-0.043,0-0.083-0.011-0.126-0.013h-4.862c0.003,0.005,0.009,0.009,0.012,0.013H-89.657z"/>
	<path d="M-78.657-79.207h-11v2h7.022c-0.004,0.004-0.008,0.008-0.011,0.013h3.862c0.043-0.002,0.083-0.013,0.126-0.013
		c1.654,0,3,1.346,3,3s-1.346,3-3,3v2c2.762,0,5-2.238,5-5S-75.896-79.207-78.657-79.207z"/>
</g>
<path d="M438.635-92.86v-0.038h-38.376c-1.103,0-2-0.897-2-2s0.897-2,2-2h33c2.762,0,5-2.238,5-5s-2.238-5-5-5h-37.875v0.008
	c-0.042-0.001-0.083-0.008-0.125-0.008c-2.762,0-5,2.238-5,5s2.238,5,5,5v-2c-1.654,0-3-1.346-3-3s1.346-3,3-3h0.125h3.853h34.022
	c1.654,0,3,1.346,3,3s-1.346,3-3,3h-33c-2.209,0-4,1.791-4,4s1.791,4,4,4h38c1.103,0,2,0.897,2,2s-0.897,2-2,2h-32
	c-2.209,0-4,1.791-4,4s1.791,4,4,4h22c1.103,0,2,0.897,2,2s-0.897,2-2,2h-24.01v0.001c-2.204,0.006-3.99,1.793-3.99,3.999
	s1.786,3.993,3.99,3.999v0.001h12.01c1.103,0,2,0.897,2,2s-0.897,2-2,2h-2c-2.209,0-4,1.791-4,4s1.791,4,4,4v-2
	c-1.103,0-2-0.897-2-2s0.897-2,2-2h2c2.209,0,4-1.791,4-4s-1.791-4-4-4h-12c-1.103,0-2-0.897-2-2s0.897-2,2-2h24
	c2.209,0,4-1.791,4-4c0-2.152-1.704-3.895-3.834-3.983v-0.017h-22.166c-1.103,0-2-0.897-2-2s0.897-2,2-2h32c2.209,0,4-1.791,4-4
	C442.259-90.979,440.665-92.668,438.635-92.86z"/>
<path d="M624.05-102.183v-2.024h-2v2.024c-13.01,0.513-23.462,10.965-23.975,23.976h1.674c1.14-1.222,2.748-2,4.551-2
	c2.26,0,4.233,1.203,5.331,3h1.838c1.098-1.797,3.071-3,5.331-3c2.204,0,4.137,1.144,5.25,2.866v15.134c0,2.21,1.791,4,4,4
	s4-1.79,4-4h-2c0,1.103-0.897,2-2,2s-2-0.897-2-2v-15.134c1.113-1.723,3.046-2.866,5.25-2.866c2.26,0,4.233,1.203,5.331,3h1.838
	c1.098-1.797,3.071-3,5.331-3c1.803,0,3.411,0.778,4.551,2h1.674C647.512-91.218,637.06-101.67,624.05-102.183z M641.8-82.207
	c-2.496,0-4.736,1.114-6.25,2.87c-1.514-1.756-3.754-2.87-6.25-2.87s-4.736,1.114-6.25,2.87c-1.514-1.756-3.754-2.87-6.25-2.87
	s-4.736,1.114-6.25,2.87c-1.514-1.756-3.755-2.87-6.25-2.87c-1.402,0-2.731,0.351-3.897,0.975
	c1.909-10.769,11.339-18.975,22.647-18.975s20.738,8.206,22.647,18.975C644.531-81.856,643.202-82.207,641.8-82.207z"/>
<g>
	<path d="M218.755,22.105V5c0-2.762-2.238-5-5-5s-5,2.238-5,5v17.105c-1.236,1.263-2,2.988-2,4.895c0,3.866,3.134,7,7,7s7-3.134,7-7
		C220.755,25.094,219.991,23.368,218.755,22.105z M213.755,32c-2.757,0-5-2.243-5-5c0-1.313,0.508-2.554,1.429-3.495l0.571-0.583
		v-0.816V5c0-1.654,1.346-3,3-3s3,1.346,3,3v17.105v0.816l0.571,0.583c0.921,0.941,1.429,2.183,1.429,3.495
		C218.755,29.757,216.512,32,213.755,32z"/>
	<path d="M214.755,24.176V9h-2v15.176c-1.167,0.413-2.008,1.516-2.008,2.824c0,1.662,1.347,3.008,3.008,3.008
		c1.662,0,3.008-1.346,3.008-3.008C216.763,25.691,215.923,24.589,214.755,24.176z M213.755,28.008
		c-0.556,0-1.008-0.452-1.008-1.008s0.452-1.008,1.008-1.008s1.008,0.452,1.008,1.008S214.311,28.008,213.755,28.008z"/>
</g>
<g>
	<path d="M318.543,22.105V5c0-2.762-2.238-5-5-5s-5,2.238-5,5v17.105c-1.236,1.263-2,2.988-2,4.895c0,3.866,3.134,7,7,7s7-3.134,7-7
		C320.543,25.094,319.779,23.368,318.543,22.105z M313.543,32c-2.757,0-5-2.243-5-5c0-1.313,0.508-2.554,1.429-3.495l0.571-0.583
		v-0.816V5c0-1.654,1.346-3,3-3s3,1.346,3,3v17.105v0.816l0.571,0.583c0.921,0.941,1.429,2.183,1.429,3.495
		C318.543,29.757,316.3,32,313.543,32z"/>
	<path d="M314.543,24.176V4h-2v20.176c-1.167,0.413-2.008,1.516-2.008,2.824c0,1.662,1.347,3.008,3.008,3.008
		c1.662,0,3.008-1.346,3.008-3.008C316.551,25.691,315.711,24.589,314.543,24.176z M313.543,28.008
		c-0.556,0-1.008-0.452-1.008-1.008s0.452-1.008,1.008-1.008s1.008,0.452,1.008,1.008S314.099,28.008,313.543,28.008z"/>
</g>
<g>
	<path d="M115.646,22.105V5c0-2.762-2.238-5-5-5s-5,2.238-5,5v17.105c-1.236,1.263-2,2.988-2,4.895c0,3.866,3.134,7,7,7s7-3.134,7-7
		C117.646,25.094,116.882,23.368,115.646,22.105z M110.646,32c-2.757,0-5-2.243-5-5c0-1.313,0.508-2.554,1.429-3.495l0.571-0.583
		v-0.816V5c0-1.654,1.346-3,3-3s3,1.346,3,3v17.105v0.816l0.571,0.583c0.921,0.941,1.429,2.183,1.429,3.495
		C115.646,29.757,113.402,32,110.646,32z"/>
	<path d="M111.646,24.176V14h-2v10.176c-1.167,0.413-2.008,1.516-2.008,2.824c0,1.662,1.347,3.008,3.008,3.008
		c1.662,0,3.008-1.346,3.008-3.008C113.653,25.691,112.813,24.589,111.646,24.176z M110.646,28.008
		c-0.556,0-1.008-0.452-1.008-1.008s0.452-1.008,1.008-1.008s1.008,0.452,1.008,1.008S111.201,28.008,110.646,28.008z"/>
</g>
<g>
	<path d="M12,22.105V5c0-2.762-2.238-5-5-5S2,2.238,2,5v17.105C0.764,23.368,0,25.094,0,27c0,3.866,3.134,7,7,7s7-3.134,7-7
		C14,25.094,13.236,23.368,12,22.105z M7,32c-2.757,0-5-2.243-5-5c0-1.313,0.508-2.554,1.429-3.495L4,22.922v-0.816V5
		c0-1.654,1.346-3,3-3s3,1.346,3,3v17.105v0.816l0.571,0.583C11.492,24.446,12,25.688,12,27C12,29.757,9.757,32,7,32z"/>
	<path d="M8,24.176V19H6v5.176C4.833,24.589,3.992,25.691,3.992,27c0,1.662,1.347,3.008,3.008,3.008
		c1.662,0,3.008-1.346,3.008-3.008C10.008,25.691,9.168,24.589,8,24.176z M7,28.008c-0.556,0-1.008-0.452-1.008-1.008
		S6.444,25.992,7,25.992S8.008,26.444,8.008,27S7.556,28.008,7,28.008z"/>
</g>
<g>
	<path d="M-92.657,22.105V5c0-2.762-2.238-5-5-5s-5,2.238-5,5v17.105c-1.236,1.263-2,2.988-2,4.895c0,3.866,3.134,7,7,7s7-3.134,7-7
		C-90.657,25.094-91.421,23.368-92.657,22.105z M-97.657,32c-2.757,0-5-2.243-5-5c0-1.313,0.508-2.554,1.429-3.495l0.571-0.583
		v-0.816V5c0-1.654,1.346-3,3-3s3,1.346,3,3v17.105v0.816l0.571,0.583c0.921,0.941,1.429,2.183,1.429,3.495
		C-92.657,29.757-94.9,32-97.657,32z"/>
	<path d="M-97.657,23.992c-1.661,0-3.008,1.347-3.008,3.008c0,1.662,1.347,3.008,3.008,3.008c1.662,0,3.008-1.346,3.008-3.008
		C-94.649,25.339-95.995,23.992-97.657,23.992z M-97.657,28.008c-0.556,0-1.008-0.452-1.008-1.008s0.452-1.008,1.008-1.008
		s1.008,0.452,1.008,1.008S-97.102,28.008-97.657,28.008z"/>
</g>
<g>
	<path d="M407.268,2.313c-2.209,0-4,1.791-4,4c0,2.21,1.791,4,4,4c2.211,0,4-1.79,4-4C411.268,4.104,409.479,2.313,407.268,2.313z
		 M407.268,8.313c-1.103,0-2-0.897-2-2s0.897-2,2-2s2,0.897,2,2S408.37,8.313,407.268,8.313z"/>
	<path d="M421.268,30.313c-4.41,0-7.999-3.589-7.999-7.999v-4.002c0-4.41,3.589-7.999,7.999-7.999c2.715,0,5.115,1.362,6.563,3.437
		l1.43-1.43c-1.824-2.429-4.72-4.007-7.992-4.007c-5.522,0-9.999,4.478-9.999,9.999v4.002c0,5.521,4.477,9.999,9.999,9.999
		c3.272,0,6.168-1.579,7.992-4.008l-1.43-1.43C426.384,28.949,423.983,30.313,421.268,30.313z"/>
</g>
<g>
	<path d="M511.964,2.191c-2.209,0-4,1.791-4,4c0,2.21,1.791,4,4,4c2.211,0,4-1.79,4-4C515.964,3.982,514.175,2.191,511.964,2.191z
		 M511.964,8.191c-1.103,0-2-0.897-2-2s0.897-2,2-2s2,0.897,2,2S513.066,8.191,511.964,8.191z"/>
	<polygon points="531.839,10.313 531.839,8.313 519.839,8.313 517.839,8.313 517.839,32.313 519.839,32.313 519.839,20.313 
		527.839,20.313 527.839,18.313 519.839,18.313 519.839,10.313 	"/>
</g>
<g>
	<path d="M623.05,6.004c-7.179,0-13,5.82-13,13s5.821,13,13,13s13-5.82,13-13S630.229,6.004,623.05,6.004z M623.05,30.004
		c-6.065,0-11-4.935-11-11s4.935-11,11-11s11,4.935,11,11S629.115,30.004,623.05,30.004z"/>
	<path d="M618.783,23.246l6.363-2.121l2.121-6.364l-6.363,2.122L618.783,23.246z M622.485,18.464l1.62-0.54l-0.54,1.62l-1.62,0.54
		L622.485,18.464z"/>
</g>
<g>
	<path d="M-97.657,96.521c-7.179,0-13,5.82-13,13s5.821,13,13,13s13-5.82,13-13S-90.479,96.521-97.657,96.521z M-97.657,120.521
		c-6.065,0-11-4.934-11-11c0-6.064,4.935-11,11-11s11,4.936,11,11C-86.657,115.588-91.592,120.521-97.657,120.521z"/>
	<path d="M-95.096,107.943l-2.586-4.422l-2.529,4.33h0.007c-0.299,0.467-0.478,1.018-0.478,1.613c0,1.656,1.343,3,3,3s3-1.344,3-3
		c0-0.559-0.162-1.074-0.428-1.521H-95.096z M-97.682,110.465c-0.552,0-1-0.449-1-1c0-0.188,0.055-0.367,0.162-0.535l0.864-1.355
		l0.826,1.391c0.098,0.164,0.147,0.332,0.147,0.5C-96.682,110.016-97.13,110.465-97.682,110.465z"/>
</g>
<g>
	<path d="M7.127,96.521c-7.18,0-13,5.82-13,13s5.82,13,13,13s13-5.82,13-13S14.307,96.521,7.127,96.521z M7.127,120.521
		c-6.065,0-11-4.934-11-11c0-6.064,4.935-11,11-11s11,4.936,11,11C18.127,115.588,13.192,120.521,7.127,120.521z"/>
	<path d="M8.716,106.941c-0.467-0.299-1.018-0.477-1.613-0.477c-1.658,0-3,1.342-3,3c0,1.656,1.342,3,3,3
		c0.557,0,1.072-0.162,1.52-0.428v0.014l4.422-2.586l-4.328-2.529V106.941z M7.601,110.316c-0.164,0.098-0.332,0.148-0.498,0.148
		c-0.552,0-1-0.449-1-1c0-0.553,0.448-1,1-1c0.188,0,0.368,0.053,0.535,0.16l1.355,0.865L7.601,110.316z"/>
</g>
<g>
	<path d="M110.178,96.521c-7.18,0-13,5.82-13,13s5.82,13,13,13s13-5.82,13-13S117.357,96.521,110.178,96.521z M110.178,120.521
		c-6.065,0-11-4.934-11-11c0-6.064,4.935-11,11-11s11,4.936,11,11C121.178,115.588,116.243,120.521,110.178,120.521z"/>
	<path d="M110.178,106.465c-1.656,0-3,1.342-3,3c0,0.557,0.162,1.072,0.428,1.52h-0.014l2.586,4.422l2.529-4.328h-0.006
		c0.299-0.467,0.477-1.018,0.477-1.613C113.178,107.807,111.836,106.465,110.178,106.465z M111.017,110l-0.865,1.355l-0.826-1.393
		c-0.098-0.164-0.147-0.332-0.147-0.498c0-0.553,0.448-1,1-1s1,0.447,1,1C111.178,109.652,111.124,109.832,111.017,110z"/>
</g>
<g>
	<path d="M213.592,96.521c-7.179,0-13,5.82-13,13s5.821,13,13,13s13-5.82,13-13S220.771,96.521,213.592,96.521z M213.592,120.521
		c-6.065,0-11-4.934-11-11c0-6.064,4.935-11,11-11s11,4.936,11,11C224.592,115.588,219.657,120.521,213.592,120.521z"/>
	<path d="M213.551,106.465c-0.557,0-1.072,0.162-1.52,0.428v-0.014l-4.422,2.586l4.328,2.529v-0.006
		c0.467,0.299,1.018,0.477,1.613,0.477c1.658,0,3-1.342,3-3C216.551,107.809,215.209,106.465,213.551,106.465z M213.551,110.465
		c-0.188,0-0.368-0.055-0.535-0.162l-1.355-0.865l1.393-0.826c0.164-0.098,0.332-0.146,0.498-0.146c0.552,0,1,0.447,1,1
		C214.551,110.016,214.103,110.465,213.551,110.465z"/>
</g>
<g>
	<rect x="5.44" y="-100.207" width="2" height="10"/>
	<rect x="20.14" y="-94.121" transform="matrix(0.7071 0.7071 -0.7071 0.7071 -56.6817 -40.9914)" width="2" height="10.409"/>
	<rect x="-13.469" y="-89.912" transform="matrix(0.7071 0.7071 -0.7071 0.7071 -65.2905 -20.198)" width="10.409" height="2"/>
	<polygon points="-0.228,-70.953 1.187,-69.539 5.44,-73.793 5.44,-64.207 7.44,-64.207 7.44,-73.793 11.693,-69.539 
		13.107,-70.953 6.44,-77.621 	"/>
	<path d="M19.447-74.208c0-0.002,0-0.004,0-0.006c0-7.18-5.82-12.999-13-12.999s-13,5.819-13,12.999c0,0.002,0,0.004,0,0.006h-13v2
		h18v-2h-3c0-0.002,0-0.004,0-0.006c0-6.064,4.935-10.999,11-10.999s11,4.935,11,10.999c0,0.002,0,0.004,0,0.006h-3v2h17.995v-2
		H19.447z"/>
</g>
<g>
	<rect x="109.186" y="-101.395" width="2" height="10"/>
	<rect x="123.885" y="-95.309" transform="matrix(0.7071 0.7071 -0.7071 0.7071 -27.1351 -114.6981)" width="2" height="10.409"/>
	<rect x="90.276" y="-91.099" transform="matrix(0.7071 0.7071 -0.7071 0.7071 -35.744 -93.9046)" width="10.409" height="2"/>
	<polygon points="111.186,-66.848 111.186,-77.395 109.186,-77.395 109.186,-66.848 104.932,-71.102 103.518,-69.688 
		110.186,-63.02 116.853,-69.688 115.438,-71.102 	"/>
	<path d="M123.192-75.396c0-0.002,0-0.004,0-0.006c0-7.18-5.82-12.999-13-12.999s-13,5.819-13,12.999c0,0.002,0,0.004,0,0.006h-13v2
		h22v-2h-7c0-0.002,0-0.004,0-0.006c0-6.064,4.935-10.999,11-10.999s11,4.935,11,10.999c0,0.002,0,0.004,0,0.006h-7v2h21.995v-2
		H123.192z"/>
</g>
<g>
	<polygon points="313.543,-67.382 313.543,-81.765 311.543,-81.765 311.543,-67.382 307.289,-71.636 305.875,-70.222 
		312.543,-63.554 319.21,-70.222 317.796,-71.636 	"/>
	<path d="M329.171-86.735c-1.596-7.445-8.207-13.029-16.127-13.029c-6.423,0-11.977,3.678-14.702,9.035
		c-0.266-0.018-0.53-0.04-0.8-0.04c-6.627,0-11.999,5.372-11.999,12c0,6.607,5.34,11.965,11.938,11.998v0.003h6.062v-2h-5.604
		l-0.447-0.003c-5.485-0.027-9.948-4.513-9.948-9.998c0-5.514,4.485-10,9.999-10c0.175,0,0.347,0.014,0.52,0.025l0.148,0.01
		l1.316,0.088l0.598-1.176c2.492-4.899,7.443-7.942,12.92-7.942c6.79,0,12.75,4.814,14.172,11.448l0.317,1.482l1.514,0.095
		c4.203,0.262,7.496,3.763,7.496,7.971c0,4.397-3.565,7.977-7.957,8c-0.05-0.003-0.093-0.005-0.137-0.007l-2.043,0.007h-4.863v2
		h6.863v-0.007c0.046,0.001,0.091,0.007,0.137,0.007c5.521,0,10-4.477,10-10C338.543-82.079,334.398-86.41,329.171-86.735z"/>
</g>
<g>
	<polygon points="219.527,-70.577 220.941,-71.991 214.274,-78.659 207.606,-71.991 209.021,-70.577 213.274,-74.831 
		213.274,-62.245 215.274,-62.245 215.274,-74.831 	"/>
	<path d="M230.902-85.14c-1.596-7.445-8.207-13.029-16.127-13.029c-6.423,0-11.977,3.678-14.702,9.035
		c-0.266-0.018-0.53-0.04-0.8-0.04c-6.627,0-11.999,5.372-11.999,12c0,6.607,5.34,11.965,11.938,11.998v0.003h10.062v-2h-9.604
		l-0.447-0.003c-5.485-0.027-9.948-4.513-9.948-9.998c0-5.514,4.485-10,9.999-10c0.175,0,0.347,0.014,0.52,0.025l0.148,0.01
		l1.316,0.088l0.598-1.176c2.492-4.899,7.443-7.942,12.92-7.942c6.79,0,12.75,4.814,14.172,11.448l0.317,1.482l1.514,0.095
		c4.203,0.262,7.496,3.763,7.496,7.971c0,4.397-3.565,7.977-7.957,8c-0.05-0.003-0.093-0.005-0.137-0.007l-2.043,0.007h-8.863v2
		h10.863v-0.007c0.046,0.001,0.091,0.007,0.137,0.007c5.521,0,10-4.477,10-10C240.274-80.483,236.13-84.814,230.902-85.14z"/>
</g>
<g>
	<path d="M433.392-274.655c-1.596-7.445-8.207-13.029-16.127-13.029c-6.423,0-11.977,3.678-14.702,9.035
		c-0.266-0.018-0.53-0.04-0.8-0.04c-6.627,0-11.999,5.372-11.999,12c0,6.607,5.34,11.965,11.938,11.998v0.003h2.062v-2h-1.604
		l-0.447-0.003c-5.485-0.027-9.948-4.513-9.948-9.998c0-5.514,4.485-10,9.999-10c0.175,0,0.347,0.014,0.52,0.025l0.148,0.01
		l1.316,0.088l0.598-1.176c2.492-4.899,7.443-7.942,12.92-7.942c6.79,0,12.75,4.814,14.172,11.448l0.317,1.482l1.514,0.095
		c4.203,0.262,7.496,3.763,7.496,7.971c0,4.397-3.565,7.977-7.957,8c-0.05-0.003-0.093-0.005-0.137-0.007l-2.043,0.007h-0.863v2
		h2.863v-0.007c0.046,0.001,0.091,0.007,0.137,0.007c5.521,0,10-4.477,10-10C442.764-269.999,438.619-274.33,433.392-274.655z"/>
	<polygon points="411.764,-255.667 411.764,-258.297 413.937,-257.074 414.622,-258.295 412.152,-259.685 414.622,-261.074 
		413.937,-262.295 411.764,-261.072 411.764,-263.667 409.764,-263.667 409.764,-261.028 407.513,-262.295 406.827,-261.074 
		409.297,-259.685 406.827,-258.295 407.513,-257.074 409.764,-258.341 409.764,-255.667 	"/>
	<polygon points="416.926,-251.313 414.753,-250.09 414.753,-252.685 412.753,-252.685 412.753,-250.046 410.502,-251.313 
		409.816,-250.092 412.286,-248.702 409.816,-247.313 410.502,-246.092 412.753,-247.358 412.753,-244.685 414.753,-244.685 
		414.753,-247.314 416.926,-246.092 417.611,-247.313 415.142,-248.702 417.611,-250.092 	"/>
	<polygon points="425.941,-258.295 423.769,-257.072 423.769,-259.667 421.769,-259.667 421.769,-257.028 419.518,-258.295 
		418.832,-257.074 421.302,-255.685 418.832,-254.295 419.518,-253.074 421.769,-254.341 421.769,-251.667 423.769,-251.667 
		423.769,-254.297 425.941,-253.074 426.627,-254.295 424.157,-255.685 426.627,-257.074 	"/>
</g>
<g>
	<rect x="508.903" y="-292.707" width="2" height="7.973"/>
	<rect x="489.903" y="-273.793" width="7.973" height="2"/>
	<rect x="494.576" y="-285.059" transform="matrix(0.7071 0.7071 -0.7071 0.7071 -54.8346 -435.7367)" width="7.974" height="2"/>
	<rect x="520.085" y="-288.041" transform="matrix(0.7071 0.7071 -0.7071 0.7071 -48.2354 -451.6607)" width="2" height="7.972"/>
	<path d="M539.415-266.917c-1.444-6.742-7.433-11.8-14.605-11.8c-2.185,0-4.258,0.471-6.127,1.314
		c-1.666-3.203-5.006-5.395-8.865-5.395c-5.522,0-10,4.477-10,9.999c0,2.46,0.899,4.702,2.373,6.442
		c-1.428,1.84-2.287,4.144-2.287,6.653c0,5.983,4.836,10.836,10.813,10.865v0.003h1.188v-2h-0.721l-0.457-0.003
		c-4.864-0.023-8.822-4.001-8.822-8.865c0-4.89,3.978-8.868,8.867-8.868c0.15,0,0.299,0.012,0.447,0.022l0.148,0.01l1.314,0.085
		l0.597-1.175c2.225-4.372,6.644-7.089,11.532-7.089c6.062,0,11.382,4.298,12.649,10.219l0.318,1.483l1.514,0.094
		c3.708,0.23,6.612,3.319,6.612,7.03c0,3.878-3.144,7.035-7.017,7.057c-0.042-0.003-0.079-0.005-0.117-0.005l-1.866,0.005v2h1.819
		v-0.006c0.042,0.001,0.082,0.006,0.124,0.006c5.001,0,9.057-4.054,9.057-9.057C547.903-262.7,544.149-266.622,539.415-266.917z
		 M511.495-270.534c-0.241-0.016-0.48-0.036-0.725-0.036c-2.766,0-5.282,1.041-7.2,2.742c-1.092-1.365-1.753-3.089-1.753-4.97
		c0-4.41,3.589-7.999,8-7.999c3.092,0,5.76,1.773,7.091,4.346C514.61-275.012,512.731-272.964,511.495-270.534z"/>
	<polygon points="518.896,-249.814 518.896,-252.444 521.068,-251.222 521.754,-252.442 519.284,-253.832 521.754,-255.222 
		521.068,-256.442 518.896,-255.22 518.896,-257.814 516.896,-257.814 516.896,-255.176 514.645,-256.442 513.959,-255.222 
		516.429,-253.832 513.959,-252.442 514.645,-251.222 516.896,-252.488 516.896,-249.814 	"/>
	<polygon points="524.058,-245.46 521.885,-244.237 521.885,-246.832 519.885,-246.832 519.885,-244.193 517.634,-245.46 
		516.948,-244.239 519.418,-242.85 516.948,-241.46 517.634,-240.239 519.885,-241.506 519.885,-238.832 521.885,-238.832 
		521.885,-241.462 524.058,-240.239 524.743,-241.46 522.273,-242.85 524.743,-244.239 	"/>
	<polygon points="533.073,-252.442 530.9,-251.22 530.9,-253.814 528.9,-253.814 528.9,-251.176 526.649,-252.442 525.964,-251.222 
		528.434,-249.832 525.964,-248.442 526.649,-247.222 528.9,-248.488 528.9,-245.814 530.9,-245.814 530.9,-248.444 
		533.073,-247.222 533.759,-248.442 531.289,-249.832 533.759,-251.222 	"/>
</g>
<g>
	<path d="M639.604-269.92c-1.444-6.742-7.433-11.8-14.605-11.8c-1.799,0-3.522,0.32-5.118,0.904
		c-0.949-5.108-5.404-8.98-10.788-8.98c-0.413,0-0.819,0.027-1.222,0.071c0.744,1.112,1.179,2.448,1.179,3.886c0,3.865-3.134,7-7,7
		c-1.438,0-2.773-0.435-3.886-1.179c-0.044,0.401-0.071,0.809-0.071,1.222c0,3.713,1.845,6.987,4.661,8.979
		c-1.653,1.907-2.661,4.389-2.661,7.111c0,5.983,4.836,10.836,10.813,10.865v0.003h1.188v-2h-0.721l-0.457-0.003
		c-4.864-0.023-8.822-4.001-8.822-8.865c0-4.89,3.978-8.868,8.867-8.868c0.15,0,0.299,0.012,0.447,0.022l0.148,0.01l1.314,0.085
		l0.597-1.175c2.225-4.372,6.644-7.089,11.532-7.089c6.062,0,11.382,4.298,12.649,10.219l0.318,1.483l1.514,0.094
		c3.708,0.23,6.612,3.319,6.612,7.03c0,3.878-3.144,7.035-7.017,7.057c-0.042-0.003-0.079-0.005-0.117-0.005l-1.866,0.005v2h1.819
		v-0.006c0.042,0.001,0.082,0.006,0.124,0.006c5.001,0,9.057-4.054,9.057-9.057C648.092-265.703,644.338-269.625,639.604-269.92z
		 M611.684-273.537c-0.241-0.016-0.48-0.036-0.725-0.036c-2.537,0-4.865,0.877-6.715,2.334c-2.012-1.294-3.486-3.354-3.976-5.776
		c0.582,0.117,1.178,0.177,1.78,0.177c4.963,0,9-4.037,9-9c0-0.603-0.06-1.198-0.177-1.78c3.733,0.753,6.629,3.824,7.134,7.64
		C615.293-278.535,613.078-276.28,611.684-273.537z"/>
	<polygon points="619.129,-252.817 619.129,-255.447 621.302,-254.225 621.987,-255.445 619.518,-256.835 621.987,-258.225 
		621.302,-259.445 619.129,-258.223 619.129,-260.817 617.129,-260.817 617.129,-258.179 614.878,-259.445 614.192,-258.225 
		616.662,-256.835 614.192,-255.445 614.878,-254.225 617.129,-255.491 617.129,-252.817 	"/>
	<polygon points="624.291,-248.463 622.118,-247.24 622.118,-249.835 620.118,-249.835 620.118,-247.196 617.867,-248.463 
		617.182,-247.242 619.651,-245.853 617.182,-244.463 617.867,-243.242 620.118,-244.509 620.118,-241.835 622.118,-241.835 
		622.118,-244.465 624.291,-243.242 624.977,-244.463 622.507,-245.853 624.977,-247.242 	"/>
	<polygon points="633.307,-255.445 631.134,-254.223 631.134,-256.817 629.134,-256.817 629.134,-254.179 626.883,-255.445 
		626.197,-254.225 628.667,-252.835 626.197,-251.445 626.883,-250.225 629.134,-251.491 629.134,-248.817 631.134,-248.817 
		631.134,-251.447 633.307,-250.225 633.992,-251.445 631.522,-252.835 633.992,-254.225 	"/>
</g>
<rect x="23.245" y="-837.67" fill="none" width="472.974" height="180.918"/>
<text transform="matrix(1 0 0 1 202.8823 -766.271)"><tspan x="0" y="0" font-family="'HelveticaNeueLTStd-Th'" font-size="100" letter-spacing="2">60</tspan><tspan x="-99.268" y="60" font-family="'HelveticaNeueLTStd-Lt'" font-size="48" letter-spacing="1">Weather Icons</tspan><tspan x="-3.726" y="104" font-family="'HelveticaNeueLTStd-Lt'" font-size="24">IOS 7 Style</tspan></text>
</svg>
