<?xml version="1.0" encoding="utf-8"?>
<!-- Generator: Adobe Illustrator 16.0.0, SVG Export Plug-In . SVG Version: 6.00 Build 0)  -->
<!DOCTYPE svg PUBLIC "-//W3C//DTD SVG 1.1//EN" "http://www.w3.org/Graphics/SVG/1.1/DTD/svg11.dtd">
<svg version="1.1" id="Layer_1" xmlns="http://www.w3.org/2000/svg" xmlns:xlink="http://www.w3.org/1999/xlink" x="0px" y="0px"
	 width="14px" height="34px" viewBox="0 0 14 34" enable-background="new 0 0 14 34" xml:space="preserve">
<path d="M316.959-98.505l-1.803,15.077l-0.268,2.237h2.254h6.896l-14.693,18.759l1.789-14.52l0.277-2.245h-2.262h-6.957
	L316.959-98.505 M319.813-105.529l-21.667,28.333h11.004l-2.671,21.667l21.667-27.661h-11.004L319.813-105.529L319.813-105.529z"/>
<path d="M-96.076-560.766c6.79,0,12.749,4.814,14.171,11.448l0.318,1.483l1.514,0.094c4.203,0.262,7.496,3.763,7.496,7.971
	c0,4.396-3.565,7.977-7.957,8c-0.046-0.003-0.091-0.006-0.137-0.007l-2.043-0.036v0.043h-28.337l-0.578-0.003
	c-5.485-0.027-9.948-4.513-9.948-9.998c0-5.514,4.485-10,9.999-10c0.175,0,0.347,0.014,0.519,0.025l0.149,0.011l1.316,0.087
	l0.598-1.176C-106.503-557.723-101.553-560.766-96.076-560.766 M-96.076-562.766c-6.423,0-11.977,3.678-14.702,9.035
	c-0.266-0.018-0.53-0.04-0.8-0.04c-6.627,0-11.999,5.372-11.999,12c0,6.607,5.34,11.965,11.938,11.998v0.003h30.925v-0.007
	c0.046,0.001,0.091,0.007,0.137,0.007c5.521,0,10-4.477,10-10c0-5.311-4.145-9.642-9.372-9.967
	C-81.545-557.182-88.156-562.766-96.076-562.766L-96.076-562.766z"/>
<g>
	<path d="M26.875-542.354c-1.444-6.742-7.433-11.8-14.605-11.8c-2.185,0-4.258,0.47-6.127,1.313
		c-1.666-3.202-5.006-5.394-8.865-5.394c-5.522,0-10,4.477-10,9.999c0,2.46,0.898,4.702,2.373,6.442
		c-1.428,1.84-2.287,4.144-2.287,6.653c0,5.983,4.836,10.836,10.813,10.865v0.003h28.007v-0.006
		c0.042,0.001,0.082,0.006,0.124,0.006c5.001,0,9.057-4.054,9.057-9.057C35.363-538.138,31.609-542.06,26.875-542.354z
		 M-2.723-556.234c3.092,0,5.76,1.773,7.092,4.345c-2.299,1.44-4.178,3.488-5.414,5.918c-0.241-0.016-0.48-0.036-0.725-0.036
		c-2.766,0-5.281,1.041-7.2,2.743c-1.092-1.366-1.753-3.09-1.753-4.971C-10.723-552.646-7.134-556.234-2.723-556.234z
		 M26.347-526.271c-0.038-0.003-0.077-0.004-0.117-0.005l-2.047-0.042v0.047H-1.221l-0.594-0.003
		c-4.864-0.023-8.822-4.001-8.822-8.865c0-4.89,3.978-8.868,8.867-8.868c0.15,0,0.299,0.012,0.447,0.021l0.148,0.011l1.314,0.085
		l0.598-1.174c2.224-4.373,6.643-7.09,11.531-7.09c6.062,0,11.381,4.298,12.65,10.219l0.317,1.482l1.514,0.095
		c3.708,0.231,6.612,3.319,6.612,7.03C33.363-529.45,30.22-526.294,26.347-526.271z"/>
	<rect x="-3.717" y="-568.265" width="2" height="7.973"/>
	<rect x="-22.689" y="-549.278" width="7.973" height="2"/>
	<rect x="-17.964" y="-560.497" transform="matrix(0.7071 0.7071 -0.7071 0.7071 -399.7178 -153.99)" width="7.974" height="2"/>
	<rect x="7.545" y="-563.479" transform="matrix(0.7071 0.7071 -0.7071 0.7071 -393.1187 -169.9139)" width="2" height="7.972"/>
</g>
<path d="M122.618-546.382c-1.444-6.742-7.433-11.8-14.605-11.8c-1.799,0-3.521,0.32-5.118,0.904
	c-0.949-5.108-5.404-8.98-10.788-8.98c-0.413,0-0.819,0.027-1.222,0.071c0.744,1.112,1.179,2.448,1.179,3.886c0,3.865-3.134,7-7,7
	c-1.438,0-2.773-0.435-3.886-1.179c-0.044,0.401-0.071,0.809-0.071,1.222c0,3.712,1.845,6.987,4.661,8.979
	c-1.653,1.907-2.661,4.389-2.661,7.111c0,5.983,4.836,10.836,10.813,10.865v0.003h28.007v-0.006
	c0.042,0.001,0.082,0.006,0.124,0.006c5.001,0,9.057-4.054,9.057-9.057C131.106-542.165,127.353-546.087,122.618-546.382z
	 M83.283-553.478c0.582,0.117,1.178,0.177,1.78,0.177c4.963,0,9-4.037,9-9c0-0.603-0.06-1.198-0.177-1.78
	c3.733,0.753,6.629,3.824,7.134,7.64c-2.713,1.444-4.928,3.699-6.322,6.442c-0.241-0.016-0.48-0.036-0.725-0.036
	c-2.537,0-4.865,0.876-6.715,2.334C85.247-548.995,83.772-551.055,83.283-553.478z M122.09-530.299
	c-0.038-0.003-0.077-0.004-0.117-0.005l-2.047-0.042v0.047H94.522l-0.594-0.003c-4.864-0.023-8.822-4.001-8.822-8.865
	c0-4.89,3.978-8.868,8.867-8.868c0.15,0,0.299,0.012,0.447,0.021l0.148,0.011l1.314,0.085l0.598-1.174
	c2.224-4.373,6.643-7.09,11.531-7.09c6.062,0,11.381,4.298,12.65,10.219l0.317,1.482l1.514,0.095
	c3.708,0.231,6.612,3.319,6.612,7.03C129.106-533.478,125.963-530.321,122.09-530.299z"/>
<g>
	<rect x="207.264" y="-537.759" width="2" height="7"/>
	<rect x="215.264" y="-541.759" width="2" height="7"/>
	<rect x="199.264" y="-541.759" width="2" height="7"/>
	<rect x="207.264" y="-527.759" width="2" height="7"/>
	<rect x="215.264" y="-531.759" width="2" height="7"/>
	<rect x="199.264" y="-531.759" width="2" height="7"/>
	<path d="M225.892-554.747c-1.596-7.445-8.207-13.029-16.127-13.029c-6.423,0-11.977,3.678-14.702,9.035
		c-0.266-0.018-0.53-0.04-0.8-0.04c-6.627,0-11.999,5.372-11.999,12c0,6.607,5.34,11.965,11.938,11.998v0.003h2.062v-2h-1.604
		l-0.447-0.003c-5.485-0.027-9.948-4.513-9.948-9.998c0-5.514,4.485-10,9.999-10c0.175,0,0.347,0.014,0.52,0.025l0.148,0.01
		l1.316,0.088l0.598-1.176c2.492-4.899,7.443-7.942,12.92-7.942c6.79,0,12.75,4.814,14.172,11.448l0.317,1.482l1.514,0.095
		c4.203,0.262,7.496,3.763,7.496,7.971c0,4.397-3.565,7.977-7.957,8c-0.05-0.003-0.093-0.005-0.137-0.007l-2.043,0.007h-2.863v2
		h4.863v-0.007c0.046,0.001,0.091,0.007,0.137,0.007c5.521,0,10-4.477,10-10C235.264-550.091,231.119-554.422,225.892-554.747z"/>
</g>
<g>
	<path d="M23.465-465.39c-1.596-7.445-8.207-13.029-16.127-13.029c-6.423,0-11.977,3.678-14.702,9.035
		c-0.266-0.018-0.53-0.04-0.8-0.04c-6.627,0-11.999,5.372-11.999,12c0,6.607,5.34,11.965,11.938,11.998v0.003h2.062v-2h-1.604
		l-0.447-0.003c-5.485-0.027-9.948-4.513-9.948-9.998c0-5.514,4.485-10,9.999-10c0.175,0,0.347,0.014,0.52,0.025l0.148,0.01
		l1.316,0.088l0.598-1.176c2.492-4.899,7.443-7.942,12.92-7.942c6.79,0,12.75,4.814,14.172,11.448l0.317,1.482l1.514,0.095
		c4.203,0.262,7.496,3.763,7.496,7.971c0,4.397-3.565,7.977-7.957,8c-0.05-0.003-0.093-0.005-0.137-0.007l-2.043,0.007h-2.863v2
		H22.7v-0.007c0.046,0.001,0.091,0.007,0.137,0.007c5.521,0,10-4.477,10-10C32.837-460.733,28.692-465.064,23.465-465.39z"/>
	<polygon points="4.837,-438.395 4.837,-436.454 4.837,-430.395 6.837,-430.395 6.837,-436.454 6.837,-438.395 6.837,-450.395 
		4.837,-450.395 	"/>
	<polygon points="12.837,-442.395 12.837,-440.642 12.837,-434.395 14.837,-434.395 14.837,-440.642 14.837,-442.395 
		14.837,-454.395 12.837,-454.395 	"/>
	<polygon points="-3.163,-442.395 -3.163,-440.329 -3.163,-434.395 -1.163,-434.395 -1.163,-440.329 -1.163,-442.395 
		-1.163,-454.395 -3.163,-454.395 	"/>
</g>
<g>
	<polygon points="319.114,-441.483 312.231,-451.313 310.594,-450.166 317.477,-440.336 318.589,-438.747 322.064,-433.783 
		323.703,-434.93 320.228,-439.895 	"/>
	<polygon points="327.116,-441.485 320.231,-451.313 318.594,-450.165 325.479,-440.337 326.484,-438.901 330.068,-433.786 
		331.707,-434.933 328.123,-440.049 	"/>
	<polygon points="311.114,-441.483 304.231,-451.313 302.594,-450.165 309.477,-440.336 310.661,-438.644 314.065,-433.782 
		315.703,-434.93 312.3,-439.791 	"/>
	<path d="M330.222-465.123c-1.596-7.445-8.207-13.029-16.127-13.029c-6.423,0-11.977,3.678-14.702,9.035
		c-0.266-0.018-0.53-0.04-0.8-0.04c-6.627,0-11.999,5.372-11.999,12c0,6.607,5.34,11.965,11.938,11.998v0.003h2.062v-2h-1.604
		l-0.447-0.003c-5.485-0.027-9.948-4.513-9.948-9.998c0-5.514,4.485-10,9.999-10c0.175,0,0.347,0.014,0.52,0.025l0.148,0.01
		l1.316,0.088l0.598-1.176c2.492-4.899,7.443-7.942,12.92-7.942c6.79,0,12.75,4.814,14.172,11.448l0.317,1.482l1.514,0.095
		c4.203,0.262,7.496,3.763,7.496,7.971c0,4.397-3.565,7.977-7.957,8c-0.05-0.003-0.093-0.005-0.137-0.007l-1.043,0.007h0.137v2
		h0.863v-0.007c0.046,0.001,0.091,0.007,0.137,0.007c5.521,0,10-4.477,10-10C339.594-460.467,335.449-464.798,330.222-465.123z"/>
</g>
<g>
	<rect x="301.92" y="-574.205" width="2" height="7.973"/>
	<rect x="282.92" y="-555.291" width="7.973" height="2"/>
	<rect x="287.593" y="-566.557" transform="matrix(0.7071 0.7071 -0.7071 0.7071 -314.5078 -371.8263)" width="7.974" height="2"/>
	<rect x="313.102" y="-569.539" transform="matrix(0.7071 0.7071 -0.7071 0.7071 -307.9086 -387.7502)" width="2" height="7.972"/>
	<rect x="315.92" y="-533.332" width="2" height="7"/>
	<rect x="323.92" y="-537.332" width="2" height="7"/>
	<rect x="307.92" y="-537.332" width="2" height="7"/>
	<rect x="315.92" y="-523.332" width="2" height="7"/>
	<rect x="323.92" y="-527.332" width="2" height="7"/>
	<rect x="307.92" y="-527.332" width="2" height="7"/>
	<path d="M332.432-548.415c-1.444-6.742-7.433-11.8-14.605-11.8c-2.185,0-4.258,0.47-6.126,1.313
		c-1.667-3.202-5.007-5.394-8.866-5.394c-5.522,0-10,4.477-10,9.999c0,2.46,0.899,4.702,2.373,6.442
		c-1.429,1.84-2.287,4.144-2.287,6.653c0,5.983,4.836,10.836,10.813,10.865v0.003h1.188v-2h-0.721l-0.457-0.003
		c-4.864-0.023-8.822-4.001-8.822-8.865c0-4.89,3.978-8.868,8.867-8.868c0.15,0,0.299,0.012,0.447,0.022l0.148,0.01l1.314,0.085
		l0.597-1.175c2.225-4.372,6.644-7.089,11.532-7.089c6.062,0,11.382,4.298,12.649,10.219l0.318,1.483l1.514,0.094
		c3.708,0.23,6.612,3.319,6.612,7.03c0,3.878-3.144,7.035-7.017,7.057c-0.042-0.003-0.079-0.005-0.117-0.005l-2.047,0.005h-0.819v2
		h2.819v-0.006c0.042,0.001,0.082,0.006,0.124,0.006c5.001,0,9.057-4.054,9.057-9.057
		C340.92-544.198,337.166-548.12,332.432-548.415z M304.512-552.032c-0.241-0.016-0.48-0.036-0.725-0.036
		c-2.766,0-5.282,1.041-7.2,2.743c-1.092-1.366-1.753-3.09-1.753-4.971c0-4.41,3.589-7.999,8-7.999c3.091,0,5.76,1.773,7.091,4.345
		C307.627-556.51,305.747-554.462,304.512-552.032z"/>
</g>
<g>
	<rect x="416.337" y="-534.779" width="2" height="7"/>
	<rect x="424.337" y="-538.779" width="2" height="7"/>
	<rect x="408.337" y="-538.779" width="2" height="7"/>
	<rect x="416.337" y="-524.779" width="2" height="7"/>
	<rect x="424.337" y="-528.779" width="2" height="7"/>
	<rect x="408.337" y="-528.779" width="2" height="7"/>
	<path d="M432.849-549.862c-1.444-6.742-7.433-11.8-14.605-11.8c-1.799,0-3.522,0.32-5.118,0.904
		c-0.949-5.108-5.404-8.98-10.788-8.98c-0.413,0-0.819,0.027-1.222,0.071c0.744,1.112,1.179,2.448,1.179,3.886c0,3.865-3.134,7-7,7
		c-1.438,0-2.773-0.435-3.886-1.179c-0.044,0.401-0.071,0.809-0.071,1.222c0,3.712,1.845,6.987,4.661,8.979
		c-1.653,1.907-2.661,4.389-2.661,7.111c0,5.983,4.836,10.836,10.813,10.865v0.003h1.188v-2h-0.721l-0.457-0.003
		c-4.864-0.023-8.822-4.001-8.822-8.865c0-4.89,3.978-8.868,8.867-8.868c0.15,0,0.299,0.012,0.447,0.022l0.148,0.01l1.314,0.085
		l0.597-1.175c2.225-4.372,6.644-7.089,11.532-7.089c6.062,0,11.382,4.298,12.649,10.219l0.318,1.483l1.514,0.094
		c3.708,0.23,6.612,3.319,6.612,7.03c0,3.878-3.144,7.035-7.017,7.057c-0.042-0.003-0.079-0.005-0.117-0.005l-2.047,0.005h-0.819v2
		h2.819v-0.006c0.042,0.001,0.082,0.006,0.124,0.006c5.001,0,9.057-4.054,9.057-9.057
		C441.337-545.646,437.583-549.567,432.849-549.862z M404.929-553.479c-0.241-0.016-0.48-0.036-0.725-0.036
		c-2.537,0-4.865,0.876-6.715,2.334c-2.012-1.294-3.487-3.354-3.976-5.776c0.582,0.117,1.178,0.177,1.78,0.177c4.963,0,9-4.037,9-9
		c0-0.603-0.06-1.198-0.177-1.78c3.733,0.753,6.629,3.824,7.133,7.64C408.539-558.478,406.324-556.223,404.929-553.479z"/>
</g>
<g>
	<polygon points="109.106,-433.956 109.106,-432.016 109.106,-425.956 111.106,-425.956 111.106,-432.016 111.106,-433.956 
		111.106,-445.956 109.106,-445.956 	"/>
	<polygon points="117.106,-437.956 117.106,-436.203 117.106,-429.956 119.106,-429.956 119.106,-436.203 119.106,-437.956 
		119.106,-449.956 117.106,-449.956 	"/>
	<polygon points="101.106,-437.956 101.106,-435.891 101.106,-429.956 103.106,-429.956 103.106,-435.891 103.106,-437.956 
		103.106,-449.956 101.106,-449.956 	"/>
	<rect x="95.106" y="-484.858" width="2" height="7.973"/>
	<rect x="76.106" y="-465.944" width="7.973" height="2"/>
	<rect x="80.779" y="-477.211" transform="matrix(0.7071 0.7071 -0.7071 0.7071 -311.9044 -199.418)" width="7.974" height="2"/>
	<rect x="106.288" y="-480.193" transform="matrix(0.7071 0.7071 -0.7071 0.7071 -305.3053 -215.3419)" width="2" height="7.972"/>
	<path d="M125.618-459.068c-1.444-6.742-7.433-11.8-14.605-11.8c-2.185,0-4.258,0.47-6.127,1.313
		c-1.666-3.202-5.006-5.394-8.865-5.394c-5.522,0-10,4.477-10,9.999c0,2.46,0.898,4.702,2.373,6.442
		c-1.428,1.84-2.287,4.144-2.287,6.653c0,5.983,4.836,10.836,10.813,10.865v0.003h1.188v-2h-0.721l-0.457-0.003
		c-4.864-0.023-8.822-4.001-8.822-8.865c0-4.89,3.978-8.868,8.867-8.868c0.15,0,0.299,0.012,0.447,0.022l0.148,0.01l1.314,0.085
		l0.597-1.175c2.225-4.372,6.644-7.089,11.532-7.089c6.062,0,11.382,4.298,12.649,10.219l0.318,1.483l1.514,0.094
		c3.708,0.23,6.612,3.319,6.612,7.03c0,3.878-3.144,7.035-7.017,7.057c-0.042-0.003-0.079-0.005-0.117-0.005l-2.047,0.005h-0.819v2
		h2.819v-0.006c0.042,0.001,0.082,0.006,0.124,0.006c5.001,0,9.057-4.054,9.057-9.057
		C134.106-454.852,130.353-458.773,125.618-459.068z M97.698-462.686c-0.241-0.016-0.48-0.036-0.725-0.036
		c-2.766,0-5.281,1.042-7.2,2.743c-1.092-1.367-1.753-3.09-1.753-4.971c0-4.41,3.589-7.999,8-7.999c3.092,0,5.76,1.773,7.092,4.345
		C100.813-467.164,98.935-465.115,97.698-462.686z"/>
</g>
<g>
	<polygon points="209.504,-436.473 209.504,-434.532 209.504,-428.473 211.504,-428.473 211.504,-434.532 211.504,-436.473 
		211.504,-448.473 209.504,-448.473 	"/>
	<polygon points="217.504,-440.473 217.504,-438.72 217.504,-432.473 219.504,-432.473 219.504,-438.72 219.504,-440.473 
		219.504,-452.473 217.504,-452.473 	"/>
	<polygon points="201.504,-440.473 201.504,-438.407 201.504,-432.473 203.504,-432.473 203.504,-438.407 203.504,-440.473 
		203.504,-452.473 201.504,-452.473 	"/>
	<path d="M226.016-461.585c-1.444-6.742-7.433-11.8-14.605-11.8c-1.799,0-3.521,0.32-5.118,0.904
		c-0.949-5.108-5.404-8.98-10.788-8.98c-0.413,0-0.819,0.027-1.222,0.071c0.744,1.112,1.179,2.448,1.179,3.886c0,3.865-3.134,7-7,7
		c-1.438,0-2.773-0.435-3.886-1.179c-0.044,0.401-0.071,0.809-0.071,1.222c0,3.712,1.845,6.987,4.661,8.979
		c-1.653,1.907-2.661,4.389-2.661,7.111c0,5.983,4.836,10.836,10.813,10.865v0.003h1.188v-2h-0.721l-0.457-0.003
		c-4.864-0.023-8.822-4.001-8.822-8.865c0-4.89,3.978-8.868,8.867-8.868c0.15,0,0.299,0.012,0.447,0.022l0.148,0.01l1.314,0.085
		l0.597-1.175c2.225-4.372,6.644-7.089,11.532-7.089c6.062,0,11.382,4.298,12.649,10.219l0.318,1.483l1.514,0.094
		c3.708,0.23,6.612,3.319,6.612,7.03c0,3.878-3.144,7.035-7.017,7.057c-0.042-0.003-0.079-0.005-0.117-0.005l-2.047,0.005h-0.819v2
		h2.819v-0.006c0.042,0.001,0.082,0.006,0.124,0.006c5.001,0,9.057-4.054,9.057-9.057
		C234.504-457.368,230.75-461.29,226.016-461.585z M198.096-465.202c-0.241-0.016-0.48-0.036-0.725-0.036
		c-2.537,0-4.865,0.876-6.715,2.334c-2.012-1.294-3.486-3.354-3.976-5.776c0.582,0.117,1.178,0.177,1.78,0.177c4.963,0,9-4.037,9-9
		c0-0.603-0.06-1.198-0.177-1.78c3.733,0.753,6.629,3.824,7.134,7.641C201.705-470.2,199.49-467.944,198.096-465.202z"/>
</g>
<g>
	<polygon points="426.539,-435.528 419.656,-445.358 418.019,-444.211 424.901,-434.381 426.014,-432.792 429.489,-427.828 
		431.128,-428.975 427.652,-433.939 	"/>
	<polygon points="434.541,-435.53 427.656,-445.358 426.019,-444.21 432.904,-434.382 433.909,-432.946 437.493,-427.831 
		439.132,-428.978 435.548,-434.094 	"/>
	<polygon points="418.539,-435.528 411.656,-445.358 410.019,-444.21 416.901,-434.381 418.086,-432.688 421.49,-427.827 
		423.128,-428.975 419.725,-433.836 	"/>
	<rect x="406.019" y="-483.077" width="2" height="7.973"/>
	<rect x="387.019" y="-464.163" width="7.973" height="2"/>
	<rect x="391.692" y="-475.43" transform="matrix(0.7071 0.7071 -0.7071 0.7071 -219.5808 -418.7444)" width="7.974" height="2"/>
	<rect x="417.2" y="-478.412" transform="matrix(0.7071 0.7071 -0.7071 0.7071 -212.9817 -434.6683)" width="2" height="7.972"/>
	<path d="M436.53-457.287c-1.444-6.742-7.433-11.8-14.605-11.8c-2.185,0-4.258,0.47-6.126,1.313
		c-1.667-3.202-5.007-5.394-8.866-5.394c-5.522,0-10,4.477-10,9.999c0,2.46,0.899,4.702,2.373,6.442
		c-1.429,1.84-2.287,4.144-2.287,6.653c0,5.983,4.836,10.836,10.813,10.865v0.003h1.188v-2h-0.721l-0.457-0.003
		c-4.864-0.023-8.822-4.001-8.822-8.865c0-4.89,3.978-8.868,8.867-8.868c0.15,0,0.299,0.012,0.447,0.022l0.148,0.01l1.314,0.085
		l0.597-1.175c2.225-4.372,6.644-7.089,11.532-7.089c6.062,0,11.382,4.298,12.649,10.219l0.318,1.483l1.514,0.094
		c3.708,0.23,6.612,3.319,6.612,7.03c0,3.878-3.144,7.035-7.017,7.057c-0.042-0.003-0.079-0.005-0.117-0.005l-0.047,0.005h-0.819v2
		h0.819v-0.006c0.042,0.001,0.082,0.006,0.124,0.006c5.001,0,9.057-4.054,9.057-9.057
		C445.019-453.07,441.265-456.992,436.53-457.287z M408.61-460.904c-0.241-0.016-0.48-0.036-0.725-0.036
		c-2.766,0-5.282,1.042-7.2,2.743c-1.092-1.367-1.753-3.09-1.753-4.971c0-4.41,3.589-7.999,8-7.999c3.091,0,5.76,1.773,7.091,4.345
		C411.726-465.383,409.846-463.334,408.61-460.904z"/>
</g>
<g>
	<polygon points="-296.892,-339.043 -303.774,-348.873 -305.412,-347.726 -298.529,-337.896 -297.417,-336.307 -293.941,-331.343 
		-292.303,-332.489 -295.778,-337.454 	"/>
	<polygon points="-288.89,-339.045 -295.774,-348.873 -297.412,-347.725 -290.526,-337.896 -289.521,-336.461 -285.938,-331.346 
		-284.299,-332.492 -287.883,-337.608 	"/>
	<polygon points="-304.892,-339.043 -311.774,-348.873 -313.412,-347.725 -306.529,-337.896 -305.345,-336.203 -301.94,-331.342 
		-300.303,-332.489 -303.706,-337.351 	"/>
	<path d="M-286.9-360.802c-1.444-6.742-7.433-11.8-14.605-11.8c-1.799,0-3.522,0.32-5.118,0.904
		c-0.949-5.108-5.404-8.98-10.788-8.98c-0.413,0-0.819,0.027-1.222,0.071c0.744,1.112,1.179,2.448,1.179,3.886c0,3.865-3.134,7-7,7
		c-1.438,0-2.773-0.435-3.886-1.179c-0.044,0.401-0.071,0.809-0.071,1.222c0,3.712,1.845,6.987,4.661,8.979
		c-1.653,1.907-2.661,4.389-2.661,7.111c0,5.983,4.836,10.836,10.813,10.865v0.003h1.188v-2h-0.721l-0.457-0.003
		c-4.864-0.023-8.822-4.001-8.822-8.865c0-4.89,3.978-8.868,8.867-8.868c0.15,0,0.299,0.012,0.447,0.022l0.148,0.01l1.314,0.085
		l0.597-1.175c2.225-4.372,6.644-7.089,11.532-7.089c6.062,0,11.382,4.298,12.649,10.219l0.318,1.483l1.514,0.094
		c3.708,0.23,6.612,3.319,6.612,7.03c0,3.878-3.144,7.035-7.017,7.057c-0.042-0.003-0.079-0.005-0.117-0.005l-0.047,0.005h-0.819v2
		h0.819v-0.006c0.042,0.001,0.082,0.006,0.124,0.006c5.001,0,9.057-4.054,9.057-9.057
		C-278.412-356.585-282.166-360.507-286.9-360.802z M-314.82-364.419c-0.241-0.016-0.48-0.036-0.725-0.036
		c-2.537,0-4.865,0.876-6.715,2.334c-2.012-1.294-3.487-3.354-3.976-5.776c0.582,0.117,1.178,0.177,1.78,0.177c4.963,0,9-4.037,9-9
		c0-0.603-0.06-1.198-0.177-1.78c3.733,0.753,6.629,3.824,7.133,7.641C-311.21-369.417-313.425-367.161-314.82-364.419z"/>
</g>
<g>
	<rect x="-304.412" y="-442.89" width="2" height="4"/>
	<rect x="-296.412" y="-446.911" width="2" height="4.021"/>
	<rect x="-312.412" y="-446.911" width="2" height="4.021"/>
	<path d="M-285.784-462.878c-1.596-7.445-8.207-13.029-16.127-13.029c-6.423,0-11.977,3.678-14.702,9.035
		c-0.266-0.018-0.53-0.04-0.8-0.04c-6.627,0-11.999,5.372-11.999,12c0,6.607,5.34,11.965,11.938,11.998v0.003h2.062v-2h-1.604
		l-0.447-0.003c-5.485-0.027-9.948-4.513-9.948-9.998c0-5.514,4.485-10,9.999-10c0.175,0,0.347,0.014,0.52,0.025l0.148,0.01
		l1.316,0.088l0.598-1.176c2.492-4.899,7.443-7.942,12.92-7.942c6.79,0,12.75,4.814,14.172,11.448l0.317,1.482l1.514,0.095
		c4.203,0.262,7.496,3.763,7.496,7.971c0,4.397-3.565,7.977-7.957,8c-0.05-0.003-0.093-0.005-0.137-0.007l-2.043,0.007h-2.863v2
		h4.863v-0.007c0.046,0.001,0.091,0.007,0.137,0.007c5.521,0,10-4.477,10-10C-276.412-458.222-280.557-462.553-285.784-462.878z"/>
	<circle cx="-295.412" cy="-437.869" r="1.5"/>
	<circle cx="-303.412" cy="-433.9" r="1.5"/>
	<circle cx="-311.412" cy="-437.911" r="1.5"/>
</g>
<g>
	<rect x="-211.491" y="-482.344" width="2" height="7.973"/>
	<rect x="-230.491" y="-463.43" width="7.973" height="2"/>
	<rect x="-225.818" y="-474.696" transform="matrix(0.7071 0.7071 -0.7071 0.7071 -399.9267 18.1158)" width="7.974" height="2"/>
	<rect x="-200.309" y="-477.678" transform="matrix(0.7071 0.7071 -0.7071 0.7071 -393.3275 2.1918)" width="2" height="7.972"/>
	<path d="M-180.979-456.554c-1.444-6.742-7.433-11.8-14.605-11.8c-2.185,0-4.258,0.47-6.126,1.313
		c-1.667-3.202-5.007-5.394-8.866-5.394c-5.522,0-10,4.477-10,9.999c0,2.46,0.899,4.702,2.373,6.442
		c-1.429,1.84-2.287,4.144-2.287,6.653c0,5.983,4.836,10.836,10.813,10.865v0.003h1.188v-2h-0.721l-0.457-0.003
		c-4.864-0.023-8.822-4.001-8.822-8.865c0-4.89,3.978-8.868,8.867-8.868c0.15,0,0.299,0.012,0.447,0.022l0.148,0.01l1.314,0.085
		l0.597-1.175c2.225-4.372,6.644-7.089,11.532-7.089c6.062,0,11.382,4.298,12.649,10.219l0.318,1.483l1.514,0.094
		c3.708,0.23,6.612,3.319,6.612,7.03c0,3.878-3.144,7.035-7.017,7.057c-0.042-0.003-0.079-0.005-0.117-0.005l-2.047,0.005h-0.819v2
		h2.819v-0.006c0.042,0.001,0.082,0.006,0.124,0.006c5.001,0,9.057-4.054,9.057-9.057
		C-172.491-452.337-176.245-456.259-180.979-456.554z M-208.899-460.171c-0.241-0.016-0.48-0.036-0.725-0.036
		c-2.766,0-5.282,1.042-7.2,2.743c-1.092-1.367-1.753-3.09-1.753-4.971c0-4.41,3.589-7.999,8-7.999c3.091,0,5.76,1.773,7.091,4.345
		C-205.784-464.649-207.664-462.601-208.899-460.171z"/>
	<rect x="-197.491" y="-438.455" width="2" height="4"/>
	<rect x="-189.491" y="-442.477" width="2" height="4.021"/>
	<rect x="-205.491" y="-442.477" width="2" height="4.021"/>
	<circle cx="-188.491" cy="-433.435" r="1.5"/>
	<circle cx="-196.491" cy="-429.466" r="1.5"/>
	<circle cx="-204.491" cy="-433.477" r="1.5"/>
</g>
<g>
	<path d="M-80.054-457.511c-1.444-6.742-7.433-11.8-14.605-11.8c-1.799,0-3.522,0.32-5.118,0.904
		c-0.949-5.108-5.404-8.98-10.788-8.98c-0.413,0-0.819,0.027-1.222,0.071c0.744,1.112,1.179,2.448,1.179,3.886c0,3.865-3.134,7-7,7
		c-1.438,0-2.773-0.435-3.886-1.179c-0.044,0.401-0.071,0.809-0.071,1.222c0,3.712,1.845,6.987,4.661,8.979
		c-1.653,1.907-2.661,4.389-2.661,7.111c0,5.983,4.836,10.836,10.813,10.865v0.003h1.188v-2h-0.721l-0.457-0.003
		c-4.864-0.023-8.822-4.001-8.822-8.865c0-4.89,3.978-8.868,8.867-8.868c0.15,0,0.299,0.012,0.447,0.022l0.148,0.01l1.314,0.085
		l0.597-1.175c2.225-4.372,6.644-7.089,11.532-7.089c6.062,0,11.382,4.298,12.649,10.219l0.318,1.483l1.514,0.094
		c3.708,0.23,6.612,3.319,6.612,7.03c0,3.878-3.144,7.035-7.017,7.057c-0.042-0.003-0.079-0.005-0.117-0.005l-2.047,0.005h-0.819v2
		h2.819v-0.006c0.042,0.001,0.082,0.006,0.124,0.006c5.001,0,9.057-4.054,9.057-9.057
		C-71.565-453.294-75.319-457.216-80.054-457.511z M-107.974-461.128c-0.241-0.016-0.48-0.036-0.725-0.036
		c-2.537,0-4.865,0.876-6.715,2.334c-2.012-1.294-3.487-3.354-3.976-5.776c0.582,0.117,1.178,0.177,1.78,0.177c4.963,0,9-4.037,9-9
		c0-0.603-0.06-1.198-0.177-1.78c3.733,0.753,6.629,3.824,7.133,7.641C-104.363-466.126-106.578-463.87-107.974-461.128z"/>
	<rect x="-96.565" y="-439.412" width="2" height="4"/>
	<rect x="-88.565" y="-443.434" width="2" height="4.021"/>
	<rect x="-104.565" y="-443.434" width="2" height="4.021"/>
	<circle cx="-87.565" cy="-434.392" r="1.5"/>
	<circle cx="-95.565" cy="-430.423" r="1.5"/>
	<circle cx="-103.565" cy="-434.434" r="1.5"/>
</g>
<g>
	<path d="M-183.363-364.48c-1.596-7.445-8.207-13.029-16.127-13.029c-6.423,0-11.977,3.678-14.702,9.035
		c-0.266-0.018-0.53-0.04-0.8-0.04c-6.627,0-11.999,5.372-11.999,12c0,6.607,5.34,11.965,11.938,11.998v0.003h6.062v-2h-5.604
		l-0.447-0.003c-5.485-0.027-9.948-4.513-9.948-9.998c0-5.514,4.485-10,9.999-10c0.175,0,0.347,0.014,0.52,0.025l0.148,0.01
		l1.316,0.088l0.598-1.176c2.492-4.899,7.443-7.942,12.92-7.942c6.79,0,12.75,4.814,14.172,11.448l0.317,1.482l1.514,0.095
		c4.203,0.262,7.496,3.763,7.496,7.971c0,4.397-3.565,7.977-7.957,8c-0.05-0.003-0.093-0.005-0.137-0.007l-5.043,0.007h0.137v2
		h4.863v-0.007c0.046,0.001,0.091,0.007,0.137,0.007c5.521,0,10-4.477,10-10C-173.991-359.824-178.136-364.155-183.363-364.48z"/>
	<polygon points="-199.149,-344.51 -197.38,-344.51 -196.949,-344.51 -194.939,-344.51 -201.354,-353.671 -202.991,-352.523 
		-198.78,-346.51 -200.551,-346.51 -202.991,-346.51 -201.72,-344.693 -200.607,-343.104 -194.63,-334.51 -192.991,-335.656 
		-198.969,-344.252 	"/>
</g>
<g>
	<rect x="-107.565" y="-383.61" width="2" height="7.973"/>
	<rect x="-126.565" y="-364.696" width="7.973" height="2"/>
	<rect x="-121.892" y="-375.963" transform="matrix(0.7071 0.7071 -0.7071 0.7071 -299.6725 -26.4525)" width="7.974" height="2"/>
	<rect x="-96.384" y="-378.945" transform="matrix(0.7071 0.7071 -0.7071 0.7071 -293.0733 -42.3764)" width="2" height="7.972"/>
	<path d="M-77.054-357.82c-1.444-6.742-7.433-11.8-14.605-11.8c-2.185,0-4.258,0.47-6.127,1.313
		c-1.666-3.202-5.006-5.394-8.865-5.394c-5.522,0-10,4.477-10,9.999c0,2.46,0.898,4.702,2.373,6.442
		c-1.428,1.84-2.287,4.144-2.287,6.653c0,5.983,4.836,10.836,10.813,10.865v0.003h4.188v-2h-3.721l-0.457-0.003
		c-4.864-0.023-8.822-4.001-8.822-8.865c0-4.89,3.978-8.868,8.867-8.868c0.15,0,0.299,0.012,0.447,0.022l0.148,0.01l1.314,0.085
		l0.597-1.175c2.225-4.372,6.644-7.089,11.532-7.089c6.062,0,11.382,4.298,12.649,10.219l0.318,1.483l1.514,0.094
		c3.708,0.23,6.612,3.319,6.612,7.03c0,3.878-3.144,7.035-7.017,7.057c-0.042-0.003-0.079-0.005-0.117-0.005l-2.047,0.005h-3.819v2
		h5.819v-0.006c0.042,0.001,0.082,0.006,0.124,0.006c5.001,0,9.057-4.054,9.057-9.057C-68.565-353.604-72.319-357.525-77.054-357.82
		z M-104.974-361.438c-0.241-0.016-0.48-0.036-0.725-0.036c-2.766,0-5.281,1.041-7.2,2.743c-1.092-1.366-1.753-3.09-1.753-4.971
		c0-4.41,3.589-7.999,8-7.999c3.092,0,5.76,1.773,7.092,4.345C-101.858-365.915-103.737-363.867-104.974-361.438z"/>
	<polygon points="-92.724,-339.73 -90.954,-339.73 -90.523,-339.73 -88.514,-339.73 -94.928,-348.892 -96.565,-347.744 
		-92.354,-341.73 -94.125,-341.73 -96.565,-341.73 -95.294,-339.914 -94.182,-338.325 -88.204,-329.73 -86.565,-330.877 
		-92.543,-339.473 	"/>
</g>
<g>
	<path d="M22.531-360.116c-1.444-6.742-7.433-11.8-14.605-11.8c-1.799,0-3.521,0.32-5.118,0.904
		c-0.949-5.108-5.404-8.98-10.788-8.98c-0.413,0-0.819,0.027-1.222,0.071c0.744,1.112,1.179,2.448,1.179,3.886c0,3.865-3.134,7-7,7
		c-1.438,0-2.773-0.435-3.886-1.179c-0.044,0.401-0.071,0.809-0.071,1.222c0,3.712,1.845,6.987,4.661,8.979
		c-1.653,1.907-2.661,4.389-2.661,7.111c0,5.983,4.836,10.836,10.813,10.865v0.003h4.188v-2h-3.721l-0.457-0.003
		c-4.864-0.023-8.822-4.001-8.822-8.865c0-4.89,3.978-8.868,8.867-8.868c0.15,0,0.299,0.012,0.447,0.022l0.148,0.01l1.314,0.085
		l0.597-1.175c2.225-4.372,6.644-7.089,11.532-7.089c6.062,0,11.382,4.298,12.649,10.219l0.318,1.483l1.514,0.094
		c3.708,0.23,6.612,3.319,6.612,7.03c0,3.878-3.144,7.035-7.017,7.057c-0.042-0.003-0.079-0.005-0.117-0.005l-2.047,0.005H16.02v2
		h5.819v-0.006c0.042,0.001,0.082,0.006,0.124,0.006c5.001,0,9.057-4.054,9.057-9.057C31.02-355.899,27.266-359.821,22.531-360.116z
		 M-5.389-363.733c-0.241-0.016-0.48-0.036-0.725-0.036c-2.537,0-4.865,0.876-6.715,2.334c-2.012-1.294-3.486-3.354-3.976-5.776
		c0.582,0.117,1.178,0.177,1.78,0.177c4.963,0,9-4.037,9-9c0-0.603-0.06-1.198-0.177-1.78c3.733,0.753,6.629,3.824,7.134,7.64
		C-1.779-368.731-3.994-366.477-5.389-363.733z"/>
	<polygon points="6.861,-342.026 8.631,-342.026 9.062,-342.026 11.071,-342.026 4.657,-351.188 3.02,-350.04 7.23,-344.026 
		5.46,-344.026 3.02,-344.026 4.291,-342.21 5.403,-340.621 11.381,-332.026 13.02,-333.173 7.042,-341.769 	"/>
</g>
<g>
	<path d="M123.416-363.98c-1.596-7.445-8.207-13.029-16.127-13.029c-6.423,0-11.977,3.678-14.702,9.035
		c-0.266-0.018-0.53-0.04-0.8-0.04c-6.627,0-11.999,5.372-11.999,12c0,6.607,5.34,11.965,11.938,11.998v0.003h1.062v-2h-0.604
		l-0.447-0.003c-5.485-0.027-9.948-4.513-9.948-9.998c0-5.514,4.485-10,9.999-10c0.175,0,0.347,0.014,0.52,0.025l0.148,0.01
		l1.316,0.088l0.598-1.176c2.492-4.899,7.443-7.942,12.92-7.942c6.79,0,12.75,4.814,14.172,11.448l0.317,1.482l1.514,0.095
		c4.203,0.262,7.496,3.763,7.496,7.971c0,4.397-3.565,7.977-7.957,8c-0.05-0.003-0.093-0.005-0.137-0.007l-0.906,0.007v2h0.863
		v-0.007c0.046,0.001,0.091,0.007,0.137,0.007c5.521,0,10-4.477,10-10C132.788-359.324,128.644-363.655,123.416-363.98z"/>
	
		<rect x="92.222" y="-346.016" transform="matrix(-0.5736 -0.8191 0.8191 -0.5736 436.5295 -462.8103)" width="11.183" height="1.999"/>
	
		<rect x="110.197" y="-346.016" transform="matrix(-0.5736 -0.8191 0.8191 -0.5736 464.8151 -448.0871)" width="11.183" height="1.999"/>
	<polygon points="108.63,-341.01 110.399,-341.01 110.83,-341.01 112.84,-341.01 106.426,-350.171 104.788,-349.023 
		108.999,-343.01 107.229,-343.01 104.788,-343.01 106.06,-341.193 107.172,-339.604 111.788,-333.01 113.427,-334.156 
		108.811,-340.752 	"/>
</g>
<g>
	<rect x="198.264" y="-383.447" width="2" height="7.973"/>
	<rect x="179.264" y="-364.533" width="7.973" height="2"/>
	<rect x="183.937" y="-375.8" transform="matrix(0.7071 0.7071 -0.7071 0.7071 -209.9819 -242.6586)" width="7.974" height="2"/>
	<rect x="209.445" y="-378.782" transform="matrix(0.7071 0.7071 -0.7071 0.7071 -203.3827 -258.5825)" width="2" height="7.972"/>
	<path d="M228.775-357.657c-1.444-6.742-7.433-11.8-14.605-11.8c-2.185,0-4.258,0.47-6.126,1.313
		c-1.667-3.202-5.007-5.394-8.866-5.394c-5.522,0-10,4.477-10,9.999c0,2.46,0.899,4.702,2.373,6.442
		c-1.429,1.84-2.287,4.144-2.287,6.653c0,5.983,4.836,10.836,10.813,10.865v0.003h0.188v-2l-0.178-0.003
		c-4.864-0.023-8.822-4.001-8.822-8.865c0-4.89,3.978-8.868,8.867-8.868c0.15,0,0.299,0.012,0.447,0.022l0.148,0.01l1.314,0.085
		l0.597-1.175c2.225-4.372,6.644-7.089,11.532-7.089c6.062,0,11.382,4.298,12.649,10.219l0.318,1.483l1.514,0.094
		c3.708,0.23,6.612,3.319,6.612,7.03c0,3.878-3.144,7.035-7.017,7.057c-0.042-0.003-0.079-0.005-0.117-0.005l-0.866,0.005v2h0.819
		v-0.006c0.042,0.001,0.082,0.006,0.124,0.006c5.001,0,9.057-4.054,9.057-9.057C237.264-353.44,233.51-357.362,228.775-357.657z
		 M200.855-361.274c-0.241-0.016-0.48-0.036-0.725-0.036c-2.766,0-5.282,1.042-7.2,2.743c-1.092-1.367-1.753-3.09-1.753-4.971
		c0-4.41,3.589-7.999,8-7.999c3.091,0,5.76,1.773,7.091,4.345C203.971-365.753,202.091-363.704,200.855-361.274z"/>
	
		<rect x="198.685" y="-341.577" transform="matrix(-0.5736 -0.8191 0.8191 -0.5736 600.428 -368.621)" width="11.183" height="1.999"/>
	
		<rect x="216.66" y="-341.577" transform="matrix(-0.5736 -0.8191 0.8191 -0.5736 628.7135 -353.8979)" width="11.183" height="1.999"/>
	<polygon points="215.093,-336.571 216.862,-336.571 217.293,-336.571 219.303,-336.571 212.889,-345.732 211.251,-344.585 
		215.462,-338.571 213.691,-338.571 211.251,-338.571 212.522,-336.755 213.635,-335.166 218.251,-328.571 219.89,-329.718 
		215.273,-336.313 	"/>
</g>
<g>
	<path d="M330.613-360.615c-1.444-6.742-7.433-11.8-14.605-11.8c-1.799,0-3.522,0.32-5.118,0.904
		c-0.949-5.108-5.404-8.98-10.788-8.98c-0.413,0-0.819,0.027-1.222,0.071c0.744,1.112,1.179,2.448,1.179,3.886c0,3.865-3.134,7-7,7
		c-1.438,0-2.773-0.435-3.886-1.179c-0.044,0.401-0.071,0.809-0.071,1.222c0,3.712,1.845,6.987,4.661,8.979
		c-1.653,1.907-2.661,4.389-2.661,7.111c0,5.983,4.836,10.836,10.813,10.865v0.003h0.188v-2l-0.178-0.003
		c-4.864-0.023-8.822-4.001-8.822-8.865c0-4.89,3.978-8.868,8.867-8.868c0.15,0,0.299,0.012,0.447,0.022l0.148,0.01l1.314,0.085
		l0.597-1.175c2.225-4.372,6.644-7.089,11.532-7.089c6.062,0,11.382,4.298,12.649,10.219l0.318,1.483l1.514,0.094
		c3.708,0.23,6.612,3.319,6.612,7.03c0,3.878-3.144,7.035-7.017,7.057c-0.042-0.003-0.079-0.005-0.117-0.005l-0.866,0.005v2h0.819
		v-0.006c0.042,0.001,0.082,0.006,0.124,0.006c5.001,0,9.057-4.054,9.057-9.057C339.102-356.398,335.348-360.32,330.613-360.615z
		 M302.693-364.232c-0.241-0.016-0.48-0.036-0.725-0.036c-2.537,0-4.865,0.876-6.715,2.334c-2.012-1.294-3.487-3.354-3.976-5.776
		c0.582,0.117,1.178,0.177,1.78,0.177c4.963,0,9-4.037,9-9c0-0.603-0.06-1.198-0.177-1.78c3.733,0.753,6.629,3.824,7.133,7.641
		C306.304-369.23,304.089-366.975,302.693-364.232z"/>
	
		<rect x="300.522" y="-344.535" transform="matrix(-0.5736 -0.8191 0.8191 -0.5736 763.1054 -289.8604)" width="11.183" height="1.999"/>
	
		<rect x="318.497" y="-344.535" transform="matrix(-0.5736 -0.8191 0.8191 -0.5736 791.3909 -275.1372)" width="11.183" height="1.999"/>
	<polygon points="316.93,-339.529 318.699,-339.529 319.13,-339.529 321.14,-339.529 314.726,-348.69 313.088,-347.543 
		317.299,-341.529 315.528,-341.529 313.088,-341.529 314.359,-339.713 315.472,-338.124 320.088,-331.529 321.727,-332.676 
		317.11,-339.271 	"/>
</g>
<g>
	<g>
		<path d="M-79.949-274.16c-1.596-7.445-8.207-13.029-16.127-13.029c-6.423,0-11.977,3.678-14.702,9.035
			c-0.266-0.018-0.53-0.04-0.8-0.04c-6.627,0-11.999,5.372-11.999,12c0,6.607,5.34,11.965,11.938,11.998v0.003h2.062v-2h-1.604
			l-0.447-0.003c-5.485-0.027-9.948-4.513-9.948-9.998c0-5.514,4.485-10,9.999-10c0.175,0,0.347,0.014,0.52,0.025l0.148,0.01
			l1.316,0.088l0.598-1.176c2.492-4.899,7.443-7.942,12.92-7.942c6.79,0,12.75,4.814,14.172,11.448l0.317,1.482l1.514,0.095
			c4.203,0.262,7.496,3.763,7.496,7.971c0,4.397-3.565,7.977-7.957,8c-0.05-0.003-0.093-0.005-0.137-0.007l-2.043,0.007h-2.863v2
			h4.863v-0.007c0.046,0.001,0.091,0.007,0.137,0.007c5.521,0,10-4.477,10-10C-70.577-269.504-74.722-273.835-79.949-274.16z"/>
	</g>
	<g>
		<circle cx="-105.077" cy="-260.617" r="1.5"/>
	</g>
	<g>
		<circle cx="-101.077" cy="-254.693" r="1.5"/>
	</g>
	<g>
		<circle cx="-93.077" cy="-254.693" r="1.5"/>
	</g>
	<g>
		<circle cx="-97.077" cy="-260.617" r="1.5"/>
	</g>
	<g>
		<circle cx="-89.077" cy="-260.617" r="1.5"/>
	</g>
	<g>
		<circle cx="-105.077" cy="-248.672" r="1.5"/>
	</g>
	<g>
		<circle cx="-97.077" cy="-248.672" r="1.5"/>
	</g>
	<g>
		<circle cx="-89.077" cy="-248.672" r="1.5"/>
	</g>
</g>
<g>
	<g>
		<rect x="-4.163" y="-289.638" width="2" height="7.973"/>
	</g>
	<g>
		<rect x="-23.163" y="-270.724" width="7.973" height="2"/>
	</g>
	<g>
		<rect x="-18.49" y="-281.99" transform="matrix(0.7071 0.7071 -0.7071 0.7071 -202.9379 -72.045)" width="7.974" height="2"/>
	</g>
	<g>
		<rect x="7.019" y="-284.972" transform="matrix(0.7071 0.7071 -0.7071 0.7071 -196.3387 -87.969)" width="2" height="7.972"/>
	</g>
	<g>
		<path d="M26.349-263.848c-1.444-6.742-7.433-11.8-14.605-11.8c-2.185,0-4.258,0.47-6.127,1.313
			c-1.666-3.202-5.006-5.394-8.865-5.394c-5.522,0-10,4.477-10,9.999c0,2.46,0.898,4.702,2.373,6.442
			c-1.428,1.84-2.287,4.144-2.287,6.653c0,5.983,4.836,10.836,10.813,10.865v0.003h1.188v-2h-0.721l-0.457-0.003
			c-4.864-0.023-8.822-4.001-8.822-8.865c0-4.89,3.978-8.868,8.867-8.868c0.15,0,0.299,0.012,0.447,0.022l0.148,0.01l1.314,0.085
			l0.597-1.175c2.225-4.372,6.644-7.089,11.532-7.089c6.062,0,11.382,4.298,12.649,10.219l0.318,1.483l1.514,0.094
			c3.708,0.23,6.612,3.319,6.612,7.03c0,3.878-3.144,7.035-7.017,7.057c-0.042-0.003-0.079-0.005-0.117-0.005l-2.047,0.005h-1.819v2
			h3.819v-0.006c0.042,0.001,0.082,0.006,0.124,0.006c5.001,0,9.057-4.054,9.057-9.057
			C34.837-259.631,31.083-263.553,26.349-263.848z M-1.571-267.465c-0.241-0.016-0.48-0.036-0.725-0.036
			c-2.766,0-5.281,1.042-7.2,2.743c-1.092-1.367-1.753-3.09-1.753-4.971c0-4.41,3.589-7.999,8-7.999c3.092,0,5.76,1.773,7.092,4.345
			C1.544-271.943-0.335-269.895-1.571-267.465z"/>
	</g>
	<g>
		<circle cx="2.326" cy="-252.254" r="1.5"/>
	</g>
	<g>
		<circle cx="6.326" cy="-246.254" r="1.5"/>
	</g>
	<g>
		<circle cx="14.326" cy="-246.254" r="1.5"/>
	</g>
	<g>
		<circle cx="10.326" cy="-252.254" r="1.5"/>
	</g>
	<g>
		<circle cx="18.326" cy="-252.254" r="1.5"/>
	</g>
	<g>
		<circle cx="2.326" cy="-240.232" r="1.5"/>
	</g>
	<g>
		<circle cx="10.326" cy="-240.232" r="1.5"/>
	</g>
	<g>
		<circle cx="18.326" cy="-240.232" r="1.5"/>
	</g>
</g>
<g>
	<g>
		<path d="M122.3-267.804c-1.444-6.742-7.433-11.8-14.605-11.8c-1.799,0-3.521,0.32-5.118,0.904
			c-0.949-5.108-5.404-8.98-10.788-8.98c-0.413,0-0.819,0.027-1.222,0.071c0.744,1.112,1.179,2.448,1.179,3.886c0,3.865-3.134,7-7,7
			c-1.438,0-2.773-0.435-3.886-1.179c-0.044,0.401-0.071,0.809-0.071,1.222c0,3.712,1.845,6.987,4.661,8.979
			c-1.653,1.907-2.661,4.389-2.661,7.111c0,5.983,4.836,10.836,10.813,10.865v0.003h1.188v-2h-0.721l-0.457-0.003
			c-4.864-0.023-8.822-4.001-8.822-8.865c0-4.89,3.978-8.868,8.867-8.868c0.15,0,0.299,0.012,0.447,0.022l0.148,0.01l1.314,0.085
			l0.597-1.175c2.225-4.372,6.644-7.089,11.532-7.089c6.062,0,11.382,4.298,12.649,10.219l0.318,1.483l1.514,0.094
			c3.708,0.23,6.612,3.319,6.612,7.03c0,3.878-3.144,7.035-7.017,7.057c-0.042-0.003-0.079-0.005-0.117-0.005l-2.047,0.005h-1.819v2
			h3.819v-0.006c0.042,0.001,0.082,0.006,0.124,0.006c5.001,0,9.057-4.054,9.057-9.057
			C130.788-263.587,127.034-267.509,122.3-267.804z M94.38-271.421c-0.241-0.016-0.48-0.036-0.725-0.036
			c-2.537,0-4.865,0.876-6.715,2.334c-2.012-1.294-3.486-3.354-3.976-5.776c0.582,0.117,1.178,0.177,1.78,0.177c4.963,0,9-4.037,9-9
			c0-0.603-0.06-1.198-0.177-1.78c3.733,0.753,6.629,3.824,7.134,7.64C97.989-276.419,95.774-274.164,94.38-271.421z"/>
	</g>
	<g>
		<circle cx="98.288" cy="-256.211" r="1.5"/>
	</g>
	<g>
		<circle cx="102.288" cy="-250.211" r="1.5"/>
	</g>
	<g>
		<circle cx="110.288" cy="-250.211" r="1.5"/>
	</g>
	<g>
		<circle cx="106.288" cy="-256.211" r="1.5"/>
	</g>
	<g>
		<circle cx="114.288" cy="-256.211" r="1.5"/>
	</g>
	<g>
		<circle cx="98.288" cy="-244.189" r="1.5"/>
	</g>
	<g>
		<circle cx="106.288" cy="-244.189" r="1.5"/>
	</g>
	<g>
		<circle cx="114.288" cy="-244.189" r="1.5"/>
	</g>
</g>
<g>
	<path d="M433.465-366.689c-1.596-7.445-8.207-13.029-16.127-13.029c-6.423,0-11.977,3.678-14.702,9.035
		c-0.266-0.018-0.53-0.04-0.8-0.04c-6.627,0-11.999,5.372-11.999,12c0,6.607,5.34,11.965,11.938,11.998v0.003h2.062v-2h-1.604
		l-0.447-0.003c-5.485-0.027-9.948-4.513-9.948-9.998c0-5.514,4.485-10,9.999-10c0.175,0,0.347,0.014,0.52,0.025l0.148,0.01
		l1.316,0.088l0.598-1.176c2.492-4.899,7.443-7.942,12.92-7.942c6.79,0,12.75,4.814,14.172,11.448l0.317,1.482l1.514,0.095
		c4.203,0.262,7.496,3.763,7.496,7.971c0,4.397-3.565,7.977-7.957,8c-0.05-0.003-0.093-0.005-0.137-0.007l-2.043,0.007h-2.863v2
		h4.863v-0.007c0.046,0.001,0.091,0.007,0.137,0.007c5.521,0,10-4.477,10-10C442.837-362.033,438.692-366.364,433.465-366.689z"/>
	<circle cx="407.837" cy="-339.219" r="1.5"/>
	<circle cx="415.837" cy="-333.219" r="1.5"/>
	<circle cx="423.837" cy="-337.219" r="1.5"/>
	<rect x="406.837" y="-355.694" width="2" height="11.976"/>
	<polygon points="416.837,-337.754 416.837,-339.694 416.837,-351.694 414.837,-351.694 414.837,-339.694 414.837,-337.754 
		414.837,-337.719 416.837,-337.719 	"/>
	<polygon points="424.837,-341.941 424.837,-343.694 424.837,-355.694 422.837,-355.694 422.837,-343.694 422.837,-341.941 
		422.837,-341.719 424.837,-341.719 	"/>
</g>
<g>
	<rect x="-314.912" y="-295.076" width="2" height="7.973"/>
	<rect x="-333.912" y="-276.162" width="7.973" height="2"/>
	<rect x="-329.239" y="-287.429" transform="matrix(0.7071 0.7071 -0.7071 0.7071 -297.7998 146.0948)" width="7.974" height="2"/>
	<rect x="-303.73" y="-290.411" transform="matrix(0.7071 0.7071 -0.7071 0.7071 -291.2006 130.1709)" width="2" height="7.972"/>
	<path d="M-284.4-269.286c-1.444-6.742-7.433-11.8-14.605-11.8c-2.185,0-4.258,0.47-6.126,1.313
		c-1.667-3.202-5.007-5.394-8.866-5.394c-5.522,0-10,4.477-10,9.999c0,2.46,0.899,4.702,2.373,6.442
		c-1.429,1.84-2.287,4.144-2.287,6.653c0,5.983,4.836,10.836,10.813,10.865v0.003h1.188v-2h-0.721l-0.457-0.003
		c-4.864-0.023-8.822-4.001-8.822-8.865c0-4.89,3.978-8.868,8.867-8.868c0.15,0,0.299,0.012,0.447,0.022l0.148,0.01l1.314,0.085
		l0.597-1.175c2.225-4.372,6.644-7.089,11.532-7.089c6.062,0,11.382,4.298,12.649,10.219l0.318,1.483l1.514,0.094
		c3.708,0.23,6.612,3.319,6.612,7.03c0,3.878-3.144,7.035-7.017,7.057c-0.042-0.003-0.079-0.005-0.117-0.005l-2.047,0.005h-0.819v2
		h2.819v-0.006c0.042,0.001,0.082,0.006,0.124,0.006c5.001,0,9.057-4.054,9.057-9.057
		C-275.912-265.069-279.666-268.991-284.4-269.286z M-312.32-272.903c-0.241-0.016-0.48-0.036-0.725-0.036
		c-2.766,0-5.282,1.041-7.2,2.743c-1.092-1.366-1.753-3.09-1.753-4.971c0-4.41,3.589-7.999,8-7.999c3.091,0,5.76,1.773,7.091,4.345
		C-309.205-277.381-311.085-275.333-312.32-272.903z"/>
	<circle cx="-307.922" cy="-242.716" r="1.5"/>
	<circle cx="-299.922" cy="-236.716" r="1.5"/>
	<circle cx="-291.922" cy="-240.716" r="1.5"/>
	<rect x="-308.922" y="-259.191" width="2" height="11.976"/>
	<polygon points="-298.922,-241.251 -298.922,-243.191 -298.922,-255.191 -300.922,-255.191 -300.922,-243.191 -300.922,-241.251 
		-300.922,-241.216 -298.922,-241.216 	"/>
	<polygon points="-290.922,-245.438 -290.922,-247.191 -290.922,-259.191 -292.922,-259.191 -292.922,-247.191 -292.922,-245.438 
		-292.922,-245.216 -290.922,-245.216 	"/>
</g>
<g>
	<path d="M-183.798-272.284c-1.444-6.742-7.433-11.8-14.605-11.8c-1.799,0-3.522,0.32-5.118,0.904
		c-0.949-5.108-5.404-8.98-10.788-8.98c-0.413,0-0.819,0.027-1.222,0.071c0.744,1.112,1.179,2.448,1.179,3.886c0,3.865-3.134,7-7,7
		c-1.438,0-2.773-0.435-3.886-1.179c-0.044,0.401-0.071,0.809-0.071,1.222c0,3.712,1.845,6.987,4.661,8.979
		c-1.653,1.907-2.661,4.389-2.661,7.111c0,5.983,4.836,10.836,10.813,10.865v0.003h1.188v-2h-0.721l-0.457-0.003
		c-4.864-0.023-8.822-4.001-8.822-8.865c0-4.89,3.978-8.868,8.867-8.868c0.15,0,0.299,0.012,0.447,0.022l0.148,0.01l1.314,0.085
		l0.597-1.175c2.225-4.372,6.644-7.089,11.532-7.089c6.062,0,11.382,4.298,12.649,10.219l0.318,1.483l1.514,0.094
		c3.708,0.23,6.612,3.319,6.612,7.03c0,3.878-3.144,7.035-7.017,7.057c-0.042-0.003-0.079-0.005-0.117-0.005l-2.047,0.005h-0.819v2
		h2.819v-0.006c0.042,0.001,0.082,0.006,0.124,0.006c5.001,0,9.057-4.054,9.057-9.057
		C-175.31-268.067-179.063-271.989-183.798-272.284z M-211.718-275.901c-0.241-0.016-0.48-0.036-0.725-0.036
		c-2.537,0-4.865,0.876-6.715,2.334c-2.012-1.294-3.487-3.354-3.976-5.776c0.582,0.117,1.178,0.177,1.78,0.177c4.963,0,9-4.037,9-9
		c0-0.603-0.06-1.198-0.177-1.78c3.733,0.753,6.629,3.824,7.133,7.64C-208.107-280.899-210.322-278.645-211.718-275.901z"/>
	<circle cx="-207.31" cy="-245.71" r="1.5"/>
	<circle cx="-199.31" cy="-239.71" r="1.5"/>
	<circle cx="-191.31" cy="-243.71" r="1.5"/>
	<rect x="-208.31" y="-262.186" width="2" height="11.976"/>
	<polygon points="-198.31,-244.245 -198.31,-246.186 -198.31,-258.186 -200.31,-258.186 -200.31,-246.186 -200.31,-244.245 
		-200.31,-244.21 -198.31,-244.21 	"/>
	<polygon points="-190.31,-248.433 -190.31,-250.186 -190.31,-262.186 -192.31,-262.186 -192.31,-250.186 -192.31,-248.433 
		-192.31,-248.21 -190.31,-248.21 	"/>
</g>
<g>
	<rect x="-331.912" y="-167.844" width="56" height="2"/>
	<rect x="-327.912" y="-161.844" width="50" height="2"/>
	<rect x="-321.912" y="-155.844" width="36" height="2"/>
	<rect x="-329.912" y="-173.844" width="52" height="2"/>
	<path d="M-318.038-181.849c0.175,0,0.347,0.014,0.519,0.025l0.149,0.01l1.316,0.088l0.598-1.176
		c2.493-4.899,7.443-7.942,12.92-7.942c6.79,0,12.75,4.814,14.171,11.448l0.318,1.482l1.514,0.095
		c1.207,0.075,2.335,0.425,3.336,0.975h3.286c-1.678-1.703-3.957-2.813-6.498-2.971c-1.596-7.445-8.207-13.029-16.127-13.029
		c-6.423,0-11.977,3.678-14.702,9.035c-0.266-0.018-0.53-0.04-0.8-0.04c-4.843,0-9.004,2.874-10.9,7.005h2.251
		C-324.956-179.83-321.731-181.849-318.038-181.849z"/>
</g>
<g>
	<rect x="-210.81" y="-195.358" width="2" height="7.973"/>
	<rect x="-229.81" y="-176.444" width="7.973" height="2"/>
	<rect x="-225.137" y="-187.711" transform="matrix(0.7071 0.7071 -0.7071 0.7071 -196.7977 101.6899)" width="7.974" height="2"/>
	<rect x="-199.628" y="-190.693" transform="matrix(0.7071 0.7071 -0.7071 0.7071 -190.1986 85.7659)" width="2" height="7.972"/>
	<rect x="-220.81" y="-161.484" width="50" height="2"/>
	<rect x="-216.81" y="-155.484" width="44" height="2"/>
	<rect x="-210.81" y="-150.484" width="30" height="2"/>
	<rect x="-218.81" y="-167.484" width="46" height="2"/>
	<path d="M-217.901-169.484h0.771h1.927h1.012c1.472-1.087,3.283-1.737,5.249-1.737c0.15,0,0.299,0.012,0.447,0.022l0.148,0.01
		l1.314,0.085l0.597-1.175c2.225-4.372,6.644-7.089,11.532-7.089c5.945,0,11.168,4.139,12.563,9.884h2.043v-0.084
		c-1.444-6.742-7.433-11.8-14.605-11.8c-2.185,0-4.258,0.47-6.126,1.313c-1.667-3.202-5.007-5.394-8.866-5.394
		c-5.522,0-10,4.477-10,9.999C-219.896-173.208-219.147-171.149-217.901-169.484z M-209.896-183.448c3.091,0,5.76,1.773,7.091,4.345
		c-2.298,1.44-4.178,3.488-5.413,5.918c-0.241-0.016-0.48-0.036-0.725-0.036c-2.764,0-5.274,1.045-7.189,2.745
		c-1.097-1.366-1.764-3.089-1.764-4.973C-217.896-179.859-214.307-183.448-209.896-183.448z"/>
</g>
<g>
	<rect x="-122.065" y="-164.922" width="50" height="2"/>
	<rect x="-118.065" y="-158.922" width="44" height="2"/>
	<rect x="-112.065" y="-153.922" width="30" height="2"/>
	<rect x="-120.065" y="-170.922" width="46" height="2"/>
	<path d="M-118.423-172.922h0.037h1.884h1.055c1.472-1.087,3.283-1.737,5.249-1.737c0.15,0,0.299,0.012,0.447,0.022l0.148,0.01
		l1.314,0.085l0.597-1.175c2.225-4.372,6.644-7.089,11.532-7.089c5.945,0,11.168,4.139,12.563,9.884h2.043v-0.084
		c-1.444-6.742-7.433-11.8-14.605-11.8c-1.799,0-3.521,0.32-5.117,0.903c-0.945-5.111-5.402-8.987-10.789-8.987
		c-0.413,0-0.819,0.027-1.222,0.071c0.744,1.112,1.179,2.448,1.179,3.886c0,3.865-3.134,7-7,7c-1.438,0-2.773-0.435-3.886-1.179
		c-0.044,0.401-0.071,0.809-0.071,1.222C-123.065-178.186-121.229-174.915-118.423-172.922z M-119.108-179.933c4.963,0,9-4.037,9-9
		c0-0.603-0.06-1.198-0.177-1.78c3.735,0.753,6.633,3.828,7.134,7.647c-2.712,1.443-4.927,3.699-6.322,6.442
		c-0.241-0.016-0.48-0.036-0.725-0.036c-2.534,0-4.855,0.879-6.701,2.335c-2.02-1.293-3.5-3.356-3.989-5.785
		C-120.307-179.992-119.711-179.933-119.108-179.933z"/>
</g>
<g>
	<path d="M9.826-161.908H-9.647l-0.578-0.003c-5.485-0.027-9.948-4.513-9.948-9.998c0-5.514,4.485-10,9.999-10
		c0.175,0,0.347,0.014,0.519,0.025l0.149,0.01l1.316,0.088l0.598-1.176c2.493-4.899,7.443-7.942,12.92-7.942
		c6.79,0,12.75,4.814,14.171,11.448l0.318,1.482l1.514,0.095c1.822,0.113,3.463,0.845,4.746,1.971h2.732
		c-1.707-2.262-4.348-3.78-7.354-3.967c-1.596-7.445-8.207-13.029-16.127-13.029c-6.423,0-11.977,3.678-14.702,9.035
		c-0.266-0.018-0.53-0.04-0.8-0.04c-6.627,0-11.999,5.372-11.999,12c0,6.607,5.34,11.965,11.938,11.998v0.003H9.826
		c2.205,0,4,1.794,4,4s-1.795,4-4,4v2c3.314,0,6-2.686,6-6C15.826-159.222,13.141-161.908,9.826-161.908z"/>
	<path d="M13.826-165.908H-2.162v2h15.988c3.314,0,6-2.687,6-6c0-3.314-2.686-6-6-6v2c2.205,0,4,1.794,4,4
		S16.031-165.908,13.826-165.908z"/>
	<path d="M26.826-171.908c1.654,0,3,1.346,3,3s-1.346,3-3,3c-0.043,0-0.083-0.011-0.126-0.013h-4.862
		c0.003,0.005,0.009,0.008,0.012,0.013h-0.023v2h5.5v-0.051c2.523-0.254,4.5-2.358,4.5-4.949c0-2.762-2.238-5-5-5V-171.908z"/>
	<path d="M30.826-161.908h-13v2h9.022c-0.004,0.005-0.008,0.008-0.011,0.013H30.7c0.043-0.002,0.083-0.013,0.126-0.013
		c1.654,0,3,1.346,3,3s-1.346,3-3,3v2c2.762,0,5-2.238,5-5S33.588-161.908,30.826-161.908z"/>
	<rect x="-8.174" y="-165.908" width="4" height="2"/>
</g>
<path d="M-197.735-561.012c6.95,1.305,12.226,7.419,12.226,14.742c0,8.272-6.729,15.002-15,15.002
	c-6.79,0-12.531-4.49-14.366-10.728c1.398,0.461,2.867,0.698,4.366,0.698c7.72,0,14-6.281,14-14.001
	C-196.51-557.282-196.934-559.227-197.735-561.012 M-200.51-563.269c-0.338,0-0.668,0.031-1,0.051c1.861,2.113,3,4.881,3,7.92
	c0,6.627-5.372,12.001-12,12.001c-2.599,0-4.998-0.835-6.963-2.239c0.387,9.047,7.821,16.269,16.963,16.269
	c9.39,0,17-7.612,17-17.002S-191.12-563.269-200.51-563.269L-200.51-563.269z"/>
<g>
	<path d="M-303.905-558.273c-7.18,0-13,5.819-13,12.999c0,7.181,5.82,13.002,13,13.002s13-5.821,13-13.002
		C-290.905-552.454-296.726-558.273-303.905-558.273z M-303.905-534.272c-6.065,0-11-4.936-11-11.002
		c0-6.064,4.935-10.999,11-10.999s11,4.935,11,10.999C-292.905-539.208-297.84-534.272-303.905-534.272z"/>
	<rect x="-304.912" y="-571.268" width="2" height="10"/>
	<rect x="-304.912" y="-529.268" width="2" height="10"/>
	<rect x="-329.905" y="-546.268" width="9.993" height="2"/>
	<rect x="-287.912" y="-546.268" width="10.007" height="2"/>
	<rect x="-290.212" y="-565.182" transform="matrix(0.7071 0.7071 -0.7071 0.7071 -480.6719 40.4905)" width="2" height="10.409"/>
	
		<rect x="-319.621" y="-535.773" transform="matrix(-0.7071 -0.7071 0.7071 -0.7071 -168.7521 -1131.0352)" width="2" height="10.41"/>
	<rect x="-323.821" y="-560.972" transform="matrix(0.7071 0.7071 -0.7071 0.7071 -489.2808 61.2839)" width="10.409" height="2"/>
	
		<rect x="-294.413" y="-531.563" transform="matrix(-0.7072 -0.7071 0.7071 -0.7072 -118.5827 -1110.24)" width="10.41" height="2"/>
</g>
<g>
	<rect x="94.261" y="-200.406" width="2" height="7.973"/>
	<rect x="75.288" y="-181.42" width="7.973" height="2"/>
	<rect x="80.014" y="-192.639" transform="matrix(0.7071 0.7071 -0.7071 0.7071 -110.9057 -115.5273)" width="7.974" height="2"/>
	<rect x="105.523" y="-195.621" transform="matrix(0.7071 0.7071 -0.7071 0.7071 -104.3065 -131.4513)" width="2" height="7.972"/>
	<path d="M109.288-158.406l0.005-0.007H96.757l-0.594-0.003c-4.864-0.024-8.822-4.001-8.822-8.865c0-4.89,3.978-8.868,8.867-8.868
		c0.15,0,0.299,0.012,0.447,0.021l0.148,0.011l1.314,0.085l0.597-1.174c2.225-4.373,6.644-7.09,11.532-7.09
		c5.916,0,11.114,4.099,12.54,9.8h2.065c-1.444-6.742-7.433-11.8-14.605-11.8c-2.185,0-4.258,0.47-6.126,1.313
		c-1.667-3.202-5.007-5.394-8.866-5.394c-5.522,0-10,4.477-10,9.999c0,2.46,0.899,4.702,2.373,6.442
		c-1.429,1.84-2.287,4.144-2.287,6.653c0,5.983,4.836,10.836,10.813,10.865v0.003h13.135v0.007c2.205,0,4,1.794,4,4s-1.795,4-4,4v2
		c3.314,0,6-2.686,6-6C115.288-155.72,112.603-158.406,109.288-158.406z M95.255-188.376c3.091,0,5.76,1.773,7.091,4.345
		c-2.298,1.439-4.178,3.488-5.413,5.918c-0.241-0.016-0.48-0.036-0.725-0.036c-2.766,0-5.282,1.042-7.2,2.743
		c-1.092-1.367-1.753-3.09-1.753-4.971C87.255-184.787,90.844-188.376,95.255-188.376z"/>
	<path d="M113.288-162.406H103.3v2h9.988c3.314,0,6-2.687,6-6c0-3.314-2.686-6-6-6v2c2.205,0,4,1.794,4,4
		S115.493-162.406,113.288-162.406z"/>
	<path d="M121.312-162.406h-0.023v2h5.5v-0.051c2.523-0.254,4.5-2.358,4.5-4.949c0-2.762-2.238-5-5-5v2c1.654,0,3,1.346,3,3
		s-1.346,3-3,3c-0.043,0-0.083-0.011-0.126-0.013H121.3C121.303-162.414,121.309-162.41,121.312-162.406z"/>
	<path d="M130.288-158.406h-13v2h9.022c-0.004,0.004-0.008,0.008-0.011,0.013h3.862c0.043-0.002,0.083-0.013,0.126-0.013
		c1.654,0,3,1.346,3,3s-1.346,3-3,3v2c2.762,0,5-2.238,5-5S133.05-158.406,130.288-158.406z"/>
	<rect x="97.288" y="-162.406" width="4" height="2"/>
</g>
<g>
	<path d="M209.25-160.412l0.005-0.007h-12.536l-0.594-0.003c-4.864-0.024-8.822-4.001-8.822-8.865c0-4.89,3.978-8.868,8.867-8.868
		c0.15,0,0.299,0.012,0.447,0.021l0.148,0.011l1.314,0.085l0.597-1.174c2.225-4.373,6.644-7.09,11.532-7.09
		c5.916,0,11.114,4.099,12.54,9.8h2.065c-1.444-6.742-7.433-11.8-14.605-11.8c-1.806,0-3.536,0.322-5.138,0.91
		c-0.938-5.123-5.4-9.01-10.794-9.01c-0.413,0-0.819,0.027-1.222,0.071c0.744,1.112,1.179,2.448,1.179,3.886c0,3.865-3.134,7-7,7
		c-1.438,0-2.773-0.435-3.886-1.179c-0.044,0.401-0.071,0.809-0.071,1.222c0,3.725,1.858,7.009,4.69,8.998
		c-1.655,1.907-2.665,4.392-2.665,7.116c0,5.983,4.836,10.836,10.813,10.865v0.003h13.135v0.007c2.205,0,4,1.794,4,4s-1.795,4-4,4v2
		c3.314,0,6-2.686,6-6C215.25-157.726,212.564-160.412,209.25-160.412z M185.454-183.621c0.582,0.117,1.178,0.177,1.78,0.177
		c4.963,0,9-4.037,9-9c0-0.603-0.06-1.198-0.177-1.78c3.744,0.755,6.646,3.842,7.138,7.674c-2.702,1.444-4.909,3.696-6.301,6.432
		c-0.241-0.016-0.48-0.036-0.725-0.036c-2.535,0-4.861,0.875-6.71,2.33C187.432-179.117,185.945-181.186,185.454-183.621z"/>
	<path d="M213.25-164.412h-9.988v2h9.988c3.314,0,6-2.687,6-6c0-3.314-2.686-6-6-6v2c2.205,0,4,1.794,4,4
		S215.455-164.412,213.25-164.412z"/>
	<path d="M221.273-164.412h-0.023v2h5.5v-0.051c2.523-0.254,4.5-2.358,4.5-4.949c0-2.762-2.238-5-5-5v2c1.654,0,3,1.346,3,3
		s-1.346,3-3,3c-0.043,0-0.083-0.011-0.126-0.013h-4.862C221.265-164.42,221.271-164.416,221.273-164.412z"/>
	<path d="M230.25-160.412h-13v2h9.022c-0.004,0.004-0.008,0.008-0.011,0.013h3.862c0.043-0.002,0.083-0.013,0.126-0.013
		c1.654,0,3,1.346,3,3s-1.346,3-3,3v2c2.762,0,5-2.238,5-5S233.012-160.412,230.25-160.412z"/>
	<rect x="197.25" y="-164.412" width="4" height="2"/>
</g>
<g>
	<rect x="310.143" y="-197.844" width="2" height="10"/>
	<rect x="285.149" y="-172.844" width="9.993" height="2"/>
	<rect x="324.842" y="-191.758" transform="matrix(0.7071 0.7071 -0.7071 0.7071 -36.476 -285.0455)" width="2" height="10.409"/>
	<rect x="291.233" y="-187.548" transform="matrix(0.7071 0.7071 -0.7071 0.7071 -45.0849 -264.2521)" width="10.409" height="2"/>
	<path d="M315.143-157.844h-24v2h24c2.205,0,4,1.794,4,4s-1.795,4-4,4v2c3.314,0,6-2.686,6-6
		C321.143-155.157,318.457-157.844,315.143-157.844z"/>
	<path d="M327.166-161.844h-0.023v2h5.5v-0.051c2.523-0.254,4.5-2.358,4.5-4.949c0-2.762-2.238-5-5-5v2c1.654,0,3,1.346,3,3
		s-1.346,3-3,3c-0.043,0-0.083-0.011-0.126-0.013h-4.862C327.157-161.852,327.163-161.848,327.166-161.844z"/>
	<path d="M336.143-157.844h-13v2h9.022c-0.004,0.004-0.008,0.008-0.011,0.013h3.862c0.043-0.002,0.083-0.013,0.126-0.013
		c1.654,0,3,1.346,3,3s-1.346,3-3,3v2c2.762,0,5-2.238,5-5S338.904-157.844,336.143-157.844z"/>
	<path d="M302.852-161.844h-11.709v2h12.012h0.822h15.166c3.314,0,6-2.687,6-6c0-3.314-2.686-6-6-6v2c2.205,0,4,1.794,4,4
		s-1.795,4-4,4h-12.538c-3.802-1.734-6.455-5.563-6.455-10.007c0-6.064,4.935-10.999,11-10.999c5.384,0,9.868,3.891,10.81,9.006
		h2.021c-0.961-6.23-6.331-11.006-12.831-11.006c-7.18,0-13,5.819-13,12.999C298.149-167.825,299.979-164.229,302.852-161.844z"/>
</g>
<g>
	<path d="M415.369-164.4h-24v2h24c2.205,0,4,1.794,4,4s-1.795,4-4,4v2c3.314,0,6-2.686,6-6
		C421.369-161.714,418.684-164.4,415.369-164.4z"/>
	<path d="M432.869-166.4v-0.051c2.523-0.254,4.5-2.358,4.5-4.949c0-2.762-2.238-5-5-5v2c1.654,0,3,1.346,3,3s-1.346,3-3,3
		c-0.043,0-0.083-0.011-0.126-0.013h-4.862c0.004,0.005,0.009,0.009,0.012,0.013h-0.023v2H432.869z"/>
	<path d="M436.369-164.4h-13v2h9.022c-0.003,0.004-0.007,0.008-0.011,0.013h3.862c0.043-0.002,0.083-0.013,0.126-0.013
		c1.654,0,3,1.346,3,3s-1.346,3-3,3v2c2.762,0,5-2.238,5-5S439.131-164.4,436.369-164.4z"/>
	<path d="M404.203-166.4h15.166c3.314,0,6-2.687,6-6c0-3.314-2.686-6-6-6v2c2.205,0,4,1.794,4,4s-1.795,4-4,4h-12.586
		c-2.596-1.188-4.658-3.339-5.69-6.034c0.849,0.204,1.724,0.309,2.612,0.309c6.168,0,11.187-5.019,11.187-11.188
		c0-1.276-0.22-2.532-0.64-3.717c4.046,1.102,7.168,4.459,7.937,8.63h2.018c-0.964-6.237-6.338-11.016-12.846-11.016
		c-0.259,0-0.511,0.024-0.766,0.039c1.425,1.618,2.297,3.737,2.297,6.063c0,5.072-4.112,9.188-9.187,9.188
		c-1.988,0-3.826-0.641-5.33-1.715c0.162,3.801,1.962,7.165,4.699,9.44h-11.705v2h12.012H404.203z"/>
</g>
<g>
	<path d="M-304.412-79.207h-20c-1.103,0-2-0.897-2-2s0.897-2,2-2h3.445h0.555v-2h-4c-2.209,0-4,1.791-4,4s1.791,4,4,4h20
		c2.205,0,4,1.794,4,4s-1.795,4-4,4v2c3.314,0,6-2.686,6-6C-298.412-76.521-301.098-79.207-304.412-79.207z"/>
	<path d="M-302.412-95.207v2c2.205,0,4,1.794,4,4s-1.795,4-4,4H-318.4v2h15.988c3.314,0,6-2.687,6-6
		C-296.412-92.521-299.098-95.207-302.412-95.207z"/>
	<path d="M-296.412-83.207v2h5.5v-0.051c2.523-0.254,4.5-2.358,4.5-4.949c0-2.762-2.238-5-5-5v2c1.654,0,3,1.346,3,3s-1.346,3-3,3
		c-0.043,0-0.083-0.011-0.126-0.013h-4.862c0.003,0.005,0.009,0.009,0.012,0.013H-296.412z"/>
	<path d="M-285.412-79.207h-11v2h7.022c-0.004,0.004-0.008,0.008-0.011,0.013h3.862c0.043-0.002,0.083-0.013,0.126-0.013
		c1.654,0,3,1.346,3,3s-1.346,3-3,3v2c2.762,0,5-2.238,5-5S-282.65-79.207-285.412-79.207z"/>
</g>
<path d="M231.88-92.86v-0.038h-38.376c-1.103,0-2-0.897-2-2s0.897-2,2-2h33c2.762,0,5-2.238,5-5s-2.238-5-5-5h-37.875v0.008
	c-0.042-0.001-0.083-0.008-0.125-0.008c-2.762,0-5,2.238-5,5s2.238,5,5,5v-2c-1.654,0-3-1.346-3-3s1.346-3,3-3h0.125h3.853h34.022
	c1.654,0,3,1.346,3,3s-1.346,3-3,3h-33c-2.209,0-4,1.791-4,4s1.791,4,4,4h38c1.103,0,2,0.897,2,2s-0.897,2-2,2h-32
	c-2.209,0-4,1.791-4,4s1.791,4,4,4h22c1.103,0,2,0.897,2,2s-0.897,2-2,2h-24.01v0.001c-2.204,0.006-3.99,1.793-3.99,3.999
	s1.786,3.993,3.99,3.999v0.001h12.01c1.103,0,2,0.897,2,2s-0.897,2-2,2h-2c-2.209,0-4,1.791-4,4s1.791,4,4,4v-2
	c-1.103,0-2-0.897-2-2s0.897-2,2-2h2c2.209,0,4-1.791,4-4s-1.791-4-4-4h-12c-1.103,0-2-0.897-2-2s0.897-2,2-2h24
	c2.209,0,4-1.791,4-4c0-2.152-1.704-3.895-3.834-3.983v-0.017h-22.166c-1.103,0-2-0.897-2-2s0.897-2,2-2h32c2.209,0,4-1.791,4-4
	C235.504-90.979,233.91-92.668,231.88-92.86z"/>
<path d="M417.295-102.183v-2.024h-2v2.024c-13.01,0.513-23.462,10.965-23.975,23.976h1.674c1.14-1.222,2.748-2,4.551-2
	c2.26,0,4.233,1.203,5.331,3h1.838c1.098-1.797,3.071-3,5.331-3c2.204,0,4.137,1.144,5.25,2.866v15.134c0,2.21,1.791,4,4,4
	s4-1.79,4-4h-2c0,1.103-0.897,2-2,2s-2-0.897-2-2v-15.134c1.113-1.723,3.046-2.866,5.25-2.866c2.26,0,4.233,1.203,5.331,3h1.838
	c1.098-1.797,3.071-3,5.331-3c1.803,0,3.411,0.778,4.551,2h1.674C440.757-91.218,430.305-101.67,417.295-102.183z M435.045-82.207
	c-2.496,0-4.736,1.114-6.25,2.87c-1.514-1.756-3.754-2.87-6.25-2.87s-4.736,1.114-6.25,2.87c-1.514-1.756-3.754-2.87-6.25-2.87
	s-4.736,1.114-6.25,2.87c-1.514-1.756-3.755-2.87-6.25-2.87c-1.402,0-2.731,0.351-3.897,0.975
	c1.909-10.769,11.339-18.975,22.647-18.975s20.738,8.206,22.647,18.975C437.776-81.856,436.447-82.207,435.045-82.207z"/>
<g>
	<path d="M12,22.105V5c0-2.762-2.238-5-5-5S2,2.238,2,5v17.105C0.764,23.368,0,25.094,0,27c0,3.866,3.134,7,7,7s7-3.134,7-7
		C14,25.094,13.236,23.368,12,22.105z M7,32c-2.757,0-5-2.243-5-5c0-1.313,0.508-2.554,1.429-3.495L4,22.922v-0.816V5
		c0-1.654,1.346-3,3-3s3,1.346,3,3v17.105v0.816l0.571,0.583C11.492,24.446,12,25.688,12,27C12,29.757,9.757,32,7,32z"/>
	<path d="M8,24.176V9H6v15.176C4.833,24.589,3.992,25.691,3.992,27c0,1.662,1.347,3.008,3.008,3.008
		c1.662,0,3.008-1.346,3.008-3.008C10.008,25.691,9.168,24.589,8,24.176z M7,28.008c-0.556,0-1.008-0.452-1.008-1.008
		S6.444,25.992,7,25.992S8.008,26.444,8.008,27S7.556,28.008,7,28.008z"/>
</g>
<g>
	<path d="M111.788,22.105V5c0-2.762-2.238-5-5-5s-5,2.238-5,5v17.105c-1.236,1.263-2,2.988-2,4.895c0,3.866,3.134,7,7,7s7-3.134,7-7
		C113.788,25.094,113.024,23.368,111.788,22.105z M106.788,32c-2.757,0-5-2.243-5-5c0-1.313,0.508-2.554,1.429-3.495l0.571-0.583
		v-0.816V5c0-1.654,1.346-3,3-3s3,1.346,3,3v17.105v0.816l0.571,0.583c0.921,0.941,1.429,2.183,1.429,3.495
		C111.788,29.757,109.545,32,106.788,32z"/>
	<path d="M107.788,24.176V4h-2v20.176c-1.167,0.413-2.008,1.516-2.008,2.824c0,1.662,1.347,3.008,3.008,3.008
		c1.662,0,3.008-1.346,3.008-3.008C109.796,25.691,108.956,24.589,107.788,24.176z M106.788,28.008
		c-0.556,0-1.008-0.452-1.008-1.008s0.452-1.008,1.008-1.008s1.008,0.452,1.008,1.008S107.344,28.008,106.788,28.008z"/>
</g>
<g>
	<path d="M-91.109,22.105V5c0-2.762-2.238-5-5-5s-5,2.238-5,5v17.105c-1.236,1.263-2,2.988-2,4.895c0,3.866,3.134,7,7,7s7-3.134,7-7
		C-89.109,25.094-89.873,23.368-91.109,22.105z M-96.109,32c-2.757,0-5-2.243-5-5c0-1.313,0.508-2.554,1.429-3.495l0.571-0.583
		v-0.816V5c0-1.654,1.346-3,3-3s3,1.346,3,3v17.105v0.816l0.571,0.583c0.921,0.941,1.429,2.183,1.429,3.495
		C-91.109,29.757-93.353,32-96.109,32z"/>
	<path d="M-95.109,24.176V14h-2v10.176c-1.167,0.413-2.008,1.516-2.008,2.824c0,1.662,1.347,3.008,3.008,3.008
		c1.662,0,3.008-1.346,3.008-3.008C-93.102,25.691-93.941,24.589-95.109,24.176z M-96.109,28.008c-0.556,0-1.008-0.452-1.008-1.008
		s0.452-1.008,1.008-1.008s1.008,0.452,1.008,1.008S-95.554,28.008-96.109,28.008z"/>
</g>
<g>
	<path d="M-194.755,22.105V5c0-2.762-2.238-5-5-5s-5,2.238-5,5v17.105c-1.236,1.263-2,2.988-2,4.895c0,3.866,3.134,7,7,7
		s7-3.134,7-7C-192.755,25.094-193.519,23.368-194.755,22.105z M-199.755,32c-2.757,0-5-2.243-5-5c0-1.313,0.508-2.554,1.429-3.495
		l0.571-0.583v-0.816V5c0-1.654,1.346-3,3-3s3,1.346,3,3v17.105v0.816l0.571,0.583c0.921,0.941,1.429,2.183,1.429,3.495
		C-194.755,29.757-196.998,32-199.755,32z"/>
	<path d="M-198.755,24.176V19h-2v5.176c-1.167,0.413-2.008,1.516-2.008,2.824c0,1.662,1.347,3.008,3.008,3.008
		c1.662,0,3.008-1.346,3.008-3.008C-196.747,25.691-197.587,24.589-198.755,24.176z M-199.755,28.008
		c-0.556,0-1.008-0.452-1.008-1.008s0.452-1.008,1.008-1.008s1.008,0.452,1.008,1.008S-199.199,28.008-199.755,28.008z"/>
</g>
<g>
	<path d="M-299.412,22.105V5c0-2.762-2.238-5-5-5s-5,2.238-5,5v17.105c-1.236,1.263-2,2.988-2,4.895c0,3.866,3.134,7,7,7
		s7-3.134,7-7C-297.412,25.094-298.176,23.368-299.412,22.105z M-304.412,32c-2.757,0-5-2.243-5-5c0-1.313,0.508-2.554,1.429-3.495
		l0.571-0.583v-0.816V5c0-1.654,1.346-3,3-3s3,1.346,3,3v17.105v0.816l0.571,0.583c0.921,0.941,1.429,2.183,1.429,3.495
		C-299.412,29.757-301.655,32-304.412,32z"/>
	<path d="M-304.412,23.992c-1.661,0-3.008,1.347-3.008,3.008c0,1.662,1.347,3.008,3.008,3.008c1.662,0,3.008-1.346,3.008-3.008
		C-301.404,25.339-302.75,23.992-304.412,23.992z M-304.412,28.008c-0.556,0-1.008-0.452-1.008-1.008s0.452-1.008,1.008-1.008
		s1.008,0.452,1.008,1.008S-303.856,28.008-304.412,28.008z"/>
</g>
<g>
	<path d="M200.513,2.313c-2.209,0-4,1.791-4,4c0,2.21,1.791,4,4,4c2.211,0,4-1.79,4-4C204.513,4.104,202.724,2.313,200.513,2.313z
		 M200.513,8.313c-1.103,0-2-0.897-2-2s0.897-2,2-2s2,0.897,2,2S201.615,8.313,200.513,8.313z"/>
	<path d="M214.513,30.313c-4.41,0-7.999-3.589-7.999-7.999v-4.002c0-4.41,3.589-7.999,7.999-7.999c2.715,0,5.115,1.362,6.563,3.437
		l1.43-1.43c-1.824-2.429-4.72-4.007-7.992-4.007c-5.522,0-9.999,4.478-9.999,9.999v4.002c0,5.521,4.477,9.999,9.999,9.999
		c3.272,0,6.168-1.579,7.992-4.008l-1.43-1.43C219.629,28.949,217.229,30.313,214.513,30.313z"/>
</g>
<g>
	<path d="M305.209,2.191c-2.209,0-4,1.791-4,4c0,2.21,1.791,4,4,4c2.211,0,4-1.79,4-4C309.209,3.982,307.42,2.191,305.209,2.191z
		 M305.209,8.191c-1.103,0-2-0.897-2-2s0.897-2,2-2s2,0.897,2,2S306.312,8.191,305.209,8.191z"/>
	<polygon points="325.084,10.313 325.084,8.313 313.084,8.313 311.084,8.313 311.084,32.313 313.084,32.313 313.084,20.313 
		321.084,20.313 321.084,18.313 313.084,18.313 313.084,10.313 	"/>
</g>
<g>
	<path d="M416.295,6.004c-7.179,0-13,5.82-13,13s5.821,13,13,13s13-5.82,13-13S423.474,6.004,416.295,6.004z M416.295,30.004
		c-6.065,0-11-4.935-11-11s4.935-11,11-11s11,4.935,11,11S422.36,30.004,416.295,30.004z"/>
	<path d="M412.028,23.246l6.363-2.121l2.121-6.364l-6.363,2.122L412.028,23.246z M415.73,18.464l1.62-0.54l-0.54,1.62l-1.62,0.54
		L415.73,18.464z"/>
</g>
<g>
	<path d="M-304.412,96.521c-7.179,0-13,5.82-13,13s5.821,13,13,13s13-5.82,13-13S-297.233,96.521-304.412,96.521z M-304.412,120.521
		c-6.065,0-11-4.934-11-11c0-6.064,4.935-11,11-11s11,4.936,11,11C-293.412,115.588-298.347,120.521-304.412,120.521z"/>
	<path d="M-301.851,107.943l-2.586-4.422l-2.529,4.33h0.007c-0.299,0.467-0.478,1.018-0.478,1.613c0,1.656,1.343,3,3,3s3-1.344,3-3
		c0-0.559-0.162-1.074-0.428-1.521H-301.851z M-304.437,110.465c-0.552,0-1-0.449-1-1c0-0.188,0.055-0.367,0.162-0.535l0.864-1.355
		l0.826,1.391c0.098,0.164,0.147,0.332,0.147,0.5C-303.437,110.016-303.885,110.465-304.437,110.465z"/>
</g>
<g>
	<path d="M-199.628,96.521c-7.18,0-13,5.82-13,13s5.82,13,13,13s13-5.82,13-13S-192.448,96.521-199.628,96.521z M-199.628,120.521
		c-6.065,0-11-4.934-11-11c0-6.064,4.935-11,11-11s11,4.936,11,11C-188.628,115.588-193.563,120.521-199.628,120.521z"/>
	<path d="M-198.039,106.941c-0.467-0.299-1.018-0.477-1.613-0.477c-1.658,0-3,1.342-3,3c0,1.656,1.342,3,3,3
		c0.557,0,1.072-0.162,1.52-0.428v0.014l4.422-2.586l-4.328-2.529V106.941z M-199.154,110.316c-0.164,0.098-0.332,0.148-0.498,0.148
		c-0.552,0-1-0.449-1-1c0-0.553,0.448-1,1-1c0.188,0,0.368,0.053,0.535,0.16l1.355,0.865L-199.154,110.316z"/>
</g>
<g>
	<path d="M-96.577,96.521c-7.18,0-13,5.82-13,13s5.82,13,13,13s13-5.82,13-13S-89.397,96.521-96.577,96.521z M-96.577,120.521
		c-6.065,0-11-4.934-11-11c0-6.064,4.935-11,11-11s11,4.936,11,11C-85.577,115.588-90.512,120.521-96.577,120.521z"/>
	<path d="M-96.577,106.465c-1.656,0-3,1.342-3,3c0,0.557,0.162,1.072,0.428,1.52h-0.014l2.586,4.422l2.529-4.328h-0.006
		c0.299-0.467,0.477-1.018,0.477-1.613C-93.577,107.807-94.919,106.465-96.577,106.465z M-95.738,110l-0.865,1.355l-0.826-1.393
		c-0.098-0.164-0.147-0.332-0.147-0.498c0-0.553,0.448-1,1-1s1,0.447,1,1C-95.577,109.652-95.631,109.832-95.738,110z"/>
</g>
<g>
	<path d="M6.837,96.521c-7.179,0-13,5.82-13,13s5.821,13,13,13s13-5.82,13-13S14.016,96.521,6.837,96.521z M6.837,120.521
		c-6.065,0-11-4.934-11-11c0-6.064,4.935-11,11-11s11,4.936,11,11C17.837,115.588,12.902,120.521,6.837,120.521z"/>
	<path d="M6.796,106.465c-0.557,0-1.072,0.162-1.52,0.428v-0.014l-4.422,2.586l4.328,2.529v-0.006
		c0.467,0.299,1.018,0.477,1.613,0.477c1.658,0,3-1.342,3-3C9.796,107.809,8.454,106.465,6.796,106.465z M6.796,110.465
		c-0.188,0-0.368-0.055-0.535-0.162l-1.355-0.865l1.393-0.826c0.164-0.098,0.332-0.146,0.498-0.146c0.552,0,1,0.447,1,1
		C7.796,110.016,7.348,110.465,6.796,110.465z"/>
</g>
<g>
	<rect x="-201.314" y="-100.207" width="2" height="10"/>
	<rect x="-186.615" y="-94.121" transform="matrix(0.7071 0.7071 -0.7071 0.7071 -117.2388 105.2064)" width="2" height="10.409"/>
	<rect x="-220.224" y="-89.912" transform="matrix(0.7071 0.7071 -0.7071 0.7071 -125.8476 125.9998)" width="10.409" height="2"/>
	<polygon points="-206.982,-70.953 -205.568,-69.539 -201.314,-73.793 -201.314,-64.207 -199.314,-64.207 -199.314,-73.793 
		-195.062,-69.539 -193.647,-70.953 -200.314,-77.621 	"/>
	<path d="M-187.308-74.208c0-0.002,0-0.004,0-0.006c0-7.18-5.82-12.999-13-12.999s-13,5.819-13,12.999c0,0.002,0,0.004,0,0.006h-13
		v2h18v-2h-3c0-0.002,0-0.004,0-0.006c0-6.064,4.935-10.999,11-10.999s11,4.935,11,10.999c0,0.002,0,0.004,0,0.006h-3v2h17.995v-2
		H-187.308z"/>
</g>
<g>
	<rect x="-97.569" y="-101.395" width="2" height="10"/>
	<rect x="-82.87" y="-95.309" transform="matrix(0.7071 0.7071 -0.7071 0.7071 -87.6922 31.4997)" width="2" height="10.409"/>
	<rect x="-116.478" y="-91.099" transform="matrix(0.7071 0.7071 -0.7071 0.7071 -96.3011 52.2931)" width="10.409" height="2"/>
	<polygon points="-95.569,-66.848 -95.569,-77.395 -97.569,-77.395 -97.569,-66.848 -101.823,-71.102 -103.237,-69.688 
		-96.569,-63.02 -89.902,-69.688 -91.316,-71.102 	"/>
	<path d="M-83.563-75.396c0-0.002,0-0.004,0-0.006c0-7.18-5.82-12.999-13-12.999s-13,5.819-13,12.999c0,0.002,0,0.004,0,0.006h-13v2
		h22v-2h-7c0-0.002,0-0.004,0-0.006c0-6.064,4.935-10.999,11-10.999s11,4.935,11,10.999c0,0.002,0,0.004,0,0.006h-7v2h21.995v-2
		H-83.563z"/>
</g>
<g>
	<polygon points="106.788,-67.382 106.788,-81.765 104.788,-81.765 104.788,-67.382 100.534,-71.636 99.12,-70.222 105.788,-63.554 
		112.455,-70.222 111.041,-71.636 	"/>
	<path d="M122.416-86.735c-1.596-7.445-8.207-13.029-16.127-13.029c-6.423,0-11.977,3.678-14.702,9.035
		c-0.266-0.018-0.53-0.04-0.8-0.04c-6.627,0-11.999,5.372-11.999,12c0,6.607,5.34,11.965,11.938,11.998v0.003h6.062v-2h-5.604
		l-0.447-0.003c-5.485-0.027-9.948-4.513-9.948-9.998c0-5.514,4.485-10,9.999-10c0.175,0,0.347,0.014,0.52,0.025l0.148,0.01
		l1.316,0.088l0.598-1.176c2.492-4.899,7.443-7.942,12.92-7.942c6.79,0,12.75,4.814,14.172,11.448l0.317,1.482l1.514,0.095
		c4.203,0.262,7.496,3.763,7.496,7.971c0,4.397-3.565,7.977-7.957,8c-0.05-0.003-0.093-0.005-0.137-0.007l-2.043,0.007h-4.863v2
		h6.863v-0.007c0.046,0.001,0.091,0.007,0.137,0.007c5.521,0,10-4.477,10-10C131.788-82.079,127.644-86.41,122.416-86.735z"/>
</g>
<g>
	<polygon points="12.772,-70.577 14.187,-71.991 7.52,-78.659 0.852,-71.991 2.266,-70.577 6.52,-74.831 6.52,-62.245 8.52,-62.245 
		8.52,-74.831 	"/>
	<path d="M24.147-85.14c-1.596-7.445-8.207-13.029-16.127-13.029c-6.423,0-11.977,3.678-14.702,9.035
		c-0.266-0.018-0.53-0.04-0.8-0.04c-6.627,0-11.999,5.372-11.999,12c0,6.607,5.34,11.965,11.938,11.998v0.003H2.52v-2h-9.604
		l-0.447-0.003c-5.485-0.027-9.948-4.513-9.948-9.998c0-5.514,4.485-10,9.999-10c0.175,0,0.347,0.014,0.52,0.025l0.148,0.01
		l1.316,0.088l0.598-1.176c2.492-4.899,7.443-7.942,12.92-7.942c6.79,0,12.75,4.814,14.172,11.448l0.317,1.482l1.514,0.095
		c4.203,0.262,7.496,3.763,7.496,7.971c0,4.397-3.565,7.977-7.957,8c-0.05-0.003-0.093-0.005-0.137-0.007l-2.043,0.007H12.52v2
		h10.863v-0.007c0.046,0.001,0.091,0.007,0.137,0.007c5.521,0,10-4.477,10-10C33.52-80.483,29.375-84.814,24.147-85.14z"/>
</g>
<g>
	<path d="M226.637-274.655c-1.596-7.445-8.207-13.029-16.127-13.029c-6.423,0-11.977,3.678-14.702,9.035
		c-0.266-0.018-0.53-0.04-0.8-0.04c-6.627,0-11.999,5.372-11.999,12c0,6.607,5.34,11.965,11.938,11.998v0.003h2.062v-2h-1.604
		l-0.447-0.003c-5.485-0.027-9.948-4.513-9.948-9.998c0-5.514,4.485-10,9.999-10c0.175,0,0.347,0.014,0.52,0.025l0.148,0.01
		l1.316,0.088l0.598-1.176c2.492-4.899,7.443-7.942,12.92-7.942c6.79,0,12.75,4.814,14.172,11.448l0.317,1.482l1.514,0.095
		c4.203,0.262,7.496,3.763,7.496,7.971c0,4.397-3.565,7.977-7.957,8c-0.05-0.003-0.093-0.005-0.137-0.007l-2.043,0.007h-0.863v2
		h2.863v-0.007c0.046,0.001,0.091,0.007,0.137,0.007c5.521,0,10-4.477,10-10C236.009-269.999,231.864-274.33,226.637-274.655z"/>
	<polygon points="205.009,-255.667 205.009,-258.297 207.182,-257.074 207.867,-258.295 205.397,-259.685 207.867,-261.074 
		207.182,-262.295 205.009,-261.072 205.009,-263.667 203.009,-263.667 203.009,-261.028 200.758,-262.295 200.072,-261.074 
		202.542,-259.685 200.072,-258.295 200.758,-257.074 203.009,-258.341 203.009,-255.667 	"/>
	<polygon points="210.171,-251.313 207.998,-250.09 207.998,-252.685 205.998,-252.685 205.998,-250.046 203.747,-251.313 
		203.062,-250.092 205.531,-248.702 203.062,-247.313 203.747,-246.092 205.998,-247.358 205.998,-244.685 207.998,-244.685 
		207.998,-247.314 210.171,-246.092 210.856,-247.313 208.387,-248.702 210.856,-250.092 	"/>
	<polygon points="219.187,-258.295 217.014,-257.072 217.014,-259.667 215.014,-259.667 215.014,-257.028 212.763,-258.295 
		212.077,-257.074 214.547,-255.685 212.077,-254.295 212.763,-253.074 215.014,-254.341 215.014,-251.667 217.014,-251.667 
		217.014,-254.297 219.187,-253.074 219.872,-254.295 217.402,-255.685 219.872,-257.074 	"/>
</g>
<g>
	<rect x="302.148" y="-292.707" width="2" height="7.973"/>
	<rect x="283.148" y="-273.793" width="7.973" height="2"/>
	<rect x="287.821" y="-285.059" transform="matrix(0.7071 0.7071 -0.7071 0.7071 -115.3917 -289.5389)" width="7.974" height="2"/>
	<rect x="313.33" y="-288.041" transform="matrix(0.7071 0.7071 -0.7071 0.7071 -108.7925 -305.4629)" width="2" height="7.972"/>
	<path d="M332.66-266.917c-1.444-6.742-7.433-11.8-14.605-11.8c-2.185,0-4.258,0.471-6.127,1.314
		c-1.666-3.203-5.006-5.395-8.865-5.395c-5.522,0-10,4.477-10,9.999c0,2.46,0.899,4.702,2.373,6.442
		c-1.428,1.84-2.287,4.144-2.287,6.653c0,5.983,4.836,10.836,10.813,10.865v0.003h1.188v-2h-0.721l-0.457-0.003
		c-4.864-0.023-8.822-4.001-8.822-8.865c0-4.89,3.978-8.868,8.867-8.868c0.15,0,0.299,0.012,0.447,0.022l0.148,0.01l1.314,0.085
		l0.597-1.175c2.225-4.372,6.644-7.089,11.532-7.089c6.062,0,11.382,4.298,12.649,10.219l0.318,1.483l1.514,0.094
		c3.708,0.23,6.612,3.319,6.612,7.03c0,3.878-3.144,7.035-7.017,7.057c-0.042-0.003-0.079-0.005-0.117-0.005l-1.866,0.005v2h1.819
		v-0.006c0.042,0.001,0.082,0.006,0.124,0.006c5.001,0,9.057-4.054,9.057-9.057C341.148-262.7,337.395-266.622,332.66-266.917z
		 M304.74-270.534c-0.241-0.016-0.48-0.036-0.725-0.036c-2.766,0-5.282,1.041-7.2,2.742c-1.092-1.365-1.753-3.089-1.753-4.97
		c0-4.41,3.589-7.999,8-7.999c3.092,0,5.76,1.773,7.091,4.346C307.855-275.012,305.977-272.964,304.74-270.534z"/>
	<polygon points="312.141,-249.814 312.141,-252.444 314.313,-251.222 314.999,-252.442 312.529,-253.832 314.999,-255.222 
		314.313,-256.442 312.141,-255.22 312.141,-257.814 310.141,-257.814 310.141,-255.176 307.89,-256.442 307.204,-255.222 
		309.674,-253.832 307.204,-252.442 307.89,-251.222 310.141,-252.488 310.141,-249.814 	"/>
	<polygon points="317.303,-245.46 315.13,-244.237 315.13,-246.832 313.13,-246.832 313.13,-244.193 310.879,-245.46 
		310.193,-244.239 312.663,-242.85 310.193,-241.46 310.879,-240.239 313.13,-241.506 313.13,-238.832 315.13,-238.832 
		315.13,-241.462 317.303,-240.239 317.988,-241.46 315.519,-242.85 317.988,-244.239 	"/>
	<polygon points="326.318,-252.442 324.146,-251.22 324.146,-253.814 322.146,-253.814 322.146,-251.176 319.895,-252.442 
		319.209,-251.222 321.679,-249.832 319.209,-248.442 319.895,-247.222 322.146,-248.488 322.146,-245.814 324.146,-245.814 
		324.146,-248.444 326.318,-247.222 327.004,-248.442 324.534,-249.832 327.004,-251.222 	"/>
</g>
<g>
	<path d="M432.849-269.92c-1.444-6.742-7.433-11.8-14.605-11.8c-1.799,0-3.522,0.32-5.118,0.904
		c-0.949-5.108-5.404-8.98-10.788-8.98c-0.413,0-0.819,0.027-1.222,0.071c0.744,1.112,1.179,2.448,1.179,3.886c0,3.865-3.134,7-7,7
		c-1.438,0-2.773-0.435-3.886-1.179c-0.044,0.401-0.071,0.809-0.071,1.222c0,3.713,1.845,6.987,4.661,8.979
		c-1.653,1.907-2.661,4.389-2.661,7.111c0,5.983,4.836,10.836,10.813,10.865v0.003h1.188v-2h-0.721l-0.457-0.003
		c-4.864-0.023-8.822-4.001-8.822-8.865c0-4.89,3.978-8.868,8.867-8.868c0.15,0,0.299,0.012,0.447,0.022l0.148,0.01l1.314,0.085
		l0.597-1.175c2.225-4.372,6.644-7.089,11.532-7.089c6.062,0,11.382,4.298,12.649,10.219l0.318,1.483l1.514,0.094
		c3.708,0.23,6.612,3.319,6.612,7.03c0,3.878-3.144,7.035-7.017,7.057c-0.042-0.003-0.079-0.005-0.117-0.005l-1.866,0.005v2h1.819
		v-0.006c0.042,0.001,0.082,0.006,0.124,0.006c5.001,0,9.057-4.054,9.057-9.057C441.337-265.703,437.583-269.625,432.849-269.92z
		 M404.929-273.537c-0.241-0.016-0.48-0.036-0.725-0.036c-2.537,0-4.865,0.877-6.715,2.334c-2.012-1.294-3.486-3.354-3.976-5.776
		c0.582,0.117,1.178,0.177,1.78,0.177c4.963,0,9-4.037,9-9c0-0.603-0.06-1.198-0.177-1.78c3.733,0.753,6.629,3.824,7.134,7.64
		C408.538-278.535,406.323-276.28,404.929-273.537z"/>
	<polygon points="412.374,-252.817 412.374,-255.447 414.547,-254.225 415.232,-255.445 412.763,-256.835 415.232,-258.225 
		414.547,-259.445 412.374,-258.223 412.374,-260.817 410.374,-260.817 410.374,-258.179 408.123,-259.445 407.438,-258.225 
		409.907,-256.835 407.438,-255.445 408.123,-254.225 410.374,-255.491 410.374,-252.817 	"/>
	<polygon points="417.536,-248.463 415.363,-247.24 415.363,-249.835 413.363,-249.835 413.363,-247.196 411.112,-248.463 
		410.427,-247.242 412.896,-245.853 410.427,-244.463 411.112,-243.242 413.363,-244.509 413.363,-241.835 415.363,-241.835 
		415.363,-244.465 417.536,-243.242 418.222,-244.463 415.752,-245.853 418.222,-247.242 	"/>
	<polygon points="426.552,-255.445 424.379,-254.223 424.379,-256.817 422.379,-256.817 422.379,-254.179 420.128,-255.445 
		419.442,-254.225 421.912,-252.835 419.442,-251.445 420.128,-250.225 422.379,-251.491 422.379,-248.817 424.379,-248.817 
		424.379,-251.447 426.552,-250.225 427.237,-251.445 424.768,-252.835 427.237,-254.225 	"/>
</g>
<rect x="-183.51" y="-837.67" fill="none" width="472.974" height="180.918"/>
<text transform="matrix(1 0 0 1 -3.8726 -766.271)"><tspan x="0" y="0" font-family="'HelveticaNeueLTStd-Th'" font-size="100" letter-spacing="2">60</tspan><tspan x="-99.268" y="60" font-family="'HelveticaNeueLTStd-Lt'" font-size="48" letter-spacing="1">Weather Icons</tspan><tspan x="-3.726" y="104" font-family="'HelveticaNeueLTStd-Lt'" font-size="24">IOS 7 Style</tspan></text>
</svg>
