<?xml version="1.0" encoding="utf-8"?>
<!-- Generator: Adobe Illustrator 16.0.0, SVG Export Plug-In . SVG Version: 6.00 Build 0)  -->
<!DOCTYPE svg PUBLIC "-//W3C//DTD SVG 1.1//EN" "http://www.w3.org/Graphics/SVG/1.1/DTD/svg11.dtd">
<svg version="1.1" id="Layer_1" xmlns="http://www.w3.org/2000/svg" xmlns:xlink="http://www.w3.org/1999/xlink" x="0px" y="0px"
	 width="14px" height="34px" viewBox="0 0 14 34" enable-background="new 0 0 14 34" xml:space="preserve">
<path d="M420.068-98.505l-1.803,15.077l-0.268,2.237h2.254h6.896l-14.693,18.759l1.789-14.52l0.277-2.245h-2.262h-6.957
	L420.068-98.505 M422.923-105.529l-21.667,28.333h11.004l-2.671,21.667l21.667-27.661h-11.004L422.923-105.529L422.923-105.529z"/>
<path d="M7.033-560.766c6.79,0,12.749,4.814,14.171,11.448l0.318,1.483l1.514,0.094c4.203,0.262,7.496,3.763,7.496,7.971
	c0,4.396-3.565,7.977-7.957,8c-0.046-0.003-0.091-0.006-0.137-0.007l-2.043-0.036v0.043H-7.941l-0.578-0.003
	c-5.485-0.027-9.948-4.513-9.948-9.998c0-5.514,4.485-10,9.999-10c0.175,0,0.347,0.014,0.519,0.025l0.149,0.011l1.316,0.087
	l0.598-1.176C-3.394-557.723,1.557-560.766,7.033-560.766 M7.033-562.766c-6.423,0-11.977,3.678-14.702,9.035
	c-0.266-0.018-0.53-0.04-0.8-0.04c-6.627,0-11.999,5.372-11.999,12c0,6.607,5.34,11.965,11.938,11.998v0.003h30.925v-0.007
	c0.046,0.001,0.091,0.007,0.137,0.007c5.521,0,10-4.477,10-10c0-5.311-4.145-9.642-9.372-9.967
	C21.564-557.182,14.953-562.766,7.033-562.766L7.033-562.766z"/>
<g>
	<path d="M129.984-542.354c-1.444-6.742-7.433-11.8-14.605-11.8c-2.185,0-4.258,0.47-6.127,1.313
		c-1.666-3.202-5.006-5.394-8.865-5.394c-5.522,0-10,4.477-10,9.999c0,2.46,0.898,4.702,2.373,6.442
		c-1.428,1.84-2.287,4.144-2.287,6.653c0,5.983,4.836,10.836,10.813,10.865v0.003h28.007v-0.006
		c0.042,0.001,0.082,0.006,0.124,0.006c5.001,0,9.057-4.054,9.057-9.057C138.473-538.138,134.719-542.06,129.984-542.354z
		 M100.387-556.234c3.092,0,5.76,1.773,7.092,4.345c-2.299,1.44-4.178,3.488-5.414,5.918c-0.241-0.016-0.48-0.036-0.725-0.036
		c-2.766,0-5.281,1.041-7.2,2.743c-1.092-1.366-1.753-3.09-1.753-4.971C92.387-552.646,95.976-556.234,100.387-556.234z
		 M129.456-526.271c-0.038-0.003-0.077-0.004-0.117-0.005l-2.047-0.042v0.047h-25.403l-0.594-0.003
		c-4.864-0.023-8.822-4.001-8.822-8.865c0-4.89,3.978-8.868,8.867-8.868c0.15,0,0.299,0.012,0.447,0.021l0.148,0.011l1.314,0.085
		l0.598-1.174c2.224-4.373,6.643-7.09,11.531-7.09c6.062,0,11.381,4.298,12.65,10.219l0.317,1.482l1.514,0.095
		c3.708,0.231,6.612,3.319,6.612,7.03C136.473-529.45,133.329-526.294,129.456-526.271z"/>
	<rect x="99.393" y="-568.265" width="2" height="7.973"/>
	<rect x="80.42" y="-549.278" width="7.973" height="2"/>
	<rect x="85.146" y="-560.497" transform="matrix(0.7071 0.7071 -0.7071 0.7071 -369.5178 -226.8993)" width="7.974" height="2"/>
	<rect x="110.654" y="-563.479" transform="matrix(0.7071 0.7071 -0.7071 0.7071 -362.9186 -242.8233)" width="2" height="7.972"/>
</g>
<path d="M225.728-546.382c-1.444-6.742-7.433-11.8-14.605-11.8c-1.799,0-3.521,0.32-5.118,0.904
	c-0.949-5.108-5.404-8.98-10.788-8.98c-0.413,0-0.819,0.027-1.222,0.071c0.744,1.112,1.179,2.448,1.179,3.886c0,3.865-3.134,7-7,7
	c-1.438,0-2.773-0.435-3.886-1.179c-0.044,0.401-0.071,0.809-0.071,1.222c0,3.712,1.845,6.987,4.661,8.979
	c-1.653,1.907-2.661,4.389-2.661,7.111c0,5.983,4.836,10.836,10.813,10.865v0.003h28.007v-0.006
	c0.042,0.001,0.082,0.006,0.124,0.006c5.001,0,9.057-4.054,9.057-9.057C234.216-542.165,230.462-546.087,225.728-546.382z
	 M186.393-553.478c0.582,0.117,1.178,0.177,1.78,0.177c4.963,0,9-4.037,9-9c0-0.603-0.06-1.198-0.177-1.78
	c3.733,0.753,6.629,3.824,7.134,7.64c-2.713,1.444-4.928,3.699-6.322,6.442c-0.241-0.016-0.48-0.036-0.725-0.036
	c-2.537,0-4.865,0.876-6.715,2.334C188.356-548.995,186.882-551.055,186.393-553.478z M225.199-530.299
	c-0.038-0.003-0.077-0.004-0.117-0.005l-2.047-0.042v0.047h-25.403l-0.594-0.003c-4.864-0.023-8.822-4.001-8.822-8.865
	c0-4.89,3.978-8.868,8.867-8.868c0.15,0,0.299,0.012,0.447,0.021l0.148,0.011l1.314,0.085l0.598-1.174
	c2.224-4.373,6.643-7.09,11.531-7.09c6.062,0,11.381,4.298,12.65,10.219l0.317,1.482l1.514,0.095
	c3.708,0.231,6.612,3.319,6.612,7.03C232.216-533.478,229.072-530.321,225.199-530.299z"/>
<g>
	<rect x="310.373" y="-537.759" width="2" height="7"/>
	<rect x="318.373" y="-541.759" width="2" height="7"/>
	<rect x="302.373" y="-541.759" width="2" height="7"/>
	<rect x="310.373" y="-527.759" width="2" height="7"/>
	<rect x="318.373" y="-531.759" width="2" height="7"/>
	<rect x="302.373" y="-531.759" width="2" height="7"/>
	<path d="M329.001-554.747c-1.596-7.445-8.207-13.029-16.127-13.029c-6.423,0-11.977,3.678-14.702,9.035
		c-0.266-0.018-0.53-0.04-0.8-0.04c-6.627,0-11.999,5.372-11.999,12c0,6.607,5.34,11.965,11.938,11.998v0.003h2.062v-2h-1.604
		l-0.447-0.003c-5.485-0.027-9.948-4.513-9.948-9.998c0-5.514,4.485-10,9.999-10c0.175,0,0.347,0.014,0.52,0.025l0.148,0.01
		l1.316,0.088l0.598-1.176c2.492-4.899,7.443-7.942,12.92-7.942c6.79,0,12.75,4.814,14.172,11.448l0.317,1.482l1.514,0.095
		c4.203,0.262,7.496,3.763,7.496,7.971c0,4.397-3.565,7.977-7.957,8c-0.05-0.003-0.093-0.005-0.137-0.007l-2.043,0.007h-2.863v2
		h4.863v-0.007c0.046,0.001,0.091,0.007,0.137,0.007c5.521,0,10-4.477,10-10C338.373-550.091,334.229-554.422,329.001-554.747z"/>
</g>
<g>
	<path d="M126.574-465.39c-1.596-7.445-8.207-13.029-16.127-13.029c-6.423,0-11.977,3.678-14.702,9.035
		c-0.266-0.018-0.53-0.04-0.8-0.04c-6.627,0-11.999,5.372-11.999,12c0,6.607,5.34,11.965,11.938,11.998v0.003h2.062v-2h-1.604
		l-0.447-0.003c-5.485-0.027-9.948-4.513-9.948-9.998c0-5.514,4.485-10,9.999-10c0.175,0,0.347,0.014,0.52,0.025l0.148,0.01
		l1.316,0.088l0.598-1.176c2.492-4.899,7.443-7.942,12.92-7.942c6.79,0,12.75,4.814,14.172,11.448l0.317,1.482l1.514,0.095
		c4.203,0.262,7.496,3.763,7.496,7.971c0,4.397-3.565,7.977-7.957,8c-0.05-0.003-0.093-0.005-0.137-0.007l-2.043,0.007h-2.863v2
		h4.863v-0.007c0.046,0.001,0.091,0.007,0.137,0.007c5.521,0,10-4.477,10-10C135.946-460.733,131.802-465.064,126.574-465.39z"/>
	<polygon points="107.946,-438.395 107.946,-436.454 107.946,-430.395 109.946,-430.395 109.946,-436.454 109.946,-438.395 
		109.946,-450.395 107.946,-450.395 	"/>
	<polygon points="115.946,-442.395 115.946,-440.642 115.946,-434.395 117.946,-434.395 117.946,-440.642 117.946,-442.395 
		117.946,-454.395 115.946,-454.395 	"/>
	<polygon points="99.946,-442.395 99.946,-440.329 99.946,-434.395 101.946,-434.395 101.946,-440.329 101.946,-442.395 
		101.946,-454.395 99.946,-454.395 	"/>
</g>
<g>
	<polygon points="422.224,-441.483 415.341,-451.313 413.703,-450.166 420.586,-440.336 421.698,-438.747 425.174,-433.783 
		426.813,-434.93 423.337,-439.895 	"/>
	<polygon points="430.226,-441.485 423.341,-451.313 421.703,-450.165 428.589,-440.337 429.594,-438.901 433.178,-433.786 
		434.816,-434.933 431.232,-440.049 	"/>
	<polygon points="414.224,-441.483 407.341,-451.313 405.703,-450.165 412.586,-440.336 413.771,-438.644 417.175,-433.782 
		418.813,-434.93 415.409,-439.791 	"/>
	<path d="M433.331-465.123c-1.596-7.445-8.207-13.029-16.127-13.029c-6.423,0-11.977,3.678-14.702,9.035
		c-0.266-0.018-0.53-0.04-0.8-0.04c-6.627,0-11.999,5.372-11.999,12c0,6.607,5.34,11.965,11.938,11.998v0.003h2.062v-2h-1.604
		l-0.447-0.003c-5.485-0.027-9.948-4.513-9.948-9.998c0-5.514,4.485-10,9.999-10c0.175,0,0.347,0.014,0.52,0.025l0.148,0.01
		l1.316,0.088l0.598-1.176c2.492-4.899,7.443-7.942,12.92-7.942c6.79,0,12.75,4.814,14.172,11.448l0.317,1.482l1.514,0.095
		c4.203,0.262,7.496,3.763,7.496,7.971c0,4.397-3.565,7.977-7.957,8c-0.05-0.003-0.093-0.005-0.137-0.007l-1.043,0.007h0.137v2
		h0.863v-0.007c0.046,0.001,0.091,0.007,0.137,0.007c5.521,0,10-4.477,10-10C442.703-460.467,438.559-464.798,433.331-465.123z"/>
</g>
<g>
	<rect x="405.029" y="-574.205" width="2" height="7.973"/>
	<rect x="386.029" y="-555.291" width="7.973" height="2"/>
	<rect x="390.702" y="-566.557" transform="matrix(0.7071 0.7071 -0.7071 0.7071 -284.3077 -444.7356)" width="7.974" height="2"/>
	<rect x="416.211" y="-569.539" transform="matrix(0.7071 0.7071 -0.7071 0.7071 -277.7086 -460.6595)" width="2" height="7.972"/>
	<rect x="419.029" y="-533.332" width="2" height="7"/>
	<rect x="427.029" y="-537.332" width="2" height="7"/>
	<rect x="411.029" y="-537.332" width="2" height="7"/>
	<rect x="419.029" y="-523.332" width="2" height="7"/>
	<rect x="427.029" y="-527.332" width="2" height="7"/>
	<rect x="411.029" y="-527.332" width="2" height="7"/>
	<path d="M435.541-548.415c-1.444-6.742-7.433-11.8-14.605-11.8c-2.185,0-4.258,0.47-6.126,1.313
		c-1.667-3.202-5.007-5.394-8.866-5.394c-5.522,0-10,4.477-10,9.999c0,2.46,0.899,4.702,2.373,6.442
		c-1.429,1.84-2.287,4.144-2.287,6.653c0,5.983,4.836,10.836,10.813,10.865v0.003h1.188v-2h-0.721l-0.457-0.003
		c-4.864-0.023-8.822-4.001-8.822-8.865c0-4.89,3.978-8.868,8.867-8.868c0.15,0,0.299,0.012,0.447,0.022l0.148,0.01l1.314,0.085
		l0.597-1.175c2.225-4.372,6.644-7.089,11.532-7.089c6.062,0,11.382,4.298,12.649,10.219l0.318,1.483l1.514,0.094
		c3.708,0.23,6.612,3.319,6.612,7.03c0,3.878-3.144,7.035-7.017,7.057c-0.042-0.003-0.079-0.005-0.117-0.005l-2.047,0.005h-0.819v2
		h2.819v-0.006c0.042,0.001,0.082,0.006,0.124,0.006c5.001,0,9.057-4.054,9.057-9.057
		C444.029-544.198,440.275-548.12,435.541-548.415z M407.621-552.032c-0.241-0.016-0.48-0.036-0.725-0.036
		c-2.766,0-5.282,1.041-7.2,2.743c-1.092-1.366-1.753-3.09-1.753-4.971c0-4.41,3.589-7.999,8-7.999c3.091,0,5.76,1.773,7.091,4.345
		C410.736-556.51,408.856-554.462,407.621-552.032z"/>
</g>
<g>
	<rect x="519.446" y="-534.779" width="2" height="7"/>
	<rect x="527.446" y="-538.779" width="2" height="7"/>
	<rect x="511.446" y="-538.779" width="2" height="7"/>
	<rect x="519.446" y="-524.779" width="2" height="7"/>
	<rect x="527.446" y="-528.779" width="2" height="7"/>
	<rect x="511.446" y="-528.779" width="2" height="7"/>
	<path d="M535.958-549.862c-1.444-6.742-7.433-11.8-14.605-11.8c-1.799,0-3.522,0.32-5.118,0.904
		c-0.949-5.108-5.404-8.98-10.788-8.98c-0.413,0-0.819,0.027-1.222,0.071c0.744,1.112,1.179,2.448,1.179,3.886c0,3.865-3.134,7-7,7
		c-1.438,0-2.773-0.435-3.886-1.179c-0.044,0.401-0.071,0.809-0.071,1.222c0,3.712,1.845,6.987,4.661,8.979
		c-1.653,1.907-2.661,4.389-2.661,7.111c0,5.983,4.836,10.836,10.813,10.865v0.003h1.188v-2h-0.721l-0.457-0.003
		c-4.864-0.023-8.822-4.001-8.822-8.865c0-4.89,3.978-8.868,8.867-8.868c0.15,0,0.299,0.012,0.447,0.022l0.148,0.01l1.314,0.085
		l0.597-1.175c2.225-4.372,6.644-7.089,11.532-7.089c6.062,0,11.382,4.298,12.649,10.219l0.318,1.483l1.514,0.094
		c3.708,0.23,6.612,3.319,6.612,7.03c0,3.878-3.144,7.035-7.017,7.057c-0.042-0.003-0.079-0.005-0.117-0.005l-2.047,0.005h-0.819v2
		h2.819v-0.006c0.042,0.001,0.082,0.006,0.124,0.006c5.001,0,9.057-4.054,9.057-9.057
		C544.446-545.646,540.692-549.567,535.958-549.862z M508.038-553.479c-0.241-0.016-0.48-0.036-0.725-0.036
		c-2.537,0-4.865,0.876-6.715,2.334c-2.012-1.294-3.487-3.354-3.976-5.776c0.582,0.117,1.178,0.177,1.78,0.177c4.963,0,9-4.037,9-9
		c0-0.603-0.06-1.198-0.177-1.78c3.733,0.753,6.629,3.824,7.133,7.64C511.648-558.478,509.434-556.223,508.038-553.479z"/>
</g>
<g>
	<polygon points="212.216,-433.956 212.216,-432.016 212.216,-425.956 214.216,-425.956 214.216,-432.016 214.216,-433.956 
		214.216,-445.956 212.216,-445.956 	"/>
	<polygon points="220.216,-437.956 220.216,-436.203 220.216,-429.956 222.216,-429.956 222.216,-436.203 222.216,-437.956 
		222.216,-449.956 220.216,-449.956 	"/>
	<polygon points="204.216,-437.956 204.216,-435.891 204.216,-429.956 206.216,-429.956 206.216,-435.891 206.216,-437.956 
		206.216,-449.956 204.216,-449.956 	"/>
	<rect x="198.216" y="-484.858" width="2" height="7.973"/>
	<rect x="179.216" y="-465.944" width="7.973" height="2"/>
	<rect x="183.889" y="-477.211" transform="matrix(0.7071 0.7071 -0.7071 0.7071 -281.7043 -272.3273)" width="7.974" height="2"/>
	<rect x="209.398" y="-480.193" transform="matrix(0.7071 0.7071 -0.7071 0.7071 -275.1052 -288.2513)" width="2" height="7.972"/>
	<path d="M228.728-459.068c-1.444-6.742-7.433-11.8-14.605-11.8c-2.185,0-4.258,0.47-6.127,1.313
		c-1.666-3.202-5.006-5.394-8.865-5.394c-5.522,0-10,4.477-10,9.999c0,2.46,0.898,4.702,2.373,6.442
		c-1.428,1.84-2.287,4.144-2.287,6.653c0,5.983,4.836,10.836,10.813,10.865v0.003h1.188v-2h-0.721l-0.457-0.003
		c-4.864-0.023-8.822-4.001-8.822-8.865c0-4.89,3.978-8.868,8.867-8.868c0.15,0,0.299,0.012,0.447,0.022l0.148,0.01l1.314,0.085
		l0.597-1.175c2.225-4.372,6.644-7.089,11.532-7.089c6.062,0,11.382,4.298,12.649,10.219l0.318,1.483l1.514,0.094
		c3.708,0.23,6.612,3.319,6.612,7.03c0,3.878-3.144,7.035-7.017,7.057c-0.042-0.003-0.079-0.005-0.117-0.005l-2.047,0.005h-0.819v2
		h2.819v-0.006c0.042,0.001,0.082,0.006,0.124,0.006c5.001,0,9.057-4.054,9.057-9.057
		C237.216-454.852,233.462-458.773,228.728-459.068z M200.808-462.686c-0.241-0.016-0.48-0.036-0.725-0.036
		c-2.766,0-5.281,1.042-7.2,2.743c-1.092-1.367-1.753-3.09-1.753-4.971c0-4.41,3.589-7.999,8-7.999c3.092,0,5.76,1.773,7.092,4.345
		C203.923-467.164,202.044-465.115,200.808-462.686z"/>
</g>
<g>
	<polygon points="312.613,-436.473 312.613,-434.532 312.613,-428.473 314.613,-428.473 314.613,-434.532 314.613,-436.473 
		314.613,-448.473 312.613,-448.473 	"/>
	<polygon points="320.613,-440.473 320.613,-438.72 320.613,-432.473 322.613,-432.473 322.613,-438.72 322.613,-440.473 
		322.613,-452.473 320.613,-452.473 	"/>
	<polygon points="304.613,-440.473 304.613,-438.407 304.613,-432.473 306.613,-432.473 306.613,-438.407 306.613,-440.473 
		306.613,-452.473 304.613,-452.473 	"/>
	<path d="M329.125-461.585c-1.444-6.742-7.433-11.8-14.605-11.8c-1.799,0-3.521,0.32-5.118,0.904
		c-0.949-5.108-5.404-8.98-10.788-8.98c-0.413,0-0.819,0.027-1.222,0.071c0.744,1.112,1.179,2.448,1.179,3.886c0,3.865-3.134,7-7,7
		c-1.438,0-2.773-0.435-3.886-1.179c-0.044,0.401-0.071,0.809-0.071,1.222c0,3.712,1.845,6.987,4.661,8.979
		c-1.653,1.907-2.661,4.389-2.661,7.111c0,5.983,4.836,10.836,10.813,10.865v0.003h1.188v-2h-0.721l-0.457-0.003
		c-4.864-0.023-8.822-4.001-8.822-8.865c0-4.89,3.978-8.868,8.867-8.868c0.15,0,0.299,0.012,0.447,0.022l0.148,0.01l1.314,0.085
		l0.597-1.175c2.225-4.372,6.644-7.089,11.532-7.089c6.062,0,11.382,4.298,12.649,10.219l0.318,1.483l1.514,0.094
		c3.708,0.23,6.612,3.319,6.612,7.03c0,3.878-3.144,7.035-7.017,7.057c-0.042-0.003-0.079-0.005-0.117-0.005l-2.047,0.005h-0.819v2
		h2.819v-0.006c0.042,0.001,0.082,0.006,0.124,0.006c5.001,0,9.057-4.054,9.057-9.057
		C337.613-457.368,333.859-461.29,329.125-461.585z M301.205-465.202c-0.241-0.016-0.48-0.036-0.725-0.036
		c-2.537,0-4.865,0.876-6.715,2.334c-2.012-1.294-3.486-3.354-3.976-5.776c0.582,0.117,1.178,0.177,1.78,0.177c4.963,0,9-4.037,9-9
		c0-0.603-0.06-1.198-0.177-1.78c3.733,0.753,6.629,3.824,7.134,7.641C304.814-470.2,302.6-467.944,301.205-465.202z"/>
</g>
<g>
	<polygon points="529.648,-435.528 522.766,-445.358 521.128,-444.211 528.011,-434.381 529.123,-432.792 532.599,-427.828 
		534.237,-428.975 530.762,-433.939 	"/>
	<polygon points="537.65,-435.53 530.766,-445.358 529.128,-444.21 536.014,-434.382 537.019,-432.946 540.603,-427.831 
		542.241,-428.978 538.657,-434.094 	"/>
	<polygon points="521.648,-435.528 514.766,-445.358 513.128,-444.21 520.011,-434.381 521.195,-432.688 524.6,-427.827 
		526.237,-428.975 522.834,-433.836 	"/>
	<rect x="509.128" y="-483.077" width="2" height="7.973"/>
	<rect x="490.128" y="-464.163" width="7.973" height="2"/>
	<rect x="494.801" y="-475.43" transform="matrix(0.7071 0.7071 -0.7071 0.7071 -189.3808 -491.6537)" width="7.974" height="2"/>
	<rect x="520.31" y="-478.412" transform="matrix(0.7071 0.7071 -0.7071 0.7071 -182.7816 -507.5776)" width="2" height="7.972"/>
	<path d="M539.64-457.287c-1.444-6.742-7.433-11.8-14.605-11.8c-2.185,0-4.258,0.47-6.126,1.313
		c-1.667-3.202-5.007-5.394-8.866-5.394c-5.522,0-10,4.477-10,9.999c0,2.46,0.899,4.702,2.373,6.442
		c-1.429,1.84-2.287,4.144-2.287,6.653c0,5.983,4.836,10.836,10.813,10.865v0.003h1.188v-2h-0.721l-0.457-0.003
		c-4.864-0.023-8.822-4.001-8.822-8.865c0-4.89,3.978-8.868,8.867-8.868c0.15,0,0.299,0.012,0.447,0.022l0.148,0.01l1.314,0.085
		l0.597-1.175c2.225-4.372,6.644-7.089,11.532-7.089c6.062,0,11.382,4.298,12.649,10.219l0.318,1.483l1.514,0.094
		c3.708,0.23,6.612,3.319,6.612,7.03c0,3.878-3.144,7.035-7.017,7.057c-0.042-0.003-0.079-0.005-0.117-0.005l-0.047,0.005h-0.819v2
		h0.819v-0.006c0.042,0.001,0.082,0.006,0.124,0.006c5.001,0,9.057-4.054,9.057-9.057
		C548.128-453.07,544.374-456.992,539.64-457.287z M511.72-460.904c-0.241-0.016-0.48-0.036-0.725-0.036
		c-2.766,0-5.282,1.042-7.2,2.743c-1.092-1.367-1.753-3.09-1.753-4.971c0-4.41,3.589-7.999,8-7.999c3.091,0,5.76,1.773,7.091,4.345
		C514.835-465.383,512.955-463.334,511.72-460.904z"/>
</g>
<g>
	<polygon points="-193.782,-339.043 -200.665,-348.873 -202.303,-347.726 -195.42,-337.896 -194.308,-336.307 -190.832,-331.343 
		-189.193,-332.489 -192.669,-337.454 	"/>
	<polygon points="-185.78,-339.045 -192.665,-348.873 -194.303,-347.725 -187.417,-337.896 -186.412,-336.461 -182.828,-331.346 
		-181.189,-332.492 -184.773,-337.608 	"/>
	<polygon points="-201.782,-339.043 -208.665,-348.873 -210.303,-347.725 -203.42,-337.896 -202.235,-336.203 -198.831,-331.342 
		-197.193,-332.489 -200.597,-337.351 	"/>
	<path d="M-183.791-360.802c-1.444-6.742-7.433-11.8-14.605-11.8c-1.799,0-3.522,0.32-5.118,0.904
		c-0.949-5.108-5.404-8.98-10.788-8.98c-0.413,0-0.819,0.027-1.222,0.071c0.744,1.112,1.179,2.448,1.179,3.886c0,3.865-3.134,7-7,7
		c-1.438,0-2.773-0.435-3.886-1.179c-0.044,0.401-0.071,0.809-0.071,1.222c0,3.712,1.845,6.987,4.661,8.979
		c-1.653,1.907-2.661,4.389-2.661,7.111c0,5.983,4.836,10.836,10.813,10.865v0.003h1.188v-2h-0.721l-0.457-0.003
		c-4.864-0.023-8.822-4.001-8.822-8.865c0-4.89,3.978-8.868,8.867-8.868c0.15,0,0.299,0.012,0.447,0.022l0.148,0.01l1.314,0.085
		l0.597-1.175c2.225-4.372,6.644-7.089,11.532-7.089c6.062,0,11.382,4.298,12.649,10.219l0.318,1.483l1.514,0.094
		c3.708,0.23,6.612,3.319,6.612,7.03c0,3.878-3.144,7.035-7.017,7.057c-0.042-0.003-0.079-0.005-0.117-0.005l-0.047,0.005h-0.819v2
		h0.819v-0.006c0.042,0.001,0.082,0.006,0.124,0.006c5.001,0,9.057-4.054,9.057-9.057
		C-175.303-356.585-179.057-360.507-183.791-360.802z M-211.711-364.419c-0.241-0.016-0.48-0.036-0.725-0.036
		c-2.537,0-4.865,0.876-6.715,2.334c-2.012-1.294-3.487-3.354-3.976-5.776c0.582,0.117,1.178,0.177,1.78,0.177c4.963,0,9-4.037,9-9
		c0-0.603-0.06-1.198-0.177-1.78c3.733,0.753,6.629,3.824,7.133,7.641C-208.101-369.417-210.315-367.161-211.711-364.419z"/>
</g>
<g>
	<rect x="-201.303" y="-442.89" width="2" height="4"/>
	<rect x="-193.303" y="-446.911" width="2" height="4.021"/>
	<rect x="-209.303" y="-446.911" width="2" height="4.021"/>
	<path d="M-182.675-462.878c-1.596-7.445-8.207-13.029-16.127-13.029c-6.423,0-11.977,3.678-14.702,9.035
		c-0.266-0.018-0.53-0.04-0.8-0.04c-6.627,0-11.999,5.372-11.999,12c0,6.607,5.34,11.965,11.938,11.998v0.003h2.062v-2h-1.604
		l-0.447-0.003c-5.485-0.027-9.948-4.513-9.948-9.998c0-5.514,4.485-10,9.999-10c0.175,0,0.347,0.014,0.52,0.025l0.148,0.01
		l1.316,0.088l0.598-1.176c2.492-4.899,7.443-7.942,12.92-7.942c6.79,0,12.75,4.814,14.172,11.448l0.317,1.482l1.514,0.095
		c4.203,0.262,7.496,3.763,7.496,7.971c0,4.397-3.565,7.977-7.957,8c-0.05-0.003-0.093-0.005-0.137-0.007l-2.043,0.007h-2.863v2
		h4.863v-0.007c0.046,0.001,0.091,0.007,0.137,0.007c5.521,0,10-4.477,10-10C-173.303-458.222-177.447-462.553-182.675-462.878z"/>
	<circle cx="-192.303" cy="-437.869" r="1.5"/>
	<circle cx="-200.303" cy="-433.9" r="1.5"/>
	<circle cx="-208.303" cy="-437.911" r="1.5"/>
</g>
<g>
	<rect x="-108.382" y="-482.344" width="2" height="7.973"/>
	<rect x="-127.382" y="-463.43" width="7.973" height="2"/>
	<rect x="-122.709" y="-474.696" transform="matrix(0.7071 0.7071 -0.7071 0.7071 -369.7266 -54.7935)" width="7.974" height="2"/>
	<rect x="-97.2" y="-477.678" transform="matrix(0.7071 0.7071 -0.7071 0.7071 -363.1275 -70.7175)" width="2" height="7.972"/>
	<path d="M-77.87-456.554c-1.444-6.742-7.433-11.8-14.605-11.8c-2.185,0-4.258,0.47-6.126,1.313
		c-1.667-3.202-5.007-5.394-8.866-5.394c-5.522,0-10,4.477-10,9.999c0,2.46,0.899,4.702,2.373,6.442
		c-1.429,1.84-2.287,4.144-2.287,6.653c0,5.983,4.836,10.836,10.813,10.865v0.003h1.188v-2h-0.721l-0.457-0.003
		c-4.864-0.023-8.822-4.001-8.822-8.865c0-4.89,3.978-8.868,8.867-8.868c0.15,0,0.299,0.012,0.447,0.022l0.148,0.01l1.314,0.085
		l0.597-1.175c2.225-4.372,6.644-7.089,11.532-7.089c6.062,0,11.382,4.298,12.649,10.219l0.318,1.483l1.514,0.094
		c3.708,0.23,6.612,3.319,6.612,7.03c0,3.878-3.144,7.035-7.017,7.057c-0.042-0.003-0.079-0.005-0.117-0.005l-2.047,0.005h-0.819v2
		h2.819v-0.006c0.042,0.001,0.082,0.006,0.124,0.006c5.001,0,9.057-4.054,9.057-9.057C-69.382-452.337-73.136-456.259-77.87-456.554
		z M-105.79-460.171c-0.241-0.016-0.48-0.036-0.725-0.036c-2.766,0-5.282,1.042-7.2,2.743c-1.092-1.367-1.753-3.09-1.753-4.971
		c0-4.41,3.589-7.999,8-7.999c3.091,0,5.76,1.773,7.091,4.345C-102.675-464.649-104.555-462.601-105.79-460.171z"/>
	<rect x="-94.382" y="-438.455" width="2" height="4"/>
	<rect x="-86.382" y="-442.477" width="2" height="4.021"/>
	<rect x="-102.382" y="-442.477" width="2" height="4.021"/>
	<circle cx="-85.382" cy="-433.435" r="1.5"/>
	<circle cx="-93.382" cy="-429.466" r="1.5"/>
	<circle cx="-101.382" cy="-433.477" r="1.5"/>
</g>
<g>
	<path d="M23.056-457.511c-1.444-6.742-7.433-11.8-14.605-11.8c-1.799,0-3.522,0.32-5.118,0.904
		c-0.949-5.108-5.404-8.98-10.788-8.98c-0.413,0-0.819,0.027-1.222,0.071c0.744,1.112,1.179,2.448,1.179,3.886c0,3.865-3.134,7-7,7
		c-1.438,0-2.773-0.435-3.886-1.179c-0.044,0.401-0.071,0.809-0.071,1.222c0,3.712,1.845,6.987,4.661,8.979
		c-1.653,1.907-2.661,4.389-2.661,7.111c0,5.983,4.836,10.836,10.813,10.865v0.003h1.188v-2h-0.721l-0.457-0.003
		c-4.864-0.023-8.822-4.001-8.822-8.865c0-4.89,3.978-8.868,8.867-8.868c0.15,0,0.299,0.012,0.447,0.022l0.148,0.01l1.314,0.085
		l0.597-1.175c2.225-4.372,6.644-7.089,11.532-7.089c6.062,0,11.382,4.298,12.649,10.219l0.318,1.483l1.514,0.094
		c3.708,0.23,6.612,3.319,6.612,7.03c0,3.878-3.144,7.035-7.017,7.057c-0.042-0.003-0.079-0.005-0.117-0.005l-2.047,0.005h-0.819v2
		h2.819v-0.006c0.042,0.001,0.082,0.006,0.124,0.006c5.001,0,9.057-4.054,9.057-9.057C31.544-453.294,27.79-457.216,23.056-457.511z
		 M-4.864-461.128c-0.241-0.016-0.48-0.036-0.725-0.036c-2.537,0-4.865,0.876-6.715,2.334c-2.012-1.294-3.487-3.354-3.976-5.776
		c0.582,0.117,1.178,0.177,1.78,0.177c4.963,0,9-4.037,9-9c0-0.603-0.06-1.198-0.177-1.78c3.733,0.753,6.629,3.824,7.133,7.641
		C-1.254-466.126-3.469-463.87-4.864-461.128z"/>
	<rect x="6.544" y="-439.412" width="2" height="4"/>
	<rect x="14.544" y="-443.434" width="2" height="4.021"/>
	<rect x="-1.456" y="-443.434" width="2" height="4.021"/>
	<circle cx="15.544" cy="-434.392" r="1.5"/>
	<circle cx="7.544" cy="-430.423" r="1.5"/>
	<circle cx="-0.456" cy="-434.434" r="1.5"/>
</g>
<g>
	<path d="M-80.254-364.48c-1.596-7.445-8.207-13.029-16.127-13.029c-6.423,0-11.977,3.678-14.702,9.035
		c-0.266-0.018-0.53-0.04-0.8-0.04c-6.627,0-11.999,5.372-11.999,12c0,6.607,5.34,11.965,11.938,11.998v0.003h6.062v-2h-5.604
		l-0.447-0.003c-5.485-0.027-9.948-4.513-9.948-9.998c0-5.514,4.485-10,9.999-10c0.175,0,0.347,0.014,0.52,0.025l0.148,0.01
		l1.316,0.088l0.598-1.176c2.492-4.899,7.443-7.942,12.92-7.942c6.79,0,12.75,4.814,14.172,11.448l0.317,1.482l1.514,0.095
		c4.203,0.262,7.496,3.763,7.496,7.971c0,4.397-3.565,7.977-7.957,8c-0.05-0.003-0.093-0.005-0.137-0.007l-5.043,0.007h0.137v2
		h4.863v-0.007c0.046,0.001,0.091,0.007,0.137,0.007c5.521,0,10-4.477,10-10C-70.882-359.824-75.026-364.155-80.254-364.48z"/>
	<polygon points="-96.04,-344.51 -94.271,-344.51 -93.84,-344.51 -91.83,-344.51 -98.244,-353.671 -99.882,-352.523 
		-95.671,-346.51 -97.441,-346.51 -99.882,-346.51 -98.61,-344.693 -97.498,-343.104 -91.521,-334.51 -89.882,-335.656 
		-95.859,-344.252 	"/>
</g>
<g>
	<rect x="-4.456" y="-383.61" width="2" height="7.973"/>
	<rect x="-23.456" y="-364.696" width="7.973" height="2"/>
	<rect x="-18.783" y="-375.963" transform="matrix(0.7071 0.7071 -0.7071 0.7071 -269.4724 -99.3618)" width="7.974" height="2"/>
	<rect x="6.726" y="-378.945" transform="matrix(0.7071 0.7071 -0.7071 0.7071 -262.8733 -115.2858)" width="2" height="7.972"/>
	<path d="M26.056-357.82c-1.444-6.742-7.433-11.8-14.605-11.8c-2.185,0-4.258,0.47-6.127,1.313
		c-1.666-3.202-5.006-5.394-8.865-5.394c-5.522,0-10,4.477-10,9.999c0,2.46,0.898,4.702,2.373,6.442
		c-1.428,1.84-2.287,4.144-2.287,6.653c0,5.983,4.836,10.836,10.813,10.865v0.003h4.188v-2h-3.721l-0.457-0.003
		c-4.864-0.023-8.822-4.001-8.822-8.865c0-4.89,3.978-8.868,8.867-8.868c0.15,0,0.299,0.012,0.447,0.022l0.148,0.01l1.314,0.085
		l0.597-1.175c2.225-4.372,6.644-7.089,11.532-7.089c6.062,0,11.382,4.298,12.649,10.219l0.318,1.483l1.514,0.094
		c3.708,0.23,6.612,3.319,6.612,7.03c0,3.878-3.144,7.035-7.017,7.057c-0.042-0.003-0.079-0.005-0.117-0.005l-2.047,0.005h-3.819v2
		h5.819v-0.006c0.042,0.001,0.082,0.006,0.124,0.006c5.001,0,9.057-4.054,9.057-9.057C34.544-353.604,30.79-357.525,26.056-357.82z
		 M-1.864-361.438c-0.241-0.016-0.48-0.036-0.725-0.036c-2.766,0-5.281,1.041-7.2,2.743c-1.092-1.366-1.753-3.09-1.753-4.971
		c0-4.41,3.589-7.999,8-7.999c3.092,0,5.76,1.773,7.092,4.345C1.251-365.915-0.628-363.867-1.864-361.438z"/>
	<polygon points="10.386,-339.73 12.155,-339.73 12.586,-339.73 14.596,-339.73 8.182,-348.892 6.544,-347.744 10.755,-341.73 
		8.984,-341.73 6.544,-341.73 7.815,-339.914 8.928,-338.325 14.905,-329.73 16.544,-330.877 10.566,-339.473 	"/>
</g>
<g>
	<path d="M125.641-360.116c-1.444-6.742-7.433-11.8-14.605-11.8c-1.799,0-3.521,0.32-5.118,0.904
		c-0.949-5.108-5.404-8.98-10.788-8.98c-0.413,0-0.819,0.027-1.222,0.071c0.744,1.112,1.179,2.448,1.179,3.886c0,3.865-3.134,7-7,7
		c-1.438,0-2.773-0.435-3.886-1.179c-0.044,0.401-0.071,0.809-0.071,1.222c0,3.712,1.845,6.987,4.661,8.979
		c-1.653,1.907-2.661,4.389-2.661,7.111c0,5.983,4.836,10.836,10.813,10.865v0.003h4.188v-2h-3.721l-0.457-0.003
		c-4.864-0.023-8.822-4.001-8.822-8.865c0-4.89,3.978-8.868,8.867-8.868c0.15,0,0.299,0.012,0.447,0.022l0.148,0.01l1.314,0.085
		l0.597-1.175c2.225-4.372,6.644-7.089,11.532-7.089c6.062,0,11.382,4.298,12.649,10.219l0.318,1.483l1.514,0.094
		c3.708,0.23,6.612,3.319,6.612,7.03c0,3.878-3.144,7.035-7.017,7.057c-0.042-0.003-0.079-0.005-0.117-0.005l-2.047,0.005h-3.819v2
		h5.819v-0.006c0.042,0.001,0.082,0.006,0.124,0.006c5.001,0,9.057-4.054,9.057-9.057
		C134.129-355.899,130.375-359.821,125.641-360.116z M97.721-363.733c-0.241-0.016-0.48-0.036-0.725-0.036
		c-2.537,0-4.865,0.876-6.715,2.334c-2.012-1.294-3.486-3.354-3.976-5.776c0.582,0.117,1.178,0.177,1.78,0.177c4.963,0,9-4.037,9-9
		c0-0.603-0.06-1.198-0.177-1.78c3.733,0.753,6.629,3.824,7.134,7.64C101.33-368.731,99.115-366.477,97.721-363.733z"/>
	<polygon points="109.971,-342.026 111.74,-342.026 112.171,-342.026 114.181,-342.026 107.767,-351.188 106.129,-350.04 
		110.34,-344.026 108.569,-344.026 106.129,-344.026 107.4,-342.21 108.513,-340.621 114.49,-332.026 116.129,-333.173 
		110.151,-341.769 	"/>
</g>
<g>
	<path d="M226.525-363.98c-1.596-7.445-8.207-13.029-16.127-13.029c-6.423,0-11.977,3.678-14.702,9.035
		c-0.266-0.018-0.53-0.04-0.8-0.04c-6.627,0-11.999,5.372-11.999,12c0,6.607,5.34,11.965,11.938,11.998v0.003h1.062v-2h-0.604
		l-0.447-0.003c-5.485-0.027-9.948-4.513-9.948-9.998c0-5.514,4.485-10,9.999-10c0.175,0,0.347,0.014,0.52,0.025l0.148,0.01
		l1.316,0.088l0.598-1.176c2.492-4.899,7.443-7.942,12.92-7.942c6.79,0,12.75,4.814,14.172,11.448l0.317,1.482l1.514,0.095
		c4.203,0.262,7.496,3.763,7.496,7.971c0,4.397-3.565,7.977-7.957,8c-0.05-0.003-0.093-0.005-0.137-0.007l-0.906,0.007v2h0.863
		v-0.007c0.046,0.001,0.091,0.007,0.137,0.007c5.521,0,10-4.477,10-10C235.897-359.324,231.753-363.655,226.525-363.98z"/>
	
		<rect x="195.332" y="-346.016" transform="matrix(-0.5736 -0.8191 0.8191 -0.5736 598.7864 -378.3525)" width="11.183" height="1.999"/>
	
		<rect x="213.306" y="-346.016" transform="matrix(-0.5736 -0.8191 0.8191 -0.5736 627.0719 -363.6293)" width="11.183" height="1.999"/>
	<polygon points="211.739,-341.01 213.509,-341.01 213.939,-341.01 215.949,-341.01 209.535,-350.171 207.897,-349.023 
		212.108,-343.01 210.338,-343.01 207.897,-343.01 209.169,-341.193 210.281,-339.604 214.897,-333.01 216.536,-334.156 
		211.92,-340.752 	"/>
</g>
<g>
	<rect x="301.373" y="-383.447" width="2" height="7.973"/>
	<rect x="282.373" y="-364.533" width="7.973" height="2"/>
	<rect x="287.046" y="-375.8" transform="matrix(0.7071 0.7071 -0.7071 0.7071 -179.7818 -315.5679)" width="7.974" height="2"/>
	<rect x="312.555" y="-378.782" transform="matrix(0.7071 0.7071 -0.7071 0.7071 -173.1827 -331.4918)" width="2" height="7.972"/>
	<path d="M331.885-357.657c-1.444-6.742-7.433-11.8-14.605-11.8c-2.185,0-4.258,0.47-6.126,1.313
		c-1.667-3.202-5.007-5.394-8.866-5.394c-5.522,0-10,4.477-10,9.999c0,2.46,0.899,4.702,2.373,6.442
		c-1.429,1.84-2.287,4.144-2.287,6.653c0,5.983,4.836,10.836,10.813,10.865v0.003h0.188v-2l-0.178-0.003
		c-4.864-0.023-8.822-4.001-8.822-8.865c0-4.89,3.978-8.868,8.867-8.868c0.15,0,0.299,0.012,0.447,0.022l0.148,0.01l1.314,0.085
		l0.597-1.175c2.225-4.372,6.644-7.089,11.532-7.089c6.062,0,11.382,4.298,12.649,10.219l0.318,1.483l1.514,0.094
		c3.708,0.23,6.612,3.319,6.612,7.03c0,3.878-3.144,7.035-7.017,7.057c-0.042-0.003-0.079-0.005-0.117-0.005l-0.866,0.005v2h0.819
		v-0.006c0.042,0.001,0.082,0.006,0.124,0.006c5.001,0,9.057-4.054,9.057-9.057C340.373-353.44,336.619-357.362,331.885-357.657z
		 M303.965-361.274c-0.241-0.016-0.48-0.036-0.725-0.036c-2.766,0-5.282,1.042-7.2,2.743c-1.092-1.367-1.753-3.09-1.753-4.971
		c0-4.41,3.589-7.999,8-7.999c3.091,0,5.76,1.773,7.091,4.345C307.08-365.753,305.2-363.704,303.965-361.274z"/>
	
		<rect x="301.795" y="-341.577" transform="matrix(-0.5736 -0.8191 0.8191 -0.5736 762.6848 -284.1632)" width="11.183" height="1.999"/>
	
		<rect x="319.769" y="-341.577" transform="matrix(-0.5736 -0.8191 0.8191 -0.5736 790.9703 -269.4401)" width="11.183" height="1.999"/>
	<polygon points="318.202,-336.571 319.972,-336.571 320.402,-336.571 322.412,-336.571 315.998,-345.732 314.36,-344.585 
		318.571,-338.571 316.801,-338.571 314.36,-338.571 315.632,-336.755 316.744,-335.166 321.36,-328.571 322.999,-329.718 
		318.383,-336.313 	"/>
</g>
<g>
	<path d="M433.723-360.615c-1.444-6.742-7.433-11.8-14.605-11.8c-1.799,0-3.522,0.32-5.118,0.904
		c-0.949-5.108-5.404-8.98-10.788-8.98c-0.413,0-0.819,0.027-1.222,0.071c0.744,1.112,1.179,2.448,1.179,3.886c0,3.865-3.134,7-7,7
		c-1.438,0-2.773-0.435-3.886-1.179c-0.044,0.401-0.071,0.809-0.071,1.222c0,3.712,1.845,6.987,4.661,8.979
		c-1.653,1.907-2.661,4.389-2.661,7.111c0,5.983,4.836,10.836,10.813,10.865v0.003h0.188v-2l-0.178-0.003
		c-4.864-0.023-8.822-4.001-8.822-8.865c0-4.89,3.978-8.868,8.867-8.868c0.15,0,0.299,0.012,0.447,0.022l0.148,0.01l1.314,0.085
		l0.597-1.175c2.225-4.372,6.644-7.089,11.532-7.089c6.062,0,11.382,4.298,12.649,10.219l0.318,1.483l1.514,0.094
		c3.708,0.23,6.612,3.319,6.612,7.03c0,3.878-3.144,7.035-7.017,7.057c-0.042-0.003-0.079-0.005-0.117-0.005l-0.866,0.005v2h0.819
		v-0.006c0.042,0.001,0.082,0.006,0.124,0.006c5.001,0,9.057-4.054,9.057-9.057C442.211-356.398,438.457-360.32,433.723-360.615z
		 M405.803-364.232c-0.241-0.016-0.48-0.036-0.725-0.036c-2.537,0-4.865,0.876-6.715,2.334c-2.012-1.294-3.487-3.354-3.976-5.776
		c0.582,0.117,1.178,0.177,1.78,0.177c4.963,0,9-4.037,9-9c0-0.603-0.06-1.198-0.177-1.78c3.733,0.753,6.629,3.824,7.133,7.641
		C409.413-369.23,407.198-366.975,405.803-364.232z"/>
	
		<rect x="403.632" y="-344.535" transform="matrix(-0.5736 -0.8191 0.8191 -0.5736 925.3622 -205.4025)" width="11.183" height="1.999"/>
	
		<rect x="421.606" y="-344.535" transform="matrix(-0.5736 -0.8191 0.8191 -0.5736 953.6478 -190.6794)" width="11.183" height="1.999"/>
	<polygon points="420.039,-339.529 421.809,-339.529 422.239,-339.529 424.249,-339.529 417.835,-348.69 416.197,-347.543 
		420.408,-341.529 418.638,-341.529 416.197,-341.529 417.469,-339.713 418.581,-338.124 423.197,-331.529 424.836,-332.676 
		420.22,-339.271 	"/>
</g>
<g>
	<g>
		<path d="M23.16-274.16c-1.596-7.445-8.207-13.029-16.127-13.029c-6.423,0-11.977,3.678-14.702,9.035
			c-0.266-0.018-0.53-0.04-0.8-0.04c-6.627,0-11.999,5.372-11.999,12c0,6.607,5.34,11.965,11.938,11.998v0.003h2.062v-2h-1.604
			l-0.447-0.003c-5.485-0.027-9.948-4.513-9.948-9.998c0-5.514,4.485-10,9.999-10c0.175,0,0.347,0.014,0.52,0.025l0.148,0.01
			l1.316,0.088l0.598-1.176c2.492-4.899,7.443-7.942,12.92-7.942c6.79,0,12.75,4.814,14.172,11.448l0.317,1.482l1.514,0.095
			c4.203,0.262,7.496,3.763,7.496,7.971c0,4.397-3.565,7.977-7.957,8c-0.05-0.003-0.093-0.005-0.137-0.007l-2.043,0.007h-2.863v2
			h4.863v-0.007c0.046,0.001,0.091,0.007,0.137,0.007c5.521,0,10-4.477,10-10C32.532-269.504,28.388-273.835,23.16-274.16z"/>
	</g>
	<g>
		<circle cx="-1.968" cy="-260.617" r="1.5"/>
	</g>
	<g>
		<circle cx="2.032" cy="-254.693" r="1.5"/>
	</g>
	<g>
		<circle cx="10.032" cy="-254.693" r="1.5"/>
	</g>
	<g>
		<circle cx="6.032" cy="-260.617" r="1.5"/>
	</g>
	<g>
		<circle cx="14.032" cy="-260.617" r="1.5"/>
	</g>
	<g>
		<circle cx="-1.968" cy="-248.672" r="1.5"/>
	</g>
	<g>
		<circle cx="6.032" cy="-248.672" r="1.5"/>
	</g>
	<g>
		<circle cx="14.032" cy="-248.672" r="1.5"/>
	</g>
</g>
<g>
	<g>
		<rect x="98.946" y="-289.638" width="2" height="7.973"/>
	</g>
	<g>
		<rect x="79.946" y="-270.724" width="7.973" height="2"/>
	</g>
	<g>
		<rect x="84.619" y="-281.99" transform="matrix(0.7071 0.7071 -0.7071 0.7071 -172.7379 -144.9544)" width="7.974" height="2"/>
	</g>
	<g>
		<rect x="110.128" y="-284.972" transform="matrix(0.7071 0.7071 -0.7071 0.7071 -166.1387 -160.8783)" width="2" height="7.972"/>
	</g>
	<g>
		<path d="M129.458-263.848c-1.444-6.742-7.433-11.8-14.605-11.8c-2.185,0-4.258,0.47-6.127,1.313
			c-1.666-3.202-5.006-5.394-8.865-5.394c-5.522,0-10,4.477-10,9.999c0,2.46,0.898,4.702,2.373,6.442
			c-1.428,1.84-2.287,4.144-2.287,6.653c0,5.983,4.836,10.836,10.813,10.865v0.003h1.188v-2h-0.721l-0.457-0.003
			c-4.864-0.023-8.822-4.001-8.822-8.865c0-4.89,3.978-8.868,8.867-8.868c0.15,0,0.299,0.012,0.447,0.022l0.148,0.01l1.314,0.085
			l0.597-1.175c2.225-4.372,6.644-7.089,11.532-7.089c6.062,0,11.382,4.298,12.649,10.219l0.318,1.483l1.514,0.094
			c3.708,0.23,6.612,3.319,6.612,7.03c0,3.878-3.144,7.035-7.017,7.057c-0.042-0.003-0.079-0.005-0.117-0.005l-2.047,0.005h-1.819v2
			h3.819v-0.006c0.042,0.001,0.082,0.006,0.124,0.006c5.001,0,9.057-4.054,9.057-9.057
			C137.946-259.631,134.192-263.553,129.458-263.848z M101.538-267.465c-0.241-0.016-0.48-0.036-0.725-0.036
			c-2.766,0-5.281,1.042-7.2,2.743c-1.092-1.367-1.753-3.09-1.753-4.971c0-4.41,3.589-7.999,8-7.999c3.092,0,5.76,1.773,7.092,4.345
			C104.653-271.943,102.774-269.895,101.538-267.465z"/>
	</g>
	<g>
		<circle cx="105.436" cy="-252.254" r="1.5"/>
	</g>
	<g>
		<circle cx="109.436" cy="-246.254" r="1.5"/>
	</g>
	<g>
		<circle cx="117.436" cy="-246.254" r="1.5"/>
	</g>
	<g>
		<circle cx="113.436" cy="-252.254" r="1.5"/>
	</g>
	<g>
		<circle cx="121.436" cy="-252.254" r="1.5"/>
	</g>
	<g>
		<circle cx="105.436" cy="-240.232" r="1.5"/>
	</g>
	<g>
		<circle cx="113.436" cy="-240.232" r="1.5"/>
	</g>
	<g>
		<circle cx="121.436" cy="-240.232" r="1.5"/>
	</g>
</g>
<g>
	<g>
		<path d="M225.409-267.804c-1.444-6.742-7.433-11.8-14.605-11.8c-1.799,0-3.521,0.32-5.118,0.904
			c-0.949-5.108-5.404-8.98-10.788-8.98c-0.413,0-0.819,0.027-1.222,0.071c0.744,1.112,1.179,2.448,1.179,3.886c0,3.865-3.134,7-7,7
			c-1.438,0-2.773-0.435-3.886-1.179c-0.044,0.401-0.071,0.809-0.071,1.222c0,3.712,1.845,6.987,4.661,8.979
			c-1.653,1.907-2.661,4.389-2.661,7.111c0,5.983,4.836,10.836,10.813,10.865v0.003h1.188v-2h-0.721l-0.457-0.003
			c-4.864-0.023-8.822-4.001-8.822-8.865c0-4.89,3.978-8.868,8.867-8.868c0.15,0,0.299,0.012,0.447,0.022l0.148,0.01l1.314,0.085
			l0.597-1.175c2.225-4.372,6.644-7.089,11.532-7.089c6.062,0,11.382,4.298,12.649,10.219l0.318,1.483l1.514,0.094
			c3.708,0.23,6.612,3.319,6.612,7.03c0,3.878-3.144,7.035-7.017,7.057c-0.042-0.003-0.079-0.005-0.117-0.005l-2.047,0.005h-1.819v2
			h3.819v-0.006c0.042,0.001,0.082,0.006,0.124,0.006c5.001,0,9.057-4.054,9.057-9.057
			C233.897-263.587,230.144-267.509,225.409-267.804z M197.489-271.421c-0.241-0.016-0.48-0.036-0.725-0.036
			c-2.537,0-4.865,0.876-6.715,2.334c-2.012-1.294-3.486-3.354-3.976-5.776c0.582,0.117,1.178,0.177,1.78,0.177c4.963,0,9-4.037,9-9
			c0-0.603-0.06-1.198-0.177-1.78c3.733,0.753,6.629,3.824,7.134,7.64C201.099-276.419,198.884-274.164,197.489-271.421z"/>
	</g>
	<g>
		<circle cx="201.397" cy="-256.211" r="1.5"/>
	</g>
	<g>
		<circle cx="205.397" cy="-250.211" r="1.5"/>
	</g>
	<g>
		<circle cx="213.397" cy="-250.211" r="1.5"/>
	</g>
	<g>
		<circle cx="209.397" cy="-256.211" r="1.5"/>
	</g>
	<g>
		<circle cx="217.397" cy="-256.211" r="1.5"/>
	</g>
	<g>
		<circle cx="201.397" cy="-244.189" r="1.5"/>
	</g>
	<g>
		<circle cx="209.397" cy="-244.189" r="1.5"/>
	</g>
	<g>
		<circle cx="217.397" cy="-244.189" r="1.5"/>
	</g>
</g>
<g>
	<path d="M536.574-366.689c-1.596-7.445-8.207-13.029-16.127-13.029c-6.423,0-11.977,3.678-14.702,9.035
		c-0.266-0.018-0.53-0.04-0.8-0.04c-6.627,0-11.999,5.372-11.999,12c0,6.607,5.34,11.965,11.938,11.998v0.003h2.062v-2h-1.604
		l-0.447-0.003c-5.485-0.027-9.948-4.513-9.948-9.998c0-5.514,4.485-10,9.999-10c0.175,0,0.347,0.014,0.52,0.025l0.148,0.01
		l1.316,0.088l0.598-1.176c2.492-4.899,7.443-7.942,12.92-7.942c6.79,0,12.75,4.814,14.172,11.448l0.317,1.482l1.514,0.095
		c4.203,0.262,7.496,3.763,7.496,7.971c0,4.397-3.565,7.977-7.957,8c-0.05-0.003-0.093-0.005-0.137-0.007l-2.043,0.007h-2.863v2
		h4.863v-0.007c0.046,0.001,0.091,0.007,0.137,0.007c5.521,0,10-4.477,10-10C545.946-362.033,541.802-366.364,536.574-366.689z"/>
	<circle cx="510.946" cy="-339.219" r="1.5"/>
	<circle cx="518.946" cy="-333.219" r="1.5"/>
	<circle cx="526.946" cy="-337.219" r="1.5"/>
	<rect x="509.946" y="-355.694" width="2" height="11.976"/>
	<polygon points="519.946,-337.754 519.946,-339.694 519.946,-351.694 517.946,-351.694 517.946,-339.694 517.946,-337.754 
		517.946,-337.719 519.946,-337.719 	"/>
	<polygon points="527.946,-341.941 527.946,-343.694 527.946,-355.694 525.946,-355.694 525.946,-343.694 525.946,-341.941 
		525.946,-341.719 527.946,-341.719 	"/>
</g>
<g>
	<rect x="-211.803" y="-295.076" width="2" height="7.973"/>
	<rect x="-230.803" y="-276.162" width="7.973" height="2"/>
	<rect x="-226.13" y="-287.429" transform="matrix(0.7071 0.7071 -0.7071 0.7071 -267.5997 73.1855)" width="7.974" height="2"/>
	<rect x="-200.621" y="-290.411" transform="matrix(0.7071 0.7071 -0.7071 0.7071 -261.0006 57.2615)" width="2" height="7.972"/>
	<path d="M-181.291-269.286c-1.444-6.742-7.433-11.8-14.605-11.8c-2.185,0-4.258,0.47-6.126,1.313
		c-1.667-3.202-5.007-5.394-8.866-5.394c-5.522,0-10,4.477-10,9.999c0,2.46,0.899,4.702,2.373,6.442
		c-1.429,1.84-2.287,4.144-2.287,6.653c0,5.983,4.836,10.836,10.813,10.865v0.003h1.188v-2h-0.721l-0.457-0.003
		c-4.864-0.023-8.822-4.001-8.822-8.865c0-4.89,3.978-8.868,8.867-8.868c0.15,0,0.299,0.012,0.447,0.022l0.148,0.01l1.314,0.085
		l0.597-1.175c2.225-4.372,6.644-7.089,11.532-7.089c6.062,0,11.382,4.298,12.649,10.219l0.318,1.483l1.514,0.094
		c3.708,0.23,6.612,3.319,6.612,7.03c0,3.878-3.144,7.035-7.017,7.057c-0.042-0.003-0.079-0.005-0.117-0.005l-2.047,0.005h-0.819v2
		h2.819v-0.006c0.042,0.001,0.082,0.006,0.124,0.006c5.001,0,9.057-4.054,9.057-9.057
		C-172.803-265.069-176.557-268.991-181.291-269.286z M-209.211-272.903c-0.241-0.016-0.48-0.036-0.725-0.036
		c-2.766,0-5.282,1.041-7.2,2.743c-1.092-1.366-1.753-3.09-1.753-4.971c0-4.41,3.589-7.999,8-7.999c3.091,0,5.76,1.773,7.091,4.345
		C-206.096-277.381-207.976-275.333-209.211-272.903z"/>
	<circle cx="-204.813" cy="-242.716" r="1.5"/>
	<circle cx="-196.813" cy="-236.716" r="1.5"/>
	<circle cx="-188.813" cy="-240.716" r="1.5"/>
	<rect x="-205.813" y="-259.191" width="2" height="11.976"/>
	<polygon points="-195.813,-241.251 -195.813,-243.191 -195.813,-255.191 -197.813,-255.191 -197.813,-243.191 -197.813,-241.251 
		-197.813,-241.216 -195.813,-241.216 	"/>
	<polygon points="-187.813,-245.438 -187.813,-247.191 -187.813,-259.191 -189.813,-259.191 -189.813,-247.191 -189.813,-245.438 
		-189.813,-245.216 -187.813,-245.216 	"/>
</g>
<g>
	<path d="M-80.688-272.284c-1.444-6.742-7.433-11.8-14.605-11.8c-1.799,0-3.522,0.32-5.118,0.904
		c-0.949-5.108-5.404-8.98-10.788-8.98c-0.413,0-0.819,0.027-1.222,0.071c0.744,1.112,1.179,2.448,1.179,3.886c0,3.865-3.134,7-7,7
		c-1.438,0-2.773-0.435-3.886-1.179c-0.044,0.401-0.071,0.809-0.071,1.222c0,3.712,1.845,6.987,4.661,8.979
		c-1.653,1.907-2.661,4.389-2.661,7.111c0,5.983,4.836,10.836,10.813,10.865v0.003h1.188v-2h-0.721l-0.457-0.003
		c-4.864-0.023-8.822-4.001-8.822-8.865c0-4.89,3.978-8.868,8.867-8.868c0.15,0,0.299,0.012,0.447,0.022l0.148,0.01l1.314,0.085
		l0.597-1.175c2.225-4.372,6.644-7.089,11.532-7.089c6.062,0,11.382,4.298,12.649,10.219l0.318,1.483l1.514,0.094
		c3.708,0.23,6.612,3.319,6.612,7.03c0,3.878-3.144,7.035-7.017,7.057c-0.042-0.003-0.079-0.005-0.117-0.005l-2.047,0.005H-84.2v2
		h2.819v-0.006c0.042,0.001,0.082,0.006,0.124,0.006c5.001,0,9.057-4.054,9.057-9.057C-72.2-268.067-75.954-271.989-80.688-272.284z
		 M-108.608-275.901c-0.241-0.016-0.48-0.036-0.725-0.036c-2.537,0-4.865,0.876-6.715,2.334c-2.012-1.294-3.487-3.354-3.976-5.776
		c0.582,0.117,1.178,0.177,1.78,0.177c4.963,0,9-4.037,9-9c0-0.603-0.06-1.198-0.177-1.78c3.733,0.753,6.629,3.824,7.133,7.64
		C-104.998-280.899-107.213-278.645-108.608-275.901z"/>
	<circle cx="-104.2" cy="-245.71" r="1.5"/>
	<circle cx="-96.2" cy="-239.71" r="1.5"/>
	<circle cx="-88.2" cy="-243.71" r="1.5"/>
	<rect x="-105.2" y="-262.186" width="2" height="11.976"/>
	<polygon points="-95.2,-244.245 -95.2,-246.186 -95.2,-258.186 -97.2,-258.186 -97.2,-246.186 -97.2,-244.245 -97.2,-244.21 
		-95.2,-244.21 	"/>
	<polygon points="-87.2,-248.433 -87.2,-250.186 -87.2,-262.186 -89.2,-262.186 -89.2,-250.186 -89.2,-248.433 -89.2,-248.21 
		-87.2,-248.21 	"/>
</g>
<g>
	<rect x="-228.803" y="-167.844" width="56" height="2"/>
	<rect x="-224.803" y="-161.844" width="50" height="2"/>
	<rect x="-218.803" y="-155.844" width="36" height="2"/>
	<rect x="-226.803" y="-173.844" width="52" height="2"/>
	<path d="M-214.929-181.849c0.175,0,0.347,0.014,0.519,0.025l0.149,0.01l1.316,0.088l0.598-1.176
		c2.493-4.899,7.443-7.942,12.92-7.942c6.79,0,12.75,4.814,14.171,11.448l0.318,1.482l1.514,0.095
		c1.207,0.075,2.335,0.425,3.336,0.975h3.286c-1.678-1.703-3.957-2.813-6.498-2.971c-1.596-7.445-8.207-13.029-16.127-13.029
		c-6.423,0-11.977,3.678-14.702,9.035c-0.266-0.018-0.53-0.04-0.8-0.04c-4.843,0-9.004,2.874-10.9,7.005h2.251
		C-221.847-179.83-218.622-181.849-214.929-181.849z"/>
</g>
<g>
	<rect x="-107.7" y="-195.358" width="2" height="7.973"/>
	<rect x="-126.7" y="-176.444" width="7.973" height="2"/>
	<rect x="-122.027" y="-187.711" transform="matrix(0.7071 0.7071 -0.7071 0.7071 -166.5977 28.7805)" width="7.974" height="2"/>
	<rect x="-96.518" y="-190.693" transform="matrix(0.7071 0.7071 -0.7071 0.7071 -159.9985 12.8566)" width="2" height="7.972"/>
	<rect x="-117.7" y="-161.484" width="50" height="2"/>
	<rect x="-113.7" y="-155.484" width="44" height="2"/>
	<rect x="-107.7" y="-150.484" width="30" height="2"/>
	<rect x="-115.7" y="-167.484" width="46" height="2"/>
	<path d="M-114.792-169.484h0.771h1.927h1.012c1.472-1.087,3.283-1.737,5.249-1.737c0.15,0,0.299,0.012,0.447,0.022l0.148,0.01
		l1.314,0.085l0.597-1.175c2.225-4.372,6.644-7.089,11.532-7.089c5.945,0,11.168,4.139,12.563,9.884h2.043v-0.084
		c-1.444-6.742-7.433-11.8-14.605-11.8c-2.185,0-4.258,0.47-6.126,1.313c-1.667-3.202-5.007-5.394-8.866-5.394
		c-5.522,0-10,4.477-10,9.999C-116.786-173.208-116.038-171.149-114.792-169.484z M-106.786-183.448c3.091,0,5.76,1.773,7.091,4.345
		c-2.298,1.44-4.178,3.488-5.413,5.918c-0.241-0.016-0.48-0.036-0.725-0.036c-2.764,0-5.274,1.045-7.189,2.745
		c-1.097-1.366-1.764-3.089-1.764-4.973C-114.786-179.859-111.197-183.448-106.786-183.448z"/>
</g>
<g>
	<rect x="-18.956" y="-164.922" width="50" height="2"/>
	<rect x="-14.956" y="-158.922" width="44" height="2"/>
	<rect x="-8.956" y="-153.922" width="30" height="2"/>
	<rect x="-16.956" y="-170.922" width="46" height="2"/>
	<path d="M-15.313-172.922h0.037h1.884h1.055c1.472-1.087,3.283-1.737,5.249-1.737c0.15,0,0.299,0.012,0.447,0.022l0.148,0.01
		l1.314,0.085l0.597-1.175c2.225-4.372,6.644-7.089,11.532-7.089c5.945,0,11.168,4.139,12.563,9.884h2.043v-0.084
		c-1.444-6.742-7.433-11.8-14.605-11.8c-1.799,0-3.521,0.32-5.117,0.903c-0.945-5.111-5.402-8.987-10.789-8.987
		c-0.413,0-0.819,0.027-1.222,0.071c0.744,1.112,1.179,2.448,1.179,3.886c0,3.865-3.134,7-7,7c-1.438,0-2.773-0.435-3.886-1.179
		c-0.044,0.401-0.071,0.809-0.071,1.222C-19.956-178.186-18.12-174.915-15.313-172.922z M-15.999-179.933c4.963,0,9-4.037,9-9
		c0-0.603-0.06-1.198-0.177-1.78c3.735,0.753,6.633,3.828,7.134,7.647c-2.712,1.443-4.927,3.699-6.322,6.442
		c-0.241-0.016-0.48-0.036-0.725-0.036c-2.534,0-4.855,0.879-6.701,2.335c-2.02-1.293-3.5-3.356-3.989-5.785
		C-17.197-179.992-16.602-179.933-15.999-179.933z"/>
</g>
<g>
	<path d="M112.936-161.908H93.462l-0.578-0.003c-5.485-0.027-9.948-4.513-9.948-9.998c0-5.514,4.485-10,9.999-10
		c0.175,0,0.347,0.014,0.519,0.025l0.149,0.01l1.316,0.088l0.598-1.176c2.493-4.899,7.443-7.942,12.92-7.942
		c6.79,0,12.75,4.814,14.171,11.448l0.318,1.482l1.514,0.095c1.822,0.113,3.463,0.845,4.746,1.971h2.732
		c-1.707-2.262-4.348-3.78-7.354-3.967c-1.596-7.445-8.207-13.029-16.127-13.029c-6.423,0-11.977,3.678-14.702,9.035
		c-0.266-0.018-0.53-0.04-0.8-0.04c-6.627,0-11.999,5.372-11.999,12c0,6.607,5.34,11.965,11.938,11.998v0.003h20.062
		c2.205,0,4,1.794,4,4s-1.795,4-4,4v2c3.314,0,6-2.686,6-6C118.936-159.222,116.25-161.908,112.936-161.908z"/>
	<path d="M116.936-165.908h-15.988v2h15.988c3.314,0,6-2.687,6-6c0-3.314-2.686-6-6-6v2c2.205,0,4,1.794,4,4
		S119.141-165.908,116.936-165.908z"/>
	<path d="M129.936-171.908c1.654,0,3,1.346,3,3s-1.346,3-3,3c-0.043,0-0.083-0.011-0.126-0.013h-4.862
		c0.003,0.005,0.009,0.008,0.012,0.013h-0.023v2h5.5v-0.051c2.523-0.254,4.5-2.358,4.5-4.949c0-2.762-2.238-5-5-5V-171.908z"/>
	<path d="M133.936-161.908h-13v2h9.022c-0.004,0.005-0.008,0.008-0.011,0.013h3.862c0.043-0.002,0.083-0.013,0.126-0.013
		c1.654,0,3,1.346,3,3s-1.346,3-3,3v2c2.762,0,5-2.238,5-5S136.697-161.908,133.936-161.908z"/>
	<rect x="94.936" y="-165.908" width="4" height="2"/>
</g>
<path d="M-94.626-561.012c6.95,1.305,12.226,7.419,12.226,14.742c0,8.272-6.729,15.002-15,15.002c-6.79,0-12.531-4.49-14.366-10.728
	c1.398,0.461,2.867,0.698,4.366,0.698c7.72,0,14-6.281,14-14.001C-93.4-557.282-93.824-559.227-94.626-561.012 M-97.4-563.269
	c-0.338,0-0.668,0.031-1,0.051c1.861,2.113,3,4.881,3,7.92c0,6.627-5.372,12.001-12,12.001c-2.599,0-4.998-0.835-6.963-2.239
	c0.387,9.047,7.821,16.269,16.963,16.269c9.39,0,17-7.612,17-17.002S-88.011-563.269-97.4-563.269L-97.4-563.269z"/>
<g>
	<path d="M-200.796-558.273c-7.18,0-13,5.819-13,12.999c0,7.181,5.82,13.002,13,13.002s13-5.821,13-13.002
		C-187.796-552.454-193.616-558.273-200.796-558.273z M-200.796-534.272c-6.065,0-11-4.936-11-11.002
		c0-6.064,4.935-10.999,11-10.999s11,4.935,11,10.999C-189.796-539.208-194.73-534.272-200.796-534.272z"/>
	<rect x="-201.803" y="-571.268" width="2" height="10"/>
	<rect x="-201.803" y="-529.268" width="2" height="10"/>
	<rect x="-226.796" y="-546.268" width="9.993" height="2"/>
	<rect x="-184.803" y="-546.268" width="10.007" height="2"/>
	<rect x="-187.103" y="-565.182" transform="matrix(0.7071 0.7071 -0.7071 0.7071 -450.4719 -32.4188)" width="2" height="10.409"/>
	<rect x="-216.512" y="-535.773" transform="matrix(-0.7071 -0.7071 0.7071 -0.7071 7.2666 -1058.1257)" width="2" height="10.41"/>
	<rect x="-220.712" y="-560.972" transform="matrix(0.7071 0.7071 -0.7071 0.7071 -459.0807 -11.6254)" width="10.409" height="2"/>
	
		<rect x="-191.304" y="-531.563" transform="matrix(-0.7072 -0.7071 0.7071 -0.7072 57.4409 -1037.3354)" width="10.41" height="2"/>
</g>
<g>
	<rect x="197.37" y="-200.406" width="2" height="7.973"/>
	<rect x="178.397" y="-181.42" width="7.973" height="2"/>
	<rect x="183.123" y="-192.639" transform="matrix(0.7071 0.7071 -0.7071 0.7071 -80.7056 -188.4367)" width="7.974" height="2"/>
	<rect x="208.632" y="-195.621" transform="matrix(0.7071 0.7071 -0.7071 0.7071 -74.1065 -204.3606)" width="2" height="7.972"/>
	<path d="M212.397-158.406l0.005-0.007h-12.536l-0.594-0.003c-4.864-0.024-8.822-4.001-8.822-8.865c0-4.89,3.978-8.868,8.867-8.868
		c0.15,0,0.299,0.012,0.447,0.021l0.148,0.011l1.314,0.085l0.597-1.174c2.225-4.373,6.644-7.09,11.532-7.09
		c5.916,0,11.114,4.099,12.54,9.8h2.065c-1.444-6.742-7.433-11.8-14.605-11.8c-2.185,0-4.258,0.47-6.126,1.313
		c-1.667-3.202-5.007-5.394-8.866-5.394c-5.522,0-10,4.477-10,9.999c0,2.46,0.899,4.702,2.373,6.442
		c-1.429,1.84-2.287,4.144-2.287,6.653c0,5.983,4.836,10.836,10.813,10.865v0.003h13.135v0.007c2.205,0,4,1.794,4,4s-1.795,4-4,4v2
		c3.314,0,6-2.686,6-6C218.397-155.72,215.712-158.406,212.397-158.406z M198.364-188.376c3.091,0,5.76,1.773,7.091,4.345
		c-2.298,1.439-4.178,3.488-5.413,5.918c-0.241-0.016-0.48-0.036-0.725-0.036c-2.766,0-5.282,1.042-7.2,2.743
		c-1.092-1.367-1.753-3.09-1.753-4.971C190.364-184.787,193.953-188.376,198.364-188.376z"/>
	<path d="M216.397-162.406h-9.988v2h9.988c3.314,0,6-2.687,6-6c0-3.314-2.686-6-6-6v2c2.205,0,4,1.794,4,4
		S218.603-162.406,216.397-162.406z"/>
	<path d="M224.421-162.406h-0.023v2h5.5v-0.051c2.523-0.254,4.5-2.358,4.5-4.949c0-2.762-2.238-5-5-5v2c1.654,0,3,1.346,3,3
		s-1.346,3-3,3c-0.043,0-0.083-0.011-0.126-0.013h-4.862C224.412-162.414,224.418-162.41,224.421-162.406z"/>
	<path d="M233.397-158.406h-13v2h9.022c-0.004,0.004-0.008,0.008-0.011,0.013h3.862c0.043-0.002,0.083-0.013,0.126-0.013
		c1.654,0,3,1.346,3,3s-1.346,3-3,3v2c2.762,0,5-2.238,5-5S236.159-158.406,233.397-158.406z"/>
	<rect x="200.397" y="-162.406" width="4" height="2"/>
</g>
<g>
	<path d="M312.359-160.412l0.005-0.007h-12.536l-0.594-0.003c-4.864-0.024-8.822-4.001-8.822-8.865c0-4.89,3.978-8.868,8.867-8.868
		c0.15,0,0.299,0.012,0.447,0.021l0.148,0.011l1.314,0.085l0.597-1.174c2.225-4.373,6.644-7.09,11.532-7.09
		c5.916,0,11.114,4.099,12.54,9.8h2.065c-1.444-6.742-7.433-11.8-14.605-11.8c-1.806,0-3.536,0.322-5.138,0.91
		c-0.938-5.123-5.4-9.01-10.794-9.01c-0.413,0-0.819,0.027-1.222,0.071c0.744,1.112,1.179,2.448,1.179,3.886c0,3.865-3.134,7-7,7
		c-1.438,0-2.773-0.435-3.886-1.179c-0.044,0.401-0.071,0.809-0.071,1.222c0,3.725,1.858,7.009,4.69,8.998
		c-1.655,1.907-2.665,4.392-2.665,7.116c0,5.983,4.836,10.836,10.813,10.865v0.003h13.135v0.007c2.205,0,4,1.794,4,4s-1.795,4-4,4v2
		c3.314,0,6-2.686,6-6C318.359-157.726,315.674-160.412,312.359-160.412z M288.563-183.621c0.582,0.117,1.178,0.177,1.78,0.177
		c4.963,0,9-4.037,9-9c0-0.603-0.06-1.198-0.177-1.78c3.744,0.755,6.646,3.842,7.138,7.674c-2.702,1.444-4.909,3.696-6.301,6.432
		c-0.241-0.016-0.48-0.036-0.725-0.036c-2.535,0-4.861,0.875-6.71,2.33C290.541-179.117,289.055-181.186,288.563-183.621z"/>
	<path d="M316.359-164.412h-9.988v2h9.988c3.314,0,6-2.687,6-6c0-3.314-2.686-6-6-6v2c2.205,0,4,1.794,4,4
		S318.564-164.412,316.359-164.412z"/>
	<path d="M324.383-164.412h-0.023v2h5.5v-0.051c2.523-0.254,4.5-2.358,4.5-4.949c0-2.762-2.238-5-5-5v2c1.654,0,3,1.346,3,3
		s-1.346,3-3,3c-0.043,0-0.083-0.011-0.126-0.013h-4.862C324.374-164.42,324.38-164.416,324.383-164.412z"/>
	<path d="M333.359-160.412h-13v2h9.022c-0.004,0.004-0.008,0.008-0.011,0.013h3.862c0.043-0.002,0.083-0.013,0.126-0.013
		c1.654,0,3,1.346,3,3s-1.346,3-3,3v2c2.762,0,5-2.238,5-5S336.121-160.412,333.359-160.412z"/>
	<rect x="300.359" y="-164.412" width="4" height="2"/>
</g>
<g>
	<rect x="413.252" y="-197.844" width="2" height="10"/>
	<rect x="388.259" y="-172.844" width="9.993" height="2"/>
	<rect x="427.952" y="-191.758" transform="matrix(0.7071 0.7071 -0.7071 0.7071 -6.276 -357.9548)" width="2" height="10.409"/>
	<rect x="394.343" y="-187.548" transform="matrix(0.7071 0.7071 -0.7071 0.7071 -14.8849 -337.1614)" width="10.409" height="2"/>
	<path d="M418.252-157.844h-24v2h24c2.205,0,4,1.794,4,4s-1.795,4-4,4v2c3.314,0,6-2.686,6-6
		C424.252-155.157,421.566-157.844,418.252-157.844z"/>
	<path d="M430.275-161.844h-0.023v2h5.5v-0.051c2.523-0.254,4.5-2.358,4.5-4.949c0-2.762-2.238-5-5-5v2c1.654,0,3,1.346,3,3
		s-1.346,3-3,3c-0.043,0-0.083-0.011-0.126-0.013h-4.862C430.267-161.852,430.272-161.848,430.275-161.844z"/>
	<path d="M439.252-157.844h-13v2h9.022c-0.004,0.004-0.008,0.008-0.011,0.013h3.862c0.043-0.002,0.083-0.013,0.126-0.013
		c1.654,0,3,1.346,3,3s-1.346,3-3,3v2c2.762,0,5-2.238,5-5S442.014-157.844,439.252-157.844z"/>
	<path d="M405.961-161.844h-11.709v2h12.012h0.822h15.166c3.314,0,6-2.687,6-6c0-3.314-2.686-6-6-6v2c2.205,0,4,1.794,4,4
		s-1.795,4-4,4h-12.538c-3.802-1.734-6.455-5.563-6.455-10.007c0-6.064,4.935-10.999,11-10.999c5.384,0,9.868,3.891,10.81,9.006
		h2.021c-0.961-6.23-6.331-11.006-12.831-11.006c-7.18,0-13,5.819-13,12.999C401.259-167.825,403.089-164.229,405.961-161.844z"/>
</g>
<g>
	<path d="M518.479-164.4h-24v2h24c2.205,0,4,1.794,4,4s-1.795,4-4,4v2c3.314,0,6-2.686,6-6
		C524.479-161.714,521.793-164.4,518.479-164.4z"/>
	<path d="M535.979-166.4v-0.051c2.523-0.254,4.5-2.358,4.5-4.949c0-2.762-2.238-5-5-5v2c1.654,0,3,1.346,3,3s-1.346,3-3,3
		c-0.043,0-0.083-0.011-0.126-0.013h-4.862c0.004,0.005,0.009,0.009,0.012,0.013h-0.023v2H535.979z"/>
	<path d="M539.479-164.4h-13v2h9.022c-0.003,0.004-0.007,0.008-0.011,0.013h3.862c0.043-0.002,0.083-0.013,0.126-0.013
		c1.654,0,3,1.346,3,3s-1.346,3-3,3v2c2.762,0,5-2.238,5-5S542.24-164.4,539.479-164.4z"/>
	<path d="M507.313-166.4h15.166c3.314,0,6-2.687,6-6c0-3.314-2.686-6-6-6v2c2.205,0,4,1.794,4,4s-1.795,4-4,4h-12.586
		c-2.596-1.188-4.658-3.339-5.69-6.034c0.849,0.204,1.724,0.309,2.612,0.309c6.168,0,11.187-5.019,11.187-11.188
		c0-1.276-0.22-2.532-0.64-3.717c4.046,1.102,7.168,4.459,7.937,8.63h2.018c-0.964-6.237-6.338-11.016-12.846-11.016
		c-0.259,0-0.511,0.024-0.766,0.039c1.425,1.618,2.297,3.737,2.297,6.063c0,5.072-4.112,9.188-9.187,9.188
		c-1.988,0-3.826-0.641-5.33-1.715c0.162,3.801,1.962,7.165,4.699,9.44h-11.705v2h12.012H507.313z"/>
</g>
<g>
	<path d="M-201.303-79.207h-20c-1.103,0-2-0.897-2-2s0.897-2,2-2h3.445h0.555v-2h-4c-2.209,0-4,1.791-4,4s1.791,4,4,4h20
		c2.205,0,4,1.794,4,4s-1.795,4-4,4v2c3.314,0,6-2.686,6-6C-195.303-76.521-197.988-79.207-201.303-79.207z"/>
	<path d="M-199.303-95.207v2c2.205,0,4,1.794,4,4s-1.795,4-4,4h-15.988v2h15.988c3.314,0,6-2.687,6-6
		C-193.303-92.521-195.988-95.207-199.303-95.207z"/>
	<path d="M-193.303-83.207v2h5.5v-0.051c2.523-0.254,4.5-2.358,4.5-4.949c0-2.762-2.238-5-5-5v2c1.654,0,3,1.346,3,3s-1.346,3-3,3
		c-0.043,0-0.083-0.011-0.126-0.013h-4.862c0.003,0.005,0.009,0.009,0.012,0.013H-193.303z"/>
	<path d="M-182.303-79.207h-11v2h7.022c-0.004,0.004-0.008,0.008-0.011,0.013h3.862c0.043-0.002,0.083-0.013,0.126-0.013
		c1.654,0,3,1.346,3,3s-1.346,3-3,3v2c2.762,0,5-2.238,5-5S-179.541-79.207-182.303-79.207z"/>
</g>
<path d="M334.989-92.86v-0.038h-38.376c-1.103,0-2-0.897-2-2s0.897-2,2-2h33c2.762,0,5-2.238,5-5s-2.238-5-5-5h-37.875v0.008
	c-0.042-0.001-0.083-0.008-0.125-0.008c-2.762,0-5,2.238-5,5s2.238,5,5,5v-2c-1.654,0-3-1.346-3-3s1.346-3,3-3h0.125h3.853h34.022
	c1.654,0,3,1.346,3,3s-1.346,3-3,3h-33c-2.209,0-4,1.791-4,4s1.791,4,4,4h38c1.103,0,2,0.897,2,2s-0.897,2-2,2h-32
	c-2.209,0-4,1.791-4,4s1.791,4,4,4h22c1.103,0,2,0.897,2,2s-0.897,2-2,2h-24.01v0.001c-2.204,0.006-3.99,1.793-3.99,3.999
	s1.786,3.993,3.99,3.999v0.001h12.01c1.103,0,2,0.897,2,2s-0.897,2-2,2h-2c-2.209,0-4,1.791-4,4s1.791,4,4,4v-2
	c-1.103,0-2-0.897-2-2s0.897-2,2-2h2c2.209,0,4-1.791,4-4s-1.791-4-4-4h-12c-1.103,0-2-0.897-2-2s0.897-2,2-2h24
	c2.209,0,4-1.791,4-4c0-2.152-1.704-3.895-3.834-3.983v-0.017h-22.166c-1.103,0-2-0.897-2-2s0.897-2,2-2h32c2.209,0,4-1.791,4-4
	C338.613-90.979,337.02-92.668,334.989-92.86z"/>
<path d="M520.404-102.183v-2.024h-2v2.024c-13.01,0.513-23.462,10.965-23.975,23.976h1.674c1.14-1.222,2.748-2,4.551-2
	c2.26,0,4.233,1.203,5.331,3h1.838c1.098-1.797,3.071-3,5.331-3c2.204,0,4.137,1.144,5.25,2.866v15.134c0,2.21,1.791,4,4,4
	s4-1.79,4-4h-2c0,1.103-0.897,2-2,2s-2-0.897-2-2v-15.134c1.113-1.723,3.046-2.866,5.25-2.866c2.26,0,4.233,1.203,5.331,3h1.838
	c1.098-1.797,3.071-3,5.331-3c1.803,0,3.411,0.778,4.551,2h1.674C543.866-91.218,533.414-101.67,520.404-102.183z M538.154-82.207
	c-2.496,0-4.736,1.114-6.25,2.87c-1.514-1.756-3.754-2.87-6.25-2.87s-4.736,1.114-6.25,2.87c-1.514-1.756-3.754-2.87-6.25-2.87
	s-4.736,1.114-6.25,2.87c-1.514-1.756-3.755-2.87-6.25-2.87c-1.402,0-2.731,0.351-3.897,0.975
	c1.909-10.769,11.339-18.975,22.647-18.975s20.738,8.206,22.647,18.975C540.886-81.856,539.557-82.207,538.154-82.207z"/>
<g>
	<path d="M115.109,22.105V5c0-2.762-2.238-5-5-5s-5,2.238-5,5v17.105c-1.236,1.263-2,2.988-2,4.895c0,3.866,3.134,7,7,7s7-3.134,7-7
		C117.109,25.094,116.346,23.368,115.109,22.105z M110.109,32c-2.757,0-5-2.243-5-5c0-1.313,0.508-2.554,1.429-3.495l0.571-0.583
		v-0.816V5c0-1.654,1.346-3,3-3s3,1.346,3,3v17.105v0.816l0.571,0.583c0.921,0.941,1.429,2.183,1.429,3.495
		C115.109,29.757,112.866,32,110.109,32z"/>
	<path d="M111.109,24.176V9h-2v15.176c-1.167,0.413-2.008,1.516-2.008,2.824c0,1.662,1.347,3.008,3.008,3.008
		c1.662,0,3.008-1.346,3.008-3.008C113.117,25.691,112.277,24.589,111.109,24.176z M110.109,28.008
		c-0.556,0-1.008-0.452-1.008-1.008s0.452-1.008,1.008-1.008s1.008,0.452,1.008,1.008S110.665,28.008,110.109,28.008z"/>
</g>
<g>
	<path d="M214.897,22.105V5c0-2.762-2.238-5-5-5s-5,2.238-5,5v17.105c-1.236,1.263-2,2.988-2,4.895c0,3.866,3.134,7,7,7s7-3.134,7-7
		C216.897,25.094,216.134,23.368,214.897,22.105z M209.897,32c-2.757,0-5-2.243-5-5c0-1.313,0.508-2.554,1.429-3.495l0.571-0.583
		v-0.816V5c0-1.654,1.346-3,3-3s3,1.346,3,3v17.105v0.816l0.571,0.583c0.921,0.941,1.429,2.183,1.429,3.495
		C214.897,29.757,212.654,32,209.897,32z"/>
	<path d="M210.897,24.176V4h-2v20.176c-1.167,0.413-2.008,1.516-2.008,2.824c0,1.662,1.347,3.008,3.008,3.008
		c1.662,0,3.008-1.346,3.008-3.008C212.905,25.691,212.065,24.589,210.897,24.176z M209.897,28.008
		c-0.556,0-1.008-0.452-1.008-1.008s0.452-1.008,1.008-1.008s1.008,0.452,1.008,1.008S210.453,28.008,209.897,28.008z"/>
</g>
<g>
	<path d="M12,22.105V5c0-2.762-2.238-5-5-5S2,2.238,2,5v17.105C0.764,23.368,0,25.094,0,27c0,3.866,3.134,7,7,7s7-3.134,7-7
		C14,25.094,13.236,23.368,12,22.105z M7,32c-2.757,0-5-2.243-5-5c0-1.313,0.508-2.554,1.429-3.495L4,22.922v-0.816V5
		c0-1.654,1.346-3,3-3s3,1.346,3,3v17.105v0.816l0.571,0.583C11.492,24.446,12,25.688,12,27C12,29.757,9.757,32,7,32z"/>
	<path d="M8,24.176V14H6v10.176C4.833,24.589,3.992,25.691,3.992,27c0,1.662,1.347,3.008,3.008,3.008
		c1.662,0,3.008-1.346,3.008-3.008C10.008,25.691,9.168,24.589,8,24.176z M7,28.008c-0.556,0-1.008-0.452-1.008-1.008
		S6.444,25.992,7,25.992S8.008,26.444,8.008,27S7.556,28.008,7,28.008z"/>
</g>
<g>
	<path d="M-91.646,22.105V5c0-2.762-2.238-5-5-5s-5,2.238-5,5v17.105c-1.236,1.263-2,2.988-2,4.895c0,3.866,3.134,7,7,7s7-3.134,7-7
		C-89.646,25.094-90.409,23.368-91.646,22.105z M-96.646,32c-2.757,0-5-2.243-5-5c0-1.313,0.508-2.554,1.429-3.495l0.571-0.583
		v-0.816V5c0-1.654,1.346-3,3-3s3,1.346,3,3v17.105v0.816l0.571,0.583c0.921,0.941,1.429,2.183,1.429,3.495
		C-91.646,29.757-93.889,32-96.646,32z"/>
	<path d="M-95.646,24.176V19h-2v5.176c-1.167,0.413-2.008,1.516-2.008,2.824c0,1.662,1.347,3.008,3.008,3.008
		c1.662,0,3.008-1.346,3.008-3.008C-93.638,25.691-94.478,24.589-95.646,24.176z M-96.646,28.008c-0.556,0-1.008-0.452-1.008-1.008
		s0.452-1.008,1.008-1.008s1.008,0.452,1.008,1.008S-96.09,28.008-96.646,28.008z"/>
</g>
<g>
	<path d="M-196.303,22.105V5c0-2.762-2.238-5-5-5s-5,2.238-5,5v17.105c-1.236,1.263-2,2.988-2,4.895c0,3.866,3.134,7,7,7
		s7-3.134,7-7C-194.303,25.094-195.066,23.368-196.303,22.105z M-201.303,32c-2.757,0-5-2.243-5-5c0-1.313,0.508-2.554,1.429-3.495
		l0.571-0.583v-0.816V5c0-1.654,1.346-3,3-3s3,1.346,3,3v17.105v0.816l0.571,0.583c0.921,0.941,1.429,2.183,1.429,3.495
		C-196.303,29.757-198.546,32-201.303,32z"/>
	<path d="M-201.303,23.992c-1.661,0-3.008,1.347-3.008,3.008c0,1.662,1.347,3.008,3.008,3.008c1.662,0,3.008-1.346,3.008-3.008
		C-198.295,25.339-199.641,23.992-201.303,23.992z M-201.303,28.008c-0.556,0-1.008-0.452-1.008-1.008s0.452-1.008,1.008-1.008
		s1.008,0.452,1.008,1.008S-200.747,28.008-201.303,28.008z"/>
</g>
<g>
	<path d="M303.622,2.313c-2.209,0-4,1.791-4,4c0,2.21,1.791,4,4,4c2.211,0,4-1.79,4-4C307.622,4.104,305.833,2.313,303.622,2.313z
		 M303.622,8.313c-1.103,0-2-0.897-2-2s0.897-2,2-2s2,0.897,2,2S304.725,8.313,303.622,8.313z"/>
	<path d="M317.622,30.313c-4.41,0-7.999-3.589-7.999-7.999v-4.002c0-4.41,3.589-7.999,7.999-7.999c2.715,0,5.115,1.362,6.563,3.437
		l1.43-1.43c-1.824-2.429-4.72-4.007-7.992-4.007c-5.522,0-9.999,4.478-9.999,9.999v4.002c0,5.521,4.477,9.999,9.999,9.999
		c3.272,0,6.168-1.579,7.992-4.008l-1.43-1.43C322.738,28.949,320.338,30.313,317.622,30.313z"/>
</g>
<g>
	<path d="M408.318,2.191c-2.209,0-4,1.791-4,4c0,2.21,1.791,4,4,4c2.211,0,4-1.79,4-4C412.318,3.982,410.529,2.191,408.318,2.191z
		 M408.318,8.191c-1.103,0-2-0.897-2-2s0.897-2,2-2s2,0.897,2,2S409.421,8.191,408.318,8.191z"/>
	<polygon points="428.193,10.313 428.193,8.313 416.193,8.313 414.193,8.313 414.193,32.313 416.193,32.313 416.193,20.313 
		424.193,20.313 424.193,18.313 416.193,18.313 416.193,10.313 	"/>
</g>
<g>
	<path d="M519.404,6.004c-7.179,0-13,5.82-13,13s5.821,13,13,13s13-5.82,13-13S526.583,6.004,519.404,6.004z M519.404,30.004
		c-6.065,0-11-4.935-11-11s4.935-11,11-11s11,4.935,11,11S525.47,30.004,519.404,30.004z"/>
	<path d="M515.138,23.246l6.363-2.121l2.121-6.364l-6.363,2.122L515.138,23.246z M518.84,18.464l1.62-0.54l-0.54,1.62l-1.62,0.54
		L518.84,18.464z"/>
</g>
<g>
	<path d="M-201.303,96.521c-7.179,0-13,5.82-13,13s5.821,13,13,13s13-5.82,13-13S-194.124,96.521-201.303,96.521z M-201.303,120.521
		c-6.065,0-11-4.934-11-11c0-6.064,4.935-11,11-11s11,4.936,11,11C-190.303,115.588-195.237,120.521-201.303,120.521z"/>
	<path d="M-198.741,107.943l-2.586-4.422l-2.529,4.33h0.007c-0.299,0.467-0.478,1.018-0.478,1.613c0,1.656,1.343,3,3,3s3-1.344,3-3
		c0-0.559-0.162-1.074-0.428-1.521H-198.741z M-201.327,110.465c-0.552,0-1-0.449-1-1c0-0.188,0.055-0.367,0.162-0.535l0.864-1.355
		l0.826,1.391c0.098,0.164,0.147,0.332,0.147,0.5C-200.327,110.016-200.775,110.465-201.327,110.465z"/>
</g>
<g>
	<path d="M-96.519,96.521c-7.18,0-13,5.82-13,13s5.82,13,13,13s13-5.82,13-13S-89.339,96.521-96.519,96.521z M-96.519,120.521
		c-6.065,0-11-4.934-11-11c0-6.064,4.935-11,11-11s11,4.936,11,11C-85.519,115.588-90.453,120.521-96.519,120.521z"/>
	<path d="M-94.93,106.941c-0.467-0.299-1.018-0.477-1.613-0.477c-1.658,0-3,1.342-3,3c0,1.656,1.342,3,3,3
		c0.557,0,1.072-0.162,1.52-0.428v0.014l4.422-2.586l-4.328-2.529V106.941z M-96.045,110.316c-0.164,0.098-0.332,0.148-0.498,0.148
		c-0.552,0-1-0.449-1-1c0-0.553,0.448-1,1-1c0.188,0,0.368,0.053,0.535,0.16l1.355,0.865L-96.045,110.316z"/>
</g>
<g>
	<path d="M6.532,96.521c-7.18,0-13,5.82-13,13s5.82,13,13,13s13-5.82,13-13S13.712,96.521,6.532,96.521z M6.532,120.521
		c-6.065,0-11-4.934-11-11c0-6.064,4.935-11,11-11s11,4.936,11,11C17.532,115.588,12.598,120.521,6.532,120.521z"/>
	<path d="M6.532,106.465c-1.656,0-3,1.342-3,3c0,0.557,0.162,1.072,0.428,1.52H3.946l2.586,4.422l2.529-4.328H9.056
		c0.299-0.467,0.477-1.018,0.477-1.613C9.532,107.807,8.19,106.465,6.532,106.465z M7.371,110l-0.865,1.355l-0.826-1.393
		c-0.098-0.164-0.147-0.332-0.147-0.498c0-0.553,0.448-1,1-1s1,0.447,1,1C7.532,109.652,7.479,109.832,7.371,110z"/>
</g>
<g>
	<path d="M109.946,96.521c-7.179,0-13,5.82-13,13s5.821,13,13,13s13-5.82,13-13S117.125,96.521,109.946,96.521z M109.946,120.521
		c-6.065,0-11-4.934-11-11c0-6.064,4.935-11,11-11s11,4.936,11,11C120.946,115.588,116.012,120.521,109.946,120.521z"/>
	<path d="M109.905,106.465c-0.557,0-1.072,0.162-1.52,0.428v-0.014l-4.422,2.586l4.328,2.529v-0.006
		c0.467,0.299,1.018,0.477,1.613,0.477c1.658,0,3-1.342,3-3C112.905,107.809,111.563,106.465,109.905,106.465z M109.905,110.465
		c-0.188,0-0.368-0.055-0.535-0.162l-1.355-0.865l1.393-0.826c0.164-0.098,0.332-0.146,0.498-0.146c0.552,0,1,0.447,1,1
		C110.905,110.016,110.457,110.465,109.905,110.465z"/>
</g>
<g>
	<rect x="-98.205" y="-100.207" width="2" height="10"/>
	<rect x="-83.505" y="-94.121" transform="matrix(0.7071 0.7071 -0.7071 0.7071 -87.0387 32.2971)" width="2" height="10.409"/>
	<rect x="-117.114" y="-89.912" transform="matrix(0.7071 0.7071 -0.7071 0.7071 -95.6476 53.0905)" width="10.409" height="2"/>
	<polygon points="-103.873,-70.953 -102.459,-69.539 -98.205,-73.793 -98.205,-64.207 -96.205,-64.207 -96.205,-73.793 
		-91.952,-69.539 -90.538,-70.953 -97.205,-77.621 	"/>
	<path d="M-84.198-74.208c0-0.002,0-0.004,0-0.006c0-7.18-5.82-12.999-13-12.999s-13,5.819-13,12.999c0,0.002,0,0.004,0,0.006h-13v2
		h18v-2h-3c0-0.002,0-0.004,0-0.006c0-6.064,4.935-10.999,11-10.999s11,4.935,11,10.999c0,0.002,0,0.004,0,0.006h-3v2h17.995v-2
		H-84.198z"/>
</g>
<g>
	<rect x="5.54" y="-101.395" width="2" height="10"/>
	<rect x="20.24" y="-95.309" transform="matrix(0.7071 0.7071 -0.7071 0.7071 -57.4922 -41.4096)" width="2" height="10.409"/>
	<rect x="-13.369" y="-91.099" transform="matrix(0.7071 0.7071 -0.7071 0.7071 -66.101 -20.6162)" width="10.409" height="2"/>
	<polygon points="7.54,-66.848 7.54,-77.395 5.54,-77.395 5.54,-66.848 1.286,-71.102 -0.128,-69.688 6.54,-63.02 13.207,-69.688 
		11.793,-71.102 	"/>
	<path d="M19.547-75.396c0-0.002,0-0.004,0-0.006c0-7.18-5.82-12.999-13-12.999s-13,5.819-13,12.999c0,0.002,0,0.004,0,0.006h-13v2
		h22v-2h-7c0-0.002,0-0.004,0-0.006c0-6.064,4.935-10.999,11-10.999s11,4.935,11,10.999c0,0.002,0,0.004,0,0.006h-7v2h21.995v-2
		H19.547z"/>
</g>
<g>
	<polygon points="209.897,-67.382 209.897,-81.765 207.897,-81.765 207.897,-67.382 203.644,-71.636 202.229,-70.222 
		208.897,-63.554 215.564,-70.222 214.15,-71.636 	"/>
	<path d="M225.525-86.735c-1.596-7.445-8.207-13.029-16.127-13.029c-6.423,0-11.977,3.678-14.702,9.035
		c-0.266-0.018-0.53-0.04-0.8-0.04c-6.627,0-11.999,5.372-11.999,12c0,6.607,5.34,11.965,11.938,11.998v0.003h6.062v-2h-5.604
		l-0.447-0.003c-5.485-0.027-9.948-4.513-9.948-9.998c0-5.514,4.485-10,9.999-10c0.175,0,0.347,0.014,0.52,0.025l0.148,0.01
		l1.316,0.088l0.598-1.176c2.492-4.899,7.443-7.942,12.92-7.942c6.79,0,12.75,4.814,14.172,11.448l0.317,1.482l1.514,0.095
		c4.203,0.262,7.496,3.763,7.496,7.971c0,4.397-3.565,7.977-7.957,8c-0.05-0.003-0.093-0.005-0.137-0.007l-2.043,0.007h-4.863v2
		h6.863v-0.007c0.046,0.001,0.091,0.007,0.137,0.007c5.521,0,10-4.477,10-10C234.897-82.079,230.753-86.41,225.525-86.735z"/>
</g>
<g>
	<polygon points="115.882,-70.577 117.296,-71.991 110.629,-78.659 103.961,-71.991 105.375,-70.577 109.629,-74.831 
		109.629,-62.245 111.629,-62.245 111.629,-74.831 	"/>
	<path d="M127.257-85.14c-1.596-7.445-8.207-13.029-16.127-13.029c-6.423,0-11.977,3.678-14.702,9.035
		c-0.266-0.018-0.53-0.04-0.8-0.04c-6.627,0-11.999,5.372-11.999,12c0,6.607,5.34,11.965,11.938,11.998v0.003h10.062v-2h-9.604
		l-0.447-0.003c-5.485-0.027-9.948-4.513-9.948-9.998c0-5.514,4.485-10,9.999-10c0.175,0,0.347,0.014,0.52,0.025l0.148,0.01
		l1.316,0.088l0.598-1.176c2.492-4.899,7.443-7.942,12.92-7.942c6.79,0,12.75,4.814,14.172,11.448l0.317,1.482l1.514,0.095
		c4.203,0.262,7.496,3.763,7.496,7.971c0,4.397-3.565,7.977-7.957,8c-0.05-0.003-0.093-0.005-0.137-0.007l-2.043,0.007h-8.863v2
		h10.863v-0.007c0.046,0.001,0.091,0.007,0.137,0.007c5.521,0,10-4.477,10-10C136.629-80.483,132.484-84.814,127.257-85.14z"/>
</g>
<g>
	<path d="M329.746-274.655c-1.596-7.445-8.207-13.029-16.127-13.029c-6.423,0-11.977,3.678-14.702,9.035
		c-0.266-0.018-0.53-0.04-0.8-0.04c-6.627,0-11.999,5.372-11.999,12c0,6.607,5.34,11.965,11.938,11.998v0.003h2.062v-2h-1.604
		l-0.447-0.003c-5.485-0.027-9.948-4.513-9.948-9.998c0-5.514,4.485-10,9.999-10c0.175,0,0.347,0.014,0.52,0.025l0.148,0.01
		l1.316,0.088l0.598-1.176c2.492-4.899,7.443-7.942,12.92-7.942c6.79,0,12.75,4.814,14.172,11.448l0.317,1.482l1.514,0.095
		c4.203,0.262,7.496,3.763,7.496,7.971c0,4.397-3.565,7.977-7.957,8c-0.05-0.003-0.093-0.005-0.137-0.007l-2.043,0.007h-0.863v2
		h2.863v-0.007c0.046,0.001,0.091,0.007,0.137,0.007c5.521,0,10-4.477,10-10C339.118-269.999,334.974-274.33,329.746-274.655z"/>
	<polygon points="308.118,-255.667 308.118,-258.297 310.291,-257.074 310.977,-258.295 308.507,-259.685 310.977,-261.074 
		310.291,-262.295 308.118,-261.072 308.118,-263.667 306.118,-263.667 306.118,-261.028 303.867,-262.295 303.182,-261.074 
		305.651,-259.685 303.182,-258.295 303.867,-257.074 306.118,-258.341 306.118,-255.667 	"/>
	<polygon points="313.28,-251.313 311.107,-250.09 311.107,-252.685 309.107,-252.685 309.107,-250.046 306.856,-251.313 
		306.171,-250.092 308.641,-248.702 306.171,-247.313 306.856,-246.092 309.107,-247.358 309.107,-244.685 311.107,-244.685 
		311.107,-247.314 313.28,-246.092 313.966,-247.313 311.496,-248.702 313.966,-250.092 	"/>
	<polygon points="322.296,-258.295 320.123,-257.072 320.123,-259.667 318.123,-259.667 318.123,-257.028 315.872,-258.295 
		315.187,-257.074 317.656,-255.685 315.187,-254.295 315.872,-253.074 318.123,-254.341 318.123,-251.667 320.123,-251.667 
		320.123,-254.297 322.296,-253.074 322.981,-254.295 320.512,-255.685 322.981,-257.074 	"/>
</g>
<g>
	<rect x="405.258" y="-292.707" width="2" height="7.973"/>
	<rect x="386.258" y="-273.793" width="7.973" height="2"/>
	<rect x="390.931" y="-285.059" transform="matrix(0.7071 0.7071 -0.7071 0.7071 -85.1917 -362.4483)" width="7.974" height="2"/>
	<rect x="416.44" y="-288.041" transform="matrix(0.7071 0.7071 -0.7071 0.7071 -78.5925 -378.3723)" width="2" height="7.972"/>
	<path d="M435.77-266.917c-1.444-6.742-7.433-11.8-14.605-11.8c-2.185,0-4.258,0.471-6.127,1.314
		c-1.666-3.203-5.006-5.395-8.865-5.395c-5.522,0-10,4.477-10,9.999c0,2.46,0.899,4.702,2.373,6.442
		c-1.428,1.84-2.287,4.144-2.287,6.653c0,5.983,4.836,10.836,10.813,10.865v0.003h1.188v-2h-0.721l-0.457-0.003
		c-4.864-0.023-8.822-4.001-8.822-8.865c0-4.89,3.978-8.868,8.867-8.868c0.15,0,0.299,0.012,0.447,0.022l0.148,0.01l1.314,0.085
		l0.597-1.175c2.225-4.372,6.644-7.089,11.532-7.089c6.062,0,11.382,4.298,12.649,10.219l0.318,1.483l1.514,0.094
		c3.708,0.23,6.612,3.319,6.612,7.03c0,3.878-3.144,7.035-7.017,7.057c-0.042-0.003-0.079-0.005-0.117-0.005l-1.866,0.005v2h1.819
		v-0.006c0.042,0.001,0.082,0.006,0.124,0.006c5.001,0,9.057-4.054,9.057-9.057C444.258-262.7,440.504-266.622,435.77-266.917z
		 M407.85-270.534c-0.241-0.016-0.48-0.036-0.725-0.036c-2.766,0-5.282,1.041-7.2,2.742c-1.092-1.365-1.753-3.089-1.753-4.97
		c0-4.41,3.589-7.999,8-7.999c3.092,0,5.76,1.773,7.091,4.346C410.965-275.012,409.086-272.964,407.85-270.534z"/>
	<polygon points="415.25,-249.814 415.25,-252.444 417.423,-251.222 418.108,-252.442 415.639,-253.832 418.108,-255.222 
		417.423,-256.442 415.25,-255.22 415.25,-257.814 413.25,-257.814 413.25,-255.176 410.999,-256.442 410.313,-255.222 
		412.783,-253.832 410.313,-252.442 410.999,-251.222 413.25,-252.488 413.25,-249.814 	"/>
	<polygon points="420.412,-245.46 418.239,-244.237 418.239,-246.832 416.239,-246.832 416.239,-244.193 413.988,-245.46 
		413.303,-244.239 415.772,-242.85 413.303,-241.46 413.988,-240.239 416.239,-241.506 416.239,-238.832 418.239,-238.832 
		418.239,-241.462 420.412,-240.239 421.098,-241.46 418.628,-242.85 421.098,-244.239 	"/>
	<polygon points="429.428,-252.442 427.255,-251.22 427.255,-253.814 425.255,-253.814 425.255,-251.176 423.004,-252.442 
		422.318,-251.222 424.788,-249.832 422.318,-248.442 423.004,-247.222 425.255,-248.488 425.255,-245.814 427.255,-245.814 
		427.255,-248.444 429.428,-247.222 430.113,-248.442 427.644,-249.832 430.113,-251.222 	"/>
</g>
<g>
	<path d="M535.958-269.92c-1.444-6.742-7.433-11.8-14.605-11.8c-1.799,0-3.522,0.32-5.118,0.904
		c-0.949-5.108-5.404-8.98-10.788-8.98c-0.413,0-0.819,0.027-1.222,0.071c0.744,1.112,1.179,2.448,1.179,3.886c0,3.865-3.134,7-7,7
		c-1.438,0-2.773-0.435-3.886-1.179c-0.044,0.401-0.071,0.809-0.071,1.222c0,3.713,1.845,6.987,4.661,8.979
		c-1.653,1.907-2.661,4.389-2.661,7.111c0,5.983,4.836,10.836,10.813,10.865v0.003h1.188v-2h-0.721l-0.457-0.003
		c-4.864-0.023-8.822-4.001-8.822-8.865c0-4.89,3.978-8.868,8.867-8.868c0.15,0,0.299,0.012,0.447,0.022l0.148,0.01l1.314,0.085
		l0.597-1.175c2.225-4.372,6.644-7.089,11.532-7.089c6.062,0,11.382,4.298,12.649,10.219l0.318,1.483l1.514,0.094
		c3.708,0.23,6.612,3.319,6.612,7.03c0,3.878-3.144,7.035-7.017,7.057c-0.042-0.003-0.079-0.005-0.117-0.005l-1.866,0.005v2h1.819
		v-0.006c0.042,0.001,0.082,0.006,0.124,0.006c5.001,0,9.057-4.054,9.057-9.057C544.446-265.703,540.692-269.625,535.958-269.92z
		 M508.038-273.537c-0.241-0.016-0.48-0.036-0.725-0.036c-2.537,0-4.865,0.877-6.715,2.334c-2.012-1.294-3.486-3.354-3.976-5.776
		c0.582,0.117,1.178,0.177,1.78,0.177c4.963,0,9-4.037,9-9c0-0.603-0.06-1.198-0.177-1.78c3.733,0.753,6.629,3.824,7.134,7.64
		C511.647-278.535,509.433-276.28,508.038-273.537z"/>
	<polygon points="515.483,-252.817 515.483,-255.447 517.656,-254.225 518.342,-255.445 515.872,-256.835 518.342,-258.225 
		517.656,-259.445 515.483,-258.223 515.483,-260.817 513.483,-260.817 513.483,-258.179 511.232,-259.445 510.547,-258.225 
		513.017,-256.835 510.547,-255.445 511.232,-254.225 513.483,-255.491 513.483,-252.817 	"/>
	<polygon points="520.646,-248.463 518.473,-247.24 518.473,-249.835 516.473,-249.835 516.473,-247.196 514.222,-248.463 
		513.536,-247.242 516.006,-245.853 513.536,-244.463 514.222,-243.242 516.473,-244.509 516.473,-241.835 518.473,-241.835 
		518.473,-244.465 520.646,-243.242 521.331,-244.463 518.861,-245.853 521.331,-247.242 	"/>
	<polygon points="529.661,-255.445 527.488,-254.223 527.488,-256.817 525.488,-256.817 525.488,-254.179 523.237,-255.445 
		522.552,-254.225 525.021,-252.835 522.552,-251.445 523.237,-250.225 525.488,-251.491 525.488,-248.817 527.488,-248.817 
		527.488,-251.447 529.661,-250.225 530.347,-251.445 527.877,-252.835 530.347,-254.225 	"/>
</g>
<rect x="-80.4" y="-837.67" fill="none" width="472.974" height="180.918"/>
<text transform="matrix(1 0 0 1 99.2368 -766.271)"><tspan x="0" y="0" font-family="'HelveticaNeueLTStd-Th'" font-size="100" letter-spacing="2">60</tspan><tspan x="-99.268" y="60" font-family="'HelveticaNeueLTStd-Lt'" font-size="48" letter-spacing="1">Weather Icons</tspan><tspan x="-3.726" y="104" font-family="'HelveticaNeueLTStd-Lt'" font-size="24">IOS 7 Style</tspan></text>
</svg>
