<?xml version="1.0" encoding="utf-8"?>
<!-- Generator: Adobe Illustrator 16.0.0, SVG Export Plug-In . SVG Version: 6.00 Build 0)  -->
<!DOCTYPE svg PUBLIC "-//W3C//DTD SVG 1.1//EN" "http://www.w3.org/Graphics/SVG/1.1/DTD/svg11.dtd">
<svg version="1.1" id="Layer_1" xmlns="http://www.w3.org/2000/svg" xmlns:xlink="http://www.w3.org/1999/xlink" x="0px" y="0px"
	 width="14px" height="34px" viewBox="0 0 14 34" enable-background="new 0 0 14 34" xml:space="preserve">
<path d="M628.371-98.505l-1.803,15.077l-0.268,2.237h2.254h6.896l-14.693,18.759l1.789-14.52l0.277-2.245h-2.262h-6.957
	L628.371-98.505 M631.226-105.529l-21.667,28.333h11.004l-2.671,21.667l21.667-27.661h-11.004L631.226-105.529L631.226-105.529z"/>
<path d="M215.336-560.766c6.79,0,12.749,4.814,14.171,11.448l0.318,1.483l1.514,0.094c4.203,0.262,7.496,3.763,7.496,7.971
	c0,4.396-3.565,7.977-7.957,8c-0.046-0.003-0.091-0.006-0.137-0.007l-2.043-0.036v0.043h-28.337l-0.578-0.003
	c-5.485-0.027-9.948-4.513-9.948-9.998c0-5.514,4.485-10,9.999-10c0.175,0,0.347,0.014,0.519,0.025l0.149,0.011l1.316,0.087
	l0.598-1.176C204.909-557.723,209.859-560.766,215.336-560.766 M215.336-562.766c-6.423,0-11.977,3.678-14.702,9.035
	c-0.266-0.018-0.53-0.04-0.8-0.04c-6.627,0-11.999,5.372-11.999,12c0,6.607,5.34,11.965,11.938,11.998v0.003h30.925v-0.007
	c0.046,0.001,0.091,0.007,0.137,0.007c5.521,0,10-4.477,10-10c0-5.311-4.145-9.642-9.372-9.967
	C229.867-557.182,223.256-562.766,215.336-562.766L215.336-562.766z"/>
<g>
	<path d="M338.287-542.354c-1.444-6.742-7.433-11.8-14.605-11.8c-2.185,0-4.258,0.47-6.127,1.313
		c-1.666-3.202-5.006-5.394-8.865-5.394c-5.522,0-10,4.477-10,9.999c0,2.46,0.898,4.702,2.373,6.442
		c-1.428,1.84-2.287,4.144-2.287,6.653c0,5.983,4.836,10.836,10.813,10.865v0.003h28.007v-0.006
		c0.042,0.001,0.082,0.006,0.124,0.006c5.001,0,9.057-4.054,9.057-9.057C346.775-538.138,343.021-542.06,338.287-542.354z
		 M308.689-556.234c3.092,0,5.76,1.773,7.092,4.345c-2.299,1.44-4.178,3.488-5.414,5.918c-0.241-0.016-0.48-0.036-0.725-0.036
		c-2.766,0-5.281,1.041-7.2,2.743c-1.092-1.366-1.753-3.09-1.753-4.971C300.689-552.646,304.278-556.234,308.689-556.234z
		 M337.759-526.271c-0.038-0.003-0.077-0.004-0.117-0.005l-2.047-0.042v0.047h-25.403l-0.594-0.003
		c-4.864-0.023-8.822-4.001-8.822-8.865c0-4.89,3.978-8.868,8.867-8.868c0.15,0,0.299,0.012,0.447,0.021l0.148,0.011l1.314,0.085
		l0.598-1.174c2.224-4.373,6.643-7.09,11.531-7.09c6.062,0,11.381,4.298,12.65,10.219l0.317,1.482l1.514,0.095
		c3.708,0.231,6.612,3.319,6.612,7.03C344.775-529.45,341.632-526.294,337.759-526.271z"/>
	<rect x="307.695" y="-568.265" width="2" height="7.973"/>
	<rect x="288.723" y="-549.278" width="7.973" height="2"/>
	<rect x="293.448" y="-560.497" transform="matrix(0.7071 0.7071 -0.7071 0.7071 -308.5073 -374.1916)" width="7.974" height="2"/>
	<rect x="318.957" y="-563.479" transform="matrix(0.7071 0.7071 -0.7071 0.7071 -301.9081 -390.1155)" width="2" height="7.972"/>
</g>
<path d="M434.03-546.382c-1.444-6.742-7.433-11.8-14.605-11.8c-1.799,0-3.521,0.32-5.118,0.904c-0.949-5.108-5.404-8.98-10.788-8.98
	c-0.413,0-0.819,0.027-1.222,0.071c0.744,1.112,1.179,2.448,1.179,3.886c0,3.865-3.134,7-7,7c-1.438,0-2.773-0.435-3.886-1.179
	c-0.044,0.401-0.071,0.809-0.071,1.222c0,3.712,1.845,6.987,4.661,8.979c-1.653,1.907-2.661,4.389-2.661,7.111
	c0,5.983,4.836,10.836,10.813,10.865v0.003h28.007v-0.006c0.042,0.001,0.082,0.006,0.124,0.006c5.001,0,9.057-4.054,9.057-9.057
	C442.519-542.165,438.765-546.087,434.03-546.382z M394.695-553.478c0.582,0.117,1.178,0.177,1.78,0.177c4.963,0,9-4.037,9-9
	c0-0.603-0.06-1.198-0.177-1.78c3.733,0.753,6.629,3.824,7.134,7.64c-2.713,1.444-4.928,3.699-6.322,6.442
	c-0.241-0.016-0.48-0.036-0.725-0.036c-2.537,0-4.865,0.876-6.715,2.334C396.659-548.995,395.185-551.055,394.695-553.478z
	 M433.502-530.299c-0.038-0.003-0.077-0.004-0.117-0.005l-2.047-0.042v0.047h-25.403l-0.594-0.003
	c-4.864-0.023-8.822-4.001-8.822-8.865c0-4.89,3.978-8.868,8.867-8.868c0.15,0,0.299,0.012,0.447,0.021l0.148,0.011l1.314,0.085
	l0.598-1.174c2.224-4.373,6.643-7.09,11.531-7.09c6.062,0,11.381,4.298,12.65,10.219l0.317,1.482l1.514,0.095
	c3.708,0.231,6.612,3.319,6.612,7.03C440.519-533.478,437.375-530.321,433.502-530.299z"/>
<g>
	<rect x="518.676" y="-537.759" width="2" height="7"/>
	<rect x="526.676" y="-541.759" width="2" height="7"/>
	<rect x="510.676" y="-541.759" width="2" height="7"/>
	<rect x="518.676" y="-527.759" width="2" height="7"/>
	<rect x="526.676" y="-531.759" width="2" height="7"/>
	<rect x="510.676" y="-531.759" width="2" height="7"/>
	<path d="M537.304-554.747c-1.596-7.445-8.207-13.029-16.127-13.029c-6.423,0-11.977,3.678-14.702,9.035
		c-0.266-0.018-0.53-0.04-0.8-0.04c-6.627,0-11.999,5.372-11.999,12c0,6.607,5.34,11.965,11.938,11.998v0.003h2.062v-2h-1.604
		l-0.447-0.003c-5.485-0.027-9.948-4.513-9.948-9.998c0-5.514,4.485-10,9.999-10c0.175,0,0.347,0.014,0.52,0.025l0.148,0.01
		l1.316,0.088l0.598-1.176c2.492-4.899,7.443-7.942,12.92-7.942c6.79,0,12.75,4.814,14.172,11.448l0.317,1.482l1.514,0.095
		c4.203,0.262,7.496,3.763,7.496,7.971c0,4.397-3.565,7.977-7.957,8c-0.05-0.003-0.093-0.005-0.137-0.007l-2.043,0.007h-2.863v2
		h4.863v-0.007c0.046,0.001,0.091,0.007,0.137,0.007c5.521,0,10-4.477,10-10C546.676-550.091,542.531-554.422,537.304-554.747z"/>
</g>
<g>
	<path d="M334.877-465.39c-1.596-7.445-8.207-13.029-16.127-13.029c-6.423,0-11.977,3.678-14.702,9.035
		c-0.266-0.018-0.53-0.04-0.8-0.04c-6.627,0-11.999,5.372-11.999,12c0,6.607,5.34,11.965,11.938,11.998v0.003h2.062v-2h-1.604
		l-0.447-0.003c-5.485-0.027-9.948-4.513-9.948-9.998c0-5.514,4.485-10,9.999-10c0.175,0,0.347,0.014,0.52,0.025l0.148,0.01
		l1.316,0.088l0.598-1.176c2.492-4.899,7.443-7.942,12.92-7.942c6.79,0,12.75,4.814,14.172,11.448l0.317,1.482l1.514,0.095
		c4.203,0.262,7.496,3.763,7.496,7.971c0,4.397-3.565,7.977-7.957,8c-0.05-0.003-0.093-0.005-0.137-0.007l-2.043,0.007h-2.863v2
		h4.863v-0.007c0.046,0.001,0.091,0.007,0.137,0.007c5.521,0,10-4.477,10-10C344.249-460.733,340.104-465.064,334.877-465.39z"/>
	<polygon points="316.249,-438.395 316.249,-436.454 316.249,-430.395 318.249,-430.395 318.249,-436.454 318.249,-438.395 
		318.249,-450.395 316.249,-450.395 	"/>
	<polygon points="324.249,-442.395 324.249,-440.642 324.249,-434.395 326.249,-434.395 326.249,-440.642 326.249,-442.395 
		326.249,-454.395 324.249,-454.395 	"/>
	<polygon points="308.249,-442.395 308.249,-440.329 308.249,-434.395 310.249,-434.395 310.249,-440.329 310.249,-442.395 
		310.249,-454.395 308.249,-454.395 	"/>
</g>
<g>
	<polygon points="630.526,-441.483 623.644,-451.313 622.006,-450.166 628.889,-440.336 630.001,-438.747 633.477,-433.783 
		635.115,-434.93 631.64,-439.895 	"/>
	<polygon points="638.528,-441.485 631.644,-451.313 630.006,-450.165 636.892,-440.337 637.896,-438.901 641.48,-433.786 
		643.119,-434.933 639.535,-440.049 	"/>
	<polygon points="622.526,-441.483 615.644,-451.313 614.006,-450.165 620.889,-440.336 622.073,-438.644 625.478,-433.782 
		627.115,-434.93 623.712,-439.791 	"/>
	<path d="M641.634-465.123c-1.596-7.445-8.207-13.029-16.127-13.029c-6.423,0-11.977,3.678-14.702,9.035
		c-0.266-0.018-0.53-0.04-0.8-0.04c-6.627,0-11.999,5.372-11.999,12c0,6.607,5.34,11.965,11.938,11.998v0.003h2.062v-2h-1.604
		l-0.447-0.003c-5.485-0.027-9.948-4.513-9.948-9.998c0-5.514,4.485-10,9.999-10c0.175,0,0.347,0.014,0.52,0.025l0.148,0.01
		l1.316,0.088l0.598-1.176c2.492-4.899,7.443-7.942,12.92-7.942c6.79,0,12.75,4.814,14.172,11.448l0.317,1.482l1.514,0.095
		c4.203,0.262,7.496,3.763,7.496,7.971c0,4.397-3.565,7.977-7.957,8c-0.05-0.003-0.093-0.005-0.137-0.007l-1.043,0.007h0.137v2
		h0.863v-0.007c0.046,0.001,0.091,0.007,0.137,0.007c5.521,0,10-4.477,10-10C651.006-460.467,646.861-464.798,641.634-465.123z"/>
</g>
<g>
	<rect x="613.332" y="-574.205" width="2" height="7.973"/>
	<rect x="594.332" y="-555.291" width="7.973" height="2"/>
	<rect x="599.005" y="-566.557" transform="matrix(0.7071 0.7071 -0.7071 0.7071 -223.2972 -592.0278)" width="7.974" height="2"/>
	<rect x="624.514" y="-569.539" transform="matrix(0.7071 0.7071 -0.7071 0.7071 -216.6981 -607.9518)" width="2" height="7.972"/>
	<rect x="627.332" y="-533.332" width="2" height="7"/>
	<rect x="635.332" y="-537.332" width="2" height="7"/>
	<rect x="619.332" y="-537.332" width="2" height="7"/>
	<rect x="627.332" y="-523.332" width="2" height="7"/>
	<rect x="635.332" y="-527.332" width="2" height="7"/>
	<rect x="619.332" y="-527.332" width="2" height="7"/>
	<path d="M643.844-548.415c-1.444-6.742-7.433-11.8-14.605-11.8c-2.185,0-4.258,0.47-6.126,1.313
		c-1.667-3.202-5.007-5.394-8.866-5.394c-5.522,0-10,4.477-10,9.999c0,2.46,0.899,4.702,2.373,6.442
		c-1.429,1.84-2.287,4.144-2.287,6.653c0,5.983,4.836,10.836,10.813,10.865v0.003h1.188v-2h-0.721l-0.457-0.003
		c-4.864-0.023-8.822-4.001-8.822-8.865c0-4.89,3.978-8.868,8.867-8.868c0.15,0,0.299,0.012,0.447,0.022l0.148,0.01l1.314,0.085
		l0.597-1.175c2.225-4.372,6.644-7.089,11.532-7.089c6.062,0,11.382,4.298,12.649,10.219l0.318,1.483l1.514,0.094
		c3.708,0.23,6.612,3.319,6.612,7.03c0,3.878-3.144,7.035-7.017,7.057c-0.042-0.003-0.079-0.005-0.117-0.005l-2.047,0.005h-0.819v2
		h2.819v-0.006c0.042,0.001,0.082,0.006,0.124,0.006c5.001,0,9.057-4.054,9.057-9.057
		C652.332-544.198,648.578-548.12,643.844-548.415z M615.924-552.032c-0.241-0.016-0.48-0.036-0.725-0.036
		c-2.766,0-5.282,1.041-7.2,2.743c-1.092-1.366-1.753-3.09-1.753-4.971c0-4.41,3.589-7.999,8-7.999c3.091,0,5.76,1.773,7.091,4.345
		C619.039-556.51,617.159-554.462,615.924-552.032z"/>
</g>
<g>
	<rect x="727.749" y="-534.779" width="2" height="7"/>
	<rect x="735.749" y="-538.779" width="2" height="7"/>
	<rect x="719.749" y="-538.779" width="2" height="7"/>
	<rect x="727.749" y="-524.779" width="2" height="7"/>
	<rect x="735.749" y="-528.779" width="2" height="7"/>
	<rect x="719.749" y="-528.779" width="2" height="7"/>
	<path d="M744.261-549.862c-1.444-6.742-7.433-11.8-14.605-11.8c-1.799,0-3.522,0.32-5.118,0.904
		c-0.949-5.108-5.404-8.98-10.788-8.98c-0.413,0-0.819,0.027-1.222,0.071c0.744,1.112,1.179,2.448,1.179,3.886c0,3.865-3.134,7-7,7
		c-1.438,0-2.773-0.435-3.886-1.179c-0.044,0.401-0.071,0.809-0.071,1.222c0,3.712,1.845,6.987,4.661,8.979
		c-1.653,1.907-2.661,4.389-2.661,7.111c0,5.983,4.836,10.836,10.813,10.865v0.003h1.188v-2h-0.721l-0.457-0.003
		c-4.864-0.023-8.822-4.001-8.822-8.865c0-4.89,3.978-8.868,8.867-8.868c0.15,0,0.299,0.012,0.447,0.022l0.148,0.01l1.314,0.085
		l0.597-1.175c2.225-4.372,6.644-7.089,11.532-7.089c6.062,0,11.382,4.298,12.649,10.219l0.318,1.483l1.514,0.094
		c3.708,0.23,6.612,3.319,6.612,7.03c0,3.878-3.144,7.035-7.017,7.057c-0.042-0.003-0.079-0.005-0.117-0.005l-2.047,0.005h-0.819v2
		h2.819v-0.006c0.042,0.001,0.082,0.006,0.124,0.006c5.001,0,9.057-4.054,9.057-9.057
		C752.749-545.646,748.995-549.567,744.261-549.862z M716.341-553.479c-0.241-0.016-0.48-0.036-0.725-0.036
		c-2.537,0-4.865,0.876-6.715,2.334c-2.012-1.294-3.487-3.354-3.976-5.776c0.582,0.117,1.178,0.177,1.78,0.177c4.963,0,9-4.037,9-9
		c0-0.603-0.06-1.198-0.177-1.78c3.733,0.753,6.629,3.824,7.133,7.64C719.951-558.478,717.736-556.223,716.341-553.479z"/>
</g>
<g>
	<polygon points="420.519,-433.956 420.519,-432.016 420.519,-425.956 422.519,-425.956 422.519,-432.016 422.519,-433.956 
		422.519,-445.956 420.519,-445.956 	"/>
	<polygon points="428.519,-437.956 428.519,-436.203 428.519,-429.956 430.519,-429.956 430.519,-436.203 430.519,-437.956 
		430.519,-449.956 428.519,-449.956 	"/>
	<polygon points="412.519,-437.956 412.519,-435.891 412.519,-429.956 414.519,-429.956 414.519,-435.891 414.519,-437.956 
		414.519,-449.956 412.519,-449.956 	"/>
	<rect x="406.519" y="-484.858" width="2" height="7.973"/>
	<rect x="387.519" y="-465.944" width="7.973" height="2"/>
	<rect x="392.192" y="-477.211" transform="matrix(0.7071 0.7071 -0.7071 0.7071 -220.6939 -419.6196)" width="7.974" height="2"/>
	<rect x="417.7" y="-480.193" transform="matrix(0.7071 0.7071 -0.7071 0.7071 -214.0947 -435.5435)" width="2" height="7.972"/>
	<path d="M437.03-459.068c-1.444-6.742-7.433-11.8-14.605-11.8c-2.185,0-4.258,0.47-6.127,1.313
		c-1.666-3.202-5.006-5.394-8.865-5.394c-5.522,0-10,4.477-10,9.999c0,2.46,0.898,4.702,2.373,6.442
		c-1.428,1.84-2.287,4.144-2.287,6.653c0,5.983,4.836,10.836,10.813,10.865v0.003h1.188v-2h-0.721l-0.457-0.003
		c-4.864-0.023-8.822-4.001-8.822-8.865c0-4.89,3.978-8.868,8.867-8.868c0.15,0,0.299,0.012,0.447,0.022l0.148,0.01l1.314,0.085
		l0.597-1.175c2.225-4.372,6.644-7.089,11.532-7.089c6.062,0,11.382,4.298,12.649,10.219l0.318,1.483l1.514,0.094
		c3.708,0.23,6.612,3.319,6.612,7.03c0,3.878-3.144,7.035-7.017,7.057c-0.042-0.003-0.079-0.005-0.117-0.005l-2.047,0.005h-0.819v2
		h2.819v-0.006c0.042,0.001,0.082,0.006,0.124,0.006c5.001,0,9.057-4.054,9.057-9.057
		C445.519-454.852,441.765-458.773,437.03-459.068z M409.11-462.686c-0.241-0.016-0.48-0.036-0.725-0.036
		c-2.766,0-5.281,1.042-7.2,2.743c-1.092-1.367-1.753-3.09-1.753-4.971c0-4.41,3.589-7.999,8-7.999c3.092,0,5.76,1.773,7.092,4.345
		C412.226-467.164,410.347-465.115,409.11-462.686z"/>
</g>
<g>
	<polygon points="520.916,-436.473 520.916,-434.532 520.916,-428.473 522.916,-428.473 522.916,-434.532 522.916,-436.473 
		522.916,-448.473 520.916,-448.473 	"/>
	<polygon points="528.916,-440.473 528.916,-438.72 528.916,-432.473 530.916,-432.473 530.916,-438.72 530.916,-440.473 
		530.916,-452.473 528.916,-452.473 	"/>
	<polygon points="512.916,-440.473 512.916,-438.407 512.916,-432.473 514.916,-432.473 514.916,-438.407 514.916,-440.473 
		514.916,-452.473 512.916,-452.473 	"/>
	<path d="M537.428-461.585c-1.444-6.742-7.433-11.8-14.605-11.8c-1.799,0-3.521,0.32-5.118,0.904
		c-0.949-5.108-5.404-8.98-10.788-8.98c-0.413,0-0.819,0.027-1.222,0.071c0.744,1.112,1.179,2.448,1.179,3.886c0,3.865-3.134,7-7,7
		c-1.438,0-2.773-0.435-3.886-1.179c-0.044,0.401-0.071,0.809-0.071,1.222c0,3.712,1.845,6.987,4.661,8.979
		c-1.653,1.907-2.661,4.389-2.661,7.111c0,5.983,4.836,10.836,10.813,10.865v0.003h1.188v-2h-0.721l-0.457-0.003
		c-4.864-0.023-8.822-4.001-8.822-8.865c0-4.89,3.978-8.868,8.867-8.868c0.15,0,0.299,0.012,0.447,0.022l0.148,0.01l1.314,0.085
		l0.597-1.175c2.225-4.372,6.644-7.089,11.532-7.089c6.062,0,11.382,4.298,12.649,10.219l0.318,1.483l1.514,0.094
		c3.708,0.23,6.612,3.319,6.612,7.03c0,3.878-3.144,7.035-7.017,7.057c-0.042-0.003-0.079-0.005-0.117-0.005l-2.047,0.005h-0.819v2
		h2.819v-0.006c0.042,0.001,0.082,0.006,0.124,0.006c5.001,0,9.057-4.054,9.057-9.057
		C545.916-457.368,542.162-461.29,537.428-461.585z M509.508-465.202c-0.241-0.016-0.48-0.036-0.725-0.036
		c-2.537,0-4.865,0.876-6.715,2.334c-2.012-1.294-3.486-3.354-3.976-5.776c0.582,0.117,1.178,0.177,1.78,0.177c4.963,0,9-4.037,9-9
		c0-0.603-0.06-1.198-0.177-1.78c3.733,0.753,6.629,3.824,7.134,7.641C513.117-470.2,510.902-467.944,509.508-465.202z"/>
</g>
<g>
	<polygon points="737.951,-435.528 731.068,-445.358 729.431,-444.211 736.313,-434.381 737.426,-432.792 740.901,-427.828 
		742.54,-428.975 739.064,-433.939 	"/>
	<polygon points="745.953,-435.53 739.068,-445.358 737.431,-444.21 744.316,-434.382 745.321,-432.946 748.905,-427.831 
		750.544,-428.978 746.96,-434.094 	"/>
	<polygon points="729.951,-435.528 723.068,-445.358 721.431,-444.21 728.313,-434.381 729.498,-432.688 732.902,-427.827 
		734.54,-428.975 731.137,-433.836 	"/>
	<rect x="717.431" y="-483.077" width="2" height="7.973"/>
	<rect x="698.431" y="-464.163" width="7.973" height="2"/>
	<rect x="703.104" y="-475.43" transform="matrix(0.7071 0.7071 -0.7071 0.7071 -128.3704 -638.9459)" width="7.974" height="2"/>
	<rect x="728.612" y="-478.412" transform="matrix(0.7071 0.7071 -0.7071 0.7071 -121.7712 -654.8699)" width="2" height="7.972"/>
	<path d="M747.942-457.287c-1.444-6.742-7.433-11.8-14.605-11.8c-2.185,0-4.258,0.47-6.126,1.313
		c-1.667-3.202-5.007-5.394-8.866-5.394c-5.522,0-10,4.477-10,9.999c0,2.46,0.899,4.702,2.373,6.442
		c-1.429,1.84-2.287,4.144-2.287,6.653c0,5.983,4.836,10.836,10.813,10.865v0.003h1.188v-2h-0.721l-0.457-0.003
		c-4.864-0.023-8.822-4.001-8.822-8.865c0-4.89,3.978-8.868,8.867-8.868c0.15,0,0.299,0.012,0.447,0.022l0.148,0.01l1.314,0.085
		l0.597-1.175c2.225-4.372,6.644-7.089,11.532-7.089c6.062,0,11.382,4.298,12.649,10.219l0.318,1.483l1.514,0.094
		c3.708,0.23,6.612,3.319,6.612,7.03c0,3.878-3.144,7.035-7.017,7.057c-0.042-0.003-0.079-0.005-0.117-0.005l-0.047,0.005h-0.819v2
		h0.819v-0.006c0.042,0.001,0.082,0.006,0.124,0.006c5.001,0,9.057-4.054,9.057-9.057
		C756.431-453.07,752.677-456.992,747.942-457.287z M720.022-460.904c-0.241-0.016-0.48-0.036-0.725-0.036
		c-2.766,0-5.282,1.042-7.2,2.743c-1.092-1.367-1.753-3.09-1.753-4.971c0-4.41,3.589-7.999,8-7.999c3.091,0,5.76,1.773,7.091,4.345
		C723.138-465.383,721.258-463.334,720.022-460.904z"/>
</g>
<g>
	<polygon points="14.521,-339.043 7.638,-348.873 6,-347.726 12.883,-337.896 13.995,-336.307 17.471,-331.343 19.109,-332.489 
		15.634,-337.454 	"/>
	<polygon points="22.522,-339.045 15.638,-348.873 14,-347.725 20.886,-337.896 21.891,-336.461 25.475,-331.346 27.113,-332.492 
		23.529,-337.608 	"/>
	<polygon points="6.521,-339.043 -0.362,-348.873 -2,-347.725 4.883,-337.896 6.067,-336.203 9.472,-331.342 11.109,-332.489 
		7.706,-337.351 	"/>
	<path d="M24.512-360.802c-1.444-6.742-7.433-11.8-14.605-11.8c-1.799,0-3.522,0.32-5.118,0.904
		c-0.949-5.108-5.404-8.98-10.788-8.98c-0.413,0-0.819,0.027-1.222,0.071c0.744,1.112,1.179,2.448,1.179,3.886c0,3.865-3.134,7-7,7
		c-1.438,0-2.773-0.435-3.886-1.179c-0.044,0.401-0.071,0.809-0.071,1.222c0,3.712,1.845,6.987,4.661,8.979
		c-1.653,1.907-2.661,4.389-2.661,7.111c0,5.983,4.836,10.836,10.813,10.865v0.003H-3v-2h-0.721l-0.457-0.003
		c-4.864-0.023-8.822-4.001-8.822-8.865c0-4.89,3.978-8.868,8.867-8.868c0.15,0,0.299,0.012,0.447,0.022l0.148,0.01l1.314,0.085
		l0.597-1.175c2.225-4.372,6.644-7.089,11.532-7.089c6.062,0,11.382,4.298,12.649,10.219l0.318,1.483l1.514,0.094
		c3.708,0.23,6.612,3.319,6.612,7.03c0,3.878-3.144,7.035-7.017,7.057c-0.042-0.003-0.079-0.005-0.117-0.005l-0.047,0.005H23v2
		h0.819v-0.006c0.042,0.001,0.082,0.006,0.124,0.006c5.001,0,9.057-4.054,9.057-9.057C33-356.585,29.246-360.507,24.512-360.802z
		 M-3.408-364.419c-0.241-0.016-0.48-0.036-0.725-0.036c-2.537,0-4.865,0.876-6.715,2.334c-2.012-1.294-3.487-3.354-3.976-5.776
		c0.582,0.117,1.178,0.177,1.78,0.177c4.963,0,9-4.037,9-9c0-0.603-0.06-1.198-0.177-1.78c3.733,0.753,6.629,3.824,7.133,7.641
		C0.202-369.417-2.013-367.161-3.408-364.419z"/>
</g>
<g>
	<rect x="7" y="-442.89" width="2" height="4"/>
	<rect x="15" y="-446.911" width="2" height="4.021"/>
	<rect x="-1" y="-446.911" width="2" height="4.021"/>
	<path d="M25.628-462.878c-1.596-7.445-8.207-13.029-16.127-13.029c-6.423,0-11.977,3.678-14.702,9.035
		c-0.266-0.018-0.53-0.04-0.8-0.04c-6.627,0-11.999,5.372-11.999,12c0,6.607,5.34,11.965,11.938,11.998v0.003H-4v-2h-1.604
		l-0.447-0.003c-5.485-0.027-9.948-4.513-9.948-9.998c0-5.514,4.485-10,9.999-10c0.175,0,0.347,0.014,0.52,0.025l0.148,0.01
		l1.316,0.088l0.598-1.176c2.492-4.899,7.443-7.942,12.92-7.942c6.79,0,12.75,4.814,14.172,11.448l0.317,1.482l1.514,0.095
		c4.203,0.262,7.496,3.763,7.496,7.971c0,4.397-3.565,7.977-7.957,8c-0.05-0.003-0.093-0.005-0.137-0.007l-2.043,0.007H20v2h4.863
		v-0.007c0.046,0.001,0.091,0.007,0.137,0.007c5.521,0,10-4.477,10-10C35-458.222,30.855-462.553,25.628-462.878z"/>
	<circle cx="16" cy="-437.869" r="1.5"/>
	<circle cx="8" cy="-433.9" r="1.5"/>
	<circle cx="0" cy="-437.911" r="1.5"/>
</g>
<g>
	<rect x="99.921" y="-482.344" width="2" height="7.973"/>
	<rect x="80.921" y="-463.43" width="7.973" height="2"/>
	<rect x="85.594" y="-474.696" transform="matrix(0.7071 0.7071 -0.7071 0.7071 -308.7162 -202.0858)" width="7.974" height="2"/>
	<rect x="111.103" y="-477.678" transform="matrix(0.7071 0.7071 -0.7071 0.7071 -302.117 -218.0098)" width="2" height="7.972"/>
	<path d="M130.433-456.554c-1.444-6.742-7.433-11.8-14.605-11.8c-2.185,0-4.258,0.47-6.126,1.313
		c-1.667-3.202-5.007-5.394-8.866-5.394c-5.522,0-10,4.477-10,9.999c0,2.46,0.899,4.702,2.373,6.442
		c-1.429,1.84-2.287,4.144-2.287,6.653c0,5.983,4.836,10.836,10.813,10.865v0.003h1.188v-2H102.2l-0.457-0.003
		c-4.864-0.023-8.822-4.001-8.822-8.865c0-4.89,3.978-8.868,8.867-8.868c0.15,0,0.299,0.012,0.447,0.022l0.148,0.01l1.314,0.085
		l0.597-1.175c2.225-4.372,6.644-7.089,11.532-7.089c6.062,0,11.382,4.298,12.649,10.219l0.318,1.483l1.514,0.094
		c3.708,0.23,6.612,3.319,6.612,7.03c0,3.878-3.144,7.035-7.017,7.057c-0.042-0.003-0.079-0.005-0.117-0.005l-2.047,0.005h-0.819v2
		h2.819v-0.006c0.042,0.001,0.082,0.006,0.124,0.006c5.001,0,9.057-4.054,9.057-9.057
		C138.921-452.337,135.167-456.259,130.433-456.554z M102.513-460.171c-0.241-0.016-0.48-0.036-0.725-0.036
		c-2.766,0-5.282,1.042-7.2,2.743c-1.092-1.367-1.753-3.09-1.753-4.971c0-4.41,3.589-7.999,8-7.999c3.091,0,5.76,1.773,7.091,4.345
		C105.628-464.649,103.748-462.601,102.513-460.171z"/>
	<rect x="113.921" y="-438.455" width="2" height="4"/>
	<rect x="121.921" y="-442.477" width="2" height="4.021"/>
	<rect x="105.921" y="-442.477" width="2" height="4.021"/>
	<circle cx="122.921" cy="-433.435" r="1.5"/>
	<circle cx="114.921" cy="-429.466" r="1.5"/>
	<circle cx="106.921" cy="-433.477" r="1.5"/>
</g>
<g>
	<path d="M231.358-457.511c-1.444-6.742-7.433-11.8-14.605-11.8c-1.799,0-3.522,0.32-5.118,0.904
		c-0.949-5.108-5.404-8.98-10.788-8.98c-0.413,0-0.819,0.027-1.222,0.071c0.744,1.112,1.179,2.448,1.179,3.886c0,3.865-3.134,7-7,7
		c-1.438,0-2.773-0.435-3.886-1.179c-0.044,0.401-0.071,0.809-0.071,1.222c0,3.712,1.845,6.987,4.661,8.979
		c-1.653,1.907-2.661,4.389-2.661,7.111c0,5.983,4.836,10.836,10.813,10.865v0.003h1.188v-2h-0.721l-0.457-0.003
		c-4.864-0.023-8.822-4.001-8.822-8.865c0-4.89,3.978-8.868,8.867-8.868c0.15,0,0.299,0.012,0.447,0.022l0.148,0.01l1.314,0.085
		l0.597-1.175c2.225-4.372,6.644-7.089,11.532-7.089c6.062,0,11.382,4.298,12.649,10.219l0.318,1.483l1.514,0.094
		c3.708,0.23,6.612,3.319,6.612,7.03c0,3.878-3.144,7.035-7.017,7.057c-0.042-0.003-0.079-0.005-0.117-0.005l-2.047,0.005h-0.819v2
		h2.819v-0.006c0.042,0.001,0.082,0.006,0.124,0.006c5.001,0,9.057-4.054,9.057-9.057
		C239.847-453.294,236.093-457.216,231.358-457.511z M203.438-461.128c-0.241-0.016-0.48-0.036-0.725-0.036
		c-2.537,0-4.865,0.876-6.715,2.334c-2.012-1.294-3.487-3.354-3.976-5.776c0.582,0.117,1.178,0.177,1.78,0.177c4.963,0,9-4.037,9-9
		c0-0.603-0.06-1.198-0.177-1.78c3.733,0.753,6.629,3.824,7.133,7.641C207.049-466.126,204.834-463.87,203.438-461.128z"/>
	<rect x="214.847" y="-439.412" width="2" height="4"/>
	<rect x="222.847" y="-443.434" width="2" height="4.021"/>
	<rect x="206.847" y="-443.434" width="2" height="4.021"/>
	<circle cx="223.847" cy="-434.392" r="1.5"/>
	<circle cx="215.847" cy="-430.423" r="1.5"/>
	<circle cx="207.847" cy="-434.434" r="1.5"/>
</g>
<g>
	<path d="M128.049-364.48c-1.596-7.445-8.207-13.029-16.127-13.029c-6.423,0-11.977,3.678-14.702,9.035
		c-0.266-0.018-0.53-0.04-0.8-0.04c-6.627,0-11.999,5.372-11.999,12c0,6.607,5.34,11.965,11.938,11.998v0.003h6.062v-2h-5.604
		l-0.447-0.003c-5.485-0.027-9.948-4.513-9.948-9.998c0-5.514,4.485-10,9.999-10c0.175,0,0.347,0.014,0.52,0.025l0.148,0.01
		l1.316,0.088l0.598-1.176c2.492-4.899,7.443-7.942,12.92-7.942c6.79,0,12.75,4.814,14.172,11.448l0.317,1.482l1.514,0.095
		c4.203,0.262,7.496,3.763,7.496,7.971c0,4.397-3.565,7.977-7.957,8c-0.05-0.003-0.093-0.005-0.137-0.007l-5.043,0.007h0.137v2
		h4.863v-0.007c0.046,0.001,0.091,0.007,0.137,0.007c5.521,0,10-4.477,10-10C137.421-359.824,133.276-364.155,128.049-364.48z"/>
	<polygon points="112.263,-344.51 114.032,-344.51 114.463,-344.51 116.473,-344.51 110.059,-353.671 108.421,-352.523 
		112.632,-346.51 110.861,-346.51 108.421,-346.51 109.692,-344.693 110.805,-343.104 116.782,-334.51 118.421,-335.656 
		112.443,-344.252 	"/>
</g>
<g>
	<rect x="203.847" y="-383.61" width="2" height="7.973"/>
	<rect x="184.847" y="-364.696" width="7.973" height="2"/>
	<rect x="189.52" y="-375.963" transform="matrix(0.7071 0.7071 -0.7071 0.7071 -208.4619 -246.6541)" width="7.974" height="2"/>
	<rect x="215.028" y="-378.945" transform="matrix(0.7071 0.7071 -0.7071 0.7071 -201.8628 -262.578)" width="2" height="7.972"/>
	<path d="M234.358-357.82c-1.444-6.742-7.433-11.8-14.605-11.8c-2.185,0-4.258,0.47-6.127,1.313
		c-1.666-3.202-5.006-5.394-8.865-5.394c-5.522,0-10,4.477-10,9.999c0,2.46,0.898,4.702,2.373,6.442
		c-1.428,1.84-2.287,4.144-2.287,6.653c0,5.983,4.836,10.836,10.813,10.865v0.003h4.188v-2h-3.721l-0.457-0.003
		c-4.864-0.023-8.822-4.001-8.822-8.865c0-4.89,3.978-8.868,8.867-8.868c0.15,0,0.299,0.012,0.447,0.022l0.148,0.01l1.314,0.085
		l0.597-1.175c2.225-4.372,6.644-7.089,11.532-7.089c6.062,0,11.382,4.298,12.649,10.219l0.318,1.483l1.514,0.094
		c3.708,0.23,6.612,3.319,6.612,7.03c0,3.878-3.144,7.035-7.017,7.057c-0.042-0.003-0.079-0.005-0.117-0.005l-2.047,0.005h-3.819v2
		h5.819v-0.006c0.042,0.001,0.082,0.006,0.124,0.006c5.001,0,9.057-4.054,9.057-9.057
		C242.847-353.604,239.093-357.525,234.358-357.82z M206.438-361.438c-0.241-0.016-0.48-0.036-0.725-0.036
		c-2.766,0-5.281,1.041-7.2,2.743c-1.092-1.366-1.753-3.09-1.753-4.971c0-4.41,3.589-7.999,8-7.999c3.092,0,5.76,1.773,7.092,4.345
		C209.554-365.915,207.675-363.867,206.438-361.438z"/>
	<polygon points="218.688,-339.73 220.458,-339.73 220.889,-339.73 222.898,-339.73 216.484,-348.892 214.847,-347.744 
		219.058,-341.73 217.287,-341.73 214.847,-341.73 216.118,-339.914 217.23,-338.325 223.208,-329.73 224.847,-330.877 
		218.869,-339.473 	"/>
</g>
<g>
	<path d="M333.943-360.116c-1.444-6.742-7.433-11.8-14.605-11.8c-1.799,0-3.521,0.32-5.118,0.904
		c-0.949-5.108-5.404-8.98-10.788-8.98c-0.413,0-0.819,0.027-1.222,0.071c0.744,1.112,1.179,2.448,1.179,3.886c0,3.865-3.134,7-7,7
		c-1.438,0-2.773-0.435-3.886-1.179c-0.044,0.401-0.071,0.809-0.071,1.222c0,3.712,1.845,6.987,4.661,8.979
		c-1.653,1.907-2.661,4.389-2.661,7.111c0,5.983,4.836,10.836,10.813,10.865v0.003h4.188v-2h-3.721l-0.457-0.003
		c-4.864-0.023-8.822-4.001-8.822-8.865c0-4.89,3.978-8.868,8.867-8.868c0.15,0,0.299,0.012,0.447,0.022l0.148,0.01l1.314,0.085
		l0.597-1.175c2.225-4.372,6.644-7.089,11.532-7.089c6.062,0,11.382,4.298,12.649,10.219l0.318,1.483l1.514,0.094
		c3.708,0.23,6.612,3.319,6.612,7.03c0,3.878-3.144,7.035-7.017,7.057c-0.042-0.003-0.079-0.005-0.117-0.005l-2.047,0.005h-3.819v2
		h5.819v-0.006c0.042,0.001,0.082,0.006,0.124,0.006c5.001,0,9.057-4.054,9.057-9.057
		C342.432-355.899,338.678-359.821,333.943-360.116z M306.023-363.733c-0.241-0.016-0.48-0.036-0.725-0.036
		c-2.537,0-4.865,0.876-6.715,2.334c-2.012-1.294-3.486-3.354-3.976-5.776c0.582,0.117,1.178,0.177,1.78,0.177c4.963,0,9-4.037,9-9
		c0-0.603-0.06-1.198-0.177-1.78c3.733,0.753,6.629,3.824,7.134,7.64C309.633-368.731,307.418-366.477,306.023-363.733z"/>
	<polygon points="318.273,-342.026 320.043,-342.026 320.474,-342.026 322.483,-342.026 316.069,-351.188 314.432,-350.04 
		318.643,-344.026 316.872,-344.026 314.432,-344.026 315.703,-342.21 316.815,-340.621 322.793,-332.026 324.432,-333.173 
		318.454,-341.769 	"/>
</g>
<g>
	<path d="M434.828-363.98c-1.596-7.445-8.207-13.029-16.127-13.029c-6.423,0-11.977,3.678-14.702,9.035
		c-0.266-0.018-0.53-0.04-0.8-0.04c-6.627,0-11.999,5.372-11.999,12c0,6.607,5.34,11.965,11.938,11.998v0.003h1.062v-2h-0.604
		l-0.447-0.003c-5.485-0.027-9.948-4.513-9.948-9.998c0-5.514,4.485-10,9.999-10c0.175,0,0.347,0.014,0.52,0.025l0.148,0.01
		l1.316,0.088l0.598-1.176c2.492-4.899,7.443-7.942,12.92-7.942c6.79,0,12.75,4.814,14.172,11.448l0.317,1.482l1.514,0.095
		c4.203,0.262,7.496,3.763,7.496,7.971c0,4.397-3.565,7.977-7.957,8c-0.05-0.003-0.093-0.005-0.137-0.007l-0.906,0.007v2h0.863
		v-0.007c0.046,0.001,0.091,0.007,0.137,0.007c5.521,0,10-4.477,10-10C444.2-359.324,440.056-363.655,434.828-363.98z"/>
	
		<rect x="403.635" y="-346.016" transform="matrix(-0.5736 -0.8191 0.8191 -0.5736 926.5795 -207.7299)" width="11.183" height="1.999"/>
	
		<rect x="421.609" y="-346.016" transform="matrix(-0.5736 -0.8191 0.8191 -0.5736 954.8651 -193.0067)" width="11.183" height="1.999"/>
	<polygon points="420.042,-341.01 421.812,-341.01 422.242,-341.01 424.252,-341.01 417.838,-350.171 416.2,-349.023 
		420.411,-343.01 418.641,-343.01 416.2,-343.01 417.472,-341.193 418.584,-339.604 423.2,-333.01 424.839,-334.156 
		420.223,-340.752 	"/>
</g>
<g>
	<rect x="509.676" y="-383.447" width="2" height="7.973"/>
	<rect x="490.676" y="-364.533" width="7.973" height="2"/>
	<rect x="495.349" y="-375.8" transform="matrix(0.7071 0.7071 -0.7071 0.7071 -118.7714 -462.8602)" width="7.974" height="2"/>
	<rect x="520.858" y="-378.782" transform="matrix(0.7071 0.7071 -0.7071 0.7071 -112.1722 -478.7841)" width="2" height="7.972"/>
	<path d="M540.188-357.657c-1.444-6.742-7.433-11.8-14.605-11.8c-2.185,0-4.258,0.47-6.126,1.313
		c-1.667-3.202-5.007-5.394-8.866-5.394c-5.522,0-10,4.477-10,9.999c0,2.46,0.899,4.702,2.373,6.442
		c-1.429,1.84-2.287,4.144-2.287,6.653c0,5.983,4.836,10.836,10.813,10.865v0.003h0.188v-2l-0.178-0.003
		c-4.864-0.023-8.822-4.001-8.822-8.865c0-4.89,3.978-8.868,8.867-8.868c0.15,0,0.299,0.012,0.447,0.022l0.148,0.01l1.314,0.085
		l0.597-1.175c2.225-4.372,6.644-7.089,11.532-7.089c6.062,0,11.382,4.298,12.649,10.219l0.318,1.483l1.514,0.094
		c3.708,0.23,6.612,3.319,6.612,7.03c0,3.878-3.144,7.035-7.017,7.057c-0.042-0.003-0.079-0.005-0.117-0.005l-0.866,0.005v2h0.819
		v-0.006c0.042,0.001,0.082,0.006,0.124,0.006c5.001,0,9.057-4.054,9.057-9.057C548.676-353.44,544.922-357.362,540.188-357.657z
		 M512.268-361.274c-0.241-0.016-0.48-0.036-0.725-0.036c-2.766,0-5.282,1.042-7.2,2.743c-1.092-1.367-1.753-3.09-1.753-4.971
		c0-4.41,3.589-7.999,8-7.999c3.091,0,5.76,1.773,7.091,4.345C515.383-365.753,513.503-363.704,512.268-361.274z"/>
	
		<rect x="510.097" y="-341.577" transform="matrix(-0.5736 -0.8191 0.8191 -0.5736 1090.478 -113.5406)" width="11.183" height="1.999"/>
	
		<rect x="528.072" y="-341.577" transform="matrix(-0.5736 -0.8191 0.8191 -0.5736 1118.7635 -98.8175)" width="11.183" height="1.999"/>
	<polygon points="526.505,-336.571 528.274,-336.571 528.705,-336.571 530.715,-336.571 524.301,-345.732 522.663,-344.585 
		526.874,-338.571 525.104,-338.571 522.663,-338.571 523.935,-336.755 525.047,-335.166 529.663,-328.571 531.302,-329.718 
		526.686,-336.313 	"/>
</g>
<g>
	<path d="M642.025-360.615c-1.444-6.742-7.433-11.8-14.605-11.8c-1.799,0-3.522,0.32-5.118,0.904
		c-0.949-5.108-5.404-8.98-10.788-8.98c-0.413,0-0.819,0.027-1.222,0.071c0.744,1.112,1.179,2.448,1.179,3.886c0,3.865-3.134,7-7,7
		c-1.438,0-2.773-0.435-3.886-1.179c-0.044,0.401-0.071,0.809-0.071,1.222c0,3.712,1.845,6.987,4.661,8.979
		c-1.653,1.907-2.661,4.389-2.661,7.111c0,5.983,4.836,10.836,10.813,10.865v0.003h0.188v-2l-0.178-0.003
		c-4.864-0.023-8.822-4.001-8.822-8.865c0-4.89,3.978-8.868,8.867-8.868c0.15,0,0.299,0.012,0.447,0.022l0.148,0.01l1.314,0.085
		l0.597-1.175c2.225-4.372,6.644-7.089,11.532-7.089c6.062,0,11.382,4.298,12.649,10.219l0.318,1.483l1.514,0.094
		c3.708,0.23,6.612,3.319,6.612,7.03c0,3.878-3.144,7.035-7.017,7.057c-0.042-0.003-0.079-0.005-0.117-0.005l-0.866,0.005v2h0.819
		v-0.006c0.042,0.001,0.082,0.006,0.124,0.006c5.001,0,9.057-4.054,9.057-9.057C650.514-356.398,646.76-360.32,642.025-360.615z
		 M614.105-364.232c-0.241-0.016-0.48-0.036-0.725-0.036c-2.537,0-4.865,0.876-6.715,2.334c-2.012-1.294-3.487-3.354-3.976-5.776
		c0.582,0.117,1.178,0.177,1.78,0.177c4.963,0,9-4.037,9-9c0-0.603-0.06-1.198-0.177-1.78c3.733,0.753,6.629,3.824,7.133,7.641
		C617.716-369.23,615.501-366.975,614.105-364.232z"/>
	
		<rect x="611.934" y="-344.535" transform="matrix(-0.5736 -0.8191 0.8191 -0.5736 1253.1554 -34.78)" width="11.183" height="1.999"/>
	
		<rect x="629.909" y="-344.535" transform="matrix(-0.5736 -0.8191 0.8191 -0.5736 1281.4409 -20.0568)" width="11.183" height="1.999"/>
	<polygon points="628.342,-339.529 630.111,-339.529 630.542,-339.529 632.552,-339.529 626.138,-348.69 624.5,-347.543 
		628.711,-341.529 626.94,-341.529 624.5,-341.529 625.771,-339.713 626.884,-338.124 631.5,-331.529 633.139,-332.676 
		628.522,-339.271 	"/>
</g>
<g>
	<g>
		<path d="M231.463-274.16c-1.596-7.445-8.207-13.029-16.127-13.029c-6.423,0-11.977,3.678-14.702,9.035
			c-0.266-0.018-0.53-0.04-0.8-0.04c-6.627,0-11.999,5.372-11.999,12c0,6.607,5.34,11.965,11.938,11.998v0.003h2.062v-2h-1.604
			l-0.447-0.003c-5.485-0.027-9.948-4.513-9.948-9.998c0-5.514,4.485-10,9.999-10c0.175,0,0.347,0.014,0.52,0.025l0.148,0.01
			l1.316,0.088l0.598-1.176c2.492-4.899,7.443-7.942,12.92-7.942c6.79,0,12.75,4.814,14.172,11.448l0.317,1.482l1.514,0.095
			c4.203,0.262,7.496,3.763,7.496,7.971c0,4.397-3.565,7.977-7.957,8c-0.05-0.003-0.093-0.005-0.137-0.007l-2.043,0.007h-2.863v2
			h4.863v-0.007c0.046,0.001,0.091,0.007,0.137,0.007c5.521,0,10-4.477,10-10C240.835-269.504,236.69-273.835,231.463-274.16z"/>
	</g>
	<g>
		<circle cx="206.335" cy="-260.617" r="1.5"/>
	</g>
	<g>
		<circle cx="210.335" cy="-254.693" r="1.5"/>
	</g>
	<g>
		<circle cx="218.335" cy="-254.693" r="1.5"/>
	</g>
	<g>
		<circle cx="214.335" cy="-260.617" r="1.5"/>
	</g>
	<g>
		<circle cx="222.335" cy="-260.617" r="1.5"/>
	</g>
	<g>
		<circle cx="206.335" cy="-248.672" r="1.5"/>
	</g>
	<g>
		<circle cx="214.335" cy="-248.672" r="1.5"/>
	</g>
	<g>
		<circle cx="222.335" cy="-248.672" r="1.5"/>
	</g>
</g>
<g>
	<g>
		<rect x="307.249" y="-289.638" width="2" height="7.973"/>
	</g>
	<g>
		<rect x="288.249" y="-270.724" width="7.973" height="2"/>
	</g>
	<g>
		<rect x="292.922" y="-281.99" transform="matrix(0.7071 0.7071 -0.7071 0.7071 -111.7274 -292.2466)" width="7.974" height="2"/>
	</g>
	<g>
		<rect x="318.431" y="-284.972" transform="matrix(0.7071 0.7071 -0.7071 0.7071 -105.1282 -308.1706)" width="2" height="7.972"/>
	</g>
	<g>
		<path d="M337.761-263.848c-1.444-6.742-7.433-11.8-14.605-11.8c-2.185,0-4.258,0.47-6.127,1.313
			c-1.666-3.202-5.006-5.394-8.865-5.394c-5.522,0-10,4.477-10,9.999c0,2.46,0.898,4.702,2.373,6.442
			c-1.428,1.84-2.287,4.144-2.287,6.653c0,5.983,4.836,10.836,10.813,10.865v0.003h1.188v-2h-0.721l-0.457-0.003
			c-4.864-0.023-8.822-4.001-8.822-8.865c0-4.89,3.978-8.868,8.867-8.868c0.15,0,0.299,0.012,0.447,0.022l0.148,0.01l1.314,0.085
			l0.597-1.175c2.225-4.372,6.644-7.089,11.532-7.089c6.062,0,11.382,4.298,12.649,10.219l0.318,1.483l1.514,0.094
			c3.708,0.23,6.612,3.319,6.612,7.03c0,3.878-3.144,7.035-7.017,7.057c-0.042-0.003-0.079-0.005-0.117-0.005l-2.047,0.005h-1.819v2
			h3.819v-0.006c0.042,0.001,0.082,0.006,0.124,0.006c5.001,0,9.057-4.054,9.057-9.057
			C346.249-259.631,342.495-263.553,337.761-263.848z M309.841-267.465c-0.241-0.016-0.48-0.036-0.725-0.036
			c-2.766,0-5.281,1.042-7.2,2.743c-1.092-1.367-1.753-3.09-1.753-4.971c0-4.41,3.589-7.999,8-7.999c3.092,0,5.76,1.773,7.092,4.345
			C312.956-271.943,311.077-269.895,309.841-267.465z"/>
	</g>
	<g>
		<circle cx="313.738" cy="-252.254" r="1.5"/>
	</g>
	<g>
		<circle cx="317.738" cy="-246.254" r="1.5"/>
	</g>
	<g>
		<circle cx="325.738" cy="-246.254" r="1.5"/>
	</g>
	<g>
		<circle cx="321.738" cy="-252.254" r="1.5"/>
	</g>
	<g>
		<circle cx="329.738" cy="-252.254" r="1.5"/>
	</g>
	<g>
		<circle cx="313.738" cy="-240.232" r="1.5"/>
	</g>
	<g>
		<circle cx="321.738" cy="-240.232" r="1.5"/>
	</g>
	<g>
		<circle cx="329.738" cy="-240.232" r="1.5"/>
	</g>
</g>
<g>
	<g>
		<path d="M433.712-267.804c-1.444-6.742-7.433-11.8-14.605-11.8c-1.799,0-3.521,0.32-5.118,0.904
			c-0.949-5.108-5.404-8.98-10.788-8.98c-0.413,0-0.819,0.027-1.222,0.071c0.744,1.112,1.179,2.448,1.179,3.886c0,3.865-3.134,7-7,7
			c-1.438,0-2.773-0.435-3.886-1.179c-0.044,0.401-0.071,0.809-0.071,1.222c0,3.712,1.845,6.987,4.661,8.979
			c-1.653,1.907-2.661,4.389-2.661,7.111c0,5.983,4.836,10.836,10.813,10.865v0.003h1.188v-2h-0.721l-0.457-0.003
			c-4.864-0.023-8.822-4.001-8.822-8.865c0-4.89,3.978-8.868,8.867-8.868c0.15,0,0.299,0.012,0.447,0.022l0.148,0.01l1.314,0.085
			l0.597-1.175c2.225-4.372,6.644-7.089,11.532-7.089c6.062,0,11.382,4.298,12.649,10.219l0.318,1.483l1.514,0.094
			c3.708,0.23,6.612,3.319,6.612,7.03c0,3.878-3.144,7.035-7.017,7.057c-0.042-0.003-0.079-0.005-0.117-0.005l-2.047,0.005H429.2v2
			h3.819v-0.006c0.042,0.001,0.082,0.006,0.124,0.006c5.001,0,9.057-4.054,9.057-9.057
			C442.2-263.587,438.446-267.509,433.712-267.804z M405.792-271.421c-0.241-0.016-0.48-0.036-0.725-0.036
			c-2.537,0-4.865,0.876-6.715,2.334c-2.012-1.294-3.486-3.354-3.976-5.776c0.582,0.117,1.178,0.177,1.78,0.177c4.963,0,9-4.037,9-9
			c0-0.603-0.06-1.198-0.177-1.78c3.733,0.753,6.629,3.824,7.134,7.64C409.401-276.419,407.187-274.164,405.792-271.421z"/>
	</g>
	<g>
		<circle cx="409.7" cy="-256.211" r="1.5"/>
	</g>
	<g>
		<circle cx="413.7" cy="-250.211" r="1.5"/>
	</g>
	<g>
		<circle cx="421.7" cy="-250.211" r="1.5"/>
	</g>
	<g>
		<circle cx="417.7" cy="-256.211" r="1.5"/>
	</g>
	<g>
		<circle cx="425.7" cy="-256.211" r="1.5"/>
	</g>
	<g>
		<circle cx="409.7" cy="-244.189" r="1.5"/>
	</g>
	<g>
		<circle cx="417.7" cy="-244.189" r="1.5"/>
	</g>
	<g>
		<circle cx="425.7" cy="-244.189" r="1.5"/>
	</g>
</g>
<g>
	<path d="M744.877-366.689c-1.596-7.445-8.207-13.029-16.127-13.029c-6.423,0-11.977,3.678-14.702,9.035
		c-0.266-0.018-0.53-0.04-0.8-0.04c-6.627,0-11.999,5.372-11.999,12c0,6.607,5.34,11.965,11.938,11.998v0.003h2.062v-2h-1.604
		l-0.447-0.003c-5.485-0.027-9.948-4.513-9.948-9.998c0-5.514,4.485-10,9.999-10c0.175,0,0.347,0.014,0.52,0.025l0.148,0.01
		l1.316,0.088l0.598-1.176c2.492-4.899,7.443-7.942,12.92-7.942c6.79,0,12.75,4.814,14.172,11.448l0.317,1.482l1.514,0.095
		c4.203,0.262,7.496,3.763,7.496,7.971c0,4.397-3.565,7.977-7.957,8c-0.05-0.003-0.093-0.005-0.137-0.007l-2.043,0.007h-2.863v2
		h4.863v-0.007c0.046,0.001,0.091,0.007,0.137,0.007c5.521,0,10-4.477,10-10C754.249-362.033,750.104-366.364,744.877-366.689z"/>
	<circle cx="719.249" cy="-339.219" r="1.5"/>
	<circle cx="727.249" cy="-333.219" r="1.5"/>
	<circle cx="735.249" cy="-337.219" r="1.5"/>
	<rect x="718.249" y="-355.694" width="2" height="11.976"/>
	<polygon points="728.249,-337.754 728.249,-339.694 728.249,-351.694 726.249,-351.694 726.249,-339.694 726.249,-337.754 
		726.249,-337.719 728.249,-337.719 	"/>
	<polygon points="736.249,-341.941 736.249,-343.694 736.249,-355.694 734.249,-355.694 734.249,-343.694 734.249,-341.941 
		734.249,-341.719 736.249,-341.719 	"/>
</g>
<g>
	<rect x="-3.5" y="-295.076" width="2" height="7.973"/>
	<rect x="-22.5" y="-276.162" width="7.973" height="2"/>
	<rect x="-17.827" y="-287.429" transform="matrix(0.7071 0.7071 -0.7071 0.7071 -206.5893 -74.1068)" width="7.974" height="2"/>
	<rect x="7.682" y="-290.411" transform="matrix(0.7071 0.7071 -0.7071 0.7071 -199.9901 -90.0307)" width="2" height="7.972"/>
	<path d="M27.012-269.286c-1.444-6.742-7.433-11.8-14.605-11.8c-2.185,0-4.258,0.47-6.126,1.313
		c-1.667-3.202-5.007-5.394-8.866-5.394c-5.522,0-10,4.477-10,9.999c0,2.46,0.899,4.702,2.373,6.442
		c-1.429,1.84-2.287,4.144-2.287,6.653c0,5.983,4.836,10.836,10.813,10.865v0.003H-0.5v-2h-0.721l-0.457-0.003
		c-4.864-0.023-8.822-4.001-8.822-8.865c0-4.89,3.978-8.868,8.867-8.868c0.15,0,0.299,0.012,0.447,0.022l0.148,0.01l1.314,0.085
		l0.597-1.175c2.225-4.372,6.644-7.089,11.532-7.089c6.062,0,11.382,4.298,12.649,10.219l0.318,1.483l1.514,0.094
		c3.708,0.23,6.612,3.319,6.612,7.03c0,3.878-3.144,7.035-7.017,7.057c-0.042-0.003-0.079-0.005-0.117-0.005l-2.047,0.005H23.5v2
		h2.819v-0.006c0.042,0.001,0.082,0.006,0.124,0.006c5.001,0,9.057-4.054,9.057-9.057C35.5-265.069,31.746-268.991,27.012-269.286z
		 M-0.908-272.903c-0.241-0.016-0.48-0.036-0.725-0.036c-2.766,0-5.282,1.041-7.2,2.743c-1.092-1.366-1.753-3.09-1.753-4.971
		c0-4.41,3.589-7.999,8-7.999c3.091,0,5.76,1.773,7.091,4.345C2.207-277.381,0.327-275.333-0.908-272.903z"/>
	<circle cx="3.49" cy="-242.716" r="1.5"/>
	<circle cx="11.49" cy="-236.716" r="1.5"/>
	<circle cx="19.49" cy="-240.716" r="1.5"/>
	<rect x="2.49" y="-259.191" width="2" height="11.976"/>
	<polygon points="12.49,-241.251 12.49,-243.191 12.49,-255.191 10.49,-255.191 10.49,-243.191 10.49,-241.251 10.49,-241.216 
		12.49,-241.216 	"/>
	<polygon points="20.49,-245.438 20.49,-247.191 20.49,-259.191 18.49,-259.191 18.49,-247.191 18.49,-245.438 18.49,-245.216 
		20.49,-245.216 	"/>
</g>
<g>
	<path d="M127.614-272.284c-1.444-6.742-7.433-11.8-14.605-11.8c-1.799,0-3.522,0.32-5.118,0.904
		c-0.949-5.108-5.404-8.98-10.788-8.98c-0.413,0-0.819,0.027-1.222,0.071c0.744,1.112,1.179,2.448,1.179,3.886c0,3.865-3.134,7-7,7
		c-1.438,0-2.773-0.435-3.886-1.179c-0.044,0.401-0.071,0.809-0.071,1.222c0,3.712,1.845,6.987,4.661,8.979
		c-1.653,1.907-2.661,4.389-2.661,7.111c0,5.983,4.836,10.836,10.813,10.865v0.003h1.188v-2h-0.721l-0.457-0.003
		c-4.864-0.023-8.822-4.001-8.822-8.865c0-4.89,3.978-8.868,8.867-8.868c0.15,0,0.299,0.012,0.447,0.022l0.148,0.01l1.314,0.085
		l0.597-1.175c2.225-4.372,6.644-7.089,11.532-7.089c6.062,0,11.382,4.298,12.649,10.219l0.318,1.483l1.514,0.094
		c3.708,0.23,6.612,3.319,6.612,7.03c0,3.878-3.144,7.035-7.017,7.057c-0.042-0.003-0.079-0.005-0.117-0.005l-2.047,0.005h-0.819v2
		h2.819v-0.006c0.042,0.001,0.082,0.006,0.124,0.006c5.001,0,9.057-4.054,9.057-9.057
		C136.103-268.067,132.349-271.989,127.614-272.284z M99.694-275.901c-0.241-0.016-0.48-0.036-0.725-0.036
		c-2.537,0-4.865,0.876-6.715,2.334c-2.012-1.294-3.487-3.354-3.976-5.776c0.582,0.117,1.178,0.177,1.78,0.177c4.963,0,9-4.037,9-9
		c0-0.603-0.06-1.198-0.177-1.78c3.733,0.753,6.629,3.824,7.133,7.64C103.305-280.899,101.09-278.645,99.694-275.901z"/>
	<circle cx="104.103" cy="-245.71" r="1.5"/>
	<circle cx="112.103" cy="-239.71" r="1.5"/>
	<circle cx="120.103" cy="-243.71" r="1.5"/>
	<rect x="103.103" y="-262.186" width="2" height="11.976"/>
	<polygon points="113.103,-244.245 113.103,-246.186 113.103,-258.186 111.103,-258.186 111.103,-246.186 111.103,-244.245 
		111.103,-244.21 113.103,-244.21 	"/>
	<polygon points="121.103,-248.433 121.103,-250.186 121.103,-262.186 119.103,-262.186 119.103,-250.186 119.103,-248.433 
		119.103,-248.21 121.103,-248.21 	"/>
</g>
<g>
	<rect x="-20.5" y="-167.844" width="56" height="2"/>
	<rect x="-16.5" y="-161.844" width="50" height="2"/>
	<rect x="-10.5" y="-155.844" width="36" height="2"/>
	<rect x="-18.5" y="-173.844" width="52" height="2"/>
	<path d="M-6.626-181.849c0.175,0,0.347,0.014,0.519,0.025l0.149,0.01l1.316,0.088l0.598-1.176c2.493-4.899,7.443-7.942,12.92-7.942
		c6.79,0,12.75,4.814,14.171,11.448l0.318,1.482l1.514,0.095c1.207,0.075,2.335,0.425,3.336,0.975h3.286
		c-1.678-1.703-3.957-2.813-6.498-2.971c-1.596-7.445-8.207-13.029-16.127-13.029c-6.423,0-11.977,3.678-14.702,9.035
		c-0.266-0.018-0.53-0.04-0.8-0.04c-4.843,0-9.004,2.874-10.9,7.005h2.251C-13.544-179.83-10.319-181.849-6.626-181.849z"/>
</g>
<g>
	<rect x="100.603" y="-195.358" width="2" height="7.973"/>
	<rect x="81.603" y="-176.444" width="7.973" height="2"/>
	<rect x="86.276" y="-187.711" transform="matrix(0.7071 0.7071 -0.7071 0.7071 -105.5872 -118.5117)" width="7.974" height="2"/>
	<rect x="111.784" y="-190.693" transform="matrix(0.7071 0.7071 -0.7071 0.7071 -98.9881 -134.4357)" width="2" height="7.972"/>
	<rect x="90.603" y="-161.484" width="50" height="2"/>
	<rect x="94.603" y="-155.484" width="44" height="2"/>
	<rect x="100.603" y="-150.484" width="30" height="2"/>
	<rect x="92.603" y="-167.484" width="46" height="2"/>
	<path d="M93.511-169.484h0.771h1.927h1.012c1.472-1.087,3.283-1.737,5.249-1.737c0.15,0,0.299,0.012,0.447,0.022l0.148,0.01
		l1.314,0.085l0.597-1.175c2.225-4.372,6.644-7.089,11.532-7.089c5.945,0,11.168,4.139,12.563,9.884h2.043v-0.084
		c-1.444-6.742-7.433-11.8-14.605-11.8c-2.185,0-4.258,0.47-6.126,1.313c-1.667-3.202-5.007-5.394-8.866-5.394
		c-5.522,0-10,4.477-10,9.999C91.517-173.208,92.265-171.149,93.511-169.484z M101.517-183.448c3.091,0,5.76,1.773,7.091,4.345
		c-2.298,1.44-4.178,3.488-5.413,5.918c-0.241-0.016-0.48-0.036-0.725-0.036c-2.764,0-5.274,1.045-7.189,2.745
		c-1.097-1.366-1.764-3.089-1.764-4.973C93.517-179.859,97.105-183.448,101.517-183.448z"/>
</g>
<g>
	<rect x="189.347" y="-164.922" width="50" height="2"/>
	<rect x="193.347" y="-158.922" width="44" height="2"/>
	<rect x="199.347" y="-153.922" width="30" height="2"/>
	<rect x="191.347" y="-170.922" width="46" height="2"/>
	<path d="M192.989-172.922h0.037h1.884h1.055c1.472-1.087,3.283-1.737,5.249-1.737c0.15,0,0.299,0.012,0.447,0.022l0.148,0.01
		l1.314,0.085l0.597-1.175c2.225-4.372,6.644-7.089,11.532-7.089c5.945,0,11.168,4.139,12.563,9.884h2.043v-0.084
		c-1.444-6.742-7.433-11.8-14.605-11.8c-1.799,0-3.521,0.32-5.117,0.903c-0.945-5.111-5.402-8.987-10.789-8.987
		c-0.413,0-0.819,0.027-1.222,0.071c0.744,1.112,1.179,2.448,1.179,3.886c0,3.865-3.134,7-7,7c-1.438,0-2.773-0.435-3.886-1.179
		c-0.044,0.401-0.071,0.809-0.071,1.222C188.347-178.186,190.183-174.915,192.989-172.922z M192.304-179.933c4.963,0,9-4.037,9-9
		c0-0.603-0.06-1.198-0.177-1.78c3.735,0.753,6.633,3.828,7.134,7.647c-2.712,1.443-4.927,3.699-6.322,6.442
		c-0.241-0.016-0.48-0.036-0.725-0.036c-2.534,0-4.855,0.879-6.701,2.335c-2.02-1.293-3.5-3.356-3.989-5.785
		C191.105-179.992,191.701-179.933,192.304-179.933z"/>
</g>
<g>
	<path d="M321.238-161.908h-19.474l-0.578-0.003c-5.485-0.027-9.948-4.513-9.948-9.998c0-5.514,4.485-10,9.999-10
		c0.175,0,0.347,0.014,0.519,0.025l0.149,0.01l1.316,0.088l0.598-1.176c2.493-4.899,7.443-7.942,12.92-7.942
		c6.79,0,12.75,4.814,14.171,11.448l0.318,1.482l1.514,0.095c1.822,0.113,3.463,0.845,4.746,1.971h2.732
		c-1.707-2.262-4.348-3.78-7.354-3.967c-1.596-7.445-8.207-13.029-16.127-13.029c-6.423,0-11.977,3.678-14.702,9.035
		c-0.266-0.018-0.53-0.04-0.8-0.04c-6.627,0-11.999,5.372-11.999,12c0,6.607,5.34,11.965,11.938,11.998v0.003h20.062
		c2.205,0,4,1.794,4,4s-1.795,4-4,4v2c3.314,0,6-2.686,6-6C327.238-159.222,324.553-161.908,321.238-161.908z"/>
	<path d="M325.238-165.908H309.25v2h15.988c3.314,0,6-2.687,6-6c0-3.314-2.686-6-6-6v2c2.205,0,4,1.794,4,4
		S327.443-165.908,325.238-165.908z"/>
	<path d="M338.238-171.908c1.654,0,3,1.346,3,3s-1.346,3-3,3c-0.043,0-0.083-0.011-0.126-0.013h-4.862
		c0.003,0.005,0.009,0.008,0.012,0.013h-0.023v2h5.5v-0.051c2.523-0.254,4.5-2.358,4.5-4.949c0-2.762-2.238-5-5-5V-171.908z"/>
	<path d="M342.238-161.908h-13v2h9.022c-0.004,0.005-0.008,0.008-0.011,0.013h3.862c0.043-0.002,0.083-0.013,0.126-0.013
		c1.654,0,3,1.346,3,3s-1.346,3-3,3v2c2.762,0,5-2.238,5-5S345-161.908,342.238-161.908z"/>
	<rect x="303.238" y="-165.908" width="4" height="2"/>
</g>
<path d="M113.677-561.012c6.95,1.305,12.226,7.419,12.226,14.742c0,8.272-6.729,15.002-15,15.002c-6.79,0-12.531-4.49-14.366-10.728
	c1.398,0.461,2.867,0.698,4.366,0.698c7.72,0,14-6.281,14-14.001C114.902-557.282,114.479-559.227,113.677-561.012 M110.902-563.269
	c-0.338,0-0.668,0.031-1,0.051c1.861,2.113,3,4.881,3,7.92c0,6.627-5.372,12.001-12,12.001c-2.599,0-4.998-0.835-6.963-2.239
	c0.387,9.047,7.821,16.269,16.963,16.269c9.39,0,17-7.612,17-17.002S120.292-563.269,110.902-563.269L110.902-563.269z"/>
<g>
	<path d="M7.507-558.273c-7.18,0-13,5.819-13,12.999c0,7.181,5.82,13.002,13,13.002s13-5.821,13-13.002
		C20.507-552.454,14.687-558.273,7.507-558.273z M7.507-534.272c-6.065,0-11-4.936-11-11.002c0-6.064,4.935-10.999,11-10.999
		s11,4.935,11,10.999C18.507-539.208,13.572-534.272,7.507-534.272z"/>
	<rect x="6.5" y="-571.268" width="2" height="10"/>
	<rect x="6.5" y="-529.268" width="2" height="10"/>
	<rect x="-18.493" y="-546.268" width="9.993" height="2"/>
	<rect x="23.5" y="-546.268" width="10.007" height="2"/>
	<rect x="21.2" y="-565.182" transform="matrix(0.7071 0.7071 -0.7071 0.7071 -389.4614 -179.7111)" width="2" height="10.409"/>
	<rect x="-8.209" y="-535.773" transform="matrix(-0.7071 -0.7071 0.7071 -0.7071 362.8616 -910.8335)" width="2" height="10.41"/>
	<rect x="-12.409" y="-560.972" transform="matrix(0.7071 0.7071 -0.7071 0.7071 -398.0703 -158.9176)" width="10.409" height="2"/>
	<rect x="16.999" y="-531.563" transform="matrix(-0.7072 -0.7071 0.7071 -0.7072 413.0457 -890.0529)" width="10.41" height="2"/>
</g>
<g>
	<rect x="405.673" y="-200.406" width="2" height="7.973"/>
	<rect x="386.7" y="-181.42" width="7.973" height="2"/>
	<rect x="391.426" y="-192.639" transform="matrix(0.7071 0.7071 -0.7071 0.7071 -19.6952 -335.7289)" width="7.974" height="2"/>
	<rect x="416.935" y="-195.621" transform="matrix(0.7071 0.7071 -0.7071 0.7071 -13.096 -351.6529)" width="2" height="7.972"/>
	<path d="M420.7-158.406l0.005-0.007h-12.536l-0.594-0.003c-4.864-0.024-8.822-4.001-8.822-8.865c0-4.89,3.978-8.868,8.867-8.868
		c0.15,0,0.299,0.012,0.447,0.021l0.148,0.011l1.314,0.085l0.597-1.174c2.225-4.373,6.644-7.09,11.532-7.09
		c5.916,0,11.114,4.099,12.54,9.8h2.065c-1.444-6.742-7.433-11.8-14.605-11.8c-2.185,0-4.258,0.47-6.126,1.313
		c-1.667-3.202-5.007-5.394-8.866-5.394c-5.522,0-10,4.477-10,9.999c0,2.46,0.899,4.702,2.373,6.442
		c-1.429,1.84-2.287,4.144-2.287,6.653c0,5.983,4.836,10.836,10.813,10.865v0.003H420.7v0.007c2.205,0,4,1.794,4,4s-1.795,4-4,4v2
		c3.314,0,6-2.686,6-6C426.7-155.72,424.015-158.406,420.7-158.406z M406.667-188.376c3.091,0,5.76,1.773,7.091,4.345
		c-2.298,1.439-4.178,3.488-5.413,5.918c-0.241-0.016-0.48-0.036-0.725-0.036c-2.766,0-5.282,1.042-7.2,2.743
		c-1.092-1.367-1.753-3.09-1.753-4.971C398.667-184.787,402.256-188.376,406.667-188.376z"/>
	<path d="M424.7-162.406h-9.988v2h9.988c3.314,0,6-2.687,6-6c0-3.314-2.686-6-6-6v2c2.205,0,4,1.794,4,4
		S426.905-162.406,424.7-162.406z"/>
	<path d="M432.724-162.406H432.7v2h5.5v-0.051c2.523-0.254,4.5-2.358,4.5-4.949c0-2.762-2.238-5-5-5v2c1.654,0,3,1.346,3,3
		s-1.346,3-3,3c-0.043,0-0.083-0.011-0.126-0.013h-4.862C432.715-162.414,432.721-162.41,432.724-162.406z"/>
	<path d="M441.7-158.406h-13v2h9.022c-0.004,0.004-0.008,0.008-0.011,0.013h3.862c0.043-0.002,0.083-0.013,0.126-0.013
		c1.654,0,3,1.346,3,3s-1.346,3-3,3v2c2.762,0,5-2.238,5-5S444.462-158.406,441.7-158.406z"/>
	<rect x="408.7" y="-162.406" width="4" height="2"/>
</g>
<g>
	<path d="M520.662-160.412l0.005-0.007h-12.536l-0.594-0.003c-4.864-0.024-8.822-4.001-8.822-8.865c0-4.89,3.978-8.868,8.867-8.868
		c0.15,0,0.299,0.012,0.447,0.021l0.148,0.011l1.314,0.085l0.597-1.174c2.225-4.373,6.644-7.09,11.532-7.09
		c5.916,0,11.114,4.099,12.54,9.8h2.065c-1.444-6.742-7.433-11.8-14.605-11.8c-1.806,0-3.536,0.322-5.138,0.91
		c-0.938-5.123-5.4-9.01-10.794-9.01c-0.413,0-0.819,0.027-1.222,0.071c0.744,1.112,1.179,2.448,1.179,3.886c0,3.865-3.134,7-7,7
		c-1.438,0-2.773-0.435-3.886-1.179c-0.044,0.401-0.071,0.809-0.071,1.222c0,3.725,1.858,7.009,4.69,8.998
		c-1.655,1.907-2.665,4.392-2.665,7.116c0,5.983,4.836,10.836,10.813,10.865v0.003h13.135v0.007c2.205,0,4,1.794,4,4s-1.795,4-4,4v2
		c3.314,0,6-2.686,6-6C526.662-157.726,523.977-160.412,520.662-160.412z M496.866-183.621c0.582,0.117,1.178,0.177,1.78,0.177
		c4.963,0,9-4.037,9-9c0-0.603-0.06-1.198-0.177-1.78c3.744,0.755,6.646,3.842,7.138,7.674c-2.702,1.444-4.909,3.696-6.301,6.432
		c-0.241-0.016-0.48-0.036-0.725-0.036c-2.535,0-4.861,0.875-6.71,2.33C498.844-179.117,497.357-181.186,496.866-183.621z"/>
	<path d="M524.662-164.412h-9.988v2h9.988c3.314,0,6-2.687,6-6c0-3.314-2.686-6-6-6v2c2.205,0,4,1.794,4,4
		S526.867-164.412,524.662-164.412z"/>
	<path d="M532.686-164.412h-0.023v2h5.5v-0.051c2.523-0.254,4.5-2.358,4.5-4.949c0-2.762-2.238-5-5-5v2c1.654,0,3,1.346,3,3
		s-1.346,3-3,3c-0.043,0-0.083-0.011-0.126-0.013h-4.862C532.677-164.42,532.683-164.416,532.686-164.412z"/>
	<path d="M541.662-160.412h-13v2h9.022c-0.004,0.004-0.008,0.008-0.011,0.013h3.862c0.043-0.002,0.083-0.013,0.126-0.013
		c1.654,0,3,1.346,3,3s-1.346,3-3,3v2c2.762,0,5-2.238,5-5S544.424-160.412,541.662-160.412z"/>
	<rect x="508.662" y="-164.412" width="4" height="2"/>
</g>
<g>
	<rect x="621.555" y="-197.844" width="2" height="10"/>
	<rect x="596.562" y="-172.844" width="9.993" height="2"/>
	<rect x="636.255" y="-191.758" transform="matrix(0.7071 0.7071 -0.7071 0.7071 54.7344 -505.2471)" width="2" height="10.409"/>
	<rect x="602.646" y="-187.548" transform="matrix(0.7071 0.7071 -0.7071 0.7071 46.1256 -484.4537)" width="10.409" height="2"/>
	<path d="M626.555-157.844h-24v2h24c2.205,0,4,1.794,4,4s-1.795,4-4,4v2c3.314,0,6-2.686,6-6
		C632.555-155.157,629.869-157.844,626.555-157.844z"/>
	<path d="M638.578-161.844h-0.023v2h5.5v-0.051c2.523-0.254,4.5-2.358,4.5-4.949c0-2.762-2.238-5-5-5v2c1.654,0,3,1.346,3,3
		s-1.346,3-3,3c-0.043,0-0.083-0.011-0.126-0.013h-4.862C638.569-161.852,638.575-161.848,638.578-161.844z"/>
	<path d="M647.555-157.844h-13v2h9.022c-0.004,0.004-0.008,0.008-0.011,0.013h3.862c0.043-0.002,0.083-0.013,0.126-0.013
		c1.654,0,3,1.346,3,3s-1.346,3-3,3v2c2.762,0,5-2.238,5-5S650.316-157.844,647.555-157.844z"/>
	<path d="M614.264-161.844h-11.709v2h12.012h0.822h15.166c3.314,0,6-2.687,6-6c0-3.314-2.686-6-6-6v2c2.205,0,4,1.794,4,4
		s-1.795,4-4,4h-12.538c-3.802-1.734-6.455-5.563-6.455-10.007c0-6.064,4.935-10.999,11-10.999c5.384,0,9.868,3.891,10.81,9.006
		h2.021c-0.961-6.23-6.331-11.006-12.831-11.006c-7.18,0-13,5.819-13,12.999C609.562-167.825,611.392-164.229,614.264-161.844z"/>
</g>
<g>
	<path d="M726.781-164.4h-24v2h24c2.205,0,4,1.794,4,4s-1.795,4-4,4v2c3.314,0,6-2.686,6-6
		C732.781-161.714,730.096-164.4,726.781-164.4z"/>
	<path d="M744.281-166.4v-0.051c2.523-0.254,4.5-2.358,4.5-4.949c0-2.762-2.238-5-5-5v2c1.654,0,3,1.346,3,3s-1.346,3-3,3
		c-0.043,0-0.083-0.011-0.126-0.013h-4.862c0.004,0.005,0.009,0.009,0.012,0.013h-0.023v2H744.281z"/>
	<path d="M747.781-164.4h-13v2h9.022c-0.003,0.004-0.007,0.008-0.011,0.013h3.862c0.043-0.002,0.083-0.013,0.126-0.013
		c1.654,0,3,1.346,3,3s-1.346,3-3,3v2c2.762,0,5-2.238,5-5S750.543-164.4,747.781-164.4z"/>
	<path d="M715.615-166.4h15.166c3.314,0,6-2.687,6-6c0-3.314-2.686-6-6-6v2c2.205,0,4,1.794,4,4s-1.795,4-4,4h-12.586
		c-2.596-1.188-4.658-3.339-5.69-6.034c0.849,0.204,1.724,0.309,2.612,0.309c6.168,0,11.187-5.019,11.187-11.188
		c0-1.276-0.22-2.532-0.64-3.717c4.046,1.102,7.168,4.459,7.937,8.63h2.018c-0.964-6.237-6.338-11.016-12.846-11.016
		c-0.259,0-0.511,0.024-0.766,0.039c1.425,1.618,2.297,3.737,2.297,6.063c0,5.072-4.112,9.188-9.187,9.188
		c-1.988,0-3.826-0.641-5.33-1.715c0.162,3.801,1.962,7.165,4.699,9.44h-11.705v2h12.012H715.615z"/>
</g>
<g>
	<path d="M7-79.207h-20c-1.103,0-2-0.897-2-2s0.897-2,2-2h3.445H-9v-2h-4c-2.209,0-4,1.791-4,4s1.791,4,4,4H7c2.205,0,4,1.794,4,4
		s-1.795,4-4,4v2c3.314,0,6-2.686,6-6C13-76.521,10.314-79.207,7-79.207z"/>
	<path d="M9-95.207v2c2.205,0,4,1.794,4,4s-1.795,4-4,4H-6.988v2H9c3.314,0,6-2.687,6-6C15-92.521,12.314-95.207,9-95.207z"/>
	<path d="M15-83.207v2h5.5v-0.051c2.523-0.254,4.5-2.358,4.5-4.949c0-2.762-2.238-5-5-5v2c1.654,0,3,1.346,3,3s-1.346,3-3,3
		c-0.043,0-0.083-0.011-0.126-0.013h-4.862c0.003,0.005,0.009,0.009,0.012,0.013H15z"/>
	<path d="M26-79.207H15v2h7.022c-0.004,0.004-0.008,0.008-0.011,0.013h3.862c0.043-0.002,0.083-0.013,0.126-0.013
		c1.654,0,3,1.346,3,3s-1.346,3-3,3v2c2.762,0,5-2.238,5-5S28.762-79.207,26-79.207z"/>
</g>
<path d="M543.292-92.86v-0.038h-38.376c-1.103,0-2-0.897-2-2s0.897-2,2-2h33c2.762,0,5-2.238,5-5s-2.238-5-5-5h-37.875v0.008
	c-0.042-0.001-0.083-0.008-0.125-0.008c-2.762,0-5,2.238-5,5s2.238,5,5,5v-2c-1.654,0-3-1.346-3-3s1.346-3,3-3h0.125h3.853h34.022
	c1.654,0,3,1.346,3,3s-1.346,3-3,3h-33c-2.209,0-4,1.791-4,4s1.791,4,4,4h38c1.103,0,2,0.897,2,2s-0.897,2-2,2h-32
	c-2.209,0-4,1.791-4,4s1.791,4,4,4h22c1.103,0,2,0.897,2,2s-0.897,2-2,2h-24.01v0.001c-2.204,0.006-3.99,1.793-3.99,3.999
	s1.786,3.993,3.99,3.999v0.001h12.01c1.103,0,2,0.897,2,2s-0.897,2-2,2h-2c-2.209,0-4,1.791-4,4s1.791,4,4,4v-2
	c-1.103,0-2-0.897-2-2s0.897-2,2-2h2c2.209,0,4-1.791,4-4s-1.791-4-4-4h-12c-1.103,0-2-0.897-2-2s0.897-2,2-2h24
	c2.209,0,4-1.791,4-4c0-2.152-1.704-3.895-3.834-3.983v-0.017h-22.166c-1.103,0-2-0.897-2-2s0.897-2,2-2h32c2.209,0,4-1.791,4-4
	C546.916-90.979,545.322-92.668,543.292-92.86z"/>
<path d="M728.707-102.183v-2.024h-2v2.024c-13.01,0.513-23.462,10.965-23.975,23.976h1.674c1.14-1.222,2.748-2,4.551-2
	c2.26,0,4.233,1.203,5.331,3h1.838c1.098-1.797,3.071-3,5.331-3c2.204,0,4.137,1.144,5.25,2.866v15.134c0,2.21,1.791,4,4,4
	s4-1.79,4-4h-2c0,1.103-0.897,2-2,2s-2-0.897-2-2v-15.134c1.113-1.723,3.046-2.866,5.25-2.866c2.26,0,4.233,1.203,5.331,3h1.838
	c1.098-1.797,3.071-3,5.331-3c1.803,0,3.411,0.778,4.551,2h1.674C752.169-91.218,741.717-101.67,728.707-102.183z M746.457-82.207
	c-2.496,0-4.736,1.114-6.25,2.87c-1.514-1.756-3.754-2.87-6.25-2.87s-4.736,1.114-6.25,2.87c-1.514-1.756-3.754-2.87-6.25-2.87
	s-4.736,1.114-6.25,2.87c-1.514-1.756-3.755-2.87-6.25-2.87c-1.402,0-2.731,0.351-3.897,0.975
	c1.909-10.769,11.339-18.975,22.647-18.975s20.738,8.206,22.647,18.975C749.188-81.856,747.859-82.207,746.457-82.207z"/>
<g>
	<path d="M323.412,22.105V5c0-2.762-2.238-5-5-5s-5,2.238-5,5v17.105c-1.236,1.263-2,2.988-2,4.895c0,3.866,3.134,7,7,7s7-3.134,7-7
		C325.412,25.094,324.648,23.368,323.412,22.105z M318.412,32c-2.757,0-5-2.243-5-5c0-1.313,0.508-2.554,1.429-3.495l0.571-0.583
		v-0.816V5c0-1.654,1.346-3,3-3s3,1.346,3,3v17.105v0.816l0.571,0.583c0.921,0.941,1.429,2.183,1.429,3.495
		C323.412,29.757,321.169,32,318.412,32z"/>
	<path d="M319.412,24.176V9h-2v15.176c-1.167,0.413-2.008,1.516-2.008,2.824c0,1.662,1.347,3.008,3.008,3.008
		c1.662,0,3.008-1.346,3.008-3.008C321.42,25.691,320.58,24.589,319.412,24.176z M318.412,28.008c-0.556,0-1.008-0.452-1.008-1.008
		s0.452-1.008,1.008-1.008s1.008,0.452,1.008,1.008S318.968,28.008,318.412,28.008z"/>
</g>
<g>
	<path d="M423.2,22.105V5c0-2.762-2.238-5-5-5s-5,2.238-5,5v17.105c-1.236,1.263-2,2.988-2,4.895c0,3.866,3.134,7,7,7s7-3.134,7-7
		C425.2,25.094,424.437,23.368,423.2,22.105z M418.2,32c-2.757,0-5-2.243-5-5c0-1.313,0.508-2.554,1.429-3.495l0.571-0.583v-0.816V5
		c0-1.654,1.346-3,3-3s3,1.346,3,3v17.105v0.816l0.571,0.583c0.921,0.941,1.429,2.183,1.429,3.495C423.2,29.757,420.957,32,418.2,32
		z"/>
	<path d="M419.2,24.176V4h-2v20.176c-1.167,0.413-2.008,1.516-2.008,2.824c0,1.662,1.347,3.008,3.008,3.008
		c1.662,0,3.008-1.346,3.008-3.008C421.208,25.691,420.368,24.589,419.2,24.176z M418.2,28.008c-0.556,0-1.008-0.452-1.008-1.008
		s0.452-1.008,1.008-1.008s1.008,0.452,1.008,1.008S418.756,28.008,418.2,28.008z"/>
</g>
<g>
	<path d="M220.303,22.105V5c0-2.762-2.238-5-5-5s-5,2.238-5,5v17.105c-1.236,1.263-2,2.988-2,4.895c0,3.866,3.134,7,7,7s7-3.134,7-7
		C222.303,25.094,221.539,23.368,220.303,22.105z M215.303,32c-2.757,0-5-2.243-5-5c0-1.313,0.508-2.554,1.429-3.495l0.571-0.583
		v-0.816V5c0-1.654,1.346-3,3-3s3,1.346,3,3v17.105v0.816l0.571,0.583c0.921,0.941,1.429,2.183,1.429,3.495
		C220.303,29.757,218.06,32,215.303,32z"/>
	<path d="M216.303,24.176V14h-2v10.176c-1.167,0.413-2.008,1.516-2.008,2.824c0,1.662,1.347,3.008,3.008,3.008
		c1.662,0,3.008-1.346,3.008-3.008C218.311,25.691,217.471,24.589,216.303,24.176z M215.303,28.008
		c-0.556,0-1.008-0.452-1.008-1.008s0.452-1.008,1.008-1.008s1.008,0.452,1.008,1.008S215.858,28.008,215.303,28.008z"/>
</g>
<g>
	<path d="M116.657,22.105V5c0-2.762-2.238-5-5-5s-5,2.238-5,5v17.105c-1.236,1.263-2,2.988-2,4.895c0,3.866,3.134,7,7,7s7-3.134,7-7
		C118.657,25.094,117.894,23.368,116.657,22.105z M111.657,32c-2.757,0-5-2.243-5-5c0-1.313,0.508-2.554,1.429-3.495l0.571-0.583
		v-0.816V5c0-1.654,1.346-3,3-3s3,1.346,3,3v17.105v0.816l0.571,0.583c0.921,0.941,1.429,2.183,1.429,3.495
		C116.657,29.757,114.414,32,111.657,32z"/>
	<path d="M112.657,24.176V19h-2v5.176c-1.167,0.413-2.008,1.516-2.008,2.824c0,1.662,1.347,3.008,3.008,3.008
		c1.662,0,3.008-1.346,3.008-3.008C114.665,25.691,113.825,24.589,112.657,24.176z M111.657,28.008
		c-0.556,0-1.008-0.452-1.008-1.008s0.452-1.008,1.008-1.008s1.008,0.452,1.008,1.008S112.213,28.008,111.657,28.008z"/>
</g>
<g>
	<path d="M12,22.105V5c0-2.762-2.238-5-5-5S2,2.238,2,5v17.105C0.764,23.368,0,25.094,0,27c0,3.866,3.134,7,7,7s7-3.134,7-7
		C14,25.094,13.236,23.368,12,22.105z M7,32c-2.757,0-5-2.243-5-5c0-1.313,0.508-2.554,1.429-3.495L4,22.922v-0.816V5
		c0-1.654,1.346-3,3-3s3,1.346,3,3v17.105v0.816l0.571,0.583C11.492,24.446,12,25.688,12,27C12,29.757,9.757,32,7,32z"/>
	<path d="M7,23.992c-1.661,0-3.008,1.347-3.008,3.008c0,1.662,1.347,3.008,3.008,3.008c1.662,0,3.008-1.346,3.008-3.008
		C10.008,25.339,8.662,23.992,7,23.992z M7,28.008c-0.556,0-1.008-0.452-1.008-1.008S6.444,25.992,7,25.992S8.008,26.444,8.008,27
		S7.556,28.008,7,28.008z"/>
</g>
<g>
	<path d="M511.925,2.313c-2.209,0-4,1.791-4,4c0,2.21,1.791,4,4,4c2.211,0,4-1.79,4-4C515.925,4.104,514.136,2.313,511.925,2.313z
		 M511.925,8.313c-1.103,0-2-0.897-2-2s0.897-2,2-2s2,0.897,2,2S513.027,8.313,511.925,8.313z"/>
	<path d="M525.925,30.313c-4.41,0-7.999-3.589-7.999-7.999v-4.002c0-4.41,3.589-7.999,7.999-7.999c2.715,0,5.115,1.362,6.563,3.437
		l1.43-1.43c-1.824-2.429-4.72-4.007-7.992-4.007c-5.522,0-9.999,4.478-9.999,9.999v4.002c0,5.521,4.477,9.999,9.999,9.999
		c3.272,0,6.168-1.579,7.992-4.008l-1.43-1.43C531.041,28.949,528.641,30.313,525.925,30.313z"/>
</g>
<g>
	<path d="M616.621,2.191c-2.209,0-4,1.791-4,4c0,2.21,1.791,4,4,4c2.211,0,4-1.79,4-4C620.621,3.982,618.832,2.191,616.621,2.191z
		 M616.621,8.191c-1.103,0-2-0.897-2-2s0.897-2,2-2s2,0.897,2,2S617.724,8.191,616.621,8.191z"/>
	<polygon points="636.496,10.313 636.496,8.313 624.496,8.313 622.496,8.313 622.496,32.313 624.496,32.313 624.496,20.313 
		632.496,20.313 632.496,18.313 624.496,18.313 624.496,10.313 	"/>
</g>
<g>
	<path d="M727.707,6.004c-7.179,0-13,5.82-13,13s5.821,13,13,13s13-5.82,13-13S734.886,6.004,727.707,6.004z M727.707,30.004
		c-6.065,0-11-4.935-11-11s4.935-11,11-11s11,4.935,11,11S733.772,30.004,727.707,30.004z"/>
	<path d="M723.44,23.246l6.363-2.121l2.121-6.364l-6.363,2.122L723.44,23.246z M727.143,18.464l1.62-0.54l-0.54,1.62l-1.62,0.54
		L727.143,18.464z"/>
</g>
<g>
	<path d="M7,96.521c-7.179,0-13,5.82-13,13s5.821,13,13,13s13-5.82,13-13S14.179,96.521,7,96.521z M7,120.521
		c-6.065,0-11-4.934-11-11c0-6.064,4.935-11,11-11s11,4.936,11,11C18,115.588,13.065,120.521,7,120.521z"/>
	<path d="M9.562,107.943l-2.586-4.422l-2.529,4.33h0.007c-0.299,0.467-0.478,1.018-0.478,1.613c0,1.656,1.343,3,3,3s3-1.344,3-3
		c0-0.559-0.162-1.074-0.428-1.521H9.562z M6.976,110.465c-0.552,0-1-0.449-1-1c0-0.188,0.055-0.367,0.162-0.535l0.864-1.355
		l0.826,1.391c0.098,0.164,0.147,0.332,0.147,0.5C7.976,110.016,7.527,110.465,6.976,110.465z"/>
</g>
<g>
	<path d="M111.784,96.521c-7.18,0-13,5.82-13,13s5.82,13,13,13s13-5.82,13-13S118.964,96.521,111.784,96.521z M111.784,120.521
		c-6.065,0-11-4.934-11-11c0-6.064,4.935-11,11-11s11,4.936,11,11C122.784,115.588,117.85,120.521,111.784,120.521z"/>
	<path d="M113.373,106.941c-0.467-0.299-1.018-0.477-1.613-0.477c-1.658,0-3,1.342-3,3c0,1.656,1.342,3,3,3
		c0.557,0,1.072-0.162,1.52-0.428v0.014l4.422-2.586l-4.328-2.529V106.941z M112.258,110.316c-0.164,0.098-0.332,0.148-0.498,0.148
		c-0.552,0-1-0.449-1-1c0-0.553,0.448-1,1-1c0.188,0,0.368,0.053,0.535,0.16l1.355,0.865L112.258,110.316z"/>
</g>
<g>
	<path d="M214.835,96.521c-7.18,0-13,5.82-13,13s5.82,13,13,13s13-5.82,13-13S222.015,96.521,214.835,96.521z M214.835,120.521
		c-6.065,0-11-4.934-11-11c0-6.064,4.935-11,11-11s11,4.936,11,11C225.835,115.588,220.9,120.521,214.835,120.521z"/>
	<path d="M214.835,106.465c-1.656,0-3,1.342-3,3c0,0.557,0.162,1.072,0.428,1.52h-0.014l2.586,4.422l2.529-4.328h-0.006
		c0.299-0.467,0.477-1.018,0.477-1.613C217.835,107.807,216.493,106.465,214.835,106.465z M215.674,110l-0.865,1.355l-0.826-1.393
		c-0.098-0.164-0.147-0.332-0.147-0.498c0-0.553,0.448-1,1-1s1,0.447,1,1C215.835,109.652,215.781,109.832,215.674,110z"/>
</g>
<g>
	<path d="M318.249,96.521c-7.179,0-13,5.82-13,13s5.821,13,13,13s13-5.82,13-13S325.428,96.521,318.249,96.521z M318.249,120.521
		c-6.065,0-11-4.934-11-11c0-6.064,4.935-11,11-11s11,4.936,11,11C329.249,115.588,324.314,120.521,318.249,120.521z"/>
	<path d="M318.208,106.465c-0.557,0-1.072,0.162-1.52,0.428v-0.014l-4.422,2.586l4.328,2.529v-0.006
		c0.467,0.299,1.018,0.477,1.613,0.477c1.658,0,3-1.342,3-3C321.208,107.809,319.866,106.465,318.208,106.465z M318.208,110.465
		c-0.188,0-0.368-0.055-0.535-0.162l-1.355-0.865l1.393-0.826c0.164-0.098,0.332-0.146,0.498-0.146c0.552,0,1,0.447,1,1
		C319.208,110.016,318.76,110.465,318.208,110.465z"/>
</g>
<g>
	<rect x="110.098" y="-100.207" width="2" height="10"/>
	<rect x="124.797" y="-94.121" transform="matrix(0.7071 0.7071 -0.7071 0.7071 -26.0283 -114.9952)" width="2" height="10.409"/>
	<rect x="91.189" y="-89.912" transform="matrix(0.7071 0.7071 -0.7071 0.7071 -34.6371 -94.2018)" width="10.409" height="2"/>
	<polygon points="104.43,-70.953 105.844,-69.539 110.098,-73.793 110.098,-64.207 112.098,-64.207 112.098,-73.793 
		116.351,-69.539 117.765,-70.953 111.098,-77.621 	"/>
	<path d="M124.104-74.208c0-0.002,0-0.004,0-0.006c0-7.18-5.82-12.999-13-12.999s-13,5.819-13,12.999c0,0.002,0,0.004,0,0.006h-13v2
		h18v-2h-3c0-0.002,0-0.004,0-0.006c0-6.064,4.935-10.999,11-10.999s11,4.935,11,10.999c0,0.002,0,0.004,0,0.006h-3v2H137.1v-2
		H124.104z"/>
</g>
<g>
	<rect x="213.843" y="-101.395" width="2" height="10"/>
	<rect x="228.543" y="-95.309" transform="matrix(0.7071 0.7071 -0.7071 0.7071 3.5183 -188.7019)" width="2" height="10.409"/>
	<rect x="194.934" y="-91.099" transform="matrix(0.7071 0.7071 -0.7071 0.7071 -5.0906 -167.9085)" width="10.409" height="2"/>
	<polygon points="215.843,-66.848 215.843,-77.395 213.843,-77.395 213.843,-66.848 209.589,-71.102 208.175,-69.688 
		214.843,-63.02 221.51,-69.688 220.096,-71.102 	"/>
	<path d="M227.85-75.396c0-0.002,0-0.004,0-0.006c0-7.18-5.82-12.999-13-12.999s-13,5.819-13,12.999c0,0.002,0,0.004,0,0.006h-13v2
		h22v-2h-7c0-0.002,0-0.004,0-0.006c0-6.064,4.935-10.999,11-10.999s11,4.935,11,10.999c0,0.002,0,0.004,0,0.006h-7v2h21.995v-2
		H227.85z"/>
</g>
<g>
	<polygon points="418.2,-67.382 418.2,-81.765 416.2,-81.765 416.2,-67.382 411.946,-71.636 410.532,-70.222 417.2,-63.554 
		423.867,-70.222 422.453,-71.636 	"/>
	<path d="M433.828-86.735c-1.596-7.445-8.207-13.029-16.127-13.029c-6.423,0-11.977,3.678-14.702,9.035
		c-0.266-0.018-0.53-0.04-0.8-0.04c-6.627,0-11.999,5.372-11.999,12c0,6.607,5.34,11.965,11.938,11.998v0.003h6.062v-2h-5.604
		l-0.447-0.003c-5.485-0.027-9.948-4.513-9.948-9.998c0-5.514,4.485-10,9.999-10c0.175,0,0.347,0.014,0.52,0.025l0.148,0.01
		l1.316,0.088l0.598-1.176c2.492-4.899,7.443-7.942,12.92-7.942c6.79,0,12.75,4.814,14.172,11.448l0.317,1.482l1.514,0.095
		c4.203,0.262,7.496,3.763,7.496,7.971c0,4.397-3.565,7.977-7.957,8c-0.05-0.003-0.093-0.005-0.137-0.007l-2.043,0.007H426.2v2
		h6.863v-0.007c0.046,0.001,0.091,0.007,0.137,0.007c5.521,0,10-4.477,10-10C443.2-82.079,439.056-86.41,433.828-86.735z"/>
</g>
<g>
	<polygon points="324.185,-70.577 325.599,-71.991 318.932,-78.659 312.264,-71.991 313.678,-70.577 317.932,-74.831 
		317.932,-62.245 319.932,-62.245 319.932,-74.831 	"/>
	<path d="M335.56-85.14c-1.596-7.445-8.207-13.029-16.127-13.029c-6.423,0-11.977,3.678-14.702,9.035
		c-0.266-0.018-0.53-0.04-0.8-0.04c-6.627,0-11.999,5.372-11.999,12c0,6.607,5.34,11.965,11.938,11.998v0.003h10.062v-2h-9.604
		l-0.447-0.003c-5.485-0.027-9.948-4.513-9.948-9.998c0-5.514,4.485-10,9.999-10c0.175,0,0.347,0.014,0.52,0.025l0.148,0.01
		l1.316,0.088l0.598-1.176c2.492-4.899,7.443-7.942,12.92-7.942c6.79,0,12.75,4.814,14.172,11.448l0.317,1.482l1.514,0.095
		c4.203,0.262,7.496,3.763,7.496,7.971c0,4.397-3.565,7.977-7.957,8c-0.05-0.003-0.093-0.005-0.137-0.007l-2.043,0.007h-8.863v2
		h10.863v-0.007c0.046,0.001,0.091,0.007,0.137,0.007c5.521,0,10-4.477,10-10C344.932-80.483,340.787-84.814,335.56-85.14z"/>
</g>
<g>
	<path d="M538.049-274.655c-1.596-7.445-8.207-13.029-16.127-13.029c-6.423,0-11.977,3.678-14.702,9.035
		c-0.266-0.018-0.53-0.04-0.8-0.04c-6.627,0-11.999,5.372-11.999,12c0,6.607,5.34,11.965,11.938,11.998v0.003h2.062v-2h-1.604
		l-0.447-0.003c-5.485-0.027-9.948-4.513-9.948-9.998c0-5.514,4.485-10,9.999-10c0.175,0,0.347,0.014,0.52,0.025l0.148,0.01
		l1.316,0.088l0.598-1.176c2.492-4.899,7.443-7.942,12.92-7.942c6.79,0,12.75,4.814,14.172,11.448l0.317,1.482l1.514,0.095
		c4.203,0.262,7.496,3.763,7.496,7.971c0,4.397-3.565,7.977-7.957,8c-0.05-0.003-0.093-0.005-0.137-0.007l-2.043,0.007h-0.863v2
		h2.863v-0.007c0.046,0.001,0.091,0.007,0.137,0.007c5.521,0,10-4.477,10-10C547.421-269.999,543.276-274.33,538.049-274.655z"/>
	<polygon points="516.421,-255.667 516.421,-258.297 518.594,-257.074 519.279,-258.295 516.81,-259.685 519.279,-261.074 
		518.594,-262.295 516.421,-261.072 516.421,-263.667 514.421,-263.667 514.421,-261.028 512.17,-262.295 511.484,-261.074 
		513.954,-259.685 511.484,-258.295 512.17,-257.074 514.421,-258.341 514.421,-255.667 	"/>
	<polygon points="521.583,-251.313 519.41,-250.09 519.41,-252.685 517.41,-252.685 517.41,-250.046 515.159,-251.313 
		514.474,-250.092 516.943,-248.702 514.474,-247.313 515.159,-246.092 517.41,-247.358 517.41,-244.685 519.41,-244.685 
		519.41,-247.314 521.583,-246.092 522.269,-247.313 519.799,-248.702 522.269,-250.092 	"/>
	<polygon points="530.599,-258.295 528.426,-257.072 528.426,-259.667 526.426,-259.667 526.426,-257.028 524.175,-258.295 
		523.489,-257.074 525.959,-255.685 523.489,-254.295 524.175,-253.074 526.426,-254.341 526.426,-251.667 528.426,-251.667 
		528.426,-254.297 530.599,-253.074 531.284,-254.295 528.814,-255.685 531.284,-257.074 	"/>
</g>
<g>
	<rect x="613.561" y="-292.707" width="2" height="7.973"/>
	<rect x="594.561" y="-273.793" width="7.973" height="2"/>
	<rect x="599.234" y="-285.059" transform="matrix(0.7071 0.7071 -0.7071 0.7071 -24.1812 -509.7406)" width="7.974" height="2"/>
	<rect x="624.742" y="-288.041" transform="matrix(0.7071 0.7071 -0.7071 0.7071 -17.582 -525.6645)" width="2" height="7.972"/>
	<path d="M644.072-266.917c-1.444-6.742-7.433-11.8-14.605-11.8c-2.185,0-4.258,0.471-6.127,1.314
		c-1.666-3.203-5.006-5.395-8.865-5.395c-5.522,0-10,4.477-10,9.999c0,2.46,0.899,4.702,2.373,6.442
		c-1.428,1.84-2.287,4.144-2.287,6.653c0,5.983,4.836,10.836,10.813,10.865v0.003h1.188v-2h-0.721l-0.457-0.003
		c-4.864-0.023-8.822-4.001-8.822-8.865c0-4.89,3.978-8.868,8.867-8.868c0.15,0,0.299,0.012,0.447,0.022l0.148,0.01l1.314,0.085
		l0.597-1.175c2.225-4.372,6.644-7.089,11.532-7.089c6.062,0,11.382,4.298,12.649,10.219l0.318,1.483l1.514,0.094
		c3.708,0.23,6.612,3.319,6.612,7.03c0,3.878-3.144,7.035-7.017,7.057c-0.042-0.003-0.079-0.005-0.117-0.005l-1.866,0.005v2h1.819
		v-0.006c0.042,0.001,0.082,0.006,0.124,0.006c5.001,0,9.057-4.054,9.057-9.057C652.561-262.7,648.807-266.622,644.072-266.917z
		 M616.152-270.534c-0.241-0.016-0.48-0.036-0.725-0.036c-2.766,0-5.282,1.041-7.2,2.742c-1.092-1.365-1.753-3.089-1.753-4.97
		c0-4.41,3.589-7.999,8-7.999c3.092,0,5.76,1.773,7.091,4.346C619.268-275.012,617.389-272.964,616.152-270.534z"/>
	<polygon points="623.553,-249.814 623.553,-252.444 625.726,-251.222 626.411,-252.442 623.941,-253.832 626.411,-255.222 
		625.726,-256.442 623.553,-255.22 623.553,-257.814 621.553,-257.814 621.553,-255.176 619.302,-256.442 618.616,-255.222 
		621.086,-253.832 618.616,-252.442 619.302,-251.222 621.553,-252.488 621.553,-249.814 	"/>
	<polygon points="628.715,-245.46 626.542,-244.237 626.542,-246.832 624.542,-246.832 624.542,-244.193 622.291,-245.46 
		621.605,-244.239 624.075,-242.85 621.605,-241.46 622.291,-240.239 624.542,-241.506 624.542,-238.832 626.542,-238.832 
		626.542,-241.462 628.715,-240.239 629.4,-241.46 626.931,-242.85 629.4,-244.239 	"/>
	<polygon points="637.73,-252.442 635.558,-251.22 635.558,-253.814 633.558,-253.814 633.558,-251.176 631.307,-252.442 
		630.621,-251.222 633.091,-249.832 630.621,-248.442 631.307,-247.222 633.558,-248.488 633.558,-245.814 635.558,-245.814 
		635.558,-248.444 637.73,-247.222 638.416,-248.442 635.946,-249.832 638.416,-251.222 	"/>
</g>
<g>
	<path d="M744.261-269.92c-1.444-6.742-7.433-11.8-14.605-11.8c-1.799,0-3.522,0.32-5.118,0.904
		c-0.949-5.108-5.404-8.98-10.788-8.98c-0.413,0-0.819,0.027-1.222,0.071c0.744,1.112,1.179,2.448,1.179,3.886c0,3.865-3.134,7-7,7
		c-1.438,0-2.773-0.435-3.886-1.179c-0.044,0.401-0.071,0.809-0.071,1.222c0,3.713,1.845,6.987,4.661,8.979
		c-1.653,1.907-2.661,4.389-2.661,7.111c0,5.983,4.836,10.836,10.813,10.865v0.003h1.188v-2h-0.721l-0.457-0.003
		c-4.864-0.023-8.822-4.001-8.822-8.865c0-4.89,3.978-8.868,8.867-8.868c0.15,0,0.299,0.012,0.447,0.022l0.148,0.01l1.314,0.085
		l0.597-1.175c2.225-4.372,6.644-7.089,11.532-7.089c6.062,0,11.382,4.298,12.649,10.219l0.318,1.483l1.514,0.094
		c3.708,0.23,6.612,3.319,6.612,7.03c0,3.878-3.144,7.035-7.017,7.057c-0.042-0.003-0.079-0.005-0.117-0.005l-1.866,0.005v2h1.819
		v-0.006c0.042,0.001,0.082,0.006,0.124,0.006c5.001,0,9.057-4.054,9.057-9.057C752.749-265.703,748.995-269.625,744.261-269.92z
		 M716.341-273.537c-0.241-0.016-0.48-0.036-0.725-0.036c-2.537,0-4.865,0.877-6.715,2.334c-2.012-1.294-3.486-3.354-3.976-5.776
		c0.582,0.117,1.178,0.177,1.78,0.177c4.963,0,9-4.037,9-9c0-0.603-0.06-1.198-0.177-1.78c3.733,0.753,6.629,3.824,7.134,7.64
		C719.95-278.535,717.735-276.28,716.341-273.537z"/>
	<polygon points="723.786,-252.817 723.786,-255.447 725.959,-254.225 726.645,-255.445 724.175,-256.835 726.645,-258.225 
		725.959,-259.445 723.786,-258.223 723.786,-260.817 721.786,-260.817 721.786,-258.179 719.535,-259.445 718.85,-258.225 
		721.319,-256.835 718.85,-255.445 719.535,-254.225 721.786,-255.491 721.786,-252.817 	"/>
	<polygon points="728.948,-248.463 726.775,-247.24 726.775,-249.835 724.775,-249.835 724.775,-247.196 722.524,-248.463 
		721.839,-247.242 724.309,-245.853 721.839,-244.463 722.524,-243.242 724.775,-244.509 724.775,-241.835 726.775,-241.835 
		726.775,-244.465 728.948,-243.242 729.634,-244.463 727.164,-245.853 729.634,-247.242 	"/>
	<polygon points="737.964,-255.445 735.791,-254.223 735.791,-256.817 733.791,-256.817 733.791,-254.179 731.54,-255.445 
		730.854,-254.225 733.324,-252.835 730.854,-251.445 731.54,-250.225 733.791,-251.491 733.791,-248.817 735.791,-248.817 
		735.791,-251.447 737.964,-250.225 738.649,-251.445 736.18,-252.835 738.649,-254.225 	"/>
</g>
<rect x="127.902" y="-837.67" fill="none" width="472.974" height="180.918"/>
<text transform="matrix(1 0 0 1 307.5396 -766.271)"><tspan x="0" y="0" font-family="'HelveticaNeueLTStd-Th'" font-size="100" letter-spacing="2">60</tspan><tspan x="-99.268" y="60" font-family="'HelveticaNeueLTStd-Lt'" font-size="48" letter-spacing="1">Weather Icons</tspan><tspan x="-3.726" y="104" font-family="'HelveticaNeueLTStd-Lt'" font-size="24">IOS 7 Style</tspan></text>
</svg>
