<?xml version="1.0" encoding="utf-8"?>
<!-- Generator: Adobe Illustrator 16.0.0, SVG Export Plug-In . SVG Version: 6.00 Build 0)  -->
<!DOCTYPE svg PUBLIC "-//W3C//DTD SVG 1.1//EN" "http://www.w3.org/Graphics/SVG/1.1/DTD/svg11.dtd">
<svg version="1.1" id="Layer_1" xmlns="http://www.w3.org/2000/svg" xmlns:xlink="http://www.w3.org/1999/xlink" x="0px" y="0px"
	 width="49.949px" height="46px" viewBox="0 0 49.949 46" enable-background="new 0 0 49.949 46" xml:space="preserve">
<path d="M-74.361,5.702l-1.803,15.077l-0.268,2.237h2.254h6.896l-14.693,18.759l1.789-14.52l0.277-2.245h-2.262h-6.957
	L-74.361,5.702 M-71.507-1.322l-21.667,28.333h11.004l-2.671,21.667l21.667-27.661h-11.004L-71.507-1.322L-71.507-1.322z"/>
<path d="M-487.396-456.559c6.79,0,12.749,4.814,14.171,11.448l0.318,1.483l1.514,0.094c4.203,0.262,7.496,3.763,7.496,7.971
	c0,4.396-3.565,7.977-7.957,8c-0.046-0.003-0.091-0.006-0.137-0.007l-2.043-0.036v0.043h-28.337l-0.578-0.003
	c-5.485-0.027-9.948-4.513-9.948-9.998c0-5.514,4.485-10,9.999-10c0.175,0,0.347,0.014,0.519,0.025l0.149,0.011l1.316,0.087
	l0.598-1.176C-497.823-453.516-492.873-456.559-487.396-456.559 M-487.396-458.559c-6.423,0-11.977,3.678-14.702,9.035
	c-0.266-0.018-0.53-0.04-0.8-0.04c-6.627,0-11.999,5.372-11.999,12c0,6.607,5.34,11.965,11.938,11.998v0.003h30.925v-0.007
	c0.046,0.001,0.091,0.007,0.137,0.007c5.521,0,10-4.477,10-10c0-5.311-4.145-9.642-9.372-9.967
	C-472.865-452.975-479.477-458.559-487.396-458.559L-487.396-458.559z"/>
<g>
	<path d="M-364.445-438.147c-1.444-6.742-7.433-11.8-14.605-11.8c-2.185,0-4.258,0.47-6.127,1.313
		c-1.666-3.202-5.006-5.394-8.865-5.394c-5.522,0-10,4.477-10,9.999c0,2.46,0.898,4.702,2.373,6.442
		c-1.428,1.84-2.287,4.144-2.287,6.653c0,5.983,4.836,10.836,10.813,10.865v0.003h28.007v-0.006
		c0.042,0.001,0.082,0.006,0.124,0.006c5.001,0,9.057-4.054,9.057-9.057C-355.957-433.931-359.711-437.853-364.445-438.147z
		 M-394.043-452.027c3.092,0,5.76,1.773,7.092,4.345c-2.299,1.44-4.178,3.488-5.414,5.918c-0.241-0.016-0.48-0.036-0.725-0.036
		c-2.766,0-5.281,1.041-7.2,2.743c-1.092-1.366-1.753-3.09-1.753-4.971C-402.043-448.438-398.454-452.027-394.043-452.027z
		 M-364.974-422.064c-0.038-0.003-0.077-0.004-0.117-0.005l-2.047-0.042v0.047h-25.403l-0.594-0.003
		c-4.864-0.023-8.822-4.001-8.822-8.865c0-4.89,3.978-8.868,8.867-8.868c0.15,0,0.299,0.012,0.447,0.021l0.148,0.011l1.314,0.085
		l0.598-1.174c2.224-4.373,6.643-7.09,11.531-7.09c6.062,0,11.381,4.298,12.65,10.219l0.317,1.482l1.514,0.095
		c3.708,0.231,6.612,3.319,6.612,7.03C-357.957-425.243-361.101-422.087-364.974-422.064z"/>
	<rect x="-395.037" y="-464.058" width="2" height="7.973"/>
	<rect x="-414.01" y="-445.071" width="7.973" height="2"/>
	<rect x="-409.284" y="-456.29" transform="matrix(0.7071 0.7071 -0.7071 0.7071 -440.6474 153.2368)" width="7.974" height="2"/>
	<rect x="-383.775" y="-459.272" transform="matrix(0.7071 0.7071 -0.7071 0.7071 -434.0482 137.3129)" width="2" height="7.972"/>
</g>
<path d="M-268.702-442.175c-1.444-6.742-7.433-11.8-14.605-11.8c-1.799,0-3.521,0.32-5.118,0.904
	c-0.949-5.108-5.404-8.98-10.788-8.98c-0.413,0-0.819,0.027-1.222,0.071c0.744,1.112,1.179,2.448,1.179,3.886c0,3.865-3.134,7-7,7
	c-1.438,0-2.773-0.435-3.886-1.179c-0.044,0.401-0.071,0.809-0.071,1.222c0,3.712,1.845,6.987,4.661,8.979
	c-1.653,1.907-2.661,4.389-2.661,7.111c0,5.983,4.836,10.836,10.813,10.865v0.003h28.007v-0.006
	c0.042,0.001,0.082,0.006,0.124,0.006c5.001,0,9.057-4.054,9.057-9.057C-260.214-437.958-263.968-441.88-268.702-442.175z
	 M-308.037-449.271c0.582,0.117,1.178,0.177,1.78,0.177c4.963,0,9-4.037,9-9c0-0.603-0.06-1.198-0.177-1.78
	c3.733,0.753,6.629,3.824,7.134,7.64c-2.713,1.444-4.928,3.699-6.322,6.442c-0.241-0.016-0.48-0.036-0.725-0.036
	c-2.537,0-4.865,0.876-6.715,2.334C-306.073-444.788-307.548-446.848-308.037-449.271z M-269.23-426.092
	c-0.038-0.003-0.077-0.004-0.117-0.005l-2.047-0.042v0.047h-25.403l-0.594-0.003c-4.864-0.023-8.822-4.001-8.822-8.865
	c0-4.89,3.978-8.868,8.867-8.868c0.15,0,0.299,0.012,0.447,0.021l0.148,0.011l1.314,0.085l0.598-1.174
	c2.224-4.373,6.643-7.09,11.531-7.09c6.062,0,11.381,4.298,12.65,10.219l0.317,1.482l1.514,0.095
	c3.708,0.231,6.612,3.319,6.612,7.03C-262.214-429.271-265.357-426.114-269.23-426.092z"/>
<g>
	<rect x="-184.057" y="-433.552" width="2" height="7"/>
	<rect x="-176.057" y="-437.552" width="2" height="7"/>
	<rect x="-192.057" y="-437.552" width="2" height="7"/>
	<rect x="-184.057" y="-423.552" width="2" height="7"/>
	<rect x="-176.057" y="-427.552" width="2" height="7"/>
	<rect x="-192.057" y="-427.552" width="2" height="7"/>
	<path d="M-165.429-450.54c-1.596-7.445-8.207-13.029-16.127-13.029c-6.423,0-11.977,3.678-14.702,9.035
		c-0.266-0.018-0.53-0.04-0.8-0.04c-6.627,0-11.999,5.372-11.999,12c0,6.607,5.34,11.965,11.938,11.998v0.003h2.062v-2h-1.604
		l-0.447-0.003c-5.485-0.027-9.948-4.513-9.948-9.998c0-5.514,4.485-10,9.999-10c0.175,0,0.347,0.014,0.52,0.025l0.148,0.01
		l1.316,0.088l0.598-1.176c2.492-4.899,7.443-7.942,12.92-7.942c6.79,0,12.75,4.814,14.172,11.448l0.317,1.482l1.514,0.095
		c4.203,0.262,7.496,3.763,7.496,7.971c0,4.397-3.565,7.977-7.957,8c-0.05-0.003-0.093-0.005-0.137-0.007l-2.043,0.007h-2.863v2
		h4.863v-0.007c0.046,0.001,0.091,0.007,0.137,0.007c5.521,0,10-4.477,10-10C-156.057-445.884-160.201-450.215-165.429-450.54z"/>
</g>
<g>
	<path d="M-367.855-361.183c-1.596-7.445-8.207-13.029-16.127-13.029c-6.423,0-11.977,3.678-14.702,9.035
		c-0.266-0.018-0.53-0.04-0.8-0.04c-6.627,0-11.999,5.372-11.999,12c0,6.607,5.34,11.965,11.938,11.998v0.003h2.062v-2h-1.604
		l-0.447-0.003c-5.485-0.027-9.948-4.513-9.948-9.998c0-5.514,4.485-10,9.999-10c0.175,0,0.347,0.014,0.52,0.025l0.148,0.01
		l1.316,0.088l0.598-1.176c2.492-4.899,7.443-7.942,12.92-7.942c6.79,0,12.75,4.814,14.172,11.448l0.317,1.482l1.514,0.095
		c4.203,0.262,7.496,3.763,7.496,7.971c0,4.397-3.565,7.977-7.957,8c-0.05-0.003-0.093-0.005-0.137-0.007l-2.043,0.007h-2.863v2
		h4.863v-0.007c0.046,0.001,0.091,0.007,0.137,0.007c5.521,0,10-4.477,10-10C-358.483-356.526-362.628-360.857-367.855-361.183z"/>
	<polygon points="-386.483,-334.188 -386.483,-332.247 -386.483,-326.188 -384.483,-326.188 -384.483,-332.247 -384.483,-334.188 
		-384.483,-346.188 -386.483,-346.188 	"/>
	<polygon points="-378.483,-338.188 -378.483,-336.435 -378.483,-330.188 -376.483,-330.188 -376.483,-336.435 -376.483,-338.188 
		-376.483,-350.188 -378.483,-350.188 	"/>
	<polygon points="-394.483,-338.188 -394.483,-336.122 -394.483,-330.188 -392.483,-330.188 -392.483,-336.122 -392.483,-338.188 
		-392.483,-350.188 -394.483,-350.188 	"/>
</g>
<g>
	<polygon points="-72.206,-337.276 -79.089,-347.106 -80.727,-345.959 -73.844,-336.129 -72.731,-334.54 -69.256,-329.576 
		-67.617,-330.723 -71.093,-335.688 	"/>
	<polygon points="-64.204,-337.278 -71.089,-347.106 -72.727,-345.958 -65.841,-336.13 -64.836,-334.694 -61.252,-329.579 
		-59.613,-330.726 -63.197,-335.842 	"/>
	<polygon points="-80.206,-337.276 -87.089,-347.106 -88.727,-345.958 -81.844,-336.129 -80.659,-334.437 -77.255,-329.575 
		-75.617,-330.723 -79.021,-335.584 	"/>
	<path d="M-61.099-360.916c-1.596-7.445-8.207-13.029-16.127-13.029c-6.423,0-11.977,3.678-14.702,9.035
		c-0.266-0.018-0.53-0.04-0.8-0.04c-6.627,0-11.999,5.372-11.999,12c0,6.607,5.34,11.965,11.938,11.998v0.003h2.062v-2h-1.604
		l-0.447-0.003c-5.485-0.027-9.948-4.513-9.948-9.998c0-5.514,4.485-10,9.999-10c0.175,0,0.347,0.014,0.52,0.025l0.148,0.01
		l1.316,0.088l0.598-1.176c2.492-4.899,7.443-7.942,12.92-7.942c6.79,0,12.75,4.814,14.172,11.448l0.317,1.482l1.514,0.095
		c4.203,0.262,7.496,3.763,7.496,7.971c0,4.397-3.565,7.977-7.957,8c-0.05-0.003-0.093-0.005-0.137-0.007l-1.043,0.007h0.137v2
		h0.863v-0.007c0.046,0.001,0.091,0.007,0.137,0.007c5.521,0,10-4.477,10-10C-51.727-356.26-55.871-360.591-61.099-360.916z"/>
</g>
<g>
	<rect x="-89.4" y="-469.998" width="2" height="7.973"/>
	<rect x="-108.4" y="-451.084" width="7.973" height="2"/>
	<rect x="-103.727" y="-462.35" transform="matrix(0.7071 0.7071 -0.7071 0.7071 -355.4374 -64.5995)" width="7.974" height="2"/>
	<rect x="-78.219" y="-465.332" transform="matrix(0.7071 0.7071 -0.7071 0.7071 -348.8382 -80.5234)" width="2" height="7.972"/>
	<rect x="-75.4" y="-429.125" width="2" height="7"/>
	<rect x="-67.4" y="-433.125" width="2" height="7"/>
	<rect x="-83.4" y="-433.125" width="2" height="7"/>
	<rect x="-75.4" y="-419.125" width="2" height="7"/>
	<rect x="-67.4" y="-423.125" width="2" height="7"/>
	<rect x="-83.4" y="-423.125" width="2" height="7"/>
	<path d="M-58.889-444.208c-1.444-6.742-7.433-11.8-14.605-11.8c-2.185,0-4.258,0.47-6.126,1.313
		c-1.667-3.202-5.007-5.394-8.866-5.394c-5.522,0-10,4.477-10,9.999c0,2.46,0.899,4.702,2.373,6.442
		c-1.429,1.84-2.287,4.144-2.287,6.653c0,5.983,4.836,10.836,10.813,10.865v0.003h1.188v-2h-0.721l-0.457-0.003
		c-4.864-0.023-8.822-4.001-8.822-8.865c0-4.89,3.978-8.868,8.867-8.868c0.15,0,0.299,0.012,0.447,0.022l0.148,0.01l1.314,0.085
		l0.597-1.175c2.225-4.372,6.644-7.089,11.532-7.089c6.062,0,11.382,4.298,12.649,10.219l0.318,1.483l1.514,0.094
		c3.708,0.23,6.612,3.319,6.612,7.03c0,3.878-3.144,7.035-7.017,7.057c-0.042-0.003-0.079-0.005-0.117-0.005l-2.047,0.005H-62.4v2
		h2.819v-0.006c0.042,0.001,0.082,0.006,0.124,0.006c5.001,0,9.057-4.054,9.057-9.057C-50.4-439.991-54.154-443.913-58.889-444.208z
		 M-86.809-447.825c-0.241-0.016-0.48-0.036-0.725-0.036c-2.766,0-5.282,1.041-7.2,2.743c-1.092-1.366-1.753-3.09-1.753-4.971
		c0-4.41,3.589-7.999,8-7.999c3.091,0,5.76,1.773,7.091,4.345C-83.693-452.303-85.573-450.255-86.809-447.825z"/>
</g>
<g>
	<rect x="25.017" y="-430.572" width="2" height="7"/>
	<rect x="33.017" y="-434.572" width="2" height="7"/>
	<rect x="17.017" y="-434.572" width="2" height="7"/>
	<rect x="25.017" y="-420.572" width="2" height="7"/>
	<rect x="33.017" y="-424.572" width="2" height="7"/>
	<rect x="17.017" y="-424.572" width="2" height="7"/>
	<path d="M41.528-445.655c-1.444-6.742-7.433-11.8-14.605-11.8c-1.799,0-3.522,0.32-5.118,0.904
		c-0.949-5.108-5.404-8.98-10.788-8.98c-0.413,0-0.819,0.027-1.222,0.071c0.744,1.112,1.179,2.448,1.179,3.886c0,3.865-3.134,7-7,7
		c-1.438,0-2.773-0.435-3.886-1.179c-0.044,0.401-0.071,0.809-0.071,1.222c0,3.712,1.845,6.987,4.661,8.979
		c-1.653,1.907-2.661,4.389-2.661,7.111c0,5.983,4.836,10.836,10.813,10.865v0.003h1.188v-2h-0.721l-0.457-0.003
		c-4.864-0.023-8.822-4.001-8.822-8.865c0-4.89,3.978-8.868,8.867-8.868c0.15,0,0.299,0.012,0.447,0.022l0.148,0.01l1.314,0.085
		l0.597-1.175c2.225-4.372,6.644-7.089,11.532-7.089c6.062,0,11.382,4.298,12.649,10.219l0.318,1.483l1.514,0.094
		c3.708,0.23,6.612,3.319,6.612,7.03c0,3.878-3.144,7.035-7.017,7.057c-0.042-0.003-0.079-0.005-0.117-0.005l-2.047,0.005h-0.819v2
		h2.819v-0.006c0.042,0.001,0.082,0.006,0.124,0.006c5.001,0,9.057-4.054,9.057-9.057C50.017-441.438,46.263-445.36,41.528-445.655z
		 M13.608-449.272c-0.241-0.016-0.48-0.036-0.725-0.036c-2.537,0-4.865,0.876-6.715,2.334c-2.012-1.294-3.487-3.354-3.976-5.776
		c0.582,0.117,1.178,0.177,1.78,0.177c4.963,0,9-4.037,9-9c0-0.603-0.06-1.198-0.177-1.78c3.733,0.753,6.629,3.824,7.133,7.64
		C17.219-454.271,15.004-452.016,13.608-449.272z"/>
</g>
<g>
	<polygon points="-282.214,-329.749 -282.214,-327.809 -282.214,-321.749 -280.214,-321.749 -280.214,-327.809 -280.214,-329.749 
		-280.214,-341.749 -282.214,-341.749 	"/>
	<polygon points="-274.214,-333.749 -274.214,-331.996 -274.214,-325.749 -272.214,-325.749 -272.214,-331.996 -272.214,-333.749 
		-272.214,-345.749 -274.214,-345.749 	"/>
	<polygon points="-290.214,-333.749 -290.214,-331.684 -290.214,-325.749 -288.214,-325.749 -288.214,-331.684 -288.214,-333.749 
		-288.214,-345.749 -290.214,-345.749 	"/>
	<rect x="-296.214" y="-380.651" width="2" height="7.973"/>
	<rect x="-315.214" y="-361.737" width="7.973" height="2"/>
	<rect x="-310.541" y="-373.004" transform="matrix(0.7071 0.7071 -0.7071 0.7071 -352.834 107.8088)" width="7.974" height="2"/>
	<rect x="-285.032" y="-375.986" transform="matrix(0.7071 0.7071 -0.7071 0.7071 -346.2349 91.8848)" width="2" height="7.972"/>
	<path d="M-265.702-354.861c-1.444-6.742-7.433-11.8-14.605-11.8c-2.185,0-4.258,0.47-6.127,1.313
		c-1.666-3.202-5.006-5.394-8.865-5.394c-5.522,0-10,4.477-10,9.999c0,2.46,0.898,4.702,2.373,6.442
		c-1.428,1.84-2.287,4.144-2.287,6.653c0,5.983,4.836,10.836,10.813,10.865v0.003h1.188v-2h-0.721l-0.457-0.003
		c-4.864-0.023-8.822-4.001-8.822-8.865c0-4.89,3.978-8.868,8.867-8.868c0.15,0,0.299,0.012,0.447,0.022l0.148,0.01l1.314,0.085
		l0.597-1.175c2.225-4.372,6.644-7.089,11.532-7.089c6.062,0,11.382,4.298,12.649,10.219l0.318,1.483l1.514,0.094
		c3.708,0.23,6.612,3.319,6.612,7.03c0,3.878-3.144,7.035-7.017,7.057c-0.042-0.003-0.079-0.005-0.117-0.005l-2.047,0.005h-0.819v2
		h2.819v-0.006c0.042,0.001,0.082,0.006,0.124,0.006c5.001,0,9.057-4.054,9.057-9.057
		C-257.214-350.645-260.968-354.566-265.702-354.861z M-293.622-358.479c-0.241-0.016-0.48-0.036-0.725-0.036
		c-2.766,0-5.281,1.042-7.2,2.743c-1.092-1.367-1.753-3.09-1.753-4.971c0-4.41,3.589-7.999,8-7.999c3.092,0,5.76,1.773,7.092,4.345
		C-290.507-362.957-292.386-360.908-293.622-358.479z"/>
</g>
<g>
	<polygon points="-181.816,-332.266 -181.816,-330.325 -181.816,-324.266 -179.816,-324.266 -179.816,-330.325 -179.816,-332.266 
		-179.816,-344.266 -181.816,-344.266 	"/>
	<polygon points="-173.816,-336.266 -173.816,-334.513 -173.816,-328.266 -171.816,-328.266 -171.816,-334.513 -171.816,-336.266 
		-171.816,-348.266 -173.816,-348.266 	"/>
	<polygon points="-189.816,-336.266 -189.816,-334.2 -189.816,-328.266 -187.816,-328.266 -187.816,-334.2 -187.816,-336.266 
		-187.816,-348.266 -189.816,-348.266 	"/>
	<path d="M-165.305-357.378c-1.444-6.742-7.433-11.8-14.605-11.8c-1.799,0-3.521,0.32-5.118,0.904
		c-0.949-5.108-5.404-8.98-10.788-8.98c-0.413,0-0.819,0.027-1.222,0.071c0.744,1.112,1.179,2.448,1.179,3.886c0,3.865-3.134,7-7,7
		c-1.438,0-2.773-0.435-3.886-1.179c-0.044,0.401-0.071,0.809-0.071,1.222c0,3.712,1.845,6.987,4.661,8.979
		c-1.653,1.907-2.661,4.389-2.661,7.111c0,5.983,4.836,10.836,10.813,10.865v0.003h1.188v-2h-0.721l-0.457-0.003
		c-4.864-0.023-8.822-4.001-8.822-8.865c0-4.89,3.978-8.868,8.867-8.868c0.15,0,0.299,0.012,0.447,0.022l0.148,0.01l1.314,0.085
		l0.597-1.175c2.225-4.372,6.644-7.089,11.532-7.089c6.062,0,11.382,4.298,12.649,10.219l0.318,1.483l1.514,0.094
		c3.708,0.23,6.612,3.319,6.612,7.03c0,3.878-3.144,7.035-7.017,7.057c-0.042-0.003-0.079-0.005-0.117-0.005l-2.047,0.005h-0.819v2
		h2.819v-0.006c0.042,0.001,0.082,0.006,0.124,0.006c5.001,0,9.057-4.054,9.057-9.057
		C-156.816-353.161-160.57-357.083-165.305-357.378z M-193.225-360.995c-0.241-0.016-0.48-0.036-0.725-0.036
		c-2.537,0-4.865,0.876-6.715,2.334c-2.012-1.294-3.486-3.354-3.976-5.776c0.582,0.117,1.178,0.177,1.78,0.177c4.963,0,9-4.037,9-9
		c0-0.603-0.06-1.198-0.177-1.78c3.733,0.753,6.629,3.824,7.134,7.641C-189.615-365.993-191.83-363.737-193.225-360.995z"/>
</g>
<g>
	<polygon points="35.219,-331.321 28.336,-341.151 26.698,-340.004 33.581,-330.174 34.693,-328.585 38.169,-323.621 
		39.808,-324.768 36.332,-329.732 	"/>
	<polygon points="43.221,-331.323 36.336,-341.151 34.698,-340.003 41.584,-330.175 42.589,-328.739 46.173,-323.624 
		47.812,-324.771 44.228,-329.887 	"/>
	<polygon points="27.219,-331.321 20.336,-341.151 18.698,-340.003 25.581,-330.174 26.766,-328.481 30.17,-323.62 31.808,-324.768 
		28.404,-329.629 	"/>
	<rect x="14.698" y="-378.87" width="2" height="7.973"/>
	<rect x="-4.302" y="-359.956" width="7.973" height="2"/>
	<rect x="0.371" y="-371.223" transform="matrix(0.7071 0.7071 -0.7071 0.7071 -260.5104 -111.5175)" width="7.974" height="2"/>
	<rect x="25.88" y="-374.204" transform="matrix(0.7071 0.7071 -0.7071 0.7071 -253.9113 -127.4415)" width="2" height="7.972"/>
	<path d="M45.21-353.08c-1.444-6.742-7.433-11.8-14.605-11.8c-2.185,0-4.258,0.47-6.126,1.313c-1.667-3.202-5.007-5.394-8.866-5.394
		c-5.522,0-10,4.477-10,9.999c0,2.46,0.899,4.702,2.373,6.442c-1.429,1.84-2.287,4.144-2.287,6.653
		c0,5.983,4.836,10.836,10.813,10.865v0.003h1.188v-2h-0.721L16.521-337c-4.864-0.023-8.822-4.001-8.822-8.865
		c0-4.89,3.978-8.868,8.867-8.868c0.15,0,0.299,0.012,0.447,0.022l0.148,0.01l1.314,0.085l0.597-1.175
		c2.225-4.372,6.644-7.089,11.532-7.089c6.062,0,11.382,4.298,12.649,10.219l0.318,1.483l1.514,0.094
		c3.708,0.23,6.612,3.319,6.612,7.03c0,3.878-3.144,7.035-7.017,7.057c-0.042-0.003-0.079-0.005-0.117-0.005l-0.047,0.005h-0.819v2
		h0.819v-0.006c0.042,0.001,0.082,0.006,0.124,0.006c5.001,0,9.057-4.054,9.057-9.057C53.698-348.863,49.944-352.785,45.21-353.08z
		 M17.29-356.697c-0.241-0.016-0.48-0.036-0.725-0.036c-2.766,0-5.282,1.042-7.2,2.743c-1.092-1.367-1.753-3.09-1.753-4.971
		c0-4.41,3.589-7.999,8-7.999c3.091,0,5.76,1.773,7.091,4.345C20.405-361.176,18.525-359.127,17.29-356.697z"/>
</g>
<g>
	<polygon points="-688.212,-234.836 -695.095,-244.666 -696.732,-243.519 -689.85,-233.688 -688.737,-232.1 -685.262,-227.136 
		-683.623,-228.282 -687.099,-233.247 	"/>
	<polygon points="-680.21,-234.838 -687.095,-244.666 -688.732,-243.518 -681.847,-233.689 -680.842,-232.254 -677.258,-227.139 
		-675.619,-228.285 -679.203,-233.401 	"/>
	<polygon points="-696.212,-234.836 -703.095,-244.666 -704.732,-243.518 -697.85,-233.688 -696.665,-231.996 -693.261,-227.135 
		-691.623,-228.282 -695.026,-233.144 	"/>
	<path d="M-678.221-256.595c-1.444-6.742-7.433-11.8-14.605-11.8c-1.799,0-3.522,0.32-5.118,0.904
		c-0.949-5.108-5.404-8.98-10.788-8.98c-0.413,0-0.819,0.027-1.222,0.071c0.744,1.112,1.179,2.448,1.179,3.886c0,3.865-3.134,7-7,7
		c-1.438,0-2.773-0.435-3.886-1.179c-0.044,0.401-0.071,0.809-0.071,1.222c0,3.712,1.845,6.987,4.661,8.979
		c-1.653,1.907-2.661,4.389-2.661,7.111c0,5.983,4.836,10.836,10.813,10.865v0.003h1.188v-2h-0.721l-0.457-0.003
		c-4.864-0.023-8.822-4.001-8.822-8.865c0-4.89,3.978-8.868,8.867-8.868c0.15,0,0.299,0.012,0.447,0.022l0.148,0.01l1.314,0.085
		l0.597-1.175c2.225-4.372,6.644-7.089,11.532-7.089c6.062,0,11.382,4.298,12.649,10.219l0.318,1.483l1.514,0.094
		c3.708,0.23,6.612,3.319,6.612,7.03c0,3.878-3.144,7.035-7.017,7.057c-0.042-0.003-0.079-0.005-0.117-0.005l-0.047,0.005h-0.819v2
		h0.819v-0.006c0.042,0.001,0.082,0.006,0.124,0.006c5.001,0,9.057-4.054,9.057-9.057
		C-669.732-252.378-673.486-256.3-678.221-256.595z M-706.141-260.212c-0.241-0.016-0.48-0.036-0.725-0.036
		c-2.537,0-4.865,0.876-6.715,2.334c-2.012-1.294-3.487-3.354-3.976-5.776c0.582,0.117,1.178,0.177,1.78,0.177c4.963,0,9-4.037,9-9
		c0-0.603-0.06-1.198-0.177-1.78c3.733,0.753,6.629,3.824,7.133,7.641C-702.53-265.21-704.745-262.954-706.141-260.212z"/>
</g>
<g>
	<rect x="-695.732" y="-338.683" width="2" height="4"/>
	<rect x="-687.732" y="-342.704" width="2" height="4.021"/>
	<rect x="-703.732" y="-342.704" width="2" height="4.021"/>
	<path d="M-677.104-358.671c-1.596-7.445-8.207-13.029-16.127-13.029c-6.423,0-11.977,3.678-14.702,9.035
		c-0.266-0.018-0.53-0.04-0.8-0.04c-6.627,0-11.999,5.372-11.999,12c0,6.607,5.34,11.965,11.938,11.998v0.003h2.062v-2h-1.604
		l-0.447-0.003c-5.485-0.027-9.948-4.513-9.948-9.998c0-5.514,4.485-10,9.999-10c0.175,0,0.347,0.014,0.52,0.025l0.148,0.01
		l1.316,0.088l0.598-1.176c2.492-4.899,7.443-7.942,12.92-7.942c6.79,0,12.75,4.814,14.172,11.448l0.317,1.482l1.514,0.095
		c4.203,0.262,7.496,3.763,7.496,7.971c0,4.397-3.565,7.977-7.957,8c-0.05-0.003-0.093-0.005-0.137-0.007l-2.043,0.007h-2.863v2
		h4.863v-0.007c0.046,0.001,0.091,0.007,0.137,0.007c5.521,0,10-4.477,10-10C-667.732-354.015-671.877-358.346-677.104-358.671z"/>
	<circle cx="-686.732" cy="-333.662" r="1.5"/>
	<circle cx="-694.732" cy="-329.693" r="1.5"/>
	<circle cx="-702.732" cy="-333.704" r="1.5"/>
</g>
<g>
	<rect x="-602.812" y="-378.137" width="2" height="7.973"/>
	<rect x="-621.812" y="-359.223" width="7.973" height="2"/>
	<rect x="-617.138" y="-370.489" transform="matrix(0.7071 0.7071 -0.7071 0.7071 -440.8562 325.3425)" width="7.974" height="2"/>
	<rect x="-591.63" y="-373.471" transform="matrix(0.7071 0.7071 -0.7071 0.7071 -434.2571 309.4186)" width="2" height="7.972"/>
	<path d="M-572.3-352.347c-1.444-6.742-7.433-11.8-14.605-11.8c-2.185,0-4.258,0.47-6.126,1.313
		c-1.667-3.202-5.007-5.394-8.866-5.394c-5.522,0-10,4.477-10,9.999c0,2.46,0.899,4.702,2.373,6.442
		c-1.429,1.84-2.287,4.144-2.287,6.653c0,5.983,4.836,10.836,10.813,10.865v0.003h1.188v-2h-0.721l-0.457-0.003
		c-4.864-0.023-8.822-4.001-8.822-8.865c0-4.89,3.978-8.868,8.867-8.868c0.15,0,0.299,0.012,0.447,0.022l0.148,0.01l1.314,0.085
		l0.597-1.175c2.225-4.372,6.644-7.089,11.532-7.089c6.062,0,11.382,4.298,12.649,10.219l0.318,1.483l1.514,0.094
		c3.708,0.23,6.612,3.319,6.612,7.03c0,3.878-3.144,7.035-7.017,7.057c-0.042-0.003-0.079-0.005-0.117-0.005l-2.047,0.005h-0.819v2
		h2.819v-0.006c0.042,0.001,0.082,0.006,0.124,0.006c5.001,0,9.057-4.054,9.057-9.057
		C-563.812-348.13-567.565-352.052-572.3-352.347z M-600.22-355.964c-0.241-0.016-0.48-0.036-0.725-0.036
		c-2.766,0-5.282,1.042-7.2,2.743c-1.092-1.367-1.753-3.09-1.753-4.971c0-4.41,3.589-7.999,8-7.999c3.091,0,5.76,1.773,7.091,4.345
		C-597.104-360.442-598.984-358.394-600.22-355.964z"/>
	<rect x="-588.812" y="-334.248" width="2" height="4"/>
	<rect x="-580.812" y="-338.27" width="2" height="4.021"/>
	<rect x="-596.812" y="-338.27" width="2" height="4.021"/>
	<circle cx="-579.812" cy="-329.228" r="1.5"/>
	<circle cx="-587.812" cy="-325.259" r="1.5"/>
	<circle cx="-595.812" cy="-329.27" r="1.5"/>
</g>
<g>
	<path d="M-471.374-353.304c-1.444-6.742-7.433-11.8-14.605-11.8c-1.799,0-3.522,0.32-5.118,0.904
		c-0.949-5.108-5.404-8.98-10.788-8.98c-0.413,0-0.819,0.027-1.222,0.071c0.744,1.112,1.179,2.448,1.179,3.886c0,3.865-3.134,7-7,7
		c-1.438,0-2.773-0.435-3.886-1.179c-0.044,0.401-0.071,0.809-0.071,1.222c0,3.712,1.845,6.987,4.661,8.979
		c-1.653,1.907-2.661,4.389-2.661,7.111c0,5.983,4.836,10.836,10.813,10.865v0.003h1.188v-2h-0.721l-0.457-0.003
		c-4.864-0.023-8.822-4.001-8.822-8.865c0-4.89,3.978-8.868,8.867-8.868c0.15,0,0.299,0.012,0.447,0.022l0.148,0.01l1.314,0.085
		l0.597-1.175c2.225-4.372,6.644-7.089,11.532-7.089c6.062,0,11.382,4.298,12.649,10.219l0.318,1.483l1.514,0.094
		c3.708,0.23,6.612,3.319,6.612,7.03c0,3.878-3.144,7.035-7.017,7.057c-0.042-0.003-0.079-0.005-0.117-0.005l-2.047,0.005h-0.819v2
		h2.819v-0.006c0.042,0.001,0.082,0.006,0.124,0.006c5.001,0,9.057-4.054,9.057-9.057
		C-462.886-349.087-466.64-353.009-471.374-353.304z M-499.294-356.921c-0.241-0.016-0.48-0.036-0.725-0.036
		c-2.537,0-4.865,0.876-6.715,2.334c-2.012-1.294-3.487-3.354-3.976-5.776c0.582,0.117,1.178,0.177,1.78,0.177c4.963,0,9-4.037,9-9
		c0-0.603-0.06-1.198-0.177-1.78c3.733,0.753,6.629,3.824,7.133,7.641C-495.684-361.919-497.898-359.663-499.294-356.921z"/>
	<rect x="-487.886" y="-335.205" width="2" height="4"/>
	<rect x="-479.886" y="-339.227" width="2" height="4.021"/>
	<rect x="-495.886" y="-339.227" width="2" height="4.021"/>
	<circle cx="-478.886" cy="-330.185" r="1.5"/>
	<circle cx="-486.886" cy="-326.216" r="1.5"/>
	<circle cx="-494.886" cy="-330.227" r="1.5"/>
</g>
<g>
	<path d="M-574.684-260.273c-1.596-7.445-8.207-13.029-16.127-13.029c-6.423,0-11.977,3.678-14.702,9.035
		c-0.266-0.018-0.53-0.04-0.8-0.04c-6.627,0-11.999,5.372-11.999,12c0,6.607,5.34,11.965,11.938,11.998v0.003h6.062v-2h-5.604
		l-0.447-0.003c-5.485-0.027-9.948-4.513-9.948-9.998c0-5.514,4.485-10,9.999-10c0.175,0,0.347,0.014,0.52,0.025l0.148,0.01
		l1.316,0.088l0.598-1.176c2.492-4.899,7.443-7.942,12.92-7.942c6.79,0,12.75,4.814,14.172,11.448l0.317,1.482l1.514,0.095
		c4.203,0.262,7.496,3.763,7.496,7.971c0,4.397-3.565,7.977-7.957,8c-0.05-0.003-0.093-0.005-0.137-0.007l-5.043,0.007h0.137v2
		h4.863v-0.007c0.046,0.001,0.091,0.007,0.137,0.007c5.521,0,10-4.477,10-10C-565.312-255.617-569.456-259.948-574.684-260.273z"/>
	<polygon points="-590.47,-240.303 -588.7,-240.303 -588.27,-240.303 -586.26,-240.303 -592.674,-249.464 -594.312,-248.316 
		-590.101,-242.303 -591.871,-242.303 -594.312,-242.303 -593.04,-240.486 -591.928,-238.897 -585.95,-230.303 -584.312,-231.449 
		-590.289,-240.045 	"/>
</g>
<g>
	<rect x="-498.886" y="-279.403" width="2" height="7.973"/>
	<rect x="-517.886" y="-260.489" width="7.973" height="2"/>
	<rect x="-513.213" y="-271.756" transform="matrix(0.7071 0.7071 -0.7071 0.7071 -340.602 280.7743)" width="7.974" height="2"/>
	<rect x="-487.704" y="-274.738" transform="matrix(0.7071 0.7071 -0.7071 0.7071 -334.0029 264.8503)" width="2" height="7.972"/>
	<path d="M-468.374-253.613c-1.444-6.742-7.433-11.8-14.605-11.8c-2.185,0-4.258,0.47-6.127,1.313
		c-1.666-3.202-5.006-5.394-8.865-5.394c-5.522,0-10,4.477-10,9.999c0,2.46,0.898,4.702,2.373,6.442
		c-1.428,1.84-2.287,4.144-2.287,6.653c0,5.983,4.836,10.836,10.813,10.865v0.003h4.188v-2h-3.721l-0.457-0.003
		c-4.864-0.023-8.822-4.001-8.822-8.865c0-4.89,3.978-8.868,8.867-8.868c0.15,0,0.299,0.012,0.447,0.022l0.148,0.01l1.314,0.085
		l0.597-1.175c2.225-4.372,6.644-7.089,11.532-7.089c6.062,0,11.382,4.298,12.649,10.219l0.318,1.483l1.514,0.094
		c3.708,0.23,6.612,3.319,6.612,7.03c0,3.878-3.144,7.035-7.017,7.057c-0.042-0.003-0.079-0.005-0.117-0.005l-2.047,0.005h-3.819v2
		h5.819v-0.006c0.042,0.001,0.082,0.006,0.124,0.006c5.001,0,9.057-4.054,9.057-9.057
		C-459.886-249.396-463.64-253.318-468.374-253.613z M-496.294-257.23c-0.241-0.016-0.48-0.036-0.725-0.036
		c-2.766,0-5.281,1.041-7.2,2.743c-1.092-1.366-1.753-3.09-1.753-4.971c0-4.41,3.589-7.999,8-7.999c3.092,0,5.76,1.773,7.092,4.345
		C-493.179-261.708-495.058-259.66-496.294-257.23z"/>
	<polygon points="-484.044,-235.523 -482.274,-235.523 -481.844,-235.523 -479.834,-235.523 -486.248,-244.685 -487.886,-243.537 
		-483.675,-237.523 -485.445,-237.523 -487.886,-237.523 -486.614,-235.707 -485.502,-234.118 -479.524,-225.523 -477.886,-226.67 
		-483.863,-235.266 	"/>
</g>
<g>
	<path d="M-368.789-255.909c-1.444-6.742-7.433-11.8-14.605-11.8c-1.799,0-3.521,0.32-5.118,0.904
		c-0.949-5.108-5.404-8.98-10.788-8.98c-0.413,0-0.819,0.027-1.222,0.071c0.744,1.112,1.179,2.448,1.179,3.886c0,3.865-3.134,7-7,7
		c-1.438,0-2.773-0.435-3.886-1.179c-0.044,0.401-0.071,0.809-0.071,1.222c0,3.712,1.845,6.987,4.661,8.979
		c-1.653,1.907-2.661,4.389-2.661,7.111c0,5.983,4.836,10.836,10.813,10.865v0.003h4.188v-2h-3.721l-0.457-0.003
		c-4.864-0.023-8.822-4.001-8.822-8.865c0-4.89,3.978-8.868,8.867-8.868c0.15,0,0.299,0.012,0.447,0.022l0.148,0.01l1.314,0.085
		l0.597-1.175c2.225-4.372,6.644-7.089,11.532-7.089c6.062,0,11.382,4.298,12.649,10.219l0.318,1.483l1.514,0.094
		c3.708,0.23,6.612,3.319,6.612,7.03c0,3.878-3.144,7.035-7.017,7.057c-0.042-0.003-0.079-0.005-0.117-0.005l-2.047,0.005h-3.819v2
		h5.819v-0.006c0.042,0.001,0.082,0.006,0.124,0.006c5.001,0,9.057-4.054,9.057-9.057
		C-360.301-251.692-364.055-255.614-368.789-255.909z M-396.709-259.526c-0.241-0.016-0.48-0.036-0.725-0.036
		c-2.537,0-4.865,0.876-6.715,2.334c-2.012-1.294-3.486-3.354-3.976-5.776c0.582,0.117,1.178,0.177,1.78,0.177c4.963,0,9-4.037,9-9
		c0-0.603-0.06-1.198-0.177-1.78c3.733,0.753,6.629,3.824,7.134,7.64C-393.1-264.524-395.314-262.27-396.709-259.526z"/>
	<polygon points="-384.459,-237.819 -382.689,-237.819 -382.259,-237.819 -380.249,-237.819 -386.663,-246.98 -388.301,-245.833 
		-384.09,-239.819 -385.86,-239.819 -388.301,-239.819 -387.029,-238.003 -385.917,-236.414 -379.939,-227.819 -378.301,-228.966 
		-384.278,-237.562 	"/>
</g>
<g>
	<path d="M-267.904-259.773c-1.596-7.445-8.207-13.029-16.127-13.029c-6.423,0-11.977,3.678-14.702,9.035
		c-0.266-0.018-0.53-0.04-0.8-0.04c-6.627,0-11.999,5.372-11.999,12c0,6.607,5.34,11.965,11.938,11.998v0.003h1.062v-2h-0.604
		l-0.447-0.003c-5.485-0.027-9.948-4.513-9.948-9.998c0-5.514,4.485-10,9.999-10c0.175,0,0.347,0.014,0.52,0.025l0.148,0.01
		l1.316,0.088l0.598-1.176c2.492-4.899,7.443-7.942,12.92-7.942c6.79,0,12.75,4.814,14.172,11.448l0.317,1.482l1.514,0.095
		c4.203,0.262,7.496,3.763,7.496,7.971c0,4.397-3.565,7.977-7.957,8c-0.05-0.003-0.093-0.005-0.137-0.007l-0.906,0.007v2h0.863
		v-0.007c0.046,0.001,0.091,0.007,0.137,0.007c5.521,0,10-4.477,10-10C-258.532-255.117-262.677-259.448-267.904-259.773z"/>
	
		<rect x="-299.098" y="-241.809" transform="matrix(-0.5736 -0.8191 0.8191 -0.5736 -264.624 -619.36)" width="11.183" height="1.999"/>
	
		<rect x="-281.123" y="-241.809" transform="matrix(-0.5736 -0.8191 0.8191 -0.5736 -236.3384 -604.6368)" width="11.183" height="1.999"/>
	<polygon points="-282.69,-236.803 -280.921,-236.803 -280.49,-236.803 -278.48,-236.803 -284.895,-245.964 -286.532,-244.816 
		-282.321,-238.803 -284.092,-238.803 -286.532,-238.803 -285.261,-236.986 -284.148,-235.397 -279.532,-228.803 -277.894,-229.949 
		-282.51,-236.545 	"/>
</g>
<g>
	<rect x="-193.057" y="-279.24" width="2" height="7.973"/>
	<rect x="-212.057" y="-260.326" width="7.973" height="2"/>
	<rect x="-207.384" y="-271.593" transform="matrix(0.7071 0.7071 -0.7071 0.7071 -250.9114 64.5682)" width="7.974" height="2"/>
	<rect x="-181.875" y="-274.575" transform="matrix(0.7071 0.7071 -0.7071 0.7071 -244.3123 48.6443)" width="2" height="7.972"/>
	<path d="M-162.545-253.45c-1.444-6.742-7.433-11.8-14.605-11.8c-2.185,0-4.258,0.47-6.126,1.313
		c-1.667-3.202-5.007-5.394-8.866-5.394c-5.522,0-10,4.477-10,9.999c0,2.46,0.899,4.702,2.373,6.442
		c-1.429,1.84-2.287,4.144-2.287,6.653c0,5.983,4.836,10.836,10.813,10.865v0.003h0.188v-2l-0.178-0.003
		c-4.864-0.023-8.822-4.001-8.822-8.865c0-4.89,3.978-8.868,8.867-8.868c0.15,0,0.299,0.012,0.447,0.022l0.148,0.01l1.314,0.085
		l0.597-1.175c2.225-4.372,6.644-7.089,11.532-7.089c6.062,0,11.382,4.298,12.649,10.219l0.318,1.483l1.514,0.094
		c3.708,0.23,6.612,3.319,6.612,7.03c0,3.878-3.144,7.035-7.017,7.057c-0.042-0.003-0.079-0.005-0.117-0.005l-0.866,0.005v2h0.819
		v-0.006c0.042,0.001,0.082,0.006,0.124,0.006c5.001,0,9.057-4.054,9.057-9.057C-154.057-249.233-157.811-253.155-162.545-253.45z
		 M-190.465-257.067c-0.241-0.016-0.48-0.036-0.725-0.036c-2.766,0-5.282,1.042-7.2,2.743c-1.092-1.367-1.753-3.09-1.753-4.971
		c0-4.41,3.589-7.999,8-7.999c3.091,0,5.76,1.773,7.091,4.345C-187.35-261.546-189.229-259.497-190.465-257.067z"/>
	
		<rect x="-192.635" y="-237.37" transform="matrix(-0.5736 -0.8191 0.8191 -0.5736 -100.7255 -525.1708)" width="11.183" height="1.999"/>
	
		<rect x="-174.66" y="-237.37" transform="matrix(-0.5736 -0.8191 0.8191 -0.5736 -72.44 -510.4476)" width="11.183" height="1.999"/>
	<polygon points="-176.228,-232.364 -174.458,-232.364 -174.027,-232.364 -172.018,-232.364 -178.432,-241.525 -180.069,-240.378 
		-175.858,-234.364 -177.629,-234.364 -180.069,-234.364 -178.798,-232.548 -177.686,-230.959 -173.069,-224.364 -171.431,-225.511 
		-176.047,-232.106 	"/>
</g>
<g>
	<path d="M-60.707-256.408c-1.444-6.742-7.433-11.8-14.605-11.8c-1.799,0-3.522,0.32-5.118,0.904
		c-0.949-5.108-5.404-8.98-10.788-8.98c-0.413,0-0.819,0.027-1.222,0.071c0.744,1.112,1.179,2.448,1.179,3.886c0,3.865-3.134,7-7,7
		c-1.438,0-2.773-0.435-3.886-1.179c-0.044,0.401-0.071,0.809-0.071,1.222c0,3.712,1.845,6.987,4.661,8.979
		c-1.653,1.907-2.661,4.389-2.661,7.111c0,5.983,4.836,10.836,10.813,10.865v0.003h0.188v-2l-0.178-0.003
		c-4.864-0.023-8.822-4.001-8.822-8.865c0-4.89,3.978-8.868,8.867-8.868c0.15,0,0.299,0.012,0.447,0.022l0.148,0.01l1.314,0.085
		l0.597-1.175c2.225-4.372,6.644-7.089,11.532-7.089c6.062,0,11.382,4.298,12.649,10.219l0.318,1.483l1.514,0.094
		c3.708,0.23,6.612,3.319,6.612,7.03c0,3.878-3.144,7.035-7.017,7.057c-0.042-0.003-0.079-0.005-0.117-0.005l-0.866,0.005v2h0.819
		v-0.006c0.042,0.001,0.082,0.006,0.124,0.006c5.001,0,9.057-4.054,9.057-9.057C-52.219-252.191-55.973-256.113-60.707-256.408z
		 M-88.627-260.025c-0.241-0.016-0.48-0.036-0.725-0.036c-2.537,0-4.865,0.876-6.715,2.334c-2.012-1.294-3.487-3.354-3.976-5.776
		c0.582,0.117,1.178,0.177,1.78,0.177c4.963,0,9-4.037,9-9c0-0.603-0.06-1.198-0.177-1.78c3.733,0.753,6.629,3.824,7.133,7.641
		C-85.017-265.023-87.231-262.768-88.627-260.025z"/>
	
		<rect x="-90.798" y="-240.328" transform="matrix(-0.5736 -0.8191 0.8191 -0.5736 61.9519 -446.4101)" width="11.183" height="1.999"/>
	
		<rect x="-72.823" y="-240.328" transform="matrix(-0.5736 -0.8191 0.8191 -0.5736 90.2374 -431.6869)" width="11.183" height="1.999"/>
	<polygon points="-74.391,-235.322 -72.621,-235.322 -72.19,-235.322 -70.181,-235.322 -76.595,-244.483 -78.232,-243.336 
		-74.021,-237.322 -75.792,-237.322 -78.232,-237.322 -76.961,-235.506 -75.849,-233.917 -71.232,-227.322 -69.594,-228.469 
		-74.21,-235.064 	"/>
</g>
<g>
	<g>
		<path d="M-471.27-169.953c-1.596-7.445-8.207-13.029-16.127-13.029c-6.423,0-11.977,3.678-14.702,9.035
			c-0.266-0.018-0.53-0.04-0.8-0.04c-6.627,0-11.999,5.372-11.999,12c0,6.607,5.34,11.965,11.938,11.998v0.003h2.062v-2h-1.604
			l-0.447-0.003c-5.485-0.027-9.948-4.513-9.948-9.998c0-5.514,4.485-10,9.999-10c0.175,0,0.347,0.014,0.52,0.025l0.148,0.01
			l1.316,0.088l0.598-1.176c2.492-4.899,7.443-7.942,12.92-7.942c6.79,0,12.75,4.814,14.172,11.448l0.317,1.482l1.514,0.095
			c4.203,0.262,7.496,3.763,7.496,7.971c0,4.397-3.565,7.977-7.957,8c-0.05-0.003-0.093-0.005-0.137-0.007l-2.043,0.007h-2.863v2
			h4.863v-0.007c0.046,0.001,0.091,0.007,0.137,0.007c5.521,0,10-4.477,10-10C-461.897-165.297-466.042-169.628-471.27-169.953z"/>
	</g>
	<g>
		<circle cx="-496.397" cy="-156.41" r="1.5"/>
	</g>
	<g>
		<circle cx="-492.397" cy="-150.486" r="1.5"/>
	</g>
	<g>
		<circle cx="-484.397" cy="-150.486" r="1.5"/>
	</g>
	<g>
		<circle cx="-488.397" cy="-156.41" r="1.5"/>
	</g>
	<g>
		<circle cx="-480.397" cy="-156.41" r="1.5"/>
	</g>
	<g>
		<circle cx="-496.397" cy="-144.465" r="1.5"/>
	</g>
	<g>
		<circle cx="-488.397" cy="-144.465" r="1.5"/>
	</g>
	<g>
		<circle cx="-480.397" cy="-144.465" r="1.5"/>
	</g>
</g>
<g>
	<g>
		<rect x="-395.483" y="-185.431" width="2" height="7.973"/>
	</g>
	<g>
		<rect x="-414.483" y="-166.517" width="7.973" height="2"/>
	</g>
	<g>
		<rect x="-409.81" y="-177.783" transform="matrix(0.7071 0.7071 -0.7071 0.7071 -243.8675 235.1818)" width="7.974" height="2"/>
	</g>
	<g>
		<rect x="-384.302" y="-180.765" transform="matrix(0.7071 0.7071 -0.7071 0.7071 -237.2683 219.2578)" width="2" height="7.972"/>
	</g>
	<g>
		<path d="M-364.972-159.641c-1.444-6.742-7.433-11.8-14.605-11.8c-2.185,0-4.258,0.47-6.127,1.313
			c-1.666-3.202-5.006-5.394-8.865-5.394c-5.522,0-10,4.477-10,9.999c0,2.46,0.898,4.702,2.373,6.442
			c-1.428,1.84-2.287,4.144-2.287,6.653c0,5.983,4.836,10.836,10.813,10.865v0.003h1.188v-2h-0.721l-0.457-0.003
			c-4.864-0.023-8.822-4.001-8.822-8.865c0-4.89,3.978-8.868,8.867-8.868c0.15,0,0.299,0.012,0.447,0.022l0.148,0.01l1.314,0.085
			l0.597-1.175c2.225-4.372,6.644-7.089,11.532-7.089c6.062,0,11.382,4.298,12.649,10.219l0.318,1.483l1.514,0.094
			c3.708,0.23,6.612,3.319,6.612,7.03c0,3.878-3.144,7.035-7.017,7.057c-0.042-0.003-0.079-0.005-0.117-0.005l-2.047,0.005h-1.819v2
			h3.819v-0.006c0.042,0.001,0.082,0.006,0.124,0.006c5.001,0,9.057-4.054,9.057-9.057
			C-356.483-155.424-360.237-159.346-364.972-159.641z M-392.892-163.258c-0.241-0.016-0.48-0.036-0.725-0.036
			c-2.766,0-5.281,1.042-7.2,2.743c-1.092-1.367-1.753-3.09-1.753-4.971c0-4.41,3.589-7.999,8-7.999c3.092,0,5.76,1.773,7.092,4.345
			C-389.776-167.736-391.655-165.688-392.892-163.258z"/>
	</g>
	<g>
		<circle cx="-388.994" cy="-148.047" r="1.5"/>
	</g>
	<g>
		<circle cx="-384.994" cy="-142.047" r="1.5"/>
	</g>
	<g>
		<circle cx="-376.994" cy="-142.047" r="1.5"/>
	</g>
	<g>
		<circle cx="-380.994" cy="-148.047" r="1.5"/>
	</g>
	<g>
		<circle cx="-372.994" cy="-148.047" r="1.5"/>
	</g>
	<g>
		<circle cx="-388.994" cy="-136.025" r="1.5"/>
	</g>
	<g>
		<circle cx="-380.994" cy="-136.025" r="1.5"/>
	</g>
	<g>
		<circle cx="-372.994" cy="-136.025" r="1.5"/>
	</g>
</g>
<g>
	<g>
		<path d="M-269.021-163.597c-1.444-6.742-7.433-11.8-14.605-11.8c-1.799,0-3.521,0.32-5.118,0.904
			c-0.949-5.108-5.404-8.98-10.788-8.98c-0.413,0-0.819,0.027-1.222,0.071c0.744,1.112,1.179,2.448,1.179,3.886c0,3.865-3.134,7-7,7
			c-1.438,0-2.773-0.435-3.886-1.179c-0.044,0.401-0.071,0.809-0.071,1.222c0,3.712,1.845,6.987,4.661,8.979
			c-1.653,1.907-2.661,4.389-2.661,7.111c0,5.983,4.836,10.836,10.813,10.865v0.003h1.188v-2h-0.721l-0.457-0.003
			c-4.864-0.023-8.822-4.001-8.822-8.865c0-4.89,3.978-8.868,8.867-8.868c0.15,0,0.299,0.012,0.447,0.022l0.148,0.01l1.314,0.085
			l0.597-1.175c2.225-4.372,6.644-7.089,11.532-7.089c6.062,0,11.382,4.298,12.649,10.219l0.318,1.483l1.514,0.094
			c3.708,0.23,6.612,3.319,6.612,7.03c0,3.878-3.144,7.035-7.017,7.057c-0.042-0.003-0.079-0.005-0.117-0.005l-2.047,0.005h-1.819v2
			h3.819v-0.006c0.042,0.001,0.082,0.006,0.124,0.006c5.001,0,9.057-4.054,9.057-9.057
			C-260.532-159.38-264.286-163.302-269.021-163.597z M-296.94-167.214c-0.241-0.016-0.48-0.036-0.725-0.036
			c-2.537,0-4.865,0.876-6.715,2.334c-2.012-1.294-3.486-3.354-3.976-5.776c0.582,0.117,1.178,0.177,1.78,0.177c4.963,0,9-4.037,9-9
			c0-0.603-0.06-1.198-0.177-1.78c3.733,0.753,6.629,3.824,7.134,7.64C-293.331-172.212-295.546-169.957-296.94-167.214z"/>
	</g>
	<g>
		<circle cx="-293.032" cy="-152.004" r="1.5"/>
	</g>
	<g>
		<circle cx="-289.032" cy="-146.004" r="1.5"/>
	</g>
	<g>
		<circle cx="-281.032" cy="-146.004" r="1.5"/>
	</g>
	<g>
		<circle cx="-285.032" cy="-152.004" r="1.5"/>
	</g>
	<g>
		<circle cx="-277.032" cy="-152.004" r="1.5"/>
	</g>
	<g>
		<circle cx="-293.032" cy="-139.982" r="1.5"/>
	</g>
	<g>
		<circle cx="-285.032" cy="-139.982" r="1.5"/>
	</g>
	<g>
		<circle cx="-277.032" cy="-139.982" r="1.5"/>
	</g>
</g>
<g>
	<path d="M42.145-262.482c-1.596-7.445-8.207-13.029-16.127-13.029c-6.423,0-11.977,3.678-14.702,9.035
		c-0.266-0.018-0.53-0.04-0.8-0.04c-6.627,0-11.999,5.372-11.999,12c0,6.607,5.34,11.965,11.938,11.998v0.003h2.062v-2h-1.604
		l-0.447-0.003c-5.485-0.027-9.948-4.513-9.948-9.998c0-5.514,4.485-10,9.999-10c0.175,0,0.347,0.014,0.52,0.025l0.148,0.01
		l1.316,0.088l0.598-1.176c2.492-4.899,7.443-7.942,12.92-7.942c6.79,0,12.75,4.814,14.172,11.448l0.317,1.482l1.514,0.095
		c4.203,0.262,7.496,3.763,7.496,7.971c0,4.397-3.565,7.977-7.957,8c-0.05-0.003-0.093-0.005-0.137-0.007l-2.043,0.007h-2.863v2
		h4.863v-0.007c0.046,0.001,0.091,0.007,0.137,0.007c5.521,0,10-4.477,10-10C51.517-257.826,47.372-262.157,42.145-262.482z"/>
	<circle cx="16.517" cy="-235.012" r="1.5"/>
	<circle cx="24.517" cy="-229.012" r="1.5"/>
	<circle cx="32.517" cy="-233.012" r="1.5"/>
	<rect x="15.517" y="-251.487" width="2" height="11.976"/>
	<polygon points="25.517,-233.547 25.517,-235.487 25.517,-247.487 23.517,-247.487 23.517,-235.487 23.517,-233.547 
		23.517,-233.512 25.517,-233.512 	"/>
	<polygon points="33.517,-237.734 33.517,-239.487 33.517,-251.487 31.517,-251.487 31.517,-239.487 31.517,-237.734 
		31.517,-237.512 33.517,-237.512 	"/>
</g>
<g>
	<rect x="-706.232" y="-190.869" width="2" height="7.973"/>
	<rect x="-725.232" y="-171.955" width="7.973" height="2"/>
	<rect x="-720.559" y="-183.222" transform="matrix(0.7071 0.7071 -0.7071 0.7071 -338.7294 453.3216)" width="7.974" height="2"/>
	<rect x="-695.051" y="-186.204" transform="matrix(0.7071 0.7071 -0.7071 0.7071 -332.1302 437.3976)" width="2" height="7.972"/>
	<path d="M-675.721-165.079c-1.444-6.742-7.433-11.8-14.605-11.8c-2.185,0-4.258,0.47-6.126,1.313
		c-1.667-3.202-5.007-5.394-8.866-5.394c-5.522,0-10,4.477-10,9.999c0,2.46,0.899,4.702,2.373,6.442
		c-1.429,1.84-2.287,4.144-2.287,6.653c0,5.983,4.836,10.836,10.813,10.865v0.003h1.188v-2h-0.721l-0.457-0.003
		c-4.864-0.023-8.822-4.001-8.822-8.865c0-4.89,3.978-8.868,8.867-8.868c0.15,0,0.299,0.012,0.447,0.022l0.148,0.01l1.314,0.085
		l0.597-1.175c2.225-4.372,6.644-7.089,11.532-7.089c6.062,0,11.382,4.298,12.649,10.219l0.318,1.483l1.514,0.094
		c3.708,0.23,6.612,3.319,6.612,7.03c0,3.878-3.144,7.035-7.017,7.057c-0.042-0.003-0.079-0.005-0.117-0.005l-2.047,0.005h-0.819v2
		h2.819v-0.006c0.042,0.001,0.082,0.006,0.124,0.006c5.001,0,9.057-4.054,9.057-9.057
		C-667.232-160.862-670.986-164.784-675.721-165.079z M-703.641-168.696c-0.241-0.016-0.48-0.036-0.725-0.036
		c-2.766,0-5.282,1.041-7.2,2.743c-1.092-1.366-1.753-3.09-1.753-4.971c0-4.41,3.589-7.999,8-7.999c3.091,0,5.76,1.773,7.091,4.345
		C-700.525-173.174-702.405-171.126-703.641-168.696z"/>
	<circle cx="-699.242" cy="-138.509" r="1.5"/>
	<circle cx="-691.242" cy="-132.509" r="1.5"/>
	<circle cx="-683.242" cy="-136.509" r="1.5"/>
	<rect x="-700.242" y="-154.984" width="2" height="11.976"/>
	<polygon points="-690.242,-137.044 -690.242,-138.984 -690.242,-150.984 -692.242,-150.984 -692.242,-138.984 -692.242,-137.044 
		-692.242,-137.009 -690.242,-137.009 	"/>
	<polygon points="-682.242,-141.231 -682.242,-142.984 -682.242,-154.984 -684.242,-154.984 -684.242,-142.984 -684.242,-141.231 
		-684.242,-141.009 -682.242,-141.009 	"/>
</g>
<g>
	<path d="M-575.118-168.077c-1.444-6.742-7.433-11.8-14.605-11.8c-1.799,0-3.522,0.32-5.118,0.904
		c-0.949-5.108-5.404-8.98-10.788-8.98c-0.413,0-0.819,0.027-1.222,0.071c0.744,1.112,1.179,2.448,1.179,3.886c0,3.865-3.134,7-7,7
		c-1.438,0-2.773-0.435-3.886-1.179c-0.044,0.401-0.071,0.809-0.071,1.222c0,3.712,1.845,6.987,4.661,8.979
		c-1.653,1.907-2.661,4.389-2.661,7.111c0,5.983,4.836,10.836,10.813,10.865v0.003h1.188v-2h-0.721l-0.457-0.003
		c-4.864-0.023-8.822-4.001-8.822-8.865c0-4.89,3.978-8.868,8.867-8.868c0.15,0,0.299,0.012,0.447,0.022l0.148,0.01l1.314,0.085
		l0.597-1.175c2.225-4.372,6.644-7.089,11.532-7.089c6.062,0,11.382,4.298,12.649,10.219l0.318,1.483l1.514,0.094
		c3.708,0.23,6.612,3.319,6.612,7.03c0,3.878-3.144,7.035-7.017,7.057c-0.042-0.003-0.079-0.005-0.117-0.005l-2.047,0.005h-0.819v2
		h2.819V-150c0.042,0.001,0.082,0.006,0.124,0.006c5.001,0,9.057-4.054,9.057-9.057C-566.63-163.86-570.384-167.782-575.118-168.077
		z M-603.038-171.694c-0.241-0.016-0.48-0.036-0.725-0.036c-2.537,0-4.865,0.876-6.715,2.334c-2.012-1.294-3.487-3.354-3.976-5.776
		c0.582,0.117,1.178,0.177,1.78,0.177c4.963,0,9-4.037,9-9c0-0.603-0.06-1.198-0.177-1.78c3.733,0.753,6.629,3.824,7.133,7.64
		C-599.428-176.692-601.643-174.438-603.038-171.694z"/>
	<circle cx="-598.63" cy="-141.503" r="1.5"/>
	<circle cx="-590.63" cy="-135.503" r="1.5"/>
	<circle cx="-582.63" cy="-139.503" r="1.5"/>
	<rect x="-599.63" y="-157.979" width="2" height="11.976"/>
	<polygon points="-589.63,-140.038 -589.63,-141.979 -589.63,-153.979 -591.63,-153.979 -591.63,-141.979 -591.63,-140.038 
		-591.63,-140.003 -589.63,-140.003 	"/>
	<polygon points="-581.63,-144.226 -581.63,-145.979 -581.63,-157.979 -583.63,-157.979 -583.63,-145.979 -583.63,-144.226 
		-583.63,-144.003 -581.63,-144.003 	"/>
</g>
<g>
	<rect x="-723.232" y="-63.637" width="56" height="2"/>
	<rect x="-719.232" y="-57.637" width="50" height="2"/>
	<rect x="-713.232" y="-51.637" width="36" height="2"/>
	<rect x="-721.232" y="-69.637" width="52" height="2"/>
	<path d="M-709.358-77.642c0.175,0,0.347,0.014,0.519,0.025l0.149,0.01l1.316,0.088l0.598-1.176
		c2.493-4.899,7.443-7.942,12.92-7.942c6.79,0,12.75,4.814,14.171,11.448l0.318,1.482l1.514,0.095
		c1.207,0.075,2.335,0.425,3.336,0.975h3.286c-1.678-1.703-3.957-2.813-6.498-2.971c-1.596-7.445-8.207-13.029-16.127-13.029
		c-6.423,0-11.977,3.678-14.702,9.035c-0.266-0.018-0.53-0.04-0.8-0.04c-4.843,0-9.004,2.874-10.9,7.005h2.251
		C-716.276-75.623-713.052-77.642-709.358-77.642z"/>
</g>
<g>
	<rect x="-602.13" y="-91.151" width="2" height="7.973"/>
	<rect x="-621.13" y="-72.237" width="7.973" height="2"/>
	<rect x="-616.457" y="-83.504" transform="matrix(0.7071 0.7071 -0.7071 0.7071 -237.7273 408.9167)" width="7.974" height="2"/>
	<rect x="-590.948" y="-86.486" transform="matrix(0.7071 0.7071 -0.7071 0.7071 -231.1281 392.9927)" width="2" height="7.972"/>
	<rect x="-612.13" y="-57.277" width="50" height="2"/>
	<rect x="-608.13" y="-51.277" width="44" height="2"/>
	<rect x="-602.13" y="-46.277" width="30" height="2"/>
	<rect x="-610.13" y="-63.277" width="46" height="2"/>
	<path d="M-609.222-65.277h0.771h1.927h1.012c1.472-1.087,3.283-1.737,5.249-1.737c0.15,0,0.299,0.012,0.447,0.022l0.148,0.01
		l1.314,0.085l0.597-1.175c2.225-4.372,6.644-7.089,11.532-7.089c5.945,0,11.168,4.139,12.563,9.884h2.043v-0.084
		c-1.444-6.742-7.433-11.8-14.605-11.8c-2.185,0-4.258,0.47-6.126,1.313c-1.667-3.202-5.007-5.394-8.866-5.394
		c-5.522,0-10,4.477-10,9.999C-611.216-69.001-610.468-66.942-609.222-65.277z M-601.216-79.241c3.091,0,5.76,1.773,7.091,4.345
		c-2.298,1.44-4.178,3.488-5.413,5.918c-0.241-0.016-0.48-0.036-0.725-0.036c-2.764,0-5.274,1.045-7.189,2.745
		c-1.097-1.366-1.764-3.089-1.764-4.973C-609.216-75.652-605.627-79.241-601.216-79.241z"/>
</g>
<g>
	<rect x="-513.386" y="-60.715" width="50" height="2"/>
	<rect x="-509.386" y="-54.715" width="44" height="2"/>
	<rect x="-503.386" y="-49.715" width="30" height="2"/>
	<rect x="-511.386" y="-66.715" width="46" height="2"/>
	<path d="M-509.743-68.715h0.037h1.884h1.055c1.472-1.087,3.283-1.737,5.249-1.737c0.15,0,0.299,0.012,0.447,0.022l0.148,0.01
		l1.314,0.085l0.597-1.175c2.225-4.372,6.644-7.089,11.532-7.089c5.945,0,11.168,4.139,12.563,9.884h2.043v-0.084
		c-1.444-6.742-7.433-11.8-14.605-11.8c-1.799,0-3.521,0.32-5.117,0.903c-0.945-5.111-5.402-8.987-10.789-8.987
		c-0.413,0-0.819,0.027-1.222,0.071c0.744,1.112,1.179,2.448,1.179,3.886c0,3.865-3.134,7-7,7c-1.438,0-2.773-0.435-3.886-1.179
		c-0.044,0.401-0.071,0.809-0.071,1.222C-514.386-73.979-512.55-70.708-509.743-68.715z M-510.429-75.726c4.963,0,9-4.037,9-9
		c0-0.603-0.06-1.198-0.177-1.78c3.735,0.753,6.633,3.828,7.134,7.647c-2.712,1.443-4.927,3.699-6.322,6.442
		c-0.241-0.016-0.48-0.036-0.725-0.036c-2.534,0-4.855,0.879-6.701,2.335c-2.02-1.293-3.5-3.356-3.989-5.785
		C-511.627-75.785-511.031-75.726-510.429-75.726z"/>
</g>
<g>
	<path d="M-381.494-57.701h-19.474l-0.578-0.003c-5.485-0.027-9.948-4.513-9.948-9.998c0-5.514,4.485-10,9.999-10
		c0.175,0,0.347,0.014,0.519,0.025l0.149,0.01l1.316,0.088l0.598-1.176c2.493-4.899,7.443-7.942,12.92-7.942
		c6.79,0,12.75,4.814,14.171,11.448l0.318,1.482l1.514,0.095c1.822,0.113,3.463,0.845,4.746,1.971h2.732
		c-1.707-2.262-4.348-3.78-7.354-3.967c-1.596-7.445-8.207-13.029-16.127-13.029c-6.423,0-11.977,3.678-14.702,9.035
		c-0.266-0.018-0.53-0.04-0.8-0.04c-6.627,0-11.999,5.372-11.999,12c0,6.607,5.34,11.965,11.938,11.998v0.003h20.062
		c2.205,0,4,1.794,4,4s-1.795,4-4,4v2c3.314,0,6-2.686,6-6C-375.494-55.015-378.18-57.701-381.494-57.701z"/>
	<path d="M-377.494-61.701h-15.988v2h15.988c3.314,0,6-2.687,6-6c0-3.314-2.686-6-6-6v2c2.205,0,4,1.794,4,4
		S-375.289-61.701-377.494-61.701z"/>
	<path d="M-364.494-67.701c1.654,0,3,1.346,3,3s-1.346,3-3,3c-0.043,0-0.083-0.011-0.126-0.013h-4.862
		c0.003,0.005,0.009,0.008,0.012,0.013h-0.023v2h5.5v-0.051c2.523-0.254,4.5-2.358,4.5-4.949c0-2.762-2.238-5-5-5V-67.701z"/>
	<path d="M-360.494-57.701h-13v2h9.022c-0.004,0.005-0.008,0.008-0.011,0.013h3.862c0.043-0.002,0.083-0.013,0.126-0.013
		c1.654,0,3,1.346,3,3s-1.346,3-3,3v2c2.762,0,5-2.238,5-5S-357.732-57.701-360.494-57.701z"/>
	<rect x="-399.494" y="-61.701" width="4" height="2"/>
</g>
<path d="M-589.056-456.805c6.95,1.305,12.226,7.419,12.226,14.742c0,8.272-6.729,15.002-15,15.002
	c-6.79,0-12.531-4.49-14.366-10.728c1.398,0.461,2.867,0.698,4.366,0.698c7.72,0,14-6.281,14-14.001
	C-587.83-453.075-588.254-455.02-589.056-456.805 M-591.83-459.062c-0.338,0-0.668,0.031-1,0.051c1.861,2.113,3,4.881,3,7.92
	c0,6.627-5.372,12.001-12,12.001c-2.599,0-4.998-0.835-6.963-2.239c0.387,9.047,7.821,16.269,16.963,16.269
	c9.39,0,17-7.612,17-17.002S-582.44-459.062-591.83-459.062L-591.83-459.062z"/>
<g>
	<path d="M-695.226-454.066c-7.18,0-13,5.819-13,12.999c0,7.181,5.82,13.002,13,13.002s13-5.821,13-13.002
		C-682.226-448.247-688.046-454.066-695.226-454.066z M-695.226-430.065c-6.065,0-11-4.936-11-11.002
		c0-6.064,4.935-10.999,11-10.999s11,4.935,11,10.999C-684.226-435.001-689.16-430.065-695.226-430.065z"/>
	<rect x="-696.232" y="-467.061" width="2" height="10"/>
	<rect x="-696.232" y="-425.061" width="2" height="10"/>
	<rect x="-721.226" y="-442.061" width="9.993" height="2"/>
	<rect x="-679.232" y="-442.061" width="10.007" height="2"/>
	<rect x="-681.533" y="-460.975" transform="matrix(0.7071 0.7071 -0.7071 0.7071 -521.6015 347.7173)" width="2" height="10.409"/>
	
		<rect x="-710.941" y="-431.566" transform="matrix(-0.7071 -0.7071 0.7071 -0.7071 -910.4631 -1229.8479)" width="2" height="10.41"/>
	<rect x="-715.142" y="-456.765" transform="matrix(0.7071 0.7071 -0.7071 0.7071 -530.2103 368.5107)" width="10.409" height="2"/>
	
		<rect x="-685.733" y="-427.356" transform="matrix(-0.7072 -0.7071 0.7071 -0.7072 -860.3073 -1209.0294)" width="10.41" height="2"/>
</g>
<g>
	<rect x="-297.06" y="-96.199" width="2" height="7.973"/>
	<rect x="-316.032" y="-77.213" width="7.973" height="2"/>
	<rect x="-311.306" y="-88.432" transform="matrix(0.7071 0.7071 -0.7071 0.7071 -151.8353 191.6995)" width="7.974" height="2"/>
	<rect x="-285.798" y="-91.413" transform="matrix(0.7071 0.7071 -0.7071 0.7071 -145.2361 175.7755)" width="2" height="7.972"/>
	<path d="M-282.032-54.199l0.005-0.007h-12.536l-0.594-0.003c-4.864-0.024-8.822-4.001-8.822-8.865c0-4.89,3.978-8.868,8.867-8.868
		c0.15,0,0.299,0.012,0.447,0.021l0.148,0.011l1.314,0.085l0.597-1.174c2.225-4.373,6.644-7.09,11.532-7.09
		c5.916,0,11.114,4.099,12.54,9.8h2.065c-1.444-6.742-7.433-11.8-14.605-11.8c-2.185,0-4.258,0.47-6.126,1.313
		c-1.667-3.202-5.007-5.394-8.866-5.394c-5.522,0-10,4.477-10,9.999c0,2.46,0.899,4.702,2.373,6.442
		c-1.429,1.84-2.287,4.144-2.287,6.653c0,5.983,4.836,10.836,10.813,10.865v0.003h13.135v0.007c2.205,0,4,1.794,4,4s-1.795,4-4,4v2
		c3.314,0,6-2.686,6-6C-276.032-51.513-278.718-54.199-282.032-54.199z M-296.065-84.169c3.091,0,5.76,1.773,7.091,4.345
		c-2.298,1.439-4.178,3.488-5.413,5.918c-0.241-0.016-0.48-0.036-0.725-0.036c-2.766,0-5.282,1.042-7.2,2.743
		c-1.092-1.367-1.753-3.09-1.753-4.971C-304.065-80.58-300.477-84.169-296.065-84.169z"/>
	<path d="M-278.032-58.199h-9.988v2h9.988c3.314,0,6-2.687,6-6c0-3.314-2.686-6-6-6v2c2.205,0,4,1.794,4,4
		S-275.827-58.199-278.032-58.199z"/>
	<path d="M-270.009-58.199h-0.023v2h5.5v-0.051c2.523-0.254,4.5-2.358,4.5-4.949c0-2.762-2.238-5-5-5v2c1.654,0,3,1.346,3,3
		s-1.346,3-3,3c-0.043,0-0.083-0.011-0.126-0.013h-4.862C-270.018-58.207-270.012-58.203-270.009-58.199z"/>
	<path d="M-261.032-54.199h-13v2h9.022c-0.004,0.004-0.008,0.008-0.011,0.013h3.862c0.043-0.002,0.083-0.013,0.126-0.013
		c1.654,0,3,1.346,3,3s-1.346,3-3,3v2c2.762,0,5-2.238,5-5S-258.271-54.199-261.032-54.199z"/>
	<rect x="-294.032" y="-58.199" width="4" height="2"/>
</g>
<g>
	<path d="M-182.07-56.205l0.005-0.007h-12.536l-0.594-0.003c-4.864-0.024-8.822-4.001-8.822-8.865c0-4.89,3.978-8.868,8.867-8.868
		c0.15,0,0.299,0.012,0.447,0.021l0.148,0.011l1.314,0.085l0.597-1.174c2.225-4.373,6.644-7.09,11.532-7.09
		c5.916,0,11.114,4.099,12.54,9.8h2.065c-1.444-6.742-7.433-11.8-14.605-11.8c-1.806,0-3.536,0.322-5.138,0.91
		c-0.938-5.123-5.4-9.01-10.794-9.01c-0.413,0-0.819,0.027-1.222,0.071c0.744,1.112,1.179,2.448,1.179,3.886c0,3.865-3.134,7-7,7
		c-1.438,0-2.773-0.435-3.886-1.179c-0.044,0.401-0.071,0.809-0.071,1.222c0,3.725,1.858,7.009,4.69,8.998
		c-1.655,1.907-2.665,4.392-2.665,7.116c0,5.983,4.836,10.836,10.813,10.865v0.003h13.135v0.007c2.205,0,4,1.794,4,4s-1.795,4-4,4v2
		c3.314,0,6-2.686,6-6C-176.07-53.519-178.756-56.205-182.07-56.205z M-205.866-79.414c0.582,0.117,1.178,0.177,1.78,0.177
		c4.963,0,9-4.037,9-9c0-0.603-0.06-1.198-0.177-1.78c3.744,0.755,6.646,3.842,7.138,7.674c-2.702,1.444-4.909,3.696-6.301,6.432
		c-0.241-0.016-0.48-0.036-0.725-0.036c-2.535,0-4.861,0.875-6.71,2.33C-203.889-74.91-205.375-76.979-205.866-79.414z"/>
	<path d="M-178.07-60.205h-9.988v2h9.988c3.314,0,6-2.687,6-6c0-3.314-2.686-6-6-6v2c2.205,0,4,1.794,4,4
		S-175.865-60.205-178.07-60.205z"/>
	<path d="M-170.047-60.205h-0.023v2h5.5v-0.051c2.523-0.254,4.5-2.358,4.5-4.949c0-2.762-2.238-5-5-5v2c1.654,0,3,1.346,3,3
		s-1.346,3-3,3c-0.043,0-0.083-0.011-0.126-0.013h-4.862C-170.056-60.213-170.05-60.209-170.047-60.205z"/>
	<path d="M-161.07-56.205h-13v2h9.022c-0.004,0.004-0.008,0.008-0.011,0.013h3.862c0.043-0.002,0.083-0.013,0.126-0.013
		c1.654,0,3,1.346,3,3s-1.346,3-3,3v2c2.762,0,5-2.238,5-5S-158.309-56.205-161.07-56.205z"/>
	<rect x="-194.07" y="-60.205" width="4" height="2"/>
</g>
<g>
	<rect x="-81.178" y="-93.637" width="2" height="10"/>
	<rect x="-106.171" y="-68.637" width="9.993" height="2"/>
	<rect x="-66.478" y="-87.551" transform="matrix(0.7071 0.7071 -0.7071 0.7071 -77.4056 22.1813)" width="2" height="10.409"/>
	<rect x="-100.087" y="-83.341" transform="matrix(0.7071 0.7071 -0.7071 0.7071 -86.0145 42.9747)" width="10.409" height="2"/>
	<path d="M-76.178-53.637h-24v2h24c2.205,0,4,1.794,4,4s-1.795,4-4,4v2c3.314,0,6-2.686,6-6
		C-70.178-50.95-72.863-53.637-76.178-53.637z"/>
	<path d="M-64.154-57.637h-0.023v2h5.5v-0.051c2.523-0.254,4.5-2.358,4.5-4.949c0-2.762-2.238-5-5-5v2c1.654,0,3,1.346,3,3
		s-1.346,3-3,3c-0.043,0-0.083-0.011-0.126-0.013h-4.862C-64.163-57.645-64.157-57.641-64.154-57.637z"/>
	<path d="M-55.178-53.637h-13v2h9.022c-0.004,0.004-0.008,0.008-0.011,0.013h3.862c0.043-0.002,0.083-0.013,0.126-0.013
		c1.654,0,3,1.346,3,3s-1.346,3-3,3v2c2.762,0,5-2.238,5-5S-52.416-53.637-55.178-53.637z"/>
	<path d="M-88.469-57.637h-11.709v2h12.012h0.822h15.166c3.314,0,6-2.687,6-6c0-3.314-2.686-6-6-6v2c2.205,0,4,1.794,4,4
		s-1.795,4-4,4h-12.538c-3.802-1.734-6.455-5.563-6.455-10.007c0-6.064,4.935-10.999,11-10.999c5.384,0,9.868,3.891,10.81,9.006
		h2.021c-0.961-6.23-6.331-11.006-12.831-11.006c-7.18,0-13,5.819-13,12.999C-93.171-63.618-91.341-60.021-88.469-57.637z"/>
</g>
<g>
	<path d="M24.049-60.193h-24v2h24c2.205,0,4,1.794,4,4s-1.795,4-4,4v2c3.314,0,6-2.686,6-6
		C30.049-57.507,27.363-60.193,24.049-60.193z"/>
	<path d="M41.549-62.193v-0.051c2.523-0.254,4.5-2.358,4.5-4.949c0-2.762-2.238-5-5-5v2c1.654,0,3,1.346,3,3s-1.346,3-3,3
		c-0.043,0-0.083-0.011-0.126-0.013h-4.862c0.004,0.005,0.009,0.009,0.012,0.013h-0.023v2H41.549z"/>
	<path d="M45.049-60.193h-13v2h9.022c-0.003,0.004-0.007,0.008-0.011,0.013h3.862c0.043-0.002,0.083-0.013,0.126-0.013
		c1.654,0,3,1.346,3,3s-1.346,3-3,3v2c2.762,0,5-2.238,5-5S47.811-60.193,45.049-60.193z"/>
	<path d="M12.883-62.193h15.166c3.314,0,6-2.687,6-6c0-3.314-2.686-6-6-6v2c2.205,0,4,1.794,4,4s-1.795,4-4,4H15.463
		c-2.596-1.188-4.658-3.339-5.69-6.034c0.849,0.204,1.724,0.309,2.612,0.309c6.168,0,11.187-5.019,11.187-11.188
		c0-1.276-0.22-2.532-0.64-3.717c4.046,1.102,7.168,4.459,7.937,8.63h2.018c-0.964-6.237-6.338-11.016-12.846-11.016
		c-0.259,0-0.511,0.024-0.766,0.039c1.425,1.618,2.297,3.737,2.297,6.063c0,5.072-4.112,9.188-9.187,9.188
		c-1.988,0-3.826-0.641-5.33-1.715c0.162,3.801,1.962,7.165,4.699,9.44H0.049v2h12.012H12.883z"/>
</g>
<g>
	<path d="M-695.732,25h-20c-1.103,0-2-0.897-2-2s0.897-2,2-2h3.445h0.555v-2h-4c-2.209,0-4,1.791-4,4s1.791,4,4,4h20
		c2.205,0,4,1.794,4,4s-1.795,4-4,4v2c3.314,0,6-2.686,6-6C-689.732,27.687-692.418,25-695.732,25z"/>
	<path d="M-693.732,9v2c2.205,0,4,1.794,4,4s-1.795,4-4,4h-15.988v2h15.988c3.314,0,6-2.687,6-6
		C-687.732,11.686-690.418,9-693.732,9z"/>
	<path d="M-687.732,21v2h5.5v-0.051c2.523-0.254,4.5-2.358,4.5-4.949c0-2.762-2.238-5-5-5v2c1.654,0,3,1.346,3,3s-1.346,3-3,3
		c-0.043,0-0.083-0.011-0.126-0.013h-4.862c0.003,0.005,0.009,0.009,0.012,0.013H-687.732z"/>
	<path d="M-676.732,25h-11v2h7.022c-0.004,0.004-0.008,0.008-0.011,0.013h3.862c0.043-0.002,0.083-0.013,0.126-0.013
		c1.654,0,3,1.346,3,3s-1.346,3-3,3v2c2.762,0,5-2.238,5-5S-673.971,25-676.732,25z"/>
</g>
<path d="M-159.44,11.347v-0.038h-38.376c-1.103,0-2-0.897-2-2s0.897-2,2-2h33c2.762,0,5-2.238,5-5s-2.238-5-5-5h-37.875v0.008
	c-0.042-0.001-0.083-0.008-0.125-0.008c-2.762,0-5,2.238-5,5s2.238,5,5,5v-2c-1.654,0-3-1.346-3-3s1.346-3,3-3h0.125h3.853h34.022
	c1.654,0,3,1.346,3,3s-1.346,3-3,3h-33c-2.209,0-4,1.791-4,4s1.791,4,4,4h38c1.103,0,2,0.897,2,2s-0.897,2-2,2h-32
	c-2.209,0-4,1.791-4,4s1.791,4,4,4h22c1.103,0,2,0.897,2,2s-0.897,2-2,2h-24.01v0.001c-2.204,0.006-3.99,1.793-3.99,3.999
	s1.786,3.993,3.99,3.999v0.001h12.01c1.103,0,2,0.897,2,2s-0.897,2-2,2h-2c-2.209,0-4,1.791-4,4s1.791,4,4,4v-2
	c-1.103,0-2-0.897-2-2s0.897-2,2-2h2c2.209,0,4-1.791,4-4s-1.791-4-4-4h-12c-1.103,0-2-0.897-2-2s0.897-2,2-2h24
	c2.209,0,4-1.791,4-4c0-2.152-1.704-3.895-3.834-3.983v-0.017h-22.166c-1.103,0-2-0.897-2-2s0.897-2,2-2h32c2.209,0,4-1.791,4-4
	C-155.816,13.229-157.41,11.539-159.44,11.347z"/>
<path d="M25.975,2.024V0h-2v2.024C10.965,2.537,0.513,12.989,0,26h1.674c1.14-1.222,2.748-2,4.551-2c2.26,0,4.233,1.203,5.331,3
	h1.838c1.098-1.797,3.071-3,5.331-3c2.204,0,4.137,1.144,5.25,2.866V42c0,2.21,1.791,4,4,4s4-1.79,4-4h-2c0,1.103-0.897,2-2,2
	s-2-0.897-2-2V26.866C27.088,25.144,29.021,24,31.225,24c2.26,0,4.233,1.203,5.331,3h1.838c1.098-1.797,3.071-3,5.331-3
	c1.803,0,3.411,0.778,4.551,2h1.674C49.437,12.989,38.984,2.537,25.975,2.024z M43.725,22c-2.496,0-4.736,1.114-6.25,2.87
	c-1.514-1.756-3.754-2.87-6.25-2.87s-4.736,1.114-6.25,2.87c-1.514-1.756-3.754-2.87-6.25-2.87s-4.736,1.114-6.25,2.87
	C10.961,23.114,8.72,22,6.225,22c-1.402,0-2.731,0.351-3.897,0.975C4.236,12.206,13.666,4,24.975,4s20.738,8.206,22.647,18.975
	C46.456,22.351,45.127,22,43.725,22z"/>
<g>
	<path d="M-379.32,126.313v-17.105c0-2.762-2.238-5-5-5s-5,2.238-5,5v17.105c-1.236,1.263-2,2.988-2,4.895c0,3.866,3.134,7,7,7
		s7-3.134,7-7C-377.32,129.301-378.084,127.575-379.32,126.313z M-384.32,136.207c-2.757,0-5-2.243-5-5
		c0-1.313,0.508-2.554,1.429-3.495l0.571-0.583v-0.816v-17.105c0-1.654,1.346-3,3-3s3,1.346,3,3v17.105v0.816l0.571,0.583
		c0.921,0.941,1.429,2.183,1.429,3.495C-379.32,133.964-381.563,136.207-384.32,136.207z"/>
	<path d="M-383.32,128.383v-15.176h-2v15.176c-1.167,0.413-2.008,1.516-2.008,2.824c0,1.662,1.347,3.008,3.008,3.008
		c1.662,0,3.008-1.346,3.008-3.008C-381.313,129.898-382.152,128.796-383.32,128.383z M-384.32,132.215
		c-0.556,0-1.008-0.452-1.008-1.008s0.452-1.008,1.008-1.008s1.008,0.452,1.008,1.008S-383.765,132.215-384.32,132.215z"/>
</g>
<g>
	<path d="M-279.532,126.313v-17.105c0-2.762-2.238-5-5-5s-5,2.238-5,5v17.105c-1.236,1.263-2,2.988-2,4.895c0,3.866,3.134,7,7,7
		s7-3.134,7-7C-277.532,129.301-278.296,127.575-279.532,126.313z M-284.532,136.207c-2.757,0-5-2.243-5-5
		c0-1.313,0.508-2.554,1.429-3.495l0.571-0.583v-0.816v-17.105c0-1.654,1.346-3,3-3s3,1.346,3,3v17.105v0.816l0.571,0.583
		c0.921,0.941,1.429,2.183,1.429,3.495C-279.532,133.964-281.775,136.207-284.532,136.207z"/>
	<path d="M-283.532,128.383v-20.176h-2v20.176c-1.167,0.413-2.008,1.516-2.008,2.824c0,1.662,1.347,3.008,3.008,3.008
		c1.662,0,3.008-1.346,3.008-3.008C-281.524,129.898-282.364,128.796-283.532,128.383z M-284.532,132.215
		c-0.556,0-1.008-0.452-1.008-1.008s0.452-1.008,1.008-1.008s1.008,0.452,1.008,1.008S-283.977,132.215-284.532,132.215z"/>
</g>
<g>
	<path d="M-482.43,126.313v-17.105c0-2.762-2.238-5-5-5s-5,2.238-5,5v17.105c-1.236,1.263-2,2.988-2,4.895c0,3.866,3.134,7,7,7
		s7-3.134,7-7C-480.43,129.301-481.193,127.575-482.43,126.313z M-487.43,136.207c-2.757,0-5-2.243-5-5
		c0-1.313,0.508-2.554,1.429-3.495l0.571-0.583v-0.816v-17.105c0-1.654,1.346-3,3-3s3,1.346,3,3v17.105v0.816l0.571,0.583
		c0.921,0.941,1.429,2.183,1.429,3.495C-482.43,133.964-484.673,136.207-487.43,136.207z"/>
	<path d="M-486.43,128.383v-10.176h-2v10.176c-1.167,0.413-2.008,1.516-2.008,2.824c0,1.662,1.347,3.008,3.008,3.008
		c1.662,0,3.008-1.346,3.008-3.008C-484.422,129.898-485.262,128.796-486.43,128.383z M-487.43,132.215
		c-0.556,0-1.008-0.452-1.008-1.008s0.452-1.008,1.008-1.008s1.008,0.452,1.008,1.008S-486.874,132.215-487.43,132.215z"/>
</g>
<g>
	<path d="M-586.075,126.313v-17.105c0-2.762-2.238-5-5-5s-5,2.238-5,5v17.105c-1.236,1.263-2,2.988-2,4.895c0,3.866,3.134,7,7,7
		s7-3.134,7-7C-584.075,129.301-584.839,127.575-586.075,126.313z M-591.075,136.207c-2.757,0-5-2.243-5-5
		c0-1.313,0.508-2.554,1.429-3.495l0.571-0.583v-0.816v-17.105c0-1.654,1.346-3,3-3s3,1.346,3,3v17.105v0.816l0.571,0.583
		c0.921,0.941,1.429,2.183,1.429,3.495C-586.075,133.964-588.318,136.207-591.075,136.207z"/>
	<path d="M-590.075,128.383v-5.176h-2v5.176c-1.167,0.413-2.008,1.516-2.008,2.824c0,1.662,1.347,3.008,3.008,3.008
		c1.662,0,3.008-1.346,3.008-3.008C-588.067,129.898-588.907,128.796-590.075,128.383z M-591.075,132.215
		c-0.556,0-1.008-0.452-1.008-1.008s0.452-1.008,1.008-1.008s1.008,0.452,1.008,1.008S-590.52,132.215-591.075,132.215z"/>
</g>
<g>
	<path d="M-690.732,126.313v-17.105c0-2.762-2.238-5-5-5s-5,2.238-5,5v17.105c-1.236,1.263-2,2.988-2,4.895c0,3.866,3.134,7,7,7
		s7-3.134,7-7C-688.732,129.301-689.496,127.575-690.732,126.313z M-695.732,136.207c-2.757,0-5-2.243-5-5
		c0-1.313,0.508-2.554,1.429-3.495l0.571-0.583v-0.816v-17.105c0-1.654,1.346-3,3-3s3,1.346,3,3v17.105v0.816l0.571,0.583
		c0.921,0.941,1.429,2.183,1.429,3.495C-690.732,133.964-692.976,136.207-695.732,136.207z"/>
	<path d="M-695.732,128.199c-1.661,0-3.008,1.347-3.008,3.008c0,1.662,1.347,3.008,3.008,3.008c1.662,0,3.008-1.346,3.008-3.008
		C-692.725,129.546-694.07,128.199-695.732,128.199z M-695.732,132.215c-0.556,0-1.008-0.452-1.008-1.008s0.452-1.008,1.008-1.008
		s1.008,0.452,1.008,1.008S-695.177,132.215-695.732,132.215z"/>
</g>
<g>
	<path d="M-190.808,106.52c-2.209,0-4,1.791-4,4c0,2.21,1.791,4,4,4c2.211,0,4-1.79,4-4
		C-186.808,108.311-188.597,106.52-190.808,106.52z M-190.808,112.52c-1.103,0-2-0.897-2-2s0.897-2,2-2s2,0.897,2,2
		S-189.705,112.52-190.808,112.52z"/>
	<path d="M-176.808,134.52c-4.41,0-7.999-3.589-7.999-7.999v-4.002c0-4.41,3.589-7.999,7.999-7.999c2.715,0,5.115,1.362,6.563,3.437
		l1.43-1.43c-1.824-2.429-4.72-4.007-7.992-4.007c-5.522,0-9.999,4.478-9.999,9.999v4.002c0,5.521,4.477,9.999,9.999,9.999
		c3.272,0,6.168-1.579,7.992-4.008l-1.43-1.43C-171.691,133.156-174.092,134.52-176.808,134.52z"/>
</g>
<g>
	<path d="M-86.111,106.398c-2.209,0-4,1.791-4,4c0,2.21,1.791,4,4,4c2.211,0,4-1.79,4-4
		C-82.111,108.189-83.9,106.398-86.111,106.398z M-86.111,112.398c-1.103,0-2-0.897-2-2s0.897-2,2-2s2,0.897,2,2
		S-85.009,112.398-86.111,112.398z"/>
	<polygon points="-66.236,114.52 -66.236,112.52 -78.236,112.52 -80.236,112.52 -80.236,136.52 -78.236,136.52 -78.236,124.52 
		-70.236,124.52 -70.236,122.52 -78.236,122.52 -78.236,114.52 	"/>
</g>
<g>
	<path d="M24.975,110.211c-7.179,0-13,5.82-13,13s5.821,13,13,13s13-5.82,13-13S32.153,110.211,24.975,110.211z M24.975,134.211
		c-6.065,0-11-4.935-11-11s4.935-11,11-11s11,4.935,11,11S31.04,134.211,24.975,134.211z"/>
	<path d="M20.708,127.453l6.363-2.121l2.121-6.364l-6.363,2.122L20.708,127.453z M24.41,122.671l1.62-0.54l-0.54,1.62l-1.62,0.54
		L24.41,122.671z"/>
</g>
<g>
	<path d="M-695.732,200.729c-7.179,0-13,5.82-13,13s5.821,13,13,13s13-5.82,13-13S-688.554,200.729-695.732,200.729z
		 M-695.732,224.729c-6.065,0-11-4.934-11-11c0-6.064,4.935-11,11-11s11,4.936,11,11
		C-684.732,219.795-689.667,224.729-695.732,224.729z"/>
	<path d="M-693.171,212.15l-2.586-4.422l-2.529,4.33h0.007c-0.299,0.467-0.478,1.018-0.478,1.613c0,1.656,1.343,3,3,3s3-1.344,3-3
		c0-0.559-0.162-1.074-0.428-1.521H-693.171z M-695.757,214.672c-0.552,0-1-0.449-1-1c0-0.188,0.055-0.367,0.162-0.535l0.864-1.355
		l0.826,1.391c0.098,0.164,0.147,0.332,0.147,0.5C-694.757,214.223-695.205,214.672-695.757,214.672z"/>
</g>
<g>
	<path d="M-590.948,200.729c-7.18,0-13,5.82-13,13s5.82,13,13,13s13-5.82,13-13S-583.769,200.729-590.948,200.729z
		 M-590.948,224.729c-6.065,0-11-4.934-11-11c0-6.064,4.935-11,11-11s11,4.936,11,11
		C-579.948,219.795-584.883,224.729-590.948,224.729z"/>
	<path d="M-589.359,211.148c-0.467-0.299-1.018-0.477-1.613-0.477c-1.658,0-3,1.342-3,3c0,1.656,1.342,3,3,3
		c0.557,0,1.072-0.162,1.52-0.428v0.014l4.422-2.586l-4.328-2.529V211.148z M-590.475,214.523c-0.164,0.098-0.332,0.148-0.498,0.148
		c-0.552,0-1-0.449-1-1c0-0.553,0.448-1,1-1c0.188,0,0.368,0.053,0.535,0.16l1.355,0.865L-590.475,214.523z"/>
</g>
<g>
	<path d="M-487.897,200.729c-7.18,0-13,5.82-13,13s5.82,13,13,13s13-5.82,13-13S-480.718,200.729-487.897,200.729z
		 M-487.897,224.729c-6.065,0-11-4.934-11-11c0-6.064,4.935-11,11-11s11,4.936,11,11
		C-476.897,219.795-481.832,224.729-487.897,224.729z"/>
	<path d="M-487.897,210.672c-1.656,0-3,1.342-3,3c0,0.557,0.162,1.072,0.428,1.52h-0.014l2.586,4.422l2.529-4.328h-0.006
		c0.299-0.467,0.477-1.018,0.477-1.613C-484.897,212.014-486.239,210.672-487.897,210.672z M-487.059,214.207l-0.865,1.355
		l-0.826-1.393c-0.098-0.164-0.147-0.332-0.147-0.498c0-0.553,0.448-1,1-1s1,0.447,1,1
		C-486.897,213.859-486.951,214.039-487.059,214.207z"/>
</g>
<g>
	<path d="M-384.483,200.729c-7.179,0-13,5.82-13,13s5.821,13,13,13s13-5.82,13-13S-377.305,200.729-384.483,200.729z
		 M-384.483,224.729c-6.065,0-11-4.934-11-11c0-6.064,4.935-11,11-11s11,4.936,11,11
		C-373.483,219.795-378.418,224.729-384.483,224.729z"/>
	<path d="M-384.524,210.672c-0.557,0-1.072,0.162-1.52,0.428v-0.014l-4.422,2.586l4.328,2.529v-0.006
		c0.467,0.299,1.018,0.477,1.613,0.477c1.658,0,3-1.342,3-3C-381.524,212.016-382.866,210.672-384.524,210.672z M-384.524,214.672
		c-0.188,0-0.368-0.055-0.535-0.162l-1.355-0.865l1.393-0.826c0.164-0.098,0.332-0.146,0.498-0.146c0.552,0,1,0.447,1,1
		C-383.524,214.223-383.973,214.672-384.524,214.672z"/>
</g>
<g>
	<rect x="-592.635" y="4" width="2" height="10"/>
	<rect x="-577.935" y="10.086" transform="matrix(0.7071 0.7071 -0.7071 0.7071 -158.1683 412.4332)" width="2" height="10.409"/>
	<rect x="-611.544" y="14.296" transform="matrix(0.7071 0.7071 -0.7071 0.7071 -166.7772 433.2266)" width="10.409" height="2"/>
	<polygon points="-598.303,33.254 -596.889,34.668 -592.635,30.414 -592.635,40 -590.635,40 -590.635,30.414 -586.382,34.668 
		-584.968,33.254 -591.635,26.586 	"/>
	<path d="M-578.628,29.999c0-0.002,0-0.004,0-0.006c0-7.18-5.82-12.999-13-12.999s-13,5.819-13,12.999c0,0.002,0,0.004,0,0.006h-13
		v2h18v-2h-3c0-0.002,0-0.004,0-0.006c0-6.064,4.935-10.999,11-10.999s11,4.935,11,10.999c0,0.002,0,0.004,0,0.006h-3v2h17.995v-2
		H-578.628z"/>
</g>
<g>
	<rect x="-488.89" y="2.813" width="2" height="10"/>
	<rect x="-474.19" y="8.898" transform="matrix(0.7071 0.7071 -0.7071 0.7071 -128.6218 338.7265)" width="2" height="10.409"/>
	<rect x="-507.799" y="13.108" transform="matrix(0.7071 0.7071 -0.7071 0.7071 -137.2307 359.5199)" width="10.409" height="2"/>
	<polygon points="-486.89,37.359 -486.89,26.813 -488.89,26.813 -488.89,37.359 -493.144,33.105 -494.558,34.52 -487.89,41.188 
		-481.223,34.52 -482.637,33.105 	"/>
	<path d="M-474.883,28.812c0-0.002,0-0.004,0-0.006c0-7.18-5.82-12.999-13-12.999s-13,5.819-13,12.999c0,0.002,0,0.004,0,0.006h-13
		v2h22v-2h-7c0-0.002,0-0.004,0-0.006c0-6.064,4.935-10.999,11-10.999s11,4.935,11,10.999c0,0.002,0,0.004,0,0.006h-7v2h21.995v-2
		H-474.883z"/>
</g>
<g>
	<polygon points="-284.532,36.825 -284.532,22.442 -286.532,22.442 -286.532,36.825 -290.786,32.571 -292.2,33.985 -285.532,40.653 
		-278.865,33.985 -280.279,32.571 	"/>
	<path d="M-268.904,17.472c-1.596-7.445-8.207-13.029-16.127-13.029c-6.423,0-11.977,3.678-14.702,9.035
		c-0.266-0.018-0.53-0.04-0.8-0.04c-6.627,0-11.999,5.372-11.999,12c0,6.607,5.34,11.965,11.938,11.998v0.003h6.062v-2h-5.604
		l-0.447-0.003c-5.485-0.027-9.948-4.513-9.948-9.998c0-5.514,4.485-10,9.999-10c0.175,0,0.347,0.014,0.52,0.025l0.148,0.01
		l1.316,0.088l0.598-1.176c2.492-4.899,7.443-7.942,12.92-7.942c6.79,0,12.75,4.814,14.172,11.448l0.317,1.482l1.514,0.095
		c4.203,0.262,7.496,3.763,7.496,7.971c0,4.397-3.565,7.977-7.957,8c-0.05-0.003-0.093-0.005-0.137-0.007l-2.043,0.007h-4.863v2
		h6.863v-0.007c0.046,0.001,0.091,0.007,0.137,0.007c5.521,0,10-4.477,10-10C-259.532,22.128-263.677,17.797-268.904,17.472z"/>
</g>
<g>
	<polygon points="-378.548,33.63 -377.134,32.216 -383.801,25.548 -390.469,32.216 -389.055,33.63 -384.801,29.376 -384.801,41.962 
		-382.801,41.962 -382.801,29.376 	"/>
	<path d="M-367.173,19.067c-1.596-7.445-8.207-13.029-16.127-13.029c-6.423,0-11.977,3.678-14.702,9.035
		c-0.266-0.018-0.53-0.04-0.8-0.04c-6.627,0-11.999,5.372-11.999,12c0,6.607,5.34,11.965,11.938,11.998v0.003h10.062v-2h-9.604
		l-0.447-0.003c-5.485-0.027-9.948-4.513-9.948-9.998c0-5.514,4.485-10,9.999-10c0.175,0,0.347,0.014,0.52,0.025l0.148,0.01
		l1.316,0.088l0.598-1.176c2.492-4.899,7.443-7.942,12.92-7.942c6.79,0,12.75,4.814,14.172,11.448l0.317,1.482l1.514,0.095
		c4.203,0.262,7.496,3.763,7.496,7.971c0,4.397-3.565,7.977-7.957,8c-0.05-0.003-0.093-0.005-0.137-0.007l-2.043,0.007h-8.863v2
		h10.863v-0.007c0.046,0.001,0.091,0.007,0.137,0.007c5.521,0,10-4.477,10-10C-357.801,23.724-361.945,19.393-367.173,19.067z"/>
</g>
<g>
	<path d="M-164.684-170.448c-1.596-7.445-8.207-13.029-16.127-13.029c-6.423,0-11.977,3.678-14.702,9.035
		c-0.266-0.018-0.53-0.04-0.8-0.04c-6.627,0-11.999,5.372-11.999,12c0,6.607,5.34,11.965,11.938,11.998v0.003h2.062v-2h-1.604
		l-0.447-0.003c-5.485-0.027-9.948-4.513-9.948-9.998c0-5.514,4.485-10,9.999-10c0.175,0,0.347,0.014,0.52,0.025l0.148,0.01
		l1.316,0.088l0.598-1.176c2.492-4.899,7.443-7.942,12.92-7.942c6.79,0,12.75,4.814,14.172,11.448l0.317,1.482l1.514,0.095
		c4.203,0.262,7.496,3.763,7.496,7.971c0,4.397-3.565,7.977-7.957,8c-0.05-0.003-0.093-0.005-0.137-0.007l-2.043,0.007h-0.863v2
		h2.863v-0.007c0.046,0.001,0.091,0.007,0.137,0.007c5.521,0,10-4.477,10-10C-155.312-165.792-159.456-170.123-164.684-170.448z"/>
	<polygon points="-186.312,-151.46 -186.312,-154.09 -184.139,-152.867 -183.453,-154.088 -185.923,-155.478 -183.453,-156.867 
		-184.139,-158.088 -186.312,-156.865 -186.312,-159.46 -188.312,-159.46 -188.312,-156.821 -190.563,-158.088 -191.248,-156.867 
		-188.778,-155.478 -191.248,-154.088 -190.563,-152.867 -188.312,-154.134 -188.312,-151.46 	"/>
	<polygon points="-181.149,-147.105 -183.322,-145.883 -183.322,-148.478 -185.322,-148.478 -185.322,-145.839 -187.573,-147.105 
		-188.259,-145.885 -185.789,-144.495 -188.259,-143.105 -187.573,-141.885 -185.322,-143.151 -185.322,-140.478 -183.322,-140.478 
		-183.322,-143.107 -181.149,-141.885 -180.464,-143.105 -182.934,-144.495 -180.464,-145.885 	"/>
	<polygon points="-172.134,-154.088 -174.307,-152.865 -174.307,-155.46 -176.307,-155.46 -176.307,-152.821 -178.558,-154.088 
		-179.243,-152.867 -176.773,-151.478 -179.243,-150.088 -178.558,-148.867 -176.307,-150.134 -176.307,-147.46 -174.307,-147.46 
		-174.307,-150.09 -172.134,-148.867 -171.448,-150.088 -173.918,-151.478 -171.448,-152.867 	"/>
</g>
<g>
	<rect x="-89.172" y="-188.5" width="2" height="7.973"/>
	<rect x="-108.172" y="-169.586" width="7.973" height="2"/>
	<rect x="-103.499" y="-180.852" transform="matrix(0.7071 0.7071 -0.7071 0.7071 -156.3213 17.6878)" width="7.974" height="2"/>
	<rect x="-77.99" y="-183.834" transform="matrix(0.7071 0.7071 -0.7071 0.7071 -149.7221 1.7639)" width="2" height="7.972"/>
	<path d="M-58.66-162.71c-1.444-6.742-7.433-11.8-14.605-11.8c-2.185,0-4.258,0.471-6.127,1.314
		c-1.666-3.203-5.006-5.395-8.865-5.395c-5.522,0-10,4.477-10,9.999c0,2.46,0.899,4.702,2.373,6.442
		c-1.428,1.84-2.287,4.144-2.287,6.653c0,5.983,4.836,10.836,10.813,10.865v0.003h1.188v-2h-0.721l-0.457-0.003
		c-4.864-0.023-8.822-4.001-8.822-8.865c0-4.89,3.978-8.868,8.867-8.868c0.15,0,0.299,0.012,0.447,0.022l0.148,0.01l1.314,0.085
		l0.597-1.175c2.225-4.372,6.644-7.089,11.532-7.089c6.062,0,11.382,4.298,12.649,10.219l0.318,1.483l1.514,0.094
		c3.708,0.23,6.612,3.319,6.612,7.03c0,3.878-3.144,7.035-7.017,7.057c-0.042-0.003-0.079-0.005-0.117-0.005l-1.866,0.005v2h1.819
		v-0.006c0.042,0.001,0.082,0.006,0.124,0.006c5.001,0,9.057-4.054,9.057-9.057C-50.172-158.493-53.926-162.415-58.66-162.71z
		 M-86.58-166.327c-0.241-0.016-0.48-0.036-0.725-0.036c-2.766,0-5.282,1.041-7.2,2.742c-1.092-1.365-1.753-3.089-1.753-4.97
		c0-4.41,3.589-7.999,8-7.999c3.092,0,5.76,1.773,7.091,4.346C-83.465-170.805-85.344-168.757-86.58-166.327z"/>
	<polygon points="-79.18,-145.607 -79.18,-148.237 -77.007,-147.015 -76.321,-148.235 -78.791,-149.625 -76.321,-151.015 
		-77.007,-152.235 -79.18,-151.013 -79.18,-153.607 -81.18,-153.607 -81.18,-150.969 -83.431,-152.235 -84.116,-151.015 
		-81.646,-149.625 -84.116,-148.235 -83.431,-147.015 -81.18,-148.281 -81.18,-145.607 	"/>
	<polygon points="-74.018,-141.253 -76.19,-140.03 -76.19,-142.625 -78.19,-142.625 -78.19,-139.986 -80.441,-141.253 
		-81.127,-140.032 -78.657,-138.643 -81.127,-137.253 -80.441,-136.032 -78.19,-137.299 -78.19,-134.625 -76.19,-134.625 
		-76.19,-137.255 -74.018,-136.032 -73.332,-137.253 -75.802,-138.643 -73.332,-140.032 	"/>
	<polygon points="-65.002,-148.235 -67.175,-147.013 -67.175,-149.607 -69.175,-149.607 -69.175,-146.969 -71.426,-148.235 
		-72.111,-147.015 -69.642,-145.625 -72.111,-144.235 -71.426,-143.015 -69.175,-144.281 -69.175,-141.607 -67.175,-141.607 
		-67.175,-144.237 -65.002,-143.015 -64.316,-144.235 -66.786,-145.625 -64.316,-147.015 	"/>
</g>
<g>
	<path d="M41.528-165.713c-1.444-6.742-7.433-11.8-14.605-11.8c-1.799,0-3.522,0.32-5.118,0.904
		c-0.949-5.108-5.404-8.98-10.788-8.98c-0.413,0-0.819,0.027-1.222,0.071c0.744,1.112,1.179,2.448,1.179,3.886c0,3.865-3.134,7-7,7
		c-1.438,0-2.773-0.435-3.886-1.179c-0.044,0.401-0.071,0.809-0.071,1.222c0,3.713,1.845,6.987,4.661,8.979
		c-1.653,1.907-2.661,4.389-2.661,7.111c0,5.983,4.836,10.836,10.813,10.865v0.003h1.188v-2h-0.721l-0.457-0.003
		c-4.864-0.023-8.822-4.001-8.822-8.865c0-4.89,3.978-8.868,8.867-8.868c0.15,0,0.299,0.012,0.447,0.022l0.148,0.01l1.314,0.085
		l0.597-1.175c2.225-4.372,6.644-7.089,11.532-7.089c6.062,0,11.382,4.298,12.649,10.219l0.318,1.483l1.514,0.094
		c3.708,0.23,6.612,3.319,6.612,7.03c0,3.878-3.144,7.035-7.017,7.057c-0.042-0.003-0.079-0.005-0.117-0.005l-1.866,0.005v2h1.819
		v-0.006c0.042,0.001,0.082,0.006,0.124,0.006c5.001,0,9.057-4.054,9.057-9.057C50.017-161.496,46.263-165.418,41.528-165.713z
		 M13.608-169.33c-0.241-0.016-0.48-0.036-0.725-0.036c-2.537,0-4.865,0.877-6.715,2.334c-2.012-1.294-3.486-3.354-3.976-5.776
		c0.582,0.117,1.178,0.177,1.78,0.177c4.963,0,9-4.037,9-9c0-0.603-0.06-1.198-0.177-1.78c3.733,0.753,6.629,3.824,7.134,7.64
		C17.218-174.328,15.003-172.073,13.608-169.33z"/>
	<polygon points="21.054,-148.61 21.054,-151.24 23.227,-150.018 23.912,-151.238 21.442,-152.628 23.912,-154.018 23.227,-155.238 
		21.054,-154.016 21.054,-156.61 19.054,-156.61 19.054,-153.972 16.803,-155.238 16.117,-154.018 18.587,-152.628 16.117,-151.238 
		16.803,-150.018 19.054,-151.284 19.054,-148.61 	"/>
	<polygon points="26.216,-144.256 24.043,-143.033 24.043,-145.628 22.043,-145.628 22.043,-142.989 19.792,-144.256 
		19.106,-143.035 21.576,-141.646 19.106,-140.256 19.792,-139.035 22.043,-140.302 22.043,-137.628 24.043,-137.628 
		24.043,-140.258 26.216,-139.035 26.901,-140.256 24.432,-141.646 26.901,-143.035 	"/>
	<polygon points="35.231,-151.238 33.059,-150.016 33.059,-152.61 31.059,-152.61 31.059,-149.972 28.808,-151.238 28.122,-150.018 
		30.592,-148.628 28.122,-147.238 28.808,-146.018 31.059,-147.284 31.059,-144.61 33.059,-144.61 33.059,-147.24 35.231,-146.018 
		35.917,-147.238 33.447,-148.628 35.917,-150.018 	"/>
</g>
<rect x="-574.83" y="-733.463" fill="none" width="472.974" height="180.918"/>
<text transform="matrix(1 0 0 1 -395.1929 -662.064)"><tspan x="0" y="0" font-family="'HelveticaNeueLTStd-Th'" font-size="100" letter-spacing="2">60</tspan><tspan x="-99.268" y="60" font-family="'HelveticaNeueLTStd-Lt'" font-size="48" letter-spacing="1">Weather Icons</tspan><tspan x="-3.726" y="104" font-family="'HelveticaNeueLTStd-Lt'" font-size="24">IOS 7 Style</tspan></text>
</svg>
