<?xml version="1.0" encoding="utf-8"?>
<!-- Generator: Adobe Illustrator 16.0.0, SVG Export Plug-In . SVG Version: 6.00 Build 0)  -->
<!DOCTYPE svg PUBLIC "-//W3C//DTD SVG 1.1//EN" "http://www.w3.org/Graphics/SVG/1.1/DTD/svg11.dtd">
<svg version="1.1" id="Layer_1" xmlns="http://www.w3.org/2000/svg" xmlns:xlink="http://www.w3.org/1999/xlink" x="0px" y="0px"
	 width="53px" height="35.924px" viewBox="0 0 53 35.924" enable-background="new 0 0 53 35.924" xml:space="preserve">
<path d="M336.439-0.336l-1.803,15.077l-0.268,2.237h2.254h6.896l-14.693,18.759l1.789-14.52l0.277-2.245h-2.262h-6.957
	L336.439-0.336 M339.294-7.36l-21.667,28.333h11.004L325.96,42.64l21.667-27.661h-11.004L339.294-7.36L339.294-7.36z"/>
<path d="M-76.596-462.597c6.79,0,12.749,4.814,14.171,11.448l0.318,1.483l1.514,0.094c4.203,0.262,7.496,3.763,7.496,7.971
	c0,4.396-3.565,7.977-7.957,8c-0.046-0.003-0.091-0.006-0.137-0.007l-2.043-0.036v0.043H-91.57l-0.578-0.003
	c-5.485-0.027-9.948-4.513-9.948-9.998c0-5.514,4.485-10,9.999-10c0.175,0,0.347,0.014,0.519,0.025l0.149,0.011l1.316,0.087
	l0.598-1.176C-87.022-459.554-82.072-462.597-76.596-462.597 M-76.596-464.597c-6.423,0-11.977,3.678-14.702,9.035
	c-0.266-0.018-0.53-0.04-0.8-0.04c-6.627,0-11.999,5.372-11.999,12c0,6.607,5.34,11.965,11.938,11.998v0.003h30.925v-0.007
	c0.046,0.001,0.091,0.007,0.137,0.007c5.521,0,10-4.477,10-10c0-5.311-4.145-9.642-9.372-9.967
	C-62.064-459.013-68.676-464.597-76.596-464.597L-76.596-464.597z"/>
<g>
	<path d="M46.355-444.186c-1.444-6.742-7.433-11.8-14.605-11.8c-2.185,0-4.258,0.47-6.127,1.313
		c-1.666-3.202-5.006-5.394-8.865-5.394c-5.522,0-10,4.477-10,9.999c0,2.46,0.898,4.702,2.373,6.442
		c-1.428,1.84-2.287,4.144-2.287,6.653c0,5.983,4.836,10.836,10.813,10.865v0.003h28.007v-0.006
		c0.042,0.001,0.082,0.006,0.124,0.006c5.001,0,9.057-4.054,9.057-9.057C54.844-439.969,51.09-443.891,46.355-444.186z
		 M16.758-458.065c3.092,0,5.76,1.773,7.092,4.345c-2.299,1.44-4.178,3.488-5.414,5.918c-0.241-0.016-0.48-0.036-0.725-0.036
		c-2.766,0-5.281,1.041-7.2,2.743c-1.092-1.366-1.753-3.09-1.753-4.971C8.758-454.477,12.347-458.065,16.758-458.065z
		 M45.827-428.103c-0.038-0.003-0.077-0.004-0.117-0.005l-2.047-0.042v0.047H18.26l-0.594-0.003
		c-4.864-0.023-8.822-4.001-8.822-8.865c0-4.89,3.978-8.868,8.867-8.868c0.15,0,0.299,0.012,0.447,0.021l0.148,0.011l1.314,0.085
		l0.598-1.174c2.224-4.373,6.643-7.09,11.531-7.09c6.062,0,11.381,4.298,12.65,10.219l0.317,1.482l1.514,0.095
		c3.708,0.231,6.612,3.319,6.612,7.03C52.844-431.281,49.7-428.125,45.827-428.103z"/>
	<rect x="15.764" y="-470.096" width="2" height="7.973"/>
	<rect x="-3.209" y="-451.109" width="7.973" height="2"/>
	<rect x="1.517" y="-462.328" transform="matrix(0.7071 0.7071 -0.7071 0.7071 -324.5962 -139.0117)" width="7.974" height="2"/>
	<rect x="27.025" y="-465.31" transform="matrix(0.7071 0.7071 -0.7071 0.7071 -317.997 -154.9357)" width="2" height="7.972"/>
</g>
<path d="M142.099-448.213c-1.444-6.742-7.433-11.8-14.605-11.8c-1.799,0-3.521,0.32-5.118,0.904
	c-0.949-5.108-5.404-8.98-10.788-8.98c-0.413,0-0.819,0.027-1.222,0.071c0.744,1.112,1.179,2.448,1.179,3.886c0,3.865-3.134,7-7,7
	c-1.438,0-2.773-0.435-3.886-1.179c-0.044,0.401-0.071,0.809-0.071,1.222c0,3.712,1.845,6.987,4.661,8.979
	c-1.653,1.907-2.661,4.389-2.661,7.111c0,5.983,4.836,10.836,10.813,10.865v0.003h28.007v-0.006
	c0.042,0.001,0.082,0.006,0.124,0.006c5.001,0,9.057-4.054,9.057-9.057C150.587-443.996,146.833-447.918,142.099-448.213z
	 M102.764-455.309c0.582,0.117,1.178,0.177,1.78,0.177c4.963,0,9-4.037,9-9c0-0.603-0.06-1.198-0.177-1.78
	c3.733,0.753,6.629,3.824,7.134,7.64c-2.713,1.444-4.928,3.699-6.322,6.442c-0.241-0.016-0.48-0.036-0.725-0.036
	c-2.537,0-4.865,0.876-6.715,2.334C104.728-450.826,103.253-452.886,102.764-455.309z M141.57-432.13
	c-0.038-0.003-0.077-0.004-0.117-0.005l-2.047-0.042v0.047h-25.403l-0.594-0.003c-4.864-0.023-8.822-4.001-8.822-8.865
	c0-4.89,3.978-8.868,8.867-8.868c0.15,0,0.299,0.012,0.447,0.021l0.148,0.011l1.314,0.085l0.598-1.174
	c2.224-4.373,6.643-7.09,11.531-7.09c6.062,0,11.381,4.298,12.65,10.219l0.317,1.482l1.514,0.095
	c3.708,0.231,6.612,3.319,6.612,7.03C148.587-435.309,145.443-432.152,141.57-432.13z"/>
<g>
	<rect x="226.744" y="-439.59" width="2" height="7"/>
	<rect x="234.744" y="-443.59" width="2" height="7"/>
	<rect x="218.744" y="-443.59" width="2" height="7"/>
	<rect x="226.744" y="-429.59" width="2" height="7"/>
	<rect x="234.744" y="-433.59" width="2" height="7"/>
	<rect x="218.744" y="-433.59" width="2" height="7"/>
	<path d="M245.372-456.578c-1.596-7.445-8.207-13.029-16.127-13.029c-6.423,0-11.977,3.678-14.702,9.035
		c-0.266-0.018-0.53-0.04-0.8-0.04c-6.627,0-11.999,5.372-11.999,12c0,6.607,5.34,11.965,11.938,11.998v0.003h2.062v-2h-1.604
		l-0.447-0.003c-5.485-0.027-9.948-4.513-9.948-9.998c0-5.514,4.485-10,9.999-10c0.175,0,0.347,0.014,0.52,0.025l0.148,0.01
		l1.316,0.088l0.598-1.176c2.492-4.899,7.443-7.942,12.92-7.942c6.79,0,12.75,4.814,14.172,11.448l0.317,1.482l1.514,0.095
		c4.203,0.262,7.496,3.763,7.496,7.971c0,4.397-3.565,7.977-7.957,8c-0.05-0.003-0.093-0.005-0.137-0.007l-2.043,0.007h-2.863v2
		h4.863v-0.007c0.046,0.001,0.091,0.007,0.137,0.007c5.521,0,10-4.477,10-10C254.744-451.922,250.6-456.253,245.372-456.578z"/>
</g>
<g>
	<path d="M42.945-367.221c-1.596-7.445-8.207-13.029-16.127-13.029c-6.423,0-11.977,3.678-14.702,9.035
		c-0.266-0.018-0.53-0.04-0.8-0.04c-6.627,0-11.999,5.372-11.999,12c0,6.607,5.34,11.965,11.938,11.998v0.003h2.062v-2h-1.604
		l-0.447-0.003c-5.485-0.027-9.948-4.513-9.948-9.998c0-5.514,4.485-10,9.999-10c0.175,0,0.347,0.014,0.52,0.025l0.148,0.01
		l1.316,0.088l0.598-1.176c2.492-4.899,7.443-7.942,12.92-7.942c6.79,0,12.75,4.814,14.172,11.448l0.317,1.482l1.514,0.095
		c4.203,0.262,7.496,3.763,7.496,7.971c0,4.397-3.565,7.977-7.957,8c-0.05-0.003-0.093-0.005-0.137-0.007l-2.043,0.007h-2.863v2
		h4.863v-0.007c0.046,0.001,0.091,0.007,0.137,0.007c5.521,0,10-4.477,10-10C52.317-362.564,48.173-366.896,42.945-367.221z"/>
	<polygon points="24.317,-340.226 24.317,-338.285 24.317,-332.226 26.317,-332.226 26.317,-338.285 26.317,-340.226 
		26.317,-352.226 24.317,-352.226 	"/>
	<polygon points="32.317,-344.226 32.317,-342.473 32.317,-336.226 34.317,-336.226 34.317,-342.473 34.317,-344.226 
		34.317,-356.226 32.317,-356.226 	"/>
	<polygon points="16.317,-344.226 16.317,-342.16 16.317,-336.226 18.317,-336.226 18.317,-342.16 18.317,-344.226 18.317,-356.226 
		16.317,-356.226 	"/>
</g>
<g>
	<polygon points="338.595,-343.314 331.712,-353.145 330.074,-351.997 336.957,-342.167 338.069,-340.578 341.545,-335.614 
		343.184,-336.761 339.708,-341.726 	"/>
	<polygon points="346.597,-343.316 339.712,-353.145 338.074,-351.996 344.96,-342.168 345.965,-340.732 349.549,-335.617 
		351.188,-336.764 347.604,-341.88 	"/>
	<polygon points="330.595,-343.314 323.712,-353.145 322.074,-351.996 328.957,-342.167 330.142,-340.475 333.546,-335.613 
		335.184,-336.761 331.78,-341.622 	"/>
	<path d="M349.702-366.954c-1.596-7.445-8.207-13.029-16.127-13.029c-6.423,0-11.977,3.678-14.702,9.035
		c-0.266-0.018-0.53-0.04-0.8-0.04c-6.627,0-11.999,5.372-11.999,12c0,6.607,5.34,11.965,11.938,11.998v0.003h2.062v-2h-1.604
		l-0.447-0.003c-5.485-0.027-9.948-4.513-9.948-9.998c0-5.514,4.485-10,9.999-10c0.175,0,0.347,0.014,0.52,0.025l0.148,0.01
		l1.316,0.088l0.598-1.176c2.492-4.899,7.443-7.942,12.92-7.942c6.79,0,12.75,4.814,14.172,11.448l0.317,1.482l1.514,0.095
		c4.203,0.262,7.496,3.763,7.496,7.971c0,4.397-3.565,7.977-7.957,8c-0.05-0.003-0.093-0.005-0.137-0.007l-1.043,0.007h0.137v2
		h0.863v-0.007c0.046,0.001,0.091,0.007,0.137,0.007c5.521,0,10-4.477,10-10C359.074-362.298,354.93-366.629,349.702-366.954z"/>
</g>
<g>
	<rect x="321.4" y="-476.036" width="2" height="7.973"/>
	<rect x="302.4" y="-457.122" width="7.973" height="2"/>
	<rect x="307.073" y="-468.389" transform="matrix(0.7071 0.7071 -0.7071 0.7071 -239.3862 -356.848)" width="7.974" height="2"/>
	<rect x="332.582" y="-471.371" transform="matrix(0.7071 0.7071 -0.7071 0.7071 -232.787 -372.7719)" width="2" height="7.972"/>
	<rect x="335.4" y="-435.163" width="2" height="7"/>
	<rect x="343.4" y="-439.163" width="2" height="7"/>
	<rect x="327.4" y="-439.163" width="2" height="7"/>
	<rect x="335.4" y="-425.163" width="2" height="7"/>
	<rect x="343.4" y="-429.163" width="2" height="7"/>
	<rect x="327.4" y="-429.163" width="2" height="7"/>
	<path d="M351.912-450.246c-1.444-6.742-7.433-11.8-14.605-11.8c-2.185,0-4.258,0.47-6.126,1.313
		c-1.667-3.202-5.007-5.394-8.866-5.394c-5.522,0-10,4.477-10,9.999c0,2.46,0.899,4.702,2.373,6.442
		c-1.429,1.84-2.287,4.144-2.287,6.653c0,5.983,4.836,10.836,10.813,10.865v0.003h1.188v-2h-0.721l-0.457-0.003
		c-4.864-0.023-8.822-4.001-8.822-8.865c0-4.89,3.978-8.868,8.867-8.868c0.15,0,0.299,0.012,0.447,0.022l0.148,0.01l1.314,0.085
		l0.597-1.175c2.225-4.372,6.644-7.089,11.532-7.089c6.062,0,11.382,4.298,12.649,10.219l0.318,1.483l1.514,0.094
		c3.708,0.23,6.612,3.319,6.612,7.03c0,3.878-3.144,7.035-7.017,7.057c-0.042-0.003-0.079-0.005-0.117-0.005l-2.047,0.005H348.4v2
		h2.819v-0.006c0.042,0.001,0.082,0.006,0.124,0.006c5.001,0,9.057-4.054,9.057-9.057
		C360.4-446.029,356.646-449.951,351.912-450.246z M323.992-453.863c-0.241-0.016-0.48-0.036-0.725-0.036
		c-2.766,0-5.282,1.041-7.2,2.743c-1.092-1.366-1.753-3.09-1.753-4.971c0-4.41,3.589-7.999,8-7.999c3.091,0,5.76,1.773,7.091,4.345
		C327.107-458.341,325.228-456.293,323.992-453.863z"/>
</g>
<g>
	<rect x="435.817" y="-436.61" width="2" height="7"/>
	<rect x="443.817" y="-440.61" width="2" height="7"/>
	<rect x="427.817" y="-440.61" width="2" height="7"/>
	<rect x="435.817" y="-426.61" width="2" height="7"/>
	<rect x="443.817" y="-430.61" width="2" height="7"/>
	<rect x="427.817" y="-430.61" width="2" height="7"/>
	<path d="M452.329-451.693c-1.444-6.742-7.433-11.8-14.605-11.8c-1.799,0-3.522,0.32-5.118,0.904
		c-0.949-5.108-5.404-8.98-10.788-8.98c-0.413,0-0.819,0.027-1.222,0.071c0.744,1.112,1.179,2.448,1.179,3.886c0,3.865-3.134,7-7,7
		c-1.438,0-2.773-0.435-3.886-1.179c-0.044,0.401-0.071,0.809-0.071,1.222c0,3.712,1.845,6.987,4.661,8.979
		c-1.653,1.907-2.661,4.389-2.661,7.111c0,5.983,4.836,10.836,10.813,10.865v0.003h1.188v-2h-0.721l-0.457-0.003
		c-4.864-0.023-8.822-4.001-8.822-8.865c0-4.89,3.978-8.868,8.867-8.868c0.15,0,0.299,0.012,0.447,0.022l0.148,0.01l1.314,0.085
		l0.597-1.175c2.225-4.372,6.644-7.089,11.532-7.089c6.062,0,11.382,4.298,12.649,10.219l0.318,1.483l1.514,0.094
		c3.708,0.23,6.612,3.319,6.612,7.03c0,3.878-3.144,7.035-7.017,7.057c-0.042-0.003-0.079-0.005-0.117-0.005l-2.047,0.005h-0.819v2
		h2.819v-0.006c0.042,0.001,0.082,0.006,0.124,0.006c5.001,0,9.057-4.054,9.057-9.057
		C460.817-447.477,457.063-451.398,452.329-451.693z M424.409-455.311c-0.241-0.016-0.48-0.036-0.725-0.036
		c-2.537,0-4.865,0.876-6.715,2.334c-2.012-1.294-3.487-3.354-3.976-5.776c0.582,0.117,1.178,0.177,1.78,0.177c4.963,0,9-4.037,9-9
		c0-0.603-0.06-1.198-0.177-1.78c3.733,0.753,6.629,3.824,7.133,7.64C428.02-460.309,425.805-458.054,424.409-455.311z"/>
</g>
<g>
	<polygon points="128.587,-335.787 128.587,-333.847 128.587,-327.787 130.587,-327.787 130.587,-333.847 130.587,-335.787 
		130.587,-347.787 128.587,-347.787 	"/>
	<polygon points="136.587,-339.787 136.587,-338.034 136.587,-331.787 138.587,-331.787 138.587,-338.034 138.587,-339.787 
		138.587,-351.787 136.587,-351.787 	"/>
	<polygon points="120.587,-339.787 120.587,-337.722 120.587,-331.787 122.587,-331.787 122.587,-337.722 122.587,-339.787 
		122.587,-351.787 120.587,-351.787 	"/>
	<rect x="114.587" y="-386.689" width="2" height="7.973"/>
	<rect x="95.587" y="-367.775" width="7.973" height="2"/>
	<rect x="100.26" y="-379.042" transform="matrix(0.7071 0.7071 -0.7071 0.7071 -236.7828 -184.4398)" width="7.974" height="2"/>
	<rect x="125.769" y="-382.024" transform="matrix(0.7071 0.7071 -0.7071 0.7071 -230.1837 -200.3637)" width="2" height="7.972"/>
	<path d="M145.099-360.899c-1.444-6.742-7.433-11.8-14.605-11.8c-2.185,0-4.258,0.47-6.127,1.313
		c-1.666-3.202-5.006-5.394-8.865-5.394c-5.522,0-10,4.477-10,9.999c0,2.46,0.898,4.702,2.373,6.442
		c-1.428,1.84-2.287,4.144-2.287,6.653c0,5.983,4.836,10.836,10.813,10.865v0.003h1.188v-2h-0.721l-0.457-0.003
		c-4.864-0.023-8.822-4.001-8.822-8.865c0-4.89,3.978-8.868,8.867-8.868c0.15,0,0.299,0.012,0.447,0.022l0.148,0.01l1.314,0.085
		l0.597-1.175c2.225-4.372,6.644-7.089,11.532-7.089c6.062,0,11.382,4.298,12.649,10.219l0.318,1.483l1.514,0.094
		c3.708,0.23,6.612,3.319,6.612,7.03c0,3.878-3.144,7.035-7.017,7.057c-0.042-0.003-0.079-0.005-0.117-0.005l-2.047,0.005h-0.819v2
		h2.819v-0.006c0.042,0.001,0.082,0.006,0.124,0.006c5.001,0,9.057-4.054,9.057-9.057
		C153.587-356.683,149.833-360.604,145.099-360.899z M117.179-364.517c-0.241-0.016-0.48-0.036-0.725-0.036
		c-2.766,0-5.281,1.042-7.2,2.743c-1.092-1.367-1.753-3.09-1.753-4.971c0-4.41,3.589-7.999,8-7.999c3.092,0,5.76,1.773,7.092,4.345
		C120.294-368.995,118.415-366.946,117.179-364.517z"/>
</g>
<g>
	<polygon points="228.984,-338.304 228.984,-336.363 228.984,-330.304 230.984,-330.304 230.984,-336.363 230.984,-338.304 
		230.984,-350.304 228.984,-350.304 	"/>
	<polygon points="236.984,-342.304 236.984,-340.551 236.984,-334.304 238.984,-334.304 238.984,-340.551 238.984,-342.304 
		238.984,-354.304 236.984,-354.304 	"/>
	<polygon points="220.984,-342.304 220.984,-340.238 220.984,-334.304 222.984,-334.304 222.984,-340.238 222.984,-342.304 
		222.984,-354.304 220.984,-354.304 	"/>
	<path d="M245.496-363.416c-1.444-6.742-7.433-11.8-14.605-11.8c-1.799,0-3.521,0.32-5.118,0.904
		c-0.949-5.108-5.404-8.98-10.788-8.98c-0.413,0-0.819,0.027-1.222,0.071c0.744,1.112,1.179,2.448,1.179,3.886c0,3.865-3.134,7-7,7
		c-1.438,0-2.773-0.435-3.886-1.179c-0.044,0.401-0.071,0.809-0.071,1.222c0,3.712,1.845,6.987,4.661,8.979
		c-1.653,1.907-2.661,4.389-2.661,7.111c0,5.983,4.836,10.836,10.813,10.865v0.003h1.188v-2h-0.721l-0.457-0.003
		c-4.864-0.023-8.822-4.001-8.822-8.865c0-4.89,3.978-8.868,8.867-8.868c0.15,0,0.299,0.012,0.447,0.022l0.148,0.01l1.314,0.085
		l0.597-1.175c2.225-4.372,6.644-7.089,11.532-7.089c6.062,0,11.382,4.298,12.649,10.219l0.318,1.483l1.514,0.094
		c3.708,0.23,6.612,3.319,6.612,7.03c0,3.878-3.144,7.035-7.017,7.057c-0.042-0.003-0.079-0.005-0.117-0.005l-2.047,0.005h-0.819v2
		h2.819v-0.006c0.042,0.001,0.082,0.006,0.124,0.006c5.001,0,9.057-4.054,9.057-9.057
		C253.984-359.199,250.23-363.121,245.496-363.416z M217.576-367.033c-0.241-0.016-0.48-0.036-0.725-0.036
		c-2.537,0-4.865,0.876-6.715,2.334c-2.012-1.294-3.486-3.354-3.976-5.776c0.582,0.117,1.178,0.177,1.78,0.177c4.963,0,9-4.037,9-9
		c0-0.603-0.06-1.198-0.177-1.78c3.733,0.753,6.629,3.824,7.134,7.641C221.186-372.031,218.971-369.775,217.576-367.033z"/>
</g>
<g>
	<polygon points="446.02,-337.359 439.137,-347.189 437.499,-346.042 444.382,-336.212 445.494,-334.623 448.97,-329.659 
		450.608,-330.806 447.133,-335.771 	"/>
	<polygon points="454.021,-337.361 447.137,-347.189 445.499,-346.041 452.385,-336.213 453.39,-334.777 456.974,-329.662 
		458.612,-330.809 455.028,-335.925 	"/>
	<polygon points="438.02,-337.359 431.137,-347.189 429.499,-346.041 436.382,-336.212 437.566,-334.52 440.971,-329.658 
		442.608,-330.806 439.205,-335.667 	"/>
	<rect x="425.499" y="-384.908" width="2" height="7.973"/>
	<rect x="406.499" y="-365.994" width="7.973" height="2"/>
	<rect x="411.172" y="-377.261" transform="matrix(0.7071 0.7071 -0.7071 0.7071 -144.4592 -403.7661)" width="7.974" height="2"/>
	<rect x="436.681" y="-380.243" transform="matrix(0.7071 0.7071 -0.7071 0.7071 -137.86 -419.6901)" width="2" height="7.972"/>
	<path d="M456.011-359.118c-1.444-6.742-7.433-11.8-14.605-11.8c-2.185,0-4.258,0.47-6.126,1.313
		c-1.667-3.202-5.007-5.394-8.866-5.394c-5.522,0-10,4.477-10,9.999c0,2.46,0.899,4.702,2.373,6.442
		c-1.429,1.84-2.287,4.144-2.287,6.653c0,5.983,4.836,10.836,10.813,10.865v0.003h1.188v-2h-0.721l-0.457-0.003
		c-4.864-0.023-8.822-4.001-8.822-8.865c0-4.89,3.978-8.868,8.867-8.868c0.15,0,0.299,0.012,0.447,0.022l0.148,0.01l1.314,0.085
		l0.597-1.175c2.225-4.372,6.644-7.089,11.532-7.089c6.062,0,11.382,4.298,12.649,10.219l0.318,1.483l1.514,0.094
		c3.708,0.23,6.612,3.319,6.612,7.03c0,3.878-3.144,7.035-7.017,7.057c-0.042-0.003-0.079-0.005-0.117-0.005l-0.047,0.005h-0.819v2
		h0.819v-0.006c0.042,0.001,0.082,0.006,0.124,0.006c5.001,0,9.057-4.054,9.057-9.057
		C464.499-354.901,460.745-358.823,456.011-359.118z M428.091-362.735c-0.241-0.016-0.48-0.036-0.725-0.036
		c-2.766,0-5.282,1.042-7.2,2.743c-1.092-1.367-1.753-3.09-1.753-4.971c0-4.41,3.589-7.999,8-7.999c3.091,0,5.76,1.773,7.091,4.345
		C431.206-367.214,429.326-365.165,428.091-362.735z"/>
</g>
<g>
	<polygon points="-277.411,-240.874 -284.294,-250.704 -285.932,-249.557 -279.049,-239.727 -277.937,-238.138 -274.461,-233.174 
		-272.822,-234.32 -276.298,-239.285 	"/>
	<polygon points="-269.409,-240.876 -276.294,-250.704 -277.932,-249.556 -271.046,-239.728 -270.041,-238.292 -266.457,-233.177 
		-264.818,-234.323 -268.402,-239.439 	"/>
	<polygon points="-285.411,-240.874 -292.294,-250.704 -293.932,-249.556 -287.049,-239.727 -285.864,-238.034 -282.46,-233.173 
		-280.822,-234.32 -284.226,-239.182 	"/>
	<path d="M-267.42-262.633c-1.444-6.742-7.433-11.8-14.605-11.8c-1.799,0-3.522,0.32-5.118,0.904
		c-0.949-5.108-5.404-8.98-10.788-8.98c-0.413,0-0.819,0.027-1.222,0.071c0.744,1.112,1.179,2.448,1.179,3.886c0,3.865-3.134,7-7,7
		c-1.438,0-2.773-0.435-3.886-1.179c-0.044,0.401-0.071,0.809-0.071,1.222c0,3.712,1.845,6.987,4.661,8.979
		c-1.653,1.907-2.661,4.389-2.661,7.111c0,5.983,4.836,10.836,10.813,10.865v0.003h1.188v-2h-0.721l-0.457-0.003
		c-4.864-0.023-8.822-4.001-8.822-8.865c0-4.89,3.978-8.868,8.867-8.868c0.15,0,0.299,0.012,0.447,0.022l0.148,0.01l1.314,0.085
		l0.597-1.175c2.225-4.372,6.644-7.089,11.532-7.089c6.062,0,11.382,4.298,12.649,10.219l0.318,1.483l1.514,0.094
		c3.708,0.23,6.612,3.319,6.612,7.03c0,3.878-3.144,7.035-7.017,7.057c-0.042-0.003-0.079-0.005-0.117-0.005l-0.047,0.005h-0.819v2
		h0.819v-0.006c0.042,0.001,0.082,0.006,0.124,0.006c5.001,0,9.057-4.054,9.057-9.057
		C-258.932-258.416-262.686-262.338-267.42-262.633z M-295.34-266.25c-0.241-0.016-0.48-0.036-0.725-0.036
		c-2.537,0-4.865,0.876-6.715,2.334c-2.012-1.294-3.487-3.354-3.976-5.776c0.582,0.117,1.178,0.177,1.78,0.177c4.963,0,9-4.037,9-9
		c0-0.603-0.06-1.198-0.177-1.78c3.733,0.753,6.629,3.824,7.133,7.641C-291.729-271.248-293.944-268.992-295.34-266.25z"/>
</g>
<g>
	<rect x="-284.932" y="-344.721" width="2" height="4"/>
	<rect x="-276.932" y="-348.742" width="2" height="4.021"/>
	<rect x="-292.932" y="-348.742" width="2" height="4.021"/>
	<path d="M-266.304-364.709c-1.596-7.445-8.207-13.029-16.127-13.029c-6.423,0-11.977,3.678-14.702,9.035
		c-0.266-0.018-0.53-0.04-0.8-0.04c-6.627,0-11.999,5.372-11.999,12c0,6.607,5.34,11.965,11.938,11.998v0.003h2.062v-2h-1.604
		l-0.447-0.003c-5.485-0.027-9.948-4.513-9.948-9.998c0-5.514,4.485-10,9.999-10c0.175,0,0.347,0.014,0.52,0.025l0.148,0.01
		l1.316,0.088l0.598-1.176c2.492-4.899,7.443-7.942,12.92-7.942c6.79,0,12.75,4.814,14.172,11.448l0.317,1.482l1.514,0.095
		c4.203,0.262,7.496,3.763,7.496,7.971c0,4.397-3.565,7.977-7.957,8c-0.05-0.003-0.093-0.005-0.137-0.007l-2.043,0.007h-2.863v2
		h4.863v-0.007c0.046,0.001,0.091,0.007,0.137,0.007c5.521,0,10-4.477,10-10C-256.932-360.053-261.076-364.384-266.304-364.709z"/>
	<circle cx="-275.932" cy="-339.7" r="1.5"/>
	<circle cx="-283.932" cy="-335.731" r="1.5"/>
	<circle cx="-291.932" cy="-339.742" r="1.5"/>
</g>
<g>
	<rect x="-192.011" y="-384.175" width="2" height="7.973"/>
	<rect x="-211.011" y="-365.261" width="7.973" height="2"/>
	<rect x="-206.338" y="-376.527" transform="matrix(0.7071 0.7071 -0.7071 0.7071 -324.8051 33.0941)" width="7.974" height="2"/>
	<rect x="-180.829" y="-379.509" transform="matrix(0.7071 0.7071 -0.7071 0.7071 -318.2059 17.1701)" width="2" height="7.972"/>
	<path d="M-161.499-358.385c-1.444-6.742-7.433-11.8-14.605-11.8c-2.185,0-4.258,0.47-6.126,1.313
		c-1.667-3.202-5.007-5.394-8.866-5.394c-5.522,0-10,4.477-10,9.999c0,2.46,0.899,4.702,2.373,6.442
		c-1.429,1.84-2.287,4.144-2.287,6.653c0,5.983,4.836,10.836,10.813,10.865v0.003h1.188v-2h-0.721l-0.457-0.003
		c-4.864-0.023-8.822-4.001-8.822-8.865c0-4.89,3.978-8.868,8.867-8.868c0.15,0,0.299,0.012,0.447,0.022l0.148,0.01l1.314,0.085
		l0.597-1.175c2.225-4.372,6.644-7.089,11.532-7.089c6.062,0,11.382,4.298,12.649,10.219l0.318,1.483l1.514,0.094
		c3.708,0.23,6.612,3.319,6.612,7.03c0,3.878-3.144,7.035-7.017,7.057c-0.042-0.003-0.079-0.005-0.117-0.005l-2.047,0.005h-0.819v2
		h2.819v-0.006c0.042,0.001,0.082,0.006,0.124,0.006c5.001,0,9.057-4.054,9.057-9.057
		C-153.011-354.168-156.765-358.09-161.499-358.385z M-189.419-362.002c-0.241-0.016-0.48-0.036-0.725-0.036
		c-2.766,0-5.282,1.042-7.2,2.743c-1.092-1.367-1.753-3.09-1.753-4.971c0-4.41,3.589-7.999,8-7.999c3.091,0,5.76,1.773,7.091,4.345
		C-186.304-366.48-188.184-364.432-189.419-362.002z"/>
	<rect x="-178.011" y="-340.286" width="2" height="4"/>
	<rect x="-170.011" y="-344.308" width="2" height="4.021"/>
	<rect x="-186.011" y="-344.308" width="2" height="4.021"/>
	<circle cx="-169.011" cy="-335.266" r="1.5"/>
	<circle cx="-177.011" cy="-331.297" r="1.5"/>
	<circle cx="-185.011" cy="-335.308" r="1.5"/>
</g>
<g>
	<path d="M-60.573-359.342c-1.444-6.742-7.433-11.8-14.605-11.8c-1.799,0-3.522,0.32-5.118,0.904
		c-0.949-5.108-5.404-8.98-10.788-8.98c-0.413,0-0.819,0.027-1.222,0.071c0.744,1.112,1.179,2.448,1.179,3.886c0,3.865-3.134,7-7,7
		c-1.438,0-2.773-0.435-3.886-1.179c-0.044,0.401-0.071,0.809-0.071,1.222c0,3.712,1.845,6.987,4.661,8.979
		c-1.653,1.907-2.661,4.389-2.661,7.111c0,5.983,4.836,10.836,10.813,10.865v0.003h1.188v-2h-0.721l-0.457-0.003
		c-4.864-0.023-8.822-4.001-8.822-8.865c0-4.89,3.978-8.868,8.867-8.868c0.15,0,0.299,0.012,0.447,0.022l0.148,0.01l1.314,0.085
		l0.597-1.175c2.225-4.372,6.644-7.089,11.532-7.089c6.062,0,11.382,4.298,12.649,10.219l0.318,1.483l1.514,0.094
		c3.708,0.23,6.612,3.319,6.612,7.03c0,3.878-3.144,7.035-7.017,7.057c-0.042-0.003-0.079-0.005-0.117-0.005l-2.047,0.005h-0.819v2
		h2.819v-0.006c0.042,0.001,0.082,0.006,0.124,0.006c5.001,0,9.057-4.054,9.057-9.057
		C-52.085-355.125-55.839-359.047-60.573-359.342z M-88.493-362.959c-0.241-0.016-0.48-0.036-0.725-0.036
		c-2.537,0-4.865,0.876-6.715,2.334c-2.012-1.294-3.487-3.354-3.976-5.776c0.582,0.117,1.178,0.177,1.78,0.177c4.963,0,9-4.037,9-9
		c0-0.603-0.06-1.198-0.177-1.78c3.733,0.753,6.629,3.824,7.133,7.641C-84.883-367.957-87.098-365.701-88.493-362.959z"/>
	<rect x="-77.085" y="-341.243" width="2" height="4"/>
	<rect x="-69.085" y="-345.265" width="2" height="4.021"/>
	<rect x="-85.085" y="-345.265" width="2" height="4.021"/>
	<circle cx="-68.085" cy="-336.223" r="1.5"/>
	<circle cx="-76.085" cy="-332.254" r="1.5"/>
	<circle cx="-84.085" cy="-336.265" r="1.5"/>
</g>
<g>
	<path d="M-163.883-266.312c-1.596-7.445-8.207-13.029-16.127-13.029c-6.423,0-11.977,3.678-14.702,9.035
		c-0.266-0.018-0.53-0.04-0.8-0.04c-6.627,0-11.999,5.372-11.999,12c0,6.607,5.34,11.965,11.938,11.998v0.003h6.062v-2h-5.604
		l-0.447-0.003c-5.485-0.027-9.948-4.513-9.948-9.998c0-5.514,4.485-10,9.999-10c0.175,0,0.347,0.014,0.52,0.025l0.148,0.01
		l1.316,0.088l0.598-1.176c2.492-4.899,7.443-7.942,12.92-7.942c6.79,0,12.75,4.814,14.172,11.448l0.317,1.482l1.514,0.095
		c4.203,0.262,7.496,3.763,7.496,7.971c0,4.397-3.565,7.977-7.957,8c-0.05-0.003-0.093-0.005-0.137-0.007l-5.043,0.007h0.137v2
		h4.863v-0.007c0.046,0.001,0.091,0.007,0.137,0.007c5.521,0,10-4.477,10-10C-154.511-261.655-158.655-265.986-163.883-266.312z"/>
	<polygon points="-179.669,-246.341 -177.899,-246.341 -177.469,-246.341 -175.459,-246.341 -181.873,-255.502 -183.511,-254.354 
		-179.3,-248.341 -181.07,-248.341 -183.511,-248.341 -182.239,-246.524 -181.127,-244.936 -175.149,-236.341 -173.511,-237.487 
		-179.488,-246.083 	"/>
</g>
<g>
	<rect x="-88.085" y="-285.441" width="2" height="7.973"/>
	<rect x="-107.085" y="-266.527" width="7.973" height="2"/>
	<rect x="-102.412" y="-277.794" transform="matrix(0.7071 0.7071 -0.7071 0.7071 -224.5508 -11.4742)" width="7.974" height="2"/>
	<rect x="-76.903" y="-280.776" transform="matrix(0.7071 0.7071 -0.7071 0.7071 -217.9517 -27.3982)" width="2" height="7.972"/>
	<path d="M-57.573-259.651c-1.444-6.742-7.433-11.8-14.605-11.8c-2.185,0-4.258,0.47-6.127,1.313
		c-1.666-3.202-5.006-5.394-8.865-5.394c-5.522,0-10,4.477-10,9.999c0,2.46,0.898,4.702,2.373,6.442
		c-1.428,1.84-2.287,4.144-2.287,6.653c0,5.983,4.836,10.836,10.813,10.865v0.003h4.188v-2h-3.721l-0.457-0.003
		c-4.864-0.023-8.822-4.001-8.822-8.865c0-4.89,3.978-8.868,8.867-8.868c0.15,0,0.299,0.012,0.447,0.022l0.148,0.01l1.314,0.085
		l0.597-1.175c2.225-4.372,6.644-7.089,11.532-7.089c6.062,0,11.382,4.298,12.649,10.219l0.318,1.483l1.514,0.094
		c3.708,0.23,6.612,3.319,6.612,7.03c0,3.878-3.144,7.035-7.017,7.057c-0.042-0.003-0.079-0.005-0.117-0.005l-2.047,0.005h-3.819v2
		h5.819v-0.006c0.042,0.001,0.082,0.006,0.124,0.006c5.001,0,9.057-4.054,9.057-9.057
		C-49.085-255.435-52.839-259.356-57.573-259.651z M-85.493-263.269c-0.241-0.016-0.48-0.036-0.725-0.036
		c-2.766,0-5.281,1.041-7.2,2.743c-1.092-1.366-1.753-3.09-1.753-4.971c0-4.41,3.589-7.999,8-7.999c3.092,0,5.76,1.773,7.092,4.345
		C-82.378-267.746-84.257-265.698-85.493-263.269z"/>
	<polygon points="-73.243,-241.562 -71.474,-241.562 -71.043,-241.562 -69.033,-241.562 -75.447,-250.723 -77.085,-249.575 
		-72.874,-243.562 -74.645,-243.562 -77.085,-243.562 -75.813,-241.745 -74.701,-240.156 -68.724,-231.562 -67.085,-232.708 
		-73.063,-241.304 	"/>
</g>
<g>
	<path d="M42.012-261.947c-1.444-6.742-7.433-11.8-14.605-11.8c-1.799,0-3.521,0.32-5.118,0.904
		c-0.949-5.108-5.404-8.98-10.788-8.98c-0.413,0-0.819,0.027-1.222,0.071c0.744,1.112,1.179,2.448,1.179,3.886c0,3.865-3.134,7-7,7
		c-1.438,0-2.773-0.435-3.886-1.179c-0.044,0.401-0.071,0.809-0.071,1.222c0,3.712,1.845,6.987,4.661,8.979
		c-1.653,1.907-2.661,4.389-2.661,7.111c0,5.983,4.836,10.836,10.813,10.865v0.003H17.5v-2h-3.721l-0.457-0.003
		c-4.864-0.023-8.822-4.001-8.822-8.865c0-4.89,3.978-8.868,8.867-8.868c0.15,0,0.299,0.012,0.447,0.022l0.148,0.01l1.314,0.085
		l0.597-1.175c2.225-4.372,6.644-7.089,11.532-7.089c6.062,0,11.382,4.298,12.649,10.219l0.318,1.483l1.514,0.094
		c3.708,0.23,6.612,3.319,6.612,7.03c0,3.878-3.144,7.035-7.017,7.057c-0.042-0.003-0.079-0.005-0.117-0.005l-2.047,0.005H35.5v2
		h5.819v-0.006c0.042,0.001,0.082,0.006,0.124,0.006c5.001,0,9.057-4.054,9.057-9.057C50.5-257.73,46.746-261.652,42.012-261.947z
		 M14.092-265.564c-0.241-0.016-0.48-0.036-0.725-0.036c-2.537,0-4.865,0.876-6.715,2.334c-2.012-1.294-3.486-3.354-3.976-5.776
		c0.582,0.117,1.178,0.177,1.78,0.177c4.963,0,9-4.037,9-9c0-0.603-0.06-1.198-0.177-1.78c3.733,0.753,6.629,3.824,7.134,7.64
		C17.701-270.563,15.486-268.308,14.092-265.564z"/>
	<polygon points="26.342,-243.857 28.111,-243.857 28.542,-243.857 30.552,-243.857 24.138,-253.019 22.5,-251.871 26.711,-245.857 
		24.94,-245.857 22.5,-245.857 23.771,-244.041 24.884,-242.452 30.861,-233.857 32.5,-235.004 26.522,-243.6 	"/>
</g>
<g>
	<path d="M142.896-265.812c-1.596-7.445-8.207-13.029-16.127-13.029c-6.423,0-11.977,3.678-14.702,9.035
		c-0.266-0.018-0.53-0.04-0.8-0.04c-6.627,0-11.999,5.372-11.999,12c0,6.607,5.34,11.965,11.938,11.998v0.003h1.062v-2h-0.604
		l-0.447-0.003c-5.485-0.027-9.948-4.513-9.948-9.998c0-5.514,4.485-10,9.999-10c0.175,0,0.347,0.014,0.52,0.025l0.148,0.01
		l1.316,0.088l0.598-1.176c2.492-4.899,7.443-7.942,12.92-7.942c6.79,0,12.75,4.814,14.172,11.448l0.317,1.482l1.514,0.095
		c4.203,0.262,7.496,3.763,7.496,7.971c0,4.397-3.565,7.977-7.957,8c-0.05-0.003-0.093-0.005-0.137-0.007l-0.906,0.007v2h0.863
		v-0.007c0.046,0.001,0.091,0.007,0.137,0.007c5.521,0,10-4.477,10-10C152.269-261.155,148.124-265.486,142.896-265.812z"/>
	
		<rect x="111.703" y="-247.847" transform="matrix(-0.5736 -0.8191 0.8191 -0.5736 386.7737 -292.3712)" width="11.183" height="1.999"/>
	
		<rect x="129.678" y="-247.847" transform="matrix(-0.5736 -0.8191 0.8191 -0.5736 415.0592 -277.6481)" width="11.183" height="1.999"/>
	<polygon points="128.11,-242.841 129.88,-242.841 130.311,-242.841 132.32,-242.841 125.906,-252.002 124.269,-250.854 
		128.479,-244.841 126.709,-244.841 124.269,-244.841 125.54,-243.024 126.652,-241.436 131.269,-234.841 132.907,-235.987 
		128.291,-242.583 	"/>
</g>
<g>
	<rect x="217.744" y="-285.278" width="2" height="7.973"/>
	<rect x="198.744" y="-266.364" width="7.973" height="2"/>
	<rect x="203.417" y="-277.631" transform="matrix(0.7071 0.7071 -0.7071 0.7071 -134.8602 -227.6803)" width="7.974" height="2"/>
	<rect x="228.926" y="-280.613" transform="matrix(0.7071 0.7071 -0.7071 0.7071 -128.2611 -243.6042)" width="2" height="7.972"/>
	<path d="M248.256-259.488c-1.444-6.742-7.433-11.8-14.605-11.8c-2.185,0-4.258,0.47-6.126,1.313
		c-1.667-3.202-5.007-5.394-8.866-5.394c-5.522,0-10,4.477-10,9.999c0,2.46,0.899,4.702,2.373,6.442
		c-1.429,1.84-2.287,4.144-2.287,6.653c0,5.983,4.836,10.836,10.813,10.865v0.003h0.188v-2l-0.178-0.003
		c-4.864-0.023-8.822-4.001-8.822-8.865c0-4.89,3.978-8.868,8.867-8.868c0.15,0,0.299,0.012,0.447,0.022l0.148,0.01l1.314,0.085
		l0.597-1.175c2.225-4.372,6.644-7.089,11.532-7.089c6.062,0,11.382,4.298,12.649,10.219l0.318,1.483l1.514,0.094
		c3.708,0.23,6.612,3.319,6.612,7.03c0,3.878-3.144,7.035-7.017,7.057c-0.042-0.003-0.079-0.005-0.117-0.005l-0.866,0.005v2h0.819
		v-0.006c0.042,0.001,0.082,0.006,0.124,0.006c5.001,0,9.057-4.054,9.057-9.057C256.744-255.271,252.99-259.193,248.256-259.488z
		 M220.336-263.105c-0.241-0.016-0.48-0.036-0.725-0.036c-2.766,0-5.282,1.042-7.2,2.743c-1.092-1.367-1.753-3.09-1.753-4.971
		c0-4.41,3.589-7.999,8-7.999c3.091,0,5.76,1.773,7.091,4.345C223.451-267.584,221.571-265.535,220.336-263.105z"/>
	
		<rect x="218.166" y="-243.408" transform="matrix(-0.5736 -0.8191 0.8191 -0.5736 550.6721 -198.182)" width="11.183" height="1.999"/>
	
		<rect x="236.14" y="-243.408" transform="matrix(-0.5736 -0.8191 0.8191 -0.5736 578.9577 -183.4588)" width="11.183" height="1.999"/>
	<polygon points="234.573,-238.402 236.343,-238.402 236.773,-238.402 238.783,-238.402 232.369,-247.563 230.731,-246.416 
		234.942,-240.402 233.172,-240.402 230.731,-240.402 232.003,-238.586 233.115,-236.997 237.731,-230.402 239.37,-231.549 
		234.754,-238.145 	"/>
</g>
<g>
	<path d="M350.094-262.446c-1.444-6.742-7.433-11.8-14.605-11.8c-1.799,0-3.522,0.32-5.118,0.904
		c-0.949-5.108-5.404-8.98-10.788-8.98c-0.413,0-0.819,0.027-1.222,0.071c0.744,1.112,1.179,2.448,1.179,3.886c0,3.865-3.134,7-7,7
		c-1.438,0-2.773-0.435-3.886-1.179c-0.044,0.401-0.071,0.809-0.071,1.222c0,3.712,1.845,6.987,4.661,8.979
		c-1.653,1.907-2.661,4.389-2.661,7.111c0,5.983,4.836,10.836,10.813,10.865v0.003h0.188v-2l-0.178-0.003
		c-4.864-0.023-8.822-4.001-8.822-8.865c0-4.89,3.978-8.868,8.867-8.868c0.15,0,0.299,0.012,0.447,0.022l0.148,0.01l1.314,0.085
		l0.597-1.175c2.225-4.372,6.644-7.089,11.532-7.089c6.062,0,11.382,4.298,12.649,10.219l0.318,1.483l1.514,0.094
		c3.708,0.23,6.612,3.319,6.612,7.03c0,3.878-3.144,7.035-7.017,7.057c-0.042-0.003-0.079-0.005-0.117-0.005l-0.866,0.005v2h0.819
		v-0.006c0.042,0.001,0.082,0.006,0.124,0.006c5.001,0,9.057-4.054,9.057-9.057C358.582-258.229,354.828-262.151,350.094-262.446z
		 M322.174-266.063c-0.241-0.016-0.48-0.036-0.725-0.036c-2.537,0-4.865,0.876-6.715,2.334c-2.012-1.294-3.487-3.354-3.976-5.776
		c0.582,0.117,1.178,0.177,1.78,0.177c4.963,0,9-4.037,9-9c0-0.603-0.06-1.198-0.177-1.78c3.733,0.753,6.629,3.824,7.133,7.641
		C325.784-271.062,323.569-268.806,322.174-266.063z"/>
	
		<rect x="320.003" y="-246.366" transform="matrix(-0.5736 -0.8191 0.8191 -0.5736 713.3495 -119.4213)" width="11.183" height="1.999"/>
	
		<rect x="337.977" y="-246.366" transform="matrix(-0.5736 -0.8191 0.8191 -0.5736 741.6351 -104.6982)" width="11.183" height="1.999"/>
	<polygon points="336.41,-241.36 338.18,-241.36 338.61,-241.36 340.62,-241.36 334.206,-250.521 332.568,-249.374 336.779,-243.36 
		335.009,-243.36 332.568,-243.36 333.84,-241.544 334.952,-239.955 339.568,-233.36 341.207,-234.507 336.591,-241.103 	"/>
</g>
<g>
	<g>
		<path d="M-60.469-175.991c-1.596-7.445-8.207-13.029-16.127-13.029c-6.423,0-11.977,3.678-14.702,9.035
			c-0.266-0.018-0.53-0.04-0.8-0.04c-6.627,0-11.999,5.372-11.999,12c0,6.607,5.34,11.965,11.938,11.998v0.003h2.062v-2h-1.604
			l-0.447-0.003c-5.485-0.027-9.948-4.513-9.948-9.998c0-5.514,4.485-10,9.999-10c0.175,0,0.347,0.014,0.52,0.025l0.148,0.01
			l1.316,0.088l0.598-1.176c2.492-4.899,7.443-7.942,12.92-7.942c6.79,0,12.75,4.814,14.172,11.448l0.317,1.482l1.514,0.095
			c4.203,0.262,7.496,3.763,7.496,7.971c0,4.397-3.565,7.977-7.957,8c-0.05-0.003-0.093-0.005-0.137-0.007l-2.043,0.007h-2.863v2
			h4.863v-0.007c0.046,0.001,0.091,0.007,0.137,0.007c5.521,0,10-4.477,10-10C-51.097-171.335-55.241-175.666-60.469-175.991z"/>
	</g>
	<g>
		<circle cx="-85.597" cy="-162.448" r="1.5"/>
	</g>
	<g>
		<circle cx="-81.597" cy="-156.524" r="1.5"/>
	</g>
	<g>
		<circle cx="-73.597" cy="-156.524" r="1.5"/>
	</g>
	<g>
		<circle cx="-77.597" cy="-162.448" r="1.5"/>
	</g>
	<g>
		<circle cx="-69.597" cy="-162.448" r="1.5"/>
	</g>
	<g>
		<circle cx="-85.597" cy="-150.503" r="1.5"/>
	</g>
	<g>
		<circle cx="-77.597" cy="-150.503" r="1.5"/>
	</g>
	<g>
		<circle cx="-69.597" cy="-150.503" r="1.5"/>
	</g>
</g>
<g>
	<g>
		<rect x="15.317" y="-191.469" width="2" height="7.973"/>
	</g>
	<g>
		<rect x="-3.683" y="-172.555" width="7.973" height="2"/>
	</g>
	<g>
		<rect x="0.99" y="-183.821" transform="matrix(0.7071 0.7071 -0.7071 0.7071 -127.8163 -57.0668)" width="7.974" height="2"/>
	</g>
	<g>
		<rect x="26.499" y="-186.803" transform="matrix(0.7071 0.7071 -0.7071 0.7071 -121.2171 -72.9907)" width="2" height="7.972"/>
	</g>
	<g>
		<path d="M45.829-165.679c-1.444-6.742-7.433-11.8-14.605-11.8c-2.185,0-4.258,0.47-6.127,1.313
			c-1.666-3.202-5.006-5.394-8.865-5.394c-5.522,0-10,4.477-10,9.999c0,2.46,0.898,4.702,2.373,6.442
			c-1.428,1.84-2.287,4.144-2.287,6.653c0,5.983,4.836,10.836,10.813,10.865v0.003h1.188v-2h-0.721l-0.457-0.003
			c-4.864-0.023-8.822-4.001-8.822-8.865c0-4.89,3.978-8.868,8.867-8.868c0.15,0,0.299,0.012,0.447,0.022l0.148,0.01l1.314,0.085
			l0.597-1.175c2.225-4.372,6.644-7.089,11.532-7.089c6.062,0,11.382,4.298,12.649,10.219l0.318,1.483l1.514,0.094
			c3.708,0.23,6.612,3.319,6.612,7.03c0,3.878-3.144,7.035-7.017,7.057c-0.042-0.003-0.079-0.005-0.117-0.005l-2.047,0.005h-1.819v2
			h3.819v-0.006c0.042,0.001,0.082,0.006,0.124,0.006c5.001,0,9.057-4.054,9.057-9.057
			C54.317-161.462,50.563-165.384,45.829-165.679z M17.909-169.296c-0.241-0.016-0.48-0.036-0.725-0.036
			c-2.766,0-5.281,1.042-7.2,2.743c-1.092-1.367-1.753-3.09-1.753-4.971c0-4.41,3.589-7.999,8-7.999c3.092,0,5.76,1.773,7.092,4.345
			C21.024-173.774,19.146-171.726,17.909-169.296z"/>
	</g>
	<g>
		<circle cx="21.807" cy="-154.085" r="1.5"/>
	</g>
	<g>
		<circle cx="25.807" cy="-148.085" r="1.5"/>
	</g>
	<g>
		<circle cx="33.807" cy="-148.085" r="1.5"/>
	</g>
	<g>
		<circle cx="29.807" cy="-154.085" r="1.5"/>
	</g>
	<g>
		<circle cx="37.807" cy="-154.085" r="1.5"/>
	</g>
	<g>
		<circle cx="21.807" cy="-142.063" r="1.5"/>
	</g>
	<g>
		<circle cx="29.807" cy="-142.063" r="1.5"/>
	</g>
	<g>
		<circle cx="37.807" cy="-142.063" r="1.5"/>
	</g>
</g>
<g>
	<g>
		<path d="M141.78-169.635c-1.444-6.742-7.433-11.8-14.605-11.8c-1.799,0-3.521,0.32-5.118,0.904
			c-0.949-5.108-5.404-8.98-10.788-8.98c-0.413,0-0.819,0.027-1.222,0.071c0.744,1.112,1.179,2.448,1.179,3.886c0,3.865-3.134,7-7,7
			c-1.438,0-2.773-0.435-3.886-1.179c-0.044,0.401-0.071,0.809-0.071,1.222c0,3.712,1.845,6.987,4.661,8.979
			c-1.653,1.907-2.661,4.389-2.661,7.111c0,5.983,4.836,10.836,10.813,10.865v0.003h1.188v-2h-0.721l-0.457-0.003
			c-4.864-0.023-8.822-4.001-8.822-8.865c0-4.89,3.978-8.868,8.867-8.868c0.15,0,0.299,0.012,0.447,0.022l0.148,0.01l1.314,0.085
			l0.597-1.175c2.225-4.372,6.644-7.089,11.532-7.089c6.062,0,11.382,4.298,12.649,10.219l0.318,1.483l1.514,0.094
			c3.708,0.23,6.612,3.319,6.612,7.03c0,3.878-3.144,7.035-7.017,7.057c-0.042-0.003-0.079-0.005-0.117-0.005l-2.047,0.005h-1.819v2
			h3.819v-0.006c0.042,0.001,0.082,0.006,0.124,0.006c5.001,0,9.057-4.054,9.057-9.057
			C150.269-165.418,146.515-169.34,141.78-169.635z M113.86-173.252c-0.241-0.016-0.48-0.036-0.725-0.036
			c-2.537,0-4.865,0.876-6.715,2.334c-2.012-1.294-3.486-3.354-3.976-5.776c0.582,0.117,1.178,0.177,1.78,0.177c4.963,0,9-4.037,9-9
			c0-0.603-0.06-1.198-0.177-1.78c3.733,0.753,6.629,3.824,7.134,7.64C117.47-178.25,115.255-175.995,113.86-173.252z"/>
	</g>
	<g>
		<circle cx="117.769" cy="-158.042" r="1.5"/>
	</g>
	<g>
		<circle cx="121.769" cy="-152.042" r="1.5"/>
	</g>
	<g>
		<circle cx="129.769" cy="-152.042" r="1.5"/>
	</g>
	<g>
		<circle cx="125.769" cy="-158.042" r="1.5"/>
	</g>
	<g>
		<circle cx="133.769" cy="-158.042" r="1.5"/>
	</g>
	<g>
		<circle cx="117.769" cy="-146.021" r="1.5"/>
	</g>
	<g>
		<circle cx="125.769" cy="-146.021" r="1.5"/>
	</g>
	<g>
		<circle cx="133.769" cy="-146.021" r="1.5"/>
	</g>
</g>
<g>
	<path d="M452.945-268.521c-1.596-7.445-8.207-13.029-16.127-13.029c-6.423,0-11.977,3.678-14.702,9.035
		c-0.266-0.018-0.53-0.04-0.8-0.04c-6.627,0-11.999,5.372-11.999,12c0,6.607,5.34,11.965,11.938,11.998v0.003h2.062v-2h-1.604
		l-0.447-0.003c-5.485-0.027-9.948-4.513-9.948-9.998c0-5.514,4.485-10,9.999-10c0.175,0,0.347,0.014,0.52,0.025l0.148,0.01
		l1.316,0.088l0.598-1.176c2.492-4.899,7.443-7.942,12.92-7.942c6.79,0,12.75,4.814,14.172,11.448l0.317,1.482l1.514,0.095
		c4.203,0.262,7.496,3.763,7.496,7.971c0,4.397-3.565,7.977-7.957,8c-0.05-0.003-0.093-0.005-0.137-0.007l-2.043,0.007h-2.863v2
		h4.863v-0.007c0.046,0.001,0.091,0.007,0.137,0.007c5.521,0,10-4.477,10-10C462.317-263.864,458.173-268.195,452.945-268.521z"/>
	<circle cx="427.317" cy="-241.05" r="1.5"/>
	<circle cx="435.317" cy="-235.05" r="1.5"/>
	<circle cx="443.317" cy="-239.05" r="1.5"/>
	<rect x="426.317" y="-257.525" width="2" height="11.976"/>
	<polygon points="436.317,-239.585 436.317,-241.525 436.317,-253.525 434.317,-253.525 434.317,-241.525 434.317,-239.585 
		434.317,-239.55 436.317,-239.55 	"/>
	<polygon points="444.317,-243.772 444.317,-245.525 444.317,-257.525 442.317,-257.525 442.317,-245.525 442.317,-243.772 
		442.317,-243.55 444.317,-243.55 	"/>
</g>
<g>
	<rect x="-295.432" y="-196.907" width="2" height="7.973"/>
	<rect x="-314.432" y="-177.993" width="7.973" height="2"/>
	<rect x="-309.759" y="-189.26" transform="matrix(0.7071 0.7071 -0.7071 0.7071 -222.6781 161.0731)" width="7.974" height="2"/>
	<rect x="-284.25" y="-192.242" transform="matrix(0.7071 0.7071 -0.7071 0.7071 -216.079 145.1491)" width="2" height="7.972"/>
	<path d="M-264.92-171.117c-1.444-6.742-7.433-11.8-14.605-11.8c-2.185,0-4.258,0.47-6.126,1.313
		c-1.667-3.202-5.007-5.394-8.866-5.394c-5.522,0-10,4.477-10,9.999c0,2.46,0.899,4.702,2.373,6.442
		c-1.429,1.84-2.287,4.144-2.287,6.653c0,5.983,4.836,10.836,10.813,10.865v0.003h1.188v-2h-0.721l-0.457-0.003
		c-4.864-0.023-8.822-4.001-8.822-8.865c0-4.89,3.978-8.868,8.867-8.868c0.15,0,0.299,0.012,0.447,0.022l0.148,0.01l1.314,0.085
		l0.597-1.175c2.225-4.372,6.644-7.089,11.532-7.089c6.062,0,11.382,4.298,12.649,10.219l0.318,1.483l1.514,0.094
		c3.708,0.23,6.612,3.319,6.612,7.03c0,3.878-3.144,7.035-7.017,7.057c-0.042-0.003-0.079-0.005-0.117-0.005l-2.047,0.005h-0.819v2
		h2.819v-0.006c0.042,0.001,0.082,0.006,0.124,0.006c5.001,0,9.057-4.054,9.057-9.057
		C-256.432-166.9-260.186-170.822-264.92-171.117z M-292.84-174.734c-0.241-0.016-0.48-0.036-0.725-0.036
		c-2.766,0-5.282,1.041-7.2,2.743c-1.092-1.366-1.753-3.09-1.753-4.971c0-4.41,3.589-7.999,8-7.999c3.091,0,5.76,1.773,7.091,4.345
		C-289.725-179.212-291.604-177.164-292.84-174.734z"/>
	<circle cx="-288.441" cy="-144.547" r="1.5"/>
	<circle cx="-280.441" cy="-138.547" r="1.5"/>
	<circle cx="-272.441" cy="-142.547" r="1.5"/>
	<rect x="-289.441" y="-161.022" width="2" height="11.976"/>
	<polygon points="-279.441,-143.082 -279.441,-145.022 -279.441,-157.022 -281.441,-157.022 -281.441,-145.022 -281.441,-143.082 
		-281.441,-143.047 -279.441,-143.047 	"/>
	<polygon points="-271.441,-147.27 -271.441,-149.022 -271.441,-161.022 -273.441,-161.022 -273.441,-149.022 -273.441,-147.27 
		-273.441,-147.047 -271.441,-147.047 	"/>
</g>
<g>
	<path d="M-164.317-174.115c-1.444-6.742-7.433-11.8-14.605-11.8c-1.799,0-3.522,0.32-5.118,0.904
		c-0.949-5.108-5.404-8.98-10.788-8.98c-0.413,0-0.819,0.027-1.222,0.071c0.744,1.112,1.179,2.448,1.179,3.886c0,3.865-3.134,7-7,7
		c-1.438,0-2.773-0.435-3.886-1.179c-0.044,0.401-0.071,0.809-0.071,1.222c0,3.712,1.845,6.987,4.661,8.979
		c-1.653,1.907-2.661,4.389-2.661,7.111c0,5.983,4.836,10.836,10.813,10.865v0.003h1.188v-2h-0.721l-0.457-0.003
		c-4.864-0.023-8.822-4.001-8.822-8.865c0-4.89,3.978-8.868,8.867-8.868c0.15,0,0.299,0.012,0.447,0.022l0.148,0.01l1.314,0.085
		l0.597-1.175c2.225-4.372,6.644-7.089,11.532-7.089c6.062,0,11.382,4.298,12.649,10.219l0.318,1.483l1.514,0.094
		c3.708,0.23,6.612,3.319,6.612,7.03c0,3.878-3.144,7.035-7.017,7.057c-0.042-0.003-0.079-0.005-0.117-0.005l-2.047,0.005h-0.819v2
		h2.819v-0.006c0.042,0.001,0.082,0.006,0.124,0.006c5.001,0,9.057-4.054,9.057-9.057
		C-155.829-169.898-159.583-173.82-164.317-174.115z M-192.237-177.732c-0.241-0.016-0.48-0.036-0.725-0.036
		c-2.537,0-4.865,0.876-6.715,2.334c-2.012-1.294-3.487-3.354-3.976-5.776c0.582,0.117,1.178,0.177,1.78,0.177c4.963,0,9-4.037,9-9
		c0-0.603-0.06-1.198-0.177-1.78c3.733,0.753,6.629,3.824,7.133,7.64C-188.627-182.73-190.842-180.476-192.237-177.732z"/>
	<circle cx="-187.829" cy="-147.541" r="1.5"/>
	<circle cx="-179.829" cy="-141.541" r="1.5"/>
	<circle cx="-171.829" cy="-145.541" r="1.5"/>
	<rect x="-188.829" y="-164.017" width="2" height="11.976"/>
	<polygon points="-178.829,-146.076 -178.829,-148.017 -178.829,-160.017 -180.829,-160.017 -180.829,-148.017 -180.829,-146.076 
		-180.829,-146.041 -178.829,-146.041 	"/>
	<polygon points="-170.829,-150.264 -170.829,-152.017 -170.829,-164.017 -172.829,-164.017 -172.829,-152.017 -172.829,-150.264 
		-172.829,-150.041 -170.829,-150.041 	"/>
</g>
<g>
	<rect x="-312.432" y="-69.675" width="56" height="2"/>
	<rect x="-308.432" y="-63.675" width="50" height="2"/>
	<rect x="-302.432" y="-57.675" width="36" height="2"/>
	<rect x="-310.432" y="-75.675" width="52" height="2"/>
	<path d="M-298.558-83.68c0.175,0,0.347,0.014,0.519,0.025l0.149,0.01l1.316,0.088l0.598-1.176c2.493-4.899,7.443-7.942,12.92-7.942
		c6.79,0,12.75,4.814,14.171,11.448l0.318,1.482l1.514,0.095c1.207,0.075,2.335,0.425,3.336,0.975h3.286
		c-1.678-1.703-3.957-2.813-6.498-2.971c-1.596-7.445-8.207-13.029-16.127-13.029c-6.423,0-11.977,3.678-14.702,9.035
		c-0.266-0.018-0.53-0.04-0.8-0.04c-4.843,0-9.004,2.874-10.9,7.005h2.251C-305.476-81.661-302.251-83.68-298.558-83.68z"/>
</g>
<g>
	<rect x="-191.329" y="-97.189" width="2" height="7.973"/>
	<rect x="-210.329" y="-78.275" width="7.973" height="2"/>
	<rect x="-205.656" y="-89.542" transform="matrix(0.7071 0.7071 -0.7071 0.7071 -121.6761 116.6681)" width="7.974" height="2"/>
	<rect x="-180.147" y="-92.524" transform="matrix(0.7071 0.7071 -0.7071 0.7071 -115.077 100.7442)" width="2" height="7.972"/>
	<rect x="-201.329" y="-63.315" width="50" height="2"/>
	<rect x="-197.329" y="-57.315" width="44" height="2"/>
	<rect x="-191.329" y="-52.315" width="30" height="2"/>
	<rect x="-199.329" y="-69.315" width="46" height="2"/>
	<path d="M-198.421-71.315h0.771h1.927h1.012c1.472-1.087,3.283-1.737,5.249-1.737c0.15,0,0.299,0.012,0.447,0.022l0.148,0.01
		l1.314,0.085l0.597-1.175c2.225-4.372,6.644-7.089,11.532-7.089c5.945,0,11.168,4.139,12.563,9.884h2.043v-0.084
		c-1.444-6.742-7.433-11.8-14.605-11.8c-2.185,0-4.258,0.47-6.126,1.313c-1.667-3.202-5.007-5.394-8.866-5.394
		c-5.522,0-10,4.477-10,9.999C-200.415-75.039-199.667-72.98-198.421-71.315z M-190.415-85.279c3.091,0,5.76,1.773,7.091,4.345
		c-2.298,1.44-4.178,3.488-5.413,5.918c-0.241-0.016-0.48-0.036-0.725-0.036c-2.764,0-5.274,1.045-7.189,2.745
		c-1.097-1.366-1.764-3.089-1.764-4.973C-198.415-81.69-194.826-85.279-190.415-85.279z"/>
</g>
<g>
	<rect x="-102.585" y="-66.753" width="50" height="2"/>
	<rect x="-98.585" y="-60.753" width="44" height="2"/>
	<rect x="-92.585" y="-55.753" width="30" height="2"/>
	<rect x="-100.585" y="-72.753" width="46" height="2"/>
	<path d="M-98.942-74.753h0.037h1.884h1.055c1.472-1.087,3.283-1.737,5.249-1.737c0.15,0,0.299,0.012,0.447,0.022l0.148,0.01
		l1.314,0.085l0.597-1.175c2.225-4.372,6.644-7.089,11.532-7.089c5.945,0,11.168,4.139,12.563,9.884h2.043v-0.084
		c-1.444-6.742-7.433-11.8-14.605-11.8c-1.799,0-3.521,0.32-5.117,0.903c-0.945-5.111-5.402-8.987-10.789-8.987
		c-0.413,0-0.819,0.027-1.222,0.071c0.744,1.112,1.179,2.448,1.179,3.886c0,3.865-3.134,7-7,7c-1.438,0-2.773-0.435-3.886-1.179
		c-0.044,0.401-0.071,0.809-0.071,1.222C-103.585-80.017-101.749-76.746-98.942-74.753z M-99.628-81.764c4.963,0,9-4.037,9-9
		c0-0.603-0.06-1.198-0.177-1.78c3.735,0.753,6.633,3.828,7.134,7.647c-2.712,1.443-4.927,3.699-6.322,6.442
		c-0.241-0.016-0.48-0.036-0.725-0.036c-2.534,0-4.855,0.879-6.701,2.335c-2.02-1.293-3.5-3.356-3.989-5.785
		C-100.826-81.823-100.23-81.764-99.628-81.764z"/>
</g>
<g>
	<path d="M29.307-63.739H9.833l-0.578-0.003C3.77-63.77-0.693-68.255-0.693-73.74c0-5.514,4.485-10,9.999-10
		c0.175,0,0.347,0.014,0.519,0.025l0.149,0.01l1.316,0.088l0.598-1.176c2.493-4.899,7.443-7.942,12.92-7.942
		c6.79,0,12.75,4.814,14.171,11.448l0.318,1.482l1.514,0.095c1.822,0.113,3.463,0.845,4.746,1.971h2.732
		c-1.707-2.262-4.348-3.78-7.354-3.967c-1.596-7.445-8.207-13.029-16.127-13.029c-6.423,0-11.977,3.678-14.702,9.035
		c-0.266-0.018-0.53-0.04-0.8-0.04c-6.627,0-11.999,5.372-11.999,12c0,6.607,5.34,11.965,11.938,11.998v0.003h20.062
		c2.205,0,4,1.794,4,4s-1.795,4-4,4v2c3.314,0,6-2.686,6-6C35.307-61.053,32.621-63.739,29.307-63.739z"/>
	<path d="M33.307-67.739H17.318v2h15.988c3.314,0,6-2.687,6-6c0-3.314-2.686-6-6-6v2c2.205,0,4,1.794,4,4
		S35.512-67.739,33.307-67.739z"/>
	<path d="M46.307-73.739c1.654,0,3,1.346,3,3s-1.346,3-3,3c-0.043,0-0.083-0.011-0.126-0.013h-4.862
		c0.003,0.005,0.009,0.008,0.012,0.013h-0.023v2h5.5v-0.051c2.523-0.254,4.5-2.358,4.5-4.949c0-2.762-2.238-5-5-5V-73.739z"/>
	<path d="M50.307-63.739h-13v2h9.022c-0.004,0.005-0.008,0.008-0.011,0.013h3.862c0.043-0.002,0.083-0.013,0.126-0.013
		c1.654,0,3,1.346,3,3s-1.346,3-3,3v2c2.762,0,5-2.238,5-5S53.068-63.739,50.307-63.739z"/>
	<rect x="11.307" y="-67.739" width="4" height="2"/>
</g>
<path d="M-178.255-462.843c6.95,1.305,12.226,7.419,12.226,14.742c0,8.272-6.729,15.002-15,15.002
	c-6.79,0-12.531-4.49-14.366-10.728c1.398,0.461,2.867,0.698,4.366,0.698c7.72,0,14-6.281,14-14.001
	C-177.029-459.113-177.453-461.058-178.255-462.843 M-181.029-465.1c-0.338,0-0.668,0.031-1,0.051c1.861,2.113,3,4.881,3,7.92
	c0,6.627-5.372,12.001-12,12.001c-2.599,0-4.998-0.835-6.963-2.239c0.387,9.047,7.821,16.269,16.963,16.269
	c9.39,0,17-7.612,17-17.002S-171.64-465.1-181.029-465.1L-181.029-465.1z"/>
<g>
	<path d="M-284.425-460.104c-7.18,0-13,5.819-13,12.999c0,7.181,5.82,13.002,13,13.002s13-5.821,13-13.002
		C-271.425-454.285-277.245-460.104-284.425-460.104z M-284.425-436.104c-6.065,0-11-4.936-11-11.002
		c0-6.064,4.935-10.999,11-10.999s11,4.935,11,10.999C-273.425-441.039-278.359-436.104-284.425-436.104z"/>
	<rect x="-285.432" y="-473.099" width="2" height="10"/>
	<rect x="-285.432" y="-431.099" width="2" height="10"/>
	<rect x="-310.425" y="-448.099" width="9.993" height="2"/>
	<rect x="-268.432" y="-448.099" width="10.007" height="2"/>
	<rect x="-270.732" y="-467.013" transform="matrix(0.7071 0.7071 -0.7071 0.7071 -405.5503 55.4688)" width="2" height="10.409"/>
	
		<rect x="-300.141" y="-437.604" transform="matrix(-0.7071 -0.7071 0.7071 -0.7071 -204.9128 -949.6755)" width="2" height="10.41"/>
	<rect x="-304.341" y="-462.803" transform="matrix(0.7071 0.7071 -0.7071 0.7071 -414.1592 76.2622)" width="10.409" height="2"/>
	
		<rect x="-274.932" y="-433.394" transform="matrix(-0.7072 -0.7071 0.7071 -0.7072 -154.7379 -928.8766)" width="10.41" height="2"/>
</g>
<g>
	<rect x="113.741" y="-102.237" width="2" height="7.973"/>
	<rect x="94.769" y="-83.251" width="7.973" height="2"/>
	<rect x="99.494" y="-94.47" transform="matrix(0.7071 0.7071 -0.7071 0.7071 -35.7841 -100.5491)" width="7.974" height="2"/>
	<rect x="125.003" y="-97.452" transform="matrix(0.7071 0.7071 -0.7071 0.7071 -29.1849 -116.473)" width="2" height="7.972"/>
	<path d="M128.769-60.237l0.005-0.007h-12.536l-0.594-0.003c-4.864-0.024-8.822-4.001-8.822-8.865c0-4.89,3.978-8.868,8.867-8.868
		c0.15,0,0.299,0.012,0.447,0.021l0.148,0.011l1.314,0.085l0.597-1.174c2.225-4.373,6.644-7.09,11.532-7.09
		c5.916,0,11.114,4.099,12.54,9.8h2.065c-1.444-6.742-7.433-11.8-14.605-11.8c-2.185,0-4.258,0.47-6.126,1.313
		c-1.667-3.202-5.007-5.394-8.866-5.394c-5.522,0-10,4.477-10,9.999c0,2.46,0.899,4.702,2.373,6.442
		c-1.429,1.84-2.287,4.144-2.287,6.653c0,5.983,4.836,10.836,10.813,10.865v0.003h13.135v0.007c2.205,0,4,1.794,4,4s-1.795,4-4,4v2
		c3.314,0,6-2.686,6-6C134.769-57.551,132.083-60.237,128.769-60.237z M114.735-90.207c3.091,0,5.76,1.773,7.091,4.345
		c-2.298,1.439-4.178,3.488-5.413,5.918c-0.241-0.016-0.48-0.036-0.725-0.036c-2.766,0-5.282,1.042-7.2,2.743
		c-1.092-1.367-1.753-3.09-1.753-4.971C106.735-86.618,110.324-90.207,114.735-90.207z"/>
	<path d="M132.769-64.237h-9.988v2h9.988c3.314,0,6-2.687,6-6c0-3.314-2.686-6-6-6v2c2.205,0,4,1.794,4,4
		S134.974-64.237,132.769-64.237z"/>
	<path d="M140.792-64.237h-0.023v2h5.5v-0.051c2.523-0.254,4.5-2.358,4.5-4.949c0-2.762-2.238-5-5-5v2c1.654,0,3,1.346,3,3
		s-1.346,3-3,3c-0.043,0-0.083-0.011-0.126-0.013h-4.862C140.783-64.245,140.789-64.241,140.792-64.237z"/>
	<path d="M149.769-60.237h-13v2h9.022c-0.004,0.004-0.008,0.008-0.011,0.013h3.862c0.043-0.002,0.083-0.013,0.126-0.013
		c1.654,0,3,1.346,3,3s-1.346,3-3,3v2c2.762,0,5-2.238,5-5S152.53-60.237,149.769-60.237z"/>
	<rect x="116.769" y="-64.237" width="4" height="2"/>
</g>
<g>
	<path d="M228.73-62.243l0.005-0.007h-12.536l-0.594-0.003c-4.864-0.024-8.822-4.001-8.822-8.865c0-4.89,3.978-8.868,8.867-8.868
		c0.15,0,0.299,0.012,0.447,0.021l0.148,0.011l1.314,0.085l0.597-1.174c2.225-4.373,6.644-7.09,11.532-7.09
		c5.916,0,11.114,4.099,12.54,9.8h2.065c-1.444-6.742-7.433-11.8-14.605-11.8c-1.806,0-3.536,0.322-5.138,0.91
		c-0.938-5.123-5.4-9.01-10.794-9.01c-0.413,0-0.819,0.027-1.222,0.071c0.744,1.112,1.179,2.448,1.179,3.886c0,3.865-3.134,7-7,7
		c-1.438,0-2.773-0.435-3.886-1.179c-0.044,0.401-0.071,0.809-0.071,1.222c0,3.725,1.858,7.009,4.69,8.998
		c-1.655,1.907-2.665,4.392-2.665,7.116c0,5.983,4.836,10.836,10.813,10.865v0.003h13.135v0.007c2.205,0,4,1.794,4,4s-1.795,4-4,4v2
		c3.314,0,6-2.686,6-6C234.73-59.557,232.045-62.243,228.73-62.243z M204.935-85.452c0.582,0.117,1.178,0.177,1.78,0.177
		c4.963,0,9-4.037,9-9c0-0.603-0.06-1.198-0.177-1.78c3.744,0.755,6.646,3.842,7.138,7.674c-2.702,1.444-4.909,3.696-6.301,6.432
		c-0.241-0.016-0.48-0.036-0.725-0.036c-2.535,0-4.861,0.875-6.71,2.33C206.912-80.948,205.426-83.017,204.935-85.452z"/>
	<path d="M232.73-66.243h-9.988v2h9.988c3.314,0,6-2.687,6-6c0-3.314-2.686-6-6-6v2c2.205,0,4,1.794,4,4
		S234.936-66.243,232.73-66.243z"/>
	<path d="M240.754-66.243h-0.023v2h5.5v-0.051c2.523-0.254,4.5-2.358,4.5-4.949c0-2.762-2.238-5-5-5v2c1.654,0,3,1.346,3,3
		s-1.346,3-3,3c-0.043,0-0.083-0.011-0.126-0.013h-4.862C240.745-66.251,240.751-66.247,240.754-66.243z"/>
	<path d="M249.73-62.243h-13v2h9.022c-0.004,0.004-0.008,0.008-0.011,0.013h3.862c0.043-0.002,0.083-0.013,0.126-0.013
		c1.654,0,3,1.346,3,3s-1.346,3-3,3v2c2.762,0,5-2.238,5-5S252.492-62.243,249.73-62.243z"/>
	<rect x="216.73" y="-66.243" width="4" height="2"/>
</g>
<g>
	<rect x="329.623" y="-99.675" width="2" height="10"/>
	<rect x="304.63" y="-74.675" width="9.993" height="2"/>
	<rect x="344.323" y="-93.589" transform="matrix(0.7071 0.7071 -0.7071 0.7071 38.6456 -270.0672)" width="2" height="10.409"/>
	<rect x="310.714" y="-89.379" transform="matrix(0.7071 0.7071 -0.7071 0.7071 30.0367 -249.2738)" width="10.409" height="2"/>
	<path d="M334.623-59.675h-24v2h24c2.205,0,4,1.794,4,4s-1.795,4-4,4v2c3.314,0,6-2.686,6-6
		C340.623-56.988,337.938-59.675,334.623-59.675z"/>
	<path d="M346.646-63.675h-0.023v2h5.5v-0.051c2.523-0.254,4.5-2.358,4.5-4.949c0-2.762-2.238-5-5-5v2c1.654,0,3,1.346,3,3
		s-1.346,3-3,3c-0.043,0-0.083-0.011-0.126-0.013h-4.862C346.638-63.683,346.644-63.679,346.646-63.675z"/>
	<path d="M355.623-59.675h-13v2h9.022c-0.004,0.004-0.008,0.008-0.011,0.013h3.862c0.043-0.002,0.083-0.013,0.126-0.013
		c1.654,0,3,1.346,3,3s-1.346,3-3,3v2c2.762,0,5-2.238,5-5S358.385-59.675,355.623-59.675z"/>
	<path d="M322.332-63.675h-11.709v2h12.012h0.822h15.166c3.314,0,6-2.687,6-6c0-3.314-2.686-6-6-6v2c2.205,0,4,1.794,4,4
		s-1.795,4-4,4h-12.538c-3.802-1.734-6.455-5.563-6.455-10.007c0-6.064,4.935-10.999,11-10.999c5.384,0,9.868,3.891,10.81,9.006
		h2.021c-0.961-6.23-6.331-11.006-12.831-11.006c-7.18,0-13,5.819-13,12.999C317.63-69.656,319.46-66.06,322.332-63.675z"/>
</g>
<g>
	<path d="M434.85-66.231h-24v2h24c2.205,0,4,1.794,4,4s-1.795,4-4,4v2c3.314,0,6-2.686,6-6
		C440.85-63.545,438.164-66.231,434.85-66.231z"/>
	<path d="M452.35-68.231v-0.051c2.523-0.254,4.5-2.358,4.5-4.949c0-2.762-2.238-5-5-5v2c1.654,0,3,1.346,3,3s-1.346,3-3,3
		c-0.043,0-0.083-0.011-0.126-0.013h-4.862c0.004,0.005,0.009,0.009,0.012,0.013h-0.023v2H452.35z"/>
	<path d="M455.85-66.231h-13v2h9.022c-0.003,0.004-0.007,0.008-0.011,0.013h3.862c0.043-0.002,0.083-0.013,0.126-0.013
		c1.654,0,3,1.346,3,3s-1.346,3-3,3v2c2.762,0,5-2.238,5-5S458.611-66.231,455.85-66.231z"/>
	<path d="M423.684-68.231h15.166c3.314,0,6-2.687,6-6c0-3.314-2.686-6-6-6v2c2.205,0,4,1.794,4,4s-1.795,4-4,4h-12.586
		c-2.596-1.188-4.658-3.339-5.69-6.034c0.849,0.204,1.724,0.309,2.612,0.309c6.168,0,11.187-5.019,11.187-11.188
		c0-1.276-0.22-2.532-0.64-3.717c4.046,1.102,7.168,4.459,7.937,8.63h2.018c-0.964-6.237-6.338-11.016-12.846-11.016
		c-0.259,0-0.511,0.024-0.766,0.039c1.425,1.618,2.297,3.737,2.297,6.063c0,5.072-4.112,9.188-9.187,9.188
		c-1.988,0-3.826-0.641-5.33-1.715c0.162,3.801,1.962,7.165,4.699,9.44H410.85v2h12.012H423.684z"/>
</g>
<g>
	<path d="M-284.932,18.962h-20c-1.103,0-2-0.897-2-2s0.897-2,2-2h3.445h0.555v-2h-4c-2.209,0-4,1.791-4,4s1.791,4,4,4h20
		c2.205,0,4,1.794,4,4s-1.795,4-4,4v2c3.314,0,6-2.686,6-6C-278.932,21.648-281.617,18.962-284.932,18.962z"/>
	<path d="M-282.932,2.962v2c2.205,0,4,1.794,4,4s-1.795,4-4,4h-15.988v2h15.988c3.314,0,6-2.687,6-6
		C-276.932,5.647-279.617,2.962-282.932,2.962z"/>
	<path d="M-276.932,14.962v2h5.5v-0.051c2.523-0.254,4.5-2.358,4.5-4.949c0-2.762-2.238-5-5-5v2c1.654,0,3,1.346,3,3s-1.346,3-3,3
		c-0.043,0-0.083-0.011-0.126-0.013h-4.862c0.003,0.005,0.009,0.009,0.012,0.013H-276.932z"/>
	<path d="M-265.932,18.962h-11v2h7.022c-0.004,0.004-0.008,0.008-0.011,0.013h3.862c0.043-0.002,0.083-0.013,0.126-0.013
		c1.654,0,3,1.346,3,3s-1.346,3-3,3v2c2.762,0,5-2.238,5-5S-263.17,18.962-265.932,18.962z"/>
</g>
<path d="M251.36,5.309V5.271h-38.376c-1.103,0-2-0.897-2-2s0.897-2,2-2h33c2.762,0,5-2.238,5-5s-2.238-5-5-5h-37.875v0.008
	c-0.042-0.001-0.083-0.008-0.125-0.008c-2.762,0-5,2.238-5,5s2.238,5,5,5v-2c-1.654,0-3-1.346-3-3s1.346-3,3-3h0.125h3.853h34.022
	c1.654,0,3,1.346,3,3s-1.346,3-3,3h-33c-2.209,0-4,1.791-4,4s1.791,4,4,4h38c1.103,0,2,0.897,2,2s-0.897,2-2,2h-32
	c-2.209,0-4,1.791-4,4s1.791,4,4,4h22c1.103,0,2,0.897,2,2s-0.897,2-2,2h-24.01v0.001c-2.204,0.006-3.99,1.793-3.99,3.999
	s1.786,3.993,3.99,3.999v0.001h12.01c1.103,0,2,0.897,2,2s-0.897,2-2,2h-2c-2.209,0-4,1.791-4,4s1.791,4,4,4v-2
	c-1.103,0-2-0.897-2-2s0.897-2,2-2h2c2.209,0,4-1.791,4-4s-1.791-4-4-4h-12c-1.103,0-2-0.897-2-2s0.897-2,2-2h24
	c2.209,0,4-1.791,4-4c0-2.152-1.704-3.895-3.834-3.983v-0.017h-22.166c-1.103,0-2-0.897-2-2s0.897-2,2-2h32c2.209,0,4-1.791,4-4
	C254.984,7.19,253.391,5.501,251.36,5.309z"/>
<path d="M436.775-4.014v-2.024h-2v2.024c-13.01,0.513-23.462,10.965-23.975,23.976h1.674c1.14-1.222,2.748-2,4.551-2
	c2.26,0,4.233,1.203,5.331,3h1.838c1.098-1.797,3.071-3,5.331-3c2.204,0,4.137,1.144,5.25,2.866v15.134c0,2.21,1.791,4,4,4
	s4-1.79,4-4h-2c0,1.103-0.897,2-2,2s-2-0.897-2-2V20.828c1.113-1.723,3.046-2.866,5.25-2.866c2.26,0,4.233,1.203,5.331,3h1.838
	c1.098-1.797,3.071-3,5.331-3c1.803,0,3.411,0.778,4.551,2h1.674C460.237,6.951,449.785-3.501,436.775-4.014z M454.525,15.962
	c-2.496,0-4.736,1.114-6.25,2.87c-1.514-1.756-3.754-2.87-6.25-2.87s-4.736,1.114-6.25,2.87c-1.514-1.756-3.754-2.87-6.25-2.87
	s-4.736,1.114-6.25,2.87c-1.514-1.756-3.755-2.87-6.25-2.87c-1.402,0-2.731,0.351-3.897,0.975
	c1.909-10.769,11.339-18.975,22.647-18.975s20.738,8.206,22.647,18.975C457.257,16.313,455.928,15.962,454.525,15.962z"/>
<g>
	<path d="M31.48,120.274v-17.105c0-2.762-2.238-5-5-5s-5,2.238-5,5v17.105c-1.236,1.263-2,2.988-2,4.895c0,3.866,3.134,7,7,7
		s7-3.134,7-7C33.48,123.263,32.717,121.537,31.48,120.274z M26.48,130.169c-2.757,0-5-2.243-5-5c0-1.313,0.508-2.554,1.429-3.495
		l0.571-0.583v-0.816v-17.105c0-1.654,1.346-3,3-3s3,1.346,3,3v17.105v0.816l0.571,0.583c0.921,0.941,1.429,2.183,1.429,3.495
		C31.48,127.926,29.237,130.169,26.48,130.169z"/>
	<path d="M27.48,122.345v-15.176h-2v15.176c-1.167,0.413-2.008,1.516-2.008,2.824c0,1.662,1.347,3.008,3.008,3.008
		c1.662,0,3.008-1.346,3.008-3.008C29.488,123.86,28.648,122.758,27.48,122.345z M26.48,126.177c-0.556,0-1.008-0.452-1.008-1.008
		s0.452-1.008,1.008-1.008s1.008,0.452,1.008,1.008S27.036,126.177,26.48,126.177z"/>
</g>
<g>
	<path d="M131.269,120.274v-17.105c0-2.762-2.238-5-5-5s-5,2.238-5,5v17.105c-1.236,1.263-2,2.988-2,4.895c0,3.866,3.134,7,7,7
		s7-3.134,7-7C133.269,123.263,132.505,121.537,131.269,120.274z M126.269,130.169c-2.757,0-5-2.243-5-5
		c0-1.313,0.508-2.554,1.429-3.495l0.571-0.583v-0.816v-17.105c0-1.654,1.346-3,3-3s3,1.346,3,3v17.105v0.816l0.571,0.583
		c0.921,0.941,1.429,2.183,1.429,3.495C131.269,127.926,129.025,130.169,126.269,130.169z"/>
	<path d="M127.269,122.345v-20.176h-2v20.176c-1.167,0.413-2.008,1.516-2.008,2.824c0,1.662,1.347,3.008,3.008,3.008
		c1.662,0,3.008-1.346,3.008-3.008C129.276,123.86,128.437,122.758,127.269,122.345z M126.269,126.177
		c-0.556,0-1.008-0.452-1.008-1.008s0.452-1.008,1.008-1.008s1.008,0.452,1.008,1.008S126.824,126.177,126.269,126.177z"/>
</g>
<g>
	<path d="M-71.629,120.274v-17.105c0-2.762-2.238-5-5-5s-5,2.238-5,5v17.105c-1.236,1.263-2,2.988-2,4.895c0,3.866,3.134,7,7,7
		s7-3.134,7-7C-69.629,123.263-70.393,121.537-71.629,120.274z M-76.629,130.169c-2.757,0-5-2.243-5-5
		c0-1.313,0.508-2.554,1.429-3.495l0.571-0.583v-0.816v-17.105c0-1.654,1.346-3,3-3s3,1.346,3,3v17.105v0.816l0.571,0.583
		c0.921,0.941,1.429,2.183,1.429,3.495C-71.629,127.926-73.872,130.169-76.629,130.169z"/>
	<path d="M-75.629,122.345v-10.176h-2v10.176c-1.167,0.413-2.008,1.516-2.008,2.824c0,1.662,1.347,3.008,3.008,3.008
		c1.662,0,3.008-1.346,3.008-3.008C-73.621,123.86-74.461,122.758-75.629,122.345z M-76.629,126.177
		c-0.556,0-1.008-0.452-1.008-1.008s0.452-1.008,1.008-1.008s1.008,0.452,1.008,1.008S-76.073,126.177-76.629,126.177z"/>
</g>
<g>
	<path d="M-175.274,120.274v-17.105c0-2.762-2.238-5-5-5s-5,2.238-5,5v17.105c-1.236,1.263-2,2.988-2,4.895c0,3.866,3.134,7,7,7
		s7-3.134,7-7C-173.274,123.263-174.038,121.537-175.274,120.274z M-180.274,130.169c-2.757,0-5-2.243-5-5
		c0-1.313,0.508-2.554,1.429-3.495l0.571-0.583v-0.816v-17.105c0-1.654,1.346-3,3-3s3,1.346,3,3v17.105v0.816l0.571,0.583
		c0.921,0.941,1.429,2.183,1.429,3.495C-175.274,127.926-177.518,130.169-180.274,130.169z"/>
	<path d="M-179.274,122.345v-5.176h-2v5.176c-1.167,0.413-2.008,1.516-2.008,2.824c0,1.662,1.347,3.008,3.008,3.008
		c1.662,0,3.008-1.346,3.008-3.008C-177.267,123.86-178.106,122.758-179.274,122.345z M-180.274,126.177
		c-0.556,0-1.008-0.452-1.008-1.008s0.452-1.008,1.008-1.008s1.008,0.452,1.008,1.008S-179.719,126.177-180.274,126.177z"/>
</g>
<g>
	<path d="M-279.932,120.274v-17.105c0-2.762-2.238-5-5-5s-5,2.238-5,5v17.105c-1.236,1.263-2,2.988-2,4.895c0,3.866,3.134,7,7,7
		s7-3.134,7-7C-277.932,123.263-278.695,121.537-279.932,120.274z M-284.932,130.169c-2.757,0-5-2.243-5-5
		c0-1.313,0.508-2.554,1.429-3.495l0.571-0.583v-0.816v-17.105c0-1.654,1.346-3,3-3s3,1.346,3,3v17.105v0.816l0.571,0.583
		c0.921,0.941,1.429,2.183,1.429,3.495C-279.932,127.926-282.175,130.169-284.932,130.169z"/>
	<path d="M-284.932,122.161c-1.661,0-3.008,1.347-3.008,3.008c0,1.662,1.347,3.008,3.008,3.008c1.662,0,3.008-1.346,3.008-3.008
		C-281.924,123.508-283.27,122.161-284.932,122.161z M-284.932,126.177c-0.556,0-1.008-0.452-1.008-1.008s0.452-1.008,1.008-1.008
		s1.008,0.452,1.008,1.008S-284.376,126.177-284.932,126.177z"/>
</g>
<g>
	<path d="M219.993,100.481c-2.209,0-4,1.791-4,4c0,2.21,1.791,4,4,4c2.211,0,4-1.79,4-4
		C223.993,102.272,222.204,100.481,219.993,100.481z M219.993,106.481c-1.103,0-2-0.897-2-2s0.897-2,2-2s2,0.897,2,2
		S221.096,106.481,219.993,106.481z"/>
	<path d="M233.993,128.481c-4.41,0-7.999-3.589-7.999-7.999v-4.002c0-4.41,3.589-7.999,7.999-7.999c2.715,0,5.115,1.362,6.563,3.437
		l1.43-1.43c-1.824-2.429-4.72-4.007-7.992-4.007c-5.522,0-9.999,4.478-9.999,9.999v4.002c0,5.521,4.477,9.999,9.999,9.999
		c3.272,0,6.168-1.579,7.992-4.008l-1.43-1.43C239.109,127.118,236.709,128.481,233.993,128.481z"/>
</g>
<g>
	<path d="M324.689,100.36c-2.209,0-4,1.791-4,4c0,2.21,1.791,4,4,4c2.211,0,4-1.79,4-4C328.689,102.151,326.9,100.36,324.689,100.36
		z M324.689,106.36c-1.103,0-2-0.897-2-2s0.897-2,2-2s2,0.897,2,2S325.792,106.36,324.689,106.36z"/>
	<polygon points="344.564,108.481 344.564,106.481 332.564,106.481 330.564,106.481 330.564,130.481 332.564,130.481 
		332.564,118.481 340.564,118.481 340.564,116.481 332.564,116.481 332.564,108.481 	"/>
</g>
<g>
	<path d="M435.775,104.173c-7.179,0-13,5.82-13,13s5.821,13,13,13s13-5.82,13-13S442.954,104.173,435.775,104.173z M435.775,128.173
		c-6.065,0-11-4.935-11-11s4.935-11,11-11s11,4.935,11,11S441.841,128.173,435.775,128.173z"/>
	<path d="M431.509,121.415l6.363-2.121l2.121-6.364l-6.363,2.122L431.509,121.415z M435.211,116.633l1.62-0.54l-0.54,1.62
		l-1.62,0.54L435.211,116.633z"/>
</g>
<g>
	<path d="M-284.932,194.69c-7.179,0-13,5.82-13,13s5.821,13,13,13s13-5.82,13-13S-277.753,194.69-284.932,194.69z M-284.932,218.69
		c-6.065,0-11-4.934-11-11c0-6.064,4.935-11,11-11s11,4.936,11,11C-273.932,213.757-278.866,218.69-284.932,218.69z"/>
	<path d="M-282.37,206.112l-2.586-4.422l-2.529,4.33h0.007c-0.299,0.467-0.478,1.018-0.478,1.613c0,1.656,1.343,3,3,3s3-1.344,3-3
		c0-0.559-0.162-1.074-0.428-1.521H-282.37z M-284.956,208.634c-0.552,0-1-0.449-1-1c0-0.188,0.055-0.367,0.162-0.535l0.864-1.355
		l0.826,1.391c0.098,0.164,0.147,0.332,0.147,0.5C-283.956,208.185-284.404,208.634-284.956,208.634z"/>
</g>
<g>
	<path d="M-180.147,194.69c-7.18,0-13,5.82-13,13s5.82,13,13,13s13-5.82,13-13S-172.968,194.69-180.147,194.69z M-180.147,218.69
		c-6.065,0-11-4.934-11-11c0-6.064,4.935-11,11-11s11,4.936,11,11C-169.147,213.757-174.082,218.69-180.147,218.69z"/>
	<path d="M-178.559,205.11c-0.467-0.299-1.018-0.477-1.613-0.477c-1.658,0-3,1.342-3,3c0,1.656,1.342,3,3,3
		c0.557,0,1.072-0.162,1.52-0.428v0.014l4.422-2.586l-4.328-2.529V205.11z M-179.674,208.485c-0.164,0.098-0.332,0.148-0.498,0.148
		c-0.552,0-1-0.449-1-1c0-0.553,0.448-1,1-1c0.188,0,0.368,0.053,0.535,0.16l1.355,0.865L-179.674,208.485z"/>
</g>
<g>
	<path d="M-77.097,194.69c-7.18,0-13,5.82-13,13s5.82,13,13,13s13-5.82,13-13S-69.917,194.69-77.097,194.69z M-77.097,218.69
		c-6.065,0-11-4.934-11-11c0-6.064,4.935-11,11-11s11,4.936,11,11C-66.097,213.757-71.031,218.69-77.097,218.69z"/>
	<path d="M-77.097,204.634c-1.656,0-3,1.342-3,3c0,0.557,0.162,1.072,0.428,1.52h-0.014l2.586,4.422l2.529-4.328h-0.006
		c0.299-0.467,0.477-1.018,0.477-1.613C-74.097,205.976-75.438,204.634-77.097,204.634z M-76.258,208.169l-0.865,1.355l-0.826-1.393
		c-0.098-0.164-0.147-0.332-0.147-0.498c0-0.553,0.448-1,1-1s1,0.447,1,1C-76.097,207.821-76.15,208.001-76.258,208.169z"/>
</g>
<g>
	<path d="M26.317,194.69c-7.179,0-13,5.82-13,13s5.821,13,13,13s13-5.82,13-13S33.496,194.69,26.317,194.69z M26.317,218.69
		c-6.065,0-11-4.934-11-11c0-6.064,4.935-11,11-11s11,4.936,11,11C37.317,213.757,32.383,218.69,26.317,218.69z"/>
	<path d="M26.276,204.634c-0.557,0-1.072,0.162-1.52,0.428v-0.014l-4.422,2.586l4.328,2.529v-0.006
		c0.467,0.299,1.018,0.477,1.613,0.477c1.658,0,3-1.342,3-3C29.276,205.978,27.935,204.634,26.276,204.634z M26.276,208.634
		c-0.188,0-0.368-0.055-0.535-0.162l-1.355-0.865l1.393-0.826c0.164-0.098,0.332-0.146,0.498-0.146c0.552,0,1,0.447,1,1
		C27.276,208.185,26.828,208.634,26.276,208.634z"/>
</g>
<g>
	<rect x="-181.834" y="-2.038" width="2" height="10"/>
	<rect x="-167.134" y="4.048" transform="matrix(0.7071 0.7071 -0.7071 0.7071 -42.1171 120.1846)" width="2" height="10.409"/>
	<rect x="-200.743" y="8.257" transform="matrix(0.7071 0.7071 -0.7071 0.7071 -50.726 140.9781)" width="10.409" height="2"/>
	<polygon points="-187.502,27.216 -186.088,28.63 -181.834,24.376 -181.834,33.962 -179.834,33.962 -179.834,24.376 -175.581,28.63 
		-174.167,27.216 -180.834,20.548 	"/>
	<path d="M-167.827,23.961c0-0.002,0-0.004,0-0.006c0-7.18-5.82-12.999-13-12.999s-13,5.819-13,12.999c0,0.002,0,0.004,0,0.006h-13
		v2h18v-2h-3c0-0.002,0-0.004,0-0.006c0-6.064,4.935-10.999,11-10.999s11,4.935,11,10.999c0,0.002,0,0.004,0,0.006h-3v2h17.995v-2
		H-167.827z"/>
</g>
<g>
	<rect x="-78.089" y="-3.226" width="2" height="10"/>
	<rect x="-63.389" y="2.86" transform="matrix(0.7071 0.7071 -0.7071 0.7071 -12.5706 46.478)" width="2" height="10.409"/>
	<rect x="-96.998" y="7.07" transform="matrix(0.7071 0.7071 -0.7071 0.7071 -21.1795 67.2714)" width="10.409" height="2"/>
	<polygon points="-76.089,31.321 -76.089,20.774 -78.089,20.774 -78.089,31.321 -82.343,27.067 -83.757,28.481 -77.089,35.149 
		-70.422,28.481 -71.836,27.067 	"/>
	<path d="M-64.082,22.773c0-0.002,0-0.004,0-0.006c0-7.18-5.82-12.999-13-12.999s-13,5.819-13,12.999c0,0.002,0,0.004,0,0.006h-13v2
		h22v-2h-7c0-0.002,0-0.004,0-0.006c0-6.064,4.935-10.999,11-10.999s11,4.935,11,10.999c0,0.002,0,0.004,0,0.006h-7v2h21.995v-2
		H-64.082z"/>
</g>
<g>
	<polygon points="126.269,30.787 126.269,16.404 124.269,16.404 124.269,30.787 120.015,26.533 118.601,27.947 125.269,34.615 
		131.936,27.947 130.521,26.533 	"/>
	<path d="M141.896,11.434c-1.596-7.445-8.207-13.029-16.127-13.029c-6.423,0-11.977,3.678-14.702,9.035
		c-0.266-0.018-0.53-0.04-0.8-0.04c-6.627,0-11.999,5.372-11.999,12c0,6.607,5.34,11.965,11.938,11.998V31.4h6.062v-2h-5.604
		l-0.447-0.003c-5.485-0.027-9.948-4.513-9.948-9.998c0-5.514,4.485-10,9.999-10c0.175,0,0.347,0.014,0.52,0.025l0.148,0.01
		l1.316,0.088l0.598-1.176c2.492-4.899,7.443-7.942,12.92-7.942c6.79,0,12.75,4.814,14.172,11.448l0.317,1.482l1.514,0.095
		c4.203,0.262,7.496,3.763,7.496,7.971c0,4.397-3.565,7.977-7.957,8c-0.05-0.003-0.093-0.005-0.137-0.007l-2.043,0.007h-4.863v2
		h6.863v-0.007c0.046,0.001,0.091,0.007,0.137,0.007c5.521,0,10-4.477,10-10C151.269,16.09,147.124,11.759,141.896,11.434z"/>
</g>
<g>
	<polygon points="32.253,27.592 33.667,26.178 27,19.51 20.332,26.178 21.746,27.592 26,23.338 26,35.924 28,35.924 28,23.338 	"/>
	<path d="M43.628,13.029C42.032,5.584,35.421,0,27.501,0c-6.423,0-11.977,3.678-14.702,9.035c-0.266-0.018-0.53-0.04-0.8-0.04
		C5.372,8.995,0,14.367,0,20.995c0,6.607,5.34,11.965,11.938,11.998v0.003H22v-2h-9.604l-0.447-0.003C6.463,30.966,2,26.48,2,20.995
		c0-5.514,4.485-10,9.999-10c0.175,0,0.347,0.014,0.52,0.025l0.148,0.01l1.316,0.088l0.598-1.176C17.073,5.043,22.024,2,27.501,2
		c6.79,0,12.75,4.814,14.172,11.448l0.317,1.482l1.514,0.095C47.707,15.287,51,18.788,51,22.996c0,4.397-3.565,7.977-7.957,8
		c-0.05-0.003-0.093-0.005-0.137-0.007l-2.043,0.007H32v2h10.863v-0.007c0.046,0.001,0.091,0.007,0.137,0.007
		c5.521,0,10-4.477,10-10C53,17.686,48.855,13.354,43.628,13.029z"/>
</g>
<g>
	<path d="M246.117-176.486c-1.596-7.445-8.207-13.029-16.127-13.029c-6.423,0-11.977,3.678-14.702,9.035
		c-0.266-0.018-0.53-0.04-0.8-0.04c-6.627,0-11.999,5.372-11.999,12c0,6.607,5.34,11.965,11.938,11.998v0.003h2.062v-2h-1.604
		l-0.447-0.003c-5.485-0.027-9.948-4.513-9.948-9.998c0-5.514,4.485-10,9.999-10c0.175,0,0.347,0.014,0.52,0.025l0.148,0.01
		l1.316,0.088l0.598-1.176c2.492-4.899,7.443-7.942,12.92-7.942c6.79,0,12.75,4.814,14.172,11.448l0.317,1.482l1.514,0.095
		c4.203,0.262,7.496,3.763,7.496,7.971c0,4.397-3.565,7.977-7.957,8c-0.05-0.003-0.093-0.005-0.137-0.007l-2.043,0.007h-0.863v2
		h2.863v-0.007c0.046,0.001,0.091,0.007,0.137,0.007c5.521,0,10-4.477,10-10C255.489-171.83,251.345-176.161,246.117-176.486z"/>
	<polygon points="224.489,-157.498 224.489,-160.128 226.662,-158.905 227.348,-160.126 224.878,-161.516 227.348,-162.905 
		226.662,-164.126 224.489,-162.903 224.489,-165.498 222.489,-165.498 222.489,-162.859 220.238,-164.126 219.553,-162.905 
		222.022,-161.516 219.553,-160.126 220.238,-158.905 222.489,-160.172 222.489,-157.498 	"/>
	<polygon points="229.651,-153.144 227.479,-151.921 227.479,-154.516 225.479,-154.516 225.479,-151.877 223.228,-153.144 
		222.542,-151.923 225.012,-150.533 222.542,-149.144 223.228,-147.923 225.479,-149.189 225.479,-146.516 227.479,-146.516 
		227.479,-149.146 229.651,-147.923 230.337,-149.144 227.867,-150.533 230.337,-151.923 	"/>
	<polygon points="238.667,-160.126 236.494,-158.903 236.494,-161.498 234.494,-161.498 234.494,-158.859 232.243,-160.126 
		231.558,-158.905 234.027,-157.516 231.558,-156.126 232.243,-154.905 234.494,-156.172 234.494,-153.498 236.494,-153.498 
		236.494,-156.128 238.667,-154.905 239.353,-156.126 236.883,-157.516 239.353,-158.905 	"/>
</g>
<g>
	<rect x="321.629" y="-194.538" width="2" height="7.973"/>
	<rect x="302.629" y="-175.624" width="7.973" height="2"/>
	<rect x="307.302" y="-186.891" transform="matrix(0.7071 0.7071 -0.7071 0.7071 -40.2701 -274.5607)" width="7.974" height="2"/>
	<rect x="332.811" y="-189.872" transform="matrix(0.7071 0.7071 -0.7071 0.7071 -33.6709 -290.4847)" width="2" height="7.972"/>
	<path d="M352.141-168.748c-1.444-6.742-7.433-11.8-14.605-11.8c-2.185,0-4.258,0.471-6.127,1.314
		c-1.666-3.203-5.006-5.395-8.865-5.395c-5.522,0-10,4.477-10,9.999c0,2.46,0.899,4.702,2.373,6.442
		c-1.428,1.84-2.287,4.144-2.287,6.653c0,5.983,4.836,10.836,10.813,10.865v0.003h1.188v-2h-0.721l-0.457-0.003
		c-4.864-0.023-8.822-4.001-8.822-8.865c0-4.89,3.978-8.868,8.867-8.868c0.15,0,0.299,0.012,0.447,0.022l0.148,0.01l1.314,0.085
		l0.597-1.175c2.225-4.372,6.644-7.089,11.532-7.089c6.062,0,11.382,4.298,12.649,10.219l0.318,1.483l1.514,0.094
		c3.708,0.23,6.612,3.319,6.612,7.03c0,3.878-3.144,7.035-7.017,7.057c-0.042-0.003-0.079-0.005-0.117-0.005l-1.866,0.005v2h1.819
		v-0.006c0.042,0.001,0.082,0.006,0.124,0.006c5.001,0,9.057-4.054,9.057-9.057C360.629-164.531,356.875-168.453,352.141-168.748z
		 M324.221-172.365c-0.241-0.016-0.48-0.036-0.725-0.036c-2.766,0-5.282,1.041-7.2,2.742c-1.092-1.365-1.753-3.089-1.753-4.97
		c0-4.41,3.589-7.999,8-7.999c3.092,0,5.76,1.773,7.091,4.346C327.336-176.843,325.457-174.795,324.221-172.365z"/>
	<polygon points="331.621,-151.646 331.621,-154.275 333.794,-153.053 334.479,-154.273 332.01,-155.663 334.479,-157.053 
		333.794,-158.273 331.621,-157.051 331.621,-159.646 329.621,-159.646 329.621,-157.007 327.37,-158.273 326.685,-157.053 
		329.154,-155.663 326.685,-154.273 327.37,-153.053 329.621,-154.319 329.621,-151.646 	"/>
	<polygon points="336.783,-147.291 334.61,-146.068 334.61,-148.663 332.61,-148.663 332.61,-146.024 330.359,-147.291 
		329.674,-146.07 332.144,-144.681 329.674,-143.291 330.359,-142.07 332.61,-143.337 332.61,-140.663 334.61,-140.663 
		334.61,-143.293 336.783,-142.07 337.469,-143.291 334.999,-144.681 337.469,-146.07 	"/>
	<polygon points="345.799,-154.273 343.626,-153.051 343.626,-155.646 341.626,-155.646 341.626,-153.007 339.375,-154.273 
		338.689,-153.053 341.159,-151.663 338.689,-150.273 339.375,-149.053 341.626,-150.319 341.626,-147.646 343.626,-147.646 
		343.626,-150.275 345.799,-149.053 346.484,-150.273 344.015,-151.663 346.484,-153.053 	"/>
</g>
<g>
	<path d="M452.329-171.751c-1.444-6.742-7.433-11.8-14.605-11.8c-1.799,0-3.522,0.32-5.118,0.904
		c-0.949-5.108-5.404-8.98-10.788-8.98c-0.413,0-0.819,0.027-1.222,0.071c0.744,1.112,1.179,2.448,1.179,3.886c0,3.865-3.134,7-7,7
		c-1.438,0-2.773-0.435-3.886-1.179c-0.044,0.401-0.071,0.809-0.071,1.222c0,3.713,1.845,6.987,4.661,8.979
		c-1.653,1.907-2.661,4.389-2.661,7.111c0,5.983,4.836,10.836,10.813,10.865v0.003h1.188v-2h-0.721l-0.457-0.003
		c-4.864-0.023-8.822-4.001-8.822-8.865c0-4.89,3.978-8.868,8.867-8.868c0.15,0,0.299,0.012,0.447,0.022l0.148,0.01l1.314,0.085
		l0.597-1.175c2.225-4.372,6.644-7.089,11.532-7.089c6.062,0,11.382,4.298,12.649,10.219l0.318,1.483l1.514,0.094
		c3.708,0.23,6.612,3.319,6.612,7.03c0,3.878-3.144,7.035-7.017,7.057c-0.042-0.003-0.079-0.005-0.117-0.005l-1.866,0.005v2h1.819
		v-0.006c0.042,0.001,0.082,0.006,0.124,0.006c5.001,0,9.057-4.054,9.057-9.057C460.817-167.534,457.063-171.456,452.329-171.751z
		 M424.409-175.368c-0.241-0.016-0.48-0.036-0.725-0.036c-2.537,0-4.865,0.877-6.715,2.334c-2.012-1.294-3.486-3.354-3.976-5.776
		c0.582,0.117,1.178,0.177,1.78,0.177c4.963,0,9-4.037,9-9c0-0.603-0.06-1.198-0.177-1.78c3.733,0.753,6.629,3.824,7.134,7.64
		C428.019-180.366,425.804-178.111,424.409-175.368z"/>
	<polygon points="431.854,-154.648 431.854,-157.278 434.027,-156.056 434.713,-157.276 432.243,-158.666 434.713,-160.056 
		434.027,-161.276 431.854,-160.054 431.854,-162.648 429.854,-162.648 429.854,-160.01 427.604,-161.276 426.918,-160.056 
		429.388,-158.666 426.918,-157.276 427.604,-156.056 429.854,-157.322 429.854,-154.648 	"/>
	<polygon points="437.017,-150.294 434.844,-149.071 434.844,-151.666 432.844,-151.666 432.844,-149.027 430.593,-150.294 
		429.907,-149.073 432.377,-147.684 429.907,-146.294 430.593,-145.073 432.844,-146.34 432.844,-143.666 434.844,-143.666 
		434.844,-146.296 437.017,-145.073 437.702,-146.294 435.232,-147.684 437.702,-149.073 	"/>
	<polygon points="446.032,-157.276 443.859,-156.054 443.859,-158.648 441.859,-158.648 441.859,-156.01 439.608,-157.276 
		438.923,-156.056 441.393,-154.666 438.923,-153.276 439.608,-152.056 441.859,-153.322 441.859,-150.648 443.859,-150.648 
		443.859,-153.278 446.032,-152.056 446.718,-153.276 444.248,-154.666 446.718,-156.056 	"/>
</g>
<rect x="-164.029" y="-739.501" fill="none" width="472.974" height="180.918"/>
<text transform="matrix(1 0 0 1 15.6079 -668.1021)"><tspan x="0" y="0" font-family="'HelveticaNeueLTStd-Th'" font-size="100" letter-spacing="2">60</tspan><tspan x="-99.268" y="60" font-family="'HelveticaNeueLTStd-Lt'" font-size="48" letter-spacing="1">Weather Icons</tspan><tspan x="-3.726" y="104" font-family="'HelveticaNeueLTStd-Lt'" font-size="24">IOS 7 Style</tspan></text>
</svg>
