<?xml version="1.0" encoding="utf-8"?>
<!-- Generator: Adobe Illustrator 16.0.0, SVG Export Plug-In . SVG Version: 6.00 Build 0)  -->
<!DOCTYPE svg PUBLIC "-//W3C//DTD SVG 1.1//EN" "http://www.w3.org/Graphics/SVG/1.1/DTD/svg11.dtd">
<svg version="1.1" id="Layer_1" xmlns="http://www.w3.org/2000/svg" xmlns:xlink="http://www.w3.org/1999/xlink" x="0px" y="0px"
	 width="50px" height="39.016px" viewBox="0 0 50 39.016" enable-background="new 0 0 50 39.016" xml:space="preserve">
<path d="M-74.41,92.911l-1.803,15.077l-0.268,2.237h2.254h6.896l-14.693,18.759l1.789-14.52l0.277-2.245h-2.262h-6.957
	L-74.41,92.911 M-71.556,85.887l-21.667,28.333h11.004l-2.671,21.667l21.667-27.661h-11.004L-71.556,85.887L-71.556,85.887z"/>
<path d="M-487.445-369.35c6.79,0,12.749,4.814,14.171,11.448l0.318,1.483l1.514,0.094c4.203,0.262,7.496,3.763,7.496,7.971
	c0,4.396-3.565,7.977-7.957,8c-0.046-0.003-0.091-0.006-0.137-0.007l-2.043-0.036v0.043h-28.337l-0.578-0.003
	c-5.485-0.027-9.948-4.513-9.948-9.998c0-5.514,4.485-10,9.999-10c0.175,0,0.347,0.014,0.519,0.025l0.149,0.011l1.316,0.087
	l0.598-1.176C-497.872-366.307-492.922-369.35-487.445-369.35 M-487.445-371.35c-6.423,0-11.977,3.678-14.702,9.035
	c-0.266-0.018-0.53-0.04-0.8-0.04c-6.627,0-11.999,5.372-11.999,12c0,6.607,5.34,11.965,11.938,11.998v0.003h30.925v-0.007
	c0.046,0.001,0.091,0.007,0.137,0.007c5.521,0,10-4.477,10-10c0-5.311-4.145-9.642-9.372-9.967
	C-472.914-365.766-479.525-371.35-487.445-371.35L-487.445-371.35z"/>
<g>
	<path d="M-364.494-350.938c-1.444-6.742-7.433-11.8-14.605-11.8c-2.185,0-4.258,0.47-6.127,1.313
		c-1.666-3.202-5.006-5.394-8.865-5.394c-5.522,0-10,4.477-10,9.999c0,2.46,0.898,4.702,2.373,6.442
		c-1.428,1.84-2.287,4.144-2.287,6.653c0,5.983,4.836,10.836,10.813,10.865v0.003h28.007v-0.006
		c0.042,0.001,0.082,0.006,0.124,0.006c5.001,0,9.057-4.054,9.057-9.057C-356.006-346.722-359.76-350.644-364.494-350.938z
		 M-394.092-364.818c3.092,0,5.76,1.773,7.092,4.345c-2.299,1.44-4.178,3.488-5.414,5.918c-0.241-0.016-0.48-0.036-0.725-0.036
		c-2.766,0-5.281,1.041-7.2,2.743c-1.092-1.366-1.753-3.09-1.753-4.971C-402.092-361.229-398.503-364.818-394.092-364.818z
		 M-365.022-334.855c-0.038-0.003-0.077-0.004-0.117-0.005l-2.047-0.042v0.047h-25.403l-0.594-0.003
		c-4.864-0.023-8.822-4.001-8.822-8.865c0-4.89,3.978-8.868,8.867-8.868c0.15,0,0.299,0.012,0.447,0.021l0.148,0.011l1.314,0.085
		l0.598-1.174c2.224-4.373,6.643-7.09,11.531-7.09c6.062,0,11.381,4.298,12.65,10.219l0.317,1.482l1.514,0.095
		c3.708,0.231,6.612,3.319,6.612,7.03C-358.006-338.034-361.149-334.878-365.022-334.855z"/>
	<rect x="-395.086" y="-376.849" width="2" height="7.973"/>
	<rect x="-414.059" y="-357.862" width="7.973" height="2"/>
	<rect x="-409.333" y="-369.081" transform="matrix(0.7071 0.7071 -0.7071 0.7071 -378.9956 178.8142)" width="7.974" height="2"/>
	<rect x="-383.824" y="-372.063" transform="matrix(0.7071 0.7071 -0.7071 0.7071 -372.3965 162.8903)" width="2" height="7.972"/>
</g>
<path d="M-268.751-354.966c-1.444-6.742-7.433-11.8-14.605-11.8c-1.799,0-3.521,0.32-5.118,0.904
	c-0.949-5.108-5.404-8.98-10.788-8.98c-0.413,0-0.819,0.027-1.222,0.071c0.744,1.112,1.179,2.448,1.179,3.886c0,3.865-3.134,7-7,7
	c-1.438,0-2.773-0.435-3.886-1.179c-0.044,0.401-0.071,0.809-0.071,1.222c0,3.712,1.845,6.987,4.661,8.979
	c-1.653,1.907-2.661,4.389-2.661,7.111c0,5.983,4.836,10.836,10.813,10.865v0.003h28.007v-0.006
	c0.042,0.001,0.082,0.006,0.124,0.006c5.001,0,9.057-4.054,9.057-9.057C-260.263-350.749-264.017-354.671-268.751-354.966z
	 M-308.086-362.062c0.582,0.117,1.178,0.177,1.78,0.177c4.963,0,9-4.037,9-9c0-0.603-0.06-1.198-0.177-1.78
	c3.733,0.753,6.629,3.824,7.134,7.64c-2.713,1.444-4.928,3.699-6.322,6.442c-0.241-0.016-0.48-0.036-0.725-0.036
	c-2.537,0-4.865,0.876-6.715,2.334C-306.122-357.579-307.597-359.639-308.086-362.062z M-269.279-338.883
	c-0.038-0.003-0.077-0.004-0.117-0.005l-2.047-0.042v0.047h-25.403l-0.594-0.003c-4.864-0.023-8.822-4.001-8.822-8.865
	c0-4.89,3.978-8.868,8.867-8.868c0.15,0,0.299,0.012,0.447,0.021l0.148,0.011l1.314,0.085l0.598-1.174
	c2.224-4.373,6.643-7.09,11.531-7.09c6.062,0,11.381,4.298,12.65,10.219l0.317,1.482l1.514,0.095
	c3.708,0.231,6.612,3.319,6.612,7.03C-262.263-342.062-265.406-338.905-269.279-338.883z"/>
<g>
	<rect x="-184.105" y="-346.343" width="2" height="7"/>
	<rect x="-176.105" y="-350.343" width="2" height="7"/>
	<rect x="-192.105" y="-350.343" width="2" height="7"/>
	<rect x="-184.105" y="-336.343" width="2" height="7"/>
	<rect x="-176.105" y="-340.343" width="2" height="7"/>
	<rect x="-192.105" y="-340.343" width="2" height="7"/>
	<path d="M-165.478-363.331c-1.596-7.445-8.207-13.029-16.127-13.029c-6.423,0-11.977,3.678-14.702,9.035
		c-0.266-0.018-0.53-0.04-0.8-0.04c-6.627,0-11.999,5.372-11.999,12c0,6.607,5.34,11.965,11.938,11.998v0.003h2.062v-2h-1.604
		l-0.447-0.003c-5.485-0.027-9.948-4.513-9.948-9.998c0-5.514,4.485-10,9.999-10c0.175,0,0.347,0.014,0.52,0.025l0.148,0.01
		l1.316,0.088l0.598-1.176c2.492-4.899,7.443-7.942,12.92-7.942c6.79,0,12.75,4.814,14.172,11.448l0.317,1.482l1.514,0.095
		c4.203,0.262,7.496,3.763,7.496,7.971c0,4.397-3.565,7.977-7.957,8c-0.05-0.003-0.093-0.005-0.137-0.007l-2.043,0.007h-2.863v2
		h4.863v-0.007c0.046,0.001,0.091,0.007,0.137,0.007c5.521,0,10-4.477,10-10C-156.105-358.675-160.25-363.006-165.478-363.331z"/>
</g>
<g>
	<path d="M-367.904-273.974c-1.596-7.445-8.207-13.029-16.127-13.029c-6.423,0-11.977,3.678-14.702,9.035
		c-0.266-0.018-0.53-0.04-0.8-0.04c-6.627,0-11.999,5.372-11.999,12c0,6.607,5.34,11.965,11.938,11.998v0.003h2.062v-2h-1.604
		l-0.447-0.003c-5.485-0.027-9.948-4.513-9.948-9.998c0-5.514,4.485-10,9.999-10c0.175,0,0.347,0.014,0.52,0.025l0.148,0.01
		l1.316,0.088l0.598-1.176c2.492-4.899,7.443-7.942,12.92-7.942c6.79,0,12.75,4.814,14.172,11.448l0.317,1.482l1.514,0.095
		c4.203,0.262,7.496,3.763,7.496,7.971c0,4.397-3.565,7.977-7.957,8c-0.05-0.003-0.093-0.005-0.137-0.007l-2.043,0.007h-2.863v2
		h4.863v-0.007c0.046,0.001,0.091,0.007,0.137,0.007c5.521,0,10-4.477,10-10C-358.532-269.317-362.677-273.648-367.904-273.974z"/>
	<polygon points="-386.532,-246.979 -386.532,-245.038 -386.532,-238.979 -384.532,-238.979 -384.532,-245.038 -384.532,-246.979 
		-384.532,-258.979 -386.532,-258.979 	"/>
	<polygon points="-378.532,-250.979 -378.532,-249.226 -378.532,-242.979 -376.532,-242.979 -376.532,-249.226 -376.532,-250.979 
		-376.532,-262.979 -378.532,-262.979 	"/>
	<polygon points="-394.532,-250.979 -394.532,-248.913 -394.532,-242.979 -392.532,-242.979 -392.532,-248.913 -392.532,-250.979 
		-392.532,-262.979 -394.532,-262.979 	"/>
</g>
<g>
	<polygon points="-72.255,-250.067 -79.138,-259.897 -80.775,-258.75 -73.893,-248.92 -72.78,-247.331 -69.305,-242.367 
		-67.666,-243.514 -71.142,-248.479 	"/>
	<polygon points="-64.253,-250.069 -71.138,-259.897 -72.775,-258.749 -65.89,-248.921 -64.885,-247.485 -61.301,-242.37 
		-59.662,-243.517 -63.246,-248.633 	"/>
	<polygon points="-80.255,-250.067 -87.138,-259.897 -88.775,-258.749 -81.893,-248.92 -80.708,-247.228 -77.304,-242.366 
		-75.666,-243.514 -79.069,-248.375 	"/>
	<path d="M-61.147-273.707c-1.596-7.445-8.207-13.029-16.127-13.029c-6.423,0-11.977,3.678-14.702,9.035
		c-0.266-0.018-0.53-0.04-0.8-0.04c-6.627,0-11.999,5.372-11.999,12c0,6.607,5.34,11.965,11.938,11.998v0.003h2.062v-2h-1.604
		l-0.447-0.003c-5.485-0.027-9.948-4.513-9.948-9.998c0-5.514,4.485-10,9.999-10c0.175,0,0.347,0.014,0.52,0.025l0.148,0.01
		l1.316,0.088l0.598-1.176c2.492-4.899,7.443-7.942,12.92-7.942c6.79,0,12.75,4.814,14.172,11.448l0.317,1.482l1.514,0.095
		c4.203,0.262,7.496,3.763,7.496,7.971c0,4.397-3.565,7.977-7.957,8c-0.05-0.003-0.093-0.005-0.137-0.007l-1.043,0.007h0.137v2
		h0.863v-0.007c0.046,0.001,0.091,0.007,0.137,0.007c5.521,0,10-4.477,10-10C-51.775-269.051-55.92-273.382-61.147-273.707z"/>
</g>
<g>
	<rect x="-89.449" y="-382.789" width="2" height="7.973"/>
	<rect x="-108.449" y="-363.875" width="7.973" height="2"/>
	<rect x="-103.776" y="-375.141" transform="matrix(0.7071 0.7071 -0.7071 0.7071 -293.7856 -39.022)" width="7.974" height="2"/>
	<rect x="-78.267" y="-378.123" transform="matrix(0.7071 0.7071 -0.7071 0.7071 -287.1865 -54.946)" width="2" height="7.972"/>
	<rect x="-75.449" y="-341.916" width="2" height="7"/>
	<rect x="-67.449" y="-345.916" width="2" height="7"/>
	<rect x="-83.449" y="-345.916" width="2" height="7"/>
	<rect x="-75.449" y="-331.916" width="2" height="7"/>
	<rect x="-67.449" y="-335.916" width="2" height="7"/>
	<rect x="-83.449" y="-335.916" width="2" height="7"/>
	<path d="M-58.938-356.999c-1.444-6.742-7.433-11.8-14.605-11.8c-2.185,0-4.258,0.47-6.126,1.313
		c-1.667-3.202-5.007-5.394-8.866-5.394c-5.522,0-10,4.477-10,9.999c0,2.46,0.899,4.702,2.373,6.442
		c-1.429,1.84-2.287,4.144-2.287,6.653c0,5.983,4.836,10.836,10.813,10.865v0.003h1.188v-2h-0.721l-0.457-0.003
		c-4.864-0.023-8.822-4.001-8.822-8.865c0-4.89,3.978-8.868,8.867-8.868c0.15,0,0.299,0.012,0.447,0.022l0.148,0.01l1.314,0.085
		l0.597-1.175c2.225-4.372,6.644-7.089,11.532-7.089c6.062,0,11.382,4.298,12.649,10.219l0.318,1.483l1.514,0.094
		c3.708,0.23,6.612,3.319,6.612,7.03c0,3.878-3.144,7.035-7.017,7.057c-0.042-0.003-0.079-0.005-0.117-0.005l-2.047,0.005h-0.819v2
		h2.819v-0.006c0.042,0.001,0.082,0.006,0.124,0.006c5.001,0,9.057-4.054,9.057-9.057
		C-50.449-352.782-54.203-356.704-58.938-356.999z M-86.857-360.616c-0.241-0.016-0.48-0.036-0.725-0.036
		c-2.766,0-5.282,1.041-7.2,2.743c-1.092-1.366-1.753-3.09-1.753-4.971c0-4.41,3.589-7.999,8-7.999c3.091,0,5.76,1.773,7.091,4.345
		C-83.742-365.094-85.622-363.046-86.857-360.616z"/>
</g>
<g>
	<rect x="24.968" y="-343.363" width="2" height="7"/>
	<rect x="32.968" y="-347.363" width="2" height="7"/>
	<rect x="16.968" y="-347.363" width="2" height="7"/>
	<rect x="24.968" y="-333.363" width="2" height="7"/>
	<rect x="32.968" y="-337.363" width="2" height="7"/>
	<rect x="16.968" y="-337.363" width="2" height="7"/>
	<path d="M41.479-358.446c-1.444-6.742-7.433-11.8-14.605-11.8c-1.799,0-3.522,0.32-5.118,0.904
		c-0.949-5.108-5.404-8.98-10.788-8.98c-0.413,0-0.819,0.027-1.222,0.071c0.744,1.112,1.179,2.448,1.179,3.886c0,3.865-3.134,7-7,7
		c-1.438,0-2.773-0.435-3.886-1.179c-0.044,0.401-0.071,0.809-0.071,1.222c0,3.712,1.845,6.987,4.661,8.979
		c-1.653,1.907-2.661,4.389-2.661,7.111c0,5.983,4.836,10.836,10.813,10.865v0.003h1.188v-2h-0.721l-0.457-0.003
		c-4.864-0.023-8.822-4.001-8.822-8.865c0-4.89,3.978-8.868,8.867-8.868c0.15,0,0.299,0.012,0.447,0.022l0.148,0.01l1.314,0.085
		l0.597-1.175c2.225-4.372,6.644-7.089,11.532-7.089c6.062,0,11.382,4.298,12.649,10.219l0.318,1.483l1.514,0.094
		c3.708,0.23,6.612,3.319,6.612,7.03c0,3.878-3.144,7.035-7.017,7.057c-0.042-0.003-0.079-0.005-0.117-0.005l-2.047,0.005h-0.819v2
		h2.819v-0.006c0.042,0.001,0.082,0.006,0.124,0.006c5.001,0,9.057-4.054,9.057-9.057C49.968-354.229,46.214-358.151,41.479-358.446
		z M13.56-362.063c-0.241-0.016-0.48-0.036-0.725-0.036c-2.537,0-4.865,0.876-6.715,2.334c-2.012-1.294-3.487-3.354-3.976-5.776
		c0.582,0.117,1.178,0.177,1.78,0.177c4.963,0,9-4.037,9-9c0-0.603-0.06-1.198-0.177-1.78c3.733,0.753,6.629,3.824,7.133,7.64
		C17.17-367.062,14.955-364.807,13.56-362.063z"/>
</g>
<g>
	<polygon points="-282.263,-242.54 -282.263,-240.6 -282.263,-234.54 -280.263,-234.54 -280.263,-240.6 -280.263,-242.54 
		-280.263,-254.54 -282.263,-254.54 	"/>
	<polygon points="-274.263,-246.54 -274.263,-244.787 -274.263,-238.54 -272.263,-238.54 -272.263,-244.787 -272.263,-246.54 
		-272.263,-258.54 -274.263,-258.54 	"/>
	<polygon points="-290.263,-246.54 -290.263,-244.475 -290.263,-238.54 -288.263,-238.54 -288.263,-244.475 -288.263,-246.54 
		-288.263,-258.54 -290.263,-258.54 	"/>
	<rect x="-296.263" y="-293.442" width="2" height="7.973"/>
	<rect x="-315.263" y="-274.528" width="7.973" height="2"/>
	<rect x="-310.59" y="-285.795" transform="matrix(0.7071 0.7071 -0.7071 0.7071 -291.1822 133.3862)" width="7.974" height="2"/>
	<rect x="-285.081" y="-288.777" transform="matrix(0.7071 0.7071 -0.7071 0.7071 -284.5831 117.4623)" width="2" height="7.972"/>
	<path d="M-265.751-267.652c-1.444-6.742-7.433-11.8-14.605-11.8c-2.185,0-4.258,0.47-6.127,1.313
		c-1.666-3.202-5.006-5.394-8.865-5.394c-5.522,0-10,4.477-10,9.999c0,2.46,0.898,4.702,2.373,6.442
		c-1.428,1.84-2.287,4.144-2.287,6.653c0,5.983,4.836,10.836,10.813,10.865v0.003h1.188v-2h-0.721l-0.457-0.003
		c-4.864-0.023-8.822-4.001-8.822-8.865c0-4.89,3.978-8.868,8.867-8.868c0.15,0,0.299,0.012,0.447,0.022l0.148,0.01l1.314,0.085
		l0.597-1.175c2.225-4.372,6.644-7.089,11.532-7.089c6.062,0,11.382,4.298,12.649,10.219l0.318,1.483l1.514,0.094
		c3.708,0.23,6.612,3.319,6.612,7.03c0,3.878-3.144,7.035-7.017,7.057c-0.042-0.003-0.079-0.005-0.117-0.005l-2.047,0.005h-0.819v2
		h2.819v-0.006c0.042,0.001,0.082,0.006,0.124,0.006c5.001,0,9.057-4.054,9.057-9.057
		C-257.263-263.436-261.017-267.357-265.751-267.652z M-293.671-271.27c-0.241-0.016-0.48-0.036-0.725-0.036
		c-2.766,0-5.281,1.042-7.2,2.743c-1.092-1.367-1.753-3.09-1.753-4.971c0-4.41,3.589-7.999,8-7.999c3.092,0,5.76,1.773,7.092,4.345
		C-290.556-275.748-292.435-273.699-293.671-271.27z"/>
</g>
<g>
	<polygon points="-181.865,-245.057 -181.865,-243.116 -181.865,-237.057 -179.865,-237.057 -179.865,-243.116 -179.865,-245.057 
		-179.865,-257.057 -181.865,-257.057 	"/>
	<polygon points="-173.865,-249.057 -173.865,-247.304 -173.865,-241.057 -171.865,-241.057 -171.865,-247.304 -171.865,-249.057 
		-171.865,-261.057 -173.865,-261.057 	"/>
	<polygon points="-189.865,-249.057 -189.865,-246.991 -189.865,-241.057 -187.865,-241.057 -187.865,-246.991 -187.865,-249.057 
		-187.865,-261.057 -189.865,-261.057 	"/>
	<path d="M-165.354-270.169c-1.444-6.742-7.433-11.8-14.605-11.8c-1.799,0-3.521,0.32-5.118,0.904
		c-0.949-5.108-5.404-8.98-10.788-8.98c-0.413,0-0.819,0.027-1.222,0.071c0.744,1.112,1.179,2.448,1.179,3.886c0,3.865-3.134,7-7,7
		c-1.438,0-2.773-0.435-3.886-1.179c-0.044,0.401-0.071,0.809-0.071,1.222c0,3.712,1.845,6.987,4.661,8.979
		c-1.653,1.907-2.661,4.389-2.661,7.111c0,5.983,4.836,10.836,10.813,10.865v0.003h1.188v-2h-0.721l-0.457-0.003
		c-4.864-0.023-8.822-4.001-8.822-8.865c0-4.89,3.978-8.868,8.867-8.868c0.15,0,0.299,0.012,0.447,0.022l0.148,0.01l1.314,0.085
		l0.597-1.175c2.225-4.372,6.644-7.089,11.532-7.089c6.062,0,11.382,4.298,12.649,10.219l0.318,1.483l1.514,0.094
		c3.708,0.23,6.612,3.319,6.612,7.03c0,3.878-3.144,7.035-7.017,7.057c-0.042-0.003-0.079-0.005-0.117-0.005l-2.047,0.005h-0.819v2
		h2.819v-0.006c0.042,0.001,0.082,0.006,0.124,0.006c5.001,0,9.057-4.054,9.057-9.057
		C-156.865-265.952-160.619-269.874-165.354-270.169z M-193.273-273.786c-0.241-0.016-0.48-0.036-0.725-0.036
		c-2.537,0-4.865,0.876-6.715,2.334c-2.012-1.294-3.486-3.354-3.976-5.776c0.582,0.117,1.178,0.177,1.78,0.177c4.963,0,9-4.037,9-9
		c0-0.603-0.06-1.198-0.177-1.78c3.733,0.753,6.629,3.824,7.134,7.641C-189.664-278.784-191.879-276.528-193.273-273.786z"/>
</g>
<g>
	<polygon points="35.17,-244.112 28.287,-253.942 26.649,-252.795 33.532,-242.965 34.645,-241.376 38.12,-236.412 39.759,-237.559 
		36.283,-242.523 	"/>
	<polygon points="43.172,-244.114 36.287,-253.942 34.649,-252.794 41.535,-242.966 42.54,-241.53 46.124,-236.415 47.763,-237.562 
		44.179,-242.678 	"/>
	<polygon points="27.17,-244.112 20.287,-253.942 18.649,-252.794 25.532,-242.965 26.717,-241.272 30.121,-236.411 
		31.759,-237.559 28.355,-242.42 	"/>
	<rect x="14.649" y="-291.661" width="2" height="7.973"/>
	<rect x="-4.351" y="-272.747" width="7.973" height="2"/>
	<rect x="0.322" y="-284.014" transform="matrix(0.7071 0.7071 -0.7071 0.7071 -198.8586 -85.9401)" width="7.974" height="2"/>
	<rect x="25.831" y="-286.996" transform="matrix(0.7071 0.7071 -0.7071 0.7071 -192.2595 -101.8641)" width="2" height="7.972"/>
	<path d="M45.161-265.871c-1.444-6.742-7.433-11.8-14.605-11.8c-2.185,0-4.258,0.47-6.126,1.313
		c-1.667-3.202-5.007-5.394-8.866-5.394c-5.522,0-10,4.477-10,9.999c0,2.46,0.899,4.702,2.373,6.442
		c-1.429,1.84-2.287,4.144-2.287,6.653c0,5.983,4.836,10.836,10.813,10.865v0.003h1.188v-2h-0.721l-0.457-0.003
		c-4.864-0.023-8.822-4.001-8.822-8.865c0-4.89,3.978-8.868,8.867-8.868c0.15,0,0.299,0.012,0.447,0.022l0.148,0.01l1.314,0.085
		l0.597-1.175c2.225-4.372,6.644-7.089,11.532-7.089c6.062,0,11.382,4.298,12.649,10.219l0.318,1.483l1.514,0.094
		c3.708,0.23,6.612,3.319,6.612,7.03c0,3.878-3.144,7.035-7.017,7.057c-0.042-0.003-0.079-0.005-0.117-0.005l-0.047,0.005h-0.819v2
		h0.819v-0.006c0.042,0.001,0.082,0.006,0.124,0.006c5.001,0,9.057-4.054,9.057-9.057C53.649-261.654,49.896-265.576,45.161-265.871
		z M17.241-269.488c-0.241-0.016-0.48-0.036-0.725-0.036c-2.766,0-5.282,1.042-7.2,2.743c-1.092-1.367-1.753-3.09-1.753-4.971
		c0-4.41,3.589-7.999,8-7.999c3.091,0,5.76,1.773,7.091,4.345C20.356-273.967,18.477-271.918,17.241-269.488z"/>
</g>
<g>
	<polygon points="-688.261,-147.627 -695.144,-157.457 -696.781,-156.31 -689.898,-146.479 -688.786,-144.891 -685.311,-139.927 
		-683.672,-141.073 -687.147,-146.038 	"/>
	<polygon points="-680.259,-147.629 -687.144,-157.457 -688.781,-156.309 -681.896,-146.48 -680.891,-145.045 -677.307,-139.93 
		-675.668,-141.076 -679.252,-146.192 	"/>
	<polygon points="-696.261,-147.627 -703.144,-157.457 -704.781,-156.309 -697.898,-146.479 -696.714,-144.787 -693.31,-139.926 
		-691.672,-141.073 -695.075,-145.935 	"/>
	<path d="M-678.27-169.386c-1.444-6.742-7.433-11.8-14.605-11.8c-1.799,0-3.522,0.32-5.118,0.904
		c-0.949-5.108-5.404-8.98-10.788-8.98c-0.413,0-0.819,0.027-1.222,0.071c0.744,1.112,1.179,2.448,1.179,3.886c0,3.865-3.134,7-7,7
		c-1.438,0-2.773-0.435-3.886-1.179c-0.044,0.401-0.071,0.809-0.071,1.222c0,3.712,1.845,6.987,4.661,8.979
		c-1.653,1.907-2.661,4.389-2.661,7.111c0,5.983,4.836,10.836,10.813,10.865v0.003h1.188v-2h-0.721l-0.457-0.003
		c-4.864-0.023-8.822-4.001-8.822-8.865c0-4.89,3.978-8.868,8.867-8.868c0.15,0,0.299,0.012,0.447,0.022l0.148,0.01l1.314,0.085
		l0.597-1.175c2.225-4.372,6.644-7.089,11.532-7.089c6.062,0,11.382,4.298,12.649,10.219l0.318,1.483l1.514,0.094
		c3.708,0.23,6.612,3.319,6.612,7.03c0,3.878-3.144,7.035-7.017,7.057c-0.042-0.003-0.079-0.005-0.117-0.005l-0.047,0.005h-0.819v2
		h0.819v-0.006c0.042,0.001,0.082,0.006,0.124,0.006c5.001,0,9.057-4.054,9.057-9.057
		C-669.781-165.169-673.535-169.091-678.27-169.386z M-706.189-173.003c-0.241-0.016-0.48-0.036-0.725-0.036
		c-2.537,0-4.865,0.876-6.715,2.334c-2.012-1.294-3.487-3.354-3.976-5.776c0.582,0.117,1.178,0.177,1.78,0.177c4.963,0,9-4.037,9-9
		c0-0.603-0.06-1.198-0.177-1.78c3.733,0.753,6.629,3.824,7.133,7.641C-702.579-178.001-704.794-175.745-706.189-173.003z"/>
</g>
<g>
	<rect x="-695.781" y="-251.474" width="2" height="4"/>
	<rect x="-687.781" y="-255.495" width="2" height="4.021"/>
	<rect x="-703.781" y="-255.495" width="2" height="4.021"/>
	<path d="M-677.153-271.462c-1.596-7.445-8.207-13.029-16.127-13.029c-6.423,0-11.977,3.678-14.702,9.035
		c-0.266-0.018-0.53-0.04-0.8-0.04c-6.627,0-11.999,5.372-11.999,12c0,6.607,5.34,11.965,11.938,11.998v0.003h2.062v-2h-1.604
		l-0.447-0.003c-5.485-0.027-9.948-4.513-9.948-9.998c0-5.514,4.485-10,9.999-10c0.175,0,0.347,0.014,0.52,0.025l0.148,0.01
		l1.316,0.088l0.598-1.176c2.492-4.899,7.443-7.942,12.92-7.942c6.79,0,12.75,4.814,14.172,11.448l0.317,1.482l1.514,0.095
		c4.203,0.262,7.496,3.763,7.496,7.971c0,4.397-3.565,7.977-7.957,8c-0.05-0.003-0.093-0.005-0.137-0.007l-2.043,0.007h-2.863v2
		h4.863v-0.007c0.046,0.001,0.091,0.007,0.137,0.007c5.521,0,10-4.477,10-10C-667.781-266.806-671.926-271.137-677.153-271.462z"/>
	<circle cx="-686.781" cy="-246.453" r="1.5"/>
	<circle cx="-694.781" cy="-242.484" r="1.5"/>
	<circle cx="-702.781" cy="-246.495" r="1.5"/>
</g>
<g>
	<rect x="-602.86" y="-290.928" width="2" height="7.973"/>
	<rect x="-621.86" y="-272.014" width="7.973" height="2"/>
	<rect x="-617.187" y="-283.28" transform="matrix(0.7071 0.7071 -0.7071 0.7071 -379.2045 350.92)" width="7.974" height="2"/>
	<rect x="-591.679" y="-286.262" transform="matrix(0.7071 0.7071 -0.7071 0.7071 -372.6053 334.9961)" width="2" height="7.972"/>
	<path d="M-572.349-265.138c-1.444-6.742-7.433-11.8-14.605-11.8c-2.185,0-4.258,0.47-6.126,1.313
		c-1.667-3.202-5.007-5.394-8.866-5.394c-5.522,0-10,4.477-10,9.999c0,2.46,0.899,4.702,2.373,6.442
		c-1.429,1.84-2.287,4.144-2.287,6.653c0,5.983,4.836,10.836,10.813,10.865v0.003h1.188v-2h-0.721l-0.457-0.003
		c-4.864-0.023-8.822-4.001-8.822-8.865c0-4.89,3.978-8.868,8.867-8.868c0.15,0,0.299,0.012,0.447,0.022l0.148,0.01l1.314,0.085
		l0.597-1.175c2.225-4.372,6.644-7.089,11.532-7.089c6.062,0,11.382,4.298,12.649,10.219l0.318,1.483l1.514,0.094
		c3.708,0.23,6.612,3.319,6.612,7.03c0,3.878-3.144,7.035-7.017,7.057c-0.042-0.003-0.079-0.005-0.117-0.005l-2.047,0.005h-0.819v2
		h2.819v-0.006c0.042,0.001,0.082,0.006,0.124,0.006c5.001,0,9.057-4.054,9.057-9.057
		C-563.86-260.921-567.614-264.843-572.349-265.138z M-600.269-268.755c-0.241-0.016-0.48-0.036-0.725-0.036
		c-2.766,0-5.282,1.042-7.2,2.743c-1.092-1.367-1.753-3.09-1.753-4.971c0-4.41,3.589-7.999,8-7.999c3.091,0,5.76,1.773,7.091,4.345
		C-597.153-273.233-599.033-271.185-600.269-268.755z"/>
	<rect x="-588.86" y="-247.039" width="2" height="4"/>
	<rect x="-580.86" y="-251.061" width="2" height="4.021"/>
	<rect x="-596.86" y="-251.061" width="2" height="4.021"/>
	<circle cx="-579.86" cy="-242.019" r="1.5"/>
	<circle cx="-587.86" cy="-238.05" r="1.5"/>
	<circle cx="-595.86" cy="-242.061" r="1.5"/>
</g>
<g>
	<path d="M-471.423-266.095c-1.444-6.742-7.433-11.8-14.605-11.8c-1.799,0-3.522,0.32-5.118,0.904
		c-0.949-5.108-5.404-8.98-10.788-8.98c-0.413,0-0.819,0.027-1.222,0.071c0.744,1.112,1.179,2.448,1.179,3.886c0,3.865-3.134,7-7,7
		c-1.438,0-2.773-0.435-3.886-1.179c-0.044,0.401-0.071,0.809-0.071,1.222c0,3.712,1.845,6.987,4.661,8.979
		c-1.653,1.907-2.661,4.389-2.661,7.111c0,5.983,4.836,10.836,10.813,10.865v0.003h1.188v-2h-0.721l-0.457-0.003
		c-4.864-0.023-8.822-4.001-8.822-8.865c0-4.89,3.978-8.868,8.867-8.868c0.15,0,0.299,0.012,0.447,0.022l0.148,0.01l1.314,0.085
		l0.597-1.175c2.225-4.372,6.644-7.089,11.532-7.089c6.062,0,11.382,4.298,12.649,10.219l0.318,1.483l1.514,0.094
		c3.708,0.23,6.612,3.319,6.612,7.03c0,3.878-3.144,7.035-7.017,7.057c-0.042-0.003-0.079-0.005-0.117-0.005l-2.047,0.005h-0.819v2
		h2.819v-0.006c0.042,0.001,0.082,0.006,0.124,0.006c5.001,0,9.057-4.054,9.057-9.057
		C-462.935-261.878-466.688-265.8-471.423-266.095z M-499.343-269.712c-0.241-0.016-0.48-0.036-0.725-0.036
		c-2.537,0-4.865,0.876-6.715,2.334c-2.012-1.294-3.487-3.354-3.976-5.776c0.582,0.117,1.178,0.177,1.78,0.177c4.963,0,9-4.037,9-9
		c0-0.603-0.06-1.198-0.177-1.78c3.733,0.753,6.629,3.824,7.133,7.641C-495.732-274.71-497.947-272.454-499.343-269.712z"/>
	<rect x="-487.935" y="-247.996" width="2" height="4"/>
	<rect x="-479.935" y="-252.018" width="2" height="4.021"/>
	<rect x="-495.935" y="-252.018" width="2" height="4.021"/>
	<circle cx="-478.935" cy="-242.976" r="1.5"/>
	<circle cx="-486.935" cy="-239.007" r="1.5"/>
	<circle cx="-494.935" cy="-243.018" r="1.5"/>
</g>
<g>
	<path d="M-574.732-173.064c-1.596-7.445-8.207-13.029-16.127-13.029c-6.423,0-11.977,3.678-14.702,9.035
		c-0.266-0.018-0.53-0.04-0.8-0.04c-6.627,0-11.999,5.372-11.999,12c0,6.607,5.34,11.965,11.938,11.998v0.003h6.062v-2h-5.604
		l-0.447-0.003c-5.485-0.027-9.948-4.513-9.948-9.998c0-5.514,4.485-10,9.999-10c0.175,0,0.347,0.014,0.52,0.025l0.148,0.01
		l1.316,0.088l0.598-1.176c2.492-4.899,7.443-7.942,12.92-7.942c6.79,0,12.75,4.814,14.172,11.448l0.317,1.482l1.514,0.095
		c4.203,0.262,7.496,3.763,7.496,7.971c0,4.397-3.565,7.977-7.957,8c-0.05-0.003-0.093-0.005-0.137-0.007l-5.043,0.007h0.137v2
		h4.863v-0.007c0.046,0.001,0.091,0.007,0.137,0.007c5.521,0,10-4.477,10-10C-565.36-168.408-569.505-172.739-574.732-173.064z"/>
	<polygon points="-590.519,-153.094 -588.749,-153.094 -588.318,-153.094 -586.309,-153.094 -592.723,-162.255 -594.36,-161.107 
		-590.149,-155.094 -591.92,-155.094 -594.36,-155.094 -593.089,-153.277 -591.977,-151.688 -585.999,-143.094 -584.36,-144.24 
		-590.338,-152.836 	"/>
</g>
<g>
	<rect x="-498.935" y="-192.194" width="2" height="7.973"/>
	<rect x="-517.935" y="-173.28" width="7.973" height="2"/>
	<rect x="-513.262" y="-184.547" transform="matrix(0.7071 0.7071 -0.7071 0.7071 -278.9503 306.3517)" width="7.974" height="2"/>
	<rect x="-487.753" y="-187.529" transform="matrix(0.7071 0.7071 -0.7071 0.7071 -272.3511 290.4278)" width="2" height="7.972"/>
	<path d="M-468.423-166.404c-1.444-6.742-7.433-11.8-14.605-11.8c-2.185,0-4.258,0.47-6.127,1.313
		c-1.666-3.202-5.006-5.394-8.865-5.394c-5.522,0-10,4.477-10,9.999c0,2.46,0.898,4.702,2.373,6.442
		c-1.428,1.84-2.287,4.144-2.287,6.653c0,5.983,4.836,10.836,10.813,10.865v0.003h4.188v-2h-3.721l-0.457-0.003
		c-4.864-0.023-8.822-4.001-8.822-8.865c0-4.89,3.978-8.868,8.867-8.868c0.15,0,0.299,0.012,0.447,0.022l0.148,0.01l1.314,0.085
		l0.597-1.175c2.225-4.372,6.644-7.089,11.532-7.089c6.062,0,11.382,4.298,12.649,10.219l0.318,1.483l1.514,0.094
		c3.708,0.23,6.612,3.319,6.612,7.03c0,3.878-3.144,7.035-7.017,7.057c-0.042-0.003-0.079-0.005-0.117-0.005l-2.047,0.005h-3.819v2
		h5.819v-0.006c0.042,0.001,0.082,0.006,0.124,0.006c5.001,0,9.057-4.054,9.057-9.057
		C-459.935-162.188-463.688-166.109-468.423-166.404z M-496.343-170.021c-0.241-0.016-0.48-0.036-0.725-0.036
		c-2.766,0-5.281,1.041-7.2,2.743c-1.092-1.366-1.753-3.09-1.753-4.971c0-4.41,3.589-7.999,8-7.999c3.092,0,5.76,1.773,7.092,4.345
		C-493.228-174.499-495.106-172.451-496.343-170.021z"/>
	<polygon points="-484.093,-148.314 -482.323,-148.314 -481.893,-148.314 -479.883,-148.314 -486.297,-157.476 -487.935,-156.328 
		-483.724,-150.314 -485.494,-150.314 -487.935,-150.314 -486.663,-148.498 -485.551,-146.909 -479.573,-138.314 -477.935,-139.461 
		-483.912,-148.057 	"/>
</g>
<g>
	<path d="M-368.838-168.7c-1.444-6.742-7.433-11.8-14.605-11.8c-1.799,0-3.521,0.32-5.118,0.904
		c-0.949-5.108-5.404-8.98-10.788-8.98c-0.413,0-0.819,0.027-1.222,0.071c0.744,1.112,1.179,2.448,1.179,3.886c0,3.865-3.134,7-7,7
		c-1.438,0-2.773-0.435-3.886-1.179c-0.044,0.401-0.071,0.809-0.071,1.222c0,3.712,1.845,6.987,4.661,8.979
		c-1.653,1.907-2.661,4.389-2.661,7.111c0,5.983,4.836,10.836,10.813,10.865v0.003h4.188v-2h-3.721l-0.457-0.003
		c-4.864-0.023-8.822-4.001-8.822-8.865c0-4.89,3.978-8.868,8.867-8.868c0.15,0,0.299,0.012,0.447,0.022l0.148,0.01l1.314,0.085
		l0.597-1.175c2.225-4.372,6.644-7.089,11.532-7.089c6.062,0,11.382,4.298,12.649,10.219l0.318,1.483l1.514,0.094
		c3.708,0.23,6.612,3.319,6.612,7.03c0,3.878-3.144,7.035-7.017,7.057c-0.042-0.003-0.079-0.005-0.117-0.005l-2.047,0.005h-3.819v2
		h5.819v-0.006c0.042,0.001,0.082,0.006,0.124,0.006c5.001,0,9.057-4.054,9.057-9.057
		C-360.35-164.483-364.104-168.405-368.838-168.7z M-396.758-172.317c-0.241-0.016-0.48-0.036-0.725-0.036
		c-2.537,0-4.865,0.876-6.715,2.334c-2.012-1.294-3.486-3.354-3.976-5.776c0.582,0.117,1.178,0.177,1.78,0.177c4.963,0,9-4.037,9-9
		c0-0.603-0.06-1.198-0.177-1.78c3.733,0.753,6.629,3.824,7.134,7.64C-393.148-177.315-395.363-175.061-396.758-172.317z"/>
	<polygon points="-384.508,-150.61 -382.738,-150.61 -382.308,-150.61 -380.298,-150.61 -386.712,-159.771 -388.35,-158.624 
		-384.139,-152.61 -385.909,-152.61 -388.35,-152.61 -387.078,-150.794 -385.966,-149.205 -379.988,-140.61 -378.35,-141.757 
		-384.327,-150.353 	"/>
</g>
<g>
	<path d="M-267.953-172.564c-1.596-7.445-8.207-13.029-16.127-13.029c-6.423,0-11.977,3.678-14.702,9.035
		c-0.266-0.018-0.53-0.04-0.8-0.04c-6.627,0-11.999,5.372-11.999,12c0,6.607,5.34,11.965,11.938,11.998v0.003h1.062v-2h-0.604
		l-0.447-0.003c-5.485-0.027-9.948-4.513-9.948-9.998c0-5.514,4.485-10,9.999-10c0.175,0,0.347,0.014,0.52,0.025l0.148,0.01
		l1.316,0.088l0.598-1.176c2.492-4.899,7.443-7.942,12.92-7.942c6.79,0,12.75,4.814,14.172,11.448l0.317,1.482l1.514,0.095
		c4.203,0.262,7.496,3.763,7.496,7.971c0,4.397-3.565,7.977-7.957,8c-0.05-0.003-0.093-0.005-0.137-0.007l-0.906,0.007v2h0.863
		v-0.007c0.046,0.001,0.091,0.007,0.137,0.007c5.521,0,10-4.477,10-10C-258.581-167.908-262.726-172.239-267.953-172.564z"/>
	
		<rect x="-299.147" y="-154.6" transform="matrix(-0.5736 -0.8191 0.8191 -0.5736 -336.1345 -482.1646)" width="11.183" height="1.999"/>
	
		<rect x="-281.172" y="-154.6" transform="matrix(-0.5736 -0.8191 0.8191 -0.5736 -307.8489 -467.4415)" width="11.183" height="1.999"/>
	<polygon points="-282.739,-149.594 -280.97,-149.594 -280.539,-149.594 -278.529,-149.594 -284.943,-158.755 -286.581,-157.607 
		-282.37,-151.594 -284.141,-151.594 -286.581,-151.594 -285.31,-149.777 -284.197,-148.188 -279.581,-141.594 -277.942,-142.74 
		-282.559,-149.336 	"/>
</g>
<g>
	<rect x="-193.105" y="-192.031" width="2" height="7.973"/>
	<rect x="-212.105" y="-173.117" width="7.973" height="2"/>
	<rect x="-207.432" y="-184.384" transform="matrix(0.7071 0.7071 -0.7071 0.7071 -189.2597 90.1457)" width="7.974" height="2"/>
	<rect x="-181.924" y="-187.366" transform="matrix(0.7071 0.7071 -0.7071 0.7071 -182.6605 74.2217)" width="2" height="7.972"/>
	<path d="M-162.594-166.241c-1.444-6.742-7.433-11.8-14.605-11.8c-2.185,0-4.258,0.47-6.126,1.313
		c-1.667-3.202-5.007-5.394-8.866-5.394c-5.522,0-10,4.477-10,9.999c0,2.46,0.899,4.702,2.373,6.442
		c-1.429,1.84-2.287,4.144-2.287,6.653c0,5.983,4.836,10.836,10.813,10.865v0.003h0.188v-2l-0.178-0.003
		c-4.864-0.023-8.822-4.001-8.822-8.865c0-4.89,3.978-8.868,8.867-8.868c0.15,0,0.299,0.012,0.447,0.022l0.148,0.01l1.314,0.085
		l0.597-1.175c2.225-4.372,6.644-7.089,11.532-7.089c6.062,0,11.382,4.298,12.649,10.219l0.318,1.483l1.514,0.094
		c3.708,0.23,6.612,3.319,6.612,7.03c0,3.878-3.144,7.035-7.017,7.057c-0.042-0.003-0.079-0.005-0.117-0.005l-0.866,0.005v2h0.819
		v-0.006c0.042,0.001,0.082,0.006,0.124,0.006c5.001,0,9.057-4.054,9.057-9.057C-154.105-162.024-157.859-165.946-162.594-166.241z
		 M-190.514-169.858c-0.241-0.016-0.48-0.036-0.725-0.036c-2.766,0-5.282,1.042-7.2,2.743c-1.092-1.367-1.753-3.09-1.753-4.971
		c0-4.41,3.589-7.999,8-7.999c3.091,0,5.76,1.773,7.091,4.345C-187.398-174.337-189.278-172.288-190.514-169.858z"/>
	
		<rect x="-192.684" y="-150.161" transform="matrix(-0.5736 -0.8191 0.8191 -0.5736 -172.236 -387.9753)" width="11.183" height="1.999"/>
	
		<rect x="-174.709" y="-150.161" transform="matrix(-0.5736 -0.8191 0.8191 -0.5736 -143.9504 -373.2522)" width="11.183" height="1.999"/>
	<polygon points="-176.276,-145.155 -174.507,-145.155 -174.076,-145.155 -172.066,-145.155 -178.48,-154.316 -180.118,-153.169 
		-175.907,-147.155 -177.678,-147.155 -180.118,-147.155 -178.847,-145.339 -177.734,-143.75 -173.118,-137.155 -171.479,-138.302 
		-176.096,-144.897 	"/>
</g>
<g>
	<path d="M-60.756-169.199c-1.444-6.742-7.433-11.8-14.605-11.8c-1.799,0-3.522,0.32-5.118,0.904
		c-0.949-5.108-5.404-8.98-10.788-8.98c-0.413,0-0.819,0.027-1.222,0.071c0.744,1.112,1.179,2.448,1.179,3.886c0,3.865-3.134,7-7,7
		c-1.438,0-2.773-0.435-3.886-1.179c-0.044,0.401-0.071,0.809-0.071,1.222c0,3.712,1.845,6.987,4.661,8.979
		c-1.653,1.907-2.661,4.389-2.661,7.111c0,5.983,4.836,10.836,10.813,10.865v0.003h0.188v-2l-0.178-0.003
		c-4.864-0.023-8.822-4.001-8.822-8.865c0-4.89,3.978-8.868,8.867-8.868c0.15,0,0.299,0.012,0.447,0.022l0.148,0.01l1.314,0.085
		l0.597-1.175c2.225-4.372,6.644-7.089,11.532-7.089c6.062,0,11.382,4.298,12.649,10.219l0.318,1.483l1.514,0.094
		c3.708,0.23,6.612,3.319,6.612,7.03c0,3.878-3.144,7.035-7.017,7.057c-0.042-0.003-0.079-0.005-0.117-0.005l-0.866,0.005v2h0.819
		v-0.006c0.042,0.001,0.082,0.006,0.124,0.006c5.001,0,9.057-4.054,9.057-9.057C-52.268-164.982-56.021-168.904-60.756-169.199z
		 M-88.676-172.816c-0.241-0.016-0.48-0.036-0.725-0.036c-2.537,0-4.865,0.876-6.715,2.334c-2.012-1.294-3.487-3.354-3.976-5.776
		c0.582,0.117,1.178,0.177,1.78,0.177c4.963,0,9-4.037,9-9c0-0.603-0.06-1.198-0.177-1.78c3.733,0.753,6.629,3.824,7.133,7.641
		C-85.065-177.814-87.28-175.559-88.676-172.816z"/>
	
		<rect x="-90.847" y="-153.119" transform="matrix(-0.5736 -0.8191 0.8191 -0.5736 -9.5586 -309.2147)" width="11.183" height="1.999"/>
	
		<rect x="-72.872" y="-153.119" transform="matrix(-0.5736 -0.8191 0.8191 -0.5736 18.7269 -294.4915)" width="11.183" height="1.999"/>
	<polygon points="-74.439,-148.113 -72.67,-148.113 -72.239,-148.113 -70.229,-148.113 -76.644,-157.274 -78.281,-156.127 
		-74.07,-150.113 -75.841,-150.113 -78.281,-150.113 -77.01,-148.297 -75.897,-146.708 -71.281,-140.113 -69.643,-141.26 
		-74.259,-147.855 	"/>
</g>
<g>
	<g>
		<path d="M-471.318-82.744c-1.596-7.445-8.207-13.029-16.127-13.029c-6.423,0-11.977,3.678-14.702,9.035
			c-0.266-0.018-0.53-0.04-0.8-0.04c-6.627,0-11.999,5.372-11.999,12c0,6.607,5.34,11.965,11.938,11.998v0.003h2.062v-2h-1.604
			l-0.447-0.003c-5.485-0.027-9.948-4.513-9.948-9.998c0-5.514,4.485-10,9.999-10c0.175,0,0.347,0.014,0.52,0.025l0.148,0.01
			l1.316,0.088l0.598-1.176c2.492-4.899,7.443-7.942,12.92-7.942c6.79,0,12.75,4.814,14.172,11.448l0.317,1.482l1.514,0.095
			c4.203,0.262,7.496,3.763,7.496,7.971c0,4.397-3.565,7.977-7.957,8c-0.05-0.003-0.093-0.005-0.137-0.007l-2.043,0.007h-2.863v2
			h4.863v-0.007c0.046,0.001,0.091,0.007,0.137,0.007c5.521,0,10-4.477,10-10C-461.946-78.088-466.091-82.419-471.318-82.744z"/>
	</g>
	<g>
		<circle cx="-496.446" cy="-69.201" r="1.5"/>
	</g>
	<g>
		<circle cx="-492.446" cy="-63.277" r="1.5"/>
	</g>
	<g>
		<circle cx="-484.446" cy="-63.277" r="1.5"/>
	</g>
	<g>
		<circle cx="-488.446" cy="-69.201" r="1.5"/>
	</g>
	<g>
		<circle cx="-480.446" cy="-69.201" r="1.5"/>
	</g>
	<g>
		<circle cx="-496.446" cy="-57.256" r="1.5"/>
	</g>
	<g>
		<circle cx="-488.446" cy="-57.256" r="1.5"/>
	</g>
	<g>
		<circle cx="-480.446" cy="-57.256" r="1.5"/>
	</g>
</g>
<g>
	<g>
		<rect x="-395.532" y="-98.222" width="2" height="7.973"/>
	</g>
	<g>
		<rect x="-414.532" y="-79.308" width="7.973" height="2"/>
	</g>
	<g>
		<rect x="-409.859" y="-90.574" transform="matrix(0.7071 0.7071 -0.7071 0.7071 -182.2157 260.7592)" width="7.974" height="2"/>
	</g>
	<g>
		<rect x="-384.35" y="-93.556" transform="matrix(0.7071 0.7071 -0.7071 0.7071 -175.6166 244.8353)" width="2" height="7.972"/>
	</g>
	<g>
		<path d="M-365.021-72.432c-1.444-6.742-7.433-11.8-14.605-11.8c-2.185,0-4.258,0.47-6.127,1.313
			c-1.666-3.202-5.006-5.394-8.865-5.394c-5.522,0-10,4.477-10,9.999c0,2.46,0.898,4.702,2.373,6.442
			c-1.428,1.84-2.287,4.144-2.287,6.653c0,5.983,4.836,10.836,10.813,10.865v0.003h1.188v-2h-0.721l-0.457-0.003
			c-4.864-0.023-8.822-4.001-8.822-8.865c0-4.89,3.978-8.868,8.867-8.868c0.15,0,0.299,0.012,0.447,0.022l0.148,0.01l1.314,0.085
			l0.597-1.175c2.225-4.372,6.644-7.089,11.532-7.089c6.062,0,11.382,4.298,12.649,10.219l0.318,1.483l1.514,0.094
			c3.708,0.23,6.612,3.319,6.612,7.03c0,3.878-3.144,7.035-7.017,7.057c-0.042-0.003-0.079-0.005-0.117-0.005l-2.047,0.005h-1.819v2
			h3.819v-0.006c0.042,0.001,0.082,0.006,0.124,0.006c5.001,0,9.057-4.054,9.057-9.057
			C-356.532-68.215-360.286-72.137-365.021-72.432z M-392.94-76.049c-0.241-0.016-0.48-0.036-0.725-0.036
			c-2.766,0-5.281,1.042-7.2,2.743c-1.092-1.367-1.753-3.09-1.753-4.971c0-4.41,3.589-7.999,8-7.999c3.092,0,5.76,1.773,7.092,4.345
			C-389.825-80.527-391.704-78.479-392.94-76.049z"/>
	</g>
	<g>
		<circle cx="-389.043" cy="-60.838" r="1.5"/>
	</g>
	<g>
		<circle cx="-385.043" cy="-54.838" r="1.5"/>
	</g>
	<g>
		<circle cx="-377.043" cy="-54.838" r="1.5"/>
	</g>
	<g>
		<circle cx="-381.043" cy="-60.838" r="1.5"/>
	</g>
	<g>
		<circle cx="-373.043" cy="-60.838" r="1.5"/>
	</g>
	<g>
		<circle cx="-389.043" cy="-48.816" r="1.5"/>
	</g>
	<g>
		<circle cx="-381.043" cy="-48.816" r="1.5"/>
	</g>
	<g>
		<circle cx="-373.043" cy="-48.816" r="1.5"/>
	</g>
</g>
<g>
	<g>
		<path d="M-269.069-76.388c-1.444-6.742-7.433-11.8-14.605-11.8c-1.799,0-3.521,0.32-5.118,0.904
			c-0.949-5.108-5.404-8.98-10.788-8.98c-0.413,0-0.819,0.027-1.222,0.071c0.744,1.112,1.179,2.448,1.179,3.886c0,3.865-3.134,7-7,7
			c-1.438,0-2.773-0.435-3.886-1.179c-0.044,0.401-0.071,0.809-0.071,1.222c0,3.712,1.845,6.987,4.661,8.979
			c-1.653,1.907-2.661,4.389-2.661,7.111c0,5.983,4.836,10.836,10.813,10.865v0.003h1.188v-2h-0.721l-0.457-0.003
			c-4.864-0.023-8.822-4.001-8.822-8.865c0-4.89,3.978-8.868,8.867-8.868c0.15,0,0.299,0.012,0.447,0.022l0.148,0.01l1.314,0.085
			l0.597-1.175c2.225-4.372,6.644-7.089,11.532-7.089c6.062,0,11.382,4.298,12.649,10.219l0.318,1.483l1.514,0.094
			c3.708,0.23,6.612,3.319,6.612,7.03c0,3.878-3.144,7.035-7.017,7.057c-0.042-0.003-0.079-0.005-0.117-0.005l-2.047,0.005h-1.819v2
			h3.819v-0.006c0.042,0.001,0.082,0.006,0.124,0.006c5.001,0,9.057-4.054,9.057-9.057
			C-260.581-72.171-264.335-76.093-269.069-76.388z M-296.989-80.005c-0.241-0.016-0.48-0.036-0.725-0.036
			c-2.537,0-4.865,0.876-6.715,2.334c-2.012-1.294-3.486-3.354-3.976-5.776c0.582,0.117,1.178,0.177,1.78,0.177c4.963,0,9-4.037,9-9
			c0-0.603-0.06-1.198-0.177-1.78c3.733,0.753,6.629,3.824,7.134,7.64C-293.38-85.003-295.595-82.748-296.989-80.005z"/>
	</g>
	<g>
		<circle cx="-293.081" cy="-64.795" r="1.5"/>
	</g>
	<g>
		<circle cx="-289.081" cy="-58.795" r="1.5"/>
	</g>
	<g>
		<circle cx="-281.081" cy="-58.795" r="1.5"/>
	</g>
	<g>
		<circle cx="-285.081" cy="-64.795" r="1.5"/>
	</g>
	<g>
		<circle cx="-277.081" cy="-64.795" r="1.5"/>
	</g>
	<g>
		<circle cx="-293.081" cy="-52.773" r="1.5"/>
	</g>
	<g>
		<circle cx="-285.081" cy="-52.773" r="1.5"/>
	</g>
	<g>
		<circle cx="-277.081" cy="-52.773" r="1.5"/>
	</g>
</g>
<g>
	<path d="M42.096-175.273c-1.596-7.445-8.207-13.029-16.127-13.029c-6.423,0-11.977,3.678-14.702,9.035
		c-0.266-0.018-0.53-0.04-0.8-0.04c-6.627,0-11.999,5.372-11.999,12c0,6.607,5.34,11.965,11.938,11.998v0.003h2.062v-2h-1.604
		l-0.447-0.003c-5.485-0.027-9.948-4.513-9.948-9.998c0-5.514,4.485-10,9.999-10c0.175,0,0.347,0.014,0.52,0.025l0.148,0.01
		l1.316,0.088l0.598-1.176c2.492-4.899,7.443-7.942,12.92-7.942c6.79,0,12.75,4.814,14.172,11.448l0.317,1.482l1.514,0.095
		c4.203,0.262,7.496,3.763,7.496,7.971c0,4.397-3.565,7.977-7.957,8c-0.05-0.003-0.093-0.005-0.137-0.007l-2.043,0.007h-2.863v2
		h4.863v-0.007c0.046,0.001,0.091,0.007,0.137,0.007c5.521,0,10-4.477,10-10C51.468-170.617,47.323-174.948,42.096-175.273z"/>
	<circle cx="16.468" cy="-147.803" r="1.5"/>
	<circle cx="24.468" cy="-141.803" r="1.5"/>
	<circle cx="32.468" cy="-145.803" r="1.5"/>
	<rect x="15.468" y="-164.278" width="2" height="11.976"/>
	<polygon points="25.468,-146.338 25.468,-148.278 25.468,-160.278 23.468,-160.278 23.468,-148.278 23.468,-146.338 
		23.468,-146.303 25.468,-146.303 	"/>
	<polygon points="33.468,-150.525 33.468,-152.278 33.468,-164.278 31.468,-164.278 31.468,-152.278 31.468,-150.525 
		31.468,-150.303 33.468,-150.303 	"/>
</g>
<g>
	<rect x="-706.281" y="-103.66" width="2" height="7.973"/>
	<rect x="-725.281" y="-84.746" width="7.973" height="2"/>
	<rect x="-720.608" y="-96.013" transform="matrix(0.7071 0.7071 -0.7071 0.7071 -277.0776 478.899)" width="7.974" height="2"/>
	<rect x="-695.099" y="-98.995" transform="matrix(0.7071 0.7071 -0.7071 0.7071 -270.4785 462.9751)" width="2" height="7.972"/>
	<path d="M-675.77-77.87c-1.444-6.742-7.433-11.8-14.605-11.8c-2.185,0-4.258,0.47-6.126,1.313
		c-1.667-3.202-5.007-5.394-8.866-5.394c-5.522,0-10,4.477-10,9.999c0,2.46,0.899,4.702,2.373,6.442
		c-1.429,1.84-2.287,4.144-2.287,6.653c0,5.983,4.836,10.836,10.813,10.865v0.003h1.188v-2h-0.721l-0.457-0.003
		c-4.864-0.023-8.822-4.001-8.822-8.865c0-4.89,3.978-8.868,8.867-8.868c0.15,0,0.299,0.012,0.447,0.022l0.148,0.01l1.314,0.085
		l0.597-1.175c2.225-4.372,6.644-7.089,11.532-7.089c6.062,0,11.382,4.298,12.649,10.219l0.318,1.483l1.514,0.094
		c3.708,0.23,6.612,3.319,6.612,7.03c0,3.878-3.144,7.035-7.017,7.057c-0.042-0.003-0.079-0.005-0.117-0.005l-2.047,0.005h-0.819v2
		h2.819v-0.006c0.042,0.001,0.082,0.006,0.124,0.006c5.001,0,9.057-4.054,9.057-9.057C-667.281-73.653-671.035-77.575-675.77-77.87z
		 M-703.689-81.487c-0.241-0.016-0.48-0.036-0.725-0.036c-2.766,0-5.282,1.041-7.2,2.743c-1.092-1.366-1.753-3.09-1.753-4.971
		c0-4.41,3.589-7.999,8-7.999c3.091,0,5.76,1.773,7.091,4.345C-700.574-85.965-702.454-83.917-703.689-81.487z"/>
	<circle cx="-699.291" cy="-51.3" r="1.5"/>
	<circle cx="-691.291" cy="-45.3" r="1.5"/>
	<circle cx="-683.291" cy="-49.3" r="1.5"/>
	<rect x="-700.291" y="-67.775" width="2" height="11.976"/>
	<polygon points="-690.291,-49.835 -690.291,-51.775 -690.291,-63.775 -692.291,-63.775 -692.291,-51.775 -692.291,-49.835 
		-692.291,-49.8 -690.291,-49.8 	"/>
	<polygon points="-682.291,-54.022 -682.291,-55.775 -682.291,-67.775 -684.291,-67.775 -684.291,-55.775 -684.291,-54.022 
		-684.291,-53.8 -682.291,-53.8 	"/>
</g>
<g>
	<path d="M-575.167-80.868c-1.444-6.742-7.433-11.8-14.605-11.8c-1.799,0-3.522,0.32-5.118,0.904
		c-0.949-5.108-5.404-8.98-10.788-8.98c-0.413,0-0.819,0.027-1.222,0.071c0.744,1.112,1.179,2.448,1.179,3.886c0,3.865-3.134,7-7,7
		c-1.438,0-2.773-0.435-3.886-1.179c-0.044,0.401-0.071,0.809-0.071,1.222c0,3.712,1.845,6.987,4.661,8.979
		c-1.653,1.907-2.661,4.389-2.661,7.111c0,5.983,4.836,10.836,10.813,10.865v0.003h1.188v-2h-0.721l-0.457-0.003
		c-4.864-0.023-8.822-4.001-8.822-8.865c0-4.89,3.978-8.868,8.867-8.868c0.15,0,0.299,0.012,0.447,0.022l0.148,0.01l1.314,0.085
		l0.597-1.175c2.225-4.372,6.644-7.089,11.532-7.089c6.062,0,11.382,4.298,12.649,10.219l0.318,1.483l1.514,0.094
		c3.708,0.23,6.612,3.319,6.612,7.03c0,3.878-3.144,7.035-7.017,7.057c-0.042-0.003-0.079-0.005-0.117-0.005l-2.047,0.005h-0.819v2
		h2.819v-0.006c0.042,0.001,0.082,0.006,0.124,0.006c5.001,0,9.057-4.054,9.057-9.057
		C-566.679-76.651-570.433-80.573-575.167-80.868z M-603.087-84.485c-0.241-0.016-0.48-0.036-0.725-0.036
		c-2.537,0-4.865,0.876-6.715,2.334c-2.012-1.294-3.487-3.354-3.976-5.776c0.582,0.117,1.178,0.177,1.78,0.177c4.963,0,9-4.037,9-9
		c0-0.603-0.06-1.198-0.177-1.78c3.733,0.753,6.629,3.824,7.133,7.64C-599.477-89.483-601.691-87.229-603.087-84.485z"/>
	<circle cx="-598.679" cy="-54.294" r="1.5"/>
	<circle cx="-590.679" cy="-48.294" r="1.5"/>
	<circle cx="-582.679" cy="-52.294" r="1.5"/>
	<rect x="-599.679" y="-70.77" width="2" height="11.976"/>
	<polygon points="-589.679,-52.829 -589.679,-54.77 -589.679,-66.77 -591.679,-66.77 -591.679,-54.77 -591.679,-52.829 
		-591.679,-52.794 -589.679,-52.794 	"/>
	<polygon points="-581.679,-57.017 -581.679,-58.77 -581.679,-70.77 -583.679,-70.77 -583.679,-58.77 -583.679,-57.017 
		-583.679,-56.794 -581.679,-56.794 	"/>
</g>
<g>
	<rect x="-723.281" y="23.572" width="56" height="2"/>
	<rect x="-719.281" y="29.572" width="50" height="2"/>
	<rect x="-713.281" y="35.572" width="36" height="2"/>
	<rect x="-721.281" y="17.572" width="52" height="2"/>
	<path d="M-709.407,9.567c0.175,0,0.347,0.014,0.519,0.025l0.149,0.01l1.316,0.088l0.598-1.176c2.493-4.899,7.443-7.942,12.92-7.942
		c6.79,0,12.75,4.814,14.171,11.448l0.318,1.482l1.514,0.095c1.207,0.075,2.335,0.425,3.336,0.975h3.286
		c-1.678-1.703-3.957-2.813-6.498-2.971c-1.596-7.445-8.207-13.029-16.127-13.029c-6.423,0-11.977,3.678-14.702,9.035
		c-0.266-0.018-0.53-0.04-0.8-0.04c-4.843,0-9.004,2.874-10.9,7.005h2.251C-716.325,11.586-713.101,9.567-709.407,9.567z"/>
</g>
<g>
	<rect x="-602.179" y="-3.942" width="2" height="7.973"/>
	<rect x="-621.179" y="14.972" width="7.973" height="2"/>
	<rect x="-616.506" y="3.705" transform="matrix(0.7071 0.7071 -0.7071 0.7071 -176.0755 434.4941)" width="7.974" height="2"/>
	<rect x="-590.997" y="0.723" transform="matrix(0.7071 0.7071 -0.7071 0.7071 -169.4764 418.5702)" width="2" height="7.972"/>
	<rect x="-612.179" y="29.932" width="50" height="2"/>
	<rect x="-608.179" y="35.932" width="44" height="2"/>
	<rect x="-602.179" y="40.932" width="30" height="2"/>
	<rect x="-610.179" y="23.932" width="46" height="2"/>
	<path d="M-609.271,21.932h0.771h1.927h1.012c1.472-1.087,3.283-1.737,5.249-1.737c0.15,0,0.299,0.012,0.447,0.022l0.148,0.01
		l1.314,0.085l0.597-1.175c2.225-4.372,6.644-7.089,11.532-7.089c5.945,0,11.168,4.139,12.563,9.884h2.043v-0.084
		c-1.444-6.742-7.433-11.8-14.605-11.8c-2.185,0-4.258,0.47-6.126,1.313c-1.667-3.202-5.007-5.394-8.866-5.394
		c-5.522,0-10,4.477-10,9.999C-611.265,18.208-610.517,20.267-609.271,21.932z M-601.265,7.968c3.091,0,5.76,1.773,7.091,4.345
		c-2.298,1.44-4.178,3.488-5.413,5.918c-0.241-0.016-0.48-0.036-0.725-0.036c-2.764,0-5.274,1.045-7.189,2.745
		c-1.097-1.366-1.764-3.089-1.764-4.973C-609.265,11.557-605.676,7.968-601.265,7.968z"/>
</g>
<g>
	<rect x="-513.435" y="26.494" width="50" height="2"/>
	<rect x="-509.435" y="32.494" width="44" height="2"/>
	<rect x="-503.435" y="37.494" width="30" height="2"/>
	<rect x="-511.435" y="20.494" width="46" height="2"/>
	<path d="M-509.792,18.494h0.037h1.884h1.055c1.472-1.087,3.283-1.737,5.249-1.737c0.15,0,0.299,0.012,0.447,0.022l0.148,0.01
		l1.314,0.085l0.597-1.175c2.225-4.372,6.644-7.089,11.532-7.089c5.945,0,11.168,4.139,12.563,9.884h2.043V18.41
		c-1.444-6.742-7.433-11.8-14.605-11.8c-1.799,0-3.521,0.32-5.117,0.903c-0.945-5.111-5.402-8.987-10.789-8.987
		c-0.413,0-0.819,0.027-1.222,0.071c0.744,1.112,1.179,2.448,1.179,3.886c0,3.865-3.134,7-7,7c-1.438,0-2.773-0.435-3.886-1.179
		c-0.044,0.401-0.071,0.809-0.071,1.222C-514.435,13.23-512.599,16.501-509.792,18.494z M-510.478,11.483c4.963,0,9-4.037,9-9
		c0-0.603-0.06-1.198-0.177-1.78c3.735,0.753,6.633,3.828,7.134,7.647c-2.712,1.443-4.927,3.699-6.322,6.442
		c-0.241-0.016-0.48-0.036-0.725-0.036c-2.534,0-4.855,0.879-6.701,2.335c-2.02-1.293-3.5-3.356-3.989-5.785
		C-511.676,11.424-511.08,11.483-510.478,11.483z"/>
</g>
<g>
	<path d="M-381.543,29.508h-19.474l-0.578-0.003c-5.485-0.027-9.948-4.513-9.948-9.998c0-5.514,4.485-10,9.999-10
		c0.175,0,0.347,0.014,0.519,0.025l0.149,0.01l1.316,0.088l0.598-1.176c2.493-4.899,7.443-7.942,12.92-7.942
		c6.79,0,12.75,4.814,14.171,11.448l0.318,1.482l1.514,0.095c1.822,0.113,3.463,0.845,4.746,1.971h2.732
		c-1.707-2.262-4.348-3.78-7.354-3.967c-1.596-7.445-8.207-13.029-16.127-13.029c-6.423,0-11.977,3.678-14.702,9.035
		c-0.266-0.018-0.53-0.04-0.8-0.04c-6.627,0-11.999,5.372-11.999,12c0,6.607,5.34,11.965,11.938,11.998v0.003h20.062
		c2.205,0,4,1.794,4,4s-1.795,4-4,4v2c3.314,0,6-2.686,6-6C-375.543,32.194-378.229,29.508-381.543,29.508z"/>
	<path d="M-377.543,25.508h-15.988v2h15.988c3.314,0,6-2.687,6-6c0-3.314-2.686-6-6-6v2c2.205,0,4,1.794,4,4
		S-375.338,25.508-377.543,25.508z"/>
	<path d="M-364.543,19.508c1.654,0,3,1.346,3,3s-1.346,3-3,3c-0.043,0-0.083-0.011-0.126-0.013h-4.862
		c0.003,0.005,0.009,0.008,0.012,0.013h-0.023v2h5.5v-0.051c2.523-0.254,4.5-2.358,4.5-4.949c0-2.762-2.238-5-5-5V19.508z"/>
	<path d="M-360.543,29.508h-13v2h9.022c-0.004,0.005-0.008,0.008-0.011,0.013h3.862c0.043-0.002,0.083-0.013,0.126-0.013
		c1.654,0,3,1.346,3,3s-1.346,3-3,3v2c2.762,0,5-2.238,5-5S-357.781,29.508-360.543,29.508z"/>
	<rect x="-399.543" y="25.508" width="4" height="2"/>
</g>
<path d="M-589.104-369.596c6.95,1.305,12.226,7.419,12.226,14.742c0,8.272-6.729,15.002-15,15.002
	c-6.79,0-12.531-4.49-14.366-10.728c1.398,0.461,2.867,0.698,4.366,0.698c7.72,0,14-6.281,14-14.001
	C-587.879-365.866-588.303-367.811-589.104-369.596 M-591.879-371.853c-0.338,0-0.668,0.031-1,0.051c1.861,2.113,3,4.881,3,7.92
	c0,6.627-5.372,12.001-12,12.001c-2.599,0-4.998-0.835-6.963-2.239c0.387,9.047,7.821,16.269,16.963,16.269
	c9.39,0,17-7.612,17-17.002S-582.489-371.853-591.879-371.853L-591.879-371.853z"/>
<g>
	<path d="M-695.274-366.857c-7.18,0-13,5.819-13,12.999c0,7.181,5.82,13.002,13,13.002s13-5.821,13-13.002
		C-682.274-361.038-688.095-366.857-695.274-366.857z M-695.274-342.856c-6.065,0-11-4.936-11-11.002
		c0-6.064,4.935-10.999,11-10.999s11,4.935,11,10.999C-684.274-347.792-689.209-342.856-695.274-342.856z"/>
	<rect x="-696.281" y="-379.852" width="2" height="10"/>
	<rect x="-696.281" y="-337.852" width="2" height="10"/>
	<rect x="-721.274" y="-354.852" width="9.993" height="2"/>
	<rect x="-679.281" y="-354.852" width="10.007" height="2"/>
	<rect x="-681.581" y="-373.766" transform="matrix(0.7071 0.7071 -0.7071 0.7071 -459.9497 373.2948)" width="2" height="10.409"/>
	
		<rect x="-710.99" y="-344.357" transform="matrix(-0.7071 -0.7071 0.7071 -0.7071 -972.2126 -1081.0073)" width="2" height="10.41"/>
	<rect x="-715.19" y="-369.556" transform="matrix(0.7071 0.7071 -0.7071 0.7071 -468.5586 394.0882)" width="10.409" height="2"/>
	
		<rect x="-685.782" y="-340.147" transform="matrix(-0.7072 -0.7071 0.7071 -0.7072 -922.0526 -1060.1848)" width="10.41" height="2"/>
</g>
<g>
	<rect x="-297.108" y="-8.99" width="2" height="7.973"/>
	<rect x="-316.081" y="9.996" width="7.973" height="2"/>
	<rect x="-311.355" y="-1.223" transform="matrix(0.7071 0.7071 -0.7071 0.7071 -90.1835 217.2769)" width="7.974" height="2"/>
	<rect x="-285.847" y="-4.205" transform="matrix(0.7071 0.7071 -0.7071 0.7071 -83.5843 201.353)" width="2" height="7.972"/>
	<path d="M-282.081,33.01l0.005-0.007h-12.536L-295.206,33c-4.864-0.024-8.822-4.001-8.822-8.865c0-4.89,3.978-8.868,8.867-8.868
		c0.15,0,0.299,0.012,0.447,0.021l0.148,0.011l1.314,0.085l0.597-1.174c2.225-4.373,6.644-7.09,11.532-7.09
		c5.916,0,11.114,4.099,12.54,9.8h2.065c-1.444-6.742-7.433-11.8-14.605-11.8c-2.185,0-4.258,0.47-6.126,1.313
		c-1.667-3.202-5.007-5.394-8.866-5.394c-5.522,0-10,4.477-10,9.999c0,2.46,0.899,4.702,2.373,6.442
		c-1.429,1.84-2.287,4.144-2.287,6.653c0,5.983,4.836,10.836,10.813,10.865v0.003h13.135v0.007c2.205,0,4,1.794,4,4s-1.795,4-4,4v2
		c3.314,0,6-2.686,6-6C-276.081,35.696-278.767,33.01-282.081,33.01z M-296.114,3.04c3.091,0,5.76,1.773,7.091,4.345
		c-2.298,1.439-4.178,3.488-5.413,5.918c-0.241-0.016-0.48-0.036-0.725-0.036c-2.766,0-5.282,1.042-7.2,2.743
		c-1.092-1.367-1.753-3.09-1.753-4.971C-304.114,6.629-300.525,3.04-296.114,3.04z"/>
	<path d="M-278.081,29.01h-9.988v2h9.988c3.314,0,6-2.687,6-6c0-3.314-2.686-6-6-6v2c2.205,0,4,1.794,4,4
		S-275.876,29.01-278.081,29.01z"/>
	<path d="M-270.058,29.01h-0.023v2h5.5v-0.051c2.523-0.254,4.5-2.358,4.5-4.949c0-2.762-2.238-5-5-5v2c1.654,0,3,1.346,3,3
		s-1.346,3-3,3c-0.043,0-0.083-0.011-0.126-0.013h-4.862C-270.066,29.002-270.061,29.006-270.058,29.01z"/>
	<path d="M-261.081,33.01h-13v2h9.022c-0.004,0.004-0.008,0.008-0.011,0.013h3.862c0.043-0.002,0.083-0.013,0.126-0.013
		c1.654,0,3,1.346,3,3s-1.346,3-3,3v2c2.762,0,5-2.238,5-5S-258.319,33.01-261.081,33.01z"/>
	<rect x="-294.081" y="29.01" width="4" height="2"/>
</g>
<g>
	<path d="M-182.119,31.004l0.005-0.007h-12.536l-0.594-0.003c-4.864-0.024-8.822-4.001-8.822-8.865c0-4.89,3.978-8.868,8.867-8.868
		c0.15,0,0.299,0.012,0.447,0.021l0.148,0.011l1.314,0.085l0.597-1.174c2.225-4.373,6.644-7.09,11.532-7.09
		c5.916,0,11.114,4.099,12.54,9.8h2.065c-1.444-6.742-7.433-11.8-14.605-11.8c-1.806,0-3.536,0.322-5.138,0.91
		c-0.938-5.123-5.4-9.01-10.794-9.01c-0.413,0-0.819,0.027-1.222,0.071c0.744,1.112,1.179,2.448,1.179,3.886c0,3.865-3.134,7-7,7
		c-1.438,0-2.773-0.435-3.886-1.179c-0.044,0.401-0.071,0.809-0.071,1.222c0,3.725,1.858,7.009,4.69,8.998
		c-1.655,1.907-2.665,4.392-2.665,7.116c0,5.983,4.836,10.836,10.813,10.865v0.003h13.135v0.007c2.205,0,4,1.794,4,4s-1.795,4-4,4v2
		c3.314,0,6-2.686,6-6C-176.119,33.69-178.805,31.004-182.119,31.004z M-205.915,7.795c0.582,0.117,1.178,0.177,1.78,0.177
		c4.963,0,9-4.037,9-9c0-0.603-0.06-1.198-0.177-1.78c3.744,0.755,6.646,3.842,7.138,7.674c-2.702,1.444-4.909,3.696-6.301,6.432
		c-0.241-0.016-0.48-0.036-0.725-0.036c-2.535,0-4.861,0.875-6.71,2.33C-203.938,12.299-205.424,10.23-205.915,7.795z"/>
	<path d="M-178.119,27.004h-9.988v2h9.988c3.314,0,6-2.687,6-6c0-3.314-2.686-6-6-6v2c2.205,0,4,1.794,4,4
		S-175.914,27.004-178.119,27.004z"/>
	<path d="M-170.096,27.004h-0.023v2h5.5v-0.051c2.523-0.254,4.5-2.358,4.5-4.949c0-2.762-2.238-5-5-5v2c1.654,0,3,1.346,3,3
		s-1.346,3-3,3c-0.043,0-0.083-0.011-0.126-0.013h-4.862C-170.104,26.996-170.099,27-170.096,27.004z"/>
	<path d="M-161.119,31.004h-13v2h9.022c-0.004,0.004-0.008,0.008-0.011,0.013h3.862c0.043-0.002,0.083-0.013,0.126-0.013
		c1.654,0,3,1.346,3,3s-1.346,3-3,3v2c2.762,0,5-2.238,5-5S-158.357,31.004-161.119,31.004z"/>
	<rect x="-194.119" y="27.004" width="4" height="2"/>
</g>
<g>
	<rect x="-81.227" y="-6.428" width="2" height="10"/>
	<rect x="-106.22" y="18.572" width="9.993" height="2"/>
	<rect x="-66.527" y="-0.342" transform="matrix(0.7071 0.7071 -0.7071 0.7071 -15.7539 47.7588)" width="2" height="10.409"/>
	<rect x="-100.136" y="3.868" transform="matrix(0.7071 0.7071 -0.7071 0.7071 -24.3627 68.5522)" width="10.409" height="2"/>
	<path d="M-76.227,33.572h-24v2h24c2.205,0,4,1.794,4,4s-1.795,4-4,4v2c3.314,0,6-2.686,6-6
		C-70.227,36.259-72.912,33.572-76.227,33.572z"/>
	<path d="M-64.203,29.572h-0.023v2h5.5v-0.051c2.523-0.254,4.5-2.358,4.5-4.949c0-2.762-2.238-5-5-5v2c1.654,0,3,1.346,3,3
		s-1.346,3-3,3c-0.043,0-0.083-0.011-0.126-0.013h-4.862C-64.212,29.564-64.206,29.568-64.203,29.572z"/>
	<path d="M-55.227,33.572h-13v2h9.022c-0.004,0.004-0.008,0.008-0.011,0.013h3.862c0.043-0.002,0.083-0.013,0.126-0.013
		c1.654,0,3,1.346,3,3s-1.346,3-3,3v2c2.762,0,5-2.238,5-5S-52.465,33.572-55.227,33.572z"/>
	<path d="M-88.518,29.572h-11.709v2h12.012h0.822h15.166c3.314,0,6-2.687,6-6c0-3.314-2.686-6-6-6v2c2.205,0,4,1.794,4,4
		s-1.795,4-4,4h-12.538c-3.802-1.734-6.455-5.563-6.455-10.007c0-6.064,4.935-10.999,11-10.999c5.384,0,9.868,3.891,10.81,9.006
		h2.021C-68.35,11.342-73.72,6.566-80.22,6.566c-7.18,0-13,5.819-13,12.999C-93.22,23.591-91.39,27.188-88.518,29.572z"/>
</g>
<g>
	<path d="M24,27.016H0v2h24c2.205,0,4,1.794,4,4s-1.795,4-4,4v2c3.314,0,6-2.686,6-6C30,29.702,27.314,27.016,24,27.016z"/>
	<path d="M41.5,25.016v-0.051c2.523-0.254,4.5-2.358,4.5-4.949c0-2.762-2.238-5-5-5v2c1.654,0,3,1.346,3,3s-1.346,3-3,3
		c-0.043,0-0.083-0.011-0.126-0.013h-4.862c0.004,0.005,0.009,0.009,0.012,0.013H36v2H41.5z"/>
	<path d="M45,27.016H32v2h9.022c-0.003,0.004-0.007,0.008-0.011,0.013h3.862c0.043-0.002,0.083-0.013,0.126-0.013
		c1.654,0,3,1.346,3,3s-1.346,3-3,3v2c2.762,0,5-2.238,5-5S47.762,27.016,45,27.016z"/>
	<path d="M12.834,25.016H28c3.314,0,6-2.687,6-6c0-3.314-2.686-6-6-6v2c2.205,0,4,1.794,4,4s-1.795,4-4,4H15.414
		c-2.596-1.188-4.658-3.339-5.69-6.034c0.849,0.204,1.724,0.309,2.612,0.309c6.168,0,11.187-5.019,11.187-11.188
		c0-1.276-0.22-2.532-0.64-3.717c4.046,1.102,7.168,4.459,7.937,8.63h2.018C31.873,4.778,26.499,0,19.991,0
		c-0.259,0-0.511,0.024-0.766,0.039c1.425,1.618,2.297,3.737,2.297,6.063c0,5.072-4.112,9.188-9.187,9.188
		c-1.988,0-3.826-0.641-5.33-1.715c0.162,3.801,1.962,7.165,4.699,9.44H0v2h12.012H12.834z"/>
</g>
<g>
	<path d="M-695.781,112.209h-20c-1.103,0-2-0.897-2-2s0.897-2,2-2h3.445h0.555v-2h-4c-2.209,0-4,1.791-4,4s1.791,4,4,4h20
		c2.205,0,4,1.794,4,4s-1.795,4-4,4v2c3.314,0,6-2.686,6-6C-689.781,114.896-692.467,112.209-695.781,112.209z"/>
	<path d="M-693.781,96.209v2c2.205,0,4,1.794,4,4s-1.795,4-4,4h-15.988v2h15.988c3.314,0,6-2.687,6-6
		C-687.781,98.895-690.467,96.209-693.781,96.209z"/>
	<path d="M-687.781,108.209v2h5.5v-0.051c2.523-0.254,4.5-2.358,4.5-4.949c0-2.762-2.238-5-5-5v2c1.654,0,3,1.346,3,3s-1.346,3-3,3
		c-0.043,0-0.083-0.011-0.126-0.013h-4.862c0.003,0.005,0.009,0.009,0.012,0.013H-687.781z"/>
	<path d="M-676.781,112.209h-11v2h7.022c-0.004,0.004-0.008,0.008-0.011,0.013h3.862c0.043-0.002,0.083-0.013,0.126-0.013
		c1.654,0,3,1.346,3,3s-1.346,3-3,3v2c2.762,0,5-2.238,5-5S-674.02,112.209-676.781,112.209z"/>
</g>
<path d="M-159.489,98.556v-0.038h-38.376c-1.103,0-2-0.897-2-2s0.897-2,2-2h33c2.762,0,5-2.238,5-5s-2.238-5-5-5h-37.875v0.008
	c-0.042-0.001-0.083-0.008-0.125-0.008c-2.762,0-5,2.238-5,5s2.238,5,5,5v-2c-1.654,0-3-1.346-3-3s1.346-3,3-3h0.125h3.853h34.022
	c1.654,0,3,1.346,3,3s-1.346,3-3,3h-33c-2.209,0-4,1.791-4,4s1.791,4,4,4h38c1.103,0,2,0.897,2,2s-0.897,2-2,2h-32
	c-2.209,0-4,1.791-4,4s1.791,4,4,4h22c1.103,0,2,0.897,2,2s-0.897,2-2,2h-24.01v0.001c-2.204,0.006-3.99,1.793-3.99,3.999
	s1.786,3.993,3.99,3.999v0.001h12.01c1.103,0,2,0.897,2,2s-0.897,2-2,2h-2c-2.209,0-4,1.791-4,4s1.791,4,4,4v-2
	c-1.103,0-2-0.897-2-2s0.897-2,2-2h2c2.209,0,4-1.791,4-4s-1.791-4-4-4h-12c-1.103,0-2-0.897-2-2s0.897-2,2-2h24
	c2.209,0,4-1.791,4-4c0-2.152-1.704-3.895-3.834-3.983v-0.017h-22.166c-1.103,0-2-0.897-2-2s0.897-2,2-2h32c2.209,0,4-1.791,4-4
	C-155.865,100.438-157.459,98.748-159.489,98.556z"/>
<path d="M25.926,89.233v-2.024h-2v2.024c-13.01,0.513-23.462,10.965-23.975,23.976h1.674c1.14-1.222,2.748-2,4.551-2
	c2.26,0,4.233,1.203,5.331,3h1.838c1.098-1.797,3.071-3,5.331-3c2.204,0,4.137,1.144,5.25,2.866v15.134c0,2.21,1.791,4,4,4
	s4-1.79,4-4h-2c0,1.103-0.897,2-2,2s-2-0.897-2-2v-15.134c1.113-1.723,3.046-2.866,5.25-2.866c2.26,0,4.233,1.203,5.331,3h1.838
	c1.098-1.797,3.071-3,5.331-3c1.803,0,3.411,0.778,4.551,2H49.9C49.388,100.198,38.936,89.746,25.926,89.233z M43.676,109.209
	c-2.496,0-4.736,1.114-6.25,2.87c-1.514-1.756-3.754-2.87-6.25-2.87s-4.736,1.114-6.25,2.87c-1.514-1.756-3.754-2.87-6.25-2.87
	s-4.736,1.114-6.25,2.87c-1.514-1.756-3.755-2.87-6.25-2.87c-1.402,0-2.731,0.351-3.897,0.975
	c1.909-10.769,11.339-18.975,22.647-18.975s20.738,8.206,22.647,18.975C46.407,109.56,45.078,109.209,43.676,109.209z"/>
<g>
	<path d="M-379.369,213.521v-17.105c0-2.762-2.238-5-5-5s-5,2.238-5,5v17.105c-1.236,1.263-2,2.988-2,4.895c0,3.866,3.134,7,7,7
		s7-3.134,7-7C-377.369,216.51-378.133,214.784-379.369,213.521z M-384.369,223.416c-2.757,0-5-2.243-5-5
		c0-1.313,0.508-2.554,1.429-3.495l0.571-0.583v-0.816v-17.105c0-1.654,1.346-3,3-3s3,1.346,3,3v17.105v0.816l0.571,0.583
		c0.921,0.941,1.429,2.183,1.429,3.495C-379.369,221.173-381.612,223.416-384.369,223.416z"/>
	<path d="M-383.369,215.592v-15.176h-2v15.176c-1.167,0.413-2.008,1.516-2.008,2.824c0,1.662,1.347,3.008,3.008,3.008
		c1.662,0,3.008-1.346,3.008-3.008C-381.361,217.107-382.201,216.005-383.369,215.592z M-384.369,219.424
		c-0.556,0-1.008-0.452-1.008-1.008s0.452-1.008,1.008-1.008s1.008,0.452,1.008,1.008S-383.813,219.424-384.369,219.424z"/>
</g>
<g>
	<path d="M-279.581,213.521v-17.105c0-2.762-2.238-5-5-5s-5,2.238-5,5v17.105c-1.236,1.263-2,2.988-2,4.895c0,3.866,3.134,7,7,7
		s7-3.134,7-7C-277.581,216.51-278.345,214.784-279.581,213.521z M-284.581,223.416c-2.757,0-5-2.243-5-5
		c0-1.313,0.508-2.554,1.429-3.495l0.571-0.583v-0.816v-17.105c0-1.654,1.346-3,3-3s3,1.346,3,3v17.105v0.816l0.571,0.583
		c0.921,0.941,1.429,2.183,1.429,3.495C-279.581,221.173-281.824,223.416-284.581,223.416z"/>
	<path d="M-283.581,215.592v-20.176h-2v20.176c-1.167,0.413-2.008,1.516-2.008,2.824c0,1.662,1.347,3.008,3.008,3.008
		c1.662,0,3.008-1.346,3.008-3.008C-281.573,217.107-282.413,216.005-283.581,215.592z M-284.581,219.424
		c-0.556,0-1.008-0.452-1.008-1.008s0.452-1.008,1.008-1.008s1.008,0.452,1.008,1.008S-284.025,219.424-284.581,219.424z"/>
</g>
<g>
	<path d="M-482.479,213.521v-17.105c0-2.762-2.238-5-5-5s-5,2.238-5,5v17.105c-1.236,1.263-2,2.988-2,4.895c0,3.866,3.134,7,7,7
		s7-3.134,7-7C-480.479,216.51-481.242,214.784-482.479,213.521z M-487.479,223.416c-2.757,0-5-2.243-5-5
		c0-1.313,0.508-2.554,1.429-3.495l0.571-0.583v-0.816v-17.105c0-1.654,1.346-3,3-3s3,1.346,3,3v17.105v0.816l0.571,0.583
		c0.921,0.941,1.429,2.183,1.429,3.495C-482.479,221.173-484.722,223.416-487.479,223.416z"/>
	<path d="M-486.479,215.592v-10.176h-2v10.176c-1.167,0.413-2.008,1.516-2.008,2.824c0,1.662,1.347,3.008,3.008,3.008
		c1.662,0,3.008-1.346,3.008-3.008C-484.471,217.107-485.311,216.005-486.479,215.592z M-487.479,219.424
		c-0.556,0-1.008-0.452-1.008-1.008s0.452-1.008,1.008-1.008s1.008,0.452,1.008,1.008S-486.923,219.424-487.479,219.424z"/>
</g>
<g>
	<path d="M-586.124,213.521v-17.105c0-2.762-2.238-5-5-5s-5,2.238-5,5v17.105c-1.236,1.263-2,2.988-2,4.895c0,3.866,3.134,7,7,7
		s7-3.134,7-7C-584.124,216.51-584.888,214.784-586.124,213.521z M-591.124,223.416c-2.757,0-5-2.243-5-5
		c0-1.313,0.508-2.554,1.429-3.495l0.571-0.583v-0.816v-17.105c0-1.654,1.346-3,3-3s3,1.346,3,3v17.105v0.816l0.571,0.583
		c0.921,0.941,1.429,2.183,1.429,3.495C-586.124,221.173-588.367,223.416-591.124,223.416z"/>
	<path d="M-590.124,215.592v-5.176h-2v5.176c-1.167,0.413-2.008,1.516-2.008,2.824c0,1.662,1.347,3.008,3.008,3.008
		c1.662,0,3.008-1.346,3.008-3.008C-588.116,217.107-588.956,216.005-590.124,215.592z M-591.124,219.424
		c-0.556,0-1.008-0.452-1.008-1.008s0.452-1.008,1.008-1.008s1.008,0.452,1.008,1.008S-590.568,219.424-591.124,219.424z"/>
</g>
<g>
	<path d="M-690.781,213.521v-17.105c0-2.762-2.238-5-5-5s-5,2.238-5,5v17.105c-1.236,1.263-2,2.988-2,4.895c0,3.866,3.134,7,7,7
		s7-3.134,7-7C-688.781,216.51-689.545,214.784-690.781,213.521z M-695.781,223.416c-2.757,0-5-2.243-5-5
		c0-1.313,0.508-2.554,1.429-3.495l0.571-0.583v-0.816v-17.105c0-1.654,1.346-3,3-3s3,1.346,3,3v17.105v0.816l0.571,0.583
		c0.921,0.941,1.429,2.183,1.429,3.495C-690.781,221.173-693.024,223.416-695.781,223.416z"/>
	<path d="M-695.781,215.408c-1.661,0-3.008,1.347-3.008,3.008c0,1.662,1.347,3.008,3.008,3.008c1.662,0,3.008-1.346,3.008-3.008
		C-692.773,216.755-694.119,215.408-695.781,215.408z M-695.781,219.424c-0.556,0-1.008-0.452-1.008-1.008s0.452-1.008,1.008-1.008
		s1.008,0.452,1.008,1.008S-695.226,219.424-695.781,219.424z"/>
</g>
<g>
	<path d="M-190.856,193.729c-2.209,0-4,1.791-4,4c0,2.21,1.791,4,4,4c2.211,0,4-1.79,4-4
		C-186.856,195.52-188.646,193.729-190.856,193.729z M-190.856,199.729c-1.103,0-2-0.897-2-2s0.897-2,2-2s2,0.897,2,2
		S-189.754,199.729-190.856,199.729z"/>
	<path d="M-176.856,221.729c-4.41,0-7.999-3.589-7.999-7.999v-4.002c0-4.41,3.589-7.999,7.999-7.999
		c2.715,0,5.115,1.362,6.563,3.437l1.43-1.43c-1.824-2.429-4.72-4.007-7.992-4.007c-5.522,0-9.999,4.478-9.999,9.999v4.002
		c0,5.521,4.477,9.999,9.999,9.999c3.272,0,6.168-1.579,7.992-4.008l-1.43-1.43C-171.74,220.365-174.141,221.729-176.856,221.729z"
		/>
</g>
<g>
	<path d="M-86.16,193.607c-2.209,0-4,1.791-4,4c0,2.21,1.791,4,4,4c2.211,0,4-1.79,4-4C-82.16,195.398-83.949,193.607-86.16,193.607
		z M-86.16,199.607c-1.103,0-2-0.897-2-2s0.897-2,2-2s2,0.897,2,2S-85.058,199.607-86.16,199.607z"/>
	<polygon points="-66.285,201.729 -66.285,199.729 -78.285,199.729 -80.285,199.729 -80.285,223.729 -78.285,223.729 
		-78.285,211.729 -70.285,211.729 -70.285,209.729 -78.285,209.729 -78.285,201.729 	"/>
</g>
<g>
	<path d="M24.926,197.42c-7.179,0-13,5.82-13,13s5.821,13,13,13s13-5.82,13-13S32.104,197.42,24.926,197.42z M24.926,221.42
		c-6.065,0-11-4.935-11-11s4.935-11,11-11s11,4.935,11,11S30.991,221.42,24.926,221.42z"/>
	<path d="M20.659,214.662l6.363-2.121l2.121-6.364l-6.363,2.122L20.659,214.662z M24.361,209.88l1.62-0.54l-0.54,1.62l-1.62,0.54
		L24.361,209.88z"/>
</g>
<g>
	<path d="M-695.781,287.938c-7.179,0-13,5.82-13,13s5.821,13,13,13s13-5.82,13-13S-688.603,287.938-695.781,287.938z
		 M-695.781,311.938c-6.065,0-11-4.934-11-11c0-6.064,4.935-11,11-11s11,4.936,11,11
		C-684.781,307.004-689.716,311.938-695.781,311.938z"/>
	<path d="M-693.22,299.359l-2.586-4.422l-2.529,4.33h0.007c-0.299,0.467-0.478,1.018-0.478,1.613c0,1.656,1.343,3,3,3s3-1.344,3-3
		c0-0.559-0.162-1.074-0.428-1.521H-693.22z M-695.806,301.881c-0.552,0-1-0.449-1-1c0-0.188,0.055-0.367,0.162-0.535l0.864-1.355
		l0.826,1.391c0.098,0.164,0.147,0.332,0.147,0.5C-694.806,301.432-695.254,301.881-695.806,301.881z"/>
</g>
<g>
	<path d="M-590.997,287.938c-7.18,0-13,5.82-13,13s5.82,13,13,13s13-5.82,13-13S-583.817,287.938-590.997,287.938z
		 M-590.997,311.938c-6.065,0-11-4.934-11-11c0-6.064,4.935-11,11-11s11,4.936,11,11
		C-579.997,307.004-584.932,311.938-590.997,311.938z"/>
	<path d="M-589.408,298.357c-0.467-0.299-1.018-0.477-1.613-0.477c-1.658,0-3,1.342-3,3c0,1.656,1.342,3,3,3
		c0.557,0,1.072-0.162,1.52-0.428v0.014l4.422-2.586l-4.328-2.529V298.357z M-590.523,301.732c-0.164,0.098-0.332,0.148-0.498,0.148
		c-0.552,0-1-0.449-1-1c0-0.553,0.448-1,1-1c0.188,0,0.368,0.053,0.535,0.16l1.355,0.865L-590.523,301.732z"/>
</g>
<g>
	<path d="M-487.946,287.938c-7.18,0-13,5.82-13,13s5.82,13,13,13s13-5.82,13-13S-480.767,287.938-487.946,287.938z
		 M-487.946,311.938c-6.065,0-11-4.934-11-11c0-6.064,4.935-11,11-11s11,4.936,11,11
		C-476.946,307.004-481.881,311.938-487.946,311.938z"/>
	<path d="M-487.946,297.881c-1.656,0-3,1.342-3,3c0,0.557,0.162,1.072,0.428,1.52h-0.014l2.586,4.422l2.529-4.328h-0.006
		c0.299-0.467,0.477-1.018,0.477-1.613C-484.946,299.223-486.288,297.881-487.946,297.881z M-487.107,301.416l-0.865,1.355
		l-0.826-1.393c-0.098-0.164-0.147-0.332-0.147-0.498c0-0.553,0.448-1,1-1s1,0.447,1,1
		C-486.946,301.068-487,301.248-487.107,301.416z"/>
</g>
<g>
	<path d="M-384.532,287.938c-7.179,0-13,5.82-13,13s5.821,13,13,13s13-5.82,13-13S-377.354,287.938-384.532,287.938z
		 M-384.532,311.938c-6.065,0-11-4.934-11-11c0-6.064,4.935-11,11-11s11,4.936,11,11
		C-373.532,307.004-378.467,311.938-384.532,311.938z"/>
	<path d="M-384.573,297.881c-0.557,0-1.072,0.162-1.52,0.428v-0.014l-4.422,2.586l4.328,2.529v-0.006
		c0.467,0.299,1.018,0.477,1.613,0.477c1.658,0,3-1.342,3-3C-381.573,299.225-382.915,297.881-384.573,297.881z M-384.573,301.881
		c-0.188,0-0.368-0.055-0.535-0.162l-1.355-0.865l1.393-0.826c0.164-0.098,0.332-0.146,0.498-0.146c0.552,0,1,0.447,1,1
		C-383.573,301.432-384.021,301.881-384.573,301.881z"/>
</g>
<g>
	<rect x="-592.684" y="91.209" width="2" height="10"/>
	<rect x="-577.984" y="97.295" transform="matrix(0.7071 0.7071 -0.7071 0.7071 -96.5166 438.0106)" width="2" height="10.409"/>
	<rect x="-611.593" y="101.505" transform="matrix(0.7071 0.7071 -0.7071 0.7071 -105.1254 458.804)" width="10.409" height="2"/>
	<polygon points="-598.352,120.463 -596.938,121.877 -592.684,117.623 -592.684,127.209 -590.684,127.209 -590.684,117.623 
		-586.431,121.877 -585.017,120.463 -591.684,113.795 	"/>
	<path d="M-578.677,117.208c0-0.002,0-0.004,0-0.006c0-7.18-5.82-12.999-13-12.999s-13,5.819-13,12.999c0,0.002,0,0.004,0,0.006h-13
		v2h18v-2h-3c0-0.002,0-0.004,0-0.006c0-6.064,4.935-10.999,11-10.999s11,4.935,11,10.999c0,0.002,0,0.004,0,0.006h-3v2h17.995v-2
		H-578.677z"/>
</g>
<g>
	<rect x="-488.938" y="90.021" width="2" height="10"/>
	<rect x="-474.239" y="96.107" transform="matrix(0.7071 0.7071 -0.7071 0.7071 -66.97 364.304)" width="2" height="10.409"/>
	<rect x="-507.848" y="100.317" transform="matrix(0.7071 0.7071 -0.7071 0.7071 -75.5789 385.0974)" width="10.409" height="2"/>
	<polygon points="-486.938,124.568 -486.938,114.021 -488.938,114.021 -488.938,124.568 -493.192,120.314 -494.606,121.729 
		-487.938,128.396 -481.271,121.729 -482.686,120.314 	"/>
	<path d="M-474.932,116.021c0-0.002,0-0.004,0-0.006c0-7.18-5.82-12.999-13-12.999s-13,5.819-13,12.999c0,0.002,0,0.004,0,0.006h-13
		v2h22v-2h-7c0-0.002,0-0.004,0-0.006c0-6.064,4.935-10.999,11-10.999s11,4.935,11,10.999c0,0.002,0,0.004,0,0.006h-7v2h21.995v-2
		H-474.932z"/>
</g>
<g>
	<polygon points="-284.581,124.034 -284.581,109.651 -286.581,109.651 -286.581,124.034 -290.835,119.78 -292.249,121.194 
		-285.581,127.862 -278.914,121.194 -280.328,119.78 	"/>
	<path d="M-268.953,104.681c-1.596-7.445-8.207-13.029-16.127-13.029c-6.423,0-11.977,3.678-14.702,9.035
		c-0.266-0.018-0.53-0.04-0.8-0.04c-6.627,0-11.999,5.372-11.999,12c0,6.607,5.34,11.965,11.938,11.998v0.003h6.062v-2h-5.604
		l-0.447-0.003c-5.485-0.027-9.948-4.513-9.948-9.998c0-5.514,4.485-10,9.999-10c0.175,0,0.347,0.014,0.52,0.025l0.148,0.01
		l1.316,0.088l0.598-1.176c2.492-4.899,7.443-7.942,12.92-7.942c6.79,0,12.75,4.814,14.172,11.448l0.317,1.482l1.514,0.095
		c4.203,0.262,7.496,3.763,7.496,7.971c0,4.397-3.565,7.977-7.957,8c-0.05-0.003-0.093-0.005-0.137-0.007l-2.043,0.007h-4.863v2
		h6.863v-0.007c0.046,0.001,0.091,0.007,0.137,0.007c5.521,0,10-4.477,10-10C-259.581,109.337-263.726,105.006-268.953,104.681z"/>
</g>
<g>
	<polygon points="-378.597,120.839 -377.183,119.425 -383.85,112.757 -390.518,119.425 -389.104,120.839 -384.85,116.585 
		-384.85,129.171 -382.85,129.171 -382.85,116.585 	"/>
	<path d="M-367.222,106.276c-1.596-7.445-8.207-13.029-16.127-13.029c-6.423,0-11.977,3.678-14.702,9.035
		c-0.266-0.018-0.53-0.04-0.8-0.04c-6.627,0-11.999,5.372-11.999,12c0,6.607,5.34,11.965,11.938,11.998v0.003h10.062v-2h-9.604
		l-0.447-0.003c-5.485-0.027-9.948-4.513-9.948-9.998c0-5.514,4.485-10,9.999-10c0.175,0,0.347,0.014,0.52,0.025l0.148,0.01
		l1.316,0.088l0.598-1.176c2.492-4.899,7.443-7.942,12.92-7.942c6.79,0,12.75,4.814,14.172,11.448l0.317,1.482l1.514,0.095
		c4.203,0.262,7.496,3.763,7.496,7.971c0,4.397-3.565,7.977-7.957,8c-0.05-0.003-0.093-0.005-0.137-0.007l-2.043,0.007h-8.863v2
		h10.863v-0.007c0.046,0.001,0.091,0.007,0.137,0.007c5.521,0,10-4.477,10-10C-357.85,110.933-361.994,106.602-367.222,106.276z"/>
</g>
<g>
	<path d="M-164.732-83.239c-1.596-7.445-8.207-13.029-16.127-13.029c-6.423,0-11.977,3.678-14.702,9.035
		c-0.266-0.018-0.53-0.04-0.8-0.04c-6.627,0-11.999,5.372-11.999,12c0,6.607,5.34,11.965,11.938,11.998v0.003h2.062v-2h-1.604
		l-0.447-0.003c-5.485-0.027-9.948-4.513-9.948-9.998c0-5.514,4.485-10,9.999-10c0.175,0,0.347,0.014,0.52,0.025l0.148,0.01
		l1.316,0.088l0.598-1.176c2.492-4.899,7.443-7.942,12.92-7.942c6.79,0,12.75,4.814,14.172,11.448l0.317,1.482l1.514,0.095
		c4.203,0.262,7.496,3.763,7.496,7.971c0,4.397-3.565,7.977-7.957,8c-0.05-0.003-0.093-0.005-0.137-0.007l-2.043,0.007h-0.863v2
		h2.863v-0.007c0.046,0.001,0.091,0.007,0.137,0.007c5.521,0,10-4.477,10-10C-155.36-78.583-159.505-82.914-164.732-83.239z"/>
	<polygon points="-186.36,-64.251 -186.36,-66.881 -184.188,-65.658 -183.502,-66.879 -185.972,-68.269 -183.502,-69.658 
		-184.188,-70.879 -186.36,-69.656 -186.36,-72.251 -188.36,-72.251 -188.36,-69.612 -190.611,-70.879 -191.297,-69.658 
		-188.827,-68.269 -191.297,-66.879 -190.611,-65.658 -188.36,-66.925 -188.36,-64.251 	"/>
	<polygon points="-181.198,-59.896 -183.371,-58.674 -183.371,-61.269 -185.371,-61.269 -185.371,-58.63 -187.622,-59.896 
		-188.308,-58.676 -185.838,-57.286 -188.308,-55.896 -187.622,-54.676 -185.371,-55.942 -185.371,-53.269 -183.371,-53.269 
		-183.371,-55.898 -181.198,-54.676 -180.513,-55.896 -182.982,-57.286 -180.513,-58.676 	"/>
	<polygon points="-172.183,-66.879 -174.355,-65.656 -174.355,-68.251 -176.355,-68.251 -176.355,-65.612 -178.606,-66.879 
		-179.292,-65.658 -176.822,-64.269 -179.292,-62.879 -178.606,-61.658 -176.355,-62.925 -176.355,-60.251 -174.355,-60.251 
		-174.355,-62.881 -172.183,-61.658 -171.497,-62.879 -173.967,-64.269 -171.497,-65.658 	"/>
</g>
<g>
	<rect x="-89.221" y="-101.291" width="2" height="7.973"/>
	<rect x="-108.221" y="-82.377" width="7.973" height="2"/>
	<rect x="-103.548" y="-93.643" transform="matrix(0.7071 0.7071 -0.7071 0.7071 -94.6695 43.2653)" width="7.974" height="2"/>
	<rect x="-78.039" y="-96.625" transform="matrix(0.7071 0.7071 -0.7071 0.7071 -88.0703 27.3413)" width="2" height="7.972"/>
	<path d="M-58.709-75.501c-1.444-6.742-7.433-11.8-14.605-11.8c-2.185,0-4.258,0.471-6.127,1.314
		c-1.666-3.203-5.006-5.395-8.865-5.395c-5.522,0-10,4.477-10,9.999c0,2.46,0.899,4.702,2.373,6.442
		c-1.428,1.84-2.287,4.144-2.287,6.653c0,5.983,4.836,10.836,10.813,10.865v0.003h1.188v-2h-0.721l-0.457-0.003
		c-4.864-0.023-8.822-4.001-8.822-8.865c0-4.89,3.978-8.868,8.867-8.868c0.15,0,0.299,0.012,0.447,0.022l0.148,0.01l1.314,0.085
		l0.597-1.175c2.225-4.372,6.644-7.089,11.532-7.089c6.062,0,11.382,4.298,12.649,10.219l0.318,1.483l1.514,0.094
		c3.708,0.23,6.612,3.319,6.612,7.03c0,3.878-3.144,7.035-7.017,7.057c-0.042-0.003-0.079-0.005-0.117-0.005l-1.866,0.005v2h1.819
		v-0.006c0.042,0.001,0.082,0.006,0.124,0.006c5.001,0,9.057-4.054,9.057-9.057C-50.221-71.284-53.975-75.206-58.709-75.501z
		 M-86.629-79.118c-0.241-0.016-0.48-0.036-0.725-0.036c-2.766,0-5.282,1.041-7.2,2.742c-1.092-1.365-1.753-3.089-1.753-4.97
		c0-4.41,3.589-7.999,8-7.999c3.092,0,5.76,1.773,7.091,4.346C-83.514-83.596-85.393-81.548-86.629-79.118z"/>
	<polygon points="-79.229,-58.398 -79.229,-61.028 -77.056,-59.806 -76.37,-61.026 -78.84,-62.416 -76.37,-63.806 -77.056,-65.026 
		-79.229,-63.804 -79.229,-66.398 -81.229,-66.398 -81.229,-63.76 -83.479,-65.026 -84.165,-63.806 -81.695,-62.416 
		-84.165,-61.026 -83.479,-59.806 -81.229,-61.072 -81.229,-58.398 	"/>
	<polygon points="-74.066,-54.044 -76.239,-52.821 -76.239,-55.416 -78.239,-55.416 -78.239,-52.777 -80.49,-54.044 
		-81.176,-52.823 -78.706,-51.434 -81.176,-50.044 -80.49,-48.823 -78.239,-50.09 -78.239,-47.416 -76.239,-47.416 -76.239,-50.046 
		-74.066,-48.823 -73.381,-50.044 -75.851,-51.434 -73.381,-52.823 	"/>
	<polygon points="-65.051,-61.026 -67.224,-59.804 -67.224,-62.398 -69.224,-62.398 -69.224,-59.76 -71.475,-61.026 -72.16,-59.806 
		-69.69,-58.416 -72.16,-57.026 -71.475,-55.806 -69.224,-57.072 -69.224,-54.398 -67.224,-54.398 -67.224,-57.028 -65.051,-55.806 
		-64.365,-57.026 -66.835,-58.416 -64.365,-59.806 	"/>
</g>
<g>
	<path d="M41.479-78.504c-1.444-6.742-7.433-11.8-14.605-11.8c-1.799,0-3.522,0.32-5.118,0.904c-0.949-5.108-5.404-8.98-10.788-8.98
		c-0.413,0-0.819,0.027-1.222,0.071c0.744,1.112,1.179,2.448,1.179,3.886c0,3.865-3.134,7-7,7c-1.438,0-2.773-0.435-3.886-1.179
		c-0.044,0.401-0.071,0.809-0.071,1.222c0,3.713,1.845,6.987,4.661,8.979c-1.653,1.907-2.661,4.389-2.661,7.111
		c0,5.983,4.836,10.836,10.813,10.865v0.003h1.188v-2h-0.721l-0.457-0.003c-4.864-0.023-8.822-4.001-8.822-8.865
		c0-4.89,3.978-8.868,8.867-8.868c0.15,0,0.299,0.012,0.447,0.022l0.148,0.01l1.314,0.085l0.597-1.175
		c2.225-4.372,6.644-7.089,11.532-7.089c6.062,0,11.382,4.298,12.649,10.219l0.318,1.483l1.514,0.094
		c3.708,0.23,6.612,3.319,6.612,7.03c0,3.878-3.144,7.035-7.017,7.057c-0.042-0.003-0.079-0.005-0.117-0.005l-1.866,0.005v2h1.819
		v-0.006c0.042,0.001,0.082,0.006,0.124,0.006c5.001,0,9.057-4.054,9.057-9.057C49.968-74.287,46.214-78.209,41.479-78.504z
		 M13.56-82.121c-0.241-0.016-0.48-0.036-0.725-0.036c-2.537,0-4.865,0.877-6.715,2.334c-2.012-1.294-3.486-3.354-3.976-5.776
		c0.582,0.117,1.178,0.177,1.78,0.177c4.963,0,9-4.037,9-9c0-0.603-0.06-1.198-0.177-1.78c3.733,0.753,6.629,3.824,7.134,7.64
		C17.169-87.119,14.954-84.864,13.56-82.121z"/>
	<polygon points="21.005,-61.401 21.005,-64.031 23.178,-62.809 23.863,-64.029 21.394,-65.419 23.863,-66.809 23.178,-68.029 
		21.005,-66.807 21.005,-69.401 19.005,-69.401 19.005,-66.763 16.754,-68.029 16.068,-66.809 18.538,-65.419 16.068,-64.029 
		16.754,-62.809 19.005,-64.075 19.005,-61.401 	"/>
	<polygon points="26.167,-57.047 23.994,-55.824 23.994,-58.419 21.994,-58.419 21.994,-55.78 19.743,-57.047 19.058,-55.826 
		21.527,-54.437 19.058,-53.047 19.743,-51.826 21.994,-53.093 21.994,-50.419 23.994,-50.419 23.994,-53.049 26.167,-51.826 
		26.853,-53.047 24.383,-54.437 26.853,-55.826 	"/>
	<polygon points="35.183,-64.029 33.01,-62.807 33.01,-65.401 31.01,-65.401 31.01,-62.763 28.759,-64.029 28.073,-62.809 
		30.543,-61.419 28.073,-60.029 28.759,-58.809 31.01,-60.075 31.01,-57.401 33.01,-57.401 33.01,-60.031 35.183,-58.809 
		35.868,-60.029 33.398,-61.419 35.868,-62.809 	"/>
</g>
<rect x="-574.879" y="-646.254" fill="none" width="472.974" height="180.918"/>
<text transform="matrix(1 0 0 1 -395.2417 -574.855)"><tspan x="0" y="0" font-family="'HelveticaNeueLTStd-Th'" font-size="100" letter-spacing="2">60</tspan><tspan x="-99.268" y="60" font-family="'HelveticaNeueLTStd-Lt'" font-size="48" letter-spacing="1">Weather Icons</tspan><tspan x="-3.726" y="104" font-family="'HelveticaNeueLTStd-Lt'" font-size="24">IOS 7 Style</tspan></text>
</svg>
