<?xml version="1.0" encoding="utf-8"?>
<!-- Generator: Adobe Illustrator 16.0.0, SVG Export Plug-In . SVG Version: 6.00 Build 0)  -->
<!DOCTYPE svg PUBLIC "-//W3C//DTD SVG 1.1//EN" "http://www.w3.org/Graphics/SVG/1.1/DTD/svg11.dtd">
<svg version="1.1" id="Layer_1" xmlns="http://www.w3.org/2000/svg" xmlns:xlink="http://www.w3.org/1999/xlink" x="0px" y="0px"
	 width="48px" height="28px" viewBox="0 0 48 28" enable-background="new 0 0 48 28" xml:space="preserve">
<path d="M645.371-3.298l-1.803,15.077l-0.268,2.237h2.254h6.896l-14.693,18.759l1.789-14.52l0.277-2.245h-2.262h-6.957
	L645.371-3.298 M648.226-10.322l-21.667,28.333h11.004l-2.671,21.667l21.667-27.661h-11.004L648.226-10.322L648.226-10.322z"/>
<path d="M232.336-465.559c6.79,0,12.749,4.814,14.171,11.448l0.318,1.483l1.514,0.094c4.203,0.262,7.496,3.763,7.496,7.971
	c0,4.396-3.565,7.977-7.957,8c-0.046-0.003-0.091-0.006-0.137-0.007l-2.043-0.036v0.043h-28.337l-0.578-0.003
	c-5.485-0.027-9.948-4.513-9.948-9.998c0-5.514,4.485-10,9.999-10c0.175,0,0.347,0.014,0.519,0.025l0.149,0.011l1.316,0.087
	l0.598-1.176C221.909-462.516,226.859-465.559,232.336-465.559 M232.336-467.559c-6.423,0-11.977,3.678-14.702,9.035
	c-0.266-0.018-0.53-0.04-0.8-0.04c-6.627,0-11.999,5.372-11.999,12c0,6.607,5.34,11.965,11.938,11.998v0.003h30.925v-0.007
	c0.046,0.001,0.091,0.007,0.137,0.007c5.521,0,10-4.477,10-10c0-5.311-4.145-9.642-9.372-9.967
	C246.867-461.975,240.256-467.559,232.336-467.559L232.336-467.559z"/>
<g>
	<path d="M355.287-447.147c-1.444-6.742-7.433-11.8-14.605-11.8c-2.185,0-4.258,0.47-6.127,1.313
		c-1.666-3.202-5.006-5.394-8.865-5.394c-5.522,0-10,4.477-10,9.999c0,2.46,0.898,4.702,2.373,6.442
		c-1.428,1.84-2.287,4.144-2.287,6.653c0,5.983,4.836,10.836,10.813,10.865v0.003h28.007v-0.006
		c0.042,0.001,0.082,0.006,0.124,0.006c5.001,0,9.057-4.054,9.057-9.057C363.775-442.931,360.021-446.853,355.287-447.147z
		 M325.689-461.027c3.092,0,5.76,1.773,7.092,4.345c-2.299,1.44-4.178,3.488-5.414,5.918c-0.241-0.016-0.48-0.036-0.725-0.036
		c-2.766,0-5.281,1.041-7.2,2.743c-1.092-1.366-1.753-3.09-1.753-4.971C317.689-457.438,321.278-461.027,325.689-461.027z
		 M354.759-431.064c-0.038-0.003-0.077-0.004-0.117-0.005l-2.047-0.042v0.047h-25.403l-0.594-0.003
		c-4.864-0.023-8.822-4.001-8.822-8.865c0-4.89,3.978-8.868,8.867-8.868c0.15,0,0.299,0.012,0.447,0.021l0.148,0.011l1.314,0.085
		l0.598-1.174c2.224-4.373,6.643-7.09,11.531-7.09c6.062,0,11.381,4.298,12.65,10.219l0.317,1.482l1.514,0.095
		c3.708,0.231,6.612,3.319,6.612,7.03C361.775-434.243,358.632-431.087,354.759-431.064z"/>
	<rect x="324.695" y="-473.058" width="2" height="7.973"/>
	<rect x="305.723" y="-454.071" width="7.973" height="2"/>
	<rect x="310.448" y="-465.29" transform="matrix(0.7071 0.7071 -0.7071 0.7071 -236.2066 -358.3269)" width="7.974" height="2"/>
	<rect x="335.957" y="-468.272" transform="matrix(0.7071 0.7071 -0.7071 0.7071 -229.6074 -374.2509)" width="2" height="7.972"/>
</g>
<path d="M451.03-451.175c-1.444-6.742-7.433-11.8-14.605-11.8c-1.799,0-3.521,0.32-5.118,0.904c-0.949-5.108-5.404-8.98-10.788-8.98
	c-0.413,0-0.819,0.027-1.222,0.071c0.744,1.112,1.179,2.448,1.179,3.886c0,3.865-3.134,7-7,7c-1.438,0-2.773-0.435-3.886-1.179
	c-0.044,0.401-0.071,0.809-0.071,1.222c0,3.712,1.845,6.987,4.661,8.979c-1.653,1.907-2.661,4.389-2.661,7.111
	c0,5.983,4.836,10.836,10.813,10.865v0.003h28.007v-0.006c0.042,0.001,0.082,0.006,0.124,0.006c5.001,0,9.057-4.054,9.057-9.057
	C459.519-446.958,455.765-450.88,451.03-451.175z M411.695-458.271c0.582,0.117,1.178,0.177,1.78,0.177c4.963,0,9-4.037,9-9
	c0-0.603-0.06-1.198-0.177-1.78c3.733,0.753,6.629,3.824,7.134,7.64c-2.713,1.444-4.928,3.699-6.322,6.442
	c-0.241-0.016-0.48-0.036-0.725-0.036c-2.537,0-4.865,0.876-6.715,2.334C413.659-453.788,412.185-455.848,411.695-458.271z
	 M450.502-435.092c-0.038-0.003-0.077-0.004-0.117-0.005l-2.047-0.042v0.047h-25.403l-0.594-0.003
	c-4.864-0.023-8.822-4.001-8.822-8.865c0-4.89,3.978-8.868,8.867-8.868c0.15,0,0.299,0.012,0.447,0.021l0.148,0.011l1.314,0.085
	l0.598-1.174c2.224-4.373,6.643-7.09,11.531-7.09c6.062,0,11.381,4.298,12.65,10.219l0.317,1.482l1.514,0.095
	c3.708,0.231,6.612,3.319,6.612,7.03C457.519-438.271,454.375-435.114,450.502-435.092z"/>
<g>
	<rect x="535.676" y="-442.552" width="2" height="7"/>
	<rect x="543.676" y="-446.552" width="2" height="7"/>
	<rect x="527.676" y="-446.552" width="2" height="7"/>
	<rect x="535.676" y="-432.552" width="2" height="7"/>
	<rect x="543.676" y="-436.552" width="2" height="7"/>
	<rect x="527.676" y="-436.552" width="2" height="7"/>
	<path d="M554.304-459.54c-1.596-7.445-8.207-13.029-16.127-13.029c-6.423,0-11.977,3.678-14.702,9.035
		c-0.266-0.018-0.53-0.04-0.8-0.04c-6.627,0-11.999,5.372-11.999,12c0,6.607,5.34,11.965,11.938,11.998v0.003h2.062v-2h-1.604
		l-0.447-0.003c-5.485-0.027-9.948-4.513-9.948-9.998c0-5.514,4.485-10,9.999-10c0.175,0,0.347,0.014,0.52,0.025l0.148,0.01
		l1.316,0.088l0.598-1.176c2.492-4.899,7.443-7.942,12.92-7.942c6.79,0,12.75,4.814,14.172,11.448l0.317,1.482l1.514,0.095
		c4.203,0.262,7.496,3.763,7.496,7.971c0,4.397-3.565,7.977-7.957,8c-0.05-0.003-0.093-0.005-0.137-0.007l-2.043,0.007h-2.863v2
		h4.863v-0.007c0.046,0.001,0.091,0.007,0.137,0.007c5.521,0,10-4.477,10-10C563.676-454.884,559.531-459.215,554.304-459.54z"/>
</g>
<g>
	<path d="M351.877-370.183c-1.596-7.445-8.207-13.029-16.127-13.029c-6.423,0-11.977,3.678-14.702,9.035
		c-0.266-0.018-0.53-0.04-0.8-0.04c-6.627,0-11.999,5.372-11.999,12c0,6.607,5.34,11.965,11.938,11.998v0.003h2.062v-2h-1.604
		l-0.447-0.003c-5.485-0.027-9.948-4.513-9.948-9.998c0-5.514,4.485-10,9.999-10c0.175,0,0.347,0.014,0.52,0.025l0.148,0.01
		l1.316,0.088l0.598-1.176c2.492-4.899,7.443-7.942,12.92-7.942c6.79,0,12.75,4.814,14.172,11.448l0.317,1.482l1.514,0.095
		c4.203,0.262,7.496,3.763,7.496,7.971c0,4.397-3.565,7.977-7.957,8c-0.05-0.003-0.093-0.005-0.137-0.007l-2.043,0.007h-2.863v2
		h4.863v-0.007c0.046,0.001,0.091,0.007,0.137,0.007c5.521,0,10-4.477,10-10C361.249-365.526,357.104-369.857,351.877-370.183z"/>
	<polygon points="333.249,-343.188 333.249,-341.247 333.249,-335.188 335.249,-335.188 335.249,-341.247 335.249,-343.188 
		335.249,-355.188 333.249,-355.188 	"/>
	<polygon points="341.249,-347.188 341.249,-345.435 341.249,-339.188 343.249,-339.188 343.249,-345.435 343.249,-347.188 
		343.249,-359.188 341.249,-359.188 	"/>
	<polygon points="325.249,-347.188 325.249,-345.122 325.249,-339.188 327.249,-339.188 327.249,-345.122 327.249,-347.188 
		327.249,-359.188 325.249,-359.188 	"/>
</g>
<g>
	<polygon points="647.526,-346.276 640.644,-356.106 639.006,-354.959 645.889,-345.129 647.001,-343.54 650.477,-338.576 
		652.115,-339.723 648.64,-344.688 	"/>
	<polygon points="655.528,-346.278 648.644,-356.106 647.006,-354.958 653.892,-345.13 654.896,-343.694 658.48,-338.579 
		660.119,-339.726 656.535,-344.842 	"/>
	<polygon points="639.526,-346.276 632.644,-356.106 631.006,-354.958 637.889,-345.129 639.073,-343.437 642.478,-338.575 
		644.115,-339.723 640.712,-344.584 	"/>
	<path d="M658.634-369.916c-1.596-7.445-8.207-13.029-16.127-13.029c-6.423,0-11.977,3.678-14.702,9.035
		c-0.266-0.018-0.53-0.04-0.8-0.04c-6.627,0-11.999,5.372-11.999,12c0,6.607,5.34,11.965,11.938,11.998v0.003h2.062v-2h-1.604
		l-0.447-0.003c-5.485-0.027-9.948-4.513-9.948-9.998c0-5.514,4.485-10,9.999-10c0.175,0,0.347,0.014,0.52,0.025l0.148,0.01
		l1.316,0.088l0.598-1.176c2.492-4.899,7.443-7.942,12.92-7.942c6.79,0,12.75,4.814,14.172,11.448l0.317,1.482l1.514,0.095
		c4.203,0.262,7.496,3.763,7.496,7.971c0,4.397-3.565,7.977-7.957,8c-0.05-0.003-0.093-0.005-0.137-0.007l-1.043,0.007h0.137v2
		h0.863v-0.007c0.046,0.001,0.091,0.007,0.137,0.007c5.521,0,10-4.477,10-10C668.006-365.26,663.861-369.591,658.634-369.916z"/>
</g>
<g>
	<rect x="630.332" y="-478.998" width="2" height="7.973"/>
	<rect x="611.332" y="-460.084" width="7.973" height="2"/>
	<rect x="616.005" y="-471.35" transform="matrix(0.7071 0.7071 -0.7071 0.7071 -150.9966 -576.1632)" width="7.974" height="2"/>
	<rect x="641.514" y="-474.332" transform="matrix(0.7071 0.7071 -0.7071 0.7071 -144.3975 -592.0872)" width="2" height="7.972"/>
	<rect x="644.332" y="-438.125" width="2" height="7"/>
	<rect x="652.332" y="-442.125" width="2" height="7"/>
	<rect x="636.332" y="-442.125" width="2" height="7"/>
	<rect x="644.332" y="-428.125" width="2" height="7"/>
	<rect x="652.332" y="-432.125" width="2" height="7"/>
	<rect x="636.332" y="-432.125" width="2" height="7"/>
	<path d="M660.844-453.208c-1.444-6.742-7.433-11.8-14.605-11.8c-2.185,0-4.258,0.47-6.126,1.313
		c-1.667-3.202-5.007-5.394-8.866-5.394c-5.522,0-10,4.477-10,9.999c0,2.46,0.899,4.702,2.373,6.442
		c-1.429,1.84-2.287,4.144-2.287,6.653c0,5.983,4.836,10.836,10.813,10.865v0.003h1.188v-2h-0.721l-0.457-0.003
		c-4.864-0.023-8.822-4.001-8.822-8.865c0-4.89,3.978-8.868,8.867-8.868c0.15,0,0.299,0.012,0.447,0.022l0.148,0.01l1.314,0.085
		l0.597-1.175c2.225-4.372,6.644-7.089,11.532-7.089c6.062,0,11.382,4.298,12.649,10.219l0.318,1.483l1.514,0.094
		c3.708,0.23,6.612,3.319,6.612,7.03c0,3.878-3.144,7.035-7.017,7.057c-0.042-0.003-0.079-0.005-0.117-0.005l-2.047,0.005h-0.819v2
		h2.819v-0.006c0.042,0.001,0.082,0.006,0.124,0.006c5.001,0,9.057-4.054,9.057-9.057
		C669.332-448.991,665.578-452.913,660.844-453.208z M632.924-456.825c-0.241-0.016-0.48-0.036-0.725-0.036
		c-2.766,0-5.282,1.041-7.2,2.743c-1.092-1.366-1.753-3.09-1.753-4.971c0-4.41,3.589-7.999,8-7.999c3.091,0,5.76,1.773,7.091,4.345
		C636.039-461.303,634.159-459.255,632.924-456.825z"/>
</g>
<g>
	<rect x="744.749" y="-439.572" width="2" height="7"/>
	<rect x="752.749" y="-443.572" width="2" height="7"/>
	<rect x="736.749" y="-443.572" width="2" height="7"/>
	<rect x="744.749" y="-429.572" width="2" height="7"/>
	<rect x="752.749" y="-433.572" width="2" height="7"/>
	<rect x="736.749" y="-433.572" width="2" height="7"/>
	<path d="M761.261-454.655c-1.444-6.742-7.433-11.8-14.605-11.8c-1.799,0-3.522,0.32-5.118,0.904
		c-0.949-5.108-5.404-8.98-10.788-8.98c-0.413,0-0.819,0.027-1.222,0.071c0.744,1.112,1.179,2.448,1.179,3.886c0,3.865-3.134,7-7,7
		c-1.438,0-2.773-0.435-3.886-1.179c-0.044,0.401-0.071,0.809-0.071,1.222c0,3.712,1.845,6.987,4.661,8.979
		c-1.653,1.907-2.661,4.389-2.661,7.111c0,5.983,4.836,10.836,10.813,10.865v0.003h1.188v-2h-0.721l-0.457-0.003
		c-4.864-0.023-8.822-4.001-8.822-8.865c0-4.89,3.978-8.868,8.867-8.868c0.15,0,0.299,0.012,0.447,0.022l0.148,0.01l1.314,0.085
		l0.597-1.175c2.225-4.372,6.644-7.089,11.532-7.089c6.062,0,11.382,4.298,12.649,10.219l0.318,1.483l1.514,0.094
		c3.708,0.23,6.612,3.319,6.612,7.03c0,3.878-3.144,7.035-7.017,7.057c-0.042-0.003-0.079-0.005-0.117-0.005l-2.047,0.005h-0.819v2
		h2.819v-0.006c0.042,0.001,0.082,0.006,0.124,0.006c5.001,0,9.057-4.054,9.057-9.057
		C769.749-450.438,765.995-454.36,761.261-454.655z M733.341-458.272c-0.241-0.016-0.48-0.036-0.725-0.036
		c-2.537,0-4.865,0.876-6.715,2.334c-2.012-1.294-3.487-3.354-3.976-5.776c0.582,0.117,1.178,0.177,1.78,0.177c4.963,0,9-4.037,9-9
		c0-0.603-0.06-1.198-0.177-1.78c3.733,0.753,6.629,3.824,7.133,7.64C736.951-463.271,734.736-461.016,733.341-458.272z"/>
</g>
<g>
	<polygon points="437.519,-338.749 437.519,-336.809 437.519,-330.749 439.519,-330.749 439.519,-336.809 439.519,-338.749 
		439.519,-350.749 437.519,-350.749 	"/>
	<polygon points="445.519,-342.749 445.519,-340.996 445.519,-334.749 447.519,-334.749 447.519,-340.996 447.519,-342.749 
		447.519,-354.749 445.519,-354.749 	"/>
	<polygon points="429.519,-342.749 429.519,-340.684 429.519,-334.749 431.519,-334.749 431.519,-340.684 431.519,-342.749 
		431.519,-354.749 429.519,-354.749 	"/>
	<rect x="423.519" y="-389.651" width="2" height="7.973"/>
	<rect x="404.519" y="-370.737" width="7.973" height="2"/>
	<rect x="409.192" y="-382.004" transform="matrix(0.7071 0.7071 -0.7071 0.7071 -148.3932 -403.7549)" width="7.974" height="2"/>
	<rect x="434.7" y="-384.986" transform="matrix(0.7071 0.7071 -0.7071 0.7071 -141.7941 -419.6789)" width="2" height="7.972"/>
	<path d="M454.03-363.861c-1.444-6.742-7.433-11.8-14.605-11.8c-2.185,0-4.258,0.47-6.127,1.313
		c-1.666-3.202-5.006-5.394-8.865-5.394c-5.522,0-10,4.477-10,9.999c0,2.46,0.898,4.702,2.373,6.442
		c-1.428,1.84-2.287,4.144-2.287,6.653c0,5.983,4.836,10.836,10.813,10.865v0.003h1.188v-2h-0.721l-0.457-0.003
		c-4.864-0.023-8.822-4.001-8.822-8.865c0-4.89,3.978-8.868,8.867-8.868c0.15,0,0.299,0.012,0.447,0.022l0.148,0.01l1.314,0.085
		l0.597-1.175c2.225-4.372,6.644-7.089,11.532-7.089c6.062,0,11.382,4.298,12.649,10.219l0.318,1.483l1.514,0.094
		c3.708,0.23,6.612,3.319,6.612,7.03c0,3.878-3.144,7.035-7.017,7.057c-0.042-0.003-0.079-0.005-0.117-0.005l-2.047,0.005h-0.819v2
		h2.819v-0.006c0.042,0.001,0.082,0.006,0.124,0.006c5.001,0,9.057-4.054,9.057-9.057
		C462.519-359.645,458.765-363.566,454.03-363.861z M426.11-367.479c-0.241-0.016-0.48-0.036-0.725-0.036
		c-2.766,0-5.281,1.042-7.2,2.743c-1.092-1.367-1.753-3.09-1.753-4.971c0-4.41,3.589-7.999,8-7.999c3.092,0,5.76,1.773,7.092,4.345
		C429.226-371.957,427.347-369.908,426.11-367.479z"/>
</g>
<g>
	<polygon points="537.916,-341.266 537.916,-339.325 537.916,-333.266 539.916,-333.266 539.916,-339.325 539.916,-341.266 
		539.916,-353.266 537.916,-353.266 	"/>
	<polygon points="545.916,-345.266 545.916,-343.513 545.916,-337.266 547.916,-337.266 547.916,-343.513 547.916,-345.266 
		547.916,-357.266 545.916,-357.266 	"/>
	<polygon points="529.916,-345.266 529.916,-343.2 529.916,-337.266 531.916,-337.266 531.916,-343.2 531.916,-345.266 
		531.916,-357.266 529.916,-357.266 	"/>
	<path d="M554.428-366.378c-1.444-6.742-7.433-11.8-14.605-11.8c-1.799,0-3.521,0.32-5.118,0.904
		c-0.949-5.108-5.404-8.98-10.788-8.98c-0.413,0-0.819,0.027-1.222,0.071c0.744,1.112,1.179,2.448,1.179,3.886c0,3.865-3.134,7-7,7
		c-1.438,0-2.773-0.435-3.886-1.179c-0.044,0.401-0.071,0.809-0.071,1.222c0,3.712,1.845,6.987,4.661,8.979
		c-1.653,1.907-2.661,4.389-2.661,7.111c0,5.983,4.836,10.836,10.813,10.865v0.003h1.188v-2h-0.721l-0.457-0.003
		c-4.864-0.023-8.822-4.001-8.822-8.865c0-4.89,3.978-8.868,8.867-8.868c0.15,0,0.299,0.012,0.447,0.022l0.148,0.01l1.314,0.085
		l0.597-1.175c2.225-4.372,6.644-7.089,11.532-7.089c6.062,0,11.382,4.298,12.649,10.219l0.318,1.483l1.514,0.094
		c3.708,0.23,6.612,3.319,6.612,7.03c0,3.878-3.144,7.035-7.017,7.057c-0.042-0.003-0.079-0.005-0.117-0.005l-2.047,0.005h-0.819v2
		h2.819v-0.006c0.042,0.001,0.082,0.006,0.124,0.006c5.001,0,9.057-4.054,9.057-9.057
		C562.916-362.161,559.162-366.083,554.428-366.378z M526.508-369.995c-0.241-0.016-0.48-0.036-0.725-0.036
		c-2.537,0-4.865,0.876-6.715,2.334c-2.012-1.294-3.486-3.354-3.976-5.776c0.582,0.117,1.178,0.177,1.78,0.177c4.963,0,9-4.037,9-9
		c0-0.603-0.06-1.198-0.177-1.78c3.733,0.753,6.629,3.824,7.134,7.641C530.117-374.993,527.902-372.737,526.508-369.995z"/>
</g>
<g>
	<polygon points="754.951,-340.321 748.068,-350.151 746.431,-349.004 753.313,-339.174 754.426,-337.585 757.901,-332.621 
		759.54,-333.768 756.064,-338.732 	"/>
	<polygon points="762.953,-340.323 756.068,-350.151 754.431,-349.003 761.316,-339.175 762.321,-337.739 765.905,-332.624 
		767.544,-333.771 763.96,-338.887 	"/>
	<polygon points="746.951,-340.321 740.068,-350.151 738.431,-349.003 745.313,-339.174 746.498,-337.481 749.902,-332.62 
		751.54,-333.768 748.137,-338.629 	"/>
	<rect x="734.431" y="-387.87" width="2" height="7.973"/>
	<rect x="715.431" y="-368.956" width="7.973" height="2"/>
	<rect x="720.104" y="-380.223" transform="matrix(0.7071 0.7071 -0.7071 0.7071 -56.0696 -623.0813)" width="7.974" height="2"/>
	<rect x="745.612" y="-383.204" transform="matrix(0.7071 0.7071 -0.7071 0.7071 -49.4705 -639.0052)" width="2" height="7.972"/>
	<path d="M764.942-362.08c-1.444-6.742-7.433-11.8-14.605-11.8c-2.185,0-4.258,0.47-6.126,1.313
		c-1.667-3.202-5.007-5.394-8.866-5.394c-5.522,0-10,4.477-10,9.999c0,2.46,0.899,4.702,2.373,6.442
		c-1.429,1.84-2.287,4.144-2.287,6.653c0,5.983,4.836,10.836,10.813,10.865v0.003h1.188v-2h-0.721L736.253-346
		c-4.864-0.023-8.822-4.001-8.822-8.865c0-4.89,3.978-8.868,8.867-8.868c0.15,0,0.299,0.012,0.447,0.022l0.148,0.01l1.314,0.085
		l0.597-1.175c2.225-4.372,6.644-7.089,11.532-7.089c6.062,0,11.382,4.298,12.649,10.219l0.318,1.483l1.514,0.094
		c3.708,0.23,6.612,3.319,6.612,7.03c0,3.878-3.144,7.035-7.017,7.057c-0.042-0.003-0.079-0.005-0.117-0.005l-0.047,0.005h-0.819v2
		h0.819v-0.006c0.042,0.001,0.082,0.006,0.124,0.006c5.001,0,9.057-4.054,9.057-9.057
		C773.431-357.863,769.677-361.785,764.942-362.08z M737.022-365.697c-0.241-0.016-0.48-0.036-0.725-0.036
		c-2.766,0-5.282,1.042-7.2,2.743c-1.092-1.367-1.753-3.09-1.753-4.971c0-4.41,3.589-7.999,8-7.999c3.091,0,5.76,1.773,7.091,4.345
		C740.138-370.176,738.258-368.127,737.022-365.697z"/>
</g>
<g>
	<polygon points="31.521,-243.836 24.638,-253.666 23,-252.519 29.883,-242.688 30.995,-241.1 34.471,-236.136 36.109,-237.282 
		32.634,-242.247 	"/>
	<polygon points="39.522,-243.838 32.638,-253.666 31,-252.518 37.886,-242.689 38.891,-241.254 42.475,-236.139 44.113,-237.285 
		40.529,-242.401 	"/>
	<polygon points="23.521,-243.836 16.638,-253.666 15,-252.518 21.883,-242.688 23.067,-240.996 26.472,-236.135 28.109,-237.282 
		24.706,-242.144 	"/>
	<path d="M41.512-265.595c-1.444-6.742-7.433-11.8-14.605-11.8c-1.799,0-3.522,0.32-5.118,0.904
		c-0.949-5.108-5.404-8.98-10.788-8.98c-0.413,0-0.819,0.027-1.222,0.071c0.744,1.112,1.179,2.448,1.179,3.886c0,3.865-3.134,7-7,7
		c-1.438,0-2.773-0.435-3.886-1.179C0.027-275.291,0-274.884,0-274.471c0,3.712,1.845,6.987,4.661,8.979
		C3.008-263.584,2-261.103,2-258.38c0,5.983,4.836,10.836,10.813,10.865v0.003H14v-2h-0.721l-0.457-0.003
		C7.958-249.538,4-253.516,4-258.38c0-4.89,3.978-8.868,8.867-8.868c0.15,0,0.299,0.012,0.447,0.022l0.148,0.01l1.314,0.085
		l0.597-1.175c2.225-4.372,6.644-7.089,11.532-7.089c6.062,0,11.382,4.298,12.649,10.219l0.318,1.483l1.514,0.094
		c3.708,0.23,6.612,3.319,6.612,7.03c0,3.878-3.144,7.035-7.017,7.057c-0.042-0.003-0.079-0.005-0.117-0.005l-0.047,0.005H40v2
		h0.819v-0.006c0.042,0.001,0.082,0.006,0.124,0.006c5.001,0,9.057-4.054,9.057-9.057C50-261.378,46.246-265.3,41.512-265.595z
		 M13.592-269.212c-0.241-0.016-0.48-0.036-0.725-0.036c-2.537,0-4.865,0.876-6.715,2.334c-2.012-1.294-3.487-3.354-3.976-5.776
		c0.582,0.117,1.178,0.177,1.78,0.177c4.963,0,9-4.037,9-9c0-0.603-0.06-1.198-0.177-1.78c3.733,0.753,6.629,3.824,7.133,7.641
		C17.202-274.21,14.987-271.954,13.592-269.212z"/>
</g>
<g>
	<rect x="24" y="-347.683" width="2" height="4"/>
	<rect x="32" y="-351.704" width="2" height="4.021"/>
	<rect x="16" y="-351.704" width="2" height="4.021"/>
	<path d="M42.628-367.671c-1.596-7.445-8.207-13.029-16.127-13.029c-6.423,0-11.977,3.678-14.702,9.035
		c-0.266-0.018-0.53-0.04-0.8-0.04c-6.627,0-11.999,5.372-11.999,12c0,6.607,5.34,11.965,11.938,11.998v0.003H13v-2h-1.604
		l-0.447-0.003C5.463-349.734,1-354.22,1-359.705c0-5.514,4.485-10,9.999-10c0.175,0,0.347,0.014,0.52,0.025l0.148,0.01l1.316,0.088
		l0.598-1.176c2.492-4.899,7.443-7.942,12.92-7.942c6.79,0,12.75,4.814,14.172,11.448l0.317,1.482l1.514,0.095
		c4.203,0.262,7.496,3.763,7.496,7.971c0,4.397-3.565,7.977-7.957,8c-0.05-0.003-0.093-0.005-0.137-0.007l-2.043,0.007H37v2h4.863
		v-0.007c0.046,0.001,0.091,0.007,0.137,0.007c5.521,0,10-4.477,10-10C52-363.015,47.855-367.346,42.628-367.671z"/>
	<circle cx="33" cy="-342.662" r="1.5"/>
	<circle cx="25" cy="-338.693" r="1.5"/>
	<circle cx="17" cy="-342.704" r="1.5"/>
</g>
<g>
	<rect x="116.921" y="-387.137" width="2" height="7.973"/>
	<rect x="97.921" y="-368.223" width="7.973" height="2"/>
	<rect x="102.594" y="-379.489" transform="matrix(0.7071 0.7071 -0.7071 0.7071 -236.4155 -186.2211)" width="7.974" height="2"/>
	<rect x="128.103" y="-382.471" transform="matrix(0.7071 0.7071 -0.7071 0.7071 -229.8163 -202.1451)" width="2" height="7.972"/>
	<path d="M147.433-361.347c-1.444-6.742-7.433-11.8-14.605-11.8c-2.185,0-4.258,0.47-6.126,1.313
		c-1.667-3.202-5.007-5.394-8.866-5.394c-5.522,0-10,4.477-10,9.999c0,2.46,0.899,4.702,2.373,6.442
		c-1.429,1.84-2.287,4.144-2.287,6.653c0,5.983,4.836,10.836,10.813,10.865v0.003h1.188v-2H119.2l-0.457-0.003
		c-4.864-0.023-8.822-4.001-8.822-8.865c0-4.89,3.978-8.868,8.867-8.868c0.15,0,0.299,0.012,0.447,0.022l0.148,0.01l1.314,0.085
		l0.597-1.175c2.225-4.372,6.644-7.089,11.532-7.089c6.062,0,11.382,4.298,12.649,10.219l0.318,1.483l1.514,0.094
		c3.708,0.23,6.612,3.319,6.612,7.03c0,3.878-3.144,7.035-7.017,7.057c-0.042-0.003-0.079-0.005-0.117-0.005l-2.047,0.005h-0.819v2
		h2.819v-0.006c0.042,0.001,0.082,0.006,0.124,0.006c5.001,0,9.057-4.054,9.057-9.057
		C155.921-357.13,152.167-361.052,147.433-361.347z M119.513-364.964c-0.241-0.016-0.48-0.036-0.725-0.036
		c-2.766,0-5.282,1.042-7.2,2.743c-1.092-1.367-1.753-3.09-1.753-4.971c0-4.41,3.589-7.999,8-7.999c3.091,0,5.76,1.773,7.091,4.345
		C122.628-369.442,120.748-367.394,119.513-364.964z"/>
	<rect x="130.921" y="-343.248" width="2" height="4"/>
	<rect x="138.921" y="-347.27" width="2" height="4.021"/>
	<rect x="122.921" y="-347.27" width="2" height="4.021"/>
	<circle cx="139.921" cy="-338.228" r="1.5"/>
	<circle cx="131.921" cy="-334.259" r="1.5"/>
	<circle cx="123.921" cy="-338.27" r="1.5"/>
</g>
<g>
	<path d="M248.358-362.304c-1.444-6.742-7.433-11.8-14.605-11.8c-1.799,0-3.522,0.32-5.118,0.904
		c-0.949-5.108-5.404-8.98-10.788-8.98c-0.413,0-0.819,0.027-1.222,0.071c0.744,1.112,1.179,2.448,1.179,3.886c0,3.865-3.134,7-7,7
		c-1.438,0-2.773-0.435-3.886-1.179c-0.044,0.401-0.071,0.809-0.071,1.222c0,3.712,1.845,6.987,4.661,8.979
		c-1.653,1.907-2.661,4.389-2.661,7.111c0,5.983,4.836,10.836,10.813,10.865v0.003h1.188v-2h-0.721l-0.457-0.003
		c-4.864-0.023-8.822-4.001-8.822-8.865c0-4.89,3.978-8.868,8.867-8.868c0.15,0,0.299,0.012,0.447,0.022l0.148,0.01l1.314,0.085
		l0.597-1.175c2.225-4.372,6.644-7.089,11.532-7.089c6.062,0,11.382,4.298,12.649,10.219l0.318,1.483l1.514,0.094
		c3.708,0.23,6.612,3.319,6.612,7.03c0,3.878-3.144,7.035-7.017,7.057c-0.042-0.003-0.079-0.005-0.117-0.005l-2.047,0.005h-0.819v2
		h2.819v-0.006c0.042,0.001,0.082,0.006,0.124,0.006c5.001,0,9.057-4.054,9.057-9.057
		C256.847-358.087,253.093-362.009,248.358-362.304z M220.438-365.921c-0.241-0.016-0.48-0.036-0.725-0.036
		c-2.537,0-4.865,0.876-6.715,2.334c-2.012-1.294-3.487-3.354-3.976-5.776c0.582,0.117,1.178,0.177,1.78,0.177c4.963,0,9-4.037,9-9
		c0-0.603-0.06-1.198-0.177-1.78c3.733,0.753,6.629,3.824,7.133,7.641C224.049-370.919,221.834-368.663,220.438-365.921z"/>
	<rect x="231.847" y="-344.205" width="2" height="4"/>
	<rect x="239.847" y="-348.227" width="2" height="4.021"/>
	<rect x="223.847" y="-348.227" width="2" height="4.021"/>
	<circle cx="240.847" cy="-339.185" r="1.5"/>
	<circle cx="232.847" cy="-335.216" r="1.5"/>
	<circle cx="224.847" cy="-339.227" r="1.5"/>
</g>
<g>
	<path d="M145.049-269.273c-1.596-7.445-8.207-13.029-16.127-13.029c-6.423,0-11.977,3.678-14.702,9.035
		c-0.266-0.018-0.53-0.04-0.8-0.04c-6.627,0-11.999,5.372-11.999,12c0,6.607,5.34,11.965,11.938,11.998v0.003h6.062v-2h-5.604
		l-0.447-0.003c-5.485-0.027-9.948-4.513-9.948-9.998c0-5.514,4.485-10,9.999-10c0.175,0,0.347,0.014,0.52,0.025l0.148,0.01
		l1.316,0.088l0.598-1.176c2.492-4.899,7.443-7.942,12.92-7.942c6.79,0,12.75,4.814,14.172,11.448l0.317,1.482l1.514,0.095
		c4.203,0.262,7.496,3.763,7.496,7.971c0,4.397-3.565,7.977-7.957,8c-0.05-0.003-0.093-0.005-0.137-0.007l-5.043,0.007h0.137v2
		h4.863v-0.007c0.046,0.001,0.091,0.007,0.137,0.007c5.521,0,10-4.477,10-10C154.421-264.617,150.276-268.948,145.049-269.273z"/>
	<polygon points="129.263,-249.303 131.032,-249.303 131.463,-249.303 133.473,-249.303 127.059,-258.464 125.421,-257.316 
		129.632,-251.303 127.861,-251.303 125.421,-251.303 126.692,-249.486 127.805,-247.897 133.782,-239.303 135.421,-240.449 
		129.443,-249.045 	"/>
</g>
<g>
	<rect x="220.847" y="-288.403" width="2" height="7.973"/>
	<rect x="201.847" y="-269.489" width="7.973" height="2"/>
	<rect x="206.52" y="-280.756" transform="matrix(0.7071 0.7071 -0.7071 0.7071 -136.1613 -230.7894)" width="7.974" height="2"/>
	<rect x="232.028" y="-283.738" transform="matrix(0.7071 0.7071 -0.7071 0.7071 -129.5621 -246.7134)" width="2" height="7.972"/>
	<path d="M251.358-262.613c-1.444-6.742-7.433-11.8-14.605-11.8c-2.185,0-4.258,0.47-6.127,1.313
		c-1.666-3.202-5.006-5.394-8.865-5.394c-5.522,0-10,4.477-10,9.999c0,2.46,0.898,4.702,2.373,6.442
		c-1.428,1.84-2.287,4.144-2.287,6.653c0,5.983,4.836,10.836,10.813,10.865v0.003h4.188v-2h-3.721l-0.457-0.003
		c-4.864-0.023-8.822-4.001-8.822-8.865c0-4.89,3.978-8.868,8.867-8.868c0.15,0,0.299,0.012,0.447,0.022l0.148,0.01l1.314,0.085
		l0.597-1.175c2.225-4.372,6.644-7.089,11.532-7.089c6.062,0,11.382,4.298,12.649,10.219l0.318,1.483l1.514,0.094
		c3.708,0.23,6.612,3.319,6.612,7.03c0,3.878-3.144,7.035-7.017,7.057c-0.042-0.003-0.079-0.005-0.117-0.005l-2.047,0.005h-3.819v2
		h5.819v-0.006c0.042,0.001,0.082,0.006,0.124,0.006c5.001,0,9.057-4.054,9.057-9.057
		C259.847-258.396,256.093-262.318,251.358-262.613z M223.438-266.23c-0.241-0.016-0.48-0.036-0.725-0.036
		c-2.766,0-5.281,1.041-7.2,2.743c-1.092-1.366-1.753-3.09-1.753-4.971c0-4.41,3.589-7.999,8-7.999c3.092,0,5.76,1.773,7.092,4.345
		C226.554-270.708,224.675-268.66,223.438-266.23z"/>
	<polygon points="235.688,-244.523 237.458,-244.523 237.889,-244.523 239.898,-244.523 233.484,-253.685 231.847,-252.537 
		236.058,-246.523 234.287,-246.523 231.847,-246.523 233.118,-244.707 234.23,-243.118 240.208,-234.523 241.847,-235.67 
		235.869,-244.266 	"/>
</g>
<g>
	<path d="M350.943-264.909c-1.444-6.742-7.433-11.8-14.605-11.8c-1.799,0-3.521,0.32-5.118,0.904
		c-0.949-5.108-5.404-8.98-10.788-8.98c-0.413,0-0.819,0.027-1.222,0.071c0.744,1.112,1.179,2.448,1.179,3.886c0,3.865-3.134,7-7,7
		c-1.438,0-2.773-0.435-3.886-1.179c-0.044,0.401-0.071,0.809-0.071,1.222c0,3.712,1.845,6.987,4.661,8.979
		c-1.653,1.907-2.661,4.389-2.661,7.111c0,5.983,4.836,10.836,10.813,10.865v0.003h4.188v-2h-3.721l-0.457-0.003
		c-4.864-0.023-8.822-4.001-8.822-8.865c0-4.89,3.978-8.868,8.867-8.868c0.15,0,0.299,0.012,0.447,0.022l0.148,0.01l1.314,0.085
		l0.597-1.175c2.225-4.372,6.644-7.089,11.532-7.089c6.062,0,11.382,4.298,12.649,10.219l0.318,1.483l1.514,0.094
		c3.708,0.23,6.612,3.319,6.612,7.03c0,3.878-3.144,7.035-7.017,7.057c-0.042-0.003-0.079-0.005-0.117-0.005l-2.047,0.005h-3.819v2
		h5.819v-0.006c0.042,0.001,0.082,0.006,0.124,0.006c5.001,0,9.057-4.054,9.057-9.057
		C359.432-260.692,355.678-264.614,350.943-264.909z M323.023-268.526c-0.241-0.016-0.48-0.036-0.725-0.036
		c-2.537,0-4.865,0.876-6.715,2.334c-2.012-1.294-3.486-3.354-3.976-5.776c0.582,0.117,1.178,0.177,1.78,0.177c4.963,0,9-4.037,9-9
		c0-0.603-0.06-1.198-0.177-1.78c3.733,0.753,6.629,3.824,7.134,7.64C326.633-273.524,324.418-271.27,323.023-268.526z"/>
	<polygon points="335.273,-246.819 337.043,-246.819 337.474,-246.819 339.483,-246.819 333.069,-255.98 331.432,-254.833 
		335.643,-248.819 333.872,-248.819 331.432,-248.819 332.703,-247.003 333.815,-245.414 339.793,-236.819 341.432,-237.966 
		335.454,-246.562 	"/>
</g>
<g>
	<path d="M451.828-268.773c-1.596-7.445-8.207-13.029-16.127-13.029c-6.423,0-11.977,3.678-14.702,9.035
		c-0.266-0.018-0.53-0.04-0.8-0.04c-6.627,0-11.999,5.372-11.999,12c0,6.607,5.34,11.965,11.938,11.998v0.003h1.062v-2h-0.604
		l-0.447-0.003c-5.485-0.027-9.948-4.513-9.948-9.998c0-5.514,4.485-10,9.999-10c0.175,0,0.347,0.014,0.52,0.025l0.148,0.01
		l1.316,0.088l0.598-1.176c2.492-4.899,7.443-7.942,12.92-7.942c6.79,0,12.75,4.814,14.172,11.448l0.317,1.482l1.514,0.095
		c4.203,0.262,7.496,3.763,7.496,7.971c0,4.397-3.565,7.977-7.957,8c-0.05-0.003-0.093-0.005-0.137-0.007l-0.906,0.007v2h0.863
		v-0.007c0.046,0.001,0.091,0.007,0.137,0.007c5.521,0,10-4.477,10-10C461.2-264.117,457.056-268.448,451.828-268.773z"/>
	
		<rect x="420.635" y="-250.809" transform="matrix(-0.5736 -0.8191 0.8191 -0.5736 875.3464 -43.9836)" width="11.183" height="1.999"/>
	
		<rect x="438.609" y="-250.809" transform="matrix(-0.5736 -0.8191 0.8191 -0.5736 903.632 -29.2604)" width="11.183" height="1.999"/>
	<polygon points="437.042,-245.803 438.812,-245.803 439.242,-245.803 441.252,-245.803 434.838,-254.964 433.2,-253.816 
		437.411,-247.803 435.641,-247.803 433.2,-247.803 434.472,-245.986 435.584,-244.397 440.2,-237.803 441.839,-238.949 
		437.223,-245.545 	"/>
</g>
<g>
	<rect x="526.676" y="-288.24" width="2" height="7.973"/>
	<rect x="507.676" y="-269.326" width="7.973" height="2"/>
	<rect x="512.349" y="-280.593" transform="matrix(0.7071 0.7071 -0.7071 0.7071 -46.4706 -446.9955)" width="7.974" height="2"/>
	<rect x="537.858" y="-283.575" transform="matrix(0.7071 0.7071 -0.7071 0.7071 -39.8715 -462.9194)" width="2" height="7.972"/>
	<path d="M557.188-262.45c-1.444-6.742-7.433-11.8-14.605-11.8c-2.185,0-4.258,0.47-6.126,1.313
		c-1.667-3.202-5.007-5.394-8.866-5.394c-5.522,0-10,4.477-10,9.999c0,2.46,0.899,4.702,2.373,6.442
		c-1.429,1.84-2.287,4.144-2.287,6.653c0,5.983,4.836,10.836,10.813,10.865v0.003h0.188v-2l-0.178-0.003
		c-4.864-0.023-8.822-4.001-8.822-8.865c0-4.89,3.978-8.868,8.867-8.868c0.15,0,0.299,0.012,0.447,0.022l0.148,0.01l1.314,0.085
		l0.597-1.175c2.225-4.372,6.644-7.089,11.532-7.089c6.062,0,11.382,4.298,12.649,10.219l0.318,1.483l1.514,0.094
		c3.708,0.23,6.612,3.319,6.612,7.03c0,3.878-3.144,7.035-7.017,7.057c-0.042-0.003-0.079-0.005-0.117-0.005l-0.866,0.005v2h0.819
		v-0.006c0.042,0.001,0.082,0.006,0.124,0.006c5.001,0,9.057-4.054,9.057-9.057C565.676-258.233,561.922-262.155,557.188-262.45z
		 M529.268-266.067c-0.241-0.016-0.48-0.036-0.725-0.036c-2.766,0-5.282,1.042-7.2,2.743c-1.092-1.367-1.753-3.09-1.753-4.971
		c0-4.41,3.589-7.999,8-7.999c3.091,0,5.76,1.773,7.091,4.345C532.383-270.546,530.503-268.497,529.268-266.067z"/>
	
		<rect x="527.097" y="-246.37" transform="matrix(-0.5736 -0.8191 0.8191 -0.5736 1039.2449 50.2056)" width="11.183" height="1.999"/>
	
		<rect x="545.072" y="-246.37" transform="matrix(-0.5736 -0.8191 0.8191 -0.5736 1067.5305 64.9288)" width="11.183" height="1.999"/>
	<polygon points="543.505,-241.364 545.274,-241.364 545.705,-241.364 547.715,-241.364 541.301,-250.525 539.663,-249.378 
		543.874,-243.364 542.104,-243.364 539.663,-243.364 540.935,-241.548 542.047,-239.959 546.663,-233.364 548.302,-234.511 
		543.686,-241.106 	"/>
</g>
<g>
	<path d="M659.025-265.408c-1.444-6.742-7.433-11.8-14.605-11.8c-1.799,0-3.522,0.32-5.118,0.904
		c-0.949-5.108-5.404-8.98-10.788-8.98c-0.413,0-0.819,0.027-1.222,0.071c0.744,1.112,1.179,2.448,1.179,3.886c0,3.865-3.134,7-7,7
		c-1.438,0-2.773-0.435-3.886-1.179c-0.044,0.401-0.071,0.809-0.071,1.222c0,3.712,1.845,6.987,4.661,8.979
		c-1.653,1.907-2.661,4.389-2.661,7.111c0,5.983,4.836,10.836,10.813,10.865v0.003h0.188v-2l-0.178-0.003
		c-4.864-0.023-8.822-4.001-8.822-8.865c0-4.89,3.978-8.868,8.867-8.868c0.15,0,0.299,0.012,0.447,0.022l0.148,0.01l1.314,0.085
		l0.597-1.175c2.225-4.372,6.644-7.089,11.532-7.089c6.062,0,11.382,4.298,12.649,10.219l0.318,1.483l1.514,0.094
		c3.708,0.23,6.612,3.319,6.612,7.03c0,3.878-3.144,7.035-7.017,7.057c-0.042-0.003-0.079-0.005-0.117-0.005l-0.866,0.005v2h0.819
		v-0.006c0.042,0.001,0.082,0.006,0.124,0.006c5.001,0,9.057-4.054,9.057-9.057C667.514-261.191,663.76-265.113,659.025-265.408z
		 M631.105-269.025c-0.241-0.016-0.48-0.036-0.725-0.036c-2.537,0-4.865,0.876-6.715,2.334c-2.012-1.294-3.487-3.354-3.976-5.776
		c0.582,0.117,1.178,0.177,1.78,0.177c4.963,0,9-4.037,9-9c0-0.603-0.06-1.198-0.177-1.78c3.733,0.753,6.629,3.824,7.133,7.641
		C634.716-274.023,632.501-271.768,631.105-269.025z"/>
	
		<rect x="628.934" y="-249.328" transform="matrix(-0.5736 -0.8191 0.8191 -0.5736 1201.9224 128.9663)" width="11.183" height="1.999"/>
	
		<rect x="646.909" y="-249.328" transform="matrix(-0.5736 -0.8191 0.8191 -0.5736 1230.2078 143.6895)" width="11.183" height="1.999"/>
	<polygon points="645.342,-244.322 647.111,-244.322 647.542,-244.322 649.552,-244.322 643.138,-253.483 641.5,-252.336 
		645.711,-246.322 643.94,-246.322 641.5,-246.322 642.771,-244.506 643.884,-242.917 648.5,-236.322 650.139,-237.469 
		645.522,-244.064 	"/>
</g>
<g>
	<g>
		<path d="M248.463-178.953c-1.596-7.445-8.207-13.029-16.127-13.029c-6.423,0-11.977,3.678-14.702,9.035
			c-0.266-0.018-0.53-0.04-0.8-0.04c-6.627,0-11.999,5.372-11.999,12c0,6.607,5.34,11.965,11.938,11.998v0.003h2.062v-2h-1.604
			l-0.447-0.003c-5.485-0.027-9.948-4.513-9.948-9.998c0-5.514,4.485-10,9.999-10c0.175,0,0.347,0.014,0.52,0.025l0.148,0.01
			l1.316,0.088l0.598-1.176c2.492-4.899,7.443-7.942,12.92-7.942c6.79,0,12.75,4.814,14.172,11.448l0.317,1.482l1.514,0.095
			c4.203,0.262,7.496,3.763,7.496,7.971c0,4.397-3.565,7.977-7.957,8c-0.05-0.003-0.093-0.005-0.137-0.007l-2.043,0.007h-2.863v2
			h4.863v-0.007c0.046,0.001,0.091,0.007,0.137,0.007c5.521,0,10-4.477,10-10C257.835-174.297,253.69-178.628,248.463-178.953z"/>
	</g>
	<g>
		<circle cx="223.335" cy="-165.41" r="1.5"/>
	</g>
	<g>
		<circle cx="227.335" cy="-159.486" r="1.5"/>
	</g>
	<g>
		<circle cx="235.335" cy="-159.486" r="1.5"/>
	</g>
	<g>
		<circle cx="231.335" cy="-165.41" r="1.5"/>
	</g>
	<g>
		<circle cx="239.335" cy="-165.41" r="1.5"/>
	</g>
	<g>
		<circle cx="223.335" cy="-153.465" r="1.5"/>
	</g>
	<g>
		<circle cx="231.335" cy="-153.465" r="1.5"/>
	</g>
	<g>
		<circle cx="239.335" cy="-153.465" r="1.5"/>
	</g>
</g>
<g>
	<g>
		<rect x="324.249" y="-194.431" width="2" height="7.973"/>
	</g>
	<g>
		<rect x="305.249" y="-175.517" width="7.973" height="2"/>
	</g>
	<g>
		<rect x="309.922" y="-186.783" transform="matrix(0.7071 0.7071 -0.7071 0.7071 -39.4267 -276.382)" width="7.974" height="2"/>
	</g>
	<g>
		<rect x="335.431" y="-189.765" transform="matrix(0.7071 0.7071 -0.7071 0.7071 -32.8275 -292.3059)" width="2" height="7.972"/>
	</g>
	<g>
		<path d="M354.761-168.641c-1.444-6.742-7.433-11.8-14.605-11.8c-2.185,0-4.258,0.47-6.127,1.313
			c-1.666-3.202-5.006-5.394-8.865-5.394c-5.522,0-10,4.477-10,9.999c0,2.46,0.898,4.702,2.373,6.442
			c-1.428,1.84-2.287,4.144-2.287,6.653c0,5.983,4.836,10.836,10.813,10.865v0.003h1.188v-2h-0.721l-0.457-0.003
			c-4.864-0.023-8.822-4.001-8.822-8.865c0-4.89,3.978-8.868,8.867-8.868c0.15,0,0.299,0.012,0.447,0.022l0.148,0.01l1.314,0.085
			l0.597-1.175c2.225-4.372,6.644-7.089,11.532-7.089c6.062,0,11.382,4.298,12.649,10.219l0.318,1.483l1.514,0.094
			c3.708,0.23,6.612,3.319,6.612,7.03c0,3.878-3.144,7.035-7.017,7.057c-0.042-0.003-0.079-0.005-0.117-0.005l-2.047,0.005h-1.819v2
			h3.819v-0.006c0.042,0.001,0.082,0.006,0.124,0.006c5.001,0,9.057-4.054,9.057-9.057
			C363.249-164.424,359.495-168.346,354.761-168.641z M326.841-172.258c-0.241-0.016-0.48-0.036-0.725-0.036
			c-2.766,0-5.281,1.042-7.2,2.743c-1.092-1.367-1.753-3.09-1.753-4.971c0-4.41,3.589-7.999,8-7.999c3.092,0,5.76,1.773,7.092,4.345
			C329.956-176.736,328.077-174.688,326.841-172.258z"/>
	</g>
	<g>
		<circle cx="330.738" cy="-157.047" r="1.5"/>
	</g>
	<g>
		<circle cx="334.738" cy="-151.047" r="1.5"/>
	</g>
	<g>
		<circle cx="342.738" cy="-151.047" r="1.5"/>
	</g>
	<g>
		<circle cx="338.738" cy="-157.047" r="1.5"/>
	</g>
	<g>
		<circle cx="346.738" cy="-157.047" r="1.5"/>
	</g>
	<g>
		<circle cx="330.738" cy="-145.025" r="1.5"/>
	</g>
	<g>
		<circle cx="338.738" cy="-145.025" r="1.5"/>
	</g>
	<g>
		<circle cx="346.738" cy="-145.025" r="1.5"/>
	</g>
</g>
<g>
	<g>
		<path d="M450.712-172.597c-1.444-6.742-7.433-11.8-14.605-11.8c-1.799,0-3.521,0.32-5.118,0.904
			c-0.949-5.108-5.404-8.98-10.788-8.98c-0.413,0-0.819,0.027-1.222,0.071c0.744,1.112,1.179,2.448,1.179,3.886c0,3.865-3.134,7-7,7
			c-1.438,0-2.773-0.435-3.886-1.179c-0.044,0.401-0.071,0.809-0.071,1.222c0,3.712,1.845,6.987,4.661,8.979
			c-1.653,1.907-2.661,4.389-2.661,7.111c0,5.983,4.836,10.836,10.813,10.865v0.003h1.188v-2h-0.721l-0.457-0.003
			c-4.864-0.023-8.822-4.001-8.822-8.865c0-4.89,3.978-8.868,8.867-8.868c0.15,0,0.299,0.012,0.447,0.022l0.148,0.01l1.314,0.085
			l0.597-1.175c2.225-4.372,6.644-7.089,11.532-7.089c6.062,0,11.382,4.298,12.649,10.219l0.318,1.483l1.514,0.094
			c3.708,0.23,6.612,3.319,6.612,7.03c0,3.878-3.144,7.035-7.017,7.057c-0.042-0.003-0.079-0.005-0.117-0.005l-2.047,0.005H446.2v2
			h3.819v-0.006c0.042,0.001,0.082,0.006,0.124,0.006c5.001,0,9.057-4.054,9.057-9.057
			C459.2-168.38,455.446-172.302,450.712-172.597z M422.792-176.214c-0.241-0.016-0.48-0.036-0.725-0.036
			c-2.537,0-4.865,0.876-6.715,2.334c-2.012-1.294-3.486-3.354-3.976-5.776c0.582,0.117,1.178,0.177,1.78,0.177c4.963,0,9-4.037,9-9
			c0-0.603-0.06-1.198-0.177-1.78c3.733,0.753,6.629,3.824,7.134,7.64C426.401-181.212,424.187-178.957,422.792-176.214z"/>
	</g>
	<g>
		<circle cx="426.7" cy="-161.004" r="1.5"/>
	</g>
	<g>
		<circle cx="430.7" cy="-155.004" r="1.5"/>
	</g>
	<g>
		<circle cx="438.7" cy="-155.004" r="1.5"/>
	</g>
	<g>
		<circle cx="434.7" cy="-161.004" r="1.5"/>
	</g>
	<g>
		<circle cx="442.7" cy="-161.004" r="1.5"/>
	</g>
	<g>
		<circle cx="426.7" cy="-148.982" r="1.5"/>
	</g>
	<g>
		<circle cx="434.7" cy="-148.982" r="1.5"/>
	</g>
	<g>
		<circle cx="442.7" cy="-148.982" r="1.5"/>
	</g>
</g>
<g>
	<path d="M761.877-271.482c-1.596-7.445-8.207-13.029-16.127-13.029c-6.423,0-11.977,3.678-14.702,9.035
		c-0.266-0.018-0.53-0.04-0.8-0.04c-6.627,0-11.999,5.372-11.999,12c0,6.607,5.34,11.965,11.938,11.998v0.003h2.062v-2h-1.604
		l-0.447-0.003c-5.485-0.027-9.948-4.513-9.948-9.998c0-5.514,4.485-10,9.999-10c0.175,0,0.347,0.014,0.52,0.025l0.148,0.01
		l1.316,0.088l0.598-1.176c2.492-4.899,7.443-7.942,12.92-7.942c6.79,0,12.75,4.814,14.172,11.448l0.317,1.482l1.514,0.095
		c4.203,0.262,7.496,3.763,7.496,7.971c0,4.397-3.565,7.977-7.957,8c-0.05-0.003-0.093-0.005-0.137-0.007l-2.043,0.007h-2.863v2
		h4.863v-0.007c0.046,0.001,0.091,0.007,0.137,0.007c5.521,0,10-4.477,10-10C771.249-266.826,767.104-271.157,761.877-271.482z"/>
	<circle cx="736.249" cy="-244.012" r="1.5"/>
	<circle cx="744.249" cy="-238.012" r="1.5"/>
	<circle cx="752.249" cy="-242.012" r="1.5"/>
	<rect x="735.249" y="-260.487" width="2" height="11.976"/>
	<polygon points="745.249,-242.547 745.249,-244.487 745.249,-256.487 743.249,-256.487 743.249,-244.487 743.249,-242.547 
		743.249,-242.512 745.249,-242.512 	"/>
	<polygon points="753.249,-246.734 753.249,-248.487 753.249,-260.487 751.249,-260.487 751.249,-248.487 751.249,-246.734 
		751.249,-246.512 753.249,-246.512 	"/>
</g>
<g>
	<rect x="13.5" y="-199.869" width="2" height="7.973"/>
	<rect x="-5.5" y="-180.955" width="7.973" height="2"/>
	<rect x="-0.827" y="-192.222" transform="matrix(0.7071 0.7071 -0.7071 0.7071 -134.2886 -58.2421)" width="7.974" height="2"/>
	<rect x="24.682" y="-195.204" transform="matrix(0.7071 0.7071 -0.7071 0.7071 -127.6894 -74.1661)" width="2" height="7.972"/>
	<path d="M44.012-174.079c-1.444-6.742-7.433-11.8-14.605-11.8c-2.185,0-4.258,0.47-6.126,1.313
		c-1.667-3.202-5.007-5.394-8.866-5.394c-5.522,0-10,4.477-10,9.999c0,2.46,0.899,4.702,2.373,6.442
		c-1.429,1.84-2.287,4.144-2.287,6.653c0,5.983,4.836,10.836,10.813,10.865v0.003H16.5v-2h-0.721l-0.457-0.003
		C10.458-158.022,6.5-162,6.5-166.864c0-4.89,3.978-8.868,8.867-8.868c0.15,0,0.299,0.012,0.447,0.022l0.148,0.01l1.314,0.085
		l0.597-1.175c2.225-4.372,6.644-7.089,11.532-7.089c6.062,0,11.382,4.298,12.649,10.219l0.318,1.483l1.514,0.094
		c3.708,0.23,6.612,3.319,6.612,7.03c0,3.878-3.144,7.035-7.017,7.057c-0.042-0.003-0.079-0.005-0.117-0.005l-2.047,0.005H40.5v2
		h2.819v-0.006c0.042,0.001,0.082,0.006,0.124,0.006c5.001,0,9.057-4.054,9.057-9.057C52.5-169.862,48.746-173.784,44.012-174.079z
		 M16.092-177.696c-0.241-0.016-0.48-0.036-0.725-0.036c-2.766,0-5.282,1.041-7.2,2.743c-1.092-1.366-1.753-3.09-1.753-4.971
		c0-4.41,3.589-7.999,8-7.999c3.091,0,5.76,1.773,7.091,4.345C19.207-182.174,17.327-180.126,16.092-177.696z"/>
	<circle cx="20.49" cy="-147.509" r="1.5"/>
	<circle cx="28.49" cy="-141.509" r="1.5"/>
	<circle cx="36.49" cy="-145.509" r="1.5"/>
	<rect x="19.49" y="-163.984" width="2" height="11.976"/>
	<polygon points="29.49,-146.044 29.49,-147.984 29.49,-159.984 27.49,-159.984 27.49,-147.984 27.49,-146.044 27.49,-146.009 
		29.49,-146.009 	"/>
	<polygon points="37.49,-150.231 37.49,-151.984 37.49,-163.984 35.49,-163.984 35.49,-151.984 35.49,-150.231 35.49,-150.009 
		37.49,-150.009 	"/>
</g>
<g>
	<path d="M144.614-177.077c-1.444-6.742-7.433-11.8-14.605-11.8c-1.799,0-3.522,0.32-5.118,0.904
		c-0.949-5.108-5.404-8.98-10.788-8.98c-0.413,0-0.819,0.027-1.222,0.071c0.744,1.112,1.179,2.448,1.179,3.886c0,3.865-3.134,7-7,7
		c-1.438,0-2.773-0.435-3.886-1.179c-0.044,0.401-0.071,0.809-0.071,1.222c0,3.712,1.845,6.987,4.661,8.979
		c-1.653,1.907-2.661,4.389-2.661,7.111c0,5.983,4.836,10.836,10.813,10.865v0.003h1.188v-2h-0.721l-0.457-0.003
		c-4.864-0.023-8.822-4.001-8.822-8.865c0-4.89,3.978-8.868,8.867-8.868c0.15,0,0.299,0.012,0.447,0.022l0.148,0.01l1.314,0.085
		l0.597-1.175c2.225-4.372,6.644-7.089,11.532-7.089c6.062,0,11.382,4.298,12.649,10.219l0.318,1.483l1.514,0.094
		c3.708,0.23,6.612,3.319,6.612,7.03c0,3.878-3.144,7.035-7.017,7.057c-0.042-0.003-0.079-0.005-0.117-0.005l-2.047,0.005h-0.819v2
		h2.819V-159c0.042,0.001,0.082,0.006,0.124,0.006c5.001,0,9.057-4.054,9.057-9.057C153.103-172.86,149.349-176.782,144.614-177.077
		z M116.694-180.694c-0.241-0.016-0.48-0.036-0.725-0.036c-2.537,0-4.865,0.876-6.715,2.334c-2.012-1.294-3.487-3.354-3.976-5.776
		c0.582,0.117,1.178,0.177,1.78,0.177c4.963,0,9-4.037,9-9c0-0.603-0.06-1.198-0.177-1.78c3.733,0.753,6.629,3.824,7.133,7.64
		C120.305-185.692,118.09-183.438,116.694-180.694z"/>
	<circle cx="121.103" cy="-150.503" r="1.5"/>
	<circle cx="129.103" cy="-144.503" r="1.5"/>
	<circle cx="137.103" cy="-148.503" r="1.5"/>
	<rect x="120.103" y="-166.979" width="2" height="11.976"/>
	<polygon points="130.103,-149.038 130.103,-150.979 130.103,-162.979 128.103,-162.979 128.103,-150.979 128.103,-149.038 
		128.103,-149.003 130.103,-149.003 	"/>
	<polygon points="138.103,-153.226 138.103,-154.979 138.103,-166.979 136.103,-166.979 136.103,-154.979 136.103,-153.226 
		136.103,-153.003 138.103,-153.003 	"/>
</g>
<g>
	<rect x="-3.5" y="-72.637" width="56" height="2"/>
	<rect x="0.5" y="-66.637" width="50" height="2"/>
	<rect x="6.5" y="-60.637" width="36" height="2"/>
	<rect x="-1.5" y="-78.637" width="52" height="2"/>
	<path d="M10.374-86.642c0.175,0,0.347,0.014,0.519,0.025l0.149,0.01l1.316,0.088l0.598-1.176c2.493-4.899,7.443-7.942,12.92-7.942
		c6.79,0,12.75,4.814,14.171,11.448l0.318,1.482l1.514,0.095c1.207,0.075,2.335,0.425,3.336,0.975h3.286
		c-1.678-1.703-3.957-2.813-6.498-2.971c-1.596-7.445-8.207-13.029-16.127-13.029c-6.423,0-11.977,3.678-14.702,9.035
		c-0.266-0.018-0.53-0.04-0.8-0.04c-4.843,0-9.004,2.874-10.9,7.005h2.251C3.456-84.623,6.681-86.642,10.374-86.642z"/>
</g>
<g>
	<rect x="117.603" y="-100.151" width="2" height="7.973"/>
	<rect x="98.603" y="-81.237" width="7.973" height="2"/>
	<rect x="103.276" y="-92.504" transform="matrix(0.7071 0.7071 -0.7071 0.7071 -33.2865 -102.647)" width="7.974" height="2"/>
	<rect x="128.784" y="-95.486" transform="matrix(0.7071 0.7071 -0.7071 0.7071 -26.6874 -118.571)" width="2" height="7.972"/>
	<rect x="107.603" y="-66.277" width="50" height="2"/>
	<rect x="111.603" y="-60.277" width="44" height="2"/>
	<rect x="117.603" y="-55.277" width="30" height="2"/>
	<rect x="109.603" y="-72.277" width="46" height="2"/>
	<path d="M110.511-74.277h0.771h1.927h1.012c1.472-1.087,3.283-1.737,5.249-1.737c0.15,0,0.299,0.012,0.447,0.022l0.148,0.01
		l1.314,0.085l0.597-1.175c2.225-4.372,6.644-7.089,11.532-7.089c5.945,0,11.168,4.139,12.563,9.884h2.043v-0.084
		c-1.444-6.742-7.433-11.8-14.605-11.8c-2.185,0-4.258,0.47-6.126,1.313c-1.667-3.202-5.007-5.394-8.866-5.394
		c-5.522,0-10,4.477-10,9.999C108.517-78.001,109.265-75.942,110.511-74.277z M118.517-88.241c3.091,0,5.76,1.773,7.091,4.345
		c-2.298,1.44-4.178,3.488-5.413,5.918c-0.241-0.016-0.48-0.036-0.725-0.036c-2.764,0-5.274,1.045-7.189,2.745
		c-1.097-1.366-1.764-3.089-1.764-4.973C110.517-84.652,114.105-88.241,118.517-88.241z"/>
</g>
<g>
	<rect x="206.347" y="-69.715" width="50" height="2"/>
	<rect x="210.347" y="-63.715" width="44" height="2"/>
	<rect x="216.347" y="-58.715" width="30" height="2"/>
	<rect x="208.347" y="-75.715" width="46" height="2"/>
	<path d="M209.989-77.715h0.037h1.884h1.055c1.472-1.087,3.283-1.737,5.249-1.737c0.15,0,0.299,0.012,0.447,0.022l0.148,0.01
		l1.314,0.085l0.597-1.175c2.225-4.372,6.644-7.089,11.532-7.089c5.945,0,11.168,4.139,12.563,9.884h2.043v-0.084
		c-1.444-6.742-7.433-11.8-14.605-11.8c-1.799,0-3.521,0.32-5.117,0.903c-0.945-5.111-5.402-8.987-10.789-8.987
		c-0.413,0-0.819,0.027-1.222,0.071c0.744,1.112,1.179,2.448,1.179,3.886c0,3.865-3.134,7-7,7c-1.438,0-2.773-0.435-3.886-1.179
		c-0.044,0.401-0.071,0.809-0.071,1.222C205.347-82.979,207.183-79.708,209.989-77.715z M209.304-84.726c4.963,0,9-4.037,9-9
		c0-0.603-0.06-1.198-0.177-1.78c3.735,0.753,6.633,3.828,7.134,7.647c-2.712,1.443-4.927,3.699-6.322,6.442
		c-0.241-0.016-0.48-0.036-0.725-0.036c-2.534,0-4.855,0.879-6.701,2.335c-2.02-1.293-3.5-3.356-3.989-5.785
		C208.105-84.785,208.701-84.726,209.304-84.726z"/>
</g>
<g>
	<path d="M338.238-66.701h-19.474l-0.578-0.003c-5.485-0.027-9.948-4.513-9.948-9.998c0-5.514,4.485-10,9.999-10
		c0.175,0,0.347,0.014,0.519,0.025l0.149,0.01l1.316,0.088l0.598-1.176c2.493-4.899,7.443-7.942,12.92-7.942
		c6.79,0,12.75,4.814,14.171,11.448l0.318,1.482l1.514,0.095c1.822,0.113,3.463,0.845,4.746,1.971h2.732
		c-1.707-2.262-4.348-3.78-7.354-3.967c-1.596-7.445-8.207-13.029-16.127-13.029c-6.423,0-11.977,3.678-14.702,9.035
		c-0.266-0.018-0.53-0.04-0.8-0.04c-6.627,0-11.999,5.372-11.999,12c0,6.607,5.34,11.965,11.938,11.998v0.003h20.062
		c2.205,0,4,1.794,4,4s-1.795,4-4,4v2c3.314,0,6-2.686,6-6C344.238-64.015,341.553-66.701,338.238-66.701z"/>
	<path d="M342.238-70.701H326.25v2h15.988c3.314,0,6-2.687,6-6c0-3.314-2.686-6-6-6v2c2.205,0,4,1.794,4,4
		S344.443-70.701,342.238-70.701z"/>
	<path d="M355.238-76.701c1.654,0,3,1.346,3,3s-1.346,3-3,3c-0.043,0-0.083-0.011-0.126-0.013h-4.862
		c0.003,0.005,0.009,0.008,0.012,0.013h-0.023v2h5.5v-0.051c2.523-0.254,4.5-2.358,4.5-4.949c0-2.762-2.238-5-5-5V-76.701z"/>
	<path d="M359.238-66.701h-13v2h9.022c-0.004,0.005-0.008,0.008-0.011,0.013h3.862c0.043-0.002,0.083-0.013,0.126-0.013
		c1.654,0,3,1.346,3,3s-1.346,3-3,3v2c2.762,0,5-2.238,5-5S362-66.701,359.238-66.701z"/>
	<rect x="320.238" y="-70.701" width="4" height="2"/>
</g>
<path d="M130.677-465.805c6.95,1.305,12.226,7.419,12.226,14.742c0,8.272-6.729,15.002-15,15.002c-6.79,0-12.531-4.49-14.366-10.728
	c1.398,0.461,2.867,0.698,4.366,0.698c7.72,0,14-6.281,14-14.001C131.902-462.075,131.479-464.02,130.677-465.805 M127.902-468.062
	c-0.338,0-0.668,0.031-1,0.051c1.861,2.113,3,4.881,3,7.92c0,6.627-5.372,12.001-12,12.001c-2.599,0-4.998-0.835-6.963-2.239
	c0.387,9.047,7.821,16.269,16.963,16.269c9.39,0,17-7.612,17-17.002S137.292-468.062,127.902-468.062L127.902-468.062z"/>
<g>
	<path d="M24.507-463.066c-7.18,0-13,5.819-13,12.999c0,7.181,5.82,13.002,13,13.002s13-5.821,13-13.002
		C37.507-457.247,31.687-463.066,24.507-463.066z M24.507-439.065c-6.065,0-11-4.936-11-11.002c0-6.064,4.935-10.999,11-10.999
		s11,4.935,11,10.999C35.507-444.001,30.572-439.065,24.507-439.065z"/>
	<rect x="23.5" y="-476.061" width="2" height="10"/>
	<rect x="23.5" y="-434.061" width="2" height="10"/>
	<rect x="-1.493" y="-451.061" width="9.993" height="2"/>
	<rect x="40.5" y="-451.061" width="10.007" height="2"/>
	<rect x="38.2" y="-469.975" transform="matrix(0.7071 0.7071 -0.7071 0.7071 -317.1607 -163.8464)" width="2" height="10.409"/>
	<rect x="8.791" y="-440.566" transform="matrix(-0.7071 -0.7071 0.7071 -0.7071 324.5609 -736.2842)" width="2" height="10.41"/>
	<rect x="4.591" y="-465.765" transform="matrix(0.7071 0.7071 -0.7071 0.7071 -325.7696 -143.0529)" width="10.409" height="2"/>
	<rect x="33.999" y="-436.356" transform="matrix(-0.7072 -0.7071 0.7071 -0.7072 374.7502 -715.4999)" width="10.41" height="2"/>
</g>
<g>
	<rect x="422.673" y="-105.199" width="2" height="7.973"/>
	<rect x="403.7" y="-86.213" width="7.973" height="2"/>
	<rect x="408.426" y="-97.432" transform="matrix(0.7071 0.7071 -0.7071 0.7071 52.6055 -319.8643)" width="7.974" height="2"/>
	<rect x="433.935" y="-100.413" transform="matrix(0.7071 0.7071 -0.7071 0.7071 59.2047 -335.7882)" width="2" height="7.972"/>
	<path d="M437.7-63.199l0.005-0.007h-12.536l-0.594-0.003c-4.864-0.024-8.822-4.001-8.822-8.865c0-4.89,3.978-8.868,8.867-8.868
		c0.15,0,0.299,0.012,0.447,0.021l0.148,0.011l1.314,0.085l0.597-1.174c2.225-4.373,6.644-7.09,11.532-7.09
		c5.916,0,11.114,4.099,12.54,9.8h2.065c-1.444-6.742-7.433-11.8-14.605-11.8c-2.185,0-4.258,0.47-6.126,1.313
		c-1.667-3.202-5.007-5.394-8.866-5.394c-5.522,0-10,4.477-10,9.999c0,2.46,0.899,4.702,2.373,6.442
		c-1.429,1.84-2.287,4.144-2.287,6.653c0,5.983,4.836,10.836,10.813,10.865v0.003H437.7v0.007c2.205,0,4,1.794,4,4s-1.795,4-4,4v2
		c3.314,0,6-2.686,6-6C443.7-60.513,441.015-63.199,437.7-63.199z M423.667-93.169c3.091,0,5.76,1.773,7.091,4.345
		c-2.298,1.439-4.178,3.488-5.413,5.918c-0.241-0.016-0.48-0.036-0.725-0.036c-2.766,0-5.282,1.042-7.2,2.743
		c-1.092-1.367-1.753-3.09-1.753-4.971C415.667-89.58,419.256-93.169,423.667-93.169z"/>
	<path d="M441.7-67.199h-9.988v2h9.988c3.314,0,6-2.687,6-6c0-3.314-2.686-6-6-6v2c2.205,0,4,1.794,4,4S443.905-67.199,441.7-67.199
		z"/>
	<path d="M449.724-67.199H449.7v2h5.5v-0.051c2.523-0.254,4.5-2.358,4.5-4.949c0-2.762-2.238-5-5-5v2c1.654,0,3,1.346,3,3
		s-1.346,3-3,3c-0.043,0-0.083-0.011-0.126-0.013h-4.862C449.715-67.207,449.721-67.203,449.724-67.199z"/>
	<path d="M458.7-63.199h-13v2h9.022c-0.004,0.004-0.008,0.008-0.011,0.013h3.862c0.043-0.002,0.083-0.013,0.126-0.013
		c1.654,0,3,1.346,3,3s-1.346,3-3,3v2c2.762,0,5-2.238,5-5S461.462-63.199,458.7-63.199z"/>
	<rect x="425.7" y="-67.199" width="4" height="2"/>
</g>
<g>
	<path d="M537.662-65.205l0.005-0.007h-12.536l-0.594-0.003c-4.864-0.024-8.822-4.001-8.822-8.865c0-4.89,3.978-8.868,8.867-8.868
		c0.15,0,0.299,0.012,0.447,0.021l0.148,0.011l1.314,0.085l0.597-1.174c2.225-4.373,6.644-7.09,11.532-7.09
		c5.916,0,11.114,4.099,12.54,9.8h2.065c-1.444-6.742-7.433-11.8-14.605-11.8c-1.806,0-3.536,0.322-5.138,0.91
		c-0.938-5.123-5.4-9.01-10.794-9.01c-0.413,0-0.819,0.027-1.222,0.071c0.744,1.112,1.179,2.448,1.179,3.886c0,3.865-3.134,7-7,7
		c-1.438,0-2.773-0.435-3.886-1.179c-0.044,0.401-0.071,0.809-0.071,1.222c0,3.725,1.858,7.009,4.69,8.998
		c-1.655,1.907-2.665,4.392-2.665,7.116c0,5.983,4.836,10.836,10.813,10.865v0.003h13.135v0.007c2.205,0,4,1.794,4,4s-1.795,4-4,4v2
		c3.314,0,6-2.686,6-6C543.662-62.519,540.977-65.205,537.662-65.205z M513.866-88.414c0.582,0.117,1.178,0.177,1.78,0.177
		c4.963,0,9-4.037,9-9c0-0.603-0.06-1.198-0.177-1.78c3.744,0.755,6.646,3.842,7.138,7.674c-2.702,1.444-4.909,3.696-6.301,6.432
		c-0.241-0.016-0.48-0.036-0.725-0.036c-2.535,0-4.861,0.875-6.71,2.33C515.844-83.91,514.357-85.979,513.866-88.414z"/>
	<path d="M541.662-69.205h-9.988v2h9.988c3.314,0,6-2.687,6-6c0-3.314-2.686-6-6-6v2c2.205,0,4,1.794,4,4
		S543.867-69.205,541.662-69.205z"/>
	<path d="M549.686-69.205h-0.023v2h5.5v-0.051c2.523-0.254,4.5-2.358,4.5-4.949c0-2.762-2.238-5-5-5v2c1.654,0,3,1.346,3,3
		s-1.346,3-3,3c-0.043,0-0.083-0.011-0.126-0.013h-4.862C549.677-69.213,549.683-69.209,549.686-69.205z"/>
	<path d="M558.662-65.205h-13v2h9.022c-0.004,0.004-0.008,0.008-0.011,0.013h3.862c0.043-0.002,0.083-0.013,0.126-0.013
		c1.654,0,3,1.346,3,3s-1.346,3-3,3v2c2.762,0,5-2.238,5-5S561.424-65.205,558.662-65.205z"/>
	<rect x="525.662" y="-69.205" width="4" height="2"/>
</g>
<g>
	<rect x="638.555" y="-102.637" width="2" height="10"/>
	<rect x="613.562" y="-77.637" width="9.993" height="2"/>
	<rect x="653.255" y="-96.551" transform="matrix(0.7071 0.7071 -0.7071 0.7071 127.0352 -489.3824)" width="2" height="10.409"/>
	<rect x="619.646" y="-92.341" transform="matrix(0.7071 0.7071 -0.7071 0.7071 118.4263 -468.589)" width="10.409" height="2"/>
	<path d="M643.555-62.637h-24v2h24c2.205,0,4,1.794,4,4s-1.795,4-4,4v2c3.314,0,6-2.686,6-6
		C649.555-59.95,646.869-62.637,643.555-62.637z"/>
	<path d="M655.578-66.637h-0.023v2h5.5v-0.051c2.523-0.254,4.5-2.358,4.5-4.949c0-2.762-2.238-5-5-5v2c1.654,0,3,1.346,3,3
		s-1.346,3-3,3c-0.043,0-0.083-0.011-0.126-0.013h-4.862C655.569-66.645,655.575-66.641,655.578-66.637z"/>
	<path d="M664.555-62.637h-13v2h9.022c-0.004,0.004-0.008,0.008-0.011,0.013h3.862c0.043-0.002,0.083-0.013,0.126-0.013
		c1.654,0,3,1.346,3,3s-1.346,3-3,3v2c2.762,0,5-2.238,5-5S667.316-62.637,664.555-62.637z"/>
	<path d="M631.264-66.637h-11.709v2h12.012h0.822h15.166c3.314,0,6-2.687,6-6c0-3.314-2.686-6-6-6v2c2.205,0,4,1.794,4,4
		s-1.795,4-4,4h-12.538c-3.802-1.734-6.455-5.563-6.455-10.007c0-6.064,4.935-10.999,11-10.999c5.384,0,9.868,3.891,10.81,9.006
		h2.021c-0.961-6.23-6.331-11.006-12.831-11.006c-7.18,0-13,5.819-13,12.999C626.562-72.618,628.392-69.021,631.264-66.637z"/>
</g>
<g>
	<path d="M743.781-69.193h-24v2h24c2.205,0,4,1.794,4,4s-1.795,4-4,4v2c3.314,0,6-2.686,6-6
		C749.781-66.507,747.096-69.193,743.781-69.193z"/>
	<path d="M761.281-71.193v-0.051c2.523-0.254,4.5-2.358,4.5-4.949c0-2.762-2.238-5-5-5v2c1.654,0,3,1.346,3,3s-1.346,3-3,3
		c-0.043,0-0.083-0.011-0.126-0.013h-4.862c0.004,0.005,0.009,0.009,0.012,0.013h-0.023v2H761.281z"/>
	<path d="M764.781-69.193h-13v2h9.022c-0.003,0.004-0.007,0.008-0.011,0.013h3.862c0.043-0.002,0.083-0.013,0.126-0.013
		c1.654,0,3,1.346,3,3s-1.346,3-3,3v2c2.762,0,5-2.238,5-5S767.543-69.193,764.781-69.193z"/>
	<path d="M732.615-71.193h15.166c3.314,0,6-2.687,6-6c0-3.314-2.686-6-6-6v2c2.205,0,4,1.794,4,4s-1.795,4-4,4h-12.586
		c-2.596-1.188-4.658-3.339-5.69-6.034c0.849,0.204,1.724,0.309,2.612,0.309c6.168,0,11.187-5.019,11.187-11.188
		c0-1.276-0.22-2.532-0.64-3.717c4.046,1.102,7.168,4.459,7.937,8.63h2.018c-0.964-6.237-6.338-11.016-12.846-11.016
		c-0.259,0-0.511,0.024-0.766,0.039c1.425,1.618,2.297,3.737,2.297,6.063c0,5.072-4.112,9.188-9.187,9.188
		c-1.988,0-3.826-0.641-5.33-1.715c0.162,3.801,1.962,7.165,4.699,9.44h-11.705v2h12.012H732.615z"/>
</g>
<g>
	<path d="M24,16H4c-1.103,0-2-0.897-2-2s0.897-2,2-2h3.445H8v-2H4c-2.209,0-4,1.791-4,4s1.791,4,4,4h20c2.205,0,4,1.794,4,4
		s-1.795,4-4,4v2c3.314,0,6-2.686,6-6C30,18.687,27.314,16,24,16z"/>
	<path d="M26,0v2c2.205,0,4,1.794,4,4s-1.795,4-4,4H10.012v2H26c3.314,0,6-2.687,6-6C32,2.686,29.314,0,26,0z"/>
	<path d="M32,12v2h5.5v-0.051C40.023,13.695,42,11.591,42,9c0-2.762-2.238-5-5-5v2c1.654,0,3,1.346,3,3s-1.346,3-3,3
		c-0.043,0-0.083-0.011-0.126-0.013h-4.862c0.003,0.005,0.009,0.009,0.012,0.013H32z"/>
	<path d="M43,16H32v2h7.022c-0.004,0.004-0.008,0.008-0.011,0.013h3.862C42.917,18.011,42.957,18,43,18c1.654,0,3,1.346,3,3
		s-1.346,3-3,3v2c2.762,0,5-2.238,5-5S45.762,16,43,16z"/>
</g>
<path d="M560.292,2.347V2.309h-38.376c-1.103,0-2-0.897-2-2s0.897-2,2-2h33c2.762,0,5-2.238,5-5s-2.238-5-5-5h-37.875v0.008
	c-0.042-0.001-0.083-0.008-0.125-0.008c-2.762,0-5,2.238-5,5s2.238,5,5,5v-2c-1.654,0-3-1.346-3-3s1.346-3,3-3h0.125h3.853h34.022
	c1.654,0,3,1.346,3,3s-1.346,3-3,3h-33c-2.209,0-4,1.791-4,4s1.791,4,4,4h38c1.103,0,2,0.897,2,2s-0.897,2-2,2h-32
	c-2.209,0-4,1.791-4,4s1.791,4,4,4h22c1.103,0,2,0.897,2,2s-0.897,2-2,2h-24.01v0.001c-2.204,0.006-3.99,1.793-3.99,3.999
	s1.786,3.993,3.99,3.999v0.001h12.01c1.103,0,2,0.897,2,2s-0.897,2-2,2h-2c-2.209,0-4,1.791-4,4s1.791,4,4,4v-2
	c-1.103,0-2-0.897-2-2s0.897-2,2-2h2c2.209,0,4-1.791,4-4s-1.791-4-4-4h-12c-1.103,0-2-0.897-2-2s0.897-2,2-2h24
	c2.209,0,4-1.791,4-4c0-2.152-1.704-3.895-3.834-3.983v-0.017h-22.166c-1.103,0-2-0.897-2-2s0.897-2,2-2h32c2.209,0,4-1.791,4-4
	C563.916,4.229,562.322,2.539,560.292,2.347z"/>
<path d="M745.707-6.976V-9h-2v2.024C730.697-6.463,720.245,3.989,719.732,17h1.674c1.14-1.222,2.748-2,4.551-2
	c2.26,0,4.233,1.203,5.331,3h1.838c1.098-1.797,3.071-3,5.331-3c2.204,0,4.137,1.144,5.25,2.866V33c0,2.21,1.791,4,4,4s4-1.79,4-4
	h-2c0,1.103-0.897,2-2,2s-2-0.897-2-2V17.866c1.113-1.723,3.046-2.866,5.25-2.866c2.26,0,4.233,1.203,5.331,3h1.838
	c1.098-1.797,3.071-3,5.331-3c1.803,0,3.411,0.778,4.551,2h1.674C769.169,3.989,758.717-6.463,745.707-6.976z M763.457,13
	c-2.496,0-4.736,1.114-6.25,2.87c-1.514-1.756-3.754-2.87-6.25-2.87s-4.736,1.114-6.25,2.87c-1.514-1.756-3.754-2.87-6.25-2.87
	s-4.736,1.114-6.25,2.87c-1.514-1.756-3.755-2.87-6.25-2.87c-1.402,0-2.731,0.351-3.897,0.975C723.969,3.206,733.398-5,744.707-5
	s20.738,8.206,22.647,18.975C766.188,13.351,764.859,13,763.457,13z"/>
<g>
	<path d="M340.412,117.313v-17.105c0-2.762-2.238-5-5-5s-5,2.238-5,5v17.105c-1.236,1.263-2,2.988-2,4.895c0,3.866,3.134,7,7,7
		s7-3.134,7-7C342.412,120.301,341.648,118.575,340.412,117.313z M335.412,127.207c-2.757,0-5-2.243-5-5
		c0-1.313,0.508-2.554,1.429-3.495l0.571-0.583v-0.816v-17.105c0-1.654,1.346-3,3-3s3,1.346,3,3v17.105v0.816l0.571,0.583
		c0.921,0.941,1.429,2.183,1.429,3.495C340.412,124.964,338.169,127.207,335.412,127.207z"/>
	<path d="M336.412,119.383v-15.176h-2v15.176c-1.167,0.413-2.008,1.516-2.008,2.824c0,1.662,1.347,3.008,3.008,3.008
		c1.662,0,3.008-1.346,3.008-3.008C338.42,120.898,337.58,119.796,336.412,119.383z M335.412,123.215
		c-0.556,0-1.008-0.452-1.008-1.008s0.452-1.008,1.008-1.008s1.008,0.452,1.008,1.008S335.968,123.215,335.412,123.215z"/>
</g>
<g>
	<path d="M440.2,117.313v-17.105c0-2.762-2.238-5-5-5s-5,2.238-5,5v17.105c-1.236,1.263-2,2.988-2,4.895c0,3.866,3.134,7,7,7
		s7-3.134,7-7C442.2,120.301,441.437,118.575,440.2,117.313z M435.2,127.207c-2.757,0-5-2.243-5-5c0-1.313,0.508-2.554,1.429-3.495
		l0.571-0.583v-0.816v-17.105c0-1.654,1.346-3,3-3s3,1.346,3,3v17.105v0.816l0.571,0.583c0.921,0.941,1.429,2.183,1.429,3.495
		C440.2,124.964,437.957,127.207,435.2,127.207z"/>
	<path d="M436.2,119.383V99.207h-2v20.176c-1.167,0.413-2.008,1.516-2.008,2.824c0,1.662,1.347,3.008,3.008,3.008
		c1.662,0,3.008-1.346,3.008-3.008C438.208,120.898,437.368,119.796,436.2,119.383z M435.2,123.215
		c-0.556,0-1.008-0.452-1.008-1.008s0.452-1.008,1.008-1.008s1.008,0.452,1.008,1.008S435.756,123.215,435.2,123.215z"/>
</g>
<g>
	<path d="M237.303,117.313v-17.105c0-2.762-2.238-5-5-5s-5,2.238-5,5v17.105c-1.236,1.263-2,2.988-2,4.895c0,3.866,3.134,7,7,7
		s7-3.134,7-7C239.303,120.301,238.539,118.575,237.303,117.313z M232.303,127.207c-2.757,0-5-2.243-5-5
		c0-1.313,0.508-2.554,1.429-3.495l0.571-0.583v-0.816v-17.105c0-1.654,1.346-3,3-3s3,1.346,3,3v17.105v0.816l0.571,0.583
		c0.921,0.941,1.429,2.183,1.429,3.495C237.303,124.964,235.06,127.207,232.303,127.207z"/>
	<path d="M233.303,119.383v-10.176h-2v10.176c-1.167,0.413-2.008,1.516-2.008,2.824c0,1.662,1.347,3.008,3.008,3.008
		c1.662,0,3.008-1.346,3.008-3.008C235.311,120.898,234.471,119.796,233.303,119.383z M232.303,123.215
		c-0.556,0-1.008-0.452-1.008-1.008s0.452-1.008,1.008-1.008s1.008,0.452,1.008,1.008S232.858,123.215,232.303,123.215z"/>
</g>
<g>
	<path d="M133.657,117.313v-17.105c0-2.762-2.238-5-5-5s-5,2.238-5,5v17.105c-1.236,1.263-2,2.988-2,4.895c0,3.866,3.134,7,7,7
		s7-3.134,7-7C135.657,120.301,134.894,118.575,133.657,117.313z M128.657,127.207c-2.757,0-5-2.243-5-5
		c0-1.313,0.508-2.554,1.429-3.495l0.571-0.583v-0.816v-17.105c0-1.654,1.346-3,3-3s3,1.346,3,3v17.105v0.816l0.571,0.583
		c0.921,0.941,1.429,2.183,1.429,3.495C133.657,124.964,131.414,127.207,128.657,127.207z"/>
	<path d="M129.657,119.383v-5.176h-2v5.176c-1.167,0.413-2.008,1.516-2.008,2.824c0,1.662,1.347,3.008,3.008,3.008
		c1.662,0,3.008-1.346,3.008-3.008C131.665,120.898,130.825,119.796,129.657,119.383z M128.657,123.215
		c-0.556,0-1.008-0.452-1.008-1.008s0.452-1.008,1.008-1.008s1.008,0.452,1.008,1.008S129.213,123.215,128.657,123.215z"/>
</g>
<g>
	<path d="M29,117.313v-17.105c0-2.762-2.238-5-5-5s-5,2.238-5,5v17.105c-1.236,1.263-2,2.988-2,4.895c0,3.866,3.134,7,7,7
		s7-3.134,7-7C31,120.301,30.236,118.575,29,117.313z M24,127.207c-2.757,0-5-2.243-5-5c0-1.313,0.508-2.554,1.429-3.495L21,118.129
		v-0.816v-17.105c0-1.654,1.346-3,3-3s3,1.346,3,3v17.105v0.816l0.571,0.583c0.921,0.941,1.429,2.183,1.429,3.495
		C29,124.964,26.757,127.207,24,127.207z"/>
	<path d="M24,119.199c-1.661,0-3.008,1.347-3.008,3.008c0,1.662,1.347,3.008,3.008,3.008c1.662,0,3.008-1.346,3.008-3.008
		C27.008,120.546,25.662,119.199,24,119.199z M24,123.215c-0.556,0-1.008-0.452-1.008-1.008s0.452-1.008,1.008-1.008
		s1.008,0.452,1.008,1.008S24.556,123.215,24,123.215z"/>
</g>
<g>
	<path d="M528.925,97.52c-2.209,0-4,1.791-4,4c0,2.21,1.791,4,4,4c2.211,0,4-1.79,4-4C532.925,99.311,531.136,97.52,528.925,97.52z
		 M528.925,103.52c-1.103,0-2-0.897-2-2s0.897-2,2-2s2,0.897,2,2S530.027,103.52,528.925,103.52z"/>
	<path d="M542.925,125.52c-4.41,0-7.999-3.589-7.999-7.999v-4.002c0-4.41,3.589-7.999,7.999-7.999c2.715,0,5.115,1.362,6.563,3.437
		l1.43-1.43c-1.824-2.429-4.72-4.007-7.992-4.007c-5.522,0-9.999,4.478-9.999,9.999v4.002c0,5.521,4.477,9.999,9.999,9.999
		c3.272,0,6.168-1.579,7.992-4.008l-1.43-1.43C548.041,124.156,545.641,125.52,542.925,125.52z"/>
</g>
<g>
	<path d="M633.621,97.398c-2.209,0-4,1.791-4,4c0,2.21,1.791,4,4,4c2.211,0,4-1.79,4-4
		C637.621,99.189,635.832,97.398,633.621,97.398z M633.621,103.398c-1.103,0-2-0.897-2-2s0.897-2,2-2s2,0.897,2,2
		S634.724,103.398,633.621,103.398z"/>
	<polygon points="653.496,105.52 653.496,103.52 641.496,103.52 639.496,103.52 639.496,127.52 641.496,127.52 641.496,115.52 
		649.496,115.52 649.496,113.52 641.496,113.52 641.496,105.52 	"/>
</g>
<g>
	<path d="M744.707,101.211c-7.179,0-13,5.82-13,13s5.821,13,13,13s13-5.82,13-13S751.886,101.211,744.707,101.211z M744.707,125.211
		c-6.065,0-11-4.935-11-11s4.935-11,11-11s11,4.935,11,11S750.772,125.211,744.707,125.211z"/>
	<path d="M740.44,118.453l6.363-2.121l2.121-6.364l-6.363,2.122L740.44,118.453z M744.143,113.671l1.62-0.54l-0.54,1.62l-1.62,0.54
		L744.143,113.671z"/>
</g>
<g>
	<path d="M24,191.729c-7.179,0-13,5.82-13,13s5.821,13,13,13s13-5.82,13-13S31.179,191.729,24,191.729z M24,215.729
		c-6.065,0-11-4.934-11-11c0-6.064,4.935-11,11-11s11,4.936,11,11C35,210.795,30.065,215.729,24,215.729z"/>
	<path d="M26.562,203.15l-2.586-4.422l-2.529,4.33h0.007c-0.299,0.467-0.478,1.018-0.478,1.613c0,1.656,1.343,3,3,3s3-1.344,3-3
		c0-0.559-0.162-1.074-0.428-1.521H26.562z M23.976,205.672c-0.552,0-1-0.449-1-1c0-0.188,0.055-0.367,0.162-0.535l0.864-1.355
		l0.826,1.391c0.098,0.164,0.147,0.332,0.147,0.5C24.976,205.223,24.527,205.672,23.976,205.672z"/>
</g>
<g>
	<path d="M128.784,191.729c-7.18,0-13,5.82-13,13s5.82,13,13,13s13-5.82,13-13S135.964,191.729,128.784,191.729z M128.784,215.729
		c-6.065,0-11-4.934-11-11c0-6.064,4.935-11,11-11s11,4.936,11,11C139.784,210.795,134.85,215.729,128.784,215.729z"/>
	<path d="M130.373,202.148c-0.467-0.299-1.018-0.477-1.613-0.477c-1.658,0-3,1.342-3,3c0,1.656,1.342,3,3,3
		c0.557,0,1.072-0.162,1.52-0.428v0.014l4.422-2.586l-4.328-2.529V202.148z M129.258,205.523c-0.164,0.098-0.332,0.148-0.498,0.148
		c-0.552,0-1-0.449-1-1c0-0.553,0.448-1,1-1c0.188,0,0.368,0.053,0.535,0.16l1.355,0.865L129.258,205.523z"/>
</g>
<g>
	<path d="M231.835,191.729c-7.18,0-13,5.82-13,13s5.82,13,13,13s13-5.82,13-13S239.015,191.729,231.835,191.729z M231.835,215.729
		c-6.065,0-11-4.934-11-11c0-6.064,4.935-11,11-11s11,4.936,11,11C242.835,210.795,237.9,215.729,231.835,215.729z"/>
	<path d="M231.835,201.672c-1.656,0-3,1.342-3,3c0,0.557,0.162,1.072,0.428,1.52h-0.014l2.586,4.422l2.529-4.328h-0.006
		c0.299-0.467,0.477-1.018,0.477-1.613C234.835,203.014,233.493,201.672,231.835,201.672z M232.674,205.207l-0.865,1.355
		l-0.826-1.393c-0.098-0.164-0.147-0.332-0.147-0.498c0-0.553,0.448-1,1-1s1,0.447,1,1
		C232.835,204.859,232.781,205.039,232.674,205.207z"/>
</g>
<g>
	<path d="M335.249,191.729c-7.179,0-13,5.82-13,13s5.821,13,13,13s13-5.82,13-13S342.428,191.729,335.249,191.729z M335.249,215.729
		c-6.065,0-11-4.934-11-11c0-6.064,4.935-11,11-11s11,4.936,11,11C346.249,210.795,341.314,215.729,335.249,215.729z"/>
	<path d="M335.208,201.672c-0.557,0-1.072,0.162-1.52,0.428v-0.014l-4.422,2.586l4.328,2.529v-0.006
		c0.467,0.299,1.018,0.477,1.613,0.477c1.658,0,3-1.342,3-3C338.208,203.016,336.866,201.672,335.208,201.672z M335.208,205.672
		c-0.188,0-0.368-0.055-0.535-0.162l-1.355-0.865l1.393-0.826c0.164-0.098,0.332-0.146,0.498-0.146c0.552,0,1,0.447,1,1
		C336.208,205.223,335.76,205.672,335.208,205.672z"/>
</g>
<g>
	<rect x="127.098" y="-5" width="2" height="10"/>
	<rect x="141.797" y="1.086" transform="matrix(0.7071 0.7071 -0.7071 0.7071 46.2725 -99.1305)" width="2" height="10.409"/>
	<rect x="108.189" y="5.296" transform="matrix(0.7071 0.7071 -0.7071 0.7071 37.6636 -78.3371)" width="10.409" height="2"/>
	<polygon points="121.43,24.254 122.844,25.668 127.098,21.414 127.098,31 129.098,31 129.098,21.414 133.351,25.668 
		134.765,24.254 128.098,17.586 	"/>
	<path d="M141.104,20.999c0-0.002,0-0.004,0-0.006c0-7.18-5.82-12.999-13-12.999s-13,5.819-13,12.999c0,0.002,0,0.004,0,0.006h-13v2
		h18v-2h-3c0-0.002,0-0.004,0-0.006c0-6.064,4.935-10.999,11-10.999s11,4.935,11,10.999c0,0.002,0,0.004,0,0.006h-3v2H154.1v-2
		H141.104z"/>
</g>
<g>
	<rect x="230.843" y="-6.188" width="2" height="10"/>
	<rect x="245.543" y="-0.102" transform="matrix(0.7071 0.7071 -0.7071 0.7071 75.819 -172.8372)" width="2" height="10.409"/>
	<rect x="211.934" y="4.108" transform="matrix(0.7071 0.7071 -0.7071 0.7071 67.2101 -152.0438)" width="10.409" height="2"/>
	<polygon points="232.843,28.359 232.843,17.813 230.843,17.813 230.843,28.359 226.589,24.105 225.175,25.52 231.843,32.188 
		238.51,25.52 237.096,24.105 	"/>
	<path d="M244.85,19.812c0-0.002,0-0.004,0-0.006c0-7.18-5.82-12.999-13-12.999s-13,5.819-13,12.999c0,0.002,0,0.004,0,0.006h-13v2
		h22v-2h-7c0-0.002,0-0.004,0-0.006c0-6.064,4.935-10.999,11-10.999s11,4.935,11,10.999c0,0.002,0,0.004,0,0.006h-7v2h21.995v-2
		H244.85z"/>
</g>
<g>
	<polygon points="435.2,27.825 435.2,13.442 433.2,13.442 433.2,27.825 428.946,23.571 427.532,24.985 434.2,31.653 440.867,24.985 
		439.453,23.571 	"/>
	<path d="M450.828,8.472c-1.596-7.445-8.207-13.029-16.127-13.029c-6.423,0-11.977,3.678-14.702,9.035
		c-0.266-0.018-0.53-0.04-0.8-0.04c-6.627,0-11.999,5.372-11.999,12c0,6.607,5.34,11.965,11.938,11.998v0.003h6.062v-2h-5.604
		l-0.447-0.003c-5.485-0.027-9.948-4.513-9.948-9.998c0-5.514,4.485-10,9.999-10c0.175,0,0.347,0.014,0.52,0.025l0.148,0.01
		l1.316,0.088l0.598-1.176c2.492-4.899,7.443-7.942,12.92-7.942c6.79,0,12.75,4.814,14.172,11.448l0.317,1.482l1.514,0.095
		c4.203,0.262,7.496,3.763,7.496,7.971c0,4.397-3.565,7.977-7.957,8c-0.05-0.003-0.093-0.005-0.137-0.007l-2.043,0.007H443.2v2
		h6.863v-0.007c0.046,0.001,0.091,0.007,0.137,0.007c5.521,0,10-4.477,10-10C460.2,13.128,456.056,8.797,450.828,8.472z"/>
</g>
<g>
	<polygon points="341.185,24.63 342.599,23.216 335.932,16.548 329.264,23.216 330.678,24.63 334.932,20.376 334.932,32.962 
		336.932,32.962 336.932,20.376 	"/>
	<path d="M352.56,10.067c-1.596-7.445-8.207-13.029-16.127-13.029c-6.423,0-11.977,3.678-14.702,9.035
		c-0.266-0.018-0.53-0.04-0.8-0.04c-6.627,0-11.999,5.372-11.999,12c0,6.607,5.34,11.965,11.938,11.998v0.003h10.062v-2h-9.604
		l-0.447-0.003c-5.485-0.027-9.948-4.513-9.948-9.998c0-5.514,4.485-10,9.999-10c0.175,0,0.347,0.014,0.52,0.025l0.148,0.01
		l1.316,0.088l0.598-1.176c2.492-4.899,7.443-7.942,12.92-7.942c6.79,0,12.75,4.814,14.172,11.448l0.317,1.482l1.514,0.095
		c4.203,0.262,7.496,3.763,7.496,7.971c0,4.397-3.565,7.977-7.957,8c-0.05-0.003-0.093-0.005-0.137-0.007l-2.043,0.007h-8.863v2
		h10.863v-0.007c0.046,0.001,0.091,0.007,0.137,0.007c5.521,0,10-4.477,10-10C361.932,14.724,357.787,10.393,352.56,10.067z"/>
</g>
<g>
	<path d="M555.049-179.448c-1.596-7.445-8.207-13.029-16.127-13.029c-6.423,0-11.977,3.678-14.702,9.035
		c-0.266-0.018-0.53-0.04-0.8-0.04c-6.627,0-11.999,5.372-11.999,12c0,6.607,5.34,11.965,11.938,11.998v0.003h2.062v-2h-1.604
		l-0.447-0.003c-5.485-0.027-9.948-4.513-9.948-9.998c0-5.514,4.485-10,9.999-10c0.175,0,0.347,0.014,0.52,0.025l0.148,0.01
		l1.316,0.088l0.598-1.176c2.492-4.899,7.443-7.942,12.92-7.942c6.79,0,12.75,4.814,14.172,11.448l0.317,1.482l1.514,0.095
		c4.203,0.262,7.496,3.763,7.496,7.971c0,4.397-3.565,7.977-7.957,8c-0.05-0.003-0.093-0.005-0.137-0.007l-2.043,0.007h-0.863v2
		h2.863v-0.007c0.046,0.001,0.091,0.007,0.137,0.007c5.521,0,10-4.477,10-10C564.421-174.792,560.276-179.123,555.049-179.448z"/>
	<polygon points="533.421,-160.46 533.421,-163.09 535.594,-161.867 536.279,-163.088 533.81,-164.478 536.279,-165.867 
		535.594,-167.088 533.421,-165.865 533.421,-168.46 531.421,-168.46 531.421,-165.821 529.17,-167.088 528.484,-165.867 
		530.954,-164.478 528.484,-163.088 529.17,-161.867 531.421,-163.134 531.421,-160.46 	"/>
	<polygon points="538.583,-156.105 536.41,-154.883 536.41,-157.478 534.41,-157.478 534.41,-154.839 532.159,-156.105 
		531.474,-154.885 533.943,-153.495 531.474,-152.105 532.159,-150.885 534.41,-152.151 534.41,-149.478 536.41,-149.478 
		536.41,-152.107 538.583,-150.885 539.269,-152.105 536.799,-153.495 539.269,-154.885 	"/>
	<polygon points="547.599,-163.088 545.426,-161.865 545.426,-164.46 543.426,-164.46 543.426,-161.821 541.175,-163.088 
		540.489,-161.867 542.959,-160.478 540.489,-159.088 541.175,-157.867 543.426,-159.134 543.426,-156.46 545.426,-156.46 
		545.426,-159.09 547.599,-157.867 548.284,-159.088 545.814,-160.478 548.284,-161.867 	"/>
</g>
<g>
	<rect x="630.561" y="-197.5" width="2" height="7.973"/>
	<rect x="611.561" y="-178.586" width="7.973" height="2"/>
	<rect x="616.234" y="-189.852" transform="matrix(0.7071 0.7071 -0.7071 0.7071 48.1195 -493.8759)" width="7.974" height="2"/>
	<rect x="641.742" y="-192.834" transform="matrix(0.7071 0.7071 -0.7071 0.7071 54.7187 -509.7999)" width="2" height="7.972"/>
	<path d="M661.072-171.71c-1.444-6.742-7.433-11.8-14.605-11.8c-2.185,0-4.258,0.471-6.127,1.314
		c-1.666-3.203-5.006-5.395-8.865-5.395c-5.522,0-10,4.477-10,9.999c0,2.46,0.899,4.702,2.373,6.442
		c-1.428,1.84-2.287,4.144-2.287,6.653c0,5.983,4.836,10.836,10.813,10.865v0.003h1.188v-2h-0.721l-0.457-0.003
		c-4.864-0.023-8.822-4.001-8.822-8.865c0-4.89,3.978-8.868,8.867-8.868c0.15,0,0.299,0.012,0.447,0.022l0.148,0.01l1.314,0.085
		l0.597-1.175c2.225-4.372,6.644-7.089,11.532-7.089c6.062,0,11.382,4.298,12.649,10.219l0.318,1.483l1.514,0.094
		c3.708,0.23,6.612,3.319,6.612,7.03c0,3.878-3.144,7.035-7.017,7.057c-0.042-0.003-0.079-0.005-0.117-0.005l-1.866,0.005v2h1.819
		v-0.006c0.042,0.001,0.082,0.006,0.124,0.006c5.001,0,9.057-4.054,9.057-9.057C669.561-167.493,665.807-171.415,661.072-171.71z
		 M633.152-175.327c-0.241-0.016-0.48-0.036-0.725-0.036c-2.766,0-5.282,1.041-7.2,2.742c-1.092-1.365-1.753-3.089-1.753-4.97
		c0-4.41,3.589-7.999,8-7.999c3.092,0,5.76,1.773,7.091,4.346C636.268-179.805,634.389-177.757,633.152-175.327z"/>
	<polygon points="640.553,-154.607 640.553,-157.237 642.726,-156.015 643.411,-157.235 640.941,-158.625 643.411,-160.015 
		642.726,-161.235 640.553,-160.013 640.553,-162.607 638.553,-162.607 638.553,-159.969 636.302,-161.235 635.616,-160.015 
		638.086,-158.625 635.616,-157.235 636.302,-156.015 638.553,-157.281 638.553,-154.607 	"/>
	<polygon points="645.715,-150.253 643.542,-149.03 643.542,-151.625 641.542,-151.625 641.542,-148.986 639.291,-150.253 
		638.605,-149.032 641.075,-147.643 638.605,-146.253 639.291,-145.032 641.542,-146.299 641.542,-143.625 643.542,-143.625 
		643.542,-146.255 645.715,-145.032 646.4,-146.253 643.931,-147.643 646.4,-149.032 	"/>
	<polygon points="654.73,-157.235 652.558,-156.013 652.558,-158.607 650.558,-158.607 650.558,-155.969 648.307,-157.235 
		647.621,-156.015 650.091,-154.625 647.621,-153.235 648.307,-152.015 650.558,-153.281 650.558,-150.607 652.558,-150.607 
		652.558,-153.237 654.73,-152.015 655.416,-153.235 652.946,-154.625 655.416,-156.015 	"/>
</g>
<g>
	<path d="M761.261-174.713c-1.444-6.742-7.433-11.8-14.605-11.8c-1.799,0-3.522,0.32-5.118,0.904
		c-0.949-5.108-5.404-8.98-10.788-8.98c-0.413,0-0.819,0.027-1.222,0.071c0.744,1.112,1.179,2.448,1.179,3.886c0,3.865-3.134,7-7,7
		c-1.438,0-2.773-0.435-3.886-1.179c-0.044,0.401-0.071,0.809-0.071,1.222c0,3.713,1.845,6.987,4.661,8.979
		c-1.653,1.907-2.661,4.389-2.661,7.111c0,5.983,4.836,10.836,10.813,10.865v0.003h1.188v-2h-0.721l-0.457-0.003
		c-4.864-0.023-8.822-4.001-8.822-8.865c0-4.89,3.978-8.868,8.867-8.868c0.15,0,0.299,0.012,0.447,0.022l0.148,0.01l1.314,0.085
		l0.597-1.175c2.225-4.372,6.644-7.089,11.532-7.089c6.062,0,11.382,4.298,12.649,10.219l0.318,1.483l1.514,0.094
		c3.708,0.23,6.612,3.319,6.612,7.03c0,3.878-3.144,7.035-7.017,7.057c-0.042-0.003-0.079-0.005-0.117-0.005l-1.866,0.005v2h1.819
		v-0.006c0.042,0.001,0.082,0.006,0.124,0.006c5.001,0,9.057-4.054,9.057-9.057C769.749-170.496,765.995-174.418,761.261-174.713z
		 M733.341-178.33c-0.241-0.016-0.48-0.036-0.725-0.036c-2.537,0-4.865,0.877-6.715,2.334c-2.012-1.294-3.486-3.354-3.976-5.776
		c0.582,0.117,1.178,0.177,1.78,0.177c4.963,0,9-4.037,9-9c0-0.603-0.06-1.198-0.177-1.78c3.733,0.753,6.629,3.824,7.134,7.64
		C736.95-183.328,734.735-181.073,733.341-178.33z"/>
	<polygon points="740.786,-157.61 740.786,-160.24 742.959,-159.018 743.645,-160.238 741.175,-161.628 743.645,-163.018 
		742.959,-164.238 740.786,-163.016 740.786,-165.61 738.786,-165.61 738.786,-162.972 736.535,-164.238 735.85,-163.018 
		738.319,-161.628 735.85,-160.238 736.535,-159.018 738.786,-160.284 738.786,-157.61 	"/>
	<polygon points="745.948,-153.256 743.775,-152.033 743.775,-154.628 741.775,-154.628 741.775,-151.989 739.524,-153.256 
		738.839,-152.035 741.309,-150.646 738.839,-149.256 739.524,-148.035 741.775,-149.302 741.775,-146.628 743.775,-146.628 
		743.775,-149.258 745.948,-148.035 746.634,-149.256 744.164,-150.646 746.634,-152.035 	"/>
	<polygon points="754.964,-160.238 752.791,-159.016 752.791,-161.61 750.791,-161.61 750.791,-158.972 748.54,-160.238 
		747.854,-159.018 750.324,-157.628 747.854,-156.238 748.54,-155.018 750.791,-156.284 750.791,-153.61 752.791,-153.61 
		752.791,-156.24 754.964,-155.018 755.649,-156.238 753.18,-157.628 755.649,-159.018 	"/>
</g>
<rect x="144.902" y="-742.463" fill="none" width="472.974" height="180.918"/>
<text transform="matrix(1 0 0 1 324.5396 -671.064)"><tspan x="0" y="0" font-family="'HelveticaNeueLTStd-Th'" font-size="100" letter-spacing="2">60</tspan><tspan x="-99.268" y="60" font-family="'HelveticaNeueLTStd-Lt'" font-size="48" letter-spacing="1">Weather Icons</tspan><tspan x="-3.726" y="104" font-family="'HelveticaNeueLTStd-Lt'" font-size="24">IOS 7 Style</tspan></text>
</svg>
