<?xml version="1.0" encoding="utf-8"?>
<!-- Generator: Adobe Illustrator 16.0.0, SVG Export Plug-In . SVG Version: 6.00 Build 0)  -->
<!DOCTYPE svg PUBLIC "-//W3C//DTD SVG 1.1//EN" "http://www.w3.org/Graphics/SVG/1.1/DTD/svg11.dtd">
<svg version="1.1" id="Layer_1" xmlns="http://www.w3.org/2000/svg" xmlns:xlink="http://www.w3.org/1999/xlink" x="0px" y="0px"
	 width="55.993px" height="52px" viewBox="0 0 55.993 52" enable-background="new 0 0 55.993 52" xml:space="preserve">
<path d="M31.81,99.339l-1.803,15.077l-0.268,2.237h2.254h6.896l-14.693,18.759l1.789-14.52l0.277-2.245h-2.262h-6.957L31.81,99.339
	 M34.664,92.314l-21.667,28.333h11.004l-2.671,21.667l21.667-27.661H31.993L34.664,92.314L34.664,92.314z"/>
<path d="M-381.226-362.922c6.79,0,12.749,4.814,14.171,11.448l0.318,1.483l1.514,0.094c4.203,0.262,7.496,3.763,7.496,7.971
	c0,4.396-3.565,7.977-7.957,8c-0.046-0.003-0.091-0.006-0.137-0.007l-2.043-0.036v0.043H-396.2l-0.578-0.003
	c-5.485-0.027-9.948-4.513-9.948-9.998c0-5.514,4.485-10,9.999-10c0.175,0,0.347,0.014,0.519,0.025l0.149,0.011l1.316,0.087
	l0.598-1.176C-391.652-359.879-386.702-362.922-381.226-362.922 M-381.226-364.922c-6.423,0-11.977,3.678-14.702,9.035
	c-0.266-0.018-0.53-0.04-0.8-0.04c-6.627,0-11.999,5.372-11.999,12c0,6.607,5.34,11.965,11.938,11.998v0.003h30.925v-0.007
	c0.046,0.001,0.091,0.007,0.137,0.007c5.521,0,10-4.477,10-10c0-5.311-4.145-9.642-9.372-9.967
	C-366.694-359.338-373.306-364.922-381.226-364.922L-381.226-364.922z"/>
<g>
	<path d="M-258.274-344.511c-1.444-6.742-7.433-11.8-14.605-11.8c-2.185,0-4.258,0.47-6.127,1.313
		c-1.666-3.202-5.006-5.394-8.865-5.394c-5.522,0-10,4.477-10,9.999c0,2.46,0.898,4.702,2.373,6.442
		c-1.428,1.84-2.287,4.144-2.287,6.653c0,5.983,4.836,10.836,10.813,10.865v0.003h28.007v-0.006
		c0.042,0.001,0.082,0.006,0.124,0.006c5.001,0,9.057-4.054,9.057-9.057C-249.786-340.294-253.54-344.216-258.274-344.511z
		 M-287.872-358.391c3.092,0,5.76,1.773,7.092,4.345c-2.299,1.44-4.178,3.488-5.414,5.918c-0.241-0.016-0.48-0.036-0.725-0.036
		c-2.766,0-5.281,1.041-7.2,2.743c-1.092-1.366-1.753-3.09-1.753-4.971C-295.872-354.802-292.283-358.391-287.872-358.391z
		 M-258.803-328.428c-0.038-0.003-0.077-0.004-0.117-0.005l-2.047-0.042v0.047h-25.403l-0.594-0.003
		c-4.864-0.023-8.822-4.001-8.822-8.865c0-4.89,3.978-8.868,8.867-8.868c0.15,0,0.299,0.012,0.447,0.021l0.148,0.011l1.314,0.085
		l0.598-1.174c2.224-4.373,6.643-7.09,11.531-7.09c6.062,0,11.381,4.298,12.65,10.219l0.317,1.482l1.514,0.095
		c3.708,0.231,6.612,3.319,6.612,7.03C-251.786-331.606-254.93-328.45-258.803-328.428z"/>
	<rect x="-288.866" y="-370.421" width="2" height="7.973"/>
	<rect x="-307.839" y="-351.435" width="7.973" height="2"/>
	<rect x="-303.113" y="-362.653" transform="matrix(0.7071 0.7071 -0.7071 0.7071 -343.3395 105.5882)" width="7.974" height="2"/>
	<rect x="-277.604" y="-365.635" transform="matrix(0.7071 0.7071 -0.7071 0.7071 -336.7403 89.6642)" width="2" height="7.972"/>
</g>
<path d="M-162.531-348.538c-1.444-6.742-7.433-11.8-14.605-11.8c-1.799,0-3.521,0.32-5.118,0.904
	c-0.949-5.108-5.404-8.98-10.788-8.98c-0.413,0-0.819,0.027-1.222,0.071c0.744,1.112,1.179,2.448,1.179,3.886c0,3.865-3.134,7-7,7
	c-1.438,0-2.773-0.435-3.886-1.179c-0.044,0.401-0.071,0.809-0.071,1.222c0,3.712,1.845,6.987,4.661,8.979
	c-1.653,1.907-2.661,4.389-2.661,7.111c0,5.983,4.836,10.836,10.813,10.865v0.003h28.007v-0.006
	c0.042,0.001,0.082,0.006,0.124,0.006c5.001,0,9.057-4.054,9.057-9.057C-154.043-344.321-157.797-348.243-162.531-348.538z
	 M-201.866-355.634c0.582,0.117,1.178,0.177,1.78,0.177c4.963,0,9-4.037,9-9c0-0.603-0.06-1.198-0.177-1.78
	c3.733,0.753,6.629,3.824,7.134,7.64c-2.713,1.444-4.928,3.699-6.322,6.442c-0.241-0.016-0.48-0.036-0.725-0.036
	c-2.537,0-4.865,0.876-6.715,2.334C-199.902-351.151-201.377-353.211-201.866-355.634z M-163.06-332.455
	c-0.038-0.003-0.077-0.004-0.117-0.005l-2.047-0.042v0.047h-25.403l-0.594-0.003c-4.864-0.023-8.822-4.001-8.822-8.865
	c0-4.89,3.978-8.868,8.867-8.868c0.15,0,0.299,0.012,0.447,0.021l0.148,0.011l1.314,0.085l0.598-1.174
	c2.224-4.373,6.643-7.09,11.531-7.09c6.062,0,11.381,4.298,12.65,10.219l0.317,1.482l1.514,0.095
	c3.708,0.231,6.612,3.319,6.612,7.03C-156.043-335.634-159.187-332.478-163.06-332.455z"/>
<g>
	<rect x="-77.886" y="-339.915" width="2" height="7"/>
	<rect x="-69.886" y="-343.915" width="2" height="7"/>
	<rect x="-85.886" y="-343.915" width="2" height="7"/>
	<rect x="-77.886" y="-329.915" width="2" height="7"/>
	<rect x="-69.886" y="-333.915" width="2" height="7"/>
	<rect x="-85.886" y="-333.915" width="2" height="7"/>
	<path d="M-59.258-356.903c-1.596-7.445-8.207-13.029-16.127-13.029c-6.423,0-11.977,3.678-14.702,9.035
		c-0.266-0.018-0.53-0.04-0.8-0.04c-6.627,0-11.999,5.372-11.999,12c0,6.607,5.34,11.965,11.938,11.998v0.003h2.062v-2h-1.604
		l-0.447-0.003c-5.485-0.027-9.948-4.513-9.948-9.998c0-5.514,4.485-10,9.999-10c0.175,0,0.347,0.014,0.52,0.025l0.148,0.01
		l1.316,0.088l0.598-1.176c2.492-4.899,7.443-7.942,12.92-7.942c6.79,0,12.75,4.814,14.172,11.448l0.317,1.482l1.514,0.095
		c4.203,0.262,7.496,3.763,7.496,7.971c0,4.397-3.565,7.977-7.957,8c-0.05-0.003-0.093-0.005-0.137-0.007l-2.043,0.007h-2.863v2
		h4.863v-0.007c0.046,0.001,0.091,0.007,0.137,0.007c5.521,0,10-4.477,10-10C-49.886-352.247-54.03-356.578-59.258-356.903z"/>
</g>
<g>
	<path d="M-261.685-267.546c-1.596-7.445-8.207-13.029-16.127-13.029c-6.423,0-11.977,3.678-14.702,9.035
		c-0.266-0.018-0.53-0.04-0.8-0.04c-6.627,0-11.999,5.372-11.999,12c0,6.607,5.34,11.965,11.938,11.998v0.003h2.062v-2h-1.604
		l-0.447-0.003c-5.485-0.027-9.948-4.513-9.948-9.998c0-5.514,4.485-10,9.999-10c0.175,0,0.347,0.014,0.52,0.025l0.148,0.01
		l1.316,0.088l0.598-1.176c2.492-4.899,7.443-7.942,12.92-7.942c6.79,0,12.75,4.814,14.172,11.448l0.317,1.482l1.514,0.095
		c4.203,0.262,7.496,3.763,7.496,7.971c0,4.397-3.565,7.977-7.957,8c-0.05-0.003-0.093-0.005-0.137-0.007l-2.043,0.007h-2.863v2
		h4.863v-0.007c0.046,0.001,0.091,0.007,0.137,0.007c5.521,0,10-4.477,10-10C-252.313-262.89-256.457-267.221-261.685-267.546z"/>
	<polygon points="-280.313,-240.551 -280.313,-238.61 -280.313,-232.551 -278.313,-232.551 -278.313,-238.61 -278.313,-240.551 
		-278.313,-252.551 -280.313,-252.551 	"/>
	<polygon points="-272.313,-244.551 -272.313,-242.798 -272.313,-236.551 -270.313,-236.551 -270.313,-242.798 -270.313,-244.551 
		-270.313,-256.551 -272.313,-256.551 	"/>
	<polygon points="-288.313,-244.551 -288.313,-242.485 -288.313,-236.551 -286.313,-236.551 -286.313,-242.485 -286.313,-244.551 
		-286.313,-256.551 -288.313,-256.551 	"/>
</g>
<g>
	<polygon points="33.965,-243.64 27.082,-253.47 25.444,-252.322 32.327,-242.492 33.439,-240.903 36.915,-235.939 38.554,-237.086 
		35.078,-242.051 	"/>
	<polygon points="41.967,-243.642 35.082,-253.47 33.444,-252.321 40.33,-242.493 41.335,-241.058 44.919,-235.942 46.558,-237.089 
		42.974,-242.205 	"/>
	<polygon points="25.965,-243.64 19.082,-253.47 17.444,-252.321 24.327,-242.492 25.512,-240.8 28.916,-235.938 30.554,-237.086 
		27.15,-241.947 	"/>
	<path d="M45.072-267.279c-1.596-7.445-8.207-13.029-16.127-13.029c-6.423,0-11.977,3.678-14.702,9.035
		c-0.266-0.018-0.53-0.04-0.8-0.04c-6.627,0-11.999,5.372-11.999,12c0,6.607,5.34,11.965,11.938,11.998v0.003h2.062v-2H13.84
		l-0.447-0.003c-5.485-0.027-9.948-4.513-9.948-9.998c0-5.514,4.485-10,9.999-10c0.175,0,0.347,0.014,0.52,0.025l0.148,0.01
		l1.316,0.088l0.598-1.176c2.492-4.899,7.443-7.942,12.92-7.942c6.79,0,12.75,4.814,14.172,11.448l0.317,1.482l1.514,0.095
		c4.203,0.262,7.496,3.763,7.496,7.971c0,4.397-3.565,7.977-7.957,8c-0.05-0.003-0.093-0.005-0.137-0.007l-1.043,0.007h0.137v2
		h0.863v-0.007c0.046,0.001,0.091,0.007,0.137,0.007c5.521,0,10-4.477,10-10C54.444-262.623,50.3-266.954,45.072-267.279z"/>
</g>
<g>
	<rect x="16.771" y="-376.361" width="2" height="7.973"/>
	<rect x="-2.229" y="-357.447" width="7.973" height="2"/>
	<rect x="2.444" y="-368.714" transform="matrix(0.7071 0.7071 -0.7071 0.7071 -258.1295 -112.2481)" width="7.974" height="2"/>
	<rect x="27.952" y="-371.696" transform="matrix(0.7071 0.7071 -0.7071 0.7071 -251.5303 -128.172)" width="2" height="7.972"/>
	<rect x="30.771" y="-335.488" width="2" height="7"/>
	<rect x="38.771" y="-339.488" width="2" height="7"/>
	<rect x="22.771" y="-339.488" width="2" height="7"/>
	<rect x="30.771" y="-325.488" width="2" height="7"/>
	<rect x="38.771" y="-329.488" width="2" height="7"/>
	<rect x="22.771" y="-329.488" width="2" height="7"/>
	<path d="M47.282-350.571c-1.444-6.742-7.433-11.8-14.605-11.8c-2.185,0-4.258,0.47-6.126,1.313
		c-1.667-3.202-5.007-5.394-8.866-5.394c-5.522,0-10,4.477-10,9.999c0,2.46,0.899,4.702,2.373,6.442
		c-1.429,1.84-2.287,4.144-2.287,6.653c0,5.983,4.836,10.836,10.813,10.865v0.003h1.188v-2H19.05l-0.457-0.003
		c-4.864-0.023-8.822-4.001-8.822-8.865c0-4.89,3.978-8.868,8.867-8.868c0.15,0,0.299,0.012,0.447,0.022l0.148,0.01l1.314,0.085
		l0.597-1.175c2.225-4.372,6.644-7.089,11.532-7.089c6.062,0,11.382,4.298,12.649,10.219l0.318,1.483l1.514,0.094
		c3.708,0.23,6.612,3.319,6.612,7.03c0,3.878-3.144,7.035-7.017,7.057c-0.042-0.003-0.079-0.005-0.117-0.005l-2.047,0.005h-0.819v2
		h2.819v-0.006c0.042,0.001,0.082,0.006,0.124,0.006c5.001,0,9.057-4.054,9.057-9.057C55.771-346.354,52.017-350.276,47.282-350.571
		z M19.362-354.188c-0.241-0.016-0.48-0.036-0.725-0.036c-2.766,0-5.282,1.041-7.2,2.743c-1.092-1.366-1.753-3.09-1.753-4.971
		c0-4.41,3.589-7.999,8-7.999c3.091,0,5.76,1.773,7.091,4.345C22.478-358.666,20.598-356.618,19.362-354.188z"/>
</g>
<g>
	<rect x="131.188" y="-336.936" width="2" height="7"/>
	<rect x="139.188" y="-340.936" width="2" height="7"/>
	<rect x="123.188" y="-340.936" width="2" height="7"/>
	<rect x="131.188" y="-326.936" width="2" height="7"/>
	<rect x="139.188" y="-330.936" width="2" height="7"/>
	<rect x="123.188" y="-330.936" width="2" height="7"/>
	<path d="M147.699-352.019c-1.444-6.742-7.433-11.8-14.605-11.8c-1.799,0-3.522,0.32-5.118,0.904
		c-0.949-5.108-5.404-8.98-10.788-8.98c-0.413,0-0.819,0.027-1.222,0.071c0.744,1.112,1.179,2.448,1.179,3.886c0,3.865-3.134,7-7,7
		c-1.438,0-2.773-0.435-3.886-1.179c-0.044,0.401-0.071,0.809-0.071,1.222c0,3.712,1.845,6.987,4.661,8.979
		c-1.653,1.907-2.661,4.389-2.661,7.111c0,5.983,4.836,10.836,10.813,10.865v0.003h1.188v-2h-0.721l-0.457-0.003
		c-4.864-0.023-8.822-4.001-8.822-8.865c0-4.89,3.978-8.868,8.867-8.868c0.15,0,0.299,0.012,0.447,0.022l0.148,0.01l1.314,0.085
		l0.597-1.175c2.225-4.372,6.644-7.089,11.532-7.089c6.062,0,11.382,4.298,12.649,10.219l0.318,1.483l1.514,0.094
		c3.708,0.23,6.612,3.319,6.612,7.03c0,3.878-3.144,7.035-7.017,7.057c-0.042-0.003-0.079-0.005-0.117-0.005l-2.047,0.005h-0.819v2
		h2.819v-0.006c0.042,0.001,0.082,0.006,0.124,0.006c5.001,0,9.057-4.054,9.057-9.057
		C156.188-347.802,152.434-351.724,147.699-352.019z M119.779-355.636c-0.241-0.016-0.48-0.036-0.725-0.036
		c-2.537,0-4.865,0.876-6.715,2.334c-2.012-1.294-3.487-3.354-3.976-5.776c0.582,0.117,1.178,0.177,1.78,0.177c4.963,0,9-4.037,9-9
		c0-0.603-0.06-1.198-0.177-1.78c3.733,0.753,6.629,3.824,7.133,7.64C123.39-360.634,121.175-358.379,119.779-355.636z"/>
</g>
<g>
	<polygon points="-176.043,-236.112 -176.043,-234.172 -176.043,-228.112 -174.043,-228.112 -174.043,-234.172 -174.043,-236.112 
		-174.043,-248.112 -176.043,-248.112 	"/>
	<polygon points="-168.043,-240.112 -168.043,-238.359 -168.043,-232.112 -166.043,-232.112 -166.043,-238.359 -166.043,-240.112 
		-166.043,-252.112 -168.043,-252.112 	"/>
	<polygon points="-184.043,-240.112 -184.043,-238.047 -184.043,-232.112 -182.043,-232.112 -182.043,-238.047 -182.043,-240.112 
		-182.043,-252.112 -184.043,-252.112 	"/>
	<rect x="-190.043" y="-287.015" width="2" height="7.973"/>
	<rect x="-209.043" y="-268.101" width="7.973" height="2"/>
	<rect x="-204.37" y="-279.367" transform="matrix(0.7071 0.7071 -0.7071 0.7071 -255.5261 60.1602)" width="7.974" height="2"/>
	<rect x="-178.861" y="-282.349" transform="matrix(0.7071 0.7071 -0.7071 0.7071 -248.9269 44.2362)" width="2" height="7.972"/>
	<path d="M-159.531-261.225c-1.444-6.742-7.433-11.8-14.605-11.8c-2.185,0-4.258,0.47-6.127,1.313
		c-1.666-3.202-5.006-5.394-8.865-5.394c-5.522,0-10,4.477-10,9.999c0,2.46,0.898,4.702,2.373,6.442
		c-1.428,1.84-2.287,4.144-2.287,6.653c0,5.983,4.836,10.836,10.813,10.865v0.003h1.188v-2h-0.721l-0.457-0.003
		c-4.864-0.023-8.822-4.001-8.822-8.865c0-4.89,3.978-8.868,8.867-8.868c0.15,0,0.299,0.012,0.447,0.022l0.148,0.01l1.314,0.085
		l0.597-1.175c2.225-4.372,6.644-7.089,11.532-7.089c6.062,0,11.382,4.298,12.649,10.219l0.318,1.483l1.514,0.094
		c3.708,0.23,6.612,3.319,6.612,7.03c0,3.878-3.144,7.035-7.017,7.057c-0.042-0.003-0.079-0.005-0.117-0.005l-2.047,0.005h-0.819v2
		h2.819v-0.006c0.042,0.001,0.082,0.006,0.124,0.006c5.001,0,9.057-4.054,9.057-9.057
		C-151.043-257.008-154.797-260.93-159.531-261.225z M-187.451-264.842c-0.241-0.016-0.48-0.036-0.725-0.036
		c-2.766,0-5.281,1.042-7.2,2.743c-1.092-1.367-1.753-3.09-1.753-4.971c0-4.41,3.589-7.999,8-7.999c3.092,0,5.76,1.773,7.092,4.345
		C-184.336-269.32-186.215-267.271-187.451-264.842z"/>
</g>
<g>
	<polygon points="-75.646,-238.629 -75.646,-236.688 -75.646,-230.629 -73.646,-230.629 -73.646,-236.688 -73.646,-238.629 
		-73.646,-250.629 -75.646,-250.629 	"/>
	<polygon points="-67.646,-242.629 -67.646,-240.876 -67.646,-234.629 -65.646,-234.629 -65.646,-240.876 -65.646,-242.629 
		-65.646,-254.629 -67.646,-254.629 	"/>
	<polygon points="-83.646,-242.629 -83.646,-240.563 -83.646,-234.629 -81.646,-234.629 -81.646,-240.563 -81.646,-242.629 
		-81.646,-254.629 -83.646,-254.629 	"/>
	<path d="M-59.134-263.741c-1.444-6.742-7.433-11.8-14.605-11.8c-1.799,0-3.521,0.32-5.118,0.904
		c-0.949-5.108-5.404-8.98-10.788-8.98c-0.413,0-0.819,0.027-1.222,0.071c0.744,1.112,1.179,2.448,1.179,3.886c0,3.865-3.134,7-7,7
		c-1.438,0-2.773-0.435-3.886-1.179c-0.044,0.401-0.071,0.809-0.071,1.222c0,3.712,1.845,6.987,4.661,8.979
		c-1.653,1.907-2.661,4.389-2.661,7.111c0,5.983,4.836,10.836,10.813,10.865v0.003h1.188v-2h-0.721l-0.457-0.003
		c-4.864-0.023-8.822-4.001-8.822-8.865c0-4.89,3.978-8.868,8.867-8.868c0.15,0,0.299,0.012,0.447,0.022l0.148,0.01l1.314,0.085
		l0.597-1.175c2.225-4.372,6.644-7.089,11.532-7.089c6.062,0,11.382,4.298,12.649,10.219l0.318,1.483l1.514,0.094
		c3.708,0.23,6.612,3.319,6.612,7.03c0,3.878-3.144,7.035-7.017,7.057c-0.042-0.003-0.079-0.005-0.117-0.005l-2.047,0.005h-0.819v2
		h2.819v-0.006c0.042,0.001,0.082,0.006,0.124,0.006c5.001,0,9.057-4.054,9.057-9.057
		C-50.646-259.524-54.399-263.446-59.134-263.741z M-87.054-267.358c-0.241-0.016-0.48-0.036-0.725-0.036
		c-2.537,0-4.865,0.876-6.715,2.334c-2.012-1.294-3.486-3.354-3.976-5.776c0.582,0.117,1.178,0.177,1.78,0.177c4.963,0,9-4.037,9-9
		c0-0.603-0.06-1.198-0.177-1.78c3.733,0.753,6.629,3.824,7.134,7.641C-83.444-272.356-85.659-270.101-87.054-267.358z"/>
</g>
<g>
	<polygon points="141.39,-237.685 134.507,-247.515 132.869,-246.367 139.752,-236.537 140.864,-234.948 144.34,-229.984 
		145.979,-231.131 142.503,-236.096 	"/>
	<polygon points="149.392,-237.687 142.507,-247.515 140.869,-246.366 147.755,-236.538 148.76,-235.103 152.344,-229.987 
		153.982,-231.134 150.398,-236.25 	"/>
	<polygon points="133.39,-237.685 126.507,-247.515 124.869,-246.366 131.752,-236.537 132.937,-234.845 136.341,-229.983 
		137.979,-231.131 134.575,-235.992 	"/>
	<rect x="120.869" y="-285.233" width="2" height="7.973"/>
	<rect x="101.869" y="-266.319" width="7.973" height="2"/>
	<rect x="106.542" y="-277.586" transform="matrix(0.7071 0.7071 -0.7071 0.7071 -163.2025 -159.1662)" width="7.974" height="2"/>
	<rect x="132.051" y="-280.568" transform="matrix(0.7071 0.7071 -0.7071 0.7071 -156.6034 -175.0901)" width="2" height="7.972"/>
	<path d="M151.381-259.443c-1.444-6.742-7.433-11.8-14.605-11.8c-2.185,0-4.258,0.47-6.126,1.313
		c-1.667-3.202-5.007-5.394-8.866-5.394c-5.522,0-10,4.477-10,9.999c0,2.46,0.899,4.702,2.373,6.442
		c-1.429,1.84-2.287,4.144-2.287,6.653c0,5.983,4.836,10.836,10.813,10.865v0.003h1.188v-2h-0.721l-0.457-0.003
		c-4.864-0.023-8.822-4.001-8.822-8.865c0-4.89,3.978-8.868,8.867-8.868c0.15,0,0.299,0.012,0.447,0.022l0.148,0.01l1.314,0.085
		l0.597-1.175c2.225-4.372,6.644-7.089,11.532-7.089c6.062,0,11.382,4.298,12.649,10.219l0.318,1.483l1.514,0.094
		c3.708,0.23,6.612,3.319,6.612,7.03c0,3.878-3.144,7.035-7.017,7.057c-0.042-0.003-0.079-0.005-0.117-0.005l-0.047,0.005h-0.819v2
		h0.819v-0.006c0.042,0.001,0.082,0.006,0.124,0.006c5.001,0,9.057-4.054,9.057-9.057
		C159.869-255.227,156.115-259.148,151.381-259.443z M123.461-263.061c-0.241-0.016-0.48-0.036-0.725-0.036
		c-2.766,0-5.282,1.042-7.2,2.743c-1.092-1.367-1.753-3.09-1.753-4.971c0-4.41,3.589-7.999,8-7.999c3.091,0,5.76,1.773,7.091,4.345
		C126.576-267.539,124.696-265.49,123.461-263.061z"/>
</g>
<g>
	<polygon points="-582.041,-141.199 -588.924,-151.029 -590.562,-149.882 -583.679,-140.052 -582.566,-138.463 -579.091,-133.499 
		-577.452,-134.646 -580.928,-139.61 	"/>
	<polygon points="-574.039,-141.201 -580.924,-151.029 -582.562,-149.881 -575.676,-140.053 -574.671,-138.617 -571.087,-133.502 
		-569.448,-134.648 -573.032,-139.765 	"/>
	<polygon points="-590.041,-141.199 -596.924,-151.029 -598.562,-149.881 -591.679,-140.052 -590.494,-138.359 -587.09,-133.498 
		-585.452,-134.646 -588.855,-139.507 	"/>
	<path d="M-572.05-162.958c-1.444-6.742-7.433-11.8-14.605-11.8c-1.799,0-3.522,0.32-5.118,0.904
		c-0.949-5.108-5.404-8.98-10.788-8.98c-0.413,0-0.819,0.027-1.222,0.071c0.744,1.112,1.179,2.448,1.179,3.886c0,3.865-3.134,7-7,7
		c-1.438,0-2.773-0.435-3.886-1.179c-0.044,0.401-0.071,0.809-0.071,1.222c0,3.712,1.845,6.987,4.661,8.979
		c-1.653,1.907-2.661,4.389-2.661,7.111c0,5.983,4.836,10.836,10.813,10.865v0.003h1.188v-2h-0.721l-0.457-0.003
		c-4.864-0.023-8.822-4.001-8.822-8.865c0-4.89,3.978-8.868,8.867-8.868c0.15,0,0.299,0.012,0.447,0.022l0.148,0.01l1.314,0.085
		l0.597-1.175c2.225-4.372,6.644-7.089,11.532-7.089c6.062,0,11.382,4.298,12.649,10.219l0.318,1.483l1.514,0.094
		c3.708,0.23,6.612,3.319,6.612,7.03c0,3.878-3.144,7.035-7.017,7.057c-0.042-0.003-0.079-0.005-0.117-0.005l-0.047,0.005h-0.819v2
		h0.819v-0.006c0.042,0.001,0.082,0.006,0.124,0.006c5.001,0,9.057-4.054,9.057-9.057
		C-563.562-158.741-567.315-162.663-572.05-162.958z M-599.97-166.575c-0.241-0.016-0.48-0.036-0.725-0.036
		c-2.537,0-4.865,0.876-6.715,2.334c-2.012-1.294-3.487-3.354-3.976-5.776c0.582,0.117,1.178,0.177,1.78,0.177c4.963,0,9-4.037,9-9
		c0-0.603-0.06-1.198-0.177-1.78c3.733,0.753,6.629,3.824,7.133,7.641C-596.359-171.573-598.574-169.317-599.97-166.575z"/>
</g>
<g>
	<rect x="-589.562" y="-245.046" width="2" height="4"/>
	<rect x="-581.562" y="-249.067" width="2" height="4.021"/>
	<rect x="-597.562" y="-249.067" width="2" height="4.021"/>
	<path d="M-570.934-265.034c-1.596-7.445-8.207-13.029-16.127-13.029c-6.423,0-11.977,3.678-14.702,9.035
		c-0.266-0.018-0.53-0.04-0.8-0.04c-6.627,0-11.999,5.372-11.999,12c0,6.607,5.34,11.965,11.938,11.998v0.003h2.062v-2h-1.604
		l-0.447-0.003c-5.485-0.027-9.948-4.513-9.948-9.998c0-5.514,4.485-10,9.999-10c0.175,0,0.347,0.014,0.52,0.025l0.148,0.01
		l1.316,0.088l0.598-1.176c2.492-4.899,7.443-7.942,12.92-7.942c6.79,0,12.75,4.814,14.172,11.448l0.317,1.482l1.514,0.095
		c4.203,0.262,7.496,3.763,7.496,7.971c0,4.397-3.565,7.977-7.957,8c-0.05-0.003-0.093-0.005-0.137-0.007l-2.043,0.007h-2.863v2
		h4.863v-0.007c0.046,0.001,0.091,0.007,0.137,0.007c5.521,0,10-4.477,10-10C-561.562-260.378-565.706-264.709-570.934-265.034z"/>
	<circle cx="-580.562" cy="-240.025" r="1.5"/>
	<circle cx="-588.562" cy="-236.057" r="1.5"/>
	<circle cx="-596.562" cy="-240.067" r="1.5"/>
</g>
<g>
	<rect x="-496.641" y="-284.5" width="2" height="7.973"/>
	<rect x="-515.641" y="-265.586" width="7.973" height="2"/>
	<rect x="-510.968" y="-276.852" transform="matrix(0.7071 0.7071 -0.7071 0.7071 -343.5483 277.694)" width="7.974" height="2"/>
	<rect x="-485.459" y="-279.834" transform="matrix(0.7071 0.7071 -0.7071 0.7071 -336.9492 261.77)" width="2" height="7.972"/>
	<path d="M-466.129-258.71c-1.444-6.742-7.433-11.8-14.605-11.8c-2.185,0-4.258,0.47-6.126,1.313
		c-1.667-3.202-5.007-5.394-8.866-5.394c-5.522,0-10,4.477-10,9.999c0,2.46,0.899,4.702,2.373,6.442
		c-1.429,1.84-2.287,4.144-2.287,6.653c0,5.983,4.836,10.836,10.813,10.865v0.003h1.188v-2h-0.721l-0.457-0.003
		c-4.864-0.023-8.822-4.001-8.822-8.865c0-4.89,3.978-8.868,8.867-8.868c0.15,0,0.299,0.012,0.447,0.022l0.148,0.01l1.314,0.085
		l0.597-1.175c2.225-4.372,6.644-7.089,11.532-7.089c6.062,0,11.382,4.298,12.649,10.219l0.318,1.483l1.514,0.094
		c3.708,0.23,6.612,3.319,6.612,7.03c0,3.878-3.144,7.035-7.017,7.057c-0.042-0.003-0.079-0.005-0.117-0.005l-2.047,0.005h-0.819v2
		h2.819v-0.006c0.042,0.001,0.082,0.006,0.124,0.006c5.001,0,9.057-4.054,9.057-9.057
		C-457.641-254.493-461.395-258.415-466.129-258.71z M-494.049-262.327c-0.241-0.016-0.48-0.036-0.725-0.036
		c-2.766,0-5.282,1.042-7.2,2.743c-1.092-1.367-1.753-3.09-1.753-4.971c0-4.41,3.589-7.999,8-7.999c3.091,0,5.76,1.773,7.091,4.345
		C-490.934-266.806-492.813-264.757-494.049-262.327z"/>
	<rect x="-482.641" y="-240.611" width="2" height="4"/>
	<rect x="-474.641" y="-244.633" width="2" height="4.021"/>
	<rect x="-490.641" y="-244.633" width="2" height="4.021"/>
	<circle cx="-473.641" cy="-235.591" r="1.5"/>
	<circle cx="-481.641" cy="-231.622" r="1.5"/>
	<circle cx="-489.641" cy="-235.633" r="1.5"/>
</g>
<g>
	<path d="M-365.203-259.667c-1.444-6.742-7.433-11.8-14.605-11.8c-1.799,0-3.522,0.32-5.118,0.904
		c-0.949-5.108-5.404-8.98-10.788-8.98c-0.413,0-0.819,0.027-1.222,0.071c0.744,1.112,1.179,2.448,1.179,3.886c0,3.865-3.134,7-7,7
		c-1.438,0-2.773-0.435-3.886-1.179c-0.044,0.401-0.071,0.809-0.071,1.222c0,3.712,1.845,6.987,4.661,8.979
		c-1.653,1.907-2.661,4.389-2.661,7.111c0,5.983,4.836,10.836,10.813,10.865v0.003h1.188v-2h-0.721l-0.457-0.003
		c-4.864-0.023-8.822-4.001-8.822-8.865c0-4.89,3.978-8.868,8.867-8.868c0.15,0,0.299,0.012,0.447,0.022l0.148,0.01l1.314,0.085
		l0.597-1.175c2.225-4.372,6.644-7.089,11.532-7.089c6.062,0,11.382,4.298,12.649,10.219l0.318,1.483l1.514,0.094
		c3.708,0.23,6.612,3.319,6.612,7.03c0,3.878-3.144,7.035-7.017,7.057c-0.042-0.003-0.079-0.005-0.117-0.005l-2.047,0.005h-0.819v2
		h2.819v-0.006c0.042,0.001,0.082,0.006,0.124,0.006c5.001,0,9.057-4.054,9.057-9.057
		C-356.715-255.45-360.469-259.372-365.203-259.667z M-393.123-263.284c-0.241-0.016-0.48-0.036-0.725-0.036
		c-2.537,0-4.865,0.876-6.715,2.334c-2.012-1.294-3.487-3.354-3.976-5.776c0.582,0.117,1.178,0.177,1.78,0.177c4.963,0,9-4.037,9-9
		c0-0.603-0.06-1.198-0.177-1.78c3.733,0.753,6.629,3.824,7.133,7.641C-389.513-268.282-391.728-266.026-393.123-263.284z"/>
	<rect x="-381.715" y="-241.568" width="2" height="4"/>
	<rect x="-373.715" y="-245.59" width="2" height="4.021"/>
	<rect x="-389.715" y="-245.59" width="2" height="4.021"/>
	<circle cx="-372.715" cy="-236.548" r="1.5"/>
	<circle cx="-380.715" cy="-232.579" r="1.5"/>
	<circle cx="-388.715" cy="-236.59" r="1.5"/>
</g>
<g>
	<path d="M-468.513-166.637c-1.596-7.445-8.207-13.029-16.127-13.029c-6.423,0-11.977,3.678-14.702,9.035
		c-0.266-0.018-0.53-0.04-0.8-0.04c-6.627,0-11.999,5.372-11.999,12c0,6.607,5.34,11.965,11.938,11.998v0.003h6.062v-2h-5.604
		l-0.447-0.003c-5.485-0.027-9.948-4.513-9.948-9.998c0-5.514,4.485-10,9.999-10c0.175,0,0.347,0.014,0.52,0.025l0.148,0.01
		l1.316,0.088l0.598-1.176c2.492-4.899,7.443-7.942,12.92-7.942c6.79,0,12.75,4.814,14.172,11.448l0.317,1.482l1.514,0.095
		c4.203,0.262,7.496,3.763,7.496,7.971c0,4.397-3.565,7.977-7.957,8c-0.05-0.003-0.093-0.005-0.137-0.007l-5.043,0.007h0.137v2
		h4.863v-0.007c0.046,0.001,0.091,0.007,0.137,0.007c5.521,0,10-4.477,10-10C-459.141-161.98-463.285-166.312-468.513-166.637z"/>
	<polygon points="-484.299,-146.666 -482.529,-146.666 -482.099,-146.666 -480.089,-146.666 -486.503,-155.827 -488.141,-154.68 
		-483.93,-148.666 -485.7,-148.666 -488.141,-148.666 -486.869,-146.85 -485.757,-145.261 -479.779,-136.666 -478.141,-137.813 
		-484.118,-146.408 	"/>
</g>
<g>
	<rect x="-392.715" y="-185.767" width="2" height="7.973"/>
	<rect x="-411.715" y="-166.853" width="7.973" height="2"/>
	<rect x="-407.042" y="-178.119" transform="matrix(0.7071 0.7071 -0.7071 0.7071 -243.2941 233.1257)" width="7.974" height="2"/>
	<rect x="-381.533" y="-181.101" transform="matrix(0.7071 0.7071 -0.7071 0.7071 -236.695 217.2018)" width="2" height="7.972"/>
	<path d="M-362.203-159.977c-1.444-6.742-7.433-11.8-14.605-11.8c-2.185,0-4.258,0.47-6.127,1.313
		c-1.666-3.202-5.006-5.394-8.865-5.394c-5.522,0-10,4.477-10,9.999c0,2.46,0.898,4.702,2.373,6.442
		c-1.428,1.84-2.287,4.144-2.287,6.653c0,5.983,4.836,10.836,10.813,10.865v0.003h4.188v-2h-3.721l-0.457-0.003
		c-4.864-0.023-8.822-4.001-8.822-8.865c0-4.89,3.978-8.868,8.867-8.868c0.15,0,0.299,0.012,0.447,0.022l0.148,0.01l1.314,0.085
		l0.597-1.175c2.225-4.372,6.644-7.089,11.532-7.089c6.062,0,11.382,4.298,12.649,10.219l0.318,1.483l1.514,0.094
		c3.708,0.23,6.612,3.319,6.612,7.03c0,3.878-3.144,7.035-7.017,7.057c-0.042-0.003-0.079-0.005-0.117-0.005l-2.047,0.005h-3.819v2
		h5.819v-0.006c0.042,0.001,0.082,0.006,0.124,0.006c5.001,0,9.057-4.054,9.057-9.057
		C-353.715-155.76-357.469-159.682-362.203-159.977z M-390.123-163.594c-0.241-0.016-0.48-0.036-0.725-0.036
		c-2.766,0-5.281,1.041-7.2,2.743c-1.092-1.366-1.753-3.09-1.753-4.971c0-4.41,3.589-7.999,8-7.999c3.092,0,5.76,1.773,7.092,4.345
		C-387.008-168.071-388.887-166.023-390.123-163.594z"/>
	<polygon points="-377.873,-141.887 -376.104,-141.887 -375.673,-141.887 -373.663,-141.887 -380.077,-151.048 -381.715,-149.9 
		-377.504,-143.887 -379.274,-143.887 -381.715,-143.887 -380.443,-142.07 -379.331,-140.481 -373.354,-131.887 -371.715,-133.033 
		-377.692,-141.629 	"/>
</g>
<g>
	<path d="M-262.618-162.272c-1.444-6.742-7.433-11.8-14.605-11.8c-1.799,0-3.521,0.32-5.118,0.904
		c-0.949-5.108-5.404-8.98-10.788-8.98c-0.413,0-0.819,0.027-1.222,0.071c0.744,1.112,1.179,2.448,1.179,3.886c0,3.865-3.134,7-7,7
		c-1.438,0-2.773-0.435-3.886-1.179c-0.044,0.401-0.071,0.809-0.071,1.222c0,3.712,1.845,6.987,4.661,8.979
		c-1.653,1.907-2.661,4.389-2.661,7.111c0,5.983,4.836,10.836,10.813,10.865v0.003h4.188v-2h-3.721l-0.457-0.003
		c-4.864-0.023-8.822-4.001-8.822-8.865c0-4.89,3.978-8.868,8.867-8.868c0.15,0,0.299,0.012,0.447,0.022l0.148,0.01l1.314,0.085
		l0.597-1.175c2.225-4.372,6.644-7.089,11.532-7.089c6.062,0,11.382,4.298,12.649,10.219l0.318,1.483l1.514,0.094
		c3.708,0.23,6.612,3.319,6.612,7.03c0,3.878-3.144,7.035-7.017,7.057c-0.042-0.003-0.079-0.005-0.117-0.005l-2.047,0.005h-3.819v2
		h5.819v-0.006c0.042,0.001,0.082,0.006,0.124,0.006c5.001,0,9.057-4.054,9.057-9.057
		C-254.13-158.056-257.884-161.978-262.618-162.272z M-290.538-165.89c-0.241-0.016-0.48-0.036-0.725-0.036
		c-2.537,0-4.865,0.876-6.715,2.334c-2.012-1.294-3.486-3.354-3.976-5.776c0.582,0.117,1.178,0.177,1.78,0.177c4.963,0,9-4.037,9-9
		c0-0.603-0.06-1.198-0.177-1.78c3.733,0.753,6.629,3.824,7.134,7.64C-286.929-170.888-289.144-168.633-290.538-165.89z"/>
	<polygon points="-278.288,-144.183 -276.519,-144.183 -276.088,-144.183 -274.078,-144.183 -280.492,-153.344 -282.13,-152.196 
		-277.919,-146.183 -279.689,-146.183 -282.13,-146.183 -280.858,-144.366 -279.746,-142.777 -273.769,-134.183 -272.13,-135.329 
		-278.107,-143.925 	"/>
</g>
<g>
	<path d="M-161.733-166.137c-1.596-7.445-8.207-13.029-16.127-13.029c-6.423,0-11.977,3.678-14.702,9.035
		c-0.266-0.018-0.53-0.04-0.8-0.04c-6.627,0-11.999,5.372-11.999,12c0,6.607,5.34,11.965,11.938,11.998v0.003h1.062v-2h-0.604
		l-0.447-0.003c-5.485-0.027-9.948-4.513-9.948-9.998c0-5.514,4.485-10,9.999-10c0.175,0,0.347,0.014,0.52,0.025l0.148,0.01
		l1.316,0.088l0.598-1.176c2.492-4.899,7.443-7.942,12.92-7.942c6.79,0,12.75,4.814,14.172,11.448l0.317,1.482l1.514,0.095
		c4.203,0.262,7.496,3.763,7.496,7.971c0,4.397-3.565,7.977-7.957,8c-0.05-0.003-0.093-0.005-0.137-0.007l-0.906,0.007v2h0.863
		v-0.007c0.046,0.001,0.091,0.007,0.137,0.007c5.521,0,10-4.477,10-10C-152.361-161.48-156.506-165.812-161.733-166.137z"/>
	
		<rect x="-192.927" y="-148.172" transform="matrix(-0.5736 -0.8191 0.8191 -0.5736 -174.248 -385.0442)" width="11.183" height="1.999"/>
	
		<rect x="-174.952" y="-148.172" transform="matrix(-0.5736 -0.8191 0.8191 -0.5736 -145.9625 -370.321)" width="11.183" height="1.999"/>
	<polygon points="-176.52,-143.166 -174.75,-143.166 -174.319,-143.166 -172.31,-143.166 -178.724,-152.327 -180.361,-151.18 
		-176.15,-145.166 -177.921,-145.166 -180.361,-145.166 -179.09,-143.35 -177.978,-141.761 -173.361,-135.166 -171.723,-136.313 
		-176.339,-142.908 	"/>
</g>
<g>
	<rect x="-86.886" y="-185.604" width="2" height="7.973"/>
	<rect x="-105.886" y="-166.689" width="7.973" height="2"/>
	<rect x="-101.213" y="-177.956" transform="matrix(0.7071 0.7071 -0.7071 0.7071 -153.6035 16.9196)" width="7.974" height="2"/>
	<rect x="-75.704" y="-180.938" transform="matrix(0.7071 0.7071 -0.7071 0.7071 -147.0044 0.9957)" width="2" height="7.972"/>
	<path d="M-56.374-159.813c-1.444-6.742-7.433-11.8-14.605-11.8c-2.185,0-4.258,0.47-6.126,1.313
		c-1.667-3.202-5.007-5.394-8.866-5.394c-5.522,0-10,4.477-10,9.999c0,2.46,0.899,4.702,2.373,6.442
		c-1.429,1.84-2.287,4.144-2.287,6.653c0,5.983,4.836,10.836,10.813,10.865v0.003h0.188v-2l-0.178-0.003
		c-4.864-0.023-8.822-4.001-8.822-8.865c0-4.89,3.978-8.868,8.867-8.868c0.15,0,0.299,0.012,0.447,0.022l0.148,0.01l1.314,0.085
		l0.597-1.175c2.225-4.372,6.644-7.089,11.532-7.089c6.062,0,11.382,4.298,12.649,10.219l0.318,1.483l1.514,0.094
		c3.708,0.23,6.612,3.319,6.612,7.03c0,3.878-3.144,7.035-7.017,7.057c-0.042-0.003-0.079-0.005-0.117-0.005l-0.866,0.005v2h0.819
		v-0.006c0.042,0.001,0.082,0.006,0.124,0.006c5.001,0,9.057-4.054,9.057-9.057C-47.886-155.597-51.64-159.519-56.374-159.813z
		 M-84.294-163.431c-0.241-0.016-0.48-0.036-0.725-0.036c-2.766,0-5.282,1.042-7.2,2.743c-1.092-1.367-1.753-3.09-1.753-4.971
		c0-4.41,3.589-7.999,8-7.999c3.091,0,5.76,1.773,7.091,4.345C-81.179-167.909-83.059-165.86-84.294-163.431z"/>
	
		<rect x="-86.464" y="-143.733" transform="matrix(-0.5736 -0.8191 0.8191 -0.5736 -10.3496 -290.8549)" width="11.183" height="1.999"/>
	
		<rect x="-68.489" y="-143.733" transform="matrix(-0.5736 -0.8191 0.8191 -0.5736 17.936 -276.1318)" width="11.183" height="1.999"/>
	<polygon points="-70.057,-138.728 -68.287,-138.728 -67.856,-138.728 -65.847,-138.728 -72.261,-147.889 -73.898,-146.741 
		-69.688,-140.728 -71.458,-140.728 -73.898,-140.728 -72.627,-138.911 -71.515,-137.322 -66.898,-130.728 -65.26,-131.874 
		-69.876,-138.47 	"/>
</g>
<g>
	<path d="M45.464-162.771c-1.444-6.742-7.433-11.8-14.605-11.8c-1.799,0-3.522,0.32-5.118,0.904
		c-0.949-5.108-5.404-8.98-10.788-8.98c-0.413,0-0.819,0.027-1.222,0.071c0.744,1.112,1.179,2.448,1.179,3.886c0,3.865-3.134,7-7,7
		c-1.438,0-2.773-0.435-3.886-1.179c-0.044,0.401-0.071,0.809-0.071,1.222c0,3.712,1.845,6.987,4.661,8.979
		c-1.653,1.907-2.661,4.389-2.661,7.111c0,5.983,4.836,10.836,10.813,10.865v0.003h0.188v-2l-0.178-0.003
		c-4.864-0.023-8.822-4.001-8.822-8.865c0-4.89,3.978-8.868,8.867-8.868c0.15,0,0.299,0.012,0.447,0.022l0.148,0.01l1.314,0.085
		l0.597-1.175c2.225-4.372,6.644-7.089,11.532-7.089c6.062,0,11.382,4.298,12.649,10.219l0.318,1.483l1.514,0.094
		c3.708,0.23,6.612,3.319,6.612,7.03c0,3.878-3.144,7.035-7.017,7.057c-0.042-0.003-0.079-0.005-0.117-0.005l-0.866,0.005v2h0.819
		v-0.006c0.042,0.001,0.082,0.006,0.124,0.006c5.001,0,9.057-4.054,9.057-9.057C53.952-158.555,50.198-162.477,45.464-162.771z
		 M17.544-166.389c-0.241-0.016-0.48-0.036-0.725-0.036c-2.537,0-4.865,0.876-6.715,2.334c-2.012-1.294-3.487-3.354-3.976-5.776
		c0.582,0.117,1.178,0.177,1.78,0.177c4.963,0,9-4.037,9-9c0-0.603-0.06-1.198-0.177-1.78c3.733,0.753,6.629,3.824,7.133,7.641
		C21.154-171.387,18.939-169.131,17.544-166.389z"/>
	
		<rect x="15.373" y="-146.691" transform="matrix(-0.5736 -0.8191 0.8191 -0.5736 152.3278 -212.0942)" width="11.183" height="1.999"/>
	
		<rect x="33.347" y="-146.691" transform="matrix(-0.5736 -0.8191 0.8191 -0.5736 180.6134 -197.3711)" width="11.183" height="1.999"/>
	<polygon points="31.78,-141.686 33.55,-141.686 33.98,-141.686 35.99,-141.686 29.576,-150.847 27.938,-149.699 32.149,-143.686 
		30.379,-143.686 27.938,-143.686 29.21,-141.869 30.322,-140.28 34.938,-133.686 36.577,-134.832 31.961,-141.428 	"/>
</g>
<g>
	<g>
		<path d="M-365.099-76.316c-1.596-7.445-8.207-13.029-16.127-13.029c-6.423,0-11.977,3.678-14.702,9.035
			c-0.266-0.018-0.53-0.04-0.8-0.04c-6.627,0-11.999,5.372-11.999,12c0,6.607,5.34,11.965,11.938,11.998v0.003h2.062v-2h-1.604
			l-0.447-0.003c-5.485-0.027-9.948-4.513-9.948-9.998c0-5.514,4.485-10,9.999-10c0.175,0,0.347,0.014,0.52,0.025l0.148,0.01
			l1.316,0.088l0.598-1.176c2.492-4.899,7.443-7.942,12.92-7.942c6.79,0,12.75,4.814,14.172,11.448l0.317,1.482l1.514,0.095
			c4.203,0.262,7.496,3.763,7.496,7.971c0,4.397-3.565,7.977-7.957,8c-0.05-0.003-0.093-0.005-0.137-0.007l-2.043,0.007h-2.863v2
			h4.863v-0.007c0.046,0.001,0.091,0.007,0.137,0.007c5.521,0,10-4.477,10-10C-355.727-71.66-359.871-75.991-365.099-76.316z"/>
	</g>
	<g>
		<circle cx="-390.227" cy="-62.773" r="1.5"/>
	</g>
	<g>
		<circle cx="-386.227" cy="-56.85" r="1.5"/>
	</g>
	<g>
		<circle cx="-378.227" cy="-56.85" r="1.5"/>
	</g>
	<g>
		<circle cx="-382.227" cy="-62.773" r="1.5"/>
	</g>
	<g>
		<circle cx="-374.227" cy="-62.773" r="1.5"/>
	</g>
	<g>
		<circle cx="-390.227" cy="-50.828" r="1.5"/>
	</g>
	<g>
		<circle cx="-382.227" cy="-50.828" r="1.5"/>
	</g>
	<g>
		<circle cx="-374.227" cy="-50.828" r="1.5"/>
	</g>
</g>
<g>
	<g>
		<rect x="-289.313" y="-91.794" width="2" height="7.973"/>
	</g>
	<g>
		<rect x="-308.313" y="-72.88" width="7.973" height="2"/>
	</g>
	<g>
		<rect x="-303.639" y="-84.146" transform="matrix(0.7071 0.7071 -0.7071 0.7071 -146.5596 187.5331)" width="7.974" height="2"/>
	</g>
	<g>
		<rect x="-278.131" y="-87.128" transform="matrix(0.7071 0.7071 -0.7071 0.7071 -139.9604 171.6092)" width="2" height="7.972"/>
	</g>
	<g>
		<path d="M-258.801-66.004c-1.444-6.742-7.433-11.8-14.605-11.8c-2.185,0-4.258,0.47-6.127,1.313
			c-1.666-3.202-5.006-5.394-8.865-5.394c-5.522,0-10,4.477-10,9.999c0,2.46,0.898,4.702,2.373,6.442
			c-1.428,1.84-2.287,4.144-2.287,6.653c0,5.983,4.836,10.836,10.813,10.865v0.003h1.188v-2h-0.721l-0.457-0.003
			c-4.864-0.023-8.822-4.001-8.822-8.865c0-4.89,3.978-8.868,8.867-8.868c0.15,0,0.299,0.012,0.447,0.022l0.148,0.01l1.314,0.085
			l0.597-1.175c2.225-4.372,6.644-7.089,11.532-7.089c6.062,0,11.382,4.298,12.649,10.219l0.318,1.483l1.514,0.094
			c3.708,0.23,6.612,3.319,6.612,7.03c0,3.878-3.144,7.035-7.017,7.057c-0.042-0.003-0.079-0.005-0.117-0.005l-2.047,0.005h-1.819v2
			h3.819v-0.006c0.042,0.001,0.082,0.006,0.124,0.006c5.001,0,9.057-4.054,9.057-9.057
			C-250.313-61.787-254.066-65.709-258.801-66.004z M-286.721-69.621c-0.241-0.016-0.48-0.036-0.725-0.036
			c-2.766,0-5.281,1.042-7.2,2.743c-1.092-1.367-1.753-3.09-1.753-4.971c0-4.41,3.589-7.999,8-7.999c3.092,0,5.76,1.773,7.092,4.345
			C-283.605-74.1-285.484-72.051-286.721-69.621z"/>
	</g>
	<g>
		<circle cx="-282.823" cy="-54.41" r="1.5"/>
	</g>
	<g>
		<circle cx="-278.823" cy="-48.41" r="1.5"/>
	</g>
	<g>
		<circle cx="-270.823" cy="-48.41" r="1.5"/>
	</g>
	<g>
		<circle cx="-274.823" cy="-54.41" r="1.5"/>
	</g>
	<g>
		<circle cx="-266.823" cy="-54.41" r="1.5"/>
	</g>
	<g>
		<circle cx="-282.823" cy="-42.389" r="1.5"/>
	</g>
	<g>
		<circle cx="-274.823" cy="-42.389" r="1.5"/>
	</g>
	<g>
		<circle cx="-266.823" cy="-42.389" r="1.5"/>
	</g>
</g>
<g>
	<g>
		<path d="M-162.85-69.96c-1.444-6.742-7.433-11.8-14.605-11.8c-1.799,0-3.521,0.32-5.118,0.904
			c-0.949-5.108-5.404-8.98-10.788-8.98c-0.413,0-0.819,0.027-1.222,0.071c0.744,1.112,1.179,2.448,1.179,3.886c0,3.865-3.134,7-7,7
			c-1.438,0-2.773-0.435-3.886-1.179c-0.044,0.401-0.071,0.809-0.071,1.222c0,3.712,1.845,6.987,4.661,8.979
			c-1.653,1.907-2.661,4.389-2.661,7.111c0,5.983,4.836,10.836,10.813,10.865v0.003h1.188v-2h-0.721l-0.457-0.003
			c-4.864-0.023-8.822-4.001-8.822-8.865c0-4.89,3.978-8.868,8.867-8.868c0.15,0,0.299,0.012,0.447,0.022l0.148,0.01l1.314,0.085
			l0.597-1.175c2.225-4.372,6.644-7.089,11.532-7.089c6.062,0,11.382,4.298,12.649,10.219l0.318,1.483l1.514,0.094
			c3.708,0.23,6.612,3.319,6.612,7.03c0,3.878-3.144,7.035-7.017,7.057c-0.042-0.003-0.079-0.005-0.117-0.005l-2.047,0.005h-1.819v2
			h3.819v-0.006c0.042,0.001,0.082,0.006,0.124,0.006c5.001,0,9.057-4.054,9.057-9.057C-154.361-65.743-158.115-69.665-162.85-69.96
			z M-190.77-73.577c-0.241-0.016-0.48-0.036-0.725-0.036c-2.537,0-4.865,0.876-6.715,2.334c-2.012-1.294-3.486-3.354-3.976-5.776
			c0.582,0.117,1.178,0.177,1.78,0.177c4.963,0,9-4.037,9-9c0-0.603-0.06-1.198-0.177-1.78c3.733,0.753,6.629,3.824,7.134,7.64
			C-187.16-78.575-189.375-76.32-190.77-73.577z"/>
	</g>
	<g>
		<circle cx="-186.861" cy="-58.367" r="1.5"/>
	</g>
	<g>
		<circle cx="-182.861" cy="-52.367" r="1.5"/>
	</g>
	<g>
		<circle cx="-174.861" cy="-52.367" r="1.5"/>
	</g>
	<g>
		<circle cx="-178.861" cy="-58.367" r="1.5"/>
	</g>
	<g>
		<circle cx="-170.861" cy="-58.367" r="1.5"/>
	</g>
	<g>
		<circle cx="-186.861" cy="-46.346" r="1.5"/>
	</g>
	<g>
		<circle cx="-178.861" cy="-46.346" r="1.5"/>
	</g>
	<g>
		<circle cx="-170.861" cy="-46.346" r="1.5"/>
	</g>
</g>
<g>
	<path d="M148.315-168.846c-1.596-7.445-8.207-13.029-16.127-13.029c-6.423,0-11.977,3.678-14.702,9.035
		c-0.266-0.018-0.53-0.04-0.8-0.04c-6.627,0-11.999,5.372-11.999,12c0,6.607,5.34,11.965,11.938,11.998v0.003h2.062v-2h-1.604
		l-0.447-0.003c-5.485-0.027-9.948-4.513-9.948-9.998c0-5.514,4.485-10,9.999-10c0.175,0,0.347,0.014,0.52,0.025l0.148,0.01
		l1.316,0.088l0.598-1.176c2.492-4.899,7.443-7.942,12.92-7.942c6.79,0,12.75,4.814,14.172,11.448l0.317,1.482l1.514,0.095
		c4.203,0.262,7.496,3.763,7.496,7.971c0,4.397-3.565,7.977-7.957,8c-0.05-0.003-0.093-0.005-0.137-0.007l-2.043,0.007h-2.863v2
		h4.863v-0.007c0.046,0.001,0.091,0.007,0.137,0.007c5.521,0,10-4.477,10-10C157.688-164.189,153.543-168.521,148.315-168.846z"/>
	<circle cx="122.688" cy="-141.375" r="1.5"/>
	<circle cx="130.688" cy="-135.375" r="1.5"/>
	<circle cx="138.688" cy="-139.375" r="1.5"/>
	<rect x="121.688" y="-157.851" width="2" height="11.976"/>
	<polygon points="131.688,-139.91 131.688,-141.851 131.688,-153.851 129.688,-153.851 129.688,-141.851 129.688,-139.91 
		129.688,-139.875 131.688,-139.875 	"/>
	<polygon points="139.688,-144.098 139.688,-145.851 139.688,-157.851 137.688,-157.851 137.688,-145.851 137.688,-144.098 
		137.688,-143.875 139.688,-143.875 	"/>
</g>
<g>
	<rect x="-600.062" y="-97.232" width="2" height="7.973"/>
	<rect x="-619.062" y="-78.318" width="7.973" height="2"/>
	<rect x="-614.388" y="-89.585" transform="matrix(0.7071 0.7071 -0.7071 0.7071 -241.4215 405.673)" width="7.974" height="2"/>
	<rect x="-588.88" y="-92.567" transform="matrix(0.7071 0.7071 -0.7071 0.7071 -234.8223 389.7491)" width="2" height="7.972"/>
	<path d="M-569.55-71.442c-1.444-6.742-7.433-11.8-14.605-11.8c-2.185,0-4.258,0.47-6.126,1.313
		c-1.667-3.202-5.007-5.394-8.866-5.394c-5.522,0-10,4.477-10,9.999c0,2.46,0.899,4.702,2.373,6.442
		c-1.429,1.84-2.287,4.144-2.287,6.653c0,5.983,4.836,10.836,10.813,10.865v0.003h1.188v-2h-0.721l-0.457-0.003
		c-4.864-0.023-8.822-4.001-8.822-8.865c0-4.89,3.978-8.868,8.867-8.868c0.15,0,0.299,0.012,0.447,0.022l0.148,0.01l1.314,0.085
		l0.597-1.175c2.225-4.372,6.644-7.089,11.532-7.089c6.062,0,11.382,4.298,12.649,10.219l0.318,1.483l1.514,0.094
		c3.708,0.23,6.612,3.319,6.612,7.03c0,3.878-3.144,7.035-7.017,7.057c-0.042-0.003-0.079-0.005-0.117-0.005l-2.047,0.005h-0.819v2
		h2.819v-0.006c0.042,0.001,0.082,0.006,0.124,0.006c5.001,0,9.057-4.054,9.057-9.057C-561.062-67.226-564.815-71.147-569.55-71.442
		z M-597.47-75.06c-0.241-0.016-0.48-0.036-0.725-0.036c-2.766,0-5.282,1.041-7.2,2.743c-1.092-1.366-1.753-3.09-1.753-4.971
		c0-4.41,3.589-7.999,8-7.999c3.091,0,5.76,1.773,7.091,4.345C-594.354-79.537-596.234-77.489-597.47-75.06z"/>
	<circle cx="-593.071" cy="-44.872" r="1.5"/>
	<circle cx="-585.071" cy="-38.872" r="1.5"/>
	<circle cx="-577.071" cy="-42.872" r="1.5"/>
	<rect x="-594.071" y="-61.348" width="2" height="11.976"/>
	<polygon points="-584.071,-43.407 -584.071,-45.348 -584.071,-57.348 -586.071,-57.348 -586.071,-45.348 -586.071,-43.407 
		-586.071,-43.372 -584.071,-43.372 	"/>
	<polygon points="-576.071,-47.595 -576.071,-49.348 -576.071,-61.348 -578.071,-61.348 -578.071,-49.348 -578.071,-47.595 
		-578.071,-47.372 -576.071,-47.372 	"/>
</g>
<g>
	<path d="M-468.947-74.44c-1.444-6.742-7.433-11.8-14.605-11.8c-1.799,0-3.522,0.32-5.118,0.904
		c-0.949-5.108-5.404-8.98-10.788-8.98c-0.413,0-0.819,0.027-1.222,0.071c0.744,1.112,1.179,2.448,1.179,3.886c0,3.865-3.134,7-7,7
		c-1.438,0-2.773-0.435-3.886-1.179c-0.044,0.401-0.071,0.809-0.071,1.222c0,3.712,1.845,6.987,4.661,8.979
		c-1.653,1.907-2.661,4.389-2.661,7.111c0,5.983,4.836,10.836,10.813,10.865v0.003h1.188v-2h-0.721l-0.457-0.003
		c-4.864-0.023-8.822-4.001-8.822-8.865c0-4.89,3.978-8.868,8.867-8.868c0.15,0,0.299,0.012,0.447,0.022l0.148,0.01l1.314,0.085
		l0.597-1.175c2.225-4.372,6.644-7.089,11.532-7.089c6.062,0,11.382,4.298,12.649,10.219l0.318,1.483l1.514,0.094
		c3.708,0.23,6.612,3.319,6.612,7.03c0,3.878-3.144,7.035-7.017,7.057c-0.042-0.003-0.079-0.005-0.117-0.005l-2.047,0.005h-0.819v2
		h2.819v-0.006c0.042,0.001,0.082,0.006,0.124,0.006c5.001,0,9.057-4.054,9.057-9.057C-460.459-70.224-464.213-74.146-468.947-74.44
		z M-496.867-78.058c-0.241-0.016-0.48-0.036-0.725-0.036c-2.537,0-4.865,0.876-6.715,2.334c-2.012-1.294-3.487-3.354-3.976-5.776
		c0.582,0.117,1.178,0.177,1.78,0.177c4.963,0,9-4.037,9-9c0-0.603-0.06-1.198-0.177-1.78c3.733,0.753,6.629,3.824,7.133,7.64
		C-493.257-83.056-495.472-80.801-496.867-78.058z"/>
	<circle cx="-492.459" cy="-47.866" r="1.5"/>
	<circle cx="-484.459" cy="-41.866" r="1.5"/>
	<circle cx="-476.459" cy="-45.866" r="1.5"/>
	<rect x="-493.459" y="-64.342" width="2" height="11.976"/>
	<polygon points="-483.459,-46.401 -483.459,-48.342 -483.459,-60.342 -485.459,-60.342 -485.459,-48.342 -485.459,-46.401 
		-485.459,-46.366 -483.459,-46.366 	"/>
	<polygon points="-475.459,-50.589 -475.459,-52.342 -475.459,-64.342 -477.459,-64.342 -477.459,-52.342 -477.459,-50.589 
		-477.459,-50.366 -475.459,-50.366 	"/>
</g>
<g>
	<rect x="-617.062" y="30" width="56" height="2"/>
	<rect x="-613.062" y="36" width="50" height="2"/>
	<rect x="-607.062" y="42" width="36" height="2"/>
	<rect x="-615.062" y="24" width="52" height="2"/>
	<path d="M-603.188,15.995c0.175,0,0.347,0.014,0.519,0.025l0.149,0.01l1.316,0.088l0.598-1.176
		c2.493-4.899,7.443-7.942,12.92-7.942c6.79,0,12.75,4.814,14.171,11.448l0.318,1.482l1.514,0.095
		c1.207,0.075,2.335,0.425,3.336,0.975h3.286c-1.678-1.703-3.957-2.813-6.498-2.971C-573.154,10.584-579.766,5-587.686,5
		c-6.423,0-11.977,3.678-14.702,9.035c-0.266-0.018-0.53-0.04-0.8-0.04c-4.843,0-9.004,2.874-10.9,7.005h2.251
		C-610.105,18.014-606.881,15.995-603.188,15.995z"/>
</g>
<g>
	<rect x="-495.959" y="2.485" width="2" height="7.973"/>
	<rect x="-514.959" y="21.399" width="7.973" height="2"/>
	<rect x="-510.286" y="10.133" transform="matrix(0.7071 0.7071 -0.7071 0.7071 -140.4194 361.268)" width="7.974" height="2"/>
	<rect x="-484.777" y="7.151" transform="matrix(0.7071 0.7071 -0.7071 0.7071 -133.8203 345.3441)" width="2" height="7.972"/>
	<rect x="-505.959" y="36.359" width="50" height="2"/>
	<rect x="-501.959" y="42.359" width="44" height="2"/>
	<rect x="-495.959" y="47.359" width="30" height="2"/>
	<rect x="-503.959" y="30.359" width="46" height="2"/>
	<path d="M-503.051,28.359h0.771h1.927h1.012c1.472-1.087,3.283-1.737,5.249-1.737c0.15,0,0.299,0.012,0.447,0.022l0.148,0.01
		l1.314,0.085l0.597-1.175c2.225-4.372,6.644-7.089,11.532-7.089c5.945,0,11.168,4.139,12.563,9.884h2.043v-0.084
		c-1.444-6.742-7.433-11.8-14.605-11.8c-2.185,0-4.258,0.47-6.126,1.313c-1.667-3.202-5.007-5.394-8.866-5.394
		c-5.522,0-10,4.477-10,9.999C-505.045,24.636-504.297,26.694-503.051,28.359z M-495.045,14.396c3.091,0,5.76,1.773,7.091,4.345
		c-2.298,1.44-4.178,3.488-5.413,5.918c-0.241-0.016-0.48-0.036-0.725-0.036c-2.764,0-5.274,1.045-7.189,2.745
		c-1.097-1.366-1.764-3.089-1.764-4.973C-503.045,17.984-499.456,14.396-495.045,14.396z"/>
</g>
<g>
	<rect x="-407.215" y="32.922" width="50" height="2"/>
	<rect x="-403.215" y="38.922" width="44" height="2"/>
	<rect x="-397.215" y="43.922" width="30" height="2"/>
	<rect x="-405.215" y="26.922" width="46" height="2"/>
	<path d="M-403.572,24.922h0.037h1.884h1.055c1.472-1.087,3.283-1.737,5.249-1.737c0.15,0,0.299,0.012,0.447,0.022l0.148,0.01
		l1.314,0.085l0.597-1.175c2.225-4.372,6.644-7.089,11.532-7.089c5.945,0,11.168,4.139,12.563,9.884h2.043v-0.084
		c-1.444-6.742-7.433-11.8-14.605-11.8c-1.799,0-3.521,0.32-5.117,0.903c-0.945-5.111-5.402-8.987-10.789-8.987
		c-0.413,0-0.819,0.027-1.222,0.071c0.744,1.112,1.179,2.448,1.179,3.886c0,3.865-3.134,7-7,7c-1.438,0-2.773-0.435-3.886-1.179
		c-0.044,0.401-0.071,0.809-0.071,1.222C-408.215,19.658-406.379,22.929-403.572,24.922z M-404.258,17.911c4.963,0,9-4.037,9-9
		c0-0.603-0.06-1.198-0.177-1.78c3.735,0.753,6.633,3.828,7.134,7.647c-2.712,1.443-4.927,3.699-6.322,6.442
		c-0.241-0.016-0.48-0.036-0.725-0.036c-2.534,0-4.855,0.879-6.701,2.335c-2.02-1.293-3.5-3.356-3.989-5.785
		C-405.456,17.852-404.86,17.911-404.258,17.911z"/>
</g>
<g>
	<path d="M-275.323,35.936h-19.474l-0.578-0.003c-5.485-0.027-9.948-4.513-9.948-9.998c0-5.514,4.485-10,9.999-10
		c0.175,0,0.347,0.014,0.519,0.025l0.149,0.01l1.316,0.088l0.598-1.176c2.493-4.899,7.443-7.942,12.92-7.942
		c6.79,0,12.75,4.814,14.171,11.448l0.318,1.482l1.514,0.095c1.822,0.113,3.463,0.845,4.746,1.971h2.732
		c-1.707-2.262-4.348-3.78-7.354-3.967c-1.596-7.445-8.207-13.029-16.127-13.029c-6.423,0-11.977,3.678-14.702,9.035
		c-0.266-0.018-0.53-0.04-0.8-0.04c-6.627,0-11.999,5.372-11.999,12c0,6.607,5.34,11.965,11.938,11.998v0.003h20.062
		c2.205,0,4,1.794,4,4s-1.795,4-4,4v2c3.314,0,6-2.686,6-6C-269.323,38.622-272.009,35.936-275.323,35.936z"/>
	<path d="M-271.323,31.936h-15.988v2h15.988c3.314,0,6-2.687,6-6c0-3.314-2.686-6-6-6v2c2.205,0,4,1.794,4,4
		S-269.118,31.936-271.323,31.936z"/>
	<path d="M-258.323,25.936c1.654,0,3,1.346,3,3s-1.346,3-3,3c-0.043,0-0.083-0.011-0.126-0.013h-4.862
		c0.003,0.005,0.009,0.008,0.012,0.013h-0.023v2h5.5v-0.051c2.523-0.254,4.5-2.358,4.5-4.949c0-2.762-2.238-5-5-5V25.936z"/>
	<path d="M-254.323,35.936h-13v2h9.022c-0.004,0.005-0.008,0.008-0.011,0.013h3.862c0.043-0.002,0.083-0.013,0.126-0.013
		c1.654,0,3,1.346,3,3s-1.346,3-3,3v2c2.762,0,5-2.238,5-5S-251.562,35.936-254.323,35.936z"/>
	<rect x="-293.323" y="31.936" width="4" height="2"/>
</g>
<path d="M-482.885-363.168c6.95,1.305,12.226,7.419,12.226,14.742c0,8.272-6.729,15.002-15,15.002
	c-6.79,0-12.531-4.49-14.366-10.728c1.398,0.461,2.867,0.698,4.366,0.698c7.72,0,14-6.281,14-14.001
	C-481.659-359.438-482.083-361.383-482.885-363.168 M-485.659-365.425c-0.338,0-0.668,0.031-1,0.051c1.861,2.113,3,4.881,3,7.92
	c0,6.627-5.372,12.001-12,12.001c-2.599,0-4.998-0.835-6.963-2.239c0.387,9.047,7.821,16.269,16.963,16.269
	c9.39,0,17-7.612,17-17.002S-476.27-365.425-485.659-365.425L-485.659-365.425z"/>
<g>
	<path d="M-589.055-360.43c-7.18,0-13,5.819-13,12.999c0,7.181,5.82,13.002,13,13.002s13-5.821,13-13.002
		C-576.055-354.61-581.875-360.43-589.055-360.43z M-589.055-336.429c-6.065,0-11-4.936-11-11.002c0-6.064,4.935-10.999,11-10.999
		s11,4.935,11,10.999C-578.055-341.364-582.989-336.429-589.055-336.429z"/>
	<rect x="-590.062" y="-373.424" width="2" height="10"/>
	<rect x="-590.062" y="-331.424" width="2" height="10"/>
	<rect x="-615.055" y="-348.424" width="9.993" height="2"/>
	<rect x="-573.062" y="-348.424" width="10.007" height="2"/>
	<rect x="-575.362" y="-367.338" transform="matrix(0.7071 0.7071 -0.7071 0.7071 -424.2936 300.0687)" width="2" height="10.409"/>
	
		<rect x="-604.77" y="-337.929" transform="matrix(-0.7071 -0.7071 0.7071 -0.7071 -795.4292 -994.9258)" width="2" height="10.41"/>
	<rect x="-608.971" y="-363.128" transform="matrix(0.7071 0.7071 -0.7071 0.7071 -432.9025 320.8621)" width="10.409" height="2"/>
	
		<rect x="-579.562" y="-333.719" transform="matrix(-0.7072 -0.7071 0.7071 -0.7072 -745.2639 -974.108)" width="10.41" height="2"/>
</g>
<g>
	<rect x="-190.889" y="-2.563" width="2" height="7.973"/>
	<rect x="-209.861" y="16.424" width="7.973" height="2"/>
	<rect x="-205.136" y="5.205" transform="matrix(0.7071 0.7071 -0.7071 0.7071 -54.5274 144.0509)" width="7.974" height="2"/>
	<rect x="-179.627" y="2.223" transform="matrix(0.7071 0.7071 -0.7071 0.7071 -47.9282 128.1269)" width="2" height="7.972"/>
	<path d="M-175.861,39.438l0.005-0.007h-12.536l-0.594-0.003c-4.864-0.024-8.822-4.001-8.822-8.865c0-4.89,3.978-8.868,8.867-8.868
		c0.15,0,0.299,0.012,0.447,0.021l0.148,0.011l1.314,0.085l0.597-1.174c2.225-4.373,6.644-7.09,11.532-7.09
		c5.916,0,11.114,4.099,12.54,9.8h2.065c-1.444-6.742-7.433-11.8-14.605-11.8c-2.185,0-4.258,0.47-6.126,1.313
		c-1.667-3.202-5.007-5.394-8.866-5.394c-5.522,0-10,4.477-10,9.999c0,2.46,0.899,4.702,2.373,6.442
		c-1.429,1.84-2.287,4.144-2.287,6.653c0,5.983,4.836,10.836,10.813,10.865v0.003h13.135v0.007c2.205,0,4,1.794,4,4s-1.795,4-4,4v2
		c3.314,0,6-2.686,6-6C-169.861,42.124-172.547,39.438-175.861,39.438z M-189.895,9.468c3.091,0,5.76,1.773,7.091,4.345
		c-2.298,1.439-4.178,3.488-5.413,5.918c-0.241-0.016-0.48-0.036-0.725-0.036c-2.766,0-5.282,1.042-7.2,2.743
		c-1.092-1.367-1.753-3.09-1.753-4.971C-197.895,13.057-194.306,9.468-189.895,9.468z"/>
	<path d="M-171.861,35.438h-9.988v2h9.988c3.314,0,6-2.687,6-6c0-3.314-2.686-6-6-6v2c2.205,0,4,1.794,4,4
		S-169.656,35.438-171.861,35.438z"/>
	<path d="M-163.838,35.438h-0.023v2h5.5v-0.051c2.523-0.254,4.5-2.358,4.5-4.949c0-2.762-2.238-5-5-5v2c1.654,0,3,1.346,3,3
		s-1.346,3-3,3c-0.043,0-0.083-0.011-0.126-0.013h-4.862C-163.847,35.43-163.841,35.434-163.838,35.438z"/>
	<path d="M-154.861,39.438h-13v2h9.022c-0.004,0.004-0.008,0.008-0.011,0.013h3.862c0.043-0.002,0.083-0.013,0.126-0.013
		c1.654,0,3,1.346,3,3s-1.346,3-3,3v2c2.762,0,5-2.238,5-5S-152.1,39.438-154.861,39.438z"/>
	<rect x="-187.861" y="35.438" width="4" height="2"/>
</g>
<g>
	<path d="M-75.899,37.432l0.005-0.007h-12.536l-0.594-0.003c-4.864-0.024-8.822-4.001-8.822-8.865c0-4.89,3.978-8.868,8.867-8.868
		c0.15,0,0.299,0.012,0.447,0.021l0.148,0.011l1.314,0.085l0.597-1.174c2.225-4.373,6.644-7.09,11.532-7.09
		c5.916,0,11.114,4.099,12.54,9.8h2.065c-1.444-6.742-7.433-11.8-14.605-11.8c-1.806,0-3.536,0.322-5.138,0.91
		c-0.938-5.123-5.4-9.01-10.794-9.01c-0.413,0-0.819,0.027-1.222,0.071c0.744,1.112,1.179,2.448,1.179,3.886c0,3.865-3.134,7-7,7
		c-1.438,0-2.773-0.435-3.886-1.179c-0.044,0.401-0.071,0.809-0.071,1.222c0,3.725,1.858,7.009,4.69,8.998
		c-1.655,1.907-2.665,4.392-2.665,7.116c0,5.983,4.836,10.836,10.813,10.865v0.003h13.135v0.007c2.205,0,4,1.794,4,4s-1.795,4-4,4v2
		c3.314,0,6-2.686,6-6C-69.899,40.118-72.585,37.432-75.899,37.432z M-99.695,14.223c0.582,0.117,1.178,0.177,1.78,0.177
		c4.963,0,9-4.037,9-9c0-0.603-0.06-1.198-0.177-1.78c3.744,0.755,6.646,3.842,7.138,7.674c-2.702,1.444-4.909,3.696-6.301,6.432
		c-0.241-0.016-0.48-0.036-0.725-0.036c-2.535,0-4.861,0.875-6.71,2.33C-97.718,18.727-99.204,16.658-99.695,14.223z"/>
	<path d="M-71.899,33.432h-9.988v2h9.988c3.314,0,6-2.687,6-6c0-3.314-2.686-6-6-6v2c2.205,0,4,1.794,4,4
		S-69.694,33.432-71.899,33.432z"/>
	<path d="M-63.876,33.432h-0.023v2h5.5v-0.051c2.523-0.254,4.5-2.358,4.5-4.949c0-2.762-2.238-5-5-5v2c1.654,0,3,1.346,3,3
		s-1.346,3-3,3c-0.043,0-0.083-0.011-0.126-0.013h-4.862C-63.885,33.424-63.879,33.428-63.876,33.432z"/>
	<path d="M-54.899,37.432h-13v2h9.022c-0.004,0.004-0.008,0.008-0.011,0.013h3.862c0.043-0.002,0.083-0.013,0.126-0.013
		c1.654,0,3,1.346,3,3s-1.346,3-3,3v2c2.762,0,5-2.238,5-5S-52.138,37.432-54.899,37.432z"/>
	<rect x="-87.899" y="33.432" width="4" height="2"/>
</g>
<g>
	<rect x="24.993" width="2" height="10"/>
	<rect y="25" width="9.993" height="2"/>
	<rect x="39.693" y="6.086" transform="matrix(0.7071 0.7071 -0.7071 0.7071 19.9023 -25.4673)" width="2" height="10.409"/>
	<rect x="6.084" y="10.296" transform="matrix(0.7071 0.7071 -0.7071 0.7071 11.2934 -4.6739)" width="10.409" height="2"/>
	<path d="M29.993,40h-24v2h24c2.205,0,4,1.794,4,4s-1.795,4-4,4v2c3.314,0,6-2.686,6-6C35.993,42.687,33.308,40,29.993,40z"/>
	<path d="M42.017,36h-0.023v2h5.5v-0.051c2.523-0.254,4.5-2.358,4.5-4.949c0-2.762-2.238-5-5-5v2c1.654,0,3,1.346,3,3s-1.346,3-3,3
		c-0.043,0-0.083-0.011-0.126-0.013h-4.862C42.008,35.992,42.014,35.996,42.017,36z"/>
	<path d="M50.993,40h-13v2h9.022c-0.004,0.004-0.008,0.008-0.011,0.013h3.862C50.91,42.011,50.95,42,50.993,42c1.654,0,3,1.346,3,3
		s-1.346,3-3,3v2c2.762,0,5-2.238,5-5S53.755,40,50.993,40z"/>
	<path d="M17.702,36H5.993v2h12.012h0.822h15.166c3.314,0,6-2.687,6-6c0-3.314-2.686-6-6-6v2c2.205,0,4,1.794,4,4s-1.795,4-4,4
		H21.455C17.653,34.266,15,30.438,15,25.993c0-6.064,4.935-10.999,11-10.999c5.384,0,9.868,3.891,10.81,9.006h2.021
		C37.87,17.77,32.5,12.994,26,12.994c-7.18,0-13,5.819-13,12.999C13,30.019,14.83,33.615,17.702,36z"/>
</g>
<g>
	<path d="M130.22,33.443h-24v2h24c2.205,0,4,1.794,4,4s-1.795,4-4,4v2c3.314,0,6-2.686,6-6
		C136.22,36.13,133.534,33.443,130.22,33.443z"/>
	<path d="M147.72,31.443v-0.051c2.523-0.254,4.5-2.358,4.5-4.949c0-2.762-2.238-5-5-5v2c1.654,0,3,1.346,3,3s-1.346,3-3,3
		c-0.043,0-0.083-0.011-0.126-0.013h-4.862c0.004,0.005,0.009,0.009,0.012,0.013h-0.023v2H147.72z"/>
	<path d="M151.22,33.443h-13v2h9.022c-0.003,0.004-0.007,0.008-0.011,0.013h3.862c0.043-0.002,0.083-0.013,0.126-0.013
		c1.654,0,3,1.346,3,3s-1.346,3-3,3v2c2.762,0,5-2.238,5-5S153.981,33.443,151.22,33.443z"/>
	<path d="M119.054,31.443h15.166c3.314,0,6-2.687,6-6c0-3.314-2.686-6-6-6v2c2.205,0,4,1.794,4,4s-1.795,4-4,4h-12.586
		c-2.596-1.188-4.658-3.339-5.69-6.034c0.849,0.204,1.724,0.309,2.612,0.309c6.168,0,11.187-5.019,11.187-11.188
		c0-1.276-0.22-2.532-0.64-3.717c4.046,1.102,7.168,4.459,7.937,8.63h2.018c-0.964-6.237-6.338-11.016-12.846-11.016
		c-0.259,0-0.511,0.024-0.766,0.039c1.425,1.618,2.297,3.737,2.297,6.063c0,5.072-4.112,9.188-9.187,9.188
		c-1.988,0-3.826-0.641-5.33-1.715c0.162,3.801,1.962,7.165,4.699,9.44H106.22v2h12.012H119.054z"/>
</g>
<g>
	<path d="M-589.562,118.637h-20c-1.103,0-2-0.897-2-2s0.897-2,2-2h3.445h0.555v-2h-4c-2.209,0-4,1.791-4,4s1.791,4,4,4h20
		c2.205,0,4,1.794,4,4s-1.795,4-4,4v2c3.314,0,6-2.686,6-6C-583.562,121.323-586.247,118.637-589.562,118.637z"/>
	<path d="M-587.562,102.637v2c2.205,0,4,1.794,4,4s-1.795,4-4,4h-15.988v2h15.988c3.314,0,6-2.687,6-6
		C-581.562,105.322-584.247,102.637-587.562,102.637z"/>
	<path d="M-581.562,114.637v2h5.5v-0.051c2.523-0.254,4.5-2.358,4.5-4.949c0-2.762-2.238-5-5-5v2c1.654,0,3,1.346,3,3s-1.346,3-3,3
		c-0.043,0-0.083-0.011-0.126-0.013h-4.862c0.003,0.005,0.009,0.009,0.012,0.013H-581.562z"/>
	<path d="M-570.562,118.637h-11v2h7.022c-0.004,0.004-0.008,0.008-0.011,0.013h3.862c0.043-0.002,0.083-0.013,0.126-0.013
		c1.654,0,3,1.346,3,3s-1.346,3-3,3v2c2.762,0,5-2.238,5-5S-567.8,118.637-570.562,118.637z"/>
</g>
<path d="M-53.27,104.983v-0.038h-38.376c-1.103,0-2-0.897-2-2s0.897-2,2-2h33c2.762,0,5-2.238,5-5s-2.238-5-5-5h-37.875v0.008
	c-0.042-0.001-0.083-0.008-0.125-0.008c-2.762,0-5,2.238-5,5s2.238,5,5,5v-2c-1.654,0-3-1.346-3-3s1.346-3,3-3h0.125h3.853h34.022
	c1.654,0,3,1.346,3,3s-1.346,3-3,3h-33c-2.209,0-4,1.791-4,4s1.791,4,4,4h38c1.103,0,2,0.897,2,2s-0.897,2-2,2h-32
	c-2.209,0-4,1.791-4,4s1.791,4,4,4h22c1.103,0,2,0.897,2,2s-0.897,2-2,2h-24.01v0.001c-2.204,0.006-3.99,1.793-3.99,3.999
	s1.786,3.993,3.99,3.999v0.001h12.01c1.103,0,2,0.897,2,2s-0.897,2-2,2h-2c-2.209,0-4,1.791-4,4s1.791,4,4,4v-2
	c-1.103,0-2-0.897-2-2s0.897-2,2-2h2c2.209,0,4-1.791,4-4s-1.791-4-4-4h-12c-1.103,0-2-0.897-2-2s0.897-2,2-2h24
	c2.209,0,4-1.791,4-4c0-2.152-1.704-3.895-3.834-3.983v-0.017h-22.166c-1.103,0-2-0.897-2-2s0.897-2,2-2h32c2.209,0,4-1.791,4-4
	C-49.646,106.865-51.239,105.176-53.27,104.983z"/>
<path d="M132.146,95.661v-2.024h-2v2.024c-13.01,0.513-23.462,10.965-23.975,23.976h1.674c1.14-1.222,2.748-2,4.551-2
	c2.26,0,4.233,1.203,5.331,3h1.838c1.098-1.797,3.071-3,5.331-3c2.204,0,4.137,1.144,5.25,2.866v15.134c0,2.21,1.791,4,4,4
	s4-1.79,4-4h-2c0,1.103-0.897,2-2,2s-2-0.897-2-2v-15.134c1.113-1.723,3.046-2.866,5.25-2.866c2.26,0,4.233,1.203,5.331,3h1.838
	c1.098-1.797,3.071-3,5.331-3c1.803,0,3.411,0.778,4.551,2h1.674C155.607,106.626,145.155,96.174,132.146,95.661z M149.896,115.637
	c-2.496,0-4.736,1.114-6.25,2.87c-1.514-1.756-3.754-2.87-6.25-2.87s-4.736,1.114-6.25,2.87c-1.514-1.756-3.754-2.87-6.25-2.87
	s-4.736,1.114-6.25,2.87c-1.514-1.756-3.755-2.87-6.25-2.87c-1.402,0-2.731,0.351-3.897,0.975
	c1.909-10.769,11.339-18.975,22.647-18.975s20.738,8.206,22.647,18.975C152.627,115.987,151.298,115.637,149.896,115.637z"/>
<g>
	<path d="M-273.149,219.949v-17.105c0-2.762-2.238-5-5-5s-5,2.238-5,5v17.105c-1.236,1.263-2,2.988-2,4.895c0,3.866,3.134,7,7,7
		s7-3.134,7-7C-271.149,222.938-271.913,221.212-273.149,219.949z M-278.149,229.844c-2.757,0-5-2.243-5-5
		c0-1.313,0.508-2.554,1.429-3.495l0.571-0.583v-0.816v-17.105c0-1.654,1.346-3,3-3s3,1.346,3,3v17.105v0.816l0.571,0.583
		c0.921,0.941,1.429,2.183,1.429,3.495C-273.149,227.601-275.393,229.844-278.149,229.844z"/>
	<path d="M-277.149,222.02v-15.176h-2v15.176c-1.167,0.413-2.008,1.516-2.008,2.824c0,1.662,1.347,3.008,3.008,3.008
		c1.662,0,3.008-1.346,3.008-3.008C-275.142,223.535-275.981,222.433-277.149,222.02z M-278.149,225.852
		c-0.556,0-1.008-0.452-1.008-1.008s0.452-1.008,1.008-1.008s1.008,0.452,1.008,1.008S-277.594,225.852-278.149,225.852z"/>
</g>
<g>
	<path d="M-173.361,219.949v-17.105c0-2.762-2.238-5-5-5s-5,2.238-5,5v17.105c-1.236,1.263-2,2.988-2,4.895c0,3.866,3.134,7,7,7
		s7-3.134,7-7C-171.361,222.938-172.125,221.212-173.361,219.949z M-178.361,229.844c-2.757,0-5-2.243-5-5
		c0-1.313,0.508-2.554,1.429-3.495l0.571-0.583v-0.816v-17.105c0-1.654,1.346-3,3-3s3,1.346,3,3v17.105v0.816l0.571,0.583
		c0.921,0.941,1.429,2.183,1.429,3.495C-173.361,227.601-175.604,229.844-178.361,229.844z"/>
	<path d="M-177.361,222.02v-20.176h-2v20.176c-1.167,0.413-2.008,1.516-2.008,2.824c0,1.662,1.347,3.008,3.008,3.008
		c1.662,0,3.008-1.346,3.008-3.008C-175.354,223.535-176.193,222.433-177.361,222.02z M-178.361,225.852
		c-0.556,0-1.008-0.452-1.008-1.008s0.452-1.008,1.008-1.008s1.008,0.452,1.008,1.008S-177.806,225.852-178.361,225.852z"/>
</g>
<g>
	<path d="M-376.259,219.949v-17.105c0-2.762-2.238-5-5-5s-5,2.238-5,5v17.105c-1.236,1.263-2,2.988-2,4.895c0,3.866,3.134,7,7,7
		s7-3.134,7-7C-374.259,222.938-375.022,221.212-376.259,219.949z M-381.259,229.844c-2.757,0-5-2.243-5-5
		c0-1.313,0.508-2.554,1.429-3.495l0.571-0.583v-0.816v-17.105c0-1.654,1.346-3,3-3s3,1.346,3,3v17.105v0.816l0.571,0.583
		c0.921,0.941,1.429,2.183,1.429,3.495C-376.259,227.601-378.502,229.844-381.259,229.844z"/>
	<path d="M-380.259,222.02v-10.176h-2v10.176c-1.167,0.413-2.008,1.516-2.008,2.824c0,1.662,1.347,3.008,3.008,3.008
		c1.662,0,3.008-1.346,3.008-3.008C-378.251,223.535-379.091,222.433-380.259,222.02z M-381.259,225.852
		c-0.556,0-1.008-0.452-1.008-1.008s0.452-1.008,1.008-1.008s1.008,0.452,1.008,1.008S-380.703,225.852-381.259,225.852z"/>
</g>
<g>
	<path d="M-479.904,219.949v-17.105c0-2.762-2.238-5-5-5s-5,2.238-5,5v17.105c-1.236,1.263-2,2.988-2,4.895c0,3.866,3.134,7,7,7
		s7-3.134,7-7C-477.904,222.938-478.668,221.212-479.904,219.949z M-484.904,229.844c-2.757,0-5-2.243-5-5
		c0-1.313,0.508-2.554,1.429-3.495l0.571-0.583v-0.816v-17.105c0-1.654,1.346-3,3-3s3,1.346,3,3v17.105v0.816l0.571,0.583
		c0.921,0.941,1.429,2.183,1.429,3.495C-479.904,227.601-482.147,229.844-484.904,229.844z"/>
	<path d="M-483.904,222.02v-5.176h-2v5.176c-1.167,0.413-2.008,1.516-2.008,2.824c0,1.662,1.347,3.008,3.008,3.008
		c1.662,0,3.008-1.346,3.008-3.008C-481.896,223.535-482.736,222.433-483.904,222.02z M-484.904,225.852
		c-0.556,0-1.008-0.452-1.008-1.008s0.452-1.008,1.008-1.008s1.008,0.452,1.008,1.008S-484.349,225.852-484.904,225.852z"/>
</g>
<g>
	<path d="M-584.562,219.949v-17.105c0-2.762-2.238-5-5-5s-5,2.238-5,5v17.105c-1.236,1.263-2,2.988-2,4.895c0,3.866,3.134,7,7,7
		s7-3.134,7-7C-582.562,222.938-583.325,221.212-584.562,219.949z M-589.562,229.844c-2.757,0-5-2.243-5-5
		c0-1.313,0.508-2.554,1.429-3.495l0.571-0.583v-0.816v-17.105c0-1.654,1.346-3,3-3s3,1.346,3,3v17.105v0.816l0.571,0.583
		c0.921,0.941,1.429,2.183,1.429,3.495C-584.562,227.601-586.805,229.844-589.562,229.844z"/>
	<path d="M-589.562,221.836c-1.661,0-3.008,1.347-3.008,3.008c0,1.662,1.347,3.008,3.008,3.008c1.662,0,3.008-1.346,3.008-3.008
		C-586.554,223.183-587.899,221.836-589.562,221.836z M-589.562,225.852c-0.556,0-1.008-0.452-1.008-1.008s0.452-1.008,1.008-1.008
		s1.008,0.452,1.008,1.008S-589.006,225.852-589.562,225.852z"/>
</g>
<g>
	<path d="M-84.637,200.156c-2.209,0-4,1.791-4,4c0,2.21,1.791,4,4,4c2.211,0,4-1.79,4-4
		C-80.637,201.947-82.426,200.156-84.637,200.156z M-84.637,206.156c-1.103,0-2-0.897-2-2s0.897-2,2-2s2,0.897,2,2
		S-83.534,206.156-84.637,206.156z"/>
	<path d="M-70.637,228.156c-4.41,0-7.999-3.589-7.999-7.999v-4.002c0-4.41,3.589-7.999,7.999-7.999c2.715,0,5.115,1.362,6.563,3.437
		l1.43-1.43c-1.824-2.429-4.72-4.007-7.992-4.007c-5.522,0-9.999,4.478-9.999,9.999v4.002c0,5.521,4.477,9.999,9.999,9.999
		c3.272,0,6.168-1.579,7.992-4.008l-1.43-1.43C-65.521,226.793-67.921,228.156-70.637,228.156z"/>
</g>
<g>
	<path d="M20.06,200.035c-2.209,0-4,1.791-4,4c0,2.21,1.791,4,4,4c2.211,0,4-1.79,4-4C24.06,201.826,22.271,200.035,20.06,200.035z
		 M20.06,206.035c-1.103,0-2-0.897-2-2s0.897-2,2-2s2,0.897,2,2S21.162,206.035,20.06,206.035z"/>
	<polygon points="39.935,208.156 39.935,206.156 27.935,206.156 25.935,206.156 25.935,230.156 27.935,230.156 27.935,218.156 
		35.935,218.156 35.935,216.156 27.935,216.156 27.935,208.156 	"/>
</g>
<g>
	<path d="M131.146,203.848c-7.179,0-13,5.82-13,13s5.821,13,13,13s13-5.82,13-13S138.324,203.848,131.146,203.848z M131.146,227.848
		c-6.065,0-11-4.935-11-11s4.935-11,11-11s11,4.935,11,11S137.211,227.848,131.146,227.848z"/>
	<path d="M126.879,221.09l6.363-2.121l2.121-6.364L129,214.727L126.879,221.09z M130.581,216.308l1.62-0.54l-0.54,1.62l-1.62,0.54
		L130.581,216.308z"/>
</g>
<g>
	<path d="M-589.562,294.365c-7.179,0-13,5.82-13,13s5.821,13,13,13s13-5.82,13-13S-582.383,294.365-589.562,294.365z
		 M-589.562,318.365c-6.065,0-11-4.934-11-11c0-6.064,4.935-11,11-11s11,4.936,11,11
		C-578.562,313.432-583.496,318.365-589.562,318.365z"/>
	<path d="M-587,305.787l-2.586-4.422l-2.529,4.33h0.007c-0.299,0.467-0.478,1.018-0.478,1.613c0,1.656,1.343,3,3,3s3-1.344,3-3
		c0-0.559-0.162-1.074-0.428-1.521H-587z M-589.586,308.309c-0.552,0-1-0.449-1-1c0-0.188,0.055-0.367,0.162-0.535l0.864-1.355
		l0.826,1.391c0.098,0.164,0.147,0.332,0.147,0.5C-588.586,307.859-589.034,308.309-589.586,308.309z"/>
</g>
<g>
	<path d="M-484.777,294.365c-7.18,0-13,5.82-13,13s5.82,13,13,13s13-5.82,13-13S-477.598,294.365-484.777,294.365z
		 M-484.777,318.365c-6.065,0-11-4.934-11-11c0-6.064,4.935-11,11-11s11,4.936,11,11
		C-473.777,313.432-478.712,318.365-484.777,318.365z"/>
	<path d="M-483.188,304.785c-0.467-0.299-1.018-0.477-1.613-0.477c-1.658,0-3,1.342-3,3c0,1.656,1.342,3,3,3
		c0.557,0,1.072-0.162,1.52-0.428v0.014l4.422-2.586l-4.328-2.529V304.785z M-484.304,308.16c-0.164,0.098-0.332,0.148-0.498,0.148
		c-0.552,0-1-0.449-1-1c0-0.553,0.448-1,1-1c0.188,0,0.368,0.053,0.535,0.16l1.355,0.865L-484.304,308.16z"/>
</g>
<g>
	<path d="M-381.727,294.365c-7.18,0-13,5.82-13,13s5.82,13,13,13s13-5.82,13-13S-374.547,294.365-381.727,294.365z
		 M-381.727,318.365c-6.065,0-11-4.934-11-11c0-6.064,4.935-11,11-11s11,4.936,11,11
		C-370.727,313.432-375.661,318.365-381.727,318.365z"/>
	<path d="M-381.727,304.309c-1.656,0-3,1.342-3,3c0,0.557,0.162,1.072,0.428,1.52h-0.014l2.586,4.422l2.529-4.328h-0.006
		c0.299-0.467,0.477-1.018,0.477-1.613C-378.727,305.65-380.068,304.309-381.727,304.309z M-380.888,307.844l-0.865,1.355
		l-0.826-1.393c-0.098-0.164-0.147-0.332-0.147-0.498c0-0.553,0.448-1,1-1s1,0.447,1,1
		C-380.727,307.496-380.78,307.676-380.888,307.844z"/>
</g>
<g>
	<path d="M-278.313,294.365c-7.179,0-13,5.82-13,13s5.821,13,13,13s13-5.82,13-13S-271.134,294.365-278.313,294.365z
		 M-278.313,318.365c-6.065,0-11-4.934-11-11c0-6.064,4.935-11,11-11s11,4.936,11,11
		C-267.313,313.432-272.247,318.365-278.313,318.365z"/>
	<path d="M-278.354,304.309c-0.557,0-1.072,0.162-1.52,0.428v-0.014l-4.422,2.586l4.328,2.529v-0.006
		c0.467,0.299,1.018,0.477,1.613,0.477c1.658,0,3-1.342,3-3C-275.354,305.652-276.695,304.309-278.354,304.309z M-278.354,308.309
		c-0.188,0-0.368-0.055-0.535-0.162l-1.355-0.865l1.393-0.826c0.164-0.098,0.332-0.146,0.498-0.146c0.552,0,1,0.447,1,1
		C-277.354,307.859-277.802,308.309-278.354,308.309z"/>
</g>
<g>
	<rect x="-486.464" y="97.637" width="2" height="10"/>
	<rect x="-471.764" y="103.723" transform="matrix(0.7071 0.7071 -0.7071 0.7071 -60.8604 364.7846)" width="2" height="10.409"/>
	<rect x="-505.373" y="107.932" transform="matrix(0.7071 0.7071 -0.7071 0.7071 -69.4693 385.578)" width="10.409" height="2"/>
	<polygon points="-492.132,126.891 -490.718,128.305 -486.464,124.051 -486.464,133.637 -484.464,133.637 -484.464,124.051 
		-480.211,128.305 -478.797,126.891 -485.464,120.223 	"/>
	<path d="M-472.457,123.636c0-0.002,0-0.004,0-0.006c0-7.18-5.82-12.999-13-12.999s-13,5.819-13,12.999c0,0.002,0,0.004,0,0.006h-13
		v2h18v-2h-3c0-0.002,0-0.004,0-0.006c0-6.064,4.935-10.999,11-10.999s11,4.935,11,10.999c0,0.002,0,0.004,0,0.006h-3v2h17.995v-2
		H-472.457z"/>
</g>
<g>
	<rect x="-382.719" y="96.449" width="2" height="10"/>
	<rect x="-368.019" y="102.535" transform="matrix(0.7071 0.7071 -0.7071 0.7071 -31.3139 291.0779)" width="2" height="10.409"/>
	<rect x="-401.628" y="106.745" transform="matrix(0.7071 0.7071 -0.7071 0.7071 -39.9228 311.8713)" width="10.409" height="2"/>
	<polygon points="-380.719,130.996 -380.719,120.449 -382.719,120.449 -382.719,130.996 -386.973,126.742 -388.387,128.156 
		-381.719,134.824 -375.052,128.156 -376.466,126.742 	"/>
	<path d="M-368.712,122.448c0-0.002,0-0.004,0-0.006c0-7.18-5.82-12.999-13-12.999s-13,5.819-13,12.999c0,0.002,0,0.004,0,0.006h-13
		v2h22v-2h-7c0-0.002,0-0.004,0-0.006c0-6.064,4.935-10.999,11-10.999s11,4.935,11,10.999c0,0.002,0,0.004,0,0.006h-7v2h21.995v-2
		H-368.712z"/>
</g>
<g>
	<polygon points="-178.361,130.462 -178.361,116.079 -180.361,116.079 -180.361,130.462 -184.615,126.208 -186.029,127.622 
		-179.361,134.29 -172.694,127.622 -174.108,126.208 	"/>
	<path d="M-162.733,111.108c-1.596-7.445-8.207-13.029-16.127-13.029c-6.423,0-11.977,3.678-14.702,9.035
		c-0.266-0.018-0.53-0.04-0.8-0.04c-6.627,0-11.999,5.372-11.999,12c0,6.607,5.34,11.965,11.938,11.998v0.003h6.062v-2h-5.604
		l-0.447-0.003c-5.485-0.027-9.948-4.513-9.948-9.998c0-5.514,4.485-10,9.999-10c0.175,0,0.347,0.014,0.52,0.025l0.148,0.01
		l1.316,0.088l0.598-1.176c2.492-4.899,7.443-7.942,12.92-7.942c6.79,0,12.75,4.814,14.172,11.448l0.317,1.482l1.514,0.095
		c4.203,0.262,7.496,3.763,7.496,7.971c0,4.397-3.565,7.977-7.957,8c-0.05-0.003-0.093-0.005-0.137-0.007l-2.043,0.007h-4.863v2
		h6.863v-0.007c0.046,0.001,0.091,0.007,0.137,0.007c5.521,0,10-4.477,10-10C-153.361,115.765-157.506,111.434-162.733,111.108z"/>
</g>
<g>
	<polygon points="-272.377,127.267 -270.963,125.853 -277.63,119.185 -284.298,125.853 -282.884,127.267 -278.63,123.013 
		-278.63,135.599 -276.63,135.599 -276.63,123.013 	"/>
	<path d="M-261.002,112.704c-1.596-7.445-8.207-13.029-16.127-13.029c-6.423,0-11.977,3.678-14.702,9.035
		c-0.266-0.018-0.53-0.04-0.8-0.04c-6.627,0-11.999,5.372-11.999,12c0,6.607,5.34,11.965,11.938,11.998v0.003h10.062v-2h-9.604
		l-0.447-0.003c-5.485-0.027-9.948-4.513-9.948-9.998c0-5.514,4.485-10,9.999-10c0.175,0,0.347,0.014,0.52,0.025l0.148,0.01
		l1.316,0.088l0.598-1.176c2.492-4.899,7.443-7.942,12.92-7.942c6.79,0,12.75,4.814,14.172,11.448l0.317,1.482l1.514,0.095
		c4.203,0.262,7.496,3.763,7.496,7.971c0,4.397-3.565,7.977-7.957,8c-0.05-0.003-0.093-0.005-0.137-0.007l-2.043,0.007h-8.863v2
		h10.863v-0.007c0.046,0.001,0.091,0.007,0.137,0.007c5.521,0,10-4.477,10-10C-251.63,117.36-255.774,113.029-261.002,112.704z"/>
</g>
<g>
	<path d="M-58.513-76.812c-1.596-7.445-8.207-13.029-16.127-13.029c-6.423,0-11.977,3.678-14.702,9.035
		c-0.266-0.018-0.53-0.04-0.8-0.04c-6.627,0-11.999,5.372-11.999,12c0,6.607,5.34,11.965,11.938,11.998v0.003h2.062v-2h-1.604
		l-0.447-0.003c-5.485-0.027-9.948-4.513-9.948-9.998c0-5.514,4.485-10,9.999-10c0.175,0,0.347,0.014,0.52,0.025l0.148,0.01
		l1.316,0.088l0.598-1.176c2.492-4.899,7.443-7.942,12.92-7.942c6.79,0,12.75,4.814,14.172,11.448l0.317,1.482l1.514,0.095
		c4.203,0.262,7.496,3.763,7.496,7.971c0,4.397-3.565,7.977-7.957,8c-0.05-0.003-0.093-0.005-0.137-0.007l-2.043,0.007h-0.863v2
		h2.863v-0.007c0.046,0.001,0.091,0.007,0.137,0.007c5.521,0,10-4.477,10-10C-49.141-72.155-53.285-76.486-58.513-76.812z"/>
	<polygon points="-80.141,-57.823 -80.141,-60.453 -77.968,-59.23 -77.282,-60.451 -79.752,-61.841 -77.282,-63.23 -77.968,-64.451 
		-80.141,-63.229 -80.141,-65.823 -82.141,-65.823 -82.141,-63.185 -84.392,-64.451 -85.077,-63.23 -82.607,-61.841 
		-85.077,-60.451 -84.392,-59.23 -82.141,-60.497 -82.141,-57.823 	"/>
	<polygon points="-74.979,-53.469 -77.151,-52.246 -77.151,-54.841 -79.151,-54.841 -79.151,-52.202 -81.402,-53.469 
		-82.088,-52.248 -79.618,-50.858 -82.088,-49.469 -81.402,-48.248 -79.151,-49.515 -79.151,-46.841 -77.151,-46.841 
		-77.151,-49.471 -74.979,-48.248 -74.293,-49.469 -76.763,-50.858 -74.293,-52.248 	"/>
	<polygon points="-65.963,-60.451 -68.136,-59.229 -68.136,-61.823 -70.136,-61.823 -70.136,-59.185 -72.387,-60.451 
		-73.072,-59.23 -70.603,-57.841 -73.072,-56.451 -72.387,-55.23 -70.136,-56.497 -70.136,-53.823 -68.136,-53.823 -68.136,-56.453 
		-65.963,-55.23 -65.277,-56.451 -67.747,-57.841 -65.277,-59.23 	"/>
</g>
<g>
	<rect x="16.999" y="-94.863" width="2" height="7.973"/>
	<rect x="-2.001" y="-75.949" width="7.973" height="2"/>
	<rect x="2.672" y="-87.216" transform="matrix(0.7071 0.7071 -0.7071 0.7071 -59.0134 -29.9608)" width="7.974" height="2"/>
	<rect x="28.181" y="-90.198" transform="matrix(0.7071 0.7071 -0.7071 0.7071 -52.4142 -45.8847)" width="2" height="7.972"/>
	<path d="M47.511-69.073c-1.444-6.742-7.433-11.8-14.605-11.8c-2.185,0-4.258,0.471-6.127,1.314
		c-1.666-3.203-5.006-5.395-8.865-5.395c-5.522,0-10,4.477-10,9.999c0,2.46,0.899,4.702,2.373,6.442
		c-1.428,1.84-2.287,4.144-2.287,6.653c0,5.983,4.836,10.836,10.813,10.865v0.003h1.188v-2h-0.721l-0.457-0.003
		c-4.864-0.023-8.822-4.001-8.822-8.865c0-4.89,3.978-8.868,8.867-8.868c0.15,0,0.299,0.012,0.447,0.022l0.148,0.01l1.314,0.085
		l0.597-1.175c2.225-4.372,6.644-7.089,11.532-7.089c6.062,0,11.382,4.298,12.649,10.219l0.318,1.483l1.514,0.094
		c3.708,0.23,6.612,3.319,6.612,7.03c0,3.878-3.144,7.035-7.017,7.057c-0.042-0.003-0.079-0.005-0.117-0.005l-1.866,0.005v2h1.819
		v-0.006c0.042,0.001,0.082,0.006,0.124,0.006c5.001,0,9.057-4.054,9.057-9.057C55.999-64.856,52.245-68.778,47.511-69.073z
		 M19.591-72.69c-0.241-0.016-0.48-0.036-0.725-0.036c-2.766,0-5.282,1.041-7.2,2.742c-1.092-1.365-1.753-3.089-1.753-4.97
		c0-4.41,3.589-7.999,8-7.999c3.092,0,5.76,1.773,7.091,4.346C22.706-77.168,20.827-75.12,19.591-72.69z"/>
	<polygon points="26.991,-51.971 26.991,-54.601 29.164,-53.378 29.85,-54.599 27.38,-55.988 29.85,-57.378 29.164,-58.599 
		26.991,-57.376 26.991,-59.971 24.991,-59.971 24.991,-57.332 22.74,-58.599 22.055,-57.378 24.524,-55.988 22.055,-54.599 
		22.74,-53.378 24.991,-54.645 24.991,-51.971 	"/>
	<polygon points="32.153,-47.616 29.98,-46.394 29.98,-48.988 27.98,-48.988 27.98,-46.35 25.729,-47.616 25.044,-46.396 
		27.514,-45.006 25.044,-43.616 25.729,-42.396 27.98,-43.662 27.98,-40.988 29.98,-40.988 29.98,-43.618 32.153,-42.396 
		32.839,-43.616 30.369,-45.006 32.839,-46.396 	"/>
	<polygon points="41.169,-54.599 38.996,-53.376 38.996,-55.971 36.996,-55.971 36.996,-53.332 34.745,-54.599 34.06,-53.378 
		36.529,-51.988 34.06,-50.599 34.745,-49.378 36.996,-50.645 36.996,-47.971 38.996,-47.971 38.996,-50.601 41.169,-49.378 
		41.854,-50.599 39.385,-51.988 41.854,-53.378 	"/>
</g>
<g>
	<path d="M147.699-72.076c-1.444-6.742-7.433-11.8-14.605-11.8c-1.799,0-3.522,0.32-5.118,0.904
		c-0.949-5.108-5.404-8.98-10.788-8.98c-0.413,0-0.819,0.027-1.222,0.071c0.744,1.112,1.179,2.448,1.179,3.886c0,3.865-3.134,7-7,7
		c-1.438,0-2.773-0.435-3.886-1.179c-0.044,0.401-0.071,0.809-0.071,1.222c0,3.713,1.845,6.987,4.661,8.979
		c-1.653,1.907-2.661,4.389-2.661,7.111c0,5.983,4.836,10.836,10.813,10.865v0.003h1.188v-2h-0.721l-0.457-0.003
		c-4.864-0.023-8.822-4.001-8.822-8.865c0-4.89,3.978-8.868,8.867-8.868c0.15,0,0.299,0.012,0.447,0.022l0.148,0.01l1.314,0.085
		l0.597-1.175c2.225-4.372,6.644-7.089,11.532-7.089c6.062,0,11.382,4.298,12.649,10.219l0.318,1.483l1.514,0.094
		c3.708,0.23,6.612,3.319,6.612,7.03c0,3.878-3.144,7.035-7.017,7.057c-0.042-0.003-0.079-0.005-0.117-0.005l-1.866,0.005v2h1.819
		v-0.006c0.042,0.001,0.082,0.006,0.124,0.006c5.001,0,9.057-4.054,9.057-9.057C156.188-67.859,152.434-71.781,147.699-72.076z
		 M119.779-75.693c-0.241-0.016-0.48-0.036-0.725-0.036c-2.537,0-4.865,0.877-6.715,2.334c-2.012-1.294-3.486-3.354-3.976-5.776
		c0.582,0.117,1.178,0.177,1.78,0.177c4.963,0,9-4.037,9-9c0-0.603-0.06-1.198-0.177-1.78c3.733,0.753,6.629,3.824,7.134,7.64
		C123.389-80.691,121.174-78.437,119.779-75.693z"/>
	<polygon points="127.225,-54.974 127.225,-57.604 129.397,-56.381 130.083,-57.602 127.613,-58.991 130.083,-60.381 
		129.397,-61.602 127.225,-60.379 127.225,-62.974 125.225,-62.974 125.225,-60.335 122.974,-61.602 122.288,-60.381 
		124.758,-58.991 122.288,-57.602 122.974,-56.381 125.225,-57.647 125.225,-54.974 	"/>
	<polygon points="132.387,-50.619 130.214,-49.396 130.214,-51.991 128.214,-51.991 128.214,-49.353 125.963,-50.619 
		125.277,-49.398 127.747,-48.009 125.277,-46.619 125.963,-45.398 128.214,-46.665 128.214,-43.991 130.214,-43.991 
		130.214,-46.621 132.387,-45.398 133.072,-46.619 130.603,-48.009 133.072,-49.398 	"/>
	<polygon points="141.402,-57.602 139.229,-56.379 139.229,-58.974 137.229,-58.974 137.229,-56.335 134.979,-57.602 
		134.293,-56.381 136.763,-54.991 134.293,-53.602 134.979,-52.381 137.229,-53.647 137.229,-50.974 139.229,-50.974 
		139.229,-53.604 141.402,-52.381 142.088,-53.602 139.618,-54.991 142.088,-56.381 	"/>
</g>
<rect x="-468.659" y="-639.826" fill="none" width="472.974" height="180.918"/>
<text transform="matrix(1 0 0 1 -289.022 -568.4272)"><tspan x="0" y="0" font-family="'HelveticaNeueLTStd-Th'" font-size="100" letter-spacing="2">60</tspan><tspan x="-99.268" y="60" font-family="'HelveticaNeueLTStd-Lt'" font-size="48" letter-spacing="1">Weather Icons</tspan><tspan x="-3.726" y="104" font-family="'HelveticaNeueLTStd-Lt'" font-size="24">IOS 7 Style</tspan></text>
</svg>
